<?xml version="1.0" encoding="UTF-8"?>
<svg id="Layer_1" data-name="Layer 1" xmlns="http://www.w3.org/2000/svg" viewBox="0 0 459.43 285.68">
  <path d="M455.26,270.27l.74-144.54-1.59.71-.53-.88c.66-.55.24-1.63.35-2.47.28-2.02,1.01-4.33,1.41-6.36l.35-2.65,3.26-96.8L37.26,23.27l.46,17.61c.61.23.35,1.39.35,1.94.02,3.27-.11,6.45.35,9.53.35,2.35.24,4.45,0,7.06-.34,3.63-.33,7.45-.35,11.3,0,.55.25,1.71-.35,1.94v20.13c.61.23.35,1.39.35,1.94.05,6.59.04,13.19,0,19.77,0,.55.25,1.71-.35,1.94v15.89l.88,1.41,2.65-.71-.35,2.47c-1-.11-1.28-1.05-2.47-.71.19.57-.33.75-.35.88-.25,1.47.56,2.73.35,3.88-.02.14-.34.22-.35.35-.22,1.8.13,3.66.35,5.3l-.71,1.59v33.19c.61.23.35,1.39.35,1.94.03,4.59.03,9.18,0,13.77,0,.55.25,1.71-.35,1.94l3.54,79.63M38.49,206.02c.01.13.34.22.35.35.11.85-.3,1.92.35,2.47l-.71,1.06c-.18.37-.71-.31-.71-.35v-8.65l1.06,1.24c-.13,1.31-.51,2.42-.35,3.88ZM39.2,220.32h.71c.26.67-.62.93-.71,1.24-.09.34-.06,1.68,0,2.12.02.13.34.23.35.35.13,1.41-.1,2.98,0,4.41l-.71-.53c-.06-1.64.09-3.3,0-4.94-.13-2.43-.56-5.69-.71-8.12-.08-1.34.06-2.72,0-4.06l.71.88c-.34,1.6.59,3.49,0,4.59l.71,1.77c-.63.51-.27,1.49-.35,2.3ZM21.19,245.92c.26.82-1.88,1.47-2.47,1.24v-1.41c.6-.12,2.15-.82,2.47.18ZM19.07,25.42c1.14-.22,2.1.14,3,.35.32.07.76-.08,1.06,0,1.14.31.03,2.1-1.06,1.77-.14-.04-.22-.32-.35-.35-.9-.21-1.66.59-2.65.35l-.53-1.06h-.35M26.84,36.9c.23,1.29-.29,2.44-1.77,2.29v-2.65l.35-.35,1.06-.18c-.19.57.33.74.35.88ZM10.24,50.14,30.9,157.12c1.27-.39,1.48,1.41,1.24,2.29-.02.08-1.15,1.21-1.24,1.24M17.48,19.07.35,253.51l-.35-1.24.88-.88c2.7.86,2.54,2.49-.53,2.12ZM18.01,257.39h-2.12c-.44-2.41,2.51-2.53,2.12,0ZM19.42,281.23c-.18.35-.68-.26-.71-.35-.3-1.1.39-2.32,1.24-3l.88,1.24-.35,1.94-1.06.18ZM26.31,244.68c-.13-.02-.22-.33-.35-.35-1.17-.21-2.13.59-3.35.35l-.18-1.06c-.34-.18.23-.66.35-.71.28-.11.77.19,1.06-.35l1.94.35.53,1.06.18-.71h1.24c1.33,1.23-.37,1.61-1.41,1.41ZM30.37,166.3,33.37,248.57h-2.3v.71c-.91.08-1.82.09-1.77-1.06l1.41-.35c.07-1.71,1.38-1.16,2.3-1.41.19-.05.51-.65.71-.71.42-.13,1.12.15,1.24.53.11.38-1.34,1.79-1.59,2.29ZM34.25,157.65c-.22.97.4,1.89-.88,2.65-.55-.38-.67-.99-.53-1.59.03-.14.33-.22.35-.35.21-1.45-.54-2.54,1.77-2.3.29.29-.67,1.42-.71,1.59ZM40.61,260.57l-1.59-.71c-.52.68-.92.81-1.77.71-.3,0-.23-.7-.18-.88.17-.57,1.27-.79,1.59-.18,1.13-1.41,2.2-.64,1.94,1.06ZM50.32,277.52c-.54.06-2.71.85-3.18.71-1.77-.54-1.67-.22-3.18,0-1.03.15-1.79-.14-2.65-.35.05-.39-.08-.89,0-1.24.17-.73.16-3.12,0-4.24-.02-.15-.54-.51-.35-1.41l1.06-.88-.35,2.47c.77-.01,1.24-.27,1.06.71l-1.06.18v.53h.71c-.08.8.28,1.79-.35,2.29.19.12.39.49.53.53,1.04.29,3.11-.25,4.24,0,1.36.3,3.92.16,5.3-.71,1.3.72,3.14.1,4.59.71l1.24.71c-2.44.18-5.19-.25-7.59,0ZM421.47,0,417.58,0h-1.59M248.96,25.25c.07.15.32.22.35.35.08.3-.08.75,0,1.06.04.18.61.57.35,1.24h-1.41l-.35,1.41-.88.35-1.24-.35.35-1.94-.35-.88-1.41.18.35-1.24,1.06-.53-.35-.35c.6-.87,1.67-.45,2.65-.53.23.31.71.59.88.88.05.08-.05.24,0,.35ZM227.77,14.12l3.53.35-1.41.35c.08.84-.12,1.84,0,2.65.02.17.81,1.03.18,1.59l.18.88c-.91,1.24-1.12-.25-2.12-.18-.06-.75.08-1.56,0-2.29-.01-.13-.34-.23-.35-.35-.09-.97.06-2.02,0-3ZM154.14,6l-1.24-.88.88-1.24c1.04-.06,2.14.09,3.18,0,1.12-.09,3.12-.61,4.24-.71.98-.08,2.02.06,3,0l-2.29.35c-.47.64-1.38.24-2.12.35-.63.09-2.22.64-2.83.71-.73.08-1.55-.06-2.3,0,.08.65.01,1.03-.53,1.41ZM171.45,21.54c1.89-.07,4.57-.74,6.71-.35,5.28.94,15.36-.25,21.54-.35,5.78-.1,12.16.46,17.66-.35,1.07-.16,1.71.31,2.12.35,2.6.28,4.92-.37,7.42-.35l1.59.88c-.57.83-1.46.47-2.3.53l-.53.71.71.71c-.79-.31-1.54.62-1.94.71-.54.12-1.34-.08-1.94,0v1.77h2.3c.2.06.74.96.88,1.24.08.17-.07.47,0,.71.09.3.97.53.71,1.41-.04.15-.33.22-.35.35-.19,1.06.22,2.18-1.41,2.29l-.53-1.06h-3.35v1.41h1.06l.71,1.77c.42.07.64,0,.88-.35.41-.59-.12-.9,1.24-.71v1.59l-1.59.88c-.5-.55-2.83-.56-3.18,0-.24.38-.2.65-.18,1.06l-1.06-.88,1.77-2.12-1.41-1.41,1.41-2.12v-1.94c-.57-.19-.74.33-.88.35-.81.14-2.18-.15-2.65-.88-.05-.08.05-.26,0-.35-.22-.4-1.06-1.29-.53-1.59l1.94.71v.71c.67-.26.92.61,1.24.71,1.68.5,1.54-2.23-.18-2.12.15-1.03-.09-1.5-.88-2.12l-.88,1.77c-1.05.15-.95-.94-1.59-1.41-.2.16-.97.69-1.06.71-.7.15-1.84-.17-2.47,0-.45.12-1.1,1.65-1.94,1.41l.35.88,1.77,1.77-1.06.53v1.41c-1.61-.33-2.51,1.07-2.47,2.47.65-.09,1.23,0,1.41.71l-1.59.35-.88-.88.35-1.24h-2.12c-.26-2.06,2.74-1.23,2.12-3.53-1.44-.37-2.88-.8-2.47-2.65-.52-.32-.24-1.41-.88-1.59-.29-.08-.99-.07-1.24.18l-.35.71c.93.97.16,1.4-.35,2.12-.05.07.06.26,0,.35-.43.68-1.02.55-1.77.53v1.06l1.77.18-.71.88c.22.43-.55,1.23-.71,1.06.24-.68-.62-.94-.71-1.24-.06-.22.06-.49,0-.71-.1-.33-1.15-.84-.71-1.94-.32-.34-1.69.85-1.41,1.41-.47.09-1.26-.04-1.41-.53-.26-.83,1.74-.91,1.41-1.94h-2.29l-2.12,1.41c-1.05-.62-.68-1.22-.88-1.94-.1-.38-1.6-1.57-1.41-.35l-.71.18-.53-1.06-.71.71-1.06-.71c-1.1.56.41,1.62-.71,2.12-.65.29-.48-.69-1.06-1.06-.09-.06-.28.05-.35,0-.43-.31-.57-.88-1.24-.71v.71l-1.77.35.35,2.12c-.78.14-1.12-.13-1.59-.71l-3.53,2.12c-.29-.53-.71-.25-1.06-.35-.14-.04-.22-.32-.35-.35-1.22-.29-1.67.67-2.47,1.41l-1.94-1.94c-.18-.53.42-1.37.88-1.59.4-.19.72.13.53.53-.14.28-.54.38-.35,1.06.13.48.95.62,1.41.53v-1.41l.71.71c.67.26,1.06-.31,1.24-.35.43-.11,1.39.18,1.59-.53.12-.41,0-.83-.35-1.06.45-.68,1.03-.55,1.77-.53l-.88-1.06c-1.01-.14-1.8.13-2.65.35-.03-.84-.57-1.54-1.24-2.12-.31.24-1.6,1.37-1.77,1.41-.29.08-.73-.07-1.06,0-.13.03-.21.31-.35.35-.44.13-.66-.54-1.24-.35v1.06h1.06v1.59c-.52.9-.87-.04-1.59.18-.61.18-.43.94-.53,1.24-.05.14-.32.22-.35.35-.14.52.26,1.14-.53,1.59l-.88-1.24,1.06-.53v-.88l-1.41-1.06v-.88h-1.77l-.35,1.77-1.24-.35c-.94.84-1.5,2.09-3,1.77-.07-.61-.03-1.06.53-1.41.1-.06.75-.09.88-.53.08-.28-.17-.67.18-.88l-.18-1.06c1.31-.21.82,1.41,1.59,1.77.83.38.44-.97.53-1.06h.71v-1.06h-2.12v-.71c-.76.18-1.03-.1-1.59-.35-.75-.35-.45.59-.53.88-.04.14-.32.22-.35.35-.08.36.32,2.01-.53,1.59-.68-.34-.55-1.13-.53-1.77-.7.12-.82-.65-1.24,0l-1.06-.35-1.94,1.06c-.04-1.36-1.41-1.63-2.65-1.41-.13.02-.21.31-.35.35-.65.18-1.51.65-1.77.71-.6.13-1.47-.09-2.12,0l-1.06-1.41h-1.59v.71h-1.77v-.71c-.9.09-1.41.04-1.94-.71l-1.24.35c.08.65.01,1.03-.53,1.41l-1.06-1.41c-.75-.11-1.79.15-2.47,0-.13-.03-.21-.31-.35-.35-.36-.1-.95.62-1.59.35-.14-.96.16-.69.88-.71,4.69-.11,10.16-.61,14.83-.71,6.57-.13,13.22.25,19.78,0ZM224.6,43.25l-1.41.53.35-1.94c-.27-.38-1.21-.91-1.06-1.41.12-.39.81-.65,1.24-.53.71.21.43,1.16.53,1.59.03.14.33.22.35.35.08.42-.05.96,0,1.41ZM224.6,37.43v1.06c-.62.07-1.36-.1-1.94,0-.14.02-.32.55-.88.35.21,1.24-.41,2.27-1.77,2.12l-.35-1.24c.39-.54.76-.61,1.41-.53-.14-.78.13-1.12.71-1.59l-.71-1.59c1.02-.06,1.81-.04,2.65.35l1.41-.71.88,1.77h-1.41ZM224.95,39.19l2.3-1.06,1.24,1.59-1.59.88h-.71c-.52-.49-1.39-.46-1.24-1.41ZM216.83,43.96c-.18.66-.6.74,0,1.77l-.35.88c-.57.19-.73-.32-.88-.35-.91-.21-1.66.59-2.65.35.68-1.04.83-1.94.71-3.18l2.12.71.35-.88c-.46-.19-.31-.83-.35-.88-.04-.04-.89.05-1.06-.53-.11-.3.35-.83.53-.88,1.43-.39,3.5.39,3,2.12h-1.41c-.04.28.06.64,0,.88ZM217,31.78l-1.59,1.94.35.35-.88,1.24h-1.06c-.54-.75-1.04-.8-1.94-.71.11-.73-.93-1.52-.71-2.29.06-.21.58-.62.88-.53.6.17.44.92.53,1.24.05.18.87.97,1.24.88l.88-2.29.71-.71-1.41-1.06.35-3,2.47,1.41c.17.16-.63.93-1.06.71v1.77h1.24l1.59.88c-.65,1.07-1.14.05-1.59.18ZM210.12,45.9l-.71-.18c-.15-1.13-2.29-1.61-.88-2.65l1.77.35,1.59.88-1.24.18c-.55.39-.61.77-.53,1.41ZM211.35,38.13c-.53.26-.65-.28-.53-.71-1.33.06-1.9,1.06-2.65,2.12-1.04-.69.02-1.2-.18-2.12-.87.14-1.39-.55-2.3-.35-.16.03-.31.55-.88.35l.71-1.24-.35-.71c.57-.46.85-.81.71-1.59l1.06.53-.35.71.53.88,1.41-.71,1.59.35,1.06-1.06-.71,1.77h1.41c.02.64.14,1.43-.53,1.77ZM204.47,28.42l.35-.35c1.15-.73,1.63,1.77,0,1.59v1.41h-1.41c-.2-1.42.18-.85.53-1.06.46-.28,1.07-1.38.53-1.59ZM200.23,33.54l-.53,1.41c-.38-.54-1.44-1.61-1.24-2.29.26-.88,2.6-.43,3.35-.53.72.62,1.34,1.44,1.24,2.47-1.21-.12-1.37-1.49-2.83-1.06ZM201.99,38.49c.11,1.26-1.05.84-1.59,1.41-.51-.96-2.02-.39-1.94-1.77l1.59.71,1.94-.35ZM195.99,36.72c-.39-.06-.91.09-1.24,0-.09-.02-.7-.53-.35-.71l.53-1.41h-1.06l-.35-3.18.88.35,1.59-.71-.71,2.29.71,3.35ZM190.34,35.84c-.03.13-.29.2-.35.35-.08.19.06.47,0,.53-.07.07-.36-.09-.53,0-.74.41-1.37,1.61-1.94-.18l1.41-1.59h-1.59l-.53-.88c.83-.5-.33-2.22,1.06-1.94v1.41l1.24.71c.44-.77.93-.55,1.41-.71,1.37-.44,1.14,0,1.41,0,.04,0,.17-.27.71-.35,1.31-.19-.28,1.88-.71,2.12-.46-.57-.81-.85-1.59-.71-.05.39.07.88,0,1.24ZM187.16,29.83l.35-1.94c.65-.08,1.02-.02,1.41.53-.73.58.08,1.69-.88,2.29l-.88-.88ZM189.28,27.01l.88-1.59,1.59,1.24.71,1.94c-1.33.14-.83,0-1.06-.53-.11-.24-.53-.3-.35-.88l-1.77-.18ZM192.11,44.84c.86.12,1.65-1.35,2.47-.18l-2.47,1.59v-1.41ZM179.22,31.07c.5-.19.88-.43,1.41-.35.46.57.81.85,1.59.71.48.41.04.68-.53.71-.88.04-1.77-.03-2.65,0,.06-.33-.2-.92.18-1.06ZM161.38,28.6h-1.94c-.56-.51-.98-1.3-.88-2.12.77-.24,1.19.93,1.59,1.06.57.18,1.34-.09,1.24,1.06ZM134.02,5.65c.69-.03,1.45.08,2.12,0,2.55-.29,5.52-.77,8.12-1.06l3,.18c-.53.84-1.25.4-1.94.53-.46.08-1.2.23-1.77.35-1.49.33-4.24.59-6,.71-1.34.09-2.72-.06-4.06,0-.48-.4-.04-.68.53-.71ZM135.25,22.24v1.06c-.62.02-1.23-.19-1.59.35l-3-1.24,4.59-.18ZM127.31,22.6c.14-.03.21-.31.35-.35.28-.08,1.29.66,1.94.35-.19.82-.72.6-1.24.71-.5.11-1.33.2-1.77.35-.2.07-.3.54-.88.35l-.35-1.77c.72.04,1.14.54,1.94.35ZM121.83,54.9c.06.36,1.06,2.26,1.06,2.47l-.71,1.06.35,1.06-.71.71c.75,4.9-.05,10.42,1.06,15.18.16.67-.21,1.22.71,1.77l-.35,1.06,1.24.53c.37-.48,1.48-.46,2.12-.35,1.22.2,2.36-.69,3.88-.35.75.17,1.58.22,2.47.35.71.1,1.56-.07,2.3,0l-.53,1.06c-3.53.24-7.47-.33-10.95,0-.13.01-.22.34-.35.35-.61.08-1.32-.06-1.94,0-.06-.86.08-1.79,0-2.65-.68-7-.45-14.5-1.06-21.54.83-.8-.33-2.66,1.41-2.65.07.61-.1,1.36,0,1.94ZM108.94,13.42c.61-.36,1.2-.23,1.77-.35.14-.03.22-.33.35-.35.48-.08,1.08.05,1.59,0l-.88,1.77-.53-.35v.71c-.71.06-1.51-.24-1.94.35l-1.24-.88c.31-.23.59-.71.88-.88ZM78.22,22.6h15.89c4.57-.71,10.58-.05,15.54-.35,3.55-.22,7.13-.4,10.59,0,.55.06.68.45,1.24.35l-.53,1.06-2.12-.71-2.12.71c-.29-.53-.71-.25-1.06-.35-.31-.09-.69-1.08-1.59-.71l.71,1.06c-.56.1-.69-.29-1.24-.35-1.91-.22-4.2.33-5.65,0-.47-.11-2.66-.09-3.18,0-.1.02-.36.55-1.06.35l-.53-1.06c-.17.02-.38-.06-.53,0-.84.35-.76.48-1.77,0-1.19.33-5.25,1.26-6.36,1.06-1.33-.24-4.98-.73-6.36-.35-.34.09-.5,1-1.77.71-1.68-.39-4.56-.68-6-.35-.92.21-1.29-.21-1.77-.35-.45-.13-.91.9-1.59-.18l1.24-.53ZM124.66,185.9c-.05-.19-.65-.51-.71-.71-.43-1.57.58-1.66,1.06-2.47.69-1.17.07-2.49.35-3.53.05-.19.65-.51.71-.71.15-.56-.15-1.56,0-2.12.02-.08,1.15-1.21,1.24-1.24.28-.08,1.81-.07,2.12,0,1.13.25,1.42-.18,2.47,0,.14.02.24.35.35.35s.22-.33.35-.35c.86-.14,1.51.29,2.12-.71l1.24,1.06-1.94.71c-1.48-.11-3.14.15-4.59,0-.13-.01-.22-.33-.35-.35-.54-.08-1.2.06-1.77,0-.71.65-1.09,1.72-.88,2.65.42,1.89-.19,7.9-.35,10.59-.32,5.14-.92,10.52-1.41,15.54-.08.79.04,1.66,0,2.47-.03.57-.3,1.01-.71.53-.05-.51.08-1.1,0-1.59-.02-.13-.32-.21-.35-.35-.12-.52.52-3.9.71-4.59v-.35c-.88-.61-.93-2.16-.71-3.18.03-.12.68-.94.71-1.06.46-2.12.32-4.57.71-6.71.04-.2-.28-3.62-.35-3.88ZM138.08,177.25c-.5.57-.23,1.08-.35,1.59-.03.15-.48.24-.35.71.58,2.09-.29,2.9.35,4.59l-.71,1.06.35,1.77c-1.13,2.5.1,5.92-.35,8.47-.02.1-.56.37-.35,1.06l1.24,1.94,1.77-.35c2.16.66,4.39.17,6.71.71.91.21,1.51-.53,2.12-.35l.88,1.06h-13.24c-.14.02-.32.55-.88.35.06-1.1-.09-2.25,0-3.35.43-5.45.74-11.23,1.41-16.59.17-1.34-.57-2.85,1.41-2.65ZM152.2,196.84c-.02-.14-.35-.24-.35-.35,0-.28.53-1.4.35-2.47-.33-1.98,1.01-4.92.71-7.41-.28-2.25.19-2.75.71-4.94.13-.57-.29-2.53-.35-3.18.76-.83.74-1.96,1.06-3,.41-.48.68-.04.71.53.07,1.44.08,3.16,0,4.59-.42,7.57-1.63,15.44-2.12,22.95-.09,1.34.06,2.72,0,4.06l1.59-.35h23.84c-.27-.64.34-1.13.35-1.24.19-1.29-.16-2.92,0-4.24.02-.13.33-.22.35-.35.1-.54.06-1.78-.53-1.94-.55-.15-2.8-.06-3.53,0-.13,0-.23.34-.35.35-1.98.19-3.27-.22-5.3,0-1.95.21-4.19-.15-6.18,0-.27-.64.34-1.13.35-1.24.18-1.2-.27-3.24,0-4.24.14-.5,1.09-.65,1.59-.53,1.61.38,1.23.13,2.47,0,3.11-.33,6.72.24,9.89,0l.53-.53c.06-.8-.09-1.69,0-2.47.07-.61.22-1.72.35-2.47.02-.1.56-.36.35-1.06-.19-.65-1.7-.62-2.3-.53-.13.02-.23.34-.35.35-3.71.4-8.05-.29-11.83,0,.05-.51-.08-1.1,0-1.59.02-.13.34-.22.35-.35.12-.97-.37-2.05.53-2.65h13.07c.39-.61,1.73-.1,1.94-.88.16-.59-.08-1.74,0-2.47.01-.13.34-.23.35-.35.12-1.43-.08-2.97,0-4.41.09-.11.67.39.71.53.27.95.43,1.91.35,3h.71c-.21.81.6,1.22,0,1.59l.35,1.06c-.47.42-.74,1.02-1.41.88v1.06c-.69-.21-1.88,1.3-2.3,1.41-.72.2-2.1-.2-2.83,0-.3.08-.7,1.08-1.59.71-.48.41-.04.68.53.71.62.03,1.64-.13,2.12,0,.07.02.98.65,1.06.71.79.58,1.5,1.66,2.3,2.29v.35c-.62.4-.25,1.13-.35,1.77-.02.14-.35.24-.35.35,0,.1.69,1.23.35,1.94h-.71c-.13,1.07-.84,2.34-2.12,2.12v1.41h-1.77l.35-.88-1.24-.53c-.15.04-.22.33-.35.35-1.33.24-3.22-.03-4.59.35-.19.05-.51.65-.71.71-.76.21-1.32-.11-1.77-.71l-1.59,1.59.71,1.24c1.2-.17,2.95.24,4.06,0,.53-.12,1.05-1,2.12-.71.19.05.51.65.71.71.45.12,1.23-.08,1.77,0,.14.02.54.56,1.41.35.55-.13,1.66-1.03,1.77-1.06,2.36-.65,2,1.49,1.94,3.18l1.24.35.53-.88-.35-1.06.71-.71c-1.22-1.28.65-2.27.35-3.53-.09-.4-.88-1.14,0-1.77-1.76-1.35-1.04-1.93.35-3.18l-.71-1.24c.87.28,1.47-1.2.88-1.41-.31-.11-.61-.07-.88-.53,0-.12.33-.22.35-.35.21-1.29.3-2.99,0-4.06h.71c-.19-.57.33-.74.35-.88.24-1.34-.54-2.38-.35-3.71h1.06l.35-2.29.88-1.24c.81-.06,1.68.08,2.47,0,1.77-.19,2.2-.64,4.24,0,.39.12,2.06-.84,1.59.18-.26.56-.74.49-1.24.53-.93.07-1.9-.07-2.83,0-.13,0-.23.34-.35.35-1.22.09-2.49-.06-3.71,0l-2.47,31.42h22.78c.07,0,.6-.62,1.24-.35.06-.86-.09-1.8,0-2.65.06-.55.64-2.27.71-2.82.08-.73-.06-1.55,0-2.29.57-.19.72.32.88.35.58.13,1.15-.24,1.59.53l-.35,1.06.35,1.41c-.24.79-1.69,1.83-1.77,2.12-.13.47.13,1.29,0,1.77-.03.11-1.48,1.56-1.59,1.59-.22.06-.49-.06-.71,0-.12.04-1,.94-1.41,1.06h-.35c-.82-.95-1.81.24-2.83,0-.17-.04-.57-.62-1.24-.35v.71c-.67.26-.93-.62-1.24-.71-.85-.24-3.42-.17-3.88.71l-1.41-.71c-.69,1-2,.73-2.83,1.41h-.35c-.67-.45-.56-1.01-.53-1.77-1.17-.44-1.81.96-2.65.71-1.1-.33-1.41-.21-2.47-.35-.21-.03-1.48-.27-1.77-.35-.3-.08-.69-1.08-1.59-.71v-1.59c-.32-.41-.69-.69-1.24-.53-.77.23-.94,2.75-1.77,3.18-1.13.1-2.43-.14-3.53,0-.33.04-2.23.77-2.47.71-1.65-.46-12.67-.76-14.48-.35-.74.17-1.45.19-2.47,0-.8-.15-1.4-.19-2.12-.35-.69-.16-1.45.32-1.94-.53-.11-.38,1.02-1.35-.53-1.59l-.18,1.41c-.91-.43-1.92.96-2.3,1.06-1.01.28-2.65-.52-3.35.53l.35.35c-.61.47-.89.97-.71,1.77.05.2.64,1.18.71,1.41.07.24-.04.6,0,.88-1.34-.36-1.56,1.39-2.83,1.41-.31-.79.62-1.54.71-1.94.08-.34.08-2.17,0-2.47-.08-.29-.95-.55-.71-1.24-.61.07-1.36-.1-1.94,0-.06.01-.84.28-1.06.35-.2.07-.3.54-.88.35v-.71l-1.24-.35c-.14.04-.22.32-.35.35-.79.18-2.69.08-3.18,0-.83-.14-1.27.06-1.77.71l-.18-.71c-.97-.21-1.32.44-1.94,1.06-.18-.45-.84-.31-.88-.35-.04-.05.03-.84-.53-1.06l-1.06.35-.71-.71h-2.3l.53-.71h22.25c.14-.02.32-.55.88-.35-.19-.57.33-.74.35-.88.16-.92-.09-2.18,0-3.18.01-.13.34-.22.35-.35.08-.76-.15-1.81,0-2.47,0-.04.31-.64.35-.71.68-1.15,2.81-1.21,2.47-3.18ZM165.27,111.57v-.88c.93-1.32,1.76.88,3.18.53.21,1.13-.4.52-.88.71-.27.1-.54.59-1.24.35v-1.06l-1.06.35ZM167.21,174.07c2.64-.44,6.44.53,9.53-.35.28-.08,1.29.66,1.94.35l-.53,1.06-22.78.35c-.03-1.44,1.09-.91,1.94-1.06.18-.03.53-.56,1.41-.35,1.42.33,2.67.56,3.88.35,1.42-.24,3.22-.12,4.59-.35ZM183.28,132.4c1.3.19,2.23-.54,3.53-.35v-1.06l.88.35.88-.53-.35-1.77c-.31-.27-.57-.62-.88-.88-.71-.59-1.16-1.34-1.77-1.77-.29-.21-1.1-.15-.88-1.06h.71c-.06-.63.08-1.33,0-1.94-.02-.13-.34-.22-.35-.35-.26-2.44.67-3.78,1.06-5.65.15-.73-.33-1.39.53-1.94,1.65-1.05,2.96-2.78,4.59-3.88.72-.49,1.69-.82,2.47-1.41l1.41.35c2.73-1.29,7.34-.79,10.24-.35l2.65-.35c-.23,1.04.59,1.43,1.24,2.12.11,0,.21-.31.35-.35,1.56-.45,1.23,2.64,3,2.12-.26.67.62.93.71,1.24.08.29-.07.73,0,1.06.03.14.48.24.35.71-.2.71-.83,1.96-.35,2.47l-.35,1.06,1.41,1.06-.71,2.12-1.06,1.06.35,2.12c1.15.71.83,1.27,1.06,2.12.05.17.87.98,1.24.88l1.24-3c.67-1.01,2.94-1.99,1.77-3.18l.35-1.41c-.64-.57-.51-1.76-.71-2.47-.08-.29-1.03-.75-1.06-1.24.54-.05,1.59-.08,1.77.53.17.62-.47,1.47.71,1.24-.31-1.08.97-1.37.71-2.29-.08-.3-.97-.52-.71-1.41.21-.7,1.51-.53,2.12-.53l.35-1.94c-.56-.88-1.31-1.49-1.06-2.65.31-.34,1.6.96,1.77,1.24.21.35-.36.73,1.06.53l-.18-1.06.18-.71h1.41c-.06-.78,1.17-2,1.94-1.77.15.04.22.33.35.35.47.08,2.68.39,2.83.35,1.97-.54,3.14.07,4.94-.35.99-.23,2.1.72,3.18.71.56.22.48,1.01.53,1.06.05.05.84-.03,1.06.53l-.35,1.24h.71v2.65l.88.88,1.06-.35.53.53.35,1.59-2.12-.35v1.06l1.06.53-.35.71.35,1.77,2.3,1.94,1.24-.35c.06.71-.24,1.51.35,1.94v.35c-.49.64-1.23.95-1.06-.18-2.25-.39-.2,1.6.53,2.12.07.05.26-.06.35,0,.77.49.5,1.28.53,2.12.68.24.95-.63,1.24-.71.31-.08,1.29-.33,1.41-.35.6-.09,1.32.06,1.94,0l.53-1.06c.23.15.54.66.71.71,1.8.5,3.35-.2,4.94.35l1.24-.88-.71-1.06,1.06-1.41-1.06-1.77v-1.24h1.24c.17-.05.85-1.1.88-1.24.08-.3-.08-.76,0-1.06.05-.19.65-.51.71-.71.12-.44,0-1.44-.53-1.59-.57-.17-.86.94-1.59.71-.06-.76.78-1.04,0-1.59l.35-1.77-.35-.88h1.41c.28-.63-.33-1.1-.35-1.24-.33-1.83.73-2.55,2.47-2.29v-2.12c.68-.24.95.63,1.24.71,1.34.36,2.92-1.07,4.41-.71v-.71c1.17.34,2.26-.82,3,0h.35l.53-1.06h1.41c.21.7-.54.87-.71,1.24-.48,1.03,1.41-.01,1.77.18v-2.47h1.06l-.35,1.24c.15.23.66.53.71.71.5,1.74.75,3.67,1.77,5.3v.71c-.23.33-.65,1.47-.71,1.77-.14.74.11,2.08.88,2.29.3.08.75-.07,1.06,0,.16.04.31.55.88.35l.53-1.06,1.24.35v-1.24l1.77-1.41c-.78-1.06-1.61-.29-2.47-.18v1.41h-1.06c.57-.65.21-1.32.35-1.94.03-.13.31-.21.35-.35.13-.44-.54-.66-.35-1.24l3.35.71c.49-.57,1.11-.07.88-1.06l-1.41-.35v-1.41l-.88,1.06-2.65-.18c.7-1,1.88-.08,2.47-1.06v-.88l1.24-.35,1.59,1.06c-.03-.96,1.17-1.53,1.77-2.29l-.35-.71.35-.71c-.4-.95-1.62-1.48-1.41-2.65l1.77.71.35-.88-.35-1.24c1.11-.21,1.87-.99,3.18-.71v-1.06h1.06v-1.41c.73.13,1.06-.61,1.59-1.06l1.77.71c.86-.93,2.14-.37,2.83-1.41l1.06.71.88-.88-1.41-.53.53-1.06,2.47,2.47.88-.88v-.71c-.83-.69-.19-1.5,0-2.12.2-.65-.46-.98-.35-1.59-.71-.1-1.17.44-1.06,1.06l-1.41.35.35-1.59-.53-.53c-.44.07-1.04-.1-1.41,0-.09.02-.7.53-.35.71.29.41,1.39,1.07,1.24,1.59-.12.39-.81.65-1.24.53-.8-.24-.4-1.46-.53-1.94-.08-.3-1.08-.7-.71-1.59l1.24.35,1.41-1.06h.71l1.41,1.06c.52-.52.63-.32.18-.88-.45-.57-1.35-.97-2.12-.88l.53-.71,1.59.35v-1.77c.63-.27,1.1.33,1.24.35,1.03.18,1.67-.37,2.65-.35l-.35,2.65,1.77,1.77c-.83.96-2,.96-3.18.88-.15,1.25,1.62.92,1.41,2.12l-1.06.53.71,1.06c-.6,1.01-2.82,1.59-2.47,2.82.08.29.95.55.71,1.24-.74.23-1.31-.55-1.94-.35-1.21.38-2.19.18-3.18.71l-1.77-.35c-.18.45-.84.31-.88.35-.07.07.09.36,0,.53-.48.86-1.63,1.72-1.77,2.82l-2.12,2.82.53.88c.37.11.51-.3,1.06-.35.83-.08,2.17.18,2.83,0,.3-.08,2.89-2.99,3.53-3.53,1.01-.86,2.51-2.12,3.88-2.12l.18-1.06c1.13-.21.52.39.71.88.41,1.08.72,2.36,1.06,3.53.04.14.32.22.35.35.22.93-.22,1.38-.88,1.94-.53,0-.81-2.44-1.94-2.12l.35,2.82,1.24-.71c.29.41,1.39,1.07,1.24,1.59-.35,1.15-2.18-.13-2.47.18v1.06c.58-.19.67.28.88.35.3.11,1.03.11,1.41.35.55.35.6.8.53,1.41,1.47.01,1.45-1.79,0-1.77-.19-.58.29-.69.35-.88.22-.69-.73-1.05.18-1.59l.53,1.77,1.94-.35c.46.57.81.85,1.59.71.14-.6-.23-.7-.53-1.06-.79-.95-1.73-1.63-2.65-2.3l-.35-1.77c-.59-.6-1.27-.96-1.06-1.94l1.06.18v1.24l1.77-.71c-.06.91,1.03,1.42,1.59,2.12.87.16.5-.68.53-1.24.03-.57.29-1.02.71-.53-.25,1.29.68,2.74,1.94,1.77.46-.35.99-.85.88-1.41h1.77c.09.46-.16.84-.53,1.06-.23.14-.68-.31-.53.53.56.92.76.04,1.24.18l.71.71c.48-.59,1.35-.98,1.24-1.77l1.59.71,1.41-.35c.93,1.29,2.59.73,3.53-.35l1.06.35c.18-.45.84-.31.88-.35.06-.06-.08-.34,0-.53.06-.14.3-.21.35-.35.18-.49-.42-1.09.71-.88-.27,1.48,1.2,1.6,1.94,2.47l.88-.88-.18-1.24.88.88c-.59.41-.19.51.18.88l.53-.71c.39-.33,1.98,1.14,1.77,1.77h2.3l1.06-1.06.35.35,1.94-.35-.35,1.41,1.77.18c-.47.23-.19.77-.53.88-.38.13-.66.35-.71.35-.63.11-1.36-.27-1.77.35h-24.72c-1.31,1.1-.73,2.61-.88,4.06-.01.13-.34.22-.35.35-.13,1.23.04,1.6-.35,2.82-.13.42.24,1.24.53,1.24h9l-2.47,23.66c.81.15,1.41.52,2.29.35.14-.02.22-.34.35-.35,1.16-.14,6.98.26,7.24,0,.1-1.31-.13-2.77,0-4.06.04-.39.25-1.44.35-2.12.7-4.65,1.29-9.84,1.77-14.48.08-.82-.33-3.12.53-3.35h8.12c.22-.35,1.17-.99,1.24-1.24.22-.79-.09-2.53,0-3.53.01-.13.34-.22.35-.35.17-1.35.13-2.91.35-4.24.02-.14.55-.32.35-.88h1.06c-.19.57.32.73.35.88.18.84-.33,1.25-.35,1.94h.71c.19.57-.33.74-.35.88-.21,1.16-.56,2.29-.35,3.18l-.71.71.71,1.06c-.74.62.07,1.72-.88,2.29l-.88-.35-.35,1.41-3,1.41-1.59-.35v.71l-1.59-.71-1.59,1.24c.25.55-.33.96-.35,1.06-.27,1.54.38,3.08-.71,4.59.98,1.27-.43,3.55,1.06,4.59l-1.06,3.35h1.41l.35,1.77c-1.02.1-2.2-.36-2.83.53,0,.12.31.21.35.35.19.66-.67,1.16,0,2.12-.04.13-.28.2-.35.35-.21.41-.42,1.46-.88,1.59-.3.08-.76-.08-1.06,0-.26.07-1.01,1.15-1.41,1.41-.07.05-1.33.69-1.41.71-1.11.24-2.86-.17-4.06,0v-.71l-.88.35-1.41-.71-1.41,1.06c-.87-.53-.87-1.9-1.94-1.77v-.88c.5-.86,1.3-1.43,1.06-2.47-.84-1.32-1.68-2.68-3.53-2.29.33,1.02-1.64,1.47-1.77,1.94-.08.3.08.76,0,1.06-.05.19-.65.51-.71.71-.07.23.08.52,0,.71-.09.23-.54.3-.35.88l-.88-.71c-1,.66-.73,1.06-.88,1.94-.04.23-.68.25,0,.71l-.53.88-1.59-.35c-.03.84-.57,1.54-1.24,2.12l-.71-.71c-.3.42-1.02.84-1.24,1.24-.41.73-1.3,1.02-1.41,1.41-.23.79-.17,1.14-1.06,1.77l.35.35c-.27.17-.68.82-.88.88-.22.06-.49-.06-.71,0-.41.12-.93,1.52-1.94.18.37-.56,1.06-.51,1.41-1.06.06-.1-.05-.3,0-.35.68-.81,1.35-.95,1.06-2.29l1.41.35c-.19-.57.33-.75.35-.88.2-1.19-.24-2.2-.35-3.35l-.71.18v.53c-.28-.04-.65.07-.88,0-.22-.06-1.33-.71-1.41-.71-.07,0-.35.55-.88.35-.13-1.07-.84-2.34-2.12-2.12l.71,1.24c-.35.53-1,.69-1.59.53-.61-.17-.62-2.06-1.41-2.47l-1.06.71-1.94.35.71-1.24,1.06-.88h-2.12c.12,2.31-2.14,1.73-3.88,1.77.15,1.03-.09,1.5-.88,2.12l-.71-.71-2.47.35-.18,1.06c-.97.18-.72-.29-.71-1.06-.75-.06-1.56.08-2.3,0-.13-.01-.23-.34-.35-.35-.92-.08-2.46.2-3.18,0-.31-.09-.85-1.15-1.94-.71.22-1.32-.23-2.39-1.59-2.82l-3,2.65.35.88-1.77-.71c-.24.68.62.94.71,1.24.4,1.42-1.41,1.32-2.47,1.24v-1.41l.71-.71c-.68-.17-.83.42-1.24.71-.08.06-.28-.05-.35,0-.6.44-1.03,1.39-1.77,1.41-.97,1.14-1.75-.25-2.12-.35-.78-.22-1.69.54-2.83.35-.22-.04-.23-.47-1.06,0l-3.71-1.41-.53,1.06c-.94-1.15-1.1-2.55-2.82-2.82l-1.24.35c.21.42-.97,1.69-1.24,1.77-.3.08-.76-.08-1.06,0-.19.05-.51.65-.71.71-.48.13-1.09-.24-1.41.35h-.35c-.65-.99-1.57-.69-2.65-.71.22,1.96-.85.82-1.59,0l-.35.35c-.78-.75-2.36.18-2.3-1.41-1.47-.26-3.15-.09-4.41-1.06l-1.77-.35c-.62-.45-.81-1.09-.18-1.59l-.88-.53c-.42.54-1.35.54-1.77,0l-.88.88.35,1.77-.71.35-.53-.53-.88.35.35.88c-.49.87-1.3.35-1.94.53-.22.06-.75.86-1.06,1.06l-1.41-.35-1.06.71c-.77-.57-2.76-.57-3.53,0-.78-1.04-1.52-1.26-2.82-1.06-.1.02-.6.62-1.24.35.14-1.22-.09-1.94-1.41-1.77v-.71c-.48.08-1.17-.11-1.59,0-.38.1-1.98,1.87-1.59,2.47-.51.05-1.1-.08-1.59,0-.33.05-1.82.67-2.12.71-.89.11-1.91-.08-2.83,0l-.18.71c-.14.17-.93-.62-.71-1.06-.4.05-.88-.07-1.24,0-.14.03-.22.34-.35.35-1.56.2-5,.32-6-.71l-.71.35c-.38-.24-1.14-1.34-1.41-1.41-.93-.26-1.39.08-2.47-.71-1.03-.75-1.97-2.17-3-3-.18-.67-.22-1.46-.35-2.12-.03-.14-.33-.22-.35-.35-.09-.54.08-1.22,0-1.77-.02-.13-.34-.23-.35-.35-.07-.68-.11-2.2,0-2.82.02-.14.55-.32.35-.88ZM215.41,123.05v-.35c.39-.55.77-.61,1.41-.53.04.72.54,1.15.35,1.94-.03.13-.28.2-.35.35-.21.45-.18,1.02-1.06.88-.08-.8.28-1.79-.35-2.29ZM257.61,90.39l3.35-.35c.09,1.18-1.27,1.43-1.94.71l-1.06,1.06-.53-1.06c-1.28.18-2.32-.31-3.35-1.06-.46.57-.81.85-1.59.71.01-.5-.11-.94.18-1.41.34-.56,1.34-1.9,1.94-1.77v-1.41l1.59.71.88-.35v1.24l-1.41,1.41,1.94,1.59ZM262.03,106.63c-.81-.21-1.22.6-1.59,0l-.53.88c.57.5.66,1.96-.35,2.3l-.35-1.94c-.67-.84-1.99-1.39-1.77-2.65.71.06,1.51-.24,1.94.35l1.77-1.77.88,1.24-.35.35.35,1.24ZM254.26,95.68c.05-1.21,1.09-1.59,2.12-1.41-.04-.81.48-1.4,1.06-.53-1,.85-1.61,2.28-3.18,1.94ZM256.02,109.1v2.12c-.99.16-1.9-.13-2.12-1.24l1.24-1.24.88.35ZM266.27,101.33v-.71c.65-.08,1.03-.01,1.41.53l-.35,1.59-1.24.71-1.59-.35c-.36-.34,1.2-2.05,1.77-1.77ZM268.03,101.51c.23-1.29,1.33-1.07,1.94-.18l1.59-.35c.08,1.02-.99,1.28-1.59,1.77l-1.94-1.24ZM276.15,100.45l1.24-1.59,1.59.71c-.08.48.11,1.17,0,1.59-.08.31-1.12.76-.71,1.77-.75.59-1.14,2.29-2.3,1.94-.14-.04-.22-.33-.35-.35-.36-.07-.84.05-1.24,0,.33-1.03-1.63-1.46-1.77-1.94-.06-.22.06-.49,0-.71-.06-.2-.64-.5-.71-.71-.11-.33-.09-1.2.53-.88.15.08,1.56,1.48,1.59,1.59.11.4.04,1.47.88,1.24.19-.05.51-.65.71-.71.41-.11,1.11.08,1.59,0l-1.06-1.94ZM277.57,93.21c1.74,0,.48,1.94,1.77,2.65-.89.6-.74,1.3-.71,2.29h-1.77c-.12-.76.65-1.09,1.06-1.59l-.35-3.35ZM281.45,94.45c.16.59,1.2.58,1.77.53.24.79-1.5,1.89-1.94,1.77-.9-.55-.36-1.54-.53-2.3-.09-.4-1.02-1.15-.71-1.94.25-.28,1.35.64,1.41.88.08.3-.08.76,0,1.06ZM287.81,93.04c-.21,1.32-1.45,1.05-1.41-.18l-1.77.35-.35-1.59c.28-.27.26-.48.71-.35.54.15.93.09,1.24.18.18.05.46.57.71.71.17.09.46-.07.53,0,.03.03-.1.7.35.88ZM284.81,100.63c.22-.06.49.06.71,0,.31-.09.57-.96,1.24-.71v-3.18c.83.35,1.27,1.05,1.06,1.94-.03.14-.33.22-.35.35-.1.71.07,1.56,0,2.29-1.5-.19-1.95.27-1.77,1.77h-1.06c.15-.45-.36-1.22-.88-1.06l-1.06.71-.18,1.06c-1.42-.06-1.12-1.02-.71-1.94l-.35-.35c-.11-.3.34-.83.53-.88.93-.27,1.18.97,2.12.71.2-.06.51-.65.71-.71ZM280.39,104.16c-.18.58.25.65.35.88.16.35-.32.68.71.53l-.53.71c-.97.17-1.35-.19-1.94-.88l.35-1.59,1.06.35ZM276.86,106.45l1.06-.53c-.18.89.3,1.23.88,1.77l1.06-.71c.24.26.66.47.53.88-.05.16-2.14,2.25-2.3,2.3-.38.11-.96.11-1.41.35l-.35-.71.88-.35.35-1.94-.71-1.06ZM290.63,69.73l.71-1.06-.71-1.24h.71l-.35-1.59-1.41-1.06c.96-1.21,2.38-.08,3.35.53l1.24-.35c.27.63-.33,1.09-.35,1.24-.15.82.14,1.75-.71,2.47l.35,1.24h-1.41l1.06.88-.88,1.24c-.84-.12-1.27.05-1.77.71-1.14-.71.4-1.12.53-1.59.12-.45.05-1.16-.35-1.41ZM292.93,49.08l.18,1.59-.71,1.06.35.71c-.54.59-.88,1.07-1.77.88l-.71-2.12,1.24.35.53-.53c-.18-.97.2-1.37.88-1.94ZM293.81,93.04c-.07.26-1.15,1.16-1.41.88v-1.06h-.53c-.66-.12.2-1.53.71-1.77l.88.35c-.09.64.54.93.35,1.59ZM295.58,88.09c-.11-.65-.05-1.19.53-1.59l1.24,3.88-2.47.35c-.24-.68.62-.94.71-1.24.11-.41.35-1,.35-1.06,0-.12-.33-.22-.35-.35ZM299.46,85.44v.88l-1.59,1.94-.35-1.41c.36-1-.13-2.81,1.41-3.18l-.18,1.77h.71ZM300.87,86.33l.35-1.59h1.41l.35.88-.35,1.59h-1.41l-.35-.88ZM307.94,89.68l-1.24-.35-1.06.35-.88-.88.88-.88,1.59.35v.71l.71.71ZM309.35,93.04l-1.24.88-.88-.53.35-1.59h-1.41v-1.41l.88-.35c.31.49,1.83,1.58,1.94,1.94.1.33-.18.76.35,1.06ZM309,103.81l-2.12-.35c-.23-1.1.95-1.6,1.06-2.65-.58-.85-1.58-.46-2.47-.53l-.35-1.59,1.06-.53c-.02.73-.15,1.31.53,1.77.44-.99,2.15.36,2.3.88.21.75-.15,2.14,0,3ZM305.46,94.45c.17-.56.6-.45,1.06-.35.93.2,2.02.78,2.12,1.94l-2.3-.35c-.48-.51-1.23-.13-.88-1.24ZM319.94,96.92l1.41-.88c.06.71-.24,1.51.35,1.94l-1.24,1.59-1.59-.35.53-1.06c.49-.13.67.74,1.24-.18l-.71-1.06ZM326.65,91.09c-.26.93.59,1.8.35,2.65-.05.18-.91.72-.71.88l2.12-.35v.71l.71.71-1.24-.35c-.61.6-.96,1.27-1.94,1.06.04-.4-.06-.86,0-1.24.02-.14.35-.23.35-.35,0-.06-.63-.62-.35-1.24-.84-.21-1.32.41-1.94.71-.98.47-.36-1.21.35-1.41.47-.14,1.32-.14,1.59-.88.18-.5-.42-1.08.71-.88ZM334.07,95.33c1.02-.24,1.46,1.88,2.29,2.12.22.06.49-.06.71,0,.13.04,1.26,1.05,1.59,1.24-.42,2.18-1.99-.69-2.47-.18v1.06h-1.41l.35-1.41c-.67.26-.93-.62-1.24-.71-.33-.1-1.62.29-1.24-.53.06-.12.73-.79.88-.88.27-.16.72.31.53-.71ZM331.24,94.45l-1.06-.18,1.24-1.77h1.59c.28,1.34-.9,1.46-1.77,1.94ZM340.78,86.68c.55-.88,1.45-.39,2.3-.53.14-.02.32-.55.88-.35v2.12l-1.59-1.06c-1.03.73-.24,1.28-.18,2.12-1.03-.1-1.95.99-2.83-.18.12-.36.59-.06,1.06-.35.69-.43,1.06-1.24.35-1.77ZM346.78,87.21h1.41c.02,1.31.44,2.33,1.94,2.12.22-.03.25-.71.88.18l-.35,1.24c-1.3.14-2.31-.89-3.53,0v-.53l-1.06-.18c-.28-1.31,1.26-.24,1.77-1.24-.7-.77-1.34-.24-1.06-1.59ZM346.96,171.6l.71-.71h.71l1.06.71c1.12-.86,3.03-1.07,4.24-.71l2.12-1.77c.4.65,1.2.2,1.77.35.47.13,1.34,1.74,2.47,1.41.2-.06.51-.65.71-.71.29-.08.74.07,1.06,0,.13-.03.35-.56,1.06-.35.47.14,1.1,1.22.88,1.77,1.15-.21,1.59.24,2.3,1.06,1.59-1.14,1.75.68,1.59,2.12l1.77-.35c.08.48-.11,1.17,0,1.59.07.25.99.81,1.06,1.06.18.66-.13,1.88,0,2.65h-.71v1.06l.71.71-1.41.53,1.59.88c.68.07.51.01.53-.53.05-1.1-.29-1.67-.35-2.65l1.77-.35c-.24-.75.55-1.27.35-1.94-.06-.2-.65-.51-.71-.71-.08-.3.07-.75,0-1.06-.04-.16-.55-.31-.35-.88l1.06-.53c0-.11-.31-.21-.35-.35-.25-.89,1.42-1.87,1.06-3,.73.08,1.44.59,2.3.35.53-.15,1.2-1.9,2.3-1.41v.71c.96-.01,1.07-.99,2.3-.71.17.04,1.27.68,1.41.71.83.15,1.94-.1,2.83,0l.53-1.24c0-.3.7-.23.88-.18.51.15,1.13,1.89,2.12.71l1.06.71,1.77-1.06.88.35v.71c1.32.01,2.84.09,4.06.35.12.03.94.68,1.06.71.84.19,1.25-.33,1.94-.35-.14.67.46.94.88,1.41l1.41-.35c.67.45.56,1.01.53,1.77.76.12,1.09-.64,1.59-1.06l.71.35c.89-.54.74-1.31,1.24-1.94l.18-2.3c.4,0-.06.56.35.71.45.16.71.21,1.06.71l2.12-1.41c.31.2.83,1,1.06,1.06,1.25.34,1.57-.96,2.47-.71.31.09.57.96,1.24.71-.01-1.47,1.79-1.45,1.77,0h1.41l.53-1.06,1.06.71,1.06-1.06,1.77,1.06c.14-.04.22-.33.35-.35,1.04-.21,1.36-.15,2.12,0,1.7.34,5.25.65,7.06.35.14-.02.24-.35.35-.35.41.79,1.03.55,1.41.71.23.09.3.54.88.35l.35,1.06h-.71c-.3.3.65,1.35.71,1.59.23,1.08-.22,2.85-1.06,3.53l.35,1.59.71.71h-1.77v1.24l-1.41,1.06.71,1.06-.35,1.06c.78.43.55.96.71,1.41.07.2.54.3.35.88l-1.06.53c.12.99-.16,2.25,0,3.18.02.14.55.32.35.88-.89-.08-1.19.56-1.06,1.41-1.3-.19-2.23.54-3.53.35v1.41l2.3-1.06c.26.31.65.57.88.88.24.32,1.38,1.65,1.41,1.77.06.22-.06.49,0,.71.06.2.65.51.71.71.08.28.08,2.54,0,2.82-.05.19-.65.51-.71.71-.08.3.08.76,0,1.06-.04.15-.68.93-.71,1.06-.08.35.05.84,0,1.24h.53l.18.71c-.58-.19-.67.28-.88.35-.2.07-.47-.06-.71,0-1.41.35-2.63.63-3.88.35-1.57-.35-3.48.89-4.94-.35l-1.77,1.06c-.35-.57-.88-.26-1.41-.35-2.45-.42-5.54.33-8.48-.35-.93-.22-2.03.52-2.83.71-.5.11-1.07-.24-1.41.35l-1.41-1.77-.18,1.77c-1.35.28-.82-.36-1.59-1.06-.48.59-1.35.98-1.24,1.77l-1.24-.71-.71.71c-.89.25-1.47-.88-2.12-1.41h-2.65c.03,1.3-1.82,1.46-2.83,1.77l-.35-1.41-1.94-.35-.71,1.41-.18-1.59,1.06-1.06-.88-.53-1.06.35-1.41-1.77-1.41.35c-.61-.42-.58-.88-.53-1.59,0-.3-.7-.23-.88-.18-.78.23-.41,1.43-.53,1.94-.08.37-.58.45,0,1.41l-1.06.88c.12-1.41-.17-3.04,0-4.41.13-1.03.93-2.85,1.06-3.88.11-.87-.18-4.94,0-5.12.6.08,1.4-.12,1.94,0,.13.03.2.28.35.35.11.05.28-.05.35,0,.16.1,1.21,1.15,1.24,1.24.07.23-.08.53,0,.71,1.4,3.01,2.54,5.86,3.88,8.83.06.14,0,1.24.53,1.24h9.89c.37-.1.66-.82.53-1.24-.04-.14-.31-.21-.35-.35-.07-.21.06-.48,0-.71-.03-.1-.89-.99-1.06-1.41-.63-1.59-1.03-3.67-1.77-5.3-.65-1.44-2.13-3.83-3.71-4.41-.35-.13-.16-.43-.18-.71.58.18.66-.26.88-.35.19-.08.48.07.71,0,1-.29,3.41-3.11,4.06-4.06.16-.24.66-.54.71-.71.07-.23-.08-.53,0-.71.1-.22.68-.93.71-1.06.19-.89-.2-2.3,0-3.18.03-.14.48-.24.35-.71-.04-.14-.32-.22-.35-.35-.09-.41.09-1,0-1.41-.03-.13-.29-.2-.35-.35-.55-1.39-1.08-2.41-2.3-3.35-.46.07-1.05-.57-1.41-.71-.2-.07-.48.06-.71,0-.14-.04-.22-.33-.35-.35-.91-.16-2.18.08-3.18,0-1.7-.14-1.85-.13-3.53,0-4.34.33-9.04-.24-13.42,0l-.88.88c-.06.92.09,1.92,0,2.82-.08.84-.62,2.69-.71,3.53-.47,4.47-.65,8.77-1.41,13.06-.58,3.26-.82,6.66-1.41,9.89-.12.66.01,2.21.88,1.94.15-.09.24-.33.35-.35,2.01-.44,5.41.32,7.59,0-.2.76-.65.65-1.24.71-.38.04-1.1-.2-1.24.18.31.25.57.66.88.88.77.55,1.82.62,2.47,1.41l1.24-.35v1.41h.71c-.02.17.06.38,0,.53-.45,1.07-.12.5,0,1.06.23,1.03-.08,2.28-.88,3-.79-.11-.97-.99-1.94-.71-.46-.44,1.25-1.6,1.41-1.94.4-.82-.98-.44-1.06-.53-.26-1,.6-.52,1.06-1.24l-.53-.53-1.77-.35c-.46.59-1.24.55-1.77.71-.76.22-.5,1.75-.53,2.47h.88l.53.53c.02,1.52.32,2.61-1.06,3.53l.35,1.94c-1.01.33-.59-.88-1.24-1.06-.85-.24-1.46,1.15-2.65.71v-1.41l-1.41,1.41-.71-2.82,1.94.35c.35-.38,1.65-2.06,1.24-2.47h-1.24l-.88-1.59-1.24-.88-1.24.53c-.02.64.21,2.08-.53,2.29-.42.12-1.12-.14-1.24-.53-.22-.73,1.98-1.37.53-2.29l-.88.18-1.06-.18-.71,1.06.35-1.41-1.06-.53.35-.35-.35-1.24c.67.14.94-.46,1.41-.88l-3-3-.53.88v1.77c.32.38.75.67,1.06,1.06.36.45.31.75-.18.88-.85-.27-1.94-1.31-1.94-2.12-.39.05-.89-.08-1.24,0-.15.03-.24.48-.71.35-.14-.04-.22-.32-.35-.35-1.56-.35-1.7.36-2.47,1.41l-.18-.71c-1.1-.23-1.54.75-2.3,1.41-1.57-1.19-2.86.47-4.41.35v.53c-.12.66-1.53-.2-1.77-.71l.35-1.24c-1.09-.45-1.63.62-1.94.71-.37.1-.98-.07-1.41,0l-1.41-1.41c-.92.27-2.43-.95-2.83-1.06-.74-.2-4.06.41-4.06-.53l.35-1.24-3.18-.35-.35,2.12c-.54.19-.81-.35-.88-.35-.11,0-.2.3-.35.35-.2.07-.47-.06-.53,0-.05.05-.07,1-.71,1.24l.35,1.06-.53.53c-.12,0-.22-.33-.35-.35-1.3-.22-3.05.16-4.41,0,.02.73.15,1.31-.53,1.77l-1.24-.35-.35-1.77c-.51.05-1.1-.08-1.59,0-.76.12-1.67.6-2.82.35-.38-.08-1.12-.98-1.77-.71l-.53,1.06-3-.71c-.99,1.26-2.3.85-3.18-.35-.72.12-1.85-.17-2.47,0-.19.05-.51.65-.71.71-.35.1-.77-.18-1.06.35h-.35c-.25-.18-.47-.57-.71-.71-.59-.34-2.76-1.17-3-1.41-.07-.07.09-.36,0-.53-.32-.57-1.5-1.65-1.94-2.29-.23.38-.57.3-.88.53-.6.44-1.35,2.13-1.94,2.29-.74.21-1.76-.4-2.3.53l.35,1.24-2.65-.71c-.23.15-.54.66-.71.71-1.56.43-4.03-.78-5.3,1.06l-.53-1.06-3.71.35-.71.71-1.06-1.06c-1.08-.2-2.16-.38-3.18-.71-.21-.07-.49.06-.71,0-.36-.1-.92-1.33-.88-1.77h-.71v-.88l-.53-.53-1.24.35c-.17-.18.42-2.2-.53-1.77-.95.44-1.52.19-2.12.71l-1.06-.35c-.89.75-1.39,1.64-1.24,2.82h-1.41v.88c-.33.68-.95.4-1.24.53-.88.4-1.92,1.48-2.83,2.12l-.88-1.41c-.76-.12-1.09.64-1.59,1.06-.12,0-.22-.33-.35-.35-1.84-.31-3.67.64-5.65.35-.62-.09-1.27-.95-2.12.35l-1.41-1.06-1.06.71c-.37-.3-.69-.8-1.06-1.06-.9-.62-2.21-1.15-3.18-1.77-.66-.42-.56-1.62-1.59-1.41.51-1.23-1.93-2.32-2.12-3-.1-.38.33-2-.53-1.59-.23.11-.52.65-.71.71-.54.15-1.15-.25-1.59.53v1.59c-.28.04-.65-.07-.88,0-.28.08-4.21,3.35-4.41,3.71-.09.17.07.46,0,.53-.32.32-1.82.24-2.3.35-1.05.25-2.03.46-3.18.71-.12.03-.94.68-1.06.71-2.06.45-5.24.06-7.42.35-.61.08-1.32-.06-1.94,0l.35-1.41c-.86-.11-1.64.11-2.3.71-1.08-.28-2.16-.9-1.94-2.12l-1.41.35-.35-2.12-.88.35c-.22-.35-1.17-.99-1.24-1.24-.08-.3.08-.76,0-1.06-.07-.25-.99-.81-1.06-1.06-.13-.47.13-1.29,0-1.77-.09-.32-1.48-1.32-1.77-1.77.07-.92-.09-1.92,0-2.82.05-.44.45-2,.71-2.47l-.71-1.06c.54-.28.24-.78.35-1.06.29-.72.95-1.08.71-2.12-.46-1.97.69-1.91,1.06-3.18.52-1.8.96-4.53,2.83-5.12v-.88c1.67-.99,3.18-2.61,4.77-3.71.13-.09.91-.26,1.06-.35.19-.12.34-.38.53-.53v-.35c-.75-.45-.93-1.66-.71-2.47.1-.35,1.21-1.07.71-2.29h.71c-.32-1.47,1.73-1.71,1.41-3.18.9.37,1.28-.62,1.59-.71.58-.17,4.69-.78,4.94-.71,1.64.5,2.12.02,3.53.35.99.23,3.23-.93,4.24-.71.18.04.6.62,1.24.35.03,1.44-1.09.91-1.94,1.06-.14.02-.22.34-.35.35-1.42.18-2.8-.54-3.71.88-.59.92-1.17,2.65-1.77,3.53-.52.78-1.67,1.35-1.41,2.65h3.71c.74-.64,1.38-1.5,2.12-2.12.63-.52,1.49-1.22,2.12-1.77.91-.78,1.54-1.91,2.83-2.12l.53.71-.71.18-.53,1.24h-.88c.09.9.04,1.41-.71,1.94l-.35,1.94,1.41-.71c-.19.78.74,1.05,1.06,1.59.04.07.34.66.35.71.29,1.28-.47,2.18,1.77,1.94v.88l1.06.53v.71h-.71c-.22,1.25,1.35,2.02,1.41,3.18l1.24-.71.71.35c.66-.37.41-.82.53-1.24.08-.3,1.35-1.59,1.06-2.47.31-.24.58-.69.88-.88.79-.5.99,0,1.06,0,.37,0,1.38-1.29,1.94-1.06v-.88c.5-.32,1.13-.96,1.59-1.24,1.02-.62,2.4-1.21,3.53-.35h.35c.65-.99,1.57-.69,2.65-.71l-.35-1.06c.76-.25,1.21.96,1.59,1.06,1.2.33,1.44-.62,1.77-.71,1.23-.34,2.23.15,3.18-.35.7.66,2.04-.02,1.94,1.41h1.77l.53,1.06.71-.35c.55.67,1.38,0,1.94.88.05.08-.05.26,0,.35.29.52.85,1.26,1.06,1.77.08.2-.08.49,0,.71.08.21.54.3.35.88l1.41-.35c-.08.65-.01,1.03.53,1.41.36.1,1.84-.88,1.94-1.24.56-1.94,3.12-3,4.77-4.06.61-.43,1.23-2.22,1.77-2.47.72-.34.47.9,1.06,1.06,1.37.38,1.63-.92,2.12-1.06.39-.11,1-.35,1.06-.35.12,0,.22.33.35.35.74.12,1.69-.09,2.47,0,.13.01.22.33.35.35.48.08,1.08-.05,1.59,0v-.71l.88.71,1.77-.71c1.17.6,2.89.34,4.24.71.87.24-.07.86,2.12.35,1.1-.26,1.79.3,1.59,1.41h1.06c-.13.54.99,1.51-.18,1.41l-.18.71,1.24-.35,1.24.71-.35-1.59c1.43-.95,1.05-2.15,1.06-3.71h1.77c-.35-.62-1.47-1.52,0-1.41v-1.41h1.06c.06.94-.61,1.71-.35,2.65.17.61.94.44,1.24.53.19.06.36.55,1.06.35l.53-1.06c.95-.1,2.51-.12,3.35-.35.44-.12.34-1.25,2.12-1.77,1.16-.33.72-1.94.88-2.65.02-.1.71-1.19.88-1.24.22-.06.49.06.71,0,.42-.12.53-1.08,1.06-1.41.3-.19,1.12-.26,1.41-.71l1.06.35.35-.35,1.41.71,2.3-.35c.28,2.4-1.06,1.57-2.65,1.77-.13.02-.23.34-.35.35-.9.09-1.9-.06-2.82,0-.33.51-.95,1.13-1.24,1.59-.79,1.25-1.39,2.49-2.3,3.71-.3.4-.74.51-.53,1.24.2.69,2.04.62,2.65.53.13-.02.21-.32.35-.35.32-.07.77.08,1.06,0,1.11-.31,3.43-3.26,4.59-4.24.07-.06.28.06.35,0,.8-.65,1.31-1.63,2.47-1.77.54.39.61.76.53,1.41-1.34-.08-.87.89-1.06,1.59-.11.4-.92,1.02-.71,1.77.03.1.53.7.71.35l.53-.53,2.47,1.77,1.06-.35c.47.67,1.42.2,2.12.35.11.02,1.19.72,1.24.88l-.35,1.06.71,1.06c-.63.39-.22,1.16-.35,1.77-.03.13-.65.88-.71,1.06-.07.22.04.6,0,.88h-.71l.35.53-.71.88h2.12c-.28-.73.95-1.2,1.06-1.59.08-.3-.08-.76,0-1.06.1-.36,1.4-.75,1.77-1.41.18-.32-.12-.59.88-.88.52-.15,1.16.26,1.59-.53l-.35-.88h1.06v-.71c1.23.16,2.41-.07,2.47-1.41l1.24.35ZM353.14,93.57c1.12-.23,1.56.77,2.3,1.41l.88.18-.88.88-1.06-.71-.71.35-.88-.35.53-1.06-.18-.71ZM354.2,100.63c.35.32-.86,1.7-1.41,1.41-.25.68.29,1.02.35,1.24.53,1.76-1.37.34-1.77-.35.58-.67.23-1.73,1.41-1.59v-.71h1.41ZM362.67,97.63c.08.18-.07.47,0,.71.09.33,1.16.86.71,1.94l-2.12-.71.35-1.59-.71-1.41,1.06-.53c-.11.62.52,1.16.71,1.59ZM363.02,86.5c.06-.06.34.08.53,0,.46-.19.57-.21,1.06-.35.54-.15.6-1.73,1.59-1.41v.71l1.77-.71c-.19,1.46.7,1.53,1.94,1.41l.18,1.06-1.59-.71c-.11,0-.21.31-.35.35-.87.25-1.27-.71-1.41-.71l-1.06,1.06-.71-.35-.88.88,1.77.88c-.74,1.45-1.23.49-1.94,0-.09-.06-.28.05-.35,0-.29-.22-1-.85-.88-1.24.45-.18.32-.85.35-.88ZM367.26,91.45v1.06c-1.06.3-1.23-.78-2.12-.71-.14-1.18.06-1.94,1.41-1.77l.53,1.06,1.59-1.06c.33.34-.82,1.67-1.41,1.41ZM376.44,99.21l-1.41-.35c.42,1.29-1.78.66-1.77.18.52-.65,1.5-1.09,1.41-1.94l2.83-.35c.38,1.36-1.78.41-2.12.71l1.06,1.77ZM386.86,88.27l.88.35-.35,1.94c-.33.42-.67.68-1.24.53-1.08-.29.14-1.09.18-1.24.14-.56-.25-1.15.53-1.59ZM389.51,95.15c.72.24,1.17.77,2.12.53-.22.86-1.27.82-1.94.71-.24-.04-.25-.68-.71,0l-1.24-1.41c.63-.04,1.14-.03,1.77.18ZM399.4,99.04l-.88.53-.53-1.06-1.41-.18,2.3-1.59c.43.46.7.36.18.88-.68.68-.25.81.35,1.41ZM408.05,88.62h.53l.53-1.41c.6.55,1.06.88.88,1.77-.67-.1-1.16.39-1.06,1.06-.61.02-1.46.14-1.77-.53-.32-.7.69-.44.88-.88ZM424.82,29.66l1.77-.71-.35,2.82c-1.48.03-1.18,1.09-1.41,1.94-.03.12-1.05,1.26-1.24,1.59-.55-.74-1.5-1.67-1.24-2.65.19-.7,1.52-.54,2.12-.53-.16-.96.17-1.66.35-2.47ZM426.24,42.55c-.25.92.49,2.15-1.41,1.94.31-1.19.61-3.06,2.12-3.18.24.68-.63.95-.71,1.24ZM427.12,49.78l.88.88v2.29c-1.15.25-1.37-.99-2.47-.71v-1.77l1.59-.71ZM424.82,51.55l-1.41,1.59c.88,1.3,1.31-.35,1.94-.18.61.17.43.96.53,1.24.07.2.54.3.35.88l-.88-.35-.53.88.35.88c.09.09,1.45-.3,1.06.53-.34.72-1.19.33-1.59.88h-1.24c.11-.9-.31-2.05.35-2.65-1.05-.59-.51-1.4-.71-2.12-.16-.6-1.38-.33-1.06-1.06.45-1.01,1.09-.17,1.59-.18.55-.01.66-.48,1.24-.35ZM423.59,74.15l1.24,1.59c-.58.85-1.58.46-2.47.53l1.24-2.12ZM429.41,30.54c.52-.56,1.3-.97,2.12-.88l-1.06,1.24v.71l-1.06,1.59.35-1.59-.35-1.06ZM409.29,237.45c-.01.13-.34.22-.35.35-.08.61.06,1.31,0,1.94l.71.18c-1.01.61-.55,1.28-.71,2.12-.02.14-.33.22-.35.35-.31,1.86-.22,3.86-.71,5.65.32,1.13,1.15,2.07,1.06,3.35h.71v1.41h-.71v2.65l-1.06,1.24c.18-1.46-.24-3.39,0-4.77.03-.15.56-.33.35-.71.14-.3-.42-.88-.53-.88h-6.18l.71-1.59-.35-.88h-.71l-.35-1.24.71-1.94h-.71c.13-.77.52-1.36.35-2.29-.26-1.42-.65-1.15-.35-2.82.1-.58-.07-1.33,0-1.94h-1.41l.35-1.94c-.99-.65-.69-1.57-.71-2.65h.88l.53-.53c-1.18-.7-.48-1.83-.71-2.82-.03-.14-.48-.24-.35-.71.05-.18.54-.31.35-.88-.45.15-1.21-.35-1.06-.88l.35-.88h1.41c-.32-.58.81-2,1.24-2.12.56-.16,1.37.3,1.77-.35l.71.71h1.41c1.09-1.48,2.22-.37,3.35.53v.88l1.06.53c-.07.76.26,1.65-.35,2.12l.71,1.06-1.06,1.77c.65.4.2,1.2.35,1.77.08.3.97.57.71,1.24l-1.06.53c-.06.81.09,1.69,0,2.47ZM407.52,256.69c.14,1.32,0,.83-.53,1.06-.15.07-.23.33-.35.35-1.1.24-2.47-.51-3.18.71l-.18-1.06c-1.63.32-2.16-.52-3.18-1.59l.71-5.12.71.53v5.12h6ZM397.99,243.98h-.71c.08.72-.12,1.62,0,2.29.02.1.55.36.35,1.06l-1.06,1.06,1.41.35c-.45.79-1.08.38-1.59.53-.58.17-1.87,2.12-1.59,2.82h-.71l-.35.88.71,3c-.91-.32-.73-1.76-1.94-1.41-.2.06-.51.65-.71.71-.22.06-.49-.06-.71,0-.52.15-2.25,2.06-2.47,2.12-.43.12-1.81-.13-1.94,0v1.06c-.4.04-.86-.07-1.24,0-.14.02-.24.35-.35.35-.1,0-.84-.61-1.77-.35-.43.12-.93,1.5-1.94,1.06.16-.92-.68-.92-1.24-1.41l-.71.71c-.98-.63-2.02-.06-2.83-1.41-.11,0-.21.31-.35.35-.17.05-2.89-.59-3-.71-.07-.07.09-.36,0-.53-.44-.79-1.26-1.02-2.12-.88.26-1.37-1.45-2-2.12-3-.78-1.18-1.21-2.9-2.12-3.88l.35-1.06c-.59-.48-.98-1.35-1.77-1.24-.25-.25.41-2.94-.35-3.35l.71-1.77c-.9-.92-.14-1.77.71-2.47l-.71-1.06c1.05-.59.51-1.4.71-2.12.05-.19.65-.51.71-.71.25-.91.5-1.97.71-2.82.2-.83.18-2.04.35-2.82.03-.13.28-.2.35-.35.43-.94.65-1.15,1.59-1.59,1.36-.63,1.46-1.2,2.47-1.77.34-.19.76-.45,1.06-.71l1.41.35,2.12-1.77c.61.48,2.57.17,3.53,0,.13-.02.21-.31.35-.35.21-.07.49.06.71,0,.11-.03,1.37-1.33,1.59-1.59.06-.07-.06-.29,0-.35,1.46-1.61,3.24-2.93,4.41-4.77l.88,1.77h-.71l.35,1.24-.53.53-.71-.35c-.67.58-1.2,1.28-1.24,2.12l-1.24.35-.18,1.06,2.12.35.71,1.06c.37-1.29-.88-1.63-.71-2.82h1.06l.35,1.59c.34.53,1.28.63,1.41,1.06.19.62-.71,1.18.18,1.59.73.34.49-.6.53-.88l.71-.18c-.25,1.25.4,1.69,1.24,2.47l1.59-.35-.35,1.77c1.2-.09,1.18,1.13,1.41,1.94.22.78,2.34,1.03,3.18.88-.08.48.11,1.18,0,1.59-.11.39-1.34.85-1.06,1.59h.88l.53,1.06-1.41.53.35.88h.71l.71,3-.53.53h-.88l.71,3.18ZM358.08,237.09c.1.35.08,2.39,0,2.82-.02.14-.55.32-.35.88h.71c.37.9-.62,1.28-.71,1.59-.11.41.08,1.11,0,1.59h.71v4.94h-.71c-.37.9.62,1.28.71,1.59.06.22.06,1.2,0,1.41-.03.11-.98,1.02-1.06,1.41-.31,1.45.92,4.33-1.41,4.06.33-.49.32-.67.35-1.24.39-5.94-.83-14.77,0-19.77.13-.76-.16-4.26,0-4.41.86-.06,1.79.08,2.65,0,.13-.01.23-.34.35-.35,1.6-.12,3.32.09,4.94,0l.53-.53c.06-1.49-.24-2.98.35-4.24l-.71-1.06,1.06-.53c-.27.64.31,1.06.35,1.24.27,1.23-.04,3.05,1.06,3.88-.75.54-.8,1.04-.71,1.94l-.88-.35-1.06,1.77-.35-.35-.53,1.06-1.24-.71-.71.35-1.06-.35-3,2.29v.35c.15.23.66.54.71.71ZM340.78,230.74l.88,1.24h8.3c-.13.9.18,2.18,0,3-.23,1.05-.27,3.89-.35,5.3-.31,5.31.23,10.9,0,16.24l.53.53h4.24l.35.35.18,1.06c-.86-.06-1.81.09-2.65,0-.39-.04-1.51-.25-2.12-.35-.14-.02-.32-.55-.88-.35.37-.9-.62-1.28-.71-1.59-.23-.84.15-2.52,0-3.53-.02-.14-.56-.54-.35-1.41.66-2.8.05-6.02.71-8.83.21-.88-.33-1.27-.35-1.41-.2-1.4.2-3.19,0-4.59-.02-.11-.63-.62-.35-1.24l-1.06.88.35.88-1.24-.71-1.06.35-.53-1.06h1.59l.53-.53c-.12-1.39-1.5-.66-2.3-.88-.22-.06-.75-.86-1.06-1.06h-4.06c.05-.39-.07-.88,0-1.24.1-.5.87-1.95.71-2.47-.4-1.32-.17-.81,0-1.77.08-.43-.1-1.04,0-1.41.04-.16,1.12-.86,1.24-.88.68-.15,1.71.08,2.47,0,1.33-.14,3-.62,4.59-.35.77.13,7.37.25,8.48,0,1.39-.31,2.57-.05,4.24-.35,1.1-.2,1.9.5,3,.35l-.88,1.06c-2,.06-4.01-.09-6,0-3.95.18-10.07,1.08-14.13.35-.1-.02-.36-.55-1.06-.35l-.88.88c-.15,1.26.37,2.93-.35,3.88ZM333.36,252.45h-1.06l-.35,1.41-.35-1.41c-.67.26-.93-.62-1.24-.71-.84-.23-1.28.33-1.41.35-.97.14-2.17-.1-3.18,0l-.53,1.06-1.24-.35-1.94,1.94.35,1.41c-.6.33-.22.94-.35,1.41-.04.16-1.12.86-1.24.88-.42.09-1.03-.1-1.41,0-.3.08-.57.97-1.24.71v-.71l-3.71.35-.53-.88,2.65-.18c.44-.78,3.44-.09,3.71-.35-.19-.56.6-1.21.71-1.59.33-1.2.53-2.68,1.06-3.88.16-.37.56-.92.88-1.24h11.12c-.25.68.29,1.02.35,1.24.37,1.24.53,2.76,1.41,3.88.04,2.36,2.82,1.42,4.59,1.59.38.34-1.46,3.08-1.41,1.06-1.18.3-1.66-1.43-2.65-.35h-.35c-.66-.37-.41-.82-.53-1.24-.06-.2-.65-.51-.71-.71-.3-1.05-.45-1.33-1.41-2.12l.35-.35-.35-1.24ZM327.71,234.8l1.06,1.24c.36,2.06,1.02,4.09,2.12,6l.71,3h-7.06l.35-1.94c1.12-1.36,1.11-3.21,2.12-4.59-.24-1.35.71-2.35.71-3.71ZM339.01,246.63c-2.42-6.11-4.32-12.32-7.06-18.36-.26-.56-.33-1.22-.88-1.59h-6l-.88.88c-.06.23.07.51,0,.71-.64,1.75-1.44,3.81-2.12,5.65-2.69,7.27-5.42,14.92-8.48,22.24-.16.38-.37.81-.35,1.24l-.35-.71h-1.41c-.08.91-1.11,1.64-1.59,2.47-1.66-.17-3.69.23-5.3,0-.11-.02-.62-.63-1.24-.35l.88-1.06h5.65l.88-1.59c-.04-.14-.32-.22-.35-.35-.46-2.04.07-7.04,0-9.53-.08-3.11-.08-6.42,0-9.53.09-3.35-.07-6.72,0-10.06h-6.18l-.53.53v11.83h-10.95v-11.83c0-.29-.81-.66-1.24-.53-.15.05-.22.33-.35.35-1.33.23-3.18-.17-4.59,0l-.53.53v30.01l.53.53h5.65l.53-.53v-12.89h10.95c.09,2.04-.13,4.14,0,6.18.12,1.87.4,2.06,0,4.24-.16.89.21,1.5.35,2.29-.71.09-.91-.24-1.06-.88-.3-1.32-1.3-2.92-1.06-4.24.02-.14.34-.22.35-.35.12-.95.15-3.7,0-4.59-.02-.14-.55-.32-.35-.88l-1.77.35v-1.06c-.39.05-.88-.07-1.24,0-.12.02-.37.56-1.06.35-.3-.09-.59-.58-1.41-.35-.6.16-.44.92-.53,1.24-.14.47-1.22,1.1-1.77.88-.14.78.13,1.12.71,1.59-.83.48-.53,1.24-1.06,1.77l1.77,1.77-1.77,1.77,1.06.53v1.06h-1.06c-.37,1.4-1.52,2.94-3.18,2.82v.71h-.71v-.71c-.68-.26-1.22.45-1.59.35-.14-.04-.22-.33-.35-.35-.95-.19-2.33-.05-2.3-1.41h-.71c.08-.89-.56-1.19-1.41-1.06v.71l-1.06.35c.1-.56-.29-.69-.35-1.24-.06-.47-.07-1.31,0-1.77.02-.13.32-.21.35-.35.22-.93-.22-1.38-.88-1.94h-.35c-.15.04-.24.35-.35.35h-13.07c-.14-.04-.34-.41-.53-.53,0-.12.33-.22.35-.35.22-1.32.07-4.18,0-5.65,0-.12-.35-.23-.35-.35-.22-5.15-.4-12.24,0-17.3.14-1.79,1.4-1.41,1.41-.35l-.35,1.06c1.1,1.62.39,3.57.71,5.65.02.11.62.6.35,1.24l-1.06.53v.18c.9-.13,1.29.76,1.06,1.59-.12.44-1,.52-.71,2.12.32,1.73-.21,2.38,0,3.53.27,1.47.29,2.96,0,4.24-.06.29-.06,1.11,0,1.41.02.12.29.2.35.35.08.19-.06.47,0,.53.07.07,1.35.04,1.06,1.06.39-.05.88.07,1.24,0,2.83-.58,5.02-.26,7.77,0,.83.08,2.17-.18,2.83,0,.3.08.57.97,1.24.71v2.29l1.06.53.35-2.29c.68-.45.04-.47,0-.71-.43-2.61.4-5.9,0-8.12-.19-1.05.44-2.12-.71-2.82l.71-1.06c.12-.85-.04-1.26-.71-1.77,1.12-2.11.75-4.89,0-7.06,1.01-.92.54-2.08.71-3.18.02-.13.32-.21.35-.35.07-.32-.08-.76,0-1.06.05-.17,1.13-.86,1.24-.88.56-.12,4.73-.12,5.3,0,.13.03.21.31.35.35l1.06-.35.53.53c-.46,1.5,1.9,1.94.71,3.18l.35,1.06-.35.35.35,1.41c-.72.9-.21,2.5-.35,3.71l1.41-.35-.35,1.77c.98-.06,2.02.09,3,0,.13-.01.23-.34.35-.35.98-.09,2.02.06,3,0-.19-.57.33-.74.35-.88.11-.63-.08-1.45,0-2.12.15-1.17.15-2.64.35-3.53.2-.88-.44-1.45-.35-1.77.74-1.02,1.31-1.67,1.06-3,.86.24,1.36-.47,1.94-.71.28-.11.78.19,1.06-.35h.35c.88,1.02,1.51,1.62,2.47.35l.71.71h1.59c-.19.58.3.7.35.88.09.29-.08.76,0,1.06.15.54,1.6.87,1.06,2.82-.05.19-.65.51-.71.71-.37,1.33.54,3.79-.35,4.94.45.53,1.19.86,1.06,1.59h.71l-.71,1.24.35.71c0,.11-.31.21-.35.35-.07.24.27,1.9.35,2.12-.44.5-.81,1.21-.71,1.94l1.06-.18v-.35l1.06-.18c.09.58-.14,1.08-.35,1.59-.11.27-.09.69-.53.88-.84.37-.17-1.13-1.24-.71.11.8-.16,1.92,0,2.65.08.37.58.45,0,1.41l.35.71-.71,1.24,1.59.35c.87-.49.36-1.32.53-1.94.05-.17.56-.46.71-.71.47-.78.75-2.37,1.41-3.18l-.71-1.41c.04-.14.32-.22.35-.35.38-1.69-1.01-3.76,1.94-3.35l.88-1.24-.35-1.77,1.06-.53-.71-1.41h1.41v-3l1.41-1.06c-.07-1.3.08-2.69,1.06-3.53l-.35-.71c.27-.17.68-.82.88-.88.24-.07.54.08.71,0,1.29-.65,1.62-1.99,3.18-1.06.14-.04.21-.31.35-.35,1.14-.37,1.77.19,2.82,0,.1-.02.37-.56,1.06-.35.14.04.22.33.35.35.36.07.84-.05,1.24,0l.71,2.12-.71.35c.54-.05,1.61-.07,1.77.53.23.87-.56,1.55-.35,2.47.06.28.72.38,0,1.24,1.56-.15,1.97,1.05,1.77,2.47.8-.18,2.32,1.6.71,1.41v.88l1.24,1.59.88-.35c.19,1.3-.54,2.23-.35,3.53.67-.14.94.46,1.41.88l-.35.71c.29.46,1.67,1.44,1.77,1.77.24.83.45,1.1.71,1.77.35.92.06,1.51.35,2.47l-.35.53h1.06v2.47l-.71.35.71.18.35,2.65-1.06-.88c-.72-2.6-2.17-5.22-3.18-7.77ZM260.97,258.1c-1.2.26-.56-.87-.71-1.59-.15-.74-.79-5.7-.71-6,.95-3.46-.63-9.62,0-13.42.43-2.56-.31-6.14,0-8.83.35-.22.98-1.16,1.24-1.24.22-.06.5.07.71,0,.15-.05.22-.33.35-.35.55-.1,3.79-.12,4.24,0,.29.08.64.68.53,1.06h-5.65l-.35.88.35,29.48ZM282.51,258.45c.48.4.04.68-.53.71-.62.03-1.64-.13-2.12,0-.68.19.04.9-1.77.35-.14-.04-.56-.04-.71,0-.15.04-.24.35-.35.35s-.22-.33-.35-.35c-1.7-.28-3.61-.4-4.94.71-.9-1.2-2.77-.6-4.24-.71-.13,0-.23-.35-.35-.35-1.39-.09-2.87.11-4.24,0-.6-.05-1.04.05-1.24-.71h20.84ZM377.86,218.38c.06-.18.66-.9.71-1.06.11-.42-.19-1.38.53-1.59.22-.06.49.06.71,0,.19-.05.52-.45,1.41-.71.23-.07.75-.86,1.06-1.06.47.67,1.42.2,2.12.35.13.03.9.66,1.06.71.52.14,1.14-.26,1.59.53-.46.76-.99.42-1.59.53-1.08.2-2.69.62-3.88.35-.14-.03-.21-.31-.35-.35l-.88.53c-.06.45.08,1,0,1.41-.04.18-.57,1.78-.71,2.12-.28.69-1.14,1.2-1.06,1.94h-1.06l-.71.71-.18-1.06.88-1.06h-1.59l-.71.71c-.77-.44-.27-1.04.18-1.59l-.71-1.59.71,1.06h2.47c.04-.28-.07-.66,0-.88ZM383.86,179.89c.02-.14.55-.32.35-.88,1.7.25,4.26-.34,5.83,0,.14.03,1.1.67,1.24.88.04.07-.05.24,0,.35.07.15.33.23.35.35.34,1.5-.51,3.27-1.94,3.71-1.68,1.14-4.06.59-6.18.71.05-.51-.08-1.1,0-1.59.02-.13.34-.22.35-.35.11-.99-.16-2.25,0-3.18ZM257.08,255.1c-3.76-8.35-6.88-16.67-10.59-25.07l-.71-2.65c1.5,0,1.4,2.22,2.83,2.12l-.35.88c.67.83.44,2.56.71,3.53.16.58,2.42,2.06,1.77,3.35h.71v2.29l1.06,1.41-.35,1.06.35.88h1.06c.06.5-.1,1.14,0,1.59.24,1.12,1.65,2.76,1.41,4.06h.71c-.35,1.59.79,2.72,1.41,4.06.34.74.5,1.7.71,2.47.05.17.82,1.13.71,1.24-.46.1-1.28-.06-1.41-.53-.06-.24.08-.53,0-.71ZM252.85,264.28c-.44.39-.72,1.01-1.41.88v-1.06h-.88c-1-.71-.36-1.49-.18-2.47-1.31-.15-2.85.25-3.18,1.59l-2.12,1.94v-1.59l2.3-3c.65.29,1.31-.34,1.41-.35.45-.07,1.71-.09,2.12,0,.13.03.84.6,1.06.71.18.08.47-.07.71,0,.3.09,1.51,1.4,1.24,1.94l-1.41.18.35,1.24ZM236.96,257.75h-1.06c.45,1.09-.62,1.63-.71,1.94-.08.3.08.76,0,1.06-.12.44-1.53,1.35-1.77.71-.15-.42-.37-.77-.35-1.24l-3.35.35-.53-1.06c-.55.22-1.62-.4-1.77-.88-.11-.37.13-.94-.53-1.24-.7-.32-.44.69-.88.88v2.3c-.83.05-1.53-.93-2.3-.71-.2.06-.51.65-.71.71-.82.23-2.38.09-2.82-.71-1.38,1.04-3.49,0-3.35-1.77-.9-.22-1.09.36-1.77.71v-1.06h-1.06l.71-1.59c-.74-.64.09-1.68-.88-2.29-1.28-.82-1.43-1.75-2.47-2.47-.13-.09-.91-.26-1.06-.35-.19-.12-.34-.38-.53-.53l.35-2.29-1.06-.35c-.08.96.12,2.06,0,3-.04.36-.92,1.49,0,2.12l-.71.71v.71c.65.4.2,1.2.35,1.77.06.22.86.75,1.06,1.06l-.71,1.59-1.77.35c-.05-.4.07-.87,0-1.24-.72-3.62-.19-7.78-.35-11.65,0-.12-.35-.23-.35-.35-.09-1.82.06-3.66,0-5.47.35.11.88.6,1.06.88.79,1.27,1.27,2.64,2.12,3.88,2.51,3.69,5.1,7.45,7.42,11.3.34.56.72,1.59,1.06,2.12.12.19.38.34.53.53,1.38-.09,2.88.13,4.24,0,.13-.01.22-.34.35-.35.61-.08,1.31.05,1.94,0-.02-.17.06-.38,0-.53-.97-2.32.04-6.48-.35-9.18-.26-1.75-.25-4.69-.35-6.71-.22-4.35.16-8.87,0-13.24l1.06-.35-1.06-.18v-.53h-5.47l-.88,1.24c.04.14.32.22.35.35.77,3.45-.31,10.74,0,14.83,0,.13.34.23.35.35.08.85-.06,1.79,0,2.65l-1.41-1.24c-2.7-5.16-6.07-9.88-9.18-14.83-.35-.56-.71-1.57-1.06-2.12-.1-.16-.82-.88-.88-.88h-5.83l-.35,1.59c.04.15.33.22.35.35.65,3.66.25,12.8.35,16.95.09,3.47-.06,6.95,0,10.42h-.71v.71l.71.71c-.47.03-1.02-.28-1.41-.53-.57-.36-.02-1.14-1.06-.88-.18.58.48.79.35,1.24-.04.14-.32.22-.35.35-.08.35.05.84,0,1.24-1.31-.29-2.07.5-3.18.71v.71c-.98.15-1.24-1.37-2.3-1.06l-1.06.71c-.55-.92-3.23-.93-4.24-.71-.97.21-1.93,0-2.83.71l-1.59-.35-.53,1.06-.53-1.06c-.59-.18-.79.48-1.24.35-.14-.04-.22-.32-.35-.35-1.55-.35-3.26-.12-4.59-.35-.63-.11-1.45.08-2.12,0l-.53-.71.88-.35h22.95c.54-.36.68-.95.53-1.59-.03-.14-.33-.22-.35-.35-.16-1.07-.01-2.3.35-3.18l-.53-.88-1.06.35h-15.01c-.14-.6.23-.7.53-1.06.53-.64,1.09-1.28,1.59-1.94,2.87-3.83,5.66-7.84,8.48-11.65,1.38-1.87,2.77-3.9,4.59-5.65v-4.94l-.53-.53h-21.01c.07-1.44,1.48-1.61,2.65-1.41.98.16,2.3-.22,3.53,0,.54.1.93.89,1.77-.35.97,1.47,1.99.15,3.18.35,1.49.25,4.99.37,7.06,0,.1-.02.36-.56,1.06-.35.2.06.51.65.71.71.79.22,2-.43,1.94,1.06l1.59-.71c.56.5.78.63.18,1.24-.52.52-.26.42.18.88l1.24-.71v-.88c.25-.48.65-.42.88-.53.15-.07.22-.3.35-.35.19-.08.48.07.71,0,.14-.04.22-.33.35-.35.4-.07,1.35-.06,1.77,0,.13.02.23.34.35.35,1.29.14,2.75-.1,4.06,0l.35,2.12h1.06c-.22,1.64,1.46,2.64,2.12,4.06.41.89.66,1.62,1.59,2.29l1.77.71,1.24-.88c.06-.56-.09-1.24,0-1.77.02-.12.68-1.29.71-1.41.18-1.03-.22-2.57,0-3.53.03-.13.28-.2.35-.35.05-.11-.04-.28,0-.35.64-1.08,1.21-.68,1.94-.88.7-.19,1.29-1.31,2.12-1.06.14.04.22.32.35.35.31.07.76-.08,1.06,0,.41.1.95.22,1.41.35.3.08.69,1.08,1.59.71l.71,4.59h.71c.42.42-.96,2.25-1.41,2.65l1.06,2.12v.88h.71v1.41l-1.41-.35c-.13.13.1,2.1,0,2.65-.34,1.93-.17,3.17,0,5.3.09,1.1-.06,2.25,0,3.35l1.41-.35v1.24c0,.3.7.23.88.18.17-.05.86-1.12.88-1.24.11-.51-.13-1.3,0-1.77.05-.19.65-.51.71-.71.24-.84.66-2.35,1.77-2.29-.55-1.34.59-2.23.71-2.65.13-.47-.13-1.29,0-1.77.07-.25.99-.81,1.06-1.06.2-.72-.2-2.1,0-2.82.05-.19,1.36-1.57,1.41-1.77.1-.38-.09-1,0-1.41.14-.67,1.97-2.86,2.12-3.53.16-.73-.06-.87.35-1.77.05-.11-.04-.28,0-.35.35-.55,1.22-.6,1.59-1.24l2.65-.35c.48-.41.04-.68-.53-.71-2.53-.12-1.54-.13-1.94-1.94-.04-.16-.56-.32-.35-.71.33-.53.8-1.22,1.06-1.77.32-.68.85-2.1,1.06-2.82.09-.31.96-.57.71-1.24.86-.06,1.79.08,2.65,0,.13-.01.23-.34.35-.35,1.04-.09,2.13.06,3.18,0l.53.71c-.63.05-1.33-.08-1.94,0-.13.02-.23.34-.35.35-1.12.11-3.67-.43-4.06.88-.13.42-.21,1.41-.35,1.77-.34.81-1.61,2.51-1.77,3.18-.08.35.05.84,0,1.24l1.59.35c.46-.69,1.46-.17,2.12-.35.08-.02.75-.71.88-.88.9-1.18,1.87-2.55,3-3.35.73-.51,1.39-1.54,2.12-2.12.57.66-.09,1.56-.88,1.41v1.06h-.71c-.35,1.17-1.37,2.36-2.12,3.35-.79,1.04-1.88,1.39-3.18,1.24-.23,1.18.62.53,1.24.71l.88,1.06c-1.06.11-2.33-.15-3.35,0-.28.04-1.17.9-1.77,0l-1.24.88c0,1.34-.99,2.7-1.41,3.88-2.67,7.45-4.84,15.15-7.77,22.6-.16.41-.99,1.46-1.06,1.77-.12.55.08,1.34,0,1.94h6.18c.1,0,.35-.41.53-.53l.35-1.77c.95-.76.94-4.49,1.94-4.77.84-.23,1.28.33,1.41.35.54.08,1.96.09,2.47,0,.1-.02.36-.55,1.06-.35l.53.71c-1,0-1.41,1.39-2.3.35h-.35c-.31.2-.83,1-1.06,1.06-.54.15-1.15-.25-1.59.53v1.59l-1.06.53.35,1.24ZM206.06,260.22c-1.21.06-2.79-.18-3.88,0-.14.02-.24.35-.35.35l-1.24-1.06h6c.48.4.04.68-.53.71ZM170.04,256.69c-.3.08-.7,1.08-1.59.71l.71,1.06h-.71v.71h-1.06v1.06c-1.1-.44-1.61.61-1.94.71-.84.24-2.76.64-3.53.71-1.38.13-3.04-.49-3.88.71l-1.77-.71-1.41.71c-.62-.17-1.56-1.35-1.77-1.41-.39-.11-1.03.11-1.41,0-.28-.08-1.74-1.79-2.83-1.41-.45-.55-1.19-1.04-1.59-1.59-.05-.07.06-.27,0-.35-.45-.67-.98-.76-.71-1.94l-1.41,1.41c.08-.8-.28-1.79.35-2.29l-.71-1.06c.78-.69.1-2.26.35-3.18.2-.72,1.89-1.33,1.41-.35-.08.16-.33.24-.35.35-.51,3.17,1.77,6.22,4.06,8.3.53.11.85.45,1.41.71.38.17,1.87,1.01,2.12,1.06.41.09.98-.08,1.41,0,.14.02.22.34.35.35,1.15.14,3.41.11,4.59,0,.13-.01.22-.34.35-.35.67-.08,1.46.1,2.12,0,.13-.02.21-.32.35-.35.32-.07.77.08,1.06,0,.14-.04.21-.3.35-.35,2.09-.75,3.67-2.27,4.77-4.06.24-.39.97-1.46,1.06-1.77.08-.3-.07-.74,0-1.06.03-.13.56-.37.35-1.06-.04-.15-.33-.22-.35-.35-.17-.94.17-2.24,0-3.18-.02-.13-.31-.21-.35-.35-.06-.23.07-.51,0-.71-.05-.14-.29-.21-.35-.35-.1-.22-.25-.91-.35-1.06-.26-.4-2.25-2.38-2.65-2.65-1.2-.8-3.17-1.35-4.59-1.77-1.99-.58-4.06-1.06-6-1.77-.47-.17-1.41-.48-1.77-.71-1.31-.84-.81-2.14-.88-3.53.73.28,1.2-.95,1.59-1.06.41-.11,4.82-.11,5.3,0,.13.03.2.28.35.35.11.05.28-.05.35,0,.17.1.77.7.88.88.13.2.55,1.08.71,1.41.06.14,0,1.24.53,1.24h5.12c.28.62-.36,1.17-.35,1.24,0,.12.31.21.35.35.25.88-1.19,1.53-.71,2.65.91-.03,1.59.84,1.41,1.77h.71v1.41h.88l.88,1.24-.35.88h1.06c-.1.62.55.91.35,1.59-.12.4-.86.34-.71,1.77l.88.53c.95.16.38-.73.53-1.24.17-.6.92-.44,1.24-.53.26-.07.89-1.01,1.24-1.24l-.71-1.59h1.59c.16-.46,1.54-1.76,1.59-1.94.33-1.15.73-1.32,1.06-2.47.15-.53,2.12-1.37,2.47-2.12l-.35-.71.35-1.24,1.41.35c.26-1.08.84-2.39-.18-3.18l-.71.35c-1.32-.38-4.93-.67-6.36-.35-.14.03-.21.31-.35.35h-.35c-.3-.48-1.85-1.6-1.94-1.94-.13-.47.11-1.26,0-1.77-.03-.14-.48-.24-.35-.71.04-.14.32-.22.35-.35.13-.59-.15-2.85,0-3h1.06v6h12.18c.11,0,.33-.55.71-.35l.53.88-3.18,3.53c.04.15.06.28,0,.35-3.75,5.04-7.48,10.28-11.3,15.18v6.18c-1.38-.51-.86-1.39-1.06-2.29-.04-.17-.62-.6-.35-1.24-.48.08-1.18-.11-1.59,0ZM127.48,242.04l1.06-3.71,1.06,1.24,3,7.94c.37.18-.31.71-.35.71h-6.53l1.06-4.06c.82-.57.77-1.17.71-2.12ZM132.43,231.09c-.06-.14,0-1.24-.53-1.24-1.62,0-5.03.3-6.36,0-.55-.12-.55-.93,0-1.06.35-.08,1.38-.06,1.77,0,.15.02.54.56,1.41.35.13-.03.21-.31.35-.35.21-.07.49.06.71,0,.06-.02.87-.82.88-.88.15-.53-.29-1.36.71-1.59-.68,1.55,1.9,2.59,2.12,3.35.35,1.23,1.12,2.19,2.12,3.18l-.35,1.06c.85,2.2,2.2,4.29,2.47,6.53h.71l-.35,1.24.35.88c.88-.18,1.21.28,1.77.88l-.71.71,1.77,2.47v.35c-.84.94.02,2.38.35,3.53.06.2.65.51.71.71.11.41-.08,1.11,0,1.59.8.03,1.59-.25,2.12.53l-1.41,1.24,1.06.18c-.11.8.18,1.51.71,2.12l.71,3-1.06-1.24c-2.71-5.32-4.63-11-7.06-16.24-.98-2.11-2.12-4.33-2.82-6.36-.63-1.81-1.32-3.18-2.12-4.94ZM145.14,235.68c-.26-.9.62-1.1.71-1.41.06-.22-.06-.49,0-.71.16-.58,1.65-1.02,1.77-1.41.06-.22-.06-.49,0-.71.25-.87,2.26-1.54,3-1.94.3-.16.99-.97,1.41-1.06,1.08-.23,2.31.26,3.18-1.06l.71.35,1.24-.71v.71c.51-.06,1.12.09,1.59,0,.14-.02,1.18-.52,1.41-.71h.35c.32.27,1.97,1.37,2.12,1.41,1.12.31,2.28.06,3.53,1.06l1.41,1.41,1.24-.71c-.27.64.31,1.04.35,1.24.22.9-.08,1.39,1.06,2.12v.35c-.87.62-.09,1.37,0,1.77.12.5-.24,1.07.35,1.41l-1.41,1.59c-.22-.76.55-1.31.35-1.94-.15-.49-.52-1.26-.71-1.77-.52-1.43-2.37-3.88-3.71-4.77-.37-.24-1.33-.47-1.77-.71-.24-.13-.53-.66-.71-.71-.37-.1-.98.08-1.41,0-.14-.02-.22-.34-.35-.35-1.15-.14-3.41-.11-4.59,0-.13.01-.22.34-.35.35-1.12.14-2.16-.04-3.18.35-1.59.85-3.72,2.13-4.77,3.71-.08.13-1.03,2-1.06,2.12-.09.41.08.98,0,1.41-.02.13-.33.22-.35.35-.06.43-.06,1.33,0,1.77.02.13.32.21.35.35.07.32-.08.76,0,1.06.04.14.3.21.35.35.74,2.05,2.28,3.72,4.06,4.77,3.62,2.14,7.65,2.22,11.3,3.88,1.92,1.6,1.56,3.82-.35,5.3-.42-.12-1.16.65-1.41.71-1.33.29-3.49-.21-4.94,0-.77-.78-1.99-1.3-2.65-2.29-.04-.07-.68-1.33-.71-1.41-.11-.41.18-1.39-.53-1.59-.84-.23-1.28.33-1.41.35-.92.13-2.05-.09-3,0l1.59-1.06c1.59.21,4.34-.81,4.06,1.41h1.41l.35,2.47c1.6-.17,3.58.23,5.12,0,.1-.02.6-.62,1.24-.35.08-.8-.28-1.79.35-2.29l-.35-.88c-.62.07-1.36-.1-1.94,0-.14.02-.32.55-.88.35.14-.67-.46-.94-.88-1.41l-.88.35v-.71l-2.12-.35v.71c-1.18.14-1.94-.06-1.77-1.41-.39-.05-.89.08-1.24,0-.71-.16-1.34-1.41-2.3-1.06.22-.47-1.71-2.41-1.94-2.47-.41-.11-1.11.08-1.59,0l.35-1.94-1.06-.53c-.05-.51.08-1.11,0-1.59-.02-.14-.35-.24-.35-.35,0-.22.71-2.61.71-2.82,0-.11-.31-.21-.35-.35ZM239.6,246.45c-.27-.28-.48-.26-.35-.71.11-.37.11-.67.18-.88.04-.14.31-.21.35-.35.83-2.62,1.63-5.17,2.47-7.77.15-.47-.28-.64.71-.53-.27.65.3,1.03.35,1.24.69,2.62,1.56,4.62,2.47,7.06.2.52.45,1,.35,1.59l-6.53.35ZM248.61,251.75l.35,2.47c-.91-.31-.97-1.24-1.59-1.77h-1.94c-.48-.4-.04-.68.53-.71.88-.04,1.77.03,2.65,0ZM324.89,158.18h-1.77c-.29-1.06.79-1.24.71-2.12.47-.09,1.27.05,1.41.53.19.67-.45.97-.35,1.59ZM343.96,103.63l-1.41.88.35-1.94.88-.88,1.94-.35v1.06l-1.59.35-.53.53.35.35ZM345.9,96.74l-1.24.35c-.1.96,1.42,1.2.18,2.12l-1.06-1.41-1.24.71v-1.77c.39-.05.89.08,1.24,0,.37-.09,1.02-.92,1.77-.71.1.03.7.53.35.71ZM193.87,193.66c.37-5.49,1.05-11.21,1.77-16.59.07-.54-.03-1.19,0-1.77.03-.57.29-1.01.71-.53-.1.56.29.69.35,1.24.1.83-.18,2.16,0,2.82.08.3.96.51.71,1.41-.06.2-.65.51-.71.71-.26.94.19,2.79,0,3.88-.02.1-.56.37-.35,1.06.21.7.56,1.3.35,2.29l.71.71h-1.41c.4.45.24.9.35,1.24.06.17.48.24.35.71-.2.72-.22,1.01-.35,1.77-.02.13-.32.21-.35.35-.27,1.16.88,1.88.71,3,.58.19.7-.3.88-.35.44-.13.66.54,1.24.35l-.35,1.41c.4-.05.88.07,1.24,0,.18-.04,1.19-.65,1.41-.71.24-.07.6.04.88,0v.71c.67.26,1.06-.31,1.24-.35.31-.08.76.08,1.06,0,.19-.05.51-.65.71-.71,1.41-.39,3.13.48,3,2.12-2.66.2-5.69-.28-8.3,0-1.47.16-2.83.09-4.24.35-.68.13-1.54.1-1.94-.53.64-1.44.25-3.05.35-4.59ZM123.77,230.56c.29-.4.69-.81,1.24-.71l-2.12,6.53c-2.45,6.55-4.52,13.79-7.06,20.48-.2.53-.31,1.49-.71,2.12-.1.16-.76.82-.88.88-.93.44-.13-1.48-1.06-1.06-.89.41-.12,1.9-1.24,2.12-.13-.9.18-2.18,0-3-.86-3.85-.52-10.48-.71-15.18,0-.12-.35-.23-.35-.35-.14-4.05.11-8.13,0-12.18.75.2.66.64.71,1.24.18,2.22.53,4.78,0,6.71,1.2,1.38.55,3.38.71,5.12h.71c-.32,2.17-.65,4.39,0,6.53-.53.29-.25.71-.35,1.06-.15.52-1.87,1.42.71,1.59-.15.86.21,2.26,0,3-.05.19-.65.51-.71.71-.13.46.09,1.23,0,1.77l.71.18,1.41-.35-1.06-1.24,1.77-1.06-.35-1.06c1.08-.92.81-1.92,1.06-2.82.07-.25.99-.81,1.06-1.06.13-.47-.13-1.29,0-1.77.05-.19.65-.51.71-.71.13-.47-.13-1.29,0-1.77.07-.25.99-.81,1.06-1.06.38-1.38.15-3.3,1.06-4.77h.71c-.56-1.78,1.3-2.92.71-4.06,1.56-1.09.92-2.89,1.41-4.59.02-.07.73-1.03.88-1.24ZM119.54,261.63c-1.27.3-1.66-.13-2.12,0-.15.04-.24.35-.35.35s-.21-.31-.35-.35c-.61-.18-1.47.47-1.24-.71h5.65c.26,1.21-.89.54-1.59.71ZM104.88,260.57l-1.06-.53v-.35c.04-.14.32-.22.35-.35.41-1.85-.46-3.22-.71-4.59-.19-1.02.25-1.34,0-2.47-.22-.99.47-2.34-.53-3l-1.94.35v-.71c-.12-.12-2.1.09-2.65,0-.14-.02-.24-.35-.35-.35-.07,0-.6.62-1.24.35v.71l-1.24-.35-.53.53c-.07.68.1,1.47,0,2.12-.03.22-.5,1.47-.71,1.77l.71,2.12c-.75.8-.32,1.98,0,2.82.24.64,0,1.09-.71.88.28-.62-.34-1.12-.35-1.24-.14-.97.09-2.16,0-3.18-.01-.13-.34-.23-.35-.35-.08-1.18-.23-5.51,0-6.36.16-.59,1.41-.63,1.94-.53,2.29.43,2.6.12,4.59,0,1.46-.09,2.95.06,4.41,0,.06,1.46-.09,2.95,0,4.41,0,.12.35.23.35.35.13,2.63-.1,5.31,0,7.94ZM93.23,236.39c0-.12-.34-.23-.35-.35-.06-.81-.16-3.28,0-3.88.08-.29.68-.64,1.06-.53v6.89c0,.12.33.22.35.35.13.86-.34,1.74.53,2.29h6c.25-.53.85-.57,1.06-.71,1.43-.9.67-3.66.88-5.12.13-.89.19-1.73.35-2.47.11-.5-.08-1.22,0-1.77l.71-.53c.05.63-.08,1.33,0,1.94.02.13.35.23.35.35v9.36h-9.71l-.71.35-.53-.53c-.08-1.87.11-3.78,0-5.65ZM104.71,208.67l-.18,1.06c-.57.19-.75-.33-.88-.35-1.04-.18-2.09-.17-2.82,0-.5.11-1.22-.08-1.77,0l-1.59-1.06h21.19c.23,1.17-.6.54-1.24.71-2.22.59-5.1.83-7.06.35l-1.06.71c-1.12-.56-2.56-.33-3.88-.71-.17-.05-.47-.56-.71-.71ZM104.88,195.43l.53-.53h13.42l.53-.53c-.29-.65.34-1.31.35-1.41.14-.96-.08-2.16,0-3.18.05-.6-.05-1.04.71-1.24-.03.65.42.84.35,1.59-.05.55-.46.68-.35,1.06.31,1.09.4,1.24,0,2.47-.09.28-.8.47,0,1.06-.37.66-.81.41-1.24.53-.2.06-.51.65-.71.71-.65.18-2-.08-2.83,0-1.69.16-4.08.7-6,.35-.54-.1-.93-.89-1.77.35l-1.59-.35v3.18c.51.05,1.1-.08,1.59,0,.13.02.21.32.35.35.72.17,2.21-.52,3.53-.35,1.93.24,3.76.3,5.65,0,.39-.06.98-.02,1.41,0,.57.03,1.01.29.53.71-.62-.28-1.12.34-1.24.35-3.58.52-8.28-.38-12.01,0-.54.06-.69.46-1.06.35l-.53-.88c.04-.14.32-.22.35-.35.25-1.15-.18-2.98,0-4.24ZM121.13,202.14c.02.12.68,1.28.71,1.41.29,1.6-.59,1.68-.71,2.12-.13.47.13,1.29,0,1.77-.03.12-1.05,1.26-1.24,1.59l.18-4.06c.01-.13.34-.23.35-.35.09-1.27-.06-2.6,0-3.88.03-.57.3-1.01.71-.53.07.61-.1,1.36,0,1.94ZM122.89,178.83c-.16.58-.85,1.44,0,2.12l-.71,1.06.35.71c-.27,1.09-.7,1.88-1.94,1.59-.13-.03-.37-.56-1.06-.35-.15.04-.22.33-.35.35-1.24.22-2.86-.64-2.65,1.41l-.71-.18v-.53l-.88.35-1.77-.71c-.76.95-3.07.22-3.53.35-.2.06-.51.65-.71.71-.41.11-1.11-.08-1.59,0-.16,1.2,1.42,1.26,2.3,1.06.14-.03.24-.48.71-.35.42.12.89.6,1.77.35.3-.08.57-.97,1.24-.71v.71c.17-.02.38.06.53,0,.69-.29.47-.43,1.41,0,.14-.04.22-.32.35-.35.4-.09,3.17-.1,3.53,0,.29.08.65.68.53,1.06h-1.59c-3.32.6-7.22.26-10.59.71-.61.08-1.32-.06-1.94,0v-4.06l.53-.53h11.3l.35.35c.76-1.14,2.11-.6,3.35-.71l.35-.88.35-5.83,1.06.53c-.91.6.11,1.35,0,1.77ZM118.12,175.83c-6.92.14-14.06.61-21.19.35l-.88.35c-.06,1.46.09,2.95,0,4.41-.41,6.95-.77,14.24-1.41,21.19-.09.96-.21,2.4-.35,3.53-.02.13-.33.22-.35.35-.23,1.26.36,2.04,1.06,3-.55.11-.94-.31-1.24-.71-.64-.87-.65-2.27-.53-3.35.34-3.12.61-6.92,0-10.24-.21-1.17.59-2.13.35-3.35h.71c-.13-.9.18-2.18,0-3-.35-1.56.18-3.9.35-5.65.08-.85-.06-1.79,0-2.65-.61-.07-1.06-.03-1.41.53-.06.09.05.28,0,.35-.17.24-.66.55-.71.71-.08.3.08.76,0,1.06-.08.3-.97.57-.71,1.24-.9-.37-1.28.62-1.59.71-.72.2-2.26-.08-3.18,0-1.8.16-3.5,1.25-5.3.71-.63.63-1.55.05-2.12,1.06l-1.06-.71-.53.88.35,1.59c.73-.02,1.51-.19,1.77.71h-2.83v-4.06l.88-.88h12.01c.23-.31.71-.59.88-.88.05-.08-.05-.24,0-.35.07-.16.35-.25.35-.35v-5.12c1.46.03,1.16,1.27.71,2.29l.71.18c-.1-.46.05-1.28.53-1.41.58-.16.85.94,1.59.71-.29-1.31.5-2.07.71-3.18.64.27,1.13-.34,1.24-.35,1.18-.17,2.67.15,3.88,0,.8-.1,1.89-.26,2.47-.35,2.54-.42,11.73-.29,14.48,0,.56.06.9.54,1.59.35.08.62-.81.34-1.24.35ZM88.64,192.6c.01-.13.34-.22.35-.35.11-.9-.44-2.26.71-2.65v5.12c-.06.24-1.13,1.16-1.41.88.63-.9.25-1.99.35-3ZM86.17,254.39c.05-.6-.05-1.04.71-1.24.2,1.68-.27,3.88,0,5.47.01.07.17.11.18.18.12.68.41.88-.35,1.41l-.53-1.59c.08-1.39-.11-2.87,0-4.24ZM85.11,231.44c.09-.65.49-.81.88-1.24l-.18,3.35c.56,4.23.84,9.09,1.06,13.42.08,1.58-.06,3.19,0,4.77-1.15-.39-.6-1.75-.71-2.65-.23-1.87-.06-4.64-1.06-6,.36-3.63-.48-8.14,0-11.65ZM86.34,196.67c-1.88.15-2.9.39-4.59,0-.92-.21-1.54.55-2.47.35-.32.33-1.46.75-1.59,1.24-.12.43-.1,3.69,0,4.24.02.14.55.32.35.88h-.71l-.35,1.59v2.65c-.96.14-.69-.15-.71-.88-.05-2.24.22-4.38.35-6.36.09-1.28-.06-2.6,0-3.88l.53-.53h10.42c-.2.75-.64.66-1.24.71ZM74.69,176.54c-.13.01-.23.34-.35.35-1.21.1-2.49-.07-3.71,0-.48-.4-.04-.68.53-.71,1.01-.05,2.24.14,3.18,0,.13-.02.21-.32.35-.35.5-.11,1.07.23,1.41-.35h.35l.53,1.06c-.75.06-1.56-.08-2.3,0ZM78.04,82.8c.22-.69.88-1.8,1.06-2.47.15-.54-.25-1.15.53-1.59h9.89c.41-.82,1.78-.05,1.94.53.07.23-.08.53,0,.71.72,1.54,1.27,2.86,1.77,4.59.02.08,1.15,1.21,1.24,1.24.91.25,2.67-.18,3.71,0l-1.24.71c-.72-.12-1.85.17-2.47,0-.2-.06-.74-.84-1.06-1.06-.07-.05-.76-.09-.88-.53-.45-1.58-2.35-3.09-2.47-3.53-.15-.54.25-1.15-.53-1.59-2.27.26-5.26-.36-7.42,0-.14.02-.24.35-.35.35s-.22-.33-.35-.35c-.37-.07-.84.04-1.24,0l-.35,1.41h-.71c.23.89-.18,1.4-.35,1.94-.07.21.06.49,0,.71-.13.46-1.27.98-1.06,0,.54-.3.25-.74.35-1.06ZM84.05,61.79l1.06.88c.08.49.21,1.34.35,1.77.69,1.97,2.49,5.06,2.83,6.71.07.36-.05.84,0,1.24-.51.05-1.1-.08-1.59,0-.13.02-.23.34-.35.35-1.11.12-3.28-.42-3.53-.35-.23.06-.58.61-1.24.35.07-.61-.1-1.36,0-1.94.24-1.34,1.41-3.48,1.77-4.94.2-.83.18-2.03.35-2.82.04-.17.62-.6.35-1.24ZM92.52,60.73c-.25.68.29,1.02.35,1.24.31,1.04.23,2.26,1.06,3.18l-.35.71c2.83,3.92,4.24,8.75,6,13.06.59,1.61,1.84,2.47,1.41,4.41l-1.41-1.59c-1.77-4.91-4.02-9.67-6-14.48-1.33-3.22-2.63-6.7-3.88-9.89-.24-.6-.96-1.1-.71-1.94h1.06l.71,3.71.71.53.71-1.06-.35,2.12h.71ZM88.64,175.83l-.53.71h-5.47c.66-1.36,2.87-.44,4.06-.71.13-.03.21-.31.35-.35.36-.1.95.62,1.59.35ZM70.27,81.74c.33-1.36,1-2.58,1.41-3.88,1.26-3.95,2.18-8.74,4.24-12.36.06-4.19,2.13-7.77,3.18-11.65l1.06-.88c.16.74-.15,1.28-.35,1.94-.31,1.03-.76,2.15-1.06,3.18-2.31,7.81-4.99,15.22-7.06,22.95l-1.77,3,.35-2.29ZM74.16,208.67c-.08,1.86-3.03.79-4.41,1.06l-1.24-1.06h5.65ZM64.98,204.96c.03-.14.33-.22.35-.35.26-1.46.6-4.14.35-5.65-.29-1.72.68-4.4.35-6.36-.41-2.48,1.46-4.66,0-7.06l1.06-6.53c.62-.08.34.81.35,1.24.17,8.45-.99,16.46-1.41,24.72-.03.68.17,1.13-.53,1.59-.55-.37-.67-.98-.53-1.59ZM85.64,285.64c-.67-.45-.56-1.01-.53-1.77h2.12l.35.88c-.59.7-.98,1.06-1.94.88ZM97.29,284.23l-1.59-.35-.35-.88c-.31-1.1,2.56-1.25,2.82-.35.22.75-.44,1.13-.88,1.59ZM123.77,276.11c-1.28.06-2.6-.09-3.88,0-5.4.37-11.55.39-16.95.71-1.91.11-4.31-.31-5.65,0-.88.2-1.46-.44-1.77-.35-4.55,1.25-11.97.17-16.95.71-1.2.13-2.43-.43-3.18.71-1.03-1.2-2.7-.88-3.88-.71-2.69.39-6.21-.29-9,0-.23-1.17.6-.54,1.24-.71.28-.07.54-.56,1.41-.35,2.77.65,4.66-.48,7.06,0,2.47.5,6.22.19,9.18-.35.29-.05,1.17-.07,1.41,0,.3.08.69,1.08,1.59.71v-.71h6.36l.53-1.06c.4.12,1.3,1.03,1.41,1.06.44.12,2.24.06,2.83,0,1.36-.13,2.58-.57,3.88-.35,4.41.73,9.6-.16,13.77-.35,3.92-.18,7.91.13,11.83,0l-1.24,1.06ZM124.83,255.28c-.17.05-.85,1.1-.88,1.24-.08.3.08.76,0,1.06-.05.19-.65.51-.71.71-.11.39.11,1.03,0,1.41-.05.18-1.08,1.12-1.41,1.24l.71-3.35c.83-1.06.43-2.68,1.59-3.71h10.24l.35-.35c.48.23.43.7.53.88.52.94,1.03,1.78,1.06,2.82.9.94.7,2.51,1.59,3.35h6.53l-1.24,1.06c-1.13-.1-2.43.14-3.53,0-.13-.02-.22-.33-.35-.35-.43-.08-1.04.1-1.41,0-.13-.04-1.9-1.81-1.94-1.94-.25-.88-.66-1.25-.71-1.41-.08-.3.08-.76,0-1.06-.02-.08-1.04-1.09-1.24-1.24-.07-.05-.27.06-.35,0-.77-.53-.77-.95-2.12-.71-.18.03-.53.56-1.41.35-1.46-.34-2.43-.26-3.88,0-.43.08-1.04-.1-1.41,0ZM127.66,278.58c-1.33.36-2.72-1.2-1.41-2.12.95.23,2.72,1.15,1.41,2.12ZM136.84,278.23c-.78-.52-.5-1.31-.53-2.12,1.35-.16,2.33.2,3.18,1.24-.7.78-1.65,1-2.65.88ZM235.01,277.87,266.97,278.4c-.26-1.17.46-2.18.35-3.35,1.2.44.56,2.03.71,3M345.54,275.4c-.13-.02-.21-.31-.35-.35-.21-.07-.49.06-.71,0-.46-.13-1.1-1.2-.88-1.77.81-.15,1.41-.52,2.3-.35.13.02.21.31.35.35.33.11.71-.2,1.06.35.84,1.34-.42,2.02-1.77,1.77ZM455.9,269.58l-.53.88c-.3-.47-.6-.33-1.06-.35-3.65-.16-8.4-.25-12.01,0-3.11.21-6.66.2-9.89.35-12.16.57-24.76-.22-37.08.71-1.45.11-2.76-.28-3.88-.35-7.52-.47-16.22,1.36-23.66,0-.55-.1-4.84.28-6,.35-8.35.52-17.05.14-25.78.35-22.82.56-45.17,1.48-67.8,1.06-4.72.17-10.55-.28-15.54.35-7.05.89-15.05.26-22.25.71-5.64.35-15.61-.43-20.48.71-.22.05-.84.05-1.06,0-4.4-1.03-12.58.89-17.66.35-3.91-.42-8.96.25-13.07.35-11.02.27-22.02.08-32.84.71-2.09.12-4.43,0-6.36-.35-1.35-.25-1.31-.38-2.83,0-1.72.43-3.88.44-5.65.71-1.35.2-2.37-.51-3.71-.35l.53-.71c.92-.06,1.92.09,2.83,0,.13-.01.23-.34.35-.35,1.25-.09,3.63.27,4.59,0,.3-.08.57-.97,1.24-.71v.71c.19.19,1.79-.94,2.3,0l1.41-1.06c.39.65,1.2.2,1.77.35.19.05.51.65.71.71,1.69.46,1.97-.92,2.47-1.06.41-.11,1.11.08,1.59,0v.71c.58-.09,1.44.14,1.94,0,.3-.08.53-.97,1.41-.71,2.21.67,6,.43,8.12.35l.88.35v-.71c.74.06,1.57-.08,2.3,0,.13.02.23.34.35.35.85.08,1.79-.06,2.65,0v-.71c.57-.19.72.31.88.35,1.04.25,3.8.26,4.94,0,1.21-.27,2.7.33,3.88,0,.34-.09.5-1,1.77-.71,1.09.26,2.31,1.35,3.18,0l1.41.35,1.06-.71c.54.75,1.04.8,1.94.71-.1-.42.18-.9.53-1.06.72-.33.46.9,1.06,1.06h2.65l-.35-.53.53-.88c.38-.11,1.1.56,1.41.71.18.08.47-.07.71,0,.68.2.55,1.4,2.83,1.06,2.03-.3,4.75-1.11,6.71-.35l1.06-.71c.76,1.03,2.91.81,4.24.71.13,0,.23-.35.35-.35,1.78-.11,4.01.21,5.3,0,.59-.1,1.32.07,1.94,0l.53-1.06,1.77.71.71-.71.71.71,1.06-.35c1.07,1.26,3.76.63,5.3.35.73-.13,2.1-.59,2.83-.71.43-.07.96.05,1.41,0l.18-1.06.71,1.41c.75.29,1.67-1.41,1.94-1.41.61.94,1.76-.1,2.12,0,1.33.37,1.75.45,3.18,0,.29.53.71.25,1.06.35.37.11.91,1.42,1.77.35l1.77.71.71-.71c1.21,1.63,2.85-.13,4.24.71.81-.76,2.09-.87,3.18-.71.11.02.76.65,1.41.35l.18-.71.71,1.06,3.18-1.41v1.06c.46-.4.84-.25,1.24-.35.15-.04.24-.35.35-.35s.22.33.35.35c.86.14,1.51-.29,2.12.71.86-1.35,1.76-.44,2.47-.35,1.46.18,2.71-.22,3.88-.35.73-.08,1.55.06,2.3,0l-.35-1.77,1.24,1.06,1.06-.71h1.06c.53.93,1.14.54,1.77.71.16.04.93.68,1.06.71.45.1,1.09-.06,1.59,0v-.71c.67-.26.93.62,1.24.71.29.08,1.4.05,1.77,0,.13-.02.22-.34.35-.35,1.72-.19,3.46-.36,4.94,0l1.06-1.06,1.24.35c-.17-.65.3-1.47.88-1.77.63-.32.63.55.53.88-.09.32-.58.61-.35,1.41.02.06.49.53.53.53,1.38,0,5,.28,6,0,.16-.04.54-.45,1.41-.71.34-.1.56-1.04,1.77-.71.19.05.51.65.71.71,1.56.43,7.43.67,9.18.35.23-.04.82-.88,1.41,0l1.06-.71c1.55.43,4.69.43,6.36,0,.53.9,2.92.92,3.88.71,1.28-.29,3.06-.09,4.59-.71l1.77.71c1.09-.83,1.74-1.27,3.18-1.06,1.46.22,2.88.13,3.88.35,1.75.39,3.31-.21,4.59,0,.8.13,6.82.17,7.42,0,.25-.07.81-.99,1.06-1.06.22-.06.5.07.71,0,.25-.09.55-.6,1.24-.35v.88l.53.53h1.41l1.77-1.41,1.06,1.41h2.12l.53-.53v-.88c.65-.27,1.11.33,1.24.35.43.08,1.04-.1,1.41,0,.19.05.51.65.71.71.7.19,2.01-.15,2.83,0,1.89.34.91-.12,1.77-.35.84-.23,1.28.33,1.41.35,1.29.19,3.1-.03,4.24-.35.27-.08.57-.9,1.06-.71l.53,1.06c1.74-.15,3.75.5,5.12-.71l.71.71.18-1.41c.68-.24.95.63,1.24.71.86.23,1.82-.18,2.65-.35v1.06c.51-.05,1.1.08,1.59,0,.13-.02.22-.34.35-.35.84-.09,1.79.07,2.65,0,.13-.11-1.27-1.14-.18-1.41,1.15-.29.69.36,1.24.88v.53c.99.03,1.7.18,2.3-.71l2.12.71c.71-1.06,1.83-.51,2.83-1.06.28.54.78.24,1.06.35.91.37,1.13.95,2.47.71,1.2-.22,2.07-1.98,3.18-.35,1.84-.41,3.84-.23,5.65-.71l1.06,1.06c.51-.63,1.49-.27,2.3-.35l-.35-1.41c1.21.12,1.37,1.49,2.83,1.06v-.71l1.59.71.88-.35v.71c.62.11.93-.55,1.59-.35,1.32.4,3.53.39,4.94,0,.3-.08.69-1.08,1.59-.71v-1.06h.88l2.12,1.77,1.06-1.06.71.35,1.41-.35.53,1.06c.4-.05.88.07,1.24,0,.33-.07.84-.24,1.41-.35.21-.04.47-.82,1.06,0l.18-.71,1.24,1.06.71-.35,1.06.35c.23,0,1.14-1.93,1.77-2.12.82-.25,1.49,2.89,2.83,1.41h.35c.29.6,2.45,1.17,2.83,1.06.92-.28,1.48-.18,2.12-.35.3-.08.53-.97,1.41-.71,1.09.33,2.59.58,3.88.35,1.18-.21,1.79-.17,2.83,0,1.19.2,2.2-.24,3.35-.35.04-.72.54-1.15.35-1.94-.03-.14-.33-.22-.35-.35-.13-.92.09-2.05,0-3h1.06c.21.21-.17,4.88,0,5.83.03.15.56.33.35.71ZM438.6,45.9h1.06v1.06c.36-.19,2.24.85,1.77-.18-.17-.37-.92-.53-.71-1.24,1.21-.23,2.16.67,3,1.41l1.24-.35v1.41l-1.24.35c-.74-1.04-2.44-1.04-3.18,0l-1.06-.35-1.77,1.06c-.6-.66-1.75-.25-2.65-.35l1.24-1.06c.86.77,2,.4,2.65-.53l-.35-1.24ZM447.42,53.31h1.41l-.35,1.06c.88-.09,1.19.55,1.06,1.41-1.01-.3-1.9.86-2.65,0l-1.06,1.41-1.06-.71c-.39.44-1.01.72-.88,1.41l-1.06-.53c.5-.55.49-1.4,1.41-1.24v-.71c.79.23,1.17-.2,1.59-.35,1-.37,1.81-.5,1.59-1.77ZM447.42,58.26v-1.41c.11-.12.99.25,1.24.35.29.12.64.08.88.53l-.71,2.29c-1.24.25-.71-1.17-.35-1.77h-1.06ZM447.07,52.08c-.45.67-1.01.56-1.77.53.4-.85-.86-1.43-.71-1.94.28-.27.26-.49.71-.35.85.26.79-.3,1.24-.18.73.48.53,1.17.53,1.94ZM441.77,57.9l-1.59,3.18c-.89-.54-.74-1.31-1.24-1.94v-.35l1.06-.53v-.88l1.06-.53v1.06h.71ZM455.9,251.57c-.14.8-.19,1.4-.35,2.12-.21.93.23,5.2,0,5.47-1.05.25-.9-.76-.35-1.24-.62-1.15-1.76-1.63-1.41-3.18.79-.85,1.63-1.18,1.41-2.47-.02-.14-.35-.24-.35-.35s.33-.22.35-.35c.17-1.01-.56-2.28-.71-3.18-.09-.53.13-1.31,0-1.77-.08-.3-.96-.52-.71-1.41.06-.2.65-.51.71-.71.15-.55-.13-1.51,0-2.12.04-.18.65-1.02.88-1.24l.18,3.35c-.07,1.86.74,4.89.35,7.06ZM459.08,18.18c-1.08,73.65-2.57,146.68-3.18,220.32l-1.06,1.24c-.07-.85.1-1.82,0-2.65-.24-1.95.31-3.76,0-5.65-.36-2.19-.02-5.48-.35-7.77-.52-3.56,1.22-7.64-.71-10.59l.71-1.06-.35-1.77c1.04-.74,1.04-2.44,0-3.18l.71-1.41c-.82-1.56.66-3.02-.71-4.59.58-1.92.58-5.14,0-7.06v-.35c.57-.46.85-.81.71-1.59h-1.06v-1.06h.71l.71-3.53-1.06-.53.71-1.77-.71-.71.71-.71-.35-.71c0-.11.31-.21.35-.35.18-.61-.57-1.21-.35-2.12.39-1.69.22-1.34,0-2.82-.21-1.42.71-2.94.35-4.24-.09-.33-1.03-.55-.71-1.77.08-.29.95-.55.71-1.24-1.69.32-1.27-1.02,0-1.06-.21-1.09.36-1.84.35-2.82h-.71v-.71h.71c.23-1.1-.75-1.54-1.41-2.29.4-.17.29-.61.35-.71.21-.33,1-.84,1.06-1.06.15-.56-.15-1.56,0-2.12.08-.3.96-.51.71-1.41-.04-.15-.35-.24-.35-.35s.31-.21.35-.35c.27-.93-.86-1.2-.71-1.77.93-.74.05-2.27,0-2.82-.17-1.78.66-4.54.35-5.65-.05-.19-.65-.51-.71-.71-.38-1.37.93-1.65,1.06-2.12.07-.25.07-1.86,0-2.12-.09-.31-1.15-.85-.71-1.94h-.71c-.26-.67.62-.93.71-1.24.34-1.24-1.16-2.91.35-4.24l-.35-1.06.35-.35c-1.67-1.2-.15-1.92,0-2.47.21-.77.56-4.92.35-5.65-.05-.19-.65-.51-.71-.71-.09-.34-.09-4.25,0-4.59.05-.19.65-.51.71-.71.13-.48.1-4.32,0-4.94-.23-1.41-.28-4.49,0-6.36.02-.14.56-.53.35-1.41-.23-1.01-.22-2.81,0-3.88.07-.36-.05-.84,0-1.24h-1.06c-.19-.57.33-.74.35-.88.11-.63-.15-1.58,0-2.12.05-.19.65-.51.71-.71.5-1.82-.65-5.34.35-7.06-1.46-1.25,0-3.28-.35-5.3-.02-.1-.56-.37-.35-1.06.94-3.1.73-7.8.35-11.3-.14-1.28.24-2,.35-2.82.08-.61-.06-1.31,0-1.94h-1.06c-.27-.64.34-1.13.35-1.24.08-.54-.12-1.31,0-1.77.09-.34,1-.5.71-1.77-.03-.13-.31-.21-.35-.35-.07-.21.06-.48,0-.71-.08-.27-1.35-1.44-1.77-1.24.06-1.27,1.23-2.07,2.12-3l-.35-.71c.72-.49.89-1.27.71-2.12-.03-.12-.68-.94-.71-1.06-.09-.42.1-1.03,0-1.41-.1-.38-2.59-2.22.18-1.24l.53-.53-.35-1.41c1.12-.89-.52-3.99-.35-4.59.41-1.47.48-2,0-3.53-.07-.22-.6-.56-.35-1.24,1.56.12.37-1.39-.71-1.06l1.41-.71c.33-1.01-.88-.6-1.06-1.24-.2-.74.24-1.55.71-2.12.19-.88-.56-1.69-.35-2.82.03-.14.55-.31.35-.88-.85.18-1.77-.42-1.77-1.41l1.24.35.53-.53-.35-2.29h1.06v-3l-1.06-.53c-.03-.99-.18-1.7.71-2.29l.35-1.94-1.06.18v.71l-1.24.88-1.24-.35.35,1.41-1.41-.35c.23.44-.57,1.23-.71,1.06.1-.75-.43-1.19-1.24-1.06l-.18-.71,1.06-.18,1.41-2.12-1.59-.53-1.06,1.41-1.06-.71c-.16.46-1.54,1.77-1.59,1.94-.09.33-.06,1.7,0,2.12.02.11.63.62.35,1.24l-1.59-1.06-.71,1.06c-.64-.47-.79-1.11-.18-1.59l-.71-1.24,2.12.35c.08-.48-.11-1.17,0-1.59.13-.48,1.88-1.42-.71-1.59.2,1.11-.93,1.9-1.77,2.47l-.18-2.12c-.77.06-.82,3.06.18,3.35v.35c-.64.24-.65,1.18-.71,1.24-.05.05-1,.07-1.24.71l-1.06-2.47-.88,1.24v.88c.73-.07,1.48.69,1.41,1.41h1.06v-.53l1.06-.18c.07,1.13-1.56,1.42-1.41,2.47-.19.19-3.36-.19-4.06,0-.29.08-.55.95-1.24.71l.53-1.06c.79.32,1.11-.62,1.41-.71.77-.21,1.24.33,1.94.35.29-2.44-1.6-2.2-3.53-2.12l.35,1.06h-.71c.31.85-1.32,1.96-1.41,2.29-.11.41.08,1.11,0,1.59l-1.06-1.24v-1.24h.88c.56-.51.98-1.3.88-2.12l-2.12-.35-.35,1.41c-.86.13-1.5-.18-1.41-1.06h-1.41l1.06,2.47c-.73-.23-1.01.87-1.59.71-.97-.28-.08-2.37-1.06-2.82l-1.59.35v-1.94l-.53-.53-.71.35-1.77-.71-1.59,1.24-.35,1.41c1.09.81,1.2,1.48,1.06,2.82-.6.76-1.79,1.33-1.77,2.29l-1.24-.35-.88.53c-.13.45.93,1.35.71,2.12-.19.65-1.58.41-1.77,1.06-.26.9.62,1.11.71,1.41.14.5-.09,1.36,0,1.94h-1.41l.35-2.12-1.77-.88c1.43-.95,1.05-2.15,1.06-3.71.56.29,2.13-1.45,1.77-1.77-.75-.1-.98-.02-1.59.35-.76.47-1.46.32-2.12.71-.27.16-1.57,1.45-1.24,1.77l1.41-.71v1.41c-.39.05-.89-.08-1.24,0-1.05.25-1.33-.13-1.77,0-.15.04-.22.33-.35.35-.43.08-1.01-.09-1.41,0-.13.03-.2.28-.35.35-.11.05-.28-.05-.35,0-.71.42-1.31,1.38-.53,1.94l-.53.88c-.45-.05-.99.08-1.41,0-.8-.15-1.76-.2-2.47-.35-.12-.03-.94-.68-1.06-.71-.55-.12-1.34.08-1.94,0l.35,1.41h-.53l-.18.71,2.65.35c.78-.42,1.34-1.24,2.3-1.06l-.35,1.59-1.77.88v.88l1.41,1.06c-.59.48-.98,1.35-1.77,1.24v.71h-1.77l-.71-.71,1.06,1.94-.35,1.94,1.24-1.06.35.35,1.06-.35,2.12,1.41,1.06-.71.71.35,1.24-.88.18-1.24,1.41,1.77,1.41-.71c1.33,1.12,3.6,1.35,5.3,1.06.14-.02.32-.55.88-.35l-.35,1.77c-1.67.1-3.47-.13-5.12,0-.13.01-.22.34-.35.35-.79.08-1.67-.06-2.47,0l-7.24,8.3-.71,1.41c-1.41.88-2.77,3.75-4.06,4.41-.64.33-.6-.55-.53-.88.28-1.37-.19-1.88,0-3.18.44-2.98.33-4.83,0-7.77-.08-.73.06-1.55,0-2.3l-6.36.35-.35,31.95c.56.66,1.01,1.1,1.94.88.14-.03.22-.33.35-.35,1.18-.17,2.66.12,3.88,0l.53-.53v-8.83l4.77-5.47c.24.31.69.58.88.88.6.94.83,2.52,1.41,3.53,1.47,2.57,3.07,5.46,4.59,8.12.24.43.46,1.38.71,1.77.12.19.38.34.53.53h7.42c.28,0,.7-.87.53-1.24l-2.12-2.82c-2.68-4.91-5.78-9.59-8.48-14.48-.19-.34-.45-.76-.71-1.06l.35-1.06,10.77-11.83.18.71c1.02-.07,1.08-.98,2.3-.71l1.59,1.06-2.47-.35-.71,1.59.35,1.24h-1.77c-.24.68.63.95.71,1.24.06.22.06,1.19,0,1.41-.26.96-2.33.07-2.82,1.06l1.06,1.94h-.71c-.33,1.05.97,1.37.71,2.29-.08.29-.95.55-.71,1.24-1-.35-2.04-.17-2.65-1.06l-.88,1.59c-.19,1.42.41,1.75,1.77,1.59-.16,1.13.19,2.01.35,3l-.71,1.24c1.42.2.85-.18,1.06-.53.15-.24.66-.53.71-.71.14-.49-.15-2.13,0-2.29l1.24.71.88-.35-.71,1.77h-.53l-.53.88,1.24.53h1.94l-.88,1.06h-1.06l-1.06-.71-1.24.71v1.06l1.77.35v-1.06l.35,1.06c.68.24.95-.63,1.24-.71.59-.16,1.62.11,2.3,0l-.35,1.77c-.43-.08-1.46-1.69-1.77-.53-.18.68.45.96.35,1.59.52.03,1.19-.61,1.41.18.42,1.53-1.27,2.37-1.41.53l-2.12-.35.53,1.41,1.24.35-1.06,1.41,1.24-.35c.53.89,1.4.49,1.94,1.24v1.59h-1.41c-.1.97-.04,1.84,1.06,1.77v.18c-.8.33-.62,1.77-1.24,1.94-.37.1-.98-.08-1.41,0-.14.02-.22.34-.35.35-1.59.2-3.66-.42-4.94.35l-1.06-1.06-1.06.35-1.94-.71-.53,3.18c-1.15-.69-.06-1.53-.18-1.94l-.71-1.24-.71.18-.71,1.24v-1.59l.53-.53c.67-.18,1.86.52,1.59-.71l-2.29-.35-1.06-.71c-.51.39-.69.99-.88,1.59-.15.47.28.64-.71.53l-.53-2.12c-.48.59-1.35.98-1.24,1.77h.71v1.41l1.77-.35c-.07,1.3-1.42,1.79-1.06,3.18l1.41-.35-.18,1.06c-1.02-.19-1.2,1-2.3.71l.35-1.77c-.75-.18-.96.6-1.41.88-.82.5-1.56.23-1.77-.71l-.35-1.59c-.78.14-1.12-.13-1.59-.71l-.35.35-1.24-.35v.71l-1.24-.71-.35.35-1.06-.35-.88.35v1.06l-2.65-1.06c-.74.71-2.14.2-3.18.35-.28.04-1.17.9-1.77,0h-.35c-.83.71-.27,2.05-1.94,1.77l1.06-1.24-1.94-.88c-.34.43-.91.34-1.24.88-.16.26.31.72-.71.53l-.18-1.06-3-1.06c.39.51.32,1.61.88,1.77.33.09.85-.06,1.24,0,.19.57-.31.72-.35.88-.07.31.08.76,0,1.06-.16.57-1.53,1.35-1.94.53l-1.24.35v-.71l-3.53,1.41c-.11-1.15.67-.88,1.24-1.06.07-.02.87-.82.88-.88l-.35-1.06,1.77-.88c-.11.62.48,1.16,1.06,1.41l-.35-2.82-1.24.71c-1.26-1.74-2.93-1.45-4.94-1.41l-.88,1.06c1.05.12,1.51.87,2.65.71.54-.08.69-.44,1.24-.35.21,1.22-.76,1.92-1.59,1.06l-1.94.35-.35-1.41c-.58-.19-.68.28-.88.35-.64.22-1.13.32-1.77.71-.84-.7-2.37-.23-3.53-.35-.13-.01-.22-.33-.35-.35-.48-.08-1.08.05-1.59,0,.09.46-.14.81-.53,1.06-.15.1-.91.26-1.06.35-.74.48-.52,1.87-1.41,2.47-.38-.04-.09-.61-.18-.88-.18-.6-.91-.44-1.24-.53-.23-.07-.75-.86-1.06-1.06l-.71.35c-.65-.69-1.07-1.3-2.12-1.06-.14.03-.22.32-.35.35-.31.08-.77-.08-1.06,0-.14.04-.21.31-.35.35-.39.12-.87-.14-1.24.53.42.39.65,1.4,1.24,1.59.57.18,1.34-.09,1.24,1.06-1.22.15-2.08-1.01-3.18-1.06v-.71l-1.41-.35c.13-1.22-.98-.84-1.59-1.41l-1.41,1.06-1.06-.71c-.64.71-1.91.19-2.83.35-.1.02-.36.55-1.06.35l-1.06-1.06-1.59,1.24,1.06.53v.71l1.77-.71c.17,1.89-.26,1.54-1.59,1.77-.14.02-.24.35-.35.35-.07,0-.35-.55-.88-.35.31-1.43-.86-1.9-1.41-3l.71-.71-1.59-1.24-1.24.71c.06.71-.24,1.51.35,1.94l-.71,1.06c.05.33-.08.77,0,1.06.23.85,1.75.03,1.41,1.24l-3.71-.71c-.82-1.15-2.72-1.18-1.59-2.82l-1.59.35-1.06,1.41c-.42-.47-1.02-.74-.88-1.41h-1.77c-.34,1.22,1.11,1.39,1.06,2.47l.71-.18.71-.53-.35,1.59-1.06.53c.26,1.44-.62,2.49-1.77,1.24l1.06-1.59c-.48-.42-2.33,1.05-2.65,1.41-.69.05-1.4.91-2.12.71-.4-.12-.85-1.34-1.59-1.06l.71-2.47-.71.71h-1.06c.19-1.34-.14-2.61-1.77-2.47-.24.78.95,1.21,1.06,1.59.19.66-.25,1-.71,1.41,0,.18,1.5.85,1.06,2.47-.15.53-1.73.6-1.41,1.59l-2.65.35c-.26-.42-1.5-1.28-1.59-1.59-.42-1.47-.31-.86-1.24-1.59-.68-.53-1.77-2.37-2.12-2.47-.23-.07-.6.04-.88,0l.35-2.47c-.76-.06-1.04.78-1.59,0l-1.24.35c.04-.88.61-1.57,1.24-2.12l1.59.18c0-.99-.74-.74-1.24-.88-.21-.06-1.55-1.35-1.77-1.41-.65-.2-1.06.84-.88,1.41l-1.77-.35v-1.41c-1.4.21-2.17-1.33-3.53-1.41-.07-.94.61-1.18,1.41-1.06.21-.97-.44-1.32-1.06-1.94.75-.51.75-1.3,1.06-2.12l-.88-.53-.88.53-2.12,1.94.35-1.59c1.49-1.04,1.39-2.35-.35-2.65l-.53,1.06h-.35c-.8-.56-2.33-1.14-1.06-2.12l1.24.71v-.71c.95.04,1.58-.55,2.65-.35.1.02.36.55,1.06.35l.88-.88-1.59-2.29-.88.35v-1.06l1.41-.71c-.2.99.63,1.66,1.41,2.12-.06-.86.08-1.8,0-2.65-.08-.78-.62-1.95-.35-3.18.14-.63.21-1.13.35-1.77.1-.45-.07-1.09,0-1.59-.95.09-2.08-.13-3,0-.13.02-.21.32-.35.35-.38.08-1.59.17-1.24-.53.25-.48.78-.46,1.06-.71.75-.67,1.36-1.88,2.3-.88l1.24-.88-.35-1.24,2.12.35c-.11-1-1.05-1.28-.71-2.47-.27-.3-1.57.91-1.94,1.06-.19.08-.47-.06-.53,0-.07.07.09.36,0,.53-.23.42-.91.55-.71,1.24h-1.06l-.53-1.06-1.94.35c-.05-.93-1.05-1.24-.71-2.47.79-.31,1.54.62,1.94.71.67.15,2.82.12,3-.53.2-.72-.34-1.53.71-2.12l-.35-.71.71-1.24-1.59.35-.53.88c.57.41.57,2.76-.18,3-1.22-.21-.83-.82-.53-1.59-.72-.73.07-1.83-1.06-2.47l1.06-1.06-.35-.35.53-.53,2.3.35-.35-.88c.58-.47.84-.81.71-1.59h1.06l-.71-1.77,2.12-.71.35,2.12c.74-.06,1.57.09,2.3,0,.13-.02.22-.33.35-.35.32-.06,1.09-.06,1.41,0,.13.02.21.31.35.35.31.1,1.49.04,1.24.88-.04.15-1.55,1.83-1.41,1.94,1.46.27,2.04-1.32,3.18-1.41.12-.99-.18-1.83-.88-2.47-1.81.14-3.73-1.75-3.71-3.53,1.5-.37,1.72.74,2.65,1.41.07.05.27-.06.35,0,.67.45.76.98,1.94.71l-.35-2.47-1.41.35c.16-.94.84-1.74-.18-2.47l-.71.71c-.67-.04-1.37.22-1.77-.35-1.05.59-.94,2.27-2.12,2.47l-1.24-.88c-.12-.4,2.02-2.51.53-2.29-.86.13-1.56,1.54-2.65,1.41l.35,3.53c-1.76.49-1.94-1.64-3.53-1.41-.09.64.55.94.35,1.59-.04.15-.33.22-.35.35-.08.43.1,1.04,0,1.41-.07.25-1.02.89-1.24,1.24l-.88-1.59v-1.59c1.08.09,1.53-1.56,1.77-2.47.58.18.66-.26.88-.35.19-.08.48.07.71,0,.53-.15,2.04-2.38,1.59-2.82-1.34-.36-1.66.9-2.83.71v.53l-.71.18-1.06-2.47-1.94-.35-1.41,1.06c-.28-.54-.77-.24-1.06-.35-.14-.05-.21-.28-.35-.35-.11-.05-.28.04-.35,0-.52-.33-.69-.99-.53-1.59.05-.19.65-.51.71-.71.16-.58-.11-1.62,0-2.29h-1.06c.34.74-.61,2.29-1.24,2.47-.22.06-.49-.06-.71,0-.31.09-.51.96-1.41.71-.26-.07-.53-.87-1.06-.71-.77.23-.78,2.46,0,2.82l.35-.35,1.24.35c-.23-1.04.59-1.43,1.24-2.12l1.94,1.59c.06.68-.28,2.39.53,2.65.68.22,1.17-.85.53-1.41h2.12l-.71,1.24.88.88,2.12-.35c1.17.85-.04,1.36-.71,2.12-1.21-.08-2.44.4-3.18-.71l-1.59.71v-1.06l-1.24.35c-.72-.73-2.6-.96-3.53-.71-1.07.29.24,1.54-.53,1.94.79.66,1.29,1.82,2.47,1.59l.35-1.41-1.41-.53c.53-.58,1.33-.98,2.12-.88l-.35,1.24.71.71-.35.71.35,1.06-.53.53-.35-.35c-.99.18-1.63.89-2.3,1.59-.02.58-.15,1.72.53,1.94,1.15.37.74-.64,1.41-1.06h.35c.62.62.97,1.27,1.94,1.06-.11-.62.35-1.16,1.06-1.06.14-.96-1.26-1.73-1.06-.35h-1.41v-1.77l.88.71.88-.53c-.24-.63-.39-1.28-.53-1.94-.13-.62-.23-.6.35-1.06l3.35,2.65-2.47-.18c-.21,1.25.83,1.71,1.77,2.12l1.06-1.06c.07.61.03,1.06-.53,1.41-.09.06-.28-.05-.35,0-.92.65-1.72,2.55-2.82,1.41-.31.2-.83.99-1.06,1.06-.42.12-.87-.13-1.24.53l.35.35-1.06,2.47.88.88,1.24-1.59.71.35-.35,1.41c1.07,1.06-.83,2.93,0,3.88l-.35,1.06,2.82,2.82-.35.35c.62.48.46,1.12-.18,1.59l-.71-.71.53-.53-1.24-.88h-.88c.19.57-.33.75-.35.88-.14.85-.15,4.46,0,5.3.02.1.56.37.35,1.06-.04.15-.33.22-.35.35-.1.58.07,1.33,0,1.94h1.41l-.71,2.12h-.71c-.19.58.28.68.35.88.07.2-.06.48,0,.71.06.2.71.61.88.88.54-.55.65-.98,1.24-.18-.59.43-1.33,2.12-1.94,2.29-.36.1-.71-.19-1.06.35-.29.46-.02.91-.53,1.24.82,1.2,1.51-.33,2.47-.53.37.89-.63,1.29-.71,1.59-.14.5.09,1.36,0,1.94h2.12v.88l-.88,1.24-1.24-.35.71-1.41c-.56-.1-.69.29-1.24.35-.54.06-1.33-.12-1.77,0-.65.18-1.68,2.4-2.47,2.82-.78-.52-.5-1.32-.53-2.12h-.71v-.53c-.12-.66-1.53.2-1.77.71l.35,1.24-1.94.71c-.53-.75-1.06-.8-1.94-.71-.1.9.97,1.02.71,1.94-.09.33-1.16.86-.71,1.94-.94.07-1.18-.61-1.06-1.41-.73.13-1.06-.61-1.59-1.06l-1.77.71-1.06-.71c-.34.05-.76-.07-1.06,0-.28.07-.81.86-1.41,0l-1.41,1.06-3.18-1.06-1.41,1.41-1.06-.71c-.77.21-.22,1.82-1.06,1.41-.69-.33-.6-2.05-1.41-2.47-.51.07-1.43.02-1.59-.53-.05-.18-.12-.88.18-.88h2.65v-1.06l-1.24-.35-1.06.71-1.06-.71c-.71.73-2.6.96-3.53.71-.3-.08-.52-.97-1.41-.71l-1.24.88.35,1.59-3.71-.71-.35.71.53.53c.44,1.47-2.21,1.85-2.12.18-1.01.35-1.37-.97-2.3-.71-.12.04-1.02.98-1.41,1.06-1.71.37-4.53-.3-6.36,0-.14.02-.24.35-.35.35-.56-.27-.97-.75-1.41-1.06-.29-.21-1.1-.15-.88-1.06-.52-.07-1.19,0-1.41.53-.36.84,1.12.16.71,1.24l-3.18.35v-1.94l-.53-.53c-.56-.06-1.23.09-1.77,0-.13-.02-.21-.32-.35-.35-.32-.07-.76.08-1.06,0-.08-.02-1.21-1.15-1.24-1.24-.09-.32.07-1.06-.53-1.24-.66-.19-1,.25-1.41.71l-1.06-.35c-1.03.86-1.46,1.41-1.24,2.82h-1.41l-.35,1.41h-1.06l.71-1.94c-.56-.61-1.26.68-1.77,1.06l.35.71-.53.53c-.34-.05-.76.07-1.06,0-1.83-.42-4.16.52-6.36-.35-.29-.11-.88-.4-1.06-.35-.57.77-1.47.86-2.3,1.06l-.35,1.41h-1.06l-.71-1.24.35-.71c-.4-.17-.29-.61-.35-.71-.48-.76-1.29-.3-1.77-1.06l.35-.71c-.45-.75-1.34-.31-1.77-1.06-.59-1.04-1.26-.73-1.41-.88-.04-.05.04-.89-.53-1.06-1.51-.43-.9-.78-2.12-1.41-1.2-.63-.71-.88-.88-1.06-.04-.04-.86.02-1.06-.53l1.94-.18.88-.53c-.55-.6-.88-1.06-1.77-.88.18-.92-.5-1.79-1.41-1.77v-2.12h-2.82v-.71h-1.06l.35,1.41h-.53l-3.18,2.82c-.31-.08-.23-1.03-.18-1.24.13-.47.95-.63,1.41-.53.18-1.37-.61-1.55-1.77-1.41l-.53,1.06-.71-.71c-.91,1.05-1.9,2.08-3.18,1.06l-1.77.71c-.43-.59-1.23-.3-1.94-.35l.71,1.24c.15,1.16-.21,1.75-1.41,1.59-.19.57.31.72.35.88.2.85.11,1.29.71,2.12-.63.4-.23,1.16-.35,1.77-.12.56-1.02,1.64-1.06,1.77-.06.22.06.49,0,.71-.42,1.46-3.03.29-3.71,1.59h-.35c-.4-.63-1.15-.23-1.77-.35-.14-.03-.22-.33-.35-.35-.43-.08-1.04.1-1.41,0-.54-.15-1.86-2.06-1.59-2.82-.78-.15-1.07.69-1.59,1.06-.07.05-.26-.06-.35,0-.7.44-.44,1.6-1.41,2.12l-.88-.88c.15-.23.66-.54.71-.71.1-.36.1-4.94,0-5.3-.13-.48-1.73-1.62-1.41-.18-.73.07-1.59-.1-2.3,0-.14.02-.54.56-1.41.35-1.89-.44-8.19-.72-10.24-.35-.1.02-.36.55-1.06.35-.61-.18-.43-.94-.53-1.24-.05-.15-.35-.24-.35-.35v-6.89l14.66-.35.53-.53c-.18-1.52.25-3.5,0-4.94-.02-.14-.55-.32-.35-.88-.39.05-.88-.07-1.24,0-2.07.43-5.3.61-7.42.71-1.99.09-4.01-.06-6,0l-.53-.53v-6l.53-.53,15.71-.35v-5.47l-.53-.53c-2.59.06-5.19-.09-7.77,0-3.24.11-7.35.49-10.59.71-1.28.09-2.6-.06-3.88,0l-.53.53,1.06,31.78.53.53c3.29.07,6.6-.09,9.89,0,2.9.08,7.15.9,10.24.35.1-.02.35-.55,1.06-.35l.88,1.06c-.48.08-1.18-.11-1.59,0-.19.05-.51.65-.71.71-.59.16-3.43-.57-4.24-.71l-1.06.71-.71-.35-1.41.35-2.12-.71c-1.85,1.55-5.07.24-7.06.71-1.26.29-1.41-.6-1.77-.71-1.33-.38-2.64-.07-3.53-1.41l-1.94.35c-.11,1.63-1.23,1.22-2.3,1.41-.14.02-.22.34-.35.35-1.13.14-3.35-.4-3.53-.35-2.3.63-4.07.03-6,.35h-9.18l-2.3-2.29c-.08-.91.11-1.94,0-2.82-.23-1.88-.63-1.64-.35-3.88.44-3.53-1.29-7.44-.71-10.95.17-1.04-.23-2.57,0-3.88.29-1.65-.22-3.22-.35-4.94-.07-.94-.13-2.65,0-3.53.02-.11.63-.62.35-1.24,1.2-.26.56.87.71,1.59.91,4.51.55,9.64.71,14.48.11,3.23.55,7.36.71,10.59.09,1.76-.06,3.54,0,5.3l.53.53h18.36c.72-.73,2.98.11,3.35-1.24.09-.33.06-1.71,0-2.12-.02-.13-.32-.21-.35-.35-.21-.9.59-1.66.35-2.65h-.53c-.54-.1-.04-1.64.71-1.41l1.06.35.53-.53c-.87-.6-.06-1.13,0-1.41.23-.99.16-1.4,0-2.12-.2-.9.25-1.55.35-2.3h-.71c.19-.54-.35-.81-.35-.88,0-.12.33-.22.35-.35.37-2.15.52-3.83,0-6-.4-1.69.22-2.47,0-4.24-.03-.24-.57-.81-.35-1.77.29-1.28.35-2.96.71-4.59.03-.14.33-.22.35-.35.09-.42-.1-1.03,0-1.41.02-.08,1.15-1.21,1.24-1.24.22-.06.5.07.71,0,.15-.05.22-.33.35-.35,1.21-.22,2.66.15,3.53-1.06l1.06.71,1.59-1.59-.35-.35c.46-.32.45-1.19.35-1.77-.02-.14-.35-.24-.35-.35s.33-.22.35-.35c.09-.53-.13-1.31,0-1.77.13-.49,1.8-2.07,2.12-2.82.08-.19-.06-.47,0-.53.57.19.74-.33.88-.35.63-.11,1.45.08,2.12,0,1.12-.14,2.2-.12,3.18-.35.87-.2,1.14.28,1.41.35.63.17,1.47-.46,1.24.71-1.22.07-2.49-.09-3.71,0-.13,0-.23.34-.35.35-.83.08-2.17-.18-2.83,0-.08.02-1.21,1.15-1.24,1.24-.22.77-.4,2.04-.71,2.82-.2.5-.85,1.26-1.06,1.77-.22.51-.44,1.01-.35,1.59h3.71l4.59-4.94h.53v-.71h1.06v1.06l1.41.18c-.5.87-1.33.36-1.94.53-.6.17-.44.92-.53,1.24-.05.18-.57.46-.71.71-.09.17.07.46,0,.53-.07.07-.36-.09-.53,0-.27.15-.99.88-.88,1.24.39.59.65.48,1.24.53,1.33.11,2.39.58,3.53,0,.66.88,1.79.52,2.47.71.18.05.46.57.71.71.17.09.46-.07.53,0,.05.05-.12.68.53,1.06l.18-.53.71-.18c-.24.68.63.95.71,1.24.14.5-.09,1.36,0,1.94l1.06-.88-.71-3.35,1.59.35.53-1.06c1.56.01,2.76-.37,3.71,1.06l1.41-1.06,1.06.71.53-1.06h1.41v.71l1.24.35c1-.13,2.04-.44,2.83-1.06l1.06.71,1.06-.35,1.24.35v.71c.2.2,3.36-.19,4.06,0,.17.05.47.56.71.71l2.47-2.47c.14,0,.77.88,1.06,1.06.61.37,1.26.21,1.77.35,1.33.37,1.12,2.93-.53,2.82v1.41c.74.23,1.3-.54,1.94-.35.2.06.51.65.71.71.24.07,1.53.07,1.77,0,.25-.07.81-.99,1.06-1.06,1.01-.29,1.74-.34,1.59-1.77.68.17,1.35-.93,1.94-1.06.51-.11,1.3.13,1.77,0,.19-.05.51-.65.71-.71.77-.21,2.15-.17,2.83-.35.3-.08.57-.97,1.24-.71l.53-1.41.18,1.41c.58-.25,1.17-.79,1.06-1.41h1.06v1.41c1.31.2,2.09-1.01,3,.35.53-.45.86-1.19,1.59-1.06l.18.71,1.59-1.24c-.82-.41-.05-1.78.53-1.94.22-.06.5.07.71,0,.14-.05.22-.32.35-.35.6-.14,1.21-.02,1.59.53l-1.94.18-.88,1.24.35,1.41-.71,1.41,1.41.88c.3-.34-.66-2.5.71-2.12-.28,1.19.25,1.27.71,1.94.06.09-.05.28,0,.35.13.17.8.86.88.88.44.12,1.05-.25,1.41.35.92-.56.04-.76.18-1.24.89-.73,1.42-1.72,1.77-2.82l-.35-1.59-1.77.35v-1.06h1.59c.12-.19.49-.38.53-.53.31-1.08-.64-1.82,1.41-.71.35.69,1.27,1.41,1.06,2.12-.04.14-.31.21-.35.35-.1.33-.1,1.2.53.88.67-.33.41-.85.53-1.24.16-.54,1.29-.68.35-2.12l.71-1.06c-.17-.54-1.38-.38-1.06-1.06.12-.25.53-.3.35-.88h1.06l-.35-2.12h2.12l.35,1.24c-.77.59-1.09,1.24-.18,1.94l.53-1.41h1.06c.19-.58-.28-.68-.35-.88-.07-.2.06-.48,0-.71-.09-.31-.96-.57-.71-1.24.87.09,1.19-.54,1.06-1.41l-3.18,1.77c.19-.52-.36-.82-.35-.88,0-.09.55-.34.35-.88-.84-.03-1.54-.57-2.12-1.24l.35-.71-1.06-.53-.35-1.41c.89-.37,1.29.63,1.59.71.38.1,1-.09,1.41,0,.5.11,1.2,1.33,1.94.18.04-1.35-1.95-.71-2.12-.88v-.71h-2.83c-.28-.62.34-1.12.35-1.24.12-.85-.17-2.05,0-2.82.12-.56.94-.56,1.06,0,.13.57.11,1.78-.35,2.12-.13.4.48,1.01.88.88,1.01-.32.1-2.5.88-3v-.35l-1.06-.53v-1.06l.71.18,1.24-.53c.46.67.43.08.71,0,.41-.12.83,0,1.06.35l.88-.88c.15-.49-.51-.74-.71-1.06-.21-.35.36-.73-1.06-.53-.25-1.05.76-.9,1.24-.35.7.21,1.27-1.21.71-1.41-.31-.11-.61-.07-.88-.53.4-.17.29-.61.35-.71.89-1.42,2.3-.71,3.71-.88.68-.08,1.39-.76,2.47,0l1.41-1.06c.18.45.84.31.88.35.06.06.02,1.33,1.06,1.06-.19-1.36,1.37-2.04,2.12-3v-.35c-.57-.37-.56-2.4.18-2.65.87-.29.8,1.29,1.24,1.59v.71l-.71,1.06.35,1.06-1.06,1.41.35.71c-.92.86.25,1.87,0,3-1.04.1-1.92.93-2.83,1.59v.88l1.41-.35c.1,1.03,0,1.72-.35,2.65-.11.3-.64.25-.88.18-.79-.23-.2-1.47-.88-1.41-.09.58.14,1.44,0,1.94-.05.19-.65.51-.71.71-.49,1.79,2.09,2.29,2.83,3.53.23.39.25,1.18.35,1.41.11.24.69,1.18.88,1.24.86.25,1.39-.77,1.94-1.24l-.35-.71c.31-.23.59-.71.88-.88.08-.05.24.05.35,0,.15-.07.23-.33.35-.35.51-.11,1.3.13,1.77,0,.61-.17,1.37-1.9,1.94-2.29.09-.34.09-4.25,0-4.59-.07-.26-1.29-1.55-1.06-2.29h-.71c-.42-.42,1.63-1.89,1.41-2.65-.45-.68-1.04-.55-1.77-.53v.88c-.58.58-1.18-.06-1.59-.53-.31-.35-.67-.46-.53-1.06.51-.05,1.1.08,1.59,0,.13-.02.22-.33.35-.35.84-.15,1.45.12,2.12.35l.88-.35c.14-.14-.13-1.81,0-2.29.05-.19.65-.51.71-.71.12-.45-.08-1.23,0-1.77.02-.1.62-.59.35-1.24l1.94-1.06h2.65c.14.78-.13,1.12-.71,1.59l2.12,3.53c-.93,1.18-2.13.12-3.18.18l-.71-1.24.35-.35-1.06-.53c.07.74-.79,1.04,0,1.59-.17.54-1.38.38-1.06,1.06.55,1.17,2.06.88,3.18.88v-.53l.71-.18.35,1.41c.57.19.74-.33.88-.35.53-.09,2.69-.11,3.18,0,.09.02.86.55,1.06.71.31-.08.23-1.03.18-1.24-.18-.64-1.33-.56-1.94-.53l-1.24-2.12c1.07.14.97-1.06,1.77-1.59l-.35-1.24c-.65-.27-1.03.3-1.24.35-.45.12-.66-.53-1.24-.35,0-1.65,2-.92,3.18-1.06v.71l1.06-.53.71.35c.2,1.65.63,3.64.35,5.3-.02.14-.35.24-.35.35,0,.07.55.35.35.88l102.76-1.41-.53,1.06h-.35c-.67-.71-1.57-.42-2.12.35l-1.24-.71-.35,1.24.71.53.18-.71c.34-.05.76.07,1.06,0,1.07-.26,1.31.14,1.77,0,.14-.04.22-.32.35-.35,1.38-.32,1.74.07,2.47-1.41.81-.06,1.69.09,2.47,0,2.66-.29,7.07-.85,9.89-.35,1.96.35,6.9.09,9.53,0,18.1-.59,36.96-1.06,55.09-1.41,4.35-.08,8.71.06,13.07,0l.53.88-.35.35ZM414.94,37.07l-.71,1.06.18-1.77c.5-.44,1.21-.81,1.94-.71l.71,1.77-2.12-.35ZM416,41.49c-.12.4-.64.43-.88.53-.25.11-1.12.47-1.24.35l.35-1.24c.51-.47.14-1.23,1.24-.88.39.12.65.81.53,1.24ZM303.17,41.31c.6-.17,2.75,2.18,1.41,2.82-.6.17-2.75-2.18-1.41-2.82Z"/>
</svg>