<?xml version="1.0" encoding="UTF-8"?>
<svg id="Layer_1" data-name="Layer 1" xmlns="http://www.w3.org/2000/svg" viewBox="0 0 505.76 389.55">
  <path d="M269.44,111.11l-.7-1.59c-.4.04-.87-.06-1.24,0-.14.02-.23.35-.35.35-.07.01-.62-.63-1.24-.35l.53,1.41.71-.7,1.59.35-1.06,1.76,1.76-1.23ZM505.34,359.68c.34-1.46.13-1.01,0-2.12-.31-2.47.36-4.68,0-7.06-.57-3.76-.41-7.5-1.06-11.3-.6-3.48.17-9.13-.36-12.71-.13-.93-.29-2.43-.35-3.18-.16-2.24.12-4.63,0-6.89h-.7c.46-1.6.45-3.64.35-5.47-.15-2.46-.18-5.92-1.06-8.12.9-5.88-.42-12.84-.71-19.07-.17-3.64.24-8.29-.35-10.94-.21-.92-.15-2.17,0-2.83.1-.44.08-2.34,0-2.82-.02-.14-.55-.32-.35-.88h-1.42l.36,1.94-.71,1.59c1.35-.18,1.55.58,1.41,1.76l-1.06.53c.45.87.09.74,0,1.06-.11.44.13.86-.53,1.24h-.88l.35,1.41c-.83.22-1.3-.41-1.94-.71-.17-.08-.47.07-.7,0-.12-.03-1.29-1.1-1.77-1.41-.89-.57-.35-1.27-.53-1.94-.07-.26-1.35-1.45-1.77-1.24l.18-1.76.88,1.41,1.06-.88-1.06-.71.71-.7c-1.05-.95-1.69-1.48-1.41-3.01-.73.21-1.27-1.28-1.77-.17-.34.74.68.49.71.53.27.64-.34,1.13-.35,1.23-.19,1.29.31,2.57-1.06,3.53v.36c.79.7,1.78,1.54.17,1.94-.55-.36-.51-1.06-1.06-1.41-.34-.22-1.07-.16-.88-1.06h-1.06l.71-1.06-1.77.7,1.41-2.47-2.82.71c.37-1.31-.88-1.62-.71-2.83.57-.19.74.33.89.36.36.07,1.97.22,1.58-.53l-.53-.88h-.52l-.36-1.77c-1.4.61-2.04-1.23-2.65-1.41-.18-.06-.88-.13-.88.17v1.59c-.07.07-.36-.09-.53,0-.71.4-.2,1.32-1.24,1.06.19-1.3-.54-2.23-.35-3.53-1.31-.07-.91,1.82-2.47,1.41l-.53-1.76-.35.7c-.94-.45-1.88-.37-3-.35v2.47h-1.24l-2.47-1.41-1.24,1.59.18,1.59-1.24-1.94,1.06-1.42-2.47-1.58c.96.18,1.21.68,1.94-.36h.35c.46.69,1.32.92,2.12.71.65-.17.37-1.27.89-1.59l-.71-.71,1.06-.53v1.42h.53l.18,1.06.7-.89-.17-.88.88.53.53,1.24.88-1.42-1.06-.7c1,.11,1.9-.9,2.65,0,1.76-.26.34-2.07-.71-1.77l-.7.71-1.06-.71c-.74.91-1.25,1.25-2.47,1.06l-.53-1.06,1.76-1.06c-1.14.2-3.06-.27-4.06,0-.29.08-.55.95-1.23.71v-1.41h.7c-.3-.5-.49-.98-.35-1.59.03-.13.29-.2.35-.36.08-.18-.06-.45,0-.53.05-.05,1.34-.02,1.06-1.05l-.88.7-.53-1.06h-1.06c-.14-.78.12-1.11.71-1.59v-.35c-.47-.63-.93-1.88-1.95-1.59l-.53.53c.66.5.33.81-.17,1.24-1.63-.27-.25-2.35-1.59-3l.35-.71-.71-1.41c1.34-1.28-1.69-1.87-.17-3l.88.35v-1.06l-1.77-.35v-1.06c-.75.02-1.31.14-1.76-.53v-.88c-1.27.27-.88-1.56-1.59-1.77h-.88c.31-1.58-1.49-1.94-2.47-.88l.7,1.06-.53,1.59-1.23-.89c-.12-1.07.38-2.34-.53-3l-.89.35v-1.05c-.31-.34-1.57.95-1.76,1.23-.05.08.05.26,0,.35-.45.76-.91,1.25-.71,2.3.25.28,1.34-.63,1.41-.88.1-.32-.07-1.06.53-1.24.35-.1,1.19.69,1.24.88.17.61-.64,1.45-.35,2.3h-.71c.09.99,0,1.9-.71,2.65l1.42.17v1.06h-1.95l-.53-1.06-1.76.36.71.7c-.21,1.05.87,1.71.7,2.83-.64.27-1.04-.31-1.23-.36-.44-.1-1.39.18-1.59-.53-.07-.21.06-.48,0-.7-.05-.18-.91-.72-.71-.88.7.07,1.48-.66,1.41-1.42l-1.06,1.06c-.47.37-2.29-1.22-.88-2.12.07-.04.25.06.35,0,.26-.13.31-.52.89-.35l-1.24-2.47c-.82-.34-1.78.96-2.12,1.06-.9.26-1.1-.62-1.41-.71-.88-.25-1.25-.66-1.41-.7-.95-.26-2.09.29-3.18-.36-.8-.47-.82-1.35-.88-1.41-.06-.05-.78.04-1.24-.71l.18-.7h-1.06l.35,1.06-1.59-.36-.35.36c-.97-.8-.07-2.06-1.42-2.83l-1.76.71-1.41-.35-1.06.7c-1.48-1.39.32-1.5.88-2.47l-3.35-1.06-2.3,1.41.71-1.76-1.06-.53.7-1.24-1.41-.35v-1.41h-.71l.36-1.41-1.06-1.06-.71.53-.7.17v-1.06c-.86.35-1.95-1.67-1.24-1.76.73.12,1.32-.24,1.24-1.06-.89.09-1.41.04-1.95-.71l-.88.71.71-1.41-2.65.35c-.36-.1-1.95-3.28-2.83-3.53-.21-.06-.49.06-.7,0-.45-.13-.55-1.17-1.06-1.41-.5-.24-.72.14-.36.7.26.38.63.81.89,1.24v.7c-.41.11-.18,1.22-.89.89-.74-.35-.89-1.51-1.59-1.95l-.35-2.11.71-2.3c-.74.1-1.45-.26-1.94-.7l-1.24.7v-1.06c-.54.2-.79-.35-.88-.35-.06,0-.36.55-.89.35l-.35-.88.71-1.06c-.27-.61-1.65-1.02-1.77-1.41-.09-.31.07-1.08-.53-1.24-.3-.08-.98-.07-1.23.18l-.36.35.36.88h-.71v.71c-.79-.63-1.22-.86-2.3-.71l-.53-.53.36-1.41-.53-.53c-1.69,1.25-3.06-1.09-.53-1.06l-.35-1.41c-.54-.02-2.37-.86-2.48-1.23-.34-1.25.96-1.56.71-2.48-.11-.4-.45-.6-.88-.17-.42.41-.62.41-1.24.35l-1.24-2.82-.17.53c-.23.6-1.02.48-1.06.53-.15.14.14.33-.88,1.05-.66.47-1.32,1.55-1.24-.17l-.71-.18c.2,1.02-.27.55-.53.71-.67.41-.55,1.03-.53,1.76l-2.29.36c-.51-.59-1.21-1.04-1.94-1.06v-1.77l-1.42.35.36-2.11c-.81.28-1.48-1.29-1.95-1.42-.64-.17-1.44.35-1.94-.53-.09-.16.07-.46,0-.53-.06-.06-.34.08-.53,0-.23-.09-.3-.53-.88-.35.13.72-.53,1.27-1.24,1.06-.45-.13-1.02-1.59-.88-2.12-.61-.11-.22.31-.35.53-.73,1.22-2.07-.31-2.12-1.23h-1.06l.35.88-.53.53-.7-.35c-.67.87-1.79.51-2.47.7-.55.15-.49,1.87-2.12,1.41-.06-.01-.87-.82-.89-.88-.06-.22.07-.5,0-.71-.07-.2-.54-.3-.35-.88.47.1,1.27-.05,1.41-.53.35-1.16-.55-.69-1.06-1.41l.36-.88c-.74-.1-1.45.26-1.95.7l-1.23-1.23,1.23-1.59.53-1.06-2.64,1.41c-.84-.39-1.64-.41-2.65-.35-.3.28,1.16,1.68-.36,1.41.12-.83-.12-1.67-.7-2.29l.35-.36-.35-.35.7-1.24c-1.29-.57-1.48,1.67-2.29,1.42-.39-.13-.66-.82-.53-1.24l1.41-1.76c.01-.66-2.49-.36-2.12-1.42.2-.57,1.07-.59,1.59-.53l1.06.71,1.24-.88-.36-.89-2.82-.35-.53,1.41c-.79-.62-1.04-1.08-.88-2.11h1.06v-1.42l-.89.36-.53-.53.36-.71-.53-.53c-.46.61-2.45.52-2.65-.18-.06-.21.06-.48,0-.7-.06-.2-.65-.51-.71-.71-.13-.48.14-2.15,0-2.29h-1.59l-.88-1.24.71-.71-.36-1.23c-.98-.21-1.34.47-1.94,1.06l-.88-1.24c-.12-1.58.89-1.09,1.94-1.23.46-.07,1.04-.38.88-.89-.25-.79-1.42-.41-1.94-.53-.16-.03-.31-.54-.88-.35l-.36-2.12c1.06.7,1.76.41,2.48-.53l-.36-1.41.36-.35-.53-.88c-.55-.16-1.4,1.22-1.95.17.07-.56-.08-1.23,0-1.76.08-.44.23-.56,0-1.42-.03-.14-.35-.23-.35-.35.59-.65.82-1.43.71-2.29-.39-.06-.89.08-1.24,0-.13-.04-.21-.32-.35-.36-.37-.1-.91.61-1.59.36.16,1.03-1.07,1.3-1.94,1.06-.31-.09-.57-.97-1.24-.71.1.67-.39,1.16-1.06,1.06l.35,1.41c-1.14.06-1.14-.85-1.05-1.76-1.56.61-2.44-1.42-1.24-1.77.52-.15,1.14,1.14,1.94.71l.35-2.12c-.67.13-.94-.46-1.41-.89l.36-1.23h.7c-.06-.71.24-1.51-.35-1.94l.53-.53.35.7,1.24-.35-.71-.88,1.24-.88.88.88-1.06,1.06.88,1.59c.55-.2.49-1.02.53-1.06.13-.12,1.89-.43,2.12-1.24.07-.23-.08-.52,0-.71.09-.22.54-.3.36-.88l3.17-.7c-.4-1.52.8-1.73,1.42-2.65.05-.08-.06-.27,0-.36.15-.24.79-1.15.7-1.23-.65-.14-.84.36-1.23.7-.83.73-2.15,1.87-2.3,2.83-.69.31-1.5-.35-1.59-.35-.18,0-1.91.57-2.12,1.06-.38-.51-.68-.51-1.06,0h-12.36c-1.47-1.23.37-1.79.89-2.65.04-.07.34-.67.35-.71.16-.7.1-3.76,0-4.59-.04-.33-.47-1.74-.71-2.12,1.14-.76.61-2.1.71-3.35h-1.77c-.02,1.11,1.41,1.26,1.06,2.47-.67-.14-.94.46-1.41.88l.71.71c-.6.33-.23.93-.36,1.41-.04.15-.71,1.19-.88,1.24-.38.11-.82,0-1.06-.36-.2-.31-.16-.5-.17-.53-.13-.18-.39-.33-.53-.53-.63.11-1.58-.14-2.12,0-.3.09-.52.97-1.42.71-.3-.09-1.1-1.32-1.41-1.41-.71-.2-1.36.34-1.23,1.06-.89.05-2.23-.39-2.12-1.41h-1.06l-.36,1.58-.88.53-1.41-2.47-.71,1.41-.53-1.58c.03-.09,1.16-1.21,1.24-1.24.24-.08,1.25.22.88-.53-.6-1.21-2.26.08-3.18-.18v-.7l-1.59-.36c-.69.57-1.26,1.21-.7,2.12.12.2.49.39.53.53.28.97.53,1.29,1.06,2.12.38.6.59.23,1.06,1.06.22.39.94.82,1.23,1.24l1.94-1.42-1.05,3.01c.41.29.84,1.01,1.23,1.23.84.47.46.67,1.06,1.06l1.59.53c.1.37-.72,1.19-.88,1.24-1.19.32-4.13-.13-5.65,0-.13,0-.23.34-.36.35-1.28.14-2.01-.25-2.82-.35-.64-.08-1.6.14-2.12,0-.82-.23-.7-1.89.18-2.3.27-1.29-.21-1.38-.71-2.12-.45-.65-1.08-1.4-1.41-2.12-.51-1.1-1.34-2.21-2.12-3.17-2.07-2.54-2.85-.83-2.47,1.76.02.13.32.21.35.35.2.88-.33,1.28-.35,1.42-.1.63-.1,2.19,0,2.82,0,.1.62.6.35,1.24.75-.24,1.57.92,1.94,1.06.51.18,1.09-.42.88.7-.61-.27-1.12.34-1.23.36-.75.1-1.97.3-2.47.35-2.08.19-4.77-.26-6.36,0-.79.13-1.81-.09-2.65,0v-1.77c.57.14,2.34-1.11,2.47-1.59.11-.37-.07-.98,0-1.41.03-.13.34-.22.36-.35.28-2.27-.57-4.8-.36-7.42.14-1.57.14-1.6,0-3.17-.26-3.14.32-6.15-.35-9.18-.1-.44-.13-.6-.53-.89l-.88.36.35,1.23c0,.3-.7.23-.88.18-.59-.18-1.03-1.66-1.41-1.77l-.71.36-.53-.53v-.89c-.57-.05-1.59-.06-1.77.53-.06.23.07.5,0,.71-.1.33-.55.56-.35,1.41.1.41.45,1.39.71,1.77l-.71,1.41,1.06,1.77v.35c-.63.63-.05,1.55-1.06,2.12.66.49.33.81-.18,1.23-.79-.45-.38-1.07-.53-1.59-.07-.25-1.01-.88-1.23-1.23l-1.41.7-.89-.88.36-1.06-.36-1.23h1.77v-1.77c-.78-.09-1.89-.47-1.77-1.41-.97-.29-1.97-.2-3-.35-.13-.02-.22-.34-.35-.36-.84-.09-1.79.07-2.65,0,.28.62-.34,1.13-.35,1.24-.08.56-.39,3.68-.36,3.88.03.14.36.24.36.36,0,.24-.25-.03,0,1.06.09.4-.07.97,0,1.41.08.54.44.69.35,1.23.9-.19,1.33-.98,1.94-1.41.11-.08.55-.01.89-.53.04-.07-.06-.24,0-.35.07-.15.32-.23.35-.35.12-.53.09-1.47-.35-1.77.54-.77.83-1.82,2.11-1.59.06.63-.08,1.33,0,1.94.02.13.34.23.36.36.38,3.49-.24,6.95.35,10.59.08.48-.05,1.08,0,1.59l-2.12-.36c-.06-.5.09-1.11,0-1.58,0-.06-.25-.71-.35-1.06-.12-.41-2.47-2.45-3-2.3-.59.4-.49.65-.53,1.24-.08,1.01-.18,1.88.7,2.47,0,.12-.33.22-.35.35-.23,1.4.17,3.3,0,4.77h.71v.7c.67-.25,1.03.3,1.23.36.48.13.25-.49,1.42,0,.15.06.36-.03.52,0v-.71c.13-.13,1.81.11,2.3,0,.04-.01.64-.31.71-.35.21-.13,1.9-1.81,1.94-1.94.46-1.6,1.29-1.32,1.41-1.77.15-.54.07-1.08.35-1.76.16-.37.28-1.08.89-.89.67.22.35,1.25.88,1.59-.08.55.11,1.27,0,1.77-.03.13-.31.21-.35.35-.13.47.32.56.35.71.2.87-.56,2.1-.71,2.82-.08.42.11,1.04,0,1.41-.06.25-1.01.89-1.23,1.24-1.25.18-3.1-.26-4.24,0-.14.03-.21.31-.35.35-.47.13-.57-.32-.71-.35-3.58-.8-10.14.57-14.12,0l-1.24-.53c.35-.22.98-1.16,1.24-1.24.91-.26.73.21,1.23-.88.07-.15.32-.22.35-.35.09-.3-.07-.74,0-1.06.16-.69.59-1.42.36-2.47-.22-.98-.03-1.3-.36-2.47-.1-.39,1.07-1.7-.35-2.48.66-1.51.08-4.69.35-6.35.18-1.05.16-4.93,0-6-.01-.11-.62-.6-.35-1.24l-2.47-.35v-.71h-1.06c.17.39-.58,1.33-.88,1.41-.23.07-.52-.07-.71,0-.22.1-.3.54-.88.36-.05.39.07.87,0,1.23-.3,1.5-.24,2.32-.36,3.89,0,.12-.34.22-.35.35-.36,5.88.27,12.09,0,18.01-.06,1.01-.94.94-1.76.88.01-1.37-1.37-2-2.12-3-3.91-5.19-7.87-10.97-12.01-15.89-.36-.44-.9-.99-1.41-1.24.2,1.67-.28,3.9,0,5.48.27,1.5.22,3.24,0,4.59-.29,1.73.13,3.78.35,5.29.12.78-.23,2.33.88,2.65.24.07.53-.08.71,0,.25.11,1.18.69,1.24.88.16.55-.12.92-.53,1.24h-19.78c-.19-.05-.76-.98-.88-1.24-.34-.71.89-.47,1.06-1.06.23-.85-.31-1.44-.71-2.11-1.23-2.09-3.03-3.92-4.24-6.01l-2.12-1.94c-.05.63.08,1.33,0,1.94-.08.65-.5,1.3-.35,2.47.02.14.34.23.35.36.15,1.58-.1,3.33,0,4.94l2.48,1.77c.13.3-.43.88-.53.88h-10.95c-.48,0-.64-1.27-.53-1.77.64.21,2.32-.69,2.47-1.23.15-.55-.13-1.52,0-2.12.03-.14.32-.21.35-.35.13-.47-.32-.57-.35-.71-.68-3.05.05-9.49-.35-12.71-.22-1.75.16-3.85,0-5.65-.36-.56-1.04-.62-1.59-.88-.14-.07-.21-.29-.35-.36-.18-.08-.48.07-.71,0-.6-.17-.58-1.19-.53-1.76,1.2.07,2.06-.55,3.36-.35.13.02.22.34.35.35,2.55.27,5.51-.2,8.12,0,1.36.92.89,1.9-.53,2.12v1.06h-.71c-.08,1.52-.63,3.1-.35,4.76.02.14.35.24.35.36,0,.11-.33.21-.35.35-.09.53.06,1.2,0,1.76.41.11.18,1.22.88.89.3-.14.72-.8,1.06-1.06,1.77-1.31,2.93-2.53,4.59-3.89.44-.35.81-.86,1.24-1.23l-.35-.71.53-.53.7.36,1.06-1.42-.35-.7-1.41-.36-.71.36c-.38-.43-1.64-2.07-1.24-2.47,1.34.36,1.64-.9,2.83-.71l-.35,1.06h8.3c.07,0,1.01.87.88,1.23-.31.23-.59.71-.88.89-.62.36-1.26.21-1.77.35-.33.09-4.39,4.22-4.41,4.94-1.46-.47-1.82,1.47-2.12,1.77-.07.06-.37-.09-.53,0-.76.42-1.3,1.89-2.3,1.76.06,1.05,1.16,1.82,1.77,2.65,2.14,2.92,4.4,5.87,6.71,8.83.75.97.71.85,1.59,1.59.34.29,1.21,1.35,1.41,1.41.22.06.49-.07.7,0,.15.05.23.33.36.35.36.07,1.43.08,1.76,0,.13-.02.2-.28.36-.35.11-.05.27.05.35,0,.16-.1,1.21-1.15,1.24-1.24.1-.37-.08-.98,0-1.41.02-.13.33-.22.35-.35.2-1.61.07-4.3,0-6-.01-.13-.35-.23-.35-.36-.17-4.1.12-8.24,0-12.35-.02-.06-.83-.87-.89-.89-.21-.06-.49.07-.7,0-.32-.09-.69-1.07-1.59-.7l-.36-1.59c.57-.92.76-.04,1.24-.18.51-.74,1.24-.87,2.12-.7.14.02.22.33.35.35,1.65.2,3.61-.15,5.3,0,.54.36,1.34,2.35,1.77,2.47.42.12.86-.13,1.23.53l-.35,1.06c.14.49,2.62,1.75,2.82,2.47.41,1.46.73,2.68,1.95,3.35.88.5,1.02,1.2,1.23,1.95.11.37,2.63,2.56,3.18,3l-.35-1.59.7-1.06-.35-1.94h-.71l-.7-2.3.7-.53,1.06,1.42c-.23-1.31.32-3.63,0-4.77-.05-.18-.57-.46-.7-.71-.1-.16.06-.46,0-.53-.07-.06-.37.1-.53,0-.25-.13-.53-.65-.71-.7-1.3-.38-.93-.29-1.77-1.42-.3-.41-.72-.49-.52-1.23l1.41-.18v.71c1.34.06,2.72-.09,4.06,0,1.73.11,4.04.78,5.65.35.44-.11,1.14-.86,1.76,0l1.42-.35c.61.75,1.66.34,1.59-.71l-1.06.18-.36-.88-.88.35-1.94-1.94v-1.24l1.23,1.06c.23-.31.71-.59.89-.88.36-.62.21-1.26.35-1.77.09-.33,1.03-.82,1.06-.88.08-.19-.07-.63,0-.88l.53-.53c.89.89,1.77-.42.71-1.06l-2.83,1.06-.53-1.06c-1.45-.31-2.07.63-2.12,1.94l-1.06-.18,1.06,1.42h-1.76v1.06c-.58.07-1.11.02-1.42-.53-.09-.17.07-.47,0-.53l-1.06.35-.35-2.65,1.94-1.94,1.06.71,1.06-.71c.47.55,1.66.55,2.12,0l.71.35,1.59-1.59.88-1.59.18.71,1.23-.35.71.7.88-1.94c-1.29-1.45-2.22.31-3.35.88-.12,0-.22-.33-.36-.35-.9-.15-8.16-.18-8.82,0-.23.06-.5.74-.89.71v-.71c-.69.12-1.64-.81-1.41-1.59.06-.18.54-.3.35-.88.78.15,2.25-.07,2.47-.88.1-.36.1-3.47,0-3.89-.03-.13-.31-.21-.35-.35-.13-.46.32-.56.35-.71.27-1.18-.19-3.12,0-4.41-.98-.14-.93.76-1.41,1.24l.71,1.41c-.45.67-1.01.56-1.77.53l1.42,2.65-.71,1.76.71,1.24-1.06-.18v-.35l-.71-.18-.88,2.47c-1.03-.68-1.26-2.08-.53-3v-.35c-.89-.6-.74-1.3-.71-2.3-1.2-.17-1.51,1.08-2.82.71v-.71h-.71c-.21-.8.6-1.21,0-1.58l.71-1.77c-.75-.63.18-2.19-1.24-2.3l-.53,1.06c-.4-.04-.86.07-1.24,0-.13-.02-.23-.35-.35-.35s-.22.33-.35.35c-1.41.24-1.76-.45-1.59-1.76-.84-.16-1.44.59-2.3.35-.19-.05-.61-.71-.88-.88.57-.46.85-.81.71-1.59-.68-.24-.95.63-1.24.71-.3.08-.75-.08-1.06,0-.17.04-.57.61-1.23.35.2-.97-.44-1.32-1.06-1.94l.7-2.12c-.44-.49-1-.96-1.59-1.24-.7-.33-.47.78-.88.89l.71,3.7h-.71l.35.89c-.42.51.04.47-.35,1.41-.06.15.02.36,0,.53h.71c-.02.68-.55,1.11-.36,1.94.24,1.02.24,2.64.36,3.88.12,1.36-.09,2.86,0,4.24.73,1.05,2.09.56,2.82,1.41l-.35,1.24c-1.46.06-2.95-.09-4.42,0-1.46.09-3.17.52-4.94.35-.53-.05-1.34-.55-2.47-.35-.14.02-.32.55-.88.35.34-1.19-.6-1.47-.71-2.47.58-.19.7.3.88.35.92.27,1.29-1.05,2.3-.7.07-1.08.54-1.98.35-3.18h-1.59c-.9-1.3-1.21-2.08-3-1.77-.07.5.1,1.14,0,1.59-.05.25-.52,1.12-.71,1.77-.03.13-.93,1.01-1.06,1.41l.71,1.94-1.06-.17v-.53c-1.17-.11-1.81,2.1-3,1.76-.15-.04-.24-.35-.35-.35-.12,0-.22.33-.36.35-.37.07-.83-.04-1.23,0l-.53,1.41-.18-1.06c-.73-.07-1.59.11-2.29,0-.14,0-.22-.32-.36-.35-.79-.16-1.86-.09-2.47-.7l-1.77.7-.7-.7c-.63.75-2.74.38-3-.53-.07-.22.06-.5,0-.71-.05-.15-.33-.22-.36-.35-.14-.81-.13-4.12,0-4.95.03-.13.36-.23.36-.35s-.33-.22-.36-.35c-.16-.96.13-1.75.36-2.65.75-.03,1.31-.14,1.76.53-1.06.85.25,1.39.36,1.76.33,1.15.71,2.25,1.41,3.18.24.33.91.99,1.23,1.24.08.05.27-.06.36,0,.34.23,1.01.97,1.41,1.06.5.11,1.22-.08,1.77,0,.13.02.21.33.35.35,1,.18,1.61-.32,2.47-.35l1.59-1.59c.1-.93-.06-1.77-.71-2.47.32-.88.26-.51,0-1.06-.05-.11.05-.28,0-.36-.19-.3-.64-.57-.88-.88l-1.77.71-.52-1.06,1.05-.71c-.57.18-.79-.48-1.23-.35-.14.04-.22.32-.35.35-.35.08-.85-.05-1.24,0,.07-.62.02-1.06-.53-1.41-1.29-.83-5.17-3.94-6-5.3-.24-.38-.2-.64-.18-1.06l-.71.36c-.05-.51.09-1.12,0-1.59-.02-.14-.52-1.18-.7-1.41v-.36c.57-.34.26-.88.35-1.41.07-.39.32.1,0-.7-.06-.16.02-.37,0-.53h.71c-.05-.81.76-1.59,1.06-2.3.37-.9.64-.32,1.06-1.76.08-.31.96-.57.7-1.24.63-.05,1.33.08,1.94,0,.57-.07,1.4-.6,2.48-.35,1.14.25,1.68-.35,2.47.7l2.29.18-1.06-.71.36-.7c-.25-.89-2.5-.41-3.36-.53-.09-.02-1.1-.27-1.41-.36-.19-.05-.57-.61-1.24-.35l-1.06-2.12c-.96.1-.04,1.07,0,1.24.07.24-.03.6,0,.88h-.53l-1.41,1.41c-.9-.56-.36-1.53-.53-2.29-.02-.12-.76-1.24-.88-1.24l-1.06.71-1.77-1.06-1.23.71c-.17.16.41,2.21-.53,1.76-.49-.23-.99-.82-1.59-.71l.35-1.41c-1.03.54-1.97-1.62-2.65-1.41l-.88,1.06c.41-.06.65,0,.88.35.98,1.5.73,2.42-1.06,2.83-.29-.53-.69-.26-1.05-.36-.14-.03-.22-.32-.36-.35-.36-.07-.84.05-1.23,0v1.06l-2.12.18c.6.44-.04.9.88.88.66-.02,1.25-.23,1.77-.71l1.06.71c.41-.54,1.35-.54,1.76,0l1.41-.35c.74.52.93,1.16,1.24,1.94.06.15.32.22.35.35.15.65.12,4.22,0,4.94-.02.16-.32.91-.35,1.06-.17,1,.31,1.48.35,1.77.09.6-.05,1.31,0,1.94l-1.06-1.94.36-.35-.53-.53-.71.35c-1.47-.83-.58-2.24-.88-3.35-.04-.14-1.73-1.82-1.94-1.95-.08-.04-.25.05-.36,0-.15-.07-.23-.32-.35-.35-1.29-.29-3.03.61-3.89-.71h-.35c-.43.6-1.23.3-1.94.36.11.8-.16,1.92,0,2.65.19.83.25,2.44.35,3.53.09.96-.06,2.02,0,3,1.42.31,1.91-.72,2.83-1.59-.3-.65.34-1.31.35-1.41.12-.82-.08-1.81,0-2.65l-.35.7h-.71v-.7c-.67.13-.94-.46-1.41-.88l.35-1.24,1.24-.35,1.23.35-.7,1.41c1.13.35,2.33.29,3.18,1.24-.01.12-.33.22-.36.35-.66,4.01.97,8.99.36,12.71-.03.14-.36.24-.36.35,0,.07.63.6.36,1.24h-1.42l.36,1.59c-.74.78-2.16,1.4-2.83.35-.04-.07.05-.24,0-.35-.07-.15-.32-.23-.35-.35-.14-.6.13-1.52,0-2.12-.02-.09-.55-.86-.71-1.06.28-.27.26-.49.71-.35,1.09.32,1.57,1.6,2.29,1.94.41.19.72-.13.53-.53-.11-.24-.65-.52-.7-.71-.17-.61-.13-1.7-.36-2.47-.05-.18-.57-.46-.7-.71-.1-.16.06-.46,0-.53-.07-.06-.36.1-.53,0-.54-.29-.62-1.01-1.77-.7-.93.25-.35,2.58-.53,3.35-.03.14-.31.21-.35.36-.13.46.32.56.35.7.22.97-.18,2.5,0,3.53.02.1.6.51.36,1.06l1.23.88c.47-.65,1.39-.23,2.12-.35.49-.08,1.14-.24,1.77-.35.62-.11,1.45.08,2.11,0,.48-.22.45-.75.53-.88.27-.42,2.3-1.83,2.48-2.48.1-.38-.11-1.02,0-1.41.18-.65,1.44-1.08,2.12-.88-.2.56.33.74.35.88.11.65.07,2.12,0,2.83-.15,1.54-.66,3.46-1.06,4.94-.07.24.04.6,0,.88-.51-.05-1.11.08-1.59,0-1.98-.32-4.49-.14-6.36-.7-.56-.17-3.05,1.04-3.88,0l-1.24.53.36.88c-.97.21-1.32-.44-1.95-1.06l-.7.35-1.06-.7c-1.08.19-2.31.57-3.53.35-.13-.02-.21-.31-.36-.35-.21-.07-.48.06-.7,0-.6-.18-.58-1.2-.53-1.77.42.21,1.69-.97,1.76-1.24.07-.22-.06-.49,0-.7.05-.15.33-.23.36-.35.34-1.96.07-6.61,0-8.83-.11-3.03-.72-6.66-.36-9.53.09-.73-.06-1.56,0-2.3l-1.59-.71-1.76.36-1.24-.71-.35,2.65,1.24.88,1.41-.35,1.23,1.23c-.65.51,0,1.43-.88,1.95l-1.94-1.06c.19.48-.75,1.56-1.24,1.41-.35-.26-1.23-1.42-1.23-1.59,0-.18.22.12,0-.71-.17-.62-.34-1.56-.71-2.11-.14-.22-1.48-1.56-1.59-1.59-.86-.24-2.52.17-3.53,0-.14-.03-.32-.55-.88-.36.06.87-.09,1.8,0,2.65.28,2.81.04,5.44.35,8.48.08.74,1,2.59.35,3.17v8.12l2.48,1.24.35,1.41c-.57-.19-.75.33-.88.36-1.5.25-2.86-.61-3.89,1.05l-.53-1.05c-.69,0-1.11.54-1.94.35-.14-.03-.22-.33-.35-.35-.49-.08-1.08.05-1.59,0l-.71,1.23.35,1.24-1.06-.53v-1.94h-1.41c-.09.99,0,1.89.71,2.64l-.35.89h.88l.53.53-.71,1.76,1.06,1.24c-1.2-.33-1.55.96-2.29,1.41-.76.45-1.39.22-2.12.35-.14.03-.61.63-1.24.36-.2-1.91,1.03-1.17,1.94-1.42.17-.04,1.49-1.43,1.95-1.59l-.36-1.58-1.76.35-.53-1.06-.71.35-.88-1.59c.62-.79,1.08-1.03,2.12-.88-.09.9.58,1.19,1.41,1.06.14-1.08-.28-1.99-1.06-2.65v-1.41l1.41-1.59c-1.79.22-1.04-.67-.17-1.41l.88,1.23c.18.35.68-.26.7-.35.34-1.27-.24-3.82,0-5.29.24-1.42-.04-7.12-.35-8.48-.23-1.04.15-2.27,0-3.18-.2-1.22.09-1.8-.35-3.17-.07-.21.06-.49,0-.71-.08-.29-.95-.55-.71-1.24l-.7.18v.53h-1.06l.35,2.3c-.33.68-.96.4-1.24.52-.33.16-1.2.58-1.41.71-.53.34-.66,1.03-.88,1.59-.06.15-.33.22-.35.35-.39,1.73.03,3.77,2.11,3.36-.33,1.02,1.64,1.47,1.77,1.94v1.23c-1.1-.07-1.16.8-1.06,1.77h1.06c.26.25-.9,2.43-1.77,2.12.21-.98-.46-1.34-1.06-1.94l.36-1.24c-1.36.15-1.2-.29-1.41-1.23-.28-1.24-1.57-1.08-1.77-.36-.16.58.94.86.71,1.59h-1.42v-.71h-1.41l.35,1.42c-.96.15-1.28-.2-1.59-1.06l.18-1.06-1.06.88c.05.34-.07.76,0,1.06.21.9.14,2.34,0,3.18-.1.63-.13,4.46,0,4.94.13.47,1.22,1.11,1.77.88-.06.91,1.03,1.42,1.59,2.12.7.2.95-.33,1.06-.35.88-.16,2.07.11,3,0-.12,1.2-1.49,1.37-1.06,2.82l-1.41-1.41c.31,2.89-.84,1.72-2.3,2.12-.35.1-1.89,2.12-2.12,2.12-.24-.64-1.18-.65-1.23-.71-.07-.06.09-.36,0-.53-.42-.74-1.29-.3-1.77-1.06v-.88c.73.07,1.48-.68,1.41-1.41.82.07,1.33.83,1.77-.35-.74.07-1.59-.11-2.3,0-.14.02-.53.55-1.41.35-1.72-.4-2.21-.63-3.88-.35-1.26.2-2.61-.36-3.18-.36-.12,0-.22.33-.36.36-.37.06-.83-.05-1.23,0,.24.96-.32,1.04-.71,1.58-.05.08.06.27,0,.36-.48.76-1.29.3-1.76,1.06l.7,1.41c-.33.32-.75,1.45-1.23,1.59-.93.25-2.66-.19-2.65,1.41-.88.1-1.41.84-2.12-.18.68-.45.04-.47,0-.7-.06-.34.08-.77,0-1.06-.1-.35-1.58-1.34-1.94-1.24-.52.49-1.39.46-1.24,1.41.89-.18,1.23.3,1.77.89l-.36.88-1.76.35c.11-.62-.48-1.16-1.06-1.41.06.71-.24,1.51.35,1.94l-1.06,1.94h-1.06c.14.79-.12,1.12-.7,1.59v1.06l.7,1.06-.35.88h-.71c.36.79.05.97,0,1.24-.24,1.45-.09,4.39.36,5.65-.61.37.21.79,0,1.59l-1.95-.71c-1.11-.85-.64-1.07-.88-1.94-.02-.08-1.15-1.21-1.23-1.24-.22-.06-.49.07-.71,0-.6-.17-.58-1.19-.53-1.76-.77.13-1.36.52-2.3.35-.14-.02-.31-.54-.88-.35.03-.76.15-1.32-.53-1.77h-3.71l.71.71c-.12.7.65.82,0,1.24l.35,1.76c-.52.75-1.45.44-2.29.88l-1.77-1.06h-.88v.71h-.71c.14.78-.12,1.12-.7,1.59l.7,1.24-1.06.53.71.35c-.49.54-1.29.96-1.06,1.76.06.2.65.52.71.71.21.79-.15,1.86-.71,2.47.78,1.46.3,4.18.71,5.65.05.19.65.51.7.71.24.87-.23,1.09.89,1.94.19.15,1.2.55,1.41.7.38.29,1.17,1.35,1.41,1.42.22.06.5-.07.71,0,.14.04.22.33.35.35.38.07,1.38.07,1.77,0,.13-.02.21-.32.35-.35.47-.12,1.35-.21,1.76-.36.21-.07.31-.54.89-.35-.2-.53.35-.81.35-.88,0-.12-.31-.21-.35-.35-.13-.46.3-1.48.35-1.77.18-1.09.11-3.43-.88-4.06-.18-.11-1-.69-1.06-.71-.32-.09-1.06.08-1.24-.53-.12-.42.15-1.12.53-1.23.7-.2.96.33,1.06.35,1.52.27,2.96-.28,4.24,0,2.08.47,4.24-1.12,6,.35l.89-.35c-.23.69.52.85.7,1.24.3.63-.31.46-.53.53-.54.17-1.8.71-1.94,1.23-.21.77.07,2.54,0,3.53-.01.13-.35.23-.35.36-.1,1.33.06,2.72,0,4.06-.39.05-.89-.09-1.24,0-.67.15-1.66.48-2.47.7-.2.06-.51.66-.71.71-.72.2-1.53-.34-2.12.71-1.5-.27-2.43.06-4.23-.36-.18-.04-3.05.27-3.54.36-.13.02-.31.54-.88.35v2.12l1.59-.36c.18.46.84.32.88.36.07.06-.08.34,0,.53.2.46.22.57.36,1.06.11.4,1.34.85,1.06,1.58h1.06l-.36,1.59-1.41,1.06c.37.15.14.92,0,1.41-.02.07-.74.8-.88.89-.09.05-.26-.06-.36,0-.27.15-.3.51-.88.35-.16,1.28.05,1.87,1.06,2.65l-.35.7c.1.36,1.39.76,1.76,1.42.54.96.88.45,1.42,1.41.07.13.82.86.88.88.59.18,1.49-.65,2.29-.35.12,1.34-1.24.78-1.76,1.59l-.71,2.29c.57.2.73-.32.88-.35,1.29-.28,1.41.6,1.77.71.43.12.82-.16,1.24.53.15.26-.32.72.7.53l.71-1.42c.06.33-.2.92.18,1.06.43.16,1.02.47,1.41.71.4.25.86.82,1.41,1.06l2.3-1.77-.36,1.24,3.18,2.82-.35,1.41c.35.24.47.65.35,1.06-.04.15-.35.24-.35.36.69.64,1.53,1.79.7,2.47.75,1.07,1.88.25,1.06-.88h2.48l.7,1.58-.35,1.42,1.76,1.41-.7,1.06v.7l.7.71-.35,1.24c1.01.25.52-.61,1.24-1.06h2.65c.02.73.47,1.43,1.06,1.94l-.36.71c1.04.59,1.3,1.4,2.47,2.11l-.35.71,1.77,1.41c-.6,1.31,1.59,2.19,1.76,2.83.11.38-.1,1.02,0,1.41.16.56,1.99,1.41-.7,1.24v-.71l-1.06.53v.88h-.71l.53,1.06,1.94-.35c.1.46-.05,1.28-.53,1.41-.23.06-.53-.08-.7,0-.73.33-1.59.86-2.12,1.41l-1.59.36c-.29,1.21,1.18.58,1.94.7.13.02.21.32.35.35.32.08.77-.08,1.06,0,.06.02.87.83.89.89.3,1.11-.57,1.61-1.24,2.29l-1.77-.35-1.06-1.41c-.65-.18-1.07,1.35-2.11,1.06l-1.06-1.42-1.06.36c-.21.06-.72-.24-1.06-.36-.42-.14.41-.6.17-1.06l-.7,1.06c-1-.12-2.31.34-3-.35l-1.42.35c-.4-.39-1.31-.64-1.59-1.23-.34-.73.63-.43,1.06-.71.49-.3.37-.75.36-1.23l-1.24.35c-.87-.72-1.43-2-2.65-1.77v.71h-1.41c.08-1.57-1.34-3-2.82-3.18.19-.56-.33-.74-.36-.88-.09-.54.09-1.23,0-1.77-.02-.13-.33-.22-.35-.35-.08-.49.05-1.08,0-1.59-.65.01-1.92.16-2.12-.53-.06-.21.06-.49,0-.7-.24-.83-1.69-1.04-2.47-.89-.27-1.02,1.26-1.06,1.41-1.59v-1.23l1.24.35.53-.53.35-1.59c-.63-.16-.07,1.09-.88.71-.26-.12-1.18-.69-1.24-.88v-.89l-.88.36-.71-.36-1.76,1.77c-.76-.67-1.2-1.65-2.3-1.41l.35-1.77c-.86.3-1.94-1.31-2.29-1.41-.22-.06-.49.06-.71,0-.2-.06-.61-.71-.88-.88.45-.53,1.19-.86,1.06-1.59h1.06l-.18-.71h-.53v-1.06l-1.94.71-1.59-.71-.18.71c-.37-.33-.64-.81-.88-1.24-.05-.09.05-.27,0-.35-.35-.55-1.17-.55-1.41-1.06-.38-.78.43-.4.7-.35,1.83.35,1.36-.37,1.95-.53.37-.1.98.07,1.41,0,.14-.03.32-.55.88-.35v-1.06l-.88-.36c-.7-.2-.96.34-1.06.36-.87.15-2.3.1-2.83,0-.25-.06-.59.03-.88,0v.17l-1.06.53,1.06-1.59-1.76-.53-.36,1.24.36.35-.53.53-1.59-.35c.63.81,1.23,1.6.17,2.47-.64-.36-.4-.94-.7-1.41-.26-.42-.92-.81-1.24-1.24l.35-1.06c-.46-.42-.74-1.02-1.41-.88-.11-.65.39-1.17,1.06-1.06l-.17-.7h-.71l-1.24.88-.35,2.29h.53l.18.71-1.77.88c1.12.88,1.63,1.84.35,2.83l.71,1.23h-.71c.18-.67-.4-.8-.7-1.23-.06-.09.05-.28,0-.36-.28-.37-.76-.68-1.06-1.06l1.06-1.06c-.77-.4-.11-3.1-.36-3.35l-1.59.35-.88-.35c.19-1.3-.54-2.23-.35-3.53-.7.36-1.55.51-1.41,1.41l-1.95-.35-1.06,1.06-1.94-.35.36-1.06c-.71.1-1.39-.06-1.42-.89l1.77-1.41c-.51-.51-.81-1.05-1.59-.88-.3,0-.23-.7-.18-.88.14-.48.94-.63,1.42-.53l-.36-1.59,2.12-1.77-1.94-3.35h-.71c-.38.43-1.38.93-1.59.17-.1-.37.07-.97,0-1.41l.71-.88h-1.41v-1.41l-2.12-.71c.02-.73,1.01-.66,1.06-.71.06-.06-.08-.34,0-.53.09-.22.7-1.18.88-1.23h1.24v-1.06h-2.65l-1.41,1.06c-.67-.37-.41-.82-.53-1.24-.08-.28-1.17-1.02-1.42-1.41l.71-1.59c-.4-.04-.87.07-1.24,0-.72-.14-1.75-.47-2.47-.7-.54-.18-.98-.47-1.59-.36-.63-.61,2.82-2.51,2.47-3.7-.07-.26-.98-.81-1.05-1.06-.22-.76.61-1.36.7-1.77.14-.64-.09-1.59,0-2.29l-1.06-.53v-.36c.83-.59,1.11-1.55.18-2.29l-1.24.88.71,1.06c-1.04,1.46-1.1,3.45-3.36,3l-.53.53v1.59l-1.05.53.35,1.59-1.24-.36-1.23.89v1.41c-.33.18-1.47,1.2-1.59,1.24-.69.18-1.81-.17-2.47.7h-.71c-1.26-1.84-1.98.79-3.18-.35-2.53-.02-5.01.46-7.06,0-1.04-.23-2.97.62-4.59.35-.14-.02-.24-.35-.36-.35-.11,0-.2.31-.35.35-.9.26-1.11-.62-1.41-.7-.62-.17-1.24.22-1.77-.71l-1.76,1.41-.36-.35c-.84.74-.99,1.77-.88,2.82.67-.13.95.46,1.41.89v.35c-.85.91-2.02,1.65-2.12,3-1.02.27-1.05-1.27-1.58-1.41h-.36c-.18.45-.84.31-.88.35-.07.07.09.36,0,.53-.14.24-.66.53-.71.71-.17.61.18,3.17,0,3.35l-2.12.35c.13.78.53,1.37.36,2.3-.03.13-.69,1.28-.71,1.41-.27,1.49.44,1.9,1.41,2.83v2.11l-1.76,1.77c-.1.93.05,1.77.7,2.47v.71l-1.76,2.12.35.7-1.41,1.77,1.06.53v3.18l.88.35c.61-.7.93-1.06,1.59-.18l-.71,1.06v1.06l.71.71-.35,1.41c.41.54,1.36,1.83,0,1.59v-.71h-1.06l.35,1.24c-.4.17-.29.61-.35.7-.67,1.05-2.02-.1-1.77,1.24l1.06.18c-.18.85.53,1.18,1.06,1.76l-.53.53c-.35.18.26.68.35.71.34.09.85-.06,1.24,0v-1.42l1.41.89c.14,1.34-.31,3.03-1.94,2.65-.16-.04-.57-.62-1.23-.36.22.7-.23.94-.36,1.24-.08.19.06.46,0,.53-.04.04-.86-.02-1.06.53.4.5,1.13.08,1.42-.36.17-.35.68.26.7.36.23.85-.56,1.56-.35,2.47.04.18.62.6.35,1.23l-1.41-.88v-.88h-1.06l.35,2.82-1.59-.7c-.9.08-1.62.54-2.65.35-.31-2.05-2.2-1.59-2.11.35h-1.59l-.53-.53v-1.06l-1.77-1.41c-.12-.92-.31-1.9-1.06-2.47l.36-.71c-1.07-.85.24-1.39.35-1.76.18-.63-.06-1.34,1.06-1.24v-.7l.7-.36c-.65,0-1.92.16-2.11-.53-.07-.22.06-.49,0-.7-.11-.34-.55-.55-.36-1.41.09-.39,1.03-1.3,1.06-1.42.1-.37-.07-.97,0-1.41l-1.23-.53-.71.71c-.29-.44-1.87-.36-1.59-1.24.2-.62,1.22-.57,1.77-.53l.35-1.41,1.06-.53.35-3c-1.01-.33-.59.88-1.23,1.06-.58.16-1.56.08-1.95-.53l1.24-.88,1.76-.36.89-1.23-1.06-1.06,2.47-1.06-2.12-.18v-3.88l-3,1.41h-.35c-.26-.23-.85-1.05-.89-1.23-.08-.37-.39-2.69-.35-2.83.04-.15.35-.24.35-.35l-1.23-2.3h-1.41c-1.25-.9.05-1.15.17-1.59.13-.45-.08-1.23,0-1.76-.57-.67-1-1.1-1.94-.88-.16.03-.31.54-.88.35l-.36-1.77h1.06l-.35-1.76h.71v-1.41h-.89l-.53-.53.36-1.95-.89.36c-.47-.58-.8-.85-1.59-.71l-.7-.7-1.06.7.35,1.41h-1.41v1.77h-1.06v-.71H.35c.72.86.06.97,0,1.24-.42,1.89.54,3.33,0,5.29-.13.47.32.57.35.71.14.6-.15,1.57,0,2.12.04.12.94,1.01,1.06,1.41-.38.54-.76.61-1.41.53-.37.9.62,1.28.71,1.59.2.7-.34.96-.36,1.06-.28,1.59.3,3.27,0,4.59-.14.64.1,1.59,0,2.29l.89-.35c.76.51.5,1.27.53,2.12l-.71-.88c-.18-.35-.68.26-.71.35-.2.77.16,1.49.36,2.12l-.71.35,1.77.18-1.06,1.59.35.7-.71,1.24.71-.18c.32.79-.62,1.11-.71,1.41-.2.71.34.96.36,1.06.2,1.13-.15,2.69,0,3.89l1.06.17-.71.71.35,2.3-.7.7c.95.99-.21,2.18,0,3.36h.7c.09.89.05,1.4-.7,1.94v.35c.68.88.2,1.92.35,2.83.08.48-.05,1.08,0,1.58l.71-.35c.13.85-.17,1.5-1.06,1.41l.7,1.59c-.4,1.33.04,2.57-.7,3.89.77.54,1.06,1.45.35,2.11l.71,1.42c-.92.57-.88,2.48-.71,3.53.19,1.16.08,3.02.35,4.59.54,3.11-.45,8,0,11.65.04.26.54.78.36,1.77-.3,1.59-.17,3.1-.36,4.23-.43,2.59.5,4.7,0,7.42-.29,1.61.96,1.61.36,3.88-.28,1.04.14,2.26-.36,3.88-.3,1,1.74,3.97,0,4.95v.35c.81,1.44-.12,3.58,1.06,4.94.15.52-1,.86-.7,2.12.49,2.11-.54,3.95,0,6.36.4,1.82-.26,5.32,0,7.77.1.96.14,2.52.35,3.17.1.33-.18.77.35,1.06l-.7.71.7,1.41c-1.12,1.05.2,2.4-.7,3.53l.7,1.41c-1.1,2.51.08,5.53-.35,8.48-.09.62-.95,1.27.35,2.12-1.69,2,.09,4.73-.35,6.7-.32,1.43-.07,4.36.35,6.01-1.24.96-.7,3.27-.35,4.59.21.8-.02,1.23.35,2.47.21.66-.59,1.2-.35,1.94h.71c-.13.77-.53,1.36-.36,2.3.37,1.99-.09,1.56-.35,3.17-.08.49.05,1.08,0,1.59l1.41-.7.36,1.23-1.59-.17-.18,1.05c.58.14.69-.35,1.24-.35s.65.49,1.23.35c.4,1.36-1.83.42-2.12.71.11.86-.11,1.64-.7,2.3.24.67.5,1.27.35,2.11-.03.14-.55.32-.35.89.42-.1.9.18,1.06.53.31.68-.89.51-1.06,1.06-.21.7.33.95.35,1.05.21,1.21.16,3.69,0,4.59-.33,1.86.16,5.13.35,6.71.13,1-.08,2.16,0,3.18.58.67,1.29,1.21,2.12,1.24v1.41c-.92-.18-1.79.5-1.76,1.41l-.71.18c.73.73.18,2.15.35,3.18.03.13.36.23.36.35s-.33.22-.36.35c-.32,1.93.76,1.92,1.95,3l.17-1.41c.38-.11.98.24,1.06.53.17.62-.56,1.2-.35,2.12.03.13.29.2.35.35.08.19-.06.47,0,.53h.71v1.06l-1.42.71,1.06-.18-.17.88c.72.05,1.89-.27,2.29.53.44.89-1.41.27-1.59.89h-1.23l.7,1.58-1.06,1.42c.63.88.67.2.89.17.33-.04.71.03,1.06,0l1.06.71c1.2-.69.66-1.49.88-2.3.18-.67,2.44-1.54,1.77-3,1.01-.19.54.27.7.53.36.58.94.62,1.59.53.22-.03.26-.7.88.18l-.35,2.12-.35.35-1.06-.18c.21,1.66,1.92,2.01,1.76,0l1.24-.7.88.35c.07-.42,0-.63-.35-.88-.44-.31-.85.06-.71-.71.55-.89.88.03,1.59-.17.48-.14.62-.95.53-1.42-.81-.02-1.6.25-2.12-.53.74-1.08,1.55-2.55,3-2.29,1.24-.92-.28-1.08-.17-2.3.04-.49.26-.51.35-.88l-.88.35c-.97.28-1.34-2-.36-2.47l.71,1.06c.87.25.96-.45,1.41-.7.17-.1.47.06.53,0,.05-.05-.03-.84.53-1.06.71-.21.93.32,1.06.35.32.07.76-.08,1.06,0,.29.08.56.95,1.24.71l.7-1.06-.35,1.58.88,1.24-.17-1.24,1.23-1.23,2.65,1.23-.7.71,1.58,1.59,2.48.35,1.59,3.18-1.06-.71c-.19.58.48.8.35,1.24-.17.59-.13.95-.35,1.77-.07.23.03.59,0,.88.75-.03,1.31-.15,1.76.53l-.35,1.06c1.16,1.55-1.88,3.85-.71,5.29v.36c-.1.37-3.07,1.59-.35,1.59l.35,1.41-1.94.35-.53-.71c-.22.55.41,1.63.88,1.77.71.2.93-.32,1.06-.35.89-.21,3.59,1.03,4.24,1.76h2.65c.42.39-1.47,2.29-2.12,1.77v.7h.71v1.06l.7.71-2.82-.35v1.41c.36-.03.24-.32.7-.18.7.22,1.64.71,2.3.53.22-.06.5-.73.88-.7v.7c1.12.16,2.09-.43,3-1.06,1.75.36,3.18.08,5.3.36,2.88.36,6.47-.02,9.18-.36,3.14-.38,6.37-.09,9.18-.35,2.2-.21,4.66.15,6.89,0l.53-1.06c.23.15.54.66.71.71,1.37.38,6.64-.09,8.12-.36,1.23-.22,3.46-.25,4.94-.35,2.13-.15,4.39.11,6.54,0v-.71c1.06,1.04,3.8-.17,4.41,0,.15.05.24.36.35.36l1.42-1.06c1.08.47,2.7,1.27,3.53,0,2.9.89,6.24.78,9.18,0,2.94-.79,9.43.15,13.42-1.06.32-.1,5.54.35,6.35.35,3.14,0,6.91-1.25,9.89-.7,1.39.25,2.62-.72,4.24-.36.67.15,6.27-.46,7.06-.7.7-.22,4.05,1.3,4.95-.36,1.61.86,3.78.02,5.29.36,1.42.31,1.4-.67,3.18-.36,2.12.38,6.59-.61,8.83-.7,3.97-.18,8.65.22,12.01-.36,3-.51,7.31-.21,10.94-.35,6.21-.24,12.85-1.15,19.07-1.41,5.08-.21,11.4.09,15.89-.71,2.47-.44,5.96-.09,8.48-.35,7.51-.79,16.5-.2,23.31-1.41,1.56-.28,4.54-.45,6,0h.71l.7-.71c.12,0,.22.33.36.35.58.1,3.78.13,4.23,0,.19-.05.64-.58.53-.88,0-.37-.59-1.51-.88-1.59-.64-.17-1.18.26-1.77-.7-.87-1.44.61-2.07,1.95-1.77l.53-1.06h2.64l-1.05-.88c-.18-.65,1.31-1.12,1.05-1.94h-.7v-1.06h.7l-.7-1.94c.65-.4.2-1.21.35-1.77.08-.28,1.44-1.31,1.77-1.77.2-.29.15-1.09,1.06-.88.33-1.02-1.64-1.47-1.77-1.94l1.06-1.41c-.53-.29-.25-.71-.35-1.06-.12-.4-1.34-.85-1.06-1.59l-1.41-.35.35-2.12-2.12-.35-.35-1.77,1.41.35v-2.12c-.78-.14-1.13.14-1.59.71l-2.12-2.47-.35.35c-.54-.36-.68-.95-.53-1.59.03-.13.32-.21.35-.35.08-.31-.08-.76,0-1.06.09-.3.97-.57.71-1.23h1.76c.19-.98-.23-.55-.7-.89-.48-.34-.37-.72-.36-1.23l2.83.7c-.01-.5.11-.94-.18-1.41-.84-1.39-1.15-2.2-1.59-3.71-.03-.12-.97-1.02-1.06-1.41-.14-.65-.19-1.11-.35-1.76-.54-2.16-.66-4.51-1.06-6.71-.21-1.17.6-2.08.35-3.18-.22-.99.06-3.94.36-5.3.03-.13.66-.9.7-1.06.33-1.19.36-2.64.71-3.88.07-.25.99-.81,1.06-1.06,1.46-5.1,9.8-11.65,14.66-13.95,1.51-.71,3.49-1.23,5.29-1.76,1.06-.31,2.45-.88,3.53-1.06,2.8-.47,5.55-.23,8.48-.35.12,0,.23-.35.35-.36,3.93-.16,7.96.19,11.66.71.49.07,1.52.22,2.11.35.14.03.91.67,1.06.71,1.4.38,2.81.66,4.24,1.06.18.05.47.57.71.7,2.58,1.39,4.93,2.4,7.06,4.24,1.49,1.29,2.98,3.18,4.24,3.89.98.54,1.33,2.09,1.59,3,.08.3,1.32,1.1,1.41,1.41.33,1.14.7,2.31,1.06,3.53.07.26.99.81,1.06,1.06.19.69.09,1.9.35,2.82.14.48,1.69,1.14,1.41,1.95l3.54.7v-.7c1.18-.05,1.49,1.77,2.82,1.41.08.65.02,1.02-.53,1.41l.18,1.06c1.37.28.82-.39,1.59-1.06,1.06.39,1.77.93,3,.71l.35,1.23c-.28.28-.26.48-.7.35-.28-.07-.9-.47-1.06,0l2.11,2.83.18,1.94c.55-.01,1.01.26.88-.53-.08-.53-.35-.66-.35-.7,0-.12.32-.21.35-.36.25-.93.66-1.22.71-1.41.11-.42-.19-1.38.53-1.59.22-.06.49.06.71,0,.12-.03,1.01-.93,1.41-1.06.66.58,1.2,1.28,1.23,2.12h4.6c.09.46-.17.84-.53,1.06-.22.13-.65-.26-.53.35l.88.36.18.53c-.23.43-1.72,1.95-1.77,2.11-.1.36.19.72-.35,1.06l-1.06.18,1.59,1.41,1.23-.35.36-2.12h1.41l.7-1.24-.35-.88,1.77.71v-1.41c.92.84,2.35,1.27,2.47-.36-.68.25-.94-.62-1.24-.7-1.76-.5-3.5-1.51-5.29-2.47-.98-.53-2.06-.78-2.83-1.77l-.71.35c-.47-.2-.45-.78-.53-.88-.75-1.07-1.99-1.61-2.47-2.47-.8-1.44-2.54-2.11-3.53-4.24-.21-.46-.69-.99-.7-1.06-.18-.62.22-1.23-.71-1.76-.47-3.59-.31-6.1.71-9.54.09-.33,1.75-2.66,2.11-3.17,2.33-3.32,5.45-5.32,9.01-6.89,4.91-1.38,10.33-1.76,15.54-.7,2.04.41,4.34,1.59,6.35,2.11.42.11,1,.35,1.06.36.63.11,1.45-.08,2.12,0,.53-.45.86-1.19,1.59-1.06.01-1.69.99-2.82,2.83-2.47-.28.61.33,1.12.35,1.23.73,4.94.17,11.38,1.41,15.89.13.47-.32.56-.35.71-.12.54.08,1.34,0,1.94l-1.59-.35-1.24-1.24c-.97-4.18-3.86-8.01-7.24-10.42-.93-.67-2.39-1.64-3.53-2.11-.24-.11-1.67-.69-1.76-.71-.51-.11-1.23.09-1.77,0-.2-.03-1.57-.68-1.76-.71-.9-.13-2.95-.09-3.89,0-.13.02-.22.34-.35.36-.55.08-1.23-.09-1.77,0-.13.02-.21.32-.35.35-.32.07-.77-.08-1.06,0-.92.25-2.98,1.78-3,2.82l-1.41.36c.2.54-.64,1.26-.71,1.59-.16.74-.12,2.65.35,3.17l-.35.71c.45.29.52,1.13.71,1.41.38.59,1.45,1.22,1.76,1.77.09.16-.06.46,0,.53.11.1,2.21.78,2.65,1.06.65.41.48,1.01.53,1.06.26.25,2.58.89,3.18.7v.71c1.31.51,2.75.92,4.06,1.41,1.63.62,2.99,1.32,4.59,1.77.19.05.51.64.71.7,2.53.75,4.72,1.86,7.06,3.18.52.3,2.53,1.7,2.82,1.76.46.1,1.09-.06,1.59,0v1.06c.07.07.37-.09.53,0,1.84,1.03,4.59,5.02,5.12,6.89.12.4,1.34.85,1.06,1.59l2.12.35-.35,1.06-1.77-.18,1.41.53c-.1.68.39,1.16,1.06,1.06l.36,3.36c.49.3,1.59,1.84,1.94,1.94.42.12.87-.14,1.24.53v.35c-.66.4-.2,1.2-.36,1.77-.05.19-.65.51-.7.7-.21.71.32.93.35,1.06.17.75-.25,1.66,1.06,1.59l-1.94,1.77-1.24,1.06c.86.11,1.7-.15,2.3-.71.28.45,1.13.52,1.41.71.39.26,1.61,1.76,1.76,1.76.91-.61,1.04-2.15,2.3-2.12-.24.75.97,1.64,1.06,1.94.27.93-.81,1.05-.71,1.95l2.65-.71.53.53.35,1.76.89,1.24,1.76-1.76,1.06.7c1.14-1.13,2.19,1.01,3.18,1.77.46.35.6.45,1.24.35l-.18-1.06c-.79.17-1.08-.38-1.59-.88.8-1.21,1.86-.87,3.18-.88v-1.06c-.26-.27-3.27.42-3.71-.36l-1.06.36c-.75-.92-1.96-1.73-2.65-2.65-.09-.12-1.03-1.66-1.06-1.77-.12-.59.09-1.46,0-2.12-.01-.13-.33-.22-.35-.35-.11-.74.29-1.65-.35-2.12v-.35c.97-1.11,2.07-2.78,3.35-3.71.1-.07,1-.68,1.06-.7.67-.2,1.65-.2,2.12-.71,2.11-.29,3.75.52,5.65.71,2.27,1.72,4.38,3.66,4.06,6.7,1.1-.07,1.16.8,1.06,1.77l-1.06.35,1.06.53-.35.53h.7v.71l2.12-.35-1.41,1.58v1.24c-.27-.02-.57.17-.71-.18-.29-.77-.67-1.05-1.23-1.59-.57-.02-1.75-.13-1.94.53-.21.73,1.01,1.76,1.41,2.48.65,1.17.93.75,1.06.88.04.04-.04.84.53,1.06.7.2.95-.34,1.06-.36.84-.15,1.5.31,2.12-.7h.35c.3.41,1.01.38,1.23.88.38.83-1.13.17-.7,1.24h1.06c.1.97-.78,1.25-1.59,1.06-.17-.04-.57-.62-1.24-.36v-.7l-1.59,1.06-.88-.36v-1.41l-1.94-.71-.53,1.06c-.9.23-1.09-.35-1.77-.7-.31.39.71,2.22,1.06,2.65l-.7,1.05.7,1.06c-1.03.89.35,1.3.36,2.3.95.11,1.27-.81,1.06-1.59-.08-.29-.95-.55-.71-1.24.71.04,1.76-1.39,2.12-.17.2.69-.34.95-.36,1.06-.11.68.09,1.57,0,2.29l1.42-.35v.71c.57-.2.74.32.88.35,1.07.19,1.7-.39,2.65-.35l.7-1.77,3.18,1.06c-.22-1.04.6-1.43,1.24-2.12.54.94,2,.99,1.94,2.12h-2.82c.02.85-.24,1.61.53,2.12l.35-.36c.6.56,1.06.89.88,1.77h1.59l1.24-1.06-.36,1.41h.71c.14.49.22,1.13.35,1.59.06.2.71.61.89.88,1.62-1.22.84-2.21-.89-2.47l.71-1.41.71.18v1.23c1.84.18,4.01-.53,5.47.71.84-.81,1.9-.76,3-.71v.71l1.77-.71c.06.31-.65.55-.18.71.72.25,1.3.5,2.12.35.13-.02.22-.33.35-.35.55-.08,1.2.05,1.77,0l.53-.53-.36-1.06,1.42-.88.35,2.47,1.77.35v-.7h1.06v-1.77c-.49-.07-1.18.11-1.59,0-.31-.08-.57-.97-1.24-.71v-.88l.53-.53h1.77l1.41,2.12c.88.15.83-1,.88-1.06.06-.06.34.08.53,0,.15-.06.22-.31.35-.35.28-.08.73.06,1.06,0,.14-.02.24-.35.36-.35.07,0,.34.54.88.35l.35-1.77-.88-.35c-.38.24-1.14,1.34-1.41,1.41-.5.14-1.37-.09-1.95,0-.24-1.02.61-.52,1.06-1.23.06-.1.16-.64.36-.89-.76.03-1.32.15-1.77-.53l-.35-1.94,1.23.36,1.06-.36c.75.71,1.66.8,2.65.71l-.35-1.24,1.06-1.06-1.06-.7c.68-.75,1.87-1.76,2.65-.89l.7-.35,1.24.71-.71-3.18h.71l-.35-2.47c.29-.32,1.7,1.01,1.76,1.23.15.51-.42,1.4.53,1.24l.18-2.47h1.23l.53.88-.35.35.35.89h-.53l-.52.88c.45.69,1.04.55,1.76.53v-1.06h1.41l-.7,1.77,1.06-.18v-.35l.7-.18v1.41l1.06.53c-.76.45-.55.89-.7,1.41-.1.34-1.41,1.3-1.06,2.12-.73.82-1.71.99-2.83.88.14.79-.12,1.12-.7,1.59v.36c.44.6.42,1.27,1.05,1.94-.61-.14-1.19.56-1.58.7-.21.08-.5-.07-.71,0-.3.1-.68.61-1.41.36l-.53.53v1.59l.7-.71c1.2.26,2.37-.62,2.48-1.77h1.05l.36,1.77c1.15.27,1.82-.61,2.82-.71l.36-.88c-.67-.97-1.03-.75-1.95-.88-1.08-.15-1.22-1.13-.35-1.77l2.83,1.06.7-.7h1.06l1.41,1.06,1.06-.71c.4.57,1.1.31,1.77.35l.53-1.06-2.47.36.35-1.42-1.24.36-1.41-1.77-1.59.71-.7-1.59c.75-.86,2.06-1.79,3-.88l.88-.89-1.41-.7c.78-.67.28-1.68-.71-1.59v-.71c1.16-.23,1.88-.99,3.18-.7v.7l1.41-.35-.7,1.23c.22.57,1.01.49,1.06.53.06.07-.1.37,0,.53.57,1.02,1.89.39,2.82.18.23-1.17-.6-.54-1.24-.71-.16-.04-.3-.54-.88-.35l.18-.7h.53l.35-2.12,1.41.35.36,2.47h.7c-.06,1.16-1.63,1.92-1.41,3.18l-1.24-.35-.88,1.58c.67.9,1,.51,1.59-.17l.88.88-.17.88.53-1.41h1.41v.71l2.12-.36c-.34.66-.93.87-.71,1.77l1.24-.35c.3-.11.82.34.88.53.27.92-.87,1.2-.71,1.76l1.06.53.71.71c.3-1.08-.56-2.12-.35-3ZM254.43,113.76c.72.1,1.52.12,1.95-.53l-.36-1.24h-1.06l.36-1.76c.94-.18,1.8.52,1.76,1.41h1.06l-.35,1.59.7,1.06c-.58.81-1.89.28-1.76,1.59-.74.28-1.2-.96-1.59-1.06-.72-.2-1.32.17-1.94-.89.68-1.02,1-.21,1.23-.17ZM251.78,119.41l-.17,3.17c-.71-.66-1.42-1.3-1.59-2.29l1.76-.88ZM238.19,94.69c-.5-.41-.83-1.18-1.59-1.06v-.7h.71c-.18-.89.28-1.22.88-1.77l.88.35v.71l1.06.18-1.94,2.29ZM230.95,108.81l1.06.18v.53h.71v-.71l1.41.36v-1.06h1.06l.7,2.12c.73-.03,1.32-.15,1.77.53-.54.3-.26.72-.35,1.06-.18.6-1.19.57-1.77.52l.35-1.41h-2.47l.18,1.06.53.35-1.94.36-1.59-2.3.35-1.59ZM7.41,158.77c-.17.65-1.27.37-1.59.89-.84-.75-.99-1.77-.88-2.83,1.23-.34,1.54.66,2.47.71-.05.38.09.91,0,1.23ZM12.71,357.73c.06-.07-.04-.82.53-1.05l1.24.35c-.2,1.42-1.5,2.01-2.83,1.76-.28-1.03,1.02-1,1.06-1.06ZM15.54,366.74l-2.3,1.59c-.53-.15-.56-1.69-1.59-1.42l.53-.7h1.06l.53-.53-.35-.35c.3-1.43,1.42-.97,2.12,0l-.36.7.36.71ZM19.42,358.09h-1.06l.88,1.06c.35.17-.26.68-.35.7-1.41.38-1.54-1.08-2.65-1.06.14-.78-.12-1.11-.7-1.59,0-.11.31-.2.35-.35.19-.66-.25-1-.71-1.41.38-.4,1.33-.25,1.59.18l1.24-.71-.36,1.77c.58.19.71-.31.89-.36.45-.12.65.54,1.23.36l-.35,1.41ZM21.72,237.69c-1.13-.16-1.41.29-2.12,1.06l-.53-1.06-1.77-.36-.35-.88.7-.7-1.41-1.59,1.59-.36c.97-1.14,1.75.26,2.12.36.84.23,1.44-.5,2.3-.36l-.71,1.59.71,1.94.7.71c-.55.09-.69-.27-1.23-.35ZM30.01,343.79c-.67.51.05,1.65-1.05,1.94l-.36-.53-.35.88c-.13.13-2.11-.09-2.65,0-.14.03-.32.55-.88.36l-.36,1.23c.68.58,1.08.92.18,1.59l-.53-1.76c-.93.31-1.43-1.35-.88-1.42l1.06.36,3-2.65c.02-.63-.22-2.06.53-2.3.7-.22.89,1.09,1.41,1.42.14.08.67.05.88.52v.36ZM27.19,331.78c1.11.63-.34,3.68-1.06,3,.77-.94-.03-1.36,0-2.29.9-.6.04-1.49,0-1.77-.06-.41-.09-1.77,0-2.11.25-.95,2.26-.54,1.59.53-.66,1.03-.15,1.36-.53,2.64ZM28.6,336.37l.71-1.94c1.17.37,1.84,1.2,1.76,2.47-.89-.07-1.89.32-2.47-.53ZM30.37,204.67l.35,1.59c-.58.09-1.08-.13-1.59-.35-.24-.1-.76-.13-.88-.53-.06-.18-.13-.88.18-.88l1.23.35v-1.06l-2.12-.17,1.59-.89-.35-.7-1.06.7c-.5-.44-1.21-.8-1.94-.7l.7,1.23-1.06.53v1.94l-2.64,2.65-1.24-.35c-.21-1.11-.99-1.87-.71-3.18-.98-.1-2.31-1.4-2.12-2.47-.58.19-.66-.27-.88-.35-.49-.19-1.09.42-.88-.71.48-.07,1.17.11,1.59,0,.11-.03,1.56-1.48,1.59-1.59.23-.85-.31-1.78,1.41-1.59.24,1.37-1.27,1.96-1.06,3.18l1.06,1.06-1.59-.35c-.65.08.19,1.54.71,1.76l.7-.35,1.42.35.52-.53-.35-.7c.58-.48.85-.81.71-1.59l-.71-.36,1.59-.35c.5.66.81.33,1.24-.18l-1.42-1.05.71-1.59h2.12v1.76c.58-.18.66.26.88.36.48.19,1.12.01,1.59.88.07.23-.08.53,0,.7.65,1.29,2.46,2.12.71,3.53ZM35.13,381.74c-.38.06-.83-.03-1.23,0l.18-1.76c1.49-.38,2.81,1.51,1.05,1.76ZM49.79,380.33v-1.59l-.71-.7.89-.89c1.27,1.04,1.98,2.79-.18,3.18ZM78.39,158.77l.36-.7-.36-1.06c.54-.59.88-1.07,1.77-.88v1.76h.71v.53l-.89,1.59-1.59-1.24ZM310.94,149.07l.88,1.76-1.41-.18c-.26-.37-1.82.16-1.42-.7.2-.42,1.47-1.02,1.95-.88ZM307.76,145.53c3.13-.13,2.15,1.91-.53,1.42l.53-1.42ZM288.51,137.06c-.18.92-1.09.48-1.59,1.06l-.88-1.24v-.7l1.06-.89.35,1.24,1.06.53ZM287.63,128.59c.97.42.47,2.22-.53,1.59-.47-.43-.74-1.02-1.41-.89-.26-1.97.75-.47,1.94-.7ZM285.86,139.18c.13.03.2.28.36.35.44.21,1.02.19.88,1.06-.74-.23-1.3.54-1.94.35-.18-.05-.98-.86-.89-1.23.38-.56.99-.67,1.59-.53ZM202.52,82.33l-.88-1.23c.9-.6.04-1.49,0-1.77-.12-.81.08-1.8,0-2.65l2.29-1.06c.71.6,1.06.96.89,1.95-.03.13-.36.23-.36.35,0,.11.32.21.36.35.22.76-.62,1.36-.71,1.77-.19.9.3,1.58-.88,2.29h-.71ZM145.49,103.52l-1.06,1.59c.9.61,1.12,1.71-.18,1.94-.17-.06-.85-1.12-.88-1.24-.12-.57.29-1.32-.35-1.76.58-.85,1.58-.46,2.47-.53ZM137.02,106.52l-.36-.71,2.12-1.41v-1.24c.89.26.73,1.04.71,1.77h-.71l-.71,1.24.71,1.58c.76-.02,1.32-.14,1.77.53l-.71.71.35.71c-.51.56-1.29.97-2.12.88l.36-2.83h-2.12l.71-1.23ZM97.29,175.55l.53,1.41-1.59-.35-1.06.35-.88-1.41h3ZM148.32,316.78c-1.25.2-2.13-.19-2.83-1.24-.77-1.16-1.01-3.26-1.77-4.59-.82-1.44-3.55-4.08-5.12-4.76-.19-.09-.5.08-.7,0-.21-.09-.9-.67-1.06-.71-.3-.08-.74.07-1.06,0-.14-.03-.22-.34-.35-.35-1.74-.26-5.92-.15-7.77,0-.13,0-.23.33-.36.35-1.06.11-2.34-.39-3,.53l.36.7v29.66c.06,1.31.24,3.13.35,4.59.34,4.58-.03,9.1.35,13.77.08.96-.18,2.36,0,3.18.03.13.28.2.35.35.05.11-.04.28,0,.36.13.21,1.01,1.08,1.24,1.23.09.06,1.25.65,1.41.71.2.07.48-.07.71,0,.14.04.22.33.35.35,1.47.26,2.93-.02,4.59.36,1.48.33.65,1.58,0,1.76-1.13.31-4.48-.07-6,0-2.07.09-4.99.55-7.06.71-3.46.25-6.43.03-9.89.35-2.34.22-5.92.68-8.12.35-1.43-.21-2.52.25-3.53.36-1.7.18-3.4.31-3.01-1.77.57.2.75-.33.89-.35,1.14-.2,2.79-.12,3.88-.36.13-.02.91-.66,1.06-.7.3-.08.76.08,1.06,0,.2-.06.74-.84,1.06-1.06.07-.05.26.06.35,0,.52-.33.46-.77.53-.88.17-.24.66-.55.71-.71.06-.22-.07-.5,0-.71.05-.14.33-.22.35-.35.17-.93-.14-2.21,0-3.18.32-2.16-.31-4.88,0-7.41.31-2.46-.09-6.05,0-8.48v-32.13l-.53-.52c-2.03.25-4.79-.35-6.71,0-.12.02-1.29.68-1.41.7-.73.13-1.77-.15-2.47,0-.29.06-1.36.87-1.77,1.06-.19.09-.5-.09-.7,0-.73.32-5,3.97-5.48,4.77-.23.39-.25,1.17-.35,1.41-.18.41-1.04,1.33-1.06,1.41-.19.71.06,1.09-.35,2.12-.44,1.1-.84,2.28-2.3,1.94-.16-.04-.57-.61-1.23-.35-.06-.39.08-.89,0-1.24-.04-.14-.49-.24-.36-.7,1.05-3.79-.33-7.44,0-10.95.01-.13.35-.23.36-.35.09-1.22-.07-2.49,0-3.71.56-.19.74.33.88.35.88.16,2.9.07,3.88,0,8.33-.57,17.22-.19,25.43-1.05,4.7-.5,10.71.5,15.54-.36,2.14-.38,4.76-.16,7.41-.35,1.46-.11,2.82-.67,4.24-.35,2.1.47,5.01-.79,7.42-.36.13.03.2.31.35.36.39.12.87-.14,1.24.53.14,3.25-.21,6.65,0,9.88,0,.13.34.23.35.35.11,1.54-.15,2.62-.35,3.89-.08.49.05,1.08,0,1.59ZM100.64,336.2h2.47c.2,1.56-.84,1.49-2.11,1.41l-.36-1.41ZM147.96,198.14c-.38.91.86,1.41.71,1.94-.18.65-1.57.41-1.77,1.06-.18.63.45,1.15.36,1.24-2.18-.12.13-3.54-2.48-3.18l-.35-1.94.35-.88,2.12.35v.88l1.06.53ZM148.85,143.77h-9.89c-1.43-.31-3.82.33-5.3,0-1.42-.32-3.88.32-5.3,0-.12-.03-.2-.28-.35-.35-.11-.06-.28.04-.35,0-1.31-.83.02-2.4,1.23-2.12-.18-.58.28-.68.36-.89.25-.69.47-2.02.35-2.82-.14-.93-.82-7.38-.71-7.77.42-1.37.34-4.75,0-6-.26-.97-.53-2.8-.35-3.88.18-1.07-.04-1.67-.88-2.3l-1.06.35c-.23-.35-1.16-.97-1.24-1.23-.44-1.48,1.26-1.11,1.94-1.24.11-.02.37-.56,1.06-.35,2.21.67,5.39.35,7.77.71,1.63.24,4.84-1.03,6.01-.71.19.05.51.65.7.71.96.26,1.74-.31,2.12-.36.61-.08,1.32.06,1.94,0-.26.67.63.93.71,1.24.16.59-.08,1.73,0,2.47.01.13.34.23.35.35.09,1.03.08,2.51,0,3.53-.04.59.06.85-.53,1.24-.35.11-1.54-1.05-1.59-1.24-.22-.81-.09-1.27-.7-2.11-.57-.79-1.29-1.15-1.95-1.59-.24-.17-.54-.66-.7-.71-.35-.1-.77.18-1.06-.35h-.71c-.14.04-.22.33-.35.35-.65.12-3.56-.15-3.71,0,.27.64-.34,1.13-.35,1.24-.31,2.11.23,4.86,0,7.06.62.79,1.08,1.03,2.12.88-.26-.67.61-.93.7-1.24.31-1.07.88-1.61.71-2.82.53-.33.22-1.38.88-1.59.54-.16,1.49,1.28,1.95,1.59-.06.57.08,1.22,0,1.77-.02.13-.33.21-.36.35-.2.88.33,1.27.36,1.41.38,2.64-.29,6.09,0,8.83l-.71.35-1.41-1.76c0-.64-.16-1.58-.36-2.12-.07-.21-.54-.3-.35-.89-1.19.13-1.91-.99-3.18-.7-.26.66.46,1.22.36,1.59-.62,2.18-.19,2.68,0,4.59.07.82-.18,2.17,0,2.82.02.09,1.15,1.21,1.23,1.24.24.06,1.13.05,1.41,0,.14-.03.23-.34.36-.36,1.28-.15,2.52.05,3.7-.35v-.71c1.1.34,1.31-.7,1.95-1.05.16-.1.46.06.53,0,.06-.07-.1-.37,0-.53.22-.41,1.33-1.13,1.41-1.42.13-.49-.02-1.18.35-1.76.29-.46,1.19-.86,1.77-.88.23,1.99-.32,4.62,0,6.53.02.13.35.23.35.35-1.19.7-.25,1.93-1.23,2.65ZM153.26,143.77l-.35-2.12c.7.16,1.4-.27,1.76-.88.05-.08-.05-.25,0-.36.07-.15.33-.22.36-.35.24-1.11.06-4.63,0-6,0-.12-.35-.23-.36-.35-.17-4.35.13-8.72,0-13.07-.59-.46-.55-1.24-.7-1.76-.03-.09-1.16-1.21-1.24-1.24-.4-.11-1.01-.11-1.41-.35-.3-.18-1.19-1.15-.89-1.41l3.71-.36c1.45,1.09,3.88-.23,5.3,0,.23.04.25.68.71,0l1.05,1.41,1.06-.35,1.42.35c.14-.04.22-.32.35-.35,1.08-.19,2.57.14,3.71,0l-1.24,1.06c-.43-.1-1.11.63-1.41.71-.73.2-1.32-.17-1.94.88l1.06.53-.36.53c.18.25.58.47.71.71,1.04,1.84,3.09,4.85,4.77,6.17.17.14.98.33,1.23.89l-.35.7c.47.43.74,1.02,1.41.89-.18.88.28,1.21.89,1.76.35-.13.17-.87.17-1.23.02-1.47.23-4.01,0-5.3-.14-.8-.19-1.4-.35-2.12-.18-.78.2-2.11,0-2.82-.05-.18-.57-.47-.71-.71-.09-.17.07-.46,0-.53-.06-.07-.36.09-.53,0-.59-.33-1.31-1.5-1.94-1.94l1.59-1.24c.6.91,1.35-.11,1.77,0,.71.2,2.45.88,3.17.71.14-.03.36-.56,1.06-.35l1.59,1.58-1.59,1.95-.88-.36c.19.57-.33.75-.35.89-.39,2.23-.21,9.51,0,12,.13,1.58.13,1.6,0,3.18-.14,1.68.2,3.73,0,4.94-.15.91.41,3.78-.53,4.06-.19.06-.89.13-.89-.17.21-1.01-.87-1.41-1.41-2.12-3.86-5.14-8.26-10.31-12.36-15.54-.68-.86-1.24-1.7-2.12-2.47-.18-.37-.7.31-.7.35v14.48c.01.13.33.22.35.35.08.54-.12,1.32,0,1.77.24.86,2.61,1.39,2.47,2.65-.51.05-1.1-.08-1.59,0s-1.14.24-1.76.35c-1.08.19-2.57-.14-3.71,0ZM193.69,360.21c-1.72.29-4.44-.09-6.35,0-6.65.28-13.77.56-20.48,1.06-.13,0-.23.34-.36.35-1.64.1-6.41.29-7.77,0-.11-.03-1.18-.72-1.23-.88-.51-1.7,2.07-1.13,3-1.24.13-.02.22-.33.35-.35.98-.15,1.82-.07,2.83-.36.16-.04.46-.54.7-.7.09-.06.28.05.36,0,.2-.15,1.21-1.15,1.23-1.24.06-.22-.06-.49,0-.7.06-.2.66-.52.71-.71.18-.65-.08-2,0-2.83.14-1.53.46-3.13.35-4.94-.53-9.07-.51-19.16-.7-28.24-.1-4.26.24-8.69-.36-12.72-.08-.53.13-1.31,0-1.76-.04-.16-2.14-2.25-2.29-2.3-.22-.06-.5.07-.71,0-.15-.04-.22-.33-.35-.35-.53-.09-1.22.08-1.77,0-.13-.02-.22-.34-.35-.35-.89-.09-2,.14-2.83,0-.12-.02-.2-.29-.35-.35-.19-.08-.46.06-.53,0-.03-.04.1-.71-.35-.89l.53-.88c.3-.09.91.56,1.76.35,4.45-1.06,10.96-.56,15.89-.7,2.86-.09,6.68-.62,9.54-.71,1.88-.06,6.58-.33,8.12,0,.11.02,1.19.72,1.24.88.35,1.19-.7,1.08-1.24,1.24-.49.15-.44.54-1.41,0-.8.84-2.23.5-3.18.71-.13.02-.2.29-.35.35-.96.38-1.65.7-2.3,1.59-.05.07.06.27,0,.35-.16.24-.66.54-.7.71-.17.58.07,1.73,0,2.47-.07.59-.5,1.3-.36,2.47.49,3.92.63,9.11.71,13.06.12,5.87-.66,12.85.35,18.36.18,1-.21,1.74,0,3.18.42,2.86-.42,6.68,0,9.53.02.11.65.76.35,1.42.67.5,1.29,1.51,1.95,1.94.07.05,1.33.69,1.41.7.76.17,1.96-.09,2.82,0,.13.02.23.34.36.36,1.33.2,2.72-.35,2.65,1.76-.57-.19-.75.33-.89.36ZM185.22,245.46l-.88-1.59c.08-.72-.32-2.75.53-3,1.71.56,1.49,1.67.17,2.64v.36c.68.58,1.08.91.18,1.59ZM198.28,144.12c-2.42-.23-6.99-.92-9.53-.35-.9.2-3.02.14-3.88,0-.83-.14-3.45.39-3.71-.53-.24-.81,1.06-2.04,1.76-1.94-.11-4.64.15-9.31,0-13.95,0-.12-.35-.23-.35-.35-.08-2.18.34-5.47,0-7.42-.02-.14-.55-.31-.35-.88l-1.95-.35c-.49-.44-.95-1-1.23-1.59-.33-.7.78-.48.88-.88.81.05,1.69-.09,2.47,0,2.11.22,4.2-.22,5.65,0,2.65.39,5.64.04,8.48.35,1.11.12,2.27.04,3.18-.35.17.39.61.29.7.35.22.13.86,1.1.89,1.23.29,1.35-.26,3.53,0,4.95,0,.1.55.36.35,1.06-.52.33-.23,1.39-.88,1.59-.36.1-1.07-.61-1.24-.89-.4-.67-.48-1.99-.71-2.82-.48-.3-1.6-1.85-1.94-1.94-.52-.15-1.48.08-2.12,0-.13-.02-.22-.35-.35-.36-.92-.08-2.65-.12-3.53,0-1.22.17-.99,1.98-.88,3,.06.6.49,1.31.35,2.48-.02.13-.34.22-.35.35-.07.61-.1,1.91,0,2.47.02.14.54.32.35.88l.88.36,2.3-2.65.35-3.36,1.24.36c.2.13.88,1.16.88,1.23v12.54c-.25.28-1.34-.64-1.41-.89-.07-.23.08-.53,0-.7-.41-.87-1.02-1.69-1.06-2.65h-.71c.1-1.34-1.29-.92-2.29-1.41-.37.29-.47.41-.53.88-.17,1.18-.08,3.33,0,4.59,0,.12.34.23.35.35.09,1.28-.06,2.6,0,3.89l.53.53c1.33-.14,2.95.19,4.24,0,.13-.02.21-.33.35-.36.32-.07.76.08,1.06,0,.13-.03.21-.3.35-.35.24-.09.92-.26,1.06-.35.3-.2,2.6-2.47,2.65-2.65.26-.9.65-1.22.71-1.41.16-.56.04-1.58,1.23-1.24.7.2.61,2.03.53,2.65,0,.13-.34.23-.35.35-.15,1.6.06,3.05-.35,4.59-.06.19-.62.57-.36,1.24-.56-.2-.74.33-.88.35-.64.11-2.12.07-2.83,0ZM266.26,337.79c-.78,1.04-.13,2.9-.35,4.23-.43,2.57-.34,6.27-1.06,9.18-.03.14-.33.22-.35.36-.22,1.22.25,3.09,0,4.23-.03.13-.29.2-.36.36-.05.11.05.27,0,.35-.9,1.51-2.41.59-3.7.88-1.37.31-3.75-.11-5.65,0-14.37.84-29.02.87-43.44,1.77-.12,0-.23.34-.35.35-2.81.15-5.67-.11-8.48,0-.67-.45-.55-1.01-.53-1.77.39-.05.89.09,1.24,0,.14-.03.21-.31.35-.35,1.38-.35,2.88-.31,4.24-.7.31-.09.62-1.03,1.41-.71l1.94-2.65c-.08-4.94.12-9.89,0-14.83-.06-2.69.1-8.8-.35-11.3-.81-4.53-.4-12.33-.71-17.65-.08-1.45.2-3.24,0-4.59,0-.11-.64-.76-.35-1.41l-2.29-2.3c-.68-.18-1.45-.22-2.12-.35-.14-.03-.23-.34-.36-.35-1.12-.17-2.92.24-3.88,0-.69-.18-.96-1.94.35-2.12,1.08-.15,2.4.07,3.53,0,.13-.01.23-.35.36-.36,2.56-.14,5.19.11,7.77,0l.53-1.05c.66-.26.93.62,1.23.7,1.39.38,8.27.06,10.24,0,2.64-.08,6.19-.48,8.83-.7.67-.06,2.68-.14,3.18,0,.75.2.75,2.27,0,2.47-.38.1-.98-.08-1.41,0-.14.02-.23.33-.36.35-.69.08-4.25.19-4.41.35v.71c-.73-.11-1.39.35-1.94.71-.63.4-.68,1.39-1.24,1.94.14,4.46-.18,8.96,0,13.41.06,1.46.08,4.48.35,6.01.69,3.82-.01,10.28.36,15.18.12,1.59.14,3.53.35,4.94.31,2.12-.23,4.86,0,7.06.62.75.43,2.37,1.77,2.3v.7c.65-.26,1.1.33,1.23.36.43.08.98-.08,1.41,0,2.64.47,5.95.51,8.83.35.13,0,.23-.34.36-.35,1.96-.14,3.8.05,5.65-.36.96-.21,2.36-.71,3.53-1.05.25-.08.8-.99,1.06-1.06.37-.11,1.03-.11,1.41-.36.55-.35.6-.78.53-1.41.37.13,2.03-.62,2.12-.71.06-.06-.09-.36,0-.53.36-.65,1.66-1.42,2.12-2.11.09-.15.25-.9.35-1.06,1.58-2.53,3.02-5.32,3.53-8.12l1.24-1.24h1.41l.88,1.59v.71ZM229.54,322.96c-.44-1.86-.52-4.27-.36-6.36.05-.59-.05-.84.53-1.23l1.24,1.94c-.89.72-.11,1.88,0,2.47.22,1.19-.66,3.2-.35,4.94,0,.1.55.36.35,1.06l-.88.88-.89-1.23c-.2-.93.57-1.55.36-2.47ZM275.44,339.02l-.35,1.94-.7.71.7.71c-.74,1-1.1.33-1.76-.36l.35-.7-.35-.36c.53-.57,1.24-.91,1.06-1.76l1.05-.18ZM261.22,281.04c-33.53,0-60.71-27.18-60.71-60.7s27.18-60.7,60.71-60.7,60.71,27.17,60.71,60.7-27.19,60.7-60.71,60.7ZM358.26,316.07c1.15.92.37,2.45-.89,2.47l-.35,1.42c.09-.8-.31-1.59-.88-2.12l-.89,1.06-.35-.89.88-1.23,2.48-.71ZM377.5,195.49c-.69-.43-1.29-.64-2.12-.52v-1.06c.91-.08,2.5-.11,2.83.88.1.31-.35,1.02-.71.7ZM401.34,209.09c-.42-.47-1.02-.74-.88-1.41h-.71l-.35-2.12h1.06c-.14.78.12,1.11.7,1.59l-.35.35,1.06.88-.53.71ZM435.06,300.01c-.04.36-.58,1.1-.35,2.11.79,3.55-2.65,6.09-1.41,9.54-1.12.94-1.44,2.48-.71,3.71h-1.06c-.07.73.1,1.58,0,2.29-.13.88-.89,2.54-1.06,3.53-.16.95.06,3.35,0,3.53-.42,1.38-.88,3.73-.7,5.3,0,.13.33.22.35.35.08.49-.05,1.08,0,1.59l1.23.35.18.71c-.41-.02-.68-.06-1.06.18-.5.3-.18.78-.53.88l-1.06-1.41-.88.35v1.06h.71l-.53,1.06-.36-.36-1.59.36c-.1-1.34-.12-2.73,1.42-2.83l-.36-.88.36-.71c-.15-.23-.66-.53-.71-.7-.96-3.35-1.55-6.65-2.47-9.89-.91-3.18-2.73-5.93-2.83-9.35h-.7c.1-1.43-.29-2.7-.71-4.07-.44-1.4-1.26-3.11-1.41-4.59-.15-1.48-.09-2.42-.35-3.88-.18-.99.31-1.47.35-1.76.08-.54-.13-1.32,0-1.77.04-.16.54-.47.7-.71.06-.08-.05-.28,0-.35.29-.39,1.57-1.69,1.95-1.94.69-.46,1.94-.56,2.47-1.41h5.3l2.82,1.41c.31.49,1.84,1.59,1.94,1.94.07.23-.08.53,0,.71.11.23.67.89.71,1.06.08.29-.07.73,0,1.06.03.13.33.22.35.35.11.75.09,2.39,0,3.18ZM438.95,238.57c.36-.67.84-.4,1.23-.53.28-.09.47-.8,1.06,0l.36-.35.88,1.76h-1.41v-.7h-.71c.29.56-1.11,1.76-1.41,1.41v-1.59ZM441.6,334.08l-.71-.35-.71.7-1.23-.18.7-.52-.35-.71c.71.06,1.51-.24,1.94.35.27,0,1.18-1.68,1.94-1.41.29,1.41-.95,1.28-1.58,2.12ZM444.77,354.91l-.88-.35.35-2.47-1.76-.71.53-1.41.53,1.41h1.06c-.05.95,1.39,1.38.35,2.29-.14.48.74.68-.18,1.24ZM447.25,355.97l-1.24-.88c.47-.56.81-1.22.71-1.95l3.17-.35c.2,1.71-1.81,2.04-2.64,3.18ZM452.54,244.4c.97.11.84.48.53,1.23l.36.88-2.12.36c-.11-1.04.51-1.85,1.23-2.47ZM451.84,356.32l-.53-1.76c1.19.34,1.46-.6,2.47-.71.52.57-1.41,2.63-1.94,2.47ZM462.96,357.2c-.2.74.17,1.53-1.06,1.95l-.18-.71h-.53c-.17-.59.48-.79.36-1.24-.05-.17-.55-.3-.36-.88l1.59.36.89-.71c.24.68-.63.95-.71,1.23ZM464.02,257.11c-.74-.07-1.65.4-1.41-.71l1.59-.35.35-.36.88,1.59,1.06.18-1.23,1.06c-.56-.5-1.4-.49-1.24-1.41ZM470.02,265.4c-.03-.11-.94-.99-1.06-1.41l.36-1.59,1.06.89.35,4.06c-1.1-.3-.53-1.32-.71-1.95ZM497.92,340.08l-.88.35-.88-.53.35-2.29c1.06-.32,1.74,2.12,1.41,2.47ZM493.68,348.38l.36,1.59c-.66-.61-.78.13-1.24,0l-.88-.89,1.41-.53v-1.05l-.88-.36-.71.36c-.65-.71-2.88-2.36-.53-2.12.18-.97-.29-.72-1.06-.71,0-.67-.57-1.15-.35-1.94.09-.32,1.15-.85.71-1.94.11-.12.98.24,1.23.35.24.1.76.12.88.53.15.47-1.24,1.79-1.76,1.59v.88l1.41.53-.18.71h-.35l-.18.7c1.21-.17,1.52,1.08,2.83.71l-.71,1.59ZM494.39,336.9v-1.06c.4-.04.87.08,1.24,0,.13-.02.22-.33.35-.35.6-.08,1.32.06,1.94,0l-1.94,1.77-1.59-.36ZM500.04,347.5l-2.12.7v-2.12c-.56.26-2.11-1.37-1.76-1.76,1.14,1,2.03,1,3.17,0,.02.5.13.91-.35,1.23-.42.29-.8-.02-.71.53h1.77v1.42Z"/>
  <path d="M194.93,53.03l.35-1.59-2.29-1.94c-1.19,1.29-1.99-.58-2.47-.71h-8.66l1.06,1.24-.35.7,1.41.53c.03.68.18.72-.53.71-.81-.02-1.3-.15-1.23-1.06h-.71v-.71l-1.77-.35-.35-1.41c-.68.42-1.82.49-2.65.35-.13-.02-.23-.35-.35-.35s-.21.31-.35.35c-.44.12-.87-.13-1.24.53l.35.88h-1.06l-.53-1.76-1.58.35v.71h-.71v-.71l-1.24.35c-.46-.61-.97-.89-1.76-.7-.14.03-.21.31-.36.35-.46.13-.56-.32-.7-.35-.84-.19-2.51.55-3.18,1.06-2.36-1.72-5.56-.88-8.48-1.06-2.1-.13-4.81-.1-6.35-.36-2.72-.45-6.99.5-9.18,0-2.91-.65-12.54-.73-15.19,0-.46.13-.56-.32-.7-.35-.99-.22-4.1-.2-4.95,0-.16.04-.31.55-.88.35v-.7l-1.59.7c-.87-1.22-1.53-.61-2.47-.35-.37.1-.91-.61-1.59-.35v1.06h-1.41l-.53-1.06-1.77,1.06-1.06-1.06c-.61-.18-1.2.56-2.12.35-1.16-.27-1.99-.21-2.82-.35-.9-.15-1.6-.04-2.12.7l-1.41-.7c-.78.46-1.5,1.86,0,1.41.14-.04.22-.33.35-.35.36-.08.84.04,1.24,0v1.41l-1.77-.35v1.41c.72-.02,1.31-.16,1.77.53l-1.77.88c-.15,1.04.92.94,1.41,1.59l-1.23.88c-.4-.57-1.1-.31-1.77-.35l-.53.53v1.59h1.41l.36,1.23c-.64.24-.66,1.19-.71,1.24-.07.07-.36-.09-.53,0-.49.27-.85,1.61-1.41,1.77-.42.11-1.11-.08-1.59,0l-.35,1.76h-.71c.02.75.15,1.33-.53,1.77-.07.04-.24-.06-.35,0-.15.06-.22.29-.36.35-.13.05-1,.34-1.06.35-.41.09-.96-.05-1.41,0l-.53.53.35.88-1.23.36-.35-.36c-.77.51-.51,1.27-.53,2.12l1.58.71.71-.35,1.59,2.82.53-.35c.56.22.48,1.01.53,1.06.04.04.7-.1.88.35l1.94-.35-.35-1.42c1.25-.6,1.5,1.67,2.3,1.42.38-.13.66-.82.53-1.24-.55-.99-1.15-1.73-2.3-1.94l-.7.71c-.31,0-.24-.7-.18-.89.21-.72,1.19-.41,1.59-.53.14-.04,1.19-.71,1.23-.88l-.35-.71c.54-.28.24-.77.35-1.06.17-.42,1.03-1.3,1.06-1.41.2-.67-.45-.97-.35-1.59,1.4.21,3.48-.27,4.77,0,.12.03.93.68,1.06.71.35.08.84-.05,1.23,0,.2.57-.33.74-.35.88-.15.83.33,1.93-.35,2.47l.7,1.06-.35.89c.58.19.7-.3.88-.36,1.16-.35,1.69,1.84,3,1.42v-.71l1.77-.71.71-.7-.36,1.23.53.53c.71-.62,2.19-.47,3,0l.53-1.06.53,1.42,1.59-.71,1.77.71.7-.36,1.59,1.24-.35,1.23h.71v.71c.79.14,1.71.61,2.65.35.19-.05.51-.65.7-.7.98-.27,2.02.96,2.83,0,1.29,1.69,3.77.91,4.94,1.41.15.06.36-.02.53,0l.53-1.06c1.15.81-.06,1.61.18,2.65.03.12.28.2.35.35.05.11-.05.28,0,.35.11.19,1.06,1.14,1.24,1.24.16.09.46-.07.53,0,.04.05.2.96.35,1.24.28.49.99.61.71,1.58h-.71c.07.74-.1,1.59,0,2.3.02.13.32.21.35.35.21.9-.49,1.44-.35,2.3-1.37-.31-.52,1.27.18,1.06.62-.82,1.04,0,1.58.53h-1.05l-.89,1.23c-.39-.09.15-1.45-.7-1.06-.35.17-.72.59-.18.89l-.71,1.23c1.17-.06,2.3.37,3-.7l2.3,1.58c-.07.76.26,1.65-.35,2.12l.7,1.42c-.7.54-.17,1.68-.35,2.47-.03.12-.28.2-.35.35-.67,1.45-1.67,1.41-2.12,2.12-.06.09.05.28,0,.35-.42.6-1.32.87-1.06,1.77.8.43.44,1.51,1.41,1.23.2-1.37,1.01-2.41,2.47-2.12v-.7h.71c.06-.86-.09-1.8,0-2.65.01-.13.34-.22.35-.35.09-.73-.05-1.55,0-2.3h-.7v-.7h.7c.2-.57-.33-.75-.35-.89-.59-3.34.89-6.55,0-9.88-.22-.83.19-1.25,0-2.12-.03-.12-.68-.94-.71-1.06-.1-.5.13-2.17,0-2.3-1.15-.07-1.34-1.48-2.82-1.06v-1.94l.53-.53c1.42-.09,2.86.47,3.71-.88.06-.09-.05-.53.35-.71-.88-.57-.85-1.82-.71-2.82.02-.13.33-.21.36-.35.07-.32-.09-.77,0-1.06.23-.87,1.57-1.5,1.06-3l2.29-1.06c.69.78,2.27.1,3.18.35.48.13.9,1.27,1.23,1.59l-.35,1.41c.35.22.99,1.17,1.24,1.24.62.17,1.23-.23,1.76.7.8-.49,1.32.06,2.12.36.44.15.99-.08,1.41.7h.36c.47-.58.81-.84,1.59-.7.06.06-.1.36,0,.53.39.71,1.32.2,1.06,1.23l-1.24.35c-.49-.11-1.03-.53-1.24.18-.25.87.71,1.27.71,1.41l-.35.89c.53.19.81-.36.88-.36s.6.63,1.24.36v-.71l1.23.35c.22-.35,1.17-.98,1.24-1.23.09-.33-.29-1.62.53-1.24.32.15.7.84,1.06,1.06.82.5.74,0,1.23.88.08.13.83.87.89.89.31.08,2.46.08,2.82,0,1.51-.34,3.69.1,5.65-.36.88-.2,1.17.3,1.41.36.32.07.77-.08,1.06,0,.53.14.61,1.73,1.59,1.41l.18,1.06.88-.88-.35-1.06.88-.53c.4.47,1.16-.18,2.12,0,1.74.31,3.1.02,4.59.35,1,.22,2.61-.16,3.71,0l.35-1.41h-1.76c-.2-.53.35-.83.35-.89-.02-.36-.21,0,0-1.05.34-1.7.57-3.69,1.06-5.3.05-.18.55-.32.35-.71l-1.06-.35c.6-.77,2.14-.62,3-.53.13.01.23.34.36.35.97.09,2.02-.06,3,0l-1.24-1.06c-.47-.22-1.8-.37-1.94-.88-.08-.29.08-.74,0-1.06-.16-.66-.74-1.66-.7-2.47l-1.42-1.77.36-1.94c-.09-.08-1.45.3-1.06-.53.33-.7,1.81-1.11,1.41-2.29l1.41.35v-.7c.88.07,1.88-.33,2.47.52l-1.41,1.42c-.37.73.97.79,1.41,0,.1-.17-.06-.47,0-.53h.71ZM101.7,57.26c.47-1.2,2.11-.96,1.77-2.47l-1.42.36c-.06-.62-.03-1.06.53-1.42.05-.03.77-.34.89-.17.57.36.17,1.83,1.41,1.59.27,2.23-1.32,2.26-3.18,2.11ZM182.75,68.21c-.09.06-.29-.05-.36,0-.23.17-.55.66-.7.71-.77.21-1.26-.34-1.95-.36l1.59-1.41,1.24.35.71-.7c.07.61.03,1.06-.53,1.41ZM186.45,66.44c-.06.07-.36-.09-.53,0-.32.19-.7.78-1.05,1.06-.46.37-.77.31-.89-.17l.71-2.47,1.59-1.59-.18,1.23.71,1.06c-.46.18-.32.85-.36.88ZM186.63,55.85l-1.59.71.71-.71-.71-2.82c.49.07,1.17-.11,1.59,0,.09.02.7.53.35.7l-.53,1.24,1.42.88c.03.72-1.04.38-1.24,0Z"/>
  <path d="M328.77,335.14l-1.06-.88c.05-.45-.08-.99,0-1.41.02-.14.34-.22.35-.35.06-.44.09-1.78,0-2.12-.09-.31-1.15-.85-.71-1.94-1.28-.17-1.87.05-2.65,1.06l-1.41-1.41c-.69.06-1.45-.08-2.12,0-.13.02-.23.34-.35.35-1.04.1-3.35-.38-3.71.88-.06.22.07.5,0,.71-.05.15-.33.22-.35.35-.09.47.06,1.08,0,1.59h-1.06v-1.41c-.97-.06-1.97.23-2.83-.35-.26,1.93,1.23,1.1,2.12,1.59.61.34.15.57-.18.88-.52.14-.86-1-2.12-.71-.17.04-1.27.68-1.41.71-.4.07-1.75.08-2.12,0-.6-.14-.71-.97,0-1.41.06-.03.77-.35.88-.18.71.21,1.24.52,1.94.53s.55-.02.53-.71l-4.06-.71c-.18.45-.84.31-.88.35-.07.07.09.36,0,.53-.39.7-1.81.55-1.41,1.94l-1.77-.35c-.14.94.15.71.88.71.34,0,.77.06,1.06,0,.14-.03.94-.81,1.24.18.13.43.16,1.06-.53.88l-.88-.71.71,3.18c-1.11.46-1.78-1.27-2.3-1.41-1.02-.28-1.8.28-1.59,1.41l-1.41-1.06v1.59l1.24.88.88-.35v-.88c.32-.41.69-.69,1.24-.53s1.04,1.73.88,2.3c-.17.64-1.27.37-1.59.88l-1.94-.71.35.88c-.27.17-.68.82-.88.88-.22.06-.5-.07-.71,0-.15.05-.22.33-.35.35-.73.13-1.65-.3-2.12.35h-.35c-.17-.05-.86-1.13-.88-1.24-.13-.6.28-1.37-.35-1.77.37-.66.82-.41,1.24-.53,1.12-.32.01-1.74.18-2.3l1.41-1.06-1.41-2.12c.04-.14.32-.22.35-.35.29-1.27-.59-1.39-.71-1.77-.12-.41.14-.87-.53-1.24l-1.24.88c.05.46-.07.98,0,1.41.02.14.35.24.35.35s-.33.22-.35.35c-.16.97-.04,2.05,1.06,1.94v1.59c-.52.33-.23,1.4-.88,1.59-1.07.32-.78-1.47-.88-1.94-.21-1-.99-1.6-.71-3.18.34-1.89-.12-.91-.35-1.77s-.52-6.47-.35-7.41c.21-1.16.25-2.08,0-3.18-.4-1.79.3-5.76.71-7.41.43-1.76.93-3.28,1.41-4.94.1-.35,1.67-1.42,1.77-1.77.08-.3-.08-.76,0-1.06.08-.28,3.66-3.79,4.06-4.06.15-.1.89-.25,1.06-.35.34-.21.95-.93,1.41-1.06.3-.08.77.08,1.06,0,.33-.09,1.53-.67,1.77-.71,1.47-.22,5.9-.19,7.42,0,.13.02.22.33.35.35.43.08,1-.09,1.41,0,.06.01.87.28,1.06.35,1,.37,3.82,2.22,4.41,3,1.33,1.75,2.54,2.73,3.18,4.94.07.25.98.8,1.06,1.06.39,1.32.73,2.55,1.06,3.88.5,2,.74,3.89,1.06,6,.72,4.77,1.12,10.67.35,15.54-.08.49.05,1.08,0,1.59Z"/>
  <path d="M329.83,55.85c-.45-.93-1.53-.67-1.41-1.77h-1.41l1.06,1.41c-1.24.08-2.32.17-2.12-1.41l-.71.18v.53l-.88.35-.53-1.06h-1.06l-.35-2.12-1.41.53.71,1.06c-.3.2-.62.76-.88.88-.67.32-.47-.43-.53-.53-.22-.37-.6-.62-1.06-.53l-.35,1.59.35.35-.53.88c-.52.17-.8-.64-1.06-.71-.54-.15-1.15.25-1.59-.53.5-.55.49-1.4,1.41-1.24v-.71l2.47-.35c.24-1.11-.67-.64-1.41-.71v-.71h-2.65l-.53.53v.88h-.71v1.41l-.71-.71c-1.34-.31-1.49,1.36-2.83,1.06.18-.88-.28-1.21-.88-1.77-1.07.66-.05,1.13-.18,1.59l-1.59.88-.18-1.77-1.41-.35v-1.77l-1.24.35-1.59-1.41c.63.04.87.32,1.59.35,1.25.05,4.42-.91,5.3-.71,4.52,1.06,10.14-.46,14.48,1.06l.71-.71c1.41.17,3.26-.24,4.59,0,3.13.55,15.93.98,19.42.35,1.88-.33,9.13-.24,11.65,0,1.93.18,4.01.2,6,.35,1.33.1,2.73-.07,4.06,0,.29.25-.64,1.35-.88,1.41-1.03.28-1.95-.56-3-.35v-.71l-1.24.71c-.66-.9-1.66-.08-2.12,0-1.37.25-2.72.34-3.88,0-2.19-.63-6.94.22-9.18,1.41l-1.77-.71c-.18.4-.6.29-.71.35-.42.25-1.09,1.3-1.41,1.41-.6.2-1.08.08-.88-.71l1.06-.71-2.47.35v1.06c-1.34.06-1.57,1.24-1.41,2.47-.89.18-1.23-.3-1.77-.88l.35-1.06c-.88-1.27-2.14-1.02-3.35-.53l-.88-.35v-1.06c-1.03.33-1.46-1.63-1.94-1.77-1.06-.3-1.31,1.2-2.3,1.06l.71,1.41c-.48-.08-1.18.11-1.59,0-.25-.07-.81-.99-1.06-1.06-.29-.08-.73.06-1.06,0-.49-.1-.74-.44-1.06-.35-1.13.8-.02,1.48-.18,2.47h.71v1.06c-.23.02-.5-.04-.71,0,.05.1-.06.31,0,.35.78-.09,1.56.29,2.12.88l-.53.88c-.43-.66-1.24-.21-1.77-.35-.06-.02-.86-.81-.88-.88-.23-.65.6-.79,1.06-.88Z"/>
  <path d="M379.27,328.78c-.1,1.01.48,1.81,1.24,2.47.69-.35,1.41-1.27,2.12-1.06l3.18,1.77c1.68.26,4.25,1.64,5.12,3,.33.52.77.45.88.53.36.26,1.89,2.1,1.94,2.3.08.29-.07.74,0,1.06.03.14.33.22.35.35.18,1.06.11,2.14.35,3.18-.81.7-1.25,3.51-1.94,3.71-.22.06-.49-.06-.71,0-.37.11-1.56,1.79-2.12,2.12-1.11.66-2.35.14-3.53.35-.13.02-.21.32-.35.35-.36.1-.77-.17-1.06.35l-.88-1.06,2.47-1.06v-.71c1.23.12,2.31-.1,3.35-.71.62-.36.54-1.16,1.59-.35v-.71c1.42-.05,1.5-1.8,1.41-3-.8-.6-1.4-1.9-2.47-1.94-.26-1,.6-.52,1.06-1.24-.31-.24-.58-.69-.88-.88-.39-.24-1.43-.36-1.59-.88-.09-.31.07-1.08-.53-1.24-.36-.09-.89-.04-1.24.18-.67.41.01,1.3-.71,1.24l-.18-.71-1.94.35c.15-1.03-.09-1.5-.88-2.12-.12,0-.21.31-.35.35-1.52.4-2.27.2-3.71.18-.12.17-.84-.15-.88-.18-.26-.17-.63-.54-.53-.88l1.41-1.24-1.77-.88.35-1.06-.71-1.06,1.06-.53v-.71l1.06.35Z"/>
  <path d="M117.24,79.86v2.47h-1.06c-.1,1.04,1.36,1.24,1.06,2.3-.32,1.11.22,2.08.35,3.18.05.44.09,1.78,0,2.12-.05.19-.65.51-.71.71-.06.22.06.49,0,.71-.22.76-1.75.5-2.47.53l-.53-1.06-1.41.71-2.3-1.06v-.71l-1.77-.35v-1.06h.88l.88-1.24c.27-1.23-.66-1.66-1.41-2.47v-.35c.6-.61,1.27-.96,1.06-1.94l.71,1.06h.71v-.71l2.65-.35c.75-.93,2.16-1.55,1.94-2.82l1.41.35Z"/>
  <path d="M497.57,143.77c-1.47-.46-.25-1.94-.35-2.3-1.14-.93-.88-3.73-.35-4.94v-.35c-.24-.39-1.33-1.13-1.41-1.41-.26-.9,1.05-1.22.71-2.47l-.71-.71c.19-1.9.75-5.08.35-7.06-.02-.12-.53-.38-.35-.53h1.06c.27-.64-.31-1.06-.35-1.24-.17-.77.22-1.53.71-2.12l-.71-1.77c.9-.63.89-2.13.71-3.18-.03-.16-.59-1.13-.71-1.41-.06-.15.02-.36,0-.53h.71c.27-.64-.34-1.13-.35-1.24-.14-.96-.1-2.24,0-2.82.19-1.1-.52-1.57-1.06-2.47l1.06-2.12-1.06-1.06,1.41-1.41-.35-.71.35-.35c-.99-.65-.69-1.57-.71-2.65,1.69-.14,1.97,1.25,1.77,2.65-.05.33-.76,2.26-.71,2.47.97,3.5.53,9.16.35,12.71-.28,5.49.87,11.36-.35,16.59-.2.88.33,1.27.35,1.41.39,2.69-.29,6.21,0,9Z"/>
  <path d="M390.92.77h-1.77l1.77.71-.53.71h-.71c-1.02-.74-1.67-1.31-3-1.06l.35,1.24c-.69.7-1.07.4-1.41,1.41-.14.42-.6-.41-1.06-.18l.71,1.41-1.06,1.06c-.57.19-.75-.33-.88-.35-.54-.09-1.26.11-1.77,0-.22-.05-1-.82-1.41-.71-.6.55-1.06.88-.88,1.77-.87-.6-1.96-.29-3-.35l-.53,1.06c-.67.2-1.94-.23-2.12-.88-.13-.46.09-1.24,0-1.77-.02-.1-.55-.36-.35-1.06l1.24-1.24.35.35,1.06-.71,1.24.71v-.71c.86-.43,1.79-.2,2.65-.35.12-.02,1.29-.68,1.41-.71.72-.13,3.91.16,4.06,0V.42l.88.35c.81-.76,2.1-.87,3.18-.71.13.02.21.31.35.35.43.13.85-.82,1.24.35Z"/>
  <path d="M150.08,69.97l-1.41,1.41c.65.31,1.66-.43,1.94-.35.54.15,1.62.61,2.12.71.36.07.84-.05,1.24,0,.45,1.1-.61,1.61-.71,1.94-.42,1.46-.68,3.9,0,5.3-1.66,1.26-.03,2.1.35,3.53-.48.29-1.19,1.01-1.59,1.24-.17.09-2.25,1.78-2.3,1.94-.17.58.09,1.33-1.06,1.24-.28-.62.36-1.17.35-1.24-.06-.9-.19-2.46-.35-3.18-.09-.4-.1-3.18,0-3.53.23-.82,2.09-1.32,2.65-.53l.53-.88c-.55-.46-.55-1.65,0-2.12v-.35c-.91-.65-.56-1.64-1.59-2.3-.09-.06-.53.04-.71-.35-.61,1.01-1.28.55-2.12.71-.1.02-.37.56-1.06.35-.29-.53-.7-.26-1.06-.35-.14-.04-.23-.35-.35-.35-.06,0-.62.63-1.24.35v-1.06c.37.02.25.32.71.18.78-.24,1.01-.97,1.77-.88v-1.77c.72.1,1.38-.23,1.94-.71.61.6.97,1.27,1.94,1.06Z"/>
  <path d="M219.3,80.57c-1.21.46-2.06-1.6-2.65-1.77-.39-.11-1.03.11-1.41,0-.27-.08-1.03-1.17-1.41-1.41l-.18,1.06h-.71l.35,2.12c.73-.28,1.2.95,1.59,1.06.54.15,1.49-.11,2.12,0,.12.02.2.29.35.35.19.08.47-.06.53,0,.05.05.07,1,.71,1.24-1.26,1.64,1.54,2.13,2.65,3h.71c.47-.58.81-.84,1.59-.71-.19.58.28.67.35.88.15.42.22,1.3.35,1.77.04.14,1.05,1.25,1.24,1.59l1.06-.35,1.59.88c.16.95-.73.38-1.24.53-.08.02-.91.5-1.41.71-.23.09-.3.54-.88.35v1.41l-.71-.88c0-1.74-1.85-2.7-2.83-4.24-.35-.56-1.11-.52-1.41-1.06-.35-.63-1.4-1.49-2.3-1.94-1.79-.89-4.01-1.55-4.94-3.18-1.63.24-1.93-2.11-1.59-3.35.08-.29,1.02-1.06,1.41-.88v-.71c1.33.14,2.88-.48,3.71.71l.71-.35,2.65,3.18Z"/>
  <path d="M295.93,121.35c.02-.13.32-.21.35-.35.11-.46.58-2.52.71-2.65.07-.07.36.09.53,0,.62-.34,1.36-1.41.53-1.94-.62-.4-1.28.22-1.06-.88.88.09,1.41.05,1.94-.71h.35c.67.57,1.09,1,.88,1.94-.03.16-.55.31-.35.88l.71-.53c.18-.35.68.26.71.35.09.33-.06.85,0,1.24l-1.41.53,1.41,1.06v.88c.72-.02,1.31-.16,1.77.53-.35.68-1.48.89-1.77,1.41-.55.97-3.03,2.88-4.24,3.88-.36.3-.46.67-1.06.53v-6.18Z"/>
  <path d="M267.32,79.51l-1.59-.35-.88,1.24c.64.47.24,1.38.35,2.12.08.52.22,1.5.35,2.12.23,1.06,1.77,1.56,1.41,3.53-.02.1-.56.37-.35,1.06.07.22.61.56.35,1.24l-1.06.53-.35,1.59,1.77.53c-.66.59-1.25,1.22-1.41,2.12,1.13,1.26.4,3.18,1.77,4.24l.35,1.59c-.52.07-.71-.24-1.24-.35-.77-.17-1.65.24-1.59-1.06h-.71c.18-1.19-.24-2.97,0-4.06.03-.14.31-.21.35-.35l-.71-1.41c.37-1.33,1.03-4.92.71-6.36-.43-1.9-.79-2.18-.35-4.59.21-1.16-.6-2.41-.35-3.88.02-.14.55-.32.35-.88l1.59.35,1.06-.35.18,1.41Z"/>
  <path d="M53.68,139.18l.35,1.41c-.51-.05-1.11.08-1.59,0-.14-.02-.24-.35-.35-.35s-.21.31-.35.35c-.67.19-1.35-.29-1.24-1.06h1.41c.08-.48-.11-1.18,0-1.59.04-.16,1.16-2.36,1.41-2.82.45-.82,1.44-.97,0-2.12v-.35c.24-.39,1.33-1.13,1.41-1.41.1-.35-.18-.77.35-1.06v-.35c-1.66-1.18-1.32-2.63.53-3.35l1.59,1.94c-.06.56.09,1.23,0,1.77-.02.14-.35.24-.35.35s.33.22.35.35c.25,1.48.2,3.98-1.06,4.94l.35.71c-1.32.79-1.13,2.94-2.83,2.65Z"/>
  <path d="M337.95,131.76c.08.48-.11,1.18,0,1.59.05.19.65.51.71.71.1.35-.18.77.35,1.06-.42.33-.36.94-.88,1.24-.17.09-.46-.07-.53,0-.04.04.1.7-.35.88l.35,1.94c-.57.19-.72-.32-.88-.35-.93-.21-1.54.56-2.47.35-.16-.04-.31-.55-.88-.35-.22-.22.15-5.17,0-6.18-.02-.15-.58-.59-.35-1.41.18-.65,2.07-.66,2.65-.53.39.08,1.28,1.02,1.41,1.06.23.07.6-.04.88,0Z"/>
  <path d="M496.86,63.27h.71c-.06.74.09,1.57,0,2.3-.29,2.27-.18,5.79,0,8.12l-.71,1.77.71.71c.2.68-.43,1.32-1.06,1.59-.05-.51.08-1.1,0-1.59-.02-.13-.34-.22-.35-.35-.26-2.08.91-3.31-.35-4.94.04-.14.31-.21.35-.35.37-1.15-.19-1.94,0-3.18.02-.11.62-.59.35-1.24l-1.41-.35-.35-1.59c1.15-.7.52-1.77.71-2.82.02-.14.55-.32.35-.88h.71l-.35-.88.35-1.06c-.59-.34-.24-.91-.35-1.41-.07-.28-.87-.81,0-1.41v-.35l-2.47-1.94c1.28-.03,2.61-.19,3.53.88-.3,2.45.41,5.8,0,8.12-.02.14-.55.32-.35.88Z"/>
  <path d="M112.3,112.7l-.35.88c.45.43.82,1.1,1.59.88.26-.07.81-.75.35-1.06-.3-.47-1.2-.2-.88-.88.13-.27.68-.58.88-.88.29.53.71.25,1.06.35.09.03.85.78,1.41,1.06l.71.35.88-.35v-.71h1.06c-.24.68.63.95.71,1.24.28,1.05-.77,2.26-1.77,2.3v.71h-.88c-.4-.13-1.29-1.02-1.41-1.06-.35-.1-.77.18-1.06-.35-2.61-.14-5.55.7-7.24-1.59.64-.24.65-1.18.71-1.24.06-.06.34.08.53,0,.15-.06.22-.31.35-.35.31-.11.77.18,1.06-.35l1.77,1.41.53-.35Z"/>
  <path d="M97.82,137.77h.71c.09.71,4.75,4.84,5.12,4.94.3.08.77-.09,1.06,0,.18.05.3.54.88.35-.09.58.14,1.44,0,1.94-.38,1.41-1.34-.82-1.59-.88-.3-.08-.76.08-1.06,0-.33-.09-2.11-.82-2.47-1.06-.87-.58-.46-.69-1.77-1.06-.14-.04-1.56-1.82-1.59-1.94-.08-.3.07-.74,0-1.06-.03-.14-.32-.22-.35-.35-.11-.47.24-1.05-.35-1.41l.88-.53.53,1.06Z"/>
  <path d="M287.45,93.63c-.13.96.91,1.86,0,2.65l1.06,1.77c-.63.51-.41,1.29,0,1.94-.73-.07-1.59.1-2.3,0-.13-.02-.21-.32-.35-.35-.32-.07-.76.08-1.06,0-1.26-.35-.83-2.96-.88-4.06.45-.67,1.01-.56,1.77-.53l.71-1.77,1.06.35Z"/>
  <path d="M128.54,84.1h-1.77c-.12-.12.1-2.1,0-2.65-.02-.14-.55-.32-.35-.88h.71c-.51-.56-.22-1.12-.35-1.59-.24-.86-1.29-.44-1.59.18l-.88-.88.35-1.94c.58.09,1.44-.14,1.94,0,.11.03,1.45,1.37,1.59,1.59.05.08-.06.26,0,.35.13.23.68.94.71,1.06.11.49.06,1.91,0,2.47-.01.13-.34.22-.35.35-.08.61.05,1.31,0,1.94Z"/>
  <path d="M119.71,108.11s.84.03,1.06-.53c.1-.35-.28-.53-.35-1.06-.19-1.36,1.15.15,1.24.18.3.08.76-.08,1.06,0,1.25.34.57,2.35,1.24,3,0,.14-1.01.78-1.24.88-.24.1-1.02.12-1.41.35s-.88,1.22-1.41,1.06c-.77-.44-.4-1.03-.53-1.59-.03-.14-.56-.35-.35-1.06.05-.18.57-.46.71-.71.09-.17-.07-.46,0-.53Z"/>
  <path d="M24.72,366.21l-2.47.53,1.41.53-.35,1.24c.57.84,1.54.47,2.47.53v-.88c0-.3.7-.23.88-.18.64.19.45,1.67,1.24,1.94-.46.59-.44.49-1.06.35-.88-.19-1.77-.35-2.65-.53l-1.41.71-1.94-.35c-.11-.38.23-.97.53-1.06.7-.2,1.15.69,1.59.18l-1.24-.88-1.24.35.71-1.94-.71-1.59c1.18.95,3.46-.45,4.24,1.06Z"/>
  <path d="M41.67,136.35l-.71.71v1.06h.71v1.41h-.71c.02.17-.06.38,0,.53s.35.24.35.35c0,.07-.55.35-.35.88h-1.77v1.06h-2.3c-.42-.61-1.66-1.38-1.94-1.94-.32-.63.55-.63.88-.53.13.04.2.28.35.35.11.05.28-.05.35,0,.75.45,1.1,1.74,2.3,1.41.19-.57-.32-.73-.35-.88-.17-.77.39-2.32,1.06-2.82l-.35-.35.35-.88,2.12-.35Z"/>
  <path d="M334.42,127.88h-1.06c-.06-1.22.09-2.49,0-3.71,0-.13-.34-.23-.35-.35-.09-1.34.06-2.72,0-4.06.57-.05,1.6-.06,1.77.53.23.83-.43,1.83.71,2.47l-.35.71.71,1.06c-.53.29-.25.71-.35,1.06-.13.46-1.6,1.01-1.06,2.3Z"/>
  <path d="M306.88,124c-.07.07-.36-.09-.53,0-.6.33-1.34,1.71-1.59,2.3-.49.38-.45,1.46-.35,2.12.02.16.58.58.35,1.41-.1.38-.82.65-1.24.53-.44-.13-.47-.8-.53-.88-.27-.38-1.77-1.62-1.77-1.77,1.28-1.05,2.43-2.74,3.71-3.71.07-.05.27.06.35,0,.51-.37.9-.9,1.59-1.06v1.06Z"/>
  <path d="M286.04,78.1l-.71,1.94c.16,1.23-.56,2.1-.35,3.35h.88l.18.71c-1.32-.04-1.08,1.12-1.06,2.12h-1.06l.35-.88c-.15-.23-.66-.54-.71-.71-.1-.37-.1-5.28,0-5.65.22-.82,1.7-1.04,2.47-.88Z"/>
  <path d="M199.88,62.21c-.18,1.19,1.07,1.49.71,2.82.32.34,2.41-1.72,2.47-1.94.09-.33-.06-.85,0-1.24.86-.13,1.5.18,1.41,1.06h-.71v1.41c-.97-.25-1.05.34-1.59.71-.09.06-.28-.05-.35,0-.46.35-.99.85-.88,1.41h-.18c-.62-1.06-1.67-.35-2.3-1.24.44-.29.44-.9.35-1.41-.02-.14-.35-.23-.35-.35,0-.06.55-.36.35-.88l-1.41-.18v-1.94c.92.13.55,1.58,1.24,1.77.33.09.85-.06,1.24,0Z"/>
  <path d="M105.94,113.05l-.35,1.77c-1.15-.29-1.51.84-2.3,1.41-.55.4-1.14.53-1.77.71-.31.09-1.1,1.32-1.41,1.41-.36.11-.78-.05-1.24.35l.18-1.06c1.03.09,2.13-1.07,1.94-2.12h1.06c-.18-.8.55-1.71,1.24-2.12.08-.05.24.05.35,0,.15-.07.23-.32.35-.35.54-.12,1.34.08,1.94,0Z"/>
  <path d="M271.56,111.99c.04.28-.07.65,0,.88.13.42,1.06.42.35,1.24.58-.18.66.26.88.35.19.08.48-.07.71,0,.33.09.86,1.16,1.94.71l-.88,1.06c-1.56-.22-2.78.37-4.24.35l-.35-.35h-1.24c-.23-1.35,1.1-.19,1.77-1.24.19-.3.26-1.12.71-1.41l-.71-1.59h1.06Z"/>
  <path d="M500.4,263.99c.02.1.62.6.35,1.24-.7-.12-.82.65-1.24,0l-1.94.35c-.08-1.02.98-1.28,1.59-1.77l.88.71c.17-1.16-.72-1.94-1.77-1.77-.26-.67.62-.93.71-1.24.11-.41-.08-1.11,0-1.59l1.06-.53c-.53-.59-.74-2.63.35-3,.25,2.36-.34,5.32,0,7.59Z"/>
  <path d="M276.86,116.23v-1.06c1.09.45,1.63-.62,1.94-.71.41-.11,1.11.08,1.59,0,.16-1.99,2.64-.89,1.41.53l1.41,1.06c-.72,1.09-1.27.23-1.59.18-.81-.14-4.6.17-4.77,0Z"/>
  <path d="M203.76,49.14l-.88.71c-.79-.32-1.11.62-1.41.71-.93.26-2.78-.18-3.88,0-.14.02-.24.35-.35.35l-1.06-1.41h-1.94c-.48-.4-.04-.68.53-.71,1.07-.05,2.01-.07,2.83.71h.35c.93-.43,2.1-.45,3.18-.71.89-.21,1.69.6,2.65.35Z"/>
  <path d="M272.27,101.75v1.41h1.24l.71-.71c.2.63,2.01-.02,1.59.88-.5,1.08-1.52-.07-1.77.18v.71l-1.41.35v.71h-1.06l-.53-1.06-.35.35-.53-1.24c.57-.84.89-1.82,2.12-1.59Z"/>
  <path d="M117.59,175.9l-.71,2.3.35,1.24-.71-.71-1.59.71-.88-.88c-.37-2.27,1.59-2.85,3.53-2.65Z"/>
  <path d="M99.23,84.8l-.71-.18v-1.94l.88.35.88-1.24-1.06-1.06-.35-1.59c1.41-.23,1.96.2,2.83,1.24l-.71,2.47c-.31.27-.57.62-.88.88-.21.17-1.13.15-.88,1.06Z"/>
  <path d="M109.47,167.78c-1.15-.22-1.93.42-3,.35-.39-.47-1.85-.36-1.59-1.24.12-.41,1.34-.85,1.06-1.59.65-.27,1.11.33,1.24.35.57.1,1.72-.23,1.94.53.06.22-.07.5,0,.71s.54.3.35.88Z"/>
  <path d="M405.75,345.73c.26-.76-.96-1.21-1.06-1.59-.11-.41.08-1.11,0-1.59,1.68-.05,3.27-.33,3.88,1.59-.43.78-1.07.38-1.59.53-.29.08-.75,1.03-1.24,1.06Z"/>
  <path d="M500.04,245.45c-.3-.3-1.02-.31-1.06-.35-.04-.04.1-.7-.35-.88.63-.83.61-2.54-.35-3.18l.71-1.06-.35-.71c.22-.66.55-1.4.35-2.12-.08-.29-.95-.55-.71-1.24l1.41,1.24c-.05.46.07.98,0,1.41-.24,1.45.17,3.02.35,4.59.08.73-.06,1.55,0,2.3Z"/>
  <path d="M102.41,93.63l-.88.35c-.53-.45-.86-1.19-1.59-1.06v-2.65l-1.06-.18.53-.71c.33.05.77-.08,1.06,0,.11.03,1.56,1.48,1.59,1.59.13.46-.09,1.23,0,1.77.02.14.55.32.35.88Z"/>
  <path d="M285.69,348.55l-3.18-.35.35-1.59c-.54-.83-.66-.15-1.41-.18.09-.63-.53-.91-.35-1.59.27-1.01.94-.02,1.24.18.98.65,1.99,1.47,2.83,2.47.3.36.67.45.53,1.06Z"/>
  <path d="M496.86,91.51l.53,1.06.53-.35c-.04.28.07.65,0,.88-.19.69-.2,1.06-.35,1.77-.2.9.16,1.8.35,2.65-1.15.11-.88-.67-1.06-1.24-.09-.29-.66-.24,0-.71l-.35-1.41c.65-.46.11-.41,0-.71-.07-.2.06-.47,0-.53-.04-.04-.86.02-1.06-.53.47-.42.74-1.02,1.41-.88Z"/>
  <path d="M234.13,73.15v1.06c-1.42-.11-3.02.15-4.41,0-.13-.01-.22-.33-.35-.35-.49-.08-1.08.05-1.59,0l.35-1.06c.15-.17.41.33.53.35,1.3.26,3.12-.03,4.24-.35.44-.13.66.54,1.24.35Z"/>
  <path d="M379.27,337.26l-1.41-.53c.56-1.85,1.19-.29,1.59-.18.24.07.54-.08.71,0,.4.2,2.13,1.35,1.94,1.94l-.88.88c-.63-.81-2.03-.96-1.94-2.12Z"/>
  <path d="M496.16,357.38h-2.12l-.71.71v-2.12c1.03.23,1.17-.16,1.77-.53.46-.29.91-.02,1.24-.53,1.17.78-.27,1.58-.18,2.47Z"/>
  <path d="M301.93,52.32l.88-.35.88,1.77c-1.07.29-1.25-.8-2.12-.71.23-1.25-.77-1.56-1.59-2.12l-.88.35v-.71l-.71-.35c.9-.11,2.05.31,2.65-.35l.88.88-.35.35.35,1.24Z"/>
  <path d="M276.86,94.69l-1.06-.88c0-.12.33-.22.35-.35.31-1.87-.71-3.44,0-4.94l-.71-1.06,1.06-.18c-.19.54.35.81.35.88v6.53Z"/>
  <path d="M292.04,116.23h-4.59v-1.41c.84.08,1.84-.12,2.65,0,.13.02.21.32.35.35.7.16,1.64-.27,1.59,1.06Z"/>
  <path d="M81.57,145.53l-3.35-.35-.88-1.41c.83.1,1.87-.14,2.65,0,.13.02.21.31.35.35.21.07.48-.06.71,0,.47.13.63.95.53,1.41Z"/>
  <path d="M105.59,80.57l-.53-2.47.35-1.41c1.16,1.02,2.83,4.01.18,3.88Z"/>
  <path d="M337.95,125.06l-1.77-.35c-.26-.76.96-1.21,1.06-1.59.12-.45.05-1.16-.35-1.41v-1.59l1.06.88v4.06Z"/>
  <path d="M381.39,347.49l1.06,2.12c-.63.27-1.09-.33-1.24-.35-.69-.13-1.94.17-2.3-.88-.35-1.04,1.96-.96,2.47-.88Z"/>
  <path d="M448.48,364.8l-.71,1.94c-.41.1-.18,1.21-.88.88-.27-.13-.58-.68-.88-.88.48-.88.05-2.22,1.24-2.3l1.24.35Z"/>
  <path d="M281.45,49.85c.08.65.02,1.02-.53,1.41-.46-.55-1.66-.55-2.12,0l-.71-.71h-1.94l.88-.71h4.41Z"/>
  <polygon points="104.53 164.25 104.53 166.72 103.65 167.07 102.41 165.13 102.76 164.25 104.53 164.25"/>
  <path d="M120.42,172.37l.71-.71c-.21-.91.59-.85.88-1.06.57-.4.91-1.55,1.59-.53l-1.94,2.65-1.24-.35Z"/>
  <path d="M358.79,339.02h-1.06c-.17-.6.48-.79.35-1.24-.04-.14-.32-.22-.35-.35-.23-1.01-.04-2.87,1.06-3.35v4.94Z"/>
  <path d="M497.22,79.51c-.23.74.55,1.31.35,1.94-.05.15-.33.22-.35.35-.07.41.02.96,0,1.41-.04.93-.39.27-.88.88l-.18-1.24.71-1.41-1.41-1.24h1.06l.71-.71Z"/>
  <path d="M377.15,50.91c.28,1.21-1.18.58-1.94.71-.13.02-.22.34-.35.35-.73.08-1.55-.06-2.3,0l-.35-1.06h4.94Z"/>
  <path d="M326.3,119.41c-.01.88.02,1.77,0,2.65,0,.43.26,1.32-.35,1.24.25-.73-.98-1.65-1.06-1.94-.23-.82.24-1.52.35-2.3l1.06.35Z"/>
  <path d="M114.77,168.84l1.06.71-1.94-.71-.35-.35-.88.71v-1.41l.88.35,1.41-1.77c1.27.95-.56,1.36-.18,2.47Z"/>
  <path d="M103.12,97.51l.71-.18v-.53l1.41-.35-1.24,2.12h-.35c-.54-.75-1.04-.8-1.94-.71l.88-1.41.53,1.06Z"/>
  <path d="M317.47,335.49c-.02-.27.17-.58-.18-.71-.42-.15-.79-.38-1.24-.35-.27-.97.8-.62,1.24-1.41,1.46.26,1.89,2.41.18,2.47Z"/>
  <path d="M149.02,103.87c.28-.89,1.62-.68,1.41-1.77h.53l1.59.88c-.92,1.07-2.25.92-3.53.88Z"/>
  <polygon points="274.03 108.81 272.62 110.4 273.33 111.46 271.92 111.99 271.56 110.4 272.27 109.17 274.03 108.81"/>
  <polygon points="2.47 145.89 1.06 145.18 .53 146.24 0 144.47 .88 144.83 2.12 143.42 2.47 145.89"/>
  <path d="M326.65,124.7c0,1.21.31,3.35-1.41,3.53l.35-1.59c-.05-.96-.17-1.99,1.06-1.94Z"/>
  <path d="M127.48,102.46c.21,1.13-.39.52-.88.71-.19.07-.25.48-.71.35-.14-.04-.22-.32-.35-.35-.45-.1-1.09.07-1.59,0l.88-1.06,2.65.35Z"/>
  <path d="M54.74,125.76c-.16-1.19.38-2.1,1.24-2.82,1.68.9-.81,3.32-1.24,2.82Z"/>
  <path d="M70.63,120.11c-.19,1.26.54,2.25.35,3.53l-1.41-1.94c-.11-.86.02-1.66,1.06-1.59Z"/>
  <path d="M492.63,53.03c0,1.47-1.68,1.35-2.3.35-.51.64-1.14.44-1.59-.18l3.88-.18Z"/>
  <path d="M101,161.07l.53,1.06c.79-.81,1.68-.29,2.3.53l-1.59.53c-.78-.78-1.65-.92-1.94-2.12h.71Z"/>
  <path d="M284.63,90.45l1.94.71.53.88-.88.88c-.26-.31-.65-.57-.88-.88-.05-.07.06-.27,0-.35-.28-.41-.88-.55-.71-1.24Z"/>
  <polygon points="71.33 128.59 70.8 130 68.51 129.65 69.74 128.59 71.33 128.59"/>
  <polygon points="248.61 81.27 248.08 82.33 245.78 82.69 246.14 81.27 248.61 81.27"/>
  <path d="M484.86,352.08c.21.99-.47,1.35-1.06,1.94l.18.18-.88.71c-.11-1.27.12-3.06,1.77-2.82Z"/>
  <polygon points="489.09 259.23 488.39 259.23 488.39 259.93 485.92 259.93 486.8 258.87 488.57 258.17 489.09 259.23"/>
  <path d="M282.51,107.75c.02.68.18.72-.53.71-.83-.02-.79-.27-1.06-.35-.74-.23-1.25.91-1.94-.18l1.59-.88,1.94.71Z"/>
  <path d="M27.19,197.44v1.77c.58-.18.66.26.88.35.48.2,1.12.01,1.59.88.07.24-.08.54,0,.71.64,1.29,2.46,2.12.71,3.53l.35,1.59c-.58.09-1.08-.14-1.59-.35-.24-.1-.76-.13-.88-.53-.05-.18-.13-.88.18-.88l1.24.35v-1.06l-2.12-.18,1.59-.88-.35-.71-1.06.71c-.5-.44-1.21-.81-1.94-.71l.71,1.24-1.06.53v1.94l-2.65,2.65-1.24-.35c-.21-1.11-.99-1.87-.71-3.18-.98-.11-2.31-1.41-2.12-2.47-.58.19-.67-.27-.88-.35-.49-.18-1.09.42-.88-.71.48-.08,1.18.11,1.59,0,.11-.03,1.56-1.48,1.59-1.59.23-.85-.31-1.78,1.41-1.59.24,1.37-1.27,1.95-1.06,3.18l1.06,1.06-1.59-.35c-.65.08.19,1.55.71,1.77l.71-.35,1.41.35.53-.53-.35-.71c.58-.47.84-.81.71-1.59l-.71-.35,1.59-.35c.5.66.81.33,1.24-.18l-1.41-1.06.71-1.59h2.12Z"/>
  <path d="M22.25,233.8l-.71,1.59.71,1.94.71.71c-.55.09-.69-.27-1.24-.35-1.13-.16-1.41.3-2.12,1.06l-.53-1.06-1.77-.35-.35-.88.71-.71-1.41-1.59,1.59-.35c.97-1.14,1.75.25,2.12.35.84.23,1.44-.5,2.3-.35Z"/>
  <path d="M235.19,108.11l.71,2.12c.73-.02,1.31-.15,1.77.53-.54.3-.25.73-.35,1.06-.18.6-1.19.58-1.77.53l.35-1.41h-2.47l.18,1.06.53.35-1.94.35-1.59-2.3.35-1.59,1.06.18v.53h.71v-.71l1.41.35v-1.06h1.06Z"/>
  <path d="M28.96,345.73l-.35-.53-.35.88c-.12.12-2.1-.1-2.65,0-.14.02-.32.55-.88.35l-.35,1.24c.67.58,1.07.92.18,1.59l-.53-1.77c-.93.32-1.43-1.34-.88-1.41l1.06.35,3-2.65c.02-.63-.22-2.06.53-2.3.7-.22.89,1.08,1.41,1.41.14.09.67.05.88.53v.35c-.67.51.05,1.65-1.06,1.94Z"/>
  <path d="M229.72,315.36l1.24,1.94c-.89.72-.11,1.89,0,2.47.22,1.19-.66,3.21-.35,4.94.02.1.55.36.35,1.06l-.88.88-.88-1.24c-.2-.93.57-1.55.35-2.47-.43-1.86-.52-4.27-.35-6.36.05-.59-.06-.84.53-1.24Z"/>
  <path d="M257.08,111.64h1.06l-.35,1.59.71,1.06c-.59.81-1.9.29-1.77,1.59-.73.28-1.2-.95-1.59-1.06-.72-.2-1.32.17-1.94-.88.68-1.03,1-.21,1.24-.18.72.1,1.51.12,1.94-.53l-.35-1.24h-1.06l.35-1.77c.94-.18,1.8.53,1.77,1.41Z"/>
  <path d="M146.91,196.73v.88l1.06.53c-.38.91.85,1.41.71,1.94-.18.64-1.57.41-1.77,1.06s.45,1.14.35,1.24c-2.18-.12.13-3.54-2.47-3.18l-.35-1.94.35-.88,2.12.35Z"/>
  <path d="M18.01,354.91l-.35,1.77c.58.19.71-.31.88-.35.45-.12.66.53,1.24.35l-.35,1.41h-1.06l.88,1.06c.35.18-.26.68-.35.71-1.41.38-1.54-1.08-2.65-1.06.14-.78-.13-1.12-.71-1.59,0-.11.31-.21.35-.35.19-.66-.25-1-.71-1.41.38-.4,1.33-.25,1.59.18l1.24-.71Z"/>
  <path d="M139.49,104.93h-.71l-.71,1.24.71,1.59c.76-.03,1.32-.14,1.77.53l-.71.71.35.71c-.52.56-1.3.97-2.12.88l.35-2.82h-2.12l.71-1.24-.35-.71,2.12-1.41v-1.24c.89.26.73,1.03.71,1.77Z"/>
  <path d="M490.86,343.26v.88l1.41.53-.18.71h-.35l-.18.71c1.2-.17,1.51,1.07,2.83.71l-.71,1.59.35,1.59c-.66-.6-.77.13-1.24,0l-.88-.88,1.41-.53v-1.06l-.88-.35-.71.35c-.65-.7-2.88-2.35-.53-2.12.18-.97-.29-.72-1.06-.71,0-.67-.57-1.15-.35-1.94.09-.31,1.15-.85.71-1.94.11-.12.99.25,1.24.35s.76.12.88.53c.14.47-1.24,1.79-1.77,1.59Z"/>
  <path d="M11.65,366.91l.53-.71h1.06l.53-.53-.35-.35c.3-1.43,1.42-.97,2.12,0l-.35.71.35.71-2.3,1.59c-.53-.15-.56-1.68-1.59-1.41Z"/>
  <path d="M26.13,334.78c.77-.94-.03-1.37,0-2.3.9-.6.04-1.49,0-1.77-.06-.42-.09-1.78,0-2.12.25-.95,2.26-.53,1.59.53-.66,1.04-.15,1.37-.53,2.65,1.11.62-.34,3.68-1.06,3Z"/>
  <path d="M357.37,318.54l-.35,1.41c.1-.8-.31-1.59-.88-2.12l-.88,1.06-.35-.88.88-1.24,2.47-.71c1.16.91.38,2.44-.88,2.47Z"/>
  <path d="M449.9,352.79c.2,1.71-1.82,2.04-2.65,3.18l-1.24-.88c.47-.56.81-1.22.71-1.94l3.18-.35Z"/>
  <path d="M499.34,344.32c.01.5.13.91-.35,1.24-.42.28-.8-.02-.71.53h1.77v1.41l-2.12.71v-2.12c-.56.26-2.11-1.37-1.77-1.77,1.14,1,2.04,1,3.18,0Z"/>
  <path d="M80.16,156.13v1.77h.71v.53l-.88,1.59-1.59-1.24.35-.71-.35-1.06c.54-.59.88-1.07,1.77-.88Z"/>
  <path d="M239.07,91.51v.71l1.06.18-1.94,2.3c-.5-.41-.83-1.18-1.59-1.06v-.71h.71c-.18-.88.28-1.21.88-1.77l.88.35Z"/>
  <path d="M145.49,103.52l-1.06,1.59c.9.61,1.12,1.71-.18,1.94-.17-.06-.86-1.12-.88-1.24-.12-.57.29-1.33-.35-1.77.58-.85,1.58-.46,2.47-.53Z"/>
  <path d="M7.42,157.54c-.06.39.09.91,0,1.24-.17.64-1.27.37-1.59.88-.84-.74-.99-1.77-.88-2.82,1.23-.34,1.54.65,2.47.71Z"/>
  <path d="M184.87,240.86c1.72.57,1.5,1.68.18,2.65v.35c.67.58,1.07.92.18,1.59l-.88-1.59c.08-.71-.32-2.75.53-3Z"/>
  <path d="M442.48,239.45h-1.41v-.71h-.71c.29.56-1.11,1.76-1.41,1.41v-1.59c.36-.67.85-.4,1.24-.53.28-.09.47-.8,1.06,0l.35-.35.88,1.77Z"/>
  <path d="M443.54,351.38h1.06c-.04.95,1.4,1.38.35,2.3-.14.48.74.67-.18,1.24l-.88-.35.35-2.47-1.77-.71.53-1.41.53,1.41Z"/>
  <path d="M443.19,331.96c.28,1.41-.95,1.28-1.59,2.12l-.71-.35-.71.71-1.24-.18.71-.53-.35-.71c.71.06,1.51-.24,1.94.35.27,0,1.18-1.69,1.94-1.41Z"/>
  <path d="M466.49,257.46l-1.24,1.06c-.55-.5-1.4-.49-1.24-1.41-.74-.07-1.65.41-1.41-.71l1.59-.35.35-.35.88,1.59,1.06.18Z"/>
  <path d="M275.45,339.02l-.35,1.94-.71.71.71.71c-.74,1.01-1.1.34-1.77-.35l.35-.71-.35-.35c.53-.58,1.24-.91,1.06-1.77l1.06-.18Z"/>
  <polygon points="97.82 176.96 96.23 176.6 95.17 176.96 94.29 175.55 97.29 175.55 97.82 176.96"/>
  <path d="M461.9,359.15l-.18-.71h-.53c-.18-.59.48-.79.35-1.24-.05-.18-.54-.31-.35-.88l1.59.35.88-.71c.24.68-.63.95-.71,1.24-.2.73.17,1.52-1.06,1.94Z"/>
  <path d="M251.79,119.41l-.18,3.18c-.7-.66-1.41-1.3-1.59-2.3l1.77-.88Z"/>
  <path d="M31.08,336.9c-.89-.07-1.89.32-2.47-.53l.71-1.94c1.17.37,1.84,1.2,1.77,2.47Z"/>
  <path d="M497.92,335.49l-1.94,1.77-1.59-.35v-1.06c.4-.05.87.07,1.24,0,.14-.03.22-.33.35-.35.6-.08,1.32.06,1.94,0Z"/>
  <path d="M49.79,380.33v-1.59l-.71-.71.88-.88c1.27,1.04,1.98,2.78-.18,3.18Z"/>
  <path d="M470.73,267.35c-1.1-.29-.53-1.32-.71-1.94-.03-.12-.94-.99-1.06-1.41l.35-1.59,1.06.88.35,4.06Z"/>
  <path d="M497.92,340.08l-.88.35-.88-.53.35-2.3c1.06-.32,1.74,2.12,1.41,2.47Z"/>
  <path d="M287.1,140.59c-.74-.23-1.29.54-1.94.35-.18-.05-.97-.87-.88-1.24.38-.55.98-.67,1.59-.53.13.03.2.28.35.35.45.21,1.02.18.88,1.06Z"/>
  <path d="M453.78,353.85c.52.57-1.41,2.62-1.94,2.47l-.53-1.77c1.19.34,1.47-.6,2.47-.71Z"/>
  <path d="M14.48,357.03c-.2,1.43-1.5,2.02-2.83,1.77-.28-1.04,1.01-1,1.06-1.06.06-.07-.04-.83.53-1.06l1.24.35Z"/>
  <path d="M288.51,137.06c-.18.92-1.09.48-1.59,1.06l-.88-1.24v-.71l1.06-.88.35,1.24,1.06.53Z"/>
  <path d="M311.82,150.83l-1.41-.18c-.26-.37-1.82.16-1.41-.71.19-.42,1.47-1.02,1.94-.88l.88,1.77Z"/>
  <path d="M453.43,246.51l-2.12.35c-.1-1.03.52-1.85,1.24-2.47.97.11.83.49.53,1.24l.35.88Z"/>
  <path d="M400.46,205.56c-.14.78.13,1.12.71,1.59l-.35.35,1.06.88-.53.71c-.42-.47-1.02-.74-.88-1.41h-.71l-.35-2.12h1.06Z"/>
  <path d="M33.9,381.74l.18-1.77c1.5-.38,2.81,1.51,1.06,1.77-.38.06-.83-.04-1.24,0Z"/>
  <path d="M285.69,129.29c-.26-1.97.76-.48,1.94-.71.97.42.48,2.23-.53,1.59-.47-.42-.74-1.02-1.41-.88Z"/>
  <path d="M375.38,194.96v-1.06c.91-.08,2.5-.11,2.83.88.1.31-.35,1.02-.71.71-.69-.43-1.29-.65-2.12-.53Z"/>
  <path d="M307.23,146.95l.53-1.41c3.14-.13,2.15,1.9-.53,1.41Z"/>
  <path d="M103.12,336.2c.2,1.57-.84,1.5-2.12,1.41l-.35-1.41h2.47Z"/>
  <path d="M104.88,55.15c.27,2.24-1.32,2.26-3.18,2.12.47-1.21,2.1-.96,1.77-2.47l-1.41.35c-.07-.61-.03-1.06.53-1.41.05-.03.77-.35.88-.18.57.36.17,1.83,1.41,1.59Z"/>
  <path d="M186.46,66.44c-.07.07-.36-.09-.53,0-.32.18-.7.78-1.06,1.06-.46.36-.76.3-.88-.18l.71-2.47,1.59-1.59-.18,1.24.71,1.06c-.45.18-.31.84-.35.88Z"/>
  <path d="M187.87,55.85c.03.71-1.04.37-1.24,0l-1.59.71.71-.71-.71-2.82c.49.07,1.17-.11,1.59,0,.09.02.7.53.35.71l-.53,1.24,1.41.88Z"/>
  <path d="M183.28,66.8c.07.61.03,1.06-.53,1.41-.09.06-.28-.05-.35,0-.24.17-.55.66-.71.71-.77.21-1.26-.34-1.94-.35l1.59-1.41,1.24.35.71-.71Z"/>
  <path d="M292.04,258.34c-.31.26-.57.65-.88.89-11.01,8.31-23.56,11.56-37.79,9.88-1.16-.86-2.88-.69-4.23-1.06-.37-.1-1.41-.96-1.77-1.06-2.02-.55-4.93-.92-6.71-2.12-.32-.21-.85-1-1.06-1.05-.3-.09-.76.08-1.06,0-.35-.1-1.94-1.72-2.12-1.77-2.82-.81-4.65-3.6-7.06-5.3-.8-.56-5.92-5.61-6.18-6.53-.5-1.74-2.63-3.84-3.53-5.65-.48-.97-.96-1.96-1.41-2.82-.4-.76-1.99-4-2.12-4.59-.13-.61.15-1.57,0-2.12-.05-.17-.89-1.48-1.06-2.12-1.13-4.09-1.19-6.81-1.41-11.3,0-.12-.35-.23-.36-.35-.16-2.85.18-6.55.71-9.18.57-2.84,1.24-5.75,2.12-8.47.82-2.55,2.43-4.81,3.18-7.42.22-.77,2.63-3.25,3.17-4.24.1-.16-.06-.46,0-.53.04-.03.71.1.89-.35l2.29,2.3,15.19,14.83c.09,3.87-.13,7.77,0,11.65,0,.12.35.23.35.35.08,2.17-.29,5.05,0,7.06.02.11.65.76.35,1.41.49.75,1.14,1.71,1.95,2.3.07.05.26-.06.35,0,.24.16.54.66.71.71.22.06.49-.07.7,0,.15.04.23.33.35.35.87.15,2.75.06,3.01-.88.1-.38.09-3.81,0-4.24-.37-1.61.26-4.26,0-6.36-.14-1.12-.08-2.28-.36-3.17-.2-.65.46-.97.36-1.59l2.12,1.94c.06,1.28-.09,2.6,0,3.88.81,12.07.51,24.89,1.05,37.08.09,1.93-.06,3.89,0,5.82.57-.19.75.33.89.35,1.12.2,5.15.16,6.35,0,.13,0,.22-.32.36-.35.36-.07.84.05,1.23,0l.36-1.59c-.05-.14-.33-.22-.36-.35-.8-4.5.08-13.6,0-18.71,0-.12-.35-.24-.35-.36-.09-5.35.06-10.71,0-16.06.32-.35,2.42,1.74,2.47,1.94.1.37-.08.98,0,1.41.03.14.34.23.35.36.85,6.81-.62,15.25,0,22.24.03,1.85.24,4.34.36,6.36.08,1.46-.06,2.95,0,4.41.66-.26.93.62,1.23.7.84.24,1.29-.33,1.42-.35,1.7-.25,3.88.18,5.65,0,.85-.76,1.04-1.9.88-3-.64-4.32-.02-8.93-.35-13.42-.13-1.65-.36-1.58,0-3.53.18-1.02-.48-2.7-.36-4.23.05-.59-.05-.85.53-1.24.44-.13.78.45,1.06.71,3.93,3.57,7.93,7.7,11.66,11.29,2.03,1.97,4.53,4.25,6.35,6.36.22.25.66.46.53.88Z"/>
  <path d="M308.64,209.97c-.36-2.15-1.4-4.58-2.12-6.71-.46-1.34-.84-2.69-1.41-3.88-2.56-5.38-8.05-13.06-12.54-16.42-4.57-3.42-9.94-7.24-15.54-8.83-1.44-.41-3.13-1.1-4.59-1.41-.64-.14-1.16-.21-1.76-.35-1.92-.45-3.34-.2-5.3-.35-1.77-.15-3.64-.93-5.65-.71-2.61.28-5.63.44-8.12,1.06-1.43.35-2.85.66-4.24,1.06-3.73,1.05-9.96,4.06-13.07,6.35-.6.45-1.22,1.01-1.76,1.42-.32.23-.57.62-.88.88l4.94,5.65,8.3,7.94h17.66c2.9.03,6.96-.31,9.88,0,1.46.16,3.11-.11,4.59,0l2.3,1.59,1.41,3.53c.2,6.07-.27,12.31,0,18.36.01.12.35.23.35.35.15,2.92-.36,5.52,0,8.13l-1.05,2.47c1.73,1.67,3.37,3.45,5.12,5.12,3.82,3.65,8.08,7.75,12,11.29.82.75,1.64,1.84,2.47,2.48.31.23.34.48.89.35-.47-1.11,1.26-1.77,1.41-2.3.48-1.66,2.15-3.57,2.83-5.29.37-.94.75-1.87,1.05-2.83.62-1.91,1.62-4.07,2.12-6,.58-2.22.61-4.47,1.06-6.71.85-4.25.37-11.97-.35-16.24ZM269.09,186.31c-.03.13-.63.86-.71,1.06-.08.21.09.52,0,.71-.11.25-.57,1.21-.7,1.41-.17.26-2.81,2.6-3.01,2.65-.22.06-.49-.07-.7,0-.15.05-.22.33-.36.35-.41.09-.98-.07-1.41,0-.13.03-.22.34-.35.36-.54.06-2,.1-2.47,0-.14-.03-.91-.67-1.06-.71-.3-.08-.76.08-1.06,0-.07-.02-.98-.64-1.06-.71-.33-.24-2.6-2.46-2.65-2.64-.06-.22.06-.49,0-.71-.04-.12-.97-1.02-1.06-1.41-.09-.41.08-.98,0-1.41-.02-.14-.34-.23-.35-.36-.07-.53-.08-1.59,0-2.12.02-.13.32-.21.35-.35.07-.33-.08-.78,0-1.06.08-.27.23-.61.35-1.06.05-.18,1.18-1.42,1.42-1.76.06-.09-.06-.29,0-.36.58-.76,1.57-1.18,2.29-1.58.38-.22,1.52-1.01,1.77-1.06.5-.11,1.22.09,1.76,0,.14-.03.24-.36.36-.36.11,0,.21.33.35.36.64.1,1.52-.14,2.12,0,.15.03,2.27,1.26,2.47,1.41.31.23,2.25,2.14,2.3,2.29.06.22-.07.49,0,.71.03.13.94,1,1.06,1.41.08.29-.08.74,0,1.06.03.14.33.22.35.35.09.65.12,2.96,0,3.53Z"/>
  <path d="M274.03,223.92c-.54.59-2.47-2.3-2.82-2.65v-14.3h2.47c.1,3.46-.13,6.95,0,10.42,0,.12.35.23.35.35.09,2.05-.06,4.13,0,6.18Z"/>
</svg>