<?xml version="1.0" encoding="UTF-8"?>
<svg id="Layer_1" data-name="Layer 1" xmlns="http://www.w3.org/2000/svg" viewBox="0 0 626.59 297.81">
  <path d="M251.65,282.8l.88-1.06,2.07,1,.41-1.35-1.05.35-.35-1.6,2.1.36,1.42-2.3-5.29-.17,2.82-.54.89-1.41.36,1.41,2.63-2.82-2.47.18,5.64-2.65-1.41.35.7-1.05h-3.88s.35,1.06.35,1.06c-.54-.77-2.7.72-3.19,1.21-1.22,1.23-.98,2.44-2.1,3.02l.71-1.93-1.77-.89c2.16-.13,4.15-1.11,5.29-3-1.39-1.56-2.41-1.1-3.89.02l1.06,1.39-1.66.42-.37-1.6c2.39-2.51,3.61-1.54,3.8-5.7-.41-.49-2.31-.25-2.47-.36-.11-.07.67-1.63-.93-2.09l-1.18.68.71-2.12,2.73,2.38,6.44-1.5-.91-1.63-4.94-1.73-4.73,1.41,3.52-1.77-1.05-1.4-4.94.7,1.41-1.76-2.82.35,4.23,8.47-19.41-.35c.05-2.48-2.15-4.6-4.59-4.06l1.41,1.59c-1.75-1.16-6.06-1.01-6.36,1.6,3.46,1.02,3.54-1.87,6.71-.54l.52-1.41,1.59,2.46-2.12,1.06,1.41,1.06-4.94-1.41-.35-.35c-3.11-.26-5.84-.54-8.12,2.11,1.96,1.1,2.48-.71,2.64-.7,1.37.09,5.2,1.74,7.24,1.41l-4.77,1.05c.38.36,4.69.38,4.92.27.64-.29.04-.94,1.16-1.6.83-.49,2.25.14,3.63-.63l1.76,5.12-1.76.71c-.18-1.26-.77-1.23-1.77-1.41-1.12-1.57-3.31-2.05-4.94-.87l.87,1.43c1.13-.06,3-.75,4.07-.56.12.17-.51,3.09,2.47,1.77l.36,2.29-1.77.53-1.06-1.41,1.93,2.75,1.42-.89,1.23,2.73-.71-1.41-.71,3.53-.88-1.75c-1.2,1.94-3.01.08-4.76-.01l.79-3.44-1.51-1.34-1.75,2.31c.69-2.59.11-3.65-2.01-5.23l-.82.46,1.4,1.06-1.38,1.4c.25,1.79,2.39,1.81,2.81,2.49.07.12-1.78.05.35,1.58-2.38-.3-10.1-3.88-11.82-3.88h-6.18l.53-1.76-.75,1.43-2.6-.03c.87-1.08-.38-5.49-1.76-6.53l4.94-2.65-2.02-.42c-1.17.59-1.9,2.03-2.95,2.69-1.3.82-5.37.79-2.8,2.32l-3.17-.7c.9,1.43,1.79,4,3.88,3.18-1.66,1.04.08,2.13,1.32,2.75.92.45,1.2-1.49,1.65,1.14l4.08,2.12-1.4,1.05c-.1-2.26-3.52-2.75-5.13-3.86l-2.11,8.45.88-1.94v-6.71l-2.47-1.94-1.41,2.65,1.08-3.54-1.44-1.59c.73,2.71-4.58,1.39-2.13,4.06l-1.41-.03c-2.37,2.38-1.91,7,1.41,7.98l-1.06,5.64v-5.12c0-.26-2.6-3.73-3.17-4.06-1.19,2.12-2.11,5.74-3.29,7.66-.22.36-1.86,1.58-2.51,2.61-1.64,2.61-3.3,6.47-5.5,8.27l4.22-7.42-1.76-.52c4.67-.28,5.71-7.16,8.11-10.42l-7.05,2.48,8.12-4.95c-2.02-.83.16-.78.37-1.11,1.23-1.97,2.69-5.81,4.56-6.48-2.55-1.02-4.64-.38-6.17,1.77l1.59-2.11-4.94,1.05.17-2.82c.86,1.73,4.87,1.84,3.35-.71,1.54,2.38,3.12,1.93,5.64,1.41-1.79-3.32-3.19-6.44-7.05-7.77l3.88,1.42-2.11-6.35,2.64,3.88,3-2.11-2.86,3.33,3.39,6.91.88-3.17-.7,4.23,1.08-.22c.76-2.36,2.48-3.17,4.21-4.36-1,1.04-1.91,2.21-2.99,3.19l-.19,1.4c6.01.42,12.14-10.76,3.17-4.59,1.62-1.69,3.14-2.36,4.05-3.87l1.24,2.81,3-.7-1.59,1.23,1.94,1.94.52-2.11.9,3.14,3.69.39-1.59-1.76,3,1.76c.64-2.77,2.12-5.03.01-7.61l-3.89.2,1.05,3.88-3.67-3.56c-5.62-2.83-10.49,4.26-11.5,3.21,1.54-7.32-2.72-10.9-9.69-10.93l-7.62,10.08c-2.58-1.04-3.53-1.65-6.34-.55l3.02,2.13,4.04-1.42.75,3.71-1.11,1.75-7.75.19.18-1.05-6.88,3.04-1.07-.58c1.16-.59,1.4-1.16,3.17-1.24l.71-1.23-4.18.05.3,2.42c-.49.25-1.71-.56-1.77,1.23l1.76.53-5.99,3.89.7-1.21c.47.43,3.12-1.62,3.19-1.8.4-.97-.92-.7-.71-1.39.06-.2,1.67-2.26,1.77-3.5l-1.77-1.28-.17-2.11-3.3,3.69c-.2.98,1.2,3.5,1.21,3.9,0,.17-1.77,4.05-1.62,2.48.12-1.38,1.52-4.41-.7-5.47l-7.06,11.65,3.15-6.9-1.04-.86c2.97.27,2.71-3.49,4.59-4.77l-5.64,2.12,9.52-6.36-1.76-.18.7-.7c-1.63-.46-.71,1.26-1.95,1.41-.15.02-.02-1.01-.96-.65-1.99.76-3.65,1.92-5.57,2.76l3.81-2.56c-.17-1.58,1.18-.35,2.54-.97l-2.29-1.78-2.64,1.26,2.31-1.94,6.15,1.75-.68-2.78,2.09-.76-.88-1.05-9,1.76.97-1.35,6.8-.77-3.4-1.74-3.84,2.45-2.29-1.41c2.62,2.3.62,5.02.18,7.77l-115.73-1.74c-6.51-1.99-26.9,1.78-31.1-2.48-.67-.63-.69-1.49-.87-2.31-2.92-13.94-1-38.51-1.4-53.32-.46-16.77-4.48-59.86.45-73.67.75-2.11,3.8-5.72,4.9-8.52,2.53-6.44,2.95-12.8,2.05-19.67.03-.05.82.45,1.05.2,3.26-3.73,6.05-7.2,10.62-9.53l1.48-.13,13.27,8.81.36,8.57,4.04.22c.65-.25,1.59-5.49,2.35-6.55,1.83-2.55,8.17-7.09,10.6-10.23,1.04-1.34,1.17-3.2,2.13-4.58l13.39-.89c-1.61,6.19-7.21,12.38-6,18.71l-1.05-2.11c-.35,2.23-2.35,4.94-2.77,6.95-.12.59,1.69,1.7-.41.81l-24,57.38v5.83l39.52,1.41-3.73-8.14c-5.23,2.63-11.76,4.11-17.43,2.33l9.87-25.61c-.54-.36-1.28,1.46-1.76.7-1.34-2.12,1.97-.34,1.58-2.11l1.23,1.05,2.12-5.12-1.41-1.05c.31-.58,2.74-2.03,2.85-2.19,1.35-2.04,8.25-18.93,8.95-21.6.18-.68-.4-2.03-.15-2.87l.88.7.87-1.6-2.4-2.53,1.37-1.7-3.55-11.11c3.22.77,4.22-1.04,7.77,1.06l-.69,2.24,1.57,1.64,4.95-11.29,5.4,5.76c-1.47,6.06-6.63,15.1-7.34,20.94-.16,1.32,0,1.76.36,3.02,2.22,2.44,4.54,3.69,7.51,1.29,1.1-.89,1.11-2.51,2.35-2.77l.06,2.42c4.2.96,4.5,2.74,4.88,6.59.6,6.12,1.08,31.1.03,36.37-.3,1.5-2.97,3.85-3.79,6.44-1.28,4.06-.32,10.52,5.34,8.87,2.78-.81.34-2.01,2.48-3.15,8.15,8,21.15,3.81,27.36-4.59l.36,9.18,21.18-.71-.16-3.9-4.94-3.16c-1.15-2.62-.04-6.1-.56-8.57-.1-.47-2.58-2.54-2.66-2.89-.06-.27.18-5.33.27-5.59.43-1.31,2.48-.59.99-2.87l1.34-.44.25-5.05c6-3.38,13.82-4.9,16.59-12l.18,3.88,1.05-2.11-.35,4.23.35-1.76-1.08.87.03,10.78.7-1.06.35,20.12c-.09.12-.7-.45-.7-.53v-17.12c-2.57,6.99,4.05,21.75-5.83,23.64l-.14,3.52,26.8,1.08-.16-3.9c-2.91-.88-4.56-1.51-5.1-4.78-.91-5.45-.44-35.53,1.77-39.82,1.34-2.6,3.91-4.31,6.86-4.46,2.44.06,4.93.85,5.8,3.35,2.55,16.36.14,33.38.7,49.97l20.83.35-.02-3.87c-2.75-.12-4.42-1.34-4.89-4.11-1.06-6.29.34-16.57.36-23.29,0-.75-.96-.24-.75-1.04l.7.18c-.39-8.61,2.25-25.2-8.12-29.12-8.63-3.26-17.29.5-22.93,7.23v-31.07h-1.06s.35,1.76.35,1.76c-4.16-.81-5.99,4.93-7.61,8.1-.3.58-1.4.58-1.51.79-.52,1.06.62,4.15-1.08,5.45l-3.56-.56c-1.92,1.39-2.12,16.18-1.79,18.91.18,1.46,2.43,3.35,1.43,5.8-1.64-5.68-3.22-7.78-9.16-9.01-1.81-.38-10.17-.27-9.89-2.11,7.72-3.94,23.35-10.54,17.64-22.06l1.41-.18-1.23-1.58-.17,1.76c-3.17-6.39-18.16-10.72-24.33-13.62l-2.69-14.96-1.84-1.69c-10.5-2.45-5.7,9.85-6.06,15.56l-1.98.27c-2.17-1.89-.93-23.96-5.8-26.88,2.3-1.74,3.24.55,4.33.64.26.02,4.49-1.13,5.02-1.7l1.89-5.85-1.01-.86,11.59.3,4.64-17.25.69,13.58-2.31,3.39,12.56.68-.06-2.06-2.26-1.44.55-2.5c4.32,3.54,5.62,24.53,11.21,25,3.45.29,6.52-6.38,7.42-9.02.41-1.2-.68-3.05,1.5-2.92l-1.08-1.26c1.7-4.74,6.45-7.04,10.09-10.03l.44,1.5-1.97,1.37-.06,2.06,11.14.03-.02-1.45c-3.85-.49-2.57-10.98-.53-11.99l.72.2c.4,2.75,3.14,6.71,3.42,9.24.32,2.88-1.67,1.68-1.18,4l10.79.68-7.06-16.42,3.72-.16c1.17-2.44-.38-6.01.58-8.25.35-.82,1.48-.31,1.73-1.48.04-.2-.04-3.94-.09-4.14-.32-1.39-1.76-2.33-2.13-3.55-2.15-7.22-1.68-13.3-2.4-20.72l8.25,9.92c1.52,1.65,1.92,8.01,3.93,8.45,1.43.31,7.9-4.72,8.29-6.72.8,1.43-.11,5.15,2.55,4.88l18.97-10.02c1.74,1.73,1.24,4.7,2.03,6.46.71,1.58,3.07,2.49,3.92,3.85,2.37,3.81.75,7.68,2.17,11.42h-3.53c-.79,2.42,1.38,2.14,1.75,3.73.92,3.9-.36,12.63,0,17.3.2,2.52,1.42,4.8,1.07,7.23,4.98.25,8.04,1.23,11.64-3.18l.06,3.3,8.77.23-.06-2.06-2.07-1.98c.46-11.3-2.28-25.89,7.07-34.09l-.33,34.09c-.27,2.39-2.94,1.1-2.14,4.05l10.94.35-.06-2.06c-1.87-.41-1.85-1.42-2.07-3.05-1.39-10.17,1.63-25.68.7-36.4.5-2.31,4.63-2.36,4.27-6.33-.21-2.33-6.66-8.64-8.49-10.41l25.67,3.79,1.87,1.41,1.05,9.97,1.42-2.12,2.46.72-.52,2.82h2.29s-1.07-1.56-1.07-1.56l2.49-7.97,1.42,3.01,2.28.52-.52-2.47,5.81,1.77c.83-3.71,6.43-2.85,8.65-.71l.54-1.05c.05,1.56,3.51-1.06,3.85-1.44,1.41-1.6,1.92-3.66,2.74-5.55l2.06-.06-2.12,5.99,3.88,1.42-1.06,7.06.86-.02c1.5,0,3.1-3.51,4.36-4.57,1.52-1.27,9.04-6.59,10.5-6.72s3.68.84,5.56.29c.93-.27,2.37-2.79,4.14-2.39v6.18c0,1.41,1.36,7.62,2.62,8.32l10.35-.11c6.03,7.13,13.67,12.23,21.15,17.68.84.01,1.53-1.25,1.86-1.9,1.14-2.23,3.89-12.64,4.73-15.75.6-2.23.99-9.53,2.24-10.91l2.57-1.04-.35,2.47-.88-1.06-1.21,1.19,2.8.58-.36,1.05c.53.12,1.04.28,1.59.35,4.29.6,2.68-1.45,5.47-2.46l-.7,1.41h1.76s.45,2,.45,2c.87-.17,3.76,1.49,3.97,1.53.96.17.36-1.01.53-1.06.43-.13,1.46.82,2.11-.53l-1.74-.35,1.75-1.24,4.46,6.32,9.12-2.79.54,2.12-1.02.48,2.42,3.93-1.04.54,2.63,1.42.89-1.08-.18,1.77c.7,1.18,1.89-1.68,1.6.71l1.23-.36.18,1.41,3.53-.7-.36,1.05,2.24-.29,10.58,5.66,2.71-.78-2.46,3.88,5.65-.7c.13.12-.41,1.02-.36,1.05,2.22,1.45,7.85,2.78,10.59,2.84l-.35,3.17,2.79.58c.18,4.61-2.47,20.92.03,23.97,6.01,4.58,11.42-1.09,10.59-7.6h-1.77c.26,1.93-1.06,7.72-3.45,4.69l.63-20.57,5.21,2.4,2.01-.65,6.9-24.69c5.28,2.64,10.42,5.67,15.49,8.68,5.56,3.31,7.76,4.64,13.62,7.56,7.02,3.49,13.94,7.18,21.15,10.28l.2,1.72h-11.12l-.9-.14c-.56-3.67-2.71-6.52-6.05-8.1l-1.74-.02c-.94,2.71-1.9,5.57-2.08,8.45-.08,1.25,1,3.85.91,4.43-.05.34-3.1,4.51-3.67,5.84-2,4.64-2.83,9.39.13,13.89l-.1-12.3c3.19-5.06,5.25-9.39,11.78-10.61,5.64-1.06,12.47-.8,16.57,3.48l4.39-1.24c.98,2.63,3.62,1.8,4.93,2.5,2.03,1.08,2.6,7.99,8.13,4.91l1.75,5.85-2.93-.29c-3.32,3.17-4.94,5.38-3.77,10.18l-10.59-2.46,10.95,3.34.28,2.07-5.99,2.17-5.6-4.05,4.22,4.41c-7.79,2.94-16.67,1.26-24.68-.37-3.59-1.42-6.66-3.9-8.66-7.22l1.6,3.34c3.84,4.8,9.89,5.89,15.7,6.53,8.5.94,15.96-.19,23.92-3.13,2.73,5.06-.05,11.75,4.47,16.75l5.21-4.8c2.29-.72,9.54,5.19,11.91,2.14l3.36,3.52-6-1.41,1.01.88c-2.32,4.6,1.25,5.58,3.23,9l1.37-.57.39-4.54.89-.19c1.64,2.05.05,8.99.26,10.73.11.92,1.26,1.26,1.34,2.5.24,3.41-5.8,9.14,5.07,6.18l1.88,1.16,2.15,9.7-4.41,4.28c-9.26-5.1-16.89,1.75-21.12,9.59l.53-11.65-21.88.35-.31,4.2,5.8,3.19c.27,2.28.2,4.61.15,6.89-.17,7.96-1.46,31.5-3.33,38.33s-7.8,1.45-6.49,8.05l29.59,1.12.02-4.79-5.26-.74-1.91-1.62c.12-14.62-.07-32.41,9.44-44.39l3.81,5.36c3.06,1.46,5.91,1.02,9.06.28l5.93,15.08c6.91,4.87,7.76,10.44,9.96,18.11.15-2.23,3.21-4.22,3.47-5.56.44-2.33-2.03-5.86,2.17-6.79.67,1.6-.7,3.44-.7,4.73,0,.08,1.06.66,1.06,1.1,0,.23-.57-.5-.34,1.71,0,.09-.88.18-.68,1.39.05.27,2.54,3.02,1.38,5.03l-3.9,46.41c-5.23-3.8-10.9-6.68-17.63-5.46-5.71,3.76-3.72,10.92-4.23,16.95-.19,2.27-1.98,4.26-.37,7.22l-2.11.18,7.05,5.3-1.76,1.23,3.9.88c-1.23,1.88-3.3,3.39-3.81,5.74-.15.69-.72,4.83-.79,5.6-.16,1.66.24,4.42.35,6.15-3.52.17-1.79-3.13-5.72-2.39-3.57.67-2.22,2.79-2.41,3.06-.22.32-6.65,3.31-7.03,3.4-4.89,1.12-14.95-.8-19.97-.86-18.13-.23-36.34.09-54.5-.74l.88-1.4c-3.7,1.29-9.31,1.12-13.43,1.06-28.84-.43-57.73-2.44-86.5-3.41-27.07-.91-54.29-.34-81.29-2.61l7.01-8.07-11.6-3.93.36-.7c-5.98.46-5.82-8.1-11.12-9.38-5.08.9-9,8.63-9,13.09v5.47c3.16-2.14,9.63-7.46,4.6-11.13l2.81,1.59,1.06-4.41-2.81-1.77,2.13-.34,1.39,1.57v-3.53s1.41,2.81,1.41,2.81c-1.47.47-3.3,5.58-.71,4.42-1.89.81-2.72,1.95-2.82,4.06l4.57-1.95c-1.41,1.57-9.04,4.03-4.23,5.12-2.33-.29-4.58,2.16-6,3.88l9.32-.74,4.45-7.02.53,1.41c2.59-1.92,6.15-1.35,8.64-.71h-1.77s0,1.41,0,1.41l3.17-.36c-1.24.27-2.44.78-3.53,1.42-.35-.81-.79-1.48-1.02-2.3h-3.23s-5.28,5.48-5.28,5.48c2.45-.68,5.25-.31,7.62-1.38,1.08-.49,1.1-1.32,1.91-1.8.12.27-.09,1.02,0,1.41,1.63-1.22,4.83.08,5.64-1.94.06-.16-1.92-.84-.55-.86l1.96.34-1.05,1.41,2.82.35h-1.41s.16,1.06.16,1.06c-2.94-1.76-.86,1.07-3.69,0l1.06,1.41-2.47-1.41.36.7h-3.18s2.47,2.82,2.47,2.82c-2.86-.4-2.58-3.76-6.7-2.11l2.57,3.77,1.49-.95-.34,1.61-5.06-3.62-4.66.25,1.74,2.67,2.5-.2c-.51,1.25-2.27.76-.69,1.93l4.22.36-3.88.18-.34,1.59,2.45,1.23-3.17-.35v1.06s-1.41-.35-1.41-.35l-.35,1.4c2.48.43,1.67,1.98,1.76,2.13l-.85-.37c-.44,1.06-2.1,1.03-3.03,1.08l-1.76-.71v1.06c.6.13,1.25-.33,1.76-.35l-.71,1.94,3.18-.18.84,1.35.93-3.47c.36.57,1.95,3.11,2.47,2.83l-2.41.17,1.52,4.43,1.24-.02-.02,4.04-1.39.55-.69-2.7-3.9-1.89.34,1.61,1.42-.2-1.06,1.05,2.12-.35v1.4s-1.76-.35-1.76-.35l3.17,3.35-1.76-.18,1.05,5.29c-1.42-.74,0-3.58-2.47-3.88.72.98,0,.99-.7.17-.06-.28.48-.2.7-.17l-1.76-1.94,1.41-.53-2.11.36,1.24,3.16-4.06-2.47.7-.7c-3.78-.97-6.8-5.7-9.88-8.12l.7-.17-1.23-3.36h-1.94s0,1.06,0,1.06c1.76-1.04,2.08,2.06,2.47,2.47-1.28-1.01-3.01-2.89-4.76-2.85l-15.71,4.26,3.69-4.59-1.93-.26,1.06-4.68-.17,1.77,1.56-.39-.32-2.09c2.18,2.07,2.05.7,2.29.7.33,0,2.35,2.13,1.77-.34l1.76.69.89-1.05-3.53-.36,1.06-1.05,3.52,1.05,2.48-2.81c-1.64.24-4.1-.34-6.09.37-.4.14-.23.67-.26.68-.06.03-.57-.41-.69-.35-.15.07-.19,2.29-2.3,1.76l.87-2.11-1.87-.03-1.3,2.85,1.29-3.5,6.12-.38-4.58-1.77,1.76-1.58-1.76-.54.7-.35-4.24-2.12,2.82-1.41-.35-1.41,1.13,1.54,5.57,1.28-3.17-3.88,4.23,1.41-1.41.18c1.51,3.85,6.36,3.66,9.74,4.74l.84-.49c-.18-.62-1.28-.76-1.41-.89l-.35-.35c-4.86-4.65-14.23-9.12-17.94-.93l2.59,2.36-.18,2.46c-4.57-.6-5.64-4.83-10.42-5.29s-6.68,1.13-10.4,3.52c-.47-.56,3.41-10.72-1.59-13.77-3.04-1.85-13.45,3.46-17.47,3.54l.7.52-1.4.7.54,1.27,1.92-.73-1.05,1.41h1.76s.36-2.28.36-2.28l-1.76-.36,2.81-.53-.7,3.88,5.29,2.12-.88-5.65-3-.7,4.59.71.39,6.14c2.13,2.97,5.42,2.92,8.42,4.62-4.77-1.46-12.84-2.73-13.06,4.5l5.65,1.67-.36-.7h1.76s-1.76-2.47-1.76-2.47l3.31,1.39c1.47-4.53,7.93-4.96,11.69-7.4l.53.7-6,2.83,4.75.73,1.96-1.79-.7,1.41,2.38-.79.5-2.34,1.7-.58-.7,2.65,4.23-1.41.71,2.11-5.64.54,2.64,2.99c-1.74-2.45-3.72-2.69-6.52-2.11l1.76,1.76-3.17.36,2.72,3.1,6.1-.1-5.29.88,2.12,2.82-2.82-2.11-.36,4.94-.54-5.64-4.05-3.18.7,2.82c-2.87-2.02.98,3.08-1.76,3l.62,3.89-.97.17-.03-2.62-1.73-.2c2.33-2.15,1.85-5.36,1.95-8.14-.31-.56-1.1.09-1.25.02l-1.06,1.06-.35-1.76c.7,0,.68.34,1.41.7l.35-1.05-2.97.33.85,4.6-1.77-3.17-1.89,1.87,2.95,6.6-3.58,4.91-2.41.74,6.35-2.47-1.41-1.41,7.76,1.06c-4.76-1.43-8.28,3.04-11.82,4.24-.11.04-.12-1.28-1.58-.35l1.41.7M422.12,8.48l-.52.53.16.16.36-.34v-.34ZM422.11,9.88v.35l.18-.18-.18-.18ZM414.35,10.23v.35l.18-.18-.18-.18ZM430.41,13.41l1.07-.88-.9-1.24-.17,2.11ZM436.4,15.88c.12-.14-.21-.38-.35-.53-.83-.55-.22,1.21.35.53ZM443.11,16.23c.12-.14-.21-.38-.35-.53-.83-.55-.22,1.21.35.53ZM311.12,18c.04-.85-.34-2.21-1.41-2.11.43.69.58,1.74,1.41,2.11ZM317.47,16.94v.71s1.42,0,1.42,0v-.71s-1.42,0-1.42,0ZM369.53,18.35c-4.05-.47-8.91.35-13.06,0l-.49,1.53c.32.93,1.96.31,2.43,2.88.75,4.07-.2,25.66-.7,30.73-.25,2.57-.05,4.78-3.03,5.44l-.13,1.21,12.68.92v-1.88s-2.44-2.21-2.44-2.21l.48-15.35c.72-.94,11.63,1.47,14.73-7.15,3.02-8.41-1.83-15.13-10.47-16.13ZM376.41,18.36l-1.05.53.35.88h.7s0-1.41,0-1.41ZM320.65,33.89h4.94v-2.47h-4.94l.35-12.71-2.67.33c-.61,4.89-2.46,9.59-7.03,12.03l-.18,2.47h2.83c1.56,5.75-4.3,25.2,4.09,26.09,6.11.65,7.49-3.4,7.91-8.62l-2.12-.52-1.77,5.49-1.74-1.08.34-21ZM430.76,23.3s-.74-.14-.71.18c-.07.7.08.69.53.17.13-.08.25-.23.17-.35ZM386.82,23.65v.35l.18-.18-.18-.18ZM388.41,25.06l-1.06-.7v.7s1.06,0,1.06,0ZM430.4,26.82c.12-.14-.21-.38-.35-.53-.83-.55-.22,1.21.35.53ZM308.12,27.18v.35l.18-.18-.18-.18ZM216.19,48.19c-.21-1.57.15-3.5,0-5.12l12.35.36c.48-5.77-1.58-14.95-8.63-15.55-13.64-1.15-14.6,23.82-4.43,28.08,2.41,1.01,2.65,1.06,4.59-.53l.52,1.41,2.28-.55.37-2.98-1.4,1.41-.21-1.08c-3.31.53-5.07-2.71-5.44-5.45ZM239.83,28.59h-9.18l.06,2.06c.63.27,1.75.64,2.08,1.27.49.92.65,19.18.29,20.83l-2.27,1.95-.17,1.78,11.51.03.85-1.8-2.67-.69c-2.06-1.75-.48-17.29,1.62-20.14,1.26.11.61,1.22,2.1,1.95,2.14,1.04,3.98.41,5.25-1.46l.43-1.72c-1.16-6.62-7.95-4.26-9.91.53v-4.59ZM309.36,45.54c.39-26.51-26.54-15.21-18.88,6.35,3.83,10.79,19.02,9.35,18.36-2.48-1.81-2.5-2.46,6.48-7.12,6.71-5.11-.19-5.12-6.8-5.07-10.57h12.7ZM400.76,55.07l-1.6.34-1.05,2.84-.82-.59c-1.09-5.45,2.55-18.29-.76-22.54-2.87-3.17-9.6-3.03-12.88-.52l-1.9,1.98c-1.55,3.06-.2,5.85,3.28,6.11,2.3-.25,3.71-1.92,3.31-4.3l-2.05-2.2c5.99-3.34,5.41,3.71,4.88,7.53-5.13,1.63-11.65,6.23-11.6,12.24.05,6.9,8.28,8.25,11.49,2.66l2.39,2.89c5.16,2.46,7.47-1.87,7.31-6.43ZM418.41,33.53c-1.65-.62-2.53,1.04-3.67,1.06-1.42.03-3.01-1.76-5.95-1.33-5.46.8-6.55,7.91-4.69,12.28,2.24,5.26,15.79,8.59,8.68,14.66-5.55,1.06-7.12-5.26-7.95-9.38l-1.94-.35-.37,11.84,3.38-1.26,7.24,1.26c7.51-3.33,7.78-10.37,2.1-15.91-1.44-1.4-12.79-7.75-6.63-10.5,4.51-2.02,6.65,5.09,7.38,8.16l1.74-.11.69-10.44ZM437.69,35.78c-4.14-4.13-17.14-1.63-14.89,5.54.91,2.88,5.73,2.84,6.74,0l-1.27-4.79,3.18.02c2,.86,1.48,6.19,1.25,7.94-6.15,2.28-13.48,6.94-11.5,14.67,1.11,2.83,4.05,4.45,7.02,3.44l4.65-2.93,1.79,2.63c2.25,1.41,5.33.9,6.54-1.55l.86-4.97-1.38.03-.74,3.15-1.4-.88c-.64-5.03,2.63-18.66-.83-22.29ZM452.64,39.54l.02-5.14-8.49.2c.44,3.8,2.32,1.85,2.49,6.9.07,2.1-.79,17.53-1.43,18.34-.36.45-1.53.61-2.05.95l-.07,1.7,11.84.02.11-1.74-3.11-1.65c0-6.5-.05-13.27,2.82-19.23.63-.45,1.46,2.93,5.04,2.04,2.88-.72,3.07-5.1.95-6.8-3.98-2.09-6.39,1.47-8.11,4.41ZM468.87,50.13l11.11.37c2.85-.71-.41-11.88-2.62-13.98-12.11-11.48-22.4,21.39-9.29,26.6l3.46.81c4.95-.13,8.82-4.11,9.01-9.03l-1.8-.72c-.84,2.76-1.77,6.01-5.1,6.57-2.43.91-4.76-3.03-4.76-4.78v-5.83ZM228.54,46.95l-2.1.02c.39,2.22-2.55,4.43-1.08,5.98l-1.4-.17,1.39,1.42-1.05.52c3.34-.04,4.43-4.98,4.24-7.76ZM399.17,47.31v.35l.18-.18-.18-.18ZM328.18,58.49l3.74,1.73-4.17,6.41,1.14,1.47c4.76-3,10.24-9.9,5.51-15.3-2.44-1.83-5.95-.92-6.87,1.92l.65,3.78ZM136.96,55.43v.35l.18-.18-.18-.18ZM545.75,60.65c1.32-.85,1.69-5.77-1.45-4.82-2.66.81-.76,6.23,1.45,4.82ZM146.84,56.84v.35l.18-.18-.18-.18ZM536.34,62.05c.14.12,2.39.52,3.11,1.68l-6.52-6.88c.48,1.42,2.38,4.29,3.42,5.2ZM559.23,61.78l2-2.35-1.85-2.59-1.57.36.7,1.05-1.06-.17.17,2.99,1.6.71ZM180.19,57.54h-1.06s0,1.06,0,1.06h1.06s0-1.06,0-1.06ZM571.92,60.02c.23-.17,4.19-2.46.34-1.61-1.29.28-12.57,8.05-12.69,8.86-.14.99.89.44,1.31.25,1.88-.83,7.97-5.61,10.33-7.14.18-.12.45-.16.71-.35ZM159.01,72.73h3.17s.18,1.06.18,1.06l2.26-1.95-.49-2.65h-2.3s0-1.41,0-1.41l1.41.35c-1-2.14-1.8-3.82-4.93-4.77l1.4-.18-.7-1.76,1.53-.43-.65-2.4-3.02,5.27-1.74-.68-.16,2.14-1.26.33.7,1.05-1.94-.34-.88,1.05,1.06,1.4-3.34-1.4-.54,3.87-1.56.99-2.67-2.04,1.76,3.17-2.15.24.02,2.77,4.25,2.28-1.57,2.12-2.65-2.64-.72,6.53c1.51-.6,2.74.07,4.06-1.42h.88s-.7,1.77-.7,1.77l1.62-1.4,1.55.69-1.06-2.97,1.41-3.03h1.42s-1.76-1.23-1.76-1.23l2.11-.89-.19,1.06,1.6-.35.53,1.76,1.56-3.71,2.51.54v-2.82c-.28.41-.7.96-1.24,1.09l-3.34-.03,4.06-5.64-.18,2.11h1.41c.25.3-.46,2.12-.71,2.48ZM134.66,58.96l-1.41.53.53,1.23h.88s0-1.76,0-1.76ZM137.48,58.96h-.7v.34h.7v-.34ZM274.77,58.96c-.54.3-2.03.04-2.11.7.58-.03,1.99.05,2.11-.7ZM131.82,61.78c0-.38-.31-.69-.69-.69s-.69.31-.69.69.31.69.69.69.69-.31.69-.69ZM156.54,62.84l-.55-1.04-1.21.51,1.76.53ZM138.49,65.61l.24-1.34-1.94-1.07-.21,2.14,1.92.28ZM147.72,63.9c.12-.14-.21-.38-.35-.53-.83-.55-.22,1.21.35.53ZM161.13,63.2c-.06-.04-1.01-.04-1.05,0-.63.46,1.68.41,1.05,0ZM549.34,66.01l1.93-1.08,3,1.27c-1.39-2.13-4.28-3.03-5.61-.41l4.56,1.64-.39-1.04-3.49-.37ZM540.51,65.66c.22-.45-.53-1.22-.7-1.06-.22.44.52,1.22.7,1.06ZM150.89,67.07c.62-.81-.67-.79-.7-.17-.01.31.68.2.7.17ZM181.25,66.37h-1.05v.7h1.05v-.7ZM538.57,66.37h-5.82c2.18,1.95,3.84-.09,6.35.7l-.53-.7ZM139.95,66.73c-.06-.04-1.01-.04-1.05,0-.63.46,1.68.41,1.05,0ZM146.66,67.43v-.7h-.34v.7h.34ZM214.07,67.08c-.75-.18-1.1-.6-1.41.34l1.41-.34ZM182.66,67.08l-1.06.7,1.05.36v-1.06ZM269.2,68.73c.46.17.85.59,1.43.4l.96-1.17-3.52-.89,1.05.7c0,.21-.04.91.08.95ZM138.9,68.49c.12-.14-.21-.38-.35-.53-.83-.55-.22,1.21.35.53ZM177.19,67.78v.35l.18-.18-.18-.18ZM175.25,68.84l1.4-.17-.52-.52-.88.69ZM179.13,69.19c.16-.18-.64-.92-1.06-.7-.17.16.62.92,1.06.7ZM265.94,68.49c-.53.07-1.51-.3-1.41.34.53-.07,1.51.3,1.41-.34ZM180.86,69.25c-.41-.18-.94,0-1.38-.06l-1.41,2.82-3.7-2.47-.2,1.6c-2.24-.04-2.29,1.68-1.76,3.34l-1.24.71-.53-1.06-2.11.36,2.11,1.4-1.95,1.07-1.05-.7c1.17,1.98-.29.57-1.58.87l2.64,1.23c.22-2.67,2.06-1.26,2.3-1.41.09-.06-.97-1.69,1.05-1.24l-.7.88,1.58-1.41,2.68.86.5,1.61,4.6-7.06,2.29,2.82-.71-3.53-1.41.35c-.02-.24.06-.96-.04-1ZM231.36,69.2h-.7v.34h.7v-.34ZM539.81,70.25l-1.19-1.05-1.99,1.4,3.17-.35ZM259.42,72.73v.35l.18-.18-.18-.18ZM126.02,73.43v.35l.18-.18-.18-.18ZM161.13,73.44c-.66-.1-1.23,0-1.41.7.66.1,1.23,0,1.41-.7ZM166.78,73.44h-1.76s0,1.05,0,1.05l1.76-1.05ZM253.24,74.84c.04-.49.38-.91.35-1.41-.44-.16-1.07,1.53-.35,1.41ZM273.71,74.14v-.7s-1.41.36-1.41.36l1.41.35ZM180.9,75.2l.7-.88-1.41-.53.71,1.41ZM165.37,75.55c-.23-.67-1.1-1.03-1.76-1.05.13.54,1.25,1.04,1.76,1.05ZM274.77,75.2l-2.11-.35c.27.97,1.66,1.44,2.11.35ZM166.42,75.9c.62-.81-.67-.79-.7-.17-.01.31.68.2.7.17ZM256.41,76.96c.12-.52-.16-.75-.53-1.05-.07.32.14,1.21.53,1.05ZM174.54,76.96l-2.12.17,2.11,1.24v-1.41ZM185.48,76.97h-.7v.34h.7v-.34ZM275.07,77.02l-1.71-.05c1.7,4.86.32,8.96-.33,13.91l1.38.73-1.75.18-1.31,6.89,1.14,1.22.56-4.9,1.38-.4-1.06-2.11,1.24.71.88-6.36-1.41.18,1.48-1.01.28-6.32,1.76-.97h-2.11s-.41-1.71-.41-1.71ZM164.66,79.43l-.17-2.11-.53,1.22.7.89ZM170.31,78.02c.62-.81-.67-.79-.7-.17-.01.31.68.2.7.17ZM171.72,78.38c.18-.95-.16-.86-.7-.17-.02.37.64.08.7.17-.09.45-.08.79-.53,1.06l-1.4-.71,1.25,1.62,1.39-1.27c.38-.97-.67-.66-.7-.7ZM146.84,79.08v.35l.18-.18-.18-.18ZM163.07,79.08v.35l.18-.18-.18-.18ZM155.84,79.44c-.45-.22-1.22.53-1.06.7.44.22,1.22-.52,1.06-.7ZM161.13,80.14c-.3-.77-.59-.84-1.06-.17l1.06.17ZM184.77,79.79h-.7v1.05h.7v-1.05ZM259.95,79.79l-1.76.35v.7s1.76-1.05,1.76-1.05ZM155.49,80.85c.41,1.72,3.91-.29,3.87-.54l-3.87.54ZM172.78,82.25c1.1.08,1.44-1.27,1.41-2.11-.5.63-.96,1.42-1.41,2.11ZM271.24,80.84v-.7h-.34v.7h.34ZM154.32,80.95l-.95-.46-.19,1.41-1.58-.36,1.91,1.41.8-2ZM181.25,81.55l-.7-1.05v1.05s.7,0,.7,0ZM166.6,80.85v.35l.18-.18-.18-.18ZM166.95,81.55v.35l.18-.18-.18-.18ZM171.54,81.55v.35l.18-.18-.18-.18ZM180.19,82.26c-.61.12-1.21-.27-1.75-.19.26.51,1.73.96,1.75.19ZM151.96,82.96c.12-.14-.21-.38-.35-.53-.83-.55-.22,1.21.35.53ZM334.58,82.27l.18.53.18.16v-.34l-.36-.34ZM181.25,82.62s-.74-.14-.71.18c-.07.7.08.69.53.17.13-.08.25-.23.17-.35ZM158.3,83.67v-.7h-.34v.7h.34ZM168.01,82.97l.18.53.18.16v-.34l-.36-.34ZM160.78,84.37l-.7-1.06-.35,1.24,1.05-.18ZM181.78,83.32v.35l.18-.18-.18-.18ZM146.66,84.73l-2.47.71.71,2.47,1.76-3.18ZM152.13,85.09l.18.53.18.16v-.34l-.36-.34ZM159.54,85.08v.35l.18-.18-.18-.18ZM165.19,85.08v.35l.18-.18-.18-.18ZM175.25,86.5l.18-1.05-1.24.35v.7s1.06,0,1.06,0ZM159.72,87.55l.18-1.75-1.23.88,1.05.87ZM165.36,85.79l-2.47.53,1.88.91.59-1.44ZM167.66,85.79v.35l.18-.18-.18-.18ZM169.95,86.49l-1.06-.7v.7s1.06,0,1.06,0ZM171.36,85.79s-.72-.14-.7.17c.03.62,1.32.64.7-.17ZM179.66,85.79v.35l.18-.18-.18-.18ZM228.36,85.79v.35l.18-.18-.18-.18ZM167.13,87.2l-1.05-1.05v1.05s1.05,0,1.05,0ZM160.07,88.96l1.49-1.15-.27-1.31-1.23,2.47ZM179.22,86.84c0-.24-.2-.44-.44-.44s-.44.2-.44.44.2.44.44.44.44-.2.44-.44ZM180.89,87.55l-.53-1.05-.53,1.05h1.06ZM228.72,86.5l-.52.53.16.16.36-.34v-.34ZM151.07,86.85v.35l.18-.18-.18-.18ZM177.9,87.2v.35l.18-.18-.18-.18ZM251.47,87.56l-1.35,1.25,1.57,1.95-3.07,2.97.75,1.24,1.7-.65,1.29,1.69,1.23-4.22-1.05.35c1.76-3.19-1.23-1.37-1.07-4.59ZM162.19,90.73c0-.06-.69-.22-.35-1.05l3.72-.11.51-1.13h-3.87s-1.11,1.76-1.11,1.76l1.28,1.58c.57-.26-.18-.89-.18-1.06l1.79.92,1.03-1.43-1.08-.36-1.75.88ZM167.13,88.97c.22-.45-.53-1.22-.7-1.06-.22.44.52,1.22.7,1.06ZM170.48,87.91v.35l.18-.18-.18-.18ZM172.42,88.96c.11-.67-.41-1.17-1.06-1.05.34.61.19,1.29,1.06,1.05ZM255.71,87.91c.09.47.96.99,1.4.88-.42-.4-.72-1.02-1.4-.88ZM179.57,88.61c0-.24-.2-.44-.44-.44s-.44.2-.44.44.2.44.44.44.44-.2.44-.44ZM168.19,89.67l1.05-.53-.52-.52-.53,1.05ZM170.4,88.96c0-.24-.2-.44-.44-.44s-.44.2-.44.44.2.44.44.44.44-.2.44-.44ZM469.13,89.95l-.44-.97-3,.7,1.95,1.43,1.49-1.16ZM217.24,89.32h-.7v.34h.7v-.34ZM167.83,89.68h-.7v.34h.7v-.34ZM164.31,94.97c-.1,1.87.07,3.78,0,5.65l1.77-.18-1.41-2.64,1.58-.35.19,1.4,1.4-.18-1.04,2.3,1.05-.35.71,1.76-2.49,2.66,1.08,1.23v-1.76s2.43-.24,2.43-.24l-1.03-3.82,1.07-.89-1.05-1.76,1.05.7-.7-1.24,4.93-.71-6.35-.53-.36-1.76h2.82c.34-1.52-1.78.19-1.76-.53,0-.31,1.86-1.67,2.3-1.93l.33,1.39.54-3.51-2.99,2.13-2.64-1.78-2.15,2.35c-.22,2.39,1.36,1.77,1.44,1.89.57.84-.7.66-.7.71ZM176.4,90.02c0-.24-.2-.44-.44-.44s-.44.2-.44.44.2.44.44.44.44-.2.44-.44ZM470.28,90.38c.62-.81-.67-.79-.7-.17-.01.31.68.2.7.17ZM64.61,90.03v.35l.18-.18-.18-.18ZM169.6,90.73c.62-.81-.67-.79-.7-.17-.01.31.68.2.7.17ZM160.42,90.38h-.7v.34h.7v-.34ZM255.62,90.15l-.29.44,1.63,1.08.29-.44-1.63-1.08ZM471.79,91.08c0-.24-.2-.44-.44-.44s-.44.2-.44.44.2.44.44.44.44-.2.44-.44ZM173.48,91.09h-1.05v.7h1.05v-.7ZM472.75,91.09h-.7v.34h.7v-.34ZM56.32,92.14c.12-.14-.21-.38-.35-.53-.83-.55-.22,1.21.35.53ZM174.54,92.5c-.81-.62-.79.67-.17.7.31.01.2-.68.17-.7ZM180.01,92.5v.35l.18-.18-.18-.18ZM172.42,93.56h-1.06s0,.7,0,.7l1.06-.7ZM54.55,94.61v-.7h-.34v.7h.34ZM269.47,94.27l-1.05.17,1.05.53v-.7ZM168.01,94.97v.35l.18-.18-.18-.18ZM301.77,94.97h-5.47c-1.2,11.48-6.74,22.49-17.65,27.36v5.12c1.07.66,3.34-.73,3.52-.71.2.03,1.23,2.01,3.54,1.06l-1.07,44.68c.41,9.15,6.24,13.04,15.02,12.53,11.2-.64,14.5-10.39,14.28-20.14h-4.59c-.38,3.95-.3,8.61-3.4,11.6-2.85,1.68-5.18.73-5.74-2.63l1.02-45.69,11.82.35.89-5.3-12.55-.69.38-27.55ZM57.73,95.68h-1.06s0,.7,0,.7l1.06-.7ZM55.43,96.03v.35l.18-.18-.18-.18ZM177.72,96.03h-.7v.34h.7v-.34ZM250.42,100.26c-.05-.58,1.16-2.83-1.41-3.88-.15,3.79-.94,7.22,1.41,10.94l1.98-2.64-1.98-4.07v-.35ZM176.66,96.74h-.7v.34h.7v-.34ZM76.43,98.5l.35-1.41-1.05.88.69.53ZM173.84,97.79c-.3-.77-.59-.84-1.06-.17l1.06.17ZM248.65,97.09h-1.41s0,1.05,0,1.05l1.41-.36v-.7ZM79.14,97.91c-.24-.23-.88-.09-1.12-.46l.18,1.4h1.41s-.34-.82-.47-.94ZM60.38,97.79v.35l.18-.18-.18-.18ZM171.72,97.8l-1.75,1.24,1.5-.19.25-1.05ZM174.63,100.26c0-.24-.2-.44-.44-.44s-.44.2-.44.44.2.44.44.44.44-.2.44-.44ZM59.49,101.32l-.17-1.05-.53,1.05h.7ZM171.01,100.27h-.7s.53,1.41.53,1.41l.17-1.41ZM81.31,102.67l.41-1.35-2.11.89,1.69.46ZM60.2,102.39c-.06-.04-1.01-.04-1.05,0-.63.46,1.68.41,1.05,0ZM528.16,103.8c-.47-.52.41-1.42-2.69-1.37-4.99.08-6.11,5.56-3.66,9.13l1.06-1.41v2.3c2.93.87,2.61-1.43,5.04.11,2.21-1.5,3.35-4.38,3.07-7l-2.12,1.23v-.88c.29-.19.9-.04,1.25-.71l-1.08-2.11c-.35.35-.51.43-.88.7ZM172.07,102.74l-1.07.23-.34,1.53h1.06s.35-1.76.35-1.76ZM219.55,102.74l-.54,1.56,1.23,1.26.47-1.5-1.17-1.32ZM79.46,103.46l-.62,2.03.71.22.62-2.03-.71-.22ZM268.42,103.45h-.7v.34h.7v-.34ZM270.18,103.8l-5.99,3,1.76-.88c2.01,1.31,3.66.2,4.22-2.12ZM362.29,103.8s-.74-.14-.71.18c-.07.7.08.69.53.17.13-.08.25-.23.17-.35ZM85.96,105.56v-.7h-.34v.7h.34ZM232.8,107.3l1.73-.16-.91-2.25-2.97,1.2,1.58-.53.57,1.74ZM253.77,104.85v.35l.18-.18-.18-.18ZM543.6,104.92c-3.19.68-5.53,6.54-1.98,9.24,8.32,6.34,11.93-11.38,1.98-9.24ZM262.64,107.82c-.32-.16-.6-.54-1.09-.45l-2.06.65-.59,1.61,2.81-.53.17,1.76,1.94-1.61c.04-.28-1.1-1.39-1.19-1.43ZM169.95,108.38v-.7h-.34v.7h.34ZM167.74,109.09l-.86.02.05,1.94.86-.02-.05-1.94ZM170.31,109.09c-.67-.11-1.17.41-1.05,1.05.67.11,1.17-.41,1.05-1.05ZM169.6,110.51h-.7v.34h.7v-.34ZM229.25,112.62l1.05-.88-.52-.52-.52,1.4ZM253.25,112.27c.18.16.92-.64.7-1.06-.16-.17-.92.62-.7,1.06ZM260.12,111.21v.35l.18-.18-.18-.18ZM168.89,111.57h-.7v.34h.7v-.34ZM239.47,115.44v-.7h-.34v.7h.34ZM489.34,115.1l-1.4.88,1.4-.18v-.7ZM542.1,115.09v.35l.18-.18-.18-.18ZM550.05,116.15c.77-.3.84-.59.17-1.06l-.17,1.06ZM248.65,116.15c.12-.14-.21-.38-.35-.53-.83-.55-.22,1.21.35.53ZM225.71,116.86v-.7h-.34v.7h.34ZM381.35,186.41c-9.06,2.31-16.45,11.87-5.88,18.42,12.45,7.72,47.51,4.93,46.43-15.01-.84-15.4-24.53-12.63-33.91-15.52-3.88-1.2-3.2-3.21-.46-5.54,4.42-3.75,5.91-1.22,10.23-1.39,21.51-.84,29.48-26.18,12.91-39.36l2.63-3.38c2.48,4.83,10.28,5.11,12.09-.27.69-3.19-.56-5.54-3.25-7.17-7.26-2.81-12.28,3.64-15.53,9.1-25.98-10.43-43.58,23.21-20.67,38.4-5.75,3.19-15.81,9.98-10.21,17.64,1.57,2.15,4,2.35,5.64,4.07ZM269.73,174.65c-1.98,1.43-3.37.19-3.75-1.87-2.02-11.16,4.59-37.82-2.16-46.56-8.42-10.9-42.14-7.23-39.01,8.31,1.68,8.32,19.24,8.56,17.46-2.29-.56-3.45-3.36-3.72-5.27-5.84,14.68-6,14.71,5.91,14.12,16.77l-.35.71c-11.13,2.54-28.08,10.54-28.93,23.66-.84,12.81,11.83,18.91,22.59,13.77,2.88-1.38,4.63-3.95,7.04-5.84,6.49,14.29,25.78,9.8,23.5-6.73l-3.73-.33c.2,1.35-.43,5.47-1.51,6.25ZM10.79,123.56l-.88-1.05-.52.52,1.4.53ZM369.3,171.29l-3.67-.08-2.13,6.34-2.96-.84c-1.77-12.26,3.9-33.52.17-44.66-5.53-16.52-47.81-9.41-39.98,7.17,5.1,10.79,27.33-1.13,11.77-9.28l-.03-.73c14.37-6.33,14.28,5.52,13.62,16.1l-.58,1.19c-9.83,2.65-25.95,9.84-28.56,20.86-4.55,19.24,18.46,24.44,28.59,10.96,7.08,14.25,25.67,9.4,23.77-7.01ZM497.11,148.99l1.08-22.44c-3.91-1.91-5.46,2.48-7.95,2.6-2.26.12-7.45-2.68-10.33-3.02-12.63-1.5-21.7,7.98-20.16,20.52,1.81,14.68,27.6,20.5,29.16,29.43.99,4.19-1.9,8.43-6.03,9.32-11.97,2.6-18.65-11.54-19.45-21.26l-5.13-.69-1.42,26.13c3.59,1.53,6.17-3.07,8.68-3.17,1.61-.06,7.98,3.15,10.96,3.48,20.35,2.2,31.59-20.02,13.85-34.69-5.66-4.68-26-12.69-19.91-21.76,10.76-9.97,19.8,5.64,21.53,15.2l5.12.35ZM529.85,127.55c-30.47,3.38-32.73,63.87-.79,63.81,34.11-.06,37.04-67.84.79-63.81ZM67.61,136.99h-.7v.34h.7v-.34ZM88.74,147.27l-5.2-.35c-1.03.63-1.32,7.01-1.47,7.36-.02.05-.92-.16-1.08.23-2,4.61-4.73,7.93-6.89,12.31l1.27,5.47,1.7-.63c1.24.7.79,2.97.91,3.12.4.49,1.47.2,1.98.51.55.34.56,1.13.95,1.26.47.15,5.22.04,6.11.33l1.72-29.62ZM215.48,147.93v-.7h-.34v.7h.34ZM161.31,164.17v.35l.18-.18-.18-.18ZM73.44,165.94c-.19.14-1.15,1.04-.71,1.04.19-.28,1.01-.67.71-1.04ZM73.26,168.4c-.18-.15.56-.93.18-1.04l-1.09.68.18.85,2.13.57c-.07-1.26-1.27-.95-1.41-1.06ZM19.26,185l.89-3.87-1.53,2.37.64,1.51ZM34.61,185v.35l.18-.18-.18-.18ZM28.43,185.36l-1.45.2-.31,1.91.5-1.44,1.26-.68ZM19.61,185.71h-.35v4.94h.35v-4.94ZM32.67,189.94l.35-2.12c-.69.04-1.16,1.98-.35,2.12ZM41.14,190.29c.04-.06.04-1.01,0-1.05-.46-.63-.41,1.69,0,1.05ZM31.96,192.06c0-.61.29-1.16.35-1.76-.53-.11-1.08,1.85-.35,1.76ZM36.2,192.41v-.7h-.34v.7h.34ZM49.96,192.41v-.7h-.34v.7h.34ZM25.08,192.06v.35l.18-.18-.18-.18ZM19.44,192.41v.35l.18-.18-.18-.18ZM25.96,194.18c.04-.06.04-1.01,0-1.05-.46-.63-.41,1.69,0,1.05ZM48.2,193.12h-.7v.34h.7v-.34ZM30.9,194.88c.04-.49.38-.91.35-1.41-.44-.16-1.07,1.53-.35,1.41ZM19.26,194.18h-.35v6.36h.35v-6.36ZM25.61,195.24v3.17s.35,0,.35,0v-3.17s-.35,0-.35,0ZM47.84,196.65c.04-.06.04-1.01,0-1.05-.46-.63-.41,1.69,0,1.05ZM30.38,195.94v.35l.18-.18-.18-.18ZM37.61,199.12c.04-.06.04-1.01,0-1.05-.46-.63-.41,1.69,0,1.05ZM25.97,199.48v2.82s.35,0,.35,0v-2.82s-.35,0-.35,0ZM53.49,201.59c-.07-.53.3-1.51-.34-1.41.07.53-.3,1.51.34,1.41ZM19.61,202.3v-.7h-.34v.7h.34ZM35.67,202.3v.35l.18-.18-.18-.18ZM26.67,204.06c.04-.06.04-1.01,0-1.05-.46-.63-.41,1.69,0,1.05ZM53.84,205.48c-.1-.57.34-1.84-.34-1.76.12.48-.37,1.8.34,1.76ZM34.53,204.41c0-.24-.2-.44-.44-.44s-.44.2-.44.44.2.44.44.44.44-.2.44-.44ZM27.37,206.89c.04-.06.04-1.01,0-1.05-.46-.63-.41,1.69,0,1.05ZM40.08,207.59v-.7h-.34v.7h.34ZM66.02,208.3v.35l.18-.18-.18-.18ZM39.2,209.01v.35l.18-.18-.18-.18ZM68.49,209.36v.35l.18-.18-.18-.18ZM24.55,210.77c.04-.06.04-1.01,0-1.05-.46-.63-.41,1.69,0,1.05ZM163.25,248.55l-3.99-1.13-.87-1.25-.43-35.41-11.29,3.54v2.12s3.74.31,3.74.31l1.12,1.35-.44,28.71-4.09.85-.33,1.61c4.48-.43,9.54.95,13.95.36,1.23-.16,1.7-.91,2.64-1.07l-1.41,1.41,3.35,1.42.18-2.83,2.47-.35c-.13,1.53-3.07.72-1.6,2.81l3.01-2.81c-1.84-.44-2.76-.34-4.59,0-.47.09-.94.27-1.41.35ZM174.72,216.42h9c-2.07,5.51-4.79,10.84-6.71,16.41-1.31,3.79-5.01,12.25-2.76,15.84l2.91,1.62c1.31-.05,2.74-1.24,3.22-2.43,1.01-2.51.32-11.53.98-15.61,1.2-7.45,5.04-13.91,6.25-21.12l-17.95-.3-1.47,12.3,2.08-.04c.35-2.68,1.37-6.07,4.45-6.67ZM75.02,211.48c-.34.15-1.37-.44-1.4-.19.23.48,1.39.97,1.4.19ZM67.79,211.48v.35l.18-.18-.18-.18ZM76.78,212.19h-.7v.34h.7v-.34ZM45.37,212.54h-1.05s0,.7,0,.7l1.05-.7ZM25.79,212.89v.35l.18-.18-.18-.18ZM78.26,212.85l-.15.47,2.4.76.15-.47-2.4-.76ZM31.96,214.65c-.07-.53.3-1.51-.34-1.41.07.53-.3,1.51.34,1.41ZM44.67,214.3v-.7h-.34v.7h.34ZM82.43,214.31c-.49-.04-.91-.38-1.41-.35-.16.44,1.53,1.07,1.41.35ZM85.69,215.65l-.17.47,3.09,1.13.17-.47-3.09-1.13ZM90.55,217.49c-.51-.04-.88-.48-1.41-.35.04.61,1.4,1.16,1.41.35ZM95.49,219.25l-3.17-1.06c-.38.98,2.79,1.72,3.17,1.06ZM86.49,218.54v.35l.18-.18-.18-.18ZM464.29,219.24l-18.33-.68-1.81,11.81,1.75.13c.36-2.2,1.51-5.07,3.81-5.89l9.98-.07c1.25,1.08-13.97,23.5-12.62,30.45.9,3.94,5.68,3.46,6.9.01,1.14-3.22.88-10.09,2.01-14.58,1.93-7.64,6.73-13.81,8.29-21.19ZM87.2,218.89v.35l.18-.18-.18-.18ZM556.04,219.25h-.7v.34h.7v-.34ZM90.02,219.95v.35l.18-.18-.18-.18ZM99.02,220.66c-.62.05-1.2-.67-1.75-.54.2.3,1.68,1.41,1.75.54ZM393.35,234.07l-109.21-3.19c-7.93-.72-14.57-4.88-21.21-8.79l-54.86-1.43,19.44,11.12-.62,1.17c-6.59,2.19-13.48,4.47-18.82,9.07l54.18,1.95c9.03-5.06,15.25-7.62,25.77-7.79,34.37-.53,69.93,3.76,104.45,3.19l.88.52-1.93,7.6,36.89-7.31-.04-5.03c-12.17-1.86-24.5-3.83-35.84-8.81l.93,7.73ZM104.66,222.78c-1.64-.12-2.93-1.38-4.58-1.41,1.22.5,3.25,1.96,4.58,1.41ZM52.43,224.19c.04-.51.47-.88.35-1.41-.61.04-1.16,1.4-.35,1.41ZM105.72,223.13h-.7v.34h.7v-.34ZM107.49,223.84l-1.05-.36v.7s1.05-.35,1.05-.35ZM101.49,224.19h-.7v.34h.7v-.34ZM110.66,225.6c-.5-.84-1.94-1.15-2.82-1.41-.15,1.07,2.2.98,2.82,1.41ZM104.84,225.6v.35l.18-.18-.18-.18ZM112.07,225.61h-.7v.34h.7v-.34ZM112.5,225.9l-.12.38,2.4.76.12-.38-2.4-.76ZM106.61,226.31v.35l.18-.18-.18-.18ZM115.96,227.02h-.7v.34h.7v-.34ZM117.02,227.37h-.7v.34h.7v-.34ZM117.44,227.67l-.12.38,2.4.76.12-.38-2.4-.76ZM112.25,228.43v.35l.18-.18-.18-.18ZM124.78,230.2c-.49-.04-.91-.38-1.41-.35-.16.44,1.53,1.07,1.41.35ZM125.66,230.54v.35l.18-.18-.18-.18ZM126.37,230.9v.35l.18-.18-.18-.18ZM127.6,231.26h-.7v.34h.7v-.34ZM18.51,253.45c2.29-2.96-4.3-9.47-7.61-6.21-3.71,4.72,5.58,8.84,7.61,6.21ZM169.96,254.2l1.08-4.07-1.43-1.58.7,1.76-4.54,2,.67,4,2.46-2.47-2.11,4.23,7.4-2.29-4.23-1.6ZM160.42,250.32l-6.69,3.36,5.28.52-.7-2.82,2.11-1.06ZM164.58,251.81c-1.05-.59-2.13-1.59-3.43-.96l-1.43,3.18,5.65,3.35-.79-5.57ZM328.41,252.79v-.7h-.34v.7h.34ZM249.89,253.85v.35l.18-.18-.18-.18ZM247.6,255.25c.7.05,1.31-.42,1.76-.88-.57-.03-1.61.27-1.76.88ZM221.48,255.97c-1.14-.4-2.32-.43-3.52-.35.47.57,3.06,1.11,3.52.35ZM215.13,256.32c-.81-.15-1.29.31-1.75.88.45-.17,1.68-.37,1.75-.88ZM222.19,257.73l1.4.19-.7-1.24-.7,1.05ZM175.6,258.43c-.11-.1.91-1.29-1.93-1.44-.84-.04-1.83.36-2.66.55l.71,1.24-3.88-.17c2.63,1.76,6.44,2.76,9.17.71l-.22-.89c-.3-.05-1.1.1-1.2,0ZM177.02,257.37s1.04.29,1.05.19c-.26-.68-1.4-.65-1.05-.19ZM251.12,257.03h-.7v.34h.7v-.34ZM217.25,260.91l3.52-2.29-.96-.83-1.64.26-.92,2.86ZM165.37,258.09l-2.92.07-1.31,1.69,4.23-1.76ZM224.65,260.56c.1-.07-.01-1.93,1.41-1.59-.87-1.07-3.5-1.16-2.46.52l-1.06-1.05-1.04.88,1.4.18-.7,2.12c.13-1.94,2.33-.96,2.46-1.05ZM177.54,258.44v.35l.18-.18-.18-.18ZM180.19,258.44h-.7s.53,1.05.53,1.05l.17-1.05ZM221.48,259.85c-2.74.47-4.82,3.1-5.29,5.65l2.13-.97.69-2.21c.63,1.3.62,1.55,1.97.38l.5-2.85ZM291,259.85c-.74,0-1.84-.21-2.12.7.74,0,1.84.21,2.12-.7ZM178.6,260.2v.35l.18-.18-.18-.18ZM293.47,260.56h-2.46s.03,1.02.03,1.02l4.55.03h-2.65s.53-1.05.53-1.05ZM172.95,260.55v.35l.18-.18-.18-.18ZM179.83,260.56c-.81-.62-.79.67-.17.7.31.01.2-.68.17-.7ZM168.89,260.91l-1.76.36,1.24,2.11.52-2.47ZM61.79,261.61v.35l.18-.18-.18-.18ZM166.78,262.32l-2.65-.56c-3.44,1.2,1.27,5.34,3.14,4.77l.22-1.38,1.05.35v-1.41s-3.17,0-3.17,0l1.41-1.76ZM174.19,264.79c-1-.75-1.42-3.87-3.86-2.8l-.73,4.56,4.23-1.41,3.17.7-1.24-1.76.53,1.41c-.9.15-1.44-.2-2.12-.7ZM298.41,261.62c-1.85-.06-3.86.47-4.25,2.63l.02.89,8.46,2.12-2.82-2.65-2.12.18.51-1.35,4.98,3.13,4.02-1.96c-2.16-1.24-4.64-1.53-7.05-.89l.35-.87-2.47-.18.35-1.05ZM179.83,263.03l-2.12.71,1.24,1.76.52-.17-.7-1.23,1.05-1.07ZM313.24,264.09h-1.06c-.29.48,2.29,1.84,2.82,1.76l-2.12-1.06.36-.7ZM313.94,267.26c.49-.47-3.05-3.42-3.88-2.82l3.88,2.82ZM316.32,264.88l-.8-.44,1.24,2.46-1.76.35c1.56-.24,4.07-.67,4.23,1.77h-3.52s2.11-1.41,2.11-1.41h-4.06s.18,2.12.18,2.12l3.71,1.06.18-1.06.7.7,4.24-.7-1.76-.36,1.23-.35-.17-1.06,1.41,1.41-3.18-3.88-1.75,1.76,1.41-1.77-2.46-1.05.35,2.11-1.5-1.67ZM180.72,265.86l-.52.53.16.16.36-.34v-.34ZM209.13,265.86h-.7v.34h.7v-.34ZM309.71,273.62c-.53-.61-2.04-.92-2.12-2.82l3.5-2.81-3.5-2.14-.18,3.17-.52-1.62-2.82.57,1.76,2.3c-2.51.37-.89,4.79,1.33,5.41l3.96-.65c-.04-.32-1.02-.96-1.41-1.4.37.18,1.52.43,1.92.36l1.26-.9-1.32-3.35-2.91,2.31c.99.41.97,1.54,1.06,1.58ZM275.12,267.27l-3.88-1.06,1.61,2.42,2.27-.31v-1.05ZM210.54,267.27h-2.11s.35,1.4.35,1.4l-1.41.35.18-1.05-1.23,1.41h4.58s-1.07-.88-1.07-.88l.72-1.23ZM212.74,268.03c.45-.29,1.63.08,1.51-.75l-2.57.59-.43,1.16c1.07-.07,1.4-.94,1.49-1ZM204.54,267.62c-.45-.22-1.22.53-1.06.7.44.22,1.22-.52,1.06-.7ZM228.54,267.62h-1.06s0,.7,0,.7l1.06-.7ZM220.24,268.32v.35l.18-.18-.18-.18ZM230.65,268.32l-3.17,1.05h2.29s.89-1.05.89-1.05ZM215.3,268.68v.35l.18-.18-.18-.18ZM218.3,271.85s-.08.58.18.72l1.24-2.84-3.01-1.1-1.22,1.28,3.17,1.23-2.11-.7.71,1.77c.33.07.9-.39,1.06-.36ZM223.24,269.74s-.75-.13-.7.17l.88.88c.06-.19-.14-1.01-.18-1.05ZM303.64,273.2v-2.52s-1.69-.94-1.69-.94l.17,2.46-1.76-1.4.17,2.47-3.02-.43-.86,1.49,2.47-.35-2.11,1.59,3.37-.14.66-2.47,1.6-.04-1.06,1.05,2.05-.77ZM195.19,270.09v.35l.18-.18-.18-.18ZM212.39,270.43c0-.24-.2-.44-.44-.44s-.44.2-.44.44.2.44.44.44.44-.2.44-.44ZM214.07,270.79l-.87-.7-.53,1.05,1.41-.36ZM232.07,270.09l-1.41.52,1.05.53.36-1.05ZM209.13,270.44l-3.53.35.7,1.41-1.76.17,1.44.4,3.15-2.33ZM221.3,270.44v.35l.18-.18-.18-.18ZM210.18,271.15l-2.11,1.76,1.67-.61.44-1.16ZM220.95,271.15v.35l.18-.18-.18-.18ZM216.18,272.2s.14-.72-.17-.7c-.61.03-.64,1.32.17.7ZM318.17,272.21l-2.82-.71,3.1,2.76,1.82-1.48-1.74-.93.71,1.05h-1.76s.7-.7.7-.7ZM213.01,271.86c-.06-.04-1.01-.04-1.05,0-.63.46,1.68.41,1.05,0ZM228.52,271.88l-2.8.68,3.17,1.06-.37-1.74ZM299.82,272.21h-.7v.34h.7v-.34ZM210.87,272.59l-1.02.5,2.11.88-1.09-1.38ZM221.48,272.56h-.7v.34h.7v-.34ZM214.07,272.92c-.52-.12-.75.16-1.05.53.32.07,1.21-.14,1.05-.53ZM214.95,272.91v.35l.18-.18-.18-.18ZM214.07,274.32l1.88-.06.59-.82-.69-.36c.63,1.47-1.46.39-1.78,1.24ZM262.77,273.27l-1.06.7h1.06s0-.7,0-.7ZM260.3,281.39c2.53,1.03,3.88-1.15,4.96-2.99l-1.44-5.13-.35,1.41-2.47-.35,1.05,3.17-2.46-.7,1.41,1.06-.88,1.05-1.58-1.06,1.76,3.53-2.64-1.41c-1.75,1.48-1.47,2.99-2.29,4.23,1.5.88,5.91-.56,4.94-2.82ZM294.18,273.27c-1.61-.1-3.56-.11-4.59,1.4,1.49.04,1.95-1,2.65.7l1.94-2.11ZM209.13,273.62h-.7v.34h.7v-.34ZM219.34,273.67l-.67-.04v2.11c1.04-.68,1.82-1.21.67-2.07ZM321.71,273.62c-.06-.04-1.01-.04-1.05,0-.63.46,1.68.41,1.05,0ZM303.71,275.73l1.4-.52-.87-1.23-.53,1.75ZM295.92,275.37c.06-.21.16-.7-.14-.68l-2.29,1.58,2.26.9.9-1.78-1.4.71c-.37-.91.66-.68.68-.72ZM313.6,276.09l-.71-1.41-.99,5.36,2.03,2.94-1.24,1.24,2.3,1.4-.15-2.49,2.27-2.44-3.17,1.05,2.83-2.32-.36-1.92-2.82,1.76,1.78-1.96-.72-2.63-1.05,1.41ZM303.01,275.73l-.73-.56-2.89,1.28-.26,1.05,3.88-1.77ZM221.48,275.39l-1.41.88,1.23.53.18-1.41ZM298.41,277.14c.12-.14-.21-.38-.35-.53-.83-.55-.22,1.21.35.53ZM311.09,276.85l-3.85-.41v2.12s.89-1.75.89-1.75l1.58.35-1.76,1.95,3-.53.14-1.72ZM222.72,277.15v.35l.18-.18-.18-.18ZM292.41,277.15h-.7v.34h.7v-.34ZM294.53,278.21l-.53-1.05-.87.53.49.53h.92ZM291.35,277.86c-.88-.24-.73.48-1.06,1.05.67.12,1.17-.41,1.06-1.05ZM319.59,278.21l-1.4-.19,1.06,3.34c.14.08,4-1.17,2.81,0-.2.2-2.09-.43-1.06.54l3.53.88-1.07-2.98c-2.22-.42-2.83-1.46-4.57-.55l.71-1.05ZM289.94,279.62l-.17-1.05-.53,1.05h.7ZM292.77,278.57c-.45-.22-1.22.53-1.06.7.44.22,1.22-.52,1.06-.7ZM288.88,279.98h-.7v.34h.7v-.34ZM311.12,279.97c-.67.47-2.44-.48-2.11.7.73-.16,2.41.56,2.11-.7ZM311.3,281.74v.35l.18-.18-.18-.18ZM317.82,281.75l-.7.18.54,4.76.35-1.79,1.59-.33-2.12-1.4,1.41-.53-1.07-.88ZM312,282.81l.18.53.18.16v-.34l-.36-.34ZM253.95,283.51l-2.42-.31M316.76,284.91v-.88s-1.05-.53-1.05-.53v1.41s1.05,0,1.05,0ZM325.06,283.86v.35l.18-.18-.18-.18Z"/>
  <path d="M118.74,101.01c.84,4.26,1.88,8.48,3.04,12.66.48,1.74,3.37,8.23,3.36,9.04-.04,1.87-4.71,2.93-3.15,8.06.91,3.01,6.42,4.25,9.14,4.44l-.36,7.58-14.29,8.3-.37-34.61-20.62-1.21,3.9-10.23,4.66-1.27,5.3,4.9,3.43-6.83,5.96-.84ZM117.9,116.86v.35l.18-.18-.18-.18Z"/>
  <path d="M131.49,153.93v7.24c0,3.56-3.18,9.1-7.27,9.32-5.55.69-7.76-2.3-7.94-7.58l15.21-8.98Z"/>
  <path d="M139.6,100.97c5.3.52,9.89,3.25,14.22,6l.26.88c-3.6,4.31-8.56,5.9-13.41,8.5l-1.07-.38v-15.01Z"/>
  <path d="M258.89,36.36l3.42,2.79,2.57-.84c-1.24,3.18,1.32,14.15-2.72,15.27l-2.57-.1c-2.17-1.21-.66-14.46-.7-17.12Z"/>
  <path d="M543.69,44.83l-8.11,3.53,1.41-11.3c4.04-.11,5.74,4.5,6.71,7.76Z"/>
  <path d="M386.9,187.56c5.11-1.15,28.83.98,24.97,10.51-3.57,8.83-31.84,9.38-31.62-1.94.06-2.83,3.91-7.96,6.64-8.57Z"/>
  <path d="M396.78,128.95c8.11-1.66,7.32,11.17,7.17,16-.13,3.98-.85,14.66-4.2,16.98-12.05,8.34-9.38-27.44-5.19-31.67.57-.53,1.46-1.15,2.22-1.31Z"/>
  <path d="M250.77,148.99c-.56,6.33,1.93,21.1-4.47,25.01-3.8,2.32-7.5.75-8.2-3.68-1.43-8.99,2.94-19.49,12.67-21.32Z"/>
  <path d="M345.7,151.81c-.54,6.07,1.49,29.21-10.25,25.62-8.05-2.47,0-27.01,10.25-25.62Z"/>
  <path d="M532.32,131.4c8.7-.79,6.76,23.32,6.42,28.35-.36,5.35-1.93,24-7.08,26.46-2.16,1.03-4.71.92-6.12-1.23-5.24-6.6-2.04-37.47.77-45.79.88-2.62,2.69-7.48,6.01-7.78ZM532.57,142.63v.35l.18-.18-.18-.18ZM532.39,160.64c-.88-.24-.73.48-1.06,1.05.67.12,1.17-.41,1.06-1.05ZM529.22,164.53s-1.04-.29-1.05-.19c.26.68,1.4.65,1.05.19ZM530.98,170.88c-.06-.04-1.01-.04-1.05,0-.63.46,1.68.41,1.05,0Z"/>
  <path d="M365.12,39.18l1.4-18.19,1.92-.15c6.06.58,6.12,20.97-3.32,18.33Z"/>
  <path d="M391.23,46.6c-.45,3.48,1.02,10.9-3.62,11.6-3.13-.85-.68-12.01,3.62-11.6Z"/>
  <path d="M432.52,47.31c.1,2.22.4,13.26-3.99,11.6-2.52-3.48-.26-10.33,3.99-11.6Z"/>
  <path d="M296.65,42.72c-.12-13.06,6.84-14.73,5.95-.23l-5.95.23Z"/>
  <path d="M474.52,47.66h-5.29l1.8-10.03,2.44-.39c.41.22,1.05,1.77,1.05,2.12v8.3Z"/>
  <path d="M221.83,40.6h-5.65v-5.47c0-1.81,1.34-6.58,4.09-4.79,1.65,1.07,1.58,8.29,1.56,10.26Z"/>
  <polygon points="532.57 142.63 532.75 142.81 532.57 142.99 532.57 142.63"/>
</svg>