<?xml version="1.0" encoding="UTF-8"?>
<svg id="Layer_1" xmlns="http://www.w3.org/2000/svg" version="1.1" viewBox="0 0 338.1 358">
  <!-- Generator: Adobe Illustrator 29.3.1, SVG Export Plug-In . SVG Version: 2.1.0 Build 151)  -->
  <g id="Shape_36">
    <path d="M292.4,296.1c1.1.7,2.1,1.5,3.2,2.2.9.6,1,1.3.5,2.2-2.6,4.6-6.5,8-9.9,11.9-.9,1.1-1.5,2.4-2.3,3.6-.2.3-.5.6-.7.8-2.3,2.3-4.6,4.4-6.8,6.8-1.7,1.9-3.8,3.1-6,4-2,.9-4.1,1.6-6.2,2-3,.6-6,1.2-9.1,1.1-2-.1-4.1,0-6.1-.7-2-.7-4.3-.7-6.3-1.4-4.2-1.4-8.3-3.2-11.8-5.9-2.4-1.8-4.2-4.4-6.4-6.5-2.4-2.3-3.8-5.2-5.2-8.1-1-1.9-1.5-4-2.3-6-1.3-3.2-1.8-6.7-2.6-10.1-.3-1.1-.3-2.3-.3-3.5,0-4.4,0-8.8,0-13.2,0-3.7.4-7.3,1-11,.4-2.1.4-4.4,1.1-6.4,1.2-3.4,2.3-7,5-9.7,1.8-1.7,3.7-3.3,5.3-5.1.6-.7.9-1.7,1.1-2.7.6-2.6-.7-4.4-3.3-5.1-.6-.2-1.3-.8-1.6-1.3-.2-.4.3-1.1.6-1.7.1-.3.4-.6.6-.9.5-.6,1-.8,1.7-.2,1.2,1,2.4,2.1,4,2.3,1.9.3,4.3-.8,4.4-3.3,0-.2,0-.5.1-.7,1-1.4,1.9-2.8,2.9-4.2.2-.2.6-.2.8-.3,0,.3,0,.5,0,.8,0,.5-.2,1.1-.4,1.6-.2.4-.4,1.1-.7,1.2-1.4.3-.9,1.1-.8,2,.6,3.7,3.4,4.2,5.9,3.9.8-.1,1.4-1.2,2.1-1.9.2-.2.3-.6.5-.9.3-.4.6-.7.9-1,.4.4.9.8,1,1.3,1,3.4,2.5,6.6,4.8,9.3.6.7.2,1.7-.5,2-1.7.8-3.6,1.6-5.1,2.7-2.4,1.8-4.8,3.7-7,5.7-1.8,1.6-3.5,3.4-5,5.3-1.6,2.1-2.8,4.6-3.6,7.2-.6,1.9,0,3.3,1,4.8,1.4,1.7,3.3,2.6,5.2,3.4,1.7.8,3.5-.2,4.3-1.9,1.4-2.9,2.4-6.2,5.1-8.4,2.4-2,4.5-4.4,6.9-6.3,2.2-1.7,4.6-3,7-4.4,1.1-.6,2.2-.2,2.9.8.6.9,1.3,1.7,2,2.5.8.9,2.2.9,3.1,0,1.2-1.1,1.1-2.5,1.5-4,.4-1.9-1-3-1.4-4.5-.3-1.1-1.6-2-2.7-2.8-2.2-1.5-2.2-1.4-1.3-4,.8-2.2,1.4-4.5,2.3-6.7.9-2.2,2.1-4.3,3.1-6.4,2.5-5,6.8-8.4,10.5-12.3.3-.3.6-.5,1-.7,1.3-.9,2-.7,2.5.8,1.5,5,4.7,8.9,8.6,12.3.5.4,1.3.5,2,.7.5.1,1,0,1.5,0,2.6.4,3.9-1.4,5-3.2,1.5-2.3,2.7-4.7,4-7.1.2-.3.6-.6.9-.8.6-.4.9-.2,1.1.5.3,1.9,1.2,2.3,3.2,2.1,2-.2,4,0,6,0,.9,0,1.6-.1,2.3-.8,1.2-1.2,2.8-2.1,3.8-3.4,1.8-2.5,3.5-5.2,3.6-8.5.1-2.9-.7-5.4-2.3-7.7-1.5-2-3.4-3.5-6.1-3.6-.7,0-1.4-.2-.9-1.1,1.4-2.5,2.7-5.1,4.3-7.5,1-1.6,2.3-3.1,3.7-4.3.6-.6,1.9-.9,2.7-.6.8.3,1.6,1.3,1.8,2.1.6,3.3,1.1,6.6,0,9.9,0,.1,0,.2,0,.4,0,3.4.1,6.9-.3,10.3-.8,6.7-.7,13.4-.7,20.1,0,1.8-.1,3.6-.2,5.4,0,.3,0,.7-.3,1-1.1,1.6-.4,3.7-1.2,5.4-.2.3-.3.7-.4,1.1-1.2,2.2-1.2,2.3.6,4.2.3.3.6.7,1,1,.8.8,1.5.8,2.3,0,.9-.9,1.8-1.9,2.6-2.9.4-.5.5-1.3.7-1.9.3-.8.5-1.5.8-2.3,0-.1.3-.2.5-.3,0,.1.1.3.2.4,0,.4.2.8.2,1.3,0,1.6,0,3.2,0,4.7,0,2.7,0,5.4.5,8.1.2,1.4-.2,2.9-.2,4.4,0,5.6.1,11.2.2,16.8,0,2.8.2,5.7.2,8.5,0,3.1-.2,6.2.3,9.3.7,4.3.4,8.6.7,12.9.3,4.5.8,9,.7,13.6,0,2.3.1,4.6.2,6.9.2,3.6.5,7.1.7,10.7.1,1.9.4,3.9.5,5.8,0,1.6-.3,3.2-.5,4.8,0,.2-.3.5-.5.7-.6.7-1.1,1.4-1.4,2.3-.3.9-1.4,1.5-2.3,2.1-4.3,2.5-9.1,1.7-13.8,1.7-4,0-7.9-.4-11.9-.5-5.7-.1-11.4-.2-17.1-.3-.5,0-1-.2-1.5-.2-1.9,0-3.9.2-5.8.2-2.6,0-5.2,0-7.8,0-8.5,0-16.9.1-25.4.3-3.2,0-6.3.2-9.5.2-2.5,0-5.1.2-7.6.2-5.2.1-10.3.2-15.5.3-3.6,0-7.1.2-10.7.2-2.6,0-5.2.2-7.8.2-4.4,0-8.8-.2-13.1-.2-14.9-.1-29.8-.2-44.7-.3-.1,0-.2,0-.4,0-1.1,0-2.2,0-3.3,0-5,0-10,.2-15,.2-1.5,0-2.9,0-4.4,0-2.5.2-5,.5-7.6.7-.7,0-1.4,0-2.2,0-1.7,0-3.5.2-5.2.2-1.3,0-2.5-.4-3.8-.4-2.6,0-5.2,0-7.8.3-2.9.3-5.7,1-8.6,1.6-.2,0-.4,0-.6.1-2.1,0-4.3,0-6.4.3-1.9.2-3.8.7-5.8,1.1-.7.1-1.5.3-2.2.3-4.3.1-8.5.2-12.8.3-2.2,0-4.4,0-6.5.3-2.2.2-4.4.7-6.6.9-1.3.1-2.6-.2-3.9-.2-3,0-6.1-.6-9.1.7-1,.4-2.2.6-3.3.7-1.6.2-3.2.2-4.8.3-3.6.2-7.3.6-10.9.4-3.6-.1-6.4-1.9-8.4-5-1.1-1.8-1.4-3.9-1.5-5.9-.2-3.2-.6-6.5-.2-9.6,1.2-8.2.4-16.5.6-24.7.1-6.5,0-13,0-19.5,0-2.3-.2-4.5-.2-6.8,0-2.1.2-4.3.2-6.4,0-1.7-.2-3.4-.2-5.1,0-6.6.2-13.2.2-19.8,0-1.9-.2-3.8-.2-5.8,0-12.4.1-24.7.2-37.1,0-2.5.2-4.9.2-7.4,0-1.7-.2-3.3-.2-5,0-3.1,0-6.3.3-9.4,0-1.5.5-3,.8-4.5,0-.3.2-.7.2-1.1,0-2.6-.1-5.3.3-7.9,1-6.1.6-12.2.7-18.3,0-2.2-.2-4.4-.2-6.6,0-3,.2-5.9.2-8.9,0-1.8-.3-3.7-.2-5.5,0-1.6.6-3.3.8-4.9.2-2,.1-4,.2-6,0-1.6.1-3.1.2-4.7,0-1.1.2-2.2.3-3.4.1-1.6.2-3.2.3-4.8,0-2.4.3-4.8.2-7.3,0-5.1-.1-10.2-.2-15.3,0-2.6-.3-5.2-.2-7.8,0-3,.4-5.9.4-8.9,0-1.3-.4-2.5-.4-3.8,0-2.1.6-4.1,1.1-6.1.9-3.5,2.3-6.8,2.6-10.4.2-2,1.1-4,1.7-6,.2-.6.5-1.2.5-1.8-.2-1.8,1-3,1.6-4.5.6-1.6,1.2-3.2,1.5-4.9.2-1.8.6-3.5.9-5.3.4-2.4.7-4.8,1.1-7.2.4-2.3.9-4.6,1.5-6.9.3-1,1.7-1.5,2.6-.9.8.5,1.5,1.2,2,2,1,1.6,1.4,1.7,3,.8.3-.2.6-.3.9-.4-.4,0-.7,0-1.1,0-.7,0-1.4.1-1.9-.6.6-.2,1.2-.5,1.8-.6,1.2-.2,2.4-.4,3.7-.5,1,0,2,.3,3,.2,2.1-.1,4.2-.4,6.3-1.1,1.5-.5,3.2-.7,4.8-.8,2.2-.1,4.3-.1,6.3-1,.5-.2,1.3.3,2,.2,1.8-.2,3.7-.5,5.5-.8.9-.1,1.7-.4,2.6-.4,3.8.2,7.5-.7,11.1-1.6.4,0,.9-.2,1.3-.2,3.6-.4,7.1-.8,10.7-1.2,2.3-.3,4.6-.4,6.9-.8,3.1-.6,6.3.3,9.4-.9,1.4-.6,3.2-.4,4.8-.6,4.1-.3,8.2-.5,12.3-.8,2-.1,4-.3,6-.5,3.5-.3,7.1-.5,10.6-.8,3.6-.3,7.1-.5,10.7-.8,3.4-.2,6.9-.5,10.3-.7,1.7-.1,3.4-.1,5.1-.3,3.7-.3,7.5-.7,11.2-1,.6,0,1.2,0,1.9,0,4.4,0,8.8-.2,13.1-.3,2,0,3.9-.2,5.9-.2,3,0,6.1-.2,9.1-.3,2.8,0,5.7,0,8.5-.3,6.8-.7,13.5-.8,20.3-.7,2.4,0,4.8-.3,7.2-.5,2.5-.1,5-.2,7.4-.3,5.3-.1,10.6-.1,15.9-.3,3.7,0,7.3-.3,11-.5,2.1,0,4.3-.2,6.4-.3,2,0,4.1-.2,6.1-.2,2,0,4,0,6,0,5.2,0,10.5,0,15.7.3,2.6,0,5.1.5,7.7.7.7,0,1.4-.2,2.1-.2,2.6.1,5.2,0,7.7.5,2.5.5,5,1.6,6.5,3.8.9,1.3,1.8,2.7,1.8,4.5,0,1.9.4,3.8.5,5.7,0,1.5,0,3,0,4.5.3,4.1.7,8.2,1,12.2.1,1.3.2,2.6.2,3.9.1,6.6.2,13.3.3,19.9,0,3.8.2,7.6.2,11.4.2,7,.4,13.9.5,20.9.1,5.8.2,11.5.3,17.3,0,4.1.2,8.3.2,12.4,0,4,.2,8.1.3,12.1,0,1.7.2,3.3.2,5,0,12.2,0,24.5,0,36.7,0,1.4.2,2.8.2,4.3,0,.2,0,.5-.1.7-.2-.1-.4-.2-.6-.4-1.3-1.4-2.5-2.9-3.9-4.1-1.4-1.1-3.1-2-4.8-2.5-1.4-.4-3.2-.4-4.5.7-2,1.7-3.9,3.4-5.7,5.3-2.3,2.4-3.7,5.5-5.2,8.5-1.1,2.2-1.9,4.6-3,6.9-1.1,2.4-2.3,4.7-3.5,7-1.7,3.2-3.4,6.4-5.1,9.6-1,1.9-2.1,3.7-3.3,5.5-.1.2-.6.4-.8.3-.4-.2-.8-.5-.9-.9-.9-2.5-1.9-4.9-3.7-6.8-1.7-1.8-3.8-2.9-5.9-4-1.3-.7-2.5-.8-3.8-.8-1.1,0-2.4.6-3.5,1.2-4.2,2.5-7.5,6-10.7,9.7-1.1,1.2-2.3,2.3-3.1,3.7-1.3,2.1-2.4,4.3-3.5,6.5-.4.7-1.4,1.3-.7,2.4-.3,0-.8.2-.9.1-.4-.5-.9-1.2-1-1.8-.1-.9.2-1.8.2-2.8,0-1.8-.3-3.6-.5-5.4,0-.2,0-.5,0-.7.2-4.4-.3-8.7-1-13.1-.3-2.1-.6-4.1-1-6.2-.5-2.7-1-5.3-1.5-8-.4-1.9-.7-3.8-1.3-5.6-.8-2.7-1.8-5.3-2.8-7.9-.7-1.7-2.1-2.9-3.8-3.5-1.3-.5-2.6-.8-3.8-1.4-1.1-.6-2-.2-2.5.4-1.4,1.6-2.9,3.2-3.9,5.1-1.5,3-2.9,6.1-4,9.2-.7,2-.9,4.2-1.4,6.3-.3,1.3-.5,2.5-.8,3.8-.6,2.5-1.1,5-1.7,7.4-.4,1.3-.9,2.6-1.5,3.9-1.2,2.8-2.3,5.6-3.6,8.2-2.1,4.1-4.5,8.2-6.7,12.2-.9,1.6-1.8,3.2-2.6,4.8-1.9,4-3.8,8.1-5.6,12.2-.1.3,0,.8,0,1.2.2.5.4,1,.7,1.4,1.7,2.4,1.7,4.6.3,7.3-.9,1.8-1.2,3.9-1.6,6-.6,2.8-1,5.6-1.5,8.4,0,.1,0,.2,0,.4,0,2.7-.2,5.4-.3,8.1,0,2.1-.4,4.2-.2,6.3.5,4-.4,8.1,1.1,12,.1.4,0,.8.1,1.2.3.9.6,1.8.9,2.8.3,1,.4,2,.7,2.9.7,2,1.4,3.9,2.3,5.8,1.6,3.4,3.3,6.7,5.2,9.9,1.1,1.9,2.6,3.6,4.1,5.2,2.9,2.9,5.8,5.7,8.9,8.4,2.6,2.3,5.8,3.7,9,5,1.4.6,2.8,1.3,4.3,1.8,3.3,1.2,6.6,2.3,9.9,3.4.3,0,.6,0,1,0,1.3.2,2.7.5,4,.6.7,0,1.5,0,2.2-.1,3.4,0,6.7,0,10.1,0,1,0,2-.5,3.1-.7.5-.1.9-.3,1.4-.2,2.4.2,4.4-.6,6.4-1.6,3-1.5,5.8-3.3,8.1-5.8,2.6-2.9,5.2-5.7,7.9-8.6.5-.5,1.5-1,1.5-1.6,0-1.6,1.4-1.8,2.2-2.7,2.3-2.4,4.7-4.7,6.9-7.2.9-1.1,1.4-2.6,2.3-3.7,2.9-3.5,4.3-7.7,5.8-11.8,1.2-3.3,2-6.7,3-10.1.6-1.9,1.3-3.8,1.7-5.8.5-1.9.7-3.9,1-5.8.2-1.5.4-3.1.5-4.7.2-3.1.5-6.1.5-9.2,0-3.1-.2-6.1-.5-9.2-.1-1.6-.6-3.2-1-4.8-.3-1-.8-1.9-1.2-2.9-.3-.6-.7-1.1-1.5-.6-.9.5-1.5,1.1-1.5,2.3.1,3.6,0,7.1-.9,10.6-.6,2.4-.5,5-1.1,7.4-.4,1.9-.4,3.8-1.5,5.6-.8,1.3-.8,3-1.2,4.5-.4,1.3-.9,2.5-1.4,3.7-.1.3-.3.6-.4,1,0,.6.2,1.3,0,1.9-.9,2.3-1.3,4.8-3.4,6.5-1.2,1-2.1,2.2-3.3,3.2-1,.8-2.1.7-3.1-.3-1.5-1.5-3.3-2.8-4.6-4.5-1-1.2-1.5-2.8-2.1-4.2-.7-1.8-1.4-3.6-2-5.4-.5-1.7-1-3.3-1.5-5,0-.3-.3-.5-.5-.8-.7-.9-.7-1.8-.2-2.7,1-2,1.1-3.9,0-5.9-.2-.3-.4-.6-.4-.9,0-1-.7-1.7-1.5-2-1.8-.6-3.7-1.5-5.6-1.5-1.9,0-3.9.6-5.6,1.4-2.7,1.3-5.3,3-7.9,4.4-1.6.8-2.2,2.3-2.9,3.8-.6,1.2-.7,2.6,0,3.7,0,0,.2.1.2.2.4,2.5,2.6,3,4.3,4.2,1,.7,1.9.4,2.8,0,0,0,.1-.2.2-.2.6-.2,1.3-.3,2-.4,0,.7.3,1.6,0,2.2-.8,1.7-1.6,3.5-2.8,4.9-1.8,2.2-3.9,4.1-6.1,6-2.1,1.8-4.4,3.3-6.7,4.8-1.7,1.1-3.4,2-5.1,3-1.5.9-2.9,1.8-4.4,2.7-1,.6-1.9,1.3-2.9,1.8-1.5.9-3-.2-3.5-2.3-.1-.6-.5-1.3-1-1.5-.7-.2-1.7-.4-2.2.6-.2.3-.2.6-.3.9,0,.7,0,1.5,0,2.2,0,.9.1,1.7.7,2.5.8,1,1.5,2.2,2.2,3.3,1.3,1.9,3.4,2.5,5.3,2.8,1.9.3,4,.5,6.1-.7,3.4-2,7.1-3.3,10.6-5,1.3-.6,2.5-1.4,3.7-2.2,2.5-1.7,5-3.4,7.5-5.2.7-.5,1.3-1.3,2-1.8,2.5-1.7,3.7-4.4,5.4-6.7.2-.2.2-.6.4-.8.3-.4.7-.7,1-1.1.3.4.9.7.9,1.1.2,1.7,1.5,2.7,2.4,3.9,1.5,1.8,3.1,3.4,4.7,5,1,1,2,1.9,3.1,2.8M28,287.1c-.9.3-1.8.6-2.8.8-.5,0-1.1,0-1.5-.4-.2-.2-.2-.8,0-1.2.4-1.1,1-2.1,1.2-3.2.3-1.7.9-2,2.6-1.8,1.4.2,3,.2,4.3-.2,1.8-.5,3.5-1.5,5.3-2.2,2-.8,4.2-1.2,6-2.5,1.7-1.2,1.8-1.1,3.1.6,0,.1.1.3.2.4.8.8,1.4,2,2.9,2,1.3,0,1.8.7,2.1,1.9.7,3-.1,6.1.8,9.1.6,2.1.8,4.4,1.6,6.5,1.4,3.3,2.8,6.7,4.6,9.8,1.4,2.5,3.3,4.8,5.1,7.1,1.5,1.9,3.6,3,5.6,4.3,1.8,1.1,3.6,1.7,5.8,1.5.9,0,1.7,0,2.6,0,2.1,0,4-1.2,4.7-3.3.7-2,1.3-4.1,1.9-6.1.2-.7.4-1.4.5-2,.5-2.6,1.5-5.1,1.5-7.7,0-1,.3-2.1.6-3.1.6-2,1.6-4,2-6,.3-1.6,0-3.4.1-5,.1-1.1-.4-1.8-1.2-2.1-1.5-.8-3.4-1.5-4.9-.5-1.6,1-3.1,2.6-4.2,4.2-1.4,2.1-2.1,4.5-2.9,6.9-.5,1.5-.3,3.1-1.1,4.7-1.3,2.3-1.6,5-2.1,7.6,0,.6-.4,1.3-.8,1.5-.6.3-1.3.1-1.7-.8-.5-1.2-1.4-2.2-1.9-3.3-2.3-4.6-4.3-9.3-4.8-14.5-.1-1.4-.5-2.9-.7-4.3-.2-.9-.4-1.8-.5-2.7,0-1.8,0-3.7,0-5.5,0-.2-.1-.4-.2-.6-.9-1.9-2.1-3.5-4.1-4.4-1.2-.5-2.3-1.1-3.8-1.1-.9,0-1.9-.5-2.4-1.7-1.2-2.7-1-5.4-.9-8.2,0-.7.2-1.4.4-2.1.5-1.8.7-4.1-1.1-5.7-1.1-1-2.4-1.7-3.8-2.4-1.1-.6-2.2-.5-3.3-.6-1.5-.1-1.8.9-2.1,2,0,.2-.1.4-.2.5-1,1.7-1.7,3.5-1.3,5.7.4,2.6.7,5.1,1.6,7.6.3,1-.2,1.7-1.3,1.6-2.1-.2-4,.2-5.7,1.4-1.8,1.3-3.9,1.6-5.9,2-3.4.7-6.9,1.2-10.5.9-1.6-.1-3,1.5-2.3,3,.8,1.6.6,2.8-.5,4.1-.8,1-.8,2.5-1.2,3.7-.7,2.5-2,4.9-3,7.4-.7,1.6-1.6,3.2-1.8,4.8-.4,2.7-1.2,5.3-1.8,7.9-.5,2.3-.6,4.7-.8,7.1,0,1.2,0,2.4.2,3.5.1.8.3,1.5.7,2.2.4.8.8,1.6,1.3,2.3.5.8,1,1.5,1.5,2.2.4.5,1,.9,1.4,1.4,1.5,1.8,2.8,3.7,5.2,4.5.7.2,1.3.7,1.9.7,3.4.4,6.7,0,9.8-1.3,3.1-1.2,6.1-2.7,8.8-4.7,2.3-1.7,3.5-3.6,3.1-6.5,0-.5,0-1.1,0-1.6,0-.4-.2-.9-.5-1-.9-.5-1.8-.8-2.8-1.1-.2,0-.4,0-.5,0-1.6.8-3.3,1.6-4.9,2.4-1.4.7-2.8,1.5-4.2,2.2-1.8.9-3.6,1.7-5.3,2.6-2,1-3.7,0-3.7-2.3,0-.3,0-.7,0-1-.5-3-.3-6,.3-8.9.4-2,1-4,1.5-6,.3-1.4,1.3-2.2,2.7-1.9.7.1,1.5,0,2.2,0,.9-.1,1.8-.3,2.7-.5.9-.1,2,0,2.7-.4,2.2-1.2,4.4-2.2,6.8-2.8,1.4-.4,2.7-1.2,4.1-1.8,2.4-.9,4.5-2.5,6.3-4.2.3-.3.7-1.2.5-1.5-1-1.5-1.1-3.4-3.5-4.2-3.4-1.1-5.9-.3-8.7,1.3-2.2,1.3-4.2,3.3-7.1,3,0,0-.1.1-.4.2M115.9,269.1c-2.2-.8-4.3-1.9-6.7-1.5-.9.2-1.9.4-2.4,1-1.2,1.2-2.3,2.6-3.2,4-1.8,3.1-3.4,6.3-5,9.5-.8,1.7-1.5,3.5-2,5.3-.7,2.3-1.3,4.7-1.9,7.1-.6,2.3-1.2,4.7-1.1,7.1,0,.5.1,1.1,0,1.6-.9,2.6.3,4.7,1.3,6.9.1.3.5.5.7.6,1.3.6,2.7,1,3.9,1.6,1.3.6,3.8-.5,4-1.9.3-1.6.4-3.3.5-4.9.1-1.6,0-3.2.3-4.8.2-.9.7-1.8,1.2-2.6.7-1,1.6-1.7,3-1.7,1.4,0,2.7-.6,4.1-.9.9-.2,1.9-.3,2.8-.6.8-.3,2.1.2,2.3,1.1.5,1.7,1,3.4,1.5,5.1.7,2.5,1.5,5,2.2,7.6.2.6.1,1.3,0,1.9-.3,1.6,0,2.4,1.5,3.1.6.3,1.2.6,1.8.9,2.8,1.4,5.4-.2,5.5-3.3,0-3.3,0-6.5-1.3-9.6-.9-2-.5-4.3-1.9-6.2-.4-.5-.1-1.6,0-2.3,0-.3.6-.7,1-.7,3.1-.3,6.2-.7,9.1-1.8.8-.3,1.3,0,1.3.8.1,1.3.2,2.7.3,4,.2,2.5.7,5,1.9,7.2,1,1.8,1.6,3.9,3.7,4.8,1.1.5,1.1,1.1.4,2.1-.7.9-.3,1.6.8,1.9.8.2,1.6.3,2.4.6,2,.8,3.8,1.8,6,2.2,3.8.7,7.3.1,10.5-1.7,1.8-1,3.3-2.8,4.5-4.6,1.4-2.1,2.4-4.6,3.4-7,1.2-2.8,1.7-5.7,1.7-8.8,0-1.3.1-2.6,0-3.9-.3-1.8-.5-3.8-1.3-5.5-1.4-3.1-2.8-6.3-4.7-9.1-1.6-2.4-3.9-4.4-6.1-6.2-2.1-1.7-4.6-2.7-7.2-3.2-2.2-.5-4.6-.4-6.9-.6-2.2-.1-4,1-5.9,1.8-1.9.8-2.3,2.8-3.1,4.4-.4.9-.4,2.1-.5,3.1.7,0,1.3,0,2-.1,0,0,.2,0,.2,0,2.4.9,4.9.5,7.3.7,2.2.2,4.4-.3,6.7-.4,1.7-.1,3,.5,3.9,2,.8,1.2,1.7,2.2,2.5,3.3.8,1.3,1.8,2.5,2.3,3.9.5,1.4.6,3,.5,4.5,0,2.4.1,4.9-1,7.2-1.2,2.5-1.9,5.2-3.9,7.3-1.4,1.4-2.8,2.7-4.1,4.2-1,1.1-2.1,1.4-3.5,1.4-.8,0-1-.2-1.1-1.1,0-1.2,0-2.5-.5-3.5-.9-2.2-.7-4.4-.7-6.6,0-2.5.5-5,.4-7.4,0-1.5-.7-3-1.2-4.5-.9-2.6-2.7-4.6-4.6-6.4-.9-.8-2.3-.2-2.9.9-.6,1.2-1.2,2.4-2.2,3.3-1.1,1.1-2.4,2-4.2,1.9-1.8-.1-3.7.4-5.6.7-1,.2-2,.6-2.9.7-.5,0-1.4-.3-1.5-.6-.7-1.7-1.2-3.4-1.8-5.1-1.1-2.8-1.9-5.9-4.4-7.9-.8-.6-1.4-1.4-2.3-2.2M170.6,155.9c.2-.3.4-.6.6-1,.9-1.8,1.8-3.5,2.6-5.3.5-1,1.2-1.2,2.2-1.2,1.5,0,3,0,4.5-.3,1.5-.3,2.9-1,4.4-1.5.3-.1.8-.2,1-.1.3.1.7.6.7.8,0,1.3-.4,2.6-.4,3.9,0,2.4.1,4.7.2,7.1,0,1.7,0,3.4,1.2,4.8.8,1,.7,2.4,2.3,2.9,1.3.4,2.6.4,3.9.4.2,0,.4-.3.5-.6.3-.7.3-1.7.7-2.2.9-1,1-2,1-3.2,0-2.5,0-5,0-7.5.2-3.6.5-7.2.7-10.8.1-2.6.2-5.2.2-7.8,0-2.7-.1-5.5-.2-8.2,0-.1,0-.3-.1-.4-1.4-2.6-2.8-5.3-5.8-6.5-1.5-.6-3-.8-4.4.2-1.5,1.1-3.1,2-4.6,3.1-2.1,1.8-4.1,3.6-6.1,5.6-2.1,2.1-4.2,4.4-6.2,6.7-1.3,1.5-2.1,3.1-4.6,2.8-1.4-.2-2.4,1.5-2.3,3,.1,1.3.6,2.7-.5,4-.7.9-1.3,2-1.7,3-.6,1.6-1.6,3.1-1.4,5,0,.6-.3,1.4-.7,1.9-.1.2-.8.4-1,.3-1.8-1.1-3.9-1.5-5.9-1.5-2.8,0-5.7.4-8.6.7-1,0-1.9.3-2.9.5-1.2.2-2.4.6-3.7.7-.9.1-1.4-.7-.9-1.4,1.5-2.2,3.1-4.3,4.7-6.4,1-1.3,2.1-2.4,3.1-3.6,1.1-1.4,2.2-2.8,3.3-4.3.9-1.1,1.9-2.2,2.6-3.4,1.2-1.9,2.5-3.8,3.1-5.9.5-1.7.5-3.8,0-5.5-.4-1.3-1.7-2.5-2.7-3.6-2.3-2.4-5-4.2-8.3-4.5-2-.2-4.1-.1-6.1.4-3,.9-5.9,2.3-8.6,4-1.6,1-3.3,1.8-4.5,3.3-1,1.2-1.3,3.9-.4,5.2,1.6,2.2,4.5,3.2,7.3,2.1,1.4-.5,2.6-1.5,4-2.2,2.4-1.1,4.8-2.2,7.3-3.3.2,0,.9.2.9.4,0,.6,0,1.2-.2,1.8-.5,1-1.1,2-1.8,2.9-1,1.5-2.2,2.8-3.2,4.3-2.2,3.1-4.4,6.2-6.6,9.4-1,1.4-2,2.9-2.9,4.4-.8,1.3-1.3,2.8-2,4.2-.7,1.4-.6,2.8-.3,4.1,1,3.5,3.6,5.6,6.9,6.7,1.3.4,2.7,1,4.1,1,2.5,0,5-.4,7.6-.7,1.8-.2,3.7-.4,5.5-.9,2.7-.7,5.4-1.6,8-2.6,1.5-.6,3.1-1.1,3.3-3.3,0-.8.9-.9,1.4-.3.9.8,1.8,1.2,3.1,1.4,3.1.5,4.6,0,6.3-2.8M268.5,65.4c-1.7,3.9-3.6,7.7-5.2,11.6-.7,1.7-1.1,3.6-1.2,5.5-.2,2.1-.3,4.3.8,6.4.5.9.8,2,1.3,3,.7,1.3,1.3,2.6,2.2,3.7,1.4,1.7,3.1,3,5.2,3.8,1.1.4,2.2,1,3.4,1.2,1.3.3,2.8.2,4.1.3,1,0,1.2.4.7,1.3-.2.3-.4.7-.7.9-1.5,1.2-2.3,1.3-.9,3.6.3.5.4,1.3.7,1.4,1,.1,2.1,0,3.2-.2,1.3-.3,2.5-.9,3.7-1.3,2.5-.8,5.2-.9,7.7-1.9,2.5-1,5.2-1.5,7.8-2.2,3.6-1,6.8-2.8,9.8-4.9,2.2-1.5,4-3.6,5.8-5.5,1.1-1.2,1.9-2.6,2.5-4.1,1-2.3-.3-6.8-2.4-8.3-1.8-1.3-3.1-3.3-5.4-4.1-1.8-.6-3.5-1.7-5.3-2.4-1.6-.6-3.2-.8-4.8-1.3-.5-.2-1.2-.8-1.2-1.1,0-.5.5-1.3,1-1.5,1.5-.7,3.1-1.2,4.6-1.9,2.4-1,5-1.1,7.5-1.5,1-.2,2-.5,2.9-.5,1.6.2,3.1.7,4.7.9,1.2.2,2.8-.9,2.7-2-.2-1.7,0-3.4-1.8-4.5-.4-.3-.7-.8-1.2-1.1-.6-.4-1.2-1.1-1.8-1.1-2.8-.1-5.4-1.3-8.2-.8-1.7.3-3.4.3-5,.5-.6,0-1.2.2-1.7.4-2.2.8-4.4,1.6-6.7,2.3-.4.1-1.1-.3-1.5-.6-.3-.2-.4-.7-.5-1-1-2.2-4.1-3.2-5.8-2.5-3.2,1.3-6.6,1.2-9.9,1.7-2.5.4-4.9-.7-7.3-1-1.7-.2-2.7.5-2.4,2,.6,2.5.2,4.6-1.3,6.9M265.5,140.3c-.3.4-.8.7-.8,1.1-.2,1.5-1.2,1.1-1.9.7-.9-.4-1.7-.3-2.4.4-1.2,1-1.5,3.3-.7,4.9.5,1,.5,1.9,0,2.8-.8,1.4-1.6,2.8-2.3,4.2-.1.2-.3.4-.2.6,0,1,.3,1.9.2,2.9,0,1.8,1.9,3.5,3.5,3.8.6.1,1.2.3,1.8.4,2,.5,4.3-.6,5.1-2.2,1-1.9,2-3.8,3.2-5.7.5-.9,1.3-1.4,2.6-1.3,1.4.1,2.8.2,4.2,0,1.6-.2,3.2-.7,4.8-.9.3,0,1,.6,1,.9,0,1.4,0,2.8-.3,4.2-.3,2.1-.3,4.2-.8,6.3-.6,2.8,2.4,5.1,4.3,6,.7.3,1.9.4,2.3,0,1.1-1.1,2.2-2.3,2.6-3.7,1.4-4.3,1.2-8.8,1.8-13.2.2-1.4.5-2.8.8-4.2,0-.5.3-.9.4-1.3.3-1.2-.7-2-.9-3-.3-1.3-.1-2.7-.3-4-.3-2.1-.9-4.2-1.2-6.4-.3-2.8-1.6-5.2-2.8-7.7-.1-.3-.3-.7-.6-.9-1-.7-2-1.5-3.1-2.1-.9-.5-1.7-1.2-2.7-1.4-1.9-.4-3.4.4-4.6,1.8-2,2.4-3.8,4.8-5.8,7.2-.4.6-.9,1.1-1.7.9-1.1-.3-2.1-.5-3.2-.8-2.1-.5-4.2-1.3-6.4-1.4-3-.3-6-.1-8.9-.7-2.2-.4-4.5-.4-6.7-.3-7.3.3-14.6-.7-21.9.6-1.9.3-3.1,1.2-4,2.6-.9,1.5-.3,3.2.6,4.5,1.6,2.1,3.9,3,6.5,3.3,1.3.1,2.6,0,3.9-.2,1-.1,2-.3,3.1-.5,1-.2,1.8.2,1.6,1.3-.1.9-.6,1.8-1,2.7-.8,2.1-1.7,4.1-2.4,6.3-.6,1.9-1.1,3.8-1.3,5.7-.2,1.9,0,3.9,0,5.8,0,.4,0,.9.3,1.3,1.1,2.5,3.7,2.3,5.7,3.2.1,0,.3,0,.4,0,2.7-1,4.3-3,4.9-5.7.4-1.7.6-3.4,1.2-5,.6-1.9,1.5-3.6,2.2-5.5.9-2.4,1.8-4.8,2.4-7.2.6-2.3,1.3-3.1,3.2-3.1,2.6.1,5.2.3,7.8.2,1.2,0,2.4-.4,3.6-.6,1.1-.2,2.1-.6,3.1-.8.3,0,1,0,1,.2.2.6.4,1.2.2,1.8-.1.5-.7.9-1.2,1.4M145,95.8c-1.1-1.1-2.2-2.4-3.4-3.4-1.8-1.6-3.8-3.1-5.6-4.7-.3-.2-.4-.6-.6-.9.4-.2.8-.4,1.1-.6.7-.4,1.6-.7,2-1.4.6-1,.6-2.2-.4-3.2-2.2-2.1-4.5-4.1-7.9-3.9-.1,0-.3-.1-.4-.1-2.1-.2-4-.9-6.1-.9-2.9,0-5.8.2-8.5.9-2.5.6-4.9,1.4-7.3,2.6-3.4,1.8-6.5,3.6-8.5,7.1-1.3,2.3-1.7,4.8-1.9,7.3-.1,1.3.7,2.6,1.1,3.9.4,1.2,0,1.7-1.2,1.8-1.3,0-2.6.1-3.8.5-2.3.8-5,.2-7.2,1.7-.3.2-.7,0-1.1,0-1.6.2-3.1.5-4.7.7-.7.1-1.5.2-1.9-.6-.4-1-.9-2-1-3.1-.3-3.2-.1-6.4.8-9.4.8-2.6,1.9-5.2,3-7.8,1.4-3.1,2.9-6.2,4.5-9.3,1-1.9,2.1-3.8,3.2-5.7.4-.8.8-1.6,0-2.6-1.6-1.8-3.3-3.2-5.7-3.8-2.1-.5-3.4,0-4.2,1.5-1.1,2.1-2.1,4.1-3.2,6.2-1.4,2.5-3,5-4.3,7.6-1.4,3-2.4,6.1-3.6,9.1-.2.5-.2,1.1-.3,1.6-.2,1.6-.5,3.1-.7,4.7-.2,1.6-.3,3.2-.3,4.7,0,1.1.4,2.2.4,3.3,0,2,.7,3.9,1.7,5.4,2.5,3.5,5.7,6.3,10.3,6.7,2.5.2,5.1.5,7.5,0,3.1-.7,6.2-1,9.3-1.6,2.5-.5,4.7-1.5,7-2.5,1.3-.6,2.4-1,3.9-.3,2.9,1.5,6.1,1.7,9.4,1.5,2.3-.2,4.6-.2,6.9-.5,1.8-.2,3.6-.5,5.3-1.5.2-.1.5-.2.8-.2,1.1-.3,2.3-.4,3.4-.8,3.8-1.1,7.4-2.8,10.9-4.7,1.6-.9,2.3-3.2,1.5-5.4M47.2,165.9c1.4-1.4,2.9-2.8,4-4.3,1.1-1.6,1.9-3.4,2.8-5.2,1.4-2.8.2-6.1-2.8-7.2-1.6-.6-3.2-1-4.7-1.5-.3,0-.8,0-1.1.1-.9.3-1.8.6-2.8.8-.2,0-.7-.6-.7-.8.2-.7.4-1.4.8-1.9,2.4-2.9,3.5-6.6,4.8-10,.3-.9.1-2,0-3-.1-1.2-.4-2.5-.7-3.7-.1-.6-.4-1.2-.8-1.7-.6-.6-1.2-1.1-2-1.5-1.9-.9-3.8-2.1-5.8-2.6-3-.6-6,.2-8.9,1.2-1.1.4-2.2.7-3.3,1.2-2.2.9-4.6,1.6-6.5,3-2.7,2-4,5.2-5.3,8.2-.9,2.3-2.1,4.5-2.4,7-.3,2-.9,3.9-1.3,5.9-.3,1.2-.5,2.5-.8,3.7-.4,1.7-1,3.3-1.2,5-.2,1.8,0,3.7,0,5.5,0,1.7,1,3.1,1.2,4.8.2,2.4,1.3,4.7,2.8,6.7.6.8,1.2,1.8,1.2,2.7,0,1.6.8,2.9,1.5,4.2.7,1.4,2,2,3.6,2.5,3.6,1,6.6-.2,9.4-2,2.6-1.8,4.5-4.5,7.3-6.3,2.4-1.5,4.3-3.8,6.5-5.8,1.7-1.6,3.5-3.3,5.3-5.1M55.3,75.9c1.4-2.7,2.9-5.4,4.1-8.2,1.7-3.7,0-6-2-7.8-2.6-2.3-5.8-2.9-9-3.1-1.9-.1-3.9.5-5.8.7-2.2.2-4.3.8-6.3,1.7-1.8.9-3.9,1.3-5.8,2.1-2,.8-4.1,1.6-6.1,2.6-2.4,1.2-4.1,3.3-5.3,5.6-.6,1.2-1,2.8.1,4.1.7.8,1.7,1.5,2.5,2.2,1,.8,2,.4,2.8-.3,1-.8,1.9-1.7,2.8-2.5.5-.4.9-.8,1.4-1.2,2.2-1.7,4.9-2.4,7.4-3.6,1.4-.6,3.2-.8,4.2-2.2.5-.7,1.1-.7,1.8-.7,1.3-.2,2.6-.5,3.9-.8.7-.1,1.4-.5,2-.4.7.1,2-.3,1.8,1.1-.1.8-.6,1.5-1,2.2-1.3,2-2.6,4-4,6-1.2,1.7-2.4,3.5-3.8,5-1.5,1.5-2.3,3.3-3.4,5-1,1.4-2.3,2.6-3.4,3.9-.5.5-1.1,1-1.2,1.6-.5,1.9,1.4,3.1,1.8,4.7,0,.2.4.3.6.3,1.3.4,2.6,1,3.9,1.1,2.4.2,4.8.1,7.3.2.6,0,1.3.3,1.8.7.2.1-.2.9-.4,1.4,0,.2-.3.4-.4.6-.8,2.4-2.7,3.9-4.3,5.6-2.3,2.5-4.9,4.6-7.3,6.9-2.1,2-4.7,3-7.3,4-1.6.6-2.3.1-2.3-1.6,0-.9.3-1.9.2-2.8,0-1.1-.4-2.1-.5-3.2-.2-2.9-.4-5.8-.5-8.7-.1-3.9-.2-7.8-.2-11.8,0-1.1.3-2.2.2-3.3,0-1,.7-2.4-.7-2.8-1.3-.4-2.7-.2-4.1-.2-.2,0-.5.5-.6.8-.2.7-.3,1.4-.6,2-.7,2.2-1.5,4.2-1.5,6.6.1,7.5,0,14.9,0,22.4,0,3.1-.7,6.4,1.2,9.2.4.6.6,1.3,1.1,1.8.6.5,1.3.8,2,1.1,2.1.8,3.4-.1,3.6-2.3,0,0,0-.2,0-.2.1-.8,1.2-1.5,2-1.2.9.3,1.8,1,2.8,1,3.1.3,6.2.2,8.9-1.7,2.2-1.6,4.6-2.9,6.7-4.6,1.7-1.4,3.2-3.1,4.8-4.7,2.4-2.5,5-4.8,6.3-8.2.8-2.2,2-4.2,1.7-6.7-.2-1.7-.6-3.7-2.1-4.6-1.9-1.1-3.6-2.6-6-2.7-1,0-1.9-.1-2.9-.3-.4,0-1-.3-1.2-.6-.2-.3,0-.9.2-1.2.6-.8,1.3-1.7,2.1-2.4,2.4-2.2,3.9-5.1,5.9-7.9M84.6,174.3c1.2,1.3,2.8,1.2,4.3,1.3,1.2,0,2.8.1,3.5-1.4.3-.7.1-1.6.5-2.1.6-.8.7-1.6.7-2.5,0-.5,0-1,.1-1.4.3-2,.6-3.9.8-5.9.2-2.2.3-4.4,2.2-6,.8-.7.8-1.5,0-2.4-.5-.5-1-1.3-1.1-2-.2-2.4-.2-4.8-.3-7.3,0-1.1-.1-2.3-.2-3.4-.3-3.2-.6-6.5-1-9.7-.3-3-1.6-5.6-4.1-7.3-1.7-1.2-3.8-1.9-5.8-2.5-1-.3-2.5-.6-3.2-.1-1.9,1.2-3.6,2.7-5.2,4.4-2.9,3-5.8,5.9-7.8,9.7-1.8,3.4-4.2,6.5-6,9.9-1.6,3-3,6.1-4.4,9.2-.7,1.5-1.4,2.9-1.8,4.5-.5,1.7-1,3.5-1.2,5.4-.2,1.7-.2,3.5.3,5.1.4,1.7,1.4,3.2,2.2,4.8.5.9,4.9,1.8,5.8,1.3,0,0,.1-.1.2-.2,1.6-1.2,1.3-2.8,1.2-4.4,0-1,0-2.1.2-3.2.2-1.1.7-2.1.9-3.2.2-1.6,1.5-2.7,2.9-2.3.9.2,1.9.4,2.8.5,2.3,0,4.6.2,6.9,0,1.5-.1,3.1.1,4.5-.8.5-.3,1.2-.2,1.2.7-.1,2-.4,3.9-.5,5.9,0,2-.2,4.1,1.7,5.7M170.9,72c-.5.5-1,1-1.4,1.6-.4.7-.8.4-1.1,0-.2-.4-.2-.9-.2-1.3.1-1.4.4-2.7.5-4,0-2.5,0-5.1,0-7.6,0-.3,0-.8-.3-1-1.9-2-3.8-4-6.7-4.6-2.1-.4-3.2-.3-3.7,1.2-.3.6-.4,1.4-.4,2.1-.1,2.9-.2,5.8-.3,8.6,0,.9-.1,1.8-.2,2.6-.4,3-1.1,5.9-1.2,8.9-.2,4.4-.4,8.8.7,13.1.2.8.4,1.7.8,2.4,1.2,2,2.4,3.9,3.8,5.8.8,1.1,1.8,2.3,3.3,1.8,1.4-.4,2.4-1.4,2.6-3,.1-1.3.3-2.5.2-3.8,0-1.2.7-1.7,1.6-1.9,2.1-.5,3.1-1.4,3.4-3.5.1-.6.6-1.2.9-1.8.5.3,1.1.6,1.6,1,1,.8,1.8,1.9,2.9,2.6,1.4.9,2.8,1.6,4.4,2.1,2.4.9,4.8,1.8,7.3,2.2,2.4.5,5,.7,7.4-.2,1-.4,2.3-.6,2.9-1.3,1.3-1.6.7-3.4-1-4.4-1.6-.9-3.2-1.8-5.2-1.6-.8,0-1.6-.3-2.4-.5-1.7-.6-3.4-1.4-5.2-1.9-1.9-.5-2.1-.9-2.3-2.9,0-.3.1-.7,0-1-.4-.6-1.1-1.8-1.4-1.7-1.2.3-1.2-.4-1-1.1.2-.6.5-1.3,1-1.7,2.4-1.9,4.9-3.7,7.5-5.5,2.5-1.7,5.2-3.2,7.8-5,2.4-1.6,4.6-3.3,6.9-5.1.7-.5,1.1-1.4,1.7-1.9.9-.7.8-1.6.4-2.4-1-1.7-4.8-2.6-6.8-1.7-3,1.2-6.1,2.3-9.1,3.6-1.7.7-3.4,1.4-5,2.4-2.7,1.6-5.3,3.3-7.9,5.1-2.2,1.6-4.3,3.4-6.5,5.2M65.3,223.8c-.9,2.4-1.9,4.7-2.8,7.1-.2.4,0,1.1.2,1.5.3.5.7,1,1.1,1.4.6.6,1.2,1.1,1.8,1.6.4.3,1,.4,1.4.7,1.5,1,3,.9,4.2-.5.8-.9,1.4-2,2.1-3,1-1.5,2.1-3,3-4.5,1.9-3.1,3.7-6.3,5.5-9.5.8-1.4,1.7-2.8,2.2-4.3.5-1.4,1.2-1.9,2.6-1.8,3.2.1,6.3,0,9.4-.7,1.2-.3,1.3-.4.5-1.4-.3-.5-.5-1-.8-1.5-.5-1-1-1.8-2.2-2.1-1.4-.3-2.8-.8-4.2-1.2-1.2-.4-1.6-1.2-.9-2.2.8-1.1,1.4-2.1,1.5-3.5.2-1.9,1-3.7.9-5.8-.2-3.6-1.9-6.2-4.6-8.3-2.1-1.7-4.6-2.2-7.2-2.5-1-.1-2,0-3,0-.9,0-1.9.3-2.8.5-.8.1-1.6,0-2.3.3-3.7,1.5-7.5,2.9-11.2,4.7-2.3,1.1-4.3,2.8-6.4,4.4-.5.3-.9,1-1,1.5-.6,2.9,1.1,5.1,2.9,6.7,2.2,2,5.2,1.6,6.8-.6,1.4-1.9,3.4-2.7,5.3-3.6,3.5-1.5,7.2-2.6,10.8-3.9.9-.3,1.7.4,1.4,1.3-.3.8-.7,1.6-.9,2.5-.7,2.2-1.3,4.4-2.1,6.5-.1.4-.8.8-1.2.8-1,.1-2.1,0-3.2,0-1.7,0-3.5.3-5.2.2-2-.1-4-.7-6-.9-1-.1-2.1-.4-3-.2-1.3.3-2.1,2.8-1.4,4,.7,1.3,1.4,2.6,2.4,3.6,1.8,1.9,4.3,2.7,6.8,3,1.1.1,2.3,0,3.5,0,1.2,0,1.5.7.9,1.7-.5.8-.9,1.5-1.4,2.3-1.1,1.8-2.2,3.6-3.5,5.6M22.3,207c-.8,1.2-1.5,2.4-2.3,3.5-.6.9-1.2,1.9-2,2.7-1,1-1.6,2.4-2.5,3.4-2.7,3.2-5.6,6.2-8.4,9.3-.8.8-2,1.5-.8,2.9.1.2,0,.6,0,.9,0,.3,0,.8.3,1,1.7,1.5,3.4,3,5.3,4.2.6.4,2,.3,2.5-.1,1.4-1.2,2.6-2.7,3.7-4.2.9-1.2,1.5-2.7,2.5-3.8,1.5-1.7,3.1-3.4,4.3-5.3,1.1-1.7,2.5-3.2,3.7-4.9,1.4-1.8,2.6-3.7,4-5.6.2-.3.7-.5,1-.4.2,0,.5.6.4,1-.1,2.1-.3,4.1-.5,6.2-.1,1.5-.1,3-.3,4.5-.3,3.4-.8,6.9-.9,10.3,0,2.2.4,4.4.7,6.6,0,.6,0,1.3.3,1.8.9,1.4,1.8,2.8,2.8,4.1,1.2,1.6,3.2,1.9,4.9,2.7,1.6.8,2.9-.3,2.8-2.1-.1-1.8-.7-3.5-.7-5.3,0-4.2,0-8.4.6-12.7.7-4.8.3-9.7.4-14.5,0-1.5.1-2.9,0-4.4-.3-2.7-.6-5.5-1-8.2-.3-1.8-.6-3.7-1.3-5.4-.5-1.1-1.7-1.9-2.6-2.8,0,0-.2,0-.2,0-.9-.2-1.8-.5-2.7-.7-1.8-.5-3.4.2-4.2,1.9-.2.5-.4,1-.7,1.5-1.2,1.9-2.4,3.9-3.8,5.8-1.6,2.1-3.3,4-5.1,6.2M211,94.3c.3.5.5,1,.8,1.5.9,1.8,2,3.3,3.4,4.7.6.5.9,1.7,1.8,1.3,1-.4,2.4-1.1,2.6-2,.7-2.1,1.1-4.4,1-6.5,0-3.6-.5-7.3-.7-10.9-.1-3.8-.1-7.6,0-11.4,0-2.2,0-4.5.9-6.7.3-.7,0-1.9-.4-2.4-1.6-1.8-3.1-3.8-5.5-4.6-.2,0-.3-.2-.5-.2-.8,0-1.9-.3-2.4,0-1.3.9-2.3,2-2.7,3.8-.7,3.6-1,7.2-1.1,10.9-.1,2.7,0,5.5,0,8.2,0,.4,0,.7,0,1.1.5,2.8.9,5.7,1.4,8.5.3,1.5.8,2.9,1.2,4.6M295.9,150.1c-.3,1.7-.7,3.4-1,5.1,0,.4.3,1,.2,1.4-.3,1.5-1.1,2.8-1,4.5,0,1.1,0,2.4-.5,3.4-.9,2.2.4,3.3,1.7,4.5.7.7,3,.7,3.6,0,1.8-2.2,4.1-4,5-6.9,1.1-3.4,2.7-6.7,3.9-10.1,1.1-3.3,2-6.7,3.1-10,.4-1.3,1.1-2.7,1.9-3.8.8-1.1.9-2,.6-3.2-.3-1-.8-2.1,0-3.2.3-.3.2-1.4-.1-1.7-1.4-1.1-2.4-3-4.7-2.5-1.6.3-3,.5-4.1,1.8-.9,1-2.2,1.8-2.8,2.9-1.3,2.6-2.2,5.3-3.2,8-.5,1.2-.8,2.5-1.1,3.8-.4,1.7-.7,3.4-1,5.1,0,.2-.3.4-.5.8M112,137.6c-.4,1.8-.8,3.6-1.3,5.3-.2.7-.6,1.4-.7,2.2-.2,2.3-.5,4.7-.5,7,0,3.1.2,6.3.8,9.4.3,1.8,1.2,3.6,2.3,5,1.5,2,3.8,2.7,6.4,2.7,1,0,1.4-.5,1.8-1.2.4-.8.8-1.5,1-2.3.2-.6.4-1.3.3-1.8-.7-2.3-1.7-4.6-1.5-7.1.3-3.7.5-7.4,1.1-11.1.4-2.2.8-4.4,2.3-6.3.2-.3.3-1,.1-1.3-.8-1.5-1.8-3-2.7-4.5-.1-.2-.3-.4-.4-.4-.9-.4-1.9-.7-2.8-1.1-.9-.4-1.7-.2-2.5.3-1.9,1.2-2.8,2.9-3.6,5.1M233.2,107.3c0,.9-.2,1.8.5,2.7,1.3,1.7,2.1,3.8,4,5.1,2,1.4,4,.7,5-.8.7-1,1-2.3,1.4-3.4.5-1.3,1-2.6,1.6-3.8,1.1-2.3,2.2-4.6,3.5-6.8,1.3-2.1,3.2-3.8,4-6.2,0-.2.3-.3.4-.5.3-.7.8-1.3.8-2,0-1.4,0-2.9-.2-4.3,0-.7-.3-1.6-.7-1.9-.8-.5-2-1-2.9-.9-1.6.3-3.4.9-4.6,1.9-2.3,1.9-4.5,4-6.1,6.4-2.1,3-3.6,6.4-5.3,9.7-.7,1.4-1.6,2.8-1.3,4.7M180.8,263c-.2.9-.6,1.7-.7,2.6-.4,2.4-.7,4.8-1,7.2-.1.8,0,1.7-.3,2.5-.5,2-.5,3.9,0,6,.5,2,.8,3.9,2.1,5.5,0,.1,0,.3,0,.5.2,1.1,1.1,1.4,2.1,1.6,1,.1,1.7-.2,1.9-1.3.2-.7.6-1.3.9-2,.6-1.3,1.3-2.5,1.8-3.9.5-1.4.7-2.8,1-4.2.8-3.2,1.5-6.4,2.2-9.6.4-2,.6-4,1-5.9.7-2.8.1-5.2-2.2-7-1.1-.9-2.4-1.7-3.8-2.2-2.9-1.1-4.9.6-4.6,3.7,0,.5,0,1,0,1.5-.1,1.6-.3,3.3-.5,5.2M293.3,250.4c2.5-.3,4.8.4,7.1,1.1,1.5.5,2.3,0,2.2-1.6-.2-2.1-1.3-3.7-3-5-.6-.5-1.3-.8-2-1.2-1.6-.9-3.2-2.1-4.9-2.5-3.4-.8-6.9-1.1-10.4-.6-.9.1-1.8.2-2.7.5-2.6.9-5.1,2.2-7.1,4.1-.6.6-1,1.3-.7,2.1.3.7.6,1.4.9,2.1.2.4.3.8.6,1.1,1.2,1.1,2.4,2.2,3.7,3.2,1,.8,2.6.8,3.6.2,1.4-.9,2.8-1.9,4.2-2.7,1.7-.9,3.7-.9,5.5-1.1.9,0,1.8.1,3,.2M213.5,134.3c0-.8,0-1.5,0-2.3.2-1.7.6-3.5.7-5.2,0-1.4.4-3.2-.3-4.2-1.5-2.1-3.4-3.8-5.4-5.5-1.5-1.3-4.4-.1-4.7,1.8-.3,2-.4,4-.5,6,0,1.5.1,2.9.2,4.4,0,.9,0,1.8.4,2.6,1.3,3.3,3.5,5.6,7.2,6.2.4,0,1,0,1.1-.1.5-1.1,1.6-2,1.3-3.7M291.4,41.1c0,.9-.3,1.9-.2,2.8.2,2.1.4,4.1.7,6.2,0,.3.4.6.7.9.2.2.4.4.5.7.9,1.4,1.6,2.9,2.6,4.3,1.4,1.9,1.4,1.7,3.7.9,1.2-.4,1.9-1,1.7-2.4,0-.2,0-.5,0-.7.5-2.2,1.4-4.4,1.2-6.8,0-.8.4-1.7.4-2.6,0-.7-.3-1.5-.7-2-.5-.7-1.4-1.2-2-1.8-1.4-1.5-2.8-2.8-4.7-3.7-1.1-.5-1.9-.5-2.8.3-1.2,1-1.2,2.4-1.2,4M188.6,322.1c.7-.3,1.4-.6,2-1,2-1.3,2.4-2.5,1.5-4-.9-1.7-1.9-3.4-2.9-5-.9-1.6-3-1.7-3.9-.1-.9,1.4-2.2,2-3.7,2.4-.5.1-1.1.5-1.3.9-.1.3.2.9.4,1.4.3.6.6,1.2,1,1.8.3.5.5,1.1.9,1.3,1.9.8,3.8,1.5,5.9,2.2M134.7,65c.3,0,.6.1.9.3,2.7,1.5,5.3,1.3,8-.1,1.7-.9,1.8-2.6.3-3.7,0,0-.2-.2-.3-.3-2.8-2.6-6.1-4.1-10.1-3.6-.7,0-1.7.9-1.9,1.5-.7,2.5.4,4.6,3.1,5.9M110.5,220.5c0,.3-.3.6-.2.7,1.3,1.5,1.3,3.9,3.2,5,.8.4,1.6.7,2.4,1.2,2.5,1.4,5-.4,6-2.3.2-.3,0-.9-.1-1.3-.3-.7-.9-1.4-.9-2.1-.2-2-1.3-3.1-3.1-3.5-.6-.2-1.4,0-2,0-.8,0-1.8-.3-2.4,0-1,.5-1.8,1.4-2.7,2.4M123.5,58.9c-.9-.6-1.8-1.4-2.7-1.9-.6-.4-1.4-.4-2.1-.7-1.7-.8-2.6-.6-3.6.4-.9.9-.7,1.8-.7,2.9,0,2.1,1.2,3.4,2.7,4.2,1.9.9,3.8,1.8,6.1,1.6,1-.1,1.5-.4,2-1.2,1.1-2.3,1.1-2.3-.8-4.2-.3-.3-.6-.6-1-1M332.4,295.5c-1.1-.7-2.2-1.4-3.4-2.1-.7-.4-1.1,0-1.4.5,0,.1.2.6.4.8,1.8.8,3.6,1.6,5.4,2.4.2,0,.5,0,.7-.1-.2-.3-.2-.8-.5-1-.3-.2-.7-.2-1.2-.4M6.7,276.6c.2.3.4.7.7,1,1,.8,2.6.7,3.2,2.1,0,0,.4,0,.7,0,0-.2.1-.5,0-.6-.6-.6-1.1-1.2-1.8-1.6-.8-.5-1.8-.8-2.8-1M148.3,280c0,0,.2.2.3.3.4.1.8.2,1.2.3-.2-.3-.4-.7-.6-.9-.6-.6-1.2-1.1-1.8-1.6-.2-.1-.4-.1-.6-.2,0,.2,0,.5.2.7.4.5.9.9,1.4,1.5M23.8,305.5c0,.1-.1.4,0,.4.5.6,1.1,1.1,1.7,1.7.1.1.4.1.6.2,0-.2,0-.5,0-.7-.6-.6-1.3-1.2-2.1-1.6M51.5,304.3c-.2.1-.4.3-.6.4.2,0,.5.3.6.3.8-.4,1.4,0,2,.6.1,0,.3,0,.4,0,0-.1,0-.4,0-.4-.6-.5-1.2-1.1-2.4-.9M73.9,281.9c.4.4.7.5.6-.2,0-.2-.3-.5-.5-.7-.3-.3-.6-.6-.9-.9.1.4.2.7.4,1.1,0,.2.2.3.4.6M39.5,328.1c0,.2.2.5.3.7.1-.1.3-.3.4-.4.2-.5.3-1,.4-1.5-.3.4-.6.7-1.1,1.2M35.5,307.8c-.2,0-.3-.2-.5-.2,0,.3-.3.7-.2.7.4.3.8.5,1.2.7-.1-.4-.3-.7-.5-1.2M92.8,317c.6.2,1.2.4,1.8.6,0,0,.1-.2.2-.4-.7-.1-1.4-.2-2-.2M42,17.8c0-.2,0-.3,0-.5-.7.2-1.5.3-2.2.5,0,0,0,.1,0,.2,0,0,.1,0,.2,0,.6,0,1.2-.2,2.1-.2M33.7,19.3c.4-.1.9-.3,1.3-.4-.4,0-.9,0-1.3,0,0,0-.2,0-.2,0-.3.1-.6.2-.8.3.3,0,.6.1,1.1.2M133.2,50.7c-.4.2-.7.5-1.1.7.4,0,.7-.1,1.1-.2.2,0,.4,0,.6,0-.1-.1-.2-.3-.6-.4M112.3,262.5c0-.1-.1-.3-.3-.4-.3-.2-.3-1.1-.9-.4.4.3.7.6,1.2.8M47.8,282.5c-.4-.5-.8-.9-1.1-1.4,0,0-.1.2,0,.2.3.4.6.7.9,1.1,0,0,.1.1.3,0M27,56l.2-.6c-.3,0-.5.1-.8.2.1.1.2.3.6.4M57.1,318.7c-.2-.2-.4-.4-.6-.6,0,0,0,0-.1.1.2.2.4.4.7.5Z"/>
    <path d="M240.5,189.7c.3.2.7.4.7.6-.2,1.6.4,3.1.8,4.7.4,2.1.7,4.2,1,6.3.1.8.2,1.6.3,2.4,0,.3,0,.9-.2,1-.4,0-.9,0-1.3-.1-1.3-.6-2.6-1.2-3.8-1.9-.3-.2-.7-.9-.6-1.2.6-1.9.9-3.8,1.1-5.8.1-1.4.5-2.8.9-4.1.2-.7.7-1.3,1.2-1.9Z"/>
    <path d="M287.3,316.5c.3.4.5.7.7,1.1.2.6.3,1.2.4,1.7-.3-.4-.6-.9-1.1-1.2-.4-.3-.9-.4-1.4-.5-.3,0-.6,0-.9-.1.2-.3.4-.6.6-.9.2-.2.4-.4.6-.6.3-.2.6-.4.8-.7,0,.4.1.7.3,1.2Z"/>
    <path d="M269.6,333.3c.3-.2.6-.3.9-.4,0,.3.2.5.2.8,0,.7,0,1.5,0,2.2,0,.4-.4.7-.6,1-.3-.4-.8-.8-.8-1.2,0-.8.2-1.6.4-2.4Z"/>
    <path d="M295.6,305.8c-1.1,1.2-2.1,2.3-3.2,3.3-.1.1-.4.1-.6.2,0-.2,0-.5,0-.6,1.2-1.4,2.5-2.7,3.8-4,0,0,.2,0,.3,0,0,.3-.2.7-.3,1.1Z"/>
    <path d="M276.3,266.7c-.1.4-.2.8-.3,1.1-.4.6-.8,1.2-1.2,1.7-.1.1-.3.2-.4.4,0-.2-.2-.4-.1-.5.2-.5.4-1,.7-1.4.3-.5.7-1,1-1.5.1-.2.3-.3.5-.4,0,.2,0,.4-.1.7Z"/>
    <path d="M289.5,214.5c.5-.6,1-.9,1.6-.3.2.2.3.9,0,1-.2.3-.8.5-1.1.4-.3-.1-.4-.7-.5-1.1Z"/>
    <path d="M224.2,213.6c0-.3,0-.6,0-.7,0-.2.2-.3.3-.5,0,.2.2.3.1.5,0,.9,0,1.9-.2,2.8,0,.3-.4.5-.7.7,0,0-.3-.1-.5-.2.1-.2.3-.4.4-.7.2-.5.3-1.1.4-1.8Z"/>
    <path d="M250,296.2c.3-.3.6-.5.9-.7.3-.1.7-.2,1-.3-.2.4-.4,1-.8,1.2-.3.2-.9.1-1.4.1,0-.1.1-.2.2-.4Z"/>
    <path d="M312.9,264.1c-1.1-.2-.6-1-.6-1.6,0,0,.2-.3.3-.3.1,0,.3.2.3.3,0,.5,0,1,0,1.5Z"/>
    <path d="M294.1,318.1c-.3-.4-.5-.6-.7-.9-.1-.1-.3-.2-.4-.4.2,0,.6-.2.7-.1.4.4.7.9,1,1.4-.2,0-.3,0-.6,0Z"/>
    <path d="M244.7,299.6c-.3-.1-.5-.3-.7-.4.3-.2.7-.5,1-.5.2,0,.5.5.7.8-.3,0-.6.1-1,.2Z"/>
    <path d="M130.7,3.2c.3-.2.4-.4.7-.4.2,0,.4.2.7.3-.2.2-.4.4-.6.5-.3,0-.6,0-.8,0,0,0,0,0,0,0,0,0,0,0,.1-.2Z"/>
    <path d="M308.4,290.8c.2.2.4.5.6.8l-.5.2c0-.3,0-.7,0-1.1Z"/>
    <path d="M280.1,211.5c0-.3,0-.6,0-.8.2.2.5.5.7.7-.2,0-.5,0-.8,0Z"/>
    <path d="M315.7,265.1c-.1.5-.3.9-.4,1.2-.1,0-.3-.2-.3-.2.2-.4.5-.8.7-1Z"/>
    <path d="M304.6,201.1c0,0,.1-.1.1-.1.3-.2.5-.4.8-.5,0,.1,0,.3,0,.3-.3.2-.7.4-1,.6,0,0,0,0,0,0,0,0,0,0,.1-.2Z"/>
    <path d="M71,10c-.3,0-.6-.2-.9-.4.2-.1.5-.2.7-.3,0,.2.1.4.2.7Z"/>
    <path d="M297.7,314.3c.2-.2.4-.3.7-.5v.9c-.2-.1-.4-.2-.7-.5Z"/>
    <path d="M270.6,207.6c.2,0,.3-.1.5-.1-.2.3-.3.6-.5.9,0,0-.2,0-.3,0,.1-.2.2-.5.4-.7Z"/>
    <path d="M247.5,304c0-.3,0-.5.1-.7.1,0,.2.1.3.2-.1.2-.2.4-.4.5Z"/>
    <path d="M270.5,280.4c.1.1.2.3.2.5,0,0-.3,0-.4.1,0-.2.1-.4.2-.7Z"/>
    <path d="M314.6,177.9c-.3,0-.5,0-.6,0,.2-.2.4-.4.6-.6,0,.2,0,.4,0,.6Z"/>
    <path d="M110.5,283c.6-.9,1-1.7,1.6-2.5.1-.2.6-.2.9,0,.2,0,.5.4.5.6.4,1.5.9,3,1.2,4.5.2.8-.2,1.2-1.1,1.4-1.1.1-2.2.5-3.3.8-.4,0-.9.2-1.1,0-.2-.3-.4-.8-.3-1.2.4-1.2.9-2.3,1.4-3.5Z"/>
    <path d="M155.8,307.3c-.5.2-.9.4-1.4.5,0-.1,0-.3.1-.3.4-.1.8-.2,1.3-.1Z"/>
    <path d="M187,135.7c-.2.8-.3,1.5-.5,2.1-.2.4-.6.7-1,.8-.8.2-1.5,0-1.9-.8-.2-.3,0-1,.2-1.3.5-.6,1.1-1.2,1.7-1.7.8-.7,1.3-.5,1.5.8Z"/>
    <path d="M191.4,159.5c0,0,.1.1.1.1.3.3.6.6.9.8-.4,0-.8,0-1.1,0-.7-.1-1.4-.3-2.1-.5-.2,0-.3-.4-.5-.6.3-.2.7-.6.9-.5.6,0,1.1.4,1.8.7Z"/>
    <path d="M194.2,162.1c.2,0,.4,0,.6,0,0,.2-.1.3-.2.5-.1-.2-.3-.3-.4-.6Z"/>
    <path d="M299.4,79c1.2.5,2.3,1,3.4,1.4,1.6.6,3.2,1.1,4.8,1.8.4.2.8.6.9.9,0,.3-.3.8-.6,1.1-1.3,1.3-2.6,2.6-4,3.7-1.2,1-2.6,1.9-4,2.7-1.7,1.1-3.5,2-5.2,3-.2.1-.5.2-.7.4-.5.6-1,.8-1.7.4-.7-.4-1.3-.7-1.3-1.7,0-1.4-1.6-2.8-3-2.9-1.9-.2-3.6.5-5.2,1.4-.3.2-.5.3-.8.4-2,.4-4,.7-6,1-1.1.2-3.2-1.6-3.2-2.8,0-1.7,0-3.4.2-5.1.1-1.3,1.9-2.2,3.2-2.1,1.7,0,3.4,0,5-.3,3.2-.8,6.3-1.9,9.4-2.9,1.2-.4,1.5-1.1.9-2.2-1.4-2.4-3.3-3.9-6.2-3.8-2,0-3.9.2-5.9.2-1.6,0-1.9-.4-1.1-1.7.7-1.4,1.6-2.7,2.4-4,.8-1.3,2.2-.8,3.3-.9,2.1-.3,4.1-.6,5.8-2,.2-.1.5,0,.8-.1,0,.5.3,1.1.1,1.4-1.2,1.7-.6,3.1.2,4.7.9,1.7,1.6,3.5,3.1,4.9,1.6,1.4,3.5,2.2,5.4,3.1Z"/>
    <path d="M283.4,93c-.1.4-.3.8-.5.9-.4,0-.8-.1-1.2-.2.1-.2.2-.4.3-.5.4-.1.9-.2,1.4-.2Z"/>
    <path d="M278.2,81c-.2,0-.3-.1-.5-.2.3-.1.6-.2,1-.3,0,0,.2.2.2.3-.2,0-.4.1-.7.2Z"/>
    <path d="M290.8,97c.2,0,.3.1.4.2l-.7.2c0-.1.1-.2.2-.4Z"/>
    <path d="M288.7,58c-.2.2-.4.2-.7.2,0,0,0-.2,0-.2.2,0,.4-.1.7,0Z"/>
    <path d="M283.1,136.5c.2,2,.3,4,.6,5.9.1,1-.5,1.2-1.1,1.2-1.4,0-2.8,0-4.2,0-.9,0-.8-.7-.5-1.2.4-.7,1.1-1.4,1.6-2.1.7-1.1,1.5-2.1,2-3.3.5-.9,1-1.2,1.7-.6Z"/>
    <path d="M240.4,159.6c-1.2.5-2.5-.1-3.2-1.5-.5-.9-.7-2-2-2.2-.5,0-1,0-1.5-.2-.3,0-.5-.4-.8-.5.3-.2.6-.6.9-.7,1.2,0,2.3-.2,3.2,1.1.9,1.3,2.2,2.3,3.3,3.4.1.1,0,.4,0,.7Z"/>
    <path d="M289.5,163.4c.4.2.9.2,1.1.4.2.2.3.5.5.8-.4.1-.9.5-1.2.3-1.4-.7-2.7-1.6-4-2.4-.2-.1-.5,0-.7-.1-.7-.2-.9-1-.4-1.5,0,0,.2.1.3.2.5.1.9.2,1.4.4.2,0,.5,0,.7.2.7.5,1.5,1.1,2.2,1.7Z"/>
    <path d="M259.5,132.2c-1.2,0-2.2.3-3.3.2-.4,0-.8-.5-1.2-.9,0,0,.3-.7.5-.7.4,0,.8,0,1.2.1,1,0,1.9.1,2.9.3.5,0,.9.3,1.3.5-.5.2-.9.3-1.5.5Z"/>
    <path d="M267.2,133.4c-.4,0-.7-.2-1-.2-.3,0-.6,0-1,0,.3-.3.6-.7.9-.9.2-.1.6,0,.8,0,.6.1,1.1.4,1.6.5-.4.2-.9.5-1.4.7Z"/>
    <path d="M264.7,133.7c-1.3.4-1.6-.8-2.4-1.1,0,0,0-.3,0-.4,0,0,.3-.2.3-.2.8.5,1.5,1,2.3,1.5,0,0,0,.1-.2.2Z"/>
    <path d="M280.3,129.5c.3.3.4.7.6,1.1-.2,0-.3,0-.5.1,0-.4-.1-.8-.1-1.2Z"/>
    <path d="M114.9,87.8c2.4-.9,4.8-1.7,7.3-1.8,1.7,0,3,.7,4.2,1.6,2,1.3,3.9,2.8,5.8,4.3,1.1.9.8,2.3-.6,2.9-1.1.4-2.4.7-3.6,1.1-1.6.5-3.2,1.2-4.8,1.7-3.9,1.4-7.9,2.5-12.1,2.2-.7,0-1.5,0-2.1-.3-.6-.3-1.2-1-1.3-1.5-.2-1.3-.1-2.6,0-3.9.3-2.2,2.2-3.3,3.8-4.5.9-.7,2-1.1,3.1-1.7Z"/>
    <path d="M30.4,146.7c-.3.4-.5.8-.7,1.2-.7,2.2-2.6,3.5-4.2,5-.9.8-1.7,1.6-2.6,2.4-.3.3-.8.6-1.2.6-.5,0-1-.2-1.5-.3.1-.4.3-.8.4-1.3.2-.8.4-1.6.5-2.4.3-1.2.7-2.3.9-3.5.5-2.7,1.9-5.1,2.7-7.8.6-2,1.4-3.6,3.3-4.5,1.7-.8,3.4-1.5,5.2-2.3,1.1-.4,2.2-.8,3.3-1.2.9-.3,1.4.1,1.2,1-.6,3.6-2.4,6.8-4.3,9.8-.7,1.2-1.9,2.1-2.9,3.1Z"/>
    <path d="M30.3,163.1c1.6-.7,3.1-1.3,4.7-1.9.2,0,.7,0,.7.2,0,.4.2,1,0,1.2-1,1-2.2,1.9-3.3,2.8-1.6,1.3-3.2,2.5-4.8,3.8-1.3,1.1-2.4,2.4-3.6,3.6-.4.3-.8.6-1.3.8-1,.4-1.6,0-1.8-1-.2-1.5-.5-3-.7-4.4-.3-1.8-.7-3.6-.9-5.5,0-.4.5-.9.8-1.4.3.2.9.4,1,.7.8,2.2,2.9,1.8,4.4,2.5.1,0,.3,0,.5,0,1.5-.4,2.9-.8,4.4-1.3Z"/>
    <path d="M85.1,148.4c0,1.2,0,2.3,0,3.4,0,.8-.4,1.3-1.1,1.4-4.2.4-8.4.7-12.6,1-.4,0-.7,0-1.1-.1-.7-.2-.9-.6-.5-1.3.6-1,1.3-2.1,1.9-3.1,2.2-4,4.4-8,6.7-11.9,1.2-2,2.9-3.8,4.4-5.7.8-.9,1.6-.7,2,.5,0,.2,0,.4,0,.6,0,5,.2,10.1.2,15.2Z"/>
    <path d="M199.2,58.2c0,0-.1.1-.2.1-.5,0-1,0-1.5,0,0-.1,0-.4.1-.4.5,0,1.1,0,1.5.2Z"/>
    <path d="M218.2,96.9c-.7,0-1.3,0-2-.1,0,0,0-.3,0-.4.7.2,1.3.3,2,.5Z"/>
    <path d="M297.2,163.2c0,.6,0,1.1,0,1.7-.5-.1-.9-.2-1.4-.4-.3-.2-.7-.5-.9-.9-.2-.3-.3-.7-.2-.9.2-.4.6-.9,1.2-.4.4.3.8.6,1.3,1Z"/>
    <path d="M299.4,165.7c0,.4-.2.6-.4.9-.2-.3-.4-.5-.6-.8.3,0,.6-.2.9-.2Z"/>
    <path d="M296,159.9c0-.3,0-.6,0-.9.3.2.6.5.9.7-.3.1-.6.2-.9.2Z"/>
    <path d="M239.5,109.6c-.3-.4-.9-.7,0-.9,1.1-.3,3.4,1.7,3.2,2.8,0,.2,0,.3-.1.4-.2,0-.4-.1-.5-.2-.5-1.1-1.5-1.5-2.6-2.1Z"/>
    <path d="M236.3,108.1c0-.1,0-.3,0-.3.2-.2.5-.4.7-.6l.3.3c-.3.2-.6.4-.9.5Z"/>
    <path d="M297.2,248.4c-.4,0-.7-.1-1-.2.1-.2.2-.4.4-.5.2-.1.6,0,.8-.1,0,.3,0,.6-.3.9Z"/>
    <path d="M211,131.6c-1,.5-1.8.4-2.5-.4,0,0,.1-.5.2-.5.9-.2,1.7,0,2.3.9Z"/>
    <path d="M211,131.8c.2-.1.5-.3.7-.2.1,0,.2.4.3.6,0,0,0,.2-.1.3-.3-.2-.6-.4-.8-.7Z"/>
    <path d="M299.4,50.8c.1.6,0,.9-.6.6-.8-.3-1.6-.7-2.3-1.1-.2-.1-.3-.4-.4-.6.3,0,.5-.2.8-.3,1.1-.2,1.7.7,2.5,1.3Z"/>
    <path d="M296.9,47.7c.9-.2,1.8-.4,2.7-.4,0,0,.4.4.3.6-.1.2-.4.6-.6.6-.8-.1-1.6-.4-2.4-.7Z"/>
  </g>
</svg>