<?xml version="1.0" encoding="UTF-8"?>
<svg id="Layer_1" xmlns="http://www.w3.org/2000/svg" version="1.1" viewBox="0 0 151.1 440.5">
  <!-- Generator: Adobe Illustrator 29.3.1, SVG Export Plug-In . SVG Version: 2.1.0 Build 151)  -->
  <g id="Shape_92">
    <path d="M132.2,438c-.6-.4-1.1-.8-.5-1.6.1-.1,0-.4,0-.7,0-.2-.2-.5-.4-.7,0,0-.4.1-.5.3,0,.1,0,.3,0,.5,0,.1,0,.2,0,.3-.3-.1-.6-.3-.9-.5,0,0,0-.3.1-.4.5-1,.3-1.4-.8-1.8-1.3-.5-2.6-1-3.8-1.7-.8-.4-.8-1.4-1-2.2-.1-.5,0-1.1-.2-1.7-.2-.5-.6-.9-1.2-1-1.5-.1-2.8-1.6-2.9-3.1,0-.7-.3-1-1.1-.9-.1,0-.4,0-.4-.2,0-.3-.2-.7-.2-1,.1-1-.5-1.9-1-2.6-.7-1-.7-1.8-.3-2.8.2-.5.2-.8-.4-1-.5-.1-.8-.6-1.2-1-.3-.3-.4-.6-.7-.9-.4-.3-1.1-.5-.5-1.2,0,0-.1-.3-.2-.5-.1,0-.3.2-.4.3-.6.7-1.7.7-2.2,0-.2-.3-.5-.6-.7-1,.3-.1.7-.3,1-.4.1,0,.2-.2.3-.3,0,0-.1-.3-.2-.3-1.6,0-3.1-.1-4.7-.2,0,0-.2,0-.2,0-.2,0-.3.2-.5.3,0-.2,0-.3,0-.5,0,0,0-.1,0-.2,0-.2-.1-.4-.2-.6.3,0,.7,0,1,0,.6,0,1.2,0,1.8,0,.1,0,.3-.3.4-.4-.2-.1-.4-.4-.7-.4-.6,0-1.3,0-1.7-.5-.1-.2-.3-.3-.3-.5,0-.9-.7-1.3-1.3-1.7-.3-.2-.6-.4-.8-.6-.1-.1-.2-.4-.2-.5.4-.8-.1-2-1-2.2-.7,0-.5-.4-.4-.8.2-.7.4-1.4.5-2.1,0-.2,0-.5-.2-.6-1-.6-1.1-1.1-.6-2.2.3-.7.3-1.4-.3-2-.6-.6-1.1-1.3-1.1-2.2,0-.7-.8-.5-1.1-.6-.6-.1-.7-.2-.6-.9.2-.9-.1-1.9-1-2.5-.5-.3-.5-.6,0-1.1.4-.5.5-1.2.6-1.9,0-.6.1-1.2.8-1.4.2,0,.3-.3.4-.4.5-.4.2-.7-.1-.9-.9-.5-1.9-1-2.8-1.5-.7-.4-1.1-1.1-1.3-1.9-.1-.4-.4-.8-.8-1.1-.6-.5-1.3-.9-1.9-1.4-.6-.4-.7-1.2-.3-1.8.4-.6-.2-.8-.4-.9-.7-.4-.7-.8-.3-1.4.7-.9.5-2-.3-2.9-.3-.3-.7-.7-.9-1.1-.2-.3-.1-.8-.2-1.2,0-.5-.2-.9-.3-1.4,0,0-.1,0-.2.1-.3.5-.5,1-.8,1.5,0,.1-.3.1-.4.2,0-.2,0-.3,0-.5.3-.9,0-2-.8-2.4-.3-.2-.7-.1-1.1-.2-.2,0-.4-.2-.6-.2.2-.1.4-.4.6-.4.6-.1,1-.3,1.3-.9.2-.4.2-.6-.3-.8-.1,0-.2,0-.3-.2-.3-.2-.6-.5-.9-.7.3,0,.7-.1,1-.1.6,0,1.2,0,1.6-.5,0-.1.1-.3.2-.4-.2,0-.3,0-.5,0-.5,0-1,.1-1.5.2-.2,0-.4,0-.6-.1.2-.1.3-.3.5-.4.5-.3.9-.6,1.4-.8.7-.4.6-1,.6-1.6,0-.4,0-.9,0-1.3,0-.3,0-.6,0-.9-.2-.6-.5-1.2-.8-1.8,0-.2-.1-.4,0-.6.6-.8-.1-.9-.6-1.2-.3-.2-.6-.4-.1-.8,0,0,0-.3-.2-.4-.4-.2-.8-.3-1.1-.5-.7-.5-.8-1.4-.8-2.2,0-.8-.9-1.1-1.1-1.7,0,0-.2,0-.3,0-.2,0-.4.3-.6.3-.3,0-.7,0-1-.1.2-.2.4-.4.6-.4.8-.3,1.6-.5,2.4-.8.1,0,.2-.2.3-.3-.1,0-.2-.2-.3-.2-.1,0-.3,0-.4,0-1.3-.2-1.4-.5-1-1.7.1-.3.4-.7,0-1-.1-.1,0-.5,0-.8-.2-.4-.4-.8-.7-1.3-.1-.2-.3-.4-.3-.6.3-1.3-.4-2.3-1.8-2.3-.1,0-.3-.3-.4-.4-.4-.4-.7-.7-1.1-1.1-.5-.4-1.2-.7-.8-1.6.2-.4,0-.9-.7-.9-.2,0-.6,0-.6,0-.5-1.1-1.8-1.1-2.5-1.7,0,0-.1-.1-.2-.2,0,0,.2-.1.3,0,.6.1,1.2.3,1.9.5.5,0,.9,0,.9-.7,0-1.1,0-2.1-1.4-2.5-.4-.1-.5-.5-.3-.9,0-.1.1-.2.2-.3-.1,0-.3,0-.3,0,0-.2-.3-.5-.2-.6.1-.3.4-.4.7-.6,0,.3,0,.6,0,.8,0,0,0,.2.1.3.5-.2,1-.5,1.4-.7,0,0,0-.3,0-.4,0,0-.2,0-.3,0-.4.6-.6.2-.9,0,0,0-.3,0-.4,0-.5-.5-.4-1,.2-1.4.1,0,.1-.3.2-.5-.2,0-.4,0-.6,0-.2,0-.3.3-.4.5-.1.1-.2.3-.3.4,0-.2-.2-.4-.2-.6-.2-.8-.3-1.6-.5-2.5-.2-.7.5-2.1,1.4-2.6,0,0,0,0,.1,0,.2-.2.4-.4.7-.5-.3,0-.6,0-.8.1-.5.2-.9.2-1.4-.1-.3-.2-.9,0-1.3,0,0,0,0,.2,0,.3.3.3.7.6,1.2.3.1.2.4.5.4.6-.3.5-.7.9-1,1.4,0,0-.2.1-.3.2,0-.1,0-.3,0-.4,0-.1,0-.2,0-.3.1-.3.5-.6,0-.7-.4-.2-1-.3-1.5-.2-.3,0-.8.2-.5.8-.2.1-.4.3-.7.4-.4,0-.8,0-1.2,0-.2,0-.4-.1-.6-.2.2,0,.3-.2.5-.3.1,0,.2,0,.3-.1-.1,0-.2-.2-.3-.3-.5,0-1.1,0-1.6,0-1.4,0-2.3,1.2-3.7,1.1,0,0-.1,0-.2.1-.5.2-.8.5-1.5.1-.6-.4-1.5-.2-2.2-.4-.8-.3-1.5,0-2.3.2-1.1.2-2-.4-2.2-1.4,0-.3-.3-.8-.5-.9-.7-.2-.5-.4-.2-.7.2-.2.3-.5.4-.7-.3,0-.6,0-.9,0-.2,0-.4,0-.6,0-.1,0-.2-.2-.3-.4.1,0,.3-.1.4-.1,1.3,0,1.3,0,1.4-1.4,0-.9.2-1.7.3-2.6.1-.6-.3-.9-.7-1.3-.1-.1-.4-.2-.5-.4-.3-.4-1.3-.8,0-1.1,0,0,0-.3,0-.4-.3,0-.5.1-.8.1-.2,0-.3,0-.5,0,0-.1.1-.3.1-.4,0-.2,0-.4,0-.6-.4-.7-.8-1.4-1.2-2.1.8-1-.7-1.2-.6-1.9,0-.4,0-.7.6-.8.4,0,1-.2.5-.9,0-.1,0-.3,0-.5.4-1,0-1.7-.7-2.3-.3-.3-.6-.6-1.1-.7-.4,0-.8-.3-1.2-.5,0,0,0,0,0,0-1-.5-1.6-1.4-2.4-2.2-.3-.3-.7-.7-1.2-.4,0,0-.2-.1-.4-.2.1-.1.2-.2.3-.3,0,0,.2,0,.3-.1-.1,0-.2-.2-.3-.2-.4-.2-.4-.3-.1-.7.3-.4.5-1,.8-1.5,0-.2.2-.3.3-.4,0-.1.2-.3.3-.4-.2,0-.6-.3-.7-.2-.4.4-.7.8-1,1.3-.1.2-.2.4-.3.6-.2-.2-.4-.4-.5-.6,0-.2,0-.4,0-.6,0-.1.2-.2.3-.3.2-.4.7-.8.7-1.1,0-.7-.4-1.4-.7-2.1-.2-.4-.5-.7-.8-1.1,0-.1-.2-.2-.4-.3,0,0-.1.2-.2.3-.3,1.2-.4,2.3.5,3.3,0,0,0,.2,0,.3-.1,0-.3,0-.3-.1-.7-1.5-1.3-3.1-2-4.7,0-.1,0-.3-.1-.4.2,0,.4,0,.6,0,.2.1.3.3.5.5.1.1.3.2.5.3,0-.3.2-.7,0-.8-.4-.3-1-.5-1.5-.8-.2-.1-.5-.4-.5-.6,0-.8-.3-1.3-.8-1.8-.6-.5-1-1-.7-1.9.2-.9.2-1.8.2-2.7,0-.1-.2-.3-.4-.4,0,.1,0,.3-.1.4,0,0,0,.2-.2.2-.5.3-1.9-.3-1.9-.9,0-.2.4-.4.6-.5.3-.2.6-.2.9-.4.2,0,.4-.4.4-.5-.1-.3-.4-.6-.6-.6-.8,0-.9-.9-.8-1.3.2-.7-.2-.9-.5-1.3-.5-.6-1.1-1.1-1.6-1.6-.3-.3-.7-.6-1-1-.2-.2-.3-.6-.3-.7.5-.3.1-.7.1-1.1,0-.5-.2-1.1.7-.9.3,0,.6-.3.9-.5,0-.1-.2-.3-.3-.3-.7-.3-.8-.9-.9-1.6,0-.5-.2-1-.3-1.5,0-.2.1-.4.1-.6,0-.2,0-.5,0-.7,0-.4,0-.8,0-1.2,0-1.2-.1-1.3-1.3-1.1-.6,0-.5-.4-.5-.8,0,0,.2-.2.4-.2.2,0,.3,0,.5,0,.1,0,.2-.2.3-.2,0,0-.1-.2-.2-.2-.9-.3-.7-1.1-.5-1.6.2-1,.2-1.3-.8-1.8-.1,0-.2-.2-.3-.3.2-.2.4-.4.7-.5,0,0,.2,0,.3.1.3.3.6.7.9,1,0,0,.2,0,.3.1,0-.1,0-.3,0-.4-.5-.8-1-1.6-1.6-2.3-.7-1-1.5-2.1-2.2-3.1-.3-.4-.8-.8-1.2-1-.6-.3-.9-.6-.9-1.3,0-.2-.2-.4-.3-.6.6,0,.1-1,.9-.9.5,0,.5-.4.4-.8,0-.3-.2-.4-.5-.1-.2.2-.3.4-.5.5-.8.8-2.1.5-2.5-.6-.3-.9-.1-1.5.8-2.1.1,0,.3,0,.5,0,.4,0,.8,0,1.2,0,.5,0,1,0,1,.8,0,.2.2.5.3.7.1.2.3.2.5.4,0-.2.1-.4.1-.6-.1-.8-.2-1.7-.5-2.5-.1-.4-.5-.9-.9-1.1-.4-.2-.4-.3-.3-.7,0-.2-.1-.5-.2-.8,0-.2,0-.5-.1-.7.2.1.4.2.6.3.2.2.4.4.5.6.1-.3.3-.7.3-1,0-.5,0-1.1-.2-1.6-.2-.5-.4-1.1-1.2-.7-.1,0-.3,0-.4,0,0-.1.2-.3.3-.4.5-.3,1-.7.9-1.4,0-.2,0-.5-.2-.6-.9-.5-.6-1.3-.4-2,0-.3.3-.7.5-1,.5-.9.3-1.5-.6-1.9-.4-.2-.7-.4-1.1-.6-.2-.1-.5-.1-.7-.2,0,.2,0,.5.1.6.4.5.9,1,1.3,1.6.1.2.2.5.2.7-.2,0-.4,0-.6-.2-.5-.4-1.1-.9-1.4-1.4-.2-.5-.2-1.1-.2-1.7,0-.4.2-.8.3-1.3,0-.1.1-.2.2-.3.2,0,.4,0,.6,0,.2,0,.4,0,.6,0-.1-.2-.3-.4-.4-.6-.2-.2-.4-.4-.6-.6.3-.1.6-.3,1-.4.1,0,.3,0,.5,0,0-.1-.1-.4-.3-.4-1.1-.3-1.7-1-1.7-2.2,0-.3-.5-.5-.8-.7-.1-.1-.3-.4-.2-.5.7-1.6.7-1.6-.4-2.8-.1-.1-.2-.3-.2-.5.2,0,.5,0,.7.2.3.2.5.5.7.8.4.8,1.1.9,1.8.5.2,0,.3-.3.5-.4-.3-.1-.5-.3-.8-.4-.1,0-.3,0-.4,0-.2,0-.4,0-.6,0,.1-.3.2-.6.4-.8.1-.1.4-.1.6-.2,0,0-.1-.2-.2-.2-.3,0-.7-.2-.8,0-.4.3-.6.2-.9-.1-.4-.4-1-.8-1.3-1.3-.3-.5-.6-1.2,0-1.8.2-.2.5-.2.8-.2,0,.2,0,.5-.2.6-.6.5,0,1,.1,1.4.2-.1.5-.2.6-.4.5-.8.3-1.6.2-2.4-.2-1.2-1-2-1.7-2.9-.4-.5-.8-.9-1.2-1.4,0,0-.2-.2-.2-.2,0-1.4-.6-2.8,0-4.2.4-1,0-2.2-.9-2.9,0,0-.4.1-.4.2,0,.6.2,1.1.3,1.7,0,.2,0,.5,0,.7-.2-.1-.3-.3-.5-.4-.9-.6-.6-1.5-.7-2.4,0-.4.3-.9-.3-1.2,0,0,0-.2,0-.3.6-.5,0-1.4.7-2,.3-.2.1-1-.6-1.2-.3-.1-.6-.6-.9-.9-.4-.5,0-.4.3-.4.1,0,.4-.1.4-.2,0-.2-.1-.5-.2-.7,0,0-.3,0-.4.1-.2,0-.4.4-.5.3-.3-.1-.6-.4-.9-.5.2,0,.5,0,.7,0,.1,0,.3,0,.4,0,0-.1-.2-.3-.3-.3-.4,0-.8.1-1.2.2-.1,0-.3,0-.4.1,0-.2,0-.4,0-.4.3-.3.6-.6,1-.9.1-.1.2-.2.3-.4-.2-.2-.4-.4-.6-.4-.6,0-.4-.2-.2-.5.3-.4.5-.8.6-1.2.3-.9-.5-1.4-1-1.9-.1-.1-.3-.2-.4-.2,0,0,0-.1,0-.1.2,0,.3-.1.5-.2.2,0,.5,0,.7-.1-.3-.1-.6-.3-.9-.4-.4,0-.8.1-.7.7,0,.1-.1.3-.2.4,0,0-.2,0-.3-.2,0-.2-.2-.5-.1-.5.9-1,.2-2.1.2-3.2,0-.1,0-.2-.2-.3-.5-.6-.4-1.5.2-1.9.6-.4.7-1.3.3-1.8-.4-.5-.6-1-.6-1.6,0-.5-.6-1-.9-1.5-.1-.2-.2-.5-.4-.7,0-.1-.2-.3-.4-.3-.2,0-.4,0-.6,0-.3,0-.5-.2-.8-.3.3-.1.7-.3,1-.4.1,0,.3,0,.4-.1,0,0-.1-.2-.1-.3-.3-1.3-1.3-2.3-1.3-3.7,0-.4-.4-.9-.8-1.1-.8-.4-.5-1-.5-1.6,0,0,.2-.2.1-.3-.5-.7,0-1.5-.2-2.2,0,0,0-.2,0-.2.5-1.1-.3-1.9-.5-2.9,0-.1,0-.3,0-.4.4-.6.7-1.3.8-2.1,0-.3,0-.5,0-.8-.1-.8-.3-1.5-.5-2.3,0-.3-.3-.5-.4-.7-.1-.3-.3-.5-.4-.8-.4-.9-.2-1.7.1-2.6.4-1,.3-1.8-.7-2.5-.1,0-.2-.5-.1-.6.4-.4.1-.8-.2-.9-.7-.3-.8-.9-.9-1.5,0-.3,0-.7-.2-.8-.4-.1-.9-.2-1.3-.1-1.7.4-2.3-.5-2.2-2,0-.2,0-.4,0-.5-.6-.4-.3-.9-.1-1.4.3-.9.6-1.7.2-2.7,0-.1,0-.4.2-.6.4-.6.2-1.1,0-1.8-.3-1.2-.3-2.5-.4-3.7,0-1.1,0-2.3-.1-3.4,0,0,0-.1,0-.1.7-1.5-.3-2.7-.5-4.1,0,0,0-.2-.1-.3-.8-1-.5-2.2-.3-3.3.2-1,.4-1.9-.2-3-.5-.9-.7-2-.8-3.1,0-1.5.1-2.9.1-4.4,0-.6-.4-1.3-.5-1.9,0-.2,0-.4,0-.6.2.1.3.2.5.3.1,0,.2.1.4.2,0-.2,0-.4,0-.5-.7-1.1-.3-2.3-.1-3.4.2-1.1,0-2.1-.4-3.2-.2-.8-.4-1.6-.5-2.4,0-.3-.2-.6-.1-.9,0-.5.2-.9.4-1.3,0-.2,0-.4.1-.6,0-.2,0-.5,0-.6.7-.6.7-1.4.8-2.2.2-1.3.1-2.5.2-3.8,0-1.4.1-2.7.2-4.1,0-.5.2-.9.2-1.4,0-2.9.1-5.8.2-8.7,0-.7-.1-1.4-.1-2.1,0-.5.2-1,.2-1.5,0-.3,0-.5,0-.8,0,0-.1-.1-.1-.2.3-1.1-.4-2.4.6-3.4.1-.1.2-.4.2-.6-.1-1,.3-1.9.6-2.9.3-.8,0-1.8,0-2.7,0-.2-.3-.4-.5-.5-.7-.2-.9-.5-.2-1,.5-.4.6-.9.5-1.6,0-.3-.4-1,.4-.9,0,0,.2,0,.2-.1-.2-.6.5-1.3,0-1.9-.1-.1-.1-.4,0-.5.6-1.2.3-2.4.2-3.6,0-.3.1-.6.1-.9.1-1.2.3-2.3,0-3.5,0-.2-.2-.3-.3-.4,0,0,0-.1,0-.2.4-.5.6-1,.2-2-.1-.3-.7-.3-1.1-.5-.2,0-.4-.2-.5-.3,0,0,0-.3,0-.5.2,0,.3.2.5.2.8,0,1.6,0,2.4-.1.2,0,.4-.5.4-.7,0-.9-.2-1.8-.3-2.6-.1-1,0-2.1.5-3,.5-.8.5-.9-.2-1.5-.3-.2-.3-.8-.4-1.2,0-.2,0-.4,0-.5,0-.3-.4-.9.4-.9,0,0,.3-.4.2-.6-.1-.9.3-1.6,1-2.2.3-.2.7-.5.3-1,0,0,0-.1,0-.2,1.2-.4.3-1.3.5-2,0,0,0-.2,0-.3,0,0-.2,0-.3.1,0,0-.3.3-.2.3.2.3.6.5-.2.5,0,0,0,.2,0,.4,0,.2,0,.3,0,.5-.2-.1-.3-.2-.4-.3-.4-.4-.4-.8-.1-1.3.3-.4.5-.9.8-1.3,0,0,.2,0,.2,0,0,0,0,.1.1.2,0,.2.1.3.2.5.1-.2.4-.3.4-.5-.1-.7.2-1.2.7-1.6,0,0,0-.1,0-.2,0,0-.2,0-.2,0-.2,0-.4.1-.6.3-.4.4-.6.2-.8-.2,0,0-.1-.2-.2-.3,0,.1-.1.2-.1.3-.1.4-.2.8-.3,1.2,0,.2-.2.3-.3.5-.1-.2-.3-.3-.3-.5,0-.4,0-.8,0-1.2,0-.7,0-1.5-.2-2.2,0,0-.4-.1-.4-.1-.2.4-.4.8-.4,1.1,0,.5,0,.8-.6.9-.3,0-.7.1-1,.1-.1,0-.4-.1-.4-.2,0-.3,0-.6.2-.8.7-.7,1.4-1.2,2-1.9,0,0,0-.1,0-.1.2,0,.7,0,.7,0,0-.4,0-.9,0-1.3,0-.1,0-.3,0-.4.3,0,.5,0,.8.2,0,0,.2.2.2.4,0,.3-.1.6-.1.8,0,0,0,.2.2.3,0,0,.3,0,.3,0,.4-1.3,1.7-1.6,2.6-2.4,0,0,0-.2,0-.3-.8,0-1.2-1.1-2-.5-.3.2-.4.5-.7.7-.2.2-.4.4-.6.7,0-.3-.2-.6-.3-.9,0-.2,0-.5-.1-.6-.3-.3,0-.4,0-.6.2-.3.4-.7.6-1.1.1-.3.3-.7.4-1,0-.4,0-.8.1-1.2,0,0,0,0-.1-.1,0,0-.2.1-.2.2-.2.8-.4,1.6-.7,2.4-.2.4-.8.5-1.1.8-.5.5-1,1-1.5,1.5-.4.4-.9.6-1.4.9,0,0-.3-.1-.3-.2,0-.3,0-.6,0-.9,0,0,.1.2.2.3.3.5.7.2.7,0,.2-.8.6-1.4,1.4-1.7.2,0,.3-.3.5-.5,0,0,0-.1,0-.2,0,0-.1,0-.2,0-.4,0-.9,0-1.3-.1.4-.2.7-.4,1.1-.6.3-.1.5-.3.8-.3.9,0,.8-.4.6-1,0-.3,0-.8.2-1.1.2-.6.5-1.3.5-1.9,0-.5-.4-1.1-.6-1.6,0,0-.1,0-.2-.1,0,.2-.2.5-.2.7,0,.1,0,.3.2.5.2.3.4.5,0,.8-.2.1-.6.3-.3.8.1.2-.2.6-.3.9-.3.6-.2,1.4-.9,1.7-.2.1-.5.2-.8.4-.2,0-.3.1-.5.2-.1,0-.3.2-.4.3,0-.2,0-.5.1-.6.8-.7,1.1-1.6,1.3-2.5,0-.2,0-.5,0-.5-1.2-.4-.8-1.5-.9-2.3,0-.4.2-.9.3-1.4,0-.2.3-.3.4-.5,0,.2.1.4.2.6.2.8,0,1.7,0,2.5,0,.2.3.8.5.8.5,0,.5-.5.5-.9,0-.3.2-.5.2-.8,0-.1,0-.3-.1-.3-.4-.4-.6-.7-.5-1.3.2-.9-.2-1.3-1.2-1.1,0,0-.3-.1-.3-.2,0-.4,0-.8,0-1.2.3.1.7.3,1,.4.7.3,1.4.5,1.6,1.4,0,0,.2.1.3.2,0-.1.2-.2.1-.3-.1-.6.3-.4.5-.4,1.4.1,2.8.3,4.3.3.9,0,1.4.4,1.9,1,0,.1.2.3.3.3.1,0,.3-.2.3-.3,0-.1,0-.3-.2-.4-.2-.2-.5-.3-.8-.4.3,0,.7-.1,1-.1.4,0,.9-.2,1.3-.2,2.5.1,4.8-.5,7.2-1,.1,0,.2,0,.3,0,0,.1,0,.3-.2.3-.2.1-.4.2-.6.3-.7.1-1.5.2-2.2.4-.2,0-.4.4-.4.6,0,.3.2.6.4.8,0-.1.2-.2.2-.3-.4-.9.4-.9.9-1.1.4-.2.9,0,1.1.6,0,.1.1.2.2.3,0,0,.2.2.2.1,0,0,.2-.1.2-.2,0-1.1.5-1.7,1.6-1.7,0,0,.2-.2.2-.2.1,0,.2-.2.4-.3,0,0,.3.1.3.2.1.7.4.2.7.1.5-.1.9-.3,1.4-.4,0,0,.1,0,.2,0,0,0,0,0-.1,0-.3.3-.5.6-.7,1,0,0,0,.2,0,.3.1,0,.3,0,.3-.1.4-.4.7-.9,1.1-1.2.2-.2.6,0,.9-.1,0,.1,0,.3,0,.4,0,.1.1.3.2.3,2-.5,4-1,6-1.4,2-.4,4-.6,6.1-.9,1.7-.3,3.5-.6,5.2-.8,1.1-.2,2.2-.1,3.3-.4,1.9-.4,3.8.3,5.7,0,1.2-.2,2.4-.5,3.6-.8.6-.1,1.2-.3,1.8-.4,2.7-.1,5.5-.2,8.2-.3,1,0,2-.2,3-.2,9.7,0,19.4-.2,29.1-.1,2.6,0,5.2.3,7.8.5,1.6.1,3.2.3,4.8.5,1.7.2,3.5,0,5,.6,3.1,1.1,6.2,1.1,9.4,1.1.4,0,.7-.1,1.1-.1.3,0,.6-.2.8.3,0,.1.9,0,1.3,0,0,0,.1-.3,0-.3-.1,0-.3-.1-.4-.2.2,0,.5,0,.7.2.4.3.8.8,1.2,1.1,1.4.9,2.9,1.7,4.4,2.5,1,.6,1.9,1.2,2.8,1.8.3.2.5.5.1,1-1.8,2.2-3,4.7-3.6,7.5-.4,1.7-.9,3.5-1.3,5.2-.3,1.7-.5,3.4-.7,5,0,.4-.2.8-.4,1.2,0,.1-.4,0-.7.1-.2,0-.4,0-.6.1.1.1.2.3.3.3,1.1.3.8,1,.6,1.8-.2.9,0,1.9,0,2.9,0,.2,0,.5-.1.7,0,.1-.2.2-.4.3,0-.1-.1-.2-.2-.4-.1-.4-.2-.8-.4-1.3,0,0-.2-.1-.3-.2,0,.1-.1.3-.1.3.2.6.2,1.4.9,1.9.5.4.5,1.4.6,2.1,0,1.1,0,2.2,0,3.3,0,0,0,.2,0,.2,0,0,0-.2-.1-.2-.2-.2-.4-.3-.5-.5,0-.1.1-.4.2-.5,0,0,.2,0,.3,0,0-.1-.1-.3-.2-.3-.6-.3-1.1,0-1.1.7,0,.9.2,1.7.3,2.6,0,.1.3.2.4.3.1-.2.4-.5.4-.5-.2-.4-.2-.6.2-.8.1.3.3.6.4.9,0,.1,0,.3,0,.4-.4,1-.2,1.6.6,2.2,0,0,0,.5,0,.5-1.1,0,0,.6-.2.9.8.6.7,1.4.7,2.3,0,1.4,0,2.8,0,4.2,0,.2-.2.4-.2.6,0,.1,0,.3,0,.3.9,1.2.8,2.6.6,4,0,.4-.4.8-.5,1.2,0,.2-.1.5,0,.6.7,1.1-.2,2.1-.4,3.1-.2,1.1-.7,2.2-.8,3.2,0,1.3,0,2.7.5,4,.3.9.6,1.8.8,2.7,0,0-.2.4-.3.3-.3,0-.5-.2-.7-.2-.2,0-.4,0-.6,0,0,.1.2.3.3.4.1.2.2.5.3.7,0,.1.2.2.3.4,0-.2.3-.4.2-.5-.3-.5-.2-.6.4-.4.2,0,.4,0,.6,0,0,.4,0,.8-.4,1.2-.8.8-.5,1.9-.2,2.8,0,.2.2.4.2.6,0,0-.2.2-.3.3-.1.2-.3.5-.3.6.9.6.4,1.5,0,1.8-.7.6-.5,1.4-.8,2.1-.1.3.1.7.1,1.1,0,.5,0,.9-.1,1.4-.6,2.6-.9,5.3-.8,8,0,.7,0,1.5,0,2.2,0,.5-.3.9,0,1.4.2.5,0,1.1,0,1.7s0,1.2,0,1.8c0,1-.2,1.9-1,2.6,0,0-.2.2-.2.2,0,1.1,0,2.2,0,3.3,0,.8.2,1.4.6,2.1,0,.1,0,.4,0,.5-.5.8-.2,1.1.4,1.5.5.3.6.4.2.9-.4.5-.2,1.5.3,1.9,0,0,.2,0,.3,0,0,0,0-.2,0-.3,0-.2,0-.3,0-.5,0,0,.2,0,.3,0,0,.1,0,.3.1.5,0,.1.2.2.3.3.2.2.3.4.5.6-.2,0-.3.1-.5.2-.5.2-.4.6,0,.9.6.5.9,1.2.7,1.9-.3.8-.6,1.6-1,2.3-.2.4-.3.7,0,1.3.5,1,.6,2-.2,3.1-.5.6.2,1.3.6,1.9.2.2.3.6.4.8-.3-.3,0,1.3-.5.2,0,0-.2,0-.2,0,0,0-.1.2,0,.3,0,.3.1.7.2,1,.1.8.5,1.6-.5,2.1,0,0,0,.3,0,.5.2.4.5.7,0,1,0,0,0,.2,0,.2.7.6.3,1.5.3,2.2-.1,1.8.1,3.5.1,5.2,0,1.6-.4,3.2-.7,4.9-.1.9-.3,1.8-.4,2.7-.3,2.2-.5,4.3-.8,6.5-.2,1.4-.2,2.9-.2,4.3,0,.3,0,.6-.4.9-.5.6-.9,1.4-1.3,2.1,0,0,0,.3,0,.4.5.8.2,1.4-.4,1.9-.3.3-.4.5-.2,1,.1.3.3.7-.2,1-.1,0-.2.5,0,.6.3.6.4,1.1,0,1.7-.4.5-.3,1.3-.5,2,0,.2-.2.5-.3.6-.4.2-.3.3,0,.6.1.1.1.4,0,.6,0,.1-.3.2-.5.2-.5,0-.3,0-.4.5,0,.7.6,1.5-.4,2,0,0-.2,0-.2,0-.1-.7-.4-.3-.6,0-.9,1.4-1.8,2.8-2.7,4.2-.2.3-.6.7-1,.7-1.2.2-1.3,1.4-1.8,2.1,0,0,.1.3.2.4.6.3.9.7.3,1.3,0,0,0,.4,0,.5.3.6.7,1.1.2,1.8-.2.3,0,.8.2,1.3,0,.2.2.5.2.7-.2,0-.4,0-.5,0-.2,0-.5,0-.7,0-.2,0-.3.3-.5.4.1.1.3.3.4.4.2,0,.5,0,.7.2.1,0,.2.2.3.3-.2.1-.4.4-.5.3-.4,0-.7-.3-1.1-.4-.1,0-.3,0-.4,0,0,.2,0,.3,0,.4.2.5.2,1-.3,1.4-.1.1-.3.3-.2.5.1,1-.4.6-.7.3-.1,0-.2-.3-.4-.3-.2,0-.5,0-.7,0,.2.1.3.3.5.3.3.2.8.2,1.1.4.4.3.9.4.6,1.2-.6,1.4-.6,2.8-.5,4.3,0,.1,0,.2,0,.3,0,0-.2-.1-.3-.2-.3-.3-.5-.7-.8-1,0,0-.2,0-.3,0,0,0,0,.2,0,.3.2.4.4.9.8,1.1,1.1.4.4,1.4.8,2-.1,0-.3,0-.4.1-.1,0-.3.2-.4.2,0,0,.2.2.3.2.9,0,.8.8.8,1.3.1,1.1.1,2.2.2,3.3,0,0,0-.2-.1-.2-.3,0-.7,0-1,0,0,0,0,.3,0,.3.4.2.8.7,1.2,0,.1.8.8,1.7-.3,2.4,0,0,0,.2,0,.3,0,1.5.1,2.9.2,4.4,0,.1-.2.2-.2.4,0,.1,0,.4,0,.5.3.3.4.6,0,1,0,0-.1.2-.1.3.4,1.1-.2,2.9-1.2,3.5-.4.3-.8.6-1.2.9-.3.4-.6.8-.9,1.2-.5.7.5.7.6,1.1,0,.3.2.6.1.8-.2.7.1,1.2.4,1.7.1.3.6.6-.2.7,0,0-.1.2-.2.3,0,0,.2,0,.3,0,0,0,0,0,0,0,.2,0,.5.1.7.2-.2,0-.4.2-.6.3-.1,0-.2,0-.3.1.1,0,.2.1.4.2.2,0,.3.1.5.2.5,0,.7.3.2.7-.1.1-.2.4-.2.4.2.2.4.3.7.4,0,0,.2,0,.3,0,0,.2,0,.4,0,.7,0,0-.3,0-.4,0-.6-.2-1.1-.4-1.6,0,0,0-.2.3-.1.4.3.8.7,1.7,1,2.5.1.3.1.7.2,1.1.1.7-.3.4-.6.3-.1,0-.3-.1-.4-.2,0,.2,0,.5.2.7,1.1.8,1.1,1,.2,2.1-.2.2-.3.6-.4.8.2,0,.5,0,.7.1.6.3,0,.8,0,.8-.6.7-1.1,1.2-.2,2.1.2.2,0,1-.1,1.5,0,.3,0,.7,0,1,0,.4-.1.7-.2,1.1,0,.2-.2.4-.3.6.2,0,.4,0,.5.1.1,0,.3.1.4.2-.1,0-.3.1-.4.2-.2.1-.3.3-.5.4.2,0,.5,0,.7,0,.3.1.7.2.8.4.4.7.7,1.4,1,2.1,0,.1,0,.3,0,.4-.4.3-.7.5,0,.7,0,.2-.1.4-.3.5-.4.3-.4.2,0,.5.2.2.2.7.3,1-.1,0-.3,0-.3,0-.2-.2-.3-.5-.5-.6-.2-.1-.5,0-.8,0,.1.2.3.3.4.5.3.2.7.4,1,.7.1,0,0,.4,0,.6,0,0-.2.2-.3.2-.2,0-.3-.2-.5-.3-.1,0-.4,0-.4,0,0,0,0,.3,0,.4.3.4.4.8,0,1.1,0,0,0,.2,0,.3.4.4,0,.6-.2.7-.4.2-.7,1-.6,1.3.1.8.2,1.6.3,2.5,0,0-.2.1-.3.2-.4.2-.7.5-1.1.7-.5.3-.2.7-.2,1.1,0,.7,0,1.5-.2,2.2-.3.9.3,1.4.6,2.1.1.4.4.3.7,0,0,0,.2,0,.3,0,.2.3.4.7.6,1,0,0-.2,0-.3.1,0,.3-.3.8-.1,1,.6.7.2,1.2-.1,1.7-.3.7-.6,1.4-.8,2.1,0,0,.1.3.2.4.6,1,1.1,2,1.7,3,0,0,0,.3-.2.3-.5.1-.5.3-.2.7.3.3.6.6.9.9,0,0,0,.3,0,.5-.3.7-.7,1.4-.9,2.1-.1.3,0,.7,0,1.1,0,.6.1,1.2.2,1.9,0,0,0,.2.1.3,0,0,.2,0,.2,0,0-.1,0-.3.1-.4,0,.1.1.3.2.4.7.5,1.5,1,2.2,1.6,0,0,.1.1.1.2,0,.1-.2.2-.3.3.2,0,.4.1.6.2,0,0,0,0,0,0,.3,0,.6,0,.9,0-.2.2-.4.4-.5.6,0,0-.1.2-.1.3,0,.6,0,1.1.2,1.7,0,.2.3.4.4.5,1,0,1,.8,1.2,1.5.4.9.8,1.7,1.2,2.6.1.3.3.6.2.8-.3.8-.2,1.8-1,2.5-.1,0-.1.4,0,.6.2.8.5,1.6.8,2.4.3.6-.1.7-.5.8-.1,0-.2.1-.4.2.1.1.3.2.4.3.2.2.4.3.6.6,0,.1,0,.3,0,.5-.1,0-.3,0-.4-.1-.3-.2-.5-.1-.5.3,0,1,.6,1.6,1.6,1.8.6.1,1,1.3.5,1.8-.1.1-.2.3-.2.5.2,0,.4.2.6.2.5-.3.5,0,.6.4,0,.3,0,.7.5.2,0,0,.2,0,.2,0,0,.3,0,.8-.1.8-1,.4-.8,1.1-.5,1.8.2.7-.4,1.1-.7,1.6,0,.1-.2.2-.2.3.2,0,.3,0,.4,0,0,0,.1-.2.2-.2.2-.1.4-.3.6-.3.1,0,.4.3.3.4-.1.2-.3.4-.5.5-1.1.6-1.1,1.4-.8,2.4,0,.3.2.4.5.1.1-.1.5,0,.7,0,0,.2-.1.3-.2.5-.5.9-.5,2.2-1.7,2.7,0,0-.1.1-.2.2-.3.1-.5.3-.8.4.2.1.5.3.7.3.3,0,.7-.2,1-.4,0,0,0-.3,0-.4,0,0,.1-.1.2-.2,0,0,.1.2,0,.3-.1.5.3,1.2-.3,1.6,0,0,0,.2,0,.3.5.4.5.8.2,1.3-.2.4-.3,1.1,0,1.4.3.6.3.9-.2,1.3-.2.2-.4.3-.5.5-.1.2-.2.5-.3.7.2-.1.3-.3.5-.3.2,0,.5-.1.7-.2,0,.3.2.6.1.9,0,.2-.2.4-.3.5-.5.2-1.1.2-1.6.4,0,0-.1.1-.2.2,0,0,.1.2.2.2,1.1,0,1.2.9,1.7,1.5,1.1,1.2,2.2,2.4,3.3,3.6.2.2.3.4.5.6-.2.1-.4.2-.6.3-.4.2-.7.3-.4.9.2.4.3.8.6,1.1.2.2.6.4.8.4.6-.3.6,0,.6.4,0,.7.3,1.3,1,1.5.5.2.6.5.5.9-.3,1-.2,2,.2,3,0,0,.1.2.1.2-.1.1-.3.2-.4.3.2,0,.5,0,.7,0,.3.1.8,1.5.5,1.9-.5,1-.7,2.1-.9,3.2,0,0-.1.2,0,.3.7,1.1,0,2.1-.3,3.1-.4,1.2.5,2.2,1.7,2,.3,0,.7-.2,1,0,.2,0,.5.5.4.7-.1.6-.4,1.3-.6,1.9,0,.2-.4.3-.5.4-.1.1-.3.3-.4.5.2,0,.4,0,.6,0,0,0,.2,0,.3-.1.2,0,.4,0,.7,0,0,.4.7.8-.2,1.1-.4.1-.7.3-1.1.4-.6.2-.8.6-.3,1,.4.4.5.7.4,1.3-.1.9.1,1.8.1,2.7,0,1,.3,2.1-.9,2.8,0,0,0,.2,0,.3.5.2.5.2.3.8,0,.4-.4.8.1,1.2.2.2.4.8.3,1-.6.9,0,1.6,0,2.4,0,.2,0,.5-.1.7-.2.6-.4,1.1,0,1.8.3.5.1,1-.7,1-.2,0-.7.2-.7.4-.3,1-.8,2.1-.5,3.1.2.5.9.8,1.4,1.1,0-.1.1-.3,0-.3-.5-.5,0-.6.3-.5.5.2,1.1.5,1.3.9.5,1.3,1.3,2.3,2.3,3.2,0,0,.2.2.1.3-.3.6.2,1,.5,1.5.3.4.7.8,1,1.2.2.3.6.6,0,1-.2.1,0,1,.2,1.5.4.7,1,1.2,1.4,1.8.2.2.3.6.3.8-.2.7.3,1.1.5,1.6.1-.1.3-.2.4-.4,0-.1,0-.3.1-.5,0,.2.3.3.3.5,0,.3,0,.6,0,.8-.3.3-.7.6-.9-.1,0-.1-.3-.2-.4-.3,0,.2,0,.3,0,.4.3.7.7,1.3.9,2,.2.6,1.3-.4,1.1.7,0,.4.4.9.7,1.3,0,.1.4,0,.6.2,1,.3.8,1.2.9,1.9,0,.3.2.6.4.8.2.4.5.9.8,1.2.2.3.6.6.9.8.5.3,1,.6.9,1.4,0,.5.2,1,.3,1.5.1,1,.4,2.1-.5,3,0,0,0,.2,0,.3,0,1.3,0,2.6-.2,3.8-.1,1.1-.3,2.2-.5,3.4,0,.5-.2,1.1.7,1.1.5,0,.7.6.4,1-.5.6-.3,1,0,1.6.3.7.1,1.6.2,2.4,0,0-.1,0-.2,0-.6-.2-.7-.1-.9.4-.4,1.2-.8,2.4-1.2,3.6-.1.3,0,.7,0,1.1-.1.4-.3.7-.5,1-.1.2-.5.2-.7.4-.1,0-.2.3-.3.4.1,0,.3,0,.4-.1.1,0,.2,0,.3-.1,0,.1-.2.2-.2.4-.6,1.1-1.2,2.1-1.7,3.2-.3.7-.8,1.2-1.5,1.6-.2.1-.4.4-.5.7-.1.4.1.6.5.5.4-.2.4,0,.3.3-.3,1-.7,1.9-1.4,2.6-.1.1-.2.4-.2.6.3.9.2,1.6-.5,2.1-.1,0-.2.2-.4.2,0-.1-.2-.3-.2-.4,0-.9-.4-.4-.7-.2-.6.4-1,.9-.8,1.7,0,.3,0,.6-.2.8-.2.5-.6.7-1.2.5-.4-.1-.7-.3-1.1-.3-.2,0-.3.2-.5.3.1.1.3.3.4.4.2.1.4.2.6.3-.2,0-.4,0-.7,0-1,0-1.8-.5-2.5-1.2-.3-.3-.4-.6,0-1,0-.1.1-.3.2-.4-.1,0-.3,0-.4.1-.3.3-.6.2-1,0-.2-.1-.5-.3-.8-.3-1.2-.4-1.3-.4-1.3,1M103.4,158.1c.2,0,.4,0,.6-.1,0,0,0-.1,0-.2-.2,0-.4.2-.6.2,0,0,0,0,0,0-.1,0-.3,0-.4.1,0,0,0,.1,0,.2.1-.1.3-.2.5-.3M112.8,202c.1-.8-.6-1-.9-1.4,0,0-.1,0-.2,0,.3.4.5.8.8,1.1,0,.1.2.2.4.4.3.5.6.9.9,1.4,0,.1.4.1.6.2,0-.2,0-.3-.2-.5-.4-.4-.8-.8-1.2-1.3M82.3,83.7c1.3,0,2.5-.1,3.8-.2,3.6,0,7.2-.1,10.8-.2,6.3,0,12.7,0,19,0,1.4,0,2.8.1,4.3.2.7,0,1.2-.6,1.2-1.4,0-.7-.5-.9-1.1-.9-2.4,0-4.8-.2-7.2-.2-6.6,0-13.2,0-19.8.2-4.6,0-9.3.1-13.9.2-1.3,0-2.6.1-3.9.2-1.7,0-3.4.2-5.1.2-2.9,0-2.5.5-2.5-2.8,0,0,0,0,0,0,.3-.2.5-.6.8-.6.9,0,1.8.1,2.6.1,1.7,0,2.9-1,3.9-2.2,1.2-1.4,1.5-3,1.5-4.7,0-1.3,0-2.7-.4-4-.4-1.7-1.2-3.2-2.8-4.1-1.7-.9-3.4-.6-5.1.2-.7.3-.9.3-1.2-.4-.4-.9-1.1-1.1-1.9-.9-1.1.4-2,2-1.8,3.2.2,1.2.4,2.4.5,3.5.1,1.7.1,3.4.2,5.2,0,.9,0,1.7,0,2.6,0,1.4,0,2.8.2,4.2,0,.6-.2.8-.8.8-2,0-3.9.2-5.9.3-2.2.1-4.3.2-6.5.3-1.5,0-3.1.2-4.6.3-2.4.2-4.7.3-7.1.5-1.7.1-3.4.2-5.1.4-.2,0-.5.4-.6.7,0,.3.1.6.1.9,0,.6.3.7.8.6,1.6-.2,3.2-.4,4.8-.5,2.5-.2,4.9-.3,7.4-.5,1.8-.1,3.7-.2,5.5-.3,1.9-.1,3.7-.2,5.6-.3,1.9,0,3.7,0,5.6-.2.6,0,.9.2,1.1.7.3.7.8,1.2,1.7,1.1.9,0,1.5-.5,1.7-1.4,0-.3.4-.5.7-.6.8-.1,1.7-.2,2.5-.2,2.4,0,4.7-.1,7.1-.2,1.3,0,2.6,0,4.1,0M40.4,144c0,.7.3,1.5.1,2.2-.3,1.1,0,2.2.2,3.2.2.9,1.5,1.2,2.2.6.9-.8.6-1.9.6-2.8,0-1.2-.5-2.2-.2-3.5.3-1.6,1.3-2.5,2.2-3.6.1-.1.5-.2.7-.1.1,0,.2.3.2.5.2,2,.3,4,.5,5.9,0,.7,0,1.4.3,1.9.4.7,1,1.4,1.5,2,.2.3.6.6.9.6.4-.1.7-.5.7-1.1-.1-1.3-.2-2.5-.3-3.8-.1-1-.2-2-.5-3-.3-1.3-.1-2.4.7-2.9.4-.3.8-.5,1.2-.7.7-.4.7-.6,0-1.1,0,0-.2-.1-.3-.2,0-.1-.2-.2-.2-.3.2,0,.3,0,.5,0,1.2.4,1.1,1.8,1.9,2.5,0,0,0,.1,0,.2,0,.7,0,1.5.2,2.2.2,2.2.4,4.4.7,6.5,0,.8.8,1.5,1.6,1.5,1,0,1.8-.9,1.7-1.8,0-.9-.2-1.8-.3-2.7-.4-2.4-.7-4.7-1.2-7.1-.3-1.4-.9-2.5-2.3-2.9-1.4-.4-2.7,0-3.7.9-.5.4-.8.6-1.3,0-.3-.4-.7-.7-1.1-.9-1.4-.6-2.7.3-3.5,1.5-.1.2-.4.4-.6.6,0-.3-.3-.5-.3-.8.1-.9-.4-1.4-.9-1.9-.4-.3-1-.4-1.3.1-.4.8-.8,1.8-.8,2.7,0,1.8.2,3.5.3,5.4M42.2,65.4c0-.1,0-.3.2-.3.5-.5,1.2-.9,1.6-1.5.8-1,1.4-2.1,2.1-3.2.5-.9.2-2.1-.6-2.6-.6-.3-1.6.1-2.2.9-.7,1.1-1.5,2.1-2.2,3.2-.2.3-.8.8-.3,1.2.7.6.4.9-.2,1.3-.1,0-.2.2-.4.3-.1.1-.2.2-.3.3,0-.2,0-.3,0-.5,0-.2,0-.4,0-.6,0-.1,0-.3,0-.4-.1,0-.3.1-.4.3-.5.8-1,1.6-1.5,2.4-.1.2-.3.4-.5.6-.1-.3-.3-.7-.3-1,0-.8,0-1.6.1-2.4,0-.7.2-1.4.2-2.1,0-.7,0-1.3-.2-2-.1-.6-1-1.1-1.4-1.1-.8.1-1.5,1-1.5,1.8,0,2,.1,4.1.2,6.1,0,1.8.2,3.6.2,5.4,0,1.7-.1,3.4-.1,5.1,0,1,.2,2,.3,3,.2,1,1.2,1.5,2.1,1.2.5-.2,1-1.1.9-1.8-.1-1.7-.2-3.3-.3-5,0-.2.2-.5.3-.7.3.1.7.2.8.4,1.1,1.4,2.2,2.7,3.6,3.7,1,.7,1.9,1.5,3.2,1.8,1.1.3,2.1-.4,2.2-1.5,0-1-.5-1.6-1.3-2-.7-.4-1.5-.6-2-1.1-1.4-1.3-2.8-2.6-4.2-4-.9-.9-.9-1.1,0-2,.9-.9,1.8-1.8,2.1-3.3M81.7,140.2c-.1-.3-.3-.7-.3-1,0-2.9-.1-5.9-.2-8.8,0-.7-.4-1.3-1-1.5-.9-.3-2-.3-2.7.6-1.1,1.4-2.1,2.9-3.1,4.3-1.6,2.3-2.9,4.9-4.9,7-1,1.1-.6,2.3.7,2.8.5.2,1.1.2,1.7.2,1.8,0,3.5,0,5.3-.2.8,0,1.1.3,1,1,0,1,0,1.9,0,2.9,0,1.2.8,1.9,2,1.9,1,0,1.5-.7,1.5-1.9,0-1-.1-2.1-.1-3.1,0-.3.3-.6.5-.8.5-.2,1-.4,1.5-.5,1-.2.7-.9.7-1.5,0-.6-.2-1.1-.8-1.2-.6,0-1.2-.1-1.8-.3M88.4,62.8c-1.1-.5-2.3-.6-3.4-.4-2.1.4-3.9,1.5-5.1,3.2-.3.5-.7,1-.9,1.5-.5,1.4-1,2.9-.7,4.5.2,1.5.5,2.9,1.5,4.2,1.3,1.7,3.1,2,5,2.1.9,0,1.9-.4,2.7-.8.8-.4,1.3-.5,2,.2.6.6,1.5.7,2,.3.7-.5.9-1.1.5-2-.7-1.9-1.4-3.8-1.3-5.9,0-1.3.3-2.7.5-4,0-.4,0-.9-.2-1.2-.5-1-1.5-1.4-2.6-1.7M113,141.5c0-.3-.1-.6-.2-.9-.8-2.3-2.5-3.3-4.9-3.7-1.3-.2-2.6-.1-3.9-.2-.7,0-1.5-.3-1.8-1-.3-.7.2-1.2.7-1.7,1.5-1.2,3.2-1.6,5.1-1.3,1,.2,1.9.7,2.9.1.9-.5,1-1.8.1-2.3-.8-.4-1.7-.7-2.6-1-1.8-.6-3.5-.3-5.1.4-1.7.7-3,1.9-4.1,3.4-1.2,1.7-1.1,4,.3,5.2,1.3,1.1,3,1.3,4.6,1.5,1.2.2,2.4.1,3.5.2,1.1,0,1.7.9,1.8,1.9,0,.6-.2,1.5-.6,1.9-1.8,1.8-4.1,2.4-6.6,2-.3,0-.6.3-.9.5.2.1.4.3.5.4.2.2.4.4.7.6.2.2.6.6.7.5.6-.3,1.1.1,1.6.2.2,0,.4,0,.5,0,0,.2-.2.3-.3.5,0,.2-.1.3-.2.5.1,0,.3.1.4,0,1.7-.4,3.5-.9,5-1.8.9-.6,1.6-1.4,2.2-2.2.8-1.1.5-2.4.6-3.8M53,78.9c1.7.5,3.2,0,4.5-.9.7-.5,1.2-.4,1.7.2.5.6,1.2.8,1.9.4.7-.4,1-1.4.7-2.1-.6-1.4-1.1-2.8-1.3-4.4-.2-1.8-.1-3.6.3-5.4.2-.8,0-1.4-.5-1.8-1.6-1.3-3.4-1.6-5.4-1.3-1.9.3-3.2,1.4-4.3,2.8-.6.9-1.1,1.8-1.6,2.8-.2.5-.2,1.1-.3,1.7-.4,1.6,0,3.2.5,4.7.6,1.7,1.7,2.9,3.7,3.2M101.7,73.6c-.3.2-.6.6-1,.7-1,.3-2,.3-3-.1-.7-.3-1.6-.4-2.4-.5-.9,0-1.5.8-1.3,1.6.3,1.4,1.4,1.8,2.6,2.2,1.6.5,3.3.5,4.9.1,2.2-.4,4.2-2.1,4-4.6-.2-2.1-1.8-3.3-3.5-4.2-1.1-.6-2.2-1.1-3.3-1.7-.3-.2-.6-.6-.6-.9,0-.4.5-.7,1-.7.8,0,1.5-.1,2.3-.1.5,0,.9,0,1.2.6.4.7,1.9.9,2.2,0,.3-.9.1-1.9,0-2.8,0-.4-.7-.8-1.1-.9-1.1-.2-2.2-.2-3.3-.2-1,0-2.1,0-3,.4-3,1.3-4.2,4.6-1.3,7,1.1,1,2.6,1.5,4,2.2.7.4,1.7.6,1.7,1.9M82.4,209.3c-1.6-.4-2.1-.2-2.3,1.4-.2,1.4-.2,2.9-.2,4.3,0,1.2-.1,2.5,0,3.7.1.6-.3.9-.5.9-.8.2-1.7.3-2.5.3-.7,0-1.4-.2-1.5-1.1-.1-1.6-.3-3.2-.3-4.8,0-1.1,0-2.3.2-3.4,0-.7-.5-1.2-1.6-1.5-.6-.2-1.4.4-1.6,1-.2.9-.4,1.9-.3,2.9,0,2.3.3,4.6.5,6.9.1,1.3.9,2.4,2,2.9,1.5.6,3.1.8,4.6.1.6-.3,1.2-.3,1.8.2.5.5,1.1.5,1.7.2.6-.3,1.1-.8,1-1.6,0-1.2,0-2.4,0-3.6,0-1.3-.1-2.7-.1-4,0-1,.2-2.1.1-3.1,0-.7,0-1.4-1-1.8M62.7,224.5c1.4.4,2.1.2,2.3-1.1.3-1.3.2-2.7.2-4,0-1.9-.2-3.8-.3-5.7,0-.5.4-.8,1-.9.9,0,1.8,0,2.8-.2.7,0,1.4-.9,1.2-1.6-.1-.6-.7-1.5-1.5-1.4-.6,0-1.2,0-1.7,0-1.6,0-1.7,0-1.3-1.5.3-1.4.7-2.2,1.9-2.4.5-.1,1.1-.1,1.6-.2.7,0,1.1-.5,1.2-1.2.1-.9-.3-1.7-.8-1.8-1.2-.2-2.4-.1-3.6.2-.4.1-.9.4-1.2.7-1.4,1.5-2.3,3.2-2.2,5.3,0,.9-.3,1.2-1.3,1.2-.2,0-.5,0-.7,0-.8,0-1.5.7-1.5,1.4,0,1.1.5,1.7,1.5,1.8.4,0,.7,0,1.1,0,.6,0,.8.1.8.7,0,.5,0,.9,0,1.4,0,1.4.1,2.8.2,4.3,0,1.2-.2,2.3-.1,3.5,0,.5.4.9.7,1.4M82.6,178.8c-.6-.6-1.4-1-1.6-2,0-.2-.1-.4-.2-.6.2,0,.4,0,.6,0,.4.1.7.4,1,.5.1,0,.4-.1.4-.2,0-.9,0-1.9-.1-2.8,0-.8-.9-1.3-2-1.3-.8,0-1.3.5-1.3,1.2,0,1.5-.1,2.9-.2,4.4,0,1,.1,2,.1,3,0,1.6,0,2-.9,2.2-.8.2-1.6.2-2.4.2-.6,0-1.2-.3-1.3-1-.2-1.2-.3-2.3-.3-3.5,0-1.7.2-3.4,0-5,0-.4-.6-1-1-1.2-.5-.2-1.2,0-1.6.2-1.1.6-.8,1.9-.8,2.8,0,2.3.1,4.5.3,6.8,0,.6.3,1.3.5,1.9.7,2.3,3.6,2.7,5.3,2.3,1.1-.2,2.1-.7,3.2.1.5.4,1.2.2,1.8-.2.7-.5.6-1.1.5-1.8-.1-.5-.5-1,.1-1.4,0,0,0-.4,0-.6,0,0-.2-.1-.3-.2,0,.1-.1.3-.2.4,0,0,0,.2-.1.2,0,0-.2,0-.2,0,0-.5-.1-1.1.1-1.4.8-.9.8-1.9.5-3.1M55.4,174.5c-1.5-1.6-3.4-1.6-5.3-1.3-2.4.4-3.6,2.1-4.4,4.3-.5,1.4-.4,2.8-.4,4.3,0,2.5,1.7,3.6,3.5,4.6,1.5.8,3.3.9,4.9.4,1-.3,1.9-.8,2.8-1.4.7-.4.8-1.4.6-2-.3-.8-.9-.9-1.5-.7-.5.1-.9.4-1.3.7-1.5,1.1-4.2.7-5.5-.3-.4-.3-.2-.6.1-.8,2-1,3.9-2,5.9-3,1.7-.9,2.1-3.3.6-4.8M65.1,172.7c-.5,0-1.1.2-1.6.2-1,0-1.9.3-2.7.8-1.2.8-2,2.7-1.2,4.3.7,1.3,1.8,2.1,3,2.7,1.1.5,2.1,1.1,3.2,1.8.6.4.3,1,0,1.2-.8.3-1.6.5-2.5.4-.9,0-1.7-.5-2.5-.7-.7-.2-1.3,0-1.6.6-.2.4-.1,1.1.1,1.5.4.5,1,.9,1.6,1.2,1.5.6,3,.7,4.5.3,1.4-.3,2.7-.8,3.6-2.1.6-.9.3-1.8.3-2.7,0-.3-.1-.6-.3-.9-.9-1.4-2.3-2.1-3.7-2.8-.9-.4-1.7-1-2.5-1.5-.5-.3-.3-.9.1-.9,1-.2,2.1-.4,3.1-.4.4,0,.7.5,1.1.8.7.6,1.5.4,1.8-.5.1-.6.1-1.2.2-1.8.1-.8-.3-1.2-.9-1.4-.7-.2-1.4-.2-2.1-.3-.2,0-.5,0-.8,0M38.3,145.2c0-1.6,0-3.3-.2-4.9-.1-1-.4-2.1-1-2.9-1-1.5-3.4-1.5-4.8.4-.1.2-.3.3-.4.4-.1-.2-.3-.3-.4-.5,0-.1,0-.4,0-.5-.3-.4-.6-.8-1-1-.6-.3-.9.3-1.1.7-.1.3-.2.6-.2.9,0,1.5,0,3,0,4.5,0,2.3.1,4.6.2,6.9,0,.2,0,.5.2.7.3.6.8,1,1.4.8.4-.1.8-.5.9-.9.2-.9.2-1.8.2-2.8,0-1,0-2,.2-2.9.4-1.6.7-3.3,2.1-4.4.2-.2.6-.3.7-.2.2.1.5.5.5.8,0,1.6,0,3.3.2,4.9.1,1.5.4,3,.7,4.5,0,.4.5.8.9.9.5.2,1.1.1,1.3-.6.1-.4.1-.9.1-1.3,0-1.2-.2-2.4-.3-3.6M81.9,277.5c0,1.2-.1,2.5-.2,3.7,0,2.3-.1,4.7-.2,7,0,1.2,0,2.3.2,3.5,0,.2.4.4.6.5.5.1,1,0,1.5.2.6.3.7,0,.7-.5,0-.4-.3-1-.1-1.2.5-.7.3-1.4.1-2.1-.2-.8.2-1.2,1-1.4.2,0,.4-.4.4-.4-.7-.7,0-.6.3-.5.3,0,.6.3,1,.4.2,0,.4.2.6.3,0-.3,0-.6,0-.8-.5-.5-.3-.8.1-1.1.3-.2.7-.4,1-.7.2-.2.2-.5.4-.7-.2,0-.5-.2-.7-.2-.7.2-1.5.5-2.2.7-1.2.3-1.6,0-1.6-1.2,0-1.4,0-2.7-.2-4.1,0-.9.1-1.1,1-1.1.8,0,1.5.1,2.3.2.3,0,.7,0,.9-.1.2-.1.1-.5.2-.7-.3,0-.5,0-.7-.1-.1,0-.3,0-.4-.1,0-.1.2-.3.3-.4.7,0,.8-.7.7-1.1-.1-.3-.7-.5-1.1-.5-1.2,0-2.4,0-3.6.1-1.7,0-2.3.7-2.3,2.6M144.5,411c.3,1.1.5,2.1.8,3.1,0,.2.3.4.4.6.2-.2.5-.3.6-.5.8-1.3.9-2.8,1.2-4.3.1-.8.1-1.7.2-2.5,0-.8.2-1.6.3-2.4,0-.2-.2-.5-.3-.7-.2.2-.6.4-.6.6-.2.8-.2,1.6-.4,2.3,0,.4-.3.7-.4,1.1,0,0-.3.1-.4.1,0,0,0-.2-.1-.3-.2-1.5-.3-3-.5-4.5-.1-.7-.3-1.5-.5-2.2-.1-.4-.3-.7-.9-.4-.9.4-1.6.9-1.6,2,0,.5,0,1-.2,1.5-.3,1.9-.5,3.9-.8,5.8-.2,1.4-.6,2.8-.7,4.2-.1,1,0,2,0,3.1,0,.1.5.4.6.3.4-.4.9-.8,1-1.2.3-1.2.4-2.3.5-3.5.2-1.6.4-3.3.7-4.9,0-.3.3-.5.4-.7.1.3.3.5.4.8.2.8.3,1.6.5,2.5M122,61.6c0-1,0-2,0-2.9,0-.4-.1-.9-.3-1.3-.4-.7-1.7-1.3-2.2-.5-.4.6-.7,1.4-.7,2.1,0,3.3,0,6.6.2,9.9,0,1.5.4,3,.8,4.4.3,1,.8,1.9,1.3,2.9,0,.1.3.1.4.2,0-.2,0-.3,0-.4-.3-.9-.2-1.6.5-2.4.5-.6.9-1.3.7-2.2-.5-2-.6-4.1-.5-6.1,0-1.1,0-2.3,0-3.6M38.2,174.7s0,0,0,0c-.2.3-.4.6-.5,1,0,0,.2.2.3.3.2-.2.4-.5.7-.7.3-.3.6-.6.9-.7.1,0,.5.2.6.4.2.2.4.5.3.7-.2.6-.5,0-.7,0-.1,0-.3,0-.4-.1,0,.2,0,.3,0,.4.6.7,0,.5-.4.5-.7,0-1,0-.9,1,.2,2.3.2,4.7.2,7.1,0,.4,0,.7,0,1.1,0,.8.8,1.4,1.5,1.4.8,0,1.4-1.1,1.3-2-.2-1-.2-2.1-.3-3.2,0-.4.2-.8.1-1.2,0-1.2-.1-2.4-.2-3.6,0-1.1.1-1.2,1.2-1.2.4,0,.9.2,1.2,0,.8-.2,1-.9,1.1-1.7,0-.9-.5-1.3-1.1-1.5-.4-.2-.9,0-1.4,0-1.3,0-1.2.2-1.2-1.2,0-.3-.2-.5-.2-.8-.3.1-.7.2-.9.4-1,.9-1,2.3-1.3,3.6M75.2,250.4c-.2,1.4-.5,2.8-.2,4.3.6,2.7,3.1,4.2,5.2,4.3.2,0,.4-.2.6-.2-.2-.1-.4-.3-.7-.4,0,0-.2,0-.2,0-.1,0-.3-.1-.4-.2,0,0,.2-.2.3-.3.4-.1.3-.3.3-.7,0-.9-.5-1.4-1.2-1.7-.3-.2-.6-.5,0-.7.7-.3,1.3-.6,2-1,.2,0,.5-.3.4-.4,0-.2-.3-.6-.5-.6-.6,0-1.1.2-1.7.3-.1,0-.3.1-.4.2,0-.2,0-.4,0-.5.4-.2.9-.4,1.3-.6.2-.1.5-.3.7-.4-.2-.1-.5-.4-.7-.4-.4,0-.8.2-1.2.3-.2,0-.3.2-.5.2,0-.3-.2-.6,0-.8.2-.6.5-1.1.7-1.6.1-.3.2-.7,0-.8-.8-.8-1.1-1.5.2-2,0,0,0-.4,0-.5,0,0-.3-.1-.4,0-.8.6-1.7,1-2.3,1.7-.7.7-1,1.7-1.5,2.8M64.5,250c.5.1,1,.2,1.4.3.1,0,.2.2.3.2,0,0-.1.2-.2.3-.1.1-.4.3-.4.4,0,.3.2.5.4.7.2-.2.4-.4.6-.6.6-1.1,1.5-1.8,2.6-2.4,1.2-.6,1.4-.5,1.4.8,0,0,0,.2,0,.2.1,1,.7,1.6,1.5,1.6.8,0,1.6-.5,1.6-1.3,0-.9.2-1.9,0-2.7-.2-1-.7-2-1.8-2.1-1.7-.2-3.3.2-4.6,1.2-.5.3-.7.5-1-.2-.6-1.1-2.2-1.1-2.7-.1-.6,1-.4,2.7,1,3.5M88.7,212.8c.1.7.3,1.5.4,2.2,0,.1,0,.2,0,.3,0,.3-.2.6-.2.9,0,1.8.1,3.5.2,5.3,0,.9.6,1.6,1.4,1.6.7,0,1.4-.5,1.6-1.2.6-1.5,0-3.1,0-4.6,0-.5,0-1,0-1.5-.1-1.2-1.3-2-1.1-3.3,0,0-.2-.1-.2-.2,0-.3-.1-.7-.1-1,0-.2.2-.4.3-.5-.3,0-.5-.2-.8-.3-.7-.1-1.5,0-2.2-.4-.8-.4-1.4-.7-1.8.3,0,0-.2.2-.3.2,0,0-.3-.2-.2-.2.3-.4.3-1.1,1.1-1.1.4,0,.8-.2,1.2-.3-.4-.1-.9-.2-1.3-.3,0,0-.2,0-.2,0-.7,0-1.5.8-1.6,1.5,0,.9.4,1.5,1.2,1.7.6,0,1.2,0,1.8.2.4,0,.7.4,1,.7M92.8,238.7c-.6-.5-1.3-.7-2-.3-.6.4-1,1.1-.9,1.9,0,.7.2,1.4.2,2.1,0,1.7,0,3.4,0,5.1,0,.7.5,1.3.8,2,0,0,.2.2.3.1.6-.5.8,0,1.2.3.2.1.5,0,.7,0,0-.2,0-.5,0-.7,0-.2-.2-.4-.2-.6.2-.8.5-1.6.5-2.4,0-1.7,0-3.4,0-5.1,0-.9-.3-1.7-.6-2.6M17.4,145.1c.3.6.5,1.3.8,1.9.1.2.4.4.6.6.1-.2.3-.4.4-.6.2-1.1.5-2.3.5-3.4,0-1.9,0-3.9-.2-5.8-.1-1.5-.4-3.1-1.3-4.3-.6-.9-1.5-1.5-2.3-2.3,0,0-.4,0-.6,0,0,.2,0,.3.2.5.2.2.4.4.6.6.1.1.2.4.2.5-.7.6-.3,1.3,0,1.8,1.2,1.9,1.3,4.1,1.4,6.2,0,1.4-.2,2.8-.2,4.3M44.7,218.3c.1.2.2.3.3.5-1.1.3-.8,1.1-.5,1.8.1.4.4.7-.3.8,0,0-.2.2-.2.3.3.3.6.8,1,1,.1,0,.6-.3.8-.6.2-.2.3-.5.3-.8,0-2.3-.1-4.5-.2-6.8,0-1.3,0-2.5,0-3.8,0-.6-.3-1-.8-1.2-.5-.2-1-.2-1.5.3-1,1.1-.4,2.4-.5,3.6,0,.5,0,1,0,1.4.3,1,.7,1.9,1,2.9,0,.2.2.5.4.7M84.6,56.7c-.3.3-.7.6-1,1-.2.3-.4.6-.4.9,0,.7.3,1.2,1,1.5.7.4,1.4.2,2-.3,1.3-1.3,2.6-2.7,3.9-4,.2-.3.3-.8.2-1.2-.1-.6-.5-1.1-1.2-1.2-.9,0-1.6.2-2.2.8-.7.8-1.4,1.6-2.2,2.5M133.1,424.6c-.4.2-.8.3-1.1.5-.7.2-.6.6-.2,1,.6.7,1.2.2,1.7,0,4.1-1.9,8-4,11.8-6.5,1.1-.7,2.3-1.3,2.6-2.7,0-.2,0-.4.1-.6-.2,0-.4,0-.6.2-.3.2-.6.6-.9.8-3,2.1-6.2,3.8-9.4,5.5-1.2.6-2.5,1.2-3.9,1.8M118.6,142c-.5.6-.9,1.3-1.4,1.9-.8.9-1.6,1.7-2.4,2.6-1,1.1-.8,2.1.6,2.6,1,.3,2.5-.4,3-1.3.1-.3.2-.6.5-.8.9-.6.5-1.2.2-1.9,0-.2-.2-.5-.3-.7-.2-.4-.4-.7.3-.8.2,0,.4-.3.5-.5.2-.3.3-.6.5-.8.5-.5.2-.8,0-1.2-.5-.5-.6,0-.8.3-.2.1-.3.4-.6.7M67.6,289.7c-.6-.8-1.2-1.7-1.9-2.5-.5-.6-.2-1,.2-1.4.9-.9,1.9-1.8,2.7-2.8.5-.5.4-1.3-.2-1.9-.6-.7-1.5-1-2-.4-.7.8-1.3,1.7-1.8,2.6-.7,1.3-.4,2.6,0,3.9,0,.3.2.5.3.8.2.4.4.8.7,1.1.4.5,1,.9,1,1.6,0,.2.1.4.2.5.2-.2.4-.3.5-.5.1-.2.1-.5.2-.9M54.1,167.7c.8-.8.9-1.4.3-2.1-.5-.6-1.7-.7-2.3,0-.5.5-1,1-1.5,1.5-.6.6-1.2,1.3-1.6,2-.2.4-.1,1.1,0,1.5.2.5.8,1,1.4.5.8-.6,1.4-1.3,2.1-1.9.5-.5.9-.9,1.5-1.5M98.7,248.7c0,0,0-.2,0-.2-.5-.7-.1-.6.4-.7.3,0,.6-.3.7-.5.3-.5.5-1.1,1.2-1.2.1,0,.2-.2.3-.4,0,0,0-.2-.1-.2-.6,0-1.2-.1-1.8-.2-.2,0-.4,0-.6.1.1-.2.2-.4.4-.6.2-.1.4-.2.7-.2.4,0,.7-.1,1.1-.2-.3-.2-.6-.3-1-.5-.6-.2-1.1-.2-1.6.3-1,1.1-1.9,2.1-2.9,3.2-.4.4-.8.8-1.2,1.2,0,0,0,.2-.1.3,0,0,.2,0,.3,0,.7-.8,1.2-.5,1.6.2,0,0,.2.2.3.2.8,0,1.7.2,2.3-.7M114.5,136.7c.3.6.6,1.2,1.3,1.2,1.3,0,2.6,0,3.8.2.7,0,1-.4,1-.9,0-.3-.6-.6-.9-.8-.5-.2-1-.2-1.5-.4-.1,0-.2-.1-.3-.2.1,0,.2-.1.3-.1.4,0,.8,0,1.2,0,.2,0,.3-.1.5-.2-.1-.1-.3-.4-.4-.4-1-.1-2.1-.3-3.1-.3-1.2,0-1.7.5-1.8,1.9M78.4,170.3c.6.8,1.4.7,2.1.2,1.1-.8,2.1-1.7,3.1-2.6,1-.9.7-1.2,0-1.8-.3-.2-1.1-.3-1.4,0-1.3.9-2.5,1.9-3.8,3-.3.3-.6.8,0,1.3M72.5,169.4c-.2.6,0,1.2.4,1.4.6.3,1.3.3,1.9-.2,1-.8,2-1.7,3-2.5.9-.7.7-1.5-.3-2-.6-.3-1.1-.2-1.6.2-1.2,1-2.3,2-3.5,3.1M82.2,206.3c.7-.5,1.3-1.1,2-1.6.5-.4.8-.9.3-1.4-.4-.4-.9-1-1.5-.5-1.3.9-2.5,1.8-3.8,2.8-.4.3-.7.8-.3,1.3.4.5.8,1,1.6.6.6-.3,1.1-.7,1.8-1.1M75.4,207.3c1.1-1,2.3-1.9,3.4-2.9.6-.5.3-1.4-.4-1.5-.7,0-1.5-.2-2.1.3-1,.9-2,1.7-3,2.6-.5.4-.3,1.3.3,1.5.5.2,1.1,0,1.8,0M119.8,412.2c-.2.7.4,1,.7,1.4.2.3.5.7.4.9-.3.8,0,1.5.4,2.2.1.2.3.4.4.6.1-.2.3-.4.4-.6,0-.1,0-.3,0-.4,0-1.1,0-2.2,0-3.2,0-1.1-.6-1.9-1.4-2.5-.5-.4-.9-.2-.9.5,0,.4,0,.7,0,1.2M44.4,207.2c1.7,0,2.5-.6,2.2-2-.1-.5-.7-1.1-1.2-1.4-.3-.2-1-.1-1.4,0-1.2.7-1,2.7.3,3.3M38.9,206.8c.1.6.4.3.7.1,1.1-1.1.7-2.4.6-3.7,0-.5-1.1-1.1-1.4-1-.3,0-.6,1.1-.5,1.6.2.6.5,1.1.6,1.7,0,.3,0,.7,0,1.3M98,143.5c-.9.5-1.3,1.3-1.1,2.2,0,.1.4.3.5.3.8-.7,1.7-.5,2.6-.5.2,0,.3,0,.5,0,0-.2,0-.4-.1-.6-.5-.9-1.1-1.5-2.3-1.3M126.6,422.4c-.6.9-.4,1.8.4,1.8.5,0,1.1-.3,1.6-.6.5-.3.6-1.3.4-1.7-.3-.4-1-.5-1.6,0-.2.1-.4.3-.7.5M83.2,247.9c.3-.4.5-.7.8-1.1,0,0,.3,0,.4.1,0,0-.2.1-.3.2-.1.2-.3.4-.4.6.4.1.7.3,1.1.4,0,0,.2-.3.2-.4,0-.6.4-.4.6-.3.2,0,.3.3.4.4.1,0,.3,0,.5,0,0-.2,0-.4,0-.5-.6-.5-1.3-.9-1.9-1.3-.5-.3-1-.2-1.4.2-.2.2-.5.4-.5.5,0,.4-.4,1.1.5,1.2M12.1,23.8c.3,0,.5-.1.8-.2,0,.1,0,.3,0,.4,0,.1-.1.3-.2.4.2,0,.3,0,.5,0,.6,0,1.3-.2,1.9-.3.2,0,.4-.4.6-.6-.3-.1-.5-.3-.8-.4-.3,0-.6,0-.8,0-.6-.1-1.3,0-1.1-1,0,0-.1-.2-.2-.3-.4.3-.8.5-1.1.9-.1.2.2.7.4,1.1M14.6,28.2c-.2.3-.9-.3-.8.4,0,.2.2.5.4.6.2,0,.6,0,.7-.1.1-.1,0-.5,0-.7,0-.2-.1-.4-.2-.6-.2-.6-1.4-1.2-1.9-1.1-.8.3-1.5,2.5-1,3.2,0,0,.1,0,.2.1.2-.4.7-.9.6-1.2-.2-.9-.3-.9.6-.9.1,0,.4,0,.4,0,.5-1,.6.1.9.3M16.9,16.5c-.1.2-.2.5-.4.6-.4.3-.8.6-1.2.7-.3,0-.6-.2-1-.3,0,.4,0,.8-.1,1.2,0,.1,0,.3,0,.4,0,0,0,.1,0,.2,0,0,.2-.1.2-.2,0-1,.5-1.2,1.3-.8,0,0,.2,0,.3-.2.5-.5,1.3-.3,1.7-1,0,0,.1,0,.2-.1.2-.1.4-.3.7-.4-.3,0-.5-.2-.8-.3-.2,0-.5,0-.8.2M25.2,12.6c0,.2,0,.3,0,.5.1-.1.3-.3.4-.4.1-.2.2-.4.3-.6.2.1.4.3.6.4.3.2.6.4.8.6,0-.3,0-.5,0-.8,0-.1,0-.2,0-.3,0-1.1-1-.8-1.6-1,0,.3-.1.5-.2.8,0,.2-.1.5-.2.8M90.7,42.8c-.3,0-.6-.3-.8-.2-1,.3-1.9.7-2.8,1.2-.1,0-.2.2-.3.3.2,0,.4.2.5.1.3-.1.6-.3,1-.5.8-.3,1.6-.5,2.4-.9M20.3,15.7c-.2,1-.8,1.8-1.4,2.6-.1.2-.2.4-.2.7,0,.1.1.3.2.4.1,0,.2-.2.3-.3.5-.7,1-1.3,1.4-2,.2-.4.7-1.1-.2-1.4M14.3,15c0-.3-.1-.6,0-.9,0-.6.2-1.2.2-1.8,0-.1,0-.3-.1-.4-.1,0-.3.2-.3.3,0,.5,0,1-.2,1.5,0,.3-.3.6-.5.9,0,0-.3,0-.5,0,.2.1.4.3.6.4.2,0,.5,0,.8,0M29.5,246.2c.3-.3.5-.6.8-.9,0-.1.1-.3.2-.5-.2,0-.4-.2-.5-.2-.3.1-.6.4-1,.5-.9.2,0,.8-.3,1.1.2,0,.5,0,.8,0M94.8,249.8c-.3.4-.7.8-.8,1.2,0,.2.3.6.4.8.1-.1.2-.3.3-.4.1-.1.2-.3.3-.3.5-.3.5-1-.2-1.3M51.4,289.2c.4,0,.9,0,1.3,0,.4,0,.8,0,1.2-.2.1,0,.2-.3.3-.5-.2,0-.4,0-.5,0-.4,0-.9.4-1.2.3-.9-.4-1.3.2-1.9.6-.1.1-.1.4-.2.6.2,0,.3-.2.5-.3.2-.1.3-.3.6-.5M25.3,14c-.3.1-.6.1-.8.3-.5.4-.7,1.2-1.6.9,0,.1-.1.4,0,.4.4.4,1.2.2,1.6-.4.3-.4.6-.8.8-1.3M138.6,11.3c-.7-.2-1.5-.4-2.2-.7-.1,0-.3,0-.4,0,0,.1.2.3.3.3.9.3,1.7.6,2.6.9.2,0,.4,0,.6,0-.2-.1-.3-.2-.5-.3,0,0-.1-.1-.3-.2M10.7,35.5c.1-.2.3-.3.3-.5,0-.2,0-.4.1-.7-.2,0-.4.1-.5.2-.2.1-.4.3-.6.5-.2.2-.5.4-.4.5,0,.3.3.5.5.7.2-.2.4-.4.6-.7M51.4,237.9c.1,0,.2-.2.3-.2.2,0,.3-.1.5-.2-.2-.1-.4-.2-.6-.3,0,0-.2,0-.3,0-.6.2-1.2.4-1.8.5.6,0,1.2.2,1.8.2M31.7,231.3c-.4.5-.7.9-1,1.4,0,.1-.1.3-.2.4.2,0,.3,0,.5,0,.8-.2,1.1-.7.7-1.8M101.6,159.9c0-.6.1-1.2-.8-1.2-.2,0-.5-.3-.7-.5-.3-.3-.6-.6-.9-.9,0,0-.2,0-.3,0,0,0,0,0,0,.1.5.5,1.1,1.1,1.6,1.6.3.3.6.5,1.1.9M98.7,146.9c0-.7-.5-.6-.9-.6-.2,0-.3.3-.5.4.3.3.7.6,1,.9,0-.2.2-.4.3-.7M80.7,325c-.4-.2-.8-.4-1.3-.6,0,0-.2,0-.2.1,0,0,.1.1.2.2.3.2.6.4.9.7.3.2.5.5.8.7,0,0,.3-.2.3-.2-.2-.3-.4-.5-.6-.8M81,246c.2.3.4.5.6.8,0,0,.3,0,.3,0,.1-.3.3-.6.2-.8-.2-.3-.6-.4-.9-.5,0,0-.3.3-.3.5M80.3,327.4c0,.1-.1.2-.2.3.3,0,.7,0,.9,0,.4-.1.8-.3,1.3-.5,0,0,.1-.1.2-.2,0,0-.1-.1-.2-.1-.7,0-1.3,0-2,.5M117.5,273.5c-.2.2-.4.4-.6.6-.1.1-.2.3-.2.4.2,0,.4.1.5,0,.6,0,.9-.8.6-1.6,0-.2-.3-.4-.4-.6,0,0-.1,0-.2,0,.1.2.2.3.3.5,0,0,0,.2,0,.5M80.1,319.6c-.5,0-.7.3-.6.7,0,.2,0,.5,0,.7.3,0,.5-.2.8-.3,0-.1-.2-.3-.3-.4,0-.1.1-.3.2-.4.1-.1.3-.3.4-.4-.2,0-.4,0-.7,0M18.1,13.1c0,0,0-.2.1-.3,0-.2.2-.3.3-.5-.2,0-.4.1-.6.2-.2.2-.5.4-.7.6-.1.1-.2.3-.3.5.2,0,.5.1.7,0,.2,0,.2-.3.4-.6M135,13c.1,0,.3,0,.3,0,0-.4-.6-1.4-1-1.5-.2,0-.4,0-.6,0,.1.2.2.4.4.5.3.3.6.5,1,1M127,82.3c-.2-.1-.5-.2-.7-.4-.4-.3-.7-.7-1-1,0,0-.2,0-.3,0,0,0,0,.1,0,.2.1.8,1.1,1.5,2,1.2M96.5,149.8c-.5-.2-1.1-.3-1.6-.5,0,0-.2.1-.3.2,0,0,.2.2.3.2.6.1,1.1.2,1.7.3.2,0,.3,0,.5,0-.1-.1-.3-.3-.6-.4M57.7,306.4c0,.6,1.1,1.2,1.5,1,.1,0,.1-.3.2-.4-.5-.2-1.1-.4-1.7-.6M9.9,24.3c.4-.2.7-.5,1.1-.7-.5,0-.9.1-1.4.2-.1,0-.2.2-.3.3.2,0,.3.2.6.2M82,321c.2-.1.5-.2.7-.3.1,0,.3-.2.4-.2-.2,0-.4-.1-.5,0-.3,0-.7.2-1,.3-.2,0-.4.3-.4.4,0,.2.1.4.2.5.1-.1.3-.3.4-.4,0,0,.1-.1.3-.3M91,4.5c-.8,0-1.6,0-2.5,0-.1,0-.3.1-.4.2.1,0,.3.1.4.1.8,0,1.5,0,2.3,0,0,0,.2-.2.2-.3M73.8,7.5c-.2.6.1.8.6.8.3,0,.5-.2.8-.2-.3-.2-.7-.4-1-.6,0,0-.2,0-.4,0M123.5,73.5c-.2-.2-.3-.4-.5-.5,0,.2-.2.5-.2.7,0,.3.2.7.2,1,.1-.4.3-.7.4-1.2M94.5,373.8c.2,0,.4-.2.5-.3-.3-.2-.5-.5-.8-.5-.3,0-.6.4-.9.6.3,0,.5.1.8.2,0,0,.1,0,.3,0M82.3,325.2c.4.1.8.2,1.2.3.1,0,.2,0,.3,0,0-.2,0-.5,0-.5-.5,0-1,0-1.5.2M60,317.7c-.1,0-.3,0-.4,0-.2,0-.3.2-.5.3.2,0,.3.1.5.2.3,0,.7.1,1,.1.1,0,.3-.1.4-.2,0-.1-.1-.3-.3-.4-.2,0-.4,0-.8,0M12.6,17.6c.1-.1.3-.3.4-.4-.2,0-.4,0-.5,0-.4.2-.8.4-1.1.6-.1,0-.2.3-.2.4.2,0,.4,0,.5,0,.3-.2.5-.4,1-.7M11.2,10.9c0,0,.1-.1.2-.2.2-.3.4-.6.6-.9-.3.1-.6.3-.9.4-.1,0-.2.1-.3.2-.1.1-.2.3-.3.5.2,0,.5,0,.8,0M68.8,255c-.4.1-.8.2-1.2.3.4,0,.8.1,1.3.2,0,0,.1,0,.2,0,.2-.2.4-.3.6-.5-.2,0-.4,0-.7,0M120.3,188.2c-.1,0-.3,0-.4.1,0,0,0,.2,0,.2.6,0,1.3.1,1.9.2,0,0,.2-.2.1-.3,0,0-.2-.2-.2-.2-.4,0-.9,0-1.5,0M122.3,186.9c-.2,0-.5-.2-.7-.1-.2,0-.4.3-.6.5,0,0,.1.2.2.2.3,0,.6.1.9.2.2,0,.3-.1.5-.2,0-.1-.2-.3-.3-.5M16,27.2c0,.2,0,.5-.1.7,0,0,.2,0,.2,0,0-.2.2-.4.2-.6,0-.2,0-.5,0-.7,0-.2-.2-.3-.3-.4-.1.1-.3.3-.3.4,0,.2.1.4.3.7M28,9.7c-.2,0-.4,0-.7,0,.3.3.5.6.9.7.2,0,.5-.4.7-.6-.2,0-.4,0-.6,0,0,0-.1,0-.3-.1M99.4,380.5c-.2.2-.4.5-.6.7,0,0,.1.2.2.2.2,0,.3,0,.5,0,.1,0,.3,0,.4.1,0-.1,0-.3,0-.4,0-.2-.2-.5-.5-.7M22.5,19.9c.2-.3.3-.5.5-.8,0-.1.2-.3.3-.4-.2,0-.5,0-.7,0-.3.3-.5.6-.6,1-.1.4.1.5.5.2M96.4,154.7c-.2.1-.3.2-.5.3.2,0,.4.2.4.2.5-.4,1-.3,1.5-.1,0,0,.2,0,.3,0,0,0-.1-.3-.2-.3-.5,0-1-.1-1.6,0M85,304.9c.2,0,.5,0,.7.1-.1-.2-.2-.5-.4-.6-.3-.2-.6-.3-.9-.4.1.2.3.5.4.7,0,0,0,0,.2.2M85.5,337.7c-.4-.3-.8-.7-1.2-1,0,0-.1,0-.2.1,0,0,0,.1,0,.2.4.4.8.7,1.2,1.1,0,0,.2,0,.3,0,0-.1-.1-.2-.2-.4M116.5,262.9s0,0-.1-.1c-.2-.2-.4-.3-.6-.5,0,.1-.1.3,0,.4.2.4.4.7.7,1.1,0,0,.1-.2.1-.3,0-.2,0-.3,0-.7M120.4,247.3c0-.2.1-.3.2-.5-.4-.1-.8-.2-1.2-.3,0,0-.1.2-.2.3.2.1.4.3.7.4.1,0,.3,0,.5.2M118.2,199.6c.3.1.6.3.9.4,0,0,.1-.3,0-.3-.2-.2-.5-.4-.8-.6,0,0,0,0,0,0-.2,0-.4,0-.6,0,.1.2.2.3.4.6M37.9,270c-.2.3-.5.6-.7.9,0,0,0,.3.1.4,0,0,.1,0,.2,0,.4-.1.7-1,.3-1.3M107.8,237.7c-.2-.2-.5-.3-.7-.5,0,.2.1.5.3.7.2.2.4.4.6.6,0,0,.2-.1.3-.2-.1-.2-.3-.4-.5-.7M11,33.7c0-.1-.2-.4-.2-.4-.3,0-.6.2-.9.4,0,0,0,.4,0,.5,0,0,0,0,.1,0,.3-.1.7-.3,1-.6M29.7,164.1c0,0,.2-.2.3-.3.1-.2.3-.3.4-.5-.3,0-.5.1-.8.2-.1,0-.3.2-.3.3-.1.3-.2.6-.3.8.2-.2.4-.4.7-.6M118.4,192.9c-.3,0-.7,0-1,0-.1,0-.3,0-.4,0,.1.1.3.3.4.4.3,0,.7,0,1.1,0,.2,0,.3,0,.5-.1-.2,0-.3-.2-.6-.2M50.8,246.8c.6-.2,1.1-.4,1.6-.7,0,0,.2-.1.3-.2-.1,0-.3-.2-.4-.1-.6.2-1.2.3-1.5,1M59.7,280.1c-.5,0-1,0-1.5,0,0,0-.2,0-.2.1,0,0,0,.2,0,.2.4.3,1.3.2,1.7-.3M76.6,317.5c-.3.1-.6.3-.9.4.3,0,.5,0,.8,0,.1,0,.2,0,.3,0,.2,0,.4-.2.5-.4-.2,0-.4,0-.7-.1M82.1,314.1c0,0,.1-.2.2-.3-.2,0-.4-.2-.5-.2-.4.2-.8.5-.6,1.1,0,.2.3.3.4.4,0-.2,0-.4,0-.5-.2-.4-.1-.6.5-.5M95.9,250.9c.3.3.6.5,1,.8,0,0,.2,0,.3,0,0-.1,0-.3,0-.3-.4-.2-.6-.9-1.3-.5M56,214.4c-.5.2-1.1.3-1.6.5,0,0,0,.2-.1.2,0,0,.2,0,.2,0,.6-.1,1.2-.2,1.8-.4,0,0,.2-.1.3-.2-.1,0-.3,0-.6-.1M118.9,197c.1-.4.3-.7.4-1.1,0,0-.3-.2-.4-.3,0,0-.2.2-.2.3,0,.3,0,.6.2,1M13.4,11.8c.4-.2.9-.3,1.3-.5,0,0,0-.2.1-.2,0,0,0,0-.1,0-.5.1-1,.2-1.5.4,0,0,0,.3.2.4M63.7,287.7c-.2,0-.3,0-.5,0-.1,0-.3.1-.4.2.1,0,.2.2.4.2.3,0,.7,0,1,0,.1,0,.2-.1.3-.2-.1,0-.2-.2-.3-.3-.1,0-.3,0-.5,0M11.8,25.5c0,.1.2.3.2.4.1-.2.4-.4.4-.6,0-.2,0-.5,0-.7-.2.2-.4.3-.6.5,0,0,0,.2,0,.4M19.6,20.7c0-.2,0-.5,0-.7-.2.2-.4.3-.6.5,0,.1,0,.3-.1.4,0,0,0,.2,0,.3,0,0,.2,0,.2,0,.1-.1.2-.2.4-.4M80.6,331.6c0-.1.2-.3.2-.4,0-.3-.3-.6-.4-.8,0,0-.2,0-.2,0,0,.3,0,.7,0,1,0,.1.2.2.4.2M95,169.1c.2-.1.4-.2.6-.3.1,0,.2-.2.3-.3-.2,0-.3-.1-.5,0-.4.1-.7.3-1.1.4,0,0-.2,0-.3.1,0,0,.2.2.3.2.2,0,.3,0,.7,0M124.2,124.1c-.2-.4-.3-.8-.5-1.1,0,0-.2,0-.3,0,.1.4.3.7.4,1.1,0,0,.1,0,.3,0M16.5,23.5c0-.2,0-.5,0-.7,0-.2,0-.3,0-.5-.2,0-.4.2-.5.3-.1.4-.3.8.4.9M20.6,23.3c.3-.1.6-.3.9-.4-.3,0-.5,0-.8,0-.1,0-.3,0-.4,0-.2.1-.3.3-.5.5.2,0,.4,0,.7-.2M65.6,305.1c-.2.2-.3.5-.5.7.3-.1.6-.3.9-.4,0,0,0,0,0,0,0-.2.2-.3.3-.5-.2,0-.4.1-.7.3M130.9,142.3c.4.1.8.2,1.3.3,0,0,.2-.2.1-.2,0-.2-1.3-.4-1.4-.1M55.5,306.4c.3-.1.6-.3.9-.4-.3,0-.6,0-.9-.1,0,0-.1,0-.2,0-.1,0-.3,0-.4.1.1.1.3.3.6.4M25.6,14.9c.2,0,.5,0,.7,0,.2,0,.4-.3.5-.5-.2,0-.5,0-.7,0-.2,0-.3.2-.5.5M9.9,133.3c0-.2.1-.4.2-.6,0,0-.1,0-.2,0-.3.4-.7.6-1.3.5,0,0-.1.1-.2.2,0,0,.1.2.2.2.4,0,.7-.2,1.2-.3M120.8,182.6c0-.5,0-1.1,0-1.6,0,0-.1,0-.1,0,0,0-.1.2-.1.2,0,.4.1.9.2,1.4M15.9,19c-.3.2-.7.4-1,.7,0,0,0,.3,0,.3.3.1,1-.5.9-1M123,83.1c.3.2.6.4.9.6,0,0,.3,0,.4-.1,0-.1-.1-.3-.2-.3-.3-.2-.7-.4-1-.5,0,0-.1.2,0,.4M114.7,200.5c0,0-.1-.1-.2-.2-.1,0-.3-.1-.5-.2,0,.2.1.3.2.5,0,0,.1.1.2.2.3.2.6.3.9.5-.2-.2-.4-.4-.6-.7M59.1,5.4c.1.1.2.4.3.3.4,0,.8-.2,1.2-.3-.4,0-.9,0-1.3-.1,0,0,0,0-.2,0M69.1,89.3c-.1.5.3.5.5.4.2,0,.3-.4.5-.6-.2,0-.4,0-.6,0,0,0-.2.1-.3.2M133.2,373c.1,0,.2,0,.3,0,.2,0,.4,0,.6-.1,0,0,0-.1,0-.2-.2,0-.4,0-.6,0-.2,0-.4.1-.6.2,0,0,0,.2-.1.2.1,0,.2,0,.4,0M117.7,243.9c-.1-.1-.3-.3-.4-.4-.1.2-.4.3-.4.5,0,.1.3.3.4.5.1-.1.3-.3.4-.6M93.4,250.1c-.2.2-.4.4-.5.6,0,.1,0,.3.1.5,0,0,.2,0,.2,0,.4-.3.5-.7.1-1.1M84.6,46.1c.2.2.3.4.5.5.2,0,.4-.2.6-.3-.2-.1-.4-.3-.6-.3-.1,0-.2,0-.5.2M63.1,251.6c.3,0,.7,0,1,0,.1,0,.2-.2.3-.2-.1,0-.3-.3-.4-.2-.3,0-.7.3-1,.6M118.3,223.9c0-.3-.2-.6-.2-.9-.1,0-.3.1-.4.2.1.2.3.4.4.7,0,0,0,0,.2,0M83.5,294.1c0,0,.2,0,.3-.1.1-.2.2-.4.2-.7,0,0-.3-.1-.4-.2,0,.2-.1.4-.2.7,0,0,0,.2,0,.3M79.8,4.5c0,0,0,.1,0,.2.5,0,1.1,0,1.6.1,0,0,0-.1,0-.2-.4,0-.8,0-1.2-.1,0,0-.2,0-.4,0M69.4,292.5c-.2,0-.3,0-.5-.1,0,.2-.1.4-.1.6,0,.1.2.2.3.3.1-.2.2-.4.3-.7M72.7,5c0,0,0-.1,0-.2-.5,0-1.1,0-1.6-.1,0,0,0,.1,0,.2.4,0,.8,0,1.2.1,0,0,.2,0,.4,0M122.7,186.4c0-.1.1-.2.2-.3-.3-.1-.5-.2-.8-.3,0,0-.2.2-.3.3.1,0,.3,0,.4.1.1,0,.2.1.5.2M136.6,12.6c.3,0,.6.1.8.2-.2-.2-.5-.3-.7-.5,0,0-.2,0-.3-.1,0,.2,0,.3.1.5M16.1,14.5c.1-.3.3-.6.4-.9-.3.2-.6.4-.8.6-.4.5,0,.4.4.3M100.3,223.7c-.2,0-.3,0-.5,0-.2,0-.4.2-.6.3.2,0,.5.2.7.2.1,0,.3-.3.3-.5M55.3,240.6c0,0,.2,0,.3,0,.2,0,.4,0,.5,0-.2-.1-.3-.3-.5-.4,0,0-.1,0-.2-.1-.3-.1-.6-.2-.9-.4.2.2.5.4.8.7M21.9,17.8c-.1-.1-.2-.2-.3-.3,0,.1-.2.3-.2.4,0,.2.1.5.2.7.2-.2.3-.5.4-.8M84.8,107.8c.2-.3.3-.6.5-.8-.1,0-.3-.1-.4,0-.3.2-.6.5-.1.9M22.2,101.8c.1.1.2.2.4.3,0,0,.2,0,.2-.1,0-.3,0-.5-.2-.8,0,0-.2,0-.4-.1,0,.2,0,.4,0,.7M100.5,180.5c-.2,0-.3,0-.5-.1,0,.4.1.8.2,1.2,0,0,.1,0,.2,0,0-.3,0-.6.1-.8,0,0,0,0,0-.2M28.7,222c-.1,0-.4,0-.4.2,0,.3,0,.7,0,1,0,.1.1.2.2.3,0-.1,0-.3.1-.4,0-.3.1-.7,0-1.1M92.8,153.8c-.2.2-.4.5-.6.7,0,0,.2.1.2.1.4-.2.8-.5,1.1-.8,0,0,0-.2,0-.2-.2,0-.4,0-.7.1M16,20.9c0,.1-.1.2-.2.3,0,0,.2,0,.2,0,.3-.3.5-.6.8-1,0,0,0-.1,0-.2-.2.2-.5.3-.7.5,0,0,0,0,0,.2M134.2,51.7c.1.2.3.4.4.5.1,0,.3,0,.5.1-.1-.3-.3-.6-.4-.8,0,0-.4,0-.5.2M98.6,150.6c0,.1,0,.3,0,.4.2.3.5.6.7.9,0,0,.1,0,0,0-.2-.3-.3-.7-.5-1,0,0-.1-.2-.4-.2M81.4,322c0,.1,0,.3-.1.4.3,0,.6,0,.8,0,.2,0,.3-.3.4-.4-.2,0-.4.1-.6,0-.2,0-.3-.1-.6,0M84.4,333.4c0,0,0,.1,0,.2.3-.2.5-.5.7-.7,0,0,0-.2,0-.3-.2.1-.5.3-.7.4,0,0,0,.1,0,.3M135.4,53.2c.2.2.3.4.5.7.1-.1.3-.2.4-.3-.2-.1-.4-.3-.7-.4,0,0-.1,0-.3,0M90.5,44.8c.2,0,.4-.2.7-.3-.3,0-.5,0-.8-.1-.2,0-.4,0-.5.1,0,0-.1.1-.2.2,0,0,.1.1.2.1.2,0,.4,0,.7,0M54,264.8c0,.1-.1.3-.2.4.3,0,.6,0,.9,0,0,0,.1-.1.2-.2-.2,0-.5-.1-.9-.2M93.5,69.6c0-.7-.4-.2-.7-.3,0,0-.3.1-.4.2.1.1.3.3.4.3.2,0,.3,0,.7-.1M118,265.7c-.2,0-.3,0-.5,0-.1,0-.3,0-.4.2,0,.1.1.3.2.3.3,0,.6,0,.8,0,0-.1-.1-.2-.2-.4M78.1,317.2c-.1.1-.3.3-.4.4.3,0,.6,0,.9.1,0,0,.2-.1.3-.2-.2,0-.4-.2-.7-.3M29.4,228.2c-.3,0-.6,0-.9-.1.2.2.4.4.6.6.1-.1.2-.2.2-.4M101.6,96.2c.2,0,.4-.2.6-.3,0,0-.2-.2-.2-.2-.3,0-.6.1-.9.2.1,0,.3.2.5.3M93.1,31.9c.3,0,.6-.2.9-.2,0,0,0-.2-.1-.2-.3,0-.8-.2-.8.5M57.5,310.6c0-.3.1-.7.2-1,0,0-.3,0-.3.1,0,.3-.6.6,0,.9M77.4,23c-.3,0-.6.1-.8.2.2.1.4.3.6.4,0,0,.2-.3.3-.5M103.2,45.2c.2-.2.4-.3.7-.5-.1,0-.3-.1-.4-.2,0,.3-.8.3-.2.7M106.4,214.9c-.2,0-.3-.1-.5-.2.1.2.2.4.4.5.2.1.4.2.6.3,0,0,0,0,.1-.1-.2-.1-.3-.3-.6-.5M14.7,26.3c0,0-.2,0-.2.1,0,.2-.1.5,0,.6.1.1.4,0,.6.1,0-.2-.2-.4-.3-.6,0,0,0-.1,0-.2M115.1,259.8c.2,0,.3,0,.5,0,0-.1,0-.3-.1-.3-.1-.2-.3-.3-.4-.4,0,0-.2,0-.3-.1,0,.1,0,.2,0,.3,0,.1.1.3.3.5M99.4,163.6c0,0-.2.1-.2.2.3,0,.6,0,1,0,0,0,.1-.2.2-.4-.2,0-.5,0-.9.1M116.4,267.6c.1,0,.3,0,.4.1-.1-.2-.2-.5-.3-.6-.1,0-.4,0-.6,0,.1.1.3.3.5.5M98.4,161.6c-.2-.2-.3-.4-.5-.5,0,0-.2,0-.4,0,0,.1,0,.3.1.3.2,0,.4.1.8.1M20.5,20.2c.2.2.3.4.5.5,0-.2,0-.4,0-.5,0-.3-.2-.6-.5,0M136.7,434.6c0,0-.2.2-.2.2,0,0,.2,0,.2,0,.2,0,.4,0,.6-.2.2-.1.4-.3.6-.4-.2,0-.5,0-.7,0-.2,0-.3,0-.5.2M107.8,105.2h.4c0-.1-.2-.4-.3-.6,0,0-.3,0-.5,0,.1.2.2.3.4.6M132.4,11.6s0,0,0-.1c-.4,0-.8-.1-1.2-.2,0,0,0,.1,0,.2.3,0,.6,0,.8.1,0,0,.2,0,.4,0M43.1,251.1c-.1.2-.3.3-.4.5.2,0,.5,0,.7-.1.2,0,.3-.3.4-.5-.2,0-.4,0-.7.1M16.2,12.1c.2-.1.5-.3.7-.4-.3,0-.6,0-.8,0-.1,0-.2,0-.3,0,0,0,.1.2.4.3M26,16c0,.2,0,.4-.1.6.1,0,.3,0,.4,0,.1-.1.2-.3.3-.4-.2,0-.4,0-.7,0M81.1,259.8c0,0-.2,0-.2,0-.1,0-.2.1-.3.2.1.1.2.3.3.3.2,0,.4-.1.6-.2,0,0-.1-.2-.4-.3M119.3,420.1c-.2,0-.5.1-.7.2,0,.1.2.3.3.3.3,0,.7,0,.4-.5M108.4,64.6c-.2-.2-.3-.5-.5-.7,0,0-.3,0-.4,0,0,.1,0,.3.2.4.2.2.5.3.8.3M57.3,290.7c.2.1.3.2.5.3,0-.2.1-.4.2-.6-.2,0-.4.1-.7.3M134.4,148.8c.6-.3,0-.6,0-.8,0,0-.2,0-.3-.1,0,.2,0,.4.1.6,0,0,.1.2.2.3M118.9,154.6c-.3,0-.6,0-.9,0,.2.1.3.3.5.4.3.1.5,0,.4-.3M120.9,154.9s0,0,0-.1c-.4,0-.8-.1-1.2-.2,0,0,0,.1,0,.2.3,0,.6,0,.8.1,0,0,.2,0,.4,0M91.3,206.5c.3,0,.5-.2.8-.3,0,0,0-.2,0-.2-.3-.2-.9,0-.8.5M130,81.3c.1,0,.3,0,.4,0,.2,0,.3-.1.5-.2-.2-.1-.4-.3-.6-.3,0,0-.2.2-.3.4M85.3,250.3c-.1.1-.3.3-.4.4.2,0,.3.1.5.1s.3,0,.5-.1c-.1-.1-.3-.3-.6-.4M106.1,84.5c-.2.1-.4.3-.6.4h.9c0,0-.1-.2-.3-.4M96,103.8c.1,0,.3.2.4.2.1,0,.2-.1.3-.2-.3-.1-.5-.3-.8-.4,0,.1,0,.3,0,.5M62.4,265.2c0,.1-.1.2-.2.3.3,0,.6-.1.8-.2,0,0,.1-.2.2-.3-.1,0-.2-.1-.3-.1-.1,0-.3.1-.5.2M36.6,269.4c0,.1,0,.2,0,.3,0,.1.1.3.2.4,0-.2.3-.3.3-.5,0-.1-.3-.2-.5-.2M24.5,17.6c-.2.2-.5.3-.7.5.1,0,.3.2.4.2.2-.2.3-.4.3-.6M7.9,144.1s0,0,.1-.1c.2,0,.3-.2.5-.3-.2,0-.5-.2-.7-.2-.2,0-.5.3,0,.6M80.2,318.5c-.3,0-.6-.1-.8-.2,0,.1,0,.4,0,.4.3,0,.5,0,.8-.2M84.1,321s0,0,.1-.1c-.2,0-.4-.3-.6-.3-.1,0-.2.2-.3.4.2,0,.4,0,.6.1,0,0,.1,0,.2,0M10.9,13.8c-.1.3-.2.7-.3,1,0,0,.1,0,.2.1,0-.4.1-.7.1-1.1M117.7,207.6c.2.1.4.2.6.4-.1-.2-.2-.4-.3-.6,0,0,0-.1-.1-.2,0,0-.2-.1-.3-.2,0,.1,0,.3.1.6M96.2,152.6s0,0,0,0c-.2-.2-.4-.5-.6-.7,0,0-.2,0-.3,0,.2.2.3.3.5.5,0,0,0,0,.2.2M101.4,155.4c-.2-.2-.4-.4-.6-.7,0,0-.2.2-.2.2.2.2.4.3.7.5M97.8,159.6c-.1,0-.2.2-.4.3.1,0,.3.2.4.2.2,0,.3-.1.5-.2-.1,0-.2-.2-.5-.3M52.4,269.4c-.1.5.2.4.5.4.1,0,.2-.1.3-.2-.2,0-.4-.2-.6-.3,0,0-.1,0-.2,0M135.2,120.6c0,.3.2.5.3.8,0,0,.2,0,.3,0-.2-.3-.3-.5-.6-.7M131.2,84c.2.1.3.2.5.3,0-.1,0-.3,0-.3-.2-.2-.3-.4-.5-.6,0,.2,0,.4,0,.6M118.5,256.9c0,.2.2.5.3.7,0,0,.2-.2.2-.2,0-.3.2-.7-.5-.5M115.8,253.1c-.1,0-.2,0-.3,0,.1.2.2.4.4.5.1,0,.3-.1.5-.2-.1,0-.3-.2-.5-.3M103.8,237.8c.1,0,.2,0,.3,0,.1,0,.3,0,.4.1,0,0,0-.2,0-.3-.2-.1-.5-.2-.7-.3,0,.1,0,.2,0,.4M117.4,66.1c-.1,0-.2,0-.3,0-.1,0-.3.1-.4.2.2,0,.5.2.7.3,0-.1.1-.3,0-.5M85.3,313.2c-.2.3-.4.5-.5.8.3-.2.6-.3.9-.5,0,0,0-.2,0-.2,0,0-.1,0-.4,0M87.1,329.7c0-.2.1-.4.2-.7-.1,0-.4.2-.4.3,0,.1.1.3.3.4M74.4,25s0,0,0,0c.3.1.6.2,1,.3,0,0,0-.2,0-.2-.3,0-.6-.2-1-.2M82.5,324c0-.1.1-.3.2-.4-.2,0-.4,0-.5,0-.1,0-.2.2-.3.4.1,0,.3,0,.6.1M133.7,42.7c-.1-.2-.3-.4-.4-.6,0,.2,0,.5-.1.7.1,0,.3,0,.5-.1M14.8,20.9c.1.2.3.4.4.6,0-.2,0-.4,0-.7,0-.5-.2-.4-.3,0M99.9,182.7c-.2,0-.5-.2-.7-.3,0,.1,0,.3.1.3.2.2.5.2.6,0M104.2,148.7c-.2,0-.4.1-.7.2,0,0,.1.2.1.2.2,0,.4-.2.5-.4M21.2,14.6c.2,0,.5-.2.7-.2,0,0-.2-.3-.3-.3-.2.1-.4.3-.5.5M105.9,250.8c0,.3.2.4.6.3.1,0,.2-.1.3-.2-.2,0-.3,0-.5-.1,0,0-.2,0-.4,0M119,122.6c0,0-.1-.2-.2-.2-.2,0-.4,0-.6-.1,0,0,0,.2,0,.2.2,0,.3.2.5.2,0,0,.2,0,.3,0M115.5,275c-.3,0-.6-.2-.9-.2,0,0,0,.1,0,.2.2,0,.4,0,.7.1,0,0,.2,0,.3,0M89.5,152.5c.2.1.4.3.6.4,0,0,.1,0,.2-.1-.2,0-.3-.2-.5-.2-.1,0-.2-.1-.3,0M124.8,292.2c0,0,.1.1.2.2.1.1.3.3.4.4,0-.1.1-.3.1-.3-.2-.1-.4-.2-.7-.3M89.8,128c0-.2-.1-.4-.2-.7-.1,0-.2.1-.3.2.1.2.2.3.5.5M53.8,297.1c0,0-.2,0-.2.1.2,0,.5.2.7.2,0,0,.2-.1.2-.2-.2,0-.4,0-.7-.1M135.1,382.3c.1-.1.2-.2.3-.3-.2,0-.4-.1-.7-.2,0,.2.1.3.3.5M36.4,254c0,.2-.1.3-.2.5.1,0,.3,0,.4,0,.1,0,.2-.3.3-.4-.1,0-.2,0-.5,0M29,204.6c-.2,0-.3-.1-.5-.2,0,.2.1.4.2.7.1-.1.2-.2.3-.5M117.9,238.3c.1-.1.3-.3.4-.4-.2,0-.4,0-.6,0,0,.2,0,.3.2.5M54.4,299.2c-.2.1-.4.2-.5.3,0,0,.1.2.2.4,0-.2.2-.4.3-.7M98.4,171.1c-.2.1-.4.3-.6.4.2,0,.3,0,.5,0,.1,0,.3,0,.4,0,0-.1-.1-.2-.3-.3M114.1,266.3c.2,0,.4-.1.6-.2-.1-.1-.2-.2-.3-.3-.1.2-.3.3-.3.5M113.9,411.1c-.1-.2-.2-.4-.3-.5,0,0-.2.1-.4.2.2,0,.4.2.7.3M50.4,273.4s0,0,0,0c-.3.2-.5.5-.8.7,0,0,0,0,0,.1.2-.2.5-.4.7-.7M127.2,76.4c-.1.1-.2.2-.3.3.2,0,.3.2.5.3,0-.2,0-.4-.2-.6M54.8,267.1c.1,0,.2,0,.3,0,.1,0,.3-.2.4-.3-.2,0-.3,0-.5,0-.1,0-.2.2-.2.3M119.8,421.7c.2.1.3.2.5.3,0,0,.1-.2.2-.3-.2,0-.4,0-.7,0M78.5,328c.1-.1.2-.2.3-.3-.2,0-.4,0-.7,0,0,.1.1.2.3.3M110.4,269.6c-.1,0-.3,0-.4,0-.1,0-.2.1-.3.2.2,0,.4.1.5.1,0,0,.2-.2.2-.3M79.2,325c-.2,0-.4.1-.7.2,0,0,0,.2.1.3.2-.1.4-.2.5-.5M55.3,272.1c.1.2.3.3.4.5,0,0,.2-.1.3-.2-.2,0-.4-.2-.7-.3M9.6,37.6c0-.2.1-.4.1-.7,0,0-.1,0-.2,0,0,.2,0,.5,0,.8M77.4,321.3c0-.2.1-.3.2-.5l-.6.2c.1.1.2.2.4.3M124,75.8c.2.1.5.2.7.3,0,0,0-.3,0-.3-.2,0-.4,0-.7,0M33.6,250.2c.1,0,.2-.2.3-.3-.1,0-.2-.2-.3-.1-.2,0-.3.1-.5.2.1,0,.3.2.5.2M53.5,249.6c-.2.2-.4.4-.6.6,0,0,0,.1,0,.2.2-.2.3-.5.5-.7,0,0,0,0,0-.1M60.5,258.8c0,0,.2-.1.2-.2-.2,0-.4,0-.7-.1,0,0-.1.1-.2.2.1,0,.3,0,.6.1M110.4,5c0,0-.2.1-.2.2.2,0,.4,0,.7.1,0,0,.1-.1.2-.2-.1,0-.3,0-.6-.1M117.7,221.9c-.3,0-.5-.2-.8-.2,0,0,0,.1,0,.2.2,0,.4,0,.6.1,0,0,.1,0,.2,0M119.2,185.6c.1.2.2.5.4.7,0,0,0,0,.1,0,0-.2-.2-.4-.2-.5,0,0-.1-.1-.3,0M96.8,185.7c.1,0,.3-.1.4-.2-.2,0-.3-.2-.5-.3,0,.1,0,.3.1.5M67.1,4.9c.3,0,.5.2.8.2,0,0,0-.1,0-.2-.2,0-.4,0-.6-.1,0,0-.1,0-.2,0M120.6,108.5c0,.2.2.3.3.5.1-.1.2-.2.3-.3-.1,0-.3-.1-.6-.2M114.9,222.8c.2-.1.4-.2.6-.4,0,0-.1-.1-.2-.1-.2.2-.4.3-.4.5M125,178.3c.3,0,.6,0,.8,0,0,0,0-.2,0-.2-.3,0-.6,0-.8.2M81.8,247.6c0,.2-.1.3-.1.5,0,0,.2,0,.3.1,0-.2,0-.4-.2-.6M55,253c.1-.1.3-.2.3-.4,0,0,0-.2,0-.3,0,0-.2,0-.2,0-.1.2-.2.4-.1.6M107.4,159.8c-.2,0-.5-.2-.7-.2,0,0,0,.1,0,.1.2.1.4.3.6.4,0,0,.1,0,.2-.2M87.4,4.7c-.3,0-.5-.2-.8-.2,0,0,0,.1,0,.2.2,0,.4,0,.6.1,0,0,.1,0,.2,0M83.9,322.5c-.1,0-.2-.1-.3-.2,0,.2,0,.4-.1.6.1,0,.3-.1.4-.4M78.1,322.5c.2-.1.3-.2.5-.3,0,0,0-.2-.1-.2-.1.1-.3.3-.4.6M105.2,404.3c.2.1.5.2.7.3,0,0,0-.1.1-.2-.2,0-.4-.2-.6-.2,0,0,0,0-.2,0M29.5,209.9c-.1,0-.2.2-.3.3.1,0,.2.2.3.1.2-.1.3-.3.5-.4-.1,0-.3,0-.5,0M92,211.5c0,0-.1,0-.2,0,.2.2.5.4.7.6,0,0,0,0,.1,0-.1-.2-.3-.4-.6-.6M98.4,231.1c-.3,0-.6,0-.8,0,0,0,0,.2,0,.2.3,0,.6,0,.8-.2M62.3,270.4c-.2.6.3.3.4.3,0,0,.2-.1.3-.2-.2,0-.4,0-.7-.1M82.5,318.7c-.2-.2-.3-.4-.5-.6,0,0-.1.1-.2.2.2.1.3.3.5.4,0,0,0,0,.2,0M89,163.4c0,0-.2.1-.2.2.2,0,.4,0,.7.1,0,0,.1-.1.2-.2-.1,0-.3,0-.6-.1M127,88.1c0,0-.2-.1-.3-.2.1.2.3.5.4.7,0,0,.2,0,.3,0-.1-.2-.3-.3-.5-.5M10.7,12.2c.2.1.3.3.5.4,0,0,.1-.2.2-.2-.2,0-.4-.2-.6-.1M116.8,205.9c.1,0,.2-.1.3-.2,0-.1-.2-.3-.2-.4,0,.2-.1.3,0,.6M95.2,176.7s0,0,0,0c0,0,0,0,0,0,.1.3.2.5.4.8,0,0,.1,0,.2,0-.1-.2-.2-.4-.5-.7M46.1,149c0,.1,0,.3-.1.4.2,0,.4-.1.6-.2-.1,0-.3-.2-.5-.2M114,189c.2,0,.4,0,.7,0-.1-.1-.2-.3-.3-.3,0,0-.2,0-.3.3M114.5,276.7c.1,0,.2,0,.3,0-.1-.1-.2-.3-.3-.4,0,0-.2,0-.3.1,0,0,.2.1.3.3M95.9,374.9l.3.4c0-.2,0-.4.1-.6-.1,0-.3,0-.4.3M117.9,348c0,0-.1.2-.2.3.3,0,.5,0,.8,0-.1,0-.3-.2-.5-.3M30.7,234.3h.4c0-.2-.2-.4-.3-.5,0,.1-.1.3-.1.5M124.7,108.7c.1,0,.2.1.3.2,0-.1,0-.3,0-.4,0,0-.3-.1-.4-.2,0,0,0,.2.1.4M51.3,267.5c.2,0,.4,0,.6-.1,0,0,0-.2-.1-.2-.2,0-.3,0-.5.3M123.7,169.1c-.2,0-.4,0-.6,0,0,0,0,.3,0,.3.2,0,.4,0,.5-.2M26,204.1c-.1-.1-.3-.3-.4-.4,0,0-.1.2-.1.2.2.1.3.2.5.2M56.4,250.7c-.2,0-.4.2-.6.3,0,0,.1.2.2.2.2-.1.3-.2.5-.5M56.1,307.5c.1,0,.3,0,.4.1,0-.2,0-.3,0-.5-.1,0-.3.1-.4.4M11.2,25c-.2.1-.3.2-.5.3.1,0,.2.2.3.2,0-.1.1-.3.2-.6M62.1,5.2c.2,0,.4.2.6.2,0,0,0-.1,0-.2-.2,0-.4,0-.7,0M110,57.8c0,0,.2,0,.3.1.1,0,.3,0,.4,0,0,0-.2-.2-.3-.3-.1,0-.3,0-.4.1M100.1,249c0,.1.1.3.3.3,0,0,.2-.1.3-.2-.1,0-.3,0-.6-.1M119.8,208.7c0-.1-.1-.3-.3-.3,0,0-.2.1-.3.2.1,0,.3,0,.6.1M92.6,178.9c.1,0,.3,0,.4-.1-.1,0-.2-.2-.3-.2-.1,0-.2.2,0,.3M133.2,31.4c-.2,0-.4,0-.6,0,0,0,0,.2,0,.2.2,0,.4,0,.5-.1M122.3,179.9c0-.1.1-.3,0-.4,0,0-.2-.1-.3-.2,0,.2.1.3.2.6M53.5,276.3c-.1.2-.3.3-.4.5,0,0,.3,0,.3,0,.1-.1.2-.3,0-.5M98,163c.2,0,.3.1.5.1,0,0,0-.1,0-.2-.2,0-.3,0-.6,0M117,213.1c-.2,0-.3-.1-.5-.2.1.2.2.3.3.5,0,0,.2-.2.2-.3M18.6,10c0,.2-.1.4-.2.6,0,0,.1,0,.2,0,0-.2,0-.4,0-.7M102.4,188.6c0,0,.1,0,.2,0-.2-.1-.3-.3-.5-.4,0,0-.2.1-.2.1,0,.1.2.3.4.4M21.1,181.5c-.1.1-.2.2-.3.3,0,0,.2.1.3.2,0-.2,0-.3,0-.5M114.7,261.7c-.2-.1-.3-.3-.5-.4,0,0-.1.2-.2.2.2,0,.4.2.6.1M111.8,29.2c.2,0,.4.2.6.2v-.2c-.1,0-.3,0-.6,0M71,34.1c.1,0,.3-.2.4-.3-.1,0-.3-.1-.4-.2,0,.1,0,.3,0,.5M102.8,216.4c0,0-.1.2-.2.3h.6c0,0-.1-.2-.4-.3M116.5,289.8c0,.1,0,.3,0,.4.1,0,.3-.1.4-.2-.1,0-.3-.2-.5-.2M134.7,39.1c.1,0,.3,0,.4.1,0-.1,0-.3,0-.4-.1,0-.3.2-.3.3M98.9,213c.2,0,.4,0,.6,0,0,0,0-.1,0-.2-.2,0-.4,0-.6,0,0,0-.1,0-.1.2M134.3,28.9c-.2,0-.3,0-.5.1,0,0,.1.2.2.3.1-.1.2-.2.3-.4M107.1,176.7c0,0,.1-.2.2-.3h-.6c0,0,.1.2.4.3M53.3,293.6c0-.2.2-.4.2-.5,0,0,0,0-.1,0,0,.2-.2.4-.1.6M70.4,56.7v.5c0,0,.2,0,.2,0,0-.2,0-.3-.2-.4M49.3,293.8c0,0,0,.2.1.3,0,.1.2.2.3.3,0,0,.1-.1.2-.2-.1,0-.2-.2-.4-.3,0,0-.1-.1-.3,0M90.5,150.8c.1.2.2.3.3.5,0,0,.2,0,.2-.1-.1-.1-.3-.3-.6-.4M87.7,41.3c0-.1-.1-.3-.2-.4,0,0-.2,0-.3,0,.1.1.3.3.5.3M96.6,80.2c0-.1-.1-.3-.3-.3,0,0-.2.1-.3.2.1,0,.3,0,.6.1M83.4,250.9c.2,0,.3.1.5.1,0,0,0-.1,0-.2-.2,0-.3,0-.6,0M100.6,312.2c0,.1.1.3.3.3,0,0,.2-.1.3-.2-.1,0-.3,0-.6-.1M91,360.7c0-.1-.1-.3-.3-.3,0,0-.2.1-.3.2.1,0,.3,0,.6.1M85.6,172.3c0-.1-.2-.3-.3-.4,0,0-.1,0-.2.1.1.1.3.2.5.3M55.9,304.5c-.2,0-.4,0-.7,0,0,0,0,.1,0,.2.2,0,.4,0,.7-.2M118.5,278.9c.2,0,.4,0,.7,0,0,0,0-.2,0-.2-.2,0-.4,0-.7.2M54.7,305.2c0-.1,0-.2,0-.3-.1.1-.3.3-.4.4.1,0,.2,0,.4,0M139.1,385.6c0-.1,0-.2,0-.3-.1.1-.3.3-.4.4.1,0,.2,0,.4,0M11.9,33.1c.1-.1.3-.3.4-.4h-.1c-.1,0-.3.2-.3.4M115.2,199.3c.2,0,.3.2.5.2,0,0,0,0,.1-.1-.2,0-.4-.1-.6-.1M80,309.6c-.2,0-.4,0-.6.1,0,0,0,.1,0,.2.2,0,.4-.2.5-.3M143.7,392.3c0-.1.2-.3.2-.4,0,0-.2,0-.2-.1,0,.2-.1.3,0,.5M80.5,89c-.1,0-.3.2-.4.2.1,0,.2.1.3,0,.1,0,.2-.2,0-.3M93.5,114.9v-.4s-.2,0-.3,0c0,.2.1.3.3.4M119.3,253c0,.2,0,.4,0,.6,0,0,.1,0,.2,0,0-.2,0-.4-.2-.6M84.6,299.7c.1,0,.2,0,.3,0-.1-.2-.2-.3-.3-.5,0,0-.1,0-.2,0,0,.1.1.2.2.5M48.4,294.9c0,.2-.2.4-.2.6,0,0,.1,0,.1,0,0-.2.2-.4.1-.6M133.2,10.9l.4.2c0,0,0-.2.1-.2-.2,0-.3-.1-.5,0M17,18.7c-.1,0-.3,0-.4.1,0,0,.1.2.2.3,0,0,.2-.2.3-.4M30,220.2c0,.1,0,.2,0,.3.1-.1.3-.3.4-.4-.1,0-.2,0-.4,0M82,258.8c.1-.1.3-.3.4-.4,0,0,0,0-.1-.1-.1.1-.3.3-.3.5M124.3,87.4c-.1,0-.3,0-.4.1,0,0,.1.2.2.3,0,0,.2-.2.3-.4M81.9,333.9c-.1-.1-.3-.3-.4-.4,0,0,0,0-.1.1.1.1.3.3.5.3M63,266.5c.1.1.3.2.4.3,0,0,.1-.1.2-.2-.1,0-.3,0-.6-.1M32,213.8c0,0,.2.1.3.2,0-.2,0-.4,0-.6,0,0-.2.1-.3.4M38.4,273.2c.1,0,.2,0,.3,0-.1-.1-.3-.3-.4-.4,0,.1,0,.2,0,.4M76.9,322.1c0-.1,0-.3,0-.4,0,0-.2,0-.3.1,0,.1.2.3.3.3M87.1,197.7c.2,0,.3.1.5.2,0,0,0-.2,0-.2-.2,0-.4,0-.5,0M112,236.7c-.1,0-.2-.2-.4-.2,0,0,0,.1-.1.2.1,0,.3,0,.5,0M43.8,285.3c0,.1,0,.2,0,.3,0,0,.2,0,.3,0,0-.2-.1-.3-.3-.4M115.2,240.6c0,.1,0,.3-.1.4,0,0,.3,0,.3,0,0-.1,0-.3-.2-.3M33.3,220.8c.1,0,.2.2.4.2,0,0,0-.1.1-.2-.1,0-.3,0-.5,0M77.1,19.9c.1,0,.2.2.4.2,0,0,0-.1.1-.2-.1,0-.3,0-.5,0M130,83.6c0-.1,0-.2,0-.3,0,0-.2,0-.3,0,0,.2.1.3.3.4M113.1,272.3c.1,0,.3,0,.4-.1,0,0,0-.1-.1-.2-.1,0-.2.2-.3.3M17.1,20c0,.1.2.3.3.4,0,0,.1-.1.2-.2-.1,0-.3-.2-.5-.2M95.9,207.8c.1.1.3.3.4.4,0,0,0,0,.1-.1-.1-.1-.3-.3-.5-.3M26,13.5c.1,0,.2.2.4.2,0,0,0-.1.1-.2-.1,0-.3,0-.5,0M23.4,13v.4c.2,0,.3,0,.3-.1,0-.1-.1-.2-.3-.3M100,160.2c-.1,0-.2-.2-.4-.2,0,0,0,.1-.1.2.1,0,.3,0,.5,0M110.4,268.6c0-.1,0-.3-.1-.4,0,0-.1,0-.2.1,0,.1.1.2.3.3M115.1,267.3c-.1,0-.3,0-.4.1,0,0,0,.1.1.2.1,0,.2-.2.3-.3M116,257.7c0-.1,0-.3-.1-.4,0,0-.1,0-.2.1,0,.1.2.2.3.3M96,162.5c-.2,0-.3,0-.5,0,0,0,0,.1,0,.1.2,0,.3,0,.5-.2M85.2,331.1c0,.1,0,.2,0,.3,0,0,.2-.1.3-.2,0,0-.1-.2-.3-.2M123.2,86.4c0,.1,0,.2,0,.3.1,0,.2,0,.3-.1,0,0-.2-.1-.4-.2M93.5,190.7l.2-.2c-.1,0-.2,0-.3-.1,0,.1,0,.2,0,.3M47.2,229.8c0-.1,0-.2,0-.3-.1,0-.3.2-.4.2.1,0,.2.1.4,0M61.9,59c.1,0,.2.2.4.2,0,0,0-.1.1-.2-.1,0-.3,0-.5,0M64.2,266.1c0-.1.1-.3.2-.4,0,0-.2,0-.2,0,0,.2-.1.3,0,.5M6.8,63c-.1,0-.2.2-.3.3,0,0,0,0,.1.1,0-.1.2-.2.2-.4M60.8,264.9c-.1,0-.2-.2-.4-.2,0,0,0,.1-.1.2.1,0,.3,0,.5,0M49.8,262.8c.1,0,.3,0,.4-.1,0,0,0-.1-.1-.2-.1,0-.2.2-.3.3M87.1,258.5c0-.1,0-.2,0-.3-.1,0-.2,0-.3.1,0,0,.2.1.4.2M73.5,315.2c.1,0,.3,0,.4-.1,0,0,0-.1-.1-.2-.1,0-.2.2-.3.3M108.2,243.4c.1,0,.2.2.4.2,0,0,0-.1.1-.2-.1,0-.3,0-.5,0M57.5,257c-.1,0-.3,0-.4.1,0,0,0,.1.1.2.1,0,.2-.2.3-.3M64.2,20c-.1,0-.3,0-.4.1,0,0,0,.1.1.2.1,0,.2-.2.3-.3M105.9,222.7c.1,0,.3,0,.4-.1,0,0,0-.1-.1-.2-.1,0-.2.2-.3.3M116.1,196.9c0-.1.2-.2.2-.4,0,0-.1,0-.2-.1,0,.1,0,.3,0,.5M88.9,184.6c-.2,0-.3,0-.5,0,0,0,0,.1,0,.1.2,0,.3,0,.5-.2M86.6,177.7c0,.1,0,.3.1.4,0,0,.1,0,.2-.1,0-.1-.1-.2-.3-.3M98.9,168.8c.2,0,.3,0,.5,0,0,0,0-.1,0-.1-.2,0-.3,0-.5.2M95.9,169.5c.1,0,.3,0,.4-.1,0,0,0-.1-.1-.2-.1,0-.2.1-.3.3M116.2,154c.2,0,.3.1.5.2,0,0,0-.2,0-.3,0,0-.2,0-.4,0M83.4,312.1c0-.1-.2-.3-.3-.4,0,0-.1.1-.2.2.1,0,.3.2.5.2M120.1,212.2l.2-.2c-.1,0-.2,0-.3-.1,0,.1,0,.2,0,.3M89.5,364.2c0,.1,0,.3.1.4,0,0,.1,0,.2-.1,0-.1-.2-.2-.3-.3M87,113.6c.2,0,.3,0,.5,0,0,0,0-.1,0-.1-.2,0-.3,0-.5.2M97.1,369.6c.1.1.3.2.4.3,0,0,0,0,.1-.1-.1,0-.3-.1-.6-.2M13.4,16.1c-.1,0-.3,0-.4.1,0,0,0,.1.1.2.1,0,.2-.2.3-.3M94.2,151.9c-.2,0-.3,0-.5,0,0,0,0,.1,0,.1.2,0,.3,0,.5-.2M122.6,104.5c.1,0,.2.1.3.2,0-.2,0-.3-.1-.5,0,0-.2.1-.2.3M24.3,11.2c-.1,0-.2,0-.3,0,0,.1,0,.2.1.3,0,0,.1-.2.2-.4M40.6,246.6l-.2-.2c0,.2,0,.4-.1.6,0,0,.2-.1.3-.4M125.2,104.2c.1,0,.3,0,.4.1,0,0,0-.3,0-.3-.1,0-.3,0-.3.2M17.8,22.9c-.1,0-.2-.2-.4-.2,0,0,0,.1-.1.2.1,0,.3,0,.5,0M90.4,22.9c0,0,.2.2.3.2,0,0,.1-.2.2-.3-.1,0-.2,0-.5,0M116.4,203.9c0,.1.2.2.3.3,0,0,.1,0,.2-.1,0,0-.2-.1-.4-.2M125,126.1l-.3-.2c0,.1,0,.3,0,.3,0,0,.2,0,.3,0M79.7,48.3c.1,0,.3,0,.4,0,0,0,0-.1,0-.1-.1,0-.3,0-.4,0M83.7,16.7c0,0,.1.2.2.2,0,0,0-.1.1-.2-.1,0-.2-.2-.3,0M134.2,144.4c0-.1,0-.3-.1-.4,0,0-.1,0-.2,0,0,.1.2.3.3.4M117.6,242.2c.1,0,.3,0,.4-.1v-.2c-.2,0-.4.2-.4.3M64.1,5.1v.4c.1,0,.3-.1.4-.2,0,0-.1,0-.4-.1M132.2,86.3c0,.1,0,.2,0,.3,0,0,.2,0,.2,0,0-.1-.1-.2-.2-.3M125.9,159.4c0,.1,0,.2,0,.3,0,0,.2,0,.3,0,0,0-.1-.2-.4-.3M17.9,24.6c0-.1,0-.3-.1-.4,0,0,0,0-.1,0,0,.1,0,.3.2.4M48.8,237.1c-.1,0-.3-.2-.4-.2,0,0,0,.1,0,.2.1,0,.3,0,.5,0M75.9,145.4c.1,0,.3,0,.4,0,0,0,0-.1,0-.1-.1,0-.3,0-.4,0M105,231.7c.1,0,.2.2.4.2,0,0,0,0,.1-.1-.1,0-.3-.1-.5-.1M116.5,202.1c0,.1,0,.3.1.4,0,0,.1,0,.2,0,0-.1-.2-.3-.3-.4M88.5,157.7c0,.1,0,.2,0,.3,0,0,.2,0,.2,0,0-.1-.1-.2-.2-.3M95.6,226.8c0,0,.1,0,.2-.1-.1,0-.3-.1-.4-.2,0,.1,0,.2.2.3M110,184c.1,0,.2.2.4.2,0,0,0,0,.1-.1-.1,0-.3-.1-.5-.1M100.4,4.6c0,0-.2-.2-.3-.2,0,0-.1.2-.2.3.1,0,.2,0,.5,0M83.5,313.9c.1,0,.2,0,.4,0,0,0-.1-.2-.2-.3,0,0-.2.2-.2.3M118.8,211.1c0,0-.2,0-.3,0,.1.1.3.3.4.4,0,0,0-.2-.1-.4M110.6,221.2c0,0,.1,0,.2-.1-.1,0-.3-.1-.4-.2,0,.1,0,.2.2.3Z"/>
    <path d="M6.5,33.9c.1-.2.2-.4.4-.5.8-.6,1.9-.9,2.2-2.1,0-.1.4-.1.5-.2,0,.2.2.4,0,.5-.4,1-.9,1.9-2,2.3-.2,0-.3.3-.4.5-.3.8-.8,1.3-1.7,1.3-.2,0-.5-.1-.6-.3,0,0,0-.4,0-.5.2,0,.4.2.6.1.2,0,.5,0,.7-.2.1-.2.1-.5.2-.9Z"/>
    <path d="M128,294.7c-.3.4-.6.8-.9,1.1-.1.1-.4,0-.5,0,0,0,0-.3,0-.4,0,0,0-.2,0-.2,0,0-.1,0-.1,0,0-.1-.2-.3-.1-.4.4-.4.7-.8,1.1-1.2.1.2.2.4.3.6.1.2.2.3.3.6Z"/>
    <path d="M118.5,428.9c0-.4,0-.7,0-1,.2,0,.3.1.5.1.1,0,.3,0,.3-.1.1-.1.2-.4.4-.5.1,0,.3,0,.5-.1,0,.2.1.4,0,.6-.3.6-.8.9-1.5,1-.1,0-.2.1-.4.1Z"/>
    <path d="M53.5,301.4c0,.2,0,.3,0,.5-.1,0-.3,0-.4-.1-.5-.1-.8-.8-1.4-.3,0,0-.2-.1-.3-.2.1-.1.3-.4.3-.4.5.2.6-1.1,1.1-.3.2.3.3.6.5.9Z"/>
    <path d="M89,355.4c.1.2.2.3.3.5-.2,0-.4,0-.5,0-.6-.3-1.3-1.6-1.2-2.3,0,0,0-.1,0-.2,0,0,.2.1.2.2.4.6.7,1.2,1.1,1.8Z"/>
    <path d="M8.4,27.2c-.4.4-.7.7-1,1,0,0-.3,0-.4,0,.1-.4.1-.9.4-1.2.2-.3.7-.3,1-.4,0,.2,0,.4,0,.6Z"/>
    <path d="M120.5,431.4c.2-.6,0-.7-.6-.7-.2,0-.4-.1-.5-.2.2-.2.4-.4.7-.6.2,0,.6,0,.6,0,.2.6.3,1.2.4,1.8,0,0-.2.1-.3.2,0-.1-.1-.3-.3-.5Z"/>
    <path d="M25.3,227.5c.4-.5.7-1.1,1.5-.9.3,0,.5.3.7.4-.2,0-.4.1-.6.2-.4.2-.7.4-1.1.6-.1,0-.3.1-.4.2,0-.2,0-.3,0-.5Z"/>
    <path d="M31.4,251.4c-.7,0-1.4-.2-2.1-.3,0,0-.2-.2-.2-.3,0-.1.2-.3.2-.3.7.1,1.5.3,2.2.5,0,.1,0,.3-.1.4Z"/>
    <path d="M26.9,225.6c-.8,0-1.6-.3-2.4.2,0,0-.2-.1-.2-.2,0-.2.1-.4.2-.4.8,0,1.6,0,2.4,0,0,0,0,.3,0,.4Z"/>
    <path d="M117.3,428.1c-.1.3-.3.5-.4.7,0,0-.1-.2,0-.3,0-.2-.3-.6.3-.6,0-.3,0-.6,0-1,0-.2-.1-.3-.2-.5.2,0,.4,0,.5.2.8.6.7.9-.1,1.5Z"/>
    <path d="M78.2,344.5c.3-.3.5-.5.7-.7,0,0,.3,0,.4,0,0,0,.1.2.1.3-.4.4-.8.8-1.3,1.1-.1.1-.4,0-.7,0,.1-.1.3-.2.4-.4.1,0,.2-.2.3-.3Z"/>
    <path d="M132.2,438.1c.6,0,1.3,0,1.9,0,.1,0,.3.3.4.4-.2,0-.3,0-.5,0-.2,0-.4,0-.5,0-.6.4-1,.2-1.4-.3Z"/>
    <path d="M120.3,231.1c-.4-.2-.8-.4-1.1-.7-.1,0-.1-.3-.1-.5.2,0,.3-.1.5,0,.3.1.6.3.8.5.1.2,0,.5,0,.8Z"/>
    <path d="M2.5,38.1c-.2,0-.3-.2-.5-.2.1-.1.3-.3.4-.4.4-.1.7-.2,1.1-.3,0,0,.3,0,.3,0,0,.2,0,.6-.3.7-.3.2-.7.1-1.1.2Z"/>
    <path d="M30,238.6c-.2-.2-.4-.3-.5-.5,0,0,0-.3.1-.3.2,0,.5-.2.7-.1.2,0,.3.4.4.6-.2.1-.5.3-.8.3Z"/>
    <path d="M2.1,49.4c-.2,0-.3.2-.4.2-.2,0-.4,0-.6.1.1-.2.2-.5.4-.6.3-.2.7-.3,1-.3.1,0,.4,0,.4,0,0,.1,0,.4,0,.5,0,0-.3,0-.5,0-.1,0-.2,0-.4,0Z"/>
    <path d="M32.8,253.7c.1,0,.2-.2.3-.1.2.2.3,1.4,0,1.6,0,0-.2.1-.3.1-.1-.1-.3-.2-.3-.4,0-.4,0-.8.2-1.2Z"/>
    <path d="M112.8,418.7c0-.3.1-.5.2-.6,0,0,.2-.1.3-.2,0,.1.1.2,0,.4,0,.3,0,.7-.1,1,0,.2,0,.4-.1.6-.1-.3-.2-.5-.3-.8,0,0,0-.2-.1-.4Z"/>
    <path d="M129.8,311.5c-.9-.5-1-.8-.6-1.3.1-.1.3-.1.5-.2,0,.1.1.3.1.4,0,.3,0,.7,0,1Z"/>
    <path d="M16.9,179.9c-.2,0-.4.2-.5.2-.3,0-.6-.1-.9-.2.2-.2.3-.5.5-.5.3,0,.6,0,.8.1,0,0,.1.2.1.4Z"/>
    <path d="M1.5,45.7c-.2.2-.3.4-.6.5-.2,0-.4,0-.6,0-.1,0-.3.1-.4.2,0-.2.2-.6.3-.6.4-.1.8,0,1.2,0Z"/>
    <path d="M1.3,46.6c.2.5.3.9.4,1.3,0,0-.3.2-.3.2-.6-.4-.6-1.2,0-1.5Z"/>
    <path d="M20.7,198.9c0-.3,0-.7.2-1,.2-.2.6-.1.9-.2,0,.1,0,.3,0,.4-.6-.1-.7.4-1.1.7Z"/>
    <path d="M116.8,423.4c-.2-.2-.3-.4-.3-.4.2-.4.4-.7.7-1,0,.1.3.3.3.4-.2.4-.4.7-.6,1.1Z"/>
    <path d="M4.9,33.3c.2-.3.5-.5.7-.7.1.1.3.3.3.3-.2.3-.4.6-.6.8,0,0-.3,0-.4.1,0-.2,0-.3,0-.6Z"/>
    <path d="M38.6,275.9c-.2,0-.3,0-.4,0-.2,0-.4-.1-.6-.2.1-.2.2-.4.4-.4.2,0,.5-.1.6,0,.1.1,1,.2.1.6Z"/>
    <path d="M86.7,351.8c0,.2,0,.2,0,.3-.2,0-.4.2-.6.2-.4,0-.8-.2-1.2-.3.3,0,.7-.1,1-.2.2,0,.4,0,.6,0Z"/>
    <path d="M134.4,440.1c.3-.2.5-.3.8-.4.1,0,.3,0,.4,0,0,0,0,.3,0,.4-.4.5-.9.5-1.2,0Z"/>
    <path d="M82.9,347.5c.3.1.6.2.8.3-.2.1-.4.4-.5.3-.3,0-.6-.3-1-.4.2,0,.4-.1.7-.2Z"/>
    <path d="M87.5,351.5c.3,0,.9.8.7,1,0,0-.3.2-.3.1-.2,0-.3-.2-.4-.3,0-.2,0-.5,0-.8Z"/>
    <path d="M10.7,21.1c0-.3.2-.5.3-.7,0-.2.2-.3.3-.5,0,.2.3.5.3.7-.2.4-.6.6-.9,1,0,0-.1,0-.1-.1,0,0,.1-.2.2-.3Z"/>
    <path d="M88.8,366.8c-.3.4-.5.8-.8,1.2,0,0-.2,0-.2,0,.2-.5.4-1,.6-1.4,0,0,.2,0,.3-.1,0,.1,0,.3,0,.4Z"/>
    <path d="M24.4,220.7c.5.6-.3.6-.4,1-.1-.2-.4-.3-.4-.5,0-.6.3-.5.8-.5Z"/>
    <path d="M122.5,431.7c.3.2.4.4.6.6-.3,0-.7,0-1-.1-.2,0-.4-.3-.6-.4.3,0,.6,0,1,0Z"/>
    <path d="M30.3,253.7c0-.4-.1-.8-.1-1.1,0,0,.1-.2.2-.2,0,.1.3.2.3.3,0,.4,0,.8-.1,1.2,0,0-.1-.1-.2-.2Z"/>
    <path d="M27,248.3c.2,0,.3.2.4.3.2.2.3.4.4.6-.2,0-.5.1-.6,0-.2-.2-.3-.4-.4-.7,0,0,0-.2.2-.3Z"/>
    <path d="M82.6,343.7c.2-.3,1.4-.2,1.5,0,0,0-.1.2-.2.2-.4,0-.9-.2-1.3-.3Z"/>
    <path d="M7,38.4c0-.2,0-.3.2-.3.2-.1.5-.3.7-.4,0,.2-.2.4-.3.6,0,.1-.2.2-.2.3,0,.2-.2.4-.2.6,0-.2,0-.5-.1-.8Z"/>
    <path d="M75.2,342.6c-.1-.1-.2-.2-.3-.3,0,0,.2-.1.3-.2,0,0,.1,0,.2,0,.3.1.6.3.9.4-.3,0-.7.1-1,.1Z"/>
    <path d="M24.5,218.6c-.2.3-.4.5-.7.7,0,0-.4-.2-.3-.3,0-.2.1-.4.3-.5.2,0,.5,0,.7.1Z"/>
    <path d="M6,30.7c-.2,0-.3,0-.4,0,.2-.4.5-.9.7-1.3,0,.1.2.3.1.3-.1.3-.3.6-.4.9Z"/>
    <path d="M141.8,437.9c-.1-.2-.2-.5-.2-.7,0,0,.4,0,.6-.1,0,.3,0,.6,0,.9-.1,0-.3,0-.5-.1Z"/>
    <path d="M141.3,439.2c0,0,.1-.1.2-.2.3-.3.5-.5.8-.8,0,0,0,.1,0,.2-.3.4-.7.9-1.1,1.3,0,0-.2,0-.3,0,.1-.2.2-.3.4-.5Z"/>
    <path d="M28.3,235.7c0,0,.1-.2.2-.2.3,0,.6.1,1,.2,0,.1-.1.4-.2.4-.4,0-.8.3-.9-.4Z"/>
    <path d="M21.6,204.5c.2.1.2.3.3.4-.1,0-.3,0-.4,0,0,0-.2,0-.2,0-.3,0-.6-.2-.9-.3,0,0,0-.2,0-.2.3,0,.7,0,1.1.1Z"/>
    <path d="M82.8,345.1c.2,0,.4,0,.5,0,0,0,.2,0,.3.1,0,0-.2.2-.2.2-.1,0-.2.1-.3.2-.3,0-.6,0-.9.1.2-.2.4-.3.7-.6Z"/>
    <path d="M83.7,342c-.2,0-.3,0-.5,0-.2,0-.3,0-.5-.1.2,0,.3-.1.5-.2,0,0,.2-.1.3-.2.2,0,.5-.2.7-.3-.2.2-.3.5-.5.7Z"/>
    <path d="M122.7,428.3c.2-.1.4-.2.6-.3,0,.2.1.3,0,.4-.1.2-.3.3-.5.5,0-.2-.1-.4-.2-.6Z"/>
    <path d="M4.3,57c-.2.2-.3.3-.4.4,0,.1,0,.3,0,.4-.2,0-.4-.1-.4-.2,0-.2,0-.5.2-.5.2-.1.5,0,.7,0Z"/>
    <path d="M113.2,413.8c0,.1-.1.3-.2.2-.3,0-.5,0-.8-.1,0-.1,0-.4.1-.4.3,0,.6,0,.8.2Z"/>
    <path d="M150.9,396.8c0,.2,0,.3,0,.5-.3-.1-.7-.3-1-.4.1,0,.2-.3.4-.3.2,0,.3,0,.5.2Z"/>
    <path d="M96.9,388c.1-.2.3-.3.4-.3.2-.1.4-.2.6-.3-.1.2-.2.5-.4.7-.1,0-.4,0-.6-.1Z"/>
    <path d="M137.7,371.7c.3,0,.5,0,.8,0-.2.3-.4.6-.6.9,0,0-.2,0-.2,0,0-.2,0-.4,0-.7Z"/>
    <path d="M89.5,358.6c-.2,0-.3,0-.4,0-.2-.1-.4-.2-.6-.4.3,0,.6-.2.8-.3,0,.2.1.4.1.6Z"/>
    <path d="M5.6,47.7c-.2,0-.3.1-.4.1,0-.3,0-.6.2-.8,0,0,.3,0,.5,0,0,0,.2.3.1.4,0,.1-.2.2-.3.3Z"/>
    <path d="M49.9,300.1c0,.3,0,.5,0,.6-.2-.3-.5-.5-.7-.8,0,0,0-.2.1-.3.2.1.4.3.6.5Z"/>
    <path d="M8.4,29c.2-.2.3-.3.5-.4,0,0,.2,0,.3,0-.2.4-.4.8-.6,1.1,0-.2-.1-.5-.2-.8Z"/>
    <path d="M8.8,149.1c0-.3.2-.6.2-.8,0,0,.2.1.2.2,0,.3,0,.7-.1,1-.1-.1-.2-.2-.4-.4Z"/>
    <path d="M4.3,129c.1.2.2.5.2.7,0,0-.2,0-.3,0-.2-.1-.3-.3-.4-.5.1,0,.3-.1.5-.2Z"/>
    <path d="M5.5,27.6c0,.1.1.2.2.3-.2,0-.3.1-.5.2,0-.2-.2-.5-.2-.7,0-.1.2-.2.3-.4,0,.2.2.4.2.6Z"/>
    <path d="M34.1,268.6c.2-.1.3-.2.5-.1.2,0,.3.3.4.4,0,0-.2.3-.2.4-.1-.1-.3-.2-.4-.3,0,0-.1-.2-.2-.3Z"/>
    <path d="M82.7,339.4c.1.2.2.3.3.4,0,0,0,.2,0,.2,0,0-.2,0-.2,0-.1-.1-.2-.3-.3-.5-.1-.2-.2-.5-.3-.7.2.2.3.3.6.5Z"/>
    <path d="M80.1,347.5c.1,0,.2,0,.2.1-.1.3-.2.6-.3.9,0,0-.2,0-.3-.1.1-.3.3-.6.5-.9Z"/>
    <path d="M38.3,277.4c-.2,0-.3-.1-.3-.2-.1-.2-.2-.4-.3-.6.3,0,.5.1.8.3,0,0,0,.4-.2.5Z"/>
    <path d="M91.7,370.2c0,0,0,0,0,0-.4,0-.7.1-1.1.2,0,0,0-.3,0-.3.3,0,.7,0,1.1,0Z"/>
    <path d="M54.3,311.8c.2,0,.4-.1.6-.1,0,.1,0,.3-.2.4-.2.2-.4.3-.6.5,0-.2,0-.5.1-.8Z"/>
    <path d="M149.5,395.4c0,.2.1.4.2.5-.3,0-.5,0-.8.1,0-.2.1-.3.2-.4.1-.1.3-.2.4-.2Z"/>
    <path d="M127,301.4c-.2-.2-.3-.3-.4-.5.2,0,.3-.2.5-.3,0,.3,0,.5-.1.8Z"/>
    <path d="M85.2,348.1c-.2,0-.3,0-.4,0-.2,0-.4,0-.6-.1,0,0,.2-.2.3-.2.3,0,.6,0,.9,0,0,0-.1.2-.2.3Z"/>
    <path d="M26.3,222.1c0,.1.1.2.2.3,0,.2,0,.4.1.6-.2-.1-.4-.2-.4-.3,0-.2-.6-.6.2-.6Z"/>
    <path d="M14.4,175.6c0,0-.1.1-.2.2-.2,0-.4.2-.7.3,0,0,0-.2,0-.3.3-.2.6-.3.9-.5,0,0,0,.2,0,.3Z"/>
    <path d="M11,171.2c0-.2,0-.4.1-.5,0,.1.2.2.2.3,0,0,0,.2,0,.2,0,.4,0,.7.1,1.1-.2-.3-.3-.7-.5-1.1Z"/>
    <path d="M75.2,322.4c0-.3.2-.5.3-.6,0,.2.2.3.2.5,0,.2-.2.4-.4.7,0-.1,0-.3-.1-.5Z"/>
    <path d="M8.2,38.6c.2,0,.4,0,.5,0,0,.1-.1.3-.3.4-.1.1-.3.2-.4.2,0-.2,0-.4.2-.6Z"/>
    <path d="M34.5,264c-.2,0-.3-.2-.3-.2,0-.2.2-.4.3-.6.1.2.2.4.3.6,0,0-.1.1-.2.2Z"/>
    <path d="M86.6,361.7c-.1,0-.2-.1-.3-.2.2-.1.4-.3.6-.3,0,0,.2.2.3.4-.2,0-.4,0-.6.2Z"/>
    <path d="M20.1,197.3c.2-.1.3-.2.5-.3,0,.2-.1.5-.3.7,0,0-.3,0-.5,0,0-.2.1-.3.3-.5Z"/>
    <path d="M135.9,348.2c.2-.1.5-.2.7-.3,0,0,0,.2,0,.3-.2.2-.5.3-.8.4,0-.1,0-.3.1-.4Z"/>
    <path d="M53.3,313c0,.2.1.3.1.4,0,.2-.2.3-.3.4,0-.2-.2-.3-.2-.5,0-.2-.3-.7.4-.4Z"/>
    <path d="M80.6,342.2c.5.3.3.7,0,1,0,0-.2,0-.2-.1,0-.3.1-.6.2-.9Z"/>
    <path d="M70.9,326.2c-.1-.1-.2-.2-.3-.3.2,0,.4,0,.5,0,.1.2.2.4.3.6,0,0-.3.1-.3,0,0-.1-.1-.3-.3-.4Z"/>
    <path d="M128.9,320.3c0-.4,0-.8,0-1.2,0,.4.2.8.2,1.1,0,0,0,.1,0,.2,0,.2,0,.3-.1.5,0-.2,0-.4,0-.6Z"/>
    <path d="M54.8,318.2c0,.2-.2.4-.3.5,0-.1-.1-.3-.2-.4.2,0,.3-.1.5-.1Z"/>
    <path d="M80.3,344.2c.2,0,.4,0,.5,0,0,.1.1.3.1.5,0,0-.1.1-.2.2,0-.1-.2-.3-.2-.4,0-.1-.1-.2-.1-.4Z"/>
    <path d="M46.6,291.5c-.3,0-.5,0-.7-.2,0,0,0-.2,0-.3.3.1.5.3.7.4Z"/>
    <path d="M141.7,381c-.3,0-.5,0-.7-.1.2-.1.3-.3.5-.4,0,.2.2.3.2.5Z"/>
    <path d="M25,248.5c.3,0,.5-.1.8-.1,0,.2-.2.3-.3.5-.2-.1-.3-.2-.5-.4Z"/>
    <path d="M29.2,243.1c.3,0,.6,0,.9,0,0,.1-.2.3-.2.3-.2,0-.4-.2-.6-.4Z"/>
    <path d="M78.9,342.5c-.2,0-.3,0-.4-.1-.1-.1-.3-.3-.4-.4.1,0,.3-.1.3,0,.2.2.3.4.5.6Z"/>
    <path d="M36.2,272.6c-.1,0-.2,0-.3,0-.2-.2-.3-.4-.5-.6.1,0,.3,0,.3,0,.2.2.3.4.4.6Z"/>
    <path d="M25.3,230.2c0,0,.1,0,.1,0,.2.1.4.2.7.3,0,0-.2.2-.2.2-.2-.1-.4-.3-.6-.4Z"/>
    <path d="M7,43.2c0-.2,0-.3,0-.5.2,0,.4.1.7.2-.2,0-.4.2-.6.2Z"/>
    <path d="M85.5,354c-.3,0-.5,0-.7,0,0,0,0-.2,0-.3.3,0,.5.1.7.3Z"/>
    <path d="M88.4.5c-.2,0-.2-.1-.3-.2.2,0,.4-.2.6-.3,0,0,.2.2.2.4-.1,0-.3,0-.5.1Z"/>
    <path d="M11.5,165.3c.1,0,.2,0,.3,0,.2.1.3.3.5.4-.1,0-.2,0-.4,0-.3,0-.5,0-.4-.5Z"/>
    <path d="M10.8,163.7c-.3,0-.5,0-.7,0,0,0,0-.2,0-.3.3,0,.5.1.7.3Z"/>
    <path d="M72.8,328.3c-.1.1-.3.3-.5.4,0,0-.1-.2-.2-.3.2,0,.4,0,.7,0Z"/>
    <path d="M8.4,20.2c0,0-.1,0-.2,0,0-.2-.1-.4-.2-.6,0,0,.2,0,.2,0,0,.2.1.5.1.7Z"/>
    <path d="M9,151.3c.2,0,.3,0,.4,0,.1,0,.3,0,.4.1-.2.1-.5.3-.7.4,0-.1,0-.3,0-.4Z"/>
    <path d="M10.4,152.1c.1.2.2.3.3.5,0,0-.2,0-.2,0-.1-.2-.3-.4-.4-.6.1,0,.2,0,.4,0Z"/>
    <path d="M55.6,313.9c0,0,.2,0,.2,0,.2,0,.4,0,.6.1,0,0,0,.2,0,.2-.3,0-.5-.1-.7-.3Z"/>
    <path d="M4.2,138.6c0,0,0-.2,0-.2,0-.2,0-.4.1-.6,0,0,.2,0,.2,0,0,.3-.1.5-.3.7Z"/>
    <path d="M3.7,133.3c0-.1,0-.2,0-.3,0-.2,0-.4,0-.7,0,0,0,.1,0,.2,0,.3,0,.5-.1.7Z"/>
    <path d="M126.6,433.4c0,.2,0,.4-.1.6,0,0-.2,0-.2,0,.1-.2.2-.3.4-.5Z"/>
    <path d="M3.2,31.8c0-.2.2-.3.3-.5,0,.1.1.2.2.3-.2,0-.3.2-.5.2Z"/>
    <path d="M134.4,333.4c.2.1.3.3.5.5,0,0-.1,0-.2.1-.1-.2-.2-.4-.3-.6Z"/>
    <path d="M34.8,271.2c-.2,0-.4,0-.5-.1.1,0,.3-.2.4-.2,0,.1.1.2.1.4Z"/>
    <path d="M7.3,41c.2,0,.4,0,.5.1,0,0,0,.2-.1.2-.1-.1-.3-.2-.4-.4Z"/>
    <path d="M117.6,421.2c-.1-.1-.2-.2-.3-.4.1,0,.3,0,.4,0,0,.1,0,.3-.2.4Z"/>
    <path d="M115.8,417.9c-.2,0-.3,0-.4,0l.2-.4c0,.1.2.3.2.4Z"/>
    <path d="M70.4,323.6c.2,0,.4,0,.6,0,0,0,0,.1,0,.2-.2,0-.4-.2-.6-.3Z"/>
    <path d="M82.2,342.8c.2,0,.4,0,.5,0-.2.1-.3.3-.5.4,0-.1,0-.2,0-.4Z"/>
    <path d="M12.9,177.3c.2,0,.3.2.5.3,0,0-.2.1-.2.1-.1-.1-.2-.3-.2-.5Z"/>
    <path d="M31.2,254.8c.2,0,.4.2.6.3,0,0,0,.1,0,.2-.2-.1-.4-.3-.5-.5Z"/>
    <path d="M25.5,217.5c-.2,0-.2-.2-.3-.3.1,0,.3-.1.4-.2,0,.2,0,.3,0,.5Z"/>
    <path d="M8.3,21.7c0,.1,0,.3,0,.5,0,0-.2,0-.3,0,0-.2.1-.3.3-.5Z"/>
    <path d="M13.1,174.2c.2,0,.3.2.5.3,0,0-.1.1-.2.2,0-.1-.2-.2-.3-.5Z"/>
    <path d="M55.4,315.2c-.2,0-.3,0-.5,0,0-.1.1-.2.2-.3.1,0,.2.1.3.2Z"/>
    <path d="M6.5,55.3c0,0,.1.2.2.3-.1,0-.3,0-.4,0,0-.1.1-.2.2-.4Z"/>
    <path d="M5.4,20c0-.1,0-.3,0-.4,0,0,.2,0,.3,0,0,.1-.1.2-.2.4Z"/>
    <path d="M7.2,44.4c0-.2,0-.3,0-.5,0,0,.1,0,.1,0,0,.2,0,.3,0,.5Z"/>
    <path d="M112.8,416.9c0-.1,0-.3,0-.4,0,0,.1,0,.2.1,0,.1-.1.2-.2.3Z"/>
    <path d="M64.5,322.9c.2,0,.3-.1.4-.1,0,0,0,.3,0,.3-.1,0-.3,0-.4-.1Z"/>
    <path d="M56,319.8c-.2,0-.3,0-.5,0,0,0,0-.1.1-.2.1,0,.2.2.3.3Z"/>
    <path d="M5.9,140c0,.2-.2.4-.3.6,0,0,0,0-.1,0,.1-.2.2-.3.4-.6Z"/>
    <path d="M11.5,156.8c0,.2-.1.2-.2.3,0-.1,0-.2-.1-.3.1,0,.2,0,.3,0Z"/>
    <path d="M133.1,163.6c0-.2.1-.3.2-.4h.1c-.1.2-.2.3-.4.4Z"/>
    <path d="M127.7,292.4c-.1,0-.3,0-.3-.2,0,0,0-.2,0-.3,0,.1.2.3.2.5Z"/>
    <path d="M5.4,23.3c0,0,.1,0,.1,0,0,.2,0,.4,0,.5,0,0-.1,0-.2,0,0-.2,0-.4.2-.6Z"/>
    <path d="M7.7,20.8c0,.2,0,.3,0,.5,0,0-.1,0-.1,0,0-.2,0-.3,0-.5Z"/>
    <path d="M82.1,362.7c.1,0,.2.2.3.3,0,0-.1,0-.2.1,0-.1,0-.3,0-.5Z"/>
    <path d="M9,152.4c.2,0,.2.1.3.2-.1,0-.2,0-.3.1,0-.1,0-.2,0-.3Z"/>
    <path d="M27.5,329.6c0,0,0,0,.1.2,0,.1,0,.3.1.4,0,0-.1,0-.1,0,0-.2-.1-.3-.1-.6Z"/>
    <path d="M141.8,383.3c0,0,.1,0,.1,0,0,.2,0,.3,0,.5,0-.2-.2-.4-.2-.6Z"/>
    <path d="M24.3,248.8c0-.1,0-.3.1-.4,0,0,.2.2.2.2-.1,0-.2.1-.4.1Z"/>
    <path d="M137.8,360.3c0,.1.1.4.2.6,0,0,0,0-.1,0,0-.2,0-.4,0-.6Z"/>
    <path d="M135.8,347c0,0,0-.2,0-.2,0-.1,0-.3.1-.4,0,.2,0,.3,0,.5,0,0,0,.1-.2.2Z"/>
    <path d="M34.7,266.5c0,0-.2.1-.3.2,0,0,0-.2,0-.2.1,0,.2,0,.4,0Z"/>
    <path d="M5.7,58.9c.1.1.2.2.3.4,0,0-.1,0-.2,0,0-.1,0-.3,0-.5Z"/>
    <path d="M12,159.1c.1,0,.2.1.3.2,0,0-.2.1-.3.2,0-.1,0-.2,0-.4Z"/>
    <path d="M28.9,234.1c-.1,0-.2,0-.3-.1.1,0,.3,0,.4-.1,0,0,0,.1-.2.3Z"/>
    <path d="M7.1,148.7c0-.1,0-.3,0-.4,0,0,.1,0,.2,0,0,.1,0,.3-.2.4Z"/>
    <path d="M73.1,69.7c0,1.4.1,2.7-.6,3.9-.5.9-1.8,1.4-2.7,1.2-.1,0-.3,0-.4,0-1.4,0-1.7-.4-1.7-1.8,0-1.2-.2-2.3-.1-3.5,0-.9.6-1.6,1.4-2,.9-.5,1.9-1.3,3-.5.5.4.7,1.2,1.1,1.7.3.4.3.6.1,1.1M70.6,72.1c0-.3,0-.6,0-.8,0,0-.2,0-.2,0,0,.3,0,.6,0,.8,0,0,0,0,.1,0Z"/>
    <path d="M47.8,145.8c0,0,.2,0,.2,0,.1.4.3.7.4,1.1,0,0-.1.1-.2.2-.1-.4-.3-.8-.4-1.3Z"/>
    <path d="M37.8,69.6c.5-.4.8-.2.8.3,0,.5-.2.9-.3,1.4,0,.2.1.4.2.6,0,.1,0,.3,0,.4-.1,0-.3,0-.3-.2-.2-.5-.5-1-.6-1.6,0-.3.2-.6.3-1Z"/>
    <path d="M43.9,77.2c-.2,0-.2,0-.3,0-.2-.1-.3-.3-.5-.4,0,0,.2-.2.2-.2.2.2.4.4.6.6Z"/>
    <path d="M39.4,66.7c.2,0,.3.1.5.3,0,0,0,.2-.1.2-.1-.1-.3-.3-.4-.5Z"/>
    <path d="M76.4,136.8c.4-.7.8-1.3,1.2-1.9,0,0,.2-.1.3-.2,0,.1.2.2.2.3,0,1.7,0,3.4,0,5.1,0,.1-.4.4-.6.4-.9,0-1.8,0-2.7,0-.2,0-.3,0-.5,0,0-.2,0-.4.2-.6.6-1,1.2-2,1.9-3.1Z"/>
    <path d="M84,66.5c.6-.3,1.1-.6,1.6-.8,1.1-.4,1.6.2,1.6,1.2,0,1.8.1,3.6.3,5.3.1,1.1-.5,1.9-1.8,2.3-2.5.7-3.8-1.1-3.9-3.2,0-1.5.2-2.8,1.2-3.9.3-.3.6-.6,1-.9Z"/>
    <path d="M80,70.5c-.2,0-.4-.1-.4-.2,0-.2.1-.4.2-.5,0,.2.2.5.2.8Z"/>
    <path d="M57.3,72c0,.6.1,1,.2,1.5,0,.6,0,1.2-.7,1.4-.5.2-.9.6-1.4.7-2,.5-2.9-.6-3.2-2.2-.6-2.7.5-5.1,3-6.5.3-.2.8-.2,1.1-.2.5,0,.9.2.8.9,0,1.2,0,2.3,0,3.5,0,.3.1.6.2.9Z"/>
    <path d="M53.6,176.8c-1.6.8-3.2,1.7-4.8,2.4-.2,0-.4,0-.6.1,0-.2,0-.4,0-.5.4-1.6,1.6-3,3.6-2.7.4,0,.8,0,1.2,0,.3,0,.4.4.6.7Z"/>
    <path d="M47.4,182.1c0,.2-.1.4-.2.6-.1,0-.3-.2-.3-.3,0-.2,0-.4,0-.6.2,0,.3.1.5.2Z"/>
    <path d="M68.4,182.1c-.6.7-.8,0-1.1-.2,0,0,.2-.3.2-.3.3.1.6.3.9.5Z"/>
    <path d="M82.7,287.4c.1-.4.2-.8.3-1.1,0-.1.1-.3.2-.4.1.2.3.3.3.5,0,.6-.2,1.2-.4,1.8,0,.3-.2.6-.3.9-.1.2-.3.4-.5.6,0-.3-.1-.5,0-.8,0-.5.3-.9.4-1.5Z"/>
    <path d="M82.8,281.5c.2,0,.3,0,.4,0,.2,0,.3.2.5.3-.2,0-.4.2-.6.2-.1,0-.2-.3-.3-.4Z"/>
    <path d="M90,212.6c.2,0,.4.1.4.2,0,.3,0,.5-.1.8,0,.2,0,.4-.1.5-.1-.2-.4-.4-.4-.6,0-.3.1-.6.3-.9Z"/>
    <path d="M44.6,215.4c.2,0,.4.1.5.2,0,0,0,.2,0,.3-.1,0-.3,0-.3,0-.1-.1-.2-.3-.2-.5Z"/>
    <path d="M45.3,217.3c.2,0,.2.2.3.3h-.6c0,0,.1-.2.3-.3Z"/>
  </g>
</svg>