<?xml version="1.0" encoding="UTF-8"?>
<svg id="Layer_1" xmlns="http://www.w3.org/2000/svg" version="1.1" viewBox="0 0 345.8 351.2">
  <!-- Generator: Adobe Illustrator 29.3.1, SVG Export Plug-In . SVG Version: 2.1.0 Build 151)  -->
  <g id="Shape_37">
    <path d="M135.2,28.3c.3.5.7.9.9,1.4.6,1.1,1.2,2.2,1.6,3.4.2.6,0,1.2,0,1.9,0,.2,0,.5.1.7.1-.1.2-.3.4-.4.7-.5,1,.3,1,.5.8,2.7,2.7,4.7,4.1,7,.9,1.5,2.3,2.7,3.3,4.1.7.9,1.3,1.8,1.8,2.8.5.8.9,1.7,1.4,2.5.3.6.6,1.3.9,2,1.6,2.7,3.2,5.4,4.7,8.1.3.5.2,1.1.4,1.7.3,1,.6,2,.9,3,0,0,0,.2.2.2,1.8.2,1.4,2,2.1,3,.4.5.9.9,1.2,1.4.4.7.6,1.4.9,2.1.1.3.1.7.2,1.1,0,.2.2.5.4.7.2-.3.5-.6.5-.9,0-.5,0-1-.2-1.4-.6-1,.5-.9.8-1.3,0,0,.3.1.3.2,0,1.1,0,2.3.3,3.4.3,2,.7,4.1,1.2,6,.3,1.3.7,2.6,1.3,3.9.7,1.5,1.5,2.9,2.2,4.4.1.3.2.6.3.9-.3,0-.6,0-.8,0-.6,0-1.1,0-1.6,0-.3,0-.6.6-.5.9.6,3.2.8,6.4,1.7,9.5.5,1.6.6,1.6,2.4,1.7,2.3,0,4.6,0,6.8.6.9.3,2,.1,2.9.3,2.2.3,4.4.9,6.6.8,1.7,0,3.3.4,4.9.5.9,0,1.8-.1,2.7-.2.2,0,.5,0,.7,0,.4.1.8.4,1.3.6-.3.2-.7.4-1,.6-1.6,1-3.3,1.8-4.7,3-1.9,1.6-3.6,3.4-5.2,5.2-.8,1-1.3,2.3-1.9,3.4-.6,1-1.1,2.1-1.7,3.1,0,.2-.1.4-.2.6-.2.7-.6,1.3-.6,2,0,.7-.6,1.5.3,2.1.3.2.4.7.5,1.2.3,1,.3,1.2,1.2,1,1.4-.4,2.5.4,3.7.8.2,0,.6,0,.6,0,.1-1.3,1.3-1.8,2-2.5,1-1,1.7-2.1,2.4-3.3.7-1.2,1.6-2.2,2.4-3.4.7-.9,1.2-2,2-2.9,1-1.2,2.2-2.2,3.7-2.9,1.9-.9,3.5-2.3,5.3-3.3.7-.4,1.7-.5,2.5-.9,1.3-.6,2.5-1.4,3.8-2.1.3-.2.8-.2,1.2-.2.8-.1,1.7.4,2.3-.7.2-.3,1.1-.4,1.6-.4,1.3,0,2.6,0,3.8.2,1.4.2,2.8.2,4.1,1,.4.2,1,.3,1.5.3,1.8.2,3.4.9,4.8,2,.2.1.5,0,.7,0,0-.2,0-.5-.2-.7-.5-.6-1.1-1.1-1.6-1.6,0,0,0-.3,0-.4,0,0,.2,0,.3,0,.5.3,1,.6,1.4,1,1.2.8,2.3,1.5,3.5,2.3,0,0,.2,0,.2,0,0-.1,0-.3-.1-.4-.4-.3-.8-.5-1.2-.8-.2-.1-.2-.4-.3-.7.2,0,.5-.1.7,0,.7.3,1.4.7,2.1.9.4.1.9,0,1.3,0,1.5.1,2.4,1.2,3.3,2.2,1,1.1,1.8,2.4,2.7,3.6,1,1.5,1.5,3.1,2.1,4.8,1.1,3.4,2.5,6.6,3.6,10,.5,1.6.7,3.3,1,4.9.2,1,.4,2,.6,3,0,0,.3,0,.4,0,0-.2,0-.3,0-.4.2-.3.4-.6.6-.8.2.4.4.7.5,1.1.3,1,.6,2,1,3,0,.1.2.3.2.4-.8,1.4.7,1.2,1.2,1.7.5-.5,1-.9,1.3-1.5.7-1.1,1.4-2.3,2.1-3.4.1-.3.2-.6.2-.9,0-.7-.2-1.5.6-2,.2-.1.3-.7.3-1-.2-.7-.5-1.4-.7-2.1-.2-.8-.4-1.6-.6-2.3-.7-2.5-1.5-4.9-2.2-7.4-.3-1.1-.8-2.1-1.1-3.2,0-.3,0-.9.2-.9,1.4,0,0-.7.2-1-1.4-.6-1.6-2.1-2.3-3.2-1.1-2.1-2.4-4-4.3-5.5-.5-.4-1-.8-1.5-1.2-.2-.1-.2-.4-.4-.6.5-.2.9-.5,1.4-.5,2.1,0,4.2,0,6.3,0,2.3,0,4.6-.3,6.9-.4,1.7-.1,3.5-.2,5.2-.2,1.8,0,3.6,0,5.3,0,2,0,4,.3,6,.4.6,0,1.2,0,1.8,0,.2,0,.5.7.4.9-.6,1.2-.6,2.4.3,3.5.1.1,0,.4.1.6-.2,0-.5,0-.7-.3-.4-.4-.7-.8-1-1.2-.2-.3-.3-.6-.4-.9,0-.2,0-.4,0-.6-.2.2-.7.4-.7.6,0,.6-.2.7-.7.9-.8.3-1.2,2.3-.8,3.2.2.4.3,1,.1,1.3-1,1.2-.4,2.6-.5,3.9,0,1.2,0,2.4,0,3.6,0,1.4,0,2.7,0,4.1,0,1.3,0,2.5,0,3.8,0,2-.1,4.1-.3,6.1,0,1-.3,1.9-.4,2.9-.2,1.4-.6,2.9-.7,4.3,0,4-1,7.8-1.6,11.7-.3,2.3-.9,4.5-1.2,6.7-.2,1.5-.4,3-.7,4.5,0,.3-.3.7-.5.9-.9,1.3-.6,2.8-.7,4.3,0,1-.5,1.9-.7,2.9-.5,2.4-1,4.8-1.6,7.2-.3,1.2-.8,2.3-1.1,3.4-.4,1.8-.8,3.6-1.2,5.4-.3,1.4-.7,2.9-1,4.3-.4,1.6-.9,3.2-1.3,4.8-.4,2-.8,4-1.2,6-.4,2-.8,4-1.1,6-.2,1.3-.4,2.7-.7,4-.4,2.1-.9,4.2-1.4,6.3-.1.4-.3.9-.4,1.3-.5,1.6-1,3.1-1.4,4.7-.3,1.6-.9,3-1.8,4.3,0,.1-.2.2-.2.3.2,0,.4.1.5,0,.6-.4,1.2-.8,1.8-1.3,2.5-2,5-4.1,7.6-6.1,1-.8,2-1.5,3-2.2,1.1-.7,1.2-1.8,1.4-2.9.5-2.8.8-5.7,1.7-8.3.6-1.7.3-3.4.8-5.1.5-1.8.8-3.6,1.2-5.4.4-1.8.9-3.5,1.4-5.3.2-.6.3-1.2.5-1.8.4-1.5.8-3,1.1-4.5.4-1.7.8-3.4,1.2-5,.5-1.9,1-3.7,1.4-5.6.5-1.8.8-3.6,1.3-5.4.7-2.6,2.6-4.1,5.1-4.7,3.2-.8,6.4-1.7,9.6-2.3,2.5-.4,4.8-1.3,7.1-1.9,2.5-.7,4.7-1.8,7-3,.7-.3,1.3-.8,1.8-1.4,1.7-1.8,3.3-3.7,5.1-5.5,1.5-1.5,2.1-3.4,3.2-5.1,1.1-1.6,1.3-3.4,2-5,.8-1.6,1.7-3.2,2.3-4.9.6-1.6.7-3.4,1.2-5.1.6-2.1,0-4.2.4-6.3.2-1.4-.2-3-.4-4.5-.1-1.1-.3-2.2-.4-3.3,0-.5,0-1.1-.3-1.3-1.2-.9-1.2-2.3-1.5-3.5-.5-2.2-1.9-3.6-3.2-5.2-.8-.9-1.8-1.5-2.8-2.2-.5-.3-1-.6-1.6-.8-1.3-.4-2.4-1-3.5-1.8-.5-.4-1.3-.4-1.9-.6-1.9-.5-3.9-1.1-5.8-1.5-1-.2-2.2,0-3.3,0-2.1,0-4,.8-6,1.2-.6.1-1.3.5-1.5.9-.5.8-1.3.8-2,1.2-.9.5-1.8,1.2-2.5,1.9-.5.4-.9.4-1.5.4-1.4.1-2.6-.3-3.8-.7-.6-.2-1.1-.4-.9-1.2.2-1,.9-1.1,1.6-1.1,1.9,0,3.8,0,5.6-.2.5,0,1-1,1.4-1.5,0,0,0-.4.1-.4,1.6-.5,1.9-1.9,2.3-3.3.4-1.3-.4-3.4-1.7-3.9-1.8-.7-2.1-1.7-1.5-3.3.3-.8.2-1.7.3-2.6,0-2.3.1-4.6,0-6.9-.1-1.4-.7-2.9-1.2-4.2-.6-1.6-1.2-3.3-2-4.9-.6-1.3-1.4-2.5-2.2-3.7-1.1-1.8-2.7-3-4.4-4.2-1.2-.8-2.5-1.6-3.7-2.5-1.7-1.3-3.1-2.8-4.5-4.5-2.2-2.8-4.4-5.6-6.9-8.1-2-2-3.9-4.1-6.4-5.6-1.1-.7-1.8-1.8-2.8-2.7-1.8-1.8-3.9-3-6.3-3.9-.8-.3-1.5-.7-2.3-.9-2.4-.6-4.6.4-6.8,1-1.4.4-2.8.6-4.3.8-.6.1-1.2.2-1.7.3-1.2.3-1.8-.7-2.5-1.2-1.1-.7-2-1.7-3.5-2-.9-.2-1.7-1-2.6-1.5-.6-.3-1.3-.6-2-.8-.9-.3-1.9-.3-2.7-.8-.7-.4-1.4-.5-2-.2-1.3.6-2.5,0-3.8,0-.5,0-1,0-1.5.1-.5.1-1,.7-1.3.6-.8-.3-1.7-.7-2.3-1.4-1-1.2-1.9-2.7-2.7-4-.4-.7-.6-1.4-1.1-2.1-.2-.4-.7-.5-1.1-.8-1.2-.7-2.4-1.6-3.7-2.2-1.4-.7-3-1-4.5-1.7-.7-.3-1.3-1-1.7-1.7-.9-1.4-2-2.6-3.4-3.3-2-1-4.2-1.4-6.4-1.4-1.7,0-3.5-.3-5.2-.7-1.7-.4-3.4-.9-5-1.5-.9-.3-1.6,0-2.4.1-2.2.3-4.1,1.2-5.6,2.8-.3.3-.9.5-1.4.6-.3,0-.7-.2-.9-.5-1.1-1.2-1.7-2.8-3.4-3.2-.2,0-.4-.7-.5-1.1-.1-1.2-.2-2.5-.2-3.7,0-.5.3-1,.4-1.5,0-.2,0-.4,0-.5-1.4-1.1.6-2.3,0-3.4.2,0,.4-.1.5-.1,2.4,0,4.8.1,7.1.2,2.1,0,4.2,0,6.4,0,3,.2,6.1.4,9.1.7.2,0,.4.2.6.3-.2,0-.3,0-.5,0,0,0-.2,0-.2.1,0,0,0,.2.1.3.9,0,1.8.2,2.7.2,0,0,.1-.2.1-.3,0,0-.1-.2-.2-.2-.2,0-.4,0-.6,0-.3,0-.7-.2-1-.3.3,0,.6.1.8,0,1.1,0,2.2-.2,3.3-.2,1.1,0,2.1.2,3.2.2.9,0,1.8-.2,2.7-.2,1.5,0,3,0,4.5,0,2.2,0,4.5-.2,6.7-.2,1.3,0,2.5,0,3.8,0,1.3,0,2.7-.3,4-.2,1,0,2.1.5,3.1.7.3,0,.6.1.9.1,1.6.2,3.1.3,4.7.4.3,0,.5-.1.8-.3,0,0,0-.4,0-.4-.4-.1-.9-.3-1.3-.3-.8,0-1.6-.1-2.4-.2-.1,0-.2-.2-.3-.3.2,0,.3,0,.5,0,.5,0,1.1,0,1.6-.1,1.9-.2,3.9-.3,5.8-.5,2.5-.2,5-.1,7.5-.6,2.6-.5,5.3,0,7.7-.5,1.7-.3,3.3.1,4.9-.2,1-.2,2.2.1,3.3.2.5,0,1-.2,1.5-.2.7,0,1.5,0,2.2,0,0,0,.2,0,.3-.1-.1-.2-.3-.4-.4-.6.3,0,.7,0,1,0,.8.2,1.6.5,2.4.6,1.1,0,2.2-.2,3.3-.2,1.4,0,2.8-.3,4.2.1.9.3,2.1-.3,3.1-.4.5,0,1,0,1.5,0,.6.1,1.1.3,1.7-.3.2-.2.9,0,1.3,0,.4,0,.8-.1,1.2-.2.3,0,.7,0,1,0,1.1.2,2.2.5,3.4.6.7,0,1.4-.5,2-.7.2,0,.4-.2.5,0,1.2.9,2.4.6,3.7.1.8-.3,1.8-.1,2.7-.1.6,0,1.2,0,1.9.1,1.7.1,3.5.3,5.2.3.9,0,1.8-.1,2.7-.1,1.7,0,3.4,0,5.2-.1,1.2,0,2.3-.3,3.5-.4,1-.1,2-.2,3-.2,2,0,4,.2,6.1.2,2.2,0,4.4-.1,6.6-.2,2.4,0,4.8-.2,7.2-.2,1.5,0,3,.2,4.5.2,2,0,3.9,0,5.9,0,1.9,0,3.9.2,5.8.2.4,0,1.1-.8,1.2.3,0,.5-.2,1-.2,1.5,0,1.1,0,2.3,0,3.4,0,1.1.1,2.2.2,3.4,0,1.2-.2,2.4,0,3.5.6,2.4.5,4.7.2,7.1,0,.6-.1,1.1-.2,1.7,0,.1-.1.3-.2.3-.4,0-1,.5-1,1,0,.7,0,1.5,0,2.2,0,.3-.4,1.1.6.8,0,.2.1.4.1.5-.5,3-1.2,6-1.6,9-.2,2.1,0,4.3,0,6.4,0,2.9.6,5.7-.2,8.6-.2.8,0,1.8,0,2.7,0,1.2-.1,2.3-.2,3.5,0,.6-.2,1.3-.2,1.9-.2,2.1-.6,4.2-.6,6.4,0,2.3-1.1,4.4-1.2,6.7,0,1.3.3,2.6.4,3.9.1,1.2,0,2.4.3,3.6.4,2.3-.3,4.4-.6,6.6-.1,1-.1,2-.1,3.1,0,2,0,3.9,0,5.9,0,2.1-.1,4.2-.2,6.2-.1,2-.3,4-.4,6.1,0,1.4,0,2.9,0,4.3,0,1.1-.2,2.2-.2,3.3,0,1.7,0,3.3,0,5,0,2.1.4,4.3.2,6.3-.2,1.8,0,3.6,0,5.5,0,2.3-.4,4.6-.7,6.9-.1,1.3-.2,2.5-.2,3.8,0,1.4-.2,2.9-.2,4.3,0,1.6.4,3.2.4,4.7,0,1.6-.3,3.1-.4,4.7,0,.9,0,1.9,0,2.8-.1,3-.4,5.9-.4,8.9,0,1.5.5,3.1.6,4.6.2,2,.2,4.1.3,6.1,0,2,.2,3.9.2,5.9,0,1.1-.3,2.3-.4,3.4,0,1,0,1.9,0,2.9,0,1.6,0,3.2-.2,4.8-.1,1.7-.4,3.4-.4,5.1,0,1.3-.7,2.3-2.1,3-.5.2-.8.6-1.4.4-.1,0-.4.3-.6.5.9.9-.3.7-.5,1-.8.7-1.6,1.3-2.4,2-1.3,1-2.6,2-3.9,3-1,.8-1.9,1.8-3,2.2-2,.8-3.5,2.3-5.2,3.5-.6.5-1.4.9-1.4,1.9,0,.3-.6.5-1,.8-.9.7-1.7,1.5-2.7,2.2-.4.2-1,.2-1.3.6-.2.3-1,.3-.7,1.1,0,.1-1,.8-1.6,1.2-.2.2-.6.2-.8.4-2.1,2.3-5,3.6-7.3,5.7-.8.6-1.4,1.4-2.2,2.1-.7.7-1.5,1.3-2.3,1.9-.4.4-1.3.4-.9,1.4,0,.2-.7.7-1.2,1.1-1.4,1-2.8,1.8-4.1,2.8-.5.4-.7,1.2-1.2,1.6-1.7,1.4-3.5,2.8-5.3,4.1-1.4,1.1-2.7,2.1-4.1,3.2-1.2,1-2.5,1.9-3.6,2.9-1.5,1.4-2.8,2.8-4.3,4.2-1.3,1.3-2.5,2.6-3.8,3.8-1.1,1-2.4,1.8-3.6,2.7-.4.3-.6.7-.9,1.1-.8,1.3-2.7,1.8-3,3.7,0,.6-1,1.1-1.5,1.6-1.6,1.5-3.2,2.9-4.7,4.4-1.1,1-2,2.1-3.1,3.1-1.7,1.5-3.4,2.9-5.1,4.4-.5.4-1,.4-1.2-.3,0-.2-.3-.3-.5-.5-.1.3-.4.8-.3.8,1,.8,0,1.1-.4,1.5-.3.3-.7.5-1.1.7-.4.3-.7.5-.8-.2,0-.3-.2-.6-.6-.2-.9.9-1.9,1.8-2.9,2.7,0,0-.1.2-.1.3.4,1.7-1.3,2-2,2.9-.2.2-.6.3-.9.4-.6.2-1.2.5-1.8.7-.1,0-.2.2-.3.4.2,0,.4,0,.6,0,.3-.2.7-.4,1-.6-.3.3-.5.7-.8.9-2.6,1.2-4.4,3.4-6.5,5.2-.9.7-1.8,1.3-2.7,2-.4.3-.8.7-1.2,1-.9.8-1.7,1.5-2.5,2.4-1.1,0-1.6.6-1.6,1.6,0,.2-.2.4-.4.5-2.1,1.6-4.3,3.2-6.4,4.8-1.8,1.3-3.6,2.6-5.3,4-1.1.9-2.2,1.9-3.3,2.8-1.4,1.1-2.8,2.2-4.2,3.1-1,.6-2.1.9-3.3,1.2-1.6.4-3.3.5-5,1-3.2.9-6.4,1.8-9.6,2.7-1.6.5-3.2,1.2-4.9,1.5-1.6.3-3.1.8-4.6,1.3-.2,0-.4,0-.6,0-.2,0-.4,0-.6,0-1.6.7-3.3,1.2-5.1,1.2-1.7,0-3.1.6-4.5,1.5-.6.4-1.3.5-1.9.8-.6.3-1.2.8-1.7,1.2-.4.4-.5.7-1.1.3-.9-.7-1.3-1.3-1-2.5.3-1.4,0-2.9,0-4.4,0-1.5.1-2.9.2-4.4,0-1,.2-1.9.2-2.9,0-1.2,0-2.3,0-3.5,0-1.3,0-2.5,0-3.8,0-1.4.1-2.9.2-4.3,0-1,.2-2.1.2-3.1,0-1.1-.2-2.1-.2-3.2,0-2.4,0-4.9,0-7.3,0-2.3-.2-4.5-.2-6.8,0-1.7.2-3.5.2-5.2,0-1.8,0-3.6,0-5.4,0-1.5-.2-3.1-.2-4.6,0-.6.2-1.1.3-1.7,0-.5.2-1.1,0-1.5-.5-.9-.2-1.7,0-2.5,0-.2,0-.4,0-.6-.3,0-.6,0-.8,0-.3.2-.4.5-.6.7-.5.8-1.2,1.4-2.2,1.7-.3,0-.4.7-.7,1-1.3,1.6-2.6,3.2-4,4.7-1.9,2.1-3.9,4.1-5.8,6.1-.9.9-1.9,1.6-2.7,2.4-2,2-3.8,4.1-5.8,6.1-1.3,1.3-2.9,2.3-4.2,3.6-.9.9-1.5,2.1-2.4,3-1,1.1-2.1,2-3.2,3-.7.7-1.4,1.5-2,2.2-1.5,1.7-3,3.4-4.6,5.1-1.1,1.2-2.4,2.2-3.6,3.3-1.5,1.4-2.9,2.7-4.3,4.2-1.4,1.4-2.5,3.1-3.9,4.5-1.1,1.3-2.7,2.2-3.5,3.7-.9,1.7-2.3,2.9-3.4,4.5-1.3,1.8-2.9,3.5-4.4,5.2-1.1,1.2-2.3,2.3-3.5,3.5-.1.1-.3.2-.4.2,0-.2,0-.5.1-.6.8-.9,1.6-1.7,2.3-2.5.1-.1,0-.3.1-.5-.2,0-.4,0-.5.2-.7.8-1.3,1.6-2,2.4-.5.5-1.1,1-1.7,1.5-.7.7-1.5,1.3-2.1,2.1-.8,1-1.4,2.2-2.5,3.1-1.3,1.1-2.3,2.6-3.5,3.8-1.9,2-3.8,4-5.6,6-.5.6-.9,1.3-1.5,1.9-.5.5-1.1,1-1.6,1.5-.2.2-.4.5-.6.8-1.2,1.2-2.7,1.7-4.4,1.4-.4,0-.8,0-1.1,0-2.2-.1-4.3-.3-6.5-.3-1.6,0-3.1.2-4.7,0-1.5,0-3-.3-4.4-.5-2-.2-4.1-.5-6.2-.6-2.8,0-5.6-.6-8.4-1.1-1.6-.3-3.2-.4-4.8-.5-1.8,0-3.5,0-5.3,0-.9,0-1.9-.1-2.8-.2-1,0-2-.1-3.1-.1-1.3,0-2.6-.3-3.8,0-1.6.4-3-.1-4.5-.3-1.1-.1-2.2-.3-3.3-.4-.6,0-1.2,0-1.7.2-.8.4-1,0-1-.7,0-1.5.2-2.9.2-4.4,0-.3-.2-.6-.2-.8,0-1.1,0-2.2,0-3.3,0-1.2,0-2.3,0-3.5,0-1,.1-2,.2-2.9.2-2.4-.1-4.8.1-7.2.2-2-.4-4.1-.4-6.2,0-1.1-.7-2.3,0-3.4.2-.4,0-1,0-1.5-.1-1.2-.4-2.4-.4-3.7-.1-2.9-.2-5.8-.2-8.7,0-2.1,0-4.2,0-6.3,0-1.2.2-2.4.2-3.7,0-.7-.2-1.4-.2-2.1,0-1.9.2-3.7.2-5.6,0-2.8,0-5.6,0-8.4,0-2.6.1-5.3.2-7.9,0-1.2.2-2.4.2-3.6,0-1.4,0-2.8,0-4.3.1-2.5.3-5,.4-7.6,0-.8-.1-1.6-.1-2.3,0-1.6-.1-3.1,0-4.7,0-2.9.2-5.7.2-8.6,0-.5-.2-1-.2-1.5,0-2.2,0-4.5-.3-6.7-.1-2-.5-4-.7-6-.2-2.2,0-4.4-.3-6.6,0-1.1-.2-2.1.3-3.1.1-.2-.4-1.2-.6-1.5-.1-.2,0-.4-.1-.6-.2-2.3-.3-4.6-.6-6.9-.2-1.7-.6-3.4-.5-5.1.2-2.4-.5-4.8-.2-7.2.3-2-.3-4.2-.4-6.3,0-1.9,0-3.8.1-5.6,0-1.2,0-2.3,0-3.5,0-.9.1-1.7.2-2.6.1-1.5.4-3,.4-4.5,0-1.4,0-2.9,0-4.3,0-.8.1-1.7.2-2.5,0,0,.5,0,.6,0,.4.4.6.6.6-.2,0-1.5.3-3,.3-4.5,0-.5-.5-1.1-.7-1.6-.1-.3-.2-.6-.2-.8,1.3-.2.7-1.6.6-1.8-.7-1.3,0-2.6,0-3.8-.2-1.7.2-3.4.1-5.2,0-2.2-.4-4.3-.4-6.5,0-1.8-.5-3.5-.9-5.2-.3-1.5-.3-3.1-.6-4.7-.4-1.9-1-3.9-1.3-5.8-.4-1.9-.6-3.9-.9-5.9-.2-1.1-.3-2.1-.5-3.2-.2-2.1-.5-4.3-.7-6.4-.2-1.7-.3-3.4-.3-5.1,0-.8,0-1.7,0-2.5,0-1.1,0-2.2,0-3.3,0-1.3.2-2.5.1-3.8-.1-1.1-.4-2.4-1-3.3-.7-1-.8-2-.7-3.1,0-1.6.4-3.1.7-4.7.2-1.1.5-2.3.6-3.4,0-1-.4-2-.3-3,.1-1.6.1-3.3,1.1-4.8.3-.5.7-1.3.1-2.1-.2-.3-.1-1.1.1-1.4.8-1,1.8-1.8,2.7-2.7.7-.7,1.4-1.5,2.2-2,.5-.4,1.3-.5,2-.7.9-.2,1.9-.2,2.9-.3,0,0,.1,0,.2,0-.2-.2-.3-.5-.5-.5-.6,0-1.2,0-1.8,0-.2,0-.4,0-.6.1-.1,0-.3,0-.4,0,.1,0,.2-.1.3-.2,1.9-1.8,3.8-3.7,5.7-5.5,1.6-1.5,3.2-3,4.7-4.6.9-.9,1.7-2,2.6-2.9,1.4-1.5,2.9-2.9,4.3-4.3.9-1,1.8-2,2.8-2.9.9-.9,1.9-1.8,2.8-2.7,1.5-1.5,2.9-3.1,4.3-4.7.8-.9,1.6-1.7,2.5-2.5,1.4-1.4,2.8-2.8,4.2-4.2,1.4-1.4,2.9-2.9,4.3-4.3,2.5-2.5,5.1-5,7.6-7.6,1.4-1.4,2.8-2.9,4.2-4.3,1.1-1.1,2.3-2.1,3.4-3.1,1-.9,1.9-1.8,2.9-2.7.2-.2.5-.3.8-.3,2.1,0,4.3,0,6.4,0,1.1,0,2.2-.3,3.3-.5,1.8-.2,3.6-.5,5.4-.6,1.6-.1,3.1-.4,4.6-1,1-.4,2.4,0,3.6,0,1.3,0,2.6,0,3.9,0,1.4,0,2.8.2,4.2.2,1.7,0,3.5,0,5.2,0,1,0,2.1.3,3.1.3.9,0,1.9.1,2.8,0,1,0,2.1-.2,3.1-.2,2,0,4-.2,5.9-.2.5,0,.8.2,1.3.5,2.6,2.3,4.3,5.5,6.4,8.2,1.4,1.8,2.2,4,3.2,6,.4.7.9,1.4,1,2.1.2,1.2,1.2,1.7,1.7,2.7.5,1,.9,2.1,1.4,3.1.1.3.1.6.3.8.4.4.8.8,0,1.1,0,0,0,.4,0,.6.2,0,.6,0,.6,0,.4-.8.3-.3.4.1.3.9.7,1.7,1.1,2.6-.1,0-.2-.2-.2-.3,0,0-.2.2-.2.2.1.2.2.4.4.6,0-.1,0-.3,0-.4M337.1,201.3c-.1,0-.3,0-.4.2-.2.1-.3.2-.4.4.2,0,.5.1.7,0,.1,0,.2-.4.4-.6.2-.1.4-.3.6-.4,0,0,0-.2-.1-.2-.2.2-.3.3-.5.5,0,0,0,.1-.2.2M126.7,59.1c-.3-1.3-1.6-1.3-2.4-1.9,0,0-.2,0-.3,0,0,.2,0,.4.2.5.8.5,1.7,1,2.5,1.6,0,1.3,1,1.7,2.3,1,.2,0,.3-.2.4-.3-.2,0-.3,0-.5-.1-.8-.2-1.5-.5-2.3-.8M97.3,99c0-.5-.3-1,0-1.4.4-.7,0-1.7.9-2.3,1.2-.9,2.1-2.1,3.1-3.2.6-.7,1.4-1.3,2.3-1.1.4,0,.8.6,1.2,1,.2.2.5.3.8.4,1.5.2,1.9.6,2.3,2.1,0,.1.3.3.4.2,1.1-.6,1.8.1,2.5.7,1.3,1,3.4,1.2,4.8.4.2-.1.2-.5.3-.8-.5,0-1.2-.3-1.6,0-1.2.4-2.1.3-3-.6-.2-.2-.5-.5-.8-.5-1,0-1.5-.7-2.1-1.3-.2-.1-.3-.3-.5-.5-1-.7-2-1.4-3-2.1-.2-.2-.4-.6-.5-.5-1,.3-2,.6-2.9,1.1-.7.4-1.2,1.1-1.7,1.7-1.1,1.2-2.2,2.4-3.2,3.6-.1.1-.2.3-.2.5,0,1.7-.8,2.9-2.1,3.9-.4.3-.7.9-1,1.4-.1.2,0,.5,0,.7.2-.1.4-.2.5-.3.4-.4.7-.8,1.2,0,0,0,.5-.2.7-.3-.6-.9.3-.8.7-1.2.4-.4.8-.9,1.3-1.4.3,0,.6,0,.9,0,.2,0,.3,0,.5,0,0-.2,0-.5,0-.7,0-.2-.3-.3-.5-.4-.3.4-.7.8-1.1,1.1M110.9,223.2c.2.2.4.4.7.7.1.2.3.3.4.5-.2,0-.4.1-.6.1-.5,0-1.1,0-1.5.3-.6.3-.8.6-.9-.3,0-.2-.4-.9-1-.4,0,0-.5-.2-.8-.3.2-.1.4-.2.6-.4.4-.4.8-.8,1.2-1.2,0,0-.1-.4-.2-.5-.1,0-.3,0-.3.2-.6.8-1.2.4-1.9.1-.5-.2-1.1-.2-1.7-.2-.4,0-.9,0-1.3.1-.1,0-.3.2-.4.3.5-.1.7,1,1.3.2.5-.7,1-.3,1.2,0,.3.6.3,1.3.4,2,.1.6.2,1.6.6,1.8,1.1.7,1.3,1.7,1.5,2.9.3,1.6,1.4,2.5,2.9,2.3.2,0,.4,0,.6-.1,0,.2,0,.5-.1.6-.5.4-.2.6,0,1,.8.9,1.8,1,2.9,1.1,1,0,1.7-.3,1.8-1.3,0-1.2.4-1.6,1.4-2.1,0,0,.2-.3.1-.3-.6-.8-1.3-.7-1.8.2-.2.3-.5.4-.7.6-.1-.2-.4-.4-.4-.6-.2-1.2-1.1-.9-1.9-.9-.5,0-1,.2-1.5.4-.8.4-1.6.5-2-.5-.5-1.3-.4-1.4,1-1.9,1.1-.3,2.1-.4,2.9.6.1.2.4.3.6.5.1-.3.2-.5.3-.8.2-.4.4-.8.6-1.2.3.4.6.7.8,1.2.2.7,2.5,1.6,3,1,.6-.7.9-1.5,1.4-2.2.3-.5.7-1.2,1.1-1.3.6-.1,1.3.2,1.9.4,0,0,0,.5,0,.5-.6.2-.6,1.5-1.6.8,0,0-.6.4-.9.7,0,0,.1.3.3.4.5.3.4.2.1.7-.4.7-.9.6-1.5.5-.6-.1-.8,0-.4.6.2.2.3.4.5.5.7.6.7,1.4,0,1.9-.5.4-1,.8-1.4,1.2,0,0-.1.2-.2.2.2,0,.4.1.5,0,.8-.5,1.7-.2,2.6-.2.2,0,.4,0,.6,0,1.1-.3,2.1-.7,3.2-1.1.5-.2.9-.6,1.5-.7,2-.4,3.6-1.5,5.1-2.6,1.7-1.3,3.4-2.6,5-3.9.4-.4.6-1,1-1.4.5-.7.6-1.6,1.6-2,.5-.2,1-.7,1.3-1.2.4-.6.6-1.3,1-1.9,1.1-1.4,2.3-2.7,3.3-4.1.3-.5.5-1.5.3-1.8-.4-.4-1.2-1.1-1.9-.2,0,.1-.4.2-.4.2-.1-.2-.3-.4-.3-.7,0-.4,0-.9,0-1.3,0-.8-.5-1.1-1.3-.8-.8.3-1.4,0-1.9-.6-.2-.2-.1-.6-.2-.9.3,0,.6.2.9.3.3.1.6.4.9.5.2,0,.4-.2.7-.3-.2-.3-.4-.7-.6-1-.2-.3-.4-.6-.5-.9.2-.1.4-.3.6-.3.3.1.6.3.8.6.2.3,0,.8.3,1,.3.3.5,1.3,1.2.7.6-.6,1.1-1.4,1.5-2.1,0-.2-.1-.5-.2-.7-.2,0-.4.2-.6.3-.2.2-.4.4-.7.6,0-.3.2-.6.3-.9,0-.1.2-.2.2-.4.4-.8,1.1-1.1,1.9-1.1.2,0,.4.2.6.4-.1.1-.3.3-.4.4-.2.2-.5.3-.5.5,0,.6.2,1.1.2,1.7,0,.6-.3,1.2-.6,1.7-.2.3-.6.5-.9.7.4,0,.8,0,1.3,0,0,0,0,0,0,0,.4,0,.7.1,1.1.2-.2.3-.4.7-.6,1-.2.2-.4.5-.5.7,0,0,.3.4.4.3.3-.1.6-.3.7-.5.5-1,1-2,1.5-2.9,1.4-2.6,2.8-5.2,3.5-8.1,0-.3-.2-.9,0-1.1.7-.7.4-1.2-.2-1.6-.9-.7-1.8-1.3-2.7-1.9-.6-.4-1.2-.7-1.8-.8-.5,0-.9.6-1.4-.1-.6-.8-1.2-.6-1.7.2,0,.2-.3.4-.4.4-1,0-1.3.6-1.6,1.6-.4,1.4-1.3,2.7-2,4.1-.7,1.6-1.3,3.3-2.2,4.7-1.4,2.3-2.7,4.7-4.5,6.8-1.5,1.9-2.8,4-4.5,5.7-2.2,2.2-4.5,4.3-7.3,5.8-.6.3-1.2.7-1.9.7-.9,0-1.7.1-2.5.6-.3.2-.7,0-1,.1,0-.3,0-.6.1-.8.6-1.2,1.3-2.3.9-3.7,0-.1,0-.3,0-.5.5-1.5,1.1-3,1.5-4.6.5-1.6.9-3.3,1.3-5,0-.3,0-.7.1-1,.4-1.2.9-2.3,1.4-3.5.8-2.1,1.7-4.3,2.5-6.4.3-.7.6-1.3.9-2,0-.2-.1-.6-.2-.9-.2.1-.5.3-.6.5-.3.4-.6.9-.7,1.3-.3,1.2-.9,1.6-2.1,1.4-.2,0-.5,0-.7,0-.8.2-1.4-.1-1.8-.8-.1-.2-.2-.4-.2-.6.2,0,.5-.1.7,0,.7,0,1.5,0,2.2.3.8.2,1,0,1-.8,0-.8.3-1.4,1.1-1.8.5-.2,1.1-.5,1.5-.9.4-.5.6-1.1.8-1.7.6-1.4,1.1-2.9,1.7-4.4.4-1.1.7-2.2,1.1-3.2.5-1.4,1.1-2.8,1.6-4.2.8-2.3,1.5-4.7,2.4-7,.8-2.1,1.9-4.1,2.9-6.2.5-1,.9-2,1.3-3,.6-1.5,1.2-3,1.7-4.5.3-.7.5-1.5.8-2.2.7-1.6,1.5-3.2,2.3-4.8.4-.8.6-1.6,1-2.3.9-1.8,2-3.5,2.9-5.2,1-1.8,1.8-3.8,2.8-5.6,1.1-2,1.7-4.3,3.2-6.2,1.3-1.5,2.4-3.2,3.5-4.9.5-.8,1-1.9.8-2.6-.4-1.4-.6-3.2-2.6-3.7-.4,0-.7-.3-1-.6-1.1-.9-3.3-1.2-4.6-.5-.8.4-1.5.8-2,1.5-.5.7-1.3,1.2-2,1.8-1.8,1.7-2.1,4.2-3.4,6.1-1.5,2.3-2.6,4.9-3.9,7.4-.9,1.8-2,3.5-2.8,5.4-1.5,3.2-3,6.5-4.5,9.8-.6,1.4-1.4,2.7-2,4.1-.8,1.9-1.3,4-2.1,5.9-.6,1.5-1.5,2.9-2.2,4.4-.8,1.7-1.4,3.5-2.1,5.2-.4.9-.8,1.8-1.1,2.6-.4,1-.7,2-1,3-.3.9-.4,1.8-.7,2.7-.2.6-.7,1.1-.9,1.7-.5,1.5-1,3.1-1.5,4.7-.4,1.2-1.1,2.3-1.2,3.5-.2,2.3-.9,4.4-1.7,6.5-.8,2.3-1.6,4.6-2.4,6.8-.1.4.2,1.1,0,1.4-.8,1-1.8,1.9-2.8,2.8-.5.5-1.4,1-1.5,1.6-.2,1.1-.7,1.6-1.7,2.2-1.6.9-3.7.5-4.5-1.2-.2-.5-1-.8-1.6-1.1-.2,0-.5.3-.8.3-.5,0-1.1,0-1.6,0,0,0-.1-.4-.1-.7,0,0,.2-.2.3-.2.4,0,.9,0,1.3,0-.2-.4-.4-.9-.6-1.3-.1-.2-.3-.4-.4-.6-1.4-2.4-1.6-2,.1-4.5.4-.6.2-.7-.3-1.1-.4-.2-.5-.9-.8-1.3.4,0,.8,0,1.1.2.7.4,1.1.1,1.4-.4.3-.7.5-1.5.7-2.2.4-1.5.2-2.1-1-2.7-.7-.4-1.5-.7-2.2-1.1-.7-.4-1.3-.9-2-1.3-.6-.3-1.5-.6-1.8-.3-1,.8-1.8,1.8-2.7,2.8-.4.4-.5,1.1-.9,1.4-1.1.8-2.1,2.1-3.9,1.2-.4-.2-.9,0-1.4,0,.3.2.7.3,1,.6.2.1.2.4.3.6-.2,0-.4,0-.7,0-.2,0-.5,0-.7,0,0,.3,0,.8.3.9.3.3.8.4,1.3.5.1,0,.5-.3.5-.4,0-1.1.9-1.4,1.5-1.5.5,0,1.6-.2,1.7.9,0,0,.4.2.7.2,1,0,2,0,3,0,1.2,0,2.4,1,2.5,2.2,0,.1-.4.4-.4.3-.4-.2-.9-.4-1-.7-.3-1.1-1.1-.9-1.9-.8-1.4,0-2.9.3-4.3-.4-.2-.1-.9.2-1,.4-.5,1.2-1.3,1.3-2.4,1,0,0-.2,0-.3.1.3.5.5,1.1.9,1.6.6.8,1.2,1.5,1.8,2.3,0,.1.2.2.4.2,0,0,.2-.2.2-.2-.3-.6-.6-1.3-1.1-1.8-.2-.3-.7-.6-1-.8.1-.1.2-.3.3-.3.5,0,.9,0,1.4.2.1,0,.2.3.4.4.8.9.9,1.9,1.1,3,.4,1.8.6,3.7,1.9,5.2,1.3,1.5,2.5,3.1,4,4.4,1.2,1,2.6,1.7,4,2.6.3.2.6.7.8.6,1.1-.3,2.5.2,3.4-.9.5-.6,1-1.2,1.4-1.9.2-.4.1-1,.2-1.5-.4.2-.8-.3-1.4.1-.7.5-3.3-.4-3.3-1.2,0-1-.7-1.2-1.3-1.7-.1-.1-.2-.5-.2-.5.6-.7,1.4-.7,2,0,.2.2.3.6.4.9.3,1.2.7,1.6,1.9,1.4.9,0,1.7-.2,2.6-.2.2,0,.4,0,.5,0,.8-.5,1.5,0,2.2,0,.1,0,.2.2.4.3-.1,0-.3.2-.4.2-.5,0-1.1,0-1.6.3-.3,0-.5.4-.7.7.3,0,.5.2.8.2.6,0,1.2-.3,1.8-.4.3,0,.6,0,.9,0-.1.2-.3.4-.4.6-.1.2-.3.5-.3.7,0,.8-.4.7-.9.6-.2,0-.5-.2-.7-.1-.2,0-.4.2-.7.3.2.2.3.4.5.5,1.7.4,3.4,1.2,5.1.3.7-.4,2-.5,1.5-1.9,0,0,.2-.3.3-.3.8,0,.9-.3.6-.9,0-.1-.6,0-.9,0-.3,0-.5,0-.8.1.1-.3.2-.7.3-1,0-.1.5,0,.7,0,.2,0,.4-.2.6-.3-.3-.5-.5-1-.9-1.3-.1-.1-.7,0-.9.2-.5.5-.9,1.2-1.4,1.5-.5.3-1.1.3-1.7.5.2-.3.5-.7.7-1,.3-.4.7-.8,1.1-1.3-.5,0-1.1,0-1.6,0-.2,0-.4.1-.6.2-.3,0-.5.1-.8.2.1-.2.3-.5.4-.7,0-.1,0-.3.1-.4.2-.6.3-1.5.8-1.8.5-.3.9-1.5,1.9-.6,0,0,.5-.2.5-.3,0-1,.7-1.3,1.5-1.5.4,0,.8-.1.3-.7-.1-.1,0-.5,0-.7.2,0,.5,0,.6.1.4.5.8,1.1,1.2,1.7.2.3.4.6.6.9-.4.1-.8.2-1.2.3-.2,0-.4,0-.6,0,0,.2,0,.4,0,.6,0,.3,0,.5,0,.8-.3,0-.6,0-.9,0-1.2-.2-2.3-.2-3.4.2-.2,0-.3.3-.4.4.2,0,.4,0,.6,0,.7-.1,1.4,0,2.1.2.7.1,1.5,1.2,2.3,0,.2-.3,1.3-.3,1.5-.1.4.6-.2.9-.7,1.1,0,0,0,0,0,0-.1.2-.2.4-.4.6.3,0,.6.2.8.1.8-.6,1.4-.4,1.8.4,0,0,.3.1.5,0,1-.3,1.4.3,1.4,1.1,0,.5-.2,1.1-.2,1.6.1,1,0,1.2-1,.9-.5-.2-.9-.5-1.3-.8-1-1-1.3-1.1-1.9,0-.2.4,0,1.1,0,1.6.4,0,.8,0,1.2,0,.6,0,1.3,0,1.9.3.2,0,.4,1,.3,1-.4.2-1.1.6-1.5.4-1.6-.6-2.4.7-3.7,1.2-.3-.3-.5-.6-.8-.8-.2-.1-.5,0-.8,0,0,0,0,.3,0,.4.3.5,1.2.6,1.8.2M106.5,25.1c.7-1.3,1.3-2.5,2-3.8,1-2,2-4,3-6,.8-1.5,1.6-2.9,2.4-4.3.7-1.2,1.6-2.3,2.4-3.5.8-1.2,1.6-2.3,2.4-3.4.2-.2.3-.4.5-.7-.3,0-.7,0-.9.2-.3.3-.5.8-.8,1.2-.8,1-1.7,1.9-2.3,3-.8,1.5-2.1,2.2-3.5,2.7-2.4.9-5,1.6-7.4,2.5-2.2.8-4.3,1.9-6.5,2.7-2.9,1.1-5.8,2.2-8.5,3.9-1.6,1-3.2,1.9-4.7,2.9-1.5,1-2.8,2.1-4.2,3.1-1.2.9-2.6,1.7-3.7,2.6-1.5,1.3-2.8,2.9-4.5,4.1-1.7,1.2-3.2,2.6-4.7,4-.9.9-1.9,1.7-2.7,2.7-1.2,1.4-2.2,3.1-3.6,4.4-2,1.9-3.7,3.9-5.2,6.2-1,1.6-2,3.2-3,4.8-.8,1.3-1.4,2.6-1.8,4.1-.7,2.2-1.7,4.2-2.5,6.3-.1.4-.4.7-.4,1.1-.5,1.9-.9,3.8-1.3,5.7-.5,2-1,4-1.5,6-.5,1.9-1.1,3.8-1.6,5.7-.3,1.2-.6,2.4-.9,3.6-.2,1-.5,2-.7,3.1,0,.2-.2.4-.3.6-.2-.1-.4-.3-.5-.4-.9-1.9-2.4-3.3-4.1-4.5-1.7-1.2-3.3-2.6-5.4-3.2-1.6-.4-3-1.1-4.6-1.6-1-.3-2-.3-3.1-.4-1.1,0-2.1,0-3.2,0-1,0-2,.2-3,.6-1.5.5-3.1,1.1-4.4,2-.8.6-1.3,1.7-1.8,2.6-.7,1.5-1.4,3.1-1.8,4.7-.4,1.4-.2,2.8-.5,4.2-.4,1.7,0,3.3.3,5,.3,1.4.7,2.9,1,4.3.2.9,0,1.8.2,2.7.1.6.5,1.2.6,1.8.4,3.6,2.3,6.6,3.7,9.8,1.5,3.4,4.9,5.2,7.7,7.4,1.4,1.1,3,1.9,4.3,3.2,1.5,1.5,2.7,3.2,3.9,4.9.9,1.3,1.7,2.7,2.3,4.1.7,1.6,1.6,3.1,1.2,5-.3,1.4-.2,2.8-.3,4.2,0,1-.3,2-.4,3.1,0,.1.4.3.5.5.2.2.5.4.5.6,0,.3-.2.6-.4.9-.1-.1-.3-.3-.4-.4-.1,0-.3-.1-.4-.2,0,0-.1.2-.1.3,0,.8-.1,1.5-.2,2.3-.3,2.5-.2,2.4.6,3.3.6.6,1,.1,1.4,0,.2,0,.5-.7.4-.8-.3-.3-.7-.6-1.2-.7-.7-.2-.6-.1-.5-.8.3-1.8,1.8-3.1,1.5-5.1,0,0,.2-.3.4-.4.5-.1,1.1-.2,1.7-.2.5,0,1.1.2,1.4-.5.3-.6.9-.8,1.5-.6.4.1.9.2,1.3.4.2,0,.3.5.3.6-.4.3-.8.6-1.2.8-.1,0-.5,0-.5,0-.2-1.3-.5-.8-.9,0-.1.2-.5.3-.7.5-.3.3-.7.7-.7,1.1,0,.8.3,1.6.4,2.4,0,.2-.2.5-.2.7-.1-.2-.3-.4-.4-.5,0-.2-.2-.3-.2-.5,0,.1-.2.2-.3.4-.8.9.8,1.1.5,1.8.1,0,.3.1.4,0,.4-.3.9-.6,1.2-1.1.2-.3.2-.9,0-1.3-.4-.8.4-1.1.5-1.7.2.1.6.2.6.4,0,.5-.3,1.1-.2,1.6.3,1.2-.4,1.8-1.1,2.6-.8.9-2,.7-2.9,1.5-1.2,1-2.4,1.7-2.9,3.2,0,.1-.2.2-.3.3-.1-.1-.3-.3-.3-.4,0-.3.2-.6.2-.8,0-.6,0-1.2,0-1.8,0-.1-.2-.3-.3-.4,0,.1-.2.3-.2.4-.1,2-.2,4-.3,6,0,.4,0,.9,0,1.3-.2,1.5-.5,3-.7,4.6-.2,1.8-.2,3.5-.3,5.3,0,1.2-.2,2.3-.2,3.5,0,.5,0,1.1,0,1.6,0,1.1.4,2.3.1,3.3-.4,1.6-.8,3.2-.6,4.8.1,1.4.2,2.9.3,4.3,0,.6,0,1.2,0,1.7,0,.9-.2,1.8-.1,2.7,0,1.2.4,2.3.6,3.5,0,.5-.1,1.1-.2,1.7-.1,1.5-.2,3-.3,4.6,0,.7,0,1.3,0,2-.6,2.2-.6,4.5-.5,6.8.2,2.6,0,5.1,0,7.7,0,1.2-.2,2.4-.2,3.5,0,1.7.2,3.5.2,5.2,0,.8-.2,1.7-.2,2.5,0,1.3.3,2.7.2,4-.3,1.8.4,3.4.8,5.1.4,1.6,1.1,3.2,1.5,4.8,0,.3.1,1.2-.8,1-.8-.1-1.6-.4-2.4-.6-.6-.2-1.2-.4-1.8-.4-.7,0-1.4,0-2.1,0-1.1-.1-2.2-.4-3.3-.5-2.2-.2-4.4-.3-6.6-.5-.7,0-1.7-.5-2.1-.1-.7.5-1.2.4-1.9.2-1.2-.3-1.4,0-1.8,1.3-.3,1.2.6,2.8-1.2,3.6,0,0,0,.3,0,.5.2,0,.4,0,.5,0,1-.7,1.6-1.6,1.7-2.8,0-.3.4-.9.6-.9.4,0,.8.2.5.9-.5,1.6-.8,3.3-1.3,4.9-.2.7-.1,1.6-1.3,1.2,0,0-.3.2-.2.4,0,.1.2.3.3.3.4,0,.7,0,1.1,0,1.8-.6,3.5.2,5.3.5,2,.3,3.9.6,5.9.7,1.5.1,2.9.4,4.2,1.3.3.2.7.3,1.1.3.1,0,.3,0,.4,0,0-.1-.2-.2-.2-.3-.3-.5-.7-.9-.9-1.4,0-.2.3-.6.4-.9.2.2.4.4.5.6.5,1.1,1.6,1.7,2.9,1.5.3,0,.7,0,1.1.1,1,.2,2,.4,3,.5.9,0,1.8.4,2,1.2.2.9.3,2-.1,2.7-.5.9-1.6,1.3-2.8.9-.2,0-.6-.2-.7-.1-1.5.9-3.1,0-4.6.3-1.5.3-3,.1-4.5.2-1.6,0-3.2.2-4.8.3-.6,0-1.3,0-1.6.2-.4.4-.3,1.2-.7,1.6-.5.7-.3,1.2-.2,1.9.1.6.2,1.1.2,1.7,0,1.2,0,2.5.1,3.7,0,.2.2.4.4.4.9,0,1.8,0,2.7-.1.9,0,1.9-.3,2.8-.3.5,0,1.1.3,1.6.2,1.3-.2,2.6-.3,3.9-.3,3.1,0,6.1-.2,9.2-.4.7,0,1.6-.4,1.9,0,.8.7,1.5,1.6,1.9,2.5.5,1.2.6,2.5,1,3.7.3.8.9,1.5,1.3,2.2.8,1.3,1.5,2.7,2.3,4,1,1.6,1,1.6-.7,2.2-.5.2-1.1.4-1.6.6-1.1.4-2.1,1-3.2,1.3-2.5.7-4.3,3.5-3.7,5.9.2,1,.4,1.9.5,2.9,0,1.1,1,1.8,2.1,1.5,2.2-.7,4.4-1.5,6.6-2.3,1.5-.5,3.1-1.1,4.6-1.6.5-.2,1.3,0,1.7-.2,1-.7,1.3-.2,1.8.6.6.9,1.9,1.3,2.1,2.6,0,0,.3,0,.4,0,.5,0,1,.1,1.5.2.4.1,1,.3,1,.6,0,.8.2,1.2,1.1.8.1,0,.3.1.5.2.6.3,1.2.7,1.8.9.5,0,1.1-.2,1.6-.4.2,0,.3-.4.5-.6.1.4.3.8.3,1.2,0,.7-.2,1.7,1.1,1.6.4,0,.8.1,1.2.2.3,0,.5.3.7.4-.3,0-.7.1-1,.2-.8.2-1.7-1.1-2.4.2-.3-.2-.5-.4-.8-.7-.2-.3-.3-.7-.6-.9-.4-.3-.8-.5-1.3-.6-.4,0-.9,0-1.4,0,.2.3.5.6.7.9.2.2.4.4.7.6,1.4,1,2.6,2,4.6,1.4.6-.2,1.4,0,2.1.2.2,0,.3.2.5.3-.2,0-.3.1-.5.2-1.1.4-2.3.7-3.2,1.6-.3.3-.9.5-1.3-.2-.4-.6-1-1.3-1.5-1.3-1.1-.2-1.6-.4-1.6-1.6,0-.3-.4-.6-.7-1-.2-.2-.6-.4-.6-.7,0-1.7-1.6-1.6-2.6-2.1-.1,0-.3,0-.5.2,0,.1.2.3.3.4,1.7,1.1,2.8,2.7,3.5,4.7,0,.2.3.4.5.5.8.6,1.7,1.2,2.4,1.9.8.8,2,1,2.8,1.8.2.2.8,0,1.3,0,.5,0,1.1-.1,1.5,0,1.1.4,2.1,1.3,3.2,1.3,1.6,0,1.8,1.1,2.5,2.1.3.5.8.8,1.3,1.1.1.1.3.2.5.2-.1.1-.3.3-.4.3-.6,0-1.1-.2-1.7-.4-.6-.2-1.2-.4-1.9-.5-.2,0-.4.2-.6.3.1.1.3.3.4.4.6.3,1.4.4,1.8.9,1.3,1.4,3.3,1.2,4.8,1.9.4.2.9.5,1.3.7,1.1.4,2-.4,2.8-.8.8-.4-.4-.2-.3-.6-.8-.2-1.5-.4-2.3-.7-.2,0-.4-.2-.6-.3.3-.1.7-.4.9-.4,1.3.2,2.5.6,3.8.9.1,0,.2.3.4.4-.1,0-.2.2-.4.3-.2.1-.4.2-.5.3-.1,0-.3.2-.4.2.2.1.4.3.6.3.7.3,1.1-.1,1.5-.7.7-.9,1.1-2.1,2.6-2.1.5,0,1-.8,1.5-1.3,0-.1,0-.6-.1-.6-2-.9-3.9-1.9-5.9-2.5-1.8-.6-3.4-1.6-4.9-2.6-.9-.6-1.7-1.6-2.6-2.2-2.2-1.6-4.4-3-6.5-4.6-2.7-2-5.1-4.3-6.6-7.4-.2-.4-.3-.8-.6-1.1-.9-.8,0-1.1.4-1.3.5-.3,1.1-.3,1.6-.3,2-.2,4-.4,6-.7.6,0,1.2-.4,1.8-.6.7-.2,1.3-.5,2-.7,1.6-.5,3.3-.6,4.5-2,.5-.7,1.3-1.2,1.8-1.9.2-.3.2-.8.3-1.2,0,0-.1-.2-.2-.2-.3.3-.5.6-.8.9,0,0,0,0,0,.1-.2.2-.4.3-.6.5,0-.3-.3-.6-.2-.8.3-.5.2-1.4,1.1-1.6.2,0,.5-.4.4-.4-.4-.8-.7-1.7-1.3-2.3-.2-.2-1.1.2-1.7.4,0,0-.1,0-.2,0-1.9-.2-3.8-.3-5.7,0-2.6.5-5.2.9-7.7,1.4-1.7.3-3.4.8-5.2,1.1-1.4.3-2.4,0-2.8-.9-.8-1.7-1.6-3.4-2.4-5-.7-1.4-1.5-2.8-2.3-4.2,0-.1-.1-.4,0-.4.2-.1.4-.3.6-.3.5,0,1,.2,1.6.2,2.1,0,4.1-.3,6.2-.2,2.2,0,4.4.6,6.5-.4.1,0,.4,0,.5.1.8.3,1.7.5,2.4-.3.1-.1.5-.1.7-.1,1.2-.1,2.6.1,3.6-.4,1.1-.6,2.1-1.7,2.8-2.7.9-1.3-.7-4.1-2.3-4.6-3.1-.9-6.3-.5-9.4-.9-.9,0-1.8.2-2.7.2-1.9,0-3.9-.4-5.8-.4-2,0-4,.3-6,.4-.5,0-1.1,0-1.6,0-2-.6-2.1-1-1.5-3,.2-.7.5-.9,1-1.2.7-.4,1.2-1.1,1.7-1.7.4-.5.9-.3,1.4-.2-.2.3-.3.6-.4.9,0,.2,0,.4-.1.6.2,0,.4,0,.6,0,1.2-.3,1.8-1.3,2.6-2.1.9-.8,1.3-1.5.9-2.8-.3-1,.3-1.5,1.4-1.4,1.9.2,3.7.6,5.6.8,2.7.4,5.4,1.2,8.2,1,1.2,0,2.5.3,3.5-.7.8-.8,1.7-1.5,2.5-2.3.5-.5,1-1.2,1-1.9-.1-2.1-2-3.9-4-4.7-1.8-.7-3.7-.3-5.5-.8-1.1-.3-2.4,0-3.6,0-3.3-.4-6.6-.9-9.8-1.4-2-.3-4.1-.6-6.1-.9-1.5-.2-3-.4-4.4-.5-1.4,0-2.8-1-2.8-2.2,0-1.2-.3-2.3-.7-3.4-.3-.7-.7-1.4-.6-2.1.1-1.4.6-2.8.9-4.2.1-.5.2-1.1.2-1.6,0-1.2-.1-2.3-.1-3.5,0-1.1.1-2.2.1-3.4,0-.7,0-1.4,0-2.2,0-.5.2-.9.2-1.4,0-1.1-.1-2.3-.1-3.4,0-.9.4-1.9.1-2.7-.6-1.9.3-3.8,0-5.7-.1-1.4.2-2.7.2-4.1,0-2,0-3.9,0-5.9,0-1.3.2-2.5-.2-3.8-.2-.5-.4-1.3-.2-1.6.8-1.1,0-2.3.4-3.4,0-.2,0-.5,0-.8-.2.2-.4.4-.6.6-.4.3-.7.6-1.2.8-.1,0-.4-.1-.6-.2,0-.2.2-.4.3-.6.2-.3.5-.6.7-1,.2-.4.2-1.1.9-.5,0,0,.3-.1.3-.2,0-2.1.2-4.2.2-6.2,0-1.9.2-3.8.2-5.7,0-.2,0-.5,0-.7,0-1.6,0-3.2.1-4.8,0-.6.4-1.2.3-1.7-.5-1.6-.1-3.3,0-4.9,0-2,.6-4,.8-6,.1-1-.1-2.1.3-2.9.7-1.3,1.3-2.4,1.4-4,.1-1.9.7-3.8,1.1-5.7.2-1.4.4-2.9.5-4.3.1-1.8,0-3.6.3-5.4.2-1.3.3-2.6-.2-3.9-.2-.4-.1-1,.1-1.3,1.1-1.4,1.1-3.2,1.5-4.8.1-.4.4-.9.4-1.3.2-1.5,0-3.2.6-4.6.6-1.7,1.5-3.3,1.8-5.2.4-2.9,1.1-5.7,1.6-8.6.2-1.2.3-2.5.5-3.8.1-1,.3-2,.5-3,0-.2.1-.4.2-.6.5-.8.6-1.6.2-2.4-.3-.7-.3-1.4.2-2,.2-.3.5-.6.4-.9-.1-1.9,1.1-3.2,1.7-4.8.8-2,1.6-4,2-6.1.4-1.8.8-3.5,1.2-5.2.4-1.6,1-3.1,1.5-4.7.5-1.5,1-3,1.6-4.5.7-1.6,1.6-3.2,2.4-4.7.8-1.4,1.7-2.8,2.6-4.2.8-1.2,1.7-2.4,2.6-3.5,1.2-1.5,2.4-3,3.7-4.3,1.6-1.7,3.2-3.3,4.9-4.9,1.4-1.3,2.6-2.7,4.2-3.8,1.8-1.2,3.5-2.6,5.3-3.9,1.7-1.2,3.1-2.7,5-3.8,2.7-1.5,5.4-3,8.3-4.1,2.1-.8,4.2-1.7,6.6-2.5M149.2,255.1c.3-.1.6-.3.9-.4,1.7-.9,2.8-2.4,3.8-4,.4-.6.9-1.3,1-2,.2-.9.8-1.9-.2-2.6-.7-.6-1.5-.2-2.1.2-1.5,1.2-3.3,1.4-5,1.7-1.9.5-4,.4-6,.5-2.2.1-4.5.5-6.7.8-2.2.3-4.4.4-6.6.4-1.3,0-2.5.4-3.8,0-.5-.2-1.3.2-1.9.4-.2,0-.3.4-.4.6.2,0,.5,0,.7.1.4.1.8.3,1.3.5-.3,0-.7.1-1,.2-.2,0-.3.2-.5.2-.8.3-1.5,1.3-2.6.4,0,0-.2.2-.4.2-1.4.5-2.8,1-4.1,1.4-.2,0-.5,0-.8,0,.2-.2.3-.5.5-.6.8-.5,1.7-.7,2.3-1.4.4-.5.8-.7,1.3-1,.5-.3,1-.5,1.5-.8.2,0,.3-.2.5-.2-.2,0-.5-.3-.7-.2-2.8.5-4.9-1.5-7.3-2.2-2-.6-3.7-2.1-6-1.7-.2,0-.3,0-.5-.1-1.2-.3-2.4-.6-3.6-.8-.9-.2-2,0-2.8-.4-1.1-.6-2.1-.2-3.1.1-1.9.6-3.8,1.3-5.8,2.1-.2,0-.5.3-.6.5-.4.7-.6,1.5-.9,2.3-.3.5-.6,1-.9,1.6-.4.9-.6,1.8-1.2,2.6-.8,1.1-.6,2.3-.8,3.4-.2,1.1,0,2.3-.2,3.5-.1,1.5-.4,2.9-.6,4.4,0,1.3,0,2.6,0,3.9,0,1.3-.3,2.7-.2,4,0,1.3.2,2.7.7,3.9.5,1.4,1.3,2.8,2.2,4.1,1.2,1.6,2.5,3.2,4.6,3.9.6.2,1.1.3,1.7.1,1.3-.4,2.7.3,3,1.6.2.8.5.9,1.1.9,0-.5,0-.9-.1-1.4,0-.2-.1-.4-.2-.6.2,0,.5,0,.7-.2.3,0,.5-.2.8-.4-.2-.2-.4-.5-.6-.5-.6-.2-1.2-.3-1.8.3,0,.1-.5,0-.7,0,0,0,0-.5,0-.6.8-.3.3-.7.1-1.1-.3-.9,0-1.3,1-1.2.8,0,1.4-.1,1.5-1.2,0-.7-.4-1.4.2-2.1,0,0-.1-.2-.2-.4-.6-1-1-1.9,0-2.9.4-.5.2-1.1-.6-1.3-.2,0-.5,0-.7-.2-.3-.2-.4-.6-.7-.9.3,0,.6,0,.8,0,1.5.3,2.6-.8,2.3-2.3,0-.3.1-.7.2-1,.2.2.5.5.7.7.3.2.5,1.2,1,.4.7-1.1,1.8-1.4,2.8-1.9,1.9-1,3.6-2.3,5.4-3.4.6-.4,1.2-1,1.8-1,1.8-.1,3.6.1,5.4,0,.6,0,1.8.6,2-.8.1-.8.4-1.6.5-2.5,0,0-.2-.3-.2-.3-.2,0-.4,0-.4.2-.2.5-.3.9-.5,1.4-.1.3-.3.6-.4.9,0-.3-.3-.7-.2-1,.3-.9-.2-2.4,1.6-2.4.8,0,1.6-.4,2.5-.5,1.1-.1,2.2-.2,3.3-.2,1,0,1.9,0,2.8-.2.8-.2,1.6,0,2.4-.2,1.4-.3,2.8-1,4.3-1.2,2-.3,4,0,5.9-.3,2.4-.4,4.8-1.2,7.3-1.9M123.5,88.2c.2.2.5.4.6.5,0,2.5,1.9,4.1,2.9,6.1.6,1.2,1.5,2.2,1.9,3.5.6,1.9,1.6,3.7,1.5,5.8,0,.3.4.5.7.8,0-.3.2-.5.1-.8-.2-1.2-.4-2.4-.7-3.6,0-.2-.1-.4-.2-.6.2,0,.5,0,.7.1.2.1.3.4.4.6.2.8.5,1.6.6,2.4.3,1.3.8,2.5,1.5,3.5.2.3.7.6,1.2.7.1,0,.6-.4.6-.7,0-1.5,1.3-1.4,2-1.4,1.1,0,2,0,1.7-1.6,0-.2.3-.5.5-.8.1.2.2.4.4.6,0,.2.2.3.3.5,0-.2.2-.4.1-.6-.1-.6-.5-1.2.4-1.4,0,0,.1-.2.1-.4-.6-2.4-1-4.9-2-7.2-.9-2.3-2.3-4.4-3.6-6.4-1.4-2.1-2.9-4.2-4.5-6.1-.9-1.1-2.1-1.9-3.2-2.9-.7-.6-1.4-1.3-2.2-1.9-.4-.3-.9-.5-1.4-.7-1.5-.7-2.8-1.7-4.6-1.8-1.3,0-2.6-.7-4-.9-1.2-.3-2.5-.6-3.7-.6-1.2,0-2.4.4-3.6,0-.5-.2-1-.2-1.5-.2-1.5,0-2.6,1.3-4,1.6-.3,0-.6.2-.9.3,0-.2,0-.4-.2-.6,0-.2-.2-.3-.3-.5-.1.1-.3.3-.4.4-.5,1.1-1.5,1.7-2.5,1.8-1,0-1.8.4-2.4,1.2-.6.6-1.3,1-2,1.5-.5.4-1.1.7-1.6,1.2-.2.1-.3.6-.2.7.2.2.5.4.7.3.7-.2,1,.2,1.5.5.3.2.6.4.9.7.1.2.2.5.2.7-.2,0-.5,0-.7,0-.8-.5-1.6-.7-2.6-.3-.8.3-1.6,1.1-2.5.4-.5-.3-.6-.2-1,.3-1.1,1.5-2.4,3-3.7,4.4-.8.9-1.7,1.8-2.5,2.7-2,2.1-4,4.2-6,6.3-.7.7-1.2,2.4-.5,3,.8.7,1,1.6,1.2,2.5.2.9.3,1.8.5,2.7,0,.3.2.6.4.9,0,0,.4-.2.5-.2.3,0,.6-.1.9,0,.9.1,1.6.3,2.3-.6.7-.9,1.7-1.9,2.8-2,1.2-.2,1.7-1,2.5-1.5.8-.5,1.5-1.1,2.2-1.6.2-.2.5-.3.7-.5,1.7-1.9,3.3-3.9,5.1-5.7,1.9-1.9,3.9-3.7,5.8-5.6,0,0,.1-.4,0-.4-.4-.4-2.2-.3-2.7.1-.2.2-.5.3-.7.4-.2-.4-.6-.6-.1-1.2.7-.8,1-1.7.9-2.9,0-.7-.3-1.6,0-2.1.6-.9.5-1.7.1-2.6-.4-1.1-.2-1.5,1-1.4,1.3.1,2.5.4,3.8.7.4,0,.8.4,1,.8.4.7.7,1.5.9,2.3,0,.2-.1.6-.2.8,0,.2,0,.3,0,.5.2,0,.4,0,.5-.2.8-1.3,1.5-1.5,2.9-.7.5.3.9.6,1.4.7,1.7.1,3.3,0,5,.7,1.2.5,2.4.9,3.5,1.7.8.6,1.8,1.1,2.6,1.7.9.6,1.7,1.2,2.7,2M210.1,163.7c.2.3.3.8.6,1,1.3,1.2,1.5,1.2,3.1.2.2-.1.5-.2.6-.1,1.5,1.1,1.2-.3,1.5-1,.1-.3.3-.5.4-.7.2.2.4.3.6.5.1.2,0,.5.2.7.2.3.4.5.7.7.1-.3.3-.6.3-.9,0-.2,0-.5,0-.7.5-.8,1.1-1.5,1.4-2.6.3-1.2.6-2.5.8-3.8.2-1.8.3-3.5,1.1-5.2.5-1.1.6-2.3.7-3.5,0-1.5,0-3-.1-4.5,0-1.1,0-2.2,0-3.4,0-1.2,0-2.4,0-3.6,0-.9,0-1.7,0-2.6-.1-.9,0-1.9-1-2.5-1.1-.7-1.7-1.7-2-3.1-.3-1.5-.8-3-2.4-3.8-.6-.3-1.4-.4-2.1-.5,0,0-.2.9-.4,1.3-.2.4-.5.6-.7,1-.1-.4-.3-.7-.4-1.1,0-.3-.1-.6-.3-.9,0,0-.4,0-.6,0,0,1.1-1.3,1.9-.6,3.1,0,.1-.2.4-.3.6-.2-.1-.4-.2-.5-.4-.2-.3-.3-.6-.5-1,0-.2-.2-.4-.4-.5-.2.2-.4.3-.5.5-.2.5-.4,1.1-.5,1.6-.2.8-.4,1.7-.6,2.5-.1.8-.3,1.6-.3,2.4,0,1.4.3,2.9.4,4.3,0,.4-.2.8-.2,1.2,0,1.5.2,3.1.2,4.6,0,2.5-.1,5-.2,7.5,0,.9,0,1.8,0,2.7s0,2.3,0,3.5c0,.4.2.8.2,1.2-.1,1.9.9,3.5,1.9,5.2M221.3,177.2c.8-.1,1.6-.3,2.3-.3,1.9,0,3.8,0,5.7-.7,2.4-1,4.3-2.5,5-5.1.3-.9,0-1.8-.7-2.5-.8-.7-1.6-1.4-2.9-1.2-1.2.3-2.5.4-3.8.5-1.6.1-3.2.1-4.8.2-.8,0-1.6.2-2.5.2-1.2,0-2.4-.2-3.6-.2-2.1,0-4.1,0-6.2,0s-.9,0-1.4,0c-.9,0-1.9-.1-2.8-.2-1.3,0-2.6,0-3.9,0-1.4,0-2.9-.1-4.3-.2-1.2,0-2.4,0-3.5-.3-1.9-.3-2.8,0-3.5,2,0,.1-.1.3-.2.4-1.3,1.1-.5,2.2,0,3.2,0,.1.2.2.3.3-.2,0-.4,0-.5,0-.5,0-1.1.1-1.6.2,0,0-.1.3,0,.4,0,0,.3.1.4.1,1.2,0,1.2,0,.9,1.2-.1.6,0,1.2.8,1.3,1.6.2,3.2.3,4.7.3,1.6,0,3.2-.1,4.9,0,1.6,0,3.2.2,4.9.2,1,0,2.1-.2,3.1-.2,1.2,0,2.4.4,3.6.4,3.2,0,6.5-.1,9.8,0M108.7,132.3c-.2-.7-.2-1.2.2-1.9.3-.6.2-1.4.3-2.1.2-1.7.2-3.4.5-5,.4-2.1,0-4.1-.5-6.2-.2-.8-.5-1.6-.7-2.4-.2-1-.5-1.3-1.6-1.2-.2,0-.4-.2-.7-.3-.5-.2-1.1-.5-1.7-.5-.6,0-1.2.2-1.7.3-.2,0-.4,0-.6-.1.1.2.2.5.4.6.2.1.5.1.7.1.7,0,1.4-.2,1.9,0,1.4.7,1.5,2.5.4,3.8-.6.7-1.5,1.2-1.4,2.4,0,.4-.3.9-.5,1.3-.4.6-.8,1.3-1.3,1.8-.7.9-1.4,2-2.4,2.4-1,.4-.6.8-.5,1.4,0,0,.2.2.2.2.1.4.2.8.3,1.2-.3,0-.6.1-1,.1-.3,0-.7-.2-.9-.2-.5.1-1.4.4-1.5.7-.4,1.7-.6,3.5-.7,5.2-.1,1.7-.2,3.4-.2,5.2,0,.7,0,1.4.2,2,.4,1.4.8,2.9,1.3,4.3.3.7.7,1.4,1.3,1.9,1.4,1.1,3,.8,4.6.4.7-.2.6-.7.9-1,.3-.3.5-.7.9-.9.6-.5,1.3-.8,1.8-1.3,1-.9.9-2.3,1.2-3.5.2-1,.3-2,.2-3-.1-1.2-.4-2.4.2-3.6.3-.6.2-1.4.3-2.3M82.9,154.2c.3.4.2,1.3,1.1,1.1,0,0,.2.3.2.5,0,0-.3,0-.3.2-.4.5-1.1.9-1.2,1.4-.4,1.5-.6,3-.8,4.5,0,.4.4,1,.8,1.1.5.1,1.2.5,1.6-.3.5-1.2.9-2.4,1.4-3.6,0-.2.2-.4.3-.6.1.3.3.6.3.9,0,1,1.2,3.3,2.2,3.5,1,.2,2.1.1,3.1.1,1.2,0,2.5,0,3.7-.2.9,0,1.9-.3,2.8-.3,1.6,0,3.2.1,4.8.2,1.1,0,2.2.2,3.3.2,1,0,2.2.2,3.1-.1,2-.6,3.9-1.6,5.3-3.4,1-1.3,1.2-2.6.8-4-.4-1.4-2.8-2.4-4.2-2.2-1.3.2-2.7.2-4.1.3-.9,0-1.7,0-2.6,0-1.9-.1-3.8-.3-5.7-.4-1.9,0-3.8-.1-5.7,0-1.9,0-3.7.3-5.6.5-.6,0-1.2,0-1.8.5-.6.5-1.6,1-2.4,0,0,0-.4,0-.5.4M160.1,207.4c0,.3,0,.6-.2.8,0,.2-.3.4-.4.6.4,0,.9.2,1.1,0,.8-.7,1.6-.6,2.6-.2.6.2,1.5.2,2,0,1.1-.6,2.2-1.3,2.5-2.7.3-1.1.6-2.2.9-3.3.8-3.3,1.3-6.6,1.2-10.1,0-2.2-.3-4.2-1.2-6.2-1-2.3-2.8-4.1-4.8-5.3-1.5-.9-3.4-1.3-5.2-1.9-1.1-.3-2,0-2.7,1-.5.8-.2,1.5.2,2.3.3.5.7,1.1.6,1.6-.3,1.9.9,3,2.3,3.8,1.5.9,2.5,2.1,2.4,3.9,0,1.5,0,3.1-.2,4.6-.2,1.3-.3,2.7-.8,3.9-.7,1.7-1.7,3.2-2.1,5.1-.1.6-.1.5.4.4,1-.2,1.5.3,1.4,1.6M115.7,51.1c.8,1.3.9,2.6.4,4.1-.3,1.1-.2,2.3.6,3.2.2.2.4.3.7.5,0-.2,0-.5,0-.7,0-.4,0-.8.2-1.1.3-.8,1.1-1.5,0-2.4,0,0,.1-.3.2-.5.7-.7.2-1.1-.4-1.5-.2-.1-.4-.4-.6-.7.3,0,.5,0,.8,0,.4.1.7.3,1,.5,1.6,1.1,3.1,2.3,4.8,3.3,2.1,1.4,4.3,2.6,6.4,3.9,2.1,1.3,4.1,2.8,6.3,3.8,2.3,1,4.4,2.3,6.4,3.7,1.5,1.1,3.1,1.9,4.6,3,2.2,1.7,4.2,3.6,6.4,5.3,2.4,1.9,4.8,3.8,7.2,5.8.6.5,1.2.9,1.1,1.9,0,.9.1,1.8.3,2.7.4,2,.4,4,1.2,6,.6,1.4.5,3,.6,4.5.2,2.1,1,4.1,1.7,6.2.4,1.3,1,2.5,1.5,3.8.5,1.2,1.2,2.3,1.6,3.5.7,2.1,1.2,4.2,1.9,6.2.3,1,1.3,1.9,1.3,2.9,0,1.8,1.4,3.3,1,5.1,0,0,.1.2.2.3,0,0,.2-.2.3-.3.2-1.2.5-2.5-.1-3.7-.6-1.3-1.1-2.7-1.6-4.1-.3-1-.5-2.1-.9-3.1-.6-1.6-1.3-3.1-1.9-4.7-.7-1.7-1.3-3.5-2-5.2-1.1-2.6-1.8-5.2-2.1-8,0-1-.3-2-.4-3,0-1,0-2-.1-3,0-1.1-.2-2.3-.3-3.4,0-.5-.2-1.2,0-1.4.8-.7,0-1.3-.2-1.7-.5-.7-1.2-1.4-1.9-1.9-1.9-1.2-3.5-2.7-5.1-4.3-1.8-1.8-3.8-3.4-5.8-4.9-1.7-1.4-3.4-2.7-5.2-3.9-1.5-1-3-1.9-4.5-2.9-1.8-1.1-3.6-2.3-5.5-3.4-1.1-.7-2.3-1.2-3.4-1.9-1.6-1-3.2-1.9-4.8-2.9-2.2-1.4-4.5-2.9-6.7-4.4-.6-.4-1.3-.7-1.9-1.1-1.1-.8-2.3-1.6-3.1-2.6-1-1.2-1.2-2.9-2.4-4-.2-.2-.4-.3-.5-.5,0,0-.1.1-.1.1,0,.2.2.5.3.7.1.4.3.7.4,1.1-.5.2-.9.2-1.4-.4-.4-.5-1.1-.7-1.7-1.1-.3-.2-.8-.5-.8-.8,0-.9,0-1.8.1-2.8,0-.3-.1-.6-.3-.8-.1-.2-.4-.1-.7-.2,0,.3.2.5.2.8,0,.3,0,.5-.1.8-.2-.2-.5-.3-.5-.6-.2-.5-.3-1-.4-1.5-.2-1.7-.5-3.4-.6-5,0-2.6.1-5.2.2-7.7,0-.3,0-.7-.1-1-.3.3-.6.6-.8.9,0,.1,0,.3,0,.5,0,.7-.2,1.5-.2,2.2,0,1.7-.1,3.4,0,5.1,0,1.7.2,3.5.5,5.2.2,1,.7,1.9,1.1,2.8.2.4.5.8.7,1.2.2.3.2.7.4.9,1.1.8,2.3,1.5,3.3,2.4.6.5,1.6.3,1.8,1.6.1.9,1,1.6,1.7,2.5M44.2,49.4c-.8,1.4-1.5,2.9-2.6,4.1-1.3,1.5-2.6,2.9-3.5,4.7-.2.4-.6,1.1-1.4.4-.2-.2-.7-.1-1,0-.4.1-.7.4-1,.6.3.1.7.2,1,.3.2,0,.4,0,.6,0,.2,0,.4.2.7.3,0,.2-.2.4-.3.6-1,1.4-2.4,1.1-3.8.8-.2,0-.4-.2-.6-.3.3,0,.5-.1.8-.1.2,0,.3,0,.5,0,0-.2,0-.4,0-.4-.8-.1-1.5-.3-2.3-.4,0,.2,0,.5,0,.6-.1.2-.4.3-.6.3-2.2-.4-4.4-.7-6.7-1.1-.4,0-1-.2-1.2-.5-.5-.8-1.1-.9-1.8-.4-.7.4-1.4.3-2.1.2-.5,0-1.1-.2-1.6-.3-.2,0-.3,0-.5.1,0,.2.1.5.3.6.2.2.5.2.8.2,1.4.2,2.8.3,4.2.6,2.1.4,4.2,1.1,6.4,1.5,1.4.3,3,.2,4.4.5,2.5.6,4.7-.3,5.9-2.5,1.1-2,2.3-3.9,3.6-5.9,1-1.5,2.1-2.9,3.1-4.3,1.6-2.3,2.6-4.9,3.4-7.5.5-1.4.8-2.9,1.2-4.3.2-.5.4-1.1.6-1.6.3-1.1.6-2.3.8-3.5,0-.1-.1-.3-.2-.5,0,.1-.2.2-.3.4-.3.6-.5,1.5-1.6,1.3-.1,0-.3.2-.5.4.1.1.3.3.4.3,1,0,.8.8.6,1.3-.2.9-.5,1.8-.9,2.6,0,.3-.5.7-.5.7-.6-.3-1.1-.6-1.7-.9-.1,0-.3-.1-.4-.2,0,.2.1.3.2.5.3.5.6.8,1.3.7,0,0,.4.6.4.8-.1.9-.4,1.8-.6,2.6-.5,1.8-1.4,3.5-2.5,5-.3.5-.7,1-1,1.7M72.4,316.5s0,0-.1,0q-1.5-.7-1-2.3c0,0,0-.1,0-.2-.1,0-.3,0-.4,0-1.1.8-2.1.3-3-.4-.2-.2-.3-.5-.5-.8.2,0,.4,0,.7.1,1.3.3,2.7,0,3.9.9.2.2.8,0,1.2,0,0,0,0-.4,0-.4-.3-.2-.6-.3-1-.4-1-.3-2.2-.3-3.1-.8-.8-.4-1.2-.2-1.8.1-.3.1-.8.3-1,.2-1.5-1.1-3-2.3-4.5-3.6-.9-.8-1.7-1.7-2.6-2.5-.1.3-.6-.7-.6.2,0,.3,0,.7.2.8,1.8,1.6,3.5,3.2,5.4,4.7,2,1.5,4.1,2.8,6.2,4.2.6.4,1.1,1,1.7,1.4,1.2.7,2.5,1.2,3.7,1.9.5.3.8,1,1.3,1.1.9.2,2.1-.3,1.9,1.4,0,0,.1,0,.2,0,.8.4,1.5,1,2.4,1.3.4.1,1.2,0,1.5-.3,1.1-1.1,2-2.4,3-3.6,0-.1.1-.3.2-.5-.2,0-.3,0-.5.1-.5.3-1.2.5-1.5,1-.5.8-2,.8-1.9,2.1,0,.1-.4.4-.6.4-.4,0-.8-.3-1.2-.5-.2-.1-.5-.4-.5-.6,0-.2.3-.4.6-.5.4-.2.8-.4,1.1-.7.1-.1.1-.4.1-.6-.2,0-.3,0-.5,0-1,.7-2.4.4-3.2-.6-.2-.2-.4-.5-.6-.5-1.2.3-2.1-.5-3.1-.9-.7-.3-1.3-.8-2.1-1.2M117.7,95c.3,0,.6-.1.9-.2,0,0,0,.2,0,.3-.2.7-.3,1.5-.6,2.2-.3.6-.8,1-1.2,1.5-.2.3-.4.6-.6.8.2.1.5.2.7.3.2,0,.3.2.5.3.2.1.5.4.6.3.2-.2.5-.5.6-.8.3-1.5.5-3,.7-4.6,0-.6.4-1.6.2-1.8-.8-.6-1.3.5-1.9.7-1,.4-.3.6.2.8M130,37.8c-.9-.3-1.9-.3-2.3-1.3-.1-.2-.6-.3-1-.4-.5-.1-1.1,0-1.5-.3-1.3-1.1-1.4-1.2-2.5,0-.1.1,0,.4-.1.6.1,0,.3-.1.4-.2.8-.6,1.5-.8,2.2.2.1.2.5.3.8.3,1.7.2,3,1,3.4,2.9,0,.3.3,1,.9.5.9-.8.9-1.2-.1-2.2M88.1,116.1c-.1,0-.3.1-.4.2-1,.4-1.8,1.4-3.1.8,0,0-.3.1-.5.2.1.1.2.2.4.3.6.6,1.5.6,2.1.4,1.7-.7,3.6-1.2,4.4-3.2,0-.2,0-.4-.1-.6-.2,0-.5,0-.6.2-.7.6-1.3,1.2-2.2,1.8M152.9,264.1c.6-.3,1.2-.5,1.7-.8.3-.2.5-.5.8-.8-.3.1-.6.3-.9.3-2.1.5-4.2.9-6.3,1.4-.2,0-.4.2-.6.4,0,0,0,.3,0,.3.8,0,1.7.2,2.5,0,.9-.2,1.7-.6,2.7-.8M93.7,103.1c-.3-.4-.6-.4-.7,0-.1.5,0,1.1-.1,1.6-.3.7-.7,1.4-1.1,2.1-.1.2,0,.6,0,.8.3,0,.6-.1.8-.3.5-.5,1.1-.9,1.5-1.5.2-.3.8-1-.2-1.4-.2-.1-.2-.8-.2-1.3M128,71.7c-.3-.1-.6-.3-.9-.4-.2,0-.4,0-.6,0,0-.2,0-.4.1-.6.2-.7.5-1.4.7-2.1,0-.1-.2-.3-.3-.5,0,.2,0,.4-.1.6-.2.4-.4,1-.8,1.2-.3.2-.8,0-1.2-.2-.1,0-.2-.1-.4-.2,0,.1-.1.2,0,.3.3.4.5,1.1.9,1.2.8.2.7.6.6,1.1,0,.1,0,.3,0,.4,0,0,.2,0,.4,0,.2-.9,1.1-.5,1.7-1M53.1,298.3c.5,1,1,2,1.6,2.9.1.2.6.3.9.4-.1-.4-.2-.7-.4-1.1,0-.1-.2-.2-.3-.3,0-.1-.2-.3-.2-.5.2-1-.2-1.6-1-2.2-.3-.2-.7-.5-1.1-.7.1.4.2.8.5,1.4M34.4,314.9c.3,0,.6,0,.9,0,0,0,.2-.4.2-.5-.3-.4-.7-.8-1.1-1.1,0,0-.5.2-.5.3.1.8-.3.9-.9,1.2-.5.3-.8.9-1.2,1.4,0,0,0,.3.1.5.1,0,.3-.1.4-.2.7-.5,1.3-1,2.1-1.7M116.8,38.1c-.9-.2-1.8-.2-1.6,1,.2.8,1,1.4,1.5,2.2,0,0,.2-.1.2-.2,0-.9,0-1.9-.2-2.9M75.5,340.3c0-.3-.1-.5-.2-.8-.1.2-.3.4-.4.5,0,0,0,.2,0,.3,0,1.7.1,3.4.3,5.1,0,.3.4.6.6.9,0-.3.1-.5.1-.8,0-1.7,0-3.5-.2-5.3M100.7,207.1c-.2.2-.5.5-.5.6.5,1.1,1,2.1,1.5,3.1,0,.1.3.2.4.4,0-.2.1-.4,0-.5-.2-.7-.6-1.3-.8-2,0-.2.2-.6.4-.8,0-.1.4,0,.6,0-.3-.2-.6-.4-.9-.5-.2,0-.5,0-.9-.2M39.1,313.2c-.4,1.1-1.4.7-2.1.9-.2,0-.4.2-.6.3,0,.2.1.4.2.5.9.7,3.2,0,3.4-1.2,0-.3-.1-.6-.2-.9-.2.1-.4.2-.7.5M90.3,110.4c-.2.4-.3.7-.4,1.1,0,.1,0,.3.2.4,0,0,.3,0,.4,0,.6-.9,1.3-1.8,1.8-2.8.1-.2,0-.5,0-.8-.3,0-.7,0-.8.2-.4.6-.8,1.2-1.2,1.9M83,120.5c-.3,0-.6.1-.8.2-.3.1-.6.3-.9.4.3.2.6.7.8.6,1-.2,1.9-.6,2.8-1,0,0,0-.6-.1-.9-.2,0-.4.2-.6.3-.3.1-.6.2-1.2.3M127.4,62.8c0,.5.4,1.1.2,1.4-.6.7,0,1.3,0,2,0,.1.3.3.5.4,0-.2.3-.4.3-.7,0-1,.1-2,.1-3,0-.3-.2-.6-.4-.8,0-.1-.3,0-.5-.1,0,.2,0,.5-.1.8M319.1,35.7c-.5-.2-1-.3-1.5-.5-.7-.2-1.4-.3-2.1-.4-.4-.1-.8-.3-1.3-.4,0,0,0,.2,0,.2.3.2.7.5,1.1.6,1.4.4,2.7.7,4.1.9.9.1,0-.3-.2-.4M76,337.1c0-.7-.1-1.3-.2-2,0-.2-.1-.4-.2-.6-.2.2-.4.4-.5.6,0,1.2-.1,2.4-.2,3.6,0,0,0,.2,0,.2.1,0,.3,0,.3,0,.2-.5.4-1,.8-1.7M118.4,34.9c0-.4,0-.8,0-1.1,0-.1-.2-.3-.4-.3,0,0-.3,0-.3.1.1.8,0,1.7.4,2.4.2.5.3.7-.2.9-.2.1-.3.4-.4.6.1,0,.3.2.4.2.3-.2.7-.4.7-.6,0-.7,0-1.4-.2-2.2M118,43.8c.4,0,.8.2,1.2.2.1,0,.3,0,.4,0,0-.1,0-.3,0-.4-.4-1-1.4-.8-2.2-1-.2,0-.5.3-.8.5.3.1.6.3.9.4.2,0,.3,0,.6.2M40.6,47.9c-.2.3-.5.5-.5.8,0,.4,0,.8,0,1.2,0,0,.2,0,.2-.1.2-.3.4-.6.6-.9.2-.3.4-.5.6-.8.3-.4.5-.7.8-1.1,0,0-.2-.2-.2-.2-.4.3-.7.6-1.1.9,0,0,0,.1-.3.2M136.1,66.4c0,.4,0,.8,0,1.1,0,.2.2.4.3.6.1-.2.3-.4.4-.6.1-.6.2-1.2.2-1.8,0-.2-.2-.5-.4-.6-.2,0-.5,0-.7.2,0,0,0,.4,0,.5,0,.2,0,.3.1.6M80.8,137.9c-.2.3-.3.6-.4.8,0,.1.1.4.2.4.1,0,.5-.1.4-.1-.1-1.1.9-1.5,1.2-2.3,0-.2,0-.5,0-.7-.2,0-.6,0-.7.2-.3.5-.6,1-.8,1.7M101.9,79.5c-.2-.2-.4-.6-.7-.6-.5-.1-1,0-1.5,0,.2.3.3.7.5.9.5.3,1,.4,1.5.5.3,0,.7-.3,1-.5,0,0,0-.2,0-.2-.2,0-.4,0-.9,0M138.9,66.2c-.3-.3-.5-.5-.8-.8,0,.3,0,.8.1,1,.4.4.8.9,1.3,1.1.3.1.8,0,1.2-.1,0,0,.1-.2.2-.3-.4,0-1,0-1.1-.1-.2-.5-1.2.3-.9-.8M80.6,126.7v-.6c-.2,0-.5,0-.6.2-.4.4-.7.7-1,1.2-.2.5-.4,1-.5,1.5,0,.1.2.3.3.4,0,0,.1,0,.1-.1,0-1.2,1-1.7,1.6-2.7M120.1,48.4c-.2.3-.4.5-.6.8,0,.1,0,.3,0,.4.2,0,.6.2.7.1.5-.5,1-1.1,1.4-1.7.1-.2.1-.5.2-.8-.2.1-.4.2-.6.3-.3.2-.5.5-1,.8M118.4,46.4c0-.2-.1-.4-.2-.5-.2-.2-.5-.3-.7-.4,0,.2,0,.5.1.7,0,.4,0,.7.2,1.1.1.3.3.5.5.8,0-.3.2-.6.2-.9,0-.2,0-.4,0-.9M123,61.1c0,.1-.1.2-.2.3-.2.2-.3.4-.5.6.2,0,.4,0,.7-.1.5,0,1-.1,1.5-.3.2,0,.3-.4.5-.7-.2,0-.3-.2-.5-.2-.5,0-1,.1-1.5.3M78.7,196.1c-.4-.2-.8-.5-1.2-.7-.2,0-.4,0-.6,0,0,.2,0,.6.3.7.5.3,1,.5,1.5.7.1,0,.3,0,.5-.1-.1-.2-.2-.4-.5-.7M124.2,51.1c-.5-.4-.8-1.2-1.6-1-.1,0-.3,0-.5-.2.1.2.2.4.3.5.5.4,1.1.8,1.6,1.2.2.1.3.3.5.5,0-.3-.1-.6-.3-1.1M113.2,26.9c0,0-.2,0-.2,0-.3,0-.7.1-1,.2.2.2.5.3.6.5.2.2.2.5.3.8,0,.2.2.3.2.5.1-.1.4-.3.4-.4,0-.5-.1-1-.3-1.6M112.1,122.2c.2-.7.3-1.5.4-2.2,0-.1-.3-.3-.5-.4,0,.1-.2.3-.2.4-.1.8-.3,1.6-.4,2.4,0,.2,0,.4,0,.7.2-.2.4-.4.5-.8M6.4,190.1c0,.5,0,1,0,1.5,0,.1.1.3.2.4,0-.2.2-.3.3-.5,0-.7.1-1.4.1-2,0-.4,0-.9-.1-1.3,0,0-.2,0-.2,0,0,.4,0,.8,0,1.2,0,.1,0,.2-.1.6M140.8,49.3c.1.3.2.5.3.8.2-.2.3-.4.5-.7.3-.5.5-1,.8-1.5-.5.4-1,.8-1.6,1.4M28.2,56.4c-.2,0-.3,0-.5,0-.3,0-.7.2-1,.3.2.4.4.8.7,1.2.2-.2.3-.5.5-.7.2-.2.4-.2.6-.3.2-.1.4-.3.7-.4-.3,0-.5,0-1,0M34.2,56c-.9,0-1.8-.2-2.7-.2,0,0-.1.3,0,.4.7.7,1.9.6,2.8-.2M125.9,53.2c-.4,0-.8,0-1.2,0,.3.3.5.7.9.8.3.1.8,0,1.1,0-.2-.3-.3-.6-.7-.9M114.5,217.6c.4.8.8,0,1.2,0,.2,0,.5-.2.7-.3-.2-.2-.6-.7-.7-.7-.4.1-.8.5-1.1,1M126.1,74.6c0,.3-.2.6,0,.9.1.4.5.7.7,1,0-.3.2-.6.2-.9,0-.3,0-.6,0-.9,0-1-.4-.4-.8,0M27.7,59.4c.7,0,1.3-.2,2-.2,0,0,0-.2,0-.3-.3-.4-2.1-.4-2.4,0,0,.1,0,.3.3.5M113.4,109.4c-.1.1-.2.3-.3.4.2,0,.5.2.7.1.4-.2.8-.5,1.1-.9.1-.1.2-.4.2-.6,0-.2-.3-.4-.4-.4-.2,0-.3.2-.5.4-.2.3-.5.6-.8,1M94.6,113.7c.1.3.3.7.4,1,0,0,.4,0,.4,0,0-.4,0-.8,0-1.2,0,0,0-.1,0-.2-.2-.2-.4-.5-.5-.7,0,.3-.2.6-.1,1M36.6,153.8c.2-.3.5-.6.7-1,.1-.2.1-.4.2-.6-.3,0-.7,0-.8.2-.3.3-.5.8-.7,1.2,0,0,.3.2.6.3M171.2,235.4h1c-.3-.3-.5-.6-.8-.7-.5,0-1.1,0-1.6,0-.1,0-.2,0-.3,0,0,0,0,.2.1.3.5.1,1,.2,1.6.5M6.9,176.6c0-.3,0-.7,0-1,0,0-.2-.2-.2-.2,0,0-.1.2-.1.2-.1.8-.3,1.6-.4,2.4,0,.2.2.4.3.6.1-.1.3-.3.3-.4.1-.4.2-.9.2-1.5M72.9,242.6c-.2-.2-.5-.7-.7-.6-.5,0-1,.4-1.5.6.1.2.2.5.3.5.6-.1,1.1-.3,1.9-.4M172.7,217.8c.3.3.7.7,1,1-.1-.4-.3-.8-.3-1.1,0-.2,0-.5,0-.7-.1-.4-.3-.8-.5-1.2,0,.4-.1.8-.2,1.3,0,.2,0,.3,0,.7M109.6,229.1c.7,0,1.4.1,2.1.2,0-.1,0-.4,0-.4-.7,0-1.4-.8-2.1.2M114.3,104.1c.7,0,1.5-.1,1.3-1.2,0-.3-.2-.6-.3-.9-.2.3-.4.5-.6.8-.2.4-.3.8-.4,1.3M77.2,131.1c0,.1-.1.3-.2.4,0,.3,0,.5,0,.8.3-.1.5-.2.8-.3,0,0,0-.3.2-.4.3-.4.9-.6.4-1.2-.3.2-.6.5-1.1.7M56.4,303.7c.2.5.4,1,.7,1.5,0,.1.4.1.6.2,0-.2.1-.5,0-.6-.3-.6-.7-1.1-1.1-1.6-.2-.2-.4-.3-.6-.5.1.2.3.5.4.9M116.2,30.6c.3.3.4,1.3.9.8.5-.5-.8-1-.7-1.8,0,0-.2-.2-.3-.3-.2.4-.8.8.1,1.3M118,20.9c-.1,0-.2.1-.3.2,0,0,.2.1.3,0,.9-.2,1.4-1.2,1.3-2.4,0-.1-.1-.3-.2-.4,0,.1-.2.3-.2.4-.2.7-.5,1.3-.8,2.1M97.1,325.3c.4-.7.8-1.3,1.3-2,0,0,0-.1,0-.2-.1,0-.3,0-.3.2-.5.6-1,1.3-1.4,1.9-.1.2,0,.4-.1.6.2-.1.4-.2.7-.5M120.9,32.6c.3.4.5.9.8,1.2.1.1.5,0,.7,0,0-.2,0-.6-.1-.7-.4-.3-.9-.4-1.4-.5M96.8,102.5c.1.1.2.2.3.4.1-1.1.8-.9,1.5-.6.1,0,.4,0,.5,0,0,0,0-.3,0-.3-.5-.2-1-.5-1.5-.5-.3,0-.5.6-.9,1.1M81.7,146.1c-.2-.5-.5-1-.7-1.4,0,0-.1-.1-.2-.2,0,.1-.2.2-.2.3.1.6.2,1.1.4,1.7,0,.2.4.4.6.6,0-.2,0-.5,0-.9M181.9,320.5c-.1-.3-.2-.7-.4-.8-.3-.1-.7,0-1.1,0,0,0-.2.3-.2.4.5.3.7,1.1,1.6.5M253.9,16.1c.3-.1.5-.3.8-.4-.2,0-.5-.2-.7-.3-.2,0-.3-.2-.5-.2-.2,0-.4,0-.6,0,.1.3.2.5.3.8,0,.1.3.2.7.2M147.3,265.8c-.3.1-.5.3-.8.4.3,0,.6.3.8.3.4,0,.8-.2,1.2-.3-.3-.1-.7-.3-1.2-.4M240,11.8c.3,0,.6,0,.9-.1.2,0,.3,0,.5-.1-.2-.1-.4-.3-.5-.3-.7,0-1.5,0-2.2,0-.2,0-.3,0-.5,0,.2.2.3.4.5.5.4.1.8.2,1.4.1M176.6,203.3c-.3,0-.7-.1-1-.1,0,0-.2.1-.3.2.3.2.5.3.8.5.2,0,.3.1.5.1.2,0,.4-.1.6-.2-.2-.1-.4-.3-.6-.5M144.5,72.5c0-.1-.2-.4-.2-.4-.5,0-1,.2-1.5.3-.2,0-.3.2-.4.4.1,0,.2.2.3.2.7,0,1.4,0,2,0,0,0,0-.3-.2-.4M99.7,96.2c.5.3,1.4,0,1.4-.5,0-.2-.2-.5-.2-.7-.2.1-.3.2-.5.3-.2.2-.4.4-.6.9M100.3,320.9c0,0-.1,0-.2.2-.2.4-.4.7-.6,1.1.3-.3.7-.5,1-.8,0,0,.1,0,.2-.2.2-.4.4-.8.6-1.2-.3.2-.6.5-1,.9M117.7,231.8l-.4,1c.3-.2.8-.3,1-.5.2-.2.2-.6.3-1-.3.1-.5.2-.9.5M177.9,206.9c.9-.8-.5-.9-.5-1.4-.3.1-.5.2-.8.3.3.3.6.6.9.8,0,0,.2,0,.4.2M118.8,69.2c-.2-.3-.4-.5-.5-.8,0,.3-.1.6-.1.9,0,.4,0,.8.1,1.2.2-.3.4-.7.5-1.3M110.5,220.8c-.2.1-.3.2-.5.4.2,0,.4.2.5.2.3,0,.7-.1,1-.2.2,0,.4,0,.5,0-.1-.2-.2-.5-.3-.5-.4,0-.8,0-1.3,0M112.5,31.8c-.7-.7-.7.3-.8.4-.2.3-.1.7-.1,1.1.1,0,.3,0,.4,0,.3-.4.5-.9.6-1.5M82,128.9c.2.2.4.3.6.5-.1-.5-.2-1-.4-1.4,0-.1-.6,0-.9,0,.2.2.4.5.7.9M120.9,70.6c0-.1,0-.2,0-.3-.2-.7-.8-.5-1.3-.5,0,0-.2.2-.3.2.4.2.8.5,1.2.7,0,0,.2,0,.5-.1M94.6,150.5c-.2.1-.4.3-.6.4-.2.1-.3.3-.5.4.1,0,.2.2.3.2.2,0,.4,0,.6,0,.3-.2.5-.5.7-.7.1-.1.2-.2.4-.3-.2,0-.5,0-.8,0M113,39.4c.1,0,.2-.1.3-.2-.3-.2-.5-.5-.8-.7,0,0-.4.2-.6.3.3.2.5.4,1,.6M301.5,30.5c-.4,0-.8,0-1.2,0,.3.1.7.2,1,.4.1,0,.2.2.4.2.5.1.9.2,1.4.3-.5-.3-1-.5-1.6-.9M143.6,265.4c-.5,0-1,.1-1.6.2-.1,0-.3,0-.4,0,0,0,.2.2.3.2.7.4,1.3.2,1.7-.5M102.4,227.8c-.3-.1-.6-.3-.9-.4-.1,0-.3,0-.5,0,0,0,0,.3,0,.3.5.2.9.5,1.4.7,0-.2,0-.4,0-.7M140.1,265.6c-.2,0-.5,0-.7,0-.4.1-.8.3-1.2.5.3,0,.5,0,.8,0,0,0,.3.1.3.1.2-.4,1.1.3.8-.6M130.5,62c-.3.3-.7.7-1,1,.2.1.3.2.5.4.2-.3.4-.7.6-1,0,0,0-.1-.1-.3M83.5,199.2c.5,0,.9-.1,1.4-.2,0,0,.2-.1.2-.2-.3,0-.9-.3-1-.2-.3.3-1.1-.2-.6.7M73,190.1c.3,0,.7,0,1,0,.1,0,.3-.1.4-.2-.1-.2-.3-.4-.4-.4-.4,0-.9,0-1.3,0,0,.2.1.5.3.6M122.6,40.5c-.1-.2-.2-.3-.4-.5,0,.2-.2.4-.2.5,0,.4.2.9.4,1.3.1-.4.2-.8.2-1.4M173.4,201.9c0,.3,0,.5,0,.8,0,.2,0,.3,0,.5.2,0,.6-.1.6-.2,0-.5,0-1,0-1.4,0,0-.2,0-.2,0,0,0,0,.2-.2.4M114.2,216.4c0-.1,0-.2,0-.3-.3.2-.7.3-.8.5,0,.2.1.5.2.8.2-.2.4-.5.6-1M86.5,163.5c1.3-.5-.1-.7-.1-1.1,0,0-.3-.2-.4-.3,0,.2-.2.5-.1.6,0,.2.4.4.7.7M120,88.6c0-.4-.1-.7-.2-1.1-.1,0-.4,0-.4,0,0,.5.2,1.1.3,1.6,0-.1.2-.2.3-.6M148,72.1c-.3-.3-.7-.5-1-.8,0,0-.3,0-.4.1.2.4.4.8.7,1.1.1,0,.6-.3.7-.4M112.7,103.6c0-.3-.1-.6-.2-.9-.3.2-.7.4-1,.5.3.1.7.3,1.2.4M34.3,48.2c-.2-.1-.4-.2-.6-.3-.1.2-.3.5-.3.6,0,.2.4.3.6.5,0-.2.2-.4.3-.8M33,58.3c0-.2,0-.5,0-.7-.5.1-1,.2-1.5.4.1.1.2.3.3.3.3,0,.6,0,1.2,0M112.3,101.1c.3.3.5.7.8,1,0,0,.4,0,.4-.1,0-.3.1-.6.2-.9-.2,0-.5.2-.7.2-.2,0-.3-.1-.7-.2M106.5,95.8c-.1-.2-.3-.4-.4-.6-.1,0-.4.2-.4.3.1.5.3,1,.5,1.5.1,0,.3-.1.4-.2,0-.3,0-.5,0-.9M101.7,117.5c.1.2.2.6.4.7.3.2.7.2,1,.2,0,0,0-.3,0-.3-.3-.1-.6-.2-.9-.4-.1,0-.2-.1-.6-.2M173.8,235c-.3,0-.5,0-.8.1,0,.1,0,.3.2.3.5,0,1,0,1.4.1-.2-.2-.4-.4-.8-.5M141.2,80.5c-.1-.2-.2-.4-.3-.6-.4.3-.7.7-1,1,0,0,0,.2,0,.3.3-.2.7-.3,1-.5,0,0,.1-.1.3-.3M173,127.3c0,.1.1.2.2.3.1-.3.3-.6.3-.9,0-.2-.1-.4-.2-.7-.2.2-.4.4-.5.6,0,.1,0,.3.2.6M135.2,64.6l-1.1-.3c.1.3.2.7.4.7.2,0,.5-.2.7-.4M255,260.6c.5.9.6-.1.9-.2,0,0,.1-.4,0-.4-.5-.3-.8-.2-.9.7M111.6,43.8c0,0,.2.2.2.2.2,0,.4-.2.5-.3-.4-.2-.7-.4-1.1-.6-.1,0-.3,0-.4,0,.1.2.3.5.7.7M7,187c-.1-.4-.2-.8-.4-1.2,0,.3,0,.7,0,1,0,.1-.2.3-.2.4,0,.2.2.3.3.5,0-.2.1-.4.3-.7M272.2,3.1c0,0,0-.2,0-.2-.5-.1-1-.2-1.6-.3,0,0,0,.2.1.2.4.1.9.3,1.4.3M153.6,87.9l-1.1-.3c0,.2.1.6.2.6.3,0,.6,0,.8-.3M114.8,97.2c-.2.2-.4.5-.6.8,0,0,.3.3.4.4.2-.3.3-.5.4-.8,0,0,0-.3-.3-.4M102.1,110.6s0,0,0,0c0,0,0,0,0,0-.3-.2-.6-.5-.9-.6-.1,0-.3,0-.5,0,0,0-.1.3-.1.3.4.2.8.4,1.4.5M178,5.2c-.3-.1-.5-.3-.8-.3-.3,0-.6,0-.9.1,0,.1,0,.3,0,.3.3,0,.6,0,.8,0,.2,0,.4,0,.7-.1M138.6,68.1c-.2.2-.5.4-.7.7,0,0,.2.3.3.5.2-.4.3-.8.4-1.2M72.6,192.3c.2.2.3.5.5.7,0-.3.1-.7,0-1,0-.2-.2-.4-.4-.6-.1.3-.2.5-.2.9M176.5,307.7c0-.2,0-.5,0-.7-.2.2-.5.4-.6.6,0,.1,0,.4,0,.5,0,.1.2.1.4.2,0-.2,0-.4.2-.7M80,198.6c.1-.1.2-.2.4-.3-.3-.2-.5-.4-.8-.5,0,0-.2.1-.3.2.2.2.3.4.7.6M178.1,211.7c-.1-.2-.2-.5-.4-.7-.1,0-.4,0-.7.1.3.2.5.4,1,.5M132.5,79.5c.4,0,.7,0,1.1-.2,0,0,.1-.2.2-.4,0,0-.2-.2-.2-.1-.4.2-.8.4-1,.7M113.3,99.6c0,.2,0,.4,0,.6.3-.1.6-.3,1-.4-.3,0-.5-.2-.9-.2M129.4,102.6c-.3-.3-.5-.5-.8-.8,0,0-.1.3-.1.3.3.3.6.5.9.5M16.8,53.3c0-.2-.1-.4-.2-.6-.2.1-.5.2-.7.3.3.1.5.3.9.3M324.8,37.9c-.5-.1-1-.2-1.5-.3,0,0,0,0,0,.2.4,0,.7.2,1.1.3.1,0,.2,0,.4-.1M331.6,205.9c.2,0,.4-.1.5-.2.1-.3.2-.6.3-.8-.3.1-.6.3-.8.5-.1,0,0,.3,0,.6M123,71.7l-.2-.2c0,.3-.2.7-.2,1,0,.2,0,.3,0,.5.1,0,.4-.2.4-.3,0-.2,0-.5,0-1M174.3,236.9c-.2,0-.5,0-.7,0,.2.2.3.5.6.5.2,0,.5,0,.8,0-.2-.1-.4-.2-.7-.4M251.6,275.3c-.2-1-.5,0-.8,0,0,0-.2.2-.3.3.3,0,.6-.2,1-.3M39.8,51.9c.2.1.4.3.6.3.3,0,.5,0,.8-.1-.4-.2-.8-.3-1.3-.5,0,0,0,0,0,.3M331.7,202.6c.4.1.9.2,1.3.3,0,0,0-.2,0-.3-.3,0-.6-.1-.9-.1-.1,0-.2,0-.5.1M165.5,158.5c0,.2-.2.5-.1.5.3.2.6.2.8.3,0-.2-.2-.4-.3-.6,0,0-.2-.2-.5-.2M127.2,67.7c.1-.3.2-.6.3-.9-.1,0-.3,0-.4,0,0,.3,0,.6.1.9M98.1,123.6c-.8-.3-.4.3-.4.6,0,.1.2.3.4.4,0-.3,0-.5,0-1M105.9,108.4c0,.1,0,.2,0,.3.2-.3.4-.5.6-.8l-.5-.3c0,.2-.1.4-.2.8M103.6,211.4h-.5c.1.2.2.4.4.5.1,0,.4,0,.5,0,0-.2-.1-.3-.4-.5M110,37.1c.1-.3.2-.6.3-.9-.1,0-.3,0-.4,0,0,.3,0,.6.1.9M246.9,216.2c.2,0,.5-.2.7-.2l-.8-.6c0,.2,0,.5.1.8M120.4,35.3c.1-.2.3-.3.4-.5-.2-.1-.4-.2-.5-.3,0,.2,0,.5.1.8M133.5,63.1c-.7-.2-.3.1-.1.3.1.2.3.4.4.6,0,0,.2-.2.2-.2,0-.2-.2-.4-.5-.7M6.4,194.1c1.1.4-.2-.8.5-.7,0-.1-.1-.2-.2-.3,0,.3-.2.5-.3,1M97.7,209.6c0,.2,0,.3,0,.5.2-.2.3-.3.5-.5,0-.1,0-.3,0-.4,0,.1-.2.2-.4.5M173.3,142.8c-.2-.2-.3-.5-.5-.7,0,.2,0,.5,0,.7,0,0,.3,0,.4,0M34.2,301.3c0-.2-.1-.4-.2-.6-.1,0-.3.2-.4.3.1.2.3.3.6.4M102.7,86c.2.3.4.5.6.8,0,0,.1-.2.1-.2-.2-.2-.4-.4-.7-.5M112.8,127c-.2,0-.3,0-.5.1.1.2.3.4.4.6,0-.2.1-.4,0-.7M122.5,56.3c-.3-.2-.5-.4-.8-.6,0,0-.1.2-.1.3.2.2.5.3.7.4,0,0,0,0,.2-.1M31.8,286c0-.2,0-.4,0-.5-.1.1-.4.4-.4.4.2.2.4.4.6.6,0-.1,0-.3-.2-.5M111.1,20.7c.1-.1.2-.2.3-.3.1-.1.2-.3.4-.4,0,0-.2-.1-.2-.2-.2.3-.4.5-.4.9M145.9,88.4c-.1,0-.2.1-.3.2.3.1.5.2.8.3,0,0,.2-.2.3-.4-.2,0-.4,0-.8,0M108.3,98.3c.2-.2.4-.4.5-.6-.2,0-.5.2-.7.3,0,0,0,.2.1.3M35.3,51.8c.2-.2.4-.4.6-.5h-.1c-.2,0-.4.2-.4.5M121.2,42.6c.3,0,.5,0,.8,0,0-.1,0-.2,0-.3-.2,0-.4.1-.6.2,0,0-.2,0-.2.2M142,84.8l-.2.9c.2-.3.4-.5.5-.8,0,0,0-.1-.3-.2M132,63.2c0,0-.1,0-.2,0,0,0,0,0,0,0,.1.3.3.5.4.8l.3-.2c-.1-.2-.2-.4-.5-.7M1.3,72.9c.2,0,.3,0,.5,0,0-.2,0-.4.1-.7-.2.2-.3.3-.6.6M138.9,72.7c0,.2,0,.4-.1.6.2,0,.4,0,.5,0,0-.2-.2-.4-.4-.5M172.2,230.8c-.1,0-.2,0-.3.1.3,0,.5,0,.8,0,0,0,0-.2,0-.3-.2,0-.3,0-.6.1M112.6,30.3c-.1-.2-.2-.4-.3-.5,0,0-.2.2-.1.2.1.2.3.4.5.4M136.3,108.1c.2,0,.3.2.5.2,0-.1,0-.2.1-.3-.2,0-.4,0-.6,0M154.5,119.7c-.3-.1-.5-.2-.8-.3,0,0,0,.2,0,.2.2,0,.5.2.8.1M144.7,77.8c-.1,0-.2.2-.3.3.2,0,.3.1.5.2,0-.2,0-.3-.1-.5M167,244.5c-.3-.1-.6-.2-.9-.3,0,0,0,.1,0,.2.2,0,.5.2.8.1M121.1,59.5c0,.2-.1.5-.2.7,0,0,.2,0,.2,0,0-.3,0-.5,0-.7M124.1,59.1c-.2-.1-.3-.2-.5-.3,0,.1-.1.2-.2.3.2,0,.4.1.7,0M113,57.1c0,.1,0,.3,0,.4.2-.2.4-.3.6-.5-.2,0-.3,0-.6,0M98.3,96.6c.2.1.3.2.5.3,0-.1.1-.2.2-.3-.2,0-.4-.1-.7,0M173.9,149.1l-.5-.3c0,0,0,.2,0,.3.2.1.3.2.5,0M81.7,88.3c-.2,0-.5,0-.7,0,0,0,0,.2,0,.2.2,0,.5,0,.7-.2M36.7,150c.1.2.2.3.4.5,0,0,.1-.1.2-.2-.1,0-.2-.2-.6-.3M31.5,52.4c0-.2,0-.4-.1-.6h-.3c.1.3.2.5.4.6M145.5,91.8c.1.1.2.2.4.3,0-.1.2-.3.3-.4-.2,0-.3,0-.6,0M137,80.5c.2.1.4.2.6.3,0,0,0-.2,0-.3-.2,0-.4,0-.7,0M114,112.5c0,.1.2.2.3.3,0-.2.1-.4.2-.6-.1,0-.2.1-.4.3M133.7,41.2c0-.1-.2-.3-.2-.4-.1.1-.2.2-.3.3.1,0,.3.2.6.1M88.9,130c0,.2,0,.4.1.6,0,0,.2,0,.3,0-.1-.2-.2-.4-.4-.5M146.5,76.3c0,.2.2.4.3.5,0,0,.2-.1.2-.2-.1-.2-.2-.3-.5-.4M147,75.1c0,.2,0,.4,0,.7,0,0,.2,0,.3,0,0-.2-.1-.4-.3-.6M104.5,116.2c.2,0,.5.2.7.2,0,0,.1-.1.2-.2-.3,0-.5,0-.9,0M147.9,74c-.2,0-.3,0-.4.1,0,0,0,.3,0,.4.1,0,.3-.2.4-.5Z"/>
    <path d="M232.6,50.7c1.8.3,3.4.4,5.1.1,1.6-.2,3.2-.6,4.9-.7,1.7-.1,3.5-.2,5.3,0,1.2,0,1.8,1.2,2.6,2,1,1,2,1.9,3.1,2.8,1.5,1.3,3.1,2.5,4.6,3.7.8.7,1.6,1.4,2.2,2.3,1.2,1.4,2.2,2.9,3.4,4.3.8,1,1.7,1.9,2.6,2.8,1.3,1.5,2.5,3,3.9,4.4.8.8,1.9,1.4,2.9,2,1.1.7,2.3,1.3,3.4,2.1.6.4,1,.9,1.5,1.3,1.2.9,1.6,2.2,2,3.4.4,1.4.4,2.8.6,4.2.1,1.3,0,2.7.2,4,0,.6.3,1.2.5,1.8.2.6.3,1.2.5,1.8.2.9-.4,1.4-1.3,1.3-1.9-.2-3.8-.3-5.7-.5-1.8-.1-3.6-.3-5.4-.5-.6,0-1.2-.1-1.8,0-1.2.2-1.1-.5-1-1.2.3-1.3.8-2.6,1-3.9.5-2.8,1.3-5.6.5-8.4-.5-1.8-1.1-4-2.4-5.2-2.1-2-4.2-4.4-7.5-4.5-1.5,0-3,0-4.5-.3-1.8-.3-3.6-.8-5.3-1.4-.6-.2-1.1-1.1-1.5-1.7-1.3-2.3-3.3-3.8-5.4-5.1-.5-.3-1-.5-1.3-.9-.9-.9-1.9-.7-2.9-.6-2.4.4-5,.5-7.2,1.4-2.6,1-4.5-.1-6.7-.7-1-.3-2.1-.2-3.1-.3-1.7-.2-2.9.4-4.2,1.5-.9.8-2.1,1.2-3.2,1.7-.3.2-.5.3-.8.5-1,.3-1.6,1.3-2.9,1-.5-.1-1.3.5-1.8,1-1.6,1.8-3.7,3.2-4.9,5.5-.9,1.6-2.4,2.9-3.7,4.3-.9.9-1.7,1.8-2.7,2.7-.8.7-1.6.7-2-.3-.5-1.3-1.1-2.9-.8-4.2.3-1.5,1.2-2.8,2.8-3.6,1.5-.7,2.8-1.7,4.2-2.5,1.2-.7,2.5-1.3,3.7-2.1,1.5-1.1,2.2-2.9,3.3-4.3,1.2-1.4.8-2.9,1-4.3.5-2.7,1.1-5.4,3-7.5.6-.7,1.3-1.3,1.7-2,.2-.3,0-1-.1-1.5,0-.3-.3-.8-.2-.8.6-.3,1.2-.8,1.8-.8,1.4,0,2.8.1,4.2.2,2.1.1,4.2.3,5.9,1.6,1.2.9,2,2.3,3.8,2.3.3,0,.6.8,1.1.9,1,.4,2.1.7,3.2,1.1Z"/>
    <path d="M283.9,159.3c-.6.1-1.1.2-1.7.3-.8.1-1.2-.2-1-1,.2-1.1.4-2.1.6-3.2.3-1.4.5-2.9.7-4.3.2-1.2.5-2.3.6-3.5.2-1.6.7-3.2.4-4.9-.2-1,.2-2.1.4-3.2.1-.8,2.1-1,2.7-.3.1.1.2.4.3.4,1.4,0,2.8.2,4.1,0,1.7-.3,1.9-.3,2.7,1.4.7,1.5,1.5,3,2.2,4.5.2.3.2.7.3,1,.3.8.3,1.8,1.6,1.8,1,0,1.5,1.2,2.7,1.1.9,0,1.5,0,1.7-1,0-.3.3-.8.5-.9,1.3-.5.8-1.5.6-2.4-.2-1.2-.2-2.4-.5-3.6-.3-1.2-.8-2.4-1.3-3.5-.5-1.1-1.3-2.2-1.8-3.3-.1-.3,0-.9.4-1.2.8-.9,1.8-1.6,2.6-2.4.6-.6,1-1.3,1.5-2,.2-.3.4-.5.6-.8.4-.5.6-2.4,0-2.8-.5-.3-1.1-.4-1.7-.4-2.6,0-4.7,1.3-6.8,2.5-1.6.9-1.8,1-3.3-.2-.7-.5-1.2-1.3-2.3-1-.2,0-1.6,0-.6-1.1,0,0-.2-.4-.3-.4-1.2,0-2.3-1.2-3.7-.5,0,0-.6-.4-.5-.5.7-1.2.2-2.6.1-3.8-.2-2,.2-3.5,1.9-4.6,1.5-.9,3.1-1.7,4.3-3,1.8-1.9,4.2-2.1,6.5-2.8.9-.3,2,0,3.1,0,.5,0,1-.4,1.5-.4,2.8.2,5.1,1.4,6.9,3.4,1.7,1.9,3.4,4.1,3.8,6.7.4,2.5,1.3,4.8.9,7.5-.3,1.8,0,3.8-.4,5.6-.3,1.7-.9,3.4-1.6,5.1-.9,2.2-2,4.3-3,6.4-.7,1.5-1.3,3-2.1,4.4-.8,1.4-2,2.6-3,3.9-1.6,2.1-3.8,2.9-6.1,3.8-1.5.5-3,1-4.5,1.4-1.6.4-3.3.4-4.9.7-1.7.3-3.3.8-5,1.3Z"/>
    <path d="M194.8,32.2c1.4.4,2.8.7,4.1,1.3.6.3,1.3,1,1.5,1.7.6,1.8,1.5,3.3,2.5,4.8.3.5.5,1.2.4,1.8,0,.4-.7.7-1,1.1-.4.7-.7,1.4-1,2.1-1,2.5-1.6,5-1.6,7.7,0,2.3-1.4,4-3.2,5.2-1,.7-2.1,1.2-3.2,1.8-.9.5-1.3.2-1.7-.9-.5-1.6-1.2-3-1.8-4.6-.7-1.8-1.2-3.7-1.8-5.5-.1-.5-.2-1.1,0-1.6.6-1.6.1-3.1-.3-4.5-.4-1.4-1.1-2.8-1.9-3.9-.6-.8-1.7-1.5-2.7-1.9-1.4-.5-2.9-.6-4.3-1-1.1-.4-1.7.5-2.2,1-.7.5-1.2,1.5-1.6,2.4-.2.5,0,1.1,0,1.6,0,.2,0,.4,0,.6-1,1.5,0,2.7.6,3.9,1,2.1,1.9,4.3,3.2,6.3.7,1.1.5,1.6-.2,2.3,0,0-.1.2,0,.3.3,1.5-.3,2.8-.7,4.2,0,.2-.3.5-.5.5-1.9.1-3.9.2-5.8.2-.7,0-1.4-.4-2.1-.7-.9-.3-1.8-.6-2.6-.9-.3-.1-.4-.6-.6-.9.4,0,.7,0,1.1.1.2,0,.5,0,.7.1-.1-.2-.2-.5-.3-.6-1-1-1.7-2.1-1.8-3.5-.1-1.2-.5-2.4-.7-3.6-.3-2-.7-3.9-.7-6,0-2-.1-4,0-6,.2-1.9.2-3.7,0-5.5-.1-1.1,0-2.2.2-3.3,0-.3.6-.8.9-.9,1.8-.1,3.2-1,4.7-1.8,1.1-.7,2.5-.9,3.8-1.3.5-.1,1.1-.3,1.6-.1,1.6.4,3.2,1.1,4.9,1.5,1.6.5,3.2.9,4.8,1.2,1.9.3,3.4,1,4.7,2.5,1.1,1.3,2.4,2.4,4.3,2.3.2,0,.3.3.6.4Z"/>
    <path d="M204.8,85.9c1.5-3.1,3.9-5.1,6.7-7,1.8-1.2,3.7-2,5.8-2.4.9-.2,2,0,2.9,0,.4,0,.9-.1,1.3-.2.4,0,.9-.2,1.3-.2,1.3.1,2.5.3,3.8.5.3,0,.6.3.7.6,0,.1-.2.5-.5.7-1.7,1.1-3.2,2.3-4.4,4-.7,1-1.5,2-1.8,3.3-.3,1.4-.9,2.8-1.1,4.3-.2,1,0,2.2.2,3.2.1.8.3,1.2-.9,1.1-2.6-.2-5.2-.2-7.8-.3-1.3,0-2.5-.3-3.8-.4-1.2,0-2.3,0-3.5,0-2.5,0-5.1-.1-7.6-.2-2.6-.1-5.1-.3-7.7-.5-1.2,0-2.4-.3-3.6-.4-.5,0-1.1,0-1.6,0-1.4.3-2-.7-2.4-1.7-.6-1.4-1.5-2.7-2.7-3.5-2.1-1.3-3.3-3.3-4.4-5.3-.4-.6-.4-1.5-.6-2.2-.3-1.2-.5-2.4-1-3.5-.3-.6-.2-.9,0-1.5.5-.9.6-1.9,1.1-2.7.8-1.6,1.7-1.8,3.3-.9.3.2.8.1,1.2,0,.8-.2,1.4,0,1.9.6.4.6.8,1.2,1.3,1.8.8.8,1.8.7,2.7.6.8-.1,1.3.2,1.4.9.1,1.9.7,3.7.6,5.6,0,1,.5,2,.9,3,1.3,3.1,3.9,5,6.9,6.1,1.1.4,2.4.2,3.6,0,1-.3,2-.3,3.1-.5.9-.1,2,0,2.8-.4.7-.3,1.2-1.2,1.8-1.8,0,0,.2-.2.2-.4Z"/>
    <path d="M228.5,93.7c-1.5,0-1.5,0-1.2-1.4.7-2.6,2.6-4,4.8-5.2,1.6-.9,3.1-2,4.5-3.1,1.3-1.1,2.6-2.2,3.8-3.4.9-.9.3-1.9.2-2.9-.2-1.7-.8-3.2-1.9-4.5-.2-.2-.1-.8,0-.9.3-.1.8-.2,1.1,0,.8.6,1.5,1.3,2.1,2.1.7.9,1.4,1.9,2,2.9,1.4,2.4,3.8,2.8,6.2,3.3,1.5.3,2.9,0,4.4,0,1.6,0,3.2,0,4.7.8.8.5.9,1.1.8,1.7-.3,1.8-.5,3.7-1.2,5.4-.6,1.5-.9,3-.7,4.5,0,.1-.3.5-.4.5-1,0-2-.2-3-.1-1.8,0-3.5.2-5.3.3-2.2,0-4.4-.1-6.6,0-2.2.2-4.3,0-6.5-.2-1.1-.1-2.3.3-3.5.3-1.4,0-2.8-.1-4.3-.2Z"/>
    <path d="M287.2,133.9c-1.2,0-1.1,1-1.3,1.7-.1.5,0,1,0,1.5,0,.8-.7.9-1.2.9-.1,0-.3-.6-.3-1,0-1.1,0-2.2,0-3.3,0-.4.4-.9.8-1.2.7-.6,2.5,0,2.7.9,0,.1-.3.4-.6.5Z"/>
    <path d="M250.6,131.8c0-.5,0-.8,0-1.2.5.4,1.1.8,1.4,1.3.3.5.8,1.1,1.3,1,.7,0,1.3-.1,2-.2.3,0,.5-.2.8-.3.3,0,.6-.1.9-.2,0,.6,0,1.6,0,1.6-.9.2-1.9.3-2.9.2-.6,0-1.2-.4-1.9-.4-1-.1-1.7-.6-1.5-1.9Z"/>
    <path d="M180.8,102c.4-1,1.3-1.5,2.3-1.3.7.2,1.4.5,2.2.6.7,0,1.3-.2,2-.3.2,0,.5,0,.7,0-.2.2-.3.4-.5.5-.6.2-1.3.6-1.9.5-1.2,0-2.3.4-3.4.9-1.1.5-1.1.6-1.4-.9Z"/>
    <path d="M293.3,107c.4.3.7.5,1,.8.2.2.3.4.5.6-.3,0-.7.1-.8,0-1.9-1.3-3.4,0-5.1.6-.5.2-1.1.3-1.6.4,0,0-.3-.3-.3-.3.2-.2.3-.5.6-.6,1.1-.5,2.3-1,3.5-1.4.7-.3,1.4-.6,2.3,0Z"/>
    <path d="M264.1,206.7c-.5-.2-1-.3-1.3-.5-.2-.1-.3-.5-.4-.8.3,0,.9-.2.9,0,.4,1.1,1.4.5,2.1.9.4.3,1,.4,1.5.5.5,0,1,0,1.5-.1.2,0,.4,0,.5.2,0,.1,0,.4-.1.5-.2.2-.5.4-.8.4-1.3-.2-2.7.2-3.9-.8Z"/>
    <path d="M278.1,155.8c.5,0,1,0,1.5,0,.2,0,.3.2.5.3,0,.1-.1.4-.2.4-.9.2-1.8.4-2.7.4-.7,0-1.5-.1-2.2-.4-.4-.1-.7-.5-1-.8,0,0,0-.4,0-.4.2,0,.5-.2.8,0,1,.3,1.9.6,2.8.9.1,0,.3,0,.6-.2Z"/>
    <path d="M255.6,78.4c.4.2.8.4,1.1.6.1,0,.2.3.2.5-.2,0-.5.2-.5,0-.8-.7-1.5-.5-2.4-.2-1.2.3-2.5,0-3.7-.1-.1,0-.2-.3-.3-.4.2,0,.3-.3.5-.3,1.7,0,3.4-.2,5.2-.2Z"/>
    <path d="M184.3,25.5c-1.2-.5-2.3-.9-3.4-1.3-.2,0-.3-.5-.4-.7.3,0,.6-.2.9-.2.8.2,1.5.4,2.2.7.5.2.9.4,1.3.8.2.1.2.5.3.8-.3,0-.5,0-.8,0Z"/>
    <path d="M231.9,48.6c.4,0,.8,0,1.1,0,1,.6,1.9.2,2.8,0,.2,0,.5,0,.7,0,.3.1.5.4.7.6-.3,0-.5,0-.8.2-2,.7-3.9-.3-5.8-.5,0,0-.2-.2-.3-.2.1,0,.2-.2.3-.2.4,0,.8,0,1.3,0Z"/>
    <path d="M180.3,22.3c-.2.2-.4.3-.5.5-.1.4-.2.8-.3,1.2-.5-.2-1.1-.4-1.6-.7,0,0,0-.6,0-.6.5-.3,1.2-.4,1.5-.8.7-.9,1.4,0,2-.2,0,.2,0,.3,0,.5-.4,0-.7,0-1.2,0Z"/>
    <path d="M189.7,27c-.6.7-1-.2-1.5-.3-.4-.1-.9-.4-1.2-.7-.6-.6-1.2-1.2-1.8-1.8,0,0,0-.2,0-.2.2,0,.4-.2.5-.1.8.5,1.5,1,2.2,1.5.6.5,1.1,1.1,1.7,1.6Z"/>
    <path d="M184.8,64.7c-.3-.3-.5-.4-.7-.7-.2-.3-.3-.7-.4-1.1.6-.2,1.1-1,1.7-.1.3.4.6.8.6,1.3,0,.6-.5.8-1.2.6Z"/>
    <path d="M278.5,131.3c-.6,0-1.2.2-1.5,0-.7-.5-1.3-1.2-1.2-2.2,0,0,.5-.3.6-.2.8.8,1.5,1.6,2.1,2.4Z"/>
    <path d="M188.6,120.2c-.7-.4-1.2-.5-1.8,0-.2.2-.7,0-1,0-.4,0-.7-.2-1.1-.3-.3,0-.6,0-.9.1,0-.2.2-.5.3-.5.4-.1,1.2-.3,1.2-.2.3.8.7.2,1,.2.7-.1,1.3-.2,2-.2.3,0,1.2.2.3.9Z"/>
    <path d="M184.4,97.7c0,0-.1,0-.2,0-.3-.2-.6-.4-.9-.5.3,0,.6-.2.9-.1.5,0,1,.1,1.5.2.1,0,.3.2.3.3.2.6.3,1.3,1.2,1.2,0,0,.1.3.2.5-.2,0-.4.1-.5,0-.8-.5-1.6-1-2.5-1.5Z"/>
    <path d="M199,63.3c.5-.2,1.1-.5,1.6-.4.8.2,1.7,0,2.3.9,0,.1.2.2.3.4-.1,0-.3.3-.4.2-1.2-.3-2.5-.6-3.7-1.1Z"/>
    <path d="M237,107.6c-.9-.3-1.6-.7-2.5-.3-.1,0-.4-.3-.6-.4.1-.1.2-.3.4-.4.9-.6,1.8-.5,2.7.1.4.3.6.5,0,.9Z"/>
    <path d="M192.9,86.1c-1.1,0-2.1.5-3-.2-.1-.1-.2-.3-.4-.4.1-.1.3-.3.4-.3,1.3-.3,2.5,0,3,.9Z"/>
    <path d="M184.5,94.3c.2-.3.5-.7.6-.6.6.3,1.1.6,1.6.9,0,0,0,.5-.1.5-.6.1-1.2.3-1.8.2-.7,0-.9-.4-.4-1.1Z"/>
    <path d="M279.4,133.3c.7.1,1.4.2,2.1.3.3,0,.6.2.9.4,0,0,.2.2.1.3,0,0-.2.2-.3.2-.8,0-1.7.1-2.5,0-.4,0-.7-.6-1.1-1,.2,0,.4-.2.7-.2Z"/>
    <path d="M226.9,46.9c-.2-.2-.3-.4-.5-.5.2-.1.5-.3.7-.3.9.2,1.9.4,2.8.7,0,0,.1.1.2.2,0,0-.2.2-.3.2-.9,0-1.9-.1-2.9-.3Z"/>
    <path d="M195.1,31.1c0-.2,0-.4.1-.4,1,.2,2.1.3,3.1.6.2,0,.4.3.7.5-.4.1-.7.4-1,.3-.9-.2-1.8-.6-2.8-.9Z"/>
    <path d="M286.1,165.4c-.5.2-1,.5-1.4.6-.2,0-.5,0-.7-.1,0-.2.1-.6.3-.7,1-.3,2-.5,3-.8.1,0,.3.2.4.2-.1.1-.2.4-.3.4-.4.1-.8.2-1.2.3Z"/>
    <path d="M276.2,73.2c.3.3.5.5.7.8-.2,0-.5,0-.7,0-.8-.2-1.6-.4-2.4-.7-.2,0-.3-.3-.4-.5.3,0,.5-.1.8,0,.7.2,1.3.4,2.1.6Z"/>
    <path d="M184.7,98.6c.3.4.4.8-.2.7-.8,0-1.5-.1-2.3-.2-.2,0-.3-.3-.4-.4.1,0,.3-.2.4-.2.8,0,1.6.1,2.6.2Z"/>
    <path d="M247.4,122.8c.3,0,.7,0,.9.3.3.4.5.8.8,1.3,0,.2.2.4.2.6-.3,0-.9.2-.9,0-.3-.7-1.4-1.1-1-2.2Z"/>
    <path d="M283.5,132.8c-1.2,0-2.4-.2-3.5-.4-.1,0-.2-.1-.3-.2,0,0,.1-.2.2-.2,1.2,0,2.3.2,3.5.3,0,0,.2.3.2.5Z"/>
    <path d="M186.6,114.1c-.2,0-.4,0-.6,0,0-.1,0-.3.1-.4.9-1.1,1.9-1,2.5,0,0,.2,0,.4.1.5-.2,0-.5,0-.6,0-.5-.3-.9-.8-1.5-.2Z"/>
    <path d="M244.8,113.7c.3-.2.5-.4.7-.4.3,0,.6.2.9.3-.2.2-.3.4-.5.6-.2.2-.4.3-.6.4-.3.1-.6.2-.9.3.1-.4.3-.8.5-1.2Z"/>
    <path d="M238.4,42.1c-.6-.2-1.1-.3-1.6-.4-.1,0-.2-.2-.3-.2,0,0,.1-.2.2-.2.6,0,1.3.2,1.9.3.3,0,.5,0,.8,0,.3,0,.5,0,.8,0-.2.2-.3.5-.5.5-.4.1-.8,0-1.3,0Z"/>
    <path d="M184,61.3c-1,.7-2.3.5-3-.4,0,0,0-.2,0-.3,0,0,.2-.2.2-.2.9.3,1.8.6,2.8.9Z"/>
    <path d="M273.8,160.4c.4.3.7.5,1,.8.1.1.3.3.4.4-.2,0-.4.2-.6.1-.6-.1-1.2-.2-1.7-.5-.2,0-.3-.5-.4-.8.2,0,.5-.1.7-.2.2,0,.4,0,.6.1Z"/>
    <path d="M235,41.7c-.4,1.1-1.2.5-1.8.6-.1,0-.3-.2-.5-.2-.2,0-.5-.1-.7-.2.3-.2.5-.5.8-.5.7,0,1.5,0,2.2,0,0,0,0,0,0,0,0,0,0,.1-.1.2Z"/>
    <path d="M276.5,134c-.2-.3-.5-.5-.5-.7,0-.4.2-.7.3-1.1.2.3.4.5.6.8.1.2.3.4.4.6,0,.2,0,.5-.1.8-.2-.1-.4-.2-.6-.4Z"/>
    <path d="M269,68.6c.6,0,1.2.1,1.8.3.2,0,.2.3.4.5-.2.1-.5.4-.6.4-.7-.3-1.3-.6-1.9-1,0,0,.2-.1.4-.2Z"/>
    <path d="M246.3,120.2c0,0,0-.1,0-.2,0-.2.1-.3.2-.5.5.5,1,1,1.5,1.6,0,0,0,.3-.1.5-.3,0-.6,0-.8-.3-.3-.3-.4-.7-.7-1.1Z"/>
    <path d="M306.7,154c-.6-.4-.7,0-.9.4-.1.2-.4.4-.6.5,0,0-.5-.4-.4-.4.1-.3.3-.6.6-.7.5-.2,1-.3,1.5-.4.1,0,.3.2.4.4-.2,0-.3.2-.5.3Z"/>
    <path d="M187.2,17.3c.3.3.5.5.7.8-.3,0-.6,0-.9-.1-.6,0-1.2-.1-1.7-.2-.1,0-.3-.2-.4-.2.1,0,.2-.2.3-.2.6,0,1.2,0,2,0Z"/>
    <path d="M286.1,111.5c-.3-.1-.5-.3-.7-.4.2-.1.3-.3.5-.4.2,0,.4-.1.5,0,.4.2.8.4,1.2.6,0,0,0,.3,0,.3-.5,0-.9,0-1.5,0Z"/>
    <path d="M179.2,68.9c-.7.2-1.5.3-2.2.4,0-.2,0-.4,0-.6.7,0,1.5,0,2.2.2Z"/>
    <path d="M230.7,63.7c-.9.6-1.6.6-2.3-.2,0,0,0-.3,0-.5.7.5,1.8-.5,2.3.6Z"/>
    <path d="M196.7,107.8c.3,0,.4.2.6.2.3,0,.5.1.8.2,0,.2,0,.5-.1.5-.4,0-.7,0-1.1,0-.3,0-.6,0-.9,0-.1,0-.3,0-.4.1,0-.2,0-.4.1-.5.3-.2.6-.3,1-.5Z"/>
    <path d="M298.2,159c.2.2.3.4.4.6-.8.2-1.6.5-2.4.7-.1,0-.3-.2-.4-.3.1-.1.3-.3.4-.4.6-.3,1.3-.5,2-.6Z"/>
    <path d="M188.9,75.5c.3.2.6.5.8.7-.2.1-.5.4-.7.4-.5-.2-1-.5-1.5-.8.2-.1.3-.3.5-.4.2,0,.5,0,.9,0Z"/>
    <path d="M226.6,73c.2.2.3.4.5.5-.2,0-.4.1-.6.1-.1,0-.2-.1-.4-.2-.5-.2-1-.4-1.5-.5.7,0,1.3,0,2.1,0Z"/>
    <path d="M251.7,48.8c.2.2.3.5.2.5-.3.2-.6.3-1,.4-.4,0-.7,0-1.1,0,.4-.3.8-.6,1.2-.9.1,0,.4,0,.7,0Z"/>
    <path d="M265.7,82.1c.4.4.7.7,1,1,.1.2.2.4.3.6-.2,0-.5.1-.6,0-.4-.4-.8-.8-1.2-1.2,0,0,.3-.3.5-.4Z"/>
    <path d="M315.3,136.6c-.2-.2-.2-.5-.2-.7.3,0,.7,0,.9.1.4.3.7.8,1,1.2-.4-.2-.8-.4-1.3-.6,0,0-.2,0-.3,0Z"/>
    <path d="M250.1,126.6c-.6,0-1.1,0-1.6-.1,0,0,0-.3,0-.4.3-.2.7-.4,1-.3.3,0,.4.5.6.8Z"/>
    <path d="M193.5,62.6c-.3-.5-.5-1-.7-1.5.3.3.7.5,1,.8.2.2.4.4.6.5-.3,0-.5.1-.9.1Z"/>
    <path d="M170.7,65.5c.5,0,.9.2,1.4.3.2,0,.4.4.5.5-.3,0-.7.3-.9.2-.4-.2-.7-.6-1-1Z"/>
    <path d="M295.7,106.9c-.5-.1-.8-.2-1.1-.3.3-.1.7-.3,1.1-.4.2,0,.4,0,.5,0,.2,0,.4.2.6.3-.3,0-.6.2-1.1.3Z"/>
    <path d="M248.1,117c.2.3.3.6.4.9-.4,0-.8,0-1.2-.2-.1,0-.2-.3-.3-.5.3,0,.7,0,1.1-.1Z"/>
    <path d="M269.4,180.8c-.5-.2-.9-.4-1.4-.6.2-.2.4-.4.5-.6.3.4.6.8.8,1.2Z"/>
    <path d="M273.7,174c.6-.2,2.1.8,1.9,1.4,0,0-.3.2-.4.2-.3-.2-.5-.5-.7-.8-.3-.3-.6-.5-.9-.8Z"/>
    <path d="M270.6,175.5c-.2,0-.4,0-.6,0-.3,0-.6-.2-.9-.3.1-.1.2-.3.3-.4.3,0,.7-.2,1-.1.1,0,.2.4.2.7Z"/>
    <path d="M276.1,172.7c.3-.1.5-.2.7-.2.2,0,.4.3.6.5,0,0,0,.1,0,.2-.2,0-.4,0-.5,0-.3,0-.5.2-.8.2-.1,0-.3-.1-.5-.2.1-.2.2-.3.4-.6Z"/>
    <path d="M183.1,93.2c-.6-.4-.5-.7,0-.7.5,0,1,.2,1.6.3,0,0,0,.2,0,.3h-1.6Z"/>
    <path d="M201.3,49.5c-.1.1-.3.2-.4.2,0-.6.1-1.2.3-1.8,0-.1.3-.2.4-.2,0,.1.2.3.1.4,0,.4.3,1.1-.4,1.4Z"/>
    <path d="M201.8,50.3c.2,0,.4.1.5.2.3.1.5.2.8.3-.3.2-.7.6-.9.6-.3,0-1.1-.3-.4-1Z"/>
    <path d="M180.2,50.7c-.8,1-.8-.3-1.2-.4,0,0,0-.2-.1-.4.4,0,.7.1,1.1.2.1,0,.2.3.2.5Z"/>
    <path d="M219.4,61.5c.2.2.4.3.5.4-.1,0-.3.2-.4.2-.1,0-.2,0-.3,0-.4-.1-.7-.3-1.1-.4.3,0,.7-.2,1-.3,0,0,.2,0,.3,0Z"/>
    <path d="M318.1,131.5c.2.2.3.4.4.6-.4,0-.9,0-1.3,0,0,0,0-.3-.1-.5.3,0,.6,0,1.1,0Z"/>
    <path d="M250.4,117c-.2.2-.4.4-.7.5-.2-.3-.4-.6-.5-1,0,0,.2-.3.3-.4.3.3.5.5.8.9Z"/>
    <path d="M244.1,48.4c.3,0,.5.2.7.3-.2,0-.3.2-.5.2-.2,0-.4,0-.5,0-.3,0-.5,0-.8.1,0-.1,0-.4,0-.4.3,0,.5-.1.8-.2,0,0,.2,0,.3,0Z"/>
    <path d="M206,53.5c.4,0,.7,0,1,0,.2,0,.4,0,.6.1-.1.1-.2.4-.4.4-.4,0-.9.1-1.3.1,0,0-.2-.2-.3-.4.1,0,.3-.1.4-.2Z"/>
    <path d="M278.4,157.5c.3,0,.5.2.7.3-.3,0-.5.1-.8.2,0,0,0,0-.1,0-.3,0-.6,0-.9,0,.3-.2.7-.3,1.1-.6Z"/>
    <path d="M252.4,42.6c.4.3.7.6,1,.9,0,.1,0,.3.1.5-.2,0-.3,0-.5-.2-.4-.3-.7-.6-1.1-1-.1,0-.2-.2-.2-.4.2,0,.4,0,.7.1Z"/>
    <path d="M250.3,128.8c-.3-.2-.6-.3-.9-.5.1-.2.2-.5.4-.5.2,0,.6,0,.7.2.1.2.1.6.2.9,0,0-.2,0-.3-.2Z"/>
    <path d="M235.6,46.9c.3-.2.6-.3.8-.4,0,0,.2.2.3.3,0,0,0,.2-.2.2-.4.1-.9.3-1.3.3-.2,0-.4-.2-.5-.3.3,0,.5,0,.9-.2Z"/>
    <path d="M165.8,18.6c.4,0,.7,0,1,.2-.1.3-.2.5-.3.8-.2-.3-.5-.6-.7-1Z"/>
    <path d="M303.4,104.4c.4,0,.7-.1,1,0,.2,0,.4.3.6.5,0,0,0,.2,0,.3-.2,0-.4-.2-.6-.3-.3,0-.6,0-1-.2,0,0,0-.2,0-.4Z"/>
    <path d="M271.1,172.8c-.1.2-.3.4-.4.4-.3,0-.6,0-.9,0,0-.2,0-.4.1-.5.3-.1.6-.1.9-.2,0,0,.2,0,.3.2Z"/>
    <path d="M258.1,56.1c-.4-.2-.8-.3-1.1-.6-.2-.2,0-.6-.1-.9.1.2.2.4.4.6.3.3.6.6.8.9Z"/>
    <path d="M184.2,125.9c-.7,0-1.3,0-1.9,0,0,0-.1-.2,0-.3,0,0,.2-.1.3-.1.6.1,1.2.2,1.7.4Z"/>
    <path d="M234,62.7c0,.2,0,.3,0,.4,0,.3,0,.7,0,1,0,0,0,0-.2,0,0-.1,0-.2,0-.3-.1-.5-.8-.9-.1-1.5,0,0,.2.1.3.3Z"/>
    <path d="M189.5,83.7c.1.2.2.3.2.4-.3,0-.7,0-.9-.2-.3-.2-.4-.6-.6-.8.3,0,.6.2.9.3.1,0,.2.2.4.4Z"/>
    <path d="M227.5,44.7c0-.2-.1-.3-.1-.4.1,0,.2.1.3.2.4.1.7.3,1.1.4,0,0,0,.2.1.2-.4,0-.9-.2-1.4-.4Z"/>
    <path d="M182.6,122.5c-.2-.3-.4-.5-.5-.8.2,0,.4,0,.6-.1,0,.3.8.6,0,.9Z"/>
    <path d="M222.8,85.4c.1.3.2.6.2.8-.3,0-.5-.2-.8-.2.2-.2.3-.4.6-.6Z"/>
    <path d="M294.1,159.9c.3.2.4.4.6.7-.3,0-.6,0-.8,0-.2,0-.3-.2-.5-.4.2,0,.4-.2.7-.3Z"/>
    <path d="M298,162c.3.1.5.2.7.3-.2.2-.5.6-.7.5-.3,0-.6-.3-.9-.5.3-.1.5-.3.8-.3Z"/>
    <path d="M281.7,143c.3.2.4.5.5.7-.3,0-.5,0-.8,0,0-.3,0-.5.3-.8Z"/>
    <path d="M228.2,88.4c-.1-.2-.3-.5-.2-.6.2-.3.5-.5.8-.7,0,.3,0,.6-.2.9,0,.2-.2.3-.4.4Z"/>
    <path d="M279.9,150.2c-.2-.2-.3-.3-.3-.5.2,0,.5,0,.7,0,.3,0,.5,0,.8.1,0,0,0,.3-.1.3-.3,0-.6,0-1,0Z"/>
    <path d="M207.1,52.4c.3-.2.6-.4.9-.6,0,.1.1.3.2.4-.3,0-.7.2-1.1.2Z"/>
    <path d="M211.7,36.2c.2,0,.4,0,.5,0,.2.1.3.3.5.5-.4,0-.7,0-1.1.1,0-.2,0-.4.2-.7Z"/>
    <path d="M181.3,70.5c-.3.2-.6.3-.8.2-.2,0-.2-.4-.3-.6.4,0,.7.2,1.1.4Z"/>
    <path d="M280.3,154.7c-.2,0-.4.1-.5,0-.3-.2-.5-.4-.8-.6.2,0,.3-.1.5-.1.4,0,1-.3.8.6Z"/>
    <path d="M254,46.3c-.3-.9.4-.4.7-.5,0,0,.2.2.3.3-.3,0-.6.2-1,.2Z"/>
    <path d="M231.3,105c-.1.2-.3.5-.4.5-.2,0-.4-.3-.6-.4.3,0,.6,0,1,0Z"/>
    <path d="M284.4,119.1c-.2-.2-.4-.3-.6-.4.2-.1.4-.3.7-.4.2,0,.4.2.6.3-.2.2-.4.3-.7.4Z"/>
    <path d="M276.8,113.3c-.2-.4-.3-.8-.4-1.2.1,0,.3,0,.4,0,0,.4,0,.8,0,1.2Z"/>
    <path d="M258.7,71.6c0,.2-.2.5-.3.4-.3,0-.5-.3-.8-.5.3,0,.7,0,1.2,0Z"/>
    <path d="M183.4,41.4c0-.3.2-.5.4-.7.1,0,.4,0,.5,0,0,0,.1.2.2.4-.2,0-.3.1-.5.2-.2,0-.4.2-.6.2Z"/>
    <path d="M268.7,205.2c-.1.1-.2.3-.3.3-.3,0-.5-.1-.8-.2,0,0,.2-.3.3-.2.3,0,.6,0,.8.2Z"/>
    <path d="M185.2,118.2c0-.3.2-.6.4-.9.2.2.3.3.5.5-.3.1-.5.3-.9.4Z"/>
    <path d="M314.7,112.5c-.4,0-.7-.1-1-.2.2-.2.4-.4.6-.6.2.2.3.5.4.7Z"/>
    <path d="M259.3,218.9c.1-.3.3-.5.4-.7.1.2.2.4.3.7-.2,0-.5,0-.7,0Z"/>
    <path d="M187.2,74.3c-.4.1-.7.2-1.1.2.1-.2.2-.6.3-.6.3,0,.5.2.7.4Z"/>
    <path d="M304,155.5c0,.2,0,.4-.2.6-.2,0-.3-.2-.5-.3.2-.1.4-.3.6-.4Z"/>
    <path d="M196.5,60.3c-.3,0-.5-.2-.7-.3.2-.1.5-.3.7-.4,0,.2,0,.5,0,.7Z"/>
    <path d="M273.5,158.3c-.2-.2-.3-.5-.4-.7,0,0,.1-.2.2-.2,0,.3.2.6.2,1Z"/>
    <path d="M315.7,110.2c-.2.1-.4.2-.6.3,0,0,0-.2-.1-.3.2,0,.5,0,.8,0Z"/>
    <path d="M234.6,45.1c-.3,0-.6-.2-.9-.4,0,0,0-.2.1-.3.3.2.5.4.7.6Z"/>
    <path d="M184.7,41.9c.3-.1.6-.1.9-.1,0,0,0,.2,0,.2-.3,0-.6,0-.9-.1Z"/>
    <path d="M223,300c.2,0,.4,0,.6,0-.3.2-.6.5-.9.7,0,0-.2,0-.2,0,.1-.2.3-.5.4-.8Z"/>
    <path d="M195.7,84.8c-.1.2-.3.3-.5.4,0-.2,0-.4,0-.6.2,0,.4.1.6.2Z"/>
    <path d="M231.4,47.6c0,0-.1-.1-.2-.2,0-.2-.1-.4-.2-.6.1,0,.2,0,.3,0,0,.3,0,.5,0,.8Z"/>
    <path d="M262.3,208.9c0,.2-.1.4-.3.6,0,0-.1,0-.2-.1.1-.2.2-.3.5-.5Z"/>
    <path d="M225,62.8c-.2-.1-.4-.3-.6-.5,0,0,0,0,.1-.1.2.2.4.4.5.6Z"/>
    <path d="M178,66.8c0,.1,0,.2,0,.2-.3,0-.5.2-.8.2,0,0,0-.1,0-.2.3-.1.6-.3.8-.3Z"/>
    <path d="M190.9,27.2c0-.3.1-.5.2-.7,0,0,.2.1.3.2-.2.2-.3.4-.5.5Z"/>
    <path d="M268.5,177.8c-.2-.1-.3-.3-.4-.5h.5c0,0,0,.3-.1.5Z"/>
    <path d="M255.2,71.2c0,.2,0,.3,0,.5-.2,0-.3-.1-.5-.2.1,0,.2-.2.5-.3Z"/>
    <path d="M307.1,151c.1-.2.3-.4.5-.6,0,0,0,0,.1.1-.2.2-.4.4-.6.5Z"/>
    <path d="M307.3,152.1c.2,0,.4,0,.5,0,0,0,0,.2,0,.4-.2,0-.4-.2-.6-.4Z"/>
    <path d="M177.1,97.9c-.1.2-.3.3-.4.4,0-.1-.1-.2-.2-.3.2,0,.4-.1.6,0Z"/>
    <path d="M203,52.4c0,.2.1.3.1.4-.2-.2-.4-.3-.6-.5.2,0,.3,0,.5,0Z"/>
    <path d="M231,45.6c-.2.1-.5.1-.7.1,0,0,0-.2,0-.2.2,0,.5,0,.7.1Z"/>
    <path d="M275.1,152c0-.2,0-.4,0-.6,0,0,.2,0,.3,0-.1.2-.2.4-.4.5Z"/>
    <path d="M308.9,151.4c.2,0,.4,0,.6,0,0,0,0,.2,0,.3-.2-.1-.4-.2-.5-.4Z"/>
    <path d="M161.5,56c.2.1.3.3.4.5-.1,0-.3,0-.4,0,0,0,0-.2,0-.4Z"/>
    <path d="M188.1,77.9c0,.2,0,.4,0,.5-.1,0-.2,0-.3-.1,0-.2.1-.3.3-.4Z"/>
    <path d="M264.2.7c-.2,0-.5.2-.8.2,0,0,0,0,0-.2.3,0,.5,0,.9,0Z"/>
    <path d="M248.6,115.7c-.2,0-.4,0-.5,0,0,0,0-.3,0-.3.2,0,.4,0,.6,0,0,0,0,0,0,0,0,0,0,0-.1.1Z"/>
    <path d="M291.7,162.4c.2,0,.3.1.4.2-.2,0-.4.1-.6.2,0-.1.1-.2.2-.4Z"/>
    <path d="M272.9,156.4c.1.2.2.4.2.6,0,0-.1,0-.2,0,0-.2-.1-.4,0-.6Z"/>
    <path d="M39.6,108.9c-.3,1.6-.5,3.1-.8,4.6,0,.3-.1.6-.2.9-.3-.2-.7-.3-.8-.5-.4-.7-.6-1.5-1-2.2-.4-.8-.9-1.5-1.4-2.2-.6-1-1.3-1.9-1.9-2.9-.5-.8-.2-1.4.3-2.1.2-.3.3-.7.4-1.1.2-1.1.7-2.2,0-3.5-.6-1.2-2.2-1.7-3.4-1-1.7,1-2.8.7-4-.8-.6-.8-1.4-1.3-2.2-2-.2-.2-.6-.1-.8-.2,0,.2,0,.4,0,.6,0,.2,0,.4-.1.5,0,0-.4,0-.4,0-.9-1.1-1.4.2-1.4.4-.1.9-.7.7-1.2.8-.3,0-.9.2-.9.2,0,.5,0,1,.3,1.4.2.4,1,.9.9,1.1-.5.9-1,0-1.3-.2-.9-.4-1.6-1-1.6-2.3,0-1.6-.3-3.3-.4-4.9,0-.7.3-1.5.5-2.2.2-.7.6-1.4.8-2.2.3-1.1,1.2-1.7,2.4-1.6,3.1.2,5.8,1.6,8.4,3,2.7,1.4,4.4,3.8,5.8,6.5.8,1.6,2,3.1,3,4.6,0,0,0,.3,0,.3,2.1,1,1.4,2.8,1.2,4.3,0,.8-.3,1.5-.4,2.4Z"/>
    <path d="M27.4,250.8c.9.5,2,.4,2.5,1.4,0,.1.5.1.7,0,1.2-.3,2,.5,2.8,1,.2,0,.2.3.3.5-.2,0-.4.3-.6.3-.6,0-1,.1-1,.9,0,.2-.3.3-.5.5,0-.2-.1-.4-.2-.6,0-.1,0-.3,0-.3-.3-.2,1.3-2.6-.9-.8-.1,0-1-.6-1.4-1-.3-.3-.5-.8-.8-.9-1.2-.4-2.5-.9-3.8-.3-.3.1-.9,0-1.2,0-1-.5-2.4.5-3.3-.8-.1.1-.2.2-.4.3.4.4.7.8,1.1,1.2.3.3.6.5.8.7-.2.2-.4.4-.6.6-.7.5-1.7.9-1.4,2.2,0,.1-.3.4-.5.5,0,0-.4-.2-.4-.4,0-.6.1-1.1,0-1.7,0-.2-.2-.4-.3-.7,0,.2-.2.3-.3.5-.2.7-.3,1.4-.5,2.1,0,.2-.3.4-.5.6-.1-.2-.3-.5-.4-.7,0-.5,0-1,0-1.5,0-.2-.1-.5-.3-.7-.2-.2-.5-.2-.8-.2,0,.2,0,.5.1.7,0,.5.3,1,.3,1.5,0,.4-.2.6-.6,0-.3-.6-.9-1.2-1.2-1.8-.2-.3-.4-.9-.2-1,.4-.4,1-.7,1.6-.8.5-.1,1.2,0,1.7.2.8.1,1.1-.2,1.1-1,0-.1,0-.3,0-.4.5-.8.4-.6-.3-1-.9-.5-1.8-.1-2.8-.2-.6,0-1.1-.6-1.6-.9,0,0,.1-.2.2-.2.4,0,.7-.1,1.1,0,1.1.1,2.2.3,3.3.5.4,0,.8,0,1,.2.9.6,1.8.2,2.8.3.6,0,1.6-.3,2,.8.1.3,1.1.2,1.7.3.4,0,.7.2,1.2.2Z"/>
    <path d="M29,119.7c-1.1-.8-2.3-1.4-3.2-2.4-.6-.6-1.8-1.2-1.2-2.4.7-1.2,1.6-2.2,2.4-3.3.3-.3,1.1.2,1.3.6.7,1.6,1.4,3.3,2.1,4.9.6,1.4,1.3,2.7,1.9,4,0,.2-.2.6-.4.9-.2-.1-.4-.2-.6-.3-.8-.7-1.6-1.4-2.4-2.1Z"/>
    <path d="M61.3,295.7c-.7,0-1.2.8-1.9.3,0,0-.3.2-.4.3.1,0,.3.1.4.2.8.1,1.7.3,2.5.4.1,0,.3,0,.3,0,.4.3.7.5,1.1.8-.4,0-.8,0-1.1.1-.5,0-1,.2-1.5.3,0,.1,0,.4.1.4.3,0,.6,0,.8,0,1.8-.3,3.4.3,4.5,1.8.1.1,0,.4,0,.6-.4,0-1,0-1.1-.1-.7-1.3-.8-.4-1.1.2,0,.2-.3.5-.5.5-.4,0-.7-.2-1.1-.3.1-.1.2-.2.3-.3.2-.2.4-.3.6-.5-.2,0-.4-.2-.7-.3-.2,0-.5-.2-.7-.1-1.2.2-2.2-.3-2.7-1.4-.7-1.5-1.3-1.9-3.1-1.7-.4,0-.8-.4-1.2-.6.4-.4.7-.7,1.1-1.1.1,0,.5,0,.5-.1,0-1.4,1.2-1.2,1.9-1.3,1.3,0,2.5.4,3.3,1.6,0,0-.3.3-.5.4Z"/>
    <path d="M37.7,165.2c.3-.6.5-1.1.9-1.4.2-.2.6-.2.9-.3,0,.3,0,.6,0,.9-.1.9-.4,1.7-.5,2.5,0,.8-.4.9-1.1.7-.3-.1-.8,0-1.2.1-.3,0-.5.2-.7.4,0-.3,0-.9.1-.9.7-.2.2-.5,0-.5-1.2-.2-1.3-1.1-1.5-2,0-.3-.2-.7-.3-1-.2.3-.4.6-.6.9-.1.2-.2.3-.3.5,0-.2-.2-.4-.2-.6,0-.4,0-.8,0-1.1.1-.4.4-.7.6-1.1.2.2.3.5.5.7.1.1.4.2.6.2.4,0,.9-.2,1.3-.2.4,0,.8.2,1.3.3-.3.2-.6.3-1,.5-.3.1-.7.1-.8.3-.1.3-.1.8.5.7,0,0,.1.2.2.2,0,.2,0,.5.1.7.5.4.7,0,1-.4Z"/>
    <path d="M25.9,252.6c2-.3,3.6.4,3.6,2,0,1.2.7,1.3,1.2,1.8.1.1.3.3.3.4,0,.2-.2.4-.4.5-.2,0-.5,0-.7,0-.4.1-.8.3-1.2.5,0-.5,0-1,.1-1.5.3-1.2,0-2.1-1.1-2.4-.6-.2-1.2,0-1.9,0-.3,0-.6-.1-.8-.2-1.2-.5-2.4,0-2.6,1.4,0,.6-.3,1.1-.5,1.7,0,0-.2.2-.2.2-.2-.2-.5-.4-.4-.6.2-.8,0-1.6.6-2.4.5-.6.6-1.5,1.6-1.5.8,0,1.5,0,2.3,0Z"/>
    <path d="M49.7,246c.5.7.3,1.3-.2,1.9-.6.6-.5.6.1,1,.5.3,1.1.7.4,1.5-.2.2-.2.7-.4,1-.1.3-.3.6-.5.8-.3-.2-.7-.3-.8-.5-.3-.5-.5-.9-1.2-.7,0,0-.5-.5-.5-.8.1-.7.4-1.4.7-2.1.1-.3.4-.6.7-.9.5-.5,1-.9,1.6-1.3Z"/>
    <path d="M32.4,229.7c1.1,0,2.1.2,3.1.2.3,0,.6-.4.9-.6-.2-.2-.5-.3-.7-.5-.2-.2-.3-.4-.5-.6.2,0,.5,0,.7,0,.6.2,1.3.4,1.9.7.2,0,.4.4.3.5-.7.9-.8,1.9-.2,2.9,0,.1,0,.5-.1.5-.5,0-1,0-1.5,0-.9-.3-.7-1-.5-1.6,0-.2,0-.4.1-.6-.2,0-.4,0-.5,0-1.1.3-2.2.6-3.4.8-.1,0-.4,0-.4-.1.1-.5-.4-1.3.7-1.5Z"/>
    <path d="M20.7,107.1c-.7.9-.9.9-1.1,0-.4-1.3-.6-2.6-.9-3.9,0,0,0-.2,0-.2,0-.4-1-1,0-1.3.4-.1.9.4,1.4.6.2,0,.3.3.4.4,1.9,1,1.6,3.1.3,4.3Z"/>
    <path d="M40.2,160.8c-1,1.1-2.3,1.5-3.7,1.3-.4,0-.8-.9-1-1.4-.1-.3,0-.7.1-1.1,0-.1.4-.2.6-.2.8,0,1.6-.1,2.3,0,.6.2,1.1.8,1.7,1.3Z"/>
    <path d="M78.2,309.9c1.6.7,2.8,1.9,4.5,2,.1,0,.3.2.4.4-.2.1-.4.3-.6.3-.8,0-1.6,0-2.4-.2-.3,0-.6-.5-.9-.7-.8-.6-1.7-1.1-2.5-1.6-.2-.1-.4-.3-.5-.5-.2-.4-.4-.5-.7-.1-.1.2-.4.2-.6.3-.1-.4-.3-.8-.3-1.3,0-.2.3-.5.4-.5.4,0,.8.2,1.2.4.7.4,1.3,1,2,1.5Z"/>
    <path d="M33.6,133.3c-.7-.2-1.4-.4-2.1-.7-.2,0-.3-.5-.4-.8.3,0,.5-.2.8,0,1,.4,1.8.3,2.4-.8.4-.7.7-.3,1.1,0,.4.4.8.7,1.2,1.1.2.2.6.5.7.8,0,.2,0,.6-.1.8-.4-.2-1.1-.3-1.1-.5-.5-1.8-1.4-.7-2.2-.3,0,0-.2.2-.2.3Z"/>
    <path d="M45.6,293.7c.8,1.4.8,1.4,2,.6,0,0,.2-.2.2-.2.7.7,1.6.5,2.4.7,0,0,0,.2,0,.3,0,0-.2,0-.3,0-1,0-2.1,0-3.1,0-.2,0-.4.2-.5.4-.4,1-.8,1.9-1.9,2.2-.2,0-.4,0-.5,0,0,0,0-.3,0-.4.7-1,1.3-2,.9-3.3,0,0,.5-.3.8-.4Z"/>
    <path d="M42.1,254.8c.9-.9,1.8-.3,2.7-.2.8.1,1.7.4,2.5.7.2,0,.4.5.4.7-.2.5-.5.9-.8,1.3-.2-.3-.4-.5-.5-.8-.4-.6-.7-1.2-1.6-1-.9.1-1.7,0-2.6,0-.3,0-.6,0-.8-.1.3-.2.5-.4.9-.6Z"/>
    <path d="M17.1,98.8c0,1.1.2,2.1.2,3.1,0,.3-.2.5-.2.8-.2-.1-.4-.3-.6-.4-.4-.2-.7-.4-1.1-.6-.3-.2-.5-.4-.8-.6.2-.2.4-.4.5-.6.4-.4.7-.8,1.1-1.2.2-.3.3-1,1-.4Z"/>
    <path d="M38.4,174.4c0-.2.1-.4.2-.5,0-.4.1-.7.2-1.1.1.4.3.7.3,1.1.2,1.7.3,3.5.4,5.2,0,.5,0,.9-.2,1.4,0,.2-.3.2-.5.3,0-.2-.1-.3-.1-.5-.2-1.1-.4-2.2-.4-3.4,0-.6.2-1.3.3-1.9,0-.2,0-.4-.1-.7Z"/>
    <path d="M74.8,268.1c-.4-.2-.6-1-1.1-.2,0,0,0,0,0,0-.5.3-3.5,0-3.9-.4,0,0-.1-.2-.2-.3,0,0,.2-.1.3-.1,1.4,0,2.8-.2,4.2-.2.8,0,.9.5.9,1.1Z"/>
    <path d="M23.5,270.4c.2.4.4.9.2,1.1-.3.4-.6.7,0,1.1.1,0,0,.4.1.5-.2,0-.5,0-.6-.2-.4-.8-.8-.7-1.4-.2,0,0,0,0,0,0-.5,0-1,.2-1.5.2,0,0,0-.3,0-.3.5-.4.9-.9,1.4-1.2.2-.1.6,0,.9,0,.1,0,.3,0,.3,0,0,0,0-.2,0-.3-.7-.9-.2-.9.6-.9Z"/>
    <path d="M38.8,255.1c-.2-.1-.4-.2-.5-.3-.2-.2-.4-.4-.6-.5.1-.1.3-.3.4-.3.4,0,.9,0,1,.2.7,1.2,1.2,2.5,1.8,3.8,0,0-.1.4-.2.4-1,0-1.1-.8-1.2-1.5-.1-.5-.4-1-.7-1.6Z"/>
    <path d="M53.4,63.1c.2,1,.4,1.8.4,2.7,0,.2-.4.5-.6.8-.2-.3-.5-.6-.5-.9-.1-.6-.2-1.3-.2-1.9,0-.4,0-.8.2-1.2,0-.2.4-.3.6-.4,0,.3,0,.5.1.9Z"/>
    <path d="M36.6,125.7c.1.5.3.9.2,1.2,0,.3-.5.4-.8.7-.2-.3-.5-.6-.6-.9,0-.7,0-1.3.2-2,0-.2.3-.4.5-.6.1.2.3.4.4.7,0,.2,0,.5,0,.9Z"/>
    <path d="M35.2,170.2c-.4-.2-.8-.4-1.1-.5,0,0,0-.3,0-.4.4.1.9.3,1.3.3.7,0,1,.4.9,1.1,0,.7.3,1.6-.8,2-.1,0-.3,0-.4.1,0-.1,0-.3,0-.4,0-.7,0-1.4,0-2.2Z"/>
    <path d="M36.8,142.8c.7-.2,1.3-.4,1.9-.5,0,0,.2,0,.2,0,0,.2,0,.5-.2.6-.8.5-1.6.9-2.4,1.3-.2,0-.5,0-.7,0,0-.2,0-.5.1-.6.3-.3.7-.5,1.1-.8Z"/>
    <path d="M43.7,292.5c0,.3-.2.5-.3.7-.3-.3-.8-.6-.8-.9,0-.6.3-1.2.8-1.6.3-.2.9,0,1.4,0,0,0,.1.2.2.3-.9,0-.8.9-1.2,1.5Z"/>
    <path d="M32.2,125.7c-.7.4-1.4.9-2.1,1.2-.2.1-.6,0-.8,0,.1-.4.2-.8.4-1.1.5-.6,1.9-.6,2.5,0Z"/>
    <path d="M36.8,146c-.2.3-.5.6-.5.8.1.5,0,1-.4,1.2-.1,0-.5,0-.6-.2-.6-1.1.2-2.4,1.4-2.5.3,0,.5,0,.8-.1-.2.2-.4.5-.7.8Z"/>
    <path d="M50.5,269.2c-.4-.2-.7-.3-1-.4,0-.2.2-.5.3-.6.4,0,.9,0,1.1.1.6.6,1.2,1.1,2.1.9.1,0,.3.3.4.4-.2,0-.4.2-.5.2-.8-.2-1.6-.4-2.4-.7Z"/>
    <path d="M49.3,293.2c-.8-.5-1.4-.5-2.2,0-.6.3-1.4,0-2.1,0-.1,0-.2-.2-.3-.4.2-.1.5-.3.5-.3.9.9,1.6,0,2.3-.3,1.1-.4,1.7.8,2.6.8,0,0,0,.2,0,.3-.3,0-.5,0-.9-.1Z"/>
    <path d="M71.1,306.1c-.2-.1-.3-.3-.4-.4.4,0,1-.4,1.2-.2.8.7,1.5,1.3,2.6,1.4,0,0,.2.2.2.3,0,.1-.2.3-.3.3-.7-.1-1.3-.2-2-.5-.4-.2-.8-.6-1.3-.9Z"/>
    <path d="M41.4,258.9c.3-.2.5-.2.7-.3,0,.2-.2.4-.2.6,0,.5-.1,1-.2,1.4,0,.2-.1.6-.3.7-.2.1-.6,0-.9.1,0-.2,0-.4,0-.6,0-.2.3-.3.5-.4-.2-.2-.4-.4-.6-.5-.2-.2-.5-.3-.7-.4.3,0,.6-.2.9-.3.2,0,.5-.2.8-.3Z"/>
    <path d="M76,313.5c-.2-.2-.4-.3-.6-.4-.4-.3-.8-.5-1.3-.8,0,0,.1-.2.2-.1.7.1,1.5-.9,2.2,0,.2.2.3.6.3.9,0,.2-.5.3-.8.4Z"/>
    <path d="M49.9,266.7c-.3.9-.6.8-.9.2-.3-.7-.2-1.8-1.5-1.8,0,0-.2-.2-.2-.2,0,0,.2-.2.3-.2,1.1-.2,2.1.7,2.2,2.1Z"/>
    <path d="M64.5,269.5c-.4-.2-.6-.4-.9-.6.3,0,.7-.2,1-.1.8.2,1.7.4,2.5.7.2,0,.3.4.4.6-.2,0-.4.2-.6.1-.8-.2-1.5-.4-2.4-.7Z"/>
    <path d="M47.7,282.9c-.2,0-.5,0-.6,0-.5-.4-.9-.5-1.5-.2-.2.1-.6,0-.8,0-.2,0-.2-.4-.3-.6.3,0,.6-.2.9-.1.7,0,1.4.2,2.1.4.2,0,.2.4.3.7Z"/>
    <path d="M38,141.5c-.7.2-1.3.3-2,.4-.1,0-.4-.3-.4-.5,0-.2.3-.4.4-.4.6-.1,1.3-.2,1.9-.2.2,0,.4,0,.6,0-.1.2-.3.4-.4.6,0,0-.1.1-.2.2Z"/>
    <path d="M66.3,309.8c-.2-.4-.6-1.1-.4-1.2.4-.3,1-.4,1.1.4,0,0,0,0,0,0,.2.2.5.5.7.7-.5,0-.9,0-1.5,0Z"/>
    <path d="M66,301.8c.6.2,1.2.4,1.8.7.3.1.5.5.7.7-.4,0-.8.2-1.2.2-.5-.1-.9-.4-1.3-.7-.2-.1-.4-.4-.6-.6.2-.1.4-.2.6-.3Z"/>
    <path d="M57.1,267.6c0-.4,0-.7,0-1,0-.3.2-.5.3-.8.3.3.7.5.8.8,0,.5,0,1-.2,1.4-.3-.1-.5-.2-.8-.4Z"/>
    <path d="M35.8,194.8c-.3.3-.6.5-.9.7-.2,0-.5,0-.6-.2,0-.1,0-.4,0-.6.2-.3.4-.5.7-.7.2-.2.5-.3.8-.5,0,.4,0,.8,0,1.3Z"/>
    <path d="M16.3,106c.3,0,.5,0,.7,0,.3.2.6.5.9.8-.2.2-.3.5-.5.5-.5,0-1-.2-1.5-.3,0-.3.1-.6.3-.9Z"/>
    <path d="M85.4,314.9c-.2-.4-.4-.7-.6-1.1.2,0,.4-.2.6-.1.4.2.7.4,1,.7.1,0,.1.3.2.5,0,.2,0,.4,0,.7-.2-.1-.3-.2-.5-.3-.1,0-.3-.2-.5-.3Z"/>
    <path d="M33.6,133.4c0,0,0,0,.1,0,.4.3,1.1-.6,1.2.2,0,.4-.8.8-1.3,1.1,0,0-.6-.4-.5-.4.1-.3.4-.5.6-.9Z"/>
    <path d="M57.8,269.3c.3.6,1,1.1.5,1.8-.1.1-.2.4-.3.4-.2,0-.6-.2-.6-.4,0-.6.2-1.3.4-1.9Z"/>
    <path d="M33.7,167.3c-.2.2-.3.3-.4.4,0-.2-.3-.5-.3-.7,0-.2.3-.4.4-.6.2-.2.4-.5.6-.7.2.2.5.4.5.5-.1.3-.3.6-.5.9,0,0-.2.2-.3.3Z"/>
    <path d="M33.2,130.4c-.5.5-.9.8-1.3,0-.2-.5-.2-.8.4-.7.3,0,.6-.1.9-.1.2,0,.4.2.7.3-.2.2-.4.3-.6.6Z"/>
    <path d="M39.1,133.4c.3-.2.5-.5.8-.4.4,0,.9.2,1.3.4.1,0,.1.3.2.5-.6,0-1.2,0-1.7,0-.2,0-.4-.2-.5-.4Z"/>
    <path d="M13.8,255.5c.4,0,.9-.7,1,.2,0,.1-.4.4-.6.5-.6,0-1.2,0-1.8,0-.2,0-.4-.3-.6-.5.2,0,.4-.1.5-.2.5,0,.9,0,1.5,0Z"/>
    <path d="M35,244.6c-.9.2-1.8.6-2.3-.6,0-.1,0-.3,0-.4,0,0,.2,0,.2,0,.7.3,1.4.6,2.1,1.1Z"/>
    <path d="M38,183.1c.4-.2.6-.5.8-.7.2-.2.5-.2.8-.3,0,.4,0,1-.1,1.2-.4.3-.9.3-1.4.5,0-.2-.1-.4,0-.6Z"/>
    <path d="M33.4,237.5c.2.2.5.4.7.5-.3.1-.5.3-.8.4-.3,0-.7.1-.9,0-.2,0-.4-.4-.5-.7,0,0,.2-.4.4-.4.4,0,.8,0,1.2.2Z"/>
    <path d="M33.8,231.7c0,.5,0,.8,0,1.1,0,0-.6.2-.7,0-.2-.3-.5-.8-.4-1,.1-.3.7-.4,1-.6,0,.1,0,.2,0,.4Z"/>
    <path d="M11.7,106.4c0-.4-.3-.6-.2-.8,0-.3.3-.5.5-.8.2.3.5.5.6.8,0,.3-.1.7-.2,1.1,0,0-.4,0-.7-.2Z"/>
    <path d="M13.6,105c-.1-.5-.5-1,.3-1,.3,0,.8.4.8.6,0,.4-.3.7-.6,1.1-.2-.2-.3-.4-.5-.7Z"/>
    <path d="M66.6,268c-.5.1-1,.2-1.4.3.4-.2.8-.5,1.2-.7.2-.1.3-.3.4-.5,0-.2,0-.3,0-.5.3,0,.7,0,1,.1-.1.2-.2.4-.3.5-.2.3-.5.5-.8.8Z"/>
    <path d="M64.7,266.6c-.4.3-.8.5-1.2.7-.1,0-.3,0-.5,0,0-.1,0-.4,0-.4.2-.2.5-.6.7-.6.7,0,1.5,0,2.2,0,0,.1-.1.4-.2.4-.4,0-.7-.1-1.1-.2Z"/>
    <path d="M30.3,269.3c.5,1.1-.5.8-.9.9-.3,0-.7-.2-1.1-.4.1-.1.2-.3.3-.4.5-.1,1.1-.2,1.7-.2Z"/>
    <path d="M70.4,304.1c-.2.5-1.6.9-1.9.6-.1,0-.2-.3-.2-.5,0,0,.2-.2.3-.2.6,0,1.2,0,1.8.1Z"/>
    <path d="M72.1,269.3c.2.1.2.3.3.4.1.2.3.4.5.6-.5,0-1,0-1.5,0,0-.4,0-.7.1-1.1.2,0,.4,0,.7.1Z"/>
    <path d="M44.4,260.2c-.5-.4-.3-1.3.2-1.8,0,0,.2,0,.2,0,.3-.2.5-.3.8-.5-.2.4-.3.8-.5,1.2-.2.4-.4.7-.7,1.1Z"/>
    <path d="M37.9,147.6c-.2.3-.4.5-.5.7-.1-.3-.2-.7-.3-1,0,0,.1-.2.2-.2.2-.3.4-.5.6-.8,0,0,.5.2.5.3,0,.3-.3.6-.5,1Z"/>
    <path d="M17,250.2c.5.3.9.6,1.3.9-.1.1-.3.4-.4.4-.4-.2-.8-.4-1.2-.7,0,0,.1-.4.3-.7Z"/>
    <path d="M39.9,137.8c.4,0,.7-.1,1,0,.2,0,.4.3.6.4-.2,0-.4.2-.6.3-.2,0-.5,0-.5.2,0,.3,0,.8-.5.3-.4-.3-.5-.7,0-1.2Z"/>
    <path d="M22.9,267.1c-.3.1-.5.3-.6.3-.4,0-.8-.3-1.1-.4,0,0,0-.5.1-.5.5,0,.9,0,1.4,0,.1,0,.2.3.3.6Z"/>
    <path d="M77.2,284c-.1-.3-.3-.4-.3-.6,0-.3,0-.6,0-.9.3.1.7.2.9.4.2.2.2.7.2,1-.3,0-.6.1-.9.1Z"/>
    <path d="M33.6,240c-.2-.2-.2-.3-.3-.5.8-.2,1.7-.3,2.3.5,0,.1.2.2.3.4-.1,0-.3,0-.4,0-.6-.1-1.2-.3-1.9-.4Z"/>
    <path d="M38.4,158.4c-.7.7-1.2,0-1.3-.3-.1-.5.3-.6.8-.4.3,0,.6,0,1,0-.2.2-.3.5-.5.8Z"/>
    <path d="M55.9,61.5c.5-.4,1-.7,1.5-.9,0,0,.4.4.3.5-.3.4-.5.8-.9.9-.2,0-.6-.3-.9-.5Z"/>
    <path d="M73,311c-.3,0-.5-.1-.6-.2-.1-.1-.2-.3-.3-.5.2,0,.5-.3.7-.3.3,0,.5.3.8.5.2.1.3.3.5.5-.3,0-.6,0-1.1,0Z"/>
    <path d="M96.2,27.8c-.4,0-.7,0-1.1.1.3-.3.5-.8.9-.9.3-.1.8.2,1.2.3-.3.2-.6.3-1,.5Z"/>
    <path d="M33.8,246.2c.3.2.4.5.6.7.2.3.4.6.7.9-.4-.1-.9-.2-1.3-.4-.6-.4-.6-.8,0-1.2Z"/>
    <path d="M55.4,265c.1.1.3.2.3.3,0,.4,0,.8,0,1.3-.4-.3-.7-.6-1.1-.9.2-.2.5-.5.7-.6Z"/>
    <path d="M39.8,293.9c0-.4-.2-.6-.2-.8,0,0,0-.2,0-.3.1,0,.3,0,.4.1.2.2.4.4.6.5.2.1.4.1.6.2-.2.2-.4.4-.6.5-.2,0-.5,0-.8-.2Z"/>
    <path d="M39.9,127.5c-.2-.3-.5-.5-.5-.7,0-.2.2-.4.3-.7.1.1.3.2.4.4.2.2.3.4.4.6.1.2.2.4.3.6-.3,0-.6-.2-.9-.3Z"/>
    <path d="M54.7,63.6c-.3-.2-.5-.4-.7-.5,0,0,0-.2.1-.2.3,0,.6-.1.9-.1,0,0,.2.1.2.2.2.3.3.6.5.9-.3,0-.6-.1-1-.3Z"/>
    <path d="M34.5,135.7c.9.6.2,1.1,0,1.6,0,0-.4,0-.4,0-.2-.6-.6-1.2.3-1.6Z"/>
    <path d="M34.8,241.5c0,.3-1.4,1.4-1.6,1.3-.1-.1-.2-.6-.2-.6.6-.2,1.1-.4,1.8-.7Z"/>
    <path d="M44.4,247.9c.3.2.5.3.7.4-.4.2-.7.5-1.1.7-.1,0-.3,0-.5-.1,0-.3.2-.6.3-.8,0-.1.3-.2.5-.2Z"/>
    <path d="M50.2,90.7c.4,0,.8,0,1.1.3.1.1,0,.6-.1.9-.2-.1-.5-.2-.6-.3-.2-.2-.2-.5-.3-.9Z"/>
    <path d="M39.3,195.6c-.5.2-1.1.3-1.6.4,0-.1-.1-.3,0-.4.5-.7,1.1-.7,1.7,0Z"/>
    <path d="M42.2,295.1c-.3,0-.6.1-.9.2.1-.2.2-.4.3-.6,0,0,.3,0,.4-.2.3-.3.6-.7.9-.1,0,0-.5.4-.8.7Z"/>
    <path d="M78.3,314c-.3.5-.6,1-.9,1.4,0,0-.3-.2-.5-.3.5-.4.9-.8,1.4-1.1Z"/>
    <path d="M69.4,265.3c-.3-.2-.5-.4-.7-.5.3,0,.6-.2.9-.2.3,0,.6.2.9.3-.3.1-.7.3-1.1.4Z"/>
    <path d="M37.3,257.5c.7-.6.8.2,1.1.3,0,0,0,.3,0,.4-.3,0-.6,0-.8,0-.4,0-1.3.2-.4-.7Z"/>
    <path d="M85.1,316.1c.2.2.4.4.5.5-.2,0-.4,0-.6,0-.5-.2-.9-.4-1.3-.6,0,0-.1-.2-.1-.3,0,0,.2-.2.2-.2.4.1.9.3,1.3.5Z"/>
    <path d="M28,272.9c-.3,0-.6,0-.9-.1.2-.2.4-.4.6-.5.3-.2.7-.2,1.1-.3,0,0,0,.2,0,.3-.2.2-.4.4-.7.6Z"/>
    <path d="M56.9,298.5c0-.2.1-.7.2-.7.4,0,.8.2,1.2.4-.4,0-.8.2-1.4.3Z"/>
    <path d="M30.4,128.6c-.2.2-.4.4-.6.6,0-.1-.2-.3-.1-.4,0-.3.2-.6.3-.8.1-.1.4,0,.7,0,.2,0,.4,0,.6.1-.2,0-.4,0-.5,0,0,0-.2.1-.3.3Z"/>
    <path d="M88,25.3c-.2-.2-.3-.3-.3-.5.4,0,.8-.1,1.2-.2,0,.2,0,.5,0,.5-.3,0-.5,0-.9.1Z"/>
    <path d="M44.2,246.6c-.4-.3-.7-.5-1-.7,0,0,0-.2,0-.2.4.2.9.4,1.3.6.2,0,.3.3.4.5-.3,0-.5,0-.8-.2Z"/>
    <path d="M50.4,66.6c-.3-.3-.5-.6-.6-.8.3,0,.6,0,.9,0,0,.3-.1.5-.3.8Z"/>
    <path d="M31.8,271.4c-.3.2-.6.3-.9.4,0-.1-.1-.4,0-.4.3-.2.6-.4.9-.6,0,.2.1.4.1.7Z"/>
    <path d="M36.1,253.1c-.2,0-.4-.2-.6-.3.2-.1.5-.3.7-.3.4,0,.7,0,1.1,0-.4.2-.8.4-1.2.6Z"/>
    <path d="M25.3,254.8c.2.4.3.9.4,1.3,0,0-.2.2-.3.2-.1,0-.3-.2-.3-.3,0-.4,0-.8.2-1.2Z"/>
    <path d="M13.6,251.8c-.6-.1-.9-.2-.5-.8.1-.1.3-.3.4-.4,0,.4.2.8.1,1.2Z"/>
    <path d="M25.4,266.7c0,.3.1.5.1.7-.4,0-.7-.1-1.1-.3-.1,0-.2-.3-.2-.5.4,0,.8,0,1.2,0Z"/>
    <path d="M53.4,285.2c-.3-.2-.4-.5-.5-.7.4,0,.8,0,1.2,0-.2.2-.3.4-.6.6Z"/>
    <path d="M81.6,35.9c0,.2,0,.4,0,.5-.4-.4-.7-.8-1.1-1.2.1,0,.4-.2.4-.1.3.2.5.5.8.8Z"/>
    <path d="M32,123.9c-.4-.1-.7-.3-.9-.4,0,0,.1-.3.2-.2.4,0,.8,0,1.2.1-.1.2-.2.4-.5.5Z"/>
    <path d="M39.8,143.3c.1-.3.3-.5.4-.6,0,.3.2.7.3,1,0,.2,0,.3-.1.5-.2-.3-.4-.5-.6-.9Z"/>
    <path d="M45.6,262.9c-.1.1-.2.2-.2.2-.3,0-.6.1-.9.1.1-.2.2-.5.4-.5.3-.1.6-.1.9-.2,0,0,0,.2-.2.3Z"/>
    <path d="M41.6,298c.3,0,.5,0,.7,0-.2.2-.3.3-.5.5,0,0-.1,0-.2.1-.3,0-.6.1-.9.2.2-.2.5-.4.8-.7Z"/>
    <path d="M32.6,127.7c.1-.2.4-.4.5-.4.3.1.5.4.7.6-.1,0-.3.2-.4.2-.3,0-.5-.2-.8-.4Z"/>
    <path d="M48.4,90.7c0-.3,0-.5,0-.8.2,0,.5,0,.5.1.1.2,0,.5.1.8-.2,0-.4,0-.6-.2Z"/>
    <path d="M64.5,270.9c0,.2-.3.5-.5.7,0,0-.3,0-.4-.2.3-.2.5-.3.9-.5Z"/>
    <path d="M68.3,268.6c.1-.1.5-.3.5-.3.2.2.2.5.3.7-.3-.1-.5-.2-.8-.4Z"/>
    <path d="M47,89.1c0,.2,0,.3,0,.4-.2.1-.5.3-.7.4,0,0,0-.2,0-.2.2-.2.5-.4.8-.5Z"/>
    <path d="M33,180.2c-.1.2-.2.3-.2.4,0-.4,0-.8,0-1.1,0,0,.2-.1.3-.2,0,.3,0,.6,0,1Z"/>
    <path d="M16.7,118.2c-.2-.3-.3-.6-.4-.9.1,0,.3,0,.3,0,.2.3.4.6.6.9-.2,0-.3,0-.5,0Z"/>
    <path d="M60.8,270.9c0,.2,0,.4,0,.6-.3-.1-.6-.2-1-.3.3,0,.5-.2.9-.3Z"/>
    <path d="M25.3,271.8c.3-.1.6-.1.9-.1,0,.2-.2.4-.2.4-.2,0-.5-.1-.7-.3Z"/>
    <path d="M31.9,226.9c.2.3.3.6.4.9-.2,0-.5,0-.6-.1,0-.2,0-.5.1-.7Z"/>
    <path d="M43.1,277.2c.2.2.3.5.4.8-.1,0-.4,0-.4,0,0-.2,0-.5,0-.8Z"/>
    <path d="M13.6,98.6c.3,0,.6,0,.8,0,0,.1-.1.3-.1.3-.2,0-.5-.1-.7-.3Z"/>
    <path d="M32.6,224.4c.1-.2.3-.4.4-.5,0,.1.2.3.3.4-.2,0-.4.1-.7.1Z"/>
    <path d="M38.9,266.2c0-.3,0-.6,0-.9,0,0,.2,0,.3,0-.1.3-.2.5-.4.8Z"/>
    <path d="M24.9,257.5c-.2-.2-.4-.4-.5-.5.2,0,.4,0,.6,0,0,.2,0,.4-.1.6Z"/>
    <path d="M99,26.2c-.2,0-.4,0-.6,0,0-.1.1-.2.2-.3.2.1.3.2.4.4Z"/>
    <path d="M62,269.8c-.2,0-.4,0-.5,0,.1-.2.2-.4.3-.5,0,.1.2.3.2.5Z"/>
    <path d="M74.8,282.6c0-.2,0-.3,0-.5.2,0,.3.1.5.2-.1,0-.2.2-.5.3Z"/>
    <path d="M41.6,135.4c-.2,0-.4,0-.5,0,0,0,0-.2,0-.4.2,0,.4.2.6.4Z"/>
    <path d="M72.4,308.3c.2,0,.4,0,.5,0,0,0,0,.2,0,.4-.2,0-.4-.2-.6-.4Z"/>
    <path d="M32.9,184c-.1-.2-.2-.4-.2-.6,0,0,.1,0,.2,0,0,.2.1.4,0,.6Z"/>
    <path d="M31.9,240.2c-.2-.1-.3-.3-.4-.5,0,0,.2,0,.3,0,0,.2,0,.4,0,.6Z"/>
    <path d="M119.9,182.8c.5-.2,1-.4,1.5-.6,0,0,0-.5,0-.5-1.7-.6,0-1.5.1-1.5.6-.3.7-.7.8-1.4,0-.4.4-.7.6-1,.2.2.5.5.7.7.4.6,1.1,1.4-.5,1.4-.4,0-.7.8-1,1.2.1,0,.3.3.4.2.4-.2.8-.4,1.1-.6.5-.4.8-.8,1.4-.2.5.5.6,1,0,1.5-.2.2-.3.4-.5.5-.8.4-.8,1.1-.8,1.8,0,.2-.4.5-.4.5-.6-.5-1.2-.2-1.9,0-1.4.3-1.8-.2-1.5-2Z"/>
    <path d="M114,211.2c0-.2.2-.2.2-.3-.1-1.4.8-1.5,1.8-1.3.8.2,1.2,0,1.7-.5.7-.7,1.3-.5,1.7.4,0,.1-.1.5-.2.5-1.8.3-1.8.3-1.1,1.8.1.3.5.7.4.8-.3.5-.8.8-1.2,1.2,0,0-.4,0-.5-.1-.5-.5-1-1-1.8-1.2-.4,0-.6-.8-.9-1.4M115,211.2c.2.3.4.7.6,1,0,0,.4,0,.4,0,0-.6.1-1.1.2-1.7-.4.2-.7.3-1.2.6Z"/>
    <path d="M123.1,228.6c.3.3.5.5.7.7-.2,0-.4.1-.6.2-.1,0-.2.2-.3.3.1.1.2.3.4.4.4,0,.8,0,1.2,0,.3,0,.8.2.9.4,0,.3,0,.8-.3,1-.5.4-1.2.8-1.8,0-.1-.1-.4-.2-.6-.2,0,.2-.2.4-.2.6,0,.8-1.6,1.7-2.3,1.3,0,0-.2-.2-.2-.2.1-.1.3-.2.4-.4.4-.4.9-.8,1.2-1.3.4-.8.6-1.8.9-2.6,0-.1.4-.1.7-.1Z"/>
    <path d="M139,207.4c0-.3-.2-.6-.1-.7.6-.8,1.4-1.5,1.1-2.8,0-.1.7-.6.7-.5.3.3.7.6.8,1,0,.5-.1,1-.2,1.5,0,.1,0,.3,0,.3-.8.4-1.5.8-2.3,1.1Z"/>
    <path d="M127.6,230.1c-.8-.4-1.5-.7-2.2-1.1,0,0,0-.2-.1-.4.1,0,.3-.1.4,0,.7.1,1.3.4,2,.4.7,0,1.4,0,2,0,.1,0,.3,0,.4,0,0,.1,0,.3,0,.4-.2.3-2,.8-2.5.6Z"/>
    <path d="M139.7,214.2c-.3.4-.5.6-.8.9-.1-.3-.2-.6-.3-.9-.2-.4-1.6-1-2-.9-.2,0-.5,0-.7,0,.1-.3.2-.7.4-.8.5-.3,3.4.7,3.7,1.2,0,0-.1.3-.3.5Z"/>
    <path d="M93.3,209.2c-.4-1.2-.9-2.2-1.3-3.2,0,0,.1-.4.2-.4.2,0,.6,0,.7.2.5,1.1,1,2.1,1.3,3.2.2.8-.5.4-.9.2Z"/>
    <path d="M129.5,176.8c-.2.2-.6.6-.8.5-.8-.4-1.4-.3-1.9.5-.3.4-.5,1.1-1.1.5-.8-.7.2-.8.5-1.1,1.3-1.3,2-1.4,3.3-.4Z"/>
    <path d="M110.9,225.2c.8-.2,1.5-.4,2.2-.6.3,0,.6,0,.8,0,.2.1.3.5.5.7-.3,0-.5,0-.8.1-.7.2-1.3.5-2,.6-.4,0-.8-.3-1.3-.4.2-.1.3-.3.6-.5Z"/>
    <path d="M113.1,224.1c-.2-.3-.3-.7-.2-1,0-.1.4-.3.6-.3.6,0,1.1.2,1.7.3.2,0,.4.2.6.3-.1.1-.2.3-.4.4-.7.7-1.4.4-2.3.2Z"/>
    <path d="M128.3,183.4c0,.9-1.5,2.8-2.1,2.9-.1,0-.3,0-.4,0,0-.1,0-.2,0-.3.7-.8.8-2,1.8-2.6.2-.1.5,0,.7,0Z"/>
    <path d="M142.5,202.4c-.1,0-.2,0-.3,0-.2-.2-.6-.5-.5-.6.2-.7-.7-1.6.2-2.3,0,0,.4,0,.4,0,.3.6.6,1.2.7,1.9,0,.3-.3.6-.5,1Z"/>
    <path d="M134,214.9c-.3-.3.2-1.2.6-1.1.8.2,1.5.4,2.3.6,0,0,.1.3,0,.3-.3.2-.6.4-.9.6-.5-1-1.4,0-2.1-.5Z"/>
    <path d="M124.2,228.2c-1.2-.4-.5-1.2-.2-1.6.3-.3,1-.3,1.5-.4,0,.1.1.3,0,.4-.4.6-.8,1.1-1.3,1.6Z"/>
    <path d="M89.2,204.1c.6,0,1.1-.1,1.6-.1.1,0,.3.3.4.5-.2,0-.3.2-.5.3-.7,0-1.2.1-1.2,1,0,.1-.3.2-.5.4,0-.2-.2-.3-.2-.5,0-.5.1-1,.3-1.6Z"/>
    <path d="M90.5,199.2c-.1.7-.2,1.2-.3,1.8-.3-.4-.6-.8-.8-1.2-.2-.5-.2-1-.2-1.5.4.2.9.5,1.3.9Z"/>
    <path d="M126,180.8c.2-.5.5-1.2.8-1.3.5,0,1,.4,1.5.6,0,0,0,.4,0,.4-.8.1-1.5.2-2.4.2Z"/>
    <path d="M139.3,217.2c-.2-.1-.3-.3-.4-.4.3-.2.7-.4,1-.5.5-.1.9-.9,1.5,0,0,0,0,.3,0,.3-.7.2-1.1,1.1-2.2.7Z"/>
    <path d="M117.7,226.6c.8.1.7.7.5,1.1,0,.1-.6,0-1,0-.2,0-.4-.1-.6-.2-.2,0-.3-.2-.4-.3.1-.1.2-.3.4-.4.3-.1.7-.2,1.1-.3Z"/>
    <path d="M140.3,214.9c.4-.6.9-1.3,1.7-.5.3.3.5.8.7,1.2-.4,0-.9-.2-1.3-.3-.4,0-.7-.2-1.1-.4Z"/>
    <path d="M109.6,218.8c-.6.4-1.2.7-1.8,1,0,0-.3-.3-.5-.5.4-.4.8-.8,1.2-1,.3,0,.7.3,1,.5Z"/>
    <path d="M135.2,165.8c-.2.8-.5,1.5-.7,2.2,0,.1-.2.2-.3.3,0-.1-.1-.3-.1-.4,0-.7.1-1.5.2-2.2,0-.2.2-.4.4-.6.2.2.4.4.5.7Z"/>
    <path d="M116.8,208.2c0,.2,0,.3.1.5-.8,0-1.6-.1-2.4-.2-.1,0-.2-.3-.3-.4.2,0,.4-.2.5-.2.7,0,1.3.2,2.1.4Z"/>
    <path d="M135.5,216.2c0,.3,0,.5,0,.7-.7-.2-1.5-.3-2.2-.5,0,0-.1-.3,0-.4,0-.1.3-.3.4-.2.6,0,1.3.2,2,.4Z"/>
    <path d="M87.3,205.8c-.3-.2-.7-.5-.9-.8-.1-.2,0-.6,0-.9.3,0,.7,0,.8.2.1.4.1.9,0,1.4Z"/>
    <path d="M108.6,227.4c-.1-.4-.2-.7-.3-1,.5,0,1,0,1.4.1.1,0,.2.4.3.7-.5,0-.9.2-1.4.2Z"/>
    <path d="M91.4,206.9c0,.4,0,.6-.1.9-.4-.2-.9-.4-1.3-.6.2-.2.3-.6.5-.6.3,0,.6.2.9.4Z"/>
    <path d="M123.1,187.2c-.3,0-.6,0-.8,0,.1-.3.2-.7.4-.9.1-.1.5,0,.7,0,0,.3-.2.6-.3.9Z"/>
    <path d="M143.6,214.9c-.6.2-.7-.1-.6-.6,0-.3.3-.5.5-.8.2.2.5.3.5.5,0,.3-.2.5-.4.8Z"/>
    <path d="M92.2,210.6c.8-.4,1.1.2,1.5.5,0,0,0,.4,0,.5,0,0-.3.1-.4,0-.4-.3-.8-.7-1.1-1.1Z"/>
    <path d="M140,211.7c-.7-.1-1.4-.3-2-.5,0-.1.2-.4.2-.4.6.2,1.2.5,1.8.9Z"/>
    <path d="M90.7,212.1c-.4-.2-.6-.4-.9-.5.3-.2.5-.5.8-.6.2,0,.5.3.7.5-.2.2-.3.4-.6.6Z"/>
    <path d="M126.7,228c.2-.2.5-.5.7-.6.2-.1.5-.1.7-.2-.1.3-.2.6-.4.8-.3.2-.7,0-1.1,0Z"/>
    <path d="M91.4,209.4c0-.4,0-.7,0-1,0,0,.3-.1.3-.1.2.3.3.5.5.8-.2.1-.5.2-.7.3Z"/>
    <path d="M93.8,214.7c.1-.1.2-.3.3-.3.3,0,.7.1,1,.2,0,.2-.2.5-.3.5-.4,0-1,.7-1.1-.4Z"/>
    <path d="M128.5,179.2c-.4-.2-.6-.4-.9-.6.2,0,.4-.3.5-.3.4.2.7.4,1.1.6-.2,0-.4.2-.7.3Z"/>
    <path d="M112.7,231.6c.2.1.3.3.4.5.1.3.3.5.4.8-.3-.2-.7-.3-1-.5,0,0,.1-.5.2-.8Z"/>
    <path d="M119.3,207.1c-.2-.2-.3-.5-.3-.7.3,0,.5-.2.8-.2,0,0,.2.4.2.5-.1.2-.4.3-.7.4Z"/>
    <path d="M132.2,220.2c.1-.2.4-.4.5-.3.4.2.8.5,1.2.7,0,0-.2.2-.3.2-.5-.1-.9-.3-1.5-.5Z"/>
    <path d="M114,203c-.4.3-.8.5-1.2.8,0,0-.2.1-.3.1,0,0-.1-.1-.2-.2.6-.4,1.2-.7,1.8-1.1,0,.1,0,.3-.1.4Z"/>
    <path d="M127.6,220.9c.3-.3.6-.5.9-.6,0,.3,0,.6,0,.9-.3,0-.5-.1-.8-.3Z"/>
    <path d="M112.4,206.4c.2,0,.4,0,.5.2.2.1.3.3.4.5-.3,0-.5.1-.8,0-.3,0-.8-.2-.2-.7Z"/>
    <path d="M135,160.5c.4.2.7.3.9.5l-1.2.2c0-.2.1-.5.3-.7Z"/>
    <path d="M107.3,226c-.2-.3-.3-.6-.4-.9.3,0,.6,0,.8.2.6.4.1.5-.4.6Z"/>
    <path d="M129.2,221.6c.7.3.3.6,0,.8-.1,0-.4,0-.5,0,.1-.2.3-.5.5-.7Z"/>
    <path d="M130.2,175c0,.2-.2.4-.4.5-.1-.1-.2-.2-.4-.4.2,0,.5-.1.7-.2Z"/>
    <path d="M88,201.3c.3,0,.5,0,.8,0,0,0,0,.2,0,.3-.3,0-.5-.1-.8-.3Z"/>
    <path d="M114.4,201.3c-.1-.1-.2-.3-.2-.5.3,0,.6,0,.9,0-.2.2-.4.3-.7.5Z"/>
    <path d="M126.3,226.1c.2-.2.4-.2.6-.3,0,.2,0,.4,0,.5-.2,0-.4,0-.6-.2Z"/>
    <path d="M117.8,204.4c-.1.2-.3.3-.4.4,0-.1-.1-.2-.2-.3.2,0,.4-.1.6,0Z"/>
    <path d="M135.2,223.7c.2,0,.3.2.5.3-.2,0-.3.1-.5.2,0-.2,0-.3,0-.5Z"/>
    <path d="M123.8,224.9c-.2.1-.5.1-.7.2,0,0,0-.2,0-.2.2,0,.5,0,.8,0Z"/>
    <path d="M140.9,254.5c.3-.5.6-1,.9-1.3.2-.2.5-.3.8-.5,0,.2-.2.4-.2.6,0,.2.2.4.4.5.3.2.8.3,1,.6.5.7.3,1.2-.6,1.3-2,.1-3.9.1-5.9.3-.7,0-1.5.3-2.2.5-.7.2-1.4.4-2-.3-.2-.2-.5-.2-.8-.3-.2,0-.6-.2-.7-.3,0-.3,0-.6.3-.8.2-.2.6-.2.8-.2,1,0,2-.1,3,0,1,.2,1.5-.9,2.5-.8.6,0,1,0,1.3.6.2.4.8.7,1.2,0M142.9,255c0-.2,0-.3-.1-.5-.2,0-.3.1-.5.2.1,0,.2.2.6.3M138.8,254.8c-.2,0-.4.1-.6.2l.2.3c.2-.1.3-.2.4-.5Z"/>
    <path d="M91.5,282.1c-.2-.2-.3-.3-.4-.4-.2-.3-.3-.6-.5-1,.4,0,.8,0,1.1.3.5.4,1,.9,1.5,1.4,0,0,.2.1.4.2,0-.1.2-.3.2-.4-.1-.6-.3-1.2-.5-1.9,0,0-.3,0-.5,0-1,.2-1.8-.3-1.8-1.2,0-.2.2-.4.3-.5.1,0,.2.2.4.3.2,0,.5.2.6.2.2-.1.2-.4.2-.6,0-.1-.2-.3-.1-.4.1-.3-.6-.9.2-1,.2,0,.6.5.7.9.4,1.3.8,2.6,1.2,3.9.1.3.3.7.3,1,0,.3-.2.6-.3.9-.2-.1-.3-.4-.5-.4-1-.1-1.7-.7-2.5-1.4Z"/>
    <path d="M139.8,252.2c.1-.2.3-.5.4-.5,1.2,0,2-1.4,3.4-.7,0,0,.2-.2.3-.2.3-.1.7-.2,1-.3,0,.4,0,.8.1,1.2-.3,0-.6,0-.9,0-.8,0-1.6,0-2.3,0-.3,0-.5.6-.8.8-.2.2-.6.3-.8.5,0-.3-.2-.5-.3-.9Z"/>
    <path d="M92.8,270.9c-.2-.6-.4-1.1-.6-1.6,0-.2-.2-.3-.2-.5.3,0,.6-.2.8-.1,1.1.8,1.8,3.5,1.4,4.7,0,.2-.3.4-.4.4-.2,0-.5-.2-.5-.3-.2-.8-.3-1.6-.5-2.6Z"/>
    <path d="M122.7,254.8c-.7,0-1.3-.1-1.8-.3-.2,0-.3-.3-.4-.5.2,0,.3-.1.5-.1,1-.2,2.1-.5,3.1-.7.3,0,.8.2.9.5,0,.3-.1.9-.4,1-.5.2-1.1.1-1.8.1Z"/>
    <path d="M98.6,259.5c0,.4,0,.7,0,.9-.1.7-.3,1.3.9,1.2.4,0,.9.7,1.3,1.1,0,0,0,.2,0,.2-.2,0-.5.3-.6.2-.9-.6-1.8-1.1-2.6-1.8-.4-.4.2-1.5,1-1.9Z"/>
    <path d="M103.2,247.9c.8-.6,1,.4,1.5.4,0,0,0,.2,0,.2-.4.1-.7.2-1.1.3-1.4.4-2.2-.7-3.4-1.1,0,0-.2-.2-.2-.2.1,0,.3-.1.4-.1.9.1,1.8.3,2.8.5Z"/>
    <path d="M140.7,250.6c-.9.2-1.7.3-2.5.4-.2,0-.3-.2-.5-.4.1-.1.3-.3.4-.4.8-.2,1.7-.5,2.5-.6.4,0,.8.2,1.1.3-.3.2-.6.4-1.1.6Z"/>
    <path d="M136.3,252.5c.3.3.5.7.7,1-.3,0-.7-.1-1,0-1,.2-1.9.4-2.9.5-.2,0-.3,0-.5,0,0-.1.2-.3.3-.3.8-.5,1.4-1.6,2.6-.7,0,0,.5-.3.8-.4Z"/>
    <path d="M128.3,257.1c.9,0,1.7-.2,2.5-.2.2,0,.4.2.5.3-.1.1-.3.3-.4.3-1,.1-2,.3-3,.2-.5,0-.9-.6-1.4-1,0,0,.1-.4.2-.4,0,0,.3,0,.4.1.4.2.7.4,1.2.7Z"/>
    <path d="M89.3,261.4c.9.1,1.8.3,2.7.6.1,0,.2.3.2.5-.2,0-.3.1-.5.1-.8,0-1.6-.1-2.4-.3,0,0,0-.5,0-.9Z"/>
    <path d="M146.2,252.9c-.4.6-.8,1.1-1.2,1.5,0,0-.3,0-.4-.1-.1-.2-.2-.5-.3-.7-.2-.2-.4-.3-.6-.4.3-.1.6-.2.9-.3.3-.1.6-.2.9-.3.3,0,.5,0,.8.2Z"/>
    <path d="M93.7,262.4c.9-.2,1.7-.7,2.3.3,0,.1.2.3.1.3-.4.5-2.4.2-2.7-.5,0,0,0-.1.2-.2Z"/>
    <path d="M88.9,278.3c.5.3,1,.6,1.3,1,.1.2-.1.6-.2.9-.3-.1-.7-.2-.8-.3-.1-.6-1.6-.7-.4-1.6Z"/>
    <path d="M88.6,277.1c-.4-.3-.8-.5-.9-.9-.1-.4.2-.8.3-1.2.2,0,.7.1.7.2,0,.6,0,1.2,0,1.9Z"/>
    <path d="M91.4,277.7c-.3.3-.4.5-.6.7,0-.3,0-.6-.2-.9-.1-.3-.4-.5-.5-.8,0-.2,0-.5,0-.8.2.1.6.2.7.3.3.4.4.9.6,1.4Z"/>
    <path d="M152.4,247.8c.4-.1.8-.2,1.2-.3-.2.4-.4.8-.7,1.1-.3.2-.7.3-1,.4.1-.4.3-.8.5-1.2Z"/>
    <path d="M117,261.3c.9-.5.8.5,1.2.7,0,0-.2.4-.3.6-.3-.2-.7-.3-1-.5-.2-.2-.8-.4,0-.8Z"/>
    <path d="M99.1,279.2c.1.2.3.5.2.6-.2.3-.6.6-.9.6-.4,0-.8-.3-1.2-.4.4-.1.9-.2,1.3-.4.2,0,.4-.2.6-.4Z"/>
    <path d="M135.5,250.8c.4,0,.7,0,1,0-.2.1-.4.3-.6.4,0,0-.2,0-.3.1-.3,0-.2,1.1-.8.3-.4-.6,0-.9.6-1Z"/>
    <path d="M88.2,273.2c0,.4-.1.9-.3,1.3,0,0-.4,0-.6,0,0-.4,0-.7.2-1.1,0-.1.4-.2.7-.2Z"/>
    <path d="M129.4,253.9c.2.3.5.6.5.8-.1.4-.4.7-.7,1,0,0-.2,0-.2-.1,0-.3,0-.6,0-.9,0-.3.2-.5.4-.7Z"/>
    <path d="M89.6,268.1c0-.4,0-.7-.1-1.1.3,0,.6,0,.8,0-.2.4-.4.8-.7,1.1Z"/>
    <path d="M87.1,268.2c.3,0,.5,0,.7.1.2.1.3.4.4.6,0,0-.3.4-.4.4-.2,0-.5-.2-.6-.4-.1-.2-.1-.4-.1-.7Z"/>
    <path d="M87,271.4c.1-.2.3-.3.4-.4.1.3.3.6.3.9,0,.1-.3.3-.4.5,0-.2-.2-.3-.3-.5,0,0,0-.2,0-.5Z"/>
    <path d="M150.6,252.1c0,.2,0,.4,0,.6-.3,0-.6-.1-.8-.2,0,0,0-.3,0-.5.3,0,.6,0,.9.1Z"/>
    <path d="M146.2,250.1c-.1,0-.2-.2-.3-.2-.3,0-.5,0-.8.1,0-.2,0-.4.2-.4.3-.1.6-.2.9-.3,0,.2,0,.5,0,.8Z"/>
    <path d="M147.1,254.1c0,.2,0,.4,0,.6-.4,0-.8,0-1.2-.1.2-.2.4-.4.6-.5.1,0,.3,0,.5,0Z"/>
    <path d="M111.2,248.8c-.3-.2-.5-.4-.7-.6.3,0,.6,0,.8,0,0,.2,0,.4-.2.6Z"/>
    <path d="M150.4,249.2c.3.2.4.3.6.5-.2,0-.5,0-.7,0-.2-.1-.3-.4-.4-.6.2,0,.3.1.6.2Z"/>
    <path d="M91,264.7c.2-.2.5-.3.7-.3,0,.3,0,.7,0,1-.2-.2-.4-.4-.6-.6Z"/>
    <path d="M97.5,263.8c.3,0,.6.2.8.3-.2,0-.4.3-.5.3-.2,0-.2-.4-.3-.6Z"/>
    <path d="M138.6,252.5c-.3.1-.6.1-.9.1,0,0,0-.2,0-.2.3,0,.6,0,.9.1Z"/>
    <path d="M103.9,265.6c.1-.2.2-.4.4-.4,0,0,.2.2.3.3-.2,0-.5.2-.7.1Z"/>
    <path d="M94.4,91c.3.2.5.4.6.6-.3.2-.8.5-1,.4-.9-.4-1.6-1-2.6-.2-.2.2-1-.4-1.5-.6-.4-.2-.9-.3-1.3-.5-.4-.2-.6-.6-.9-.9.3,0,.6-.3.9-.2.5,0,1.1.2,1.5.4.7.3,1.3.8,2.2.4.5-.2,1.3.3,2,.5Z"/>
    <path d="M109.4,75.1c-.5.1-.8.3-1.2.4-.4.2-.9.6-1.1-.3,0-.1-.3-.3-.5-.3-.2,0-.5-.1-.8-.2.3-.1.6-.3.9-.3,1.3,0,2.5.1,3.8.2.6,0,1.3.1,1.9.2.1,0,.2.4.3.6-.1,0-.3.1-.4.1-.9-.1-1.8-.3-2.8-.5Z"/>
    <path d="M83.4,91c1.1-.6.7.6,1.1.9.3.2.4.7.6,1,.1.2.4.3.5.5-.2.1-.4.4-.6.4-.2,0-.6,0-.7-.2-.5-1-1.1-1.2-2-.6-.1-.2-.4-.5-.3-.6.4-.5.8-.9,1.2-1.4Z"/>
    <path d="M108.2,80.4c.4-.6.9-.7,1.5-.5,1.1.3,2.3.3,3.5.6.3,0,.5.4.8.7-.2,0-.5.2-.7.2-1.7-.2-3.4-.5-5.1-.9Z"/>
    <path d="M85.9,89.4c-.1.3-.3.4-.4.5-.2.3-.4.6-.6.9-.1,0-.3-.2-.3-.3,0-.5,0-1,0-1.4,0-.2.3-.4.5-.6.3-.2.7-.2,1.1-.3,0,.4-.2.7-.3,1.2Z"/>
    <path d="M101.6,76.9c-.3,0-.6,0-.8,0-.3-.1-.5-.4-.8-.6.3-.1.5-.3.8-.3.5,0,1,0,1.5,0,.3,0,.5.3.7.5-.3.1-.5.3-.8.4-.1,0-.3,0-.6,0Z"/>
    <path d="M104.5,76.9c.8,0,1.4.1,2.1.2,0,0,.2.2.2.3,0,.1,0,.3-.1.4-.4.3-2.3-.2-2.5-.7,0,0,.1-.2.3-.2Z"/>
    <path d="M87,98.8c.1.3.3.7.1.8-.3.4-.7.7-1,1,0,0-.5-.3-.5-.3.2-.4.4-.7.6-1,.2-.2.4-.3.7-.5Z"/>
    <path d="M82.5,94.6c.5.3.9.5,1.3.7-.5,0-1,0-1.5,0-.2,0-.3-.4-.5-.6.2,0,.5,0,.7,0Z"/>
    <path d="M96.2,78.1c.2-.3.4-.5.7-.7.2.2.4.3.4.5,0,.1,0,.4-.1.5-.3,0-.6-.2-1-.3Z"/>
    <path d="M95.8,80.4c.3,0,.6,0,.8.3.2.2.2.5.2.8,0,0-.3.3-.3.3-.2-.2-.4-.4-.6-.6-.1-.2-.2-.4-.2-.6Z"/>
    <path d="M94.1,80.3c-.1,0-.2-.3-.3-.4.3-.1.5-.2.8-.4,0,.2.2.4.2.6-.2,0-.5,0-.7.2Z"/>
    <path d="M90.3,84.5c-.3-.2-.4-.3-.6-.5.3,0,.6,0,.8,0,0,.2-.1.4-.3.5Z"/>
    <path d="M104,75.9c-.2.1-.4.1-.6.2,0-.2,0-.4,0-.5.2,0,.4.2.6.3Z"/>
    <path d="M221.1,140.5c0,.3,0,.6-.2.9-.2-.1-.4-.4-.6-.4-.6-.1-1.2-.2-1.8-.3-.2,0-.5,0-.7-.2-.4-.3-.7-.6-1-1,.5,0,1,0,1.4,0,.7,0,1.5-.4,1.5-1.1,0-.1-.2-.3-.3-.3-.7-.2-1.4-.3-2.1-.5-.2,0-.4-.2-.6-.4.2-.1.5-.3.7-.3.3,0,.5.2.8.2.6,0,1.1,0,1.7.1.5,0,.9.3,1.3.4-.3.2-.6.4-.8.6-.3.4-.6.9-.5,1.3,0,.3.6.5,1.1.8Z"/>
    <path d="M213.2,143c-1.2.2-1.1-.9-1.5-1.5,0,0,.2-.4.3-.5.1.1.3.2.4.4.3.5.6,1.1.8,1.6Z"/>
    <path d="M221.3,149c0,.1-.2.2-.2.2,0,.3-.2.6-.2,1-.2-.4-.4-.8-.4-1.2,0-.3.2-.7.3-1,.2.3.4.7.6,1Z"/>
    <path d="M209.4,140.5c.1-.4.2-.6.3-.9,0,0,.3-.2.3-.2.1.1.3.3.3.4,0,.2-.1.5-.2.7,0,.2-.1.4-.1.6-.2-.2-.4-.4-.5-.7Z"/>
    <path d="M220.2,133c.3.2.7.4.8.7,0,.2,0,.6-.2.9,0,0-.2,0-.3.1,0-.3-.1-.5-.2-.8,0-.3-.2-.6-.2-1Z"/>
    <path d="M221.1,144.4c-.2.2-.3.3-.5.3,0-.3-.1-.7-.2-1,.2.2.4.4.6.6Z"/>
    <path d="M219.6,142.3c.3,0,.7-.1,1-.1-.2,0-.3.1-.5.2-.1,0-.3,0-.5,0Z"/>
    <path d="M194.7,175.8c-.4.1-.7.2-1.1.2,0-.2.1-.4.2-.5.3,0,.8-.7.9.3Z"/>
    <path d="M195.3,175.3c.2-.1.5-.1.7-.1,0,0,0,.2,0,.2-.2,0-.5,0-.7-.1Z"/>
    <path d="M84,158c0-.2,0-.4,0-.4.2-.3.4-.6.6-.9,0,0,.1.1.2.2-.4.5.3,1.5-.8,1.6,0,0,0-.2,0-.4Z"/>
    <path d="M158,184c0-.2,0-.4,0-.6.3.1.6.3,1,.4-.3,0-.5.2-.9.2Z"/>
  </g>
</svg>