<?xml version="1.0" encoding="UTF-8"?>
<svg id="Layer_1" data-name="Layer 1" xmlns="http://www.w3.org/2000/svg" viewBox="0 0 454.75 299">
  <g id="_8dCL35" data-name="8dCL35">
    <g>
      <path d="M151.86.22l32.04,55.65-3.26-53.25h7.81c-1.66,8.36,5.46,66.36,2.64,68.3-7.15,4.94-11.74-10.77-14.09-14.65-8.07-13.3-16.93-25.56-23.66-39.36h-2.57s3.89,53.26,3.89,53.26l-7.19-1.2L142.97,0l8.9.22Z"/>
      <path d="M213.13,63.01l2.07,1.75,31.67.21,1.36,7.11-41.6-.62-2.58-68.86,37.75,3.16,1.21,8.52-30.35-2.49c-4.47,1.29.73,16.42-.68,20.55,4.88,3.04,30.16-.57,31.11,3.58.84,3.69,0,7.05-4.22,6.68-8.63-.76-17.46-.55-25.73-2.32v22.74Z"/>
      <path d="M65.03,175.38c5.36-1.03,11.37.99,16.23,1.04,8.14.09,23.06-6.33,21.44,6.75h-48.07s2.37-11.27,2.37-11.27l31.42-50.42-32.5-.66v-7.81s41.66.58,41.66.58c2.24,1.57,1.34,7.37.51,9.77-4.15,11.91-24.8,34.4-31.8,47.43-.84,1.57-1.76,2.47-1.26,4.58Z"/>
      <path d="M278.08,287.77c-.74,4.06-15.15,10.16-19.16,10.74-40.24,5.77-40.39-80.58,2.26-67.88,7.87,2.34,24.22,19.51,9.13,20.12.41-13.33-17.57-18.61-27.36-9.8-10.65,9.57-9.94,41.96,3.6,48.49,9.64,4.65,22,.15,27.63-7.48-5.68.86-.93-9.17-1.85-10.45l-16.33-1.26v-6.5s22.09,0,22.09,0v24.03Z"/>
      <path d="M312.09,131.63c-8.49-15.04-23.13-11.14-37.91-12.11l2.78,66.07c1.95,3.12,25.32,1.05,29.83-.39,2.21-.7,1.97-1.79,3.04-2.75,12.84-11.55,10.2-36.77,2.26-50.82ZM283.22,178.68l-2.39-49.31c5.94-4.61,20.54-2.21,25.42,3.55,5.92,6.98,6.61,22.65,5.61,31.43-1.91,16.94-14.69,16.04-28.64,14.33Z"/>
      <path d="M183.25,237.75l-.08,21.48,31.19.68.07,6.43h-31.18l1.3,24.69c6.89-.95,13.51.09,20.15.11,6.09.01,14.14-4.74,13.63,6.38-9.75.09-19.53-.07-29.29-.05-3.64,0-8.04,2.82-11.05-.8l-2.54-66.68,38.18.19c2.5.69,2.38,6.58.14,7.59h-30.53Z"/>
      <path d="M172.73,115.71l1.44,33.69c9.27-6.14,13.92-16.78,20.85-24.96,3.89-4.58,7.73-8.54,14.21-7.51l-19.43,27.94c4.56,6.06,7.43,13.85,11.1,20.02,2.67,4.47,6.31,8.98,9.23,14.09,1.2,2.1,4.54,1.7,2.99,6.8-2.27-1.41-7.11-.39-8.79-1.58-2.3-1.62-15.64-32.73-20.43-34.79-1.41,4.3-7.36,8.69-8.22,12.66-1.3,5.99,1.01,16.16,1.08,22.41l-7.25-1.26-3.05-65.57,6.28-1.93Z"/>
      <path d="M135.12,116.44c-1.79-3.34-5.74-1.03-8.89-2.05l-17.04,68.78,6.64-.74c-.02-7.11,5.5-13.81,2.46-20.02l26,.62,7.9,21.32,7.67.12-24.74-68.03ZM123.61,153.85c-.99-4.07,8.24-23.95,6.38-30.43,2.1.19,1.9,2.03,2.47,3.36,3.71,8.59,5.66,18.09,9.95,26.47.98,4.14-18.05,3.69-18.8.6Z"/>
      <path d="M116.87,230.06l18.97,58.35,14.94-58.47,8.51,1.23,1.88,37.11-1.97-.36-.63,4.9,2.57-2.59,1.31,27.27h-6.5s-2.61-57.15-2.61-57.15l-14.79,57.28c-2.78,1.87-5.2,2.09-7.05-1.01-3.74-6.24-6.21-22.81-8.4-30.57-1.26-4.46-5.9-11.94-5.81-17.52.04-2.65,5.83-10.23-2.88-12.08v62.36s-6.52,0-6.52,0l-1.37-66.81,10.35-1.94Z"/>
      <path d="M243.66,119.52l-8.31-1.15-17.02,67.4h7.77c1.14-1.21-.12-9.39.1-10.86.08-.52,6.06-4.69,2.79-9.29l1.65-1.86,23.93,1.37c1.08,2.78,4.66,19.82,5.49,20.48.83.68,5.75-.21,7.62,1.47l-24.02-67.56ZM250.8,158.49h-18.18l6.49-33.76,3.44,1.9c-3.2,4.83,9.88,30.43,8.25,31.86Z"/>
      <path d="M381.52,124.78c-2.64.26-7.55,2.44-9.47,4.27-15.11,14.41-9.62,61.47,14.69,62.82,30.78,1.71,25.67-70.2-5.22-67.09ZM381.93,183.92c-9.22-2.18-12.25-13.82-12.89-22.2-.62-8.16.09-17.07,4.27-24.27,4.32-7.42,15.75-6.34,21.24-.59,7.44,7.8,8.87,29.07,5.32,38.84-3.46,9.51-8.28,10.49-17.94,8.22Z"/>
      <path d="M39.62,151.42c6.23,6.92,8.07,16.61,2.07,24.66-2,2.69-3.96,2.31-6.1,3.65-.87.55-1,2.74-2.59,3.26-1.2.39-2.96-.64-4.46-.36-1.37.25-2.69,1.72-4.48,1.81-6.23.31-13.12-2.65-17.43-7.09l2.54-4.54-7.9-2.14c-1.36-2.29-2.25-10.21.78-10.85,4.07-.87,4.4,9.14,6.51,11.65,3.95,4.71,12.95,4.44,18.25,6.39,2.61-3.69,7.92-2.95,10.59-8.67,2.12-4.52-.25-12.91-3.79-15.55-.71-.53-13.08-.53-12.76-6.82l-1.92,2.59c-1.84-.71-8.95-7.31-7.15-9.08,10.66,2.36,20.15,2.54,27.85,11.1Z"/>
      <path d="M350.83,123.42l.97,54.88c-4.65,22.62-26.16,7.68-24.34-9.4h5.16c-.35,6.66,1.74,14.17,9.52,14.13,8.73-2.23,3.75-33.31,3.45-40.71-.25-6.27.28-12.63.06-18.9h5.18Z"/>
      <path d="M437.86,166.29l-14.26-23.38,1.28,49.36h-5.19s-2.6-63.64-2.6-63.64c2.09.04,4.65-.5,6.51.63,1.41.86,14.43,26.75,15.03,29.25.71,2.96-.54,4.98-.77,7.78Z"/>
      <path d="M41.64,132.51l-7.66-.14c-1.75-14.97-13.98-16.01-26.1-11.56.43-2.95-.18-3.45-2.61-4.52,11.86-12.85,36.97-1.58,36.38,16.23Z"/>
      <path d="M324.84,61.06l-3.35-1.93-4.44-47.43c12.93-2.47,5.6,13.36,9.18,21.45l-1.39,27.92Z"/>
      <path d="M454.75,177.98l-1.94-6.5-1.94,6.5c.36-6.01-1.72-14.28-1.28-20.05.14-1.81,3.18-5.52,2.51-7.67-.3-.96-2.28-.77-2.52-1.75-.62-2.55-.72-16.16,1.93-17.29l2.58,5.88.64,40.88Z"/>
      <polygon points="267.7 64.96 267.68 75.35 259.97 73.99 259.89 64.96 267.7 64.96"/>
      <polygon points="288.48 75.36 281.3 74.12 280.69 66.27 287.91 67.48 288.48 75.36"/>
      <polygon points="307.96 67.55 307.97 76.66 301.54 76.58 300.72 68.82 307.96 67.55"/>
      <polygon points="327.46 68.85 327.45 77.96 322.17 77.39 320.95 68.85 327.46 68.85"/>
      <path d="M444.38,176.7l2.58-1.32-1.93,6.5c-3.2-2.92-4.2-6.5-1.96-10.38l-3.88,1.29,2.61-6.49c3.19,1.7,3.47,7.41,2.59,10.4Z"/>
      <polygon points="6.55 132.52 6.34 138.78 2.69 140.31 .08 126.03 2.59 132.04 6.55 132.52"/>
      <path d="M129.99,123.42c2.1.19,1.9,2.03,2.47,3.36,3.7,8.59,5.66,18.08,9.95,26.47.98,4.14-18.06,3.68-18.8.59-.98-4.07,8.25-23.94,6.38-30.43Z"/>
      <path d="M394.55,136.87c7.44,7.8,8.87,29.07,5.32,38.83-3.46,9.51-8.28,10.49-17.94,8.22s-12.25-13.82-12.89-22.19c-.62-8.17.09-17.08,4.27-24.27,4.31-7.42,15.75-6.34,21.23-.59Z"/>
    </g>
  </g>
</svg>