<?xml version="1.0" encoding="UTF-8"?>
<svg id="Layer_1" xmlns="http://www.w3.org/2000/svg" version="1.1" viewBox="0 0 592 237.8">
  <!-- Generator: Adobe Illustrator 29.3.1, SVG Export Plug-In . SVG Version: 2.1.0 Build 151)  -->
  <g id="Shape_6">
    <path d="M307.3,80.5c1-.2,1.4.4,1.8,1.1.4.7.5,1.6,1.4,2,.3.1.2.9.4,1.4,0,.2.3.3.5.4,0,0,.3-.2.4-.4.4-.9,1.1-1.8,1.2-2.8.2-1.8,1.5-2.5,2.7-3.2,1.4-.7,2.9-1.3,4.4-1.5,2.5-.4,4.9-1.6,7.5-1.5,2.5,0,5-.6,7.5-.6,2.7,0,5.4.4,8,.7,1.1.1,2.1,1,3.4,1.1,1.3.1,1.8-.1,2-1.3.1-.9.3-1.8.5-2.7.6-2.4,2.3-4,4.1-5.5,1.7-1.4,3.7-2.6,5.5-3.7,2.4-1.4,4.7-3,7.4-4,3.1-1.1,6.2-2.2,9.3-3.4.7-.3,1.4-.4,2.1-.5,1.5-.2,2.9-.3,4.4-.4,1.4-.1,2.9,0,4.2-.4,1.3-.4,2.5-.9,3.8-1.4,1.4-.6,2.7-.4,4-.2.8.1,1.6.2,2.4.3.7,0,1.4.1,2,.4.4.2,1.6.3.7,1.3-.1.1-.1.6,0,.7,1.1.9.6,2.3.9,3.4.3,1.1.4,2.4.1,3.5-.2.8-.9,1.8-1.8,2.1-1.3.4-2.7.9-4,.8-2.8-.2-5.4.5-8,1.2-2,.5-4,1.1-5.9,1.8-1.7.6-3.5,1.3-5.1,2-2.3,1.1-4.7,2.1-6.9,3.3-1.5.8-3,1.9-4.4,2.9-1.1.8-2.1,1.7-3.2,2.4-1.6,1-3.3,1.9-5,2.8-.4.2-.9.2-1.4.2-.8.1-1.6.2-2.4.4,0,0,0,.3,0,.4.5,1.7,1.1,3.3,1.5,5,.2.8-.3,1.7-.3,2.6,0,.5.2,1.4.3,1.3.8,0,.7-.7.8-1.3.2-.9.9-1.6.7-2.6,0-.1.2-.4.2-.4.9.1,1.2-.7,1.7-1.1.8-.6,1.4-.5,2,.3,1.5,2,1.5,2.1,4.2,1.5,4.4-1,8.7-2.8,13.1-3.7.9-.2,1.8-.7,2.7-1,1.9-.7,3.8-1.6,5.8-2.1,1.3-.3,2.7-.4,4-.9.5-.2,1.2-.8,1.5-.7,1.4.6,2.2-.5,3.2-.8,1-.3,2-.8,3.1-.8,1,0,2.5-1.6,2.4-2.6,0-1.9,1.3-2.8,2.5-3.8.9-.7,2-1.3,3.1-1.7.8-.3,1.8-.4,2.7-.5,1.8-.3,3.5-.4,5.3-.8.6-.1,1.1-.5,1.6-.8.4-.2.8-.5,1.2-.6.7,0,1.1,0,1.1-.9,0-.2.5-.9,1.1-.3.7.8,1.6.6,2.4.3,1.7-.5,3.3-1.1,4.9-1.6.9-.3,1.8-.6,2.8-.7,1.6-.2,3.3-.2,4.9-.4,1.6-.2,3.3-.2,4.9-.9,1-.4,2.1-.5,3.2-.5,2.8-.2,5.6-.3,8.4-.4,2,0,3.9.4,5.6,1.8,1.7,1.4,3.5,4.1,3.8,6.2.1,1.1.5,2.1.7,3.1.1.7.3,1.3.4,2,.2,3-1,5.6-3,7.8-.6.7-1.4,1.3-2,2-.8.9-1.5,1.8-2.3,2.6-.7.7-1.2,1.4-2.4,1.6-1.1.2-2.1,1.3-3.1,2.1-.6.5-1,1-1.9,1.2-1.5.4-2.5,1.5-3.3,2.9-.7,1.3-2,1.8-3.2,2.4-1.8.9-2.7,1.3-3.3,2.7-.3.6-.5,1-1.2.9-.9-.1-1.5.3-1.7,1-.2.7-.3,1.6.5,2.3,2,1.8,4.3,3.3,6.6,4.7,1.6,1,3,2.2,4.7,3.1.9.5,1.9,1.2,3.1,1.2,1.3,0,2.5,0,3.8,0,.7,0,1.1.3,1.3.7.9,1.7,1.4,3.5.8,5.5-.2.6-.3,1.3-.5,2,0,.2-.1.5-.3.6-1.3.5-1.7,2.1-3.1,2.5-.8.2-1.4.8-1.7,1.6-.5,1.6-1.3,1.5-2.8,1.2-1.8-.4-3.4-1.2-5.2-1.4-1,0-1.9-1-2.8-1.5-2.6-1.4-5.1-2.7-7.7-4.1-.4-.2-.8-.4-1.2-.5-1.1-.2-1.3,0-1.2,1,0,1.1,0,2.2.4,3.3.4,1.4.2,2.8,0,4.2-.1,1.8-1,3.3-1.1,5,0,1.1-.7,1.2-1.4,1.3-1.4.2-2.6-.3-3.8-1-.3-.2-.6-.4-.9-.5-.4-.1-1,0-1.2-.2-.3-.4-.3-.9-.4-1.4-.3-1.8-.5-3.7-.7-5.5,0-.2-.2-.4-.3-.6-.1-.2-.4-.6-.4-.7.7-1.3-.2-2.5,0-3.8.3-1.9.2-3.9.3-5.9-1.4-1.2-.3-2.9-1-4.3-.3-.6-.3-1.7,0-2.3.4-.8.2-1.5.3-2.2,0-.6-.1-1.2.5-1.6.1,0,.2-.4.2-.6,0-1,.3-1.9.9-2.7.4-.6.4-1.6.6-2.5.1-.8.3-1.7.4-2.6,0-3.6,0-7.2,0-10.9,0-.5-.4-.9-.5-1.4-.2-.6-.6-1.1-.2-1.8.4-.8.1-1.3-.8-1.1-1.1.2-2.2.6-3.2,1-1.6.6-3.1,1.2-4.6,1.9-.6.3-1.1.9-1.4,1.5-1,2-2.7,3-4.7,3.6-.4.1-1,.1-1.3.4-.8.8-1.8.9-2.8,1.1-2.2.3-4.5.7-6.6,1.5-2.4.9-4.9,1.9-7.3,2.9-1.9.8-3.8,1.2-5.8,1.7-.6.2-1.3.4-1.9.7-1.6.7-3.2,1.5-4.9,2.2-1.4.6-2.9.9-4.3,1.4-1.4.5-2.8,1.2-4.1,1.8-.7.4-1.2,2.1-.7,3.1.5,1,.8,2.1,1.1,3.2.3,1.1,1.2,2.1,2,3.1.3.3.9.3,1.4.4,1.6.2,3.1-.2,4.6-.7,3.9-1.5,7.8-2.9,11.7-4.5,1.6-.6,3.1-1.6,4.6-2.4.8-.4,1.6-.8,2.4-1.1,1.3-.4,1.3-.4,2.1.8.2.4.4.8.7,1.1.4.5.3.8.1,1.4-.6,1.6-1,3.3-1.6,5-.2.6-.6,1.2-.9,1.8-.2.4-.4.8-.5,1.2-.4,1.2-1.4,1.7-2.3,2.3-3.1,2.2-6.5,4-10.1,5.2-1.7.6-3.4,1.5-5,2.3-1.6.8-3.1,1.2-5,1-2-.2-4-.4-6,.2-.2,0-.5,0-.6-.1-2.1-1.9-4.1-3.8-6.1-5.7-.4-.3-.5-.9-.8-1.3-.2-.3-.5-.6-.9-.7-.5-.1-1.1-.1-1,.8,0,.6,0,1.2-.2,1.7-.8,1.7-1.5,3.5-2.6,5.1-.7,1-1.9,1.7-3,2.3-1.7,1-3.4,1.9-5.2,2.7-1.6.7-3.3,1-5,1.5-2.3.7-4.6,1.3-7,1.6-1.8.2-3.4-.2-5.1-.2-1.1,0-2.2-1-3.2-1.7-1.6-1.1-2.3-2.6-2-4.6.1-.6,0-1.3,0-2,0-4.1,1.1-7.8,3.2-11.4,1.5-2.5,3.1-4.9,5-7.1,1.6-1.9,2.9-4,4.5-5.9,1.1-1.3,2.4-2.3,3.5-3.6,1.7-2,3.4-4,5-6.1,1-1.3.5-2-1.1-2.4-2.5-.6-5-.4-7.5-.3-2,0-4,.6-6,1.1-1.8.4-3.7.7-5.4,1.5-2.1.9-4.3.6-6.4.6-.5,0-1.2,0-1.6-.4-1-.6-1.6,0-2.5.3-1.3.6-2.7,1-4.1,1.1-4,.2-7.9,1-11.7,2.4-1.6.6-3,1.5-4.4,2.4-.9.6-.8,1,.2,1.3.7.3,1.6.4,2.3.5,1.6.3,3.3.4,4.9.8,1.6.4,3.3.8,4.8,1.5,1.2.5,2.4,1.1,3.3,2,1.8,1.6,3.4,3.3,4.6,5.5.3.6.5,1.1.6,1.8.2,1.2.4,2.3.6,3.5,0,.3,0,.7,0,1.1-.1,1.5-.2,3-.4,4.6,0,.1,0,.2,0,.3-1.4,1.9-2.3,4.2-4.6,5.2-1.1.5-2.1,1.1-3,2.1-.4.5-.9.9-1.5,1.2-3.2,1.5-6.4,3-9.5,4.5-1.5.7-3.1.7-4.7,1-.8.1-1.2-.5-1.8-1-1.4-1.2-1.4-2.8-1.6-4.4,0-.3,0-.8-.1-1-.9-1.2-.5-2.2.1-3.3.5-.9.5-2.1,1.5-2.8,1-.8,2.1-1.2,3.1-.7,1.8.8,3.3,0,4.8-.6,1.2-.5,2.2-1.3,3.3-2,.3-.2.7-.5,1-.7.9-.9.8-1.4-.5-1.8-1.2-.3-2.5-.5-3.7-.7-2.3-.5-4.6-.7-6.9-.8-2.1,0-4.3,0-6.2-.8-2.4-.9-4.8-2-6.4-4.1-.1-.2-.3-.4-.3-.6,0-1.6.1-3.2.3-4.8,0-1.1.4-2.2.4-3.3,0-1.1.3-2.1.8-2.9,1.4-2.3,2.6-4.9,4.8-6.7,1.3-1,2.6-2.2,3.9-3.2,1.6-1.2,3.3-2.4,5.2-3.1,2.8-1,5.5-2.1,8.3-3.2,1.9.4,3.3-.6,4.9-1.4,1.2-.6,2.7-.8,4-1.1.1,0,.2-.1.4-.3M332.9,116.4c-1.1.9-1.8,2.1-2.3,3.4-.4,1-.2,1.4.8,1.5,1.7.2,3.1-.6,4.7-1,3.2-.7,6.2-1.8,9.3-2.9,1.7-.6,3.3-1.4,5.1-1.7,1.9-.3,2.5-1.4,2.3-3.4,0-.9-.5-1.8-.6-2.7-.1-1.5-1.1-3-.2-4.5.2-.3,0-.9-.3-1.3-.7-1.2-.8-2.5-.8-3.8,0-1.3.7-2.4.9-3.6,0-.4,0-.7,0-1.1-.3.2-.7.4-.9.7-.6,1.1-1.3,2.2-1.7,3.4-.5,1.4-1.5,2.2-2.5,3.1-1.8,1.5-3.7,2.8-5.4,4.4-2.1,2-4,4.1-5.9,6.2-.9,1-1.6,2.1-2.6,3.3M429,86.9c-.4,2.4,0,4.9-.9,7.2,0,.1.2.4.4.5,0,0,.4,0,.5-.2.3-.2.5-.5.8-.8,3.5-3.2,7.3-6,10.6-9.5.2-.2.4-.5.6-.6,1.9-.9,2.7-2.9,4.1-4.3.4-.4.8-1.2.2-1.9-.5-.6-1.2-.4-1.8-.3-1.3.2-2.6.5-3.9.7-1.4.2-2.8.2-4.2.4-1,.2-2,.5-2.9.9-.6.2-1.2.6-1.5,1.1-1,2-2.2,4-2,6.7Z"/>
    <path d="M82.1,99.2c.2-.9.6-1.7.7-2.4.3-1.9.5-3.9.7-5.9,0-.5-.3-1.1-.3-1.7,0-1.5.3-2.8.8-4.2.2-.6.5-1.2.5-1.8,0-1.2.6-2.1,1.3-2.9.3-.4.7-.7,1-1,.4-.4.4-1.4,1.3-1.2.9.2,2.1.2,2.7.7,1.9,1.6,3.6,3.5,3.9,6.1,0,0,0,.1,0,.2,1.9,2.7,1,5.7,1,8.6,0,1.4-.2,2.8-.3,4.2,0,.5-.2,1-.4,1.5-.2.9-.5,1.7-.7,2.6,0,.3-.2.5-.3.8-.8,1.7-1.2,3.5-1.1,5.3,0,1-.6,1.7-.7,2.6-.4,2.7-1.1,5.3-1.8,7.9-.3,1,0,1.2,1,1,.4-.1.8-.3,1.2-.3,1.6,0,3.1-.2,4.6-.7.5-.1,1.1,0,1.5.1,1.6.5,3.3.9,5.1.9,1.1,0,2.2.3,3.3.3,1.2,0,1.7-.4,1.8-1.6.2-2.4.3-4.8.4-7.3,0-.2,0-.6,0-.7-.8-1.1-.6-2.2-.3-3.4.6-2,0-4.1.4-6.2.4-2.6,0-5.4,1.1-7.9,1.2-2.4,1-5.1,1.8-7.6.2-.7.3-1.5,1.4-1.7.7-.1,1.5-.4,2-.8,1-.7,1.7.5,2.5.1,0,0,.2.2.2.2-.2.2-.3.4-.5.5-.3.1-.6.1-.8.2.2.2.5.4.8.6.7.4.9,1,1.1,1.9.2,1.4.8,2.7,1.3,4,.7,2.1,1.6,4.2,1.2,6.6-.3,1.9-.8,3.8-1.2,5.7,0,.4,0,.7,0,1.1,0,.2.2.3.2.5-.5,1.9.3,3.8,0,5.7-.2,1.6-.6,3.3-.7,5-.1,1.9.3,3.7.7,5.5.1.5,0,1,0,1.4.1.7.4,1.3.6,1.9.6-.2,1.2-.4,1.7-.7,1.9-1.1,3.6-2.4,5.5-3.3,3.3-1.4,6.4-3.3,10.1-3.7,1.6-.2,2.3-1.1,2.4-3,.2-3.2,1.4-6.1,2.6-9.1,1-2.5,2.5-4.5,4.3-6.3,1.2-1.2,2.9-2.1,4.6-2.8,1.8-.8,3.8-1.3,5.7-1.9.4-.1.9-.3,1.3-.4.7-.1,1.4-.2,2-.4,1.5-.5,2.9-.8,4.2.6.3.3.7.6,1.1.8.6.2,1,.5,1,1.2,0,.5.4.9.9,1.2,1.4.8,1.4,2.4,1.9,3.7.8,2.2,1.3,4.4,1.8,6.7.2.8.3,1.6.4,2.4,0,1.7.7,2.3,2.4,2.3.3,0,.6-.1.8-.1,2.2-.3,4.4-.8,6.7-.9,1.1,0,2.2.4,3.3.7.6.2,1.1,1.3.9,2-.1.5-.1,1.1-.4,1.4-.6.6,0,.6.2.9.3-.2.6-.3.9-.5.1-.1,0-.5,0-.7.2-2.5,0-4.9-.7-7.4-.3-1-.4-2.2-.3-3.1.1-1,0-2.1.2-3.1,0-.2.1-.3.2-.4,1.1-1.9,1.6-4,2.3-6.1.5-1.5,2.2-2.6,3.9-2.5.4,0,.8.2,1.1.4.8.9,1.6,1.9,2.2,2.9,1.4,2.4,2.7,4.8,4.1,7.2,1,1.6,2.2,2.9,3.2,4.5,1,1.7,1.8,3.5,2.6,5.3,1.3,2.9,2.6,5.8,4,8.6.6,1.2,1.6,2.2,2.5,3.1.5.5,1.3.4,1.7-.2.9-1.4,1.9-2.7,2.6-4.2,1.2-2.4,2.1-4.9,3.2-7.4,1.3-3,2.6-6.1,3.4-9.3,0-.3,0-.7,0-1.1,0-1.8,0-3.6,0-5.4,0-2.5,1.7-3.3,3.4-3.3.8,0,1.6,0,2.3.5,1,.6,1.3.4,1.8-.6.9-1.6,1.7-3.2,2.5-4.7,0-.2,0-.5,0-.7.2-1.7,1.2-2.7,3-2.7.7,0,1.3,0,2,0,.2,0,.3.1.5.2-.1.1-.2.3-.4.4-.2,0-.5,0-.6.2-.2,0-.3.3-.4.4.2.1.4.3.5.3.9,0,1.1.3,1.3,1.2.3,1.3.8,2.7,1.6,3.8,1.3,1.9,2,4,2.3,6.3.4,2.4.6,4.8,2.1,6.9.4.5.3,1.3.4,2,0,.5-.1,1,0,1.4.2.4.6.8,1,1.2.3-.3.6-.5.8-.8.9-1.5,1.8-2.9,2.5-4.4,1.3-3.2,3.4-5.8,5.2-8.7,1.6-2.6,2.8-5.5,3.9-8.4.4-1,.5-2.1.8-3.1.5-1.8,1.7-2.6,3.4-2.8,1.1-.2,1.9.5,2.1,1.7.3,1.8.7,3.6,1.4,5.4.6,1.5,1.1,3.1,1.8,4.7.2.6-.1,1.4-.2,2-.1.7-.1,1.5-.5,2.1-.5.8-.3,1.6-.3,2.4,0,.7,0,1.4,0,2-.3,2.1.8,4.1.5,6.3,0,.6.2,1.2.3,1.8.4,3.3,0,6.7,0,10-.1,2.8-.6,5.6-.7,8.4,0,1.1.2,2.1.9,2.9.6.8.9,1.5,1,2.5.2,1.2.5,2.4.8,3.5.3.9-.5,1.5-.1,2.3-.9,1.1-.8,2.7-1.5,3.9-.3.5-.6,1.1-1,1.3-1.7,1.1-3.7,1.4-5.7,1.5-1,0-1.6-.5-2-1.3-.8-1.8-1.2-3.6-1.5-5.5-.5-2.6.2-5.3-1-7.7,0-.1,0-.4,0-.5-.1-4.4-.2-8.7-.4-13.1,0-.7-.2-1.4-.4-2,0-.3-.5-.4-.8-.6-.1.2-.3.4-.4.7-.8,2-1.6,4.1-2.4,6.1-.5,1.2-1.1,2.5-1.8,3.6-1,1.5-2.7,2-4.4,2.3-.8.2-1.9,1-2.7-.3,0-.2-.7,0-1,0-.6,0-1.2,0-1.6-.5-.1-.2-.6-.3-.8-.2-.6.2.2.4,0,.5-.1.1-.5.1-.6,0-.3-.4-.6-.8-.8-1.3-1.8-3.3-2.9-6.8-3.9-10.3-.4-1.6-.6-3.3-1.6-4.8,0-.1,0-.4-.2-.5-.3-.3-.6-.7-1-.7-.5,0-.6.5-.7,1-.4,1.7-.9,3.3-1.4,5-1.2,4.1-2.9,8.1-4.8,11.9-1.2,2.4-2.1,4.9-3.2,7.4-.6,1.4-1.4,2.7-2.4,3.9-1.1,1.4-2.4,2.3-4.3,2.2-1.2,0-2.4.3-3.5.2-.9-.1-2-.5-2.7-1.1-1.8-1.6-3.5-3.4-5.3-5.2-.5-.5-.9-1.1-1.3-1.6-.3-.4-.7-.8-.8-1.3-.4-1.8-1.1-3.4-2.4-4.8-.6-.7-1-1.7-1.7-2.4-.7-.7-1.2-.6-1.8,0-1.1,1.4-2.2,2.8-2.2,4.9,0,1.9-.6,3.7-1,5.5-.3,1.4-.5,2.8-.8,4.2-.1.8-.2,1.6-1.4,1.5-.2,0-.5.3-.7.4.2,0,.5.1.6.3.3.3.6.7.6,1,0,.3-.4.7-.9.3-1.2-1.1-2.3-.2-3.4.2-.4.2-.8.4-1.1.6-.1-.4-.2-.8-.4-1.1-.9-1.8-1.4-3.8-1.1-5.8.2-1.2,0-2.5.6-3.7.2-.4,0-1,0-1.4,0-2.5.2-5,.7-7.5.3-1.5,0-3,0-4.5,0-.2-.1-.3-.2-.5-.2,0-.5.1-.6.3-.2.4-.3.9-.3,1.3,0,2.8-1.4,4.4-4.1,4.9-1,.2-2.1.3-2.9.8-.7.4-1.4.3-2.1.3-1.9,0-2.6,1-2.1,2.7.4,1.5.7,2.9.7,4.4,0,1.1.3,2.2.3,3.3,0,.4-.2.9-.3,1.3-.3,1-.9,1.9-1,2.8-.1,1.7-.9,3.2-.9,4.9,0,1.8-.6,3.7-1.2,5.5,0,.3-.2.5-.2.8,0,1.9-1.9,3.3-3.8,3.6-.2,0-.5,0-.7,0-2.3,0-2.3,0-3.1-2.3-.5-1.5-.8-3-.7-4.6,0-3.4,0-6.9,0-10.3,0-1.1-.2-2.1-.7-3.1-.3-.5-.5-1.1-.7-1.7-.4-1-.8-1.4-1.8-1.1-2.3.8-4.7,1.6-6.8,2.8-1.5.9-1.9,2.2-2,3.7-.2,2.1,0,4.3-.4,6.4-.4,2-.9,4-3.2,5-1.5.6-3,1.4-4.6,2-.8.3-1.8.2-2.5-.1-1.8-.9-3.5-2-3.4-4.6,0-1.4,0-2.8,0-4.2,0-.7-.3-1.5-.3-2.2,0-.7.3-1.5.3-2.2,0-1.3,0-2.5,0-3.8,0-.4,0-.8,0-1.2.2-1,0-1.3-.9-1.2-.5,0-1,.2-1.5.4-2.1.9-4.2,1.9-6.2,2.9-1.7.9-3.4,1.6-4.7,3.1-.6.7-1.8,1.3-3.1,1.3-.9,0-2,0-2.7.4-.7.5-1,0-1.4-.1-.7-.3-1.5-.6-2.2-.8-.8-.2-1.4-1.1-2-1.8-.4-.4-.7-1-1-1.6-.5-.9-1-1.2-2-.7-.5.3-1.4.3-1.9,0-1.2-.5-2.3-.3-3.5-.3-2.5-.1-5-.3-7.5-.4-2.6,0-5,.3-7.4,1.3-.7.3-1.6.2-2.3,0-1.1-.2-2.2-.6-3.3-.8-1.4-.2-1.7-1.5-2.2-2.5-1.2-2.2-1.1-4.6-1.1-7,0-1.4,0-2.8-.2-4.2-.3-1.6.2-3.4.4-5,.1-1,.7-1.9.5-2.8-.3-2.4,1-4.6.8-6.9-.1-2.1.1-4.2.7-6.2.1-.5,0-1.1,0-1.8M159.4,114.8c.2-.1.4-.3.6-.4,1-.4,1.5-1.1,1.4-2.2,0-1.1,0-2.3,0-3.4,0-1.2-1-2-2-1.6-1,.4-2.4.4-2.9,1.7-1.8.8-2.3,2.6-3.2,4.1-.3.5-.2,1.5,0,2.1.2.6.8.9,1.5.7,1.4-.4,2.8-.7,4.6-1.1M192.3,97.4c.2-.2.4-.3.5-.5-.5-.3-1-.5-1.5-.8-.1.2-.2.5-.3.7,0,0,.2,0,.3.1.2.1.4.2.9.4M165.5,136.5c-.3.2-.5.4-.8.6.4.1.8.3,1.2.4,0-.3-.1-.6-.4-1M197.7,120.6c-.2.4-.5.8.2,1.1.2,0,.4,0,.7,0-.2-.3-.3-.7-.8-1M165.5,94.9c.2.1.5.2.7.3,0,0,0-.2,0-.2-.3-.2-.5-.8-.8,0M92.8,101.7s0,0-.1.1c0,0,0,0,0,.1.2,0,.4,0,.7,0-.1-.1-.2-.2-.5-.1M264.2,81.6c0,0,.1,0,.2.1,0-.1,0-.2-.2-.1Z"/>
    <path d="M575.1,111.5c-.1.6-.3.9-.4,1.3-.6,4.4-2.8,7.8-6.8,9.9-1.1.6-2,1.4-2.8,2.3-.7.6-1.2,1.4-1.9,1.9-.8.5-1.7,1-2.7.2-.8-.7-1.8-.4-2.6-.3-1.9.3-3.7,1-5.6,1.4-1.1.2-2.3.3-3.5.4-1,0-1.9.2-2.9.5-1.2.4-2.6.6-3.8-.5-.8-.7-1.7-1.4-3-1.5-.9,0-1.8-.7-2.8-1.1-1-.4-1.8,0-1.9.9,0,1.1-.6,2-1.4,2.5-1.1.6-2.2,1.4-3.6,1.4-3.6,0-7,.9-10.3,2.3-1.9.8-3.9,1.3-5.9,2-.4.1-.8.3-1,.6-1.7,2.3-3.7,4.1-6.3,5.2-.9.4-2,.6-2.5.2-1.6-1.1-3.6-1.6-4.4-3.6-.2-.6-.4-1.3-.4-2-.6-4.8-.3-9.5-.4-14.3,0-.2-.1-.4-.2-.6-.2.2-.4.3-.5.5-.2.4-.3.9-.4,1.3-.4,1.6-1.2,2.4-2.8,2.5-1.4,0-1.8.4-1.9,1.7,0,.9-.2,1.1-1.2.9-.6,0-1.5.8-2.1,1.4-.7.7-1.4,1.5-2.5,1.7-.6.1-1.2.5-1.6,1-2.1,2.2-4.7,3.2-7.5,4.1-.7.2-1.3.7-1.9,1-1,.5-2.1.3-3.2.3-2.3,0-4.1-1.5-6.2-2.1-.5-.1-.9-.8-1.3-1.2-2.7-2.4-3-6-4.7-8.9-1.5-2.6-2.1-5.5-2.2-8.5,0-1.3-.4-2.6-.7-3.9,0-.3-.3-.5-.5-.7-1.2-.8-1.7-2.1-1.9-3.4-.1-1.7-.6-3.5.5-5.1.4-.6.7-1.3.5-2.2-.1-.5.7-1.2,1.1-1.8.4-.5.4-.7.3-1.4-.2-1.5,0-3.2.4-4.7.6-1.8.7-3.8,1.3-5.6.8-2.5,1.9-4.8,3.3-7,.5-.8,1.2-1.6,1.1-2.6,0-.2.3-.5.4-.7.1.2.2.4.4.5.4.2,1,.5,1.2.4.5-.4,1.5,0,1.6-1,.4-3,2.2-5.3,3.9-7.6.3-.4.7-.7,1.4-.7,3.9,0,7.9-.1,11.8-.4,1.9-.1,3.6.5,5.4.9.3,0,.7.1,1,.2.2,0,.3.1.4.2-.1.2-.2.4-.3.5-1,.8-1,.9-.3,1.7.5.5.7.9.6,1.6-.1.8-.5,1.8.8,2.1.1,0,.2.5.2.7-.3,1.1-.7,2.3-1.2,3.3-1,2.1-2.7,3.3-5.1,3.3-1.6,0-3.2.1-4.8.7-.1,0-.2,0-.4,0-1.9.1-3.9.2-5.8.4-1.2,0-2.4.2-3.6.4-.5,0-1,.4-1.3.7-.4.4,0,.8,0,1.2,0,1.4,0,2.8-.2,4.2,0,1-.4,1.9-.5,2.9-.1,1.5.5,2.2,2,2.1,2.2,0,4.5,0,6.7-.4,2.5-.4,5-.7,7.5-1.1,2.6-.4,5.1-.6,7.7-.6.6,0,1.2,0,1.4.7.2.7-.4.7-.7.9-.2.2-.5.3,0,.6.3.3.7.5.9.9.3.5,1,1,.3,1.8,0,0,0,.2,0,.4,0,.9.4,1.9.1,2.6-.3.8-.7,1.6-.9,2.5-.1.7-.6,1.4-1.4,1.4-.9,0-1.3.5-1.8.9-1.1.8-2.2,1.6-3.6,1.7-.8,0-1.5.6-2.2.7-3.8.5-7.4,1.6-11.1,2.5-1,.2-2,.2-3,.6-2.6,1-2.9,1.3-2.4,4,.2,1.3.7,2.6,1.3,3.8,1.6,3.7,3.8,3.9,7.1,2.8,3.4-1.2,6.7-2.8,9.9-4.4,2-1,3.9-2.2,5.4-3.9.6-.7,1.2-1.3,1.9-1.9.8-.7,1.6-.7,2.2,0,.5.7.9,1.5,1,2.3.3,1.6.3,3.2.4,4.7,0,.2,0,.5.1.7,0,.2.2.3.4.4.1,0,.3-.2.4-.3.2-.6.5-1.2.5-1.8,0-1.4.5-2.6.7-3.9.1-.6.7-1.2,0-1.9-.2-.2.2-.9.3-1.4.4-1.2.9-2.5,1-3.7.2-2.5.9-4.8,1.9-7-.4-1.6.9-3,.8-4.6,0-1.2.7-2.5,1-3.7.7-2.8,1.8-5.5,2.9-8.2.7-1.5,1.6-3,2.2-4.5.1-.4.3-.8.6-1,.8-.6,1.1-1.5,1.5-2.3.1-.2-.1-.7.4-.3.7.5,1.6.6,2.4.9,1.8.6,2.3,1.1,2.6,2.9.2,1.3.4,2.7.8,4,.7,2.2.4,4.3-.7,6.3-.3.6-.4,1.3-.8,1.8-1.5,2.1-1.8,4.6-2.5,6.9-.6,2-1.2,4.1-1.8,6.1-.3.9-.5,1.7-.7,2.6-.4,1.8-.8,3.6-1.2,5.5-.3,1.5-.6,3-.9,4.5-.1.7-.3,1.5-.4,2.2-.2,1.5.2,1.9,1.7,1.6.4,0,.8-.2,1.1-.4,1.9-1.2,4.1-1.6,6.3-1.7,1.2,0,2.5-.6,3.7-.6,1.4,0,2.8.1,4.2.2.8,0,1.7.1,2.5.1.2,0,.5-.2.5-.4.2-.9.4-1.9.4-2.8,0-.9-.4-1.8-.6-2.6-.1-.8-.7-1.3-1.5-1.4-.2,0-.4,0-.5,0-1.1,0-2.3.1-2.7-1.3,0-.2-.3-.4-.5-.5-1.2-.5-1-1.5-.8-2.5,0-.6.2-1.3,0-2-.2-.9-.3-1.6.5-2.2,1.1-.8,1.1-2.1,1.5-3.2.4-1.1.8-2.1,1.7-2.9,1.2-1.1,2.2-2.4,3.5-3.4,1.4-1.1,3-1.9,4.8-2.4.4-.1,1-.4,1.1-.7.7-1.8,2.4-2.2,3.9-2.9,2.7-1.1,5.5-2.2,8.2-3.3,1.2-.5,2.3-1.1,3.6-1.4.9-.2,1.8-.1,2.7.5,1.5,1.1,3.1,1.2,5,1.3,2.2.1,4.7.2,6.2,2.3.2.2.1.6.1.9,0,0-.3.7-.5,0-.1-.3-.5-.7-.8-.7-.4,0-.9.1-1.3.2.2.3.4.8.7,1,1.4.9,2.7,1.9,4.4,2,.9,0,1.8,0,2.5.5,1,.8,1.8,1.8,2.1,2.9.2,1,.7,1.9,1,2.8.2.6,1,1.3.1,2,1.1.9.5,2.2.8,3.3.4,1.3.8,2.6.9,3.9.2,2-.5,3.8-1,5.9M542.1,107.7c-.2.3-.6.5-.7.8-.9,3.1,1.5,6.9,4.7,7.3,2.1.3,4.4.4,6.5,0,4.7-1,8.9-2.9,12.3-6.6,1.3-1.4,1.7-2.7,1.1-4.5-.8-2.2-1.5-4.6-3.2-6.2-2.4-2.3-5.3-4-8.8-4-.3,0-.7-.1-1-.2-.8,0-1.5-.3-2.3-.2-1.7.3-3.3.7-5,1-.9.2-1.4.7-1.4,1.6,0,1,0,2.1,0,3.1.2,2.8-.7,5.2-2.2,7.8M540.7,88.5c-.5.2-1.1.3-1.6.6-.6.3-1.2.6-1.8,1-.1,0-.1.2-.2.4.2,0,.4,0,.5,0,1.7-.7,3.4-1.4,5.1-2.1,1-.4,2-.8,3.1-.8.7,0,1.5-.2,2.2-.4.2,0,.4-.4.6-.6-.2-.2-.5-.5-.7-.5-.6,0-1.3,0-1.9.3-1.7.6-3.4,1.3-5.3,2.1M524.6,108.6c0-.2.2-.4.1-.6,0-.2-.3-.3-.5-.5,0,.2-.2.4-.2.6,0,.1.1.3.5.4Z"/>
    <path d="M248.5,65.4c-1.6.7-3.1,1.4-4.5,2-1.1.5-2.3.9-3.5,1.3-3,1-6,1.7-9.1,1.5-.9,0-1.7-.4-2.6-.3-1.9.1-3.7,0-5.4-1.1-.5-.3-1.2-.3-1.8-.4-.9-.2-1.8-.2-2-1.5,0-.6-.8-1.2-1.4-1.6-3-1.8-4.5-4.6-6.2-7.5-1-1.7-1.2-3.6-1.7-5.4-.8-2.7-1.1-5.4-.4-8.2.2-.7,0-1.4-.1-2.1,0-.1-.2-.3-.4-.4,0,.1-.2.3-.2.4-.2.8-.5,1.6-.7,2.4-.8,2.9-2.8,4.9-5.2,6.5-2.7,1.7-5.4,3.2-8.2,4.6-2,1-4.2,1.6-6.3,2.4-1.2.4-2.3.7-3.5,1.1-.9.3-1.8.6-2.8.7-1.3.2-2.6.2-3.8.4-1.2.2-2.4.4-3.5.6-.2,0-.5,0-.7.1-2,.1-4,.2-6,.4-.5,0-1,.1-1.5.4-2.4,1.2-4.6-.7-5.2-2.8-.2-.8-.3-1.7-.8-2.4-.7-1.2-.2-2,.5-2.8.5-.6.7-1.2,1-1.9.9-2.5,3.3-5.4,6.8-5.3.8,0,1.6,0,2.4,0,3.1,0,6.1-.5,9-1.4,1.2-.4,2.6-.5,3.9-.7,1.4-.3,2.9-.4,4.2-.8,2.4-.7,4.9-1.3,7.1-2.4.6-.3.9-.5,1-1.2,0-.7-.3-1-.8-1.3-.5-.3-1.1-.7-1.5-1.2-.7-.9-1.6-1.5-2.6-1.9-1.5-.6-3-1.3-4.3-2.2-2-1.4-4-2.7-6-4-.2-.1-.3-.5-.5-.5-2.4-.2-2.9-2.5-4.2-4-.5-.5-.7-1.3-1.1-1.9-1-1.5-1.5-3.3-1.8-5,0-.1,0-.3,0-.4-1.2-1.4-.4-2.7.4-4,.4-.7.8-1.5.8-2.4,0-1.2,1-2.1,1.9-2.6,1.6-.7,2.6-2.1,3.8-3.1.7-.7,1.4-1.2,2.5-1.5,1.6-.3,3-1.2,4.5-1.8,1-.4,1.9-.9,3-1.1,2.3-.6,4.6-1,6.7.3,1.1.6,2.1,1.4,1.9,2.9,0,.4.1.9.4,1.3,1.1,1.7.8,3.4.3,5.2-.3.9-2.2,2.2-3.3,2.2-3.1,0-5.8,1.3-8.5,2.6-1.3.6-1.4,1.9,0,2.7,2,1.2,3.7,3,6.2,3.4,2.7,2,6.1,2.8,8.6,5.2.7.7,1.9,1.1,2.9,1.3.7.1,1.1.5,1.4.9.8,1.4,1.6,2.7,2,4.2.7,2.2.9,4.6.3,6.9,0,.3-.1.6,0,.8,0,.2.3.4.5.5,0,0,.3-.2.4-.3.9-1.6,1.8-3.1,2.5-4.7,1-2.2,2.7-3.8,4.4-5.4.9-.9,1.9-1.7,3-2.3,1.1-.6,1.8-1.5,2.6-2.3.3-.3.7-.6,1.1-.8.1,0,.3,0,.5,0,0,.1-.1.3-.2.4-.2.1-.5.1-.6.3-.2.2-.4.6-.5.9.3,0,.6.2.8.2,1.1-.2,1.9.5,2.6,1.1.7.5,1.4.7,2.3.7,1.7,0,3.4,0,5.1,0,.8,0,1.2-.2,1.2-1.1,0-1.9.2-3.8,0-5.6-.3-2.6-.8-5.2-.7-7.8,0-1.1.4-2.2.7-3.3.2-.8.3-1.7.4-2.5.1-1.5,1.1-2.6,1.7-3.8.5-1.2,1.5-1.8,2.6-2.3,1-.4,1.9-1,2.7-1.7,1-.9,2.2-.8,3.3-.7.4,0,1,.4,1.1.8.5,1.8,1.4,3.6.8,5.4-.4,1.2-.2,2.3-.3,3.5,0,.7.3,1.3.3,2,0,2.3,0,4.7-.4,6.9-.4,1.6-.5,3.2-.9,4.8-.3,1.1-.1,2.3-.3,3.5-.4,2.1-1.4,3.9-2.9,5.3-.9.9-1.1,2.1-1.9,3.1,0,.1,0,.4,0,.5,0,.5,0,1.1.7.5.8-.5,1.6-.6,2.5-.5,1.5,0,3,.1,4.5,0,2.6-.2,4.9.7,7.2,1.8.8.4,1.9.6,2.6,1.2.7.6.8,1.8,1.5,2.4,1.9,1.7,1.8,4.1,2.2,6.3,0,.3-.2.6-.4.9-.9,1.8-1.7,3.6-2.5,5.5-.3.8-.4,1.6-.6,2.4-.2.6-.5,1.3-.8,1.8-.2.3-.5.7-.8.7-1.7,0-2.3,1.5-3.4,2.3-1.9,1.3-3.3,3.3-5.6,4.2M239.4,49.2c-1.2,1.1-2.7.9-4,.6-1.3-.3-2.3-.3-3.5.3-.6.3-1.3.6-1.9.5-.9-.2-1.9-.5-2.6-1.1-1.2-1.2-2.6-.9-3.9-1-.8,0-.9.8-.8,1,.4.9.2,1.9,1.1,2.6.9.8,1.6,1.8,2.6,2.5,1.8,1.2,3.7,2.3,6.1,2.3,1.6,0,3.2-1,4.8,0,.1,0,.4-.2.6-.2.5-.2,1.1-.3,1.6-.5,1.7-.6,3.4-1.1,5-1.8,1.5-.7,2.8-1.7,4.1-2.7.4-.3.8-.9.7-1.3,0-.4-.6-.8-1.1-.9-1-.3-2-.4-3-.5-1.2-.1-2.3.2-3.5-.3-.6-.2-1.6-.3-2.3.7M246.2,11.2c-.3-.2-.6-.5-1-.7-.2,0-.6,0-.6.1,0,.3,0,.7,0,.8.5.3,1,.5,1.6.8,0-.3,0-.6,0-1M243.9,7.8c.1.3-.3.9.4.9.2,0,.4,0,.6-.1-.2-.3-.3-.6-.5-.9,0,0-.2,0-.5.2M179.3,9.4c-.2-.1-.5-.7-.5,0,0,.2.2.4.3.6.1-.2.3-.4.2-.7M236.6,14s0,0-.1-.1c0,0-.1,0-.1,0,0,.3,0,.6-.1.8,0,0,.2,0,.2.1,0-.2,0-.3.1-.8Z"/>
    <path d="M119.3,214c-.8-.7-1.4-.4-2.2-.2-1.3.4-2.7.7-4,.8-1,0-2,0-2.9-.4-.5-.2-1.2-.4-1.4-1.3-.4-1.7-1.2-3.4-1.7-5.1-.3-1-.3-2.1-.4-3.1,0-.9.2-1.6,1.2-2.1.7-.3,1.2-.9,1.8-1.4,1-1,2.4-.6,3.6-1,1.8-.7,3.8-1,5.7-1.6.7-.2,1.4-.5,2.1-.6,1.1-.3,1.6-.7,1.6-1.8,0-2.7.9-5.3,1.5-7.9.3-1.4.7-2.9,1-4.3.1-.6.2-1.1.4-1.7.6-2,0-3.1-2.1-3.2-2-.1-4-.2-5.9.5-1,.3-2.1.3-3.2.6-2.2.5-4.5,0-6.6,1-.3.1-.7,0-1.1,0-2.8,0-5.6-.2-8.4.7-.9.3-1.9,0-2.9,0-1,0-2.1-.3-3.1.3-.2.1-.5.1-.7,0-1.3-.7-2.7-.3-4-.3-2.2,0-4.3-.5-6.2-1.5-1.2-.6-2.4-1.5-3-2.7-.7-1.3-1.1-2.9-.7-4.5.4-1.7.9-3.4,1.3-5.1.4-1.4,1.5-2.2,2.5-3.1,1-.9,2.3-.7,3.6-.3,2.1.7,4.3,1.4,6.6,1.2,1.3-.1,2.7.3,4,.3,3.2,0,6.5-.2,9.7-.4,2-.2,4.1,0,6-.3,3.4-.7,6.8-.8,10.2-.6,2.9.1,5.7.3,8.6.6,2.1.2,4.2.7,6.2,1.2.8.2,1.5.4,2.2.8.5.3.9.7.9,1.4,0,1.1.2,2.2.6,3.4.4,1.6,0,3.4,0,5.2,0,.1-.3.3-.2.4.4,2.5-1.5,4-2.5,5.9-1.2,2.5-2.7,4.9-3,7.8-.2,1.5-.2,1.6,1.2,1.5,2.8-.1,5.6.2,8.4-.2,1.8-.2,3.7.1,5.4.7,1,.4,1.4,0,1.9-.5.3-.3.6-.7.8-1.1.1-.2,0-.6,0-.8-.3,0-.6.1-.9.2-.7.3-1.3.6-2,.9-1.4.5-2.6,0-3.8-.6-.9-.5-1.1-1.6-.9-2.6.2-1,.4-2,1.2-2.7.7-.7,1.5-1.3.6-2.4,0,0,0-.3,0-.3.9-1,.8-2.7,2.1-3.4,1.4-.8,2.9-1.3,4.1-2.2,1.9-1.4,4.2-1.7,6.2-2.5.3-.1.6,0,.9,0,1.7,0,3.2-.2,4.9-.9,2.1-.8,4.3-1.7,6.7-1.3.8.1,1.8.3,2.6-.3,1.8.5,3.9-.1,5.3,1.8.5.6,1,1.4,2.1,1.2,0,0,.2.3.3.5,1.6,2.8,2.9,5.6,4,8.7.7,1.9,1.5,3.8,2.1,5.8.4,1.1.5,2.3.8,3.4.6,2.4.6,4.8,0,7.1-.5,1.8-1.4,3.5-2.2,5.2-.5,1.2-1.1,2.3-1.7,3.5-1.1,2.1-2.3,4.3-4.1,5.9-2.4,2.1-4.6,4.5-7.5,5.8-2.1.9-4.1,1.9-6.4,2.1-.9,0-1.7.8-2.6,1.2-.5.2-1,1-1.5-.2-.2-.4-.9-.5-1.4-.7-1-.3-2-.4-3-.7-3.6-1.1-6.1-3.6-8.2-6.5-1.1-1.6-1.8-3.4-2.4-5.2-.1-.4-.1-.8-.2-1.2,0-2.1-1.3-3.4-3.3-3.5-1.3,0-2.7-.2-4,0-.9.1-1.8.7-2.5,1.3-1.1.8-2.4,1.2-3.7,1.6-1.1.3-2.3.7-3.3,1.1-.3,0-.4.5-.5.8-1.1,2.9-1.6,6-2.2,9-.3,1.4-.7,2.7-1.1,4.1-.2.6-.3,1.3-.7,1.7-.5.6-1.3,1.1-2,1.2-1,.1-1.8.6-2.7,1-1.4.6-2.3.5-3-.4-.2-.3-.3-.6-.3-.9,0-.9,0-1.7-.6-2.5-.1-.1,0-.4,0-.6,0-.2.3-.4.2-.6-.4-2.9,1.3-5.3,1.6-8,0-.6.4-1.2.5-1.8M177.6,195.3c-.6-1.4-1.2-2.9-1.8-4.3-.4-1-1.4-1.4-2.2-.7-.6.5-1.2.6-1.8.5-1.2-.2-2.4-.5-3.6-.9-2-.6-3.8,0-5.2,1.3-1.7,1.4-2.7,3.6-4.3,5.1-.7.6-1.2,1.8-1.2,2.7,0,1.6-.2,3.3.2,4.9,1.3,5.2,6.1,7.6,10.9,5.2,3.7-1.8,6.6-4.6,8.6-8.1.9-1.5,1.9-3.5.4-5.7M143.8,204.5c.2,0,.3-.2.5-.2-.9-.5-1.8-.7-2.8-.3-.2,0-.3.2-.4.4.2,0,.4.2.5.2.6,0,1.2,0,2.1,0M148.3,184.1l.7-.7c-.3,0-.7-.1-1,0-.1,0-.3.2-.4.4-.1.2-.2.4-.3.6.2,0,.5,0,.9-.2M136.9,202.7c0,.2-.2.3-.2.5,0,.2.2.4.3.6.1-.2.3-.4.3-.6,0-.1-.1-.3-.5-.5M140.4,201.5c-.4-.1-.7-.2-1.1-.3,0,.3.1.6.2.8.2-.1.5-.2.9-.5M130.6,209.4c0-.8-.5-.5-.9-.5.1.2.2.5.3.6.2.1.4.2.6,0M147.2,204c-.2.1-.5.2-.7.4.2,0,.5,0,.7-.4Z"/>
    <path d="M551.1,222c-2.4-.7-4.5-1.7-5.7-3.9-.1-.2-.2-.6-.4-.7-2.1-1.7-2.8-4.1-3.6-6.5-.3-1-1-2-.7-3.1.3-1.5.5-3.1,1.1-4.4,1.3-2.8,2.8-5.5,4.3-8.2.7-1.2,1.6-2.2,2.4-3.4.8-1.1,1.6-2.2,2.2-3.4.2-.4,0-1.3-.3-1.8-1-1.8-2.2-3.4-3.2-5.2-.8-1.4-1.4-2.9-2.2-4.3-.7-1.1-1.5-2.2-2.2-3.2-1.1-1.5-1.5-3.1-.7-5,.3-.7.3-1.6.4-2.4,0-.3.2-.6.4-.9.9-2.1,2.4-3.8,3.8-5.7.7-.9,1.3-2,2-3,.4-.6.8-1.3,1.7-1.4.3,0,.6-.5.8-.8.6-1.1,1.1-2.2,2.3-2.8,1.1-.6,1.9-1.7,2.9-2.5,2.5-1.8,5.3-2.4,8.3-1.5,1,.3,2.1,0,3.1.3,1.3.3,2.3.8,3.4,1.5.4.3.8.8,1.1.7,2.1-.4,2.7,1.6,4.1,2.4,1.3.8,2.1,2.2,2.7,3.7.5,1.4,1.2,2.8,2.4,3.9,1.6,1.3,2.1,3.1,2.6,5.1.6,2.1-.3,3.5-1.2,5.1-.7,1.1-1.3,2.2-1.9,3.4-.3.6-.3,1.3-.5,1.9-.6,1.7-2,2.8-3.4,3.9-.9.7-1.8,1.7-3.1,1.8-.7,0-1.2.2-1.8.6-.9.5-1.8.9-2.1,2,0,.1-.3.2-.5.3-2,.3-2.5,1.9-1.6,3.5.4.7.8,1.4,1.3,2,1.8,1.8,2.9,4.1,4.1,6.3.2.3.3.6.4.9.3,2.6.5,5.2,1.4,7.7,0,.2.1.4,0,.5-.8,2.1-1.1,4.4-2.9,6-1.2,1.1-2.2,2.4-3.5,3.4-1,.9-2.3,1.5-3.4,2.2-2.1,1.2-4.4,2.3-6.4,3.7-2.5,1.7-5.2,1.6-8.1,1.1M557.9,173.4c.4,0,.8,0,1.2.1,1.1.2,2.1.7,3.2.2.4-.2.7-.5,1.2-.7,2.4-.9,4.6-2,6.7-3.5,1.3-1,1.6-1.8,1.2-3.3-.5-1.7-1.5-3-2.7-4.1-.9-.9-1.9-1.2-3.1-1.3-2.5-.3-4.6.9-6.8,1.9-.5.2-1.2.8-1.3,1.4-.3,1.4-1.3,2.4-1.9,3.6-.5.8-.8,1.6-.4,2.7.6,1.4,1.4,2.3,2.8,3.2M555.9,208.7c.9-.9,1.6-1.9,2.6-2.5,1.5-.9,2-2.4,2.8-3.7.4-.7.4-1.4-.2-1.9-1.1-1.1-2.3-2.1-3.4-3-.1-.1-.8,0-.8.1-.6,1.6-2,2.7-2.5,4.4-.6,2.5-.9,5-1.4,7.5-.1.7,0,1.1.8.5.6-.5,1.2-.8,2-1.3Z"/>
    <path d="M466.1,185.7c-.8,1.8-1.6,3.5-1.9,5.4-.1.6,0,1.3,0,1.9,0,1-.2,1.8-.9,2.5-.6.6-.7,1.2-.6,2.2.2,3.3,1.4,6.3,2.1,9.5.1.6.2,1.3.1,1.9-.3,3-1.1,5.7-3.3,7.8-1,1-2,2.2-3.6,2.6-.7.2-1.3.7-1.9,1.1-.7.5-1.4,1-2.1,1.4-2.1,1.1-2.1,1-4.2.2-.7-.3-1.6-.4-2.4-.3-1.2,0-2.3-.2-3.3-.8-.9-.5-1.9-.9-2.8-1.5-.7-.4-1.5-.7-1.8-1.7-.1-.4-.7-.5-1.1-.9-2-1.9-4.1-3.6-5.4-6.2-.7-1.4-1.8-2.5-2.8-3.7-1.6-1.9-2.4-4.1-2.1-6.5.2-1.4.9-2.7,2.1-3.6,1.1-.9,2.4-1.5,3.5-2.5,1.2-1.1,2.7-1.5,4-2.1,0,0,.3,0,.3,0,.3-.3.6-.6.8-.9,0,0-.3-.5-.5-.5-.4,0-.8.2-1.1.4-.2.1-.3.4-.4.6,0-.2,0-.4-.1-.7,0-.6-.6-.9-1.2-.7,0,0,0,.4,0,.6,0,.3,0,.7-.2.8-.2.1-.6,0-.8,0-.5-.4-.9-1-1.7-.3,0,0-.5,0-.6,0-.4-.3-.7-.9-1.3-.2,0,0-.5-.2-.7-.4,0,0,.1-.5.3-.6,1.1-.7,2.3-1.2,3.7-.5.7.4,1.7-.4,2.6,0,.3.1.7-.9.4-1.3-2.7-2.7-3.2-6.4-4.5-9.7-.7-1.8-1.2-3.6-1.9-5.4-.2-.5-.6-1-1-1.4-1.6-1.2-1.9-2.8-1.9-4.7,0-1.9.3-3.8.8-5.7.4-1.6,1.4-2.2,3-2.2,2.2,0,4.4,0,6.5-.4,2.4-.4,4.7-1.1,7.1-1.6.2,0,.3-.1.5-.1,3.3-.1,6.5-.5,9.8-.3,1.8.1,3.7.4,5.5,1,2.4.7,3.5,2.6,5.1,4.2.1.1.1.5.3.5,2.7,1,3.3,3.5,4.3,5.8.2.4.1,1,0,1.5-.8,2.3-1.3,4.6-1.3,7.1,0,1.8-.5,3.6-1.7,5.1-.8.9-1.2,2.1-1.8,3.4M447.1,168.7c-1.8.4-3.6.7-5.3,1.1-.6.1-.9,1-.6,1.6.5,1.3,1.1,2.6,1.7,3.8,1.5,3.3,4,5.9,6.5,8.3.5.5,1.3,1,1.9,1,1.7-.2,3.3-.5,4-2.5.5-1.4,1.2-2.7,2.4-3.7.3-.3.7-.7.7-1.1.2-1.6,1.2-2.7,2.3-3.8.3-.3.5-.6.6-1,.2-1.1-1.2-3.2-2.3-3.4-1.8-.3-3.6-.6-5.5-.7-2.1-.1-4.1-.2-6.5.3M439.5,204.9c-.7,1-.7,1.4,0,2.2.8.9,1.6,1.6,2.4,2.4,2.1,2.3,4.8,2.4,7.6,2.2.4,0,.8-.4,1.2-.7,1.3-1,2.1-2.3,2.6-3.8.4-1.1.9-2.3.1-3.4-.7-1.1-1-2.3-2.1-3.1-1.3-1-1.7-1.3-3.2-.5-2.8,1.5-5.6,3-8.6,4.6M462.7,173.8c.4.1,1.3-.3,1.2-.5,0,0-.3-.2-.4-.2-.4.1-.7.3-.8.7M432.5,190.6c-.1.7.4.6.8.5.1,0,.2-.3.3-.5-.3,0-.6-.2-1.1,0M462.9,160.2c-.2-.3-.4-.6-.6-.9,0,0-.1.2-.1.3,0,.4-.1.9.7.6Z"/>
    <path d="M23.2,18.6c1.4-1.4,3.1-2.1,4.8-2.6.3,0,.8-.1,1.1,0,1.3.6,2.4.4,3.6-.3,1.2-.7,2.7-1.1,3.9-1.9,1-.7,1.9-1.6,2.8-2.5.5-.5.8-1.2,1.7-1,.7.2,1.1-.4,1.5-.8.5-.5.8-.6,1.3.2.5,1,1.4,1.7,2.1,2.6.1.1.2.3.3.4-.2,0-.3.1-.5.1-.5,0-1.1,0-1.6,0-.1,0-.3.2-.3.3,0,.1,0,.4.2.4,1.2.2,1.4,2,2.9,1.9,0,0,.2.5.2.8,0,.9,0,1.7.8,2.4.5.4.7,1.1.6,1.9,0,1.4-.2,2.8.6,4.1.2.3,0,.8,0,1.2,0,1.2,0,2.3.6,3.4,0,.1.2.3.1.5-.3,1.8.4,3.5.8,5.1.4,1.5.6,3.1,2,4.2.2.2.4.6.4.9,0,1.9,0,3.7-1.3,5.2-.9,1-.7,2.5-1.2,3.7-1.5,3.8-2.8,7.7-5.1,11.1-1.2,1.9-2.5,3.7-3.9,5.5-.3.4-.9.9-1.4,1-1.2.2-2,1.1-2.8,1.8-1.7,1.5-3.4,3-5,4.6-1.2,1.2-2.6,2.1-4.3,2.3-.4,0-.8.2-1.1.5-1.9,1.5-4.2,2-6.6,2-2.1,0-3.8-.8-5.6-1.8-3.1-1.8-4.3-4.7-5.2-7.9-.4-1.3-.8-2.5-1.6-3.7-.3-.5-.3-1.5,0-2.1.5-1.6.5-3,.3-4.7-.3-2.6-.5-5.3.7-7.8.6-1.3.5-2.6-.2-3.8-.5-.8-.6-1.6,0-2.5.5-.7.4-.8.3-1.9,0-.6,0-1.1.4-1.7.8-1.3,1.8-2.6,1.8-4.3,0-.5.5-1.1.9-1.6.7-.7.9-1.6.8-2.6,0-1,0-2.1,0-3.1,0-.9.3-1.6.9-2.3,1.1-1.2,2.3-2.4,3.8-3,2.2-.9,3.9-2.2,5.5-4.1M37,51.8c1.3-2.3,3.2-4.3,3.6-7.2.3-2.1,0-4.2-.4-6.2-.2-.9-.5-1.7-.5-2.7,0-.8.2-1.6,0-2.3-.7-1.9-.7-3.9-.7-5.9,0-.5,0-1.1-.5-1.4-.7-.3-1.1.3-1.5.7-.8.7-1.7,1.5-2.5,2.2-.6.5-1.4.8-2,1.3-1.1.9-2.1,2.1-3.3,2.9-1.2.7-1.5,1.7-1.7,2.9-.1.6-.5,1.2-.8,1.8-.2.3-.6.5-.6.8-.3,1.8-1.5,3.4-.8,5.4.2.6-.4,1.5-.8,2.2-.9,1.3-1.9,2.6-2.8,3.9-.3.4-.5.9-.7,1.3-.6,1.3-.1,2.7-.4,4-.3,1.4,0,2.7,0,4,.1,2,1.7,3.1,3.3,2.4.4-.2.6-.6.9-.8.6-.4,1.1-.7,1.7-1,1.9-.9,4-1.5,5.3-3.4.6-.9,1.3-1.6,2.1-2.4.9-.9,2-1.6,3.2-2.6M27.4,27.7c-.1-.3-.3-.6-.4-.9-.2-.6-.7-.9-1.2-.7-.5.2-.9.8-.5,1.3.4.6-.2.8-.2,1.1,0,.3-.3.5-.5.8.3-.1.6-.2.9-.3.6-.3,1.1-.7,1.9-1.3M12.6,62.1c-.3-.2-.7-.3-1-.5,0,.3,0,.6,0,.8.3,0,.6-.1,1.1-.4M18.4,46.2c.2,0,.4.2.6.1.2,0,.3-.3.5-.5-.2,0-.4-.2-.6-.2-.1,0-.3.1-.4.5M23.8,28.4c0,0,.1,0,.2.1,0-.1,0-.2-.2-.1Z"/>
    <path d="M396.5,219.6c-3.8.2-7.6.3-11.3.5-1.5,0-2.8-.3-4.2-.7-.6-.2-1.2-.7-1.8.2-.4.6-.9-.1-1-.5,0-1.2-.6-2.1-1.3-2.9,0,0-.2-.2-.2-.3.1-1.5-.4-3,.2-4.5.5-1.5,1.6-2.3,2.7-3.2,1-.8,2.2-1.1,3.5-1.1.1,0,.2,0,.4,0,1.2,0,2.8.4,3.7-.2,1.5-1,2.6-2.6,3.7-4,1-1.4,2-2.9,2.7-4.5,1.4-2.8,3.4-5.5,3.5-8.9,0-1,.2-1.9.3-2.9,0-.8-.3-1.1-1.1-1.2-2.8-.5-5.7-.7-8.6-.7-.9,0-1.9,0-2.7-.4-1.1-.4-2.1-.3-3.2-.1-.5.1-1.1-.2-1.6-.2-.7,0-1.5.2-2.1,0-.7-.3-1.2.2-1.9.1-2.5-.2-5.1-.2-7.6-.4-3-.3-6-.6-8.8-1.8-1.5-.7-3.3-1-4-2.8,0-.2-.1-.4-.2-.6.2,0,.5-.2.6-.1.7.5,1.8,0,2.3,1.2.2.4,1.4.3,1.8.6,1,.8,2.2.5,3.2.6,1,.2,2.1,0,2.9,1,0,.1.4.2.5.2.9-.6,1.9,0,2.8,0,1.1,0,2.1.3,3.2.5.7,0,1.4.3,2.1.2,2-.5,4-.5,6,0,.1,0,.2,0,.4,0,3.7.1,7.5.3,11.2.3,2,0,3.6-1.2,5.3-2,.2,0,.3-.5.3-.7-.2-1.5.2-2.9-.3-4.4-.4-1.2-.3-2.5-.4-3.8,0-.2,0-.5,0-.7-.2-1.7-1.4-2.4-2.8-1.5-.9.5-1.7,1.3-2.4,2-2.5,2.4-4.8,5.1-7.5,7.3-1.5,1.3-3.6,2.2-5.8,1.7-1-.2-2-.8-2.5-1.8-.3-.7-.6-1.5-1.1-2.1-.4-.6,0-1,0-1.5,0-1.3,0-2.7.3-4,.4-1.5.6-2.8,2-3.9,2.2-1.9,4-4.1,5.9-6.2,1.5-1.6,3.2-3,5.2-4,1.7-.8,3.2-2.1,4.8-3.2,1.5-1,3-1.7,4.8-1.5,1.7.1,3.9,1.7,4.5,3.3.4.9.9,1.8,1.4,2.7.4.7.8,1.4,1,2.1.7,2.4,1.9,4.7,2,7.3,0,.6.4,1.1.6,1.7.6,2,1.2,4,.5,6.2-.4,1.1-.3,2.4-.4,3.6-.1,1,.3,1.6,1.3,2,1.8.8,3.4,1.9,5.2,2.9.2.1.6.2.7.4,1.6,2.2,3.8,1.3,5.9,1.2.9,0,1.7-.3,1.9-1.5,0-.3,1.7-.2,2.3.2,1.3,1,2.7.9,4.2.9.1,0,.2,0,.4,0,0,.2,0,.4-.2.5-.9.2-1.5,1.3-2.6,1.1-.1,0-.3,0-.3,0-1.6,1.8-3.8.8-5.7,1-.2,0-.4-.1-.6-.2-.5-.2-.8-.5-1.3.2-.7.8-1.7.5-2.5-.4-.4-.5-.8-.8-1.6-.5-.8.3-1.9,0-2.9,0-.6,0-1.8-.9-1.7.8,0,.1-.2.3-.4.4-1.9.4-2.1,2.4-3.4,3.5-.4.4-.8,1.5-.5,1.9.8,1.4-.3,2.6-.2,3.9,0,.3-.2.7-.2,1,.1,1.4-.9,2.1-1.8,2.9-.6.5-1.1,1.1-1.6,1.6-.5.5-1,1-1.5,1.5-.7.6-.7,1.3.3,1.6.6.2,1.3.4,2,.5,3.2.3,6.4.5,9.6.8,1.9.2,3.8.5,5.7.7.8,0,1.6.3,2.4-.3.7-.4,3.6.5,4.4.7,1.6.4,2.6,1.6,3.6,2.6,1.2,1.1,1.6,2.6,1.9,4.1,0,.3,0,.8.3,1,1.2.9.8,2.4,1,3.5.2.8-.6,2-1.5,2.5-1.4.8-2.9,1-4.5.6-2.6-.8-5.2-1.6-7.9-2.4-.9-.3-1.9-.5-2.8-.6-1.9-.2-3.8,0-5.6-.4-2.1-.4-4.3-.3-6.4-.3-2.1,0-4.2.3-6.4.6M422.9,187.2c.4.2.9.3,1.2.5.6.5.9,0,1.1-.4.2-.5-.3-1.3-.4-1.2-.7.4-1.4-.4-2,0-.3.2-.5.5.1.9M389.4,206.9l.2-.9c-.3.1-.7.2-.8.5-.3.4,0,.6.6.4Z"/>
    <path d="M343.9,175.3c-1.5.6-3,.7-4.6.6-.2,0-.3,0-.5,0,0,.1.1.3.2.4,2,1.6,4.9,1.9,6.7.6.2-.1.5-.2.5-.3.4-1.4,1.6-1.3,2.6-1.1,1.4.2,2.9.3,4.2.8.8.3,1.8,1.3,1.8,1.9,0,1.3.6,2.3.9,3.5.5,2,.2,4,.2,6,0,.7-.7,1.5-1.2,2.2-.9,1.3-1.4,2.7-1.7,4.2,0,.5-.4.9-.6,1.4-.6,1.1-.6,2.1-.1,3.3,1.4,3.5,2.5,7,2.7,10.9,0,2.8.1,5.6.2,8.4,0,1.5-.1,3-.7,4.4-.6,1.5-.5,3.2-1.1,4.8-.5,1.4-1.5,2.2-2.8,2.5-1.2.3-2.4.3-3.6.4-1.4,0-2.9.1-4.3,0-1.6-.2-3.1-.2-4.5-1.5-.9-.8-2.3-1.1-3.4-1.7-1.6-.9-3.2-2-4.8-2.9-1-.6-2-1.3-3-1.4-2-.1-3.2-1.2-3.9-2.7-.9-1.7-1.7-3.5-1.5-5.5,0-.7.1-1.4.4-2,.7-1.7,1.1-3.7,2.2-5,1.4-1.5,2.2-3.3,3.6-4.7,1.5-1.3,2.9-2.6,4.3-4,.2-.2.5-.4.6-.6.2-.3.6-.7.6-1,0-.2-.6-.4-.8-.6-.8-.8-1-1.9-1.2-2.9,0-.5,0-1.1,0-1.6,0-1.1-.3-2.1-1.2-2.9-1.4-1.4-2.8-2.8-4.5-3.9-.9-.6-1.8-1.4-1.5-2.8.2-1-.4-1.5-1.5-1.7-.4,0-.9-.1-1.3,0-2.2.6-4.5.2-6.7.4-.4,0-.9.2-1.2.5-.1.1,0,.6,0,.9-.5-.3-.6-.9-.5-1.4,0-.3,0-.6,0-.9,0-.9.3-1.4,1.2-1.3.6,0,1.1-.8,1.9,0,.6.5,1.7-.3,2.5.4,1.1-1.2,2.7-.3,3.9-1.1,1-.6,1.5-1.4,1.7-2.5.1-.7.2-1.4.4-2,.3-1.4.7-2.8,1.1-4.3.3-1.5,1.2-2.2,2.7-2.5,1.4-.3,2.8-.9,4.2-1.2,2.6-.5,5-1.9,7.7-2.1.3,0,.5-.2.8-.4,1.3-1,2.9-.7,4.3-1,.4,0,.8.3,1.3.3.4,0,1,.6,1.3-.3,0-.4.3-.3.6,0,.8.9,1.5,1.8,2.3,2.7.6.6,1.3,1,1.9,1.6.7.6.8,1.4,1,2.3.3,1.5-.4,2.8-.5,4.3,0,.5-.4.9-1.2,1.2-1.4.5-2.6.3-4,0-1.4-.4-2.9,0-4.2,1.1M344.5,209.1c-.7-1.3-1.4-2.5-2.6-3.4-.5-.3-.7-.5-1.2,0-1,1.1-2.1,2.1-3.2,3.2-.3.3-.6.5-.9.8-1.2,1.1-2.5,2.2-3.6,3.4-.7.8-.6,1.4.2,2.1.9.7,2,1.4,3.1,1.7,2.2.7,4.5,1.3,6.8,1.8,1.6.4,2.4,0,2.7-1.2.2-1,.2-2,0-3-.2-1.7-.2-3.6-1.4-5.4M342.9,180.6c-.4,0-1.3-.3-.7.7.3.5.7,1.1,1.1,1.5.3.3.9.4,1.3.3.3-.1.5-.7.6-1.1,0-.3,0-.6,0-.9.5-.9-.1-.9-.7-.9-.4,0-.9.2-1.6.3M315.2,179.4c.1.2.3.4.4.5.2-.2.4-.4.6-.6-.3,0-.5,0-1,0M316.6,179.4c.3,0,.5.1.8.2,0,0,.2,0,.3-.1-.1,0-.2-.2-.4-.2-.2,0-.3,0-.7.2M319.7,179.9c0,0,0-.1.1-.2-.1,0-.2,0-.1.2Z"/>
    <path d="M263.9,180.6c-.1-3.2.2-6.2,1.3-9.1.4-1.1,1.1-1.9,2.1-2.6,1.8-1.2,3.8-1.5,5.9-2,2.2-.5,4.3-1,6.5-1.4,1.1-.2,2.3-.3,3.5-.4,1.6-.1,3.3,0,4.9-.4,3-.6,5.9-.4,8.9-.3,2.8,0,5.5,1,7.5,3.2.2.2.5.4.6.7.4,1.4.5,2.9,1.2,4.2.7,1.5.7,2.9.7,4.4,0,1.8.2,3.5-.3,5.3-.3,1.2-1.3,2.2-1.2,3.5,0,.3,0,.7,0,.8.6.5,1.2,1,2,1.4,1.7.8,3.5,1.3,5,2.2,1.7,1,2.7,2.8,3.6,4.6.2.4.3,1,.5,1.4.1.4.4.9.2,1.1-.6,1.1-.2,2.2-.3,3.3,0,.7.3,1.4-.3,2,0,0,0,.4,0,.5.9,1.7-.2,2.8-1.1,4-1.1,1.4-2.1,3-3.6,4.1-.9.6-1.9,1-2.8,1.4-1.9.9-3.8,1.8-5.8,2.5-1.2.5-2.5.6-3.7,1-2.3.7-4.5,1.6-6.8,2.3-1.3.4-2.6.6-4,.9-.2,0-.5-.1-.8-.2-1.5-.8-3.1-1.5-4.8-1.9-2.5-.6-2.8-1.5-3-4.1-.1-1.4.3-3,0-4.3-.5-1.7.6-2.4,1.5-3.3.2-.2.5-.2.8-.3.3,0,.6,0,.8-.3,1.6-1.9,3.3-1.1,4.9-.3,1.3.7,2.6,1.2,4,.9,2.4-.5,4.8-1.2,7-2.4.2-.1.4-.4.7-.5.2-.1.5-.2.7-.3-.3-.3-.5-.7-.8-.8-1.7-.6-3.4-1.2-5-1.8-1.6-.7-2.8-1.8-4-3.1-.3-.4-.7-.9-.7-1.3,0-1.6-.4-3.2.2-4.8.2-.6,0-1.3,0-2,0-1.2.2-2.3.4-3.5,0-.4.4-.7.6-1,.6-1,1.2-1.9,1.8-2.9.3-.4.2-.7-.3-.7-2.7,0-5.4-.1-8,.7-1.1.4-2.3.6-3.5.7-2.7.3-5.3,1.3-7.9,1.9-1.5.4-3.1,1.1-4.7.3-.2-.1-.6-.2-.7-.4-1.1-1.1-2.1-2.2-3.2-3.3Z"/>
    <path d="M217.7,183.4c1.4-1.5,2.9-2.8,3.9-4.5.6-1.1,1.9-1.9,3.2-2.3.4-.1.9-.4,1.2-.7,2-2.1,4.7-3.4,6.9-5.1,1.1-.9,2.1-2,3.1-3,.5-.4,1.1-.7,1.6-1,1.4-1,2.2-.6,3.1.5.1.2.3.4.5.5,2.4.7,2.7,2.8,3.2,4.8.4,2.1.7,4.2,1.1,6.2.5,2.5,1.2,5,1.4,7.5.1,2.3.4,4.7-.3,7.1-.3,1-.2,2.1-.3,3.1-.6,3.9-2,7.6-3.8,11.1-.3.7-1,1.5-.5,2,.5.6,1.4,1,2.3.2.2-.1.6,0,.9,0,1.7.2,3.2,0,4.8-.7,1.6-.6,4.7.8,5.6,2.4.3.6.5,1.4.3,2-.5,1.8-.2,3.5-.3,5.3,0,.9-.2,1.8-.9,2.5-.7.8-1.6,1-2.6,1.1-.7,0-1.3.2-2,.3-.8.1-1.6.3-2.4.3-1.8,0-3.6,0-5.4,0-1,0-2.1-.9-3.1,0-3.1,0-6.2,0-9.1-1.1-1.7-.6-2.6-1.8-2.6-3.4,0-1.9,0-3.7,0-5.6,0-1.1.4-2,1.1-2.8,1-1.2,1.9-2.5,2.7-3.8.9-1.4,1.7-2.8,2.4-4.2.3-.6.4-1.3.6-1.9.4-1,.8-2.1,1.2-3.1.3-1,.6-2,.9-3.1,0-.3,0-.6,0-.9,0-2.1-.4-4.2-1.1-6.2-.1-.3-.7-.7-1-.7-.8,0-1.6.2-2.3.6-1.4.8-2.5,2-3.5,3.3-.9,1.3-2.1,2.5-3.4,3.4-1.2.9-2.1,1.9-2.9,3.1-1.2,1.8-2.7,3.3-5.2,2.9-1-.2-1.8-.6-2.3-1.5-2-3.3-2-6.6-.6-10.1.1-.4.3-.7.4-1.1.4-1.8,1.6-3,3.4-3.7M231.2,217c-.4-.2-.7-.5-1.1-.7,0,0-.2,0-.3,0,.1.4.2.8.4,1,0,0,.5-.1,1-.4Z"/>
    <path d="M101.3,62.6c-.1.6-.2,1-.4,1.5-.4,1.3-.7,2.6-1.1,3.9-.2.9-1.8,1.8-3.1,1.9-1.7,0-3.3,0-5-.7-1.9-.7-4.1-.9-6.1-1.6-2.1-.7-4.2-1.2-6.4-1.1-.5,0-1-.2-1.5-.3-2.1-.8-4.2-1.2-6.4-1.1-.8,0-1.5,0-2.1-.6-.4-.4-1.3-.5-1.9-.5-2.4,0-4.3-1.2-6.2-2.4-.4-.2-.6-.8-.7-1.3-.2-1.6-.3-3.2-.4-4.7-.1-2.2-.3-4.5-.3-6.7,0-.6.2-1.2.3-1.8.8-2.8,1.4-5.5,1.5-8.4,0-.5.3-1.1.5-1.6.2-.6.4-1.2.6-1.7.4-1.4.7-2.8,1.1-4.2.1-.5.5-1,.9-1.3,1.8-1.3,2.1-3.4,3.1-5.1.2-.4.4-.8.6-1.2,1.1-1.6,2.3-3.2,3.4-4.8.7-.9,1.2-1.9,2.3-2.5.5-.2.9-.8,1.3-1.3,1.3-1.7,3.1-2.2,5-2.7.3,0,.7-.2.9-.4.8-1,1.9-1.5,3.2-1.4.3,0,.7.2,1,.4-.3.2-.6.5-.9.7-.1,0-.4,0-.5,0-.8,0-1,.1-.4.9.4.5.5,1.1.8,1.7,0,.2,0,.4,0,.5,1.8,1.7,1.5,4.2,2.5,6.2.3.6,0,1.2-.7,1.5-.4.2-.8.6-1,1-.9,1.9-2.2,3.4-3.7,4.8-.8.7-1.5,1.5-2,2.6-.5,1.2-1.6,2.3-2.5,3.3-1.6,1.8-2.6,3.8-3.1,6.2-.2,1.2-.7,2.4-.9,3.6-.2.9-.2,1.9-.2,2.8,0,.3.4.8.7.9,1,.5,2,1.1,3.1,1.3,2.3.5,4.7.7,7,1.2,1.6.4,3.3.8,4.9,1.2,2.7.7,5.4,1.5,8,2.6.3.1.6,0,.9,0,1.4,0,2.5.5,3.3,1.6.7,1.1,1.6,2.2,1.8,3.4.2,1.2-.2,2.5-1,3.7Z"/>
    <path d="M510,199.6c-.8,1-1.5,1.9-2.3,2.8-1,1.3-1.9,2.6-3,3.8-.8,1-2,1-3.3.6-1.8-.6-3.2-1.8-4.2-3.2-.8-1.1-1-2.6-1.5-3.9-.7-2.1-.3-3.9.9-5.7,2.4-3.7,4.7-7.5,7.1-11.2.4-.7,1.1-1.2,1.4-2,.7-1.7,2.2-2.9,3.1-4.5.7-1.3,1.7-2.5,2.4-3.9.4-.9.5-2,.7-3,.1-.8.5-1.3,1.2-1.9,1.1-1,1.9-2.4,2.5-3.8.8-1.9,1.5-3.9,2.2-5.8.3-.8.8-1.6,1-2.5.3-.8.7-1.4,1.6-1.3,1.4,0,2.8.2,4.2.4.2,0,.4.2.6.4,1.1,1.2,2,2.4,2.1,4.2,0,1.5.1,3,.8,4.5.6,1.2.8,2.6.9,4,.1,2.5,0,4.9,0,7.4,0,.6-.3,1.2-.3,1.8-.1,1.4,0,2.9-.4,4.2-.8,2.2-.5,4.6-1,6.8-.2.9-.4,1.9-.8,2.8-.4.8-.3,1.6-.3,2.4,0,1.6,0,3.2-.3,4.8-.3,1.1.2,2.3.3,3.5,0,.7.3,1.3.3,2,.2,2.6.2,5.2.4,7.8,0,.5.4,1,.3,1.5-.3,1.7-3.3,3.1-5.1,3-3.6-.3-4.3-3.1-5.4-5.6-1-2.2-1-4.7-1.5-7-.4-1.8-.2-3.7-.3-5.5,0-1.5.3-3,.7-4.4.2-.8-.3-1.8.3-2.6,0,0-.3-.4-.5-.5-.1,0-.5.1-.5.2-.4,1.1-.8,2.2-1.1,3.3-.2.7-.4,1.4-.5,2.1-.3,1.6-1.5,2.6-2.7,3.7Z"/>
    <path d="M112.1,40.6c.7-1.7,1.1-3.4,1.4-5,.3-1.2.5-2.3.7-3.5.4-2,1-4.1,2.3-5.7,1.1-1.4,1.6-3,2.4-4.5.4-.8.9-1.5,1.5-2.1,1.7-1.8,3.3-3.7,5.1-5.5,1.5-1.4,3.1-2.8,5-3.6,1.5-.7,3.1-1.3,4.6-2,.4-.2.8-.5,1.1-.8,1.4-1.1,2.6-.8,3.3.6.3.5.5,1.1.9,1.6,1,1.4,1.1,3.1,2,4.6,0,.1,0,.4,0,.5-1.1,1.6-.6,3.7-1.8,5.2-.8,1-1.6,1.9-2.8,2.4-1.8.8-3.6,1.8-5.4,2.8-2.6,1.6-4.8,3.6-6,6.5,0,.2-.1.3-.3.4-1.1,1.1-1.9,2.4-2.2,4-.2,1.2-.4,2.5-.5,3.8,0,1,.9,1.9,1.9,1.9.9,0,1.8-.2,2.7-.3.9-.1,1.7-.2,2.6-.4,1.9-.4,3.9-.1,5.9-.7.2,0,.5,0,.7,0,2.1-.1,4.2,0,6.2-.4,2.8-.5,5.6-.1,8.4-.3.8,0,2.5,1.2,2.3,1.7-.2.9-.5,1.9-1,2.6-1.1,1.3-1.3,3.2-3,4-.2.1-.2.8-.2,1.1,0,1.2-.2,1.9-1.1,2.3-2.2.9-4.4,1.9-6.7,2.7-.8.3-1.8.3-2.7.4-2.3.1-4.5.9-6.8,1-2.2.1-4,1.1-6.1,1.6-1,.2-1.8.8-2.3,1.7-.3.6-1,1-1.5.8-1-.5-2-.5-2.9-1.2-1-.7-2.3-1.2-3.5-1.6-1.6-.6-2.4-2-3.6-3.1-.1-.1-.3-.4-.3-.6,0-1.5-.8-2.7-1-4.2-.3-2.4.2-4.7,0-7,0-.5.2-1.1.3-1.8Z"/>
    <path d="M41.2,96.7c.1-.7.3-1.3.3-1.8,0-1.4-.2-2.8.7-4.1.1-.2.1-.5,0-.7-.3-1.3.3-2.4,1.4-2.8,1-.4,2.2-.4,3.2-.2,1.2.2,2.6,1.7,3.2,2.7.6,1.1,1.1,2.3.9,3.6,0,.1,0,.3,0,.4,1,1.6,1.1,3.4,1.6,5.1.5,1.9.7,3.9-.6,5.7-.4.6-.7,1.3-.6,2.1,0,1.1,0,2.3,0,3.4,0,1.2-.3,2.3-.9,3.3-.2.3-.2.7-.2,1,0,1.1-.5,1.9-1,2.7-1,1.3-2,2.5-3.1,3.8-.9,1.1-1.5,2.5-2.1,3.8-1,2-2.1,3.9-3.2,5.9-.1.2-.3.4-.4.6-.8,2.2-2.4,3.7-4.2,5.1-.6.4-1.1,1-2.1.4-.6-.4-1.6-.1-2.5,0-1.8.2-2.9-.8-3.8-2.2-1.4-2.2-2.9-4.3-4-6.7-.4-.8-.6-1.8-.9-2.7-.9-2.3-1.8-4.7-2.7-7-.4-1.2-.7-2.4-1.1-3.5-.3-.8-.6-1.7-1-2.5-.7-1.5-1.5-2.8-1.2-4.6,0-.5,0-1.2-.4-1.6-1-2-1.1-4.2-2-6.2-.4-.8-.3-1.9.2-2.9.3-.7.4-1.6.4-2.3,0-1.2,2.5-3.6,3.6-3.6,2.7,0,4.9.6,6.3,3.1.9,1.6,2.2,3.1,3.1,4.7.5.8.7,1.9,0,2.7-.8,1-.2,2,.2,2.7.4.8.7,1.6,1,2.3.7,1.3.6,2.8,1.2,4,.1.3.1.6.2.8.2,1.1.9,1.9,1.8,2,.9,0,1.7-.4,2-1.1.8-1.8,2.2-3.2,2.8-5.2.3-1,1.4-1.8,2-2.8.4-.7.6-1.4.8-2.2.2-.6.1-1.5.5-2,.7-.9.6-1.9.6-3M39.9,106.4c0,.1.1.2.2.4,0-.1.1-.2-.2-.4Z"/>
    <path d="M190.2,222.2c.9-2.7,1-5.5,2.2-8.1.3-.6.7-1.5.1-2.4-.1-.2,0-.8.2-1,1.4-1,1.2-2.7,1.6-4.1.7-2.6,1.2-5.2,1.5-7.9.2-1.7,1.1-3.4,1.6-5.1.5-1.8,1-3.7,1.6-5.5.6-2.1,1.4-4.2,2-6.4.3-1.1.5-2.2.6-3.4,0-1.2.5-2.3,1.1-3.4.4-.7.6-1.6.7-2.4,0-1.2.2-2.3.7-3.5,1.1-2.5,2.3-5,3.9-7.3,1-1.4,2-2.9,3.1-4.3.5-.7,1.1-1.3,1.7-1.8.2-.2.6-.4.8-.3,1.1.5,2.1-.2,3.1,0,.2,0,.4.2.6.3-.1.2-.2.5-.3.6-.6.3-1.2.5-1.8.8-.1,0-.3.4-.2.5.1.2.4.4.5.4,1.1-.3,2.1-.7,3.1-1.2,0,0-.2-.5-.2-.8,0-.2-.1-.3-.2-.5.2,0,.4,0,.5.1.3.3.6.6.9.9,0,0,.1.3.1.4-.7.5-.3.8.2,1,.4.2.2.5,0,.6-.2.1-.4.2-.6.2-.8-.1-.5.2-.5.8,0,.8-.8,1.6-1,2.5-.3,1.4-.4,2.8-.4,4.2,0,1.1-.3,2-1,2.9-.7.9-1.3,2-1.5,3.1-.3,1.7-.8,3.3-1.4,4.9-.6,1.7-1.4,3.5-.6,5.5.2.5-.1,1.5-.5,1.9-2,1.8-2.7,4.3-3.4,6.8-.8,2.7-1.4,5.5-1.9,8.3-.4,2.2-1,4.3-1.7,6.4-1,3.1-1.4,6.3-2.3,9.4-.4,1.7-.8,3.4-1.5,5-.5,1.2-.8,2.5-1,3.7-.3,1.8-.5,3.5-.8,5.3-.1.7-.4,1.4-.7,2.1-.6,1.2-1.2,2.4-1.8,3.6-.6,1.1-1.1,2.1-2.5,2.6-1.3.4-2.4.9-3.6.2-.1,0-.4,0-.5,0-.7,0-1.7.2-1.9-.1-.3-.5-.2-1.4-.2-2.1,0-1,0-2-.6-3-.3-.6-.2-1.5,0-2.3.7-2.6,1.5-5.2,2.4-7.8Z"/>
    <path d="M588.8,34.8c1.4,1,2,2.4,2.6,4.1.9,2.5.6,4.6-.4,6.9-.4.9-.4,1.9-.4,2.9,0,1.6-.8,3.1-1.3,4.5-.6,1.6-1.2,3.1-1.3,4.9,0,1.1-.6,2.1-1,3.2-.8,2.2-1.6,4.4-2.5,6.5-.4.9-.9,1.9-1.5,2.6-.8,1-1.6,1.9-3.1,1.7-1.5-.3-3,.2-4.6-.3-.8-.3-1-.7-1-1.4,0-1.5-.1-3,.7-4.4.4-.6.6-3.7.5-4.4,0-.8-.3-.9-.8-.6-1,.6-1.9,1.1-2.9,1.7-.4.2-.7.4-1.4,0-1.2-.5-2.7-.6-4-.8-2.3-.4-3.5-1.8-4.1-4-.4-1.7-1.4-3.2-1.6-5-.1-1.1-.5-2.1-.6-3.2,0-2.7,0-5.4,0-8.1,0-.9.2-1.8.4-2.7.3-1.3.8-2.6,1-3.9.2-1.1.7-1.9,1.3-2.7.2-.3.4-.6.5-.9.7-1.7,2.1-3,3.5-4.1.6-.5,1.6-.7,2.3-.5.6.1,1.8-.3,1.9,1.1,1.9,1.4,1.5,3.5,1.7,5.4.2,2.4.3,4.8-.7,7.1,0,.2,0,.4,0,.5,0,3.1,0,6.1,0,9.2,0,1.5.6,2.2,2,2.5.8.2,1.6.4,2.2.8.6.5,1,0,1.1-.3.4-.9.6-1.8.8-2.7.5-1.9,1-3.7,1.4-5.6,0-.3,0-.7-.1-1-.4-1.2-.2-2.3.7-3.2.7-.7,1.2-1.6,1.9-2.3.5-.5,1.2-.9,1.7-1.4.9-1.1,2.6-1,3.5-2.3.1-.2.9,0,1.3,0-.3.2-.5.4-.6.5.2.2.3.4.5.6,0-.2.1-.5.2-.7,0-.1,0-.2,0-.3Z"/>
    <path d="M64.1,92.8c.3-.3.6-.6.9-.9.6-.6,1.4-1.1.5-2-.1-.1,0-.7.2-.8.2-.1.5,0,.8.1.1,0,.2.1.3.2,1.2,2.3,3.7,3.2,5.4,4.9,1.6,1.6,2.3,3.5,2.4,5.7,0,2.6-.3,5.1-.9,7.6-.3,1.1-.9,2.5-.2,3.9.4.8-.2,1.8-.6,2.6-.8,1.4-1.8,2.7-1.9,4.5,0,.8-.2,1.6-.3,2.5-.2,1-.2,2.1-.5,3-.9,2.7-1.3,5.3-.6,8.2.3,1.4,0,2.9-.5,4.3-.3.8,0,1.9-1,2.5-.3.2-.6.4-.9.4-1.6,0-3.2,0-4.7.3-1.4.3-1.8-.1-2.4-1.9-.4-1.3-.6-2.6-1.1-3.9-.3-.8-.2-1.8,0-2.7.4-1.6.2-3.1,0-4.8-.3-2.5-.2-5.1.7-7.6.1-.4.3-.8.3-1.1,0-.9.3-1.8.5-2.7.4-1.7,1.2-3.6.3-5.4-.6-1.2.2-2.3.5-3.5.4-1.8.9-3.7,1-5.6,0-1.8.3-3.7.8-5.5.1-.5.9-1.2,1.2-1.8,0-.1,0-.3.2-.6Z"/>
    <path d="M374.8,201c.6,1.3,1.1,2.4,1.5,3.7.5,1.8.9,3.6-.3,5.5-1,1.7-2.5,2.7-4.1,3.6-.7.4-1.8,0-2.7,0,0,0-.2-.2-.3-.2-.5,0-1.3,0-1.5-.2-.5-.8-.8-1.7-1.2-2.6-.7-1.6.1-3.6-1.1-5.1-.1-2.6,0-5.2,2-7.3.4-.4.6-.8.9-1.2.1-.2.2-.3.3-.5,0,.2,0,.3.1.5.2-.1.7-.3.7-.4,0-1.4.6-.9,1.3-.5.4.2,1,.3,1.5.4.9,0,1.5.2,1.7,1.4.1,1,.8,1.9,1.3,3Z"/>
    <path d="M270.7,204.2c-1.7,0-3.3-1.5-3.2-3,0-2.5.1-5,.4-7.4,0-.8.6-1.7,1.1-2.4.4-.8,1-1.5,1.5-2.3.6-.9,2.9-1.1,3.8-.4.3.2.5.5.8.6,1.7.4,1.7,2.1,2.5,3.2-.4,1.5.2,3.1,0,4.6-.3,1.5-1,2.8-1.6,4.2-.9,2.3-2.8,2.9-5.2,2.9Z"/>
    <path d="M475.3,197.6c0-.7,0-1.3-.1-1.9-.2-1.5.7-2.5,1.7-3.5.2-.2.5-.3.8-.3,1.8,0,3.7,0,5.4,1,.9.5,1.4,1,1.3,2,0,.5.2,1,.3,1.5,0,.4.2.9,0,1.2-.6,1.3-.3,2.6-.3,3.8,0,1.4-.7,2.3-1.7,3.1-.9.8-2,.2-2.9,0-1.2-.4-2.2-1.5-2.7-2.8-.6-1.3-1.1-2.7-1.7-4.1Z"/>
    <path d="M377.9,155c1.3,0,2.5-.1,3.7,0,.2,0,.4.3.6.4-.2,0-.3.3-.5.3-.6,0-1.2,0-1.8,0-1.4-.1-2.7.3-3.9,1-.1,0-.4,0-.6,0,.1-.2.2-.5.4-.6.7-.3,1.4-.6,2.2-1Z"/>
    <path d="M113.7,183.1c-.8-1.6-.7-1.7.8-1.7.2,0,.5,0,.7,0,.6,0,.8.5.5,1-.4.6-1.1.9-1.9.7Z"/>
    <path d="M473.7,94.1c-1.1,0-2,0-2.9,0-.1,0-.3-.4-.4-.6,0-.1.2-.5.3-.5,1.1,0,2.4-.5,3.2.8,0,0,0,.2-.3.2Z"/>
    <path d="M74.8,127c-.7-1.4-.6-1.7.9-1.7.6,0,1.2,0,1.8,0,.2,0,.4.2.6.4-.2.1-.4.3-.7.3-.7,0-1.3,0-2,0-.8,0-.6.5-.6,1Z"/>
    <path d="M410.7,189.1c0-.3,0-.6,0-.8.8.6,1.7,1.2,2.5,1.8,0,0,0,.2.1.2-.2,0-.3.1-.5.1-.9-.1-1.4-.7-2.1-1.3Z"/>
    <path d="M426.7,179.2c-.7-.9.2-1.1.7-1.4.2-.1.7.2,1,.4-.2.2-.4.4-.7.5-.3.2-.6.3-1,.5Z"/>
    <path d="M403.2,203.9c-.3.2-.5.3-.7.3-.3,0-.7,0-.2-.4.2-.2.4-.5.6-.6.3-.2.6-.3.8-.3.1,0,.3.3.4.5-.3.2-.6.3-.9.6Z"/>
    <path d="M162,37.6c-.9,0-1.7-.1-2.1-.9,0,0,.1-.3.2-.4.7.4,1.3.8,1.9,1.4Z"/>
    <path d="M428.1,184.3c.4-.2.8-.3,1.2-.4.2,0,.4-.1.7-.2,0,.3,0,.6-.1.8,0,.2-.4.3-.6.2-.4,0-.7-.2-1.1-.5Z"/>
    <path d="M37.9,137.2c-.7-.6,0-.8.2-1.1.2-.1.6,0,.8.1.1,0,.1.6,0,.6-.2.2-.6.2-1.1.3Z"/>
    <path d="M250.1,88.2c-.2-.3-.2-.4-.3-.6.2,0,.5,0,.7,0,.4.1.8.3,1.2.5-.4,0-.8.2-1.2.2-.1,0-.2,0-.5,0Z"/>
    <path d="M493.9,202.8c0,.2.1.4,0,.4-.3.4-.6.8-1,1.2,0,0-.2-.2-.2-.3-.4-.7.5-.7.7-1.1,0-.1.2-.3.5-.3Z"/>
    <path d="M358.4,206.1c1.2,0,.4,1.2,1,1.5,0,0-.2.2-.2.2-.2,0-.4,0-.5-.2-.2-.5-.3-1-.3-1.5Z"/>
    <path d="M250.1,9.9c.2.2.3.6.3.9,0,.3,0,.6,0,.8-.3-.2-.8-.3-.8-.5,0-.3.2-.7.4-1.2Z"/>
    <path d="M154.8,92c.6-.1,1-.3,1.4-.4,0,0,.2,0,.3.1,0,0-.2.2-.3.2-.7.3-1.3.5-2,.7,0,0-.2-.2-.2-.3.2-.2.4-.3.7-.5Z"/>
    <path d="M445.1,153.5c.4,0,.6.2.7.3,0,0,0,.4-.2.4-.3,0-.7,0-1.1,0-.2,0-.3-.4-.5-.6.3,0,.6,0,1-.1Z"/>
    <path d="M407.1,110.8c.4.1.5.3.7.4l-.9,1c0-.5,0-1,.2-1.4Z"/>
    <path d="M378.1,202.3c-.3,0-.5-.2-.6-.4,0-.3,0-.6,0-.8.3.1.7.1.8.3.1.2-.1.6-.3.9Z"/>
    <path d="M113.8,184.9c-.3-.1-.6-.3-.6-.6,0-.3.2-.5.3-.8.1.2.3.5.4.8,0,.2,0,.3,0,.6Z"/>
    <path d="M74.8,127.2c.1,0,.3,0,.3,0,.2.4.5.8.7,1.2-.1,0-.2.1-.3,0-.6-.2-.8-.7-.7-1.3Z"/>
    <path d="M561.2,83.5c-.4,0-1,.4-1-.3,0-.1.5-.3.8-.3.5,0,.9,0,.2.6Z"/>
    <path d="M30.4,91.9c-.2-.3-.2-.4-.3-.6.2,0,.3,0,.5,0,.3,0,.8.2.8.3,0,.7-.6.3-1,.3Z"/>
    <path d="M315.5,182.4c-.4.2-.7.4-1,.4-.1,0-.3-.2-.4-.4,0,0,.2-.3.3-.3.4,0,.8.1,1,.3Z"/>
    <path d="M571.6,185.6c-.2-.3-.2-.4-.3-.6.1,0,.2,0,.3,0,.4,0,.9.1,1.3.2-.4.2-.8.3-1.3.4Z"/>
    <path d="M492.6,160.8c.4,0,.7,0,.9,0-.4.2-.8.6-1.1.6-.7-.1,0-.3.1-.6Z"/>
    <path d="M45.9,13.8c.7-.8.7,0,.8.3,0,.1,0,.2.1.4-.3-.2-.6-.3-1-.7Z"/>
    <path d="M428.2,192.9c-.2-.3-.2-.4-.3-.6.1,0,.2,0,.3,0,.3,0,.6.1.9.2-.3.2-.6.3-1,.4Z"/>
    <path d="M158,23.6c0,.2-.2.3-.3.3-.2,0-.4-.2-.7-.3,0-.1.1-.3.2-.4.2.1.5.2.8.5Z"/>
    <path d="M521.1,134.2c.3-.3.4-.4.6-.6,0,.1.2.3.2.4-.2.4-.4.9-1,.6,0,0,0,0,0-.1,0,0,0,0,.2-.2Z"/>
    <path d="M443.2,95.3c0,.3-.2.5-.3.6-.1-.1-.2-.2-.3-.3.2-.1.4-.3.6-.3Z"/>
    <path d="M260.2,217.6c.2-.2.5-.2.7-.2,0,0,0,.3,0,.3-.2,0-.5,0-.7-.2Z"/>
    <path d="M211.8,121.5c0-.1,0-.2,0-.2.2-.2.3-.5.5-.7,0,0,.1.2.1.3,0,.4.1.9-.6.7Z"/>
    <path d="M572.8,83.2c-.3.2-.6.3-.8.4,0,0,0-.2,0-.2.3-.2.5-.8.9-.2Z"/>
    <path d="M214.7,221.5c.1.3.2.5.2.7,0,0-.2,0-.2,0-.1-.3-.2-.6-.3-.9,0,0,0,0,.1,0,0,0,0,0,.2.2Z"/>
    <path d="M420.8,166.6c-.1.2-.3.2-.5.3-.1,0-.3,0-.4-.1.2,0,.4-.2.5-.2.1,0,.2,0,.4,0Z"/>
    <path d="M95.4,22.6c.2.2.3.3.4.4-.2,0-.4.1-.6.2,0-.2,0-.5.1-.6Z"/>
    <path d="M373.9,157.2c.2,0,.4,0,.5,0,0,0,0,.2,0,.2-.2,0-.4,0-.5-.2Z"/>
    <path d="M447.3,93c-.1.1-.2,0-.4,0,.1,0,.2-.1.4,0Z"/>
    <path d="M406.9,205.7c.1,0,.1.1.1.2,0,0-.1,0-.1-.2Z"/>
    <path d="M559.1,83.9c-.1,0-.1-.1-.1-.2,0,0,.1,0,.1.2Z"/>
    <path d="M0,91.7c.1,0,.1.1.1.2,0,0-.1,0-.1-.2Z"/>
    <path d="M87.6,77c0-.1.1-.1.2-.1,0,0,0,.1-.2.1Z"/>
    <path d="M532.5,176.6c0-.1.1-.1.2-.1,0,0,0,.1-.2.1Z"/>
    <path d="M550.7,104.9c-.7.1-1.2,0-1.7.6-.3.3-.8.7-1.4.3,0,0-.2.1-.4.2,0-.2,0-.4,0-.5.8-.4,1.5-.9,2.4-1.2.3-.1.8.3,1.1.6Z"/>
    <path d="M173.6,195.8c-.9.8-.5,1.1.3,1.2.2,0,.3.1.5.2-.1,0-.3.2-.4.2-.3,0-.6,0-.9,0-.9-.2-1.3-1.1-.7-1.8.8-.9,1.5-1.9,3-1.5.2,0,.4.3.5.5,0,.2-.2.5-.4.5-.6.2-1.2.4-1.8.7Z"/>
  </g>
</svg>