<?xml version="1.0" encoding="UTF-8"?>
<svg id="Layer_1" xmlns="http://www.w3.org/2000/svg" version="1.1" viewBox="0 0 213.7 549.4">
  <!-- Generator: Adobe Illustrator 29.3.1, SVG Export Plug-In . SVG Version: 2.1.0 Build 151)  -->
  <g id="Shape_19">
    <path d="M27.5,61.4c.2-2.1.3-4,.5-6,0-.6.1-1.3.2-1.9,0-1.1.1-2.3.2-3.4.1-1.3.4-2.5.4-3.8,0-1.8.2-3.6.8-5.3.2-.6.3-1.2.3-1.8,0-3.9.1-7.7.2-11.6,0-2.8,0-5.6.2-8.5.2-2.5.7-5,1-7.5.1-.8-.2-1.7,0-2.5.3-.8.9-1.6,1.5-2.2.6-.5,1.4-.7,2,.1.8,1,1.6,1.9,2.2,3,1,1.7,2.6,2.7,4.2,3.7,2.6,1.7,5.1,3.5,7.5,5.4,1.2.9,2,2.2,3.1,3.2.4.4.9.7,1.3,1.1,1.4,1.4,2.7,2.8,4,4.3,1.1,1.3,2.2,2.6,3.3,3.9,1.8,2.1,3.7,4.2,5.3,6.4,1.5,2.1,2.9,4.3,4.2,6.5,2.6,4.3,5.3,8.6,6.8,13.5.7,2.3,1.7,4.6,1.8,6.9.1,3,.2,6.2-2.3,8.8-1.9,1.9-4.1,3.1-6.6,3.9-1.9.6-3.8.7-5.7.8-1.5,0-3.1.3-4.6.2-2.2-.2-4.4-.6-6.6-1-2-.3-3.9-.8-5.9-1.1-.2,0-.5,0-.8.1.2.2.4.4.5.5,1.8,1.5,3.8,2.8,5.3,4.6,2.5,2.8,5.3,5.3,7.2,8.6,1.4,2.5,2.6,5,3.9,7.6.2.5.4,1,.6,1.6.3-.5.6-.9.9-1.4,2.7-4.2,5.4-8.4,8.1-12.7,1.8-2.9,3.5-5.8,5.3-8.7,1.4-2.3,2.9-4.5,4.3-6.8,1.5-2.5,2.8-5,4.1-7.6,1.3-2.6,2.4-5.2,3.6-7.8,1-2.2,2-4.3,2.9-6.5.4-1,.7-2,1.1-3,.4-1,1.3-1.5,2.2-1.6,1.1,0,2.1,1.3,2.3,2.5.2,1.4-.3,2.7-.8,3.9-.8,1.9-1.3,3.8-1.4,5.8,0,2.3-.3,4.5-.2,6.8.1,2.6.5,5.2.8,7.8.2,1.6.3,3.1.4,4.7.2,1.6.4,3.2.7,4.8.4,2.1.8,4.1,1.2,6.2.6,2.9,1.2,5.7,1.8,8.6.4,2.2.8,4.5,1.2,6.7.4,2.1.9,4.2,1.4,6.2.7,3.1,1.4,6.1,2.1,9.2.4,1.8.8,3.7,1.2,5.6.3,1.5.5,3,.7,4.6.3,2,.7,4,1,6.1.3,1.7.5,3.5.7,5.2.2,1.5.3,3,.4,4.5.1,2.2-.5,4.1-2.2,5.6-.2.1-.2.4-.4.6-.3.3-.5.6-1.1.4-.7-.3-1.5-.3-2.3-.5-.4,0-.7-.2-1-.4-1.1-.6-2.3-1.3-3.4-1.9-.1,0-.4,0-.6,0,.1.2.2.6.4.7,1.9,1,3.6,2.2,5.7,2.6,0,0,.2,0,.3,0,.2.2.5.4.7.7-.4.1-.8.4-1.1.4-2.6-.2-4.6-1.8-6.6-3.2-3.2-2.2-6.2-4.7-9.3-7.1-3.2-2.5-6.3-5-9.4-7.5-2-1.7-4-3.5-5.9-5.3-2-1.8-4-3.6-5.9-5.5-1.3-1.2-2.4-2.6-3.6-3.8-.2-.2-.7-.3-1.1-.4,0,.4-.2.8,0,1.2,1,2.8,2.2,5.7,3.2,8.5.6,1.7,1.2,3.3,1.7,5,.7,2.1,1.5,4.1,1.8,6.3.1,1.2.4,2.4.6,3.6.4,1.9.9,3.7,1.3,5.6.4,1.5.7,3,1,4.4.3,1.5.8,3,.9,4.5,0,1.2,1.1,2.2.6,3.5-.1.3.2.9.5,1.2,1.4,1.6,1.4,3.8,2.3,5.5,0,.2,0,.6,0,.7-.9,1-.2,1.6.4,2.3.2.3.4.7.5,1.1.4,1.1.2,2.4,1,3.4,0,0,.1.3,0,.4-.6,1.8.6,3.3,1.1,4.9.3.9.9,1.7,1.2,2.6.3.9.2,1.8.5,2.7.5,1.9,1.1,3.8,1.7,5.7.2.7.5.3.7,0,.7-1,1.2-2,1.9-3,1.2-1.7,2.5-3.4,3.7-5.1,2.1-2.8,4.3-5.6,6.4-8.4,1.8-2.3,3.5-4.5,5.3-6.8,2-2.6,4.2-5.1,6.2-7.7,1.7-2.3,3.1-4.7,4.6-7.1.7-1.1,1.1-2.5,2.4-3.2.6-.3,1.3-.3,1.7.2.3.5.6,1.3.4,1.7-.5,1.1-1.3,2.2-2,3.2-1.7,2.2-3.6,4.4-5.3,6.7-1.3,1.7-2.7,3.4-4,5.1-1.3,1.7-2.6,3.3-3.9,5-1.1,1.4-2.3,2.9-3.4,4.3-1.4,1.8-2.8,3.7-4.3,5.6-1.8,2.3-3.5,4.5-4.8,7.1-.1.3-.6.7-.9.7-.8-.1-.9.5-1.2.9-1.2,1.8-2.5,3.6-3.7,5.5,0,.1-.1.3-.1.5.2,0,.4-.1.5-.3.5-.9,1.2-1.3,2.2-1.2.2,0,.5-.2.7-.4.7-.4,1.2-.2,1.2.6,0,.4,0,.9-.2,1.3-.4,1.4-.7,2.9-1.4,4.2-.3.6-1.2.8-1.9,1.1-.3.2-.7.2-1.1.2-.1,0-.4-.1-.4-.2,0-.5-.2-.6-.6-.2-.1.1-.3.1-.5.2,0-.2,0-.4,0-.6,0-.3.3-.5.4-.8,0-.3,0-.7,0-1-.3.1-.5.3-.8.3,0,0-.2-.1-.3-.2-.1-.1-.3-.3-.4-.4,0,.2-.2.3-.3.5-.7,1.3-1.1,2.7-2.1,3.8-.6.6-.8,1.5-1.3,2.3-.8,1.4-1.8,2.6-2.5,4.1-.3.8-1.1,1.8-.3,2.9,0,0-.3.4-.4.4-1.2-.7-1,.5-1.2,1-.4,1-.6,2-.8,3-.1.6-.2,1.1-.3,1.7,0,.1,0,.4,0,.4-1.3,1.3-1.2,3.1-1.7,4.7-.3,1-.6,2.1-.6,3,0,2,.4,4,.8,5.9.2.9.5,1.8.9,2.6.6,1.2,2.1,1.3,2.9.8,1.6-1,3.2-2,4.6-3.2,2.9-2.4,5.8-4.9,8.6-7.3.6-.5,1-1.2,1.6-1.8,3.3-3.2,6.6-6.4,10-9.6,1.5-1.4,3-2.6,4.4-4.1,1.1-1.1,2-2.4,3-3.6.7-.8,1.6-1.3,2.3-2.1,1.6-1.7,3.2-3.5,4.8-5.3,1.1-1.3,2.3-2.5,3.4-3.8,2-2.4,4.4-4.6,5.7-7.5.4-.9,1.5-1.1,2.1-.4,1.2,1.4,1.6,3.2,1.3,5-.3,1.4-1.9,1.9-2.9.7-.1-.1-.2-.3-.4-.4-.4-.1-.9-.2-1.3-.3,0,.3-.1.6-.2.9,0,.7,0,1.4-1,1.1-.1,0-.4.2-.5.4-.3.8-.4,1.5-1.4,1.8-.6.2-.9,1-1.4,1.5-.4.4-.9.8-1.3,1.3-.8,1-1.4,2.1-2.2,3.1-.6.8-1.4,1.4-2.1,2.1-1.1,1.1-2.3,2.1-3.4,3.2-1.5,1.5-2.8,3.2-4.2,4.7-.8.9-1.7,1.7-2.6,2.6-1.1,1.1-2.2,2.2-3.3,3.2-3,3-6.1,5.9-9.1,8.9-1.7,1.7-3.4,3.4-5.2,4.9-2.1,1.8-4.2,3.5-6.3,5.3-.5.4-1.1.7-1.4,1.2-1,1.5-2.7,1.2-4.1,1.7-.7.3-1.9-.5-1.9-1.2,0-1-.6-1-1.2-.9-.2,0-.3,0-.4.1,0-.2-.1-.4,0-.5.7-.5.2-.9,0-1.4-.2-.9-.1-1.9-.6-2.6-1.2-2-.7-4.2-.7-6.3,0-2.9.7-5.8,1.7-8.6,1-2.6,2-5.2,3.2-7.7,1.5-3.2,3.1-6.4,4.9-9.4,1.4-2.5,3-4.9,4.7-7.2,1-1.3.6-2.4.2-3.6-.6-2.2-1.1-4.5-2-6.6-1.2-3.3-1.9-6.8-2.9-10.2-.9-3.1-2-6.2-2.9-9.4-.8-2.8-1.6-5.6-2.3-8.4-.8-3.1-1.5-6.2-2.2-9.3-.7-3-1.2-6.1-2-9.1-.6-2.5-1.5-5-2.4-7.5-1-2.9-2.1-5.8-3.2-8.6-.6-1.5-1.4-1.7-2.6-.6-1.3,1.3-3.1,1.6-4.8,2.3,0,0-.5-.5-.4-.7.1-.5.4-1.1.6-1.6,0-.2,0-.5,0-.7-.3.1-.7.2-.8.4-.3.6-.6,1.3-.6,2-.1,1-.5,1.7-1.1,2.5-.7.9-1.1,1.9-1.6,2.9-1.5,2.6-3.2,5.1-4.5,7.9-.7,1.4-1.2,2.9-2.1,4.2-.9,1.2-1.6,2.4-2.4,3.7-.3.6-.5,1.3-.8,1.8-.5.8-1.3,1.2-2.4,1.3-.6,0-1.1.3-1.7.4-.2,0-.5,0-.6-.2-.5-1.1-1.2-.7-1.9-.3-.2,0-.4,0-.5.1,0-.2,0-.5.1-.6.4-.4.9-.8,1.4-1.2.1,0,.4,0,.6,0,.2,0,.4.1.7.2,0-.2.1-.4,0-.6-.7-1.7.2-2.8,1.3-4,1.5-1.6,3.2-3.1,4.5-4.8,1.7-2.3,3-4.9,4.6-7.4,1-1.5,2.1-2.9,3.1-4.4,0,0,0-.4-.2-.4-1.2-.2-2.4-.2-3.5-.5-2.6-.7-5.2-1.4-7.9-2.2-.9-.3-1.7-.7-2.6-1-4-1.8-7.9-4-11.4-6.7-2-1.5-4-3.2-5.9-4.8-.8-.7-1.6-1.5-2.5-2.2-.3-.2-.8-.4-1-.3-1.3.8-1.3-.6-2-.9,0,0,0-.1,0-.2,1-2.1-1.1-3.1-1.8-4.6-.7-1.6-1.9-3-2.5-4.6-.6-1.4-1.1-2.9-.8-4.5.2-1.3,1.1-1.8,2.1-2,.9-.2,1.7.6,2,1.3.8,1.5,1.4,3.2,2,4.8,0,0,.2.2.2.3-.8,1.9.5,3.2,1.4,4.5,2.2,3.5,5.3,6.1,8.6,8.5,1.8,1.2,3.4,2.7,5.2,3.8,2,1.3,4.1,2.5,6.2,3.5,3.7,1.6,7.5,3,11.4,3.7,1.3.2,2.6,0,3.9,0,.4,0,.8-.5,1-.9,1.3-2.2,2.6-4.3,3.9-6.5.1-.2.1-.7,0-.9-1.2-1.9-2.4-3.7-3.6-5.6-.7-1.1-1.4-2.1-2.1-3.1-.4-.6-.7-1.2-1.2-1.8-1.2-1.8-.8-3.7.7-4.5,1-.5,2.3.3,2.9,1.1,2,2.6,3.9,5.3,5.8,8,.7.9,1,.8,1.4-.2.3-.7.6-1.5,1.1-2.1.8-1,.7-2.1.3-3.2-.3-.9-.8-1.7-1.2-2.5-1.1-2.2-2.1-4.4-3.3-6.5-.7-1.2-1.6-2.4-2.6-3.5-1.3-1.6-2.6-3.3-4.2-4.6-3.2-2.7-6.5-5.3-9.8-7.8-1.6-1.3-3.4-2.4-5.2-3.5-1.6-.9-3.3-1.7-5-2.5-.4-.2-.5-.2-.7.3-.6,2.3-.2,4.7-1,6.9-.5,1.3-.3,2.7-.5,4.1-.3,2.6-.7,5.1-1.1,7.7-.1.8-.5,1.6-.8,2.5-.9,2.3-1.8,4.6-2.7,6.9-.4,1-.9,1.9-1.3,2.8-.1.3-.2.7-.1,1,.2.9-1.1,2.6-2,2.4-.4,0-.9-.4-1-.8-.2-.4-.2-1.2,0-1.5.6-.7.7-1.4.8-2.2.4-2,1.1-4,1.7-6,.9-3.2,2.3-6.2,2.4-9.6.1-2.5.7-5,1-7.5.3-2,.4-4.1.7-6.1,0-.6,0-1.3.3-1.8.5-1.1,0-1.8-.9-2.4-2.2-1.6-4.5-3.2-6.7-4.8-2.8-2-5.6-4-8.3-6.1-1.2-.9-2.4-1.9-3.2-3.1-1.1-1.5-.7-3.4.9-4.4.3-.2.8-.1,1.1,0,1.4.5,2.3,1.5,3.3,2.6,1.3,1.4,2.8,2.7,4.3,3.9,2.4,1.8,4.9,3.5,7.4,5.2.4.3,1,.5,1.3.4,1.4-.4,1.3.6,1.6,1.3,0,.2.2.4.3.6.2-.3.4-.5.6-.9M73.8,123.4c.3.3.5.6.8.8,3.1,2.6,6.1,5.3,9.2,7.9,1.9,1.6,3.8,3.1,5.8,4.6,1.9,1.5,3.9,2.9,5.8,4.5,2.7,2.2,5.5,4.1,8.7,5.4,1,.4,2.2-.1,2.6-1,1-2.4.4-4.9.4-7.3,0-.8.1-1.7-.2-2.3-1.2-2.4-.5-5-1.2-7.5-.6-2-.7-4.2-1.1-6.3-.2-1.1-.5-2.2-.7-3.3-.3-2-.5-4-.9-5.9-.4-1.9-1.1-3.8-1.5-5.6-.6-2.7-1.1-5.5-1.7-8.3-.6-2.9-1.3-5.7-1.9-8.6-.5-2.4-1.1-4.8-1.5-7.3-.4-2.3-.8-4.5-1.1-6.8-.3-1.9-.6-3.9-.9-5.8-.2-1.3-.4-2.6-.6-3.9-.2-1.8-.4-3.6-.5-5.4,0-1.3.1-2.7.2-4,0-.2-.2-.4-.4-.7-.2.2-.4.3-.5.5-1.1,2.3-2.2,4.6-3.2,7-1.4,3.3-4,5.9-5.4,9.2-.6,1.5-1.9,2.8-2.8,4.2-.5.7-.8,1.5-1.3,2.2-.6.9-1.7,1.4-2,2.6,0,0-.4.1-.6.1-.7-.1-.7-.1-.5.6,0,.2,0,.5,0,.7-.4,1.9-1.7,3.3-2.7,4.8-.5.7-1.4,1.2-1.8,1.9-.9,1.8-2,3.5-3,5.3-.5.8-1,1.7-1.7,2.4-.1.1,0,.4,0,.6,0,.9-.3,1.6-.8,2.3-1.3,1.7-2.1,3.7-1.5,5.7.5,1.8.2,3.5-.1,5.2-.2,1.2,0,2.1.7,2.9.7.9,1.6,1.8,2.4,2.7,1.9,1.9,3.8,3.8,5.8,5.8M73.4,58c-.5-1.4-1-2.9-1.7-4.2-1.4-2.6-2.9-5.2-4.5-7.8-1.3-2.1-2.6-4.2-4-6.1-.8-1.2-2-2.1-2.9-3.2-1.6-1.9-3.1-4.1-4.9-5.9-3.4-3.4-7-6.6-10.6-9.8-2.2-1.9-4.7-3.2-7.4-4.2-1.2-.5-2.2,0-2.4,1.4-.3,1.8-.5,3.6-.6,5.4-.3,3.7-.4,7.4-.7,11.1,0,1.2-.3,2.4-.6,3.7-.3,1.5-.7,3-.3,4.6.2.8.3,1.8.2,2.6,0,1-.3,2-.4,3-.1.8-.1,1.5-.3,2.3-.3,2.2-.7,4.4-1,6.6-.3,2.1-.7,4.2-1,6.3,0,.3,0,.7.1.8,2.1,1.5,4.2,3.1,6.4,4.3,2.6,1.3,5.3,2.3,8,3.3,1.9.7,3.8,1.1,5.7,1.5,1.1.3,2.3.5,3.4.6,1.4.2,2.8.3,4.1.4,2,.2,3.9.5,5.9.4,2-.1,3.9-.6,5.8-1.1,1.7-.4,3.3-1.4,4.2-2.9,1.3-2.1,1.7-4.4,1-6.9-.6-2-1.1-4.1-1.7-6.3M76.6,128.8c.5.5,1.1.9,1.6,1.4.1.1.3.1.5.2,0-.2,0-.4-.2-.5-1.2-1.4-2.3-2.8-3.7-4-1.6-1.4-3.4-2.4-4.6-4.2-.1-.2-.5-.2-.7-.3,0,.2,0,.6.2.7,1.3,1.3,2.6,2.5,3.9,3.8.4.3.7.7,1.1,1,.6.6,1.2,1.2,1.9,1.9M90.7,139.3c-.8-.8-1.5-1.7-2.8-1.5-.1,0-.2.1-.3.2,0,0,.2.2.2.2.4.2.9.4,1.2.7,1.5,1.3,3,2.6,4.6,3.9.3.2.7.2,1.1.3-.2-.3-.2-.7-.5-1-1.1-1-2.2-1.8-3.5-2.9M58.6,116.9c-.2-.5-.3-1.2-1.1-.9-.3.1-.5.6-.7,1-.2.4-.3.8-.4,1.2,0,.5,0,1,.1,1.4.3-.3.6-.5,1-.8.3-.3.7-.6,1.1-.8.5-.3.4-.6,0-1.1M62.3,110c.1-.9.3-1.7.4-2.6,0-.2-.3-.3-.4-.5-.1.1-.3.3-.3.4-.2.9-.4,1.7-.5,2.6,0,.2,0,.4.1.7.2-.1.5-.2.7-.5M83.3,133.8c-.4-.3-.7-.6-1.1-.9-.2-.2-.4-.3-.6-.4,0,.3,0,.8,0,.9,1,.9,2,1.6,3.1,2.4,0,0,.3,0,.5,0,0-.1,0-.3,0-.4-.6-.5-1.1-1-1.8-1.6M57.4,122c.4-.2.8-.4,1.1-.7.2-.1.3-.3.5-.4-.2,0-.6-.3-.7-.2-.6.3-1.2.7-1.8,1.1-.1,0-.2.2-.3.3.1,0,.3,0,.4,0,.2,0,.3,0,.7,0M88.8,186.3c-.1.6-.3,1.2-.4,1.7.4-.5.8-.9,1.1-1.4.1-.2.1-.5.2-.7-.3,0-.5.2-.9.4M67.7,120.4c0,0,.1.2.2.2.5,0,.9,0,1.4.1-.2-.3-.5-.5-.7-.8,0,0,0-.1-.2-.1-.2-.1-.4-.3-.6-.4,0,.3-.1.5-.2,1M81.5,75c.1,0,.4.2.4.2.3-.4.6-.9.9-1.3,0-.1,0-.3.1-.5-.2,0-.5,0-.6.2-.3.4-.6.8-.8,1.5M26.4,83.4c.1,0,.2,0,.4,0,0-.7.2-1.3.3-2,0,0-.3-.1-.4,0-.1,0-.2.2-.3.3,0,.5,0,1,0,1.7M79.7,131.8c.5.1.9.2,1.4.3-.4-.3-.7-.7-1.1-1,0,0,0,0-.1,0-.2,0-.5,0-.7-.1.1.2.3.4.5.8M62,114.2c.2-.1.5-.3.7-.4-.3-.4-.6-.8-.9-1.1,0,0-.3,0-.5,0,.1.3.3.6.4.9,0,.2.2.3.3.6M84.8,70.2c0-.3,0-.6,0-1-.2.3-.5.6-.7.9-.2.2-.3.4-.4.7,0,.2,0,.4,0,.6.1-.1.2-.2.3-.3.2-.2.4-.5.7-.8M26.9,80.9c0-.6.2-1.1.3-1.7,0,0-.2,0-.3,0-.1.5-.2,1-.3,1.5,0,0,0,.2.3.3M36.2,118.8c.2-.9-.6-.7-1-.8,0,0-.3.2-.4.3.3.2.5.4.8.6.1,0,.3,0,.6,0M30.3,56.8c-.2-.1-.3-.2-.5-.3,0,.4-.1.8-.1,1.2,0,.1.2.2.3.3.1-.1.3-.2.4-.3,0-.2,0-.4,0-.9M66,118c0,.1,0,.3.2.4.2.2.4.4.7.6,0,0,.3-.2.4-.2-.2-.2-.4-.5-.6-.7-.1,0-.3,0-.6,0M30.9,52c0-.3-.1-.5-.2-.8-.2.1-.5.3-.5.4,0,.4,0,.7.1,1.1.2-.2.3-.4.5-.8M32.5,117.3c.3,0,.5-.1.8-.2-.1-.1-.2-.3-.4-.3-.3,0-.6,0-.9-.1,0,.2.2.4.5.6M25.5,88.4c0,.3.1.6.2,1,.2-.1.3-.2.5-.4-.2-.2-.4-.5-.6-.6M87,65.7c0,.1-.1.3-.2.4.2,0,.4,0,.5,0,.2-.1.2-.4.4-.6-.2,0-.4,0-.6.2M27.2,77.8c0-.2.2-.4.3-.6-.2,0-.3,0-.5,0,0,.2,0,.5.2.6M95.4,143.8c.2,0,.3,0,.5.1,0-.2,0-.4,0-.7-.2,0-.4.2-.6.5M45.2,121.5c.4.1.7.2,1.1.3,0,0,0,0,.1-.1-.3,0-.6-.2-.9-.3,0,0-.1,0-.3.1M24,110.5c-.2,0-.4,0-.6,0,0,0,0,.2,0,.3.2,0,.5-.1.6-.3M27.9,70.4c0,.1.2.2.3.3,0-.1.1-.3.2-.4-.1,0-.3,0-.4.1M29.8,60.3c-.1,0-.3,0-.4.1,0,.1.1.3.2.4,0-.1.2-.2.3-.5M39.9,120.3s0,0,0,0c0,0,0,0,0,0-.3,0-.5-.1-.8-.2.2.1.3.2.7.4Z"/>
    <path d="M201.4,270.1c1.4.8,2.7,1.6,4.2,2.2,1.9.9,3.9,1.6,5.8,2.4,1.7.7,3.1,1.9,1.9,4.5-1,2-1.3,4.2-1.6,6.5-.3,2.2-.8,4.5-1.1,6.7-.3,2-.4,4-.7,6-.3,2.1-.6,4.2-.9,6.3-.2,1.5-.2,2.9-.5,4.4-.3,2.2-.7,4.4-1.1,6.6-.3,1.9-.7,3.7-1.1,5.6-.5,2.5-1,4.9-1.5,7.4-.4,2-.7,4.1-1.1,6.1-.6,2.7-1.3,5.3-1.9,8-.6,2.5-1,5-1.5,7.5-.6,2.5-1.3,4.9-1.9,7.4-.6,2.3-1,4.7-1.5,7-.7,2.8-1.4,5.7-2.2,8.5-.8,3.2-1.6,6.4-2.4,9.6-.8,3.3-1.7,6.7-2.5,10-.5,2.1-.8,4.1-1.2,6.2-.4,2.4-.9,4.8-1.3,7.3-.2,1-.2,2-.2,2.9-.2,2.7-.3,5.4-.4,8.1,0,1.3-.2,2.7-.2,4,.1,3.8.2,7.5,1,11.2.4,1.8.7,3.5,1.5,5.1,1.2,2.4,3.2,2.1,4.7.7,2.1-2,3.5-4.5,4.4-7.3.8-2.2,1.5-4.4,2.1-6.6.5-1.9.6-3.9.3-5.8-.1-.8-.9-1.5-1.6-2.1-.7-.7-.9-1.4-.5-2.3.3-.8.7-1.6,1.1-2.4.2-.4.6-.7.9-1,.4.5,1.1,1,1,1.3-.3,2.1,1.2,3.8,1.4,5.7,0,1.1.2,2.2,0,3.3-.6,2.8-1.3,5.7-2.2,8.4-1.1,3.4-2.6,6.7-4.7,9.6-.7.9-1.5,1.8-2.4,2.6-1.8,1.5-3.4.9-5.1-.4-1.8-1.4-2.5-3.4-3-5.5-.7-2.8-1.3-5.6-1.3-8.4,0-3.5-.3-6.9-.2-10.4.1-3.5.6-6.9,1.1-10.4.4-2.9.8-5.7,1.3-8.5.7-3.5,1.5-6.9,2.3-10.3.5-2.3,1-4.7,1.6-7,.8-3.2,1.6-6.4,2.4-9.6.6-2.3,1.3-4.6,1.9-6.9.6-2.2,1-4.5,1.5-6.7.5-2,1.1-3.9,1.6-5.9.4-1.8.8-3.6,1.2-5.5.2-1.1.4-2.1.7-3.2.5-2.2,1-4.3,1.5-6.5.2-.9.4-1.8.7-2.7,0-.2.2-.4.3-.5.1.2.3.4.3.6,0,.2,0,.4,0,.5,0,.1.2.4.2.4.2,0,.5-.2.5-.2,0-.7-.2-1.4-.3-2.1,0-.3-.3-.6-.4-.9-.1-.4,0-.5.4-.3.1,0,.6-.1.6-.3.3-1.2.7-2.4.8-3.7,0-.4-.4-1-.6-1.4,0-.2,0-.6,0-.6,1.4-.5,1.1-1.9,1.4-2.9.4-1.6.4-3.3.5-5,0-.2-.2-.4-.2-.5,0-.2-.1-.7,0-.7.9-.5.6-1.4.9-2.1,0-.2-.2-.5-.2-.8,0-.5,0-1.3.1-1.4.6-.3.3-.6.2-1-.2-.8-.7-1.6.5-2.1,0,0,.2-.2.2-.2,0-.9,0-1.8,0-2.6,0-.1-.1-.4,0-.4.7-.5.6-1.2.6-1.8,0-.2,0-.5,0-.5-.5-.4-.4-.7,0-1,.7-.5,0-.8-.2-1.2.4-.1,1-.3,1-.4,0-.7,0-1.5-.3-2.2-.3-.9-.6-1.7.3-2.5.2-.1.3-.6.2-.6-.8-.8-.3-1.6,0-2.2.5-1,.1-1.9,0-2.8,0-.3-.1-.6,0-.8.4-.4.5-.8,0-1.3,0,0-.1-.2,0-.3,1-1.4,0-2.8,0-4.1.1-1.7.4-3.5.4-5.2,0-.5-.7-1.1-1.2-1.4-2.6-1.6-5.4-3.1-8-4.7-2.4-1.5-4.6-3.1-6.9-4.8-1.3-.9-2.5-2.2-3.9-2.9-1.8-.8-3.2-2-4.8-3.1-1.4-1-2.7-2.1-4.1-3.2-1.1-.9-2.3-1.7-3.5-2.6-.6-.4-1.1-.9-1.7-1.3-.3-.2-1-.2-1.1,0-.8,1-1.6,2.1-2.2,3.3-.8,1.4-1.4,2.9-2.2,4.3-.9,1.7-2,3.4-2.9,5.1-1,1.9-2,3.9-2.9,5.9-.4.8-.8,1.7-1.2,2.5-.1.2-.6.3-.9.5-.3.2-.5.6-.7.9.3,0,.5,0,.8,0,0,0,.2,0,.3,0,0,.1,0,.3-.2.4-.5.7-1,1.4-1.4,2.1-.1.2,0,.4,0,.6,0,.9-.4,1.6-1.3,2.1-.8.4-1,1.3-.7,2,.1.3,0,.9-.3,1-.6.3-.7.7-.6,1.3.2,1.2-1,1.6-1.4,2.6-.1.3-.4.5-.5.8-.2.4-.5.9.4.8.1,0,.3.2.4.3-.1.1-.2.3-.3.3-1.1,0-1.4,1-1.7,1.8-.3.7-.5,1.5-.7,2.2,0,.2,0,.4,0,.6.8,1-.3,1-.7,1.3-.2.1-.4.2-.5.4-.3.9-.5,1.8-.9,2.7-.8,2-1.8,3.9-2.5,5.9-.7,1.9-1,4-1.6,6-.3,1-.7,2-1,2.9-.4,1.3-.8,2.6-1.2,4-.4,1.2-.8,2.4-1.1,3.5-.6,1.9-1.3,3.8-1.8,5.7-.1.4,0,1,0,1.4.3-.3.6-.7.8-1.1.3-.8.4-1.6.7-2.3,0-.3.4-.4.6-.6,0,.3,0,.5,0,.8-.4,4.1-1.8,7.9-2.9,11.8-.8,3.1-1.9,6.2-2.7,9.3-.7,2.5-1.2,5.1-1.7,7.6-.7,3.3-1.4,6.5-1.9,9.8-.3,1.9-.4,3.8-.7,5.7-.3,2-.7,4-1,6.1-.2,1.2-.3,2.4-.4,3.6-.3,3.6-.6,7.1-.9,10.7-.2,2-.3,3.9-.4,5.9-.2,3.2-.3,6.4-.4,9.6,0,1.3,0,2.7,0,4,0,.9-.2,1.9-.2,2.8,0,2.9,0,5.7.2,8.6.2,3.4.7,6.7,1.1,10,0,.7.2,1.4.4,2.1,0,.2.4.4.6.6,0-.2.2-.4.3-.5.1-.3.3-.5.4-.7.2.3.6.5.6.8,0,1.2,0,2.5,0,3.7,0,.8.3,1.6.7,2.3.6,1,.2,1.7-.3,2.4-.5.7-1.2,1.2-2.1.9-1-.3-1.6-1-1.8-2.1-.4-2.6-.9-5.1-1.3-7.7-.3-1.8-.7-3.6-.8-5.4-.2-2.6-.4-5.1-.4-7.7-.1-3.8-.2-7.6-.2-11.4,0-1.7.1-3.5.2-5.2.1-3.3.2-6.7.4-10,.1-2.4.4-4.7.6-7.1.4-3.6.8-7.2,1.3-10.8.3-2.1.5-4.2.9-6.2.4-2.4.8-4.7,1.2-7.1.4-2.3.9-4.6,1.4-6.9.5-2.5,1.1-5,1.6-7.5.7-3.2,1.4-6.4,2-9.5.5-2.4,1-4.8,1.5-7.3,0-.3,0-.7,0-1.1,0-1.5,0-3,.3-4.5.4-1.6,0-3-.4-4.4-.7-2.4-1.5-4.9-2.6-7.1-1.2-2.5-2.6-4.8-4.1-7.2-1.5-2.3-3-4.6-4.6-6.8-1.6-2.1-3.3-4-5-6.1-.5-.6-1-.6-1.7-.4-1.2.4-2,.1-2.6-1-2.3-4.4-5.4-8.2-9.1-11.5-1.5-1.3-3.2-2.5-4.9-3.6-3.1-2.2-6.2-4.5-9.5-6.4-3.8-2.2-7.8-4.1-11.8-6-2.2-1.1-4.4-2-6.7-3-1.7-.7-3.4-1.4-5.1-2.2-1.7-.7-3.4-1.4-5-2.2-.9-.4-1.4-1.2-1.3-2.2.1-.8.4-1.7,1.5-1.7.7,0,1.5.4,2.1.8,2.5,1.2,4.9,2.6,7.4,3.8,2.9,1.4,5.8,2.8,8.6,4.2,1.6.8,3.1,1.6,4.7,2.5.9.5,1.8,1.1,2.7,1.6,2,1.1,4.1,2.1,6.1,3.3,3,1.8,5.9,3.8,8.8,5.7,2.2,1.5,4.4,3.1,6.5,4.7,1,.8,1.9,1.6,2.7,2.5.2.2.2.6.3.9-.2-.1-.5-.3-.7-.4-.5-.3-.9-.7-1.4-1.1-.2-.1-.4,0-.6-.1,0,.2.1.4.3.5,1.2,1.1,2.4,2.1,3.6,3.1,0,0,.3,0,.5,0,0-.2,0-.3,0-.5-.3-1.3-.6-2.6-.9-3.9-.3-1.9-.6-3.7-.9-5.6-.1-1.1-.2-2.2-.2-3.4,0-2-.2-4.1-.2-6.1,0-1.6,0-3.1,0-4.7.2-3.4.5-6.8.9-10.2.3-2.8.7-5.6,1.1-8.4.3-2.3.5-4.5.9-6.8.3-1.5.8-2.9,1.1-4.4.3-1.6.6-3.2.8-4.9.2-1.5.2-3,.7-4.5.4-1.1.4-2.4.6-3.6.3-1.4.7-2.8,1-4.2.3-1.2.4-2.4.7-3.5.8-3,3.6-4,6.2-2.3,1.3.9,2.6,1.7,3.9,2.6.2.1.5,0,.7.1,0-.2-.1-.6-.3-.7-.9-1-1.9-1.8-2.8-2.8-1.5-1.8-2.9-3.6-4.2-5.5-1.1-1.6-1.9-3.5-2.2-5.5-.2-.9.9-2.3,1.7-2.5.7-.2,1.7.7,2.1,1.7,0,0,.1.2.1.3-.6,3,1.3,5.2,2.8,7.4,1,1.6,2.1,3.1,3.1,4.7.6.9,1.2,1.8,1.8,2.7,3.1,4.2,6.6,8.1,10.3,11.9,1.7,1.8,3,4.1,4.5,6.1.4.5.8,1,1.2,1.6.4.6.9,1.1.6,2-.2.7,0,1.4.6,2.1,2.5,2.8,5.7,4.8,8.5,7.3,2.1,1.8,4.5,3.1,6.5,5,.8.8,1.8,1.3,2.7,2,.7.5,1,0,1.3-.5.4-.7,1-1.3,1.5-2,.6-.8,1.5-1,2.3-.7.8.2,1.5,1.8,1.4,2.7-.2,1.3-.7,2.1-2.1,2.3-.3,0-.7.5-.9.8-.3.6.4.6.7.8,1.2.9,2.5,1.7,3.7,2.6,1.1.8,1.9,1.8,3.3,2.3,1,.4,1.8,1.5,2.6,2.3.2.2,0,.6.1.8.2.4.5.8.8,1.2,0,0,.3,0,.4.1,0-.1,0-.3-.1-.4,0-.3-.1-.6-.2-1,.3.1.6.2.9.4.9.6,1.9,1.2,2.8,1.9.4.3.8.8,1,1.3.2.5.4.6.9.4.2-.1.7-.2.9,0,2.3,1.5,4.5,3.1,6.7,4.7.4.3.9.3,1.4.6M119.4,269.9c0,.4-.2.9-.2,1.3.2,2.1.6,4.2.8,6.4.1.8,0,1.7.3,2.5.7,2,.7,4.1,1.1,6.2.2.9.4,1.8.9,2.5.6,1,1.5,1.8,2.3,2.8.1.1.2.3.2.5-.2,0-.4,0-.5-.2-.5-.5-.9-1.3-1.5-1.6-.9-.4-1.3-1.1-1.7-1.9-.2-.5-.7-.9-1-1.3-.1-.1-.4,0-.6-.1,0,.2-.1.4,0,.5.6.9,1.1,1.9,1.8,2.7.7.8,1.6,1.5,2.4,2.2.3.3.9.7,1.1.6.7-.3,1,0,1.4.5.7.8,1.4,1.6,2,2.4,1.8,2.4,3.7,4.8,5.5,7.3,1.4,2,2.7,4.1,3.9,6.3,1.1,1.9,2.2,3.7,3,5.7.9,2,1.5,4.1,2.2,6.1,0,.2.2.3.3.4.1-.2.3-.3.3-.5.1-.6.2-1.1.3-1.7,1.2-4,2.5-7.9,3.8-11.8.9-2.6,1.8-5.2,2.8-7.8,1.4-3.7,2.8-7.4,4.3-11.1,1-2.5,2.1-5,3.2-7.4.4-.9.9-1.9,1.3-2.8,1.3-2.7,2.6-5.5,3.9-8.2,1.3-2.8,2.7-5.6,4.1-8.4,1.4-2.9,2.9-5.8,4.3-8.7.2-.4.2-1,0-1.3-.4-.5-1-.8-1.5-1.2-2.2-1.6-4.5-3.2-6.7-4.9-2.6-2-5.1-4-7.6-6-2.7-2.2-5.3-4.3-8-6.5-.9-.8-1.8-1.6-2.7-2.3-.4-.3-1-.3-1.6-.4,0,.4-.1.8-.2,1.2-.2,1-.5,2-.7,2.9,0,.2-.2.6,0,.7.6.7,1,1.5.4,2.4,0,.2.1.5.2.8,0,.2.2.4.2.6-.8,2.3.1,4.5-.2,6.8-.2,1.5.1,3.1.2,4.7,0,1.9,0,3.8,0,5.7,0,2.2.1,4.3.2,6.5,0,.2,0,.3.1.5.6,1,1.2,2,1.8,2.9.4.7.5,1.3,0,1.9-.5.6-1.1,1-1.9.7-2.5-.9-4-3.9-3.5-6.5.4-2.1.7-4.1.9-6.2.1-2.1,0-4.2,0-6.3,0-2.7-.1-5.5-.2-8.2,0-3.1-.2-6.1-.2-9.2,0-1.3,0-2.5.2-3.8.1-.9.8-1.5,1.6-1.8.8-.2,1.6,0,2.2.6.6.7,1.3,1.4,2.1,2,.2.2.5.2.8.2,0-.2-.1-.5-.3-.7-1-1.4-2-2.7-3-4.1-1.9-2.6-4.1-4.8-6.6-6.9-1-.8-2.3-1.7-2.3-3.4,0-.4-.6-.7-1-1.1,0,0-.3,0-.4,0,0,.1,0,.3,0,.4,0,.2,0,.5-.1.7-.2,0-.4,0-.5-.1-1.5-.9-2.9-1.7-4.3-2.6-.9-.5-1.8-.2-2.1.9,0,.3-.1.7-.2,1-1.1,2.6-1.9,5.2-2.4,8-.2,1-.3,2-.7,2.8-.4.9.5,2.1-.8,2.8,0,0-.1.4,0,.5.9,1,.1,2,0,3-.2,1.1.2,2.6-1.4,3.2,0,0-.8.8.3.8.9,0,.3.7.3,1,0,.4-.2.9-.4,1.3-.2.4-.3.9-.5,1.3-.4.9-.8,1.7-1.2,2.6,0,.2,0,.4.1.7.2-.1.4-.2.6-.4.1-.1,0-.4.2-.6,0-.2.2-.3.3-.5.2.2.3.4.5.6-.7.4.3,2.2-1.5,1.8,0,0-.2.2-.2.3-.2.8-.3,1.7-.4,2.5-.1,1.2-.2,2.3-.2,3.5,0,.8-.2,1.6,0,2.4.3,1,.6,1.9.4,3,0,.8-.2,1.4-.8,1.9-.3.3-.6.7-.7,1.1-.2.8-.2,1.7-.2,2.5,0,2.4,0,4.8,0,7.2.1,2.8.5,5.6.6,8.4,0,3.3.8,6.5,1.3,9.7,0,.4.3.8.5,1.2.1-.5.3-.9.4-1.4,0,0,0-.2,0-.3-.3-2.2-.7-4.4-1-6.6-.2-1.8-.3-3.6-.5-5.4-.3-2.8-.6-5.5-.4-8.3,0-.1,0-.3,0-.4.1.1.3.2.3.3,0,.4,0,.9,0,1.3.1,1.3.3,2.7.4,4.3M131.5,379c-.4,2.8-.8,5.6-1.1,8.4-.2,2.1-.3,4.1-.4,6.2-.2,4.6-.5,9.1-.6,13.7,0,3.1,0,6.2,0,9.3,0,1.5.1,3,.2,4.5.1,2.2.2,4.4.4,6.5.1,1.4.4,2.9.6,4.3.2,1.3.5,2.6.9,3.9,0,.3.3.6.5.9.1-.3.3-.7.4-1,0-.1,0-.3,0-.5-.5-2.1-1.1-4.3-1.4-6.5-.4-2.6-.6-5.3-.7-7.9-.1-3,0-5.9,0-8.9,0-3.3.1-6.6.2-10,0-1.3.2-2.5.2-3.8,0-.8,0-1.6,0-2.4.2-2.8.4-5.5.6-8.3.1-1.6.2-3.2.4-4.8.2-2,.6-3.9.8-5.9.2-1.3.3-2.7.4-4,.2-1.2.4-2.4.6-3.6.4-2.3.8-4.7,1.2-7,.3-1.8.8-3.6,1.2-5.5.4-1.9.7-3.8,1.1-5.6.5-2.2,1.2-4.4,1.7-6.5.8-3.4,1.7-6.7,2.5-10.1,0-.2-.2-.4-.2-.6-.2.1-.4.3-.5.4-.2.4-.3.8-.4,1.2-.7,2.6-1.3,5.2-1.9,7.8-.5,2.1-1,4.3-1.5,6.4-.5,2.1-.9,4.3-1.3,6.4-.4,1.7-.7,3.4-1.1,5.1-.4,1.7-.8,3.3-1.1,5-.3,1.8-.4,3.7-.7,5.6-.3,2.4-.7,4.8-1.1,7.4M198.9,351.8c.6-2.7,1.1-5.3,1.7-8,0-.3,0-.6,0-.9-.1,0-.4,0-.4,0-.2.2-.3.5-.4.8-.3,1.7-.5,3.5-.9,5.2-.3,1.5-.9,3-1.3,4.6-.6,2.4-1.1,4.9-1.7,7.3-.5,1.9-1.1,3.7-1.5,5.6-.8,3.1-1.4,6.3-2.2,9.4-.8,3.1-1.6,6.3-2.4,9.4-.7,3-1.5,6-2.2,9.1-.5,2.4-.9,4.7-1.3,7.1-.4,2.4-.6,4.7-.9,7.1-.3,3.3-.6,6.6-.9,9.9,0,1.2.2,2.5.2,3.7,0,1.1-.3,2.2-.2,3.3.2,2.2.4,4.4.9,6.6.4,1.9,1,3.8,1.5,5.7,0,.2.3.3.5.5,0-.3.1-.5,0-.8-.4-1.8-.9-3.7-1.3-5.5-.3-1.6-.2-3.3-.5-4.9-.6-3.2-.5-6.3-.2-9.5.3-3.4.4-6.7.7-10.1.1-1.9.3-3.8.7-5.7.5-2.8,1.1-5.7,1.7-8.5.8-3.4,1.6-6.8,2.4-10.1.4-1.7.9-3.3,1.3-5,.6-2.3,1.2-4.6,1.7-7,.4-1.8.9-3.6,1.3-5.4.3-1.3.7-2.7,1.1-4,.4-1.6.7-3.2,1-4.8.4-1.7.8-3.4,1.3-5.1M139.3,314.5c-1.4-2.6-2.8-5.3-4.3-7.9-1.3-2.2-2.6-4.3-4.1-6.3-.9-1.3-2-2.6-3-3.8-.7-.9-1.4-1.7-2.1-2.6-.1-.1-.4-.1-.6-.2,0,.2,0,.5.1.6,1.3,1.8,2.6,3.5,3.9,5.3,1,1.3,2,2.6,2.9,4,1.2,1.8,2.3,3.6,3.4,5.5,1.9,3.3,3.9,6.6,4.6,10.4,0,.5.4,1.1.6,1.6,0,.2.4.3.6.4,0-.2.3-.5.3-.6-.7-2.1-1.4-4.1-2.1-6.4M209.6,275.5c-.6-.3-1.1-.6-1.7-.8-1.1-.6-2.3-1.1-3.4-1.7-.1,0-.3,0-.5,0,.1.2.2.4.3.5,1.3.9,2.7,1.7,4,2.5.5.3,1.3,0,1.3-.4M196.8,268.7c0,0,.2-.1.3-.2-.5-.4-1-.9-1.5-1.3-.8-.6-1.6-1.2-2.4-1.7-.1,0-.4,0-.6,0,0,.2.1.4.3.5.8.7,1.5,1.5,2.3,2.1.4.3.9.4,1.6.5M118.2,255.7c.3-.2,1-2.4.9-2.8-.1-.3-.2-.6-.4-.9,0-.1-.3-.2-.4-.2,0,0-.2.2-.2.2,0,1.2,0,2.4,0,3.6M112.2,281.3c.3.1.7.3,1,.4.1,0,.3,0,.4,0,0-.1,0-.3-.1-.4-.6-.5-1.2-.9-1.8-1.4-.2-.2-.6-.2-.9-.2.2.2.3.5.5.7.2.3.5.5.9.9M201.4,338.5c.1,0,.4,0,.4-.1.2-.6.5-1.2.7-1.8,0-.2,0-.4,0-.5-.2,0-.5,0-.5.2-.2.7-.4,1.3-.5,2.2M201.2,341.8c.1-.6.3-1.1.3-1.7,0-.2-.1-.4-.2-.6-.1.1-.3.2-.4.3-.2.6-.3,1.3-.4,2,.2,0,.4,0,.6,0M202.9,272.1c-.4,0-.8-.2-1.2-.3,0,0,0,.2,0,.3.4,0,.7,0,1.1.1,0,0,0,0,.2-.1M122.1,230.4c0-.2,0-.4-.1-.6l-.4.5c.1,0,.3.2.5.1M189.7,263.6c-.1,0-.3,0-.4,0,.1.2.2.4.3.5.1,0,.3,0,.5,0-.1-.1-.2-.2-.4-.4M80.4,261.6c.1.1.2.3.3.4,0,0,.3,0,.4-.1-.2,0-.3-.2-.7-.3Z"/>
    <path d="M46.9,380.8c.9-2.9,1.8-5.7,2.8-8.5,1-2.9,2.1-5.7,3.3-8.6.7-1.7,1.6-3.3,2.4-4.9,1.3-2.7,2.7-5.4,4-8.1,1.5-3,2.9-6.1,4.3-9.1,1.5-3.1,3.2-6.2,4.7-9.3.8-1.7,1.6-3.4,2.4-5.1.6-1.5-.2-2.6-1.2-3.5-1.5-1.5-3-2.9-4.5-4.4-.2-.2-.6-.4-.7-.7-.5-1.7-2.1-2.3-3.3-3.2-.9-.7-1.7-1.3-1.5-2.5,0-.3.3-.6.5-.9.3.1.6.2.7.4.5.8,1,1.7,1.5,2.5.3.5.5.8,1.1.1.6-.8,1,0,1.4.4.5.5.9,1.1,1.2,1.6,1,1.6,2.8,2.7,3.4,4.6.2.7.8,1.5,1.7,1.4.2,0,.4-.2.5-.2,0-.2-.2-.3-.3-.5-.3-.3-.7-.5-.9-.8-.1-.2,0-.6,0-.9.3,0,.6,0,.7.2.4.4.7,1.1,1.1,1.2.6.2,1.5.3,2.1,0,1.5-.8,2.6-.6,3.3.9.4.9,0,1.6-.7,2.1-.6.5-.8,1.1-.9,1.9,0,.6-.5,1.4-.9,1.8-2.3,2.1-3.5,4.9-5.1,7.4-.9,1.6-2,3.1-2.8,4.7-1.8,3.6-3.4,7.3-5.1,10.8-1.6,3.4-3.4,6.7-5,10-1.6,3.3-3.3,6.6-4.2,10.2-.6,2.5-1.8,4.9-2.5,7.4-.5,1.6-.8,3.3-1.1,5-.6,3.4-1.2,6.8-.8,10.2.1,1.4.5,2.9,1.1,4.2.6,1.4,1.7,1.5,3.2,1.1,2.3-.5,3.8-1.9,5-3.7,1.2-1.7,2.7-3.2,3.9-4.9,1.7-2.4,3.2-4.8,4.7-7.2,1.9-3,3.7-6,5.5-9,1.3-2.2,2.4-4.4,3.8-6.5,1.4-2,2.1-4.3,3-6.6.5-1.2,1.3-2.3,1.6-3.5.6-2.2,1.8-4.3,1.4-6.8,0-.3.3-.6.4-.9.1.2.2.4.4.6,0,0,.3.1.4,0,.2-.2.4-.4.4-.7,0-1,0-1.8,1.3-1.6.8,0,1.9,1.5,1.7,2.3-.3,1.3-.3,2.8-1.3,3.9-.2.2-.3.5-.4.6-1.3.7-1.8,1.9-2.3,3.2,0,.2,0,.4,0,.6.2,0,.4,0,.6,0,1.4-.9,2.8-.4,4.1.2,3.6,1.6,6.6,4,9.9,6,2,1.2,3.9,2.6,5.4,4.4,1.3,1.4,2.4,2.9,3.6,4.5,1.2,1.7,2.6,3.3,3.6,5.1,1.5,2.9,2.7,6,3.9,9.1.3.8.6,1.6.9,2.3.4,1.2.7,2.5,1.1,3.7.1.3.5.5.8.8,0-.3.2-.7.2-1-.4-2-.5-4.2-1.3-6.1-1-2.2,0-4.6-1-6.7-.1-.3-.2-.6-.4-.8-.5-.6-.3-1.1-.3-1.8,0-1-.2-2-.4-3-.2-1.1-.3-2.3-.4-3.4-.1-.7-.5-1.4-.4-2.1.3-1.5-.5-2.8-.7-4.2-.2-1.3-.5-2.6-.6-3.8-.1-1.5-.2-3-.2-4.5,0-.6-.1-1.2,0-1.8.3-1.3,1.4-1.6,2.5-.9,2.5,1.7,3.9,4.2,5.2,6.8,1.1,2,.6,4.1,0,6.1,0,.3-.4.4-.6.7-.3-.4-.7-.7-.8-1.1-.7-2-1.3-4.1-2-6.1-.2-.6-.4-1.3-.8-1.8-.2-.3-.6-.3-1-.5,0,.3-.2.6-.2.8.3,2.2.6,4.4.8,6.6.3,2.3.4,4.6.7,6.9.2,1.9.6,3.7.8,5.6.2,1.2.3,2.5.4,3.7.2,1.4.4,2.8.6,4.3.2,1.5.4,3.1.7,4.6.6,3.4,1.1,6.7,1.7,10.1.6,3.3,1.5,6.5,2.1,9.7.5,2.5.9,5,1.3,7.5.4,2.3.9,4.5,1.3,6.8.2,1.3.3,2.7.5,4,.3,2.5.7,5,1.1,7.5.1,1,.2,2,.2,3,.1,2.1.2,4.2.4,6.3.3,2.8.7,5.5,1,8.3.1,1,0,2.1-.9,2.9-.9.7-1.8.9-2.6.4-.8-.5-1-1.8-.9-2.7.2-1.8.1-3.6.1-5.4,0-1.1-.1-2.2-.2-3.4-.4-3.5-.9-7-1.3-10.5-.2-2.1-.4-4.2-.7-6.3-.6-4-.7-8-1.7-12-.6-2.4-.7-5-1.2-7.4-.4-2.2-1-4.4-1.6-6.6-.5-2.2-1.1-4.5-1.7-6.7-.5-1.8-1.1-3.7-1.8-5.4-1-2.7-2-5.4-3.2-8-1.8-3.9-4-7.6-7.1-10.6-.2-.2-.4-.5-.6-.8-1.7-2.2-3.8-3.9-6.2-5.2-1.2-.7-2.3-1.6-3.5-2.3-1.3-.8-2.8-1.5-4.2-2.2-.4-.2-.9-.4-1.3-.7-2-1.3-5.4-.4-5.8,1.8-.3,1.8-.3,3.7,0,5.4.5,2.4,1.4,4.8,2.1,7.1,0,.3,0,.8-.2,1-.4.5-.3.8.2,1,1.1.5,1,1.9,1.8,2.7,0,0,0,.5,0,.6-1,.7-.3,1.5-.1,2.2,0,.3,0,.7,0,1-.3-.2-.6-.4-.7-.6-.4-1.2-.8-2.4-1.2-3.6-.3-.8-.8-1.6-1.1-2.4-.1-.3-.1-.8-.3-1.1-.6-1.3-1.3-2.5-1.8-3.8-.5-1.1-.8-2.4-1.2-3.5,0-.3-.3-.5-.4-.7-.2.2-.5.4-.6.7-2.5,4.1-5,8.2-7.5,12.4-1.3,2.2-2.5,4.6-3.8,6.9-.4.7-.9,1.5-1.4,2.1-2.1,2.8-4.1,5.8-6.4,8.5-1.7,2.1-4,3.4-6.5,4-1.7.5-3.2-.7-4.3-2-1.6-2-2.1-4.5-2.2-7.1,0-4.2.5-8.4,1.5-12.5.1-.5.2-1.1.2-1.8M68.6,334.8c-.7,1.4-1.4,2.9-2.2,4.3-1.4,2.6-2.8,5.1-4.1,7.7-.9,1.7-1.7,3.5-2.5,5.2-1.1,2.3-2.3,4.5-3.3,6.8-.7,1.6-1.1,3.4-2,4.8-2,3.1-2.9,6.5-4.2,9.8-.8,2.1-1.4,4.3-1.9,6.5-.7,2.8-1.6,5.6-1.4,8.6,0,.2,0,.4,0,.6,0,2.3-.1,4.6-.1,6.9,0,.3.2.6.4.8.1.2.3.3.5.4,0-.2.2-.4.2-.6,0-1.4-.2-2.7-.2-4.1.1-2.6.3-5.3.7-7.8.4-2.5,1-4.9,1.7-7.3.6-2.2,1.4-4.3,2.2-6.5.4-1.2.8-2.3,1.3-3.5.6-1.3,1.5-2.5,2-3.8,1.3-3.7,3.2-7.1,5-10.6.7-1.5.9-3.1,2-4.5,1.5-1.9,2.3-4.3,3.4-6.5,1.4-2.8,2.9-5.6,4.3-8.5.2-.4.3-.8.3-1.3,0-.1-.2-.3-.3-.5-.1.1-.3.3-.4.4-.4.8-.8,1.5-1.2,2.5M49.1,400.2c-.3-.4-.6-.8-.8-1.2,0,0-.2.2-.2.3.1.5.2,1.1,1.1.9Z"/>
    <path d="M66.8,439c0-3.7.2-7.3.2-10.8,0-1.6,0-3.1,0-4.7,0-.5.6-1.4,1-1.5.9-.2,2-.2,2.7.2.9.5,1.4,1.4,1,2.7-.4,1.5-.4,3-.5,4.6-.2,2.8-.3,5.6-.4,8.4,0,.6.3,1.3.4,1.9.4,1.8.8,3.6,1.3,5.4.3,1.1,1,2.2,1.5,3.3,1.4,3.4,2.7,6.9,4.1,10.3.8,2.1,1.8,4.2,2.6,6.3,1.1,2.8,2.2,5.6,3.2,8.5,1.1,3,2.1,5.9,3,8.9,1.5,4.6,3,9.3,4.5,13.9,1.8,5.9,3.6,11.8,5.4,17.8,1.4,4.7,3,9.4,4.3,14.1,1.3,4.6,2.6,9.1,4.8,13.4.5.9.9,1.8,1.5,2.6,1.4,1.8,2.5,2,4.8,1.3,4.2-1.3,6.7-4.2,7.7-8.3.4-1.4.5-2.8.7-4.3.2-1.8.3-3.6.2-5.4-.2-2.9-.5-5.8-.8-8.7-.2-2.2-.5-4.3-.9-6.5-.5-3-1.1-6-1.7-9-.8-4.1-1.6-8.2-2.6-12.2-1.1-4.7-2.4-9.4-3.6-14.1-.9-3.6-1.8-7.1-2.7-10.7-.7-2.8-1.7-5.6-2.1-8.4-.4-2.8-1.4-5.3-1.8-8-.3-1.7-.8-3.2-1.3-4.9-.8-3.1-1.6-6.3-2.4-9.4-.5-1.8-1-3.5-1.5-5.3-.8-2.9-1.6-5.9-2.4-8.9-.5-1.9-1.1-3.7-1.6-5.6-1-3.2-2-6.4-3.1-9.6-.8-2.2-1.6-4.4-2.4-6.6,0,0-.1-.2-.1-.3,0-.3,0-.7,0-1,.2.3.4.5.5.8.9,1.9,1.8,3.8,2.6,5.8.8,2.1,1.3,4.3,1.9,6.4.7,2.5,1.5,4.9,2.2,7.4.7,2.2,1.5,4.4,2.1,6.7,1.1,4.1,2.2,8.3,3.3,12.4,1,3.8,2,7.5,2.9,11.3.5,1.9.8,3.9,1.2,5.8,0,.3.3.5.5.7.1-.2.4-.5.4-.7,0-.6-.1-1.3-.3-1.9-.7-2.8-1.5-5.6-2.3-8.5-.7-2.7-1.3-5.5-2-8.3-.9-3.7-1.8-7.5-2.8-11.2-.7-2.4-1.6-4.8-2.3-7.2-.9-2.9-1.7-5.9-2.6-8.8-.7-2.3-1.6-4.6-2.4-6.9-.2-.6-.4-1.3-.6-1.9-.1-.3-.4-.5-.5-.7-.2-.3-.4-.6-.5-1-.4-.9-.6-2-2-1.9-.1,0-.4-.2-.5-.4-.6-1.2-1.1-2.4-1.6-3.6,0-.2,0-.5,0-.7.2.1.4.2.5.4.4.7.8,1.3,1.2,2,.1.3.2.6.4.8.1.1.4.2.6.2,0,0,.2-.3.1-.4-.4-1.6-.9-3.2-2.6-3.9-.5-.2-.9-.7-.3-1.3.2-.2.3-.7.1-.9-.4-.7-1-1.3-1.5-2,0,0-.2-.1-.4-.2-.3,0-.5,0-.8,0,.2-.4.3-1,.6-1.2.3-.2,1-.2,1.2,0,.8,1.1,1.5,2.2,2.1,3.4.9,1.9,1.5,3.8,2.4,5.7,1.9,4.1,3.6,8.3,5,12.7,1.4,4.2,2.8,8.4,4,12.7,1.3,4.4,2.4,8.9,3.6,13.4.7,2.5,1.5,4.9,2.1,7.5,1,4.1,1.9,8.3,2.9,12.5.1.6.3,1.2.4,1.8.6,2.4,1.1,4.9,1.7,7.3.5,2.1,1.1,4.1,1.6,6.1.5,2.1.9,4.2,1.4,6.3.5,2.2,1.2,4.3,1.7,6.4.7,2.6,1.3,5.3,2,8,.8,3.3,1.6,6.7,2.4,10,.6,2.7,1.2,5.4,1.7,8,.4,1.9.6,3.9.9,5.8.4,3.1.8,6.2,1.1,9.3.3,2.5.7,5.1.6,7.6,0,3.4-.1,6.8-1.4,10.1-1.6,4-4.4,6.8-8.4,8.4-.9.4-1.8.7-2.8.8-2.2.3-3.7-.9-4.9-2.6-2.4-3.6-3.9-7.6-5.2-11.7-1.5-4.8-3.1-9.7-4.6-14.5-.7-2.4-1.3-4.9-2-7.3-1-3.2-2-6.4-3-9.6-1.2-3.8-2.3-7.6-3.5-11.4-1-3.1-2-6.2-3-9.3-1.7-4.9-3.4-9.7-5.2-14.5-1.9-5-4-9.9-6.1-14.8-.8-2-1.8-3.9-2.6-5.9-.2-.6-.2-1.2-.4-1.8,0-.2-.4-.4-.5-.6-.1.2-.3.4-.3.6-.4,3.3-.7,6.7-1.1,10-.2,1.7-.3,3.5-.4,5.2-.2,2.1-.6,4.2-.8,6.4-.1,1.2-.1,2.4-.2,3.6-.3,2.3-.6,4.5-.8,6.8-.1,1-.2,2-.2,2.9-.2,2.9-.4,5.8-.7,8.7-.1,1.7-.3,3.5-.4,5.2-.2,3-.3,6-.4,9,0,1.6-.4,3.3-.4,4.9,0,1.8.1,3.5.2,5.3,0,1.1-.8,2.2-1.6,2.2-.8,0-1.7-1.1-1.6-2.2.1-2.8.3-5.6.4-8.4.2-4.1.4-8.1.7-12.2.1-2,.2-3.9.4-5.9.2-2.5.6-5.1.8-7.6.1-1,.1-2,.2-3,.3-2.7.6-5.3.9-8,.2-1.7.3-3.4.4-5.1.3-2.7.6-5.4.9-8.1,0-.8.2-1.6.2-2.4,0-2.1.2-4.1.2-6.2,0-2.7.1-5.4.2-8.3M111.8,475.5c0,0,.1,0,.1.2.8,3,1.5,6,2.3,9,.9,3.4,1.7,6.8,2.5,10.2.7,2.9,1.4,5.9,1.9,8.8.6,2.8,1.1,5.6,1.5,8.5.4,2.4.6,4.9.9,7.3.3,3.2.7,6.5.8,9.7,0,1.6-.3,3.3-.4,4.9-.1,2.3-.7,4.5-1.7,6.5,0,.2-.2.4-.2.5,0,.1,0,.3,0,.4.1,0,.2-.1.3-.2.2-.2.4-.5.5-.8,1.6-2.8,2-6,2.2-9.2,0-1.7,0-3.4,0-5.1,0-1-.1-2-.2-3-.3-2.7-.6-5.3-.9-8-.2-1.6-.4-3.2-.7-4.8-.3-1.8-.7-3.5-1-5.3-.4-2.1-.7-4.3-1.1-6.3-.7-3.1-1.6-6.1-2.3-9.2-.7-2.6-1.3-5.2-1.9-7.9-.5-1.9-1-3.8-1.5-5.7-1-4-2-8-3-12-.5-2.3-.9-4.7-1.4-7,0-.3-.3-.5-.4-.7-.1.2-.4.5-.4.7,0,1,.2,1.9.4,2.8.4,1.8.7,3.7,1.2,5.5.8,3.3,1.7,6.6,2.5,10.1M63.6,506c0-.3.2-.7.2-1,.2-2.9.3-5.9.4-8.8,0-1.9.1-3.8.2-5.6,0-1,.1-2,.2-3,.3-2.8.6-5.7.9-8.5.1-1,.1-2.1.2-3.2.3-3,.7-6,1.1-9.1.3-2.3.4-4.7.7-7,.3-3.4.7-6.8,1.1-10.3.2-1.7.3-3.3.4-5,0-.5.2-1.1.2-1.6,0-.2-.3-.4-.5-.6-.1.2-.3.3-.3.5-.1.5-.2,1.1-.2,1.6-.3,3.1-.6,6.2-.9,9.4-.1,1.2-.1,2.3-.2,3.5-.3,2.4-.6,4.8-.8,7.2,0,.6,0,1.2,0,1.8-.4,3.3-.9,6.6-1.3,9.8-.3,2.4-.5,4.8-.7,7.2-.3,3.6-.6,7.2-.9,10.8-.2,2.1-.3,4.1-.4,6.2-.1,3.4-.2,6.8-.2,10.2,0,.2.1.4.2.6.1-.2.4-.4.4-.6.1-1.4.2-2.8.2-4.5M69.2,438.5c0-.5,0-1,0-1.5,0-.1-.3-.2-.4-.3,0,.1-.2.3-.2.4,0,.7,0,1.5,0,2.2,0,.3.2.6.2.9.1-.3.3-.6.4-1,0-.1,0-.3,0-.6M69,432.4c0,.6-.2,1.2-.2,1.8,0,.1.4.4.5.4.6-.2.5-1.9-.3-2.2M68.6,422.9c0,.3.1.7.2,1,0,0,.3,0,.4.1,0-.4.2-.7.2-1.1,0-.1-.5-.2-.8,0M69.1,431.4c0-.2.2-.4.2-.6,0,0-.3-.1-.4-.2,0,.3,0,.6.2.9M81.5,470.1c.2.1.3.2.5.3,0,0,.1-.2,0-.2-.2-.1-.4-.2-.6-.2Z"/>
    <path d="M44.1,335.4c-.2.7-.4,1.4-.7,2,0,.2-.3.3-.4.4,0-.2-.2-.4-.2-.5.5-1.3.2-2.8,1.3-4,.7-.7,1-1.7,1.4-2.6,0-.1,0-.4-.2-.5,0,0-.3,0-.4,0-.3.3-.6.7-.8,1.1-.6,1.1-1.2,2.2-1.8,3.3,0,.1-.2.2-.3.3,0-.1-.1-.3,0-.4.6-1.5.9-3.4,2-4.3,1.1-.9,1.9-1.9,2.5-3,.9-1.8,1.5-3.8,2.2-5.7.5-1.2,1.1-2.4,1.6-3.5.2-.4.5-.7.7-1.1,0-.2,0-.5,0-.7-.2,0-.5.1-.7.2-.1,0-.3.2-.4.2,0-.2,0-.4,0-.6.5-.8,1.1-1.5,2.1-1.7.2,0,.4-.3.6-.4-.2-.1-.5-.4-.7-.4-.5,0-.7-.2-.5-.7.6-1,1-2.1,1.7-3,.4-.5.1-.6-.1-.9-1.2-1-2.5-1.9-3.8-2.9-1-.8-2-1.6-3-2.4-2.1-1.5-4.1-2.9-6.2-4.3-2.7-1.7-5.5-3.2-8.3-4.8-2.6-1.5-5.1-3.1-7.7-4.7-.1,0-.3,0-.5,0,0,.3-.1.6,0,.8.3.5.7,1,1,1.5,1.1,1.7,1.1,2.3-.5,3.9-.1.1-.6.1-.8,0-1.7-1.1-2.2-3-2.8-4.7-.5-1.3-1-2.7-1.5-4-.4-.9-1.4-1.1-2.3-.7-.2,0-.5,0-.7-.1-.3,0-.5-.2-.7-.3,0,.2,0,.5-.1.7,0,.2,0,.4-.1.6-.2-.2-.4-.3-.4-.5-.2-.6-.1-1.2.6-1.5.3-.1.6-.2.8-.3-.3-.2-.6-.5-.9-.5-1.4-.4-2.6-1.1-3.5-2.2-1.1-1.3-1.3-2.6,0-4,.7-.8,2.2-1,3.1-.3,1.5,1.1,2.9,2.2,4.3,3.4.6.5,1.1,1.3,1.5,1.9,1.4,2.2,3.7,3.2,5.7,4.5,4.3,2.9,8.8,5.5,13.2,8.3,1.9,1.2,3.8,2.3,5.6,3.5,2.3,1.6,4.5,3.3,6.7,5,1.1.9,2.1,1.9,3.2,2.7.4.3,1.1.2,1.6,0,.3,0,.4-.6.7-.9-.3.1-.6.3-1,.4-.1,0-.2.1-.4.2,0-.2-.1-.3-.1-.5,0-.2,0-.3.2-.5,1.2-1.7,2.4-3.3,3.7-5,.3-.4.8-.7,1.3-1.1,0,0,.3,0,.3,0,0,.1.2.3.2.5,0,.2,0,.5,0,.7.2-.2.7-.4.7-.6-.1-1.6,1.2-2.1,2.1-2.9,0,0,.2-.1.2-.2.6-1.8,2.5-2.3,3.7-3.5,1.6-1.6,3.1-3.3,3.7-5.6.2-.7-.3-1.6-.6-2.4-.7-2.2-2.5-3.4-4.3-4.6-2-1.4-4.2-2.7-6.3-4-1.8-1.1-3.7-2.1-5.6-3.2-2.8-1.6-5.7-3.1-8.5-4.8-2.9-1.7-5.7-3.5-8.5-5.2-1.2-.7-2.6-1.3-3.8-2.1-2.5-1.5-4.9-3.2-7.3-4.7-.4-.3-.9-.6-1.4-.8-1.2-.4-2-1.2-2.2-2.5,0-.3,0-.6,0-.9.3,0,.6.2.8.3.1,0,.2.4.2.5.2,1.2,1.3,1.5,2.2,1.9,0,0,.3,0,.4,0,0-.1-.1-.2-.2-.3-.4-.4-.9-.7-1.3-1.1-.2-.2-.3-.4-.4-.7,0-.2,0-.4,0-.6.2.1.3.3.5.4,1.5,1.1,3,2.3,4.5,3.4,1.5,1.1,3.1,2.2,4.7,3.2,1.2.7,2.4,1.4,3.6,2,1.8,1,3.7,2,5.4,3,1.9,1.1,3.8,2.3,5.7,3.4,3.3,1.9,6.7,3.7,10,5.7,3.8,2.3,7.8,4.6,11.3,7.3,1.9,1.4,3.3,3.7,3.4,6.2,0,1.1-.5,2.4-1,3.4-1.2,2.5-3.3,4.1-5.6,5.5-.8.5-1.3,1.3-2,1.9-1.4,1.4-2.9,2.8-4.4,4.1-.2.2-.5.3-.8.4,0-.3,0-.5,0-.8,0,0,0-.2,0-.3,0,0-.2,0-.3,0-.6.6-1.4,1.2-1.1,2.1.4,1.4-.5,2.2-1.3,3-.8.8-.6,1.4-.1,2,.4.6,1.1,1,1.5,1.5.2.3.4.9.3,1.3-.1.8-.6.9-1.2.4-.4-.3-1-.5-1.3-.9-.6-.8-1.6-.8-2.4-1-.2,0-.5.3-.7.5.2,0,.4,0,.5.1.2.3.8.3.4,1-.8,1.3-1.6,2.7-2.2,4.2-.6,1.3-1.1,2.6-1.7,3.9-1.3,2.8-2.7,5.5-3.9,8.4-.8,1.8-1.3,3.7-2,5.6-.1.3-.3.6-.4,1M40.5,264.8c-.3-.3-.7-.6-1-.9,0,0-.1.2-.2.2.3.2.6.4,1.2.6M42.7,265.9c-.1,0-.3-.1-.4-.2,0,.1,0,.3.2.4.2,0,.5,0,.8.1-.1-.1-.2-.2-.5-.3M31.7,259.6s0,0,0,0c0,0,0,0,0,0,.3,0,.5.1.8.2-.2-.1-.3-.2-.7-.4Z"/>
    <path d="M136.9,159.2c.3-3.3.6-6.6.9-9.8,0-1.1.2-2.2.2-3.3,0-2.1,0-4.2.2-6.3.2-3.3.5-6.6.9-9.9.3-2.9.6-5.8.9-8.7.2-2.4.3-4.7.5-7.1.1-1.4.4-2.8.4-4.1,0-3.1,0-6.2,0-9.2,0-1.9-.2-3.8-.4-5.7-.3-3.7-1-7.3-2.4-10.7-.4-.9-1-1.6-1.3-2.5-.5-1.2.2-2.8,1.2-3.4,1.3-.7,3.1.4,3.4,1.8.6,3,1.7,5.7,2.8,8.5.3.7.5,1.4.6,2.1,0,.2-.2.6-.4.8-.9.8-.8,1.8-.5,2.8,0,.1,0,.3,0,.4,0,3.6.2,7.2.2,10.7,0,1.9-.1,3.7-.2,5.6-.2,3.7-.4,7.5-.7,11.2-.3,3.7-.7,7.3-1.1,11-.3,2.6-.6,5.2-.8,7.9,0,.9,0,1.8,0,2.7-.1,2.5-.3,4.9-.4,7.4-.2,3.8-.4,7.6-.7,11.4-.1,2.1-.3,4.3-.4,6.4-.2,3.8-.4,7.6-.4,11.4,0,3.9-.1,7.7.8,11.5.3,1.2-.2,2.1-1.1,2.5-1.2.5-2.3.2-2.9-1-.4-.7-.6-1.6-.6-2.4,0-2.6,0-5.2,0-7.8,0-3,.3-5.9.4-8.9.2-3.3.4-6.6.6-9.9.1-1.8.3-3.6.4-5.4M139.3,149.8c.2-.2.6-.3.6-.5-.1-3.1,1-6.2.5-9.4,0-.3-.2-.6-.4-.9-.2.3-.5.6-.4.9.3,1.1.1,2.2,0,3.3-.2,2.1-.2,4.2-.3,6.5M142.8,109.6c0-.3.2-.5.2-.8,0-1.1-.2-2.2-.2-3.4,0-.7.2-1.5.2-2.2,0-1-.1-2.1-.2-3.1,0-.2-.2-.6-.4-.6-.6-.2-.5.3-.5.6,0,1.4.2,2.8.2,4.2,0,1.8,0,3.7,0,5.5,0,.2.2.5.2.7.1-.3.3-.5.4-1M142.3,116.3c0-.4.2-.7.2-1.1,0-.5.2-1.1.2-1.6,0-.1-.3-.3-.4-.4,0,0-.2,0-.2.2-.2.5-.4,1-.4,1.6-.1,1.9-.2,3.9-.2,5.8,0,.6,0,1.2-.1,1.8,0,.3,0,.6,0,.9.2-.2.7-.4.7-.7,0-.8,0-1.6,0-2.4,0-1.2.1-2.5.2-3.9M138.7,156.3c0,.3,0,.6,0,1,0,.4.1.7.2,1.1.2-.3.5-.7.7-1,0-.1,0-.3,0-.4,0-1.8,0-3.5,0-5.3,0-.3-.3-.5-.4-.8-.1.3-.4.6-.4.9,0,1.5,0,3,0,4.7M138.6,159.2c0,.7,0,1.4-.1,2.1,0,1.3-.2,2.6-.2,3.9,0,.3.2.6.4.9.2-.3.4-.6.5-.9,0-1.9.1-3.8.2-5.6,0-.1-.3-.3-.7-.4M140.8,127.1c0,.3,0,.7,0,1-.1.7-.3,1.3-.4,2,0,.3.2.5.3.8.2-.3.5-.5.5-.8.2-1.1.3-2.3.5-3.4,0-.7.2-1.3.2-2,0-.2-.3-.3-.5-.5-.1.2-.3.3-.3.5-.1.7-.2,1.5-.2,2.4M140.6,132.1c-.2,1.9-.4,3.8-.6,5.7,0,0,.4.2.4.2.2-.2.4-.5.5-.8.2-1.5.3-3,.4-4.5,0-.2-.3-.5-.6-.6M138.4,173.4c0-.7.2-1.5.2-2.2,0-.2-.4-.4-.6-.5,0,.2-.2.4-.2.6,0,.4.2.9.2,1.3,0,1.1-.3,2.2-.4,3.3,0,.1.2.3.2.5.1-.1.4-.2.4-.3.1-.8.2-1.6.2-2.6M142.3,95.3c0-.2,0-.4,0-.6,0-.3-.2-.5-.4-.8,0,.3-.3.5-.3.8,0,1.2.1,2.4.2,3.6,0,.2.2.3.4.4,0-.1.3-.3.3-.4,0-.9-.1-1.8-.2-2.9M138.2,182.1c0-.9,0-1.7,0-2.6,0-.1-.1-.3-.2-.3-.1,0-.4.1-.4.2,0,.9-.2,1.9-.2,2.8,0,.5.4.6.8,0M138,167.8c0,.2,0,.4,0,.6,0,.4.2.8.2,1.2.2-.4.4-.9.6-1.3,0-.1,0-.3,0-.4,0-.2,0-.4-.1-.7-.2.1-.5.2-.7.5M142.2,111.6c.2,0,.3,0,.5,0,0-.1-.2-.2-.3-.4-.1.1-.2.2-.2.4Z"/>
    <path d="M25.8,424.5c2.7,2.2,5.3,4.4,7.9,6.6,2.3,2,4.7,4,6.8,6.2,2.6,2.7,5,5.7,7.5,8.6.5.5.7,1.2,1.1,1.8.7,1.3,1.4,2.7,2.2,4,.1.2.5.2.7.3.7.3,1.6,1.5,1.4,1.9-.5,1.1-1.8,1.8-2.7,1.2-.9-.6-1.7-1.4-2.4-2.2-.7-.8-1.3-1.8-1.9-2.7-.1-.2-.3-.5-.3-.7,0-.2,0-.5,0-.7.3,0,.5.1.8.2.3,0,.5,0,.8,0-.1-.2-.2-.4-.4-.6-1.1-1.4-2.1-2.9-3.2-4.3-.9-1.1-1.7-2.3-2.7-3.3-1.2-1.3-2.5-2.5-3.8-3.8-.5-.5-.8-1.1-1.3-1.5-.6-.5-1.3-1-1.9-1.5-2.4-1.9-4.8-3.8-7.2-5.7-2.1-1.7-4.3-3.4-6.3-5.2-.8-.8-1.4-1.8-2-2.8-.9-1.6-1.9-3.2-2.5-5-.3-.9,0-2.2.3-3.2,0-.2.8-.5,1-.4.5.3,1.2.7,1.4,1.2.7,1.8,1.2,3.7,1.7,5.6.6,2.1,2,3.6,3.5,5,.4.4.9.7,1.3,1.1Z"/>
    <path d="M32,180.4c-.7-1.2-1.8-1.8-3-2.3-.8-.3-1.5-.7-2.3-1-.7-.3-1,0-.8.7,0,.2,0,.4,0,.6,0,0-.2,0-.4,0,0-.2,0-.4,0-.6-.3-.6-.5-1.2-.8-1.8-.3-.6-1.1-1.1-1-1.7,0-.9.8-1.6,1.8-1.9,2.5-.8,2.3-.2,4.1,1.7,1.5,1.6,2.9,3.2,4.3,4.9,1.7,2.2,3.2,4.4,4.7,6.7,1,1.5,1.8,3.2,2.7,4.8.2.5.3,1,.5,1.5.7,1.8,1.5,3.5,2.3,5.3.3.7.4,1.5.6,2.2.1.5.3,1,.4,1.4.4,1.3.9,2.7,1.3,4,0,.2,0,.4,0,.6-.4,1-2.3,2.2-3.7,1.5-.2-.1-.5-.4-.5-.6-.2-.9-.3-1.9-.4-2.8-.1-.9,0-1.6,1-2,.2,0,.2-.9.1-1.3-.6-2-1.3-3.9-2-5.9-.6-1.6-1.1-3.3-2-4.8-1.4-2.4-3-4.6-4.5-6.9-.6-.9-1.4-1.7-2.1-2.6Z"/>
    <path d="M169.2,348.2c-1.3,2.2-2.7,4.2-3.7,6.4-1.6,3.6-2.9,7.4-4.4,11-.9,2.4-2,4.7-2.8,7.1-.7,2.2-1.2,4.5-1.8,6.7-.3,1.3-.7,2.1-1.8,2.4-.8.3-1.9-.3-1.9-1.2,0-.7,0-1.4.3-2,.5-1.5.9-3.1,1.5-4.6,1-2.5,2-5.1,3-7.6,1.6-3.9,3-7.8,4.7-11.7,1.3-3,2.8-5.8,4.3-8.7.5-.9,1.3-1.7,2.1-2.4.8-.7,1.8-.4,2.3.4.7,1,.5,2.2-.3,2.7-.6.4-1.2.9-1.8,1.4M166.4,348.7c-1.1,2.1-2.3,4.2-3.2,6.4-1.3,3-2.5,6.1-3.7,9.2-1.2,3.1-2.4,6.2-3.5,9.3-.2.5-.3,1-.4,1.6,0,.1,0,.3,0,.4.1,0,.3,0,.4-.2.1-.2.3-.4.3-.6,1.3-3.4,2.5-6.8,3.8-10.2.7-2,1.6-4,2.3-6,1.4-4,3.6-7.6,5.5-11.3.1-.2.1-.4.2-.7-.3.1-.8.1-.9.3-.3.5-.5,1.1-.9,1.7Z"/>
    <path d="M41.7,338.2c1.2,1,.6,1.9.2,2.9-1,2.7-2,5.4-3,8-1,2.6-2,5.2-2.8,7.8-.7,2-1.1,4.2-1.7,6.2-.5,1.5-1.1,3-1.5,4.6-.6,2.4-1,4.9-1.5,7.3-.5,2-.7,4-.7,6,0,1.1-.8,1.8-1.9,2.1-.8.3-1.4,0-1.7-.7-.3-.5-.6-1.3-.5-1.8.5-2.4,1.3-4.8,1.8-7.2.7-3.6,1.8-7.2,3.1-10.6,1.2-3.2,2-6.6,3.1-9.9.5-1.7,1.3-3.3,1.9-4.9.8-1.9,1.6-3.9,2.4-5.8.1-.3.4-.4.6-.7,0,.3.2.6,0,.9-.5,1.2-1,2.5-1.5,3.7-.3.7-.5,1.5-.7,2.3-.6,1.7-1.4,3.3-2,5-.7,1.9-1.2,3.8-1.8,5.6-1,3-2.1,6.1-3,9.1-.5,1.6-.6,3.3-.9,4.9,0,.5-.2.9-.2,1.4,0,.2.2.3.3.5.2-.1.5-.2.5-.4.3-1.6.5-3.2.9-4.8.3-1.2.7-2.4,1.1-3.6.9-3,1.8-6.1,2.8-9.1.7-2.2,1.6-4.4,2.5-6.6.3-.8.5-1.5.8-2.3,1.1-2.7,2.1-5.5,3.2-8.2,0-.2,0-.5-.1-.5-1.2-.4-1.1-1-.5-1.9.2-.3.3-.7.5-1,.1-.2.4-.2.6-.4,0,.2,0,.5,0,.7,0,.4-.1.7-.2,1.2Z"/>
    <path d="M34.2,450c-2.4-1.8-4.8-3.6-7.1-5.4-1.4-1.1-3-2.2-4.1-3.6-1.3-1.6-1.8-3.6-.2-4.9.9-.7,2.6-.6,3.2.4.2.3.2.8,0,1.1-.5,1.3,0,2.3.7,3.3,1.8,2.6,4.4,4.3,6.8,6.2,2.4,1.8,4.4,3.9,6.1,6.4,1,1.5,2,3.1,3,4.6.6.9,0,1.5-.7,2.1-.6.5-1.2.7-2,.3-1.1-.7-1.1-1.7-1-2.7,0-.3,0-.7,0-1-.9-2-2.3-3.8-3.8-5.4-.4-.4-.7-.9-1.2-1.3Z"/>
    <path d="M.4,79c-.1-2.5-.5-5-.4-7.4.2-2.4.7-4.7.6-7.1,0-.2,0-.5.2-.5.7-.5.9-1.1.7-1.9,0,0,.3-.3.5-.4.6.9,1.5,1.7,1.8,2.7.6,1.6,0,3.1-.6,4.6-.9,2.6-1.2,5.3-.7,8,.1.7.1,1.4.2,2.1.1,1.3.3,2.6.4,3.9,0,.5.1,1,0,1.4-.3.5-.9,1.1-1.3,1.1-1,0-1.1-1.1-1.2-1.9-.2-1.5-.2-3-.2-4.6Z"/>
    <path d="M166.3,377.5c-.2,1.2-.2,2.4-.4,3.6,0,.6-.3,1.2-.6,1.7-.3.4-1.1.8-1.3.6-.5-.3-1.1-1-1.2-1.6-.5-1.8,0-3.6.6-5.4.2-.6.2-1.4.3-2,.2-2.7.2-5.5.8-8.1.2-1.2,1.4-2.4,2.4-3.3.6-.6,1.6,0,2.3.7.8.7.3,1.5-.1,2-1.4,1.2-1.5,2.8-1.6,4.5-.2,2.3-.6,4.7-.8,7,0,.1,0,.2,0,.4M166.3,364.6c-.7,1.1-1.2,2.2-1.2,3.5,0,1.2,0,2.5-.2,3.7-.2,1.9-.4,3.8-.6,5.7,0,.2.1.4.2.5.1,0,.3-.2.4-.3.1-.3.2-.6.3-.9.2-1.2.3-2.4.4-3.6.1-1.2.4-2.4.4-3.6,0-1.5,0-2.9.7-4.3,0-.2,0-.5-.3-.7Z"/>
    <path d="M36.1,204.5c0,.3,0,.5,0,.6-.5.5-.9,1-1.4,1.5-.2-.5-.5-1.1-.7-1.6-.2-.6-.4-1.3-.5-2,0-.5-.2-1-.1-1.6,0-.5.4-1.1.2-1.3-.8-.8-1.6-1.6-2.6-2.1-1.7-.7-3.5-1.1-5.2-1.8-1-.4-1.2-1.5-1.1-2.5.1-.8.8-1.3,1.5-1.4.6,0,1.4,0,1.8.4,1.4,1.6,3.4,2.3,5,3.5,1.6,1.2,2.9,3,4.3,4.5.5.5.2,1,0,1.5-.4.7-.8,1.3-1.1,2.1Z"/>
    <path d="M10.7,80.7c-.4.8-.6,1.6-1,2.3-.1.2-.8.5-.9.4-.4-.3-.7-.7-.8-1.1-.1-.3.1-.7.1-1.1,0-.9-.1-1.7-.2-2.6,0-2.7.1-5.4,1.8-7.7,1.2-1.5,2.2-2,3.5-.7.6.6.6,1.4,0,1.9-1.9,2.1-2.2,4.7-2.4,7.3,0,.4-.1.8-.3,1.3Z"/>
    <path d="M126.2,491.3c.6.9,0,1.6-.4,2.3-.5.8-.9,1.6-1.4,2.4-.4.7,0,.9.5,1.2.5.2.8.7,1.2,1-.5.4-1,.9-1.6,1.1-.7.3-1.5.6-2.2.4-1.6-.3-2.1-1.9-1.7-3.4.5-1.9,1.4-3.7,2.6-5.3,1.1-1.3,1.9-1.3,2.9.3M122.1,495.5c0,.3-.2.7-.3,1,.1,0,.4,0,.4,0,0-.3.2-.5.2-.8,0,0,0-.2-.3-.3Z"/>
    <path d="M136.2,496.8c.5.7.7,1.3.5,2.1-.2,1-.1,1.9.7,2.7.6.5.6,1.3-.1,2-.8.7-1.7,1.2-2.7.9-1.3-.4-2.2-1.3-2.5-2.7-.4-2,.3-3.7,1.3-5.3.7-1.2,1.5-1,2.8.3M133.8,500.2c0-.4.2-.7.2-1.1,0,0-.3-.1-.4-.2,0,.3,0,.7,0,1,0,0,0,.2.3.3Z"/>
    <path d="M18.5,338.7v-2.3c0-1.1.9-2.2,1.8-2.2,1,0,2.1,1.5,1.9,2.5-.3,1.3,0,2.3.6,3.4,0,.1.2.3.2.4.4.7.7,1.4-.2,2.1-.9.7-1.6.5-2.3,0-1.1-.9-1.9-2.2-2-3.8M21.1,339c-.2,0-.5,0-.7-.1,0,.4.1.8.3,1.1,0,.1.3.2.5.3,0-.2.2-.4.2-.6,0-.2,0-.4-.2-.7Z"/>
    <path d="M11.6,330c-.5,1.6-1,3.1-1.5,4.6-.2.7-.4.8-1.1.3-.9-.7-1-1.5-1.1-2.5,0-.9-.2-1.7.4-2.6.8-1.3,2.6-1.4,3.2.2Z"/>
    <path d="M8.4,336.4c.3-.2.5-.4.7-.4.2,0,.5.2.7.3,0,0,0,.4,0,.6,0,.1-.1.2-.2.3-.3.5-.4,1.4-1.2,1-.2-.1,0-1.2,0-1.9Z"/>
    <path d="M203.4,328.4c-.3.6-.5,1.2-.8,1.7,0-.5,0-1.1.1-1.6,0-.1,0-.2,0-.3.1-.4.3-.7.5-1.1,0,.4.1.8.2,1.3Z"/>
    <path d="M150.4,306c-.1.5-.2.9-.3,1.4,0,.1-.2.2-.4.3,0-.1-.3-.3-.2-.4.2-.6.4-1.1.7-1.6,0-.1.3-.1.5-.2,0,.2-.2.4-.3.6Z"/>
    <path d="M147.1,316.5c0,.3,0,.6,0,.7,0,.2-.3.2-.5.3,0-.2-.1-.3-.1-.5,0-.3.1-.7.2-1,0-.2.2-.5.3-.7,0,.3,0,.6.1,1.1Z"/>
    <path d="M46.1,325.1c-.2.6-.4,1.2-.7,1.8,0,0-.3,0-.3,0,0-.7,0-1.5.9-1.7Z"/>
    <path d="M85,383c.6,0,1.2.8,1,1.2,0,0-.5.1-.5,0-.2-.4-.4-.8-.5-1.3Z"/>
    <path d="M145.6,319.8c0-.2.1-.3.1-.4,0-.2,0-.3,0-.5.2.1.5.2.5.3,0,.4,0,.8,0,1.2,0,.2-.3.3-.5.5,0-.2-.1-.4-.2-.5,0-.1,0-.3,0-.5Z"/>
    <path d="M145.4,322.8c0,.2,0,.4-.2.5-.1.2-.2.4-.4.6,0-.3-.1-.5-.1-.8,0-.3.1-.5.2-.8.1-.3.3-.5.4-.7,0,.3,0,.5,0,.8,0,.1,0,.2,0,.4Z"/>
    <path d="M148.5,311.5c0-.5,0-.9.1-1.3,0-.1.3-.2.4-.4,0,.2.2.4.2.6-.2.4-.4.7-.7,1.1Z"/>
    <path d="M148.3,312.1c0,0,0,.1,0,.2,0,.4-.2.7-.3,1.1-.1,0-.2,0-.3-.1.2-.4.4-.8.6-1.1Z"/>
    <path d="M202.4.6c-.2,0-.4.1-.6.2C201.9.5,201.9.3,202,0c.2.2.3.4.5.6Z"/>
    <path d="M35.5,186.3c0,.2.1.5,0,.8,0,0-.2.2-.3.2,0-.3,0-.6.2-1Z"/>
    <path d="M204,322.4c.1,0,.3.3.3.4,0,.2-.3.3-.4.4,0-.2,0-.5.1-.8Z"/>
    <path d="M149.4,308.2c0,.2,0,.3.1.4-.2,0-.4,0-.5-.2,0-.1,0-.3,0-.5.1,0,.3.1.5.3Z"/>
    <path d="M8.8,342.5c-.2,0-.4.1-.6.2,0-.2,0-.3,0-.5.2,0,.4.2.5.3Z"/>
    <path d="M2.6,58.9c-.1-.2-.1-.4-.1-.6.1,0,.3.1.4.2,0,.1-.1.3-.3.4Z"/>
    <path d="M153.1,298.3c-.2-.1-.3-.3-.4-.4.1,0,.2,0,.3-.1,0,.2,0,.4,0,.6Z"/>
    <path d="M46.9,322.8c0,.1.1.3,0,.5,0,0-.1,0-.2,0,0-.2,0-.4.1-.6Z"/>
    <path d="M3.1,55.8c0-.2,0-.4,0-.6,0,0,.2,0,.3,0,0,.2-.2.4-.4.5Z"/>
    <path d="M118.9,260.7c-.1-.2-.2-.5-.3-.8,0,0,.2,0,.3-.1,0,.3,0,.6,0,.9Z"/>
    <path d="M118.7,257.4c.2.2.3.4.5.6,0,0-.2.2-.4.2,0-.3-.1-.5,0-.9Z"/>
  </g>
</svg>