<?xml version="1.0" encoding="UTF-8"?>
<svg id="Layer_1" data-name="Layer 1" xmlns="http://www.w3.org/2000/svg" viewBox="0 0 415.74 265">
  <g id="YJlSTQ">
    <g>
      <path d="M149.24,56.1c-1.37,1.28-8.28,12.3-7.49,12.99l9.91-1.08-2.42-11.91ZM149.24,56.1c-1.37,1.28-8.28,12.3-7.49,12.99l9.91-1.08-2.42-11.91ZM149.24,56.1c-1.37,1.28-8.28,12.3-7.49,12.99l9.91-1.08-2.42-11.91ZM149.24,56.1c-1.37,1.28-8.28,12.3-7.49,12.99l9.91-1.08-2.42-11.91ZM149.24,56.1c-1.37,1.28-8.28,12.3-7.49,12.99l9.91-1.08-2.42-11.91ZM149.24,56.1c-1.37,1.28-8.28,12.3-7.49,12.99l9.91-1.08-2.42-11.91ZM149.24,56.1c-1.37,1.28-8.28,12.3-7.49,12.99l9.91-1.08-2.42-11.91ZM149.24,56.1c-1.37,1.28-8.28,12.3-7.49,12.99l9.91-1.08-2.42-11.91ZM149.24,56.1c-1.37,1.28-8.28,12.3-7.49,12.99l9.91-1.08-2.42-11.91ZM149.24,56.1c-1.37,1.28-8.28,12.3-7.49,12.99l9.91-1.08-2.42-11.91ZM415.24,19.07c-3.34-.7-2.1-3.41-3.42-5.53-1.96-3.17-5.12-5.63-6.15-9.4l-2.93.95,1.01-2.98C397.38.29,390.78.05,384.24,0c-3.52-.03-13.67.11-14.92,2-38.83-1.56-79.13,1.56-119.04,3.14-6.15.24-12.39-.27-18.53-.03l7.71,6.84c4.57.09,7.66-2.35,12.52-1.64,8.59,1.26,16.77,11.74,26.25,7.29l5.5,3.49c-25.49,1.58-50.94,2.8-76.48,4.02-49.99,2.38-100.11,3.84-150.08,5-18.78.43-37.67-.66-56.43.99,1.11,9.49,3.16,18.98,3.99,28.51,3.16,36.52-7.8,67.74-3.86,103.86l4.86,28.61-2.98,1.01c2.78-.3,3.23.13,3.73,2.73,1.72,8.99,6.33,66.59,9.36,69.18l55.39-.91c25.12-4.18,53.12-3.68,77.96-8.04,3.3-.58,6.63-3.75,10.13-3.88,3.94-.16,11.07,2.27,14.83,1.92,9.14-.85,27.34-9.93,37.55-12.53,3.39-.87,25.08-4.11,25.99-5.53l.06-2.93c-5.16,1.32-9.85-3-14.73-2.71-2.42.15-6.66,3.48-8.83,3.68-2.6.24-7.91-1.13-11.94-.95-7.05.31-15.3,2.58-22.84,3.36-5.1.53-12.38,3.58-16.18-.38-1.03,1.37.2,2.56-2.49,1.99l-.5-1.99c-2.7,4.78-4.8,8.53-5.5-.01-2.8.52-6.65.95-9.33-.2-1.72-.73-1.03-2.83-3.13-2.88-5.07-.13-13.61,4.81-17.53,8.09-.86-12.01-7.58-5.93-15-8.51-2.95-1.02-4.9-3.65-6.73-4.27-4.5-1.51-9.68-2.98-14.26-4.75-8.89-3.42-15.38-8-23.13-11.86-3.09-1.55-8.54-1.91-10.88-3.12-1.47-.76-1.95-3.21-3.63-4.37-2.63-1.83-9.97-3.55-12.36-5.64-1.46-1.26-1.72-4.05-2.17-4.32-.96-.6-4.47.08-6.63-.82-1.34-.55-6.39-6.29-7.9-7.16-3.77-2.16-9.66-.23-13.39-5.63-3.03-4.39,4.65-4.83,7-6.12,2.38-1.31,4.06-5.08,7.01-5.99,7.16-2.2,23.49-1.57,29.61-3.85,1.19-.44,1.13-2.03,2.21-2.58,2.42-1.22,15.76-3.34,16.25-4.02-2.52-14.56-.02-33.67,8.19-46.29,5.9-9.07,5.69-3.79,13.36-4.59,1.9-.2,1.42-2.14,1.89-2.09,8.28,1.03,13.08,9.47,10.38,17.32-.48,1.41-8.8,7.39-10.83,8.16,8.94,5.04,15.23,11.59,20.99,20.03,12.83.75,25.37-1.84,38.01-3.54-3.81-4.79-5.47-7.48-5.43-14.06-.94-1.38-12.95-1.44-14.58-.44-2.23,1.35-3.63,10.02-6.98,11.51-1.66-2.99,1.8-9.48,1.72-10.51-.09-1.43-3.85-2.32-2.26-4.52,3.5-4.87,20.14,2.09,21.46-2.59.38-6.35-3.84-16.42-3.78-21.9.02-1.34,3.7-13.18,4.36-13.47,2.17-.97,3.05.8,3.27,2.75.47,4.34-2.41,9.17-1.85,13.7l3.11,1.18,2.39,18.43c2.34,3.38,22-2.99,18.93,4.91l-18.36,1.02,3,14h16c-1.87-5.63.38-6.16,4.47-9.03,13.46-9.41,30.66-13.7,44.53-22.47-12.12-1.34-24.43.16-36.49,1.51-1.41-.7-.39-1.75.56-2.44,4.01-2.89,15.11-1.14,20.43-1.56,5.03-.39,12.8-2.79,17.94-1.96,3.3.53,5.75,2.53,4.04,5.93-1.76,3.5-21.69,10.2-26.34,12.66l-18.14,10.35,57.42-5.91,3.52.99.06,4.92c-18.3-.47-35.85.1-53.55,5-1.59.45-2.96-1.08-2.44,2,5.95.59,12.63.44,18.48,1.02,8.37.83,17.57,2.75,25.97,3.03,7.47.25,11.47-1.12,18.08-.08,5.51.87,9.78-3.17,13.43-.38.9.69.93,2.25,1.1,2.37.93.67,2.67-1.6,4.2-1.69,2.4-.15,6.53,1.71,9.22,1.76l-.35-7.36c.88-2.67,3.84-1.4,5.71-.51l-.52,6.41c.63,3.88,8.94.44,11.06.71,2.55.33,4.39,1.31,8.96,1.79,6.68.7,13.35,1.29,20,2.02l3.14-3.08c2.17,2.15,3.83,4.44,7.06,4.95,7.8,1.22,17.04,1.39,24.82.11,2.76,5.05,1.49,5.74,8.2,6.87l1.31,10.18c-.35-3.64.98-7.1,1.16-10.57,1.59-30.58-9.76-56.99-11.08-87-.41-9.25.26-18.64.18-27.9l.79-1.2c3.65-2.55,17.23,4.46,24.46-1.55,2.18-1.81,2.68-6.4,6.39-8.89,4.06-2.73,7.6-2.15,10.77-3.95,4.47-2.55,8.44-11.04,13.45-13.56l-.5-1.52ZM48.02,54.88c-3.52,12.8-6.23,25.85-5.28,39.22-1.96.07-4.04.44-4.83-1.67l-12.17-40.8,4.91-1.43,9.08,32.9c1.54-11.66,3.07-27.03,7.71-37.8.51-1.18.84-3.6,2.79-3.19,3.56.74-1.6,10.54-2.21,12.77ZM59.78,74.63c-.14,2.37-.92,4.56-1.08,6.93-.13,1.94,1.86,10.21-1.45,9.53-2.11-.43-.92-2.71-.85-3.78.36-5.45,1.93-10.77,2.35-16.2,1.67-.27,1.09,2.43,1.03,3.52ZM61.56,67.42l-2.82,1.67c-.42-1.15,1-2.23,1-2.49v-16l1.64-1.36,3.38.37-3.2,17.81ZM103.31,74.17l-8.58,1.94c5.46,11.2-14.46,16.25-21.52,11.02-9.44-7.02,1.93-34.57,12.27-37.78,3.35-1.04,11.83-2.34,12.25,2.74-6.1-.54-12.92.46-17.39,5.11-4.57,4.74-13.03,25.94-3.08,27.88,10.9,2.12,21.58-4.45,7.57-11.57-.08-6.33,5.22-1.69,8.37-1.58,1.86.06,10.08-2.32,10.53-1.83l-.42,4.07ZM128.76,49.58c-.27,2.25-3.48,4.05-4.86,6.18-3.25,5.02-5.5,11.6-10.15,15.34-.34-3.72,0-6.99,2.97-9.5-4.3-3.06-11.59-10.79-2.01-10.48-.74,2.02,3.44,7.17,5.02,5.98-.32-3.7,10.07-16.48,9.03-7.52ZM164.26,39.12c-2.86,5.39,1.04,11.23-9.59,12.58.92,4.1.35,13.36,2.63,16.38.98,1.28,3.25.34,2.44,3.01l-3.56.93c-1.3,1.84-.06,8.08.82,10.32.76,1.93,3.03,2.5,2.73,4.75l-3.01.58c-4.97-12.72.34-20.79-18-14.09-.68.51-.85,1.22-.99,2.01-.62,3.67,1.96,9.22-3.98,8.51l.99-10h-2.26s-.73-2.49-.73-2.49c.93-2.02,4.04-1.06,4.81-1.69.54-.44,4.38-10.3,5.81-12.69,3.3-5.49,8-13.91,13.44-16.39,3.94-1.79,1.29-1.44,3.48-4.69,2.34-3.46,5.86-2.54,9.44-3.05,1.1,3.91-3.3,3.8-4.47,6.02ZM238.37,66.23c-2.53.8-2.81,7.58-2.64,9.87-5.5.07-.38-7.82-2-11-3.7,1.44-6.68-1.03-9.98-2l-2.02,15.99c-1.26,1.66-1.81-.09-1.99-1.47-.55-4.19.33-8.42,1-12.51-1.55.08-2.97-.76-4.49-.82-5.09-.17-10.54-.47-15.93-1.27-3.12-.46-5.49-2.35-9.1-2.01-4.98.46-7.36,7.08-12.47,7.08-.29-.28,1.99-7.42,2.22-7.76.65-.94,4.47-.95,4.77-3.22l-13.56-.95-.44-3.05c5.82,1.68,6.5-3.23,11.57-3.95,5.46-.77,20.57,2.61,12.93-7.03-1.03,1.17-2.88,2.85-4.56,1.53-2.78-4.2-.09-9.66-3.46-13.55-1.63-1.89-4.41.08-4.47-2l26.99-1-1.16,3.83c-3.85.28-7.72,1.35-11.33,2.56-1.05.34-2.69-.28-2.5,2.09l12.8,1.14c3.97.8,3.7,5.57,8.19,5.38-2.18,3.32-11.17-.18-11.99,5.98l10.33.93,5.17,7.07c3.24,1.29.46-5.74.47-6.41.01-.68,1.83-.53,2.35-1.78.9-2.2-.01-5.11,2.17-6.78,2.94,2.14.51,5.52.43,8.47-.24,7.92,4.29,6.07,10.1,6.04,1.24-1.09,2.16-5.38,2.08-7.07-.09-1.75-1.67-1.21-2.04-2.21-.33-.89.05-2.34-.32-3.47-.47-1.47-2.15-1.98-1.75-3.78,3.84.9,2.63-3.55,6.5-4.98,5.07,5.17-2.12,18.08,1.96,22.07,10.13,1.43,20.74-.07,30.93,1.02,1,.1,9.8,1.69,7.61,3.88l-42.37,5.14ZM265.12,129.77c-.26,3.4,3.1,11.87-4.75,9.21-4.26-1.44.72-20.48,2.91-23.84,1.12-1.72,3.73-2.05,4.29-3.7,1.27-3.69-1.66-9.77,5.17-8.33-2.58,8.58-6.94,17.68-7.62,26.66ZM284.58,119.44c-1.35,5.07-1.43,10.43-2.77,15.23l-3.47.34c-3.07-1.02-.9-10.62-.32-13.13,1.67-7.33,5.66-15.4,7.77-22.73,9.75-.2.2,14.97-1.21,20.29ZM291.76,124.61c.53-7.79,3.71-16.32,6.47-23.56l4.43.15c-.83,11.16-6.79,20.7-4.86,32.28l-4.48,1.5c-2.38-.54-1.71-8.26-1.56-10.37ZM302.74,150.1l-6.04-.45c-3.2-4.01-.9-7.78,4.05-6.08,2.32,1.48,2.14,4.04,1.99,6.53ZM141.75,69.09l9.91-1.08-2.42-11.91c-1.37,1.28-8.28,12.3-7.49,12.99ZM149.24,56.1c-1.37,1.28-8.28,12.3-7.49,12.99l9.91-1.08-2.42-11.91ZM149.24,56.1c-1.37,1.28-8.28,12.3-7.49,12.99l9.91-1.08-2.42-11.91ZM149.24,56.1c-1.37,1.28-8.28,12.3-7.49,12.99l9.91-1.08-2.42-11.91ZM149.24,56.1c-1.37,1.28-8.28,12.3-7.49,12.99l9.91-1.08-2.42-11.91ZM149.24,56.1c-1.37,1.28-8.28,12.3-7.49,12.99l9.91-1.08-2.42-11.91ZM149.24,56.1c-1.37,1.28-8.28,12.3-7.49,12.99l9.91-1.08-2.42-11.91ZM149.24,56.1c-1.37,1.28-8.28,12.3-7.49,12.99l9.91-1.08-2.42-11.91ZM149.24,56.1c-1.37,1.28-8.28,12.3-7.49,12.99l9.91-1.08-2.42-11.91ZM149.24,56.1c-1.37,1.28-8.28,12.3-7.49,12.99l9.91-1.08-2.42-11.91ZM149.24,56.1c-1.37,1.28-8.28,12.3-7.49,12.99l9.91-1.08-2.42-11.91ZM91.53,111.32c-1.79.17-6.14,1.37-7.24,2.83-.83,1.09-5.29,12.37-5.37,13.66-.25,3.71,3.65.91,5.77.73,2.14-.18,3.23.66,5.74-.17,8.98-2.94,13.47-18.25,1.1-17.05ZM98.78,143.56c-5.22-5.37-12.94-8.06-20.38-7.5-2.29.55-1.72,11.29-1.66,13.53.05,1.63,1.23,3.68,1.08,4.86-.16,1.2-3.88,1.03-3.07,3.64,2.68.26,5.23-1.5,7.73-1.76,1.82-.19,3.45.89,5.5.6,1.78-.25,10.64-1.97,11.87-2.42,6.51-2.38,2.46-7.33-1.07-10.95ZM249.73,228.11l1.02,2.98c-3.07.25-7.94,1.09-8,5.01.53.5,13.1-3.96,13.97-4.54,1.42-.94,1.62-2.76,2.29-3.19,1.37-.88,5.04-.07,5.73-3.26-5.18,2.13-9.68.39-15.01,3Z"/>
      <path d="M415.24,19.07c-3.34-.7-2.1-3.41-3.42-5.53-1.96-3.17-5.12-5.63-6.15-9.4l-2.93.95,1.01-2.98C397.38.29,390.78.05,384.24,0c-3.52-.03-13.67.11-14.92,2-38.83-1.56-79.13,1.56-119.04,3.14-6.15.24-12.39-.27-18.53-.03l7.71,6.84c4.57.09,7.66-2.35,12.52-1.64,8.59,1.26,16.77,11.74,26.25,7.29l5.5,3.49c-25.49,1.58-50.94,2.8-76.48,4.02-49.99,2.38-100.11,3.84-150.08,5-18.78.43-37.67-.66-56.43.99,1.11,9.49,3.16,18.98,3.99,28.51,3.16,36.52-7.8,67.74-3.86,103.86l4.86,28.61-2.98,1.01c2.78-.3,3.23.13,3.73,2.73,1.72,8.99,6.33,66.59,9.36,69.18l55.39-.91c25.12-4.18,53.12-3.68,77.96-8.04,3.3-.58,6.63-3.75,10.13-3.88,3.94-.16,11.07,2.27,14.83,1.92,9.14-.85,27.34-9.93,37.55-12.53,3.39-.87,25.08-4.11,25.99-5.53l.06-2.93c-5.16,1.32-9.85-3-14.73-2.71-2.42.15-6.66,3.48-8.83,3.68-2.6.24-7.91-1.13-11.94-.95-7.05.31-15.3,2.58-22.84,3.36-5.1.53-12.38,3.58-16.18-.38-1.03,1.37.2,2.56-2.49,1.99l-.5-1.99c-2.7,4.78-4.8,8.53-5.5-.01-2.8.52-6.65.95-9.33-.2-1.72-.73-1.03-2.83-3.13-2.88-5.07-.13-13.61,4.81-17.53,8.09-.86-12.01-7.58-5.93-15-8.51-2.95-1.02-4.9-3.65-6.73-4.27-4.5-1.51-9.68-2.98-14.26-4.75-8.89-3.42-15.38-8-23.13-11.86-3.09-1.55-8.54-1.91-10.88-3.12-1.47-.76-1.95-3.21-3.63-4.37-2.63-1.83-9.97-3.55-12.36-5.64-1.46-1.26-1.72-4.05-2.17-4.32-.96-.6-4.47.08-6.63-.82-1.34-.55-6.39-6.29-7.9-7.16-3.77-2.16-9.66-.23-13.39-5.63-3.03-4.39,4.65-4.83,7-6.12,2.38-1.31,4.06-5.08,7.01-5.99,7.16-2.2,23.49-1.57,29.61-3.85,1.19-.44,1.13-2.03,2.21-2.58,2.42-1.22,15.76-3.34,16.25-4.02-2.52-14.56-.02-33.67,8.19-46.29,5.9-9.07,5.69-3.79,13.36-4.59,1.9-.2,1.42-2.14,1.89-2.09,8.28,1.03,13.08,9.47,10.38,17.32-.48,1.41-8.8,7.39-10.83,8.16,8.94,5.04,15.23,11.59,20.99,20.03,12.83.75,25.37-1.84,38.01-3.54-3.81-4.79-5.47-7.48-5.43-14.06-.94-1.38-12.95-1.44-14.58-.44-2.23,1.35-3.63,10.02-6.98,11.51-1.66-2.99,1.8-9.48,1.72-10.51-.09-1.43-3.85-2.32-2.26-4.52,3.5-4.87,20.14,2.09,21.46-2.59.38-6.35-3.84-16.42-3.78-21.9.02-1.34,3.7-13.18,4.36-13.47,2.17-.97,3.05.8,3.27,2.75.47,4.34-2.41,9.17-1.85,13.7l3.11,1.18,2.39,18.43c2.34,3.38,22-2.99,18.93,4.91l-18.36,1.02,3,14h16c-1.87-5.63.38-6.16,4.47-9.03,13.46-9.41,30.66-13.7,44.53-22.47-12.12-1.34-24.43.16-36.49,1.51-1.41-.7-.39-1.75.56-2.44,4.01-2.89,15.11-1.14,20.43-1.56,5.03-.39,12.8-2.79,17.94-1.96,3.3.53,5.75,2.53,4.04,5.93-1.76,3.5-21.69,10.2-26.34,12.66l-18.14,10.35,57.42-5.91,3.52.99.06,4.92c-18.3-.47-35.85.1-53.55,5-1.59.45-2.96-1.08-2.44,2,5.95.59,12.63.44,18.48,1.02,8.37.83,17.57,2.75,25.97,3.03,7.47.25,11.47-1.12,18.08-.08,5.51.87,9.78-3.17,13.43-.38.9.69.93,2.25,1.1,2.37.93.67,2.67-1.6,4.2-1.69,2.4-.15,6.53,1.71,9.22,1.76l-.35-7.36c.88-2.67,3.84-1.4,5.71-.51l-.52,6.41c.63,3.88,8.94.44,11.06.71,2.55.33,4.39,1.31,8.96,1.79,6.68.7,13.35,1.29,20,2.02l3.14-3.08c2.17,2.15,3.83,4.44,7.06,4.95,7.8,1.22,17.04,1.39,24.82.11,2.76,5.05,1.49,5.74,8.2,6.87l1.31,10.18c-.35-3.64.98-7.1,1.16-10.57,1.59-30.58-9.76-56.99-11.08-87-.41-9.25.26-18.64.18-27.9l.79-1.2c3.65-2.55,17.23,4.46,24.46-1.55,2.18-1.81,2.68-6.4,6.39-8.89,4.06-2.73,7.6-2.15,10.77-3.95,4.47-2.55,8.44-11.04,13.45-13.56l-.5-1.52ZM48.02,54.88c-3.52,12.8-6.23,25.85-5.28,39.22-1.96.07-4.04.44-4.83-1.67l-12.17-40.8,4.91-1.43,9.08,32.9c1.54-11.66,3.07-27.03,7.71-37.8.51-1.18.84-3.6,2.79-3.19,3.56.74-1.6,10.54-2.21,12.77ZM59.78,74.63c-.14,2.37-.92,4.56-1.08,6.93-.13,1.94,1.86,10.21-1.45,9.53-2.11-.43-.92-2.71-.85-3.78.36-5.45,1.93-10.77,2.35-16.2,1.67-.27,1.09,2.43,1.03,3.52ZM61.56,67.42l-2.82,1.67c-.42-1.15,1-2.23,1-2.49v-16l1.64-1.36,3.38.37-3.2,17.81ZM103.31,74.17l-8.58,1.94c5.46,11.2-14.46,16.25-21.52,11.02-9.44-7.02,1.93-34.57,12.27-37.78,3.35-1.04,11.83-2.34,12.25,2.74-6.1-.54-12.92.46-17.39,5.11-4.57,4.74-13.03,25.94-3.08,27.88,10.9,2.12,21.58-4.45,7.57-11.57-.08-6.33,5.22-1.69,8.37-1.58,1.86.06,10.08-2.32,10.53-1.83l-.42,4.07ZM128.76,49.58c-.27,2.25-3.48,4.05-4.86,6.18-3.25,5.02-5.5,11.6-10.15,15.34-.34-3.72,0-6.99,2.97-9.5-4.3-3.06-11.59-10.79-2.01-10.48-.74,2.02,3.44,7.17,5.02,5.98-.32-3.7,10.07-16.48,9.03-7.52ZM164.26,39.12c-2.86,5.39,1.04,11.23-9.59,12.58.92,4.1.35,13.36,2.63,16.38.98,1.28,3.25.34,2.44,3.01l-3.56.93c-1.3,1.84-.06,8.08.82,10.32.76,1.93,3.03,2.5,2.73,4.75l-3.01.58c-4.97-12.72.34-20.79-18-14.09-.68.51-.85,1.22-.99,2.01-.62,3.67,1.96,9.22-3.98,8.51l.99-10h-2.26s-.73-2.49-.73-2.49c.93-2.02,4.04-1.06,4.81-1.69.54-.44,4.38-10.3,5.81-12.69,3.3-5.49,8-13.91,13.44-16.39,3.94-1.79,1.29-1.44,3.48-4.69,2.34-3.46,5.86-2.54,9.44-3.05,1.1,3.91-3.3,3.8-4.47,6.02ZM238.37,66.23c-2.53.8-2.81,7.58-2.64,9.87-5.5.07-.38-7.82-2-11-3.7,1.44-6.68-1.03-9.98-2l-2.02,15.99c-1.26,1.66-1.81-.09-1.99-1.47-.55-4.19.33-8.42,1-12.51-1.55.08-2.97-.76-4.49-.82-5.09-.17-10.54-.47-15.93-1.27-3.12-.46-5.49-2.35-9.1-2.01-4.98.46-7.36,7.08-12.47,7.08-.29-.28,1.99-7.42,2.22-7.76.65-.94,4.47-.95,4.77-3.22l-13.56-.95-.44-3.05c5.82,1.68,6.5-3.23,11.57-3.95,5.46-.77,20.57,2.61,12.93-7.03-1.03,1.17-2.88,2.85-4.56,1.53-2.78-4.2-.09-9.66-3.46-13.55-1.63-1.89-4.41.08-4.47-2l26.99-1-1.16,3.83c-3.85.28-7.72,1.35-11.33,2.56-1.05.34-2.69-.28-2.5,2.09l12.8,1.14c3.97.8,3.7,5.57,8.19,5.38-2.18,3.32-11.17-.18-11.99,5.98l10.33.93,5.17,7.07c3.24,1.29.46-5.74.47-6.41.01-.68,1.83-.53,2.35-1.78.9-2.2-.01-5.11,2.17-6.78,2.94,2.14.51,5.52.43,8.47-.24,7.92,4.29,6.07,10.1,6.04,1.24-1.09,2.16-5.38,2.08-7.07-.09-1.75-1.67-1.21-2.04-2.21-.33-.89.05-2.34-.32-3.47-.47-1.47-2.15-1.98-1.75-3.78,3.84.9,2.63-3.55,6.5-4.98,5.07,5.17-2.12,18.08,1.96,22.07,10.13,1.43,20.74-.07,30.93,1.02,1,.1,9.8,1.69,7.61,3.88l-42.37,5.14ZM265.12,129.77c-.26,3.4,3.1,11.87-4.75,9.21-4.26-1.44.72-20.48,2.91-23.84,1.12-1.72,3.73-2.05,4.29-3.7,1.27-3.69-1.66-9.77,5.17-8.33-2.58,8.58-6.94,17.68-7.62,26.66ZM284.58,119.44c-1.35,5.07-1.43,10.43-2.77,15.23l-3.47.34c-3.07-1.02-.9-10.62-.32-13.13,1.67-7.33,5.66-15.4,7.77-22.73,9.75-.2.2,14.97-1.21,20.29ZM291.76,124.61c.53-7.79,3.71-16.32,6.47-23.56l4.43.15c-.83,11.16-6.79,20.7-4.86,32.28l-4.48,1.5c-2.38-.54-1.71-8.26-1.56-10.37ZM302.74,150.1l-6.04-.45c-3.2-4.01-.9-7.78,4.05-6.08,2.32,1.48,2.14,4.04,1.99,6.53Z"/>
      <path d="M74.74,158.1c-.81-2.62,2.92-2.45,3.07-3.65s-1.03-3.23-1.08-4.86c-.06-2.24-.63-12.98,1.66-13.53,7.44-.56,15.16,2.13,20.38,7.5,3.53,3.62,7.58,8.57,1.07,10.95-1.23.45-10.09,2.17-11.87,2.42-2.05.29-3.68-.79-5.5-.6-2.5.26-5.05,2.02-7.74,1.76Z"/>
      <path d="M91.53,111.32c12.37-1.19,7.88,14.11-1.1,17.06-2.52.83-3.61-.01-5.74.17s-6.02,2.98-5.77-.73c.08-1.29,4.54-12.57,5.37-13.66,1.1-1.46,5.45-2.66,7.24-2.83Z"/>
      <path d="M264.74,225.11c-.68,3.19-4.36,2.38-5.73,3.26-.67.43-.87,2.25-2.29,3.2-.87.58-13.44,5.04-13.97,4.53.06-3.92,4.93-4.76,8-5l-1.02-2.98c5.33-2.6,9.84-.87,15.01-3Z"/>
      <path d="M151.66,68.01l-9.91,1.08c-.79-.69,6.12-11.71,7.49-12.99l2.42,11.91Z"/>
    </g>
  </g>
</svg>