<?xml version="1.0" encoding="UTF-8"?>
<svg id="Layer_1" data-name="Layer 1" xmlns="http://www.w3.org/2000/svg" viewBox="0 0 628 408">
  <g id="tDw5sI">
    <g>
      <path d="M181.5,1l5-1c1.14.35,3.64,2.9,4,3M174.5,0,261.5,0c3.86.83,13.33,0,18,0M70,0h-3v1h3V0ZM271,1l-7,1.5,7,1.5V1ZM198,2l-2,.5v2.5c-7.55-.7-5.26,1.51-6,6.5-.06.38-.96.64-1,1-.36,3.5.26,7.43,0,11l-4,3c1.02,3.32-1.56,7.59-1,10,1.06,4.55,1.01,9.41,2,14,.08.38,1.88,2.56,2,3,.39,1.4.3,3.04,1,5,.35.98,1.23.45,2,.5.4,1.95-2.59.59-3,1v4l2-1c-.76,1.82.87,2.96,1,3.5.85,3.47-.08,5.28,1,9,2.16,7.44,1.18,25.37,0,32-.28,1.59-.32,8.52,0,10,.07.34,1.93,2.66,2,3,1.33,6.14-.46,17.46,1,24,.63,2.83.14,4.33,1,8s-1.73,4.03-2,5c-1.03,3.75-.73,7.8,0,11,.37,1.61-2.27,14.27-4,16l1,3c-4.9,4.89-1,11.07-2,18-.05.32-1.78,1.75-1,3.5l5-1-1-5.5c3.97-4.01.67-9.19,2-14,.15-.55,1.85-1.45,2-2,.74-2.67-.55-7.91,0-11,.06-.35,1.94-3.65,2-4,.57-3.21-.63-7.91,0-11,.63-3.07,3.72.83,4,.5.8-3.88-1.09-2.34-3-4.5-.56-1.39,1.78-2.22,2-3,.71-2.48,1.87-3.54,2-4,.41-1.5-.27-4.2,0-6,.04-.29,1.76-1.69,1-3.5h4l-2-7c1.76.06,3.47-.78,3,1.5l3,2.5c-.19-1.4.28-3.23,0-4.5-.09-.38-.89-.6-1-1-.36-1.32.91-1.6,1-2,1.02-4.57.23-29.95-1-34-.61-2,1.87-2.13,1-7-.87-4.86-.11-11.65-1-17-1.06-6.36,0-14.21-1-21-.86-5.85.63-13.43,0-19.5l4,4,1-10c-1.39-1.66-1.82.16-2,1.5-.23,1.75-.74,2.86-1,4.5l-2-1.5c0-.33.94-.62,1-1,.53-3.21-1.26-10.84-2-14-.52-2.24.26-3.68,2-5-1.78-2.52-5.11-1.23-8-1.5v-3c-2.58.24-5.17.24-5-3ZM189.26,4.98c0-.68-.55-1.24-1.24-1.24s-1.24.55-1.24,1.24.55,1.24,1.24,1.24,1.24-.55,1.24-1.24ZM171,8l-1.5-3c-1.42,1.18-2.35,3.34-4.5,3,.12,2.5,1.71,4.44,3.5,6l2-1c2.47,3.47,6.23,1.83,9.5,1v-5c-1.89.74-2.64-1.76-3.5-2-2.25-.62-3.6,1-5.5,1ZM178,185c-.08-.82.18-1.84,0-2.5-.26-.94-2.46-2.83-2-4.5l-3-2,6,1c1.26-3.11-1.73-4.57-2-5.5-.18-.62.18-1.38,0-2-.15-.52-4.04-4.19-4.5-5.5h-2.5c.12-1.24-1.49-4.72-2.5-5-1.08-.3-2.83.26-4,0-.38-.09-.6-.89-1-1-1.15-.32-11.28,2.93-14-1h-1c-4.59,3.46-10.94,1.68-16,1-1.72-.23-3.72.16-5.5,0-.19.19.26,1.03,0,1.5-.49.87-2.74,2.81-3,4-.28,1.29.18,3.09,0,4.5-2.77-.68-1.62-2.86-2-4.5-.09-.39-.92-.62-1-1-.25-1.19.29-2.93,0-4-.63-2.3-7.3-2.23-8.5.5-.88-1.2-2.81-2.34-3.5-3.5-.6-.99,1.01-2.06-3-1.5l-.5,7c-1.88-1.03-1.15-2.34-1.5-3.5-.26-.88-2.89-2.98-4-2.5.27-3.73-1.06-6.85-2-10.5-.55-2.13-2.66-6.47-3-8-.41-1.89.92-4.03-1.5-5.5-2.71-.47-1.27,3.84-1.5,5.5-.05.37-.93.62-1,1-.91,4.99,3.08,9.26,1,16-.78,2.52-.33,4.93-1,8-.09.39-.94.63-1,1-.26,1.68.18,3.74,0,5.5l-2-1.5c-.44-1.6.85-3.88-1-5l2-3-1-3,1-3-2-2,1-1-1-3,1-2-2-2,1-4-1-1,2-2c-3.07-1.87-1.53-4.31-2-7-.07-.39-1.55-.89-1-2.5h2l1-2.5c.57-1.08-.9-1.54-1-2-.64-2.87-.41-7.26-1-10-.07-.34-1.93-2.66-2-3-.92-4.24-2.04-7.15-3-11-.75-3.01-.74-6.37-3-9,1.22-.81,1.32-2.82,1-4-.07-.26-1.5-1.99-2-1-1.1,1.55-2.17,1.73-4,1.5.18-4.47-.25-9.03,0-13.5.48-8.77,1.64-17.01,0-26-.5-2.74.62-3.62,1-5s-.85-1.52-1-2c-.19-.59.18-1.37,0-2-.15-.51-1.61-1.31-2-2-.26-.47.19-1.3,0-1.5-.11-.12-2.44.06-3-1.5-.5-.99-1.93.74-2,1-.63,2.35-.27,6.72,2,8l-2,2,2,3.5-5-1c-1.15,2.7,2.73,5.52,3,6.5.71,2.57-.92,4.39-1,5-.61,4.95-.41,10.3-1,15-.22,1.74.15,3.72,0,5.5-1.89.2-.76-2.23-1-3.5-.07-.39-.95-.63-1-1-.29-2.32-.45-6.5,1-8l-2-5,2-2c-1.23-2.22-2.99-1.08-4.5-1.5-.12-.03-1.81-.89-2-1-1-.6-3.54-3.99-4-4l-1.5,2.5,1,3c-2.79,2.91-1.92,6.74-2,10.5l-2-1.5c.16-1.95-.24-4.11,0-6,.05-.37.96-.64,1-1,.23-2.21-.36-4.94,0-7,.06-.35.82-.57,1-1,.22-.54-.17-1.33,0-1.5.19-.19,1.03.26,1.5,0,.69-.38,1.49-1.85,2-2,1.04-.3,2.75-.95,3-1,1.8-.37,5.65.45,6.5-2.5.57-1.99-.95-2.71-1-3-.24-1.36-.28-6.75,0-8,.09-.38.89-.6,1-1l-4.5-4.5h-6.5c1.05,2.54-1.76,3.64-2,4.5-.5,1.82-.29,7.69,1,9l-2.5,5.5c-2.92-1.84-.5-3.15-.5-3.5v-16.5c-1.93-.69-2.68,1.78-3.5,2-2.23.6-4.64.49-7,2-2.64,1.69-6.28,9.12-7.5,12.5-.15.41-.9.62-1,1-.23.83.2,2.09,0,3-.09.39-.94.63-1,1-.17,1.12-.22,3.99,0,5,.08.36,1.71,2.38,2,3,.23.5-.19,1.34,0,2,.29,1.01,6.58,9.07,8,11,3.91,5.31,10.24,9.45,15,15,1.72,6.7,6.95,10.39,10.5,15.5h6.5l-3,2.5c.25,1.85-.37,4.31,0,6,.29,1.34,3.33,6.07,4,8,1.41,4.05,1.91,6.64,4,11,.56,1.18,2.92,4.7,3,5,.35,1.29-.25,3.49,0,5,.42,2.56,2.66,7.25,3,10,.32,2.53.26,7.74-2.5,8.5-1.98.54-4.72-.79-4.5,3-1.37-.08-2.68-2.78-3.5-3-1.6-.44-3.88.85-5-1h-1c-3.2-.02-2.82,4.95-2.5,7.5.05.37.96.63,1,1,.23,2.06-.16,4.39,0,6.5h-3c.43,3.53-.6,8.16,0,11.5.07.37.87.59,1,1,.19.59-.18,1.37,0,2,.25.88,2.73,1.61,2,3.5l5,1v-11l1,2c2.69.07,5.54-1.82,8.5-1,2.04.56,1.17,3.37,1.5,4.5.15.52,1.54.86,1,2.5h6c-.73,1.9,1.74,2.61,2,3.5,3.35,11.33,9.44,19.01,12,30,.85,3.66,2.1,5.78,3,9,.28,1-.5,2.18,1,3l-1,5,1,2.5,3-2c.75,1.82-1.29,3.47-1,4.5.56,1.97.55,3,1,5,.72,3.21.69,23.72,0,26-.76,2.5,1.77,3.16,2,4,.61,2.2-.43,6.41,0,9,.7,4.23.99,11.43,2,16,.71,3.22-.81,9.05,0,12,.15.56,4.51,5.02,6,4.5l-2-2-2-7.5c4.56-3.69-.85-10.57,5-14,.57-1.99-.95-2.71-1-3-.57-3.19.41-7.61,0-11-.41-1.51-4.73-1.55-4-4.5l3,.5,2-2-1-3c3.35-8.1.29-19.22,2-27,1.3-5.91.34-6.1,0-11-.34-4.92.91-12.8,0-17-.08-.38-1.88-2.56-2-3-.23-.84.21-2.11,0-3-.09-.38-.88-.59-1-1-.53-1.74,1.74-3.72,1-6l5.5-4.5c1.59.62,1.37,2.87,1.5,3,.41.41,9.21,3.22,10.5,3,3.32-.57,4.93.62,8,1,3.31.41,5.32-.82,7-1,2.71-.29,6.19.89,8-1,.81,1.44,3.27.5,5,0,2.21-.63,7.45-8.01,10.5-8-.64-2.57,2.33-9.12,4.5-10,.49-.2,1.14.14,1.5,0,.06.65-.03,1.34,0,2,1.9.29,3.29-1.1,3-3h-1.5c-.38.66-.92.77-1.5,1ZM446,44h1.5l1.5-1.5-1.5-1.5-1.5,1.5v1.5ZM457,49c1.9.39,2.67-1.3,4-2.5l-1.5-2.5h-2.5v5ZM432.26,48.98c0-.68-.55-1.24-1.24-1.24s-1.24.55-1.24,1.24.55,1.24,1.24,1.24,1.24-.55,1.24-1.24ZM443,48h-2l1.5,2h.5v-2ZM434,49v1.5l1.5,1.5,1.5-1.5-1.5-1.5h-1.5ZM439,56c-2.31,2.1-1.47,3.57-2,5.5-.24.88-4.4,4.64-4,6,.56,1.91,5.84,1.8,7.5,1.5.29-.05,1-1.57,3-1,.41.12.66.99,1,1,.17,0,1.02-1.55,2.5-1,.62-2.42-1.26-3.86-2-5.5-1.4-3.08-1.93-7.32-6-6.5.12-3.26-3.03-4.2-5-1.5,1.27,1.91,2.86,1.58,5,1.5ZM76.87,74.23c0-1.16-.94-2.1-2.1-2.1s-2.1.94-2.1,2.1.94,2.1,2.1,2.1,2.1-.94,2.1-2.1ZM369,78c.84-4.17-3.14-4.73-6.5-4-1.07.23-3.17,2.78-5,2l-3,4h-2.5c.16,1.78-.23,3.78,0,5.5.05.37.97.64,1,1,.3,3.11-.67,8.55,0,11,.13.48,3,2.99,3,4.5l-6-2v4c2.76-.83,3.1,1.23,4.5,2,4.34,2.38,8.83,3.69,13,6,2.78,1.54,4.19,2.57,8,2,.37-.06.62-.94,1-1,7.82-1.19,15.3-.54,23,1s15.2,3.1,23,4l17,5c1.76,1.15,1.87,3.49,1.5,5.5-.07.4-1.88,3.51-2,4-.41,1.76-.03,3.52,1.5,4.5.2.13.69-.15,1,0,.41.19.61.84,1,1,5.12,2.04,12.09,1.41,17,4l3-1c2.91,2.76,5.71,2.47,9,3,.86.14,2.48,2.61,4.5-.5l-3-4,1-4,2-2.5c-.09,4.14,3.16,2.52,5.5,3,4.19.86,11.94,4.1,16,6,1.82.85,8.97,4.58,9.5,5.5,1.25,2.2,4.69,4.72,7.5,6.5,1.49.94,1.8,3.66,3,4,.99.28,2.18-.5,3,1l3-4c3.41.84,6.5-2.6,9,0h1c.94-1.22,2.7-2.3,3.5-3.5.28-.42.71-2.46,1-3,.37-.69,1.85-1.48,2-2,.72-2.51-2.49-4.17-4-6l2-2.5c-1.59.53-3.43-1.71-4.5-2-1.52-.42-3.26.72-4.5-1.5l-1-5c4.34-4.37,10.5-2.43,15.5-.5,1.54-1.09,1.73-2.16,1.5-4-1.9.73-2.61-1.74-3.5-2-3.31-.98-5.15-1.94-8-3-1.12-.42-3.8-.61-5-1-.41-.13-.61-.89-1-1l-4.5,1-1.5,3-8-4-3,1-2-2-4.5,1v2c-.52.62-2.01-2.45-3.5-2-.18.05-2.45,2.33-2.5,2.5-.65,2.25-.48,3.24-3,5l1,4.5c-2.01.28-3.32-1.24-3-3h-3c.59,5.67-5.32,4.83-3.5,0l-1.5-3,2,2h6c.46-.46-.4-8.65,0-10.5.08-.38.88-.59,1-1-.3-4.01-4.71-1.38-6.5-3.5l-2.5,1.5c-.39,2.79-1.51,5.04-1,8,.07.39,1.55.9,1,2.5h-6.5c-1.67-2.75-6.65-2.27-6.5-6,1.63.52,2.25-1.36,3.5-1,.4.12.61.91,1,1,1.05.25,4.13.72,3.5-1.5-1.94-3.26-4.35-.17-5.5-.5-.4-.12-.62-.92-1-1-1.28-.28-3.09.19-4.5,0-.16-1.43.25-3.16,0-4.5-.07-.37-.87-.59-1-1-.19-.59.18-1.37,0-2-.56-1.96-6.21-2.22-7.5-.5h-1c-1.59-.62-1.37-2.87-1.5-3-.11-.11-1.99.28-2.5-1h-1c-.82,1.27-3.19,1.47-4,2-.88.58-1.62,1.94-2.5,2.5-1.87,1.19-2.09-.9-4-.5l4.5,3h2l2.5,3-6.5-1-2,1-3-2c-3.81,1.58-8.43-.18-13-1-.4-.07-.89-1.55-2.5-1l-1-6.5-1.5-1.5-3,1-3-1-2.5,2c.53-1.65-.79-1.91-1-2.5-.32-.89-.32-2.85-1-4-1.82-3.06-4.91-3.51-5,.5l-4.5-3c-2.34,2.65-5.82,5-9.5,5v-3c.43-.43,5.14,2.61,6-.5.54-1.94-2.49-2.99-4-2.5v-5l-4-1v3h-4c1.42-5.03-8.07-6.11-9-9.5-.23-.85.23-2.15,0-3-.46-1.68-4.9-1.94-6.5-1.5-.82.22-2.13,2.92-3.5,3ZM336,75c-.56,1.91.63,5.46,2.5,6,3.81,1.11,8.19-4,3-5l-5.5-1ZM386,81c.29-1.9-1.1-3.29-3-3-.29,1.9,1.1,3.29,3,3ZM120,92h-3v.5l1.5,1.5h1.5v-2ZM589,92h-2v1h2v-1ZM300,105c2.23.46,3.3-1.2,5.5-1,1.56.14,1.91,1.3,3,1,2.96-2.31,1.22-4.14-1-6-1.71,2.36-2.93.35-4,0-5.03-1.65-9.91-1.02-15,0-.39.08-.63.95-1,1-2.13.31-5.07-.43-7,0-.36.08-.57.8-1,1-.31.14-.78-.13-1,0-1.81,1.08-2.32,3.14-3.5,4.5l-1.5,7.5c-2.63-1.61-.95-4.5-1.5-6.5-1.16-4.26-5.96,2.18-7.5,3.5-.17.15-.76-.18-1,0-3.48,2.63-4.47,7.48-5.5,11.5-.1.4-.92.62-1,1-.24,1.18.23,2.79,0,4-.07.38-.93.62-1,1-.59,3.25.54,4.52,2,7,1,1.69,5.86,7.51,6,8,.5,1.83.5,5.17,1,7,.1.38,1.53,2.38,2,3v1c-3.8,5.44-1.89,13.74-3,20-.07.38-.9.6-1,1-1.48,5.97-6.88,26.94-6,30,.18.63-2.63,10.51-3,12-2.59,10.41-.65,24.5,0,35,.25,3.97-.18,8.02,0,12,3.73,1.63,3.25,3.81,5,7,4.42,8.05,9.99,15.8,15,23,3.59,5.17,2.54,5.63,4,11,.27.98,2.81,4.13,3,5,.49,2.24-.42,5.64,0,8,.07.37.87.59,1,1,.19.59-.18,1.37,0,2,.37,1.29,4.33,3.81,5,2,.75-2.01,1.41-3.76,1-6-.07-.38-.95-.63-1-1-.27-2.17-.44-12.4,0-14,.6-2.18,3.94-1.18,5.5-1.5,1.83-.38,8.22-2.82,10-4,1.13-.75,3.28-3.8,4-4,3.37-.93,6.13-.63,9.5-3v-2c2.21-.39,3.16.36,4.5,2l2.5-1.5v-2.5c2.88-.05,2.12-1.67,4.5-3,1.7-.95,2.97-3.07,2.5-5l-3-1.5,5-1-2-3,1-2-6-5c2-1.11,2.78-3.85.5-4.5-.62-.18-1.38.18-2,0-.72-.21-2.51-2.87-3.5-3.5.48-3.99,1.09,1.09,2.5,1.5,1.09.32,2.85.31,4,1,1.44.86,1.75,2.78,4.5,2l1-5c-.24-.24-4.11.83-3-1.5.42-.87,1.74-3.08,2.5-3.5.47-.26,1.31.19,1.5,0-1.16-5.2,3.55-10.87-1-14.5l1-3c.52-2.24-3.82-3.47-4-2v4.5l-3-1,1,3h-3l1,5c-2.6-.53-3.21,3.36-6,3l.5,2h1l1.5,3-5-2c-.05,3.19-2.9,4.54-6,4v3c4.1.09,3.84,4.03,0,4l-2-3-2,7.5,2,4c-2.15,3.23-6.8,3.98-7-.5h-2.5l-3-4-2.5,3c.78-1.75-.95-3.18-1-3.5-.89-6.2,2.01-12.31,1-18-.07-.38-.9-.6-1-1-2.49-10.08-4.8-24.83-2-35,.15-.55,1.84-1.44,2-2,.36-1.25-.66-2.06,0-5,1.03-4.61.09-8.26,2-14,.8-2.41,1.7-5.61,3-8,.38-.69,1.85-1.48,2-2,.63-2.14-3.02-4.65,1-7-.43-3.14.48-4.97,4-4.5l-3-2.5c1.94-1.55.58-4.67,1-7,.32-1.78,2.66-4.19,2-7-1.27-5.44-.21-8.15-1-13-.22-1.37.15-3.06,0-4.5h4l1.5-4c2.06,3.56,6.1,1.2,9,2,1.5.41,2.63,4.04,4,5l.5,3c2.01.28,3.32-1.24,3-3,2.29.5,4.29,1.44,7,1-.63,1.56,1.16,4.62,2.5,5,.62.18,1.38-.18,2,0,1.29.37,1.7,3.62,3,4h2.5v3l3-1c.43.44-.36,6.82,0,8.5.18.83,2.82,4.17,3,5,.47,2.19.22,4.78,1,7,.2.58,1.53.85,1,2.5h-2c-.85.85,1.85,3.81,2,4.5.25,1.16-.22,2.78,0,4,.07.4,1.55.89,1,2.5h-2l1,8.5c-3.32,2.01-1.14,7.02,0,10l-1.5,3.5-1-1-3.5,3.5,2,3c-1.5.82-.72,2.02-1,3-.25.89-3.05,1.95-2,4.5,2.81-.56,5.9,2.34,6,5,.82.02,1.67-.03,2.5,0,1.24.05,3.73-.76,3.5,1l-8-1v-2l-4-1c-1.08,4.58,5.14,3.77,5,8-.81.76-6.45-2.58-5,.5.35.75,1.93,1.65,2.5,2.5,1.49-1.51,3.63-.64,5-3l4,2,1.5-2c.32,3.57-2.97,2.39-4.5,4l-3-1c-.49,1.55-4.59.19-3.5,2.5,1.45,3.08,7.83-.19,9.5,3.5,1.46-1.74,2.99-1.6,2.5,1-2.91,1.16-6.27-2.65-8.5-2-.61.18-1.75,1.63-1.5,2.5.7,2.43,6.76.32,6,4.5l-4.5-2-2,1-2-2-1.5,2.5,1,2.5-5-2c-.27,1.32.14,3.61,1.5,4,2.02.58,2.95-2.03,4.5.5-.46,1.95-5.1.76-4,3,1.02,2.07,4.29,2.3,5,4.5-2.71-.28-5-2.01-7-3.5-1.4-1.04-1.62-2.04-4-1.5-.35,2.47,2.49,3.4,3.5,5,.68,1.07-.97,1.4-.5,3l4-2-1,4.5,1,1.5-6,2v3h-2l1,2.5c-1.33,1.2-2.1,2.89-4,2.5-.26,1.34.14,3.6,1.5,4,3.18.94,2.12-.89,2.5-1.5.81-1.33,3.48-2.47,5-2.5l1-4c1.73-.32.63.88,1,1.5.62,1.04,1.7,1.77,3,1.5l-1-4h3c-.39-2.21.36-3.16,2-4.5l-1-3c1.64-1.88,3.63-3.41,6-3.5l-2-7,2.5,3c1.42.44,2.08-1.49,3-2,.47-.26,1.31.19,1.5,0,.1-.1.3-1.26,1-2.5,1.65-2.91,6.35-9.73,7-12,1.9-6.59,5.85-12.81,8-19,1.01-2.92.48-4.59,1-7,.07-.34,1.93-2.66,2-3,.75-3.46.41-8.48,1-12,.44-2.66.56-6.34,1-9,.47-2.82-.33-6.54,0-9.5-3.32,1.16-2.66,5.92-7,5l4-4.5v-1.5h2l-.5-2-2.5,2c-.88-2.24,1.75-4.37,2-5.5.2-.89.22-5.21,0-6-.08-.28-2.2-2.27-3-4-1.77-3.81-3-7.28-5-11-1.15-2.14-4.3-9.87-6.5-10.5-5.17-1.48-3.33-1.25-4.5-5.5-.37-1.34-8.21-7.43-10-7.5v-2l-4,1,1,3.5c-3.6,2.74-1.88,4.52,1,7l-1,3,1.5,1.5h2.5v4h-3v2h-2l-2,2v-4c-3.8.63-5.21-4.19-9-4,.8-3.28-2.31-4.73-5-5,.55-1.61-.93-2.11-1-2.5-.22-1.24-.28-7,0-8,.15-.56,2.01-1.73,2.5-2.5,1.5,2.64,3.25,1.52,5,2,.74.2,5.71,6.98,5.5.5-2.86-2.3-6.72-4.9-10-2.5.16-2.01-.68-4.28,1-5.5-.78-.49-1.93-2.34-2.5-2.5-.9-.26-3.01.2-3.5-1.5-.18-.62.18-1.38,0-2-.27-.93-3.28-2.44-2-5.5-3.18-.57-1.49,1.07-2,2.5-.19.52-2.47,2.73-3,4-.23.54.18,1.32,0,1.5l-8-1-1,16c-1.17,1.35-1.92.12-2-1.5-.11-2.15-.21-4.91,0-7,.04-.36.95-.63,1-1,.16-1.25.27-5.03,0-6-.24-.86-2.74-1.61-2-3.5-1.91.73-2.94-.85-3.5-1-.98-.27-1.51.77-3,1-1.97.3-1.59-.41-1.5-2ZM434,102c-1.79-.3-7.37-3.02-6,1.5.72,2.36,2.97.96,4.5.5,1.38-.42,1.8.77,1.5-2ZM442,102c-3.06-1.09-7.02,3.75-3.5,5,3.12,1.11,4.06-2.82,3.5-5ZM570,103v1.5l1.5,1.5,1.5-1.5-1.5-1.5h-1.5ZM244.26,111.98c0-.68-.55-1.24-1.24-1.24s-1.24.55-1.24,1.24.55,1.24,1.24,1.24,1.24-.55,1.24-1.24ZM343,128v-2l-2,1.5v.5h2ZM119,145v-8.5l-4-3.5c.22,1.69.8,2.63,1,4.5.17,1.61-.12,3.36,0,5l3,2.5ZM452,143l-2.5-1c-2.11-.64-4.58,3.03-7-1l-5.5-1c-.14,1.45.22,3.12,0,4.5-1.06,6.73-.8,14.26-2,21-1.41,7.96-2.34,16.08-4,24-.2.97-1.66,3.9-2,5-.65,2.11.32,4.87,3,4.5l-1-4.5,2-6.5,2,1.5c-.11,2.45-1.52,4.15-1,7,.56,3.05.33,4.75,1,8,.21,1.02-.13,2.38,0,3.5h-3l2,3.5c-2.82,1.43.82,7.67,0,8.5l-3-1,.5,3h1.5c-.53,5.15.73,11.53,0,16.5-.06.4-1.58,1.52-1,4,.09.4.95.63,1,1,.35,2.4.07,6.19-1,8-.69,1.16-3.77,3.2-4,4-.28.98.5,2.18-1,3l1,3.5h-5v3l2.5-1c.75.72,2.32,2.85,2.5,3.5,1.03,3.72,2.58,15.06,2,19-.06.4-1.56,1.49-1,4,1.77,3.23,3.12,5.51,6,8,.7.61,1.29,1.87,2.5,1.5.89-.56,2.35-2.81,3-3,.62-.18,1.38.18,2,0,.76-.22,3.4-4.03,4-5,.83-1.34-.03-2.65,1-3,2.24,1.77,2.93,3.07,2.5,6h-5l-1,6,3-.5c-.31-2.41.03-4.69,3-4.5.75,1.82-1.29,3.47-1,4.5l1,3.5h5l-.5-5,2.5,4,6-3c-.15-1.63-.2-4.51,1.5-5,.65-.19,1.47.22,2,0,.64-.27.85-1.52,2.5-1v-3l4,1v3l6-1c-.35,3.43-4.21,3.88-3,8h-3c-.72,1.92.81,2.88,1,3.5.59,1.95-.95,2.72-1,3-.47,2.63.33,6.2,0,9l1.5,1.5h6.5c.04-1.55,1.15-4.14,2.5-5,.76-.48,3.38-1.53,4-2,1.9-1.45,4.36-5.8,7-5,3.97,1.92,6.37,5.86,6.5,10,2.81-.04,4.62,2.67,4,5.5-.1.44-1.55.88-1,2.5,2.93.43,4.23-.26,6-2.5l-1-3c4.04-3.67,1.88-8.24,5-12-1.3-2.52-.82-4.28,0-7,.19-.61,1.72-1.58,1-3.5l3-1.5-2-7,6-11c-3.32-2.38-3.3-4.58-3-8.5l5,6.5v2.5h3l-1-4,5,2,1-5.5-2-6-3-3c.42-.66,1.87-1.52,2-2,.52-1.9-1.48-5.25,2-4.5.18,1.41-.28,3.22,0,4.5.34,1.58,2.7,5.7,3,8,.26,2.04-.18,4.4,0,6.5h4c-.79-2.29,3.61-4.16,4-5.5.63-2.19.52-5.27,1-7,.23-.85,2.73-1.46,2-4-.58-2.03-3.32-1.18-4.5-1.5-.12-.03-1.9-.93-2-1-.77-.49-2.13-2.65-2.5-3.5-.25-.56.24-1.44,0-2-.17-.4-.81-.59-1-1-.93-2.01-.79-2.94-4-2.5l-1,7-3-1,1,4.5-5,4,5,6-2,6.5c-3.44.74-1.53-2.53-2-4.5-.07-.29-.78-2.38-1-3s-1.53-.85-1-2.5c-1.61-.55-2.1.93-2.5,1-1.22.22-2.93-.29-4,0-.82.22-1.57,2.69-3.5,2l2,5-2-2-5-1-1.5,6-2.5-3.5c.84-2.17,1.95-3.9-1.5-4.5l-2.5,3.5,1,3.5c-2.15.73-3.43-2.71-4.5-3-.84-.23-2.11.21-3,0-.45-.11-.88-1.55-2.5-1,.4,2.21-.38,3.19-2,4.5l1,3.5c-3.2-2.21-6.17-2.22-10-2v3l-6-1c.58,1.19-2.74,4.78-3.5,5-1.78.51-3.79-.17-3.5,3h-2v-2h-2c-.15-1.11.23-2.52,0-3.5-.09-.39-.89-.6-1-1-.24-.88,1.58-2.52,1-5-.09-.38-.87-.59-1-1-.19-.59.18-1.37,0-2-.55-1.91-4.05-.96-5-3-1.09-2.35,2.76-1.24,3-1.5l1-4.5c-1.73-2.22-3.1-2.94-6-2.5-.61,1.99,1.52,2.46,2,3.5,1.37,2.96-4.58.46-5-1l2-5-3-5,2-2-1-3,3.5-3.5,3,1c1.91-1.01,1.14-2.47,1.5-3.5.25-.72,1.69-1.55,1-3.5h-4v4l-3-1.5,1-4.5h4.5c1.85-.51,1.92-6.62,1.5-8.5-.09-.38-.89-.6-1-1v-1c2.82-3.85,2.11-9.35,3-14,2.41-12.64,5.48-25.39,8-38,.9-4.51,2.56-10.94,3-15,.16-1.46.3-5.89,0-7s-3.8-2.42-3-4.5c-1.91-.73-2.94.85-3.5,1-1.32.36-1.61-.92-2-1-.92-.19-2.18.23-3,0-.55-.15-1.44-1.84-2-2-.98-.28-2.18.5-3-1l-4.5,2v-2ZM2,142H0v1h2v-1ZM211,146l2-1.5-1.5-1.5h-.5v3ZM10,153c-.21,1.37.32,3.33,0,4.5-.15.54-3.85,4.46-4,5-.43,1.56.38,4.31,0,6-.09.38-.89.6-1,1-.34,1.22,1.76,2.41,1,4,4.31,3.33,6.32,11.63,12.5,7.5l4,1c3.17-2.56,4.13-4.29,3.5-8.5-.06-.38-.96-.64-1-1-.77-7.24.57-15.62,0-23l-6.5-5.5H6v2l-3-1c-.45,1.72,2.34,7.68,3.5,8h3.5ZM207,145h-2v3h2v-3ZM55,156h-2.5c-1.6-2.12-4.3-1.54-6-2-1.18-.32-3.65-2.9-4-3-3.64-1.04-7.49-2.16-11-3-5.24-1.26-5.19,4.61-4.5,8.5s3.8,7.64,3,13c-.06.38-.96.64-1,1-.9,8.49.67,18.34,0,27,1.63,2.12,4.08,4.04,6,1,.17-.27-.12-1.51,1-2l-1-2,1.5-1.5h2.5v-3h3v-3c2.66-.1,5.56-3.19,5-6,2.65.18,5.4-.87,7,1.5l2-1c-.51-1.92,1.57-3.16,1-5-.13-.41-.91-.62-1-1-.21-.89.23-2.16,0-3-.38-1.39-2.32-4.09-4-3.5v-4.5l5-4v-6.5l-2,2ZM210.5,149c-.65,0-.65,1,0,1s.65-1,0-1ZM205,157c.65-1.25-1.6-3.5-2-3-.65,1.25,1.6,3.5,2,3ZM212,166c0-1.49,0-3,0-4.5,0-1.2.73-3.74-1-3.5.1,2.49-1.14,3.8-1,6.5.08,1.62.85,2.88,2,1.5ZM523,166l-6-1v7.5c1.65,1.7,3.63,3.06,5.5,4.5,1.3,1,1.7,1.29,3.5,1,.76-4.68-3.83-7.49-3-12ZM191,169h-3v3c1.9.29,3.29-1.1,3-3ZM212,184c-.1-3.01,1.12-7.09-3-7,.1,3.01-1.12,7.09,3,7ZM575.26,183.98c0-.68-.55-1.24-1.24-1.24s-1.24.55-1.24,1.24.55,1.24,1.24,1.24,1.24-.55,1.24-1.24ZM569,188h-4v.5l1.5,1.5h1l1.5-2ZM67,191h-3v.5l1.5,1.5h1.5v-2ZM82,191h-2v3h2v-3ZM24,192h-2v3h2v-3ZM211.26,192.98c0-.68-.55-1.24-1.24-1.24s-1.24.55-1.24,1.24.55,1.24,1.24,1.24,1.24-.55,1.24-1.24ZM569,195h-2v1.5l1.5,1.5h.5v-3ZM25,198h-3v3h3v-3ZM431,204c.51-2.5-.79-3.44-2.5-5l-1.5,1.5,1,2-2,2,2,5.5,2-.5-1-5.5h2ZM347.5,201c-.65,0-.65,1,0,1s.65-1,0-1ZM571.26,206.98c0-.68-.55-1.24-1.24-1.24s-1.24.55-1.24,1.24.55,1.24,1.24,1.24,1.24-.55,1.24-1.24ZM566,208h-4v2.5l1.5,1.5,2.5-1v-3ZM190,210c-4.79.3-2.98,4.27.5,5l-.5-5ZM562,220c-.04-2.2-2.32-3.79,0-5.5l-3-1.5-1,3.5,4,3.5ZM428,216h-3v3h3v-3ZM189,220c.29-1.9-1.1-3.29-3-3-.29,1.9,1.1,3.29,3,3ZM191,229l-3.5-6c-4.06,1.94,2.56,6.95,3.5,6ZM343,223h-3v3c1.9.29,3.29-1.1,3-3ZM538,228c.57-3.81-2.51-5.6-5-2.5l1.5,2.5h3.5ZM556,229h-2v3h2v-3ZM345,233c.32-1.5-.44-2.06-1.5-3h-2.5v2l4,1ZM339,237c.29-1.9-1.1-3.29-3-3-.29,1.9,1.1,3.29,3,3ZM338,239h-2l1.5,2h.5v-2ZM537.45,242.82l-.68,4.05,2.19.36.68-4.05-2.19-.36ZM546.26,244.98c0-.68-.55-1.24-1.24-1.24s-1.24.55-1.24,1.24.55,1.24,1.24,1.24,1.24-.55,1.24-1.24ZM184.26,250.98c0-.68-.55-1.24-1.24-1.24s-1.24.55-1.24,1.24.55,1.24,1.24,1.24,1.24-.55,1.24-1.24ZM188,255l-2.5-2-3.5,1c.26,1.64-.39,4.08,0,5.5.29,1.05,3.69,2.31,3,4.5l-3-2c-.62,3.57,2.83,5.21,5.5,7,1.23-1.3,1.99-1.01.5-2.5-1.23-1.23-1.14-1.84-1-3.5h7l2,2v-5.5l-3-1.5c-.11-.8.19-1.85,0-2.5-.43-1.47-4.67-3.78-5-2v1.5ZM586,266l-6.5-11c-1.85,1.22-1.93,4.61-1.5,6.5.08.36.8.57,1,1,1.12,2.47,3.04,5.67,5.5,7.5.2.15.77-.16,1,0,2.62,1.83,5.28,5.16,8.5,1.5-.75-1.33-2.08-1.29-3-2-1.69-1.31-2.73-3.85-5-3.5ZM204,256h-3v4c1.5.32,2.06-.44,3-1.5v-2.5ZM131,328l-1-3.5,3-5c-2.14-3.15-2.02-7.33-3-11-.7-2.62,1.13-5.42-1-8l2-3c-1.96-1.52-3.4-5.65-3-8,.56-3.25-.76-4.84,0-9,.51-2.78-2.38-11.6-3-15-.49-2.71.82-5.04-3-6.5l-2,6.5c2.86,1.73,1.57,3.63,2,6,.69,3.77.33,6.24,1,10,2.06,11.55,1.23,24.86,4,36,.52,2.08,1.37,4.79,1,7-.06.38-1,.66-1,1l4,2.5ZM509,261l-2,1.5,4,3.5-2-5ZM211,272c.16-1.43-.25-3.16,0-4.5.07-.37.87-.59,1-1,.76-2.49-3.19-5.41-4-4.5l1,6.5-2,6.5-2.5-1-1.5,3c2.21-.4,3.19.38,4.5,2l2.5-1v4.5l3,2.5c-.69-1.93,1.77-2.67,2-3.5.56-2-.95-2.71-1-3-.34-1.92.24-4.46,0-6.5h-3ZM201,272c5.64,1.39,5-7.83,1.5-9-2.07-.69-2.92,2.79-2.5,4.5.1.4.92.62,1,1,.21,1.02-.13,2.38,0,3.5ZM332,263c-2.14-.08-3.73-.41-5,1.5,0,.77,4.48,3.02,5,2.5v-4ZM183,269c.5,2.54-3.53,2.93-.5,5l4.5-2.5-4-2.5ZM183,284c1.9.39,2.67-1.3,4-2.5l-1.5-2.5c-1.71,1.57-3.01,2.5-2.5,5ZM192,279h-2v1h2v-1ZM187,303c3.23.28,5.05.22,7-2.5v-12c-2-2.07-2.72-3.65-5.5-1.5-2.94,2.27-2.94,7.97-2.5,11.5.05.37.92.61,1,1,.21,1.03-.13,2.38,0,3.5ZM262,306c-2.24-2.48-.16-3.62,0-4.5.22-1.2-.15-2.72,0-4l-3.5-1.5c-3.44,3.77-3.26,5.37.5,8.5,1.02.85,1.29,1.91,3,1.5ZM108,312v-2h-1v2h1ZM318.5,321l-1.5,1.5,1.5,3.5,1.5-3.5-1.5-1.5ZM393,337c4.74-.39,3.49-3.68,4-6.5.07-.38.94-.63,1-1,1.1-7.3-3.48-8.89-8-4v1c2.96,1.87,1.66,4.16,2,7,.18,1.55,1.28,1.92,1,3.5ZM111,328h-2v3h2v-3ZM222.26,328.98c0-.68-.55-1.24-1.24-1.24s-1.24.55-1.24,1.24.55,1.24,1.24,1.24,1.24-.55,1.24-1.24ZM530.96,333.12c0-1.72-1.39-3.11-3.11-3.11s-3.11,1.39-3.11,3.11,1.39,3.11,3.11,3.11,3.11-1.39,3.11-3.11ZM107.5,337c-.65,0-.65,1,0,1s.65-1,0-1ZM289.5,358c-.65,0-.65,1,0,1s.65-1,0-1ZM164,365c-3.29-.39-6.72-.03-7,4l7-1v-3ZM126,367h-2v2l2-2ZM83.26,371.98c0-.68-.55-1.24-1.24-1.24s-1.24.55-1.24,1.24.55,1.24,1.24,1.24,1.24-.55,1.24-1.24ZM135,376c.32-3.55-2.91-2.38-4.5-4-2.33-.12-2.33.98-4.5.5-1.73-.38-3.21-.75-5-.5.09,4.5,5.5,3.21,7.5,5l6.5-1ZM297.26,388.98c0-.68-.55-1.24-1.24-1.24s-1.24.55-1.24,1.24.55,1.24,1.24,1.24,1.24-.55,1.24-1.24ZM240,389h-3v2h3v-2ZM81,393h-3v4c1.5.32,2.06-.44,3-1.5v-2.5ZM419.5,393c-.27.02-2.55,3.29-3,4-1.8,2.85,3.31,4.26,4.5,1.5l-1.5-5.5ZM137,405h-2v3h2v-3Z"/>
      <path d="M628,101v13l-4-1.5c2.18-1.55,3.02-4.11,1-6l3-5.5Z"/>
      <rect x="626" y="226" width="2" height="4"/>
      <polygon points="628 368 628 371 626 369.5 626 368 628 368"/>
      <path d="M174.5,0,190.5,3c-.36-.1-2.86-2.65-4-3l-5,1"/>
      <path d="M439,56c4.07-.82,4.6,3.42,6,6.5.74,1.64,2.62,3.08,2,5.5-1.48-.55-2.33,1.01-2.5,1-.34-.01-.59-.88-1-1-2-.57-2.71.95-3,1-1.66.3-6.94.41-7.5-1.5-.4-1.36,3.76-5.12,4-6,.53-1.93-.31-3.4,2-5.5-2.14.08-3.73.41-5-1.5,1.97-2.7,5.12-1.76,5,1.5Z"/>
      <path d="M171,8c1.9,0,3.25-1.62,5.5-1,.86.24,1.61,2.74,3.5,2v5c-3.27.83-7.03,2.47-9.5-1l-2,1c-1.79-1.56-3.38-3.5-3.5-6,2.15.34,3.08-1.82,4.5-3l1.5,3Z"/>
      <path d="M586,266c2.27-.35,3.31,2.19,5,3.5.92.71,2.25.67,3,2-3.22,3.66-5.88.33-8.5-1.5-.23-.16-.8.15-1,0-2.46-1.83-4.38-5.03-5.5-7.5-.2-.43-.92-.64-1-1-.43-1.89-.35-5.28,1.5-6.5l6.5,11Z"/>
      <path d="M279.5,0c-4.67,0-14.14.83-18,0"/>
      <path d="M393,337c.28-1.58-.82-1.95-1-3.5-.34-2.84.96-5.13-2-7v-1c4.52-4.89,9.1-3.3,8,4-.06.37-.93.62-1,1-.51,2.82.74,6.11-4,6.5Z"/>
      <path d="M523,166c-.83,4.51,3.76,7.32,3,12-1.8.29-2.2,0-3.5-1-1.87-1.44-3.85-2.8-5.5-4.5v-7.5l6,1Z"/>
      <path d="M135,376l-6.5,1c-2-1.79-7.41-.5-7.5-5,1.79-.25,3.27.12,5,.5,2.17.48,2.17-.62,4.5-.5,1.59,1.62,4.82.45,4.5,4Z"/>
      <path d="M262,306c-1.71.41-1.98-.65-3-1.5-3.76-3.13-3.94-4.73-.5-8.5l3.5,1.5c-.15,1.28.22,2.8,0,4-.16.88-2.24,2.02,0,4.5Z"/>
      <path d="M336,75l5.5,1c5.19,1,.81,6.11-3,5-1.87-.54-3.06-4.09-2.5-6Z"/>
      <path d="M119,145l-3-2.5c-.12-1.64.17-3.39,0-5-.2-1.87-.78-2.81-1-4.5l4,3.5v8.5Z"/>
      <path d="M431,204h-2l1,5.5-2,.5-2-5.5,2-2-1-2,1.5-1.5c1.71,1.56,3.01,2.5,2.5,5Z"/>
      <circle cx="527.85" cy="333.12" r="3.11"/>
      <path d="M419.5,393l1.5,5.5c-1.19,2.76-6.3,1.35-4.5-1.5.45-.71,2.73-3.98,3-4Z"/>
      <path d="M164,365v3l-7,1c.28-4.03,3.71-4.39,7-4Z"/>
      <path d="M191,229c-.94.95-7.56-4.06-3.5-6l3.5,6Z"/>
      <path d="M442,102c.56,2.18-.38,6.11-3.5,5-3.52-1.25.44-6.09,3.5-5Z"/>
      <polygon points="271 1 271 4 264 2.5 271 1"/>
      <path d="M212,184c-4.12.09-2.9-3.99-3-7,4.12-.09,2.9,3.99,3,7Z"/>
      <path d="M434,102c.3,2.77-.12,1.58-1.5,2-1.53.46-3.78,1.86-4.5-.5-1.37-4.52,4.21-1.8,6-1.5Z"/>
      <path d="M538,228h-3.5l-1.5-2.5c2.49-3.1,5.57-1.31,5,2.5Z"/>
      <path d="M457,49v-5h2.5l1.5,2.5c-1.33,1.2-2.1,2.89-4,2.5Z"/>
      <path d="M183,269l4,2.5-4.5,2.5c-3.03-2.07,1-2.46.5-5Z"/>
      <path d="M562,220l-4-3.5,1-3.5,3,1.5c-2.32,1.71-.04,3.3,0,5.5Z"/>
      <path d="M190,210l.5,5c-3.48-.73-5.29-4.7-.5-5Z"/>
      <path d="M183,284c-.51-2.5.79-3.43,2.5-5l1.5,2.5c-1.33,1.2-2.1,2.89-4,2.5Z"/>
      <path d="M212,166c-1.15,1.38-1.92.12-2-1.5-.14-2.7,1.1-4.01,1-6.5,1.73-.24.99,2.3,1,3.5,0,1.5,0,3.01,0,4.5Z"/>
      <polygon points="566 208 566 211 563.5 212 562 210.5 562 208 566 208"/>
      <circle cx="74.77" cy="74.23" r="2.1"/>
      <polygon points="318.5 321 320 322.5 318.5 326 317 322.5 318.5 321"/>
      <path d="M81,393v2.5c-.94,1.06-1.5,1.82-3,1.5v-4h3Z"/>
      <polygon points="509 261 511 266 507 262.5 509 261"/>
      <path d="M204,256v2.5c-.94,1.06-1.5,1.82-3,1.5v-4h3Z"/>
      <rect x="425" y="216" width="3" height="3"/>
      <rect x="22" y="198" width="3" height="3"/>
      <rect x="536.15" y="243.92" width="4.11" height="2.22" transform="translate(208.02 735.63) rotate(-80.54)"/>
      <path d="M191,169c.29,1.9-1.1,3.29-3,3v-3h3Z"/>
      <path d="M189,220c-1.9.29-3.29-1.1-3-3,1.9-.29,3.29,1.1,3,3Z"/>
      <path d="M386,81c-1.9.29-3.29-1.1-3-3,1.9-.29,3.29,1.1,3,3Z"/>
      <polygon points="446 44 446 42.5 447.5 41 449 42.5 447.5 44 446 44"/>
      <rect x="205" y="145" width="2" height="3"/>
      <rect x="109" y="328" width="2" height="3"/>
      <rect x="237" y="389" width="3" height="2"/>
      <polygon points="569 188 567.5 190 566.5 190 565 188.5 565 188 569 188"/>
      <polygon points="570 103 571.5 103 573 104.5 571.5 106 570 104.5 570 103"/>
      <rect x="135" y="405" width="2" height="3"/>
      <rect x="80" y="191" width="2" height="3"/>
      <rect x="22" y="192" width="2" height="3"/>
      <polygon points="434 49 435.5 49 437 50.5 435.5 52 434 50.5 434 49"/>
      <rect x="554" y="229" width="2" height="3"/>
      <polygon points="67 191 67 193 65.5 193 64 191.5 64 191 67 191"/>
      <polygon points="569 195 569 198 568.5 198 567 196.5 567 195 569 195"/>
      <polygon points="120 92 120 94 118.5 94 117 92.5 117 92 120 92"/>
      <circle cx="82.02" cy="371.98" r="1.24"/>
      <circle cx="545.02" cy="244.98" r="1.24"/>
      <circle cx="570.02" cy="206.98" r="1.24"/>
      <polygon points="211 146 211 143 211.5 143 213 144.5 211 146"/>
      <circle cx="188.02" cy="4.98" r="1.24"/>
      <circle cx="210.02" cy="192.98" r="1.24"/>
      <circle cx="183.02" cy="250.98" r="1.24"/>
      <circle cx="221.02" cy="328.98" r="1.24"/>
      <path d="M205,157c-.4.5-2.65-1.75-2-3,.4-.5,2.65,1.75,2,3Z"/>
      <circle cx="431.02" cy="48.98" r="1.24"/>
      <circle cx="296.02" cy="388.98" r="1.24"/>
      <circle cx="574.02" cy="183.98" r="1.24"/>
      <circle cx="243.02" cy="111.98" r="1.24"/>
      <rect x="67" width="3" height="1"/>
      <polygon points="443 48 443 50 442.5 50 441 48 443 48"/>
      <polygon points="343 128 341 128 341 127.5 343 126 343 128"/>
      <polygon points="126 367 124 369 124 367 126 367"/>
      <rect x="587" y="92" width="2" height="1"/>
      <rect x="107" y="310" width="1" height="2"/>
      <rect y="142" width="2" height="1"/>
      <rect x="190" y="279" width="2" height="1"/>
      <path d="M210.5,149c.65,0,.65,1,0,1s-.65-1,0-1Z"/>
      <path d="M107.5,337c.65,0,.65,1,0,1s-.65-1,0-1Z"/>
      <path d="M289.5,358c.65,0,.65,1,0,1s-.65-1,0-1Z"/>
      <path d="M280,131l5-2-3,2v5l-4.5,2-2.5-1v-2.5c-1.27-1.91-2.86-1.58-5-1.5.13-1.12-.21-2.48,0-3.5.07-.33,1.59-1.04,1-3-.16-.53-1.54-.86-1-2.5,1.62.55,2.05-.9,2.5-1,4.47-1.02,4.86,3.02,7.5,5.5v2.5Z"/>
      <path d="M309,276c.64,1.96-1.03,3.07-1,4.5.03,1.75,1.72,2.27,0,5l1,2.5-3.5-1-2,4-1.5-5.5,2-1c1.6,1.6,1.34,1.96,3,0l-2-3c.42-.66,1.85-1.5,2-2,.5-1.64-1.37-4.15,2-3.5Z"/>
      <path d="M320,116l1,5-7-2c-.13-3.73,3.19-3.07,6-3Z"/>
      <path d="M358,187c-.53,1.9.41,2.38,1,3.5.34.64,1.93,2.66,2,3,.39,1.82-.27,4.51,0,6.5l-5-5.5,3-2c.43-1.49-1.73-2.92-3-2.5-.03-2.16-.75-3.51,2-3Z"/>
      <polygon points="365 208 362.5 211 361.5 211 358 207 365 208"/>
      <polygon points="366 213 362.5 217 360 214.5 366 213"/>
      <path d="M368,222c-3.35-.98-4.22,1.73-7,2l3.5-5,3.5,3Z"/>
      <path d="M321,275l-5-3.5c1.64-3.63,6.03.75,5,3.5Z"/>
      <path d="M291,114l1,4-5-1c-.44-2.83.41-1.52,1.5-2,.67-.3.85-1.51,2.5-1Z"/>
      <path d="M319,123v3h-5v-2c1.86.11,2.83-1.54,5-1Z"/>
      <path d="M361,219c.25,1.71-2.33,1.02-3.5,1-2.58-.05-5.58.75-5.5-3,2.81,1.36,5.83,2.37,9,2Z"/>
      <path d="M324,265c-1.81.5-2.01-.88-3-1.5-1.11-.7-2.74-.79-3-2.5,1.19-.04,2.44.55,3.5,1,1.57.67,2.87.67,2.5,3Z"/>
      <rect x="322.97" y="267.01" width="2.4" height="5.57" transform="translate(-73.97 408.96) rotate(-59.04)"/>
      <path d="M283,145c-.08-1.28.59-2.31,1-3.5.24-.7,2.09-.77,3-1.5.56.63-1.72,5.94-4,5Z"/>
      <path d="M317,279c-1.72-.37-2.36.87-3.5,2l-1.5-3,5-1v2Z"/>
      <polygon points="363 201 361 203 359 205 360 202.5 363 201"/>
      <path d="M360,185l-5-2v-1c2.75-.27,5.21-.1,5,3Z"/>
      <path d="M299,277c.24,2.52-1.6,3.37-4,3,.22-1.33,3.17-3.83,4-3Z"/>
      <path d="M364,227v4h-.5c-1.54-1.1-1.73-2.14-1.5-4h2Z"/>
      <path d="M376,165c.24,1.88,0,3.47-2,4v-4h2Z"/>
      <path d="M351,245v2c-.83.83-3.78-1.67-4-3l4,1Z"/>
      <polygon points="276 142 274 142 274 138 275 138 276 142"/>
      <path d="M281,141l1,3c-1.9.29-3.29-1.1-3-3h2Z"/>
      <polygon points="276 118 272 118 272 117.5 273.5 116 274.5 116 276 118"/>
      <polygon points="352 215 352 216 349.5 216 348 214 352 215"/>
      <polygon points="294 294 295 291 297 292.5 294 294"/>
      <path d="M365,236c.5.4-1.75,2.65-3,2-.5-.4,1.75-2.65,3-2Z"/>
      <circle cx="329.02" cy="240.98" r="1.24"/>
      <circle cx="356.02" cy="203.98" r="1.24"/>
      <polygon points="285 293 283.5 295 282 293.5 282 293 285 293"/>
      <path d="M324,279v1h-3v-2c1.18.31,1.49,1.42,3,1Z"/>
      <circle cx="367.02" cy="182.98" r="1.24"/>
      <rect x="359" y="157" width="4" height="1"/>
      <polygon points="299 287 299 289 298.5 289 297 287 299 287"/>
      <polygon points="379 185 377 187 377 185 379 185"/>
      <polygon points="280 149 278 149 278 147 280 149"/>
      <rect x="356" y="241" width="3" height="1"/>
      <rect x="366" y="142" width="1" height="2"/>
      <rect x="353" y="148" width="2" height="1"/>
      <rect x="311" y="274" width="1" height="2"/>
      <rect x="317" y="267" width="2" height="1"/>
      <rect x="286" y="267" width="1" height="2"/>
      <rect x="338" y="265" width="2" height="1"/>
      <rect x="356" y="246" width="2" height="1"/>
      <path d="M360.5,232c.65,0,.65,1,0,1s-.65-1,0-1Z"/>
      <path d="M368.5,176c.65,0,.65,1,0,1s-.65-1,0-1Z"/>
      <path d="M271.5,150c.65,0,.65,1,0,1s-.65-1,0-1Z"/>
      <path d="M288.5,124c.65,0,.65,1,0,1s-.65-1,0-1Z"/>
      <path d="M72,164c-.29,1.9,1.1,3.29,3,3l1,5c-5.16.87-3.69-4.65-6-7.5l2-.5Z"/>
      <path d="M106,215h-3c-.33.28,1.91,3.1,2,3.5.28,1.31.2,2.91.5,4.5.14.76,1.26,3.05-1,2-3.59-1.67,1.79-6.41-2.5-8.5l1.5-6.5,2.5,5Z"/>
      <path d="M89,174l-.5,4c.9.59.39,1.58.5,2.5.12.99.65,3.8-1,3.5l-1-7.5,2-2.5Z"/>
      <path d="M158,169l-3,2-1,3c.1-1.7-.4-3.4.5-5,1.03-1.83,1.93.47,3.5,0Z"/>
      <polygon points="102 179 100 176.5 101 173 102 173 102 179"/>
      <polygon points="79 115 79 116 76.5 117 75 115 79 115"/>
      <path d="M113,236c-1.25.65-3.5-1.6-3-2,1.25-.65,3.5,1.6,3,2Z"/>
      <circle cx="158.02" cy="173.98" r="1.24"/>
      <rect x="157" y="184" width="3" height="1"/>
      <polygon points="41 51 39 53 39 51 41 51"/>
      <polygon points="73 99 71 99 71 97 73 99"/>
      <rect x="60" y="88" width="1" height="2"/>
      <polygon points="72 108 71 108 72.5 105 73 105.5 72 108"/>
      <rect x="72" y="110" width="2" height="1"/>
      <rect x="79" y="119" width="2" height="1"/>
      <path d="M111.5,230c.65,0,.65,1,0,1s-.65-1,0-1Z"/>
      <path d="M113.5,251c.65,0,.65,1,0,1s-.65-1,0-1Z"/>
      <path d="M157.5,188c.65,0,.65,1,0,1s-.65-1,0-1Z"/>
      <path d="M89.5,186c.65,0,.65,1,0,1s-.65-1,0-1Z"/>
      <path d="M69.5,101c.65,0,.65,1,0,1s-.65-1,0-1Z"/>
      <path d="M60.5,81c.65,0,.65,1,0,1s-.65-1,0-1Z"/>
      <rect x="56.65" y="79.94" width=".71" height="2.12" transform="translate(-40.58 64.03) rotate(-45)"/>
      <path d="M450,288h-3l-1-2.5c-.35-.52,2.28-.53,3-2,.74-1.52-.78-1.83-2-1.5v-7l2.5-1c2.82.5,4.63,2.51,6.5,4.5.66,2.19-7.53,6.07-6,9.5Z"/>
      <path d="M466,163c-1.17,1.35-1.92.12-2-1.5-.14-2.92-.56-5.28,2-7l1-3.5-1,12Z"/>
      <polygon points="448 201 445 199.5 446.5 197 448 198.5 448 201"/>
      <rect x="449" y="179" width="2" height="4"/>
      <rect x="496.23" y="274.22" width="2.3" height="4.12" transform="translate(-52.16 128.88) rotate(-14.04)"/>
      <path d="M458,150c.24,1.88,0,3.47-2,4v-4h2Z"/>
      <rect x="463" y="166" width="2" height="3"/>
      <polygon points="464 174 462 174 462 172.5 463.5 171 464 171 464 174"/>
      <path d="M506,289c-1.81.51-2.02-.9-3-1.5-1.47-.9-2.48.17-2-2.5,1.58,1.37,4.23,2,5,4Z"/>
      <path d="M505,283c-1.25.65-3.5-1.6-3-2,1.25-.65,3.5,1.6,3,2Z"/>
      <polygon points="450 216 448 214.5 449.5 213 450 213 450 216"/>
      <path d="M501,297c-1.25.65-3.5-1.6-3-2,1.25-.65,3.5,1.6,3,2Z"/>
      <path d="M505,300c-1.25.65-3.5-1.6-3-2,1.25-.65,3.5,1.6,3,2Z"/>
      <circle cx="454.02" cy="159.98" r="1.24"/>
      <rect x="460" y="186" width="1" height="3"/>
      <polygon points="519 278 517 280 517 278 519 278"/>
      <rect x="450" y="156" width="2" height="1"/>
      <rect x="461" y="181" width="1" height="2"/>
      <rect x="456" y="206" width="2" height="1"/>
      <path d="M467.5,148c.65,0,.65,1,0,1s-.65-1,0-1Z"/>
      <path d="M504.5,275c.65,0,.65,1,0,1s-.65-1,0-1Z"/>
      <path d="M457.5,281c.65,0,.65,1,0,1s-.65-1,0-1Z"/>
      <rect x="504.65" y="291.94" width=".71" height="2.12" transform="translate(-59.27 442.91) rotate(-45)"/>
      <path d="M411,110c-1.98-3-.38-1.14,1.5-3l4.5,6c-1.75.78-3.17-.95-3.5-1-3.71-.54-8.44-.37-12-1-.39-.07-.89-1.55-2.5-1v-4l2,1v-2.5l-3-2c1.77-2.1,1.38-1.45,3,0,2.21,1.97,1.42,1.99,2,4,.44,1.54,6.13,3.15,8,3.5Z"/>
      <path d="M442,116l1,4c-1.63.55-2.04-.89-2.5-1-4.34-1.03-8.57-1.94-13-3l-4.5-2.5c1.42-1.82,1.89-1.74,4-1,.88.31,2.32,1.45,2.5,1.5,2.54.68,5.63.54,8,3l4.5-1Z"/>
      <path d="M511,126c-3.31-.08-4.53-3.04-4-6,2.55-.96,4.84,5.1,4,6Z"/>
      <path d="M451,119l1,3.5-4,1.5c-.63-1.9.59-2.55,1-3.5.48-1.11-.83-1.92,2-1.5Z"/>
      <path d="M471,126c-1.51-.39-1.59-1.88-3.5-2-1.57-.1-2.35,2.18-3.5-1l7,3Z"/>
      <path d="M516,150c2.14-.08,3.73-.41,5,1.5l-1.5,1.5h-1l-2.5-3Z"/>
      <polygon points="396 103 396 107 394 107 393 104.5 396 103"/>
      <polygon points="461 123 459.5 123 458 121.5 460.5 119 461 119 461 123"/>
      <path d="M472,134h-2v-4c2.01.53,2.24,2.12,2,4Z"/>
      <polygon points="483 132 480 132 480 130.5 481.5 129 483 130.5 483 132"/>
      <path d="M412,99v2c-2.24.32-3.34-2.13-5-3.5l.5-.5c1.34,1.64,2.29,2.39,4.5,2Z"/>
      <circle cx="383.02" cy="98.98" r="1.24"/>
      <polygon points="385 104 383.5 106 382 104.5 382 104 385 104"/>
      <polygon points="376 80 373 80 373 79.5 374.5 78 376 80"/>
      <polygon points="469 116 467 118 467 116 469 116"/>
      <polygon points="531 150 529 152 529 150 531 150"/>
      <rect x="422" y="102" width="1" height="2"/>
      <rect x="379" y="103" width="2" height="1"/>
      <rect x="494" y="135" width="2" height="1"/>
      <path d="M454.5,120c.65,0,.65,1,0,1s-.65-1,0-1Z"/>
      <path d="M420.5,112c.65,0,.65,1,0,1s-.65-1,0-1Z"/>
      <path d="M408.5,106c.65,0,.65,1,0,1s-.65-1,0-1Z"/>
      <path d="M370.5,102c.65,0,.65,1,0,1s-.65-1,0-1Z"/>
      <path d="M387.5,94c.65,0,.65,1,0,1s-.65-1,0-1Z"/>
      <path d="M203,17v5c-.19.19-1.03-.27-1.5,0-2.21,1.26-1.13,2.89-1.5,4.5-.09.37-1.59,1.04-1,3,.13.41.93.63,1,1,.49,2.76-1.08,6.7,1,9l-2,.5-1-9-3,1c-.8-3.8,1.59-5.08,4-7.5l-1-1,3-1.5c.73-.73-1.7-6.09,2-5Z"/>
      <polygon points="202 47 198 45 197 49 198.5 41 201.5 43 202 47"/>
      <path d="M195,58l-1-4c1.9-.39,2.67,1.3,4,2.5l-1.5,1.5h-1.5Z"/>
      <polygon points="197 79 195 76.5 195 71 197 79"/>
      <path d="M201,50c-.31,1.18-1.42,1.49-1,3h-2v-3h3Z"/>
      <rect x="205" y="80" width="1" height="5"/>
      <circle cx="201.02" cy="138.98" r="1.24"/>
      <polygon points="206 131 206 128 206.5 128 208 129.5 206 131"/>
      <rect x="194" y="66" width="1" height="4"/>
      <polygon points="206 76 206 78 205.5 78 204 76 206 76"/>
      <polygon points="202 111 200 111 200 109 202 111"/>
      <path d="M206.5,123c.65,0,.65,1,0,1s-.65-1,0-1Z"/>
      <path d="M204.5,72c.65,0,.65,1,0,1s-.65-1,0-1Z"/>
      <path d="M203.5,57c.65,0,.65,1,0,1s-.65-1,0-1Z"/>
      <path d="M196.5,17c.65,0,.65,1,0,1s-.65-1,0-1Z"/>
      <polygon points="50 163 51 173 47 171 47 164.5 50 163"/>
      <path d="M332,263v4c-.52.52-5.01-1.73-5-2.5,1.27-1.91,2.86-1.58,5-1.5Z"/>
      <path d="M345,233l-4-1v-2h2.5c1.06.94,1.82,1.5,1.5,3Z"/>
      <path d="M343,223c.29,1.9-1.1,3.29-3,3v-3h3Z"/>
      <path d="M339,237c-1.9.29-3.29-1.1-3-3,1.9-.29,3.29,1.1,3,3Z"/>
      <polygon points="338 239 338 241 337.5 241 336 239 338 239"/>
      <path d="M347.5,201c.65,0,.65,1,0,1s-.65-1,0-1Z"/>
    </g>
  </g>
</svg>