<?xml version="1.0" encoding="UTF-8"?>
<svg id="Layer_1" xmlns="http://www.w3.org/2000/svg" version="1.1" viewBox="0 0 67.7 431.6">
  <!-- Generator: Adobe Illustrator 29.3.1, SVG Export Plug-In . SVG Version: 2.1.0 Build 151)  -->
  <g id="Shape_45">
    <path d="M44.2,108c-.4-1.4-1.7-1.1-2.6-1.5-.2,0-.6-.3-.6-.4-.2-1.1-.6-1.9-1.7-2.3-1.1-.4-1.8-1.5-3-1.8-1.2-.3-2.3-1-3.5-1.5-.2,0-.5,0-.8,0,0,.2.1.5.3.7.2.2.6.4.8.6.2.2.2.6.3.9-.3,0-.7,0-.9-.1-.2,0-.3-.4-.4-.6-.5-.6-1.1-1.3-2-.4-.1.1-.5,0-.7,0,0-.3,0-.8.2-.9.6-.3,1.2-.4,1.8-.6.3-.1.6-.4,1-.6-.3-.2-.6-.5-1-.5-1.3-.2-1.5-.6-1.4-2,0-.5-.4-1.1-.7-1.6,0,0-.5.2-.7.3-.3.1-.6.5-.9.4-.2,0-.4-.5-.6-.8.3-.2.6-.4.9-.5.5-.1,1-.1,1.4-.3.3,0,.5-.3.8-.5-.4-.2-.9-.7-1.1-.6-1,.5-1.5,0-2.1-.7-.1-.2-.5-.4-.6-.3-1.2.7-1.5,0-1.7-1-.2-1-.9-1.8-1.7-2.5-.2-.1-.2-.4-.3-.6.2,0,.5-.1.7-.1.3,0,.6.1.9.2,0-.5,0-1-.2-1.3-.3-.5-.9-.7-1.3-1.1-.2-.2-.3-.5-.4-.8.3,0,.6-.2,1-.2.2,0,.4.2.6.2.2,0,.5-.2.7-.3,0-.2-.2-.4-.3-.6-.2-.2-.4-.3-.6-.4-.4-.3-1-.6-1-1,0-.6.2-1.2,1.1-1.4.7-.1.8-.5.2-.9-.9-.5-.6-1.3-.4-2,.2-.9.5-1.9.7-2.8,0-.3-.2-.4.3-.6.6-.2,1-.9,1.4-1.5.8-.9,1.3-2.3,2.3-2.6,1.2-.4,1.7-1.4,2.6-1.9.8-.5,1.9-.6,2.9-.7.9-.1,1.4-.3,1.8-1.2.2-.5,1-1,1.5-1.1,1.1-.2,2.2.2,3.2-.5.3-.2.9,0,1.2,0,.8.3,1.6.2,2.2-.5.5-.6.9-.4,1.5,0,.3.2.9.2,1.2,0,1.1-.6,2.7-.5,3.7.3.4.3.8.7,1.2.7,1.1,0,2.2-.4,3.3-.6.1,0,.2-.3.4-.4-.2-.1-.4-.3-.6-.3-.3,0-.6,0-.9,0-.3,0-.5-.1-.8-.2.3-.2.5-.7.8-.7,1.8,0,3.1-1,4.6-1.7.2,0,.5,0,.7.2.8.6,2.2.5,2.8-.2.1-.1.2-.4.2-.6-.2,0-.4,0-.6,0-1,.2-2,.5-3-.2-.2-.2-.8.2-1.2.3-.2,0-.3.2-.5.2,0-.2-.3-.6-.2-.7.4-.4.9-.9,1.4-1,.9-.3,1.9-.3,2.9-.5.2,0,.4-.3.6-.5-.2-.1-.5-.4-.7-.4-.8,0-1.7-.3-2.4.6,0,.1-.5,0-.7,0,0,0-.1-.4,0-.5.2-1.2.8-1.8,2.1-1.7.9,0,1.6-.3,1.9-1.2,0-.3,0-.6,0-.9-.2,0-.5.1-.7.2-.3,0-.5.1-.8.2,0-.3.1-.6.3-.9.2-.3.4-.6.7-.7,1.1-.5,1.1-1.5,1.3-2.5.3-1.3,1.1-2.4,1.7-3.6.4-.8.9-1.5,1.3-2.3,0-.2,0-.6,0-.6-.3,0-.7-.2-.8,0-.3.3-.6.7-.8,1.1-.3.6-.6,1.3-1,1.9-.1.2-.5.1-.8.2,0-.2,0-.5,0-.7.4-.6.9-1.1,1.2-1.7.2-.3.4-.9-.4-.8-.3,0-.6,0-.8,0-.2,0-.4-.3-.6-.5.2-.1.3-.3.5-.4.5-.5,1.1-1,1.7,0,0,.1.4,0,.7,0,1.1.2,2.2.3,3.2.5.6.1.7.5.3,1-.3.4-.6.7-.7,1.1,0,.3,0,.6,0,.9,0,.5.2,1,0,1.4-.3.8-1.1,1.4-.2,2.3,0,0,0,.4,0,.6-.3,1.4-.6,2.8-1,4.2,0,.3-.4.4-.7.7,0-.3,0-.5.1-.8,0-.1,0-.3,0-.3-.3,0-.7-.1-.9,0-.3,0-.6.4-.7.6,0,.2.3.5.5.7,1,.6,1.4,1.5,1.1,2.6,0,.2-.3.3-.4.5,0-.2-.2-.4-.3-.5-.2-.2-.4-.4-.6-.7-.3.3-.6.5-.8.8,0,.2.1.6.3.8.3.2.7.3,1,.5.2.1.2.4.3.6-.2,0-.4,0-.7.2-.5.2-1.2.3-1.5.6-.3.3-.7,1,.2,1.4.2,0,.2,1,.1,1-1.4.4-1.3,1.9-1.8,2.8-.7,1.4-1.5,2.7-3.1,3.2-.3,0-.5.4-.7.5-.3.2-.7.4-1,.4-1.1-.2-1.8-.1-1.6,1.3,0,.1-.2.4-.4.4-1.2.3-2.4.5-3.6.7-.7.1-1.4.3-2.1.3-.8,0-1.7,0-2.5,0-.2,0-.4-.4-.6-.7.2-.2.4-.3.6-.5.5-.5.9-1,1.4-1.4.3-.2.7-.3,1.1-.5,0,.3.1.6.2.9.1.3.3.7.5,1,.2-.3.6-.7.6-1,0-.7.6-2-1-1.9,0,0-.1-.2-.1-.3.3-.5.6-1.1,1.1-1.5,0,0,.7.4,1.1.6.2,0,.4.2.5.1.6-.8.9-.3,1.4.1.3.2.8,0,1.3,0-.2-.4-.4-.8-.7-1.1-.2-.2-.5-.3-.8-.2-.9,0-1.8.3-2.6-.4-.1-.1-1.1.3-1.4.7-.9,1.1-1.7,2.3-2.5,3.4-.1.2-.4.2-.6.3-.6.2-1.3.3-1.7.7-.6.5-.9,0-1.3-.1.2-.3.3-.5.5-.8.3-.4.7-.7,1-1-.7,0-1.5-.1-2.1.2-.5.3-.8,1-1,1.7-.3.7-.3,1.3-1.4.8-.5-.2-1.2,0-1.8.2-.4,0-.8.5-1.1.4-1.4-.3-2.1.5-2.8,1.5-.7,1.1-2,1.3-3,1.8-.2,0-.5-.1-.7-.2-.9-.5-1.5-.3-1.8.7-.1.6-.3,1.1-.5,1.7-.2.7-.3,1.4-1.2,1.6-.2,0-.3.3-.4.5.2.1.4.4.6.4.6.1,1.2.1,1.8.3.2,0,.5.3.7.5-.2,0-.4.2-.7.2-.4,0-.8,0-1.1.2-1.3.6-1.5,1.4-.6,2.4.4.5.7.8.3,1.5-.1.2.3.8.6,1.1.5.3,1.1.4,1.6.7.3.2.8.8.8,1-.6,1.5.6,1.7,1.4,2,1.3.5,1.4.5.8,1.7-.1.3,0,.7.1,1,.2-.2.5-.3.7-.6.2-.2.1-.6.3-.8.1-.2.3-.4.5-.6.3.3.8.6.8.9,0,1.4.4,1.8,1.8,2,.4,0,.8.2,1.1.4.2,0,.2.3.3.5-.2,0-.3.2-.5.3-.3.1-.6.3-.8.4.2.2.3.4.5.4.4.1.8.3,1.1.1.3-.1.5-.6.7-.8.2-.2.5-.4.6-.4.2,0,.5.3.5.6.2,1,.8,1.4,1.8,1.3,1.7-.1,2.9.8,4,2.1.6.7,1.2,1.4,2.3.7.2-.1.5,0,.8,0,.8.4,1.6,1,2.6.5,0,0,.8.7.8,1,0,1,.7,1.3,1.4,1.7.3.2,1,.4,1,.5-.2.6-.4,1.3-.7,1.9,0,.2-.3.2-.4.4.2.1.3.3.5.4,1.5.6,1.8.3,2.1-1.4,0-.5.5-1,.8-1.4.1-.1.6,0,.9.2.1,0,0,.6,0,.6-1.2.2-.6,1.4-1.1,2,.2.1.3.3.5.4.1-.2.3-.4.4-.6.1-.3.2-.6.2-.9.2.2.4.5.6.5.3,0,.6,0,.8-.1.3-.1.7-.3,1-.5.1.4.4.7.4,1.1,0,.4,0,.8,0,1.1,0,.2-.4.4-.5.4-1.2-.3-2.3-.4-3.2.8,0,0-.5-.1-.7-.3-.3-.1-.5-.4-.8-.5,0,0-.4.4-.4.5.1.3.3.5.6.7.9.8,1.7.7,2.8.3,1-.4,2.3-.1,3.4,0,1,0,2,.3,3,.5.2,0,.5.2.7.3-.2.1-.5.3-.7.4-1.1.2-2.1.3-3.2.6-.8.2-.7,1-.4,1.5.2.3,1,.5,1.4.3,1.5-.7,3.6.5,3.7,2.2,0,1.1-.1,1.8-1.4,1.9-.4,0-.8.6-1.3.6-.9,0-1.9.2-2.7,0-.8-.3-1.4-.4-2.1-.1-.5.2-1.1.2-1.6,0-.7-.3-1.2-.2-1.8.3-.2.2-.7.5-.9.4-1.1-.9-2.4-.3-3.5-.4-1-.1-1.8.3-1.8,1.5,0,.8-.8,1.3-1.6,1.2-.5,0-1,.1-1.4.2-.4,0-.8.4-1,.3-1.4-.9-2.5.3-3.8.3-.7,0-1.3.4-2,.4-.3,0-.9-.3-.9-.5-.1-1-.7-.6-1.1-.4-1.5.9-1.5.9-2.2-.6,0-.2-.7-.2-.7-.2-.6,1.3-1.3,1.3-2.6.5-.8-.5-2.1-.2-3.1-.6-1-.3-1.8-.4-2.7.2-.6.4-3.1-.6-3.5-1.2,0,0,.1-.4.2-.4,1-.3,2-.5,3-.7.2,0,.5-.6.5-.7-.6-.5-.2-1,.1-1.1.3,0,.9.3,1.2.6.3.4.3,1,.5,1.4.1.2.5.3.8.5,0-.3.2-.6.1-.8-.2-1.1,0-1.4,1-1.5,1.3,0,2.7.1,3.8-.3,1.3-.5,2.4-.8,3.7-.4,0,0,.3-.5.5-.7.2-.3.3-.6.4-.9.2.2.5.3.7.5.2.2.3.6.5.8.3.3.6.5.9.7.1-.3.2-.6.3-.9.2-.4.3-.8.5-1.1.6-.4,1.2,0,1.4.7,0,.3.5.8.6.8.4,0,.8-.4,1.2-.6-.1-.2-.2-.4-.4-.5-.2-.1-.4-.1-.6-.2.1-.2.2-.5.4-.5.6-.1,1.2-.2,1.8-.3.2,0,.5-.1.7-.2-.2-.2-.3-.3-.5-.5-.2-.2-.4-.3-.6-.5.3,0,.7-.2.9-.1.8.5.9-.3,1.3-.5.2-.1.6-.4.6-.3.5.7.8.8,1.6.1.2-.2,1.5.3,1.9.8,1.1,1.1,1.9,1.1,2.6-.2.3-.6.9-.5,1.2,0,.4.8.7.5,1.1,0,0-.1.2-.2.3-.3.2-.2.4-.5.6-.7-.4-.2-.7-.5-1.1-.5-1.2,0-2.4-.3-3.2,1.1-.4.7-1.4.5-1.8-.4-.5-1.1-1.1-1.6-2.2-.7-.1.1-.4.1-.5,0-.4,0-.8-.2-1.1-.3,0,0,0-.6,0-.6.3,0,.6,0,1,0,.3,0,.7.1.9,0,.3-.2.6-.5.9-.8-.3-.1-.7-.3-1-.4-.8-.2-1.7-.4-2.5-.5-.7-.1-1.4-.6-2,.4,0,0-.6-.1-1-.2M51.2,105.1c-.4.5-2,.7-.3,1.6,0,0,0,.2,0,.3-.1,0-.3,0-.4,0-.1,0-.3,0-.4,0,0,.1,0,.3,0,.3,1.3.6,1.8,1.8,2.3,3,0,.1.4.2.6.3.2-.6.5-1.3.5-1.9,0-.3-.6-.6-.9-.9-.2-.3-.7-.6-.6-.8,0-.4.3-.8.6-1.1.3-.3.8-.4,1.1-.7.1,0,.2-.3.3-.4-.2,0-.3-.3-.5-.3-.8,0-1.6.2-2.4.5M44.3,105.2c.4.3.8.6,1.2.9.2.2.3.4.5.6.1-.3.4-.5.4-.8,0-.4-.1-.9.6-.4.8.6,1.6.5,2.4,0,.2-.1.4-.4.5-.6-.4-.1-.7-.3-1.1-.3-.4,0-.8.2-1.2.2-1.7-.1-3.5-.3-5.2-.4-1.2,0-1.2,0-.7,1,.4.9,1.3.9,1.9,0,.1-.2.4-.2.7-.2M61.4,115.5c-.4-.9-1.1-1.2-1.9-.9-1.1.4-2.1.9-3.2,1.4-.2,0-.3.4-.4.6.2,0,.5,0,.7,0,1.1-.3,2.2-.8,3.5-.4.4.1,1.3.4,1.4-.7M63.5,116.4c.2,0,.5-.2.7-.3,0,0,0-.2,0-.2-.5-.5-.5-.5.1-.8.2,0,.3-.3.5-.5-.1-.1-.3-.4-.4-.4-.6.2-1.3.2-1.6.6-.3.4-.2,1.2.7,1.5M52,70.3c-.3.4-.6.7-.8,1.1-.1.2,0,.5,0,.7,0,.1.4.3.4.2.4-.3.9-.6,1.2-1,.2-.3,0-.8-.1-1.2,0,0-.4,0-.7.2M59.5,113.1c.1,0,.2,0,.4,0,.4,0,.7-.2,1.1-.2-.3-.2-.5-.5-.8-.7-.1-.1-.2-.3-.3-.3-.2,0-.6,0-.7,0-.2.4-.3.9-.5,1.3.2,0,.5,0,.8,0M46.9,117.9c-.2.3-.4.6-.6.8.2,0,.5.3.7.2.7-.3,1.3-.6,1.9-1,0-.1-.2-.4-.3-.4-.6,0-1.1.1-1.8.3M34.6,96.5c0,.2.1.4.2.6.1.2.3.3.4.5,0-.2.2-.3.3-.5,0-.2.1-.5,0-.7-.3-.5-.8-.9-1.2-1.3,0,0-.2,0-.3,0,.1.4.2.8.4,1.1,0,0,0,0,.2.2M45.2,67.3c0,.3-.2.6-.2.9,0,.1.2.3.3.3.6-.4,1.2-.7,1.8-1.1,0,0,0-.3,0-.4-.5,0-1.1.1-1.6.2,0,0,0,0-.2.1M29.1,74.7c.5-.2,1.1-.4,1.6-.7,0,0,0-.3,0-.5-.6,0-1.2,0-1.7.2-.3,0-.4.6-.5.9.1,0,.2,0,.6,0M37.9,117.9c0,.6,0,1.3.9,1,.3-.1.5-.7.8-1-.5,0-1,0-1.6,0M48.7,115.4c-.5-.1-1-.3-1.5-.3-.1,0-.3.5-.4.8.3.1.7.4,1,.4.3,0,.6-.4.9-.9M40,71.5c0-.2,0-.4,0-.6-.3-.3-.6-.6-.9-1-.1.2-.3.5-.4.7.4.3,0,1.6,1.3.9M33.5,73.5c0-.2,0-.4,0-.6-.2,0-.4,0-.6.2-.4.4-.9.8-1.2,1.2,0,.1,0,.5.1.7,0,0,.3,0,.3,0,.4-.4.8-.9,1.3-1.5M50.3,115c-.2.2-.3.5-.5.7.5.2,1,.5,1.5.7,0,0,.3-.2.3-.2-.3-.4-.6-.8-.9-1.2,0,0,0,0-.3,0M33.3,71.1c-.2-.2-.5-.7-.7-.7-.4,0-.9.2-1.3.4.1.2.2.5.4.5.5,0,.9-.1,1.6-.2M32.5,119.1c0-.4,0-.9,0-1.3,0-.2-.2-.4-.4-.5,0,0-.3.1-.4.2-.5.6,0,1.5.8,1.5M41.8,119.5c0-.5.1-1,.1-1.5,0-.2-.2-.4-.3-.6-.2.2-.5.3-.6.5-.3.6,0,1.2.7,1.6M34.7,118.5c.3,0,.6,0,.8,0,.3,0,.6-.2.9-.3-.3-.2-.5-.5-.8-.6-.3,0-.7,0-1.1.2,0,0,0,.4.2.7M57.2,64.4c.5-.3,1.1-.6,1.6-.9,0,0,.1-.3.2-.4-.2,0-.4-.2-.6-.1-.5.3-1,.6-1.4,1,0,0,0,.4.2.4M34.7,100.1c.2,0,.7,0,.7,0,0-.4,0-.9,0-1.3,0,0-.3-.1-.4,0-.3.2-.5.5-.7.8,0,0,.1.3.3.6M38.6,98.9c-.5.3-.9.7-1.4,1,.2.2.3.3.5.5.3-.5.7-.9.9-1.5M26.7,77.5c.2-.2.3-.5.5-.7-.3,0-.7-.1-.9,0-.3.2-.4.7-.6,1,.3,0,.6-.1,1.1-.3M31.8,95.8c-.5.4-.5.9,0,1.3,0,0,.5-.1.5-.2,0-.4,0-.8-.1-1.3,0,0-.1,0-.3.1M65.7,51.9c-.3-.3-.6-.8-1.1-.3-.1.1-.1.4-.2.6.4,0,.9,0,1.3-.4M42.9,68.9c.2-.2.5-.5.7-.7-.2-.1-.5-.4-.5-.3-.3.2-.6.5-.9.7.2.1.4.3.7.3M42.6,98.6c.5.3,1,.6,1.5.8,0,0,0-.2.1-.3-.5-.2-.9-.5-1.4-.7,0,0,0,0-.2.1M64.7,48.5c-.2.2-.4.5-.7.7.3,0,.7,0,1,0,0-.3,0-.5-.4-.8M43.6,102.9c.2-.1.5-.2.6-.4.1-.2,0-.5,0-.8,0,0-.3-.1-.4,0-.2.1-.4.3-.5.5,0,.2,0,.4.2.8M47.1,101.7c-.4-.2-.8-.3-.7.4,0,.2.3.5.4.7.1-.3.3-.6.3-1.1M50.3,113.1c.3-.1.5-.2.8-.3-.1-.1-.2-.4-.3-.4-.3,0-.7.2-1,.3.1.1.2.3.6.4M39.2,100.9c0,.3,0,.5-.1.8.3-.1.5-.2.8-.3-.1-.2-.3-.3-.7-.5M36,71l.8.2c0-.2,0-.4,0-.6-.2,0-.4.2-.8.4M39.7,103.4c.2,0,.5-.2.7-.3,0-.1-.1-.3-.2-.4-.2.2-.4.4-.5.7M57.7,65.1c.2,0,.5.2.7.2,0,0,.1-.3.2-.5-.3,0-.5,0-.9.3M60.3,66.1c-.2-.2-.4-.4-.5-.6,0,.1-.2.3-.2.3.2.2.5.3.7.3M54.4,70.3c-.2-.2-.4-.4-.6-.5,0,.1-.2.2-.3.3.3.1.5.2.9.2M56.2,64.3l-.3-.5c0,.2-.2.4-.3.6.1,0,.3,0,.5-.2Z"/>
    <path d="M31.9,127c0,0,0-.1,0-.2.2-.4.4-.7.7-1.1-.1,0-.3-.1-.4,0-.6.3-1.1.7-1.6,1.1-.2.1-.1.5-.3.7-.3.2-.6.4-.9.6-.2-.3-.3-.5-.4-.8,0-.2,0-.4,0-.6,0-.2-.2-.5-.3-.7-.2.1-.7.3-.7.4,0,1.1-1.1.8-1.6.8-1.8-.2-3.6-.6-5.5-1-.2,0-.3-.4-.5-.7.4-.2.7-.5,1.2-.7.3-.1.9,0,.9,0,.2-.8.4-1.7.5-2.5-.2,0-.4,0-.5,0-.2.1-.3.4-.5.5-.4.2-.8.5-1.2.5-.2,0-.7-.5-.6-.7.2-.4.5-.8.8-.9,1.3-.3,1.4-.6.2-1.2-.5-.3-.9-.7-.3-1.1.2-.2.9,0,1.1.1.5.3.8,1.1,1.4,1.2,1.1.3,2.3.3,3.5.5,1.9.3,3.9.7,5.8,1.1.6.1,1.2.3,1.9.3,1.1,0,1.4.6,1.6,1.5.2.7.5,1.2,1.3.7.2-.1.6-.1.9,0,1.3.4,2.5.9,3.8,1.5.4.2.9.6.2,1.2-.2.1-.1.7,0,.9.8.7.5,1.4,0,2.2-.2.3-.1.7-.2,1.1.3,0,.7.1.8,0,.2-.3.4-.7.5-1.1.1-.4.1-.8.2-1.2.2-.7.4-1.5.6-2.2,0-.2.3-.3.5-.5,0,.2.2.4.2.7.1.4.1.9.3,1.3.5,1.3.3,1.9-.7,2.7-.2.1-.3.3-.4.4.2,0,.4.2.6.2,1,0,1.9-.1,2.9,0,1.1.2,1.1.8.5,1.7-.5.8-1,1.7-.4,2.7,0,.2.2.5.1.6-.6,1.4.3,1.1,1.1,1,1.3-.2,2.6-.2,3.8-.3.1,0,.3,0,.4,0,1.2.5,2.3.7,3.6,0,.3-.2,1,.2.8.9-.1.5-.4,1-.7,1.4-.3-.2-.5-.6-.9-.7-.7-.2-1.4-.3-2.1-.4-.1,0-.4.2-.5.4,0,.1,0,.4,0,.5.6.6,1.4,1.1,2.3.8.2,0,.4,0,.5,0-.2.1-.3.4-.5.4-1.1.3-2.2.7-3.2.7-1.4,0-1.9,1.2-3,1.4,0,.2,0,.7.2.7.3,0,.8.1,1,0,1.1-.8,2.1-.2,3.2,0,.4.1.9.9,1.3.1.1-.2-.6-.9-.9-1.3-.2-.2-.5-.3-.8-.4.4,0,.8,0,1.2-.1.8-.1,1.7,0,2.3-.4.7-.5,1.3-.4,2.1-.3,1.1.2,2.2,0,3.3.1.2,0,.5.2.7.3-.2.2-.3.6-.5.6-1,0-2.1,1-3.1-.1-.4-.4-3.1.4-3.3.9,0,0,.2.2.2.2.5,0,1,0,1.5,0,.6,0,1.3-.3,1.6.6,0,.1.4.1.6.1.5,0,1,0,1.5,0,.3,0,.6.4.9.6-.3.1-.5.3-.8.3-.6.1-1.3.1-1.9.3-.8.2-.9.7-.4,1.4.3.6.5,1.2.9,1.8.3.5.8,1,1.2,1.5.2.2.4.3.6.4-.2.2-.4.5-.7.6-.5.1-1,.2-1.5.3-1.1.2-2.3-.4-3.3.4,0,0-.4,0-.5-.2-.6-.7-1.2-.4-2-.3-1.4.1-2.8,0-4.2-.2-1,0-1.9-.1-2.7.6-.1.1-.3.1-.5.2,0-.2,0-.3,0-.5,0-.2,0-.6,0-.6-.4-.1-.8-.2-1.2-.2,0,0-.1,0-.2.2-.5,1.9-2.3,2.2-3.8,3-.1,0-.3.2-.4.2-.4,0-.7,0-1.1-.1.2-.2.4-.5.7-.6.9-.5,1.8-.9,2.6-1.3.3-.2.5-.5.7-.8-.4,0-.8-.2-1,0-.7.3-1.4.7-2,1.2-1.5,1-3.3,1-5,1.4-1.2.3-2.6.2-3.5,1.2-.2.2-.6.2-.8.2-.2,0-.3-.4-.4-.6,0-.2-.1-.5-.2-.7-.3.2-.6.3-.9.5-.1.1-.1.4-.1.6,0,.9-.8,1.3-1.7,1-.1,0-.2-.3-.2-.4,0-.4,0-.7,0-1.1,0-.3-.4-.4-.6-.6-.2.2-.5.4-.5.6,0,.5,0,1,0,1.4-.1.4-.4.8-.7,1.2,0-.7-1.9-.2-1-1.5,0,0,0-.2,0-.2-.2-.6-.3-1.1-.5-1.7,0,0-.4,0-.4,0,0,.5,0,1.1,0,1.6,0,.3.1.6,0,.9,0,.4-.3.8-.5,1-.1.1-.7-.1-.9-.3-.5-.6-.9-.6-1.5,0-.3.2-.9,0-1.4,0-.4,0-.9-.2-1.2,0-.8.3-1.8-.3-1.9-1.3,0-.9-.2-1.7-.3-2.6,0-.3,0-.6,0-.9.3,0,.7,0,.9.2.3.4.5.9.8,1.3,0,.2,0,.5.1.7.3.4.6.7,1,1,0-.4.2-.8,0-1.2-.2-1.1-.4-2.2-.8-3.2-.3-1,.1-1.2.9-1.2,1.2,0,2.6.4,3.5-.1,1.4-.7,2.2.3,3.3.3.8,0,1.2-.2.7-1-.4-.8.2-1.1.7-1.5,0,0,.6.2.7.4.1.2,0,.5,0,.8,0,.4,0,.8.2,1,.1.1.8,0,.9,0,.2-.2.2-.8,0-1-.7-1,.2-1.6.8-1.6,1.7,0,3-.9,4.5-1.3,0,0,.1-.1.2-.1.4,0,.8.2,1.3.3-.3.1-.7.3-1,.4-.3,0-.6.1-.8.3-.1,0-.3.2-.3.4,0,.1.2.3.3.3,2,.2,4,.6,6-.2.3-.1.5-.2.7-.4-.4-.2-.7-.5-1.1-.5-.6,0-1.1.4-1.7.4-.3,0-.7-.3-1-.5.2-.3.6-.9.7-.9,1.3.5,2.3-.4,3.5-.5,1.2-.1,1.3.1,1,1.3-.1.4-.2.9.4,1.2.6.3,1,.9,1,1.7,0,.4.9.8,1.3,1.2,0-.2.3-.5.2-.5-1.6-1.6-.8-2.1.9-2.5.3,0,.5-.6.7-1,0-.1,0-.5-.2-.6,0,0-.4,0-.5,0-.5.3-.9.7-1.4,1-.2.1-.4.3-.6.4-.1-.2-.3-.4-.3-.7-.1-1,.3-1.5,1.8-1.6,1.1,0,1.6-.5,1.8-1.6.2-1.3,2.3-2,3.8-1.4.3.1.7,0,1,0-.2-.3-.4-.6-.7-.8-.2-.2-.4-.3-.6-.4-1.5-1-1.9-1-3.3,0-.3.2-.3.7-.5,1-.2.2-.5.4-.7.6,0-.2-.2-.5,0-.7.6-1.2-1.1-2.4-2.1-2.1-.6.2-1.1.5-1.3-.4-.2-.9.5-.8,1.1-.9.3,0,.8-.3.9-.5.1-.4,0-.9-.1-1.3,0-.1-.8-.1-1,0-.7.4-1.2.6-1.9,0-.2-.2-.7-.2-.9,0-1.1.8-2.1-.1-3.1-.3-.2,0-.4-.3-.4-.4,0-.2.2-.4.4-.5.4-.3.9-.6,1.4-1,.1,0,.2-.3.2-.4-.2,0-.3-.2-.5-.3-1.7-.3-3.4-.6-5.1-1-.2,0-.3-.3-.4-.5-.1-.3,0-.8-.3-1.1-.2-.3-.5-.5-.8-.8-.1.3-.2.5-.3.8,0,.2-.1.5-.3.7-.1.2-.4.3-.7.4,0,0-.2-.3-.3-.5-.2-.5-.3-1-.5-1.5,0-.3,0-.6,0-.9,0-.5.2-1,.4-1.5M58.7,146.5c0-.4-.1-.8-.2-1.2,0-.4-.2-.7-.3-1.1-.4.2-1,.3-1.3.7-.6.5-1,1.1-1.5,1.7-.3.4-.5.8-.7,1.2.4,0,.8,0,1.2,0,.2,0,.3-.1.5-.2.1,0,.3-.2.2-.4,0-.2-.1-.4-.2-.7.4,0,.8,0,1.3,0,.4,0,.7.1,1.1,0M51.6,150.7c1.1-.2,2.2-.4,3.3-.6.3,0,.6-.3.9-.4-.3-.3-.5-.9-.8-1-1.5-.3-2.9,0-4.1.9,0,0,0,.4,0,.4.2.2.4.3.7.6M45.8,133.2c-.6.7-1.2,1.1-2.1.3-.3-.3-.8-.4-1.3-.5-.1,0-.4.2-.5.4-.1.2-.1.5-.2.7.2,0,.4,0,.6,0,.2,0,.5,0,.6.1,1.1,1,2.6-.3,3.8.7,0,0,0-.1.1-.2.2-.5-.4-1.5-1.1-1.5M35,127.7c0-.5,0-1.1-.1-1.6,0-.2-.2-.3-.4-.5-.1.1-.3.3-.4.4-.3.3-.5.7-.7,1-.3.3-.5.6-.8.9.5,0,.9.3,1.4.3.3,0,.6-.2,1-.4M22.5,152.3c.8,0,1-.2.4-.8-.4-.4-.6-.8-1-1.2,0-.1-.3-.3-.4-.2-.3.3-.7.7-.8,1.1,0,.2.4.6.7.8.3.2.6.2,1,.5M39.6,149.1c0,0,.2-.2.3-.2.4-.3.7-.5,1.1-.8-.5,0-1-.2-1.5-.3,0,0,0,0-.1,0-.3.3-.6.6-.9.9.4.2.7.4,1.2.4M38.1,130.4c-.1-.2-.2-.5-.4-.6-.3-.1-.8-.3-1.1-.2-.3.1-.5.5-.6.9,0,.1.3.5.4.5.6,0,1.2-.2,1.7-.6M27.4,150.4c-1.3.2-.7,1.2-.8,1.9,0,0,.2.2.3.2,1.1-.2,1.3-1.1.5-2.1M43.3,148.6l.2-.8c-.4,0-.9,0-1.2.3-.4.3-.5.8-.8,1.3.5,0,.9,0,1.4-.2.1,0,.2-.3.5-.6M41.1,150.8c-.5,0-1,0-1.4,0-.4.1-.7.4-1,.7,0,0,0,.2.1.3.5.4,2.2-.2,2.2-1M37.5,128.4c.3-.3.7-.6.7-.9,0-.2-.5-.6-.8-.7-.2,0-.7.4-.7.6,0,.4.3.7.8,1M25.1,151.1c-.4,0-.8,0-1.2,0,.1.3.2.9.4,1,.3.2.8,0,1.2,0,0-.3,0-.7-.4-1M31.1,150.5c-.2-.1-.4-.2-.6-.3-.1.4-.4.8-.3,1.2,0,.3.5.6.8.9,0-.3,0-.6.1-.9,0-.2,0-.4,0-.8M41,130.4c-.3-.3-.6-.5-.9-.8,0,.3-.3.7-.2,1,0,.4.4.7.7,1,.1-.4.3-.7.4-1.3M41,127.4c-.4,0-.9-.2-1.1,0-.3.3-.3.9-.5,1.3.4-.2.8-.3,1.2-.5.2,0,.2-.4.3-.8M22.2,153.2c-.2.2-.6.5-.5.6.2.4.5.7.8,1,0,0,.5-.3.5-.3-.1-.4-.4-.9-.8-1.3M36,148.1c-.2,0-.3-.1-.5-.2-.1.4-.3.7-.4,1.1,0,0,.4.3.6.4.1-.4.2-.7.3-1.3M48,148.6c0,.3.1.6.2.8.4-.2.8-.4,1.2-.7-.2,0-.5-.2-.7-.3-.2,0-.4,0-.7.1M35.7,151.1c-.2.8.4.7.8.7.2,0,.4-.2.7-.3-.3-.1-.7-.3-1-.4,0,0-.2,0-.5,0M34,151.1c-.3,0-.7,0-1,0,0,.3,0,.6.1.8.3-.2.5-.4.8-.6,0,0,.2-.2.1-.4M32.6,148.9c.3,0,.6,0,1,0-.1-.2-.2-.4-.4-.6-.2.2-.5.3-.6.6M51.1,146.2c.2-.2.3-.3.5-.5-.3,0-.6,0-.9.1-.2,0-.3.3-.4.4.2,0,.5,0,.8-.1M59.2,148.9c-.2,0-.4-.1-.5-.2,0,.2,0,.4,0,.6.2-.1.4-.2.5-.5Z"/>
    <path d="M52.5,15.2c-1.5,0-1.8.4-1.5,2,0,.2,0,.4-.2.6,0,0-.4,0-.5,0-.6-.5-1.1-1.1-.9-2,.2-.9-.3-1.5-1.2-1.1-.8.3-1.2.2-1.7-.4-.3-.5-.6-1-.9-1.5-.1-.2-.2-.5-.3-.7-.2.2-.4.5-.6.7-.2.2-.3.4-.5.6-.2-.3-.5-.8-.4-1,.8-1.1.1-1.8-.7-2.4-.8-.5-.3-.8.2-1.1,1-.6,1.1-1.5.3-2.1-.2-.1-.5-.1-.7-.2,0,.2,0,.6,0,.7.5.5.1.7-.3.7-.6,0-1.2-.1-1.7-.3-.7-.3-1.9,0-2.5.8-.8,1-1.2,1-1.9,0-.1-.2-.2-.4-.3-.5-.2-.2-.5-.3-.7-.4,0,.2,0,.5,0,.7,0,.3-.1.8-.3.8-.5.1-1.1.1-1.6.1.2-.3.4-.7.6-1,.1-.2.2-.4.3-.7-.3,0-.6-.1-.8,0-.3.1-.6.3-1,.5-.5.3-.8.5-1.5.1-.6-.4-1.6-.2-2.4-.2-.8,0-1.6.1-2.3,0-.8,0-1.5-.1-1.9.6-1.1,1.9-2.4,3.2-4.7,3.6-1.4.3-1.8,2.4-.9,3.6.3.4.3,1.1.5,1.7,0,.3.3.5.4.8.2-.2.5-.3.5-.5.1-.5.1-1.1.2-1.6,0-.2,0-.3,0-.5.2,0,.3.2.5.2,1.1.6,1.1,1.8,1.5,2.8.9,2.1,1.6,4.3,2.4,6.5.2.7,1.3.7,1,1.7-.1.5,0,1.1,0,1.7,0,.5.1,1,.2,1.5.4,0,.7-.2,1.1-.3.5,0,1,0,1.6,0,.2,0,.3.2.5.3-.1.1-.2.4-.4.4-.9,0-.6.5-.3.9.7.7,1.5,1.4.3,2.3.2.2.4.6.7.6.8,0,1.7,0,1.2,1.2,0,.2.3.5.4.7.6.7,1.3,1.4,1.8,2.2.2.3,0,.9,0,1.3-.1.5-.4,1-.6,1.5,0,.2.1.5.3.6,1.1.4,2.2.9,3.4,1.2.4.1.6.2.3.7-.4.7-.7,1.5-.8,2.2-.2,1.2-1.6,2.7-2.5,2.2-.7-.4-1.3-1.3-1.5-2-.3-1.1-.9-2.1-2.1-2.4-.2,0-.5-.4-.4-.5.5-1.4-1-1.8-1.4-2.8-.1-.3-.4-.5-.5-.7,0-.1,0-.3.1-.4.7-.5.5-.3,0-1-.5-.6-.8-1.5-.9-2.3-.2-1.9-.9-2-2.4-2.4-.3,0-.6-.3-.8-.5.2-.2.4-.3.6-.5,0,0,.2-.3.2-.3-.2-.2-.4-.6-.6-.6-1.3.2-.6-1.2-1.3-1.6.1-.1.2-.3.4-.4.2-.1.5-.2.7-.3.2-.2.4-.5.5-.7-.3,0-.7-.3-.9-.1-1.1.6-1.5-.2-1.9-.9-1-2.1-2-4.1-1.9-6.6,0-.4-.2-.9-.5-1.1-1-.8-.8-2.2-1.6-3,0,0,0-.3.2-.5,0-.2.2-.3.3-.5,0-.7-1-2.3-1.7-2.3-.7,0-1.4,0-2.1,0-.3,0-.6,0-.8,0,.1-.3.2-.7.4-.9.8-.6,1.7-1.1,2.5-1.6.5-.4.9-.9,1.3-1.4.3-.3.4-.8.8-1.1,1.1-1,1.1-2,.4-3.2-.4-.6-.4-.9.4-1.1.3,0,.8-.4.7-.6,0-1.5,1.4-1.3,2-1.9,0,0,.3,0,.3,0,1.3,1.3,1.8-.4,2.6-.7,1.3-.5,2.6-.7,4-.7,0,0,.2,0,.3.1-.1,0-.2,0-.3,0-.5,0-1,.3-1.6.2-1,0-1.7.3-2.3,1-.3.4-.7.7-1.1,1.1-.1.1-.2.3-.3.5.2,0,.4,0,.6-.2,1.4-1.2,3.1-1.2,4.7-1.4.5,0,1-.6,1.4-1,.3-.3.6-.7.9-.8.3,0,.6.4.9.6-.2,0-.4.2-.6.3-.2,0-.5.2-.7.3.1.2.2.4.4.5.3.2.6.4.9.4.4-.2.9-.5,1-.8.3-.9,1-.4,1.5-.5,0,0,0,.2,0,.2-1.4.8,0,1.3.3,1.4.8.4.6.6.1,1.1-.4.3-.4.4.2.4.2,0,.5.2.7.3-.1.2-.3.4-.4.7-.2.3-.3.7-.5,1.1.5.2.9.4,1.4.5.2,0,.5,0,.7.2.9.4,1.8.7,2.6-.2.1-.2.6-.2.9,0,.9.4,1.9.1,2.4-.8.2-.4.4-.8.7-1,.3-.2.7-.3,1.1-.4,0,.3,0,.6.1.9.2.6,0,1.3.8,1.7.7.3,1.3.8,1.9,1.2.9.6.9,1-.1,1.4-.6.3-1.3.3-1.9.5-.2,0-.3.2-.4.3.1.1.3.3.4.3.5,0,.9,0,1.4,0,.5,0,1-.4,1.5-.4,1.8,0,2,0,2.5,1.7.2.9.4.7.9.2.2-.2.4-.3.7-.4,0,.3.1.6,0,.8-.2.6-.3,1.1.7,1.2.5,0,1.1.2,1.6.3.2,0,.3.2.4.3-.1.2-.2.5-.4.5-.3,0-.7,0-1,0-.2,0-.3.4-.4.6M34.4,44.9c-.4-.7-.6-1.7-1.1-1.9-.9-.4-1.8-.4-2.3-1.5-.1-.3-.5-.5-.7-.7-.1-.1-.4-.2-.5,0-.1.1-.3.4-.2.6.1.7,1.9,1.8,2.6,1.7.1,0,.4.2.4.3,0,.8-.3,1.6-.4,2.5,0,.1.3.4.4.4.7-.3,1.3-.7,1.9-1.3M26.8,34.7c.5.7,1,1.3,1.5,2,.2.3.6.6.7.9.4,1.1.8,2,2.2,2,.3,0,.5.1.8.2-.2-.3-.2-.7-.5-.9-1.6-1.3-3.2-2.6-3.8-4.7,0-.2-.2-.4-.3-.6-.2-.2-.4-.3-.6-.4,0,.3-.2.5-.2.8,0,.1,0,.3.2.6M30.8,6c-.2.1-.5.2-.7.4.3,0,.5.2.8.2.3,0,.6-.2.8-.2.5,0,1-.1,1.4-.2-.4-.2-.9-.3-1.3-.6-.2,0-.2-.3-.4-.4-.6-.4-1.1-.9-1.8-1.2-.7-.2-1.5-.2-2.2-.3-.1,0-.3.2-.4.3,0,0,.1.3.3.4.9.2,1.8.3,2.6.5.4.1.7.6.9,1M20,3.8c0,.3.2.6.2,1,0,.2-.1.6-.2.6-1.4-.1-1.3.5-.7,1.4,0,0,0,.2,0,.3,0,.2,0,.5,0,.7,0-.2.2-.4.3-.6,0-.2.1-.6.2-.6,1.7-.2,1.1-1.6,1.2-2.5,0-.3-.5-.7-.8-1-.1.2-.2.4-.3.8M23,24.6c-.7-.3-1.5-.6-2.2-.8,0,0-.2.2-.4.3.1.1.2.3.4.4.9.6,1.9,1,1.8,2.4,0,.4.5.9.7,1.3,0,0,.2,0,.3,0,0,0,.1-.2.1-.3-.2-1-.5-2.1-.7-3.3M15.9,12.7c.4.1,1.5-.7.8.7,0,0,.3.3.4.5,0-.1.2-.2.3-.4.2-.5.4-1,.6-1.5,0-.2.1-.3.2-.5-.2,0-.5-.2-.7-.2-.5.2-1.1.4-1.6.7-.2,0-.2.4,0,.7M24.9,3.6c-1.1-.3-1.6.5-2.3,1.1,0,0,0,.3,0,.4.1,0,.2,0,.3,0,.6-.4,1.2-.9,2-1.5M25.4,33.3c0-.7.2-1.3.2-2,0-.1,0-.3,0-.4,0,0-.2,0-.3,0-.6.4-.5,2,.2,2.4M18.7,18.1c-.2.2-.4.4-.6.6.2.2.4.5.7.6.2,0,.5-.2.7-.3-.2-.3-.3-.6-.8-.9M22.3,9.5c.5-.3.9-.7,1.4-1-.4.1-.9.3-1.3.4,0,0-.2,0-.2,0-.3.1-.7.2-1,.4.3.1.7.2,1.2.2M20.2,22.2c.3-.1.6-.2.9-.4,0,0,0-.6,0-.6-.4-.1-.8-.1-1.3-.2.1.3.3.6.4,1.2M21.2,18.2c0,.1-.2.3-.2.4,0,.3,0,.6.1.9.2-.3.5-.6.6-.9,0,0-.3-.3-.6-.4M32.6,4c0,.3,0,.5-.1.8.2,0,.5-.1.7-.2-.1-.2-.2-.4-.6-.6M45.6,8.7c.1-.2.3-.3.4-.5-.3-.1-.5-.2-.8-.3,0,.3,0,.5.4.8M27.3,37.6c0-.2-.1-.4-.2-.6-.1,0-.2.1-.3.2.2.2.3.4.5.4M32.7,2.4c.2.1.3.2.5.3,0,0,.1-.1.2-.2-.2-.1-.4-.2-.7-.2Z"/>
    <path d="M16.5,218.6c-.1.5-.2.9-.3,1.3-.1.3-.3.8-.5.9-.3.1-1,.1-1.1,0-.7-.9-1.1,0-1.3.3-.4.7-.5.8-1,0-.2-.3-.6-.4-.9-.6,0,0-.3.3-.3.4.1.3.4.6.6.9.2.3.4.7.6,1-.5.2-.9.6-1.4.6-1.3,0-1.4,0-1.4,1.2,0,.4-.2.9-.5,1.2-.3.3-.9.7-1-.3,0-.2-.2-.4-.4-.7-.2.1-.5.2-.6.5-.1.2,0,.5,0,.7,0,0,.2.2.2.3.2.4,1.8,1-.2,1.3-.5,0-.8,1.4-1.1,2.2-.3.9-.3.9-1,.4-.9-.6-.8-.6-.4-1.9.3-1,.3-2.2.8-3.1.6-1.3,1.5-2.6,2.4-3.7.3-.3,1.1-.2,1.7-.4.2,0,.4,0,.5-.1-.1-.2-.2-.5-.3-.6-.5-.2-1-.4-1.4-.5-.3,0-.5-.2-.8-.3.2-.2.4-.5.6-.6.9-.4,1.8-.8,2.8-1.2.2,0,.5,0,.7,0,.3,0,.5.2.8.3,0-.5.2-1.2,0-1.6-.7-1.1-.6-1.7.4-2.6.4-.4.8-1,1.3-1,1.1,0,2.1.2,3.2.3.2,0,.5.2.6.1.4-.1.8-.4,1.3-.6-.5-.1-.9-.2-1.4-.3-.3,0-.6-.2-1-.3.3-.3.6-.8.9-.8.7,0,1.3,0,1.5-.9.2.2.6.3.7.5.3.7.5,1.4.7,2.1,0,.2.3.3.5.5.2-.2.4-.4.5-.7,0-.2,0-.5,0-.6-.2-.2-.5-.4-.8-.6.6-.4,1-1.2,1.9-.9.3.1.7.3,1,.4.2,0,.4-.1.6-.2-.1-.2-.2-.3-.3-.4-.4-.3-.8-.6-1.2-.9.5-.1.9-.3,1.4-.4,1.3,0,2.6-.6,4,0,.4.2,1.1,0,1.6-.2.3,0,.4-.5.6-.8-.4-.2-.7-.4-1.1-.5-.2,0-.5.2-.8.3-.4,0-.8,0-1.2,0,.2-.2.3-.5.5-.7.4-.4.7-.7-.2-.7-.2,0-.4-.2-.6-.4.3-.3.6-.6,1-.8.3,0,.6.1,1,.2.8.1,1.2-.2,1.1-1.1,0-.3.2-.7.3-1,.5.3.9.6,1.4.9,0,0-.2.4-.4.6-.2.4-.4.8-.6,1.1.6,0,1.1,0,1.7,0,.5,0,.9-.3.5-1-.5-.9-.2-1.6.8-1.9.4-.1,1,0,.5-.7-.2-.3-.7-.6-1.1-.6-.4,0-.8.3-1.2.4-.2,0-.4,0-.6-.1,0-.2,0-.5.2-.6.7-.4,1.4-.8,2.2-1,1-.3,1.5-.8,1.6-1.9,0-.8,1.5-1.3,2.5-.9.4.2.8.5,1.1.8.4.5.4,1-.4,1.2-.4.1-.8.4-1.1.7-.4.4-.4.8.3.8.2,0,.5,0,.7.1.2.1.3.3.5.5-.2.1-.4.3-.6.3-.5,0-1,0-1.4,0-.4,0-.9.2-1.2.5-.2.2-.3.7-.4,1,.3,0,.6,0,.9,0,.6,0,1.1,0,1.7,0-.5.4-1,.8-1.5,1.1-.4.2-.9.3-1.2.5-.2.2-.2.6-.4.9.3,0,.5.2.8.2.4,0,.7,0,1.1.1-.3.3-.5.7-.8.8-.4.2-.9.2-1.4.2-.8,0-1.7-.2-2.5-.1-.3,0-.5.7-.7,1.1,0,.2,0,.4,0,.7.3-.2.7-.3,1-.5.2-.1.3-.4.5-.4.4,0,.9,0,1.3.2,0,0,0,.5,0,.6-.3.3-.7.8-1.1.8-1.3,0-1.8.7-2.1,1.7-.1.4,0,.9,0,1.4-.4-.1-.8-.3-1.2-.4-.2,0-.4.2-.6.3-.7.5-1.3.8-2.3.5-.3-.1-1,.6-1.5.9-.5.3-.9.7-1.3,1.1-.3.3-.6.6-.7,1-.2.3-.2,1-.7.6-.3-.2-.4-.7-.5-1.1,0-.3-.1-.5-.2-.8-.3.1-.7.2-.8.4-.1.3-.1.9,0,1,.6.5.8,1.1,0,1.4-.9.4-1.7,1.2-2.8.4-.5-.4-1-.3-1.5.2M19.3,217.4c1-.3.9-1.1.6-1.7-.2-.3-1.2-.6-1.5-.4-.8.4.2.7.3,1,.2.3.4.5.6,1.1M13.6,213.7c-.2.4-.5.8-.7,1.2-.1.2-.3.4-.4.6.2,0,.4.2.5.1.3-.1.5-.4.7-.6.2-.2.3-.4.4-.6.2-.2.5-.3.7-.5-.4-.1-.7-.3-1.2-.3M35.3,200c-.2.2-.4.5-.5.7,0,.2-.1.5,0,.8,0,0,.4.2.4.2.2-.2.3-.4.3-.7,0-.6,0-1,.8-1,.1,0,.2-.4.4-.6-.3-.1-.6-.3-.8-.3-.2,0-.4.4-.6.8M29.2,211.1c0-.2,0-.5,0-.7-.2,0-.5,0-.5.1-.3.5-.5,1.1-.8,1.6.5-.3.9-.5,1.4-1M22.7,212.6c0,.3,0,.5-.1.8.3,0,.6,0,.9-.1.2,0,.2-.3.3-.5-.3,0-.6-.2-1.1-.1M15,218.6c.2-.1.4-.2.4-.4,0,0-.2-.4-.3-.4-.3,0-.6,0-.9.1-.1,0-.2.4-.2.4.2.1.5.2.9.2M27.1,211.3c.2-.3.4-.5.6-.8-.3,0-.7.1-1,.2-.2,0-.3.2-.5.4.3.1.5.2.9.2M7.3,223.8c.2-.3.5-.6.7-.9,0,0-.2-.3-.3-.4-.2.3-.3.6-.5.9,0,0,0,.2.1.4M15.2,215.2c0,.2-.1.5-.2.7.2,0,.5-.2.7-.3-.1-.2-.2-.4-.5-.5M5.4,228.8c0-.2,0-.4-.1-.6-.1,0-.2.1-.4.2.1.2.2.4.5.4Z"/>
    <path d="M28.9,327.7c-.4.8-2.5,1.6-3.2,1.4-1.1-.3-2.3-.6-3.4-.9-.2,0-.4-.3-.4-.4.3-.4.5-.9.9-1.2,0,0,.6.2.6.3,0,.9.8,1.1,1.2.8.4-.3.5-1.1.7-1.7.1-.3,0-.9.2-1,.6-.5.6-1.1.5-1.8,0-.2,0-.5,0-.5.2,0,.5,0,.6,0,.1,0,.2.4.2.5,0,.3-.2.5-.1.7.1.4.4.6.6,1,.2-.3.7-.6.7-.9,0-.8.2-.9,1-1.1,2.1-.6,4.1-.7,6.2-.7.6,0,1.3-.2,1.9-.2.1,0,.3.3.4.5,0,.2-.1.4-.2.6.4,0,.9,0,1.3,0,.2,0,.3-.3.4-.4.1-.3.3-.5.3-.8,0-.3-.2-.8-.4-.8-.6-.1-1.3,0-2-.1-.3,0-.5,0-.8-.1,0,0,0-.2,0-.2.3-.1.5-.3.8-.3,1.1-.1,2.1-.2,3.2-.4.1,0,.4-.3.3-.4,0-.2-.2-.4-.4-.5-.2-.1-.5,0-.8-.2-.2-.1-.5-.3-.7-.5.3-.1.5-.3.8-.3.5,0,.7,0,.9-.7.2-.6,1.1-1,1.7-1.5.7-.6,1.5-1.2,1.9-2,.3-.5.2-1.4-.5-1.7-.7-.3-.8-.7-.5-1.1.3-.5.3-1.4,1.3-1.3.3,0,.7,0,1,0,.4.2.8.5,1.1.8,0,.1-.2.6-.3.9-.3.9-.5,1.7-.8,2.6,0,.1,0,.3.1.4.2,0,.4-.1.5-.3.4-.5.6-1.1,1.1-1.5.6-.6,1.3-1,2-1.5.1,0,.4,0,.5,0,0,.2-.1.3-.2.5,0,.1,0,.3-.2.4-1.2.8-.9,2.1-.7,3.2.1.8.2,1.3-.3,2-.1.2,0,.5-.1.8.2,0,.5,0,.7,0,.3,0,.7,0,1,0-.2.3-.4.5-.6.8,0,0-.1.1-.2.2-.6.3-1.2.6-1.8.8.4.4.8.9,1.2,1.3.2.2.2.5.3.7-.3,0-.6.2-.8.2-1.6,0-3.1.2-4.7.3,0,0-.3.6-.2.8,0,.2.5.4.7.6.2.2.3.4.4.6-.2.1-.5.3-.7.3-.9,0-1.8,0-2.6-.3-1.4-.5-2.5.1-3.8.3-1.4.3-2.2,1.2-3.3,1.7-.6.3-1.5,0-2.3,0-.3,0-.6-.2-.9-.2-.6.2-1.2.5-1.8.8-.1,0,0,.5,0,.8M47.2,315.9c-.8.1-1.2,1.7-2.3.5,0,0-.2.1-.3.2-.7.3-1.3.5-2,.8-.2,0-.4.3-.5.5.3,0,.6.2.8.2.5,0,1-.5,1.4-.4,2.3.6,2.3.6,3.5-1.3.2-.2,0-.6.1-1-.2.1-.5.3-.9.5M45.6,320.1c.2-.3.5-.6.7-1-.4,0-.8,0-1.1.3-.5.3-.9.6-1.3,1,0,0-.1.2-.2.3.1,0,.3,0,.4,0,.5-.1,1-.2,1.6-.5M41.1,321.3c.5,0,1,0,1.6,0,0,0,0-.3.1-.4-.6.1-1.2.2-1.7.4M41.6,322.2h-.5c.2.4.4.9.6,1.3,0,0,.2,0,.3,0,0-.3-.2-.7-.3-1,0,0-.1-.1-.4-.2M43.7,319.6c-.1-.3-.2-.6-.4-.9-.2.3-.5.5-.7.8.3,0,.6.2,1,.1Z"/>
    <path d="M50.6,262.5c-.1.2-.3.4-.3.5-.1.4-.2.7-.3,1.1.3-.1.6-.3.9-.3.3,0,.6,0,.9-.1.3-.1.7-.3.9-.6.3-.5.7-1,.8-1.5.5-1.7,2.2-1.9,3.3-2.8.2-.2.6,0,.9,0,.1,0,.3.4.2.5-.6.7-1.3,1.3-1.9,1.9-.2.2-.2.5-.3.7.2,0,.4.1.6.2.2,0,.5,0,.6,0,.3.3.6.6.8.9-.3,0-.7,0-1,0-.4,0-.7-.3-1.1-.4-1-.3-2.5.5-2.7,1.5,0,.2.2.4.3.6,0,0,.3,0,.3-.1.3-1.5,1.5-.7,2.1-.7.7,0,1.4.5,2.1.9.1,0,.2.3.3.5-.2,0-.3,0-.5,0-.5,0-1-.2-1.6-.2-.3,0-.7.2-1,.3.4.3.7.7,1.1.8.5.1,1,0,1.5,0,.2,0,.5,0,.7-.1,0,.3,0,.7-.2.9-.8.9-1.6,1.9-3.1,1.7-.9-.1-1.8.2-2.7.2-.4,0-.8-.2-1.1-.4-.7-.4-1.3-.9-2.1-.2-.2.2-.6,0-.9,0,0,0-.2-.2-.3-.2.1,0,.2,0,.3-.2.2-.1.4-.3.6-.4-.2,0-.5-.1-.6-.3-.3-.2-.5-.5-.7-.7.4-.2.8-.7,1.3-.7,1.5-.1,2.3,1,3.1,2,.1.1.4.2.6.3,0-.2,0-.4,0-.5,0-.4.1-.9,0-1.3-.2-.5,0-1.8-1.2-.8,0,0-.4,0-.6-.1-1.3-.6-2.5-.7-3.6.3,0,0-.5,0-.5,0,0-.3-.2-.7,0-.9.2-.4.5-.7.8-1.1.3-.4.6-.5,1,0,.1.2.4.2.6.3.3-.5.6-.9.7-1.4,0,0-.3-.4-.6-.5-.2,0-.6,0-.8,0-1.2.3-1.7-.1-1.8-1.3,0-.4-.3-.9-.4-1.3-.5.3-1.2.4-1.4.8-.5,1-1,.7-1.6.1,0,0-.2-.2-.3-.2-.4-.3-.7-.6-1.1-.8,0,.6,0,1.3,0,1.9.1.5.4,1,.8,1.4,0,.1.7.1.8,0,.6-.7,1.1-.4,1.4.1.2.3.2.8.3,1.3-.3,0-.5,0-.8.1.1-1.1-.6-.5-1-.5-1,0-2.5-1.3-2.6-2.4,0-.2,0-.3,0-.5-.2-1.9-.5-2.1-2.4-1.9-.7,0-1.4,0-2.1-.1-.2,0-.4-.7-.4-1,0-1.3.3-2.7.5-4,0-.4.3-.7.5-1,.2.3.4.6.4.9.2,1,1.1,1.9,1.9,1.6.5-.2,1.2-.5.4-1.2-.2-.2-.2-.5-.3-.8.3,0,.7,0,.9.1.4.3.6.8,1,1.2.3.3.8.5,1.2.7,0-.3,0-.6,0-.9,0-.2-.1-.4-.2-.6.3,0,.6,0,.8,0,.8.8,1.6,1.7,2.4,2.6,0,0-.2.4-.4.6-.1.2-.4.6-.3.7.2.2.5.4.8.5.3,0,.6,0,.9,0,.8,0,1.8-.3,1.5,1.2,0,0,.5.3.8.2.3,0,.6-.4,1-.4.7-.1.8.3.5.8-.3.6-.3.9.2,1.3.2.1.2.7.2,1.1M41.6,255.8c-1-.9-1.4.7-2.2.5-.1,0-.3.3-.5.4,0,0,0,.1,0,.2.3.7,1.7,1.1,2.1.5.4-.6.6-.7,1,0,0,.2.5.1.8.2,0-.3.1-.7,0-.9-.2-.4-.7-.6-1.3-.8M38.1,257c0-.2-.1-.4-.2-.5-.2-.2-.5-.4-.8-.6,0,.4,0,.9.1,1.3.3.5.4.5.9-.2M54.1,265.9c-.2-.2-.4-.4-.6-.6,0,.5,0,1,.2,1.3.2.2.8.1,1.2.1-.2-.2-.5-.5-.8-.8M47.6,260.6c.4.1.7.2,1.1.3,0,0,0-.2,0-.3-.3,0-.6-.1-.8-.1,0,0-.2,0-.3.1Z"/>
    <path d="M52.5,15.3c.4,0,.8,0,1.1.2.4.2.9.5,1,.8.3.7.6,1.5-.4,2-.7.3-1,.7-.7,1.4,0,.2.4.4.6.4.2,0,.4-.3.5-.4.5-.7.9-1.5,1.4-2.1.2-.2.7-.2,1.1-.3-.1.3-.2.6-.4,1-.2.5-.6,1.1-.5,1.4.4.6,1.1,1.1,1.6,1.6,0,0,.3,0,.4,0,0-.1,0-.3-.1-.4-.2-.2-.5-.2-.6-.4-.2-.3-.2-.7-.3-1.1.2.1.5.3.7.3,1.4.3,1.4,1.4,1.6,2.5,0,.5.3.9.5,1.3.5,1.1.9,2.3,1.4,3.4.3.7.9,1.3,1.2,2,.8,2.2,1.2,4.4,1.4,6.7,0,.9.4,1.6,1.5,1.6.3,0,.7.4,1,.6-.3,0-.7.4-.9.3-1-.6-1.6,0-1.5.8,0,.6.8,1.2,1.3,1.5.5.3,1.2.3,1.8.6.2,0,.3.5.4.7-.4.1-1,.4-1.2.3-1-.9-1.8-1-3.1-.4-.7.3-1.7-.2-2.6-.5,0,0,0-.6,0-.6.7-.3,1.4-.5,2-.8.3-.1.5-.4.7-.6-.3,0-.5-.2-.8-.1-1,.1-2-1-2-2.4,0-.8-.1-1.8.3-2.3.6-.9-.8-2,.4-2.7-.2,0-.4-.1-.6-.1-1.4.3-1.5.2-2-1.2-.3-.7-.6-1.4-1.1-1.9-.9-.8-1.2-1.8-1.5-2.8-.2-.7-.4-1.4-1.3-1.4-.2,0-.5-.5-.5-.8,0-1.3-.4-2.3-1.9-2.5-.2,0-.3-.6-.4-.9-.1-.5-.2-1-.2-1.4,0-.8.2-1.6.3-2.5,0-.2.1-.3.2-.6M59.2,26.1c-.5-.5-1.1-1.1-1.6-1.6,0,0-.1,0-.2.1,0,.4-.3.8-.2,1.1.2.4.6.8,1,1.1.1,0,.6-.4,1-.7M60.1,29.5c.3.4.5.7.8,1.1.2-.2.6-.4.7-.7.1-.5.1-1.1.1-1.6,0,0,0-.2-.1-.3-.1,0-.3.1-.3.2,0,.8-.5.4-.9.5-.2,0-.4,0-.6,0,0,.2.2.5.2.9M56.1,21.8c0,.5,0,.9.2,1.3,0,0,.6.2.7.1.2-.4.4-.8.3-1.1-.1-.2-.7-.3-1.1-.3M63,33c0-.4,0-.8,0-1.3,0,0-.3,0-.3,0-.2.4-.3.8-.4,1.2,0,0,0,0,0,.1,0,.3.2.5.3.8.1-.3.3-.5.5-.9M62.2,36.1c.2-.3.3-.6.5-.9-.2,0-.3-.1-.5-.2,0,.3,0,.6,0,1.1Z"/>
    <path d="M35.3,176.8c-.8.4-1.2.2-1.4-.6,0-.3-.4-.5-.6-.8,0,.3,0,.6,0,1,0,.4,0,.8,0,1.2-.5,0-1.1,0-1.3-.2-.9-.9-1.7.1-2.6-.1-.2,0-.5-.4-.4-.5.2-.4.5-.8.6-1.2.1-.3.1-.6.2-.9-.4.1-1,0-1.2.3-.4.5-.6,1.2-.9,1.8-.2.4-.4.9-.6,1.3-.1.2-.5.3-.7.4-.1-.3-.4-.8-.3-.9.6-.8.4-2,1.6-2.4,0,0,0-.5,0-.6-.8-.4-1.4-2.6-.9-3.3.6-.8.9-.3,1.3.3.3.4.8.8,1.2,1.1,0,0,.2-.2.2-.3,0-.5-.1-.9-.2-1.4.6.3,1.5.4,1.6.8.4,1.1,1.1,1.6,2.1,2.1.7.3,1.2,1.2,1.9,1.8.2.2.5.3.8.3,0,0,.4-.3.3-.4-.2-.3-.4-.5-.6-.8-.5-.4-1-.8-1.5-1.2-.3-.3-.7-.6-1-.7-.7-.2-1.1-.7-.8-1.4.3-.7,0-.8-.5-1.1-.6-.4-1.1-.9-1.7-1.4-.5-.4-1-.9-1.5-1.2-.2-.1-.6,0-.9.1-.4,0-.8,0-1.2,0,0,0-.2-.2-.2-.3.3-.2.6-.4,1-.5.8-.4,1.5-.7,2.4-.3.2,0,.5,0,.8,0-.1-.2-.2-.6-.4-.7-1-.6-1.4-1.2-1-2.4,0-.2,0-.4-.1-.6-.2-.7.2-1.3.8-1.1.1,0,.2.4.2.6.1.6.3,1.3.4,1.9.3-.6.5-1.1.8-1.7.2-.3.5-.6.8-.9.2.5.5.9.4,1.4,0,.5-.5.9-.8,1.3,0,.2-.1.4-.2.6.2,0,.4,0,.6,0,.2,0,.3-.1.5-.1.2,0,.3,0,.5,0,0,.2,0,.3-.1.5-.1.2-.2.4-.3.7.2,0,.5-.2.6-.1.2.2.6.5.6.7-.2,1,.7,1.2,1.2,1.7.3.2.6.5.8.8,0,.1,0,.5,0,.6,0,.1-.4.2-.5.2-.6-.3-.7,0-1,.4-.3.6-.2.8.3,1,.2,0,.3.3.4.4.3.3.5.6.8.9,0-.3,0-.6,0-1,0-.2.1-.5.2-.7.2,0,.5,0,.6.2.3.5.7,1.1.8,1.7.2,1.4.2,2.9.3,4.3,0,.6-.1,1.3-.2,1.9,0,.2-.3.2-.5.4-.1-.2-.3-.4-.4-.6-.3-.8-.5-1.5-.8-2.4M30.8,175.9c.3,0,.8,0,.8-.2.2-.4.2-.9.2-1.3,0,0-.5-.3-.7-.2-.1,0-.2.4-.3.6,0,.3,0,.6,0,1.1M33.4,169.6c-.2-.2-.3-.5-.5-.5-.4,0-.7,0-1.1.2,0,0-.1.4,0,.4.2.2.5.4.8.4.3,0,.6-.3.8-.6M27.9,173.2c-.1,0-.2.2-.4.3.2,0,.3.1.5.2,0-.2,0-.3-.1-.5Z"/>
    <path d="M20.6,365.4c.5.8.9,1.4,1.2,2.1.4.8,2.1,1.2,2.7.6.7-.7,1.4-.7,2.3-.3.6.3,1.2.4,1.8.6.1,0,.2.2.3.3-.1,0-.3.2-.4.1-.6,0-1.1-.2-1.7-.3-.4,0-.8-.2-1.2-.2-.2,0-.4.3-.5.5,0,0,1.7,1.9,1.8,1.8.1,0,.2-.2.3-.3-.1-.1-.2-.3-.4-.4-.2-.1-.4-.2-.5-.3.2-.1.5-.4.7-.3.4,0,.9.3,1.2.5,1,.9,1.2.9,1.9-.3.2-.3.5-.4.8-.5.2,0,.5.2.7.2-.1.2-.2.3-.3.5-.5.6.2.8.5.9.3.1.8,0,1.2,0,1,0,2.1-.2,3.1,0,1.4.3,2.6.9,3.7-.6,0-.1.5,0,.8,0,0,.2,0,.3-.2.5-1,1.8-1.7,2.1-3.7,1.5-1-.3-1.9-.6-2.9.2-.4.3-1.3.3-1.7,0-1.1-.6-2.1-.3-3,0-.7.3-1.1.3-1.4-.5-.3-.7-.8-.7-1.3-.2-.7.7-1.1.3-1.6-.1-.5-.5-.9-.9-1.6-.2-.2.2-.7.2-.8,0-.7-.8-1.8-.4-2.6-.7-1-.4-2.1-1-2.7-1.8-.9-1.1-1.6-2.5-1.5-4.1,0-.5-.9-1.2-1.5-1.6-.8-.6-1.6-1.1-2.4-1.6-.5-.3-1-.8-1.5,0,0,0-.6-.2-.5-.3.2-.9.4-1.9.7-2.8.1-.3.7-.7.9-.6.4,0,.8.5,1.2.8-.2.2-.4.4-.6.6-.2.2-.4.4-.6.6.2.2.4.6.6.6,1.4.3,2.2,1.3,3.1,2.2.3.3.8.4,1.3.6,1.5.7,3,1.4,4.6,2.2M23.9,369.9c.1-.1.2-.3.3-.4-.4-.1-.7-.3-1.1-.4-1-.2-2-.2-3-.4-.6-.1-1.1-.5-1.6-.7-.3,0-.6,0-.8,0,.2.3.4.6.6.8,1.6,1.4,3.6,1,5.6,1.2M18.3,365.5c0,.2.1.4.2.6,0,0,.3,0,.5-.1-.2-.2-.4-.4-.7-.4Z"/>
    <path d="M2.1,242.3c0-.4-.2-.8-.2-1.1,0-.2,0-.4-.1-.5-.5-.5-.5-.5.2-1,.2-.2.3-.7.4-1-.3,0-.5-.1-.8-.2-.3,0-.6,0-.8,0-.3-.1-.5-.4-.7-.6.3,0,.6-.3.8-.3,1.1,0,1.4-.2.6-1.1-.6-.7-.5-1.6,0-2.4.2-.3.5-.6.6-.9.3-.6.6-1.2-.5-1.2-.1,0-.3-.2-.4-.4,0,0,.2-.2.2-.2,1,.2,2,.2,2.8.6.3.1.3,1.1.4,1.7,0,0-.4.2-.7.2-.4,0-.8.1-1.2.2,0,0,0,.5,0,.5.9,0,.7.6.7,1.1,0,.7.3,1.3.3,2,0,.6.6,1.4-.4,1.9,0,0,0,.4,0,.5.3.4.7.7,1.1,1.1.2.2.4.4.4.5-.6,1,.6,1.5.7,2.2.1,1.5,1.7,2.5,1.3,4.1,0,.2.3.6.5.8.2-.2.5-.4.7-.6.1-.1.2-.3.3-.5.2.2.5.4.6.6.2.4.3,1.1.7,1.2.3.1.8-.3,1.3-.5.2,0,.3-.1.5-.2,0,.2,0,.4,0,.6,0,.3,0,.7,0,.9.3.4.8.6.3,1.2,0,0,.2.4.4.6.1-.2.3-.4.3-.6.3-1,.5-1.9.8-2.9,0-.1.7-.1.8,0,.2.4.3.9.3,1.4,0,.7,0,1.4-.2,2.1,0,.4-.5.7-.8.9-.5.4-1.3.6-.8,1.6,0,0-.1.4-.3.4-.1,0-.4,0-.5,0-.2-.4-.3-.8-.4-1.1-.1-.2-.4-.5-.5-.6-.2,0-.4.3-.6.5-.2.3-.4.6-.6.9-.3-.2-.7-.5-1-.7-.1-.1-.2-.4-.3-.6-.2-.4-.3-1-.8-.2,0,.1-.6,0-.9,0,.6-1.6-1.3-1.8-1.7-2.8-.4-.8-.3-1.6.5-2,.1,0,.3-.1.5-.1-.2-.1-.3-.3-.5-.3-.5-.2-1.1-.2-1.5-.5-1-.7-1.5-1.8-1.6-3,0-.7-.2-1.4-.2-2.3M6.9,250.6c.2,0,.3.1.5.3.5.5,1.7.1,1.7,1.4,0,0,.8.2,1.2.3,0,0,.2,0,.2-.1-.2-.2-.5-.4-.7-.6-.2-.2-.3-.4-.5-.6-.2-.3-.2-.7-.5-.8-.6-.3-1.2-.6-1.8-.7-.6-.1-1.6,0-1.7,0-.2.9.8.6,1.5.9Z"/>
    <path d="M40.7,176.1c-.9-.7-1.8-1.4-2.6-2.1,0,0-.1-.3-.2-.4,1.3-.5-.1-1.6.6-2.2.5-.4,1.8.2,2,1,0,0,0,0,0,.1.4,1.7.4,1.6,2.2,1.3,1-.2,2.2.3,3.1-.7,0,0,.4.3.6.4.3.2.5.6.8.7.2,0,.8,0,.8-.2,0-.4,0-.8-.1-1.2,0-.3,0-.6,0-.9.4,0,.8,0,1.1.3.6.5,1,1.2,1.7,1.6.3.2.9,0,1.3-.1-.3-.3-.5-.6-.8-.9-.2-.2-.5-.3-.8-.5.2-.2.3-.6.5-.6.3,0,.5.2.8.3.1,0,.3.1.4.2.8.6.8.5,1.5-.2,0-.1.3-.2.4-.2,1.3.2,2.6.2,3.8.7.8.3.9,1.4.6,2.1-.2.5-1,.9-1.6,1.2-.4.2-.9,0-1.4,0-.3,0-1.4-.5-.7.7,0,0-.4.4-.6.5-.9.1-1.7.1-2.6.3-.9.2-1.8.5-2.8.7-.2,0-.4,0-.7,0,0-.2,0-.5.1-.6.1-.3.3-.5.4-.8.4-.7.3-1-.6-1-.6,0-1.1-.4-1.7-.5-.5,0-1,0-1.4.2-.2,0-.2.6-.3.9,0,.2.1.5.3.5.1,0,.4-.1.6-.2.2-.1.3-.5.5-.5.4,0,.9,0,1.4,0-.2.3-.3.7-.6.9-.8.4-1.5,1-2.6.5-.3-.1-.8,0-1.2.2-1.3.5-1.8.3-1.9-1.2,0-.1-.1-.3-.3-.4M56.2,174.6c.3-.2.6-.4.8-.6-.3,0-.6,0-.8-.2-.5-.1-.9-.4-1.3-.4-.4,0-.8.1-1.3.2.3.2.6.5,1,.6.4.2.9.2,1.7.3M52.9,176.5c.3-.2.6-.4.8-.6-.3-.1-.5-.4-.8-.4-.3,0-.6.2-.9.4.2.2.4.4.8.6M43.2,175.8c0-.1.2-.3.3-.4-.5,0-1,0-1.5,0,0,0-.2.1-.3.2.4.2.7.4,1.1.5,0,0,.2,0,.4-.2Z"/>
    <path d="M20.8,173.3c0-.2.1-.3.1-.5,0-.5,0-1.1,0-1.6.4.3.7.6,1.1.8.5.3,1,.7,1.6.9.1,0,.4-.2.6-.2-.2-.2-.3-.5-.5-.7-.3-.2-.6-.3-.9-.5.1-.2.2-.4.3-.4.4,0,.9,0,1.3.2,1.2.5.9,1.7,1.2,2.6.5,1.3.2,2.4-.8,3.5-.4.4-.5,1.1-.6,1.7-.1.8-.5,1.1-1.2,1-1.6-.1-3.2-.3-4.8-.5-.4,0-.9-.3-1.3-.4.4-.2.8-.3,1.2-.5.2-.1.5-.3.6-.5.2-.3.2-.6.4-.9.3.2.5.5.7.7.2.2.3.4.5.6,0-.3-.2-.5-.2-.8,0-1.1-.7-.9-1.4-.9-.2,0-.6-.2-.7-.5-.3-.6-.5-1.2-.6-1.8,0-.4.2-.8.4-1.1.5-.6,1.1-1.2-.2-1.5-.1,0-.2-.3-.3-.4.2,0,.4-.2.5-.2.8,0,1.6-.2,1.8,1,0,.3.6.5,1,.7M22.5,179.1c.2-.3.5-.6.6-.9,0-.3-.3-.6-.4-.8,0,0-.3,0-.3,0-.1.6-.8,1.1.2,1.7Z"/>
    <path d="M37.1,192.7c-.8.6-1.5.5-2.2-.2-.5-.5-.9-.3-1.1.2-.3.9-1,.6-1.3.2-.6-.7-1.3-1-2.2-.9-.2,0-.5-.2-.7-.3.2-.1.4-.2.5-.4,0,0,.2-.2.3-.2.5-.2,1.3.3,1.2-.7,0-.7-1.4-1.6-2-1.5-1.5.3-2.1-.1-2.8-1.5-.3-.6-.9-1.2-1.5-1.5-.8-.4-.7-.7-.2-1.2.9-.9.8-1.2-.5-1.6-.8-.3-1.5-.6-1.8-1.6,0-.1,0-.3,0-.4.1,0,.2,0,.3,0,.9.5,1.8,1,2.6,1.7.3.3.5.8.6,1.2.3.6.6.8,1.3.5.3-.2.8-.2,1.1-.2,1.6.5,3.3,1,4.9,1.5.1,0,.3,0,.4,0,.2,0,.6,0,.6,0,0,.3.1.7,0,.9-.3.3-.8.4-1.1.7-.2.2-.3.6-.4.8.3.1.5.2.8.3.3,0,.7,0,1,0,1.3,0,.7.7.5,1.2-.1.4-.3.5-.7.1-.9-.7-2-.5-2.5.3-.2.4-.3.7.4.7.9,0,1.8.3,2.6.4.5,0,1,0,1.5,0,.3,0,.7.3,1,.4-.2.2-.4.4-.7.6M29.1,188.6c.1-.5.4-1,.3-1.5,0-.3-.7-.5-1.2-.6-.2,0-.4,0-.6,0,.2.3.3.7.6,1,.2.3.5.7,1,1M31.8,188c.8-1.4.8-1.4-.3-1.7-.2,0-.4,0-.6,0,.1.1.3.2.4.4,0,.2.1.4,0,.6,0,.2-.3.4-.4.6.3,0,.6.1.9,0Z"/>
    <path d="M53.2,241.1c-1.5,0-2.8.1-4.2.2-.6,0-1.1.1-1.7.2-.9.2-1.7.2-2.3-.7-.3-.4-.8-.6-1.1-.9-.2-.2-.2-.5-.3-.8.2,0,.6,0,.7.1,1,1.2,2.5.7,3.8,1.1.1,0,.3-.2.5-.4-.3-.3-.6-.6-1-.8-.4-.1-.9,0-1.3,0-.2,0-.4,0-.5-.1.1-.2.2-.4.3-.6.4-.3.8-.4,1.1-.7.6-.7.7-1.3-.4-1.7-.2,0-.4-.4-.6-.5.3,0,.7-.2,1-.2.5,0,.9.2,1.4.2,1.4,0,1.9-.5,2-1.8,0-.2.2-.5.3-.7.2.2.5.4.6.6.1.3.1.7,0,.9-.9,1.4.7,2,1,3,0,.1.4.2.6.3.1-.2.3-.5.3-.7,0-.9,0-1.8,0-2.7,0-.3.5-.5.8-.8,0,.3,0,.5.1.8,0,.3,0,.6,0,.9.1,1.2.5,2.4.4,3.6,0,.8-.8,1.4-1.2,2.2,0,0-.3-.1-.6-.2M52.3,238.9c0,.3,0,.5.1.8-.1,0-.3,0-.4-.1-.8-1.2-1.7,0-2.5,0-.2,0-.4.6-.5.9,0,0,.2.4.3.4.3,0,.6-.2.9-.4.5-.3.9-.9,1.6-.2.2.2.8.4.9.3.3-.4.5-.9.7-1.4-.3-.1-.7-.2-1.2-.2M49.3,238.8c.4-.3.9-.5,1.3-.9.2-.3.2-.7.3-1.1-.5,0-1.3-.2-1.5,0-.4.5-.5,1.2-.7,1.8.1,0,.2,0,.6,0Z"/>
    <path d="M33,270.3c-1.3-1-1.2-2.8-.4-3.4.5-.3,1.4-.1,2.1,0,0,0,.1.7.1,1.1,0,1.2,0,2.4,0,3.6,0,.5.1,1,.8.5,0,0,.2,0,.2,0,.4.1.9.2,1.3.3-.3.3-.5.8-.9.8-1.2.2-1.5,1.1-1.8,2,0,.2,0,.5,0,.7.2,0,.4-.2.6-.2.6,0,1.2-.3,1.7,0,.8.3.8,1.1.6,1.8-.2.6-.6,1.2-1.1,1.7-.5.5-1.3,3.9-.9,4.4.2.2.7.2.9.3.3.2.6.5.9.8-.3.1-.6.3-1,.4-1.2.1-1.8.7-1.8,2.1,0,.4,0,.8-.2,1.1,0,.2-.6.3-.7.2-.2-.2-.4-.6-.3-.8.4-1.3.9-2.6,1.3-4,.1-.4,0-.9.2-1.4.1-.6.4-1.3.5-1.9,0-.5,0-1,0-1.5,0,0-.5,0-.8,0-.1,0-.3-.2-.4-.3-.1-.3-.2-.7-.2-1.1,0-.8-.4-1.1-1.2-1.2-.2,0-.4-.3-.7-.5.2-.2.5-.5.7-.4,1.2,0,1.7-.2,1.2-1.5-.3-.7,0-1.6,0-2.4,0-.4-.4-.7-.6-1.1M35.7,277.9c.8,0,.8-.5.8-1,0-.2-.3-.6-.5-.6-.3,0-.6.2-.9.3.2.5-.5,1.2.6,1.3M33.8,268c-.2,0-.4-.2-.7-.3,0,.4-.1.9,0,1.2,0,.2.5.2.8.4,0-.3,0-.6,0-1,0,0,0-.2-.1-.3Z"/>
    <path d="M53.7,216.4c0-.3-.1-.7-.2-.7-1.7,0-1.4-1.7-2.1-2.6-.2-.2.2-.8.3-1.2-.4.2-.8.5-1.1.7,0,0-.2-.1-.2-.2,0-.2,0-.5,0-.7.4-.4.8-.9,1.3-1.2,0,0,.5.3.6.5.2.5.2,1.2.5,1.7.3.5.8.8,1.3,1.1.4.3,1,.5,1.3.8.8,1.2,1.4,2.5,2.2,3.8.2.4.5.7.8,1,.5.5.5,1.6-.3,2.1-.5.3-.7.5-.4,1,.1.2,0,.6,0,.8,0,.2-.3.4-.4.6-.2-.2-.5-.3-.5-.5-.3-1.1-.5-2.2-.7-3.4,0-.2.4-.4.5-.6.1-.2.2-.5.2-.8-.4,0-.8-.3-1-.2-1.1.7-1.4,3.2-.8,4.3.7,1.1,1.4,2.3,1.7,3.6.2.8-.5,1.7.2,2.4-.2,0-.4.2-.5.1-.5-.6-1-1.1-1.3-1.8-.2-.4,0-1,0-1.5,0-.9-.2-1.7-.9-2.3-.6-.5-.9-1.1-.5-2,.4-.8-.1-1.8.7-2.6.2-.2-.1-.9-.3-1.4,0-.3-.3-.6-.4-1M54.8,216.8c.1,0,.2,0,.4,0-.1-.3-.2-.5-.3-.8,0,0-.2,0-.3,0,0,.3,0,.5.3.9Z"/>
    <path d="M39.5,190.5c-.6-.6-.5-1,0-1.5.3-.3.6-.6.9-.9.1-.1,0-.4.1-.6-.2,0-.5,0-.7.2-.3.1-.5.4-.7.6,0-.1-.3-.3-.2-.4.2-.3.3-.9.6-.9,1.5-.3.7-1,.3-1.6,0-.1-.4,0-.6,0-.2,0-.5,0-.7,0,0-.2,0-.5.1-.6.9-.9.4-1.7-.1-2.5-.1-.2-.3-.5-.2-.7q.4-2.6-.5-5.6c0-.2,0-.4,0-.6.2,0,.5.1.6.3.4,1,.9,1.9,1.2,2.9.4,1.4.6,2.8,1,4.2.1.5.5,1,.7,1.5.2.4.5.9.4,1.2-.2.9.5,1.5.8,2.2.3.5.7,1.1.8,1.6.3,1.6.5,3.3.7,4.9,0,.3-.3.5-.4.8-.2-.2-.4-.4-.5-.7-.2-.7-.3-1.6-.7-2.2-.7-.9-1.5-1.8-2.9-1.6M40.3,189.4c.6.4,1.1.3,1.4-.3,0-.1.2-.3.2-.4-.2,0-.6-.3-.7-.2-.3.2-.6.5-1,.9Z"/>
    <path d="M30.1,403.3c.7-.7,1.1-.6,1.3.4,0,.5.3,1,.5,1.4,0,.1.4.2.6.1.1,0,.3-.3.3-.5.2-1,.3-1.9.5-2.9,0-.3.4-.4.6-.7.1.3.4.7.3.9-.7,1.3.7,2,.6,3.1,0,0,.2.1.4.2,0-.1.2-.2.2-.3,0-.3.1-.6.2-1,.1-.4.3-.7.4-1.1.3.3.7.6,1,.9,0,0,.1.3.2.4.1.3.2.7.3,1,.4-.3.8-.5,1-.8.1-.1,0-.5,0-.8,0-.2.1-.7.2-.7.3,0,.8,0,.9.2.4.9.9,1.8,1,2.7,0,.7-.6.6-1.1.4-.4-.2-.8-.4-1.2-.5-.2,0-.6,0-.6,0-.3,1.2-1,.3-1.5.2-.5,0-1.1-.4-1.6-.3-.5.2-.7.8-.3,1.4,0,0-.2.4-.3.4-.1,0-.4,0-.5-.2-.2-.3-.2-.6-.4-.9-.2-.4-.5-.9-.8-.9-.3,0-.8.3-1.1.6-.2.1-.3.4-.5.5-.2-.2-.3-.4-.4-.7-.1-.3-.1-.6-.3-.8,0-.2-.3-.2-.4-.4,0,.1-.2.2-.3.4-.1.4-.1.7-.3,1.1,0,.2-.2.4-.4.7-.2-.1-.5-.2-.6-.4-.3-.4-.5-.9-.6-1.4,0-.1.4-.5.6-.5.9-.1,1.5-.7,1.9-1.5Z"/>
    <path d="M32.1,427.1c.1.3.1.5.2.7.2.2.5.3.8.5,0-.3,0-.6,0-.8,0-.3-.2-.6-.2-.8,0-.3.4-.9.5-.8,1.2.5,2.7-.3,3.6.9.1.2.3.3.4.5-.3.1-.6.4-.9.4-.3,0-.6-.2-.8-.2-.2,0-.5,0-.7.1.1.3.2.7.4.8.6.2,1.3.3,1.9.5.3,0,.6,0,.8.2.1,0,.2.5.1.6-.2.2-.6.4-.8.3-.8-.4-1.3-.3-2,.3-.1,0-.8-.2-1-.4-.5-.9-.8-1-1.5-.1-.2.2-.5.4-.7.6-.2-.3-.3-.5-.5-.8,0-.2-.1-.4-.2-.6-.3.1-.6.2-.8.4-.1,0-.2.3-.2.5,0,.5,0,1.2-.8,1-.3,0-.8-.5-.8-.6.1-.5.4-1.2.8-1.4.7-.4.6-.9.6-1.4,0-.2-.4-.4-.7-.5,0,0-.3.2-.4.3-.2.3-.4.6-.5.8-.3-.4-.7-.7-.8-1.2,0-.3.2-.8.5-.9,1.5-.9,2.7-.4,3.5,1.3Z"/>
    <path d="M51.3,422.4c.6-.2,1.2-.3,1.6-.6.6-.4,2.5-.3,2.9.3.5.6.3,2.5-.4,2.8-.7.3-1.5.8-2.4.6-.3,0-.7,0-1.1,0-.9,0-1.8,0-2.6,0-1.1-.2-1.9.5-2.5,1.2-.7.8-1.7,1-2.4.7-.9-.3-.6.1-.7.6,0,.3-.2.6-.3.9-.2-.1-.4-.3-.5-.4.5-.6,0-.6-.5-.8-.3-.1-.5-.3-.8-.5.3-.1.6-.4.9-.4,1.1-.1,2.2-.1,3.3-.3.4,0,.8-.3,1.1-.5.1-.1.2-.4.2-.6-.2,0-.5,0-.7,0-.2,0-.5.2-.7.2-.5,0-.9-.2-1.4-.3.4-.2.7-.5,1.1-.6.7-.2,1.1-.4.7-1.2,0-.2.2-.5.3-.8.2.2.5.3.6.5.2,1.3,1.2,1.2,2.1,1.3.4,0,.8,0,1.2,0,.4,0,.9-.1,1.3-.2,0,0,0-.4,0-.5-.4-.3-.8-.7-1.3-.7-.4,0-.7.5-.9-.2,0-.2,0-.7.1-.7.3-.1.7,0,1.1,0,.2,0,.4.1.7.2M52,423.5c.4.2.7.6,1.1.6.6.1,1.3.2,1.9,0,.2,0,.2-.9.2-1.4,0-.1-.4-.4-.5-.4-.8.7-1.7.6-2.6.5,0,0-.1.2-.2.6Z"/>
    <path d="M21.4,397c0,.5,0,1-.3,1.4-.3.6-.3,1,.2,1.5.2.1.2.5.3.7-.2,0-.5,0-.7,0,0,0-.1-.1-.2-.1-1.2,0-2.4.2-1.7-1.7,0-.2-.2-.4-.3-.6-.1.2-.3.5-.3.7,0,.9,0,1.8,0,2.8,0,.2-.2.5-.3.7-.2-.1-.5-.2-.6-.4-.2-.6-.4-1.3-.3-1.9.1-.8,0-1.4-.6-1.9-.3-.3-.3-.7-.5-1.1.3,0,.6-.2,1-.3.4,0,.9-.1.3-.7,0,0,0-.3-.1-.5.2,0,.3.1.5.2,0,0,.2,0,.2,0,.3.2.8.7,1,.6.5-.4,1-.9,1.4-1.4,0,0-.3-.5-.5-.6-.4-.2-.8-.3-1.2-.4.3-.3.6-.6.8-.8.8-.7.7.4,1,.5.5.3,1.1.7,1.6.9.5.2.6.5.3,1-.3.5-.2.5.4.7.4.1.7.5,1,.9,0,0-.5.7-.6.7-.6-.2-1.1-.6-1.7-.9,0-.5,0-1,0-1.5-.2,0-.5,0-.5.1,0,.5.1,1,.2,1.4,0,0,.2,0,.3,0Z"/>
    <path d="M50.8,401.6c-.7.2-1.4.5-2.1.5-1,0-2,0-3,0s-1.4-.1-2.1,0c-.5.1-.9.6-1.4.9.1.2.3.4.4.4.8,0,1.6-.2,2.3-.4.2,0,.4-.2.7-.2,0,.4,0,.9-.2,1.2-.2.3-.7.4-1.1.4-.7,0-1.3,0-1.3,1,0,.1-.5.5-.5.4-.4-.3-1-.6-1-.9-.1-1.2-.1-2.4,0-3.5,0-.2.9-.4,1.5-.4,1.4-.1,2.8-.2,4.2-.3.2,0,.3-.2.4-.4,1-1.7,2.8-1.8,4.5-2.1.1,0,.4.3.4.3-.3.4-.5,1-.9,1.2-.6.3-1.3.2-1.9.3-.3,0-.5.4-.7.5.3,0,.6.1.8.1.6,0,1.1,0,1,.9Z"/>
    <path d="M4.4,337.6c-.4.1-.6.3-.9.4,0-.1-.1-.4,0-.4.2-.2.5-.5.8-.5,1.1,0,1.4.4,1.1,1.5,0,.2,0,.4,0,.6.2,1.5-.2,2.9-.4,4.3,0,.4.2.8.5,1.1.5.6.8,1.2.1,1.9-.5.5-.6,1-.5,1.8.1,1-.2,2,.3,3,.3.4.5.9.7,1.4.3.8.5,1.7.7,2.5.1.4.5.7.6,1.1.1.5,0,1,0,1.4-.3-.3-.8-.5-.9-.9-.5-1.3-1-2.7-1.4-4.1-.5-1.4-.9-2.9-1.3-4.4,0-.3-.2-.6,0-.9.5-1.5.4-2.8-.2-4.3-.3-.7,0-1.8.2-2.6.2-.7.7-1.3,1-2,0-.3-.1-.6-.3-1Z"/>
    <path d="M57.9,233.6c1,.2,1.3,1.1,1.6,1.9,0,.2.1.3.2.5.6,1.2.4,1.6-1,2.1-.4.1-1.2,0-.9.9.3.9.7.8,1.3.5.1,0,.3,0,.5,0,.4.1.7.3,1.1.4-.3.2-.5.5-.8.7-.6.3-1.3.5-1.9.7-.2,0-.6.1-.7,0-.6-.6-1.2-1.1-1.7.1,0,0-.3,0-.3,0,0-.2-.1-.4,0-.6,1-1.6,1-3.4.7-5.1-.2-.9-.3-1.5,1-1.5.3,0,.7-.4,1.1-.6M58.7,236.5c.7-1-.7-.7-.8-1.3-.2,0-.4,0-.6.1.2.3.4.7.7,1,.1.1.4.2.7.1Z"/>
    <path d="M49.9,361.8c.7-.3,1.3-.5,1.9-.6.2,0,.5.3.7.4-.2.2-.4.4-.6.5-.4.2-.8.4-1.3.6.5.4.9,1.1,1.5,1.2.6.2,1,.3,1.2,1,0,.6.3,1.1.6,1.6.5,1.1.3,1.9-.8,2.4-.1,0-.3,0-.5.1,0-.2,0-.3.2-.5.1-.2.3-.3.4-.4,0-.1.2-.3.2-.4-.2,0-.3,0-.5,0-1.4,0-2.7-.3-3.9-1.1,0,0-.1-.1-.2-.2-.2-.9-.7-1.8-.7-2.7,0-.8.6-1.8,1.7-2M50.9,365.5c-.3-.2-.5-.4-.8-.6-.1.4-.3.8-.3,1.3,0,.1.5.3.7.4.1-.3.3-.6.4-1.1M51.9,366.6c.8-.1.7-.7.4-1.2,0-.2-.4-.3-.6-.5,0,.4-.2.7-.2,1.1,0,.2,0,.4.3.5M49.8,363.5c0,.2,0,.5,0,.7,0,0,.2,0,.2,0,0-.2,0-.5-.2-.7Z"/>
    <path d="M48.3,360.7c-.6,1-1.1,1.7-2.1.5-.2-.3-.9-.3-1.2-.6-1.5-1.4-2.1-3.3-2.6-5.2,0-.2,0-.4.1-.5.2,0,.4.1.5.2.2.3.4.6.6.9.3.5.7,1,1.1,1.4.2.2.6,0,.9,0,0-.3,0-.7,0-.9-.5-.6-1.2-1.1-1.2-2.1,0-.3-.8-.5-1.1-.8-.2-.2-.3-.4-.4-.6.2,0,.4,0,.6-.2,1.2-.3,1.9.2,2.3,1.4.4,1.2,1,2.4,1.3,3.7.2.6,0,1.1-.9.7-.2-.1-.7,0-1,0,.2.3.3.7.5,1,.7.9,1.8.7,2.8,1Z"/>
    <path d="M39.8,105.6c0,1.4.7,1.9,2,1.9.6,0,1.4,1.8,1,2.2,0,0-.6,0-.7-.3-.7-1-2-.9-2.8-1.6,0,0-.1,0-.2,0-.3.2-.5.5-.8.7-.2-.5-.4-1-.5-1.5-.3-2-.7-2.4-2.8-2.5-.3,0-.9-.2-1-.5-.3-.8.4-1.3.9-1.7.1,0,.5.2.8.3.9.5,1.8.9,2.7,1.4.5.3.8.8,1.2,1.4Z"/>
    <path d="M26.2,182.6c-.4-.9-.7-1.8-.9-2.7,0,0,.8-.5,1.2-.5,1,0,2,.3,3,.6.3,0,.4.7.7,1-.5,0-.9.1-1.4.1-.5,0-1,0-1.5,0-.1,0-.3.4-.3.6,0,.2.3.4.5.5.7.1,1.5.2,2.3.3.3,0,.6.2.9.3.5,0,1,.1,1.5.2.4,0,.9.2,1.3.3,0,0,0,.6-.1.7-.4.2-1,.6-1.4.5-1.3-.3-2.5-.7-3.8-1.1-.1,0-.3-.1-.3-.1-1,1.3-1-.2-1.6-.5Z"/>
    <path d="M11.6,312.4c.2.2.5.5.4.6-1,1.4-.2,3.5-2.1,4.5-.2.1-.2.8-.2,1.3,0,1.2-.5,1.6-1.6,1-.9-.4-.9.2-1,.6-.2,1-.6,1.6-1.7,1.7-.3,0-.6,0-.9,0,0-.4,0-.9.2-1.1.6-.4,1.3-.7.7-1.6.5-.3.9-.6,1.4-.9.2,0,.4,0,.6,0,1.4.2,1.3.2,1.1-1.3,0-.3.5-.7.8-.9.7-.4,1.1-.7,1.1-1.7,0-.8.1-1.8,1.2-2.3Z"/>
    <path d="M29,234.5c-.8-.5-1.6-.9-2.3-1.4-.2-.1-.2-.5-.3-.8.2,0,.5,0,.7,0,0,0,.1,0,.2,0,.5,0,.9-.1,1.4-.2-.4-.3-.8-.5-1.2-.8-.6-.4-1.4-.7-1.8-1.2-.2-.2.2-.9.3-1.4.2,0,.5.1.7.2,1.2.8,2.3,1.5,3.5,2.3,1.2.8,1.2,1.7,0,2.4-.3.2-1.2.2-.4.9,0,0,0,.3,0,.4-.1,0-.3,0-.4-.1-.1-.2-.2-.4-.4-.6Z"/>
    <path d="M50.4,136c-1.3-.5-1.3-.4-.6-1.5.2-.3,0-.9,0-1.3,0-.5,0-.9.1-1.4.5,0,1.1,0,1.5.2.2.2,0,.9,0,1.3,0,.5,0,1,.1,1.3,0,.2.8.2,1,0,.3-.3.4-.7.5-1.2,0-.2-.2-.4-.2-.6,0-.3.3-.5.4-.7.2.2.4.3.5.5.3.9.6,1.7.7,2.6.1,1.1-.3,1.3-1.4,1-.9-.2-1.7-1.1-2.8-.4Z"/>
    <path d="M57.6,424c-1-1.2-.9-1.7.4-2.5.8-.5.8-1.1.1-1.8-.5-.5-.7-.8.3-1.1,1-.3,1.9-1.1,2.8-1.6.3-.1.7,0,1,0-.1.2-.2.5-.4.7-.5.4-1.1.8-1.6,1.3-.2.2-.5.4-.6.7-.1.3,0,.6,0,.9.2-.1.5-.2.7-.4.2-.1.4-.4.7-.4.3,0,.5,0,.8.1,0,.2,0,.5-.2.6-.6.5-1.2.9-1.8,1.4-.7.7-1.4,1.4-2.2,2.2Z"/>
    <path d="M53.5,391.6c.2.1.4.3.5.4-1,.9-1.2,2.5-2.9,2.6-.1,0-.3.3-.3.4,0,.2.2.4.3.4.7,0,1.4-.1,2.1-.3,0,0,0-.3.1-.5.1-.4.2-.9.4-1.3,0-.1.4-.1.5-.2,0,.2,0,.4,0,.6,0,.7-.3,1.5,0,2.1.4.9,0,1.2-.6,1.5-.2,0-.3,0-.5,0,0-.2,0-.4,0-.6,0-.2.2-.4.2-.6-.2,0-.4.1-.6.2-.4,0-.9,0-1.3,0-.5,0-1,.2-1.5.2-.3,0-.6,0-1,0,.1-.2.2-.6.4-.6.7-.3.8-.7.5-1.3,0-.2,0-.6.2-.8,1.1-.8,2.2-1.6,3.3-2.4Z"/>
    <path d="M16.9,310.4c-.8-.3-1.5-.7-2.1-1.1-.2-.2-.3-.6-.4-.9,0,0,.2-.2.3-.3.1.2.2.5.4.6.2.2.4.3.7.4,0-.3.1-.6,0-.9,0-.3-.4-.6-.5-1,0-.2.1-.6.3-.8,0,0,.5,0,.7.1,1,.5,1.3.4,1.8-.6.1-.3.5-.5.7-.8,0,.3.2.6.2.9,0,.7,0,1.3,0,2,0,.3-.2.5-.3.8-.2-.2-.4-.4-.6-.6,0-.1,0-.4,0-.4-.2-.1-.5-.2-.7-.3,0,.2-.2.4-.2.6,0,.7-.2,1.4-.3,2.2Z"/>
    <path d="M21,429.1c.5-.9.9-1.8,1.2-2.7,0-.2.1-.4.1-.7,0-.2-.2-.5-.3-.7-.1.2-.3.4-.4.6,0,0,0,.2,0,.3-.2.3-.3.6-.5,1-.3-.4-.6-.7-.8-1.1,0-.2.3-.6.5-.8.5-.4.8-1.1,1.7-.5,1.1.6.9,1.5.7,2.3-.3,1.2-.4,2.6-1.6,3.3-.3.2-.5.5-.7.7,0-.4-.2-.7-.2-1.1,0-.2.1-.4.3-.7Z"/>
    <path d="M49,373.2c-.1.1-.2.2-.3.3-.2.3-.3.5-.4.8-.4-.3-.9-.4-.6-1.2.3-.8.1-1.9,1.5-1.7.1,0,.2-.2.4-.4-.2-.2-.4-.4-.7-.5-.8-.3-1.4-1.4-1-2.1.1-.3.5-.5.7-.7.1.3.2.6.4.9.2.4.3.9.7,1.2.6.5,1.1,2.4.7,3-.2.3-.8.2-1.3.4Z"/>
    <path d="M57.9,233.5c-1.1-.3-2.2-.7-3.3-1.1-1.5-.5-1.5-.6-.6-1.7.2-.2,0-.6.1-1,0-.3,0-.6.1-.9.5.2,1.1.3,1.6.5,0,0,0,.4,0,.6-.5.7,0,1.1.4,1.5.4.3.8.5,1.2.7.5.3,1.1.6.5,1.4Z"/>
    <path d="M12.4,153c-.4-.3-1.2.3-1.2-.7,0-1.1.4-1.5,1.4-1.1.7.2,1.3.3,1.9-.3.2-.2.7-.3,1.1-.2.3,0,.6.3.8.5-.2.2-.3.6-.5.6-.5.1-.5.3-.4.7.1.7-.3.8-.9.6-.6-.2-1.3,0-2.1-.1Z"/>
    <path d="M22.8,405.6c-1-.6-1.4-3-.6-3.8.5-.6.6-1,0-1.6-.2-.2-.3-.7-.3-1,0-.2.2-.4.3-.5,0,0,.3.1.5.2,1.1.9,1.7,2.4.5,3.8-.3.4-.4,1.3-.2,1.8.3.5.1.8-.2,1.2Z"/>
    <path d="M45.3,165.7c.3.3.7.6,1.1.6.8,0,1,.5,1.2,1,0,.3,0,.5,0,.8,0,.4,0,.8-.1,1.2-.2-.3-.6-.6-.7-.9-.3-.9-.9-1.5-1.9-1.7-.4-.1-.9-.7-1.1-1.1-.2-.5,0-1.1.7-1,.8.1,1.7.3,2.5.5.2,0,.3.3.5.5-.2,0-.5.2-.7.2-.5,0-1-.1-1.6-.2Z"/>
    <path d="M21.4,304.3c0,.6.2,1.1.2,1.7,0,.2-.3.4-.5.4-.7,0-1.8-1.6-1.6-2.3.2-.7.2-1.5.3-2.3,0-.3.2-.6.2-1,.2.2.6.4.7.7.3.9.5,1.8.7,2.8Z"/>
    <path d="M25.2,427.1c-.3-1.1-.6-2.1-.8-3.1,0-.2-.2-.5-.1-.8.1-.4.3-.7.5-1.1,0,0,.2,0,.3,0,0,.4,0,.8,0,1.2-.2.7,0,1.3.6,1.6,1,.5,1.2,1.4.7,2.3-.4.7-.8,1.4-1.4,2-.1.1-.6,0-.9,0,.1-.3.1-.7.3-.8.6-.3.9-.6.7-1.3Z"/>
    <path d="M13.9,172.9c.9-.6.6-1.6.9-2.5,0-.2,0-.5.1-.8.3.2.7.3,1,.5.2.1.3.5.2.6-.5.9-.7,1.5.7,1.5.2,0,.4.5.6.8-.3,0-.6,0-.9,0-.3,0-.6,0-.9,0,.1.2.3.4.4.7.1.3.2.6.3,1-.3-.1-.6-.2-.9-.4-.5-.5-1-1-1.6-1.5Z"/>
    <path d="M43.4,425.3c-.4.2-.7.3-1,.4-.4.2-1,.3-1.2.7-.6,1-1.8,1.3-2.7.5-.2-.1-.2-.4-.4-.6.2-.1.5-.2.7-.3.1,0,.3,0,.3,0,1.2.6,1.4,0,1.3-1,0-.3.3-.7.5-1.1.1.3.3.6.4.8.3,1,.7.4,1.1,0,.2-.2.5-.3.7-.4,0,.3.1.6.1.9Z"/>
    <path d="M11.8,154c1.3,0,2.5.2,3.7.4.3,0,.6.4.9.6-.3.1-.6.2-.9.3-.8.2-1.6.5-2.4.6-.4,0-.9-.3-1.4-.5-.8-.5,0-.9,0-1.4Z"/>
    <path d="M38.2,325.1c.9,0,1.7,0,2.5,0,.2,0,.3.1.5.2-.1.1-.2.3-.4.3-.9.1-.5.6-.4,1.1,0,.3,0,.8-.2.8-.6,0-1.2,0-1.8,0-.1,0-.3-.3-.3-.3.1-.2.3-.3.4-.5.1-.2.3-.3.4-.5-.2,0-.5-.1-.7,0-.3,0-.7.3-1,.4-.3,0-.6-.2-.9-.3.2-.2.4-.4.6-.5.3-.2.7-.2,1.1-.4Z"/>
    <path d="M56.5,421.2c-.7-.2-1.4-.5-2.1-.6-.4,0-.8,0-1.2,0-.3,0-.5.1-.8.2,0-.3,0-.6.1-.8.2-.3.6-.6.9-.6,1.1,0,2.2.2,3.4.4.3,0,.6.3,1,.5-.3.2-.6.4-.9.6,0,0-.2,0-.4.2Z"/>
    <path d="M4.7,335.7c-.4.1-.6.3-.9.4-.2-.5-.4-.9-.5-1.4,0,0,.5-.2.6-.4.2-.3.4-.7.5-1.1.1-.3.1-.7.2-1,.3.3.9.5.9.8,0,1-.2,1.9-.4,2.9-.1,0-.2,0-.4-.1Z"/>
    <path d="M29.1,293.9c-.2-.2-.5-.6-.4-.8.3-.6.5-1.3,1-1.6.3-.2,1.1,0,1.5.3.3.2.4.6.6.9-.4.2-1,.8-1.3.7-.7-.2-1,0-1.5.5Z"/>
    <path d="M37,196.3c-.6,0-1.1-.1-1.7-.2.3-.4.7-.8,1-1.2.6-.7,1.3-.5,1.9-.2.2,0,.3.8.2.9-.4.3-.9.5-1.5.7Z"/>
    <path d="M15.7,158.8c-.3.1-.6.2-.9.3-.2,0-.4,0-.6,0,0-.2.2-.3.3-.5,0-.1,0-.3,0-.4-.1,0-.3,0-.4,0-.4,0-.7-.1-1.1-.2,0-.2,0-.5.2-.5.4-.1.8-.2,1.2-.2.7,0,1.3.2,2,.3.3,0,.5.1.8.2-.2.2-.4.4-.7.6-.2.1-.5.2-.8.3Z"/>
    <path d="M41.7,375.2c0-.3,0-.6,0-.6,1.1-.2,2.2-.4,3.3-.5.2,0,.5.3.7.5-.1.2-.3.5-.4.6-1.2,0-2.4,0-3.7,0Z"/>
    <path d="M27.1,403c-.4-.7-.3-1.3.2-1.7.2-.2.6-.2.9,0,.4.1.9,2.3.5,2.3-.5,0-1.1-.3-1.7-.5Z"/>
    <path d="M42.3,10.1c.2.4.5,1,.3,1.2-.5.6-.8,0-1.2-.4-.4-.3-.8-.5-1-.8-.2-.3-.4-.7-.4-1,0-.2.4-.4.6-.7.2.3.3.6.6.8.3.3.7.6,1.1.9Z"/>
    <path d="M12.7,170.4c-1,.3-2.7,0-3.3-.6,0,0,0-.4,0-.5.2,0,.6-.2.8,0,.8.7,1.6,0,2.4.2.3,0,.5.2.7.3-.2.2-.4.5-.7.7Z"/>
    <path d="M43.4,195.7c.9-.3,1.1.3,1.5.9.1.3.3.5.5.7.1-.3.2-.5.4-.8,0-.2.2-.3.4-.4.2.2.5.4.5.6,0,.3-.2.9-.5.9-.6,0-1.3.2-1.7-.1-.5-.4-.8-1.1-1.1-1.8Z"/>
    <path d="M33.9,195.9c-.8.2-1.2-.3-1.4-.8,0-.2.3-.5.5-.8.7.6,1,0,1.4-.4.2-.1.4-.2.6-.2,0,.3.3.6.2.8-.3.5-.8,1-1.3,1.5Z"/>
    <path d="M19.6,423.3c.4.3.5.7,0,.7-1.1.2-1.1.8-.9,1.7,0,.2,0,.4,0,.6-.2,0-.4,0-.5-.2-.3-.4-1.1-.6-.5-1.4.5-.7.5-2.1,2-1.4Z"/>
    <path d="M42.1,312.2c0,.5-.1.8-.2,1.2,0,.3.1.6,0,.8,0,.4-.1.8-.3,1-.2.3-.7.4-1,.6,0,0-.2-.2-.1-.2.2-1,.4-2,.7-3,0-.2.5-.3.9-.4Z"/>
    <path d="M31.8,288.5c.4.2.6.5.9.7.2.2.5.5.7.7-.6.3-1.1.6-1.7.9-.2-.4-.5-.9-.5-1.3,0-.3.3-.7.7-1Z"/>
    <path d="M53.5,226.2c.2.2.3.4.4.6-.2,0-.4.1-.6.1-.4,0-.8,0-1.2,0-.2,0-.6,0-.7,0-.2-.2-.3-.6-.3-.9,0-.1.4-.4.6-.4.6.1,1.2.4,1.8.6Z"/>
    <path d="M27.8,428.3c.4.4,1,.6,0,1.1-.6.3-.9,1.2-1.3,1.8-.1.2-.3.3-.4.4,0-.2-.2-.3-.3-.5,0-.1,0-.4,0-.5.6-.8,1.2-1.5,1.9-2.3Z"/>
    <path d="M21.6,331c.5-.6,1-1.2,1.6-1.6.2-.1.7.2,1.1.4-.1.2-.2.6-.4.7-.6.4-1.3.7-1.9.9,0,0-.2-.2-.3-.4Z"/>
    <path d="M33.2,424.6c-.5-.1-.8-.2-1.2-.3,0-.2,0-.4.2-.5.3-.1.7-.2,1-.2.6,0,1.3.1,1.9.3.2,0,.3.3.4.5-.2,0-.4.2-.6.2-.6,0-1.1,0-1.8,0Z"/>
    <path d="M29.4,295.8c0,.2-.1.2-.2.2-.6-.2-1.1-.3-1.7-.5.6-.3,1.2-.7,1.8-.9.4-.1.8.2,1.3.3-.4.2-.8.5-1.1.9Z"/>
    <path d="M42.1,328.6c-.3.3-.7.5-1,.7,0-.4-.1-.8-.1-1.2,0-.2.1-.5.2-.7.2-.2.4-.4.6-.7.2.2.5.4.5.7,0,.3-.1.7-.2,1.2Z"/>
    <path d="M46.4,233.6c-.5.6-1,1.1-1.5,1.6,0,0-.6-.4-.6-.4.2-.5.4-1.1.8-1.4.3-.2.8,0,1.2.2Z"/>
    <path d="M30.4,423.4c0,.5-.2.8-.3,1.2-.3-.4-.8-.7-.8-1.1,0-.5.1-1.1.2-1.6.3.5.6,1,.9,1.6Z"/>
    <path d="M26.1,254.6c.5.2.9.5,1.3.8,0,0,0,.5-.2.6-.7.5-1.9-.1-1.9-1,0-.1.5-.3.9-.4Z"/>
    <path d="M55.6,417.5c-.2-1.1.5-1.5,1.8-1.1.3,0,.5.4.8.5-.4.2-.7.4-1.1.5-.4.1-.9,0-1.5,0Z"/>
    <path d="M9.6,314.2c-.8,0-1.5,0-2.3,0,0,0,0-.5,0-.7.8,0,1.6,0,2.4,0,0,.2,0,.4-.1.7Z"/>
    <path d="M44.6,237.8c0-.8-.2-1.8,1.1-1.8.2,0,.5.4.5.6,0,.8-.8,1.5-1.6,1.2Z"/>
    <path d="M39.3,3.5c.5.2.9.3,1.3.5.3,0,.5.1.8.2-.2.2-.3.5-.6.7-.2.1-.6.3-.8.2-.5-.3-1-.7-1.4-1.1,0,0,0-.3,0-.4.1,0,.3,0,.6,0Z"/>
    <path d="M57.6,228.2c0-.5,0-1,.2-1.5.1-.3.5-.4.7-.6,0,.4.2.8.2,1.1,0,.3-.2.7-.3,1,0,.3,0,.6-.1.9-.2-.3-.4-.5-.6-.9Z"/>
    <path d="M48.7,234.3c-.5.2-1,.7-1.4.1-.1-.2.2-1.1.4-1.1.5,0,1,.2,1.5.3-.1.2-.3.5-.6.7Z"/>
    <path d="M56.9,135.3c.2.5.4.9.4,1.3,0,.1-.6.4-.7.4-.3-.2-.8-.7-.7-.9.2-.4.7-.6,1.1-.8Z"/>
    <path d="M19.7,427c.2.3.6.6.5.7-.2.4-.5.8-.7,1.1-.3-.3-.6-.6-.9-1,.4-.3.7-.6,1.1-.9Z"/>
    <path d="M64.6,34.3c0-.9,0-1.8,0-2.6,0-.3.3-.6.4-.9.2.1.3.3.5.4-.1.1-.3.2-.3.3,0,.6-.2,1.4.1,1.9.6.9,0,.9-.6.9Z"/>
    <path d="M40.7,192.6c.4.2.8.3,1.1.5.2.1.2.4.3.6-.2.1-.5.3-.6.3-.4-.1-.9-.4-1.3-.6-.2-.2-.4-.4-.6-.7.3,0,.6,0,1.1,0Z"/>
    <path d="M42.6,370.3c.5,0,.8.1,1.2.2-.2.3-.4.6-.7.8-.3.3-.7.4-1.1.7-.3-.7-.1-1.2.6-1.7Z"/>
    <path d="M51.5,270.3c.2-.2.4-.5.6-.5.2,0,.5,0,.8.1,0,.2-.1.4-.3.5-.7.5-1.3.9-2,1.3-.1,0-.4,0-.6,0,.1-.1.3-.2.4-.4.4-.3.7-.6,1.2-1Z"/>
    <path d="M36.1,5.8c.3-.5.6-1,1-1.3.2-.2.6-.2.8-.1.2.1.3.5.5.7-.3.1-.5.2-.8.4-.3.2-.5.4-.8.5-.2,0-.4,0-.7-.1Z"/>
    <path d="M39,330.3c-.8-.6-.2-1,.2-1.4.1-.1.5,0,.8,0,0,.7-.2,1.5-.3,2.2-.2-.3-.4-.5-.7-.8Z"/>
    <path d="M38.8,122.8c.2.2.4.4.5.6-.2,0-.3.2-.5.1-.3,0-.6-.2-.8-.2-.5-.1-1-.2-1.5-.4,0-.1,0-.3,0-.3.7,0,1.3,0,2,0,0,0,.1.1.3.2Z"/>
    <path d="M51.2,217.3c0-.5,0-.9,0-1.3,0-.2.3-.3.5-.5.1.2.2.4.3.6,0,0,0,0,0,.1q.5,1.2-.9,1.1Z"/>
    <path d="M23,303.4c-.5,0-.8,0-1.2,0,.2-.4.5-1.1.6-1,.5.1,1,.5,1.4.7-.3.1-.5.3-.9.4Z"/>
    <path d="M48,403.4c.1.4.2.7.3,1-.6,0-1.2.2-1.8.3.2-.4.4-.8.7-1.1.2-.2.5-.2.9-.2Z"/>
    <path d="M37,134.6c.2-.6.5-1,.7-1.4,0,0,.2.1.2.2,0,.7,0,1.3.1,2-.4-.2-.7-.4-1.1-.7Z"/>
    <path d="M14.3,175.8c.1-.6.3-1,.8-.5.3.3.5.8.7,1.2-.4,0-.9,0-1.3-.1-.1,0-.2-.3-.2-.6Z"/>
    <path d="M24.1,207.6c.3-.5.6-1,1-1.3.1-.1.5,0,.8.1-.1.3-.2.6-.4.8-.4.2-.9.3-1.5.4Z"/>
    <path d="M47.7,242.5c0,0,.1-.1.1-.1.6,0,1.1,0,1.7,0,0,0,.1.4.1.4-.5.2-1.1.4-1.6.6,0,0-.2-.4-.3-.7Z"/>
    <path d="M40.7,332c.2.2.3.4.4.6-.5.2-1,.4-1.5.5-.1,0-.3-.3-.5-.5.2-.2.5-.5.7-.6.2-.1.5,0,.9,0Z"/>
    <path d="M21.2,226.5c-.3,0-.5.3-.7.2-.3,0-.5-.3-.7-.4.2-.2.3-.4.6-.5.3,0,.7,0,1.1,0,.3,0,.7.3,1,.5-.4,0-.7.1-1.2.2Z"/>
    <path d="M47.9,130.9c-.3,0-.5,0-.8,0,0-.5,0-1,.3-1.4,0-.2.5-.2.8-.4,0,.6-.1,1.1-.3,1.7Z"/>
    <path d="M27.2,128.9c-.3.1-.6.3-.9.3-.2,0-.5-.4-.4-.5.1-.3.4-.6.6-.6.4,0,.8.2,1.2.3-.2.2-.3.3-.5.5Z"/>
    <path d="M21.8,301c-.3-.2-.6-.5-.8-.8.3,0,.6-.3.8-.3.4.1,1.2.4,1.2.6,0,1-.8.1-1.2.5Z"/>
    <path d="M15.2,305c0,0-.1,0-.2,0-.4.1-.8.3-1.2.4,0,0-.2-.3-.2-.3.4-.3.9-.7,1.3-1,.1,0,.4.1.6.2-.1.2-.2.4-.4.6Z"/>
    <path d="M49,208.4c0,.4-.1.6-.2.8-.1.2-.4.4-.5.6-.1-.3-.4-.6-.4-.7.2-.5.5-.9.7-1.3.1.2.3.4.4.7Z"/>
    <path d="M45,194.4c-.2-.4-.3-.8-.4-1.1.3,0,.6-.3.8-.2.2,0,.5.5.5.6-.2.3-.5.5-.9.7Z"/>
    <path d="M61,139c-.5.1-1.1.2-1.6.2,0-.2,0-.5,0-.6.6-.7,1.1,0,1.6.4Z"/>
    <path d="M48.5,359.5c-.5,0-.8,0-1.2.1,0-.3,0-.8.1-.8.3-.1.6,0,1,0,.3,0,.5.2.7.4-.2.1-.4.2-.7.3Z"/>
    <path d="M32.9,114c-.2,0-.4,0-.5,0-.3,0-.6.2-.9.3,0-.1,0-.3,0-.3.3-.3.5-.7.9-.9.2-.1.6,0,.9,0,0,.2-.2.5-.3.8Z"/>
    <path d="M22.9,128.3c.5-.2.8-.4,1.3-.5.2,0,.5.2.8.3-.2.2-.4.5-.6.6-.5,0-1,0-1.5,0,0-.1,0-.2,0-.4Z"/>
    <path d="M11.6,363c.2.4.3.8.4,1.1-.2,0-.5,0-.6-.2-.2,0-.3-.2-.4-.4-.1-.3-.2-.6-.3-.9.3,0,.6.2.9.4Z"/>
    <path d="M40.5,111.2c-.5-.1-.8-.2-1.1-.3.4-.2.7-.5,1.1-.6.2,0,.5.2.7.3-.2.2-.4.4-.7.6Z"/>
    <path d="M22.3,422.9c0,.3-.2.5-.3.7-.2-.2-.6-.4-.5-.5,0-.4.3-.8.5-1.1,0,0,.3,0,.4,0,0,.3,0,.6,0,1Z"/>
    <path d="M12.5,312c0-.4.1-.7.2-1,.2.2.6.3.6.5,0,.4,0,.9,0,1.3-.2-.2-.5-.5-.8-.8Z"/>
    <path d="M62.2,107.3c.5-.1.8-.3,1.2-.3.3,0,.5.2.8.3-.2.2-.5.6-.7.6-.5,0-.9-.4-1.3-.6Z"/>
    <path d="M33.2,198.3c.4,0,.7,0,1,0-.2.3-.3.7-.5.9-.2.2-.6,0-.9.1,0-.3.2-.6.3-1Z"/>
    <path d="M34.7,320.5c-.2.3-.4.6-.7.7-.3,0-.6-.1-.9-.2.2-.2.3-.6.6-.7.3,0,.7,0,1,.1Z"/>
    <path d="M4,323.9c.5,0,1,0,1.5,0,.1,0,.3,0,.3.2,0,.1,0,.3,0,.4-.7,0-1.4-.2-2.1-.3,0,0,.1-.2.3-.3Z"/>
    <path d="M51.5,369.4c.3.2.5.3.8.5-.1.1-.3.3-.4.3-.3-.1-.8-.2-.9-.5-.2-.3-.3-.8-.4-1.3.3.3.6.6,1,1Z"/>
    <path d="M58.7,267.8c.2-.4.4-.7.6-.9.2-.2.4-.2.6-.3,0,.4.1.9,0,1.1-.3.2-.8.2-1.2.2Z"/>
    <path d="M52,228.3c0,0,.1-.1.1-.1.6-.6,1-.3,1.4.2,0,0,0,.4-.1.4-.5,0-1.2.5-1.4-.4Z"/>
    <path d="M31.4,286c.5,0,.9,0,1.4-.1-.2.3-.5.6-.7.9-.2-.2-.5-.5-.7-.7Z"/>
    <path d="M17,170.2c.2,0,.3,0,.4,0,.5,0,.9.2,1.4.3,0,.1,0,.4-.1.4-.6,0-1.3-.2-1.9-.2,0-.1,0-.2.2-.4Z"/>
    <path d="M50.9,243.4c-.6-.6-.2-.8.3-.9.4,0,.7.2,1.1.4-.3.2-.5.4-.8.5-.1,0-.3,0-.5,0Z"/>
    <path d="M11,311.3c-.4.2-.6.3-.9.4,0-.2,0-.5,0-.6.3-.3.7-.4,1-.6,0,.3,0,.6-.1.9Z"/>
    <path d="M51.8,207.9c0,.3,0,.5,0,.8,0,.2,0,.5,0,.7-.2,0-.5,0-.5,0,0-.5-.2-.9-.2-1.4,0,0,.4,0,.6,0Z"/>
    <path d="M15.9,424.9c.3.5.6.9.9,1.4-.4-.2-.9-.4-1.3-.7-.6-.5-.1-.6.4-.6Z"/>
    <path d="M25.9,260.8c.4,0,.8,0,1.1,0,.2,0,.1.5.2.8-.3,0-.6,0-.8-.1-.2-.2-.3-.5-.4-.8Z"/>
    <path d="M33,258.2c-.4.2-.7.4-1,.5,0-.2-.3-.6-.2-.7.2-.3.6-.4.9-.6.1.2.2.5.3.8Z"/>
    <path d="M49.4,420.4c.1-.3.3-.7.4-.7.3,0,.6.3,1,.5-.1.1-.2.4-.3.4-.3,0-.7,0-1.1-.2Z"/>
    <path d="M15,178.4c.1,0,.2-.2.2-.2.4.1.8.2,1.2.4-.1.2-.2.5-.3.5-.6.1-1.1,0-1.1-.7Z"/>
    <path d="M13.1,178.4c-.2.2-.3.4-.5.5-.2.1-.5.2-.6.2-.2,0-.3-.3-.4-.5.2-.2.5-.5.7-.5.3,0,.6.2.8.4Z"/>
    <path d="M59.6,223.5c-.3-.3-.5-.5-.7-.8.3,0,.6-.2.8-.1.2,0,.4.3.6.5-.2.1-.4.3-.7.4Z"/>
    <path d="M10.3,157.5c0-.2.2-.5.3-.5.4,0,.7.1,1.1.2,0,.2-.2.5-.3.5-.3,0-.7,0-1.1-.2Z"/>
    <path d="M34.4,251c.4.3.6.6.9.9-.3,0-.7.1-.9,0-.5-.2-.5-.6,0-.9Z"/>
    <path d="M13.9,149.2c-.1-.2-.2-.6-.2-.6.3-.2.7-.2,1-.3,0,.2,0,.5,0,.7-.1.2-.4.2-.8.3Z"/>
    <path d="M18.6,390.8c.4-.2.9-.3,1.3-.4,0,.2,0,.4,0,.6-.5,0-.9,0-1.4-.2Z"/>
    <path d="M24.8,253.1c0,0,0-.2,0-.2.4-.1.8-.2,1.2-.3,0,.2,0,.4.1.6-.4,0-.8,0-1.3,0Z"/>
    <path d="M29,129.1c.5-.2,1-.3,1.5-.4v.6c-.5,0-1,0-1.5-.2Z"/>
    <path d="M12.1,172.7c.4-.6.7-.2.8,0,.1.3,0,.6,0,.9-.3,0-.6-.1-.8-.3-.1-.1-.1-.4-.1-.7Z"/>
    <path d="M42.4,233.8c.4,0,.8.2,1.1.4-.2.2-.4.5-.6.5-.2,0-.5-.2-.8-.3,0-.2.2-.3.2-.6Z"/>
    <path d="M27.7,192c-.3-.2-.6-.5-.9-.7.2-.1.4-.3.5-.3.2,0,.5.2.7.3,0,0-.2.4-.3.7Z"/>
    <path d="M37.3,282.5c-.7,0-.7-.4-.3-.8.2-.2.5-.2.8-.3-.1.3-.2.7-.4,1.1Z"/>
    <path d="M57.6,230.2c.1,0,.3,0,.3,0,.3.2.6.5.9.7-.2.1-.4.3-.5.3-.4-.2-.8-.4-1.1-.6.1-.1.2-.2.4-.4Z"/>
    <path d="M36.7,259.8c-.2.3-.5.6-.8.9-.1-.2-.3-.3-.4-.5.4-.1.7-.3,1.2-.4Z"/>
    <path d="M16.3,251.4c-.2.3-.5.6-.8.9,0-.2-.2-.5-.3-.7.3,0,.6-.2,1-.2Z"/>
    <path d="M50.3,358.6c.7.4.4.8,0,1-.1,0-.3,0-.5.1.1-.4.3-.8.5-1.2Z"/>
    <path d="M41,351.2c.1.2.2.3.2.5,0,.2,0,.4,0,.6,0,0-.3.2-.4.1-.1-.2-.3-.4-.3-.7,0-.2.3-.4.5-.6Z"/>
    <path d="M27.8,423.4c.2.1.2.3.2.4,0,.3,0,.7-.1,1-.2,0-.5-.2-.5-.2,0-.4.1-.8.3-1.2Z"/>
    <path d="M49.6,315.9c0-.4,0-.7,0-1,.2.1.5.3.7.4-.2.2-.5.4-.8.6Z"/>
    <path d="M13.3,227.9c.4,0,.7.2,1,.3-.2.1-.5.4-.7.4-.7.1-.5-.3-.3-.7Z"/>
    <path d="M25.2,397.4c.1.3.2.5.3.8-.2,0-.5,0-.6-.2-.2-.2-.2-.5-.3-.8.2,0,.4,0,.6.2Z"/>
    <path d="M47.5,310c0-.2.1-.4.2-.5.2.3.4.5.6.8,0,.1-.2.4-.3.6-.1-.3-.3-.5-.5-.8Z"/>
    <path d="M10.5,154c0,.3-.1.6-.2.6-.3,0-.6-.1-1-.2,0-.2.1-.5.2-.5.3,0,.6,0,1,0Z"/>
    <path d="M17.9,182c.2,0,.4-.1.5,0,.2,0,.4.3.6.4-.2,0-.5.3-.6.3-.2,0-.4-.4-.5-.6Z"/>
    <path d="M41,138.2c.4,0,.8,0,1.1,0-.2.2-.3.5-.5.6-.4.1-.8,0-.6-.6Z"/>
    <path d="M35.6,106.8c.3,0,.6,0,.9.1-.1.2-.2.4-.4.5-.2.1-.5.2-.7.2,0-.3,0-.5.2-.9Z"/>
    <path d="M25.2,93.8c.3,0,.5.2.6.4,0,.2,0,.5-.1.7-.3-.2-.7-.4-1-.6.2-.2.3-.3.5-.5Z"/>
    <path d="M50.6,427.4c-.4-.1-.6-.2-.9-.3.1-.1.2-.4.3-.4.3,0,.7,0,1,0-.1.2-.2.4-.4.6Z"/>
    <path d="M24.7,400.3c.4-.7.6-.3.8,0,.1.2,0,.5,0,.7-.3-.2-.5-.4-.8-.7Z"/>
    <path d="M10.8,148.7c0-.1,0-.2.1-.2.3-.1.7-.2,1-.3,0,.2,0,.5,0,.5-.3,0-.7,0-1.1,0Z"/>
    <path d="M37.6,278.6c.3.2.6.4.7.7,0,0-.1.3-.3.4,0,0-.3,0-.3-.1-.1-.3-.2-.6-.2-1Z"/>
    <path d="M28.6,214.9c0,0-.1.1-.1.1-.3,0-.7.2-1,.2,0-.2,0-.5.1-.5.4,0,.7,0,1.1.1Z"/>
    <path d="M17.9,150.1c-.1.3-.3.5-.4.7-.2-.2-.4-.5-.5-.7.3,0,.6,0,.9,0Z"/>
    <path d="M58.5,225.2c-.3.1-.6.2-.9.2,0,0,0-.4-.1-.6.3,0,.5,0,.8.1.1,0,.2,0,.3,0,0,0,0,.1-.1.2Z"/>
    <path d="M7.1,316.3c0,.2,0,.4-.1.5-.2.2-.5.3-.8.5,0-.1-.1-.3,0-.3.3-.3.6-.5,1-.7Z"/>
    <path d="M43.1,399c-.3.2-.6.4-.9.5,0,0-.2-.3-.3-.4.4,0,.7-.1,1.2-.1Z"/>
    <path d="M33.7,66.1c0,.4,0,.7.1.9-.2,0-.4,0-.6,0,.2-.3.3-.6.5-.9Z"/>
    <path d="M37.7,271.3c0,0-.1-.1-.1-.1-.1-.4-.3-.7-.4-1.1.1,0,.3,0,.4.1.3.3.7.7,0,1.1Z"/>
    <path d="M12.9,11.7c-.3,0-.4.1-.6.2.1-.2.2-.4.4-.6.2-.2.4-.3.7-.3,0,0,.2.2.3.2-.2.1-.4.3-.7.4Z"/>
    <path d="M53.9,242.5c.4.1.6.3.9.4-.3,0-.7.2-1,.3,0-.2,0-.4.2-.7Z"/>
    <path d="M32.5,106.8c0,.3.1.7,0,1.1,0,0-.3,0-.5,0,.1-.3.2-.7.4-1.1Z"/>
    <path d="M27.4,299c-.1,0-.2.2-.2.2-.3,0-.6-.2-.9-.3,0-.1.2-.4.3-.4.3.1.6.3.9.5Z"/>
    <path d="M19.8,231.6c0,.7-.4.6-.8.4-.1,0-.2-.2-.3-.2.4,0,.7-.1,1.2-.1Z"/>
    <path d="M50.9,153c.3.2.5.3.7.5-.3,0-.5.1-.8.2,0-.2,0-.5,0-.7Z"/>
    <path d="M28.2,97.4c.1.2.2.4.3.5-.3,0-.6,0-.9-.2-.1,0-.1-.3-.2-.4.2,0,.5,0,.8,0Z"/>
    <path d="M32.8,104.2c-.3,0-.5.1-.7,0,0,0-.1-.3-.2-.4.2,0,.5-.2.7-.2,0,0,.2.3.2.5Z"/>
    <path d="M45.3,202.5c.2,0,.5,0,.5.2,0,.3,0,.6,0,.9-.2-.2-.4-.4-.5-.6,0-.1,0-.3,0-.5Z"/>
    <path d="M51.9,371.7c0,0,0-.1,0-.2.2-.3.4-.6.6-.9,0,.1.3.3.3.3-.3.3-.5.5-.9.7Z"/>
    <path d="M51.8,119.2c-.3,0-.4.1-.6.2,0-.2.1-.5.3-.7,0-.1.4,0,.5,0,0,.2,0,.4-.2.6Z"/>
    <path d="M24.8,116.1c-.2.2-.5.4-.8.5,0,0-.1-.2-.2-.3.3,0,.6-.2,1-.2Z"/>
    <path d="M35.1,256.9c-.2.2-.4.3-.6.3,0,0-.2-.3-.3-.5.3,0,.5,0,.9.2Z"/>
    <path d="M35.5,113.2c0,.3-.1.5-.3.6-.1,0-.4,0-.6-.1.3-.2.6-.4.9-.5Z"/>
    <path d="M2.1,229.2c.3.1.5.3.6.5,0,0-.1.3-.2.4-.2-.3-.3-.6-.5-.9Z"/>
    <path d="M45,172.5c-.2-.2-.2-.4-.2-.6.3,0,.6.1.9.2-.2.1-.4.3-.6.4Z"/>
    <path d="M29.1,252.4c-.2-.1-.4-.3-.4-.5,0,0,.2-.2.4-.3,0,.3,0,.5,0,.9Z"/>
    <path d="M22.5,297.1c0,.1,0,.2-.2.3-.2.1-.4.2-.6.3,0-.2,0-.4.2-.6.1-.1.4,0,.6,0Z"/>
    <path d="M51.4,219.7c-.3,0-.5-.2-.8-.3.2,0,.4-.2.4-.2.2,0,.3.3.3.5Z"/>
    <path d="M30.8,229.8c-.3.1-.6.2-.9.2,0-.2,0-.4,0-.6.3,0,.6.2.8.4Z"/>
    <path d="M34.4,264.2c-.2.2-.4.3-.6.4,0-.2,0-.5,0-.7.2,0,.4,0,.6.3Z"/>
    <path d="M11.5,13.2c-.2.3-.3.4-.5.6,0-.3,0-.5,0-.8.2,0,.3,0,.5.2Z"/>
    <path d="M56.8,15.3c.2.2.2.4.3.6-.2,0-.4,0-.6,0,0-.2.2-.3.4-.5Z"/>
    <path d="M23.7,430.5c0,.3,0,.5,0,.6-.2,0-.3-.2-.5-.3.1-.1.2-.3.4-.4Z"/>
    <path d="M3.2,331.9c0-.3,0-.6,0-.9.1,0,.3.1.3.1,0,.2-.1.5-.3.7Z"/>
    <path d="M54.3,12.4c-.3,0-.5-.1-.6-.2.1-.1.3-.3.4-.4,0,.2.2.4.2.6Z"/>
    <path d="M4.6,326.5c0,.3-.2.5-.3.6,0,0-.2-.1-.3-.2.2-.2.4-.3.6-.5Z"/>
    <path d="M21.5,209.4c.2.2.3.4.4.6-.3,0-.6,0-.9,0,.1-.2.3-.3.5-.6Z"/>
    <path d="M19.9,171.2c.1-.2.3-.4.4-.5l.3.4c-.2,0-.4.1-.7.1Z"/>
    <path d="M54.1,102c.2.1.4.3.5.4-.1,0-.3.2-.4.3,0-.2-.1-.4-.1-.7Z"/>
    <path d="M59.8,141.1c-.1-.2-.2-.4-.3-.7,0,0,.2,0,.3-.1,0,.2,0,.5,0,.8Z"/>
    <path d="M53.2,399.6c0-.2,0-.5.1-.7.1,0,.2.1.3.2-.1.2-.2.4-.5.5Z"/>
    <path d="M28.1,228.2c.3,0,.5.1.6.2-.2.1-.4.3-.6.4,0-.2,0-.4,0-.6Z"/>
    <path d="M3.9,224.1c-.2,0-.4-.2-.6-.4.2,0,.3-.2.5-.3,0,.2.1.4.1.6Z"/>
    <path d="M31.9,284.7c-.3-.1-.5-.3-.6-.5,0,0,.1-.1.2-.2.2.2.4.4.5.6Z"/>
    <path d="M32.2,155.8c.2.1.3.3.4.4-.3,0-.6,0-.9,0,.1-.1.2-.3.4-.4Z"/>
    <path d="M31.3,272.3c0-.2.2-.4.3-.5,0,.2.1.3.2.5-.2,0-.3,0-.5,0Z"/>
    <path d="M14.3,242.3c.2,0,.4.2.5.3-.2,0-.3.1-.5.2,0-.2,0-.3,0-.5Z"/>
    <path d="M18.8,124.7c.2-.2.3-.3.5-.4,0,.1,0,.2.1.3-.2,0-.4.1-.6,0Z"/>
    <path d="M19.3,121.6c.1.2.1.5.1.7,0,0-.2,0-.2,0,0-.2,0-.5.1-.7Z"/>
    <path d="M33,49.9c0-.2.1-.3.2-.5l.2.2c-.1,0-.2.2-.5.3Z"/>
    <path d="M22,116.2c-.2.2-.4.3-.7.4,0,0-.1,0-.2,0,0,0,.1-.1.2-.1.2,0,.4-.2.6-.2Z"/>
  </g>
</svg>