<?xml version="1.0" encoding="UTF-8"?>
<svg id="Layer_1" data-name="Layer 1" xmlns="http://www.w3.org/2000/svg" viewBox="0 0 404.02 274.44">
  <path d="M206.64,19.33l.49-3.86,2.41,1.93c.28-4.55,2.73-7.13,5.34-10.5,22.76-.31,48.49-.37,69.44,9.68,15.73,7.54,23.58,18.48,21.89,36.58,6.72-3.66,12-18.82,21.23-12.05,3.4,2.49.2,5.4,1,9.15l1.91-4.82c3.15,26.5,3.85,54.22,9.01,80.38,3.28,16.64,11.23,42.32,33.57,38.03,20.09-3.85,18.91-35.53,5.77-40.65-5.52-2.15-8.41-.28-12.93-.51-.89-.04-8.78-1.75-9.13-2.06-2.29-2.02-.34-6.08,1.98-7.81,12.75-9.55,29.79-5.04,38.25,7.69,24.65,37.12-19.81,76.71-51.49,49.56-9.45-8.1-15.87-22.34-19-34.15-5.97-22.58-5.75-46.35-10.52-69.22-12.34,11.57-26.44,20.66-41.1,29-1.31,2.68,1.1,6.34,1.43,9.27.16,1.41-.94,2.75-.91,3.69.02.57,1.65.44,1.89,1.27.86,3.04,3.29,17.09,2.81,19.84-1.12,6.41-9.34,6.56-13.37,3.11-5.01-4.3-5.02-25.06-7.93-30.72-1.37-2.67-7.6-2.08-8.33-8.14-.49-4.08,3.46-7.11,3.59-9.39.11-1.95-4.25-16.97-5.25-19.84-1.08-3.09-4.08-6.66-4.84-9.22-.76-2.57,2.82-7.43,2.3-9.58-.21-.86-4.41-4.86-5.64-2.48l.96-3.86c-6.85,3.08-8.89-.66-13.52-5.33l1.92-2.39c-2.41,1.19-10.78-7.48-11.32-1.47-.13,1.42,5.7,13.67,6.27,16.66,1.51,7.92-1.08,11.49-8,14.75l-1.41,9.64c30.5,6.89,41.23,27.7,10.9,46.23-11.78,7.2-31.41,12.72-44.1,5.82-8.23-4.48-18.75-21.01-22.65-29.53-3.49-7.61,3.63-15.06,11.73-10.77,5.48,2.91,9.95,18.93,15.65,23.97,7.87,6.96,22.86,1.81,31.02-2.67,3.16-1.73,13.69-7.98,9.55-11.78-5.66-5.19-23.01-7.63-30.69-9.92-20.95-6.26-42.62-12.03-61.18-23.87.22,3-2.57,6.72-2.41,9.1.21,3.19,3.14,6.61,2.93,11.63-.74,17.71-24.93,34.12-37.52,44.21,1.24,6.08-2.95,12.1-9.38,10.19-.66-.19-.55-1.4-1.22-1.62-4.83-1.59-8.75-.73-10.44-6.88-.64-2.31.62-3.88-.97-6.64-2.42-4.18-15.55-16.27-19.84-19.82-5.67-4.7-16.69-13.24-22.81-16.82-2.44-1.43-13.29-6.39-15.53-6.78-9.02-1.59-6.42,10.57-7.11,15.68-.39,2.86-1.75,5.52-2.27,8.18-.59,3.03,1.92,8.25-3.9,9.8-1.46-1.17-1.5-1.18-1.04-2.92,1.51-5.63,1.33-21.33.48-27.46-1-7.24-7.82-16.03-2.73-23.13,2.39-3.33,10.95-4.62,14.98-5.31,16.52-2.84,33.53-2.8,50.14-5.06,1.77-.45,2.01,2.89,2.89,2.99,1.18.14,2.36-2.79,3.83-2.96,2.79-.33,11.19.69,14.54,1.05,16.5,1.76,31.63,5.57,43,18.36,1.66-5.76-2.46-6.53-4.25-9.75C108.9,22.61,142.28-2.95,173.04.28c6.62.7,28.31,8.41,31.78,13.7,1.05,1.6-1.25,4.45,1.82,5.36ZM189.61,24.76c-10.2-8.64-18.51-10.07-31.72-6.34-11.73,3.31-26.8,14.52-13.56,26.02,16.57,14.39,44.42,18.45,64.76,25.02,1.61-.1,1.46-6.66,1.23-7.84-.61-3.04-7.26-18.33-8.98-21.99-2.76-5.84-6.86-10.75-11.72-14.86ZM273.33,26.09c-1.51-3.86-3.39-.04-6.22.06s-7.52-1.74-10.71-1.97c-5.65-.41-11.33.62-16.89-.98l19.49,28.34,9.51,23.84c.78.56,7.47-5.17,8.7-6.27,17.48-15.67,20.51-32.37-4.85-41.56l.96-1.47ZM45.26,73.46c16.74,9.42,30.33,23.17,43.95,36.49,7.73-4.38,30.64-22.78,31.14-31.32.5-8.56-17.29-13.99-23.85-15.35-20.53-4.26-41.49-2.04-61.89,1.49l3.86,3.87-2.88,1.91,9.19,4.85.48-1.93Z"/>
  <path d="M288.17,211.98c-3,3.49-5.38,8.62-10.96,7.4l2.88,3.36c-3.77,5.38-2.39,12.86-8.21,16.92l-2.4-1.46c5.91-11.81,2.85-12.81-8.7-10.12l.98,1.91c-4.04.62-8.24,1.87-12.07,3.18-.49.17-.32,1.33-1.93,1.76-1.08.28-7.46,1.25-6.3-1.53.83-1.99,2.76-.31,3.61-.7.44-.2,3.92-5.04,4.3-5.34.29-.22,2.33.61,3.74-.71.94-.88-.2-2.42.79-3.91,2.36-3.56,17.01-14.1,21.39-18.33,1.04-1,2.25-1.69,1.91-3.39-11.22-3.13-23.98,2.41-34.48,6.58-5.66,2.25-24.47,10.09-28.33,13.23-.45.37-1.33,1.16-.98,1.43,13.65.24,10.55,13.8,9.67,23.2l16.42-7.72c-1.66,9.13,5.12,14.58-6.1,19.5-3.09,1.35-6.84,1.39-9.89,2.68-4.97,2.1-10.36,7.63-15.82,5.87l-3.45,8.65-2.51-1.57c-.11-1.96,1.85-5.07,1.64-6.66-.22-1.72-3.86-2.01-3.1-7.51.53-3.82,4.73-10.25,4.26-12.51-.41-1.98-4.28-4.5-3.77-7.48l-3.35.05c-.95-2.55-.04-5.19-.87-7.84-.77-2.45-4.67-5.65-5.21-9.37-.32-2.17.84-3.68.75-5.47-.17-3.33-9.89-22.12-12.34-26.33-2.69-4.61-5.5-9.27-8.88-13.42-4.68-2.45-44.62,17.18-53.14,16.98l12.98,15.53,2.02.91c7.53-1.94,14.33-5.92,21.76-8.19,7.78-2.38,13.54-4.83,21.23-.5l-.97,2.3c3.47,1.01,2,7.68.43,10.21-.13.22-3.33,3.54-3.57,3.64-2.48,1.04-6.11-1.17-9.67-.51-2.16.4-16.84,6.64-17.16,8.04,7.67,9.89,18.41,23.35-1.81,25.71l-2.54,8.57-2.39-.61c-.56-2.6-.59-6.54-1.7-8.84-.79-1.63-2.61-1.88-3.17-2.86-.99-1.74-5.55-12.78-6.26-12.79l-6.76,4.82c-.54,5.92-.99,16.85-9.18,16.42-.11-2.56,2.71-3.39,3.42-5.77.17-.56.51-7.49.43-8.14-1.07-8.53-12.96-11.97,1.5-20.89,1.33-2.94-7.27-11.86-9.7-14.49-3.67-3.97-14.18-11.25-13.98-16.8.11-3.3,2.67-6.68,5.74-7.85,8.76-3.35,21.07-4.82,30.72-7.94,9.95-3.21,19.16-8.08,29.22-10.9l-3.39-4.82c-3.82.98-1.47,6.46-6.18,3.75,2.27-7.11-5.51-13.15-6.67-17.01-2.64-8.76,6.7-12.5,13.83-12.63,15.86-.3,56.44,6.89,70.4,14.45,16.57,8.97,21.84,28.42,12.26,44.8,1.37,1.98,1.38.95,2.62.73,4.05-.72,8.55-3.57,12.79-4.63,12.81-3.22,46.43-3.35,39.86,17.64-1.37,4.38-3.53,4.87-5.67,7.37ZM214.75,195.58c6.14-6.72,15.74-16.16,12.41-26.2-5.17-15.58-45.87-21.74-60.14-20.54l9.69,13.98c11.8,12.24,22.24,25.81,28.02,42.06,1.36.28,1.23.19,2-.62,2.7-2.87,5.37-5.77,8.02-8.68Z"/>
</svg>