<?xml version="1.0" encoding="UTF-8"?>
<svg id="Layer_1" data-name="Layer 1" xmlns="http://www.w3.org/2000/svg" viewBox="0 0 527.48 314.15">
  <g id="pjXIaK">
    <g>
      <path d="M524.38,42.37l-8.68,4.96c-11.43,3.19-21.15,8.14-32.25,11.16-2.56.69-6.81,2.99-9.92,3.72-1.65.38-3.51,1.2-3.72,1.24-6.09,1.09-7.82-1.66-12.41-3.72-1.49-.67-3.25-1.44-4.96-1.24l-1.24,2.48,4.34,1.24,1.24,4.96h2.48v4.96l-3.72-1.24,1.24,4.96c1.54-.15,5.86,1.85,6.2,3.1.36,1.32-.27,3.45,0,4.96.09.47,1.17.78,1.24,1.24.33,2.22.37,9.11-3.1,8.06l-6.82-4.34c-.22-2.41.31-5.14,0-7.44-.55-4.01-2.52-5.3-1.24-9.92.24-.83-.14-2.1,0-3.1-4.22-.09-6.64-8.26-6.2-12.41h-2.48l-2.48-10.54-12.41-17.37,7.44,1.86.62-11.16c4.61,3.57-1.24,12.24,4.34,14.89l.62-4.96-.62-6.2h2.48c-.35-9.81,8.42-.97,13.03-4.96l3.72,3.72h2.48c.63-1.4,2.11-1.02,2.48-1.24,2.72-1.61,3.87-6.15,8.06-4.96v-3.1l10.54-6.82,1.86,3.72c5.94-1.22,8.96,3.8,7.44,9.3-.3,1.07-3.78,2.43-2.48,5.58h-4.96l2.48,4.96-4.96-.62c2.54,1.3,4.63,4.13,6.82,5.58.29.19.94-.19,1.24,0,2.03,1.3,4.74,1.94,4.34,4.96-2.26-.93-4.3,1.6-5.58,1.24-.51-.15-.77-1.14-1.24-1.24-1.14-.24-2.69.29-3.72,0-.22-.06-2.89-1.96-3.72-2.48-1.44-.91-1.92-3.13-4.34-2.48l2.48,4.34-1.24,6.82c-4.44,1-6.14-2.28-9.92-3.72l-2.48,4.96c-.35-2.93-2.85-5.78,0-8.06v-1.24c-1.39-.61-1.03-2.16-1.24-2.48-1.55-2.42-2.78-1.41-4.34-1.86-1.08-.31-2.18-3.6-4.96-2.48l-8.68-4.96c-2.72.77-2.44,9.07-4.34,10.54.86,1.12,4.79,5.59,4.96,6.2.74,2.61,1.15,6.44,2.48,8.68,1.58,2.65,4.96,5.06,8.06,4.34.61-.14,4.48-2.39,4.96-2.48,1.86-.33,4.59.45,6.2,0,.68-.19,1.8-2.3,2.48-2.48,1.94-.53,5.32.46,7.44,0,1.77-.38,6.74-4.43,8.68-4.96,6.88-1.87,10.01-4.14,16.13-7.44,2.34-1.27,6.66-2.37,8.68-3.72,3.04-2.02,6.2-6.57,8.06-9.3l-2.48-9.92c-2.27-1.64-4.65-5.53-6.82-6.82-2.67-1.59-4.94-.73-7.44-1.24-4.55-.93-10.17-4.38-14.89-4.96-5.47-.67-13.68-1-18.61-1.24-8.24-.38-17.32-.29-24.81,1.24-3.28.67-7.77,1.55-11.16,2.48-1.98.55-6,4.73-11.16,6.2-.43.12-3.59,3.42-4.96,3.72-1.6.35-3.83-.22-5.58,0,.06.97-.6,2.01.62,2.48,2.44.94,5.92,1.36,5.58,4.96-4.21-.87-8.26-2.42-11.78-4.96-5.92-.46-18.92-2.87-24.81-1.24-.68.19-1.8,2.29-2.48,2.48-9.07,2.49-16.26,2.83-24.81,7.44-8.62,4.65-16.4,7.67-24.81,12.41-3.7,2.08-8.68,4.97-12.41,7.44-3.66,2.43-11.11,9.59-13.03,13.03-.32.58.24,1.63,0,1.86h-3.1l-1.86-1.86,1.24-1.86c-2.02-.68-2.53,1.1-3.1,1.24-8.77,2.08-12.91,4.49-21.09,8.68-5.16,2.64-11.56,5.05-16.13,8.68-9.86,7.85-21.36,23.59-29.77,28.53-13.26,7.78-25.26,15.72-38.46,22.33-5.51,2.75-11.15,6.9-17.37,9.92-11.67,5.69-25.83,11.6-38.46,16.13-14.27,5.11-27.99,9.65-42.18,14.89l-23.57,8.68c-21.57,9.54-49.36,20.56-61.41,44.04-.43.84-2.29,1.84-2.48,2.48-.35,1.22.62,2.7-1.24,3.72v1.24c1.23.78,3.45,4.08,4.34,4.34,1.34.38,3.63.4,4.96,1.24,1.07.68,3.41,4.52,3.1,5.58l-3.1,3.1c-1.98-2.89-4.11-2.7-7.44-2.48l-1.86-1.86-.62-4.34-3.1,1.24v8.68H.27c.61,7.75-.83,16.59,0,24.19.05.45,1.17.77,1.24,1.24.27,1.71-.17,3.78,0,5.58,1,1.03,4.97-2.34,5.58-2.48,3.56-.79,5.97.3,8.06,3.1.43,2.23-3.51,5.46-3.72,6.2-.2.72-.46,4.07.62,4.34l10.54-8.06v-1.24c-2.72-2.11.24-6.57-2.48-8.68l3.72-1.86v-7.44l-8.06,1.24-4.34,8.68-3.1,1.24c-3.15-1.56-8.67-10.95-3.72-12.41,2.44-.72,3.34,1.17,3.72,1.24,1.66.3,3.81-.2,5.58,0-.19-2.02-.25-5.59,1.86-6.2,2.47-.71,3.05,1.02,3.72,1.24,2.53.83,6.93,2.26,8.68,0,4.18,5.25,11.87,3.44,16.13,7.44h1.24c4.28-5.21,8.62,6.05,9.92,6.2.98-1.86,2.49-.71,3.1.62,1.04,2.26-1.08,1.61-1.86,1.86-1.9.6-4.17,1.28-5.58,3.1l3.72,6.2-4.34,4.34-4.96-3.72-8.06,2.48c-.21,3.35-3.68,4.34-2.48,8.68l4.34,2.48,5.58-2.48-1.24-1.86,1.24-3.1c2.58.25,5.58-.36,8.06,0,.46.06.74,1.13,1.24,1.24,1.1.26,2.67-.29,3.72,0,1.76.47,2.31,3.94,1.86,5.58-.87,3.18-10.05,1.43-13.03,1.86-.67.1-5.48,2.36-6.2,2.48-2.98.5-6.13-1.23-8.06,1.86,1.75,2.98,4.35,1.33,6.82,1.86,1.48.32,3.87,3.11,4.96,3.72.58.32,1.63-.24,1.86,0l-1.24,4.96-4.34,1.24c-2.43.73-3.26-1.13-3.72-1.24-1.12-.26-2.69.29-3.72,0-.58-.16-6.86-4.8-7.44-4.96-1.14-.31-2.99.2-4.34,0l2.48-3.72-5.58-1.24-1.86,3.72,15.51,7.44c11.51,5.25,26.48,6.31,39.7,3.72,5.5-1.08,12-3.21,17.37-6.2,1.44-.81,3.71-.61,3.1-3.72l4.34,1.24c10.87-6.46,22.17-10.56,33.49-13.65,12.41-3.39,25.5-6.74,38.46-8.68,14.28-2.15,27.25-4.96,40.94-7.44,7.74-1.4,5.26-1.6,11.16-4.96,7.93-4.52,21.15-8.75,29.77-12.41,2.48-1.05,6.98-4.84,7.44-4.96,1.33-.37,3.5.31,4.96,0,.42-.09,3.3-2.39,3.72-2.48,5.28-1.14,9.99-2.46,14.89-3.72,7.32-1.89,15.62-2.25,21.09-6.2,4.96,4.76,9.39-1.84,12.41-2.48,5.11-1.1,10.63-1.12,16.13-2.48,3.18-.79,7.08-1.05,9.92-2.48,2.29,2.08,5.04,2.88,8.06,2.48-.89-7.78,6.29-3.8,10.54-4.96,1.19-.32,2.26-1.56,6.2-2.48,7.05-1.64,13.92-3.65,21.09-4.96,1.4-.26,4.84-.87,6.2-1.24.68-.19,1.8-2.3,2.48-2.48,6.19-1.71,12.53-2.63,18.61-4.96,3.04-1.17,6.93-3.37,9.92-4.96,1.39-.73,1.98-1.9,4.34-1.24.73-2.51-.86-3.32-3.1-2.48-1.28.48-5.32,2.36-6.2,2.48-1.94.29-8.2.37-9.92,0-1.02-.22-4.76-3.05-6.2-3.72-.62-.29-1.66.24-2.48,0-.46-.14-6.15-5.9-6.82-6.82-.19-.26.2-.94,0-1.24-.57-.84-2.32-1.9-2.48-2.48-.22-.78.24-1.75,0-2.48-.16-.51-1.15-.78-1.24-1.24-.61-3.45.43-8.14,0-11.78h2.48c.02-3.6,4.58-5.81,6.82-8.68,1.55,1.75,6.15,1.61,8.68,1.24.46-.06.76-1.13,1.24-1.24,1.77-.38,3.77.82,4.96-1.24,1.58.83,3.54.83,4.96,1.24.69.2,1.79,2.28,2.48,2.48,4.5,1.29,9.35,5.22,10.54,9.92,3.83-.4,4.34,3.45,3.72,6.82-.09.47-1.18.78-1.24,1.24-.32,2.58.58,6.59,0,8.68-.29,1.03-4.24,3.56-4.96,4.96-1.12,2.2,1.95,2.23,3.1,1.86.65-.21,1.61-1.95,2.48-2.48,3.51-2.15,9.3-5.02,12.41-7.44.99-.78,6.69-6.36,6.82-6.82.24-.81-.14-2.11,0-3.1l-3.1,1.24-3.1-4.34v-3.72c4.95-5.87,1.24-15.27,2.48-22.33.09-.48,1.92-1.1,1.24-3.1h2.48c-2.22-3.3-1.95-7.58,2.48-7.44-.46,3.16,2.67,4.53,5.58,3.72,1.46-.41,3.24-5.23,6.82-3.72.96-5.84-7.41.04-8.68-1.24v-2.48c-1.36.61-4.65-2.03-4.96-3.1-.71-2.47,1.18-3.36,1.24-3.72.52-2.94,1.61-11.14,1.24-13.65-.42-2.83-1.61-8.2-2.48-11.16-.15-.5-1.13-.77-1.24-1.24-.72-3.08,1.7-4.99,1.24-8.06,3.63-.36,6.5,1.82,8.68,4.34v6.82c5.16.3,8.44-4.81,13.65-3.72.84-2.96-4.53-5.25-4.96-6.82-.48-1.75.33-4.79,0-6.82l9.92,9.3,3.1,4.34c1.32.36,19.77.36,21.09,0,.76-.21,2.58-2.98,3.72-3.72,1.54-1,4.19-.93,5.58-3.1,1.08-1.69,4.85-5.81,4.96-6.2.22-.77-.22-1.71,0-2.48.2-.69,2.3-1.8,2.48-2.48.61-2.18-.42-6.15,0-8.68l-1.86-1.86c-6.15.89-15.44-1.22-21.09,0-1.92.42-6.75,4.76-7.44,4.96-2.58.74-6.48,1.15-8.68,2.48-.84.51-1.6,1.82-2.48,2.48-5.94.71-12.03-.61-14.27-6.82,1.59-2.39,3.63-1.95,6.2-1.86v-2.48c8.61.16,13.35-6.55,21.71-8.68,7.65-1.96,19.18-2.84,26.05-7.44,1.91-1.28,2.88-4.33,5.58-3.72v-13.03l-3.1-3.1ZM245.27,98.19c2.29,1.03,4.59-1.19,4.96-1.24,1.69-.25,5.83-.29,7.44,0,.46.09.73,1.09,1.24,1.24.79.22,1.79-.26,2.48,0,.48.17.72,1,1.24,1.24,2.27,1.02,5.59,1.86,6.82,4.34,1.4,2.83-3.77,1.22-4.34,3.1l-9.92-2.48c-1.15,1.2-5.05,2.58-5.58,4.34-.93,3.05,4.49,3.52,6.82,3.1.47-.09.78-1.18,1.24-1.24,3.11-.38,6.72.27,9.92,0l6.82,3.72c-.73-4.02-3.3-6.02-2.48-10.54.09-.46,1.08-.73,1.24-1.24.24-.73-.22-1.7,0-2.48.09-.3,2.48-2.63,3.1-3.1.45-.33,2.95-.67,3.72-2.48l9.92,1.24,10.54,6.2c.6-4.92-4.16-7.38-4.96-11.78,2.67-3.67,5.57-1.08,8.68-.62-.21-2.74,4.12-7.02,6.82-6.2.51.15.77,1.13,1.24,1.24,1.12.26,2.69-.29,3.72,0,3.82,1.05,9.33,9.42,11.16,9.92,1.58.43,4.32-.29,6.2,0,.47.07.79,1.19,1.24,1.24,1.96.21,7.01.37,8.68,0,2.03-.46,1.94-2.87,0-3.72l-9.92,1.24c-5.4-3.46-10.48-5.53-9.3-13.03,1.22-.77,3.46-4.11,4.34-4.34,1.04-.29,2.62.26,3.72,0,.84-.2,1.89-1.96,4.96-1.24.47.11.73,1.08,1.24,1.24.73.24,1.7-.22,2.48,0,.69.2,1.76,1.59,4.96,2.48,1.03.29,1.95,3.34,4.34,2.48l-3.72-9.3,1.24-3.1h-4.96l-1.24-3.1c-.32-1.29,2.48-4.16,3.1-4.34,2.89-.86,5.81,3.76,8.68,4.96.91.38,2.83-.2,4.34,1.24l-2.48-6.82,6.2-3.1c-.32,1.6.48,2.84,1.86,3.72,3.67,2.36,3.99-.47,7.44,4.96,1.08,1.7,2.63,1.28,4.34,1.24l-1.24-8.06-4.96-3.72c-1.22-4.09,2.53-2.64,4.34-5.58.57,0,3.72,4.22,4.96,4.96,3.7,2.21,8.71.27,12.41,2.48,2.73,1.63,5.83,6.64,8.68,8.68l.62-5.58c-1.86-1.02-.89-2.51-1.24-3.72-.15-.5-1.13-.77-1.24-1.24-.72-3.09.94-6.25,4.34-6.82,1.63.5,2.12,4.5,3.72,4.96.77.22,1.71-.22,2.48,0,4.81,1.38,2.33,9.6,3.1,13.03.35,1.54,1.02,3.66,1.24,4.96.32,1.86-.77,3.75,1.24,4.96,1,3.3-5.93,3.68-8.06,3.1-.57-.16-1.64-1.91-2.48-2.48-6.25-4.25-11.65-10.56-17.37-16.13l-5.58-1.24c-.26,3.27,2.13,4.16,4.96,3.72,1.1,3.35,3.04,8.47,4.96,11.78,2,3.44,6.21,5.77,4.96,10.54l-4.34,1.24-9.3-6.82c.45-2.23-3.98-11.38-6.82-10.54l-3.1,1.24v3.72c.24.24,1.28-.33,1.86,0,3.54,2.01,1.45,7.49,9.92,9.92.71.2,2.13,2.49,3.1,3.1-2.1,3.36-6.8,3.94-10.54,3.1-.45-.1-.71-.99-1.24-1.24-.38-.17-.97.16-1.24,0-.94-.56-6.14-5.79-6.82-6.82-3.71-5.58-1.34-5.92-8.06-10.54-1.44-.99-1.95-3.09-4.34-2.48l3.72,3.72c.69,3.83,3.23,8.32,4.96,11.78,1.51,3.01,4.21,4.85,5.58,8.06,1.23.62-.92,2.39-1.24,2.48-.78.21-4.21.21-4.96,0-1.05-.29-2.44-3.8-5.58-2.48.48,3.13-.3,5.77-3.1,7.44-.27.16-.86-.17-1.24,0-.48.22-.73.99-1.24,1.24-.6.3-1.65-.24-2.48,0-1.07.31-1.86,3.42-4.96,2.48l-14.27-6.2c-1.34,1.35,5.45,7.57,4.96,9.3-.57,2.02-5.14,2.33-6.82,1.86-.68-.19-1.79-2.28-2.48-2.48-.77-.22-1.71.22-2.48,0-2.11-.61-1.54-3.23-1.86-4.34-.2-.69-2.29-1.8-2.48-2.48-.29-1.05.3-2.69,0-3.72-.19-.65-1.91-1.07-1.24-3.1h-4.96l-1.24,5.58c1.53.99,1.7,3.6,2.48,4.96,1.18,2.07,4.39,4.88,5.58,6.82.82,1.34.71,2.27.62,3.72l-6.82,1.24c-2.48-2.87-4.02-4.45-8.06-3.72v5.58l-5.58,4.34c-3.71-.52-9.01.73-12.41,0-.94-.2-4.83-2.99-6.2-3.72-1.39-.73-1.98-1.9-4.34-1.24l2.48,4.34v3.72c-1.46,1.76-2.11,4.14-4.34,5.58-.29.19-4.69,2.41-4.96,2.48-1.03.29-2.59-.25-3.72,0-.48.11-.78,1.18-1.24,1.24-1.59.24-6.02.31-7.44,0-.45-.1-3-2.2-3.72-2.48-.96-.38-3.56-.41-4.96-1.24-.61-.36-4.07-3.82-4.34-4.34-1.24-2.42,2.06-1.84,3.1-1.86,3.65-.07,6.74.25,9.92,1.24.78.25,1.95,2.12,4.34,1.24-1.07-3.51,4.32-3.62,4.96-5.58-.01-3.04-3.21-3.68-5.58-3.1-.5.12-.78,1.18-1.24,1.24-4.73.68-9.49-.36-13.65-1.24l-6.82-5.58-1.24-6.2,8.06-8.06ZM106.95,205.49c.77-1.82,2.89-4.35,3.72-6.2.29-.63-.24-1.66,0-2.48.88-3.05,8.77-1.53,11.78-1.86l3.1,3.1-13.03,13.03h-6.82c-.3-2.03.48-3.78,1.24-5.58ZM258.91,211.08c-4.13,1.19-8.84,1.25-12.41,3.72l-6.2,2.48c-1.32-1.63-7.36-1.96-8.06-4.34-.4-1.34-.05-2.92,1.24-3.72,1.66-1.03,3.29.04,3.72-1.24-2.01-3.23-3.66-6.8-8.06-5.58-.68.19-1.79,2.28-2.48,2.48-.83.24-1.89-.3-2.48,0-.96.48-4.13,2.37-4.34,3.1l1.24,4.34-2.48.62,5.58,3.1h4.34l1.24,6.2c-1.38.19-3.13-.29-4.34,0-1.32.31-5.51,1.81-7.44,2.48-.65.22-3.27,2.38-3.72,2.48-1.03.22-5.3.25-6.2,0-1.05-.29-2.44-3.8-5.58-2.48v4.34c-.14.48-6.96,5.1-8.06,5.58-2.01.88-6.54,1.66-8.68,2.48-13.17,5.02-26.79,10.3-39.7,14.89-.91.32-4.39,2.38-4.96,2.48-5.06.92-6.96-.81-8.06-5.58.78-2.73,6.4-.79,4.96-3.72-.88-1.79-4.52-2.84-3.72-5.58-5.16-.68-9.02,3.59-14.27,3.72-3.04,2.29-1.94,3.39.62,5.58l-2.48,3.1,9.3,1.24,3.1,4.96c-2.05-.66-2.37.98-3.1,1.24-4.66,1.66-9.09,3.26-13.65,4.96-.71.26-1.71-.25-2.48,0-.67.22-1.25,1.95-3.72,1.24l-4.34-3.72v6.2c-2.05-.66-2.37.98-3.1,1.24-6.82,2.47-14.22,4.55-21.09,7.44l-16.13,6.2-3.1-1.24-1.24-6.2c3.26.38,4.4-2.53,3.72-5.58-.41-1.81-4.43-6.72-4.96-8.68-.89-3.27-1.28-6.76-2.48-9.92-.79-2.1-3.39-3.88-2.48-6.82h-6.82l-3.1-6.2c2.23.96,3.73-1.1,4.34-1.24,2.67-.6,5.98-.24,8.68-1.24,2.38-.88,7.95-4.54,9.92-4.96,3.24-.71,9.4-.25,8.06,4.34-.6,2.03-3.59,1.71-3.72,1.86-.21.24.27,1.19,0,1.86-.36.86-1.94,1.3-1.24,3.72.2.69,2.28,1.79,2.48,2.48,1.03,3.61,3.47,6.54,3.72,7.44.29,1.05-.29,2.67,0,3.72.11.4,3.29,3.49,3.72,4.96l-1.24,5.58h8.68c.22-.22-.29-1.19,0-1.86,1.43-3.4,6.38-7.27,7.44-11.16.52-1.89-.89-4.04,1.86-5.58,2.62,2.9,8.72-1.04,9.3,4.34-2.08,1.51-1.04,4.33-1.24,6.82l3.72-1.24c-.68-2,1.15-2.62,1.24-3.1,1.33-7.53-.62-19.02,0-27.29.04-.45,1.2-.79,1.24-1.24.24-2.51.38-7.6,0-9.92-.07-.47-1.24-.83-1.24-1.24,1.75-2.96,4.33-1.34,6.82-1.86.47-.1.74-1.09,1.24-1.24,1.22-.35,2.7.62,3.72-1.24h1.24c1.97.96,3.41,2.63,4.96,3.72,3.23,2.28,4.83,5.99,7.44,7.44,3.03,1.69,4.91,6.03,8.68,8.68,2.51,1.76,2.9,2.58,4.96,3.72,1.45.81,3.92,4.65,4.96,4.96,1.33.4,3.37.4,4.96,1.24,2.8-2.08,3.9-4.5,3.1-8.06-.1-.46-1.05-.72-1.24-1.24-2.51-7.02-7.68-13.43-8.68-21.09-1.71-3.04-4.54-1.24-6.82-1.86-1.33-.36-3.63-3.63-3.1-5.58.84-3.05,2.95-.58,3.1-.62.51-.14.81-1.19,1.24-1.24,6.34-.71,6.82-1.1,12.41-3.72,2.57-1.2,6.02-1.75,8.68-2.48.55-.15,3.25-2.38,3.72-2.48,1.44-.31,3.44.26,4.96,0,.47-.09.78-1.18,1.24-1.24,1.69-.21,5.95-.32,7.44,0,1.38.3,4.53,3.6,4.96,3.72,1.13.32,3.73-.25,4.34,1.86.22.78-.24,1.75,0,2.48.35,1.09,2.03,2.08,1.24,4.96-.3,1.07-3.4,2-2.48,4.34,2.05-.62,2.25.84,3.1,1.24,2.59,1.2,5.28,2.34,7.44,3.72,2.38,1.53,1.94,3.59,1.86,6.2h3.72c-.68-2,1.15-2.62,1.24-3.1,1.98-11.3-1.98-28.4,0-39.7.09-.48,1.92-1.1,1.24-3.1-2.57.09-4.61.53-6.2-1.86,2.74-1.49,1.92-3.44,2.48-4.96.27-.73,2.02-1.56,1.24-3.72l5.58-5.58c3.1-.69,4.11,1.04,4.96,1.24,2.08.48,7.02-.45,5.58,4.34-.32,1.08-6.08,5.64-7.44,7.44-.82,1.08-1.71,1.19-1.24,3.1,1.38.19,3.13-.29,4.34,0,.73.17,6.29,3.51,6.82,4.34,2.15,3.36,21.88,22.64,25.43,24.19,1.63.71,5.26,1.1,7.44,2.48,1.07.67,2.01,2.27,3.1,3.1-.97.61-2.39,2.9-3.1,3.1ZM297.99,193.09c-.66,2.38-7.85,5.42-9.3,8.06-1.95-.87-3.36,1.18-3.72,1.24-2.63.47-13.57-.6-14.27,0l1.24,3.1-3.1,1.86c-1-1.58-3.97-1.82-4.96-2.48-2.34-1.55-9.11-8.7-11.16-11.16-1.05-1.27-2.37-1.6-1.86-3.72l5.58-1.24c1.02,1.86,2.51.89,3.72,1.24.69.2,1.79,2.27,2.48,2.48,2.33.69,5.81.68,7.44,2.48h9.3l-1.24-1.86c2.72-3.19,6.28-3.47,7.44-8.06-2.46-.1-4.02-1.91-6.82-1.24-3.52.84-5.02.78-8.68,1.24-.46.06-.79,1.2-1.24,1.24-2.44.24-7.69.4-9.92,0-.46-.09-.73-1.09-1.24-1.24-.79-.22-1.79.26-2.48,0-.48-.17-.72-1-1.24-1.24-.81-.36-3.15-.88-3.72-1.24-2.79-1.76-3.81-6.14-6.82-8.06v-2.48c2.29-1.39.69-4.22,1.24-6.2.2-.71,2.94-2.61,3.72-3.72.19-.26-.2-.93,0-1.24.6-.93,3.42-2.73,4.34-3.1.67-.27,1.67.22,2.48,0,.51-.15.78-1.15,1.24-1.24,1.54-.27,5.9-.27,7.44,0,.48.09,1.1,1.92,3.1,1.24-.71-3.73,2.47-6.91,6.2-6.2v2.48l4.96,1.24c.1,5.51,9.74,5.68,8.68,12.41-1.77-.2-3.92.31-5.58,0-1.63-.3-6.25-3.46-7.44-3.72-2.42-.52-6.03.37-8.68,0l-9.3,5.58c3.83,4.13,11.25,3.51,16.75,3.1.45-.04.81-1.22,1.24-1.24,4.49-.31,9.13.22,13.65,0l9.3,6.82,2.48,8.68c-2.29,1.39-.69,4.22-1.24,6.2ZM400.95,157.73c-2.05-.66-2.37.98-3.1,1.24-3.27,1.18-6.46,2.47-9.92,3.72-1.44.52-4.7.74-6.2,1.24-.67.22-1.25,1.95-3.72,1.24-3.54-3.45-8.1-3.9-6.82-9.92,7.54,1.49,1.92-6.04-1.86-4.96-.45.12-3.55,3.29-4.96,3.72-2.72.01-5.12-.71-6.82,1.86,1.13,1.72,5.22,7.6,6.82,8.06.77.22,1.71-.22,2.48,0,1.55.45,1.71,3.39,3.1,4.34l-1.86,1.86c-1.18.19-2.72-.27-3.72,0-2.1.57-4.53,1.67-7.44,2.48-1.32.36-2.42,3.87-7.44,2.48-1.05-.29-2.44-3.8-5.58-2.48v5.58l-1.86,1.86c-2.44-.4-4.23.5-6.2,1.24-6.25,2.38-14.97,6.88-21.09,8.68-1.63.48-3.82-.87-4.96,1.24l-8.06-5.58c.2-2.42-.3-5.1,0-7.44.06-.46,1.15-.77,1.24-1.24,1.44-8.13,2.89-13.82,5.58-21.71.61-1.77.84-3.13.62-4.96-4.97-.69-2.98.63-3.72,1.86-.69,1.17-3.49,2.92-3.72,3.72-.4,1.39-1.12,3.19-1.24,3.72-.29,1.22.19,2.96,0,4.34-4.6,1-7.27-1.74-11.16-2.48v-15.51l1.86-1.86c4.03,1.74,5.89-3.3,7.44-3.72,3.31-.91,7.85-1.58,11.16-2.48.37-.1,4.39-3.08,6.2-3.72,1.17-.41,3.03-1.44,3.72-1.24l10.54,6.82v2.48c-2.25,1.38-.76,4.09-1.24,6.2-1.64,7.08-4.42,14.4-6.82,21.71-.91,2.77.83,2.47.62,4.96l7.44-6.82,2.48-10.54c3.4-1.04,3.88,1.56,5.58,2.48.68.37,3.16.88,3.72,1.24,2.49,1.59.76,4.56,4.34,3.72v-42.18l8.06-3.72c1.94,1.77,4.12,3.39,6.2,4.96,11.61,8.73,21.31,21.06,34.73,27.29.62.29,1.66-.24,2.48,0,1.63.47,3.88,4.23,3.1,6.2ZM430.72,145.95c-.68,2.29-4.43,1.27-5.58,3.1-4.12-.04-7.57,2.27-11.16,3.72-.97.4-2.74-.66-3.72,1.24h-1.24c-1.97-.94-3.42-2.64-4.96-3.72-.3-.21-.99.19-1.24,0-6.48-4.91-1.23-5.84-.62-8.06,1.39-5.02-2.08-6.07-2.48-7.44-1.38-4.78-3.19-6.92-4.96-11.16-.56-1.33-1.29-2.85-1.24-4.34-5.89-.62-4.19,2.28-4.96,5.58-.11.48-1.13.76-1.24,1.24-.52,2.22.97,5.35-3.1,5.58-1.97-.94-3.42-2.64-4.96-3.72-.3-.21-.99.19-1.24,0-5.15-3.9-2.21-6.81-3.1-11.78-.06-.36-1.95-1.25-1.24-3.72.63-2.22,3.61-1.53,4.34-1.86,7.41-3.36,15.69-6.41,23.57-8.68.45-.12,4.24-3.31,6.2-3.72,1.27-.26,2.95.16,4.34,0v2.48c4.89,2.01,9.71,7.05,14.27,9.92,1.96,1.24,2.11,2.82,1.86,4.96-4.25.48-7.89-.46-10.54-3.72l-3.72-1.24c-2.31.02-3.75.93-6.2,1.24-1.19.15-2.82-.16-1.86,1.86.52,1.12,3.47,2.84,3.72,3.72,1.71,5.97,4.99,10.82,7.44,16.13,1.85,3.98,5.14,6.18,9.3,8.06,1.34.61,5.66-.12,4.34,4.34Z"/>
      <path d="M502.67,165.18c-2.36-.65-2.82,1.44-4.34,2.48-.3.21-.99-.19-1.24,0-4.4,3.32-1.91,5.5-8.68,7.44-.69.2-1.8,2.29-2.48,2.48-1.33.36-3.49-.31-4.96,0-5.26,1.08-12.37,3.03-17.37,4.96-.87.33-3.92,1.67-4.34,1.24.46-3.16-.65-7.67,0-10.54.24-1.07,1.5-7.84,1.24-8.68-.2-.66-1.91-1.07-1.24-3.1l4.34,1.24c2.53-1.74,5.12-4.52,7.44-6.2,1.94-1.41,4.01-1.85,6.2-2.48.69-.2,1.8-2.3,2.48-2.48,1.04-.29,2.62.26,3.72,0,.5-.11.78-1.18,1.24-1.24,1.9-.27,8.25-.37,9.92,0,.45.1.71.99,1.24,1.24.38.17.97-.16,1.24,0,.58.35,4.25,4.04,4.34,4.34.76,2.75-1.17,6.61,1.24,9.3Z"/>
      <path d="M507.63,119.9v4.96c-1.54,1.74-3.49,3.2-4.96,4.96-.2.24.21.99,0,1.24-1.71,2.1-5.92,5.61-8.06,6.82-6,3.42-12.05,1.46-17.37,4.96h-1.24c-.45-.12-.71-.97-1.24-1.24-.73-.37-3.16-.88-3.72-1.24-3.85-2.46-6.14-9.4-3.1-13.03v-1.24c-2.75-2.32-4.22-5.52-3.72-9.3,3.59-1.51,5.36,3.31,6.82,3.72,4.23,1.17,5.05-2.16,6.2-2.48,2.79-.77,12.57-2.9,14.89-2.48.47.09.78,1.18,1.24,1.24,5.28.66,10.94-2.01,14.27,3.1Z"/>
      <path d="M187.58,221.62v2.48c-1.18,1.66-4.09,3.4-4.96,4.96-.32.58.24,1.63,0,1.86-.14.14-2.47-.35-3.1,1.24l-4.34-1.24v-4.34l-3.72-6.82c4.75-.74,7.86-4.84,13.03-3.72l3.1,5.58Z"/>
    </g>
  </g>
</svg>