<?xml version="1.0" encoding="UTF-8"?>
<svg id="Layer_1" data-name="Layer 1" xmlns="http://www.w3.org/2000/svg" viewBox="0 0 531.62 163.26">
  <path d="M446.7,40.08c-.07-.05-.11-.08-.16-.11-.25-.29.26-2.09,0-2.65.03.07,1.1-.24,1.33.66.34,1.39-.65,2.28-1.17,2.09Z"/>
  <path d="M442.56,34.67c-.06-.8-.09-2.56,0-2.65.14-.14,3.83-.14,3.98,0,.44.44-.47,4.3,0,5.3-.1-.21-3.24-2.3-3.98-2.65Z"/>
  <path d="M174.91,62.5c-.15-.15-1.79.04-2.65,0-.13,1.19-.25,3.71,0,4.64.15.52,2.32,2.4,2.65,1.99.21-.25.24-6.39,0-6.63ZM294.16,120.14c-.76-17.24-4.27-33.13-2.65-50.35.98-10.41-2.62-22.63-3.98-30.48-.73-4.28-.44-3.98-2.65-7.95-.28-.5-.37-2.86-1.99-3.31-1.75-.48-2.12,1.21-2.65,1.33-2.9.65-7.41-.46-10.6,0-.93-2.25-3.33,0-3.31.66.01.53,2.45,1.92,2.65,2.65,1.18,4.28-.25,16.81,0,22.53.33,7.34,1.89,17.8,2.65,25.18.29,2.77-.2,5.8,0,8.61l-3.98-7.29c-4.15-14.23-11.02-28.33-14.58-42.4-.23-.87.26-1.92,0-2.65-.19-.52-1.1-.78-1.33-1.33-.29-.72.23-1.76,0-1.99-.4-.4-5.6.3-7.29,0-.48-.08-4.82-2.56-5.3-2.65-1.42-.25-3.71-.07-5.3,0-3.5.16-.99,1.46-3.31,3.31,2.62,3.86,4.94-.21,8.61.66,1.38.33,5.19,2.27,6.63,2.65,2.25.61,4.31-1.46,3.31,3.31-.11.52-1.33.89-1.33,1.33,0,.33,3.51,3.67,3.98,5.3.5,1.76-1.83,2.23-1.33,3.98,3.79,13.12,10,27.23,14.58,39.75,2.12,5.83,5.54,11.14,7.95,17.23.23.57,1.22.83,1.33,1.33,1.01,4.54-2.85,10.68,4.64,8.61,2.19-.61,2.39-5.13,1.99-7.29-.19-1.01-2.98-5.41-2.65-6.63,2.45-8.9-2.69-17.78-1.33-23.85,1.52-6.82-3.03-31.5-3.98-39.75-.16-1.44-.3-8.31,0-8.61.61-.61,7.95-.08,7.95,1.99,0,.44-1.25.82-1.33,1.33-1.43,8.61.57,25.29,1.33,34.45.76,9.22,2.81,19.98,3.98,29.15.9,7.06.4,15.78,1.33,21.2,1.17,6.81.38,13.5,1.33,19.88.07.48,1.18.78,1.33,1.33,1.13,4.07-.79,2.81-1.99,3.31-.54.23-2.17,1.06-2.65,1.33-1.7.95-2.07,3.58-5.3,2.65-3.78-1.09-.37-4.94-.66-5.96-.21-.74-2.42-1.91-2.65-2.65-.53-1.8-.79-4.82-1.33-6.63-.15-.49-3.66-3.83-3.98-5.3-.49-2.27.57-5.88,0-7.95-.2-.73-2.45-1.92-2.65-2.65-.66-2.41-.45-5.75-1.33-9.28-1.99-8.04-5.59-15.4-7.95-22.53-.26-.82.29-1.91,0-2.65-.2-.52-1.07-.78-1.33-1.33-.2-.42.17-1.06,0-1.33-.99-1.56-4.27-2.95-5.3-1.99-1.51,1.42,2.46,3.99,2.65,4.64,1.02,3.63,2.01,9.13,1.33,13.25-.08.5-1.33.89-1.33,1.33s1.25.82,1.33,1.33c.29,1.78.54,14.69,0,15.24-.49.49-8.6.48-9.28-1.99-.95-3.45.61-10.41,0-14.58-.07-.49-1.22-.81-1.33-1.33-3.34-16.71-.61-36.78-3.98-53-.11-.52-1.23-.82-1.33-1.33-.57-3.15,1.6-8.72-3.98-5.3-.73.45-1.29,1.6-1.99,1.99-.64.34-1.74-.25-1.99,0-.4.4-.28,10.02,0,11.26.77,3.5-.19,4.66,0,5.3,2.23,7.71,1.21,17.04,2.65,25.18,2.12,11.94,3.17,26.09,3.98,38.43.3,4.58-.21,9.33,0,13.91l-3.98-5.96c-.7-11.59-1.14-23.06-3.98-34.45-3.86-15.52-3.98-32.97-6.63-49.03-.2-1.21-2.93-6.93-2.65-7.95.13-.49,1.09-.77,1.33-1.33,1.29-3.07-2.61-1.58-4.64-1.99-.52-.11-.83-1.26-1.33-1.33-6.81-.85-14.69,1.15-19.88,0-1.09-.24-8.31-.3-8.61,0-1.27,1.27,1.63,4.84,1.33,5.96-1.31,4.77-2.01,7.82-1.33,11.93,1.06,6.39-4,25.41-5.3,31.8-.44,2.13-1.09,4.11-1.33,5.3-.25,1.26.32,4.32,0,4.64-.23.23-1.25-.26-1.99,0-.57.21-.9,1.33-1.33,1.33s-.89-1.33-1.33-1.33-.89,1.33-1.33,1.33-.82-1.25-1.33-1.33c-4.09-.68-6.04-.05-10.6-1.33-4.24-1.18-2.85,1.17-3.31,1.99-1.38,2.44-3.8,1.82-3.98,1.99-.23.23.29,1.27,0,1.99-.24.57-1.25.86-1.33,1.33-.83,4.78-.61,10.3,4.64,5.96l9.94.66c-1.82,1.4-2.77,3.43-3.98,5.3-1.01,1.56-2.93,5.34-3.98,6.63-.91,1.13-3.62,4.03-4.64,4.64-.29.17-.91-.19-1.33,0-.57.26-.85,1.22-1.33,1.33-2.99.68-9.02-.13-9.94-3.31-.24-.83.25-1.87,0-2.65-.17-.54-1.23-.83-1.33-1.33-.42-2.39.49-5.7,0-7.95-.11-.5-1.17-.8-1.33-1.33-.5-1.75,1.83-2.23,1.33-3.98-.17-.6-1.8-.9-1.33-2.65.16-.58,2.49-3.39,2.65-3.98.3-1.13-.3-2.85,0-3.98,1.48-5.45,13.13-22.39,17.89-24.51.54-.24,4.64-.03,4.64-1.99,0-.21-2.45-1.99-.66-1.99.44,0,.81,1.23,1.33,1.33,1.36.24,3.13-.07,4.64,0,.29-2.66,2.94-6.15,2.65-7.29-.17-.64-2.05-1.15-1.33-3.31-4.52,3.07-1.13-.49-3.98-3.31l-1.33-11.26,2.65,4.64,1.33,8.61c4.78-1.8,1.44-3.79,1.33-4.64-.38-2.66-.93-4.6-1.33-6.63-.25-1.26.32-4.32,0-4.64-.23-.23-1.27.29-1.99,0-1.51-.64-2.24-2.04-5.3-1.33-.5.12-.78,1.15-1.33,1.33-.78.25-1.82-.24-2.65,0-.85.24-7.73,5.53-9.28,6.63-4.29,3.05-10.67,11.18-13.91,16.56-.95,1.59-1.72,4.9-2.65,6.63-3.21,5.94-7.14,13.01-9.28,19.88-1.66,5.31-4.25,13.45-5.3,18.55-.98,4.8.68,8.24,0,11.93-.07.4-2.08,1.34-1.33,3.98.61,2.12,3.79,1.83,3.98,1.99,1.47,1.23-3.46,1.43-3.98,3.31-.32,1.14-.25,6.56,0,7.95.07.38,2.25,1.89,1.33,3.98,2.77,1.71,2.61,6.06,5.96,5.96,3.5,4.49,10.56,4.76,15.9,3.98.58-.08,3.45-.95,5.3-1.33.45-.09,1.42-1.96,1.99-1.33.15.16.21,3.92,1.99,3.98.49.01,2.99-2.31,1.33-3.98-2.07-2.07,2.69-2.28,3.98-2.65,2.27-.65,13.94-11.28,15.24-13.91l3.98-4.64-1.33,5.96v9.94l3.98-3.98c-.62,4.66,1.8,5.87,5.96,5.3l4.64,1.99-7.29.66c-1.22-2.24-3.51-.83-5.3-1.33-1.79-.49-1.64-4.56-4.64-.66-5.38,6.98,4.09,3.98,8.61,4.64.49.07.81,1.22,1.33,1.33,1.19.24,2.73-.21,3.98,0,.5.09.89,1.33,1.33,1.33.54,0,2.86-3.35,3.98-3.98.62-.34,1.74.25,1.99,0,.28-.28-.26-2.33,0-3.31.15-.54,1.26-.83,1.33-1.33.68-4.52.53-10.15,1.33-14.58.09-.49,1.15-.78,1.33-1.33.25-.78-.24-1.82,0-2.65.83-2.93,5.23-1.54,7.29-1.99.73-.16,4.76-3.71,5.96-2.65.28.25-1.14,1.74-1.33,3.31-.91,7.78,1.93,13.41,2.65,19.88.23,2-.37,9.57,0,9.94.58.58,13.67-.36,16.56,0,.57.07,5.66,1.06,6.63,1.33.73.2,2.13,2.65,2.65,2.65,2.25,0,1.78-5.09,1.99-5.3.25-.25,6.02-.17,7.29,0,1.25.17,6.56,2.4,7.95,2.65,4.68.86,8.6-.52,7.29-5.96-.61-2.53-2.45-8.36-2.65-10.6-.34-3.86-.45-10.81,0-14.58.13-1.13,2.53-.89,3.31-.66,2.57.76,2.57,8.51,4.64,9.94-1.33,5.51,3.48,8.72,5.3,13.25.56,1.39.85,5.01,1.33,6.63.09.32,4.32,4.54,4.64,4.64,2.04.56,2.95-2.36,3.98-2.65,2.33-.66,4.65,2.24,7.95,1.33,1.56-.44,1.67-2.64,1.99-3.31.26-.57,1.22-.86,1.33-1.33,1.07-4.78.26-20.59,0-26.5ZM167.62,111.52c1.88,0-1.99,3.87-1.99,1.99,0-.15,1.84-1.99,1.99-1.99ZM164.97,115.5c1.88,0-1.99,3.87-1.99,1.99,0-.15,1.84-1.99,1.99-1.99ZM159.67,120.8c1.17-.17.76,2.56.66,2.65-.25.25-1.35-.34-1.99,0-1.83,1.01-2.29,3.74-5.96,2.65l7.29-5.3ZM157.68,65.15c-1.07-1.33,2.09-4.66,2.65-3.98,1.07,1.33-2.09,4.66-2.65,3.98ZM130.52,142c-.86,0-.86-1.33,0-1.33s.86,1.33,0,1.33ZM133.17,143.32c-.86,0-.86-1.33,0-1.33s.86,1.33,0,1.33ZM171.43,118.31c-.13.19-.27.4-.37.62-.11.23-.21.48-.32.73-.44,1.13-.69,2.36-1.14,3.13-.53.9-1.97,1.7-2.65,2.65-4.13,5.88-5.13,6.47-11.26,9.94-1.42.8-5.68,3.78-6.63,3.98-1.66.36-10.3.36-11.93,0-.49-.11-.76-1.1-1.33-1.33-.9-.36-3.38-.94-3.98-1.33-4.81-3.07-2.9-11.55-3.31-16.56-.04-.48-1.29-.85-1.33-1.33-.28-3.26-.38-8.77,0-11.93.07-.49,1.23-.82,1.33-1.33.5-2.84.6-3.96,1.33-6.63,2.25-8.24,4.77-17.44,7.95-25.18,3.34-8.12,10.79-20.13,15.9-26.5,1.42-1.78,8.97-8.97,10.6-7.29.36.37-.23,5.62,0,7.29.07.49,1.25.82,1.33,1.33.17,1.09.21,5.75,0,5.96-.23.23-1.27-.29-1.99,0-.53.23-.79,1.11-1.33,1.33-.72.29-1.79-.25-2.65,0-1.82.52-12,10.14-13.91,12.59-2.76,3.54-6.55,11.3-7.95,15.9-.94,3.09-.77,6.31-1.33,9.28-.09.5-1.23.82-1.33,1.33-.68,3.7,1.21,5.67,1.33,6.63.54,4.39-.85,10.64,0,14.58.32,1.48,3.09,4.03,3.98,5.3.23.32-.2,1.06,0,1.33.9,1.19,4.89,5.33,5.96,5.96,2.29,1.36,4.57.83,6.63,1.33.86.2,2.16,2.19,5.3,1.33l13.09-13.09c.23-.33.49-.61.82-.82l-.82.82ZM162.98,96.95l3.98-1.99,5.3.66-9.28,1.33ZM174.91,111.52l-.66-3.98,1.99-9.28.66,5.3-1.99,7.95ZM227.91,100.92c.17.2.17,5.1,0,5.3-1.82,2.17-1.82-7.47,0-5.3ZM221.28,54.55c.17.2.17,5.1,0,5.3-1.82,2.17-1.82-7.47,0-5.3ZM219.29,47.92c.86,0,.86,1.33,0,1.33s-.86-1.33,0-1.33ZM211.34,34.67c.86,0,.86,1.33,0,1.33s-.86-1.33,0-1.33ZM195.44,34.67c2.12-.29,5.72-.19,7.95,0,2.56.21,3.68,1.09,5.96,1.33.32,2.29-3.05,1.33-4.64,1.33-2.07,0-4.76.3-6.63,0-.5-.08-.87-1.31-1.33-1.33-.33,0-3.1,4.04-4.64,2.65-1.22-1.1.91-3.64,3.31-3.98ZM182.19,100.92c.86,0,.86,1.33,0,1.33s-.86-1.33,0-1.33ZM178.22,128.75c-.86,0-.86-1.33,0-1.33s.86,1.33,0,1.33ZM178.88,119.47c-1.74,2.08-1.74-6.06,0-3.98.13.16.13,3.82,0,3.98ZM180.87,98.27c-3.83-2.23-.7-4.01.66-2.65.24.24.3,3.21-.66,2.65ZM194.78,127.42l-1.33-5.96,2.65-4.64-1.33,10.6ZM203.39,108.87c-2.4.3-5.99-.54-7.95,0-.61.17-3.17,4.09-3.31,4.64-1.68,6.16-3.72,12.71-5.3,18.55-.26.98.28,3.03,0,3.31-.19.19-5.11.19-5.3,0-.25-.25-.19-6.07,0-7.29.15-.93,2.29-5.39,2.65-6.63,4.88-17.07,8.33-34.31,10.6-51.68.23-1.7-.37-6.89,0-7.29,1.13-1.23,4.92,1.56,3.98,4.64-.16.54-1.21.82-1.33,1.33-1.15,4.98-3.37,13.05-3.98,17.23-.2,1.35-.3,8.31,0,8.61.25.25,6.13.2,7.29,0,.37-.07,1.39-2.11,3.98-1.33,3.98,1.21,4.93,1.03,9.28,1.33.2.01,2.37,2.54,3.31-.66.45-1.55-3.99-5.51-3.98-6.63.01-1.05.91.11,0-3.98-.79-3.58.58-9.3,0-13.25-.07-.49-1.21-.8-1.33-1.33-.28-1.18.3-2.86,0-3.98-.19-.68-3.84-2.99-4.64-3.31-.52-.2-3.75-1.29-3.98-1.33-1.68-.3-6.89.4-7.29,0-.25-.25-.17-6.02,0-7.29.07-.49,1.27-.85,1.33-1.33.2-1.99-.36-9.58,0-9.94.48-.48,10.23.34,12.59,0,.25-.04,3.23-2.73,4.64-1.33.28.28-.26,2.33,0,3.31,3.21,11.85,3.5,25.85,5.3,38.43,1.74.73,1.14,3.1,1.33,3.31.61.7,3.38-3.37,3.98-2.65.57.69-.41,8.57,0,10.6l-3.5-2.9c.09.08.17.17.24.26.09.12.17.25.24.37.01.01.03.03.03.04.07.09.11.19.15.29.09.25.16.5.2.77.03.11.04.23.04.33.01.17.03.36.03.53,0,1.21-.28,2.49-.07,3.62,1.46,7.91,1.07,17.65,2.65,26.5.09.5,1.26.83,1.33,1.33.24,1.89.46,13.4,0,13.91-.79.87-3.26-.86-3.98-1.99-.17-.26.2-.9,0-1.33-.26-.57-1.22-.86-1.33-1.33-.42-1.88.34-4.6,0-6.63-.24-1.4-2.41-6.55-2.65-7.95-.42-2.53.34-10.27-3.31-11.26-1.67-.45-8.39-.21-10.6,0-.48.04-.83,1.26-1.33,1.33ZM202.73,65.15c.74-.69,6.06-.01,6.63,1.99.5,1.75-1.83,2.23-1.33,3.98.46,1.62,2.19,5.01,2.65,6.63.5,1.75-1.83,2.23-1.33,3.98.25.85,2.52,4.64,2.65,5.3.19.87.16,4.47,0,4.64-1.35,1.39-4.4-1.29-4.64-1.33-1.63-.24-5-.24-6.63,0-.24.04-3.29,2.72-4.64,1.33-.25-.26-.24-6.41,0-7.29.12-.44,3.55-3.75,3.98-5.3.79-2.93,1.18-7.37,1.33-10.6,1.7-.68,1.19-3.19,1.33-3.31ZM208.03,111.52c1.71-1.38,6.27,1.87,5.3,2.65-1.71,1.38-6.27-1.87-5.3-2.65ZM212.67,118.15c-.86,0-.86-1.33,0-1.33s.86,1.33,0,1.33ZM234.53,145.97c-1.39,1.39-4.4-1.29-4.64-1.33-3.62-.52-14.28,1.48-15.24-1.99-.48-1.75,1.21-2.12,1.33-2.65.52-2.33.42-7.83-1.33-9.28l-1.33-9.94,2.65,4.64c.97,3.67.69,8.32,1.33,11.93.08.46,1.09.76,1.33,1.33.29.72-.23,1.76,0,1.99s1.27-.29,1.99,0c.57.24.86,1.25,1.33,1.33,3.82.69,11.36-1.31,9.94-5.96-.17-.54-1.23-.83-1.33-1.33-.4-2.15-1.18-5.49-1.33-6.63-.17-1.26.11-2.68,0-3.98-.12-1.42-.89-5.01,1.33-4.64l.66,6.63c1.38,4.72,1.26,10.27,1.99,15.24.04.24,2.72,3.25,1.33,4.64ZM241.16,131.4c.89-1.06,2.17,1.64,1.33,2.65-.89,1.06-2.17-1.64-1.33-2.65ZM246.46,145.31c-5.45-2.09-3.9-4.58-3.98-9.94,2.54-.26.97,2.97,1.33,4.64.13.58,2.05,1.17,1.33,3.31l5.3,1.33c.09,2.65-2.58,1.19-3.98.66ZM258.38,143.32c-1.22,1.21-5.41-1.97-7.29-1.33-5.18-3.37-2.8-8.53-3.31-13.91-.04-.48-1.26-.83-1.33-1.33-.3-2.42-.6-9.18,1.99-9.94,2.62-.77,3.37,1.17,3.98,1.33.98.26,3.03-.28,3.31,0,.45.45-.24,10.24,0,12.59.15,1.47.94,5.37,1.33,7.95.04.24,2.72,3.27,1.33,4.64ZM262.36,116.82c-4.82-2.05-1.91-9.22-2.65-13.25l2.65,3.31v9.94Z"/>
  <path d="M124.55,59.18c-.74-3.72.5-9.2,0-13.25-.07-.49-1.23-.82-1.33-1.33-.29-1.62.38-3.9,0-5.3-.17-.64-4.35-3.31-4.64-3.31-.44,0-.82,1.23-1.33,1.33-2.17.37-4.65,1.23-5.3,1.33-7.34,1.07-16.56.28-23.85,1.33-.24.04-3.29,2.72-4.64,1.33-.4-.41.4-4.9,0-5.3-.16-.16-3.7-.16-4.64,0-.52.09-.89,1.33-1.33,1.33s-.82-1.25-1.33-1.33c-4.27-.72-10.63.89-14.58,0-.5-.12-.79-1.18-1.33-1.33-2.98-.82-4.97,5.08-5.96,7.29-4.23,9.39-7.34,23.51-9.28,34.45-1.59,8.97-5.71,19.04-6.63,27.83-.81,7.69-.52,15.34-2.65,22.53-.15.5-1.1.77-1.33,1.33-.29.72.23,1.76,0,1.99-.15.15-3.83.15-3.98,0-1.4-1.39,1.91-6.74,1.33-8.61-1.71-5.46-2.39-24.1-1.33-30.48.68-4.05-.79-2.19-1.33-3.98-.2-.69,1.06-11.04,1.33-11.93.53-1.75-2.44-9.9-2.65-11.93-.94-9.06.81-8.55-3.98-17.23-.2-.37.19-1.03,0-1.33-2.11-3.33-2.48-.9-3.31-.66-2.64.76-3.59-1.26-3.98-1.33-2.21-.4-10.76.5-11.26,0-.42-.42.87-3.72-.66-3.98-3.48,2.28-.17,6.36-4.64,5.3.11,1.82,3.68,3.55,3.98,4.64.95,3.47.49,12.51,1.33,17.23,1.14,6.4,4.9,27.59,3.98,33.13-.83,5.04.78,9.39,1.33,14.58,1.33,12.65,1.19,27.07,5.3,38.43.19.52,1.1.78,1.33,1.33.29.72-.23,1.76,0,1.99.32.32,3.38-.25,4.64,0,5.17,1.03,10.48,1.68,15.9,2.65.5.09.83,1.26,1.33,1.33,1.92.24,6.15.32,7.95,0,.46-.08.76-1.09,1.33-1.33.7-.29,3.03.64,1.99-1.99-.23-.58-1.33-.91-1.33-1.33,0-.24,2.54-3.5,2.65-3.98,1.05-4.84.99-10.61,2.65-15.9,4.69-14.91,7.94-34.86,14.58-49.03,5.45-11.63,6.92-22.41,10.6-34.45l4.64-7.29-.66,7.29c-5.58,26.01-8.02,52.18-11.93,78.18-.7,4.64-.37,8.63-1.33,11.93-.78,2.7,2.65,6.13,2.65,6.63,0,.29-3.14,3.52.66,4.64,2.61.77,3.59-1.26,3.98-1.33,3.26-.57,4.48-.32,7.95-1.33.83-.24,1.55.91,5.3,0,.99-.24,3.05.26,3.31,0,.32-.32-1.36-4.03,3.31-2.65,2.25.66,1.15,4.36,3.31,3.98l1.33-7.29c2.85-4.35,1.58-12.27,2.65-17.23.11-.48,2.65-3.74,2.65-3.98,0-.46-4.21-3.22-4.64-3.31-2.27-.49-5.57.42-7.95,0-.46-.08-.76-1.09-1.33-1.33-1.19-.5-3.11.76-1.99-3.31.15-.54,1.26-.85,1.33-1.33.3-2.04-.44-9.49,0-9.94,1.33-1.38,4.21,1.22,4.64,1.33,1.13.28,2.76-.25,3.98,0,.5.11.79,1.18,1.33,1.33,1.74.48,2.01-1.13,2.65-1.33,1.46-.46,3.27.53,4.64-1.99l1.33-6.63c2.41-5.55,2.74-12.44,3.98-18.55.11-.52,1.8-.9,1.33-2.65-.07-.23-3.09-3.25-3.31-3.31-1.74-.48-2.01,1.13-2.65,1.33-.83.26-1.92-.29-2.65,0-1.14.46-3.82,3.07-5.3,2.65-2.53-.72-2.41-8.85-1.99-9.28.23-.23,1.27.29,1.99,0,.54-.23.81-1.14,1.33-1.33,5.67-2.05,12.64-2.39,18.55-3.98.98-.26,2.97.29,3.31,0,.66-.54-1.23-1.54-1.33-1.99ZM75.53,45.93c-.93,2.65-3.64,10.1-3.98,11.93-.42,2.39.53,12.06,0,12.59-.25.25-1.36-.34-1.99,0-4.51,2.52-4.81,11.06-5.96,15.24-3.82,13.91-7.95,28.5-11.93,42.4-2,7.01-4.73,14.23-6.63,21.2-.72,2.64,1.42,4.56-4.64,3.31-1.44-.29-6.73-2.5-7.95-2.65-2.35-.29-12.14.45-12.59,0-.32-.32.25-3.38,0-4.64-.81-4.01-3.52-10.24-3.98-14.58-.64-6.11,1.01-14.22,0-19.88-3.15-17.73-.97-39.9-5.3-58.3-.12-.52-1.22-.82-1.33-1.33-.19-.87-.16-4.48,0-4.64.3-.3,7.49-.24,8.61,0,.42.09,4.47,2.7,4.64,3.31.89,3.27-1.33,5.01-1.33,5.3,0,.32,2.42,4.49,2.65,5.3,3.3,12.08,4.72,56.71,1.33,68.9-1.29,4.62,1.36,2.73,3.31,3.31.74.23,2.13,2.65,2.65,2.65.26,0,3.19-2.77,4.64-1.33.46.46-1.21,3.88,2.65,2.65l19.88-90.77c.17-.61,4.21-3.22,4.64-3.31,1.43-.3,13.41-.48,13.91,0,1.09,1.02-1.21,2.97-1.33,3.31ZM97.39,126.1c.98-.61,2.13-2.82,3.31-.66l-3.98,6.63c-.08,2.5-2.62,10.71-4.64,11.26-1.97.54-5.55-.32-7.95,0-.49.07-.83,1.26-1.33,1.33-1.27.17-7.04.25-7.29,0-.21-.21-.17-4.88,0-5.96.13-.78.93-3.33,1.33-5.3,1.34-6.7,2.82-14.68,3.98-21.2.42-2.36-1.01-5.11,1.33-6.63l1.33-7.29c-.2,2.36.29,4.98,0,7.29-.07.49-1.27.85-1.33,1.33-.32,3.23.62,7.8,0,10.6-.6,2.69-.52,4-1.33,6.63-.74,2.44,1.66,3.56,1.33,5.96,1.48-.17,3.29.28,4.64,0,1.4-.29,9.34-3.19,10.6-3.98ZM92.75,123.45l-3.31,2.65c-1.71-.89-5.08,2.21-5.96,1.33s1.93-3.7,1.33-5.3l7.95,1.33ZM107.33,101.59c-.3.7.48,2.65-.66,1.99-3.96-2.32.76-4.98,1.99-3.98.64.53-1.07,1.42-1.33,1.99ZM108.65,98.27c-.89,1.06-2.17-1.64-1.33-2.65.89-1.06,2.17,1.64,1.33,2.65ZM115.28,55.87c-.58.56-11.36-.45-13.91,0-.99.17-5.41,2.98-6.63,2.65-.25-.07-2.23-2.41-3.31-1.33-.21.21-.17,4.88,0,5.96.08.5,1.27.85,1.33,1.33.53,4.85-1.06,13.33,0,17.23.99,3.68,4.28.74,4.64.66,2.12-.46,5.47.17,7.95,0,.2-.01,2.45-2.54,3.31.66.83,3.1-1.63,5.08-1.33,7.95-2.44,1.15-2.36,7-2.65,7.29-1.36,1.36-4.15-1.18-4.64-1.33-3.25-1.01-7.39-1.91-10.6-2.65-1.27-.29-5.96.29-5.96-1.99,0-.44,1.25-.82,1.33-1.33.28-1.63-.26-3.66,0-5.3,1.44-8.81,2.62-18.8,3.98-27.83.3-2.05-.36-4.62,0-6.63.08-.46,1.09-.76,1.33-1.33.29-.72-.23-1.76,0-1.99s1.27.29,1.99,0c.57-.24.86-1.25,1.33-1.33,3.07-.54,7.26.3,10.6,0,.48-.04.85-1.29,1.33-1.33,4.13-.33,8.45.23,12.59,0l-2.65,10.6ZM98.05,79.72c-2.8.34-2.99.15-2.65-2.65l2.65,2.65Z"/>
  <path d="M388.24,132.06c-.42-2.35-1.02-4.8-1.33-6.63-.98-5.87.3-14.73,0-21.2-.48-10.32-2.36-24.16-2.65-34.45-.33-11.61,1.92-34.27,0-42.4-.62-2.65,2.28-7.69,1.33-8.61-.26-.25-2.9.16-3.98,0,1.07,4.03-2.72,6.28-3.98,8.61-6.78,12.56-11.95,24.09-17.23,37.1-.89,2.21-4.2,8.88-5.3,10.6-2.54,4-5.43,4.24-7.95,0-.17-.29.19-.91,0-1.33-6.1-13.17-11.51-27.8-21.2-39.75l-2.65-7.29c-3.23-.72-6.31,1.33-5.3,4.64.16.54,1.23.83,1.33,1.33,1.55,8.48,2.28,20.67,2.65,29.15.68,15.53-.76,31.23,1.33,43.73.53,3.17-.37,7.26,0,10.6-1.7.68-1.19,3.19-1.33,3.31-.23.21-3.42-.04-4.64,0-1.63.05-4.94-1.01-4.64,1.33,13.58-1.09,9.55,1.62,10.6,11.26.44,4.11,1.47,10.55,2.65,14.58.49,1.71-1.96,2.77-1.33,3.31.33.28,2.33-.26,3.31,0,.54.15.83,1.26,1.33,1.33,1.67.25,12.14.45,12.59,0,.33-.33-.24-4.48,0-5.96,1.7-10.76.13-22.14,1.33-31.8.49-3.94-.34-8.55,0-12.59l6.63,8.61,2.65,7.29c2.25,2.28,8.56-8.44,10.6-9.28.91,3.58-2.12,6.6-1.33,9.94,1.01,4.24.54,5.8,1.33,9.28,1.03,4.62-.21,11.87-1.33,15.9-.49,1.8,1.27,2.13,1.99,3.31,1.25,2.04.33,4.9.66,5.3,3.26,3.86,2.41-5.06,2.65-5.3.36-.36,8.6-.24,9.94,0,.49.09,4.74,2.53,5.3,2.65.87.19,4.47.16,4.64,0,.24-.24.94-5.35,2.65-5.96-2.66-2.39-.72-7.16-1.33-10.6ZM385.59,144.65c-.21.21-4.93.19-5.96,0-.49-.09-4.82-2.57-5.3-2.65-1.87-.33-8.18.44-8.61,0-1.01-1.01.76-24.55,0-28.49-3.06-2.21-.19-3.15,0-3.98.91-4.09-.66-10.76,0-15.24l-3.98,7.29c.69,1.46-.97,1.85-1.33,2.65-.66,1.43-3.06,9.57-5.96,8.61-.85-.28-2.7-3.51-3.31-4.64-2.16-4-4.43-8.2-6.63-11.93l-3.98-3.31,1.33,5.96c-2.82,3.11-.58,9.06-1.33,13.25-.09.49-1.15.78-1.33,1.33-.4,1.26.74,2.69-1.33,3.98-1.75,1.1-3.43.6-5.3.66l4.64,2.65c5.83.9,2.48,10.19,3.31,15.24.08.5,1.33.89,1.33,1.33s-1.25.82-1.33,1.33c-.4,2.37.56,5.94,0,7.95-.81,2.95-12.44,2.95-13.25,0-1.13-4.08.25-15.77,0-21.2-1.35-29.02-2.97-58.26-3.98-87.45l-1.33-5.96c2.92.6,3.02,4.33,3.98,5.96,2.73,4.7,6.92,10.1,9.28,14.58,4.41,8.4,6.16,18.39,11.93,26.5-.73,3.02,1.71,1.17,3.31,3.31,4.65.69,2.68-.85,3.31-1.99.81-1.44,2.66-3.17,3.98-5.3,7.9-12.89,12.76-29.79,19.88-42.4,2.28-.74,2.46-4.44,2.65-4.64.37-.41,2.52,1.51,2.65,1.99.36,1.29.21,6.29,0,7.95-2.4,19.16-1.31,40.49,0,59.63.25,3.74.57,11.17,0,14.58-.68,4.04.72,1.76,1.33,3.98,1.47,5.35-.24,16.24,1.33,23.85.19.87.16,4.48,0,4.64Z"/>
  <path d="M433.29,37.98c-.07.49-1.26.83-1.33,1.33-.23,1.67.34,6.94,0,7.29-.25.25-2.4-.25-2.65,0,.42-.42-.3-7.91,0-9.94.04-.25,2.73-3.23,1.33-4.64s-4.37,1.33-4.64,1.33h-31.14l-1.33,111.3c2.32,1.03,4.21-1.26,4.64-1.33,6.89-.99,19.5,1.56,25.18,0,3.25-.89,1.55-8.25,1.99-11.26.04-.24,2.69-3.15,1.33-4.64-1.39-1.51-4.01,2.48-4.64,2.65-3.11.85-4.24-1.02-5.3-1.33-4.13-1.21-7.91-2.69-11.93-3.98-.78-.25-1.82.24-2.65,0-.24-.07-3.01-2.8-3.31-3.31-.17-.29.19-.91,0-1.33-.26-.57-1.22-.85-1.33-1.33-.76-3.31,1.21-4.64,1.33-5.3.38-2.12,1.19-5.59,1.33-6.63.52-4.2-.93-11.13,0-14.58,1.09-4.07,4.04.5,4.64.66,1.19.33,7.84,1.17,9.28,1.33,1.44.16,8.31.3,8.61,0,.33-.33-.24-4.48,0-5.96.08-.5,1.27-.83,1.33-1.33.15-1.29.44-8.61,0-8.61h-20.54c-.24,0-3.25-3.09-3.31-3.31-1.03-3.75,1.93-7.17,1.33-9.28-.93-3.25.48-8.24,0-13.25-.04-.48-1.27-.85-1.33-1.33-.32-3.19.23-6.7,0-9.94,2.8,3.06,4.69,1.95,7.29,2.65.77.21,4.76,2.56,5.3,2.65,1.8.32,15.98.58,16.56,0-.25.25.25,2.4,0,2.65-.32.32-3.38-.25-4.64,0-.52.11-.83,1.25-1.33,1.33-1.63.24-5,.24-6.63,0-2.89-.42-7.83-3.19-10.6-3.98-5.34-1.5-1.99,1.68-1.99,1.99v25.84c3.05.57,5.27,1.93,8.61,1.33,3.54-.65,7.61-.68,10.6-1.33.36-.08,3.64-3.02,4.64.66.42,1.56.29,9.92,0,11.93-.13.91-2.24,5.34-2.65,6.63-.25.78.24,1.82,0,2.65-.7,2.45-7.42,2.44-9.94,1.99-.48-.08-4.81-2.56-5.3-2.65-8.59-1.59-5.21,1.6-5.96,7.29-.07.49-1.25.82-1.33,1.33-.65,4.04-.53,7.96-1.33,11.93-.11.52-1.8.9-1.33,2.65.07.23,3.09,3.25,3.31,3.31,1.96.54,2.88.45,5.3,1.33,2.35.85,13.46,4.43,15.24,2.65.54-.54-1.74-3.84,3.98-2.65.26,4.03,1.96,7.01,1.33,11.26-.08.49-1.25.83-1.33,1.33-.3,2.01.46,4.93,0,6.63-.9,3.29-6.88,3.82-9.94,3.31-.5-.08-.89-1.33-1.33-1.33s-.82,1.25-1.33,1.33c-5.01.83-12.57-1.03-17.23,0-.87.2-5.67,4.29-7.29,2.65-1.23-1.26.93-30.42,0-35.11.2-14.35-.46-32.87,0-49.03.26-9.29,2.81-21.56,1.33-31.8-.04-.24-2.7-3.22-1.33-4.64,1.06-1.09,2.95,1.21,3.31,1.33,2.15.76,6.9,1.76,9.28,1.33,8.63-1.58,15.33-.46,23.85-1.33,2.04-.21,2.57-1.72,3.98-1.33,2.58.73,2.29,7.53,1.99,9.94Z"/>
  <path d="M514.12,118.81c-2.73,4.01-3.06-1.17-6.63-.66v-5.3c-2.15-.13-.91,2.45-3.31,3.98-.29.19-.95-.2-1.33,0-.82.45-3.74,2.64-3.98,2.65-2.48.13-1.76-6.37-1.99-6.63-.38-.44-2.33,2.08-3.98,1.33.26,3.66-.38,7.67,0,11.26.19,1.8,2.05,7.14,2.65,9.28,1.27,4.54-2.04,3.55-2.65,1.33-.46-1.71.33-4.62,0-6.63-.41-2.44-4.13-10-3.98-10.6,1.84-6.68-.77-15.38-1.33-22.53-.3-3.9.2-7.99,0-11.93-.11-2.16-1.13-3.8-2.65-1.99-1.01,1.19.76,26.9,0,31.14,1.66,4.43.49,12.6,0,18.55-.19,2.25.17,3.9-2.65,4.64-.44-3.92.62-8.85,0-12.59-.72-4.29.28-17.56,0-18.55-4.21-15.3.93-38.16,0-55.65-.03-.46-1.3-.86-1.33-1.33-.28-4.41,1.4-19.23-3.31-20.54-2.21-.62-4.66.01-5.96,1.99l2.65,73.54c-1.07-.16-3.72.25-3.98,0-.54-.54.17-12.56,0-15.24-.8-12.39-1.33-27.41-2.65-39.75-.66-6.13,1.54-9.53,0-14.58-.78-2.58,1.26-3.59,1.33-3.98.28-1.48-.37-5.59,0-5.96,1.35-1.39,4.4,1.29,4.64,1.33,1.85.26,8.22-.4,8.61,0,.23.23-.29,1.27,0,1.99.23.56,1.18.82,1.33,1.33.74,2.52,1.72,9.22,1.33,11.93-1.27,8.57-.81,22.84,1.33,31.8.78,3.3-1.85,5.43-1.33,8.61,3.6.52,2.58-.58,2.65-3.31.07-2.64-.13-5.31,0-7.95.13-2.58-.19-2.11,2.65-1.99,1.18,11.28-1.59,25.56,0,36.44.07.49,1.21.8,1.33,1.33.38,1.66-.65,5.23,1.99,5.96,1.75.48,2.12-1.21,2.65-1.33,3.63-.81,3.14.58,7.29-1.99,1.55-.97,2.04,1.35,2.65.66.68-.77-1.47-5.6,1.33-5.3.25,1.46-.37,6.25,0,6.63.4.4,4.9-.4,5.3,0,.72.72-1.31,7.19,1.33,8.61Z"/>
  <path d="M484.96,143.99c-.13.49-1.09.77-1.33,1.33-.29.72.23,1.76,0,1.99-.15.15-3.83.15-3.98,0-.36-.36.26-4.49,0-5.96-.08-.46-1.09-.76-1.33-1.33-.29-.72.23-1.76,0-1.99-.25-.25-2.4.25-2.65,0-1.18-1.18-10.89-24.92-11.93-28.49-.5-1.75,1.83-2.23,1.33-3.98l-3.98-4.64c-.12,2.62-2.04,4.29-1.33,7.29,2.16,9.09.07,18.01,2.65,26.5.78,2.58-1.26,3.6-1.33,3.98-.4,2.21.5,10.76,0,11.26-.23.23-1.25-.26-1.99,0-.57.21-.9,1.33-1.33,1.33s-.82-1.25-1.33-1.33c-1.78-.29-14.69-.54-15.24,0-.46.46,1.21,3.88-2.65,2.65,1.03-2.32-1.34-4.4-1.33-4.64.03-.46,1.25-.82,1.33-1.33,1.63-9.92.57-24.47,1.33-34.45.97-12.85-3.51-24.35,0-37.1.28-1.01-2.45-17.28-2.65-19.88-.24-3.15-.25-7.46,0-10.6.21-2.57,1.09-3.68,1.33-5.96,2.4-.28,1.17,2.95,1.33,4.64.7,7.51-.28,13.21,1.33,21.2,1.99,9.94.44,19.66,1.33,29.15.97,10.27-.93,21.23-1.33,30.48-.15,3.27-.82,22.37,0,23.19.61.61,16.62.61,17.23,0,1.06-1.06-.8-25.72,0-29.81-3.17-2.05.52-3.52,0-5.3-.28-.95-2.39-4.36-2.65-5.3-1.31-4.73,2.31-2.97,2.65-3.31.3-.3.21-7.34,0-8.61-.05-.3-1.23-.57-1.33-2.65-.05-1.19,2.64-.24,3.31-1.99,1.54.53.29,3.31.66,4.64.36,1.3,6.13,7.02,6.63,9.28.49,2.27-.57,5.88,0,7.95.2.73,2.45,1.92,2.65,2.65.4,1.42-.34,3.74,0,5.3.24,1.11,3.71,5.47,3.98,6.63.28,1.25-.33,4.31,0,4.64.73.73,1.03-1.85,2.65,1.99.83,1.97,3.02,3.59,3.98,5.3.34.62-.25,1.74,0,1.99.66.66,5.42-1.97,3.98,3.31Z"/>
  <path d="M523.39,65.81c-1.18,4.31-.62,10.22-1.33,15.9-1.4,11.37,1.63,25.98,0,37.1-.07.49-1.21.8-1.33,1.33-.69,2.97.56,5.66-3.98,7.29-.12-3.56,2.04-6.08,1.33-9.94-.09-.5-1.21-.81-1.33-1.33-.53-2.39-.23-2.68-1.33-5.3-1.1-2.64,1.54-1.74,1.99-1.99,3.47-1.97,1.46-7.65,1.99-11.26.08-.53,2.09-2.01,1.33-5.3-1.3-5.57-.42-10.15-1.33-13.25-.65-2.24,2.19-5.1,1.33-5.96-1.09-1.09-3.05,1.25-3.31,1.33-2.7.77-4.4-1.56-3.31,4.64.09.52,1.33.89,1.33,1.33,0,.52-2.45,1.92-2.65,2.65-1.19,4.31-1.42,9.73-1.33,14.58l-2.65,4.64,1.33-5.96c-1.55-3.91,1.59-18.9,1.33-19.88-2.44-8.84,1.74-21.36,0-31.8-.23-1.38-.95-3.67-1.33-5.3-.3-1.34-.33-9.42,0-10.6.83-3.03,6.19-1.58,8.61-1.99.17-.03,2.23-2.41,3.31-1.33.15.15-.38,2.62,1.33,3.31-.61,5.15,1.44,11.91-1.33,15.9l-.66,11.26-1.99-5.96c2.56-1.7.15-1.78,0-2.65-.74-4.47,1.05-12.1,0-15.9-.56-2.01-5.96-2.65-6.63-1.99-.86.86-.38,21.86,0,24.51.4,2.69.99,5.92,1.33,7.95.34,2.05-.46,9.47,0,9.94.9.93,3.71-1.92,5.3-1.33.17-1.48-.28-3.27,0-4.64.11-.52,1.26-.83,1.33-1.33.32-2.27-.21-4.94,0-7.29,2.65-.11.93,4.19,1.33,5.96.12.53,1.8.9,1.33,2.65Z"/>
  <path d="M496.89,106.22c-4.4-1.62-2.25-7.58-2.65-11.26-1.09-10.24-.76-15.17,0-25.18.82-10.84-3.09-18.99,0-29.15.78-2.58-1.26-3.6-1.33-3.98-.37-2.05.48-9.45,0-9.94-.9-.93-3.71,1.92-5.3,1.33-.49-2.74,2.17-4.81,4.64-3.98.52.17.78,1.1,1.33,1.33.72.3,1.75-.24,1.99,0,.4.4-.23,9.1,0,11.26,1.25,11.71,1.18,24.58,0,37.1-.48,5.1,1.09,8.75,1.33,11.93.5,6.66-.36,13.82,0,20.54Z"/>
  <path d="M466.41,98.27c.9-2.57-2.33-3.52-2.65-4.64-1.34-4.62-2.93-9.2-3.98-13.25-1.6-6.17-.23-12.12-1.33-17.23-.08-.36-2.17-5.37-2.65-6.63-.72-1.89-7.37-14.99-9.12-16.46.52.19,1.51-.7,1.17-2.09-.23-.9-1.3-.6-1.33-.66-.46-.99.44-4.86,0-5.3-.15-.15-3.83-.15-3.98,0-.09.09-.05,1.85,0,2.65l-5.3-1.33c-.73-2.16,1.19-2.72,1.33-3.31.7-3.01-1.21-4.66-1.33-7.29,3.62-.52,2.57.58,2.65,3.31.04,1.21-.2,4.43,0,4.64.5.54,6.64-2.64,7.95-1.33.28.28-.26,2.33,0,3.31,2.09,7.67,8.19,15.93,10.6,23.85,1.48,4.89,1.55,10.84,2.65,15.9,1.11,5.13,2.32,11.28,3.98,15.9.85,2.37,2,4.9,3.31,7.29l-1.99,2.65Z"/>
  <path d="M446.54,39.97c-.45-.23-1.83.12-2.65,0,.11-2.19-1.15-2.89-1.33-5.3.74.34,3.87,2.44,3.98,2.65.26.56-.25,2.36,0,2.65Z"/>
  <path d="M202.73,10.82c.08.19.11.4.11.62l-.11-.62Z"/>
  <path d="M221.28,4.2l-1.33,8.61c-.81,1.63-.79,3.06-1.33,5.3-.49,2.09.91,4.31-1.99,5.96l-13.25-2.65c-.65-.19-3.3-4.36-3.31-4.64,0-.37,2.72-3.42,2.76-5.34l1.22,7.33,4.64,1.33c3.43-2.11.15-2.84.66-4.64.07-.23,3.07-3.31,3.31-3.31.33,0,1.44,1.99,1.99,1.33.16-.2.74-3.68,1.33-4.64.86-1.42,3.68-3.8,5.3-4.64Z"/>
  <path d="M514.12,9.5l-1.33,6.63h-8.61c-.69-1.7-3.18-1.19-3.31-1.33-1.29-1.35,1.74-6.19,3.31-6.63,3.54-.97,6.41,1.56,9.94,1.33Z"/>
  <path d="M496.23,13.47c-1.03.26-9.58.36-9.94,0-.15-.15-.15-3.83,0-3.98.34-.34,5.63.2,7.29,0,1.54-.19,3.9-2.05,4.64-1.33.72.7-.32,4.86-1.99,5.3Z"/>
  <path d="M512.79,22.08c.04,1.05-3.03,2.49-4.64,1.99-2.62-.83-3.92-.72-6.63-1.33-2.39-.53-5.99.37-8.61,0-.28-2.4,2.95-1.18,4.64-1.33,1.7-.15,3.83.32,5.3,0,.5-.11.8-1.17,1.33-1.33,1.74-.49,5.31,4.21,4.64-1.33,1.05.08,3.96,3.05,3.98,3.31Z"/>
  <path d="M514.12,136.7l-2.65,7.29c-1.7.68-1.18,3.17-1.33,3.31-.28.28-2.33-.26-3.31,0-.53.15-.82,1.22-1.33,1.33-.87.19-4.47.16-4.64,0-.09-.09-.5-2.82.66-2.65,3.23,3.71,7.86-1.48,8.61-4.64l3.98-4.64Z"/>
  <path d="M337.22,18.77h-8.61c-.52-3.6.58-2.58,3.31-2.65,1.23-.03,5.75-.21,5.96,0,.09.09.5,2.82-.66,2.65Z"/>
  <path d="M205.38,2.21c-.19,1.76,1.18,6.1-1.33,5.96.68-2.95-1.7-4.44-1.33-7.29.19-1.43,3.87-.38,5.3-.66.53,2.5-2.49.42-2.65,1.99Z"/>
  <rect x="530.02" y="71.77" width="1.33" height="13.25"/>
  <rect x="487.61" y="51.9" width="1.33" height="11.93"/>
  <rect x="528.69" y="10.82" width="1.33" height="10.6"/>
  <path d="M530.68,59.85c-3.96-2.32-1.64-7.61.66-5.3.21.21.34,5.88-.66,5.3Z"/>
  <path d="M515.44,158.56c0-.26,2.93-3.23,3.98-3.31,1.52,4.8-3.98,6.29-3.98,3.31Z"/>
  <path d="M455.81,14.8c-1.44-1.21,1.71-1.22,1.99-1.33.78-.32,3.06-2.6,4.64-1.33,1.34,1.09-4.88,4.11-6.63,2.65Z"/>
  <path d="M209.36,1.55c-1.97-1.66,7.43-1.76,7.95-1.33,1.97,1.66-7.43,1.76-7.95,1.33Z"/>
  <path d="M359.09,17.45c-1.97-1.66,7.43-1.76,7.95-1.33,1.97,1.66-7.43,1.76-7.95,1.33Z"/>
  <path d="M330.6,163.2c-3.99-2.33-1.22-5.86.66-3.98.2.2.36,4.57-.66,3.98Z"/>
  <path d="M499.54,144.65c-3.62,2.97-3.05-6.03-1.33-3.98.23.28-.3,1.29,0,1.99.25.57,1.97,1.46,1.33,1.99Z"/>
  <path d="M480.99,12.15c.16-.13,3.82-.13,3.98,0,2.08,1.74-6.06,1.74-3.98,0Z"/>
  <path d="M488.94,39.97c-1.74,2.08-1.74-6.06,0-3.98.13.16.13,3.82,0,3.98Z"/>
  <path d="M531.34,65.15c-1.74,2.08-1.74-6.06,0-3.98.13.16.13,3.82,0,3.98Z"/>
  <path d="M531.34,104.9c-.89,1.06-2.17-1.64-1.33-2.65.89-1.06,2.17,1.64,1.33,2.65Z"/>
  <path d="M530.02,8.17c-.89,1.06-2.17-1.64-1.33-2.65.89-1.06,2.17,1.64,1.33,2.65Z"/>
  <path d="M531.34,46.6c-.89,1.06-2.17-1.64-1.33-2.65.89-1.06,2.17,1.64,1.33,2.65Z"/>
  <path d="M302.77,18.77c-.86,0-.86-1.33,0-1.33s.86,1.33,0,1.33Z"/>
  <path d="M485.63,5.52c-.86,0-.86-1.33,0-1.33s.86,1.33,0,1.33Z"/>
  <path d="M171.59,148.62c-.86,0-.86-1.33,0-1.33s.86,1.33,0,1.33Z"/>
  <path d="M172.26,117.49l-.82.82c.23-.33.49-.61.82-.82Z"/>
  <path d="M234.53,145.97c-1.39,1.39-4.4-1.29-4.64-1.33-3.62-.52-14.28,1.48-15.24-1.99-.48-1.75,1.21-2.12,1.33-2.65.52-2.33.43-7.83-1.33-9.28l-1.33-9.94,2.65,4.64c.97,3.67.69,8.32,1.33,11.93.08.47,1.09.75,1.33,1.33.3.72-.23,1.76,0,1.99s1.27-.3,1.99,0c.57.24.86,1.24,1.33,1.33,3.82.69,11.35-1.32,9.94-5.96-.17-.54-1.24-.84-1.33-1.33-.39-2.15-1.17-5.49-1.33-6.63-.17-1.26.11-2.67,0-3.98-.11-1.42-.89-5,1.33-4.64l.66,6.63c1.38,4.71,1.26,10.27,1.99,15.24.04.24,2.71,3.25,1.33,4.64Z"/>
  <path d="M209.36,36c.32,2.29-3.05,1.32-4.64,1.33-2.07,0-4.76.31-6.63,0-.51-.08-.88-1.32-1.33-1.33-.33,0-3.1,4.04-4.64,2.65-1.21-1.1.91-3.64,3.31-3.98,2.12-.3,5.72-.19,7.95,0,2.56.21,3.68,1.08,5.96,1.33Z"/>
  <path d="M262.36,116.82c-4.83-2.05-1.9-9.22-2.65-13.25l2.65,3.31v9.94Z"/>
  <path d="M245.13,143.32l5.3,1.33c.1,2.65-2.59,1.2-3.98.66-5.45-2.09-3.9-4.59-3.98-9.94,2.54-.26.96,2.97,1.33,4.64.13.58,2.05,1.16,1.33,3.31Z"/>
  <polygon points="172.26 95.62 162.98 96.95 166.95 94.96 172.26 95.62"/>
  <polygon points="174.91 111.52 174.24 107.55 176.23 98.27 176.89 103.57 174.91 111.52"/>
  <path d="M160.33,123.45c-.25.25-1.36-.35-1.99,0-1.83,1.01-2.29,3.74-5.96,2.65l7.29-5.3c1.16-.17.76,2.55.66,2.65Z"/>
  <path d="M213.33,114.17c-1.71,1.38-6.27-1.87-5.3-2.65,1.71-1.38,6.27,1.87,5.3,2.65Z"/>
  <polygon points="194.78 127.42 193.46 121.46 196.11 116.82 194.78 127.42"/>
  <path d="M227.91,106.22c-1.82,2.18-1.82-7.48,0-5.3.17.2.17,5.1,0,5.3Z"/>
  <path d="M157.68,65.15c-1.07-1.33,2.09-4.67,2.65-3.98,1.07,1.33-2.09,4.67-2.65,3.98Z"/>
  <path d="M221.28,59.85c-1.82,2.18-1.82-7.48,0-5.3.17.2.17,5.1,0,5.3Z"/>
  <path d="M178.88,119.47c-1.74,2.08-1.74-6.06,0-3.98.13.15.13,3.82,0,3.98Z"/>
  <path d="M181.53,95.62c.24.24.3,3.21-.66,2.65-3.83-2.23-.7-4.01.66-2.65Z"/>
  <path d="M242.48,134.05c-.89,1.07-2.17-1.64-1.33-2.65.89-1.07,2.17,1.64,1.33,2.65Z"/>
  <path d="M219.29,47.92c.86,0,.86,1.33,0,1.33s-.86-1.33,0-1.33Z"/>
  <path d="M211.34,34.67c.86,0,.86,1.33,0,1.33s-.86-1.33,0-1.33Z"/>
  <path d="M182.19,100.92c.86,0,.86,1.33,0,1.33s-.86-1.33,0-1.33Z"/>
  <path d="M167.62,111.52c1.88,0-1.99,3.86-1.99,1.99,0-.14,1.85-1.99,1.99-1.99Z"/>
  <path d="M164.97,115.5c1.88,0-1.99,3.86-1.99,1.99,0-.14,1.85-1.99,1.99-1.99Z"/>
  <path d="M212.67,116.82c.86,0,.86,1.33,0,1.33s-.86-1.33,0-1.33Z"/>
  <path d="M178.22,127.42c.86,0,.86,1.33,0,1.33s-.86-1.33,0-1.33Z"/>
  <path d="M130.52,140.67c.86,0,.86,1.33,0,1.33s-.86-1.33,0-1.33Z"/>
  <path d="M133.17,142c.86,0,.86,1.33,0,1.33s-.86-1.33,0-1.33Z"/>
  <path d="M92.75,123.45l-3.31,2.65c-1.71-.89-5.07,2.21-5.96,1.33s1.93-3.7,1.33-5.3l7.95,1.33Z"/>
  <path d="M108.65,99.6c.64.53-1.07,1.41-1.33,1.99-.31.7.48,2.65-.66,1.99-3.97-2.32.75-4.99,1.99-3.98Z"/>
  <path d="M98.05,79.72c-2.79.34-2.99.14-2.65-2.65l2.65,2.65Z"/>
  <path d="M108.65,98.27c-.89,1.07-2.17-1.64-1.33-2.65.89-1.07,2.17,1.64,1.33,2.65Z"/>
</svg>