<?xml version="1.0" encoding="UTF-8"?>
<svg id="Layer_1" data-name="Layer 1" xmlns="http://www.w3.org/2000/svg" viewBox="0 0 623.69 259.78">
  <path d="M424.3,56.14l-.53.53v23.3l-.53.53-115.65.35v-17.65l65.5-.35.53-.53V10.06c0-.11.31-.2.36-.35v-.71l-2.65-2.29c-1.56.16-3.45-.22-4.95,0-1.54.22-2.23-.2-3.53,0-4.04.6-8.25-.11-12,.35h-72.22l-.71-.7.18.7h-84.22c-.13.12.25.99.35,1.24.63,1.61,1.85,3.31,2.82,4.94,4.21,7.05,8.71,13.97,13.07,20.83,1.47,2.31,3.09,4.97,4.59,7.42,4.35,7.08,8.54,14.07,12.71,21.18.25.42.91.55.71,1.24,2.88-.07,5.77.08,8.65,0,20.01-.61,41.14.39,61.1-.71,1.57-.09,3.18.06,4.76,0,.06,1.22-.08,2.49,0,3.71,0,.12.35.23.36.35.34,5.83-.26,11.97,0,17.83h-.71v1.41l.53-.35,2.12,1.77h50.85c.73-.47,2.57.56,3.53-.36h64.45v13.95c.81.59.05.84,0,1.06-.43,1.91.41,3.81,0,6-.1.54-.07,1.78.53,1.94h5.65l.53-.53v-53.84h-6.18ZM303.17,85.8c-.23,0-.23-.36,0-.36s.23.36,0,.36Z"/>
  <path d="M618.7,246.1c-.3.3-.31,1.02-.35,1.06-.07.07-.36-.09-.53,0-.29.16-.57.66-.88.88l.35,1.24c-.71.06-1.51-.24-1.94.35-.99-.64-.07-1.83-1.06-2.47h-4.24c-.13.02-.21.31-.35.35-1.37.39-2.46.9-3.53,2.12-3.32.64-7.04.25-10.59.35-9.56.28-19.71.9-29.31,1.06-9.02.15-19.07-.66-27.9,0-6.59.5-14.01.22-21.19.35-24.24.45-48.74,1.53-72.75,1.06-3.93.23-9.1.47-13.42.71-1.88.1-5.45.09-7.06-.35-.18-.05-.72-.91-.88-.71l.35,1.06c-.18.16-3.95-.1-4.77,0-1.62.2-3.98,1.05-5.65,1.41-19.03.18-38.43-.39-57.21.35-3.47.14-7.19-.61-10.24-.35-9.99.84-20.72.13-30.72,1.06-4.94.46-10.27-.61-15.18,0-3.51.43-8.32-.1-12.36,0-14.12.35-28.68,1.12-42.73,1.41-13.48.28-26.74-.58-39.2.71-4.14-.53-9.45.25-13.77.35-4.16.1-9.13-.59-12.71.71h-.71c-2.28-.9-5.49-.15-7.77,0-6.9.47-13.86-.63-21.19-.35-1.53.06-5.19.03-6.71.35-.12.03-.94.68-1.06.71-.43.09-3.52.1-3.88,0-.19-.05-.51-.65-.71-.71-1.36-.37-3.75.17-4.94.35-2.31.35-6.52.22-8.83-.35-5.94-1.48-19.54-.11-26.13,0-4.96.08-11.57-.58-16.24,0-1.94.24-6.59.28-8.48,0-1.69-.25-7.45.19-9.18.35-6.39.6-15.83-1.07-21.54.35-3.42.85-10.4-.63-14.83-.35-3.13.2-6.35.01-9.53.35-2.24.24-3.06-.53-4.94-1.06-2.37-.67-5-.29-7.42-1.06-.69-.22-1.05.73-1.59-.18-.17-.85.69-.52,1.24-.53,3.04-.03,6.01,0,8.83.35,1.98.25,2.04-.49,2.83-.71,1.83-.51,8.12-.09,9.53,1.06,2.09-.61,4.46-.26,6.71-.71,3.47-.69,8.2.17,12.01-.71,9.54.96,20.12.09,29.66,0,9.11-.08,21.16.91,29.66-.35,1.26-.19,2.39.54,3.18.35,2.66-.62,5.74-.57,8.12,1.06l1.77-.35c2.8.89,7.03-1.12,9.89.35h.35c1.12-.72,2.39-1.08,3.53,0h.71l1.41-1.06c.65.09,1.53-.13,2.12,0,2.15.48,4.26-.19,6.71-.35,2.67-.18,5.47,0,7.95.35-.12.72.53,1.26,1.24,1.06.25-.07.81-.99,1.06-1.06.82-.23,2.38-.09,2.83.71h.35c3.14-1.33,7.31-.47,10.95-.71.56-.04.75-.03,1.24-.35l-1.06,1.77c1.59.32,1.82-.71,2.65-1.77,1.05-.06,2.14.09,3.18,0,2.7-.22,5.57-.26,8.48-.35,18.24-.59,37.07-1.15,54.74-1.41,3.27.39,7.3.14,10.95,0,20.71-.82,40.92-.68,61.09-1.06,31.44-.17,64.25-1.53,94.99-.71,5.61-.17,11.88-.08,17.66-.35,1.14-.05,4.83-.23,5.65,0,.22.06.5.74.88.71-.23-1.04.59-1.43,1.24-2.12,2.18-.15,4.57.2,6.71,0,2.21-.21,4.01.18,6.36,0,14.28-1.08,29.13-.57,43.79-.71,15.73-.15,31.35-1.02,46.61-.71,2.45-.74,8.91-.76,11.65-.35.5.07,9.38.07,9.89,0,5.09-.76,10.62.04,15.89-.35,13.61-1.02,27.64-.06,41.67-1.77,1.64.5,2.98.06,4.94.35.54.08,1.2-.06,1.77,0l.53-1.06,1.41.35Z"/>
  <path d="M135.61,225.79c-.46-9.49-.25-19.58-1.06-28.95-.09-.98.06-2.02,0-3-2.64.06-5.3-.09-7.95,0-.12,0-.23.35-.35.35-3.02.11-6.43-.32-9.18.36-.4.09-.95.22-1.41.35-.16.04-.87.64-1.06.71-1.04.36-1.91.38-2.83,1.05-1.3.95-2.52,2.73-3.35,4.07-.06.08.05.26,0,.35-.22.36-1.35,1.55-1.42,1.76-.19.65.59,1.2.36,1.95l-.89-.71-.88.35.35,2.12h.71c-.89.94-.89,2.75-.71,4.06.02.11.63.62.36,1.24l-1.41-.89.35-1.41-.35-.35.35-1.41-1.06-1.24.35,1.94-1.06,1.77c.85,1.56-.01,3.97.36,5.65.08.41.62,1.27.7,1.76.16.92.01,1.89.36,2.83.08.22.55.79.7,1.06.1.17.05.65.53.88h.88c-.09.48.06,1.28.53,1.41,1.87.54,1.12.69,1.95,1.94.48.73,1.39.87,1.06,2.12l.53.53h.88v.71l1.23.7,1.42.36-.18.7,1.06-.17c5.16,1.81,12.22.41,17.48.88l1.06-.35c.54.78.83-.06,1.59,0-.07-1.82.09-3.66,0-5.48ZM105.24,216.44c.04-.55-.22-1.18.35-1.59.47-.34.89.09.71-.88.58-.09.34.47.35.88.02.64,0,1.3,0,1.94l-.35-1.06-1.06.71ZM107,217.85h-.35v-.71h.35v.71ZM107,205.84h-.35v-.7h.35v.7ZM128.19,224.91h-8.3c-.11,0-.21-.32-.35-.35-.32-.07-.76.08-1.06,0-.18-.05-1.09-.66-1.23-.88-.25-.39-.47-1.34-.71-1.77-.14-.25-.57-.46-.71-.71-.9-1.58-.8-2.89-1.06-4.59-.02-.13-.34-.22-.35-.35-.22-2.12-.11-5.53.35-7.41.38-1.52.82-2.82,1.06-4.24.72-.88,1.33-2.43,2.3-3,.07-.05.24.05.35,0,.15-.07.23-.33.35-.36.41-.09.98.08,1.42,0,.13-.02.22-.33.35-.35,1.84-.23,4.25.29,6,0,.14-.02.24-.35.36-.35.12.19.49.38.53.53.12.46.07,2.91,0,3.53-.41,3.29.81,6.77,0,10.24-.13.55.54,5.8.7,6.71.19,1.05-.5,1.96-.35,2.47.05.18.54.3.35.88Z"/>
  <path d="M224.95,164c-1.09-1.89-1.86-4.01-3.18-5.64-.73-.92-3.18-2.81-3.53-3.54-.25-.54.15-.51.53-.52,1.33-.07,2.73-.74,3.89-1.42.71-.42,1.76-1.14,2.29-1.94.1-.15.25-.87.36-1.06.13-.24.65-.52.7-.7.13-.45-.08-1.23,0-1.77.02-.13.34-.22.35-.35.09-.78.08-2.04,0-2.83,0-.13-.33-.22-.35-.35-.08-.78.13-1.75,0-2.47-.02-.13-.31-.21-.35-.36-.28-.97-.86-2.7-1.41-3.53-.25-.36-1.93-2.05-2.3-2.29-.14-.1-.82-.27-1.06-.35-.15-.06-.22-.32-.35-.36-.67-.18-1.76-.21-2.47-.35-.14-.03-.23-.33-.36-.35-2.81-.42-12.64-.36-15.54,0-.12.01-.21.33-.35.35-.43.08-1-.09-1.41,0-.43.09-1.59.8-2.47,1.06-.49.14-1.62,1.73-.18,1.41l.35-.88.71.35.35,35.13h7.07v-15l.53-.53,2.11.35c.14-.3,1.3-.13,1.77,0,.15.04.47.59,1.06.35l1.59,1.59c1.7,3.79,4.77,6.82,6,10.77h.71l.7,2.12c.24.23,5.49-.18,6.54,0,.32.06.87.92,1.59-.18l-3.89-6.71ZM217.01,149c-.08.04-.25-.05-.36,0-.15.07-.22.32-.35.35-.58.13-1.46-.08-2.12,0-.13.02-.22.34-.35.36-2.43.22-5.13-.17-7.59,0v-9.18h10.77c.07,0,1.11.68,1.23.88.05.08-.05.25,0,.35.13.23.68.94.71,1.06.1.47.1,3.07,0,3.53-.03.13-.29.2-.35.35-.34.85-.76,1.8-1.59,2.3Z"/>
  <path d="M501.11,225.44c.03-.4.06-1.05,0-1.41-.85-4.64.16-8.89-.36-13.07-.72-5.81.78-13.05,0-18.36-.1-.71-.14-2.03.36-2.47v-.7l-.89-.89h-6s-.64.42-.35.71-.39.54-.18,1.24c.62,2.05-.26,2.45,0,3.88.83,4.53-.05,9.81.35,14.12.12,1.31-.08,2.74,0,4.06l-1.06-1.23c-2.9-7.18-7.08-13.51-10.59-20.48-.09-.17.07-.47,0-.71-.04-.14-1.05-1.25-1.24-1.59-1.51.19-3.52-.25-4.94,0-.13.03-.21.31-.35.36-.3.09-1.07-.08-1.24.53v35.83c.57-.19.74.33.88.36.94.16,2.24-.17,3.18,0,.13.02.21.31.35.35.7.21.95-.33,1.06-.35.36-.08.85.04,1.24,0v-17.66c.84.16,1.44-.59,2.3-.35.08.02,1.11,1.06,1.23,1.24.24.36.47,1.32.71,1.76,1.14,2.16,2.53,4.21,3.53,6.36,1.1,2.38,2.47,4.68,3.53,7.06.11.24.7,1.18.88,1.23,1.56.23,3.87-.3,5.3,0,.27.06.97.72,1.24.89.38.23.64.2,1.06.17-.58-.7-.02-.7,0-.88ZM483.45,206.55l-2.47-.35.35-3.53.71.88c.39.5.53,1.4.7,1.77.11.23.81,1.14.71,1.23Z"/>
  <path d="M310.76,226.5c-2.28-3.95-3.73-7.91-6.71-11.65-.05-.08.06-.29,0-.35-.6-.75-2.54-2.23-2.82-2.83-.27-.57.19-.49.53-.53,1.19-.15,3.05-.81,3.88-1.41.78-.57,1.95-1.87,2.3-2.65.07-.15.32-.22.35-.35.08-.3-.07-.75,0-1.06.04-.14.32-.22.36-.35.09-.39.39-2.64.35-2.83-.03-.14-.34-.22-.35-.35-.16-1.08.15-2.45,0-3.53-.02-.13-.33-.22-.36-.36-.07-.32.08-.76,0-1.06-.04-.15-1.3-2.65-1.41-2.82-.28-.42-1.86-1.98-2.3-2.3-.07-.05-.26.06-.35,0-.24-.16-.54-.66-.7-.7-.38-.11-1,.09-1.42,0-.12-.03-.94-.68-1.06-.71-.99-.21-2.72.08-3.88,0-1.89-.13-2.37-.12-4.24,0-3.52.22-7.23-.16-10.77,0v36.9l.53.53c1.51.18,3.51-.25,4.94,0,.13.02.21.31.36.35.42.14,1.23-.24,1.23-.53v-15.36c.81.09,1.79-.28,2.3.36l1.76-.36c.55.41,1.11.61,1.59,1.24.93,1.22,1.73,2.08,2.48,3.53.93,1.81,2.38,3.56,3.53,5.3.86,1.3,1.39,2.96,2.12,4.23.15.28.51.31.35.89.23.23,5.48-.19,6.53,0,.11.01.36.55,1.06.35.2-.06.62-.57.53-.88-.05-.19-.56-.47-.71-.71ZM299.99,205.49c-.41-.12-1.15.65-1.41.71-.99.21-2.73-.08-3.88,0-1.22.08-2.71.57-4.24.35-.17-.02-.48-.82-1.06,0l-.53-.53c0-.12.33-.22.35-.35.16-.97.19-6.55,0-7.42-.03-.13-.31-.21-.35-.35l.53-.88h9.89c.1,0,.19.28.35.35.11.05.28-.04.35,0,.22.13,1.46,1.37,1.59,1.59.05.08-.05.24,0,.35.07.16.33.23.36.36.09.4.09,2.42,0,2.82-.03.13-.3.2-.36.35-.39.99-.72,1.99-1.59,2.65Z"/>
  <path d="M462.97,165.06l.7-.35c-.5-.61-1.3-1.15-1.76-1.76-.18-.24-.53-1.12-.71-1.42-1.71-2.91-3.61-6.49-6.18-8.65-.31-.26-.35-.47-.88-.35-.08-.53.13-.31.53-.35.94-.11,2.25-.44,3.18-.71.17-.05,1.42-1.16,1.76-1.41.08-.06.28.05.35,0,.44-.32.81-.88,1.24-1.24.29-.85.73-1.63,1.06-2.47.06-.15.33-.22.35-.35.31-1.39,0-5.06-.35-6.36-.04-.14-.31-.21-.35-.35-.15-.53-.16-1.51-.36-2.12-.89-1.11-1.75-2.8-3-3.71-.14-.1-.83-.18-1.06-.7-.68-.18-1.44-.22-2.12-.36-.13-.02-.22-.33-.35-.35-.66-.09-1.45.09-2.12,0-.13-.02-.22-.34-.35-.35h-16.25l-.52.53v36.01l.52.53h5.3c.12,0,.21.31.35.35l1.24-.88c0-.12-.35-.23-.35-.35v-14.65c.56-.2.74.33.88.35,1.04.18,2.57-.22,3.53,0,.13.03.2.28.36.35.1.05.27-.04.35,0,.24.15,1.41,1.33,1.59,1.59,2.13,3.22,5.28,8.26,6.71,11.65.12.31.57.54.35,1.24.22.21,4.9-.21,5.83,0,.13.03.21.31.35.35l.71-.35,1.59.35c.14-1.66-1.47-2.38-2.12-3.71ZM452.9,147.23c-.65.18-2-.07-2.82,0-.13.02-.23.35-.36.36-2.23.16-4.63-.12-6.88,0v-9.18h10.42c.1,0,.19.28.35.35.11.05.28-.05.35,0,.18.1.77.7.88.88.06.08-.05.26,0,.36.14.22.69.94.71,1.05.09.42.08,2.03,0,2.48-.02.13-.31.21-.35.35-.1.35.17.77-.36,1.06.04.42-1.72,2.23-1.94,2.29Z"/>
  <path d="M346.43,146.17v23.3h-5.12c-.11,0-.2-.31-.35-.35-.39-.12-.87.14-1.24-.53v-.35c.04-.14.32-.22.35-.35.54-2.42-.64-6.17-.35-8.12.29-1.96.56-4.33,0-6.36-.07-.27-1.23-.8-.53-1.24l.88.71c-.11-.93.16-2.12,0-3-.52-2.92-.17-8.58-.35-12-.09-1.64.06-3.3,0-4.94l.53-.53h6c.33.32.72.87.88,1.24,3.15,7.15,7.49,14.12,11.3,21.18.25.46.29,1.41,1.06,1.59v-24.36c.51.05,1.1-.08,1.59,0,.13.02.22.34.35.35,1.34.15,2.87-.1,4.24,0l.53.88c-.04.14-.32.22-.35.35-.52,2.33-.07,10.16,0,13.06.07,2.74,1,7.37.35,10.24-.24,1.07-.17,3.1-.35,4.59-.24,1.9.67,4.11.35,6.36-.02.17-.82.48,0,1.06l-1.24.53c-.15-.05-.22-.33-.35-.35-1.46-.26-4.04.35-5.3,0-.06-.02-.79-.73-.88-.88-.43-.67-.92-1.94-1.41-2.82-3.14-5.65-5.95-11.4-9.18-17.3-.13-.24-.65-.52-.71-.71-.13-.43.14-1.06-.71-1.24Z"/>
  <path d="M199.88,206.37c-.07-.39-.63-1.7-.71-2.11-.08-.43.09-1,0-1.42-.07-.33-1.18-2.34-1.41-2.82-.4-.86-1.55-2.8-2.12-3.53-1.43-1.84-2.57-2.01-4.41-3-.73-.39-1.19-.81-2.12-1.06-.4-.11-.96-.34-1.06-.36-.42-.08-.98.08-1.41,0-.14-.02-.23-.33-.36-.35-.65-.08-1.81-.07-2.47,0-.13.02-.22.34-.35.35-1.57.14-2.74-.1-4.24.36-1.23.37-2.72,1.05-3.88,1.76-3.1,1.9-5.3,5.45-6.18,9.01-.32,1.26-1.03,3.53-.71,4.94.03.14.31.21.35.35-1.02,4.7-.04,9.63,2.12,13.77.57,1.1,1.14,2.56,1.94,3,.61.34,1.05,1.09.89,1.77,1.36-.29,2.62,1.82,3.71,2.12.3.08.75-.08,1.05,0,.2.05.52.65.71.7.3.09.74-.07,1.06,0,.14.04.22.34.35.36,1.9.27,6.8.09,8.48-.36.14-.03.21-.31.35-.35,3.74-1.1,5.92-2.21,7.95-5.47.57-.92,1.37-2.11,1.76-3.18,1.39-3.74,1.38-10.48.71-14.48ZM193.17,212.38c0,.12-.34.22-.35.35-.09,1,.16,2.27,0,3.18-.05.27-.53,1.52-.71,2.12-.05.18-.57.46-.71.7-.45.81-.86,1.81-1.41,2.47-.57.7-.98.86-1.59,1.24-.35.22-1.53,1.01-1.76,1.06-.41.09-.99-.08-1.42,0-.1.02-.37.56-1.06.35-.14-.04-.22-.33-.35-.35-.63-.11-1.48.11-2.12,0-.13-.02-.21-.31-.35-.35-.23-.07-.51.07-.71,0-.13-.05-.2-.29-.35-.36-.22-.1-.91-.25-1.06-.35-.34-.23-1.32-1.24-1.59-1.59-.18-.24-.55-1.07-.7-1.41-.18-.38-1.01-1.87-1.06-2.12-.11-.5.08-1.22,0-1.77-.02-.13-.34-.22-.36-.35-.11-1.05-.19-4.77,0-5.65.22-.96.09-1.93.36-3.18.02-.12.68-.93.7-1.05.09-.42-.1-1.04,0-1.42.05-.18.58-.46.71-.7.63-1.18,1.12-2.5,2.29-3.36.08-.05.27.06.36,0,.24-.16.54-.66.7-.7.24-.07.53.08.71,0,.22-.11.93-.68,1.06-.71.58-.13,3.61-.11,4.24,0,.13.02.2.31.35.35.21.07.49-.06.71,0,.44.13.92,1.5,1.94,1.06-.03.97,1.17,1.54,1.76,2.3l.71,3h.71c.16,2.39.52,4.7.35,7.24Z"/>
  <path d="M400.11,149.53c0-.13-.34-.23-.35-.35-.15-1.57-.05-3.08-.36-4.59-.18-.92-.69-2.59-1.06-3.54-.33-.83-.99-2.13-1.41-2.82-.9-1.47-2.45-2.73-3.71-4.06-3.6-1.9-7.79-2.57-12-2.12-.13.01-.22.33-.36.35-1.07.16-1.71-.31-2.12-.35-1.95-.21-4.19.15-6.18,0,.14,1.1-.35,2.56.36,3.36l-.71,1.05.35.36v31.77l.53.53c2.94-.08,5.9.11,8.83,0,.12,0,.23-.34.35-.35,2.42-.1,4.45-.01,6.71-.35.55-.08,1.27.11,1.77,0,.3-.07,1.35-.88,1.77-1.06.2-.09.51.09.7,0,2.02-.91,3.48-2.73,4.77-4.41.04-1.76,1.52-3.12,1.77-4.59.41-2.52.55-6.13.35-8.83ZM392.69,154.82c0,.13-.33.23-.35.36-.08.54.11,1.26,0,1.76-.03.13-.63.86-.71,1.06-.08.21.09.51,0,.71-.11.25-.57,1.21-.7,1.41-.14.21-1.48,1.56-1.59,1.59-.24.07-.53-.08-.71,0-.23.11-.9.66-1.06.71-.29.08-.74-.07-1.06,0-.14.03-.23.35-.35.35h-6.89c-.19-.57.33-.75.36-.88.2-1.22-.3-2.17-.36-2.83-.19-2.3.43-5.05-.35-7.06l.71-.71-.36-.35v-12.18h8.3c.06,0,.53.61,1.06.35l3.36,3.36c.17.68.21,1.44.35,2.12.03.13.33.22.35.35.3,2.01.22,7.77,0,9.88Z"/>
  <path d="M545.95,215.02c.29,0,.59-.01.88,0,.44.02,1.32-.27,1.24.35l-2.12.35.35,2.12-.71.71c.9.1,1.38-.51,2.3-.35.23.04.25.68.71,0h14.48l.53.53c-.07.92.1,1.93,0,2.82-.14,1.35-.19,1.03,0,2.47.08.61-.06,1.32,0,1.94l-2.3-1.06c-3.31-.4-6.96-.6-10.24,0-1.11.2-2.39-.54-3.88-.35-2.06.26-4.66.05-6.36.35-1.1.2-2.01.04-2.65-.88,0-.12.33-.22.35-.35.12-.74.07-2.37,0-3.18-.13-1.58-.13-1.6,0-3.18.34-4.04-.53-8.56.35-12.36.07-.29-.24-2.07-.35-2.47-.06-.22-.86-.75-1.06-1.06l1.06-.18c.05-.51-.08-1.1,0-1.59.05-.32.53-.78.35-1.77-.25-1.38-.15-.94,0-2.12s-.27-7.32,0-7.59l24.19-.35.53.53c.14.95-.19,2.31,0,3.18.03.14.48.24.35.71-.04.14-.32.22-.35.35-.11.49.13,2.17,0,2.3-.74-.06-1.57.09-2.3,0-1.96-.25-3.75.32-5.65,0-2.24-.37-3.74-.33-6.36,0-.74.09-2.02.15-2.47-.35l.18.88c-1.09,1.68-.8,4.09-.35,6l-.53.88c-.34.71.32,0,.35,0h15.18c.52,0,.44,1.35.88,1.59v.71c-.88.74.24,4.1-.88,4.41-.29.08-1.4.05-1.77,0-3.02-.45-5.55-.14-8.48,0-1.82.09-3.66-.06-5.47,0v6Z"/>
  <path d="M164.56,230.56c-.39-.05-.88.07-1.24,0-1.84-.38-5.39-.65-7.42-.35-4.2.61-9.92-.13-14.48.71-1.15.21-2.14-.59-3.35-.35l1.06-.35c-.06-1.22.09-2.49,0-3.71,0-.13-.35-.23-.35-.35-.29-4.85.21-9.95,0-14.83l-.88-1.59-.53.71c.08-.37-.22-1.27.18-1.41.2-.08.51.04.71-.35l.53.71c-.05-.75.07-1.56,0-2.3-.01-.13-.34-.23-.35-.35-.37-4.36.28-9.19,0-13.59l24.72-.71c.05.4-.07.87,0,1.24.03.14.34.22.35.35.1.77.16,4.37,0,4.94-.05.18-.58.64-.88.53h-.35c-.15-.05-.22-.33-.35-.35-2.53-.45-5.82.28-8.12.35-2.76.09-5.54-.06-8.3,0v8.12l16.07-.35c.16.04.86,1.12.88,1.24.29,1.34-.21,3.49,0,4.94l-.53.53h-16.07v10.24c.54.19.81-.35.88-.35h17.83v.71h.71v.35h-.71v5.65Z"/>
  <path d="M257.44,139.82h-18.01v8.12h15.36l.71-.35.53.53c.21,1.45-.29,3.61,0,4.94.03.13.31.21.35.35.14.3-.42.88-.53.88h-16.42c.06.86-.08,1.8,0,2.65.06.58.5,1.31.35,2.47-.02.13-.34.23-.35.35-.13,1.41.1,2.98,0,4.41h17.13c.12,0,.21-.31.35-.35l.88.53c.06.93-.08,1.91,0,2.82.01.13.34.22.35.35.07.64.14,3-.53,3h-24.01c-.12,0-.24.35-.35.35-.07,0-.35-.55-.88-.35v-1.06h-.71v-1.06h.71c.38-5.52-.51-11.69,0-17.12.01-.13.34-.22.35-.35.15-1.16-.3-1.91-.35-2.47-.43-4.6.32-9.8,0-14.48l.53-.53c5.29-.12,10.6.16,15.89,0,.12,0,.23-.35.35-.35,2.58-.09,5.18.06,7.77,0l.53.53v6.18Z"/>
  <path d="M368.32,196.66l-1.59-.35h-16.07c.23,1.87-.32,4.41,0,6.18.02.1.56.37.35,1.06-.06.19-.54.3-.35.88h16.07l.53.53v5.65c0,.11-.58.67-.88.53h-.35c-.15-.05-.22-.33-.35-.35-2.24-.4-10.31-.13-12.36.35-.88.21-1.42-.48-2.3-.35.3,1.01-.86,1.9,0,2.65l-.35,1.41c.04.15.33.22.35.35.16.9-.19,5.28,0,5.47h15.01c.59-.87,1.18-.04,1.41,0,.47.09,1.08-.06,1.59,0v6.18l-1.24.53c-.71-.68-1.9-.49-2.47.35l-.18-.71h-21.19c.08-.84-.12-1.84,0-2.65.04-.28.9-1.17,0-1.77v-32.66l23.48-.35.53.53-.35.35c.16.21.71,1,.71,1.06v5.12Z"/>
  <path d="M242.25,202.31c-1.65.13-3.5-.18-5.12,0-.13.01-.22.33-.35.35-.48.08-1.08-.05-1.59,0-.13-.13.11-1.8,0-2.3,0-.04-.31-.64-.35-.71-.14-.24-1.33-1.42-1.59-1.59-.08-.05-.26.06-.35,0-.23-.13-.94-.68-1.06-.71-.52-.11-2.97-.1-3.53,0-.1.02-.51.6-1.06.35l-2.3,1.41-.35,3.71,3.35,1.94c2.34.64,4.75,1.14,7.06,1.77.84.23,1.94,1.06,3.18,1.41.62.18,3.77,4.03,4.06,4.77.15.37.22,1.34.35,1.77.04.14.32.22.35.35.08.29-.07.73,0,1.06.03.14.33.22.35.35.15,1.04.15,4.26,0,5.3-.02.13-.32.21-.35.35-.07.32.08.76,0,1.06-.04.14-.3.21-.35.35-.52,1.45-1.7,3.2-3,4.06-.08.05-.26-.06-.35,0-.47.29-1.32.9-1.77,1.06-.2.07-.49-.07-.71,0-1.97.65-2.49.51-4.59.71-.13.01-.23.34-.35.35-1.9.14-3.63-.1-5.3-.35s-4.02.1-4.41-2.12h-1.06c-.34-1.59-2.59-2.53-3.18-4.06-.14-.36-.35-1.32,0-1.41l-.71-.71c.32-.72-.33-1.6-.35-1.77-.09-.72.06-1.56,0-2.3.86-.06,1.81.09,2.65,0,.39-.04,1.51-.25,2.12-.35.1-.02.37-.56,1.06-.35l.88.35c.06.51-.09,1.12,0,1.59.06.31.56,1.37.71,1.77.32.89.76,1.74,1.59,2.3.08.05.26-.06.35,0,.23.13.94.68,1.06.71.41.09.98-.08,1.41,0,.13.02.22.33.35.35.98.18,1.51-.32,1.77-.35.66-.08,1.53.13,2.12,0,.13-.03.2-.29.35-.35.24-.1.9-.25,1.06-.35.81-.52,1.28-1.88,1.94-2.65-.12-.85.17-2.05,0-2.82-.03-.12-.28-.2-.35-.35-.12-.26-.04-.57-.53-.88s-1.65-1.38-1.77-1.41c-.46-.13-1.24.09-1.77,0-.12-.02-1.29-.68-1.41-.71-.72-.13-1.85.17-2.47,0-.24-.07-2.67-1.93-3.53-2.12s-1.99.39-1.94-1.06l-1.77-.35c.34-1.11-1.97-2.48-2.12-3-.08-.3.08-.76,0-1.06-.17-.64-.76-1.81-1.06-2.47v-.71c.77-.93.14-2.67.35-3.88.02-.13.31-.21.35-.35.06-.23-.07-.51,0-.71.1-.26.89-1.87,1.06-2.12.27-.4,2.25-2.38,2.65-2.65.09-.06,1.24-.64,1.41-.71.59-.22,1.5-.23,2.12-.35.92-.18,1.47-.23,2.47-.35.13-.02.23-.34.35-.35,4.32-.39,8.33.63,11.48,3.71.24.89,1.51,2.26,1.77,3.18.08.3-.08.76,0,1.06.04.16.68.93.71,1.06.14.64-.1,1.59,0,2.3Z"/>
  <path d="M430.12,132.05v6.36c-.72-.12-.82.65-1.24,0h-16.42v8.12c1.1-.06,2.25.09,3.35,0,.13,0,.23-.35.35-.35,3.92-.25,8.06.18,12.01,0l.53.53v6.18l-1.59-.35h-14.66v9.89h17.48l.53.53c.06,1.04-.09,2.14,0,3.18.01.13.34.22.35.35.08.85-.06,1.79,0,2.65-.61.28-1.17-.35-1.24-.35h-24.19v-36.72c6.21-.27,12.71.36,18.89,0,.12,0,.23-.34.35-.35,1.66-.11,2.81.07,4.24.35.36.07.84-.05,1.24,0Z"/>
  <path d="M194.23,166.48c-3.67-8.86-6.69-17.7-9.89-26.48-.33-.9-1.26-2.8-1.41-3.54-.13-.63.16-1.99-.88-2.29-.71-.2-.96.33-1.06.35-1,.18-5.96-.22-6.18,0,.18.58-.28.68-.36.89-3.65,10.11-6.77,21.11-10.24,31.42-.3.89-1.2,2.41-1.41,3.18-.1.36.19.93-.18,1.23-.35.18.26.68.36.71h7.59c.04-.29-.07-.64,0-.88.43-1.6.97-3.17,1.41-4.95.21-.84.21-1.28.35-2.12.03-.13.55-.31.36-.88h13.06c-.18.58.28.68.36.88.56,1.56.79,3.32,1.41,4.95.08.2.67.92.71,1.06.08.34-.06.84,0,1.23,1.22.07,2.48-.08,3.7,0,.13.01.23.35.36.36,1.1.08,2.25-.07,3.35,0l-1.41-5.12ZM175.69,156.77c-.18,0-.27.7-.88-.18.18-.24.63-.86.7-1.06,1.16-3.24,1.91-6.51,3-9.71.18-.5.24-.89.18-1.41,1.24-.29.55,1.2.71,1.94.08.39,1.03,1.3,1.06,1.41.1.39-.11,1.03,0,1.42.05.19.64.5.7.7.51,1.73,1.05,3.35,1.42,4.94.17.76-.1,1.18.7,1.95-2.49.12-5.12-.17-7.59,0Z"/>
  <path d="M268.91,190.66h5.65l.53.53c.07,2.23-.09,4.48,0,6.71,0,.12.35.23.35.35.24,6.7.56,16.69-.35,22.95-.02.13-.32.21-.35.35-.07.32.08.77,0,1.06-.13.46-.85,1.07-1.06,1.41-.1.17-.26.91-.35,1.06-.14.21-1.48,1.56-1.59,1.59-.22.06-.49-.06-.71,0-.19.05-.47.58-.71.71-1.19.61-2.32.76-3.53,1.06-.14.03-.22.33-.35.35-.81.15-7.86.17-8.48,0-.19-.05-.51-.65-.71-.71-.3-.08-.76.08-1.06,0-.15-.04-2.58-1.25-2.83-1.41-.33-.22-2.94-3.14-3-3.35-.1-.38.09-1,0-1.41-.03-.12-.68-.94-.71-1.06-.36-1.68,0-4.13-.71-5.65v-23.66l.53-.53c1.09.13,2.5-.18,3.53,0,.13.02.21.31.35.35.7.22,1.92-1.07,2.65.18-.05.45.08.99,0,1.41-.45,2.48-.1,3.72,0,6,.15,3.39-.51,7.76,0,10.59.44,2.48-.51,6.48,0,8.83.03.13.6.84.71,1.06.08.18-.07.47,0,.71.02.08,1.05,1.11,1.24,1.24.08.05.26-.06.35,0,.23.13.94.68,1.06.71.5.11,1.22-.08,1.77,0,.13.02.22.33.35.35.43.06,1.33.06,1.77,0,.13-.02.21-.32.35-.35.32-.07.76.08,1.06,0,.14-.04.21-.3.35-.35.74-.27,1.49-.53,1.94-1.24.05-.08-.05-.26,0-.35.16-.27.62-.84.71-1.06.07-.2-.06-.48,0-.71.04-.14.33-.22.35-.35.3-1.68-.08-4.47,0-6.36.15-3.69,1.12-12.8.35-16.24-.18-.79-.15-1.24-.35-2.12s.25-1.08.35-1.41c.13-.39-.14-.87.53-1.24Z"/>
  <path d="M292.75,168.59c-.02-.13-.66-.9-.7-1.05-.72-2.63-1.56-4.6-2.47-7.07-.88-2.35-1.56-4.9-2.48-7.41-2.17-5.97-4.77-11.79-6.35-18.01-.06-.21-.63-.7-.36-1.41l-.52-.53h-7.07l-12.89,37.07h7.6c.09,0,.35-.41.52-.53l.71-2.82c.62-.77.95-2.33,1.06-3.18.08-.61-.05-1.31,0-1.94h12.18l.71-.35c.33.31.72.86.88,1.23.39.87,1.61,4.45,1.77,5.3.09.47-.06,1.08,0,1.59.57-.2.74.33.88.35,1.43.25,3.43-.19,4.95,0,.12.02.21.33.35.35.36.08.84-.04,1.23,0-.06-.49.1-1.13,0-1.59ZM280.75,155.35h-8.12c-.19-.58.28-.67.35-.88.34-.97.44-2.21.71-3.18.13-.5,1.01-1.14.7-1.94.9.18,1.23-.3,1.77-.88l-1.42-.35.71-1.06,1.06-4.77.71,1.24c.94,3.85,2.32,7.29,3.17,10.94.04.16.55.31.36.88Z"/>
  <path d="M470.74,224.38c-.5-1.84-1.11-3.52-1.77-5.29-.58-1.57-1.29-3.63-1.77-5.3-.32-1.15-1.16-2.64-1.41-3.53-1.22-4.48-2.69-8.45-4.24-12.71-.84-2.34-1.58-4.75-2.11-7.06-.08-.31.04-.72,0-1.06l-.53-.53h-7.07l-.88,1.23c-.28,1.25-.51,2.72-1.41,3.53.46.88-.66,2.71-1.06,3.89-2.14,6.33-4.01,12.64-6.36,18.71-.97,2.51-1.74,5.48-2.47,8.12-.03.12-1.46,1.24-.18,1.59,1.08.29,4.9,0,6.36,0,.11,0,.21.31.35.35h.36c.22-.31.7-.58.88-.88.04-.07.34-.66.35-.71.29-1.3.35-2.94.71-4.23.05-.2.65-.51.7-.71.14-.48-.14-2.15,0-2.29h10.07l.35-.36,1.77.36c.52.38.67.99.88,1.59.05.14.32.21.35.35.09.3-.08.76,0,1.06.05.15.68.92.71,1.06.09.41-.1,1.03,0,1.41.09.32,1.19.95.71,2.12l.53.53c1.26.08,2.63-.12,3.88,0,.13,0,.22.33.35.35.65.08,2.44.16,2.65-.53.16-.53-.63-.8-.7-1.06ZM451.67,211.14c-.19-.58.28-.68.35-.88.47-1.34,1.04-2.9,1.06-4.42h.71c.39-1.47-.04-3.09,1.41-4.06,0-.11-.31-.2-.36-.35-.2-.7.34-.96.36-1.06.1-.58-.07-1.33,0-1.94l1.06,1.94c.32,1.07.46,2.23.7,3.18.53,2.03,1.46,4.39,2.12,6.36.15.42.39.77.36,1.23h-7.77Z"/>
  <path d="M326.3,132.4h6.53l.53.53v27.19c0,.12-.33.22-.35.35-.2,1.35-.2,2.51-.71,3.88-.86,1.26-1.73,2.78-3,3.71-.07.05-.27-.06-.35,0-.24.16-.54.66-.71.71-.23.07-.53-.08-.71,0-.22.1-.93.68-1.06.71-.41.09-.98-.08-1.41,0-.14.02-.22.34-.35.35-.89.11-1.92-.08-2.83,0-.13.01-.23.34-.35.35-.97.07-2.6.12-3.53,0-.13-.02-.22-.33-.35-.35-.43-.08-.99.08-1.41,0-.14-.03-.22-.33-.35-.35-.42-.08-1,.09-1.41,0-.1-.02-1.65-.97-1.77-1.06-1.13-.85-2.28-2.29-3-3.35-.16-.24-.66-.54-.71-.71-.14-.49-.22-1.26-.35-1.77-.04-.14-.33-.22-.35-.35-.09-.42.08-.98,0-1.41-.28-1.58-.24-2.56-.35-4.24-.33-4.85-1.07-14.38-.35-18.71.2-1.22-.24-2.03-.35-2.82-.49-3.32,1.36-1.94,3.35-2.3.1-.02.37-.56,1.06-.35.15.04.22.33.35.35.52.09,2.3-.2,2.3.53v25.77c0,.11.31.21.35.35.06.23-.07.51,0,.71.05.14.29.21.35.35.1.22.25.91.35,1.06.17.25.98,1.07,1.24,1.24.08.05.26-.06.35,0,.23.13.94.68,1.06.71.54.12,4.06.12,4.59,0,.13-.03.2-.29.35-.35,1.36-.54,1.99-1.02,2.65-2.3-.21-.54.71-1.94.71-2.12v-26.3Z"/>
  <path d="M64.09,194.19l.53.53c-.28.7.3,1.2.35,1.41.98,3.87,1.94,7.7,3.18,11.65s2.87,8.59,4.24,12.71c.15.46-.28.65.71.53l.35-1.59-.35-.35c.79-1.33.97-2.85,1.41-4.24,1.34-4.19,1.86-8.38,3.53-12.36l-.35-1.41c1.07-.91.51-2.43,1.77-3.53l-.35-1.06c.95-.65.65-1.91,1.59-2.65h7.06c.44,0,.63,1.13.53,1.59-.03.13-.67.91-.71,1.06-.67,2.46-1.07,4.97-1.77,7.41-.92,3.23-2.26,6.54-3.18,9.89-.62,2.27-1.15,4.45-1.77,6.71-.83,3.02-2.47,6.53-3.18,9.53-.07.31.08.76,0,1.06-.17.61-1.29,1.03-1.94.88-1.29-.3-.78-.14-1.77,0-.63.09-3.76.13-4.24,0-.25-.07-.89-1.02-1.24-1.24l.35-1.06c-.15-.23-.65-.53-.71-.71-1.8-6.11-3.4-11.9-6.36-17.65l.35-1.06c-2.03-4.48-3.68-9.11-4.59-13.77-.93-.32-.87-2.3-.18-2.3h6.71Z"/>
  <path d="M533.94,198.78c-.58-.19-.7.3-.88.35-.68.2-1.67-.29-1.59,1.06h-4.94c-.06-.5.1-1.13,0-1.59-.08-.39-1.02-1.29-1.06-1.41-.13-.45.16-.8-.53-1.24-.08-.05-.26.05-.35,0-.37-.21-1.33-1.04-1.41-1.06-.22-.06-.5.07-.71,0-.15-.05-.22-.33-.35-.35-.48-.09-2.38-.1-2.83,0-.13.03-.2.28-.35.35-.11.05-.28-.05-.35,0-.45.27-2.96,2.83-3.35,3.35-.28.37-.61,1.33-1.06,1.77l.35.71c-1.06,1.62-.88,3.03-1.06,4.94-.01.13-.34.23-.35.35-.16,2.11.12,4.13.35,6,.14,1.1-.4,2.12.71,2.82l-.35.35c.43,1.77,2.14,2.66,3.35,3.71,1.34-.2,3.37.27,4.59,0,.13-.03.2-.28.35-.35.11-.05.28.05.35,0,.36-.21.71-.86,1.06-1.06.17-.09.46.07.53,0s-.09-.36,0-.53c.4-.71,1.42-1.61,1.77-2.47.15-.37.22-1.34.35-1.77.07-.22.61-.56.35-1.24.68-.25,1.02.29,1.24.35,1.78.55,3.59.97,5.3,1.77.11.05.28-.05.35,0,.3.18.57.65.88.88-.77.44-.55.92-.71,1.41-.85,2.65-2.02,6.08-4.94,7.24v.71c-1.68-.43-1.77.53-2.65,1.06-.1.06-.53-.04-.71.35l-1.24-.35v.71h-6.89c-.13-.02-.21-.32-.35-.35-.45-.11-1.4-.21-1.77-.35-.53-.21-.98-.8-1.41-1.06-1.6-.96-4.29-2.16-4.41-4.24-1.23.05-1.49-1.68-1.77-2.65-.06-.2-.65-.51-.71-.71-.08-.3.08-.76,0-1.06-.06-.23-.64-1.18-.71-1.41-.43-1.61-.61-4.61-.35-6,.18-.98-.32-1.51-.35-1.77-.2-1.61.34-3.82.71-5.3s.79-3.39,1.41-4.94c.21-.53.8-.98,1.06-1.41.1-.17.26-.91.35-1.06.36-.54,2.07-2.19,2.65-2.65.52-.42,1.56-.92,2.12-1.41.75.11,1.59-.54,2.12-.71.99-.3,1.85-.21,2.83-.35.13-.02.23-.34.35-.35,3.78-.39,6.37.42,9.53,2.12,1.15,1.97,3.51,2.86,4.41,5.12.14.36.21,1.41.35,1.77.2.5,1.02,1.05.35,1.41l.35.53Z"/>
  <path d="M340.78,189.96c-.11.8.16,1.91,0,2.65-.03.13-.66.9-.71,1.06-.92,3.39-1.92,6.72-2.83,10.24-.64,2.5-1.87,5.22-2.47,7.77-.75,3.18-1.99,6.39-2.83,9.53-.27,1.02-1.2,2.84-1.41,3.88-.18.88.14,1.92-.88,2.65h-.71c-.15-.04-.22-.33-.35-.35-1.04-.19-6.3.23-6.53,0-.05-.51.08-1.1,0-1.59-.22-1.35-1.02-2.92-1.41-4.24-1.21-4.04-2.05-8.67-4.24-12.36l.35-.71c-1.96-5.34-3.44-10.85-5.3-16.24l-.35-1.94h6.53l.53.53c-.28.69.31,1.22.35,1.41,1.84,8.08,4.76,15.8,6.71,24.01l.71.88c-.26-.65.29-1.01.35-1.24,2.42-8.35,4.5-16.7,7.06-24.72.07-.22.02-1.24.53-1.24h6.89Z"/>
  <path d="M421.65,219.61h15.71l.88.88-.35,1.41c.04.14.32.22.35.35.12.53.08,2.57,0,3.18-.14,1.04-1.21,1.23-1.94.53h-21.72l.35-36.37h6.53l.53.53v28.6c0,.07-.55.35-.35.88Z"/>
  <path d="M394.1,220.32c.71-.06,1.51.24,1.94-.35h13.77l.53.53c.16,1.55-.22,3.45,0,4.94.02.11.63.62.35,1.24-.63-.06-1.33.08-1.94,0-3.33-.45-7.74-.65-11.3-.35-.61.05-1.68.61-2.83.35-2.15-.48-4.27.35-6.71,0-.11-.02-.62-.63-1.24-.35.11-.36.3-.4.35-.88.61-5.23-.16-12.15,0-17.65.07-2.57.59-5.61.35-8.47-.16-1.88-.18-3.8-.35-5.65-.11-1.19.08-2.5,0-3.71,1.32-.09,2.76.12,4.06,0,.13-.01.22-.34.35-.35.7-.09,2.46-.15,2.65.53v8.12c.37,1.64-.27,4.53,0,6.71.46,3.69.32,7.94,0,12-.09,1.1.06,2.25,0,3.35Z"/>
  <path d="M98,194.19c.59.16.63,1.41.53,1.94-.34,1.82-.46,3.61-.35,5.65.25,4.98.61,10.91.71,15.89.08,4.47-.06,8.95,0,13.42.11.3-.35.83-.53.88-.82.22-1.35-.43-2.12-.35-.7-.92-1.97-.07-2.47,0-.61.08-1.32-.06-1.94,0-.05-.51.08-1.1,0-1.59-.02-.13-.34-.22-.35-.35-.24-2.17.17-4.68,0-6.89-.08-.09-.66.68-1.06-.18l1.06-.53c-.06-1.1.09-2.25,0-3.35,0-.13-.35-.23-.35-.35-.16-2.45.67-5.98.35-7.77-.7-3.96.4-9.88-.35-14.12-.02-.1-.55-.36-.35-1.06.29-.19,1.11-1.24,1.24-1.24,1.39,0,4.98-.28,6,0Z"/>
  <path d="M373.97,226.68v-37.07h6.53l.53.53v36.72c0,.12-.55.63-.88.53-.2-.06-.51-.65-.71-.71-.7-.19-5.47.27-5.47,0Z"/>
  <path d="M621.87,184.31c1.27.16,2.01,1.32,1.77,2.65-.07.37-.52.77-.35,1.77.21,1.29.24,4.33,0,6-.32,2.21-.01,3.96-.35,6-.59,3.54.37,9.05-.35,13.42-.14.86-.21,1.51,0,2.47.2.88.14,2.45-1.06,2.3.28-.62-.34-1.12-.35-1.24-.08-.53-.07-1.58,0-2.12.29-2.28.85-5.2.35-7.41-.19-.84-.55-3.03-.35-4.24.04-.21.47-.23,0-1.06.57-.46.85-.81.71-1.59h-1.06c.06-1.22-.09-2.49,0-3.71.15-2.1.86-6.37.35-8.12-.17-.59.64-1.47.35-2.3l-1.06,1.24c-.16,1.12-.3,1.98-.35,3.18-.02.44.27,1.32-.35,1.24l-.71-2.65c.75-.61.12-2,.35-2.82.05-.19.65-.51.71-.71.18-.66-.34-1.66.35-2.12v-.35l-1.06-.53v-1.06h1.06l-.35-2.82h-.88l-1.24-.71c.61,0,1.93.17,2.12-.53.25-.91-.62-1.11-.71-1.41-.26-.96.31-1.75.35-2.12.18-1.45-.25-2.12,0-3.53.13-.72-.17-3.5,0-3.71l.71.53v2.82l.53.53.71-.35c.17.27.83.68.88.88.2.72.06,3.95,0,4.94-.07,1.22-.58,3.36-.71,4.59-.08.85.06,1.79,0,2.65Z"/>
  <path d="M607.75,224.73c-.04-.27.03-.59,0-.88h-1.41v-1.41c-.5.3-.97.49-1.59.35-.83-.19-1.16,0-1.59-.17-.68-.28-.53-.04-1.06.17-.01-.49-.13-.93.36-1.23.31-.2.5-.16.53-.18.18-.12.33-.38.53-.53-.85-.63-.15-1.29,0-1.76.2-.68-.97-1.77,0-2.48.13-.4-.48-1-.89-.88-.73.23-.41,1.19-.53,1.59-.11.39-1.45.99-1.94.88l-.88,1.24c.66.59.25,1.75.35,2.65-.97-.1-1.84-.04-1.77,1.06h-.7l-.53-1.06c-.36.73-2.4.12-2.65.35l.71,1.59c-.87.66.17,1.35,0,2.29,1.19.36.39-1.18,1.23-1.41.87-.24,1.34.35,1.42.35.11,0,.21-.33.35-.35.97-.16,2.05-.04,1.94,1.06h.53l.18.71-1.42.7,1.59.36,1.06-.36,1.06.36,3.18-2.83,1.77.71c.88-.64.21-.65.17-.89ZM597.16,224.56l-1.77-.36v-1.05l1.77.35v1.06ZM600.34,221.38v-.71h.53l.53.71h-1.06Z"/>
  <path d="M619.05,244.33c.74-.06,1.57.09,2.3,0,.13-.02.22-.33.35-.35.66-.12,1.51-.12,1.94.53l-3.35.18c-.6.66-1.75.25-2.65.35-.13-.13.1-2.1,0-2.65-.02-.1-.56-.37-.35-1.06.5-1.64.3-2.21,0-3.53-.14-.63-.09-1.54.53-1.94.44.42.03,1.42.18,1.94.1.35,1.72,1.96,1.77,2.12.1.37-.08.98,0,1.41.02.13.33.22.35.35.26,1.42-.34,1.65-1.06,2.65Z"/>
  <path d="M622.23,225.62l-.18,1.77c-.59,1.44.2,4.06-.18,5.47-.08.29-.68.64-1.06.53.06-.51-.23-.73-.35-1.24-.07-.3.06-.73,0-1.06-.02-.13-.33-.22-.35-.35-.28-1.54,1.06-2.33,1.06-3.88l1.06-1.24Z"/>
  <path d="M592.92,222.44c-.09.58.14,1.44,0,1.94-.02.09-.53.7-.71.35l-1.06-.18.35,1.24c-.55.79-.85,1.82-2.12,1.59l-.35-.88,1.06-.53-.35-1.24c-.08-.27.62-1.51.88-1.59.22-.06.49.06.71,0,.31-.09.7-1.08,1.59-.71Z"/>
  <path d="M540.3,246.45l-2.65.35c-.13.01-.23.34-.35.35-2.44.18-4.36-.21-6.71.35-.6.14-1.21.02-1.59-.53l3.35-.88c.78.65,1.62.21,2.47.35,1.6.27,3.79-.19,5.47,0Z"/>
  <path d="M550.19,246.45c-.08-.62.81-.34,1.24-.35.91-.02,2.43.17,3.18,0,.8-.18,2.16-.24,3.18-.35,1.11-.12,2.73-.06,3.88,0,.69.03.56-.05.53.71h-12.01Z"/>
  <path d="M7.06,248.57v1.77c-1.21-.35-1.36,1.08-2.47,1.06.66-.8.02-.96,0-1.77.43.12.97,0,.71-.53-.32-.65-1.12-.3-1.06-.88l1.59-.35,1.24.71Z"/>
  <path d="M541.01,246.8c-.07-.66.79-.27,1.24-.35.14-.02.24-.35.35-.35s.21.31.35.35c.23.07,4.05-.54,4.59-.71.63-.2,1.21.59,1.94.35l-.88.71h-7.59Z"/>
  <path d="M572.79,242.92h1.06c-.07.61.1,1.36,0,1.94-.02.14-.55.32-.35.88h-1.41v-3l.71-.53v.71Z"/>
  <path d="M622.23,245.74c-.11.93.16,2.12,0,3-.02.14-.55.32-.35.88h-1.41l.35-1.94c.15-.23.66-.53.71-.71.18-.61-.47-1.47.71-1.24Z"/>
  <path d="M615.52,242.21c.1-.9-.05-1.57-.35-2.3l.71-.88.35,1.59c1.19.86.73,1.71-.71,1.59Z"/>
  <path d="M590.45,242.57c-.55.09-.69-.27-1.24-.35-.74-.11-1.85.47-1.59-.71.68-.01,1.17-.57,1.94-.35.24.07,1.17,1.16.88,1.41Z"/>
  <path d="M518.76,245.39c-.1.62.54.92.35,1.59-.11.38-.81.65-1.24.53l-.18-1.59,1.06-.53Z"/>
  <polygon points="200.23 254.22 198.64 254.22 198.11 253.16 199.35 252.8 200.23 254.22"/>
  <path d="M203.41,253.86c-.08-.62.81-.34,1.24-.35.97-.02,2.3.15,3.18,0,.14-.02.24-.35.35-.35l.88.71h-5.65Z"/>
  <path d="M608.46,223.85v-1.41c.18-.18,1.77.61,1.77.88-.45.67-1.01.56-1.77.53Z"/>
  <path d="M576.67,192.07c.29-.29,1.56.7,1.41,1.24l-.53.53-.88-.53v-1.24Z"/>
  <polygon points="24.37 138.41 24.01 139.82 22.95 139.82 22.95 138.41 24.37 138.41"/>
  <path d="M215.41,174.07c-.07-.69.81-.24,1.24-.35.6-.16.58-1.23.53-1.77,1.1.43.86,1.32,0,1.94l-1.77.18Z"/>
  <polygon points="136.66 82.62 135.6 82.62 135.25 81.74 135.78 81.21 137.02 81.74 136.66 82.62"/>
  <path d="M71.33,186.78v1.06c-.97.1-1.84.04-1.77-1.06h1.77Z"/>
  <path d="M574.91,186.07c-1.15.04-1.48-1.07-.53-1.77.67.45.56,1.01.53,1.77Z"/>
  <rect x="211.97" y="199.58" width="1.23" height="1.23" transform="translate(-44.55 338.58) rotate(-71.57)"/>
  <path d="M295.58,122.52c-.02.85.9,1.48.71,2.47l-1.41-2.3.71-.18Z"/>
  <path d="M2.83,220.67c0,.53,0,1.06,0,1.59,0,.42.26,1.32-.35,1.24l-.35-2.3.71-.53Z"/>
  <path d="M504.99,220.32c-.01,1.4-1.4,1.4-1.41,0h1.41Z"/>
  <polygon points="405.75 213.26 405.75 214.32 404.34 213.97 404.34 213.26 405.75 213.26"/>
  <polygon points="181.16 253.51 179.92 254.22 177.98 254.22 181.16 253.51"/>
  <path d="M605.28,245.39c-.71-.05-1.18-.05-1.77.35-.14-.67.46-.94.88-1.41l.88,1.06Z"/>
  <polygon points="200.94 2.47 200.23 2.47 199.88 1.59 200.41 1.06 201.29 1.59 200.94 2.47"/>
  <rect x="114.06" y="255.28" width="3.18" height=".35"/>
  <polygon points="1.06 189.25 1.06 188.37 1.59 187.84 2.12 188.72 1.06 189.25"/>
  <path d="M195.99,1.06c.24-.89,1.16-.6,1.77-1.06.07,1.1-.8,1.16-1.77,1.06Z"/>
  <polygon points="604.22 243.98 603.51 243.98 603.51 242.21 604.22 242.74 604.22 243.98"/>
  <path d="M598.21,244.33c.29.29-.59,1.33-1.06,1.41v-.88c.33-.37.53-.64,1.06-.53Z"/>
  <path d="M319.59,3.88h-1.06v-1.06c.67-.1,1.16.39,1.06,1.06Z"/>
  <path d="M619.76,194.55v1.77h-.35c.04-.66-.54-1-.35-1.77h.71Z"/>
  <polygon points="2.47 216.08 2.12 214.85 2.12 213.61 2.47 216.08"/>
  <polygon points="620.82 235.5 620.82 236.56 620.64 236.56 619.4 235.15 620.82 235.5"/>
  <path d="M584.8,246.45v.35c-.87-.19-1.39.28-2.12.35v-.71h2.12Z"/>
  <rect x="299.11" y="163.83" width="1.41" height=".71"/>
  <path d="M383.51,192.78c.1.67-.39,1.16-1.06,1.06v-1.06h1.06Z"/>
  <path d="M216.83,251.04v.35c-.97.1-1.84.04-1.77-1.06.67.35.87.93,1.77.71Z"/>
  <path d="M598.57,221.73h-.71v-1.41c.71.19.79.75.71,1.41Z"/>
  <path d="M131.37,254.92v.71h-1.41c.19-.71.75-.79,1.41-.71Z"/>
  <path d="M174.45,253.16c.06-.3.84-1.68,1.06-1.41v.88c-.33.37-.53.64-1.06.53Z"/>
  <rect x="613.36" y="252.84" width="2.14" height=".54" transform="translate(234.08 798.02) rotate(-77.47)"/>
  <polygon points="19.78 248.57 18.89 249.63 18.36 249.1 18.89 248.57 19.78 248.57"/>
  <path d="M385.98,212.2c.1.67-.39,1.16-1.06,1.06-.1-.67.39-1.16,1.06-1.06Z"/>
  <path d="M165.27,254.57v.35c-.66-.04-1,.54-1.77.35l.53-.71h1.24Z"/>
  <rect x="236.6" y="252.8" width="2.12" height=".35"/>
  <path d="M264.15,130.64c-.49,1.42-2.13.1-2.47-.71l1.24.71h1.24Z"/>
  <rect x="193.17" y="253.86" width="2.12" height=".35"/>
  <rect x="149.02" y="254.92" width="1.77" height=".35"/>
  <polygon points="228.13 249.27 228.13 249.98 227.6 249.98 227.07 249.45 227.07 249.27 228.13 249.27"/>
  <path d="M339.36,156.06l-1.06,1.06c-.1-.67.39-1.16,1.06-1.06Z"/>
  <polygon points="2.12 197.02 1.41 197.02 1.41 195.96 2.12 196.49 2.12 197.02"/>
  <rect x="498.98" y="22.6" width="1.77" height=".35"/>
  <polygon points="499.34 8.12 499.34 8.65 498.63 9.18 498.63 8.12 499.34 8.12"/>
  <rect x="119.36" y="255.28" width="1.77" height=".35"/>
  <polygon points="417.76 239.03 417.76 239.74 417.23 239.74 416.7 239.21 416.7 239.03 417.76 239.03"/>
  <polygon points="26.13 242.21 25.07 242.21 25.07 241.51 25.6 241.51 26.13 242.21"/>
  <polygon points="7.77 191.02 6.89 192.43 6.71 192.25 7.06 191.02 7.77 191.02"/>
  <rect x="299.46" y="251.75" width="1.41" height=".35"/>
  <polygon points="602.81 246.1 601.75 246.1 601.75 245.92 602.28 245.39 602.81 246.1"/>
  <circle cx="496.17" cy="4.58" r=".44"/>
  <circle cx="614.11" cy="241.5" r=".44"/>
  <polygon points="498.28 6 497.22 6 497.22 5.83 497.75 5.3 498.28 6"/>
  <path d="M289.22,246.45c.17.14-.62.93-1.06.71-.17-.14.62-.93,1.06-.71Z"/>
  <circle cx="4.95" cy="228.43" r=".44"/>
  <circle cx="588.33" cy="225.26" r=".44"/>
  <polygon points="143.73 33.19 142.67 33.19 142.67 33.01 143.2 32.48 143.73 33.19"/>
  <polygon points="5.65 170.54 4.59 170.54 4.59 170.36 5.12 169.83 5.65 170.54"/>
  <circle cx="155.39" cy="217.49" r=".44"/>
  <rect x="253.91" y="94.63" width=".35" height="1.41"/>
  <path d="M4.94,173.01v.35c-.53-.15-.64.24-1.06.35v-.71h1.06Z"/>
  <polygon points="389.16 248.92 388.63 249.63 388.1 249.1 388.1 248.92 389.16 248.92"/>
  <circle cx="174.81" cy="254.21" r=".44"/>
  <path d="M619.4,185.01c-.44.23-1.23-.57-1.06-.71.44-.23,1.23.57,1.06.71Z"/>
  <rect x="200.58" y="253.51" width="1.41" height=".35"/>
  <rect x="276.86" y="80.86" width=".35" height="1.41"/>
  <circle cx="2.13" cy="212.19" r=".44"/>
  <polygon points="597.86 211.14 597.86 210.08 598.04 210.08 598.57 210.61 597.86 211.14"/>
  <rect x="217.18" y="251.39" width="1.41" height=".35"/>
  <path d="M179.04,252.1c.17.14-.62.93-1.06.71-.17-.14.62-.93,1.06-.71Z"/>
  <polygon points="208.35 248.92 208.35 249.63 208.17 249.63 207.64 248.92 208.35 248.92"/>
  <rect x="152.91" y="254.92" width="1.06" height=".35"/>
  <polygon points="596.1 246.45 595.39 246.45 595.39 246.27 596.1 245.74 596.1 246.45"/>
  <polygon points="3.88 237.62 3.18 237.62 3.18 236.92 3.88 237.62"/>
  <polygon points="203.41 252.1 202.7 252.8 202.7 252.1 203.41 252.1"/>
  <rect x="223.89" y="252.8" width="1.06" height=".35"/>
  <polygon points="587.27 223.5 587.27 224.21 587.09 224.21 586.56 223.5 587.27 223.5"/>
  <polygon points="483.09 222.79 483.09 223.5 482.92 223.5 482.39 222.79 483.09 222.79"/>
  <rect x="317.12" y="250.33" width=".35" height="1.06"/>
  <polygon points="197.76 250.69 197.05 250.69 197.05 250.51 197.76 249.98 197.76 250.69"/>
  <rect x="495.1" y="247.51" width="1.06" height=".35"/>
  <polygon points="182.57 33.54 181.87 33.54 181.87 32.84 182.57 33.54"/>
  <rect x="226.36" y="253.16" width="1.06" height=".35"/>
  <rect x="354.9" y="248.57" width="1.06" height=".35"/>
  <polygon points="173.74 248.92 173.04 249.63 173.04 248.92 173.74 248.92"/>
  <rect x="418.47" y="177.25" width="1.06" height=".35"/>
  <rect x="604.92" y="174.07" width=".71" height=".35"/>
  <rect x="209.76" y="248.92" width=".71" height=".35"/>
  <rect x="229.19" y="252.45" width=".71" height=".35"/>
  <rect x="186.46" y="253.86" width=".71" height=".35"/>
  <polygon points="1.41 187.48 1.41 187.13 2.3 186.78 2.47 186.96 1.41 187.48"/>
  <rect x="312.88" y="247.86" width=".71" height=".35"/>
  <rect x="236.6" y="249.63" width=".71" height=".35"/>
  <rect x="499.69" y="247.51" width=".71" height=".35"/>
  <rect x="1.77" y="208.32" width=".35" height=".71"/>
  <rect x="1.77" y="200.9" width=".35" height=".71"/>
  <rect x="512.05" y="247.16" width=".71" height=".35"/>
  <rect x="585.5" y="246.8" width=".71" height=".35"/>
  <rect x="293.81" y="117.93" width=".71" height=".35"/>
  <rect x="596.1" y="145.82" width=".35" height=".71"/>
  <rect x="108.77" y="145.82" width=".35" height=".71"/>
  <rect x="611.28" y="245.74" width=".71" height=".35"/>
  <rect y="144.76" width=".35" height=".71"/>
  <rect x="224.6" y="240.8" width=".35" height=".71"/>
  <rect x="502.16" y="4.24" width=".35" height=".71"/>
  <rect x="602.81" y="243.62" width=".35" height=".71"/>
  <rect x="180.81" y="252.45" width=".71" height=".35"/>
  <rect x="580.18" y="244.56" width=".75" height=".25" transform="translate(-2.96 482.23) rotate(-45)"/>
  <path d="M594.15,245.74c.23,0,.23.35,0,.35s-.23-.35,0-.35Z"/>
  <path d="M3.71,239.39c.23,0,.23.35,0,.35s-.23-.35,0-.35Z"/>
  <path d="M616.93,230.91h-1.06v-2.82h.71c.21-.81-.6-1.22,0-1.59-1.33-1.81-1.65-.37-2.3-.18s-1.08-.53-1.77-.35c-.36-.29-.47-.41-.53-.88-.38-2.79,1.76-2.33,3.88-2.3.06-.62-.09-1.34,0-1.94.02-.14.56-.53.35-1.41-.44-1.88.15-1.04.35-1.77.21-.77.09-1.33.71-2.12-.7-.64-.2-1.9-.35-2.82-.19-1.17-.25-1.8,0-3.18.19-1.06-.39-1.7-.35-2.65,1.56.11.36-1.4-.71-1.06-.19-.19.94-1.79,0-2.3v-.35c.83-.97,2.01-1.41,1.77-2.82-.04-.23-.68-.25,0-.71-.22-.56-1.01-.48-1.06-.53-.04-.04.1-.7-.35-.88v-.35l1.06-.53c-.07-.73.26-1.81,1.06-2.12-.21.8.6,1.22,0,1.59l.35,1.06c-.86.91-.17,3.6-.35,4.24-.32,1.12.58,1.33.35,2.12-.12.43-1.05.6-.71,2.12.32,1.44.45,9.31,0,12-.19,1.15-.26,3.12,0,4.59.39,2.2-.56,4.71-.71,6.71-.08,1.14.22,2.94,0,3.88-.04.19-.87.82-.53.18l-.53-1.24c.57-.46.85-.81.71-1.59Z"/>
  <path d="M595.21,226.68c.23,0,.23.35,0,.35s-.23-.35,0-.35Z"/>
  <path d="M588.86,223.15c.23,0,.23.35,0,.35s-.23-.35,0-.35Z"/>
  <path d="M14.66,247.51c.23,0,.23.35,0,.35s-.23-.35,0-.35Z"/>
  <path d="M15.71,247.51c.23,0,.23.35,0,.35s-.23-.35,0-.35Z"/>
  <path d="M487.51,247.86c.23,0,.23.35,0,.35s-.23-.35,0-.35Z"/>
  <path d="M491.74,247.86c.23,0,.23.35,0,.35s-.23-.35,0-.35Z"/>
  <path d="M573.32,218.2c.23,0,.23.35,0,.35s-.23-.35,0-.35Z"/>
  <path d="M348.37,249.98c.23,0,.23.35,0,.35s-.23-.35,0-.35Z"/>
  <path d="M198.99,250.33c.23,0,.23.35,0,.35s-.23-.35,0-.35Z"/>
  <path d="M235.01,250.69c.23,0,.23.35,0,.35s-.23-.35,0-.35Z"/>
  <path d="M318.35,250.69c.23,0,.23.35,0,.35s-.23-.35,0-.35Z"/>
  <path d="M172.51,251.39c.23,0,.23.35,0,.35s-.23-.35,0-.35Z"/>
  <path d="M5.47,202.31c.23,0,.23.35,0,.35s-.23-.35,0-.35Z"/>
  <path d="M217.36,201.25c.23,0,.23.35,0,.35s-.23-.35,0-.35Z"/>
  <path d="M301.76,251.75c.23,0,.23.35,0,.35s-.23-.35,0-.35Z"/>
  <path d="M5.83,199.49c.23,0,.23.35,0,.35s-.23-.35,0-.35Z"/>
  <path d="M509.75,56.49c.23,0,.23.35,0,.35s-.23-.35,0-.35Z"/>
  <path d="M221.95,252.1c.23,0,.23.35,0,.35s-.23-.35,0-.35Z"/>
  <rect x="191.38" y="252.68" width=".75" height=".25" transform="translate(-122.6 209.66) rotate(-45)"/>
  <path d="M220.53,252.45c.23,0,.23.35,0,.35s-.23-.35,0-.35Z"/>
  <path d="M236.07,252.45c.23,0,.23.35,0,.35s-.23-.35,0-.35Z"/>
  <path d="M40.43,252.8c.23,0,.23.35,0,.35s-.23-.35,0-.35Z"/>
  <path d="M182.04,253.51c.23,0,.23.35,0,.35s-.23-.35,0-.35Z"/>
  <path d="M5.12,179.36c.23,0,.23.35,0,.35s-.23-.35,0-.35Z"/>
  <path d="M256.2,126.05c.23,0,.23.35,0,.35s-.23-.35,0-.35Z"/>
  <path d="M346.25,127.81c.23,0,.23.35,0,.35s-.23-.35,0-.35Z"/>
  <path d="M295.05,141.23c.23,0,.23.35,0,.35s-.23-.35,0-.35Z"/>
  <path d="M303.17,85.45c.23,0,.23.35,0,.35s-.23-.35,0-.35Z"/>
  <path d="M106.65,216.79l-.35-1.06-1.06.71c.04-.54-.22-1.18.35-1.59.47-.34.89.09.71-.88.58-.09.34.48.35.88.02.65-.01,1.3,0,1.94Z"/>
  <rect x="106.65" y="217.14" width=".35" height=".71"/>
  <rect x="106.65" y="205.14" width=".35" height=".71"/>
  <path d="M483.44,206.55l-2.47-.35.35-3.53.71.88c.39.5.53,1.4.71,1.77.11.23.81,1.15.71,1.24Z"/>
  <polygon points="597.15 223.5 597.15 224.56 595.39 224.21 595.39 223.15 597.15 223.5"/>
  <polygon points="601.39 221.38 600.33 221.38 600.33 220.67 600.86 220.67 601.39 221.38"/>
  <polygon points="127.13 216.79 126.6 217.5 126.07 216.97 126.07 216.79 127.13 216.79"/>
  <path d="M181.52,220.32c.1.67-.39,1.16-1.06,1.06-.1-.67.38-1.16,1.06-1.06Z"/>
  <rect x="178.69" y="156.06" width=".71" height=".35"/>
</svg>