<?xml version="1.0" encoding="UTF-8"?>
<svg id="Layer_1" xmlns="http://www.w3.org/2000/svg" version="1.1" viewBox="0 0 796.8 315">
  <!-- Generator: Adobe Illustrator 29.3.1, SVG Export Plug-In . SVG Version: 2.1.0 Build 151)  -->
  <g id="Shape_66">
    <path d="M138.1,125.3c0,.3-.3.5-.3.8,0,.5.1,1.1.2,1.6.4-.3,1-.4,1.3-.8.5-.5.9-1.2,1.4-1.8.7-.8.6-1.5,0-2.3-.6-.9-.5-1.8.3-2.5.6-.6,1.2-1.3,2-1.7,1-.5,1.6-.9,1.5-2.1,0-.4.3-.8.6-1.2.8-1.2,1.7-2.3,2.5-3.5.9-1.4,1.6-3,2.8-4,1-.9.4-2.1,1.3-2.9.8-.7,1.8-1.4,1.5-2.8,0-.2.5-.6.7-.9.6-.6.9-1.1.3-2-.5-.7-.1-1.2.7-1.5.9-.3,1.7-.8.6-2-.4-.5-.5-1.2.3-1.8,2.5-2,2.5-2.4,1.2-5.2-.2-.5-.5-1.1-.7-1.6,0-.2,0-.4-.1-.7.2.1.5.2.7.4,1,1.3,1,1.3,2.3.4.3-.2.7-.3,1-.5.4-.3.7-.6,1.1-1-.4-.4-.8-1-1.3-1.2-.4-.1-.9.4-1.4.5-.4,0,.3,1.3-.7.6-.6-.5-.5-.9,0-1.3.4-.3.9-.5,1.3-.9.8-.6,1.3-1.3,1.1-2.4-.2-1,.2-1.9.7-2.8.8-1.4,1.6-2.8,2.4-4.3.2-.3.4-.9.2-1.1-1.2-1.5.5-2.6.5-4,1.8-1,.9-2.7.3-3.7-.6-1,0-1.6.2-2,.5-.9,1.6-1.4,2.1-2.2.6-1.2,1.1-2.5,1.2-3.8,0-1.9.1-3.7,1.6-5.1.2-.2.4-.4.4-.6-.3-1.4.5-2.5,1-3.7.5-1.2,1.3-2.3,1-3.7,0,0,.3-.3.5-.3.2,0,.4.2.5.4,0,.3,0,.6,0,1,0,.3.3.6.4.9.1-.4.5-.9.3-1.1-.6-1.2-.2-1.9.9-2.5.3-.2.5-.8.8-1.1.7-.7,1.5-1.3,2.3-1.9.8-.6,1.6-.9,1.7-2.2,0-.7,1.3-1.3,2-2,1.5-1.4,3.1-2.8,4.6-4.3.2-.1.2-.4.3-.6,1.3-1.6,2.7-2.9,5-2.4,1,.2,1.9-.2,2.8-.7,1.5-.8,3-1.4,4.8-1.2.4,0,.7.2,1.1.3,1.1.5,1.3,1.2.6,2.2-.3.4-.8.8-1.1,1.2-.2.2-.3.5-.4.8.2.1.5.3.7.4.4,0,.9,0,1.1.2,1.1,1.4,2.7,2,4,3.1,1.1.9,2,2,3.5,2.6,1,.4,1.8,1.4,2.7,2.2.6.6,1.3,1.2,1.8,1.8.2.3.5.6.5,1,0,1,.2,1.6,1.4,1.7.4,0,.9.7,1,1,0,.9.2,1.6,1.3,1.9.9.2.5.9.2,1.4-1,1.9-.2,3.9,0,5.8,0,.1.3.3.5.3.2,0,.4-.3.4-.4,0-1.1,0-2.2.8-3,.1-.1.3-.2.5-.3,0,.1.2.3.1.4-1.1,2.4.3,5.2-1.2,7.7-.5.9-.8,2.3.8,2.9.1,0,.2.6.2.9-.2.6-.6,1.2-.7,1.9,0,.5.3,1,.5,1.4.3-.3.6-.5.8-.8.2-.2.3-.5.5-.7.5-.4.8-.4.9.3.1.7.4,1.3-.6,1.8-1.7.8-1.7.9-.5,2.1.7.7.9,1.5,1.1,2.4.6,2.2-.3,4.4,0,6.6,0,.5-.2,1.2,0,1.4,1.5,1.4,1.2,3.1.9,4.8,0,.1,0,.3.1.4.2,0,.3-.2.5-.3.8-.3.7-2.1,1.9-1.5,1.1.6-.4,1.5-.2,2.2.2.6.4,1.1.8,1.6.8,1.1.9,1.7.1,2.6-1.1,1.4-1,2.2.7,2.5,1.5.3.7,1.2.8,1.8,0,.8-.5,1.2-1.4,1.2-1.3-.1-2.5.2-3.3,1.2-.2.2-.8.3-.2.9.4.4.6.1.9,0,2.1-1.3,2.9-1.2,4.3.9.3.4.6.9.8,1.3.8,1.7,1.5,3.5,2.4,5.2.3.6.9,1,1.5,1.5,1.1,1,1.1,1.2,0,2.2-1.5,1.3-1.5,1.3.2,2.3.6.4,1.4.9,1.5,1.5.3,2.2,2,2.8,3.6,2.7,1.4,0,2.1,1.2,3.2,1,1.4-.2,1.9.8,2.8,1.5.4.3,1,.5,1.5.4,2.6-.3,4.9.8,7.3,1.6,1.6.6,1.8.5,2-1,.1-1,.4-1.9.4-2.9,0-.6.5-1.5-.8-1.6,0,0-.2-.9,0-1.2.3-.5.9-.9,1.3-1.4.2-.2.5-.7.4-.8-1.1-1.6,0-2.1,1.2-2.8.8-.4.7-1.6,0-2.4-1.4-1.6-1.5-2.2-.7-4.1.3-.7.4-1.5.5-2.2,0-.4,0-1,0-1.1,1.6-.9.6-2.5,1.1-3.7.5-1.1.6-2.4-.2-3.6,0-.1.1-.6.3-.8,1.1-1.2.7-2.4.1-3.6-.4-.8-.9-1.6,0-2.5.3-.3.2-1.4,0-2-.3-.8-.5-1.5-.1-2.5.8-2.1,1-4.2-.3-6.2-.2-.3-.2-.8-.2-1.1,0-1.2-.6-1.9-1.7-2.1-1.1-.2-.8-.6-.8-1.5,0-1.8-.3-3.7-.4-5.6,0-.5-.2-1.2,0-1.4,2.7-1.9.1-3.3-.5-4.7-.6-1.3-.8-1.3.7-1.3,1.2,0,2.2,0,1.2-1.7,0-.2.5-.8.9-1.1.9-.8,2-1.4,2.9-2.2,2.4-2,4.6-4.2,7.1-6,.9-.7,2.3-.8,3.4-.9,2-.1,4,0,6,0,.2,0,.5.2.7.4-.3.2-.5.4-.8.6-.4.2-.8.3-1.1.4.3.3.5.8.9,1,1.1.4,2.3.9,3.4.9,3.2,0,5,2.1,7,4,.2.2.2.7.2,1.1,0,1,.1,1.7,1.4,1.8.4,0,.9.4,1,.8.1.4.4,1.2-.7,1.1-.6,0-1.1,0-1.7,0-1,0-1.5.3-1.5,1.4,0,.9.3,1.6,1.3,1.5,1.1-.1,2.6.8,3.1-1.2,0-.2,1.1-.2,1.7,0,.3,0,.7.4.2,1-.9,1.1-1.5,2.4-2.2,3.6-.1.3,0,.8.2,1.1.3,0,.6-.2.8-.3.3,0,.7-.2,1-.3,0,.3,0,.6.1.9,0,.4-.8.6,0,1.1,1.1.8.6,2,.4,3.1-.3,1.4-.2,2.2,1.1,3,.9.5,1.2,1,.7,2-.5,1.1-.5,2.4-1.1,3.6-.4.8.2,2.2.4,3.3.1.7.4,1.5.4,2.2,0,.4-.4.8-.6,1.2-.1-.3-.2-.7-.4-1-.2-.4-.5-.8-.8-1.1-.5.4-.9.7-.3,1.5.5.6.5,1.6.6,2.4,0,.8.3,1.5-.9,2.1-.9.5-1.3,1.8-1.9,2.7,0,0,.2.4.3.5.1,0,.3.1.5,0,.8-.2,1.5-.4,2.3-.6.3,1.2-1,1.4-1.4,2.2-.6.8-1.3,1.6-1.8,2.4-.2.3-.4.7-.4,1,.1,2.8-1.6,4.8-3.2,6.8-.5.7-1.1,1.2-.3,2,.7.8,1.4.4,2-.2.3-.3.8-.7,1-.6.6.3.7,1,.4,1.6-.8,1.4-1.5,2.6-3.5,2.5-1.7-.1-2,.7-1.1,2.1,1.2,2,1.2,2.5-.2,4.4-.1.2-.3.4-.3.6,0,1.4-.8,1.5-1.9,1.4-.3,0-.7-.1-.9,0-.2.1-.5.5-.5.8,0,.2.3.6.4.6.5,0,1,0,1.4,0,1.3,0,1.5.6,1.4,1.8-.2,1.2,0,2.4,0,3.6,0,.6.1,1.2.1,1.9,0,1.1,0,2.2,0,3.4,0,.3.4.6.7.9.1-.3.2-.6.4-.7.4-.4,1.2-1.2,1.4-1.1.7.4,1.7.4,1.9,1.7.2,1.5,1.7,1.8,2.9,2.1.8.1,1.6,0,2.4,0,.7,0,1.2,0,1.6.8.5,1.1,2.3.8,3.1-.2.2-.2.5-.4.7-.6.3.4.7.4.3,1.2-.6,1.1,0,1.5,1.2,1.6.4,0,.8,0,1.1.3,1.6,1.4,3.5,2,5.4,2.6,1.2.4,1.8,1.6,2.5,2.5.6.8.8,1.8,1.9,2.3.1,0,.2.7,0,.9-.7,1.2-1.5,2.3-1.2,3.8,0,.2-.3.5-.5.7-.7.7-.6,1.3,0,2,.3.3.5,1.1.3,1.4-.9,1.3-1.9,2.6-2.8,3.9,0,.1-.3.2-.3.3-.3.7-.6,1.4-.9,2.1-.5-.6-.9-1.3-1.4-1.8-.2-.2-.6,0-.9,0-1.2,0-2.3,0-2.2-1.6,0-.2-.8-.7-1.3-.7-1,0-.6.8-.6,1.2,0,1.2-.5,1.5-1.7,1.7-2.2.4-4.4-.4-6.6,0-1.2-1.3-2.7-.9-4.2-1-.5,0-1.3-.3-1.4-.6-.6-1.5-1.4-1.6-2.7-1-.2,0-.8-.4-1-.7-.5-.8-.8-1.6-1.7-.4,0,0-.5,0-.5,0,.1-1.1-.7-1.9-1.4-1.9-1,0-1.9.6-2.9,1-.3.1-.4.5-.7.7-.8.5-2.1-.4-1.7-1,.8-1.2-.2-.8-.5-.7-.7.3-1.7.6-1.9,1.1-.4,1.3-1.3.8-1.8.6-.4-.1-.6-1-.6-1.6,0-.8.3-1.6.4-2.4,0-.7-.4-1-.8-.5-1,1.2-2.4.5-3.5.8-1.2.3-.8-1-1.4-1.2.2-.4.4-.8.7-1.1.5-.6,1.2-1.1,1.7-1.7,0-.1,0-.4,0-.7-.2,0-.4.1-.5.2-.5.3-1,.6-1.5,1-.6.5-1.3.8-1.9,1.1-1.8,1-3.2,1.1-4.6-.7-.3-.4-1-1.2-2.2-.6-.4.2-1.7-.7-2.4-1.3-.6-.4-1.1-.7-1.6-.2-.6.5-1.3,1.1-1.4,1.8-.3,1,.6,1.5,1.4,1.8.4.1.9-.1,1.2,0,.4.3,1.1.6.4,1.5-1.1,1.5-2,3.2-2.9,4.8-.2.5-.8,1.5.8.9,1.1-.4,2.5.7,2.7,1.9,0,.1-.3.4-.4.4-.9.1-1.9.1-2.8.3-.3,0-1.4.1-.5,1.1.1.1,1,.8,0,1.2-.5.3-1.1.6-1.6.7-.4,0-.8-.4-1.2-.4-1.7.1-3,0-3.5-2.1-.2-.8-1.4-.7-2.2-.2-.5.3-.6,1.2-1.5.7-1-.5-2.3-.3-3-1.5-.2-.4-.6-1.2-.9-1.1-1.6.1-2.1-.6-2-2.1,0-.3-.2-.8-.4-1-1.9-1.2-2.1-3.6-3.4-5.2-.2-.3-.4-.7-.7-.9-1-.5-1.4-1.2-1.2-2.4.2-.8-.3-1.2-1.1-1.5-2.3-.8-4-2.5-5.7-4.1-1.4-1.4-2.9-2.3-4.6-3.3-1.7-1-3.3-1.2-5.1-1.2-1,0-2.1,0-3.1,0s-1,.2-1.2,0c-1.4-1.5-3.3-.7-4.9-.9-.4,0-.9,0-1.1.1-1.1,1.4-2.9,1.1-4,.7-2.4-1-4.9-.8-7.3-.9-1.2,0-2.9.5-2.8-1.7-.3,0-.8,0-.9.2-.5.7-.9,1.6-1.5,2.3-1,1.1-1.2,1.1-1.9-.3-.1-.3-.3-.5-.5-.8-.2-.5.5-1.4-.5-1.5-.3,0-.6.8-.9,1.1-.4.4-.7.9-1.2,1.1-.5.2-1.3.4-1.3-.7,0-.3-.3-.8-.5-.9-.4-.2-.8,0-1.3,0,0,.4,0,.9.3,1.2.1.2.6.2.8.4.8.8.8,1.7-.2,2.3-.7.5-1.6.9-2.3,1.4-1.7,1.1-1.9,3.1-2.8,4.6-.6,1.1-1.2,1.9-2.2,2.1-1.3.4-2.1,1.1-2.8,2.2-.3.4-.9.8-1.4.9-1.6.3-3.2.4-4.8.5-1.2,0-2.2,0-3.3.9-.8.7-2,.9-3.2.1-.4-.3-.6-.4-.7-.9-.4-2.1-1.8-2.6-3.7-1.5-.7.4-1.5.6-2.3.9-1.5.5-1.5,1.1-1.5,2.5,0,2.4,2,3,3.3,4.1.8.7,1.3,1.4,1.7,2.2.1.3,0,.8.2.8,2.3.7.6,1.8.2,2.7-.1.3-.4.5-.5.8,0,.2,0,.5,0,.7.2,0,.5-.2.7-.3,1.2-.6,2.4-1.2,3.6-1.7.3-.1.8.1,1.1.2-.1.3-.1.6-.3.8-.7.9-1.4,1.7-2,2.5-.2.2-.2.8-.2.8,1.2.5,1.2,1.7,1.7,2.6.5,1,1.4,1.8,2.2,2.7.2.2.4.3.5.5.3.6,1,1.1.6,2-.5-.3-1.1-.5-1.5-.9-.8-.7-1.6-.9-2.5-.4-.8.5-.8,1.4-.5,2.1.2.4,1,.7,1.6.7.9,0,1.8-.3,2.7-.4.8,0,1.4.3,1.4,1.2,0,1.2.2,2.3,1,3.2,0,0,0,.1,0,.2.4,1.9,1.2,3.1,3.4,2.6,0,.2.2.4,0,.5-.7.9-.6,2-.6,3.1,0,.2,0,.5,0,.7-.2.6-.4,1.3-.7,1.9.7.2,1.3.4,2,.5,1.4.2,2.1,1.1,2.5,2.3.1.3,0,.8,0,.9-.3.2-.8.3-1.1.2-1-.4-1.9-.9-2.8-1.3-.5-.2-1.1,0-1.6,0,0,.5,0,1,.2,1.5.3,1.2,0,2.2-.6,3.3-.1.2-.1.5-.1.8.4,0,.8.2,1.1,0,.4-.2.7-.6,1-1,.4-.4.8-1.2,1.3-1.3,1.4-.2,2.8-.3,4,.6,1.1.8.4,2.1.5,3.1,0,.2-.8.4-1.2.6-.4.2-.9.2-1.3.4-.8.5-1.5,1.1-2.2,1.6.6,0,1.3.2,1.9.3.5.1,1,.4,1.5.4.5,0,1.1.4,1.4-.7.3-1,1.4-1.1,2.4-.4.3.2.4.5.7.6.5.3,1.1.5,1.6.7-.5.2-1.3.4-1.5.8-.7,1.4-2.9.8-3.3,2.6,0,0-.7.1-.9,0-.6-.4-.9-1.2-1.9-1.2-2.1,0-2.2,0-1.3,1.8.4.7.2.9-.2,1.4-1.2,1.3-1.3,2.7-.4,4.2.2.4.8.6,1.3.8.1,0,.3,0,.4,0,0-.2,0-.4-.2-.5-1.4-2.3.6-5.6,3.4-5.7,1.3,0,2.4-.1,3.5-.9.8-.6,2.2,0,2,.9-.5,2.4,1.5,3.3,2.6,4.7.3.3.8.6,1.2.6,1.1,0,1.5.8,2.1,1.3.3.3.3.8.4,1.3-.4,0-.8-.2-1.1,0-.5.3-1.4,0-1.3,1.1,0,.6,0,1.1.9,1.3.6.1,2.2-.2,2,1.5.2,0,.4,0,.6,0,1-.3,1.5,0,1.3,1.1-.2,1,.1,1.9-.4,3-.7,1.4,0,2.6,1.4,3.4.4.2,1.2.2.9,1-.1.3-.6.6-.9.8-1.4.8-2.7.9-4-.5-.4-.5-1.2-.6-1.8-.9.4-.6.9-1.1,1.1-1.7.1-.7-.1-1.5-.2-2.3-.2.1-.6.2-.7.4,0,2.7-1.5,2.5-3.6,2-.8-.2-2.3.4-2.7,1.1-.4.8-.3,2.4.2,3.1.7.9.2,1.4-.1,1.9-.5.7-1.2,1.4-2.2,1-.7-.2-1.3-.8-2.1-.1-.2.1-1.2-.5-1.6-1-.2-.3,0-1.1.3-1.4.9-1,0-1.2-.5-1.3-1.4,0-2.8-.3-4.1.6-.8.5-.9,0-.8-.6,0-.4.3-1,0-1.3-.5-.6-1.1-1.3-1.7-1.5-.8-.3-1.4-.6-2-1.1-.9-.8,0-1.4,0-2,0-.8,0-1.2-1.1-1.3-2-.2-2.7-1.2-2.8-3.2,0-1.4,0-2.7,0-4.1,0-.9,0-1.6-1.3-1.8-.7-.1-1.3-.8-1.8-1.4-.2-.2,0-.8.2-1.1.7-.8.5-1.4-.2-2.2-1.3-1.7-3-3.5-3.4-5.5-.4-1.7-1-3.6-.6-5.3.3-1.2.3-1.3-.8-1.3-.3,0-.5-.3-.8-.5-.5-.5-.9-1.2-1.5-1.4-.7-.2-1.6,0-2.4,0-.1,0-.4-.6-.3-.8.5-1.1.9-2.2.8-3.5-.1-1.5-.9-2.5-2.4-2.9-.2,0-.3-.2-.5-.4.2-.2.3-.5.5-.6.3-.1.6,0,.9-.2.5-.3.7-.7,0-1-1.2-.5-2.2-1.2-1.9-2.8-1.4-1-1.3-2.7-2-4-.8-1.3-2.1-2.3-3-3.6-.5-.7-2-1.3-.8-2.7,0,0-.4-.6-.6-.7-.5,0-1.2-.2-1.6.1-.7.6-1-.4-1.5-.3,0-.4,0-.9.2-1.3.1-.3.5-.4.6-.7.9-1.8.7-2.1-1.1-3.1-.6-.3-1.1-.8-1.7-1.2-.2-.1-.4-.5-.3-.7.8-1.4,0-1.8-1.1-2.2-.3-.1-.6-.2-.8-.3-1.2-.8-1.2-1.6,0-2.4.1,0,.4,0,.5,0,.4-.4.8-.8,1.2-1.1-.7-.5-1.4-.5-2.1,0-.3.2-.6.5-1,.5-.2,0-.7-.3-.8-.5-.1-1.1.3-2.3-.9-3,.8-2.2-1.1-3-2.2-4.2-.2-.2-.2-.6-.2-.9-.3-1.4-1.2-2.2-2.6-2.5-.4,0-1,.2-.4-.7.6-1,1-2.3,1-3.4,0-.6-1.1-1.3-1.7-1.8-.3-.3-.8-.3-1.3-.3-1.7,0-3.4,0-5,0-.3,0-.6-.3-.9-.4.3-.2.5-.4.8-.5,0,0,.2,0,.2,0,.9-.2,2.3-.4,2.2-1.5,0-1-.4-2.2-1.9-2.4-.6,0-1.3-.5-.7-1.5.3-.5.2-1.4.2-2.1,0-1.4,0-1.4-1.5-.9-1.1.4-1.9,0-1.8-1.2.1-1.5-.6-2.6-1.2-3.8,0-.2-.3-.8-.8-.2-.2.2-.6.3-.8.5,0-.3-.2-.8,0-.9.9-1-.2-2.1,0-2.7.9-1.8-.3-3-.6-4.5,0,0,0-.2,0-.2-1.8-2.1-1.8-4.6-1.9-7.1,0-.3-.2-.6-.4-.8-.1-.2-.5-.4-.6-.3-.2.1-.4.4-.5.6-.4,2-.7,2.2-2.6,1.3-.4-.2-.8-.6-1.2-.5-1.8.2-2.6-1.1-2.9-2.4-.3-1.3-.8-1.5-1.9-1.5-2.1,0-4.1-.5-6.1-.9-1.1-.2-2.4.2-3.6.4-.6.1-1.3.9-1.8.2-.6-.7-1.3-1.6-1.4-2.5-.2-1.4-.6-1.4-1.6-.8-.4.3-.9.5-1.4.6-.7.2-1.5.6-2.1-.4-.4-.8-1.2-1.2-2.2-1-.8.1-1.8,0-1.8,1,0,1-.5,2.1.8,2.9,1.3.8,2.4,1.8,3.6,2.8,0,0,0,.5,0,.5-.5.1-1.1.3-1.6.3-.2,0-.5-.3-.5-.5,0-.9-.7-.9-1.1-.7-.4.2-.6.8-.9,1.2,0,.2-.1.5,0,.7,1.4,2.4,1,5,.9,7.6,0,1.1,0,2,1,2.7,1.1.9,1,2.2.9,3.4-.1,1.4,0,2.6,1.4,3.5,1.7,1.1,2.3,3,2.4,4.9,0,.2,0,.6,0,.7,1.7.4,1.9,2.1,2.7,3.2,1.1,1.6,2.6,3,2.6,5.2,0,.8.9,1.1,1.6.9.3,0,.4-.5.9,0,.5.5,0,.6-.2.9-.6,1.8-2.1,3-2.5,5-.2,1.2-1.3,2.1-2.8,2-1,0-2.1,0-3.1,0-1.3-.1-1.4.8-1.6,1.7,0,.2.3.7.6.7.5,0,1.1,0,.8.7-.2.5-.7,1-1.1,1.2-.6.3-.6-.2-.8-.7-.2-.6-.7-1.2-1.2-1.6-.2-.1-.9.1-1.1.4-.7,1.2-1.1,1.4-2.1.5-.8-.7-1.1-.5-1.7.1-.8.8-1.8,1.5-2.7,2.2-.2.2-.2.5-.2.8,0,0,.4.2.6.2,1.5,0,3,.2,4.2-.9.4-.4.9-.5,1.2.1.2.5.6,1.2-.5,1.3-.3,0-.7.5-1,.4-1.1-.1-1.8.2-2.2,1.4-.1.4-.7.7-1.1.9-1.1.7-2.2,1.3-3.3,1.8-.5.2-1,.7-1.7.2-.5-.3-1.6-.3-2.1,0-1.2.9-2.1.1-3.2-.2-.4-.1-.9-.2-1.1,0-.7.7-1.4.6-2.3.4-1.3-.4-2.7-.7-3.9.5-.2.2-1,0-1.4-.1-.2,0-.4-.7-.4-.7.4-.3.8-.7,1.3-.8.9-.1,1.9,0,2.9,0,.2,0,.4-.2.6-.2-.2-.2-.3-.5-.5-.5-.8-.1-1.5-.2-2.3-.2-2,0-2.3-.3-3-2.3-.2-.5-.7-1-1.1-1.5-.4-.5-1.2-.9-1.2-1.4,0-1-.4-1.1-1.3-1.1-1.1,0-1.1-.5-.8-1.6.2-.7,1.2-1.4.2-2.3-.1-.1.2-.8.4-1.1,1-1.2.8-1.9-.5-2.6-1.2-.6-1.3-.6-.3-1.4.3-.2.7-.3,1-.5,1.2-.8,1.3-1.3.3-2.5-.2-.2-.5-.5-.5-.7-.2-1.8-.4-3.7-.5-5.6,0-.3.1-.6.3-.8.9-.9,1.2-1.3-.5-1.4-1.2,0-1.7-1.3-1-2.4.3-.4.8-2.6.7-3.2,0-.3,0-.6,0-1,.2-1.3-.3-2.1-1.5-2.5-.3,0-.5-.3-.8-.5.2-.2.4-.5.7-.6,1.8-.6,1.8-.6,1.1-2.2-.2-.4,0-.9,0-1.3.4,0,.8,0,1.2,0,1,.4,1-.3.8-.8-.3-.7-.6-1.4-1.2-1.9-.8-.8-.9-1.5-.3-2.4.3-.3.4-.8.5-1.2,0-.4-.1-1.1-.3-1.2-.8-.2-.5.5-.6.9,0,.2,0,.4,0,.5-.2.3-.5.6-.7.9-.2-.3-.7-.6-.7-.8,0-1.3-.2-2.6.2-3.8.2-.6.3-.9-.2-1.4-.6-.5-1.1-.4-1.6.2-.2.2-.4.3-.7.4,0-.3-.2-.7,0-.9.3-.5.8-1,1.3-1.4.8-.6.7-1.4.6-2.1,0-.5-.3-1-.4-1.5-.4-1.6-.7-1.8-2.3-1.4-1.2.3-3.4-1.1-3.3-2.3,0-.3.9-.7,1.4-.7.3,0,.7.6,1.1.8.5.3,1.1.6,1.7.9,0-.7.3-1.5,0-2.1-.5-1.2-.6-2.4-1.5-3.5-1-1.2-2.1-2.8-1.8-4.7.2-1.2-.4-2-1.4-2.4-1-.4-1.2-1.3-1.5-2.1-.2-.5-.3-1.5-.6-1.6-.9-.2-1.8,0-2.7,0-.2,0-.3.4-.5.5-.2.1-.5,0-.8.1,0-.3,0-.6.1-.8.6-1.4.5-2.7-.8-3.8-.3-.3-.7-.7-.8-1.1-.2-.6-.2-1.2-.3-1.9.4.4,1,.8,1.3,1.3.7,1.1,1.2,2.2,1.9,3.3.2.3.4.4.7.7.2-.3.7-.6.7-.9,0-1.9,0-3.8-2.1-4.9-.4-.2-.7-.7-1-1-.7-.8-1.7-1.3-.7-2.7.5-.7,0-1.5-1-1.9-1.6-.6-2.5-1.7-2.3-3.6,0-1.3-.4-1.5-1.7-.9-1.8.8-3.1,0-3.1-2,0-2.1-.2-3.9-1.9-5.5-1.1-1.1-1.7-2.6-2.6-3.9-.5-.8-.6-1.6.2-2.3.6-.5.3-.9-.1-1-1.6-.6-1.8-1.9-1.8-3.3,0-.4,0-.8-.2-1.1-1.1-1.8-1.4-3.7-1.3-5.7,0-.5-.4-1-.6-1.4-.4.2-.9.4-1.3.6-.2.1-.3.5-.5.5-.5,0-1.1.1-1.4-.1-.3-.2-.5-.9-.4-1.2.2-.4.8-.7,1.2-.8,1.2-.1,1.5-.5.9-1.5-.9-1.8-1.8-3.6-2.7-5.4-.1-.3-.3-.5-.6-.7-.7-.7-1.5-1.3-.4-2.4.2-.2,0-.7-.1-1.1-.3.1-.8.1-1,.4-.7.8-1.3,0-1.2-.3.3-1.9,0-3.9,1.4-5.7.9-1.1,1.6-2.6,1.9-4,.3-1.3.8-1.4,1.9-1.5,1.5-.2,2.9-.7,4.3-1.1.2,0,.5-.6.4-.6-1.2-1.5.7-2.3.9-3.4.2-1,1.6-.7,2.5-.3.8.3,1.2.3,1.9-.2,1.1-.8,2.2-1.6,3.7-1.4.2,0,.5,0,.7-.1.6-.4,1-1.1,1.6-1.2,2.6-.4,5.2-.7,7.8-1,.8,0,1.6.4,2.4.7,1.9.7,2.9,2.2,4.3,3.5.6.6,1.1,1.3,2.2,1.2.3,0,.7.8,1.1,1.2.2.2.5.7.6.7.9-.1.9-.1,1.3.4.8,1.2,1.5,2.6,3.3,2.5.3,0,.7.3,1,.5.2.1.3.4.5.6-.2.1-.4.2-.5.3-.5.2-1.3.6-1.3.7.1.6.4,1.3.8,1.8.9,1.1,2,2.1,3,3.1.5.5.9.9,1,1.8,0,.8.4,1.9,1,2.4.9.8,1,1.7.9,2.8-.1,1.2.7,2.4,0,3.7-.1.2,0,1.4,1.1.6.4-.3,1.1-.2,1.6,0,.9.1,1.3.8.6,1.6-.6.7-.7,1.4-.4,2.1.4.7,1,1,1.8.3.2.2.4.4.4.6.2.6-.6.9-.2,1.8.5,1,.6,1.8,2,1.7.2,0,.4.3.6.4-.2.2-.4.5-.6.5-1.1,0-1.1.5-.4,1.1.9.8.4,1.8.6,2.7.1.9.5,1,1.4.4,0,0,.5.1.4.2,0,1.2-.2,2.3-.3,3.5,0,.6,0,1.2-.1,1.9,0,.7.2.9.9,1,1.6.2,2.7,1.3,2.9,2.8.2,1,.3,2.1.5,3.2,0,.3.4.7.6.7.6,0,1.2-.2,1.8-.2.6,0,1.2.3,1.8.4-.2.4-.3.8-.5,1.2-.7,1.3-.4,2.2,1,2.5.5,0,1,0,1.4,0,.9,0,1.9-.2,1.6,1.3,0,.2.4.6.6.6.6.1,5.2,1.4,5.6,1.8,2.2,2.1,5.2,3,7.8,4.3,1.5.7,2.9,1.5,4.2,2.5.5.4.9,1,1.5.2.5-.7.8-1.6-.1-1.9-1.5-.6-1.5-1.8-1.5-3.1,0-1.8-.2-3.6-.5-5.3-.3-1.6.4-2.9,1.4-3.7,1.4-1.2,1.8-2.9,2.4-4.3.8-1.9,1.8-3.6,2.8-5.3,1-1.7,1.7-3.6,2.9-5.3.5-.7.9-1.4,1.5-2,.8-.8,1.8-1.4,2.7-2.2,1.3-1.2,2.4-1.7,4.3-1.1,2,.7,4.3.2,6.1-1.2.8-.7,1.6-.7,2.4-.5,3.3.6,6.1,2.4,8.6,4.6,1.1,1,1.9,2.2,2.9,3.3.2.2.4.5.7.6,2.3.6,3.1,2.5,4,4.3.5,1.1,1.4,2,1.9,3.1.5,1-.5,2.1,0,3.2.2.6.2,1.3.7,1.9.4.5.6,1.9.2,2.1-1.3,1.1-.4,2.5-.8,3.6-.4,1.3-.3,2.7-.6,4.1-.1.6-.7,1.2-1.2,1.7-.9.9-1,1.6-.2,2.7.9,1.2.7,1.5-.9,1.7-1,.1-1.9.3-2.9.5-.1,0-.3,0-.4.2-.2.3-.4.6-.5,1,0,.1.3.5.4.5.3,0,.6-.2.8-.3.4-.2.9-.7,1-.6.4.4.9.9,1,1.5.1.5,0,1.1-.1,1.6,0,.6-.3,1.2-.3,1.8,0,2.6-.5,4.7-1.6,6.9-1.5,2.9-1.1,7,.7,9.6.4.6.3,1.5.4,2.2,0,.9.1,1.6.8,2.3.6.7.8,1.9,1.1,2.9.2.9.3,1.8.5,2.7.1.6,1,1.1,0,1.8-.2.2-.2,1.1,0,1.3,1.1,1,.9,2.7,2.1,3.7.4.3.3,1.3.2,2-.2,1.5,0,2.2,1.2,2.7.3.1.7,0,.9,0,.8.3.9,1,.3,1.6-.2.2-.4.5-.7.7-1,.7-.6,1.4.1,1.7,1.6.6,1.5,1.7,1.5,3,0,1.4-.3,2.8.8,4.1M241.4,141.4c-.2-.2-.4-.5-.6-.7-.1.1-.3.3-.4.4.3.2.6.4,1,.8.1,1.4,1.2.5,1.8.7.3,0,.7-.2,1.1-.4-.3-.2-.7-.5-1-.5-.6,0-1.2,0-1.9-.3M176.6,210.5c-.3-.3-.6-.7-1-1-.4-.3-.9-.4-1.4-.5.4-.5.7-1,1.1-1.5.1-.2.3-.4.5-.5,1.6-.3.8-1.1.1-1.4-.5-.2-1.2-1.3-2-.2,0,0-.5,0-.6-.1-.1-.1,0-.4,0-.6,0-.2.3-.3.5-.5.1-.1.2-.3.2-.5-.2,0-.5-.1-.6,0-1.8.7-2.2,2.4-1.1,4.1.3.5.9,1.2.7,1.5-.9,1.9.5,3.1,1,4.6.4,1.3,1.2.9,2,.7.3,0,.6-.5.9-.8.6-.6,1.6-1.2,1.1-2.1-.4-.8-1.2,0-1.8.2-.3,0-.6-.5-.9-.7.4,0,.8-.1,1.4-.4M194.6,102.7c.8-.2,1.4.3,1.8.9.6.7,1.4.8,2.1.5.4-.2.6-1,.7-1.6.1-.6.1-1.3,0-1.9-.3-1.5-.6-2.9-1.1-4.3-.1-.3-.9-.4-1.4-.7-.1.4-.4.7-.4,1.1-.2.9.4,2-.6,2.6-.6.4-1.3.7-2,1.1-1.3.7-1.3.9-.1,1.8.2.2.5.2,1.1.6M143.7,141.6c.3-.2.7-.5,1-.5,1.2,0,2.2,0,2.2-1.7,0-.3.6-1.2,1.4-.5.3.2.7.3,1.1.2.3,0,.5-.4.7-.6-.2-.1-.4-.2-.7-.3-.5-.2-1-.3-1.5-.5-1.6-.7-1.9-.6-2.1,1-.1,1-.4,1.4-1.4,1.4-.7,0-1.3.3-2,.5-.5.2-.9.4-1.4.7.5.3,1,.6,1.5.7.2,0,.6-.1,1.1-.5M149.7,180.7c0,.6-.4,1.8,1,.9.3-.2.6-.6.9-.7.6-.2,1.8-.2,1.8-.4.2-1.2-1.5,0-1.7-1.1,0-.2-.6-.4-.9-.5-.4-.2-.8-.4-1.3-.4-.7,0-2,1.1-1.7,1.5.3.3,1.1.3,1.9.7M154.5,140.9c0-.3.1-.8,0-.9-.5-.5-.5-1.7-1.6-1.2-1.1.5.3,1,.2,1.5,0,.2,0,.5,0,.7-.2,1.1.5,1.6,1.4,1.7,1,.2,2.1.3,3.2.3.2,0,.4-.4.7-.6-.3,0-.5-.3-.8-.3-1.1,0-2.1-.1-3-1.2M295.7,132.3c-1.3-.9-2.7.7-4-.2-.2-.2-.8.2-1.2.2.4.4.7,1,1.2,1.1,1.2.3,2.4.4,3.6.5,1.4.1,1.1-.7.5-1.7M152.1,191.3c-.5.6-.9,1.2-1.3,1.8-.2.3-.3.8-.5,1.2.5,0,1.1,0,1.4-.3,1.2-.9,2.2-2.1,1.8-3.8-.1-.5-.2-1-.3-1.5-.2.5-.5,1.1-.7,1.6-.1.2-.3.4-.5,1M284.4,93.6c.2,0,.4,0,.5,0,.6.8.9.1,1.2-.2,0,0-.3-.6-.5-.7-1.5-.7-3.1-1.1-4.8-1-.1,0-.4.3-.4.4,0,.2.2.4.3.5,1.2.3,2.3.5,3.7,1M259.4,60c-.2.2-.5.4-.7.6.5.3,1,.8,1.5.8,1.1,0,2.3-.3,3.4-.5.1,0,.3-.3.3-.5,0-.1-.1-.4-.2-.4-1.3,0-2.6-1-4.4,0M269.3,56.9c-2.1-1-3-.9-4,.2-.2.2-.2.5-.2.8.3,0,.5,0,.8,0,1.2,0,2.3,0,3.5,0,.9,0,.4-.5,0-1M168.9,128.9c-.1-.4-.1-1.1-.4-1.2-.7-.3-1.6-.3-2.3-.4,0,0-.2.5-.1.6.6.6,1.2,1.2,1.9,1.7,0,0,.5-.3,1-.7M300.7,134.4c-.2,0-.5,0-.7,0-.8.4-1.6.8-2.4,1.2.7,0,1.5.2,2.2.3.2,0,.3,0,.5,0,1,0,.5-.8.4-1.4M166.3,139.2c1.3.3,1.7-.9,2.4-1.5,0,0-.1-.4-.2-.4-.8.2-1.6.3-2.4.6-.2,0-.1.7,0,1.3M146.9,168.7c-.4-.3-.8-.5-1,.2,0,.4.2,1-.6,1-.5,0-1,0-.8.7,0,0,.7,0,1.1-.1.4,0,.8,0,1.1,0,1.3-.2.6-.7.1-1.7M256.5,133.9c.7-1,1.5-2.1,2.1-3.1,0-.1,0-.5-.2-.6-.1-.1-.6,0-.6,0-.6,1.2-1.2,2.5-1.4,3.7M277.7,134.9c-.9.2-1.8.3-2.7.5-.2,0-.4.2-.4.4,0,.2.1.5.3.5,1.1.4,2.2,0,2.8-1.4M168.2,213.1c.2-.2.3-.3.5-.5.6-.7,0-1-.4-1.3-.1-.1-.7,0-.8,0-.2.5-.5,1.1-.5,1.7,0,.7.5.6,1.2,0M162,141.1c-.7.7,0,1.1.4,1.3.3.2.8,0,1.3,0-.4-.5.9-.7.2-1.4-.6-.6-.9-.4-1.8.1M125.7,129.9c0-.2,0-.3,0-.5,0-.4-.1-.8-.2-1.1-.1.3-.2.6-.3.9,0,.2-.2.4-.3.6-.3.6-.5,1.2-.8,1.8.6-.4,1.1-.8,1.7-1.7M280.6,109.9c.6-.5,1.1-1.1,1.7-1.6-.1-.1-.2-.2-.3-.3-.5.6-1.1,1.1-1.4,1.9M53,32.6c-.4.1-.8.2-1.2.4.2.2.5.4.7.6.3.3.7.7,1,.9,0,0,.3,0,.4,0,0-.2,0-.4-.1-.5-.2-.4-.4-.8-.9-1.4M144,121.2c-.4-.2-.7-.6-1.1-.7-.2,0-.7.3-.7.5-.1.4-.1,1,.6.9.4,0,.7-.3,1.2-.7M171.6,210.3c0-.3,0-.9,0-.9-.5,0-1.1,0-1.6,0-.2,0-.3.2-.5.4.2.2.3.5.5.6.4,0,.8,0,1.7,0M132,145.7c-.2.3-.5.5-.5.7.2.9.4,0,.7,0,.4,0,.8,0,1.1-.2.2,0,.3-.4.5-.6-.2,0-.4-.1-.6-.2-.3,0-.6,0-1.2.2M256.5,116.7c1-.7,1.7-1.7,1.7-2.1,0,0,0-.1-.1-.2-.6.5-1.2,1-1.8,1.6,0,0,0,.3.2.7M228.5,137.1c.1.2.2.5.4.7.4-.4.7-.8,1.1-1.3,0-.1-.1-.4-.2-.6-.3.3-.7.6-1.2,1.2M72.7,142.1c-.5,0-.9,0-1.4,0-.1,0-.2.5-.3.7.7.1,1.6.9,1.6-.8M146.1,157c.2,0,.5,0,.7,0,.3-.2.6-.5.9-.8-.1-.1-.2-.2-.3-.3-.6-.6-.7.3-1,.4-.2,0-.3.3-.3.7M137,160.8c-.2.3-.5.5-.7.9,0,0,.4.6.4.5.5-.3,1.4-.5.3-1.4M142.3,175.7c.4-.2.8-.4,1.1-.7-.4-.1-.8-.3-1.1-.3-.9,0-.9.3,0,.9M286.8,149.3c.3-.4.5-.8-.2-1-.7-.1-1.1.1-1.3.8.4,0,.7,0,1.6.1M152.6,162.5c-.3-.2-.5-.5-.8-.6-.2,0-.4.4-.6.6.4.3.7,1.2,1.4,0M172.1,213.1c-.3.4-.5.9.3.9.3,0,.6-.2.9-.3-.2-.2-.5-.4-1.2-.6M170.6,135.9c.4-.3.7-.6,1.1-.8-.2-.2-.3-.3-.5-.5-.3.4-.6.7-.6,1.3M161,196.3c.2-.2.5-.4.7-.6-.3-.1-.6-.4-.9-.3-.7,0-.6.5.2.9M220.3,83.3c.2,0,.4.3.6.2.3,0,.6-.3.8-.5-.3-.2-.5-.4-.8-.5-.2,0-.4.1-.6.7M256.8,64.1c-.4-.3-.9-.5-.9.3,0,.3.2.6.3.9.2-.2.4-.5.6-1.2M287.8,145.9c0,0,.2,0,.2,0,.2-.2.3-.5.5-.8-.5,0-.9,0-1.4,0,.2.2.3.3.7.7M105.6,115.5c0,.4,0,.7.1,1.1.3-.2.7-.3.8-.6.2-.6,0-.8-.9-.5M281.5,121.5c-.2.2-.5.4-.7.6.2.1.3.3.5.4.2-.3.5-.6.3-1M162,215.1c.3.2.5.4.8.5.3,0,.6-.1.9-.2-.2-.1-.5-.3-.7-.3-.4,0-.8-.1-.9,0M123.3,133.2c.2-.3.3-.6.5-.9-.2,0-.4-.2-.6-.3-.1.3-.3.6-.4.9,0,.2.1.4.5.3M242.4,138.5c-.3.1-.6.2-.8.4-.1.2,0,.7,0,.7.6.3.8,0,.8-1.1M267.1,139.7c-.4.1-.7.2-1.1.3.2.2.5.6.7.5.3,0,.5-.4.4-.9M159.8,176.4c-.3,0-.6,0-1,0,0,0,0,.4,0,.4.3,0,.6,0,1-.5M209,39.4c0,.3,0,.6,0,1,0,0,.4,0,.4,0,0-.3,0-.6-.5-1M193.7,95.5l-.7.6.4.4c.2-.2.4-.5.3-1M306,136.8l-.7.6c.1.1.3.3.4.4.2-.2.4-.5.3-1M262.6,138c-.3,0-.6,0-1,0,0,0,0,.4,0,.4.3,0,.6,0,1-.5M294.7,150.5c-.2-.2-.4-.5-.6-.7-.1.1-.3.3-.4.4.2.2.5.4,1,.3M54.9,121.9l-.7.6c.1.1.3.3.4.4.2-.2.4-.5.3-1M139.2,149.1c0,.2,0,.4.1.6.2-.2.5-.5.7-.7-.2,0-.4,0-.9.1M89.5,57.6c0,0-.1,0-.2.2,0,0,0,.1,0,.2h.9c-.2-.3-.3-.4-.7-.3M157.4,203.3c.2-.2.3-.3.5-.5-.2,0-.5-.1-.7-.2,0,.3,0,.6.3.7M249.1,137.5c-.3,0-.6,0-.9,0,0,.2.1.5.2.7.2-.2.3-.3.7-.7M150.9,176.2c0,.2.2.3.2.5,0-.2.2-.3-.2-.5M63.8,57.4c0,0,.2.1.3.2,0-.1,0-.3-.3-.2M245.3,141.9c0,0,.2.1.3.2,0-.1,0-.3-.3-.2M201.6,104.4c0,0,.2.1.3.2,0-.1,0-.3-.3-.2M141.8,163.7c0,0-.1.2-.2.3.1,0,.3,0,.2-.3M77.7,130.3c0,0,.2.1.3.2,0-.1,0-.3-.3-.2M132.5,110.2c0,0-.2-.1-.3-.2,0,.1,0,.3.3.2Z"/>
    <path d="M521.3,218.9c.6.2,1.6.3,1.8.7.8,1.7,1.9,2.1,3.7,2.3.8,0,1.1.1,1.7-.3,1.2-.9,1.5-.8,2.5.5,1.3,1.7,2.9,2.1,4.9,1.1,1-.5,1.8-.6,2.8-.2.3.1.7.2,1.1.2,1.5,0,2.8-.2,3.4,1.8.2.6,1.6.9,2.6,1.1,1,.1,2-.1,3-.2,1.1,0,2.2-.2,3.3-.2.6,0,3.8,4.2,3.9,4.9.1,1.3.3,2.6.5,3.9.1.8-.7,2.1-1.4,2.2-.6.1-2.5-1-2.5-1.6,0-1.2-.6-2-1.3-2.8-.6-.7-1,0-1,.2,0,.9,0,1.9.5,2.6.6.8.2,1.3-.3,1.5-2.3,1-4.6,2.3-7.3,1.1-1.3-.6-3.4.8-3.4,2.2,0,.5,1,1.3,1.7,1.5.7.2,1.5,0,2.1.8.5.6.5,1.1.2,1.9-.3.7-.7.9-1.4.8-1-.2-2,0-2.3-1.6-.2-1.1-.9-2.5-2.7-2.3-.8,0-.4-.3-.1-.6.8-1.3.8-2.6,0-3.6-.7-.8-.7-.7-1.7,0-.5.4-1.2.5-1.8.8-.5.2-1.4.4-1.5.8-.2.7,0,1.6,0,2.4.2-.1.4-.2.5-.3.4-.8.8-1.1,1.4-.2.2.2.5.2.8.4q1.8,1,.7,2.7c-.7,1-1.7,1.2-2.9.3-2-1.6-3.5-3.5-3.8-6.1,0-.5.2-1.2.6-1.6.4-.5.9-.8,1.5-1,.7-.3,1.5-.6,1.2-1.4-.3-.7-1.1-1.2-1.7-1.6-.2-.1-.9.3-1.1.7-.7,1.2-1.2,2.5-2.9,2.7-.2,0-.6,1.1-.4,1.3,1.4,1.7-.8,2.8-.6,4.2,0,0-.3.2-.4.2-.2,0-.4-.2-.5-.3-.3-.7.6-1.7-.5-2-.6-.2-1.3.4-1.9.4-2,0-3.8.4-5.1,2.1,0,.1-.2.2-.3.3,0-.2-.2-.4-.2-.6,0-.2,0-.5,0-.7,0-.8-.1-1.4-1-1.5-.9,0-1.8,0-1.8,1.2,0,.9-.6,1.3-1.4,1.2-.9-.1-1-.8-1-1.6,0-1.8.8-2.8,2.6-3.2,1.1-.3,2.4-.4,2.7-1.8,0-.5.2-1.1-.8-1.1-1.6,0-3.1,0-3.8,1.9,0,.2-.4.5-.5.5-.3-.2-.6-.4-.7-.6-.7-1.7,0-2.6,1.9-2.7.9,0,1.6,0,2.4-.7.5-.5,1.3-.3,2.1.2,1,.7,2.3,1.1,3.4,1.6.8.3,1.3-.1,1-.8-.6-1.7-.6-3.4,0-5.2.3-.8-1.7-2.3-2.4-1.6-1.5,1.3-4.2.8-4.9,3.2,0,.3-.9.5-1.4.5-1.7,0-3.4,0-5,0s-1.1-.2-1.4,0c-1,.6-1.8.6-2.6-.4-.6-.6-1.2-.1-1.3.8,0,1.2-1.2,3.3-2.2,3.9-.7.5-1.8.6-2.8.6-.3,0-.7.2-1,.3-1,.6-1.9,1.3-2.9,1.8-.2,0-.8-.2-.8-.3,0-.5,0-1.1.3-1.5.2-.4.7-.7,1-1,.7-1,.5-1.7-.7-1.7-1.5,0-3.1-.2-4.5,0-.8.1-1.6.9-2.3,1.5-.6.5-1,1.3-1.6,1.7-.4.3-1.2.5-1.3-.6-.2-1.3-1.1-1.8-2.4-1.7-.4,0-.8,0-1.2,0-1.4.2-2.4-.3-3.3-1.3-.7-.8-1.4-1.5-2.6-1.8-.8-.2-1.4-1.3-2-1.9-1.1-1.1-1.1-1-1.9.3-.4.6-1.2,1.1-2,1.3-1,.2-1.3-.5-1.4-1.4-.1-2-.6-2.4-2.6-2.4-2.4,0-4.8,0-7.2,0-1.5,0-2.3-.9-2.1-2.4.1-1.4,0-1.6-1.2-1.4-.4,0-.8.4-1.2.4-.3,0-1.4.6-.6-.7.5-.9-.2-1.6-1.2-1.1-1.7.8-3.9.2-5.4,1.8-.7.8-1.4.3-1.5-.8,0-.4,0-.8,0-1.2,0-1.4-.9-2-2.4-1.7-.9.2-1.9.5-2.7.2-.7-.3-1.1-.5-1.9,0-.3.2-1.1-.3-1.6-.5.2-.4.4-.9.6-1.3,0,0,.1-.1.2-.2.3-.3.7-.7,1-1-.6-.5-1.1-.4-1.6.2-.5.5-.8,1.3-1.7,1-1.3-.4-2.6-.8-3.8-1.2.1-1-.6-.7-1.1-.7-1.3,0-2.6-.1-3.7-1.1-.3-.3-1.2-.3-1.6,0-2.2,1.5-2.3,1.5-4-.4-.7-.7-1.3-.7-2,0-.9,1-1.9,1.5-3.3,1.4-1.1,0-.9-.8-.7-1.3.2-.6.7-1,1-1.5.4-.7-.3-1.8-1-2.1-.6-.2-1.1-.5-1.6-.8-.6-.4-1.2-.7-1.6-1.2-.9-1.1-1.7-1-2.4,0-.7,1.2-1.3-.2-2,0,0-.3.1-.7.1-1,0-.3-.1-.6-.2-.9-.3.2-.9.3-1,.6-.1.4.1.9.2,1.4-.8,0-2,.3-2.3,0-1.3-1.5-3-.6-4.5-.9-.7-.1-1.6-.2-1.9-.6-.4-.8-.6-1.8.3-2.6.1-.1.1-.4.2-.7-.2,0-.5,0-.6.2-.3.2-.6.6-.9.8-1.7,1.4-2.7,1.3-4-.4-.2-.3-.7-.4-1-.6-.1.3-.3.6-.4.9,0,.1,0,.3,0,.5-.3.5-.6,1-.8,1.5-.4-.3-1-.5-1-.8,0-.6-1.1-1-.1-1.8,1.4-1.1,1.1-2.8,1-4.4,0-.4-.7-.8-1.1-1.2-.3.3-.7.7-.7,1,0,2.7-1.9,3.4-3.8,4.2-.8.3-1.7.7-2.4,1.2-1.1.8-2,.8-3,0-.3-.3-.9-.6-.9-.8.2-.7.7-1,1.4-.9.4,0,.7.4,1,.4.5,0,1,0,.9-.7-.2-1.7.8-1.8,2.1-1.7.4,0,.9,0,1.2-.3.1,0-.1-.7-.2-1.1-.5.1-.9-.8-1.5,0-.2.2-.9.4-1.1.2-.4-.4-.9-.9-1-1.5-.4-1.8-.3-1.8-2.2-2.1-.8-.1-1.6-.4-2.4-.4-.4,0-1,.5-1.1.9,0,.5.2,1.2.5,1.7,0,.1.8,0,.9,0,.7-1,1.3-.2,1.9,0,.5.3.6.6,0,1-.6.4-1.2.7-1.7,1.2-.6.6-1.1.5-1.8.1-.8-.3-.9-.7-.8-1.4,0-.8-.1-1.6.4-2.5.3-.5,0-1.7-.5-2.3-.6-.9-.5-1.5.2-2,.9-.6.8-1.4.8-2.3,0-.6-.2-1.3,0-1.9.3-.9.5-1.8,1.8-2.3,2-.8,3.9-.8,5.9-.9.6,0,1.3,0,1.8-.3.2,0,.3-.6.5-.9-.3,0-.7-.3-.8-.2-.7.4-1.2.3-1.6-.4-.5-.8-1.2-.5-1.9-.6-3-.4-4-1.9-3.3-5,0-.4.1-.9-.1-1.1-1.6-1.4-1.4-3.4-1.6-5.1-.2-1.6-.9-2.9-1.2-4.4-.2-.8-.7-1.4.1-2,.8-.6,1.5-1.5,2.8-1,.7.3,1.5.4,2.3.3.4,0,.8-.7,1.3-1.3.4-.5.6-.9.8-1.3,0,0-.2-.2-.3-.3-.2.5-.4.9-.7,1.4-1.2,0-2.3,0-3.1-1.3-.4-.8-1.4-.4-2.1.5-.2.2-.3.4-.5.6-.3-.3-1-.6-1-1,0-1.1,0-2.2.3-3.2.4-1.6.2-2.3-1.2-3.4-.8-.6-.8-1.5-.5-2.1.7-1.6.3-3.2.4-4.9,0-.6,0-1.1,0-1.7,0-.4.7-.8,0-1-.2,0-.6.2-.8.3-.4.2-.8.7-1,.6-.8-.3-1.6-.9-2.3-1.3,0,0,.2-.5.4-.6.3-.2.7-.2,1.1-.2.7,0,.8-.3.7-.9-.1-1.1-.3-2.1-.4-3.2,0-.5-.2-1.2,0-1.6.7-1.4,0-1.6-1.1-1.5-.6,0-1.3,0-1.9,0-1.2,0-1.4-.6-1.3-1.8,0-.6,0-1.3-.4-1.7-1-1.1-.7-2.2-.1-3.3.2-.4.5-.8.6-1.2,0-.3-.2-.7-.2-1.1-.3.1-.5.2-.8.4-.6.3-.9,1.6-1.6.9-.8-.8.3-1.5.9-2.1,1.4-1.4,2.6-3,4.3-3.9.8-.4.8-1.2.9-2,.3-1.6,1.1-1.9,2.3-.7.8.9,1.3.6,1.7-.2.7-1.4,1.4-1.4,3-1.1,3.5.6,7,.5,10.6.6.2,0,.4-.1.6-.2-.2-.2-.3-.4-.5-.5-.4-.1-.9,0-1.3-.3-.5-.2-1.3-.4-1.5-.8-.3-.7,0-1.3.9-1.6.3,0,.6-.5.9-.7-.4-.2-.8-.7-1.1-.6-1.5.3-2.1-.8-3-1.6-1.1-.9-2-.6-2.6.8-.1.3-.4.5-.6.7-.2-.3-.5-.7-.5-1,0-2.1-1.2-3.1-3.2-2.6-.3,0-.8,0-.8,0-.2-1.6-1.9-1-2.7-1.7-.4-.3-.8-.7-1.3-.8-.7-.1-1.2-1.3-2.2-.3-.3.3-1.5.4-1.8-.8,0-.3-1.2-.6-1.8-.6-1.2,0-2.2,0-3.2-1.1-.6-.6-1.9-1-2.7-.8-1.6.5-3.1.3-4.6.4-.4,0-.8.4-1.2.5.2.3.3.7.6.8,1.1.6.6,1.4.2,2.1-.3.7-.9,1.2-1.3,1.9-.2.4-.2.9-.4,1.3.5-.2,1.1-.2,1.4-.5.5-.5.8-1.3,1.2-1.9,0-.1.2-.2.4-.3.2.2.5.5.5.7-.1.4-.4.8-.6,1.2-.7,1.1-1.1,2.2.3,3.2.9.6-.2,1.1-.3,1.1-1.1-.2-1.5.7-2.1,1.3-.3.3-.5.8-.4,1.2,0,.4.3.9.6,1.2.2.1.7-.2,1.1-.3.3-.1.7-.2,1-.3,0,.3.2.6.1.9-.3,1.3-2.6,4-4,4.8-.2,0-.2.8-.1.9,1.9.6,2,1.8,1.3,3.4-.2.4.2,1.5.6,1.8,1.1.9.9,1.9.2,2.6-1,1-.9,2.1-.9,3.3,0,1,0,2.1,0,3.1,0,.7-.1,1.5-.5,1.9-.6.8-1.9,1.1-2.2,1.9-.3.8.3,1.9.3,2.9,0,.5-.7,1-.9,1.5-.2.4-.5.9-.4,1.2.3.9.6-.4,1-.1.4.3,1,.3,1.1.6.2.4.1,1.1-.1,1.4-.7.7-.8,1.5-.3,2.3.1.2.3.3.5.5,0-.2.1-.4.2-.6.2-.3.4-.5.5-.8.1.3.5.7.4.9-.4,1.5-1,2.9-2.2,4.1-1.5,1.5-2.9,1.5-4.6.8-.3-.1-.8.1-1.3.2.2.4.4,1,.7,1.1.7.3,1.5.3,2.2.5.6.2,1.6.6,1.7,1,.1,1.5,1.1,2.4,1.7,3.7.6,1.4.3,1.9-1.1,2.5-1.6.7-1.8,1.1-.3,2.1,1.5,1,1.5,2.1,1.2,3.8-.4,2-.8,4.1.8,6,.8.9.4,2.9-.2,3.9-.9,1.4-1.7,2.9-3.1,4-.1,0,0,.6,0,.8.5.7,1,1.3,1.5,2,.3.4.6.9,1,1.4-.6-.1-1.2-.2-1.7-.5-.8-.4-1.8-.6-2.1-1.8-.1-.5-.4-1.4-1.4-1.1-.8.3-1.4,1.4-1.2,2.2,0,.3.4.6.3.8,0,.3-.3.7-.5.8-1.3.4-2.6.7-3.9,1-.6.1-.9-.1-.8-.8.4-2.4-1.9-3.7-2.5-5.7,0-.2-.7-.2-1.1-.2-.1,0-.3.5-.3.7,0,.3,0,.6,0,1,0,.7.1,1.3-.9,1.2-.9,0-1.8-.5-1.4-1.3.8-1.8-.5-2.2-1.5-3-.3-.2-.7-.4-.9-.7-.4-.5-1-1.2-1-1.7.1-1.1,1.2-.2,1.7-.5.2,0,.5,0,.7,0,.2,0,.3-.3.3-.5,0-.2-.2-.4-.4-.4-.6,0-1.3,0-1.9,0-2.7,0-3.6-1.9-2.3-4.3.3-.6.4-1.5.3-2.2-.2-1.1-1.1-2.3-.8-3.2.7-1.8-.5-4.1,1.5-5.6.7-.5.5-1.4-.2-1.7-1.4-.6-1.1-1.1-.3-2,.6-.8.5-1.8-.3-1.9-.4,0-1.1.1-1.4.4-.7.5-.9.4-.8-.4,0-.5.2-1.1.5-1.5,1.6-2.4,1-4.9.6-7.4,0-.3-.2-.7-.1-.9,1.1-1.7.2-3.4,0-5.1-.1-1-.3-1.9-.5-2.9,0-.3,0-.7-.1-.9-1.8-1.5-1.3-3.6-1.3-5.5,0-1,0-1.9-.9-2.5-1.1-.7-.5-1.3.3-1.7.4-.2,1-.4,1.5-.5.7,0,.4.2.2.6-.4.8.2,1.1.9,1.3,1.1.3,1.7-.2,2.2-1.5.4-1,0-1.4-1-1.9-1.3-.7-2.7-1.4-3.6-2.9-.6-1.1-.6-1.6.2-2.4.2-.2.5-.4.7-.7.7-.7.5-1.4-.4-1.7q-1.9-.6-1.9-2.6c0-.2,0-.3,0-.5.4-3.7-.2-7.2-2.4-10.3-.5-.7-.2-2.1-.7-2.8-.5-.7-1.8-.7-2.5-1.3-1.3-1-2.7-2.1-2.1-4.2,0-.1,0-.3,0-.5.1-.8,2.1-1.6,0-2.4-1-.4-1.3-1.7-2.8-1.5-1.2.2-1-.7-.6-1.5.7-1.2.6-2.5.2-3.8-.1-.5-.1-1.1,0-1.4.6-.9,1.2-1.9,2-2.5,1.2-.8,1.3-1.4.6-2.5-.4-.6,0-1.5.8-1.6,1.2-.1,1.5-1,2.1-1.8,1.5-1.8,3.3-3.5,5.1-5.1.3-.3,1.1-.1,1.6,0,.3,0,.5.6.9.8.8.6,1.7.3,2.1-.7.2-.4.1-1,.4-1.3.4-.4.2-1.4,1.4-1.3.6,0,1.4-.6,1.9-1.1.8-.9,1.6-.9,2.4-.2,1.1.9,2.7,1.1,3.6,2.3.3.3,1.1.7,1.4.5,1.1-.6,1.8.1,2.1.8.4.8,1.6,1.6.5,2.7-.2.3-.5.7-.5,1,0,.3.2.7.5,1,0,0,.6-.1.8-.3.9-.7,1.6-1.4,2.5-2,.7-.4,1.5-.7,2.3-.7,1.5-.1,3,0,4.6,0,.4,0,.9,0,1.1-.1.5-.5.9-1.1,1.4-1.7.6.7,1.4.6,2.1.2.2,0,.5-.3.6-.2.3.1.5.4.7.6-.2.1-.4.3-.6.4-.4.2-1.3-.4-1.2.6,0,.5.5,1.1,1,1.3,3,1.5,6.1,1.3,9.2.6.4,0,.9-.1,1.1,0,.8,1,1.8,1.3,3,1.5.4,0,.8.4,1,.7.5,1,.9,1.2,1.9.3.6-.6,1.6-.9,2.1.4.1.3,1.1.6,1.6.5,1.8-.3,1.8-.4,2.1,1.2.3,1.4,1.6,1.7,2.6,2.2,1.8.8,3.5,1.5,5,2.9,1.3,1.2,3.1,2.2,5.1,2.6,1,.2,2.1.7,2.7,1.4,1.2,1.4,2.9,1.9,4.4,2.8,1,.6,2,1.1,2.2,2.4,0,.2.5.5.8.4,2.4-.5,2.3-.5,2.6,1.9,0,.2.8.6,1,.5,1.6-1,2.4,0,3.2,1.1.6.8,1.3,1.6,2.6,1.4.4,0,.8.4,1.2.4.7,0,.8.4.4.9-.7.9-.2,1.4.4,2,1.3,1.1,2,2.5,2.7,3.9,1.1,2.3,2.4,4.4,3.6,6.7.2.3.2.7.2,1.1,0,.6-.2,1.3,0,1.6,1.1,1.2.5,1.9-.4,2.7-.1.1-.2.4-.2.6-.1,1.9-1.5,3.4-1.9,5.2-.2,1.1-.8,2.2-1.4,3.2-.5.7-1.2,1.3-.9,2.3,0,.2-.2.5-.3.5-1.5.2-2.3,1.8-3.7,2.2-.9.3-1.9.4-2.2-.9,0-.2-.4-.3-.7-.4,0,.2-.2.4-.3.6-.1.6-.1,1.2-.3,1.8-.2.7-.4,1.4-.7,2.1-.6-.2-1.2-.6-1.9-.7-.3,0-.8.3-1,.5-.5.8-.9,1.1-1.8.4-.3-.2-1.4.1-1.9.5-1.2.9-2.5,1.9-3.5,3.1-.6.6-1.2,1.8-.9,2.4,1.3,2.8,0,5.6.4,8.3.2,1.7,0,3.3.8,5,.5,1,.6,2.4-.3,3.6-.3.3-.4.8-.5,1.2,0,.7-.3,1.6,1,1.3.4,0,.8,0,1.2,0,1,.1,1.6,1,1,1.8-.7.9-1.7,1.7-2.5,2.5-.6.6-1.3,1.1-1.2,2.2,0,.7-.4,1.4-.7,2.1-.3.9-.3.7.8,1.1.7.2,1.2.9,1.8,1.4.8.7,1.5,1.6,2.4,2,1.6.8,3,2.1,5.1,1.8.6,0,1.5,1.2,1.9,2,.2.3-.4,1.3-.9,1.6-.8.4-1.8.6-2.6-.3-.3-.3-.5-.7-.9-.8-.6-.3-.6-1.5-1.7-.9-.8.5-1.8.7-1.5,2,0,.4-.2.9-.3,1.3-.2.7-.5,1.3.7,1.4.8,0,1.5.5.7,1.6-.1.1.2.8.5,1.1.1.1.8,0,.9-.3.5-.7,1-1.5,1.3-2.3.2-.7.2-1.6,1-1.5.6.1,1.3,1,1.3,1.6,0,1.5.4,1.1,1.1.4.3-.3.8-.4,1.1-.7.6-.7,1.1-.4,1.5.2.5.7-.2,1.2-.6,1.3-1.6.3-1.2,1.4-1.2,2.4,0,.4.5.7.8,1,.3-.3.6-.6.8-.9.3-.7.5-1.4.8-2.1.3-.6.6-1.4,1.6-.6.1.1.8-.2,1.1-.4,1-.5,1.9-1.4,3.1-.6.1,0,.5-.2.6-.3,0,0,0-.4,0-.5-1.1-1.7-1.1-1.7,1-2.4.3-.1.7-.3,1-.4.1,0,.3,0,.5,0,0,.2,0,.4-.1.5-.1.2-.3.3-.5.5-.6.7-.5,1.3.4,1.3,1.5,0,2.4,1,3.4,1.8.4.3.9.6,1.4.7.9,0,2.1.5,2.1-1.3,0-.3.7-.5.8-.9.2-1,.9-1.5,1.6-1.1.6.4,1,1.2.7,2.3-.5,1.6-1,3.3-1.9,4.7-.2.2,0,.6,0,1,.3-.1.6-.1.8-.3.5-.5,1.1-1,1.8-.4.8.7,1.1,1.6,1,2.7,0,.6-1.5,1-2,.6-1-.9-1.7-1.5-1.9.5,0,.3-.8.6-1.3.8-1.1.5-1.4,1-.8,1.9.1.2.6.3.6.3.7-1.1,1.9-.8,2.8-.7,1.8.2,2.5-1.2,3.7-2,.2-.1.3-.7.1-.8-.6-.5-.2-.8,0-1.4.3-.9-.3-1.7-.9-2.4-.1-.2-.3-.3-.4-.5.2,0,.4-.2.6-.2,1.1,0,2.2.3,2.6,1.2.6,1.4,1.2,1.5,2.4.6.3-.3,1.3-.3,1.6,0,.6.7,1.3.6,2,.6,1.4-.1,2.6.4,3.5,1.4.6.7,1.2,1.2,2.2,1,1.4-.3,2.3.4,3,1.4,1.1,1.5,2.5,1.9,4.3,1.1,1.2-.5,2.4,0,3,1.5.6,1.4,1.1,1.2,2.2.8,1-.4,1.9-.7,3.1.3,1.1.9,3,.7,4.5,1.1.9.2,1.7.6,2.5.9.3.1.7.5,1,.5,1.7-.2,2.8.4,3.5,2,.3.7,1,1.4,2.1.7.8-.5,1.7-.5,2.1.7,0,.2.3.5.5.5,1.5-.1,2.9,0,3.8,1.4,0,0,.2,0,.2,0,1.9-1.8,3.6,1.5,5.5.2.1,0,1.1.6,1.2,1.1.3.9.4.6,1.1.4,2.1-.7,3.4.1,3.8,2.4,0,.2.1.4.2.7.2-.2.6-.3.7-.5.4-1,1.3-1.3,2.3-1.3,1,0,1.9,0,2.9,0,1.4,0,2,.7,2.2,2.1.1,1.2,1,1.6,1.9.9.4-.3.8-.6.9-1,.3-1.1.9-.7,1.4-.4,1.8.9,6.7,2.5,8.2,2.7,1.4.1,2.8.3,4.1.5.5,0,.9.5,1.3.9,1.7,1.4,2.3,1.4,4,0,.6-.5,1.2-.9,1.8-1.3.1,0,.4,0,.6,0,0,.2-.2.4-.3.5-.5.7-1,1.3-1.6,2.1-.5.4-1,.7-1.3,1-.1.2.2.7.3,1,.2-.2.5-.4.6-.7.2-.4.3-.8.5-1.2M349.2,137.8c.2,0,.4,0,.5,0,1.1-1.4.7-3,.7-4.5,0,0-.7-.3-.7-.2-.3.4-.6.9-.7,1.4,0,1.1,0,2.2-.3,3.4,0,.1,0,.3,0,.4,0-.1.2-.3.5-.4M544.6,227.6c-1,.2-2.3-.6-2.9.5-.8,1.7-2.1,2.7-3.9,3.4-1.5.5-1.5,1.4-.4,2.5,1.4,1.3,3,1.3,4.7,1.4,1.6.1,2.3-.7,2.5-1.8.2-.9.6-1.4,1.1-2,.7-.7.6-1.4.2-2.1-.3-.6-.8-1.1-1.4-1.9M477.1,213.9c-.6.2-1.3.7-1.8.5-1.4-.6-3.2.2-4.2-1.6,0-.1-1,0-1.4.3-.3.2-.4.6-.6,1,.4.2.8.4,1.2.5.1,0,.3,0,.5,0,.3.1.8.2.9.4.1.3,0,.8-.2,1-.4.4-1,.6-1.5,1-1.2.8-2.4,1.5-3.5,2.3-.2.2-.2.6-.4.9.4,0,1,.2,1.1,0,.7-1.3,2.1-1,3.1-1.2,1.6-.4,2.9-.8,3.6-2.4.1-.3.6-.6.9-.5.3,0,.7.4.8.8.1.3,0,.8,0,1.2,0,.2.5.4.7.4,1-.6,2-1.3,3-2,.5-.4.4-.7.2-1.2-.3-.7-.2-1.6.7-2,.2-.1.4-.2.5-.4-.2-.2-.3-.4-.5-.5-1.4-.6-2.1.5-3.2,1.6M385.5,172.6c0-1,.3-1.8,1.3-2.3.5-.3.9-.9,1-1.5,0-.5-.2-1.3-.5-1.6-.3-.2-1.4,0-1.5.4-.6,1.3-1.9,2.2-1.7,3.9.1,1-.9,1.7-2,1.8-.6,0-1.2-.2-1.7,0-.5.2-1,.7-1.1,1.2-.3,1,.6.6,1.1.7.8.2,1.8,1.3,1.7,2.1-.1.9-.9.9-1.6.8-.3,0-.6,0-1,0-.4,0-1.2-.4-1.2.6,0,.8,0,1.6,1.1,1.7.8,0,1.8.2,2.3-.7.5-.9,1.1-1.5,2.1-1.7.3,0,.7-.5.6-.6-.3-1.6,1-2.8,1-4.9M416.4,201.1c.2-.2.5-.5.7-.7-.2,0-.6-.3-.7-.2-1.1,1.1-1.5-.4-2.3-.5-.3,0-.9-.5-1-.5-1,1.5-2.7,1-4,1.3-1.6.3-1.9,1.3-2.3,2.5-.4,1.2.3,1.8,1.1,2.5.8.7,1.8.6,2.6-.4.7-.8.6-1.7-.2-2.5-.3-.3-.6-.5-.8-.8.4,0,.7-.2,1.1-.3.9-.1,1.5,0,1.3,1.2,0,.5,0,1.1,0,1.7,0,.3.2.6.4,1,.2-.3.4-.5.6-.8.3-.5.6-1.5,1-1.6,1.3,0,1.6-1.2,2.7-2M421.5,209.1c0,.4,0,1.1-.2,1.1-1.4.2-.9,1.4-.7,1.8.3.6,1.1.9,1.8,1.2.2,0,.7-.8.9-1.3.6-1.3,1.5-1.8,3.1-1.6.2,0,.6,0,.6,0,0-.3,0-.6-.1-.8-.4-.5-1.1-.8-.3-1.7.4-.4.3-1.3.6-1.9.2-.4.5-.8.8-1.2-.5,0-1.1,0-1.6.1-.8.3-1.5.9-2.3,1.3-.3.2-.7.4-1,.4-1.7,0-1.6,1-1.6,2.7M433.2,201.1c.7-.2,1.9-.3,2-.7.3-1.1.2-2.4,0-3.5,0-.4-.8-.8-1.2-1.1-1.4-1-1.4-1-2.1.6-.1.3-.5.6-.7.9-.9,1.5-1,3.3-2.1,4.6,0,0,0,.2,0,.2,0,.9.1,1.2,1.1.6.8-.6,1.8-.9,3-1.6M531.9,226.4c-.2-.7-.2-1.6-.5-2.2-.2-.3-1-.3-1.6-.5,0,.4,0,.8.1,1.1.9,1.3.6,2.3-.5,3.2-.2.1-.1.8,0,1.1.4.8,1.2,1.1,2,.8,1.2-.5,2.3-1.1,3.4-1.7,1.1-.6,2.2-1.5,3.4-1.6,1.1-.1,1.7-.6,2.4-1.3.2-.3.3-.6.5-1-.4,0-1.1-.2-1.3,0-.7,1-1.7.9-2.6.8-1.2-.2-1.8.5-2.4,1.2-1.2,1.5-1.1,1.6-2.9,0M391.7,184.1c.2-.3.3-.7.5-1,.9-.8.3-1.1-.4-1.3-.4-.1-.9-.2-1.3-.3-.8-.2-1.6-.3-2.4-.5-.6-.1-1.2-.4-1.7-.4-1.2,0-1.9,1.3-1.1,2.3.4.5.8,1.2,1.7,1,.9-.2,1.5.2,2.1.8.8.8,1.7,1.5,2.7,2.2.3.2.8.2,1.3.3,0-.5,0-1-.3-1.4-.2-.5-.6-.8-.9-1.7M481.5,224.9c.2-1.1-.6-1.6-1.3-1.1-1.6,1-3.1.4-4.7.4-1.1,0-2-.3-2.7-1.4-.5-.8-.9-.7-1.4,0-.8,1-.8,1,.4,1.5.5.2.8.7,1.3,1,.6.3,1.6,1,1.9.8,1.1-.7,1.3,0,1.7.7.3.7.7,1.5,1.1,2.2.1.2.5.5.6.5.3,0,.6-.4.6-.7.1-.5,0-1,0-1.4,0-1,.2-1.7,1.4-1.7.3,0,.5-.3,1-.7M450.7,209.5c-.7-.9-.5-2.6-2.2-2.6-.5,0-.9-1-1.3-.2-.2.4-.2,1-.2,1.4,0,.1.3.2.3.3.3,1.3-.4,2.2-1.5,1.6-1.2-.7-1.5,0-2.1.6-.2.2-.2.5-.2.8,0,0,.4.2.6.2,1.2,0,2.4-.2,3.5.2,1.2.4,1.7.3,2.1-.9.1-.4.6-.7.9-1.5M339.8,175.5c-.4.2-.8.4-1.1.7-1,.8-1.8,1.7-1.7,3.1,0,1.3,1.2,1.4,2.1,1.7.5.2,1.1.2,1.7.4-.4-.4-.7-1.1-1.2-1.2-1.2-.3-1.2-1.1-1.1-2,.1-.9.9-.8,1.6-1,1.5-.5,3.3-.5,4-2.4.2-.6.2-.8-.5-.9-1.5-.2-2.6.2-3.7,1.7M457.5,212.9c.2.4.3.8.5,1.2.6,1.7,1.5,2,2.8.8.5-.5,1-1.2,1.3-1.8.3-.5-.4-2.3-.8-2.4-1.8-.4-2.7,0-3.8,2.2M337.7,188.2c.6.6,1.2,1.5,2.1.7.6-.5,1.2-1.2,1.4-2,.3-.9.5-.8,1.1-.4.3.3.8.4,1.1.7,0-.4-.2-.8-.2-1.1,0-.5.2-1,.4-1.4.3-.5.8-.8,1.1-1.2.2-.2.2-.5.2-.8-.3,0-.7,0-1,.1-2.2,1.7-4.4,3.5-6.4,5.4M454.3,211.2c0,.2-.2.4-.2.6-.6,2.3-1.2,2.7-3.5,2.7-.2,0-.5,0-.7,0-.4.1-.9.3-1,.5-.2.7.2,1.3.9,1.3.9,0,2,.5,2.7-.9.6-1.2,2-2,2.9-3.1.3-.4.6-1.3-1.1-1.3M442.1,202.3c-.6-.1-1.2-.1-1.7-.3-1.1-.5-1.4.5-1.5.9-.2.8,0,1.7.2,2.5,0,0,.1,0,.2,0,.9-.1,1.9-.1,2.6-.5,1-.5,1-1.4.3-2.6M396.3,193c0,1-.2,2-.2,3,0,.3.4.7.8.8.3,0,.7-.2.9-.5.7-.9,1.3-1.8,1.9-2.8.1-.2.1-.7,0-.9-.2-.2-.7-.5-.9-.4-.7.1-1.4.4-2.4.9M509.8,224.9c-.4.6-.8,1.1-1.2,1.7,0,.1,0,.3,0,.5.2,0,.4,0,.5,0,.4-.3.8-.8,1.2-.9.7-.2,1.4,0,2.1,0,.2,0,.6-.4.6-.6,0-.9-.1-1.8-.2-2.7-.9.2-1.7.4-2.6.7-.3.1-.3.6-.5,1.4M333.8,167.1c1.3.2,1.9-1.1,3-1.4.5-.1.9-.2.2-.6-.3-.2-.4-1.2-1.2-.5-.4.3-.7.7-1,1-1.1.9-1.7.8-2.3-.5-.1-.2-.3-.5-.4-.7-.2.3-.6.8-.5.9.6.9,0,1.4-.5,2.1-.1.2-.2.7,0,.8.3.2.7.3,1,.1.5-.2,1-.6,1.7-1.2M506.7,221.3c-.7-.3-1.4-.7-2.2-.9-.7-.2-1.3.3-1.3.9,0,.3.7,1,1,.9.9,0,1.5.3,2,1,.6.7,1.4.9,1.9,0,.7-1,.3-1.7-1.4-1.9M488.4,217.5c1.8-.3,1.9-.6,1-1.8-.4-.6-.9-1-.8-1.8,0-.4-.1-.7-.2-1.1-.2.3-.5.5-.7.8-.2.3-.4.7-.6.9-1.3,1.6-1.3,1.8,1.3,3M491.5,223.5c0,.4,0,.8,0,1.2,0,.2.5.5.6.5,1-.5,1.9-1.1,2.9-1.7.7-.5,0-.9-.2-1-.5-.2-1.1-.1-1.6-.1-.8,0-1.6,0-2.1-.7-.1-.2-.5-.1-.8-.2,0,.3,0,.7.2,1,.2.3.5.6,1.1,1.1M337.7,90.2c.5.3,1.1,1,1.5.8.6-.2,1.1-.9,1.5-1.5,0-.1-.5-.6-.7-1-.1-.3,0-.8-.1-1.1-.1-.3-.4-.6-.6-1-.3.2-.6.3-.8.6-.8.8-1.1,1.8-.8,3.1M506.2,218.9c.6,1,1.6-.3,2.3.4.3.3,1,.4,1.3.2.4-.3.7-.9.9-1.4,0-.1-.6-.6-.6-.6-1.1,1-1.7-.1-2.5-.6-.9-.5-1.4-.4-1.6.6-.1.4,0,.8.2,1.4M414.3,191.3c-.6-1-1.7-.8-2.5-.7-.3,0-.8.8-.8,1.2,0,.4.5,1,.9,1.1,1.1.1,2.2,0,3.3,0,.7,0,.7-.5.3-.9-.2-.2-.6-.3-1.2-.8M373.7,143.5c-.6,0-1.4-.2-1.2.9.2,1.1,2.7,2.7,3.8,2.5.3,0,.6-.4.9-.6-.2-.2-.3-.5-.5-.7-.8-.7-1.7-1.4-3-2M435.1,204.5c-1.5-.4-2.6.6-3.7,1.3-.3.2-.6.5-.8.8.5.4,1.1.8,1.6,1.2.7-1.4,3.1-1.1,2.9-3.4M453.6,219.6c.7,1.1,1.3.7,2,0,.4-.4,1.2-.6,1.8-.9-.6-.5-1.2-.9-1.8-1.4-.1,0-.2-.3-.3-.3-.7-.2-1.2.1-1.7.6-.5.6-.8,1,0,2M527.8,225.2c-.8-.6-1.6-1.3-2.5-1.9-.2-.1-1,.1-1.1.4-.4.9.4,2.2,1.4,2.7,1.2.5,1.6.4,2.2-1.2M376.8,157.2c1,.7,3.9.8,3.8.5-.5-.8-1.4-1.4-2-2.2-.5-.5-1-.7-1.6-.3-.6.4-.9,1-.1,2M418.3,209.3c.4-.3,1-.5,1.3-.9.3-.3.4-.9.4-1.2-.2-.8-1.9-1.8-2.7-1.7-.2,0-.4.2-.6.2.1.1.2.3.3.3,1.6.7,1.3,1.5.2,2.5-.4.4,0,.8,1.1.8M342.5,121c-.8.8-1.7,1.7-2.5,2.5-.2.2-.3.4-.5.7.3,0,.6.1.9.1,1.2,0,3.1-1.4,3.3-2.5.1-.5,0-1-1.2-.9M418.6,188.9c-.2-.2-.4-.7-.6-.7-.9,0-2.5,2.4-2.2,3.1,0,.2.7.5.8.4.8-.9,1.5-1.8,2-2.9M460.1,203.5c-.3-.5-.3-1.4-1.2-.9-.3.1-.4.7-.5,1.1-.3,1.7-.3,1.8,1.3,1.8.2,0,.6,0,.7,0,.2-.2.3-.6.3-.8,0-.3-.2-.5-.6-1.1M332.6,130.8c.6-.7,1.1-1.4,1.7-2.2,0-.1,0-.3,0-.5-.6.1-1.3,0-1.6.4-.7.7-1.2,1.7-1.8,2.6,0,0,0,.4.2.5.1.1.4.3.5.2.3-.2.6-.5,1.1-1.1M379,190.6c0,0,.2,0,.2,0,.5-.1,1-.2,1.4-.4-.2-.5-.3-1.1-.6-1.4-.3-.2-1,0-1.4.2-.4.2-.8.6-1,1-.2.2,0,.6,0,1,.3-.2.7-.3,1.5-.5M325.2,110.4c-.7.2-1.4.4-2.1.7-.3.1-.4.6-.5.9.4,0,.9.3,1.3.2.7-.2,1.3-.6,2-.9.5-.2.5-.2-.6-1M500.7,227.3c-.1-.6-.2-1.1-.4-1.7-.3.4-.6.7-1,1.1-.2.2-.5.2-.8.4-.3.2-.5.4-.8.6.3.1.6.4.9.4.6,0,1.1-.3,2-.7M346.6,171.6c-1-.5-1.5.1-1.4,1,0,.4.7.9,1.1,1.1.2.1.9-.3.9-.4,0-.5-.2-1-.6-1.7M332.4,172.3c-.6-1-1.6-1.9-2.3-1.9-.3,0-.7.3-.8.5,0,.3.2.8.4.9.7.3,1.5.4,2.7.5M395.5,190.3c-.4-.2-.8-.5-1.1-.7,0,.4,0,.7,0,1.1,0,.3,0,.7.1.9.2.3.7.7.9.6.7-.4.8-.9,0-1.9M341,138.3c-.4.1-1.1.2-1.1.4-.2.8.5.5.9.6.2,0,.6.1.7,0,.4-.3.8-.8,1.2-1.1-.5,0-1,0-1.7.2M483.6,216.5c.3.2.7.3,1,.5,0-.3,0-.7,0-1-.4-.7-.8-1.3-1.2-1.9-1.1.8.7,1.4.3,2.4M333.8,149.8c.4-.2,1.2.4,1.2-.6,0-.3-.1-.8-.2-.8-.6,0-1.1,0-1.7.2.2.3.3.6.7,1.2M331.4,73.9c.2-.1.5-.2.7-.4,0,0-.1-.5-.2-.5-.3,0-.6,0-.9,0-.6.2-1.1.4-1.6.6.5.1,1.1.2,2.1.3M331.7,174c-1.2-.6-1.4.6-1.9,1.1,0,0,.2.4.2.6.5-.3,1-.7,1.5-1,0,0,.1-.1.2-.6M326.9,141.4c.3-.2.6-.3.9-.5-.5-.2-.9-.6-1.4-.7-.3,0-.6.4-.9.6.4.3.7.6,1.3.6M327.1,157.5c-.5.7-.3,1,.5.9.4,0,.8-.3,1.2-.4-.3-.6-.4-1.5-1.7-.6M341.3,109.7c.1.7.3,1.4,1.3,1.1.2,0,.4-.4.6-.6-.5-.2-1.1-.4-1.9-.4M412.3,197.5c.5,0,1,.2,1.5.2.3,0,.6-.1.8-.2-.3-.2-.5-.7-.8-.7-.5,0-1,.1-1.5.7M340.1,184.3c.7,0,1-.2.3-.6-.3-.2-.8,0-1.1,0-.2.1-.2.6-.2.9.3,0,.5,0,1.1-.4M463.5,224.2c.2,0,.4,0,.4,0,0-.6,0-1.3,0-1.9,0,0-.4,0-.4,0-.1.6-.2,1.1,0,1.9M473.8,219.6c-.5.5-1.1,1,.2,1.2.4,0,.8-.4,1.2-.6-.4-.3-.7-.6-1.3-.6M469.5,210.5c0-.2,0-.4,0-.4-.6,0-1.3,0-1.9,0,0,0,0,.4,0,.4.6.1,1.1.2,1.9,0M343.2,140.9c.2-.3.3-.7.5-1-.3,0-.6-.2-.8,0-.4.3-.7.8-1,1.1.4,0,.7.1,1.4,0M496.3,214.3c-.8-.1-1,.4-.9,1,0,.2.7.6.8.5.4-.3,1-.6.1-1.5M391.7,194.7c.1.2.2.4.3.6.7-.5.9-1.1.1-1.7-.1-.1-.4-.4-.4-.4-.4.3-.7.6,0,1.5M333.8,126.3c-.3.4-.5.8.2,1,.7.1,1.1-.1,1.3-.8-.4,0-.7,0-1.6-.1M442.8,205.9c-.1.3-.3.7-.4,1,.3,0,.7.2.8,0,.5-.5.5-.5-.4-1M320.9,108.5c.2-.3.3-.7.5-1-.3-.1-.6-.3-1-.4,0,.5,0,.9.5,1.4M457.2,205c-.3.1-.6.2-.8.4-.2.3-.2.6-.3,1,.3,0,.7,0,1-.3.2-.2.2-.5.1-1M422.9,204.3c-.8-.6-1.1,0-1.3.6,0,.3.9.2,1.3-.6M333.4,169.9c-.2.3-.4.5-.6.8.4,0,.7,0,1.1.1,0-.3,0-.6-.5-1M425.1,201.6c0,0,.2,0,.2,0,.2-.2.3-.5.5-.8-.5,0-.9,0-1.4,0,.2.2.3.3.7.7M374.4,150c0-.2-.1-.4-.2-.6-.3.4-.5.7-.8,1.1.3,0,.6,0,1-.5M415.7,210.5c.2.2.4.5.6.7.1-.1.3-.3.4-.4-.2-.2-.5-.4-1-.3M317.3,101.5c-.3.1-.5.2-.8.3l.5.8c.1-.2.2-.4.3-1.1M512.7,220.1c-.2.2-.3.3-.5.5.4,0,.9,0,1.3,0-.2-.3-.4-.6-.8-.6M337.7,163.7c.2-.1.4-.2.7-.3-.2-.2-.4-.4-.6-.6-.2.3-.3.6,0,1M329,178.1c0,0,.1-.1.2-.2,0,0,0-.2,0-.2-.4,0-.7-.1-1.1-.1,0,0-.1.2-.2.3.2,0,.4.1,1.1.2M344.6,120.3c.3-.2.6-.3.9-.5-.3,0-.6,0-.9.5M385.2,187.2c-.2,0-.4.1-.6.2.1.1.4.3.4.3.2-.2,1,.5.3-.5M460.1,223.7c0-.2-.2-.3-.2-.5,0,.2-.2.3.2.5M488.7,219.6c0,.2,0,.4.1.6.1,0,.3,0,.3,0,0-.3-.1-.5-.4-.5M444.5,200.4c-.3,0-.5-.1-.8-.2,0,0,0,.2,0,.3.2,0,.4,0,.8-.1M392.2,196.6c-.3,0-.5-.1-.8-.2,0,0,0,.2,0,.3.2,0,.4,0,.8-.1M333.8,139.7c0-.3.1-.5.2-.8,0,0-.2,0-.3,0,0,.2,0,.4.1.8M401.8,104.9c-.3,0-.5-.1-.8-.2,0,0,0,.2,0,.3.2,0,.4,0,.8-.1M332.2,178.8c0,0,.2.1.3.2,0-.1,0-.3-.3-.2M415.2,195.1c0,0-.2-.1-.3-.2,0,.1,0,.3.3.2Z"/>
    <path d="M313.9,236.7c-.5-.3-.9-.5-1.1-.9-.6-.9-.6-2.1.3-2.4,1.1-.4,1-.8.8-1.7-.3-1.8.4-3,1.9-4.3,1.5-1.2,2.9-1.3,4.5-1.3.5,0,1.1,0,1.6-.2.2,0,.5-.3.5-.5,0-.2-.3-.4-.5-.5-.3-.1-.6,0-.9-.2-1-.6-2.2-1.1-2.5-2.6-.3-1.5-.7-1.5-1.8-.6-.7.6-1.5,1.1-2.2,1.7-.9.7-1.5,1.5-1.3,2.8.1,1.8-1.7,2.3-2.6,3.5-.6.8-1.4,1.5-2.2,2.2-.1.1-3,1.3-3.1,1.2-.1-.2-.2-.5-.2-.8,0-.5.5-1.1.3-1.5-.2-.4-1.3-.9-1.3-.8-.7,1-1.7.5-2.6.7-.4,0-.6.4-1.1,0-1.2-1-2.3-1.5-3.8-.1-1,.9-2.5,1.3-3.6,2.2-.5.5-1.7.1-2.5.3-1,.2-2,.5-1.8-1.1.1-.8-.5-.8-.9-1-1.1-.7-1.3-1.2-.7-2.3.3-.5.5-1.1.6-1.7.2-.8.6-1.2,1.5-1.2,1,0,1.9,0,2.9,0,.2,0,.3-.2.5-.4-.2-.2-.4-.6-.5-.6-1.6,0-3.3.2-4.9.3-.2,0-.5.2-.7,0-1.2-.8-2.4,0-3.4-.1-1.2-.2-1,.2-1.1.9,0,.5-.1,1.4-.5,1.5-.8.4-1.2-.1-1.7-.9-1.2-1.9-2-1.9-3.8-.5-.4.3-1.1.5-1.7.5-1.1,0-1.1.2-.6,1.2.7,1.3,1.7,2.1,3,2.6.9.4,1.8.6,2.4,1.6.7,1.1,1.2,1,2.3.1.3-.3.5-.6.9-.8,1-.8,1.9-.6,2.6.6.1.3.5.5.5.8,0,1.2.6,1.4,1.7,1.7.8.2,1.1,1.4,2.4.5.9-.6,2.3.3,2.9,1.3,0,.1,0,.4,0,.5-1.5,1.1-3,2.3-4.7,3.2-1.2.7-1.9,0-1.5-1.2.3-.8-.2-.6-.4-.5-.4.1-.8.5-1.2.6-.6.2-1.5-.3-1.5-.9,0-.5,0-1,0-1.4,0-.3-.4-.7-.6-.7-1.3.1-2.6-.3-3.9.3-.6.3-1.7.4-2.4-.3,0,0-.5,0-.6.1-.1.1-.1.5,0,.6.5.6,1,1.2,1.7,1.7,1,.7.9,2.2,2,2.8,0,0-.2,1.1-.6,1.3-1,.7-1,1.7-.8,2.6.3.9.3,1.3-.7,1.5-.5.1-.9.6-.2,1.3,2.3,2.3,3.7,2.5,6.5,1.1,1.2-.6.5-.9,0-1.3-1.1-1-2.5-1.9-3.4-3.1-.4-.5,0-1.7.2-2.5,0-.2.7-.3,1.2-.4,1,0,2.1,0,3.1,0,.5,0,1.2.3,1.3.7.2.3,0,1.1-.4,1.4-.6.7-1.1,1.2-.5,2.3.8,1.6-.8,3-1.1,4.5,0,.2-.4.5-.7.6-1.5.4-3.1.7-4.6,1-2,.3-3.6,2.5-3.1,4.7.3,1.7-1,2.6-2,3.2-1.2.6-1.3,1.5-1.7,2.4-.2.3-.5,1.1.5,1.3.2,0,.3.7.4,1.1-.3,0-.6-.2-.9-.2-.2,0-.5,0-.7,0-.3.2-.6.5-.7.8,0,.1.4.6.6.6,1,0,2.1,0,3.1,0,.2,0,.3-.4.4-.6.4-.6.8-1.3,1.3-1.8,1-1,1.9-1.9,1.6-3.5-.2-.8.4-1.3,1.3-1.3.8,0,1.6,0,2.4,0,1.2,0,2.5.3,2.7-1.7,0-.6,1-1.4,2.1-1.2,1,.2,1.5,1,.9,1.8-.4.6-1.1,1.1-.7,1.8.3.7.8.8,1.7.3.4-.3.9,1.6.3,2.4-.3.4-1,.5-1.3.9-.4.4-.5,1-.8,1.6.4.1.8.3,1.3.3.7,0,1.2,0,1.2.9,0,1.7.5,2.2,2.1,2.4.8.1,1.6,0,1.7,1.1,0,1.1.2,2.2-.6,3.1-.3.3-1.2.3-1.5,0-1.4-.9-2.9-.2-4.4-.3-.5,0-1.5.3-.5,1.2.7.6.5,1.1,0,1.8-.7.8-1.6,1.7-.6,3,.4.6-.6,1.9-1.4,2-.5,0-1,.1-1.4,0-.7-.2-1.4-.9-2,0-.7.9-1.2,1.9-1.7,2.9,0,.2.3.7.6.9.1,0,.7-.1.8-.3.8-1.5,1.9-2.2,3.6-1.9.8.1,1.6.2,2.1-.7.1-.2.6-.3.8-.3,1.7.2,3-.6,4.1-1.8.9-1,1.1-.9,1.8.3.7,1.1,1.3,2.2,2.1,3.2.2.3.8.4,1.2.6.1,0,.3,0,.4,0,0-.2,0-.4-.2-.5-.6-.4-.5-.8-.1-1.2,1.1-1.3,2.2-2.7,4.3-2.5.4,0,.9,0,1,.3,1.9,2.3,4.8,2.1,7.2,3,1,.4,1.6-.4,2.2-1,.6-.6.8-1.1.3-2-.6-1.1,0-1.7,1.3-1.8,1.3,0,2.6.6,3.9,0,.2,0,.6,0,.7,0,.7,1.4,2.3.9,3.4,1.3,1.6.6,1.9,2.4,3,3.3,0,0-.2.6-.4.7-.4.2-1,.3-1.3.2-1-.5-1.9-1.2-2.8-1.8-1-.6-2.3-.7-2.9.1-.5.7-1.3,1.7-.2,2.6.4.4.6.8.9,1.3,1.1,1.8,1.9,2.3,3.6,2.2,1.3,0,2.2.2,2.7,1.6.4,1.1,1.1,2.1,1.6,3.2.2.4.1.9.2,1.3-.5,0-1,.2-1.4.1-.7-.2-1.3-.6-2-.9-1.6-.6-3.1-1.2-4.9-1-.4,0-1.1-.6-1.2-1-.5-1.7-1.8-3.2-1.5-5.2,0-.1-.2-.4-.4-.4-.2,0-.4.1-.6.3-.7,1-.7,3.2,0,4.4.3.4.5.9.9,1.3.6.6.6,1.1.2,1.8-.3.5-1.3,1.2-.3,1.9-.3.3-.7.8-1,.7-.9,0-1.5.3-2,.9-.5.7-1,.9-2,.6-1.5-.4-2.7.7-3.1,2.4,0,.3-.3.9-.4.9-2.3-.4-3.6,1.1-5,2.4-.2.2-.3.4-.5.5-.2,0-.5,0-.6,0-.1-.1-.2-.5,0-.6.6-.9,1.3-1.7,2-2.5,1.2-1.3,2.9-2.3,3.5-4,.3-.8,1-1.2,1.6-1.3.9,0,1.2-.6,1.7-1.1.6-.5.8-.9.2-1.7-.7-1-1-2.3-1.5-3.4-.4-.9-.9-1.6-2.1-1.5-.4,0-.8-.4-1.2-.6-.6-.2-1-1-1.9-.4-.3.2-1.5-.6-2-1.2-.7-.7-1.5-.9-2.1-.6-1.5.9-2.9.2-4.4.4-.3,0-.8-.5-1.1-.9-.2-.2-.2-.9-.4-.9-.5,0-1.3,0-1.5.3-.8.9-1.4,1.1-2.6.3-1-.7-1.5,0-1.4,1.4,0,.9-.1,1.8-.5,2.6-.5,1-1.2,1.9-1.8,2.8-.4.7-.8,1.4-1.2,2.1-.4.9-.5,1.4.8,1.5.5,0,1,.5,1.5.9,0,0,.2.4,0,.5-1.3,1-.5,2.7-1.2,3.8-.2.3-.4.6-.6.9-.1-.3-.1-.7-.3-.9-1.4-1.3-1.1-3.7-3.3-4.7-.7-.3-.9-1.8-1.4-2.7-.7-1.3-2-2-3.3-1.7-.3,0-.7.3-.9.6,0,.1.2.8.3.8.6,0,1.3,0,1.9,0,.4,0,.7.5,1,.8-.3.2-.5.4-.8.6-.2.2-.4.3-.5.5-1.1,1.2-2.1,2.5-3.9.9-.3-.2-1-.2-1.4,0-1.3.7-1.9.2-2.3-1-.2-.7-1.1-1.4-.9-1.8.3-.8,1.1-1.4,1.7-2,.2-.2.5-.3.7-.5,1.8-1.5,2-1.5,4-.3.2.1.7.3.8.3,1-1.4,2.5-.7,3.7-.9.5,0,.9-.5,1.3-.8-.2-.4-.5-.8-.7-1.1-.4-.5-.7-.5-1.3-.2-2.6,1.2-3.6.8-4.6-.5-.6-.8-.4-1.9.5-2.2.8-.2,1.6-.4,2.4-.5,1.3-.1,1.3,0,.9-1.6-.1-.4,0-.9-.1-1.4-.1-.7-.1-1.4-.5-1.9-.3-.3-1.1-.3-1.6-.4-1.1-.2-2.1-.4-3.2-.5-1.3-.2-1.5-.6-.9-1.7.2-.3.4-.7.4-1,0-.2-.4-.6-.4-.6-1.6.8-2.8-.8-4.4-.8-1.2,0-2.3.7-1.9,1.8.4.9.8,2,2,2.3,2.1.6,2.6,1.1,2.7,3.3,0,.8.2,1,1,1.1.8.1,1.6.7,2.3,1.2-.8.4-1.6.8-2.4,1.1-.3,0-.7-.1-1-.3-1.3-.8-2.4-.6-2.7.7-.2.9-.7,1.3-1.1,2-.2.3-.2.8,0,1.1.2.7.4,1.1-.7,1.5-1.6.5-3.1.3-4.6.4-1.2.1-.9-1.3-1.6-1.7-.2-.1,0-1.4.4-1.8,1.1-1.4,1.3-2,.3-3.1-.6-.7-1.8-.7-3,0-.5.3-1.1.4-1.7.5-1,0-1.3.5-1.4,1.5,0,1.4-.3,2.7-.4,4.1,0,1-.3.5-.7.2-.6-.4-1.3-.7-2-1-1.6-.6-3.3-.9-4.8-1.6-1.5-.7-2.8-1.8-3.5-3.5-.2-.5-.8-.8-1.2-1.1-.5-.3-1.2-.4-1.6-.8-1-.9-1.9-1.1-2.8,0-.5.6-.7,0-.8-.2-1.2-1.7-2.8-2-4.8-1.9-1.6.1-3.4.3-4.4-1.5-.1-.2-.5-.4-.8-.4-1.7.2-2.5-.7-3.3-2.1-.4-.8-1.1-1.9-2.3-.8-.1.1-.6,0-.7,0-.7-1.6-2.7-1-3.7-2.1-.3-.3-.5-.6-.8-.9-.3-.3-.8-.7-1-.6-.6.3-.8.9-.4,1.6,1,2,.9,1.9-.8,3-.9.6-1.7,1.3-2.5,2-.6.6-1,.3-1.3-.2-.7-1.1-.2-3.1,1.1-3.3,1.1-.2,1.5-.2.6-1.3-1.5-1.9-2.7-1.9-4.3,0-.2.2-.4.5-.7.7-.3-.3-.7-.6-.7-.8,0-.8.4-1.6.4-2.4,0-.5,1.3-1,.2-1.5-.8-.4-1,.3-1.3.9-.5,1.2-1.5,1.6-2.7,1.5-.4,0-.9-.1-1-.3-.5-.8-1.2-.5-1.9-.6-.5,0-1.4-.1-1.5-.4-.5-1.3-1.8-1.2-2.6-2-1-1-2.5-.9-3.8-1.3-.7-.3-.8-.3-.3-.9.3-.4.5-1,.5-1.5,0-.7-.3-1.8-.8-2-.7-.3-1.7-.5-2.4.4-.5.7-1,1.4-1.5,2-.9,1.1-.9,1.9.5,2.2,1.7.3.8,1.2.6,1.9,0,.4-.5.8-.8,1.1-.1.2-.3.3-.5.4-.2-.2-.5-.4-.5-.6,0-.8,0-1.5-1-1.8-.8-.3-1.2-.8-1.6.4-.2.7-1.1,1.2-1.6,1.7-1.2,1.1-2.8,1.1-3.9,0-.1-.1-.2-.2-.3-.3-.8-.9-1.7-1.3-2.8-.3-.3.3-1.1.5-1.4.3-.5-.4-1-1-1-1.6,0-.3.2-1.5,1.3-1.2.3,0,.7-.3,1-.5.2-.1.3-.3.4-.5-.2-.2-.4-.4-.6-.5-.6,0-1.1,0-1.7,0-1.1,0-2.4.3-3.2-.9-.8.5-1.5-1.1-2.5,0-.3.3-1.6-.2-2.4-.4-.4-.1-.7-.5-1.1-.7.4-.2.8-.5,1.2-.7.2,0,.4-.1.7-.2-.2-.1-.5-.2-.6-.3-.6-.6-1.1-.6-1.8-.1-.5.3-1.1.5-1.7.6-.3,0-.7-.2-1.1-.3.1-.3.2-.6.4-.8.8-.6.5-1.4.6-2.2,0-.8,0-1.2-1-1.1-.6,0-1.1-.3-1.7-.4-.5-.1-1.3.3-1.1-.7,0-.5.5-.9.9-1.2.3-.3.8-.4,1.2-.5,1.4-.5,1.7-1.4.8-2.6-1.4-1.8-1.4-2.9.2-4.6.5-.6,1.3-1.2,1.4-1.9,0-.6-.8-1.2-1.3-1.8-.4-.6-.9-1.1-1.1-1.7-.2-.4,0-1,.2-1.4,0,0,.5-.1.6,0,.5.5.8,1.3,1.3,1.6.6.4,1.6.6,2.2.4.7-.3,1.2-1.1,1.8-1.8,0,0-.1-.5-.3-.6-1.3-.7-.2-2.1-1-3,0,0,.1-.4.2-.5.3-.3.7-.5.8-.9.4-2,2-1.8,3.5-1.9,2-.2,3.9-.6,5.8-1,.3,0,.6-.5.9-.8-.5-.2-.2-1.2-1.2-1.2-.5,0-1.6.8-1.6-.6,0-1,.7-1.2,1.6-1.3.5,0,.9-.4,1.4-.8,1.1-.9,1.7-.9,2.8,0,.7.6,1,.8,1.9.2.8-.5,1.8-.8,3.1-.6,1.3.2,2.7-.5,4-.9.3,0,.4-.5.7-.6.5-.3,1.1-.4,1.6-.6,0,.5-.2.9-.3,1.4-.2,1.2.5,2.2,2,2.7,1,.3,2,.5,2.4-1,.1-.4,1-.6,1.5-.8.5-.2.9,0,.8.7,0,.8,0,1.6,0,2.4,0,.2-.3.5-.4.7-.2-.2-.3-.4-.5-.6-.2-.2-.5-.3-.7-.4,0,.2-.2.4-.3.6-.2,1.1.5,1.8,1.3,2.3.6.3,2.7-.4,2.9-1.1.3-1.1.6-2.4.4-3.5,0-.6-.4-.9.2-1.3.6-.5,1.1-.4,1.6.2.3.3.7.6.7.9.2,1.1.6.4.8.1.4-.7.7-1.5,1.2-2.1.4-.4,1.3-.9,1.6-.7,1.9,1.3,2.8-.3,3.7-1.3,1.1-1.3,1.8-1.5,3.2-.7,1,.5,1.6,1.6,3,1.5.8,0,1.2,0,1.1-1,0-.5.2-1.3,0-1.6-1.2-1.4.6-2.1.8-2.1,1.7.1,3.4-1.5,5.1.1.3.3,1,.2,1.6.3.4,0,1.2.1,1.2.3.2,1,0,2-.9,2.7-.3.3-.9,0-1.4.1,0,0-.1-.1-.2-.2-.5-.6-1.1-.9-1.8-.3-.2.2-.5.7-.4.7.5.5,1.1,1.2,1.7,1.3,1.3.2,2.6.3,4,.9,2.1.9,4.1-.5,5.9-1.7.4-.3.4-1.3.3-2,0-.2-.7-.3-1-.5-.3-.1-.6-.3-.8-.5-1-1.1-2-2.2-3.1-3.3-.3-.3-.8-.4-1.2-.5-.5-.2-1-.3-1.5-.5-.7-.3-1.3-.8-1.9-1.2.8-.6,1.6-1.2,2.4-1.7.4-.2.9,0,1.4,0,.8,0,1.2-.4,1.5-1.1.4-1.3.6-2.8,2.3-3.3,1.1-.3,2.5-.4,3.4-1.1.9-.6,1.2-1.9,1.9-2.7.3-.4.9-.5,1.3-.8.2.5.7,1,.6,1.4-.1,1.4,1.1,1.6,1.7,1.8,1.3.4,2.6.7,3.6,1.7.2.2,1,.1,1.4,0,.5-.2.8-.8,1.2-1.1.3-.1.7,0,1.1.2,0,.3,0,.6-.3.8-1.1,1-2.3,1.9-3.3,2.9-1,.9-.8,1.5.5,1.8,1.2.3,2.3,0,3.1-1.1.1-.2.5-.2.8-.2-.1.2-.3.5-.3.7-.4,2.8.6,3.6,3.1,3.5.5,0,1-.6,1.5-1,0,0-.4-.6-.6-1-.2-.3-.5-.6-.6-1-.2-2.3-.3-4.7-.5-7,0-.3,0-.6.1-.9.3-.6,1-1.1.7-2-.6.3-1.2.6-1.7.9-1.5.8-2.8,1.8-4.7,1.5-.8-.1-1.8.6-2.3.2-.5-.4-.4-1.5-.7-2.3-.2-.5-.7-.8-1.1-1.2-.5-.6-.8-1.3-1.4-1.8-.8-.7,0-.9.4-1.1.3-.2.8-.2,1.2,0,1.5.7,2.9-.2,4.4,0,.8,0,1.2-.7.6-1.3-.4-.5-.8-1.2-1.7-1.1-.3,0-.8-.1-1-.3-1.2-.8-1.1-1.2,0-2,.3-.2.9-.5.9-.6-.2-1.8,1.1-2.6,2.1-3.7.6-.7.3-1.4-.5-1.4-1,0-1-.4-1-1.1-.1-1.8-.6-2.1-2.4-1.6-1.4.4-2.2-.2-1.9-1.5.4-1.7.2-2-1.1-2.5-1.2-.4-2.2.1-2.8,1.4-.2.5-.5,1.1-.9,1.5-.2.3-.7.4-1,.6.1-.4.2-.9.3-1.3,0-.2.4-.3.5-.5.3-.6,0-.9-.5-.8-.7.1-1.5.3-2.1.7-.6.3-1.1.6-1.5-.2-.3-.6-1-1.3-.2-2,.6-.5,1.3-.9,1.8-1.4.6-.5,1.5-1.1,1.6-1.7,0-.9-2.5-2.4-3.3-2.1,0,0-.2.4,0,.5.3.8.1,1-.6,1.6-1,.7-1.5,2-2.3,3.1,0,.1-.2.2-.3.3.6.5.8,1.1.2,1.6-.7.6-1.6,1.2-2.5,1.4-.7.2-1.6,0-2.1.8-.3-.2-.8-.3-.9-.6-.4-1.2-1-1.5-2.1-.7-.3.2-.8,0-1.1.1-.5.1-1,.4-1.4.6.4.1.8.2,1.2.4.2.1.5.3.5.5,0,.3-.1.6-.2.9-.3,0-.6-.2-.8-.3-.7-.3-1.6-1.1-2.1-.9-.7.2-1,1.3-1.6,1.9-1.1,1.1-1.7,2.5-3.4,3.2-1.1.4-2.3.8-3.1.4-1.8-.9-2.6.4-3.6,1.1-.5.4-.8.8-1-.2,0-.4-.3-.7-.5-1-.5-.9-1.1-1.3-2.1-.5-.4.3-.9.5-1.4.6-.6.1-.8-.1-.8-.8-.2-2.3-.3-2.4-2.5-1.7-.9.3-1.3-.4-1.5-.8-.5-1.4-1.4-1.7-2.7-1.5-.4,0-1.2.2-.9-.5,0-.4.9-.9,1.1-.8,1.7.9,1.7-.2,1.7-1.3,0-.6-.1-1.2,0-1.7.3-1.1-.4-1.7-1.2-1.8-.5,0-1.6.7-1.6,1.1,0,1.8-1.3,1.1-2.1,1.2-.4,0-3.3-2.3-3.2-2.6.2-.3.6-.7,1-.8,2.1-.4,2.1-.5,1.4-2.6-.7-2-.4-3.9,1-5.6.3-.4.6-.7,1,0,.4.5.8,1,1.4,1.3.5.3,1.1.5,1.7.6.7,0,.7-.4.4-.9-.7-1.2-.7-1.2.8-1.5.3,0,.6-.1.9-.2-.3-.2-.5-.6-.9-.7-.5-.1-1.3-.3-1.6,0-.9.9-1.4.2-1.9-.4-1.5-1.5-1.6-2,.2-2.8,2.5-1.1,3.6-3.3,5.2-5.3.7-.9,1.6-1.8,2.9-1.6,1.6.2,3.1-.6,4.6,0,1.8-1.3,4.2-.7,6-1.8,1.6-1,3-.7,4.3.7.8.9,1.5.8,2.3,0,1.2-1.2,1.6-1.3,3.1-.2,1.2.8,2.2.5,3.2,0,.9-.5,1.6-1,2.1.5.2.5.9.7,1.4,1,1.2.8,1.4.7,1.6-.7.1-.9.3-.9,1-.5.2.2.6.3.9.2,1.6-.4,3.1-.9,4.5.5.2.2,1-.2,1.5-.3.9-.2,2.1-.4,2.2.9,0,1,.5,1,1.2.9.5,0,1-.3,1.5-.4,2.4-.5,4.4.3,5.7,2.4.6.9,1,1.5,2.3,1.5,1,0,2.1.7,3,1.4.9.6,1.5.4,2.3,0,.3-.2.9-.8,1.2,0,.1.4,0,1.3-.2,1.3-1,.3-1.4,1-1,1.8.4.7,1,1.4,2.1,1.2.9-.2,1.8-.2,2.7-.4,1.3-.3,1.5-.1,1.3,1.4-.2,1.6.3,2.2,1.4,1.8.4-.2.7-.7.9-1.1.2-.4.4-.8.6-1.3.1.4.2.9.5,1.1,1.2,1.3,2.4,2.5,3.7,3.6,1.3,1.1,1.8,1.8,1,3-.9,1.4-.2,2.3.4,3.3.3.5.7,1.2.5,1.6-.2.4-1,.6-1.6.7-1,0-2-.1-3-.1-.3,0-.7,0-.8.3-.1.2-.1.6,0,.8.3.4.6,1,1,1,2.5.2,2.4,2.7,3.8,3.9.3.2.2.8.2,1.3,0,1.2-.4,2.5-.4,3.7,0,.9.3,1.8,1.6.9.3-.2.8,0,1.3.1-.2.3-.3.7-.5,1-.2.3-.4.5-.7.7-.5.5-.7,1-1.3-.2-.6-1.2-1.1-1.1-2,.1,0,0-.1.1-.2.2-1.1,1.1-2.7,2.1-3.3,3.4-.6,1.4-.2,3.1-.2,4.7,0,1.4-1.3,1.8-1.8,1.7-1.6-.2-2.3,1.5-3.7,1.6,0,0-.3.4-.2.6,0,.1.3.3.5.3.1,0,.3,0,.5,0,.5.2.9.5,1.4.7-.5.2-1,.6-1.6.7-.6,0-1.3-.1-1.9-.3-.6-.2-1.2-.8-1.8-.8-.7,0-1.4.5-1.9,1-.2.2-.3,1,.7,1.1.7,0,1.3.8,1.8,1.3.6.5.6,1-.3,1-1.1,0-1.2.6-1.3,1.6,0,.7-.4,1.3-1.1,1.9-1,.8-2.2,1.9-1.6,3.7.2.4-.3,1.1-.6,1.6-.6.8-1.4,1.5-1.8,2.4-.3.6-.5.8-1.1.8-1.2,0-1.5.6-1.4,1.6.1,2.2-.9,4.1-1.6,6.1-.5,1.4-1.7,3-3.6,3.5-.3,0-.6.1-.8.4-1.1,1.4-2,1.1-3.1,0-.3-.4-1.3-.4-1.9-.2-.7.3-.9,1-.4,1.8.3.4.3,1,.2,1.6,0,1.2-1,1.7-1.9,1-.9-.8-1.4-.8-2.4,0-.6.5-1.7.2-2.3.6-.6.4-.7,1.4-1.3,2.1-.8,1-1.8.7-2.7.2-1-.5-1.5-.3-1.4,1,0,.5-.3,1-.4,1.5-.2.6-.3,1.3-.5,1.9-.6-.2-1.1-.5-1.7-.7-.7-.2-1.2,0-1.6.6-.6.9-1.1,1.8-1.7,2.6-.3.4-.6.7-1,1-.2.1-.7.1-.9,0-.2-.1-.3-.6-.2-.8,0-.4.3-.8.5-1.2.1-.3.8-.5.1-.8-.4-.2-.8-.3-1.3-.3,0,0-.3.5-.3.8,0,.7,0,1.4,0,2.2,0,.4,0,1,0,1.1-1.4.7-1,2.4-1.9,3.3-.7.7,0,1.1.3,1.2,1.2.1,2.4,0,3.6,0,.2,0,.4-.4.5-.6,1-1.9,2.8-2.2,4.4-1.7,1.1.4,1.4,0,1.9-.5.2-.2.4-.5.7-.7,1.1-1.1,2-1,2.6.5.1.3.2.7.3,1.1.2.5.3,1.3.5,1.3,1,.2.4-.8.6-1.1.6-.6,1.3-1.1,1.9-1.7.3-.3.4-.7.5-1.1-.3-.1-.6-.3-1-.4-.2,0-.5,0-.7,0-.4,0-.8-.3-1.2-.4.4-.3.7-.9,1.1-1,2.6-.6,4.9.6,6.1,3.1.8,1.5.6,1.8-.9,2.2-.5.1-1.1.3-1.4.7-.3.3-.4.9-.6,1.4.4.1.8.3,1.3.3.9,0,1.9.3,2.5-1,.4-.8,2.9-.6,3.3.2.2.3,0,.9-.1,1.3-.4,1.3.2,2.2,1.6,2.4.4,0,1-.2,1.2,0,.4.4.6,1,.9,1.5-.4,0-1,.4-1.3.2-1.1-.7-1.6-.3-2.1.8-.5,1-1.4,1.9-2.1,2.7-.5.6-1,1-.6,1.8.4.7,1.9,1.2,2.6.9.4-.2.8-.4,1.2-.7.8-.5,1.1.1,1.2.7.1,1.6.1,1.9.7,2.8.4.6,2,.7,2.6.2.1-.1.5,0,.6-.2.8-.5.4-1-.2-1.3-.1,0-.3,0-.5,0-.4-.2-.8-.5-1.1-.7.3-.2.6-.4,1-.5,1.5-.5,2.2-1.7,2.7-3.2.4-1.2,0-1.6-1.2-1.4-1.2.2-2.4.3-3.6.5-.2,0-.4,0-.7-.1.2-.2.3-.5.5-.7.4-.3.8-.4,1.1-.7.3-.2.7-.6.6-.9-.3-1.8,1-2.5,1.9-3.5.2-.2.3-.3.5-.5-.3,0-.6-.2-.8-.2-.5,0-1.1,0-1.6.3-1.1.7-.9-.4-1.2-.8-.2-.3,0-.2.7-.5,1.3-.5,2.7.5,3.9,0,1.3-.5,2.5-.4,3.7-.4,1.2,0,2.2.5,3,1.5,1.1,1.4,0,2.6-.3,3.8,0,0-.1.1-.2.2-.3.5-.9,1.1-.8,1.5.2.8,1.1.8,1.8.7.8-.1,1.6-.4,2.4-.7,1.1-.4,3,.3,3.3,1.4.2.8-1.8,2.6-2.6,2.1-1-.6-1.2,0-1.6.6-.3.4-.6.9-1,1.3-.3.4-.5,1.1-.9,1.2-.7.2-1.6.2-2.3-.1-.9-.3-.6-1-.2-1.7.2-.3,1.3-1,.2-1.4-.4-.1-1.3.3-1.5.7-.6,1.4-1.8,2.5-1.7,4.1,0,1.2.1,2.3-1.1,3-.2,0,0,.8.2,1.2.1.3.4.5.7.7,1,.8,1.3,1.5.1,2.4-.2.1-.4.6-.3.8.4.7.7.1,1-.1.1-.1.3-.2.3-.3.4-1.6,1.1-2.1,2.4-.7.2.2.9,0,1.2-.1.7-.4,1.4-.9,2-1.5,1.2-1.3,1-1.7-.7-2.1-.3,0-.7-.3-.8-.5-.1-.4-.2-1,.6-.9,0,0,.1,0,.2-.1.8-.4,2-.6,2.4-1.3.3-.6-.4-1.6-.6-2.5,0-.2.1-.5.3-.6.1,0,.5,0,.6.2.3.4.5.9.8,1.4.5.8,4,1.6,4.6.9.3-.3.4-1.3.2-1.5-.9-.8-.2-1.2.3-1.7,0,0,.1-.1.2-.2.8-.7,2-1.2,2.4-2.1.3-.8-.2-1.9-.4-2.9-.2-1.3,0-2.2,1.7-2.1.4,0,.8-.4,1.1-.7.3-.2,1-.7-.1-.7-.1,0-.2-.2-.4-.3-.7-.5-1.9.2-2.2-.9-.2-.8,0-1.7-.1-2.6,0-.8-.2-1.7-.5-2.4-.5-1.3-.7-2.4,0-3.7.7-1.5.5-1.8-.4-3.2-.2-.3-.5-.6-.8-.9-1-1.2-1-1.4.3-2.1,2.1-1.2,2.4-1.5,1.8-3.8-.3-1.4-.3-3.3-2.3-3.8-.6-.1-1.2-.2-1.8-.3-.2,0-.4-.2-.6-.2.2-.2.3-.4.5-.5,1.2-1,2.4-2,3.5-3,.3-.2.5-.7.5-1,0-2.1,1.3-3.6,1.8-5.5.2-.7.5-1.5,1-1.9.6-.5,1.4-.4,2.1.2.4.3,1,.4,1.5.5.4,0,.9.2,1.2-.6.6-1.4,1.7-2.5,2.6-3.7.1-.2,0-.7,0-1-.6-1-.4-1.9.4-2.7,1-1,2.3-1.9,2.3-3.6,0-.1.1-.4.2-.4.8-.2,1.6-.5,2.4-.4.5,0,1.1.5,1.5,1,1.8,2.5,4.5,1.8,6.9,1.8.3,0,.9-.6.9-.9,0-1.6,1.7-2.7,1.5-4.4,0-.2.6-.8.9-.8.3,0,.9.5.9.9,0,1.1.2,2.1-.7,3.1-.9,1-1.8,2.3-.4,3.7.4.5.3.8-.4.9-.3,0-.6,0-.8.3-.5.4-1.8.4-1.3,1.4.1.3,1.7.4,2.1,0,1.7-1.5,3-.7,4.3.4.8.7.9.3,1.2-.4.9-1.9,1-1.9-.5-3.1-.8-.6-.7-2.5.2-2.9.2,0,.6.1.8.3.9.9,1.8,1.7,2.7,2.7.3.4.5.9.6,1.4,0,1.1.6,1.3,1.6,1.3,1,0,1.7-.7,1.8-1.5.1-1,.4-2.1-.7-2.8-.2-.1-.2-.6-.4-.8-1-1.1.4-1.2.7-1.8.3.2.8.4.9.7.2,1.1,1,.6,1.5.5,1.5,0,2.9-.3,4.4-.4.7,0,1.3-.3,1.3-1,0-.7.2-1.2.9-.9.5.2,1.1,1,1,1.2-.7,1.3-.2,1.9,1,2.4.3.1.4.8.5,1.2.1.6,0,1.3.2,1.8.4.7,1.1,1.3,1.7,2,.1-.8.5-1.6.4-2.3-.2-.9-.3-1.2.7-1.6,1.1-.4,1.1-1.2.2-2.2-.5-.5-1.3-1.1-1.2-1.6,0-.9.6-1.8,1-2.7.1-.3.4-.9,1-.3.3.2.9.1,1.4.1,2.1,0,2.6.5,2.8,2.5.1,1.3.6,1.7,2,1.8,2.4.2,4.8.3,7.2.5.3,0,.6.3.9.4-.3.2-.6.3-.8.5-.4.4-1,.8-1,1.2,0,.4.7,1,1.1,1.1.7,0,.7.4.7.9,0,1.1.9,1.7,1.5,2.5,1.1,1.3,3.1,1.7,3.8,3.6.2.4,1.3.5,2,.7.9.3,1.6.4.8,1.7-.6,1.1-.8,2.6-1,3.9,0,.3.4.8.7,1.1,1.3,1.6,1.4,2.4.2,4.1-.3.4-.7.9-.8,1.3,0,.5,0,1.1.3,1.4.5.7.6-.3,1-.4.4,0,.9,0,1.3-.1,0,.3-.2.7-.2,1,0,.5,0,.9-.1,1.4,0,.3-.3.8-.5.8-.5,0-1.4-.1-1.4-.3-.3-1.8-1.5-1.3-2.6-1.1-.7.2-1.5.3-2.2.5-.2,0-.4.3-.6.5-1.4,1.3-2.7,2.6-4.1,3.8-.6.5-.8,1.1-.7,1.9.1,1.1.2,1.8-.2,2.4-.5.8-.4,1.3.3,1.8.2.1.8,0,.8,0,.6-2.2,2.3-1.7,3.8-1.8.5,0,1.4.5,1.5-.5,0-.6-.6-1-1.4-.9-.7.1-1.4-.2-1.4-.9,0-.4.5-1.1.9-1.2.9-.4,1.6-.9,1.5-2,0-.2.3-.4.5-.5,1-.7,4.3,0,4.7,1.1.6,1.7,2,3.5,0,5.5-1.1,1.1-1.8,2.6-2.7,3.9-.5.7-1.3,1.3-2.2.2-.3-.3-.9-.4-1.1-.7-.8-.9-1.3-.3-1.7.3-1.4,2.1-1.8,2.2-3.6.7-.4-.3-1.1-.6-1.4-.4-1,.7-2.2,1.4-2.8,2.4-.4.6.2,1.8.3,2.7.1.8.4,1.6.3,2.2-.1.5-.8.9,0,1.3.5.3,1,1.2,1.9.4,0,0,.3,0,.5,0,2.2-.7,2.9-1.6,1.9-3.7-.5-1.2,0-1.5.8-1.6.9,0,1.5-.3,2-1,.7-.9,1.1-.1,1.2.4.3,1.8-.3,3.5-1.3,5-.3.5-.5,1.1-.6,1.7,0,.2.1.4.2.6.1-.1.2-.2.3-.3,1.2-1.2,2.5-2.4,3.7-3.7,1.2-1.2,1.8-1.1,2.5.5.1.2.1.6,0,.8-.3.4-.7.7-1,1-1.4,1.4-1.4,1.7,0,3.3,1.1,1.3,1.3,1.8.3,3.1-.7.9.1,1.4.2,2.1,0,.4.2.8.4,1.2-.4,0-.9.2-1.1,0-.7-.8-1,0-1.2.4-.9,1.4-2.1,1.8-3.7,1.6-.4,0-1.1-.5-1.1-.7.2-1.6-.8-3.4.8-4.7.3-.2.9-.5.2-1-.7-.5-.5-2-1.9-1.7-.5.1-1.1.6-1.4,1.1-.1.2.3,1,.6,1.3,1,.9.9,1.9.3,3-1.3,2.2,0,4,.8,5.9.1.3.4.5.5.8.6,1,.4,1.7-.7,1.9-.8.2-1.7,0-2.3.8-.1.2-1.2,0-1.4-.3-.6-.9-.9-2-1.3-3-.1-.4,0-.9-.1-1.1-1-1.3-1.6-2.8-1.4-4.5,0-.3-.6-.9-1.1-.9-1.7-.3-2.9-.8-2.7-2.8,0-.7-.4-.7-.9-.4-1.2.8-2.5.7-3.6-.2-1.2-1-2.3-1-3.7-.3-.8.4-2,.3-3,.3-.6,0-1.1,0-.8.7.2.6-.8,1.6.6,1.7.4,0,.9,0,1.1.1.3.4.4.9.6,1.4-.3.1-.6.4-1,.4-1.6,0-2.8.7-3.8,1.7-.2.2-.4.9-.2,1.1.6.9-.2,1.1-.6,1.5-.4-.4-.8-.8-1.1-1.2,0,0,0-.3,0-.5.1-1.1.1-1-.7-.7-.5.2-1.1.2-1.6.3.2-.6.2-1.2.5-1.7.4-.9,1-1.8,1.5-2.7.2-.3.5-.7.8-.8,2-.6,3.3-2.4,5.2-3.2,1.7-.7,3.5-1.1,4.6-2.7,0,0,.6,0,.8.2.3.4.7.8.8,1.3.2,1.1.8,1,1.5.6.5-.3.9-.6,1.3-.8.3-.2.8-.4,1-.3,1.2,1.1,1.8.7,2.4-.6.3-.5,1-.8,1.6-1.2-.5-.5-.9-.9-1.3-1.4-.5-.6-1-1.4-1.5-2-.4-.5-.9-.9-1.4-1.2-1.8-.8-2-2-.4-3.2.2-.1.5,0,.6-.2.5-.4,1.2-.8.4-1.7-.7-.9-.7-2.1.3-2.7.9-.6.3-1.3,0-1.5-.9-.7-.4-1.5-.5-2.3,0-.7-.2-1.5-.5-2.2-.5-1.1-.7-2.2,0-3.2.5-.6.3-.9-.2-1.2-.5-.5-1.2-.9-1.5-1.5-.3-.6-1.3-1.2-.3-2.2.4-.4,0-1.2-.9-1.6M252.9,199c.7.3,1.5.5,1.9,1,.6.6,1.2.5,1.9.6,2.5.4,4.2-.9,5.6-2.6.4-.5.6-1.3.5-1.9,0-.4-.9-.6-1.4-.8-.3-.1-.6-.2-.9-.2.3-.2.6-.4,1-.5,1.1-.2.8-1,1-1.7.3-1.1-.7-1-1.1-1.2-1.2-.4-2.3.2-3.4.7-1.1.5.5,1.3,0,1.7-.3.3-1.2-.1-1.4.7,0,.2.3.5.5.6.8.3,1.6.5,2.3.7.2,0,.3.4.3.7-.2.9-2,2.7-2.5,2.4-.8-.6-1.5-1.4-2.1-2.2-.2-.3,0-.8,0-1.2,0-.4-.1-.8-.4-1-1-.7-1.1-1.5-.6-2.5.3-.7.4-1.4.5-2.2,0-.4,0-1.2-.2-1.3-.5-.2-1.3-.2-1.5,0-.9,1.3-2.2,1.2-3.6,1.3-1.5.1-1.8.9-.9,2.1.6.8.6,1.4-.1,2-.5.5-1.3,1.1-.8,1.8,1,1.4.2,2.5-.6,3.5-.8.9-.4,2-.3,2.9,0,.3.5.9,1.3.5,2.8-1.2,3.3-2.1,2.5-5.3-.1-.6.7-2.6,1.2-2.7.5,0,1.2-.3,1.1.7,0,1,0,1.9,0,3.4M227.3,219.9c0,.3,0,.8,0,.9.4.3,1.1.3,1.4.6.7.9,1.5,1.1,2.3.4.8-.7,1.4-.4,1.7.2.6,1.3,1.4,1.9,2.9,1.8.8,0,1.7,1.5,1.3,1.9-.8.6-1.7,1.3-2.7,1.6-.5.1-1.2-.5-1.8-.9-1.4-.8-2.3-.2-2.5,1.4-.1,1.2.4,1.9,1.2,2.7,1.1,1.2,1.1,1.3,2.2.3.6-.5,1.1-.7,1.9-.8,2.5,0,2.5,0,2.5-2.6,0-.2,0-.3,0-.5,0-1.4,1.2-2.6,2.7-2.6.7,0,1.4,0,2.2,0,1,0,1.4-.4,1.4-1.4,0-.9-.3-1.6-1.4-1.5-.9,0-1.8.2-2.7.4-1.7.4-4.2-1.3-4.1-3.1,0-1.6-.8-2.7-1.5-4-.8-1.4-.9-1.5-2.2-.6-.7.5-1.2.8-2.1.5-.9-.3-1.5.4-1.7,1.9,0,.6.2.7,1.3,1,.9.2,1.7.5,2.5.9.2.1.3.7.2,1,0,.2-.6.4-.9.4-.8,0-1.7.3-2.4-.6-.7-.9-1,.1-1.7.6M322.1,241.2c-1.2,1.3-1.6,2.9-1.5,4.7,0,1.6.5,3.3-.9,4.7-.1.1,0,.6.1.9,1-.3,1.7.8,3,.3,1.8-.8,2.1-2.3,2.6-3.7.4-1.2,1.1-2.9-1.1-3.6-.3,0-.5-.4-.7-.7-.2-.4-.3-.8-.4-1.1.5.1.9-.9,1.5-.2,1,1.1,1.9.6,2.8-.3,1.5-1.4,2.5-1.5,4.2-.4.4.2.8.5,1.2.7.2-.5.8-1.2.7-1.6-.3-.6-.4-.8.4-.9.4,0,.8-.4,1.2-.7.2-.1.3-.3.4-.5-.2,0-.4-.2-.6-.2-.5.1-1,.3-1.5.5-.4.1-.8.4-1.2.5-1.2.2-2.5-.4-3.7.4-.2.2-1.4-.3-1.5-.7-.3-1.3-1.6-1.2-2.4-1.8-.9-.8-1.3,0-1.5.6-.2.5,0,1.1,0,1.7-.1.4-.6.7-.9,1.5M208.3,230.7c-1.3,0-.7,1.5-1.4,2-.4.3-.9,1.1-1.2,1.1-1.2-.1-2.3-.6-3.4-.9-.6-.2-2.4,1-2.6,1.8-.2.7.4,1.1.9,1.7,1.3,1.4,3.3,2.4,2.9,4.8-.2,1.4.6.4,1,.4.4,0,.8,0,1.2,0,.4,0,.7-.1,1.1-.2-.2-.4-.4-.8-.5-1.2-.2-.5-.7-1.3-.6-1.4,1.1-1.1,2.3-2.1,3.5-3,1-.6,2.1-1.1,3.2-1.4.6-.2,1.3-.2.9-1-.3-.6.1-1.7-1.2-1.4-1,.2-1.4-.5-1.3-1.4.1-1.2-.6-1.1-1.3-.8-.3.1-.6.5-1.1,1.1M204.2,251.1c.8-1,1.5-1.2,2.3,0,.1.2.4.3.5.5.7,1.3,1.5,0,2.2,0,1.1-.1-.5-.6,0-1.1.2-.2-.4-.9-.4-1.4,0-1.6-.9-1.7-2.1-1.7-.6,0-1.3-.1-1.7-.5-1.6-1.3-3.4-1-5.1-.9-.6,0-1.3.9-1.6,1.6-.3.6-.2,1.5,1,1.2.7-.2,1.3-.3,2-.5.2,0,.5,0,.7,0-.2.1-.3.3-.5.4-1.1,1.1-1.1,2.5-1.3,3.9,0,0,.3.2.4.2,1.1-.6,2.7,0,3.7-1.7M269.3,248c0,.5.1,1,0,1.4-.2.5-.6.8-.9,1.3,0,.2,0,.5,0,.7.2,0,.5-.2.7-.3.7-.3,1.3-.7,2-.9.2,0,.4.1.6.2-.1.1-.2.2-.3.3-.3.5-1.7.4-1,1.4.2.4,1.2.3,1.8.4,0,0,.2,0,.2,0,1.7,0,1.7,0,1-1.5-.1-.3-.2-.6-.2-.9.2-1.2-.5-1.9-1.4-2.5-1.4-.9-1.4-1.1-.1-2.1.5-.4,1.4-.9,1.4-1.3,0-1.1.6-1.6,1.1-2.2.3-.4.5-1.2.3-1.4-.5-.5-1.1-.2-1.6.3-.7.6-1.4,1.2-2.2,1.7-1.7,1.2-2.2,1-2.8-1,0-.2-.2-.5-.3-.7-.2.2-.6.5-.6.7,0,1.6-.6,3.4,1.2,4.5.5.3.8.8,1.2,1.7M166.1,243.6c0,.4.4.9.2,1.1-.2.3-.7.4-1.1.4-.5,0-1-.1-1.5,0-.2,0-.3.4-.4.6.9.5,1.8,1.2,2.7,1.5,1.1.3,1.4-.5,1.5-1.5,0-.3,1-.8,1.5-.8.7,0,1,.7.9,1.4-.1.4-.2.9-.5,1.2-.6.5-.1.9.2,1,1.8.9,3.3-.2,3.3-2.2,0-1.2-.7-1.6-1.7-1.9-.8-.3-1.5-.5-2.3-.8-.5-.2-1.1-.1-.7-1.2.5-1.3.3-2.8.2-4.2,0-.3-.3-.7-.6-.9-.8-.5-1.6.1-1.8,1.2-.1.5.7,1.5-.6,1.7-1.5.2-1.7.7-.7,1.7.4.5.9.9,1.4,1.8M250.3,175.7c-1.5,1.3,0,3.5-1.5,4.7,1,1.2.5,3,2,4,.5.3.8,1.1,1.2,1.7.1.2.3.5.4.5.9,0,1.8-.1,2.7-.3.4-.1.8-.6,1.2-.9-.4-.2-.7-.4-1.1-.5-1.1-.3-2.2-1.3-1.7-1.7,1.2-1.2.3-2.4.4-3.5,0-.3.3-.7.6-1,.4-.3.9-.5,1.3-.8-.5,0-1.1-.1-1.6-.2,0,0-.2,0-.2,0-1.6.9-2,.2-2-1.4,0-.6-.4-1.5-1.6-.6M215.7,267.4c.4.7.7,2,1.7,1.4,1-.6,1.5,0,2.2.2,1,.3,1.5.2,1.5-.7,0-.6-.2-1.3-.6-1.6-1-.9-2.1-1.8-3.3-2.4-1.4-.6-1.6-1.4-1-2.7.1-.3,0-.9-.3-1.1-.2-.1-.9,0-1.1.2-.5.6-.8,1.4-1.3,2.1-.5.8-1.1,1.5-1.7,2.2-.4.4-.8.8-1.2,1.1.6.1,1.2.2,1.7.3,1,.2,2.3-.5,3.3,1M225.1,272c1,.9.3,1.8,0,2.7-.1.4,0,.8,0,1.2.3-.2.6-.3.8-.5.9-.9,1.3.3,2,.5.8.2,1.7,1.3,2.1,1.1,1.4-.8,2.8-.2,4.2-.4.7,0,1.4,0,1.9-.7-.6,0-1.2-.2-1.8-.3-3,0-3.1-.3-4-3.2-.1-.4-.8-.9-1.2-1.1-1.2-.3-2.4-.4-3.6-.5-.1,0-.3.4-.4,1.2M225.1,268.1c1.6.2,3.2.5,4.7.7.3,0,.7-.2,1-.3-.3-.3-.6-.5-.9-.8-.3-.3-.7-.6-1-1,.6-.3.2-1.5,1.3-1.3.2,0,.4-.1.6-.2.7-.4.4-.8,0-1-.4-.2-.9-.3-1.3-.2-2.1.4-3.4-.7-4.2-2.5-.2-.5-.5-1.3-1-.8-.7.7-1,1.7-1.5,2.5,0,.2,0,.5,0,.6.1.1.4.2.6.1,1.5-.1,1.7.7,1.6,1.9,0,.6,0,1.1,0,2.2M229.2,238.6c.7-.8.7-.8.2-1-.3-.1-.7-.2-1-.4-1.7-.8-1.7-.8-1.1-2.5.1-.3,0-.7,0-1-.2-.8-.4-1.6-.7-2.3,0-.2-.5-.5-.8-.5-.3,0-.6.4-1,.4-1.7.3-1.7.3-1,1.6.7,1.3.9,2.6-.3,3.8-.3.3-.4.8-.6,1.1.5.2.9.6,1.4.7,1,.1,2.3-.3,2.6,1.3,0,0,.6,0,.8,0,.5-.3,1-.7,1.7-1.2M282.5,272.7c.3-1.1.7-2.1,2-2.5.3,0,.6-.8.9-.8,1.3-.1.7-1,.7-1.6,0-.1-.7-.3-1.1-.4-.2,0-.5,0-.7,0-.9,0-1.8-.1-1.5,1.3.2,1-.3,1.4-1.4,1.7-1.1.2-2,.8-2.5,2.1-.3.8-1,1.6-1.7,2.2-.7.6-.7,1.3-.7,2.1.5-.2,1.1-.4,1.6-.6,0,0,.1,0,.2,0,2.2,0,3-1.6,4.2-3.4M325.4,232.6c-.4-.4-.8-.8-1.2-1.2-1-.8-1.5-.7-2.2.4-.3.4-.4.9-.7,1.4-.6,1.3-.4,2.1.7,2.8.2.1.7,0,.8-.2,1.1-1.4,1.1-1.4,2.5-.3.2.1.4.2.6.2,1.2,0,2.3,0,3.3-.8.3-.3.9-.6,1.1-.5,1.4.7.9-1,1.5-1.2-.2-.7-.8-1-1.4-.8-.6.2-1.1.5-1.6.9-1.4.9-2.1.8-3.7-.6M186.9,240c1.5-1.1,3.1-2.2,3.6-4.2.1-.5.3-1,.4-1.4-.6,0-1.2,0-1.8,0-.6.2-1.2.5-1.8.8-1.2.7-2.3,1.4-3.8.5-.6-.4-1,.3-.7.7,1.1,1.4,1.4,3.5,3.4,4,0,0,.2-.1.6-.5M308.6,226.8c.4-1.2,1-1,1.6-.3.5.6,1,.7,1.5,0,.5-.7.2-1.5-.6-1.9-.7-.3-1.4-.5-2.1-.7-.3,0-.7,0-1,0-1.3.8-2.5,1.1-3.7-.3-.1-.1-.4-.2-.6-.2-.4,0-.8.1-1.2.2,0,.3.2.6.3.8.7,1.9,2.5,2.5,4,3.6,1.2.9,1.5.2,1.7-1.2M280.8,266.2c.3-.7.7-1.3,1-2,.3-.5.8-.9.8-1.3,0-.5-.3-1.1-.5-1.6-.3.2-.6.4-.8.6-1,1-2.3,1.8-1.9,3.5,0,.2-.2.5-.4.8-1.2,1.6-2.5,3.1-3.7,4.7-.2.2-.3.6-.4.8.5.2,1.2.6,1.4.5.5-.3.8-1,1.3-1.6.2-.3.3-.7.6-.7,1.7-.5,2.2-1.9,2.8-3.6M220.1,229.5c-.6,0-1.4-.2-1.9,0-1.1.6-2,.7-3,0-.2-.2-.6,0-.9,0-.2,0-.6.2-.7.4,0,.3,0,.7.1.9,1.1,1.1,2.2,2.3,3.3,3.3.1.1.7,0,.8,0,.5-2.4,2.2-3,4.3-3.2.2,0,.4-.2.5-.3-.2-.2-.3-.5-.5-.6-.5-.2-1.1-.3-2.2-.5M187.7,248.4c-.5-.2-.9-.5-1.4-.7-.1,0-.5.1-.5.3,0,.2,0,.5.2.6,2.1,1.3,4.2,2.6,6.3,3.9.3.1.7,0,1.1-.1,1.6-.5,1-2.1,1.5-3.2,0-.2-.3-.8-.5-.9-.4-.2-.7,0-.9.6-.4,1.5-.8,1.5-2.1.8-.5-.3-1.1-.4-1.7-.5-.6-.2-1.1-.3-1.9-.7M266.2,252.5c-1.8-.8-2.1-.7-3.1.4-.2.2-.4.5-.6.5-.9,0-1.3.4-1.3,1.3,0,.7,0,1.4.2,2.1,0,.2.6.6.9.5.8-.1,1.6,0,1.8-1.3,0-.8.4-1.7,1.7-1.6,1.3,0,1.3,0,.4-1.9M161.7,250.8c.4.4.7,1,1.2,1.1,1.2.4,2.6.7,3.8,1-.2-1.2-.6-2.3-.7-3.5,0-.9-.5-.8-1-.8-1.5,0-2.3,1-3.3,2.2M240,181.7c1.2,0,2.8-1.8,2.3-2.7-.6-1.1-1.6-1.9-2.5-2.8,0,0-.6.3-.7.6-.3,1.6-1.3,3.3.8,4.9M178.3,248.2c.8,1.5.8,1.5,2.3.6.6-.4,1.2-.9,1.8-1.3.2-.1.2-.3.4-.5-.2,0-.4-.1-.6-.2-1.9-.2-3.8,0-5.3-1.4,0,0-.3,0-.5,0-.4.1-1,.2-1.1.4-.2.5-.2,1,.7,1.1.7,0,1.4.7,2.4,1.4M205.2,184.8c.7,1.1,1.6.9,2.5.4.6-.3,1.1-.7,1.7-1.2.7-.6.6-1.5-.1-1.9-.6-.3-1.3-.7-1.9-.6-.8,0-1.9,0-1.9,1.4,0,.6-.3,1.1-.2,1.9M189.1,244.6c-.2.2-.3.4-.5.5-1.1.7,0,1.5.2,1.9.5.7,1-.1,1.2-.5,1.1-1.7,2.6-2.6,4.6-2.7.3,0,.7-.6,1-.9,0,0-.2-.3-.3-.5-1.4.9-2.9.5-4.3.4-1.2,0-1.4.7-1.9,1.8M180.7,234.3c-.7-.1-.8.3-.7.8.3,1.3-.5,1.7-1.5,2.1-.9.4-2.1.5-2.7,1.5-.2.3-.3.6-.4.8.4.2.9.6,1.2.5,1.3-.4,2.7-.9,3.9-1.4.4-.2.9-1.1.9-1.1-.9-.9-.3-2-.7-3.2M195.3,266.2c.6.6,1.2,1.3,1.9,1.8,0,0,.5,0,.5-.1,0-1.4,1.3-2.1,1.7-3.1.3-.6,1.5-.9.8-1.8-.9-1.1-1.2.2-1.8.5-.4.2-.9.2-1.2.5-.6.6-1.8.6-1.9,2.1M191.7,253.5c-.5-.9-.7-1-1-.4-.9,1.7-2.1,2.9-4.1,3.3-1,.2-1.2,1.2-.5,2,0,.1.6,0,.6,0,.2-1.4,1.3-1.1,2.2-1.1.8,0,1.7-.2,1.6-.9-.2-1.2,1-1.7,1.3-3M269.3,234.5c1.5.8,2.8-.4,4.2-.4.2,0,.5-1,.6-1.5,0-.2-1-.7-1.2-.5-1.3,1-2.8.7-4.2.8-.3,0-.5.2-.8.3.2.2.5.4.7.6.2.2.3.3.8.7M175.9,236.2c0-.8.1-1.5.2-2.3.1-.8,0-1.2-1-1.1-.8.2-2,0-2.3.5-.5.9.7,1.4,1.2,2,.4.4.9.6,1.8.9M175.9,266.9c.4.4.8.8,1.2,1.1.2.1.5.3.5.3.2-.2.4-.4.4-.6.2-1.5-.2-1.9-1.7-2.2-.4,0-.9-.1-1.2-.4-.5-.4-1-1-1.5-.1-.2.3,0,1.1.4,1.4.3.3.9.4,1.9.5M205.2,260.2c-.7.2-1.5.3-2.2.5-.3,0-.8.2-.9.4-.1.3,0,.8.2,1.1.8,1.2,1.5,1.3,2.6.2.5-.4,1-.8,1.3-1.4.3-.5,0-.9-1.1-.8M280.1,220.8l.6-.8c-.3-.2-.4-.7-1-.3-.6.4-1.4.3-2.1-.4-.4-.4-1-.5-1.5-.8.1.5.2,1.1.4,1.6,1.1,2.2,1.4,2.3,3.5.7M232.5,175.2c-.4.6-.8,1.3-1.4,1.8-.6.6-.3,1,.2,1.3.2,0,.7-.3.9-.6.6-1,1.1-2,2.5-2.1.4,0,.9-.1,1.3-.2-.5-.2-1-.6-1.5-.7-.6,0-1.2.1-2,.4M198.9,188.7c-.2.4-.8.8-.7,1.1.2.6.7,1.1,1.1,1.7,0,.1.4.1.6,0,.8-.3,1.5-1.9,1.1-2.8-.4-.8-1.2-.6-2.1,0M191.7,187.7c1.4-.6,2.4.8,3.6,1,.3,0,.6.2.9.3,0-.4,0-.8,0-1.1-.4-.8-2.9-1.9-3.8-1.5-.4.2-.6.8-.6,1.4M173.7,253.7c-.6-.4-1.2-.9-1.9-1.2-.4-.1-1.3,0-1.4.3-.3.7-.3,1.6-.5,2.4,0,0,.6.2.6.2.6-1.7,2.1-.7,3.1-1,.1,0,.2-.3,0-.7M245.7,175.9c-.3-.4-.6-.7-.8-1.1-.3.4-1,.6-.4,1.3.2.2.3.6.3.8-.2,1.2.6,1.3,1.4,1.1.7-.2,1.9-1,1.8-1.2-.2-.9-1.2-.6-2.2-.9M264.7,282.8c0-.7.4-1.5.2-2-.2-.5-1-.9-1.5-1.2,0,0-.4.2-.5.3-.9,1.1-.2,2.6,1.9,2.9M210.9,177.1c-.8,0-2-.2-.8,1.1.6.6.7,1.1.2,1.8-.2.3-.2.7-.2,1.1,0,.2.2.5.3.7.2-.2.5-.3.5-.5,0-1.3.8-2.2,1.4-3.3.8-1.4-.4-.9-1.4-1M321.4,228.5c-.5-.2-1-.3-1.5-.5-.3-.1-.7-.3-1-.4,0,.5,0,1.1.2,1.5.7,1.3,2.1.9,3.2.9.4,0,.8-.4,1.2-.6-.4-.2-.9-.4-1.3-.6-.1,0-.3,0-.7-.2M186.2,253.7c.4,0,.9-.2,1.3-.1.3,0,.7.4,1,.3.4,0,.7-.5,1-.7-.3-.2-.6-.6-.9-.7-.9,0-1.9-.1-2.8,0-.4,0-.7.5-1,.7.4.2.8.4,1.4.4M245.5,264c.7-.2,1.5-.2,2.1-.5.6-.2.7-1.2.3-1.4-1.3-.7-2.8.3-2.4,1.9M216,172.6c.6.8.8,2.1,2.3,1.7.1,0,.3,0,.4-.1,0-.2-.1-.4-.2-.5-.5-.6-1.3-.9-1.1-1.9-.6-.1-1.1-.2-1.7-.4,0,.3,0,.6.2,1.2M265.7,248.7c.2-.1.7-.2.7-.4.3-1-.6-1.6-1.3-2-.2-.1-1,.5-1.4,1-.2.3,0,.8,0,1.2.3,0,.6-.2,1-.3.3,0,.5,0,1,.4M244.5,187.2c.5-.2,1-.3,1.5-.5.2,0,.4-.1.6-.2-.1-.2-.2-.3-.4-.5-.2-.2-.5-.4-.7-.7-.5-.5-.8-.8-1.5-.2-.8.7-1.1,1.3.4,2M220.8,182.2c.5.2,1,.5,1.6.7.5.2.9,0,.8-.7,0-.4-.2-.8-.4-1.2-.6.3-1.8-.8-2,1.2M208.3,162.5c0,.2,0,.4,0,.5.2.4.5.7.8,1.1.5-.5,1.3-.9,1.5-1.4.1-.5-.6-1-1.3-.8-.3,0-.5.3-1,.7M297.4,227.1c-.9,0-1.8,0-2.1,1.1,0,.3.1.7.3.9,0,0,.6,0,.8-.2.4-.5.8-1.1.9-1.9M240,164.9c-1-.8-1,.3-1.1.7-.1.4,0,.9.2,1.3,0,.2.7.3.8.2.3-.3.4-.7.5-1,0-.3-.1-.6-.5-1.1M230.4,233.6c.5-.3,1-.5,1.4-.8-.6-.1-1.2-.3-1.9-.4-.1,0-.4,0-.4.1-.2.4-.4.8-.5,1.1.4,0,.8.1,1.4,0M251.7,204.5c0,0-.1.1-.2.2,0,0,0,.1,0,.2.1,0,.3.1.4.2,1.6.6,1.2-1.1,1.8-1.7,0,0-.1-.5-.2-.7-.5.5-1,1-1.5,1.5,0,0-.1.1-.4.4M216.7,179.1c.4,0,.8.2,1.1.1.7,0,1.3-.2,2-.4,0,0,0-.4,0-.4-.6-.1-1.2-.3-1.7-.3-.6,0-1.1.4-1.4.9M272.9,236.7c.3-.5.6-1.4-.2-1.4-.7,0-1.5.8-1.4,1.8,0,.8.3.4.6.1.2-.2.5-.2,1-.6M332.4,270.3c-.2.4-.7,1.1-.6,1.3.6.6.9-.2,1.2-.5.3-.2.6-.5.8-.8.1-.2,0-.5,0-.8-.3,0-.6,0-.8.1-.2,0-.3.3-.7.7M237.8,174.7c.8-1.2-.3-1.6-.9-2.3,0,0-.5.2-.6.5-.6,1,.7,1.1.9,1.6,0,0,.1.1.6.2M214.8,236.7c0,.4-.1.9-.2,1.3.3-.2.5-.4.8-.5.3-.1.6-.2.8-.3.2-.1.4-.3.6-.5-.2-.2-.4-.5-.6-.5-.4,0-.9.1-1.6.5M198,183.4c.5-.4,1-.9,1.6-1.3-.6.1-1.3.2-1.9.4-.3.1-.6.4-.9.7,0,.1,0,.6.1.6.3,0,.5,0,1-.4M240,185.1c-.7.6-.6,1.3-.3,2.1.3-.5.6-1.1,1-1.3.5-.2.9-.3.6-.8-.1-.2-.7-.1-1.3,0M232.8,170.2c.2-.3.3-.6.5-1-.3.1-.6.2-.8.4-.3.2-.5.7-.8.8-.5.1-.9.2-.6.8,0,0,.7-.1,1.1-.3.2,0,.3-.3.7-.7M297.8,226.1c0,.1-.1.2-.1.3,0,0,.1.2.2.1.4-.3.9-.5,1.3-.8.3-.3.5-.6.7-1-.5.1-1,.1-1.4.3-.2,0-.2.5-.6,1M243.6,184.3c.2-.2.3-.3.5-.5.6-.6,0-1-.4-1.2-.2-.1-.7.2-1.1.3.3.4.5.8,1,1.4M259.4,183.4c0,.2-.2.4-.2.6,0,.3.2.5.3.8.2-.2.5-.4.7-.7.2-.2.5-.5.5-.7,0-.8-.5-.6-1.2,0M182.6,252c-.2,0-.5,0-.7,0-.5,0-1,.2-1.5.3,0,0,0,.4,0,.4.6,0,1.2.2,1.7.1.2,0,.4-.4.4-.9M257.3,203.3c-.2.3-.3.7-.5,1,.4,0,.8-.1,1.1-.3.3-.1.5-.4.7-.6-.4-.1-.8-.2-1.4-.1M222.2,172.6c.5,0,1.1.2,1.6.2.1,0,.4-.6.3-.9-.2-.9-.4,0-.7,0-.3.1-.7.3-1.2.7M261.8,236.7c0,.3-.1.5-.2.8.5,0,1,0,1.4-.2.1,0,.3-.5.2-.6-.3-.5-.6-.6-1.4,0M256.1,278.4c.2-.4.4-.9.6-1.3-.4,0-.8,0-1.1,0,0,.4.2.8.5,1.4M184.5,260.2c-.4.2-.8.4-1.1.7.4.1.8.3,1.1.3.9,0,.9-.3,0-.9M196.1,174.3c.3.3.7.6,1,.9.4-.6.3-1.2-.3-1.6-.2-.1-.6.3-.7.6M174,244.4c1.3,0,.5-1,.7-1.5,0,0-.2-.2-.3-.3-.2.4-.4.7-.6,1.1,0,.1,0,.3.2.7M254.9,206.7c-.1-.4-.2-.8-.3-1.2-.2.1-.6.3-.6.4,0,.5-.2,1.2.9.8M244.1,219.4c-.3-.2-.5-.8-.8-.1-.2.3-.2.6-.2,1,.3,0,.6,0,.8-.1.2,0,.3-.3.3-.7M320.4,240.5c-.4.1-.8.2-1.2.3.1.2.3.6.4.6.5,0,1.2.2.8-.9M249.1,187.5l.6.7c.1-.3.4-.6.3-.9,0-.7-.5-.6-.9.2M207.6,224.7c0,.2-.3.5-.2.6.2.2.5.4.7.4.3-.2.5-.5.7-.8-.2,0-.4-.1-1.1-.2M268.6,291.4c.2,0,.3,0,.5,0,.3,0,.5-.2.7-.3,0,0,0-.5-.2-.6-.3,0-.5,0-.8.2-.2,0-.3.3-.2.7M318.5,233.8c0,.2-.3.5-.2.6.2.2.5.4.7.4.3-.2.5-.5.7-.8-.2,0-.4-.1-1.1-.2M194.6,265c-.2,0-.3,0-.5,0-.3,0-.5.2-.7.3,0,0,0,.5.2.6.3,0,.5,0,.8-.2.2,0,.3-.3.2-.7M330.5,227.1c0-.3,0-.6,0-1,0,0-.4,0-.4,0,0,.3,0,.6.5,1M251,207.6c.1-.2.2-.4.3-.7-.3,0-.6,0-.8.2-.2.1.1.7.5.4M226.3,229c-.2.2-.5.4-.7.6l.4.4c.2-.2.4-.5.3-1M232.1,237.6c.2-.1.4-.2.7-.3-.3-.3-.5-.7-.8-1,0,.4,0,.7.1,1.3M303.8,284.9c0,0-.1-.1-.2-.2,0,0-.2,0-.2,0,0,.4,0,.9,0,1.3.2-.3.4-.6.3-1.1M220.5,177.6c.2-.2.5-.3.7-.5,0,0-.1-.2-.2-.4-.3.2-.5.4-.5.9M267.4,229.7c.3,0,.6,0,.9,0-.3-.2-.6-.3-.9,0M307.4,288.5l.7-.8c-.1,0-.3-.2-.4-.2-.2.2-.4.5-.3.9M300.7,226.1c-.2,0-.4,0-.6.1.2.2.5.5.7.7,0-.2,0-.4-.1-.9M332.9,232.4c0-.3.1-.5.2-.8,0,0-.2,0-.3,0,0,.2,0,.4.1.8M300.7,281.3c-.2,0-.4,0-.6.1,0,.1,0,.3,0,.3.3,0,.5-.1.5-.4M178.3,262.6c0,.3-.1.5-.2.8,0,0,.2,0,.3,0,0-.2,0-.4-.1-.8M165.8,261.2c-.2,0-.4,0-.6.1,0,.1,0,.3,0,.3.3,0,.5-.1.5-.4M250.5,209.5c.3,0,.5.1.8.2,0,0,0-.2,0-.3-.2,0-.4,0-.8.1M219.6,259.2c-.2,0-.4,0-.6.1,0,.1,0,.3,0,.3.3,0,.5-.1.5-.4M262.6,243.6c-.2,0-.3.2-.5.2.2,0,.3.2.5-.2Z"/>
    <path d="M67.8,252.6c-1.5.3-1.9,0-1.5-.9.5-1,.5-2.7,2.4-2.2.1,0,.4-.2.4-.4,0-.2-.1-.5-.3-.5-.7-.1-1.2-.5-2-.2-1,.3-1,.6-1,1.4,0,1-.3.6-.7.2-.2-.2-.3-.4-.5-.5-.6-.2-1.3-.1-.9-1.1.3-.7,0-1.9,1.3-1.8,1.2.1,1.7-.7,2.3-1.4.1-.1.2-.2.3-.3-.2,0-.4-.2-.6-.2-.5,0-1,.1-1.4,0-.6-.3-1,1-1.6,0-.4-.7-.6-1.5.1-2.1,1.1-1,.5-1.6-.5-1.7-1.7-.2-1.4-2-2.2-2.9,0,0,.5-.9.9-1.2.3-.2,1-.3,1.2-.2.5.3.9.9,1.1,1.4.2.4,0,1.1.7.8.3-.2.6-.9.6-1.3-.2-1.1-.4-2.2-.8-3.3-.4-1.1-.2-2.1.8-2.6,1.6-.7,1.8-1.8,1.5-3.4-.1-.6,0-1.3.2-1.8.9-1.4.5-3.4,2.1-4.4.4-2.4,3.1-3.2,3.9-5.3,0-.2.4-.5.5-.4,1.1.2,1.7-.5,2.5-.9.3-.2,1,.2,1.5.2.5,0,1.1.1,1.4-.1.9-.7,1.5-1.3,1.4.5.2,0,.4,0,.6,0,.9-.5,1.8-1.1,2.7-1.5,1.7-.8,2.7-.4,2.9,1.4.1,1.1.3,1.3,1.2.5,1-.8,2.8-.7,3.9,0,.9.6,1.8,1.2,2.7,1.7.2.1.6.2.9.2,1.8.1,1.8.1,2.4,1.2.3.5.7.8,1.1,1.2.6.6,1.2,1.2,1.9,1.8.4.3.9.5,1.4.6.5.1,1.1,0,1.7,0,.7.1,1.4.2,1.9.6.5.5.2,1.1-.3,1.6-.1.2,0,.6,0,.9.3-.1.6-.3.8-.4,1.3-.8,4,0,4.3,1.4.1.6-.3,1.3-.5,1.9,0,.4-.2.8-.1,1.1.4.9,1,0,1.2,0,.7-.4,1.2-1,1.8-1.6.8-.8,1.5.1,1.4.4-.1,2.5,1.6,4.7,1.1,7.3-.2.8-.2,1.5-1.2,1.6-1,0-1.2.7-1.2,1.6,0,1.6,0,3.2-.4,4.9-.3,1.2.2,2.6.5,3.8,0,.3.7.5,1.1.7.4.2,1,.1,1.3.4.4.3.6.8.9,1.3-.4,0-.9.2-1.3.3-.6,0-1.1.1-1.7,0-.3,0-.6-.6-.7-.9,0-1,0-1.1-.8-.7-.6.4-1.1.9-1.5,1.5-1,1.7-1.8,3.6-3,5.2-.8,1.1-1.3,2.2-1.3,3.6,0,.9-.4,1.4-1.2,1.3-.4,0-.8-.2-1.2-.4.3-.2.6-.4.7-.6.3-.4.5-.8.7-1.1-.4,0-.7-.2-1.1-.2-.8-.1-1.3.2-1.9.8-1.1,1-2.1.9-2.9-.2-.2-.2-.4-.6-.3-.8.3-.4,1-.9,0-1.2-1-.3-1.7.1-2,1.1-.1.5-.2,1-.4,1.5-.7,1.6-2.1,1.8-3.1.3-.3-.5-.9-1.2.4-1.5.8-.2.9-1,0-1.4-1.3-.5-2.4-1-2.7-2.7-.1-.8-2.5-1.5-3.5-1-.7.3-1.2,1-2.1.4-.1.3-.4.7-.4.8.6.5.3.9,0,1.4-.5.8-.5,1.3-.5,3,0,.2-.1.4-.2.6-.3-.1-.7-.2-.8-.4-.4-1.1-1.1-1.8-2.5-1.6-.2,0-.7-.4-.8-.8-.2-.8-.7-1-1.5-1.2-.6-.2-1.1-1-1.4-1.6,0-.2.7-.8,1-1.2.4-.5.7-1,1-1.4.6-.8.3-1.4-.4-1.8-.3-.1-1.1.3-1.3.6-.6,1.3-2.4,2.1-1.9,4,0,.1,0,.3-.1.4-.6,1.7-.4,2.1.7,3.4.9,1,1.6,1.2,2.7.5.1,0,.3-.3.3-.3.3.1.7.2,1,.5,0,0-.2.7-.4.8-.8.2-1.2.3-1.4,1.3-.2,1.2-2,.9-2.8-.3-.4-.6-.7-1.2-1.1-1.7-.3-.3-1.1-.7-1.4-.6-1.5,1-2.3-.6-3.4-.9-.3-.1-.6-.5-.9-.8-.2-.2-.3-.3-.4-.5.2,0,.4-.2.6-.2.5,0,1,0,1.4,0s.9,0,.9,0c.5-1.5,2.3-1.7,2.8-3.3.4-1.4-.9-2.1-.7-3.2-.2,0-.4-.1-.7-.1-2.3-.4-4,1.3-5.8,2.1-.3.1-.2.8-.5,1.4M95.5,246.5c-.3.4-.6.9-.8,1.3-.2.4-.6.9-.5,1.1.5.8,1,1.7,1.7,2,.5.2,1.5-.6,2-1.2.3-.3.3-1.1.1-1.6-.3-.7-.3-1.4.3-1.6.4-.1,1.2.3,1.6.6.4.3.5.9.8,1.3.3.5.5,1.1.8,1.6,0,.1.5.2.6.2.2-.1.3-.4.3-.6,0-.6-.4-1.4-.1-1.7.8-.9-.2-1.2-.5-1.6-.4-.6-1.2-.9-1.7-1.5-.7-.7-1.4-.6-2.1-.3-.9.4-1.7,1-2.5,2M83,236.4c-.5.4-.9.9-1.4,1.2-.9.4-.6.8,0,1.1.4.3,1,.4,1.5.3,1.2-.2,1.7.6,2.4,1.2.2.2.2.6.4.8.2.1.7,0,.8,0,.3-.5.9-1.1-.4-1.5-.7-.2-1.4-.9-1.3-2,.1-1,.6-1.3,1.6-1.3.2,0,.5-.3.7-.5.1-.2.2-.5.1-.6,0-.1-.4-.3-.6-.2-1.2.4-2.3.9-3.7,1.7M90.2,242.2c-.8.2-1.6.4-2.3.7-.4.2-1,.8-1,1,.2.6.6,1.3,1.1,1.7.3.2,1.1,0,1.4-.3.8-.9,1.5-1.9,2-3,.2-.4,0-.9,0-1.4-.4.2-.8.5-1.1,1.2M82.3,222.3c0,0,.2,0,.2,0,1.1.2,1.8-.4,2.8-.9.8-.4,2,.2,3.1.3.1,0,.4-.3.4-.4,0-.2-.2-.4-.3-.5-2.1-.6-4.2-.1-6.2.1-.3,0-.8.2-1,.5-.3.6,0,.9,1.1.8M106.5,250.4c0,.6,0,1.1,0,1.7,0,.2.2.4.4.5.2,0,.5-.1.6-.3.2-1,.3-2.1.5-3.2,0-.5.1-.9.2-1.4-.4.3-1,.5-1.3.9-.3.3-.3.8-.4,1.8M72.9,225.9c-.3-.6,1.1-1,.2-1.8-.6-.5-.9-1.2-1.4-1.8,0,0-.7.2-.7.3.2,1.3.6,2.6,1.9,3.3M74.4,218.2c-1,1.1.2.9.7,1.2.5.3,1.1.5,1.7.8-.3-.7-.6-1.4-1-2.1-.1-.2-.7-.1-1.3,0M111.6,236.2c0,.3-.2.5-.1.8,0,0,.5.2.6.1.5-.4.9-.8,1.3-1.3.2-.2.2-.5.4-.8-.4,0-.8-.4-1-.2-.4.3-.6.8-1.1,1.4M72.7,231.9c.5.6,1.2.9,1.6,0,.3-.7-.1-1.3-1-1.5-1.1-.2-.8.6-.6,1.4M85.2,251.1c-.2.2-.4.4-.7.7.2,0,.5.2.7.3.1,0,.3,0,.5,0,.7-.1,1.4-.3,2.1-.4-.5-1.2-1.5-.3-2.6-.6M99.1,226.1c.6,0,1.4.3,1.2-.8,0-.2-.4-.6-.4-.6-.6.3-1.2.6-1.7.9,0,0,.1.3.2.5,0,0,.1,0,.7,0M111.6,231.9c-.2.1-.5.2-.7.4,0,0,.1.5.2.5.3,0,.6,0,.9,0,.6-.2,1.1-.4,1.6-.6-.5-.1-1.1-.2-2.1-.3M87.8,236.9c-.1.7.4.8.8.7.2,0,.6-.6.5-.7-.3-.3-.6-1.1-1.4,0M69.3,241.5c.2-.3.5-.5.7-.9,0,0-.4-.6-.4-.5-.5.3-1.4.5-.3,1.4M90.4,246.3c-.4.2-.8.4-1.2.7.4,0,.8.2,1.2.3.1,0,.3,0,.5,0,0-.2-.2-.5-.5-.9M93.1,237.4c.3,0,.6,0,1,0,0,0,0-.4,0-.4-.3,0-.6,0-1,.5M91.4,235.2c0,.3-.1.5-.2.8,0,0,.2,0,.3,0,0-.2,0-.4-.1-.8Z"/>
    <path d="M547.4,247.1c-.9-.5-1.7-.7-2.2,0-.7,1.2-2.5.9-2.9,2.3,0,0-.6,0-.6,0-.1-.4-.3-.9-.2-1.1.7-.8,1.4-2,2.2-2.1,1.6-.1,1.2-1,1.1-1.8-.1-1.5.4-2.4,1.8-2.8.5-.1,1.2-.2,1.6,0,1.5.8,3,.6,4.6.6.3,0,.7-.3,1-.5.5-.5,1-.8,1.8-1,.8-.2,1.5-.9,2.2-1.6.7-.7,1.3-1.5,1.9-2.3.5-.8,0-1.3-.8-1.5-.9-.2-1-1-.5-1.5.8-.9.1-2.4,1.4-3.1,0,0-.3-.8-.4-1.2-.2-.6-.4-1.1-.5-1.7,0-.1.3-.3.5-.5.1.2.4.3.4.5-.3,1.4.5,1.6,1.6,1.5,1,0,1.4.6,1.3,1.5,0,.5,0,1,0,1.4,0,.3.2.5.4.7.1-.5,1.5,0,1-1.2-.1-.3,0-.7,0-1.1.7.2,2-.6,2,.5,0,1.2,1,1.7,1.1,2.7,0,.2.2.3.3.5-.2,0-.5.2-.6.1-1.1-.9-1.6-.5-2.2.7-.4.8-1.5,1.3-2.3,1.9-1.4,1.1-1.9,1.9-1.3,2.6,1.2,1.5,1.7-.6,2.6-.7.6,0,.8-1.5,1.8-1,.9.4.6,1.4.6,2.1,0,2.2.4,2.8,2.6,2.9,1.7,0,3.5.6,4.7-1.3.2-.3.6-.5,1-.5,1,0,1.2-1,1-1.5-.3-.7-1-1.3-1.9-1-.2,0-.4.4-.5.4-.5,0-1.4-.1-1.5-.5-.3-.6-.2-1.4.6-1.8.4-.2.8-.5,1.2-.5.6,0,.8-.3,1.1-.8,1.2-1.9,3-1.6,4.1.4,1.4,2.6,2.8,3,5.1,1.4,1-.7,2-.8,2.9,0,.8.7,1.4.6,2,0,.2-.2.4-.6.7-.7.6-.1,1.2,0,1.8-.1-.1.4-.2.9-.5,1.1-.7.8-.5,1.4.3,2,.7.5.8,1.2.8,2.1,0,1.2.7,2.2,1.7,2.8,1.5.9,3,1.5,4.6,2.3.6.3.8.2.9-.5,0-.8-.4-1.3-.8-1.9-.4-.6-.6-1.3.7-1.4.8,0,1.8-.5,2.4-1.1,1.5-1.4,3.2-.7,4.7-.6.6,0,1.2,1,1.6,1.7.4.8-.4,1.3-.9,1.8-.9.8-.6,1.5.2,2.1.5.4,1.1.8,1.7,1.2.4.3,1,.8.3,1.3-.5.4-.8,1.5-1.9.5-1.1-1.1-2.3-1.5-3.5,0-.3.3-1,.5-1.4.5-1.5-.2-2.1.7-2.4,1.9-.2.9-.2,1.8-1.3,2.1,0,0,.2.8.2.8,1.4-.2,2.9-.3,4.3-.6.2,0,.3-.8.5-.9.5-.1,1.2-.2,1.6,0,.7.4.4.9,0,1.3-.2.2-.5.4-.7.7-.6.9-.6,1.9.2,2.7.7.8,1.4,1.5,1.6,2.7.2.8,1.8,1.3,2.8,1.8.2.1.5,0,.7,0,.6,0,1.5.2,1.8-.1.5-.6.8-1.6,1-2.4,0-.2-.5-.7-.8-.8-.4,0-.8.4-1.2.4-1,.1-1.6-.3-1.6-1.4,0-2.2,0-2.4,2.6-2.4,2.6,0,3.2-.6,3.2-3.1,0-1.5-.1-1.6-1.8-1.8-.4,0-.7-.3-1.1-.5.2-.3.5-.9.7-.9,1.4.2,1.6-.9,2.1-1.7.8-1.3,1.5-1.5,2.5-.5.6.6,1.1,1.1,1.7,1.7.4.4,1.1.7.3,1.5-.2.2.2.9.3,1.4,0,0,.4.1.6,0,.6-.5,1.3-1,1.6-1.7.2-.5,0-1.3-.2-1.9-.2-.6-.8-1.1-1-1.7-.1-.3,0-.8.3-1,.4-.3,1.2-.6,1.4-.4,1.1,1,2.5,1.9,2.6,3.7,0,.3-.2,1-.3,1-1.9,0-2.5,1.7-3.5,2.8-.4.4-.2,1.4-.6,1.9-.7.8-1.5,1.6-2.5,2-1.1.4-.8.7-.3,1.2.5.4,1,.6,1.6.8.6.2,1.5.1,1.9.5.4.4.3,1.3.4,1.9,0,.3,0,.7.2.9.2.3.9.6.9.5.8-.9,1.8-.4,2.7-.4,1.4-.1,2.4-.8,2.8-2.2.3-.9.5-1.6-.7-2.2-1-.5-1.8-1.6-2.6-2.5-1-1-.8-1.4.5-2.3,1-.7,2.4,0,3-1.4.7.3,1.5.6,1.9,1.1.5.6.7,1.4,1.2,2.1.4.6.8,1.3,1.4,1.8.3.2,1.1.3,1.4,0,.7-.6,1.3-1.2,2.3-1.4,1-.2.2-1.1,0-1.4-.2-.5-.9-.7-1.4-1.1-.7-.6-.5-1.3-.2-2.1.3-.8.8-.8,1.5-1,1.4-.3,2.6,1.2,4,.2,0,0,1.2,1,1.5,1.7.5,1.2,1.3,1.5,2.5,1.6.8,0,1.7.7,2.3,1.2.9.8.5,1.9-.6,2-1.6.2-2.7,1.2-4,1.9-1.2.6-.8,1.2-.4,1.5,1.2,1.2.6,1.7-.5,2.4-.9.6-1.7,1.3-2.1,2.4-.4.9-1.5,1.6-2.3,2.4-.7.6-1.4,1.2-2.2,1.6-.8.4-1.6,1-2.3,1.3-1.8.8-3.5,2.1-5.5,2.3-.5,0-1.3-.2-1.6-.6-.6-.7,0-1.3.6-1.8.5-.4,1-.9,1.5-.9,1.4,0,1.7-.8,1.3-1.9-.5-1.5-1.3-1.8-2.6-1.3-.9.4-1.7.8-2.6,1.2-1.7.8-2.8.6-4.1-.6-.8-.7-.5-1.2.2-1.7.6-.4,1.7-.8,1.6-1.1-.2-1.2-1.3-.8-2.1-.9-.6,0-1.2-.4-1.7-.4-.9,0-1.1.5-.7,1.3.5,1,0,2.3-1.2,2.5-.9.1-1.8,0-2.6.9-.2.3-1.1.4-1.2-.7-.2-1.9-.7-2-2.3-.9-2.3,1.5-3.7.8-3.9-2,0-.2,0-.5,0-.7-.1-1.2-.6-1.5-1.8-.9-.3.1-.6.2-.8.4-.7.9-1,.2-1.3-.3-.5-.8-.8-1.8-1.3-2.6-.4-.6-1-.8-1.1.3,0,.4-.4.7-.4,1,0,.8-.6.8-.9.6-.3-.1-.6-.9-.5-1,1.4-1.1.9-2.4.5-3.8-.1-.4.2-1.1-.6-.9-.6.2-1.3-.6-1.8.5-.6,1.3-1.5,2.6-2.4,3.8-.8,1.2-1.5,1.4-2.9,1-1.6-.5-3.4-.6-4.2-2.5-.3-.7-2.4-.6-2.7.2-.4,1.1-1,.9-1.8.9-.6,0-1.1,0-1.7,0-1.2,0-1.4-.3-1.1-1.3.1-.4.1-1.2,0-1.3-.4-.3-1.2-.4-1.6-.2-2.7,1.4-4.2-.3-5.8-2-.1-.1-.3-.5-.2-.6.2-.2.5-.3.7-.4,0,0,.2,0,.2,0,.7,0,1.7,0,1.8-.7,0-.5-.6-1.2-1.1-1.6-.5-.4-1.3-.3-1.9,0-.2,0-.3.4-.5.5-.4.3-.9.6-1.3.9-.1-.5-.2-1-.3-1.5-.2-.5-.5-.9-.7-1.4-.1-.2,0-.5-.1-.8.3,0,.7,0,.8,0,1.1,1.6,2.4,1.2,3.7.3.5-.3,1.1-.3,1.7-.5.3-.1.6-.3.9-.4-.2-.3-.4-.7-.7-.9-.2-.2-.6,0-.9-.1-.6-.2-1.4-.2-1.6-.6-1.3-2.2-3.1-.6-4.6-.7-.3,0-.7.7-.8,1.2-.1.8,0,1.6,0,2.4,0,.5-.1,1.5-.2,1.5-.9,0-2,.2-2.7-.3-1.4-1-2.7-1.8-4.4-2.1-1-.1-1-1.2-.8-1.9,0-.2.9-.4,1.3-.2.7.3,1-.3,1.5-.4-.2-.4-.3-1-.7-1.1-1-.5-2.1-1.2-3.1,0-.2.2-.8,0-1.1,0-.6-.2-1.3-.5-1.9-.6-.2,0-.7.2-.8.5-.3.8-.4,2.2-.7,2.2-1.1.2-2.3.6-3.4-.3-.2-.2-.6,0-1.1-.1M580.6,248.7c-.8-.2-1.6-.4-2.4-.5-.7,0-.8.2-.6.8.4,1.3,0,1.8-1.4,1.4-.7-.2-1.3-.3-2-.4-.2,0-.5.2-.5.3,0,.2,0,.5.2.6.3.2.7.5,1,.5,1.8,0,2.7.8,3.1,2.5.2.8,1.1,1.3,1.6.9.6-.6,1.9-.6,1.8-2.1,0-1.1.3-1.2,1.4-.5,1.2.8,2,.7,2.7-.4.3-.6.1-2.2-.4-2.6,0,0-.4,0-.5,0-1.5,1.5-2.6.3-4-.8M588,249.4c0,.5,0,1,0,1.4,0,.3.2.7.3.7,2,0,3.9,1.1,6.1.6,1.9-.4.6-2.1,1.6-2.7-.3-.4-.6-1-1-1.2-2.3-1.5-4.7-.7-7.1,0-.7.2-.6.5,0,1.2M589,246c-.6-.6-1.3-1.2-1.9-1.7-.5-.4-1.5-.6-1.6-1.1-.3-1.1-1.1-.8-1.8-.9-1.1-.1-1.1.9-1.5,1.4-.9,1.1-.9,1.8-.3,3.1.6,1.2,1.8,1.1,2.4.8,1.5-1,3.2-.7,4.8-1.6M632.7,259.5c0-.9-.4-1-.9-.4-.5.5-.7,1.2-1.2,1.6-.7.6-1.4,1.1-2.1,1.7-.7.5-.5.9,0,1.5.6.6,1.3.9,1.9.6.6-.4,1.3-1.1,1.4-1.8.2-1,.2-2,1-3.2M637,256.1c-.9,2-.8,2.1,1.1,2.2.4,0,.8,0,1.2,0,.4,0,.7-.3,1.1-.5-.2-.5-.4-1.2-.7-1.3-.7-.3-1.6-.4-2.6-.3M563.6,243.2c0,.6,0,1.3,0,1.9,0,.5,0,1.1.1,1.6.1,0,.3,0,.3-.1.4-.7,1.2-1.2.8-2.1-.3-.5-.7-1-1.2-1.2M586.4,255.4c.2-.2.3-.5.5-.5,1.1,0,.6-.8.6-1.3-.4.1-.8.1-1.1.4-.5.4-.9.9-1.3,1.3-.1.1-.1.3-.2.5.2,0,.5,0,.7,0,.2,0,.4-.1.8-.5M590.4,256.6c0,.4,0,.8,0,1.2,0,.1,0,.3.1.4.1-.1.3-.3.3-.4.2-1,.4-2.1.5-3.1,0-.4-.2-1.1-.4-1.1-.8-.2-.5.5-.6.9,0,.6,0,1.1,0,2.1M581.1,258.3c.2-.3.4-.5.6-.8-.5-.2-.9-.5-1.4-.6-.5,0-1.3.2-1.3.3-.1,1,.7.4,1.1.6.2,0,.3.3,1,.5M581.1,239.6c-1-.1-.7.6-.7,1.1,0,.1.3.3.4.4.2-.3.4-.5.6-.8.1-.2.1-.4-.3-.7M638.7,262.1c.2-.3.4-.5.6-.8-.4,0-.7,0-1.1-.1,0,.3,0,.6.5,1M621.6,266.7c.2-.3,1-.7,0-.7-.3,0-.6.3-.9.4.2.2.5.4,1,.3M636.8,263.1c.2.2.3.3.5.5,0-.4,0-.9,0-1.3-.3.2-.6.4-.6.8M598.6,248c.3,0,.6,0,.9,0,0-.2-.1-.5-.2-.7l-.7.7M625,264.3c0-.2,0-.4-.1-.6-.1,0-.3,0-.3,0,0,.3.1.5.4.5Z"/>
    <path d="M667.7,271.2c-2.4-1.3-2.6-2.2-.8-3.8.6-.5.3-1.6-.4-1.9-.9-.4-2.2.2-2.6,1.2-.8,2.1-1.1,2.2-3.1,1.8-.4,0-.8,0-1.2,0-1.4,0-1.8.7-1.2,1.9.6,1.2,1.2,2.2-.1,3.5-.9.9,0,2.2,1.3,2.2,1.3,0,2.4.3,3.5,1,.6.4,1.4.4,2.2.5,1.6.2,2.6.9,2.5,1.8-.1.9-1.7,2.1-2.8,2-.5,0-.9.1-1.2-.7-.2-.7-1-1.4-2.1-1.2-1.2.2-2.5.2-3.6.5-.5.1-1,.8-1.4,1.2-.3.3-.4.9-.7,1.1-.4.3-1,.5-1.4.4-.3,0-.5-.7-.7-1.1,0-.2,0-.5,0-.7-.2-.5-.4-.9-.6-1.4-.3.3-.7.6-1,.9-.2.3-.4.9-.5.9-.5,0-.9.8-1.5,0-1-1.1-1.8-2.2-1.6-3.7.2-1.4-.4-2.8.4-4.2.2-.5-.3-1.4-.5-2.1,0-.3-.3-.9-.1-1,1-.7,2-1.4,3-2,.2,0,.7.3.9.5.2.3.1.7.2,1.1,0,.5.1,1.1.2,1.6.7-.2,1.4-.4,2.1-.6.1,0,.2-.2.3-.3,1.4-1.5,1.3-1.8-.6-2.4-.3-.1-.7-.3-.9-.6-.6-.7-1.1-1.6-2.3-1.3-.8.2-.8-.5-.6-.9.4-1.3.9-2.5,1.5-3.7.4-.8,1.2-.5,1.9-.7,1.7-.6,2.9-.5,3.6,1.4,0,.2.7.3,1.1.4.6,0,1.3,0,1.9-.1,0,.6-.1,1.2-.2,1.8,0,.3-.3.6-.2.9.1.2.5.4.8.4.1,0,.3-.3.5-.5,1.2-1,2.6-1.6,4.2-1.4,1,.1,2.1.3,2.8-.8.1-.2.7-.1,1.1-.1.9,0,1.5-.2,1.6-1.2,0-.3.2-.7.4-1-.5-.2-1.1-.5-1.6-.6-.2,0-.5.3-.8.4-.4.1-.9.2-1.4.2.3-.4.5-1,.9-1.3.6-.4,1.4-.7,2.1-.6.4,0,1.3,0,1.4,1,0,.3.8.6,1.2.9.4.3,1.1.5,1.3.9,1.1,3,3.7,1.6,5.7,1.9,0,0,.2-.3.2-.4-.9-1.2.6-1.4,1-1.9.1-.2,1.1-.4,1.1.6,0,.8.5,1.5.8,2.3.7,2.1-.4,3.5-2.5,3.8-1.1.1-2.1,0-3.2,0-1,0-1.6-.6-1.8-1.5-.3-1-.4-1.1-1.1-.5-.4.3-.7.6-1,1-.6.7-.4,1.9.4,1.9,1.2,0,1.7.8,2.3,1.4,1.2,1.1,1.5,1.3,2.9,1.6.4,0,.8.4,1.2.6,1.1.9,1.3.8,1.5-.7,0-.7.3-1.4.9-1.4.9,0,1.1.8,1,1.5-.2,1.1.5,1.6,1.1,2.2.2.2.4.3.6.5-.2.2-.5.5-.7.5-2.6-.3-5.2-.6-7.8-1-.3,0-.6-.5-.9-.7,0,0-.5.2-.5.2.2,1.3-.7,1-1.4.9-.2,0-.6-.6-.5-.7,1.2-1.6-.5-2.5-.9-3.6-.2-.6-.9-.6-1.6-.2-1.1.6-2.2,1.5-3.8,1.2M656.5,276c0,.3,0,.6,0,1,0,0,.4,0,.4,0,0-.3,0-.6-.5-1Z"/>
    <path d="M745.1,286.7c-.3.8,0,1.4.6,1.8.3.2.6.3.7.6.2.4.2.9.2,1.3-.4-.1-1.2.4-1.2-.6-.6,0-.7-1-1.7-.5-1,.5-.9,1-.5,1.5.3.5,1,.7,1.5,1,.4.3.9.7,1.1,1.2.2.3,0,.7-.1,1.1-.3-.1-.7-.2-1-.3-1.2-.7-2.6-.5-3.9-.5-2.1,0-3.5-.8-4.2-2.9-.3-1-1.4-1.3-2.8-1-.9.2-1,.8-1,1.6,0,1.8.7,2.9,2.6,3.2.4,0,.8.4,1.2.4,1.3,0,2.6,0,2.6,1.8,0,.3.5.5.8.9.7.9,2.3,1.5,1,3.1-.1.1.3.6.4,1,.3,1-.2,1.7-1,2.2-.8.7-1-.3-1.5-.5-.2,0-.5,0-.8,0,0,.2,0,.5,0,.6.2.5.9,1.1.8,1.3-.5.7-1.1,1.3-1.9,1.7-.7.3-1.7.6-2.3-.2-.2-.3-.3-.8-.3-1.1,0-2,1.6-2.8,2.9-3.8,1.6-1.3,1.5-1.2.7-2.9-.7-1.5-1.4-2.6-3.3-2.5-.3,0-.7-.5-1-.8-.1-.1-.2-.5-.3-.5-.5,0-1.1.1-1.6.2.1-.7,0-1.3-.7-1.6-.4-.2-1-.5-1.5-.5-1.7-.2-3.3-1-3.6-3.7,0-.7-.2-1.4-.5-1.9-.6-1.2-.2-2.1.6-3,.3-.3.6-.6.8-.8,1.1-1.1,1.1-1.1-.3-1.7-.2,0-.6-.3-.6-.4-.1-.9,1.7-3,2.6-2.9.5,0,1,.6,1.2,1.1.3.9.4,1.9.5,2.9,0,.8.3,1,1,.5.2-.1.3-.4.5-.5.6-.3,1.3-1,1.8-.9.8,0,1.7,2.4,1.5,3.1-.3,1-1.1.9-1.9.9-.6,0-1.2,0-1.9.2.5.4,1,.9,1.5,1.2,1.1.4,2.1,1.3,3.4,1.1.3,0,.7.2,1,.5.9.7,1.7,1.1,1.7-.7,0-.3.7-.5,1-.8.6-.4,1.2-.6,1.7-1.1.6-.6,1.2-.9,2.1-.8.7,0,1.4,0,1.9-.7.1-.2.7-.1.9,0,.2.1.3.5.5.7-.3.1-.7.5-.9.4-.9-.2-1,.5-1.4,1.1M730.6,287.3c-.1-.4-.2-.9-.4-1.3,0,0-.4,0-.6,0,0,1.3,0,2.5,0,3.8,0,.2.4.4.6.7.2-.3.7-.6.7-.9,0-.6-.3-1.1-.4-2.2Z"/>
    <path d="M696.5,271.7c1.3-.6,2.7-1.2,4-1.9.3-.2.6-.4,1-.5.6-.2,1.3-.3,2-.5,0,.7.3,1.4.2,2-.2,1.6.1,2.2,1.6,2.3.6,0,1.5.3,1.9,0,.8-.6,1.4-.5,1.7.2.3.8.5,1.8-.5,2.6-1.6,1.3-1.1,1.1-.4,2.9,1.1,2.7,3.5,3.8,5.3,5.6.2.2.2.4.4.7-.3,0-.8.2-.9,0-.8-.8-1.7-.9-2.7-1-1.7-.2-2.5.8-3.4,1.7-.4.4-.9,1-.9,1.5,0,1-.9.8-1.2.6-1.4-.6-2.9-.4-4.4-.5-.2,0-.5-.2-.7-.4.2-.2.5-.6.7-.6,1.6.2,2.4-.8,3.1-2,.5-1,.6-.9,1.8-1.6.4-.2,1.4,0,1.1-1.2-.3-.8-.6-1.2-1.4-.6-.2-.3-.6-.5-.5-.8,0-.5.3-1,.5-1.5.1-.4.3-1,.2-1.1-.4-.3-1.1-.6-1.4-.4-1.3.9-1.8-.2-2.7-.7-2.2-1.2-3.7-3.6-6.8-3.3-1.5.2-3.1-.5-4.6-.9-.2,0-.6-.8-.5-1,.3-.6.6-1.1.2-1.9-.6-1.2,0-2.4,1.3-3.1.9-.4,2-.5,2.8.5.4.4.6.8,1.4.4,1.3-.7,1.7.9,2.4,1.6.6.7.6,1.5-.4,2,0,0,0,.3-.1.6-.8-.4-1.4-.9-2.1-1.4-.3-.3-.7-.5-1-.8-.5.7.3.9.5,1.3.2.4.3.9.3,1.3,0,.8.4.7.9.7.6,0,1.7.5,1.5-.9Z"/>
    <path d="M722.3,298.2c.6.6,1,1.3,1.8.4.8-.8,1.6-1.5,1.1-2.8,0-.1-.2-.2-.3-.3-.5-.4-.9-.9-.1-1.3.4-.2,1.5-.2,1.5,0,.4,1.1,1.3,1,2.2,1.2.6,0,1.1.7,1.7,1.1.6.5.8,1.2.1,1.8-1.1,1-2.3,2.2-3.6,3-.6.4-1.6.1-2.4,0-1-.2-2-.7-2.9-1.1-1.4-.7-2.7-.6-4.2,0-1.3.5-2.6.7-4.2.1-1.5-.5-3.2-.4-4.8-.6-.2,0-.4,0-.7-.1.1-.2.2-.4.3-.5,1.2-1.4,1.2-1.4,3-.5.3.2.8.3,1.1.2,1.7-.6,3.4.5,5-.2.7-.3,1.4-.7,2.1-1.2,1.6-1,2-.8,3.1,1Z"/>
    <path d="M708.7,287.7c1-.2,1.9,0,2.8-.7,1-.9,4.8-.1,5.8.9.5.5.9.9-.3,1.2-.8.2-1.4.8-2.2,1.1-1.7.9-2.1,2.3-.9,3.9.5.7.2.7-.4.7-1.2,0-2.4,0-3.6,0-1.2,0-2.2-.5-2.6-1.8,0,0-.1-.1-.2-.2,0-.2-.2-.6-.1-.6,1.7-1.1,0-3.2,1.5-4.4M711.4,291.6c.3-.2.6-.3.9-.5-.2-.2-.4-.4-.7-.7-.2.3-.3.6-.3,1.2Z"/>
    <path d="M289.1,290.8c.7.4.9,1.8,2,.7.1-.1.6,0,.8.2,1.1.8,2.5,1.4,3.3,2.4.7,1,1.3,1,1.6.2.5-1.2,1.4-1,2.2-1,.3,0,.7.2,1,.3-.2.2-.6.4-.7.7-.2.4-.4,1-.2,1.2,1,1.5-.2,1.2-.9,1.1-.6,0-1.1-.3-1.8,0-.4.1-1.2-.2-1.6-.6-1-.9-2-1.4-3.3-1.3-.4,0-.9-.2-1.3-.3-.5,0-1.1-.3-1.3,0-1.6,1.5-1.9.6-2.1-.9,0-.2-.4-.4-.7-.5-.4-.1-.9.8-1.2,0-.2-.6-.4-1.5-.2-2,.3-.8.9-1.8,1.6-2.1,1-.4,2.2-.1,3.3,0,0,0,.1.4,0,.4-.2.2-.5.4-.7.5-.4.1-.9.1-1.4.2.5.3.9.7,1.5,1.1Z"/>
    <path d="M641.8,269.3c0-.6,0-.9,0-1.2-.3-1.7-.3-1.6,1.4-2.2.3-.1.8-.4.9-.6.3-.9,1-1.3,1.8-1.2.7.1,1.3.6,1.9,1,.1,0,0,.6,0,.8-1,.8-1.4,1.6-.8,2.9.4.9-.7,1.9-1.8,1.9-1.1,0-2.2,0-3.3.9-.7.6-2.2,0-3.2.9-.1,0-.5-.2-.8-.3.4-.7.6-1.3,0-2,.2-.2.4-.4.6-.4.2,0,.3.3.5.4q1.6,1.1,2.7-.9Z"/>
    <path d="M653.9,255c.8,0,1.4-1.2,2.2-.2.2.3,1.1.1,1.6,0,2.1-.4,3.5.5,4.6,2.1.3.4.4,1.1.5,1.6-.6,0-1.6.1-1.9-.2-.8-.9-1.9-1.2-3-1.5-.6-.2-1.5-.3-1.3.9.2,1.1-.8,1.2-1.4,1.4-.7.1-1.7,0-2.1-.5-.3-.3-1.3-1-.6-1.9.4-.5.8-1.1,1.3-1.8Z"/>
    <path d="M719.5,279.8c-.4.3-.8.4-1.1.6-.7.4-1.5.7-1.2,1.9.1.5-.1,1-.3,1.5,0,.1-.3.2-.5.3,0-.1-.2-.3-.1-.4.3-1.8-.7-2.7-2.2-3.4-.4-.2-.5-.9-.9-1.3-.7-.6.3-1,.3-1,2.2.3,3.1-1.4,4.4-2.5.5-.5,1-.7,1.6-.2.2.1.4.4.3.7,0,1.2-.2,2.5-.4,3.8M718.1,277.2c-.3,0-.6,0-1,0,.2.4.5.8.7,1.1.2-.3.3-.6.3-1.2Z"/>
    <path d="M762.2,301.8c.2-.4.4-.6.5-.8.2.2.6.4.6.5-1,2.3.6,4.5.3,6.7-.1.8-.7,1.5-1.3,2.1-.2.2-1,0-1.3-.3-1.3-1.2-2.5-1.2-3.9-.2-.2.2-.6.2-.9.2-.1,0-.3,0-.4-.1,0,0,0-.3,0-.3.6-.5,1.2-1.4,1.8-1.4,1.4,0,2.1-.6,3-1.5.9-1,.7-2.1.8-3.2,0-.6.4-1.1.8-1.7Z"/>
    <path d="M767.1,292.4c-2.1,2.3-2.1,5.1,0,7.4.2.2.2.4.3.7-.3,0-.6,0-.8-.2-1.4-.9-3.1-1.1-4.2-2.7-.8-1.2-.9-1.9.6-2.3.9-.2,1.7-.2,1.7-1.4,0-1.1-.7-1.6-1.6-2-.3,0-.6-.1-.8-.3-.2-.1-.9-.5,0-.7.5-.1,1-.5,1.5-.4.8,0,1.7.2,2.4.5.4.2.6.8.9,1.4Z"/>
    <path d="M755,289.8c-.7.7-1.4.9-1.9.2-.8-1.1-1.9-1.5-3-2-1.3-.6-1.5-1.1-1.1-2.3.4-1.2.6-1.3,2.3-.8.5.2,1.5,1.5,1.4,2.1,0,.5,0,1,0,1.4,0,.7.6.8.9.3.7-1.1,1.9-1.3,2.9-1.7.4-.1,1,.2,1.4.3-.2.5-.3,1.2-.6,1.4-.7.4-1.5.6-2.4,1Z"/>
    <path d="M770.1,294.6c-.1-.4,0-.8-.1-1.1,0-.6.2-.9.8-.6.7.3,1.4.8,2.1,1.2.5.2.9.6,1.4.6,1,0,1.5.4,1.4,1.4,0,1.4.5,1.2,1.3.5.8-.7,1.6-1.4,2.5-2,.4-.2,1-.1,1.4-.2-.2.4-.3.8-.5,1.1-.5.6-1,1-1.5,1.5-1.3,1.3-2.9,1.4-4.6.3-1.4-.9-2.8-1.8-4.2-2.8Z"/>
    <path d="M278.5,213.7c1.4-.5,2.6-.9,3.4-1.9.3-.4.8-.6,1.3-.8.7-.3,1.9.3,1.8,1.1,0,.9-.2,1.8-.4,2.7-.2,1.1-1.1,1.3-2,1.3-1,0-1.9-.4-2.9-.4-1.2,0-1.4-.7-1.2-1.8Z"/>
    <path d="M743.7,306.4c1.7-1,3.2-.5,4.5.5.4.3,1.1.6.5,1.3-.4.4-.2,1.2-1.2,1.1-.9-.1-1.9.4-2.8.2-1.7-.3-3.3-.8-5-1.3-.2,0-.4-.5-.4-.7,0-.3.3-.7.6-.7,1.2-.1,2.5-.2,3.8-.4Z"/>
    <path d="M694.3,288.6c.2-.5.3-.8.3-1.2,0-.8,0-1.7,1-1.8.8,0,1.8,1,1.9,1.9,0,.8.3,1.7.3,2.5,0,.3-.3.7-.5.8-1.7.5-3.4.9-5.2,1.3,0,0-.4-.3-.4-.4.3-.5.5-1.1.9-1.5.4-.5,1-1,1.6-1.6Z"/>
    <path d="M681.1,283.8c-.9-1.2-.9-2.1.3-3,.9-.6,1.7-1.4,2.6-1.9.2-.1.7.1,1.1.2-.1.3-.1.6-.3.8-1.2.9-.6,1.9-.1,2.9.5,1.3.2,2.5-1,3-.2,0-.5,0-.7-.2-.6-.5-1.1-1.1-1.8-1.8Z"/>
    <path d="M176,223.6c.1-1.1,0-2,.1-3,0-.4.2-1.2.3-1.2.6,0,1.3,0,1.7.4.4.3.7,1,.8,1.5.5,2.2-.5,3.9-1.9,5.4-.2.2-.7.3-.8.2-.4-.5-1-1.1-1.1-1.7,0-.5.4-1.1.8-1.7Z"/>
    <path d="M297.5,208.9c.3.5.5.9.6,1.3.1.4,0,.9.2,1.3.8,1.8.9,1.7-.8,2.8-.4.2-.7.5-1.2.6-.7.2-1.6.5-2,.2-.4-.3-.4-1.3-.4-2,0-.4.6-.7.9-1.1.3-.5.7-1,.8-1.5.1-1.1.8-1.6,1.8-1.7Z"/>
    <path d="M292.2,289.8c-.9.2-1.6,0-1.3-1,.5-1.9,4.5-4,6.4-3.2.4.2.8.8.7,1.2,0,.4-.5.9-.9,1.1-1.6.6-3.2,1.2-4.9,1.8Z"/>
    <path d="M302.3,212.3c-.3-.1-.5,0-.6-.1-.4-.6-1.6-.8-1-1.8.5-.9,1.4-.7,2.3-.4.6.2,1.3.1,1.9,0,1.4-.3,1.4-.4,1.4,1.1,0,.5,0,1,0,1.4-.1.6-.4,1.4-.7,1.5-.6.1-1.3-.2-1.9-.4-.5-.2-.8-.8-1.3-1.3Z"/>
    <path d="M310.1,154.1c.4,1.8-.8,2.5-1.7,3.4-.2.2-.4.5-.7.8-.4-.4-.6-.6-.3-1.3.5-1.3,1.2-2.5,1.4-4,.2-1.2,1.9-2.1,3.1-3.1,0,0,.6.2.7.4.4.6.7,1.3,1,2,0,.1-.1.3-.2.5-1.8-1.5-2.4.3-3.4,1.4Z"/>
    <path d="M228.3,245.4c.1,1.1,0,2,.1,3,.2,1.2-.7,1.7-1.4,2.3-.6.5-1.5.7-2.3.8-.2,0-.6-.7-.7-1.1,0-.2.3-.6.5-.8.3-.2.7-.3,1-.4,1.1-.2,1.1-.7.3-1.3-.2-.2-.3-.5-.5-.8-.7-1.3-.7-1.2.7-1.4.7,0,1.3-.3,2.1-.3Z"/>
    <path d="M565.6,260.1c-.7-1-1.5-1-2.4-.7-.4.1-.9.4-1.3.3-.3,0-.5-.5-.8-.8.3-.2.5-.5.8-.6.8-.3,1.8-.4,2.6-.7,2.3-.9,2.2-.9,3.9.9.6.7.1,1-.2,1.2-.8.3-1.6.4-2.5.4Z"/>
    <path d="M696.5,281.3c.4.2.6.3.7.5.3.5.5,1.1.7,1.6-.5,0-1.1,0-1.6-.1-.6,0-1.3-.2-1.9,0-1.4.3-2.4-.7-3.6-1.1-.3-.1-.7-.7-.6-.9.1-.4.5-.7.9-.9.3-.1,1-.2,1.1,0,1.1,1.4,2.6.8,4.1.9Z"/>
    <path d="M99.7,262.5c-.8,1.1-1.4,2.1-2.1,3.1-.5.7-1.7.6-2.2,0-.3-.4-.5-1-.9-1.3-.6-.6,0-.8.2-1,.3-.2.7,0,1.1-.2,1.1-.2,2.3-.2,2.9-1.5.1-.2.6-.2.9-.4,0,.4.1.7,0,1.2Z"/>
    <path d="M676.9,282.8c.5.3.8.5,1.1.8.7,1,.5,1.7-.6,2.2-.8.4-1.5.9-2.3,1.2-.7.3-1.3-.2-1-.9.5-1.4.9-2.9,2.9-3.4Z"/>
    <path d="M251.9,221.9c.7,1.5.7,1.5-.8,1.8-.4,0-.8.5-1,.9-.2.3,0,.8,0,1.2-.2.5-.7,1.3-1,1.2-.8,0-1.1-.8-.9-1.6.1-.6.4-1.1.5-1.7.2-1.6,1.5-2.4,3.3-1.8Z"/>
    <path d="M287.9,278.8c-.4.3-.8.5-1.1.6-.6.1-1-.4-.6-.8,1.3-1.2,2.4-2.6,3.2-4.1.1-.2.7-.4,1-.3.2,0,.4.5.5.8.2,1.3,0,2.4-1.5,2.9-.5.2-.9.5-1.4.9Z"/>
    <path d="M752.6,306.6c.8-.1,1.3-1.5,2.3-.4.5.6,1.2,1.2.6,1.8-.6.5-.8,2.1-2.2,1.2-.2-.1-.5,0-.7,0-.5-.3-1.1-.6-1.2-1-.2-.8.3-1.3,1.3-1.5Z"/>
    <path d="M316.9,295.1c.6.7.5,1.3,0,1.7-.5.4-1,1-1.6,1.2-.3.1-1.1-.3-1.1-.6-.1-.9-.2-1.9,0-2.7.6-1.3,1.1-1.2,2.7.3Z"/>
    <path d="M409.5,185.8c-.8-.2-1.5-.3-1.8-.7-.4-.5-.4-1.2-.6-1.9.5,0,1-.3,1.5-.3,1,0,2-.4,2.8.7.4.5.4.7,0,1-.6.4-1.1.8-1.9,1.2Z"/>
    <path d="M740.2,281.8c.8.5,1.3,1,.8,1.8-.5.7-1.1,1.5-1.7,2-.2.2-1.4-.6-1.4-.7.4-1.1.9-2.1,1.4-3.1,0,0,.4,0,.9,0Z"/>
    <path d="M701.9,293.7c-.2-.5-.3-.9-.4-1.3.5,0,1-.4,1.3.5.4,1.2,1.4,1.5,2.6,1.4.4,0,.8.2,1.2.4-.1.4-.2,1-.5,1.2-.4.2-1.1.3-1.4,0-1-.6-1.8-1.4-2.8-2.3Z"/>
    <path d="M159.8,236.2c-.3-.7-.6-1.4-.4-2,.1-.6.7-1.1,1-1.7.2.2.4.3.7.5.9.5.8,1.4.5,2.1-.2.5-1,.8-1.8,1.2Z"/>
    <path d="M768.7,305.4c.3-.3.5-.6.6-.6.5,0,1.1,0,1.6.1-.1.6-.2,1.1-.4,1.7-.2.4-2.5,1.1-2.8.8-.2-.2-.3-.6-.2-.8.3-.4.7-.8,1.2-1.3Z"/>
    <path d="M115.2,255.4c-1,.7-2,1.3-3,1.7-.4.2-.9,0-1.3,0,.1-.5,0-1.2.4-1.4,1.1-.9,2.5-1.1,3.9-.3Z"/>
    <path d="M86,60.6c-.7.4-1.3.6-1.9.9-.2.1-.5.3-.6.5,0,.5,0,1.3-.8.8-.4-.3-.7-1.2-.5-1.5.3-.5,1-1,1.6-1.1.8-.2,1.7,0,2.5.1,0,0,0,.1,0,.2,0,0-.1.1-.3.3Z"/>
    <path d="M676.7,280.2c-.4.4-.7.7-1,1-.4.3-.7.8-1.2.9-.3,0-.1-1.7.4-2,.5-.3,1.1-.5.9-1.3,0-.2.3-.7.5-.8.4,0,.9,0,1.4.1-.1.3-.3.7-.4,1-.2.3-.3.7-.6,1.1Z"/>
    <path d="M795.4,301c-1.2,0-2.4-.3-2.3-1.1,0-1.2,1.4-.8,2.3-.8.4,0,.9.2,1.2.5.2.3.2.9.1,1.2,0,.1-.7.1-1.3.2Z"/>
    <path d="M733.5,300.5c.5-.2.7-.4,1-.5.2,0,.5,0,.7,0,0,.2-.1.5-.2.7-.3.8-.6,1.6-1,2.4,0,.1-.5.3-.6.2-.5-.5-1.1-.9-1.3-1.5-.2-.8.3-1.3,1.4-1.3Z"/>
    <path d="M750.3,301.5c-.5,0-.7,0-1,0-.8,0-1.4-.3-1.4-1.1,0-.5,1.4-1.1,1.9-.8.7.4,1.3,1.1,1.8,1.7,0,0-.1.4-.2.6-.3-.2-.7-.3-1.2-.5Z"/>
    <path d="M759.5,313.6c.3-.1.5,0,.6-.1.5-.3,1.2-1,1.4-.8.5.3.9,1,1.2,1.6,0,.1-.2.6-.4.7-.9,0-1.7,0-2.6,0-.2,0-.3-.7-.3-1.3Z"/>
    <path d="M720.7,281.7c-.9-1.1,0-1.3.6-1.3,1.4,0,2.1,1.1,3,2-.2.1-.4.4-.5.4-1-.3-2-.6-3.1-1.1Z"/>
    <path d="M780.2,311c-.1-.4-.2-.7-.1-.8.5-.5,1.1-1,1.6-1.5.3.7.7,1.3.7,2,.1,1.1-.3,1.2-2.2.3Z"/>
    <path d="M298.7,234.4c-.2.3-.3.5-.5.7-.4-.3-.9-.6-1.3-.9-.4-.2-1.3.4-1.2-.6,0-.2.9-.2,1.4-.4.6-.2,1.1-.4,1.7-.5.3,0,.6-.2.8,0,.7.4,0,.6-.2.8-.2.3-.4.5-.8.8Z"/>
    <path d="M286.1,121.9c.5-.6.9-1.2,1.4-1.4.4-.2.9,0,1.4,0-.3.3-.5.7-.8,1-.5.5-1,1-1.5,1.5-.2.2-.4.5-.6.7-.1-.4-.3-.8-.4-1.2,0-.1.3-.3.5-.7Z"/>
    <path d="M424.7,181.8c-1,0-1.9-.1-2.8-.4-.2,0-.3-.7-.5-1.1.3,0,.6-.2.9-.1.9.2,1.7.5,2.5.8.9.3,0,.5-.2.8Z"/>
    <path d="M695.1,278.4c-.5-.2-1-.5-.9-.6.3-.8,2.7-1.3,3.2-.7.1.1,0,.7-.1.8-.6.2-1.3.4-2.1.5Z"/>
    <path d="M115.5,241.8c.7-.7,1.3-1.3,1.9-1.9.1-.1.5-.1.6,0,.1.1.2.5.1.6-.8.8-1.5,1.6-2.3,2.3,0,0-.6,0-.6-.1,0-.3,0-.5.2-.9Z"/>
    <path d="M312,145.5c.5,0,.7,0,1,0,.5,0,1.4.2,1.4.4.1,1-.7.4-1.2.6-.2,0-.4.1-.6.2-.4.1-.5,1.2-1.2.4-.7-.8.1-1.1.7-1.5Z"/>
    <path d="M504.1,234.9c.9-.3,1.4-1.6,2.4-.7.2.2.2.5.4.8-.8.2-1.7.5-2.5.7,0,0-.2-.4-.2-.8Z"/>
    <path d="M569.8,236.7c-.6,0-.9,0-1.2,0-.4-.2-.8-.5-1.1-.8.4-.2.7-.5,1.1-.6,1.4-.2,1.6,0,1.2,1.4Z"/>
    <path d="M226.7,143.9c.4.4.8.7.8,1,0,.3-.2.9-.5,1-.6.2-1.2,0-1.3-.8,0-.4-.1-.9-.1-1.3,0-.2.2-.5.3-.7.2.2.4.4.8.8Z"/>
    <path d="M333.1,193.5c-.4,0-.6,0-.7,0-.5-.2-1.1-.4-1.6-.6.5-.1,1.1-.3,1.6-.3.6,0,1.2,0,1.7.3.2,0,.3.6.4.9-.4-.1-.8-.2-1.4-.3Z"/>
    <path d="M299.6,155.2c-.3.5-.6.9-.8,1.3-.2-.2-.5-.3-.6-.5-.1-.2-.2-.5,0-.6.8-.6,1.6-1.1,2.4-1.7,0,0,.3.2.4.3-.4.4-.7.7-1.2,1.2Z"/>
    <path d="M313.6,142.9c-.7-.5-1.4-.8-2-1.1.5,0,1-.2,1.6-.2,1,0,1.4.6,1.2,1.5-.2.9-.4,0-.8-.2Z"/>
    <path d="M722.6,288.4c0-.4,0-.8.2-.9.4-.2,1-.2,1.4-.3,0,.4,0,.9,0,1.3-.4.7-.9.8-1.6,0Z"/>
    <path d="M74,250.7c.2.2,1.1.3.5.9-.4.5-.8,1-1.4,1.3-.2.2-.7,0-1.1,0,.2-.2.3-.5.5-.7.4-.5.9-.9,1.5-1.5Z"/>
    <path d="M237.6,243.9c-.2.2-.5.2-.7,0-.6-.4-1.1-.8-1.7-1.2.2,0,.3-.3.5-.3.9,0,1.8,0,1.9,1.4Z"/>
    <path d="M43.8,151.6c.2.2.4.4.3.5-.2.5.5,1.3-.5,1.5-.3,0-.8-.4-.9-.6-.2-.7-.2-1.5,1-1.3Z"/>
    <path d="M275.6,151.6c-.3.9-1.2.7-1.8,1,0,0-.5-.4-.6-.6,0,0,.3-.4.4-.5.6,0,1.3,0,2,0Z"/>
    <path d="M298.9,289.8c-.8-.7,0-1.2.4-1.3.6-.2,1.4,0,2,.2-.1.2-.2.7-.3.7-.7.2-1.4.2-2.2.4Z"/>
    <path d="M365.6,140.8c.3,1.1-.6,1-.9.8-.5-.2-.9-.8-1.3-1.2,0,0,0-.3,0-.4,0,0,.2,0,.3,0,.6.3,1.2.5,1.9.9Z"/>
    <path d="M1.5,30.1c-.2-1.2.9-.7,1.3-1.3.2.1.5.2.5.3,0,.5,0,.9,0,1.4,0,0-.5,0-.8,0-.3,0-.5-.2-.9-.4Z"/>
    <path d="M141.5,181.1c0,1.5-1,.6-1.6.8,0-.4-.3-.9-.2-1,.5-.7,1.1-.4,1.8.2Z"/>
    <path d="M538.1,245.8c.1-.4.2-.5.3-.6.4-.1.4-1.2,1.2-.6.9.8-.4,1-.4,1.6-.2-.7-1.1,1.5-1.1-.5Z"/>
    <path d="M30.8,90.6c-.2-1.1,0-1.9,1.2-1.8.4,0,.7.2,1,.2-.2.2-.4.5-.7.7-.5.4-1,.7-1.6.9Z"/>
    <path d="M328.3,187.2c-.5-.4-.7-.7-1-1.1.3-.1.7-.4.9-.3.5,0,.9.4,1.4.6-.4.3-.7.5-1.4.8Z"/>
    <path d="M275.5,261.2c.1.3,0,.6-.1.8-.3.4-.6.7-.9,1.1-.2-.1-.4-.2-.4-.4-.1-.9.2-1.5,1.4-1.5Z"/>
    <path d="M336.6,269.2c-.4-1-.1-1.5.8-1.3.3,0,.6.4.9.6-.3.2-.5.3-.8.5-.3.1-.5.2-.9.2Z"/>
    <path d="M361.3,124.5c.2.9,0,1.5-.8,1.8-.3,0-.6,0-.9,0,.1-.2.2-.5.4-.7.4-.4.8-.8,1.3-1Z"/>
    <path d="M180.8,131.7c0,.7.4,1.5-.7,1.3-.2,0-.6-.4-.6-.6-.2-1.1.6-.7,1.3-.7Z"/>
    <path d="M138.3,125.3c0-.3.2-.5.4-.8.2-.5.5-1.1.7-1.6,0,0,.3.2.3.3-.2.6-.3,1.3-.6,1.9,0,.1-.4.1-.7.2Z"/>
    <path d="M658.3,282.2c0-.4,0-.8.2-.9.3-.2.7-.3,1-.3.2,0,.4.4.6.6-.3.2-.6.5-.9.6-.2,0-.5,0-.8-.1Z"/>
    <path d="M362.4,120.5c-.9.9-1.2,0-1.4-.5,0-.2.4-.6.6-.9.3.4.5.7.8,1.4Z"/>
    <path d="M69.6,56.2c.1.6.2,1,.3,1.4-.3-.1-.8-.1-.9-.4-.2-.4-.1-.9-.2-1.4.3,0,.5.1.8.4Z"/>
    <path d="M227.6,188.5c-.4-.6-.7-1.1-1-1.6.2,0,.5-.3.6-.2.7.4,1,.9.7,1.7,0,0-.1.1-.3,0Z"/>
    <path d="M310.7,213.5c.2-1.5,1.1-.8,1.8-.6,0,.3-.1.7-.3.7-.4,0-.9,0-1.5,0Z"/>
    <path d="M115,134.1c0,.5-.1.9-.3,1.3-.3-.2-.6-.4-.9-.6.4-.3.7-.6,1.2-.7Z"/>
    <path d="M417.5,128.1c-1-.6-1.1-1.1-.3-1.6,0,0,.4.2.4.3,0,.4,0,.8,0,1.3Z"/>
    <path d="M113.4,136.9c1.2-.2.9.6.7,1.1,0,.1-.8,0-1.2.1.1-.4.2-.7.4-1.2Z"/>
    <path d="M279,44c0-1.5,1-.6,1.6-.8,0,.2,0,.4,0,.5-.5.2-.9.3-1.5.4Z"/>
    <path d="M558.9,251.7c-.4.1-.8,0-1.1,0,.4-.4.8-.8,1.2-1.2,0,.3,0,.6,0,1.1Z"/>
    <path d="M337.1,265.4c.2-.4.5-.8.8-.8.3,0,.6.4.9.6-.3.1-.6.3-.9.3-.2,0-.5,0-.8-.1Z"/>
    <path d="M168.3,144.1c-.3-.1-.6-.1-.6-.1,0-.5,0-.5.6-.5.4,0,1,.3,1,.5,0,.7-.5.5-1,0Z"/>
    <path d="M352.2,143.7c0,.5,0,.9-.2,1.3-.2-.1-.6-.3-.6-.4,0-.5-.2-1.2.8-.9Z"/>
    <path d="M357.7,111c.5-.7.9-.5,1.1,0,0,.2-.2.7-.4.8-.6.3-.9,0-.7-.7Z"/>
    <path d="M605.2,281.7c-.5.3-.8.5-1.1.6-.2,0-.4-.1-.6-.2.1-.2.3-.5.4-.5.5,0,1,0,1.3,0Z"/>
    <path d="M294.6,128.1c-.2,0-.4-.3-.3-.5,0-.4.2-.9.2-1.3.1.1.2.2.3.3.7.5.4.9-.2,1.4Z"/>
    <path d="M245.9,276.6c.3,0,.5.2.6.4.1.2.2.5.2.8,0,0-.5.2-.6.2-.2-.2-.2-.5-.3-.7,0-.1,0-.3.1-.6Z"/>
    <path d="M606.4,259.4c.4,0,.6.2.8.4-.3.1-.6.4-.9.4-1.1,0-.3-.4,0-.8Z"/>
    <path d="M177.6,182.4c-.6.9-.9.2-1.3,0,0,0,0-.2,0-.3.4,0,.8.1,1.3.4Z"/>
    <path d="M346,235.8c0,.5,0,.8,0,1.2-.3-.3-.6-.5-.8-.8.2-.2.5-.4.8-.4Z"/>
    <path d="M340.4,239.7c.3.2.4.5.6.9-.3,0-.6.2-.8,0-.6-.3,0-.6.2-.9Z"/>
    <path d="M631.6,272.6c-.5.2-.9.3-1.2.5,0-.2,0-.4,0-.6.5,0,.9,0,1.3.2Z"/>
    <path d="M310.1,231.9c0-.9.2-1.1.8-.9.1,0,.1.6,0,.7-.2.2-.5.2-.8.1Z"/>
    <path d="M385.8,208.9c0,.3-.2.5-.4.6-.2.1-.5.2-.8.2,0,0-.2-.5-.2-.6.2-.2.5-.2.7-.3.1,0,.3,0,.6.1Z"/>
    <path d="M81.1,128.7c.3-.2.6-.2,1-.2,0,.4,0,.7-.1,1.1-.3-.2-.5-.4-.8-.9Z"/>
    <path d="M147.9,147c.3-.1.6-.2.8,0,.2.2.3.5.5.7-.3,0-.6.2-.8.1-.3-.1-.4-.4-.5-.7Z"/>
    <path d="M54.2,157c-.5,0-.7-.1-.9-.2.2-.3.4-.6.7-.8.1,0,.5.2.7.4,0,0-.1.4-.5.6Z"/>
    <path d="M289.6,118.7c.7-.2,1,0,.8.6-.1.3-.5.4-.8.6,0-.4,0-.7,0-1.2Z"/>
    <path d="M37.5,121.1c.3,0,.5.2.6.4.1.2.2.5.2.8,0,0-.5.2-.6.2-.2-.2-.2-.5-.3-.7,0-.1,0-.3.1-.6Z"/>
    <path d="M11.6,52.9c.5,0,.8,0,1.2,0-.3.3-.5.6-.8.8-.2-.2-.4-.5-.4-.8Z"/>
    <path d="M766,288.9c-.3.4-.5.7-.6,1.1-.2-.2-.7-.6-.6-.6.3-.4.6-1.2,1.3-.4Z"/>
    <path d="M259.2,212.2c-.9-.6-.2-.9,0-1.3,0,0,.2,0,.3,0,0,.4-.1.8-.4,1.3Z"/>
    <path d="M301.6,295.6c-.3-1,.4-.8.9-.8.1,0,.3.1.4.2-.4.3-.8.5-1.3.7Z"/>
    <path d="M778.6,307.2c-.3.4-.5.7-.8.9,0-.4,0-.7-.1-1.1.3,0,.6,0,1,.2Z"/>
    <path d="M314.9,249.6c.2.3.2.6.2,1,0,0-.4,0-.4,0,0-.3,0-.6.2-1Z"/>
    <path d="M265.4,146.9c.2.3.2.6.2,1,0,0-.4,0-.4,0,0-.3,0-.6.2-1Z"/>
    <path d="M354.1,127.1c-.4,0-.6-.2-.8-.4.1-.1.3-.3.4-.4.2.2.4.5.4.8Z"/>
    <path d="M223.2,224.2c.3-.2.6-.2,1-.2,0,0,0,.4,0,.4-.3,0-.6,0-1-.2Z"/>
    <path d="M123.7,239.2c0,.4-.2.6-.4.8-.1-.1-.3-.3-.4-.4.2-.2.5-.4.8-.4Z"/>
    <path d="M407.1,100.3c.3-.2.6-.2,1-.2,0,0,0,.4,0,.4-.3,0-.6,0-1-.2Z"/>
    <path d="M131.1,163.8c.4,0,.6.2.8.4l-.4.4c-.2-.2-.4-.5-.4-.8Z"/>
    <path d="M73,99.5c.4-.4.6-.8,1-.2,0,.1.2.2.3.3-.3,0-.5.2-.8.2-.2,0-.4-.1-.5-.3Z"/>
    <path d="M307.6,279c0,.4-.2.6-.4.8-.1-.1-.3-.3-.4-.4.2-.2.5-.4.8-.4Z"/>
    <path d="M584.2,269.8c.2.3.2.6.2,1,0,0-.4,0-.4,0,0-.3,0-.6.2-1Z"/>
    <path d="M257.6,269.7c-.3-.2-.5-.4-.7-.7.4,0,.9,0,1.3,0-.2.2-.3.3-.6.6Z"/>
    <path d="M229.1,94.7c.2,0,.4.3.3.5,0,.3-.2.5-.2.8-.1-.1-.2-.2-.3-.3-.6-.4-.1-.6.2-1Z"/>
    <path d="M703.6,299c-.8-.5,0-.8.3-1.2,0,0,.2,0,.3,0-.2.3-.3.7-.6,1.1Z"/>
    <path d="M175.7,183.4c.2.3.2.6.2,1,0,0-.4,0-.4,0,0-.3,0-.6.2-1Z"/>
    <path d="M22.6,141.3c.3-.1.6-.2.8-.1.2,0,.3.2.5.3-.1,0-.3.2-.4.2-.3,0-.7-.1-.9-.3Z"/>
    <path d="M166.1,177.6c0,.3,0,.6-.3.9,0-.3,0-.6.3-.9Z"/>
    <path d="M253.4,286.6c0,.3,0,.6-.3.9,0-.3,0-.6.3-.9Z"/>
    <path d="M588.5,269.3c-.5-1,.3-.3.5-.5,0,0,.2.2.4.3-.2,0-.4.1-.9.2Z"/>
    <path d="M105.7,126.1c0-.4.2-.6.4-.8,0,0,.2.1.4.2-.2.3-.4.5-.8.7Z"/>
    <path d="M27.9,83.2c.3.1.6.4.8.7-.1,0-.3.2-.4.2-.2-.2-.4-.5-.4-.8Z"/>
    <path d="M250.9,227.7l.6.6c-.2,0-.5.1-.7.2,0-.3,0-.6.2-.8Z"/>
    <path d="M254.7,218.8c-.1-.2-.1-.5-.2-.8.2,0,.5.1.7.2l-.6.6Z"/>
    <path d="M189,211.8c.3.3.4.4.6.6-.2,0-.5.1-.7.2,0-.3,0-.6.2-.8Z"/>
    <path d="M228.6,82.2c.2.1.3.4.3.6,0,0-.2,0-.3,0,0-.2,0-.4,0-.7Z"/>
    <path d="M633.2,275.1c.2.2,0,.3,0,.5,0-.2-.2-.3,0-.5Z"/>
    <path d="M381.7,206.8c.1-.2.4-.3.6-.3,0,0,0,.2,0,.3-.2,0-.4,0-.7,0Z"/>
    <path d="M228.3,84.4c-.2-.1-.3-.4-.3-.6,0,0,.2,0,.3,0,0,.2,0,.4,0,.7Z"/>
    <path d="M324.1,299.7c.3,0,.5,0,.7,0,0,.1,0,.3,0,.3-.3,0-.5-.1-.6-.3Z"/>
    <path d="M259.2,233.3c.2.2,0,.3,0,.5,0-.2-.2-.3,0-.5Z"/>
    <path d="M226.4,223.4c0,.3,0,.5,0,.7-.1,0-.3,0-.3,0,0-.3.1-.5.3-.6Z"/>
    <path d="M51.9,25.6c.2.1.3.4.3.6,0,0-.2,0-.3,0,0-.2,0-.4,0-.7Z"/>
    <path d="M242.5,234.2c.1-.2.4-.3.6-.3,0,0,0,.2,0,.3-.2,0-.4,0-.7,0Z"/>
    <path d="M291.7,298.7c0,.3,0,.5,0,.7-.1,0-.3,0-.3,0,0-.3.1-.5.3-.6Z"/>
    <path d="M719.1,283.2c.2.2,0,.3,0,.5,0-.2-.2-.3,0-.5Z"/>
    <path d="M238.7,283.8c.2.1.3.4.3.6,0,0-.2,0-.3,0,0-.2,0-.4,0-.7Z"/>
    <path d="M192.8,134.8c-.2-.1-.3-.4-.3-.6,0,0,.2,0,.3,0,0,.2,0,.4,0,.7Z"/>
    <path d="M749.7,310.7c-.1.2-.4.3-.6.3,0,0,0-.2,0-.3.2,0,.4,0,.7,0Z"/>
    <path d="M218,297.3c.3,0,.5,0,.7,0,0,.1,0,.3,0,.3-.3,0-.5-.1-.6-.3Z"/>
    <path d="M131.6,95.2c.3,0,.5,0,.7,0,0,.1,0,.3,0,.3-.3,0-.5-.1-.6-.3Z"/>
    <path d="M231.8,100.3c-.2.2-.3,0-.5,0,.2,0,.3-.2.5,0Z"/>
    <path d="M344.2,237.6c.2.2,0,.3,0,.5,0-.2-.2-.3,0-.5Z"/>
    <path d="M244.7,158.3c-.3,0-.5,0-.7,0,0-.1,0-.3,0-.3.3,0,.5.1.6.3Z"/>
    <path d="M755.9,300.4c-.2-.1-.3-.4-.3-.6,0,0,.2,0,.3,0,0,.2,0,.4,0,.7Z"/>
    <path d="M214.2,38.3c0-.1.2-.2.3-.2,0,0-.1.2-.3.2Z"/>
    <path d="M130.2,41.9c.1,0,.2.2.2.3,0,0-.2-.1-.2-.3Z"/>
    <path d="M721.9,287.4c-.1,0-.2-.2-.2-.3,0,0,.2.1.2.3Z"/>
    <path d="M83.8,141.5c-.1,0-.2-.2-.2-.3,0,0,.2.1.2.3Z"/>
    <path d="M396.6,94.2c.1,0,.2.2.2.3,0,0-.2-.1-.2-.3Z"/>
    <path d="M754.3,301.6c.1,0,.2.2.2.3,0,0-.2-.1-.2-.3Z"/>
    <path d="M756.4,302.3c-.1,0-.2-.2-.2-.3,0,0,.2.1.2.3Z"/>
    <path d="M357.2,109.8c0-.1.2-.2.3-.2,0,0-.1.2-.3.2Z"/>
    <path d="M127.3,162.9c.1,0,.2.2.2.3,0,0-.2-.1-.2-.3Z"/>
    <path d="M67.8,152.8c.1,0,.2.2.2.3,0,0-.2-.1-.2-.3Z"/>
    <path d="M110,222.4c.1,0,.2.2.2.3,0,0-.2-.1-.2-.3Z"/>
    <path d="M294.6,235.6c-.1,0-.2-.2-.2-.3,0,0,.2.1.2.3Z"/>
    <path d="M203.5,236.2c1.3-.8,1.4,0,1.4,1,0,.1-.7.4-.7.4-.3-.3-.5-.7-.7-1.3Z"/>
  </g>
</svg>