<?xml version="1.0" encoding="UTF-8"?>
<svg id="Layer_1" xmlns="http://www.w3.org/2000/svg" version="1.1" viewBox="0 0 583.7 270.4">
  <!-- Generator: Adobe Illustrator 29.3.1, SVG Export Plug-In . SVG Version: 2.1.0 Build 151)  -->
  <g id="Shape_26">
    <path d="M583.7,35.1c-.2,0-.3-.1-.5-.2.1-.1.2-.3.4-.4,0,.2,0,.4,0,.6Z"/>
    <path d="M369.3,31.5c1,0,1.9-.2,2.9-.2.3,0,.5,0,.8,0-.1.2-.3.4-.4.6-.2.5-.5,1-.6,1.6,0,.3,0,.6,0,.9.2-.2.5-.3.7-.5.1-.1.2-.4.3-.5.3-.4.8-1,1-.9.5.1,1.1.6,1.2,1,.2.8.3.6.7.2.7-.7,1.4-1.1,2.4-.5.2.1.7,0,.8-.3.6-.6,1.2-.9,2.1-.8,1.1,0,2.2.1,3.3.2.6,0,1.1,0,1.4-.7.7-1.6,1.6-3.1,1.5-5,0-.5,1-1.1,1.6-1.6.7-.5,1.5-.8,2.2-1.3.2-.1.3-.5.4-.8-.3,0-.7-.2-1-.2-.4,0-.8.3-1.2.5.4-.3.8-.5,1.1-.8.1,0,.2-.1.4-.2.7-.6,1.4-1.4,1.5.4,0,0,.4.2.4.2.2-.3.4-.5.5-.8,0-.3-.2-.7-.2-1,.2-1,1.1-1.2,2-.4,1.3,1.1,2.7,2.1,3.8,3.4.8.9,1.1,2.2,1.7,3.3.5.9,1.2,1.7,1.8,2.6.5.7,1.4,1.4,1.6,2.2.6,2.2,2.1,3,4,3.4,1.1.2,1.6.8,1.7,1.8.1.8.3.9,1.1.6.4-.1,1.1.1,1.5.4.7.6,1.4,1,2.4.9.2,0,.6,0,.7.2.7,1.4,2.1,1.4,3.3,2.1.2,0,.4.2.5.2,1.7-1,2.4.5,3.2,1.5.6.8,1.2,1.1,2.1,1,.9,0,1.5.2,1.9,1.1.5,1,1.1,1.9,1.8,2.8.3.4.9.6,1.3.6,2.7,0,5.5,0,8.2-.2,1.2,0,2.4-.5,3.6-.6,2.1-.3,4.2-.5,6.3-.7,1.2-.1,2.4-.2,3.6-.2.5,0,.9.1,1.4.2,1.2.2,2.4.3,3.6.5.3,0,.6.2.9.4.6.6,1.2,1.3,1.9,1.8.3.2.9.4,1.2.3,2.2-.8,3.3.8,4.6,2,.4.3.6.8,1,1.2.9.9,1.4.7,1.8-.5.3-.8.7-1.3,1.7-1.3,6.5,0,13,0,19.4,0,1.2,0,2.5-.3,3.7-.4.8,0,1.5.2,2.3.2,1.2,0,2.4-.1,3.6-.2.3,0,.6,0,.8.2.6.5,1.1.4,1.4-.2.4-.6.2-1.1-.4-1.6-.4-.4-.8-.8-1.2-1.2-.2-.3-.3-.6.3-.7,1.1-.2,2.1-.6,3.2-.9.7-.2,1.6-.4,2.3-.2.8.2,1.2.9.8,1.8-.1.2,0,.6,0,.8.2-.2.4-.4.6-.5,0,0,.2-.2.2-.2,0-1.1.8-1.3,1.7-1.5.7-.1,1.3-.5,2-.8.1,0,.3,0,.4,0,0,.1,0,.3,0,.4-.4.8.1,1.8,1,1.8.7,0,1.3-.1,2-.2,1.1-.1,2.2-.6,3.2-.4,1.6.3,3.2.9,4.7,1.5.5.2.8.8.9,1.6.2,1,.7,1.9,1.2,2.8.5.9,1.6.6,2.3.4,1.2-.5,2.2,0,3.3.2.3,0,.6.6.7,1,.1.5,0,1.1,0,1.6,0,.2.3.3.5.4.1-.2.3-.4.3-.6,0-.4,0-.9,0-1.3,0-.1.3-.3.5-.3,1.8,0,2.9,1.8,2.3,3.4,0,.3,0,.7.1,1,.2-.2.5-.4.7-.6.2-.3.2-.6.2-.9.2-.8,1-1.1,1.7-.6.3.3.7.5.9.9.8,1.8,2.5,2.7,3.7,4.1.5.6,1.2,1.2,1.6,1.9.2.3,0,.9,0,1.3,0,.2-.2.3-.2.5,0,.5,0,.9,0,1.4.2-.3.5-.7.5-1,.3-1.1,1.1-.7,1.7-.6.2,0,.4,0,.6.1,0-.2-.1-.4-.3-.5-1.2-1.2-1.1-1.3.5-1.7.6-.1,1.2-.1,1.8-.1.2,0,.5.4.5.6.4,2.2,2.2,3.4,4.4,2.9,1-.2,1.8-.2,2.8.8,3,3.1,4.5,6.8,6.3,10.6.7,1.4,1.7,2.6,1.9,4.3,0,.2.8.5,1.3.5.8,0,1.7-.4,2.5-.6.5,0,.9.1,1,.8.6,3,1.5,6,2,9,.2,1.5-.1,3-.3,4.5,0,.2-.1.4-.1.6,0,3-.2,6-.2,8.9,0,3.3-.1,6.6-.2,10,0,2.3-.1,4.7-.2,7-.1,2.4-.3,4.7-.4,7.1,0,1,0,2,0,3,0,3.4-.1,6.7-.2,10.1,0,2.7-.2,5.5-.2,8.2,0,3.5-.1,7.1-.2,10.6-.1,3.9-.3,7.9-.5,11.8,0,.4,0,.7-.2,1-1.4,3-2.6,6.2-6.2,7.2,0,0,0,0,0,0-2-.5-3.5.8-5.2,1.4-1.3.5-1.5.3-1.7-1,0,0-.2-.2-.3-.1-.4.1-.9.2-1.3.4-.7.3-1.6.6-2,1.1-1.1,1.5-2.8,1.7-4.3,2.3-1.6.6-3.4.9-5.1,1.2-.6.1-1.4,0-1.8-.3-.6-.5-1.1-.3-1.4.1-1.1,1.4-2.7,1.7-4.3,2.1-.5.1-1.1-.3-1.6-.5-.5-.2-.8-.8-1.4-.5-.1,0-.5-.2-.5-.4,0-.2.2-.4.3-.7.2.1.4.2.6.4.1,0,.2.2.3.3,0-.2.2-.4.1-.5-.3-.5-.6-1.2-1-1.5-.2-.1-.9.5-1.3.8-.3.3-.7.6-.8,1-.3,2.1-1.9,2.2-3.5,2.2-.4,0-.8,0-1.3,0-.7,0-.7,0-.6.7,0,.1-.3.5-.4.4-.4-.1-.8-.3-1.2-.5-.5-.2-1-.4-1.5-.6-.3-.1-.6-.2-.9-.4-.2-.1-.2-.4-.2-.7.2,0,.4.1.6.1.2,0,.3,0,.5,0,0-.1-.1-.3-.2-.4-1-.7-1.6-.7-2.4.3-.5.6-.9.9-1.5.1-.2-.3-.8-.2-1.3-.2-.4,0-.8,0-1.2,0-.5,0-1,0-1.4.3-1.1.8-2,1.7-3.1,2.5-.3.2-.8.2-1.2.2,0-.3.3-.6.2-.9-.2-.9-.4-1.8-.8-2.6-.3-.6-1.2-.2-1.7.7-.4.8-.6,1.6-.9,2.4-.7,1.6-1.5,3.2-2.3,4.8-.1.3-.5.6-.7.6-1.1,0-2.4.6-3.4-.5-.6-.6-1.4-1.2-2.2-1.5-1.1-.5-2.3-.3-3.4.3-2.5,1.5-5.3,2.1-8.1,2.5-1.3.2-2.4,0-3.6-.7-1.5-.9-3.5-.7-5.1-1.8-.4-.3-1.1-.1-1.7,0-2,.3-3.9.6-5.9.9-.8.1-1.6.3-2.3.4-.5,0-1.1,0-1.5-.2-2.2-1.2-4.5-1.7-6.9-2.1-4-.5-7.9-1.2-11.9-1.8-2-.3-4.1-.4-6.1-.5-3.3-.2-6.6-.4-9.9-.4-2.7,0-5.4.4-8.1.7-.3,0-.7.5-.8.9-.3,1.9-1.4,3.5-2.1,5.3-.6,1.6-1.1,3.3-1.6,4.9,0,.2.1.5.2.8.2-.1.4-.2.6-.4.3-.2.5-.6.8-.6.4,0,.9.2,1.3.3-.5.5-.9,1-1.4,1.5,0,0-.2,0-.3,0-1.4,0-1.4.2-1.1,1.6.2,1,.3,2.1.3,3.2.1,1.9.1,3.7.3,5.6,0,.9-.5.9-.9.7-.9-.3-1.5,0-2.2.5-1.2.9-2.6,1.1-4.1,1.2-.9,0-1.8,0-2.7,0-.2,0-.4.3-.6.5.2.1.5.4.7.4,1.2-.1,2.4-.2,3.6-.4,1.2-.2,2.4-.5,3.5-.8.7-.2,1.5-.4,2.2-.5.1,0,.4.2.5.4.1.2.2.5.2.8.2,1.9.3,3.8.5,5.8.3,3.2.6,6.5,1.6,9.6,0,.3.3.6.2.9-.2,1.2,0,2.3.4,3.4.2.7-.4,1.7-.8,2.4,0,.2-.8.1-1.2,0-.4-.1-.8-.6-1.2-.7-.5-.1-1-.2-1.1.6,0,.5-.3.9-.5,1.4-.2.6-.5,1.2-.6,1.8,0,.9-.3,1.8-1.2,2.2-.1,0-.3.2-.3.3-.8,2.3-3,1.8-4.7,2.3-1.7.4-3.5.7-5.3,1.1-1.4.4-1.8.1-2-1.4,0-.3-.2-.6-.3-.9-.2.2-.4.4-.6.6-.2.2-.4.3-.6.4,0-.3-.3-.5-.3-.8,0-.6.7-1.4-.6-1.5.1-.3.3-.5.4-.8.2-.3.4-.6.6-.9-.3-.1-.7-.2-1-.4-.4-.3-.7-.7-.8-1.2-.2-.7,0-1.6-1.3-1.6-.3,0-.7-.8-1-1.2-.2-.2-.4-.7-.5-.7-1.3.1-1.4-1-1.8-1.7-.4-.6-.8-1.3-1.3-1.8-.5-.6-1.1-2.9-.7-3.6q1.1-2.3-1-3.8c-.3-.2-.5-.6-.8-.8-.4-.3-.8-.6-1.2-.6-1.4-.1-2.2-.8-2.2-2.3,0-1,0-2.1-.3-3-.5-1.3-1.4-2.4-2.1-3.6,0,0-.3,0-.3,0,0,.1-.1.3,0,.4.1.4.3.9.5,1.3,0,.2,0,.5.1.8-.3,0-.6,0-.8-.2-.4-.2-.8-.5-1.3-.7.1.5.3.9.4,1.4,0,.2.3.5.2.7-.1.3-.5.4-.7.6-.2-.3-.6-.7-.6-1,.1-.6-.8-1.3.1-1.8.6-.3.5-.6.4-1.1-.2-.8-.3-1.6-.3-2.4,0-.4.3-.9.5-1.3.3-.7.7-1.3,1-2,0,0-.1-.2-.2-.2,0,0-.3,0-.3,0-.2.4-.4.8-.6,1.2-.1.2-.3.4-.5.6-.1-.2-.4-.5-.4-.7,0-1,0-2.1.3-3.1.3-1,0-1.1-.8-1-2,.1-2.2.1-2.7-1.9-.5-1.8-1.3-3.4-1.2-5.3,0-.7.2-.9,1-1,2.6-.1,5.3-.3,7.9-.4,2.3-.1,4.7-.2,7-.2.5,0,1,0,1.5,0,.1,0,.3-.2.4-.3-.1,0-.3-.2-.4-.2-3.9,0-7.9,0-11.8,0-1.8,0-3.5,0-5.3.3-.4,0-.8.5-1,.9-.4.7-.7,1.4-.9,2.1-.3.9-.7,1.1-1.4.3-.1-.2-.4-.3-.5-.5-.3-.9-.7-.7-1.4-.3-.4.2-1,.4-1.4.2-.2-.1-.2-.8-.3-1.3,0-.3-.2-.6-.3-.8-.3.1-.6.2-.8.4-.2.2-.2.5-.3.8-.6,1.3-.6,1.3.8,1.6,1,.3,2,.6,2.9,1,.6.3,1.2.8,1.4,1.3.4,1-.2,1.8-1,2.2-.6.3-.7.6-.3,1.1.1.1,0,.4,0,.6-.2,0-.6,0-.7-.2-.6-.9-1-2-1.6-2.9-.5-.7-1.2-1.3-1.9-1.9,0,0-.5.1-.6.3-.5.9-1.3,1-2.2.9-.2,0-.4-.3-.6-.5.2-.2.3-.5.5-.5.5-.2,1-.2,1.5-.3.1,0,.2-.1.3-.2,0,0-.2-.1-.3-.2-1.2-1-1.9.1-2.7.6-1.1.6-2.1,1.3-3.2,1.6-.8.2-1.8-.2-2.6-.6-.7-.4-1.3-.8-2.2-.2-2,1.4-3.8.1-5.8-.4-2-.6-4-1.2-6,0-.4.3-1.1.2-1.7,0-3.1-.8-6.1-1.7-9.2-2.6-1.6-.4-3.2-.8-4.9.1-.3.2-1-.1-1.4-.3-1.3-.6-2.7-1-4.2-.9-.4,0-.9-.3-1.4-.5-.9-.4-1.8-.9-2.8-1-1-.2-1.8-.6-2.3-1.3-1.1-1.6-2.8-2.1-4.5-2.8-.5-.2-1.2,0-1,.7.6,2.3-.5,3.8-2.3,5-.9.6-1.9,1.2-2.8,1.7-.9.5-1.3,0-1.6-.9-.3-.8-.7-1.6-1.1-2.4,0-.2-.5-.2-.7-.2,0,.2,0,.5,0,.7.5,1-.3,1.1-.9,1.2-.9.1-1.8,0-2.7,0-1.7.2-3.4.5-5,.8-2,.3-4,.6-6.1.8-.2,0-.5-.2-.8-.3.3-.1.5-.3.8-.4,1.7-.3,3.4-.5,5.1-.7.2,0,.3-.3.5-.4-.2,0-.4-.3-.6-.3-2,0-4,0-5.9,0-.6,0-.9.4-1.3,1-.9,1.4-2.1,2.6-3.3,3.8-.2.2-1,0-1.3-.4-1.3-1.2-2.5-2.4-3.6-3.6-.8-.9-1.7-1.2-2.8-1.2-.5,0-1-.4-1.4-.7-.9-.6-1.7-1.3-2.7-1.9-.1,0-1,.6-1.1,1.1-.4,1.6-.9,1.8-2.6,1.4-3.1-.8-5.3-2.9-7.4-5-2.2-2.3-4-5-6.1-7.4-.8-.9-1.7-1.8-3.1-1.9-.5,0-1.2-.4-1.3-.8-1.3-3.5-4.3-5.2-7.1-7.2-1.6-1.1-2.8-3.8-2.2-5.5,0-.3,0-.7-.2-1-.2.2-.6.4-.6.7,0,1.2-.1,2.5,0,3.7,0,.6.5,1.3.6,1.9.2.8-.5,1.8-1.5,1.8-2,.1-3.7,1.2-5.5,2-.5.2-1.1.3-1.7.3-1.6-.2-3.1.5-3.9,1.8-.6,1-1.4,1.3-2.4.7-1-.7-1.5-.3-2,.5-.2.3-.7.5-1.1.7-.3.2-.7.2-1,.4-.7.7-1.4,1.5-2.1,2.3-.1.1-.3.2-.5.2,0-.1-.1-.3-.1-.4,0-1.1.2-2.2.2-3.3,0-.3-.2-.5-.3-.8-.1.2-.3.5-.4.7-.4,1-.3,2.2-1.4,2.8-.6.3-1.2.6-1.9.8-1.6.4-3.2.6-4.8,1.2-1.2.4-2.4.2-3.6.2-.5,0-1.1,0-1.5.3-1.2.9-2.2,1.9-3.3,2.8-.2.2-.5.4-.7.4-1.8,0-3.3.7-4.8,1.5-1.1.5-2,1.4-3.2,1.7-1.5.4-3.1.5-4.6.7-3.2.4-6.5.8-9.7,1.1-1,.1-2,0-3,.3-.9.2-1.7.8-2.6,1.1-.4.2-.7.4-1.1.4-1.7,0-3.4.2-5,.9-1.1.5-2.4.5-3.6.7-1.8.3-3.6.5-5.3.9-2.1.5-4.3,1-6.3,1.9-1.5.6-3,1.4-3.7,3.2-.1.4-.8.8-1.2.8-1.5.2-3.1.2-4.6.3-.2,0-.4,0-.6-.2-1.2-.6-2.3-1.4-3.5-1.8-2.1-.7-3-2.3-3.8-4.1-.4-.8-.7-1.5-1.1-2.3-.6-1.1-1.3-2.2-1.7-3.4-.3-.8-.6-1.4-1.4-1.8-1.1-.6-1.6-1.6-1.9-2.8,0-.2-.3-.4-.5-.6-.1.2-.4.4-.4.7-.5,1.9-.5,1.8-2.4,2.4-1.1.3-2,.5-3,0-.1,0-.5.5-.8.8-.3.3-.5.7-.8.8-1,.1-1.1.8-1.3,1.5-.2,1.1-.4,2.3-.7,3.4-.6,1.8-2,2.3-3.9,1.9-1.9-.4-3.9-.5-5.8-.6-.9,0-1.1.7-1.2,1.4-.7,3.1-1.7,6.1-3.1,8.9-.3.6-.5,1.3-.8,1.9-.3.4-.7.9-1.1,1.1-.6.4-1.6,0-2.1.8,0,0-.5,0-.6,0-.9-.8-1.9-.7-2.9-.4-1.9.6-3.6,0-5.4-.3-3-.5-5.9-1.7-9-1.7-1.3,0-2.7-.2-4-.2-1.5,0-2.9-.2-4.2-.9-.7-.3-1.7-.4-2.4-.2-1.6.6-3.1.5-4.6-.3-.9-.5-2-.5-3-.7,0,0-.1,0-.2,0-.4.2-.9.6-1.1.5-.7-.4-1.5-.8-1.9-1.4-.5-1-1.2-1.8-2.3-1.8-1.2,0-1.9-.8-2.7-1.4-.5-.3-.8-.8-1,.3,0,.5-.7.8-1,1.3-.6.7-1.2,1.4-1.7,2.1-.8,1.3-1.4,2.6-2.1,3.9-.5,1-1,2.1-1.5,3.1-.6,1.1-1.5,1.8-2.6,2.2-.3.1-.5.4-.8.7-.1.1-.3.3-.4.4,0-.2-.2-.4-.3-.6,0-.1,0-.3,0-.5,0-.2-.2-.5-.3-.7-.2.1-.5.3-.5.4-.2.8-.5,1.3-1.4,1.1-.9-.2-1.9-.3-2-1.6,0-.3-.5-.8-.8-.8-.9-.2-1.8-.3-2.6-.2-1,0-1.6-.3-2-1.1-.2-.3-.7-.7-1.1-.7-1.8-.3-3.7-.2-5.4-1.1-.7-.3-1.7-.1-2.2-.9-.5-.7-1-1.4-1.3-2.2-.4-1-1.1-1.7-2-2.3-1.1-.8-2.8-1.2-3.1-2.9,0-.3-.5-.8-.8-.8-2.8-.7-4.9-2.5-7.1-4.2-.6-.5-1.3-1-1.9-1.5-1.2-1-2-2.3-2.1-4,0-.2-.2-.4-.3-.7-.1.2-.3.4-.4.6-.2.4-.4.8-.6,1.2-.2-.5-.5-1-.5-1.5-.1-.8,0-1.5.7-2.1.7-.6.5-1.7,0-2.5-.5-.8-.9-1.8-1.1-2.7-.5-2.6-1.1-5.2-1.1-7.7,0-2.2-.2-4.5-.3-6.7,0-1.1,0-2.3,0-3.4,0-.6,0-1.2.3-1.7,0-.3.5-.6.6-.9.5-1,1-1.8.1-3-1-1.4-.6-3-.2-4.6,0-.2,1-.4,1.4-.2.4.2.6.8.9,1.2.1.1.2.3.3.4,0-.2.3-.5.2-.6-.4-.7-.9-1.4-1.4-2.1-.1-.2-.3-.4-.3-.6-.1-1-.2-1.9-.2-2.9,0-8.3,0-16.7,0-25s0-8.7,0-13.1c0-2.7-.1-5.4-.2-8.2,0-3.4-.2-6.7-.2-10.1,0-.7,0-1.3.2-2,0-.3.4-.6.7-.6,1.5-.1,1.7-1.2,2.2-2.3.3-.7,1.2-1.3,1.9-1.8.6-.5,1.3-.8,1.8-1.3,1.8-2,4.1-3.5,6.5-4.7,2.1-1.1,3.8-2.8,5.7-4.2.8-.6,1.5-1.1,2.3-1.6.3-.2.6-.3.9-.2,2,.3,3.3-.4,4.1-2.2.4-.8.6-1.7.9-2.5.2-.4.5-.8.9-1.1,3.7-3.5,8.5-5.3,12.7-7.9,1.5-.9,3.1-1.7,4.5-2.8.7-.6,1.9-.5,2.5-1.4.2-.3.3-.6.6-.9.2-.3.6-.7.8-.6,1.2,0,1.6-.7,2.2-1.5.7-1,1.3-1.1,2.3-.5.2.1.4.3.7.3,1.3.2,1.7,1.4,2.3,2.3.1.2,0,.5,0,.7-.2,0-.4-.1-.5-.3-.5-.5-1-.5-1.7-.1-.6.3-1.5.4-2.2.3-.9,0-1,0-1,.9,0,1-.1,2.1-.3,3.2,0,0-.6,0-.6,0-.1-.4-.3-.8-.3-1.1,0-.6,0-1.2,0-1.8,0-.2-.2-.4-.4-.6-.2.1-.4.2-.5.4-.4,1.3-1.7,1.6-2.6,2.4-.1.1-.4,0-.6.1-.5.2-1,.2-1.4.5-1,.8-1,1.6-.1,2.7.4.5.2,1.8,0,2.5-.3.7-.5,1.1,0,1.7.7.6.7,2.4.1,3-.5.6-.9,1.3.2,1.9.9.5.9,2,.1,2.8-.6.6-1.1,1-.2,1.9,1,1,.8,2.5-.2,3.5-.4.4-.4.6,0,1,1.1,1.1,1.1,2.5.1,3.7-.2.2-.2.9,0,1,1.2,1.3.7,2.5,0,3.8-.1.2-.1.7,0,.8,1,1.3.9,2.5.1,3.8-.3.5-.3.8.1,1.3.7.8.5,1.9.3,2.9-.1.6,0,1.2,0,1.9,0,1.1,0,2.2,0,3.4,0,.4,0,.8,0,1.2.2,1.3.7,2.6-.5,3.7-.1.1,0,.7,0,.9.8,1.1.8,2.3,0,3.5-.2.3-.2,1,0,1.3,1,1.1.9,2.4.2,3.4-.4.7-.5,1.2,0,1.8.5.5.3,2.6-.2,3.1-.5.5-.9.9,0,1.4.8.4.8,2.3.1,3-.5.5-.7.8,0,1.4.6.5.4,2.6-.2,3.2-.5.5-.6.8,0,1.4.8.8.7,2.4,0,3.2-.3.4-.7.8,0,1.3.6.6.8,2.7.4,3.5-.5.9.2,2.4,1.3,2.4,5,0,9.9.1,14.9.2,1,0,1.3-.6,1.3-1.3.1-1.4,0-2.9,0-4.3,0-.4-.6-.8-.8-1.3-.1-.3,0-.7,0-1.1.2-.7.7-1.4.8-2.2.1-1.2,0-2.4,0-3.5,0-.9,0-1.8-.9-2.4-.6-.4-.4-1,.1-1.3.9-.4.9-1,.8-1.9-.2-1.3,0-2.7,0-4.1,0-.6-.3-1.2-.5-1.7-.3-.5-.3-.9,0-1.4.3-.5.6-1.1.5-1.6-.6-2.9.9-4.9,2.7-6.8,1.1-1.1,2.3-2.1,3.3-3.2.3-.4.6-.9.6-1.4,0-.9.5-1.2,1.3-1.4.4,0,.8-.5,1-.9.4-.7.7-1.5,1.2-2.1.7-1,1.8-1.7,2.2-2.8.3-1,.5-1.6,1.7-1.5.1,0,.4-.5.5-.8.2-.4.4-.8.6-1.2.4.2.8.4,1.1.7.6.6,1,1.3.8,2.2-.1.8.2,1.4.8,2,.9.8,1.6,1.7,2.4,2.6,0,.1.2.4.2.4-1.1.7-.2,1.3.1,2,.4.9.8,1.9,1.2,2.8,0,0,0,.2.1.2,1.7.7,1.1,2.9,2.6,3.8.2.1.3.8.2,1-.7.9,0,1.5.5,2.1.7.8,1.4,1.6,2.1,2.3,0,0,.2.1.2.2.3.9.6,1.9,1,2.8.6,1.4,1.4,2.8,2.1,4.2.4.8.8,1.7,1.1,2.5.3.8,1,1.4,1.2,2,.4,1.6,1.9,2.5,2.5,3.9.1.3.2.7.2,1,0,1.1.2,1.8,1.2,2.5.5.4.7,1.4.9,2.2.1.6,0,1.1.7,1.7.9.7,1.5,1.8,2.3,2.7.1.2,0,.5,0,.7-.4,1.2.4,2.5,1.6,2.6,0,0,.2,0,.2,0,5.2,0,10.4.2,15.6.2,1.1,0,2.3-.2,3.4-.2.8,0,1.7,0,2.6,0,.3,0,.7-.2.7-.3,0-.4,0-.8-.2-1.1-.4-.8-.8-1.5-1.3-2.2-.3-.5-.5-.9-.9-1.3-.6-.7-1.2-1.5-1-2.4.2-1.2-.7-1.9-1.4-2.6-1.5-1.7-2.7-3.6-3.2-5.8,0-.3-.5-.5-.7-.7-.7-.8-1.6-1.4-1.5-2.8.1-1.1-.8-2-1.6-2.7-1.6-1.4-2.3-3.3-2.9-5.2-.2-.5-.6-.9-1-1.3-1-.9-1.4-2-1.5-3.4,0-.8-.9-1.6-1.5-2.3-.4-.5-1-.9-1.3-1.4-.3-.4-.6-.9-.5-1.2.5-1.3-.3-2.1-1-3-.4-.5-.8-.9-1.3-1.3-.9-.7-1.1-1.6-1.1-2.6,0-.9-.3-1.5-.9-2-.8-.7-1.1-1.4-1.2-2.5,0-.9-.8-1.7-1.3-2.5-.3-.5-.9-.8-1.2-1.2-.2-.4-.3-1.1-.1-1.5.2-.7.4-1.1-.6-1.2-.7-.1-1.2-.4-1.4-1.3-.2-.9-.6-1.7-1.1-2.5-.3-.5-.9-.9-1.5-1-.9-.2-1-.5-.3-1,.7-.6.7-1.1,0-1.7-.5-.5-1-1-1.5-1.5-.5-.5-1.5-1-.3-1.9.2-.1.1-.8,0-.9-.7-.6-.3-1.1.1-1.6.7-.9,1.4-1.8,2.2-2.6,3-3.1,6-6.2,9-9.3.8-.8,1.5-1.6,2.2-2.4,0-.1.3-.2.3-.3,0-2.2,1.9-2.9,3.1-4.2.3-.3.4-.7.6-1.1.3-.6.5-1.4.9-1.9,2.4-2.7,5-5.2,7.4-7.9.8-.9,2.3-1.2,2.1-2.9,0-.2.8-.7,1.2-.7.7,0,1-.2,1-1,0-1,.4-1.6,1.4-1.6.2,0,.4,0,.5-.2.5-1,1.1-2.1,1.5-3.1.3-.8-.2-1.2-1.1-1.2-4,0-8.1-.2-12.1-.2-3.4,0-6.7,0-10.1.3-.7,0-1.5.7-2,1.3-1.2,1.3-2.3,2.7-3.4,4.1-.3.3-.6.7-.6,1.1,0,1.4-1.4,2.4-1.2,3.9,0,.3-.4.8-.7.9-2.9,1.5-4.3,4.5-6.7,6.5-.3.2-.5.7-.5,1.1-.1.7-.5,1-1.2,1.2-.4.2-.8.6-1,1-.6,1.1-1,2.2-1.5,3.2-.2.3-.7.4-1.1.6-.3.2-1,.5-.9.6.4,1.7-1.1,2.1-1.9,3-1.5,1.7-3,3.3-4.5,5-.3.3-.5.5-.8.8-.3.3-.7.6-.8,1-.3,2-1.3,3.6-2.6,5.1-.5.6-1,1.3-1.6,2-.2.2-.3.5-.6.6-1.8.9-2.5,2.9-3.9,4.1-.2.2-.7.5-.8.4-.3-.2-.5-.6-.6-.9-.2-.9-.3-1.8-.5-2.7,0-.2,0-.5,0-.7,1-2.4.2-4.9.4-7.4,0-.3-.1-.6-.2-.8-.4-.7-.6-1.3,0-2.1.2-.3.2-.8.2-1.1,0-1.7,0-3.4,0-5,0-.8,0-1.4-.7-1.9-.5-.4-.7-.8.1-1.2.2-.1.4-.6.4-.9,0-2,.2-4.1-.3-6.1-.4-1.7,0-2,1.5-1.9,0,0,.2-.4.2-.6-.2-.6-1.3-.8-1.7-.2-.6.7-1.1,1.5-1.7,2.3-.1.2-.1.5,0,.7.4.7.3,1.4-.2,2-.2.2-.3.5-.5.7-.1.2-.2.4-.3.6-.2-.2-.6-.5-.6-.7,0-1.1,0-2.1.5-3.2,1.1-2.1,2.3-4.3,1.5-6.9-.2-.7-.1-1.5-.3-2.3,0-.3-.4-.5-.5-.8-.2.3-.5.7-.5,1,0,1.3.1,2.5.2,3.8,0,.5.2,1.3-.8.7,0,0-.7.6-.7,1-.2,1.6-.3,3.1-.5,4.7,0,.3-.4.6-.6.9-.3-.3-.8-.6-.8-.9,0-1.5.2-2.9.4-4.4.2-1.5.4-3.1.7-4.6.2-.9.6-1.8,1-2.6.4-.8,1.1-1.4,1.7-2.2.8-1,1.9-1.4,3-2,2.5-1.4,5-3,7.6-4.4.6-.3,1.4-.6,2-.6,1.1,0,1.9-.5,2-1.4.2-1.4,1.2-1.6,2.2-1.8,1.8-.4,3.7-.8,5.6-1.2.5-.1,1.2-.3,1.6-.1,1.6.5,2.9-.3,4.3-.5,1.4-.3,2.8-.5,4.2-.6.3,0,.6.6.9.9.3.3.7.6,1.1.9.5.3,1,.4,1.5.7.6.3,1.2.6,1.5-.4.2-.6.6-.9,1.4-.6,1.1.5,2.1.9,3.3,1.2,1.2.4,2.5.7,3.7.9.4,0,1-.3,1.2-.6.7-1.2,1.6-1.8,3.1-1.7,1.8.1,3.6,0,5.4,0,3.7,0,7.4-.5,11-1.4.4-.1.8-.4,1.2-.6.7-.3,1.5-.6,2.2-.7,1-.1,1.2-.4,1-1.4-.2-.9-.3-1.9-.3-2.8,0-.2.3-.5.5-.7.6-.4,1.2-.8,1.8-1.1.3-.2.8-.1,1.2-.2.3,0,.6,0,.9,0,3.9,0,7.7.1,11.5-.9,1.2-.3,2.6-.4,3.8-.7,1.2-.3,2.4-.5,3.6-1,2.3-1,4.9-1.6,6.8-3.5.2-.2.6-.2.9-.2,3,0,6-.2,8.9-.2,3.9,0,7.8,0,11.8,0,.6,0,1,.1,1.3.7.9,1.7,1.8,3.4,2.8,5,.5.8,1.3.6,1.8.3,1.8-.9,3.6-1.3,5.7-.8.9.2,1.9.2,2.9.2,1.9,0,3.8.2,5.7.2,3.9.2,7.8.4,11.7.4,1.3,0,2.5-.2,3.8-.5.9-.2,1.5,0,2.1.7.6.7,1.1,1.6,1.8,2.2.4.4,1.2.9,1.7.8,1.2-.1,1.8.5,2.2,1.3.5,1,.9,2.2,2.2,2.6.2,0,.3.5.3.7,0,2.8,0,5.6,0,8.4,0,6.1-.2,12.2-.2,18.3,0,3.2,0,6.4,0,9.5,0,3.4.3,6.7.4,10.1,0,2.6,0,5.2,0,7.8.1,3,.3,6,.7,9,.2,1.6,1,3.1,1.5,4.6.2.7.5,1.3.6,2,0,.2-.2.4-.3.6,0,.2-.1.5-.2.7.2-.1.6-.2.7-.4.2-.5.3-1,.2-1.4-.6-2.3-1.4-4.5-1.9-6.8-.3-1.3,0-2.6,0-4,0-.8-.2-1.6-.2-2.4,0-1.4-.2-2.8-.2-4.1,0-4.3,0-8.6,0-13,0-4.3-.3-8.6-.4-13,0-1.6.2-3.2.2-4.8,0-3.8,0-7.6,0-11.5,0-1.3.2-2.5.2-3.8,0-1.2-.2-2.4-.2-3.6,0-1.1.2-2.2.5-3.3,0-.3.4-.6.7-.6,2.2,0,3.8-1.3,5.6-2.2,1.9-.9,3.6-1.9,5.4-2.9.4-.2,1,0,1.5,0,.7,0,1.5.1,2.2,0,1.9-.5,3.1.5,3,2.6,0,.4,0,.9.2,1.3.4.6.3.9-.4,1.1-.1,0-.2.3-.3.4.2,0,.4.2.5.2,1.6-.8,2.4-.4,2.8,1.4.1.5,1,.5,1.2-.2.3-1.1.8-1.3,1.8-.7.2.1.6,0,.9,0,.5,0,1.3-.4,1.6-.1,1.2,1.1,2.2,0,3.2-.3.1,0,.2-.3.3-.4-.2,0-.3-.2-.5-.3-.7-.1-1.3-.3-2-.2-1.7.3-2.5-1-3.5-2-.2-.2-.5-.3-.8-.5,0,.3-.2.8,0,1,.3.4.7.7,1.1,1.1.1.1.2.3.2.5-.1,0-.3,0-.4,0-1.3,0-2.2-.7-2.3-2,0-.2-.2-.5-.3-.5-.3,0-.7,0-1,0,0,.3,0,.6.1.9,0,.2.3.4.4.6,0,.2,0,.6-.1.7-.1.1-.7,0-.7,0-.3-.7-.8-1.4-.8-2.2,0-.3.8-.9,1.3-1,1.2-.3,2.5-.7,3.8-.7,1.5,0,3,.4,3.9,1.8.3.5.7,1,1.4.3.3-.3,1-.3,1.4-.2.5.2.7.7.3,1.3,0,0,.4.6.4.5,1-.6,1.6,0,2.4.5.1,0,.3.1.5.2,0-.2.1-.4,0-.5-.1-.9-.4-1.9-.4-2.8,0-.2.4-.7.6-.7,1.1-.2,2.3-.2,3.2-1.2,0,0,.2-.1.4-.2,1.9-.3,3.9.5,4.9,2.2.3.6.3,1.4.5,2.1,0,.3.2.7.3,1,.2-.2.5-.3.7-.5,1.1-1.2,2.2-2.4,3.3-3.5.4-.4,1.1-.8,1.7-.8,4.5,0,8.9-.1,13.4,0,1.9,0,3.8.4,5.7.7.4,0,.8,0,.7-.5-.4-1.8-.3-2.1,1.5-2.9,1.7-.7,3.5-1.4,5.3-2.1.2,0,.4-.2.6-.2.9-.2,2,0,2.4-1.4,0-.3.6-.4.9-.7.6-.5,1.4-1,1.8-1.7.5-.9,1.3-1.4,2.2-1.3,2.6.3,4.4-1.1,6.3-2.6.9-.7,1.8-1.3,2.8-1.7,1.9-.8,3.7-1.6,5.7-2,2-.4,4.1-.1,6.1-.2.4,0,.8-.2,1.1-.3-.3-.2-.7-.4-1-.6-.3-.2-.7-.3-1-.5.4-.1.8-.5,1.1-.4,1.2.5,2.4,1.1,3.5,1.7,1.9,1.2,1.8,3.3,2.2,5.1,0,.2,0,.4,0,.6,1.6,3.7,1.8,7.6,1.8,11.5,0,.5-.4.9-.5,1.4,0,.2,0,.4,0,.5.2,0,.4,0,.5-.2.7-.9,1.5-.9,2.6-.6,1.8.5,2.8-.7,2.3-2.5-.2-.7.4-1.5,1.1-1.5,1.3,0,2.5-.2,3.8,0,.6.1,1.2.9,1.7,1.5.5.6.7,1.5,1.2,2.1.9,1.3,2.2,2.1,3.8,2.4.7.1.8-.3,1.2-.9.5-1,1.9-1.5,3-2.2,0,0,.6.6.8,1,.2.3.2.6.2,1-.3,0-.7-.1-.9-.4-.6-.8-1.1-.6-1.6,0-.2.2-.4.4-.6.6-.1.1-.2.3-.3.4.2,0,.3.2.5.3.5,0,1.1-.2,1.6,0,1.1.5,1.5.2,1.3-.9M224.8,32.2c-.8-.2-1.8-.2-2.5-.5-.8-.4-1,.3-1.4.5.2.2.4.5.6.6.5.2,1.1.3,1.6.5,1.1.4,1.5-.2,1.9-1.1.4-.1.8-.3,1.3-.4,0,0-.1-.3-.1-.3-.4.2-.8.4-1.2.6,0,0,0,0-.1.1M139.4,62.5c0,.8,0,1.6,0,2.3,0,.3.4.7.6,1,.5.8,1.2,1.6,1.4,2.5.2.7.2,1.4,1,1.8.4.2,1.2.7.4,1.4-.4.3-.7.7-1.1,1,.4.4.7.8,1.1,1.1.2.2.4.3.6.6.2.4.7,1,.6,1.3-.4,1.2,0,2,.8,2.8.1.1,0,.6,0,.7-1.1.4-.7,1.1,0,1.4,2.3,1.4,1.4,3.7,1.9,5.6,0,0,0,.2,0,.2-.6.7,0,1.1.4,1.5.9.9,1.7,1.7,1.5,3.2,0,.5.4,1.1.6,1.7.1.3.3.9.2,1-1.4,1.1-.1,1.5.4,2.2.4.5,1.1,1,1.2,1.5,0,1.2.1,2.2.7,3.3.2.3.1.6.2.9.2.6.2,1.4.6,1.8,1.2,1.3,1.1,3,1.1,4.4,0,1.3.2,2.2,1.2,2.8.7.5.8.9.8,1.6,0,.9.3,1.7.5,2.5,0,.3-.1.6-.1.9,0,.4,0,1,.2,1.1,2.1,1.4,2,3.8,2,5.7,0,1.5.9,2.5,1.1,3.8.2,1.2,1,2.2,1.5,3.4,0,.1-.1.5-.3.6-.4.4-.3.6,0,1,.4.5.5,1.1.8,1.7.1.3.3.6.4.8.5.9,1.1,1.8,1.6,2.8,0,0,0,.3-.1.4-.8.6-.6,1.1,0,1.6.2.2.3.5.3.8,0,.7.2,1.1.7,1.6.3.2.5.5.6.9.7,1.6,1,3.3,1,5,0,1.4.2,2.5,1.4,3.3,0,0,.2.2.2.2.4.4.6.9,0,1.4-.2.1-.3.6-.2.7.6.5,1.1,1.2,1.8,1.4,1.3.3,2.6.3,3.9.3,4.6,0,9.3,0,13.9,0,1,0,2.2-1.3,2.1-2.2-.1-1.3.3-2.2,1.3-3,.6-.5,1.5-1.1.6-2.1,0,0,0-.4,0-.5.8-.7.6-1.7.6-2.6,0-.3.1-.7.3-.9.7-.6,1-1.2.8-2.1-.2-.8-.5-1.5-.7-2.2,0-.3,0-.6,0-.8,0-.2.3-.2.5-.4.1.3.2.6.4.8.2.3.4.6.6,1,.1-.4.3-.7.4-1.1.1-.7,0-1.6.4-2.1.6-.8,1-1.4.9-2.4,0-.3,0-.7.3-.9.9-.7.9-1.7.9-2.6,0-.4.2-.9.4-1.2.7-.7,1-1.4,1-2.4,0-.5.3-1.1.5-1.6.2-.5.4-1,.6-1.6.2-.7.4-1.4.6-2.2.1-.4.4-.8.6-1.3.4-.9,0-2.2,1-2.9,0,0,.1-.5,0-.6-1-.7-.5-1.3.2-1.9.1-.1.2-.4.2-.6-.3-1.5.4-2.5,1.5-3.3.6-.5.7-1,.4-1.7-.1-.2-.1-.6,0-.9.1-.5.3-1,.5-1.5.1-.3.2-.9.4-1,.9-.4,1-1.2,1.2-2,0-.2.2-.5.4-.6.7-.4.6-.8.1-1.3-.4-.4-.3-.6,0-1,.9-1.1.8-2.1-.3-2.7-.7-.4-.5-.9-.4-1.3,0-.1.7-.2,1.1-.2.9.2,2.7-.8,2.4-1.5-.4-1,0-1.6.2-2.5.3-1.4,0-2.9,1.2-4-.3-1.4.5-2.4,1.1-3.4.2-.3.3-.8.2-1.1-.2-1.1.2-1.9,1.1-2.5.7-.6,1.6-1.1.8-2.3,0,0,0-.3,0-.3,1-.8.6-2,.7-3,0-1.1.8-2,1.8-2.1,1,0,.7-.7.4-1-.6-.6-.4-1.1-.2-1.7.1-.4.2-.9.2-1.3,0-1.1.3-1.9,1.3-2.6.5-.3,1.2-1.3,1-1.7-.4-.8-.2-1.4.2-2.1.1-.3,0-.6,0-1,0-.8-.5-1.8.8-2.3.3-.1.5-.9.5-1.3.1-1.3.1-2.6.3-3.9,0-.3.3-.6.5-.8,1-1.1,2.2-2.2,1.8-4,0-.2,0-.7.2-.7,1.4-.4.9-1.7,1.2-2.6.1-.4.4-.8.7-1.2.1-.3.3-.5.4-.8-.3-.1-.5-.3-.8-.3-2-.1-4-.2-6-.2-2.3,0-4.6,0-6.9,0-.9,0-1.9,0-2.8,0-1,0-2-.2-3-.2-.2,0-.5.1-.7.3-.8.9-1.4,1.8-1.5,3.1,0,.6-.5,1.2-.9,1.7-.5.6-1.6.9-1.3,1.9.3,1,.3,1.9-.2,2.7-.1.2,0,.4,0,.7,0,.9-.2,1.6-.9,2.3-.3.3-.4.8-.5,1.3-.1.4,0,.9-.3,1.3-.5.8-1.1,1.5-.2,2.4,0,0,0,.4,0,.6-.5,1-1.1,2-1.6,3,0,.2-.2.4-.2.6,0,1-.2,2.1-.2,3.1,0,.6,0,1,.8,1,.2,0,.5.4.7.6-.3,0-.7.2-1,.2-.2,0-.4-.2-.5-.3-.5-.5-.7-.2-.9.3,0,0,0,0,0,0-.1,1.2-.6,2.2-1.2,3.3-.7,1.1,0,2.8-1.4,3.7,0,0,0,0,0,.1,0,1.5-.3,2.8-.9,4.2-.3.7-.3,1.8-.8,2.3-.8.6-.8,1.2-.9,2,0,.6,0,1.3-.4,1.6-.7.8-.9,1.6-1,2.6,0,.4-.1.8-.2,1.2-.2.7-.6,1.3-.6,2-.1.9,0,1.9,0,2.9,0,.4-.3.9-.6,1.2-1.6,1.1-1.6,1.1-1.2,3,0,.1,0,.2,0,.3-.1.8-.2,1.6-.5,2.4-.1.5-.4.9-.8,1.3-.4.5-1,.9-1.5,1.3-.5.5-.5.9-.1,1.5.1.2.2.7,0,.8-.8.6-.3,1,.2,1.6.2.2.3.9.2,1-1.3.9-1.9,2.1-2.2,3.6,0,.3-.3.6-.5.9-.2.4-.5,1-.4,1.1.9.9,0,1.8,0,2.7,0,1.7-1,2.6-2,3.6-.6.6-1.2,1.1,0,1.8.2.1.3.7.4,1-.3,0-.7-.1-1-.3-2.2-1.1-1-3.8-2.3-5.3,0,0,.1,0,.1-.2.6-1.1.2-2-.8-2.7-.6-.4-.8-1-.8-1.7,0-.7-.3-1.5-.7-2.1-.5-.7-.5-1.1.4-1.4.1,0,.3-.4.3-.5-.6-1.1-1.5-2.1-1.9-3.2-.5-1.1-2-2.2-.6-3.7.1-.1-.1-.6-.2-.9-.2-.7-.5-1.4-.7-2.1,0-.3-.1-.6-.2-.8-.8-2-1.7-3.9-2.5-5.9-.8-2.1-.4-4.5-2-6.4,0,0,0,0,0,0,.4-1.5-.4-2.8-.9-4.1-.4-1,0-2.3-1.1-3,0,0,0-.5.3-.7.8-1,.7-1.2-.2-1.9-.5-.4-1.1-1-1.3-1.6-.3-1,0-2.1-.8-3,0,0,0-.6.2-.7.7-.6.6-1.1,0-1.7-.2-.2-.3-.7-.5-.9-1.2-1-1.2-2.6-1.8-3.9,0-.2,0-.5.1-.6.8-.6.4-1.2,0-1.8-.2-.3-.5-.6-.4-.8.2-1.6-.6-2.7-1.9-3.6-.5-.3-.7-.7-.1-1.2.9-.7.6-1.3,0-1.9-.2-.2-.6-.6-.5-.8.3-1.3-.6-2.3-1-3.4,0-.2-.1-.5-.2-.7-.2-.7-.5-1.3-.7-2,0-.3,0-.9,0-1,1-.5.7-1,.1-1.5-.7-.6-1.5-1.2-2-1.9-.8-1-1.8-1.7-3.1-1.7-.8,0-1.5.2-2.3.2-3.3,0-6.6,0-9.9,0s-3.1,0-4.6,0c-.2,0-.6.2-.6.3,0,.2,0,.5.2.7.9.6,1,1.5.9,2.5,0,1.1.8,2.1,0,3.2,0,.1.4.6.7.9.5.7,1.4,1.3,1.5,2,.2,1.1.1,2.2,1,3.1.2.2.2.7.3,1,.1.6.2,1.3.5,1.9.5.9.8,1.8.7,3M279.1,138.2c0,0,.1-.2.1-.3,0-4.6.2-9.2.2-13.7,0-3.9.1-7.7.2-11.6,0-3.3.2-6.5.2-9.8,0-3.5.2-7,.2-10.5,0-5,.2-10.1.2-15.1,0-4.4.2-8.8.2-13.3,0-1.8,0-3.6,0-5.4,0-3.7.1-7.4.2-11.1,0-.2,0-.4,0-.6.2-1-.6-2.1-1.5-2.1-2.7,0-5.4-.2-8.1-.2-1,0-2,0-3,0-1.5,0-2.4.6-2.7,2-.3,1.4-.8,2.6-1.6,3.7-.3.4-.8.7-1,1.2-.9,2-1.8,3.9-3.5,5.4-2,1.8-3.7,3.8-5.7,5.6-1.3,1.1-2.3,2.5-3.9,3.2-.8.3-1.4,1.2-2.1,1.8-.2.2-.4.5-.6.5-1.5-.3-2,.8-2.7,1.7-.2.3-.6.6-.9.6-1.6-.2-2.7.2-3.7,1.6-.5.7-1.5,1.1-2.2,1.7-.6.4-.9.9-.2,1.6.2.2,0,.7,0,1.1,0,.5,0,1,.2,1.5.2.6.5,1.1-.4,1.5-.2,0-.4.6-.5.9-.4,1.4.8,2.9,0,4.3,0,0,0,.4.2.5.8.6.4,1,0,1.5s-.3.8,0,1.1c.4.5.5.9,0,1.4-.9,1-.9,2.3-.4,3.2.3.7,1.6,1.2,2.6,1.5.9.3,1.8.1,2.3-1,.7-1.3,2-1.6,3.3-1.2.8.2.9.1,1.1-.6.1-.6.6-1.6.9-1.6,1.3-.1,2.1-1,2.9-1.8.4-.3.9-.8,1.4-.8,1.1,0,1.2-.5,1.1-1.3,0-.9.3-1.3,1.2-1.3.4,0,.8-.1,1.1-.4,1-.9,1.9-1.9,3.4-2.1.2,0,.4-.3.5-.5.5-.8.8-1.8,1.4-2.5.3-.4,1.2-.4,1.7-.3.3,0,.7.6.8,1,0,6.3,0,12.6,0,18.9,0,2.6-.2,5.2-.2,7.8,0,2.1,0,4.3,0,6.4v.8c0,2.8,0,5.6,0,8.4,0,.3.3.7.2.9-1.2,2.4-.3,5-.8,7.5-.3,1.5.2,3.1.1,4.6,0,1.7-.2,3.4-.2,5.1,0,1,.2,2,.2,3,0,1.2-.4,2.4-.4,3.6,0,2.7,0,5.5,0,8.2,0,.8.3,1.2,1.1,1.2,3.7,0,7.3.2,11,.2,1.5,0,3.1,0,4.6,0,.7,0,1.1-.3,1.1-1,0-2.8.2-5.6.2-8.4,0-2.6,0-5.2.1-7.9M403.1,150.9c0-1.9.2-3.8.2-5.7,0-2.7.2-5.5.2-8.2,0-2.4.2-4.7.2-7.1,0-2.9.2-5.8.2-8.7,0-3.8.1-7.6.2-11.3,0-2.6.1-5.2.2-7.8,0-2.1.2-4.3.2-6.4,0-2.6.1-5.2.2-7.8.1-3.9.3-7.8.4-11.7.2-6.1.3-12.1.5-18.2,0-2.5.1-5.1.2-7.6,0-.5.2-1.1.2-1.6,0-.4-.2-1-.5-1.1-.9-.4-1.8-.7-2.8-.7-3.1-.2-6.3-.2-9.4-.3-1.5,0-2.9,1.5-3.1,3,0,.6-.4,1.3-.8,1.8-.5.8-1.3,1.4-1.7,2.3-1,1.8-1.9,3.7-3.5,5.1-1.5,1.3-2.8,2.7-4.1,4.1-.5.5-.7,1.2-1,1.8-.2.3-.4.8-.6.8-1.1-.2-1.7.5-2.5,1.1-.5.4-1.3.5-1.9.5-1,0-1.4.4-1.7,1.2-.2.5-.5,1.2-.8,1.2-1.2,0-1.6.9-2.3,1.4-.6.4-1.4.6-2.1,1-.8.5-1.7-.1-2.4.8-.7.9-1.6,1.5-2.5,2.1-.8.6-.9,1.4-.6,2.3.3.8-.7,1.9.2,2.8,0,0-.2.5-.4.7,0,0-.2.2-.2.2,0,.2,0,.5,0,.5.9.5.5,1.2.2,1.9-.1.3,0,.7.1,1,0,.4.2.8,0,1.1-.7,1.1.5,2.5-.6,3.5,0,0,0,.2.2.3.8.2.8.9.7,1.5,0,.6,0,1.4-.3,1.8-1,1.2-.6,1.8.7,2.6s2.5.5,3.3-.3,1.4-1.2,2.2-1.7c.5-.4,1.1-.6,1.7-.8.3-.1.6-.2.9-.4.6-.3,1.3-.5,1.8-1,1.1-1.2,2-2.6,3.8-2.9.1,0,.3-.2.3-.3.1-1.7,1.7-1.9,2.7-2.7,1.1-.7,1.9-2.1,3.5-1.7,0,0,.3-.5.4-.8-.3,0-.6-.2-.9-.2-.2,0-.5.2-.7.3,0-.3-.1-.7,0-.9.2-.3.6-.4.9-.6.6-.3,1.3-.5,1.8-.8.5-.3.8-.9,1.3-1.3.3-.2.7-.3,1.1-.4.1.3.4.7.4,1,0,3.2-.1,6.4-.2,9.6-.1,4.6-.3,9.2-.5,13.9,0,3-.2,6-.2,9,0,4.4-.1,8.8-.2,13.3,0,1.5-.2,3.1-.2,4.6,0,3.9-.2,7.9-.2,11.8,0,.8,0,1.5,0,2.3,0,4.1-.2,8.2-.2,12.4,0,.2.4.7.7.7,1.7.1,3.4.2,5,.3,1.6,0,3.3,0,5,0,1.6,0,3.3,0,4.9.2,1.6.1,2.2-.3,2.2-2v-4.8M478.6,77.8c-.5.5-1.1,1-.2,1.7,0,0,.2.3.2.4-.4.9-.9,1.8-.2,2.7-.7.6-.8,1.3-.3,2.2.1.2-.1.6-.3.9-.3.5-.6,1,.3,1.3,0,0,.1.5,0,.7-.1.2-.4.4-.5.6-.1.3,0,.7-.1,1.1.3,0,.5-.1.8-.2.2,0,.5,0,.7,0,0,.2-.1.5-.3.6-.2.2-.5.4-.8.6-.5.4-.9.9,0,1.3.6.2.4.6,0,.9-.6.4-.8.9-.4,1.7.1.3,0,.7,0,1.1,0,.4-.2.8,0,1.1.6.8.5,1.3-.4,1.7-.2,0-.2.6-.2.9.3,0,.7,0,.9-.3.6-.7,1.3-1,2.3-.9.3,0,.6-.2.9-.3,1.6-1,3.1-2.2,4.9-2.9,1.3-.5,2.2-1.2,3.1-2.1.8-.8,1.5-1.7,2.8-1.9.3,0,.4-.6.7-.9.3-.4.6-1.1.9-1.1.9,0,1.5-.5,2.1-1.1.6-.7,1.3-1.3,2.4-1.5.5,0,.9-.2.4-.9-.2-.2,0-1.1,0-1.1,1.4-.4,2-1.6,3-2.4.5-.4,1.1-.4,1.2.2.2,1.3.3,2.6.2,3.9,0,1-.4,2-.4,3-.1,2.7-.2,5.4-.2,8.1-.1,4.7-.3,9.5-.5,14.2,0,.8-.2,1.7-.2,2.5,0,1.2.3,2.4.2,3.6-.4,2.9-.1,5.8.3,8.6.1.8.4,1.5-.7,1.8-.1,0-.2.4-.3.7,0,2.3-.2,4.5-.2,6.8,0,1.8,0,3.5,0,5.3,0,.7-.2,1.4-.2,2.1s.2,1.4.2,2.1c-.1,2.2-.3,4.4-.4,6.7-.1,2.4-.2,4.8-.2,7.2,0,.5,0,.9.8,1,1.5,0,3.1.2,4.6.2,3.5,0,7,0,10.5,0,1,0,1.3-.4,1.3-1.3,0-3.6.1-7.2.2-10.8.1-3.4.3-6.8.4-10.2.1-2.7.2-5.5.2-8.2,0-2.1.2-4.1.2-6.2,0-3.3.2-6.6.2-10,0-1.2,0-2.5,0-3.7,0-.5.2-.9.2-1.4.2-3.5.3-7,.5-10.4.2-3.9.3-7.7.5-11.6,0-2.6.1-5.1.2-7.7.1-3.1.3-6.1.4-9.2.2-3.6.3-7.3.5-10.9,0-1.1.3-2.2.4-3.4,0-.7.2-1.6-.1-2.2-.7-1.5-3.5-2.5-5.1-2-.4.1-.9.2-1.3.1-.8,0-1.6-.3-2.3-.4-.6,0-1.2-.2-1.8-.2-1.3,0-2.6,0-3.5,1.1-.4.6-.5,1.3-.9,1.9-.6,1-1.6,1.9-2,3.1-.5,1.5-1.5,2.8-2.4,4-1.2,1.7-2.8,3.1-4.3,4.6-1.5,1.5-3.1,2.9-4.6,4.4-.8.8-1.6,1.3-2.8,1.2-.7,0-1.2.1-1.3,1,0,.4-.4,1-.6,1-1.4.1-2.1,1.2-3,2-.4.3-1,.5-1.5.6-.7.2-1.5.1-2.1.5-1,.7-1.8,1.6-2.9,2.6M447.4,125.5c.2-.2.3-.3.5-.5.7-.8,2-1.4,1-2.8,0-.1.1-.4.2-.6,0-.3.3-.6.2-.9-.3-1.5.7-2.8.7-4.2,0-.3.3-.6.5-.9.2-.6.5-1.2.7-1.8.2-.6,0-1.4.3-1.8.5-.6,1.3-1,.4-1.9,0,0,0-.3.1-.4.7-.9.6-1.9.6-3,0-1,0-2,1-2.7.2-.1.4-.5.4-.7,0-1,0-2,0-2.9,0-.8,1.5-1.3.4-2.2,0,0,.2-.3.3-.5.2-.4.4-.7.6-1.1.2-.4.3-.9.5-1.3.3-.8,1-1.8.8-2.5-.4-1.6,1.3-2.9.6-4.5,0-.1.2-.4.3-.5.8-1.5.4-3.5,1.9-4.7,0,0,0-.3,0-.4-.5-1.5.8-2.7.9-4.2,0-1.1.4-2.3.4-3.5,0-1.4,0-2.7,1.1-3.7.2-.2.3-.6.3-.9,0-.9,0-1.8.8-2.4.1-.1.2-.6.1-.7-.9-.7-.1-1.2.1-1.8.1-.3.3-.7.3-1,0-1.5.7-2.7,1.9-3.5.7-.4.7-.6.3-1.2-1-1.4-.8-2.4.4-3.6.6-.5.5-.9-.3-1.2-1.3-.5-2.7-1-3.5-2.3-.2-.3-1-.3-1.5-.3-.3,0-.7.2-1.1.2-1-.3-2-.6-3-.9-.7-.2-1.3-.6-1.5.5,0,.2-.4.4-.7.4-.7,0-1.1.5-1.6.7-2.1,1-1.1,3.1-1.8,4.5,1,.9.4,1.7-.2,2.5-.1.2,0,.4,0,.7-.1,1.7.1,3.5-1.1,5-.2.3-.1.8-.3,1.1-.2.5-.3,1.1-.6,1.4-.5.6-.8,1.1-.2,1.8.2.2.2.8,0,.9-.6.7-.6,1.6-.8,2.4-.1.5-.5,1-.8,1.5-.2.4-.4.8-.4,1.2-.1.8-.2,1.6-.9,2.3-.2.1-.1.7,0,.9.6.6.5,1,0,1.6-.3.3-.2.9-.3,1.3,0,.5,0,.9,0,1.4-.2,1-.2,2.2-.8,3-.6.8-.9,1.6-1.1,2.6,0,.4-.3.8-.5,1.2-.4.6-.5,1.1,0,1.8.2.2.1.9,0,1.1-.6.6-.7,1.2-.8,2,0,.6-.5,1.2-.9,1.7-.3.4-.7.6-.9.9-.2.3-.2.8,0,1.1.2.5.8.9.8,1.4,0,2.1-1.7,3.6-2,5.7,0,0-.1.1-.2.2-.5.4-.6.9-.2,1.5.4.7.2,1.2-.5,1.7-.8.5-1.7,1-.8,2.1.2.2,0,.7,0,1.1,0,.3-.2.8,0,1,.8.7.2,1.3,0,1.9-.6,1.5-.4,3.3-1.5,4.6-.5.7-.8,1.6-1.1,2.4-.1.3-.1.9,0,1,1.1.4.6,1.1.4,1.7-.2.6-.3,1.2-.5,1.8-.3.9-.3,2-.8,2.7-.6.9-1.1,1.6-1,2.7,0,.8,0,1.5-.7,2.1-.4.4-.7.9,0,1.5.4.3.3.8,0,1.2-.3.3-.5.8-.5,1.3,0,1.3-.5,2.4-1.8,3-.7.3-.7,1.2-.1,1.3,1.1.1.4.5.2.8-.4.5-.9,1-.1,1.7.2.2.1.8,0,1.1-.1.4-.7.8-.6,1.2.1,1.3-.3,2.3-1.3,3-.1,0-.1.3-.1.5,0,1,0,1.9-.9,2.6-.1,0-.2.3-.2.4.6.9,1,1.7,0,2.5.7.5,1.2,1.2,2,1.5.9.3,1.9.3,2.9.3,2.7,0,5.4,0,8.1,0,.3,0,.6-.3.8-.6.5-1-.2-2.4,1.1-3.2,0,0,0-.6,0-.7-.7-.5-.5-.9,0-1.3.1-.1.2-.4.2-.6,0-1.2.1-2.5.3-3.7,0-.6.5-1.1.6-1.7.5-1.6.9-3.2,1.4-4.8,0,0,0,0,0,0,0-.3,0-.7,0-1,.1-.5.3-1,.5-1.5.3-.7.6-1.3.9-2,.1-.3.3-.6.2-.8-.4-.9,0-1.4.6-2.1.4-.5,1.5-1.3.2-2.1,0,0,0-.4.2-.5.7-.5.7-1.1.7-1.8,0-1.4.1-2.8.3-4.2M343.8,108.3c-.9,0-1.8-.2-2.8-.2-.7,0-1.3.2-2,.2-3.8,0-7.7,0-11.5,0-.8,0-1.6-.2-2.4-.2-1,0-2,.4-2.9.4-.7,0-1.5-.6-2.2-.6-1.5-.1-3,0-4.5,0-1.2,0-2.3-.2-3.5-.2-.4,0-.8.2-1.2.4.6,1.1-.2,2.2-.1,3.3,0,.6.2,1.2.2,1.8,0,.3.2.5.2.8,0,.4,0,.8,0,1.2,0,.3-.1.7,0,1,0,.4.1.9,0,1.3-.1,1.1-.3,2.2-.4,3.3,0,.2,0,.5.1.6.8.6.5,1,0,1.7-.3.4,0,1.2.1,1.8,0,0,0,0,0,.1-.3.8.6,2.5,1.4,2.5.8,0,1.7,0,2.6,0,1.3,0,2.7,0,4,0,6.1,0,12.3.2,18.4.2,1,0,2,0,3,0,1.9,0,3.9.2,5.8.2.6,0,1.3-.2,1.6-.6.2-.3,0-1.2-.4-1.5-.4-.5-.4-.8,0-1.3.9-1.2.8-2.5,0-3.7-.2-.2-.2-.7,0-.9,1-1.2,1.1-2.5.3-3.8-.3-.5-.2-1,.1-1.4.9-1.1.9-2.6,0-3.7-.4-.5-.6-.7.2-1,.2,0,.3-.4.4-.6-.2,0-.4-.2-.6-.3-.6-.2-1.1-.4-1.7-.6-.6-.1-1.1,0-1.9-.1M255.5,166.9v5.8c0,3.6,0,7.1,0,10.7,0,.1.1.2.2.3,0,0,.2-.2.2-.3,0-.7,0-1.3,0-2,0-1.3.2-2.6.2-3.9,0-2.7.2-5.4.2-8.1,0,0,0-.2,0-.2.3-3.1.6-6.3.9-9.4.2-2.1.5-4.2.7-6.2.3-2.7.7-5.4.9-8.1.2-1.9.2-3.7.2-5.6,0-1.3.1-2.6-.1-3.9-.3-1.3-1.2-2.5-1.4-3.9-.5-2.5-.7-5-.9-7.5,0-.6.1-1.1.2-1.7.2.5.3,1,.5,1.5,0,.1.2.2.2.3,0-.1.2-.2.2-.3,0-.8,0-1.6-.9-2-.1,0-.2-.3-.2-.4.1-1.2.2-2.3.3-3.5,0-.1-.2-.2-.3-.4-.1.1-.3.2-.3.3-.2.9-.4,1.8-.4,2.7,0,2.1.1,4.3.2,6.4,0,1.1-.2,2.2,0,3.2.3,1.5.7,2.9,1.3,4.3.5,1.1.8,2.2.7,3.3-.1,1.3-.3,2.7-.4,4-.2,2.8-.3,5.7-.5,8.5-.1,1.6-.3,3.2-.5,4.7-.3,2.4-.6,4.8-.9,7.3-.2,1.3-.3,2.5-.5,4M30.2,205.6c-.2-.1-.3-.2-.5-.4.3-.2.5-.6.8-.6,1-.3,2-.5,3-.7.4,0,.9,0,1.3,0,0,0,0,.3.1.5-.4,0-.8.1-1.1.2-.2,0-.5,0-.7.1.2.5.2,1.1.5,1.3.2.2,1,0,1.2-.2,1.2-1.3,2.7-2.2,4.4-2.7.4-.1.7-.7.9-1.1,0-.2-.4-.6-.7-.8-.2-.2-.6-.4-.9-.3-1.4.2-2.7.4-4,.7-.2,0-.5.2-.5.4-.1,1.1-.9,1.1-1.8,1.3-1.2.3-2.6.5-3.3,2-.3.7-1,.9-1.8.4-.2-.1-.5-.3-.7-.4-.1,0-.3,0-.5,0,0,.2.1.4.2.5.8.5,1.5,1.2,2.6.8,1-.4,2.1-.6,3.2-.9.1,0,.2-.4.3-.5-.3,0-.5-.1-.8,0-.4.1-.8.4-1.4.4M249,101c-.2-.1-.5-.3-.7-.4,0,.3,0,.5.1.8.1.6.4,1.2.4,1.8,0,1.4.2,2.9-.3,4.3-.3.7-.2,1.6,0,2.4.2.7.8,1.3,1.1,2.1.9,2.5,1,5.2,2.5,7.4,0,0,0,.1,0,.2.6,2.5,1.7,4.8,1.6,7.4,0,.1,0,.2,0,.3,0,0,.2-.1.2-.2.2-.8.7-1.7.5-2.4-.5-1.6-.1-3.5-1.4-4.9,0-.1-.1-.3-.2-.4-.2-.5-.5-1.1-.7-1.6-.1-.3-.4-.6-.4-.9-.3-2.5-1.2-4.7-2.3-6.9-.3-.5-.6-1.3-.4-1.7.9-1.8.7-3.6.6-5.5,0-.6-.4-1.1-.8-1.8M43.2,200.3c-1.2-1.2-2.6-2.1-4.4-2.1-1.5,0-3,.4-4.5-.5-.2-.1-.5,0-.8,0-1.7.3-3.3.6-5,.8-1.7.1-3.4,1.2-5.1.2,0,0-.3,0-.4,0,0,.2.1.4.2.5,1.1.6,2.1.8,3.3.3.4-.2,1-.4,1.2-.2.7.6,1.2.4,2,0,1.3-.5,2.7-.7,4.1-.7,1.5,0,3.1.2,4.6.4,1.4.2,2.8.3,3.8,1.6.3.4.6.7,1,.9.2.1.5.1.7.2,0-.2-.1-.4-.2-.6-.1-.3-.3-.5-.6-.8M377.3,46.7c0-.2,0-.3,0-.5.3-3.6-.7-7.2.2-10.8,0-.1-.2-.3-.3-.5-.2.1-.5.3-.5.4-.2,1-.5,2-.4,3,0,1.7.6,3.3.3,4.9-.3,2,.2,3.9.3,5.9,0,.1.2.2.3.4,0-.1.2-.2.2-.3,0-.8,0-1.5,0-2.5M182.5,94.1c-.3,0-.6-.2-.9-.2-1.7,0-3.3-.1-4.9-.6-1.1-.4-2.3-.2-3.4-.3-.2,0-.4.1-.6.2,0,0,0,.3.1.3.8.4,1.7.8,2.7.5.5-.1,1-.2,1.5-.2,1.3.2,2.5.6,3.7.9.3,0,.7.1,1,.1.6,0,1.2,0,1.8,0,0-.2,0-.4,0-.5-.2-.2-.5-.2-1-.3M15.6,199.7c0-2.5,0-5,0-7.5,0-.3-.2-.6-.3-.9-.1.3-.4.6-.3.9,0,1.6.2,3.2.2,4.7,0,.8-.3,1.7-.4,2.5-.2,1.6.3,3.1,1.1,4.4.2.3.4.5.6.8,0-.4,0-.7,0-1.1,0-.2-.2-.3-.2-.5-.3-1.1-.5-2.2-.7-3.4M166,37.7c-1.8-.9-3.6-1.8-5.4-2.7-.1,0-.4.1-.6.2,0,.2.2.4.3.5.4.2.8.4,1.2.6,1.2.6,2.4,1.3,3.7,1.9,1.3.5,2.6.9,3.9,1.3.3,0,.6,0,.9,0-.2-.3-.3-.8-.6-.9-1.1-.4-2.2-.6-3.5-.9M178.4,41.8c1.2-.3,2.1.6,3.2.7.4,0,.8-.2,1.2-.3-.3-.2-.5-.5-.8-.6-1.3-.3-2.7-.6-4-.7-1.8-.2-3.6-.1-5.4-.3-.4,0-.8-.3-.9.2,0,.2.6.7.9.7,1.4,0,2.8,0,4.2,0,.4,0,.8.1,1.5.2M40.3,209.1c.4,0,.8.2,1.2.2.7,0,1.6-.1,2.2.2.7.5,1.4.4,2.1.5.2,0,.4,0,.6.1.2,0,.5,0,.7,0-.1-.2-.3-.5-.5-.5-1-.3-2-.5-3-.7-1.6-.3-3.3-.5-5-.7-.6,0-1.2-.3-1.8-.4,0,0-.2.1-.3.2,0,0,0,.2.1.2,1.1.6,2.1,1.1,3.6.9M245.4,98.1c.4,1.1.7,2.1,1.1,3.2,0,.1.2.2.3.4,0-.1.2-.2.2-.3,0-.7,0-1.4-.3-2.1-.8-1.9-.7-3.9-.9-5.9,0-.3-.2-.6-.2-.8-.1.3-.4.6-.4.9,0,1.5.1,3,.2,4.7M109.8,196.1c-1-.1-1.9-.3-2.9-.4-1.1-.1-2.1-.2-3.2-.3-.1,0-.3.1-.4.2.1,0,.2.2.3.2,1.6.3,3.2.8,4.9.9,1.6.1,3.3-.1,4.9-.2.1,0,.3-.1.4-.2-.1,0-.3-.2-.4-.2-1.1,0-2.2,0-3.6,0M8.8,102.6c-.4-.1-.7-.3-1.1-.4-.5,0-1,0-1.4.1-.7.4-.9,3.4-.4,4.1,0,.1.2.2.3.3,0-.1.2-.2.2-.3,0-.6.1-1.2.2-1.8.1-.9.8-1.4,1.8-1.3.2,0,.3-.4.4-.7M215.9,33.3c.8-1,1.7-1.5,3.1-.9.7.3,1-.3,1.1-.9.2-.7-.4-.8-.9-.7-.4,0-.8,0-1.1.2-1,.6-1.9,1.2-2.8,1.8-.2.2-.4.4-.6.6.3,0,.7,0,1.2-.1M205.3,28.5c-.8,0-1.7-.2-2.5-.2-.3,0-.5.1-.8.2.3.2.5.5.8.5.8,0,1.7-.2,2.4,0,1.5.5,3,0,4.5.2.2,0,.3-.2.5-.3-.2,0-.3-.2-.5-.2-1.4,0-2.8-.2-4.5-.2M32.2,190.9c.1.1.2.3.3.3.6,0,1.3.2,1.9.2,0,0,.3-.5.3-.5-.4-.4-.8-.8-1.3-1-.7-.3-1.5-.5-2.2-.6-.2,0-.5.2-.5.3,0,.1.1.4.3.5.4.3.8.5,1.3.8M142.7,35.2c1.2,0,2.3.2,3.5.2.4,0,.8,0,1.2-.1.3,0,1.1.3.8-.5,0-.3-.7-.4-1.2-.5-.2,0-.4,0-.5,0-1.1.2-2.3.8-3.4,0-.3-.2-.7,0-1.1,0-.1,0-.2.1-.3.2,0,0,.2.2.3.3.2.1.4.2.8.5M74.7,180c-1,0-2-.1-3,0-.3,0-.6.2-.9.3.3.2.6.4.9.5.2,0,.4,0,.6,0,2.2,0,4.4,0,6.6,0,.1,0,.2-.1.3-.2-.1,0-.2-.3-.3-.3-1.4,0-2.7-.2-4.2-.4M10.7,165.6c-.1-.2-.3-.5-.4-.7,0,.3-.3.6-.3.9.5,1.9,1,3.7,1.6,5.6,0,.1.2.2.2.3,0-.1.2-.2.2-.3.5-.9-.3-1.5-.5-2.2-.3-1.1-.6-2.2-.9-3.5M293.1,36.3c.4,0,.9.1,1.3.2,1.6.2,3.1.4,4.7.5.2,0,.4-.1.5-.2-.2,0-.3-.2-.5-.2-2.2-.3-4.3-.6-6.5-.9-.5,0-.9-.2-1.4-.2-.1,0-.2.1-.3.2,0,0,.2.2.3.3.6.1,1.2.2,1.9.5M156.1,29.1c-.4-.3-.8-.8-1.3-1-.2-.1-.8-.1-.9,0-.4.7.4,2.1,1.3,2.2.2,0,.5,0,.7.2.6.5.6,0,.6-.3,0-.3-.2-.7-.4-1.1M125.6,116.3c.5-.5.5-.6-.1-.7-1.4-.1-2.9-.2-4.3-.2-.2,0-.4.2-.7.3.2.1.4.3.6.3,1.4.1,2.8.6,4.5.2M156.8,33.7c-.5-.5-.9-1-1.4-1.5-.1,0-.4,0-.6,0,0,.2.1.3.2.5.6,1.4,2.9,2.2,4.3,1.6.2,0,.3-.2.5-.4-.2,0-.4-.2-.5-.2-.8,0-1.5,0-2.4-.1M94,38.1c.7.2,1.4.3,2.1.4.2,0,.5-.2.8-.3-.2-.2-.3-.7-.5-.7-1.3,0-2.5,0-3.8,0-.2,0-.4.5-.5.8.3,0,.5-.1.8-.1.3,0,.6,0,1.1,0M84,48.4c-.5.2-1,.3-1.5.5-.1,0-.3.1-.4.2.2,0,.4.3.5.2,1.8-.4,3.6-.9,5.5-1.4.2,0,.3-.3.5-.5-.2,0-.5,0-.7,0-1.2.3-2.4.7-3.8,1M127.1,59.7c-.2-.2-.4-.6-.7-.7-.3-.1-.7,0-1,0,0,0,0,.3,0,.4.3.8.5,1.5.9,2.2.1.2.6.2,1,.3,0-.3,0-.5,0-.8,0-.4,0-.8,0-1.4M38.3,126.4c-.5,0-.9,0-1.4,0-.1,0-.2.2-.4.4.1,0,.2.3.3.3,1.3,0,2.6,0,3.9,0,.3,0,.6-.1,1-.2-.3-.1-.7-.4-1-.4-.8,0-1.5,0-2.5,0M404.7,203.5c-.1,0-.3.1-.4,0-.9-.4-1.8-.9-2.7-1.3-.2,0-.4,0-.6,0,0,.1,0,.3.2.4,1.1.9,2.2,1.8,3.8,1.1.1,0,.2-.2.4-.3-.2,0-.4-.1-.7,0M397.5,34.9c-.3,0-.5.1-.8.2.2.2.5.5.7.5,1.2,0,2.5,0,3.7,0,.1,0,.3-.2.4-.2-.1,0-.2-.2-.3-.2-1.1,0-2.3-.2-3.7-.2M95.1,172.9c0,.2-.2.5-.2.7,0,.3.2.5.3.8.2,0,.5-.2.5-.3.6-1.2-.3-2.9-1.7-2.9-.1,0-.3.2-.5.3,0,.1.2.3.3.4.4.3.8.5,1.3,1M8.1,162.2c.1.4.2.9.4,1.1.5.4,1.1.6,1.6.7.2,0,.5,0,.8-.2-.2-.2-.3-.6-.5-.7-.7-.4-1.4-.6-2.4-.9M50.6,206.4c-.2,0-.5,0-.7,0-.2,0-.4.2-.6.3.3.3.5.7.8.8.3.1.8,0,1.1-.2.4-.1.8-.3,1.1-.5,0,0,0-.4-.1-.4-.4,0-.8,0-1.2,0-.1,0-.2,0-.6,0M184.2,22.9c.3.7.7.9,1.4.7.4-.1.9,0,1.3.1.2,0,.4,0,.7.1,0-.2,0-.6-.2-.7-.4-.3-.9-.5-1.3-.6-.6,0-1.1.1-1.8.3M108.2,40c-.9-.2-1.7-.4-2.6-.6-.2,0-.4,0-.6,0,.1.2.2.5.4.5,1.5.4,3.1.7,4.6,1,.1,0,.3-.1.4-.2-.1,0-.3-.2-.4-.2-.5-.2-1-.3-1.7-.5M197.3,31.1c-.1.6-.3,1.2-.4,1.8,0,.2,0,.5,0,.6.2,0,.6,0,.7,0,.2-.8.4-1.6.4-2.5,0,0-.7-.2-1-.4,0,.1,0,.2.3.4M244.5,102.9c0,.4.1.9.2,1.3,0,.2.3.3.4.5,0-.2.3-.3.2-.5-.1-.7-.2-1.3-.5-2-.2-.4-.5-.8-.8-1.2-.3.5-.1,1,.1,1.5,0,0,0,.2.2.4M6.4,139.5c0,.2.2.4.3.6.1-.1.4-.2.4-.4,0-1.1-.1-2.2-.2-3.4,0-.1-.3-.3-.5-.4,0,.1-.2.2-.2.3,0,1,.1,2,.2,3.2M396.5,235.5c-.1-.3-.2-.7-.3-1,0-.1-.3-.2-.4-.3,0,0-.1.2-.1.3,0,1,.1,2,.2,3,0,.2.3.4.5.6.1-.2.4-.5.4-.7,0-.6-.1-1.1-.2-1.9M68.9,50.3c-.6,0-1.2,0-1.8,0-.1,0-.2.2-.4.4.1.1.2.3.3.3.8,0,1.5,0,2.3,0,.4,0,.8-.1,1.3-.2-.4-.1-.7-.2-1.1-.4-.1,0-.3-.1-.6-.2M182.5,76.8c.2,0,.3.1.5.2,0-.3,0-.6-.1-.8-1-.8-2-1.5-3.1-2.2,0,0-.3,0-.3,0,0,.1,0,.3,0,.4.9.7,1.9,1.5,3,2.3M313.3,131.1c0-.2,0-.3,0-.5,0-.3-.1-.5-.2-.8-.1.3-.3.5-.3.8,0,1.4,0,2.8,0,4.2,0,.2.1.3.2.5,0-.2.3-.3.3-.5,0-1.2,0-2.3,0-3.8M17.7,176.9c-.5,0-.9-.2-1.4-.2-.3,0-.5,0-.8.1.2.2.3.5.5.5.6.1,1.2.2,1.8.2.4,0,.9-.2,1.3-.2-.4-.1-.8-.3-1.5-.4M9.4,118.3c.2,0,.5.2.5.1.5-.6,0-2.7-.8-3.1,0,0-.2.1-.2.2.1.8.3,1.7.4,2.8M7.6,159.5c-.3-.3-.5-.6-.9-.9-.1,0-.4,0-.6,0,0,.6,0,1.4.3,1.6.5.4,1.1,0,1.2-.8M36.8,195.3c-.4-.4-.7-.7-1.1-1-.4-.3-.9-.6-1.3-.9-.1,0-.4,0-.5,0,0,.2,0,.4.2.5.8.6,1.6,1.2,2.5,1.8,0,0,.3-.2.3-.4M353,183.3c-1.1,0-2.2.5-3.2-.2-.1,0-.3,0-.5,0,0,.1.2.2.3.3.8.9,2.9.9,3.7,0,0,0,0-.3,0-.4,0,0-.1,0-.3.2M17.7,121.1c.1-.2.3-.5.4-.7-.4-.2-.8-.6-1.2-.6-.3,0-.6.5-1,.8.3.2.6.4.9.5.2,0,.4,0,.8,0M7.1,148c-.2-.8-.3-1.6-.5-2.4,0-.5-.1-1-.2-1.6,0,.6-.2,1.2-.2,1.7,0,.9-.1,1.8.9,2.3M315.2,185.2c0-.8-.1-1.6-.2-2.4,0-.2-.1-.4-.2-.7-.2.2-.5.5-.5.7,0,.9.1,1.8.2,2.6.2,0,.5,0,.7-.3M176.9,72.5c.3.3.6.6.9.9.2.1.5.1.8.2,0-.2,0-.6-.2-.7-.5-.5-1.1-.9-1.7-1.3-.1,0-.3,0-.5-.1,0,.2,0,.3.2.5.1.2.3.3.6.6M313.3,147.7c0-.3-.1-.6-.3-.9,0,0-.4,0-.4,0,0,1.1.1,2.1.3,3.2,0,.1.3.2.4.3,0,0,.2-.1.2-.2,0-.7-.1-1.5-.2-2.4M358.9,37.2c-.4,0-.8-.3-1.1-.2-.6,0-1.3.3-1.9.5-.2,0-.3.2-.5.3.2,0,.4.3.6.2,1,0,2.1-.2,3.1-.4.1,0,.2-.2.4-.3-.1,0-.2-.1-.6-.2M415.3,40.8c-.2,0-.4,0-.6,0,0,.6,0,1.2,0,1.8,0,.1.3.2.5.3.1-.5.3-1,.4-1.5,0-.1-.2-.3-.4-.5M28.1,84.9c0-.1,0-.3,0-.4-.6,0-1.3,0-1.9,0-.2,0-.3.4-.5.6.2.1.5.4.7.4.5,0,1-.3,1.6-.5M254.1,113.5c0,.9-.2,1.8-.2,2.7,0,.1.1.2.2.4,0-.1.3-.2.3-.3,0-1,.1-2,.2-3-.1,0-.3,0-.4.3M7.3,109.8c.3-.2.6-.5.9-.7-.4,0-.8-.1-1.2-.1-.2,0-.6,0-.7.2-.2.3-.2.6-.3.9.2,0,.5-.1.7-.2.1,0,.3,0,.6-.1M76.2,145.6c.5,0,1.1,0,1.6,0,.1,0,.2-.2.4-.3-.1,0-.2-.2-.3-.2-1-.2-1.9-.3-2.9-.5-.1,0-.3.1-.4.2,0,.2.1.5.3.5.4,0,.9,0,1.5.2M78.8,49.7c-1,0-2.1,0-3.1-.1-.1,0-.2.1-.3.2,0,0,.2.2.3.2,1.1,0,2.1,0,3.2-.3M6.3,148.8c0,.9,0,1.9-.1,2.8,0,.2.1.4.2.6.2-.2.4-.4.4-.7,0-.9,0-1.8,0-2.8,0,0-.3,0-.6,0M21.8,207c.7,0,1.4.2,2,.2.2,0,.4-.4.5-.6-.2,0-.5-.3-.7-.3-.7.1-1.3.4-1.9.7M251.4,110.3c0,.8.1,1.6.2,2.4,0,0,.2.2.3.2,0,0,.2-.2.2-.2,0-.9,0-1.9,0-2.8,0-.1-.3-.2-.5-.4,0,.2-.1.4-.2.8M247.7,106.6c.2-.3.7-.5,0-.8-.3-.1-.5-.3-.8-.5-.2-.1-.4-.2-.6-.2,0,.3-.1.8,0,1,.3.3.9.5,1.4.5M6.7,127.1c-.6.2-.9,1.2-.3,1.7.3.2.7.4,1,.5,0-.3-.2-.6-.3-.9-.1-.4-.2-.8-.4-1.3M137.7,83.2c-.7,0-.8.8-.5,1,.4.3,1.1.4,1.7.5-.1-.3-.2-.7-.4-1-.1-.2-.4-.4-.8-.6M222.5,28.8s0,0,0,0c.6.6,1.2,1.2,1.7,1.8,0-.1.2-.2.3-.4.1-.9-.6-1.5-1.9-1.5M227.7,39.3c.2,0,.3-.1.5-.2-.5-.6-.6-1.4-.4-2.1,0-.1-.1-.3-.2-.4,0,.1-.2.3-.3.4-.9.9-.1,1.5.4,2.4M382.9,194c-.7,0-1.4-.2-2.1-.2-.2,0-.4.1-.6.2.1.2.2.4.4.5.7.1,1.5.2,2.2.2.5,0,.8-.2,0-.7M258,128.5c0,.3.2.6.2.9,0,.8,0,1.5,0,2.3,0,.1.2.2.3.4,0-.1.2-.2.2-.3,0-1,0-2,0-2.9,0-.2-.4-.3-.7-.3M417.4,42c-.3.2-.5.4-.8.6.2.2.6.5.7.5.5-.2.9-.5,1.3-.8-.3-.1-.7-.2-1.2-.3M410.6,214.1c.7,0,1.5,0,2.2,0,0,0,.1-.2.2-.3,0,0-.2-.1-.2-.1-.8,0-1.7,0-2.5,0,0,.2,0,.3.3.5M144.1,164.3c.6,0,1.2,0,1.8,0,.1,0,.2-.2.3-.3-.1,0-.2-.1-.4-.2-.7,0-1.4,0-2,0-.3,0-.5.2-.8.3.3,0,.5.1,1,.2M248.1,30.6c.6,0,1.1,0,1.7-.1,0,0,0-.2,0-.2-.5,0-.9-.1-1.4-.2-.2,0-.4,0-.6,0-.5,0-1,.1-1.5.2.5,0,1,.2,1.7.3M104.7,184.3c.8.3,1.7.7,2.5,1,0,0,.2,0,.2-.1,0,0,0-.3,0-.3-.8-.2-1.7-.5-2.6-.6M114.8,70.6c.3,0,.6,0,.9,0,0-.3-.1-.8-.3-.9-.2-.1-.7,0-1,.1,0,.3,0,.5.4.8M255.7,92.9c.7.2,1.3.4,2,.6.1,0,.3-.2.4-.3,0,0,0-.2-.1-.2-.8,0-1.6-.1-2.3,0M407.9,37.8c-.1-.1-.2-.3-.4-.4-.3,0-.6,0-.8,0,0,.2.1.5.2.7,0,.2.2.3.4.4.2.1.4.1.6.2,0-.2,0-.5,0-.9M6.8,142.5c0-.3,0-.6,0-.9,0-.3-.3-.5-.5-.8,0,.3-.1.5-.2.8,0,.3,0,.7,0,1,0,.2,0,.5.1.7.2-.2.4-.4.5-.8M80.1,50.3c.3,0,.6-.1.9-.2.2,0,.4-.1.6-.2-.2-.1-.3-.4-.5-.4-.3,0-.7,0-1.1,0-.2,0-.5.2-.7.4.2.1.4.3.8.4M76,43.2c0,.2-.1.3-.2.5.1,0,.3,0,.4,0,.6-.2,1.1-.3,1.7-.5.1,0,.2-.1.3-.2,0,0-.1-.2-.2-.2-.6,0-1.3.2-2,.4M21.8,182.8c-.5.2-1.1.3-1.6.5-.4,0-.8.1-1.2.2.4,0,.9.3,1.3.3.6-.1,1.1-.5,1.5-.9M7.2,123.2c-.3.1-.7.2-.8.4,0,.3.2.6.2.9.3-.2.6-.2.8-.5.1-.2,0-.6-.3-.8M21.5,166.7c.4,0,.8,0,1.1-.1-.4-.1-.7-.3-1.1-.4,0,0-.2,0-.2,0-.5,0-.9,0-1.4.1.5.1,1,.2,1.6.4M314,167.4c0,.2,0,.3,0,.4.1.2.3.4.5.6,0-.2.1-.5.1-.7,0-.4-.1-.9-.2-1.3,0-.2-.2-.3-.3-.5,0,.2-.2.4-.3.6,0,.2,0,.4.1.8M6.1,117.5c.2,0,.6,0,.7-.2.2-.3.3-.6.3-1,0-.1-.4-.4-.4-.4-.2.2-.5.4-.6.7-.1.2,0,.5,0,.9M336.1,13.5c-.5.2-1,.4-1.5.6,0,0,0,.3.1.5.6-.2,1.2-.4,1.8-.6,0-.2-.1-.3-.4-.5M259.6,36.4c0,0-.1,0-.2.1-.3.1-.6.2-1,.4.3.1.7.2,1,.3.1,0,.4,0,.4,0,.2-.2.3-.4.4-.6-.2,0-.4-.2-.7-.2M6.6,112.1c0-.4-.1-.8-.2-1.1,0-.1-.1-.2-.2-.3,0,.1-.3.2-.3.4,0,.7.1,1.4.2,2.2,0,0,.1.2.2.2,0,0,.3-.1.3-.2,0-.3,0-.5,0-1M137.7,34.7c.6,0,1.2.2,1.8.2.2,0,.4-.2.6-.3-.2-.1-.5-.3-.7-.4-.5,0-.9,0-1.4,0-.1,0-.3.2-.3.4M360.5,96.2c0,.2,0,.5.1.7.4-.2.9-.3,1.3-.5,0,0,0-.4,0-.4-.3,0-.6,0-.9,0,0,0-.1.1-.4.2M353.4,33.1c.3.1.5.2.8.3.2,0,.5,0,.7,0-.1-.2-.3-.4-.4-.5-.3-.2-.7-.3-1.1-.4-.2,0-.5,0-.7,0,.2.2.4.4.8.5M224.9,68.7c0,0,.1,0,.2-.1.5-.2.9-.3,1.4-.5,0,0,0-.3,0-.4-.6.2-1.1.3-1.7.5,0,0,0,.4.2.5M6.6,171.7c-.3-.4-.6-.8-.9-1.2-.1-.1-.3-.2-.5-.3,0,.3-.1.6,0,.8.4.4.9.6,1.4.8M216.4,38.7c0-.1.2-.3.1-.4,0-.3,0-.5-.2-.8,0,0-.5,0-.5,0-.1.4-.2.8-.3,1.1.2,0,.5,0,.8,0M89.7,131.4c.5,0,1,0,1.5,0,.2,0,.3-.2.4-.3,0-.1-.2-.3-.3-.3-.6,0-1.4-.3-1.6.6M312.9,139.3c.1,0,.3,0,.4,0,0-.8,0-1.6,0-2.4,0,0-.2-.1-.3-.1,0,0-.2.2-.2.3,0,.6,0,1.2,0,2M501.9,49.7c.2.2.4.4.5.6,0-.5,0-1-.1-1.5,0-.1-.3-.2-.5-.3,0,0-.1.2-.1.3,0,.3,0,.6.2,1M184.1,29c.3-.1.7-.3,1-.4-.3,0-.7-.2-1-.3,0,0-.2,0-.2,0-.2,0-.4.1-.6.2.2.2.4.4.8.5M227.9,90.6c-.5-.2-1-.4-1.5-.5-.2,0-.4.2-.6.4,0,0,0,.3,0,.3.6,0,1.2,0,1.9,0M11.8,158.4c-.4.1-.8.2-1.2.3.3,0,.7,0,1,.1.1,0,.2.1.3,0,.3,0,.6,0,.9-.2-.2-.1-.5-.3-1-.4M314.9,186.6c-1-.2-.6.6-.7,1,0,.3.1.6.2.9,0-.3.2-.5.3-.8,0-.3.2-.6.2-1.1M373.7,35.5c.1-.5.3-.9.4-1.4-.2,0-.4,0-.5.1-.5.4-.6.9,0,1.3M351.6,37.7c-.3.1-.5.3-.8.4.3,0,.6.3.9.3.4,0,.8-.3,1.1-.4-.3,0-.7-.2-1.3-.3M87.9,125.2c-.6,0-1.2-.2-1.8-.2,0,0-.3,0-.3,0,0,.1,0,.4,0,.4.7,0,1.4,0,2-.2M53.8,173.2c0,.2,0,.3,0,.5.6,0,1.1.1,1.7.2,0,0,.2-.1.2-.2,0,0,0-.1,0-.2-.5,0-1.1-.2-1.9-.3M260.8,31.4c.2,0,.4.2.6.3,0-.4,0-.8-.1-1.1,0-.1-.3-.2-.5-.3,0,.3,0,.6,0,1.2M47.9,210.2c0,0,0,.2-.1.3.7,0,1.4.1,2.2.2,0,0,0-.2.1-.3-.5,0-1.1-.1-1.6-.2-.1,0-.2,0-.6,0M417.3,67.3c0-.1,0-.2.1-.3-.2,0-.6-.2-.6-.1-.2.3-.4.7-.4,1,0,.1.2.3.3.4.2-.3.3-.6.6-1M303.4,180.5c-.3,0-.6-.2-.9-.2,0,0-.2.2-.3.3.2.1.4.3.5.3.5,0,1-.2,1.5-.3,0,0-.1-.1-.2-.2-.1,0-.2,0-.6,0M361.3,35.3c0,.2-.2.4-.2.6,0,.2.1.4.2.6.2,0,.4-.2.5-.3,0-.4,0-.8.1-1.2-.2,0-.3.1-.6.3M304.2,201.2c.3-.3.6-.6.9-1,0,0-.2-.3-.3-.5-.2.2-.4.5-.5.7,0,.2-.1.4,0,.7M96.6,183.3c.2,0,.4-.2.6-.3-.5-.1-1-.3-1.5-.4,0,0-.2.2-.3.3,0,0,.1.1.2.2.3,0,.5.2,1,.2M35.8,207.7c-.4.1-.8.2-1.2.3,0,0,0,.3,0,.3.4,0,.9,0,1.3,0,0-.2,0-.4-.1-.7M138.8,29.9c.4,0,.8,0,1.3,0-.1-.2-.2-.3-.3-.5-.3.3-1.1-.6-.9.5M188.1,28.7c.4,0,.7,0,1.1.1.3,0,.7,0,1,0-.4-.2-.7-.4-1.1-.4-.3,0-.6,0-1,.3M425.3,46c0-.2,0-.4,0-.6-.4,0-.7.2-1.1.3.2.3.3.6.5.9.2-.2.3-.3.6-.6M81.2,181.2c.2,0,.5-.2.7-.2.2,0,.5-.1.7-.2-.3,0-.6-.2-.9-.3-.2,0-.4,0-.6,0-.2,0-.4,0-.5,0,.1.2.3.3.5.6M165.4,156.2v-.2c-.4.2-.9.4-1.3.7,0,0,0,.2,0,.3.4,0,.7-.2,1.1-.3,0,0,.2-.2.2-.5M166.5,23.3c.5,0,1,0,1.5.1,0-.1,0-.4-.1-.4-.5,0-1,0-1.4.2M387.4,221.1c-.5,0-1-.2-1.5-.3,0,.1,0,.4,0,.4.5,0,.9,0,1.5,0M240.5,45.5c.2-.2.4-.4.6-.5-.2-.1-.4-.4-.6-.4-.2,0-.5.3-.5.4,0,.2.3.4.5.5M72.4,45.3c.2,1.4.8-.4,1.1.1,0-.2.2-.3.2-.5-.3,0-.6,0-.9,0-.1,0-.2.1-.5.3M117.8,38.4c-.4,0-.8.2-1.3.3.4,0,.8.1,1.3.2.1,0,.2,0,.3,0,.2,0,.3-.2.5-.3-.2,0-.4-.1-.8-.2M216.1,29.7c.2,0,.3,0,.5,0,.2,0,.4-.1.6-.2-.2-.2-.3-.5-.5-.5-.4,0-.7.1-1.1.2.2.1.3.2.6.5M314.5,180.2c0,.5.2,1,.3,1.5,0-.5.1-1.1.2-1.6,0-.1,0-.3,0-.4-.1,0-.3.2-.4.5M377.3,53.3c0-.3-.1-.5-.2-.8,0,.3-.2.5-.3.8,0,.3,0,.6,0,.9,0,.1.1.2.2.3,0-.1.2-.2.3-.4,0-.2,0-.5,0-.9M252.1,106.1c-.2-.3-.3-.5-.5-.8,0,.3,0,.6,0,1,0,0,0,.1,0,.2,0,.2.2.4.3.7,0-.3.1-.5.2-1M47.2,204.5c-.2-.1-.5-.3-.7-.4.1.3.2.6.4.8.4.3.8.4,1.2.6,0,0,.1-.2,0-.2-.3-.2-.6-.4-1-.7M70.6,58.4c.1.2.3.5.4.5.3,0,.6,0,.9-.1-.2-.2-.4-.4-.6-.5-.2,0-.4,0-.8,0M81.2,40.4c0,0,.2-.1.2-.2.1-.2.3-.3.4-.5-.3,0-.6,0-1,0,0,.2,0,.5.3.7M81.9,125.5c.2,0,.4-.2.6-.2.1,0,.3,0,.4,0-.1,0-.2-.2-.4-.3-.3,0-.6,0-.9-.1,0,.2,0,.4.3.6M114.4,38.1c.1.2.2.6.3.6.3,0,.6-.2.9-.3-.3-.1-.7-.3-1.2-.4M175.2,27.6c-.2,0-.4.2-.6.3.2.1.5.4.7.4.2,0,.5-.2.7-.4-.2,0-.4-.2-.8-.3M286,102.6c.2-.1.4-.3.5-.4-.3,0-.5-.2-.8-.3-.2,0-.4,0-.6.2.2.2.4.3.8.5M65.1,178.4c.3.3.5.6.8.8.1,0,.4,0,.6-.1-.2-.1-.5-.3-.7-.4-.2-.1-.4-.2-.7-.2M367.4,34.5c-.3,0-.7,0-1,0,0,.1.1.3.2.4.4.2.9,0,.8-.4M19.4,197.1c-.4,0-.9,0-1.3,0-.1,0-.2.2-.3.3,0,0,.2.2.2.2.5,0,1-.2,1.4-.5M177.6,23.2c.2,0,.5,0,.7-.1-.4-.1-.7-.3-1.1-.4-.1,0-.3.2-.5.3.3,0,.5.1.9.3M254,35.9c-.4.2-.7.4-1.1.6,0,0,0,.2,0,.3.4-.2,1.2.1,1.1-.9M6.6,133.8c0-.3.2-.7.2-1,0,0-.2-.1-.4-.2,0,.4,0,.9.2,1.2M20.1,197.1c0,.1.2.3.2.3.2,0,.5,0,.7-.3,0,0,0-.4,0-.6-.2.1-.5.3-.8.5M333.6,40.2c.3,0,.5-.2.8-.3-.3,0-.5-.1-.8-.2-.1,0-.2,0-.3,0-.2,0-.3.2-.5.3.2,0,.4.1.8.2M27.9,90.1c-.3,0-.5,0-.8-.1.1.3.2.5.3.8.2-.1.3-.3.5-.7M330.1,141.4c.1-.2.3-.5.4-.7-.3,0-.5,0-.8,0,0,.3,0,.5.4.8M99.1,195.2c0,.2,0,.4-.1.5.4,0,.7,0,1.1.1,0,0,.1-.3.1-.3-.3-.1-.5-.3-1-.4M130.7,37.1c.1.4.2.8.8.4.2-.1.3-.3.5-.5-.3,0-.5,0-.8,0-.1,0-.2,0-.5.1M113,78.1c-.2.2-.4.3-.6.5.2.1.4.3.6.4,0-.3,0-.5,0-.9M148,150.1c.2.3.4.6.6.9,0-.3,0-.7,0-1,0,0-.3,0-.6,0M313,145.8c0-.4.2-.9.3-1.3-.1,0-.4,0-.4,0,0,.4,0,.8,0,1.3M52.4,173.4c0-.7-.5-.7-.9-.7-.1,0-.2.1-.3.2.3,0,.5.2.8.3,0,0,.2.1.5.2M44.2,172.5c.1-.8-.7-.3-.9-.7,0,0-.2.1-.3.2.2.1.4.2.6.4.1,0,.3.1.6.2M377.3,55.6c0-.1-.1-.2-.2-.3,0,.3-.2.7-.3,1,0,0,.2.2.3.3,0-.3.1-.5.2-1M240.2,100.4c-.2,0-.5.2-.7.3,0,0,0,.3,0,.3.3,0,.6,0,.8-.2.2,0,.3-.3.4-.4-.2,0-.3,0-.6.1M145,90.9c.3,0,.5-.2.8-.3,0-.1-.1-.3-.2-.4-.2.2-.5.4-.6.7M9.7,159c.2-.1.3-.3.5-.4-.3,0-.6-.1-.9-.2,0,.2,0,.4.3.6M180.3,24.8c-.1-.2-.2-.4-.4-.6,0,0-.2,0-.4,0,0,.2.2.4.3.5,0,0,.2.1.5,0M382.6,217c0,.2.1.4.2.6,0-.1.2-.2.3-.3,0-.2.1-.5.2-.8-.2,0-.4.2-.6.5M301.2,143.6c-.1-.3-.3-.5-.4-.8,0,.2-.3.4-.3.5,0,.2.4.2.7.2M310.2,38.1c-.3,0-.5.2-.8.3.3,0,.5.2.8.2.2,0,.4,0,.6-.1-.1-.1-.2-.2-.5-.3M123.9,98.8c.4,0,.8,0,1.1,0,0,0,0-.2,0-.2-.4,0-.8,0-1.1.2M146.8,32.4c0-.2.1-.4.2-.5h-.5c0,.2.1.4.4.5M330.9,106.4c0-.2-.1-.4-.2-.6,0,.1-.3.3-.3.3,0,.3.2.5.3.8,0-.1.2-.3.1-.5M241.3,38c.2,0,.5.2.7.2,0,0,.1-.3.2-.4-.3,0-.6,0-.9.2M44.3,181.1c.4,0,.7,0,1.1,0,0,0,0-.2,0-.3-.3,0-.6,0-.9,0,0,0,0,0-.2.2M30.6,191.6c-.3-.1-.7-.2-1-.3,0,0,0,.2,0,.3.3,0,.5.1.8.1,0,0,.1,0,.3-.1M87.5,38.9c.2-.2.4-.4.6-.6-.1,0-.2-.2-.3-.2-.1.2-.2.5-.2.8M198.6,157.8c0-.1-.2-.2-.3-.3,0,.3-.1.6-.2.9,0,0,.2.2.3.2,0-.2.1-.4.2-.8M24.7,208.5c-.3,0-.7,0-1,0,0,0,0,.2-.1.3.3,0,.5,0,.8-.1,0,0,.2,0,.3-.1M133.8,136c-.3.8.4.4.6.4.1,0,.3-.2.4-.3-.3,0-.5-.1-1-.2M285.2,39.6c-.2,0-.5,0-.7.1.2.1.4.3.6.4,0-.2.2-.3.1-.6M15,186.9c.1-.3.2-.7.3-1,0,0-.2,0-.3,0,0,.3-.1.5-.1.8,0,0,0,.1.1.3M225.2,184.2c-.2,0-.4.1-.6.2,0,0,0,.3.1.5.2-.2.4-.4.4-.7M47.4,69.7c-.2.3-.3.6-.5.9.1,0,.3,0,.3,0,.1-.3.2-.5.2-.9M27.1,95.3c.2,0,.5,0,.7,0,0,0,0-.2,0-.4-.3,0-.6.2-.7.4M9.5,123.6c0,.3,0,.6.1.8.1,0,.3-.1.3-.1,0-.2-.1-.5-.4-.7M26.7,196c-.2,0-.5-.2-.7-.2,0,0-.1.3-.2.4.3,0,.5,0,.9-.3M359.6,91.9c.2-.3.4-.5.6-.8,0,0-.3-.1-.3-.1-.2.3-.3.5-.3.9M39.8,74.8c.3.1.6.2.8.3,0,0,0-.2,0-.2-.2-.1-.4-.2-.7-.3,0,0-.2,0-.2.2M275.7,34.7c-.2.2-.4.3-.6.5,0,0,.2.2.2.2.2-.2.4-.4.4-.7M160.6,36.9c-.1-.1-.3-.2-.4-.3v.8c.1-.1.3-.2.4-.5M313.9,159c0-.3,0-.6,0-.9,0,0-.2,0-.2,0,0,.3,0,.6.2.9M313.8,155.3c0-.3,0-.5-.1-.8,0,0-.2,0-.3,0,.1.3.2.5.4.7M229,37.8c0,.2.1.4.2.6,0-.2.3-.3.3-.4,0-.2-.3-.2-.4-.1M313.2,54.1c-.1.1-.2.3-.3.4.3,0,.6,0,.8,0-.1-.1-.2-.3-.5-.4M99.3,217c0-.2.1-.3.2-.5h-.6c0,.2.1.3.4.5M79.1,67.1c-.1.2-.3.3-.4.5.1,0,.3.2.4.3,0-.2.1-.4,0-.7M541.8,69c.1-.3.2-.5.3-.8,0,0-.2,0-.3,0,0,.3,0,.5,0,.9M182.4,72.1c-.3,0-.6,0-.9,0,0,0,0,.2,0,.2.3,0,.6,0,.9-.2M306.1,199.5c-.1-.2-.2-.4-.4-.4-.1,0-.3.2-.4.3.2,0,.4.1.8.2M143.2,29.9c-.1-.2-.2-.4-.4-.4-.1,0-.3.2-.4.3.2,0,.4.1.8.2M254.2,92.8c.2,0,.4-.1.6-.2-.2,0-.3-.3-.4-.3-.2,0-.2.3-.1.4M44,95.7c.1.2.2.4.4.4.1,0,.3-.2.4-.3-.2,0-.4-.1-.8-.2M405.9,203.3c.3.1.5.2.8.3,0,0,0-.2,0-.3-.3,0-.5,0-.9,0M21.8,203.6c-.2-.2-.4-.3-.6-.5,0,0-.1.2-.2.3.2,0,.4.1.8.2M212.9,36.1c0,.2-.2.5-.2.7,0,0,.3.1.4.2,0-.3,0-.5-.3-.9M143.7,149.8c-.2,0-.4-.2-.7-.2,0,0-.1.2-.2.3.2,0,.5,0,.9,0M10.8,101.7c.1-.2.2-.3.3-.5-.1,0-.2-.1-.3-.2,0,.2-.2.5,0,.7M384.9,217.2c.2.1.3.2.5.3,0-.1.1-.2.2-.3-.2,0-.5-.2-.7,0M144.7,33.2c.1-.2.3-.3.4-.5-.2,0-.5,0-.7,0,0,.2,0,.4.2.4M48.2,206.9c0-.1-.2-.2-.3-.3,0,.2-.1.3-.2.5.2,0,.3,0,.5-.1M86.6,181.1c-.2,0-.5,0-.7,0,0,0,0,.2,0,.2.2,0,.5,0,.7-.2M84.3,180.6c-.2,0-.5,0-.7,0,0,0,0,.2,0,.2.2,0,.5,0,.7-.2M62,179.8c0-.2.1-.4.1-.6,0,0-.2,0-.4-.1,0,.2,0,.4.3.7M53.5,209c-.2-.1-.3-.2-.5-.3,0,.1-.1.2-.2.3.2,0,.4.1.7,0M140.4,164.5c-.2,0-.4.1-.6.2,0,.1.1.2.2.3.2-.1.3-.2.4-.5M224.1,39.1c-.1-.2-.2-.3-.4-.5,0,0-.1.1-.2.2.2.1.3.2.6.3M89,181.9c.2,0,.4-.1.6-.2,0-.1-.1-.2-.2-.3-.2.1-.3.2-.4.5M394.8,236.3c-.2,0-.4.1-.6.2,0,.1.1.2.2.3.2-.1.3-.2.4-.5M170.9,23.2c.2,0,.5,0,.7,0,0,0,0-.2,0-.2-.2,0-.5,0-.7.2M12.3,176.3c0-.2-.1-.4-.2-.6-.1,0-.2.1-.3.2.1.2.2.3.5.4M100,172.1c-.1,0-.2.2-.3.3.2,0,.3.1.5.2,0-.2,0-.3-.1-.5M346.1,137.8c0-.1-.2-.3-.2-.4-.1.2-.2.4-.3.5.2,0,.3,0,.6-.1M428.2,112.2c-.1,0-.2.2-.3.3.2,0,.3.1.5.2,0-.2,0-.3-.1-.5M248.2,99.3c0,.2-.1.3-.2.5.2,0,.3-.2.5-.3,0,0,0-.2-.2-.2M97.8,184.5c.1,0,.3,0,.4,0,0-.1,0-.2-.1-.4-.1,0-.3.2-.3.3M42.7,210.8c-.2,0-.4,0-.7,0,0,0,0,.2,0,.3.2,0,.3-.1.6-.3M149.6,34.9c-.2,0-.3-.1-.5-.2,0,0,0,.2,0,.3.2,0,.4,0,.6-.1M180.5,71.2c.2-.1.3-.2.5-.4,0,0-.1-.1-.2-.2,0,.1-.2.2-.3.6M254.7,109c0,.2-.1.3-.2.5.1,0,.2,0,.3.1,0-.2,0-.3,0-.6M149.2,164.6c.2.1.4.2.6.3,0,0,0-.2,0-.3-.2,0-.4,0-.7,0M39,170.9c0,.1-.2.3-.1.3.1.1.3.2.5.3,0-.2-.1-.3-.3-.6Z"/>
    <path d="M215.7,195.6c2.9.4,5.7.8,8.4,1.1,2.6.4,5.2.8,7.9,1.1,2,.2,4,.3,6,.5,1.3.1,2.6.3,3.9.5.1,0,.2.1.3.2-.1,0-.3.3-.4.3-1.8-.1-3.6-.3-5.4-.4-1.1,0-2.3-.1-3.4-.3-2.7-.3-5.3-.6-8-.9-1-.1-2.1-.2-3.1-.2-1.1,0-2.2.2-3.1-.6-.1-.1-.3,0-.5,0-3-.4-6.1-.8-9.1-1.1-1.2-.2-2.5-.3-3.7-.5-.2,0-.4-.3-.6-.5.2,0,.5-.2.7-.1,2.3.3,4.7.6,7,.9,1,.1,1.9.2,3,.2Z"/>
    <path d="M538.7,56.7c.4-1.1,1.6-1.8,2.5-1.6.1,0,.2.3.3.5,0,.1,0,.3.1.4.3.3.7.6.8.9.1.3,0,.7-.1,1.1-.1-.3-.3-.5-.4-.8-.2-.7-1-1.3-1.7-.9-.7.4-1.1.9-.7,1.8.2.4.2.8.3,1.2-.2,0-.5.2-.5.1-.3-.7-.6-1.4-.8-2,0-.2.1-.4.2-.7Z"/>
    <path d="M208.9,197.4c.3,0,.5.1.7.2-.2,0-.3.3-.5.3-2-.5-4.2-.7-5.7-2.4-.2-.2-.5-.4-.7-.6-.2-.2-.5-.5-.4-.5.2-.3.5-.6.8-.8,0,0,.4.2.5.4.4.6.7,1.3,1.2,1.8.7.5,1.5.9,2.3,1.2.5.2,1.1.3,1.7.5Z"/>
    <path d="M474.2,200c.6.1,1.1.2,1.6.3-.5.1-1,.4-1.5.3-1.7,0-3.4-.1-5.1-.2-.3,0-.6-.4-.9-.6.3,0,.6,0,.9-.1.4,0,.8,0,1.3,0,1.2,0,2.4.1,3.8.2Z"/>
    <path d="M119.2,198.5c1.2.4,2.3.9,3.3,1.4.2.1.2.5.3.8-.3,0-.6.2-.7,0-.6-.4-.7,0-.8.4,0,0-.4,0-.6,0,.3-1.2-.9-1.5-1.4-2.1-.1-.1,0-.4,0-.6Z"/>
    <path d="M22.6,217.1c-1.2-.8-2.2-1.5-3.6-1.4-.1,0-.2,0-.3,0-.7-.3-1.3-.6-2-.9.6,0,1.3.2,1.9.2,2.3-.3,3.6,1.8,5.5,2.4.1,0,.2.2.3.3-.2,0-.4.2-.5.1-.4-.2-.8-.4-1.3-.7Z"/>
    <path d="M105.6,48c1.3-.7,2.6-1.3,4-1.8.2,0,.4.1.6.2,0,.2-.1.5-.3.6-1.4.4-2.7,1.5-4.3,1Z"/>
    <path d="M394.9,250.5c-.9-.8-.7-1.8-.6-2.7,0-.9.9-.9,1.6-.8,0,0,.2.5.2.7-.1.2-.4.5-.6.6-.8.3-.6.8-.3,1.3.1.2.3.4.3.6,0,.2,0,.4,0,.7-.2-.1-.4-.2-.6-.4Z"/>
    <path d="M20.5,212.4c.1.2.2.4.3.5-.2,0-.4,0-.5,0-.6-.5-1.3-.9-1.9-1.4-1-.8-1.9-1.6-2.9-2.4,0,0-.1-.2-.2-.2.1,0,.3-.1.4,0,.6.3,1.2.5,1.7.9,1.1.9,2,1.8,3.1,2.8Z"/>
    <path d="M425.6,43.6c-.5-.9.1-1.3.7-1.4.5,0,1,.3,1.5.5,0,0,0,.7-.2.8-.3.2-.8.3-1.1.4-.3,0-.6,0-.9-.2Z"/>
    <path d="M550.8,184.5c.7,0,1.4,0,2.1,0,.2,0,.5.2.5.3,0,.1-.1.4-.2.5-.6.6-1.8.6-2.6,0-.5-.4-.1-.6.2-.9Z"/>
    <path d="M75.6,216.9c.5-.2,1-.4,1.5-.4,1.2,0,2.3,0,3.5,0,.1,0,.2.1.3.2,0,0-.2.3-.3.3-1.7,0-3.3,0-5,0Z"/>
    <path d="M73,96.7c.2.3.4.7.4,1,0,.9,0,1.8,0,2.8,0,.2-.3.5-.5.7,0-.2-.2-.5-.2-.7,0-1.3.1-2.5.3-3.8Z"/>
    <path d="M466,200.8c-1.3-1.3-1.2-2.2.2-3,.2,0,.4,0,.6-.1,0,.2,0,.5-.1.6-.6.7-.8,1.5-.7,2.5Z"/>
    <path d="M251.8,199c-.6,0-1,0-1.5-.1.4,0,.8-.2,1.3-.3,1.2-.2,2.5-.3,3.7-.4.2,0,.4.1.5.2-.2,0-.3.2-.5.2-1.1.1-2.3.2-3.4.4Z"/>
    <path d="M397.8,248.3c.3,0,.5,0,.7.2.2.1.3.4.5.5.2.1.4.2.7.3-.2.2-.3.5-.5.6-.3.1-.9.2-.9,0-.3-.5-.4-1.1-.5-1.7Z"/>
    <path d="M54.2,135c0,.6.1,1.1.2,1.6,0,0-.1.2-.2.3,0-.1-.2-.2-.2-.3,0-1.1-.2-2.2-.2-3.3,0-.2.3-.5.5-.7,0,.2.2.5.2.7,0,.6-.1,1.2-.2,1.8Z"/>
    <path d="M15.3,213c-.3-.8-.6-1.5-.9-2.1,0-.2,0-.5,0-.8.2.2.4.4.5.7.3.8.6,1.6.9,2.4.1.3,0,.7.1,1.1-.2-.3-.4-.6-.6-.9,0,0-.1-.1-.2-.3Z"/>
    <path d="M396.3,245.7c-.2-.8-.5-1.5-.7-2.2,0-.2.3-.5.4-.8.2.2.4.4.4.7.1.6.2,1.2.2,1.8,0,.2-.3.4-.4.5Z"/>
    <path d="M215.5,193.8c0,.4,0,.7,0,1.1-.3-.3-.6-.6-.8-.9-.3-.5-.6-1-.8-1.5,0-.2,0-.5.1-.8.2.2.4.3.5.5.3.5.5,1.1.9,1.6Z"/>
    <path d="M101.9,36.1c-.3.6-.3,1.8-1.3.7-.2-.3-1-.5-.3-1,.3-.2.9,0,1.3,0,0,0,.2.2.2.3Z"/>
    <path d="M89.6,86.8c0,.6-.1,1.2-.2,1.7,0,.1-.2.3-.3.3-.1,0-.4-.1-.4-.2,0-.7,0-1.4,0-2.1,0-.2.3-.4.5-.6.1.3.3.5.4.9Z"/>
    <path d="M385.9,28.9c-.2.3-.4.4-.6.6,0-.5-.3-1-.2-1.5,0-.2.5-.5.8-.6.1,0,.5.3.5.5,0,.3-.3.6-.5,1Z"/>
    <path d="M389.4,230.6c-.2-.3-.3-.6-.4-.9,0-.1.2-.3.3-.4.1.1.3.2.4.3.2.3.4.5.4.8,0,.3,0,.7,0,1-.2-.2-.4-.5-.7-.8Z"/>
    <path d="M150.8,207.5c-.2,0-.3.2-.4.2-.4.1-.8.2-1.2.3.3-.3.6-.5.9-.8.1-.1.3-.2.4-.3.4-.2.8-.3,1.2-.5-.3.3-.5.7-.9,1Z"/>
    <path d="M501.8,44.5c.4-.1.8-.2,1.2-.3,0,.2,0,.4,0,.6-.2.3-.4.6-.6.8-.2-.4-.4-.7-.6-1.2Z"/>
    <path d="M494.4,49.3c.4-.5.9-.9,1.5-1.3.1,0,.4.1.7.2-.1.1-.2.4-.3.4-.6.3-1.2.5-1.8.6Z"/>
    <path d="M415.9,242.5c.4.1.8.2,1.1.3,0,0,0,.6,0,.6-.4,0-.8,0-1.2-.1,0-.3,0-.5.2-.8Z"/>
    <path d="M491.1,197.6c.8,0,1.5,0,2.3.1,0,0,.2.1.2.2,0,0,0,.2-.1.2-.8,0-1.5,0-2.3-.1,0,0,0-.2,0-.4Z"/>
    <path d="M29.7,219.6c.4,0,.6.1.9.2-.3,0-.5.2-.8.3-.2,0-.4,0-.6-.2-.4-.1-.9-.3-1.3-.4,0,0,0-.2,0-.3.5.1.9.3,1.4.4,0,0,.2,0,.3,0Z"/>
    <path d="M466,200.9c.5.5,1,1,1.4,1.5,0,0,0,.2,0,.3,0,0-.3,0-.3,0-.4-.6-.8-1.2-1.1-1.8Z"/>
    <path d="M217.1,191c0,.4-.1.6-.2.9-.2-.3-.5-.6-.7-1-.1-.2,0-.5,0-.7.3.2.6.4,1,.8Z"/>
    <path d="M213.5,198c.8,0,1.5,0,2.2,0,.2,0,.3.2.5.2-.1,0-.3.2-.4.2-.8,0-1.5-.2-2.3-.4Z"/>
    <path d="M422.1,239.3c0,.2,0,.4,0,.5,0,.2-.2.5-.2.7,0-.2-.2-.3-.2-.5,0-.4-.2-.8-.3-1.1,0-.3,0-.5-.1-.8.2.2.4.4.6.6,0,.1,0,.3.2.6Z"/>
    <path d="M373.1,216.6c-.3.4-.5.8-.7,1.2-.1,0-.3-.2-.3-.2.1-.4.2-.9.4-1.2.4-.6.5-.1.6.3Z"/>
    <path d="M455,196.3c.2-.2.3-.3.5-.3,0,.5.1,1,.1,1.4,0,0-.3.2-.4.3,0-.4,0-.8-.1-1.4Z"/>
    <path d="M319.3,202.4c-.1-.1-.2-.2-.3-.3.2,0,.5-.3.6-.2.4.2.8.4,1.2.7-.5,0-1,0-1.5-.1Z"/>
    <path d="M546.3,60.3c.2.3.3.6.4.9-.3-.2-.6-.3-.8-.5-.2-.2-.3-.5-.4-.8.3.1.6.2.9.4Z"/>
    <path d="M161.5,205.4c-.2.1-.4.2-.5.3,0-.2,0-.5.1-.5.5-.3,1-.6,1.5-.8,0,0,.2.1.3.2,0,0-.1.2-.2.3-.4.2-.8.4-1.2.6Z"/>
    <path d="M311.1,199.4c0-.3-.1-.6,0-.7.2-.2.5-.4.7-.6,0,.2.2.3.1.5,0,.5-.4.9-.8.8Z"/>
    <path d="M107.2,207.1c.2-.1.3-.3.4-.3.4,0,.9,0,1.3,0,0,0-.1.2-.2.2-.5.1-1.1.8-1.6,0Z"/>
    <path d="M51,74.7c.4.2.9.5,1.3.8,0,0,0,.2-.2.2,0,0-.2,0-.2,0-.3-.3-.6-.6-.9-1Z"/>
    <path d="M104.2,134.4c0-.3.1-.5.2-.7,0,.2.2.3.3.5,0,0,0,.2,0,.3,0,.3-.1.7-.2,1,0-.3-.2-.7-.3-1.1Z"/>
    <path d="M405.3,251.1c0-.1,0-.2.1-.2.2-.3.4-.6.6-.9,0,.2.3.3.2.5,0,.5-.3.9-1,.6Z"/>
    <path d="M109.2,54.3c.5,0,.6,0,.5.5,0,.2-.2.4-.3.7-.1-.2-.3-.4-.3-.6,0-.2,0-.3.2-.6Z"/>
    <path d="M1.1,158.4c-.5-.4-.8-.7-1.1-1.1,0,0,0-.1.1-.2.4.4.7.9,1,1.3Z"/>
    <path d="M543.3,62c.1.3.2.7.3,1.1,0,0-.2,0-.3.1,0-.4,0-.8,0-1.2Z"/>
    <path d="M562.6,74.7c-.4,0-.8,0-1.2,0,0,0-.1-.2,0-.3,0,0,.2-.2.3-.1.4,0,.7.2,1,.4Z"/>
    <path d="M2.3,174.8c-.2,0-.5-.2-.7-.4.1-.2.3-.4.4-.6,0,.3.2.5.3.9Z"/>
    <path d="M370.3,215.9c0-.1,0-.2.1-.2.3-.1.5-.2.8-.3,0,.2,0,.5,0,.5-.3,0-.5,0-.9,0Z"/>
    <path d="M89.6,98.2c0,.4,0,.7,0,1-.2-.1-.4-.2-.5-.3.1-.2.3-.5.5-.6Z"/>
    <path d="M14.4,207.7c.2.2.3.3.4.4,0,0-.2.2-.2.1-.3-.2-.6-.4-.9-.6,0,0,0-.2,0-.3.2,0,.4.2.7.4Z"/>
    <path d="M504.1,201.5c-.2,0-.3,0-.4,0-.3-.2-.5-.5-.7-.7,0,0,.1-.1.1-.1.3.3.7.5.9.9Z"/>
    <path d="M91.4,70.3c.2.2.4.4.5.7,0,0-.2.2-.4.3,0-.3-.1-.6-.1-.9Z"/>
    <path d="M5,194.7c0,.4-.1.6-.2.9,0-.2-.3-.3-.3-.4,0-.2-.3-.9.4-.5Z"/>
    <path d="M505.7,202.8c0,.2,0,.4,0,.6-.2-.3-.4-.5-.6-.8,0,0,0-.2-.1-.3.2,0,.3.1.5.2,0,0,.2.2.3.3Z"/>
    <path d="M545.3,57.3c.1.3.1.6.1.9-.1,0-.3-.2-.3-.3,0-.2,0-.4.2-.6Z"/>
    <path d="M1.7,158.6c.4.2.7.4,1.1.6,0,0,0,.2-.1.3-.3-.3-.7-.5-1-.9Z"/>
    <path d="M247.3,199.3c-.4,0-.6-.1-.9-.2.2,0,.3-.3.4-.3.2,0,.9-.3.5.4Z"/>
    <path d="M113.6,144c.2.3.3.6.4,1,0,0-.2.1-.3,0,0,0-.1-.2-.1-.2,0-.3,0-.5,0-.8Z"/>
    <path d="M443.4,43.4c-.2-.2-.3-.4-.4-.6.3,0,.5.1.8.2,0,.2-.2.3-.3.5Z"/>
    <path d="M59.5,135c.1-.2.3-.4.5-.6,0,.2.2.4.1.5-.1.1-.4.2-.6.2Z"/>
    <path d="M102.1,116.6c0-.2,0-.4,0-.5.2.1.4.3.5.5,0,0,0,.3-.1.5,0-.1-.2-.2-.4-.4Z"/>
    <path d="M582.3,127.7c.2,0,.5.2.7.4,0,0-.1.2-.2.3-.2-.2-.3-.4-.5-.7Z"/>
    <path d="M583.4,228.9c-.2,0-.4-.1-.6-.2.1-.1.3-.3.4-.4,0,.2.2.4.2.6Z"/>
    <path d="M152.3,208.7c.3,0,.6,0,.9,0,0,0,0,.2,0,.3-.3-.1-.5-.2-.8-.4Z"/>
    <path d="M517,269.9c.3,0,.6.1.8.3,0,0-.2.2-.2.2-.2-.1-.5-.3-.7-.5Z"/>
    <path d="M485.6,49.6c.2,0,.5,0,.7.1,0,.1-.1.2-.2.3-.2-.1-.3-.2-.5-.5Z"/>
    <path d="M2.1,180.1c-.1-.2-.1-.5-.1-.7,0,0,.2,0,.2,0,0,.2,0,.5-.1.7Z"/>
    <path d="M58,135.4c-.2-.1-.3-.3-.4-.4.1,0,.2-.1.3-.2,0,.2.1.4,0,.6Z"/>
    <path d="M572.8,105.7c0-.2.2-.3.3-.4,0,.1.1.3.2.4-.2,0-.3,0-.5,0Z"/>
    <path d="M453.9,42.5c.2-.1.5-.1.7-.1,0,0,0,.2,0,.2-.2,0-.5,0-.7-.1Z"/>
    <path d="M111.5,57.8c-.1-.2-.1-.5-.1-.7,0,0,.2,0,.2,0,0,.2,0,.5-.1.7Z"/>
    <path d="M286.4,8.5c.2.1.3.3.4.4-.1,0-.2.1-.3.2,0-.2-.1-.4,0-.6Z"/>
    <path d="M63.9,144.2c0,.2,0,.4,0,.6-.1,0-.2-.1-.3-.2.1-.2.2-.3.4-.4Z"/>
    <path d="M43,224.2c.2,0,.3.2.5.3-.2,0-.3.1-.5.2,0-.2,0-.3,0-.5Z"/>
    <path d="M49.6,221.7c-.2,0-.4,0-.5,0,0,0,0-.3,0-.3.2,0,.4,0,.6,0,0,0,0,0,0,0,0,0,0,0-.1.1Z"/>
    <path d="M499.1,50.4c.2,0,.4.1.5.2-.1.1-.2.2-.3.3,0-.1-.2-.3-.2-.5Z"/>
    <path d="M61.9,65.6c0,.2-.1.3-.2.4-.1-.2-.2-.4-.3-.5.2,0,.3,0,.5.1Z"/>
    <path d="M137.4,209.6c.1,0,.2.3.3.4-.1,0-.2,0-.3.1,0-.2,0-.3,0-.5Z"/>
    <path d="M244.2,199.2c-.2,0-.4,0-.6,0,0,0,0-.2,0-.3.2.1.4.2.5.4Z"/>
    <path d="M549.8.6c0-.2,0-.4,0-.6,0,0,.2,0,.3,0,0,.2-.1.3-.2.6Z"/>
    <path d="M196.3,81.1c1.1-.3,1.9.2,2.6.9.2.2.2.6.2.8-.3,1-2.3,1.8-3.1,1.2-.4-.3-1-1-.9-1.4.1-.6.8-1,1.2-1.6Z"/>
    <path d="M162,93c0-.3,0-.4,0-.6.1-.3.3-.5.4-.8.2.3.5.6.5.9,0,1.3-.1,2.6-.2,3.9,0,0-.2.2-.2.3,0-.1-.2-.2-.2-.3,0-1.1-.2-2.1-.2-3.3Z"/>
    <path d="M148.9,61.2c.8,0,1.6.2,2.3.4.1,0,.2.4.3.7-.2,0-.4.2-.6.1-.8-.2-1.7,0-2-1.2Z"/>
    <path d="M162.9,100.1c-.2.5-.4,1-.5,1.4,0-.4-.1-.8-.1-1.3,0-.8,0-1.7,0-2.5,0-.1.2-.2.3-.4,0,.1.2.2.2.3,0,.8.2,1.5.2,2.4Z"/>
    <path d="M176.6,146.5c0,.5,0,1,0,1.4,0,.2-.1.3-.2.5-.2,0-.4-.2-.4-.3,0-.7-.1-1.4-.1-2.1.2.1.5.3.8.5Z"/>
    <path d="M163.3,83.7c0-.3,0-.6.1-.9.1,0,.4.2.4.3,0,.3,0,.7-.1,1,0-.1-.2-.2-.3-.4Z"/>
    <path d="M185.3,135c.3,0,.5.2.7.4,0,0-.2.3-.3.5-.2-.3-.3-.6-.4-.9Z"/>
    <path d="M183.1,145.1c.4,0,.6.1.4.6,0,.1-.2.2-.4.3,0-.3,0-.5,0-.9Z"/>
    <path d="M166.1,99.2c-.2.3-.3.4-.5.5,0-.3,0-.5,0-.8.2,0,.4,0,.6.2Z"/>
    <path d="M198,106.2c0-.2,0-.4,0-.6.1,0,.2.1.3.2-.1.2-.2.3-.4.4Z"/>
    <path d="M150.3,73.5c-.2,0-.4,0-.6,0,0-.1.1-.2.2-.3.2.1.3.2.4.4Z"/>
    <path d="M243.2,86.8c-.1-.2-.3-.4-.3-.5,0-.6.2-1.1.3-1.7.1,0,.3.1.3.2,0,.7-.2,1.4-.4,2.1Z"/>
    <path d="M270.6,140.5c0-.6,0-1,0-1.5,0-.1.2-.2.3-.3.1.3.4.8.3,1-.2.3.2,1.1-.6.8Z"/>
    <path d="M241.6,82.3c.1.3.2.6.2.9,0,0-.3,0-.3,0,0-.3,0-.5,0-.8Z"/>
    <path d="M275,65.4c0,.2.1.5.2.7,0,0-.2,0-.4.1,0-.3,0-.5.2-.8Z"/>
    <path d="M395.2,138.5c.2.8.4,1.7.5,2.6,0,.1-.3.3-.5.5,0-.2-.3-.4-.3-.6,0-.8.1-1.7.3-2.6Z"/>
    <path d="M402.7,111.5c0-.5,0-1,0-1.5,0,0,.2,0,.4,0,0,.5-.2,1-.4,1.5Z"/>
    <path d="M400.7,103c0-.1,0-.2,0-.3,0-.3.2-.7.3-1,.1.1.4.3.4.3-.1.3-.4.7-.6.9Z"/>
    <path d="M394.5,104.5c.3,0,.6,0,.9.1,0,0,0,.2-.1.3-.4.2-.8.3-1.2.5.1-.3.2-.5.4-.8Z"/>
    <path d="M399,141.6c-.1-.2-.2-.6-.3-.9,0,0,.2,0,.3-.1,0,.3,0,.6,0,1Z"/>
    <path d="M402.5,106.7c0,.2,0,.5,0,.7-.1,0-.3,0-.4,0,0-.2.2-.4.4-.6Z"/>
    <path d="M376.1,83.9c0,.2,0,.4,0,.6-.1,0-.2-.1-.3-.2.1-.2.2-.3.4-.4Z"/>
    <path d="M503.9,88.9c-.1.6-.3,1.1-.4,1.6,0,0-.3,0-.4,0,0-.5.1-1,.1-1.6,0-1,.4-.4.7,0Z"/>
    <path d="M515.8,142.6c0,.1,0,.2,0,.3,0,.3-.2.7-.3,1-.1-.1-.4-.3-.4-.3.1-.3.4-.7.6-.9Z"/>
    <path d="M501.9,130.7c.2-.2.3-.3.5-.3,0,.2.2.5.2.7,0,.1-.3.2-.5.3,0-.2-.1-.4-.2-.7Z"/>
    <path d="M501.8,142.3c-.2-.3-.3-.6-.4-1,0,0,.2-.1.3,0,0,0,.1.2.1.2,0,.3,0,.5,0,.8Z"/>
    <path d="M432.3,140.7c.1-.8.2-1.5.3-2.2,0-.2.3-.3.4-.4,0,.2.2.3.2.5-.1,1.3-.3,2.6-.5,3.9,0,.2-.2.4-.4.6-.2-.2-.5-.5-.5-.7,0-.5.2-1,.4-1.6Z"/>
    <path d="M440.7,109.6c0,.1.2.2.2.2-.2.5-.3.9-.5,1.4-.1,0-.4-.2-.4-.3,0-.6-.2-1.2.7-1.3Z"/>
    <path d="M452.1,99.9c0,.4-.2.7-.3,1.1-.1,0-.3-.2-.3-.2.1-.3.3-.6.6-.9Z"/>
    <path d="M315.2,116.3c-.1.4-.3.6-.4.9,0-.1-.3-.3-.3-.3.2-.3.4-.5.7-.6Z"/>
  </g>
</svg>