<?xml version="1.0" encoding="UTF-8"?>
<svg id="Layer_1" xmlns="http://www.w3.org/2000/svg" version="1.1" viewBox="0 0 42.1 342.5">
  <!-- Generator: Adobe Illustrator 29.3.1, SVG Export Plug-In . SVG Version: 2.1.0 Build 151)  -->
  <g id="Shape_68">
    <path d="M30,85.7c-.2,0-.3.1-.5.1-.6,0-1,.1-1.1.7,0,.3-.3.7-.6.2-.4-.8-1.1-.5-1.6-.4-.6.1-1.1.5-1.6.8-.2.1-.3.4-.3.7,0,.4,0,.9,0,1.3,0,.2,0,.4,0,.6.2-.2.5-.4.5-.6.1-.4,0-.9.2-1.4,0-.2.2-.4.3-.6.1.1.3.3.3.4.3.7-.6,2.8-1.4,3-.1,0-.4-.1-.4-.2-.4-.6-.7-1.3-1-1.9,0-.1-.4,0-.6-.1,0,.2,0,.3.1.4.6.6.9,1.3,1,2.1,0,.5.3.5.6.4,1-.3,1.9-.6,2-1.9,0,0,0-.2.1-.2,0,0,.2,0,.2,0,0,.5.5,1.1-.1,1.6-.9.7-1.7,1.6-3.1,1.6-1,0-1.6.8-1.6,1.9,0,1.8.2,3.6.1,5.4,0,1.3-.2,2.5-.3,3.8,0,.8.1,1.6.1,2.3,0,2.5-.4,4.8-1.3,7.1-.6,1.6-1.5,2.9-2.4,4.3-.8,1.3-1.7,2.6-2.2,4-.4,1.2-.2,2.7-.2,4,0,.2.5.5.7.5.9-.3,1.7,0,2.4.5.3.1.8.4.4.9,0,0,.2.3.3.5.1-.1.2-.2.3-.4,0,0,0,0,0,0,0-.5,0-1.3.2-1.4.5-.3,1.3-.3,1.9-.3,1.7,0,3.4.1,5.1.3,1.3.2,2.5-.5,3.8-.3.4,0,.9,0,1.3.3.4.2,1.1,0,1.7-.1.2,0,.4,0,.7,0-.1.2-.3.5-.4.6-.7.1-1.5.2-2.2.2-.5,0-1-.3-1.5,0-.2.1-.5,0-.8,0-.3,0-.7,0-.8,0-.4.5-.8.4-1.3.3-.7-.2-1.5-.2-2.3-.3-.4,0-.5,0-.5.5,0,.7,0,1.4,0,2.1,0,.7-.7,1.8-1.3,2-.4,0-.8,0-1.2,0-.2,0-.6,0-.7.2-.4.5-.8.4-1.2.1-.2-.2-.5-.2-.8-.3,0,0-.1-.3-.1-.4,0-.3,0-.7,0-1,0-.2-.1-.4-.2-.6-.1.2-.4.3-.4.5-.1.5-.2,1-.2,1.5,0,.6-.2.9-.8.8-.4,0-.9,0-1.3,0s-.3,0-.4,0c-.7,1-1.5,0-2.2,0-.9,0-1.8,0-2.7,0-.9,0-1.7.3-2.6.5-.8.2-1.5.4-2,1.1-.2.3-.5.4-.9.2-.5-.2-1.1-.2-1.6-.4-.9-.3-1.2-.7-1.1-1.6,0-.3,0-.7-.2-1-.9-1.7-.6-2.9,1-3.9,1.2-.8,2.5-1.3,4-1.2.6,0,1.1.2,1.7.1.3,0,.7-.3.7-.5.2-1.3.3-2.6.5-4,.3-1.6.4-3.3,1-4.8.8-1.9,1.7-3.8,3.1-5.3.3-.3.7-.6,1-.9.1-.1.3-.4.3-.5-.2-1.6.5-3.1.3-4.6-.2-1.6,0-3.3.3-4.9,0-.2-.1-.4-.1-.6,0-1.4.2-2.8.1-4.2,0-.8-.3-1.6-.5-2.4-.1-.4-.3-.7.2-1,0,0,0-.3,0-.3-1.7,0-3.4,0-5.1,0,0,0-.1,0-.1,0-.3,1.3-1.7,1.2-2.5,1.8-.4.3-.7.6-1.1,1-.3.3-1.2.2-1.7-.2-.2-.1-.4-.3-.4-.5-.3-.6-.5-1-1.4-.7-.3,0-.9-.6-1.1-1.1-.4-.7-.8-1.5-.9-2.2-.1-.8,0-1.8.3-2.6.2-.4.8-.8,1.3-1,.2-.1.6-.1.9,0,1,.4,2,.5,2.9-.4.3-.3.8-.7,1.4-.2,0,0,.3,0,.5,0,1.3,0,2.6.3,3.8.6,1,.2,2,.2,3,.4.6.1,1.1,0,1.6-.3,1-.7,2.1-.2,3.1,0,.5.1,1,.4,1.5.7.5.3.7.3,1.2-.2.4-.5,1.1-.9,1.8-1,1.9-.5,3.8-.9,5.7-1.3,1.4-.3,2.8-.5,4.2-.6.9,0,1.7,0,2.6.2.2,0,.4.3.6.5-.2,0-.4.2-.7.3,0,0-.1,0-.2,0-.4.1-.7.2-1.1.3.3,0,.7,0,1,.2.2,0,.4.3.4.5.2,1.8-.5,2.5-2.3,2.7-1.2.1-2.4.4-3.6.7-.9.2-1.7.3-2.6.5-.5,0-.9.3-1.4.3-.3,0-.5-.2-.8-.3.2-.2.3-.4.5-.5.7-.4,1.4-.6,1.4-1.7,0-.4.3-.9.6-1.3.4-.5,1.3,0,1.6.8,0,.2.2.3.2.4,0-.2.1-.4,0-.6-.3-.5-.7-1-1-1.5M34.5,87.8c.3-.8,1.4-1.2.8-2.2,0-.1-.2-.3-.2-.4-.1,0-.3.2-.4.3-.1.3-.1.6-.2,1,0,.2-.2.4-.3.7-.1-.2-.3-.4-.4-.6,0-.2-.2-.3-.1-.5,0-.6-.1-.8-.7-.7-.2,0-.4,0-.6,0-.6,0-.9.5-.8,1,.1.5.2,1,.3,1.5,0,.2.4.5.6.5.6,0,1.3-.3,2-.5M6.4,131.3c0,.3,0,.6,0,.8,0,0,.2,0,.4,0,0-.6.2-1.2.2-1.7,0-.6-.3-1.1-.6-1.7-.3-.6-.6-1.1-.9-1.6,0,0-.3,0-.5,0,0,0-.2.2-.2.2.2.6.4,1.1.7,1.6.4.7.9,1.3.9,2.3M29.7,89c.4,0,.9,0,1.3-.2,0,0,.1-.2.2-.3-.8-.2-.9-.9-1.2-1.5,0,0-.1-.2-.2-.2,0,0-.2.2-.2.3,0,.6,0,1.2.2,1.9M2.8,88.1c0,.4-.1.8-.1,1.1,0,.2.1.4.2.5.1-.2.3-.4.4-.6.1-.5.2-.9.3-1.4,0-.2.1-.3.2-.5-.2,0-.4.1-.6.2-.2,0-.3.3-.4.5M35.3,87.9c.8.2,1.4-.4,1.2-1.4,0-.1-.1-.3-.2-.4,0,.1-.2.2-.3.3-.3.4-.5.9-.7,1.4M13.2,125c-.4,0-.7-.2-1.1-.3,0,0-.2,0-.3,0,0,0,0,.2,0,.2.2.4,1.1.4,1.3,0M23.3,128.4c0,.2,0,.5-.1.7,0,.2,0,.3,0,.5,0,0,.2,0,.2,0,0-.2.2-.4.2-.5,0-.2,0-.4-.2-.7Z"/>
    <path d="M5.5,158.3c.1-1.7.3-3.3.4-4.9,0-.7,0-1.4-.6-1.9,0,0-.2-.1-.1-.2.1-.5.4-.9.5-1.4,0-.7.6-.7,1-.9.7-.2,1.3-.8,1.9-.9,1.6-.3,3.2-1,4.9-.4.3.1.7-.2,1-.3.4-.2.8-.5,1.2,0,0,0,.3,0,.4,0,2-.8,3.8-.4,5.7.4.5.2,1.3,0,1.9-.1.2,0,.4,0,.5,0-.1.2-.2.3-.3.4-.8.6-.8.9-.3,1.7.1.2.2.5.1.6-.5.6-.2,1.1.2,1.6,0,0,.1.3,0,.4,0,0-.2.2-.3.2-.9-.3-2.1,0-2.6-1.2,0,0-.2-.1-.2,0,0,0-.1.2-.1.2,0,.2.2.5.1.7,0,.3,0,.8-.3,1-.4.3-1,.4-1.5.6,0-.1,0-.2,0-.3,0-.4,0-.9,0-1.3,0,0-.2-.2-.2-.2,0,.1-.2.2-.2.3,0,0,0,.3,0,.3-.2.2-.5.6-.7.6-.2,0-.5-.4-.6-.6-.3-.7-.6-1.4-.8-2-.2-.6-.3-1.2-.5-1.7,0-.2-.2-.3-.3-.5,0,.2-.1.3-.1.5,0,1.2.3,2.3,1,3.3.3.4.6.9.8,1.3,0,.2,0,.5,0,.6-.3.2-.6.3-.9.3-.6,0-1.1-.2-1.7-.2-.7,0-1.1-.4-1.6-.9-.2-.2-.5-.4-.7-.6,0,.3.1.6.2.9,0,.2,0,.4,0,.5-1.2,1-1.3,2.5-1.8,3.8-.5,1.3.1,2.6.1,3.8,0,1.1-.1,2.1-.2,3.2,0,.4-.2.9-.3,1.3-.1.8.1,1.2,1,1.5.6.2,1.2.6,1.8.9.1,0,.4.2.4.1.1-.1.1-.3.2-.5.1-.3.1-.7.3-.9.4-.4.6.1.8.4.3.3.7.5,1.1.8.5.4,1.3.5,1.5,1.3,0,.2.5.3.8.3,1.3,0,1.4,0,1.8,1.4,0,0,0,.2,0,.2,1.3.7,1.2,2.2,2,3.3.1.2.3.3.4.4,0-.3,0-.7,0-.8-.9-.6-.7-1.7-1.2-2.4-.2-.4-.5-.7-.7-1.1,0-.1,0-.3,0-.4,0,0,.3,0,.4,0,.2,0,.5.2.7.3.6.4,1.8.3,2.3-.3,1.6-1.6,3.3-3.2,4.7-4.9,1.6-2,3.2-4.1,3.9-6.6.2-.7.2-1.5.4-2.2,0-.2.3-.4.4-.6,0,.2.2.5.2.7,0,.6-.2,1.2-.3,1.9,0,.2.2.5.3.7.1.3.3.6.3.9,0,0-.5.2-.7.3-.2.1-.4.2-.5.4-.5.8-.8,1.6-1.3,2.4-.2.3-.5.4-.7.7-.4.5-1.1.7-.9,1.5,0,0-.3.3-.4.2-.5-.2-.6.1-.8.4-.5.7-1,1.4-1.6,2.1-.6.7-.7,1.5-.2,2.3.2.4.3,1,.3,1.5,0,0-.1.2-.2.2-.2,0-.5,0-.7,0,0-.1,0-.3,0-.4.6-.7.1-1.3,0-1.8,0-.1-.3-.1-.4-.2,0,.2-.2.3-.2.5,0,.5,0,1.1,0,1.6,0,0,0,.2,0,.2,1.1.8.2,1.6-.3,2-.9.8-1.9,1.5-3,1.9-.6.3-1.4,0-2.1,0-.2,0-.3-.5-.4-.7-.1-.2-.3-.4-.4-.6,0,.2,0,.4,0,.5,0,.3-.2.5-.3.8-.2-.1-.5-.2-.7-.4-.3-.2-.7-.5-1-.4-1.4.2-2.1-.8-2.9-1.6-.1-.1-.2-.3-.4-.5-.5-.6-.6-1.3-.5-2,.2-.8,0-1.1-.8-1.3-1.6-.2-2.8.8-3,2.4-.2,1.5-.6,3-.8,4.6-.1,1,0,2,.1,3,0,.1,0,.2,0,.3,0,1,0,2.1,0,3.1.1,1.6.4,3.2.6,4.9,0,.6,0,1.1-.1,1.7,0,1.6.1,3.3-.2,4.9-.4,1.7-.6,3.6-2,4.9-.6.6-1.3.5-1.9.2-.6-.2-1-.7-1-1.4,0-.4-.3-.9-.6-1.2-.6-.8-.7-1.6-.5-2.5.2-.9.4-1.8.5-2.8,0-.6.6-.9,1.4-.7.4.1.7.2,1.1.3.2,0,.3-.1.5-.2,0-.2-.1-.4-.3-.4-.4-.1-.7-.7-1.3-.4-.5.3-1-.7-.9-1.5,0-1.3,0-2.6,0-3.9,0-.6-.2-1.1-.2-1.7,0-3-.1-6.1-.2-9.1,0-.4,0-.9.2-1.3.3-.7.3-1-.4-1.5-.4-.2,0-.8.4-.9.6-.1.4-.3.1-.6-.5-.5-.9-1-1.4-1.5-.5-.5-.1-.8.3-1,.4-.2.6-.4.7-.9,0-.4.3-.9.6-1.1,1-.7,1-1.7,1.1-2.8,0-.9.2-1.7.1-2.6,0-.8-.1-1.5-.3-2.3M23.7,172.8c-.2.4-.4.8-.4,1.1,0,.2.6.6.8.5.3-.1.6-.5.8-.8.1-.2,0-.6,0-.9,0-.4.1-.7.2-1,0-.3.1-.6.1-.9,0,0-.3-.2-.3-.2-.3.4-.6.8-.8,1.2-.2.2-.3.5-.5.9M8,196.3c0-.3.1-.5,0-.7,0-.3-.2-.6-.4-.8-.2-.1-.5,0-.7-.1,0,.2-.1.5,0,.7.2.5.6.9.9,1.4,0,0,.2-.2.2-.4M14,149c-.3.2-.6.4-.8.7-.2.5.2.9.6,1.2.1.1.4.1.5.2,0-.2,0-.5-.2-.6-.4-.4-.5-.8,0-1.2,0,0,0-.2-.2-.3M19.2,173.5c-.3-.5-.6-1-1-1.4,0,0-.3,0-.3,0,0,.1,0,.3,0,.4.2.3.4.7.6,1,0,.2.2.4.3.6.1-.2.2-.4.5-.6M5.7,195.3c0,.2-.1.5,0,.6.5.7,1.1,1.3,1.7,2,0,0,.2,0,.3,0,0-.1,0-.3,0-.4-.9-.5-1.3-1.4-1.9-2.2M6.9,187.5c.2,0,.4,0,.6,0-.1-.4-.2-.8-.3-1.1,0-.2-.3-.2-.4-.4,0,0-.2.2-.2.3,0,.4.2.7.3,1.2M13.1,151.1c-.1,0-.3.1-.4.2-.3.1-.5.2-.8.3.3.1.6.2.8.3,0,0,.2,0,.2,0,.3-.1.5-.2.8-.3-.2-.1-.3-.3-.7-.4M11.7,150.4c.1,0,.4,0,.4,0,0-.6.2-1.1.2-1.7,0,0,0-.2-.4,0-.6.5-.2,1-.3,1.6M6,188.4c.6.2.9.6,1.1,1.2,0,0,.1.2.2.2,0-.1.1-.2,0-.3-.2-.5-.4-1-.8-1.4-.2-.3-.7-.5-.6.3M18.6,150.6c0-.2.2-.4.1-.6,0-.2-.2-.4-.3-.6-.2.2-.4.5-.5.7,0,.2.3.4.6.5M21.9,149c0-.2,0-.3,0-.5-.3,0-.5,0-.8,0,0,0,0,.3,0,.4.3,0,.5,0,.9,0M7.5,168.6c.1,0,.3,0,.4,0l-.3-.4c0,.1-.1.3-.1.5Z"/>
    <path d="M38.5,5.1c-.2.8-.8.4-1.2.5-.7.1-1.5,0-2.2.2-.5,0-1,.3-1.6.5-.7.3-1.4.6-2.2.8-1.3.4-2.7.6-4,1-.2,0-.4,0-.5.2-.4.6-.8,1.3-1.2,2-.5.8-1.1,1.7-1.7,2.5-.2.2-.3.5-.5.7,0-.3-.2-.6-.2-1,0-1.2.1-2.4.1-3.5,0-.6,0-1.3,0-1.9,0-.2-.2-.4-.3-.6-.2.2-.5.3-.5.5-.1.4-.2.8-.2,1.2,0,.6-.2,1-.8,1.2-.2,0-.4.4-.5.7.3,0,.5.2.8.2.5,0,.9-.2.7.6-.2.7,0,1.6,0,2.3,0,.8-.4,1.1-1,1.3-.3.1-.8,0-.6.7,0,.1-.3.4-.5.5-.5.2-1,.3-1.6.5-1.1.4-2.1.2-3.2.2-1.2,0-2.4,0-3.5.3-1.6.3-3.1.7-4.6,1.2-.4.1-.7.6-1.1.8-.6.2-.7.4-.7,1.1,0,.9-.3,1.8-.4,2.7,0,.6,0,1.2.1,1.8.3,1.7.4,3.5.8,5.2.2,1,.9,1.9,1.3,2.8.3.7.7,1.4,1.1,2,.3.5.6.9,1,1.3.8.8,1.2,1.7,1.4,2.8,0,.6.6,1.2.9,1.8.4.7.8,1.5,1.3,2.2.4.6,1.1,1.1,1.5,1.8.5.6.9,1.3,1.7,1.5.5.1,1.1.1,1.7.2.2,0,.5,0,.7,0-.1.2-.3.3-.4.5-.3.2-.6.3-.9.6-.4.3-.3.8.2.9.6.2,1.2.5,2,.3,1-.2,1.8.4,2.2,1.2.7,1.5,2,2.1,3.3,2.7.7.3,2-.6,2.5-1.3.6-.9,1.4-1.6,2.1-2.3,0,0,.2,0,.2,0,0,.2,0,.4-.1.6-.4.5-.8,1-1.2,1.4-.6.6-1.2,1.1-1.7,1.7-.2.2-.5.6-.4.8.2.6-.1.6-.5.9-.4.3-.6.8-.9,1.1,0,.1-.2.3-.3.4-.1,0-.2-.2-.3-.3-.2-.2-.5-.4-.7-.7,0,0-.2-.3-.2-.3.1-.1.2-.2.4-.2.2,0,.4,0,.5-.2.2-.5-.8-1.7-1.3-1.6,0,0-.2.2-.2.3,0,.4,0,.9,0,1.3,0,.6-.2,1-.8,1.1-1.8.3-3.5.5-5.3.6-1.4,0-2.4-1.1-2.1-2.5,0-.1,0-.3-.1-.4-.5-.6-.9-1.2-1.4-1.7-.8-.8-1.7-1.6-2.5-2.4-.6-.6-1.2-1.1-1.6-1.8-1.2-1.8-2.3-3.6-3.4-5.5-.5-.9-1.2-1.8-1.5-2.8-.5-1.8-1.7-3.2-2.7-4.7-.4-.6-.6-1.2-.8-1.9-.2-.8-.2-1.7-.4-2.6-.2-1.2-.5-2.4-.6-3.6-.1-1.5,0-3,0-4.5s0-1.6,0-2.3c0-.5.4-1,.7-1.5.2-.4.5-.8.7-1.1.1-.2.4-.3.5-.3.2,0,.3.3.4.4.2.2.4.5.6.5.2,0,.5-.2.7-.4.3-.3.4-.7.7-.9.2-.2.7-.2.9,0,.5.2.8.2,1.3.1,1.3-.3,2.6-.4,3.9-.7.8-.2,1.5-.7,2.2-1.1.1,0,0-.4.1-.6-.2,0-.4,0-.6,0-.2,0-.4,0-.6,0,0,0-.1-.2-.2-.4.2,0,.4-.2.6-.2.6,0,.9-.3,1.4-.7,1-.8,1.8-2.1,3.4-1.8.2,0,.6-.2.8-.5.7-.8,1.6-1.4,2.8-1.3.6,0,.9-.3,1.1-.8.7-1.5,1.8-2.6,3.3-3.2,1-.4,1.9-.8,2.8-1.3,1.6-.8,3.3-1,5-1.4.4,0,.9-.3,1.3-.6,1.3-.7,2.6-1.1,4.1-.8,0,0,.2,0,.3.1.2.2.3.5.5.8-.3,0-.5,0-.8,0-.2,0-.5-.1-.7-.2-.2,0-.5,0-.7,0,.1.1.3.3.4.4.4.4.1.5-.3.6-.9.4-1.9,1.3-1.3,2.4.2.3.5.7.8.7.3,0,.6-.3.8-.6.6-.7.4-1.6.4-2.4,0-.1,0-.3,0-.4.1,0,.3.2.4.3,0,0,0,.1,0,.2-.4,1-.1,1.6,1.1,1.4,0,0,.2.2.2.3,0,.1-.2.2-.3.2-.9,0-.8.5-.6,1.2M25.8,6.3c.2-.4.6-.8.7-1.2,0-.4.2-.6.6-.4.2,0,.3.4.3.6-.1.5-.4,1-.5,1.5,0,.3,0,.6,0,.9.2-.1.5-.2.6-.4.2-.3.2-.7.3-1.1.1-.3.4-.6.5-.9.5.4.5,0,.6-.4,0-.5.1-.5.7-.8.2,0,.4-.5.6-.7-.2,0-.4-.2-.6-.2-.2,0-.3,0-.5,0-.5.2-1.1.6-1.5.5-1.3-.4-1.1,1.3-2,1.3,0,0,0,0,0,0,0,.8-.1,1.6-.2,2.3,0,.2,0,.4.2.6,0,0,.2.2.3.2,0,0,.2-.2.2-.3,0-.5,0-1.1-.2-1.7M31,2.7c-.1,0-.4.1-.4.2,0,.7,0,1.4.2,2.1,0,.2.3.3.4.4,0,0,.3-.2.3-.3.1-.9.6-1.8-.5-2.4M21.2,13.3c-.2-.5-.4-1-.6-1.5,0-.1-.3-.1-.5-.2,0,.2,0,.3,0,.5.1.4.3.8.4,1.2,0,.2.1.5.2.7.1-.2.2-.4.4-.7M33.8,2.1c-.1-.1-.2-.3-.3-.3-.2,0-.6,0-.6.2,0,.2,0,.6.1.7.2.1.5.1.8.2,0-.2,0-.4,0-.7M21.5,12.1l.3.7c.1-.3.2-.5.3-.8,0,0,0,0,0,0,0-.2-.2-.4-.3-.6-.1.2-.3.4-.4.7M34.1,5.2c.2-.1.6-.3.6-.5,0-.3-.1-.6-.2-1-.1,0-.3.1-.3.2,0,.3,0,.7,0,1.2M24.2,6c0-.2,0-.4,0-.5-.2.1-.5.2-.5.4,0,.2,0,.5,0,.7.1-.1.3-.3.4-.6M32.4,5.5c0,.2.1.4.2.6,0,0,.3,0,.3-.1,0-.2,0-.5,0-.7-.2,0-.3.1-.5.3M28.2,6.5c0,.2,0,.4,0,.6,0,0,.3,0,.3,0,0-.2.2-.4.1-.6,0-.1-.2-.3-.4-.4,0,.1,0,.5,0,.5M26.2,53.1h.2c-.3-.2-.5-.3-.8-.5,0,0,0,.1-.1.2.2.1.4.2.7.3M34.5,1.6c.1,0,.3,0,.4,0,.1,0,.1-.3.2-.4-.2,0-.4.1-.6.4M29.7,6.1c0,0,0,.1,0,.2,0-.2.2-.3.3-.5,0,0,0-.1,0-.2,0,.1-.1.3-.2.5M22.5,52.3c0,.1-.2.2-.2.3,0,0,.1,0,.2.1,0-.1,0-.3,0-.5Z"/>
    <path d="M17.3,334.9c.4.4.7.8.9,1.2.3.6.6.6,1,.1.4-.6.9-.6,1.4,0,.4.5.8.9,1.7.5,1.1-.4,2.2-.9,3.1-1.5.6-.4,1,0,1.1.5.3,1,.9,1.1,1.7.8.1,0,.3,0,.5.1-.1.1-.3.3-.4.4-.3.1-.6.2-.9.3-.2,0-.3.2-.5.1-.3,0-.7-.2-.9-.1-.4.3-1,.8-1.1,1.2-.1.8-.7.8-1.2,1.1-.2.1-.4.1-.6.2-.2,0-.4,0-.6,0,.2-.2.3-.4.5-.5.9-.4,2-1.9,1.9-2.8,0-.1,0-.3,0-.4-.1,0-.3,0-.4.2-.3.4-.5.9-.9,1.3-.2.3-.5.6-.8.8-.6.3-1,.6-.8,1.4,0,.1-.2.4-.4.5-.4.5-1,.9-1.4,1.4-.4.6-1,.8-1.5.2-.8-.9-1.5-1.8-2.3-2.6-.3-.3-.6-.6-.9-.8-1.1-.7-1.6-1.8-2-3,0-.2-.1-.3-.2-.5-1.3-1.3-2.1-2.9-2.7-4.5-.4-1.1-.5-2.3-.7-3.5-.2-1.5-.5-3-.6-4.5,0-1.3,0-2.6.1-3.9,0-.4,0-.8-.2-1.2-.2-1.1.3-1.9,1-2.6,1.1-1.1,2.2-2.1,3.8-2.5.6-.2,1.1-.6,1.6-.9.5-.4.8-1.9.6-2.5,0-.3,0-.6,0-.8,0-.3,0-.8-.3-.9-.2-.1-.7,0-.9.1-.9.6-.8,1.4.2,2,.3.2.5.4.7.7,0,0,0,.3,0,.4-.1,0-.3,0-.4,0-.5-.4-1-.8-1.5-1.2-.5-.4-1-.9-1.4-1.4-.3-.3-.6-.7-.5-1.3,0-.4-.4-.9-.6-1.3-.9-1.6-1.9-3.1-2.6-4.7-.5-1.3-.8-2.7-1-4.1-.3-1.8-.4-3.6-.5-5.4,0-1.4-.3-2.8.1-4.2.3-1,.4-2,.9-3,.6-1.3,1.7-2,3-2.2,1-.2,2,0,3,0,1.3,0,2.7.2,4-.3.8-.3,1.7-.2,2.5-.2,1.1,0,2.2.2,3.4.3.3,0,.5-.2.8-.3,1.3-.3,2.7-.6,4-.8.8-.1,1.6,0,2.3,0,.1,0,.2,0,.3.1,0,0-.2.1-.3.2-.6.1-1.3.3-1.9.4-.1,0-.3,0-.4,0-.5,0-.8.3-.7.7,0,.3.1.6.2,1,0,.1-.1.2-.2.3,0,0-.2-.1-.3-.2-.1-.4-.4-.8-.3-1.1.2-.6,0-.6-.5-.5-.7.1-1.4.2-2.1.5-.4.1-.7.5-1,.9-.2.2-.3.4-.5.6-.1-.2-.2-.4-.3-.5-.1-.1-.3-.3-.4-.3-.2.1-.3.3-.5.5,0,0,.2.2.3.3.6.5.6,1.2-.3,1.7-.3.2-.6.3-.2.6.1.1.4.1.5,0,1.7-.5,3.4-1,5.1-1.4.7-.2,1.5,0,2.2,0,0,0,.1,0,.2,0,.3-.4.5-.8.8-1.3,0,0-.1-.1-.2-.2-.4.5-.4-.1-.6-.2.1-.2.2-.6.5-.7.3-.2.6-.1,1-.2.3,0,.6-.3,1-.4.4-.1.7-.2,1.1-.2,0,.3.1.6.1.9,0,.7-.2,1.5-.2,2.2,0,.2.2.3.3.5.1-.1.3-.3.4-.4.2-.3.4-.6.5-1,.1-.3,0-.6.1-.9,0-.3.2-.6.3-.9.1.3.3.5.3.8.1,1.2-.3,2.2-1.5,2.7-.3.1-.8.2-1.1.1-1,0-2,0-2.9-.2-1.8-.5-3.4.3-5.1.5-.8.1-1.6.6-2.4.9-1,.3-3.3.8-4.9,0-1.2-.6-2.3-.3-3.5.1-.4.2-.9.2-1.3.5-.9.7-1.2,1.7-1.3,2.8,0,1.1-.4,2.1-.4,3.2,0,1.2,0,2.4,0,3.5,0,1,.2,2.1.5,3.1.5,1.4,1.3,2.8,2,4.1.6,1,1.3,1.8,2,2.7.2.2.6.3.9.4.9.5,1.7,1,2.6,1.5.2.1.6.3.8.2,1-.4,1.9.1,2.8.2.4,0,.7.1.3.6-.1.2-.2.4-.3.6,0,.2,0,.4.2.5,0,0,.3,0,.5,0,.3-.2.6-.4.9-.5.2-.1.5,0,.8-.1,0,.2,0,.5-.1.7-.1.2-.4.3-.6.4,0,0-.2-.1-.3-.1-.5,0-.8,0-.8.6,0,.8-.4,1.4-.8,2.1-.7,1.2-2,1.2-3,1.9-1.5,1.1-3,2.2-4.5,3.2-.6.4-1.4.7-1.8,1.5,0,.2-.2.3-.2.5,0,1.3,0,2.6.2,3.9.2,1.6.5,3.3.8,4.9.4,2.4,1.5,4.4,3.4,6M31.4,283.3c-.3.3-.2.7.2.7.4,0,.9.3,1.1-.3,0-.3.2-.7.2-1,0-.3-.1-.6-.2-.9-.2.2-.5.4-.7.6-.2.2-.3.5-.5.9M17.7,336.4c-.2.2-.4.3-.6.5.1.1.2.2.3.3,0-.2.2-.5.2-.8M16.8,337.9c0,.2,0,.4,0,.6.1,0,.2,0,.4,0,0-.2-.2-.4-.3-.5Z"/>
    <path d="M14.2,247c.7,1.5,1.4,3,2.1,4.5.4.9.9,1.8,1.2,2.8.2.4.2.9.2,1.4,0,.4-.5.5-.9.2-.5-.6-.9-1.3-1.8-1.4-.1,0-.3-.3-.3-.4-.2-1.1-1.2-1.4-1.9-2-.5-.5-1-.8-.4-1.5.1-.2,0-.9-.3-1-1.2-.7-1.5-1.9-2-3-.7-1.7-1.5-3.5-1.8-5.3-.3-1.7-1.2-3.1-1.4-4.7,0-.9.1-1.9.3-2.9.4-2,.9-4,1.5-6,.3-1.1,1.1-2.2,1.4-3.3.3-.9.7-1.8,1.4-2.4.4-.4,1.1-.6,1.7-.8,1-.3,2.2-.4,3.2-.9,1.2-.6,2.4-1.3,3.4-2.1,1-.8,1.7-1.8,2.6-2.6.3-.3.8-.6,1.2-.8,1-.4,2.1-.8,3.1-1.2.2,0,.4,0,.6,0-.1.1-.3.3-.4.4-.7.2-1.3.4-2,.6-.2,0-.5.2-.6.3-.4.7-.7,1.5-1,2.3-.2.5-.3,1.1-.4,1.7,0,.2,0,.4,0,.6.1-.1.3-.2.4-.4.4-.5.7-1,1.1-1.4.1-.2.4-.4.6-.4,1.2-.2,2.4-.4,3.6-.5.6,0,2.1,1.1,2.2,1.7,0,.2,0,.3,0,.5-.1-.1-.3-.2-.4-.3-.7-.6-1.2-1.6-2.3-1.4-2.4.3-4.4,1.1-5.3,3.7-.2.6-.6,1.1-1,1.7,0,0-.3,0-.4,0-.5,0-.8.1-1.1.6-.3.7-.7,1.4-1.3,1.9-.4.3-1.1.2-1.7.3-.1,0-.3,0-.4,0-1.5-.3-2.2.8-3,1.7-.5.6-.9,1.3-1.4,1.9-.5.5-.7.9-.5,1.6.1.5,0,1,0,1.5,0,.7-.2,1.5-.3,2.2-.1.6-.2,1.2-.4,1.8-.2.7-.2,1.3.2,2,.7,1.1.8,2.4,1,3.7.3,1.4.8,2.8,1.2,4.1,0,.3.2.6.3.9M9.9,235c-.1-.1-.3-.2-.4-.3,0,0-.2.2-.1.3.3.7.2,1.2-.5,1.7,0,0,0,.1,0,.2,0,.1,0,.2,0,.3,0,0,.2-.1.3-.2.7-.5.8-1.2.7-2M20.2,221.6c-.2-.3-.3-.8-.6-.8-.3,0-.7.2-1.1.3,0,0,0,.2,0,.3.5.1,1.1.2,1.7.3M11,245.7c-.1.1-.2.3-.4.4.2.1.5.3.7.3,0,0,.2-.3.3-.4-.2-.1-.4-.3-.7-.4M16.3,221.9c-.1.2-.3.4-.4.6,0,0,0,.2.1.3.1,0,.4-.1.4-.3.1-.3.1-.6.2-.9,0,0-.2,0-.3.1,0,0,0,0,0,.2M13.8,250.1c0-.2-.1-.4-.2-.5,0,0-.1,0-.1.1,0,.2.2.3.3.4Z"/>
    <path d="M14.3,259.5c-.2-.5-.5-.9-.5-1.3,0-.5.1-1,.2-1.5,0-.2.3-.3.3-.5,0-.3,0-.6,0-.8.4,0,.8,0,1.1.2.8.2,1.1,1.1.9,1.8-.2.5-.1,1-.2,1.6,0,0,.1.2.2.3,0,0,.2-.2.2-.3.2-.6.4-1.2.6-1.8,0-.2.4-.5.5-.4.3.2.7.4.9.7,0,0,0,.4-.2.6-.5.6-1.2,1-1.2,1.9,0,.2,0,.3.1.5.2,0,.4-.1.5-.3.2-.3.5-.6.6-.9.2-.7.5-.3.8-.2.4.2.8.5,1.2.8.1,0,.2.2.3.3-.1,0-.3.2-.4.2-1.3-.5-1.2.4-1.3,1.2-.2.8.1,1.4.9,1.7.1,0,.3,0,.4,0,0-.1,0-.2,0-.3-.4-1.5-.3-1.5,1.2-1.8.4-.1.8-.5,1.2-.7.2,0,.4-.1.7-.2,0,.2,0,.5,0,.7-.2.8-.6,1.5-.8,2.3-.1.6,0,1.3-.2,2,0,.2-.3.3-.5.4-1.5.8-2.5.4-3.3-1.1-.3-.5-.4-1.3-.9-1.6-.9-.6-1.2-1.8-2.3-2.2-.4-.2-.7-.8-1.1-1.2M21.8,262.2c-.2.3-.5.6-.6.9,0,.4,0,.9,0,1.3.2-.3.6-.6.7-1,.2-.4.2-.8.2-1.3,0,0-.1,0-.3,0M15,258.2c-.1-.1-.3-.3-.5-.4,0,0-.4,0-.4.1,0,.7.4,1,.9,1.3.1,0,.3.1.5.2-.1-.3-.2-.7-.4-1,0,0,0,0-.2-.2M18.3,261.5c-.3-.5-.7-.4-1.2-.4,0,0-.2.3-.1.3.4.3.8.7,1.3,0Z"/>
    <path d="M41.7,46.8c.2.9.4,1.9.4,2.8,0,1-1.1,1.4-2.4,1.1-.3,0-.7.1-1,.2-.1,0-.3.2-.4.2-1.2-.2-2.2.3-3.2.7-.2,0-.4,0-.6,0,.1-.2.2-.4.4-.5.6-.3,1.3-.5,2-.8.1,0,.2-.1.3-.2,0,0-.1-.2-.2-.3-.6-.2-1.2-.4-1.8.2-.5.5-1.2,1-1.8,1.5-.1.1-.4,0-.6,0,0-.2,0-.4,0-.5.8-1,1.5-2.2,3.1-2.2.2,0,.4-.4.7-.6.2.3.4.6.6.8,0,0,.5-.2.6-.4.1-.2.1-.6.2-.9,0-.7.3-1.1,1.1-1.1.6,0,1.1,0,1.7,0,.2,0,.3-.2.4-.4,0,0,.1,0,.2,0,0,.2.2.4.3.6M40.6,47.7c-.1,0-.2.1-.3.2-.2,0-.5.2-.7.3.3,0,.6.2.9.2.2,0,.3-.3.5-.5-.1,0-.2-.2-.4-.2M39.6,49.2c-.2-.3-.3-.7-.5-1,0,0-.2,0-.3.1-.4.5-.1.9.8.9M37.8,50.5c0-.1,0-.3-.1-.4,0,0-.1,0-.2.1,0,.1.2.2.3.3Z"/>
    <path d="M33.1,47.2c1.2-.3,2.4-.7,3.6-.9.3,0,.6.1.9.2-.3.2-.6.5-.9.5-.8.2-1.7.2-2.4.6-.8.5-1.5,1.2-2.2,2-.4.5-.5,1.1-.5,1.8,0,.7-.3.9-.9.7-.1,0-.3,0-.4,0-.4.6-.8,1.2-1.3,1.8-.1.2-.3.4-.6.5-.2.1-.5.2-.8.3-.5.2-1.1,0-1.1-.6,0-.1.2-.3.4-.3.2-.1.6-.1.7-.3.2-1,1.1-1.3,1.9-1.6.4-.2.6-.2.6-.7,0-.1,0-.3,0-.4.3-.7.6-1.4.8-2.1.3-1,1-1.3,2-1.5Z"/>
    <path d="M23.6,239.3c-.3.1-.6.1-.8.2-.1,0-.2.2-.3.2,0,0,.2.2.3.2.5,0,1.1,0,1.4-.5,0,0,.2,0,.3-.1,0,0,0,.2,0,.3-.2.9-1.6,1.7-2.5,1.3,0,0-.2-.1-.2-.2-.2-1.1-1.2-1.9-1.1-3.1,0-.4,1.3-2.2,1.7-2.2.3,0,.7.2,1,.3-.1.2-.3.4-.5.6-.3.3-.7.4-1,.7,0,0-.1.2-.2.3.1,0,.3.1.4.2.2,0,.3,0,.5,0,1.1,0,1.4.3,1.1,1.4,0,.2-.1.3-.2.6Z"/>
    <path d="M38.5,331.6c.6-.1.4.4.6.6.2.2.4.5.6.8,0-.4,0-.7,0-1.1,0-.3,0-.5-.1-.8.5,0,1,0,1.5.1,0,0,0,.2,0,.2-.9.5-.4,1.6-1,2.1-.4.4-.7.9-1.1,1.1-.7.4-1.5.5-2.3.7-.1,0-.4-.1-.4-.2,0-.2,0-.5.1-.5.3-.1.6-.1.9-.2.2,0,.4-.1.6-.2,0,0,0-.2,0-.3-.2,0-.4-.1-.6-.2-.2,0-.4,0-.7,0,0-.1,0-.3,0-.3.2-.1.5-.3.7-.3.6,0,.7,0,.5-.6-.1-.3-.7-.9.4-.9Z"/>
    <path d="M34.9,155.8c0,.4,0,.8.2,1.2,0,.4,0,.8.3,1.1.4.6.2.9-.3,1.1-.1,0-.4,0-.5-.1,0-.4-.2-.9-.2-1.4,0-.8,0-1.6,0-2.5,0,0-.3-.2-.5-.2-.1,0-.2.2-.3.3-.5.4-.9.5-1.6.1-1.4-.8-2.8-1.7-4.5-1.7-.2,0-.4-.4-.6-.7,0,0,.1-.3.2-.4.1,0,.3.1.4.2.2.5.5.8,1.1.4,0,0,.3,0,.4,0,.9.3,1.8.6,2.7.9.1,0,.2.2.3.3.4.6.9.7,1.6.3.2-.1.4-.2.7-.3.6,0,1.1,0,.6.8,0,.1,0,.3,0,.5Z"/>
    <path d="M30.2,169.7c-.6.7-1.4,1.1-1.7,2.1,0,.1-.3.2-.5.3,0-.2,0-.3,0-.5,0-.6.3-1.1.8-1.5.9-.8,1.7-1.7,2.5-2.5.1-.1.1-.4.2-.5-.2,0-.3.2-.5.2-.2,0-.4.2-.6.3,0-.2.2-.4.3-.6.3-.4.5-.9.8-1.3,0-.1.2-.2.3-.3,0,.1.1.3.1.4,0,.1,0,.3,0,.4,0,0,0,.2,0,.3,0,0,.2,0,.2,0,.1-.1.3-.3.4-.5.2-.2.5-.4.7-.6.2-.2.3-.5.5-.8.2-.3.5-.5.7-.7,0,0,.3,0,.5.2,0,.1-.1.2-.2.3-1.2,1.5-2.4,3.1-3.6,4.6-.2.3-.6.6-.9.9Z"/>
    <path d="M28.4,130.3c-.3,0-.5,0-.6,0-.3,0-.4-.2-.1-.4.4-.4.8-.8,1.2-1.2.1-.1.2-.3.3-.4-.2-.1-.4-.3-.6-.4-.1,0-.2-.1-.4-.2.1,0,.3-.1.4-.2.5,0,.8.3,1,.7.2.4.4.9.6,1.3,0,.2.4.3.5.3.4-.1.7-.3.6-.8,0-.2,0-.4,0-.5,0,0,.2,0,.3-.1,0,.2,0,.4.2.5,0,.3.2.7.3.7.3,0,.6-.1.9-.3.1,0,.2-.3.4-.3.2,0,.4,0,.5,0,0,.1-.1.3-.2.4-.9,1-1.9,1.2-3.4.7-.6-.2-1.3,0-2,.1M28.9,129.1c.1,0,.2.1.3.2,0,0,0-.1,0-.2-.1,0-.2,0-.4,0Z"/>
    <path d="M25.4,221.5c-.2.5-.4,1,0,1.5.3.3.6.3.8,0,.4-.4,0-.3-.2-.5,0,0-.1-.3,0-.4,0,0,.2-.1.3,0,.4.1.8.3,1.2.5,0,0,.1.4,0,.4-.7.5-1.4,1.2-2.4,1-.2,0-.5-.1-.5-.2-.6-1.2,0-3,1.2-3.6.3-.2.6-.8,1-.3,0,0-.4.5-.7.8-.2.2-.4.5-.7.7Z"/>
    <path d="M25.6,130.9c-.3,0-.6.2-.8.1-.2,0-.4-.1-.6-.2.2-.2.4-.5.6-.6.7,0,1-.3.7-1,0,0,0-.2.1-.3.3-.2.6-.5.9-.7.2,0,.4,0,.6-.1,0,.2,0,.4,0,.5-.1.5-.4,1-.5,1.6-.1.5-.5.6-1,.6Z"/>
    <path d="M30.7,337.6c-.8.2-1.5.4-2.2.6-.2,0-.4.1-.6.2.2-.2.3-.4.5-.5.3-.1.7-.2,1.1-.2.1,0,.3,0,.4-.1,1.1-.6,2.3-1.2,3.4-1.8.3-.1.6,0,.9,0,0,0,.2.1.2.2,0,0-.1.2-.2.2-1.1.5-2.3,1-3.5,1.6Z"/>
    <path d="M34,227.9c0-1.3-.7-2.3-1.4-3.3,0,0-.2-.1-.2-.2,0-.2,0-.4-.1-.5.2,0,.4.1.5.3.8,1.1,1.6,2.2,1.9,3.5,0,0,0,0,0,0,.2.4.7.7.2,1.2-.3-.3-.5-.6-.8-1Z"/>
    <path d="M36,233.5c0,.5.2.9.2,1.3,0,.2-.2.5-.4.7-.2-.2-.5-.4-.5-.6-.2-1-.2-2-.3-3,0-.1.1-.2.2-.3,0,.1,0,.2.1.3.2.5.5,1.1.8,1.6Z"/>
    <path d="M28.9,150.2c.3,0,.5,0,.7,0,0,0,.2.2.1.3-.2.5-.5.9-.7,1.4,0,.1-.2.2-.2.4,0-.1-.2-.3-.2-.4,0-.2,0-.4,0-.6,0-.2-.2-.3-.2-.5-.2.1-.3.2-.5.4-.1.1-.2.3-.3.4,0-.2-.2-.4-.2-.6,0-.2.3-.4.5-.4.3-.1.7-.1,1.1-.2Z"/>
    <path d="M34,245.1c0,.2.1.4,0,.5-.6,1.1-1.3,2.2-1.9,3.4,0,.1-.2.1-.4.2,0-.1-.1-.3,0-.4.6-1.1,1.1-2.2,1.7-3.4,0-.2.3-.2.5-.3Z"/>
    <path d="M37.7,231.2c0,.4-.1.9-.2,1.2,0,.1-.2.2-.4.3,0-.1,0-.3-.1-.4-.1-.4.3-1-.4-1.2,0,0,0-.1,0-.2.2-.4.5-.8.7-1.2,0-.1.2-.2.4-.2,0,.1,0,.2,0,.4,0,.4,0,.8-.1,1.3Z"/>
    <path d="M33.5,216.4c-.3.1-.5.2-.7.3,0-.2,0-.5.2-.7.3-.4.9-.3,1.1,0,.3.7.5,1.5.7,2.3,0,.1-.1.3-.2.5,0-.1-.2-.2-.3-.4-.1-.5-.2-1.1-.3-1.6,0-.2-.3-.4-.5-.5Z"/>
    <path d="M29.9,152.8c-.2-.9,0-1.1.8-1.2.1,0,.3-.1.4-.1.2,0,.4.1.6.2-.2.1-.3.4-.5.4-.6,0-.5.3-.5.6,0,.2-.2.5-.2.7-.2-.2-.4-.4-.6-.6Z"/>
    <path d="M27.6,255.7c.4-.7.9-1.4,1.3-2,.1-.1.3-.2.4-.4,0,.2.1.4,0,.5-.4.8-.9,1.6-1.3,2.3,0,.1-.3.2-.4.3,0-.2,0-.4,0-.7Z"/>
    <path d="M32.2,334.3c-.7.4-1.4.6-2.1.9,0,0-.3,0-.3,0,0,0,0-.3,0-.4.2-.2.4-.4.7-.5.5-.1,1.1-.2,1.6-.3,0,0,0,.1.1.3Z"/>
    <path d="M28.7,251.8c.2-.3.3-.7.5-1,0,0,.3,0,.4,0,.1,0,.2.3.2.4-.1.4-.3.8-.5,1.2,0,.2-.3.2-.4.4,0-.2-.2-.4-.2-.6,0-.1,0-.2.1-.4Z"/>
    <path d="M33.9,162.1c-.2.3-.3.6-.4.9,0,0-.2.2-.3.2,0-.1-.2-.2-.2-.3-.2-.6.4-1.6,1-1.7.1,0,.2,0,.4,0,0,.1,0,.2-.1.3-.1.2-.2.3-.4.5Z"/>
    <path d="M33,52.2c-.1.7-.9,1.4-1.6,1.4-.2,0-.4-.1-.6-.2.2-.1.3-.3.5-.4.5-.3,1.1-.5,1.7-.8Z"/>
    <path d="M34.8,238.2c-.4-.4-.2-1.9.1-2.3,0,0,.4,0,.3.1-.1.7-.3,1.4-.5,2.1Z"/>
    <path d="M35.9,160.7c.1-.5.3-.9.4-1.3.1-.4.2-.8.4-1.1,0,0,.1-.2.2-.3,0,0,.1,0,.1.1.2.6-.4,2.2-1.1,2.5Z"/>
    <path d="M36.3,229.7c-.2,0-.4,0-.5,0,0-.3,0-.6,0-.8,0-.2.2-.4.4-.6,0-.1.1-.2.2-.4.1.2.3.3.3.5,0,.4-.2.8-.3,1.3Z"/>
    <path d="M12.8,255.5c0-.3.1-.5.3-.7.2-.2.5-.2.7-.3,0,.2,0,.5,0,.7,0,.1-.1.3-.2.4-.1.2-.2.3-.3.5-.1-.2-.3-.4-.4-.6Z"/>
    <path d="M26.6,253.4c.2-.4.4-.7.6-1.1,0,.4,0,.8,0,1.2,0,0,0,0,0,0-.2.3-.4.7-.6,1,0,0-.2-.1-.2-.1,0-.3.2-.7.3-1Z"/>
    <path d="M31,219.8c.2-.3.5-.6.8-.9.1-.1.2-.3.3-.5.1.2.4.4.3.5-.2.4-.5.8-.9,1.1,0,0-.3-.1-.5-.2Z"/>
    <path d="M25.2,151.4c-.1-.4-.2-.7-.3-1,0-.1.1-.3.2-.4.1,0,.3.2.4.3.1.3.2.7.2,1,0,0-.3.1-.5,0Z"/>
    <path d="M31.8,153.6c0-.3.2-.6.4-.9,0-.1.3-.2.4-.3,0,.2.2.5.2.5-.2.3-.6.5-.9.6Z"/>
    <path d="M32.4,164.1c0,0,.1-.1.2-.1.2-.1.4-.2.5-.4,0,.2,0,.4,0,.5,0,0,0,0,0,0,0,.3-.2.5-.3.8-.1-.3-.3-.6-.3-.9Z"/>
    <path d="M15.6,307.5c0,.2,0,.4,0,.6,0,.2-.1.4-.2.6-.1-.1-.4-.2-.4-.4,0-.2,0-.4.1-.6,0-.1.3-.2.5-.3Z"/>
    <path d="M34.2,333.4c.1.2.3.4.3.6,0,.1-.2.3-.3.3-.1,0-.3,0-.4-.2,0-.1,0-.3.1-.4,0-.1.2-.2.3-.3Z"/>
    <path d="M29.7,219.3c.1-.1.3-.2.4-.1.2,0,.4.1.5.2-.2.1-.4.3-.6.4,0,0-.2-.2-.3-.5Z"/>
    <path d="M29,219.4c-.1,0-.3.2-.4.2-.2,0-.5,0-.7.1,0,0,0-.2,0-.3.3-.1.5-.2.8-.3,0,0,.1.1.2.3Z"/>
    <path d="M26.3,216.2c-.2,0-.3,0-.5,0,.1-.3.2-.6.3-.9,0,.1.3.2.3.3,0,.1,0,.3-.1.5Z"/>
    <path d="M36.5,2.6c.1.1.4.4.3.4,0,.2-.4.4-.5.4-.5-.3,0-.5.2-.8Z"/>
    <path d="M25,256.6c-.4-.2-.4-.5,0-.8,0,0,.2,0,.3,0,0,.3-.1.5-.2.8Z"/>
    <path d="M28.5,221.2c0,.2-.2.3-.3.5,0,0-.2,0-.3-.1.2-.1.4-.2.6-.4Z"/>
    <path d="M32.3,214.5c0-.1-.1-.2-.1-.3.3.2.6.4.9.5,0,0,0,.1-.1.2,0,0-.1,0-.2,0-.1-.1-.3-.3-.4-.4Z"/>
    <path d="M13.8,230.2c-.1.1-.3.2-.4.3,0-.2,0-.4,0-.5,0-.1.2-.2.3-.2,0,.1,0,.3.1.5Z"/>
    <path d="M25.6,127.6c-.2-.2-.3-.3-.4-.4.1,0,.2-.1.3,0,.2,0,.3.1.5.2-.1.1-.2.2-.3.3Z"/>
    <path d="M11.5,250.2c-.1-.2-.2-.4-.2-.6.1,0,.3,0,.4,0,0,.2,0,.4-.1.6Z"/>
    <path d="M32.3,243.1c.1-.2.2-.3.3-.4,0,0,.2.2.2.2-.1.2-.2.4-.4.5,0-.1-.1-.2-.1-.4Z"/>
    <path d="M39.5,4.5c.1,0,.2.2.3.4-.1,0-.3,0-.4,0,0-.1,0-.2.1-.4Z"/>
    <path d="M32.8,220.2c-.1-.1-.2-.3-.2-.4.1,0,.3,0,.4,0,0,.1,0,.3-.1.4Z"/>
    <path d="M12.9,253.3c.1.1.2.3.3.5,0,0,0,0-.1.1,0-.2-.1-.4-.2-.6Z"/>
    <path d="M29.5,50.7c0,.1-.1.3-.2.4,0-.1,0-.2-.1-.3.1,0,.2,0,.4,0Z"/>
    <path d="M37.3,235.3c0-.2,0-.3,0-.5,0,0,.1,0,.1,0,0,.2,0,.3,0,.5Z"/>
  </g>
</svg>