<?xml version="1.0" encoding="UTF-8"?>
<svg id="Layer_1" xmlns="http://www.w3.org/2000/svg" version="1.1" viewBox="0 0 895.3 214.9">
  <!-- Generator: Adobe Illustrator 29.3.1, SVG Export Plug-In . SVG Version: 2.1.0 Build 151)  -->
  <g id="Shape_32">
    <path d="M63.9,88.4c-.9-1.2-.6-1.8.7-1.9,1.9-.2,2.5-1.3,2.5-3.1,0-2.9,0-5.8,0-8.6s.2-7.3,0-10.9c-.3-4-.9-8-1.6-12-.4-2.2-2-3.6-4.1-4.7-1.8-.9-3.2-.2-4.5.8-1,.8-1.7,2.1-.8,3.6.3.5-.1,1.4,0,2,.3,1.1.1,2.6,2,2.7.4,0,1.1.6,1.1,1,0,.5-.4,1-.6,1.5-.2-.2-.5-.4-.7-.5-.3-.2-.6-.3-.8-.4.1.2.4.5.4.7-.2,1.3,2.4,3.1-.7,3.8-.1,0-.1.3-.2.5.3,0,.6.2.9.3,1.6.4,2.9,1.1,2.8,3.2,0,1.1-.4,1.2-1.2.8-1.3-.6-1.7,0-1.7,1.2,0,.6,0,1.2,0,1.8.1.6.5,1.1.7,1.6,0-.4-.1-1,0-1.3.3-.6.8-1,1.3-1.5.2.6.7,1.1.7,1.7,0,.8-.3,1.5-.4,2.3,0,.5-.2,1.2,0,1.4,1.5,1.2,1.2,2.9,1.2,4.4,0,.8,0,1.7,0,2.5,0,1.4.2,2.8.3,4.2,0,.5-.2,1.1-.2,1.7-.4-.1-.9-.1-1.3-.3-2.9-1.6-5.7-3.3-8.6-4.9-.5-.3-1.2,0-1.8-.3-.6-.2-1.3-.6-1.8-1-1.9-1.3-3.7-2.6-5.5-3.9-.5-.4-1-.8-1.4-1.2.6-.6,1.2-1.6,1.8-1.6,1.3-.1,1.2-.8,1.5-1.8,1.3-4.4-.3-8.5-.8-12.7-.5-3.9-.5-7.9-.9-11.9-.4-3.5-.8-6.9-1.7-10.3-.4-1.6-1.8-2.9-2.7-4.4-.3-.5-.5-1.2-.7-1.8.7,0,1.5-.3,2.1,0,3.4,1.6,6.7,3.2,10,4.8,1,.5,2,.9,3,1.1,1.9.5,2.6,1.8,2.7,3.5.1,1.8.7,2.5,2.3,1.7,2.9-1.4,5.7-1.1,8.6-.2,2.3.7,3.4,2.4,3.8,4.7.1.7.2,1.4.5,2,.2.5.6.9,1,1.3.2-.5.5-1.1.5-1.6,0-.8-.3-1.5-.4-2.3,0-.2.2-.4.4-.5,0,0,.3.2.4.3,1.2.9,2.4,1.7,3.6,2.6.5.4,1.2.7,1.5,1.3,1.5,3.3,2.7,6.7,2.7,10.5.1,7.6.5,15.1.8,22.7.1,2.8.3,5.6.4,8.4,0,2.2,1.7,3.4,3.1,4.9.5.6.9,1.3,1.3,2-.8,0-1.8.4-2.5,0-6.3-3.2-12.5-6.5-18.9-9.9M46.9,42c-3,3-3,3.3,0,6.9.2.2,0,1.2,0,1.2-1.9,0-1.8.9-1.3,2.3.4,1.1.3,2.3.5,3.5,0,.4.5,1.2.7,1.2,2.5,0,3.2,1.4,2.9,3.7,0,.3.4.8.4.8.4-.1,1-.3,1.1-.6.2-.4,0-.9-.1-1.3-.5-2.2-1-4.5-1.5-6.7-.4-1.7-.8-3.5-1.2-5.2,0-.4-.1-.8-.2-1.2.5,0,1.1,0,1.5.3.4.3.7.8.7,1.3.1,1.1,0,2.2,1.6,1.3,0,0,.4.4.4.7-.2,1.5-.5,3.1-.8,4.6,0,.2.2.5.3.8.2,0,.4-.1.5-.2.8-2.4,1.7-4.8,1.2-7.4,0-.3-.5-.6-.9-.9-.5-.4-1-.7-1.5-1.1.4-.5.7-1.4,1.2-1.5,1.5-.3.8-1,.5-1.6-.5-1.3-1.8-2.3-1.4-3.9,0-.2-1.1-.9-1.2-.8-1.1,1.3-3.3,1.6-3.4,4M69.9,67.1c0,.4,0,.8,0,1.3.4-.1.9-.2,1.1-.4.7-.8,1.3-1.8,1.9-2.7.9-1.3,1.6-2.9,2.7-3.9.9-.8-1.1-3.4,1.8-2.7,0,0,.2-.4.2-.5-.4-1-.7-2.6-1.4-3-1.6-.8-1.4-1.9-1.4-3.1,0-.8-.3-1.5-.4-2.3-.5.7-1.1,1.4-1.5,2.1-.8,1.9.4,3.9,2.4,4.1.3,0,.5.5.7.7-.2.2-.7.6-.7.6-1.7-1.4-1.1.6-1.3,1-.3.7-.2,1.6-.5,2.2-1.1,2.1-2.3,4.2-3.6,6.5M45.9,63.8c.1.5.3,1,.4,1.5,0,.3.2.5.3.8.3-.2.7-.3.8-.5.2-1.9.4-3.8.5-5.7,0-.2-.7-.5-1-.7,0,0-.5.5-.5.8-.2,1.2-.3,2.3-.4,3.9M54.6,77.1c-1-.1-1.9-.3-2.9-.4-.3,0-.6,0-.9.1.1.3.2.8.3.8,1.3.3,2.6.7,3.9.6,1.1,0,1.1-.7-.4-1.2M58.1,80.5c.4.4.8.9,1.1,1.3.2-.3.5-.6.5-.8-.5-.9-1-1.7-1.6-2.5,0-.1-.5,0-.8,0,0,.3,0,.6,0,.8.1.3.4.7.8,1.2M57.3,75.6c-.3.2-.5.4-.8.6.3.3.5.7.8.8.4.1.9,0,1.4,0,.4,0,.7-.2,1.1-.3-.2-.4-.3-1.1-.7-1.3-.4-.2-1,0-1.8.2M51,67.7c.3-.3.7-.6,1-1-.4,0-.9-.2-1.3-.2-.4,0-.7,0-1.1,0-.3,0-.6.2-.9.2.3.2.5.4.8.6.3.2.7.3,1.5.4M46.7,71.6c.2.3.4.7.6,1,.4-.2.7-.5,1.1-.7-.5-.2-1-.3-1.6-.3M70.7,76.9c0-.3-.2-.7-.3-1-.2.1-.4.2-.5.4.2.3.4.6.8.7Z"/>
    <path d="M130.7,77.9c.5.9,1,1.6,1.6,2.3-.8.3-1.9.3-2.3.8-2,2.5-3.6,5-1.8,8.5.5.9.4,2.3,0,3.4-.2.8-1.2,1.4-2,1.9-.3.2-1,.3-1.4.2-3.1-1.2-4.5-.5-5.6,2.7-.7,2.1-1.6,4-.9,6.3.2.8-.9,2-1.5,2.9-.1.2-1.1.2-1.3,0-.2-.2-.3-1.1,0-1.3,1.9-1.4.5-3.1.5-4.6,0-.2-.6-.4-.9-.6,0,.2-.2.5-.3.7-.4,1-.7,2-1.2,3,0,.2-.4.2-.7.3,0-.2-.2-.4-.2-.5.5-1.2,1-2.4,1.5-3.7.2-.6.3-1.2.5-1.8-.3,0-.9-.2-1,0-1.7,2.3-1.4,5.2-2.4,7.8-.2.5.8,1,.7,2.1,0,2-.6,3.7-1.7,5.3-.3.4-.7.8-1.1,1.1-.3-.5-.9-1-1-1.6-.4-1.5-.6-3-.8-4.5-.2-1.2-.5-1.6-1.6-.6-1.3,1-2.5,2.3-4.6,2-1-.2-1.6,1.6-.8,2.5,2.1,2.3,4.2,4.5,7.8,4.4.5,0,1.1.6,1.6.9.2.2.3.5.5.8-.3,0-.7-.1-1,0-1.2.2-2.5.2-3.5.8-1.6.9-2.1-.3-2.9-1.1-1-1-2-2.1-2.9-3.3-1-1.2-1.9-2.3-2.7-3.6-.2-.2,0-.6,0-.9.3,0,.6.2.8.1.5-.1,1.4-.3,1.5-.5.1-1.2,2.2-1.9,1.1-3.4,0-.1-.6-.1-.8,0-.5.4-.9,1-1.5,1.4-.3.2-.9.1-1.1-.1-.8-1-.8-1-1.3,0-.3.6-.7,1.1-1.1,1.6-.6.7-1.2,1.1-1.1,2.4,0,.7-1.1,2-2,2.3-.7.2-1.8-.8-2.7-1.2.2-.2.3-.6.5-.7.1,0,.4.2.7.2.7.2,1.5.3,2.2.5,0-.7-.1-1.5-.2-2.2,0-.4-.4-1.2-.3-1.2,1.6-.8,2.5-2.2,3.3-3.7.3-.6.8-1.2,1.2-1.7.1-.2.3-.5.4-.5,1.4,0,2.8.2,4.1.4.3,0,.5.9.8,1.4.3.6.8,1.8,1,1.7.8-.2,1.9-.5,2.2-1.1.8-1.7,1.7-3.3.9-5.4-.8-2.1-.6-4.6-1.8-6.3-1.3-1.8-.8-3.8-1.5-5.6-2.7-7.2-5.4-14.5-8.2-21.7-1.1-2.9-2.6-5.6-4-8.3-.6-1.1-1.8-1.9-2.7-3-.3-.4-.2-1-.4-1.5.5,0,1.1-.3,1.5,0,5,2,10,4.1,15.1,6,1.5.6,3.2.9,4.9,1,1.4,0,2.2.6,2.8,1.7.4.8.9,1.5,1.3,2.3.8,1.5,2.7,2.7.8,4.9-.6.7-.1,2.4,0,3.6,0,.3.4.7.6,1,.2-.3.5-.6.6-.9,1.1-3.8,3.5-7.4,2.1-11.7-.3-.8,0-2.1.5-2.8,1.1-1.4,2.3.5,2.4.8.7,2.4,2.8,3.1,4.6,4.1.4.2.6.6.9,1-.5.2-1.1.5-1.6.5-.3,0-.6-.5-.9-.7-.4-.2-.8-.4-1.1-.6,0,.6-.2,1.4,0,1.7,1.7,1.5,3.5,3.1,5.5,4.1,2,1,4.2,1.8,6.1,3,.4.3.9.5,1.3.9.4.4.6.9.9,1.4-.5.2-1.1.4-1.6.6-.7.2-1.6.1-2.3.5-.4.2-.7.9-1,1.6M122.9,74.8c.3,1,.5,1.9.8,2.9,0,.2.4.4.6.6.2-.2.6-.5.6-.7-.1-1.3-.3-2.6-.6-3.8-.2-.5-.9-.8-1.4-1.2,0,.6,0,1.2,0,2.2M128.5,73c-1.9,0-1.5,1.3-1.3,2.3.1,1,.5,2,.7,2.9,0,.3.2.6.2.8.2-.3.5-.5.5-.8,0-1.7,0-3.4-.2-5.3M124.6,90.7c-.5-.3-.9-.7-1.4-1,0,0-.2.2-.2.3.5.8,1.2,1.5.5,2.5.1,0,.3,0,.4,0,.6.2,1.2.5,1.9.5.5,0,.9-.3,1.4-.4-.2-.3-.2-.7-.5-.9-.6-.3-1.2-.6-2.1-1M107.7,77.1s-.1-.1-.1-.1c-.8.3-3.2,5.5-2.9,6.3,0,.1.2.3.4.3.1,0,.4-.1.4-.3.8-2,1.6-4,2.3-6.2M115.6,76c-.3.3-.6.5-.8.9,0,0,.2.6.3.5,1-.2,2-.4,3-.6.1,0,.1-.4.2-.5-.8-.1-1.5-.3-2.3-.4,0,0-.1,0-.4.2M107.9,96c.1.1.3.3.4.4.1.3.2.7.3,1,.2-.1.5-.3.5-.4,0-.7-.2-1.3-.3-2-.3.2-.6.4-.9,1M126.2,80.9c-.5.6-1.1,1.2-1.6,1.8,0,0,.3.3.4.5.4-.6.8-1.2,1.2-2.2M108.3,67.5c-.2-.2-.4-.4-.7-.6l-.5,1c.4,0,.8,0,1.2-.4Z"/>
    <path d="M437.8,192.1c3,.1,5.8.3,8.6.4,1.4,0,2.8-.2,4.1-.4.2,0,.3-.8.5-1.3.1-.6.2-1.2.4-1.8,0,0,.4-.2.5-.1.1,0,.2.3.2.5,0,3,.8,3.5,3.8,2.9,1.7-.3,2.4-.7,2.5-2.6,0-1.3,1.5-2.4,2.4-3.6.1-.2.6,0,.9,0,0,.4,0,.8,0,1.1-.1.4-.4.8-.6,1.1.4,0,.8-.2,1.2-.2,2-.2,1.9-.2,1.1-2-.6-1.3-1.2-2.5-1.4-3.9-.1-.7.4-2.1,1.7-1,.2.2.3,1.1.2,1.2-1,.6-1.1,1.3-.2,2,1.8,1.5,1.5,3.5,1.4,5.5,0,.2-.6.7-.8.6-.9-.1-1.9-.5-2.8-.5-.8,0-1.6.3-2.4.5.6.6,1.2,1.5,2,1.7,1.4.4,2.9.4,4.3.5,3.2,0,6.4.1,9.6,0,6.6-.2,13.2-.4,19.8-.8,3.2-.2,6.5-.8,9.7-1.1,1.1-.1,2.2.4,3.3.3,5.8-.3,11.6-.8,17.4-1.2,2.9-.2,5.8-.6,8.6-.8,5.1-.3,10.2-.5,15.4-.9,4.5-.3,9-.7,13.6-1.2,1.3-.1,2.5-1,3.8-1.1,2.3-.3,4.5-.3,6.8-.4,1,0,2.3.3,2.1-1.5,0,0,.7-.3.8-.2,1.5,1.6,3.2.9,4.8.6,1.1-.1,2.2-.3,3.2-.6.4,0,.8-.4,1.2-.6-.4-.4-.8-.8-1.3-1-.4-.2-.9.1-1.4,0-.6-.2-1.1-.5-1.6-.8,0,0,.2-.3.1-.4-.5-.7-1.9-1.3-.7-2.2.6-.4,2.1-.2,2.8.3,3.2,2.3,7,3.1,10.7,3.7,2.6.4,5.4-.3,8.2-.3,2.9,0,5.8.2,8.7.4,2.7.2,5.3.6,8,.8,1.8.2,3.6.3,5.3.4.4,0,.8-.4,1.2-.6-.4-.2-.8-.5-1.2-.6-2.5-.6-5-1.1-7.4-1.9-2.2-.7-2.6-2.4-1.4-4.3,1.7-2.5,4.3-4.9,4.9-7.7.6-2.5,3.4-5.1,1.2-8.2-.3-.4-.2-1.4,0-1.6.6-.3,1.4-.5,2-.4.9,0,1.7.4,2.5.8.4.2.6.6.9.9-.3.3-.5.5-.8.8-.3.3-.6.6-.8.9.3.2.6.6.9.7,2.1.7,4.1-.1,6-1-.2-.4-.3-.8-.5-1.1-.4-.5-.9-1-1.4-1.5.8,0,1.6-.2,2.5-.1.7,0,1.3.3,1.9.5-.4-.6-.8-1.2-1.3-1.6-1.8-1.3-2.9-.7-4,2,0,.3-.3.5-.4.7-.1-.3-.4-.6-.3-.7.8-1.1-.2-1.6-.8-2.2-1-1.1-2.1-2.2-3-3.4-1.4-2-2.8-4-4-6.1-.2-.3,0-1.3.4-1.5.7-.5,1.6-.6,2.5-.9,0,.2.2.5.2.6-1.4,1.1,0,1.9.5,2.1,3.2,1.1,3.3,3.7,3.4,6.4,0,.5.9,1,1.4,1.3.3.1.8-.3,1.2-.4-.2-.4-.3-.8-.5-1.1-.2-.3-.5-.5-.6-.8-.2-.4-.2-.8-.3-1.2.4.2.9.4,1.1.8,2.1,3,6.4,3,8.8.1.5-.7,2-1.1,2.8-.9,1.3.4,2,1.8,1.4,3.1-.6,1.4.3,2,1,2.3.6.3,1.5-.2,2.3-.4.7-.2,1.5-.7,2.2-.5.5.1.8,1.1,1.1,1.6-.4,0-.9-.2-1.3,0-1.4.2-2.8.5-4.2.8-.9.2-1,.5-.8,1.6.3,1.3.2,3.3-.6,4-1.1,1-3.1,1-4.7,1.4,0,0-.4-.4-.3-.5.1-.3.4-.5.6-.7.3-.3.6-.7.9-1-.5,0-1-.3-1.4-.2-1.3.3-2.6.9-4,1.2-.4,0-.9-.3-1.4-.5.4-.2.7-.5,1.1-.7.5-.3,1.1-.6,1.6-1,0,0-.2-.6-.3-.6-.9,0-2.1-.2-2.5.2-1.2,1.2-2,2.7-2.9,4.1-.1.2-.2.5-.3.7-2.6,3.1-2.1,6.9-2.2,10.5,0,1.5-.3,3-.3,4.5,0,.5.6,1.4,1,1.5,2.2.4,4.5.7,6.8.9,5.1.3,10.2.5,15.4.9,4.7.3,9.3.8,14,1.2,3.8.4,7.6,1.3,11.3,1,2.9-.2,5.4.8,8.1,1,.3,0,.6.3.8.5,1.9,2.1,4.2,2.6,6.4,1.2,1.6-1.1,2.5.6,3.8.8,0,0,.1.3.2.5-.3,0-.7.3-.9.2-2.1-.8-3.9-.3-5.7.7-.3.1-.8,0-1.1-.2-.4-.1-.8-.5-1.1-.4-3.9,1-7.6-.3-11.4-.8-4.1-.6-8.2-.8-12.3-1.3-.6,0-1.2-.5-1.9-.8-.4-.2-.8-.4-1.3-.4-.3,0-.7.2-1,.3.3.2.6.3.9.5.2,0,.5.1.7.2-.2,0-.5.2-.7.2-5.5-.3-11.1-.5-16.6-.8-5.3-.3-10.7-.9-16-1.2-5.7-.3-11.5-.6-17.2-.8-1,0-1.9.3-2.9.4-1.3,0-2.7,0-3.1-1.6,0-.2-.1-.5-.3-.7-.4-.3-.8-.6-1.2-.9,0,.5-.4,1.1-.2,1.5,1.1,2.2-.1,2.2-1.9,2.3-2.5,0-4.9.5-7.4.7,0,0-.3-.3-.2-.5.2-.6.6-1.1.8-1.7.1-.3.2-.7.3-1.1-.5,0-1.2,0-1.3.2-.6,1.8-1.8,1.1-2.7.6-2.6-1.4-5.1-1-7.6-.2-.2,0-.4.2-.5.2-.3,0-.6,0-.9,0,.1.2.2.5.3.7.2.6.4,1.1.5,1.7-.3,0-.7.2-.9,0-.5-.4-1-.9-1.4-1.5-.2-.2-.1-.6-.2-.9-.3.2-.6.4-1,.5-.6.2-1.1.6-1.7.7-3.1.3-6.5-.2-9.3.9-2.3.8-4.4.3-6.5.5-3.1.2-6.1,1.2-9.2,1.3-1.1,0-2.5,1.4-3.7,0-.2-.3-1.2-.3-1.5,0-2.3,1.7-5.1.9-7.7,1.5-1.3.3-2.8-.4-4.2-.3-2.5,0-4.9.4-7.3.6-.3,0-.6.1-1,.2-4.7.1-9.4.3-14.1.4-7.6.2-15.2.3-22.9.4-5.5.1-11,.3-16.5.4-3.2,0-6.3-.4-9.5-.3-2.2,0-4.4.5-6.6.6-.9,0-1.9-.3-2.8-.2-1.8,0-3.6.4-5.3.4-4.7,0-9.4-.3-14.1-.4-3.8,0-7.6,0-11.3,0-.3,0-.6,0-.9-.1,0-.3,0-.6.2-.8,1.2-1.6,3-1.1,4.6-1.1,2.4,0,4.8.2,7.2.4,1.4,0,2.9.3,4.5.4M599.3,184.9c-1.6.5-3.2.9-4.7,1.5-.2,0-.3.8-.2.9,1.5,1.1,4.4,0,4.9-2.4M622.7,179.4c0,.6-.1,1.2-.2,1.8.3-.3.6-.7,1-1,.6-.5,1.3-.8,1.9-1.3.3-.3.4-.8.6-1.1-.4,0-.9-.2-1.3,0-.7.4-1.2.9-2.1,1.6M640.3,157c-.5.1-1,.2-1.4.3.4.2.8.3,1.2.5.4.2.8.5,1.2.8.3.2.7.3,1.1.4,0-.3.2-.9.1-.9-1.4-.7-.7-1.8-.8-2.8,0-.3-.5-.5-.8-.7,0,.3,0,.6-.1.9,0,.5-.2.9-.4,1.6M622.2,176.4c-.3-.7-.7-1.5-1-2.2-.4.2-.9.3-1.1.6-.2.3-.1,1,.1,1.2.6.4,1.3.7,1.9,1v-.6M626.2,164.9c-1.8.1-1.1,1.6-1.2,2.5,0,.2.5.5.7.8.2-.8.4-1.6.6-2.4,0-.2,0-.4-.1-1M624,174.1c0,.3.2.5.2.8.7-.3,1.3-.7,2-1,0,0-.2-.6-.3-.6-.6.2-1.2.4-1.9.8M620.3,178.6c-.1.3-.3.5-.4.8.5,0,.9.2,1.4.3-.2-.4-.4-.7-.9-1.1M618.5,178.4c0-.3,0-.7,0-1-.4.2-.9.5-1.3.7.3.2.7.3,1.2.3M609.5,186.6c.7,0,1.4,0,2,0,0,0,0-.4,0-.4-.7,0-1.4,0-2,.4M646,187.6l-.6.5c.3.1.5.2.8.3,0-.3.1-.5-.2-.8M640.7,162.7c0-.4,0-.8,0-1.2-.2,0-.4,0-.5,0,0,.3.2.6.5,1.1Z"/>
    <path d="M873.4,128.4c.3,1.9.5,3.7.8,5.4,0,.4.4.8.6,1.2.3-.4.8-.7,1-1.2.6-1.7,1-3.4,1.7-5,1.3-3.4,2.9-6.7,4.2-10.1.5-1.3.5-2.8.2-4.1-.1-.7-1.4-1.3-2.2-1.6-1.8-.6-2.4-1.6-1.1-2.4,3.2-2.2,6.6-4.3,10-6.3.4-.2,1.2,0,1.8.2.2,0,.3.9,0,1.1-1.8,2-2.9,4.2-3.8,6.8-.7,2.2-1.3,4.2-1.5,6.5-.2,1.7-1.5,3.2-2.2,4.8-.3.8-.4,1.7-.6,2.6-.4,2.1-.8,4.2-1,6.3,0,.8.1,1.7.5,2.5.8,1.8,1.9,3.4,2.5,5.3.3.9-.5,2-.8,3.1-.2.8-.5,1.6-.8,2.3-.2.5-.4.9-.5,1.4-.5-.3-1.1-.5-1.4-.9-1-1.2-1.9-2.5-2.9-3.7-.5-.6-1-.9-1.3.2-.3,1.3-.8,2.6-.8,3.9.1,2.3-1.5,4.1-3.7,3.7-.4,0-.9,0-1.1.2-.2.2-.2.8,0,1.1.8,1.8,1.7,3.6,2.6,5.5.1.2.3.4.4.6,0-.2.2-.5.3-.7.2-1.4.4-2.9.6-4.3,0-.2.2-.4.4-.5.1.2.4.3.4.5.4,1.4.8,2.9,1.3,4.2.5,1.3.7,2.8,2.7,2.7.6,0,1.2.9,1.8,1.4-.6.6-1.1,1.4-1.8,1.7-1.7.7-3.5,1-5.3-.2-1.4-.9-3.1-1.3-4.8-1.7-.5-.1-1.3,0-1.7.3-1.6,1.3-2.7,0-3-.9-.9-2.6-1.4-5.2-1.2-8.1.2-3-.6-6-1-9-.3-2.6-.5-5.2-.8-7.8-.5-4.5-1.1-9.1-1.6-13.6-.3-2.9-.5-5.9-.9-8.8-.4-3.1-1.1-6.1-1.6-9.1-.3-1.8-1.4-2.8-3.1-3.3-1.1-.3-1.5-1-.5-1.8,2.7-2.5,5.6-4.5,9.5-4.7,1.3,0,3-.8,3.6-.2.7.7.5,2.4.7,3.7.7,3.8,1.4,7.6,2,11.4,1,6.3,1.9,12.5,2.9,18.8,0,.3.3.6.4,1.1M881.5,138.8c0-.3.1-.6,0-.8-.2-.4-.6-.7-.9-1,0,.5-.1,1.1,0,1.6,0,.2.5.3,1,.2Z"/>
    <path d="M455,177.3c-3.6-6.8-7-13.6-10.5-20.3-1.9-3.7-3.8-7.5-6-10.9-1-1.6-3-2.5-4.5-3.8-.5-.4-1-.9-1.5-1.3.6-.2,1.1-.6,1.7-.7,2.4,0,4.9,0,7.3,0,6.4-.3,12.8-.8,19.3-1.2,1,0,1.9-.4,2.9-.3.5,0,1,.7,1.4,1.1-.4.3-.7.7-1.2.8-.8.3-1.6.3-2.4.6-2.3.8-3.3,4.3-2.3,6.5,1.5,3.1,2.8,6.2,4,9.3.4,1.1.4,2.2-.7,3.1-1.4,1.2-1.5,2.5-.4,4.1,1.2,1.6,1.6,3.9,3.8,4.7.5.2,1.3,1.3-.3,2-.9.4-1.6,1.4-2.4,2.1,1,0,2,0,2.9.3,1,.3,1.8.9,2.7,1.3.4.2.8.4,1.1.7,0-.4.1-.8.2-1.2.1-1.7-.9-3.5.4-5.2.5-.6.4-1.9,1.7-1,0,0,.7-.5.7-.5-1.3-2.6.4-4.8,1.3-6.9,1.1-2.9,3.1-5.4,4.3-8.2,1.2-2.9,2.2-5.9,2.9-9,.4-1.7-1.3-3-3.2-3.2-1,0-2.8.8-2.8-.9,0-1.8,1.8-1.4,3.1-1.5,4.8-.6,9.7-1.3,14.5-1.9.4,0,.8.1,1.2.2-.1.4-.1.9-.3,1.3-.2.4-.6.8-1,1-5.3,2.5-6.7,7.8-9,12.5-1.5,3-3,5.9-4.6,8.9-.1.3-.7.5-1,.5-.2,0-.3-.5-.5-.8-.3-.4-.5-.8-.8-1.2-.3.5-.8.9-.8,1.4,0,1.4.3,2.7.3,4.1,0,.6-.1,1.3-.4,1.8-1.5,3-2.9,6-4.5,8.9-.5,1-1.1,1.6-2.5,1.3-1.3-.3-2.6.4-3.9-1.1-1.2-1.4-5.4,1.3-5.8,3.6-.3,1.9,0,3.8,0,5.8,0,.4-.3.7-.5,1-.3-.3-.7-.5-.9-.8-1.1-2.3-2.2-4.6-3.4-7.1M462.7,169c-1.8-.5-2.2,1-2.8,2-.5.9-.9,1.9-1.3,2.9-.2.4-.4.9-.7,1.3.6-.1,1.5,0,1.7-.4,1.2-1.8,2.2-3.7,3-5.8M454.1,159.2c.1-1,.3-2,.4-3.1,0-.2-.3-.6-.6-.7-.2,0-.6.1-.8.3-.9,1-.5,3.8.6,4.7.1-.3.3-.5.4-1.2M456.6,146.2c0-.5.1-1.5,0-1.6-.6-.2-1.3,0-2,0,0,.3,0,.8,0,.8.6.3.3,2.3,2,.8M456.1,157.6c.2.5.4.9.6,1.4.4-.6.8-1.1,1-1.7,0-.3-.5-.7-.8-1.1-.2.3-.5.7-.7,1.4M457.6,149.7c.2-.3.4-.6.6-.9-.2-.1-.4-.2-.6-.3-.1.4-.3.8,0,1.2Z"/>
    <path d="M240.8,129.7c-.7-5.4-1.4-10.6-2-15.9-.4-3-.7-6-.8-9-.1-2.7-.9-4.8-3.6-5.8-.4-.1-.8-.4-1.1-.7-.3-.4-.7-1-.5-1.3.1-.3.9-.7,1.3-.6,1.9.3,3.8.7,5.6,1.2,4.5,1.2,8.9,2.5,13.4,3.6,1.3.3,1.6,1,1.7,2.2.5,4.7,1.1,9.5,1.6,14.2.4,3.6.8,7.1,1.2,10.7,0,.5.1,1.1-.1,1.3-2.8,2.3-2.2,5.8-3.1,8.7-.1.4-.4.8-.6,1.2-.2-.4-.6-.9-.6-1.3,0-.8.3-1.5.3-2.3,0-.3-.4-.6-.7-.9-.2.3-.4.5-.5.8-.2,1.3-.3,2.5-.4,3.8,0,.4-.2.8-.5,1-.9.7-.8,1.2,0,1.9.7.6.9,1-.4,1.1-1.1.1-2.3.4-3.3.8-.4.2-1.1,1-1.1,1,1,1.5-.4,2.3-.9,3.4-.6,1.3.4,2.9,2.2,3.6.3.1,1,.3,1,.5,0,2.4,1.4,1.4,2.6,1.1.6-.1,1.3.3,2,.6.2,0,.3.5.4.8-.3,0-.6.2-.9.2-.4,0-.7,0-1.1,0,.2.4.2.9.5,1.2.4.5,1.1.7,1.5,1.2.2.3-.1.9-.2,1.4-1-.8-3.1.3-3.5-1.9-.3-1.5-1.6-1.7-2.8-1.3-.8.3-1.4,1.1-2,1.8-.1.2.2.7.3,1.1.3,0,.6-.3.9-.3.5,0,1.2-.1,1.3.1.5.6.8,1.4,1.1,2.2,0,0-.3.3-.4.3-1.1-.2-2.2-.3-3.2-.6-4-1.3-8-2.6-12-3.9-2.9-1-5.9-1.9-8.8-2.9-.5-.2-.9-.4-1.3-.7-2.5-1.8-5-3.6-7.5-5.5-.2-.2-.4-.4-.5-.6.3-.2.5-.5.8-.6,1.5-.3,2.7.2,3.7,1.4.6.8,1.6,1.3,2.4,1.8.9.6,2.5.6,1.6,2.3,1,.4,2.2,1.5,2.9,1.2,1.9-.7,3.1.3,4.7.9,3.4,1.4,7,2.5,10.5,3.7.3,0,.7-.3,1.1-.4-.3-.3-.6-.6-1-.8-1.9-.8-3.9-1.4-5.8-2.2-.5-.2-1-.6-1.4-1-.2-.2,0-.6,0-1,.3,0,.6,0,.9.2,2.5.8,5.1,1.2,7.1,3,.1,0,1.1-.4,1.1-.6,0-3.6.1-7.2-.3-10.7-.6-5-1.7-9.9-2.5-15M253.9,125.8c.6,0,1.3-.2,1.9-.3,0-.2-.2-.5-.3-.5-.6,0-1.1.2-1.6.8M249.6,135.4c0-.2.2-.5.2-.7,0-.6.1-1.2.2-1.7-.3.6-.7,1.1-1,1.7,0,.2.1.5.6.7M245.1,135.8c-.3.2-.7.4-1,.7.3.3.5.6.8,1,.2-.5.3-1,.3-1.6M246.3,153.3c0,.5,0,1.1,0,1.6,0,0,.4,0,.4,0,0-.5,0-1.1-.4-1.6Z"/>
    <path d="M547.1,170c-.3,1.5.3,2.7,1.3,3,.6.2,1.8-.4,2.5-1,.9-.7,1.8-1,2.7-.4.4.3.7,1.3.5,1.6-1.4,1.8-3,3.5-4.4,5.3-1.8,2.2-4.3,3.3-6.9,3.9-.8.2-2.2-.2-2.8-.9-.8-.9.2-1.5,1-2.2.8-.7,1.5-1.8.3-2.9,0,0-.1,0-.1-.1-.4-.7-.7-1.3-1.1-2-.4,1-.9,2-1,3-.3,1.7-1.1,2.9-2.7,3.5-3.2,1.2-4,.3-5.9-3.6-.7-1.5-2.1-1.7-3.4-.6-2.3,2.1-4.7,4.2-7.3,6-1.1.8-2.6,1.2-4.1,1.5-1.4.3-2.2-.5-2.1-1.9.3-2.7-.4-4.9-2.4-6.8-.1-.1,0-.9.3-1.1.4-.3.9-.5,1.4-.4.4,0,.7.5,1,.8,0-.5.3-1.1,0-1.5-.2-.4-.9-.8-1.3-.8-.7,0-1.3.4-2,.6-.8.3-1.5.6-2.2,1-1.5.8-2.5,3.6-1.7,5.1.1.2.4.3.6.5.2-.3.5-.5.6-.8.2-.9.3-1.8.4-2.7,0-.4.4-.7.6-1,.2.3.7.8.6.9-.7,1.2,1.5,2.3,0,3.4,0,0,.2.5.3.6.2.3.7.5.7.7-.4,1.6-.3,3.1,1,4.2-.2.2-.4.6-.5.5-.7,0-1.5,0-2-.3-1.2-.9-1.2-2.2-1-3.6,0-.5-.3-1-.5-1.6-.4.2-1.1.2-1.2.5-.4,1-1.9,1.8-.8,3.2.1.2-.3.8-.4,1.2-.3-.2-.7-.4-1-.7-1-1.2-1.8-2.5-2.9-3.7-2.4-2.6-1.9-5.5-1.2-8.4.7-2.8,2.2-5.2,4.3-7.2,2-1.9,3.6-4.2,6.2-5.5,1.8-.9,2.9.3,3.6,1.2.6.7.1,2.2.1,3.3-.2,0-.6,0-.7,0-.2-.2-.3-.6-.5-.8-.6-.7-1.4-2-1.7-1.9-1.1.3-2,1.2-3,1.9-.2.1,0,.7,0,1.1.4,0,.8-.1,1.2-.3.6-.3,1.1-.7,1.6-1,0,.7-.2,1.3-.3,2,0,.9,0,1.8,0,2.6,0,.4.1.8.2,1.2-.4,0-.9,0-1.2-.3-1.9-1-2.5-.7-2.7,1.5,0,.3-.2.6-.2.9,0,.5,0,1,0,1.6.5-.4,1.1-.6,1.5-1.1.3-.3.3-.8.4-1.2.4-1.1,1.1-1.2,1.6-.2.5,1.2,1.2,1.1,2.2.7.5-.2,1.4-.3,1.5-.1,1.5,2.7,4.3.9,6.2,2,2.2,1.2,4,.8,5.6-1,1.5-1.5,2.9-2.9,2.9-5.3,0-2.9.5-5.9.7-8.8,0-.7-.4-2.1-.3-2.1.9-.4,2-.6,3-.6,1.6,0,3.3,0,4.9.5.7.2,1.4,1.1,1.7,1.9.6,1.2,1.1,2.2,2.8,2.2.6,0,1.4,1.1,1.6,1.9.4.9.2,2.1.5,3.1,0,.3.6.4.9.7.1-.3.3-.7.3-1,0-1.2,0-2.4,0-3.7,0-.3.4-.7.6-1,.2.3.6.6.6.9.2,1.2.4,2.5.4,3.7,0,.6-.2,1.8-.5,1.8-1,.1-2.1,1-3.2-.4-.8-1.1-1.8-1.8-1.3-3.5.4-1.3-.3-2-1.6-1.3-.8.4-1.3.6-1.6-.5,0-.2-.6-.3-.7-.3-.2.2-.6.7-.5.8.7.8,1.4,1.6,2.1,2.4.2.2.4.5.5.8-1.6,1.1-.2,2.1.4,2.7.5.6,1.8,1,2.6.9,3-.4,3-.5,4.1,2.5M535.7,160.9c.5-.9,1.2-1.7,1.6-2.6.1-.3-.4-1-.8-1.5,0-.1-.6-.2-.7-.1-.2.3-.6.8-.5.9,1.1,1.4-.7,1.2-1,1.7-.2.2-.7.4-.6.5.5,1.5,1.1,2.9,1.7,4.4.2.4.4.8.5,1.3-.4.1-.8.4-1.2.4-.5,0-1-.3-1.5-.2-.7,0-1.6,0-1.9.5-.5.7-.6,1.6-.9,2.4.3,0,.7.2,1,.2,1.3,0,2.7-.1,4,0,1.1,0,2.1-.2,2.2-1.3.2-1.2.2-2.5,0-3.7-.1-.7-1-1.2-1.5-1.9-.2-.3-.4-.5-.4-1M518.3,179.8c0-.8-.2-1.6,0-2.4.1-.6.8-1.2.9-1.8,0-.5-.5-1.1-.9-1.5,0-.1-.9.2-.9.3,0,2.1,0,4.2.2,6.2,0,.4.7.8,1,1.2,0-.6,0-1.2-.3-2M541.8,172.3c-.2-.5-.3-1-.6-1.3-.2-.2-.9-.4-1-.2-.3.3-.5,1-.4,1.1.6.6,1.3,1,2,1.4,0-.3.1-.5,0-1M533,174.9c.5-.3,1-.6,1.4-.9-.8-.2-1.6-.3-2.4-.5-.2,0-.5.2-.7.3.1.2.2.4.3.6.3.2.6.4,1.4.6M535.7,172.3c.6.6,1.2,1.3,1.9,1.9.1.1.4.2.6.2.2,0,.3-.3.4-.4-.9-.7-1.9-1.4-2.8-1.6M533.8,170.5c-.3,0-.7.1-1,.2.1.4.1.9.4,1.2.2.2.7.1,1.1.2,0-.5-.2-.9-.5-1.6M503,173.5l-.7-.5c-.2.7-.4,1.4-.5,2.2,0,0,.2.1.3.2.3-.5.6-1,.9-1.8Z"/>
    <path d="M804.9,186.7c-4.7-3.3-6.6-8.2-8.2-13.2-1.8-5.6-3.3-11.3-4.9-16.9-.5-1.7-1.5-2.9-3.5-2.9-.7,0-1.4-1.1-2.2-1.6.6-.6,1-1.6,1.8-1.9,4.2-1.6,8.4-3,12.6-4.6,2.3-.9,2.8-.5,3.2,1.9.7,4.8,1.6,9.6,2.6,14.4.9,4.1,1.9,8.2,3.1,12.2,1.5,5.3,4.3,10,7.6,14.3,1,1.3,2.6,2.2,4.6,2.1,1.2,0,2.3.2,3.5.5.1,0,.1,1.4,0,1.4-2.1.5-4.2,1.1-6.4,1.2-1.2,0-2.6-.6-3.7-1.2-3.3-1.8-6.6-3.8-10-5.8Z"/>
    <path d="M839.8,184.2c-3,1.7-6,3.3-9,4.8-.3.2-1.1,0-1.3-.3-.2-.3,0-1.1.2-1.3,2-1.8,1.2-3.5,0-5.4-.7-1.3-1.1-2.9-1.2-4.4-.2-2.2-1.3-3.6-3.5-4-1.7-.3-3.3-2.3-3.5-3.9-.3-2.3-.8-4.6-1.2-6.8-.3-2.2-.5-4.4-.8-6.6-.5-3.6-.9-7.2-1.7-10.7-.3-1.2-1.2-2.3-2.8-2.6-.6,0-1.3-.8-1.5-1.4-.1-.3.6-1.2,1.1-1.5,3.6-1.7,7.3-3.3,11-4.9,1.3-.6,1.8-.3,1.3,1.1-.1.4-.2.9,0,1.2,2.9,4.2,1.7,8.4.4,12.7-1,3.4-2.3,6.9-2.3,10.4,0,2.3-.5,4.2-1.3,6.2-.2.6-.3,1.3-.1,2,.2.7.6,1.4,1,2,.4-.4,1-.8,1.3-1.3,1.1-1.9,2.3-3.7,2.9-5.7.4-1.2-.3-2.8-.6-4.1-.4-1.6-.8-3.1,0-4.9.6-1.2.4-2.8.7-4.2,0-.3.2-.7.3-1,.3.3.6.6.8.9.1.2,0,.5,0,.8.1,4,.2,7.9.4,11.9,0,.8.3,1.6.6,2.4,1.2,2.8,2.5,5.5,3.8,8.2.1.2.1.6,0,.8-1.3,2.8.9,3.8,2.5,5.2.9.8,1.8,1.8,2.5,2.8.2.3,0,1-.2,1.6M833.4,179.6c-.9-1.1-1.7-2.3-2.6-3.4-.1-.2-.5-.2-.7-.2,0,.2,0,.5,0,.7-.2,1.9,1.2,2.8,2.3,3.9,0,0,.6-.4,1-1Z"/>
    <path d="M193.4,108.4c2-.8,3.8-1.7,5.7-2.3.5-.2,1.1.3,1.7.4,6.8,1.3,12.6,4.2,17.8,8.8,4.2,3.7,7.7,7.9,10.3,12.9.8,1.6,1.3,3.3,2.1,4.9.5,1.1,0,1.4-.9,1.2-2.9-.8-5.8-1.7-8.7-2.7-1.3-.4-2.3-1.3-2.1-3,0-.4-.3-.8-.5-1.2-.2.3-.5.6-.7,1-.6,1.4-1.4,1.4-2.9,1.1-4.2-.8-7.9-2.6-11.6-4.5-1.4-.7-2-1.6-1.8-3.1,0-.2.7-.5.7-.4,2.8,3.6,7.4,2.8,10.9,4.7.1,0,.3,0,.4,0,1,.2,2,.5,3,.7,0-1.1,0-2.2-.3-3.2-1.3-4.7-4.1-8.6-7.8-11.6-1-.8-2.5-1.5-4.1-.7-.6.3-1.6-.2-2.4-.2-.6,0-1.2,0-1.6.4-.3.2-.4.9-.2,1.3.2.4.6,1.5,1.2.2.1-.2.5-.3.8-.4,0,.3.2.7.2,1-.2.9-.5,1.7-.6,2.6-.3,2.1-.4,4.3-.9,6.4-.1.6-1.4.8-2.1,1.2-.2-.4-.6-1-.5-1.1,2.2-1.9-.6-1.3-.9-1.7-.7-.7-1.7-1-2.6-1.6-.2-.1-.1-.5-.2-.8.3,0,.6-.2.9,0,1.2.3,2.3.7,3.5,1,.2,0,.8-.3.8-.3-.5-2-.8-4.2-1.7-6-.2-.5-2.5-.1-3.8.3-.4.1-.5,1.5-.5,2.3,0,.4.4.9.3,1.2,0,.4-.5.8-.8,1.2-.3-.3-.6-.6-.8-1-.6-1.7-1.3-3.3-1.6-5-.3-1.9,1.5-2.4,2.7-3.4M197,110.1c.8-.1,1.6-.1,2.3-.5.5-.2.8-.8,1.1-1.3-.5-.1-1.1-.4-1.6-.3-.8.1-1.5.5-2.3.9,0,0,.1.6.4,1.1Z"/>
    <path d="M837.8,139.2c-1.2-1.5-2.7-.7-4-.9-.2,0-.5.1-.8.2-.1-1.4-.3-2.8-.2-4.1,0-.2,1.4-.5,2.1-.4.8.1,1.6.7,2.4,1.1,0-1.1.2-2.1.2-3.2,0-4.6,0-4.6,4.5-4.2,1.5.1,1.3,0,.9,1.5-.3,1-.5,2.4,0,3.2,2.1,3.6,1.5,7.9,3.1,11.6.2.4-.2,1.2-.6,1.7-1.3,1.8-2.1,3.5-1.2,5.7.3.9.3,2,.2,3,0,.4-.6,1-.9,1-1.9,0-1.1,1.3-.9,2,.4,1.3.9,2.5,1.5,3.7.2.5.6.8,1,1.2,0-.4.2-.8.2-1.2,0-.2,0-.6,0-.6,2-.2,2.6-2,3.8-3,.8-.7,1.5-1.5,2.3-2.2.3-.3.7-.3,1.1-.5.2.4.6.9.5,1.2-1.4,5.1,1.2,9.2,3.2,13.4.4.8.9,1.5,1.3,2.3,1.3,2.7,1.3,2.8-1.5,4.2-.8.4-1.6,1-2.4,1.1-.6,0-1.3-.4-1.9-.8-.5-.3-.8-.9-1.3-1.3-.1-.1-.5,0-.7-.1,0,.2,0,.5,0,.7,0,1.2.2,2.4.2,3.6,0,.3-.6.6-.9.9-.2-.4-.7-.7-.7-1.1,0-1.2.2-2.4.3-3.5,0-.7,0-1.6-.4-2.2-1.3-1.7-2.1-3.5-1-5.5.7-1.3-.1-1.7-.8-1.9-.5-.1-1.2.5-1.7,1-.5.5-.8,1.2-1.2,1.8-.4-.8-.9-1.6-1.2-2.5-.5-2.1-.6-4.4-1.4-6.4-1-2.5-.9-5-1.1-7.5-.4-4.3-.3-8.7-2.1-12.9M855,172.3c-1.7-3.6-3.9-6.9-4.9-10.8,0-.2-.2-.4-.3-.4-.2,0-.5.1-.5.2,0,1-.1,2,0,2.9.2,1,.6,1.9,1.2,2.8,1.5,2.5,1.6,6,4.8,7.3.3.1.7.3,1,.4,0-.4,0-.9-.3-1.3-.2-.3-.6-.6-1-1.1M840.9,135c0,.6-.2,1.2-.2,1.8,0,0,.4.1.6.2,0-.5-.2-.9-.2-1.4,0-.1,0-.3-.2-.6Z"/>
    <path d="M156.5,112c1.4,2.1,2.9,4.1,4.1,6.2.2.4-.1,1.3-.5,1.7-1,1.3-2.5,2.3-3,3.7-.4,1.1.4,2.6.7,4,0,.4.3.8.2,1.2-.2.7-1.2,1.3.8,1.1,2.1-.2,4.3,1.2,6.4,1.9.3,0,.4.6.5,1-.3,0-.7.2-.9.2-1-.2-1.9-.7-2.9-.8-1.6,0-3.3.2-4.9.4,0,0-.2,1.3,0,1.5,1.8,1.5,2.7,3.3,2.2,5.6,0,.5-.4.9-.6,1.4-.4-.3-.9-.5-1.3-.8-.9-.9-1.8-1.9-2.6-2.8-.2-.2-.3-.4-.4-.5.2,0,.4-.2.7-.3.3-.2,1-.5.9-.5-.3-.6-.6-1.2-.9-1.9-.4.3-.9.5-1,.9-.9,2.2-2.2,3.1-4.7,2.4-1.1-.3-2.5.5-3.7.7-.4,0-.8,0-1.3-.1.3-.2.6-.6.9-.7,1.5-.6,3-1.4,4.6-1.6,1.2-.1,1.7-.7,2.1-1.6,1-2.1,2.3-4.1,3-6.3.3-1.1-.5-2.5-.9-3.7-1.1-3-2.4-6-3.3-9-1.6-5.2-3.3-10.4-4.4-15.7-.6-2.8,0-6,.4-8.9.3-2.5,1-5,1.5-7.5.1-.5.3-.9.5-1.4.4.4.7.8,1.1,1.2.2.2.6.4.9.5.3,0,.8-.2,1,0,.3.2.4.7.4,1.1.1.9-.2,1.9.2,2.5.7,1.2.2,2.3-.6,2.7-1.9.8-1.7,2.3-1.3,3.7.4,1.8.6,3.2-.2,5-1,2.4-.5,4.9,1.2,7,.9,1.1.8,2-.2,3-.4.4-.8,1.1-.9,1.7-.1.6.1,1.2.2,1.9.3-.4.6-.9,1-1.2.1-.1.7.2,1,.4.3.3.4.8.7,1.2.3-.5.9-1.3.7-1.6-.9-1.7.4-2.8,1-4,.6-1.2.5-4.8-.3-5.8-.2-.3-.2-.7-.3-1,.5,0,1-.3,1.4-.2.8.2,1.5.5,2.3.8.3,0,.5.2.8.3-.2.3-.4.8-.7.9-2,.2-1.5,1.4-1.1,2.6.1.4.3.8.4,1.2.3.9.7,1.8,1,2.6.5-.7,1-1.5,1.5-2.2.2-.2.4-.4.6-.5,0,.2.3.5.2.7-.8,1.7-.4,3.2.4,4.8.2.3,0,.9-.1,1.3-.5-.2-1-.2-1.4-.5-.6-.6-1-1.4-1.6-1.9-.5-.4-1.4-.4-2.1-.6,0,.6-.1,1.1,0,1.7,0,.4.3.8.5,1.4Z"/>
    <path d="M335.5,138.9c-1.2-3.1-3-5.2-6.6-4.8-.4,0-.9-.5-1.2-.9-.2-.3-.3-.7-.5-1.1-.4.4-.9.6-1.1,1.1-.2.5,0,1.1,0,1.6,0,.5-.4.9-.6,1.4-.3-.4-.9-.8-1-1.2-.1-1.2-.5-2.7,0-3.6.5-.8,2.1-1.4,3.1-1.2,2.7.3,5.3,1,7.9,1.6,1.2.3,2.3.6,3.3,1.3.5.3.6,1.2.9,1.9-.5,0-1-.1-1.6-.2-.2,0-.7,0-.7,0,0,.3-.2.7,0,1,.3,1.1.6,2.2.9,3.3.1.3.4.6.6.9.3-.2.7-.4.9-.7.4-.8.7-1.6.8-2.5.1-1.2.5-1.7,1.6-.9,3,2.3,5.6,5,7.1,8.5.7,1.7,0,3.3-1.5,4.6-.4.3-.8.6-1,1-.3.6-.4,1.2-.6,1.8.6,0,1.3,0,1.8-.2,1-.6,1.7-.6,2.4.4.4.5.5,1.9,1.8,1.1,0,.2.3.3.3.5-.2,1.3,0,3-.7,3.9-.5.6-2.2.6-3.4.5-5.7-.7-11.3-1.6-16.9-2.4-1.1-.2-2-1.7-1.4-2.6,0,0,.7,0,.8.2.8,1.3,1.6.9,2.6.1.6-.5,1.6-1.1,2.2-.9,1.7.4,1.8-.3,1.8-1.6,0-2.2.5-4.4.3-6.6,0-1.3-1-2.5-1.6-3.8-.2-.4-.4-.8-.7-1.3M347.9,146c0-.5-.2-1.1-.2-1.6-.3.1-.5.2-.8.3.3.5.5,1,1,1.3Z"/>
    <path d="M756.2,163.2c.4,2,.7,3.9.9,5.9,0,.9,0,1.8-1.5,1-1.4-.7-3-1-4.5-1.4-1.4-.3-2.9-.3-4.2-.8-.8-.3-1.7-1.2-1.9-2.1-1-3-1.7-6.1-2.6-9.1-.1-.4-.8-.9-.7-1.1.9-2.6-1-4.7-1.3-7.1,0-.4-.4-.8-.6-1.3-.2.4-.5.8-.5,1.2-.1,1.5-1,1.2-2,1.1-.9,0-1.8,0-2.8,0-.5,0-1.3-.1-1.3-.2,0-.9-.2-2.4.2-2.5,3-1,6.1-1.7,9.1-2.5.3,0,.7,0,1.1,0-.2.4-.2,1.1-.6,1.2-1.9.9-1.5,2.1-.5,3.4.2.2.3.4.5.6.1-.3.4-.7.3-.8-.7-1.1-.4-1.2.8-1.3.8,0,2.3-.5,2.3-.9.1-1.1,1-2.7-.7-3.5-.1,0-.2-.3-.3-.4,1.2-.7,2.3-1.5,3.5-2,.4-.2,1.5.5,1.7,1,.8,2.4,1.3,4.9,2.1,7.3.9,2.8,2.1,5.5,2.9,8.4.4,1.3.2,2.8.3,4.2,0,.5.1,1,.3,1.6M753.1,158.4c-.3-1-.6-1.9-.8-2.9-.4-1.7-.6-3.5-2.2-4.5-.4-.3-1.4-.3-1.6,0-1.6,1.8-2.8,4-2.2,6.3.3,1.1,1.8,2,2.9,2.9.3.2.9,0,1.3,0,0-.3-.2-.7-.2-1-.3-1.8-.6-3.6-.8-5.4,0-.5.3-1.1.4-1.6.3.4.9.7,1,1.2.3,1.3.4,2.6.6,3.8.2,1.1.5,2.1.8,3.1.1.3.5.5.8.7.1-.3.3-.7.3-1,0-.4-.2-.8-.4-1.7M745.7,164.1c.7,0,2.1-.7,1.3,1.2,0,.2.3.7.5,1.1.3-.5,1.1-1.3.9-1.6-.5-.8-1.3-1.4-1.9-2.1-.4.4-.7.8-.9,1.4M750,167.6c-.1-.5-.3-1.1-.4-1.6,0,0-.3,0-.5.1.2.5.4,1,1,1.5Z"/>
    <path d="M783.1,164.4c1.4,4.2,2.6,8.3,3.8,12.4.1.4.2.8.2,1.2-.4-.1-.8-.2-1.2-.3-3.1-.8-6.1-1.8-9.2-2.5-2.2-.5-3-2.3-3.8-4.1-.9-2.1-1.9-4.2-2.9-6.4-.7-1.4-1.7-2.2-3.4-2.2-.5,0-1-.4-1.5-.6.2-.5.3-1.1.6-1.3.9-.7,1.9-1.3,2.9-1.7,3.1-1.4,6.2-2.7,9.3-4.1,1.5-.7,2.2-.2,2.6,1.2.8,2.7,1.5,5.5,2.3,8.3Z"/>
    <path d="M261.2,160.3c-1.7,0-2.8,2.1-2,3.4,0,.1.7,0,1-.2.3-.1.5-.5.7-.7,0,.4.3.8.2,1.1-.1.4-.6,1-.8.9-1.5-.2-3.2,0-3.8-2.2-.7-2.4-1.1-4.6-1.2-7.1-.1-3-1.1-5.9-1.6-8.9,0-.4-.2-1,0-1.4.8-1.7,1.6-3.4,2.6-5,.4-.6,1.2-.9,1.8-1.4,0,.7.2,1.5.2,2.2,0,1-.3,2.1-.3,3.1,0,.1.7.5.8.5.8-.4,1.6-.9,2.3-1.4,2.7-2,5.3-3.9,8-5.9.3-.2.7-.2,1.1-.4-.2.3-.3.7-.6,1-.8.8-1.7,1.6-2.4,2.5-.3.3-.2.8-.3,1.3,0,.1.2.3.3.4.3-.3.5-.7.8-.9.5-.4,1-.9,1.5-1.1.3-.2.8,0,1.3,0-.3.2-.6.5-.9.7-2.9,2.2-3,7.1,0,8.9.3.2,1,0,1.5-.2.4-.2.6-.6.9-.9.1.5.4.9.4,1.4,0,1.4-.3,2.9-.4,4.3,0,.5.3,1.1.5,1.6.8,2.1,1.6,4.1,2.3,6.2.1.3-.2.8-.3,1.2-.4-.2-1-.2-1.2-.5-3.2-4.4-6.4-8.8-9.5-13.2-.9-1.3-2.1-1.7-3.5-1.3-.6.2-1.4,1.3-1.3,1.8.8,2.5.2,4.8-.7,7.2-.2.4,0,1,0,1.5.3-.2.5-.6.9-.7.3-.1,1-.3,1.1-.1.6.9,1,1.8,1.6,2.8-.2,0-.4-.2-.8-.2M265.7,143.3h-1.4c.2.5.3.8.5,1.1.1.3.3.5.5.8.2.3.4.5.6.7.2-.3.6-.6.6-.9,0-.5-.4-1-.8-1.7M255.9,147c.3.5.6,1,.9,1.4.1-.5.2-1.1.3-1.6,0,0,0-.1,0-.2-.2-.5-.4-.9-.5-1.4-.2.4-.5.9-.7,1.8Z"/>
    <path d="M312.6,143.5c0,.6,0,1,0,1.4,0,.4,0,.8,0,1.3.4,0,.8-.2,1.2-.3,0,0,.1,0,.2,0,.7-.1,1.4-.2,2.1-.3,0,0,.2.5.2.5-.6.4-1.4,1.1-2,1-2.5-.4-3.5,1.5-4,3-.7,1.9.7,3.5,2.1,4.7.2.2.6.3.7.2.2-.2.3-.5.3-.8,0-1.3,0-2.5.1-3.8,0-.3.4-.8.7-.8.3,0,.8.3.9.6.6,2.1,1.2,4.1,1.6,6.3,0,.3-.7,1-1.1,1.2-.7.2-1.5,0-2.2,0-.4,0-.8.4-1,.7,0,.1.2.6.4.9.2.3.4.6.5.9-.4,0-.9.3-1.2.2-.6-.1-1.2-.7-1.7-.7-2.3.1-2.5.6-1.7,2.9.3.9.6,1.8.8,2.7,0,.3-.1.6-.2.9-.3-.1-.6-.2-.8-.5-1.9-2-2.5-4.5-3.1-7.1-1-3.9-.7-7.9-.2-11.7.4-2.7,1.7-5.4,3.2-7.8,1-1.7,2.9-2.8,4.4-4.1.5-.4,1.3-.4,1.9-.5-.2.8-.3,1.6-.6,2.3-.1.3-.8.4-1.1.8-.2.3-.3.9-.3,1.3,0,.2.6.4.9.4.7,0,1.4,0,2,0,1.7,0,2.4-.4,1.7-2.2-.1-.4.8-1.7,1.3-1.8.9,0,1.9.5,2.9.8-.3.2-.6.6-.9.7-1,.1-1.7,0-1.1,1.5.2.5-1.2,1.6-1.9,2.3-.4.4-.8.7-1.3,1.1.5.4.9.8,1.4,1.2.4.4.9.8,1.3,1.1-.6,0-1.1.1-1.7,0-.6,0-1.2-.3-1.9-.4-1.4-.2-1.6-.7-.6-1.7.3-.3.4-1,.4-1.1-.7-.4-1.4-.7-2.1-.8-.1,0-.5.6-.6.9,0,.7,0,1.4,0,2.3M309.3,145.8c0,.5,0,1,0,1.5,0,0,.3.2.4.2.7-.5,1.4-1.1,2.1-1.6-.7,0-1.5-.2-2.4,0Z"/>
    <path d="M751,182.7c-.3-1.4-.6-2.3-1.9-.8-.3.4-.8.5-1.3.8-.2-.4-.6-.9-.5-1.2.3-.6.7-1.4,1.2-1.6,1.9-.7,2.1-1.1,1.2-3-.2-.5-.3-1.1-.4-1.7,0-.3-.2-.7-.3-1,.3.1.7.2,1,.3.2,0,.7,0,.7,0,0-.4.1-.8,0-1.2,0-.7-.1-1.4-.2-2.1,1.2,0,1.8.4,2.1,1.6.2.9.7,1.5,2,1.7,2.3.4,2.6,2.7,3.3,4.5.2.5.4,1,.7,1.5.3-.5.7-1,1-1.4.3-.4.5-1.1.9-1.3.3-.1,1.1.3,1.2.7.2.4,0,1.1-.1,1.5-.3.6-.7,1.4-1.3,1.7-1.7.9-1.9,2.3-2,4.1-.3,7.2-2.3,9.3-8.6,11.5-1.3.5-2.8.4-4.1.9-.8.3-1.8,1.6-2.1,1.5-.9-.6-1.6-1.2-2.6-.2-.1.1-1-.3-1.3-.6-.4-.4-.4-1-.7-1.5-.2-.3-.6-.4-.9-.6.5-.2,1.3-.8,1.5-.6,2.7,1.8,5.2,0,7.7-.5,1.9-.5,3.9-1.2,5.7-2,2.1-1,2-1.4,1-3.4-1.1-2.4-2-4.9-2.9-7.6M755.5,188.2c.2.2.3.4.5.6.1-.3.2-.5.3-.8-.3,0-.5-.1-.8.2Z"/>
    <path d="M673.2,173.2c.3.6.4,1.1.6,1.6-.5,0-1,.1-1.5,0-1.4-.2-2.5,1.2-2.6,2.7-.1,1.7-.9,3.5.8,4.8-.5.2-1,.6-1.5.5-1.9-.5-2.7-2.4-2.2-4.4.2-.6,0-1.2,0-1.9-.6.3-1.4.5-1.7,1-1,1.8-1.9,1.6-3.2.3-.4-.5-1.1-.7-1.6-1.1-.4-.3-.6-.9-.9-1.3.4-.1.8-.3,1.2-.3,2.8.3,5.3-.4,7.5-2,.3-.2,1-.5,1-.8.4-3.3,2.3-5.8,4-8.5,1-1.6,2.1-1.2,3.4-1.3.5,0,1-.3,1.4-.4-.2-.3-.5-.6-.7-1-.6-1.4-1.1-2.8-1.6-4.2,0-.1.2-.6.4-.6.2,0,.6.1.7.3,2,2.9,4.2,5.5,7.3,7.3,1.4.8,2.7,1.6,4.1,2.5.3.2.3.7.4,1.1-.4,0-.8,0-1.1-.3-1.7-1-4.1-.6-5.4.7-.3.3-1.1.6-1.4.4-2.5-1.3-3.2.6-4.1,2.1-.3.5-.6,1.1-1.1,1.6-.2.2-.7.3-.9.2-.2-.1-.3-.6-.3-.9,0-.9,0-1.9.1-2.8-.9.7-1.8,1.3-2.8,2-.2.1-.3.4-.4.6-1.4,2.3.9,1.4,1.7,2M682.1,165.8c.1-.3.3-.6.4-.8-.6.2-1.2.4-1.8.6-.1,0-.1.4-.2.6.5,0,.9-.2,1.6-.5Z"/>
    <path d="M368,164.2c-.2,3.3-.3,6.5-.3,9.7,0,1.5.7,2.8,2.3,3.4.4.2.6.7.9,1-.5,0-.9.2-1.4.1-2.6-.6-3.9-2.2-3.9-5.1-.1-9.6-.3-19.2-.4-28.8,0-1.7-.6-2-2.1-2-1.3,0-2.7-.4-3.9-.9-.5-.2-1.1-1.7-.9-1.9.8-.7,1.8-1.1,2.7-1.6.1,0,.6.8.9,1.2.4.5.7,1,1.1,1.5.2-.6.6-1.2.5-1.8-.1-1.8.2-3.3,2-4,.5-.2,1-.2,1.5-.2,0,.5-.1.9-.2,1.4-.5,1.9-2,3.8-.3,5.9.3.4,0,1.2.3,1.7,1,2,2.1,3.9,3.2,5.8,0,.1.9-.2,1.3-.4.5-.1.9-.3,1.4-.5-.2.3-.5.6-.7,1-.4.7-1.3,1.5-1.1,2.1.5,2.7-1.8,4-2.8,5.9-.3.6-.7,1.1-.9,1.7,0,0,.6.5,1,.6.3,0,.7-.2,1,0,.2,0,.4.6.3.8-.5,1.1-1,2.2-1.7,3.3M368.1,149.9c0-.3-.2-.7-.3-1-.2.1-.4.2-.5.4.2.3.4.6.8.7Z"/>
    <path d="M508.9,139.4c.9.5,1.7.9,2.4,1.3.5.3.9.8,1.1,1.3.9,2,1.6,4.1,2.5,6.1,0,.2.4.3.5.4,0-.2.3-.5.2-.7-.2-.7-.6-1.3-.7-1.9,0-.6.3-1.2.4-1.8.4.4.8.7,1.1,1.2.6,1,1.8,2.5,1.5,2.9-1.2,1.6-2.6,3.1-4.3,4-2.9,1.5-6.1,1.9-9.3.4-3.1-1.5-3.3-5.2-1.8-8.2,1-1.9,2.5-3.6,4-5.2.3-.3,1.4,0,2.3.3M504.9,143.9c0,.9.2,1.8.3,2.7,0,0,.5.1.5.1.2-.9.4-1.8.6-2.8,0-.2-.1-.5-.2-.5-.3,0-.7.1-1.2.4M505.3,147.2c-.3,1-.5,1.9-.8,2.9.2,0,.7,0,.7,0,.1-.9.2-1.8.1-2.9Z"/>
    <path d="M772.9,199c1.4.4,2.8,1.3,3.9,1.1,2.1-.3,4.1-.5,6.2-.4,5,.2,10,.1,15.1,0,4.5,0,9-.4,13.5-.3,2.7,0,5.5.5,8.2.8.4,0,.8.6,1.2.9-.4,0-.8-.1-1.1,0-1.3.1-2.5.3-3.8.4-2.1,0-4.3,0-6.4,0-4.3,0-8.6-.2-12.9,0-3.7.2-7.3,1-11,1.5-2.2.3-4.4.7-6.6.8-3.9.2-7.8.3-11.6.4-.6,0-1.2,0-1.7-.3-.3-.1-.5-.6-.7-.9.3,0,.7-.2.9,0,1.5.3,2.6,0,3.5-1.3.1-.2.2-.7,0-.8-2-1.7.3-1.6.9-1.8.6-.3,1.5,0,2.3,0Z"/>
    <path d="M578.1,176.6c.9,1.6.6,2.6-1.2,2.4-2.3-.2-4.7-.6-7-1-1.5-.3-2.8-.4-3.3,1.6-.2.6-1.4,1.6-1.7,1.4-.8-.4-1.7-1.1-1.9-1.9-.7-2.6-1-5.3-1.6-7.9-.1-.6-.7-1-1.1-1.5,0,.6-.2,1.2-.2,1.8,0,1.1.3,2.6-1,2.9-.7.2-1.8-.6-2.4-1.2-.3-.3,0-1.2,0-1.9.3.3.7.6,1,.9.2.2.5.4.7.7,0-.3.2-.6.2-.9,0-.7-.2-1.4-.4-2.1-.3-.9-1.8-1-2.5-.2-.3.3-.8.4-1.2.6,0-.4-.1-.9,0-1.3.5-1.5,1.7-2,3.1-1.8,4.2.5,8.2,2,11.5,4.7,1,.8,1.2,2.6,1.8,3.9.2.5.5,1,.9,1.4.2.2.6.2.9,0,.1,0,.2-.5.2-.7-.1-2.6,1.1-3.4,3.4-2.1.7.4,1.2,1.2,1.9,2Z"/>
    <path d="M209,164.3c.3-1.1.6-2,.8-2.9.5-2.5-1.2-4.7-1.2-7.1,0-.4-.4-.7-.3-1.1,0-.5.3-1,.4-1.4.4.4,1,.6,1.1,1.1,1.8,5.1,3.6,10.2,5.3,15.3.1.3.3.8.4.8,1.8,0,1.7,1.4,1.6,2.5-.2,2.1,1.7,3.2,2,5.1.4,2.2.8,4.5,1.2,6.7,0,.4-.2.8-.4,1.2-.4-.2-.9-.2-1.3-.5-.3-.2-.4-.6-.6-1-1.1-2.1-2.3-4.1-3.3-6.2-.3-.5.1-1.4,0-2,0-.8-.3-1.6-.5-2.4-.6.3-1.2.6-1.8,1-.4.2-.8.4-1.1.6,0-.6-.4-1.3-.2-1.6,2.1-2.6-.3-5.1,0-7.7,0-.1-.3-.4-.5-.4-.3,0-.6.2-.7.4-.2.5-.2,1.2-.5,1.6-.4.6-1,1.2-1.6,1.6-.5.3-1.1.2-1.7.4-.3,0-.7.3-1,.4,0-.4,0-.9.3-1.2.5-.5,1.3-.7,1.8-1.2.6-.5,1-1.2,1.4-2Z"/>
    <path d="M21.4,35.5c-.3-3.1-.5-6.1-.8-9-.5-3.7-1.2-7.3-3.1-10.7-.7-1.3-.2-3.2-.2-4.9,0,0,.4-.3.5-.2.2.2.3.4.3.6,1.1,2.7,2.1,5.4,3.3,8,.7,1.6,1.9,3,2.7,4.6.6,1.2.6,2.3-.2,3.8-1.4,2.5-1.8,5.3-.6,8.3,1.2,3,3,6,2.4,9.3-.2,1.5-1.7,2.8-2.5,4.2-.3-.5-.9-.9-1-1.4-.2-1.8-.3-3.7-.4-5.5-.1-2.2-.3-4.5-.4-7Z"/>
    <path d="M282.8,129.3c-.1-1-.2-1.9-.4-2.7-.3-1.2-3.5-2.7-4.4-2-.6.5-.8,1.4-1.4,2.1-.2.3-1,.4-1.1.4-1-2-3.3-1.3-4.7-2.3-.5-.3-.7-.9-1-1.3.5-.2,1.1-.4,1.6-.4,2.4,0,4.9.1,7.3.2.4,0,.8,0,1.2.1,3.9,2.1,8.3,2.2,12.5,2.7,1.2.1,2.4.5,3.5.8.3,0,.7.5.7.8,0,.3-.4.7-.7.8-1.1.2-2.2.5-3.3.4-3.1-.2-5.6,1.3-8,2.9-1.7,1.2-3.2,2.7-4.9,4-.4.3-1.1.4-1.6.4-.2,0-.6-.6-.6-.7.4-.4.7-.8,1.2-1.1,1.2-.7,1.8-2,3.6-2.1.9,0,1.1-1.7.5-3M275.5,124.6c0,.3-.2.7-.2,1l1.5-.7c-.3-.2-.7-.3-1.2-.3Z"/>
    <path d="M206.6,142.7c.3-1.2.5-2.2.9-3.1,0-.1.7-.2,1-.1.8.2,1.5.6,2.3.7.3,0,1-.5,1.1-.8,0-.4-.4-1.1-.7-1.1-1.8-.3-.7-.5-.1-1.1.5-.5.6-1.5.9-2.2.1-.3.2-.5.3-.8.3.2.8.4.9.7,1.1,2.9-.6,6.2-3.6,7.1-.3,0-.5.3-.8.5.2.2.4.7.6.7,1.4,0,2.8,0,4.3-.2.1,0,.3-.5.3-.8,0-.2,0-.7,0-.7,1.6-.5,3.2-1.1,4.9-1.5.4,0,.8.4,1.3.7-.4.2-.8.3-1.2.5-.5.2-1.1.5-1.6.8.3.4.6.9,1,1.2,1.3,1,.3,1.9-.4,2-2,.4-4.1.3-6.2.5-.5,0-1.1.1-1.6.2.5.8.9,1.7,1.5,2.2.8.7,2,.8,2.8,1.5,1,.7.4,1.4-.5,1.4-1.7,0-3.4-.3-4.4-2-1-1.9-1.9-4-2.9-6.1Z"/>
    <path d="M73.6,95.4c.6.4,1,1,1.5,1.3,1,.5,1.4.9,0,1.5-.1,0-.2.2-.3.3,2.3,1.1-.4,2.2,0,3.4.4,1.3.2,2.8.4,4.1.4,2.6,2.5,3.8,4.3,5.3,1.1.9,2.7,1.4,4,2.1.4.2.7.7,1,1.1-.4,0-.8-.1-1.2-.2-2.6-.6-4.7-2.1-6.8-3.8-1.5-1.2-3.4-1.9-5.1-2.8-.6-.3-1.3-.3-1.8-.6-.9-.6-2.2-1.3-2.3-2.1-.1-.9.8-2,1.3-3,.1-.3.2-.6.4-.8.5-.5,1-1,1.5-1.5,0,.8,0,1.6-.2,2.4-.2.6-.7,1.1-.9,1.7-.2.4-.2.9-.3,1.4.6.1,1.3.4,1.8.3,1-.2,1.9-1.7,3,0,.2-.2.6-.4.5-.6-.8-2.1-1.6-4.1-2.4-6.2-.3-.9-.5-1.3-1.3-.4-.2.2-.7,0-1.1,0,.1-.3.2-.8.4-1,1.1-.6,1.1-3.4,3.6-1.8Z"/>
    <path d="M753.1,199.4c-.6-.4-1.1-.8-1.5-1.2.5-.2,1.1-.5,1.6-.5,3,.2,6.1,1.1,9,.6,4-.6,8-2,10.3-6,.5-.8,1.2-1.6,1.9-2.3.7-.8,1.8-1.5.8-2.9-.1-.2.4-1.1.8-1.3.3-.2,1-.2,1.4,0,.9.4,0,.8,0,1.3-.1,1.1,0,2.2.2,3.3,0,1.1.6,2.4-1.4,2.4-.5,0-1.1.5-1.4,1-1.9,2.9-4.6,4.3-7.9,5.1-.4,0-.7.3-1,.5-1.5.8-3,1.3-4.9.8-1.7-.4-3.6-.3-5.4-.5-.8,0-1.5-.3-2.5-.4Z"/>
    <path d="M33.2,51.8c0,2.3.3,4.5,0,6.6-.3,1.6-1.5,3-2.2,4.5-.6,1.2-1.2.4-1.6-.2-1.1-1.8-2.2-3.7-3.1-5.6-.2-.4,0-1.3.4-1.6.3-.3,1.1-.3,1.6-.4,0,.4,0,.9.2,1.2.6,1,1.3,2.6,2.1,2.7,1.1.1,1.3-1.4,1.1-2.5-.2-1-.4-2-.6-3-.6-2.7-1.2-5.3-1.8-8,0-.2.2-.4.3-.7.3-1.3.6-2.6.9-3.9.1-.4.3-.8.5-1.2.4.3.8.6,1.1,1,.1.1,0,.4,0,.6-.6,3.2.4,6.1,1.2,9.1.1.4,0,.8,0,1.4Z"/>
    <path d="M130.8,136.5c-2.5-1.5-4.9-3-7.3-4.4-1.1-.6-2.2-1.1-3.4-1.6-7.2-3-14.5-6-21.7-9-.5-.2-.9-.5-1.3-.8-.1-.1-.1-.4-.2-.7.2,0,.5,0,.7,0,2.3.9,4.6,1.8,6.8,2.7,4.4,1.8,8.7,3.6,13.1,5.3,1.3.5,2.8.8,4.2,1.1,3.2.6,4.6,4,7.4,5.1,2.3.9,4.5,1.9,6.8,2.9.8.3,1.4.9,2.1,1.3-.8,0-1.6,0-2.3-.2-1.6-.5-3.2-1.1-4.9-1.7Z"/>
    <path d="M773.1,199c0-.4.2-1.1.5-1.1,3.3-.7,4.6-3.7,7-5.5,1.2-.9,0-1.5-.3-2.3-.1-.4-.1-.9-.2-1.3.5,0,1.1-.2,1.5,0,3.7,2.1,7.3,4.3,10.9,6.5.2.1.4.5.3.8,0,.2-.4.4-.7.4-2.5-.2-5,0-7-2.1-1.2-1.3-2.6-.7-3.8,0-.7.4-1.5,1-1.7,1.7-.9,2.9-3.2,2.9-5.5,2.8-.3,0-.7,0-1.1,0Z"/>
    <path d="M93.5,90.6c1.9.2,3.6.2,5.4.3,1,0,1.9.4,1.3,1.8-.2.4.6,1.2.9,1.8.1.2,0,.5,0,.8-.2-1.1-2.3-.5-1.9-2.1,0-.1-.5-.6-.6-.5-2.8.8-5.7,1.8-8.4-.2-.2-.1-.5-.3-.7-.3-.5,0-1,0-1.5,0,.3.3.6.7.9,1,0,0,.1,0,.1.1.5.6.9,1.1,1.4,1.7-.8,0-1.5.2-2.3.3-.7.1-1.3.3-2,.3-.8.1-1.4.2-1.1-1.1.2-.7-.5-1.5-.7-2.3-.1-.4-.1-1.2,0-1.2,2.1-.7,4.2-1.4,6.4-1.8.8-.1,1.8.7,2.8,1.2Z"/>
    <path d="M142.1,68.1c.3-.9.7-1.9,1-2.8.4.6.8,1.3,1.1,1.9,1.7,3.4,3.3,6.8,3.2,10.7,0,.7.4,1.4.3,2.1,0,.4-.6.8-1,1.2-.2-.3-.5-.6-.6-.9-.3-.7-.5-1.4-.8-2.1-.2-.5-.5-1-.7-1.5-.1-.5,0-1-.1-1.5-.3.7-.6,1.3-.8,2-.1.3-.2.6-.3.9-.2-.2-.4-.5-.7-.7-.7-.7-1.4-1.3-1.9-2-.4-.4-.8-1.1-.7-1.5.5-1.9,1.2-3.7,1.9-5.5.4,1.7.6,3.3.9,4.8,0,.3.2.5.3.8.2-.2.4-.4.4-.7,0-1.5,0-3,0-4.5,0-1.2-.8-1.2-1.6-.6Z"/>
    <path d="M19.4,7.7c.1-2.3.2-4.4.4-6.5,0-.4.5-1.2.7-1.2.5,0,1.1.4,1.5.8,1.9,2.3,2.3,5,1.8,8-.3,1.7-.3,3.4-.4,5.1,0,.5,0,1-.1,1.4-.5-.3-1.2-.4-1.4-.8-.8-1.9-1.5-3.8-2.2-5.8-.1-.3-.3-.6-.4-1.1Z"/>
    <path d="M718,193.3c3.4.6,6.5,1.2,9.7,1.7,1.2.2,2.5.2,3.7.4.5,0,.9.6,1.3.9-.4,0-.9,0-1.3,0-1.8-.2-3.7-.5-5.5-.5-4.7,0-9.5-.5-14-1.8-2.8-.8-5.5-1.7-8.3-1.4-2,.2-3.7-.2-5.4-.9-.6-.3-1.3-.5-1.9-.8-.2-.1-.4-.4-.6-.7.4-.1.9-.5,1.1-.3,2.5,1.6,5.2,1.5,8,1.5,2,0,4,.8,6,1.1,1.8.3,3.7.3,5.5.5.5,0,1,.3,1.7.4Z"/>
    <path d="M153.4,144.9c4.6,1.8,9.2,3.4,13.7,5.1,1,.4,1.9,1.1,2.9,1.2.7.1,1.6-.4,2.3-.6.4-.1.8-.2,1.1-.3,0,.5.3,1,.2,1.4-.3.7-.7,1.4-1.1,1.9-.2.2-.9.3-1.2.1-2.6-1.4-5-3.1-7.6-4.2-2.4-1.1-5.1-1.4-7.6-2.3-5.3-2-10.6-3.9-15.5-6.9-1.1-.7-1.2-1.2-.7-2.1,0-.1.7,0,.9,0,.8.7,1.3,1.8,2.2,2.3,3.1,1.5,6.3,2.8,9.5,4.2.2,0,.5,0,.9.1Z"/>
    <path d="M187.7,150.4c-.5,1.1-1.6,2.3.6,2.6.1,0,.2.3.3.4-.2.1-.4.4-.5.4-.8,0-1.6-.3-2.5-.4-.2,0-.6.3-.7.6,0,.5.1,1.1,0,1.6-.2.6-.6,1.2-.9,1.8,0-.5-.2-1.1-.2-1.6-.1-1-.2-1.9-.3-2.9,0-.3,0-.7.3-.8,1-.8,2-1.6,3.1-2.3,1.5-.9,1.6-2.6.1-4.4-.2-.3-.5-.9-.5-1,.5-.3,1-.7,1.5-.7.3,0,.6.7.9,1.2.2.3.3.7.5.8,1,.5,2.1.7,3.1,1.3.5.3,1,1,.9,1.5-.3,1.9-1.7,3.6-.8,5.7.2.4-.7,1.3-1.1,1.9,0,0-.5,0-.5,0-.1-.7-.3-1.3-.3-2,0-.7,0-1.4,0-2,0-1.1.3-2.1.4-3.2,0-.3,0-.6,0-.9-.3,0-.7,0-.8,0-.8.8-1.6,1.6-2.5,2.5Z"/>
    <path d="M92.4,87.3c-2.3-.2-2.6-1.6-2.4-3.3.1-1.8,1.4-1.6,2.6-1.6,1.2,0,2.4,0,3.7,0,.5,0,1,.5,1.5.7-.3.4-.7.7-.7,1.1,0,.5,0,1.2.3,1.4.7.5,1.6.8,2.3,1.3.3.2.4.6.6,1-.4.2-.8.7-1.1.6-2.1-.3-4.3-.8-6.6-1.2Z"/>
    <path d="M687.8,188.8c-.5,0-1.1,0-1.1-.2-.8-1.7-2.1-2.2-3.9-1.9-.2,0-.5-.4-.7-.6.2-.2.5-.6.7-.6,2.1.4,3.6-.6,4.8-2.1.2-.2.6-.4.8-.4,2.1,0,4.1,0,6.2,0,.6,0,1.1.4,1.7.7-.5.2-.9.3-1.4.5-1.4.6-2.9,1.2-4.3,1.9-.2.1-.4.5-.4.8,0,1.5-1,1.9-2.5,1.8Z"/>
    <path d="M374.5,183.2c-2.7.5-4.6-.5-6.2-2.6-.1-.2-.2-.4-.2-.6.2,0,.5,0,.7,0,1.6.4,3.3.7,4.9,1.1.1,0,.5-.4.5-.6-.2-1.2-.6-2.5-.8-3.7,0-.3,0-.7-.1-1,.4,0,.9-.1,1.1,0,1.3,1.2,2.6,2.5,3.9,3.8.1.1-.2,1-.5,1-1.3.4-1.3.9-.4,1.7.5.5.7,1.1,1.1,1.7-.9,0-1.8,0-2.7-.2-.3,0-.7-.4-1.1-.7Z"/>
    <path d="M177.7,151.4c-.7,1.7,0,2.6,1.8,3.2.7.2,1.2,1.2,1.8,1.8-.3.1-.6.4-.8.3-2.8-.4-4.1-2.4-4.9-4.9-1.2-3.8-1.3-3.8-5.3-3.4-.3,0-.7-.3-1-.4.2-.3.3-.6.5-.9,1.2-1.9,3.2-2.2,4.8-.7.7.7,1.2,1.6,1.9,2.4.1.2.6.3.7.3.7-.8,1.6-1.2,2.3-.2.2.3-.7,1.3-1.1,1.9-.1.2-.3.3-.5.5Z"/>
    <path d="M525.2,156.7c-1,.7-1.9,1.3-2.8,1.9-1,.7-2.1,1.3-3,2.1-.5.4-1,1.1-1.3,1.8-.4,1-.6,2.1-1,3-.1.3-.8.3-1.2.5,0-.3-.3-.6-.2-.9.4-1.4.9-2.8,1.1-4.2,0-.4-.8-1-1.2-1.5-.6-.6-1.2-1.3-1.8-1.9,1,.1,2.4-.1,2.9.4,1.8,1.9,2.9.9,4.5-.4,1.4-1.2,3.2-2.1,4.9-2.9.4-.2,1.2.5,1.9.7-.5.3-.9.5-1.4.7-.4.2-.8.3-1.4.5Z"/>
    <path d="M169.4,135.8c.1,1,.3,1.9.4,2.7,0,.3.2.7.3,1,.3-.2.6-.4.9-.7.3-.4.4-.8.7-1.3.3.6,1,1.3.9,1.8-.2,1.1-.9,2.2,1.1,2.3,0,0,.3,1.3,0,1.8-.2.4-1.1.6-1.6.5-.5-.1-1.1-.6-1.4-1.1-.2-.2.4-.9.2-1.2-.3-.5-.9-.8-1.4-1.3-.2.5-.4.9-.5,1.4,0,.3,0,.7,0,1-.1.4-.4.8-.6,1.1-.3-.3-.8-.5-.9-.8-.3-.7-.3-1.5-.4-2.3-.2-1.3.8-2.6-.4-3.8-.1-.1,0-.4,0-.6,2,.4,1.3-1.9,2.4-2.4.1,0,.4,0,.6,0,0,.5,0,1,0,1.7Z"/>
    <path d="M228.2,199.8c0,.3,0,.5,0,.6,0,.8,0,1.7,0,2.5-.4-.6-.8-1.2-1.2-1.8-1-1.6-2-3.2-3-4.9-.9-1.5-2.6-2.7-.5-4.7.5-.5.2-1.9.3-2.9,0-.4.3-.7.4-1.1.3.3.6.6.7,1,.3,1.2.4,2.5.9,3.7.5,1.5,1.4,2.9,2,4.5.3.9.3,1.9.5,3.1Z"/>
    <path d="M748.6,201c1.7.2,3.3.2,4.8.5,1.7.3,3.2.4,4.9,0,1.6-.3,3.3,0,4.9.1.2,0,.3,1.2.3,1.9,0,.1-.5.4-.7.3-1.3-.4-2.6-.9-3.9-1.3-.2,0-.4-.3-.5-.2-2.5,1.5-5.2,0-7.8.3-2.8.3-5.6.2-8.5.3-.1,0-.4-.1-.4-.3-.1-.4-.2-.8-.2-1.2.2,0,.5-.2.7,0,1.3.4,2.6.9,2.4-1.4,0-.2.7-.6.9-.5.4.1.8.5,1,.9.4,1,.7,2.1,2.1.7Z"/>
    <path d="M297.6,174.8c-3.4-.8-6.7-1.5-10-2.3-.6-.1-1-.7-1.5-1.1.7-.2,1.9-.8,2.1-.5,2.2,2.1,4.1.5,6.2,0,.6-.2,1.9-.3,2,0,.9,1.6,2.5,1.8,3.9,2.6.6.3,1,.9,1.5,1.4-.8.2-1.5.4-2.3.4-.6,0-1.2-.2-2-.5Z"/>
    <path d="M384.8,178.6c0,2.2,0,4.2,0,6.2,0,.6,0,1.7-.1,1.8-1.2.2-2.4.3-3.5.3-.2,0-.5-.5-.7-.8.3-.2.7-.5,1-.5,1.2,0,1.1-.5,1-1.5,0-1.7.3-3.4.3-5.1,0-1-.6-2.1-.7-3.1-.1-1.2,0-2.4,0-3.7,0-.3.4-.6.6-1,.2.3.5.6.6.9.6,2.1,1.1,4.1,1.6,6.4Z"/>
    <path d="M390.8,183.8c.3-1.2,1.3-2.2.2-3.3.3-.2.5-.5.8-.6.5-.2,1.1-.2,1.6-.2-.3-.5-.7-.9-1-1.4-.2-.3-.4-.6-.7-.9.5-.1,1.3-.4,1.4-.3.7,1.1,2.5,1.1,2.4,3.1,0,.9,1.1,1.9,1.6,2.9.1.3,0,.9-.3,1.2-.1.2-.8.4-.9.3-.3-.3-.4-.8-.5-1.2-.2-.6-.3-1.3-.4-1.9-.8.4-1.6.8-2.3,1.3-.4.3-.8.9-.9,1.4-.3,1.8-1.2,1.8-2.8,1.4-1.3-.3-2-.2-1.4-1.8.2-.4-.4-1-.5-1.6,0-.4,0-.8.2-1.1.1-.2.5-.3.7-.4.1.3.3.7.4,1,.3,1.2,0,3,2.4,1.9Z"/>
    <path d="M152.4,91.4c.6-.9,1-1.7,1.6-2.3.7-.9,1.1-1.7.4-2.8-.1-.2,0-.6,0-.9.3,0,.9,0,.9.1.5,1,1,2.1,1.4,3.2,0,0-.6.4-.9.4-.4,0-.7,0-1.1,0,.2.3.2.8.5,1,1.1.7.8,1.5.5,2.5-.3.8-.2,1.7-.3,2.6,0,.6.3,1.2.2,1.7,0,.3-.6.6-1,.7,0,0-.4-.4-.6-.7-.2-.3-.3-.6-.4-.9-.3.4-.7.8-.8,1.2-.1.9.3,2.2-1.4,2-.2,0-.5-.5-.5-.7,0-.4,0-.9.3-1.1,2.1-1.7,1.2-4,1.3-6.2Z"/>
    <path d="M725.2,181.6c-.2,1.6-1,2.1-2.5,2-1.7-.2-3.5-.2-5.2-.5-1.2-.2-2.4-.8-3.5-1.3-.2,0-.3-.4-.5-.6.6-.5,1.2-1.3,1.9-1.3,2.5,0,4.9.1,7.4.4.8,0,1.6.8,2.4,1.3Z"/>
    <path d="M327.8,177.7c2.3.9,4.6,1.7,6.8,2.6.2,0,.3.2.4.3-.1.2-.3.4-.4.5-1.7.4-3.4,1-5.2,1.2-1.1,0-2.2-.5-3.3-.9-.1,0-.1-.5-.2-.7.2,0,.5,0,.7,0,1,.3,1.9.6,2.9.8.3,0,.7-.5,1-.7-.3-.3-.6-.8-.9-.8-1.9-.1-3.7-.3-4.4-2.6,0-.3-.7-.4-1.1-.6,0,.4,0,.8-.1,1.2,0,.9-.2,1.8-.3,2.8-.5-.8-1-1.6-1.5-2.4-1.1-1.6-.6-2.4,1.2-2.4,1.7,0,3.5-.2,4.4,1.9Z"/>
    <path d="M653,147.7c3.9.7,7.6,1.3,11.3,2,.5,0,.9.5,1.4.8-.5.1-1,.5-1.5.4-3.5-.4-7-.7-10.5-1.2-2.6-.4-5.3-1-7.9-1.6-.5-.1-.9-.5-1.3-.8.5-.1.9-.4,1.4-.3,2.3.2,4.7.5,7.1.9Z"/>
    <path d="M135.9,132.4c-1.4,1.4-2.7.5-3.8,0-1.4-.7-2.7-1.7-4-2.7-.3-.2-.4-.7-.6-1.1.4-.2.8-.4,1.2-.5,1-.3,2.5.7,3-1.1,0,0,.4-.1.5,0,.1,0,.2.4.2.5-.3.5-.6,1-1,1.4-.3.4-.6.8-.8,1.3.6.3,1.7.9,1.8.7.9-.9,2.7-1.2,2.5-3.1,0-.5.4-1.1.6-1.7.5.4,1.2.7,1.5,1.2.3.5.4,1.2.3,1.8-.3,1.1-.8,2.2-1.3,3.4Z"/>
    <path d="M157.3,143.8c-.3-.6-.5-1-.7-1.5.4,0,.9,0,1.3,0,1.5-.3,2.8-.3,4,.8.1.1.7-.2,1-.3-.2-.2-.4-.4-.6-.5-.3-.2-.7-.2-.8-.4-.2-.8-.3-1.6-.5-2.3.4.1.9.2,1.3.4,2.2,1,2.6,2,2.3,4.4,0,.7-.9,2.7,1.5,1.8.3-.1,1.1.8,1.6,1.3-.3.1-.7.4-.9.3-1.4-.6-2.8-1.1-4-2-1.7-1.2-3.4-1.9-5.5-1.8Z"/>
    <path d="M195.2,149.6c-.1-.8-.2-1.5,0-2.1,0-.5.4-.9.5-1.4.4.4.7.8,1.1,1.3,0,.1,0,.4,0,.6.2.8.3,1.6.5,2.4.5-.5.9-1.1,1.4-1.6.2-.2.6-.4.9-.6.2.3.5.8.4,1-.8,1.5.4,2.3,1,3.3.2.3.6.6.6,1,0,.7,0,1.5-.1,2.2-1-.2-2.3-.2-2.8-.8-1.1-1.2-1.9-2.8-2.8-4.3-.2-.3-.4-.6-.7-1.1Z"/>
    <path d="M540.2,127.6c-.3.5-.6.8-.9,1.1-.4.4-1.2.9-1.1,1.1.4.7.9,1.4,1.5,2,0,0,.6-.4.9-.6.4-.3.8-.6,1.2-.9,0,.6,0,1.2-.2,1.8,0,.3-.3.6-.4.9.3,0,.7.1,1,.2.4.2,1.1.3,1.2.6.3.6.2,1.3.3,2-.6-.1-1.2-.1-1.6-.4-1.7-1.1-3.4-2.2-5.1-3.4-.8-.6-1.3-1.3-.3-2.3.5-.5.7-1.3,1.1-2,.7-1.3,1.5-1.3,2.4,0Z"/>
    <path d="M158.4,126c-.2-1.6.3-2.2,1.8-2.1.5,0,.9-.3,1.4-.5-.3-.2-.7-.5-1-.7-.2-.2-.5-.6-.4-.7.6-.6,1.3-1.1,2-1.6.1.3.2.6.3.9.8,1.8-.2,4.3,2,5.7-.2.2-.4.6-.6.7-.8,0-1.6,0-2.3,0,0-.3.2-.6.3-.9,0-.2.2-.4.3-.6-.3,0-.6,0-.8,0-.1,0-.2.2-.3.3-1.4,1.6-1.7,1.5-2.5-.5Z"/>
    <path d="M676.3,153.4c.4-.4.9-.9,1.4-.9,3.6.7,7.3,1.4,10.9,2.2.3,0,.6.1.9.3.7.3,1.3.7,2,1-.8.3-1.7,1-2.4.8-3.8-1.1-7.5-2.7-11.5-2.7-.4,0-.8-.4-1.3-.7Z"/>
    <path d="M334.6,176.2c-.4-.2-.7-.4-.9-.7-.2-.3-.2-.7-.3-1.1.4,0,.7.2,1.1.3,2.3.6,4.4,2.4,7.1,1.3.3-.1.7.2,1.1.3-.1.3-.2.9-.4.9-1.1.3-.7.7-.2,1.3.4.5.7,1.1.7,1.7,0,.5-.5,1-.8,1.5-.3-.3-.6-.7-.9-1-1.7-2-3.7-3.6-6.4-4.6Z"/>
    <path d="M138.3,78.8c-.5-.5-1-.8-1.2-1.3-.3-.7-.3-1.5-.4-2.2.7.1,1.7,0,2.2.5.9.7,1.6,1.7,2.3,2.7.5.7,1.1,1.5,1.4,2.3.2.5.2,1.2.3,1.8-.6,0-1.5,0-1.9-.3-1-1-1.8-2.2-2.7-3.5Z"/>
    <path d="M188.5,130.6c-.8-3.2-1.6-6.3-2.3-9.4,0-.4.2-.9.4-1.3.3.4.7.7.8,1.2,1,3.3,1.9,6.5,2.9,9.8.2.7.5,1.4.7,2.2,0,.3,0,.7,0,1.1-.4-.2-.8-.4-1-.7-.5-.9-.8-1.8-1.4-2.8Z"/>
    <path d="M886.8,150.9c-.3-1-.5-1.9-.8-2.7-.1-.3-.4-.6-.6-1-.2.3-.4.6-.6,1-.3.6-.5,1.3-.7,1.9-.2-.2-.5-.4-.5-.6,0-.7-.2-1.7.2-2.2,1.8-2.3,2.6-2,3.9.9.7,1.6,1.9,3.1,1.6,5,0,.3-.3.6-.4.9-.3-.2-.7-.4-.9-.7-.4-.8-.8-1.6-1.2-2.6Z"/>
    <path d="M222.5,212.5c.5.4.7.9.9,1.3-.7.1-1.4.5-1.9.3-1.2-.4-2.3-.5-3.7-.2-1.2.3-2.8-.8-4.1-1.5-.6-.3-1.1-1-1.6-1.5.8,0,1.8-.3,2.3,0,2.1,1.6,4.5.9,6.7,1.2.4,0,.8.3,1.5.4Z"/>
    <path d="M145.3,130c-.3-2-.8-3.8-1-5.7,0-.7.5-1.5.8-2.2.2.2.7.6.7.7-.6,1.3.4,2.2.5,3.3.3,1.9.4,3.9,1.1,5.8,0,.2-.3.5-.6.7-.5.4-1,.8-1.5,1.1-.2.2-.4.5-.6.5-.2,0-.5-.3-.6-.5-.1-1.3-.6-2.7,1.1-3.6Z"/>
    <path d="M179.5,172c-.8,0-1.7.2-2.3-.1-1.5-.9-2.7-2.4-4.3-2.9-2-.5-3.2-1.7-4.5-3-.3-.3-.6-.6-.6-.9-.2-.7-.2-1.5-.4-2.2.4.4.7.9,1.2,1.3,2,1.6,3.9,3.2,6,4.7,1.6,1.1,3.3,2.1,4.9,3.2Z"/>
    <path d="M183.7,185.1c.8,0,1.4.2,2,.2-.2-.4-.4-.7-.6-1.1-.2-.4-.5-.8-.8-1.2.5-.1,1-.5,1.4-.4.5,0,1.1.5,1.2.9.4,2.6-.7,3.8-3.6,3.5-1.2-.1-2.4,0-3.5,0-.5,0-.9-.5-1.4-.8.3-.4.6-1.1,1-1.2,1.4-.1,2.8,0,4.3,0Z"/>
    <path d="M869.3,81.1c.5-.1.8-.3,1-.4,0,.3,0,.7,0,.8-.4.3-1,.7-1.5.8-2.6.4-4.1,2.5-5.8,4.1-.4.4-.8,1.1-1.3,1.2-.7.2-1.5,0-2.3,0,.2-.6.2-1.4.6-1.8.6-.6,1.4-1.1,2.2-1.5,2.3-1.1,4.6-2.2,7.2-3.3Z"/>
    <path d="M423.5,183.5c1.9,0,3.4,2,2.8,3.4,0,.2-.3.5-.6.6-.1,0-.5-.2-.5-.4-.4-1.5-1.5-1.5-2.8-1.5-1.1,0-2.4,0-3.2-.5-.9-.6-1.5-1.7-2.2-2.7.2,0,.5-.1.7,0,1.7,1.1,3.6,1.5,5.8,1.2Z"/>
    <path d="M59,102.7c-.7-.6-1.4-1-1.9-1.6-.3-.2-.4-.6-.6-1,.4,0,.8-.1,1.2,0,1.7.4,3.4,1.1,5.1,1.3.6.1,1.4-.5,2.1-.8.5-.3.9-.6,1.4-.9,0,.9,0,2.3-.3,2.5-1.2.6-2.6.8-4,.9-.9,0-1.9-.2-3-.5Z"/>
    <path d="M730.6,149.2c-3-.4-5.8-.8-8.6-1.3-.3,0-.5-.5-.7-.8.3-.3.7-.8,1-.7,1.8,0,3.6.2,5.3.4,1,0,1.9.3,2.9.4.6,0,1.2-.1,1.8-.2-.3.6-.5,1.1-.9,1.7-.1.2-.4.4-.8.6Z"/>
    <path d="M280.7,151c.4.5.6,1,.9,1.4-.4,0-.8-.2-1.2-.2-1.1,0-2.2-.8-3.4.6-.9,1.1-1.8-.3-2.6-1,.3-.3.6-.7,1-.7,3-.4,3.1-.4,1.3-3.1-.3-.5-.8-.9-1-1.4-.1-.4-.1-1,.1-1.3.2-.2.8-.1,1.2-.1,0,.3,0,.7-.1,1,0,.1-.2.3-.2.3,1.3,1.6,2.5,3.1,3.9,4.8Z"/>
    <path d="M779.5,183.8c.7-.4,1.4-1.2,1.8-1.1,2.1.8,4.1,1.8,6.1,2.8.3.1.5.6.7.9-.4.1-.8.4-1.2.3-1.3-.3-2.6-.8-3.9-1.2-.7-.2-1.4-.4-2-.3-1.2.1-1.4,0-1.5-1.4Z"/>
    <path d="M131,85.7c.8,3,1,5.9.4,8.8-.3,1.5-.7,3-1.1,4.4,0,.3-.5.6-.7.8,0-.4-.2-.8-.2-1.1.2-2.2.4-4.4.6-6.5.2-2.1.3-4.2.5-6.3,0,0,.3,0,.6,0Z"/>
    <path d="M200.9,161c-.4-1-.7-2-.9-2.9,0-.3,0-.6,0-.9.3.2.7.2.8.5.2.3.2.7.4,1,.5.7.6,2.3,2,.7.6-.7,1.6-.8,2.3.5.5.8,1.4,1.4,2.1,2.1.3.2.5.5.8.7-.3.2-.6.4-1,.5-.8.3-1.6.6-2.5.9-.3,0-.7,0-1,0,0-.4-.1-.8,0-1.1.2-.4.7-.7.8-1.1,0-.4,0-.9-.3-1.3-.1-.2-.7,0-1.1,0-.8.1-1.6.3-2.6.3Z"/>
    <path d="M894.2,169.2c-2.6,0-4.9,0-7.3-.2-.7,0-1.4-.6-2.1-1,.8-.3,1.7-.9,2.5-.8,2.5.2,5,.7,7.4,1.2.2,0,.4.4.6.7-.3,0-.6,0-1.2.1Z"/>
    <path d="M176.1,136.1c-.7,0-1.3,0-1.9,0-.6,0-1.2-.1-1.6-.4-.2-.1-.2-1.1,0-1.1.5-.2,1-.2,1.5-.1,1.8.4,3.5.7,5.1-.4.3-.2,1,0,1.5,0-.2.3-.3.8-.6,1-.8.5-1.7.9-2.4,1.5-.4.4-.6,1.1-.8,1.8-.2.5-.2,1-.3,1.5-.2-.1-.6-.2-.6-.3-.1-.5-.2-1.1-.1-1.6,0-.6.3-1.1.3-1.8Z"/>
    <path d="M373,134.3c-1.6.2-3.1.3-4.5.3,0,0-.3-.7-.2-.7,1.5-1.3,3-2.5,4.6-3.7.3-.2,1,.1,1.4.3.1,0,0,.7-.1,1.1-.3.9-.7,1.8-1.1,2.7Z"/>
    <path d="M124.7,113.5c1.1.2,2.1.3,3,.7,1.8.9,3.6,1.9,5.3,2.8.2.1.4.4.6.6-.3,0-.6.1-.8,0-2.1-.9-4.2-1.9-6.4-2.6-.7-.2-1.6.5-2.4.8-.4.2-.8.5-1.1.7,0-.5-.4-1.2-.2-1.5.5-.6,1.3-1.1,2.1-1.7Z"/>
    <path d="M483.9,188.4c1.8,0,3.4,0,4.9,0,.3,0,.5.2.8.3-.2.2-.4.4-.7.4-3.1.3-6.3.6-9.4.8-.3,0-.6-.4-.9-.6.5-.3.9-.9,1.4-.9,1.2-.1,2.4,0,3.9,0Z"/>
    <path d="M170.7,130.9c-1.6-1.6-.8-3.4-.8-5,0-.4.4-1,.6-1,.4,0,.9.3,1.4.5-.2.4-.6.7-.7,1.1-.2.9-.7,2.4-.3,2.6.9.7,2.2.8,3.4,1.2,0,0,.3-.3.3-.5,0-.4,0-.9,0-1.3.4.6,1,1.1,1.2,1.8,0,.2-.5.9-.8,1-.6.2-1.3,0-2,0-.4,0-.9.1-1.3.3-.4.2-.7.5-1,.8,0-.5,0-.9-.1-1.6Z"/>
    <path d="M199.5,125.3c1.1.4,2.1.8,3.1,1.1.4.1.7.4,1.1.7-.3.2-.7.4-1,.5-.5.2-.9.4-1.4.6.4.6.7,1.3,1.1,1.9.2.4.6.7.9,1.1-.3.2-.5.6-.8.5-.5,0-1.4-.2-1.5-.5-.9-1.7-1.7-3.5-2.4-5.3,0,0,.6-.4,1-.6Z"/>
    <path d="M197.3,158.1c.4.2.8.3,1.1.4-.2.2-.4.4-.6.5-.2.1-.6.4-.6.4-3-2.3-4.8.2-6.8,1.8-.2.2-.5.1-.8.2,0-.3-.1-.7,0-.9.9-1.3,1.8-2.5,2.9-3.6.3-.3,1.3-.2,1.9,0,1,.3,2,.8,3,1.4Z"/>
    <path d="M655.1,171.2c-.4-.2-1-.4-1.1-.7-.6-3.3-1-6.6-3.3-9.2-.3-.3-.2-.9-.3-1.4.4.2,1,.3,1.1.6.9,3.1,4.9,5.1,3.3,9.1-.1.4.2,1,.3,1.5Z"/>
    <path d="M852.1,146.9c0,1.1,0,2.1-.4,2.9-.2.6-.8,1.2-1.3,1.4-.6.1-1.3-.4-1.9-.6.3-.5.5-1.3.9-1.6,1.2-.8,2-1.4.8-2.9-.3-.4-.1-1.3,0-2,0-.4.5-.7.7-1,.1.4.3.7.4,1.1.2.9.4,1.7.7,2.7Z"/>
    <path d="M433,185c1.3.6,2.5,1.2,3.7,1.8.2,0,.3.5.3.6-.2.4-.6,1-.8.9-1-.2-2.2-.4-2.8-1-1.1-1.1-2.2-1.6-3.7-1.4-.4,0-.8-.2-1.3-.3.3-.3.7-.9,1-.9,1.1,0,2.3,0,3.5.3Z"/>
    <path d="M350.6,180.5c-.2-.6-.3-1-.3-1.5.5.3,1.1.5,1.4.9,1.4,1.9,4.9,2.9,7.1,2,.2,0,.5,0,.7,0,0,.2,0,.5-.1.5-.8.5-1.6,1.2-2.5,1.3-1.2.1-2.5-.2-3.7-.4-.3,0-.7-.3-1-.6-.5-.7-1-1.5-1.6-2.3Z"/>
    <path d="M410.9,99.5c3.7-.3,7.4-.4,11.1-.4.2,0,.5.4.7.6-.2.2-.3.6-.5.6-3.8-.2-7.5-.4-11.3-.8Z"/>
    <path d="M202.8,144.3c0,.3,0,.5,0,.7.3.4.6.9.8,1.3-.6,0-1.4.3-1.9,0-.4-.2-.8-1.3-.7-1.4,2.1-2.4.6-4.5-.3-6.7,0-.1-.2-.2-.2-.3,0-.7,0-1.3.1-2,.3.5.7.9.9,1.5,1,2.2,2.1,4.4,1.1,7Z"/>
    <path d="M319.5,175.8c0,.7,0,1.2,0,1.6,0,.3-.5.8-.7.8-.3,0-.8-.4-.8-.7-.4-2.1-1.6-3.6-3.6-4.4-.4-.2-.6-.8-.9-1.2.5,0,1.2-.2,1.6,0,1.5.8,2.8,1.7,4.2,2.6.2.2.2.7.3,1.3Z"/>
    <path d="M38.9,88.5c-.4,0-.6,0-.8,0-.6-.3-1.1-.6-1.6-.9.7-.2,1.4-.5,2.1-.7.3,0,.7,0,1,0-.1-.5,0-1.1-.4-1.3-.6-.5-1.4-.9-2.1-1.3-.2-.1-.2-.4-.3-.7,0,0,.4-.3.5-.2,1.3.8,3.3,1.4,3.9,2.6,1,2,.2,2.7-2.3,2.7Z"/>
    <path d="M180.6,178.9c-1.2-1.4-2.3-2.7-3.5-3.9-1-1-2.3-1.7-3.4-2.6-.4-.3-.7-.8-.9-1.2-.1-.2,0-.6,0-.9.2,0,.6,0,.7.2,1.7,1.8,3.4,3.7,5.2,5.5,1,1,2.3,1.7,3.4,2.6.4.3.6.8.8,1.1-.5,0-1,0-1.5-.2-.2,0-.4-.4-.7-.7Z"/>
    <path d="M442,102c1.9-.4,3.7-.6,5.5-1,1.1-.3,2.1-1.1,3.2-1.5.4-.1.9,0,1.4.2-.3.3-.6.9-.9,1-1.7.4-3.2.8-4.4,2.2-.8.9-4.2.2-4.8-.9Z"/>
    <path d="M414,191.4c.3,1.1-.2,1.2-1,1.1-3.4-.3-6.8-.5-10.3-.8-.4,0-.8-.3-1.3-.5.4-.1.8-.3,1.2-.3,3.7.1,7.5.3,11.3.5Z"/>
    <path d="M513.7,118.7c-.5,0-.8,0-1,0-.5-.3-.9-.6-1.4-1,.5-.2,1-.7,1.5-.6,2.3.3,4.7.8,7,1.2.2,0,.3.3.5.4-.1.1-.2.3-.4.4-.3.2-.6.4-.8.4-1.7-.2-3.4-.5-5.3-.8Z"/>
    <path d="M32,77.5c1.3.4,2.5.8,3.6,1.2.6.3,1.3.6,1.8,1.1.3.3.4.9.5,1.4-.6,0-1.5.4-1.7,0-1.5-1.7-3.9-1.5-5.7-2.6-.2-.1-.3-.3-.5-.5.2-.1.4-.3.6-.3.4-.2.8-.3,1.5-.4Z"/>
    <path d="M339.1,90.1c.5.1.9.2,1.2.3-.3.2-.6.5-.8.5-3,0-6,0-9,0-.3,0-.5-.3-.8-.5.2-.2.4-.6.7-.7.9,0,1.8,0,2.7,0,1.7,0,3.4,0,5.1,0,.2,0,.4.3.8.4Z"/>
    <path d="M409.3,183.4c-1.4-.3-2.6-.5-3.9-.7-.4,0-.7-.4-1.1-.6.3-.2.7-.6,1-.5,2.1.2,4.4-.8,6.3.8.4.3.8.7,1.2,1-.6.3-1.3.8-1.9.9-.5,0-1-.4-1.6-.8Z"/>
    <path d="M623,143.1c2.3-.5,4.4-.3,6.3.5.4.2.7.7,1,1.1-.4.1-.9.4-1.3.4-1.6,0-3.3-.2-4.9-.4-1.4-.1-1.8-.7-1.1-1.6Z"/>
    <path d="M890.8,155.9c-.6.8-1.2,1.7-2,2.3-.6.4-1.4.5-2.1.7-.5.2-.9.3-1.4.5,0-.6,0-1.3.3-1.8,1.3-1.7,3-2.2,5.2-1.8Z"/>
    <path d="M197.5,178.9c-1.8-1.3-3.5-2.7-5.2-4.3-.3-.3,0-1.1.1-1.7.6.3,1.3.4,1.6.8,1.2,1.6,2.3,3.4,3.4,5.2Z"/>
    <path d="M362,183.8c-.5-1.2-1-2.3-1.4-3.4-.1-.3-.2-.6-.3-.8.4,0,.9-.1,1.1,0,.5.6.9,1.3,1.3,2.1.6,1.3,1.2,2.1,2.6.7.3-.3,1-.2,1.5-.4-.3.4-.5,1.1-.8,1.2-1.3.3-2.6.5-4,.6Z"/>
    <path d="M52.9,94.1c0-.4.2-1,.5-1.1,1.9-.3,3.7-.5,4.6-2.5,0-.1.3-.2.4-.3,0,.2.1.4.1.5.5,2.8-1.8,4.5-4.4,3.7-.4-.1-.7-.2-1.2-.4Z"/>
    <path d="M311,176.2c.5-.2,1.1-.4,1.5-.3.9.3,1.8.6,2.6,1.1.9.5,1.6,1.2,2.4,1.9-.2.2-.4.6-.6.5-1.4-.2-2.8-.3-4.1-.9-.8-.3-1.3-1.4-1.9-2.4Z"/>
    <path d="M145.4,90.1c-.1,1-.3,1.7-.4,2.5,0,.3-.2.5-.3.8-.3-.2-.8-.4-.9-.7-.3-1.8-.6-3.7-.8-5.5,0-.3.3-.7.4-1,.3.3.6.5.7.8.5,1,.8,1.9,1.2,3.1Z"/>
    <path d="M796.7,193.7c1,.4,1.8.8,2.5,1.2.4.2.7.4,1.1.6-.3.3-.6.9-1,1-.9.3-1.9.4-2.9.4-.3,0-.6-.5-.9-.7,1.3-.8,0-1.2-.3-1.7-.3-.4-.5-.9-.7-1.3.6,0,1.1.1,1.7.2.1,0,.2.2.5.3Z"/>
    <path d="M688.3,168.9c.2-.2.4-.4.5-.5.8,1.5,1.6,2.7,3.7,2.1.6-.2,1.2.3.4,1.1-.5.5-.9,1.1-1.3,1.7-.1.1-.5.2-.5.2-.6-1.7-3.4-2.1-2.8-4.6Z"/>
    <path d="M251.8,152.5c-2-.7-1-2.8-2-3.9.5-.3.9-.8,1.4-.9.3,0,.8.5,1,.9.4,1,.8,2,.9,3.1,0,.2-.7.6-1.3.9Z"/>
    <path d="M87.2,98.6c-.1-.7-.2-1.4-.2-2,0-.1.6-.3.6-.3.4.6.9,1.1,1.1,1.7.3,1.1.3,2.2.4,3.3,0,.2-.4.7-.6.6-.8-.2-1.7-.5-2.5-.8-.2,0-.4-.4-.6-.6.3-.2.5-.4.8-.6.4-.4.7-.8,1-1.3Z"/>
    <path d="M276.3,130.9c0-.3,0-.5,0-.6.6-.6,1.2-1.2,1.8-1.8,0,0,.6.4.5.5-.2.8-.5,1.5-.9,2.2-.8,1.6-1.8,3-3.8,1.3-.2-.2-.4-.4-.6-.6.2,0,.5-.2.7-.2.7-.2,1.4-.4,2.2-.8Z"/>
    <path d="M120.2,120.6c-.6.8-1.3,1.5-2.1,2.1-.4.3-.8.6-1.3.9-.2.1-.4.2-.6.3,0,0-.2-.2-.2-.3.8-1.3-.4-2.2-.8-3.2,0-.3,0-.7.2-.9,0-.1.7-.1.7,0,.9,2,2.5,1.2,4.1,1.1Z"/>
    <path d="M80.6,104.9c.5-.4.9-.7,1.4-.9.3,0,.6,0,.9.1-.2.3-.3.7-.5,1-.3.3-.7.4-.9.6-.2.2-.2.5-.3.7.2,0,.5,0,.7.1.3,0,.7.2,1,.3-.2.3-.3.8-.5.8-.8.2-1.7.3-2.5.3-1.5,0-.8-.8-.5-1.3.4-.6.8-1.1,1.4-1.8Z"/>
    <path d="M71.6,42c1.6-1.3,2.2-1.1,2.4.7.1,1,1.9,2.1,0,3-.7.3-2.3-2-2.4-3.6Z"/>
    <path d="M110.3,120.7c2.9-1,4.4-.1,4.1,2.2,0,.3-.2.6-.4.8,0,0-.5-.2-.7-.3-1-.5-2-1-3-1.5-.8-.4-.7-.8.1-1.2Z"/>
    <path d="M598.2,137.1c.6-.5,1.1-1.1,1.7-1.2.5-.1,1.2.2,1.8.4-.3.4-.6.8-.9,1.1-.5.5-1,1.1-1.4,1.6-.4.5-.8,1-1.1,1.5-.3-.7-.6-1.5-.8-2.2,0-.3.4-.7.8-1.2Z"/>
    <path d="M544.5,124.1c.1.4.1.8.2,1.1-1.9-.4-3.9-.7-5.8-1.1-.3,0-.4-.5-.6-.8.4,0,.8-.3,1.1-.2,1.7.3,3.4.6,5.2,1.1Z"/>
    <path d="M278.2,161.4c-.5.6-1,1.1-1.4,1.7-.2-.7-.4-1.3-.5-2,0-.4-.2-.8-.1-1.1.1-.6.4-1.1.6-1.7.5.3,1.3.5,1.6,1,.3.6,0,1.4,0,2.2Z"/>
    <path d="M251.1,160.2c1.1.3,2.2.4,3.1.7.3.1.4,1,.6,1.5-1.1,0-2.3.1-3.3-.2-.5-.2-.8-1.1-1.3-1.7.3-.1.5-.3.9-.3Z"/>
    <path d="M383.6,147.2c-.3.3-.5.5-.8.6.1-1.1,0-2.3.4-3.1.6-1.1,1.9-1.5,3.2-.9.3.1.5.6.8.8-.3.2-.7.6-1,.5-1.6-.3-2.3.6-2.6,2.1Z"/>
    <path d="M100.2,99c0,.4.2.9,0,.9-1.5.5-5.2-.7-6-2,0-.1,0-.5,0-.5.4-.1.9-.3,1.2-.2,1.5.5,3,1.1,4.7,1.8Z"/>
    <path d="M315.1,159.5c.5-.1.9-.1,1.3-.1.4,0,.8,0,1.3,0-.2.3-.7.5-.7.8,0,.4.2.9.4,1.2.2.3.5.5.8.7-.4.2-.8.5-1.2.5-1.3.1-2.3-.4-2.6-1.7-.1-.4.4-.9.7-1.5Z"/>
    <path d="M598.5,159.4c.4.2.8.6.8.7-.8,1.1-1.6,2.2-2.5,3.2,0,.1-.6,0-.7,0-.2-.4-.5-.9-.4-1.2.3-1.4.8-2.7,2.8-2.7Z"/>
    <path d="M187.9,114.7c.4-.5.7-.9,1-1.3.2.4.4.8.6,1.2.4,1,1,1.9,1.2,2.9,0,.4-.5,1-.7,1.6-.3-.5-.6-.9-.8-1.4-.4-1-.8-1.9-1.1-3Z"/>
    <path d="M121.3,126c1,.1,1.7.3,2.5.4.3,0,.5.2.8.3-.2.2-.4.4-.6.5-.4.2-.9.4-1.2.3-1.6-.6-3.1-1.3-4.6-2-.3-.2-.5-.7-.8-1.1.5,0,1-.3,1.4,0,.8.4,1.6,1.1,2.6,1.6Z"/>
    <path d="M525.9,181.1c.9-.8,1.8-1.5,2.7-2,.4-.2,1.1-.4,1.3-.1.3.2.2.9.3,1.3-.4,0-.8-.2-1.2-.2-.2,0-.6,0-.7,0-.1.2-.2.6,0,.8.3.4.8.7,1.1,1.2.2.3,0,.7,0,1.1-.3-.1-.6-.2-.8-.4-.9-.5-1.8-1-2.7-1.6Z"/>
    <path d="M531.3,128.5c-.3.2-.5.2-.6.3-.2-.8-.7-1.6-.6-2.3.2-.7.9-1.4,1.6-1.7.4-.2,1.2.2,1.8.4-.4.3-.8.6-1.1,1-.4.7-.7,1.5-1.1,2.3Z"/>
    <path d="M648.3,169.9c0,1.8-1,0-1.7.4-.4.2-1.1-.1-1.7-.2.3-.7.5-1.5.9-2,.8-1,1.5-.9,1.9.4.1.4.3.8.5,1.3Z"/>
    <path d="M165.3,125.3c-.4-1.2-.8-2.2-1.1-3.3,0-.2.3-.5.5-.8.2.1.5.2.6.4.5,1,1.2,2.1,1.5,3.2.1.4-.4,1-.7,1.5-.2-.3-.5-.6-.8-1Z"/>
    <path d="M49.6,89c.9-1.6,2.5-.6,3.5-1.2,0,.7.3,1.6,0,2-.6.8-3,.2-3.5-.9Z"/>
    <path d="M77.7,104.4c-1.9-2.1.5-3,1-4.4,0,0,.9,0,1.2.3.1.1,0,1-.2,1-1.7.5-1.1,1.8-1.1,2.9,0,.3,0,.6,0,.9-.3-.2-.6-.4-1-.8Z"/>
    <path d="M710.7,183.6c.8-1.3,1.5-2.3,2.9-.9.2.2.2.6.1.7-.9.8-1.8,1.6-2.8,2.4-.3.2-.6.3-1,.5,0-.4,0-.8.1-1.2.1-.5.4-.9.6-1.5Z"/>
    <path d="M257.1,134.2c.1-.8.2-1.4.3-2,.4.5.8,1,1.1,1.6.2.5.4,1.1.4,1.6,0,.5-.2,1.1-.2,1.6-.5-.4-1.2-.7-1.5-1.3-.2-.3,0-.9,0-1.6Z"/>
    <path d="M274.3,137.4c.2-1.1.4-1.9.6-2.8.5.9,1.2,1.7,1.3,2.6.1.7-.3,2.1-.8,2.2-1.3.3-1.1-.9-1.1-1.9Z"/>
    <path d="M371.6,162c.3.7.9,1.7.7,1.9-.9.8-1.9,1.4-2.9,2,0,0-.4-.3-.4-.4,0-.2.2-.5.4-.6,1.4-.3,1.2-1.4,1.1-2.4,0-1-.1-1,1.1-.5Z"/>
    <path d="M87.6,106.5c-.6.3-1.1.6-1.7.7-.7.1-1.3,0-.5-.9.4-.5.7-1.1,1.2-1.5.4-.5,1-.8,1.5-1.2,0,.7,0,1.4,0,2.2,0,.2-.2.5-.4.8Z"/>
    <path d="M229.9,144.9c.4-.1.7-.2.9,0,.6.3,1.2.8,1.9,1.2-.6.6-1.1,1.3-1.7,1.9-.4-.5-1-.9-1.2-1.4-.2-.4,0-1,.2-1.6Z"/>
    <path d="M551.9,167.7c0,.6,0,1.1-.2,1.5-.3-.4-.6-.8-.9-1.2-.7-.9-1.4-1.8-2.1-2.7-.2-.3-.2-.8-.3-1.2.3.2.6.4.8.6.9,1,1.7,1.9,2.6,3Z"/>
    <path d="M103.1,113.3c-1.1-1.2,0-1.3.6-1.7.6-.3,1.2-.5,1.8-.8,0,.8,0,1.6.1,2.5-.7,0-1.4,0-2.1,0-.1,0-.3,0-.5-.1Z"/>
    <path d="M273.3,144.9c.6,1.3,1.1,2.4,1.5,3.6,0,.1,0,.3,0,.4,0,0-.3,0-.4,0-.2-.2-.5-.5-.6-.8-.6-1.5-.6-3.5-3.1-3.3,0,0-.3-.6-.2-.9.2-.6.6-1.2.9-1.8,0,.2.2.4.3.6.5.7.9,1.5,1.5,2.3Z"/>
    <path d="M93.1,117.9c0,.3-.3.7-.4.7-1.7-.8-3.3-1.5-4.9-2.4-.2-.1-.3-.6-.4-1,.4,0,.8,0,1.1.1,1.5.8,3,1.6,4.6,2.5Z"/>
    <path d="M329.8,166.7c.2.2.4.4.5.5.7.4,1.4.8,2.1,1.2-.9.2-1.9.6-2.6.4-.6-.2-1.2-1.3-1.2-2.1,0-.8.7-.7,1.2,0Z"/>
    <path d="M27,78.4c.5.8,1.4,1.9,1.3,2-1.1,1-1.4-.4-2.2-.8-.5-.3-1.1-.3-1.6-.5-.4-.2-.7-.6-1.1-.8.3,0,.7,0,1,0,.8,0,1.6,0,2.6.1Z"/>
    <path d="M203.8,151.2c-.2-.8-.3-1.5-.5-2.1-.1-.5-.4-.9-.6-1.4.7.2,1.9,0,2.1.5.5.8.4,1.9.6,2.9-.5,0-.9.1-1.5,0Z"/>
    <path d="M558.9,126.8c1,.5,1.7.9,2.4,1.4-.9,0-1.7,0-2.6-.2-1.1-.2-2.2-.5-3.3-.8-.2,0-.4-.3-.7-.5.3-.1.5-.3.8-.3,1,0,2.1.3,3.3.4Z"/>
    <path d="M577.6,152.2c-1.2-1.3-.5-2.1.7-2.4.5-.2,1.1.2,1.6.3-.2.3-.3.7-.5,1-.4.7.5,3-1.8,1.2Z"/>
    <path d="M839,155.7c-1.4-.2-2.7-.6-4-.9,0-.2.1-.5.3-.6,1.3-1.1,3.4-.3,3.7,1.5Z"/>
    <path d="M218.8,157.7h-.6c.6-.6,1.1-1.5,1.8-1.7.7-.2,1.5.4,2.3.6-.4.4-.8.9-1.4,1.1-.6.2-1.3,0-2.2,0Z"/>
    <path d="M151.4,140.6c-1.3-.2-2.4-.4-3.6-.7-.3,0-.5-.5-.8-.7.3-.2.6-.5.9-.4,1.3.2,2.5.4,3.7.7,1.8.5.3.8-.2,1.2Z"/>
    <path d="M346.5,176.9c.6,1,1.2,2,1.6,2.9,0,.1,0,.4,0,.6,0,.1-.3.2-.4.2-1,0-2.8-2.3-2.5-3.3,0-.2.8-.3,1.3-.3Z"/>
    <path d="M466.8,167.2c.2-1.1.4-1.9.6-2.8.4.8.9,1.5,1.1,2.3.1.5-.2,1.2-.3,1.8-.5-.3-.9-.7-1.4-1.2Z"/>
    <path d="M582.2,157c.6-.5,1.3-.8,1.9-1.1,0,.4.2,1,0,1.3-.6.8-1.3,1.5-2,2.2,0,0-.7-.4-.7-.5.2-.6.5-1.1.8-1.9Z"/>
    <path d="M465.1,179.4c-.5-.2-.9-.5-1.2-.7.4-.3.7-.8,1.1-.9,1.1-.1,2.2,0,3.3,0,.3,0,.5.3.8.5-.2.2-.4.6-.7.7-1,.2-2,.3-3.3.4Z"/>
    <path d="M46.3,88.9c-1-.5-1.9-1.3-2.8-2.1,0,0,.2-.8.4-1,.2-.1.8,0,.9.2.5.8,1,1.8,1.5,2.8Z"/>
    <path d="M226.6,210.1c-.3.4-.4.9-.7,1-.4.2-1,.2-1.5.2,0-.5-.2-1.2.1-1.5.5-.5,1.3-.8,1.9-1.1.2,0,.6.1.9.2-.2.3-.4.6-.7,1.1Z"/>
    <path d="M327.2,151.2c.4-.2.7-.3,1-.5,0,1.2,0,2.4,0,3.5,0,.1-.6.3-.8.2-.2,0-.4-.4-.4-.7,0-.8.1-1.7.3-2.6Z"/>
    <path d="M194.2,141.8c1.2-.5,2.3-1.1,2.9.4.3.6.3,1.3.5,1.9-.5-.3-.9-.6-1.4-.9-.7-.4-1.4-.8-2-1.4Z"/>
    <path d="M205.7,137.8c-.1.7-.2,1.2-.3,1.6-.3-.3-.7-.6-.9-1-.4-1-.7-2-1-3,.7.7,1.5,1.5,2.2,2.4Z"/>
    <path d="M280,142.7c-.7-1-1.2-2-1.6-3,0,0,.4-.3.4-.2.7.8,1.4,1.6,2,2.5.2.3.2.8.2,1.1-.3-.1-.6-.3-1-.4Z"/>
    <path d="M15.4,18c.4-.6.7-1.2,1-1.7.2.7.4,1.3.5,2,0,.2-.3.4-.4.6-.3.6-.5,1.2-.7,1.8-.2-.7-.3-1.4-.5-2,0-.2,0-.4,0-.7Z"/>
    <path d="M337.4,181.8c.3-.6.4-1.1.6-1.5.4.2,1.1.5,1.1.6-.2.8-.4,1.7-.8,2.4,0,.1-.9-.1-1.3-.2.1-.4.3-.8.5-1.4Z"/>
    <path d="M223.3,146c-.8.1-1.5.4-2.1.4-.4,0-.8-.6-1.2-.9.4-.2.9-.5,1.3-.6.6-.1,1.3,0,1.9,0,.4,0,.8.2,1.3.3-.3.3-.7.6-1.2,1Z"/>
    <path d="M612.3,138.2c1,.5,1.7.9,2.4,1.4-.9,0-1.8.3-2.7.2-.6,0-1.1-.7-1.7-1,.6-.2,1.2-.4,2-.6Z"/>
    <path d="M376.9,174c-.7-.2-1.3-.4-1.9-.7.6-.6,1.1-1.3,1.7-1.9.1-.1.5,0,.8.1-.2.8-.3,1.6-.6,2.5Z"/>
    <path d="M283.9,164.2c-1.9-.9-2-2.1-.6-3.5.2-.2.6-.3.7-.3.2.2.4.5.4.8,0,1-.2,1.9-.5,2.9Z"/>
    <path d="M181.4,189.5c-.3-.4-.5-.8-.7-1.1.4,0,.8,0,1.2,0,.3,0,.7.2.8.4.4.7.8,1.4,1.2,2.1-.7-.3-1.3-.6-2-.9-.2,0-.3-.3-.5-.5Z"/>
    <path d="M728.2,198.6c-1,1.2-2,1.2-2.9.1-.2-.2,0-.7,0-1.1,1,.3,1.9.5,2.9,1Z"/>
    <path d="M402.4,181.4c.1.8-1.6,2.7-2,2.4-.3-.2-.6-1-.5-1.1.7-.7.9-2.1,2.5-1.3Z"/>
    <path d="M321.6,143.5c0,.4,0,.6,0,.8-.2.5-.4,1.1-.5,1.6-.5-.6-1.2-1.1-1.4-1.7-.1-.5.3-1.2.5-1.9.5.3.9.7,1.4,1.2Z"/>
    <path d="M325.3,166.5c1.3.9,2,2.2,1.9,3.8,0,.2-.4.3-.7.5-.4-1.4-.9-2.8-1.2-4.3Z"/>
    <path d="M27.4,52.1c-1.2-.6-1.5-2.8-.6-3.4.2-.2.8-.1,1,0,.2.2.3.7.2,1.1-.1.7-.3,1.5-.6,2.3Z"/>
    <path d="M95.9,103.5c-.6-.2-1.4-.5-1.4-.9,0-.9.2-1.9.3-2.8,0-.1.4-.3.5-.2.3.2.7.5.7.8,0,1,0,2,0,3.1Z"/>
    <path d="M392.6,144c-.6,0-1.2-.2-1.7-.4.4-.8.9-1.7,1.3-2.5.3.6.7,1.3.9,1.9,0,.2-.3.5-.5.9Z"/>
    <path d="M428,187.6c.6,0,1,0,1.4,0,.5,0,1,.2,1.4.3-.5.4-1,1.2-1.5,1.2-.7,0-1.4-.5-2.1-.9.2-.2.4-.5.7-.7Z"/>
    <path d="M209.9,59.2c1.3-.1,2.5-.2,3.8,0,.4,0,.7.5,1,.7-.4.2-.8.5-1.1.4-1.3-.3-2.6-.6-3.7-1.1Z"/>
    <path d="M485.9,111.3c.5.3.9.6,1.2,1-.5,0-1,.2-1.5.2-.3,0-.6-.3-.9-.4-.7-.3-1.4-.6-2.1-.9.9,0,1.8,0,2.7,0,.1,0,.3,0,.6,0Z"/>
    <path d="M372.4,170.6c-.7.6-1.5,1.1-2.3,1.5-.2,0-.9-.5-.8-.6.2-.5.5-1.1.8-1.2.7-.1,1.4.1,2.3.3Z"/>
    <path d="M162.1,115c0,.5,0,.9,0,1.2-.1.3-.4.6-.7.8-.2-.3-.5-.5-.5-.8-.1-.7-.2-1.4-.2-2.1,0-.4,0-.8,0-1.2.3.3.7.5.9.8.2.3.3.7.4,1.2Z"/>
    <path d="M188.3,169.5c-.3.4-.6.6-1,.9-.4-.6-.9-1.2-1.1-1.9-.1-.3.3-.8.4-1.2.5.7,1.1,1.4,1.7,2.2Z"/>
    <path d="M733.1,138.6c-.3.8-.6,1.4-.9,2-.4-.3-1.1-.8-1-.9.4-.8.9-1.6,1.4-2.4.2.3.4.7.6,1.2Z"/>
    <path d="M476.4,189.9c-.3.1-.6.2-.8.2,0-.6-.3-1.4,0-1.7.4-.6,1.2-.8,1.9-1.2.1.3.4.7.3.9-.3.6-.8,1.1-1.3,1.8Z"/>
    <path d="M468.3,109c.3-.4.7-.7,1.2-.9.1,0,.3,0,.5.2.8.3,1.7.5,2.5.8-1.3,0-2.5.2-3.8.2-.1,0-.2-.1-.4-.3Z"/>
    <path d="M195.5,128.9c0-1,0-1.7,0-2.4.5.7,1.2,1.4,1.6,2.2.2.3-.3.9-.4,1.4-.4-.3-.7-.6-1.1-1.1Z"/>
    <path d="M112.2,113.9c0,1.1,0,2.1-.1,3.1,0,.1-.5.3-.5.3-.3-.3-.9-.8-.8-1,.3-.9.9-1.7,1.5-2.4Z"/>
    <path d="M465.9,183.5c.7-1,1.3-1.7,2-2.4.1.2.4.4.4.5-.7.9-1.4,1.9-2.1,2.8-.1-.2-.2-.4-.3-.8Z"/>
    <path d="M345.9,174.8c-.6-.4-1.2-.8-1.4-1.3-.1-.3.4-.9.6-1.4.5.3,1.1.6,1.3,1,.2.4-.2,1.1-.4,1.7Z"/>
    <path d="M249.4,148.8c-.4.8,1,1.7-.4,2-.5,0-1.1,0-1.5-.2-.2-.1-.2-1.1,0-1.3.5-.4,1.3-.5,1.9-.6Z"/>
    <path d="M151,78.6c-.6-.2-1.1-.6-1.5-.9,0,0,.1,0,.1-.1.3-.8.7-1.6,1-2.4.2,1.1.4,2.3.4,3.5Z"/>
    <path d="M574,155c-.7.8-3.4.5-3.6-.2,0-.1.3-.6.5-.6,1.1.1,2.1.4,3.2.8Z"/>
    <path d="M850.6,140.2c-.4,2.1-.9-.5-1.4.1-.4-.6-.8-1.1-1.1-1.7,0-.1.4-.5.6-.7.5.5,1,.9,1.4,1.4.2.2.3.6.5.9Z"/>
    <path d="M15.3,2.8c-.5.7-1.2,1.7-1.2,0,0-.5-.1-1.1,0-1.6.2-.5.7-.8,1-1.2.2.5.5.9.6,1.4,0,.4-.2.8-.4,1.5Z"/>
    <path d="M566.8,148.5c1.7.8.1,1.4-.1,2.1-.1.4-.6.7-.9,1-.2-.4-.6-.9-.4-1.2.3-.7.9-1.3,1.5-2Z"/>
    <path d="M141.7,87.3c-.3.5-.6.9-.9,1.2,0-.4-.2-.8-.3-1.2,0,0,0-.1,0-.2.2-.9.4-1.7.5-2.6.2.9.5,1.7.7,2.8Z"/>
    <path d="M123,95.9c.2.4.5,1.1.3,1.2-.6.6-1.5,1-2.2,1.5,0-.2,0-.4.1-.5.5-.7,1.1-1.4,1.8-2.2Z"/>
    <path d="M352.5,148.5c.2.5.5.9.5,1.3,0,.6-.2,1.2-.3,1.8-.4-.6-1-1.1-1.2-1.7-.1-.5.4-1.2.6-1.8l.4.4Z"/>
    <path d="M133.2,68.4c0-.9,0-1.8,0-2.6,0,0,.6,0,.6,0,.2.9.4,1.7.5,2.6,0,.3-.2.6-.4.9-.2-.3-.4-.5-.7-.9Z"/>
    <path d="M66.4,93.5c.6.4,1.2.8,1.5,1.3.1.3-.4.9-.6,1.4-.3-.5-.7-1.1-.9-1.7-.1-.3,0-.7,0-1.1Z"/>
    <path d="M188.5,158.5c-.7,0-1.3.2-1.7,0-.2-.1-.2-1,0-1.4.1-.3.7-.4,1.1-.5.2.6.5,1.2.6,1.9Z"/>
    <path d="M729.4,166c-.3-.6-.5-1-.8-1.5.5,0,1,0,1.5,0,.4,0,.9.2,1.3.3.2,0,.4.2.4.3,0,.2-.1.3-.2.5-1.1-1-1.1,1.9-2.2.4Z"/>
    <path d="M725.3,172.9c-.4.7-.8,1.2-1.2,1.6-.2-.3-.5-.6-.4-.9.2-.8.6-1.5.9-2.3.2.4.5.9.7,1.5Z"/>
    <path d="M291.1,166.3c-.1-.6-.2-1.1-.2-1.6,0,0,.7-.3.8-.2.2.4.4.9.5,1.4,0,.2,0,.4,0,.6,0,.5,0,1.1,0,1.6-.4-.5-.7-1.1-1.2-1.7Z"/>
    <path d="M157.6,93.8c.7,0,1.1,0,1.6,0,.5,0,1.1.2,1.6.2-.5.3-1,.8-1.6.9-.5.2-1.1,0-1.6,0-1.8,0-.6-.7,0-1.2Z"/>
    <path d="M110.8,56.2c0,.6.1,1.1,0,1.5-.2.4-.7.7-1.1,1.1,0,0-.3-.1-.5-.2.2-.5.4-.9.6-1.4.1-.4.2-.8.2-1.2,0-.3.2-.6.2-.8.2.3.4.7.7,1.1Z"/>
    <path d="M280.9,148.3c-.5-.7-1-1.2-1.4-1.8-.2-.2-.2-.5-.3-.8.3,0,.7,0,.8.2.6.8,1.1,1.5,1.6,2.4.2.4,0,.9,0,1.4-.2-.4-.4-.8-.7-1.3Z"/>
    <path d="M737.6,193.7c.3.3.5.6.6.8-1,.4-2,.8-2.9,1.2-.1,0-.3-.1-.5-.2.1-.2.2-.5.3-.6.8-.4,1.5-.8,2.5-1.2Z"/>
    <path d="M289.2,164.8c0,1.1,0,2.1-.2,3.2-.2-.9-.3-1.8-.5-2.6,0-.2,0-.4-.1-.6-.2-.4-.3-.8-.5-1.3.4.4.8.8,1.4,1.3Z"/>
    <path d="M180.8,144.7c.7,0,1.4,0,2,.2,0,.3,0,.8-.2.8-.7.2-1.5.2-2.3.3.1-.4.2-.8.5-1.3Z"/>
    <path d="M23.9,52.3c-.5,0-1.3,0-1.3-.1,0-.6,0-1.3,0-2,.5.2,1.2.3,1.5.6.2.2-.1.9-.3,1.5Z"/>
    <path d="M613.2,151.7c0,.5,0,1.4-.3,1.6-.5.2-1.2,0-1.8-.2,0,0,0-.8,0-.9.6-.2,1.2-.3,2-.4Z"/>
    <path d="M153.5,84.4c-.4-.1-.6-.2-.8-.3,1-.4,1.9-.7,2.9-1.1,0,.5,0,1.2-.3,1.4-.4.2-1.1,0-1.8,0Z"/>
    <path d="M50.2,94.5c-1-.5-1.8-1.2-2.7-1.8.3,0,.7-.3.8-.2.7.6,1.3,1.3,1.9,2Z"/>
    <path d="M738.3,154c-.4.2-.8.3-1.1.4.3-.6.5-1.3.8-1.9,0,0,.1,0,.2,0,.7.1,1.4.3,2,.4-.6.3-1.2.7-2,1.1Z"/>
    <path d="M41.7,79.6c0,.9-.1,1.7-.2,2.5-.4-.1-.9-.1-1.3-.3-.1,0-.1-.6,0-.8.4-.5.9-1,1.5-1.3Z"/>
    <path d="M888.4,142.6c-.2.2-.4.5-.5.5-.7-.1-1.5-.4-2.2-.5.3-.3.5-.8.9-1,.8-.2,1.8-.4,1.8,1Z"/>
    <path d="M644.1,150.2c.2.4.3.7.4,1.1-.6,0-1.3,0-1.9-.2-.2-.1-.3-.9-.2-1.3,0-.2.6-.4.9-.3.3,0,.5.4.8.8Z"/>
    <path d="M834.2,155.8c.2.4.2,1.1.1,1.2-.5.1-1.1.1-1.6,0-.3,0-.7-.3-1-.5.3-.2.7-.5,1-.7.4-.1.8,0,1.4,0Z"/>
    <path d="M447.3,187.1c0-.3.3-.7.5-.6.7.2,1.5.5,2.2.9,0,0-.1.5-.2.8-.6-.2-1.3-.3-1.9-.5-.2,0-.3-.3-.5-.5Z"/>
    <path d="M703.7,177c.7.2,1.1.4,1.6.6-.4.5-.9,1-1.4,1.4-.2.1-.6,0-.9,0,.2-.6.3-1.3.7-1.9Z"/>
    <path d="M540.6,186c-.9,0-1.7.2-2.4.2,0-.2,0-.5,0-.5,1-.2,1.9-.4,2.9-.5.2,0,.4.3.6.5-.3.1-.7.2-1.2.3Z"/>
    <path d="M118.2,57.4c0-.4,0-.8.2-1.1.3.1.7.2.9.4.4.6.7,1.3,1.1,2-.7-.4-1.4-.8-2.2-1.3Z"/>
    <path d="M195,154c-2-.4-.8-1.9-1.1-2.9.3,0,.8,0,.8.1.2.9.3,1.8.3,2.8Z"/>
    <path d="M518.2,157.5c-1.4-.2-1.2-.9-.4-1.6.3-.3.8-.4,1.3-.6-.2.7-.5,1.4-.9,2.2Z"/>
    <path d="M580.9,133.3c.3.3.4.7.4,1l-2.2.3c.2-.3.2-.8.5-1,.3-.2.7-.2,1.3-.3Z"/>
    <path d="M764.5,171.7c0,.3-.1.4-.1.3-.6-.3-1.3-.5-1.9-.8.2-.4.4-.8.6-1.2.5.5.9,1,1.4,1.6Z"/>
    <path d="M740.3,155.5c.2.8.4,1.6.5,2.3,0,.3-.3.6-.4.8-.2-.3-.7-.5-.7-.8.1-.8.4-1.7.7-2.4Z"/>
    <path d="M353.4,172.1c-.3.5-.6.7-.9,1,0,0-.2-.2-.3-.3-.4-.5-.8-.9-1.2-1.4.8.2,1.6.3,2.4.7Z"/>
    <path d="M567.8,129.8c0-.4,0-.6,0-.9,1,.1,1.9.2,2.8.5.3,0,.4.6.6.9-.3,0-.6,0-1-.1-.8,0-1.5-.2-2.4-.4Z"/>
    <path d="M570.7,160.7c-1-.9-1-1.1-.1-1.7.3-.2.9-.2,1.1,0,.6.9.3,1.5-.9,1.7Z"/>
    <path d="M386.5,177.1c.4-.5.8-.8,1.1-1.2.1.5.5,1.1.4,1.4-.2.5-.8.9-1.3,1.3,0-.5-.2-1-.2-1.5Z"/>
    <path d="M183.6,146.9c0-.5,0-.9,0-1.3.3.3.7.5,1,.8.1.2,0,.5,0,.8,0,.6,0,1.1.1,1.7-.3-.6-.6-1.2-1-1.9Z"/>
    <path d="M180.4,175.8c0-.7-.2-1.1-.2-1.6.5.3,1,.5,1.4.9.3.3.3.9.4,1.4-.5-.2-1-.3-1.5-.7Z"/>
    <path d="M585.8,153.3c.2-1.2.8-1.6,1.6-.9.2.1,0,1.1-.1,1.2-.5.1-1,0-1.5-.2Z"/>
    <path d="M514,168.3c.4-.6.7-1.1,1-1.5.2.3.7.7.7.8-.3.5-.7.9-1.1,1.3,0,0-.5-.3-.6-.6Z"/>
    <path d="M882.3,75.4c.2-.3.3-.4.5-.4.7,0,1.4,0,2.1,0,0,.2,0,.5-.1.5-.8.1-1.6,1.3-2.5-.1Z"/>
    <path d="M828.9,97c-.4.1-.5.4-.6.4-.7,0-1.4,0-2.2-.1,0-.2,0-.5,0-.5.7,0,1.4-.2,2.1-.1.9,0,.8.1.7.4Z"/>
    <path d="M282.8,168.4c.6,0,1.4,0,1.8.5.3.3,0,1.1-.2,1.7,0,.1-.3.2-.4.3-.1-.4-.2-.8-.4-1.2-.2-.4-.5-.7-.8-1.3Z"/>
    <path d="M620.8,145.1c-.2.2-.2.3-.3.4-.3.4-.6.9-.8,1.3-.3-.2-.7-.5-.7-.6.2-.6.4-1.2.8-1.6.1-.1.8.2,1.1.4Z"/>
    <path d="M194.3,144.8c-.1.5-.2.9-.3,1.2-.5-.3-1.1-.6-1.6-1,0,0,.2-.8.3-.8.6,0,1.1.2,1.7.5Z"/>
    <path d="M192,143.2c-.6.3-1,.6-1.5.7-.2,0-.5-.1-.7-.2.1-.3.2-.6.4-.8.6-.4,1.2-.7,1.8-1,.1,0,.4.2.6.2-.2.3-.4.6-.7,1Z"/>
    <path d="M611.4,157.9c.1.3.2.5,0,.7-.2.6-.5,1.1-.7,1.6-.3-.2-.6-.5-.9-.7.6-.5-.1-2,1.5-1.7Z"/>
    <path d="M677.2,174.5c-.1-.4,0-.8,0-1.2.7.1,1.5.3,2.2.4-.1.3-.2.7-.4.8-.5.1-1.1,0-1.8,0Z"/>
    <path d="M580.4,167.1c-.6.2-1,.3-1.5.4.2-.5.2-1,.5-1.3.3-.3.9-.3,1.3-.5,0,.5-.2.9-.4,1.5Z"/>
    <path d="M725.7,177c-.2.7-.5,1.2-.7,1.6-.2-.2-.5-.4-.5-.6.1-.7.3-1.4.5-2.2.2.3.5.6.7,1.1Z"/>
    <path d="M12.3,22.3c-.4.1-.8.1-1.1.2.2-.8.3-1.6.5-2.4.2.4.5.7.7,1.1.1.3,0,.7,0,1.1Z"/>
    <path d="M576.2,152.8c.3.3.4.6.6.8-.3,0-.6.1-.9.1-.2,0-.4,0-.5-.1-.4-.4-.8-.8-1.1-1.1.6,0,1.2.1,1.9.3Z"/>
    <path d="M35.3,49.7c.4.2.9.6,1.2,1.1.2.3,0,.9-.1,1.3-.4-.1-1-.2-1-.4-.1-.6,0-1.2,0-2Z"/>
    <path d="M225,151.6c.3-.4.7-.6,1.1-.9.3.6.5,1.1.8,1.7-.6-.2-1.2-.4-1.9-.8Z"/>
    <path d="M221.6,182.7c.4,0,1.1.3,1.2.6.1.5-.2,1.1-.3,1.6-.3-.2-.7-.3-.8-.5-.1-.5,0-1.1,0-1.8Z"/>
    <path d="M524.2,119.6c.5.3.9.5,1.3.7-.4,0-.8,0-1.2,0-.1,0-.3,0-.4,0-.6-.3-1.3-.5-1.9-.8,0,0,0-.3,0-.4.7.1,1.4.3,2.1.5Z"/>
    <path d="M21.1,76.6c.4.4.8.7,1.1,1-.4,0-1,.4-1.2.2-.5-.3-.8-.9-1.2-1.4.4,0,.8,0,1.3,0Z"/>
    <path d="M622.2,156.3c.9,0,1.7,0,2.6,0,0,.2-.2.5-.2.5-.8,0-1.6-.2-2.4-.5Z"/>
    <path d="M561.1,183c.1-.4.4-.8.6-1.1.3.3.9.6.9.8,0,.5-.3,1-.5,1.6-.3-.4-.6-.8-1-1.3Z"/>
    <path d="M686.9,182.6c-.4-.4-.7-.9-1-1.4.3-.2.6-.3,1-.5,0,.6.1,1.2,0,1.9Z"/>
    <path d="M414.5,185.5c.4-.6.7-1.1,1.1-1.5,0,.5.2,1.1,0,1.6-.2.8-.7.7-1.2-.1Z"/>
    <path d="M546.7,186c0-.3,0-.6.2-.8.2-.1.5,0,.8,0,.6,0,1.2,0,1.8,0-.8.3-1.5.6-2.3.9-.1,0-.3,0-.6,0Z"/>
    <path d="M363.5,93.7c-.6.1-1.2.2-1.7,0-.5,0-1-.3-1.5-.4.5-.1,1.1-.4,1.6-.3.6,0,1.1.4,1.6.7Z"/>
    <path d="M322.3,164.6c-.7,0-1.3,0-1.9,0,.2-.3.3-.6.5-1,.5.3,1,.6,1.4,1Z"/>
    <path d="M145.7,84.3c-.6-.1-1.1-.4-1.5-.6.2-.4.4-.9.7-1.3.3.6.6,1.2.9,1.9Z"/>
    <path d="M773,151.7c-.1-.5-.3-.8-.4-1,.2,0,.5-.2.5-.2.4.7.8,1.4,1.1,2.1-.2.1-.5.3-.7.4-.2-.3-.3-.7-.5-1.2Z"/>
    <path d="M322,171.7c.5-.2,1-.3,1.5-.3,0,.5,0,1,0,1.5-.5-.3-1-.6-1.5-1.2Z"/>
    <path d="M189.3,171c.4,0,1.1,0,1.4.2.3.4.2,1,.3,1.6-.2,0-.6-.1-.7-.3-.3-.4-.6-1-.9-1.6Z"/>
    <path d="M72.4,37.1c-.2.5-.4.9-.5,1.2-.2-.2-.6-.4-.7-.7-.1-.5,0-1-.1-1.5.4.2.9.5,1.3.9Z"/>
    <path d="M125.5,100.6c.3.3.5.5.7.7.3.3.5.7.7,1-.7-.2-1.4-.4-2-.7-.1,0,.1-.8.2-1.2.1,0,.2.1.4.3Z"/>
    <path d="M552.3,184.6c-.3.1-.5.2-.6.2-.4,0-.9,0-1.3,0,.5-.4,1-.9,1.5-1.3.1,0,.6.3.9.5-.1.1-.3.3-.5.5Z"/>
    <path d="M582.3,189.5c.2-.7.5-1.2.8-1.7,0,0,.4.2.7.3-.4.5-.9,1-1.4,1.4Z"/>
    <path d="M163.2,135.1c-.6.2-1.3.4-1.9.5,0,0-.1-.4-.2-.5.7,0,1.4,0,2.2,0Z"/>
    <path d="M264.9,165.6c.3.3.3.5.4.8-.2,0-.4,0-.6,0-.6-.2-1.2-.3-1.8-.6,0,0,0-.3,0-.5.6,0,1.2.2,2,.3Z"/>
    <path d="M709,157.8c0-.8-.2-1.4-.3-2,.3.3.9.5.9.8,0,.6,0,1.3-.2,1.9-.2-.2-.3-.4-.5-.8Z"/>
    <path d="M381.4,133.4c0-.5.2-.9.3-1.3.3.4.8.7.9,1.2,0,.3-.3.8-.5,1.2-.2-.3-.5-.6-.8-1Z"/>
    <path d="M376.7,167.7c.6,0,1.1-.1,1.5,0,.2,0,.2.6.3,1-.6-.3-1.3-.6-1.8-1Z"/>
    <path d="M223.8,140.8c.4-.1.7-.2.9,0,.4.4.7.8,1,1.3,0,.1-.1.5-.2.7-.3-.3-.6-.7-1-1-.3-.3-.6-.6-.8-1Z"/>
    <path d="M724.2,187.7c.4,0,.7.1.9.3.4.3.7.6,1,.9,0,0-.4.6-.5.5-.4-.2-.7-.4-1-.7-.2-.3-.4-.6-.5-1.1Z"/>
    <path d="M224.5,149.2c-.3-.4-.5-.8-.6-1.2.6,0,1.2,0,1.8.1-.3.4-.6.7-1.1,1.1Z"/>
    <path d="M235.8,147.9c-.2,0-.4-.2-.5-.3-.2-.5-.3-1-.5-1.5.2,0,.6,0,.7,0,.2.5.3,1.1.4,1.8Z"/>
    <path d="M760.3,166.1c-.2.6-.5,1.1-.9,1.5,0-.6-.2-1.1-.3-1.7.3,0,.7,0,1.1.2Z"/>
    <path d="M242,178.2c0,.5-.1.9-.2,1.2-.3-.1-.8-.2-.8-.4,0-.4,0-.9.1-1.4.3.1.6.2.9.6Z"/>
    <path d="M690.7,157.8c.5,0,.8,0,1.2.1-.4.4-.7.9-1.1,1-.3.1-.8-.3-1.2-.4.3-.2.6-.5,1.1-.7Z"/>
    <path d="M132,123c.2-.6.5-1.1.8-1.5.2.3.4.5.5.8-.4.3-.8.6-1.4.8Z"/>
    <path d="M364.9,179.5c.1.4.2.9.2,1.4-.5-.1-.9-.2-1.4-.3.4-.3.7-.7,1.2-1.1Z"/>
    <path d="M191.1,124.4c-1.6.7-.4-1.1-1.2-1.2.2-.3.4-.5.5-.8.2.6.4,1.2.7,2Z"/>
    <path d="M174.3,101.9c-.5-.4-.8-.7-1.2-1.1.5,0,1,0,1.5,0,0,.4,0,.7-.3,1.1Z"/>
    <path d="M800.1,102c.3,0,.5.2.7.4-.7.2-1.4.5-2.1.7,0,0-.2-.2-.3-.4.3-.1.6-.3.9-.4.2,0,.5-.1.8-.3Z"/>
    <path d="M574.1,189.7c.7-.2,1.3-.3,1.9-.4,0,.2-.1.7-.2.7-.6,0-1.2-.1-1.7-.3Z"/>
    <path d="M710.7,160.2c.2.6.3,1,.4,1.5-.3-.2-.9-.3-.9-.5,0-.4.3-.7.6-1Z"/>
    <path d="M149.1,124.3c.3.3.5.4.7.6-.5,0-1,.3-1.4.3-.2,0-.3-.4-.5-.7.4-.1.7-.2,1.2-.2Z"/>
    <path d="M108.2,59c-.4-.3-.8-.6-1-1,0-.2.5-.6.8-.8,0,.6.2,1.2.2,1.9Z"/>
    <path d="M282.5,81c0,.4,0,.6-.1.9-.5-.3-1.1-.5-1.6-.8.2-.1.5-.4.7-.4.3,0,.6.1,1,.3Z"/>
    <path d="M113.3,118.8c-.4,0-.6,0-.9-.1.2-.4.3-.8.6-1.1,0,0,.5.2.8.3-.1.3-.2.6-.5,1Z"/>
    <path d="M498.9,114.9c-.2.1-.4.1-.5,0-.6-.2-1.2-.3-1.8-.5,0,0,.2-.3.3-.3.7.2,1.4.4,2,.7Z"/>
    <path d="M142.2,135.5c.4.2.8.5,1.1.8.1.2,0,.6,0,.9-.3-.1-.7-.2-.8-.4-.2-.3-.3-.8-.3-1.3Z"/>
    <path d="M499.7,185.4c.6,0,1.1,0,1.6.2-.2.2-.4.7-.5.7-.4-.2-.8-.5-1.2-.9Z"/>
    <path d="M188.3,176.1c.5-.2,1.1-.3,1.7-.3,0,0,.1.4.2.6-.6,0-1.2-.2-1.9-.3Z"/>
    <path d="M25.2,14.6c-.1-.2-.1-.2-.1-.3,0-.7.2-1.4.2-2,.2,0,.5.1.5.2-.2.8-.4,1.5-.6,2.2Z"/>
    <path d="M93.9,105.3c-.4.2-.8.3-1.3.4,0-.3,0-.6,0-1,.4.2.8.3,1.2.6Z"/>
    <path d="M408.9,171.8c.4.3.8.8,1.1,1.2-.3.1-.5.2-.8.3-.2-.5-.3-1-.4-1.5Z"/>
    <path d="M738.9,165.9c.4.2.8.3,1.1.4-.3.2-.7.5-.8.5-.5-.2-.8-.6-1.2-.9.3,0,.5,0,.9,0Z"/>
    <path d="M249.3,146.7c-.5-.1-1-.4-1.4-.6.3-.2.8-.6,1-.5.3.1.4.6.5,1.1Z"/>
    <path d="M164.4,101.4c-.4,0-.8-.2-1.1-.3l.5-.8c.2.3.5.7.6,1.1Z"/>
    <path d="M373.9,166.3c.3-.4.6-.7,1-1,.2.3.3.5.5.8-.5.1-1,.2-1.5.2Z"/>
    <path d="M178.7,131.2c-.6,0-1.1-.2-1.5-.4,0,0,0-.5.1-.7.5.3,1,.6,1.4,1.1Z"/>
    <path d="M273.5,141.6c.5,0,.9,0,1.4,0-.1.4-.2.7-.4,1.1-.4-.3-.7-.6-1-1Z"/>
    <path d="M119.4,101.8c.2-.6.5-1.1.8-1.5.1.3.4.6.3.7-.3.3-.6.6-1.1.8Z"/>
    <path d="M207.3,132.8c-.4.1-.8.1-1.1.2.2-.4.5-.9.7-1.3.2.3.3.7.4,1.1Z"/>
    <path d="M284.8,167.1c-.3-.5-.5-1.1-.7-1.8,0,0,.3-.2.5-.1.1,0,.2.3.3.4,0,.5,0,.9,0,1.5Z"/>
    <path d="M143.2,97.4c-.4-.3-.7-.6-1-1,.2-.1.5-.2.7-.4.1.4.3.8.3,1.4Z"/>
    <path d="M339.6,171c-.5-.1-.9-.3-1.3-.6.3-.1.6-.4.8-.3.3.1.4.5.6.9Z"/>
    <path d="M454.6,189.3c.4,0,.8.2,1.1.4-.4.2-.9.5-1.3.7,0-.3,0-.7.2-1.1Z"/>
    <path d="M10,14.7c-.2.4-.3.6-.5.8-.1-.5-.2-1.1-.3-1.6,0-.1.3-.3.5-.4.1.3.2.7.3,1.2Z"/>
    <path d="M381.6,168.3c.4-.3.9-.4,1.4-.6,0,.3,0,.6,0,1-.5,0-.9-.2-1.5-.3Z"/>
    <path d="M529.5,135.7c.4,0,.6,0,.9,0-.3.5-.6.9-1,1.4,0,0-.3,0-.5,0,.2-.4.3-.7.6-1.2Z"/>
    <path d="M165.4,135.4c0,.4-.2.8-.4,1.2-.3-.2-.5-.5-.8-.7.3-.2.7-.3,1.2-.5Z"/>
    <path d="M124.2,121.5c-.3.4-.6.6-.9.8,0-.6,0-1.1.1-1.6,0-.2.3-.3.5-.4,0,.3.2.7.3,1.2Z"/>
    <path d="M152.8,77.4c.2-.4.5-.8.9-1.1,0,.5.1,1,.2,1.5-.3,0-.7-.2-1.1-.3Z"/>
    <path d="M213.4,154.9c-.4-.4-.8-.8-1.1-1.3.2,0,.3-.2.5-.3.3.5.5,1,.7,1.5Z"/>
    <path d="M880.4,77.6c.5,0,.9,0,1.4,0,0,.2-.2.6-.2.5-.4,0-.8-.2-1.1-.5Z"/>
    <path d="M128.3,67c.4.3.7.6,1,1-.2.2-.4.3-.6.5-.2-.5-.4-.9-.5-1.5Z"/>
    <path d="M354.3,176.5c0-.5-.1-.9,0-1.4,0,0,.4,0,.7,0-.2.5-.3,1-.6,1.4Z"/>
    <path d="M585,132.5c0,.8,0,.9-.8.8-.3,0-.5-.2-.8-.3.5-.2.9-.4,1.6-.6Z"/>
    <path d="M756.8,121c-.3.4-.6.6-1,.9-.1-.2-.2-.4-.4-.6.4-.2.8-.3,1.3-.4Z"/>
    <path d="M182.2,136.5c-.3.4-.6.6-1,.9-.1-.2-.2-.4-.4-.6.4-.2.8-.3,1.3-.4Z"/>
    <path d="M322.3,140.6c-.3-.4-.4-.9-.6-1.4.2,0,.6,0,.7,0,0,.4,0,.8,0,1.4Z"/>
    <path d="M815.1,172.8c-.2-.6-.3-1-.4-1.5.2,0,.7.1.7.2,0,.5-.1.9-.3,1.3Z"/>
    <path d="M8.4,68.4c.4-.2.8-.3,1.3-.3,0,0,.1.4.2.7-.5,0-.9-.2-1.5-.4Z"/>
    <path d="M740.4,192.5c.4.2.6.5.7.7-.5,0-1,0-1.5,0,.2-.2.4-.5.7-.7Z"/>
    <path d="M698.4,156.2c.5-.2,1.1-.2,1.6-.2,0,0,0,.4,0,.4-.5,0-1.1,0-1.6-.2Z"/>
    <path d="M28.6,64.7c-.4,0-.8,0-1.1,0,.2-.3.3-.6.5-1,.2.3.5.6.6,1Z"/>
    <path d="M249.8,178.6c0-.4,0-.8.2-1.2.2.1.4.2.6.3-.2.3-.4.6-.8.9Z"/>
    <path d="M760,169.6c.5.3.9.6,1.2.9-.1.1-.4.3-.4.3-.4-.4-.7-.8-.9-1.2Z"/>
    <path d="M281.6,154.1c-.3.3-.6.4-1,.5.1-.4.2-.8.3-1.2.2.2.4.4.7.8Z"/>
    <path d="M586.8,133c.2-.1.3-.1.3,0,.4.2.8.5,1.2.8,0,0-.2.3-.2.4-.5-.3-.9-.7-1.3-1.1Z"/>
    <path d="M729.3,182.2c-.4.2-.7.3-1,.4,0-.4,0-.7,0-1.1.4.2.7.4.9.7Z"/>
    <path d="M182.8,150.8c-.4,0-.8,0-1.1,0,.2-.3.3-.6.5-1,.2.3.5.6.6,1Z"/>
    <path d="M0,36.6c0-.3-.1-.7,0-1.1,0,0,.4,0,.7,0-.2.4-.3.7-.6,1.2Z"/>
    <path d="M271.7,137.3c-.2-.2-.4-.6-.3-.9,0-.2.5-.3.8-.5-.1.4-.3.8-.5,1.3Z"/>
    <path d="M579.8,172.8c.2-.4.5-.8.8-1.1.1.2.3.5.3.5-.3.3-.7.5-1.1.6Z"/>
    <path d="M89.1,109.3c-.3.3-.6.4-1,.5.1-.4.2-.8.3-1.2.2.2.4.4.7.8Z"/>
    <path d="M160.6,136.7c.3.4.5.9.7,1.4-.2,0-.3.1-.5.2,0-.5-.2-1-.2-1.5Z"/>
    <path d="M256.7,71.8c-.5-.1-.9-.2-1.2-.3.3-.2.6-.5.8-.5.3,0,.4.5.4.8Z"/>
    <path d="M374.5,172.8c-.5,0-.9,0-1.3,0,0-.2.2-.5.2-.5.4,0,.8.2,1.2.5Z"/>
    <path d="M216.7,137c.5-.3.9-.4,1.4-.5,0,0,0,.3.1.4-.5,0-1,.2-1.5,0Z"/>
    <path d="M655.7,165.7c.4,0,.8.1,1.1.2-.2.3-.3.5-.5.8-.2-.3-.5-.6-.6-1Z"/>
    <path d="M396.7,176.1c-.3.2-.8.3-1.2.4v-.5c.3,0,.7,0,1.2.1Z"/>
    <path d="M826.5,200.6c.3-.4.6-.6.9-.8.1.2.2.4.3.6-.4.1-.8.3-1.2.2Z"/>
    <path d="M324.1,151.8c.2.3.4.7.5,1.1,0,0-.3.2-.5.3,0-.4,0-.9,0-1.4Z"/>
    <path d="M223,135.5c-.4,0-.6,0-.9,0,.3-.3.7-.7,1-1,0,.3,0,.5,0,.9Z"/>
    <path d="M91.1,99.9c-.3-.3-.4-.6-.6-.9.3,0,.6,0,.8.2,0,0,0,.4-.3.7Z"/>
    <path d="M114,111.7c0,.5-.2.9-.3,1.2-.2-.1-.4-.3-.5-.4.3-.3.5-.7.8-.8Z"/>
    <path d="M379.6,95.5c.4.1.7.4,1,.6-.3.2-.5.3-.8.5-.1-.3-.2-.7-.2-1.1Z"/>
    <path d="M675.9,183.8c-.3-.1-.5-.4-.6-.6.2-.1.5-.2.7-.4,0,.3,0,.6,0,1Z"/>
    <path d="M219.7,164.8c.4,0,.7-.1.9,0,.1,0,0,.4,0,.7-.4-.2-.7-.3-1-.6Z"/>
    <path d="M512.5,185.4c.1-.4.4-.7.6-1l.4.4c-.3.2-.6.5-1,.6Z"/>
    <path d="M723,185.9c0,.4-.2.6-.3.9-.2-.3-.4-.6-.6-1,.3,0,.5,0,.9,0Z"/>
    <path d="M157.7,85.5c.2-.3.5-.5.8-.7.1.2.2.4.4.5-.3,0-.7.2-1.1.2Z"/>
    <path d="M581.8,164.3c.2-.4.3-.6.5-.8.1.3.2.5.3.8-.3,0-.5.1-.8,0Z"/>
    <path d="M816.4,83.5c-.1.4-.3.6-.6.9-.1-.1-.2-.2-.4-.4.3-.2.5-.4.9-.6Z"/>
    <path d="M526.2,183.2c-.2.3-.5.5-.8.7-.1-.2-.2-.4-.4-.5.3,0,.7-.2,1.1-.2Z"/>
    <path d="M855.8,127.2c-.2-.4-.2-.8-.2-1.2,0,0,.4,0,.4,0,0,.4,0,.8-.2,1.2Z"/>
    <path d="M196.7,184.2c.4,0,.6.2.9.3-.3.2-.6.4-1,.6,0-.3,0-.5,0-.9Z"/>
    <path d="M444.3,185.1c-.2-.4-.2-.8-.2-1.2,0,0,.4,0,.4,0,0,.4,0,.8-.2,1.2Z"/>
    <path d="M662.4,161.2c-.1.4-.4.7-.6,1-.1-.1-.3-.3-.4-.4.3-.2.6-.5,1-.6Z"/>
    <path d="M253,141.1c.2.4.2.8.2,1.2,0,0-.4,0-.4,0,0-.4,0-.8.2-1.2Z"/>
    <path d="M473,189.3c-.4-.1-.6-.3-.9-.6.1-.1.2-.2.4-.4.2.3.4.5.6.9Z"/>
    <path d="M200,166c-.2.4-.3.6-.5.8-.1-.3-.2-.5-.3-.8.3,0,.5-.1.8,0Z"/>
    <path d="M213.1,214.9c-.1-.3,0-.5,0-.8.3.1.5.2.8.3-.2.2-.4.3-.8.5Z"/>
    <path d="M231.1,151.2c.3-.3.6-.4,1-.6,0,.2,0,.6,0,.7-.2.1-.6,0-.9,0Z"/>
    <path d="M337.2,99.4c.2-.2.6-.3.9-.3,0,0,.1.4.2.7-.3,0-.6-.2-1.1-.4Z"/>
    <path d="M216,153.8c.4,0,.8,0,1.1.2-.1.2-.2.4-.4.5-.3-.2-.6-.4-.8-.7Z"/>
    <path d="M704,157.3c-.4,0-.8,0-1.1-.2.1-.2.2-.4.4-.5.3.2.6.4.8.7Z"/>
    <path d="M12,63.2c.3-.1.5,0,.8,0-.1.3-.2.5-.3.8-.2-.2-.3-.4-.5-.8Z"/>
    <path d="M275.6,156.1c0-.4,0-.8.2-1.1.2.1.4.2.5.4-.2.3-.4.6-.7.8Z"/>
    <path d="M702,156.9c-.4,0-.8,0-1.1-.2.1-.2.2-.4.4-.5.3.2.6.4.8.7Z"/>
    <path d="M793.5,192c0,.4-.2.6-.3.9-.2-.2-.4-.4-.6-.6.3-.1.5-.3.9-.3Z"/>
    <path d="M225.8,65.1c-.2-.3-.3-.5-.4-.6.4,0,.7.2,1.1.3-.2.2-.4.3-.7.4Z"/>
    <path d="M796.7,108.9c.4,0,.6.2.8.3-.3.2-.6.4-1,.5,0-.3,0-.5.2-.8Z"/>
    <path d="M377.9,133.4c.4,0,.7.2,1,.4,0,0-.2.3-.3.3-.3-.2-.6-.4-.8-.7Z"/>
    <path d="M67,37.6c0,.4,0,.7,0,.9-.2,0-.4-.1-.6-.2.1-.3.3-.6.5-.7Z"/>
    <path d="M739.1,202.2c.2.2.4.4.5.7-.2,0-.4.2-.6.2,0-.3,0-.5.1-.9Z"/>
    <path d="M574.7,181.8c-.4,0-.7-.2-1-.4,0,0,.2-.3.3-.3.3.2.6.4.8.7Z"/>
    <path d="M161.2,97.8c-.2-.2-.4-.5-.5-.7.2,0,.4-.1.6-.2,0,.3,0,.6,0,.9Z"/>
    <path d="M558.9,184.7c0,.3-.2.5-.4.8-.1-.1-.3-.2-.4-.3.2-.2.4-.3.8-.5Z"/>
    <path d="M47.5,44c.5-.8.9-1.5,1.5-2,.3-.3.9-.8,1.2-.7.4.1.7.8.9,1.2,0,.1-.2.6-.5.7-1,.4-2,.7-3.1.8Z"/>
    <path d="M48.2,55.1c0-.6,0-1.2,0-1.7.2.2.6.5.6.7,0,.4-.3.8-.6,1Z"/>
  </g>
</svg>