<?xml version="1.0" encoding="UTF-8"?>
<svg id="Layer_1" xmlns="http://www.w3.org/2000/svg" version="1.1" viewBox="0 0 484.3 368.2">
  <!-- Generator: Adobe Illustrator 29.3.1, SVG Export Plug-In . SVG Version: 2.1.0 Build 151)  -->
  <g id="Shape_2">
    <path d="M327.6,290.5c0,.5-.2,1.2,0,1.5,1.9,3.1-.2,5.8-.6,8.7-.1.8.4,1.7.7,2.6.4-.5.8-1,1.2-1.6.3-.4.7-.8,1-1.2.2.6.5,1.1.5,1.7.2,1.5,0,3.1.3,4.6.9,3.3,1.5,6.4-2.2,8.6-1.5,1-2.9,2.4-3.9,3.9-.6,1-.4,2.5-.3,3.8,0,.4.9.7,1.4,1,.2-.5.5-1,.5-1.6,0-2.1,1.1-3,3.1-2.8,1.9.2,2.6,1,1.3,2.8-1.7,2.3-3.5,4.6-5,7-1.6,2.6,0,5.1.8,7.6,0,.3.6.5.9.7.3-.5.8-1,.8-1.5.3-2.9.4-5.7.7-8.6,0-.6.5-1.1.7-1.7.6.4,1.8,1.1,1.7,1.2-.8,2.2,2.9,5.2-1.3,6.7-.2,0-.4.5-.3.6,2,6.7,0,13-2.1,19.3,0,.3-.3.8-.2.8.6.2,1.3.7,1.9.6,3.8-.9,7.5-2,11.3-3,1.8-.5,3.6-1.1,5.4-1.2,2.5-.2,3.1-1.4,3-3.6,0-.5.4-1,.6-1.5.2.5.5.9.6,1.4,0,.2,0,.5,0,.6.5.8,1.1,1.5,1.6,2.3,0-.8.1-1.7.3-2.5.2-1,.3-2,.7-2.8.2-.4,1-.6,1.5-.8.2.6.5,1.2.7,1.7.3.7.5,1.3.8,2,.4-.6,1.2-1.1,1.2-1.8,0-.9-.1-2-.5-2.9-1.3-2.9-1.8-3-3.8-.8-.7.8-1.6,1.4-2.4,2.1.4-1.3.7-2.6,1.1-3.8.2-.6.5-1.2.8-1.8-.8-.4-1.5-.8-2.4-1-.4-.1-1,.2-1.5.3.3-.4.7-.7,1-1.1.3-.3.9-.8.8-.9-2-3.5,1.8-4.1,2.9-6.1.2-.4-.2-1.2-.5-1.7-.3-.5-.8-.8-1.2-1.2.5-.2.9-.5,1.4-.6,2.9-.7,4.1-3.1,2.5-5.7-2.9-4.8-3.4-9.9-2-15.2.5-1.8,2-3.3,3-5,.3-.4.6-1.1.4-1.5-.2-.4-.9-.5-1.4-.6-.7,0-1.3,0-2,0,.8-.5,1.5-1.3,2.3-1.4,2.8-.3,4.3-1.9,4-4.5,0-.4-.2-.8-.3-1.1-.4.2-.9.4-1.3.6-1.4,1.1-2.8,2.2-4.1,3.5-1.1,1.1-2,2.4-3.1,3.7-.6.7-1.2,1.3-1.8,2,0-1.1-.5-2.4,0-3.2,2-3.1,4.3-5.9,6.3-9,3-4.6,2.8-5.9-2.3-6.2-4.2-.3-2.8-2.7-2.7-4.5.2-3.7.6-7.5,1.2-11.2.9-5.9-.9-11.8,1-17.8.9-2.6-.9-6-1-9.1-.2-4.9-.2-9.8,0-14.7.3-10.8-2.2-21.2-4.6-31.6-1.8-7.7-4.2-15.3-7.1-22.7-1.7-4.4-5-8.2-7.6-12.2-2.1-3.3-4.1-6.7-6.4-9.8-.7-.9-2.3-1.2-3.5-1.8-1-.5-2.4-.7-3.1-1.4-2.8-2.9-5.4-6.1-7.9-9.2-.1-.2.2-1.2.5-1.2,2.4-.4,1.4-1.4.3-2.2-1.9-1.5-3.7-3-5.7-4.4-.3-.2-1.2.4-1.8.7-.6.4-1.1.9-1.6,1.4-.2-.8-.9-1.7-.7-2.3,1.3-3.1-1.5-4.2-2.8-6.1,0-.1-.6,0-.6,0-.2.5-.3,1-.4,1.5-.1.6-.2,1.3-.3,1.9-.6-.6-1.7-1.1-1.8-1.8-.3-2,.5-4.5-2.5-5-1.1-.2-3.1-3-3.3.8,0,.2-1.2.5-1.6.3-.6-.3-1.4-1-1.4-1.5.1-3.2-1.7-4.4-4.5-4.7-.7,0-1.4-.3-1.9-.6-2.2-1.4-4.4-1.8-6.8-.6-.6.3-1.3.5-1.9.8.8.4,1.5.9,2.3,1.1,2.4.5,4.9.8,7.3,1.3.6.1,1.1.9,1.7,1.3-.6.2-1.3.6-1.9.5-4.1-.5-8.4-.3-11.8-3.3-.3-.2-.7-.4-1.1-.4-3.9-.2-3.9-.2-3.1-4.5,0-.3-.4-1.1-.6-1.1-1.6,0-3.1-.1-4.7,0-.5,0-1.2.6-1.3,1,0,.4.5,1,.9,1.4.3.2.9,0,1.2.1.7.5,1.3,1.2,1.9,1.7-.9.2-2,.7-2.7.5-5.8-1.8-11.8-2.7-17.9-2.9-1,0-1.9-.7-2.9-1,.6-.6,1.2-1.1,1.8-1.7.4-.4,1.1-.8,1.2-1.4.2-.9.1-2,.2-3-.7.6-1.3,1.2-2,1.8-3.4,3-7.2,5.2-11.9,5.3-.5,0-1-.2-1.4-.4-2-1.5-3.8-1.8-5.6.2-.4.5-1.3.9-1.8.8-4-.8-8.1,2-12.1-.4-.4-.2-1.4.4-2.1.7-2.1.8-4.1,1.8-6.3,2.3-5.4,1.1-10.9,2-16.4,2.8-2.1.3-4.2,1.9-6.4,0-.4-.3-1.4,0-2.1.4-1.3.5-2.6,1.5-3.9,1.8-4.5,1.2-9.2,2-13.7,3.2-2.5.7-4.8,1.9-7.2,2.9-.3.1-.6.1-.9.2-5.3.8-10.1,3.4-15.1,5.1-2.2.8-4.6,1.8-6.8,1.6-3.1-.2-5,1.7-7.3,3-.4.2-.9.3-1.3.4,0-.6-.4-1.7-.2-1.9,1.1-.8,2.3-1.6,3.5-2,1.2-.4,2.4-.3,1.3-2.3-.9-1.6.1-2.4,2-2.9.7-.2,1.1-1.5,1.7-2.2-.7-.2-1.4-.8-1.9-.7-1.3.5-2.6,1.1-3.5,2-2,2-3.9,4.2-5.7,6.3-.3.4-.6.8-.7,1.3-.7,3.4-2.5,5.4-5.8,6-2.4.4-5.1.4-7.3,1.4-2.9,1.3-4.8-.1-6.8-1.5-.5-.3-1-1.4-.8-1.8.3-.6,1.1-1,1.8-1.2,1-.4,2-.6,3.1-.9-.2-.4-.3-1.2-.5-1.2-1.2,0-2.5,0-3.6.4-3.2,1.1-6.3,2.4-9.5,3.6-.7.3-1.3.7-2,1,.4.3.7.9,1.2,1,.9.3,1.9.6,2.8.5.6,0,1-1,1.6-1.3,1-.3,2-.3,3.1-.5-.6.7-1.2,1.3-1.8,2-1.3,1.4-3.1,2.5-2.6,4.9.1.6-.5,1.4-.7,2.2-.4-.6-1-1.1-1-1.8-.3-3.2-3.1-4.4-4.9-6.4-.2-.2-.5-.4-.7-.5-4.3-1.3-11.7,4.9-11.3,9.4,0,.4.3.8.5,1.3.3-.3.5-.7.8-1,.5-.4,1.1-1,1.5-.9,3.2,1.2,5.8-.7,8.7-1.3.9-.2,1.9.1,2.8.2-.6.6-1.2,1.3-1.9,1.6-2.3,1.1-4.7,2.3-7.2,3.1-1,.3-2.3-.2-3.4-.2-.6,0-1.6.2-1.9.7-1.7,2.6-4.5,2.9-7.1,3.2-.8,0-2.2-2-2.7-3.3-.3-.6.7-2,1.4-2.7.9-.9,2.2-1.3,3.2-2.1.4-.4.3-1.3.5-1.9-.7,0-1.6-.4-2.1,0-1.9,1.3-3.6,2.8-5.5,4.1-1.4,1.1-2.4,3.2-4.8,2.3-.3,1-.6,2-.9,3-.3.8-.5,1.7-.8,2.5-.4-.6-.7-1.2-1-1.8-.5-1-1-1.5-1.8-.3-.4.6-1,1.1-1.5,1.6-.6-.8-1.4-1.5-1.7-2.3-.6-2-.9-4-1.3-6-.6-3.1,1.9-5,3.1-7.5,0-.2.8-.2,1.2,0,.2,0,.5.6.4.8-.4,2.7-.9,5.5-1.3,8.2,0,.8.4,1.7.6,2.5.6-.4,1.3-.9,1.9-1.3,0,0,.1-.2.2-.2,1-.9,2.1-1.8,3.1-2.7-1.1-.6-2.3-1.2-3.3-2,0,0,.5-1.6,1-1.9,2.3-.9,2.9-2.6,2.9-4.7,0-1.3,0-2.6,0-3.8.3.1.7.2.9.4.9,1.5,3,2.6,2,4.9-.5,1.2-1.2,2.4-1.6,3.7-.1.5.5,1.2.7,1.8.4-.5.8-.9,1.1-1.5.8-1.9,1.3-3.9,2.2-5.8.3-.5,1.6-.5,2.4-.8,1.3-.4,2.7-.6,3.8-1.3,1.5-.9,1.2-1.9-.5-2.5-.5-.2-.7-.8-1.1-1.3.6-.1,1.4-.6,1.7-.4,3.2,2.7,3.1-.3,4-2.1.5-1,1.3-1.8,2.2-2.5.2-.2.9,0,1.4.2-.2.4-.3.9-.5,1.3-1.1,2-1.1,1.9,1.1,2.4.3,0,.6,1.6.4,2.3-.4,1.4-1.1,2.6-1.7,3.9,1.3-.2,2.7-.4,4-.8,4.2-1.3,8.3-2.6,12.4-4.1.5-.2.4-1.7.6-2.7-.7,0-1.6-.3-2.2,0-.5.2-1,.8-1.3,1.4-1.8,2.5-5.1,3.8-8.1,2.9-.5-.1-1.2-.6-1.3-1.1-.6-2.5,2.3-5.7,4.9-5.8,3.1-.2,6.2-.3,8.5-3,.3-.3,1.1-.3,1.7-.3.7,0,1.4.3,2.1.2,1.2-.3,2.3-.7,3.5-1.1-1.1-.4-2.2-1-3.3-1.3-1-.2-2.1,0-3.1,0-.5,0-1.1-.1-1.6-.2.5-.4,1-1.1,1.5-1,3.1.3,6.4-2.1,9.4,1.1,1.5,1.5,4.9-.4,6.3-2.4.6-.9,1.9-1.2,2.9-1.8.1,1.1.5,2.3.3,3.3-.2,1-.9,1.9-1.4,2.9-.2.5-.4,1-.5,1.5.5,0,1,0,1.5,0,2.2-.2,3.1-1.4,3-3.7,0-.7.8-1.4,1.2-2.1.2.7.4,1.5.7,2.2.2.4.3.9.6,1.3.1.1.8-.2,1-.5.5-.8.8-1.8,1.4-2.5.7-.9,1.5-1.7,2.4-2.2.3-.2,1.2.5,1.8.7-.3.4-.7.8-1,1.3-.4.6-.6,1.2-.9,1.8.8,0,1.9.2,2.3-.2,1.9-2.2,4.2-2.7,6.9-2.5.4,0,1-.2,1.3-.6.4-.5.6-1.1.9-1.7-.5.1-1,.4-1.5.4-1.1-.1-2.3-.2-3.1-.8-.4-.3.1-1.8.4-2.6,0-.3,1.1-.6,1.2-.5,2.2,2.7,4,.5,5.4-.8,1.4-1.3,2.2-3.3,3.3-4.8.6-.7,1.5-1.1,2.2-1.7-.1.8,0,1.7-.4,2.4-.5,1.2-1.5,2.3-1.9,3.6-.3.9-.4,2.3.2,2.9.6.6,1.9.9,2.9.8.9,0,1.8-.6,2.7-1,.6-.3,1.1-.7,1.7-1.1-.6-.3-1.2-.5-1.9-.8-.2,0-.4,0-.6,0-1.2,0-2.4.1-3.6.2,1-.9,1.9-2,3-2.7,2.3-1.5,4.7-2.8,7.1-4.1.5-.3,1.4-.2,1.9,0,.3.2.2,1.1,0,1.6-.5,1.5-1.2,2.7.3,4.4,1,1.1,0,2-1.5,2.4-1.9.4-3.7,1.2-5.5,1.8-1.6.5-3.2.8-4.8,1.3-1,.3-2.4.4-2.9,1.1-.6.7-.4,2-.5,3.1.5-.4,1-.9,1.5-1.1,1.3-.4,2.7-.5,4-.9,3-1.1,5.9-2.3,8.9-3.4,2.8-1,3.7-3,2.8-5.6-.8-2-1.2-3.9,2.1-3.9.7,0,1.4-.6,2-1.1.3-.2.3-.7.5-1-.4,0-.9-.1-1.2,0-.5.2-1,.7-1.5.8-.8.2-1.7,0-2.6,0,.5-.8.8-1.9,1.5-2.4.7-.5,2-.9,2.8-.6,3.5,1.2,6.8,0,10.2-.6,1.2-.2,2.6.7,3.8,1.1.6.2,1.2.3,1.9.5,0-.8,0-1.6-.2-2.3-.1-.6-.5-1.2-.7-1.7.6.1,1.4,0,1.9.4,1.9,1.4,2.7.8,3-1.3,0-.6.6-1.2,1-1.7.3.5.5,1.1.9,1.5.8.6,1.8,1.1,2.7,1.7.6.4,1.2.8,1.6,1.4.3.4.3,1.1.4,1.7.7-.5,1.9-1,2-1.6.5-3.3,2.6-3.1,5-2.7.3,0,.7-.1,1.1-.2,0-.3-.2-.6-.3-.9-.3-.6-.8-1.1-1.1-1.7-1.4-3.6-1.3-3.6-5-3.6-.7,0-1.4-.4-2.1-.6.9-.6,1.8-1.5,2.8-1.9.9-.3,1.9-.2,2.9-.2-.2-2.5-2.3-1.8-3.5-1.6-1,.2-1.9,1.4-2.7,2.2-.4.4-.6,1-1,1.5-.3-.5-.9-1-.9-1.5-.2-2.7-1.9-3.4-4.4-3.6-3.7-.4-7.4-1.2-11.1-1.8-.5,0-1-.6-1.4-.9,3.6-4-1.3-1.5-1.9-2.3-.5-.7-2-.7-2.9-1.2-2.4-1.4-4.2-1.2-5.3,1.6-.2.4-.9.7-1.4,1,0-.6.1-1.1.2-1.7,0-.6,0-1.2,0-1.8.1-.6.4-1.2.6-1.8-1-.3-2-.7-3-.8-.5,0-1.2.5-1.7.4-.6-.1-1.1-.7-1.6-1.1.4-.5.8-1.1,1.4-1.4,3.3-1.7,6.6-.7,9.9,0,.6.1,1.2.2,1.8.4-.4-.4-.7-1-1.2-1.3-2.2-1.2-4.4-2.5-6.7-3.4-.7-.3-1.8.5-2.7.9-.8.3-1.7.9-2.4.8-.9-.1-1.7-.9-2.5-1.4.7-.3,1.4-.6,2-1,5-3,9.7-2,14.2,1.3.7.5,1.3,1.2,1.9,1.8.5.5,1.5,1.4,1.7,1.2,2.5-1.5,4,.5,5.9,1.3,1.4.6,3.2.4,4.7.7.7.1,1.4.6,2.1,1-.5.5-1.1,1-1.6,1.5-2,2.1-4.1.9-6.2,0-.9-.4-1.7-.9-2.6-1.3-.1.3-.4.7-.3.8.8.8,1.5,1.8,2.4,2.3,1.4.7,2.9,1.3,4.4,1.5,1,.1,2.3-.2,3.2-.8,1.9-1.4,3.5-3.7,6.3-1.6.2.2.6.4.8.3,4.5-.9,8.1,1.4,11.8,3.4.6.3,1.4.4,2,.4.8,0,1.6-.2,2.4-.3-.5-.5-1-1-1.5-1.5-4.1-4.1-8-8.4-12.4-12.3-5-4.5-10.4-8.5-16.4-11.7-3.6-2-6.4-5.4-9.1-8.6-.9-1.1-.7-3.4-.6-5.1,0-.4,1.6-.8,2.4-1.2,0,.5,0,1.1,0,1.5.2.6.5,1.4,1,1.7,1.2.7,2.5,1.1,3.9,1.6.1,0,.5-.6.7-.9-.3-.2-.7-.5-1-.7-.5-.5-1-1-1.5-1.6.8,0,1.6-.4,2.3-.1,2,.7,4,1.6,5.8,2.7.7.4,1,1.6,1.3,2.5.3.9.5,1.9.6,2.9.1.8.2,1.6.3,2.4-.7-.3-1.5-.5-2.1-.9-.4-.3-.7-.9-1.1-1-.9-.2-1.8-.1-2.8-.1.3.7.5,1.8.9,1.9,1.8.6,3.8,1.1,5.7,1.3.3,0,9,4.1,2.3-2.8-.6-.6-.3-2.2-.4-3.3,1,.6,2.5.9,2.9,1.8,1.3,2.7,4.9,3.9,4.5,7.9-.3,2.2,2,2.7,4,1.5,1-.6,2.4-.4,3.6-.6,1.9-.2,1.8,1,2.3,2.4.8,2.2,2.3,4,3.6,6,.2.2,1,.4,1,.3.4-.8.8-1.6.9-2.4.1-1.8-.3-3.7.1-5.4.3-1.3,1.6-2.4,2.4-3.7.6-1,.8-2.1,1.2-3.2-.4-.1-.9-.5-1.3-.4-.5,0-1,.4-1.5.7,0-.6,0-1.3.2-1.9.7-3.3,2.4-6.6.9-10.1-.2-.6.3-1.5.6-2.2.1-.3.5-.5.7-.7.2.3.5.6.5.9,0,1,0,2.1,0,3.1,0,.5.5,1,.8,1.5.3-.4.9-.9,1-1.3.5-2.9.8-5.9,1.3-8.9.4-2.2,1-4.3-.5-6.5-.5-.8-1.1-3.8,2.1-2.6,0-.3.3-.7.2-.9-2.5-4.4-2-8.7-.8-13.5.8-3.2.1-6.8.2-10.3,0-.7.5-1.4.8-2.2.4.6,1.2,1.2,1.3,1.8.4,3,.7,6,1,9,0,.6.5,1.1.7,1.7.2-.5.5-1,.5-1.5.2-2.8.4-5.7.7-8.5,0-.6.6-1.2.9-1.8.5.6,1.3,1.1,1.6,1.8,1.4,4.3.7,8.6.6,13,0,.7-1.1,1.9-1.9,2-2,.3-1.8,1.1-1.3,2.7.6,1.8.9,3.8.6,5.6-1.3,8.3-2.9,16.5-4.3,24.8-.7,4.4-1.2,8.9-1.9,13.3-.3,1.6-.7,3.3-1.3,4.8-1.1,2.4-.3,4.4.7,6.5.9,1.8,1.3,3.8,1.9,5.8.1.4.4.8.6,1.1.2-.4.5-.7.6-1.1.3-.7.5-1.3.7-2,.4.7.9,1.4,1.2,2.2.8,2.4,1.1,5.2,3.9,6.5,2.7,1.2,5.4,2.7,8.2,3.6.7.3,2.8-1.2,2.8-1.4-1-3.3,1.8-2.3,2.7-2,3.2,1,6.9-1.2,9.7,1.7.3.3,1.2,0,1.8,0,4.6.2,9.3.6,13.9.5,2.5,0,4.9-1.1,7.2.7.5.3,1.5-.3,2.3-.2,1.1.1,2.2.3,3.2.7.9.3,1.8,1.5,2.5,1.4,4.9-1.1,8.1,2.3,11.9,4.2.7.4,2,.7,2.5.4,2.7-1.6,5-1,6.1,2,.5,1.4,1.3,2.3,2.5,1.2,1.3-1.2,1.7-.5,2.7.2,1.4,1,3.1,1.7,4.8,2,1.8.4,2.1.9,2.1,2.8,0,1.6,1.7,3.2,2.6,4.8.9,1.6,1.4,2.7,4.1,2.1,1.6-.4,3.8,1.9,5.7,3.2,2.1,1.5,4.2,3.1,6.1,4.9.9.9,1.2,2.4,2,3.5.7.9,1.5,2.1,2.5,2.4,2.1.6,7.2,4.8,7.4,7,.2,2.8,1.3,4,4.2,3.8.7,0,1.6,1,2.1,1.8,1.2,2,2.1,4.1,3.4,6.1,1.8,3,4,5.8,5.6,8.9,1,2,2.3,2.3,4.1,1.7,3.7-1.4,7.4-2.8,11.1-4.2.7-.3,1.3-1,2-1.3,1-.3,2.5-.9,2.9-.4,2.1,2,2.3.3,2.9-1.2.3-.8.7-1.6,1.2-2.3.1-.2,1.1,0,1.2.2,1.7,2.7,5.1,3.6,7.4,1.6,1.6-1.4,3-2.7,5.4-2.3.3,0,.8-.2,1.1-.4,5.1-3.3,9.6-2.1,12.5,3.2.4.8.9,1.7,1.6,2.1,1.5.8,2.8,1.5,1,3.2-.2.2.1.7.2,1.1.3-.2.7-.4,1-.6.5-.2,1-.4,1.5-.6,0,.5,0,1-.1,1.5,0,.6-.3,1.4,0,1.8,2,2.8,4.1,5.6,6.2,8.3.6.8,2.1,1.3.5,2.7-.3.2,0,1.7.3,1.8,5.4,2.4,10.7,4.9,16.2,7,4.9,1.9,6.5.3,6.3-4.9,0-1,1.6-2.8,2.7-3.1,3.9-.9,4.9-4.2,6.5-6.9.4-.7.2-1.9.7-2.5,1.7-2.1,3.7-4.1-1.3-4.2-.2,0-.4-.4-.6-.6.4-.3.7-.7,1.2-.9.9-.3,8.5-5.9,8.8-6.6.2-.4.4-1.2.7-1.2,5.9-.4,1.8-4.3,2.2-6.5.1-.6-.3-1.4,0-1.9.3-.7,1.1-1.3,1.6-1.9.2.7.4,1.4.6,2.1.7,2.5,1.3,5.1,2,7.6,0,0,1.1,0,1.1-.2.1-1,.2-2,0-2.9-.3-1.4-.9-2.8-1.2-4.2-.5-2.2.2-3.5,2.6-4.2,1.3-.4,2.3-1.8,3.5-2.7.7-.5,1.7-2.9,2.1.3,0,.4,1.3,1.1,1.9,1,.5-.1.9-1.1,1.2-1.8.7-2.4,1-5.1,2.1-7.3,1.4-2.7,4.3-1.2,6.5-1.3.2,0,.6,2.3.8,3.6.1.8-.1,1.6,0,2.3.2.7.6,1.4.9,2,.5-.8,1.3-1.6,1.5-2.5.3-1.8.2-3.7.3-5.5.1,2,.3,4,.4,6,0,.4,0,.8,0,1.3,0,4.4-1.3,5.7-5.5,4.5-4.3-1.2-6.2,2.2-8.7,4.1-2.3,1.8-3.8,4.6-5.8,6.8-1,1.1-2.3,1.9-3.4,2.9-1.7,1.4-2.1,4.4-5.2,4.1-.3,0-.8,1.3-1.2,2.1.7,0,1.5.1,2.2.1.6,0,1.1,0,1.7,0-.3.5-.5,1.3-1,1.5-3.8,2.1-5.2,5.7-6.3,9.6-.5,1.7-1.7,3.2-2.4,4.9-.2.6.2,1.4.3,2.2.5-.1,1-.2,1.6-.3.4,0,.7-.1,1.1-.2,0,.4-.1.7,0,1.1,0,2.1,0,4.1.3,6.2,0,.5,1,.9,1.6,1.3.3-.7,1-1.8.8-2.1-1.2-1.6-.2-1.7,1-2.3,1.1-.5,1.9-1.4,2.9-2.2,2.8-2.1,5.4-.6,7.5,1.1.9.7.7,2.8,1,4.2,0,.5.1,1,.1,1.5,0,1.1.6,2.5,0,3.1-1,1.4-2.1,2.9-4.5,2-.7-.2-2.2,1-2.9,1.9-1,1.1-2.1,2.4-.4,4.1,3.6,3.4,7.4,6.6,10.2,10.5,1.3,1.8,2.2,3.3,4.3,4,.2,0,0,1.1,0,1.7-1.8,0-3.5-.2-5.3-.2-.4,0-.9,0-1.3,0,0,.5,0,1,.2,1.5.9,1.7,3.5,2.1,6,.7,1.7-1,2.9-1.8,4.3.2.1.2.5.5.7.4,3.5-1.1,5.1,2.3,7.8,3.2.3,0,.6,1.1.4,1.4-.8,1.6-1.5,3.2-2.7,4.5-1.4,1.6-2.7,3-5.6,2.6-8.6-1.4-13.6-7.1-18.5-13.5-3.7-4.9-8.1-9.2-12.3-13.6-1.3-1.4-3.2-2.7-5-3-1.2-.2-3.6-2.7-4.4.7-.4-.3-1-.5-1-.8-.5-3.3-1.1-3.6-4-1.7-.5.3-1,.5-1.5.7.2-.6.5-1.1.6-1.7.1-.4.2-1.1,0-1.2-.4-.3-1.2-.6-1.4-.4-4.2,3.6-7.4.8-10.7-1.5-1.4-1-3.1-1.1-4.5-1.5-5.5-1.8-11.5-3.4-14.6-9.1-2.2-4.2-4.3-8.4-6.4-12.7-1.4-2.9-7-4.4-10.5-3.1-1.3.5-3,0-4.4.2-2.1.4-4.1,1.1-6.2,1.7-1,.3-2,1.4-2.9,1.3-4.6-.8-7.6,2.5-11.3,4-5.6,2.3-5.6,6.4-1.9,10.1,2.6,2.6,3.5,5.4,3.7,8.9.2,4.2.8,8.4,1.3,12.6,0,.4,1.3.5,1.5.9.8,1.5,1.9,3.1,2.1,4.7.3,2.8,0,5.7.2,8.5.2,2.4.8,4.9,1.5,7.2.7,2.2.4,3.3-2.2,3.3-1.9,0-4,2.8-3.7,4.7,0,.3.3.6.5.9.3-.2.8-.3,1-.6.7-.8,1.3-1.8,2-2.6.3-.3,1-.2,1.5-.2,0,.6.3,1.3,0,1.7-1.8,2.5-3.7,5-5.5,7.4-.3.4-.8.8-.8,1.2,0,.7.3,1.3.4,2,.5-.2,1.2-.3,1.5-.7,1.1-1.2,2-2.5,3-3.7.4-.5.9-1,1.3-1.4.2.6.5,1.2.6,1.8.2,5.2-2.3,9.2-5.2,13.2-1.4,2-2,4.6-2.9,6.9,0,.1.3.6.5.6.5,0,1.2,0,1.4-.3.7-.9,1.2-2,1.9-3,.6-.9,1.1-2,1.9-2.6,1.6-1.2,3.2-.3,3,1.6-.3,2.1-1.1,4.1-1.5,6.2-.2.9-.5,2.3,0,2.9,2,2.4,0,4.4-.3,6.6,0,.4-1.4,1.2-1.5,1-1-.9-1.9-1.9-2.8-2.9-.3-.3-.2-.9-.3-1.4-.3.5-.9,1-.9,1.5.1,3.4-1.2,6-3.7,8.2-.2.2.2,1.5.4,1.5,1.9,0,4.1.6,4.5-2.3.1-.8.2-1.7.7-2.2.5-.6,1.5-1,2.3-1,.5,0,1.3,1,1.3,1.6,0,2.7-.3,5.3-.5,8,0,.7,0,1.4,0,2.2,0,.7-.3,1.7,0,2.2,1.4,2.1-5.8,1.6-1.3,4.9,1,.7.3,4.3,0,6.5-1,6-2.2,11.9-3.4,17.8,0,.4-.4.8-.3,1.1,2.1,5.6,0,11.3.6,16.9.2,1.6,0,2.9-2.2,2.8-.6,0-1.2.7-1.7,1.1-.8.6-1.4,2-2.5.3,0,0-.7.2-1.1.3,1.1,1.5,2.3,3,3.4,4.5.3-.5.6-1,1-1.4.8-.8,1.7-1.6,2.6-2.4.2.9.4,1.7.5,2.6.2,2.1.7,4.2.6,6.3-.2,4-.5,8-1.3,11.9-.5,2.6-3.1,3-5.8,3.1-5.3.3-11.1-1.6-15.9,2.5-.5.4-1.5.4-2.3.4-5,.2-10.1,1-15.1.4-3.6-.4-7.8-1-10.3-4.5-.3-.5-.4-1.1-.6-1.6.5-.2,1-.5,1.5-.5,4.4-.4,7.3-3.2,9.9-6.2.4-.5.3-1.5.5-2.3.3-1.1.7-2.2.9-3.4.1-.6.3-1.6,0-1.9-3.1-2.5-.6-4.5.4-6.7.5-1,.5-2.2.5-3.3,0-.6-.5-1.5-.3-1.8,1.9-2,1.3-4.2,1.1-6.6-.2-2.2.4-4.5,1.2-6.6.3-.9,2.1-1.1,3.1-1.9.6-.5,1.3-1.8,1.1-2.1-1.5-2-.4-3.3.6-5.1.8-1.4,0-2.6-1.9-2.1-1.7.4-3.3,1.2-5,1.6-1.5.4-2.9,1.1-3.2-1.8-.2-2.9-1.9-5.6-.6-8.7.1-.3-1.2-1.1-1.4-1.8-.2-.7.3-1.6.4-2.3.6.4,1.2.7,1.7,1.2.5.5.8,1.1,1.2,1.6.2-.7.6-1.5.7-2.2.2-1.7.3-3.4.2-5-.2-2.8-.5-5.6-.9-8.4,0-.3-.8-.5-1.2-.8,0,.4,0,.9,0,1.3-.4,3.3-.8,6.5-1.3,9.8,0,.2-.5.5-.6.4-.4-.2-1.2-.6-1.1-.9,0-1.6,0-3.3.6-4.8,1-2.8.6-5.3-1.6-6.7-2.4-1.5-4.8-1.8-6.7.9-3.4,4.9-6.9,9.6-9.9,14.7-2,3.4-3.6,7-5,10.8-.6,1.6-3.2-.7-2.7,2,.5,2.3.7,4.7.7,7,0,2.2-.2,4.4-.5,6.6,0,.4-.7.8-1,1.1-.1-.5-.3-.9-.4-1.4-.2-.8-.4-1.6-.6-2.4-.2.2-.6.3-.6.5-.1,1.1-.7,2.7-.2,3.3,2.1,2.3,3.5,4.5,1.5,7.5-.2.3.3.9.4,1.4.4,2.3.8,4.5-2.6,5-.8,0-1.7.8-2.1,1.5-.4.6-.2,1.5-.3,2.3.7-.1,1.3-.2,1.9-.4.8-.3,1.6-.6,2.4-.9,0,.8.1,1.6.2,2.4.9,6.1-1.8,11.6-2.9,17.3-.5,2.4-3.8,4.2-5.9,6.2-2.7,2.5-5.7.4-7.7-.6-4.9-2.4-10.2-3.1-15.2-4.9-4.1-1.5-7.7-7.8-6.3-11.9.7-1.9,0-2.7-.8-3.9-.9-1.5-1.2-2.8,1-3.4,1.7-.4,1.7-1,.7-2.5-1.3-1.9-2-4.2-3-6.3-.3-.6-.7-1.2-.8-1.8-.2-1-.2-2-.3-2.9.6.1,1.3.5,1.8.3,1-.3,1.9-.8,2.9-1.3-.5-.6-1-1.3-1.6-1.8-.8-.6-1.7-.9-2.4-1.6-.3-.3-.4-1.5-.2-1.6,4-2.1.6-4.6.3-6.9,0-.6-.7-1.2-.7-1.9,0-.4.5-.8.8-1.2.3.4.8.7,1,1.1.3.8.5,1.7.8,2.5.4-.2,1-.4,1.1-.7.3-1,.9-2.3.6-3.1-.8-1.8-3.6-3.7,1-4.2.2,0,.6-2.4.1-2.7-4.5-3.9-5.1-8.6-3.6-14,.1-.5-.6-1.7-1-1.7-2.3-.4-2.2-.5-1.8-2.7.4-2.6.6-5.2.3-7.8-.3-2.5-2.2-2.8-3.7-1.2-3.5,3.7-6.8,7.5-9.9,11.5-1.9,2.4-3.8,5.1-5.1,7.9-1.9,4.3-4,8.7-4.8,13.3-1.1,5.9-1.5,12-1.3,17.9.2,5.8,1.5,11.6,2.3,17.5,0,.5,0,1,0,1.5.1,4.2-.2,4.4-4.1,2.6-1.3-.6-2.8-.9-4.2-1.3-.3,0-.8.3-1.2.5.4.2.7.5,1.1.7,1.9.9,3.9,1.8,5.7,2.8.4.3.5,1.2.7,1.8-.5,0-1-.1-1.5-.2-4.1-.6-8.3-1-12.3-2-3.8-1-7.5-2.6-11.2-3.9-1-.4-2-.9-3-1-6.8-.7-12.1-4.1-13.3-11-.3-2.1-.7-4.2-.6-6.3,0-1.4.9-2.7,1.5-4,.3-.7,1.3-1.2,1.5-1.9.2-.9,0-1.9,0-2.9-.7.5-1.4.9-2,1.5-.7.7-1.1,1.6-1.7,2.4-.3.4-.8.8-1.2,1.2-.2-.6-.8-1.5-.6-1.9.9-1.5,1.7-3.3,3.1-4.3,2.5-2,4-4.4,3.8-7.8.5-.2,1-.2,1.6-.1.5,0,1,.2,1.5.4-.2-.4-.6-.9-.5-1.3.1-2,.4-4,.6-6,0-.5,0-.9.1-1.4-.5,0-1,0-1.4.2-.7.2-1.3.5-1.9.6-.7,0-1.5,0-2.2-.1.6-.6,1.1-1.5,1.8-1.7,2.5-.5,3.7-2,4.4-4.2.1-.4.2-.9.4-1.3-.5.2-1.1.3-1.5.6-.4.3-.7.9-1.1,1.1-.7.3-1.4.3-2.1.5.4-.4.8-.8,1.1-1.3.3-.4.7-.9.7-1.3-.1-3.3-.3-6.6-.6-9.9-.2-1.4-3.7-2.5-4.9-1.4-2.7,2.5-5.5,5-7.5,8.1-2.2,3.5-2.9,7.9-5.3,11.2-2.5,3.6-3.6,7.5-5,11.5-.9,2.5-2.2,5-3,7.5-.4,1.4.1,3-.1,4.5-.2,1.1-1,2.1-1.6,3.2-.9-1.3-2-2.5-2.7-3.9-.7-1.6-.9-3.4-1.3-5.1,0-.2,0-.7.2-.8.2-.1.6,0,.8,0,3.5,2.9,2.8-.4,2.6-2-.2-2.3-1-4.6-1.4-6.9,0-.4.7-1.3,1.1-1.2,2.8.1,2.3-1.9,2.1-3.4-.3-2.1-.4-2,1.6-3,.5-.3,1.1-1.6.9-2-1.7-3.1.8-5.7,1.1-8.5.4-4,1.3-8,2.2-11.9.2-1.1,1-2.1,1.5-3.1.3,1,.6,2,1,2.9.2.5.4.9.7,1.4.2-.4.5-.8.6-1.2.4-1.5.5-3.1,1.1-4.6,1.3-3.2,6-5.6,9.3-4.1,2.8,1.3,5.8,1.7,8.6,2.6,4.6,1.5,4.8,4.7,5.4,8.1.6,3.1.8,6.2,1,9.3,0,.5-.6,1.2-1,1.5-3,2-3.5,4.7-3.2,8.2.4,4.1-.3,8.2-.5,12.4-.2,3.9-1.9,8.6-.3,11.4,2.4,4.4,3,10.3,7.9,13,3.2,1.8,6.8,2.8,10.2,4.1.6.2,1.3.5,1.9.6,3.7.9,6.2-.5,7.2-4.1.3-1,1-2,1-3,0-1.2-.1-3-.9-3.5-3.4-2.1-2.2-6.3-4.5-8.9-.1-.1.3-1.2.5-1.2,3.9.2,1-1.7.9-2.8-.1-2,0-4,0-5.9,0-2.3-.3-4.5-.1-6.8,0-1.2.8-2.4,1.1-3.6.5-2.1.9-4.2,1.4-6.3.2-.9.8-1.7,1.3-2.6,0,0,.6,0,.6.1.1.9.3,1.9.2,2.8-.4,2.6-1,5.2-1.5,7.8,0,.3.1.8.2.8.4,0,.9,0,1-.3.9-1.8,2.1-3.6,2.4-5.6.4-3-.3-6.3,1.9-8.9.3-.3.2-1.1,0-1.5-1.6-5.1,1-9,4.1-12.2,4.3-4.5,6.5-10.4,10.5-15.1,1.6-1.9,3.7-2.7,6-1.9,4.2,1.6,8.3,3.6,12.5,5.4.5.2,1,.6,1.5.9-.5.3-.9.7-1.5.9-.5.2-1.1.3-1.7.4.4.6.7,1.2,1.2,1.7,1.4,1.4,3.1,2.6,4.1,4.2,1.2,1.8.4,2.6-1.7,2.6-.3,0-1,.8-1,1.2.1,2.6.2,5.3.6,7.9.2,1.2,1.3,2.2,1.8,3.3.3.8.2,1.8,0,2.6-.1.4-1.3.7-1.7.5-.6-.3-.9-1.1-1.3-1.7-.3-.4-.5-.9-.7-1.4-.2.6-.7,1.4-.5,1.8.9,1.5.6,2.6-.7,3.6-.7.5-1.2,1.3-1.7,1.9,1.1,0,2.2.5,3.2.2,2.6-.5,4.4.9,4.2,3.5,0,.4-.4.9-.8,1.2,0,0-.6-.3-.8-.5-.4-.3-.9-.7-1.3-1.1,0,.8-.3,2,0,2.3,2.3,1.7.7,5,2.8,6.8.2.2-.5,1.4-.9,2-.1.2-.8,0-1.2,0,0-.6,0-1.3,0-1.9-.1-.7-.4-1.3-.7-1.9,0-.2-.8-.2-.8-.2-.3.6-.7,1.3-.6,1.9.6,3.8,1.4,7.6,2,11.4.2,1.3.3,2.6.4,3.9.4,4.3,1.3,8.7,1.1,12.9-.2,4.7,2.1,8,4.3,11.5,2.4,3.8,10.1,6.4,14.1,5,1.5-.5,3.1-3.8,2.8-5.5-.2-1.2,0-2.4.2-3.6.3-2.1.4-4.4,1.3-6.3.8-1.8,2.6-3.1,4-4.6.6-.7,1.3-1.2,2-1.8-.9,0-1.7-.1-2.6-.2-.7,0-1.5.1-2.2,0-.4,0-.8-.5-1.2-.8.4-.3.8-.8,1.2-1,.6-.3,1.3-.5,2-.5,2.5-.2,2.6-1.3,1.7-3.4-1.9-4.3-2.2-8.8-.2-13.2.3-.6.3-1.4.1-2.1-.7-3.4.2-6.8,1.5-9.5,1.9-4.1,1.6-8.7,3.6-12.6.3-.7.9-1.8,1.2-1.8,5.5.7,4.8-3.9,5.6-6.7.7-2.6.2-5.5.1-8.2,0-2,.5-2.9,2.6-2.7,3.5.4,7,.6,10.4,1.3,4.4.8,8.8,1.9,13.1,3.1,3,.8,3.5,3.1,1.5,5.2-1.2,1.3-3.3,2.6.5,3.2.3,0,.5,1,.7,1.5.7,2,1.4,4,1.8,6.1.1.6-.9,1.4-1.6,1.9-.2-.9,0-1.6-.2-2.3-.1-.8-.4-1.5-.6-2.2-.4.1-.9.2-1.1.5-.4.9-1,2-.7,2.7.3.7,1.5,1.1,2.3,1.6M180.8,108.9c-2.3,0-4.6,0-6.9,0-.3,0-.6.1-.9.2.2.2.3.5.5.7,1.2.9,6.3.3,7.9-.9,1.4-.2,2.7-.4,4.1-.7.5,0,.8-.5,1.3-.7-.4-.4-1.1-1.1-1.3-1-1.5.7-2.9,1.6-4.7,2.4M358.6,256.7c-.4,0-.9.1-1.2,0-2.5-1-2.9.1-2.9,2.5,0,2.3-.8,4.5-1.1,6.7,0,.6.4,1.2.7,1.9.4-.3,1.2-.5,1.3-.9.5-1.7,1-3.4,1.1-5.1.1-1.5.2-2.6,2.1-2.5.8,0,1.5-.2,2.3-.3-.5-.7-1-1.4-2.2-2.2M156,119.2c1.8-.3,3.7-.5,5.5-1,.6-.2.9-1.3,1.4-1.9-.7,0-1.3-.2-2,0-1.2.2-2.5.4-3.7.8-3,1-6,2-9,3.1-.3.1-.5.8-.5,1.3,0,.2.7.6.9.5,2.4-.8,4.7-1.6,7.4-2.8M102.2,137.4c2-.1,4.3.2,6-.6,2-.9,5.5-1.1,4.6-4.9-.1-.5-.5-1-.8-1.5-.4.4-.7.8-1.1,1.1-1.4,1.1-2.6,2.2-4.1,3.1-1.5.9-3.1,1.5-4.7,2.9M353,281.1c0,0-.2.1-.2.2,0,0,0,.2,0,.2.4.2.7.5,1.1.5,1.8.2,2.7-3.3,5-1.2,0,0,.5-.4.6-.6,1.4-2.1-.8-2.2-1.7-3-.8-.7-2-1.2-3-1.7-.5,1.2-1.1,2.5-1.5,3.7-.2.5,0,1-.3,1.9M102.5,126.4l.9-.5c-.3-.3-.6-.7-1-.7-3.4-.4-5.6,1.7-7.6,3.9-.5.5-.7,1.2-1.1,1.7.8.2,1.9.7,2.5.4,1-.6,1.7-1.7,2.6-2.5.9-.8,2-1.6,3.6-2.4M201.7,71c.6-2.7,1.3-5.5,1.8-8.2.1-.6-.5-1.4-.8-2.1-.5.7-1.4,1.3-1.6,2-.4,1.9-.6,4-.6,5.9,0,.9.6,1.8,1.2,2.3M319.5,141.8c0,.8-.3,1.6,0,2.3,0,.3,1.1.6,1.6.5,1.5-.3,3-.7,4.4-1.2.6-.2,1.1-.7,1.6-1.1-.5-.3-1-.7-1.6-.8-1.9,0-3.8,0-6,.3M237.4,95.4c1.7-.4,3.3-.9,5-1.3-1.4-.5-2.9-1-4.3-1.5-.3,0-.7-.1-.9,0-1,.4-1.9.9-2.9,1.4.9.4,1.9.7,3.1,1.4M65.5,142.1c1.4-1,3-2,4.3-3.1.3-.3,0-1.4,0-2.1-.5.3-.9.7-1.4,1-1.4.8-2.9,1.5-4.2,2.3-.9.6-1.8,1.3-2.7,2,.8,0,1.7,0,2.5-.1.3,0,.6,0,1.6,0M293.2,290.8c.2.7.3,1.5.5,2.2.5-.5,1-1.1,1.4-1.6.5-.5,1-1,1.5-1.5.4-.4.9-.7,1.4-1.1-.6-.5-1.2-1.2-1.9-1.4-2.1-.4-3.4.3-3,3.4M171.1,113.6c-1.2.3-2.4.6-3.6,1-.5.1-.9.4-1.4.7.5.2,1,.5,1.5.5,1.2,0,2.5.2,3.7,0,1.4-.3,2.8-1,4.1-1.6-1.3-.3-2.7-.6-4.3-.5M461.6,200.6c-1.6-.7-3.1-1.5-4.7-2.1-.3-.1-1,.3-1.2.6-.2.5-.4,1.2-.2,1.6.5,1.2,5,1.5,6.1-.1M241.2,264.5c-.3.6-.5,1.2-.8,1.8,1.7,0,3.5,0,5.2,0,.1,0,.2-1.3.2-2,0-.1-.3-.4-.4-.4-1.4,0-2.8,0-4.2.8M198.6,98.6c-1-.3-2-.5-3-.8.4.9.6,2.2,1.3,2.7,1.3.8,2.9,1.1,4.3,1.5.1,0,.5-.5.5-.6-.9-.9-1.9-1.7-3.1-2.9M445,189.7c.9-.5,1.9-1,2.8-1.5-.8-.3-1.5-.8-2.3-.9-1.5-.2-3-.2-4.5-.3,1.1.9,2.3,1.9,4.1,2.8M217.7,103.9c1.7.2,3.3.5,5,.6.5,0,1.1-.7,1.5-1.1,0-.1-.5-1.1-.8-1.1-2.2-.2-4.4-.7-5.8,1.7M175.1,277.3c-.5.4-.9.7-1.4,1.1.6.2,1.2.5,1.7.4,1.7-.2,3.5-.5,5.2-.9.4,0,.7-.6,1.1-1-.4-.3-.8-.9-1.2-.8-1.6.3-3.2.8-5.4,1.2M164.5,106.4c-1.9,0-4-.6-5.3,1.5-.2.3-.5.7-.4.9.2.3.7.8.9.7,1.8-.6,3.6-1.2,5.5-1.9-.1-.3-.2-.6-.7-1.2M439.7,177.5c2.3,1.9,3.8-.3,5.5-1.2.3-.2.3-1.1.4-1.7-.6,0-1.2-.2-1.7,0-1.4.7-2.6,1.6-4.3,2.8M231.8,97.3c-1.9-.1-3.9-.3-5.8-.3-.4,0-.7.6-1.1.9.5.3,1,.9,1.5.8,1.7-.3,3.4-.8,5.4-1.5M103.1,130.8c.8,2.7,2.4,1,3.5.6,1.1-.5,2-1.4,3-2.2-.4-.1-.9-.5-1.3-.4-1.6.5-3.3,1.1-5.2,2M447.9,193.7c2.2,2.3,4.2-.3,6.4-.1.1,0,.4-.6.4-.6-.4-.3-.8-.8-1.2-.8-1.9.2-3.7.6-5.5,1.5M356.1,191.5c.2-1.1.4-2.1.6-3.2,0,0-.8-.4-.8-.3-.7,1-1.3,2.1-2,3.2,0,0,0,.2,0,.3.1.8.3,1.7.4,2.5.5-.7,1-1.5,1.7-2.5M170.4,282.7c-.7.7-3.2.7-1.1,2.5.5.4,2,.2,2.6-.3.8-.7,1.1-1.9,1.6-2.9-.9.1-1.8.3-3,.7M188.9,101.4c-.3.5-.6.9-.9,1.4.3.2.7.5.9.5,1.2-.4,2.3-.9,3.4-1.5.4-.2.4-.9.6-1.4-.6-.2-1.2-.6-1.7-.5-.7.2-1.3.8-2.2,1.5M353.9,180c0,1,0,2.1,0,3.1,0,.3.3.7.4,1,.5-.3,1.3-.6,1.4-1,.3-1.1.3-2.2.4-3.3-.6,0-1.3,0-2.2.3M449.7,156.2c-1.3,1.4-2.5,2.9-3.7,4.4-.2.3-.1.7-.2,1.1.4-.1,1.1,0,1.3-.3,1-1.4,1.8-3,2.7-5.1M451,181.8c.9,1.1,1.7,2.3,2.6,3.4,0,0,.5-.2.5-.3-.2-1.1-.2-2.2-.7-3.1-.2-.4-1.4-.2-2.4,0M321.7,297.4c-.5.6-.9,1.2-1.4,1.7.6.3,1.2.5,1.8.8.3,0,.6,0,.9.1.5.3.9.7,1.3,1-.2-1.1-.3-2.3-.6-3.3,0-.2-1-.2-2.1-.3M168.5,292.7c.4-.6.8-1.1,1.1-1.7.2-.4.2-.9.3-1.3-.7,0-1.9-.3-2,0-.6,1.2-.8,2.5-1.2,3.7.5-.1,1-.3,1.8-.7M206.1,87.9c1.1.3,2.2.8,3.3.9.5,0,1.2-.6,1.7-.9-.8-.5-1.5-1.2-2.4-1.3-.7,0-1.5.6-2.6,1.3M159.2,112.3c-1,.5-2.1,1.1-3.1,1.6,1,0,2.1,0,3.1,0,.2,0,.5,0,.6,0,.7-.4,1.3-.9,1.9-1.4-.7-.2-1.5-.3-2.5-.2M186.4,87c.4.4.8,1,1.3,1.3.5.3,1.2.4,1.7.6-.1-.6-.2-1.2-.4-1.7-.3-.5-.7-1-1.1-1.4-.4-.3-.9-.5-1.4-.7-.2.5-.3,1-.2,1.9M136.9,123.3c-.5.4-.9.7-1.4,1.1,1.2.2,2.4.4,3.6.4.4,0,.8-.8,1.2-1.2-.9,0-1.9-.2-3.4-.3M312.9,120.8c1.1-2.7-1.3-2.5-2.6-3.1-.3-.2-.9,0-1.3.1.7.8,1.3,1.6,2,2.4.3.3.8.4,1.9.7M327.6,343.4c-.5-.9-1-1.9-1.4-2.8-.2,1.1-.5,2.3-.4,3.4,0,.8.7,1.5,1.1,2.2.3-.7.5-1.5.8-2.8M204.6,79.5c-.3-.2-.6-.6-1-.6-.8,0-1.6.2-2.4.2.6.7,1,1.8,1.8,2.1.9.4,2.4.4,1.7-1.8M215.2,93.9c.6-.4,1.2-.9,1.8-1.3-1,0-2-.3-2.9,0-.7.2-1.2,1.1-1.7,1.6.8,0,1.7,0,2.8-.3M131.3,121.4c-1.2.3-2.2.6-1,2.2.3.4.3,1.1.3,1.7,0,.6,0,1.1,0,1.7,0,0,.7.1.8,0,.4-.6.8-1.2.8-1.8,0-1.1-.4-2.3-.9-3.7M357.4,242.3c-.3-.4-.7-.8-1-1.3-.2.4-.4.8-.6,1.2,0,.3,0,.6,0,.9.2,1,.5,1.9.7,2.9.4-1,.8-2.1,1.2-3.1,0,0,0-.2-.3-.6M113.7,127c.2.4.4.8.6,1.3.6-.4,1.3-.9,1.9-1.2.6-.4,1.3-.7,2-1.1-.9,0-1.9-.2-2.8-.1-.5,0-1,.6-1.8,1.2M189.8,94.2c.4,1.2.8,2.3,1.3,3.5.1.3.5.4.8.6.1-.3.4-.7.4-1-.2-1.1-.5-2.2-.9-3.3,0-.2-.8,0-1.6.2M460.7,137.1c.1.6.2,1.3.3,1.9.7-.4,1.6-.8,2.2-1.4.3-.3,0-1.1.1-1.6-.8.3-1.6.5-2.6,1.1M322,351.6l-.6,1.3c.3,0,.6.4.8.3,1-.7,2-1.5,2.9-2.3.2-.2.1-.9,0-1.1-.2-.2-.9-.4-1.1-.2-.6.5-1.1,1.2-2,2.2M194.8,70.4c-.1-.6-.2-1.2-.4-1.7-.4-.7-1.1-1.2-1.6-1.8-.1.4-.4.9-.4,1.3.1,1.4,1.1,2.5,2.5,2.1M425.6,185.9c1-.4,2-.8,2.9-1.3.2-.1.2-1.1,0-1.2-1.7-.8-3.2.2-3,2.5M475.7,128.9c-1,.2-2,.3-3,.5,0,0,0,.5,0,.8,1,0,1.9,0,2.9-.1.2,0,.3-.6.2-1.2M294.7,110.1c-.4.9-.8,1.7-1.2,2.6.6,0,1.3.2,1.7,0,1.2-.7,1.4-1.6-.5-2.5M262.2,92c-.7.3-1.4.6-2.1.8.3.3.6,1,.9,1,.9,0,1.8-.3,2.8-.4-.3-.5-.6-.9-1.6-1.4M229.9,107.9c.5.1,1,.4,1.4.3.6-.3,1.2-.9,1.7-1.3-.4-.2-1-.6-1.2-.5-.7.6-2.8-1.5-2,1.5M64,151.8c-.8-.5-1.5-1-2.3-1.5,0,.8,0,1.5,0,2.3.8,0,1.6-.1,2.3-.8M361.4,201.9c-.2-.5-.3-1-.5-1.6-.3.4-.7.8-.7,1.3-.1.9,0,1.9,0,2.8,0,.3.3.6.5.9.3-.3.7-.6.7-1,.1-.6,0-1.2,0-2.5M362.1,275.8c0-.6,0-1.3,0-1.9-.7.5-1.4.9-1.9,1.5-.3.3,0,1,0,1.5.6-.2,1.2-.5,2.1-1.1M278.5,108.3c-.7.4-1.5.7-2.2,1.1.2.3.4.8.6.7.9-.1,1.9-.4,2.8-.5-.2-.4-.4-.9-1.2-1.3M214.6,107c-.6,2.7,1.5.6,2.2,1.3.4-.5.9-.9,1.3-1.4-.9,0-1.9.1-3.4.2M463.2,206c.8-2.2-1-1.1-1.6-1.2-.6,0-1.2.5-1.8.8.6.3,1.1.8,1.7.9.4.1.9-.2,1.7-.6M358.3,304c-.6.3-1.5.5-1.8,1-.2.4.2,1.2.4,1.8.5-.7,1-1.5,1.4-2.8M203.3,86.3c.5-.4.9-.7,1.4-1.1-.5-.3-1-.7-1.6-.7-.6,0-1.2.5-1.9.7.5.4.9.7,2,1.1M143.5,121.7c0,.5.2,1,.3,1.5.5-.3,1.3-.5,1.4-.9.2-.6,0-1.4,0-2.1-.6.3-1.2.5-1.7,1.4M361.7,219.1c.1.6.3,1.1.4,1.7.6-.5,1.3-1,1.7-1.7.2-.4,0-1.1,0-1.7-.6.5-1.1.9-2,1.7M256.2,109.8c.3-1.5-.6-1.8-1.7-1.5-.5.1-.9.6-1.3,1,.9.3,1.8.6,3.1.6M474.5,127c.5-.6,1-1.1,1.5-1.7-.5-.3-1-.6-1.5-.8-.2.8-.4,1.7,0,2.5M462.3,178.1c-.2-.5-.3-1-.5-1.6-.3.6-.7,1.3-.7,1.9,0,.6.5,1.3.7,1.9.2-.5.3-1,.5-2.2M203.6,104.8c.7.5,1.4,1.1,2.1,1.5.1,0,.6-.6.9-1-.9-.3-1.8-.6-3.1-.5M400.9,159.3c0,.6-.1,1.1-.2,1.7.4,0,.9,0,1,0,.3-.6.5-1.2.8-1.9-.4,0-.9,0-1.6.3M219,322.8c-.1.7-.2,1.4-.3,2.2h1.3c-.1-.7-.2-1.4-1-2.2M382.1,153c-.2-.5-.4-1-.6-1.6-.6.4-1.3.7-1.9,1.1.7.3,1.5.5,2.5.5M443.2,167.8l-.6,1.3c.4.2,1.1.6,1.2.5.4-.5.6-1.2.9-1.8-.4-.1-.8-.2-1.6,0M307.6,274.5l1.8-1.3c-.9,0-1.8-.2-2.7-.2.2.6.4,1.3.9,1.6M271.2,110.5c-.8-.2-1.7-.4-2.5-.6,0,0-.2.5-.3.8.8,0,1.7,0,2.9-.3M253.7,283.9l1.9-.3c-.3-.8-.5-1.6-.8-2.4-.4.7-.7,1.4-1.1,2.7M233.4,104.5c.1-.7.3-1.4.4-2.1-.5,0-1,0-1.5,0,.3.6.5,1.1,1.1,2M228.7,287.1c-.4-.4-.9-.8-1.3-1.2-.3.5-.6,1-.9,1.5.6,0,1.3,0,2.2-.3M277.5,356.6c.8,0,1.6.2,2.4.1.2,0,.5-.5.7-.8-.9.1-1.8.3-3,.7M285.7,99.8c-.3.6-.5,1.1-.8,1.7.5,0,1,0,1.5,0-.1-.7-.3-1.4-.7-1.8M187.3,67.9c.4-.4.8-.9,1.2-1.3-.6,0-1.3,0-1.9,0,.1.5.2,1,.7,1.2M234.9,277c-.8.1-1.5.3-2.3.4.1.3.3.8.4.8.6-.1,1.3-.4,1.9-1.2M189.8,111.1c.8,0,1.7,0,2.5,0,0,0,0-.6,0-.6-.8,0-1.7,0-2.5.6M273.4,106.6c-.3.3-.6.7-.8,1h2.3c-.3-.3-.6-.7-1.5-1M197.7,75.7c.4.4.9.8,1.3,1.2.2-.4.5-.7.7-1.1-.6-.1-1.1-.3-2-.1M189.5,71.3c.5.1,1,.3,1.5.4-.5-.6-1-1.1-1.5-1.7-.2.4-.4.8,0,1.3M322.6,291.4c.2.5.3,1,.5,1.6.3-.4.8-.9.7-1.2-.1-.4-.8-.7-1.2-.3M197,109.7c-.3.3-.6.7-.8,1h2.3c-.3-.3-.6-.7-1.5-1M252.8,341.2c.5-.3,1.1-.7,1.5-1,0,0-.3-.5-.5-.8-.5.5-.9,1-1.1,1.9M286,340c.2.4.4.8.6,1.3.3-.3.7-.7,1-1-.4-.2-.8-.4-1.6-.3M324.8,356.3c.5-.5,1-.9,1.6-1.4-.3-.2-.8-.5-.8-.5-.4.5-.7,1-.7,1.9M202.7,108.3c-.5.5-1,1-1.6,1.5.1.1.3.3.4.4.5-.5,1-1,1.2-1.9M275,357.2c.6,0,1.2,0,1.8,0v-.8c-.8.2-1.5.3-1.8.8M446.3,182.2c.3-.5.6-.9.9-1.4-.3-.2-.6-.3-.9-.5-.2.6-.4,1.3,0,1.9M219.9,307.1c-.4-.3-.9-.6-1.3-.9-.2.3-.4.6-.5.8.5.1,1,.3,1.9,0M210.5,344.7c-.6,0-1.3,0-1.9,0,0,0,0,.6,0,.6.6,0,1.3,0,1.9-.6M352.3,355c.5-.1,1-.3,1.6-.4-.2-.3-.4-.6-.5-.8-.4.3-.9.6-1,1.3Z"/>
    <path d="M124.2,335c-.9-.6-1.6-1.2-2.3-1.9-1-.9-2.4-1.6-2.8-2.7-1.1-3-3.1-6.1-1.4-9.6,0-.1-.4-.8-.6-.8-.5,0-1.2.1-1.3.4-.5,1.1-.8,2.4-1.2,3.6-.1.4-.5.7-.8,1-.2-.3-.4-.6-.5-1-.9-4.6-1-9.4-2.7-13.6-1.7-4.2,1.6-6.4,2.1-9.5.3-1.8,1.2-3.5,1.8-5.2,0-.2,0-.5,0-.6-3.3-2.7-.6-4.2,1.1-5.9.3-.3.9-1,.8-1.2-1.5-2.1.9-3.5.8-5.1-.2-3.5,3-6.6.7-10.2-.6-.9.3-2.6.3-4,0-.5-.8-.9-1.3-1.4-.2.5-.4,1-.5,1.5-.3,1.3-.5,2.7-.9,4-.1.3-.9.4-1.5.6,0-.4-.2-.9-.2-1.3.4-3,.8-5.9,1.3-8.8,0-.5.4-1.2.9-1.5,1.7-.9,1.5-.8,1-2.5-.8-2.9-1.4-5.9-1.9-8.9-.1-.7.3-1.5.6-2.2.3-.6.8-1,1.3-1.5.2.6.4,1.2.6,1.8.2.7.5,1.3.7,2,.6-.7,1.6-1.2,1.7-2,.4-2.4.6-4.8.6-7.2,0-.7-.6-1.4-.9-2.1-.5.5-1,1-1.5,1.5-.8.8.2,3.1-2.1,2.8.2-1.3,0-2.7.6-3.7,2.2-3.7,3.8-7.5,3.9-11.8,0-.8-.6-1.8-1.2-2.3-2.1-1.6-2.7-3.6-2.5-6.2.3-5.1-1.8-9.6-3.8-14.1-1.6-3.5-3.9-3.8-7.2-2-3,1.6-6.1,2.9-9.2,4.2-5.1,2.3-7.7,6.9-10.5,11.2-7.3,11.4-8.1,24.3-7.4,37.3.3,6.2.7,12.4,1.3,18.6.7,7.6,1.5,15.2,2.5,22.8,1,7.1,1.8,14.4,3.9,21.2,1.8,5.8,3,11.5,2.9,17.6,0,.8-.6,1.6-.9,2.3-.3-.7-.6-1.4-.9-2.1-.1-.3-.3-.6-.5-1-.3.3-.7.6-.8,1-.5,2-.8,4.1-1.3,6.1-.3,1.3-.5,2.9-2.7,1.9-.4-.2-1.4.1-1.8.5-1.8,1.6-3.3,3.3-5.1,4.9-.6.6-1.6.7-2.3,1.2-1.8,1.3-3.5,2.7-5.3,3.9-.9.6-2,1.3-2.9,1.2-3.4-.2-6.8-.8-10.2-1.2-.6,0-1.3-.1-1.9,0-.7.2-1.3.7-2,1.1,0-1-.1-2-.2-3,0-.8-.2-1.7-.3-2.5-.7.7-2.1,1.4-2.1,2.2-.1,3.9-.4,7.9,2.3,11.2.5.6.6,1.6.7,2.5,0,0-1.2.6-1.4.4-2.5-2-5.2-3.9-7.4-6.2-1.3-1.4-2.2-3.6-2.3-5.5-.2-5.1-1.5-10,.3-15.2,1.4-4.2-1.2-8.3-2.5-12.3-1.8-5.5-3.1-11.2-5-16.7-1.2-3.4-3-6.5-4.6-9.7-2.4-4.8-4.8-9.5-7.3-14.2-1-1.8-2.2-3.5-3.3-5.2-2.6-4.2-5.3-8.4-7.7-12.8-1.6-3-3.4-6.1-.8-9.6.5-.7.4-2.1,0-2.9-3.1-7-5.7-14.1-6.3-21.8,0-.1,0-.2,0-.3,2.3-5.5-1.4-9.6-2.9-14.3-.8-2.4.2-5.4.4-8.1,0-.1.7-.4.7-.3.2.3.4.6.5,1,.4,1.3.8,2.7,1.2,4,.2-1.4.4-2.8.7-4.2.4-1.7-1.2-3.9,1.3-5.2,2.6-1.3,6.8.4,7.4,3.4.2,1.1,0,2.4,0,3.5.2,1.4-.9,3.2,1.3,4.2.8.4-.5,4.5-1.4,5.2-1.5,1.2-2.8,2.2-4.9,1.9-.4,0-1.3,1.2-1.2,1.6.5,2.2.2,4.6,2.5,6.2,2,1.4,2.4,3.4,2.6,5.8.6,6.9,2.3,13.6,5.4,20,2.2,4.4,4.9,8.6,5.3,13.8.1,1.8,1.8,3.4,2.7,5.1,2.5,4.6,5.5,8.9,6.8,14.1.4,1.9,2.5,3.3,3.5,5.1,2.1,3.8,4.5,7.5,6,11.6,2.1,5.5,4.4,11.2,5.1,16.9.8,6.7,3.3,13.2,2.1,20.2-.4,2.2-.2,3.9,2.9,1.7,2.3-1.6,5.3-2.4,8-3.2,1.4-.4,2.7-.2,2.9,2,.2,2.6,1.7,3.5,4.4,2.6,3.5-1.2,6.2-3.2,8.2-6.4,1.6-2.5,4-4.6,5.8-7,.8-1.1,1.2-2.6,1.7-4,2-6.7-2.2-12.9-1.9-19.5,0-.3,0-.7-.2-.8-3.5-2.5-1.9-6.7-3.4-9.9-.7-1.5,0-3.6,0-5.4,0-3.9,0-7.7-.2-11.6,0-.9-.2-1.8-.3-2.7-.3-1.9-.7-3.7-.9-5.6-.3-4.4-.4-8.8-.7-13.2,0-.9-.7-1.8-1.1-2.7-.3-.6-.8-1.3-.7-1.9,1-4.3.3-9.1,3.1-13,.2-.3.2-.8.4-1.2-.4.1-.7.2-1.1.4-.9.4-1.7.9-2.6,1.3-.6.3-1.2.7-1.8,1,.1-.7,0-1.7.5-2.1,2.6-2.6.9-6,1.9-9,.6-1.8-.3-4.1.4-5.9,1-2.7-.7-6.6,3.5-7.9.3,0,.6-1.3.4-1.6-3.4-4.9.1-8,2.7-11.4.6-.8,1.3-1.5,2-2.3.4-.4.8-.7,1.3-1,.2.6.7,1.5.5,1.9-.7,1.4-1.8,2.6-2.6,4-.3.5-.3,1.1-.4,1.7.4-.3.9-.5,1.3-.8,1.5-.9,3.1-1.7,4.5-2.8.7-.6,1.1-1.6,1.7-2.4-.6,0-1.3.1-1.7-.2-.6-.6-1.5-1.6-1.4-2.2.7-2.4,1.6-4.8,2.6-7,.3-.6,1.2-.9,1.9-1.4.7-.5,2.1-1,2.1-1.5,0-2,.9-3.1,2.6-3.5,3.8-.9,7.4-2.9,11.6-1.5,1.7.6,3.8.2,5.7.3.5,0,1,0,1.5,0-.2.5-.3,1.1-.6,1.5-1.1,1.5-.8,2,1.1,2.2,1.7.2,3.2,1.2,4.9,1.7,1.7.5,2.1,1.7,2.4,3.4.2,1.1,1.7,2,2.5,3,.8,1,2.3,2,2.2,2.9-.4,5.6,1.9,10.8,2.5,16.2.2,1.5-.6,3.4-1.5,4.6-2,2.5-2.6,4.7-2,8.2.8,4.7,4.2,9.5,1.2,14.6-.5.8-.9,1.7-1.3,2.6-.3.7-.8,1.7-.5,2.2,1.8,4,.6,8,.1,12-.5,4.1-.5,8.2-.8,12.3-.3,3-.5,6-1.3,8.9-1,3.9-1.3,7.7-1.4,11.8,0,8,1.2,15.5,3.9,22.9.3.8,0,1.9-.3,2.8-.2.9-.8,1.8-.9,2.7,0,.5.4,1.1.6,1.7.2-.5.3-1,.6-1.5.3-.5.7-1,1.1-1.5.3.5.7,1,.8,1.5.8,4.6,2.1,8.8,5.8,12.1,1.4,1.2,1.8,3.6,3.2,4.8,3.2,2.8,6.9,5.1,10.2,7.8,2.3,1.9,4.2,3.2,4.8-1.2.2-1.2.4-2.5.4-3.7,0-1.4-.5-2.7-.5-4.1,0-.6.7-1.1,1-1.7.3.5.5,1,.8,1.6.3.5.6,1,.9,1.5.3-.6,1-1.2.9-1.7-.4-1.8-1.1-3.5-1.6-5.3-.3-1.1-1-2.4-.7-3.3.2-.6,1.9-.7,2.9-.9.6-.2,1.2-.2,1.9-.3-.3-.7-.4-1.6-.9-2.1-.6-.6-1.7-.6-2.3-1.2-.4-.4-.2-1.4-.3-2.1.5.1,1,.2,1.5.4,6.3,2.1,3.4,6.8,3.1,10.9-.5,6.5-.9,13-1.2,19.5-.1,2.1,0,4.2,0,6.3-.3,3.7-1.7,4.5-5,3.1-.6-.2-1.5-.5-1.8-.3-2.1,2-3,.6-3.8-1.2-.9-2-1.6-4.1-2.5-6.1-.3-.7-.7-1.4-1.3-1.8-2.1-1.3-4.3-2.3-6.3-3.7-.4-.2-.5-1.4-.3-1.9.7-1.8-.6-4.4-2.6-4.4-.2,0-.5,1.1-.6,1.7-.2,1-.2,2-.3,3-.7-.7-1.4-1.4-2-2.1-.6-.8-1.1-1.7-1.8-2.4-1.8-1.6-1.7-3.2-1.5-5.6.2-2.5-1.6-5.2-2.7-7.8M99.3,197.8c2.8-.9,5.5-1.8,8.3-2.7.1,0,.2-.5.2-.5-.3-.2-.6-.5-.9-.5-1.2-.3-2.9,0-3.4-.7-1.2-1.7-2.5-.5-3.7-.5-.3,0-.6.4-.8.6.3.2.5.6.8.6.5.1,1,0,1.6,0,.7,0,1.3.2,2,.3-.7.5-1.4,1.3-2.2,1.5-.8.2-1.8-.2-2.7-.1-1.4.1-2.7.4-4,.8-.2,0-.1.8-.2,1.2,1.3.2,2.7.4,4,.5.1,0,.3-.3,1.1-.4M78.4,231.9c.2-1.3.5-2.5.6-3.8,0-.5-.3-1-.5-1.5-.5.3-1.3.6-1.3,1-.3,1.6-.5,3.2-.6,4.8,0,.7.5,1.5.7,2.2.4-.7.7-1.4,1.1-2.7M90.6,204.7c1.3,0,2.6.1,3.8,0,.7,0,1.4-.6,2.1-.9,0,0-.1-.8-.2-.8-2.3.1-4.6.3-6.9.5-.1,0,0,1.2-.1,1.8.2-.2.4-.4,1.3-.6M84.6,216.3c-.1-.3-.3-.5-.4-.8-2.8,1.9-4,4.9-5.2,7.8,0,.2.2.5.3.8.3-.3.7-.5.9-.8,1.4-2.2,2.7-4.5,4.4-7M150.7,356.9c-.3,0-.6,0-.9,0-1.2.3-2.4.7-3.7,1,1.3.5,2.7,1.3,4,1.4,1.2,0,2.2-.7.5-2.4M122.2,211.9c.3,1.5.5,3.1.9,4.6,0,.3.8.5,1.2.7.1-.2.4-.5.4-.7,0-2,.2-4-2.5-4.6M151,362.8c.7.7,1.4,1.5,2.2,2.1,0,0,.6-.5.9-.7-1.2-.5-.8-3.3-3.1-1.4M118.4,292.7c-1.2-1.7-1.8,0-2.3.5-.3.3,0,1.1.1,1.6.6-.6,1.3-1.2,2.2-2.2M80.6,308h1.9c-.5-.7-1-1.3-1.5-1.9-.3.5-.5,1-.5,1.9M115.6,303.6c.1.6.2,1.3.4,1.9l1.2-1.5c-.4-.2-.8-.4-1.6-.4M155.4,336.5c-.1.7-.3,1.4-.4,2.1.4,0,1-.2,1-.3,0-.7-.2-1.4-.6-1.8M12.6,220.7c-.2-.5-.3-1-.5-1.6-.3.4-.8.9-.7,1.2.1.4.8.7,1.2.3M113.1,199.1h1.9c-.1-.3-.3-.9-.3-.9-.7.1-1.3.4-1.6.9M117.5,201.6c.2-.4.4-.8.6-1.3-.3-.1-.6-.3-.8-.4-.1.6-.3,1.1.2,1.7M119.1,288.3c.4,0,.8-.2,1.3-.3-.6-.4-1.1-.8-1.7-1.2.1.3.3.6.4,1.5Z"/>
    <path d="M189.2,174.6c.2,2.6-.3,5.2.8,7,2.5,4.2.2,7.2-2,10.1-1.8,2.4-4.1,4.3-6.3,6.4-1.8,1.7-3.6,1.9-6.2.8-2.6-1.1-5.7-1-8.6-1.1-5.1-.2-8-3.1-9.7-7.9-1.3-3.9-1.4-8.8-6.6-10.8-1.2-.4-1.6-3.4-2-5.3-1.1-5.4-.4-10.6,1.8-15.6.9-2,2.1-3.1,4.4-3.2,2.4-.1,4.7-.7,7-1,.5,0,1-.1,1.5,0,1.7.2,3.5,0,5.2.6,4.9,1.5,10.6,1,14.2,5.7.4.5.6,1.2.9,1.8.4.7.6,1.8,1.1,2,5.4,1.8,3.4,6.7,4.5,10.5M156.6,168.1c-1.2,1.3-3.3,2.5-2.1,4.7,2.4,4.5,6.1,6,10.7,4.5,1.8-.6,4-.3,6,0,2.4.2,4.8.9,7.3,1.1.6,0,1.8-1.3,1.8-2,0-4.3-3.4-8.1-7.9-9.2-.6-.2-1.4-.7-1.6-1.2-1.2-2.5-3.6-2.3-5.4-1.8-2.9.8-5.7,2.4-8.8,4M180.8,169c.3.1.6.2.9.4-.6-1.7-1.2-3.4-1.9-5.1-.3.1-.8.3-.8.3.5,1.4,1,2.7,1.8,4.4M152.9,162.4c.5-.3,1.2-.5,1.4-.9.3-.5.2-1.2.2-1.8-.4.4-.9.7-1.2,1.1-.2.3-.3.7-.4,1.7M167,187.8c.5-.2,1-.3,1.6-.5-.4-.3-.9-.8-1.2-.7-.4.1-.7.8-.3,1.2M175.4,182.5c.2.5.3,1,.5,1.6.4-.3.8-.5,1.2-.8-.5-.4-.9-.7-1.7-.8M153.2,167.1v-1.3c-.5.3-1,.6-1.5.8.3.1.6.3,1.5.4M185.8,185.9c0,0-.2.1-.2.2,0,0,0,.1,0,.2.6-.2,1.1-.4,1.7-.7,0,0-.2-.6-.3-.9-.3.3-.6.6-1.2,1.2Z"/>
    <path d="M41.9,154.8c1.4,3.5.9,4.4-2.5,5.5-.5.2-.9,1-1.1,1.6,0,.3.4.8.6,1.3.4-.3.8-.6,1.2-.9.3-.2.5-.5.7-.7.2.4.6.9.5,1.2-.6,2-1,3.8,1.1,5.4.2.2-.8,2.4-1.6,3.4-1.2,1.4-2.6,2.6-4.1,3.6-.5.3-2.1.1-2.2-.2-1-2.7-1.4-5.7-2.7-8.3-1-2.1-3-3.8-4.6-5.6,0-.1-.9.3-1.2.5,0,0,0,.6.2.8.2.3.6.4.6.7.3,1.2.6,2.4.8,3.6-.9-.7-2-1.2-2.6-2.1-1.1-1.8-2.4-1.4-3.9-.8-.8.3-1.6.4-2.4.6.5-.5,1-1,1.4-1.5,2.3-2.9,5.4-4.3,9.1-4.6,1.8-.1,2.6-3.1,1.3-5.5-1.3-2.4.8-2.9,2-3.8.2-.2,1,.2,1.3.4.2.1,0,.8-.1,1-1.3,1.4-.2,1.7.9,2.3,1.1.7,2.6,1.7.6,3.2-.4.3-.4,1.3-.3,1.9.4,1.4-.1,1.8-1.5,1.7-2.2-.2-1.6.7-1,2.2,1.3,2.8,2.1,5.8,3.3,8.7.2.4.7.7,1,1,.3-.4.8-.8.8-1.2,0-1.4-.3-2.8-.6-4.1-.5-2.7-1.5-5.1-.2-8.1,1.2-2.7.9-6.1,1.5-9.2.2-1,.8-2,1.3-3,.4.8.6,1.9,1.2,2.4,2.5,1.9-.3,4.4,1.1,6.5Z"/>
    <path d="M14,176.1c2.6-.2,3.5-1.5,2.3-3.6-1.7-2.8.9-3.7,2.1-3.8,3.8,0,7.5.5,11.3,1,.4,0,.7.6,1,1-.3.3-.6.9-.9.8-2.8-.2-2,1.9-2.2,3.4-.1.9-.3,2.1-.9,2.7-.4.4-1.9,0-2.4-.4-.5-.6-.5-1.8-.6-2.7,0-.8.2-1.7,0-2.4-.2-.6-.8-1.2-1.3-1.7-.2.5-.4,1-.5,1.5-.9,3.8-3.8,6.1-7.9,6-1.5,0-3.1-.4-4.6-.6,1.4-.3,2.8-.5,4.2-.8,0,0,.1-.1.4-.4Z"/>
    <path d="M11.2,183.3c-.9-.1-1.6-.4-2.3-.7.6-.4,1.2-1.2,1.8-1.3,2.6-.4,5.1-.7,7.7-.9.5,0,1.6.7,1.6,1,0,3.4-.3,6.8-.6,10.2,0,.4-.8,1.2-.8,1.1-.8-.5-1.9-.9-2.3-1.6-.4-.7-.5-2.1-.1-2.7,1.4-1.7,1.2-3.2-.4-4.5-.2-.2-1.2.2-1.2.4-.4,1.5-.6,3.1-1,4.7-.4,1.6-.8,3.8-2.9,1-.2-.3-1.2,0-1.9,0-.6,0-1.2.3-1.8.4.3-.7.5-1.5,1.1-2,1.4-1.4,3-2.7,4.5-4.1.3-.3.4-1,.5-1.5-.6,0-1.1.1-1.8.3Z"/>
    <path d="M17,205.3c-1.4,1.5-2.3,1.2-3-.8-.8-2.3-.7-1.4-2.5-1.1-1.9.3-4.2-1-6.2-1.9-2-.9-1.2-2.6-.7-4,.1-.4.8-.6,1.2-.8.2.4.4.8.5,1.2,0,.5-.2,1.2,0,1.5.4.6,1.1,1,1.7,1.5.2-.7.8-1.7.6-2.1-1.5-2.5.7-2.9,2-3.3,1.3-.4,3-.8,3.6,1.7.6,2.7,1.8,5.3,2.8,8.2Z"/>
    <path d="M58.8,154.1c0,1.8-.2,3.5-.5,5.2,0,.3-.5.9-.8.9-.3,0-1-.4-1-.6,0-2.2-.1-4.4,0-6.6,0-.7.6-1.4.9-2.1.3.8.7,1.5,1,2.3.1.3.2.5.5,1Z"/>
    <path d="M320.3,317.9c-1.5-3.6-.7-5.8,2.5-7.2.3-.1,1.1,0,1.2.3.3.6.5,1.4.3,1.8-1.2,1.8-2.5,3.4-4,5Z"/>
    <path d="M78.5,141.6c1.1.2,2,.6,3,1-.7.6-1.3,1.4-2.1,1.9-.9.6-1.9,1.2-2.9,1.3-1.2.1-2.5-.2-3.8-.3.9-.5,1.9-.9,2.8-1.5,1-.7,1.9-1.4,3-2.3Z"/>
    <path d="M350.8,290.5c0-1.7-.4-3.2,0-4.5.1-.4,2-.5,3.1-.5.5,0,1.3.9,1.3,1-.7,1.5-1.5,2.9-2.5,4.2-.2.3-1.2,0-1.8-.2Z"/>
    <path d="M44.5,162.1c.5-1,.9-2.1,1.6-2.4.7-.3,1.6.3,2.5.5-.3.5-.6,1-.8,1.5-.5,1.1-.9,2.3-1.3,3.5-.3.7-.7,1.3-1,1.9-.5-.7-1.2-1.4-1.4-2.2-.1-.8.3-1.7.6-2.8Z"/>
    <path d="M123.9,335c.2,2.5.2,5,.1,7.6,0,.6-.5,1.2-.8,1.8-.4-.5-.9-1-1-1.6-.3-1.7-.8-3.4-.6-5,.1-1,1.3-1.9,2.2-2.8Z"/>
    <path d="M92.9,142.2c1.4-.1,2.7-.1,4-.1-.8,1-1.7,2.1-2.6,3.1,0,.1-.4,0-.6,0-1.2,0-2.3,0-3.5.1.8-1,1.7-2,2.7-3.1Z"/>
    <path d="M114.2,114.1c.7-.4,1.2-.7,1.7-.7.5,0,1.1.4,1.6.6-.2.4-.4,1-.8,1.3-.7.6-1.5,1.2-2.4,1.7-.5.4-1.2.6-1.7.9,0-.8,0-1.7.3-2.5.1-.4.7-.7,1.2-1.3Z"/>
    <path d="M193.1,299.7c0-2,.3-3.9.6-5.8,0-.2,1-.4,1.3-.2.3.1.5.9.4,1.2-.6,1.7-1.4,3.3-2.3,4.8Z"/>
    <path d="M23.3,181.5c2.6-.5,2.7-.3,1.9,1.7-.3.8-.4,1.7-.7,2.5-.2.5-.7.9-1,1.4-.2-.6-.6-1.2-.6-1.8,0-1.2.3-2.4.4-3.9Z"/>
    <path d="M185.5,308.5c-1,.1-1.9.1-2.9.1.2-1.3.4-2.5.8-3.8,0-.3.8-.6.9-.5.5.3,1,.8,1.1,1.3.2.9,0,1.8,0,2.9Z"/>
    <path d="M349.7,325.4c.8-1.9,1.8-3.7,2.8-5.5.3.3.7.6.8,1,.2,2.5-.9,4.1-3.6,4.5Z"/>
    <path d="M476.7,120.2c-.3-.6-.2-1.3-.2-1.9,1.3.3,2.6.6,3.9,1,.1,0,0,.7.1,1.1-1.2,0-2.4-.1-3.9-.2Z"/>
    <path d="M126.6,231c.1-.5.3-.6.4-.8.5-.8.9-1.6,1.3-2.4.2.5.8,1.2.7,1.6-.6,1.4-1.4,2.7-2.2,4,0-.7-.2-1.4-.3-2.5Z"/>
    <path d="M31.2,174.5c.8.3,1.7.6,2,1.2.4.8.4,1.8.4,2.6,0,.2-.8.4-1.2.7-.3-.8-.7-1.5-1-2.3-.2-.7-.2-1.4-.2-2.2Z"/>
    <path d="M407.8,155.2c0,1.2,0,2,0,2.9-.4-.3-1.1-.6-1.1-.9,0-1.5.2-3,.3-4.4.3.7.6,1.4.9,2.4Z"/>
    <path d="M147.9,102c-.2,1,.5,2.8-1.2,1.2-.4-.3-.7-.7-.9-1.2-.2-.5-.3-1-.5-1.5.6,0,1.2.1,1.7.3.4.1.6.6.9,1.2Z"/>
    <path d="M52.7,159.3c.4.9.5,1.9.6,2.8h-1.3c.1-.9.2-1.9.6-2.8Z"/>
    <path d="M365,244.6c.9,0,1.7.1,2.5.3-.4.5-.7,1.3-1.1,1.4-.6.2-1.4-.1-2.1-.3.2-.4.4-.9.7-1.5Z"/>
    <path d="M130.3,110.8c-.8-.1-1.4-.3-1.9-.4.5-.5,1-1.3,1.6-1.4.6,0,1.4.5,2.1.7-.5.4-1,.7-1.8,1.1Z"/>
    <path d="M376.3,146.6c0-.5,0-1,.3-1.2.6-.4,1.4-.6,2.1-.7.2,0,.6.5.9.8-.6.4-1.2.9-1.8,1.3-.3.2-.8,0-1.4-.1Z"/>
    <path d="M117.2,228.5c.6-.5,1.3-.7,1.9-.9,0,.9-.1,1.8-.2,2.7-.6-.5-1.1-1-1.7-1.7Z"/>
    <path d="M349.4,304.7c.6.6,1,1.4,1.4,2.1-.4.2-.8.4-1.2.5-.1-.8-.2-1.7-.2-2.7Z"/>
    <path d="M119.9,116.9c.2-.9.6-1.7,1.1-2.3,0-.1.8.2,1.3.4-.5.5-1,1-1.5,1.5-.2.2-.4.4-.8.5Z"/>
    <path d="M174.3,92.4c-.1-.8-.1-1.4-.1-2.1.6.5,1.2,1,1.8,1.5-.5.3-1,.5-1.7.6Z"/>
    <path d="M350.8,314.3c-.2.8-.3,1.4-.5,1.9-.3-.2-.8-.4-.7-.6,0-.8.3-1.7.4-2.5.3.3.5.6.8,1.3Z"/>
    <path d="M30.6,180.4c-.5.9-1.2,1.6-1.9,2.3l-.4-.4c.7-.7,1.5-1.4,2.3-1.9Z"/>
    <path d="M437.7,151.9c.6-.1,1-.1,1.4-.1-.5.7-1,1.4-1.6,2.1,0,.1-.5,0-.8-.1.3-.6.5-1.1,1-1.9Z"/>
    <path d="M348.9,318.1c.6,0,1.1.3,1.6.8,0,0-.4.7-.6,1-.3-.5-.7-1-1-1.8Z"/>
    <path d="M209.4,61.4c.7,0,1.2.3,1.7.6-.4.4-.8.8-1.2,1.2-.2-.5-.5-1-.6-1.7Z"/>
    <path d="M249.2,337.3c-.4-.4-.7-1-.9-1.6.5,0,1,0,1.5,0-.1.5-.2,1-.5,1.7Z"/>
    <path d="M248.7,301.1c.6-.2,1.1,0,1.7,0-.1.3-.3.6-.4.8-.4-.2-.8-.4-1.3-.9Z"/>
    <path d="M246,292.2c.6-.1,1-.1,1.4-.1-.3.5-.6,1-.9,1.5-.2-.4-.5-.8-.5-1.4Z"/>
    <path d="M165.3,42.3c-.7,0-1.2-.1-1.7-.3.2-.3.4-.6.5-.8.4.3.9.6,1.2,1.1Z"/>
    <path d="M444.1,151.5c-.2-.4,0-.8,0-1.3.4.2.8.3,1.2.5-.3.3-.6.5-1.3.8Z"/>
    <path d="M158.7,296.3c.5,0,.8.3,1.1.6-.6.1-1.1.3-1.7.4.1-.3.3-.6.6-1Z"/>
  </g>
</svg>