<?xml version="1.0" encoding="UTF-8"?>
<svg id="Layer_1" xmlns="http://www.w3.org/2000/svg" version="1.1" viewBox="0 0 605 487.8">
  <!-- Generator: Adobe Illustrator 29.3.1, SVG Export Plug-In . SVG Version: 2.1.0 Build 151)  -->
  <g id="Shape_35">
    <path d="M506.1,126c-.6,1.7-2.2,2.1-3.6,2.3-2.5.5-5,1.7-7.7,1.3-.3,0-.7.5-1.1.7.6.3,1.1,1,1.7,1,1.3,0,2.5-.3,3.8-.5,1.6-.3,3.3-.5,4.8-.9,3.1-.8,6.2-1.9,9.3-2.7,1.7-.5,3.6-.8,5.3-1.1.3,0,.6-.2.9-.4.5-.3,1-.7,1.6-.8,1.2-.2,2.4-.3,3.6-.3,5.4-.1,10.3-1.7,14.4-5.4,1.6-1.5,3.8-1.6,5.7-2,2.4-.4,4.7-1,7.1-1.6,3.2-.7,6.4-1.2,9.7-1.8,2.1-.4,4.3-.7,6.4-1,.6,0,1.1-.2,1.7-.2.3,0,.7.6.7.7-1,1.7.6,2.4,1.5,3.1.8.6,1.2,1.2,1.3,2.2,0,.9.7,1.7.8,2.6.3,1.5.4,3.1.6,4.7.4,2.5.9,5.1,1.4,7.6.4,1.9.8,3.7,1.3,5.6.5,1.7,1.2,3.3,1.7,4.9.4,1.3.3,2.7.8,4,2,5,3.5,10.2,6,15,2.9,5.4,5.4,11,8.4,16.4,2.7,4.8,4.5,10,6.5,15.1.9,2.2,1.6,4.4,2.2,6.7.8,3.3,2.1,6.6,2.1,9.9,0,3.6.2,7.3-.5,11-.4,2.2-1.3,4.1-2,6.2-.3.8-1.1,1.3-1.6,2-.4.7-.7,1.6-1.1,2.4-.3.8-.5,1.6-1,2.3-.5.7-1.2,1.2-1.7,1.8-1,1.2-2.1,1.6-3.7,1.6-2.1,0-4.2.7-6.3.5-6.6-.9-13.2-.9-19.8-.8-3.5,0-7,.8-10.5,1.1-.9,0-1.8,0-2.7,0-3.7-.2-7.3.7-10.8,1.8-5.5,1.7-10.9,3.5-16.4,5.3-3.4,1.1-6.7,2.5-10.1,3.5-2.2.7-4.6.9-6.6-.9-1-.9-4.5.2-5.4,1.8-1.3,2.3-2.6,4.6-3.9,6.9-2,3.4-4,6.7-6.1,10.1-.5.9-.1,1.5.9,1.5,1.2,0,2.3,0,3.5,0,.9,0,1.8,0,2.7-.7.5-.5,1.7-.4,2.5-.1,2.2.6,4.3.6,6.4-.3.3-.1.8,0,1.2,0,2.4,0,4.9-.1,7.3-.3,1.5-.1,3-.4,4.5-.5.5,0,1,.4,1.4.6-.4.2-.9.4-1.3.6-1,.4-1.9.8-3,1.1-.5.1-1.2.2-1.6,0-.9-.6-1.8-.7-2.8-.5-2,.5-3.9,1.2-5.9,1.4-1.7.2-3.4-.1-5.1-.2-.3,0-.7,0-1,0-.1,0-.2.1-.3.2.1.1.2.3.3.4,1.3.3,2.6.6,3.9.9.4.1.7.6,1.1.9-.4.1-.9.4-1.3.3-2-.4-4-.8-6-1.2-.3,0-.6,0-.9,0-2.7.8-5.4.4-8-.3-.5-.1-1,.3-1.5.2-1.4-.1-2.7-.4-4.1-.6-.6,0-1.2,0-1.8.2-.9.2-1.9.5-2.8.7-.9.2-1.7.5-2.6.5-.9,0-1.9.8-2.7-.4-.2-.3-.7-.4-1.1-.4-.2,0-.4.4-.5.6.2,0,.4.2.6.3.2,0,.6,0,.7,0,.3.2.5.5.7.8-.3.1-.6.3-.9.4-.4,0-.7.1-1.1.1-.1,0-.3,0-.4-.1-.2-.3-.3-.6-.5-.9-1.2.7-2.5,1.2-3.6,2-1.1.9-1.7,2.3-2.8,3.2-.6.5-1.8.3-2.8.4-.1,0-.2.3-.4.5-.3.3-.6.8-.9,1-2.4.8-4.9,1.4-7.3,2.1-1.2.3-2.5,1-3.6.8-.9-.1-1.6-1.3-2.3-2.1-1.2-1.3-2.3-2.6-4.4-2.3-2.4.3-4.8.1-7.1.4-1,.1-2.3.5-3,1.3-1.7,1.9-3.8,1.3-5.7,1.3-2.1,0-4.3-.3-6.4-.6-2.8-.3-5.5-.8-8.3-1.2-1.8-.2-3.6-.4-5.4-.6-4.2-.6-8.4-1-12.7-.9-3.5.1-7,0-10.5.4-3,.3-6,.8-8.9,1.5-1.6.4-3.2,1.5-4.6,2.5-1.1.8-2.1,1.4-3.5,1.7-1.1.2-2.6.8-2.9,1.6-.7,1.6-1.6,1.4-2.8,1-1.9-.6-2.4-2.2-1.3-3.9.2-.3.5-.5.5-.8,0-.5-.2-1-.2-1.5-.4.2-1.1.4-1.3.7-1.1,1.8-2,3.7-3.1,5.4-.3.5-1.1.6-1.6.9,0-.6-.3-1.3,0-1.8,1.3-3.2,3-6.2,3.9-9.5.6-2.1,1.3-4.3,1.2-6.7,0-1.4.9-2.9,1.5-4.2.8-1.8,1.9-3.6,2.7-5.4.7-1.5,1.3-3.1,1.9-4.7,1.2-3,2.4-6,3.6-9.1,1.2-3.2,2.4-6.3,3.6-9.5,2.1-5.5,4.2-10.9,6.3-16.4,1.7-4.4,3.5-8.8,5.2-13.3.4-1.1-.4-2.2-1.5-2.3-.8,0-1,.3-1.1,1.1-.2,1.5-.5,3-.9,4.5-.3,1.3-1,2.4-2.3,3,0,0,0,0-.1.1-2,3.2-5.8,3-8.7,4.5-3.6,1.9-7.5,3.3-11.4,4.8-5.9,2.3-11,5.7-16.3,9-2.3,1.4-4.2,3.5-6.4,5.1-3.2,2.3-4.7,6-7.2,8.8-1.7,1.9-3.3,3.8-5.1,5.6-.5.5-1.8.5-2.5.3-1.2-.3-2.1,0-2.6.8-1,1.9-2.5,1.4-3.8.8-2-.9-3.8-2.3-5.8-3.2-3.5-1.7-7-3.3-10.5-4.8-3.1-1.3-6.3-2.5-9.5-3.6-3.2-1.1-6.4-2-9.6-3-3.8-1.1-7.6-2.2-11.4-3.4-5.3-1.6-10.6-3.2-15.8-4.9-2.8-.9-5.5-2.1-8.2-3.1-3.5-1.2-7.1-2.3-10.6-3.6-1.6-.6-3.1-1.7-4.6-2.5-.6-.3-1.1-.7-1.8-.8-1.9-.4-3.9-.4-5.7-.9-5-1.4-10-2.8-14.9-4.5-2.5-.8-4.8-2.1-7.2-3.1-.7-.3-1.5-.3-2.3-.6-3-.9-6.1-1.8-9.1-2.8-4.7-1.6-9.3-3.3-14-5-5.2-2-10.4-4-15.6-6.1-3.6-1.5-7.2-2.2-11.1-2.3-1.2,0-2.5-.8-3.7-1.3-.8-.3-1.6-.6-2.2-1.1-1.2-1-1.4-2.3-.4-3.4,1-1.2.9-2.7,1.1-4,.6-2.7,1-5.3,1.4-8,.1-.8.1-1.7,0-2.5,0-1.1.5-1.6,1.4-1.9,1.3-.4,2.7-.8,4-1.2.5-.2.9-.5,1.3-.8,3.9-4.1,7.8-8.3,11.8-12.3,3.2-3.2,6.5-6.2,9.8-9.2,1-.9,2-1.7,2.9-2.6,3.5-3.3,7-6.6,10.5-9.9,3.3-3.1,6.5-6.3,9.7-9.4,3-2.9,6.1-5.8,9.2-8.6,3.3-3,6.5-6.1,9.9-9,3.2-2.7,6.6-5.3,9.9-7.9,3.8-3,7.5-6,11.3-8.9,4-3.1,8.1-6.1,12.1-9.2,1.4-1.1,2.8-2.2,4.3-3.4,2.8-2.2,5.7-4.2,8.3-6.5,4.7-4.3,10.2-7.7,15.3-11.4,3.6-2.6,7.2-5.1,10.7-7.8,2.3-1.7,4.4-3.6,6.5-5.5,2.4-2.1,4.7-4.4,7.2-6.5.4-.4,1.6-.4,2-.1,1.9,1.4,3.8,2.9,5.3,4.7.6.6.5,2.1.3,3.1-.3,1.3-1,2.6-1.8,3.7-2,2.5-4,5-6.2,7.4-.9,1-1.9,1.8-2.9,2.6-4.3,3.9-8.6,7.8-13.1,11.5-4.3,3.6-9,6.8-13.4,10.2-3.9,3-7.6,6.3-11.5,9.3-1.3,1.1-2.9,1.8-4.3,2.9-2.4,1.9-4.6,3.9-7,5.8-3.7,3-7.5,6-11.3,8.9-2,1.6-3.9,3.2-5.9,4.7-1.7,1.3-3.5,2.7-5.2,4-2.8,2.2-5.6,4.3-8.3,6.5-2.6,2.1-5,4.3-7.6,6.4-4,3.2-8.1,6.2-12.2,9.3-1.1.9-2.1,1.9-3.2,2.8-3,2.6-6.2,5-9.1,7.7-4.1,3.9-7.9,8-11.8,12-2,2.1-4,4.2-6,6.3-1.6,1.6-1.1,2.2.8,3,3.6,1.5,7.2,2.9,10.9,4.2,2.2.8,4.4,1.3,6.6,2,1.7.5,3.3,1.2,4.9,1.8,4.8,1.6,9.6,3.2,14.3,4.8,3.6,1.3,7.2,2.8,10.8,3.9,4.3,1.4,8.7,2.5,13,3.7,1.6.5,3.1,1.1,4.7,1.6,2.7.9,5.3,1.9,8,2.6,2,.6,4.1.7,6.2,1.2,1.9.4,3.7,1,5.6,1.5,2.3.6,4.7,1.1,7,1.7,2.9.8,5.8,1.9,8.7,2.7,4.4,1.3,8.9,2.3,13.2,3.6,4.5,1.4,8.9,3,13.3,4.4,1.3.4,2.7.7,4,1.1,2.8.9,5.7,1.9,8.5,2.8,3.3,1.1,6.7,2.3,10,3.5.7.3,1.5.5,2.2.9,1.4.8,2.2-.1,2.7-1,2.6-4,6.3-6.9,10.1-9.7,2.5-1.8,5.3-3.3,8-4.7,1.2-.6.8-1.1.1-1.7-4.3-3.4-8.6-7-13-10.3-3.3-2.5-6.8-4.7-10.4-6.8-4.6-2.8-9.3-5.4-14.1-7.9-4.8-2.4-9.8-4.5-14.8-6.7-.5-.2-1.1-.6-1.5-1-1.4-1.4-1.4-1.4-.1-2.9.6-.7,1-1.7,1.6-2.4.7-1,1.5-1.9,2.2-2.8.1-.2.3-.4.3-.6.6-3.4,3.4-5.8,4.1-9.1.3-1.3.6-2.6,1.1-3.8.3-.8,1-1.6,1.7-1.9,2.6-1.2,5.2-2.2,7.9-3.2,1.7-.7,3.4-1.3,5.2-1.9,1.5-.5,3.2-.7,4.7-1.1,2.2-.7,4.4-1.6,6.7-2.2,2.3-.6,4.6-1.1,6.9-1.6,2.9-.7,5.8-1.4,8.8-2.2.3,0,.6-.2.8-.2,3.3.7,6.1-1.3,9.2-1.6,1.6-.1,3.1-1.2,4.6-1.7,4.9-1.5,9.8-3,14.6-4.5,3.8-1.2,7.4-2.7,11.2-3.7,4-1.1,8.1-1.7,12.2-2.5,1-.2,2.1,0,3.1-.4,2-.6,2.9-2.4,4-3.9,1.1-1.4,2.3-2.6,3.5-3.8.2-.2,1.4.1,1.4.3.4,2,2.5,2.6,3.3,4.3.4.8.9,1.6.9,2.4.1,2.1.3,4.2-1,6.1-.3.4,0,1.5.4,2,.5.7,1,.2,1.3-.5,1.2-3.1,2.5-6.2,3.8-9.3,1.8-4.4,3.6-8.7,5.3-13.1.9-2.3,1.7-4.6,2.5-6.8,1.7-4.6,3.5-9.2,4.9-13.9,2.4-8.3,5.6-16.2,9.5-23.9,1.9-3.8,3.3-8,5.2-11.8.9-1.8,2.5-3.3,3.7-5,.6-.8,1-1.5,2.3-1.4,1.2.2,1.7.9,1.5,2.2-.1,1.1,0,2.3.2,3.4,0,1.2.1,2.4.3,3.6.3,2,.9,3.9,1.1,5.9.2,1.7.5,3.6.3,5.3-.2,1.4-1.3,2.7-1.9,4.1-1.8,4.1-3.5,8.1-5.2,12.3-2.6,6.5-5,13-7.6,19.5-2.6,6.4-5.8,12.5-7.8,19-1.8,5.8-4.4,11.3-6.4,17-.8,2.1-1.5,4.2-2.2,6.4-.1.4.3.9.4,1.4.3-.1.6-.2.8-.3,2.3-.5,4.6-1,7-1.5.7-.2,1.5-.3,2.2-.5,4-1.3,7.9-2.6,11.9-4,2.7-.9,5.3-1.9,8-2.6,3.2-.9,6.4-1.6,9.6-2.4,1.2-.3,2.3-.7,3.5-.9.4,0,.8,0,1.2.2-.3.3-.6.7-.9.8-3.2,1-6.4,2-9.6,3-3.7,1.1-7.5,2.2-11.3,3.3-3.3,1-6.5,2-9.8,3-.2,0-.5.1-.6.3-.3.3-.5.7-.8,1,.4,0,.9.2,1.3.1,2.9-.8,5.7-1.7,8.8-1.9,2.9-.2,5.7-1.5,8.5-2.2,5-1.4,10.1-2.8,15.1-4.1.7-.2,1.5.2,2.3.3.4,0,.9.2,1.3.1.3,0,.5-.2.7-.4-.1-.2-.3-.3-.4-.5-.1-.1-.3-.3-.4-.4.2,0,.3-.2.5-.2.7,0,1.4.2,2.1.3,1.1,0,2.1.1,3.2,0,.8-.1,1.6-.6,2.5-.9.1,0,.3-.2.4-.3-.1-.1-.3-.3-.4-.3-.6,0-1.3-.1-1.7.2-1,.9-2.2.6-3.3.7-.2,0-.4-.2-.6-.2.1-.2.2-.5.4-.6,1.8-.5,3.5-1,5.3-1.2,1.3-.1,2.7.4,4.1.5.2,0,.5-.2.7-.3-.2,0-.5-.2-.7-.3-.4-.1-.7-.2-1.1-.3.3-.2.7-.4,1-.6,3.5-1,7-2.1,10.5-3,3.4-.8,6.9-1.4,10.4-2.1,1.3-.3,2.7-.6,4.1-.9M184.7,149.8c.3-.1.7-.3,1-.4-.2-.2-.3-.3-.5-.5-.2.3-.5.6-.8.9-.3.2-.7.5-1,.7.1,0,.3.2.3.2.3-.3.6-.6,1-.9M532.2,198.2c-2.4,2.2-3.4,5.4-5.1,8.1-.2.3,0,.9,0,1.3.4-.3.9-.4,1.1-.8.9-1.7,1.7-3.5,2.7-5.1.8-1.1,1.7-2,1.6-3.6.1-.3.3-.7.4-1,0,0-.1-.1-.2-.2-.1.3-.3.7-.4,1,0,0,0,0-.2.1M261.7,89.2c-1.4.7-2.9,1.4-4.3,2.2-.9.6-1.5,1.6-2.4,2.3-.7.6-1.6,1-2.4.1-.2-.2-.3-.3-.5-.5,0,.2.1.5.2.7.1.5.5,1.2.3,1.4-.9.9-1.9,1.7-3,2.4-3.1,2.4-6.2,4.7-9.2,7.2-1.4,1.1-2.7,2.3-4.1,3.4-1.8,1.5-4,2.6-5.4,4.4-1.5,1.9-3.1,3.3-5.5,4-1.1.4-2.1,1.5-2.9,2.5-.7.9-1.1,2.1-1.8,2.9-1.3,1.5-2.7,2.7-4.1,4.1-.2.2-.2.5-.3.7.2,0,.5,0,.7-.2.9-.7,1.8-1.3,2.5-2.1,1.2-1.4,3-2.1,3.7-4,.5-1.4,1.3-3.3,3.7-2.2,0,0,.4-.2.6-.4,2-1.6,4-3.2,6-4.8,2-1.6,4.1-3.3,6.1-5,.8-.7,1.4-1.6,2.1-2.3,2-1.8,4.2-3.3,6.1-5.2,1.8-1.7,3.3-3.7,5.9-4.4.4-.1.7-.4,1-.7,1.8-1.7,3.7-3.5,5.5-5.2.5-.5.9-1,1.5-1.5.9.2,1.5-.2,2-.8.9-1.1,1.8-2.2,2.9-3,1.8-1.4,3.6-2.9,5.8-3.8,1.8-.8,3.2-2.6,4.7-4,1.1-.9,2.2-1.8,3.3-2.7,2-1.6,4-3.2,6-4.8.3-.2.3-.6.5-.9-.3,0-.8,0-1,.2-1.4,1-2.7,2.1-4.1,2.9-3.5,2.1-6.5,4.7-9.3,7.6-.3.3-.5.6-.9.7-2.2.8-4.1,2.1-5.7,3.8-1.2,1.3-2.5,2.5-3.8,3.8-.3.3-.4.7-.8,1.1M504.7,226.6c1.1-1.9,2.1-3.8,3.3-5.6,4.1-6.3,7.6-12.8,10.9-19.6,1.6-3.2,3.3-6.3,5-9.5,1.8-3.4,3.8-6.6,5.4-10.1,2.7-5.8,5.1-11.8,7.9-17.7,1.9-4,4-7.9,6.2-11.7,3.3-5.7,6.7-11.4,10.1-17.1.2-.3.3-.7.5-1-.5-.2-1-.6-1.4-.6-1.1.2-2.1.6-3.2.8-3.8.8-7.7,1.5-11.5,2.4-3.2.8-6.4,1.8-9.6,2.6-2.6.7-5.3,1.4-7.9,2.1-2.3.6-4.5,1.4-6.8,2-1.7.4-3.4.6-5.1,1-2,.5-3.9,1.4-6,1.7-4.3.8-8.5,1.7-12.6,3-2.6.8-5.3,1.3-7.9,2.1-2.6.8-5.1,1.7-7.7,2.5-1.7.5-3.4.8-5.1,1.3-1.5.5-2.9,1.2-4.5,1.3-1.5.1-2.9,1.2-4.3,1.6-3.7,1.1-7.5,2.1-11.3,3.2-1.8.5-3.6,1.3-5.5,1.8-1.7.5-3.5.7-5.1,1.3-5.2,1.9-10.4,3.8-15.5,5.9-2.3.9-4,3.1-1.4,5.6,1.4,1.3,2.7,2.9,3.8,4.5,2.7,4,5.2,8.2,7.8,12.2,2.4,3.7,4.8,7.4,7.1,11.2,1.5,2.5,2.7,5.3,4.3,7.7,2.3,3.4,4.9,6.5,7.3,9.8,2.2,2.9,4.4,5.8,6.6,8.7,2.4,3.1,4.8,6.2,7.4,9.1,2.9,3.3,5.8,6.5,8.8,9.7,3,3.2,6,6.2,9,9.3,1.1,1.1,1.8,1,2.5-.5.1-.3.2-.6.3-.9,1.8-3.1,3.6-6.2,5.5-9.3,4.2-7,8.5-13.9,12.8-21.2M368.1,186.6c1.5.2,2.9.4,4.4.6.9.1,1.7.2,2.6.3.9.1,1.8.3,2.6.6,2.3,1,4.9,1.3,6.6,3.4.8.9,1.5,2.1,2.4,2.7,1.3.8,1.6,2,2,3.2.1.4,0,1.1-.4,1.4-1.8,1.5-1.8,3.7.2,5.1.7.5,1.4,1.2,1.7,2,.8,2,1.4,4.1,2.1,6.1.6,1.5,2.7,2,3.9.8.6-.5,1-1,1.9-.4.8.6.9,1.3.5,2.2-1.6,3.8-3.3,7.6-4.8,11.4-2.3,6-4.7,12-6.8,18.1-.8,2.4-1.4,4.9-2.7,7.2-.6,1.1.2,2.1,1.5,2,2.9,0,5.9-.2,8.8-.3,7.6-.2,15.1.2,22.7.9,1,0,2,.1,3,.3,2.8.5,5.5,1.1,8.3,1.4,4.1.4,8.2.6,12.3,1,.4,0,.7.4,1.1.6-.3.2-.7.5-1,.5-2-.1-4-.4-6-.6-.4,0-.8,0-1.2,0-.2,0-.4.2-.6.3.2.2.3.4.5.5.2.1.5.3.8.3,2.2.4,4.3.8,6.5,1.2,1.7.3,3.5.5,5.3.6,1.2,0,1.4-.4.9-1.5-.3-.7-.6-1.3-.9-2-.5-1.2-.7-2.5-1.4-3.6-2.6-4-5.3-8-8.1-12-2-2.9-4.4-5.6-6.3-8.6-2.3-3.6-4.2-7.4-6.4-11-3.8-6.2-7.6-12.4-11.4-18.6-1.2-2-2.5-3.9-3.9-5.8-.8-1.1-2-2-2.9-3.1-.3-.4,0-1.2,0-1.9.4,0,.9,0,1.1.2,1.6,2,3.3,4,4.7,6.2,4.2,6.6,8.2,13.3,12.3,20,1.1,1.9,2.2,3.8,3.3,5.6,1,1.8,2.2,3.5,3.1,5.2,1.4,2.6,2.3,2.8,4.5.9.5-.4,1.3-.8,1.9-.7,1.2.1,2.3.6,3.4,1,.5.2,1.1.5,1.6.4.5-.1,1.1-.6,1.4-1.1.2-.3-.1-.9-.2-1.3-.4.1-.9.3-1.3.4-.4,0-.8,0-1.2,0,.2-.4.3-1,.6-1.1,1.1-.4,1.9-1.1,2.6-2.2,1.1-1.8,3.2-3.2,2.9-5.7.3,0,.8,0,.9,0,.2.4.3.9.3,1.3,0,1-.4,2.1-.2,3,.3,1.2-.3,1.9-1,2.5-.5.4-1,.7-1.5,1.1-.2.2-.3.4-.5.6.2.1.5.3.7.3,1.9.3,3.4-.6,4.7-1.9.7-.6.7-1.3,0-2.3-.5-.8-.8-2-.6-3,.2-1.6-.6-2.7-2.2-2.6-.1,0-.2,0-.4,0,.4-1.8-1-2.8-1.8-4-.2-.3-.3-.5-.5-.7-.1.3-.4.7-.4,1,0,.3.2.7.4,1,1,1.5.9,2.8-.3,4.2-.7.8-1.5,1.6-1.9,2.6-.9,2.4-1.2,2.7-3.6,1.7-.8-.3-3.6.8-3.5,1.6,0,1.5-1,1.9-1.9,2.6-.9.7-1,.3-1.2-.5-.2-.8-.5-1.5-.8-2.2-1.7-3.3-4.2-6.1-5.6-9.7-1.3-3.4-3.2-6.5-5.1-9.6-1.9-3-3.4-6.2-6.1-8.7-1.3-1.2-2.2-2.9-3.4-4.4-1.2-1.5-2.5-3-3.9-4.4-.4-.4-1.1-.6-1.7-.9.1.6.3,1.1.3,1.7,0,.3-.3.8-.4.8-1.5-.4-2.4.5-3.6,1.1-.4.2-1,.3-1.5.4,0-.6-.4-1.4-.1-1.9.5-1.3,1.2-2.6,2-3.8.9-1.4-.3-3.5-2.1-3.7-1.1-.1-2.2,0-3.3,0-.6,0-1.1,0-.7,1,.4,1.1.3,2.3-.5,3.3-.7.9-.3,1.5.8,1.5,1.1,0,1.8.6,1.8,1.6,0,1.2.4,2.1,1.3,2.8.2.2.4.5.5.8.3.9-.3,2.7-1.1,2.7-.6,0-1.4-.6-1.7-1.1-.2-.5.1-1.4.2-2.1,0-.2.1-.5,0-.5-.2-.1-.5-.2-.6-.1-.4.2-.7.4-.9.8-.9,1.2-1.8,2.4-2.6,3.7-.2.3-.3.7-.4,1,0,0,.2.2.3.1,1.2-.3,2.3-.8,3.5-.9.6,0,1.6.7,1.7,1.3.2,1.1,0,2.3-.2,3.4-.2,1.1-.6,2.2-.8,3.4,0,.3,0,.7.1,1.1.2-.3.3-.6.5-.8.3-.4.5-.9.9-1.1,1.8-1.1,1.6-3,1.3-4.4-.3-1.5.4-1.2,1-1,1.2.4,1.3,0,1.6-1,.2-1,.8-1.9,1.2-2.8,0-.2.4-.4.6-.4.2,0,.5.3.5.6,0,.4,0,.9-.2,1.2-.7,1.7-1.4,3.4-2.1,5.1-.9,2.4-1.9,4.8-2.7,7.2-.5,1.4-.5,1.5-2.1.9-.3-.1-.9-.7-.8-.7.6-1-.2-1.4-.7-1.4-.5,0-1,.6-1.4,1.1-.2.3-.2.8-.4,1.2-.1.3-.5.4-.7.6-.1-.2-.3-.5-.4-.7-.4-1.4-.8-2.8-1.1-4.3,0-.3.3-.8.4-1.2.3.2.5.4.8.7.2.2.4.5.7.7.1.1.5.2.5.2.3-.5.6-.9.9-1.4,0,0-.2-.4-.3-.4-1.2-.3-2.4-.7-3.6-.9-1.1-.2-1.9-.5-1.6-1.8.2-1.4.4-2.8.7-4.2,1.2-4.6,3-9.1,3.8-13.9.1-.9,0-1.3-.5-1.9-1.8-1.8-3.5-3.7-5.9-4.8-.8-.4-.8-1-.3-1.6,1.2-1.4,2.3-2.7,3-4.6,1.1-3,2.9-5.8,4.4-8.7.2-.5.2-1.2,0-1.8-.3-1.5.1-2.9,1.1-3.1,2-.5,2.2-1,1.7-3,0-.3,0-.6-.1-.8-.4-.8.1-1.1.7-1.2.5,0,1,0,1.5,0,.6,0,1.3,0,1.7-.3,1.5-1.2,2.1-2.9,2.6-4.7.7-2.1,1.4-4.2,2.1-6.3.4-1.2.7-2.5.9-3.8.2-1.2-.7-1.2-1.3-.7-.7.7-1.1,1.7-1.7,2.5-.5.7-1,1.5-1.6,2.1-.6.5-1.4.8-2.1,1.3-.6.4-1.1.8-1.5,1.3-.4.4-.7,1-.9,1.5-.3.6-.5,1.3-.8,1.9-.5-.6-1.1-1.1-1.6-1.7,0,0,0-.3-.2-.4-.8-.9-1.5-1.8-2.8-.6-1.6,1.4-3.2,1.5-4.8,0-.2-.2-.5-.4-.8-.4-.3,0-.7,0-1,.1.1.2.3.5.4.7.2.3.3.7.5,1-.4,0-1,.1-1.3-.1-1-.7-2.1-.7-3.3-.4-1.7.5-3.5,1-5.2,1.4-2.3.6-4.7.8-6.9,1.6-4.1,1.4-8.2,2.9-12.3,4.5-1.2.5-2.4,1.2-3.6,1.7-3.9,1.5-7.8,3.1-11.8,4.5-3,1.1-6.1,1.9-9.2,3-.8.3-1.4.9-2,1.5,0,0,0,.6.2.8.1.2.6.4.7.3,1.3-1.6,3.2-.8,4.8-1.1.1,0,.2,0,.4.2,0,.1-.1.4-.3.4-1,.4-1.9,1.1-2.9,1.1-2,.1-.4.9-.3,1.4,0,.2.2.3.4.4,3.4,2.2,6.7,4.5,10.2,6.6,4.8,3,9.7,5.9,14.7,8.7,2.7,1.5,5.6,2.5,8.7,3.7M546.3,219.5c1.4-.5,2.6-1.4,4.2-1.1.1,0,.3-.2.5-.3,1.9-.6,3.7-1.3,5.7-1.8,1.8-.4,3.6-.7,5.4-.9,1.1-.2,2.3-.2,3.4-.3,3.3-.5,6.6-1.1,10-1.4,2.9-.3,5.8-.2,8.6-.4.7,0,1.9-.6,1.9-1.1.2-1.2.3-2.7-.2-3.8-1.8-3.7-3.6-7.4-5.8-10.8-4.2-6.5-7.9-13.3-11.4-20.2-1.9-3.7-3.6-7.4-5.1-11.3-1.1-2.8-1.8-5.7-2.7-8.6-.2-.6-.4-1.1-.6-1.7-.5-2.1-1-4.2-1.5-6.4,0-.4-.5-1-.7-.9-.5,0-1,.3-1.3.7-.4.5-.5,1.3-.8,1.9-1.8,3.8-3.6,7.5-5.5,11.2-1.5,3.1-3.2,6.1-4.7,9.2-1.5,2.9-3,5.7-4.4,8.6-1.3,2.7-2.6,5.4-3.9,8-.9,1.8-2,3.4-2.9,5.2-.2.3-.2.8-.2,1.2.3-.2.8-.3,1-.6.4-.4.7-.9,1-1.4.9-1.8,1.7-3.6,2.6-5.4,1.9-3.7,3.8-7.4,5.7-11.1.3-.6.8-1,1.3-1.6-.2.6-.4,1.2-.6,1.8,0,.2,0,.4-.1.5-1.1,2.3-2.2,4.6-3.4,6.9-1.8,3.3-3.7,6.5-5.4,9.8-1.3,2.4-2.2,5-3.5,7.5-3.1,6-6.3,11.8-9.4,17.8-1.3,2.5-2.5,5-3.8,7.5-.2.4-.9.6-1.3.8,0-.4-.1-.8-.2-1.2,0-.2,0-.3,0-.5-.2,0-.5,0-.5.2-.2.7-.7,1.6-.5,2,.4.7,1.4,1.6,2,1.6,1.4-.1,2.8-1,4.2-1.3,2.7-.5,4.7-3.2,7.8-2.5.3,0,.7-.3,1.1-.5.9-.3,1.9-1,2.7-.9,1.7.2,2.7-1,3.8-1.6,2.4-1.2,4.9-2.1,7.7-2.8M439.3,212.7c-1.9-2.8-1.4-3,.1-4.6.2-.3.3-1,0-1.4-.5-.8-.8-.1-1.2.2-.1.1-.3.2-.5.3-1.5.6-2.1,1.7-2.1,3.2,0,.3-.1.7-.4.9-1.9,1.1-3.9,2-5.8,3.1-.9.5-1.7,1.1-1.5,2.4.1.9,0,1.9,0,2.9,0,1.3.7,1.5,1.7,1.6,2.2.2,2.3.4,2.5,2.6,0,.8,0,1.6.3,2.4.2.4.8,1,1.2,1,.9,0,1.5-.4,1.1-1.6-.2-.6-.1-1.6.2-1.9,1.3-1.3,2.7-2.5,4.6-2.8.3,0,.8-.2.8-.4.2-1.4.4-2.9.2-4.3-.1-1.1-.8-2.2-1.3-3.5M290.5,217c3.4,1,6.9,2,10.3,3.2,4.1,1.4,8.1,3.1,12.3,4.4,2.3.8,4.7,1.1,7.1,1.6.2,0,.4,0,.5-.1-.1-.1-.2-.3-.4-.4-.8-.4-1.5-.9-2.3-1.2-2.8-1.1-5.5-2.1-8.3-3.2-3.5-1.3-7-2.6-10.6-3.8-4.4-1.5-8.9-2.8-13.4-4.2-2.6-.8-5.2-1.5-7.8-2.3-4.2-1.2-8.5-1.9-12.5-3.8-1.7-.8-3.7-1.1-5.6-1.5-.2,0-.5.2-.8.3.2.2.4.4.6.5,4.8,1.8,9.6,3.8,14.5,5.4,2.9,1,6,1.6,8.9,2.4,2.5.7,4.9,1.7,7.6,2.7M384.9,142.5c.8-.8,1.4-1.7,2.3-2.3,2.4-1.6,3.7-3.8,3.9-6.7,0-1.4.8-2.7,2.2-3,3.3-.8,4.1-3.7,5.7-6.1,0-.1,0-.5-.2-.7,0,0-.5,0-.6,0-1.5,1.7-4.2,1.9-5.2,4.2,0,.2-.3.4-.5.5-1.3,1.3-2.6,2.4-3.7,3.8-.6.7-.7,1.7-1.3,2.4-1.3,1.4-2.7,2.6-4.1,3.9-1.3,1.1-1.1,2.4-.6,3.7.7,1.6.7,1.6,2.1.2M437.1,203c-.2-.3-.5-.6-.7-.9-1.3-1.2-1.6-3.4-3.9-3.5-.4,0-.8-.8-1.2-1.2.6-.3,1.1-.6,1.7-.8,0,0,.2,0,.3.1,0-.1,0-.4,0-.4-.7-.3-1.5-.8-2.1-.6-.9.3-1.7,1.1-2.5,1.8,0,0,.6,1.1,1.1,1.6.3.3.8.4,1,.8.6.8,1.2,1.6,1.6,2.5.9,2-.3,3.9-.7,5.8-.2.9-.6,1.9-.7,2.8,0,.3.3.7.5,1,.3-.2.7-.4.9-.7.4-.6.6-1.4,1-2,.9-1.2,1.5-2.7,3.3-3,1.7-.3,1.7-.7.8-2.2-.2-.3-.2-.6-.5-1.1M384.9,238.8c-.4,1.1-.8,2.1-1.2,3.2-.4,1-1.1,1.3-2.2,1.4-1.7.2-3.3.5-4.9,1-.6.2-1,1.1-1.5,1.7.7,0,1.4.2,2,.1,1.8,0,3.4-1.3,5.4-.5.3.1.9-.3,1.2-.6.8-.6,1.5-1.2,2.4-1.7.6-.3.7-.6.2-.9-1.4-.8-.9-1.8-.4-2.9.4-.6.8-1.3,1-1.9.5-1.7.9-3.5,1.3-5.3,0-.2,0-.4,0-.6-.2.1-.4.2-.5.4-.3.7-.5,1.5-.8,2.2-.6,1.4-1.2,2.8-1.9,4.3M465.2,141c-.4.2-.8.4-1.1.6.3.1.7.4,1,.4,1.1-.2,2.3-.5,3.4-.7,2.1-.5,4.2-1.1,6.3-1.6.8-.2,1.7-.9,2.4-.8,2.6.2,4.7-1.4,7.1-1.9.8-.2,1.5-.7,2.3-.2.1,0,.3,0,.4,0-.1,0-.2-.1-.3-.2-.9-1.4-2.3-.7-3.3-.5-2.2.4-4,2.2-6.5,1.1-.2,0-.6.2-.9.3-.5.2-1,.4-1.5.6-1.1.3-2.2.6-3.3,1-2,.7-3.9,1.5-6,2.1M542.6,119.5c-1.5-.3-2.7.3-3.8,1.2-.2.2-.3.5-.5.7.2,0,.5.3.7.2,1.7-.3,3.3-.5,5-.8,2.5-.6,5-1.2,7.6-1.8,2-.5,4-1,6.1-1.5.2,0,.4-.4.5-.6,0,0-.2-.3-.2-.3-1.1,0-2.2-.1-3.3,0-1.3.2-2.7.5-4,.9-2.6.7-5.2,1.4-8.1,2.1M507.7,243c-.6,1.3-1.2,2.7-1.8,4-.3.5-.3.9.4.9,1.5,0,3.2-1.5,3.1-3,0-1.8.5-3.3,2.4-4,.5-.2,1.3-.7,1.4-1.1.1-.8,1.7-1.3.6-2.2-.9-.7-1.9-.4-2.7.3-.2.2-.4.3-.5.5-.9,1.5-1.8,3-2.9,4.6M377,191.4c.2.4.3.8.6,1.1,1,1.4,2.1,2.7,3.2,4,1.3,1.6,2.1,3.7,4.3,4.4.5.1.9.9,1.3,0,.3-.6,0-1.2-.7-1.6-1.1-.6-2.1-1.2-3.1-1.9-.2-.2-.4-.5-.5-.7.3-.1.7-.3,1-.3.9,0,1.8,0,2.7,0,.2,0,.4-.2.6-.4-.1-.2-.2-.4-.4-.5-.8-.4-1.7-.8-2.4-1.3-.6-.5-1-.7-1.6,0-.1.1-.9-.4-1.3-.7,0,0,.2-.6.3-.8.1-.2.4-.4.6-.6-.3-.1-.6-.3-.9-.3-1.1-.1-2.2-.2-3.6-.3M464.4,270.2c-.5,0-1,.2-1.5.3-.2,0-.3.3-.4.4,1.2.8.1,1.3-.3,1.9-.2.3-.6.5-.9.8-.2-.6-.9-1.6-.7-1.9,1-1.3-.3-1.1-.8-1.2-.8-.1-1.6,0-2.4,0-.2,0-.4.2-.7.3.2,0,.5.3.7.3,1.3-.2,1.9.4,2,1.7,0,.6.3,1.3.6,1.8.3.4.8.6,1.3.9.2-.3.3-.5.5-.8.1-.2.3-.2.4-.4.5-.6,1.2-1.2,1.3-1.9.2-.8.4-1.1,1.2-1,.9,0,1.9,0,2.8,0,.5,0,.9-.5,1.3-.8-.4-.2-.9-.6-1.3-.7-1,0-2,0-3.2.3M221.1,200.8c-.3-1.4-2-2.4-1.2-4.2,0-.2-.5-.7-.8-1-.1.4-.3.7-.3,1.1,0,.6.2,1.3.4,1.9.6,1.3,1.1,2.6.5,4.1-.5,1.2-.5,2.4.7,3.4.3.2.4.6.5,1,.4,1.5.8,3,1.2,4.5,0,.3.4.5.6.7.1-.3.3-.5.3-.8.2-2.1-.9-3.8-1.6-5.7-.1-.3-.5-.9-.4-1,1.3-1.2,0-2.5.3-4M305.4,53.2c1.4-1.4,2.9-2.8,4.2-4.3.3-.3,0-1,0-1.5-.4.1-1,.2-1.3.5-2.6,2.9-5.1,5.9-7.7,8.8-.1.1,0,.4-.1.6.2,0,.5,0,.6-.2,1.4-1.2,2.7-2.5,4.2-3.9M450,275.4c0,1.7.7,2.2,2.2,1.6.4-.2,1-.5,1.1-.8.5-1.4,1.4-1.7,2.8-1.5.2,0,.5-.1.7-.2,0-.3-.1-.7-.3-.7-.5-.2-1-.3-1.5-.3-.4,0-.8.4-1.1.3-2.6-.7-2.7-.6-3.9,1.8M181.9,154.4c-.2,0-.6-.3-.6-.2-1,1.2-3.3.7-3.3,3,0,.1-.3.3-.4.4-.9.8-1.9,1.6-2.8,2.5-.8.8-1.6,1.8-2.4,2.7-.1.1-.3.3-.2.4,0,.2.3.4.4.3.3,0,.7-.2,1-.5,2-2.1,4-4.2,6.1-6.3.7-.7,1.5-1.3,2.2-2.3M568.1,233c.2-.1.5-.3.7-.4-.3-.2-.6-.4-.9-.5-2.1,0-4.3.2-6.4-.2-1-.2-2.1.5-3.2.8-.1,0-.2.4-.3.6.6.2,1.3.7,1.8.5,1.3-.5,2.5-.1,3.8-.3,1.4-.1,2.8-.4,4.5-.6M187.4,184.9c-.7.7-1.1,4.1-.5,4.8.3.4.9.8,1.4.8.3,0,.8-.7.9-1.1.2-1.1.3-2.3.1-3.4,0-.7-.6-1.3-1.9-1M166.6,168.2c-1.3,1.3-2.6,2.6-3.9,3.9-.2.2-.3.5-.4.8.3.1.6.4.9.3.4,0,.8-.4,1.1-.7,2.2-2.2,4.3-4.5,6.5-6.8.1-.1.3-.3.4-.4.1-.3.2-.6.3-.9-.3,0-.6.1-.8.3-1.3,1.1-2.5,2.3-4.1,3.5M350,182.5c.3,0,.7,0,1-.1-.2-.3-.3-.8-.5-.9-1.6-.8-3.2-1.5-4.8-2.3-.8-.4-2,0-2.3-1.3-.4-1.8-1.7-1.9-3.2-1.7-.2,0-.4.1-.6.2.2.1.4.4.6.4,1.3.3,2.2,1,3,2.2.3.5,1.1,1.1,1.6,1.1,1.1-.2,1.8.2,2.6.8.8.6,1.7,1.1,2.9,1.7M517.3,128.4c-.1-.2-.2-.6-.3-.6-.5,0-.9.1-1.4.3-3,.9-6.1,1.8-9.1,2.8-.3,0-.4.5-.6.7.3.1.7.4,1,.4,3.4-1.1,6.7-2.3,10.4-3.5M461.9,278c-.3,0-.5,0-.8,0-.7-.1-1.3-.2-2-.3.3-.4.7-.8,1-1.2.1-.1.3-.3.3-.5,0-.2-.3-.4-.4-.4-.3,0-.6.2-.7.4-.3.9-.9,1-1.8,1.1-1.1.2-2.1.9-3.1,1.4-.1,0-.2.4-.2.6,0,.2.4.4.6.4,1.9,0,3.9-.1,5.8-.3.4,0,.9-.5,1.3-1M191.4,206.7c0-.2.3-.5.3-.6-.8-2.1,0-4.7-2-6.4-.2-.2-.4-.5-.6-.8,0,.4-.1.8-.1,1.2,0,.9.2,1.8.3,2.7.3,1.5.2,3.2,2.1,3.9M504.7,138.6c.3.8.5,1.6.8,2.3,0,.2.3.3.5.5,0-.2.2-.5.1-.7,0-1.9-.1-3.7-.3-5.6,0-.6-.4-1.2-.7-1.7-.2-.3-.8-.2-1.2-.3,0,.4-.1.7,0,1.1.1.9.3,1.8.5,2.7,0,.5.2.9.3,1.7M354.1,185.5c1.4.5,2.8,1,4.3,1.5.3,0,.6-.1.9-.2-.3-.3-.5-.8-.9-1-1.3-.7-2.6-1.2-3.8-1.8-.8-.4-1.5-.9-2.3-1.2-.3-.1-.6-.1-.9-.2,0,.3,0,.8.3,1,.7.7,1.4,1.3,2.5,1.9M452.7,233.8c-.7-.6-1.4-1.3-2.2-1.9-.1-.1-.3-.1-.5-.2,0,.2-.2.6,0,.7,1.5,1.6,3,3.1,4.6,4.6.1.1.7-.2,1-.4,0,0,0-.6,0-.7-.8-.7-1.7-1.3-2.7-2.2M419.1,179.1c1.6,1.7,3.2,3.4,4.8,5.1.3.3.7.6,1.1.8.1,0,.3,0,.5,0,0-.2,0-.4,0-.5-1.9-2.1-3.8-4.2-5.7-6.2,0,0-.5.3-.7.7M227.4,211.5c0,1.4,0,2.8,1,3.9.2.2.7.3,1,.4,0-.3-.1-.6-.2-.9-.1-.8-.2-1.6-.3-2.4,0-.6.2-1.3,0-1.8-.2-.5-.8-.8-1.3-1.2,0,.5,0,1.1-.1,1.9M580.6,224.7c-.7,0-1.4,0-2.1,0-.5,0-1,0-1.5,0,.5.3.9.7,1.4.8.6.1,1.3.1,1.9,0,1.7-.4,3.4.2,5,.3.4,0,.9,0,1.3-.1.1,0,.2-.2.3-.3-.1,0-.3-.1-.4-.1-1.9-.2-3.8-.4-6-.6M316,245.3c0,.3.2.6,0,.8-.3.6-.8,1.1-1,1.7-.1.4,0,1,.2,1.5.4-.3.9-.5,1-.8.8-1.7,1.4-3.5,2.1-5.2.1-.4,0-.9,0-1.3-.2.3-.3.7-.5,1-.4.5-.8.9-1.2,1.3-.2.2-.4.5-.6,1M584.5,221.7c.1,0,.3-.1.4-.2-.7-.3-1.3-.8-2-.9-1-.2-2-.1-2.9,0-.7,0-1.4.5-2.1.8.7.2,1.4.6,2.1.7,1.4,0,2.8-.2,4.6-.3M525.6,127.8c-2,.6-4,1.2-5.9,1.8-.3.1-.5.6-.8,1,.4,0,.9,0,1.3,0,2-.7,3.9-1.5,5.9-2.3.5-.2,1-.6,1.5-.9-.5.2-1.1.3-1.9.5M486.9,131.5c-1.2.1-2.4.3-3.7.5-.4,0-.7.4-1,.7.3,0,.7.2,1,.2.9,0,1.8-.1,2.7-.3,1.7-.3,3.4-.6,5.1-.9.3,0,.6-.4,1-.6-.3,0-.7-.3-1-.2-1.3.2-2.6.4-4,.7M193.5,144.9c.6-.4,1.2-.7,1.7-1.2.1,0,0-.4,0-.6,0-.3-.3-.7-.4-.7-.9.1-1.8.3-2.7.6-.2,0-.2.5-.3.8,1.4,0,.7.8.4,1.3-.2.4-.8.6-1.2.8-.2.1-.4.2-.6.3.2.1.4.3.6.3,1,0,1.7-.7,2.3-1.6M476.2,270c-.6,0-1.2-.3-1.8-.2-.7,0-1.5.3-2.2.4-.6.1-1.3.2-1.9.4,0,0,0,.7,0,.7.7.1,1.5.2,2.2.2.5,0,.9-.3,1.4-.5.4-.1.8-.3,1.2-.2.7,0,.7.1,1-.8M457,232.1c-.9-.6-1.8-1.3-2.8-1.9-.2-.1-.4,0-.6-.1,0,.2,0,.5.2.6,1.5,1.3,3,2.7,4.6,4,.2.2.5.2.8.2-.1-.3-.1-.7-.3-.9-.5-.6-1.2-1.2-1.9-1.9M277.2,233.9c-1-.2-2.1-.4-3.1-.6-.2,0-.4.2-.6.2.2.1.3.3.5.4,1.9.6,3.8,1.2,5.8,1.7.2,0,.4-.1.6-.2-.2-.1-.4-.3-.6-.4-.8-.4-1.6-.7-2.5-1.2M233.9,106.3c0,0-.1.1-.2.2-.2.2-.5.4-.7.6,0,0,.2.3.3.2.3-.2.6-.4.8-.6.3-.4.6-1.1,1-1.1,1.9-.2,2.2-2.1,3.2-3.1.1-.1,0-.5,0-.8-.3,0-.6,0-.8.2-1.2,1.3-2.4,2.7-3.5,4.4M156.7,179.7c.5.6,1,1.3,1.5,1.9.2.3.3.6.5.9.1-.4.5-1,.3-1.3-.8-1.5-1.8-2.8-2.7-4.2,0-.1-.4-.2-.5-.2-.1.2-.3.4-.2.6.3.7.7,1.4,1.1,2.4M208.7,130.9c-.7,0-1.6-.3-2,0-.6.5-.9,1.4-1.3,2.1,0,0,.1.3.2.4,0,0,.2-.1.3-.2.9-.4,1.8-.9,2.7-1.3.3-.1.6-.2.8-.3-.3-.2-.6-.3-.9-.8M301.4,46.2c-.2.2-.4.4-.6.6.3,0,.6.1.8,0,1-.6,2.1-1.2,3.1-1.9.3-.2.4-.5.6-.7-.5-.2-1.2-.7-1.4-.5-.9.7-1.6,1.5-2.6,2.5M234.2,199c-.4-.5-1-.7-1.1,0-.1.9,0,1.8.2,2.7,0,.2.5.5.6.4,1.1-.6,1.3-2.1.2-3.2M489.7,269.3c-.7.1-1.1.7-.2.8,1.1.2,2.2-.1,3.3-.2.2,0,.4-.3.5-.5-.2-.1-.5-.4-.7-.4-.9,0-1.8,0-2.9.3M436,237c-.7-1-1.4-2-2.1-3-.1-.1-.5-.1-.7-.2.4.9.7,1.9,1.3,2.7.3.4.5,1.6,1.5.4M512.9,228c-.8.2-1.5.4-2.3.6-.2,0-.4.2-.6.3.2.1.4.3.6.3,1.3-.2,2.5-.4,3.7-.6.3,0,.6-.2,1-.3-.4-.2-.8-.5-1.2-.5-.3,0-.7.2-1.4.3M479.9,269.6c-.3.2-.6.3-1,.5.4.1.9.3,1.3.3,1.4-.1,2.8-.3,4.2-.5.2,0,.5,0,.7,0-.2-.2-.4-.7-.6-.7-1.4,0-2.9.2-4.6.3M564.3,115.6c-1.3,0-2.7.2-4,.3-.2,0-.4.2-.6.2.2.1.3.3.5.3,1.1.1,2.3.3,3.4.3.3,0,.6-.7.7-1.1M468.1,273c-.6,0-1.2,0-1.7.2-.1,0-.2.1-.3.2.4.5.6,1.4,1.1,1.5.5.2,1.2-.4,1.8-.6-.2-.4-.4-.8-.8-1.3M226.8,111.6c.8-.7,1.6-1.4,2.4-2.1.2-.1.2-.4.3-.6-.2,0-.5,0-.6,0-1,.8-1.9,1.7-2.9,2.6,0,0,0,.3,0,.5.2,0,.4-.2.8-.4M295,62.7c1.1-.4,2.2-.7,2.7-1.9,0-.2,0-.5,0-.8-.2,0-.5.1-.6.3-.8.7-1.5,1.5-2.1,2.4M379.9,252.5c.2.3.4.7.5,1,.2-.3.5-.6.6-1,.1-.7.1-1.3.2-2-.4.5-.9,1.1-1.3,1.9M162.7,166.7c.1-.3.2-.5.4-.8-.3-.1-.8-.4-.9-.3-.5.5-1,1-1.4,1.6,0,0,0,.3.1.5.5-.2.9-.4,1.4-.6,0,0,.2,0,.4-.3M169.3,171.2c.1-.1.3-.3.4-.4.2-.3.3-.5.4-.8-.3.1-.6.2-.8.4-.7.6-1.3,1.2-1.9,1.8-.2.2-.3.4-.4.7.3,0,.6,0,.8-.1.5-.4.9-.9,1.5-1.5M328.6,167.9c-.6.2-1.2.4-1.8.6-.2,0-.4.3-.6.5.3.1.7.4.9.3.7-.4,1.3-1,1.6-1.5M445.5,233.8c.2.4.4.9.7,1.3.1.2.6,0,.9,0-.2-.6-.4-1.2-.7-1.8,0,0-.6,0-1,.4M586.6,232.1c-.1,0-.3,0-.4,0-.5,0-.9,0-1.4,0,0,0,0,.4,0,.5.4.2.9.4,1.3.4.5,0,.9-.3,1.4-.5,0,0,0-.3,0-.4-.2,0-.3,0-.8,0M293.2,63.6c-.4.4-.9.8-1.3,1.2-.2.2-.1.6-.2.8.2-.1.5-.2.7-.3.5-.5,1-.9,1.5-1.4.2-.2.4-.5.6-.8-.3.2-.6.4-1.2.6M249.2,203.9c.7,0,1.5.1,2.2.2-.6-.3-1.3-.5-1.9-.8,0,0-.2-.2-.2-.2-.4,0-.7.1-1.1.2.3.2.6.3,1,.6M376.4,196.5c.2.3.4.7.6.9.3.3.8.4,1.2.6-.2-.3-.3-.7-.5-1-.3-.4-.7-.8-1.1-1.1,0,0-.3,0-.4,0,0,.2,0,.3.2.7M322.3,231.8c.3-.3.7-.6.9-.9,0-.2-.2-.6-.4-.8-.4.3-.8.5-1.1.9-.1.2.2.6.5.9M494,135.1c-.1-.2-.3-.7-.4-.7-.3,0-.7.2-1,.3.2.4.4.9.5,1.3.2-.3.5-.5.9-.9M177.6,150.4c0,.2-.2.4-.3.6.2,0,.4,0,.5,0,.5-.4.9-.8,1.4-1.2,0,0-.1-.2-.2-.3-.4.2-.9.5-1.5.9M257.1,205.5c-.4-1.1-1.4-.6-2.2-.7,0,0-.1.2-.2.3.6.2,1.3.4,1.9.5,0,0,.2,0,.4-.1M158.6,172.7c-.4.2-.9.5-1.3.8,0,0,.2.5.3.7.3-.3.6-.7.8-1,0-.1.2-.2.1-.5M368.4,282.6c0,0,0-.2.1-.2-.4,0-.9-.3-1.2-.1-.4.2-.6.7-.8,1.1.4-.1.9-.3,1.3-.4.1,0,.2-.2.6-.3M158.6,170.6c.3-.1.7-.3,1-.4-.2-.2-.4-.6-.7-.7-.2,0-.6.1-.9.2,0,.3.2.6.6.9M195,141c0,0,.2.2.2.1.6-.5,1.2-1,1.8-1.6,0,0-.1-.2-.1-.2-.6.4-1.3.9-1.9,1.6M337.5,174.5c-.3-.2-.6-.4-.9-.6.1.3.2.6.4.9,0,.2.2.3.4.4.2,0,.5,0,.7,0-.2-.2-.3-.5-.6-.9M388.6,128.1c.3,0,.7-.2,1-.2-.4-.1-.7-.3-1.1-.4-.1,0-.4,0-.4,0-.2.2-.4.5-.6.7.3,0,.6,0,1-.1M581.7,179.4c.4.3.8.6,1.2.9.1,0,.3,0,.4.1,0-.1,0-.2,0-.3-.4-.6-.5-1.5-1.6-.7M284.6,237.2c-.1-.3-.2-.8-.3-.8-.4,0-.9,0-1.3.2.3.2.6.4.9.6.1,0,.3,0,.7.1M380.6,248.5l-.4.4c.5.1,1,.2,1.5.3.2,0,.4-.2.6-.3-.1-.1-.3-.4-.4-.4-.3,0-.6,0-1.2,0M535,125.6c.4-.2.8-.3,1.2-.5-.4,0-.9,0-1.3,0,0,0-.2,0-.3,0-.2,0-.3.2-.5.4.2,0,.5.2.9,0M384.2,129c.3-.2.7-.4,1-.7-.2,0-.5-.3-.6-.2-.3.2-.5.6-.5.9M551.2,236.3c-.3.2-.7.4-1,.7.4,0,.7,0,1.1,0,.2,0,.5,0,.7,0-.1-.2-.3-.3-.7-.5M320.7,233.2c.2,0,.5.1.7.2l.2-1.1c-.3.2-.6.4-.9.9M356.2,137c.1,0,.2-.2.3-.3.2-.1.5-.3.7-.4-.3,0-.6-.3-.8-.2-.2.1-.3.5-.3.9M303.2,223.7c.2,0,.4.1.7.1.3,0,.5,0,.8.1-.2-.2-.4-.5-.7-.7-.2,0-.5,0-.8.4M597.7,205.2c.3,0,.6.2.9.3,0,0,.2-.4.3-.6-.3,0-.7.1-1.2.3M291.9,220.4c.3,0,.6,0,.9,0-.3-.2-.6-.5-.9-.7,0,.2-.1.4,0,.7M584.5,216.1c-.3,0-.7.1-1,.2,0,.1,0,.3.1.4.4-.1.7-.3.9-.6M489.8,267c.4,0,.8,0,1.2,0,0,0,0-.3,0-.3-.4,0-.8,0-1.2.3M564,230.3c.2,0,.5-.1.7-.2-.2-.1-.4-.4-.6-.3-.2,0-.3.4-.2.6M159.2,176.5c0-.4-.1-.7-.2-1.1-.1,0-.3,0-.3,0,0,.3.1.7.5,1M174.3,154.3c-.2,0-.4,0-.6,0,0,0,0,.3,0,.5.3-.1.5-.3.7-.5M586.9,182.5c-.1.2-.3.3-.4.5.2,0,.3.2.5.3,0-.2,0-.4-.1-.8M180.6,148.6c.2,0,.5-.1.7-.2,0-.1-.2-.3-.3-.4-.2.1-.4.3-.5.6M452.7,143.1c.3,0,.5-.1.8-.2,0,0,0-.1,0-.2-.3,0-.5,0-.8.4Z"/>
    <path d="M191.2,452.6c1,.8,2,1.5,2.9,2.1.2.1.4,0,.7,0,0-.2,0-.5-.2-.6-1.8-1.4-3.6-2.8-5.4-4.2-2.8-2.2-5.7-4.4-8.4-6.7-2.4-2-4.7-4.3-7-6.4-.4-.4-1.2-.4-1.8-.6-.9-.3-1.9-.5-2.5-1.1-2.2-2-4.3-4.2-6.4-6.4-2.7-2.6-5.4-5.1-8-7.8-3.9-3.9-7.8-7.9-11.8-11.7-2.7-2.7-5.4-5.4-8.4-7.7-1.4-1.1-3.5-1.5-5.3-2.2-1-.4-2-.8-2.9-1.2-.1,0-.2-.3-.2-.5.2-1.7-1.1-2.3-2.1-3.1-1-.8-1.3-2.2-.4-3,.1-.1.8,0,.9.1.4.9.8.4,1.3,0,1.9-1.3,3.8-2.6,5.7-3.7,4-2.4,8-4.7,12.1-7,.9-.5,2-1.6,3.1-.2,0,0,.6-.2.9-.3-.2-.1-.4-.2-.6-.3,0-.1,0-.4,0-.5,1.6-1.3,3.3-2.6,4.9-3.9.3-.2,1-.4,1.2-.3,1,.8,2.6.4,3.3,1.7.1.2,1.2.2,1.5-.1.9-.7,1.5-1.3,2.2.2.2.3,1.7-.1,2.7-.3.3,0,.5-.3.7-.4.5-.3,1-.7,1.5-1-.7-.2-1.3-.6-2-.6-2,0-4,0-6,0-1.3,0-2.6-.4-3.9-.2-1.4.1-2.8.4-4,1-2.2,1.1-4.3,2.4-6.5,3.7-2.8,1.6-5.5,3.2-8.3,4.7-3.5,2-7.2,3.8-10.3,6.4-.3.3-1.1,0-1.6,0-.2,0-.4-.2-.6-.3-2.1-1.5-2.7-2-.1-4.3,1.2-1,1.8-2.7,2.7-4,1.3-1.9,3-3.6,4-5.7,1.1-2.3,2.3-2.3,4.3-1.4,1.8.8,3.5,0,5.2-.7,2.6-1,4.6-2.8,6.9-4.2,2.7-1.6,5.6-3.1,8.8-3.8,1.9-.4,3.7-1.5,5.6-2.3,3.8-1.6,7.7-3.2,11.6-4.8,3.3-1.4,6.6-2.7,9.9-4.1,6.1-2.5,12.2-5,18.3-7.6,6-2.5,12-5.1,18.1-7.7,4.3-1.8,8.6-3.5,12.9-5.1,2.7-1.1,5.5-2,8.3-3,2.9-1,5.8-2,8.7-3,3.6-1.2,7.2-2.5,10.8-3.7,5.7-1.9,11.4-3.7,17.1-5.7,3.6-1.2,7.2-2.5,10.8-3.8,4-1.3,7.9-2.7,11.9-3.9,3.9-1.1,7.9-1.8,11.8-2.8,1.6-.4,3.1-1.2,4.7-1.8.3-.1.7,0,1,0,0,.2-.3.5-.3.7,0,.5,0,1,0,1.4.3,1,.8,1.9,1,2.8.3,1.4-1.2,1.9-1.8,3-1.1,2.2-3.5,2.7-5.3,4-3.6,2.6-7.7,4.1-11.8,5.6-4.7,1.8-9.4,3.4-14.1,5.1-4.4,1.5-8.9,2.9-13.3,4.5-6.1,2.2-12.1,4.7-18.2,6.9-2.5.9-5.1,1.4-7.5,2.3-5,1.8-9.9,3.7-14.9,5.6-3.5,1.4-7.1,2.7-10.6,4.2-1.6.6-3,1.6-4.5,2.3-1.2.6-2.4,1.1-3.7,1.5-1.2.5-2.4.8-3.6,1.3-2.8,1.3-5.7,2.4-8.3,3.9-4.4,2.5-9.1,4.2-13.8,6.1-2.8,1.1-5.3,2.7-8,4-.8.4-1.7.5-2.5.8-2.6.9-5,2.5-8,2.7-.9,0-1.8,1.1-2.4,1.8-1.3,1.4-2.8,1.7-4.5,2-1.5.2-2.9,1-4.4,1.5-1.7.6-3.4,1.3-5.1,2-1,.4-1,1-.3,1.9.9,1.1,1.5,2.5,2.5,3.6.9,1,2,1.8,3,2.8,1.6,1.5,3.2,2.9,4.7,4.4,2.5,2.4,5,4.7,7.4,7.1,3,3.1,5.7,6.5,8.8,9.6,6,6,12.1,12,18.4,17.8,4,3.8,8.4,7.2,12.6,10.9,4,3.6,7.8,7.4,11.7,11.1,2.8,2.7,5.6,5.4,8.4,8.1,1.5,1.5,3.1,3.1,4.6,4.6.9.9,1.8.7,2.9.1.8-.5,1.9-.5,2.8-.8,3-.8,6-1.6,9-2.3,2.8-.7,5.6-1,8.3-1.9,5.1-1.7,10.3-3.3,15.2-5.7,5.5-2.6,11-4.9,16.6-7.4,5.4-2.4,10.8-4.9,16.2-7.2,1.3-.6,2.9-.7,4.3-1.1,3.2-.9,6.4-1.8,9.6-2.7,3.9-1.1,7.7-2.2,11.6-3.3.2,0,.5,0,.7,0,.8,0,1.9.1,1.9-.9,0-.6-.6-1.4-1.2-1.7-2.8-1.7-5.6-3.3-8.4-4.8-5.5-2.8-11-5.6-16.5-8.2-4.8-2.2-9.6-4.3-14.4-6.4-1.2-.5-2.4-1.2-3.6-1.8-1.6-.8-3.2-.1-4.1,1.4-1.4,2.5-3.1,4.9-4.6,7.3-.2.4-.6.8-.6,1.2.1,1.8-1.1,1.5-2,1.2-1.1-.3-1.9-.2-2.8.5-.7.6-1.5,1.1-2.5.5-.3-.2-.9-.2-1.2,0-1.5.9-2.8.4-4.3,0-1.2-.3-2.6-.2-3.9-.4-.4,0-.9-.4-1.2-.7-1.2-1.2-2.3-2.6-3.6-3.7-.7-.6-1-1.1-1.2-2.1-.4-2-1-4-1.9-5.9-2.4-5.2-4.9-10.3-7.3-15.4-.5-1-.8-2.1-1.2-3.2-.2-.7-.5-.9-1.2-.6-1,.4-2.1.7-3.1,1-.2,0-.4,0-.7-.1.1-.2.2-.6.4-.7,1-.4,2.1-1,3.2-.9,1.8.2,2.6-1,3.5-2,.8-1,1.7-1.8,2.9-2.3,2-.9,3.7-2.3,5.6-3.4,2.7-1.6,5.5-3,8.2-4.5.5-.3,1.2-.2,1.8-.3,1-.2,2-.3,3-.6,1-.2,2.3.5,2.9,1.9,1.2,3.1,3.9,4.6,6.7,5.8,7.6,3.2,15.3,6.3,22.9,9.6,5.1,2.2,10.2,4.6,15.3,6.9,5.6,2.5,11.3,4.6,16.7,7.3,6.3,3.2,12.4,6.9,18.6,10.5,3.2,1.9,6.3,4,9.5,5.8.9.5,2.1.5,3.2.6.8,0,1.2.3,1.1,1.1,0,.6,0,1.3-.4,1.8-1,1.1-1.2,2.4-1.5,3.9-.2,1.2.1,1.5.9,2,.5.3,1.3,1.2,1.2,1.5-.3.7-1,.9-2,.6-1.6-.5-2.2,0-2.4,1.7,0,.5-.6,1.1-1,1.2-1.9.4-3.6,1.2-5.1,2.4-.4.3-1.2.2-1.9.2-.7,0-1.4-.3-2,0-3.9,1.7-8.1,2.2-12.2,2.9-2.5.5-5,1.2-7.5,1.9-2.8.8-5.5,1.9-8.3,2.5-5.3,1.2-10.3,3.3-15.3,5.4-3.9,1.6-7.7,3.1-11.5,4.9-4.2,2-8.3,4.3-12.5,6.3-4.5,2.2-9.1,4.4-13.6,6.6-3.8,1.9-7.6,3.9-11.5,5.6-5.5,2.5-11.1,4.9-16.7,7.3-1.7.7-3.5,1.4-5.3,2-2.2.7-4.4,1.5-6.6,2-1.1.3-2.3,0-3.4-.7-1.4-.9-2.9-1.7-4.8-1.1-1.4.5-2.3-.9-3-1.9-2.5-3.1-4.8-6.4-7.4-9.4-3.3-3.8-6.9-7.4-10.4-11-.6-.6-1.2-1.1-.8-2.2.2-.4,0-1.2-.4-1.6-1.2-1.3-2.4-2.6-3.8-3.8-.3-.2-1,0-1.5,0,0,0-.2.2-.3.3.4.2.8.5,1.2.7.6.4,1.4.4,1.7,1.4.2.8,1.1,1.5,1.6,2.3.2.3.1.7.2,1-.3,0-.7,0-.9-.3-.7-.6-1.3-1.3-2-2-2.1-1.9-4.2-3.8-6.4-5.8-1.5-1.4-3-2.7-4.4-4.1-.2-.2,0-.9,0-1.4.3.2.8.3,1,.5.8.8,1.5,1.6,2.2,2.5.9,1,2.1,1,3.3,1.3M137.2,393.8c.7-.6,1.5-1.2,2.1-1.9.2-.2.3-.6.4-.9-.4,0-.9-.1-1.3,0-1.1.5-1.7,1.4-1.6,2.7-.2.2-.5.5-.7.7,0,0,.1.1.2.2.2-.2.4-.4.6-.6,0,0,0-.2.3-.2M260.5,406.6c.6,0,1.1,0,1.7,0,.2,0,.5.1.7.3,0,0,0,.4,0,.5-.8.6-1.5,1.3-2.4,1.8-1.2.8-2.4,1.5-3.7,2.2-.8.4-1.4.9-.7,1.7.3.3,1.3,0,2-.3.9-.4,1.8-1.3,2.7-1.4,1.6-.1,2.5-1.2,3.2-2.2.9-1.4,2.2-1.6,3.6-2.1,1.4-.5,3.8.5,3.9-2.3,0-.1.2-.3.3-.3,2.3-.5,4-2,5.9-3.3.3-.2.5-.6.8-1-.4,0-.9-.3-1.2-.2-2.2,1-4.7,1.5-6.5,3.3-.4.3-.8.6-1.3.8-1.2.4-2.4.7-3.6.9-1.7.3-3.3.6-5,.9-.2,0-.4.3-.4.6M133.6,398.3c.3,0,.7.1,1,.2,0-.4.1-.8,0-1.2,0-.2-.5-.4-.8-.5-1.1-.6-2.4-1-3.4-1.7-.9-.6-1.8-.9-2.7-.1-.4.3-.8.8-1.1,1.1.6.1,1.1.3,1.7.3.8.1,1.7,0,2.5.4.9.3,1.6,1,2.8,1.5M140.2,388.5c.8-.3,2.3-.6,2.3-.9,0-1.4,1.3-2.2,1.7-3.3,0-.2-.3-.5-.5-.7-.6.6-1.3,1.1-1.9,1.7-.7.7-1.2,1.6-1.8,2.4-.1.2,0,.5.2.9M152.3,368.8c-.6.4-1.3.9-1.9,1.4-.2.2-.1.6-.2,1,.3,0,.6,0,.9,0,.5-.1,1-.3,1.5-.6.6-.3,1.1-.7,1.6-1-.5-.2-1.1-.5-1.9-.7M139.4,377.6c.2.1.5.3.7.4.3,0,.7.1.9,0,.2-.1.1-.5.2-.8,0-.2,0-.5,0-.7,0-.2-.2-.5-.2-.4-.6.1-1.3.2-1.9.5-.5.2-1,.5-1.5.8.5,0,1.1.1,1.8.4M151.7,379.2c-.3.5-.6,1-.9,1.4.5-.3,1.1-.6,1.6-1,0,0,0,0,.1-.1.3-.6,1.8-.4,1.2-1.6-.6.4-1.2.7-2,1.3M135.7,399.5c.8,0,1.6,0,2.4,0,.1,0,.2-.5.3-.8-.3,0-.5-.1-.8-.1-.6,0-1.3,0-1.9.1,0,0,0,.5,0,.9M246.1,331.8c0,.2,0,.5.1.7.6-.3,1.3-.6,1.9-1,0,0,0-.3,0-.5-.6.2-1.2.4-1.9.7M145.7,377l-1.5-1.5c-.1.2-.3.4-.3.4.5.4,1.1.8,1.8,1.1M131.4,380.6c.2.2.4.4.6.6l.6-1.1c-.4,0-.8.2-1.2.5M146.5,374c.6.1,1.1.3,1.7.4,0-.2,0-.5,0-.5-.6,0-1.1-.2-1.7,0M272.7,406.3c-.3.2-.7.4-1,.7.1,0,.3.2.4.2.4,0,.9-.1,1.3-.2-.1-.2-.3-.5-.7-.7M267.8,332.4l.6-.6c-.3,0-.6,0-.9,0,0,.2.1.5.3.6M284.3,326.9l.7-.7c-.2,0-.5-.2-.6-.2-.2.2-.2.5-.1.9M200.6,350.3c-.3.1-.6.2-.9.3,0,.1.2.3.2.4.2-.1.4-.3.7-.7M198.1,356.4c.2,0,.5-.1.7-.2,0-.1-.2-.3-.3-.4-.2.1-.4.3-.5.6M196.2,355.6l-.6-.4-.3.4c.2,0,.5.1.9,0M237.5,467.4c.2.1.4.3.6.4,0-.1.2-.3.3-.4-.2,0-.5-.1-.9,0M309.7,311.6c.2.1.4.3.6.4,0-.1.2-.3.3-.4-.2,0-.5-.1-.9,0M284.7,322.3c-.3,0-.6,0-.9,0,0,.1,0,.3,0,.4.2,0,.5-.1.8-.4Z"/>
    <path d="M133.5,165.8c.5-2.1,1-4.1,1.5-6.1.4-1.6,1-3.2,1.4-4.7.8-2.7,1.7-5.4,2.4-8.1.5-2.1.7-4.2,1.2-6.3.6-2.7,1.5-5.3,2.1-8,1.1-4.4,2.1-8.8,3.2-13.2.6-2.4,1.3-4.7,1.9-7.1.4-1.6.7-3.3,1-4.9.5-2.1,1-4.2,1.5-6.4.4-2.1.8-4.2,1.2-6.3.4-2,.9-4.1,1.4-6.1.3-1.4.5-2.9.7-4.3.3-1.7.8-3.5,1-5.2.2-1.5.2-2.9.1-4.4,0-.3-.5-.6-.8-.9-1-1.2-2.3-2.2-3-3.5-1-1.9-2.6-2.9-4.3-3.9-4.8-2.7-9.6-5.3-14.4-8-1.2-.7-2.3-1.8-3.9-1.4-4.2,1-8.2-.7-12.3-.7-.8,0-1.7-.8-2.4-1.4-.8-.7-1.5-1.6-2.3-2.3-1.6-1.2-2-3-2.3-4.8-.2-.9,0-1.7,1.1-2.2,1.6-.7,2.3-2.3,3.1-3.9,1-2.1,1.3-4.6,3.5-6,.3-.2.3-.8.3-1.2.2-1.3,1.1-1.9,2.1-1.1,2.1,1.6,3.7.9,5.8-.2,1.8-1,3.9-1.3,5.9-1.8,1.7-.5,3.4-.9,5.1-1.2,2.5-.5,5-1.2,7.6-1.4,4.2-.4,8.4-.7,12.6-.9,2.2-.1,4.5-.2,6.7-.3,1.8-.1,3.6-.4,5.4-.6.4,0,.9,0,1.3,0,2.3.3,2.7,0,4-2,1.5-2.2,3.2-4.3,4.8-6.5.4-.5.6-1.1.8-1.7.2-.6.3-1,1.1-.5.2.1.9,0,1-.3.4-1.1,1.2-1.3,2.1-1.5.8-.1,1.6-.3,2.4-.4.1.8,0,1.8.3,2.5.8,1.6.5,3.8,2.5,4.7.9.4,1.8.7,2.7.9,1.8.3,3.7.6,5.5.6,2.1,0,4.2-.4,6.3-.9,2.4-.6,4.7-1.6,7.1-2.2,3-.8,6.7,1,7.1,4.6.2,2.3,1.5,4.4,2.1,6.7.3,1.1.2,2.3,0,3.4-.2.9-.5,1.6.7,2.1.3.1.4.6.6.9-.4.1-.9.5-1.1.4-1.2-.7-1.5.2-1.8,1-.4.9-1.5,1.8-.3,3,.1.1-.2.7-.4,1.1-.2-.3-.3-.6-.5-1,0-.3-.1-.5-.2-.8-.1.2-.2.5-.4.7-.6.4-1.1.9-1.8,1-1.4.3-1.9,1.1-1.1,2.4.2.4.3.8.4,1.2-.4,0-.8,0-1.2,0-1.5,0-2.9.1-4.4.2-1.5.1-3.1.1-4.6.4-2.1.3-4.2.9-6.3,1.3-.7.1-1.3.1-2,.2-1.5.1-2.1,1-1.6,2.5,1.5,4.7,4.1,8.9,6.6,13.2,2.8,4.7,5.8,9.2,7.8,14.3.5,1.2,1.1,2.3,1.7,3.5,1.1,1.8.5,3.7.6,5.6,0,1,.3,2.1.8,2.9,1.4,2.4,1.3,4-.6,6.1-.6.7-1.2,1.3-1.7,2-.2.3-.4.7-.4,1,0,1.6-1.4,3.1-2.9,3.7-1.5.6-2.7.6-4.1,0-.3-.1-.7,0-1.1.2-1.9,1-3.8.9-5.6-.2-3.9-2.2-7.8-4.1-11.6-6.4-1.5-.9-2.5-2.5-3.8-3.7-1.8-1.5-3.6-2.9-5.5-4.3-1.5-1.1-3.2-2-4.8-3.1-.3-.2-.6-.8-.6-1.2.1-1.2.3-2.5.7-3.7,1-2.9,2-5.8,3.1-8.7.8-2.1,1.8-4.1,2.5-6.2.2-.8-.2-1.8-.3-2.7-.3,0-.9,0-1,.3-.5,1-.9,2-1.3,3-1,2.9-2.1,5.8-3,8.7-1.1,3.4-2.2,6.9-3.2,10.4-.4,1.4-.4,2.9-.8,4.3-.3.9-1.1,1.6-1.5,2.5-.2.5,0,1.3,0,1.9.2,1.3.5,2.5.6,3.7.2,1.4,0,2.6-1.1,3.7-.3.3-.4,1.1-.4,1.6,0,3.4-.9,6.6-1.6,9.9-.6,2.6-1.2,5.3-1.6,7.9-.6,4.3-1.7,8.5-3.2,12.7-.7,2.1-1.1,4.3-1.6,6.5-1,4-1.9,7.9-3,11.8-.7,2.9-1.6,5.7-2.4,8.5-1,3.5-2,6.9-3,10.4-.6,2.2-1.4,4.3-2,6.5-.6,2.6-1.6,5.2-1.5,7.8.1,3.2-1.1,6.1-1.7,9.1-.5,3-2,5.8-2.5,8.7-.6,4-2.2,7.5-3.1,11.4-.5,2.1-.7,4.2-1.2,6.2-.4,1.4-1.4,2.7-1.7,4.2-.7,3.1-1.7,6.1-2.9,9.1-.1.3-.2.6,0,.8.6,2.2-.8,3.9-1.5,5.8-.1.3-.3.6-.3.9.4,2.9-1.4,5.3-2.1,7.9-.5,2-1,4-1.5,5.9-.3,1.2-.8,2.4-1.2,3.7-.2-.1-.4-.2-.6-.4-.3-.2-.5-.5-.7-.7,0,.3-.2.7-.1,1,0,.4.1.8.4,1,1.3.8.8,1.9.5,3-.8,3.2-1.6,6.5-2.4,9.7-.5,1.8-.7,3.7-1.5,5.3-1.5,2.7-1.3,5.7-2,8.5-.5,1.7-1.3,3.3-1.8,5-.6,2-1.4,4-1.3,5.9.2,3-1.4,5.5-1.9,8.2-.5,2.5-1.3,5-2.1,7.5-.1.4-.4.8-.8,1-1,.6-2.2,1-3.2,1.5-.9.4-1.4.6-2.4-.2-.8-.6-2.4-.4-3.5,0-1.9.5-2.4.2-2.2-1.6.3-2.4.6-4.7.9-7.1.2-1.2.5-2.4.6-3.6,0-2.3,0-4.6,0-6.9-.1-3.8,1.1-7.2,3.2-10.4,1.9-2.9,2.9-6.1,3.7-9.5,1-4.3,2.6-8.5,3.8-12.8.9-3.5,1.6-7.2,2.4-10.7.3-1.4.8-2.7,1.2-4.1.6-2.5,1.2-5,1.8-7.4,1.3-5,2.6-9.9,3.9-14.9,1-4.1,2-8.2,3.1-12.2,1-3.6,2.1-7,3.1-10.6.4-1.6.6-3.3,1-5,.3-1.5.8-3,1.2-4.6,1.1-4,2.2-7.9,3.2-11.9.8-3.2,1.4-6.4,2.1-9.5.5-2.1,1.2-4.2,1.8-6.4M175.8,52.9c-.5-.2-1-.3-1.4-.5-.2-.1-.4-.4-.6-.7,0,.3-.2.7-.2,1,0,2.1,0,4.2-1.4,5.9-.3.3-.2,1.3.1,1.6.8.8,1.8,1.5,2.8,2.1.4.2,1.1,0,1.6,0-.1-.6,0-1.3-.4-1.7-.8-.9-.9-1.7-.4-2.7.2-.5.3-1,.3-1.5,0-1.2-.2-2.4-.1-3.6.4-.1,1.2-.2,1.3-.4.7-3.2,1.3-6.4,1.8-9.6,0-.3-.4-.6-.6-1-.2.3-.4.6-.6.9-.2.4-.2.9-.3,1.4-.6,2.9-1.2,5.8-1.9,8.8M155.9,120.1c-.2.9-.4,1.8-.6,2.7-.6,2.1-1.3,4.1-1.9,6.2-1.1,3.7-2.2,7.4-3.2,11.1-.7,2.4-1.2,4.9-1.8,7.3-.4,1.5-1,2.9-1.4,4.3-.3,1.2-1.2,1.1-1.9.7-.7-.4-1.1-1.1-1.7-1.6-.3-.2-.7-.2-1.1-.3,0,.3,0,.7,0,1,.1.5.3,1.1.5,1.6,0,.2.4.3.6.4.3.1.5.2.8.3.6.2,1.2.3,1.9.5.2,0,.4,0,.7,0,0,.2,0,.5-.1.7-.5.8-1.2,1.6-1.4,2.5-.7,2.5-1.2,5.2-1.8,7.7-.9,3.6-2,7.2-2.9,10.8-.5,1.9-.6,3.9-.9,5.9-.4,2.3-.8,4.6-1.2,6.9,0,.5,0,1.1,0,1.6-.6,1.9-1.2,3.8-1.9,5.8-.5,1.4-1.3,2.8-1.3,4.2.1,2,.2,3.5-2.2,4-.2,0-.5.4-.6.6,0,.3,0,.7.3,1.1,0,0,.5,0,.8-.1.2,0,.5,0,.7,0,0,.3.1.6,0,.8-.5,1.3-1.2,2.6-1.5,4-.7,3.8-2,7.3-3.2,10.9-.3.9-.9,2-.6,2.8.5,1.4-.4,1.3-1.1,1.6-.5.2-.9.4-1.3.7,0,0,0,.4,0,.5,1,.3,2,.6,3,.9,0,0,.3-.3.4-.4.7-2.8,1.4-5.6,2.1-8.3.5-1.8,1-3.5,1.5-5.3.3-1.2.6-2.4,1-3.6.8-2.8,1.6-5.6,2.3-8.4.7-2.5,1.2-4.9,1.9-7.4.9-3.2,2.2-6.3,1.7-9.8,0-.3.2-.7.2-1.1.2-1.1.5-2.1.6-3.2.3-1.7.3-3.4.8-5,.9-3.4,2.1-6.7,3.1-10,1.3-4.4,2.4-8.9,3.6-13.4,1.2-4.3,2.4-8.5,3.5-12.8,1.3-4.7,2.6-9.3,3.8-14,.6-2.2,1-4.4,1.5-6.7,0-.3-.2-.6-.3-.8-.2.2-.5.4-.6.7-.2.5-.4,1-.8,1.7M147.4,127.1c0,.5,0,1,0,1.5,0,1-.1,2-.3,3,0,.3-.6.5-.9.7,0-.3,0-.6.1-.8,0-.3.1-.5.2-.8-.3,0-.7-.2-1-.1-.3.1-.6.5-.8.8-.4.9-.6,1.8-.9,2.7-.3,1-.6,2-.9,3.1,0,.2.2.5.4.7.2-.2.4-.3.5-.6.4-1.1.8-2.2,1.2-3.4.2-.5.1-1.3,1.3-.6,1.7,1.1,2.4.4,2.6-1.6.2-1.8.6-3.7,1.2-5.4.8-2.2,1.8-4.3,2.8-6.4,1-2.2,2.2-4.2,2.8-6.6.5-2,2-3.8,2.9-5.8.3-.7.4-1.5.7-2.3.4-1.5.4-3.5,1.4-4.3,1.4-1.2,1.1-2.6,1.6-3.9,0-.2,0-.5-.3-.6-.2,0-.5,0-.7,0-.3.4-.6.8-.9,1.2-.4.7-.8,1.5-1.2,2.2-.2.3-.5.6-.6.9-.9,2.6-1.7,5.3-2.7,7.9-.6,1.5-1.3,3-2.1,4.5,0,.2-.4.2-.6.3,0-.2-.3-.4-.3-.6.3-1.4.7-2.9,1.1-4.3.5-2,1.1-4,1.6-6,.6-2.6,1.1-5.3,1.7-8,0-.2,0-.3,0-.5-.2,0-.4,0-.5.2-.3.7-.7,1.3-.9,2-.4,1.4-.5,2.8-.9,4.2-.8,3.1-1.8,6.2-2.6,9.3-.3,1.3-.4,2.6-.6,3.9,0,.4.1.9,0,1.3-.8,2.4-1.5,4.8-2.4,7.2-.6,1.5-1.4,3-2.1,4.8M131.1,45c0-1.3,0-2.6,0-3.9,0-.4-.2-.7-.4-1-.3.4-.7.7-.8,1.1-.3,1.2-.5,2.4-.6,3.6,0,1.6,0,3.2.2,4.9.1,1.8.3,3.6.4,5.4,0,.5-.6,1.2.5,1.3.8,0,1.5,0,1.4-1.1,0-.8.2-.7.8-.4.5.3,1.6.4,1.7.2.6-1,1.2-2.1,1.3-3.2.2-2.1,0-4.2,0-6.2.1-2.9-.7-5.4-2.1-7.9-1.2-2.2-2.9-3.7-5.4-4.1-.4,0-1,.2-1.5.4.3.3.6.5.9.8.2.1.4.2.6.3,3.8,1.7,5.4,4.9,5.6,8.7.2,3,0,6,0,9,0,.5-.2,1.3-.4,1.4-.5.1-1.2,0-1.6-.4-.5-.4-1-.7-.8-1.7.4-2.3.2-4.7.2-7.2M179.1,23.2c-2.2-.8-3.5-.2-4,1.8-.3.9.2.9.8.8,3.7-.3,7.2-1.7,11-1.5.2,0,.5-.1.7-.2-.2-.1-.4-.2-.6-.4-2.4-1.4-5.1.1-7.8-.6M113.9,49.2c0,.2,0,.6-.1.7-1.3,1.2-.7,2.2.3,3.1.3.2.6.3.9.5,0-.3-.2-.7-.2-1-.2-.6-.6-1.3-.4-1.8.3-1.3.9-2.5,1.3-3.7.4-1.2.8-2.4,1.1-3.5.1-.4.1-.7.2-1.1-.8,0-1.5,0-2.3,0-.1,0-.3.7-.2.8.6.9,0,1.6-.3,2.3-.5,1.1-1,2.2-.3,3.8M115.5,280.9c.5-1.8,1-3.6,1.6-5.4.9-3.1,1.8-6.1,2.7-9.2,0-.3,0-.7,0-1-.3.2-.7.4-.8.7-.8,2.5-1.6,5.1-2.4,7.6-.7,2.5-1.4,4.9-2.1,7.4,0,.2,0,.5,0,.8.3-.2.5-.4,1-.8M106.7,301.5c0,.2-.3.3-.3.5,0,3.2.2,6.5-2,9.3-.1.2.2.7.3,1,.3-.1.7-.1.8-.4.5-.8.8-1.7,1.3-2.4,1.9-2.5,1.9-5.6,0-8M201.5,41.8c.5-1,1-2,1.5-3,.6-1.1,1.3-2.2,1.8-3.4.1-.3-.3-.8-.5-1.3-.3.2-.7.2-.9.5-.5.5-.9,1-1.2,1.6-.8,1.6-1.4,3.2-2.1,4.8-.3.8-.6,1.5.3,2,.1,0,.7-.6,1.2-1.1M122.9,244.6c1.1-2,1.8-4,1.3-6.3,0-.3-.3-.8-.5-.8-.3,0-.9.2-1,.4-.1.4,0,.8,0,1.3,0,1.3,0,2.7-.3,3.9-.6,2.4-1.5,4.7-2.2,7.1,0,.3.1.6.2.9.2-.2.6-.3.7-.5.5-2,1-3.9,1.7-6.1M124.4,223.2c.6-1.2.4-2.9,1.9-3.7,0,0-.2-.9-.3-.9-1,0-1.9,0-2.9,0-.2,0-.4.7-.4,1.1,0,.8.1,1.7.4,2.5.2.5.7.8,1.3,1M112.7,281.3c.1-.3.2-.7.3-1-.6.1-1.5,0-1.6.4-.6,1.4-1,2.9-1.3,4.4,0,.4.8,1,1.2,1.5,0-.4.1-.7.2-1.1,0,0,0-.2,0-.3.8-1.1,1.1-2.3,1.1-3.8M141.2,57.5c.2.1.3.3.6.4,1.7.7,3.3,1.4,5,2.1.7.3,1.4.4,2.1.6.2,0,.4-.2.6-.4-.1-.1-.2-.4-.3-.4-1.9-.7-3.7-1.5-5.6-2.1-.7-.3-1.6-.3-2.3-.2M127.5,236.1c0-.8.2-1.7.3-2.5,0-.3-.3-.6-.4-.9-.2.2-.7.4-.7.7-.4,1.8-.7,3.7-.9,5.5,0,.2.2.4.4.6.2-.2.4-.4.5-.6.3-.9.5-1.8.9-2.8M143.9,146.7c-.4.8-.1,2-1.4,2.4,0,0,0,.4,0,.7,0,0,.3.1.4,0,.7-.5,1.7-.9,2.1-1.6.6-1.2.7-2.5,1-3.8,0-.2-.2-.5-.3-.8-.3.2-.7.4-.9.7-.4.7-.6,1.4-.9,2.4M112.7,288.4c.4-.6.9-1.1,1.1-1.8.2-.5.1-1.1.2-1.7-.3.4-.7.7-1,1-.2.2-.6.5-.7.7-.2.4-.2.8-.3,1.2,0,.4-.1.9-.2,1.3-.1.5-.3,1.1-.4,1.6.4-.5.9-1,1.3-1.5.1-.2,0-.5,0-1M99.1,310c-.3,1.9,0,2.3,1.7,2.3.5,0,1-.5,1.6-.8,0,0,0-.4,0-.4-1-.4-2-.9-3.2-1.1M119.8,255.2c0-.6.2-1.3.3-1.9,0,0-.1-.3-.2-.3-.1,0-.3,0-.3.2-.4,1.6-.8,3.1-1.2,4.7,0,.1,0,.3.2.5.1-.1.4-.2.4-.4.3-.8.6-1.6.9-2.7M155.8,62.6c-.7-.6-1.4-1.3-2.2-1.8-.2-.2-.7,0-1.1,0-.2,0-.3.3-.4.4,0-.2-.1-.3-.2-.5,0-.2-.2-.5-.3-.7-.3.3-.6.5-.9.9,0,0,.3.5.5.6,1.5.4,2.9.8,4.5,1.1M115.2,271.9c.2-.9.5-1.8.7-2.7,0-.2-.1-.4-.2-.6-.2.2-.4.3-.5.5-.3.9-.6,1.8-.9,2.7,0,.2-.2.3-.2.5,0,.5.1,1,.2,1.6.2-.6.5-1.3.9-2.1M158.3,77.9c-.2-.2-.5-.3-.7-.5-.1.3-.4.7-.3.9.2.5.5,1.1.9,1.5.2.2.6.3.9.5.1-.5.3-1.1.3-1.6,0-.3-.5-.6-1.1-.8M206.7,24.7c-.2.7-.6,1.3-.7,2,0,.4.3.8.4,1.2.2-.1.6-.2.7-.4.3-.8.5-1.6.6-2.4.1-.8-.2-.9-1-.4M116.8,263.5v1.8c.3-.4.6-.9.9-1.4,0-.1,0-.3,0-.4,0-.6.2-1.2.3-1.8-.4.5-.8,1-1.2,1.8M157.8,113.1c0,.9-.2,1.9-.3,2.8,0,0,.1.2.2.3.1-.1.3-.2.3-.3,0-1,0-2-.3-2.8M181.8,68.7c-.5,0-1,0-1.5,0,.5.3,1,.6,1.4.9.2.1.3.3.5.4.1,0,.4.1.5,0,0-.1.2-.4,0-.5-.2-.3-.5-.6-1-.9M113.6,277.4l-.6-.9c-.2.6-.4,1.2-.5,1.8,0,.2.2.4.3.6.2-.4.5-.8.7-1.1,0,0,0,0,.1-.4M125.7,243.6c0-.2,0-.5,0-.7-.1-.2-.4-.4-.5-.6-.2.2-.6.5-.6.7.1.5.4.9.6,1.4.2-.1.3-.3.5-.7M131.2,211.6c.1-.2.4-.5.4-.5-.5-.5-1.1-1.1-1.7-1.5,0,0-.2,0-.3.1.3.5.6,1,.9,1.5.1.2.3.3.7.4M117.7,37.9c-.5.2-1,.3-1.4.6,0,0,0,.5,0,.8,0,.2.5.3.6.3.3-.4.5-.9.8-1.6M151.9,57.5c-.2-.2-.3-.4-.5-.5-.5-.2-.9-.4-1.4-.5.3.4.5.8.9,1.1.3.3.6.5.9.6.2.1.5.1.7.2-.2-.2-.4-.4-.6-.9M120.7,262.9s0-.1,0-.1c0-.2.2-.5.2-.6-.2-.4-.5-.8-.8-1.3,0,.6,0,1.2,0,1.8,0,.1.3.3.6.2M163.8,52.2c-.9-.1-1.7-.3-2.6-.4,0,.2,0,.5.2.5.8,0,1.5,0,2.4-.1M147.3,137.6c0-.2.2-.4.3-.6-.4.1-.9.2-1.2.4-.2.1,0,.6-.1.9.3-.2.6-.4,1.1-.7M153.4,95.3c0,.1-.1.3,0,.4,0,.4.1.8.2,1.2.2-.5.4-1,.5-1.5,0-.2,0-.4,0-.6,0-.2-.2-.4-.4-.6,0,.2-.1.5-.2,1M166.9,70.1c0-.1.1-.2.1-.4,0-.3,0-.5.1-.8-.3.1-.7.1-.9.3-.2.4-.3.9-.4,1.4.3-.1.5-.3,1-.5M156.4,82.5c-.2.5-.4,1-.6,1.5,0,.1,0,.3.1.4,0,0,.4,0,.4,0,.1-.7,1.4-1.2.1-1.9M167.2,66.6c-.2,0-.5-.1-.7-.2,0,.4,0,.9,0,1.3.4-.1.8-.2,1.1-.4,0,0,0-.5-.4-.7M130.5,201.7s0,0,.1,0c0,0,0,0,0,0,.2-.3.5-.7.7-1,0-.2,0-.4,0-.6,0-.1-.2-.3-.3-.4-.2.2-.5.3-.6.5-.1.4-.1.8,0,1.4M128.9,192.9v.9c.3-.2.6-.3.8-.5.1-.2,0-.5,0-.8-.2,0-.4.2-.8.4M123.4,251.6c0-.4.1-.9.2-1.3-.2,0-.6.2-.6.3,0,.4.2.8.4,1.1M165.4,52c.3-.1.7-.2,1-.4-.3,0-.7-.2-1-.2-.2,0-.5,0-.7,0,.1.2.3.3.7.5M128.4,230.5c-.1-.3-.2-.7-.4-1-.2.4-.3.7-.5,1.1.2,0,.5,0,.9,0M154.4,90.4c0,.5,0,1,0,1.5,0,0,.3,0,.3,0,0-.5,0-1-.3-1.5M140,149.6c0,.3-.1.7-.2,1,.2,0,.6-.2.6-.3,0-.3-.2-.6-.4-.8M128.6,213.5c.1-.2.3-.3.4-.5h-1.1c.1.2.3.3.7.5M205.4,32.8c.2,0,.4-.2.6-.3-.2-.2-.3-.3-.5-.5,0,.2-.2.4-.1.7M132.3,194.5c.2-.2.5-.3.6-.5,0-.1-.2-.4-.3-.6,0,.2-.1.5-.2,1M122.2,253.1l-.3.6c.2,0,.5,0,.7-.1,0-.2-.2-.4-.4-.5M180.9,18.1c-.2.2-.5.3-.7.5.1.1.2.2.3.3.2-.2.3-.5.4-.8M200.5,100.5c0-.2.2-.4.3-.6-.1,0-.3-.1-.4-.2,0,.3-.1.5.1.8M157.1,93c.1-.2.3-.4.4-.6,0,0-.1-.1-.2-.2-.1.2-.3.5-.2.8M140.9,160c0,.2.1.5.2.7h.4c-.1-.4-.3-.6-.6-.7M162.9,66.7c-.2,0-.4,0-.6,0,0,.2.1.3.2.5.2,0,.4-.2.4-.4Z"/>
    <path d="M82.6,122.7c-1.8-1-3.4-2.1-5-3-1-.6-1.4-.2-1.3.9,0,.5.2,1,.4,1.5.5,1.3.7,2.7.5,4,0,.3-.3.5-.5.8-.1-.2-.3-.5-.4-.7-1-2.1-1.4-4.3-1.6-6.7,0-.7-.8-1.5-1.3-2.1-1-1.3-2.3-2.5-3.2-3.9-.4-.6-.6-1.7-.4-2.4.5-1.7,1.3-3.2,2-4.8.4-1,.8-2,1.2-2.9.6-1.4,1.1-2.7,1.7-4.1.4-.9.9-1.8,1.3-2.7.5-1.2,1.4-1.8,2.7-1.2,1.4.6,2.7.3,4-.2,2.3-.8,4.6-1.5,6.9-2.4,1.8-.7,3.7-1.5,5.4-2.3,6.3-2.9,12.6-5.7,18.8-8.8,3.5-1.8,6.7-4.1,10.1-6.1,1.5-.9,3.2-1.5,4.6-2.5,1-.7,1.8-1.6,2.7-2.5.2-.2.5-.3.8-.4,0,.3.2.6.1.9-.3,2.5-2.5,3-4.2,4-1.7,1-3.6,1.9-5.4,2.8-.3.2-.4.6-.6.9.3,0,.7,0,1-.2,1.9-.5,3.8-.8,5.6-1.5,1.1-.4,2.1-1.3,3.1-2.1.9-.7,3.9-.6,4.8,0,.5.4,1.1.9,0,1.3-.4.2-.8.3-1.1.6-.6.6-.9.5-1.7.1-.7-.4-1.7,0-2.6,0-.1,0-.2.4-.3.6.2,0,.4.1.5.1,1.3,0,1.5.7,1.6,1.7,0,1,.5,2.1.8,3.1,0,0,.1.2,0,.3-.8,2,.7,1.4,1.7,1.5.4,0,.7.6,1,.9-.3.2-.7.5-1,.6-1.2.2-2.3.3-2.6,1.8,0,.2-.4.4-.7.6-3.2,1.9-6.4,3.9-9.7,5.7-6.1,3.6-12.2,7.1-18.4,10.6-2.2,1.2-2.2,1.4-.3,3.1,2.1,1.8,3.9,4.1,6,5.9,2.4,2,5,3.8,7.6,5.6,1.1.7,2.5,1,3.8,1.6.2,0,.3.2.4.4,1.2,1.8,3.3,2.1,5.1,2.7.7.2,1.5.1,2.3.2.5,0,1.2-.1,1.5.1,2.1,1.9,3.9,4,5.1,6.5.4.7.3,1.9,0,2.7-.4,1.5,0,2.8.3,4.3.1.4-.5,1-.5,1.5-.2,1.2-.3,2.4-.3,3.6,0,1-.3,1.6-1.2,2.4-1.6,1.5-3.5,2.7-4.1,5.1-.2.6-1.1,1.2-1.8,1.6-1.6.9-3,2.5-5.1,2.3-.1,0-.3,0-.4.2-1.4,2.5-4.1,3.2-6.3,4.5-4.9,2.9-9.9,5.6-14.7,8.5-2.9,1.7-5.8,3.5-8.4,5.6-1.2,1-2.1,1.4-3.6,1.5-.8,0-1.6,1.1-2.4,1.6-1.6,1-3.3,1.8-4.8,2.8-1.1.8-2.1,1.8-3.1,2.7-2,1.9-4,3.9-6.1,5.7-.5.4-1.5.3-2.1.7-3.1,2.3-6.1,4.8-9.2,7.1-1.9,1.4-4.2,2.3-5.7,4.2-.4.6-.7,1.2-1.1,1.8-.4.6-.9,1.2-1.4,1.6-1,.7-2.2,1.2-3.2,1.9-1.1.8-2.1.4-3.2.2-.7-.2-1.3-.6-2-.5-1.3,0-1.7-.7-1.7-1.7,0-1.9,0-3.8.9-5.7.6-1.2.3-2.8.3-4.3,0-1.7-.4-3.3.5-5,.4-.7.3-1.6.3-2.4,0-.9,0-1.8,0-2.7s0-2,0-3c-.1-1.4,1.1-2.9,2.6-2.8,1.3,0,2.2-.2,3-1.4.6-.8,1.9-1.3,3-1.5,1.2-.3,1.6-.6.9-1.8-.2-.3-.4-.6-.7-.9-1.5-1.6-3.1-3.1-4.6-4.6-3.5-3.6-7.1-7.1-10.5-10.8-3.6-3.9-7.2-7.8-10.6-11.8-2.1-2.5-4.1-5.1-6-7.8-3.1-4.3-6-8.6-9.1-12.9-2.5-3.5-5.1-6.9-7.7-10.4-1.5-2.1-3.2-4.1-4.5-6.3-1.7-2.8-2.6-5.7-1.5-9.1.6-1.9.2-4.1.4-6.1.2-2.4.5-4.7.9-7.1,0-.4.7-.9,1.1-.9,1.9-.2,2.9-1.1,3.4-3,.2-.8.6-1.6,1.2-2.2,1.6-1.7,2.7-3.6,2.7-6,0-.7.3-1.3,1.2-1.7.9-.4,1.6-1.4,2.2-2.3.6-.9.9-1.9,1.4-2.8.4-.7.3-1.9,1.9-1.4.8.3,2-2.7,1.4-3.6-.1-.2-.1-.6,0-.9,1.2-3.1,2.4-6.2,3.7-9.3.2-.5.4-.9.5-1.4,1-3,2.8-5.5,4.5-8.1,1.9-2.9,3.3-6.1,5.2-9,3.5-5.4,7.6-10.2,12.2-14.7,3.9-3.8,7.9-7.5,12.7-10.3,2.4-1.3,4.7-2.7,7.1-4.1.6-.4.9-1.1,1.4-1.6.1-.2.3-.3.4-.4.2.2.5.6.5.6-.7.9.4,1.1.6,1.6.5,1,1.2,2,1.4,3.1.3,1.9.3,3.8.3,5.7,0,.4-.3.8-.4,1.2-.5,1.5-.9,3.1-1.4,4.6,0,.2,0,.6-.1.7-1.6,1.2-1.5,3.3-2.7,4.7-1,1.1-2.3,1.9-3.6,2.8-3.7,2.6-7.7,4.9-10.9,8.1-2.4,2.4-5.1,4.7-7.6,7-3.9,3.7-7.2,7.9-9.7,12.6-.5.9-1.1,1.9-1.8,2.7-1.9,2.1-2.3,5-3.9,7.3-.7,1.1-1.7,2-2.3,3.1-.9,1.5-1.6,3.2-2.4,4.8-.2.4-.5.7-.7,1-.1-.4-.5-1-.4-1.3.6-1.6,1.2-3.2,2-4.7,1.1-2,2.3-3.9,3.4-5.9,0-.2.1-.3.2-.5-.2,0-.4,0-.6,0-.5.2-1.1.4-1.4.8-1.2,1.7-2.4,3.5-3.5,5.2-.4.6-.5,1.3-.7,1.9-.2.5-.4,1-.7,1.5-.8,1.2-1.3,2.4-.3,3.7.3.3.2,1.1,0,1.5-1.3,2.7-2.8,5.4-4.1,8.1-1,2.1-1.8,4.3-2.7,6.5,0,.1,0,.3-.1.4-.4.6-1.1,1.3-1,1.8.2,1,.7,2,1.3,2.8,2.3,3.2,4.6,6.4,6.9,9.6.2.3.6.7.7,1,.2.7.2,1.4.3,2.1-.7,0-1.5.3-2.2,0-.8-.3-1.8-.7-2.2-1.4-.6-.8-.7-2-1.1-3-.3-.8-.6-1.6-.9-2.4,0-.2-.3-.3-.5-.4-.1.2-.3.4-.4.6-.2,1.2-.5,2.4-.6,3.6,0,.5.2,1.1.5,1.4.9,1,1.8,2,3.3,2.2.4,0,1.2.3.7,1.2-.2.4-.3,1-.3,1.5,0,.5,0,1.1.1,1.6.2-.4.3-.8.5-1.1.5-.5,1.1-.9,1.7-1.3.2-.2.5-.3.7-.5.6-.6,1.2-1.2,1.7-1.9.9.8,1.8,1.5,2.5,2.4,2.4,2.8,4.5,5.7,7,8.4,2.2,2.5,4.7,4.7,7,7.1,2.3,2.3,4.3,4.9,6.6,7.2,2.9,2.9,5.8,5.6,8.9,8.3,2.3,2,4.8,3.8,7.4,5.6,1.6,1.1,3.4,1.8,5.1,2.7,2.2,1.3,4.4,2.7,6.6,4,.4.3.8.8,1.3.9,2.5.8,2.4,3.2,3.1,5.1.2.6-.4,1.5-.5,2.3,0,.4,0,.9.1,1.3.1.3.8.6,1,.5.5-.3,1.3-.9,1.2-1.2-.5-3,2.2-4.2,3.4-6.2.8-1.3,2.2-2,2.8-3.6.3-.8,1.9-1,2.8-1.6,3.6-2.6,7.2-5.3,10.8-8,1-.7,2.1-1.2,3.1-1.9,1.2-.9,1.3-1.5,0-2.8-2.2-2.2-4.8-3.8-7.5-5.2-.3-.1-.5-.4-.6-.6-2.8-3.9-7.3-5.8-11.1-8.6M125.9,85.9c.9.6.6,2-.5,2.9-1.1.8-2.2,1.7-3.2,2.6-.3.2-.3.7-.5,1,.4,0,.8,0,1.1-.2,1.3-.7,2.7-1.4,4-2.2.7-.5,2-.9,1-2.3-.2-.2,0-.8,0-1.1.2-1.9.4-3.9.5-5.8,0-.1-.5-.4-.5-.3-.3.3-.9.8-.9,1.1.3,1.7-.6,3-1.4,4.4-1.4-.4-2.3.8-3.5,1.2-1.5.6-2.8,1.5-4.2,2.3-.2.1-.2.6-.3.9.4,0,.9.1,1.2,0,1.3-.7,2.6-1.6,3.9-2.4,1-.7,2-1.3,3.2-2M95,167c.6-.3.9-.6.5-1.4-.2-.4-.2-1.2,0-1.6.4-.7.9-1.4,1.6-2,1.6-1.4,3.2-2.7,4.9-3.9,1.4-.9,3-1.6,4.5-2.4.2-.1.4-.5.6-.7-.2-.2-.5-.5-.7-.4-.6.1-1.2.3-1.7.6-3.2,2.1-6.3,4.3-9.6,6.4-.9.6-1.9.9-2.9,1.3-.7.4-1.5.8-2.2,1.3-.9.7-1.7,1.7-2.7,2.4-2.8,2-5.8,3.8-8.5,5.9-4.4,3.3-8.6,6.8-12.9,10.2-.3.2-.7.2-1.1.3-.1-.4-.3-.8-.3-1.2,0-.3.3-.7.3-1,.2-.8.4-1.6.4-2.4,0-1.4-.2-2.9-.1-4.3,0-.8.7-1.5.8-2.3,0-.6,0-1.4-.5-1.9-.2-.2-1.3,0-1.7.3-.4.3-.8,1.2-.7,1.6.5,1.2.6,2.1-.2,3.2-.4.5-.1.8.6.8.3,0,.7.5.7.7-.3.9-.6,1.7-1,2.6-.2.5-.7.9-.7,1.3,0,.9.2,1.9.7,2.5,1.1,1.2,0,1.6-.6,2.1-.5.5-1.3.8-1.9,1.1-.3.1-.7.2-1,.3,0-.4-.2-1,0-1.3.4-.6,1.1-1.1,1.6-1.7.2-.2.3-.4.4-.6-.3,0-.6-.1-.8,0-.9.6-1.8,1.3-2.7,1.9-.2.1-.6.2-.8.1-.2,0-.4-.3-.6-.4,0,.2.1.5.3.7,1,1.8.6,2.9-1.2,3.7-.1,0-.3.2-.3.4,0,.2,0,.5.1.5.8,0,1.7.3,2.3,0,3.2-1.7,6.3-3.5,9.4-5.4,2-1.2,3.7-2.7,5.6-4.1.7-.5,1.5-.7,2.1-1.3,1.7-1.5,3.1-3.3,4.8-4.7,1.9-1.6,4.1-2.9,6-4.4,1.5-1.1,3.2-2.2,4.2-3.7,1.1-1.6,2.1-.5,3.1-.4.8,0,1.7.6,1.4,1.7-.2.2-.4.3-.7.5.1.1.2.2.3.3.2-.3.3-.5.7-.8M72.2,164.8c-1,1.2-2.1,2.5-3.1,3.7-.2.2.1.7.2,1.1.3-.1.6-.2.8-.4.6-.8,1.2-1.6,1.8-2.4,1.2-1.7,1.5-1.8,2.4.1.2.5,0,1.5-.5,2-1,1.3-2.6,2.1-3.2,3.8-.1.4-.8,1-1,1-1.8-.8-2.1,1.1-3.1,1.7-.2.1,0,.7,0,1.1.3,0,.7,0,.9-.2,1.1-1,2.2-1.8,3.8-1.1.3.1.7,0,1-.1,1-.5,2-1,2.8-1.7,1.6-1.5,3.9-2.6,3.2-5.5-.2-.8-1.5-2.3-2.1-2.2-.3,0-.6-.1-.9-.2.2-.3.4-.7.7-.9.2-.2.6-.4.8-.6-.3-.4-.6-1-1-1.2-1.5-.4-2.6.1-3.4,1.9M83.7,163.8c.6-.3,1.1-.6,1.7-.8.2,0,.5,0,.8,0-.1.2-.2.5-.3.6-.6.5-1.2,1-1.8,1.5-1.7,1.6-2.4,1.6-3.9-.1-.1-.1-.4-.2-.6-.2,0,.2,0,.5,0,.6.6,1,.5,2,0,3.1-.1.3,0,.7,0,1.1.4,0,.8,0,1.1-.3,2.5-2,5-4,7.5-5.9,1-.8,2.1-1.4,3.2-2,.8-.5,1.8-.7,2.6-1.2,2.7-1.8,5.4-3.6,8.1-5.4,1.2-.9,2.5-1.7,3.6-2.8.3-.3.2-1.2.2-1.8-.6.3-1.2.5-1.7.9-.4.3-.6.8-.9,1.1-2.5,1.8-5.1,3.5-7.7,5.2-.2.2-.7,0-1,0-.2-.1-.2-.6-.1-.9,0-.3.4-.5.5-.8,0-.2.1-.6,0-.8-.1-.2-.6-.3-.8-.2-.8.8-2.1,1.6-1.6,2.8.6,1.5-.3,1.9-1.1,2.4-.7.5-1.5,1.1-2.4,1.5-.7.3-1.5.8-2.1.6-2.2-.7-3.9,0-5.2,1.7-.3.3-.5.7-.8,1,.5,0,1,0,1.5,0,.3,0,.5-.5.9-.9M40,36.9c-1,1.7-2,3.3-2.9,5-.3.5-.4,1-.6,1.5.5-.4,1.3-.6,1.6-1.1,1.8-2.8,3.9-5.3,6.2-7.6,2.6-2.6,5.3-5,7.7-7.8,2-2.2,4-4.3,6.8-5.5.2,0,.3-.4.3-.5-.5-1.5.8-2,1.5-2,2.2-.1,3.3-1.7,4.7-2.9.2-.2.4-.8.3-1-.2-.2-.7-.4-1-.4-.4,0-.9.3-1.2.6-1.7,1.5-3.9,2.2-5.3,4-1.2,1.5-3.2,2.5-4.6,3.9-2.7,2.6-5.3,5.4-7.9,8.1-1.8,1.8-3.6,3.6-5.6,5.6M59.6,14.9c1.1-.8,2.2-1.6,3.3-2.4.9-.7,1.7-1.3,2.6-2,0,0,0-.3,0-.4-.6-.7-3.4-.3-3.9.5-1.3,1.9-2.8,3.6-5,4.4-1.8.7-3.1,2-3.8,3.4-1.2,2.3-3.2,3.7-4.8,5.6-.2.3-1,.1-1.2.4-.7.9-1.3,1.8-1.9,2.8-.7,1-1.4,1.9-2,2.9-.2.3,0,.7-.1,1,.3-.1.8-.2,1-.4,1.6-1.7,3.2-3.4,4.8-5.1,1-1,1.9-2,2.9-2.9,1.8-1.8,3.6-3.6,5.4-5.4.8-.7,1.7-1.3,2.7-2.2M31.1,141.8c-1.3-1.7-2.5-3.3-3.8-4.9-.4-.5-1.1-.8-1.6-1.2.3.5.5,1,.8,1.5,0,0,0,.1,0,.1,2.1,3.6,4.9,6.6,7.8,9.5,1.4,1.4,2.5,3.1,3.9,4.4,1.9,1.8,3.9,3.4,5.9,5.1.2.2.6,0,.9,0-.1-.2-.2-.5-.4-.7-1.9-1.8-4-3.4-5.8-5.3-2.6-2.7-5.1-5.6-7.7-8.6M114.9,95.4c-.9.6-1.7,1.2-2.6,1.7-2.1,1.1-4.3,2.2-6.5,3.3-2,1-4,2-6.2.9-.4-.2-.9-.1-1.4-.1,0,0-.1.4-.2.6,1.4.5,2.9,1.5,4.2,1.3,1.7-.2,3.3-1.3,4.9-2.1,2.9-1.5,5.7-3,8.5-4.6.5-.3.8-.8,1.1-1.1-.5,0-1.1.1-1.8.3M54.4,179.4c.2.5.4,1,.6,1.5.6,2.1.5,2,2.4,1.3,1.4-.5,1.8-1.4,1.8-2.7,0-.6.2-1.1.3-1.7,0-.5.1-1.1-.1-1.5-.1-.2-.9-.2-1.3,0-.6.2-1.1.4-.7,1.4.3.9.1,2.1,0,3.1,0,.3-.3.5-.5.8-.2-.2-.5-.4-.6-.7-.2-1.7-.3-3.4-.4-5.1,0-.2,0-.4,0-.6-.2,0-.4.1-.5.3-1.1,1-.7,2.4-1,3.9M56,156.6c-.3.6-.4,1.3-.8,1.9-.3.6-.8,1.2-1.2,1.8,1.2.5,1.4-.8,2-1.2.4-.3.7-.8.9-1.2.2-.5.4-1.2.2-1.7-.4-1.2-.9-2.3-1.5-3.4-.2-.3-.6-.5-.9-.7-.2.4-.5.7-.5,1.1-.1,1,0,1.9-.8,3-1.1,1.5-1.8,2.3-3.3.7-.1-.1-.4,0-.6,0,.5.8.8,1.6,1.4,2.2.1.2,1,0,1.3-.2.8-.7,1.5-1.7,2.2-2.4.3-.3.7-.4,1.1-.6,0,.2.2.5.4.9M90.5,95.4c1-.3,2.1-.6,3.1-1.1,2.7-1.1,5.2-2.7,8-3.3,2.1-.4,3.3-2.2,5.1-2.7.1,0,.2-.4.2-.6-.2,0-.4,0-.5,0-.8.3-1.7.7-2.5,1.1-4.6,1.9-9.2,3.8-13.8,5.7-.4.2-.8.5-1.2.8.4,0,.9,0,1.6.1M63,189.8c-1.4,2.1-3.8,2.8-5.7,4.2-.3.2-.5.4-.8.6.4.1.9.5,1.2.4,1.5-.5,2.9-1,4.3-1.8,1.5-.8,2.8-1.9,4.1-2.9.2-.2.4-.3.7-.5-.3-.2-.6-.7-.9-.6-.9,0-1.8.4-2.9.7M54.1,146.7c.3,1.1.5,2.3,1,3.3.4.9,1.3.9,1.8.1.5-.7.2-3.7-.5-4.1-1.1-.5-1.5-1-.4-1.9.1-.1,0-.6,0-.9,0-.1-.5-.2-.7-.1-.9.5-1.6,2.3-1.2,3.5M115.5,144.7c-1.3.1-.7,1.2-1,1.8-.7,1.5-1.4,3-2.1,4.5,0,.2-.1.6,0,.6.2.1.7.3.8.2.8-.8,2.1-1.6,2.1-2.5,0-2.6,2.1-4.2,2.7-6.5,0-.2,0-.4.1-.6-.2,0-.5.1-.6.3-.6.7-1.2,1.4-1.9,2.2M110,95.9c.5-.3,1-.6,1.4-.8-.1-.2-.3-.5-.4-.5-.6,0-1.3-.1-1.8,0-1.7.7-3.3,1.7-5,2.2-1.1.3-1.7.8-2.1,1.7-.2.4,0,.9,0,1.3.3-.2.6-.5.9-.7.1,0,.2-.3.3-.3,2.2-.9,4.4-1.8,6.7-2.9M56.3,163.5c1.2-1,1.5-2.3,1.6-3.8,0-.2-.2-.5-.3-.7-.2.2-.5.3-.6.6-.2.5-.2,1.2-.5,1.5-1.7,1.7-3.3,3.4-1.6,6,0,.1,0,.3,0,.4.2.3.4.6.6,1,.3-.5.9-1.2.8-1.3-1.1-1.2-.6-2.4,0-3.7M129,129.1c.2-.4.4-.8.6-1.2-.5,0-1.1.1-1.6.2-.2,0-.4,0-.5.2-1.2,1.1-2.4,2.2-3.6,3.3-.2.2-.4.5-.4.5.5.6,1,1.1,1.5,1.6.4-.4.9-.8,1.1-1.3.4-1.6,1.3-2.6,3-3.3M26.5,46.8c.2-.4.3-.9.6-1.2.5-.4,1.2-.6,1.6-1.1.3-.4.3-1.2.2-1.8,0-.4-.5-.7-.8-1.1-.2.5-.5,1-.7,1.5-.2.3-.4.5-.6.8-.5.8-1.2,1.6-1.5,2.5-.2.4.2,1,.3,1.5.3-.2.7-.5,1-1M133.8,134.8c-.2-2.2-2-3.5-3.3-5,0-.1-.6,0-.8.2-.1.1-.2.6,0,.7,1.3,1.8,2.6,3.6,3.9,5.4.1.1.3.2.4.4,0-.2,0-.4,0-.6,0-.2,0-.5-.1-1M90.1,155.9c.2-1.1-.6-.8-1.1-.7-.3,0-.7.3-1,.5-1,.9-2,1.8-2.9,2.8-.2.2,0,.7,0,1,0,0,.5.2.7,0,1.4-1.2,2.8-2.3,4.3-3.7M45.6,144.4c.4.3.9.7,1.3,1,.3.2.6.2.9.3-.1-.3-.1-.6-.3-.8-1.8-1.9-4.4-2.9-5.5-5.5,0-.1-.5-.1-.8-.2,0,.3,0,.6,0,.8,1.3,1.5,2.7,2.9,4.3,4.4M31.2,49.5c-.8-1.9-1.5-2.4-3.3-1.8-.4.1-.8.4-1.2.6.3.2.7.5,1,.7.1.1.1.4.2.5.8.9,2.1,1,3.2,0M125.6,140c-.2.3-.4.6-.6.8.4,0,.7,0,1.1,0,.4,0,.7-.3,1.1-.3.7,0,1.4.2,2,.3,0-.8,0-1.5-.1-2.3,0-.3,0-.6,0-.9-.4.1-.8.2-1.1.4-.7.5-1.4,1.2-2.2,1.9M25.9,52.5c.2,0,.3,0,.5,0,.1,1.7,1.4,1.6,2.5,1.4.6-.1,1.2-.7,1.8-1.1-.5,0-1-.2-1.6-.3-1.3-.1-2.8,0-3.3-1.7,0,0-.5,0-.5,0-.1.7-.2,1.3-.3,2,.2,0,.5,0,.9-.2M92.6,171.5c1-.9.2-1.7-.4-2.1-.6-.4-1.4-.3-2.2-.4,0,.5-.1,1.1-.2,1.6,1,0,1.1,2.1,2.7.9M77,182.3l.3-.6c-.2,0-.5,0-.6,0-1.4,1.2-2.9,2.4-4.2,3.7-.1,0,0,.6,0,.7.3.1.7.2.9,0,1.2-1.2,2.3-2.5,3.6-3.9M70.2,155c-1.4-1.2-1.4.3-1.8.9-.8,1.2.5,1.6,1,2,.3.3,1.2-.2,1.8-.4-.2-.5-.4-1-.6-1.5-.1-.2-.3-.5-.4-1M109.7,147c-.5.7-.9,1.5-1.4,2.3-.2.3-.3.6-.5.9.6,0,1.3.2,1.7-.1,1-.7,1.6-1.7,1.4-3,0-.4-.2-.8-.2-1.2-.3.3-.5.6-.9,1M28,56.3c0-.3.1-.7.2-1-.2,0-.6,0-.7,0-.7,1.5-2,1.6-3.4,1.7-.5,0-.9.7-1.3,1.1.4,0,.8-.2,1.2-.2.1,0,.3.2.5.3,1.3.3,2.4.4,2.9-1.2,0-.2.3-.4.7-.7M119.4,133.7c-.7,1-.8,1.9.1,2.8.2.2.3.5.4.7.2-.2.4-.4.5-.6.1-.5.1-.9.2-1.4,0-.7,0-1.4,0-2.1,0-.4,0-.8,0-1.2-.3.3-.7.6-1,.9-.1.2,0,.5-.2.9M16.7,71.8c0-.3,0-.7,0-1,0-.4.1-.8.2-1.2-.2.3-.4.6-.6.8-.3.3-.6.5-.8.8-.6.8-1.2,1.6-.5,2.6.2.3.5.5.8.7.1-.2.3-.5.4-.7.2-.6.4-1.2.6-2.1M115.5,129.3c-.6,0-1.1-.2-1.7-.3-.2,0-.4.3-.6.4.1.1.2.3.4.4.8.6,1.7,1.2,2.6,1.7.4.2.9,0,1.4.1-.2-.4-.2-.9-.5-1.2-.4-.4-1-.7-1.7-1.1M74,108c-.3-.1-.5-.3-.8-.4-.1.3-.4.7-.3,1,.1.8.3,1.5.6,2.3.1.4.4.7.7,1.1.3-.4.8-.8.7-1.1-.2-.9-.5-1.7-.8-2.9M7,86.2c.3-.5.4-1.1.8-1.5.4-.3,1.1-.3,1.5-.7.3-.3.5-.8.7-1.2-.5,0-1,.1-1.4.2-.2,0-.3.3-.4.3-1.5.4-1.8,1.4-1.1,2.7M49.7,161.2c.5.8.9,1.5,1.4,2.2.2.3.6.4.9.5,0-.4,0-.9-.2-1.2-.4-.7-1-1.3-1.5-2-.2-.3-.3-.6-.5-.8,0,.4-.2.7,0,1.3M50,147.3c-.2.2-.6.5-.5.6.5,1,1.1,2,1.8,3,.1.2.5.3.7.4,0-.3.2-.6.1-.8-.6-1-1.3-2-2.1-3.2M12.2,77.1c0,.4-.3.8-.3,1.3,0,.2.5.7.6.6.5-.4,1-.7,1.3-1.2.2-.3,0-.9,0-1.4-.5.2-1,.4-1.7.7M111.8,85.4c-.9.4-1.9.8-2.7,1.3-.4.3-.8.7-1.1,1.1.4-.2.9-.3,1.3-.5.4-.1.7-.1,1.1-.3.7-.3,1.3-.8,1.9-1.2,0,0-.2-.4-.4-.4M105.4,159.9c.2-.3.5-.7.7-1-.4,0-.8,0-1.3,0-.1,0-.3,0-.4.1-.5.4-.9.9-1.3,1.3,0,0,0,.3.1.4.6-.3,1.2-.6,2.1-.9M50.1,14.9c.2-.5.3-1.1.5-1.6-.5.3-1,.5-1.4.8-.3.2-.5.6-.7.9,0,.2-.1.5,0,.6,0,.1.4.1.6,0,.3-.2.6-.4,1.1-.7M116.4,153.1c.5-.4,1-.7,1.4-1.2.2-.2.2-.5.2-.7-.3,0-.7-.2-.9,0-.6.5-1.1,1-1.6,1.6-.2.2-.2.5-.3.7.3-.1.6-.2,1.1-.3M9.1,79.1c0,.6-.2,1.2-.3,1.8.4-.5.9-.9,1.3-1.4,0,0,0,0,.1-.1.2-.3.5-.6.7-.8-.5,0-.9,0-1.4,0-.1,0-.2.2-.5.4M121,129.1c-.2.5-.4.9-.5,1.4,0,.2.2.5.3.7.1-.2.3-.3.4-.5.4-.6.7-1.3,1-1.9,0-.2.1-.4.2-.6-.3,0-.6,0-.8,0-.3.1-.4.4-.6.9M56.5,25.7c0,0,0-.3,0-.3-1.3-.4-2,.5-2.7,1.3,0,0,0,.2-.1.3.7-.2,1.5-.4,2.2-.6.2,0,.4-.3.7-.7M94.4,147.7c-.3.5-.6,1-.9,1.4.5-.3.9-.7,1.4-1,0,0,.1-.1.2-.2.4-.4.8-.9,1.2-1.3-.6.3-1.1.6-1.9,1.1M68.4,177.3c0,.3-.1.7-.2,1,.3,0,.7,0,.9-.3.4-.5.7-1.1,1-1.7-.5.3-1,.6-1.7,1M108.9,92.7c-.1-.7-.3-1.4-.5-2,0-.1-.2-.2-.3-.4,0,0-.3.2-.3.3.2.9.4,1.7.6,2.6.2,0,.4-.2.5-.4M115.5,140.9c-.3.4-.6.8-1,1.1.3,0,.7.2.9,0,.5-.2.9-.6,1.4-.9-.3,0-.7-.1-1.3-.2M33.9,42.9c-.5-.3-.9-.7-1.5-1-.1,0-.6.2-.6.3,0,.2.1.7.3.7.5.1,1.1.1,1.7,0M42.1,22.6c.4-.5.8-.9,1.1-1.4,0,0,0-.3,0-.4,0,0-.3-.1-.4,0-.4.2-.9.4-1,.7-.1.3-1.1.8.2,1.2M47.9,147.9c-.2,0-.5-.2-.7-.1-.4.1-.8.4-1.1.6,0,0,.2.5.3.7.3-.2.7-.3,1-.5.2,0,.3-.3.4-.7M111.3,90.1c.1-.4.3-.7.4-1.1-.4.1-.8.1-1.1.3-.3.3-.3.7-.5,1.1.3,0,.7-.1,1.2-.3M75.8,114.6c-.5,0-1-.2-1.5-.3.3.3.5.7.8,1,.2.2.4.4.6.5,0-.3,0-.7.1-1.3M60.4,173.7c0,.2-.2.3-.3.5.3,0,.7.2.9.1.4-.3.6-.8.9-1.2-.3,0-.7,0-1,.2-.1,0-.2.2-.5.4M22.6,132.1c-.4-.5-.8-1.1-1.2-1.6,0,0-.2.1-.3.2.3.5.7,1.1,1.1,1.6,0,0,.2,0,.4-.1M10.4,88.7c.2,0,.5.1.7.2,0-.5,0-1,0-1.5,0,0-.3-.1-.4-.2-.1.4-.2.8-.3,1.5M120.5,144.1c.4-.1.8-.2,1.2-.3,0,0,0-.4,0-.6-.6.2-1.3.5-1.9.7.2.1.4.2.7.2M62.7,21.5c0-.3,0-.7,0-1-.4.2-.8.3-1.2.5.3.2.7.5,1.2.5M118.3,154.7l-.6.9c.4-.2.9-.2,1.3-.5.2-.1.3-.5.4-.8-.3,0-.7.1-1.1.3M22.6,55.4c-.3.3-.6.6-.9.9,0,.1.2.4.4.7.2-.4.3-.9.5-1.6M45.9,158.4c.3.2.7.3,1,.5,0-.2,0-.5,0-.6-.3-.3-.6-.5-1-.8,0,.2-.1.5,0,.9M78.9,178s0,0,.1-.1c0,0,0,0,0-.1-.6-.7-.7,0-1,.3-.1,0-.1.4-.1.6.3-.2.6-.4,1.1-.7M102,151.1c-.4,0-.7.1-1.1.2.1.2.3.5.3.5.3-.2.6-.4.8-.7M115.6,133c-.7-.9-.8.2-1.2.4,0,0,0,.3,0,.5.3-.2.6-.3.8-.5,0,0,.1-.1.4-.4M87.8,152.5c0,.2-.2.4-.3.6.1,0,.4.2.4.1.2-.3.4-.6.6-.9-.2,0-.4,0-.7.1M128.3,127.2c0-.3,0-.6,0-.9,0,0-.3,0-.5,0,.1.3.3.5.5,1M3.6,95.6c0-.2-.1-.5-.2-.7-.1.2-.4.4-.3.6,0,.2.4.3.6.2M12.8,73.6c0-.2-.1-.5-.2-.7-.1.2-.4.4-.3.6,0,.2.4.3.6.2M52.2,27.9c.3-.2.7-.5,1-.7-.1,0-.3-.2-.3-.2-.3.2-.6.5-.7.9M48,159.6l-.9-.3c0,.1,0,.4.1.4.3,0,.6,0,.8,0M64.8,166.6c.1.3.2.6.3.9,0,0,.2,0,.3,0-.1-.3-.3-.7-.6-.8M67.3,188.1c0,.2,0,.4,0,.6.2-.1.5-.3.7-.4-.2-.1-.4-.2-.7-.2M24.7,48.3c0,.2.1.5.2.7.1,0,.3-.2.4-.3-.1-.2-.3-.4-.6-.5M116.1,86.5c-.2.3-.4.6-.6.8.3-.2.6-.3.9-.5,0,0,0-.2-.3-.3M34.6,32.1c0-.2.2-.4.3-.6-.1,0-.3-.1-.4-.2,0,.3-.1.5.1.8M87,96.3c.2-.1.5-.3.7-.4,0,0-.2-.2-.2-.2-.2.1-.4.3-.5.6Z"/>
    <path d="M434.2,347.4c3.4-5.4,6.9-10.7,10.1-16.1,1.9-3.1,3.5-6.5,5.3-9.7,2-3.5,4-7,5.9-10.5.2-.4.1-1,.2-1.5-.6,0-1.3,0-1.8.3-.7.3-1.2,1-1.8,1.4-.2.1-.6,0-.9,0,.1-.2.2-.5.4-.7.6-.7,1.3-1.4,2-2,.5-.4,1.5-1.1,1.7-1,.8.6,1.5,1.4,2.1,2.3.5.8.7,1.7,1.2,2.5,1.2,1.7,2.8,2.1,4.8,1.5,1.6-.5,3.7.7,4.1,2.3,0,.3,0,.8-.3,1.1-2.2,3.9-4.4,7.8-6.6,11.7-1,1.8-2,3.7-3,5.6-.2.3-.6.7-.7.7-.3-.1-.6-.4-.8-.8-.2-.4-.3-.9-.4-1.3-.5-1.1-2-1.3-2.4-.3-.4.9-1.1.6-1.7.6-.7,0-1.6-.1-2.2.2-.8.5-.1,1.2.3,1.8.3.5.4,1,.7,1.5.8,1.1,1.6,1.7,2.6.2.2-.3.9-.2,1.4-.3,0,.4,0,.8,0,1.2-.2,2-1,3.6-2.7,4.8-.1,0-.3.4-.3.5.8,2-.9,3.3-1.6,4.7-1.7,3.5-3.9,6.8-5.8,10.2-1.4,2.5-2.6,5.1-3.9,7.8-.2.4-.2,1.2,0,1.6.8,1.6-.4,1.7-1.4,2.1-1,.4-2.1.6-3.1,1.1-1.4.6-2.7,1.5-4,2.2-1.5.8-2.5-.4-3.6-1-.5-.3-1-.5-1.4-.8-.2-.1-.4-.5-.4-.7.3-1.5.6-3,1.2-4.4,1-2.2,1.8-4.5,1.8-7,0-3.5,1.5-6.6,3.5-9.4.5-.7.9-1.5,1.4-2.3M448.2,343.7c0,.2,0,.5,0,.7,0,.3-.1.5-.2.8.3,0,.6,0,.8-.3.2-.2.2-.6.1-.9,0-.2-.4-.3-.6-.7.2-.8.5-1.6.7-2.4,0-.3.1-.6.1-.9-.3,0-.7.2-1,.3-.1,0-.2.2-.3.3-1.2,1.6-1.1,4-2.9,5.3,0,0,.1.6.2.8.8-.6,2.1-1.1,2.2-1.8,0-.9.6-1.1,1-1.4M434.2,359.8c-2.6,1.7-3.2,4.9-5.3,6.8-.2.1-.3.6-.2.7.1.2.5.4.7.3.4,0,.9-.2,1.3-.5,1.3-.8,2.5-1.8,3.8-2.6.4-.2,1.2.2,1.7.3-.3.8.7,2-.8,2.5-1.3.4-2.5.8-3.8,1.2-.3,0-.5.3-.7.5.3.1.6.4.9.4,2.3,0,4.2-1,5.7-2.6.2-.2.1-.9,0-1.3-.8-1.8-1.2-3.7-1.2-5.7,0-.6,0-1.3.1-1.9.4-1.7.9-3.3,1.3-4.9,0-.4-.4-.9-.6-1.3-.2.3-.4.6-.5.9-.2.9-.3,1.8-.6,2.7-.5,1.5-1.1,2.9-1.8,4.5M441.4,356.2c0,.3,0,.6,0,.9.2,0,.6,0,.7-.2.5-.8,1-1.7,1.3-2.5.1-.3-.2-.8-.3-1.2-.3.2-.7.4-.9.7-.4.6-.6,1.3-.9,2.3M462.5,316.4c-.1-.1-.3-.4-.4-.4-.5,0-.9.2-1.4.3.1.4.2.9.3,1.3.3-.2.7-.5,1-.7.1,0,.2-.2.5-.5M461.9,320.2c.1.3.2.9.4,1,.2.1.8-.1,1-.3.2-.2,0-.6,0-1-.4,0-.9.1-1.5.3M458.8,323.7c0-.2-.1-.4-.2-.6-.2,0-.5.2-.5.3,0,.3,0,.6.1.9l.6-.6M461.3,318.8l-.5-.4c-.1.2-.3.5-.4.7.3,0,.6,0,.9-.3Z"/>
    <path d="M335.1,327.8c-.2-.9-.3-1.8-.3-2.7,0-.2.4-.4.7-.6,1.2,1.7,3.2,1.2,4.7,1.8.7.3,1.2,1.1,1.7,1.7.1.2,0,.8-.3,1-.2.2-.7,0-1,0-.3,0-.8-.4-1-.3-.6.2-1.4.4-.4,1.4,1,.9,1.9,1.4,3.4,1.3,2.5,0,5.1,0,7.3,1.6,1.1.7,2.1.7,3-.5.6-.7,1.3-1.3,2-2,1-1,.7-1.7-.6-2.2-.8-.3-1.6-1-2.3,0-.1-.1-.4-.3-.4-.4.2-.8,1.4-1.2,2.2-.8,1.5.7,3,1.6,4.7,2,.7.2,1.7-.3,2.4-.8.7-.5,1.2-1.3,1.7-2.1.2-.2.1-.8,0-1-.2-.2-.9-.4-1.1-.2-.6.4-1,1-1.5,1.5-.3.3-.5.7-.8,1-.1.1-.5,0-.7,0,0-.2,0-.5,0-.7.6-1.3.9-2.5-.7-3.4,0,0,.1-.5.2-.5.9,0,1.9-.1,2.8,0,.6.1,1.2.7,1.8,1.1,2.5,2.1,2.1,2.9-.2,4.8-.9.7-1.5,2.2-3.1,1.7-.2,0-.5,0-.7-.1-1.7-.8-2.2-.8-2.9.8-.6,1.6-2,2.3-3,3.4-.1.1-.2.2-.4.3.2,0,.4.2.5.3,1,.2,1.9.5,2.9.6,1.1,0,1.7-.6,1.9-1.6.3-1.4,1.4-2.1,2.7-1.6.2,0,.4.8.2,1-1.5,2.4-3,4.9-4.8,7.2-1.3,1.8-3,3.4-5.5,3.3-.6,0-1.3-.5-1.9-.7.4-.6.6-1.4,1.1-1.9.9-.8,2.1-1.4,3-2.3,1.5-1.4,1.3-2.2-.6-3.1-1-.5-2-1-2.7-1.7-1.3-1.5-2.9-1.7-4.6-1.2-1.3.4-2.5.8-3.8.3-.4-.1-1.1.2-1.5.6-1.7,1.6-3.2,3.2-4.8,4.8s-2.2,2.3-3.4,3.3c-4.4,3.9-9.1,7.4-14.3,10-1.5.8-3.4.6-5,1.2-2.6.9-4.8-1-7.3-1-.3,0-.5-.4-.8-.6.3,0,.8-.3,1-.2,2.4.9,4.8.3,7.2.2.2,0,.6-.2.6-.4,0-1.4,1.1-1.1,1.9-1.1,2.6.1,4.3-1.3,5.9-3.1.2-.2.4-.7.3-1-.7-1.5,0-2.5,1.1-3.4,1.5-1.3,3-2.7,4.4-4.1.2-.2.2-.7.3-1-.4,0-.8,0-1.1,0-.2,0-.4.2-.6.3,0-.2.2-.4.2-.6-.3-1.4,1-1.8,1.5-2.7,1-1.7,2.1-3.4,3.1-5.1.3-.5.4-.8,1-.3,1,.9,1.9,1,3.2.1.8-.5,1.8-.7,2.5-1.5.2-.2.4-.5.6-.8-.3,0-.6,0-.9,0-.2,0-.5,0-.8,0M336,332.6c.9-.2,1.9-1.7,1.6-2.7,0-.1-.4-.3-.5-.2-.8.7-1.7,1.5-1.2,2.9M329.3,337.5c-.2-.3-.5-.7-.7-1-.5.5-.9,1-1.4,1.5.3.2.6.5.9.4.4,0,.7-.4,1.2-.8M352.7,342.1c0-.4.2-.8.3-1.2-.4.2-1,.2-1.3.5-.4.4-.6,1-.9,1.5.5-.2,1-.3,1.5-.5,0,0,.2,0,.4-.3Z"/>
    <path d="M457.7,49c-1.4,3.2-2.8,6.3-4.1,9.4-.2.5-.2,1.1-.3,1.7-.2.7-.4,1.4-.6,2.1,0,.3-.3.5-.5.7-.1-.3-.4-.9-.4-1,1.1-.9.2-1.7,0-2.6-.1-.7,0-1.4,0-2.1-.5-2.8.3-5.7-1.4-8.3-.3-.5,0-1.3,0-2,0-2.1-.3-4.3,0-6.4.2-1.1,1.3-2,2-3,.5-.8,1-1.7,1.6-2.4.4-.5.9-.8,1.4-1.2.4.7,1,1.3,1.1,2,.2,1.4.3,2.9.3,4.4,0,1.3,0,2.7-.2,4-.2,1.2-.1,1.5,1,1.5.4,0,.9.5,1.3.8-.3.2-.6.5-.9.7-1,.4-.4,1.1-.3,1.8M453.6,41.2c0-.2,0-.5,0-.7-.2,0-.5,0-.6.2-.2.7-.4,1.3-.5,2,0,.3.3.7.4,1,.2-.4.5-.7.7-1.1.1-.3,0-.7,0-1.4Z"/>
    <path d="M226.5,39.5c2.9-1.9,5.7-4.3,9.2-4,1.9.1,3.8,1.2,5.7,0,.2-.1.7.2,1,.3-.2.3-.3.6-.5.9-.5.7-.9,1.6-1.6,2.1-1.1.9-2.4,1.9-3.7,2.5-2.9,1.4-5.8,2.8-8.8,3.7-1.4.4-3.3.8-4.8-.7-.8-.8-1.1-1.4-.2-2.1,1.1-.9,2.3-1.8,3.6-2.6M234.7,38c-2.5.2-4.6,1.3-6.5,3-.2.2-.2.6-.3.9.3,0,.6,0,.9,0,2,0,3.5-1.1,5-2.2.5-.3.7-1,.9-1.7Z"/>
    <path d="M353.9,319.4c.4-1.2,1.2-1.3,2.2-1,1,.3,2.1.5,3.1.4,2.3-.2,3.2,1.7,4.6,2.9.2.1,0,.5.1.8-.3,0-.6,0-.8,0-.6-.4-1.2-1-1.8-1.4-.4-.3-1-.5-1.5-.6-.9-.2-1.8-.5-2.7-.6-.7,0-1.4,0-2.1.4-2.1.9-4.1.4-6.1-.3-.5-.2-1-.3-1.5-.4-1.8-.2-3.6-.6-5.4-.5-1.9,0-3.6-.5-5.3-.9-1.1-.2-2.2,0-3.3-.1-.4,0-.8-.4-1.2-.6,0,0,0-.3,0-.3.4,0,.8,0,1.3,0,.7,0,1.4,0,2.1,0,3.8,0,7.6.4,11.4,1.1,1.9.4,4,.2,5.9,0,.9,0,1.1-.3.6.6,0,.1.3.4.5.6Z"/>
    <path d="M348.9,336.4c1.1,1,0,1.4-.4,2.1-.4.6-1.1.7-1.5.3-.8-.8-1.5-1.7-2.1-2.7-.4-.5-.2-1,.5-.8.7.1,1.3.4,1.9.7.5.2.9.3,1.6.5Z"/>
    <path d="M318.6,324.8c1.9-1.8,3.8-2.1,5.9-.7.3.2.5.8.7,1.2-.6,0-1.4.4-1.6.1-1.7-1.5-3.1-.7-4.6.2-.3.2-.7.3-1.1.4.2-.4.4-.8.7-1.2Z"/>
    <path d="M135.8,79.9c.3-.4.5-.8.8-1.1.6-.4,1.3-1.2,1.9-.2.5.8-.2,1-.8,1.5-.8.6-1.4,1.4-2.1,2.1-.2.2-.4.2-.6.4-.1-.3-.4-.7-.3-.9.3-.6.7-1.1,1.1-1.7Z"/>
    <path d="M26.8,67.2c1.4.8,1.5,1.7.7,2.7-.7.9-1.4,1.9-2.2,2.8-.2.2-.5.4-.8.4-.3,0-.6-.1-.9-.2.2-.2.4-.5.6-.7.9-.8,1.9-1.5,2.7-2.3.1-.1-.2-.7-.2-1,0-.6,0-1.1.2-1.7Z"/>
    <path d="M188.1,374.7c-1.7-.2-3.3-.5-4.9-.9,0,0,0-.4,0-.5.8-.9,1.9-.7,2.9-.4.7.2,1.5.4,2.2.7.2,0,.4.4.4.4-.2.2-.4.4-.6.7Z"/>
    <path d="M191.7,464.5c-.7,0-1.2,0-1.8,0,.5-.3.9-.6,1.4-.9,1.2-.8,2.3.2,3.5.3.6,0,1.1,0,1.7,0,.4,0,.7.2,1.1.4-.3.1-.6.4-.8.4-1,0-2-.2-3-.3-.6,0-1.3,0-2.1,0Z"/>
    <path d="M70.1,191.9c-2,1.6-3.9,3.1-5.8,4.6-.1.1-.3.2-.5.3-.4.1-.9.2-1.3.2.3-.2.6-.5.8-.7,1.8-1.4,3.6-2.9,5.5-4.2.3-.2.8-1.1,1.2,0Z"/>
    <path d="M459.5,40.7c0-1.2-.3-2.3-.3-3.4,0-1.1.2-2.3.2-3.4.1,1.2.2,2.3.3,3.5.2,1.4.4,2.8.6,4.2,0,.3-.2.6-.3.9,0-.3-.2-.6-.3-.9,0-.3-.2-.5-.3-.9Z"/>
    <path d="M142.6,366.8c-.9-.4-1.8-.6-2.6-.9.8-.1,1.6-.2,2.4-.3.1,0,.3,0,.4,0,.6.4,1.1.8,1.6,1.2-.6,0-1.2.1-1.9,0Z"/>
    <path d="M281.6,470.7c-.3,0-.8.3-1,.1-.9-.5-1.7-1-2.6,0-.2.2-.5.3-.8.3-.2,0-.5-.1-.7-.2.1-.2.2-.4.4-.6,1.7-1.3,2.4-1.3,4.7.4Z"/>
    <path d="M78.2,147.1c0,.9,0,1.6,0,2.4,0,.3-.4.6-.7.9-.3-.3-.8-.7-.8-.9,0-.9.4-1.7.6-2.5,0,0,.5,0,.8.2Z"/>
    <path d="M354,323.1c.3,0,.5,0,.7,0,0,.1,0,.3,0,.4-.5.8-1.3,1-2.2.8-.8-.1-1.6-.4-2.4-.6-.3,0-.5-.3-.8-.5.3-.1.7-.4,1-.3.9.1,1.8.4,2.7.5.2,0,.5-.2.9-.3Z"/>
    <path d="M334.9,327.8c-.3.3-.6.7-.9.9-.3.1-.8,0-1,.1-.5.4-1,.8-1.2,0-.1-.4.5-1.4.8-1.4.7-.1,1.5.2,2.3.4Z"/>
    <path d="M204.2,18.1c-.2,0-.2,0-.3,0-.9,0-1.8.2-2.4-.7.7,0,1.5-.1,2.2-.2.5,0,1.1,0,1.6,0,.3,0,.6.3.9.5-.3.1-.6.3-.9.4-.3,0-.7,0-1.2,0Z"/>
    <path d="M231.9,461.5c.7.8,1.3,1.4,1.8,2.1,0,.1,0,.3.1.5-.2,0-.5.2-.5,0-.8-.8-1.6-1.6-2.4-2.5-.2-.2,0-.7,0-1,.3.2.6.4.9.7Z"/>
    <path d="M175.6,441.7c.3.4.4.7.6,1-.3-.1-.7-.2-.9-.4-.8-.8-1.5-1.6-2.2-2.5-.2-.2-.2-.5-.3-.8.3.2.6.3.8.5.7.7,1.3,1.4,2,2.2Z"/>
    <path d="M351.4,329.8c.3.4.6.7.8,1.1-.4,0-.7,0-1.1-.2-.5-.2-1-.5-1.4-.8-.3-.2-.3-.7-.4-1.1.4.1.8.2,1.1.3.3.2.6.4,1,.7Z"/>
    <path d="M528.8,121.8c0-.2-.2-.5-.1-.6.4-.2.8-.5,1.2-.5.6,0,1.2.1,1.8.2-.5.2-1,.5-1.5.7-.4.2-.9.2-1.4.2Z"/>
    <path d="M365.4,429.5c.2,0,.4.1.4.2.1.7.2,1.4.2,2.1-.2,0-.5,0-.5,0-.2-.7-1.4-1.4-.1-2.3Z"/>
    <path d="M68,103.2c.2.2.4.4.6.6.3.4.5.7.8,1.1-.7-.3-1.5-.6-2.2-1.1-.1,0,.2-.8.3-1.2.1.2.3.3.5.6Z"/>
    <path d="M286.5,54.9c-1.2.7-1.5-.4-2.2-.9,0,0,.2-.2.3-.2.9,0,1.8-.2,1.9,1.1Z"/>
    <path d="M310.2,41.7c0,.2,0,.4-.2.5-.5.3-1,.5-1.4.8,0-.2-.2-.5-.2-.5.6-.2.7-1.6,1.8-.8Z"/>
    <path d="M474,276.3c-.2-.2-.4-.7-.3-.8.4-.4.9-.6,1.3-.9,0,.3.3.7.1.8-.3.3-.7.6-1.2.9Z"/>
    <path d="M8.4,65.5c1.4.4.6,1.9,1.4,2.7,0,0-.1.2-.1.2-.1,0-.4-.1-.4-.3-.3-.8-.6-1.7-.8-2.6Z"/>
    <path d="M329,326.4c-.1-1.4.9-.3,1.3-.6,0,0,.4.1.6.2-.3.2-.6.5-1,.6-.2,0-.5,0-.9-.2Z"/>
    <path d="M78.3,153.3c.2.2.5.4.6.6,0,.4,0,.8,0,1.3-.3-.3-.6-.5-.8-.8-.1-.3-1.2-.8.1-1Z"/>
    <path d="M506.2,126c0-.2.2-.5.3-.5.5-.1,1.1-.2,1.6-.3,0,0,.2.3.3.4-.5.1-1,.3-1.5.4-.2,0-.5,0-.8,0Z"/>
    <path d="M462.6,282.9c.3.2.5.4.8.6-.3.1-.7.4-1,.3-.4-.1-.6-.5-.9-.8.4,0,.7-.1,1.2-.1Z"/>
    <path d="M78.8,136.6c-.2,0-.4,0-.6-.1-.4-.2-.8-.4-1.1-.7.2-.1.4-.3.6-.3.8,0,1.2.2,1.1,1.1Z"/>
    <path d="M150.1,204.2c.1-.3.3-.4.4-.6,0,.3.2.6.2.9-.2.6-.5,1.2-.8,1.7,0,0-.3,0-.4-.1,0,0,0-.3,0-.4.2-.5.3-.9.5-1.6Z"/>
    <path d="M78.8,136.8c.1,0,.3-.1.4,0,.5.4.9.9,1.4,1.3-.1,0-.3.2-.3.2-.5-.4-1-.9-1.5-1.4Z"/>
    <path d="M444,325.1c.3-.3.5-.6.8-.8,0,0,.4.3.4.4-.1.2-.3.4-.5.6,0,.1-.2.2-.3.3-.3.1-.5.3-.8.4.1-.3.2-.5.4-.9Z"/>
    <path d="M209.6,16.9c.6-.3,1.2-.6,1.8-.8,0,0,.2.2.2.3,0,0-.2.2-.3.2-.5.1-1.1.2-1.7.2Z"/>
    <path d="M246.7,378.6c.4.2.6.4.9.7-.2,0-.5.2-.7.2-.3,0-.7-.2-1-.4.2-.2.5-.3.8-.5Z"/>
    <path d="M95.4,142.9c-.3,0-.7,0-.8-.1-.2-.2-.2-.6-.2-.9,0-.1.3-.2.4-.4.1.2.3.5.4.7.1.2.2.4.2.7Z"/>
    <path d="M437.2,285.9c-.3.2-.7.3-.8.2-.2-.3-.2-.7-.3-1,.2,0,.5.1.7.2.2,0,.3.3.4.6Z"/>
    <path d="M41.7,16.3c0-.5.2-.9.3-1.4.2.1.5.3.5.4,0,.4-.3.9-.4,1.3-.1,0-.2-.2-.4-.4Z"/>
    <path d="M136.5,372c0-.3,0-.6,0-.8.1-.2.4-.4.6-.7,0,.4.2.7.2,1.1,0,.2-.5.3-.8.4Z"/>
    <path d="M459.5,31.8c-.3.2-.7.3-1,.3,0-.2,0-.5,0-.7.3,0,.7.1,1,.4Z"/>
    <path d="M11.5,55.5c.4-.2.7-.3,1-.3,0,0,.2.4.1.4-.3.2-.7.4-1,.6,0-.2-.1-.4,0-.7Z"/>
    <path d="M528.5,268.5c-.5,0-.9,0-1.3,0,0-.1,0-.4.1-.4.5-.1,1.1-.2,1.6-.3-.1.2-.3.3-.5.6Z"/>
    <path d="M213,187.5c-.4,0-.7,0-1,0,0-.2.1-.4.3-.5.3-.2.7-.2,1-.3,0,.2-.1.5-.3.8Z"/>
    <path d="M277.8,185.8c.3-.3.6-.5,1-.6,0,0,.2.3.3.4-.4.1-.8.2-1.3.3Z"/>
    <path d="M126.3,373.9c.6,0,1-.1,1.4-.2,0,0,0,.2,0,.2-.5.2-1,.4-1.5.6,0-.2,0-.4.1-.6Z"/>
    <path d="M326,326.7c-.1-.2-.1-.4-.2-.6.2,0,.5,0,.7.2.3.2.4.5.7.8-.4-.1-.7-.3-1.2-.5Z"/>
    <path d="M288.6,182.2c.4,0,.8,0,1.2.2,0,.1,0,.3-.1.4-.4-.1-.7-.3-1.1-.6Z"/>
    <path d="M218.5,26.4c0-.4.3-.7.4-1.1.1.2.4.6.3.7,0,.2-.5.3-.8.4Z"/>
    <path d="M337.7,320.1c.3,0,.6.2.9.5,0,0-.1.3-.2.4-.2-.2-.4-.5-.7-.9Z"/>
    <path d="M25.7,36.9c.3-.4.5-.7.7-.9,0,.1.2.3.1.4-.3.5-.6.9-.9,1.4,0-.2,0-.5.1-.8Z"/>
    <path d="M182.4,373.4c-.4.2-.8.4-1.3.5,0,0-.1-.3-.1-.4,0,0,.2-.2.3-.2.3,0,.7,0,1.1,0Z"/>
    <path d="M466.7,326.6c-.1-.4-.2-.7-.3-1.1.2,0,.6.2.6.3,0,.3-.2.6-.3.8Z"/>
    <path d="M5.7,123c0-.4.1-.8.3-1.1.2.3.4.6.6.8-.2.1-.5.2-.8.3Z"/>
    <path d="M164.6,379.5c.3.1.4.3.6.6-.4,0-.7,0-1.1,0,.1-.2.3-.3.5-.6Z"/>
    <path d="M299.6,309.1c-.3.1-.6,0-.9,0,0-.2,0-.4,0-.5.3.1.5.3.8.5Z"/>
    <path d="M116.5,381.3c0,.3-.2.6-.5.9,0,0-.3-.1-.4-.2.2-.2.5-.4.9-.7Z"/>
    <path d="M17.6,79.9c-.3-.2-.4-.3-.5-.5.2-.1.5-.3.7-.4,0,.3,0,.6-.2.9Z"/>
    <path d="M509.4,251.1c-.3,0-.5-.3-.8-.4.2-.1.5-.2.7-.4,0,.2,0,.5,0,.8Z"/>
    <path d="M7.7,62.3c-.1-.2-.3-.4-.2-.6,0-.2.4-.2.6-.4,0,.3-.2.6-.4,1Z"/>
    <path d="M327.9,328.5c.3.1.5.3.7.5,0,.1,0,.3,0,.5-.1,0-.3-.1-.4-.3-.2-.2-.3-.5-.3-.8Z"/>
    <path d="M318.6,314.4c-.2-.2-.4-.4-.5-.6.2,0,.3-.1.5-.2,0,.2,0,.5,0,.8Z"/>
    <path d="M14.7,56.1c-.2.1-.4.2-.6.3,0-.2,0-.5,0-.7.2.1.3.2.6.4Z"/>
    <path d="M135.2,368.8c-.3.2-.5.3-.7.4,0-.2,0-.4,0-.6.2,0,.5,0,.6.2Z"/>
    <path d="M7.5,118c.2.2.3.4.4.6-.1,0-.3.1-.4.2,0-.3-.1-.5,0-.8Z"/>
    <path d="M140.5,211.5c-.2,0-.4.1-.5.1.2-.3.3-.6.5-.9,0,.2,0,.5,0,.8Z"/>
    <path d="M425.6,381.9c.3.1.4.2.6.4-.2,0-.4.2-.6.2,0-.2-.1-.4,0-.6Z"/>
    <path d="M220.8,30c-.1-.3-.1-.6-.1-.9,0,0,.3,0,.3,0,0,.3,0,.6-.1.9Z"/>
    <path d="M340,446.9c-.3,0-.5,0-.7,0,.1-.2.2-.3.3-.5.2.1.3.3.4.5Z"/>
    <path d="M47,45.2c-.2.3-.3.4-.5.5,0-.2-.1-.5,0-.5.1-.1.4-.1.6,0Z"/>
    <path d="M541.9,276c0-.2.2-.4.4-.5.1.2.2.3.3.5-.2,0-.4,0-.7,0Z"/>
    <path d="M379,180.8c1,0,2,.1,2.9.2.2,0,.4.2.6.4-.2.3-.5.8-.6.8-1.8-.4-2.8,1.1-4.3,1.5-.5.1-1,0-1.5,0,.3-.4.5-.8.9-1.1.6-.6,1.3-1.1,2-1.8Z"/>
    <path d="M400.1,186.7c-.7.3-1.4.6-2.1.8-.3,0-.6-.3-.9-.4.2-.3.3-.6.5-.8.6-.5,2.1-.2,2.5.5Z"/>
    <path d="M403,193.9c.8,1.9.7,2.3-.3,2.3-.7,0-1-.2-.6-.9.3-.5.6-1,1-1.4Z"/>
    <path d="M388.5,180.4c.6.3,1,.6,1.4.8-.6,0-1.3,0-1.9,0,0,0,0,0-.1-.1-.4-.5-.8-.9-1.3-1.4.5.2,1,.4,1.4.6,0,0,.2,0,.4,0Z"/>
    <path d="M534.4,222.9c-1.2.4-2.2.8-3.2,1.2-.2,0-.4-.1-.6-.2.1-.1.3-.3.4-.4,1.2-.7,2.3-1.3,3.5-2,.2,0,.3-.2.5-.2.6,0,1.2.2,1.8.2-.4.3-.8.6-1.2.9-.3.2-.7.3-1.2.4Z"/>
    <path d="M430.7,217.3c0-.3-.2-.4-.3-.5.9,0,1.9-.2,2.8-.1,1.2,0,.8,1.1.7,1.7,0,.9-1.2,1.3-1.9.6-.5-.5-.9-1.1-1.4-1.8Z"/>
    <path d="M435.2,212.9c.5.2,1,.4,1.4.7.3.2.6.7.6.9-.2.3-.6.7-1,.7-.3,0-.6-.5-.8-.8-.2-.4-.2-.9-.2-1.5Z"/>
    <path d="M437.2,218.2c.3-.6.7-1,1-1.5.1.1.4.3.4.4-.2.6-.4,1.1-.7,1.6,0,0,0,0-.1.1-.5.2-.9.4-1.4.5.2-.3.5-.7.7-1.2Z"/>
  </g>
</svg>