<?xml version="1.0" encoding="UTF-8"?>
<svg id="Layer_1" xmlns="http://www.w3.org/2000/svg" version="1.1" viewBox="0 0 604.5 401.7">
  <!-- Generator: Adobe Illustrator 29.3.1, SVG Export Plug-In . SVG Version: 2.1.0 Build 151)  -->
  <g id="Shape_129">
    <path d="M9.9,177.4c-.1,0-.4,0-.4.2-.6,2.7-2,5.2-2.3,8,0,.8-.3,1.7-.5,2.5,0,.2-.4.4-.6.6,0-.3-.3-.6-.2-.8.7-2.7,1.5-5.4,2.2-8,1.2-4.2,2.6-8.3,4.4-12.3,0,.8-.2,1.7-.4,2.5,0,.2-.1.4-.2.6.2-.1.6-.2.7-.3.4-.9.9-1.9,1.2-2.9,1-3.4,2.8-6.4,4.2-9.5.9-1.8,2-3.5,2.9-5.3.1-.2,0-.5,0-.8-.2.1-.5.2-.6.4-.8,1.3-1.5,2.7-2.2,4-.7,1.3-1.4,2.6-2.1,3.9-.1.2-.4.4-.6.5,0-.3,0-.7.2-.9,1.6-3,3.1-5.9,4.8-8.8,1.2-2.1,2.5-4.1,3.8-6.1,2.9-4.3,6-8.4,9.7-12,2-1.9,3.5-4.3,5.5-6.2,1.2-1.3,2.8-2.2,4.3-3.3.6-.4,1.1-.9,1.7-1.4.8-.7,1.4-1.6,2.2-2.2,1.1-.8,2.4-1.3,3.2-2.7.2-.4,1-.4,1.5-.7,3.2-1.8,6.6-3.4,10.1-4.3,1.4-1.5,3.4-1.6,5.1-2.3.9-.4,1.8-.7,2.8-.8,4.7-.6,9.3-1.2,14-.9,1.4,0,2.7.3,4.1.4,1.4.2,2.7.2,4.1.5,3.6.7,7.1,1.5,10.4,3.1,1,.5,2.1,1.3,3.1,1.2,2.2-.4,3.4,1.1,5,1.9.5.3,1,.6,1.4,1,.6.5.9,1,1.8,1,.6,0,1.2.7,1.7,1.2,2.7,2.7,5.6,5.3,8.1,8.2,2.3,2.7,4.3,5.7,6.2,8.7,1.4,2.2,2.5,4.5,3.6,6.8,1.6,3.2,2.8,6.7,3.6,10.2.3,1.5.9,2.9,1.3,4.4,1.2,3.6,1.6,7.4,2.6,11.1,0,.2,0,.5-.1.8,0,.6-.4,1.3-.2,1.7.7,1.4.3,2.7.4,4.1.1,1.7,0,3.5.4,5.2.5,2.5-.2,5-.7,7.5,0,.3,0,.6-.1.9-.3,4.3-.7,8.7-2.3,12.8.3,2.5-1.2,4.6-1.9,6.8-.7,2.2-1.6,4.4-2.6,6.6-.9,2-2.2,3.9-3.1,5.9-.3.6-.1,1.5-.2,2.3,0,.9-1,1.7-1.5,2.5-2.2,3.4-4.4,6.7-7.3,9.6-2.4,2.4-4.6,5.1-7.1,7.4-1.7,1.6-3.8,2.8-5.7,4.1-2,1.4-4.1,2.7-6.3,3.9-1.4.8-3,1.2-4.5,1.9-.1.3-.1.4-.1.5,0-.1.2-.3.3-.4,1.6.2,3-.3,4.3-1,4-1.9,7.9-4.1,11.3-6.9,2.8-2.3,5.1-5,7.6-7.6,3-3,5.4-6.5,7.8-10.1,1.3-2,2.4-4.1,3.6-6.1.1-.2.4-.3.6-.4,0,.2,0,.4-.2.6-1.1,2.8-2.9,5.1-4.4,7.6-2.6,4.5-5.8,8.4-9.4,12-4.9,4.9-10.4,9.1-17,11.7-2.2.9-4.5,1.8-6.8,2.6-.3,0-.7.2-.9,0-1-1.1-1.4,0-2.2.4-1.1.5-2.4.7-3.7.9-1.5.2-3,.4-4.5.4-3.1,0-6-.8-8.8-2-4.4-1.9-8.3-4.6-11.4-8.2-.2-.2-.2-.5-.3-.8.3.1.6.1.8.3,1.3,1.1,2.6,2.3,4.1,3.6.3.1.4.1.5.1-.1,0-.3-.2-.4-.3-1.4-1.8-2.8-3.6-4.3-5.4-.9-1.1-1.2-2.3-1.6-3.6-.3-1-.6-2-.9-3,0-.2-.2-.4-.2-.6,0-.8,0-1.5,0-2.3.4.6.9,1.1,1.1,1.8.7,2.8,2,5.4,3.7,7.7,1.9,2.6,3.9,5.4,6.8,7,2.1,1.2,4.4,2,6.7,2.8,1,.4,2.1.4,3.2.5,1,0,1.8.2,2.5.8-.9,0-1.7.4-2.4-.3-.3-.3-1,0-1.5,0-.1,0-.3.1-.4.2,0,0,.1.2.2.3,1.4.5,2.8.9,4.2,0,1.4,0,2.9.2,4.3-.4.2,0,.4-.1.6-.2-.2,0-.3-.3-.5-.3-2.5.4-4.9-.5-7.3-1-1.6-.3-3.2-.9-4.8-1.5-1.4-.5-2.7-1.1-4-1.8-2.7-1.5-4.3-4-5.9-6.5-2.3-3.4-4.2-8.7-5-13.5-.1-.7-.3-1.4-.4-2.1,0-.2.1-.5.2-.7.2.2.5.4.6.6.4,1.3.7,2.6.9,3.9.8,4,2.7,7.5,5.1,10.7,1.9,2.7,4.4,4.6,7.2,6.1,1.9,1,3.9,1.5,6.1,1.6,1.5,0,3,.3,4.5.4,4.2.2,8-.8,11.7-2.8,1.3-.7,2.4-1.8,3.7-2.6,2.2-1.4,4.5-2.6,6.6-4.1,1.8-1.2,3.7-2.4,4.9-4.4.8-1.3,2.2-2.3,3.3-3.4,2.7-2.7,4.8-5.9,6.8-9.1,1.2-1.9,2.2-3.9,3.2-5.9,2.5-5.2,4.6-10.6,5.8-16.3.7-3.3,1.4-6.7,1.8-10.1.6-4.6.9-9.2.9-13.8,0-2.6-.7-5.2-.8-7.7-.2-4-1.7-7.8-2.4-11.7-.4-2.3-1.5-4.5-2.3-6.7-2-5.5-4.6-10.6-7.7-15.5-2.4-3.8-5.5-6.8-8.7-9.9-1.7-1.6-3.4-3.2-5.4-4.4-2.4-1.5-5.1-2.6-7.7-3.6-3.2-1.2-6.5-2.2-9.8-3.1-2.2-.6-4.5-.6-6.8-1.1-2.8-.6-5.6-.6-8.4-.3-3.8.3-7.7.4-11.4,1.7-4.9,1.7-9.6,3.7-14,6.6-3.3,2.1-6.4,4.4-9.2,7.1-2.5,2.4-5.1,4.8-7.4,7.5-2.2,2.6-4.1,5.5-6.2,8.2-3.4,4.4-5.8,9.4-8.1,14.4-2.6,5.7-4.9,11.5-6.4,17.6-.8,3.2-2,6.2-2.9,9.4-.5,1.9-.7,3.9-1.1,5.9-.4,2.3-.9,4.6-1.3,6.9-.2,1.3,0,2.5-.4,3.9-.5,1.7-.3,3.6-.6,5.4-.6,3.6,0,7.3-.5,10.8-.3,2.5-.6,5-.3,7.5.5,4.2,0,8.6,1.2,12.8.6,1.9.6,3.9,1,5.9.6,3,1.1,6,1.8,8.9,1.1,4.3,2.3,8.6,3.6,12.9.9,2.8,2.2,5.6,3,8.4,1.4,5.4,3.9,10.4,6.1,15.5,1.4,3.2,2.8,6.4,4.4,9.4,1.9,3.6,3.9,7.1,6.1,10.5,3.6,5.7,7.8,10.9,12.7,15.5,3.9,3.7,8.4,6.3,13,8.8,3.5,1.9,7.4,2.9,11.2,4,1.2.4,2.6.4,3.9.5,3.4.2,6.8.3,10.2.5.6,0,1.1.3,1.6.4.3,0,.9.1,1,0,.8-1.2,2-.7,3.1-.8,2.8-.2,5.6,0,8.4-.5,2.7-.5,5.6-.6,8.1-2.2.7-.4,1.4-.9,2.2-1.3.2-.1.6,0,.9,0-.2.2-.4.3-.6.5-.1,0-.2.2-.3.3,0,0-.1.2-.2.3.2,0,.4.2.6.2,1.9-.5,3.8-1.1,5.7-1.6,1-.3,2-.4,3-.6-.5,1.3-1.9,1.2-2.8,1.5-3.1,1.2-6.4,2-9.6,2.9-2.9.7-5.9,1-8.9,1.4-5.8,1-11.6.8-17.4.8-1.3,0-2.6-.3-3.9-.4-.2,0-.4.1-.6.2.2,0,.4.2.6.2.5.2,1.1.3,1.6.4.6.1,1.3.3,1.9.3,3.2-.3,6.4,1.3,9.7.2,1.5-.5,3.2-.5,4.8-.5,2.1,0,4.2-.2,6.2-.9.2,0,.6,0,.8.1-.2.3-.4.7-.6.7-1,.2-2.1.3-3.2.5-1.9.3-3.8.5-5.7.9-2.5.6-5,.5-7.5.4-2.7-.1-5.5-.5-8.2-.9-.5,0-1-.3-1.3-.7-.9-1.4-2.6-1.3-3.9-2-.1,0-.4.1-.6.2.1.2.2.4.4.5.3.1.7.2,1,.3.1,0,.2.2.3.2-.1,0-.3.2-.4.2-1.2-.2-2.4-.2-3.6-.6-5.2-1.8-10.2-4.1-14.8-7.1-.3-.2-.8-.3-.9-.2-.3.5,0,.6.5.8,1.1.6,2,1.5,2.9,2.2.2.1.4.2.5.3.4,2.5,2.9,2.1,4.3,3.2.1,0,.5-.2.7-.2.3,0,.8.2.8.2-.2,1.7,1.5,1.2,2.2,1.9.1.1.5,0,.7,0,1.8.7,3.7.3,5.5.5,1.8.2,3.6,1.2,5.4,1.6,1.2.3,2.6.4,3.8.5.1,0,.3.2.4.3-.1,0-.3,0-.4.1-.9.4-1.7,0-2.6,0-4.1.1-8-1-12-2.1-2.6-.7-5.2-1.8-8-2.1-1.7-.2-3.2-1.6-4.7-2.6-.6-.4-1-1.1-1.6-1.5-.3-.2-1.3,0-1.3,0,0,1-.4.5-.7.2-.9-1-1.6-2.1-2.6-3-1.1-1.1-2.4-1.9-3.4-3.1-2.1-2.3-4-4.8-6-7.2-.5-.6-.9-1.3-2-1.2-.5,0-1.1-.5-1.4-.9-4.4-6.6-9.3-12.9-12.6-20.2-1.4-3.2-3.2-6.2-4.4-9.4-1.3-3.5-2.6-7-3.5-10.7-.9-3.4-2.2-6.7-3.3-10.1-.3-.8-.5-1.6-.6-2.4,0-.2,0-.4.1-.6.1.2.2.4.3.6.4.7.7,1.3,1.2,2,.4,1.5.6,3.1,1.1,4.6.1.5.9.8,1.4,1.2.5.4.7.8-.2,1-.1,0-.3.6-.2.8,1.1,3.4,2.3,6.9,3.5,10.2.3.7.9,1.3,1.4,1.9.1-.2.2-.4.3-.7,1.3,2.7,2.6,5.5,4.1,8.2.5.9-1.4.5-.6,1.2.3.3.8.2,1.2.4.1,0,.2.4.2.6-.4,1.7-.5,1.8,0,2.6,1.9,2.7,2.8,6,5.1,8.5.8.9,1.5,1.9,2,3,.3.7.6,1,1.3,1.2.4,0,.9.8.8,1.1-.3,1.1.4,1.8,1.1,2.2,2.4,1.5,3.7,3.8,5.4,5.8,1.3,1.5,2.8,2.9,4.4,4.4.3.2.4.3.6.5.1.1.3.1.4.1-.1,0-.3-.2-.4-.4-.2-.2-.3-.3-.5-.3-1.3-1.8-2.5-3.6-3.8-5.4-2.2-3.1-5.5-5.4-7.1-8.9,0-.2-.3-.3-.5-.5-1.8-1.5-2.6-3.6-4-5.3-.5-.6-.6-1.2-.9-1.9-.7-1.9-1.5-3.7-2.5-5.5-.4-.8-.8-1.6-1.1-2.5-.7-2-1.7-3.9-2.6-5.9-.8-1.7-1.5-3.4-2.3-5.1-.2-.4-.2-1.4-1.1-.6,0,0-.4-.2-.4-.4-.7-1.9-1.4-3.8-2.1-5.8.2,0,.4.2.5.2.1,0,.4-.4.3-.5-1-2.5-.8-5.3-2.2-7.6-.6-.9-1-1.9-.9-3,0-.5-.3-1.1-.4-1.6-.3-.8-.8-1.5-.8-2.3-.1-1.4,0-2.7-1.6-3.4-.5-.2-.4-1.6-.5-2.5,0-.8.1-1.5,0-2.3,0-.3-.4-.6-.7-.9-.1.3-.3.7-.4,1,0,.2-.2.5-.3.7,0-.3-.1-.5-.2-.8-.1-.6-.9-1,0-1.7.3-.2.4-1.4-.7-1.7-.3,0-.5-1-.6-1.5-.2-2.7-1-5.3-1.7-7.9-.3-1.1-.5-2.2-.6-3.4-.2-2.7-.5-5.4-.4-8.1,0-1.8,0-3.7,0-5.5,0-6.4,0-12.8.5-19.2.2-3.3.2-6.6,1.2-9.8.5-1.6.3-3.3.5-5,.3-1.9.6-3.8,1-5.6.5-2.3,1.1-4.5,1.7-6.7,0-.2.1-.4.3-.6.1-.2.3-.3.5-.4,0,.2.2.4.2.6-.1.8-.3,1.5-.4,2.3,0,.2.1.4.2.6,0-.1.2-.3.3-.5.8-2.8,1.5-5.5,2.2-8.3,0-.2-.1-.4-.2-.6,0,.2-.2.3-.3.5-.2.4-.5.9-.8,1.2-.1-.3,0-.4-.1-.6,0-.2,0-.4-.1-.6-.1.2-.2.4-.3.6,0,.2,0,.4,0,.7M36,314.5c-.1,0-.3,0-.4,0,.1,0,.3.2.4.5,0,.2,0,.4.1.6,0,0,.2,0,.3,0-.1-.2-.3-.5-.4-.9M111,242.7c-.2.2-.5.3-.9.5,0,.1,0,.3,0,.4,0-.1.2-.3.5-.4.2-.2.5-.3.9-.5.2,0,.4,0,.6-.1,0,0,0-.2,0-.3-.2.1-.5.3-.9.4M18,281.2c.1,0,.3,0,.4,0-.1,0-.3-.2-.4-.5-.2-.4-.3-.8-.5-1.4.1-1.6-.7-2.9-1.1-4.3-1.4-4.5-3.1-9-4.2-13.6-1.1-4.7-2.6-9.4-3.3-14.2-.6-4-1.6-7.9-2.1-11.9-.4-3.5-.5-7.1-.5-10.6,0-3.4.3-6.8.4-10.2.1-2.9.3-5.7.4-8.6,0-.1,0-.3,0-.4.4-2.7.9-5.5,1.4-8.2.3-1.7.6-3.4.9-5,0-.5,0-1,0-1.6,0-.1-.1-.2-.2-.3,0,.1-.2.2-.2.4-.5,1.8-1,3.5-1.3,5.3-.4,2.3-1,4.6-1.1,7,0,1.7-.9,3.4-.7,5.1.3,1.9-1.4,3.7,0,5.5-.9,1.8.7,3.8-.5,5.5,0,5.6-.2,11.3.5,16.9.4,3,.8,5.9,1.4,8.9.4,2,.8,4,1.3,6,.9,3.3,2,6.6,2.7,9.9.9,4.3,2.4,8.5,3.8,12.6.7,2,.9,4.3,2.6,6.2.2.4.3.8.5,1.4M100.6,249.5c.2,0,.4,0,.6,0,.2,0,.3-.2.4-.3-.1,0-.3-.2-.3-.2-.3.1-.6.3-1.2.4,0,.1,0,.3,0,.4,0-.1.2-.3.5-.4M125.2,130.8c.1,0,.3,0,.4,0-.1,0-.3-.2-.4-.5-.3-.4-.6-.8-.9-1.4-.2-.2-.3-.5-.5-.9-.6-.9-1.1-2-1.9-2.8-2.5-2.2-5.1-4.3-7.7-6.4-1.7-1.3-3.5-2.5-5.3-3.5-1.2-.7-2.7-.7-3.9-1.3-3.3-1.6-6.9-2.7-10.4-3.6-3-.8-5.9-1.6-9-1.6-4.8,0-9.5.3-14.3.8-2.5.2-4.4,1.6-6.7,2,0,0-.2.4-.2.6,0,0,.2.3.3.3.3,0,.7,0,1-.2,1.4-.5,2.8-1.3,4.3-1.5,3.5-.5,6.9-.8,10.4-.9,2.9,0,5.7-.3,8.6.3,3.4.7,6.8,1.3,10,2.5,2.7,1,5.2,2.3,8,2.9.3,0,.8,0,1,.2,2.1,1.5,4.1,3.1,6.3,4.4,2,1.2,3.1,3.5,5.6,4,.6.1,1.1.9,1.6,1.5.8.8,1.5,1.7,2.3,2.7.2.2.3.5.5.9.3.4.6.8.9,1.4M6.3,247.4c0,.2,0,.4,0,.6,0,.3-.2.6-.3.8.1,0,.4.1.4,0,.2-.3.4-.6.4-.8,0-.3-.3-.7-.4-1.2-.3-1.9-.6-3.8-.9-5.6,0-.1-.1-.3-.2-.4,0,.1-.3.3-.3.4-.1.5-.7.7-.2,1.5.5.7.4,1.9.6,2.8.2.5.6,1,.9,1.7M22.7,149.4c1.7-2.3,3.3-4.6,5.1-6.9,1.8-2.3,3.8-4.5,5.7-6.6,2.1-2.3,4.2-4.6,6.4-6.8,1.2-1.2,2.5-2.4,4-3.6.2,0,.4,0,.6-.1,0,0,0-.2,0-.3-.2.1-.5.3-.9.4-1.7.6-3,1.7-4.2,2.9-2.2,2.2-4.3,4.4-6.3,6.8-2.7,3.2-5.4,6.4-7.9,9.7-1,1.4-2.3,2.7-2.8,4.5v.4c0-.1.1-.3.5-.4M134,210.7c-.4.4-.9.6-1.1,1.1-.4.7-.4,1.5-.8,2.1-1.3,2.4-2.6,4.8-4,7.1-2.7,4.7-5.8,9.1-9.5,13.1-1.1,1.2-2.2,2.2-3.3,3.4-.2.2-.3.6-.4.9.4,0,.8,0,1.1-.3.4-.3.8-.7,1.1-1.1,1.5-1.6,3-3.2,4.4-4.9,1.5-1.8,2.8-3.6,4.1-5.5,1.5-2.1,3-4.3,4.3-6.5,1.7-3,3.6-6,4.5-9.4.2-.4.5-.9.7-1.3,0,0,0-.3-.1-.4-.1.1-.3.2-.3.3-.2.5-.3.9-.7,1.4M139.6,191.1c.2-.4.4-.8.4-1.2.2-2.7.3-5.4.5-8.1,0-.3,0-.7.2-.8.4-.1.8,0,.4-.7-.4-.8-.5-1.8-.6-2.7-.2-2.2.3-4.4-.5-6.6-.2-.7-.6-1.5-.4-2,.7-1.5.2-2.8,0-4.2-.3-1.8-.5-3.7-1-5.4-1.2-4.4-2.6-8.7-3.9-13-.9-3-2.5-5.7-4.1-8.4-.1-.2-.4-.2-.7-.3,0,.2.1.4.2.6.8,1.8,1.7,3.5,2.5,5.3.6,1.3,1.1,2.7,1.5,4.1,1.3,4.5,2.5,9,3.6,13.6.5,2.1,1.2,4.3,1.3,6.4.2,3,.4,6,.4,9,0,4.4-.2,8.7-.4,13.1,0,1.6-.6,3.2-.8,4.8-.2,1.7-.3,3.5-.5,5.2,0,.2.1.4.2.6,0-.2.2-.4.2-.6.5-2.7,1.4-5.4,1.4-8.7M128.3,136.6c-1.4-2.5-3.4-4.4-5.2-6.6-.7-.8-1.3-1.6-1.9-2.3,0-.1-.3,0-.5-.1,0,.1-.1.3,0,.4.7,1.1,1.4,2.1,2.2,3.2,1.4,1.9,2.8,3.8,4.1,5.7,1.1,1.7,2.2,3.4,3.1,5.2.8,1.5,1.3,3.1,1.8,4.6.3,1,.4,2.1.6,3.1.7,2.5,1.4,5,2.1,7.5.6,2.2,1.3,4.3,1.8,6.5.4,2.1.7,4.2.9,6.4.2,2.3.3,4.7.5,7,0,.1,0,.3,0,.4.2.2.4.4.6.6,0-.2.3-.5.3-.7-.1-1.1-.4-2.1-.4-3.2-.2-2.5.2-5-.4-7.5-.5-1.9-.5-3.9-1.2-5.8-.5-1.2-.7-2.5-1.1-3.8-1.1-4.2-2.1-8.4-3.6-12.5-1-2.6-2.4-5.2-3.6-8.2M29.7,307.3c-.2-.3-.3-.6-.5-.9-.9-1.8-1.9-3.6-2.7-5.4-.8-1.9-1.5-3.9-2.3-5.8-1.4-3.5-2.8-7.1-4.3-10.6-.3-.6,0-1.8-1.4-1.8.2.8.4,1.5.6,2.3.9,3.2,2.1,6.3,3.5,9.4,1,2.2,1.8,4.5,2.7,6.7.4,1,1.2,1.8,1.6,2.7.7,1.8,1.7,3.5,2.7,5.2,1.3,2.1,2.6,4.2,4,6.2,1.1,1.6,2.2,3.2,3.4,4.7.2.3.8.3,1.2.4-.1-.3-.3-.6-.4-.9-2.7-3.9-5.4-7.8-8.1-12.2M47.3,329.9c-1.4-1.3-2.8-2.5-4.3-3.8-.4-.4-.7-.8-1.1-1.2.1.6.2,1.3.5,1.8.2.4.7.8,1.1,1.1,1.4,1.4,2.9,2.9,4.3,4.3.2.2.3.4.3.6,0,.5-.1.5.1.6.9.4,1.7.9,2.6,1.3.2,0,.4.1.6.2,0-.2,0-.5-.2-.6-1.2-1.4-2.4-2.7-3.9-4.3M54,118.1c2.8-1.1,5-3.3,8.1-3.8.1,0,.3-.2.4-.3-.1,0-.3-.1-.4-.1-.3,0-.6-.3-.8-.2-2.3,1-4.6,1.9-6.8,3.2-2.5,1.5-4.5,3.7-7.2,4.9-.5.2-.9.8-1.3,1.3-.1.1,0,.4,0,.6.2,0,.3,0,.5-.2.3-.1.6-.3.9-.5,2.1-1.5,4.3-3.1,6.6-4.8M106.9,116.6c-.9-.3-1.8-.6-2.7-.9-.3,0-.7,0-1,.2.3.2.5.3.8.5.7.4,1.5.8,2.2,1.2.9.5,1.8,1,2.7,1.5.6.4.9-.3,1.4-.3-.2-.4-.4-1-.7-1.1-.7-.4-1.6-.5-2.6-.9M107.8,244c0-.1.1-.2.1-.3,0,0-.1-.1-.2-.1-1.4.7-2.8,1.5-4.2,2.3-.4.2-.7.5-1,.8-.1.1-.1.3-.2.5.1,0,.3.1.4,0,1.6-1.1,3.6-1.4,5.1-3.1M19.3,294.3c-.4-1-.7-1.9-1.1-2.9,0,0-.3-.1-.4,0,0,0-.2.3-.1.4.4,1,.8,2,1.2,3.1.2.5.4,1,.7,1.5,0-.6,0-1.2-.2-2M10.8,173.1c0,0,0,.1,0,.2,0,.4,0,.8.1,1.3.1-.3.2-.7.3-1,0-.1.4-.2.6-.2.3,0,.5,0,.8.2,0-.5-.1-1-.2-1.5-.3.1-.6.2-.9.4-.2.1-.3.3-.7.7M135.5,206.9c0,0,0,.1.2.2,0,0,.1,0,.1,0,.4-.8.7-1.6,1-2.4,0-.2-.2-.5-.4-.6,0,0-.5.1-.5.2-.2.7-.3,1.5-.5,2.7M7.2,252.4c.2.7.3,1.3.5,2,0,.1,0,.3.1.4.1,0,.3,0,.3-.2.3-.6-.1-2-.9-2.2M79.5,111.6c-.4,0-.7,0-1.1,0-.1,0-.3.2-.4.3.6.2,1.1.5,1.7.6.3,0,.6-.5.8-.7-.2,0-.4,0-1-.1M86,251.5c.6,0,1.3.2,1.9.2.4,0,.8-.1,1.2-.2-.4,0-.8-.2-1.1-.2-.6,0-1.2,0-2,.2M137.6,201.3c-.1.1-.3.2-.3.3-.1.4-.3.8-.4,1.2,0,0,.2.2.3.2.2-.4.4-.9.6-1.3,0,0,0-.1-.2-.4M8.3,186.8c0,.5-.2.9-.2,1.4,0,.1.1.2.2.4,0-.2.2-.3.2-.5,0-.4,0-.7-.2-1.3M137.9,184.4c0,.2,0,.4.1.6,0-.5,0-1.1,0-1.6,0,.2,0,.4-.1,1M137.8,179.4c.2.2.3.4.5.5,0,0,.4,0,.4,0,0-.3-.1-.7-.2-1-.2.1-.3.3-.7.7M14.4,171.3c0,0,0,.1.2.2,0,0,.1,0,.1,0,0-.3.1-.7.1-1,0,0-.2-.1-.3-.2,0,.2,0,.4-.1,1M17.1,286.2c0,0,0,.1.2.2,0,0,.1,0,.1,0,0-.3.1-.7.1-1,0,0-.2-.1-.3-.2,0,.2,0,.4-.1,1M134.4,207.6c0-.2.1-.5.2-.7,0,0-.2,0-.3,0,0,.2,0,.4.1.8M17.3,282.3c0,.2-.1.5-.2.7,0,0,.2,0,.3,0,0-.2,0-.4-.1-.8M81.9,112.3c0,0-.2-.1-.3-.2,0,.1,0,.3.3.2M137.6,189.5c0,0,.1-.2.2-.3-.1,0-.3,0-.2.3Z"/>
    <path d="M191.5,245.4c0-3.3.1-6.6.4-9.9.2-2.9.5-5.8.9-8.6.4-2.6.7-5.1.9-7.7.2-3.2.8-6.4,1.3-9.6.6-3.3,1.1-6.7,2.2-9.9.1-.3,0-.7,0-1.1-.2-2,.4-3.8.9-5.7.4-1.4.8-2.7.9-4.1.1-1.9.6-3.6,1.4-5.3.2-.4.2-1,.4-1.5.2,1.5-.1,2.8-.6,4.2-.6,1.8-.8,3.7-1.1,5.6-.2,1.2-.3,2.4-.4,3.6,0,.1.2.3.3.4,0-.1.2-.3.2-.4,0-3.2,1.6-6.1,2.2-9.2.5-2.6,1.5-5.2,1.7-7.8.2-2.3,1.5-4.3,1.1-6.7,0-.6.6-1.2.8-1.9,1.1-3.2,2.1-6.5,3.2-9.7.3-.9.6-1.7.9-2.6.8-2.2,1.5-4.3,2.3-6.5.2-.6.2-.6,1.1-.3.1,0,.3,0,.4,0,.8-.3,1.5-2.3,1.1-3.1-.1-.2-.4-.6-.3-.7,1-1.5,1.2-3.5,2.7-4.8.9-.8,2.5-1.9,1.4-3.7-.2-.3.2-1.1.5-1.5,1.3-1.4,2.1-3.1,2.5-4.8.4-1.7,1.3-3,2.4-4.2.8-.9,1.7-1.8,1.4-3.2,0-.3,0-.6,0-.8.3.2.7.5.9,0,.1-.3-.2-.8-.1-1.1.4-1.1.8-2.2,1.3-3.2,1.5-2.8,3-5.5,4.6-8.2,2.6-4.3,5.3-8.6,7.9-12.9,1.2-2,2.4-4,3.7-5.9,1.4-2.1,3.1-4,4.6-6,2.1-2.7,4.2-5.5,6.4-8.2.3-.4.6-.6.9-1,3-3,6-6.1,9.1-9,2.1-2,4.6-3.5,6.7-5.5,2-1.9,4.3-3.4,6.6-4.7,4-2.3,8.1-4.5,12.8-5.1,2.4-.3,4.8,0,7.1.5.4,0,.7,0,1.1,0,.6,0,1.2,0,1.7-.1-.5,0-1-.2-1.5-.3-2.1-.6-4.2-1-6.4-.9-.2,0-.4-.1-.6-.2.2-.2.4-.6.6-.6,1.4,0,2.8,0,4.2,0,.5,0,1,.3,1.4.3,3.4,0,6,1.6,8.7,3.5,2.9,2.1,4.6,5.1,6.6,7.8,1.2,1.6,2.6,3.1,3,5.1.3,2.1,1.2,4,2,6,.6,1.5,1.4,2.9,1.8,4.4.6,2.6,1.7,5.1,1.9,7.8.2,2.8,1.2,5.4,2.2,8.1.2.5.4.9.4,1.4.2,2,.2,4.1.5,6.1.9,6.1,1.1,12.2.8,18.3,0,1.9-.1,3.8-.8,5.7-.5,1.3-.3,2.9-.5,4.3-.3,2.3-.5,4.6-.9,6.8-.8,4.1-1.5,8.4-2.8,12.4-1,3-1.6,6.2-2.9,9.2-1.6,4-3.1,8-4.7,12-1,2.5-2,5-3.1,7.5-2.4,5.2-4.7,10.4-7.3,15.5-1.7,3.4-3.8,6.6-5.8,9.8-1.3,2.1-3.1,4-4.2,6.1-1.1,2.1-2.5,3.7-4.1,5.3-.3.3-.7.3-1.1.4.2-.3.3-.6.6-.8,1.2-1.4,2.4-2.7,3.6-4.1.1-.1.1-.4.2-.6-.2,0-.5,0-.6.2-2.2,2.3-4.3,4.7-6.6,7-1.3,1.4-2.9,2.5-4.2,3.8-1.1,1.1-2.1,2.4-3.4,3.3-2.4,1.6-5.2,2.3-8.1,2.7-.9,0-1.8.4-2.7.4-3.1.3-6.1-.5-9-1.6-1.2-.4-2.2-1.2-3.4-1.5-1.5-.4-2.4-1.6-3.4-2.6-1.5-1.5-2.8-3.2-4.3-4.7-1.5-1.6-2.7-3.3-3.3-5.4-.4-1.2-1.1-2.3-1.8-3.3-2-2.9-3.2-6.2-4.5-9.4-1.5-3.6-3.3-7-4.9-10.6-2.1-4.7-4.2-9.4-6.3-14-1.2-2.5-2.4-5-3.6-7.5-1.4-3-3.4-5.7-5.3-8.4-.6-.8-1.1-1-1.9-.1-1.3,1.3-2,2.8-2.6,4.3-1,2.4-1.9,4.9-2.7,7.4-1.1,3.1-2.2,6.2-3.1,9.3-.8,2.5-1.3,5-2,7.5-.5,1.8-1,3.7-1.5,5.5-.2-2.6.8-5,1.4-7.5.8-3.8,2-7.6,3-11.3.5-1.8,1.2-3.5,1.9-5.3,0-.2.4-.4.4-.5,0-.5-.1-1-.2-1.4-.2.4-.5.7-.6,1.1-1.9,5.6-3.7,11.1-5,16.9-.6,2.4-1.4,4.8-2,7.3-.6,2.5-1.1,5-1.6,7.5-.6,2.8-1.2,5.7-1.8,8.5-.3,1.3-.3,2.7-.5,4.1-.2,1.5-.6,2.9-.8,4.4-.2,1.5-.4,3-.6,4.5-.4,3.1-.7,6.2-1,9.3-.3,3.3-.5,6.7-.9,10-.3,2.4,0,4.9-.4,7.2-.5,2.8,0,5.6-.5,8.4-.3,2,0,3.8,0,5.7.2,5.2,0,10.5,0,15.8,0,.2,0,.4-.1.6-.1-.2-.2-.4-.3-.6-.5-1.2-.7-2.5-.3-3.8,0-.2,0-.4-.1-.6-.7-2.7-.5-5.4-.5-8.1,0-1.7,0-3.5,0-5.2.1-4.1.1-8.1.5-12.2.2-1.7.4-3.5.4-5.2,0-.2-.1-.4-.2-.6,0,.2-.2.4-.3.7-.2,1.4-.5,2.8-.8,4.2M246.1,89.5c0,.1,0,.3,0,.4,0-.1.2-.3.5-.4,0-.1,0-.3,0-.4,0,.1-.2.3-.5.4M233.1,110.7c0-.3.2-.6.5-.9,0-.2.1-.5.2-.7,0,0-.2,0-.3,0,0,.3,0,.5-.3.8,0,.3-.2.6-.5.9,0,.1,0,.3,0,.4,0-.1.2-.3.5-.4M254.7,79.6c0-.2.1-.5.2-.7,0,0-.2,0-.3,0,0,.3,0,.5-.3.8,0,.1,0,.3,0,.4,0-.1.2-.3.5-.4M275.9,222.4c-.2.2-.5.3-.7.5,0,0,.1.2.2.3.2-.2.4-.3.6-.5,0,0,0-.2.4-.4,0-.1,0-.3,0-.4,0,.1-.2.3-.5.4M317.1,74.9c.1,0,.3,0,.4,0-.1,0-.3-.2-.4-.5,0-.2,0-.5,0-.7-1.6-3.4-2.5-7.1-5.2-9.9-1-1.1-2.1-2.1-3.2-3.1,0,0-.3,0-.4,0,0,.2,0,.3,0,.5.2.4.4,1,.8,1.2,2.4,1.2,3.2,3.6,4.4,5.8,1.2,2.2,2.4,4.3,3.5,6.7M321.1,90.7c0-2.6-.2-5.2-.9-7.7-.5-1.9-1.2-3.7-1.8-5.5,0-.2-.4-.3-.5-.5,0,.3-.2.6-.2.8,1.1,3.4,2.1,6.8,2.6,10.4.1.9-.2,1.7,0,2.6.2,1.5.7-.3.9.4.3,1.7.5,3.5.9,5.2.5,1.6.8,3.3.9,5,0,.7.3,1.4.4,2,0,.2-.1.4-.2.6-.2-.1-.5-.3-.7-.7-.4-2.2-.7-4.3-1.1-6.5-.2-1.4-.4-2.8-.7-4.2,0-.3-.5-.5-.7-.7,0,.3-.2.6-.2.8.1,1.1.3,2.1.4,3.2.3,2.2.9,4.4,0,6.6,0,.2,0,.5,0,.7,1,2.7.6,5.5.8,8.2.3,4.4-.1,8.9-.3,13.3,0,1.1-.1,2.2-.6,3.1-.6,1.2,0,1.9.4,2.8,0,.2.3.3.5.5,0-.2.2-.5.3-.7.1-.3.3-.7.4-.8-.2,1.7,0,3.6-.5,5.2-.4,1.2-.2,2.3-.4,3.4,0,.2-.4.4-.6.6,0-.3-.2-.7,0-.7.6-.5.3-.9-.1-1.3-.7-.6-.4-1.3-.3-2,.2-1.4.2-2.8.3-4.2,0-.1-.1-.2-.2-.4,0,0-.2.2-.2.3-.3,1.3-.9,2.6-.9,3.9,0,2.9-1.1,5.6-1.6,8.3-.6,3.2-1.6,6.4-2.5,9.5-.7,2.7-1.5,5.4-2.4,8-.7,2.2-1.8,4.2-2.5,6.4-1.6,5.5-4,10.7-6.3,15.8-2.8,6.1-6,12.1-9.1,18-.6,1.2-1.8,2-2.7,2.8.3-.5.6-.9.9-1.4,2.4-4.4,4.8-8.9,7.1-13.4.9-1.8,1.6-3.8,2.6-5.7,0-.2.1-.5.2-.7,0,0-.2,0-.3,0,0,.3,0,.5-.3.8-.2.2-.5.4-.6.6-2,3.9-3.9,7.8-5.9,11.7-1.3,2.5-2.7,5.1-4.3,7.4-3,4.3-5.7,8.8-9.6,12.4-.2.2-.2.7-.3,1.1.3-.1.7-.2.9-.4,2.3-2.1,4.3-4.6,6.1-7.1.3-.4.5-1,.9-1.2.9-.5.2.4.2.6-.3.6-.7,1.1-1,1.7.1,0,.4.1.4,0,.3-.6.6-1.2,1.1-1.8.8-1.1,1.7-2.2,2.5-3.3,2.9-3.8,5.1-7.9,7.4-12,.8-1.4,1.6-2.8,2.4-4.2.7-1.4,1.4-2.9,2.1-4.3.1-.2.4-.3.6-.5,0,.3,0,.5,0,.8,0,.3,0,.6,0,.9.2-.2.5-.3.7-.5.2-.2.4-.4.5-.7.5-1,1.2-2,.3-3-.6-.8-.3-1.2,0-1.9.6-1.2,1-2.4,1.5-3.6,2-4.3,3.6-8.7,4.8-13.3,0-.4.3-.8.6-1.1.5-.5.6-1,.8-1.7.5-2.3,1.1-4.5,1.8-6.7.7-2.4,1.6-4.6,1.9-7.1.2-1.9,1.1-3.7,1.7-5.6,0-.2.1-.4.2-.6,0,.2.2.4.2.5-.2,2,0,4.1-.6,6.1-.9,2.8-1.1,5.9-2.9,8.5-.1.1-.1.5,0,.6.5,1.3-.2,2.5-.6,3.6-.9,2.3-1.6,4.6-2.5,6.8-1.3,3.2-2.7,6.4-4,9.6-.6,1.5-1.2,2.9-1.8,4.4,0,.2.1.5.2.8.2-.2.4-.3.5-.5.2-.3.3-.6.5-.9,1.1-2.5,2.3-4.9,3.3-7.4,1.9-4.6,3.8-9.1,5.4-13.8,1.7-5.3,3.1-10.7,4.5-16.1.1-.5.1-1.1-.7-1-.7.1-.6-.5-.6-.9,0-.7.5-.6.9-.2.7.5.8.2.9-.5.4-2.5,1-5,1.3-7.5.4-3,.8-6,.9-9.1.2-3.4,0-6.9,0-10.3,0-3.2.3-6.4,0-9.6-.2-3.2-.7-6.4-1.5-9.5-.2-.7,0-2-1.3-2.5M260.8,75.3c.5-.7,1.1-1.3,1.6-2,2.4-3.6,6-5.9,9.3-8.5,1.9-1.6,3.8-3.1,5.7-4.7.2-.2.3-.4.4-.6-.3,0-.5,0-.8,0-.4.2-.9.5-1.2.8-2.2,1.7-4.3,3.6-6.6,5.2-2.4,1.7-4.6,3.6-6.6,5.8-1.4,1.4-2.7,2.9-4,4.4-.6.6-1,1.4-1.6,2-1,1-1.9,2.2-3,2.9-.9.5-1.3,1.2-1.7,2-.2.3-.1.7-.3,1-1.6,2.2-3.2,4.4-4.8,6.6-2.2,3.1-4.2,6.4-6.4,9.5-4.2,6-7.4,12.6-11.1,18.8-1.5,2.6-2.9,5.3-4.3,7.9-.8,1.4-1.7,2.7-2.4,4.2-.7,1.6-1.6,3.4-1.8,5.1-.2,1.9-.8,3.4-2.2,4.7-1.2,1.1-2,2.5-2.5,4.2-.6,2.1-1.9,4.1-2.1,6.3,0,.6-.3.9-.8.5-1-.7-1.2,0-1.5.7-.8,2.2-1.7,4.4-2.5,6.6-.9,2.4-1.7,4.9-2.5,7.3,0,.2,0,.4,0,.6.1-.2.2-.3.4-.5,1.5-1.5,1.5-3.7,2.2-5.5,1-2.3,1.8-4.7,3.8-6.6,1.2-1.2,2.5-2.6,2.6-4.5,0-.5.2-1,.5-1.4,0-.2.4-.2.7-.3.2,1.1,1.1,1.3,2,1.6.2,0,.5.7.4.9-1.1,1.7,0,2.8,1.1,3.7,3.4,3,5.8,6.8,7.9,10.7,1.3,2.4,2.4,5,3.3,7.7,1.7,5.2,4.3,10.1,6,15.3,1.6,5.1,4.1,9.8,6.4,14.7,1.2,2.6,2.6,5.2,4.3,7.4,1.9,2.5,4.1,4.7,6.3,6.9,4.7,4.7,10.6,5.5,16.5,2.6,3.6-1.7,6.8-4,9.5-6.9,1.2-1.2,2.3-2.5,3.3-3.8,1.4-1.7,3-3.4,4.2-5.2,3.8-5.6,6.9-11.7,10.1-17.6,3.5-6.5,6.5-13.2,9.2-20.1,1.4-3.7,2.8-7.4,3.7-11.3,1.5-6,3.4-11.9,4.6-17.9,1-4.7,1.9-9.4,2-14.2.2-7.1.5-14.3-.7-21.5-.5-2.9-1-5.9-1.4-8.9-.6-4.1-1.4-8.1-2.7-11.9-2.3-6.8-5.3-13.2-10.7-18.3-2.5-2.3-5.3-3.9-8.4-4.6-2.3-.5-4.9-.2-7.2.4-3,.9-6.1,2.2-8.8,3.8-5,3-9.6,6.6-13.9,10.6-1.2,1.2-2.5,2.3-3.7,3.3M241.9,206.4c1,1.7,1.9,3.4,2.9,5.1.1.2.5.5.7.5.9-.1,1.3.6,1.8,1.1,1.3,1.4,2.6,2.8,3.8,4.3.3.3.2.9.3,1.4,0,.1-.1.2-.2.4,0,0-.2-.2-.3-.2-1.3-1.6-2.7-3.2-4-4.9-.3-.3-.5-.7-.8-1.1,0,.5-.2,1,0,1.5.1.5.4,1,.8,1.2,1.7,1.3,2.5,3.6,4.9,4,.3,0,.4.5.6.8,1.3,2.1,3.6,2.6,5.6,3.6.2,0,.4,0,.6-.1,0-.2-.2-.4-.3-.5-.6-.4-1.4-.7-2-1.2-1.2-1-2.9-1.4-3.3-3.5-.2-1.3-1.5-2.4-2.5-3.4-3.3-3.4-6-7.3-8.1-11.5-2.7-5.1-4.6-10.6-7.6-15.5-.2-.3-.4-.5-.5-.8-.1.3-.4.7-.4,1.1,0,.2.1.5.2.8,1.2,2.9,2.4,5.8,3.7,8.6,1.2,2.7,2.6,5.4,4.2,8.3M316.6,81.7c.8,1.9,1.6,3.7,1.8,5.8,0,.2.2.5.3.7,0-.3.1-.5.2-.8.3-2.7-1.3-4.9-1.8-7.4-.4-1.7-1.1-3.4-1.8-5.1-.9-2-1.8-4.1-2.9-6-1.2-2.1-2.6-4.1-4.1-5.9-1.5-1.7-3-3.6-5.3-4.5-.2,0-.4-.2-.6-.3,0,.3.1.5.2.8,0,.1.2.2.3.3,1.6,1.6,3.3,3.3,4.9,4.9,1.7,1.7,3,3.6,4.1,5.7,1.8,3.7,3.5,7.4,4.9,11.7M314.8,79.4c0,0,0-.1-.2-.2,0,0-.1,0-.1,0,0,.4,0,.8,0,1.2.3,1.1.9,2.2,1.1,3.3.7,4.1,2,8.1,2.3,12.3.2,3.1.9,6.2,1.3,9.3,0,.2.2.4.3.7,0-.2.2-.4.2-.6-.1-1.4-.4-2.7-.4-4.1,0-2.7-.4-5.3-.9-8-.8-4.7-1.7-9.4-3.7-14.1M303.6,187.1c-.6,1.2-1.1,2.4-1.7,3.5-1.6,2.9-3.3,5.7-4.9,8.5,0,.2,0,.4,0,.6.2,0,.5-.1.6-.3.7-1,1.5-1.9,2-3,1.6-3.1,3.6-6.1,4.6-9.5.1-.4.1-.4-.6.1M303.3,54.4c-.2,0-1,0-.4.4,2.2,1.5,4.1,3.2,5.9,5.1.1.1.3.1.5.2,0-.2,0-.5,0-.6-1.4-2.3-3.3-3.9-6-5.1M235.8,184.6c-.4-.1-.3-1-1.3-.6-1.1.4-.8,1.1-.7,1.7,0,.4.5.8.7,1.2.3-.4.7-.7,1-1.1.2-.3.3-.6.2-1.1M195.5,212.7c-.8,2-.9,4.1-.9,6.2,0,.3.1.5.2.8,0-.3.2-.5.2-.8,0-.4,0-.8,0-1.1.3-1.9.6-3.8.9-5.7,0-.3-.2-.6-.3-.9,0,.4-.1.7-.2,1.5M194.6,221.7c0-.2-.1-.4-.2-.6,0,0-.3.1-.3.2,0,.5,0,1,0,1.5,0,.3-.4.6-.4.9,0,.7.2,1.4.3,2.2.2-1.1.4-2.2.6-3.3,0-.1,0-.3,0-.9M193.4,234.1c0-1.5.2-2.9.2-4.4,0-.2-.2-.4-.2-.5,0,.1-.2.3-.2.4.2,1.5-.3,2.9.2,4.6M265.1,225.6c.4,0,.7,0,1.1,0,.1,0,.4-.2.4-.3-.2-.3-1.4-.2-1.5.3M219.3,137.5c.2.2.4.5.5.7.1-.1.2-.3.4-.4-.3-.2-.6-.5-.9-.2M196.4,206.4c0,.2,0,.4,0,.7,0,.1.2.3.3.4.3-.3.2-1.1-.3-1.1M296.4,201.5c0-.2-.1-.4-.2-.6-.2.3-.5.6-.7.9,0,0,.1.2.2.4.2-.1.3-.3.7-.7M295.7,54.4c-.2,0-.4,0-.6.1.2.2.5.5.7.7,0-.2,0-.4-.1-.8M271.1,223.5c.1-.1.3-.3.4-.4-.2,0-.5-.1-.7-.2,0,.3,0,.6.3.6M192.8,236.2c0,.1,0,.3,0,.4,0,.2.2.4.3.7,0-.2.2-.4.2-.6,0-.3-.1-.5-.4-.5M301.3,54.2c.2,0,.5.1.7.2,0,0,0-.2,0-.3-.2,0-.4,0-.8.1M264.8,222.6c-.2,0-.5-.1-.7-.2,0,0,0,.2,0,.3.2,0,.4,0,.8-.1M313.9,77.1c0-.2,0-.4-.1-.6,0,0-.3,0-.3,0,0,.2.1.5.4.5M319.3,109.6c0,0,.2.1.3.2,0-.1,0-.3-.3-.2M193.7,227.6c0,0,.2.1.3.2,0-.1,0-.3-.3-.2M274.3,223.5c0,0-.2-.1-.3-.2,0,.1,0,.3.3.2M256.7,221.3c0,0,.2.1.3.2,0-.1,0-.3-.3-.2Z"/>
    <path d="M304.6,249.9c-.2-2.9,0-5.8.7-8.6.4-1.6.2-3.3.5-5,.4-2.2.5-4.5,1.4-6.6.2-.4.3-.8.3-1.2,0-2.8.6-5.5,1.3-8.2.3-.9.5-2,.4-2.9-.1-.9-.7-.3-1.2,0,1-2.4,1.3-5,1.9-7.5,1-4,2.6-7.9,3.7-11.9.7-2.7,1.7-5.1,2.9-7.6.1-.3.3-.5.4-.7.7-1,1.9-1.8,2.1-2.9.3-1.1.3-2.4.7-3.5.7-1.6,1.4-3.2,2.1-4.8,1-2.3,2.3-4.5,3.1-6.8.7-2.2,1.8-4.1,3-6,1.1-1.8,2-3.5,2.2-5.7.1-1.6,1.2-3.2,2-4.7.2.5.3.8.4,1.2.5-.9,1-1.8,1.5-2.7,0,0-.1-.2-.2-.4-.4.5-.8,1.1-1.2,1.6,0,0-.2.1-.4.2-.4-1.2.6-1.9,1.2-2.6,1.5-1.9,2.5-4.1,3.8-6.1,2.2-3.5,4.3-7.1,6.5-10.6,1.8-2.9,3.7-5.7,5.7-8.5,1.3-1.9,2.8-3.6,4.2-5.5,6.3-8.3,13.6-15.6,21.1-22.8,2.2-2.1,4.7-3.8,7.1-5.6,1.9-1.4,3.7-2.9,5.7-4.1,3.4-2,6.8-4.2,10.8-4.9,2.2-.4,4.4-1,6.7-1.3,3.2-.4,6.3.3,9.3,1.5,1.8.7,3.7,1.2,4.9,2.8,1.3,1.6,2.5,3.2,3.8,4.7.2.3.7.4,1.1.5.7.2.9.6.9,1.3,0,.5.4,1.1.4,1.6-.3,2.6,1.4,4.5,2,6.9.5,2.1,1,4.3,1.3,6.5.3,2.2,0,4.5.8,6.6.2.5,0,1,0,1.6,0,3.1,0,6.2,0,9.2-.1,5,0,10-.5,14.9-.3,3.2-.2,6.4-1.2,9.6-.5,1.6-.3,3.5-.5,5.2-.4,2.8-.9,5.6-1.3,8.4-.2,1.4-.7,2.7-.9,4.1-.7,4.4-1.5,8.8-2.7,13.1-.8,3-1.2,6.1-1.9,9.1-.6,2.6-1.6,5.2-2.2,7.9-1.1,4.6-2.5,9.2-4.1,13.6-1.3,3.7-2.5,7.5-4.1,11.1-1.1,2.5-2.2,5.1-3.7,7.5-1.5,2.3-2.9,4.7-4.3,7,0,0,0,.1-.1.2-2.8,3.1-5.6,6.3-8.5,9.3-.8.9-2,1.4-3,2-.2.1-.4.1-.6.2-.4.5-.9.9-1.3,1.4,1,.6,1-.6,1.6-.8.7-.3,1.3-.7,1.9-1.1,0,1.1-.9,1.2-1.5,1.8-4.1,3.5-9,5.1-14,6.5-3.5,1-7.1,1.9-10.9,1.5-3.5-.4-7-1-10.3-2.3-5-2-9.1-5.2-12.6-9.1-2.7-3-5-6.3-7.3-9.6-2.5-3.6-4.9-7.4-7.2-11.2-1-1.5-1.8-3.2-2.5-4.8-.8-1.7-1.8-3.2-3.2-4.5-.7-.6-1.2-1.4-1.7-2.2-.2-.3-.2-.8,0-1.2.1-.3.5-.8.9-.1.1.2.1.5.3.5.4.3.9.4,1.3.7-.2-.4-.3-.7-.5-1.1-.2-.3-.6-.5-.7-.8,0-.3,0-.7.2-1,.3,0,.6.1.8.3.3.2.5.5.8.8.1,0,.3,0,.5,0,0-.1,0-.3,0-.4-.1-.3-.4-.5-.4-.7,0-.4,0-.9.1-1.3.2.3.4.7.7,1,.2.2.5.2.9.4.3.1.4.1.5.1-.1,0-.3-.2-.4-.3,0-.7,0-1.5.9-.6,1.4,1.5,2.9,2.9,4,4.6,1.9,2.9,3.6,6,5.5,9,1.3,2,2.7,3.8,4.1,5.7,1.3,1.9,2.7,3.9,4,5.8.7,1,1.3,2,2.1,3,2.7,3.2,5.4,6.4,9,8.6,2.4,1.5,4.9,3.2,7.6,3.9,2.4.6,5,1.1,7.7.3,1.9-.5,4.1-.6,6-1.2,3.2-1.1,6-2.7,8.6-4.7,3.4-2.6,6.4-5.7,9-9.2,3.6-4.7,6.6-9.8,9.1-15.2,1.3-2.9,2.3-5.9,3.4-8.9.7-1.8,1.2-3.5,1.9-5.3.2-.7.4-1.3.6-2,.8-2.7,1.7-5.3,2.5-8,.2-.7.2-1.4.4-2.1.6-1.9,1.3-3.8,1.8-5.8.5-2.1.9-4.3,1.4-6.4.5-2.5,1-5,1.6-7.5.2-1.2.5-2.4.7-3.5.6-3.7,1.2-7.3,1.8-11,.4-2.5.6-5,.9-7.5.3-3.1.5-6.2.9-9.3.5-3.3.5-6.7,1-10,.6-4.4.2-8.7.3-13.1,0-2.8,0-5.6-.5-8.4-.6-4.3-1.1-8.6-2.6-12.6-1.7-4.3-3.9-8-8.5-9.9-3.2-1.4-6.5-1.4-9.9-.8-2.4.4-4.6,1.3-6.9,1.8-2.9.6-5.3,2.5-7.7,4.1-4.1,2.8-8,5.9-11.8,9-2.6,2.2-5.1,4.5-7.4,7.1-3.8,4.4-7.8,8.5-10.9,13.5-2.4,3.9-5.4,7.4-7.9,11.2-2.7,4.2-5.4,8.4-7.8,12.8-3.9,7.1-7.7,14.2-11.1,21.5-2.2,4.7-4.5,9.4-6.1,14.4-1.3,4.1-3.1,8-4.6,12-.2.5-.3.9-.6,1.4-.3-2.1.8-3.8,1.4-5.7,1.5-4.6,3.1-9.1,4.9-13.5,1.3-3.1,2.9-6,4.4-9,1.8-3.7,3.6-7.5,5.4-11.3,1.9-3.8,4.1-7.5,6.2-11.2,3.3-5.9,7.1-11.3,10.7-16.9.6-.9.9-2.1,1.7-2.9.7-.7-.5-1.6.6-2.1.7-.3,1.2-1.1,1.7-1.7,2.7-3.1,5.3-6.2,8-9.3,2.3-2.6,4.4-5.3,6.9-7.7,2.9-2.8,6.2-5.4,9.3-8,1.8-1.6,3.8-3,5.5-4.7,1.3-1.3,3-1.8,4.5-2.8,1.5-1,3.1-1.8,4.7-2.7.3-.2.7-.3.9-.5.4-.5.7-1,1-1.6-.6.2-1.2.2-1.7.5-4.4,2.7-8.9,5.1-13,8.4-2.3,1.8-4.5,3.7-6.6,5.8-2,2-4.2,3.7-6.1,5.8-3.5,3.8-7.2,7.3-10.2,11.5-.3.4-.6.7-.9,1-2.9,2.7-5.1,5.9-7.3,9.1-.2.2-.4.5-.4.7,0,2.5-1.7,4.3-3.1,6.1,0-.4.2-.7.3-1,0-.1,0-.3,0-.4-.2,0-.4,0-.5,0-.6,1.3-2,2.2-2.3,3.8-.1.1-.1.3-.1.4,0-.1.2-.3.4-.4.5-.3.9-.6,1.2-.9-.5.9-.8,1.9-1.4,2.8-2.6,4.2-5.4,8.3-7.8,12.5-1.9,3.3-3.5,6.8-5.2,10.2-2.6,5.2-5.3,10.4-7.6,15.8-1.3,3-2.3,6.1-3.3,9.2-1,3.1-2.2,6.2-3.2,9.3-1.9,5.8-4,11.6-5.7,17.5-1,3.5-1.6,7.2-2.3,10.8-.5,2.7-1.3,5.4-1.4,8.2,0,1.4-.7,2.7-1,4.1-.3,1.3-.6,2.6-.8,4-.4,2.8-.8,5.5-1.2,8.3M411.2,87.5c.1,0,.3,0,.4,0-.1,0-.3-.2-.4-.5-.6,0-1.2-.2-1.8-.5-.7,0-1.4-.2-2.1-.2-.3,0-.7.1-1,.2.3,0,.6.2.9.2.7,0,1.5,0,2.2.2.6,0,1.2.2,1.8.5M415.7,88.9c-.2,0-.5-.1-.7-.2,0,0,0,.2,0,.3.3,0,.5,0,.8.3.6.4,1.2.8,1.8,1.4.9.6,2,.8,2.5,2,.4,1,1.3,1.7,2,2.5.1.1.4.1.6.2,0-.2.3-.6.2-.7-.6-.9-1.4-1.6-2-2.5-.8-1.2-1.8-1.9-3.3-1.9-.6-.4-1.2-.8-1.8-1.4M402.4,235.5c.4-.8.8-1.5,1.4-2.3,0-.3.2-.6.5-.9.4-.7.8-1.5,1.3-2.2,2.2-2.7,3.1-6,4.2-9.1,1.3-3.6,2.7-7.2,3.9-10.8,1-2.9,2.4-5.7,2.9-8.7.6-3,1.7-5.8,2.3-8.7.9-3.9,1.8-7.8,2.7-11.7.4-1.8.9-3.5,1.2-5.3.4-1.9.7-3.8,1-5.7.3-2.3.3-4.8,1-7,.6-2.2,1-4.4,1.3-6.7.2-1.4.2-2.8.5-4.1.9-3.4,1.1-6.8,1.3-10.2,0-.9-.3-1.9,0-2.7.6-1.5.2-2.9.4-4.3.1-1.4.5-2.9.4-4.3-.1-4.4.4-8.7-.4-13.1-.4-2.1,0-4.2-.5-6.3-.5-2.4-.5-4.9-1-7.3-.4-2-1.1-3.9-2-5.7,0-.2-.3-.3-.5-.4,0,.2-.2.4-.2.6.2.7.3,1.4.6,2,1.6,3.9,2.1,8.1,2.5,12.2.4,4.3.4,8.6.5,12.9,0,2.7.3,5.4-.4,8.1-.2.9-.3,1.8,0,2.8.2,1.4.3,3,0,4.4-.7,2.7-1.1,5.5-1.4,8.3,0-.9-.5-2.1-.1-2.8.7-1,0-1.8.2-2.7.2-1.2.6-2.4.6-3.6.1-4.8-.1-9.6.4-14.4.2-1.5-.3-3-.4-4.5-.2-2.3,0-4.7-.3-7-.3-2.7-.6-5.4-1-8.2-.4-3.1-1.8-5.8-3.1-8.6-.3-.6-.7-1.1-1.1-1.6-.3-.3-.7-.4-1.1-.6,0,.4,0,.8.3,1.1.7,1.4,1.7,2.6,2.2,4,1.6,4.3,2.1,8.9,2.3,13.5,0,.5,0,1.1,0,1.6.3,2.4.7,4.7.9,7.1,0,1.2-.3,2.4-.4,3.6-.2,4.9-.3,9.8-.5,14.7,0,2.3-.3,4.7-.4,7,0,.1,0,.3,0,.4-.8,1.8-.8,3.8-.9,5.7-.1,2.8-.4,5.7-.7,8.5,0,.6.1,1.1-.2,1.8-.5,1.2-.7,2.6-.9,3.9-.2,1.3-.3,2.7-.6,4-.4,2-.9,4-1.2,6-.5,2.5-.9,5-1.7,7.4-.5,1.5-.7,3-1,4.5,0,.2,0,.4.1.6.1-.2.2-.4.3-.6.5-1.1.9-2.2,1.4-3.1,0,.4,0,.8,0,1.1-1,3.5-2,7.1-3.2,10.6-.6,1.7-1.1,3.4-1.4,5.3-.3,2-1.3,3.9-2.1,5.9-1.1,2.7-2.3,5.3-3.5,8-1,2.3-2.9,3.9-3.7,6.3-.8,2.2-2.2,4.2-3.2,6.3-1.6,3.2-3.2,6.4-6.2,8.7-.8.6-1.3,1.5-1.9,2.3,0,.1,0,.4,0,.6.1,0,.2,0,.3-.1,2.2-2.2,4.7-4.2,6.6-6.7,2.8-3.7,4.7-8.1,6.9-12.2.4-.7.5-1.4.8-2.1,0-.1.3-.2.5-.3,0,.1.2.3.1.4-.5,1.4-1,2.7-1.6,4-1.1,2.4-2.2,4.8-3.5,7.2,0,.3-.2.6-.5.9-.4.8-.8,1.5-1.4,2.3-.2.4-.5.7-.7,1.1,0,0,.2.2.3.2.2-.4.4-.9.9-1.3M410.1,207.1c-.7,1.7-1.6,3.3-2,5-.5,2.1-1.1,4-2.1,5.9-.3.5-.4,1-.6,1.6,0,.2.1.4.2.6,0,0,.2-.2.3-.3.6-1,1.2-1.9,1.6-2.9.9-2.3,1.7-4.6,2.4-6.9.3-.9.3-2,.7-3,.6-1.2,1.4-2.3,1.1-3.8,0-.2-.2-.5-.3-.7-.1.3-.2.5-.3.8-.3,1.2-.5,2.5-1,3.7M423.4,126.7c0,4.3.1,8.6-.4,12.9-.3,2.2,0,4.5-.5,6.5-.7,2.7,0,5.5-.8,8.2-.5,1.7-.1,3.7-.6,5.4-.3,1.2,0,2.4-.4,3.4-.8,2.3-.7,4.8-1.3,7.1-.5,2.1-.5,4.3-1,6.4-.6,3-1.5,6-2.2,9-.7,2.7-1.2,5.5-1.9,8.2-.5,2.1-1.2,4.2-1.7,6.3,0,.3.3.6.4.9.2-.2.5-.4.6-.7.3-.8.4-1.6.7-2.4.5-1.8,1.1-3.5,1.4-5.3.6-3.7,1.7-7.2,2.6-10.9.8-3.1,1.4-6.2,1.9-9.3.5-2.9.7-5.8,1.3-8.7.7-3.5,1.2-7.1,1.4-10.7.2-3.4.6-6.7.9-10,.4-4.2.4-8.4.5-12.6,0-1.5-.2-3,.4-4.6.3-.9.1-1.9,0-2.9-.2-2.2-.9-4.4-.8-6.6,0-4-1-7.7-1.4-11.6,0-.3-.1-.5-.2-.8,0,.3-.2.5-.2.8.1,1.8.2,3.6.5,5.4.5,2.9.8,5.9.9,8.9,0,2.4,0,4.8,0,7.7M315.1,199.9c.2-.7.4-1.3.6-2,.8-2.2,1.5-4.3,2.3-6.5,0-.1,0-.3,0-.4,0-.3-.2-.7-.2-1-.1.3-.2.5-.3.8-.6,1.3-1.2,2.7-1.7,4-1.4,4.5-2.7,9.1-4.1,13.6-.5,1.7-.9,3.4-1.3,5.1,0,.2.1.5.2.8,0-.3.1-.5.2-.8,1.1-2.3,1.5-4.8,2.2-7.2.6-2.1,1.2-4.2,2-6.5M326.5,214.1l-.8-.6c0,.3,0,.6,0,.7.8.8,1.5,1.6,2.3,2.4.1.1.3.2.5.3,0-.3.2-.7.1-.8-.6-.6-1.3-1.2-2.2-2M370.9,257.1c.3,0,.7,0,1-.1,0-.2-.2-.4-.3-.4-.6,0-1.3,0-1.8.4.2,0,.4,0,1,.1M418,93.4c0,0,.2.1.3.2,0-.1,0-.3-.3-.2M330.1,220.4c0,0,.2.1.3.2,0-.1,0-.3-.3-.2M341.2,143.6c0,0,.1-.2.2-.3-.1,0-.3,0-.2.3M331,221.3c0,0-.2-.1-.3-.2,0,.1,0,.3.3.2Z"/>
    <path d="M543.6,160.1c1.5-2.3,2.5-4.8,4.3-6.7,1.5-1.6,2.5-3.2,3.1-5.3,0-.2.1-.5.3-.6,1.3-.8,1.5-2.5,2.4-3.5,1.6-1.7,2.5-4,3.8-5.9,1.6-2.3,3.1-4.7,4.8-7,.7-.9.7-2.4,2.2-2.7,0-2.1,1.6-3.6,2.6-5.2,1.6-2.5,3-5.1,5-7.4,2-2.3,3.5-5,5.8-7.1.3-.3.5-.8.7-1.3,0-.2,0-.6-.1-.8-.2.2-.5.3-.6.5-1.5,1.6-3,3.2-4.4,4.9-.3.4-.4,1-.7,1.5-.1.3-.2.7-.5.9-2.7,1.7-3.8,4.7-5.7,7.1-1.2,1.6-2,3.5-3.1,5.2-.7,1.1-1.6,2.2-2.4,3.3-1,1.4-2.1,2.9-3,4.4-1.6,2.7-3,5.4-4.7,8-3.3,4.9-6.3,10-9.5,15-.9,1.4-2.2,2.7-3.1,4.1-2.2,3.2-4.2,6.5-6.3,9.8-1,1.5-2,3.1-2.6,4.8-.3.6-.9,1.1-1.4,1.6-1.3,1.5-1.5,3.7-3.2,5-.2.2-.4.3-.6.4,0-.3,0-.5.1-.8,1.1-1.9,2.1-3.8,3.3-5.6,1.5-2.1,2.5-4.7,3.9-6.9,2.3-3.7,4.9-7.3,7.3-11,1.2-1.8,2.4-3.7,3.5-5.5,1.8-3.1,3.6-6.3,5.4-9.5.8-1.3,1.7-2.4,2.6-3.7.2-.3.4-.6.6-.9,2.6-4.6,5.6-9,8.6-13.3,2.8-4,5.7-8,8.5-12,2.1-2.9,4.2-5.8,6.4-8.6,1.6-2,3.3-3.9,4.9-5.8,1-1.2,2-2.4,3-3.5.6-.6,1.4-1.1,2-1.7.9-.9,1.7-1.8,2.6-2.7.6-.6,1.2-1.2,1.8-1.8.3-.3.6-.7.9-1.1-.5,0-1-.3-1.4-.2-2.4.4-4.7,1-7,1.5-1.8.4-3.6.9-5.4,1.2-2.9.5-5.7,1.3-8.5,1.7-4.2.6-8.2,1.7-12.3,2.5-3.2.6-6.5,1.4-9.7,2.1-1.1.2-2.1.6-3.2.9-2.9.7-5.8,1.2-8.6,2-3.3.9-6.5,2.2-9.8,2.9-4.3,1-8.5,2.3-12.7,3.7-5.5,1.8-11,3.5-16.4,5.4-5,1.8-9.9,4.1-14.8,6.1-5.4,2.2-10.7,4.6-15.9,7.3-5,2.6-10.1,5.3-14.6,8.8-4.3,3.4-7,7.9-6.4,13.7.3,2.3,1.1,4.6,2,6.8,1.5,4,3.8,7.4,6.5,10.6,1.1,1.3,2.1,2.7,3.4,3.8,3.4,2.8,6.5,5.9,10.3,8.2,1.6,1,3.2,2.1,4.8,3.1.5.3.9.8,1.3,1.1.9.7.4.9-.4,1.3-.5.2-.9.5-1.1,1.3-.2,1.3-2.1,1.5-4,1-2.6-.7-4.4-2.4-6.5-3.9-2-1.5-4.1-2.9-5.9-4.6-2.9-2.8-5.5-5.9-8.3-8.7-2-2-3.4-4.2-4.8-6.6-1.4-2.4-2.5-4.8-3.4-7.4-.8-2.2-.7-4.3-.8-6.4-.1-2.3.5-4.4,1.6-6.3.7-1.2,1.4-2.2,2-3.5.4-.9.6-1.4,1.7-.7.3.2,1.3-.5,1.9-.8.2-.1.3-.4.5-.7.5-.9,1.9-1,1.7-2.4-.7.6-1.4,1.2-2.1,1.9-.3.3-.5.5-.8.8-.3.3-.6.6-1,.7-.3,0,0-1.3.3-1.6,1-.8,2.1-1.6,3.1-2.4.5-.4.9-.7,1,.2,0,0,.4,0,.5,0,3.1-2.1,6.2-4.2,9.4-6.2,1.3-.8,2.8-1.3,4.1-1.9,1.3-.6,2.7-1.2,4-1.8,4.2-1.8,8.3-3.5,12.5-5.2,4.2-1.7,8.4-3.3,12.6-4.9,2.3-.9,4.7-1.6,7-2.6,4.1-1.7,8.5-2.4,12.5-4.1,2.3-1,4.6-1.5,6.9-2.4,1.6-.7,3.5-.6,5.2-1.1,2.6-.7,5.1-1.6,7.6-2.3,2-.6,4-1.2,6.1-1.7,1.5-.4,3.2-.3,4.5-1,1.6-.9,3.3-.8,4.9-1.2,2.9-.6,5.7-1.7,8.6-2.2,2.6-.4,5-1.7,7.6-1.7.1,0,.3,0,.4-.1,0-.2-.1-.4-.2-.6,0,0-.1,0-.2,0-.6,0-1.2-.1-1.7-.2.6-.2,1.1-.3,1.7-.5,1.2-.3,2.4-.5,3.5-.7.3,0,.7,0,1-.3,2.1-1.3,4.4-1.3,6.8-1.6,1.5-.2,2.9-.6,4.3-.9,1.4-.3,2.8-.5,4.2-.8,1.3-.3,2.6-.6,3.9-.9,1.7-.4,3.4-.9,5.1-1.4.5-.1.9-.3,1.3-.6.2-.1.3-.4.4-.6-.3,0-.5,0-.8,0-2.7,1.1-5.5,1.8-8.4,2.1-1.2.1-2.5.5-3.7.9-.8.3-1.4.3-2.1,0-.3-.2-.7-.2-1.1-.3.4,0,.7-.2,1.1-.2,1.8,0,3.4-1,5.3-1,2.2,0,4.3-.7,6.4-1.3,2.6-.7,5.2-1.5,7.8-2.3.4-.1.8-.4,1.2-.3,1.2.2,3.2,0,4.1-.4.2,0,.4,0,.6,0,0,.2-.2.3-.2.5-.9,1.4-.9,1.6.9,1.6,1.2,0,.9.3.5,1.2-1.3,2.2-2.6,4.4-5,5.6-.5.3-.9.7-1.3,1.1-3.3,3.3-6.7,6.5-9.8,9.9-2.3,2.5-4.7,5.1-6.4,8.1-.5.9-1.2,1.6-1.9,2.4,0,.1-.4,0-.6,0,0-.2,0-.3.2-.5.5-.8,1-1.5,1.4-2.3,0-.1,0-.4,0-.6-.2,0-.4.1-.5.3-1.3,1.7-2.6,3.4-3.8,5.2-.2.4.3,1.2,0,1.6-1.4,2.5-2.5,5.2-5.1,6.8-.5.3-1.3.8-1.3,1.1.5,1.8-1,2.1-1.9,2.8-1.1.9-1.5,2.2-2.2,3.4-1.7,2.8-3.6,5.4-5.2,8.2-.8,1.4-2.1,2.5-2.5,4.2-.1.6-.9,1-1.4,1.5-.7.7-1.7,1.3-1.3,2.6,0,.3-.3.6-.4.9-1.8,2.9-3.5,5.8-5.4,8.5-1.4,2-2.2,4.3-3.8,6.1-.1.1-.4.2-.6.2,0-.2,0-.4.1-.6.7-1.1,1.4-2.3,2-3.4,0-.1,0-.4,0-.6-.2,0-.4.1-.5.3-.8,1.2-1.6,2.5-2.4,3.7-.2.3-.3.7-.5.9-.2.2-.5.3-.7.4,0-.3.1-.5.2-.8,0-.3.1-.7.3-1.1M461.2,175.3c-.1,0-.3,0-.4,0,.1,0,.3.2.4.5.1,0,.3,0,.4,0-.1,0-.3-.2-.4-.5M547.9,155.8c0-.2.2-.3.5-.5,0-.1,0-.3,0-.4,0,.1-.2.3-.5.4,0,.2-.2.3-.5.5v.4c0-.1.1-.3.5-.4M586.7,96.7c.4-.2.7-.4,1.1-.6.2-.1.3-.4.4-.6-.3,0-.6,0-.7.1-.4.3-.6.8-1.2,1.1,0,.2-.2.3-.5.5-.6.6-1.2,1.1-1.7,1.8-1.5,1.6-2.9,3.3-4.3,5-.2.2-.2.6-.3.9.4,0,1,0,1.2-.2,1.5-1.7,2.9-3.4,4.3-5.2.5-.6.8-1.5,1.4-2.2,0-.2.2-.3.5-.5M440.1,144.3c-.9,1.1-.9,2.3-.9,3.6,0,.2.1.4.2.6.1-.2.2-.4.3-.7.4-1.3.7-2.5,1.1-3.8.2-.6.2-1.2.4-1.8-.8.3-.9.9-1.1,2M441.4,157.3c-.2-.6-.3-1.2-.5-1.8-.4-1.1-.7-2.2-1.1-3.3,0-.2-.3-.3-.5-.4,0,.2-.2.5-.2.6.8,1.7.5,3.8,2.2,5M574.5,116.6c.2-.3.4-.5.6-.8-.3,0-.6,0-.7,0-.8.8-1.5,1.7-2.2,2.6-.2.2,0,.7,0,1,.3-.2.6-.2.8-.5.5-.7,1-1.5,1.6-2.5M601.3,83.9s0,.1.1.1c0,0,0,0,.1,0,0-.3,0-.6-.1-.8-.1.2-.3.3-.2.7M569.1,90.9c-.2,0-.4,0-.6.1.1.1.2.3.4.3.4,0,.5,0,.2-.4M597.7,83c0,.2,0,.4.1.6,0,0,.3,0,.3,0,0-.2-.1-.5-.4-.5M566.6,91.6c0,0,.2.1.3.2,0-.1,0-.3-.3-.2M573.2,90.4c0,0,.1-.2.2-.3-.1,0-.3,0-.2.3Z"/>
    <path d="M460.4,351.3c-.3-.2.3-1-.6-.7-1.1.4-2.1.9-3.2,1.5-.2.1-.6,0-.6.1-.2,1.5-1.4,1.6-2.5,2-4,1.4-7.6,3.4-11.4,5.2-3.4,1.6-7,2.9-10.2,4.7-4.6,2.7-9.7,4.6-14.2,7.7-1.7,1.2-3.8,2-5.8,2.9-4.3,2.1-8.1,5.1-12.2,7.5-.1,0-.2.3-.3.5.2,0,.5.2.6.1,2.1-1.1,4.1-2.3,6.2-3.5,3.4-1.8,6.7-3.7,10.1-5.5,3.3-1.8,6.7-3.5,10-5.2,3.7-1.9,7.4-3.8,11.1-5.7.3-.1.6-.2.9-.3-.2.3-.3.6-.6.8-2.5,1.4-5,2.7-7.5,4.1-.2.1-.3.3-.5.4,0,0-.1.2-.2.3.1,0,.3.2.4.2.9-.3,1.8-.5,2.5-.9,2-1.1,4-2.3,6-3.4.9-.5,1.7-.9,2.6-1.3,2.7-1.2,5.4-2.5,8.2-3.7,3.8-1.6,7.5-3.2,11.3-4.8,2.8-1.2,5.6-2.5,8.4-3.6,2.8-1.1,5.6-2.1,8.4-3.1,4.7-1.6,9.4-3.1,14.1-4.6,4.5-1.4,8.9-2.7,13.4-4,2-.6,4-1,6.2-.9.5,0,1,.2,1.4.3.4.1.7.3,1.1.5-.4.2-.7.4-1.1.5-1.5.3-3.1.4-4.6,1-3.5,1.3-7.1,1.9-10.6,3.1-2.2.8-4.5,1.5-6.7,2.2-.4.1-.9,0-1.5,0,1.5-.7,3.2-1.2,4.8-1.9.9-.4,2.2,0,2.9-1.1.9-.2,1.8-.2,2.6-.5,1.8-.5,3.6-1.2,5.5-1.8.3,0,.5,0,.7,0,.2,0,.3-.2.4-.3-.1,0-.3-.2-.3-.2-.3.1-.6.3-1.1.4-2.9.2-5.5,1-8.1,2.3-1.3.3-2.5.4-3.6.8-1.8.6-3.6,1.4-5.5,1.9-3.4.9-6.7,1.9-9.9,3.6-.1.1-.1.3-.1.4,0-.1.2-.3.4-.4,2.2,0,4-1.2,5.9-1.8,1.7-.6,3.4-1.3,5.3-1.3-1.4,1.3-3.4,1.5-5,2.2-2.9,1.2-6,2.1-9.1,3.1-2.8,1-5.6,2.1-8.3,3.2-3,1.2-5.9,2.5-8.9,3.5-1.8.6-3.4,1.5-5.3,2-1.2.3-2.5,1.1-3.8,1.7-1.9.9-3.8,2.1-5.7,3-3.9,1.8-7.9,3.3-11.8,5.1-4.2,1.9-8.3,4-12.4,6-4.7,2.4-9.2,5.1-13.7,7.7-3.7,2.1-7.3,4.4-11,6.5-3.1,1.8-6.1,3.8-9.1,5.7-1.5.9-3.1,1.7-4.7,2.3-.3.1-.7.9-1.2.2-.4-.6-.9-1.1-.4-2,.6-.9.8-2.3,2.3-2.2.1,0,.3-.1.4-.2-.1-.2-.2-.4-.4-.5-.3-.1-.8-.4-1-.2-1.4.7-3.5.2-4.2,2.2,0,.2-.3.3-.5.4,0-.2-.2-.4-.2-.6,0-.7.3-1.3.5-2,1.2-3.1,3.8-4.8,5.8-7.1,2.8-3.2,5.5-6.4,8.3-9.6.2-.2.4-.4.6-.6,3.7-3.5,6.7-7.5,9.7-11.5,1.1-1.4,2.3-2.6,3.5-4,1.4-1.6,2.7-3.2,4-4.9,1.4-1.7,2.6-3.6,4-5.3,2.2-2.8,4.4-5.7,6.7-8.5.4-.5.8-.9,1.4-1.3,0,.3,0,.6,0,.8-2.2,3-4.4,6-6.7,8.9-2.8,3.6-5.6,7.2-8.4,10.7-2.5,3.1-5.4,6-7.7,9.2-1.6,2.3-3.6,4.3-5.5,6.3-1.1,1.1-2,2.3-3,3.5-.2.3-.2.7-.3,1.1.3-.1.7-.2.9-.4,1.2-1.3,2.5-2.7,3.7-4.1.9-1,1.7-2,2.5-3,3.8-4.2,7.5-8.4,11-12.8,2.4-3,4.6-6.3,7.1-9.2,2.8-3.3,5-6.9,8-10,.2-.2.5-.3.8-.4,0,.3-.1.5-.3.8-.6.9-1.2,1.9-1.9,2.8-1.3,1.8-2.7,3.5-4.1,5.3-1.4,1.8-3,3.4-4.1,5.3-1.7,2.7-4.3,4.6-5.8,7.4-.8,1.5-2.2,2.7-3.4,4-2.9,3.2-5.6,6.6-8.7,9.7-1.6,1.6-3.1,3.4-4.7,5-1.3,1.3-2.6,2.7-4,3.9-.5.5-1.2.7-1.8,1.1-.7.4-1.3.9-1.9,1.3,0,0,0,.3,0,.5.2,0,.3,0,.4,0,3.1-1.6,6.2-3.2,9.2-5,1.5-.9,2.7-2.3,3.9-3.6,1.6-1.7,3-3.6,4.5-5.3,2.9-3.5,5.7-6.9,8.6-10.4,1.6-1.9,3.2-3.8,4.8-5.7.4-.4,1.8-3.9,2.2-4.5.7-1.1,1.7-2,2.6-3,.9-1,1.9-1.8,2.8-2.9,1.5-1.8,2.9-3.7,4.4-5.6,1.9-2.4,3.7-4.8,5.6-7.2,1-1.3,2.2-2.5,2.8-4.3.2-.8,1.4-1.2,1.8-1.9.6-1,1.1-2,2.2-2.7,1.1-.7,1.8-1.9,2.6-2.9,1.8-2.6,3.4-5.2,5.1-7.8,1.7-2.5,3.8-4.7,5.3-7.3,1.6-2.5,3.7-4.6,5-7.4,1.2-2.3,3-4.3,4.4-6.5,1.1-1.8,2.6-3.1,3.8-4.7,1.2-1.5,2-3.4,3-5,.8-1.3,1.3-2.8,2.8-3.6.7-.3,1-1.5,1.5-2.2,0-.1.3-.2.5-.3,0,.2.2.5.1.6-.4.7-.7,1.5-1.3,2.2-.7.9-1.3,1.8-1.9,2.8-1.9,3-4,5.9-6,8.8-2.5,3.6-4.9,7.3-7.4,10.9-3,4.3-6.1,8.6-9.1,12.9-2.6,3.7-5.3,7.4-7.9,11.1-1.3,1.8-2.4,3.8-3.7,5.7-.8,1.1-1.9,1.9-2.7,2.9-1.9,2.4-3.7,4.9-5.6,7.4-1.4,1.9-2.9,3.8-4.3,5.7-2.1,2.9-4.2,5.8-6.4,8.6-1.5,1.9-3.1,3.7-4.6,5.5-1.6,2-3.2,4.1-4.8,6.1-1.6,1.9-3.1,3.8-4.8,5.7-.8.9-1.8,1.8-2.7,2.7-.3.3-.4.8-.5,1.2.4,0,.9,0,1.2-.2,4.2-2.2,8.4-4.3,12.6-6.5.9-.5,1.8-.9,2.5-1.4,2.4-1.8,5.3-2.6,7.8-3.9,3.4-1.8,6.9-3.3,10.2-5.2,4.5-2.6,9.3-4.3,13.9-6.6,4.8-2.4,9.7-4.5,14.6-6.5,3.4-1.4,7-2.3,10.3-3.8,2.9-1.3,5.9-2.2,8.8-3.2,4.7-1.6,9.5-3.3,14.2-4.8,2.5-.8,4.9-1.6,7.4-2.3,3.6-.9,7.2-1.8,10.8-2.8.8-.2,1.7-.4,2.5-.4,1.9.2,3.5-1.4,5.5-1.1.5,0,1.2-.6,1.8-.9.2,0,.3-.2.5-.3,0,.2.1.4.1.6,0,.4,0,.8,0,1.1,0,2.6,0,2.4-2.6,3.2-2.9.9-5.9,1.7-8.8,2-2.9.3-5.5,2-8.4,2-.6,0-1.2.6-1.9.8-1.6.5-3.2.9-4.8,1.4-1.3.3-2.6.5-3.9,1-3.5,1.3-7.1,2.5-10.7,3.6-4.1,1.2-7.9,3-11.9,4.5-4.1,1.6-8.1,3.2-12.1,5-4.8,2.1-9.5,4.3-14.2,6.5-.9.4-1.9.7-2.9,1,.2-1.3,1.6-1.2,2.4-1.7,2.3-1.4,4.8-2.6,7.3-3.6,3.6-1.6,7.3-3.1,11-4.5,4.5-1.8,9-3.6,13.6-5.2,2.2-.8,4.3-1.7,6.3-2.8.9-.5,2.1-.8,3.2-.9,1.3,0,2.3-.5,3.5-.9,1.2-.4,2.4-1.3,3.9-1,.2,0,.4-.4.7-.7.6-.1,1,0,1.4-.1.3,0,.5-.3.7-.5-.3-.1-.6-.2-.9-.5.2-.2.4-.4.6-.3.6.2,1.6-1.3,1.9.4,0,0,.4,0,.6,0,1.4-.4,2.8-.8,4.2-1.2.1,0,.1-.4.2-.6-.2,0-.4,0-.7-.1,1.2-.4,2.3-1.3,3.6-.4.2.1.9,0,.9-.3.4-1.1.9-1.2,1.9-.6.3.2,1,.2,1.3,0,1.8-1.2,4-1.1,6-1.7,1.4-.4,3-.4,4.3-1,.8-.3,1.4-1,2.4-.4.2.1.7-.2,1.1-.3-.2-.5-.5-1.4-.8-1.4-1,0-2,0-3,.3-1.6.4-3.2,1-4.8,1.4-2.3.5-4.7.8-7.1,1.5-4.4,1.2-8.6,2.7-13,3.9-1.3.3-1.4.8-1.1,1.9-1.2.2-2.4.3-3.6.5-.4,0-.8.5-1.2,0,0-.1-.6,0-.6,0-1.1,2-3.2.5-4.7,1.3-2,1.2-4.7,1.1-6.3,3.2-.8.9-3.8,1.7-5.2,1.6-.2,0-.4,0-.5,0-.5,1.1-1.5,1.2-2.5,1.5-.6.2-1.2.3-1.8.4,0,0,0-.1-.2-.1-.9-.6-.4,1.8-1.6.7-.3-.3-1.7-.7-1.6.9,0,.3-1,.6-1.6.8M416.4,352.6c-.2.2-.4.5-.6.7.1,0,.3.2.3.2.2-.3.3-.6.7-.9,0-.1,0-.3,0-.4,0,.1-.2.3-.5.4M469.6,352.2c.7,0,1.5.2,2-.6,0,0,0-.2,0-.1-.7.1-1.3.3-2,.4,0,0-.1.2-.4.4-.7.2-1.3.4-2,.6,0,0,.2.3.2.3.8,0,1.7.2,2.2-.9M416,375.6c.4-.1.8-.1,1.2-.3,3.6-1.7,7.1-3.5,10.6-5.2.4-.2.7-.6,1-.9-.5,0-1.1-.2-1.6-.3-.2,0-.3.3-.5.4-2,1.3-4,2.6-6.2,3.5-1.7.7-3.6,1.2-5,2.7-1.9,1-3.8,2-5.7,3-.2.1-.5.3-.7.5.4,0,.8.2,1,0,1.3-.7,2.6-1.4,3.8-2.2.6-.4,1.2-.9,2-1.3M442.5,363.9c.4,0,.7,0,1.1-.2.2,0,.3-.3.5-.5-.2,0-.5-.3-.7-.3-.3,0-.7,0-1,.2-2,1-4,1.9-6,3-.2,0-.3.4-.4.6.2,0,.4,0,.6-.2,1.9-.8,3.8-1.7,5.9-2.8M463.3,354.9c.7-.3,1.4-.6,2.1-.9.1,0,.2-.2.3-.3-.1,0-.3-.1-.4,0-1,.3-2,.6-2.9,1-.4.1-.7.4-1,.6.5,0,.9,0,1.4-.1,0,0,.1,0,.6-.2M386,383.5c.3-.5.6-.9.9-1.4-.4.3-.9.6-1.3.9-.3.2-.6.5-.8.8-.1.2,0,.5,0,.8.2-.1.3-.2.5-.4.2-.1.3-.3.7-.7M509.7,338.6c0,0-.1.2-.2.3.1,0,.3,0,.2-.3M476.3,349.9c0,0,.1-.2.2-.3-.1,0-.3,0-.2.3Z"/>
    <path d="M159.9,297.7c-1.2,1.4-2.4,2.7-3.3,4.3-1.2,2-2.7,4-4.4,5.6-3.1,3.1-5.5,6.9-9.2,9.5-1.3.9-2.5,2.1-3.6,3.2-3.3,3.1-7.2,5.4-10.9,8-2.5,1.7-5.1,3.3-7.7,4.7-2.2,1.1-4.7,1.7-7,2.5-.3,0-.7-.1-1-.2.3,0,.7-.1,1-.3,4.4-1.9,8.6-4,12.6-6.6,2.5-1.7,4.9-3.3,7.3-5.1,2-1.5,4.1-3,6-4.6,2.1-1.8,4.3-3.7,6.2-5.7,2.8-3.1,5.7-6.1,8.1-9.5,2.7-3.8,5-7.8,7.3-11.8.9-1.5,1.4-3.2,2.7-4.5.8-.8,1.2-2.1,1.4-3.2.3-1.8,1.2-3.4,2-5,.9-1.9,1.8-3.7,2.3-5.8.4-1.6,1.4-3,2.1-4.5.2-.4.3-.9.5-1.4.1-.3.3-.6.5-.9.2.2.4.6.5.6.5-.2,1.1-.4.7-1.1-.1-.3-.2-.7,0-.9,1.1-1.6,1.5-3.3,1.6-5.2,0-1,.6-2,.9-3,.3-1.1.7-2.1.9-3.2.4-2.4.6-4.9.9-7.3.2-1.5.6-3.1.9-4.6,0-.2-.1-.4-.2-.6,0,.2-.2.3-.2.5-.3,1.6-.5,3.2-.9,4.8-.6,1.8,0,3.9-1.2,5.6,0,3-1.8,5.6-2,8.7,0,1-.5,2-.9,3,0,.2-.4.3-.6.4,0-.3-.2-.5-.2-.7.8-2.8,1.8-5.6,2.5-8.4.6-2.5,1-5,1.5-7.5.5-2.6,1.2-5.2,1.7-7.8.3-1.5.3-3,.5-4.5.6-3.3,1-6.7,1.4-10,.4-3.1,1-6.2,1.4-9.4.3-2.8.6-5.6.9-8.4.3-3.1.6-6.1.9-9.2.4-3.7.8-7.4.9-11.1,0-2.4.6-4.9.9-7.3,0,0,0-.2,0-.2.1-3.1.3-6.2.4-9.3.2-4.3,0-8.6.5-12.9.4-3.5.2-6.9.3-10.4.2-5.8,0-11.6.6-17.4.5-4.6.1-9.2.4-13.8,0-1-.3-2,.4-3,.1-.2,0-.6,0-.9-.9-4.3-.3-8.6-.4-12.9,0-2-.5-4-1-5.9-.4-1.5-1.2-2.9-2.5-3.9-.5-.4-.8-1-1.1-1.5-.6-1-.6-1.9.2-2.8.8-.8,1.7-.7,2.6-.3,2.3,1,4.2,2.4,5.4,4.6,1.4,2.7,2.4,5.4,2.3,8.5-.1,2.8,0,5.6,0,8.3-.1,6.8,0,13.6-.5,20.3-.2,2.9,0,5.9-.4,8.8-.6,3.5-.2,6.9-.4,10.4-.2,4.3,0,8.6-.5,12.9-.5,4-.1,8-.4,12,0,.6-.3,1.2-.4,1.9,0,.4-.2.8,0,1.1.8,1.8.4,3.6,0,5.5-.1.7-1.1,1.4-.3,2.4.4.4-.2,1.6-.3,2.4,0,1,0,2.1,0,3.2-.1,2.8,0,5.6-.5,8.4-.3,1.9-.2,3.8-.4,5.7-.1,1.8-.3,3.6-.5,5.4,0,.2-.2.3-.3.4-.2-.2-.5-.3-.5-.5,0-1.4.2-2.8.3-4.1,0-.2,0-.4,0-.6.2-2.9.3-5.7.5-8.6.1-2.6.3-5.3.4-7.9,0-.2-.2-.5-.3-.7,0,.2-.2.4-.2.6-.3,3.4-.5,6.8-.9,10.2-.5,3.4-.6,6.8-1,10.2-.3,2.5-.4,5.1-1.2,7.6-.1.4,0,.9,0,1.3-.2,3.4-.7,6.7-1.3,10-.5,2.5-.6,5-1,7.5-.4,2.9-.9,5.8-1.4,8.6-.5,2.7-1.4,5.3-1.8,8.1-.3,1.9-.7,3.8-1.7,5.6-.5.9-1.3,2-.5,3.3.2.3-.1.4-1.1,1.3-.4.5-1,1.2-.6,2.1.2.4.1,1,0,1.5-.7,2.2-1.6,4.3-2.4,6.4-.7,1.9-1.4,3.9-2.2,5.8-1.6,3.7-3.4,7.3-5.1,11-.6,1.2-1.2,2.4-1.7,3.6-.1.3,0,.7,0,1,.2-.2.4-.4.6-.7,1.6-2.2,2.4-4.7,3.6-7.1,1-2,1.8-4,2.8-6,.1-.2.4-.4.6-.6,0,.3.2.6.2.8,0,.3-.3.5-.4.7-1.9,4-3.7,7.9-5.6,11.9-.7,1.4-1.6,2.7-2.2,4.3-.5,1.4-2.2,2.4-2.9,4-1.8,4.1-5.1,7.3-7.4,11.1-2.2,3.5-5.1,6.4-8,9.3-1.9,1.8-3.9,3.6-5.8,5.4-.3.2-.5.6-.8.7-4.8,2.3-8.9,5.8-13.3,8.6-1.5.9-3.1,1.2-4.7,1.8-.1,0-.3,0-.4,0,0-.2,0-.4.2-.5.5-.4,1-1,1.6-1.1,2.6-.5,4.5-2.3,6.6-3.6,3.4-2.1,6.5-4.7,10.1-6.5.4-.2.7-.7,1.1-1.1,1.7-1.6,3.5-3.1,5.2-4.8,1.7-1.7,3.4-3.5,4.9-5.4,1.9-2.4,3.7-4.9,5.6-7.4,1.2-1.7,2.5-3.3,3.6-5,.1-.2,0-.6.1-1,.6-.8,1.1-1.6,1.6-2.3,0,0-.1-.1-.2,0-1.2.3-1.3,1.3-1.5,2.2M169.1,277.8c0-.3.2-.6.5-.9.6-1.4,1.3-2.8,1.9-4.2,0-.2,0-.5,0-.8-.2.1-.4.2-.5.4-.6,1.5-1.6,2.8-1.8,4.5,0,.3-.2.6-.5.9,0,.1,0,.3,0,.4,0-.1.2-.3.5-.4M184.9,193.6c0,.7-.2,1.4-.2,2.1,0,.2.1.4.2.6,0-.2.2-.5.2-.7,0-.7,0-1.3.2-2,0-.1,0-.3,0-.4,0,.1-.2.3-.5.4M185.5,208.7c.2-1.1.3-2.3.4-3.4.2-2,0-4.1.4-6.1.6-2.8.8-5.7.9-8.6.1-4,.5-8,.9-12,.2-2.3,0-4.7.4-7,.5-3.8.4-7.7.5-11.5,0-1.6,0-3.3,0-5,0-.9-.3-1.9,0-2.7.6-1.3.2-2.5.3-3.7,0-.2-.3-.4-.4-.6-.2.2-.4.4-.4.6-.2,2.9-.4,5.7-.4,8.6,0,3.5-.1,6.9-.7,10.3-.1.7.3,1.5.2,2.2-.2,1.6-.6,3.2-.8,4.8,0,.5.1,1,.2,1.5,0,.3.3.7.2,1-.9,2.4-.4,5-.8,7.5-.5,3.4-.4,6.9-.5,10.4,0,.1,0,.3,0,.4-.7,2.7-.9,5.4-.9,8.2,0,1.7-.2,3.3-.4,5-.4,2.6-1,5.2-1.3,7.8-.3,1.9-.3,3.9-.5,5.9-.2,1.6-.6,3.2-.9,4.8-.3,1.7-.7,3.3-.9,5-.2,1.7-.4,3.4-.9,5-.4,1.4-.3,2.9-.5,4.3,0,.6-.3,1.2-.4,1.9-.2,1.4-.4,2.9-.5,4.3,0,.3.3.6.5,1,.1-.3.3-.6.4-.9,0-.8-.2-1.8,0-2.5,1.6-3.5,1.2-7.4,2.2-11,.4-1.5,0-3.3.6-4.7,1.2-3.4,1.1-7,1.7-10.5.3-2.1.4-4.3,1-6.4.3-1.1.3-2.3.5-3.9M189.1,174.9c-.2,2,.5,4.1-.4,6.1,0,.2,0,.6.2.8,0,.2.3.3.5.5,0-.2.2-.4.2-.6,0-1.9,0-3.8.4-5.7.5-3,.4-6.2.5-9.3,0-2.4,0-4.8,0-7.2,0-.5,0-1,.1-1.5.3-1.7.6-3.3-.1-4.9,0-.2-.2-.4-.2-.5,0,.2-.2.4-.2.6,0,2.1-.2,4.2-.4,6.3-.3,5,.1,9.9-.5,15.3M188.7,145.2c0,.4,0,.9,0,1.3,0,.4.2.7.3,1.1.2-.4.6-.7.6-1.1,0-.8.4-1.8-.6-2.4-.1.2-.2.4-.3,1M190.5,145.2c0,.2,0,.4,0,.7,0,.1.2.3.3.4.3-.3.2-1.1-.3-1.1M181,227.2c0,0,0,.1.2.2,0,0,.1,0,.1,0,0-.3.1-.7.1-1,0,0-.2-.1-.3-.2,0,.2,0,.4-.1,1M163.2,293.1c0,0,.1-.2.2-.3-.1,0-.3,0-.2.3M184,203.1c0,0,.1-.2.2-.3-.1,0-.3,0-.2.3M183.7,201.5c0,0,.2.1.3.2,0-.1,0-.3-.3-.2Z"/>
    <path d="M188.4,40.9c-.3-1.7.9-2.9,1.4-4.3,2.1-5.5,2.4-11.2,2-16.9-.1-2.2-.7-4.5-2.4-6.2-.2-.2-.4-.2-.6-.3,0,.2,0,.5,0,.6.8,1.1,1.3,2.4,1.4,3.7.1,1.8,1.2,3.5.3,5.4-.2.5,0,1.3.1,1.9.1,2.1-.3,4.6-1.6,6.9-1.6,2.7-2.4,5.8-4,8.5-.8,1.3-1.7,2.4-2.6,3.7-.3.5-.7.9-1,1.4-1,1.7-1.7,3.5-3.6,4.6-.9.6-1.3,2-2.1,2.9-2.4,2.5-4.7,5-7.8,6.8-.2.1-.3.5-.5.7.2,0,.4-.2.6-.3,2.5-.8,4.3-2.7,6.4-4.2,1.4-1,2.7-2.3,4.1-3.5.3.7.7.6,1,.2.7-.7,1.4-1.3,2.1-2,0,.4-.1.9-.4,1.1-2.9,2.8-5.8,5.8-8.9,8.4-2.7,2.3-6.1,3.4-9.4,4.4-.5.2-1.1.3-1.6.4-.6.2-1.3.6-1.8.4-1.5-.4-3-.5-4.4-1.3-2.1-1.1-4.4-2-6.7-2.8-3.5-1.1-6.2-3.4-8.4-6.1-1.6-1.9-2.7-4.1-4-6.2-.3-.4-.5-.9-.5-1.4-.2-3.2-.6-6.3-.4-9.5.1-2.6.8-5.2,1.4-7.7.3-1.5.8-3,1.3-4.4,0-.2.9-.4,0-.6-.2,0-.5.3-.8.4,0-1.9,1.2-3.4,2-5,.8-1.6,1.9-3.1,3.3-4.3.4-.3.8-.7-.2-.7,0,0-.2-.7,0-.8,1.4-1.4,2.9-2.7,4.4-4.1.8-.8,1.6-1.5,2.4-2.3,2.1-2,4.4-3.6,7.2-4.5,1.1-.3,2.2-.9,3.2-1.4,3.3-1.7,6.8-1.5,10.3-.7,1.6.3,3,.8,4.6.4.3,0,.7.1,1,.3,2.5.9,5,1.8,7.1,3.5.2.2.5.2.8.3.2,0,.4.1.6.2,0-.2,0-.5-.2-.6-1.4-.9-2.8-1.9-4.3-2.8-1-.6-2-.9-3-1.4-.1,0-.1-.4-.2-.6.2,0,.4,0,.6,0,4.5,1,7.8,3.6,10.5,7.3,1.6,2.2,3.5,4.2,4.4,6.7.4,1.2,1,2.3,1.1,3.6.4,2.9.7,5.7.1,8.6-.6,3.3-1.2,6.5-2.4,9.6-.5,1.4-1.3,2.6-2.1,3.9M170.5,59.8c-.4.2-.8.2-1.2.5-.8.5-1.5,1.1-2.2,1.6,1.2.4,1.8-.6,2.5-1.2.4-.3.7-.6,1.3-.9,0-.1,0-.3,0-.4,0,.1-.2.3-.5.4M139.8,26c.9-1.6,1.9-3.3,2.6-5,.3-.6,1.1-.9.9-1.8-.5.5-1.2,1-1.5,1.6-.9,1.6-2.1,3.2-2.5,5.1-.7,2.2-1.4,4.4-2,6.6,0,.3.1.7.2,1,.2-.3.7-.7.7-1,0-1.3.3-2.5.9-3.7.4-.8.4-1.9.8-2.9M184.4,30.5c.2-1.5.4-3,.7-4.4.3-1.6,0-3.2,0-4.8.2-6-3.1-10-8-12.8-4.4-2.5-9.4-3.1-14.4-2.2-4.4.8-8.4,2.8-11.7,5.9-2.8,2.6-5.1,5.4-7.1,8.7-2.7,4.4-4,9-4.3,14-.1,1.9-.2,3.8,0,5.6.2,1.8.6,3.6,1.2,5.4,1.1,3.3,3.6,5.6,6,7.8.5.5,1.3.9,2,1,.4,0,.8-.8,1.3-1.2.1-.1.2-.2.3-.3.4-.7.8-.3,1.4-.2,1.6.4,2.4,1.7,3,2.9.4.9.9,1.1,1.8,1.2,1.8.1,3.4-.5,5-.9,2.9-.7,5.7-1.6,7.8-3.9.2-.3.9-.6,1-.5.8.9,1.2,0,1.6-.4,5.1-4.6,8.5-10.3,11.1-16.6.5-1.3.7-2.7,1.2-4.3M189.1,21.7c0-.7,0-1.5,0-2.2,0-.2-.2-.4-.3-.6,0,.2-.1.4-.2.6,0,1.4,0,2.8,0,4.2,0,.5.2.9.3,1.4.2-.6.4-1.1.5-1.7,0-.4-.2-.8-.3-1.7M157.6,63.2c.5.6,1.6,1.2,2.4,1.1.3,0,.5-.3.7-.5-.2-.1-.4-.3-.6-.4-.8-.2-1.7.4-2.5-.2M172.9,57.8c-.4.4-.7.7-1.1,1.1,0,0,0,.3,0,.5.4-.2.8-.3,1-.6.2-.4,1.3-.4.6-1.2,0,0-.1,0-.4.2M152,60.7c0,0,.1-.2.2-.3-.1,0-.3,0-.2.3M189.6,27.1c0,0-.2-.1-.3-.2,0,.1,0,.3.3.2M188.7,18.1c0,0,.2.1.3.2,0-.1,0-.3-.3-.2Z"/>
    <path d="M299.5,307c-.2.3-.4.5-.4.7.1,4.7.3,9.3.4,14,1.1,1.4.3,2.9.5,4.4.4,3,.9,6.1,1.3,9.1.2,1.8.2,3.6.5,5.4.4,2.5.9,5,1.4,7.5s.5,2.2.8,3.4.2.8.3,1.1c.1.3.3.5.5.8,0-.4.2-.8.1-1-.6-1.4-.8-2.9-.9-4.4-.2-2-.6-4.1-1-6.1-.2-1.3-.7-2.6-.8-4-.2-2.8-.7-5.5-1.3-8.2-.3-1.5-.4-3-.5-4.5,0-.3.4-.6.6-.9.1.3.3.5.3.8,0,2.4.6,4.6,1.3,6.9.3,1.2.4,2.5.6,3.8.5,3.3.8,6.6,1.4,9.8.3,1.5.9,3,.9,4.6,0,.3.4.7.3,1-.4,3.1,1.3,5.8,1.8,8.7.3,1.9.8,3.7,1.4,5.5.4,1.3,1,2.6,1.5,3.9,1.2,2.6,2.8,5,4.3,7.6-.8.5-.5,1-.2,1.5,1.5,1.8,2.9,3.6,4.5,5.3.3.4.8.8,1.2.8,1.5,0,2.2,1.2,3.3,1.9,2.1,1.5,4.5,2.5,7.2,2.8,3.3.4,6.1-1,9.1-1.9.2,0,.4-.4.6-.6-.3,0-.6-.3-.8-.2-.8.2-1.5.8-2.3.8-1.4,0-2.7,1-4.2.1-.5-.3-1.4.1-2.2.1-1.2,0-1.8-1-2.7-1.5-1.8-1-3.7-2-5.8-2.3-.3,0-.5-.2-.7-.4-1.3-1.5-2.7-2.9-4-4.4-.2-.2-.2-.5-.2-.9.6.2,1.2.5,1.7.9.8.8,1.5,1.5,2.3,2.3.1.1.3.1.4.1-.1,0-.3-.2-.4-.4-.4-1.1-1-2-2.3-2.3-.9-.9-1.8-1.8-2.7-2.7-.1-.1-.3-.1-.4-.1.1,0,.3.2.4.4v.8c-.8-.8-1.5-1.7-2.3-2.5-.3-.3-.4-.7-.7-1.1.4.2.7.4,1.1.6.1,0,.3,0,.5,0,0-.2,0-.4-.1-.6-.8-1.4-1.5-3-2.6-4.3-1.2-1.5-1.6-3.2-2.4-4.8-.2-.5,0-1.2,0-1.7.6,1.3.9,2.4,1.5,3.5.3.6.9,1.2,1.3,1.9.2.3.3.6.5.9,0,.3,0,.5.1.7,0,0,.2,0,.3,0-.1-.2-.3-.5-.4-.8-.2-.3-.3-.6-.5-.9-.5-1.3-.8-2.4-1.4-3.5-.3-.6-.9-1.2-1.3-1.8-.4-1.6-.5-3.3-1.1-4.9-.6-1.5-.7-2.9-.7-4.5.9,2.3,1.8,4.8,2.7,7.2.9,2.6,1.9,5.2,3.4,7.6,1,1.5,1.5,3.3,2.5,4.8,1.3,2.1,2.6,4.2,4.5,5.8.1.1.4.1.6.2,0-.2,0-.5-.2-.6-2.6-2.4-4.1-5.7-6.1-8.5-1.1-1.6-1.3-3.8-2-5.7-.6-1.7-1.4-3.3-2-5-1.2-3.4-2.3-6.9-2.9-10.5-.7-3.7-1.5-7.3-2.2-11-.2-1.3,0-2.6-.4-3.9-.4-1.8-.4-3.8-.5-5.7,0-.3,0-.6,0-.9,0-.4-.2-.9-.3-1.3.8.3.6,1,.8,1.6.7,2.5.4,5.1,1.2,7.6.6,1.9.8,4.1,1,6.1.3,2.9.8,5.8,1.6,8.6.8,2.6,1.3,5.2,2,7.7.5,1.7,1.2,3.4,1.8,5.1.6,1.6,1.4,3.2,2.1,4.8,1.5,3.8,3.7,7.2,6.5,10.1,1.3,1.4,2.5,2.8,4,3.9,3.7,2.9,7.9,3.4,12.5,2.6,5.2-.9,9.5-3.5,13.6-6.3,3.5-2.4,6.8-5.1,9.3-8.6.5-.7,1.3-1.2,1.9-1.9,1.7-2.1,3.4-4.3,5.1-6.5,3.1-4,5.4-8.5,7.7-13,2.3-4.5,4.6-9,5.9-14,.6-2.1,1.3-4,1.3-6.2,0-.9,0-2,.5-2.7.8-1.4,1.1-2.9,1.3-4.4,0-.3.2-.7.5-.9.1-.2.5-.2.7-.2,0,.2.2.4.2.6-.7,2.6-1.5,5.1-2.2,7.6-.3,1-.2,2.1-.4,3.2-.6,4.4-2.7,8.2-4.5,12.1-1.3,3-2.9,5.9-4.4,8.7-2.3,4.1-5,8-7.5,11.9s-1.2,1.6-1.8,2.4-.1.3-.2.5c.2,0,.5,0,.6,0,1-1.1,2-2.1,2.8-3.3,2.4-3.5,4.8-7,7-10.6,1.1-1.8,1.9-3.8,2.9-5.7s2.3-4.7,3.3-7.1,1.9-4.8,2.4-7.3c.5-3,1.4-5.9,2.1-8.8.6-2.6,1.2-5.2,1.9-7.8,0-.4.4-.7.6-1.1.1-.2.3-.2.5-.4,0,.2.2.4.2.6-.1.9-.3,1.8-.4,2.7,0,.2.1.4.2.6,0-.2.2-.3.3-.5.1-.2.3-.5.5-.7.2-.2.5-.4.7-.6,0,.3,0,.7,0,.9-.6,1.3-1.5,2.6-1.7,4-.2,1.5-.7,2.8-1,4.2-.4,1.7-.4,3.4-.6,5.2,0,.2.1.4.2.6.2-.2.5-.4.6-.6.4-1.3.8-2.6.9-3.9.3-2.5,1.5-4.8,1.8-7.4,0-.3.3-.5.4-.7,0-.1.2-.3.3-.4,0,.1.2.3.1.4-.1.8-.5,1.7-.4,2.5.2,3.2-.6,6.2-1,9.3-.3,2.3-.5,4.8-2.2,6.8-.6.7-.7,1.7-1.1,2.5-.8,1.8-1.8,3.6-2.6,5.5-1.2,2.8-2.7,5.5-4.2,8.2-.6,1-.9,2.2-1.7,3.1,0,0,0,.2,0,.2-1.8.6-1.6,2.4-2.4,3.7-1.3,2.2-2.9,4.2-4.4,6.3-2.7,3.8-5.8,7.2-9.1,10.4-2.8,2.8-6.1,4.9-9.5,6.9-2.8,1.6-5.5,3.4-8.7,4.1-1.5.3-3,.5-4.3,1.2-.2.1-.5.2-.8.3.3,0,.7.3,1,.2.8,0,1.5-.3,2.3-.4.2,0,.5.2.7.3-.2.2-.4.5-.6.6-2.4.6-4.7,1.3-7.1,1.8-1.3.3-2.7,0-3.8-.6-1-.7-2-.8-3.1-.7-3,.4-5.3-1.2-7.4-2.7-4.4-3.1-7.3-7.6-10.1-12.2-3.1-5.1-5-10.7-6.7-16.4-1-3.4-2.1-6.7-2.6-10.2-.5-3.4-1.4-6.8-1.7-10.3-.2-2.1-.6-4.1-.9-6.2-.5-3.2-.7-6.3-1-9.5-.2-1.7-.2-3.5-.3-5.2-.8-8.3-.5-16.6-.3-24.9,0-2.4.1-4.9.7-7.4.4-1.9.6-4.1-.2-6.1-.2-.6-.3-1.4,0-2,.7-1.4.3-2.7.4-4.1.2-2.2-.1-4.5.6-6.5.6-1.6.5-3.2,1-4.8.1-.6,0-1.2,0-1.8,0-.2-.2-.5-.2-.6,1.4-1.6.6-3.7,1.3-5.6.5-1.4.5-3,.5-4.5,0-2.2.7-4.3.8-6.4.1-3,1.5-5.8,1-8.9-.1-.7.1-1.3.6-2,.5-.9.6-2.2.8-3.3.3-1.9.5-3.8.9-5.7.4-2,1-3.9,1.7-5.9.1,2.8-1.1,5.4-1.4,8.1-.3,2.8-.8,5.4-1.5,8.1-.6,2.1-.1,4.4-.6,6.5-.6,3-.6,6.1-1.3,9.1-.4,1.7-.4,3.5-.5,5.2,0,1.5-.3,3-.8,4.4-.2.7-.2,1.5-.1,2.2,0,3.2-.4,6.2-1.3,9.2s0,0,0,.1c-.2,2.7-.3,5.3-.4,8,0,.2.1.4.2.6,0-.2.2-.5.3-.7,0-.2,0-.5,0-.7,0-.3.1-.5.2-.8,0,.3.1.5.2.8,0,.2.3.3.4.4.1-.2.4-.5.3-.6-.5-2.3-.4-4.6,0-6.9.4-2,.3-4.1.5-6.1,0-.2.3-.4.4-.6.2.2.5.4.5.6,0,1-.2,2.1-.3,3.1s0,.8,0,1.3c0,3.7.1,7.4-.9,11.1-.1.5,0,1,0,1.6,0,.3,0,.6-.1.8-.1-.3-.2-.6-.3-.8,0-.1-.1-.3-.2-.4,0,.2-.3.3-.3.5-.3,2.8-.7,5.6-.9,8.4-.2,3.6-.3,7.2-.5,10.8,0,.7-.4,1.4-.4,2.1,0,1.4.3,2.7.4,4.2M386.2,341.3c0-.2.1-.5.2-.7,0,0-.2,0-.3,0,0,.3,0,.5-.3.8,0,.1,0,.3,0,.4,0-.1.2-.3.5-.4M386.7,339.1c0,.2-.1.5-.2.7,0,0,.2,0,.3,0,0-.3,0-.5.3-.8,0-.1,0-.3,0-.4,0,.1-.2.3-.5.4M316.2,373.6c-.1,0-.3,0-.4,0,.1,0,.3.2.4.5.2.4.4.7.6,1.1,0,0,.3-.2.3-.2-.1-.3-.3-.6-.5-.9,0,0-.2-.1-.4-.4M348.4,385c.7-.4,1.3-.7,2-1.1,0,0-.2-.3-.2-.3-.7.4-1.3.7-2,1.1,0,0,0,.1-.2.2,0,.1,0,.3,0,.4,0-.1.2-.3.5-.4M363.5,374.5c.7.6,1-.1,1.3-.5,0,0-.1-.4-.2-.6-.3.3-.6.6-.9.9,0,0-.1,0-.2-.2,1.8-3.6,5-6.1,7.2-9.4,1-1.5,2.2-2.8,3.2-4.3,1.7-2.7,3.6-5.4,5.4-8.1,1.1-1.8,2.2-3.6,3.2-5.5,1.8-3.4,2.8-7.1,4.1-10.7.5-1.4.3-2.7.4-4.1,0-.2-.3-.3-.5-.5-.1.1-.4.3-.4.4,0,1.8-.7,3.4-1.3,5.1-1.8,4.6-3.4,9.3-5.9,13.5-2.7,4.5-5.7,8.8-8.9,13-1.1,1.5-2.6,2.8-3.7,4.3-1.7,2.2-3.2,4.7-4.7,7.1-1.3,2-2.9,3.2-4.7,4.5-1.2.8-2.4,1.8-3.6,2.7-.2.2-.3.4-.5.6.3,0,.6,0,.8,0,1.8-1.1,3.5-2.3,5.3-3.5,1.7-1.1,3.2-2.2,3.8-4.2,0-.3.5-.4.8-.4M358.5,375.4c1.7-1.8,3.4-3.7,5.1-5.5.3-.4.5-.8.8-1.3,0-.1,0-.3,0-.4-.2,0-.4,0-.5,0-.6.7-1.1,1.5-1.8,2.2-3,3.2-6.3,6.2-9.8,8.9-1.5,1.1-3,2.4-4.9,2.8-1,.2-2,1-2.9,1.6-.2.1-.2.5-.3.7.2,0,.4.2.6.2.3,0,.7.1.9,0,1.4-.7,2.8-1.3,4-2.2,2.3-1.6,4.4-3.5,6.6-5.2.7-.5,1.4-1.1,2.3-1.8M324.3,381.7l-1.1-.7c-.4.6.4.7.6,1.1.1.3.4.5.6.6.7.3,1.4.5,2.1.8-.5-.5-.9-.9-1.4-1.4-.1-.1-.4-.1-.8-.4M371.4,365.7c0,0-.1.2-.2.3.1,0,.3,0,.2-.3M314.8,371.3c0,0-.2-.1-.3-.2,0,.1,0,.3.3.2Z"/>
    <path d="M202.7,328.2c-1.6-1.2-2.2-2.4-2.7-4.2-.7-2.3-1.8-4.5-2.4-6.9-1-3.9-2.5-7.7-2.6-11.8,0-2.2-.8-4.3-1.2-6.4-.2-1.1-.3-2.3-.5-3.4,0-.3-.2-.6-.3-.9,0,.3-.2.6-.2.8.6,3,0,6.2,1.2,9.2.4,1,.5,2.1.5,3.2,0,2.7,1.8,5,1.5,7.7,0,.5.2,1.1.4,1.6.7,1-.1,2,0,3,.1,1,.4,1.9.6,2.9.2.7.4,1.4.8,2,1.8,2.7,3.2,5.7,4.5,8.7.8,1.8,2.5,3.1,3.9,4.6,1.9,2,4.5,3.2,6,5.6.5.8,1.7,1.3,2.7,1.6,1.9.6,3.8.9,5.7,1.4,2.2.7,4.5.5,6.8.4,1.8,0,3.4-1.2,5.1-2.1.3-.1.5,0,.7-.1.2,0,.3-.2.4-.3-.1,0-.3-.2-.3-.2-.3.1-.6.3-1,.4-.7.2-1.4.3-2.1.4-2.8.6-5.6.8-8.4,0-1.4-.4-2.9-.2-4.3-.5-1.6-.3-3-.7-4.2-2.2-1.1-1.3-2.7-2.1-4.1-3.2-.2-.1-.2-.5-.3-.8.2,0,.5,0,.6.2,1.4,1.3,3.1,1.9,4.7,2.7.7.3,1.4.6,2.1.9.2,0,.4.1.6.2-.2,0-.5.2-.7.3-.2,0-.4.1-.6.2.1,0,.3.2.4.2.9-.2,1.7,1.2,2.6,0,.1-.1.8.2,1.2.2.6,0,1.1,0,1.7,0,.3,0,.6-.3.9-.5-.3,0-.6-.2-1-.2-3.7-.6-7.1-2.1-10.3-4-.8-.5-1.4-.9-1.4-2,0-.4-.4-.7-.6-1.1-1.4-2.2-2.7-4.5-4.4-6.5-1.8-2.3-2.4-5-3.5-7.6-.9-2-1.5-4.2-2.1-6.3-.3-1.2-.4-2.4-.6-3.6-.3-1.7-.6-3.5-1-5.2-.3-1.3-.7-2.6-.8-3.9-.2-4.5-1.4-9-.9-13.6,0-.4.1-.7.2-1.1,0,.4.2.8.3,1.2.2,1.3.3,2.6.5,3.9.1,1.2.3,2.4.4,3.6,0,.4,0,.8,0,1.1.1,1.8.2,3.6.5,5.4.3,2.2.9,4.3,1.3,6.4,1.3,6.1,3,12.1,5.8,17.6,2.2,4.3,5.1,7.9,9,10.9,3,2.3,6.1,3.3,9.9,3.4,4.8.2,9-1.5,13.2-3.6,5.8-2.9,10.8-6.8,14.9-11.7,2.8-3.2,5.4-6.7,7.6-10.3,2.5-4,4.8-8.2,6.3-12.7.6-1.9,1.5-3.7,2.2-5.6,0-.2.2-.4.3-.6,0,.2.2.4.1.6-.5,1.7-.8,3.4-1.5,5-1.4,3.3-2.7,6.6-4.4,9.6-2.1,3.7-4.6,7.3-7,10.8-1.2,1.7-2.6,3.3-3.9,4.9-.1.2-.1.5-.2.8.2-.1.4-.2.6-.4,2.9-1.8,4.5-4.8,6.4-7.5,2.9-4,5.3-8.4,7.3-12.9,1.8-4,3.5-8,3.6-12.5,0-1,.3-2,.4-3,0-1.2-.5-2.3-.6-3.3-.3-2.7-1.3-5.4-.5-8.2.2-.5,0-1.2.2-1.7,0-.2.2-.4.3-.4.2,0,.4.1.5.2,0,0,0,.2,0,.2.8.3-.1,1.7,1.1,1.8,0-.7-.2-1.3-.2-2,0-.8.4-1.2,1.2-1.2.7,0,1.3.1,1.5,1,0,.5.1,1,.4,1.4.4.7.8.3,1.2,0,0,0,.4.3.4.5.2.7.6,1.3.6,2,.2,2.9.6,5.8.4,8.6-.2,3-1.1,6-1.7,8.9-.6,3.1-2.7,5.6-3.7,8.6-.3,1.1-.9,2.2-1.4,3.2-2.3,4.5-5,8.7-8.1,12.6-2.2,2.7-4.4,5.3-6.9,7.7-2.5,2.5-5.2,5-8,7.1-2.5,1.9-5.4,3.3-8,5-.1-.2-.2-.4-.2-.7.5-.4.9-.7,1.4-1,.1-.1.1-.3.1-.4,0,.1-.2.3-.4.4-.5.3-.9.6-1.2.9-2.1.9-4,2.1-6.3,2.8-1.2.3-2.2,1-3.4,1.4-3.4,1.1-6.7.8-10.1.3-5.7-.8-10.2-3.6-13.8-7.8-3-3.5-5.1-7.5-7-11.7-1.9-4-2-8.4-3.9-12.3.2-2-.6-3.8-.9-5.7-.1-.7-.3-1.4-.4-2.1,0-.2.4-.4.8-.5.3.1.4.1.5.1-.1,0-.3-.2-.4-.3,0-1.4,0-2.7-.6-4,0-.1-.3-.2-.2-.3.6-3-1-5.7-1-8.6,0-3.7,0-7.4-.4-11.1-.9-8.9-.2-17.7-.4-26.6,0-2.5,0-5,0-7.4,0-.4,0-.9.2-1.3,0-.2.3-.3.5-.5,0,.2.2.3.2.5,0,.5,0,1.1,0,1.6,0,6.1,0,12.2,0,18.2,0,2.8.7,5.7.6,8.5,0,1.7.3,3,1.1,4.4.5.9.5,2.2.5,3.4,0,2.9-.2,5.9.5,8.8.7,2.9.5,6,1.3,8.9.4,1.2.3,2.6.5,3.9.4,2.4.7,4.9,1.5,7.2.6,1.5.9,3.2,1.4,4.8,1.1,3.1,2.5,6.2,3.8,9.4M212.6,345.2c-.1,0-.3,0-.4,0,.1,0,.3.2.4.5.2,0,.5.1.7.2,0,0,0-.2,0-.3-.3,0-.5,0-.8-.3M268.7,311.6c0,.3-.2.6-.5.9,0,.3-.2.6-.5.9,0,.1,0,.3,0,.4,0-.1.2-.3.5-.4,0-.3.2-.6.5-.9,0-.3.2-.6.5-.9,0-.1,0-.3,0-.4,0,.1-.2.3-.5.4M194.6,312.3c0-.2,0-.4,0-.6,0-.2-.2-.3-.3-.4,0,.1-.2.3-.2.3.1.3.3.6.4,1.2,0,.4,0,.7,0,1.1,0,.2.3.5.5.5.8-.2,0-.4,0-.6-.2-.4-.3-.8-.5-1.4M210.8,344.3c.1,0,.3,0,.4,0-.1,0-.3-.2-.4-.5-.2-1.4-1.6-1.4-2.4-2-.1,0-.4,0-.6,0,.1.2.2.5.4.6.9.5,1.8,1,2.7,1.8M249.7,334.6c-.8.8-1.7,1.5-2.5,2.3-.2.2-.2.5-.2.8.3-.1.6-.2.8-.3,1.9-1.7,3.6-3.5,5.6-5.1,2-1.7,3.8-3.6,5.2-5.7.8-1.3,1.8-2.3,2.9-3.3.6-.5,1.3-1.2,1.4-1.9.3-1.6,1.2-2.8,1.9-4.2,1.9-3.6,3.8-7.3,5.6-11,.7-1.6,1.3-3.2,1.7-4.9.7-2.7,1.8-5.3,1.4-8.2,0-.2-.1-.4-.2-.6,0,.2-.2.4-.2.6-.6,2.5-1.2,5.1-1.8,7.6-.4,1.4-.5,3-1.4,4.1-1.2,1.6-1.8,3.5-2.7,5.2-.9,1.8-1.8,3.6-2.8,5.4-1.7,3-3.7,5.9-5.7,8.7-2.1,3-4.1,6-6.8,8.4-.6.5-1.2,1.2-2,2M239.4,338.2c-3.5,2.8-7.5,4.6-12.1,5-.2,0-.4.2-.7.3.2,0,.4.2.6.2,1-.1,2.2-.7,2.9-.4,1.9,1,3.2-.2,4.5-.9,2.3-1.2,4.7-2.3,6.6-4.2.4-.4.7-.7,1.1-1.1-.5,0-1,0-1.5.2-.4.2-.7.6-1.4.9M275.2,290.7c-.2-2.4-.2-4.8-.5-7.2,0-.7-.7-1.3-1.1-2-.4.7-.5,1.3.1,2,.1.1,0,.4,0,.6,0,1.9-.2,3.9.1,5.8.3,1.8.7,3.5.3,5.3,0,.2,0,.4.1.6.1-.2.2-.4.3-.6,1-1.3.2-2.7.4-4.5M246.6,333.2c-.6.6-1.3,1.2-1.9,1.9-.2.2-.3.5-.4.8.3,0,.6-.1.8-.3,1.4-1.2,2.9-2.5,4.2-3.8.5-.4.7-1,1.1-1.5-.5.3-1,.6-1.4,1-.7.6-1.5,1.2-2.4,2M272,279.9c0,.3,0,.7.1,1h.8c-.9-.2.1-1.5-.9-1M195.7,317.5c0-.2.1-.5.2-.7,0,0-.2,0-.3,0,0,.2,0,.4.1.8M272.9,302.4c-.2,0-.3.2-.5.2.2,0,.3.2.5-.2M273.8,298.8c0,0,.2.1.3.2,0-.1,0-.3-.3-.2Z"/>
    <path d="M152.1,313.8c-.2.3-.2.6-.3.7-2.7,2.8-5.4,5.6-8.2,8.3-1.7,1.6-3.7,2.7-5.4,4.2-2.5,2.1-5.3,3.9-8.1,5.4-2.6,1.4-5.1,2.9-7.8,4-1.3.5-1.9,2.1-3.5,1.9-3.7,2.2-8,3-12,4.7-1.5.6-3.1.8-4.7,1.1-1.9.4-3.7.9-5.6,1.1-2.7.3-5.4.5-8.1.7-.1,0-.3,0-.4-.1.1-.1.3-.2.4-.3.5-.2.9-.4,1.4-.4,3.4-.3,6.8-.7,10.1-1.8,2.1.5,3.8-1.4,5.9-.9.2,0,.5-.2.6-.4.5-1.4.6-1.7,1.5-1.3,1.8.7,3.1-.4,4.5-.9,2.6-1,5-2.5,7.5-3.6,1.1-.5,2.5-.6,3.6-1.1,1.9-.9,3.8-1.8,5.5-3,2-1.2,4-2.4,5.9-3.7,2.1-1.5,4.3-2.9,6.2-4.6,1.3-1.2,2.5-2.5,3.8-3.8.1-.1.2-.3.3-.3,2.5-.9,3.5-3.3,5.3-5,1.7-1.6,3.4-3.5,4.6-5.5,1.7-3,4.2-5.3,6-8.1,1.2-1.8,2.3-3.7,3.3-5.6,1.5-2.7,3.2-5.3,4.4-8.1,1.8-4.5,4.4-8.7,5.7-13.4.5-1.7,1.5-3.1,2-4.8.8-3.3,2.1-6.5,2.9-9.8.8-3.2,1.2-6.4,1.9-9.6.7-3.5,1.5-6.9,2.2-10.3.3-1.6.3-3.2.5-4.8.2-1.5.5-2.9.7-4.4.2-1.1.4-2.2.6-3.4,0-.2.1-.4.2-.6,0,.2.3.3.2.5-.2,2.2-.4,4.5-.7,6.7,0,.4-.2.8-.2,1.3,0,2.9-.8,5.6-1.3,8.5-.6,2.9-.9,5.9-1.4,8.9-.1.9-.5,1.8-.7,2.6-.9,2.7-1.4,5.5-2,8.2-.2.8-.6,1.5-.9,2.3-.5,1.8-.9,3.5-1.4,5.3-.2.7-.6,1.3-.9,1.9-.3.8-.6,1.5-.9,2.3,0,.3,0,.7,0,.9-1.4,1.6-1.3,3.8-2.5,5.5-1.2,1.7-1.7,3.9-2.5,5.9-.8,2.3-1.8,4.7-3.6,6.6-.5.5-.6,1.1-.9,1.7-.6,1.4-1.6,2.7-2.5,3.9-2.5,3.7-4.9,7.4-7.5,11.1-.9,1.3-2.3,2.4-3.6,3.6Z"/>
    <path d="M2.7,250.7c-.2,0-.4-.1-.4-.2-.3-2.9-.5-5.8-1.3-8.7-.4-1.4-.4-2.9-.5-4.3-.2-6-.5-12-.4-18.1,0-4,.6-7.9.9-11.9.3-3.6,1.1-7.2,1.7-10.7,0-.2,0-.5,0-.7-.2-2.8.8-5.5,1.2-8.2.7-4.6,2.4-8.9,3.7-13.4,0-.3.1-.5.3-.8,0-.2.3-.2.5-.4,0,.2.2.4.1.6-.3,1.2-.6,2.4-.9,3.7-.4,1.6-.9,3.2-1.3,4.9-.2,1-1.1,1.6-1,2.8.1,1.2-.7,2.4-.8,3.7-.1,2.4-1.5,4.6-.9,7.1.2.8-1.1,1.6.1,2.6.5.4.3,1.8.3,2.7,0,2.9,0,5.8-.5,8.6-.3,2,0,4-.4,5.9-.8,4-.1,8-.4,12-.2,3,0,6.1.1,9.1.2,2.4.1,4.8.4,7.2.2,2.1.9,4.1,1.4,6.1.3,1.1.5,2.2.8,3.3.5,2.1.5,4.5,1.5,6.4,1.1,2.3,1.2,4.7,2.1,7,0,.1,0,.3,0,.4-.2,0-.4-.1-.5-.2-.3-1.1-.6-2.1-1-3.2-.6-1.6-1.3-3.2-1.7-4.9-.7-2.5-1.2-5.1-1.7-7.6-.3-1.7-.6-3.4-.9-5,0-.2-.2-.3-.3-.4,0,.2-.1.4-.2.6,0,1.4,0,2.7,0,4.2M1.3,212.7c-.2,2-.5,3.9-.4,5.9.1,5.3-.3,10.5.3,15.8.3,2.1.8,4.4.1,6.6,0,.2.3.5.5.8.1-.3.4-.6.4-.8-.1-1.7-.4-3.5-.4-5.2,0-8.3-.2-16.7.4-25,0-.1,0-.3,0-.4.9-2.4.1-4.9.9-7.3.2-.5-.1-1.1-.2-1.7-.2.6-.5,1.1-.7,1.7-.1.6,0,1.2,0,1.8s.1,1.1,0,1.6c-.6,1.9-.7,3.9-.9,6.4Z"/>
    <path d="M438.8,140.4c.3-1.9,1.5-3.3,2.6-4.7,1.9-2.5,4.8-3.6,7.1-5.6,2-1.7,4.4-2.6,6.7-3.8,1.9-.9,3.7-2.4,5.6-3.3,2.8-1.3,5.4-3.1,8.4-4.1,1.2-.4,2.7.3,3.8-1,0-.3,0-.4-.1-.6.9-.3,1.7-.6,2.6-.9,1.4-.4,2.8-.8,4.2-1.2,1.6.1,2.8-.9,4.2-1.4,2.6-.9,5.2-1.9,7.8-2.8.2,0,.4,0,.6,0-.1.2-.2.5-.4.6-2.3.9-4.7,1.8-7,2.7-3.7,1.5-7.3,3-11,4.5-2.6,1.1-5.1,2.1-7.7,3.1-.2,0-.5,0-.7,0-2.1,2.3-5.4,2.3-7.8,4-2.4,1.7-4.9,3.3-7.6,4.5-2.1.9-3.7,2.2-5.6,3.4-2.2,1.4-3.7,3.4-5,5.5-.2.4-.4.7-.8,1.1Z"/>
    <path d="M489.9,240c0,.3,0,.7-.2,1-1,1.7-2.1,3.3-3.2,5-1.7,2.7-3.5,5.3-5.2,7.9-1.2,1.8-2.4,3.7-3.7,5.4-2.3,3.3-4.8,6.5-7.1,9.9-1.4,2-2.5,4.2-3.9,6.2-2.3,3.3-4.7,6.5-7,9.7-.6.8-1.2,1.5-1.9,2.2.3-1.9,1.6-3.4,2.8-4.9,1.9-2.7,4.1-5.2,6-7.9,2.4-3.5,4.6-7.1,6.9-10.6,1.4-2.2,2.6-4.7,4.3-6.7,2.5-3,4.2-6.5,6.7-9.6,1.6-2,2.9-4.3,4.3-6.5.3-.4.7-.7,1.2-1.1Z"/>
    <path d="M419.9,340.4c.4-1.5,1.4-2.7,2.3-3.9,2-2.8,4.1-5.5,6.1-8.3,3-4.1,6.1-8.2,9.1-12.4,2.3-3.2,4.7-6.4,6.8-9.8,1.4-2.4,3.3-4.5,4.9-6.7,1.8-2.5,3.3-5.1,5.3-7.5.4,1.7-1.2,2.3-1.8,3.5-.4.8-.9,1.5-1.3,2.4-.5,1.2-1.4,2.3-2.2,3.4-1.8,2.5-3.6,5-5.4,7.4-1.9,2.6-3.9,5.2-5.8,7.9-2,2.8-3.9,5.7-5.9,8.6-1.2,1.8-2.5,3.5-3.8,5.2-2.2,2.9-4.3,5.7-6.5,8.5-.5.6-1,1.2-1.7,1.8Z"/>
    <path d="M39.9,124.2c-1.8,1.9-3.3,4-5.4,5.8-2.3,2-4.2,4.6-6.2,7-.6.7-.9,1.8-1.6,2.4-2.2,2-3.4,4.7-5.1,7.1-3.3,4.8-5.7,10.2-8.5,15.4-.1-1.8,1-3.1,1.7-4.7,1.1-2.7,2.3-5.4,3.7-7.9,1.8-3.4,4-6.7,6.6-9.6,1.1-1.2,2-2.6,3-3.9.7-.9,1.4-1.8,2.2-2.7,2.8-2.8,5.6-5.6,8.4-8.4.3-.3.7-.4,1.2-.6Z"/>
    <path d="M299.5,307.2c1.4-.6.8-1.7.8-2.7,0-.8,0-1.6,0-2.4,0-.6.1-1.2.1-1.7,0-1.4.1-2.9,0-4.3-.1-1.2,0-2.6.2-3.7.5-2.1.1-4.1.3-6.1,0-.3.3-.5.5-.8.1.3.4.6.4.8,0,.9.2,1.9,0,2.7-.3.9.3,1.7,0,2.6-.2.8-.3,1.7-.5,2.5,0,.3,0,.6,0,.9,0,4.3,0,8.6,0,12.9,0,3.9.1,7.7,0,11.6,0,.9,1.2,1.8,0,2.8-.2.2-.4.4-.6.6,0-.3,0-.6,0-.9,0-1.6.1-3.2.2-4.8,0-.3,0-.6,0-1,0-1.5-.4-2.8-1-4.3-.6-1.3-.2-3.1-.3-4.7Z"/>
    <path d="M507.7,212.1c2.1-4.6,5.4-8.5,8-12.8,1.7-2.8,3.3-5.7,5-8.5,1-1.7,2.1-3.3,3.6-4.6.2-.1.5,0,.8,0,0,.2.1.5,0,.6-.7.8-1.3,1.8-2.1,2.4-.8.6-1.3,1.1-1.5,2.2-.2,1-1,1.9-1.6,2.9-1.2,2.1-2.2,4.2-3.5,6.2-2.7,3.9-5.4,7.8-8.1,11.7,0,0-.3,0-.5,0Z"/>
    <path d="M501.7,227.4c-.3.8-.6,1.7-1.2,2.4-1.2,1.3-1.7,2.9-2.4,4.4-.6,1.5-1.6,2.8-2.5,4.1-1.5,2.2-3.1,4.4-4.4,6.7-.8,1.4-2.1,1.8-3.2,2.6-.1,0-.5,0-.6-.1,0-.1,0-.5,0-.6,1.5-1,1.4-3.6,3.7-3.8.4-1.7,2.6-2.5,2.2-4.7-.1-.6.8-1.6,1.5-2.1,2.3-1.8,3-4.8,5-6.9.6-.6,1.1-1.3,1.7-2Z"/>
    <path d="M523.3,99.4c-1.1,1.2-2.8,1.3-4.2,1.7-4.5,1.5-9.2,2.7-13.8,4.1-4.7,1.5-9.3,3.3-13.9,4.9-.2,0-.4,0-.8,0,1.7-1.3,3.8-1.9,5.9-2.6,3.8-1.3,7.6-2.7,11.5-3.8,4.5-1.3,8.9-3.2,13.6-4,.5,0,1.1-.3,1.7-.4Z"/>
    <path d="M518.8,200.7c.4-.6.8-1,1-1.5.5-1.1.9-2.2,1.4-3.3,0-.2.2-.3.3-.4,0,.1.2.3.2.4,0,1.4.1,2.7-.9,3.9-1.2,1.3-2.2,2.8-3.1,4.3-1.1,1.8-2,3.7-3.1,5.4-.8,1.3-1.7,2.6-2.5,3.9-.1.2-.4.2-.6.3,0-.2,0-.4,0-.7,0,0,0-.2,0-.2,2.3-3.8,4.5-7.6,6.8-11.4.2-.2.4-.4.7-.8Z"/>
    <path d="M317.9,198.5c.2,2-1,3.8-1.4,5.7-.8,4-2.8,7.6-3.5,11.6-.5,2.8-1.7,5.4-1.8,8.2,0,.5-.2,1.1-.4,1.6-.2.4-.5.8-.7,1.2,0-.5,0-.9,0-1.4.3-2.3.8-4.6,1.5-6.8.9-2.9,1.4-5.8,2.3-8.7,1.1-3.7,2.4-7.4,3.6-11.1,0-.1.1-.2.3-.4Z"/>
    <path d="M524.4,190.9c.2-1.5,1.4-2.5,2.1-3.8.4-.7,1.2-1.3,1.5-2.1.8-1.9,2.3-3.4,3.4-5.1.4-.7.3-1.6,1.2-2.1.9-.5,1.1-1.4,1.4-2.3,0-.1.3-.2.5-.3,0,.1.2.3.1.4,0,.5,0,1.2-.3,1.4-1.3,1-1.9,2.4-2.3,4-.5,2-2.3,3.2-3.4,4.9-1,1.6-2.2,3.1-3.3,4.7-.1.2-.5.2-.9.3Z"/>
    <path d="M178.9,52.1c.1-1.6,1.7-2.2,2.3-3.5.2-.4.5-.8.8-1.3.6-.9,0-2.7,2-2.5.2,0,.6-.7.6-1,0-2,1.6-3.3,2.3-4.9.5-1.1,1-2.3,1.4-3.5,0-.2,0-.5,0-.7.3-.5.7-1,1.1-1.6.6.7,0,1.2-.2,1.8-.5,2.8-2.3,5.1-3.3,7.6-1.5,3.7-4.1,6.7-6.9,9.5Z"/>
    <path d="M303.6,274.7c.2-3.1,0-6,.5-8.8.3-1.9.2-3.8.4-5.7.2-2,.6-3.9.9-5.9,0-.1.1-.2.2-.4,0,.1.2.2.2.3,0,.7.1,1.5,0,2.2-.6,3.2-.8,6.5-.9,9.7,0,2.9-.3,5.9-.4,8.8,0,.2-.2.3-.3.5-.2-.2-.4-.4-.6-.9Z"/>
    <path d="M492,236.8c.3-.7.6-1.5,1-2.2,2.1-3.5,4.2-7,6.4-10.4.2-.4.4-.8.7-1.1.1-.1.5,0,.7-.1,0,.2-.2.3-.2.5-.5,2.3-2,4.2-3.2,6.1-1.7,2.5-2.9,5.3-5.3,7.3Z"/>
    <path d="M484.1,253.4c.7-1.1,1.3-2,1.9-2.9.6-.8,1.3-1.6,2-2.3,0,0,.4,0,.6,0,0,.2-.2.3-.3.5-.5.8-.9,1.8-1.6,2.5-1.6,1.6-2.6,3.5-3.4,5.6-.6,1.8-2.4,2.2-3.4,3.5,0,0-.7-.4-.7-.4.3-.8.6-2,1.1-2.1,2.2-.7,2.6-2.6,3.7-4.3Z"/>
    <path d="M202.7,328.4c0-.1.2-.1.2-.1,1.2,3.3,3.3,5.9,5.7,8.4.1.1.2.3.3.5-.3,0-.6,0-.8,0-.4-.3-.6-.7-1-.9-.3-.2-.8-1.4-.9,0-.2-.1-.5-.2-.6-.3-1.2-1.5-2.4-3-2.9-4.8-.3-.9-.1-1.7,0-2.7Z"/>
    <path d="M476,271.9c-1.1,1.5-2,2.9-3,4.3,0,.1-.2.2-.3.3,0-.2-.2-.4-.2-.6,0-.2,0-.5,0-.6,1.7-2.4,3.1-4.9,4.5-7.6.4-.9,1.4-1.5,2.1-2.2,0,0,.2-.2.3-.2,0,.2.2.4.2.6-.2.5-.2,1.2-.6,1.5-1.5,1.2-2,2.9-3.1,4.5Z"/>
    <path d="M432.1,327.4c-.1-.1-.2-.3-.1-.4,1.4-2,2.9-3.9,4.3-5.9.5-.7.8-1.5,1.3-2.2.9-1.3,1.9-2.5,2.9-3.8.1-.1.3-.2.5-.3,0,.2.1.5,0,.6-.6,1-1.3,1.9-1.9,2.8-.2.4-.6.7-.7,1-1.3,3.2-3.7,5.6-6.2,8Z"/>
    <path d="M502.8,225.6c-.1-.2-.2-.6,0-.7,2.1-1.8,2.9-4.6,4.7-6.6.8-.9,1.3-2.1,1.9-3.2,0-.1.3-.2.5-.2,0,.2.1.5,0,.6-1.2,2.1-2.1,4.4-3.5,6.4-1,1.5-2.5,2.3-3.5,3.7Z"/>
    <path d="M522,335c.3.5.4,1,.4,1.5,0,.3,0,.3-.6,0-.6-.3-2.7,0-3,.6-.7,1.1-.7,1.1-1.9.4-.2-.1-.6,0-.9.1-.9,0-1.7,0-2.6,0,.8-.4,1.5-1.1,2.3-1.1,2.1,0,4-1,6.2-1.4Z"/>
    <path d="M187.2,210.1c.2-.5.3-1.1.5-1.2.7-.2.6.5.5.9,0,.4-.3.8-.4,1.2-.2.8-.4,1.5-.4,2.3-.2,2.1-.3,4.3-.9,6.4-.3,1.3-.3,2.7-.5,4.1,0,.4-.3.8-.4,1.2,0,.2-.2.4-.3.6,0-.3-.2-.6-.1-.8.3-1.8.6-3.6.9-5.5.4-3,.8-6,1.2-9.1Z"/>
    <path d="M535.1,172.4c.8-.4,1.5-.8,1.8-1.3,1.5-2.7,3-5.3,5-7.6.1-.1.2-.3.3-.5,0,.2.2.5.2.6-.5,1.1-1,2.2-1.7,3.1-1.3,1.5-2.3,3.2-3.1,5-.5,1.1-2,2.1-2.9,2-.1,0-.3-.5-.2-.6.1-.3.4-.4.8-.6Z"/>
    <path d="M302.7,320.2c-.5-1.7,0-3.2-.1-4.6-.2-2.7.8-5.4-.2-8.1.6-1.2-.8-2.5.3-3.7.2-.2.2-.5.3-.7,0,.2.2.4.2.6,0,5.7,0,11.4,0,17.1,0,.2-.2.4-.3.6,0-.4-.1-.7-.2-1.3Z"/>
    <path d="M468.1,278.8c.8-1,1.5-1.9,2.1-2.9,1.1-1.9,2.1-3.8,3.2-5.7.1-.2.4-.4.7-.6,0,.3.3.8.2,1-1.9,2.3-2.6,5.3-4.7,7.5-.3.4-.5.9-.8,1.2-.2.2-.5.2-.8.4,0-.3,0-.6.1-1Z"/>
    <path d="M308.5,352.9c-.4-.4-1-.8-1.1-1.3-.5-2-1.4-3.9-1.6-6.1,0-.8-.3-1.7-.4-2.5,0-.3.1-.5.2-.8.2.3.6.5.7.8.3,1.2.4,2.5.7,3.7.5,2,1,4,1.5,6.2Z"/>
    <path d="M189.6,291.3c-.2-4.2-.3-8.2-.4-12.1,0-.4,0-.7,0-1.1,0,0,.2-.2.3-.2,0,0,.1,0,.1.2,0,.1,0,.3,0,.4.1,4,.3,7.9.5,11.9,0,.6.2,1.3.3,1.9,0,.3,0,.6-.1.8-.2-.2-.5-.4-.5-.7,0-.3,0-.6,0-1.1Z"/>
    <path d="M538.6,95.4c-2,.8-4.1,1.6-6.3,2.2-1.9.6-3.8.9-5.7,1.4-.3,0-.6-.2-.9-.3.3,0,.6,0,.8-.2,3.4-1,6.8-2.1,10.2-3.1.6-.2,1.2,0,1.9,0Z"/>
    <path d="M123.3,341.5c0,1.1.5,2.4-.6,3.1-.2.1-.6.1-.8,0-.7-.6-1.1-2.8-.5-3.6.9-1.2,1.3,0,2,.5Z"/>
    <path d="M397.6,75.7c.3.3.6.5.7.8.5.9.3,2-.4,2.3-.6.3-2.2-.5-2.4-1.1,0-.2,0-.5.1-.6.6-.5,1.2-1,2-1.3Z"/>
    <path d="M135.1,28.7c.4-.5,1-.6.9,0-.7,2.2-1.1,4.4-1.4,6.6,0,.8-.2,1.5-.4,2.3,0,.2-.2.3-.2.5,0-.2-.2-.4-.2-.6-.2-3,.5-5.8,1.3-8.8Z"/>
    <path d="M314.8,377c.9.9,1.8,1.9,2.8,2.9.8.8,1.6,1.6,2.4,2.4.3.3.7.5,1.1.8-.6,0-1.3,0-1.7-.3-.8-.6-1.4-1.4-2-2.2-.9-1.1-1.7-2.3-2.5-3.5Z"/>
    <path d="M5.8,265.2c-.5-2.1-.9-3.9-1.3-5.7,0-.3.1-.7.2-1,.2.3.4.6.5.9.4,1.6.7,3.1,1.1,4.7.3,1.3.7,2.5,1.1,3.8,0,.3,0,.6,0,.9-.2-.3-.5-.5-.7-.8-.3-.8-.6-1.7-.9-2.8Z"/>
    <path d="M528.8,99.9c-.4,1-1.7,1.1-2.6,1.2-1.5.2-2.9.5-4.3,1-.2,0-.5-.1-.8-.2.2-.2.3-.4.5-.5,1.1-.4,2.2-.8,3.3-1.1,1.2-.3,2.4-.3,3.8-.5Z"/>
    <path d="M192.6,333.1c.3-.5.5-.9.8-1.2,0,0,.5,0,.6,0,.1.1.1.4,0,.6,0,.2-.4.3-.4.5-.1.3-.1.7-.2,1.1.4-.1.7-.2,1.1-.4.3-.1.5-.3.7-.5,0,.3,0,.6,0,.9-.2.9-1.1,1.4-1.6,1.2-.8-.3-1.3-1.1-.9-2.3Z"/>
    <path d="M485.4,112.1c-.2.3-.4.7-.7.9-1.6.7-3.3,1.4-5,2.2-.2.1-.5.1-.7.1-.2,0-.4,0-.6-.1.1-.2.2-.4.3-.5,2.2-.9,4.4-1.7,6.7-2.5Z"/>
    <path d="M539,174.1c-.9,1.5-1.7,2.9-2.5,4.2-.1.2-.5.3-.7.4,0-.3,0-.5.2-.8.6-1.4,1.2-2.8,1.9-4.1.3-.5.9-1.3,1.1.2Z"/>
    <path d="M508.4,222.3c-.8,1.1-1.6,2.2-2.3,3.2,0,0-.4,0-.6,0,0-.2.1-.3.2-.5.9-1.5,1.9-3.1,2.8-4.6,0,0,.2-.1.3-.2,0,.1.2.3.1.4-.1.5-.3,1.1-.6,1.7Z"/>
    <path d="M478.3,264.3c-.2.4-.4.7-.6.9-.2.1-.4.2-.6.3,0-.2,0-.4,0-.6,0-.2,0-.4,0-.6-.2,0-.5,0-.6.2-.2.2-.2.6-.4.7-.2.2-.6.2-.9.3.1-.2.2-.4.3-.7.2-.4.2-.8.5-1.1.3-.3.8-.8,1.1-.7.4.1.7.7,1.1,1.3Z"/>
    <path d="M304.5,314.8c0-1.2.1-2.1.2-3.1,0,1,.2,1.9.3,2.9.2,2.1.2,4.3.9,6.4,0,.1-.1.4-.2.5-.1-.1-.2-.2-.3-.3-.1-.2-.3-.3-.3-.5-.2-1.9-.3-3.8-.5-5.9Z"/>
    <path d="M192.6,217c0,2.3-.2,4.7-.4,7,0,.4-.3.8-.4,1.2,0,.1-.1.2-.2.4,0-.2-.3-.3-.3-.5.1-1.3.3-2.6.4-3.8.2-1.4.4-2.8.8-4.2Z"/>
    <path d="M431.8,327.4c0,1.9-1.3,3.3-2.2,4.8,0,.1-.4.2-.6.1-.1,0-.3-.4-.2-.5.9-1.5,1.9-2.9,3-4.4Z"/>
    <path d="M4.3,198c-.8-.8,0-1.5.1-2.3.3-1.7.6-3.5.9-5.2,0-.2.2-.3.3-.5,0,.2.2.4.2.6-.2,1.5-.5,2.9-.7,4.4-.2,1-.4,1.9-.7,3Z"/>
    <path d="M575.2,86.8c.5.4.7.8,0,.9-1.7.3-3.3.6-5,.9-.2,0-.5-.1-.8-.2.2-.2.4-.6.6-.6,1.7-.4,3.3-.7,5.2-1Z"/>
    <path d="M512.7,214.4c.7-1.2,1.3-2.3,2-3.3,0-.1.3-.2.5-.3,0,.2.2.5.1.6-.8,1.4-1.6,2.9-2.5,4.3-.1.2-.6.3-.9.4,0-.4.1-.7.3-1.1,0-.2.3-.3.6-.6Z"/>
    <path d="M303.7,258c-.3-2.7.1-5.4.7-8.1.3,2.7-.2,5.4-.7,8.1Z"/>
    <path d="M394.4,377.4c0,.3,0,.7-.2,1-.7.8-1.4,1.5-2.2,2.2-.4.4-.9.8-1.4,1.2-.4-.9.5-1.1.9-1.5.9-1,1.9-1.9,2.9-2.8Z"/>
    <path d="M526.7,193.1c.3-1,.7-2,1.3-2.9.6-1,1.3-1.9,2.1-2.9-.5,1.3-1.2,2.7-1.9,4-.4.7-.9,1.2-1.5,1.9Z"/>
    <path d="M306.3,248.1c0-.4,0-.7,0-.9.2-.6.4-1.2.6-1.7,0,.6.3,1.2.3,1.7,0,1-.3,1.9-.4,2.9,0,.1-.4.3-.5.2-.1,0-.4-.3-.3-.4.1-.5.3-1.1.4-1.8Z"/>
    <path d="M538.8,95.4c1.3-.5,2.7-.9,4.1-1.3.8-.2,1.6-.2,2.4-.4-.6.7-1.6.5-2.3.9-1.3.7-2.7.9-4.2.8Z"/>
    <path d="M498.7,237.4c-.4.4-.6.7-.9.9-.3.2-.6.4-.9.6.2-.4.3-.7.5-1.1.6-.9,1.1-1.8,1.7-2.6.1-.1.5,0,.7-.1,0,.2-.2.3-.2.5-.3.6-.5,1.1-.9,1.8Z"/>
    <path d="M194,206.2c.2,2.3.2,4.6-.7,6.8.1-2.3.3-4.5.7-6.8Z"/>
    <path d="M523.4,193.3c.3-.2.7-.3.9-.5.4-.4.8-.9,1.2-1.4-.2.6-.3,1.2-.5,1.7-.3.6-.7,1.1-1.1,1.6-.1.2-.5.2-.8.2,0-.3,0-.6.1-.9,0-.2.1-.4.2-.7Z"/>
    <path d="M458.6,289.1c0-.3,0-.7.2-1,.5-.6,1-1.2,1.6-1.6.4-.3.2-1.6,1-1,.7.5-.2,1.3-.5,1.7-.6.7-1.4,1.2-2.3,1.8Z"/>
    <path d="M134.2,40.4c.2,1.6.3,2.9.4,4.3,0,.2,0,.4-.1.6-.1-.2-.2-.4-.3-.6-.7-1.5-.4-3.1-.4-4.7,0-.3.2-.6.3-.8,0,.4,0,.7.1,1.3Z"/>
    <path d="M177.4,191.3c-.9-.9-.4-1.4.4-1.5.6,0,1.1.4,1.7.7-.1.2-.2.6-.4.6-.5.1-1,.1-1.7.2Z"/>
    <path d="M552.8,93.6c.4-1.4,1.6-.8,2.5-.9.6,0,1.2.2,1.8.2-.7.2-1.3.5-2,.6-.7.1-1.5,0-2.4,0Z"/>
    <path d="M191.9,303.1c-.1.6-.2,1-.3,1.4,0,.1-.3.2-.5.3,0-.1-.1-.3-.1-.4-.2-1.3.5-2.6-.4-3.8.1,0,.2-.2.3-.2.2,0,.5.1.5.2.2.7-.3,1.6.5,2.5Z"/>
    <path d="M448.3,305.3c-.1-.7-.2-1.3.5-1.8.7-.5,1.3-1.2,1.9-1.8.2-.1.4-.2.6-.3,0,.3,0,.6-.2.7-.5.6-1.1,1-1.5,1.6-.4.5-.7,1-1.2,1.5Z"/>
    <path d="M196.4,283.7c-.2.8-.3,1.3-.4,1.8-.1.6-.2,1.1-.3,1.7,0-.6-.1-1.3-.1-1.9,0-.7,0-1.5,0-2.2,0-.2.2-.4.3-.7.1.3.2.5.3.8,0,.1.2.2.3.5Z"/>
    <path d="M394.7,377.4c.2-1.7,1.8-2.3,2.7-3.5,0,0,.3,0,.3,0,0,.2,0,.5,0,.6-.9,1-1.9,1.9-2.9,2.8Z"/>
    <path d="M302.7,299.5c0-.5,0-.9,0-1.1.3-.5-.7-1.4.5-1.5,0,0,.3,1.1.3,1.7,0,.6,0,1.3-.9.9Z"/>
    <path d="M307.1,241.7c.1-1.2,0-2.4.1-3.5,0-.2.3-.3.5-.5,0,.2,0,.4,0,.6,0,1,0,1.9-.1,2.9,0,.4-.2.8-.3,1.2,0,.1-.3.1-.5.2,0-.3,0-.5.2-.9Z"/>
    <path d="M281.8,220.5c.7-.7,1.3-1.3,1.9-1.8.1,0,.3,0,.5-.1,0,.2,0,.5,0,.6-.8.7-1.6,1.4-2.5,2-.1,0-.4,0-.5,0,.2-.2.5-.4.8-.7Z"/>
    <path d="M524.2,196.7c-.6,1.2-1.2,2.4-2,3.6.2-1.4.8-2.6,2-3.6Z"/>
    <path d="M546.9,94.6c.5-.1.9-.1,1.2,0,.2,0,.3.2.5.3-.2.2-.3.5-.5.5-.6.2-1.2.4-1.8.5-.3,0-.5-.1-.8-.2.2-.1.5-.2.7-.3.2-.2.4-.4.8-.7Z"/>
    <path d="M326.1,108.5c0-.6.1-.9.2-1.3,0,.3.2.6.3.9,0,.2,0,.4,0,.7,0,1.1,0,2.2-.2,3.3,0-1.1-.2-2.2-.3-3.5Z"/>
    <path d="M18.5,259.9c.3-.1.4-.2.5-.1.4.3.8.6,1.2,1-.3.1-.6.3-.8.4-1,.3-1-.4-.8-1.2Z"/>
    <path d="M352.3,399.6c.3.2.6.6.8.9.2.4,1,.8.1,1.1-.2,0-.8-.5-1-.9-.2-.3,0-.7,0-1.2Z"/>
    <path d="M467.5,276.5c.2-.4.4-.7.6-.8.3-.2.6-.3.9-.5,0,.4-.1.9-.3,1.2-.2.4-.6.6-.9,1-.1-.2-.2-.4-.3-.8Z"/>
    <path d="M489,110.7c-.8.9-1.9,1.5-3.4,1.4,1-.5,2.1-.9,3.4-1.4Z"/>
    <path d="M354.8,384.6c0,.2-.3.3-.5.4-.7.4-1.4.8-2,1.2,0-.1-.1-.4,0-.4.8-.4,1.3-1.5,2.6-1.3Z"/>
    <path d="M291.9,286.4c-.3.6-.5.9-.8,1.3-.2-.4-.6-.9-.5-1.3.2-.8.8-.5,1.3,0Z"/>
    <path d="M454.6,291.8c0-1.2.7-2,1.6-2.7,0,1.1-.8,1.9-1.6,2.7Z"/>
    <path d="M195.9,199.4c-.2.7-.3,1.3-.5,1.8,0,.2-.4.3-.5.5,0-.2,0-.4,0-.5,0-.6,0-1.1.1-1.7.1-.7.5-.5.9,0Z"/>
    <path d="M192.9,217c0-1.4,0-2.7.2-4.1,0,1.4,0,2.7-.2,4.1Z"/>
    <path d="M12,164.3c.3,1.2-.6,2.1-1.1,3.2-.3-1.2.6-2.1,1.1-3.2Z"/>
    <path d="M501.4,221.2c.4-.7.6-1.2.9-1.8,0-.1.4-.1.6-.1,0,0,.1.2,0,.3-.4.8-.9,1.5-1.4,2.3-.1-.2-.2-.4-.2-.7Z"/>
    <path d="M189.3,252.7c.2,1.1.3,2.3.3,3.5,0,.1-.1.2-.2.4,0-.2-.2-.3-.2-.5,0-1.1,0-2.2.1-3.4Z"/>
    <path d="M218.5,134.7c-1,.4-.6-.5-.5-.6.3-.5.7-.9,1.1-1.3,0,0,.4,0,.6,0,0,.2-.2.3-.2.5-.3.4-.5.8-.9,1.3Z"/>
    <path d="M307.6,250.8c.3-.2.6-.2.9-.2-.2.7-.3,1.5-.5,2.2,0,0-.1.2-.1.1-.1,0-.3-.1-.3-.2,0-.6,0-1.2,0-2Z"/>
    <path d="M516.7,208.8c0-.6.2-1.2.4-1.7,0-.2.4-.3.6-.4,0,.2.3.5.3.7-.3.6-.7,1-1.2,1.5Z"/>
    <path d="M507.5,212.1c.3.4.4.8.5,1.1-.5,0-1,.1-1.5.2,0-.2,0-.4,0-.6.2-.3.5-.5.9-.8Z"/>
    <path d="M133.9,217.9c.3-.9.6-1.8,1.1-2.7.2,1.1-.2,2-1.1,2.7Z"/>
    <path d="M174.4,269.8c.3-.2.5-.3.7-.4,0,.3-.1.5-.2.8-.3.6-.6,1.1-.9,1.7,0-.7.2-1.3.4-2.1Z"/>
    <path d="M200.4,203.1c-.2.4-.4.6-.6.8,0-.2-.3-.4-.3-.6,0-.3.2-.5.3-.7.1-.3.3-.5.4-.7,0,.3,0,.7.1,1.3Z"/>
    <path d="M523.4,193c-.8-.2-.5-.8-.2-1.2.2-.4.6-.6,1-.9,0,.4-.2.8-.3,1.1-.1.3-.3.6-.4,1Z"/>
    <path d="M443.1,311.2c0,.4.1.9,0,1.2-.2.4-.7.6-1.1.9.2-.4.4-.8.6-1.2.1-.3.3-.6.6-.9Z"/>
    <path d="M10.8,269.6c-.1,0-.3,0-.4,0-.2-.7-.3-1.3-.4-2,0,0,.1,0,.1,0,.8.5.6,1.3.6,2.1Z"/>
    <path d="M194.2,206.2c0-.8,0-1.6.2-2.3,0-.1.3-.2.5-.3,0,.1.1.3.1.4-.2.7-.4,1.5-.8,2.2Z"/>
    <path d="M453,301.6c.3-.1.4,0,.6,0-.3.5-.6.9-1,1.4,0,0-.3,0-.3,0,0-.1-.1-.3,0-.4.2-.3.4-.6.8-.9Z"/>
    <path d="M303.5,258c.1.7.1,1.3.1,2,0,.2-.2.5-.2.7,0-.2-.2-.4-.2-.6,0-.7.1-1.4.3-2.1Z"/>
    <path d="M303.6,284.6c0,.6,0,.9-.1,1.3-.1-.3-.2-.5-.3-.8,0-.3,0-.6,0-.9,0-.3.2-.6.3-.8,0,.3,0,.7.1,1.3Z"/>
    <path d="M503.5,218.7c0-.2,0-.6,0-1,0-.4.1-.9.7-.7,0,0-.1.5-.2.8-.1.3-.3.5-.6.8Z"/>
    <path d="M303.6,327.8c-.4-.3-.6-1.5-.3-1.7,0,0,.3.2.3.4,0,.4,0,.7,0,1.3Z"/>
    <path d="M304.9,277.4c0,.3,0,.4,0,.4,0,.1,0,.3-.1.4,0-.6-.2-1.3-.3-1.9,0,0,.2-.1.3-.2,0,.2.1.4.1.6,0,.1,0,.3,0,.7Z"/>
    <path d="M533.4,179.3c.2-.2.3-.4.4-.4.1,0,.2.1.4.2-.3.3-.5.6-.8,1-.2-.1-.3-.2-.5-.4l.4-.4Z"/>
    <path d="M3.1,252.9c-.9-.4-.2-1.3-.5-2,.9.4.2,1.3.5,2Z"/>
    <path d="M190.4,239.4c-.2,0-.4-.3-.3-.4,0-.3.2-.5.4-.8.2,0,.3.2.5.3-.2.3-.3.6-.6,1Z"/>
    <path d="M501.9,227.4c-.2-.7-.1-1.4.7-1.8-.1.6-.3,1.2-.7,1.8Z"/>
    <path d="M505.9,215.8c.2-.2.3-.4.4-.4.1,0,.2.1.4.2-.3.3-.5.6-.8,1-.2-.1-.3-.2-.5-.4.1-.1.2-.2.4-.4Z"/>
    <path d="M201.6,193.6c.1.5.1,1,.1,1.5,0,.2-.2.5-.2.7,0-.3-.2-.5-.2-.8,0-.5.1-1,.3-1.4Z"/>
    <path d="M523.5,99.4c.3-.2.7-.3,1.1-.4.2,0,.4.1.6.2-.2,0-.4.2-.7.3-.3,0-.6,0-1,0Z"/>
    <path d="M465.2,282.3c0,.4-.3.9-.5,1.3,0,0-.3-.2-.3-.2.2-.4.4-.7.8-1.1Z"/>
    <path d="M369.4,372.4c0-.4.3-.9.5-1.3,0,0,.3.2.3.2-.2.4-.4.7-.8,1.1Z"/>
    <path d="M189.7,247.2c0-.4,0-.6.1-.8v1.6c0-.2,0-.4-.1-.8Z"/>
    <path d="M491.7,247.2c0,.4-.3.9-.5,1.3,0,0-.3-.2-.3-.2.2-.4.4-.7.8-1.1Z"/>
    <path d="M200.5,198.2c.2,0,.3,0,.3,0,0,.5,0,1.1-.1,1.6,0-.5-.2-1-.1-1.7Z"/>
    <path d="M544.6,96.3c-.4,0-.5,0-.7,0-.2,0-.4,0-.6-.1.1-.1.2-.3.4-.3.4,0,.8,0,1.3.1,0,0,0,.1,0,.1,0,0,0,.1-.4.2Z"/>
    <path d="M530.7,186.8c0-.4.3-.9.5-1.3,0,0,.3.2.3.2-.2.4-.4.7-.8,1.1Z"/>
    <path d="M487.9,253.5c0-.4.3-.9.5-1.3,0,0,.3.2.3.2-.2.4-.4.7-.8,1.1Z"/>
    <path d="M355,384.6c0-.1,0-.3,0-.4.3-.2.6-.4.9-.5,0,0,.2.2.2.3-.4.2-.7.4-1.2.6Z"/>
    <path d="M458.4,289.1c-.1.5-.3.9-.7,1.4.1-.5.3-.9.7-1.4Z"/>
    <path d="M346.4,135.9c-.2.5-.5.9-.8,1.2.2-.5.5-.9.8-1.2Z"/>
    <path d="M3.1,253.2c.2.3.3.7.4,1.1,0,.2-.1.4-.2.6,0-.2-.2-.4-.3-.7,0-.3,0-.6,0-1Z"/>
    <path d="M304.6,310.2c-.1-.5-.1-.8-.1-1.2,0-.2.2-.3.2-.5,0,.1.2.2.2.4,0,.5-.1.9-.3,1.3Z"/>
    <path d="M427.3,336.7c-.7-.5,0-.8.2-1.1,0,0,.2,0,.3,0-.1.3-.3.6-.5,1Z"/>
    <path d="M201.3,179.2c.5.2.6,1,.3,1.3,0-.1-.3-.2-.3-.4,0-.2,0-.4,0-.9Z"/>
    <path d="M189.6,258c0,.4,0,.6-.1.8-.1,0-.3-.1-.3-.2,0-.3,0-.7.1-1,0,0,.1,0,.1,0,0,0,.1,0,.2.4Z"/>
    <path d="M307.2,258c-.4,0-.5,0-.4-.4,0-.1.2-.2.3-.4,0,.2,0,.4.1.8Z"/>
    <path d="M10.3,177.4c0,.2,0,.5,0,.7,0,.2-.2.4-.3.6,0-.2-.1-.4-.1-.6,0-.1,0-.3.1-.6.1-.1.3-.1.3-.1Z"/>
    <path d="M309.5,231c-.1,0-.1-.1-.1-.2,0-.4.2-.7.3-1.1,0,.4,0,.9-.1,1.3Z"/>
    <path d="M486.1,256.8c-.3,0-.4-.2-.6-.3.3,0,.6,0,.8-.1,0,0,0,.1,0,.1,0,0,0,.1-.3.3Z"/>
    <path d="M192,306.8c.2.1.3.4.3.6,0,.2-.1.4-.2.6,0-.2-.2-.4-.3-.7,0-.1,0-.3.1-.5Z"/>
    <path d="M9.3,170.6c.1,0,.1.1.1.2,0,.4-.2.7-.3,1.1,0-.4,0-.9.1-1.3Z"/>
    <path d="M10.4,168.8c0-.5,0-.9.2-1.4,0,.5,0,.9-.2,1.4Z"/>
    <path d="M10.9,271.1c-.1-.4-.1-.8-.1-1.2.8.2.5.7.1,1.2Z"/>
    <path d="M490.4,110.3c-.3.2-.6.3-1.1.5.3-.2.6-.3,1.1-.5Z"/>
    <path d="M189.1,272.9c0-.4,0-.6.1-.8.1,0,.3.1.3.2,0,.3,0,.7-.1,1,0,0-.1,0-.1,0,0,0-.1,0-.2-.4Z"/>
    <path d="M494.2,242.7c0-.3.2-.6.4-.9,0,0,.2,0,.3.2-.2.2-.4.5-.7.7Z"/>
    <path d="M12.5,163c0,.5,0,.9-.2,1.4,0-.5,0-.9.2-1.4Z"/>
    <path d="M376.2,363.9c0-.3.2-.6.4-.9,0,0,.2,0,.3.2-.2.2-.4.5-.7.7Z"/>
    <path d="M540.4,168.8c0,.3,0,.6-.2.9,0-.3,0-.6.2-.9Z"/>
    <path d="M63,242.8c.1.1.3.4.4.6h-.3c0-.1,0-.3-.1-.6Z"/>
    <path d="M9.5,170.6c0-.3,0-.6.2-.9,0,.3,0,.6-.2.9Z"/>
    <path d="M326.5,386.3c-.3,0-.6,0-.9-.2.3,0,.6,0,.9.2Z"/>
    <path d="M490.4,239.1c0,.3,0,.6-.2.9,0-.3,0-.6.2-.9Z"/>
    <path d="M539.9,169.7c0,.3,0,.5,0,.8,0,0-.2,0-.3,0,0-.2.1-.5.3-.7Z"/>
    <path d="M10,169.7c0-.3,0-.6.2-.9,0,.3,0,.6-.2.9Z"/>
    <path d="M491.3,237.7c0,.3,0,.6-.2.9,0-.3,0-.6.2-.9Z"/>
    <path d="M491.5,237.7c0-.3,0-.6.2-.9,0,.3,0,.6-.2.9Z"/>
    <path d="M14.5,163c0-.3,0-.5,0-.8,0,0,.2,0,.3,0,0,.2-.1.5-.3.7Z"/>
    <path d="M190.8,233.8c0,.3,0,.5,0,.7,0,0-.3,0-.3,0,0-.2.1-.5.3-.6Z"/>
    <path d="M448.1,305.3c0,.3,0,.5,0,.8,0,0-.2,0-.3,0,0-.2.1-.5.3-.7Z"/>
    <path d="M540.6,168.8c0-.3,0-.5,0-.8,0,0,.2,0,.3,0,0,.2-.1.5-.3.7Z"/>
    <path d="M438.4,141.3c0-.3,0-.6.2-.9,0,.3,0,.6-.2.9Z"/>
    <path d="M201,181.9c0-.3,0-.5,0-.8,0,0,.2,0,.3,0,0,.2-.1.5-.3.7Z"/>
    <path d="M550.5,92.7c.1-.1.4-.3.6-.4,0,0,0,.2,0,.3-.2,0-.4,0-.7.1Z"/>
    <path d="M438.1,141.3c0,.3,0,.5,0,.8,0,0-.2,0-.3,0,0-.2.1-.5.3-.7Z"/>
    <path d="M457.3,291.3c0-.3,0-.6.2-.9,0,.3,0,.6-.2.9Z"/>
    <path d="M437.5,143.6c0-.3,0-.5,0-.8,0,0,.2,0,.3,0,0,.2-.1.5-.3.7Z"/>
    <path d="M326.5,386.5c.3,0,.5,0,.8,0,0,0,0,.2,0,.3-.2,0-.5-.1-.7-.3Z"/>
    <path d="M133.6,217.9c0,.3,0,.5,0,.8,0,0-.2,0-.3,0,0-.2.1-.5.3-.7Z"/>
    <path d="M437.2,143.6c0,.3,0,.5,0,.8,0,0-.2,0-.3,0,0-.2.1-.5.3-.7Z"/>
    <path d="M189,208.1c0,.3,0,.5,0,.7,0,0-.3,0-.3,0,0-.2.1-.5.3-.6Z"/>
    <path d="M522.9,342.2c-.2.2-.3,0-.5,0,.2,0,.3-.2.5,0Z"/>
    <path d="M540.4,97.1c-.3,0-.5,0-.7,0,0,0,0-.3,0-.3.2,0,.5.1.6.3Z"/>
    <path d="M12.9,162.1c0,.3,0,.6-.2.9,0-.3,0-.6.2-.9Z"/>
    <path d="M14.3,163c0,.3,0,.6-.2.9,0-.3,0-.6.2-.9Z"/>
    <path d="M14.4,280.4c-.1-.1-.3-.4-.4-.6h.3c0,.1,0,.3.1.6Z"/>
    <path d="M465.2,279.6c0,.3,0,.5,0,.8,0,0-.2,0-.3,0,0-.2.1-.5.3-.7Z"/>
    <path d="M14.4,280.6c.2.1.3.3.5.7-.2-.1-.3-.3-.5-.7Z"/>
    <path d="M301.8,284.1c-.2.2-.3,0-.5,0,.2,0,.3-.2.5,0Z"/>
    <path d="M466.3,281.4c.1-.1.4-.3.6-.4,0,0,0,.2,0,.3-.2,0-.4,0-.7.1Z"/>
    <path d="M170.6.7c-.2-.1-.2-.4-.3-.6,0,0,.2,0,.3,0,0,.2,0,.4,0,.7Z"/>
    <path d="M456.7,352.3c.3,0,.5,0,.8,0,0,0,0,.2,0,.3-.2,0-.5-.1-.7-.3Z"/>
    <path d="M465.4,282.3c0-.2,0-.3.2-.5,0,.2,0,.3-.2.5Z"/>
    <path d="M465.8,281.9c0-.2,0-.3.2-.5,0,.2,0,.3-.2.5Z"/>
    <path d="M465.4,279.6c0-.2,0-.3.2-.5,0,.2,0,.3-.2.5Z"/>
    <path d="M465.8,279.2c0-.1,0-.3.1-.4,0,.1,0,.3-.1.4Z"/>
    <path d="M457.5,287.3c0,.1,0,.3-.1.4,0-.1,0-.3.1-.4Z"/>
    <path d="M456.4,289.1c0-.1,0-.3.1-.4,0,.1,0,.3-.1.4Z"/>
    <path d="M18,289.9c-.1,0-.3,0-.4-.1.1,0,.3,0,.4.1Z"/>
    <path d="M475.8,266.7c.1,0,.1.2.2.3,0,0-.2-.1-.2-.3Z"/>
    <path d="M302.8,262.2c.1,0,.1.2.2.3,0,0-.2-.1-.2-.3Z"/>
    <path d="M456.8,291.8c0-.2,0-.3.2-.5,0,.2,0,.3-.2.5Z"/>
    <path d="M459.3,291.7c-.1,0-.1-.2-.2-.3,0,0,.2.1.2.3Z"/>
    <path d="M552.6,93.6c0,.1,0,.3-.1.4,0-.1,0-.3.1-.4Z"/>
    <path d="M456.6,291.8c0,.1,0,.3-.1.4,0-.1,0-.3.1-.4Z"/>
    <path d="M190.4,294.8c-.1,0-.1-.2-.2-.3,0,0,.2.1.2.3Z"/>
    <path d="M550.3,92.7c0,.1,0,.3-.1.4,0-.1,0-.3.1-.4Z"/>
    <path d="M48.3,117.6c.1,0,.1.2.2.3,0,0-.2-.1-.2-.3Z"/>
    <path d="M4.3,257.9c-.1,0-.1-.2-.2-.3,0,0,.2.1.2.3Z"/>
    <path d="M3.7,256.3c.1,0,.1.2.2.3,0,0-.2-.1-.2-.3Z"/>
    <path d="M3.7,255.4c.1,0,.1.2.2.3,0,0-.2-.1-.2-.3Z"/>
    <path d="M304.6,305.4c.1,0,.1.2.2.3,0,0-.2-.1-.2-.3Z"/>
    <path d="M472.9,117.9c0-.2-.2-.3-.1-.3.1.1.1.3.1.3Z"/>
    <path d="M304.6,307.4c0-.1.2-.1.3-.2,0,0-.1.2-.3.2Z"/>
    <path d="M487.7,253.5c0,.1,0,.3-.1.4,0-.1,0-.3.1-.4Z"/>
    <path d="M443.3,311.2c0-.1,0-.3.1-.4,0,.1,0,.3-.1.4Z"/>
    <path d="M40.2,124.2c0-.1,0-.3.1-.4,0,.1,0,.3-.1.4Z"/>
    <path d="M224.2,124.7c0,.1,0,.3-.1.4,0-.1,0-.3.1-.4Z"/>
    <path d="M492,247.2c0-.1,0-.3.1-.4,0,.1,0,.3-.1.4Z"/>
    <path d="M191.3,245.4c0,.1,0,.3-.1.4,0-.1,0-.3.1-.4Z"/>
    <path d="M441.5,318c.1,0,.1.2.2.3,0,0-.2-.1-.2-.3Z"/>
    <path d="M494,242.7c0,.1,0,.3-.1.4,0-.1,0-.3.1-.4Z"/>
    <path d="M63,242.6c-.1,0-.3,0-.4-.1.1,0,.3,0,.4.1Z"/>
    <path d="M309.3,239.9c-.1,0-.1-.2-.2-.3,0,0,.2.1.2.3Z"/>
    <path d="M490.6,239.1c0-.2,0-.3.2-.5,0,.2,0,.3-.2.5Z"/>
    <path d="M309.3,231c0,.1,0,.3-.1.4,0-.1,0-.3.1-.4Z"/>
    <path d="M135.2,215.2c0-.1,0-.3.1-.4,0,.1,0,.3-.1.4Z"/>
    <path d="M383.4,351.6c0-.1.2-.1.3-.2,0,0-.1.2-.3.2Z"/>
    <path d="M460.2,351.3c0,.1,0,.3-.1.4,0-.1,0-.3.1-.4Z"/>
    <path d="M383,352.6c0-.1,0-.3.1-.4,0,.1,0,.3-.1.4Z"/>
    <path d="M137.7,208.5c0,.1,0,.3-.1.4,0-.1,0-.3.1-.4Z"/>
    <path d="M382.7,352.6c0,.2,0,.3-.2.5,0-.2,0-.3.2-.5Z"/>
    <path d="M137.9,208.5c0-.1,0-.3.1-.4,0,.1,0,.3-.1.4Z"/>
    <path d="M382.3,353.1c0,.1,0,.3-.1.4,0-.1,0-.3.1-.4Z"/>
    <path d="M378.2,360.8c0,.1-.2.1-.3.2,0,0,.1-.2.3-.2Z"/>
    <path d="M376,363.9c0,.1,0,.3-.1.4,0-.1,0-.3.1-.4Z"/>
    <path d="M200.1,200.9c.1,0,.1.2.2.3,0,0-.2-.1-.2-.3Z"/>
    <path d="M521.9,200.4c0,.1,0,.3-.1.4,0-.1,0-.3.1-.4Z"/>
    <path d="M524.4,196.7c0-.1,0-.3.1-.4,0,.1,0,.3-.1.4Z"/>
    <path d="M369.2,372.4c0,.1,0,.3-.1.4,0-.1,0-.3.1-.4Z"/>
    <path d="M526.4,193.1c0,.1,0,.3-.1.4,0-.1,0-.3.1-.4Z"/>
    <path d="M201.9,193.6c0-.1,0-.3.1-.4,0,.1,0,.3-.1.4Z"/>
    <path d="M182.1,50.3c0-.1,0-.3.1-.4,0,.1,0,.3-.1.4Z"/>
    <path d="M188.1,40.9c0,.1,0,.3-.1.4,0-.1,0-.3.1-.4Z"/>
    <path d="M136.8,25.6c0,.1,0,.3-.1.4,0-.1,0-.3.1-.4Z"/>
    <path d="M317.1,377.4c-.2,0-.3-.2-.3-.3.2,0,.3.2.3.3Z"/>
    <path d="M317.5,377.8c-.2,0-.3-.2-.3-.3.2,0,.3.2.3.3Z"/>
    <path d="M202.1,191.8c0,.1,0,.3-.1.4,0-.1,0-.3.1-.4Z"/>
    <path d="M13.8,163.9c0,.1,0,.3-.1.4,0-.1,0-.3.1-.4Z"/>
    <path d="M543.3,164c.1,0,.1.2.2.3,0,0-.2-.1-.2-.3Z"/>
    <path d="M12.7,167.5c0-.1,0-.3.1-.4,0,.1,0,.3-.1.4Z"/>
    <path d="M325.6,385.8c-.1,0-.3,0-.4-.1.1,0,.3,0,.4.1Z"/>
    <path d="M530.5,186.8c0,.2,0,.3-.2.5,0-.2,0-.3.2-.5Z"/>
    <path d="M224.4,132.4c-.2.4-.3.6-.4.9,0,.1-.2.2-.3.3,0-.2-.3-.3-.2-.5,0-.4.3-.8.4-1.2,2.1-4.2,4.1-8.3,6.3-12.5,1.5-2.8,3.1-5.6,4.8-8.4,3-5,5.8-10.2,9.3-14.8,1.9-2.5,3.5-5.2,5.3-7.7,1.5-2,2.8-4.3,4.8-5.9.1-.1.3-.2.5-.3,0,.3,0,.6,0,.8-3.8,4.4-7,9.3-10.2,14.2-2.5,3.8-5.4,7.3-7.5,11.3-1.9,3.5-4.2,6.8-6,10.3-1.2,2.4-2.5,4.8-3.6,7.3-.8,1.8-1.5,3.6-2.3,5.4-.1.3-.4.4-.7.8Z"/>
    <path d="M217.6,145.4c-.2-1.1.2-2,1.1-2.7-.3.9-.6,1.8-1.1,2.7Z"/>
    <path d="M219,142.7c0-.1,0-.3.1-.4,0,.1,0,.3-.1.4Z"/>
    <path d="M256.6,80.1c0,.1,0,.3-.1.4,0-.1,0-.3.1-.4Z"/>
    <path d="M256.8,80.1c0-.2,0-.3.2-.5,0,.2,0,.3-.2.5Z"/>
    <path d="M257.3,79.6c0-.1,0-.3.1-.4,0,.1,0,.3-.1.4Z"/>
    <path d="M217.4,145.4c0,.1,0,.3-.1.4,0-.1,0-.3.1-.4Z"/>
    <path d="M260.2,76c0,.1,0,.3-.1.4,0-.1,0-.3.1-.4Z"/>
    <path d="M260.7,75.6c0,.2,0,.3-.2.5,0-.2,0-.3.2-.5Z"/>
    <path d="M213.4,152.9c-.1,0-.1-.2-.2-.3,0,0,.2.1.2.3Z"/>
    <path d="M321.7,129.2c0-7,.2-13.9.3-20.9,0-1.7-.3-3.4-.9-5-.1-.3,0-.7.2-1,.2.2.5.5.7.7.1.2.2.4.3.6,0,1.5.3,3,.1,4.6-.2,1.7,0,3.4,0,5v4.4c0,1.8,0,3.6,0,5.5,0,2.1-.2,4.2-.8,6.2Z"/>
    <path d="M291.3,203.5c-.1.5-.3.9-.7,1.4.1-.5.3-.9.7-1.4Z"/>
    <path d="M290.4,204.9c0,.3,0,.5,0,.8,0,0-.2,0-.3,0,0-.2.1-.5.3-.7Z"/>
    <path d="M424.7,154c0-.7,0-1.1,0-1.6,0-.4-.4-1.2.5-1.1.1,0,.4.7.3,1,0,1.3-.2,2.7-.5,4,0,.3-.5.4-.7.7,0-.3-.2-.6-.1-.8.1-.7.3-1.4.4-2.3Z"/>
    <path d="M424.6,159.2c-.2.3-.3.5-.3.7,0,.3-.1.5-.2.8,0-.3-.2-.5-.2-.8,0-.4,0-.7,0-1.1,0-.4-.1-1,.6-.8.2,0,.2.7.2,1.2Z"/>
    <path d="M420.3,180.6c0,.7,0,1.5-.1,2.3,0,0-.2.2-.3.2,0-.1-.2-.3-.2-.4.1-.7.3-1.4.6-2.2Z"/>
    <path d="M421,176.5c.1.5.1,1,.1,1.5,0,.2-.2.5-.2.7,0-.3-.2-.5-.2-.8,0-.5.1-1,.3-1.4Z"/>
    <path d="M419,186.8c-.1,0-.1-.1-.1-.2,0-.4.2-.7.3-1.1,0,.4,0,.9-.1,1.3Z"/>
    <path d="M421.3,176.5c0-.3,0-.5,0-.8,0,0,.2,0,.3,0,0,.2-.1.5-.3.7Z"/>
    <path d="M421.5,175c-.1,0-.1-.2-.2-.3,0,0,.2.1.2.3Z"/>
    <path d="M426.1,149.6c.1,0,.3,0,.4.1-.1,0-.3,0-.4-.1Z"/>
    <path d="M499.9,337.7c-.2.2-.5.3-.9.4,0,0-.2-.1-.3-.2.1,0,.3-.2.4-.3.2,0,.4,0,.7,0Z"/>
    <path d="M497.3,338.2c.2.2,0,.3,0,.5,0-.2-.2-.3,0-.5Z"/>
    <path d="M493.1,339.5c0,.1,0,.3-.1.4,0-.1,0-.3.1-.4Z"/>
    <path d="M157.2,21.6c1.1,0,2.3.2,3.4.4.1,0,.2.4.2.6,0,0-.2.2-.3.3-1-.8-2.5,0-3.3-1.2Z"/>
    <path d="M163.4,18.9c0,.4,0,.7-.2.9-.2.2-.8.3-.9.2-.3-.5-.1-.8.5-.8.2,0,.3-.3.6-.3Z"/>
    <path d="M157.2,21.4c-.1,0-.3,0-.4-.1.1,0,.3,0,.4.1Z"/>
    <path d="M260.9,322.9c-.3-.9.6-1.2,1-1.8,0,0,.3.2.3.2-.4.5-.7,1-1.2,1.5Z"/>
    <path d="M260.7,322.9c0,.1,0,.3-.1.4,0-.1,0-.3.1-.4Z"/>
  </g>
</svg>