<?xml version="1.0" encoding="UTF-8"?>
<svg id="Layer_1" xmlns="http://www.w3.org/2000/svg" version="1.1" viewBox="0 0 507.5 330.7">
  <!-- Generator: Adobe Illustrator 29.3.1, SVG Export Plug-In . SVG Version: 2.1.0 Build 151)  -->
  <g id="Shape_125">
    <path d="M375.9,273.3c-4-3.5-8-6.9-11.9-10.4-3-2.8-5.7-5.8-8.5-8.8-1.6-1.7-3.2-3.3-4.8-5.1-2.8-3.3-5.6-6.6-8.4-9.9-1.8-2.1-3.6-4.3-5.3-6.5-1.8-2.4-3.4-4.9-5-7.4-3.5-5.7-7-11.3-10.2-17.1-3.3-6.1-6.3-12.4-9.5-18.6-.6-1.1-1.2-2.2-1.9-3.3-.8-1.2-1.8-1.5-2.8-.6-3.2,2.5-6.9,3.9-10.6,5.2-2.2.7-4.5.9-6.8,1.4-.7.1-1.4,0-2,.3-2.7,1.6-5.5.7-8.2.5-1.1,0-2.1-.8-3.1-1.1-.9-.3-2-.3-2.9-.7-.8-.3-1.4-.9-2.2-1.3-.6-.3-1.3-.5-1.9-.8-.2.6-.4,1.1-.5,1.7-.2,1.3-1.3,2.3-2.5,2.5-.7.1-1.4.5-2.1.8-1.9.9-3.7,2.3-5.7,2.5-2.7.3-5.2,1.6-8.1,1.5-1.8,0-3.7.7-5.5.5-2-.2-3.9-1.1-5.9-1.8-.1,0-.2-.2-.3-.3-2.3-1.2-3.1-.7-3.4,1.9-.2,2.5-.9,4.7-3,6.3-1.3.9-2.8,1.5-4.1,2.3-1.8,1.1-1.6,1.1-.7,2.9.8,1.6,1.4,3.3,2,5,.3.9-.8,2.6-1.9,2.6-1.3,0-1.9.9-2.8,1.4-.7.3-1.4.7-2.1.8-2.6.2-5,.8-7.1,2.6-.3.3-1.1.2-1.7.3-.7,0-1.4,0-2.1.2-1.2.3-2.4,1-3.6,1.1-.6,0-1.5-.5-1.8-1.1-1.7-3-3.3-6.1-4.9-9.1-1.4-2.8-2.8-5.5-4.2-8.3-2.9-6-5.7-12.1-8.8-18-1.9-3.7-4.3-7.2-6.5-10.7-1.5-2.4-3.1-4.6-4.5-7-.7-1.2-1.4-1.5-2.8-1.1-2.8.8-5.6,1.5-8.4,2.1-2.6.5-3.4,3.5-2.7,5.5,1.5,4.2,3.6,8.1,6,11.8,1.5,2.4,2.7,5.1,3.8,7.7.7,1.6.1,3.2-1,3.6-3.8,1.3-7.6,2.7-11.5,3.8-1.3.4-2.7.4-4,.9-1.9.7-5.7-1.4-6.8-3.2-2.5-4-4.7-8.3-7.7-12-2.6-3.2-6.1-5.7-9.3-8.5-.8-.7-1.7-1.2-2.6-1.7-2.4-1.5-2.2-5.2-1.5-7.5.6-2.1,1.5-3.8,3-5.4.4-.4.3-1.6,0-2.2-1.7-3.2-3.6-6.2-5.4-9.4-.3-.5-.5-.6-.9-.1-.6.6-1.2,1.3-2,1.7-2.1,1.2-4.2,2.3-6.3,3.3-1.4.6-3,.9-4.3,1.6-3.1,1.6-4.9,4.6-3.1,8.4,2.3,4.8,4.1,9.7,6.1,14.6,2.6,6.4,5.3,12.8,8,19.1,1.8,4.3,3.9,8.5,5.8,12.8,1,2.3,1.7,4.7,2.4,7.1.3.8-.2,1.4-1,1.7-.4.1-.9.2-1.1.5-2,2.6-5.1,2.9-7.8,4.1-2.4,1.1-5.1,1.8-7.6,2.6-2.4.8-3.1.3-4.2-1.9-.7-1.4-2-2.4-2.7-3.7-2.5-4.7-4.9-9.4-7.1-14.2-1.9-4-3.3-8.2-5-12.4-1.7-4.2-3.5-8.4-5.1-12.6-2.1-5.5-4.2-11.1-6.2-16.7-.8-2.2-.9-2.3-4-1.7-3.6.8-7.2,1.6-10.7,2.4-4,.9-8,1.9-12,2.7-2.5.5-5.1.4-7.6,1-2.3.5-4.7.3-6.8,1.7-.4.3-1.1.2-1.6.4-.5.1-1.2.3-1.4.6-.6,1.5-1.9,1.4-3.2,1.5-1.5.1-3.1.5-4.6.9-1.7.4-3.2-.6-3.6-2.3-.6-2.8,0-5.5,1.3-8,.4-.7,1-1.4,1.7-1.8,1.5-.8,3.1-1.4,4.7-2.2.3-.2.5-.8.5-1.2.1-2,.1-2.1,2.2-2.1,3.4,0,6.6-.9,9.8-1.8,3.7-1,7.4-1.7,11.2-2.4,3.1-.6,6.3-.8,9.4-1.2,2.2-.3,4.3-.8,6.4-1.2,1.1-.2.9-1.1.6-1.7-2.1-4.3-4.2-8.7-6.6-12.9-2.7-4.8-5.7-9.5-8.7-14.2-1.5-2.3-3.2-4.5-4.9-6.7-2.1-2.7-4.3-5.4-6.5-8.1-2.5-3.2-5-6.3-7.5-9.5-1.4-1.8-2.8-3.7-4.2-5.5-.3-.4-.7-.8-1-1.2-2.1-2.5-4.2-4.8-6.1-7.4-1-1.3-1.9-2.9-2-4.4-.1-1.7.4-3.7,1.3-5.1,1.7-2.5,4.2-4.1,7.1-5.2,1.3-.5,2.6-.9,3.9-1.5,1.6-.8,3.1-.7,4.8,0,4.7,1.9,7.1,5.9,9.8,9.7,1.9,2.7,3.8,5.4,5.8,8.1,2.2,2.9,4.5,5.7,6.8,8.6,2.5,3.1,4.9,6.3,7.3,9.4,1.1,1.5,2.1,3,3.2,4.5,3,4.4,6,8.7,8.8,13.2,2.2,3.5,4.2,7.2,6.2,10.8,1.8,3.4,3.6,6.8,5.3,10.3.7,1.6,3.7,2.4,5.2,2,4.1-1,8.1-2,12.2-2.9,1.2-.3,2.5-.2,3.7,0,.6,0,1,.9,1.5,1.4.3.3.7.6,1,.8,0-.5.4-1.2.2-1.6-1.2-2-2.6-3.8-3.9-5.8-.8-1.2-1.4-2.4-2.1-3.6-2.3-3.9-4.6-7.8-6.9-11.7-2.5-4.2-5.5-8-8.8-11.6-1.3-1.4-3.1-2.8-2.5-5.1.9-3.7,2.3-7,6.5-8,1.2-.3,1.8-.8,2.3-1.9.5-1.3,1.4-1.8,2.8-1.3.7.2,1.7,0,2.4-.2,2.1-.9,2.7-.9,4.3.7,1.9,1.8,3.7,3.6,5.6,5.3,2.5,2.2,4.2,4.8,5.9,7.7,1.9,3.3,4.1,6.5,6,9.8,2.1,3.6,4.2,7.2,6.2,10.8,2.2,3.9,4.4,7.9,6.5,11.9,2.1,4,4,8,6,12,1.1,2.2,2.6,2.9,5.5,2.3,2-.4,3.9-1,5.8-1.5,1.4-.3,1.6-1.2,1.2-2.4-1.6-5.2-3.6-10.3-6.8-14.8-2.8-4-5.4-8.3-8.9-11.8-.4-.4-.5-1-.7-1.5-.5-1.1-.8-2.5-1.6-3.4-2.5-3.1-2.5-4,.1-7,1-1.1,1.8-2.5,3-3.2,1.7-.9,3.3-1.9,5.1-2.6,1.6-.6,3.4-.5,5-1.5,1.6-1,3.8-.4,5.2,1.3,1.7,2,3.5,4,5.2,6.1,1.7,2.1,3.4,4.2,4.9,6.4,2.7,3.9,5.3,7.8,7.9,11.8,4,6.2,8.3,12.2,11.6,18.7,3.5,6.9,7.9,13.2,11.4,20.1.5,1,.9,2,1.4,3,.2.4.6.7.9,1.1.2-.5.7-.9.6-1.4-.2-1.7-.5-3.3-.8-4.9-.2-1.2-.7-2.4-.6-3.6,0-4.4-1.7-8.1-3.5-12-2.7-5.8-5.2-11.7-7.7-17.6-1.9-4.4-3.6-8.8-5.4-13.2-2.1-5.2-4.3-10.5-6.4-15.7-.4-1-.8-2.1-1-3.2,0-.4.2-.9.5-1.2.8-.8,1.8-1.5,2.6-2.3.5-.4,1.2-.7,1.4-1.2,1-1.9,2.7-2.2,4.6-2.4,1.5-.2,3-.6,4.4-.9,1.4-.2,2.8-.2,4.2-.3,2-.2,3.1.7,4.5,2.2,4.6,5,6.7,11.4,9.8,17.2,3.3,6.4,5.8,13.2,8.1,20.1,1.2,3.5,2.7,6.8,3.6,10.4,1.2,4.4,3.7,8,5.9,11.8,1.9,3.3,4,6.6,6.1,9.8.2.3.4.4.7.7,0-.3.3-.6.2-.9-.3-2.1-.7-4.2-1-6.3-.4-2.2-.7-4.4-1-6.6-.4-3.1-.8-6.2-1.2-9.3-.2-2.1-.4-4.2-.6-6.2-.7-5.3-1.2-10.6-3.5-15.5-1.6-3.4-2.5-7.2-4-10.7-1.2-2.6-1.5-5.3-1.4-8.1,0-.5.3-1.2.7-1.5,2.3-1.5,4.6-2.9,6.9-4.3.4-.3.7-.7,1.1-1,1.2-1.2,3.1-1.1,3.9.3.5,1,.5.7,1.1,0,.4-.5,1.2-.9,1.9-1,2.6-.5,4.1.8,5.8,2.7,2.6,2.8,4.7,5.9,6.1,9.4,1.2,2.9,2,6,2.8,9,1.3,4.9,3.4,9.5,5.5,14.1,2.2,5,4.5,9.9,6.9,14.7,3.5,7.3,7.5,14.3,12.1,21,.2.3.4.6.7.8.3.2.8.4,1,.3.2-.2.4-.7.4-1,0-1.8-.1-3.6-.3-5.4-.2-1.9-.6-3.8-.9-5.6-.3-1.8-.6-3.7-.9-5.5-.5-2.7-.9-5.3-1.5-7.9-1-4.5-2.3-8.9-3.3-13.4-.9-4.4-2.8-8.5-4.5-12.6-1.2-2.8-2.6-5.6-3.9-8.5-.2-.5-.2-1-.3-1.5-.1-1.1-.3-2.1-.3-3.2,0-.6.5-1.3.9-1.9.5-.8,1.3-1.5,1.8-2.4.7-1.4,2.6-2.9,4.1-2.8,1,0,1.5-.4,1.9-1.3.7-1.5,1.8-2,3.3-1.8,1.2.2,2.4,0,3.7,0,1.3,0,2.4-.1,3.4,1.2,1.9,2.6,4.3,4.8,6.1,7.4,1.8,2.7,3.2,5.7,4.7,8.6,1.7,3.2,3.3,6.3,4.8,9.6.6,1.2.8,2.5,1.2,3.7,0,.3.4.5.5.8.2-.2.5-.4.6-.7,2.2-5.2,5-10.1,9.3-13.7,2.7-2.2,5.2-4.9,8.8-6,1.6-.5,3-1.6,4.4-2.5,3.1-2.1,6.7-3,10.3-3.9,2.3-.6,4.6-1.4,6.9-1.8,4.6-.7,9.2-1.7,13.9-1.3,2.1.2,4.2.3,6.3.3,3.7,0,7.3.6,11,1.5,2.5.6,5,.9,7.5,1.6,1.7.4,3.4,1.2,5.1,1.8.4.2.9.3,1.4.5.1-.6.4-1.1.3-1.7-.3-1.8-.8-3.6-1.2-5.4-.3-1.6-.7-3.3-.9-4.9-.6-4.1-1.2-8.2-1.8-12.3-.2-1.5,1.4-4.9,2.9-5.7.6-.3,1.2-.6,1.6-1.1,1.5-2,3.5-2.9,5.8-2.1,1,.3,1.6,0,2.2-.4,1.4-1.1,2.9-.8,4.4-.4.1,0,.3.1.4,0,4.1-.6,5.2,2.8,6.4,5.4,1.5,3.5,2.1,7.3,2.6,11.1.5,3.9.7,7.8,2,11.6,1.5,4.7,2.3,9.6,3.7,14.3,1.3,4.1,3,8.1,4.7,12,1.3,3,3.1,5.7,4.5,8.7,1.5,3.2,4.2,5.6,6.2,8.4.8,1.1,1.1,2.2,1.1,3.5,0,1.4-.2,2.4-1.6,3.1-1,.6-1.6,1.6-1.5,3,0,.5-.4,1.1-.8,1.4-1.9,1.4-3.7,2.8-5.8,3.9-1.8.9-3.8,1.6-5.8,2-1.7.4-3.5.3-5.3.3-1.8,0-2.8-.8-3.6-2.5-2.4-5.1-4.2-10.5-7.7-15-3.1-4.1-6.7-7.6-10.6-11.1-3.8-3.4-8.1-5.8-12.6-7.8-3.9-1.8-8.1-3.2-12.1-4.8-3.9-1.5-8-2.1-12.2-2.5-3.2-.3-6.3-.2-9.4.6-1.3.3-2.8,0-4.2,0-6.3.4-11.4,3.8-13.7,10-.7,1.8-1.6,3.6-2.1,5.5-.6,2.1-1,4.4-1.2,6.6-.3,3.2-.7,6.5-.6,9.7.2,4.5.5,9.1,1.7,13.5.9,3.1,1.2,6.4,2.1,9.5,1.8,5.8,4.4,11.2,8.1,16,1.4,1.8,2.7,3.8,4.2,5.6.3.4,1,.8,1.6.8,2.2.2,4.1.8,5.2,3,.3.7,1.2,1.1,1.6,1.7,1.2,1.6,1.7,3.5,1.6,5.5,0,1.6.4,3.2.5,4.9.1,1.1,0,2.1-.9,2.9-1.5,1.4-1.5,1.7-.3,3.5,1.8,2.5,3.6,5.1,5.4,7.5,2.9,3.8,6,7.4,8.8,11.3,4.5,6.3,9.8,11.7,15.2,17.1,2.2,2.2,4.8,4,7.2,6.1,1.5,1.3,3,2.7,4.6,3.9,2.1,1.5,4.2,2.8,6.4,4.1,5,2.9,10.1,5.9,15.2,8.6,2.7,1.4,5.8,2.2,8.7,3.3,1.8.7,3.5,1.5,5.3,2.1,2.1.6,4.2,1.1,6.3,1.5,5,1,10,2.3,15,2.9,4.8.5,9.7.6,14.4.3,6-.4,10.9-3.5,14.3-8.5,1.4-2,2.2-4.3,2.6-6.9.4-3.5-.5-6.6-.9-9.9-.7-5.3-3.4-9.6-6.1-14-.6-.9-1.5-1.6-2.3-2.3-.3-.3-.8-.5-1.1-.9-1.4-1.6-1.9-4.2-4.7-4.4-.2,0-.3-.4-.4-.7-.7-1.4-1.3-2.7-2-4.2-.9-2.1-1.8-4.3-2.7-6.4-.3-.8-.8-1.5-1.2-2.2,0,0-.2,0-.3,0-.4-.1-.8-.2-1.2-.3.3-.3.5-.7.8-1,1.3-1,1.6-2.6,1.6-4,0-2.4.1-4.8,1-7.1.4-1,.9-1.9,1.5-2.8.4-.7.2-1.2-.4-1.7-.3-.3-.5-.7-.7-1.1.5-.2.9-.6,1.4-.6.5,0,1.1,0,1.7.3.2,0,.2.6.3.9.5.6,1.1,1.2,1.7,1.8.1-.1.3-.2.3-.4.7-2.8,1.2-3.2,3.7-2.3,1,.4,1.9,1.1,2.7,1.8.3.3.5,1.1.4,1.4-.5.9,0,1.4.5,1.9,1.5,1.5,2.9,3.2,4.6,4.5,3,2.5,5.1,5.8,7.3,9,2.6,3.7,4.8,7.6,7.7,11.1,4.8,5.8,7.5,12.7,10.1,19.6,1.4,3.7,2.2,7.6,2.6,11.5.2,2,0,4,.4,5.9.5,2.9-.6,5.4-1.2,8-.3,1.3-.5,2.7-.7,4.1-.2,1.9-1.8,2.8-2.7,4.2-1.4,2.1-3.5,3.8-4.7,6.2-.7,1.4-2.4,2.5-3.8,3.3-2.6,1.6-4.9,3.7-7.5,5.3-3.2,2-6.6,3.8-10.2,4.7-4.6,1.3-9.5,1.9-14.3,2.5-2,.3-4.2-.1-6.2-.2-2.3-.2-4.6-.1-6.9-.7-1.7-.4-3.6.3-5.3-1-.9-.6-2.5-.1-3.7-.5-1.4-.5-2.6-.8-4-.3-.3,0-.8,0-.9-.2-1.4-1.6-3.1-.9-4.8-.8-.5,0-1.2,0-1.6-.2-2.8-1.6-5.5-3.3-9-3.4-1.7,0-3.3-1.1-4.9-1.8-4.1-1.9-8.2-3.8-12.1-5.9-3.9-2.2-7.7-4.5-11.4-7.1-3.8-2.6-7.4-5.5-11-8.3-1.5-1.2-3-2.4-4.6-3.7M468.6,212.6c0-.3.2-.6,0-.8-.1-.3-.4-.5-.7-.7,0,0-.4.3-.4.4.2.3.4.5.6.8,0,0,.2.1.4.3M463.5,212c-.3,0-.5.1-.7.3,0,0,0,.4,0,.5.3-.2.6-.4.7-.8Z"/>
    <path d="M222.2,258.6c2.9-.3,5.7-.7,8.5-.9,4.2-.2,8.3-.2,12.5-.3,4.8-.2,9.7-.5,14.5-.6,3.7,0,7.5.1,11.2.2,2,0,4.1.1,6.1.4,2.7.3,5.4.8,8.1,1.1,1.5.2,3.1.1,4.7.4,3.4.5,6.8,1.1,10.2,1.8,4.8,1.1,9.2,3.3,13.6,5.5,5,2.6,7.3,6.9,8.9,11.9,0,.3.2.6.4.9,1.4,1.7,1.4,3.8,1.9,5.8.3,1-.1,1.8-1.4,1.8-3.2,0-6.3.9-9.4,1.6-.8.2-1.6.2-2.3.2-2.8,0-5.5-.1-8.3-.3-1.5,0-3.1-.3-4.6-.6-.6-.2-1.2-.8-1.7-1.3-.6-.6-1.1-1.2-1.8-1.7-1-.7-2-1.5-3.1-2-1.4-.5-2.5-1-3-2.5-.3-.7-1.3-1.3-2.1-1.6-2.5-.8-5-1.3-7.5-1.9-2.3-.5-4.7-1.1-7-1.5-1.7-.3-3.4-.3-5.1-.6-4.7-.9-9.4-.8-14.1-.9-4.1,0-8.1-.3-12.2-.3-4.9,0-9.9.3-14.8.6-3.8.2-7.6.5-11.4.9-3.4.4-6.7,1-10.1,1.5-2.6.4-5.3.5-7.9.9-3.9.6-7.7,1.2-11.6,1.9-1.5.3-3.1.5-4.6.8-2.2.4-4.4.9-6.5,1.3-3.6.7-7.3,1.3-10.9,2.1-2.7.6-5.3,1.4-8,2.1-3.2.8-6.5,1.5-9.7,2.4-2.6.7-5.3,1.6-7.9,2.4-1.8.6-3.5,1.4-5.3,1.7-2.7.4-4.8,1.9-7.2,3-4.2,2.1-8.3,4.3-12.6,6.3-2.3,1.1-4.9,1.8-7.1,3.1-1.5.9-3,.5-4.4,1.1-1,.4-2.1.6-3.2.9-.4,0-.8,0-1.2,0,.2-.6.4-1.6.7-1.7,1.5-.4,1.4-1.5,1.7-2.6.5-1.7,1.3-3.4,2.3-4.7,1.8-2.4,4-4.6,5.9-6.9,2.8-3.4,6.7-5.2,10.7-6.9,4.1-1.7,8.3-3.4,12.5-5.1,2.5-1,4.9-2.2,7.5-2.9,4-1.2,8.2-2.1,12.2-3.1,4-1,8.1-2.1,12.2-3,2.6-.6,5.3-.8,7.9-1.3,1.9-.3,3.7-.8,5.5-1.2,2-.4,4-.5,5.9-1,3.3-.8,6.6-1.3,10.1-1.5,2.2-.2,4.3-1.1,6.5-1.5,3.1-.6,6.2-1.2,9.4-1.3,2.8,0,5.3-.6,7.7-1.7,1.6-.8,3.3-.7,5-.8,1,0,2-.2,3.2-.3Z"/>
    <path d="M149,310.6c2.4-3.2,6.1-4,9.5-5.3,4.5-1.7,9-3.2,13.6-4.5,3.6-1.1,7.3-1.8,10.9-2.7,1.5-.4,3-.9,4.5-1.2,2.3-.5,4.6-.9,6.9-1.2,4-.6,8-.9,12-1.5,7.8-1.2,15.7-2.1,23.6-1.8,5.4.2,10.9-.3,16.3-.2,2.7,0,5.5.8,8.2,1.1,3.3.4,6.7.8,10,1.2,2.3.3,4.6.8,6.9,1.2,2.1.4,4.3.8,6.4,1.2,1.6.3,3.1.8,4.6,1.2,4.5,1.2,9.1,2.2,13.5,3.7,4.2,1.4,8.4,3,11.4,6.7.7.9,1.3,1.7,1.2,3,0,.6,0,1.3.3,1.8.6,1.3.5,2.6.3,4-.2,1.9,0,3.9,0,5.9,0,1.5-.7,2.2-2.2,2.3-.6,0-1.4.2-1.9,0-1.8-.6-3.3,0-5,.6-.2,0-.5,0-.7,0-3.8-.2-7.6-.3-11.4-.7-1,0-1.8-1-2.8-1.5-3.7-1.8-7.2-3.8-11.1-5.2-4.4-1.6-9-2.8-13.5-4-4-1-8.1-1.7-12.2-2.4-3.3-.6-6.6-1.3-9.9-1.8-1.6-.3-3.3-.3-5-.3-4.9-.1-9.7-.3-14.6-.3-4.3,0-8.6.2-12.8.6-4.2.5-8.4,1.3-12.7,2.1-3.4.6-6.7,1.1-10.1,1.8-3.3.7-6.5,1.6-9.8,2.6-6.8,1.9-13.1,5.1-19.5,8-1.8.9-3.9,1.1-5.9,1.7-2.4.7-4.7,1.2-7.2.6-.7-.2-1.5-.1-2.2-.2.3-.7.6-1.4.9-2.2.6-1.8,1.1-3.6,1.9-5.4.7-1.5,1.6-2.9,3.1-3.8.6-.3,1-.9,1.5-1.5,1-1.2,2-2.4,3.1-3.6Z"/>
    <path d="M379.8,159.4c.6,4.2.6,8.2,1.7,12.2.6,2,.5,4.2,2.2,5.7.9.8,1.9,1.7,2.9,1.9,2.9.5,5.8.7,8.8,1,1.7.1,3.5,0,5.3,0,.6,0,1.2.5,1.7.8.4.2.8.8,1.2.8,2-.3,2.5,1.2,3.3,2.4.9,1.4,1.9,2.8,3,4.2,2.3,3.1,1.9,6.5,1.1,10-1.1,4.5-2.3,8.9-3.2,13.4-.4,1.9,0,3.8,1.2,5.5,1,1.4.7,2.7-.7,3.7-1.5,1.2-2.8,2.5-4.1,3.7-.3.3-.7.6-1,.7-1.7.7-3.4,1.3-5,2.1-2.9,1.3-5.8,3.1-9.2,2.4-.5,0-1.1-.3-1.5-.7-1.6-1.6-3.3-3.3-4.8-5.1-.5-.6-.8-1.6-1-2.4-.3-1.4-.5-2.9-.6-4.4-.1-2.2.4-4.3,1.1-6.4,1-2.9,1.7-5.9,2.4-8.9,0-.4-.7-1.4-1.1-1.4-4.7-.5-9.1-1.9-13.1-4.3-1.5-.9-2.7-2.5-4-3.7-2.2-2-3.7-4.5-5.2-7-1.8-2.8-3.3-5.8-3.8-9.1-.5-3.4-.9-6.9-1.5-10.3-.5-2.9,0-6-1.1-8.8-.6-1.6.3-3.3,1-4.8.4-1.1.8-2.2,1.4-3.2.5-.8,1.2-1.5,1.9-2.2.6-.7,1.3-1.3,1.9-1.9.5-.5.9-1.2,1.9-.7.6.3,1.6-.1,2.2-.6,1.7-1.2,4.5-1.5,6.2-.3,1.5,1,2.9,2,4.3,3.1,2.6,1.8,3,4.8,3.7,7.5.4,1.6.4,3.3.6,5.2Z"/>
    <path d="M178.6,75.5c-2-4.2-3.4-8.3-3-12.9.2-2.4,0-4.7.4-7.1.3-2.2.2-4.3-.3-6.4-.4-1.6-1.3-2.3-2.6-2.8-3.4-1.2-6.1-4-6.2-7.7,0-2.3-.4-4.6-.2-6.9.2-3.7.7-7.3,1.2-10.9.2-1.6.1-3.3.7-4.8,1-2.9,2.2-5.8,4.6-7.9,2.6-2.2,5.1-4.6,7.8-6.8,1.5-1.2,2.8-.8,4,.6.6.8,1.6,1.3,2.3,2.1.6.6,1.2,1.3,1.5,2.1.7,1.6,1.2,3.3,1.7,5,0,0,0,.2,0,.3,0,1.7,0,3.3,0,5,0,1.2-.5,2.4-.8,3.6,0,.2,0,.4-.1.6-.1,2.4-.3,4.7-.3,7.1,0,.6.3,1.4.7,1.9,1.6,1.8,3.3,3.5,5,5.3,2.1,2.2,3.1,4.9,3.2,7.8.3,4.9.4,9.8.3,14.8,0,2.8.3,5.4,1.4,8,.4.8.1,2,0,3,0,.2-.3.5-.5.5-1.7.2-2.6,1.5-3.6,2.5-.2.2-.4.5-.7.5-3.7,1-7.2,2.6-10.5,4.5-1.9,1.1-4.6.7-6.1-.9Z"/>
    <path d="M431.7,242.5c1.4,2.4,2.7,4.7,4,7,1,1.9.2,3.9-1.9,4.6-.3.1-.7.3-1,.6-2.5,2.3-5.9,2.4-8.7,4-2.3,1.3-4.7.9-7.1,1.4-.6.1-1.4-.3-1.9-.8-1.7-1.9-3.3-3.9-4.8-6-.3-.4,0-1.1,0-1.7-.2-1.9.4-3.4,1.7-4.9.9-1,1.1-2.6,1.5-4,.1-.4-.2-1-.3-1.5.6.1,1.1.3,1.7.3.5,0,1-.4,1.6-.6.9-.3,1.6-1,2.6-.3.2.1.8.1,1,0,1.7-1.2,3.8-.7,5.7-1.1,1.9-.4,3.2.7,4.5,1.8.4.4.8.8,1.2,1.2Z"/>
    <path d="M48.3,177.7c-.3,0-.6,0-.8-.2.2-.1.4-.3.6-.4,2.8-.7,5.6-1.3,8.5-.6.2,0,.4,0,.5.1-.2.2-.3.4-.5.4-.6.1-1.3.3-2,.3-2.1,0-4.1.1-6.3.2Z"/>
    <path d="M463,259.8c-1.3,1.3-2,1.4-2.7.2-.5-.9-.4-1.7.4-2.1.8-.4,1.7-.2,2,.9,0,.3.2.6.2,1Z"/>
    <path d="M457.6,240.4c-.3-.7-.6-1.4-.8-2,0,0,.7-.5.9-.4.6.3,1.2.7,1.5,1.2.3.4.2,1.1.2,1.6-.6,0-1.2-.2-1.9-.4Z"/>
    <path d="M152.6,329.2c-1.5,0-3,0-4.4,0-.3,0-.6-.1-.9-.2.3-.2.6-.4.9-.5,1.4-.1,2.8-.2,4.3-.2,0,0,.2.5.2.8Z"/>
    <path d="M74.2,172.9c.3,0,.4,0,.6.1-.1.2-.3.5-.4.5-1.2.1-2.3.2-3.5.3-.1,0-.3-.2-.5-.2-.4,0-.9,0-1.3-.1.5-.2.9-.5,1.4-.5,1.2,0,2.4,0,3.8,0Z"/>
    <path d="M112.8,302c.1,0,.2,0,.2,0,.7-.3,1.3-.6,2-.9,0,.1.2.3.1.4-.7.6-1.3,1.3-2.1,1.7-.6.3-1.4.2-2,.2.6-.4,1.2-.8,1.8-1.3Z"/>
    <path d="M32.4,181.9c.9-.2,1.6-.5,2.3-.6.3,0,.7.4,1,.6-.3.1-.5.2-.8.3-.8.2-1.6.4-2.4.6-.3,0-.6-.1-.9-.2.3-.2.5-.5.9-.7Z"/>
    <path d="M44.4,159.1c-.9.3-1.7.6-2.5.9-.1,0-.4-.3-.5-.4.2-.2.3-.4.5-.4,1.3-.3,2.5-.6,3.8-.9.1,0,.3.1.5.2,0,.2-.1.4-.3.5-.5.1-.9.2-1.6.2Z"/>
    <path d="M261,317.3c.2.3.3.6.4.9-.7,0-1.4.2-2.1.2-.1,0-.4-.8-.4-.8.3-.3.7-.5,1.2-.6.2,0,.5.2.9.3Z"/>
    <path d="M180.7,317.3c.5,0,.9.1,1.2.2-.4.2-.7.6-1.1.6-.6.1-1.3,0-1.9,0-.2,0-.4-.1-.6-.2.2-.2.3-.6.5-.6.6,0,1.2,0,1.9,0Z"/>
    <path d="M78.7,172c-.6,0-1.1-.2-1.5-.2.5-.2.9-.5,1.4-.6.6-.1,1.2,0,1.8,0,.2,0,.5.2.7.3-.2.2-.4.4-.6.5-.5.1-1.1.1-1.8.2Z"/>
    <path d="M147.4,288.8c.4.1.8.3,1.1.5-.3.1-.6.3-.9.3-.7.1-1.5.2-2.3.3-.1,0-.3-.2-.4-.3.1-.1.2-.3.4-.3.7-.2,1.4-.3,2.1-.5Z"/>
    <path d="M198.1,314c1.3-.2,2.5-.3,3.8-.3.1,0,.3.2.4.3-.1.1-.3.3-.4.3-1.3,0-2.6,0-3.8-.3Z"/>
    <path d="M144.8,330.7c-.3,0-.6,0-.8-.1.1-.2.2-.5.4-.6.2-.1.6,0,.8-.1.5,0,1-.2,1.5-.3-.5.3-1,.5-1.5.8-.1,0-.2.2-.4.4Z"/>
    <path d="M158.7,324.8c.5-.4,1.1-.7,1.7-.9.2,0,.5,0,.7,0-.1.2-.2.7-.3.7-.7.1-1.3.2-2,.1Z"/>
    <path d="M462.8,310.4c-.8.2-1.5.3-2.3.3-.1,0-.3-.2-.4-.3.1-.1.3-.3.4-.3.8,0,1.5,0,2.3.3Z"/>
    <path d="M266.7,276.7c.3,0,.5,0,.6,0,.6,0,1.2.1,1.8.2,0,.1-.1.4-.2.4-.9,0-1.7-.1-2.6-.2,0-.1.1-.3.3-.4Z"/>
    <path d="M27.2,79.9c.3,0,.6.2.9.4-.4.4-.7.8-1.1,1.2,0-.5,0-1,.2-1.6Z"/>
    <path d="M46.6,253.4c.3.4.5.6.7.9-.4,0-.8,0-1.1-.2-.4-.3-.6-.8-.8-1.2.4.1.7.3,1.2.5Z"/>
    <path d="M175.6,283.3c-.5,0-.9-.1-1.2-.2.3-.2.7-.6,1-.6.3,0,.7.2,1,.3-.2.2-.5.3-.8.5Z"/>
    <path d="M104.5,288c.3,0,.5,0,.7,0-.1.2-.2.4-.4.6-.3.2-.7.4-1,.6,0,0-.2-.2-.3-.3.3-.3.7-.5,1.1-.9Z"/>
    <path d="M163,25.6c-.3,0-.5,0-.7,0,0-.2.2-.4.3-.6,0,0,.2,0,.3,0,.5.1,1,.3,1.5.4-.4,0-.9.1-1.4.3Z"/>
    <path d="M104.2,146.4c-.1,0-.2,0-.2,0-.4-.1-.8-.2-1.2-.3,0-.2.2-.4.2-.6.4.3.8.5,1.2.8Z"/>
    <path d="M57.9,124.9c0,.2-.1.3-.2.4-.4.1-.7.3-1.1.4,0-.2,0-.5,0-.5.4-.2.8-.2,1.3-.3Z"/>
    <path d="M203.5,279.1c-.4-1.3.6-.4.9-.6.2,0,.6.2.8.4-.1,0-.3.2-.4.2-.4,0-.8,0-1.3,0Z"/>
    <path d="M131,326.6c-.4-.4-.6-.7-.8-1.1.2,0,.5-.1.5,0,.2.4.3.8.3,1.2Z"/>
    <path d="M245.6,289c.6-.1,1.2-.1,1.8-.1,0,0,0,.3,0,.3-.6,0-1.2,0-1.8-.1Z"/>
    <path d="M56.5,122.7c-.3-.3-.5-.6-.7-.9.4,0,.7.1,1.1.2,0,.2-.1.5-.4.7Z"/>
    <path d="M235.8,144.4c.3.1.6.3.8.6,0,0-.1.4-.2.5-.2-.4-.4-.7-.6-1.1Z"/>
    <path d="M138.3,292.1c-.3,0-.5,0-.7,0,.3-.2.6-.5.9-.7.1,0,.4.2.6.3-.3,0-.5.2-.8.3Z"/>
    <path d="M169.6,284.6c-.4,0-.7,0-1,0,.2-.2.3-.4.5-.5.3,0,.6,0,1,0-.2.1-.3.3-.5.5Z"/>
    <path d="M110,303.7c0,.3-.2.6-.5.9,0,0-.3-.1-.4-.2.3-.2.5-.5.9-.7Z"/>
    <path d="M132.6,293.8c-.5.1-1,.1-1.5.1,0,0,0-.3,0-.3.5,0,1,0,1.5.1Z"/>
    <path d="M172.8,319.1c.4.1.6.3.9.4-.2,0-.5.2-.7.2-.3,0-.7-.1-1-.2.2-.1.5-.3.9-.4Z"/>
    <path d="M28.8,179.8c-.3-.3-.4-.5-.5-.8.2,0,.4,0,.5,0,0,.3,0,.6,0,.9Z"/>
    <path d="M63,175.3c-.4,0-.8,0-1.1-.1,0-.1,0-.3.1-.4.4.1.7.3,1,.5Z"/>
    <path d="M19.1,100.1c-.2-.2-.4-.4-.5-.7.3,0,.5,0,.8,0,0,.2-.1.5-.3.8Z"/>
    <path d="M60.7,83c.4.2.7.4.9.7,0,0-.3.2-.3.2-.3-.3-.5-.6-.6-.9Z"/>
    <path d="M6.5,133.8c0-.3.2-.6.5-.9,0,0,.3.1.4.2-.3.2-.5.5-.9.7Z"/>
    <path d="M19.5,287.3c.4,0,.8,0,1.1.1,0,.1,0,.3-.1.4-.4-.1-.7-.3-1-.5Z"/>
    <path d="M150.4,288.3c.2-.2.5-.4.9-.5,0,0,.1.1.2.2-.3.1-.7.3-1.1.3Z"/>
    <path d="M17,39.5c0,.3,0,.6-.2.8-.2-.1-.4-.2-.6-.4.2-.2.5-.4.8-.5Z"/>
    <path d="M79.9,107.7c-.4-.3-.6-.5-.8-.8.1,0,.3-.1.4,0,.2.3.4.6.5.9Z"/>
    <path d="M236.8,141.7c-.1.2-.4.4-.6.5,0-.1-.2-.3-.3-.4.3,0,.5-.1.8-.1Z"/>
    <path d="M199.5,278.6c-.1.2-.4.4-.6.5,0-.1-.2-.3-.3-.4.3,0,.5-.1.8-.1Z"/>
    <path d="M53.1,41.9c-.1.2-.4.4-.6.5,0-.1-.2-.3-.3-.4.3,0,.5-.1.8-.1Z"/>
    <path d="M261.9,277c-.3.1-.6.1-.9.1,0,0,0-.3,0-.3.3,0,.6,0,.9.1Z"/>
    <path d="M130.7,294.1c-.3.1-.6.1-.9.1,0,0,0-.3,0-.3.3,0,.6,0,.9.1Z"/>
    <path d="M45,178.9c-.3-.1-.5-.2-.6-.4.2,0,.4-.2.6-.2,0,.2.1.4,0,.6Z"/>
    <path d="M36.9,22.2c.3.2.4.3.5.5h-1.1c.1-.2.3-.3.5-.5Z"/>
    <path d="M0,165.5c.4,0,.7,0,1.1,0,0,.1-.2.3-.2.3-.3,0-.6-.2-.9-.3Z"/>
    <path d="M172.5.5c-.3,0-.6,0-.8-.1,0-.1.2-.3.3-.4.2.2.4.3.6.5Z"/>
    <path d="M365.8,267.4c0,.2-.2.4-.4.5-.1-.2-.2-.3-.4-.5.2,0,.5,0,.8,0Z"/>
    <path d="M108.4,305.2c-.2,0-.4-.2-.5-.3.3,0,.5-.1.8-.2,0,.1-.1.3-.3.5Z"/>
    <path d="M15.9,38.5c.3,0,.5,0,.8,0,0,0,0,.1,0,.2-.3,0-.5,0-.8-.3Z"/>
    <path d="M70.6,256.2c-.2-.2-.2-.4-.2-.6.2.1.5.3.7.4-.1,0-.3.1-.6.2Z"/>
    <path d="M73.1,253.4c0-.2.2-.4.4-.5.1.2.2.3.4.5-.2,0-.5,0-.8,0Z"/>
    <path d="M91.7,19.3c.3,0,.5,0,.8,0-.1.2-.2.3-.4.5-.2-.1-.3-.3-.4-.5Z"/>
    <path d="M32.2,241.9c.3,0,.6,0,.8.1,0,.1,0,.3-.1.4-.3-.1-.5-.3-.7-.5Z"/>
  </g>
</svg>