<?xml version="1.0" encoding="UTF-8"?>
<svg id="Layer_1" xmlns="http://www.w3.org/2000/svg" version="1.1" viewBox="0 0 525.7 638.7">
  <!-- Generator: Adobe Illustrator 29.3.1, SVG Export Plug-In . SVG Version: 2.1.0 Build 151)  -->
  <g id="Shape_73">
    <path d="M525.7,610.7c0,0-.2-.2-.1-.4.1,0,.1.2.1.4Z"/>
    <path d="M150.6,243.8c.4-.3.8-.4,1.2-.6.4-.2.7-.6,1-.8-.5-.5-.9-1.2-1.5-1.4-.5-.2-1.2,0-1.8,0-.6,0-1.1-1-.6-1.2,1.1-.3.9-1.1.8-1.8-.1-1,.8-.7,1.1-1.1.5-.5,1.1-.9,1.7-1.3-.8,0-1.6-.1-2.4.2-3,1.1-3.4.4-4.3-2.5-.3-1.1-.6-2,.2-2.9.1-.1.4,0,.6,0,0,0,0,.3,0,.3-.9,1,0,1.8.2,2.7,0,.3.2.7.3,1,.2-.4.5-.8.6-1.2.3-2.1-.3-4.1-1.4-5.9-.3-.5-.3-.7.1-1,1.2-.8,1-1.7.4-2.7-.8-1.3-1.2-2.6-.3-4,.2-.3.3-.9.2-1.3-.4-1.6-.8-3.2-1.2-4.9,0-.3-.3-.7-.1-.9,1-1.7,0-3.3-.4-4.8,0-.3-.1-.6,0-.9.4-1.6,0-3-.4-4.6-.4-1.6-.3-3.3-.5-4.9,0-.6-.2-1.2-.4-1.7-.4-1,0-2.3.7-2.6,1-.4.7-1,.6-1.4-.8-3-.9-6.1-.9-9.2,0-2.2-.3-4.5-.9-6.6,0-.2,0-.5,0-.7.8-2.2.3-4.5.5-6.8,0-.4.2-.7.2-1.1,0-.4,0-.8-.3-1.1-.1-.2-.7-.2-.9,0-2.4,1.5-5.1,2.3-7.7,3.4-1.7.7-2.8,2-4,3.2-.2.2-.3.4-.5.6-1.3-1.1-1.8.3-2.5.9-.2.1-.4.5-.5.5-2.6-.6-3.3,2.2-5.2,2.8-.7.3-1.5.6-2.2.9-.3.1-.8.2-1,.4-1,.9-2.1,1.1-3.3,1-.6,0-1.1.3-1.7.4-.9.3-.3,1-.5,1.5.3,0,.7,0,1,0,1.9-.6,3.7-1.2,5.6-1.8.2,0,.4-.2.6-.2.4,0,.7,0,1.1.1-.2.3-.4.6-.7.8-1.1.5-2.3.8-3.5,1.2-2.8,1-5.5,2.1-8.3,3.1-1.4.5-2.7.9-4.2,1.2-.9.2-1.9-.2-2,1.2,0,0-.2.2-.4.2-2.2,0-4.1,1.2-6.2,1.4-.4,0-.8.4-1.2.4-1.7.3-2.6,2.5-4.6,1.9-1.4.9-3,1-4.5,1.7,0,0-.1.2-.2.2-2.3-.6-4.1,1.2-6.2,1.5-.3,0-.6.4-1,.5-.6.2-1.5.5-1.9.3-.8-.6-1.4-.2-2,.1-1.9.9-2.9.6-4.2-.9-.2-.2-.7-.5-.8-.4-2,1-4.4,1.1-6.3,2.3-.3.2-.6.4-.8.7-.2.3-.3.7-.4,1-.2-.4-.5-.8-.5-1.2,0-.5,0-.8.7-1.1,4.5-1.8,8.9-3.7,13.3-5.8,1.8-.9,3.5-2.1,4.6-4,2-3.3,5.1-5.6,8.5-7.4,1.8-.9,3.6-2.3,5.5-1.7,2.5.7,4.4-.5,6.5-1.1.6-.2,1.3-.4,1.9-.4,1.4,0,2.5-.3,3.5-1.3.8-.7,2.5-.5,2.3-2.3,0-.2.7-.7,1.1-.7,2.2.4,3.6-1.1,5.3-2,.7-.4,1.5-.8,2.2-.8,2.7,0,4.7-2,7.2-2.5.5-.1.9-.9,1.3-1.3,2.2-1.9,4.3-3.8,6.6-5.6,1.4-1.1,3.1-1.6,4.8-1.9,1.9-.4,4,0,5.7-1.3,3,.2,5.7-1.2,8.6-1.9,1.3-.3,2.1-1.1,2.8-2.3,1.5-2.5,2.3-5.1,2.1-8,0-.9-1.2-1.8,0-2.7,0,0-.3-.6-.4-.6-1.6,0-2.8-.6-4.1-1.3-1.1-.6-2.6-.5-4-.5-1.5,0-2.7-.5-3.9-1.4-1.3-.9-2.9-1.3-4.3-1.9-.4-.2-.8-.3-1.2-.5-.1,0-.3-.4-.2-.6,0-.1.3-.3.5-.3,2.2,0,3.8-1.3,5.5-2.5,1.2-.8,2.6-1.2,4-1.7,1.7-.6,3.5-.9,5.2-1.5,1.9-.6,3.8-.9,5.6-1.7,2.5-1.1,4.5-2.7,6.7-4.1,1.6-1,3-2.3,4.4-3.5.7-.6,1.4-1.3,2-2,1-1.1,2.4-1.4,3.7-1.9,1.1-.4,2.3-.9,3.4-1.4.7-.3,1.6-.8,1.7-1.4.2-1.9,1.9-2.1,3-2.8,1.6-1.1,3-2.3,2.9-4.4,0-.6.4-1.3.4-1.9.2-3.3,1.7-6.4,1.8-9.6.1-3,.8-6.1-1.1-8.9-.5-.8-.3-1.4.4-1.7,2.1-1.1,4.3-2.1,6.4-3.2.2,0,.4-.2.6-.2,4.7-.7,7.3-3,9.3-7.7.7-1.5,1.4-2.9,1.3-4.6,0-.8-.3-1.3-.8-1.8-.5-.5-1.1-.9-1.4-1.5-.6-.9-1.3-.8-2.1-.3-.7.5-1.4,1.1-2.2,1.5-1,.5-1.6,1.4-3,1.4-.7,0-1.6.8-2.1,1.5-1.9,2.1-4.3,3.4-6.6,4.9-1,.7-2.3.9-3.4,1.3-1.8.6-3.7,1.3-5.6,1.8-.7.2-1.2.6-2.1.3-.7-.2-1.6.6-2.4.8-.8.2-1.6.3-2.4.5-.6.2-1.3.3-1.8.6-4.9,2.6-9.7,5.1-14.5,7.8-1.8,1-3.4,2.5-5,3.7-.4.3-.7.7-1,1-.7.7-1.4,1.6-2.4,1.1-1.1-.5-.7-1.7-.5-2.5.4-1.5-.2-2.9-.1-4.3,0-1.1-.5-2.3-.8-3.4-.9-3.7-3.8-5.4-7.1-6.3-1.2-.3-2.7.5-4,.9-.6.2-1.2.6-1.6,1.1-2.4,3.2-6.3,4.5-9.4,6.8-2.8,2-5,4.4-5.6,8-.3,1.6-1.1,2-2.8,1.6-1.7-.4-3.3-.9-4.9.6-1.2,1.1-2.1,2.7-1.5,4.1.4.9.1,1.3-.3,2-.9,1.5-2,2.5-3.5,3.3-.8.4-1.5.9-2.2,1.4-1.7,1.3-3.3,2.6-4.9,4-.6.5-1.1.7-1.8.7-1.2,0-1.9-.9-1.4-2,.5-1.1,1.1-2.2,1.7-3.3.9-1.4,1.7-2.7,3.4-3.5,1.1-.5,1.9-1.9,2.7-3,.5-.7.1-1.3-.7-1.3-.5,0-1.1,0-1.6,0-.3,0-.7-.3-.7-.5,0-.3.2-.8.4-.8,2.4-.8,3.9-3,6.5-3.5,1.1-.2,1.9-1.3,2.9-1.9,1.1-.6,2.2-1.1,3.3-1.6,1.7-.7,3.4-1.3,5-2.1.5-.2.7-.9,1-1.4.1-.2,0-.6,0-.9-.3,0-.6.1-.9.2-.4.1-.8.4-1.2.4-1.4,0-2.5.8-3.5,1.7-.6.4-1.2,1-1.9,1.1-.6,0-1.5,1-1.8-.2,0-.4.9-1.6,1.3-1.5,1.5.1,2.3-.9,3.5-1.3,1.2-.5,2.5-.8,3.8-1,1.8-.3,3.1-1.4,4.3-2.5,1-1,1.9-2.1,3.5-2.3.9,0,.8-1.8,2.1-1.5,1.4-1.6,3.6-1.9,5.2-3.3,1.7-1.4,1.9-1.4.5-3.4-.2-.3-.7-.7,0-.8,1.2-.3,1.6-1.7,3-1.9.7,0,2-.5,1.8-1.9,0-.2.2-.4.4-.5,1.8-1.1,3.1-2.7,4.4-4.3.5-.6,1.8-.7,2.7-.6,1.7.1,3.1-.3,4.6-1.1,1.7-1,3.4-2,5-3.2.5-.3,1.1-.3,1.7-.5.4-.1.8-.3,1.2-.5,1.9-1.2,4.1-2.1,5.7-3.6,2.2-2.2,4.7-3.1,7.5-4.1,3.1-1.2,6-2.9,9-4.2,1.6-.7,3.1-1.6,4.9-1.7.8,0,2-.3,2-1.7,0-.4,0-.9.2-1,.7-.4,1.4-.7,2.2-1,0,0,.3.1.4.2,0,.1,0,.4,0,.4-.2.2-.5.2-.8.4-.5.4-1,.8-1.5,1.1.7,0,1.4.3,2,.1.8-.2,1.5-.6,2.2-.9,1.1-.4.8-1.3.9-2.1,0-1.3.4-2,2.1-2,2.3,0,4.1-1.4,6.2-2,1.2-.4,2.4-.6,3.7-.8,0,.2-.1.3-.3.5-.2.2-.4.5-.5.7.2,0,.4-.2.7-.2,2.2-.8,4.3-1.5,6.5-2.4.2,0,1.6,0,.9-1.1,0,0,.4-.3.4-.3,1.8,1.1,3.4,0,5-.5,6.7-1.7,13.4-3.5,19.9-6.1,4.3-.2,8.1-2.3,12.3-2.9,1.9-.3,3.7-1.1,5.5-1.9.7-.3,1.1-1.1,1.6-1.6.3-.3.5-.7.9-.7.6-.2,1.3-.1,1.9-.2-.4.3-.9.7-1.5,1.1-.3.2-.5.2-.7.2,0,.1,0,.2,0,.3.2-.1.5-.3.7-.4.8-.2,1.6-.2,2.4-.5,1.6-.7,3.6,0,5-1.4.5-.5,1.2-.8,1.9-1.1.3-.2.9-.4,1-.3,1.4,1.2,2.7-.3,4.1,0,.3,0,.7-.7,1.1-1.1.5-.5,1.1-1.1,1.7-1.6.1,0,.7.2.9.5,0,0-.2.6-.4.8-.2.2-.5.2-.8.4-.2.1-.3.3-.4.5.3,0,.6.2.8.2.8,0,1.4-.7,2.1-1,1.9-.8,4-.7,5.9-1.5.5-.2,1.2-.2,1.8-.2.7-.1,2.3.5,1-1.3,0,0,.5-.6.7-.5.4,0,.9.3,1.1.6.7.8,1.5,1,2.4.4,2.4-.4,4.9-.7,7.3-1.1.6,0,1.4-.2,1.6-1.1.2-.7.8-1.2,1.3-1.8.3-.3.7-.5,1.1-.8.1.4.3.8.4,1.2,0,.8.5,1.2,1.3,1.2.9,0,1.6,0,1.1-1.3,0-.2.3-.5.3-.8,0-.5,0-1.1.6-.3.2.2.4.3.5.5,1,1.7,2.6,1.8,4.1,1.4,2.7-.8,5.6-.3,8.2-1.7.6-.4,1.6-.2,2.1.8.6,1,1.4,1.8,2.3,2.6.3.3,1,0,1.6,0,.6,0,1-.3.8-1-.3-1.6,1-2.4,1.9-3.2.8-.8,1.5-1.4,1.4-2.6,0-.2,0-.4.1-.6.2.2.5.3.6.5.3.4.3,1,.6,1.4.2.3.7.8,1,.8,2.1-.2,4,1.1,6.2.1,1.3-.6,3-.4,4.4-.5.3,0,.7.1,1,.3.2.1.3.5.4.7-.2.1-.5.3-.7.3-1.4.2-2.8.3-4.2.5-.2,0-.4.3-.7.4.2.2.4.5.6.5.8,0,1,.3.8.9,0,.3-.7.5-1,.5-.4,0-.8-.3-1.2-.4-1.1-.3-2.3-.7-3.4-.9-.9-.2-1.7,0-2.5.8-.7.8-1.2,2.1-2.7,2,0,0-.2.3-.2.4.7,1.9-1.2,2.8-1.8,4.2-.2.5-.8.9-1.3,1.3-.4.4-.9.9-1.3,1.3.6.6,1.2,1.2,1.8,1.7.5.4,1.1.7,1.7,1,.3.2.7.4,1,.4,1.1,0,2,.2,3,.7.3.2.9,0,1.4,0,.7-.2,1.4-.4,2.1-.7.3-.1.5-.4.7-.6-.3,0-.6.2-.7,0-.4-.5-1-1-1.1-1.6,0-.8.6-1,1.3-1.1.6-.1,1.7-.3,1.4-1.5,0-.2.5-.6.8-.8.9-.7,1.8-.4,2,.7.2,1,.3,2.1.5,3.1.4,2.4,1.4,3.4,3.5,3.8.7.1.6-.3.7-.8,0-.4.5-.7.7-1,.2.5.7.9.6,1.4-.2,1.5-1.4,2.4-2.6,1.6-1-.6-1.7.6-2.2.1-.6-.5-.8-1.4-1.2-2-.1-.2-.5-.2-.8-.3-1.3-.7-1.3-.7-.5-2.1.2-.3.1-.6.2-1-.4.2-1.1.3-1.1.5-.1,1.5-1.1,2.9-.4,4.6.3.6.3,1.5,0,2.2-.2.6-1.1,1-.7,1.8.5.9,1.2,1.7,1.9,2.6,0,.1.3,0,.4.2.2.4.3.7.4,1.1-.4,0-.7,0-1.1,0-.3,0-.7-.2-1-.5-.7-.7-1-.5-1.2.4-.1.6-.6,1.2-.9,1.7.6.1,1.1.2,1.7.4.7.1,1.6.6,2.1.4,1.8-1,3.1.2,4.5.7.3.1.7.3,1,.3.5,0,1.1,0,1.6,0,1.5.2,1.9.9,1.1,2.1-.9,1.5-2,2.8-2.5,4.6-.2,1.1-1.9,1.8-2.9,2.7-.5.4-1.2.5-1.2,1.6,0,.8-.9,1.6-2,1.7-.9,0-1.7.3-2.6.4-.9,0-1.6-.4-1.4-1.3.4-1.8-.6-2.9-1.8-4-1.4-1.3-2.7-2.6-3.9-4-.4-.5-1.3-1.2-.2-1.9,0,0,.1-.4,0-.5-1.3-.7-2.8-.6-4.2-.4-.6,0-1.2.8-1.6,1.4-.6.8-.8,1.8-.3,2.7.6,1.2.8,2.5.7,3.9,0,1.4.1,2.6,1.7,3.3.8.3,1.3,1.4,2,1.9.4.2,1.5.1,1.5,0,.3-1.3,2.2-1.9,1.4-3.5,0,0,.3-.3.4-.3.2,0,.4.2.4.4,0,1,0,2,0,3,0,1.2.6,1.8,1.4,1.2,1.5-1.2,3.2,0,4.7-.6,1.5-.6,3.3-.4,4.9-.2.5,0,1,.2,1.4.6,1,1,1.7.6,2.5-.3,1-1.1,1.6-2.2,1.4-3.6,0-.6-.5-1.3-.3-1.6.4-.6.1-.8,0-1.4-.3-.7-.3-1.8.8-2.1.9-.2,1.8-.2,2,1.2.1,1.1,1.2.7,1.7.4.3-.2,1.4,0,.9-1.3-.5-1.3-.3-3-.3-4.6,0-1.2-.1-2.2-1-3.1-.8-.9-.7-2.5.1-3.3,1.4-1.4,1.3-3.1,1.3-4.9,0-.1-.2-.2-.3-.3-.7,2-1.4-.2-2.1,0-.3,0-.6.4-.8.5.2.2.3.6.6.7.3.1.6,0,.9,0,.3,0,.5.2.8.2-.8.5-.4,1,0,1.5-.4,0-.8.2-1.1.1-2-.6-2.7-2.7-1.6-4.5.7-1.1.5-2.3.2-3.5-.1-.4-.4-1-.2-1.3,1.2-2.1-.8-3.3-1.4-4.9,0-.3-.5-.4-.6-.7-.8-1-.4-2.1.9-2.5,1.9-.7,1.9-.7,2-2.8,0-.5,0-1,.7-.8.2,0,.9-.2.5.5-.2.4-.5.7-.6,1.1,0,.2.2.5.3.7,0,0,.5,0,.5-.2.2-.4.2-1.1.4-1.1.7,0,1.5,0,2.3,0,.3,0,.7.3,1,.5.7.5,1.2.4,1.8-.2,1-1,1.9-2.3,3.2-.4,1.6,0,3.2-.1,4.8-.2,2.1,0,4.3-.4,6.4-.2.9.1,1.6.1,2.5,0,1.2-.3,2.5-.4,3.8-.1,1.3.2,2.8.1,4.1.2.2,0,.4.2.5.1,2.7-1.6,5.7-.4,8.6-.7.3,0,.6,0,.8.2,1.4,1.3,3,.5,4.6.6,1,0,2,0,3,0,1.1,0,2.1.1,3.2.1.2,0,.7-.3.7-.5.1-1.7,1.4-1.4,2.4-1.4.5,0,1,.1,1.4.3-.8.2-1.5.1-2.1.3-.2,0-.4.4-.5.6.2,0,.4.2.6.2.6,0,1.2,0,1.8,0,.2,0,.2-.6.3-.9.6.2,1.2.2,1.6.5,1.2.9,2.6,1,3.8.3,1.2-.7,2-.3,2.7.6.9,1.2,2.4,1.4,3.7,1.8.5.2,1.2,0,1.7-.2.2,0,.4-.5.4-.7,0-.1-.4-.3-.6-.4-.4,0-.8,0-1.2,0-.5-.1-.9-.4-1.4-.6.4-.1.9-.3,1.3-.3,1.9.3,3.8.5,5.7.9.9.2,1.3,1,.7,1.7-.7.8,0,1.4.4,1.4,2.1,0,1.9,1.9,2.6,3.1.2.3.3.6.5,1.1-.7.1-1.8.1-1.7-.5.2-1.6-1.1-1.3-1.7-1.5-.8-.4-1.8-.3-1.7-1.6,0-.1-.5-.4-.6-.4-.4.2-.8,2.4-.5,2.8,1.2,1.1,1.2,2.5,1.1,4,0,1,.3,1.8,1.4,1.6,2.1-.4,3.7.8,5.6,1.2.6.1,1.3.4,1.7.2,1.8-1,3.3,0,4.8.7,1.4.7,2.6,1.7,3.9,2.4.3.2.7.1,1.1.2,1.2.3,2.4.7,3.6.9.9.2,2.1.7,2.8.4,1.4-.7,3.2,0,4.4-1.3.2-.2.7,0,1.1,0,.4,0,.9,0,1.3.1-.3.3-.7.5-.9.8-.4.5-.7,1.1-.9,1.6-.3.8-.4,1.4-1.5.9-.7-.3-1.4,1-1,1.7.9,1.4.8,1.7-.4,2.6-.7.5-1.5.9-2.2,1.3-.3.2-.6.5-.9.7.3.3.6.7.9.9,1.8.8,1.9,1.3.5,2.6-1,1-2.4,1.7-2.5,3.7,0,1.1-1.3,2.3-2.2,3.2-1,1.1-1.4,2.2-1.4,3.6,0,.5,0,.9,0,1.4-.4,2.3.3,4,2.5,5,.4.2.8.6.9,1,.2.5.1,1.2.4,1.7.2.3,1.2.2,1.3.6.4,1,.8,2.1.9,3.1,0,.9.2,1.7,1,2.4.7.6.4,1.3-.4,1.6-.6.2-1.3.2-1.6.5-.3.4-.2,1.1-.3,1.7-.3,4.4-1.2,8.5-3.5,12.3-.5.8-1.3,1.9-.2,3.1.2.2.2,1.1,0,1.3-1.5,1.7-1.2,3.9-1.7,5.8-.4,1.7-.6,3.4-1.5,5-.6,1.1-.9,2.4-1.5,3.6-.4.8-1,1.5-1.6,2.1-.8.7-.6,1.2-.2,1.9.2.3.4.6.5,1,.2,1-.6,1.5-1.5,1-1.3-.7-2.4-.6-3.8-.2-1.2.4-2.5.5-3.8.5-1,0-1.8.1-2.4,1-1,1.5-2.6,1.1-3.8.8-2.3-.7-4.5-1.6-6.5-2.8-3-1.8-6.1-3.4-8.5-6.1-.4-.4-.7-.8-1.2-1.1-1.3-.9-1.6-.7-2.8.5-1.2,1.3-2.7,2.5-4.1,3.6-.3.3-.8.2-1.3.3-.4.1-1,0-1.2.4-1.3,2-3.2,1-4.8,1-.4,0-.8-.3-1.2-.4-.1,0-.3-.1-.4-.2.2,0,.3-.3.5-.3.6,0,1.2,0,1.9,0,.7,0,1.1-.3,1.4-.9,1.1-2.3,2.2-4.6,3.3-6.8.1-.3.4-.5.7-.7.1,0,.3,0,.5,0,0,.2,0,.3,0,.5-1,2.4-2.2,4.7-3.6,6.9-.1.2-.2.5-.3.8.3,0,.7,0,1,0,1.2-.5,2.4-1,3.5-1.7.5-.3.9-1,1.1-1.6.4-1.2.6-2.4,1-3.6,0-.2.3-.4.4-.6.2.3.5.7.5,1-.2.8-.6,1.6-.9,2.4,0,.2-.1.4-.2.6.2,0,.5,0,.6-.2.6-.7,1.3-1.5,1.8-2.3.2-.3,0-1.2-.3-1.4-.9-.5-1.6-1.5-3-1.3-1.5.2-3-1.1-4.5,0,0,0-.9-.5-.9-.8.2-1.4-.8-1.2-1.5-1-1.6.4-2.9-.2-4.1-1.1-.5-.4-1.2-.4-1.9-.5-2.4-.3-4.7-1.4-7.2-1.3-2.4.1-4.8-.6-7.1-.3-3,.3-5.8-.6-8.8-.6-.3,0-.7-.2-1-.4-.2-.2-.2-.5-.3-.8.2,0,.5.3.7.3.4,0,.8-.2,1.2-.4-.1-.4-.2-.9-.5-1.2-.4-.4-1-.5-1.5-.8-1-.6-2-1.2-2.9-1.9-.5-.4-.9-.9-1.3-1.3-.3.5-.6,1-1,1.3-.3.3-.8.4-1.2.5-.6.2-1.3.2-1.9.5-1.1.6-2.1,1.3-3.3.1-.2-.2-.6-.2-.8-.1-1.5.7-3.4,0-4.9,1.3-.8.7-3.6.8-4.7.6-1.4-.2-2.6.8-3.8.7-1.1,0-2.4-1-3.6-.7-.8.3-1.3.6-2,0-.1-.1-.5,0-.7,0-2.9.6-5.9-.4-8.8,0-1.6-1.3-3.2.2-4.8,0-1.6-.1-3.4-.4-4.9,0-2.3.6-4.5,1-6.9.9-1,0-2.1-.2-3.1-.3-1.5-.2-3.1.3-4.6.5-.4,0-.8.3-1.3.3-3.7,0-7.1,1.1-10.4,2.5-1.1.5-2.4.6-3.6.8-.2,0-.4-.3-.7-.4.2-.2.3-.4.6-.5,1.2-.3,2.4-.6,3.6-1,.2,0,.4-.3.5-.5-.2-.1-.5-.4-.7-.4-1.7.1-3.3.3-5,.4-.6,0-1.3-.3-2-.3-.5,0-1.2,0-1.6.4-1,.7-2,.8-3.2.9-2.1,0-4.1.6-6,1.4-.5.2-1.1.4-1.7.5-.2,0-.4-.3-.6-.4.1-.2.2-.4.4-.5,1.8-.8,3.3-2.2,5.5-1.9.2,0,.4-.1.6-.2-.2-.2-.4-.5-.6-.6-.3-.1-.8-.2-1.1,0-2.5.5-5.1.5-7.6,1.5-1.9.8-3.9,1-5.9,1.6-.9.3-2.2.1-3.3.1-.6,0-1,.3-.5.8.9.9-.1,1.2-.5,1.6-.3.5-.5.4-.6-.2-.2-1.4-.5-1.6-1.8-1.1-1.6.5-3.1,1.1-4.8,1.4-1.1.2-2,1.5-3,2.3-.2.1-.3.2-.5.3,0-.2-.2-.4-.1-.6,0-.3.3-.7.4-1,.8-1.8.6-2.3-1.3-3-.2,0-.4-.3-.6-.4.2-.2.4-.3.6-.5.3-.4.6-.8.8-1.2.2-.4-.3-1.1.7-1.1,1,0,2,0,2.6.9.4.5.4,1.7.8,1.9,1.1.4,2.3.6,3.5.5,1.4,0,2.7-.6,4.1-.9.3,0,.5-.3.7-.5,1.7-1.1,3.3-2.1,5-3.2.2-.1.2-.5.4-.8-.3,0-.6.1-.8.2-1.7.3-3.5.7-5.2.9-.3,0-.9-.1-1-.3-.6-1.6-1.4-.9-2.3-.4-.2.1-.4.2-.6.2-2.5.2-5,.5-7.5.4-1.9,0-3.8-.5-5.5-1.4-.6-.3-1.3-.6-.6-1.5.2-.2,0-.9-.2-1.4-.1-.5-.4-.9-.6-1.4-.2-.4-.3-.8-.5-1.3-.3.4-.7.7-.9,1.2-.5,1.1-1.4,2.1-.6,3.7.4.8.3,2-1.3,1.8-.6,0-1.3.2-1.9.4-.6.2-1.1.8-1.8.2-.7-.6-1.5-1-2.1-1.7-.3-.4-.2-1.1-.2-1.7,0-1,.3-2.1.3-3.1,0-.4-.3-.9-.6-1.1-.2-.1-.8.2-1.1.5-.7.7-1.4,1.4-.6,2.7.6.9.9,2.1.9,3.1,0,1-.7,2-1.1,3,0,.2,0,.5-.1.8.2-.1.5-.4.7-.3.3.1.6.5.6.7-.2,1-.7,1.8,0,3,.3.6-.6,1.8-.9,2.8-.3-.2-.7-.3-.8-.6-.2-.9-.4-1.9-.5-2.8,0-.9-.5-.9-1-.3-.5.7-1.4,1.5-1.3,2.2.2,2.2-1.3,2.6-2.7,3-.9.3-1.7.3-2.4,1-.5.4-1.2.6-1.8.9.6.4,1.1.7,1.7,1.1.1,0,.2.2.4.5.3.1.4.1.6.2l-.4-.3c.3-.8.6-1.6.9-2.4,0-.1.3-.3.4-.2.2.1.4.3.5.5.5,1.4.5,1.4,1.5,1,.7-.3,1.7-.9,2-.6.9.6,1.7,1.6,2.1,2.6.8,1.9,1.4,2.2,3.4,1.7,2.3-.6,4.7-1,7.1-1.5.2,0,.5.2.7.3-.2,0-.4.1-.6.2-2.9,1-5.8,2.1-8.8,3.1-1.5.5-2.2,0-2.3-1.7,0-.5-.2-1-.3-1.5-.5.2-1.1.5-1.6.7-.3.2-.6.5-.9.7-1,.4-1.2,1-.7,1.9.4.9.5,1.7-.7,2.1-.2,0-.3.6-.5.9.3,0,.6.2.8.2,1.7.2,3.2,0,4.2-1.6.8-1.3,2.4-1,3.6-1.6,1-.5,2.2-.4,3.4-.6-.9.5-1.9.9-2.9,1.4-.5.2-1.1.3-1.6.7-.4.3-.7.8-.8,1.3,0,.2.6.5.9.9,1.1,1.3,2.3,1,3.6.5,3.6-1.4,7.4-2,10.9-3.6,2.1-1,4.4-1.4,6.7-2,.2,0,.4.1.6.2-.1.2-.2.6-.3.7-1.3.5-2.7,1.1-4.1,1.4-4.5,1-8.7,3.1-13.2,4.3-.4.1-.8.4-1.1.7-.3.3-.3.8-.5,1.2.4.1.8.4,1.2.3.6-.1,1.2-.5,1.8-.8.2,0,.5,0,.8,0-.1.2-.2.5-.3.7-.1.1-.5.1-.6.3-.3.3-1.3.1-.8.9.2.3,1,.3,1.5.2.8-.3,1.5-.9,2.3-1.2.4-.1.9.1,1.4.2,0,0,0,.5,0,.5-1.6,0-2.8,1.1-4.1,1.9-.2.1-.4.2-.6.2.2,0,.4.2.6.2,1.2,0,2.5,0,3.7,0,1.2,0,2.1.4,2.7,1.5.7,1.3,1.9,1.3,2.7,0,.5-.8.9-.5,1.1,0,.2.5.4,1.2.2,1.7-.1.3-.8.6-1.3.7-.7,0-1.6-.2-1.5,1.1,0,.1-.8.5-1.3.6-2.1.3-2.4.5-2.4,2.2,0,1.1,1,1,1.1.8.8-1.1,1.5,0,2,.2,1.4.7,1.4,1.5,0,2.2-.6.2-.7.4-.7.9,0,.5-.2,1,0,1.4,1.2,1.9-.3,3.5-.5,5.3,0,.2-.2.3-.4.4-.2-.2-.4-.3-.5-.5,0-.1,0-.3,0-.5-.1-.5-.3-1.3-.4-1.3-.6,0-1.2.1-1.7.4-.9.6-1.4,1.6-2.5,2.2-.8.4-.9,2-1.4,3.1-.2.4-.5.8-.8,1.2-.2-.5-.6-.9-.6-1.4,0-1.3-.1-2.6-1.5-2.7-1.1,0-2.1.8-1.9,2.5,0,.7-.6,1.6-.9,2.4-.1.3-.4.4-.6.7-.2-.3-.5-.6-.7-.9,0,0,0-.2,0-.2-.1-.6-.2-1.6-.3-1.6-.9,0-1.9,0-2.6.4-1.2.6-2.3,1.6-3.4,2.4-.6.5-.7.7.2,1,.7.3.6,1-.2,1.2-4.1,1.3-8.2,2.5-12.2,3.7-3.3,1-6.5,1.9-9.8,2.9-.4.1-.8.4-1.2.3-2.5-.2-4.6.7-6.8,1.6-.6.3-1.3.3-2,.6-.6.2-1.2.1-1.7.3-.3.1-.5.6-.5.9,0,.8,1,1.8,1.7,1.7.9,0,1.3-.9,1.1-2.1,0-.3-.3-.5-.5-.7,1.2-.4,1.6.6,1.8,1.4.2.7.1,1.6,0,2.3,0,.4-.1,1.4-1.1.6-.1-.1-.8.4-1.2.7-.2.2,0,.6,0,.9.3,2.2.6,4.4.9,6.6.4,2.3.9,4.6,1.4,6.9.4,2,.7,4.1,1.1,6.1.4,2,.8,4,1.3,6,1,4,1.1,8.2,2.3,12.1.5,1.6.3,3.3.5,4.9.4,2.9,1.1,5.8,1,8.7,0,.9.3,1.9.4,2.8,0,.5-.2,1-.3,1.4-.2-.6-.6-1.3-.4-1.7.4-.8,0-1.2-.2-1.8-.4-1.9-.7-3.8-1-5.7-.1-.8-.3-1.6-.5-2.4-.5-2.8-.9-5.7-1.4-8.5-.4-2.3-1-4.6-1.5-6.8-.4-1.9-.8-3.9-1.3-5.8-.5-1.9-1.2-3.9-1.9-5.8,0-.1-.6-.2-.8,0-1.1.7-1.1.7-1.5-.2,0-.2-.3-.2-.5-.4-.2.2-.4.4-.4.6,0,1.6,0,3.3,0,4.9,0,.8-.3,1.6-.4,2.4-.6,2.6-.9,5.2,0,7.8.2.6,0,1.4,0,2.1,0,1.1.2,2.2.6,3.2.4,1.2.2,2.6.3,3.8,0,.3.2.5.2.8.2-.3.6-.6.7-.9,0-.7-.2-1.3-.2-2,0-1.4,0-2.7,0-4.1,0-.5.4-1.1.2-1.5-.4-.8-.4-1.4-.1-2.2.2-.6-.2-1.4-.3-2.2,0-.2.2-.5.3-.7.1.3.3.5.3.8.1.6.3,1.2.3,1.7,0,.8-.4,1.6,0,2.4.3.7.4,1.6.5,2.4,0,.3-.2.7-.2,1.1,0,.7-.1,1.5,0,2.2,0,1.4.7,3,.2,4.3-.6,1.6,0,2.9.3,4.2.1.5.4,1.2.2,1.5-1.2,1.6.2,3.2,0,4.8,0,.2.4.5.6.7.1-.3.3-.6.3-.9,0-1,0-2,0-3,0-.2.1-.4.2-.6.1.2.3.4.3.7.2.9.4,1.8.4,2.6,0,1.5.2,2.8,1.4,3.9.5.4.8,3,.6,3.6-.4,1.2-.7,2.4-1,3.6,0,.3.4,1,.5.9,1.2-.2,2.1.4,2.8,1.3.1.1.6.2.6.2.1-.2.3-.5.3-.8,0-.2-.2-.4-.2-.6-.2-.7-1.7-.7-.9-2,.3-.5-.6-1.5-.7-2.3-.1-.8,0-1.7,0-2.6,0-.2.3-.4.5-.6.9.7,1.2-.2,1.7-.5.3-.2.6-.2,1-.3-.1.2-.4.4-.4.7-.3,1-1.5,1.5-1.4,2.7,0,.8.1.6.7.3.4-.2,1.2.4,1.7.7.9.5,0,1,0,1.5,0,.3,0,.7,0,.9.1.3.4.6.6.9,0-.3.2-.6.3-.9.1-.3.3-.6.4-.9.2.3.4.5.5.8.1.3.3.9.2,1.1-1.5,2.1.3,3.7.9,5.4.4,1.1,2.1.8,3.2,1.1,1,.3,1.7.1,2-1.3.4-1.8,2.2-2.4,3.8-2.9,1.4-.4,2.9-.4,3.6-2.2.2-.6,1.3-.9,2.1-1.1,1.2-.2,2.8.4,3.1-1.7,0-.3,1.3-.7,2-.6,1.2,0,2.3.4,3.5.6.2,0,.3.3.5.5-.2,0-.4.2-.5.2-.5,0-1.1,0-1.6,0-.2,0-.4.3-.6.5.2.2.4.4.6.5,3.4,1.4,7,1.7,10.7,2,3.6.2,7.2,0,10.8.5,2.3.3,4.6.2,6.8.4,1.2,0,2.4.1,3.5.5,1,.4,1.7,1,2.3-.4,0-.1.4-.2.6-.1,1.1,0,1.8-.2,2.3-1.3.5-1,1.7-.8,2.6.5.5.7,1,.9,1.7.8.4,0,.7-.1,1.1-.2-.3-.2-.6-.3-.9-.5-.2-.1-.3-.3-.5-.5.3,0,.6-.3.8-.2.9.3,1.5,1.2,2.7.9.8-.2,1.6-1,2.5,0,0,0,.8-.4,1-.7,0-.1-.2-.8-.5-.9-1.5-.7-3.1-1.5-4.6-1.1-1.1.3-2.2.3-3.3.4-3.4.2-6.7.2-10.1.5-2.4.3-4.7.6-7.1,0-1.2-.3-2.6.5-3.9.7-.5,0-1.1.2-1.6.1-.4,0-.7-.3-1.1-.4.3-.2.7-.4,1-.5,4.3-.9,8.8-.8,13.2-1.1,2.7-.2,5.5-.2,8.2-.4,1.6,0,3.1-.3,4.7-.4,1.7,0,3.2.5,4.7,1.1.7.3,1.5.5,2.3.7.5.1,1.1,0,1-.8,0-.3.4-.7.7-1.1,0,.4.2.7.2,1.1,0,.9,0,1.7,1.3,1.7.3,0,.6,0,.9,0-.2-.3-.4-.5-.5-.8,0-.2,0-.5.1-.6.6-.6.4,0,.5.3.6.9,1.3,1.4,2.5,1.3,1.8-.2,3.6.5,5.3-.9.3-.2,1.2-.1,1.5.2.8,1,1.8.7,2.8.7,1.5.1,3,.4,4.5.4,1.7,0,3.3-.4,5-.4,4.1,0,8.3,0,12.4,0,1.9,0,3.8.1,5.7-.4,1.1-.3,2.6-.6,3.8.4.1.1.5.1.7,0,1.6-.9,3.3-.3,5-.4,1.1,0,2,0,2.9-1,.7-.9,1.9-.6,2.9-.1.5.2.9.5,1.4.6.4,0,.9.2.9-.6,0-2.2.6-4.4.4-6.6-.4-4.7,0-9.4-.5-14.1-.2-2.3.6-4.5,0-6.6-.5-2.1.2-4.2-.4-6.3,0-.2.1-.6.2-.8.2.3.5.5.7.8,0,0,0,.2,0,.2,0,.2,0,.3,0,.5.2,5,.3,10,.5,15,.1,2.9-.6,5.9.4,8.8.4,1,.1,2.3,0,3.5,0,1.1-.2,2.1-.4,3.2-.2,1.1.5,2.3-.5,3.3,0,0,0,.4.1.6,1,1.7.7,3.7.8,5.5,0,1.3-.5,2.6.4,3.8.1.1,0,.5,0,.7-.8,2.8-.4,5.6-.1,8.5.2,1.9.8,3.9.2,5.9-.4,1.2-.4,2.8,0,3.9.5,1.3-.3,2.3-.1,3.4.9,4,0,8.2.6,12.2.5,3.5.2,7.1.4,10.6,0,.8-.3,1.7-.3,2.5,0,.8.2,1.6.3,2.4.2,1.5.7,3.1.3,4.4-.4,1.6-.2,3-.3,4.5,0,1-.3,2.1.4,3.1.2.3,0,.9,0,1.3-.2.9-.2,3.1,0,4,0,.2.1.4.1.7.2,2.7.4,5.3.5,8,0,2.7-1.2,3.9-3.8,3.3-.7-.2-1.2.2-1.7.1-.7,0-.2.3-.2.6,0,.4-.4.8-.6,1.2,0-.4-.2-.7-.2-1.1,0-1-.7-1.2-1.6-1.2-1.9,0-3.7,0-5.6,0-.3,0-.5-.2-.8-.3.2-.2.4-.6.7-.6.4-.1.9,0,1.4,0,1.4,0,2.8,0,4.2,0,1.2,0,1.5-.4,1.7-1.6.4-2.8-.9-5-2.1-7.3-.2-.4-.4-.9-.7-1.3-.3-.4-.7-1-1-1-1.4.2-2.4-.8-3.5-1.1-.8-.2-1.5-1.1-2.6-.5-.2.1-.8-.3-1.3-.6-.2,0-.3-.3-.4-.5.2,0,.4-.2.6-.2,1.5.2,2.9.4,4.4.6,1.3.2,2.6.5,3.9.7.3,0,.6-.1.8-.2-.1-.3-.2-.6-.3-.8-.5-.6-1.3-.9-1.1-1.9,0,0-.6-.3-.9-.3-1.2-.2-2.4-.3-3.5-.5-.3,0-.7-.3-.9-.5-.1-.2,0-.7.1-.9.3-.5.6-.2.8,0,.2.3.4.5.7.8.2-.4.5-.8.5-1.2,0-.4-.5-.8-.8-.9-.5-.2-1.1-.1-1.6,0-1.1.3-2.2,0-3.2-.3-.5-.2-1.3.1-1.9.1-.7,0-1.5,0-2.2-.1,0,0,0-.4,0-.4.7-.3,1.3-.6,2-.7.8-.1,1.6,0,2.3,0,.3,0,.5-.3.8-.5-.3-.1-.6-.4-.9-.4-1.4,0-2.7.2-4-.5-.4-.2-1.1-.4-1.1-.7,0-.8-.6-.7-1.1-.8-.8,0-.8,0-.9-1.2,0-.2-.4-.7-.6-.6-.4,0-1.3-.5-1.2.5,0,.9-.3,1.4-1,1.7-.1,0-.2.3-.3.5.1,0,.3.1.4.1.8,0,1.6,0,2.3,0,.3,0,.6.4.9.7-.3,0-.5.3-.8.2-1.2-.1-2.4-.3-3.6-.4-.5,0-.9.3-1.4.4-.2,0-.5-.2-.7-.3.2-.2.3-.4.5-.6,0,0,.3,0,.5,0,.3-.2.6-.4.9-.7-.3-.2-.7-.7-1-.7-1-.1-2.1.1-2.9-.9-.6-.7-.8-.6,0-1,.5-.2,1.1-.4,1.7-.5.8,0,1.3.1.6,1-.4.5-.2,1,.4.8.7-.2,1.6-.7,1.7-1.3.1-.6-.5-1.8-.9-1.9-1.4-.2-.7-.6-.2-.9.3-.2,1-.1.7-.8,0,0-.7.2-1.1.2-.6,0-1,0-1.4.8-.2.4-1.5.8-2.2.2-1.2-.9-2.5-1-3.8-.9-2.9.2-5.8.4-8.7.5-1.7,0-3.3-.5-5,0-.6.2-1.2,0-1.1.9,0,.3-.5.7-.8,1.1-.2.3-.3.5-.4.8.5-.5.7.9,1.3.1.2-.3.7-.3.9-.5.5-.5.8-.5,1.5-.2,1,.4,2.3,0,3.5.1.3,0,.6.4.9.6-.3.1-.6.3-.9.3-2.2,0-4.3,0-6.4.9-.8.4-2,0-3,0-.3,0-.5.2-.8.2.2.3.3.8.5.9.5.3,1.1.5,1.6.7,1.2.5,4.8.8,6,.5.4,0,.8,0,1.1,0,4.2,0,8.4,0,12.6,0,.3,0,.7.2,1,.2-.4,0-.7.1-1.1.2-.6.1-1.3,0-1.9,0-2.3.2-4.6.5-6.9.8-1.3.1-2.6,0-3.9.1-1.2,0-2.4.3-3.5.5-.1,0-.3.3-.3.5,0,.2.2.4.4.4,2.2,0,4.4,1.2,6.6,0,.4-.2,1.3-.2,1.6,0,.8.7,1.3.4,2,0,.2-.1.7.3,1,.4-.3.2-.6.4-.8.4-1.5,0-3,.8-4.5,0-1.1.9-2.5.7-3.5.4-1.3-.5-2.2.5-3.4.2-.6-.1-.6.6-.2,1.4.3.5.2,1.2.3,1.7.1.4.5.7.7,1.1.3-.3.5-.5.8-.8.9-1.2,2.6-1.7,4.2-1.2,0,0,.1.1.2.2.7,0,1.4.1,2,.2-.7.3-1.4.6-2.1.7-1,.1-2,0-3,0-.1,0-.4.3-.4.4,0,.2.2.4.3.5.9.2,1.8.3,2.6.5.3,0,.5.5.7.7-.3,0-.7.3-.9.1-1.2-.8-2.4-.4-3.6,0-.2,0-.4.1-.6.2.2,0,.4.2.6.2,1.5.3,3,.9,4.5.9,8.8.2,17.6.4,26.5.5.3,0,.6,0,.9,0,.2,0,.5.2.7.4-.3.2-.5.5-.8.5-3.1,0-6.1-.3-9.2-.3-1.3,0-2.6.3-4,.3-.7,0-1.4-.3-2.2-.4-.5,0-1-.2-1.4,0-3.6,1-7.2.3-10.8.4-1,0-2-.4-3-.6-1.1-.2-2.3-.3-3.4-.3-.3,0-.6.6-.9.9.3.2.5.4.8.5,1.3.2,2.5.2,3.8.5,1,.2,1.9.7,2.8,1.1,1.1.4,1.8.3,3,.3,1.1,0,2.2.4,3.3.4,1.9,0,3.7,0,5.6,0,.2,0,.5.2.7.3-.2,0-.4.2-.6.2-.8,0-1.9-.2-.8,1.1,0,0-.3.7-.5.7-1.2,0-2.5,0-3.7,0-1.2,0-2.4-.4-3.6.4-.4.2-1.2-.3-1.9-.4-.3,0-.7.2-1,.3.2.2.5.4.6.7.3.3.7.7.6,1.1,0,.4-.4.8-.7,1.2-.2-.2-.4-.4-.6-.7-.2-.2-.4-.5-.6-.7-.1.2-.4.5-.3.7.2,1.2-.5,1.2-1.3,1.2-1.2,0-2.3,0-3.5,0-.4,0-.8,0-1.1.1-.2,0-.4.4-.5.6.2,0,.4.2.6.2,2.3,0,4.7,0,7,0,1.3,0,2.7,0,4-.4,1-.3,2.2.2,3.3.3.6,0,1.2.1,1.8.1,6.2,0,12.3,0,18.5,0s1.1,0,1.6,0c.1,0,.3.1.4.2-.1,0-.2.2-.3.2-1.6.2-3.3.4-5,.5-5.1,0-10.1,0-15.2,0-2.9,0-5.7.3-8.5.9-1.3.3-2.7.2-4,.5-2.8.8-5.7,1.6-8.2,3.2-.2.1-.4.2-.5.4-.6,1.4-2.1,1.6-3.2,2.3-.2.2-.5.2-.8.3.3,0,.5.2.8.3,1.6,0,3.1-.1,4.7,0,10.3.9,20.6.3,30.8.4.2,0,.5,0,.7,0,.1,0,.3.1.4.2-.1,0-.2.2-.3.3-.6.2-1.3.5-1.9.5-9.7,0-19.5,0-29.2,0s-.3,0-.5,0c-1.6-.8-3.2-.3-4.8,0-1.8.4-3.6.6-5.5,1-.3,0-.6.4-.9.7.3,0,.6.2.8.2,1.8.2,3.5-.4,5.3-.7.9-.2,1.8,0,2.7,0-.8.3-1.5.6-2.3.8-.9.2-1.8.3-2.6.5-.4.1-1,.5-1,.7,0,.8-.2,1.5-1.2,1.6-1.1.1-2.1-.2-2.8-1-.5-.6-.8-1.4-1.1-2.1-.5-1.2-.7-1.4-2-.8-1.4.7-2.8,1.3-4,2.2-.8.6-1.5.7-2.3.7-1.2,0-2.3,0-3.5,0-.6,0-1.3.3-1.9.5-.2,0-.3.3-.4.4.2.2.4.5.6.5,2.5-.1,5.1,0,7.5-.6,1-.2,1.9-.3,2.9-.3.8,0,1.7,0,2.5.1-.8.3-1.7.7-2.5.8-2.9.2-5.8.3-8.8.5-1.5,0-3,.2-4.5.5-.7.2-1.3.9-2,1.3-1.8,1-3.5,2.3-5.6,3-2.5.8-5,.2-7.5.4-.5,0-1.1-.5-1.5-.9-1-1.2-2.1-1.6-3.7-1.1-.8.3-2-.2-3-.4,0,0,0-.6,0-.8,1-1.4,1.3-2.1,1.2-4,0-.6-.2-1.3-.5-1.9-.5-1.1-.9-2.1-1-3.4-.1-1.6,0-3.2.3-4.7.3-1.2-.1-1.3-.9-1.5-.9-.2-1.7-.3-2.6-.5-.3,0-.5-.2-.8-.3.3-.2.6-.5.9-.6.6,0,1.2,0,1.9,0,.1,0,.3-.3.3-.4,0-.2-.2-.5-.3-.4-.7,0-1.5.2-2.2.4-.7.2-1.3.7-2,.9-.3.1-.7,0-1.1-.2.2-.2.3-.5.6-.6,1.2-.7,2.3-1.6,3.6-1.9,1.4-.4,2.8-.6,3.8-1.7.1-.1.6-.2.8,0,1.2.8,1.9.2,2.7-.7,2.4-2.5,4.3-5.3,5.9-8.3,1.2-2.2,1.2-4.5,0-6.6-.8-1.4-.8-2.5,0-3.9,1.2-1.8.7-4,.6-6,0-1.1-1.4-1.4-2.5-1.3-1,0-1.6.1-.7-1.2.6-.9-.3-1.9-1.3-2.5-1.6-1-3-2.2-4.5-3.3-.1-.1-.3-.4-.2-.6.4-1.4-.9-2.3-1-3.6,0-.2-.2-.4-.4-.4-1.1-.4-1.5-1.4-1.9-2.3-.2-.4-.4-.9-.6-1.4-.4-.6-1.2-1.2-1.2-1.8,0-1,.6-1.9,1-2.8.2-.5,1.4-.8.4-1.6.2-.1.4-.3.6-.3.6-.3,1.3-.6,2-.9.2,0,.5,0,.6-.2,1.3-1.2,2.4-2.6,3.8-3.7,1.5-1.2,1.7-3.1,2.2-4.7.7-2.1,1.3-4.2,3-5.8.2-.2.1-.8,0-1.1-.3-1.2-.3-2.5.9-3,1.7-.6,1.5-2.5,2.7-3.3-.4-1.9,1.1-3.3,2-4.5,1.3-1.9.6-3.2,0-4.7-.2-.5-.9-.7-.2-1.3,0,0,0-.3,0-.3-.1,0-.3-.1-.4,0-.7.1-1.4.5-2.1.4-3.2-.2-6.4.3-9.7-.3-3-.6-6.2-.9-9.1-.4-3,.5-5.9,1.8-8.6,3.5-2.5,1.6-5.2,3-8,3.7-1.2.3-2.6.1-3.9,0-.9,0-1,.3-1,1.1,0,4.3,0,8.6,0,12.9,0,1.4.7,2.7.9,4.1.2,1.5.3,3,.5,4.5,0,.4-.2,1,.6,1,1.2,0,1.3.8,1.3,1.7,0,1.4.3,2.8.4,4.3,0,.2-.3.4-.4.6-.2-.2-.4-.4-.4-.6-.2-1.2-.3-2.4-.5-3.5,0-.5-.2-.9-.3-1.4,0,.5-.1,1-.2,1.6-.4,2.8,1,5.5,1,8.3,0,.5.3.8,1.2.5,4.6-1.4,9.2-3,13.5-5.2,1.9-1,4-1.6,6.2-2.4-.5.5-1.1,1-1.7,1.4-1.7.8-3.6,1.6-5.3,2.4s-3.5,1.6-5.4,2.3c-1.7.7-3.5,1.3-5.3,1.9-.5.2-1.1.4-1.6.6-.9.3-1.2.8-1.1,1.8.1,1.9,0,3.9,0,5.8,0,1.3.2,2.5.5,3.7.3,1.1,1,1.8,2.3,1.6.8,0,1.7.3,2.6.4,3.2.5,6.5.9,9.7,1.4,3.1.5,6.2.9,9.2,1.4.1,0,.2.2.3.2-.1,0-.3.2-.4.2-1.2,0-2.4.2-3.5,0-2.7-.6-5.4-.5-8.1-1.3-1.3-.4-2.7-.4-4-.5-2.2-.2-4.3-.5-6.5-.7-.3,0-.9.5-.9.8.2,2,.4,4,.7,6,0,.2.2.4.2.6.2,2.4.3,4.7.5,7.1.2,1.7.5,3.4.8,5,0,.5,0,1.1.1,1.6.2,2.7.1,5.5.5,8.2.4,2.7.8,5.3,1.6,8,.3,1.1.3,2.5.2,3.7-.3,2.6-.2,5.3.5,7.8.1.4,0,.9,0,1.4,0,.2-.2.3-.4.5-.2-.2-.5-.3-.5-.5-.2-.6-.4-1.3-.5-1.9-.2-2.1-.3-4.2-.5-6.4-.2-2.2-.3-4.4-.5-6.7,0-.2-.4-.4-.6-.4-.5,0-1,0-1-.5-.1-1.4-.6-3-.2-4.3.7-2.3-.6-4.3-.7-6.4,0-.4-.4-.8-.3-1,.7-1.5.2-2.8,0-4.3-.5-4-.5-8-1.1-12-.3-2.1-1.1-4.1-1.4-6.2,0-.3-.5-.8-.7-.8-2.2.1-4.4-1.2-6.6,0-.2,0-.4.2-.6.3.2,0,.4.2.6.2.7-.1,1.1.9,2,.1.6-.5,2.3,1.2,2.4,2.5,0,.4-.3.9-.5,1.4,0,0-.1.1-.2.2,0-.4,0-.9-.3-1.3-.2-.5.7-1.6-.7-1.5-1.3,0-.6,1.2-.6,1.8,0,.5.3,1.2.7,1.5.8.7.6,1.2,0,1.8-.6.5-.4,1,.5.9.8,0,.9.5.6.9-.5.9-.6,1.6,0,2.5.1.2-.2.6-.3.9-.3-.2-.8-.3-.9-.6-.3-.8-.4-1.7-.6-2.6,0-.2,0-.5,0-.7-.2-.3-.5-.5-.7-.8-.2.2-.4.4-.6.7,0,0,0,.2,0,.2-.1.5-.3.9-.4,1.4-.3-.5-.5-.9-.8-1.4-.6-1.1,0-1.7.7-2.4.3-.3.8-.7.9-1.1,0-.8.1-1.7-.2-2.5-.3-.9-1.4-.7-2-.5-.4,0-1,.8-1,1.2.1,1.5.4,2.9.7,4.4,0,.6.3,1.3,0,1.7-1.1,2.1.3,3.7,1,5.4,0,.1.2.2.3.3,0-.1.2-.3.2-.4-.3-.8.7-2-.7-2.5-.1,0-.2-.4-.2-.6,0-.1.3-.3.5-.3.8,0,1.2.4,1.3,1.2,0,.6.3,1.3.7,1.5.6.4,1.8.7,1.5,1.1-.5.8.5,1.4.1,2-.1.2-.2.5-.4.7-.2-.2-.5-.3-.6-.5-.4-1.1-1.3-1-2.1-.8-.4.1-.5,1-.7,1.5,0,0,0,.2,0,.2,0,.1,0,.4.1.4,1.6-.2,1.6,1.6,2.7,2,.1,0,.5-.2.5-.3,0-.3-.1-.7,0-.9.5-.6,1.1-1,1.7-1.5,0,.6.1,1.2,0,1.7-.2,1.6-.6,3.2-.7,4.8,0,.9.2,1.9,1.6,1.9.3,0,.7.6.9.9.1.2,0,.5.1.8-.2-.1-.4-.3-.7-.4-.4-.2-.8-.3-1.2-.4-.1.4-.3.8-.3,1.2.1,5.4.3,10.8.4,16.2,0,.8.6,2-.8,2.4,0,1-.4,2.3.1,2.9.8.9.7,1.8.8,2.8,0,.2.2.5.3.7.3-.2.8-.3.9-.6.2-.7.4-1.7.1-2.3-.8-1.6-.1-2.9.7-4,.8-1.2-.2-2-.2-3,0-.3-.2-.6-.2-.9.3.2.6.5.8.8.8,1.2.4,2.5.3,3.8-.1,2.6-.7,5.3-.2,7.8.3,1.9-.2,3.9.8,5.7,0,.1-.1.4-.2.6,0-.2-.2-.4-.3-.5-.5-.5-1.1-.9-1.7-1.3,0,.7,0,1.4.3,2.1.2.6.5,1.1.9,1.6.3.4.7.7,1,1.1-.5.4-.9,1.1-1.5,1.3-2.3.7-2.2.7-1.8,3.2.1.8-.4,1.6-.7,2.4-.1.3-.4.4-.6.7.4,0,.9.3,1.2.2.3-.2.5-.7.6-1.1.2-.5.3-1,.5-1.4,0-.2.1-.4.2-.6,0,.2.2.4.2.6.2.9.3,1.9.5,2.8,0,.3.2.5.3.7,0-.2,0-.5.2-.6.9-.9,1.5-1.8,1.4-3.2.2,0,.5-.1.5,0,.3.6.7,1.1.8,1.7.3,1.1.3,2.4.7,3.4.3.7-.4.7-.5,1-.2-.2-.5-.4-.7-.6-.2-.2-.3-.5-.5-.8-.1.3-.4.6-.4.9,0,.9-.3,1.3-1.3,1.5-.6.1-1.2.8-1.5,1.5-.8,2-.8,3.9-.1,6,.3.8.9,1.2,1.2,1.8.5.8,1.2,1.6,0,2.4-.4.2-1,.6-.4,1.3.7.8,1.2,0,1.6-.4.3-.3.5-.6.8-.9.3.5.9,1.1.9,1.6,0,1.3-.2,2.5-.3,3.8,0,.4-.3.8-.4,1.2,0,.2-.2.4-.3.7,0-.2,0-.4-.2-.6-.1-.2-.3-.3-.5-.5-.3-.3-.7-1-.8-.9-.9.4-.5,1.1,0,1.6.3.3.5.8.9.9.7.3,1.4.4,2.1.5,0,0,.1-.7.3-1,.2-.3.5-.6.7-.8.2.3.6.6.7.9.3,1.7.2,3.4-.2,5.1-.3,1.4-.5,2.8-.3,4.2.1.9.2,1.8-1.2,1.5-.2,0-.6.5-.6.6.2,1,.7,1.9.9,2.9,0,.5-.2,1.1-.3,1.7-.1.5-.4.9-.5,1.4-.1.6-.2,1.1-.3,1.7-.4-.4-.9-.9-1.3-1.3-.2-.2-.4-.5-.7-.7-.2-.2-.5-.2-.8-.3,0,.3-.3.6-.2.8.6,1.5.9,3.3,2.2,4.4,2.2,1.9,3.4,4.5,5.3,6.7.2.2.3.6.3.9,0,.6-.3,1.3-.5,1.9-.1-.1-.3-.2-.3-.3-.2-.7-.2-1.5-.5-2.1-.3-.6-.8-1-1.3-1.5-.5.9-2.2.8-2,2.4.3,2.6.4,5.3.5,8,0,.3-.2.6-.4,1-.3-.5-1.3-.2-1-1.2.1-.5.2-1,.3-1.5,0-.7.2-1.5.2-2.3,0-1-.3-2.1-.5-3.1-.1-.6-.3-1.1-.5-1.7,0-.3-.2-.5-.3-.8-.4.2-.9.4-1,.7-.1.6-.2,1.3,0,1.8,1.1,2.5,1.2,2.5.8,4.4-.4,1.8.6,3.3,1,5,0,.1.4.2.6.2.7-.2,1.5-.2,2-.7.9-.7,2.2-.9,3-1.6,1-.8,1.1.2,1.5.5-.1.2-.2.4-.3.4-.5,0-.9,0-.9.7.2,2.9.3,5.8.5,8.7,0,.2.2.5.3.6,1,.6.2.9-.1,1.3-.3.3-.4.8-.7,1.1-1.5,1.8-.5,4.2-1.4,6.2-.1.3.1.7.2,1.1.6,2.1.3,2.5-1.7,3.3-1.7.6-1.8,1.2-.6,2.3.9.8,2,1.5,3.1,2.2.5.3,1-.4.9-1.3-.2-1.3-.4-2.6-.6-4,0-.9,0-1.9,0-2.9,0-1,.1-2,.2-3,0-.1.2-.2.2-.4,0,.1.2.2.2.4.2.6.4,1.1.5,1.7.2,1.6-.2,3.3.1,4.7.4,2,.2,3.9.4,5.9,0,.8.5,1.7.3,2.4-.7,3,.9,5.8.6,8.7,0,.4-.1.8-.3,1-1.4,1.3-1,2.9-1,4.5,0,.2.3.4.5.6.1-.2.4-.4.4-.6,0-.5,0-1,0-1.4.2-.6.5-1.1.7-1.7,0,.5,0,1,.2,1.6.1.8-.1,1.6.4,2.4.5.7-.5,1.8-1.6,2-.9.2-1.5.4-.8,1.7.5,1.1.4,2.5.6,3.7,0,.5,0,1,0,1.4.1.4.4.8.6,1.1,0-.3.1-.7.3-1,.5-.8.7-1.6,0-2.5-.1-.2.4-.8.4-1.2,0-.6-.2-1.2-.3-1.8,1,.3.5,1.3.8,1.9.6,1.4.7,2.7,0,4.1,1,2.1.2,4.4.5,6.6,0,.6.4,1-.2,1.4-.9.6-.8,1.3-.3,2.3.4.8,1.8,1.2,1.1,2.8-.4.8.2,2,.4,3,0,.5-.2,1.1,0,1.4.4.5.3,1.6,1.5,1.3.4,0,1.2.4,1.2.7,0,1.8.7,3.5,1,5.3.2,1.1,0,2-1.5,1.9-1,0-1.3.6-1.3,1.5,0,.9,0,1.7,1.2,1.8.4,0,.8.4,1.1.6-.4.2-.8.5-1.3.7-.5.3-1.4.4-1.4.8-.2.9,0,1.8,0,2.8,0,0,.2.2.4.2,1.6.1,2.5,1,2.9,2.6.1.5.7.8,1.1,1.1.3.2.7.2,1.1.3-.4,0-.9.1-1.3.1-1.2,0-1.6-1.1-2.3-1.7-.6-.5-1.1-1-2-.3-.2.2-.5.3-.8.4.4-.5-.9-.8-.2-1.3.1,0,0-.5,0-.8-.2.1-.3.4-.5.4-1.9-.1-3.8.5-5.5-.9-.8-.6-1.8-.9-2.7-1.2-.1,0-.4,0-.5.1-1.5,1-3.1.6-4.7.6-.4,0-1-.3-1.3-.7-1.9-2.1-4.2-3.7-6.6-5.1-2.7-1.5-5.2-3.4-8.5-3.2-1.3,0-2.7-.3-4-.4-.7,0-1.3-.1-1.9.6-.2.3-.9.3-1.4.2-1.4-.4-2.7-.9-3.6,1-.4.8-1.4,1.4-2.2,1.8-1,.5-1.8,1.1-2.4,2-.7,1-2,.8-2.5.4-1.2-.8-2.2-.2-2.9.2-.9.5-1.7.2-2.2-.2-1.2-1.1-2.4-1.4-3.9-1.3-1.1,0-1.4-.3-1-1.4.2-.5-.2-1.3-.3-1.9,0-.4-.2-.8-.1-1.1.4-1.7,0-3.4-.4-5.1,0-.2.2-.7.4-.7.4-.1.9,0,1.4,0,0,0,.2-.4,0-.5-.2-.6-.6-1.2-.8-1.8-.3-.7-.6-1.3-.7-2-.2-.6-.9-1.6.8-1.3.5,0,1.4-.3,1.5-.7.2-.7.2-1.6-.6-2-.3-.2-.7-.3-1-.5-1.1-.8-1-1.3.3-1.9.8-.4,1.3-2.7.7-3.2-.3-.2-.8,0-1.2.2-.3.1-.4.4-.7.6,0-.3-.3-.5-.3-.8.2-1.5.3-3,.8-4.4.7-2.1.8-4,0-6-.2-.4-.3-1.2,0-1.4,1.3-.9.4-1.8.1-2.8-.2-.6-.2-1.3-.2-1.9,0-.6.3-1.2.3-1.7,0-2.1,0-4.2.9-6.2.1-.3-.1-.7-.2-1.1-.2.2-.5.4-.7.6,0,0-.2.2-.3.3,0-.2-.2-.5-.2-.6.3-.6.8-1.1.9-1.7,0-1.5,0-3.1-.2-4.6-.3-1.5-.7-3,.8-4.1.5-.4,0-.5,0-.8-.2-.5-.3-1.1-.5-1.7-.4-1-1.4-1.8-.1-3.1.5-.5,0-2.1-.2-3-.5-1.6-.4-3.2,0-4.8.3-1.4.8-2.7.1-4.1,0-.1.2-.5.3-.6.1,0,.5,0,.6.2.2.3.2.7.3,1,0,0,.5,0,.5,0,.1-.6.4-1.3.2-1.9-.8-2.1-1.7-4.2-2.6-6.1-.8-1.6-.6-2.9.6-4.1.8-.8,1.2-1.5.6-2.6-.2-.3-.1-1.2.1-1.4.9-.8.5-1.7.6-2.6,0-.2-.4-.6-.6-.6-.2,0-.5.3-.7.5-.2.2-.2.5-.3.8,0-.3-.1-.6-.2-.8-.4-1.2-.3-1.2,1.1-1.6.3,0,.7-.6.7-1,0-.6-.2-1.1-.6-1.6-.1-.2-.7-.1-1.1-.2,0,0-.2-.3-.2-.4,0-.2.2-.4.3-.5.2,0,.5,0,.7,0,.6-.2,1.1-.4,1.6-.6-.3-.6-.6-1.5-1.1-1.7-.7-.3-.3-.4-.3-.7-.1-1,1.1-2.5-.7-3.1.2-.3.3-.7.5-.8,1.4-.8.9-2,.7-3.1,0-.5-.3-1-.5-1.4-.1-.3-.4-.5-.6-.7-.2-.2-.5-.2-.7-.3.2,0,.4-.2.6-.2.7,0,1.4,0,1.7-.8.3-.9-.1-1.7-.9-2.2-.2-.2-.6-.2-.8-.3-1.2-.9-1.3-2.1,0-3.1.1-.1.4,0,.6,0,0,.2,0,.3-.1.5-.2.3-.5.6-.5,1,0,.4.2.8.4,1.1.3-.2.7-.3.8-.5.3-.9.9-1.6.3-2.7-.4-.7-.5-1.6-.3-2.6.3-1.1-.1-1.3-1.4-.8-.1,0-.5-.2-.4-.2.2-.5.3-1.1.7-1.3,1.1-.6,1.3-1.5,1.2-2.6-.2-1.8.4-3.6-.9-5.3-.2-.3.1-1.1.3-1.7.3-1.4.7-2.9,1.1-4.3,0-.2,0-.4-.1-.6-.1.2-.2.4-.3.6-.1.1-.4.3-.6.2-.1,0-.3-.3-.3-.5,0-.4-.2-.9,0-1.1,1.8-1.9.5-4.1.8-6.2,0-.3-.8-.7-1.2-1-.2-.2-.4-.3-.6-.4.2-.2.4-.4.6-.5,2-1.2,2.2-1.6,1.4-3.9-.3-.9-.8-1.7-1-2.6-.1-.7.5-1.5.3-2.1-.1-.7-.9-1.2-1.2-1.8,0-.1.2-.6.4-.7,1.3-1.1,1.3-1.5-.2-2.3-.3-.1-1.2.1-.4-.7,1.5-1.5,1.5-3.3,0-4.5-.3-.2-.5-.4-.8-.6.4-.1.7-.4,1.1-.4.9,0,.9-.5.7-1-.3-.8-.8-1.5-1.2-2.3-.2-.3-.5-.4-.6-.7-.1-.2-.2-.4-.3-.7.2,0,.4,0,.6,0,1.6.5,1.7.5,1.5-1.1-.2-2.2-.2-4.6-1-6.6-.6-1.4,0-2.4.2-3.4.3-.8.4-1.3,0-2-.3-.5-.5-1.1-.5-1.7.1-1.1-.5-1.9-1.3-2.2-1.1-.3-.3-.6,0-.8.4-.3,1.3-.3,1.3-.6.1-.9,0-1.8,0-2.8,0-.7-.3-1.3-.4-1.9,0-1.2.2-2.4,0-3.6-.2-1.3,0-2.6,0-4,0-.6.4-1.5-.8-1.5,0-.3.2-.8.2-.8,1.4.2,1-.8,1-1.5,0-.3-.3-.7-.3-1-.2-.8-.6-1.5-.1-2.4.2-.3.2-.9,0-1.1-1.4-1.4.3-3.3-.9-4.6,1.2-1.4-.2-2.8,0-4.3.2-1.9.1-3.8-1.5-5.2,0,0,0-.4.2-.5,0,0,.3,0,.5,0,.6,0,1.7,0,1.7-.2,0-.9.2-1.9-.2-2.6-.4-1-.6-2-.7-3,0-.8-.7-1.6-.8-2.4,0-.9.4-1.8.3-2.6,0-1-.3-1.9-.4-2.8-.2-1.4-.2-2.9-.5-4.2-.3-1.3.2-2.7,1.1-3.2.9-.7.5-1,.3-1.6-.4-.8-.9-1.5-1.3-2.3-.1-.3,0-.8.2-1.1,0-.2.6-.2.9,0,.2,0,.3.5.3.7.2.5.1,1.4.4,1.5,1.1.4,1.3-.7,1.7-1.3.9-1.3.2-2.6.2-4.1M271.2,258.9c.1,0,.3,0,.4,0-.1,0-.3-.2-.4-.5-.1,0-.3,0-.4,0,.1,0,.3.2.4.5M180.3,280.6c0,.1,0,.3,0,.4,0-.1.2-.3.5-.4,0-.1,0-.3,0-.4,0,.1-.2.3-.5.4M205.5,136.6c0-.1,0-.3,0-.4,0,.1-.2.3-.5.4,0,.1,0,.3,0,.4,0-.1.2-.3.5-.4M431.9,60.8c0,.1,0,.3,0,.4,0-.1.2-.3.5-.4,0-.1,0-.3,0-.4,0,.1-.2.3-.5.4M142.4,64.6c0,.2-.2.3-.5.5,0,.2-.2.3-.5.5,0,.2-.2.3-.5.5-.4.6-.8,1.2-1.1,1.8-.1.2,0,.6,0,.9.2-.1.6-.2.6-.4.3-.7.4-1.5.9-2.3,0-.2.2-.3.5-.5,0-.2.2-.3.5-.5,0-.2.2-.3.5-.5,0-.1,0-.3,0-.4,0,.1-.2.3-.5.4M147.5,131.9c0-.1,0-.3,0-.4,0,.1-.2.3-.5.4,0,.1,0,.3,0,.4,0-.1.2-.3.5-.4M229.8,27.6c.2,0,.4,0,.6-.1,0-.1,0-.2,0-.3-.2.1-.5.3-1,.4,0,.1,0,.3,0,.4,0-.1.2-.3.5-.4M325.7,11.2c0-.2.1-.5.2-.7-.1,0-.2,0-.3,0,0,.3,0,.5-.3.8v.4c0-.1.1-.3.5-.4M367.4,21.5c-.4.2-.7.4-1.1.7.3.2.6.4.9.5,1.1,0,.2-.8.7-1.1,0-.1,0-.3,0-.4,0,.1-.2.3-.5.4M221.4,83.3c-.7-.1-1.2,0-1.6.7,0,0,.2.3.2.3.5-.2.9-.3,1.4-.5,0,0,.1-.3.4-.4,0-.1,0-.3,0-.4,0,.1-.2.3-.5.4M154.1,493.9c-.2.2-.3.3-.5.5-.5.4-1.1.8-1.6,1.1,0,0,.2.3.3.2.6-.3,1.2-.5,1.7-.9.2-.2.2-.6.6-1,0-.2.2-.3.5-.5,1.4-.1,2-1.3,2.7-2.3,0-.1,0-.3.1-.5-.2,0-.5,0-.6,0-.8.9-1.7,1.8-2.7,2.7,0,.2-.2.3-.5.5M201.3,86.1c-.4.8-.8,1.7-1.1,2.5,0,.1.4.4.6.7.1-.2.3-.4.3-.6.2-.9.3-1.7.7-2.6.2,0,.5,0,.7,0,.2,0,.3-.2.5-.3-.1,0-.3-.2-.4-.2-.3.1-.7.3-1.2.5M189.2,127.7c1.1-.3,2.2-.6,3.3-1,.1,0,.3-.5.2-.6-.2-.2-.6-.4-.7-.3-1,.6-2,1.2-3.3,1.8,0,0-.2,0-.2,0-.9-.5-1.6-.1-2.2.5,0,0,0,.2,0,.3.5-.1,1.1-.2,1.6-.4.4-.1.7-.3,1.3-.5M335.8,49.8c-.1,0-.3,0-.4,0,.1,0,.3.2.4.5.5,1.2,1.2,2.2,2.7,2.1.3,0,.6-.4.9-.6-.3-.1-.5-.2-.8-.3-1-.5-1.9-.9-2.8-1.6M144.7,74.4c.3-.2.7-.3,1-.5,1-1,1.9-2.1,3.2-2.8,2.1-1.1,3.8-2.7,5.4-4.4.1-.2.2-.4.3-.7-.2,0-.5-.1-.7,0-.4.2-.7.5-1.1.8-.8.7-1.7,1.3-2.4,2-1.8,2.1-4.7,3-6.2,5.6,0,.1,0,.3,0,.4,0-.1.2-.3.5-.4M299.5,11.7c2.4-.1,4.8,0,7.3-.4,2.4-.5,4.8-.4,7.3-.6.4,0,.8-.2,1.2-.4.1,0,.2-.2.3-.3-.1,0-.2-.2-.4-.2-1.4,0-2.8,0-4.2.1-1.7.2-3.4.5-5,.8-1.6.2-3.2-.5-4.7.4-.1,0-.5-.2-.8-.3-1.2-.7-1.2-.7-1.5.8-.2,0-.4,0-.6.1,0,.1,0,.2,0,.3.2-.1.5-.3,1-.4M203.9,424c-.1.9.5.7,1,.7.1,0,.2-.1.4-.2-.2-.3-.4-.5-.7-.7-.2-.1-.4,0-.7-.3.8-.9.6-1.7-.2-2.6-.7-.8-1.6-.3-2.4-.5,0,.5-.2,1-.2,1.5,0,.7-.1,1.5-.3,2.2,0,.3-.3.6-.5.9,0-.3-.1-.6-.2-.9-.3-1.8-.6-3.6-1-5.4,0-.3-.4-.5-.7-.6,0,0-.4.2-.5.4-.5.8-.3,3.4.4,4.1.6.6.9,1.2.8,2,0,.3.2.9.4.9.8,0,1.4.2,1.5,1.1,0,.7,0,1.5-.2,2.2-.2.7-.6,1.5-1.2,2.1-.7.7-.4,1.4-.5,2.2,0,.1,0,.3.1.4.2-.1.4-.2.5-.3.1-.2.2-.5.3-.8,0-.2.1-.4.2-.6,0,.2.2.4.3.5.1.3.2.9.4,1,.4.2,1,.3,1.4.1.5-.2.2-.5.1-1-.3-2-.5-4.1-.5-6.1,0-1.5.5-2.1,1.8-2.3M191,231.5c-.4,0-.8,0-1.2,0-1.2.1-1.9.8-1.3,1.8.9,1.8.2,3.5.4,5.3.2,2,.2,3.9.5,5.9.2,1.9-.2,3.8,0,5.7.2,1.5.3,3,.5,4.6.1,1.1-.5,1.5-1.3.9-.8-.6-1.2,0-1.5.4-.3.6-.3,1.4-.4,2,.7-.1,1.1,1.2,2,.2.3-.3,1.5-1.1,1.7.6,0,.3.6.6,1,.8.8.4.9,1,.8,1.7,0,.2-.1.4-.2.6-.2-.1-.3-.4-.5-.4-.2,0-.6-1-.7,0-.1,1.4,0,2.8.1,4.1.2,1.5.6,2.9.8,4.3.2,2,.3,3.9.5,5.9,0,.6.5,1.3.9,1.5.9.4,1.9.4,2.8.5,1,.1.9,0,.9-1.1,0-3.4,0-6.9,0-10.3,0-1.7,0-3.5-.5-5.2-.4-1.8-.9-3.6-.9-5.5,0-1.2-.2-2.2-1-3.1-.6-.7-.9-1.5-.9-2.4,0-1.1,0-2.2-.4-3.3-.5-1.6-.4-3.4-.5-5.2,0-.3,0-.6,0-.9,0-.4-.3-.5-.5,0,0,.2,0,1.1-.4.2-.2-.4,0-1.4.3-1.4,1.1-.2.6-.8.5-1.4,0-.4-.3-.8-.3-1.3,0-1.5-.7-2.3-2.1-2.6-.3,0-.7-.3-.7-.6,0-.2.2-.6.4-.8.4-.5.9-.9,1.6-1.4.2-.2.5-.4.7-.4.4,0,1.1,0,.8-.6,0-.2-.9-.4-1.1-.2-.4.3-.5.9-.9,1.3M372.5,51.5c-1.4.8-2.7,1.8-4.6,2-1.5.1-3.2,1.2-3.5,3.2-.2,1.6-.6,3.4.9,4.4,1.7,1.1,3.7,1.8,5.7,2.6.7.3,1.5.1,2.2.3,3.7,1.1,5.4,4.1,7,7.2.1.3.3.6.4.9.3-.4.9-.7.9-1.1,0-1.6.3-3.2-.7-4.6-.4-.6-.6-1.5-.7-2.3-.2-2-.3-4.1-.5-6.1,0-.5-.3-1.1-.7-1.3-1.9-1.2-3-3-4.3-4.7-.5-.6-1.1-1.4-2.3-.5M420.4,48.4c.2-.2.5-.4.6-.7.2-.4.2-.8.2-1.3-.4,0-.8,0-1.3,0-.1,0-.2.2-.3.3-2.4,1-4.9,1.2-7.3.8-.8-.1-1.5-.2-1.9.2-2.4,1.6-5.3,1.8-7.9,3.1-2.7,1.4-6,1.9-9.2,2.1-.5,0-1,.5-1.5.7.4.6.9.8,1.6.6.2,0,.4-.2.6-.2,1.1,0,2.3-.3,3.3,0,.9.2,1.5.1,2.3-.2,1.4-.6,2.8-1.1,4.3-1.4,2.3-.5,4.6-1,6.9-1.4,1.9-.4,3.8-.7,5.7-.9.8,0,1.7.3,2.6.4,1.6.2,3.3-.4,5,.4.3.1.9-.4,1.3-.6-.4-.2-.7-.6-1.1-.7-1.3-.4-2.5-.6-4-1.2M394.7,16.2c1.4-.9.8-2.3.9-3.6,0-.1-.3-.4-.4-.4-2.4,0-4.7.2-7.1.3-1.8,0-3.4,1.2-5.4,1.2-1.8,0-3.9.3-5.1,2.2-.2.3-.4.6-.6.8.4.2.7.5,1.2.6.8.1,1.8.2,2-.7.2-1.3,1.1-.3,1.6-.7.4,1.5,1.7.7,2.5,1.1,1.2.6,2.4.7,3.5-.4.3-.3.9-.5,1.4-.6.2,0,.4.5.7.8-.2,0-.4.1-.6.2.2.1.4.3.5.3,1,0,2.2-.2,3,.7.6.6,1,.2,1.3-.2.3-.3.4-.7.7-1.6M326.2,297.5c-.9-.2-1.9-.3-2.8-.5-.2,0-.6.1-.6.2,0,.3,0,.6.2.8,2.2,2.5,3.3,5.2,3,8.6,0,.5,0,.9,0,1.4,0,.8.2,1,.9.6.5-.3,1.2-.3,1.7-.3,2,0,2,0,2-2.1,0-1.9-.4-3.8-.4-5.6,0-2.3-.1-2.5-2.4-3-.4,0-.8,0-1.6,0M298.6,276.4c-2.6-.2-5.2-.4-7.7-.4-4.6,0-9.2-.3-13.8.4-.7.1-1.4.3-2.1.5-.2,0-.3.3-.4.4.2.2.4.5.6.5.6,0,1.2-.1,1.8-.2.6,0,1.5-.4,1.7,0,1.1,1.3,2.7,1.1,3.9,1.2,3.8.1,7.6-.2,11.5-.4.2,0,.5,0,.6-.2,1-.9,2.2-.7,3.4-.7.5,0,1,0,.6-.9M340,55.4c0,1.2,0,2.4,1,3.3.9.8,1,1.9,1.4,2.9.7,2.1,1.4,4.1,2.1,6.1,0,.2.3.3.5.4,0-.2.2-.4.2-.6-.8-2.4-1.5-4.8-2.3-7.2-.5-1.7-.2-2.5,1.3-3.4.3-.2.7-.5,1-.4,1.1.1,1.5-.8,2-1.4.9-1-.3-1.5-.6-2.2-.6-1.3-1.3-1.5-2.4-.7-.5.3-.7.4-1.2.1-.6-.3-1.2-.4-1.9-.5-.6,0-1.3-.2-.8.9.3.7,0,1.6-.2,2.6M193.4,334.4c0-.4.3-.9.2-1.3-.6-1.6-1.1-3.3-.5-5,.1-.3,0-.7-.1-1.1-.6-2.6-1.5-5.1-1.3-7.9.1-1.2-.2-2.4-.4-3.5-.5-2-1.6-4-.5-6.2,0-.2-.2-.8-.5-.9-.3-.2-1-.3-1.2-.1-.3.2-.4.8-.4,1.2,0,.7.2,1.3.2,2,0,.9.1,1.8.2,2.7,0,.9,0,1.9.3,2.7.2.8.8,1.6.9,2.4.4,2.7.9,5.5.9,8.2,0,2.5,1.5,4.8,1,7.3,0,.2.5.5.7.7,0-.4.1-.7.4-1.3M260.7,81.9c0,.4,0,1,.2,1.1,1.3.6,2.6,1.1,4.1.7.4-.1.8-.3,1.2-.4,3-.1,5.8-.9,8.8-1.4.2,0,.3-.3.4-.4-.2-.2-.4-.5-.5-.5-1.5,0-3-1-4.5,0-.3.2-1-.2-1.5-.2-.6,0-1.2,0-1.7,0-.8,0-1.7.1-2.5,0-1.4-.3-2.7-.3-3.9,1.3M173.3,240c-1.3-.8-1.7-1.9-1.3-3.4.1-.4,0-.8,0-1.3-.4.2-.8.5-1.2.8-.2.2-.4.5-.4.7.3,1,.5,2.2,1.1,3,.6.8,1.6,1.3,2.4,2,0,0,.3,0,.4,0,1.8-1,3.6-2.1,4.2-4.2,0-.3,0-.7-.1-1-.7-1.9-2.4-1.6-3.9-1.8-.7,0-1.3,0-.7,1,.4.6.6,1.3-.5,1.5-.3,0-.4.6-.6.9.4.1.7.3,1.1.4.4.2,1.1.4,1.1.6,0,.5-.3,1.1-.4,1.6-.3-.2-.6-.4-1.1-.8M235,47.7c-.4.2-.8.4-1.2.5-1.1.2-1.7.9-2.3,1.7.9-.2,1.7-.5,2.6-.7,2.2-.6,4.4-1.7,6.7-1.8,3.1-.2,5.9-1.3,8.8-2,.3,0,.5-.2.8-.4.1,0,.2-.2.3-.3-.1,0-.2-.2-.4-.2-.4,0-.8,0-1.2,0-2.2.4-4.3,1.3-6.7,1.4-1.3,0-2.6.2-3.8.6-1.1.3-2.1.8-3.7,1.3M186.1,224.8c0,2,.5,3.9,0,5.9-.1.5,0,1.1,0,1.6,0,.2.4.4.6.6,0-.2.2-.4.2-.6.2-1.9.4-3.8.5-5.6,0-1.4.5-.5.8-.2.4.3.6.5.6-.2,0-.5,0-.9,0-1.4,0-.3.3-.7.5-.7.3,0,.6.3.8.5.2.2.4.5.6.7.1-.2.3-.3.4-.5,0-.4.2-.9-.6-1-.8,0-1.8-.7-2.3-.4-1.5,1-1.2,0-1.3-.9,0-.4-.3-.7-.5-1.1-.3.3-.8.6-.9.9,0,.5.3,1.1.4,2.1M368.8,13.6c.3.2.6.4,1,.4,1.9,0,3.9,0,5.8,0,.1,0,.3-.1.4-.2-.2,0-.3-.2-.5-.3-.4-.2-.8-.4-1.2-.5-1.5-.2-3-.2-4.5-.5-1.7-.4-3.3-.8-4.8.5-.3.2-1,.2-1.3,0-1.5-1.1-2.6.3-3.9.5-.2,0-.4.2-.6.2.2,0,.4.2.6.2,1.5.3,3,0,4.5-.1,1.3,0,2.7-.2,4.5-.3M198.7,380c-.5.7-1.1,1.3-1.4,2-.4,1.2,1.1,1.1,1.5,1.9.1.2.5.3.8.4,0-.4.2-.7.3-1.1,0-.7,0-1.4.1-2,.3-1.2.7-2.3,1-3.5,0-.3.5-1.6-.7-.6-.1.1-.5.1-.7,0-1.8-1.2-1.3.3-1.3,1.2,0,.5.3,1,.4,1.9M192.7,303.3c0,0,0-.2,0-.2,0-.7,0-1.4-.6-1.8-.7-.4-1.4-1.5-1.9-1.3-1.1.3-.7,1.5-.7,2.4,0,.1-.2.2-.2.4,0,1.2-.1,2.4,0,3.6,0,.2.4.4.6.5,0-.2.1-.4.2-.6.2-1.1.6-1.9,2-1.7.5,0,.9,0,.8-1.2M181.4,164.9c0,0,.1-.1.2-.2.9-3-.1-5.9-.7-8.7,0-.1-.4-.2-.6-.2-.1,0-.3.3-.3.5,0,1.2.2,2.4,0,3.5-.5,1.8.2,3.4.5,5,0,.2.4.2.9.1M288.3,48.7c4.1-.2,8.3-.3,12.4-.5.2,0,.3,0,.5,0,.3-.1.6-.3,1-.5.1,0,.3-.1.4-.2-.2,0-.3-.2-.5-.3-.2,0-.5,0-.7,0-1.3.1-2.6.5-4.1.2-1.1-.3-2.7.2-4,.3-2.4.1-4.9-.4-7.3.4-.6.2-1.4.2-2,.3.8,0,1.5.1,2.3.1.5,0,1.1,0,2.1,0M219.6,109.5c2.1-.1,2.1-.2,2.1-2.3,0-.8-.2-1.2-1-1-1.1.3-2.2.6-3.3,1-.3.1-.8.6-.8.9,0,.3.5.7.9.9.5.2,1.1.3,2.1.5M201.6,451.1c.6,0,1.3.2,1.9,0,.8-.3.9-.1,1,.6,0,.2.3.4.4.6.2-.3.5-.5.5-.8,0-.6-.4-1.3-.4-1.9,0-.7-.1-1.5-1-1.5-.8,0-1.8,0-2.4.4-.7.5-.6,1.5,0,2.6M209.5,495.6c.3,0,.6,0,.8-.2.5-.5,1.5-1.3,1.4-1.4-.9-1.2-.8-2.6-1-4,0-.2-.4-.4-.6-.6,0,.2-.2.4-.2.6.1,1.5-.4,2.8-1.2,3.9-.8,1.1-.1,2-.2,3,0,.1.1.2.2.4,0-.2.2-.4.2-.6,0-.3.2-.6.5-1.1M191.7,311.8c.4.2.5,1.1,1.2.3.6-.7.9-2.3.7-4.3,0-.4-.2-.8-.3-1.3-.2.5-.4.9-.6,1.4,0,.3,0,.6,0,.9,0,.3-.1.6-.2.8,0-.3-.2-.5-.2-.8-.2-.7-.3-1.4-.5-2.1,0-.3-.2-.5-.2-.8-.2.3-.5.6-.7.9-.2.4.6,3.8.9,4.9M385.1,45.9c.2-.2.3-.3.5-.5.2-.2.4-.4.7-.6-.3,0-.7-.2-.9,0-1.1.6-2.2,1.3-3.4,1.9-1.1.6-2.3,1.1-3.5,1.6-.8.4-2.1,2.2-1.9,3,0,.2.3.3.5.5,0,0,.3-.2.3-.3,0-1.3,1-1.8,1.9-2.4,1.8-1.1,3.6-2.2,5.9-3.3M189.9,260.8c-.6-.5-.6-1.8-1.9-.9-1.3.8-1.9,3.1-.7,4.3.1.1.5,0,.8,0-.1-1,.4-1.2,1.2-1.3.6,0,.8-.9.7-2M350.8,12.9c-.5,0-1,.1-1.5.2-.3,0-.5.2-.8.2.3.2.6.6.9.7.8,0,1.5,0,2.3,0,1.7.2,3.7-.6,5.2.9.1.1.6-.2,1-.3-.2-.2-.4-.5-.7-.6-1.9-1.1-3.9-1.7-6.4-1.2M186.6,252.8c0-.4,0-.8,0-1.2-.2-1.4-.2-1.4,1.1-1.4.2,0,.7-.3.7-.3-.1-.6-.2-1.7-.5-1.8-.8-.3-1.8-.3-2.6,0-.3.1-.3,1.5,0,2.1.4.9-.2,2.2,1.3,2.5M239.4,291.6c.5.5,1.1,1.1,1.6,1.6,0,0,.6-.1.7-.3.2-.9.4-1.7.5-2.6,0-.4-.4-1.1-.7-1.2-.5-.1-1.3,0-1.6.4-.3.4-.3,1.1-.4,2.1M286,14.5c.3-.2.7-.5,1-.4,2.5.3,4.9-.7,7.3-1,.3,0,.6-.1.8-.2-.3,0-.5-.3-.8-.2-1.5.1-3,.3-4.5.5-1.4.2-2.8.3-4.2.5-.9.1-1.7.3-2.5.6-.2,0-.4.4-.6.6.2,0,.4.2.6.2.8-.1,1.6-.3,2.8-.5M436.3,55.4c.5.4,1,.8,1.6,1.1.3.1.7,0,1.1,0-.1-.3-.1-.8-.3-.9-.9-.7-1.8-1.2-2.7-1.8-1-.7-2.1-1.1-3.4-1.1.8.7,1.6,1.4,2.5,2.1.3.2.6.3,1.2.7M200.4,443.4c-.9,1.3.5,2.6.3,3.9,0,0,.3.3.5.3.2,0,.4-.2.4-.4.2-1.3.4-2.6.5-4,0-.8.3-2-.7-2-.8,0-.6,1.2-.9,2.2M194.1,317.4c0-.8,0-1.7-.2-2.5,0-.2-.3-.3-.5-.5,0,.2-.2.3-.3.5-.2.4-.4.8-.4,1.2,0,1.7,0,3.4,0,5.1,0,.2.2.4.2.6.2-.2.3-.3.5-.5.8-1,.6-2.3.7-3.9M201.1,34.4c-1.6.7-3.1,1.4-4.7,2.1-.5.2-1.2.3-1.6.6-.3.2-.5.7-.7,1.1.4,0,.9.3,1.2.1,2.1-1,4.1-2.1,6.1-3.2.5-.3,1.6,0,1.5-1.2-.5,0-1.1.2-1.8.5M195.2,341.5c0-.6-.2-1.2-.2-1.8,0-.8-.2-1-1-1.1-1.2-.1-1.4.4-1.5,1.3,0,.8-.1,1.6-.2,2.4.5-.1,1.1-.2,1.6-.4.4,0,.7-.2,1.3-.5M164.4,78.6c-.1.8-.1.9.2.7.9-.4,1.7-.8,2.6-1.1,2-.8,3.8-2.2,6.2-2,.2,0,.5-.4.7-.6-.3-.1-.7-.4-1-.3-2.8.8-5.7,1.5-8.6,3.2M259.1,39.1c.8-.7,1.6-1.3,2.4-2,.1,0,.2-.2.3-.3-.2,0-.4-.3-.5-.3-.6.1-1.1.4-1.6.5-.7.2-1.2,1.5-2.3.5-.2-.2-.8.2-1.2.3.2.5.3,1.3.7,1.5.5.3,1.2,0,2.1-.2M116,91c0-.2.9-.4,0-.7-.4-.1-.8.1-1.1,0-2.9-1.2-3.4,0-4.9,1.6-.2.2-.2.5-.2.8.4,0,.8,0,1.1-.2,1.4-1.3,3.1-1.7,5.2-1.4M238.7,283.9c1.3.3,1.4-.8,1.6-1.6.2-.7,0-1.3-.9-1.5-.1,0-.3-.2-.4-.2-.4.4-1,.8-1.2,1.4-.4.7-.9,1.5.9,1.9M244.8,37.9c0,0,.2,0,.2,0,.6,0,1.2-.1,1.8-.2-.6-.3-1.2-.6-1.9-.7-.7-.1-1.5-.2-2.1,0-1.6.6-3,.6-4.6,0-.2,0-.5.1-.8.2.2.2.4.6.6.6,1.7,0,3.3-.1,5,.5.3.1.8-.3,1.7-.4M189.2,273.6c-.1.1-.2.2-.3.3-.6.6-.6,1.3,0,1.7.6.4,1.4.5,2.2.7,0-.6,0-1.3-.2-1.9-.2-.7-.1-2-1.8-.9M239.7,295.6c.1-.1.2-.3.3-.3.3-.1.5-.2.8-.3-.2,0-.5-.3-.7-.3-.3,0-.8.3-.9.5-.3,1-.6,2-.6,3,0,.4.9,1.1,1,1.1.6-.3,1-.9,1.5-1.4,0,0-.5-.8-.8-.8-1.1,0-.8-.7-.6-1.5M100.5,105.5c.8-.5,1.6-1,2.4-1.5.1,0,.2-.3.3-.5-.1,0-.3-.1-.4-.1-.6,0-1.3,0-1.8.2-1.2.7-2.3,1.6-3.4,2.4,0,0,0,.4,0,.4.2.1.4.3.6.2.7-.3,1.3-.6,2.2-1.2M158.3,64.1c2.1-.4,2.9-2.6,4.7-3.3,0,0,0-.4,0-.4-.5,0-1.1-.2-1.4,0-1.4,1.1-2.6,2.3-3.9,3.4.1.2.3.3.7.3M187.1,242.5c-.6.4-1.2.9-1.8,1.3-.1,0,0,.4,0,.6.3,0,.8,0,.8,0,.3-1.6.9-.2,1,0,.1.3,0,.8-.1,1.1-.4.8.5.9.7,1.3.1-.3.3-.6.4-.9,0-.9,0-1.9,0-2.8,0-.6-.2-1.1-.9-.5M196.9,336.1c0-.2,0-.5,0-.7,0-.6-.1-1.2-.2-1.8-.4.4-.8.9-1.3,1.1-1.2.5-1.1,1.3-.6,2.1.7,1,1.4.5,2.1-.7M395.7,18.5c1.2-.2,1.6-1.9,3-1.6,0-.3.2-.6.1-.8-.4-.7-1.7-.9-2.2-.4-.6.7-1.3,1.5-1.8,2.3-.3.5,0,.8.8.5M353.6,8.2c0-.2,1-.5,0-.7-.6,0-1.3.4-1.9.4-.8,0-1.5.3-1.4,1.1.1.8.9.6,1.5.3.1,0,.4,0,.5,0,1.9,1.4.9-.4,1.3-1.2M203.9,443.6c-.4-.4-.7-.8-1.1-1.2,0,.5-.3,1-.3,1.5,0,.5.4,1,.4,1.4,0,.7,0,1.4.8,1.7.2-.6.6-1.2.6-1.8,0-.4-.3-.8-.4-1.7M386.3,82.1c-.4-.4-.7-.8-1.1-1.2-.5-.4-1.3-.8-.4-1.6.1,0,0-.4,0-.6-.2,0-.4,0-.5.2-.2.2-.4.5-.7.6-.7.4-.7,1.2-.6,1.8.3,1.2.9,0,1.3.1.6.2,1.2.5,2,.6M305.9,278.5c-.7-.9-1.1-1-1.4-.2-.3.8-.6,1.6-.8,2.4,0,.2-.1.6,0,.6.2.1.6.3.8.2.4-.3.8-.6,1-1,.2-.5.2-1.2.5-2M199.2,124.2c0-.2.9-.6,0-.6-1.6,0-3.3.2-4.9.4-.1,0-.3.4-.3.5,0,.1.3.4.4.4,1.5-.1,3-.3,4.7-.7M316.6,287.4c.5,0,.9,0,1.4,0,.4,0,.8.1,1.3,0,.2,0,.3-.3.5-.5-.2-.1-.4-.2-.6-.3-.9-.9-2-.3-3.1-.4-.4,0-.9-.2-1,.6,0,1.1.6.8,1.4.6M330.2,296.3c0-.2,0-.6-.2-.6-1.4-.2-2.8-.4-4.2-.5-.3,0-.6.1-.8.3-.2,0-.3.3-.4.5.1,0,.3.2.4.2,1.6.2,3.3.3,5.2.2M406.9,15.7c1.8,0,3.7.2,5.5.2.2,0,.4-.2.6-.2-.2-.2-.3-.5-.5-.5-1.8-.2-3.6-.6-5.6.5M155.7,70.4c1,0,2.1.2,3.1.2.4,0,.7-.3,1.1-.4-.3-.3-.7-.9-1.1-.9-1.1-.2-2.2,0-3.2,1.1M196.6,227.8c-.2.1-.5.2-.7.4,0,0,.1.5.2.5,1.4,0,2.8,0,4.1,0,0,0,.2-.3.3-.5,0-.1-.1-.4-.2-.4-1.1.2-2.2-.9-3.8,0M380.2,19c1.2,0,2.4-.1,3.6-.2.2,0,.4-.1.6-.2-.1,0-.2-.2-.4-.2-1.6,0-3.2-.8-4.7,0-.4.2-.7.8-1,1.2.5,0,.9-.2,1.4-.3,0,0,.2,0,.5-.2M163.4,66.9c0,.3,0,.5-.1.8.9,0,1.8.2,2.6,0,.4-.1.7-.9,1-1.3-.5,0-1,0-1.5.2-.6,0-1.2.2-2,.5M244.8,82.3c.6-.2,1.3-.3,1.9-.5.1,0,.2-.4.2-.6,0-.1-.4-.3-.5-.3-.8.1-1.6.2-2.4.5-.5.1-.9.5-1.3.8,0,0,.1.4.2.6.4-.1.8-.3,1.2-.4,0,0,.2,0,.7,0M188.2,269.9c.6-.4.9-1.1.7-1.8-.1-.5-.4-1.1-.7-1.5-.2-.2-1.3,1.6-1.1,2,.2.4.6.7,1.1,1.2M242.2,50.8c-.1,0-.3.1-.4.2-.3.3-.9.8-.8.9.4.6.8.7,1.4.1.3-.3,1-.3,1.5-.4.1,0,.3,0,.5.2,0-.2,0-.5,0-.6-.5-.8-1.3-.6-2.2-.4M202.5,417.5l-.3,1.1c.6-.2,1.4.6,1.7-.4.2-.9.2-1.8.3-2.7-.5.6-1,1.2-1.7,2M347,10.5c.2.2.4.5.6.7.3-.2.7-.4.8-.7.2-.4.3-.9.4-1.4-.4,0-.7-.1-1.1-.2,0,.7-1.8.1-.7,1.6M316.1,37.2c0,.2-1,.5,0,.7,1.3.3,2.3-.4,3.1-1.3.2-.2.2-.5.2-.8-.2,0-.4.2-.6.3-.8.3-1.6.6-2.6,1.2M354.5,9.1c0,.2-1,.5,0,.7,1.3.3,2.3-.4,3.1-1.4,0,0,0-.4-.2-.5-1.1-.5-1.6.9-2.8,1.2M186.8,237.2c-.2-.1-.4-.5-.5-.4-.6.4-1,2.1-.7,2.9,0,.1.3.2.5.3.3-.7.6-1.4.8-2.1,0-.1,0-.3-.2-.7M239,271.5c.1-.1.3-.2.3-.3-.2-1.2-1.2-.9-1.9-.8-.6,0-1.1.5-1.6.7.6.2,1.2.5,1.8.6.4,0,.8,0,1.4-.2M385.5,25c.7-.1,1.5-.2,2.2-.4.3,0,.4-.6.6-.9-.3-.1-.6-.3-1-.3-.4,0-.8.3-1.2.4-.2,0-.4-.1-.7-.2v1.4M312.2,285.3c-.7-1.1-2.3-1.8-3.3-1.4-.1,0-.2.2-.2.4,0,.2.1.5.3.5.9.2,1.8.3,3.2.5M350.5,18.3c-.2-.3-.5-.9-.7-.9-.8,0-.4.5-.2.9.2.5.1,1.2.2,1.8,0,.3.4.6.6.9.1-.3.3-.6.3-.9,0-.5,0-1.1-.2-1.9M388.4,66.4c.4.6.8,1.2,1.3,1.7,0,.1.4,0,.6,0,0,0,0-.2,0-.3-1-1.1-1.9-2.3-2.9-3.4,0,0-.3,0-.4,0,0,.2,0,.4,0,.5.4.4.7.8,1.4,1.4M252.1,58.3c-.7,0-1.3.1-2,.3-.1,0-.4.4-.3.5.2.2.5.5.6.4.9-.9,2.1-.3,3.1-.5.2,0,.3-.2.5-.3-.1-.1-.2-.3-.3-.3-.4-.1-.8-.2-1.5-.1M206,122.1c.2-.2.3-.4.5-.5.5-.3,1-.5,1.6-.7-.5,0-1,.1-1.5.2-.7.2-1.4.3-2.1.6-.4.1-.7.4-1,.6.5,0,.9,0,1.4-.1.2,0,.4-.1,1.1-.2M187.5,451.1c0,.3,0,.6,0,.9,0,.3.4.5.5.7.1-.2.3-.4.4-.7.5-1.2-.7-1.8-.9-2.8,0,0-.2-.1-.3-.2,0,.1-.2.3-.2.4.1.4.3.8.5,1.6M183.8,453c0-.2-.1-.4-.2-.6-.1,0-.3,0-.3.2-.2.8.3,1.4.8,1.7.5.3,1.1.3,1.7.3,0,0,.3-.7.3-.9-.2-.9-.4,0-.7,0-.5-.1-.9-.3-1.6-.7M149.2,255.2c-.3-.3-.6-.7-.8-1-.3.4-.9.6-.4,1.3.3.4.3.9.5,1.4,0,.2.3.2.5.4,0-.2.1-.4.2-.6,0-.3,0-.6,0-1.4M431.9,25.7c.2,0,.3,0,.5,0,.2,0,.4.2.7.3,0-.2-.2-.7-.3-.7-1.2,0-2.4-.6-3.6,0-.2,0-.3.5-.3.5.2.2.4.4.6.4.6,0,1.3-.3,2.4-.4M199.7,451.1c.2-.3.4-.6.5-1,.1-.7.2-1.3.3-2-.5.5-1.3.9-1.5,1.5-.2.4.3,1.1.8,1.5M321.8,288.8c-.4-.3-.9-.5-.9.3,0,.3.2.8.4.9.7.1,1.4,0,2.1,0,0-.2,0-.5,0-.6-.4-.2-.8-.2-1.5-.6M150.6,413.2c-.9.5.3,1,0,1.5.2,0,.6.2.6.2.3-.5.7-1.1.7-1.5,0-.4-.5-1.2-1.3,0M184.2,211.7c0,1.1,0,2.2,0,3.3,0,.2.4.4.6.7,0-.2.3-.5.3-.7-.2-1.2-.4-2.3-.9-3.2M218.9,42.3c-.9-.4-1.9.9-2.8-.2,0,0-.3,0-.4.1,0,.1,0,.2.1.3.7,1,1.2,1.1,3-.2M195,396.4c-.2.7-.4,1.3.4,1.8.1,0,.4.2.5.1.5-.5,0-2.7-.7-3,0,.2-.1.4-.2,1.1M322.7,19.4c-.3,0-.7,0-1,0-1.4.6-.1,1.8-.4,2.7,0,0,.2.2.2.3.2-.6.4-1.2.7-1.8.1-.3.3-.5.5-1.2M270.5,16.4c-.3.2-.6.3-1,.4-.2,0-.4-.9-.7,0,0,.1.3.4.5.5.7.2,1.4.4,2.1.5.3,0,.6-.3.9-.5-.2-.1-.4-.3-.7-.4-.3-.1-.7-.2-1.3-.5M236.9,273.6c0,.3-.1.8,0,.9.3.2.8.3,1.2.3.3,0,.6-.1.8-.2-.2-.3-.2-.8-.5-1-.3-.2-.7,0-1.6,0M243.9,224.1l-2,.8c.7,1.4,1.5,0,2.3.2.1,0,.4,0,.4-.1,0-.3,0-.5-.6-.8M368.5,18.5c-.8,0-1.6-.2-2.5-.2-.3,0-.5.2-.8.2.2.2.4.6.7.6.8,0,1.7.4,2.6-.6M115.5,88.7c0,.2-.9.4,0,.7,1.2.4,1.8-.9,2.8-1.1,0,0,0-.4,0-.6-.2,0-.3,0-.5.1-.7.2-1.4.4-2.3.9M207.2,475.9c-.3-.5.7-1.5-.6-1.6,0,0-.3,1-.3,1.6,0,.3,0,.6,0,.9,0,.1.5.3.5.2.2-.2.3-.4.4-1.1M250.4,80.9l.6-.2c-.4-.3-.8-.8-1.1-.7-.6,0-1.1.5-1.6.8.2.2.3.6.5.5.4,0,.8-.3,1.6-.4M275,78.8c0,1.2.9.8,1.3.6.4-.1.7-.8,1-1.2-.4,0-.7.2-1.1.3-.3,0-.6,0-1.2.2M371.3,11c0-.2,0-.3,0-.5-.2-.5.9-1.1,0-1.4-.3,0-1,.4-1.2.8-.6,1.1.9.6,1.3,1M415.5,10.8c0-.3,0-.6,0-.9-.5,0-1.1.2-1.6.3,0,0,0,.9.2,1,.4,0,.8,0,1.4-.4M301.4,36.5c-.5.2-1,.3-1.4.5-.2,0-.4.2-.6.3.2,0,.5.2.6.1.9-.3,1.7-.6,2.6-.9.3,0,.6-.2.8-.2-.3,0-.5-.2-.8-.2-.4,0-.7.1-1.3.5M195.5,131.2c.9,0,1.9,0,2.8,0,0,0,0-.1-.1-.2-.8-.9-1.7-.6-2.7.1M306.8,282.3c.4.4.8,1.1,1.3.1.2-.4.1-.9.1-1.3,0-.2-.2-.4-.3-.4-.2,0-.5,0-.6.2-.2.3-.3.6-.5,1.4M183.3,392.2c-.3.3-.6.7-.9,1,.5,0,1.1.3,1.5.1.3,0,.5-.6.8-1-.4-.1-.8-.2-1.4-.1M168.3,68.1c0,0,0-.1.2-.2.4-.2.8-.4,1.2-.6,0,0-.1-.4-.2-.4-.5,0-1,.1-1.4.3-.3.1-.5.4-.6.6-.2.2-.3.5-.4.8.3-.2.6-.3,1.2-.7M348.4,47c.2-.5.3-.9.5-1.4,0-.2.2-.4.3-.7-.3,0-.6,0-.8.3-.4.4-.7.8-.9,1.2-.2.5,0,.9.9.6M329.9,21.1c-.6.3-1.3,0-1.9,0-.2,0-.4.3-.5.5,0,0,0,.3,0,.3.8,0,1.6.1,2.3,0,.2,0,.4-.6,0-.9M171.4,58c-.5-.6-1.2-.9-1.6,0-.1.2.6.9,1,1.4.3-.4.5-.7.6-1.3M326,288.8c-.2.5-.3,1-.5,1.4,0,.2,0,.4.2.6,0,0,.3,0,.4,0,1-.4,1-1.5-.2-2.1M285.5,242.3c0,0-.2,0-.2,0-.4,0-.9,0-1.3.1,0,.1,0,.3.2.3.5.2.9.4,1.4.4.4,0,.8-.3,1.2-.4.1,0,.3-.1.4-.2-.2,0-.3-.2-.5-.3-.3,0-.6-.2-1.1,0M202.7,90.8c.2,0,.4,1,.7,0,.2-.6.2-1.3.2-2,0-.3-.2-.6-.4-.8-.1-.1-.4,0-.6,0,0,.3-.2.6,0,.8.5.7.4,1.2,0,2M136.5,69.9c.7.9,1.4.9,2.3.2.1-.1.2-.3.3-.4-.2-.1-.4-.3-.6-.3-.6,0-1.1.2-1.9.5M381.6,59.2c0,.8,0,1.5,1.1,1.6.3,0,.5.1.8.2-.1-.3-.2-.6-.4-.8-.4-.5-.9-.9-1.5-1.1M208.1,484.3c-.3-.1-.8-.5-.9-.4-.6.4-1.2.9-.9,1.8.5-.3,1-.7,1.4-1,0,0,.1-.1.4-.4M155.7,68.5c.3-.3.6-.7.9-1-.4,0-.9-.2-1.2,0-.4.2-.7.6-1.1.9.4.1.8.2,1.4.1M151,473.6c.2.2.4.5.6.7,0-.4.2-.9.1-1.3,0-.3-.4-.6-.6-.9-.3.4-1,.7-.1,1.5M312.2,17.3c.3.5.6,1,1,1.5.1.1.5.2.6.1.2-.2.3-.5.5-.7-.2-.1-.4-.3-.7-.4-.3-.2-.6-.3-1.4-.5M259.3,240.4c-.3.1-.6.2-.8.3-.1.1,0,.4-.1.6h2.3c0-.2,0-.5-.1-.6-.2-.2-.5-.2-1.2-.3M360.6,8.7c.4.5.8.5,1.1-.2.1-.3.1-.6.2-.9-.5,0-1.3-.5-1.2,1.1M395.9,35.6c.5-.5,1-1,.6-1.7,0-.1-.5-.2-.6-.1-.6.5-1.1,1,0,1.9M325.5,23.2c.2-.2.4-.5.4-.7,0-.3,0-.6-.2-.8-.2.1-.3.2-.5.4-.2.2-.3.5-.5.5-.6,0-.9.2-.6.8.1.2.7.1,1.3,0M148.7,258.4c-.9.5.2,1,0,1.5,0,.3,0,.7.2,1.1.2-.4.7-.8.7-1.2,0-.5-.4-1-.9-1.3M226.8,81.2c0,.2,0,.5,0,.7.3.4.7.6,1.1,1,.1-.2.2-.3.3-.5.2-.7-.3-.8-.8-1-.1,0-.2-.2-.6,0M199.9,465.9c-.7.6-1,1.8-.4,2.3,0,0,.3,0,.4,0,0,0,0-.2.1-.3,0-.6,0-1.2-.1-2M224.7,60.4c.4-.1,1.2.4,1.1-.5,0-.2-.7-.3-1-.4-.1,0-.3,0-.4,0-.5.2-.5.5.4.9M166.2,493.9c-.4.1-.8.2-1.2.4,0,0,0,.3,0,.4.5.5,1.9.1,2.2-.6-.2,0-.4-.1-1.1-.2M185.2,227.1c0-.6-.2-1.1-.3-1.7,0-.1-.4-.1-.6-.2.3.7-.8,1.8.9,1.9M311.7,278.3c-.4.1-.9.2-1.2.3-.1,0-.2.5-.1.6.1.2.4.3.6.2.4,0,.8-.2,1.2-.3,0-.2-.2-.4-.5-.9M216.5,91.9c-.1-.5.9-1.2-.2-1.6-.2,0-.5.1-.7.2,0,0,.6,1.5.9,1.3M186.1,452.1c0-.8-.5-1.2-1.3-1.2-.1,0-.3,0-.4,0,.3.4.7.9,1.1,1.3,0,0,.3,0,.7-.2M279.4,14.1c.2-.2.4-.4.6-.6-.6,0-1.2-.1-1.7-.1-.2,0-.3.4-.5.6.4,0,.7,0,1.5.1M377.4,37.2c0,.3,0,.6,0,.9,0,.4.2.8.3,1.1,0-.4,0-.8.2-1,.7-.8.6-1.3-.5-1M273.3,308.7c0,0,.1-.1.2-.2,0,0,0-.1,0-.2-.1,0-.3-.1-.4-.1-1.1,0-2.1.1-3.2.2,1,.1,2,.2,3.4.3M293.5,303.6c.4-.1,1.1-.1,1.1-.3.2-.7-.4-.6-.8-.6-.3,0-.6,0-.9,0-.2,0-.3.2-.4.4.3.1.5.2,1,.5M197.6,39.3c.4,0,.8.1,1.1,0,.4-.2.7-.7,1-1-.4,0-.8,0-1.2.2-.4.1-.8.4-.9.9M287.8,239.5c-.9-.2-1.7-.3-2.6-.5-.1,0-.3.1-.4.2,0,0,.2.3.3.3,1,0,2,.2,2.7,0M400.1,27.6c-.2,0-.5,0-.7,0-.3,0-.6.2-.9.3.3.2.5.5.9.6.5.2.6,0,.7-.9M215.8,88.4c-.2.3-.4.5-.6.8.3,0,.6,0,.8,0,.3-.2.6-.5.8-.8,0-.2,0-.6-.2-.9-.2.2-.4.5-.8.9M330.6,35.8c0,0-.1-.1-.2-.2-.4-.6-.9-.8-1.4,0-.1.2-.1.5-.2.8.4,0,.9-.2,1.3-.3,0,0,.2,0,.5-.2M174.4,286c-.3.2-.6.3-.9.5-.2.1-.3.3-.4.5.2,0,.5.3.6.2.6-.4,1.1-.8,1.6-1.2-.2,0-.4-.1-.9,0M271,71.6c.2-.2.4-.4.7-.7-.2,0-.5-.3-.7-.2-.5.2-1.1.4-1.6.7-.2,0-.3.3-.4.5.3,0,.5,0,.8,0,.3,0,.5-.2,1.3-.3M201.3,122.6c-.1.1-.2.2-.3.3-.2.1-.5.2-.8.3.3.1.6.3.9.3.3,0,.6-.3.9-.4.3-.1.5-.2.8-.3-.4,0-.7,0-1.5-.1M239.7,54.7c-.1-.3-.2-.7-.3-.8-.4-.1-.8,0-1.2,0,0,0,0,.4,0,.4.4.1.8.2,1.6.4M225.6,123.5c.3-.1.6-.1.8-.3.2-.2.2-.6.3-.9-.3,0-.7,0-.9.3-.2.1-.2.5-.1,1M225.6,71.1c0,0-.2,0-.2,0-.1,0-.3.2-.4.3.7,0,1.4,0,2,.1,0-.2,0-.5,0-.5-.4-.1-.7-.1-1.4,0M199.2,436.2c0,.5,0,1.1,0,1.6,0,.1,0,.3.2.4.1,0,.3-.1.3-.2.1-.7,1-1.5-.5-1.8M236.4,116c.3-.4.5-.9-.2-.9-.4,0-.9.2-1.3.3.4.2.7.4,1.6.6M188.9,441.3c.2,0,.5,0,.6-.2.2-.2.2-.5.2-.8l-1.1-.2c0,.3,0,.6.2,1.2M215.3,100.1c-.1-.4-.2-.9-.3-1.2-.1-.2-.4-.4-.6-.6,0,.3-.3.7-.2,1,0,.3.4.6,1.1.8M145.4,69.5c.6,0,1.3.2,1.9.2.1,0,.3-.4.4-.6-.2,0-.5-.3-.7-.3-.5,0-.9.3-1.6.7M335.8,45.2c.3-.5.6-1,.9-1.4-.1,0-.3-.2-.4-.2-.3.4-.7.8-1,1.3,0,.1.1.4.4.3M210.7,220.8c-.1,0-.4,0-.4,0,0,0,0,.3,0,.4.4,0,.8,0,1.1,0,.2,0,.4-.4.5-.7-.3,0-.6,0-1.2.2M204.4,455.3c.4.3.8.5.9-.2,0-.3-.2-.6-.3-.9-.2.2-.4.5-.6,1.2M168.6,491.1c-.3.6-.7,1.2-1,1.8,0,0,.1.1.2,0,.8-.3.9-.9.9-1.9M238.3,59.4c0,.3-.1.5-.2.8.4,0,.8-.1,1.1-.3.2-.1,0-.6,0-.9-.2.2-.3.3-.9.5M280.4,59.9c.5,0,1,0,1.6-.1-.5-.1-1-.3-1.5-.3-.4,0-.7,0-1.1.1,0,.1,0,.3.2.3.1,0,.3,0,.9,0M354,28.3c0-1.1-.7-.6-1.2-.7.1.3.2.6.4.8.2.2.5.2.8-.1M207.6,62.5c-.1-.4-.2-.8-.3-1.2-.2.1-.6.2-.6.4,0,.5-.2,1.1.9.8M238.5,79.8c0,.2,0,.4.1.6.3-.4.5-.7.8-1.1-.3,0-.6,0-.9.5M403.8,17.8c0,0-.1.1-.2.2,0,0,0,.1,0,.2.8.5,1-.2,1.3-.7,0,0-.2-.3-.3-.5-.2.2-.4.4-.9.9M366,49.6c.2-.2.5-.4.7-.5-.3-.2-.5-.5-.8-.7,0,.4,0,.7.1,1.3M227.5,46.8c-.1,0-.3,0-.4,0-.2,0-.5.1-.7.3,0,0,0,.5.2.5.2,0,.5,0,.8-.2.2,0,.3-.3.2-.7M374.4,39.8c0,.2-.3.5-.2.6.2.2.5.4.6.3.3-.2.4-.5.7-.8-.2,0-.4,0-1.1-.1M240.1,264.7c0,0-.1,0-.2.2,0,0,0,.1,0,.1.4,0,.8,0,1.2,0,0,0,0-.4,0-.6-.3,0-.6,0-1.1.3M232.2,37.4c.2,0,.5,0,.6-.2.2-.2.3-.4.4-.6-.3,0-.6,0-.8.1-.2,0-.3.3-.3.7M114.8,175.9c0-.3,0-.6,0-.9,0,0-.4,0-.4,0,0,.3,0,.6.4.9M178.9,152l.7-.5c-.1-.1-.3-.3-.4-.4-.2.2-.4.5-.3.9M210.4,39.5c-.2-.2-.4-.5-.5-.7-.1.1-.3.3-.4.4.2.2.5.4.9.3M431.7,21.8c-.2-.2-.4-.5-.5-.7-.1.1-.3.3-.4.4.2.2.5.4.9.3M224.2,124.4c0-.3,0-.6,0-.9,0,0-.4,0-.4,0,0,.3,0,.6.4.9M223.8,312c-.2-.2-.5-.7-.8-.1,0,.1-.2.2-.3.3.3,0,.5.2.8.2.2,0,.4-.1.4-.5M186.3,270.8c0,0-.1.1-.2.2,0,0,0,.1,0,.2.4-.1.8-.2,1.1-.4,0,0,0-.2,0-.3-.3,0-.5,0-1,.4M350.3,47c.3,0,.6,0,.9,0,0,0,0-.4,0-.4-.3,0-.6,0-.9.4M217.5,221.5l-.5-.7c-.1.1-.3.3-.4.4.2.2.5.4.9.3M168.8,57.3c-.3-.1-.6-.3-1-.4,0,0-.2.3-.3.5.4,0,.7.1,1.3,0M267,271.5c-.3,0-.6,0-.9,0,0,0,0,.4,0,.4.3,0,.6,0,.9-.4M146.4,62.9c-.3,0-.6,0-.9,0,0,0,0,.4,0,.4.3,0,.6,0,.9-.4M348.9,64.8c0,.2-.2.4-.3.6.3,0,.5-.1.8-.2-.3-.3.5-1-.5-.5M107.5,93.8c0-.2-.2-.4-.3-.6-.3.3-.7.5-1,.8.4,0,.7,0,1.3-.1M236.6,236c0,.2,0,.4.1.6l.7-.7c-.2,0-.4,0-.8.1M289.7,240c-.2,0-.4.1-.6.2.1.1.2.3.4.3.4,0,.5,0,.2-.5M313.6,7.5c-.1,0-.3,0-.4,0-.2,0-.5.2-.7.3.2,0,.4.2.6.2.3,0,.5-.1.6-.5M367.4,7.5c.2,0,.4-.1.6-.2-.1-.1-.2-.3-.4-.3-.4,0-.5,0-.2.5M243.4,321.8c-.2,0-.4,0-.6.1l.7.7c0-.2,0-.4-.1-.8M400.8,23.6c-.2.2-.3.3-.5.5l.7.2c0-.3,0-.6-.3-.7M440.8,80.9c-.2.3-.4.5-.6.8.1,0,.3.2.3.2.2-.2.4-.5.3-.9M163,408.3c.2-.2.5-.3.7-.5,0,0-.1-.2-.2-.3-.3.2-.5.4-.5.9M255.1,222.7c-.2-.3-.3-.6-.5-.9,0,.3,0,.6.5.9M267,221.5c-.3,0-.7-.2-1-.2-.1,0-.2.1-.4.2.2,0,.3.2.5.3.2,0,.4,0,.9-.2M282.7,53.3c.2-.2.5-.3.7-.5,0,0-.1-.2-.2-.3-.3.2-.5.4-.5.9M322.9,51.9c0,.3,0,.6,0,.9l.7-.2c-.2-.2-.3-.3-.7-.7M302.6,51.7c-.2-.2-.3-.5-.5-.7,0,0-.2.1-.3.2.2.3.4.5.9.5M229.4,50.5c.1,0,.3,0,.4,0,.2,0,.5-.2.7-.3-.2,0-.4-.2-.6-.2-.3,0-.5.1-.6.5M244.3,23.9c.2-.2.5-.3.7-.5,0,0-.1-.2-.2-.3-.3.2-.5.4-.5.9M301.4,7.5c.2,0,.4-.1.6-.2-.1-.1-.2-.3-.4-.3-.4,0-.5,0-.2.5M406.2,21.5c-.1,0-.3,0-.4,0-.2,0-.5.2-.7.3.2,0,.4.2.6.2.3,0,.5-.1.6-.5M336,37c0-.3.2-.7.2-1,0-.1-.1-.2-.2-.4,0,.2-.2.3-.3.5,0,.2,0,.4.2.9M341.2,40.7c0-.3,0-.6,0-.9-.2.3-.3.6,0,.9M403.8,21.1c-.2,0-.4.1-.6.2.1.1.2.3.4.3.4,0,.5,0,.2-.5M236.6,264.5c-.2.2-.3.3-.5.5.2,0,.5.1.7.2,0-.3,0-.6-.3-.7M400.6,8.9c0,.2.2.3.2.5,0-.2.2-.3-.2-.5M197.6,501.9c-.2,0-.4,0-.6.1,0,.1,0,.3,0,.3.3,0,.5-.1.5-.4M317.8,12.6c-.2,0-.4,0-.6.1,0,.1,0,.3,0,.3.3,0,.5-.1.5-.4M368.3,16.9c0-.2.1-.5.2-.7,0,0-.2,0-.3,0,0,.2,0,.4.1.8M207.2,487.1c0,.2,0,.4.1.6.1,0,.3,0,.3,0,0-.3-.1-.5-.4-.5M385.4,22.7c-.2,0-.5-.1-.7-.2,0,0,0,.2,0,.3.2,0,.4,0,.8-.1M179.1,281.8c-.2,0-.5-.1-.7-.2,0,0,0,.2,0,.3.2,0,.4,0,.8-.1M432.4,23.4c.2,0,.4,0,.6-.1,0-.1,0-.3,0-.3-.3,0-.5.1-.5.4M224.2,29c-.2,0-.4,0-.6.1,0,.1,0,.3,0,.3.3,0,.5-.1.5-.4M145.4,174.7c0-.2,0-.4-.1-.6-.1,0-.3,0-.3,0,0,.3.1.5.4.5M377.6,40.2c0,.2-.1.5-.2.7,0,0,.2,0,.3,0,0-.2,0-.4-.1-.8M325,290.7c0-.2,0-.4-.1-.6-.1,0-.3,0-.3,0,0,.3.1.5.4.5M327.1,293.3c0,.2.2.3.2.5,0-.2.2-.3-.2-.5M240.1,43.1c0,.2.2.3.2.5,0-.2.2-.3-.2-.5M377.6,44c0-.2.1-.5.2-.7,0,0-.2,0-.3,0,0,.2,0,.4.1.8M265.6,44.2c0,.2,0,.4.1.6.1,0,.3,0,.3,0,0-.3-.1-.5-.4-.5M268.4,44.2c.2,0,.5.1.7.2,0,0,0-.2,0-.3-.2,0-.4,0-.8.1M362.9,44.2c-.2,0-.5-.1-.7-.2,0,0,0,.2,0,.3.2,0,.4,0,.8-.1M377.2,46.3c.2,0,.4,0,.6-.1,0-.1,0-.3,0-.3-.3,0-.5.1-.5.4M226.3,50.8c-.2,0-.5-.1-.7-.2,0,0,0,.2,0,.3.2,0,.4,0,.8-.1M385.6,63.6c0,.2.2.3.2.5,0-.2.2-.3-.2-.5M304.4,66.2c0,.2,0,.4.1.6.1,0,.3,0,.3,0,0-.3-.1-.5-.4-.5M141.4,70.6c0-.2.1-.5.2-.7,0,0-.2,0-.3,0,0,.2,0,.4.1.8M249.3,77.9c-.2,0-.5-.1-.7-.2,0,0,0,.2,0,.3.2,0,.4,0,.8-.1M336.3,82.6c0-.2,0-.4-.1-.6-.1,0-.3,0-.3,0,0,.3.1.5.4.5M240.8,311.3c.2,0,.5.1.7.2,0,0,0-.2,0-.3-.2,0-.4,0-.8.1M227.7,114.4c-.2,0-.5-.1-.7-.2,0,0,0,.2,0,.3.2,0,.4,0,.8-.1M257.7,314.1c0,.2,0,.4.1.6.1,0,.3,0,.3,0,0-.3-.1-.5-.4-.5M208.6,120.9c0,0,.2.1.3.2,0-.1,0-.3-.3-.2M220.3,98c0,0,.2.1.3.2,0-.1,0-.3-.3-.2M185.4,129.1c0,0,.1-.2.2-.3-.1,0-.3,0-.2.3M416.7,91.5c0,0,.2.1.3.2,0-.1,0-.3-.3-.2M221.2,84.9c0,0,.2.1.3.2,0-.1,0-.3-.3-.2M194.1,366.5c0,0-.2-.1-.3-.2,0,.1,0,.3.3.2M182.1,390.1c0,0-.1.2-.2.3.1,0,.3,0,.2-.3M222.1,64.3c0,0,.2.1.3.2,0-.1,0-.3-.3-.2M143.3,63.2c0,0-.1.2-.2.3.1,0,.3,0,.2-.3M229.4,63.2c0,0,.1-.2.2-.3-.1,0-.3,0-.2.3M337.7,55.9c0,0-.2-.1-.3-.2,0,.1,0,.3.3.2M248.8,51.2c0,0-.2-.1-.3-.2,0,.1,0,.3.3.2M200.6,47.5c0,0-.2-.1-.3-.2,0,.1,0,.3.3.2M354,46.1c0,0-.2-.1-.3-.2,0,.1,0,.3.3.2M405,42.3c0,0,.2.1.3.2,0-.1,0-.3-.3-.2M150.1,172.4c0,0-.2-.1-.3-.2,0,.1,0,.3.3.2M385.8,39.5c0,0,.2.1.3.2,0-.1,0-.3-.3-.2M113.2,182.2l-.3-.2c0,.1,0,.3.3.2M241.3,24.1c0,0-.2-.1-.3-.2,0,.1,0,.3.3.2M273.6,282.3c0,0-.2-.1-.3-.2,0,.1,0,.3.3.2M149.2,231.3c0,0,.2.1.3.2,0-.1,0-.3-.3-.2M244.6,237.4c0,0-.2-.1-.3-.2,0,.1,0,.3.3.2M299.3,21.8c0,0,.2.1.3.2,0-.1,0-.3-.3-.2M349.3,21.3c0,0,.2.1.3.2,0-.1,0-.3-.3-.2M182.6,494.4c0,0,.1-.2.2-.3-.1,0-.3,0-.2.3M280.4,15c0,0-.1.2-.2.3.1,0,.3,0,.2-.3M263.8,241.1c0,0,.2.1.3.2,0-.1,0-.3-.3-.2M201.1,501.6c0,0-.2-.1-.3-.2,0,.1,0,.3.3.2M202.5,501.6c0,0,.2.1.3.2,0-.1,0-.3-.3-.2M232.2,247c0,0-.1.2-.2.3.1,0,.3,0,.2-.3M208.1,502.6c0,0,.2.1.3.2,0-.1,0-.3-.3-.2M235.7,268.7c0,0-.2-.1-.3-.2,0,.1,0,.3.3.2M310.8,8c0,0-.1.2-.2.3.1,0,.3,0,.2-.3M309.4,8c0,0-.1.2-.2.3.1,0,.3,0,.2-.3M306.3,6.3c0,0,.2.1.3.2,0-.1,0-.3-.3-.2Z"/>
    <path d="M60.2,201.1c-1.1.9-2.7,1.3-4,.8-1.4-.6-2.3.2-3.2.7-2.5,1.4-4.4,3.7-7.2,4.8-.5.2-.9.7-1.1,1.1-.2.3-.2.8-.3,1.3.4,0,.7.2,1.1.2,2.2-.3,4.4-.5,6.6-.9,3.9-.8,7.7-2.1,11.7-2.3.6,0,1.1-.3,1.7-.4.3,0,.6,0,.9.2-.2,0-.4.2-.7.3-2.9.8-5.9,1.7-8.9,2.3-3.9.9-7.9,1.5-11.9,2.4-1.2.3-2.4.8-3.2,1.9-.9,1.4-.9,1.4-2.5,1.8-.8.2-1.6.8-2.5.8-1.3,0-2.7-.1-3.9-.5-.8-.2-1.5-.9-2.5-.8-.1,0-.4-.3-.5-.6-.9-3.3-1.3-6.7-.9-10.1.2-1.5.2-2.8,0-4.3-.2-1.5.1-3.2.7-4.6.5-1.3.2-2.3-.2-3.4-.9-2.9-1.2-5.9.3-8.7.5-.9.7-1.8,0-2.9-.8-1.4.1-2.8.2-4.2,0-.4.2-.9.2-1.3.2-3.1.2-6.3.5-9.4.2-2.4,1-4.7.9-7.1,0,0,0-.2,0-.2,2-1.6.9-3.7.9-5.5,0-.8,0-1.6,1-1.7.9-.1,1.4.2,1.9,1.1,1.7,3.1,2.4,6.2,1.3,9.6.7,2.4-1,3.7-2.5,5-.9.9-1.1,1.7-.3,2.8.8,1.2,1.1,2.6,1,4,0,.5.1,1.1.4,1.4,1.8,1.7,3.2,3.8,5.8,4.5.7.2,1.3.8,1.8,1.3.8.8.5,2-.6,2.4-.6.2-1.3.4-1.9.5-2.2.2-4.4.3-6.6.5-.3,0-.6.3-.9.4.2.3.3.8.6,1,2,.9,3.9,1.6,6.1.3,1.3-.8,2.7,0,3.9.8,1.6,1,2.8,2.3,3.7,4.1.5,1,1.4,1.7,2.1,2.7.3.4.4.9.5,1.5-.8,0-2.2.5-1.4-1.3,0-.1-.2-.5-.5-.7-.1,0-.5,0-.6.2-1.9,1.6-1.8,2.8.5,3.9.3.2.7.3,1,.4,2.1.5,3.9,1.3,5.3,3.1.7.9,1.6,1.2,2.8,1.2,1,0,2,0,3.1,0M32.2,176.6c0-.2,0-.4-.1-.6-.1,0-.3,0-.3,0,0,.3.1.5.4.5M33.6,158.8c0-.2,0-.4-.1-.6-.1,0-.3,0-.3,0,0,.3.1.5.4.5Z"/>
    <path d="M369,208.6c-.2-1.6.3-2.6,1.3-3.4,1-.9,2.1-.8,3-.2.6.4,1.2,1.3,1.3,2.1.2,1.4,0,2.8,0,4.2,0,2.4.3,4.7.9,7.1.4,1.9.5,3.9.5,5.9,0,1.8-1.3,3.3-3,3.6-1,.1-2.8-1.5-3-2.8,0-.3,0-.6,0-.9,0-1.2-.1-2.4-.2-3.7-1.2,0-2.3,0-3.5,0-1.9,0-4-.3-5.8,0-2.3.5-4.6.3-6.8.4-.7,0-1.4-.3-2.1-.4-1.9-.4-2.6,0-2.6,2,0,1.1,0,2.2,0,3.3,0,2-1.5,3.3-3.4,3.1-1.1,0-2.5-1.9-2.6-3.5,0-.5,0-.9,0-1.4,0-4.2,0-8.4,0-12.6,0-1.3.2-2.7.5-4,.3-1.6,3-2.3,4.2-1.2,1.9,1.7,1.6,3.8,1.2,5.9-.4,1.9-.2,2.3,1.7,2.4,3.6,0,7.2,0,10.7,0,2.2,0,4.4-.3,6.6-.4,1,0,1.4-.5,1.3-1.4,0-1.2,0-2.3,0-3.7M350.8,216.3c-.3,0-.7-.2-1-.2-.1,0-.2.1-.4.2.2,0,.3.2.5.3.2,0,.4,0,.9-.2M358.2,217.3c.2,0,.5.1.7.2,0,0,0-.2,0-.3-.2,0-.4,0-.8.1M372.5,225.5c0,0-.1.2-.2.3.1,0,.3,0,.2-.3Z"/>
    <path d="M372.6,142.8c.2.7.3,1.3.4,1.8.4,1.6,1.1,3.3,1,4.9,0,1.8-.5,3.8-1.4,5.5-1.7,3.4-4.7,5.6-8.3,6.5-1.2.3-2.5.5-3.6.2-5-1.1-9.7-2.9-13.3-6.8-2-2.1-4.4-4-5.4-6.9-.3-.8-.5-1.7-.6-2.6-.2-1.7,0-3.3-.8-5-1.1-2.2.3-4.2,2.9-4.4,1.1-.1,2.2-.4,3.3-.4,2.4,0,3.6,1.4,3.5,3.7,0,1-.7,1.4-1.4,1.9-2.2,1.4-2.6,4-.9,5.9,2.5,2.8,5.4,5.1,8.8,7,2.4,1.3,5,1.4,7.5,1,1.3-.2,2.7-1.3,3.3-2.7.5-1.2,1-2.3.7-3.9-.5-2.4-2-4.2-3.1-6.2-.7-1.5-2-2.7-.9-4.7,1.2-1.9,2.3-2.1,3.9-.7,1.9,1.6,2.9,3.8,4.4,5.8M347.7,138.5l-.7.6c.1.1.3.2.4.4.2-.3.5-.6.3-.9Z"/>
    <path d="M154.2,56c-1.7,1.7-4.2,1.8-5.9,3.1-.7.6-1.9-.8-2.2.7,0-.2-.3-.3-.3-.5.3-1.5,1.9-2.8,3.6-2.7,1.3,0,2.2-.3,3-1.3.9-1,2.2-1.6,3-2.7.8-1,1.1-2.3,1.5-3.6.2-.6.4-1.3.5-1.9,0-1,1-1.8.2-3-.4-.6.2-1.8.3-2.8,0-.6.4-2-.9-.6,0,0-.4-.1-.6-.2,0-.3.1-.6.3-.8,1.4-1.4,3.3-1.9,5.1-2.4,1.1-.3,1.1-.8.9-1.4-.5-1.3-.9-2.6.5-3.7,0,0,0-.4,0-.4-1.1-1.3.3-2.1.6-3.2.2-1.2,2.7-2,4.5-1.7.2,0,.3.2.5.2,0-.2.1-.5,0-.6,0-.2-.3-.3-.5-.5-1.2-1-2.1-2-.5-3.6.4-.4.1-1.6.2-2.5,0-.2.1-.4.2-.6.2.2.4.3.5.5.3,1.1.6,2.2,1.8,2.7,0,0,.1.3,0,.5-.3,1.1-.8,2.2-1,3.4,0,.5.2,1.2.5,1.7.4.7.4,1.1-.5,1-1-.1-1.9.2-2.9-.4-1-.6-1.5,0-1.6,1.3,0,.3,0,.6,0,.9.1.7.3,1.4.4,2.2.6-.4,1.2-.7,1.6-1.2.8-.9,1.3-.3,1.6.3.4.7.7,1.6,1,2.4,0,.2.3.4.4.6.2-.2.3-.4.5-.6,0-.1.1-.3.2-.4.4-.2.8-.3,1.2-.5.1.4.4.8.4,1.1-.2,1.2.2,2.1,1.5,2.4,2.3.5,4.7.9,7,1.1.7,0,1.5-.5,2.1-1,.6-.4,1.1-1.1,1.7-1.6.1-.1.5-.2.6-.1.1,0,.3.5.2.6-.8,1.1-.5,2.1,0,3.1.2.6,0,.9-.8,1-2.3.3-4.5.8-6.2,2.5-.4.4-1,.5-1.6.7-1,.5-1.9,1-2.9,1.4-.7.3-1.5.8-2.2.9-2,0-3.7.9-5.5,1.5-.8.2-.5,1.4-1.5,1.8-1.9,1-3.1,3.3-5.7,3.3-1,2.2-3.5,1.8-5.1,3.2M159,46.6c.9.7,1.2-.3,1.5-.7.3-.3.1-.9.2-1.4-.5.1-1,.1-1.4.4-.3.2-.2.8-.3,1.7M164.6,31.1v-.6c-.2,0-.4,0-.4,0,0,.3.1.5.4.5Z"/>
    <path d="M374.1,241.4c.1.3.2.7.4.9.3.2.9.2,1.2.5.2.3.2.8.3,1.2-.3,0-.6-.2-.9-.3-2.3-.4-4.5-.8-6.9,0-.8.3-2,.5-2.5-.9,0,0-.4-.2-.5-.1-.6.5-1.3,1-1.6,1.6-.5,1.1-1.1,1.4-2.2,1.4-2,0-3.9-.1-5.9.4-1.1.3-2.3-.3-3.5-.4-2.1,0-2.1,0-2.1,2,0,.2,0,.5,0,.7.2,1.1-.5,1.3-1.2,1-1.7-.9-3-.5-4.2,1-.1.2-.3.3-.5.5,0-.3-.2-.5-.2-.8,0-1,0-2,0-3,0-1.3-.6-2.7-.4-4,.6-3.3,0-6.7.9-9.9.6-2.2,2.4-2.9,4.1-1.9,1,.6,1.3,1.6,1.5,2.4.2,1,0,2.2-.3,3.3-.3,1.6,0,1.9,1.5,2.3,2.4.6,4.9.6,7.3.4,3.2-.3,6.5-.4,9.7-.4,1.7,0,2-.3,2-1.9,0-1.6,0-3.1,0-4.7,0-1.8,1.3-2.8,3.1-2.7,1.3,0,2.4,1.2,2.5,2.7,0,2.8,0,5.6,0,8.4,0,1-.8.5-1.3.5-.6-.6-1.2-1.2-1.7-1.7-.4-.4-.9-.7-1.4-1,0,.6,0,1.2.2,1.8,0,.2.4.5.7.6.7.2,1.4.3,2.1.5M360.3,243.7c-.2,0-.4,0-.6.1,0,.1,0,.2,0,.3.2-.1.5-.3,1-.4,0-.1,0-.3,0-.4,0,.1-.2.3-.5.4M346.8,247l.5.5c0-.2.1-.5.2-.7-.3,0-.6,0-.7.3M353.8,243.2c0,.2.2.3.2.5,0-.2.2-.3-.2-.5M356.6,242.3c0-.2-.2-.3-.2-.5,0,.2-.2.3.2.5Z"/>
    <path d="M161.3,13.1c-.3,0-.8-.1-.8-.2,0-1-.6-1.5-1.2-2.1-.7-.9-.5-1.9.6-2.4.4-.2.9-.3,1.4-.5,1.2-.3,2.5-.5,3.5-1,1.9-1,3.7-1.1,5.6,0,1.5,1,3.4.9,5,1.5,2.1.8,4.2,1.5,6,3,.5.5.3.6,0,1-1.3,1.7-3,.8-4.5.6-1.9-.4-1.8-.4-3,1.1-1.1,1.3-2.5,2.4-3.8,3.5-.2.2-.7.3-.8.6-.8,1.2-.9,1.3-1.4,0-.6-1.6-1.8-1.9-3.3-1.9-2.2,0-3.2-.9-3.2-3.1.4.3.9,1.2,1.1,1.2.8-.3.7-1,.7-1.7,0,0,0-.2,0-.2-.3-.4-.5-1-.8-1.2-.3-.2-.9,0-1.3,0,0,.4.2.9.3,1.3,0,.1,0,.3,0,.5M163.7,14.8c0,.2-.9.4,0,.7.6.2,1.3-.8,1.9,0,0,0,.3-.2.4-.3-.4-.4-.8-.9-1.3-1.2-.2-.1-.6.2-1,.9M169,15c0,0-.1.1-.2.2,0,0,0,.1,0,.2.8.5,1-.2,1.3-.7,0,0-.2-.3-.3-.5-.2.2-.4.4-.9.9Z"/>
    <path d="M333.4,362.1c2.9-.1,5.8-.1,8.7-.1,3.6,0,7.1-.3,10.6-.9.4,0,.9.1,1.3.2.7,0,1.6.4,2.2.2,1.5-.6,3-.2,4.5-.4,2.7-.5,5.6,0,8.3-.9.5-.2,1.1,0,1.6,0,3.9-.2,7.8,0,11.6-.6,2.2-.3,4.4-.2,6.6-.4,2.7-.3,5.4-.6,8-.9.3,0,.5-.4.7-.6.4-.5.7-.5,1,0,0,.2.4.5.5.5,1.9,0,3.8-.3,5.7-.4,1.2,0,2.4-.1,3.6-.1,1.2,0,2.4-.3,3.5-.4,3.2-.2,6.5,0,9.6-.6,2.1-.3,4.3-.1,6.4-.4,4.1-.6,8.1-1,12.2-.9,1.3,0,2.5-.5,3.3-1.6,0,0,.3,0,.5,0,0,.2,0,.4,0,.5-1,1-1.9,2.2-3.6,2.1-2.8,0-5.5.3-8.3.9-.1,0-.3,0-.5,0-3.1.2-6.3,0-9.4.5-3,.5-6,0-8.9.5-2.3.3-4.6.1-6.8.5-3.6.6-7.2.7-10.8,1-2,.2-4.1.1-6.1.4-4.8.6-9.6.6-14.3,1-2.9.3-5.8.2-8.7.4-1.1,0-2.2.3-3.3.5-1.1.2-2.3-.4-3.3.4-.4.3-1.1,0-1.6,0-5.5.2-11.1.3-16.6.5-1.7,0-3.4.3-5,.5-1.2.1-2.2-.3-3-1.3Z"/>
    <path d="M250.5,119.2c.8-.2,1.5-.3,2.1-.3,2,0,3.8-.7,5.7-.8,4.7-.4,8.7-3,13.3-3.4,3.1-2,6.9-2.1,10.3-3.2,3.5-1.1,7-2.3,10.5-2.7,4.2-.5,8.1-2,12.3-2.5,3.6-.5,7.3-1.3,10.9-1.8,3-.4,5.9-1.1,8.9-1.7.6-.1.8,0,.8.6,0,.6.4,1.3.4,1.9,0,2.6,0,5.3,0,7.9,0,.8-.4,1.7.4,2.4,0,0,0,.2,0,.2-1.1,2.4,0,4.9,0,7.3,0,.2-.1.4-.2.6,0-.2-.2-.4-.2-.6-.2-2-.4-3.9-.5-5.9-.1-2.5-.3-5.1-.3-7.6,0-.8.4-1.8.2-2.5-.3-.9-.5-1.5,0-2.3.4-.6-.1-.8-.7-.7-1.9.2-3.8.3-5.6.6-2.3.4-4.6.9-6.9,1.3-3.5.6-7.1,1.2-10.6,2.1-2.5.6-5,1-7.5,1.6-2,.5-4,1.1-6.1,1.7-4.6,1.2-9.2,2.3-13.7,3.5-1.7.5-3.4,1.2-5.1,1.8-1,.4-2.1.6-3.1.9-.8.2-1.5.4-2.3.7-3,1.1-6,2.2-9.2,2.7-1.8.2-3.5,1.2-5.3,1.9-1.9.7-3.8,1.5-5.6,2.4-.5.2-.7.1-.8-.2,0-.2.1-.7.3-.8,1.1-.6,2.2-1,3.3-1.5.9-.4,1.8-.8,2.7-1.3.1,0,.1-.3.2-.5-.1,0-.3-.1-.4,0-.4.1-.9.2-1.2.5-1.5,1-2.1-.9-3.2-1,0,0,0-.3,0-.3.2,0,.5-.2.7,0,1.6.9,3.1-.3,4.7-.2.1,0,.2-.2.4-.4Z"/>
    <path d="M449.6,3.6c.4.1.8.2,1,.1,2.3-1,3.6.7,4.3,2.1,1.2,2.4,3.4,3,5.4,4,1.6.8,1.7.7.9,2.1-1.4,2.4-3.2,4.1-6.2,4-.2,0-.4,0-.7,0,.1.2.2.5.4.6,1,.8.8,1.6,0,2.3-1.4,1.1-2.9,2-4.4,3-.2.1-.5,0-.8-.2,0-.2,0-.5.2-.6.9-.9,2-1.7,2.7-2.8.9-1.4.3-2.9-.3-4.4-.6-1.4-1.4-1.3-2.5-1.3-.1,0-.3,0-.4.1-.9,1.5-1.1,0-1.5-.4-.7-.8-.8-2.5-.1-3.1,1.6-1.4,1.1-3,.8-4.6-.2-1-.2-1.1,1.3-1M452,6.1c0-.3-.1-.6-.2-.9-.3,0-.6.2-1,.3.3.1.6.3,1.1.7Z"/>
    <path d="M50.4,133.2c-1.8.5-3.3,1.5-5.2.7-.8-.4-1.7-.6-2.6-.5-1.4,0-2.4-.6-3.3-1.6-.6-.7-1.4-1.3-1.9-2-.8-1.1-.2-2.3,1.2-2.5,3.1-.3,6.3-.6,9.3-1.9.8-.4,1.8-.4,2.2-1.6.1-.4.9-.7,1.4-1,.8-.4,1.6-.7,2.4-1,.7-.3,1.5-.4,2,.3.1.2.1.4.2.6-.2,0-.5-.2-.6,0-1.5.6-3.3.4-4.6,1.6-.4.3-.5.6.2.6.2,0,.5,0,.7,0,0,0,.2.3.2.4-.5,1.4,1.2,2.3.9,3.6-.1.7-.3,1.4-.7,2-.4.8-1.1,1.4-1.7,2.2Z"/>
    <path d="M350.4,126.2c-.3-1.1.2-2.1-.5-3-.2-.3,0-1.2.3-1.7.5-1,1.2-1.8,1.7-2.8.1-.2,0-1-.3-1.1-.9-.3-.2.5-.4.7-.2.2-.3.5-.5.7-.1.2-.2.4-.2.6-.2-.2-.6-.4-.6-.6,0-.8-.2-1.6,0-2.3.2-1.3.8-1.4,1.9-.5.9.7,1.8,1.3,2.8,1.8.3.1.7-.2,1.1-.1.3,0,.5.3.8.5-.2.2-.4.4-.6.4-.6,0-.9.1-.8.8.3,1.7.6,3.3,1,5,.1.5.5,1.1,1,1.2.8.2,1.2-.3,1.4-1.1,0-.3.3-.6.4-1,.6-1.9,1.8-2.6,3.5-2,.3,0,2,0,.9,1.6-.5.6-.1,1.9-.1,3,0,3-4.3,7.6-8.3,5.6-2-1-3.3-2.8-3.8-5,0-.2-.2-.4-.3-.7M355,126.1c-.5-.6-.9-1.4-1.5-1.9-.2-.2-.8,0-1.2,0,.1.3.2.7.4.9.5.5,1.2.9,1.8,1.3.2.2.4.4.5.7-.3.1-.5.2-.8.3-.3.1-.6.2-.8.3-.3.2-.5.4-.7.6.2.1.5.3.7.3,2.3-.1,4.5-.2,6.8-.5.6,0,1.1-.6,1.7-1,0,0,0-.2,0-.3-.6,0-1.1.2-1.7.2-1.7.1-3.5.9-5.1-1M356.4,130.3c.2,0,.5.1.7.2,0,0,0-.2,0-.3-.2,0-.4,0-.8.1M362.4,124.2c-.2,0-.5-.1-.7-.2,0,0,0,.2,0,.3.2,0,.4,0,.8-.1Z"/>
    <path d="M432.6,12.6c0-.5-.1-1,0-1.4.1-.4.7-1,.8-.9,1,.5,2.3-.3,3,.8.9,1.5,2.4,1.7,3.8,2,1.6.3,3.3.7,4.9,1.2.9.3,1.7.8,2,1.9.1.6.7,1.3,1.2,1.5.9.3,1.3.9,1,1.7-.3.8-.3,1.8-1.6,2.1-.9.2-1.6.5-2.3-.4-1.1-1.5-2.9-1.5-4.6-2-.3,0-.6,0-.9,0-1.2-.1-1.4-.5-.9-1.7.2-.5.2-1.1.3-1.6-.6,0-1.1-.9-2,0-.8.7-3.8,0-4.6-.9-.7-.8-1.6-1.5-2.3-2.3-.3-.4-.5-.9-.8-1.3-.2-.2-.5-.6-.7-.6-1.2,0-1.7-.4-1.7-1.6,0-.3-.1-.6-.3-.8-.5-.8,0-.9.6-.9,1.7,0,1.9.3,2.6,2.5.3,1,1.3,1.8,2.1,2.8.7,1.6,2,1.3,3.1,1.2.4,0,.8-.5,1.2-.7-.4-.2-.7-.6-1.1-.6-1,0-2,0-3,0Z"/>
    <path d="M218.9,508.4c-.2-3.8,0-7.3-.6-10.8-.3-2,0-3.9,0-5.9.2-3.6-.2-7.2-1.3-10.6,0-.3,0-.6,0-.9-.1-3.6-.7-7.1-1.4-10.6-.4-1.8-.3-3.8-.5-5.6-.1-1.7-.3-3.5-.4-5.2,0-.3.3-.5.5-.8.1.3.4.6.4.9.4,2.5,1,4.9,1.3,7.4.3,2.9,1.2,5.7,1.2,8.7,0,2.8.5,5.7,1.3,8.5.4,1.3.3,2.8.5,4.2.8,5.7,1.2,11.5,1,17.4,0,1.3-.4,2.7-.4,4,0,.4.8.9-.3.8-.9,0-1.7,0-2.6,0-.1,0-.4-.3-.4-.4,0-.2.2-.4.3-.5.5-.1,1-.2,1.5-.5M219.6,498.6c0-.6.2-1.1.2-1.7,0-.2-.1-.4-.2-.6,0,.2-.2.5-.3.7,0,.4,0,.9.2,1.6Z"/>
    <path d="M251.5,107.6c.3,1.4.4,2.8.6,4.2,0,.1-.2.4-.4.4-.2,0-.4-.1-.5-.3-.1-.3-.1-.7-.2-1.1-.3-.8-1.7-1.3-2.3-.9-.1,0-.2.5-.1.8.6,1.7.3,2.3-1.3,2.9-.1,0-.4,0-.4,0-.3.3-.5.7-.7,1.1.4,0,.7,0,1.1-.1.3,0,.6,0,.9,0,2.7-.2,5.5-.4,8.2-.4,1,0,2.1-1.3,3.1,0,1-.9,2.2-.3,3.3-.4.2,0,.4.1.6.2-.2,0-.3.2-.5.3-1,.2-2,.4-3.1.5-2,0-4,.4-5.9.9-.1,0-.3,0-.5,0-2.3.2-4.5.3-6.8.5-.8,0-1.5.2-1.5-1.1,0-.5-.8-1-1.3-1.5-.6-.6-.5-1.1-.1-1.8.9-1.5,1.9-2.7,3.9-2.9,1.3-.2,2.6-.7,4.1-1.1Z"/>
    <path d="M152,510.8c-1.9,2-4.5,2.2-6.6,3.3-.2,0-.5,0-.7,0-.6.5-1.1.9-1.6,0,.4-.2.9-.3,1.3-.5,1.7-.7,3.2-1.7,5.1-1.9.3,0,.7-.6.6-.9,0-.8.2-1.5.8-2,.1,0,.1-.5,0-.6-.1-.1-.5-.3-.6-.2-.8.8-.9.2-.7-.4,0-.4.6-.7.7-1.1.2-.6.8-1,0-1.8-.8-.8-.3-2.7.6-3.4,0,0,.4,0,.5.2.7.9,1.4,2,2.2,2.8,1,1.1,2.1,2,3.7.9.1,0,.5,0,.6.2.1.1,0,.5,0,.6-.3.4-.8.8-1.1,1.2-.7.7-.5,0-.7-.3-.3-.3-.7-.5-1.1-.7,0,.4-.2.9-.2,1.3,0,.1,0,.3,0,.4.7.7.5.8-.4,1.2-.9.4-1.5,1.2-2.5,1.8M152.4,506.3c.2.2.4.4.6.6,0-.3.1-.5.1-.8,0-.2-.2-.4-.3-.6-.1-.3-.2-.5-.3-.8,0,.4,0,.7-.1,1.5Z"/>
    <path d="M184.7,24.8c-.3-.4-.3-.8-.5-1.1-.8-1.1-.6-1.9.1-3.2.8-1.4.7-3.2-.4-4.6-.7-.9-1.2-1.8-1.2-3,0-.2-.2-.4-.3-.7.2,0,.5,0,.6,0,1.4.9,3.1,1.6,4.1,2.8,1,1.1,1.6,2.7,2,4.2.3,1-1.3,3-2.5,3.1-1.1,0-.9,1-1.2,1.6-.2.4,0,.9-1,.8M187.8,19.7c.2,0,.4,0,.4,0,0-.8-1.1-2.5-1.7-2.3-.9.3-.9,1.1-.8,1.9,0,1.7,1.1.7,2.1.5Z"/>
    <path d="M210.1,443.9c.5-1.9-.3-4.1,1.2-5.8.1-.1,0-.4,0-.7,0-2.7.6-5.5-.3-8.1,0-.2.3-.6.3-.9-.1-1.3.3-2.7-.4-4-.3-.6-.3-1.7,0-2.2.6-.9.4-1.4-.2-2-.2-.2-.3-.5-.4-.8-.2-2.1-.3-4.2-.5-6.4,0-.7.1-1.1.8-.9.3,0,.6.8.5.9-1.1,1.2.1,2.2.3,3.3.1.8,1,1.6-.1,2.5-.2.1-.2,1,0,1,1.5.5.8,1.8.8,2.7,0,2.6,0,5.3,0,7.9.1,2.3.5,4.6.4,6.9,0,.7.3,1.7-1.1,1.4,0,0-.3.3-.3.5.2,1.7-.8,3.1-1.3,4.7Z"/>
    <path d="M376.5,192.3c-.2.9-.4,1.7-.7,2.3-.5,1-.9,2.1-2.4,1.9-1.2-.2-2.8-1.5-2.9-2.7,0-.9.1-1.9.4-2.8.5-1.3,1.6-2.1,2.9-1.9,1.2.2,2.2,1,2.2,2.5,0,.2.3.3.4.7M373.7,192c0,0-.2-.1-.3-.2,0,.1,0,.3.3.2Z"/>
    <path d="M212.7,447.5c-.2-1.2-.5-2.2-.8-3.2,0,0,.1-.3.2-.4.2,0,.6,0,.6,0,.2,1.8,1.9,3.1,1.6,5.2-.2,1.4-.2,3,.3,4.5.3,1,.3,2.2-.4,3.3-1,1.6-1.4,3.3-1.4,5.2,0,.3-.2.7-.4,1,0,0-.3,0-.5,0,.4-.6-.3-1-.1-1.7.3-1.3-.2-2.8-.3-4.2,0-.4.1-.7.2-1.1.3.3.5.5.7.8.2.2.3.4.5.6.2-.3.4-.5.4-.8.1-1.1,0-2.1-1.1-2.8-.7-.5-1-1.2-.8-2,.4-1.4,0-3,1.3-4.3Z"/>
    <path d="M380.7,1.9c1.6,0,2.9,0,4.2,0,.1,0,.3,0,.4.2-.1.1-.3.3-.4.3-1.1.3-2.2,0-3.3,0-7.1,0-14.2-.2-21.2.1-2,0-4.2-.1-6.2.8,0,0-.2,0-.2,0-2.7.2-5.3.3-8,.5-.2,0-.5-.2-.8-.3.2-.2.3-.4.5-.5.7-.3,1.4-.4,2.1-.7,0,0,.2,0,.2,0,3.9,0,7.7-.1,11.5-.9,1.3.7,2.7.5,4,.4,2.8,0,5.6-.7,8.3-.3,2.9.4,5.8.2,8.9.4Z"/>
    <path d="M326.9,149.3c.2.2.5.6.4,1-.2,2.7.5,5.4-.4,8-.1.4.4.9.4,1.4,0,1.4.2,2.8.1,4.3-.1,4.4.2,8.9.4,13.4,0,1.6.3,3.2.4,4.8,0,.6-.2,1.2-.3,1.7,0,.1-.3.2-.5.3,0-.1-.2-.4-.1-.4,1-.9-.2-1.8,0-2.7.2-.9.2-1.9,0-2.8-.7-3.1-.3-6.2-.5-9.2,0-1,.3-1.9-.4-2.9-.2-.3.4-1.2.4-1.9-.1-1.6.5-3.2-.4-4.7-.1-.2,0-.5,0-.7.8-2.6-.2-5.2,0-7.8,0-.6.3-1.1.5-1.8Z"/>
    <path d="M88.4,138.5c-1.9.1-2.3-1.4-3.2-2.2-.1-.1,0-.8.2-1,1.1-1.7,3.1-2,4.9-2.3.3,0,.9.6.9,1,0,.8,1.2,1.6.1,2.4-.9.7-1.7,1.4-2.9,2.1M89.1,134.7c0,.2-.1.5-.2.7,0,0,.2,0,.3,0,0-.2,0-.4-.1-.8Z"/>
    <path d="M186.5,161.5c-.6-2.2-1.7-4.1-1.3-6.4,0-.2.2-.5.3-.7.2.2.5.3.5.5-.1,2.6,1.9,4.7,1.6,7.3-.1,1.2,0,2.3-.7,3.4-.6,1.2,1.2,1.8,1.2,3,0,1.6,0,3.3,0,4.9,0,.1-.1.3-.2.4,0-.2-.2-.3-.3-.5-.3-1-.8-1.9-.9-2.9-.2-1.3.2-2.7-.9-3.8,0,0,0-.5,0-.6,1.2-1.4.7-3,.7-4.7Z"/>
    <path d="M331.6,333.5c-.2-2.6-.3-4.9-.5-7.3,0-1.4.1-2.8,0-4.3-.1-1.5,0-3.1,0-4.7,0-.2.1-.4.2-.6,0,.2.1.4.3.5,1.1,1,.5,2.4.3,3.4-.2,1.8.6,3.6-.2,5.5-.4.9,0,2.4.4,3.6.5,1.6.7,3,0,4.5-.3.7,0,1.6.1,2.5.1,1.7.2,3.5.3,5.2,0,.3-.4.6-.6.9,0-.3-.4-.8-.2-1,1.1-1.8-.2-3.6-.1-5.5,0-.9.4-1.8.1-2.9Z"/>
    <path d="M60.4,201.1c1.1-1.3,2.8-.9,4.3-1.3,2.6-.9,5.3-1.3,7.9-2.2,2.8-1,6-1.6,9.1-1.1.2,0,.3.2.5.3-.1,0-.3.2-.4.2-.8.2-1.6.4-2.4.5-3,.1-5.9.9-8.7,2-1,.3-2,.5-3,.7-2.4.4-4.8.8-7.3,1.1Z"/>
    <path d="M204.4,410.7c-.4.5-.9.7-1.3,1.1-.8.9-1.3-.2-1.9-.3-.7-.2-.1-.7-.1-1.2,0-1.9.5-3.7-.1-5.6,0-.2,0-.3-.1-.5.2,0,.6,0,.6,0,1,2.1,2.9,3.7,3,6.4Z"/>
    <path d="M326.5,133.4c.2,2,.4,3.8.7,5.6,0,.4.2.8,0,1.1-.7,2.3-.7,4.6,0,6.9,0,.2-.2.5-.3.7-.5-.6-1.1-1.2-2-.6,0-.3,0-.7.1-.8,1.5-.5,1.2-1.7,1.2-2.8-.1-5.9-.3-11.7-.5-17.6,0-.5,0-1.1,0-1.6,0-.2.2-.3.3-.5,0,.1.2.3.2.4-.5,1.9.8,3.8.2,5.8-.3,1,0,2.1,0,3.3Z"/>
    <path d="M373.6,129.5c-.7,1.3-1.2,2.6-2.7,3.2-1.6.6-2.9-.2-2.8-1.7,0-.5.5-1.1.9-1.3,1.2-.5,2.5-.9,3.8-1.3.3,0,.7.2,1.1.4,0,.2-.2.4-.4.8Z"/>
    <path d="M255.8,111.3c-.6-.3-1.3-1-1.3,0,0,1.4-.9.9-1.5,1,0,0-.1-.5,0-.5.8-.4,1.3-.8,1.1-1.9-.2-1.3.5-1.9,1.8-2.4,1.3-.4,2.4-1.1,3.8-.8.2,0,.4.3.4.4,0,.2-.2.5-.3.5-.4,0-.8,0-1.2,0-.8,0-2-.2-.8,1.2-.7.7,0,2.4-1.9,2.5Z"/>
    <path d="M200.5,365.7c-.2.1-.3.1-.3.1-.7.2-1.5-.5-1.9-1.4-.2-.4-.8-.6-1.3-1-.2-.2-.6-.6-.5-.7.8-1,.2-2.2.4-3.3,0-.2.3-.4.4-.6.2.2.5.4.5.6,0,1.8.3,3.3,2.5,3.7.2,0,.3.4.3.7,0,.6,0,1.2-.1,2Z"/>
    <path d="M211.4,476.2c.2,2.8.3,5.4.5,8,0,.5,0,.9,0,1.4,0,.2-.2.3-.4.4-.2-.2-.5-.3-.5-.5-.2-2-.3-3.9-.5-5.9-.1-1.3.4-2.6-.4-3.8-.2-.4.3-1.2.5-1.8.3.5.6,1,.8,1.5,0,.1,0,.3,0,.7Z"/>
    <path d="M186.9,191.9c.1,1.8.1,3.5.1,5.2,0,.2-.2.5-.3.7,0-.2-.1-.4-.2-.6-.3-.8-.8-1.6-.9-2.4-.3-1.5-.3-3.1-.5-4.7,0-.2,0-.5,0-.7.2-.3.4-.6.7-.9.2.3.6.7.7,1,.2.7.2,1.5.4,2.3Z"/>
    <path d="M332.5,355c-.2-2.9-.3-5.5-.5-8.2,0-.2.2-.4.3-.7,0,.2.1.4.2.6.2,1,.4,2,.5,3.1.2,2.3.3,4.5.5,6.8,0,.4,0,.8,0,1.2,0,.2-.2.3-.3.5-.2-.2-.5-.3-.6-.5,0-.8,0-1.7,0-2.8Z"/>
    <path d="M299.8,294.2c-2.2,0-4.2-.3-6.2,0-.3,0-.6-.3-.9-.4.3-.2.5-.5.8-.5,1.3-.2,2.7-.4,4-.4.9,0,1.7.3,2.6.4.4,0,1.1-.2.9.6,0,.2-.7.3-1.4.4Z"/>
    <path d="M77.3,202.7c1.9-.7,3.7-1.2,5.5-1.7.9-.3,1.8-.5,2.7-.7.3,0,.7.3,1.1.4-.2.3-.5.9-.6.8-3-.4-5.4,1.4-8.1,2-.2,0-.5,0-.7,0-.9-.3,0-.5.2-.8Z"/>
    <path d="M73.9,185.7c1.2,0,2.1,0,3,0,.2,0,.5.4.6.6,0,0-.2.4-.3.5-1.3.2-2.3,2-3.9.8-.4-.3-1.2-.7-1.2-1,0-.8.8-1,1.8-.9Z"/>
    <path d="M187.9,207.3c-.4-1.8-.6-3.5-.8-5.2,0-.2.3-.4.5-.6.1.1.4.2.4.4.2.9.4,1.7.5,2.6.2,1.9.3,3.7.5,5.6,0,.2-.2.5-.3.7,0-.2-.1-.4-.2-.6-.2-.9-.3-1.9-.6-2.9Z"/>
    <path d="M54.2,197.4c2.1.4,3.7,1.7,5.7,1.7.7,0,1.4-.2,2.1-.3.2,0,.4,0,.6.1-.2.2-.3.6-.5.6-.6.1-1.2.2-1.8.1-1.5,0-3,.4-4.2-1.1-.3-.4-1.5-.2-2.2-.3-.2,0-.3-.4-.5-.5.2-.1.5-.2.9-.4Z"/>
    <path d="M206.7,373.7c-.1-1.6-.3-2.9-.3-4.3,0-.4.2-.8.4-1.1,0,0,.3-.2.4-.2.2,0,.4.2.5.3,0,.4,0,.8,0,1.2,0,1-.2,2.1.4,3.1.3.5.2,1.4-.6,1.8-.6.3-.9,0-.8-.8Z"/>
    <path d="M204.5,269.5c.4-1,.6-1.9.9-2.8,0-.2.4-.4.6-.6,0,.3,0,.5,0,.8-.2.9-.7,1.8-.7,2.7,0,1.3-.8,1.9-1.8,2.2-.9.3-1.8.6-2.7.8-.3,0-.7-.4-1.1-.6.3,0,.6-.2,1-.3.9-.2,1.7-.3,2.6-.5,1-.1,1.2-.8,1.2-1.8Z"/>
    <path d="M287.6,218c1.4-.2,1.8.6,2.1,1.5,0,.1,0,.3-.1.4-1.2-.8-2.4.4-3.6,0-.3,0-.5-.2-.8-.3.1-.3.2-.6.4-.8.4-.5.9-1,2-.8Z"/>
    <path d="M204.4,392.9c-.5.6-.7,1-.2,1.6.1.1-.2.8-.4,1.1-.1.1-.7,0-.9-.2-.4-.3-.8-.7-1.2-1.1-.2-.2-.5-.6-.4-.8.2-.5.6-.5,1,0,.4-.4.7-.8,1.1-1.1.6-.5,1-.4.9.7Z"/>
    <path d="M226.3,86.5c-.6,0-1-.1-1.3-.2.2-.3.4-.7.7-.7,1.4-.2,2.8-.3,4.2-.5.8-.1,1.7-.5,2.5-.7.1,0,.3,0,.5,0,0,.2,0,.5-.2.6-.9.4-1.7.8-2.6,1-1.2.3-2.3.3-3.7.5Z"/>
    <path d="M298.4,7c-.4.4-.9.8-1.3.8-1.2,0-2.5-.1-3.7-.2-.2,0-.4,0-.6,0,0-.2,0-.4.2-.6.7-.8,1.4-.5,2.2-.2.9.3,2,.8,2.5-.7,0-.3.6-.7.6-.7.6.4.7.9,0,1.6Z"/>
    <path d="M191.8,29.4c.7.6,1.3,1.2.6,1.8-.4.3-1.3.3-2,.1-.8-.2-.9-1.1-.6-1.8.4-.9,1.1-.6,1.9-.2Z"/>
    <path d="M154.8,502.5c2.1.1,4,1.4,6.1,1.3.1,0,.3.3.4.4-.2.2-.3.5-.5.5-.3,0-.6,0-.8-.2-1.2-.5-2.3-.9-3.6-.7-.9,0-1.5-.2-1.6-1.3Z"/>
    <path d="M130.5,181c1.4-.9,2.9-1.1,4.4-.9.3,0,.5.2.7.3-.2.2-.3.5-.5.5-1.3.1-2.6.5-3.8,1.1-.1,0-.6-.4-.9-.9Z"/>
    <path d="M270.7,322.2c.9-.4,1.6-.6,2.4-.8.3,0,.7-.1,1-.2-.2.4-.4,1-.7,1.1-1.7.4-3.4.7-5.2,1-.2,0-.5-.2-.7-.4.2-.2.5-.5.7-.5.8,0,1.5,0,2.4-.1Z"/>
    <path d="M346,5.3c.2.3.3.6.4.8,0,0-.1,0-.2,0-.8.3-1.6-.8-2.5.2-.5.5-1.6.5-2.4.7-.2,0-.6,0-.6-.1,0-.3,0-.6.1-.8.2-.2.5-.4.7-.5,1.5-.2,2.9-.3,4.5-.4Z"/>
    <path d="M209.6,465.7c-.1-.6-.2-1,0-1.5,0-.1.4-.2.6-.2.1,0,.3.1.3.2.2,1.8.4,3.6.4,5.4,0,.3-.4.6-.6.9,0-.3-.2-.6-.3-.9,0-.7,0-1.4,0-2.1,0-.5-.1-1.1-.3-1.7Z"/>
    <path d="M204.4,384.5c-.1.5-.1.8-.3,1-.5.4.4,1.5-.7,1.3-.3,0-.5-.9-.7-1.4-.1-.5-.3-1.4,0-1.6.6-.5,1.2,0,1.7.8Z"/>
    <path d="M206.2,363.9c.1-.6.2-1,.4-1.4.3.4,1.1,1,1,1.2-.5,1.1-.6,2.1,0,3.2,0,0-.2.3-.3.3-.2,0-.6,0-.6-.2-.2-.9-.4-1.9-.5-3.1Z"/>
    <path d="M386.3,95.9c0-.6.2-1,.3-1.4,0-.5,0-1,0-1.4,0-.2.3-.5.5-.5.2,0,.4.3.5.5.5.8.3,3.1-.4,3.6-.5.4-.8,0-.8-.8Z"/>
    <path d="M214.6,417.7c.4,1.2,1.6,1.8,1.4,3.1,0,.2-.1.4-.2.6-.1,0-.3-.2-.3-.3-.6-1.2-1.3-2.4-1.8-3.6-.1-.3.2-.8.3-1.1.2.4.4.7.6,1.3Z"/>
    <path d="M298.8,219.8c-.4-.2-.5-.3-.7-.5-.2-.1-.4-.1-.6-.2,0,0,.1-.2.3-.3.9-.3,1.7-.7,2.6-.9.3,0,.8.3,1.1.5-.3.3-.5.7-.8.8-.5.2-1.1.3-1.9.5Z"/>
    <path d="M208.9,445.9c.3.3.6.5.5.6-.7,1.1-.5,2.1,0,3.2.2.7.1,1.5.1,2.3,0,.4-.1.9-.2,1.3,0-.4-.2-.8-.3-1.2-.5-2.1-.7-4.1-.1-6.1Z"/>
    <path d="M310.1,218.4c.3.3.4.7.4.8-.7.2-1.3.5-2,.6-.4,0-.8-.3-1.2-.4-.3-.1-.5-.2-.8-.3.3-.2.6-.5.9-.6.8,0,1.7,0,2.7,0Z"/>
    <path d="M197.3,28.6c-.7.1-1.4-.4-1.4.6,0,.1-.4.2-.7.3,0-.3-.1-.5,0-.8,0-.3.2-.5.3-.8.2-.4.5-.7.8-1.1.4.6,2,.4,1.1,1.8Z"/>
    <path d="M330.3,311.6c.2-.5.2-.8.4-1.2,0,0,.3-.1.4-.2,0,.2,0,.5,0,.7-.2,1.5.4,3,0,4.5,0,.2-.2.4-.3.7,0-.2-.1-.4-.2-.6-.2-1.2-.3-2.5-.4-3.9Z"/>
    <path d="M200.1,218.4c-1.1.1-2,.2-2.9.3-.2,0-.4-.2-.7-.4.1-.1.3-.3.4-.4,1.3-1,2.5-.4,3.8,0,.2,0,.4.2.7.3-.4,0-.7.1-1.3.2Z"/>
    <path d="M162.6,6.2c-1.2,0-2.3.2-3.4.3-.2,0-.5-.2-.7-.4.2-.2.3-.5.5-.5,1.3,0,2.6,0,3.9,0,.2,0,.4.5.5.8-.3,0-.5,0-.9-.3Z"/>
    <path d="M65.1,197c1.4-.4,2.6-.8,3.9-1,.2,0,.4,0,.6.2-.1.1-.3.2-.4.3-1.3.5-2.7,1.1-4,1.4-1,.2-.4-.3,0-.8Z"/>
    <path d="M205.3,342.4c1,1.4.2,2.7.5,4,0,0-.2.2-.3.2-.1,0-.3-.2-.3-.3-.1-.4-.3-.8-.3-1.3,0-1,0-2,.1-2.9,0,0,.1,0,.2,0,0,0,.1.1.2.4Z"/>
    <path d="M144.4,218.4c-.2-1.3.4-2.5-.4-3.6,0-.1.3-.6.5-.9.1.2.3.4.4.6,0,0,0,5,0,5-.2,0-.5.2-.7.3,0-.2.2-.4.3-.7,0-.1,0-.3,0-.7Z"/>
    <path d="M403.6,101c.8.2,1.3.3,1.9.5.6.1,1.2.1,1.8.2-.7,0-1.4.3-2.1.2-1.3,0-2.5-.3-3.7-.5-.2,0-.4-.4-.6-.6.3,0,.5,0,.8,0,.6,0,1.2.2,2,.3Z"/>
    <path d="M214.5,263.3c-1.1.8-2.4.5-3.6.2-.2,0-.3-.3-.4-.5.1,0,.3-.2.4-.2,1.2.2,2.5-.5,3.7.5Z"/>
    <path d="M241.9,116.6c.5-.5.8-.9,1.3-1.2.1,0,.6,0,.8.2.7.9-.4,1.2-.8,1.5-.4.3-1.3.9-1.2-.6Z"/>
    <path d="M242.4,121.5c-.4-.4-.7-.8-1-1.1.4,0,.7-.1,1.1-.2.2,0,.5,0,.7,0,.4,0,.9-.2,1,.6,0,.8-.3.9-1,.8-.2,0-.5,0-.8-.1Z"/>
    <path d="M146.2,245c.5-.2,1-.4,1.4-.3.5,0,.9.4,1.4.5-.4.1-.8.2-1.2.4-.5.1-1,.4-1.4.4-.7,0-.6-.5-.1-1Z"/>
    <path d="M270.9,103.5c.9-.4,1.7-.8,2.5-1,.2,0,.5.2.6.4,0,0-.1.4-.3.5-.9.3-1.9.6-2.8.9,0-.2-.1-.4,0-.7Z"/>
    <path d="M282,216h.7c0,.2,0,.4,0,.4-1.2,0-2.3,0-3.5,0-.2,0-.3-.4-.5-.5.2-.1.3-.4.5-.3.9.1,1.7.3,2.8.4Z"/>
    <path d="M150.7,368.9c.1.7.1,1.4.1,2-.2-.5-.4-1.1-.7-1.6,0-.2-.4-.4-.4-.5,0-.4.2-1.1.3-1.1,1-.1.4.7.7,1.2Z"/>
    <path d="M182,176c.9.5,1,1.3.7,2.1-.2.4-.7,1.1-.9,1-1-.4,0-.7,0-1.1.1-.6,0-1.2.2-2Z"/>
    <path d="M204,380.6c-.6-.5-1.1-.9-1.5-1.3.1-.1.3-.4.4-.4.6.3,1.2.5,1.7.9.6.5.4,1-.6.8Z"/>
    <path d="M373.6,95.3c-.3,0-.5,0-.7-.2.3-.3.5-.6.8-.8.6-.4,1.2-.8,1.7-1.2,0,.1.2.3.2.4-.5.5-1,1-1.5,1.5-.1,0-.2.2-.5.4Z"/>
    <path d="M37.4,124.9c-.6.2-1,.5-1.4.4-.5,0-.9-.4-1.3-.6.4,0,.8-.2,1.2-.3.7,0,1.4,0,2.1,0,.3,0,.6.2.9.3-.4,0-.7.1-1.3.2Z"/>
    <path d="M282.8,9.4c-.7.4-1.5.8-2.3,1.2-.2.1-.5.1-.8,0,0,0-.1-.4,0-.6,0-.2.3-.6.5-.6.9,0,1.7,0,2.7,0Z"/>
    <path d="M60,119.4c.3-.1.4-.1.6-.1.4,0,.8.2,1.2.3-.3.4-.6.9-1,1-.6.2-1.1-.1-1.2-.8,0,0,.2-.2.4-.4Z"/>
    <path d="M290.9,9.3c-.3-.2-.9-.7-.9-1,0-.5.6-.8,1-1.3.1.4.4.8.4,1.1,0,.3-.3.6-.4,1.1Z"/>
    <path d="M292.3,219.8c-.4.2-.6.3-.7.5,0-.5-.1-1.3,0-1.3.6-.3,1.3-.3,2-.4,0,.3,0,.6-.2.8-.2.2-.6.3-1.2.5Z"/>
    <path d="M240.5,124.9c-.1-.2,0-.3-.1-.5,0-.5-.2-.9-.3-1.3.3.1.7.2.9.4.6.4,1,1,.7,1.7,0,0-.7-.2-1.2-.3Z"/>
    <path d="M104.7,173.5c.6.4.7.8,0,.9-.6,0-1.2,0-1.8,0-.5,0-.9.2-1.3.3.2-.8.9-.8,1.5-.8.5,0,.9-.3,1.6-.4Z"/>
    <path d="M123.8,76.6c.3-.2.5-.3.7-.4,0,.1.2.3.1.4-.1.2-.3.4-.5.5-.7.6-1.4,1.1-2.1,1.7.5-.7,1.1-1.4,1.8-2.2Z"/>
    <path d="M210,396.6c-.1.5-.2.7-.4.9,0,0-.5-.1-.5-.2,0-.4,0-.8,0-1.1,0-.5.2-.9.3-1.4.2.5.4,1,.6,1.8Z"/>
    <path d="M218,137.2c.5-.3.9-.4,1.3-.6.1.4.3.8.4,1.2-.7.1-1.6.9-1.7-.6Z"/>
    <path d="M325,97.9c1.7,1,0,2.6.5,3.8,0,0-.2.1-.3.2,0-.1-.1-.3-.2-.4,0-1.2,0-2.3,0-3.6Z"/>
    <path d="M208,436.7c-.3,0-.6-.2-.6-.4,0-.7,0-1.5-.1-2.2.1,0,.3,0,.3,0,.2.6.3,1.3.5,1.9,0,.1,0,.3-.1.6Z"/>
    <path d="M212.4,441.7c.2-.4.3-.7.5-.9.1-.1.4-.1.6-.1,0,0,.1.2,0,.3-.1.6-.2,1.2-.4,1.7-.1.3-.5.5-.8.7,0-.3-.1-.6-.1-.9,0-.2,0-.5.1-.8Z"/>
    <path d="M295.7,217.6c-.3.5.3,1.4-.7,1.2-.2,0-.6-.6-.6-.9.2-.8.6-1.3,1.5-.8,0,0,0,.1,0,.2,0,0-.1.1-.3.3Z"/>
    <path d="M53.9,126c.4-.4.7-.8,1.1-1.1.3-.2.6-.2.9-.4-.2.3-.3.6-.5.8-.5.5-1,1-1.5,1.4,0,0-.3-.2-.5-.4.1-.1.2-.2.4-.4Z"/>
    <path d="M333.1.1c.3-.1.5-.2.6-.1.3.3.5.7.7,1.1-.4,0-.8.3-1.2.3-1.2-.2-.6-.7,0-1.3Z"/>
    <path d="M166,20.1c-.4-.2-.5-.3-.7-.5-.3-.3-.7-.5-1.1-.8.4,0,.9-.2,1.3-.1.5.2,1.4.5.5,1.4Z"/>
    <path d="M174.4,28.1c-.8-.7-.1-1.1.2-1.3,0,0,.7.4.7.4-.2.4.7,1.8-.9.9Z"/>
    <path d="M151.4,347.2c-.2,1.6-1.3.5-2,.8,0-.2,0-.6.2-.6.5-.2,1.1-.2,1.8-.2Z"/>
    <path d="M202.4,390c-.4-.6-.8-1.4.5-1.3.3,0,.7.3,1,.5-.4.1-.7.3-1,.4-.1,0-.2.2-.5.3Z"/>
    <path d="M208.6,390.1c0-.4.1-.6.2-.9.7.3,1.1,1.6.6,2.2,0,0-.4,0-.4,0-.1-.4-.2-.8-.4-1.4Z"/>
    <path d="M164.6,25.3c.1-.3.3-.5.3-.5.5.2,1,.4,1.5.7-.2.2-.3.3-.5.5-.7.7-1-.2-1.4-.7Z"/>
    <path d="M183.9,29.1c.4-.3.8-.4,1.1-.6,0,.4.3.9.2,1-.3.3-.8.5-1.2.7,0-.4-.1-.7,0-1.2Z"/>
    <path d="M197.3,285.3c-.1.6-.2,1.3-.4,1.4-1,.1-.5-.7-.6-1.1,0-.8.3-1,.9-.2Z"/>
    <path d="M196.9,315.7c-.2-.6-.2-1.2-.2-1.9,0,0,.4,0,.4,0,0,.6,0,1.2-.2,1.9Z"/>
    <path d="M172.9,31.9c.3.5.4.9.6,1.3,0,.1-.1.3-.2.4-.4-.4-.8-.8-1.2-1.2.2-.2.5-.4.8-.5Z"/>
    <path d="M188.1,500.8c.6.5,1.2.9,1.7,1.2,0,0-.2.3-.2.3-.7-.4-1.4-.7-2-1.2,0,0,0-.4.1-.6,0,0,.1,0,.2,0,0,0,.1.1.3.3Z"/>
    <path d="M274,218.4c.4.4.6.8.8,1.3-.3,0-.6.2-.8.1-.8-.3-.5-.9,0-1.4Z"/>
    <path d="M146,241c.7,0,1.2,0,1.8.2,0,.2,0,.5-.2.6-.7.3-1.2,0-1.6-.7Z"/>
    <path d="M148.7,322.3c.5.1.8.2,1,.3.1.1.2.5,0,.6-.1.1-.5.2-.6.2-.3-.3-.5-.8-.5-1.1Z"/>
    <path d="M240.3,124.9c.1,0,.2.2.1.2-.4.4-.7.8-1.1,1.2-.1-.1-.2-.2-.3-.3.4-.4.8-.7,1.3-1.1Z"/>
    <path d="M189.5,283.1c1.1-.3.8.5.8.9,0,.1-.6.4-.7.3-.3-.3-1-.6-.1-1.2Z"/>
    <path d="M265.7,114c.2-.2.4-.3.7-.3.6-.1,1.2-.2,1.9-.4-.5.6-1.2.9-2,.8-.2,0-.3,0-.6-.1Z"/>
    <path d="M389.6,2.4c.6,0,1,.1,1.3.2-.3.1-.6.2-.9.3-.2,0-.5,0-.7,0-.5,0-1-.2-1.6-.3.5,0,1-.1,1.8-.2Z"/>
    <path d="M202.5,373.7c.7-.1,1.4-1.6,1.8-.7.5,1.1-1.3.2-1.5,1-.1,0-.2,0-.3-.4Z"/>
    <path d="M200.1,396.2c.3.1.4.2.6.3.4.3.8.7,1.2,1-.5-.1-1-.2-1.4-.4-.3-.2-.4-.6-.3-.9Z"/>
    <path d="M233.4,131.9c.4.1.7.2.9.3-.4.7-1.1.7-1.8.6-.1,0-.3-.2-.4-.3.2,0,.4,0,.6-.2.2-.1.3-.3.7-.5Z"/>
    <path d="M146.8,238.1c.7.2,1.1.8.9,1.2,0,.1-.4.2-.6.2-.1-.4-.2-.8-.3-1.4Z"/>
    <path d="M291.7,307.2c-.3-.2-.4-.5-.5-.9.3-.1.6-.2,1-.4,0,.4-.2.7-.4,1.2Z"/>
    <path d="M126.4,75.9c.5-.7.9-.5,1.1,0,0,.2-.2.7-.4.8-.6.3-.8,0-.7-.7Z"/>
    <path d="M305,218.3c-.5.6-1.5.7-1.4.4.2-.5.5-1.2,1.4-.4Z"/>
    <path d="M229.1,283.3c-.7.1-1.4.1-2,.1-.2,0-.5-.2-.7-.3.2,0,.4-.2.6-.2.7,0,1.4.1,2.2.3Z"/>
    <path d="M283,9.4c0-.1,0-.3,0-.4.6-.1,1.1-.2,1.7-.4,0,.1,0,.4,0,.4-.5.1-1.1.2-1.7.3Z"/>
    <path d="M159.5,501.4c0,.3,0,.6-.3.9-.4-.2-.7-.4-1.1-.6.4,0,.7-.2,1.3-.3Z"/>
    <path d="M88.8,193.2c.3.2.5.4.4.6,0,.3-.3.5-.4.8-.2-.3-.4-.5-.4-.8,0-.2.1-.4.4-.6Z"/>
    <path d="M152.3,513.7c.1.3.2.5.1.6-.6.2-1.2.4-1.7.6.5-.4,1-.9,1.6-1.2Z"/>
    <path d="M394.8,357c-.6-.5-.7-1.5-.4-1.4.5.2,1.2.5.4,1.4Z"/>
    <path d="M198.6,357.2c-.3.2-.6.3-.8.4,0-.3-.1-.7,0-.9.1-.3.5-.5.7-.7,0,.4.1.7,0,1.2Z"/>
    <path d="M312.4,4.7c.5-.2.9-.3,1.2-.5-.1.3-.1.6-.3.8-.2.2-.6.3-.9.5,0-.3-.1-.5,0-.8Z"/>
    <path d="M256.6,89.2c-.4.3-.8.5-1.1.6-.2,0-.4-.1-.6-.2.1-.2.2-.4.4-.5.5,0,.9,0,1.3,0Z"/>
    <path d="M182.4,181.5c-.4.6-.8.7-.9,0,0-.3.2-.6.3-.9.2.2.4.5.6.9Z"/>
    <path d="M221.3,273c-.2-1,.4-.8.9-.8.1,0,.2.1.4.2-.4.3-.7.5-1.2.6Z"/>
    <path d="M142.2,171.2c-.3,1-.4,1-.9.9-.1,0-.3-.2-.4-.3.2,0,.4,0,.6-.2.2-.1.3-.3.7-.5Z"/>
    <path d="M229.1,283.6c.5-.1,1.1-.1,1.6-.1.2,0,.5.2.7.3-.3,0-.6.2-.8.2-.5,0-1-.1-1.5-.3Z"/>
    <path d="M289,282.5c.6,0,1,.1,1.3.2-.3.1-.6.3-.9.3-.4,0-.8,0-1.1,0,0,0-.1-.2-.2-.3.2,0,.4-.1.9-.2Z"/>
    <path d="M153,511.6c.4-.4.9-.6,1.5-.8,0,0,.2.2.2.3-.5.2-1.1.4-1.7.5Z"/>
    <path d="M346.1,17.3c.3,0,.6.2.9.5-.1.1-.2.3-.4.4-.2-.2-.4-.5-.6-.9Z"/>
    <path d="M187.2,36.5c0-.5.2-1,.4-1.4,0-.1.2-.2.3-.3,0,.1.2.3.1.4-.2.5-.5.9-.8,1.3Z"/>
    <path d="M235.3,111c.3-.1.5-.2.5-.1.3.2.5.5.7.7-.1,0-.2.2-.4.2-.5,0-1.1.2-.9-.8Z"/>
    <path d="M392.8,90.8c-.4-.3-.6-.5-.8-.8.4,0,.7,0,1.1-.1,0,.3,0,.6-.2.9Z"/>
    <path d="M50,194.7c.3-.1.6-.2.9,0,.2.1.3.5.5.7-.2,0-.4-.1-.6-.2-.3,0-.5-.2-.8-.4Z"/>
    <path d="M214.8,263.3c.3-.2.7-.3,1.1-.5.2,0,.4.1.6.2-.2,0-.5.2-.7.3-.3,0-.6,0-1,0Z"/>
    <path d="M292.2,295c-.5.1-.9.1-1.2.1-.2,0-.3-.2-.5-.3.1,0,.3-.2.4-.2.5,0,1,.1,1.4.3Z"/>
    <path d="M294.6,306.8c-.4,0-.6-.1-.9-.2h1.7c-.2,0-.4.1-.9.2Z"/>
    <path d="M327.8,44c-.3.4-.5.6-.8.9,0-.1-.2-.3-.1-.4.3-.3.6-.5.9-.5Z"/>
    <path d="M203.5,438.2c0,.4-.2.7-.4,1,0-.4,0-.8,0-1.3,0,0,.1,0,.2,0,0,0,.1.1.3.3Z"/>
    <path d="M293.6,87.4c-.4,0-.6-.2-.8-.4.1-.1.3-.3.4-.4.2.2.4.5.4.8Z"/>
    <path d="M149.3,361.4c0-.4.2-.6.4-.8.1.1.3.3.4.4-.2.2-.5.4-.8.4Z"/>
    <path d="M202.4,338.5c-.4,0-.6-.2-.8-.4.1-.1.3-.3.4-.4.2.2.4.5.4.8Z"/>
    <path d="M227.3,103.9c0,.3-.4.6-.7.9,0-.1-.2-.3-.2-.3.2-.2.5-.4.9-.6Z"/>
    <path d="M333.1,344.7c-.1,0,0-.2-.1-.2-.1-.3-.3-.6-.4-1,.1,0,.3-.1.3,0,.3.4,1,.6.2,1.3Z"/>
    <path d="M427.9,13.7c.5.1.9.3,1.4.5,0,0-.2.3-.2.3-.4-.2-.7-.5-1.1-.8Z"/>
    <path d="M348.5,27c.1-.3.4-.5.6-.8,0,.1.2.3.2.3-.2.2-.5.4-.8.4Z"/>
    <path d="M220.6,101.9c-.3.1-.6.2-.8.1-.2,0-.3-.2-.5-.3.1,0,.2-.2.4-.2.3,0,.7.1.9.3Z"/>
    <path d="M223.2,97.4c.3-.1.6-.2.8-.1.2,0,.3.2.5.3-.1,0-.2.2-.4.2-.3,0-.7-.1-.9-.3Z"/>
    <path d="M335.4,96c.3,0,.5,0,.7,0-.2.2-.5.5-.7.7,0-.2,0-.4,0-.7Z"/>
    <path d="M222.2,95.1c.3-.3.4-.4.6-.6,0,.2.1.5.2.7-.3,0-.6,0-.8-.2Z"/>
    <path d="M324.9,94.4c.3,0,.4.2.6.3-.3,0-.6,0-.9.1,0,0,0-.1,0-.2,0,0,0-.1.3-.3Z"/>
    <path d="M184.2,200.7c-.4,0-.5,0-.5-.5,0-.1.2-.3.3-.4,0,.2.1.4.2.9Z"/>
    <path d="M251.7,107.6c.2-.2.5-.3.9-.5,0,0,.2.1.4.2-.2,0-.3.2-.5.3-.2,0-.4,0-.8,0Z"/>
    <path d="M219,513.7c.4,0,.6.2.8.4,0,0-.1.2-.2.3-.3-.2-.5-.4-.6-.8Z"/>
    <path d="M338.6,260.5c.2.2,0,.3,0,.5,0-.2-.2-.3,0-.5Z"/>
    <path d="M210.1,508.3c.1-.2.4-.2.6-.3,0,0,0,.2,0,.3-.2,0-.4,0-.7,0Z"/>
    <path d="M202,506.1c.2-.2.3,0,.5,0-.2,0-.3.2-.5,0Z"/>
    <path d="M219,257.3c.1-.1.4-.3.6-.4,0,.1,0,.2,0,.3-.2,0-.4,0-.7.1Z"/>
    <path d="M152.4,14.1c.2-.2.3,0,.5,0-.2,0-.3.2-.5,0Z"/>
    <path d="M14.6,474.4c.3,0,.5,0,.7,0,0,.1,0,.3,0,.3-.3,0-.5-.1-.6-.3Z"/>
    <path d="M162.4,28.2c.2.1.2.4.3.6,0,0-.2,0-.3,0,0-.2,0-.4,0-.7Z"/>
    <path d="M205.4,32.3c.1-.1.4-.3.6-.4,0,.1,0,.2,0,.3-.2,0-.4,0-.7.1Z"/>
    <path d="M160.9,34.2c.2.2,0,.3,0,.5,0-.2-.2-.3,0-.5Z"/>
    <path d="M280.6,291.9c-.2.2-.3,0-.5,0,.2,0,.3-.2.5,0Z"/>
    <path d="M333.4,361.9c-.1-.1-.3-.4-.4-.6.1,0,.2,0,.3,0,0,.2,0,.4.1.7Z"/>
    <path d="M443,87.8c0-.3,0-.5,0-.7.1,0,.3,0,.3,0,0,.3-.1.5-.3.6Z"/>
    <path d="M274.2,88.1c.3,0,.5,0,.7,0,0,.1,0,.3,0,.3-.3,0-.5-.1-.6-.3Z"/>
    <path d="M149.8,343c.3,0,.5,0,.7,0,0,.1,0,.3,0,.3-.3,0-.5-.1-.6-.3Z"/>
    <path d="M229.3,101.5c.1-.1.4-.3.6-.4,0,.1,0,.2,0,.3-.2,0-.4,0-.7.1Z"/>
    <path d="M351.8,101.9c0-.3,0-.5,0-.7.1,0,.3,0,.3,0,0,.3-.1.5-.3.6Z"/>
    <path d="M267.6,104.7c.1-.2.4-.2.6-.3,0,0,0,.2,0,.3-.2,0-.4,0-.7,0Z"/>
    <path d="M266.1,105.3c.2.2,0,.3,0,.5,0-.2-.2-.3,0-.5Z"/>
    <path d="M395.2,104.9c.1,0,.3,0,.4.2-.1,0-.3,0-.4-.2Z"/>
    <path d="M395.2,104.7c-.2,0-.3,0-.5-.2.2,0,.3,0,.5.2Z"/>
    <path d="M260.8,109.8c-.1,0-.1-.2-.2-.3,0,0,.2.1.2.3Z"/>
    <path d="M394.7,104.2c-.1,0-.3,0-.4-.2.1,0,.3,0,.4.2Z"/>
    <path d="M240.3,110.8c-.1,0-.1-.2-.2-.3,0,0,.2.1.2.3Z"/>
    <path d="M325,97.7c-.1,0-.3,0-.4-.2.1,0,.3,0,.4.2Z"/>
    <path d="M332.9,344.7c0,.1,0,.3-.2.4,0-.1,0-.3.2-.4Z"/>
    <path d="M375,96.7c-.1,0-.1-.2-.2-.3,0,0,.2.1.2.3Z"/>
    <path d="M431.3,353.3c.1,0,.1.2.2.3,0,0-.2-.1-.2-.3Z"/>
    <path d="M325.1,96c.1,0,.1.2.2.3,0,0-.2-.1-.2-.3Z"/>
    <path d="M400.9,355.8c0-.1.2-.1.3-.2,0,0-.1.2-.3.2Z"/>
    <path d="M373.8,90.4c.1,0,.1.2.2.3,0,0-.2-.1-.2-.3Z"/>
    <path d="M332.9,360c-.1,0-.1-.2-.2-.3,0,0,.2.1.2.3Z"/>
    <path d="M196.5,307.9c.1,0,.1.2.2.3,0,0-.2-.1-.2-.3Z"/>
    <path d="M206.6,360.7c0,.1-.2.1-.3.2,0,0,.1-.2.3-.2Z"/>
    <path d="M492.8,306.5c0,.1-.2.1-.3.2,0,0,.1-.2.3-.2Z"/>
    <path d="M288.9,306.4c0,.1,0,.3-.2.4,0-.1,0-.3.2-.4Z"/>
    <path d="M204.7,382.5c-.1,0-.1-.2-.2-.3,0,0,.2.1.2.3Z"/>
    <path d="M289.1,306.4c0-.2,0-.3.2-.5,0,.2,0,.3-.2.5Z"/>
    <path d="M289.6,305.9c0-.1,0-.3.2-.4,0,.1,0,.3-.2.4Z"/>
    <path d="M205.4,404.5c0-.1.2-.1.3-.2,0,0-.1.2-.3.2Z"/>
    <path d="M195.6,303.2c.1,0,.1.2.2.3,0,0-.2-.1-.2-.3Z"/>
    <path d="M204.9,428.8c0-.1.2-.1.3-.2,0,0-.1.2-.3.2Z"/>
    <path d="M206.8,429c.1,0,.1.2.2.3,0,0-.2-.1-.2-.3Z"/>
    <path d="M76.2,140.7c-.1,0-.3,0-.4-.2.1,0,.3,0,.4.2Z"/>
    <path d="M224.6,140.7c0-.1.2-.1.3-.2,0,0-.1.2-.3.2Z"/>
    <path d="M209.9,443.9c0,.1,0,.3-.2.4,0-.1,0-.3.2-.4Z"/>
    <path d="M76.2,140.9c.1,0,.3,0,.4.2-.1,0-.3,0-.4-.2Z"/>
    <path d="M326.9,149.1c-.1,0-.3,0-.4-.2.1,0,.3,0,.4.2Z"/>
    <path d="M186.9,36.5c0,.1,0,.3-.2.4,0-.1,0-.3.2-.4Z"/>
    <path d="M94.8,194.7c0,.1-.2.1-.3.2,0,0,.1-.2.3-.2Z"/>
    <path d="M192.3,197c.1,0,.1.2.2.3,0,0-.2-.1-.2-.3Z"/>
    <path d="M194.2,216.7c.1,0,.1.2.2.3,0,0-.2-.1-.2-.3Z"/>
    <path d="M230.4,220.2c-.1,0-.1-.2-.2-.3,0,0,.2.1.2.3Z"/>
    <path d="M150.6,243.6c-.1,0-.3,0-.4-.2.1,0,.3,0,.4.2Z"/>
    <path d="M154.8,502.2c-.1,0-.3,0-.4-.2.1,0,.3,0,.4.2Z"/>
    <path d="M.4,638.3c-.1,0-.3,0-.4-.2.1,0,.3,0,.4.2Z"/>
    <path d="M.4,638.6c.1,0,.3,0,.4.2-.1,0-.3,0-.4-.2Z"/>
    <path d="M192.8,272.1c0-.5-.5-1.4.5-1.3.5,0,1.1-.9,1.7,0,.4.7,1,1.2.6,2.2-.2.7.2,1.7.4,2.6,0,.2,0,.6,0,.6-.3,0-.7,0-.8-.1-.7-1.3-1.4-2.6-2.3-4.1Z"/>
    <path d="M190.4,253.4c0-.5,0-1.2.3-1.2.8-.2.5.5.6.9,0,.7,0,1.4,0,2.1,0,0-.4.1-.6.2,0-.1,0-.3,0-.4,0-.5,0-1,0-1.5Z"/>
    <path d="M193.9,264.2c-.1,0-.1-.2-.2-.3,0,0,.2.1.2.3Z"/>
    <path d="M193.7,254.6c.1,0,.1.2.2.3,0,0-.2-.1-.2-.3Z"/>
    <path d="M342,56.7c.2.1.3.4.3.7,0,.2-.1.4-.2.6,0-.2-.2-.5-.3-.7,0-.1,0-.3.1-.6Z"/>
    <path d="M345.6,53.5c.1,0,.3,0,.4.2-.1,0-.3,0-.4-.2Z"/>
    <path d="M345.6,53.2c-.1,0-.3,0-.4-.2.1,0,.3,0,.4.2Z"/>
    <path d="M188.1,261.8c.1-.2.4-.2.6-.3,0,0,0,.2,0,.3-.2,0-.4,0-.7,0Z"/>
    <path d="M194.1,340c.9-.5.3.3.5.5,0,0-.2.2-.3.4,0-.2-.1-.4-.2-.9Z"/>
  </g>
</svg>