<?xml version="1.0" encoding="UTF-8"?>
<svg id="Layer_1" xmlns="http://www.w3.org/2000/svg" version="1.1" viewBox="0 0 1257.5 194.5">
  <!-- Generator: Adobe Illustrator 29.3.1, SVG Export Plug-In . SVG Version: 2.1.0 Build 151)  -->
  <g id="Shape_150">
    <path d="M1108,128.5c-1.2,0-2.2.1-3.3,0-1,0-2-.4-3-.6-.3,0-.7-.2-1,0-2.2,1.1-4.4.2-6.6.3-6.5.1-13,0-19.5,0-2.7,0-5.4.3-8.2.3-3.4,0-6.7-.2-10.1-.3-.6,0-1.2.3-1.7.3-.6,0-1.3,0-1.9-.1-.4,0-.8-.6-1.1-.5-2.2.1-4.4.4-6.6.6-1.1,0-2.2-.1-3.3-.1-2.9,0-5.8.2-8.7.2-1.4,0-2.9-.2-4.3-.3-.3,0-.6,0-.8,0-2.7,0-5.5,0-8.2,0-1,0-2,.3-3,.3-2.8,0-5.5-.2-8.3-.3-3.3-.1-6.7-.3-10-.3-.5,0-1.1.6-1.5,1-.5.7-.7.7-1,0-.5-1.1-1.3-.7-2.1-.6-.8.2-1.6.5-2.3.4-.9-.2-1.7-.6-2.5.3-.3.3-1.3,0-1.9-.1-.8-.1-1.6-.5-2.4-.5-2.1,0-4.3.1-6.4.1-.7,0-1.5-.3-2.2-.3-4.5,0-8.9.2-13.4,0-2.4-.1-4.9.4-7.1.2-2.5-.2-4.9.4-7.3,0-1-.2-2.2.3-3.3.3-1.4,0-2.9-.3-4.3-.3-13.1,0-26.1,0-39.2,0s-3.8,0-5.7,0c-2.1,0-4.2.3-6.3.3-1.4,0-2.9-.6-4.3-.6-2.3,0-4.6.5-7,.8-.8,0-1.6.3-2.3,0-3.1-1-6.1-.6-9.2-.2-.8,0-1.6-.3-2.4-.3-2.5,0-4.9,0-7.4,0-1.2,0-2.6-.9-3.6.6,0,.1-.9-.3-1.3-.3-2.1,0-4.2,0-6.2,0-2.2-.1-4.4-.5-6.6-.6-.5,0-1.5-.8-1.6.6,0,.1-.9.3-1.4.3-2.9-.2-5.8-.5-8.7-.7-2.2-.1-4.4-.4-6.6-.3-2,0-3.9.5-5.9.6-1.4,0-2.8-.1-4.2-.2-1.5,0-2.9,0-4.4,0-2.4,0-4.8,0-7.2-.1-.9,0-1.9,0-2.8,0-3.6,0-7.1,0-10.7,0-3.1,0-6.2.3-9.3.3-2.4,0-4.9-.3-7.3-.5-.2,0-.3,0-.5,0-.9,0-1.8.3-2.8.3-7.9-.1-15.7.4-23.6-.3-.2,0-.5,0-.7,0-1.7,1.1-3.6.5-5.5.6-1.2,0-2.4-.3-3.6-.3-2,0-4,.3-6,.3-4.5,0-9-.3-13.6-.5-.7,0-1.3.2-2,.2-2.7,0-5.5,0-8.2,0-.7,0-1.4.3-2.1.3-.6,0-1.1-.2-1.7-.2-1.1,0-2.2-.1-3.2-.1-1.3,0-2.5,0-3.8,0-2.5,0-4.9,0-7.4,0-7.7.4-15.3-.7-23,.3-2.2.3-4.5,0-6.8,0s-5.4.3-8.1,0c-2.6-.4-5.2-.1-7.8-.2-2.6-.1-5.3,0-7.9,0-2.4,0-4.9.3-7.3.3-2.2,0-4.5-.5-6.7-.2-3.4.4-7-.6-10.3,1.3-.3.2-1.1,0-1.4-.2-1.4-1.1-2.9-1.3-4.7-.9-1.6.4-3.6.8-5.1.3-3.2-1.1-6.3-.3-9.5-.5-2.4-.2-4.8,0-7.3,0-3.9,0-7.9.2-11.8.3-1.6,0-3.2,0-4.8,0-2.7,0-5.5.5-8.2.3-3.6-.2-7.2-.2-10.8-.3-1.3,0-2.8-.6-3.9-.2-2.6.9-5.1,0-7.6.2-3.5.3-7.1.3-10.6.2-2.8,0-5.5-.4-8.3-.5-2,0-4,.2-6,.3-1.6,0-3.1,0-4.7,0-1.8.1-3.5.5-5.3.5-1,0-1.9-.5-2.9-.5-3.1,0-6.2.2-9.3.4-.4,0-.9.6-1,1,0,1,.2,2.1.3,3.1.1,2.2.5,4.4.2,6.6-.2,1.1.3,1.8.4,2.7,0,.9-.3,1.8-.5,2.8,0,.2-.4.5-.3.5.8,1.1.8,2.2,0,3.2.2.1.6.3.6.4,0,.4,1.2,1.3-.4,1.2-.2,0-.5.4-.5.5.7,1.3.3,2.4-.3,3.6-1.3,3-3.1,5.5-5.4,7.8-1.9,1.9-5.5,1.4-6.8-1-.8-1.7-1.9-3.3-2.3-5.1-.6-2.7-.7-5.5-.9-8.2-.2-2.2-.5-4.4-.6-6.6,0-1.1.2-2.2.3-3.3.2-2,.5-4,.7-6.1,0-.9-.3-1.9,1-2.3.2,0,.2-.6.3-.9-.3-.1-.6-.3-.8-.3-1.6,0-3.1.3-4.7.3-1.6,0-3.2-.3-4.8-.3-1.8,0-3.7,0-5.5,0h-23.1c-3.4,0-6.7,0-10.1,0-2.4,0-4.8.3-7.2.3-.9,0-1.7-.3-2.6-.3-2.9,0-5.8.3-8.8.3-3.2,0-6.4,0-9.6,0-1.1,0-2.3-.3-3.4-.3-2,0-4,0-6,0-5.9.2-11.8.5-17.7.6-2,0-3.9-.6-5.9-.5-3,0-5.9.5-8.9.7-.4,0-1,.1-1.3,0-1.3-.9-1.4.2-1.5.9-.3,3-.5,6-.7,9-.1,1.6-.7,3.3-.5,4.9.4,2.6-.7,5.2.5,7.7.3.6.2,1.5,0,2.2-.4,1.7-.4,3.3,0,5.1.4,1.9.2,3.9.4,5.9.2,1.8.6,3.5.9,5.3,0,0,.2.2.1.3-1,1.7,0,2.8.8,4.2.8,1.3.9,3.1,1.3,4.7,0,.2,0,.4,0,.5.7,1.5.3,2.5-1.4,2.5-1.1,0-2.3-.5-3.4-.8-.2,0-.3-.7-.3-.8,1.4-1.1.8-2.4.3-3.7-.3-.6-.3-1.5-.2-2.2.3-2.3-1.6-4.1-1-6.5.4-1.9-.3-4.1-.6-6.2-.2-2-.5-3.9-.7-5.9-.2-3.1-.4-6.2-.3-9.2,0-2.2.4-4.4.6-6.6.2-2.3-.4-4.7.6-7.1.4-1,.4-2.3.3-3.4,0-.4-.7-.8-1.1-1-.3-.1-.7,0-1,0-5.7,0-11.5,0-17.2,0-7.3,0-14.5-.2-21.8.3-1.7.1-3.5-.3-5.2-.3-4.5,0-9,0-13.5,0-1.6,0-3.2.6-4.8.6-1.5,0-3-.4-4.5-.4-1.6,0-3.2.3-4.9.3-.9,0-1.8-.3-2.6-.4-1.9,0-3.8,0-5.7,0-1.9,0-3.9,0-5.8.2-1.9.2-3.9-.6-5.7.7-.5.3-1.4.2-2.1,0-5.9-1-11.8-.6-17.7-.6-.9,0-1.7.5-2.6.5-3.9,0-7.9-1.5-11.8.1-.3.1-.8-.4-1.2-.5-1-.4-2.1-.8-3.1-1.1-.3,0-.8.4-1.2.6.4.3.7.5,1.1.8.2.1.4.1.6.2-.2,0-.4.2-.6.2-.4,0-.8,0-1.2,0-1.1,0-2,0-.8-1.4.2-.2.1-.6.2-.9-.3,0-.8,0-1,.1-1.8,1.3-3.7,1.5-5.7.8-.2,0-.6,0-.6,0-1.5,2.9-3.5-.3-5.2.4-.6.2-1.5-.9-1.9.6,0,.2-1.7.1-2.6,0-1.9-.2-3.8-1.8-5.5.4-.2.2-.8.2-1.3.1-.2,0-.4-.3-.7-.4.2-.2.3-.4.5-.5.3-.2.6-.4,1-.7-.5,0-1.3-.4-1.5-.2-.9,1.2-2.1.8-3.3.9-2.6,0-5.2,0-7.8,0-4.3,0-8.6.3-13,.3-2.2,0-4.5-.3-6.7-.3-.6,0-1.1.6-1.7.8-.6.2-1.2.3-1.8.5,0-.4.2-.8.1-1.1,0-.6-.2-1.2-1.1-.7-.8.5-1.7.8-2.7.9-.5,0-1.2-.2-1.7-.5-.1,0-.2-.4-.3-.6.5-.2,1-.4,1.5-.5,12-1.6,24.1-.3,36.2-.7,1.8,0,3.7-.4,5.5-.3,1.5,0,3,.6,4.6.9.4,0,.8.2,1.1,0,3.7-1.7,7.6-.8,11.4-1,3.2-.2,6.4,0,9.7,0h22.9c2.5,0,5,0,7.6,0,.5,0,1,.7,1.5.8.9.1,1.8.2,2.7,0,.8-.1,1.6-.8,2.4-.8,12.6,0,25.2,0,37.8,0s26.2,0,39.2,0c3.2,0,6.4-.2,9.6-.3,1.2,0,2.3,0,3.5,0,2.4,0,2.4-.2,3-2.6,1.2-4.7,2.7-9.3,5.4-13.4,2.9-4.4,6.2-8.4,10.6-11.3,1.4-.9,2.6-1.8,3.3-3.4,0-.2.3-.4.4-.6.2.2.7.4.7.6,0,.7-.3,1.4-.4,2,0,.2,0,.5-.1.7.2,0,.5-.1.7-.3.7-.5,1-1.9,2.4-1.1,0,0,.7-.4.7-.6.1-1.9,1.5-1.7,2.7-1.7,1.5,0,3.1-.4,4.6-.3,1.7,0,3.4.5,5.1.8.4,0,.7.4,1,.7-.4.2-.8.5-1.1.5-1.9,0-3.9-.2-5.8,0-2.3.3-4.6.8-6.9,1.4-1.6.4-2,2.1-2.1,3.5-.3,3-.3,6.1-.4,9.1,0,1.7-.2,3.4-.4,5.1,0,.2-.4.3-.6.4-.2,0-.5,0-.7.1.1.3.1.7.4.9,1.4,1.1,1.8,2.4,1.1,4-.8,1.9.5,3.4.8,5.1,0,.2.8.3,1.2.3,21.9,0,43.7,0,65.6,0,2.8,0,5.6-.3,8.4-.3,2.8,0,5.6.3,8.4.3,1.3,0,2.6-.3,3.9-.3,4,0,8,.2,12,.3,2.3,0,2.8-.6,3.5-2.9,1.1-3.9,3.1-7.3,5.6-10.4.8-.9,1.7-1.8,2.5-2.7,1.7-1.8,1.7-4.2,2.1-6.5.5-2.8,1.1-5.6,1.7-8.3.3-1.3.4-1.3,1.4-.6s.5,0,.6-.2c.7-2.4,1.4-4.8,2-7.2,0-.3,0-.6-.1-1-.2.2-.5.4-.7.7-.9,1-1.8,2.1-2.8,3.1-.4.5-2.1.5-.5,1.6,0,0-.3.6-.5.8-2.1,2.1-4.9,2-7.5,1.6-4.3-.6-7.4-2.9-8.8-7.3-1.2-3.7.3-6.8,2-9.8.3-.6.7-1.2,1-1.8-.4-.2-1-.6-1.3-.4-.8.3-1.7.7-2.1,1.3-.8,1.4-1.3,3-1.9,4.5-.7,1.7-1.3,3.4-2.1,5.1-1.7,3.9-3.5,7.7-5.1,11.7-.5,1.2-.6,2.5-.7,3.8-.2,1.9-1.2,3.1-2.8,2.9-1.2-.1-1.9-1.8-1.7-3.5.4-2.8.8-5.6,1-8.4.2-3.3.2-6.7-.6-10-.9-3.6-2.5-6.8-5.6-9.1-1.8-1.3-4.2-1-5.8.6-4,4.2-6.4,9.3-8,14.7-.3.9-.3,1.9-.7,2.8-.7,1.4-.2,2.3.7,3.2.2.2.4.5.6.7-.3.3-.7.6-1,.8-.7.2-1.4.3-2.1.4-1.3.2-2.7-1.3-2.2-2.7,1.3-4.2,2.6-8.4,4.1-12.4.8-2.1,2.2-4,3.4-5.9.8-1.3,1.8-2.5,2.8-3.7,1.4-1.7,5-2.5,7-1.6,3.1,1.3,6,3,7.7,6,1.9,3.6,3.2,7.4,2.9,11.6,0,.2,0,.4,0,.5-.2.4-.4.8-.6,1.2-.1-.4-.3-.8-.4-1.3,0-.1,0-.2,0-.3-.1-.4-.2-.7-.3-1.1-.1.4-.3.7-.3,1.1-.1,3.8-.2,7.5-.4,11.3,0,.7-.2,1.4-.3,2.1,0,.2.2.3.2.5.1-.1.4-.2.4-.4.7-1.7,1-3.4.5-5.2-.2-.8.1-1.8.3-2.7s.3-.3.5-.2.4.5.5.8c0,.4,0,.8,0,1.2,0,.2.3.4.5.6.2-.2.5-.4.6-.6.6-1.2,1.1-2.5,1.6-3.8,0-.1,0-.4,0-.5-2.3-1.4-.8-3.3-.3-4.7,1.5-4,3.4-7.9,5-11.9.8-2.1,2.4-2.4,4.1-1.3,2.5,1.7,4.4,1.1,6.8-.1,3-1.6,6.2-3,9.8-2.7.3,0,.8-.1,1,0,.7.6,1.3,1.3,1.9,1.9-.6.3-1.1.8-1.7.9-2.5.2-5.1.5-7.3,1.6-2.6,1.3-5.5,2.1-7,4.9-3,5.6-1.1,10.4,5.2,12,2.3.6,4.6-.8,6.5-2.2,2.7-2.1,3.6-5.2,4.3-8.3.6-2.5,1-5,1.8-7.4.2-.7,1.3-1.6,2-1.6,1,0,1.7.8,1.7,2.1.2,4.2-1.6,7.8-2.8,11.6-1.1,3.5-2.4,7-3.4,10.5-.7,2.6-1.2,5.2-1.7,7.8,0,.3-.1.7-.3.9-1.3.8-.9,2.1-.6,3,.7,1.9,0,3.6,0,5.4-.1,2.1.2,4.2.3,6.4,0,1.3.2,2.7,0,4-.3,1.8,0,2.2,1.8,2.3,1.9,0,3.8.3,5.6.3.9,0,1.8-.3,2.8-.3,16.5,0,33.1,0,49.6,0,3.4,0,6.9-.2,10.3-.3.7,0,1.5.3,2.2.3,17.8,0,35.5,0,53.3,0h57.1c4,0,8.1,0,12.1,0,2.6,0,5.2-.3,7.8-.3,1.4,0,2.8.3,4.2.3,2.6,0,5.3,0,7.9,0,1.7,0,3.4-.3,5.1-.3,3.6,0,7.2,0,10.8,0,3.1,0,6.2.2,9.3.3.7,0,1.5-.3,2.2-.3,12.6,0,25.2,0,37.9,0,3.3,0,6.6.3,9.9.3,1.9,0,3.8-.3,5.6-.3,4.5,0,8.9,0,13.4,0,7.7,0,15.5,0,23.2,0,4.5,0,9,.3,13.5.3,2.6,0,5.1-.3,7.7-.3,4.5,0,9,.2,13.5.3,1,0,2.1-.3,3.1-.3,4.6,0,9.2,0,13.9,0,1.7,0,3.5.3,5.2.3.7,0,1.4-.3,2.1-.3,1.4,0,2.9.3,4.3.3,1.6,0,3.2-.3,4.8-.3,5.2,0,10.5,0,15.7,0s3.3,0,5,0c6.4.1,12.9.2,19.3.3.7,0,1.4-.3,2.1-.3,12.3,0,24.7,0,37,0s7.1,0,10.7,0c2,0,3.9.3,5.9.3,4.7,0,9.5-.2,14.2-.3,2.5,0,4.9,0,7.4,0,4,0,8,0,12,0,3.9,0,7.8.3,11.7.3,1.5,0,3.1-.3,4.6-.3,2.1,0,4.2.3,6.3.3,2.8,0,5.5-.2,8.3-.3.7,0,1.5.3,2.2.3,1.4,0,2.7-.3,4.1-.3,2,0,4,.3,6,.3,4.2,0,8.4-.3,12.6-.3,2.6,0,5.2.3,7.8.3,4,0,8.1,0,12.1,0,3.2,0,6.5-.3,9.7-.3,3.1,0,6.2,0,9.3,0,2.1,0,4.2.3,6.3.3,4.5,0,9-.2,13.4-.3,2.5,0,5.1,0,7.6,0,6.5,0,13,.2,19.5.3,1.8,0,3.7,0,5.5,0,5.1,0,10.2-.3,15.4-.3,4,0,8.1,0,12.1,0,2.2,0,4.4.3,6.7.3,5.1,0,10.2-.2,15.4-.3,1.5,0,3,.3,4.5.3,4.3,0,8.5-.3,12.7-.3,3,0,6,.3,8.9.3,2.4,0,4.7-.3,7.1-.3,2.5,0,5.1.3,7.6.3,2.3,0,4.6-.2,6.8-.3.3,0,.6.1.9.2-.2.2-.4.4-.6.6-.9,1-1.7,1.5-3.3,1.4-3.4-.3-6.8-.2-10.3,0-1.5,0-2.9.7-4.3.5-1.1-.1-2.1-.5-3.3-.3-1.8.3-3.6-.1-5.5-.2-1.7-.1-3.3-.3-5-.3-.9,0-1.8.3-2.8.3-2.2,0-4.4,0-6.5,0-1.4,0-2.9.4-4.3.3-1,0-2,.4-3.2-.1-1.1-.4-2.7.4-4,.7-.1,0-.3.1-.4.2-.7-2-2,.4-3.1-.5-.9-.7-2.4-.9-3.7-.9-2.4,0-4.8.3-7.1.5s-1.4,0-1.9,0c0,0-6,0-9,0s-5.3-.3-7.9,0c-2.1.3-4.1-.8-6.2.2-.6.3-1.7-.6-2.6-.6-3.6,0-7.3-.2-10.9,0-2.2.1-4.4-.4-6.6.5-1.2.5-3-.3-4.5-.3-1,0-2.1.1-3.1.2-.2,0-.4.1-.6.1-2.3-.2-4.5-.5-6.8-.6-1.7,0-3.4.2-5,.3-1.4.1-3.2.8-4.3.2-1.8-.9-3.5-.5-5.2-.5-1.5,0-2.9.4-4.4.5-.9,0-1.9-.1-2.9-.3M463,76.8c-.9,1.9-1.7,3.8-2.5,5.7-.2.4-.3.8-.3,1.2,0,.1,0,.3,0,.5.2-.1.4-.2.5-.3.9-2.4,1.7-4.7,2.7-7.1.3-.4.5-.9.8-1.3-.1,0-.3,0-.3,0-.2.4-.4.9-.8,1.4M481.1,138.8c0-.5.3-1.2.1-1.5-1-1.4-.7-3-.7-4.6,0-1,0-2.1-.4-3.1-.1-.4-.8-1-1.3-1-1.9-.2-3.8-.3-5.6-.4-.4,0-.9.3-1.2.6-.9.7-.4,1.7-.4,2.6-.1,1.7-1,3.4-.9,5,.3,3.3.6,6.5.3,9.7-.1,1.5.2,3,.5,4.4.5,2.5,2.2,4.8.5,7.4-.1.2,0,.5.1.8.2-.1.3-.3.5-.4.2-.2.6-.5.6-.4.3.2.6.5.7.9.1.4,0,.8,0,1.2,0,.3.3.7.5.8.2.1.7,0,.9-.2.6-.7,1.2-1.4,1.7-2.2,1.1-1.9,2-3.8,3.2-5.6.5-.8,1-1.5.6-2.5-.2-.3,0-.9.1-1.3.2-1.2.7-2.5.5-3.7-.4-2.1-.5-4.3-.4-6.6M363.7,121.9c-.1-1.4-.3-2.7-.3-4.1,0-4.4.2-8.7.3-13.1,0-.4.2-.7.3-1,.2-.3.4-.4.7-.6.1.3.2.5.3.8,0,.2.1.4.2.6,0,0,.4,0,.4-.1,0-1.2.2-2.4,0-3.6,0-.3-1.1-.6-1.7-.6-.4,0-.8.2-1.2.3.1.3.3.6.3.9,0,.2,0,.6-.3.7-.3.3-.7.4-1.1.7-7,6.2-11.4,14-13.8,23-.3,1.1.4,1.7,1.5,1.5.6-.1,1.3-.3,1.9-.3,3.6,0,7.3,0,10.9,0,1.2,0,1.8-.5,1.7-1.7,0-1-.2-1.9-.3-3.3M475.6,126.5c1,0,2,0,3.1,0,1.2,0,1.3-.6,1.2-1.5,0-.3-.3-.6-.3-.9,0-3.7,0-7.4,0-11.1,0-.3-.2-.7-.4-1-.2.2-.5.3-.7.5-1,1.2-2.1,2.4-3,3.7-.3.5-.4,1.1-.6,1.7.3-.5.6-1,1-1.4.4-.4.9-.7,1.3-1-.1.5-.2,1-.3,1.4-.2.6-.6,1.2-.9,1.9-1,2-1.9,4.1-2.9,6.1-.1.2-.2.4-.3.6-.1-.2-.4-.5-.4-.7.4-1.5.9-3,1.3-4.5,0-.3.1-.5.2-.8-.2.2-.5.3-.6.5-.7,1.6-1.4,3.3-2,5-.4,1.1-1.5,2.7,1.1,1.6.2,0,.4.2.6.2.7,0,1.5-.1,2.5-.2M488.1,83.1c.3-1.5.7-3,1-4.5.2-1,.5-2.1.7-3.1,0-.2-.3-.5-.5-.7-.2.2-.4.4-.4.7-.7,2.7-1.3,5.5-1.9,8.2,0,.2.1.5.2.8.2-.2.5-.4.7-.6.1-.2.1-.4.4-.8M349.8,115.8c-.5,1.1-1,2.2-1.5,3.2,0,.2,0,.4,0,.7.2-.2.4-.3.5-.5.6-1.2,1.2-2.3,1.7-3.5.3-.7.4-1.4.6-2-.4.5-.8,1.1-1.2,1.6,0,0,0,0-.1.5M468.7,79c.8-.9,1.5-1.7,2.3-2.6.1-.2.3-.3.4-.5-.2,0-.5,0-.7,0-1.7.3-2.2,1.7-2.7,3-.1.4-.1.8-.2,1.2.2-.3.5-.7.9-1.2M428.8,95.7c.3-.1,1-.3,1-.4,0-1-.2-1.9-.3-2.9,0-.1-.2-.2-.3-.3-.1.1-.4.3-.4.4,0,1-.1,2,0,3.2M434.4,77.8c0,.5,0,.9,0,1.4.2-.4.5-.7.7-1.1.3-.5.6-1,.8-1.5.1-.3.2-.7.3-1-.2.3-.5.5-.7.8-.3.4-.6.9-1.1,1.5M466.9,86.1c0-.9-.2-1.7-.2-2.6-.1,0-.3,0-.3,0,0,.9-.1,1.9-.1,2.8,0,.2.3.3.4.5,0-.1.2-.3.2-.8M481.4,128.9c0,.7,0,1.4,0,2,.3-.5.5-1,.8-1.4.9-1.1-.3-.4-.8-.6M365.6,126.5c0-.4.2-.8.2-1.1,0-.1-.6-.2-.9-.2.1.5.2.9.7,1.4M453.2,83.9c-.2-.2-.4-.5-.5-.7,0,.7,0,1.3,0,2,0,.1.3.2.4.4,0-.1.2-.2.3-.3,0-.4,0-.8-.2-1.4M437.3,73.5c0,.4-.2.8-.2,1.1.4-.4.9-.8,1.2-1.2.2-.2.1-.5.2-.8-.3.2-.7.4-1.2.8M433.7,79.8c-.3.5-.6,1-.9,1.5.1,0,.3.1.4.2.2-.5.4-1,.4-1.7M344.7,159.4c.2.1.5.2.7.3v-.9c-.2.1-.5.2-.7.6M365.4,112c-.2-.3-.3-.5-.5-.8,0,.2-.3.5-.2.6.1.2.4.4.7.2M482.4,99.9c.2-.2.3-.5.5-.7-.2,0-.3-.2-.5-.3,0,.3-.1.6,0,1M347.2,177.9c.2.2.4.5.5.7l.3-.5c-.3-.1-.7-.3-.9-.2M481.6,135.5c.3,0,.6-.1.9-.2,0-.2-.1-.3-.2-.5-.2.1-.5.2-.7.7M466.6,81.7l.2.9c.2,0,.3-.2.5-.3-.2-.2-.3-.5-.7-.6M432.7,82.2c-.2.2-.3.5-.5.7,0,0,.1.2.2.2.1-.3.3-.5.3-1Z"/>
    <path d="M728.9,51.6c-.5,3.8-.9,7.5-1.4,11.2-.3,2.3-.5,4.6-.7,6.9-.4,4.2-.7,8.5-1,12.7-.2,2.7-.5,5.4-.7,8.1-.1,1.3-.2,2.6-.4,3.9,0,.3-.3.5-.5.8-.2-.3-.5-.6-.5-.9,0-2.2.2-4.4.3-6.7,0-.3-.2-.6-.4-.9,0,.3-.3.5-.3.8-.2,3-.7,5.9-.6,8.9,0,3.6.7,7.2.9,10.8,0,1-.3,2-.5,3,0,.3,0,.6.2,1,.2-.3.6-.5.6-.8.2-1,.3-2,.4-3.1.2-1.9.4-3.8.7-5.7.4-2.1,1-4.2,1.4-6.4.5-2.8.8-5.6,1.3-8.3.9-4.8,1.1-9.7,1.1-14.6,0-.5.8-1.3,1.3-1.3.9,0,2.1.3,2.7.9,2.5,2.2,4.8,4.7,7.2,6.9.3.3,1.6.1,1.9-.2,1.4-1.8,2.6-3.5,2.3-6.1-.4-3.4,0-7,.3-10.5.4-3.6,1-7.3,1.7-10.9.3-1.5.9-3,1.5-4.5,2.3-5.4,5.2-10.5,9.3-14.7.5-.5.9-1.1,1.3-1.7.9-1.4,2.3-.9,3.5-.9.4,0,1,.9,1,1.3-.4,2.8-.7,5.7-1.3,8.5-1.1,4.7-2,9.5-3.6,14-2.3,6.7-5.2,13.3-8.8,19.5-.8,1.4-.9,2.7-.3,4.4,1.6,4.7,3.6,9.2,6.7,13.1.2.3.5.6.8.9.3-.3.7-.6.9-1,2.5-6.2,5-12.5,7.5-18.7.2-.5,1-1.1,1.4-1.1.8,0,1.9.4,2.3,1,1.6,2.4,2.2,5.2,2.4,8,.1,1.9,0,3.7,0,5.6,0,.9.4,1.8.5,2.7,0,.8,0,1.7-.2,2.5,0,0-.4.2-.4.2-.1-.1-.2-.3-.3-.5-.2-.6-.4-1.2-.7-1.9-.1.7-.4,1.4-.3,2.1.1,1.7.4,3.3.7,5,0,.3.5.5.7.7,0-.3.2-.6.2-.9.2-.5.3-1,.5-1.5.3.5.6,1,.9,1.5,1.4,2.4,2.7,4.8,4.1,7.1.6,1,1.3.8,1.7-.4,1.7-4.9,3.4-9.7,5-14.6,1.2-3.6,2.3-7.3,3.5-11,0-.3.2-.6.3-.9.2-1.1.4-2.1,1.7-2.2,1.4,0,3-.4,3.4,1.7.1.6.4,1.1.7,1.6,1.5,2.5.7,5,0,7.5,0,.3-.6.5-.8.8,0-.4-.2-.8-.1-1.1.3-1.4.7-2.8,1-4.2,0-.2-.2-.5-.3-.8-.2.2-.6.3-.6.5-.4,1.1-1.2,2.1-.8,3.5.2.9-.3,2-.6,2.9-.6,2.6-1.2,5.2-1.7,7.9,0,.2.1.5.2.8.2-.2.3-.4.5-.7.2-.3.2-.7.4-.8,3.1-1.8,3.5-5.2,5.1-7.9,1.4-2.4,2.7-4.9,3.1-7.7.2-1.3,3.3-2.2,4.3-1.3.3.2.4.8.3,1.2-.4,3.4-.9,6.8-1.4,10.1-.7,4.5-.8,9,1.3,13.1,1,2,2.8,4.2,5.7,3.9.7,0,1.4-.6,2.1-1,3.1-1.6,5.3-4.2,7.2-7,.8-1.2,1.3-2.8,1.4-4.3.3-3.3,2.1-5.8,3.8-8.3,2.5-3.5,5.2-6.9,7.9-10.3.9-1.1,1.8-2,3.5-1.8,1.2.1,1.7.7,1.8,1.7.2,3.9-.2,7.7-.9,11.5-.4,2.4-.7,4.9-.7,7.4,0,3.8.2,7.6.3,11.3,0,.4.4.8.6,1.2.5-.3,1.2-.4,1.3-.8,1.2-2.8,2.6-5.5,3.5-8.4,1.6-5.8,2.7-11.8,2.5-17.9,0-2.6,0-5.3,0-7.9,0-1.4.7-2.5,3.1-2.7,4.1-.4,7.8,1.3,11.6,2.5,3.4,1.1,6.9,2.1,10.4,2.9,1.2.3,2.6-.3,3.9-.4.5,0,1-.2,1.5-.2.2,0,.4,0,.6.2-.1.2-.2.6-.4.7-.9.3-1.9.7-2.9.8-6.2.7-11.8-1.3-17.5-3.4-2.4-.9-4.9-1.8-7.5-.9-.4.1-1,.7-1.1,1.1-.1,2,0,4,0,6,0,2.3,0,4.5-.1,6.8,0,.3,0,.7,0,1,.2,0,.4,0,.4,0,.2-.3.4-.7.4-1,0-1.9,0-3.9,0-5.8,0-.3.3-.6.4-.9,0,.3.2.6.3.9.6,8.5-1.4,16.6-4.6,24.4-.7,1.7-1.2,3.2-2.9,4.3-3.6,2.2-5.3.7-6.1-2.2-.7-2.6-.8-5.4-.7-8.1.1-4.4.6-8.7,1-13.1.1-1.6.4-3.1.7-4.6.1-.6.8-1.2,1-1.8.3-.7.4-1.4.6-2.1,0,0-.4-.3-.6-.3-.8,0-1.1.3-1.5,1.1-.9,1.7-2.3,3.3-3.6,4.8-2,2.3-2.8,5.1-3.5,7.9-.8,3.5-2.2,6.7-4.1,9.7-2.7,4-6.1,7.3-10.8,9-4.2,1.5-8.1.9-11-2.4-2.8-3.2-3.7-7.1-2.9-11.4,0-.3,0-.7.1-1,.2-.5.4-.9.6-1.3.2.5.6,1,.7,1.5,0,1.2,0,2.5,0,3.7.1,3.4,1.5,6.2,3.8,8.6.3.3.8.3,1.1.4-.2-.3-.4-.6-.6-.8-1.8-2.6-3.3-5.4-3-8.8.2-2.8.6-5.6.6-8.4,0-.7-1.4-1.4-2.2-2-.1,0-.9.4-1.1.8-.9,1.5-1.7,3.1-2.6,4.7,0,.1-.2.4-.1.4,1.5,1.7-.2,2.9-.7,4.3-.2.6-.7,1.2-.9,1.8-.5,1.5-1.8,2-3,1.8-1.3-.2-2.1-1.5-2.1-2.9,0-1.2,0-2.4.3-3.6.7-3.2,1.6-6.4,2.3-9.6.3-1.3.6-2.5.7-3.8,0-.7-.1-1.5-.5-2-.5-.8-1.2-.5-1.5.3-.4,1.3-1.1,2.7-1,4,.3,3.2-.9,6-1.6,8.9-1.2,4.8-2.7,9.5-4.3,14.2-.5,1.4-1.5,3.1-2.7,3.8-1.8,1.1-3.6-.5-4.9-1.7-3.9-3.6-6.1-8-6.3-13.4-.2-4.1-.2-8.2-.4-12.3,0-1.4-1-2.7.5-4,.1-.1-.9-1.6-1.4-2.4,0-.1-.6-.1-.7,0-.3.7-.6,1.4-.7,2.1-.2,1.2,0,2.4-.4,3.5-1.7,4.9-3.6,9.6-5.3,14.5-.6,1.7-.8,3.5-1.1,5.3-.4,1.9-1.7,2.8-3.6,2.4-.4,0-.9-1-.8-1.3,1.7-3.9-1.1-6.4-2.6-9.3-1.5-2.8-3.1-5.5-4.6-8.3-.2-.4-.1-1-.2-1.5.3,0,.6.2,1,.2.2,0,.5-.3.5-.3-.3-.6-.5-1.4-1-1.8-.2-.2-1.3,0-1.5.4-.8,1.3-1.4,2.7-3.2,2.9-2.4.2-4.4-.4-6.1-2.2-.8-.8-1.7-1.6-2.6-2.3-.7-.6-1.3-.3-1.4.6-.3,2.3-.4,4.6-.7,6.9-.4,3.2-.9,6.4-1.5,9.6-.6,3.4-1.4,6.8-2.3,10.1-.8,3-1.9,5.9-3.1,8.8-.5,1.3-2.2,1.7-3.2.9-.3-.2-.6-.8-.5-1.1.4-2.8,1.1-5.5,1.3-8.3.1-2.8-.4-5.6-.5-8.4,0-1,.2-1.9.3-2.9.1-3.9,0-7.9.4-11.8.3-4,1.1-8,1.6-12.1.2-1.6.2-3.2.4-4.8.3-1.9.7-3.7,1-5.5,0-.2.2-.4.3-.6.1.2.3.4.3.6,0,.3,0,.6,0,.8,0,.2.2.4.4.6.1-.2.3-.4.3-.6,0-1.7-.3-3.4,0-5,.4-2,.2-4,.3-6.1,0-1.2.5-2.4.6-3.6.2-1.9.3-3.8.3-5.6,0-.3-.2-.5-.3-.8-.1.3-.3.6-.4.9-.4,2.8-.6,5.6-1.1,8.4-.2.9-1,1.7-1.3,2.7-1,3.8-1.6,7.7-2.8,11.4-2,5.9-4.4,11.7-6.8,17.5-2,4.7-4.2,9.4-6.5,14-1.1,2.1-2.6,3.9-4,5.8-.3.4-1,.6-1.4.5-.3,0-.5-.8-.6-1.3-.9-4.7.7-9.4.7-14.1,0-2,.7-3.9.6-5.8-.3-4.7-.3-9.5-3-13.7-1.2-1.8-1.9-2-3.2-.3-2.6,3-5,6.1-7.5,9.1-2.5,3-5.1,6-7.6,9-.2.3-.4.6-.5,1,.4,0,.8.2,1.2.3.1,0,.3-.3.4-.3.4,0,.8.3,1.2.4-.3.2-.5.5-.8.6-2.5.5-4.8,1.6-7.5.4-2.2-.9-4.7-1-7.1-1.5-.9-.2-1.7-.6-2.6-.8-.4-.1-.9,0-1.4,0,0,.4,0,.7,0,1.1.1,1.9.2,3.8.3,5.6.1,2.8.1,5.5.4,8.3.2,2.5.7,5.1,1,7.6,0,.3.2.5.3.8.1-.3.4-.5.3-.8-.2-2-.5-4-.8-6-.1-1.4-.2-2.9-.2-4.3,0-.2.3-.3.4-.5.2.3.5.6.5.9.2,1.3.2,2.5.4,3.8.4,2.5,1,5,1.5,7.6,0,.4,0,.9-.1,1.1-.2.2-.9.4-1,.2-.7-.6-1.6-1.3-2-2.1-1.6-3-1.6-6.3-1.7-9.5-.2-4-.2-8-.4-11.9,0-1.1-.4-1.8-1.8-2-4.5-.9-8.9-1.5-13.4-.3-.6.2-1.3.4-1.7.8-.6.5-1.1,1-.3,2,3.1,3.8,6.1,7.8,9.1,11.7.2.3.4.7.6,1.1-.3-.2-.6-.4-.8-.7-3.8-3-6.8-6.7-9.6-10.6-.6-.8-1.1-1.7-1.3-2.7,0-.6.6-1.6,1.2-1.9,1.9-.7,3.9-1.3,5.9-1.8,3.7-.9,7.2,0,10.8.7.9.1,1.4-.1,1.3-1.2-.4-5.3-.6-10.6-1.1-15.9-.4-4.2-1-8.4-1.7-12.6-.3-2.1-1-4.2-1.3-6.3-.4-2.4-.6-4.8-1.1-7.1-.5-2.2-1.2-4.3-1.9-6.4-.4-1.3-1-2.6-1.5-3.8-.1-.3-.6-.4-.9-.6,0,.3.1.5.2.8.8,4.6,1.6,9.1,2.4,13.7.2,1.3.7,2.7.6,4-.4,4.3-.1,8.7-1.4,12.8-.3.9-.4,1.8-.6,2.7,0,.2-.2.3-.4.4-.1-.2-.3-.3-.3-.5,0-.9.3-1.7.3-2.6.2-5,.9-10.1.6-15-.3-4.8-.9-9.7-2.5-14.4-.3-.8-.4-1.7-.4-2.6,0-.4.6-1,.9-1,.6,0,1.5.2,1.7.6,1.5,2.9,3,5.8,4.1,8.9,1.2,3.3,2,6.8,2.9,10.2.9,3.7,1.6,7.5,2.3,11.3.8,4.5,1.6,9,1.4,13.6-.1,3.1.3,6.3.2,9.4,0,1.8.9,2.3,2.3,2.6,2.9.7,5.8,1.4,8.7,1.9.7.1,1.8-.1,2.2-.6,3.5-4.4,6.9-8.8,10.4-13.2,2.1-2.6,4.3-5.1,6.6-7.4,1.4-1.4,2.8-1,4.1.3,2,1.9,2.8,4.4,3.1,6.9.6,5,.8,10,.7,15,0,3.4-1,6.8-1.6,10.2,0,.3,0,.7,0,1,.1.3.4.6.6.9.2-.2.6-.3.7-.6.7-1.6,1.2-3.4,2-5,1.9-3.9,4-7.6,5.8-11.6,1.9-4.1,3.6-8.3,5.1-12.5,1.5-4.3,2.5-8.7,4.2-12.9.8-2,.8-4.3,2.7-5.9.7-.5.5-2.1.6-3.3.3-2.6.5-5.1.7-7.7,0-1-.1-2-.2-3-.1-1.1-.4-2.2,1-2.6,1.4-.5,2.1.1,2.4,1.9.6,3.3.4,6.6-.3,10-.5,2.5-.3,5.1-.4,7.9M751.9,45.4c-1.9,3.8-2.7,7.9-3.2,12.1-.3,2.7-.6,5.4-1.1,8.1,0,.6-.6,1.1-.9,1.6-.2-.6-.3-1.1-.5-1.7,0-.3-.3-.5-.4-.7,0,.2-.2.4-.3.7-.5,1.9-.6,3.8,0,5.7,0,.3.6.7.8.7,1.7,0,2.2-1.6,2.5-2.8.7-3.5,2-6.8,3.7-9.9.9-1.6,1.7-3.2,2.1-4.9,1.4-5.1,2.5-10.3,3.8-15.4.3-1.3.6-3.4,1.4-3.7,1.6-.6,1.2-1.8,1.6-2.7.2-.4-.2-1.5-.6-1.7-.6-.3-1.4-.3-1.8.8-.6,1.6-1.3,3.1-2.1,4.6-1.6,3-3.3,6-5.1,9.2M756.8,95c-.2.9-.5,1.7-.7,2.6,0,.3.2.6.3,1,.2-.3.5-.6.7-1,.4-1.1.7-2.3,1.2-3.4.6-1.4.1-2.4-1.4-2.4-1,0-1.9.2-2.6-.9,0-.1-.4,0-.6,0,0,.2-.1.4,0,.5.9,1.2,1.9,2.4,3,3.7M786.8,84.1c.1-.7.3-1.4.3-2.1,0-.3-.2-.6-.3-.8-.1.2-.3.5-.4.7-.7,2.5-1.4,5.1-2,7.6,0,.4,0,.8,0,1.2.2-.4.6-.7.7-1.1.6-1.7,1.2-3.5,1.7-5.6M771.4,98.1c.9,1.4,1.8,2.7,2.7,4.1.2.3.5.6.8.8,0-.5.1-1.1-.1-1.5-.9-1.7-1.9-3.3-2.8-4.9-.1-.2-.4-.3-.7-.4,0,.3-.3.6-.3.8,0,.2.2.5.3,1M822.9,88.5c-.6.9-1.4,1.7-1.8,2.6-.2.5,0,1.2.1,1.8.3-.3.6-.6,1-.9.2-.2.4-.3.5-.5.4-1.2.7-2.4,1-3.7,0-.1-.3-.3-.5-.5,0,.3,0,.5-.1,1.1M730.2,76.3c.1.6.2,1.1.4,1.7.2-.4.3-.8.5-1.2,0,0,.1-.2.2-.2,1.4-.7.5-1.9.6-2.9,0-.2-.6-.5-1-.6-.1,0-.5.3-.6.6,0,.8,0,1.5-.1,2.6M799.7,79c.8,1.3.5,2.6.4,4,0,.2.2.4.3.6.2-.2.6-.3.6-.5,0-1.1.2-2.3-.2-3.2-.2-.7-.5-.9,0-1.5.2-.2.2-.7.1-1.1,0,0-.6-.3-.7-.2-.3.2-.5.5-.6.8,0,.2,0,.4,0,1M723.8,81c0,.4,0,.8,0,1.2,0,.1.3.2.4.4,0-.1.2-.2.2-.3.1-1.8.2-3.5.3-5.3,0-.2-.3-.3-.4-.5,0,.2-.2.3-.2.5-.1,1.2-.2,2.5-.3,4.1M792.7,92.4c-.2-.2-.3-.4-.5-.6-.3.3-.7.7-1,1-.2.3-.4.5-.6.8.4,0,.9,0,1.2-.1.3-.2.5-.7.9-1.2M782.7,96.7c0-.2-.2-.3-.3-.5-.4.8-.7,1.6-1.1,2.4,0,0,.2.2.3.3.2-.5.5-1.1.7-1.6,0-.1.1-.3.3-.6M725.1,73.9c-.1-.4-.3-.8-.4-1.2,0,.4-.2.8-.3,1.2,0,.2,0,.4,0,.5.1.2.3.5.4.7,0-.3.2-.6.3-1.2M746.4,60.4c-.2.9-.3,1.7-.5,2.6,0,0,.1,0,.2,0,.1-.7.3-1.3.4-2,0-.2,0-.3-.2-.7M748.3,52.1c.1-.5.2-.9.3-1.4,0-.1,0-.4-.1-.4,0,0-.4,0-.4,0,0,.7,0,1.3.2,1.8M783.4,94.6c0-.4.1-.8.2-1.1-.3.3-.6.6-.9.9,0,0,0,.2,0,.3,0,.3,0,.5-.1.8.2-.2.5-.4.9-.8M779.6,102.5c0,.3.2.6.3.9.2-.4.5-.7.6-1.1,0-.1-.1-.4-.2-.6-.2.2-.4.5-.7.9M746.2,58.5c.3-.3.6-.6.9-.9,0-.1,0-.4-.1-.6-.1.2-.3.3-.4.5-.1.2-.2.5-.3,1M726,61.4c0,.5,0,.9,0,1.4,0,0,.3,0,.3,0,0-.5,0-.9-.3-1.4M768.7,82c.2.2.4.3.6.5,0-.4-.1-.8-.2-1.1-.1.1-.2.2-.3.7M727.8,37.1c.2,0,.5-.1.7-.2,0-.2-.2-.4-.3-.7-.1.2-.3.3-.4.9M746.1,76.8c.2-.2.3-.5.5-.7-.2,0-.3-.2-.5-.3,0,.3-.1.6,0,1M663.6,51.2c0,.3-.2.5-.1.8,0,0,.3.1.5.2,0-.3-.1-.5-.4-1Z"/>
    <path d="M100.7,40.3c.8-1.9,1.6-3.6,2.4-5.4.5-1.3.9-2.7,1.5-4,.3-.7,1-1.2,1.5-1.7.6.6,1.5,1,1.8,1.7,1.7,3.4,2.1,7.2,2.4,10.9.2,2.3,1,4.6.9,6.9-.2,4.9.4,9.7-.8,14.7-1.3,5.9-3.3,11.6-5.4,17.2-1.4,3.7-3.4,7.2-5.1,10.8-1.1,2.2-1,2.3,1.3,3.2,3.2,1.3,6.4,2.7,9.5,4.1,2.1.9,5.4-1.1,5.6-3.4.3-3.2,1-6.3,1.4-9.5.2-2.1.2-4.2.3-6.2.1-2.1.2-4.1.4-6.2,0-.4.9-1,1.3-.9.5,0,1.3.7,1.3,1.1,0,2.3-.2,4.6-.3,6.8,0,1,.3,2.1.3,3.1,0,3-.2,5.9-.3,8.9,0,.3-.3.5-.5.8-.2-.3-.4-.5-.5-.8,0-.4,0-.8,0-1.2,0-.5-.3-.9-.4-1.3-.3.5-.8.9-.9,1.4-.4,2.4-.8,4.9-1,7.3-.1,1.1-.7,1.5-1.8,1.5-.3,0-.7.2-1,.3.2.4.4,1,.6,1,2.2.4,2.3,2.6,3.5,3.8.5.6.9,1.2,1.4,1.8.3.4.8.6,1.2.9,0-.6.2-1.2,0-1.7-.5-1.3-1.3-2.5-1.8-3.8-.3-1-.3-2-.3-3.1,0-.1.8-.3,1.3-.4-.3-.5-.6-1-.8-1.6,0,0,.3-.2.5-.3.5-.4,1.4-.6.4-1.5-.2-.2,0-.8,0-1.2.2.2.4.6.7.7.6,0,1.3.2,1.7,0,2.6-1.6,5.2-3.2,7.6-5,2.9-2.2,5.6-4.5,8.4-6.8,3.1-2.6,5.9-5.7,9.9-6.9,5.9-1.8,10.5.6,13.2,5,2.9,4.7,3,10,1.3,15.2-.7,2-1.1,4.1-1.9,6-.6,1.5-1,3-1.5,4.5-.9,2.7-2.8,5.1-4.2,7.6-.4.7-1,1.4-1.4,2.1-1.8,3.3-4.5,5.7-7.2,8.2-1.8,1.7-3.9,3.1-5.9,4.6-.6.4-1.5.6-2.3.6-1.8,0-3.6.2-5.3,0-1-.1-2-.9-2.9-1.4-1-.5-1.4-.3-1.8.8,0,.2-.5.4-.6.3-1.3-.8-2.6.3-3.9,0-.4-.1-.7-.5-1.1-.6-.7,0-1.6-.2-2.2,0-3.5,1.5-6.9,1.2-10.4.3-.2,0-.5-.1-.7,0-1.9,1-3.8.1-5.7.3-2.4.2-4.9,0-7.4,0-2.9,0-5.8.2-8.7.2-1.3,0-2.5-.6-3.8-.5-2,0-4,.6-6,.6-2.4,0-4.8,0-7.1-.5-4.5-.9-9-1-13.6-.6-3.9.4-7.9,0-11.8,0-1.1,0-2.3.3-3.4.4-1.6.1-3.1.2-4.7.3-1.8.1-3.7.3-5.5.3-.8,0-1.6-.3-2.4-.3-6.5,0-13.1.1-19.6,0-2.8,0-5.5,0-8.2.4-.7,0-1.4,0-2.1,0-.1,0-.2-.8-.2-1.2,0-.3.3-.7.5-.8.4-.1.8,0,1.2,0h42.7c5.9,0,11.8,0,17.8,0,3.4,0,6.8-.2,10.1-.3,1,0,2,.3,2.9.3,2.1,0,4.1-.3,6.2-.3,5.4,0,10.8.3,16.2.3,4.5,0,8.9-.2,13.4-.3,3.7,0,7.3,0,11,0,.4,0,1.1,0,1.3.2,1.1,1.4,2.1.4,3.1,0,.6-.2,1.2-.3,1.8-.6.5-.2,1-.5,1.6-.8-.4-.4-.7-1.2-1.2-1.2-3.5-.5-3.9-3.6-4.9-6.1-1-2.5-1.9-5-2.8-7.5,0-.3,0-.6.1-.9.2.1.5.3.7.4.3.1.5.3.8.4,0-.3,0-.7-.2-1-.1-.3-.3-.7-.6-.8-3.3-1-4.6-4.2-6.5-6.6-.9-1.1-1.8-2-3.2-2.6-4.1-1.7-8.1-3.6-12.5-4.4-.9-.2-2-2.2-1.7-3.2.6-1.9,1.4-3.7,2.2-5.6,2.2-5.1,4.8-10,6.5-15.2,1.4-4.4,2.9-8.8,2.6-13.6-.2-2.6.5-5.3.2-7.9-.4-3.9,0-7.9-1.2-11.8-.7-2.2-.5-4.7-.8-7,0-.5-.3-1-.5-1.5-.4.4-1.1.8-1.1,1.2,0,2.9-1.6,5.3-2.5,7.8-1.3,3.6-2.9,7.1-4,10.8-1.5,5-2.6,10.1-3.8,15.1-1,4.6-1.4,9.2-1.4,13.9,0,4,.7,7.7,2.1,11.5,1.2,3.1.8,6.5-1.4,9.3-1.6,2.1-3.3,4.3-4.9,6.4s-3.7,4.6-5.1,6.3-1.6,2-2.5,2.8c-.6.5-1.3.9-2,1.4-.6.5-1.4.8-1.8,1.5-1.4,2.4-3.7,3.2-6.2,4-3.9,1.3-7.4,0-11-1.4-3.6-1.4-7-3.2-10.2-5.4-2.8-2-4.3-4.7-4.4-8.1,0-1.6.4-3.2.6-4.8.3-2.1.4-4.2,1-6.3,1.4-5.5,3.6-10.7,6.4-15.6,1.8-3.2,3.9-6.2,5.9-9.3.5-.8,1.1-1.5,1.5-2.3.6-1,.5-1.8-2.2-2s-5.4-1.8-6.9-4.3-1.4-.2-2.2,0c-.5,0-1,.4-1.5.6-.4,0-.8,0-1.2,0,.2-.3.4-.7.7-1,1.6-1.1,1.8-1.9.7-3.7-1.6-2.6-2.1-5.3-2.2-8.3-.2-5.9,1.8-11.1,4.8-15.9,1.4-2.2,3.1-4.1,4.8-6,1.8-2.1,4.1-2.7,6.6-1.8,2.4.9,4.4,2.6,4.5,5.3.2,2.9,0,5.8-1.4,8.5-2.7,5.7-5.8,11.2-9.6,16.3s-1.7,2-2.3,2.8c-1.2,1.3-.5,2.2.7,2.9,2.1,1.2,4.3,2.3,6.4,3.4.4.2.8.3,1.1.6,1.5,1.1,1.5,2.7,0,5-3.2,5-6.6,9.9-9.4,15-1.5,2.8-2.3,6-3.2,9.1-.8,3-1.4,6.1-1.9,9.2-.7,4,.7,7.3,4,9.7,4,2.9,8.3,5,13.1,6.3,4.6,1.3,8.4,0,11.8-3,6.1-5.4,10.9-12,15.6-18.5.6-.9,1.2-1.8,1.9-2.6,1.3-1.5.8-2.8,0-4.2-1.6-2.7-3-5.4-2.8-8.7.2-3.9,0-7.8.5-11.7.5-4.2,1.6-8.4,2.7-12.5,1.4-5.4,2.9-10.8,4.4-16.2.3-1,.8-2,1.3-3M127.4,118.8c-1.4-1.9-2.7-3.9-4.1-5.8-.1-.2-.4-.3-.6-.5,0,.2-.1.3,0,.5.5,1.4.4,3.2,2,4.1.2,0,.3.7.2.8-1,.8,0,1.1.3,1.7.4.7,2.4.6,1.3,2.2.1,0,.3.1.4.2.9.8,1.8,1.5,2.7,2.4.9.8,1.7,2.3,2.7,2.5,2.8.4,5.8.8,8.5.2,2.1-.5,4.1-2.2,5.7-3.9,2.5-2.7,4.5-5.9,7-8.6,1.1-1.2.9-3.8,3.6-3.6.1,0,.4-.4.4-.6,0-.2-.3-.5-.5-.6,0,0-.3.1-.5.2,0-.2,0-.4.2-.6,1.8-4.8,4.1-9.3,4.9-14.5.6-4.1,1.1-8-.8-12.1-2.4-5-7-6.5-11.6-4.1-2.6,1.3-4.8,3.2-7.1,5-2.8,2.1-5.5,4.5-8.4,6.6-3.3,2.3-6.8,4.3-10.2,6.5-1.3.8-2.2,1.5-1.6,3.4.6,1.9.4,4.1.8,6.2.3,1.8.5,3.7,1.4,5.2,2.3,3.7,5,7.1,7.5,10.7.2.3.3.7.5,1.1-.4-.1-.9-.1-1.1-.4-1.2-1.2-2.3-2.5-3.5-4.2M54.1,35.4c-1.2,2.2-2.5,4.3-3.4,6.6-.6,1.6-.5,3.4-1.1,5-1.5,4.1,0,7.6,1.8,11.1.2.3,1,.6,1.3.4.8-.5,1.5-1.2,2.1-2,2.2-3.1,4.3-6.2,6.3-9.5,1.7-2.8,3.4-5.6,3.9-8.9.3-1.6.7-3.2,1-4.8.3-2-.9-4.1-2.6-4.9-1.4-.7-3.7-.2-4.7,1.1-1.5,1.8-3,3.7-4.6,5.9M51.4,60.2c.3.5.5,1,.8,1.5.4-.2,1-.4,1.2-.8.2-.3,0-1.1,0-1.1-.6,0-1.3,0-2,.4Z"/>
    <path d="M203.3,86.3c-.1-1.7-.2-3.3-.3-4.8-.3-4.4,1.3-7.9,5-10.3,4.5-3,9-6,13.5-9,.5-.3,1.2-.8,1.7-.7.6.1,1.5.9,1.5,1.3-.8,7.3-1.6,14.7-4.7,21.5-1.8,3.8-4.2,7-8.6,8.2-2.4.6-2.2,2.2-1,3.5,1.2,1.3,2.2,2.7,3.1,4.1,2.1,3,5.1,4.6,8.5,5.2,4.8.8,9.5.6,14.2-.6,2.7-.6,5.4-.9,8.1-1.4.3,0,.6,0,.8,0,.4.2.7.4,1,.7-.3.2-.5.6-.8.7-2,.5-4,1-6.1,1.4-3.5.7-7,1.5-10.6,1.9-1.8.2-3.7,0-5.6-.2-4.7-.4-8.9-1.8-11.9-5.8-1.3-1.8-2.7-3.4-4.1-5.1-.3-.4-.5-.8-.6-1.3-.5-1.7-1.4-3-3.3-3.3-.5,0-.9-.6-1.4-.7-.9-.2-1.9-.2-2.8-.5-1.2-.4-2.3-1-3.4-1.6-1.5-.8-2.9-1.8-4.4-2.6-.4-.2-.9-.4-1.3-.5-.4,0-.9,0-1.3.1.1.4.3.8.4,1.2,1.1,3.1,2.1,6.3,3.3,9.3,1.5,3.7,3.2,7.4,4.9,11.1.7,1.5,1.7,2.9,2.6,4.4.2.3.7.6,1,.7.4,0,.9,0,1.4-.2,0-.4,0-.8-.3-1.1-1-1.8-1.5-3.6-1.7-5.6-.1-1.3-.4-2.2.7-3,0,0-.6-.9-.8-1.4-.2-.4-1.7-.9,0-1.2,0,0,0-.3,0-.3-1.2-1-1-2.4-1-3.7,0,0,.5-.1.7-.1.3,0,.6,0,.8,0-.1-.6-.2-1.2-.3-1.8-.2.1-.4.2-.6.3-1.3.7-.3-1.1-1-1,.1-.5.2-.9.4-1.4.3.2.7.3.8.5.7,1.2,1.6,2.3,1.8,3.6.7,4.8,1.2,9.6,1.8,14.4.1.9.3,1.7.4,2.6,0,.6,0,1.6-.3,1.8-.6.3-1.5.4-2.1.2-1-.5-1.9-1.2-2.7-2-.8-.8-1.4-1.8-2.1-2.7-.3-.5-.5-1-.7-1.6-.1-.3,0-.7-.2-.9-3-3.1-3.7-7.3-5.1-11.2-1.1-3.3-2.5-6.6-3.7-9.9-.5-1.4-1.1-2.7-1.7-4.1-.3-.6-1.1-1.2,0-1.7.5-.2,1.4-.2,1.8,0,3.3,2,6.6,4.2,9.8,6.3.2.1.5.3.7.4.5.3,1.1.6,1.6,1,0-.5.3-1,.1-1.4-.2-.6.1-1.8-1.2-1.7-.2,0-.7-.5-.8-.8-.4-3.7-.7-7.3-1-11,0-.3,0-.7,0-1,0-.2.2-.3.4-.4.1.2.3.3.3.5.1.6.2,1.2.4,1.7,0,.2.3.4.4.5,0-.2.3-.5.2-.7,0-1-.2-2.1-.3-3.1,0-.2-.2-.4-.3-.6-.1.2-.2.4-.4.6-.2.3-.4.5-.5.8-.2-.3-.5-.7-.5-1,.2-4.6.4-9.1.7-13.7,0-1,0-2.1,0-3.1,0-.8.6-1.5.7-2.3,0-.5-.2-1-.3-1.5-.2-.8-.5-1.6-.4-2.4.1-2.2.4-4.4.6-6.5.3-3.4.7-6.8,1-10.1,0-1.1-.2-2.3,0-3.3.3-.8,1.3-2.1,1.9-2.1,1.2.2,2.3,1.1,3.5,1.8,0,0-.4,1.1-.6,1.1-2.6-.2-2.2,2-2.4,3.3-.6,5.5-1,11.1-1.4,16.6-.1,1.7-.3,3.4-.3,5.1-.1,4.4-.4,8.9-.3,13.3,0,4.4.3,8.8.7,13.2.2,2.3.6,4.6,1,6.9.2,1.4,1.3,2.2,2.5,2.2,1.4,0,2.3.5,3.1,1.7.2.3.8.4,1.2.6-.2-.4-.2-1-.5-1.3-.6-.6-1.5-1-2.1-1.7-.5-.5-.6-1.4-.9-2-.2-.4-.3-.8-.5-1.3M211,90.4c.5-.2,1-.4,1.4-.7,5.4-5,7.1-11.5,8-18.5.2-1.5.2-3.1,2-3.8.4-.2.8-.6.9-.9.2-.9.3-1.9.4-2.9-.6.2-1.1.3-1.7.6-.7.3-1.4.5-2,.9-.2,0-.3.6-.3.7,1.3.7.2.7-.2.9-.4.2-.8.6-1.2.8-3.9,2.3-7.7,4.6-11.6,7-.4.2-.7.5-1,.9-.1.1-.2.4-.2.5.2.2.5.4.7.4.3,0,.5-.3.8-.4.2,0,.5,0,.8,0,0,.2-.1.5-.3.7-.3.6-.7,1.1-.9,1.7-.8,3.5-.2,6.9.6,10.3.6,2.4.8,2.6,3.6,2M196.9,68.1c.1.7.3,1.5.4,2.2.2-.8.5-1.7.6-2.5,0-.4-.3-.8-.4-1.2-.2.4-.4.7-.6,1.5M207.6,94.1c.2.2.3.3.5.5.3.4.5.8.8,1.2,0-.4-.1-.9-.2-1.3,0-.1-.2-.3-.2-.4,0-.4,0-.8,0-1.2-.3.4-.6.7-.8,1.3M197.2,65.7c.1.2.3.3.4.5,0-.6,0-1.3-.1-1.9,0-.2-.4-.3-.5-.5,0,.5.1,1,.2,1.8M222.2,71.7c0-.5.1-1,.2-1.4,0-.3.1-.6.2-1-.3.3-.7.6-.8,1-.1.4,0,.9.5,1.4M204.3,79c.1.6.2,1.1.4,1.7.2,0,.3-.1.5-.2-.2-.4-.3-.9-.5-1.3,0-.1-.1-.3-.3-.3M199.6,31.6c0,.2.2.3.3.5.1-.5.3-1,.4-1.5,0-.1-.3-.3-.4-.5,0,.4-.2.8-.3,1.5M220.9,76.1c0,.3,0,.7,0,1,.2-.3.3-.5.5-.8,0-.1,0-.3,0-.5,0-.3,0-.5,0-.8-.1.3-.3.6-.6,1Z"/>
    <path d="M1104.9,96.5c.8,1.3,1.6,2.6,2.4,4,1.6,3,4.3,4.6,7.3,5.8,4.6,1.8,9.4,1.8,14.3,1,3.7-.6,7.4-1.1,11.1-2.1,2.8-.7,5.5-2.1,8.2-3.1.6-.2,1.2-.4,1.8-.5.3,0,.7,0,1.1,0-.2.3-.4.9-.7,1-2.6,1.2-5.3,2.4-7.9,3.4-5.1,1.9-10.4,2.9-15.8,3.5-4.8.5-9.6.7-14.2-.7-5.5-1.7-9.1-5.2-10.8-10.7-.2-.5-.3-1.1-.7-1.6-1.7-2.2-1.2-4.6-.7-7,.3-1.7.4-3.5.3-5.3,0-.4-.9-.9-1.4-1.3-.2.5-.5,1-.5,1.6,0,2.2,0,4.3-.2,6.5,0,1-.5,2-.5,3,0,.7-.8,2.1,1.1,1.9,0,.5.2,1,0,1.4-1.2,2.5-3,4.5-5.3,6.1-3.3,2.2-6.8,3.7-10.9,3.3-3.2-.3-6.3-1.2-8.1-4.4-.7-1.2-2-.8-3-.5-5.3,1.5-10.5,3.2-15.7,4.8-5,1.4-10.1,2.6-15.3,3-3.5.3-6.9.3-10.1-.5-3.8-1-7.2-3.1-8.4-7.1-.6-2-.3-4.3,0-6.4.8-5.8,3.8-10.6,7-15.3,2-2.9,4.1-5.9,7.8-7,3.1-.9,6.1-1,8.6,1.5.6.6,1.3,1.4,1.5,2.2.2.5-.2,1.7-.5,1.8-.6.2-1.5,0-2-.5-.6-.5-.9-1.3-1.4-2-1.7-2.2-4.6-2.1-7,0-2.9,2.6-4.6,6-6.7,9.2-.4.6-.6,1.3-1,1.9-1.9,2.7-2.1,6-2.7,9.1-1.1,6.3,3.4,10.1,8.8,10.9,4.2.6,8.4.6,12.5-.4,6.8-1.7,13.6-3.6,20.4-5.4,1.7-.5,3.4-1.1,5.1-1.7.4-.2.9-1,.9-1.4-.9-4,.4-7.3,2.6-10.5,3-4.3,7.3-5.8,12.4-5.8,2.2,0,4.6-.4,6,1.8.7,1.1,1.2,2.5,1.7,3.7-.4.1-1,.5-1.3.4-1.4-.9-2.7-1.8-3.9-2.9-1.6-1.5-3.5-1.1-5.2-.8-4.2.6-6.6,3.6-7.9,7.2-2.1,6,.2,12.4,7.2,13.3,1.6.2,3.5-1,5.1-1.9,2.7-1.6,4.5-4.3,5.7-7.1,1.6-3.6,2.8-7.4,1.4-11.5-.2-.7-.3-1.4-.3-2.1,0-.4.4-.8.7-1,1.6-.9,4,.2,4.3,2,.5,2.6,1.1,5.2,1.7,7.8.4,1.8.9,3.5,1.3,5.3-1.4-.1-1.7-.9-1.7-2.1,0-1.2-.4-2.3-.7-3.5,0-.3-.5-.5-.8-.8-.2.4-.4.8-.5,1.2,0,.7-.1,1.5,0,2.3.2.8.5,1.6.8,2.4.2.4.5.8.8,1.2.5.7,1,1.5,1.6,2.2.2-.9.3-1.8.5-2.7M1024.2,102.1c.3.7.5,1.5.8,2.2,0,0,.2-.2.2-.2-.3-.7-.6-1.4-.8-2.2,0,0-.1,0-.2-.2,0-1.7,0-3.3,0-5,0-.6-.2-1.1-.3-1.7-.2.5-.6,1-.6,1.4,0,1.8-.9,3.8.9,5.5M1074.7,100.6c.5.3,1.1.7,1.7.9,0,0,.5-.3.5-.4-.1-.7-.3-1.5-.5-2.2-.3-1.7-.6-3.4-.8-5.1,0-.5-.2-1.1-.2-1.6-.3.5-.5,1-.8,1.5-.1.3-.3.6-.3.9,0,2,.2,3.9.5,6M1029.8,82.6c.1-.4.3-.8.4-1.3-.4.3-.8.6-1.2,1-.1.1-.1.4-.1.6,0,.1.1.2.2.3.2-.2.3-.3.6-.6M1076.3,89.5c0,.2,0,.3.1.5.5-.6,1-1.2,1.5-1.8,0,0,0-.1-.1-.2-.5.4-1,.8-1.5,1.5M1024.2,93.3c1.2.5.5-.5.7-.9,0-.2-.1-.4-.2-.6-.2.4-.3.8-.5,1.5Z"/>
    <path d="M367.5,83.2c1-3.9,2-7.7,3.1-11.5.8-2.7,3-4.3,5.3-2.4,1,.9,1.8,2.4,2.1,3.7.3,1.5-.1,3.2-.2,4.8-.2,3.1-2.1,5.5-3.8,7.9-.9,1.2-2.1,2.2-3.2,3.2-1.3,1.2-2.2,2.5-2.2,4.4,0,.3-.2.7-.3,1,0,.1-.3.2-.4.3,0-.1-.2-.2-.2-.4,0-.3,0-.6,0-.8-.2-.7-.4-1.5-.7-2.2-.8.5-2,.8-2.2,1.5-.6,1.7-2.1,2.1-3.4,2.6-2.2.8-4.5,1.5-6.8,2.1-1.5.4-3,.5-4.5.7-3.4.5-6.7.3-10-.7-5.4-1.7-10.5-4.1-15.1-7.6-4.7-3.7-7.1-8.8-9.3-14.2-1.5-3.7-2.6-7.4-3.8-11.2-.1-.5-.2-1-.2-1.5-.1-3.9-.2-7.9-.4-11.8-.2-3.9.3-7.8,1.3-11.6,1.7-6.2,6.2-9,11.8-10.6,2.5-.7,5-1.1,7.6-1,5.8,0,10.9,1.9,15.4,5.6,4.5,3.7,7,8.4,7.5,14.2.2,1.9.7,3.8,1.4,5.5.5,1.5-1,1.4-1.3,2.2-.5-.5-1.2-.9-1.4-1.5-1.4-4.5-2.5-9.1-4.2-13.4-1.8-4.5-5.3-7.4-9.8-9.3-3.4-1.5-6.8-2-10.4-1.6-5.4.7-10.6,1.9-13.1,7.6-.9,2.2-1.4,4.6-1.8,6.9-.4,3.1-.8,6.2-.7,9.2.3,4.3.9,8.6,1.7,12.9.9,4.7,2.5,9.1,4.7,13.4,2.6,4.9,6.5,8.4,11.1,11.2,4.1,2.5,8.7,4,13.4,4.7,2.7.4,5.5.1,8.2-.3,4.4-.7,8.5-2.2,12-5,.7-.6,1.3-1.6,1.6-2.5.5-1.5.7-3,1.1-4.7M369.7,81.9c-.3.5-.7,1-.8,1.5-.5,2-.8,4-1.2,6,0,.3,0,.7,0,1,.2-.2.5-.4.7-.7.6-.9,1.1-1.8,1.7-2.7.5-.7,1.4-1.2,1.8-1.9.5-.9.8-2,1.1-3.1.7-2.6,1.4-5.1,1.9-7.7,0-.3-.5-.8-.7-1.2-.4.4-1.1.6-1.2,1.1-.6,1.9-.9,3.9-1.4,5.9-.3,1.1-.7,2.1-1.1,3.1,0,.2-.5.3-.8.4,0-.3-.2-.5-.1-.8,0-.2.2-.5.2-.9M315.4,72.8c.3.5.5,1,.8,1.5,0-.5,0-1-.1-1.4,0-.3-.2-.5-.3-.7-1.1-2.9-1.9-5.9-2.1-9,0-.8-.3-1.7-.5-2.5,0,0-.3,0-.3,0,0,.9-.3,1.9-.2,2.8.4,3.2,1.5,6.1,2.7,9.3M372.8,72.7c.6-.2,1.3-.4,1.9-.7.3-.1.6-.3,1-.5-.2-.3-.4-.7-.7-.8-.6-.2-1.5-.4-1.7,0-.6.6-.9,1.5-1.3,2.3.2,0,.3-.1.8-.2M352.3,44.8c0,.6,0,1.2.2,1.8,0,.2.4.4.7.6,0,0,.3-.2.3-.3-.5-2-1.1-3.9-1.7-5.9,0-.1-.3-.2-.5-.3,0,.2-.1.4,0,.6.3,1.1.6,2.2,1.1,3.5M312.3,56.2v1.4c.2,0,.5-.2.5-.2,0-.5-.2-.9-.5-1.2M313,51.1c0-.3-.2-.6-.3-.9-.1.1-.4.2-.4.3,0,.5.1.9.2,1.4.1-.2.3-.3.4-.9M371.6,75.6c-.2-.1-.5-.2-.7-.3l-.2,1.2c.2-.2.5-.4.9-.8M312.8,53.3l-.6-.7c-.1.1-.2.2-.3.3.2.2.5.4.9.4M354.5,50c-.2,0-.5.1-.7.2,0,.2.2.4.3.7.1-.2.3-.3.4-.9M316.7,75.6s0,0-.1-.1c0,0-.1,0-.1,0,0,.3,0,.6,0,.9,0,0,.3,0,.4,0,0-.2,0-.4-.2-.8Z"/>
    <path d="M488.1,107.8c-1.1.5-2,1-3,1.4-.2.1-.5.1-.7.2,0-.2.2-.5.2-.7,0-.6,0-1.2,0-1.7,0-.4.3-1,.6-1.2,2.9-1.7,6-3,9.3-3.8,2.8-.7,5.5-1.5,8.2-2.4.6-.2,1.2-1.3,1.2-2,0-2-.2-3.9-.3-5.9-.2-2.7.4-5.1,2.3-7.2,2.9-3.1,5.7-6.4,8.6-9.5.5-.5,1.7-1.1,2.1-.8.9.5,2,.9,2,2.5.2,5.7-1.9,10.6-5.2,15.1,0,0-.2.2-.2.2-.7,3.2-3.3,5.2-4.8,7.9-.2.4-.5.8-.7,1.3-.2.4-.3.8-.4,1.2-.2-.3-.4-.6-.6-.7-.1,0-.6.1-.6.2,0,2.7.2,5.3,1.5,7.8.2.3.5.6.8.8.4.2.8.3,1.3.5-.2-.4-.4-.8-.6-1.2-.7-1.1-1.4-2.2-1.9-3.5-.2-.5.3-1.2.5-1.8.3.5.7,1,.8,1.5.3,1.9,1.3,3,3,2.9.4,0,.9-.2,1.1-.5,3.6-3.9,7.3-7.7,10.7-11.7,2.6-3.1,4.8-6.5,7.2-9.8,1.9-2.6,3-5.6,4-8.7,1.2-3.5,2.6-6.9,4.1-10.2.2-.4,1.4-.7,1.7-.5.6.5,1.4,1.5,1.2,2.1-.8,2.9-1.8,5.7-2.9,8.5-1.2,3-1.8,6-2.2,9.2-.4,3-1.1,5.9-1.8,8.8-.4,1.6,1.2,5.2,2.7,5.8.5.2,1.4,0,1.7-.4.9-1.1,1.7-2.4,2.2-3.7,1.3-3.5,2.5-7,3.8-10.5.1-.3.6-.4.9-.6,0,.3.2.6.2.9,0,.5,0,1.1-.1,1.6-.5,2.7-.9,5.4-1.8,8-1,2.7-2.4,5.4-5.1,6.9-3.3,1.9-5.6,1.4-6.8-2.6-1-3.6-.2-7.2.7-10.6.3-1.2,1.5-2.1,1.8-3.3.3-1.4.2-2.9.2-4.4,0-.1-.2-.2-.3-.3-.1.1-.3.2-.4.4-.2.5-.3.9-.3,1.4-.1.7.4,2-1.3,1.4-.1,0-1.2,1.5-1,1.7,1.3,1.6-.3,2.6-.9,3.4-4.8,6.7-9.7,13.4-15.9,19-1.2,1.1-2.8,2-4.3,2.2-2.8.5-4.9-1.6-5.6-4.9-.3-1.3-.5-2.5-.6-3.8,0-.6.3-1.2.5-1.8.5-1.1,1.4-2.1,1.4-3.1,0-1.3.8-1.9,1.5-2.9,1.1-1.7,2.1-3.4,3.1-5.2,1.3-2.5,2.5-5.1,3.8-7.6.2-.3.5-.6.7-.9,0,.3.3.7.2,1-.1.7-.5,1.4-.6,2.1,0,.3.2.6.3,1,.2-.2.4-.4.5-.7.6-1.8,1.4-3.7,1.7-5.6.2-1-.4-2.2-.9-3.3,0,0-1.6,0-2,.5-2.1,2.4-4.1,5-6.2,7.4-.9,1.1-2.4,1.6-2.6,3.3-.1,1.1-.3,2.1-.5,3.2,0,.2.1.4.2.5.1-.2.4-.3.4-.5.4-3.3,2.7-5.6,4.5-8.2.5-.7,1.4-1,2.1-1.5.1,0,.4,0,.6.1-.1.2-.2.5-.4.7-1.2,1.6-2.4,3.1-3.6,4.6-1.2,1.5-1.6,3.2-1.8,5,0,.4,0,.8-.3,1.1-.1.3-.5.4-.7.6-.1-.2-.3-.5-.4-.7-.1-.3-.2-.6-.3-1-.1.4-.3.7-.3,1.1,0,1.8,0,3.6,0,5.3,0,.7-.5,1.4-.8,2-.2.5-.5,1-.9,1.5-.2.2-.4.5-.7.6-5.1,1.3-10.2,2.6-14.9,5.5M535.6,79.5c0,.3,0,.6-.1.9.2-.2.6-.3.7-.5.6-1.6,1.1-3.1,1.6-4.7,0-.1,0-.3-.1-.4-.2.1-.4.3-.5.5-.5,1.4-1,2.8-1.6,4.3M538.6,73.7c.3-.7.6-1.4.8-2.2,0-.1-.1-.4-.2-.5,0,0-.3,0-.3,0-.2,1-.3,1.9-.3,2.7M535.4,102.1c-.1-.1-.2-.2-.3-.4-.2-.2-.4-.5-.6-.8,0,.4-.2.8,0,1.1,0,.3.4.5.7.7.3.2.6.3.9.4-.1-.3-.3-.6-.6-1.1M507.6,97.5c0,.2,0,.5,0,.7.4-.4.8-.8,1.1-1.2,0,0-.3-.3-.4-.5-.2.3-.4.5-.8.9M535.2,80.9c-.2.3-.3.6-.5.9h.4c0-.2.1-.4,0-.9Z"/>
    <path d="M945.8,96.2c2.6-5,5.2-9.8,7.8-14.6,1.4-2.6,3-5.1,4.4-7.7.6-1.1,1.5-1.4,2.4-1.1.9.3,1.4,1,1.4,2.2,0,3.5.2,6.9,0,10.4-.4,5.3-1.1,10.7-1.6,16-.1,1.1,0,2.3,0,3.4,0,1.3-.3,2.5-.3,3.8,0,.4.4.9.6,1.3.5-.3,1.1-.4,1.3-.8,2.1-2.9,4.1-5.8,6-8.7,1.7-2.6,3.3-5.2,4.9-7.8,2-3.4,3.9-6.8,5.8-10.2.9-1.6,2.3-.9,3.4-.9.2,0,.7,1.2.6,1.8-.3,3.2-.8,6.4-.9,9.6-.1,3.1,0,6.3.3,9.4.3,2.8,3.4,4.3,5.8,2.9,2.5-1.4,4.8-3.2,7.2-4.7.9-.6,1.9-1,2.8-1.3.3-.1.8.2,1.2.3-.2.4-.2.9-.5,1.2-1.7,1.4-3.5,2.8-5.3,4-3,1.9-6.1,3.5-9.8,3.4-3.8-.1-5.4-2.5-5.6-5.5-.2-2.6,0-5.2,0-7.8,0-.4.3-.9.5-1.3,0,0,.8,0,.8.1,0,1.2.1,2.4.2,3.7,0,2.8-1,5.8,1.7,8,.2.2.5.2.8.3-.1-.3-.2-.6-.3-.8-2.2-3.2-1.4-6.7-1-10.1.2-1.5,0-3.1-.1-4.6,0-.2-.2-.5-.1-.6,1.3-1.5.9-3.5,1.1-5.2,0-.2,0-.5-.2-.6-.1,0-.4,0-.6,0-.1,0-.4.3-.3.3.4,2.2-1.8,2.5-2.7,3.7-.5.7-.5.6.3,1,.2,0,.5.8.4,1-2.7,4.3-5.4,8.7-8.2,12.9-2.1,3.2-4.1,6.7-7.6,8.7-1.1.6-2.7.8-4.1.7-.6,0-1.5-1.3-1.5-2.1-.3-4.5.2-9,.9-13.5.5-2.9.8-5.8,1-8.8.1-1.8,0-3.7,0-5.5,0-.2.3-.4.4-.7.2.2.5.5.5.7.2.5.2,1.1.3,1.6.1-.6.3-1.3.3-2,0-1.3,0-2.5.1-3.8,0-.5.2-1.1.2-1.6,0-.4-.3-.8-.4-1.2-.4.3-.8.5-1.2.8-.6.5-1.2,1.1-1.7,1.7-.3.4-1.4.9-.2,1.7.2.1,0,1-.2,1.4-1.5,3.2-3.1,6.3-4.7,9.5-1.6,3.2-3.2,6.4-4.8,9.6-.3.6-.9,1.3-1.5,1.5-.7.2-1.6-.2-2.4-.3.2-.7.4-1.4.7-2,.5-.9,1-1.7,1.5-2.8M958.8,105.2c0-.7,0-1.4,0-2,0-.2-.2-.3-.3-.5-.1.1-.4.2-.4.4,0,2.1,0,4.1,0,6.2,0,.3.4.5.6.8.1-.4.4-.8.4-1.2,0-1.1-.2-2.2-.3-3.6M959.8,92.3c-.2,0-.5,0-.7,0,0,.7,0,1.4.1,2.1,0,0,.2,0,.3,0,0-.6.2-1.2.2-2.2Z"/>
    <path d="M408.6,107.7c-.4.9-.7,1.8-1.2,2.5-2.1,3.1-4.7,3.4-7.3.7-1.2-1.2-2.9-2.1-3.4-4,0-.4-.4-1-.3-1.2,1-1.3-.3-1.7-.7-2.6-.6-1.2-1-2.6-1.2-3.9-.3-1.7-.4-3.4-.4-5.1,0-.7.9-1.4.9-2.1,0-1.1-.2-2.3-.5-3.3-.5-1.7-.6-3.1.6-4.7,1-1.3,1.4-3,2.1-4.6,0-.1,0-.3,0-.5-.1,0-.3.1-.4.2-1.1,1.3-2.4,1.8-4.1,1.1-.2-.1-.6,0-.9.2.1.2.2.5.4.7,2,3.3,1.6,5.6-.6,8.9-1,1.4-1.2,3.5-1.8,5.2-.2.6-.5,1.3-.7,1.9,0,.2.2.5.3.8.1-.2.3-.4.4-.6.7-1.5,1.3-3.1,2-4.6.1-.2.4-.4.6-.6,0,.3.2.6.1.9-.5,2-1.3,4-1.6,6.1-.8,4.9-.3,9.5,3,13.5.2.2.2.6.3.9-.4,0-.8.2-1.1,0-2.8-2.1-5-4.6-5.6-8.2-1.1-6.4,1.6-12,3.9-17.7.5-1.2.4-2.9.1-4.2-.3-1.5-1.3-2.9-1.8-4.3-.2-.6-.1-1.4-.2-2.1.8,0,1.7,0,2.5,0,.4,0,.8.5,1.2.8,1.6,1.4,2.3,1.3,3.3-.7,1.5-3.1,4.1-4.5,7.5-4.4,2.7,0,4.6,1.8,6.4,3.7,1.9,2.1,2.9,4.7,3.2,7.3.2,1.4.8,3.1-.3,4.8-.5.7.1,2,.2,3.1.2,3.3-1.5,6.2-2.2,9.3-.5,2.3-1.5,4.5-2.3,6.8M405.5,107.8c.4-1.2.9-2.5,1.3-3.7,2.2-5.6,4.1-11.3,3.6-17.4-.3-3.7-1.1-7.2-4.2-9.9-1.6-1.4-3.7-1.4-5.3,0-2.6,2.4-3.8,5.6-5.2,8.7-.2.4-.4.9-.3,1.4.5,2.7,1,5.5,1.5,8.2.4,2.2.7,4.5,1.2,6.7.6,2.5,1.2,5,2.9,7,1.9,2.2,3.1,1.9,4.4-1M389.3,102.5c0-1.2,0-2.3,0-3.5,0-.2-.2-.3-.3-.5-.1.1-.3.3-.3.4,0,2.2,0,4.5,0,6.7,0,.1.3.2.4.4,0-.2.3-.3.3-.5,0-.9,0-1.8,0-3.1M398.7,77.1c.5-.5,1-1,1.5-1.5-.1,0-.4-.2-.4-.1-.6.5-1.4.9-1.9,1.5-.3.3-.2,1-.3,1.5.3-.4.6-.7,1.1-1.3M412.5,90.6c-.2-.3-.4-.5-.6-.8,0,.5,0,1.1,0,1.6.2-.2.4-.3.6-.8Z"/>
    <path d="M1003.7,76.1c3,1.1,4.2-.1,4.1-2.8,0-3.3.3-6.5.3-9.8,0-4-.4-8-.7-12,0-.4-.4-.8-.6-1.1-.3-.5-.8-1-1-1.6-.1-.4.1-.9.2-1.4.3.3.5.6.8.9.4.3.9.6,1.4.8.2-.5.5-1,.6-1.5.5-2-.8-3.6-1.3-5.4-1.1-3.5-2-7-3.1-10.5-.2-.5-.7-.9-1-1.3-.2.2-.6.5-.5.6.7,2.5,1.2,5.2,2.4,7.5.8,1.6,1.1,3,.9,4.6,0,.3-.3.6-.4.9-.2-.3-.5-.6-.6-.9,0-.7,0-1.4,0-2,0-.4-.2-.8-.3-1.2-.3.3-.7.7-.9,1-.1.2.1.5.1.8,0,.5,0,1,0,1.6-.4-.5-1.1-1-1-1.4.3-4.2-1.3-8.1-2.1-12.1,0-.3.2-.9.4-1,1-.2,2-.4,3-.2.5.1,1.1,1,1.3,1.6,1.5,5.3,3.2,10.5,4.4,15.9.9,3.9,1.1,7.9,1.4,11.9.3,3.6.3,7.3.4,11,0,.3-.2.7-.3,1-.1-.3-.3-.6-.4-.9-.4-2.9-.7-5.8-1-8.7-.1-1,0-2.1,0-3.1,0-2-.2-4-.4-6,0-.2-.3-.4-.5-.6-.1.2-.3.4-.4.7,0,.3-.2.6-.2.9,0,1.3.2,2.6.3,3.9.2,3.5.6,7.1.6,10.6,0,2.5-.3,5-.7,7.5-.4,2.4-.3,2.5,1.9,2.5,2.7,0,5.4-.2,7.9-1.1,1.5-.5,3-1.2,4.5-1.8,1.3-.5,2.6-1.1,4-1.5.3,0,.7.2,1,.3-.2.3-.3.7-.5.8-4.4,2.6-8.9,5-14,5.5-1.4.1-2.9-.1-4.3-.2-.3,0-.6,0-.8,0-4.3,1.1-8.2-.4-12.2-1.7-1.6-.5-3.2-.9-4.7-1.4-.9-.3-1.8-.6-2.6-1.1-1.7-.9-3.3-1.9-4.9-3-.7-.5-1.1-1.3-1.6-1.9.3-.3.7-.8,1-.8,1.3.1,2.7.1,3.8.6,4.9,2.2,9.6,4.7,14.8,6.1.4.1.8.2,1.4.3Z"/>
    <path d="M1212.2,67.9c-2.1,6.4-4.3,12.6-6.4,18.8-.2.5-.3,1.1-.4,1.6-.1-.6-.5-1.3-.3-1.9.8-3.6,1.7-7.2,2.7-10.8,1.8-5.9,3.9-11.7,5.5-17.6,1.7-6,3-12.1,4.2-18.2.7-3.4.8-6.9,1.1-10.3.2-2.2.4-4.5.3-6.7-.2-5.4-.6-10.7-1-16.1-.1-1.7-.7-3.3-1-5,0-.6-.3-1.7.8-1.6,1,0,2.5-.9,3,.9.4,1.6.8,3.1.9,4.7.4,5.9,1,11.7,1,17.6,0,4.9-.3,9.9-1.9,14.7-1.3,4.1-1.9,8.4-3.2,12.5-1.1,3.3-1.8,6.8-2.7,10.1-.6,2.4-1.8,4.7-2.7,7.2M1220,4.7c-.2-.9-.4-1.8-.6-2.6,0-.2-.5-.3-.7-.5,0,.3-.1.6,0,.9.2.8.6,1.5.6,2.3.4,5.9.7,11.7,1,17.6,0,.7-.3,1.5-.3,2.2,0,1.4,0,2.8,0,4.2,0,.2,0,.4,0,.6.2-.1.4-.2.5-.4.8-.8.2-1.9.4-2.8.8-2.9.4-5.8.2-8.7-.3-4.2-.9-8.3-1.3-12.9M1219.7,34c.1.2.4.5.4.5.6-.3,1.1-3.6.6-4.2,0-.1-.3-.2-.4-.2-.1,0-.3.2-.3.3-.1,1.1-.2,2.2-.4,3.6Z"/>
    <path d="M1208.4,102.3c.2.8.4,1.6.8,2.2.2.3,1,.4,1.3.2.8-.4,1.3-1.2,2.1-1.6.5-.3,1.1-.2,1.7-.2-.2.4-.3.9-.5,1.3-.4.7-1,1.4-1.4,2.1-.8,1.2.3,1.7.9,2.3,0,0,.9-.6,1.2-1.1.6-1,1-2.1,1.7-3,.4-.5,1.2-.6,1.8-.9,0,.5,0,1-.2,1.5-.9,1.9-1.8,3.8-2.9,5.6-.7,1.1-1.8.7-2.8,0-1-.7-2-1.5-3.1-2-2.3-.9-2.3-3.1-3.1-4.8-.4-.9-.5-1.9-.7-2.9,0-.2.3-.5.3-.8,0-.2,0-.6-.2-.7-1.2-.3-.8-.8-.3-1.5.9-1.1,1.7-2.2,2.5-3.4,1.9-2.8,3.8-5.5,7.2-6.6,3.3-1,6.5.6,6.5,4.6,0,3.4-.6,6.4-2.1,9.4-.2.4-.7.7-1,1,0-.5-.3-1-.2-1.5.5-2.3,1.1-4.7,1.5-7,.1-.9,0-2-.5-2.8-.4-.7-1.3-1.7-1.9-1.7-1,0-2.1.6-3,1.2-.2.2,0,1.2.2,1.8.3.5.8.9,1.3,1.3,2.1,2.1,2.4,3.9,1,6.5-.2.3-.2.8-.5,1-.3.2-1,.5-1.1.3-1.7-1.9-4.6-1.9-6.6,0,.1-3,.2-3.1,3.1-3,1.2,0,2.3.9,3.8.1.5-.3,1-.3.8-.9-.1-.5-.3-1.4-1.3-.8-.3.2-.7,0-1,0-1.4,0-2.7-.3-4.1-.1-1.9.2-3.2,2.8-2.4,4.5,0,.2.6.1,1,.2M1210.3,96.2c.6-.3,2.3.2,1-1.4,0,0,.1-.3.2-.5,0,0,.3,0,.3,0,.1.2.2.5.3.7.3.3.7.5,1,.8,0-.3,0-.7,0-1,0-.9,0-1.7,0-2.6,0-.2-.2-.5-.3-.7,0,0-.4.1-.6.3-.8.8-1.7,1.5-2.3,2.4-.3.4,0,1.3.4,1.9M1210,106.4c-.2,0-.3,0-.5.1.4.4.8.8,1.2,1.2.2-.3.5-.6.7-.8-.4-.2-.8-.3-1.5-.5Z"/>
    <path d="M181.9,42.4c.3-.9.6-1.6.8-2.4.8.3,1.8.4,2.3,1,1.2,1.3,2.2,2.8,3.3,4.2.1.2,0,.7-.2,1,0,.1-.7,0-.9-.2-.4-.4-.7-1-1.1-1.4-.2-.3-.6-.4-.9-.6-.2.3-.4.7-.5,1-.2,1.6-.3,3.2-.4,4.8-.1,2.8-.2,5.6-.3,8.4-.1,3.9-.1,7.7-.4,11.6-.3,4.8-.6,9.5-1.4,14.2-.9,5-.9,9.9-1,14.9,0,.6-.4,1.1-.7,1.6-.4-.6-1.2-1.1-1.3-1.7-.1-.9.4-1.8.4-2.7,0-.9-.5-1.9-.7-2.8,0-.3,0-.6.1-1,.1.2.3.5.4.7.1.1.3.2.5.3,0,0,.2-.2.2-.2-.2-.8-.4-1.5-.6-2.3-.2-.6-.8-1.3-.7-1.7.7-1.6-.2-3.3.9-4.9.6-.8,0-2.4.1-3.6.3-3.5.6-7,1-10.5,0-.5.6-.9.9-1.4.2-.2.3-.5.4-.7,0,0-.4-.3-.5-.3-1.4.9-.9-.5-.8-.8.3-4.9.7-9.8,1-14.7.2-3.3,0-6.6,0-10M183.2,43.2c.2.4.4.7.6,1.1.3-.3.8-.7.7-1,0-.5-.6-.9-.9-1.3-.1.3-.3.6-.4,1.2Z"/>
    <path d="M638.6,95.8c.6-4.1,1.1-8,1.7-11.9.7-4.2,1.6-8.3,2.3-12.5.4-2.2.4-4.5.7-6.7.3-2.5.7-4.9,1.1-7.4.5-3.3,1-6.6,1.6-9.9.5-2.9,1.1-5.9,1.8-8.8.3-1.3,1.4-1.3,2.4-1.1.1,0,.3.6.3.8-.9,3.8-2,7.6-2.9,11.4-.6,2.5-.8,5.1-1.2,7.7-.4,2.7-.7,5.5-1.1,8.2-.3,1.9-.6,3.8-.9,5.7-.4,2.2-.7,4.3-1.1,6.5-.5,3-1.1,5.9-1.6,8.9-.7,3.9-1.5,7.8-2.2,11.7-.2.9-.4,1.9-.5,2.9,0,.3.3.6.4.8.2-.2.4-.4.6-.7.7-1.7,1.4-3.4,2.1-5.1.2-.4.4-.8.6-1.1.1-.1.4-.1.6-.2,0,.2-.1.3-.2.5-.7,1.8-1.3,3.7-2.1,5.4-.6,1.5-1.3,2.9-2,4.3-.1.3-.5.5-.8.7-.2-.3-.5-.5-.5-.8.3-3.1.7-6.2,1-9.5Z"/>
    <path d="M549.4,59.7c.5-.4,1.1-.9,1.6-1.3-.2.8-.2,1.7-.6,2.4-.7,1.1-1.6,2.1-2.6,3-.3.3-1.1.4-1.4.2-1-.5-1.9-1.2-2.8-1.7-.1,0-.6.3-.6.3.3.7.6,1.4.9,2,.5.9,1,1.7,1.4,2.6,0,0-.4.4-.4.3-.7-.6-1.6-1.2-2-1.9-2.1-3.4-3.9-7-4-11.1,0-2.3.4-4.6,1-6.9.8-3.1,4-3.9,7-1.7,1.7,1.3,3.7,2.8,4.5,4.7.8,1.9.3,4.3.3,6.5,0,.2-.4.3-.6.5,0-.2,0-.4,0-.6,0-1.8.7-3.6-.3-5.4,0-.2-.2-.3-.4-.4-.1.2-.3.3-.3.5-.2,2.6-.5,5.2-.8,8-.3.5-.4.8-.6,1.2,0,0,.1.1.2.2.2-.4.3-.8.5-1.2,0,0,0-.1,0-.2M544.3,59.2c0,.2.1.4.2.6.4.5.9.9,1.3,1.3.4-.5.9-.8,1.2-1.4.6-1.4,1-2.9,1.5-4.3,1-2.9-.7-5.2-2.9-6.6-1.2-.8-2-.4-2.3.9-.8,3.2-1.1,6.3,1,9.4M544.4,47.5c.1-.3.5-.8.4-.9-.4-.5-2.6,0-2.9.6-1.5,2.6-1.5,5.5-1.6,8.3,0,1.2,1,2.5,1.6,3.7.1.3.6.4.9.5-.1-.3-.2-.7-.4-.9-1.1-1.4-1.3-2.9-.9-4.5.2-.9.2-1.9,0-2.8-.3-1.5,1-3.6,2.9-4M548,61.6c-.2.2-.4.5-.7.7.1,0,.4.1.4.1.2-.3.3-.7.2-.8Z"/>
    <path d="M369.5,163.6c0,2.8.4,5.4-.4,8,0,.2-.3.4-.4.5,0-.2-.3-.5-.2-.7,0-.6.3-1.2.3-1.7,0-.2-.4-.4-.6-.6-.1.3-.3.5-.3.8-.2,1.3-.3,2.7-.6,4-.1.4-.9.6-1.3.9,0-.6-.2-1.2-.1-1.7.2-1.3.4-2.6.7-4,.3-1.3.7-2.6,1-3.9.1-.8,0-1.6,0-2.4,0-1.5,0-3,0-4.5,0-.2.6-.4.9-.4.4,0,.7,0,1.1,0-.2-.7-.5-1.5-.7-2.2-.2.3-.4.8-.6,1-.4.4-.8.8-1.3.9-1.2.5-2.4,1.3-3.7.3-.2-.1-.3-.3-.4-.5.2,0,.4-.2.6-.2,2.7.2,3.5-1,3.2-3.7-.3-2.1,0-4.3,0-6.4,0-2.5-.3-5.1-.4-7.6,0-.6.4-1.1.4-1.7,0-.5,0-1.1,0-1.6-.3.1-.7.3-1,.4-.1,0-.3,0-.3,0,0-.3-.1-.5-.1-.8,0-1.6.1-3.2.2-4.9,0-.4,0-.8.1-1.2.3.3.8.7.8,1,0,.7.1.8.7.3.2-.2.5-.3.7-.5.1.4.3.8.3,1.2,0,.6-.4,1.2-.2,1.6.9,1.8.4,3.7.2,5.6-.1,1.4,1.1,3-.2,4.4,0,0,0,.4.1.4.8.5,2.2,1,0,1.5,0,.2,0,.7.1.7,1,.1.9,1.2,1.3,1.6,1.5,1.3.8,2.7.7,4.1,0,.3.1.6,0,.8,0,.2-.1.5-.3.7,0,0-.4-.1-.6-.2-.3,0-.6-.1-.8,0-.1,0-.2.3-.3.5.3,0,.6.3.9.2.9-.1,1.1.2,1.3,1.1.3,1.6.8,3,0,4.6-.4.7-.1,2.1.3,2.9.6,1.1-.2,1.1-.7,1.7M369.2,161.1c-.3-.4-.5-.8-.8-1.2-.2.2-.6.4-.5.6.2.7.5,1.4.7,2.1,0-.1.2-.2.3-.3,0-.3.1-.6.4-1.1M367.8,147.4l-.4-.5c0,.2-.2.4-.3.7.2,0,.5.1.7-.2Z"/>
    <path d="M412.7,71.7c-3.9-1.9-7.7-3.5-11.5-5.5-.6-.3-1.3-1.9-1.1-2.5.7-1.3,1.9-.7,3-.2,0,0,.2.2.2.2,1.4.8,2.8,1.8,4.2,2.5,4.9,2.4,10,4.3,15.5,5,3,.3,6.1.5,9.1.7.3,0,.6,0,.8,0,.6.2,1.2.6,1.8.9-.5.3-1,.7-1.5.8-4.1.8-8.2,1.4-12.3-.2-1.2-.5-2.7,0-4-.3-1.5-.3-2.9-.8-4.5-1.4M416.7,71.3c-.2-.1-.5-.2-.7-.3,0,.2-.1.5-.1.5.4.1.8.2,1.2.4,0-.2,0-.4-.5-.6Z"/>
    <path d="M268.7,74.7c.7-2.7,2.2-4.4,4.8-5,1.2-.3,2.4-.3,2.8,1.2.7,2.5,1.9,4.9,1.7,7.7-.2,2.9-1.5,5.4-2.6,7.9-.3.6-1.6.6-2.5.9-3.2,1-3.1.9-4.1-1.9-1.3-3.5-1.2-7.1,0-10.8M272,75.4c.2-.2.5-.6.7-.6.5,0,1,0,1.5.1-.3.3-.6.5-.8.8-1,1.5-2.8,2.6-2.3,4.9.4,1.7.4,3.6.7,5.3,0,.3.5.7.9.7.2,0,.7-.4.8-.6.5-2.6.9-5.3,1.4-7.9,0-.3.4-.6.5-.9.2.3.3.7.5,1,.2.6.3,1.1.4,1.7.2-.6.4-1.3.6-1.9,0-.3.1-.7,0-1-.9-1.7-1.9-3.3-1-5.3,0,0-.7-.6-1-.6-2.1.4-4,1.2-4.4,3.7-.1.8-.2,1.5-.3,2.3.6-.5,1.1-.9,1.8-1.6M269.9,84.9c.1-.3.3-.7.3-1,0,0-.3-.2-.4-.3,0,.4,0,.7,0,1.3Z"/>
    <path d="M1007.5,105.7c0-.6.2-1,.3-1.4.3.4.7.7.7,1.1-.2,3.1-.4,6.2-.6,9.3,0,.6-.1,1.2,0,1.8.4,1.7-1.6,4-3.3,3.5-.5-.1-1.1-1.1-1.1-1.7,0-2.7.4-5.4.6-8.1.1-1.5.2-3,.3-4.5.4-4.4.8-8.7,1.4-13,.5-3.7,1.1-7.4,1.7-11,0-.4,0-.8,0-1.1.2.4.5.9.7,1.3,1,2.9-.3,5.6-.6,8.3-.3,2.6-.8,5.3-1.1,7.9-.5,4.6-1,9.3-1.4,13.9-.1,1.6,0,3.3,0,4.9,0,.4.3.7.5,1.1.3-.3.7-.6.8-1,.1-.7,0-1.4,0-2,.1-.8.5-1.5.7-2.3.1-.4.3-.7.3-1.1,0-1.9,0-3.8,0-5.8Z"/>
    <path d="M270.1,112.9c.5,1.2.4,2.6,1.9,3.1.3,0,.5.9.4,1.2,0,.2-.7.4-1.1.4-1.4,0-2.9,0-4.3,0-.6,0-1.1.3-1.6.4,0-.8,0-1.6.1-2.3.3-1.3,1.1-2.4,1.3-3.7.2-1.3,0-2.7-.3-4-.9-3.1-.3-6.1.5-9,.3-1,1.6-1.7,2.4-2.5.2-.2.5-.2.8-.2,0,.3,0,.6,0,.8-.7,1.9-1.5,3.7-2.1,5.6-.1.3,0,.7,0,1,0,.7.2,1.7-.2,2-1.3,1.1-.4,2.1,0,3.2.1.3.2.6.4.9.1.3.3.7.4,1,.2-.4.6-.9.5-1.2-.5-1.7,1.5-1.4,1.8-2.4,0,0,.2,0,.2,0,0,.3,0,.5,0,.8-.3,1.6-.6,3.1-1,4.9M267.2,114.9c.1.3.2,1,.4,1,.9,0,1.9,0,2.8,0-.3-.7-.5-1.5-.8-2.2-.2-.5-.4-1-.6-1.5-.1-.2-.3-.4-.5-.6-.2.2-.4.4-.5.6-.3.9-.5,1.7-.9,2.8Z"/>
    <path d="M140.6,65.3c-1.2-3.5-2.4-6.9-3.3-10.3-.9-3.7-1.4-7.6-2.1-11.4,0-.5,0-1,.1-1.5.7,0,1.6-.4,1.9.8.3,1.1.8,2.1,1,3.2.5,2.9.8,5.9,1.4,8.8.7,3.2,1.6,6.3,2.3,9.4.2.7.3,1.4.4,2.2-.6-.3-1.2-.6-1.9-1Z"/>
    <path d="M155.9,56.1c.3,2.1.6,4.2.8,6.3,0,.9,0,1.9.1,2.9-.5-.8-1.2-1.5-1.5-2.4-1.2-4-2.2-8.2-3.5-12.2-.7-2.1-1.8-4-2.7-6-.3-.6-.5-1.4-.3-1.9.2-.4,1.4-.7,1.7-.5.5.4.7,1.2,1,1.9.3.7.3,1.6.7,2.2,2,3,2.7,6.4,3.6,9.9Z"/>
    <path d="M354,185.7c1.5,1.2,2.9.9,4.2,0,1.3-.8,2.6-1.7,3.9-2.5.3-.2.9,0,1.3,0,0,.3,0,.7-.3.9-2.3,1.5-4.1,3.6-6.9,4.2-2,.4-4,.2-5.5-1.2-.8-.8-1.1-2-1.6-3,0,0,.2-.4.4-.4.8,0,1.7-.4,2.3,0,.8.4,1.4,1.3,2.1,2M351.3,185.4l.2,1.3c.2,0,.3-.2.5-.3-.2-.3-.4-.5-.7-1Z"/>
    <path d="M275.2,104.4c.8,2.8.4,5.5-.4,8.1-.2.7-.8,1.4-1.2,2.1-.3-.9-.6-1.7-.8-2.6-.1-.5,0-1.1,0-1.7,0-.2.5-.5.7-.5.9.2,1.1,0,.8-1-.1-.4-.2-1,0-1.4.4-1.1.2-1.8-.7-2.4-.9-.5-1.7-.5-2.4.4-.3.3-.8.4-1.2.7,0-.5,0-1,.3-1.4,1.3-2.6,2.8-2.7,4.9-.4Z"/>
    <path d="M1008.8,91.7c.3-1.2.5-2.4.8-3.5.1-.4.4-.8.7-1.1.1.4.4.9.3,1.3-.3,2.3-.8,4.6-1.1,6.8-.2,1.5-.3,3-.6,4.5,0,.4-.6.6-.8.9-.2-.4-.5-.8-.5-1.2.3-2.6.8-5.1,1.2-7.8Z"/>
    <path d="M1082.8,97.2c-1.3.6-2.4,1.1-3.6,1.7-.2,0-.6-.1-.9-.2.1-.3.2-.7.3-.8,2-.9,4.1-1.8,6.2-2.7.2,0,.4,0,.6.1-.1.2-.1.6-.3.7-.7.4-1.5.8-2.4,1.2Z"/>
    <path d="M1011.9,71.3c0,1.1,0,2.1,0,3.1,0,.4-.6.7-.9,1-.1-.4-.4-.7-.4-1.1,0-1,.1-2.1.3-3.1.1-.7.6-.6,1,0Z"/>
    <path d="M1010.5,81.6c0,1.5,0,2.8,0,4.2-.2,0-.6,0-.7-.2-.7-1.4-.3-2.8.6-4Z"/>
    <path d="M845.4,74c0-1.3,0-2.6,0-3.8,0-.2.1-.4.3-.5,0,0,.3,0,.4.2.6.9.3,3.3-.6,4.1Z"/>
    <path d="M344.1,179.2c-.4-.4-.7-.8-1.1-1.1.5.2.9.3,1.4.5,0,0,.2.1.2.2.2.4.4.8.6,1.2-.4-.2-.7-.4-1.1-.7Z"/>
    <path d="M667.6,86c-.1.6-.3,1-.4,1.4,0-.5-.2-.9-.2-1.4s.2-.9.2-1.4c.1.4.3.8.4,1.4Z"/>
    <path d="M667.2,92.8c0-.5.2-.7.2-1,.1.3.3.7.4,1,0,.3,0,.7.1,1-.3-.3-.5-.6-.8-1Z"/>
    <path d="M948.9,129.2c-.3.3-.5.5-.8.7,0-.2-.2-.5-.3-.7.3,0,.7-.1,1,0Z"/>
    <path d="M364.2,142.2c0-.2.2-.5.4-.6.3-.1.7,0,1.1,0,0,0,0,.3.1.4-.3,0-.7.1-1,.2-.2,0-.3,0-.6,0Z"/>
    <path d="M364,142.2c-.3.2-.6.3-1,.5,0-.2-.1-.3-.2-.5.3,0,.7,0,1.1,0Z"/>
    <path d="M464.3,152.5c.2.3.4.7.6,1.1-.1,0-.3,0-.4.1,0-.4-.1-.8-.1-1.3Z"/>
    <path d="M1003.8,45.7c0-.4.2-.7.3-.9,0,.3.2.5.3.8,0,0-.3.2-.6.2Z"/>
    <path d="M588.9,129.6c-.1-.2,0-.5,0-.7.2,0,.4.2.7.3-.2.1-.3.3-.7.4Z"/>
    <path d="M820.9,130.2c.2-.3.4-.4.6-.6,0,.2.2.3.3.5-.3,0-.6.1-.9.1Z"/>
    <path d="M1236,130.2c-.3.2-.7.2-1,.2,0,0,0-.3,0-.3.3,0,.7,0,1,.2Z"/>
    <path d="M508.4,131.2c-.3-.2-.4-.4-.6-.6.2,0,.3-.2.5-.3,0,.3.1.6.1.9Z"/>
    <path d="M380.9,131.5c0-.3,0-.6,0-.8.2.1.4.2.6.3-.2.2-.3.4-.5.5Z"/>
    <path d="M492.2,131.3c-.1-.2,0-.5,0-.7.2,0,.4.2.7.3-.2.1-.3.3-.7.4Z"/>
    <path d="M571.1,130.7c-.2.3-.4.4-.6.6,0-.2-.2-.3-.3-.5.3,0,.6-.1.9-.1Z"/>
    <path d="M1006.7,45.3c-.2-.2-.4-.5-.5-.8.2,0,.5,0,.5,0,0,.2,0,.5,0,.8Z"/>
    <path d="M834.1,131.9c.2-.1.5,0,.7,0,0,.2-.2.4-.3.7-.1-.2-.3-.3-.4-.7Z"/>
    <path d="M454.3,150.8c0-.3.2-.5.3-.7.2.2.3.3.5.5-.2.1-.4.2-.7.3Z"/>
    <path d="M486.6,152c-.2,0-.4-.3-.6-.5.2-.1.4-.3.6-.4,0,.3,0,.5,0,.9Z"/>
    <path d="M448.6,137.4c-.3,0-.6,0-.9,0,0,0,0-.1,0-.2.3,0,.6,0,.9.3Z"/>
    <path d="M818.7,131.7c.2.2.2.4.3.5-.3,0-.6-.2-.9-.2.2-.1.3-.3.6-.3Z"/>
    <path d="M790.2,130.6c0,.3-.1.5-.2.6-.2-.3-.3-.5-.5-.8.2,0,.5,0,.7.2Z"/>
    <path d="M668.7,129.8c0-.1,0-.2,0-.2.5,0,1,0,1.6,0-.5,0-1,.1-1.6.1Z"/>
    <path d="M742.2,128.6c.3,0,.6.2.9.4,0,0-.2.2-.2.2-.2-.2-.5-.3-.6-.6Z"/>
    <path d="M474.5,149.7c-.3,0-.5-.2-.7-.3.3-.2.5-.3.8-.5,0,.2,0,.5,0,.8Z"/>
    <path d="M756.2,92.9c.4,0,.8.2.9.4,0,.2-.2.5-.4.8-.2-.4-.4-.7-.5-1.2Z"/>
    <path d="M146.8,113.2c-.3.3-.7.4-1.1.5,0-.3.1-.6.2-.8,0-.3,0-.6.2-.8.2-.3.6-.6.9-.9,0,.4-.2.8-.2,1.2,0,.2,0,.4,0,.8Z"/>
    <path d="M148.1,107.4c.3.2.4.5.5.7-.2,0-.3.1-.5.2,0-.3-.1-.6,0-.9Z"/>
    <path d="M273.1,73.4c0-.3.3-.7.5-1,0,0,.3.2.5.2-.3.3-.6.5-1,.8Z"/>
  </g>
</svg>