<?xml version="1.0" encoding="UTF-8"?>
<svg id="Layer_1" xmlns="http://www.w3.org/2000/svg" version="1.1" viewBox="0 0 174.9 157.5">
  <!-- Generator: Adobe Illustrator 29.3.1, SVG Export Plug-In . SVG Version: 2.1.0 Build 151)  -->
  <g id="ICuTuY">
    <g>
      <path d="M110.8,155.6l4.8-1.2c-5.9,0-11.8,2.3-17.7,1.8-2.1-.2-1.6.2-3.5.3-3.2.3-7.6-.5-11-.6-1.7,0-3.4.7-5.2-.4l-.6-2.1c-.4-1.4,4.4-.3,5.1,0,.6.3.5,1.2.9,1.3,1.1.2,2.5-.4,2.6-1.6h5.9c.6.1-.8,2,1.9.9l-.4-.9c.9.1,4.7,0,4.6.9l-.7,1.4c1.1-1.4,2.8-.5,4.3-.6,1.1-.1,3.4-.5,4.5-.9,1.3-.4,2.5-1.6,3.5-1.5.9,0,.7,1,1,1.2,1.7,1.2,1-1.6,2-1.9.3.9.3,1,1.4.9v-1.7c.1,0,2.7-.3,2.7-.3.2.3-.7,2,.5,1.7.7-.2,3.5-1.1,3.7-1.7l-1.2-1.1,5.6-.5-1.3,1c1.7,1.1,2.2-.8,3.3-1.7.4-.1,0,.6.3.8,1.4,1,5.4-2.2,6.8-2.8,8.5-4.1,15-7,22.4-13.3,21.2-18,23.8-44.2,4.5-64.7-3.8-4.1-9.5-7.2-9.2-13.9.2-5.9,3.1-10.7,3.8-16.4.5-3.9.5-10-1-13.6-.5-1.4-2-2.6-2.2-3.3-.2-1-.3-5.1,1.5-4.7v2.1c0,0,3,4.7,3,4.7C151.4,3.1,127.2-2.6,109,1.6c-3.2.7-7.7,2.2-10.7,3.4-1.5.6-3.3,2.2-4.8,2.8-6.7,2.6-11.3-1.9-17.5-3.7C50.3-3.8,14.9,9.2,19.2,40.8c.4,2.7,3.3,7.5,3.5,10.2.2,2.7-.6,8.3-2.4,10.4-.6.7-1.4.8-2,1.4-4.9,5.2-9.2,9.6-12.5,15.9-9.9,19.3-5.7,35.8,7.1,51.5,20.3,25,67.8,30.2,97.8,25.4ZM67.7,153.8c-4.1-.4-4.6-.8-8.2-1.8-2.7-.8-7.4-.4-8.2-3.6-1.6-.7-.8,1.2-1.4,1.2-5.9-1.6-11.8-3.3-16.9-6.8l1-1.9h-1.7c0,0,.4,1,.4,1l-.9.2c0-1.3-1.4-1.4-2.3-2.2-.4-.4-.5-1.2-.6-1.3-.1,0-.9.4-1.4.3-.5-.2-.5-1-.9-1.3-5.4-3.9-13.2-10.4-16.4-16.4-9.8-18.1-5.9-37.3,7.6-52.1,2.5-2.7,5.2-4.3,7.1-7.9,4.7-8.9-1.4-14.3-1.9-22.6-.8-14.1,10-29.9,24.4-31.9.7,0,2.3.8,2.6.5.1,0-.1-.9.4-1.3,1.5-1.2,6.5-.7,8.6-1.6,1.7,2,1.2.3,1.7.1,9.8-2.1,18,3.6,26.6,6.1,7.6,2.2,11.5-1.8,18.7-2.5l.4-1.2c3.5.2,7.3-2.7,10.3-3.1.7-.1,2.9-.3,3.7-.3,3.3-.2,4.4,0,7.3,1.7l-.4-1.3,1.6-.8c3.4.9,7,1.6,10.3,2.9,1.1.4,6.7,3.2,7.1,3.8.6.8,0,1.5,2.2,1.9v1.6s3.3,1.5,3.3,1.5l-.3.8c-3.2,1.6-4.4-3.6-5.1-4.1-.2-.2-.9.3-1.2.1-.2-.2-.2-.9-.4-1.1-.2-.2-1.4.4-2.2.2-1.5-.3-7.5-3.2-9.6-4-.6-.2-1.1-1.3-1.6-.6l.8,1.1c-2.3.6-5.7-1.7-7.3,0,5.9.4,12.2,3,17,6.5,3.7,2.7,5.2,6.3,8,9.8,1.3,6.1,1.8,12,.2,18.2-.6,2.4-3,5.1-3.3,8.1-.2,1.5,1.9,9.8,2.7,11.2.7,1.1,1.9,1.7,2.6,2.5,5.5,6.7,12.3,11.2,15.4,19.8,8.1,22.5-5.2,43.6-24.5,54.6-5.3,3-20,9.2-25.8,9.5-1.4,0-1.7-1-3-1l.8,1.5c-5.6,1.1-11.3,2.2-17.1,2.5-21.6,1.4-43.5-1.3-62.9-11.3-3.1-1.6-6-3.7-9.2-5.3,2.8,3.4,6.8,5.3,10.5,7.3,3.1,1.7,5.6,2.8,9,4.1.6.3.5,1.1.7,1.2.1,0,.9-.3,1.4-.2,5.6,1,11.4,4.1,16.9,5.2,1.2.2,2.5-1.1,2.6,1.1h.8c0-.2,0-.6.2-.7,1.1-.6,6.6,1.3,8.4.8-.3,1-1.5.5-2.1.8-.8.5,0,1.8-2,.2-.7,1.7-3.2.5-4.6.3Z"/>
      <path d="M174.4,83.3l-5.4-9.9c-2.7-3.7-6.3-6.5-9.4-9.7-.5-.5-3.4-3.6-2.9-4,7.4,6.6,15.3,13.7,17.8,23.7Z"/>
      <path d="M137.2,25c-.9-6.2-12.6-7.9-17.6-7.8-4.5.1-17.8,3.3-19.4,8.1-2.2,6.7,9.1,9.3,13.6,9.9,7,.9,24.9.7,23.3-10.2ZM113.6,28.3c-.8-.2-1.3-1.1-1.8-1.2-1-.3-1.8.7-3.2-.3-.5-.3.1-1.4-1.7-.6l-.4-.4c-.5-3.1,1.3-3.5,3.9-4.2,3.6-1.1,10.8-1.7,13.6,1.2.7.7-.3,1.4,1.8.7l.4.9c-.3.2-.8.3-1,.5-1.4,1.9-1.5,2.5-4.5,2.2l-.3,1.2c-1.3.5-5.3.4-6.7,0Z"/>
      <path d="M68.8,34.8c3.2-1.6,5.5-4.2,5.2-8-.4-4.5-7.1-6.5-10.8-7-3.3-.4-11.2-.2-14.3.7-2.4.7-6.4,2.6-7.3,4.9-1.2,3.1-1.2,5.7,1.5,8,5.1,4.2,20,4.3,25.8,1.4ZM44.3,26.8c1-2.8,5.6-4.1,8.3-4.5,4-.6,10.7,0,13.6,3.1l-1.3.6c.3.8,1.3.2.7,1.7-1.6.3-3.2,1.4-4.7,1.8-6.2,1.6-10.6-1.6-16.6-2.6Z"/>
      <path d="M74.3,10.4c-3.4-1.1-7-2.2-10.6-2.5-.2-1.7,1.9-.3,2.8-.3,3.4.3,4.4.5,7.5,1.4,5.9,1.6,10.8,4.5,17.1,4.6-5.2,2.7-11.7-1.6-16.8-3.2Z"/>
      <path d="M32.8,118.9c-16.4-13.8-12-32.2,4.7-43.2,6.7-4.4,12.2-3.6,20-3.7,16.3-.3,32.7-.3,49.1-.5,6.3,0,18.5-1.2,24.1-.1,1.7.3,5.7,2.6,7.3,3.6,10.5,6.6,18.9,19,13.8,31.6-4.1,10.1-13.8,15.3-22.7,20.4l8.3-3.3c-1,.9-3.5,3.3-4.5,3.7-2.9,1.3-7.9,2.8-11.2,3.8-25.7,7.7-67.4,5.8-88.9-12.3Z"/>
    </g>
  </g>
</svg>