<?xml version="1.0" encoding="UTF-8"?>
<svg id="Layer_1" xmlns="http://www.w3.org/2000/svg" version="1.1" viewBox="0 0 132.6 313.9">
  <!-- Generator: Adobe Illustrator 29.3.1, SVG Export Plug-In . SVG Version: 2.1.0 Build 151)  -->
  <g id="Shape_16">
    <path d="M30.2,313c-4.7.3-9,.8-13.2.9-1.1,0-3.2-1.5-3.2-2.3,0-7.9.7-15.8.8-23.8,0-5.8-.8-11.5-.9-17.3-.1-20.4.4-40.9-.3-61.3-.3-7.7.8-16-3.7-23.2-1.6-2.6-3.4-5-4.8-7.8-2.3-4.7-4.3-9.2-4.2-14.9.5-13.9.2-27.9.1-41.8,0-5.5-.8-11.1-.9-16.6-.2-7.1-.2-14.2,0-21.2,0-1.8,1.2-4.3,2.5-5,7.7-4,15.6-7.6,23.5-11.2,2.8-1.3,5.2-.8,7.7,1.6,10.2,9.8,22,12.8,36.2,10.8,10.5-1.5,18.1-7.1,25.7-13.1,3-2.4,5.8-2.8,9.1-1.5,6.4,2.5,12.8,5,19.2,7.6,6,2.3,8.2,5.5,8.2,12,0,24.6-.2,49.3.1,73.9.1,7.7-.9,14.8-5,21.3-4.6,7.2-6.1,14.9-5.9,23.4.4,14.6,0,29.3.1,43.9.2,17.6.6,35.2,1,52.8,0,1.3.8,2.6.9,4,.2,4.7-2.1,6.9-7.2,6.9-7.9,0-15.9,0-23.8,0s-2-.1-2.9,0c-7.2,1.3-8.5.2-9.9-6.4-2.7-12.6-5.8-25.2-8.5-37.8-1.3-6.2-2-12.5-3.1-18.7-.2-1.2-1.2-2.2-1.9-3.3-.7.9-1.8,1.6-2.1,2.6-.8,2.8-1.5,5.6-1.8,8.5-1.4,12.6-2.6,25.2-4,37.8-.5,4.9-1,9.9-2.1,14.7-.3,1.4-2.6,3.2-4.1,3.3-7.1.7-14.3.8-22,1.1Z"/>
    <path d="M60.2,62.3c-9.9-1.4-16.9-7-22.1-14.7C26.1,29.4,36.9,5.5,58,.8c8.2-1.8,16.2-.5,23.2,4,4.6,3,9.5,6.7,12.1,11.3,5,9,5.9,18.7,1.6,28.8-3.7,8.7-9.6,14.6-18.4,17.1-5.1,1.5-10.6,4.1-16.3.4Z"/>
  </g>
</svg>