<?xml version="1.0" encoding="UTF-8"?>
<svg id="Layer_1" data-name="Layer 1" xmlns="http://www.w3.org/2000/svg" viewBox="0 0 158.88 173.5">
  <g id="ICuTuY">
    <g>
      <path d="M155.71,59.99l-1.5-4.67c.44,5.9,3.02,11.65,2.82,17.61-.08,2.15.27,1.55.55,3.51.45,3.18-.05,7.66.02,11.05.03,1.74.94,3.35-.07,5.22l-2.07.71c-1.37.44-.59-4.35-.33-5.04.25-.65,1.18-.57,1.24-.97.18-1.16-.55-2.5-1.77-2.52l-.42-5.92c.17-.64,2.13.64.87-1.93l-.84.43c.06-.87-.35-4.66.64-4.68l1.48.63c-1.42-1.04-.62-2.78-.88-4.23-.2-1.14-.75-3.34-1.12-4.42-.44-1.28-1.74-2.42-1.75-3.37-.02-.94.94-.79,1.11-1.05,1.08-1.73-1.68-.86-2.04-1.84.89-.4.99-.35.86-1.48l-1.69-.03-.44-2.53c.27-.25,2.02.56,1.68-.62-.2-.72-1.33-3.42-1.9-3.64l-1.06,1.28-.85-5.53,1.06,1.27c.95-1.76-.95-2.13-1.91-3.19-.14-.38.61-.1.74-.3.95-1.47-2.47-5.22-3.23-6.58-4.6-8.2-7.9-14.59-14.59-21.6-19.2-20.13-45.56-21.14-64.85-.65-3.83,4.07-6.6,9.87-13.3,10.02-5.87.14-10.88-2.44-16.55-2.81-3.89-.26-10,.11-13.52,1.79-1.33.63-2.52,2.18-3.16,2.37-.96.29-5.03.62-4.81-1.19l2.12-.22,4.47-3.19C1.06,28.57-3.2,53.06,2.09,70.97c.92,3.12,2.64,7.51,4.06,10.43.69,1.43,2.36,3.13,3.04,4.62,2.97,6.52-1.18,11.39-2.68,17.67-6.26,26.15,8.76,60.74,40.07,54.55,2.72-.54,7.34-3.72,9.94-4.11,2.73-.41,8.28.06,10.56,1.74.71.52.93,1.37,1.53,1.87,5.5,4.61,10.1,8.61,16.62,11.48,19.82,8.71,36.06,3.52,50.97-10.14,23.73-21.74,26.08-69.48,19.51-99.09ZM156.5,103.15c-.14,4.16-.54,4.6-1.33,8.27-.59,2.74.02,7.43-3.09,8.41-.57,1.64,1.21.76,1.28,1.28-1.23,5.98-2.57,12.01-5.75,17.23l-1.92-.84v1.7s1.06-.43,1.06-.43l.22.85c-1.33.1-1.28,1.44-2.1,2.39-.33.38-1.21.56-1.26.64-.09.13.48.89.35,1.39-.13.49-.97.56-1.26,1.01-3.62,5.61-9.63,13.77-15.35,17.32-17.5,10.86-36.87,8.14-52.48-4.5-2.82-2.29-4.64-4.98-8.27-6.63-9.16-4.18-14.15,2.27-22.49,3.25-14.01,1.66-30.49-8.22-33.3-22.42-.13-.68.63-2.33.32-2.65-.09-.1-.86.2-1.3-.28-1.33-1.46-1.12-6.48-2.13-8.49,1.94-1.84.2-1.19.04-1.75-2.71-9.67,2.56-18.23,4.49-26.94,1.71-7.69-2.48-11.36-3.62-18.5l-1.21-.31c-.04-3.54-3.12-7.1-3.76-10.14-.15-.72-.45-2.9-.55-3.67-.4-3.32-.24-4.36,1.24-7.42l-1.27.43-.87-1.57c.7-3.48,1.13-7.08,2.26-10.45.37-1.1,2.84-6.92,3.34-7.33.78-.66,1.54-.08,1.72-2.32l1.58-.1,1.34-3.36.86.24c1.74,3.06-3.37,4.64-3.8,5.38-.15.24.4.88.18,1.22-.18.26-.89.28-1.04.46-.14.18.44,1.36.32,2.17-.23,1.52-2.75,7.63-3.46,9.78-.2.59-1.21,1.21-.52,1.61l1.06-.85c.7,2.23-1.39,5.77.43,7.24,0-5.89,2.29-12.39,5.46-17.32,2.49-3.84,6.02-5.57,9.31-8.56,6.06-1.63,11.91-2.49,18.13-1.27,2.47.48,5.25,2.69,8.25,2.86,1.51.09,9.7-2.48,11.01-3.38,1.04-.72,1.56-1.97,2.39-2.73,6.35-5.85,10.48-12.95,18.81-16.53,21.96-9.42,43.84,2.6,56.01,21.24,3.32,5.1,10.35,19.44,11.07,25.17.18,1.43-.86,1.78-.78,3.07l1.49-.85c1.45,5.55,2.84,11.16,3.56,16.87,2.73,21.49,1.32,43.53-7.53,63.47-1.44,3.23-3.38,6.25-4.76,9.5,3.19-2.98,4.85-7.09,6.69-10.96,1.51-3.16,2.42-5.77,3.59-9.21.22-.64,1.06-.59,1.16-.74.08-.12-.39-.87-.33-1.38.7-5.64,3.44-11.66,4.14-17.18.15-1.17-1.21-2.42.93-2.69l-.04-.81c-.2-.03-.6,0-.69-.12-.7-1.08.9-6.67.31-8.43,1.05.22.6,1.47.96,2.02.53.8,1.76-.11.3,2.02,1.72.57.64,3.16.6,4.62Z"/>
      <path d="M79.7.83l-9.57,5.96c-3.56,2.91-6.15,6.72-9.16,10.01-.45.5-3.34,3.62-3.84,3.18,6.15-7.82,12.74-16.04,22.57-19.15Z"/>
      <path d="M23.8,41.37c-6.11,1.27-7.11,13.05-6.69,17.99.39,4.5,4.36,17.54,9.26,18.85,6.83,1.83,8.76-9.64,9.04-14.16.45-7.07-.75-24.93-11.61-22.68ZM28.52,64.81c-.19.8-1.01,1.36-1.12,1.89-.2,1,.79,1.76-.07,3.23-.29.49-1.38-.04-.45,1.77l-.4.45c-3.1.71-3.55-1.06-4.47-3.64-1.27-3.56-2.33-10.64.42-13.63.66-.71,1.41.17.63-1.89l.86-.44c.19.27.3.76.56.93,2.02,1.31,2.56,1.34,2.43,4.4l1.18.28c.59,1.31.75,5.26.43,6.65Z"/>
      <path d="M37.63,109.09c-1.77-3.06-4.5-5.26-8.28-4.73-4.48.64-6.05,7.43-6.3,11.19-.22,3.36.44,11.15,1.52,14.28.8,2.32,2.93,6.24,5.3,7.04,3.15,1.06,5.8.85,7.86-1.96,3.91-5.32,3.12-20.25-.1-25.82ZM31.15,134.09c-2.83-.83-4.41-5.35-5-7.98-.88-3.95-.7-10.72,2.24-13.73l.65,1.27c.81-.3.13-1.27,1.65-.81.37,1.56,1.57,3.1,2.03,4.57,1.95,6.11-.98,10.63-1.57,16.68Z"/>
      <path d="M12.96,105.04c-.9,3.47-1.78,7.16-1.82,10.74-1.66.33-.46-1.86-.42-2.77.14-3.44.27-4.43.93-7.59,1.24-5.99,3.84-11.02,3.54-17.31,3.04,5.07-.89,11.79-2.23,16.93Z"/>
      <path d="M123.74,140.02c-12.82,17.18-31.42,13.9-43.37-2.13-4.82-6.47-4.31-11.93-4.93-19.77-1.29-16.28-2.26-32.66-3.4-48.96-.45-6.32-2.3-18.42-1.54-24.06.22-1.67,2.27-5.89,3.16-7.52,5.95-10.86,17.83-19.96,30.71-15.66,10.37,3.45,16.09,12.85,21.73,21.48l-3.82-8.09c.93.98,3.48,3.28,4.01,4.29,1.48,2.84,3.26,7.75,4.41,10.91,9.17,25.17,9.85,66.98-6.96,89.51Z"/>
    </g>
  </g>
</svg>