<?xml version="1.0" encoding="UTF-8"?>
<svg id="Layer_1" xmlns="http://www.w3.org/2000/svg" version="1.1" viewBox="0 0 153.4 289.1">
  <!-- Generator: Adobe Illustrator 29.3.1, SVG Export Plug-In . SVG Version: 2.1.0 Build 151)  -->
  <g id="Shape_17">
    <path d="M72.8,289.1c-6.6,0-12.8-.2-19,0-3.2.1-4.1-.9-4.3-4.1-.6-8.3-1.6-16.6-2.8-24.8-.1-1-2-2.5-3.1-2.6-12.7-.2-25.4-.2-38,0-6.2,0-6.4.2-4.1-6.2,7.3-20.2,14.9-40.2,22.3-60.3,3.1-8.3,6.9-16.5,8.8-25,1.1-4.8-.3-10.4-1.7-15.4-4-14.1-8.6-28-12.9-42-1.7-5.6-3.4-11.3-4.8-17-.4-1.5-.1-4,.9-5,5.9-5.7,12.1-11,18.2-16.5,2.1-1.9,3.9-1.9,6.2.3,8.5,8.4,18.8,13.9,30.6,14.2,12.9.3,24.9-3.5,34.6-12.6,1-1,1.9-2.1,3-2.9,4.3-3,6.3-2.2,9.8,2,2.9,3.4,6.6,6.1,9.9,9.1,3.3,3,6.6,6,9.6,9.1.7.7,1,2.3.7,3.3-4.6,16.2-9.3,32.3-14,48.5-2.1,7.2-4.5,14.3-6.2,21.5-.5,2.2.2,5.1,1.1,7.3,5.6,14.1,11.4,28.1,17.3,42,5.7,13.4,11.6,26.7,17.7,40,1.7,3.7.4,4.5-3,4.5-11.4,0-22.9,0-34.3,0-5.4,0-7.8,2.3-8.2,7.7-.5,6.6-1.1,13.1-1.9,19.6-.5,4.4-3.9,5.1-7.4,5.1-8.2.1-16.4,0-25.1,0Z"/>
    <path d="M92.5,57.3c-11.4,9.2-24,9.6-36.3,4.1-5-2.2-8.5-7.9-12.3-12.4-3.6-4.3-5.1-9.5-5.6-15.3-.7-8.1,1.6-14.9,6.3-21.2C52.7,1.6,64.2-1.7,76.6.8c9,1.8,17.8,6.3,22,15.7,2.3,5.2,5.4,10.8,5.3,16.2,0,8.8-3.5,17.1-10.3,23.4-.3.3-.7.7-1.2,1.2Z"/>
  </g>
</svg>