<?xml version="1.0" encoding="UTF-8"?>
<svg id="Layer_1" xmlns="http://www.w3.org/2000/svg" version="1.1" viewBox="0 0 423.9 419.2">
  <!-- Generator: Adobe Illustrator 29.3.1, SVG Export Plug-In . SVG Version: 2.1.0 Build 151)  -->
  <path d="M125.2,168.5c-.6-.2-.4.4-.8.8,0,.4,0,.7.1,1.1.4.3,2.1-1.4.7-1.9ZM125.2,168.5c-.6-.2-.4.4-.8.8,0,.4,0,.7.1,1.1.4.3,2.1-1.4.7-1.9ZM125.2,168.5c-.6-.2-.4.4-.8.8,0,.4,0,.7.1,1.1.4.3,2.1-1.4.7-1.9ZM125.2,168.5c-.6-.2-.4.4-.8.8,0,.4,0,.7.1,1.1.4.3,2.1-1.4.7-1.9ZM125.2,168.5c-.6-.2-.4.4-.8.8,0,.4,0,.7.1,1.1.4.3,2.1-1.4.7-1.9ZM125.2,168.5c-.6-.2-.4.4-.8.8,0,.4,0,.7.1,1.1.4.3,2.1-1.4.7-1.9ZM125.2,168.5c-.6-.2-.4.4-.8.8,0,.4,0,.7.1,1.1.4.3,2.1-1.4.7-1.9ZM125.2,168.5c-.6-.2-.4.4-.8.8,0,.4,0,.7.1,1.1.4.3,2.1-1.4.7-1.9ZM125.2,168.5c-.6-.2-.4.4-.8.8,0,.4,0,.7.1,1.1.4.3,2.1-1.4.7-1.9ZM125.2,168.5c-.6-.2-.4.4-.8.8,0,.4,0,.7.1,1.1.4.3,2.1-1.4.7-1.9ZM125.2,168.5c-.6-.2-.4.4-.8.8,0,.4,0,.7.1,1.1.4.3,2.1-1.4.7-1.9ZM125.2,168.5c-.6-.2-.4.4-.8.8,0,.4,0,.7.1,1.1.4.3,2.1-1.4.7-1.9ZM125.2,168.5c-.6-.2-.4.4-.8.8,0,.4,0,.7.1,1.1.4.3,2.1-1.4.7-1.9ZM125.2,168.5c-.6-.2-.4.4-.8.8,0,.4,0,.7.1,1.1.4.3,2.1-1.4.7-1.9ZM125.2,168.5c-.6-.2-.4.4-.8.8,0,.4,0,.7.1,1.1.4.3,2.1-1.4.7-1.9ZM125.2,168.5c-.6-.2-.4.4-.8.8,0,.4,0,.7.1,1.1.4.3,2.1-1.4.7-1.9ZM125.2,168.5c-.6-.2-.4.4-.8.8,0,.4,0,.7.1,1.1.4.3,2.1-1.4.7-1.9ZM125.2,168.5c-.6-.2-.4.4-.8.8,0,.4,0,.7.1,1.1.4.3,2.1-1.4.7-1.9ZM125.2,168.5c-.6-.2-.4.4-.8.8,0,.4,0,.7.1,1.1.4.3,2.1-1.4.7-1.9ZM125.2,168.5c-.6-.2-.4.4-.8.8,0,.4,0,.7.1,1.1.4.3,2.1-1.4.7-1.9ZM125.2,168.5c-.6-.2-.4.4-.8.8,0,.4,0,.7.1,1.1.4.3,2.1-1.4.7-1.9ZM125.2,168.5c-.6-.2-.4.4-.8.8,0,.4,0,.7.1,1.1.4.3,2.1-1.4.7-1.9ZM125.2,168.5c-.6-.2-.4.4-.8.8,0,.4,0,.7.1,1.1.4.3,2.1-1.4.7-1.9ZM125.2,168.5c-.6-.2-.4.4-.8.8,0,.4,0,.7.1,1.1.4.3,2.1-1.4.7-1.9ZM125.2,168.5c-.6-.2-.4.4-.8.8,0,.4,0,.7.1,1.1.4.3,2.1-1.4.7-1.9ZM125.2,168.5c-.6-.2-.4.4-.8.8,0,.4,0,.7.1,1.1.4.3,2.1-1.4.7-1.9ZM125.2,168.5c-.6-.2-.4.4-.8.8,0,.4,0,.7.1,1.1.4.3,2.1-1.4.7-1.9ZM125.2,168.5c-.6-.2-.4.4-.8.8,0,.4,0,.7.1,1.1.4.3,2.1-1.4.7-1.9ZM125.2,168.5c-.6-.2-.4.4-.8.8,0,.4,0,.7.1,1.1.4.3,2.1-1.4.7-1.9ZM125.2,168.5c-.6-.2-.4.4-.8.8,0,.4,0,.7.1,1.1.4.3,2.1-1.4.7-1.9ZM125.2,168.5c-.6-.2-.4.4-.8.8,0,.4,0,.7.1,1.1.4.3,2.1-1.4.7-1.9ZM125.2,168.5c-.6-.2-.4.4-.8.8,0,.4,0,.7.1,1.1.4.3,2.1-1.4.7-1.9ZM125.2,168.5c-.6-.2-.4.4-.8.8,0,.4,0,.7.1,1.1.4.3,2.1-1.4.7-1.9ZM125.2,168.5c-.6-.2-.4.4-.8.8,0,.4,0,.7.1,1.1.4.3,2.1-1.4.7-1.9ZM125.2,168.5c-.6-.2-.4.4-.8.8,0,.4,0,.7.1,1.1.4.3,2.1-1.4.7-1.9ZM125.2,168.5c-.6-.2-.4.4-.8.8,0,.4,0,.7.1,1.1.4.3,2.1-1.4.7-1.9ZM125.2,168.5c-.6-.2-.4.4-.8.8,0,.4,0,.7.1,1.1.4.3,2.1-1.4.7-1.9ZM125.2,168.5c-.6-.2-.4.4-.8.8,0,.4,0,.7.1,1.1.4.3,2.1-1.4.7-1.9ZM125.2,168.5c-.6-.2-.4.4-.8.8,0,.4,0,.7.1,1.1.4.3,2.1-1.4.7-1.9ZM125.2,168.5c-.6-.2-.4.4-.8.8,0,.4,0,.7.1,1.1.4.3,2.1-1.4.7-1.9ZM125.2,168.5c-.6-.2-.4.4-.8.8,0,.4,0,.7.1,1.1.4.3,2.1-1.4.7-1.9ZM125.2,168.5c-.6-.2-.4.4-.8.8,0,.4,0,.7.1,1.1.4.3,2.1-1.4.7-1.9ZM125.2,168.5c-.6-.2-.4.4-.8.8,0,.4,0,.7.1,1.1.4.3,2.1-1.4.7-1.9ZM125.2,168.5c-.6-.2-.4.4-.8.8,0,.4,0,.7.1,1.1.4.3,2.1-1.4.7-1.9ZM125.2,168.5c-.6-.2-.4.4-.8.8,0,.4,0,.7.1,1.1.4.3,2.1-1.4.7-1.9ZM125.2,168.5c-.6-.2-.4.4-.8.8,0,.4,0,.7.1,1.1.4.3,2.1-1.4.7-1.9ZM125.2,168.5c-.6-.2-.4.4-.8.8,0,.4,0,.7.1,1.1.4.3,2.1-1.4.7-1.9ZM125.2,168.5c-.6-.2-.4.4-.8.8,0,.4,0,.7.1,1.1.4.3,2.1-1.4.7-1.9ZM125.2,168.5c-.6-.2-.4.4-.8.8,0,.4,0,.7.1,1.1.4.3,2.1-1.4.7-1.9ZM125.2,168.5c-.6-.2-.4.4-.8.8,0,.4,0,.7.1,1.1.4.3,2.1-1.4.7-1.9ZM125.2,168.5c-.6-.2-.4.4-.8.8,0,.4,0,.7.1,1.1.4.3,2.1-1.4.7-1.9ZM125.2,168.5c-.6-.2-.4.4-.8.8,0,.4,0,.7.1,1.1.4.3,2.1-1.4.7-1.9ZM125.2,168.5c-.6-.2-.4.4-.8.8,0,.4,0,.7.1,1.1.4.3,2.1-1.4.7-1.9ZM125.2,168.5c-.6-.2-.4.4-.8.8,0,.4,0,.7.1,1.1.4.3,2.1-1.4.7-1.9ZM125.2,168.5c-.6-.2-.4.4-.8.8,0,.4,0,.7.1,1.1.4.3,2.1-1.4.7-1.9ZM125.2,168.5c-.6-.2-.4.4-.8.8,0,.4,0,.7.1,1.1.4.3,2.1-1.4.7-1.9ZM125.2,168.5c-.6-.2-.4.4-.8.8,0,.4,0,.7.1,1.1.4.3,2.1-1.4.7-1.9ZM125.2,168.5c-.6-.2-.4.4-.8.8,0,.4,0,.7.1,1.1.4.3,2.1-1.4.7-1.9ZM125.2,168.5c-.6-.2-.4.4-.8.8,0,.4,0,.7.1,1.1.4.3,2.1-1.4.7-1.9ZM125.2,168.5c-.6-.2-.4.4-.8.8,0,.4,0,.7.1,1.1.4.3,2.1-1.4.7-1.9ZM125.2,168.5c-.6-.2-.4.4-.8.8,0,.4,0,.7.1,1.1.4.3,2.1-1.4.7-1.9ZM125.2,168.5c-.6-.2-.4.4-.8.8,0,.4,0,.7.1,1.1.4.3,2.1-1.4.7-1.9ZM125.2,168.5c-.6-.2-.4.4-.8.8,0,.4,0,.7.1,1.1.4.3,2.1-1.4.7-1.9ZM125.2,168.5c-.6-.2-.4.4-.8.8,0,.4,0,.7.1,1.1.4.3,2.1-1.4.7-1.9ZM125.2,168.5c-.6-.2-.4.4-.8.8,0,.4,0,.7.1,1.1.4.3,2.1-1.4.7-1.9ZM125.2,168.5c-.6-.2-.4.4-.8.8,0,.4,0,.7.1,1.1.4.3,2.1-1.4.7-1.9ZM125.2,168.5c-.6-.2-.4.4-.8.8,0,.4,0,.7.1,1.1.4.3,2.1-1.4.7-1.9ZM125.2,168.5c-.6-.2-.4.4-.8.8,0,.4,0,.7.1,1.1.4.3,2.1-1.4.7-1.9ZM125.2,168.5c-.6-.2-.4.4-.8.8,0,.4,0,.7.1,1.1.4.3,2.1-1.4.7-1.9ZM125.2,168.5c-.6-.2-.4.4-.8.8,0,.4,0,.7.1,1.1.4.3,2.1-1.4.7-1.9ZM125.2,168.5c-.6-.2-.4.4-.8.8,0,.4,0,.7.1,1.1.4.3,2.1-1.4.7-1.9ZM125.2,168.5c-.6-.2-.4.4-.8.8,0,.4,0,.7.1,1.1.4.3,2.1-1.4.7-1.9ZM125.2,168.5c-.6-.2-.4.4-.8.8,0,.4,0,.7.1,1.1.4.3,2.1-1.4.7-1.9ZM125.2,168.5c-.6-.2-.4.4-.8.8,0,.4,0,.7.1,1.1.4.3,2.1-1.4.7-1.9ZM125.2,168.5c-.6-.2-.4.4-.8.8,0,.4,0,.7.1,1.1.4.3,2.1-1.4.7-1.9ZM420.7,60.9l1.4-.7c-.1-.3-2.1-2.4-2.4-2.6-.6-.4-2.3-.2-2.9-.4-.1,0-2.2-.9-2.6-1.1-.9-.4-1-1.5-2-1.4v-.7c1-.2,2.1.1,2.6-.8-1.2-.5-.5-1.6-.8-2.2-1.7-3.7-5.2-3.7-7.7-5.5-2.8-2-9-6.7-11.4-9-2.9-2.8-5.5-7-8.3-10.1-6.3-6.7-14.3-10-21.1-16.1-2.5-2.2-5.1-5.7-7.6-7.6-1.1-.8-2,0-2.2-2.7l-54.3,82.6c0,.6,7,4.9,8.1,5.7,5.5,4.1,9.7,9.1,14.8,13.6l14-3.5c1.1-.2,1.9,1.9,2,2.7l.8,6.9-37.6-1,12.8-3.1c-5.5-6.2-11.4-11.2-18.8-15.1-1.6,0-9.7,15.9-12.3,17.4l-9.2-.3c.6-3.3-1.2-4.2-3-6.3,1.2-.8,1.5-1.2,2-2.6.2,0,2.5,2,2.6,2.4l.6,5.5c5.5-6.1,9.8-13.1,13.7-20.3-6.7-6.2-12.1-13.7-19.8-18.6l-5.5-2.9.6,5.1c0,.2-.4.4,0,1.2.4.9,1.8,1.6,2.4,2.3.8.9,1.5,2.1,2.3,3,.6.7,1.3.1,1.4,2.1,0,1-1.9,1-2.7,1.7-.6.6-.5,1.3-.9,1.9-.7,1.2-1.3.5-1.1,3,0,1.1.1,3,.2,4,0,1,2.2,3.5.2,4.4-1.7-.8-.9-2.5-1.1-3.6-1-4.4-2-9.1-3.3-13.5-.2-.7-1.7-1.4-1.9-2.4-.4-1.4-.3-2.5-1.2-4.1-1.7-2.8-5.5-5.3-7.6-7.6-.4-.4-1.4-1.4-1.5-1.5-.6-.8-.2-2.6-2-2.3-2,2-.8,4.1-.5,6.3,1.5,11.2,3.5,22.5,5.7,33.6.5,2.5,1.5,5.1,1.9,7.7,0,.7-.5.9-1.1,1l-79.8-2.9-1-.8c-.3-4.4-.9-8.8-2.6-13-.7-.5-2.5,3.6-3,4.1,1.7,2.9,1.7,6.2,3.1,9.3-.2.4-1.1.3-1.6.4-14.3.6-31.4-1.5-45.9-2.1-16.7-.7-33.4-1.1-50-1.7-14.9-.6-29.8-1.4-44.7-2.2l1.1,3.4c-.5.4-1.5-.2-1.3.7.8,3.1,2.9,6.6,4,9.7,2.4-1.2,5-3.5,6.6,0,.3.7.2,1.7.5,2,.1.2.8,0,.9.5.1.4.2,2.4,0,3.1,2.4-.6-.2,1.9-.2,3.1,0,.6.5,1.1.5,1.6,0,.3-1.1.2-.6,1l1.1.6-1,.3c0,.8.9,1.1.9,2,0,.9-.5,3.9-.9,4.8-.5,1-1.4,2-2.5,2.3l.8.8c-.4,1.5-2.4,1.3-2.8,1.9-.3.4-.6,2.4-.2,2.9-1,.5-1.1-.5-1.4-.5-2.6-.3-4.1,2-3.7,4.4-1.5.1-4.5-4.2-5.6-5-.7-.5-1.8-.2-2.4-1-.9-1.8.1-3.7,0-5.3-.1-2.3-1.8-3.7-2.9-5.6-4-7.2-3.3-11.9-3.6-19.6,0-1.6-1.2-6.4-.3-7.3.6-.6,1.8.2,1.8-.6-2.7,0-6.8-1.2-9.2,0-3.1,1.4-2.3,5.2-2.5,7.9-.4,6.3,0,12.6-.2,19-1.3,92.2-4.3,184.4-7,276.5-.1,3.5-.9,8.2-.7,11.6.3,4.3,3.4,4.5,6.8,4.6,36.7,1,74.2-1.7,110.8-.3.7,0,1.3.2,2,0l-.9,1.7,1.7.7c-.3,2.1,2.6-.9,1.8-1.6-.7,0-1.2.4-1.1-.6l72.4-.2-.2-4.2c-1.6-.6-8.1,0-8.9-1.2-1.6-2.2,3.5-2.8,4.3-3.3.4-.2,3.6-4.2,3.8-4.7.6-1.2.8-3.1,1.1-4.4l2.6,1.1c-4.8-7.9,7.9-11.8,8.8-2.7,0,.7-.3,1.4-.2,2.2,0,.2.9,2.5,1,2.7.7,1.2,1.9.5,2.4,1,.1.1.3,3.4.7,3.8.1.1,1.3.2,1.8.7,1.4,1.5.3,2.7-.9,3.8l-4,.2.5,1c-1,.2-2,.4-2.7-.4-.3,0-.2.4-.1.5.8,1.9,5.3,3.9,7.3,4.2,55.5.4,110.8,1.8,166.3,2.2,3.9,0,8.2.9,12.2,0,2.3-.5,3.2-2.2,5.9-1.8.8,0,1.2.6,2,.6l-.5-1.6h-3.9c0,0-.3-34.4-.3-34.4,0-1.4,2.1-1.9,3.3-1.7l-.5-1h1c.7-.9-3-1.9-3.6-.8l-.4-20.3c-1.5-.7-3-1.3-4.4-2.2-3-1.9-7.4-5.4-10.2-7.7-6.7-5.6-12.2-12.5-16.9-19.8l-21.9-2.6-.5.3-.6,3.8c-.5.2-.4-.4-.5-.8,0-1.3.3-2.5.3-3.8,3.4,0,6.9.5,10.3.9,13,1.5,29.4,5.4,42.2,4.4.6,0,1.3,0,1.5-.8l2.2-158.4c-.8.5-1.2,0-1.8-.3-4.1-2.5-9.3-8-13.6-11.1-3.3-2.4-6.2-5-10.6-4.1l1.7-.6-1.3-1.6c-1-.3-.5.9-1.1,1.1-.1,0-2.2.3-2.4.3-1.4,0-1.9-1.4-3.2-1.4,1.3,2.6,3.9,4.6,3.8,7.8h-1c-.8-2.9-2.8-7.1-5.5-8.9-.5-.3-1.2-.2-1.7-.7h1.2c0,0,.8-.8.8-.8l.8,1c-.3-.9.2-1.9,0-2.7-.1-.8-1.1-1.9-1.4-3.1-.5-1.8,0-3.4-.6-5.1,2.2-.3,3.6-3.3,4.8-5,.2-.4.1-.9.3-1.2.2-.2,1.7-.9,2.2-1.3,2.3-1.8,1.2-1.9,4.8-1.8-1-2.1-.7-5.6,2-6.3,2.9-.8,4.9,4,3.9,6-.7,1.3-4.7.4-5.9.3.8,1.8,4.6-.1,6.1.8.3.2,3.7,3.7,3.8,3.9.4,1.6-2.5,1.6-1.7,2.9,5.1,4.3,10,9,15.1,13.2.4.3.8.9,1.1.2l.9-36.7c-.2-3-.7-5.4-4.1-5.6l-30.2-1.1c2.3-1.5,5.5-1.9,7.9-3,.6-.3,1-.8,1.5-1,1.3-.6,3.2-.5,3-2.4-.1-1.7-1.4-3.1-.3-5.1,1.8-.3,1.6,1.2,2.2,1.8.6.7,1.5,1,1.9,1.9l2.3-.9c.1-.2-2.5-3.7-2.7-4.9-.3-1.6,1.2-3.1.5-4.8h1.4c.2.7-.1,1.6,0,2.4,0,.3,1.1,3.7,1.2,3.9.3.5.9.3,1,.7.4,1.1,0,2.5,2,2.7,1.4.1,1.3-1,1.7-1.4.2-.2,2-1.4,2.1-1.4.7-.2,2.7.4,4,.2,1-.2,1.6-.9,2-1s1.3.6,2,.7c3.7.4,5.1-1.5,7.3-4,3.9-4.6,6.7-10.3,9.6-15.5-1-2.8-1.7-5.7-3.4-8.3,1.2.5,2.7-1.4,2.6-2.3,0-.6-.8-.8-1-1.1-.3-.6-.3-.6-.7-1.3-1.4-2.2-.3-2.1-.5-3.2-.1-.6-.9-.5-1-.8-.2-.7-.1-2.3-.7-3.2,1.6-.6,1.3.4,2.1.8,2.1,1.3,3.2,2.9,5.1,4,1.2.7,3.6,1.3,5.1,1.9.5.2.5,1.2,2.1.3,2.3-1.4-1-2.6-.4-3.3ZM28.8,388.5c-3.5-3.9-.3-7.4,3.9-8.4,1,1.3,2.2.5,3.4,2.4,3.3,5.2-3.2,10.5-7.3,6ZM23.2,260.3c-2.5-1.2-3.8-5.3-2-7.5,1.3-1.7,4.6-2,6.4-.9,5.5,3.4.4,10.7-4.4,8.4ZM39.9,144.9c-.7.2-1.6-.5-1.6-1.2l1.6,1.2ZM40.9,150.2c-.7.5-2.7-1-2.3-1.5.8-.3.8.6,1.3.8.4.3,1.2-.4,1,.7ZM41.7,145.1v-.5c0,0,.4-.6.4-.6l.6,1h-1.1ZM361.9,383.5c4.4-1.3,8.6,3.9,4.5,7.4-6.7,5.7-10.5-5.6-4.5-7.4ZM315.5,151.5c1.3-.1,2.5.8,2.6,2.1s-.8,2.5-2.1,2.6-2.5-.8-2.6-2.1.8-2.5,2.1-2.6ZM308.9,283.8l.2-.9,26.9,4.5-.2.9-26.9-4.5ZM334.1,299.7c0-.8-.5-.7-1.1-.6l.6-2.2c1.5.2,1.7,2.1.5,2.8ZM331.3,292.5c-1.1,1.7-1.3-1.7,0-.7,0,0,0,.5,0,.7ZM314.7,180.9c1.3-.1,2.4.8,2.6,2s-.8,2.4-2,2.5-2.4-.7-2.6-2,.8-2.4,2-2.6ZM284.7,151.4c4.9-3,5.7,5.4.4,3.7-.9-1-.7-2.5-.4-3.7ZM287.6,180.7c2.4,1.9-1.5,6.7-3.6,3.2-1.5-2.5,2-4.5,3.6-3.2ZM270.7,97.7c1.1.5-.1.9,0,1.5.2.6,1.6,1.6.7,2.9l-1.1.3-.8-3.9,1.2-.7ZM257.2,149.9c1.3-.2,2.5.8,2.6,2.1s-.8,2.5-2.1,2.6-2.5-.8-2.6-2.1.8-2.5,2.1-2.6ZM256.6,179.5c1.3-.2,2.5.8,2.6,2.1s-.8,2.5-2.1,2.6-2.5-.8-2.6-2.1.8-2.5,2.1-2.6ZM243.1,140.8l2.1-.2v.4s-2.1.2-2.1.2v-.4ZM229.4,149.6c2.5,2-1.1,6.8-3.4,3.7-2-2.6,1.5-5.2,3.4-3.7ZM227,178.8c1.3-.2,2.5.8,2.7,2.1s-.8,2.5-2.1,2.7-2.5-.8-2.7-2.1.8-2.5,2.1-2.7ZM232.1,203.9l-.2,2.8h-.6s.2-2.9.2-2.9h.6ZM218.1,126.3h.5c0,0,0,.6,0,.6l-1.4.5.8-1.2ZM215.2,127.7v.7c-.7.2-1.4,0-1.4-.9l1.4.2ZM214.1,130.3c1.2-.8,2.7-.3,3.6.6-1.4,0-2.2-1.1-3.6,0v-.7ZM216.2,139.7v.4c-.7.1-1.8.4-2.2-.4h2.2ZM213.5,131.4l-.2,1.7c-2,1.4-2.7-.2-3.1-.3-.6,0-2,.7-2.3,0,2.1-1.1,3.8.5,5.5-1.4ZM200.6,121.7c.3-.6,2.2-2.4,2.8-2.6,4.9-1.8,9.2,4.7,5,8.4-4.3,3.8-10-.9-7.7-5.8ZM204.5,133.6c.5-.2.3.4.5.5.6.3,1,.4,1.7.3.6.5-3,1.1-3.4,1.5-.2-1.3,1.7-.6,1.2-2.3ZM205.3,132v-1c-.1,0,.6,0,.6,0v1c.1,0-.6,0-.6,0ZM200,127.5l.7.2-.5,1.6-.7-.2.5-1.6ZM197.9,130.8c.5,0,.9,1.8,1.3,2.2,0,0,1.4.1,0,.7-.2-.2-2.5-2.8-1.2-2.9ZM197.2,139.1l-.4.8-.9-.4,1.4-.3ZM184.5,124.5l.9,1.9-1.3.7c0-.9,0-1.3-.9-1.5l1.3-1ZM176.5,149.3c1.2.3-.3-1.9,0-2.1,2.3.4,10.2-.5,11.7,1.2.9,1,.4,3.3,2.2,2.2,1.6,3.8.7,9.3-3.8,10.4l5,9-1.8.2.2-1.1-1.5.9-1-.8-1.5.7-3.1-3.7.6-.9c-2.4.7-2.5-2.3-2.2-4.1,0-.2,1.4-.7,0-1-.8-.2-.3.8-.5,1.4,0,.1-1,.8-1.2,1.2-.3,1-.3,2.6-.3,3.7l-.6-2.1-.4,1.1-.3-1.4-.2,1.1-.8-.6.2,1.7c3.3-.5,1.1,2.1,1.5,3.8h-6s2.4-22,2.4-22l1.4,1.3ZM161.3,117.9c1.2-1,4,1.7,1,2.6-1.5.5-1.1-2.5-1-2.6ZM163.3,129.5c-.4-1.1-1.1-1.1-.6-2.4l1.1.2-.2,1.1c1.7-.5,3.5-.1,5.1-.2,1.1,0,2.4-1.4,2.7.4-1.6.6-3.2,3-5.2,2.7-.6-.1-1.1-1-1.6-.8-.4.2,0,1.5-1.6,1.2-1.5-.3-1.3-2.3.2-2.1ZM119.6,161.3c.6,1.1,0,1.8,0,3l-1,.4c-.2-.1.4-2,.5-2.4.1-.5-.6-1,.6-1ZM115.8,159.6l.6.7h.7c0,0,1.4-1.7,1.4-1.7.9,1.3,0,1.6-.4,2.8-.7.5-2.5-.9-2.3-1.8ZM115.7,162.1h-.7c0,0-.5-.9-.5-.9.6-.2,1.2.3,1.2.9ZM81.9,177.8c.9.8,1.7,0,2.4.3.5.1.5.8.7.8.7,0,1.3-1,2.1.1.1-1.1,1.7-1,2.7-1,4.3-.2,9.1.7,13.6.2.2-1,.8-1.6,1.2-2.6.5-1.2.6-2.7.9-3.8.4-1.2.7-2,1.7-2.8.9-.6,1.6-.5,2-.7,1.1-.7,1-3.6,1.6-4.9.6-.2.2.6.7.7.4,0,.7-.5,1.4-.2.9.4,1,1.6,1.1,1.7.1,0,1-.7,1.4,0l-1.3.9h1.2s0,1.1,0,1.1c.9-.4.5-1.5.5-2.2.9.5.6-.4,1.4-.5-.5-.6-1.3,0-1.6-1.2l2.4-.6v3.2s-.8-1-.8-1v4.3c.1,0,1.8-.1,1.8-.1.5.7.3,1.5,1.3,1.7l-1.4.3.3,2.4.5-1.5c.6-.2.3.6.4.7.4.3.7-1.4.5-1.8l1.1.6-.2-2.1-.7.4v-1c-.1,0,.5-.4.5-.4l-1.5-.9c1.5.7.7-.8,1.7-.2l.2-1.8-2,1-.2-1.4,2-.6c.6,1,2.1,2.6.8,3.3l.5,1.2-1.2-.9c.4,1.9,1.6,3,.2,5l1.7-.6v-2.7c0-.6.7-.4.8-.5,0-.5-.1-.9-.2-1.4,3.1-1.3,2.9.8,4.4,2.3.4.4,1,.4,1.3.8.7.7,3.2,3.2,3.5,3.7.5.9-.4,2.3,0,3.2l.3-2.2c.7-.3,1.2.8,1.7.8.5,0,3.8-3.7,4.5-4.4,1.2-1.2,2.8-2.4,4-3.9.3-.3.5-.4.3-.9-.6-.2-1.9-.5-2.3-.8-.4-.2-1.1-1.8-1.2-1.9,0,0-.8.4-1.2-.3l-.2-1.8-.2,1.5-4.3,1.2-.5-4.2c-1.6-.2.2,2.2-.8,2.6l-.3-2.8c-1,1.2-1.7,2.3-.6,3.6l-2.7,1.4c-.6-1.8,1.7-4.4-1.3-4.9.8,3.4,1.9,4.9-2.2,6.2-.5-.7-1.9-1.2-1.7-2.3,0-.3.6-.3.6-.5-.1-.6-1.1-1.4.2-2l.2,1.4c1.7-1.6-1.3-1.5-.8-3.5-1.3-.1-.4,1.4-.5,2.2l-1-1c-.4.8-.7,1.6-1.8,1.6.4-1.8,0-3.2.1-5h-1c0,0-.2-2-.2-2l2-1,.6,1.7,1-.8.8,3.8c1.1,1.2.5-3.1.5-3.3.2-2.9,1.5-3.2,4.2-3.3.4,0,.9.4,1.1.4.7,0,1.9-.9,3.8-1,11.7-.3,23.9,7.9,29.1,18.1,1.4,2.8,2.2,5.9,3.1,8.9l21.8.5.2,11.1c-.5.6-.7,1.3-1.6,1.2l-.2-1.4c-.6,0-.2.8-.8,1.1-.6.3-6.7.3-7.7.1-.8-.1-1.6-.6-1.5-1.5l-.7,1.5-1-1c.3,1.1-1,.9-1.8.9-1.3,0-2.7-.3-4-.2l-1-1v1.1c0,0-2.3,0-2.3,0-3.3,15-17.4,25.6-32.9,24.5.5-.8,1-1.7.9-2.6-.1-2.5-2.6-3.7-.9,0l-.6.3.3.6h-1.1c0,.1,1,1.1,1,1.1l-.7.4-4.2-.6,1.7-.4.5-1.7c-.4.4-.9,0-1.2.2-.4.1.1,1-.8.8.7-1.5-.6-1.6-1-2.7-.9.4-.6,2-.4,2.8.2.8.8.1.8.8-10.1-1.9-19.7-10.6-23-20.4-.5-1.4-1-2.5-.6-3.9l.5,1.4c.7-.9,2.1.4,2.2,1,.1.4-.5.9-.4,1.7.1,1.2,1.2,3,2.6,2.1-.4-1.3.5-1.8.6-2.1.2-.6-.5-1.9.9-2-1,1.1,0,1.7,0,2.6,0,1.5-.9,3.1-.6,4.5l-.6.3c1.9-.2,1.3,2,1.6,3.2.1.7.3.2.8.6-.2-2,.6-4.4-1.2-5.5,1.9-.3,0-3,.3-3.6l.7.3v-3.9c0,0,1,.6,1,.6l.2-1.3c-1.4.2-2.1.2-3.1-.9l-.3.8c-1,.1-2.1-1.5-.8-1.9-.9-.5-.9-1-.6-1.9l-1.2,1.8c-.1.8.6,1.4-.5,1.8l1.7,1,.3-.8,1.2.6-.5,1.9c-1.1-.2-1.1-1.5-1.1-1.6-.7-.6-2.3.7-2-2.1,0-.3.4-.3.5-.3.4-.9.1-.8-.5-.3-.4-1.4-.5-1.9-2-2.1-.5,0-1.2.8-1.2-.4l-.2,1.4,1.4-.5c0,1.6-1.8.7-1.1,2.4.1.4.9-.1.8.5h-1.4s0-2.3,0-2.3c-.9-.5-.6,1.2-1,.8-.1-.1-.2-.9-.7-1-.9-.1-.6,1.3-.6,1.8l1.2.3.5-.8v1.1c.1,0-2.4.1-2.4.1l-.2-1.9-1,.8-1.4-2.3c-1.1-.3-.4,1.4-1.1,1.5-.8.1,0-2.1-1-2,0,0-1.3.8-1.3.9-.2.5-.1,1.4-.3,2l1.2.8-12.9-.3c.1-4.1-.1-8.2.7-12.2ZM98.4,190.5l-1.4.2-.2-1.4c.5-.2.3.3.6.5.4.3.9.3,1,.8ZM74.3,296.2c-1.8,4.2-7.3-1.9-3.3-3.3,2.1-.7,4.2,1.2,3.3,3.3ZM72.6,242.9c1.3-.2,2.5.8,2.6,2.1s-.8,2.5-2.1,2.6-2.5-.8-2.6-2.1.8-2.5,2.1-2.6ZM88.2,371.8c-1.3.1-2.5-.8-2.6-2.1s.8-2.5,2.1-2.6,2.4.8,2.6,2.1-.8,2.5-2,2.6ZM89.9,321.3c-1.3.1-2.4-.7-2.5-2s.7-2.4,2-2.5,2.4.8,2.5,2-.8,2.4-2,2.5ZM118.1,298c-3,.9-3.6-3.2-1.4-4,3-1.1,4.5,3.1,1.4,4ZM119.2,248.5c-1.2.1-2.3-.7-2.5-2s.7-2.3,2-2.5,2.3.7,2.5,2-.7,2.3-2,2.5ZM155.7,371.8c-1.3.1-2.4-.8-2.6-2s.8-2.4,2-2.6,2.4.7,2.6,2-.8,2.4-2,2.6ZM200.6,372.1c-1.3.2-2.5-.8-2.6-2.1s.8-2.5,2.1-2.6,2.5.8,2.7,2.1-.8,2.5-2.1,2.7ZM200.7,303.4l-11.7-23.9,5.6-.3.3-9.6c1.4.8,3.3,1.8,4.9,2,1.6.2,2.9-.2,4.3-.2.4,0,1,.7,1.4.4,0,0,0-.5.2-.7.6-.4,1.5-.7,2.1-1l-.5-.8.7-.2.2,10.7c.9,0,4.7-.5,4.7.7l-12.3,23ZM202.4,253c2.5.3,7.8,5.6,3.6,7.3-.2-1.3,0-2.7-1.3-3.4-.4-.2-.8.1-.8,0-.1-.2,0-.7-.4-1-2.1-1.6-4.2.8-5.6,1s-1-.5-1.1-.5c-.3,0-.9,2-.9,2.4-.2,4.8,3.2,7.9,7.9,6.7,0,1.7-.8,2.3-2.4,2.8-3.5.9-4-.4-6.4-2.3l.3-8.3c1.3-2.6,3.8-5.1,7.1-4.8ZM194.7,252.1v-1.8c.1,0,.8,0,.8,0,.2.8-.1,1.5-.8,1.9ZM207.4,256.3v-.7c.6-.2,1.1.3,1.1.9l-1.1-.2ZM202.9,263.6c0,.7-1.8.6-2.2.5-2-.2-4.4-3.4-2.6-5-.2,2.9,2,4.7,4.8,4.4ZM199.8,261.8l1.8-.2c0,1.3-2.1.4-1.8.2ZM208.7,249.4c-4.2-1-8.1-2.3-12.3,0-.3-.4-.9-.6-1.1-1.1-.6-2.2,0-5.4-.2-7.7l-1,.5c.9-.5,0-2.4-.5-2.5-.4,0-1,.4-1.3.4-10.8-.7-22.6-1.1-33.3-.9-15,.2-31.9-1.5-47.6-1.3-1.2,0-1.7,1-2.2,0h-13.7s-.2,4.5-.2,4.5l-2.5-.3-20.6-11.9,22-11.9c2.3,1.2,1.2,3.7,1.5,5.8l209.7,4.8c.4,0,.3-4.6.6-5.6,0-.4-.3-.6.5-.6l21,13.1-21.6,12c-.4-.2-.5-.3-.6-.8-.1-.7.3-4.3.2-4.5-14-.7-28.1-.8-42.1-1.1-9.5-.2-19.2-.4-28.6-.6-8.6-.2-17.2-.1-25.7-.6l-.4,10.4ZM305.5,290.5c.2.7-1.8,2.6-2.3,1.5l2.3-1.5ZM302.7,284.8l.2-1.5,1.5.9c-1.1-.6-.4.7-1.7.6ZM304.7,287.4c-.8-2.4,1.9-1.4,3.1-2.2.3,1.3-1.9,1.2-2.7,1.4l3,1.3c.3.5-1.6,1.1-1.6,1.1-.2-.2-.2-1.8-1.8-1.6ZM292.9,283.1c1.7-.3,2.6.7,3.1,2.1-1.7,0-2.5-.6-3.1-2.1ZM295.6,290.9h-.8c-.5-.1-.7-.4-.7-.9.3.3,1.4.5,1.5.5,0,0,0,.2,0,.3ZM291.9,282.1c0-.7-1.9-1.6-1.5-2,.3-.3,3.1,1.3,3.6,1.3.5,0,.8-.8,1.6-.9.9,0,1.8,1,2.8.8v.7c-2.3-1.2-4-.2-6.5,0ZM280.9,283l-.4-2.1.8,1,.2-.7c.7-.3,2.6,0,2.9-1-3.3.6-6.6-.2-9.9-.6l-.4.7v-1c.9,0,3-.9,3.9-.7.5.2.8,1.4,2.4.6-3.7-2.2.9-1.3,1.6.2h.5c0,0,.4-.8.4-.8l2.4.5-.6.8c1.6-.7,3.9-.7,5.4.4-1,.3-2.5-.5-3.4-.3-.2,0-.1.6-.4.8-1.7.8-3.8,1.2-5.3,2.4ZM282.5,286l-1.4-.2v-.7c0,0,.9,0,.9,0l.5,1ZM273.8,299.6h-.7c0,0-2.1-2.9-2.1-2.9,2-.3,4.2.5,6-.3l-2.1,1.5-2-.7,1,2.4ZM265.1,289.5l1.3-1-1.8-1.4-.3.7-.9-.3.2-1.4.6.2.2-.6h.6c.5,0,1.5.6,2,.9.9.6,1.8,2,2.9,2.6l1.3,1.8-1.1-.2-.3.7-.3-1.1-1.6.2.6-1.1c-1.6-.8-2.1.1-3.6,0ZM261.8,289.2c-1.1.3-1.9-1.1-2.8-1.1-1.1,0-2.7,1.6-4.3,1l-2.9,14.8c.2-5.2,1.5-10.3,2.5-15.4,1.2-2.5,2.7-.6,4.1-1.2,1.5-.6,3.8-4.9,4.9-1.1-1.3.6-2.6.1-3.4,1.6l1.9,1.4ZM252.3,308.3c-.3,1,.2,1.7.3,2.5s.4,1.3-.2,1.3l-.4-1.8c-.6-.9-1,1.3-1.5,1.2,0-1.9.2-4.5.6-6.4.1-.6-.3-.9.7-.9.2,1.7-.9,2.5.4,4ZM257.7,283.9v-.7c0,0,.8-.4.8-.4l.6.4c-.3.6-.7.7-1.3.7ZM261.4,279.1l1.4-3.2c1,0,1.3,1.8,1.5,2,.2.2,1.9,0,1.8,1.9l-1.9-.8v1.1c0,0-.8-.5-.8-.5l-1.1,1.1c0-.9,0-1.3-.9-1.5ZM260.2,274.8c.7-.1,1.5-.3,1.8.5-.7.1-1.5.3-1.8-.5ZM261.1,280c-.2.3.2,3.3-.8,2.6-.6-1.1-.8-2.3.8-2.6ZM265.6,290.5l-.4.8-1.4-.9h1.8ZM272.8,282.5l-.7-.2-.3.7c0-.6.5-4.6,1.7-3.8.2.1-1.2,2.5-.7,3.3ZM274.3,277h1.8c0,.1,0,.9,0,.9-.6-.4-1.5-.1-1.7-.9ZM290.6,284.3l1.8.3v.6c-.1,0-1.9-.3-1.9-.3v-.6ZM289.4,250.2c-.1-1.1.7-2.2,1.8-2.3s2.2.7,2.3,1.8-.7,2.2-1.8,2.3-2.2-.7-2.3-1.8ZM299.8,293.3v.3c-2.1,1.2-2.4-1,0-.3ZM298.4,287.8v-.7c0,0,1.7.2,1.7.2l-1.9-1.2c.6,0,1.1-.2,1.7,0,0,0,1.2.9,1,1.2l-2.4.6ZM244.8,372.9c-1.3.2-2.5-.8-2.7-2.2s.8-2.6,2.1-2.7,2.6.8,2.7,2.1-.8,2.6-2.1,2.7ZM278.7,367.9c-2.7-.4-5.7-.6-8.5-1-8.1-1.3-15.4-3.8-23.7-2.8-7.2.9-4.4-2.7-3.9-7,.1-1.2-.1-.6.2-2,1-4.2.9-8.4,2.4-12.5l-.2-.4c-1.1-.3-2.3-1.4-2.1-2.6.3-2.2,3-2.4,3.1-2.7.4-.7.3-4.3.4-5.3,1-5.6,3-12.1,3.1-17.7l1-1.9c-.4,7-3.2,14-2.6,21l-.7-.3c0,1.5-1,4.3-.8,5.6.1.9,1.4.9,1.3,1.8-2.3-.1-1.4,1.5-1.6,2.7-.9,5.4-2.9,11.4-1.8,16.8l-.6.4.2,1.9c.6.2,1.4,0,1.9.2.3,0,.3.7.5.6.5,0,.7-.7,1-.7.2,0,3.4.9,4.2,1,13.2,1.9,26.4,4.3,39.6,6.5l3.8,1.1c-5.5-.5-10.8-1.8-16.2-2.7ZM286,281.7c1-.2,2.1.3,2.6,1.1-.8.2-2.1-.5-2.6-1.1ZM325.8,377.8c-1.6-.2-3.6-2.2-5.3-2.5-6.5-1.4-13.3-2.5-20-3.3l-3.3-1.2c6.5.9,13.1,1.8,19.6,2.9,2.2.3,11.7,2.7,13,1.8,0,0,0-.4,0-.5,3.4.6-2.8,3.1-3.9,3ZM330.4,330.8c-.6-.1-1.1-.1-1-.9,1.4-.5,2.1.4,3.3.7,0,.6-2,.3-2.3.2ZM335.3,342.3h-.5c0,0,.4-1.4.4-1.4l.6.8-.5.6ZM336.4,337.3h-.8c0,0,.2-2.3.2-2.3h.8c0,0-.1,2.3-.1,2.3ZM332.9,302.3v-2.1c1.1,0,2.7-.7,3.3.3-1.6.9-.6,2.7-3.3,1.8ZM337.3,313.3l-.8,1.8c-.1-1,0-1.7-.2-2.7-.2-.7.2-.8.6-.5,0,0,.5,1.2.4,1.5ZM338.5,319.1h-.4s-.2-1.4-.2-1.4h.7c0,0-.2,1.4-.2,1.4ZM336.6,294c-.6-.5.9-1.6,1-.6s-.8.8-1,.6ZM338.8,303.4l-.8-3.5c1.2.6.6,2.4.8,3.5ZM338.8,291.6h-.7c0,0-.2-1.3-.2-1.3h.7c0,0,.2,1.3.2,1.3ZM339,289.8l-.5-1.3-1.9-.5c1.7-.2,2.8,0,2.4,1.8ZM335,271.2c-1.2.1-2.3-.7-2.5-1.9s.7-2.3,1.9-2.5,2.3.7,2.5,2-.7,2.3-1.9,2.5ZM344.3,186.4c-1.3.1-2.4-.7-2.5-2s.7-2.4,2-2.5,2.4.7,2.5,2-.8,2.4-2,2.5ZM345.2,157c-1.2.1-2.3-.7-2.5-2s.7-2.4,2-2.5,2.4.7,2.5,2-.7,2.3-2,2.5ZM372.6,257.4c3.2-.6,6.7,3.2,4.9,6.1-.6,1.1-2.6,2.9-3.9,3-5.4.6-6.7-8.1-1-9.1ZM358.1,147.8h-.7c0,0-.2-1.7-.2-1.7.8.1.9,1,.9,1.7ZM379.6,86.4c-3.3-.3-1.6-4.4.2-4.2,0,0,1.3.5,1.3.5.3.4-1.1,3.6-1.5,3.7ZM388.6,91.3l-.9-4.5c2.2,0,1.8,2.8,2.3,4.4h-1.4ZM125.2,168.5c-.6-.2-.4.4-.8.8,0,.4,0,.7.1,1.1.4.3,2.1-1.4.7-1.9ZM125.2,168.5c-.6-.2-.4.4-.8.8,0,.4,0,.7.1,1.1.4.3,2.1-1.4.7-1.9ZM125.2,168.5c-.6-.2-.4.4-.8.8,0,.4,0,.7.1,1.1.4.3,2.1-1.4.7-1.9ZM125.2,168.5c-.6-.2-.4.4-.8.8,0,.4,0,.7.1,1.1.4.3,2.1-1.4.7-1.9ZM125.2,168.5c-.6-.2-.4.4-.8.8,0,.4,0,.7.1,1.1.4.3,2.1-1.4.7-1.9ZM125.2,168.5c-.6-.2-.4.4-.8.8,0,.4,0,.7.1,1.1.4.3,2.1-1.4.7-1.9ZM125.2,168.5c-.6-.2-.4.4-.8.8,0,.4,0,.7.1,1.1.4.3,2.1-1.4.7-1.9ZM125.2,168.5c-.6-.2-.4.4-.8.8,0,.4,0,.7.1,1.1.4.3,2.1-1.4.7-1.9ZM125.2,168.5c-.6-.2-.4.4-.8.8,0,.4,0,.7.1,1.1.4.3,2.1-1.4.7-1.9ZM125.2,168.5c-.6-.2-.4.4-.8.8,0,.4,0,.7.1,1.1.4.3,2.1-1.4.7-1.9ZM125.2,168.5c-.6-.2-.4.4-.8.8,0,.4,0,.7.1,1.1.4.3,2.1-1.4.7-1.9ZM125.2,168.5c-.6-.2-.4.4-.8.8,0,.4,0,.7.1,1.1.4.3,2.1-1.4.7-1.9ZM125.2,168.5c-.6-.2-.4.4-.8.8,0,.4,0,.7.1,1.1.4.3,2.1-1.4.7-1.9ZM125.2,168.5c-.6-.2-.4.4-.8.8,0,.4,0,.7.1,1.1.4.3,2.1-1.4.7-1.9ZM125.2,168.5c-.6-.2-.4.4-.8.8,0,.4,0,.7.1,1.1.4.3,2.1-1.4.7-1.9ZM125.2,168.5c-.6-.2-.4.4-.8.8,0,.4,0,.7.1,1.1.4.3,2.1-1.4.7-1.9ZM125.2,168.5c-.6-.2-.4.4-.8.8,0,.4,0,.7.1,1.1.4.3,2.1-1.4.7-1.9ZM125.2,168.5c-.6-.2-.4.4-.8.8,0,.4,0,.7.1,1.1.4.3,2.1-1.4.7-1.9ZM125.2,168.5c-.6-.2-.4.4-.8.8,0,.4,0,.7.1,1.1.4.3,2.1-1.4.7-1.9ZM125.2,168.5c-.6-.2-.4.4-.8.8,0,.4,0,.7.1,1.1.4.3,2.1-1.4.7-1.9ZM125.2,168.5c-.6-.2-.4.4-.8.8,0,.4,0,.7.1,1.1.4.3,2.1-1.4.7-1.9ZM125.2,168.5c-.6-.2-.4.4-.8.8,0,.4,0,.7.1,1.1.4.3,2.1-1.4.7-1.9ZM125.2,168.5c-.6-.2-.4.4-.8.8,0,.4,0,.7.1,1.1.4.3,2.1-1.4.7-1.9ZM125.2,168.5c-.6-.2-.4.4-.8.8,0,.4,0,.7.1,1.1.4.3,2.1-1.4.7-1.9ZM125.2,168.5c-.6-.2-.4.4-.8.8,0,.4,0,.7.1,1.1.4.3,2.1-1.4.7-1.9ZM125.2,168.5c-.6-.2-.4.4-.8.8,0,.4,0,.7.1,1.1.4.3,2.1-1.4.7-1.9ZM125.2,168.5c-.6-.2-.4.4-.8.8,0,.4,0,.7.1,1.1.4.3,2.1-1.4.7-1.9ZM125.2,168.5c-.6-.2-.4.4-.8.8,0,.4,0,.7.1,1.1.4.3,2.1-1.4.7-1.9ZM125.2,168.5c-.6-.2-.4.4-.8.8,0,.4,0,.7.1,1.1.4.3,2.1-1.4.7-1.9ZM125.2,168.5c-.6-.2-.4.4-.8.8,0,.4,0,.7.1,1.1.4.3,2.1-1.4.7-1.9ZM125.2,168.5c-.6-.2-.4.4-.8.8,0,.4,0,.7.1,1.1.4.3,2.1-1.4.7-1.9ZM125.2,168.5c-.6-.2-.4.4-.8.8,0,.4,0,.7.1,1.1.4.3,2.1-1.4.7-1.9ZM125.2,168.5c-.6-.2-.4.4-.8.8,0,.4,0,.7.1,1.1.4.3,2.1-1.4.7-1.9ZM125.2,168.5c-.6-.2-.4.4-.8.8,0,.4,0,.7.1,1.1.4.3,2.1-1.4.7-1.9ZM125.2,168.5c-.6-.2-.4.4-.8.8,0,.4,0,.7.1,1.1.4.3,2.1-1.4.7-1.9ZM125.2,168.5c-.6-.2-.4.4-.8.8,0,.4,0,.7.1,1.1.4.3,2.1-1.4.7-1.9ZM125.2,168.5c-.6-.2-.4.4-.8.8,0,.4,0,.7.1,1.1.4.3,2.1-1.4.7-1.9ZM125.2,168.5c-.6-.2-.4.4-.8.8,0,.4,0,.7.1,1.1.4.3,2.1-1.4.7-1.9ZM125.2,168.5c-.6-.2-.4.4-.8.8,0,.4,0,.7.1,1.1.4.3,2.1-1.4.7-1.9ZM125.2,168.5c-.6-.2-.4.4-.8.8,0,.4,0,.7.1,1.1.4.3,2.1-1.4.7-1.9ZM125.2,168.5c-.6-.2-.4.4-.8.8,0,.4,0,.7.1,1.1.4.3,2.1-1.4.7-1.9ZM125.2,168.5c-.6-.2-.4.4-.8.8,0,.4,0,.7.1,1.1.4.3,2.1-1.4.7-1.9ZM125.2,168.5c-.6-.2-.4.4-.8.8,0,.4,0,.7.1,1.1.4.3,2.1-1.4.7-1.9ZM125.2,168.5c-.6-.2-.4.4-.8.8,0,.4,0,.7.1,1.1.4.3,2.1-1.4.7-1.9ZM125.2,168.5c-.6-.2-.4.4-.8.8,0,.4,0,.7.1,1.1.4.3,2.1-1.4.7-1.9ZM125.2,168.5c-.6-.2-.4.4-.8.8,0,.4,0,.7.1,1.1.4.3,2.1-1.4.7-1.9ZM125.2,168.5c-.6-.2-.4.4-.8.8,0,.4,0,.7.1,1.1.4.3,2.1-1.4.7-1.9ZM125.2,168.5c-.6-.2-.4.4-.8.8,0,.4,0,.7.1,1.1.4.3,2.1-1.4.7-1.9ZM125.2,168.5c-.6-.2-.4.4-.8.8,0,.4,0,.7.1,1.1.4.3,2.1-1.4.7-1.9ZM125.2,168.5c-.6-.2-.4.4-.8.8,0,.4,0,.7.1,1.1.4.3,2.1-1.4.7-1.9ZM125.2,168.5c-.6-.2-.4.4-.8.8,0,.4,0,.7.1,1.1.4.3,2.1-1.4.7-1.9ZM125.2,168.5c-.6-.2-.4.4-.8.8,0,.4,0,.7.1,1.1.4.3,2.1-1.4.7-1.9ZM125.2,168.5c-.6-.2-.4.4-.8.8,0,.4,0,.7.1,1.1.4.3,2.1-1.4.7-1.9ZM125.2,168.5c-.6-.2-.4.4-.8.8,0,.4,0,.7.1,1.1.4.3,2.1-1.4.7-1.9ZM125.2,168.5c-.6-.2-.4.4-.8.8,0,.4,0,.7.1,1.1.4.3,2.1-1.4.7-1.9ZM125.2,168.5c-.6-.2-.4.4-.8.8,0,.4,0,.7.1,1.1.4.3,2.1-1.4.7-1.9ZM125.2,168.5c-.6-.2-.4.4-.8.8,0,.4,0,.7.1,1.1.4.3,2.1-1.4.7-1.9ZM125.2,168.5c-.6-.2-.4.4-.8.8,0,.4,0,.7.1,1.1.4.3,2.1-1.4.7-1.9ZM125.2,168.5c-.6-.2-.4.4-.8.8,0,.4,0,.7.1,1.1.4.3,2.1-1.4.7-1.9ZM125.2,168.5c-.6-.2-.4.4-.8.8,0,.4,0,.7.1,1.1.4.3,2.1-1.4.7-1.9ZM125.2,168.5c-.6-.2-.4.4-.8.8,0,.4,0,.7.1,1.1.4.3,2.1-1.4.7-1.9ZM125.2,168.5c-.6-.2-.4.4-.8.8,0,.4,0,.7.1,1.1.4.3,2.1-1.4.7-1.9ZM125.2,168.5c-.6-.2-.4.4-.8.8,0,.4,0,.7.1,1.1.4.3,2.1-1.4.7-1.9ZM125.2,168.5c-.6-.2-.4.4-.8.8,0,.4,0,.7.1,1.1.4.3,2.1-1.4.7-1.9ZM125.2,168.5c-.6-.2-.4.4-.8.8,0,.4,0,.7.1,1.1.4.3,2.1-1.4.7-1.9ZM125.2,168.5c-.6-.2-.4.4-.8.8,0,.4,0,.7.1,1.1.4.3,2.1-1.4.7-1.9ZM125.2,168.5c-.6-.2-.4.4-.8.8,0,.4,0,.7.1,1.1.4.3,2.1-1.4.7-1.9ZM125.2,168.5c-.6-.2-.4.4-.8.8,0,.4,0,.7.1,1.1.4.3,2.1-1.4.7-1.9ZM125.2,168.5c-.6-.2-.4.4-.8.8,0,.4,0,.7.1,1.1.4.3,2.1-1.4.7-1.9ZM125.2,168.5c-.6-.2-.4.4-.8.8,0,.4,0,.7.1,1.1.4.3,2.1-1.4.7-1.9ZM125.2,168.5c-.6-.2-.4.4-.8.8,0,.4,0,.7.1,1.1.4.3,2.1-1.4.7-1.9ZM125.2,168.5c-.6-.2-.4.4-.8.8,0,.4,0,.7.1,1.1.4.3,2.1-1.4.7-1.9ZM125.2,168.5c-.6-.2-.4.4-.8.8,0,.4,0,.7.1,1.1.4.3,2.1-1.4.7-1.9ZM125.2,168.5c-.6-.2-.4.4-.8.8,0,.4,0,.7.1,1.1.4.3,2.1-1.4.7-1.9ZM125.2,168.5c-.6-.2-.4.4-.8.8,0,.4,0,.7.1,1.1.4.3,2.1-1.4.7-1.9Z"/>
  <path d="M393.8,163.6l-10.7-8.9c-.4-.8-1.7-2.9-2.3-3.4s-1.9,0-2.5-.7l2-.9c-1.4-.6-2.1-2.2-3.2-3.2s-2.5-1.1-2.4-2.4l18.6,15.5c1,1.2.3,2.7.5,4.1Z"/>
  <path d="M26.1,115.5c-.9,1.1-1.6-3.3-1.5-3.7,1.4-.4,1.9,3.3,1.5,3.7Z"/>
  <path d="M26.5,134c.5-.7,1.7,1.2.7,1.3s-.9-1.1-.7-1.3Z"/>
  <path d="M39.4,131.8v.7c-.6.2-.9.1-1.4-.4l1.4-.3Z"/>
  <polygon points="30.7 136.7 30.7 137.8 29.7 136.8 30.7 136.7"/>
  <path d="M161.3,117.9c1.2-1,4,1.7,1,2.6s-1.2-2.5-1-2.6Z"/>
  <path d="M213.2,133.2c-2,1.4-2.7-.2-3.1-.3-.6,0-2,.7-2.3,0,2.1-1.1,3.8.5,5.5-1.4l-.2,1.7Z"/>
  <path d="M205,134.1c.6.3,1.1.4,1.7.3.6.5-3,1.1-3.4,1.5-.2-1.3,1.7-.6,1.2-2.3.5-.2.3.4.5.5Z"/>
  <path d="M184.1,127c0-.9,0-1.3-.9-1.5l1.3-1,.9,1.9-1.3.7Z"/>
  <path d="M199.2,133c0,0,1.4.1,0,.7-.2-.2-2.5-2.8-1.2-2.9s.9,1.8,1.3,2.2Z"/>
  <path d="M39.8,149.5c.4.3,1.2-.5,1,.7-.7.5-2.7-1-2.3-1.5.8-.3.8.6,1.3.8Z"/>
  <rect x="230.3" y="205" width="2.8" height=".6" transform="translate(10.3 421.6) rotate(-85.9)"/>
  <path d="M217.7,131c-1.4,0-2.2-1.1-3.6,0v-.7c1.1-.8,2.6-.3,3.6.6Z"/>
  <path d="M215.2,127.7v.7c-.7.2-1.4,0-1.4-.9l1.4.2Z"/>
  <path d="M358.1,147.7h-.7c0,0-.2-1.7-.2-1.7.8.1.9,1,.9,1.7Z"/>
  <rect x="199.2" y="128" width="1.7" height=".7" transform="translate(21.1 284.8) rotate(-73.8)"/>
  <path d="M262,275.2c-.7.1-1.5.3-1.8-.5.7-.1,1.5-.3,1.8.5Z"/>
  <path d="M216.2,139.7v.3c-.7.1-1.8.4-2.2-.5h2.2Z"/>
  <path d="M276.1,277.2v.7c-.6-.4-1.6-.1-1.8-.9h1.8Z"/>
  <polygon points="218.6 126.2 218.7 126.9 217.3 127.4 218.1 126.3 218.6 126.2"/>
  <path d="M39.9,144.9c-.7.2-1.6-.5-1.6-1.2l1.6,1.2Z"/>
  <polygon points="42.8 144.9 41.7 145.1 41.7 144.5 42.1 144 42.8 144.9"/>
  <rect x="205.3" y="130.9" width=".7" height="1.1" transform="translate(-13.9 24.7) rotate(-6.7)"/>
  <polygon points="197.2 139.1 196.8 139.8 195.9 139.4 197.2 139.1"/>
  <rect x="243.1" y="140.7" width="2.1" height=".3" transform="translate(-14.7 29.3) rotate(-6.7)"/>
  <g>
    <polygon points="265.6 290.5 265.1 291.3 263.8 290.4 265.6 290.5"/>
    <path d="M336.6,294c-.6-.5.9-1.6,1-.6,0,.2-.8.8-1,.6Z"/>
  </g>
  <path d="M180.8,157v-5c6.7-1.6,5.8,5.7,0,5Z"/>
  <path d="M187.4,152.3c-.1,1.4.5,3.6-.9,4.4.3-1.2,0-2.5.1-3.6,0-.7,0-.8.8-.8Z"/>
  <path d="M187.8,155.8c-.7-.6,1.1-3,1.5-2.7.3,1.1-.7,2-1.5,2.7Z"/>
  <polygon points="187.1 168.4 186.1 168.5 186.2 166.4 187.1 168.4"/>
  <polygon points="187.5 159.8 186.5 159.9 186.3 158.2 187.5 159.8"/>
  <polygon points="181.4 159.4 180.6 158.7 181 157.7 181.4 159.4"/>
  <polygon points="189.9 155.6 190.1 157 189.4 157.1 189.6 155.6 189.9 155.6"/>
  <path d="M208.5,122.4c-1.8.7-2.7-1.1-3.8-1.5-.6-.2-1.4.3-1.5-.4,2.1-.7,4,.3,5.2,1.9Z"/>
  <path d="M201.2,267.4c-1,.3-1.9-.2-1-.9l1,.9Z"/>
  <g>
    <path d="M119.8,200.2l-1.3.9,1.3,2.3c.1,0,.3,0,.4.1l.6-.4v-1.7c-.1,0-1-1.2-1-1.2ZM119.8,200.2l-1.3.9,1.3,2.3c.1,0,.3,0,.4.1l.6-.4v-1.7c-.1,0-1-1.2-1-1.2ZM119.8,200.2l-1.3.9,1.3,2.3c.1,0,.3,0,.4.1l.6-.4v-1.7c-.1,0-1-1.2-1-1.2ZM119.8,200.2l-1.3.9,1.3,2.3c.1,0,.3,0,.4.1l.6-.4v-1.7c-.1,0-1-1.2-1-1.2ZM119.8,200.2l-1.3.9,1.3,2.3c.1,0,.3,0,.4.1l.6-.4v-1.7c-.1,0-1-1.2-1-1.2ZM119.8,200.2l-1.3.9,1.3,2.3c.1,0,.3,0,.4.1l.6-.4v-1.7c-.1,0-1-1.2-1-1.2ZM119.8,200.2l-1.3.9,1.3,2.3c.1,0,.3,0,.4.1l.6-.4v-1.7c-.1,0-1-1.2-1-1.2ZM119.8,200.2l-1.3.9,1.3,2.3c.1,0,.3,0,.4.1l.6-.4v-1.7c-.1,0-1-1.2-1-1.2ZM119.8,200.2l-1.3.9,1.3,2.3c.1,0,.3,0,.4.1l.6-.4v-1.7c-.1,0-1-1.2-1-1.2ZM119.8,200.2l-1.3.9,1.3,2.3c.1,0,.3,0,.4.1l.6-.4v-1.7c-.1,0-1-1.2-1-1.2ZM119.8,200.2l-1.3.9,1.3,2.3c.1,0,.3,0,.4.1l.6-.4v-1.7c-.1,0-1-1.2-1-1.2ZM119.8,200.2l-1.3.9,1.3,2.3c.1,0,.3,0,.4.1l.6-.4v-1.7c-.1,0-1-1.2-1-1.2ZM119.8,200.2l-1.3.9,1.3,2.3c.1,0,.3,0,.4.1l.6-.4v-1.7c-.1,0-1-1.2-1-1.2ZM119.8,200.2l-1.3.9,1.3,2.3c.1,0,.3,0,.4.1l.6-.4v-1.7c-.1,0-1-1.2-1-1.2ZM119.8,200.2l-1.3.9,1.3,2.3c.1,0,.3,0,.4.1l.6-.4v-1.7c-.1,0-1-1.2-1-1.2ZM119.8,200.2l-1.3.9,1.3,2.3c.1,0,.3,0,.4.1l.6-.4v-1.7c-.1,0-1-1.2-1-1.2ZM119.8,200.2l-1.3.9,1.3,2.3c.1,0,.3,0,.4.1l.6-.4v-1.7c-.1,0-1-1.2-1-1.2ZM119.8,200.2l-1.3.9,1.3,2.3c.1,0,.3,0,.4.1l.6-.4v-1.7c-.1,0-1-1.2-1-1.2ZM119.8,200.2l-1.3.9,1.3,2.3c.1,0,.3,0,.4.1l.6-.4v-1.7c-.1,0-1-1.2-1-1.2ZM119.8,200.2l-1.3.9,1.3,2.3c.1,0,.3,0,.4.1l.6-.4v-1.7c-.1,0-1-1.2-1-1.2ZM119.8,200.2l-1.3.9,1.3,2.3c.1,0,.3,0,.4.1l.6-.4v-1.7c-.1,0-1-1.2-1-1.2ZM119.8,200.2l-1.3.9,1.3,2.3c.1,0,.3,0,.4.1l.6-.4v-1.7c-.1,0-1-1.2-1-1.2ZM119.8,200.2l-1.3.9,1.3,2.3c.1,0,.3,0,.4.1l.6-.4v-1.7c-.1,0-1-1.2-1-1.2ZM119.8,200.2l-1.3.9,1.3,2.3c.1,0,.3,0,.4.1l.6-.4v-1.7c-.1,0-1-1.2-1-1.2Z"/>
    <path d="M118.1,161.4c-.7.5-2.5-.9-2.3-1.8l.6.7h.7c0,0,1.4-1.7,1.4-1.7.9,1.3,0,1.6-.4,2.9Z"/>
    <path d="M119.6,161.3c.6,1.1,0,1.8,0,3l-1,.4c-.2-.1.3-1.9.4-2.4s-.6-1,.6-1Z"/>
    <path d="M97.4,189.8c.4.3.9.3,1,.7l-1.4.2-.2-1.4c.5-.2.3.3.5.5Z"/>
    <path d="M115.8,162.1h-.7c0,0-.5-.9-.5-.9.6-.2,1.2.2,1.2.9Z"/>
    <path d="M126.3,185.3c0,.3-3,3.5-3.5,4-.3.3-.8.4-1.1.7-.8.8-3.2,3.8-4.2,3.7-2.5-4.1-2.3-9.1-2.2-13.7l-1.3.9v-1.4c-.1,0,1.3,0,1.3,0-.9-1.3-1.4-2.3-1.5-3.9l1,.6v-1.1c.7-.1,1.6-.3,1.9.5-1.9.5-.6,2.4-1,3.7l1.9-3.4c1,1.1,1.5,2.2,3.2,1.1,0,3.8,4,5.4,5.6,8.4Z"/>
    <path d="M143.7,202.9c-5.2,3-11.9,2.6-17.1-.1,1.1-1,1.9-1.5,1.4-3.2l-.7,1.5c-1.1.2.4-.9-.9-.6.8-1.1.4-2.1.4-3.4l.2-.4c.8,0,1.8,0,1.7-1.1l.4.8-1.4,1.1v1.1c0,0,1.2-1.2,1.2-1.2l.9,1.3v-2.1c.1,0,.9.6.9.6l.4-1.5.4.7.8-.8c-.5,3.6,3.1-1.6,3.4-1.5.9,1.7,3.1,3.8,5,3.3-.7,2.9,1.7,3.5,3.1,5.5Z"/>
    <path d="M154.2,191.1c-.2.6-1,3.6-1.8,3.2l-8.1-8.5c0-.6,2.4-2.1,2.6-3,.2-.6-.6-1.8.4-2.5l.6,1.7.8-1-.8-.4c-.3-.3,1.1-1.4,1.4-.6l.3.8,3.1-3.9c3,4,3,9.7,1.6,14.3Z"/>
    <path d="M124,196c0-.7.7-1,.5-1.7l-1.4.5.5,1.7c-1.1-.9-1.2,0-1.6,0-.6,0-2.1-1.2-2.3-.1-.2,1,1.2.2,1.5.4l.4,3.5-1.1-.2.6-.8-1.5-.4,1-.3-.5-1.4-1.2,1.9-1.4-3.1-.2,1.6.8.3c-1,.8,0,1.5,0,2.4,0,1.1-.4,2.3-.3,3.5l-.5-1-.6.6,1,2.6c1.3-.6.4-2.2.7-2.8.5-1,.8-.2,1.5,0l-1.3-2.3,1.3-.9.8,1.2v1.7c.1,0-.4.4-.4.4-.1,0-.3-.1-.4-.1l1.1,3.1,1.4-.5c-.2.7-1.1,1.1-.5,1.8l-1.3-.2-.2.6-.7-.2c.9,1.2,0,2.5-1.4,2l-.3-1.4-1.4.7c1.1.2.5,1.5,1.9,1-.8,1.4.6.4,1.1.7.3.2,1.6,1.7,1.8,2.2l.6-1h1.1c0,0-.5-1.1-.5-1.1,1.8-1-.4-.6-.2-2l.5.6.6-.4c-.1.6.6,1.4.6,1.9,0,.2-.6.2-.7.5,0,.5,0,1.7.4,2.2.2-.4.8-2.6.8-2.8,0-1.1-.2-.8-.2-2.5,0-2,.1-3.9-.3-5.8-.7.4-.4,1.7-1.7,1.1.3-1.9.6-.9.9-1.1,0,0,.4-.7,1-.9-.5-.3-.6-1-.8-1.3,0,0-1.9.5,0-.7l-1.2-1.5,1.9,1.6c1.1-1.7-.1-2.8-.1-4.1ZM121.1,210.7l-.2-1.4,1.2,1.3h-1ZM122.7,205.2c.2-1,.6,0,.7.1.2.2.7,0,.6.3l-.5,3.4-1.4-1.1c.6-.9.4-1.9.6-2.8Z"/>
    <path d="M147,205.2c.9.5.9,1.4,0,1.8l-.3-.7-1.2.5c0,.6.5.2.7.3.3.4.2,1.2.3,1.7l.2-1.1c.9.1.6,1.3.9,2-2,.3-1.4-1.2-2.2-2.2-.7.6,0,1.7,0,2,0,.6-.9.6-1,.1,0-.2.2-.7.1-1.1-.1-.6-.5-1.1-.5-1.7,0-.8.7-1.4.1-2.3l1.1.2c.4-.7-1.9-3.9,0-3.9l.6,2.1v-2.1c.1,0,2,1.1,2,1.1-.7,1.4-1.7,2.4-1.3,4.2l.4-.8Z"/>
    <path d="M117.1,207.6l-1.4.2v1.4c-1.2-.4-.8-1.5-1.2-2.1-.2-.4-1.2,0-.5-1.3l-1.1-.2-.2,1.1v-3.2s.7.2.7.2v-.7s1.1.9,1.1.9v-1.8c.9,0,.6,1.2.8,1.6,0,0,.5,0,.7.5.5,1.1.8,2.1,1,3.3Z"/>
    <path d="M116.9,197.8c0,.8,1.2,2.8.3,3-1.4-.5-1.7.2-2.6,1,0-1-.5-3.2-.4-4,0-.2.5-.3.6-.6.2-1.1-.2-2.2,1.1-3.1-.1,1,1.1,1.4,1.2,1.9.3.7-.3,1.2-.3,1.7Z"/>
    <path d="M132.4,206.9v3.2s-1.8,0-1.8,0l-.7-1.2-.8.8-.8-1v.7c0,0-1-.2-1-.2l-.3,1.2c0-.2,0-.3,0-.5,0-.2,0-.3,0-.5-.1-.9-.5-1.7-.7-2.6l2.8.3.3-.7.2,1.8h1c0-.1-.3-.7-.3-.7l1.2-1.3.2,3.2.6-2.6Z"/>
    <path d="M139.6,213.8l-.4,1.6-1.4-.9.6-.6c-1-.1-.8-.6-.9-1.5-1.7,1.1-2.2-.8-3.1-2l.7-.6c-.5,0-1.6-.3-1.9-.7-1.5-1.9,1-2.2.4-.2l.5-1.5.8.5h1.7c0,0-.9,1.1-.9,1.1l1.1.2-.2,1.1-1.1-.2.2,1.4c1.2-.3,1.4,0,2.1.8l.2-2.9c1.5.4,1.6,2.9.8,4l.8.3Z"/>
    <path d="M92.6,189.8h-1.4c0,.1-.8-1.5-.8-1.5-.3.8-.8,1.6-1.8,1.6l-.2-1.4,1.1.2-.5-1,1.2-.5.5.7.5-1.5,1.3,3.4Z"/>
    <path d="M154.3,171.9c.4,2.2,1.4,2.7-.7,4.4-1.6,0-.6-3.9-.3-4.2.2-.2.7,0,1-.2Z"/>
    <path d="M155.4,171.7c-.3,0-.7,0-1,.1-.4-2.3.2-1,.6-1.3.5-.5-.3-1.5.9-1.4l-.4,2.5Z"/>
    <polygon points="162 200.6 161.4 200 160.7 202.2 159.3 201.6 158.7 203.1 158 200 160.5 200.8 160.9 198.9 162 200.6"/>
    <path d="M139.4,181.5h-1.1c0,0-.2,1.2-.2,1.2h-1.4s-.2,1.3-.2,1.3l-1.5-.5v-.7c0,0,1,.1,1,.1.4-.4.5-2.9,1.8-2.9l-.2,1.4c.6,0,0-1.1,1.1-.9.2,0,.4.7.6,1Z"/>
    <path d="M153.3,210.5c-1.2-.5-1.3-5.6.3-4.7l-.6,1.1c.2,0,.6-.1.7.2.2.4.5,3.7-.5,3.4Z"/>
    <path d="M153.2,204.5c.4-.2,1-.3,1.4-.5.2,1.1.5.3.8,1l-1.7.6-.5-1Z"/>
    <path d="M157.6,203.1c-1.2.3-1,2.3-1.9,1.6l.2-1.6c-.8,0-.5.4-1.3.9-.3-1.2,0-1.4,1.3-1.2l-.5-1.4c1.5-.6,1.2,1.1,2.3,1.7Z"/>
    <path d="M153.8,200.8l-1.4-1.3v.7c-.1,0-.8-.2-.8-.2l-.7,1.1c0-.9,0-2.5,1.1-2.6l-.8-.6c2.1-.4,1.7,1.6,2.5,2.9Z"/>
    <path d="M146.6,166.4l-.2,2.5c-.7-.2-2.3-2.1-1.9-2.6h2.2Z"/>
    <path d="M156.6,175.5c0-.9,0-1.3-.9-1.5l.5-1.7c.1,0,1.3.2,1.4.2.6.7-.5,2.3-1,2.9Z"/>
    <path d="M113.7,193.2l-.4,2.3c-1.2.6-1.2-2.6-1-2.7l1.5.4Z"/>
    <path d="M125.1,178.1l-.4,4c-.7-.3-1.4-2.6,0-1.8l-.6-2.1h1.1Z"/>
    <path d="M113.5,170.2c-.1,1.2.4,3.2-.6,4-.2-1-.2-2,0-3.1,0-.6-.4-.9.6-.9Z"/>
    <path d="M128.2,183.3c0,.7-.2,2.1-.8,2.4-.2-.8,0-1.6,0-2.4,0-.4-.4-1.5.4-1.2,1,.3.4.9.3,1.2Z"/>
    <path d="M137.6,178.8c0,.1-.6.2-.8.5-.3.5-.3,1.1-.8,1.2-.3-1.2.2-2.4.9-3.3l.7,1.6Z"/>
    <path d="M148.4,176.1l-.3-2.5h1c0,1,1.3,2.5-.8,2.5Z"/>
    <polygon points="136.2 190.6 134.8 191.3 134.7 188.8 136.2 190.6"/>
    <path d="M87.1,189c-.6,0-2.1.9-2.5.1,1-.4.2-.6.4-1.3,0-.5.5-1,.5-1.5,0-.6-.8-.7-.7-1.4,1,.3,1.7,1.3,1.7,2.3l-1,.3c.4.2.3,1,.6,1.1.3.2,1.1-.4,1,.3Z"/>
    <path d="M113.7,202.3c-1.6.1-1.4-1.6-.5-2.4l.5,2.4Z"/>
    <path d="M153.2,166.6s0,0,0,0l-.5.9c-.2-.5,0-.6.1-.7,0,0,0,0,.1,0t0,0s0,0,.1,0Z"/>
    <path d="M153.3,166.6v-.2q.1,0,.1,0c0,0,0,.1-.1.1Z"/>
    <path d="M154.4,166.2l-.7-.3-.3.5c0-.5-.2-1-.2-1.5l1.2,1.3Z"/>
    <polygon points="180.7 190.2 180.6 191.9 178.8 191.9 180.5 190.9 180.7 190.2"/>
    <path d="M114.8,172.6h-.7c.3-.7.6-1.4.5-2.3,0-.6-1.5-.4-.9-1.1.9-1.1,1.8,2.7,1.1,3.4Z"/>
    <path d="M152,210c-1.1.2-1.2-.8-1.3-1.6l.6-.8.6,2.4Z"/>
    <path d="M150.5,200.5l-1.9,1.7-.2-1.8c.8.3,1.3.7,2.1,0Z"/>
    <polygon points="140 174.6 140.2 176.4 138.5 176.6 138.3 175.2 139.3 175.8 140 174.6"/>
    <path d="M135.6,215.8c-.7,0-1.1-2.7-.5-2.8l.5,2.8Z"/>
    <path d="M85.2,184.6c-1.1-.4-1.3-1.7-1.4-2.7.9.3,1.1,1.9,1.4,2.7Z"/>
    <path d="M118.8,175.7c.4-1.6-1.4-.5-1.2-1.5.1-.7.9-.6,1.3-.2.6.5.8,1.4,0,1.7Z"/>
    <path d="M132.9,193.3c-1.4.4.1-1.4-1.3-1.8l.8-.6.5,2.4Z"/>
    <path d="M156,207.4l-.2-1.8c1.5,0,1.4,1.1.2,1.8Z"/>
    <path d="M134.5,158.1l-.8,2.6c0-.7-.4-2.7.8-2.6Z"/>
    <path d="M111.3,175.5l-.3-2.1h.7c.1.7.4,1.7-.4,2.1Z"/>
    <path d="M122.7,194.5v.5c-.2.6-.6.7-1.3.7v-1c-.1,0,1.3-.2,1.3-.2Z"/>
    <path d="M145.7,170.8l-1-.3-.2-1.7c.6,0,1.4,1.7,1.3,2Z"/>
    <polygon points="154.9 198.2 155.1 200 154.4 200 154.2 198.3 154.9 198.2"/>
    <polygon points="92 178.8 92.2 180.6 91.5 180.6 91.3 178.9 92 178.8"/>
    <path d="M131.8,183.4c-.9,1-.5-1.6-.9-1.7,1.1-.4,1.3,1.2.9,1.7Z"/>
    <polygon points="141.9 211.7 141.7 213.3 141.4 213.3 140.8 211.8 141.3 211.2 141.9 211.7"/>
    <path d="M132.4,189.1c0-1.2-2.2-1.6.1-1.8v1.8Z"/>
    <polygon points="88.4 187.1 87.8 187.1 87.2 186.7 87.8 185.4 88.1 185.3 88.4 187.1"/>
    <path d="M86.4,182.3c-.9-.1-.6-1.3-.9-2,.9.2.9,1.3.9,2Z"/>
    <path d="M133,184.7h-.7c-.1-.6-.2-1.2.3-1.7l.4,1.7Z"/>
    <path d="M152.9,166c-.2,0-.3,0-.4,0s0,0-.1,0c0,0-.1-.2-.1-.3s0-.2,0-.4c0,0,0,0,0-.2,0-.2,0-.5.1-.8,0-.1,0-.2,0-.3,0,0,0,0,0-.1l.5,2.1Z"/>
    <path d="M136.2,206.3c-.4,1.6-2.5.7,0-.5,0,.2.1.4,0,.5Z"/>
    <path d="M127.6,206c-.3.4-1.5-.5-1.2-.9.3-.4,1.5.5,1.2.9Z"/>
    <rect x="140.1" y="179.6" width=".4" height="2.5" transform="translate(-20 17.5) rotate(-6.7)"/>
    <polygon points="140.3 207.4 139.2 207.5 139.4 206.1 139.8 206.1 140.3 207.4"/>
    <polygon points="149.1 206.4 148.9 208.2 148.6 208.2 148.4 206.5 149.1 206.4"/>
    <path d="M140.9,209.1l-1.1-.3-.2-1c.5,0,1.5.9,1.2,1.3Z"/>
    <path d="M125.4,171.7h-1c-.1-1.2.9-1.3,1,0Z"/>
    <path d="M160.1,184.4h-.4s-.2-1.7-.2-1.7c1,.2.7.9.6,1.7Z"/>
    <path d="M153.3,168.8v-1c1.2-.2,1.3.9,0,1Z"/>
    <path d="M147.1,170.9c-.4-.3.5-1.5.9-1.2.4.3-.5,1.5-.9,1.2Z"/>
    <rect x="158" y="172.5" width=".7" height="1.1" transform="translate(-19 19.5) rotate(-6.7)"/>
    <path d="M140.5,214.9c-.2-.6-.1-1.2.5-1.5.2.6.1,1.2-.5,1.5Z"/>
    <path d="M129.7,171.4c0,.2-.8.8-1,.6-.6-.5.9-1.6,1-.6Z"/>
    <polygon points="141 210.5 139.6 210.5 140.4 209.9 141 210.5"/>
    <polygon points="145.6 182.9 144.9 183 144.8 181.6 145.1 181.5 145.6 182.9"/>
    <rect x="115.2" y="168.9" width=".7" height="1.1" transform="translate(-18.9 14.5) rotate(-6.7)"/>
    <rect x="161" y="179.3" width=".7" height="1.1" transform="translate(-19.8 19.9) rotate(-6.7)"/>
    <rect x="113" y="177.4" width=".3" height="2.1" transform="translate(-19.9 14.3) rotate(-6.7)"/>
    <path d="M144.4,165.9c-.2-.6-.2-1.2.5-1.5.2.6.1,1.2-.5,1.5Z"/>
    <polygon points="141.7 198.1 141.1 198.8 141.1 197.3 141.7 198.1"/>
    <polygon points="139.3 161.9 138.5 161.4 138.9 160.5 139.3 161.9"/>
    <path d="M124.3,174l.2,1.8h-.3c-.3-.6-.4-1-.2-1.7h.3Z"/>
    <polygon points="158.3 199.2 157.5 199.3 157.4 197.9 157.7 197.9 158.3 199.2"/>
    <rect x="123" y="159.1" width=".7" height="1.1" transform="translate(-17.7 15.4) rotate(-6.7)"/>
    <polygon points="137.5 159.2 136.5 159.3 136.4 158.8 136.9 158.2 137.5 159.2"/>
    <rect x="132.2" y="177.3" width=".7" height="1.1" transform="translate(-19.7 16.6) rotate(-6.7)"/>
    <path d="M133,178.7v1.8c-.1,0-.5,0-.5,0-.1-.6-.3-1.5.5-1.8Z"/>
    <path d="M123.4,205.3c.2.2.7,0,.6.2l-.5,3.4-1.4-1.1c.6-.9.4-1.9.6-2.8s.5,0,.7.1Z"/>
    <polygon points="122.1 210.6 121.1 210.7 120.9 209.3 122.1 210.6"/>
  </g>
</svg>