<?xml version="1.0" encoding="UTF-8"?>
<svg id="Layer_1" data-name="Layer 1" xmlns="http://www.w3.org/2000/svg" viewBox="0 0 509.16 350.95">
  <path d="M48.39,241.08l-1.93-1.93v1.93s1.93,0,1.93,0ZM55.17,240.12c-3.1.46-5.87,2.31-4.82,5.8l4.82-5.8ZM60.01,240.13l-2.9.47,1.45,1.44,1.45-1.91ZM58.07,243.03c-.97-.99-3.89,1.89-2.89,2.89s3.89-1.89,2.89-2.89ZM50.34,250.76c2.49.26,3.23-1.66,2.89-3.86l-2.87,1.95-.02,1.91ZM60.01,246.91h-1.93v.95h1.93v-.95Z"/>
  <polygon points="1.93 269.16 0 269.16 0 267.73 1.45 266.27 1.93 269.16"/>
  <rect x="5.81" y="275.95" width="1.93" height=".95"/>
  <g>
    <path d="M126.8,191.71c-3.12-.79-3.48,1.8-4.84,3.86,2.32.39,5.02-1.25,4.84-3.86ZM121.96,197.52c-1.77-.23-2.82-.05-3.85,1.45l1.43,1.43,2.42-.95v-1.92Z"/>
    <path d="M158.76,175.25c4.01.79,6.11,2.96,3.38,6.75-3.6-1.96-4.62-2.59-3.38-6.75Z"/>
    <path d="M162.6,167.58l.98,5.73c-3.32-.7-3.34-4.62-7.73-3.88,1.23-2.53,4.47-3.11,6.75-1.85Z"/>
    <path d="M53.23,259.49l.02,4.26-2.91.57c-.93-2.89,1.54-2.27,1.44-3.85-.14-2.17,1.06-1.5,1.45-.98Z"/>
    <path d="M169.4,163.62c-2.18.35-4.06-.86-4.84-2.89,1.73-.1,4.13,1.08,4.84,2.89Z"/>
    <path d="M59.04,260.46c.99,1-1.92,3.88-2.89,2.89s1.92-3.88,2.89-2.89Z"/>
    <polygon points="132.61 199.45 130.68 199.45 130.68 198.01 132.13 196.55 132.61 199.45"/>
    <rect x="137.46" y="180.1" width="1.93" height=".95"/>
    <rect x="71.63" y="239.16" width="1.93" height=".95"/>
    <path d="M55.17,240.12l-4.82,5.8c-1.05-3.49,1.73-5.34,4.82-5.8Z"/>
    <path d="M58.07,243.03c.99,1-1.92,3.88-2.89,2.89s1.92-3.88,2.89-2.89Z"/>
    <path d="M50.34,250.76l.02-1.91,2.87-1.95c.34,2.2-.4,4.12-2.89,3.86Z"/>
    <polygon points="60.01 240.13 58.56 242.04 57.11 240.6 60.01 240.13"/>
    <polygon points="48.39 241.08 46.46 241.08 46.47 239.15 48.39 241.08"/>
    <rect x="58.08" y="246.91" width="1.93" height=".95"/>
    <path d="M126.8,191.71c.19,2.61-2.52,4.25-4.84,3.86,1.35-2.06,1.72-4.65,4.84-3.86Z"/>
    <path d="M121.96,197.52v1.92s-2.42.95-2.42.95l-1.43-1.43c1.03-1.5,2.07-1.68,3.85-1.45Z"/>
    <g>
      <path d="M411.4,121.03c-4.82-.4-7.65-.79-12.58.96.37-1.94,2.04-1.59,3.39-1.93,2.68-.67,6.45-1.43,9.2-1.94-.21.75.14,2,0,2.9Z"/>
      <path d="M157.36,184.37c3.39,3.27,3.39,1.93,8.15,1.54-.78,8.14-7.85,2.65-11.15-.96l-1.91,1.92c-1.53-3.88-5.63-5.07-9.05-2.77-.14.1,1.28,3.34-2.08,2.76.43-8.24,9.84-3.37,14.04-7.72,2.2,1.59,1.01,1.75-.42,3.37.03.48,1.77,1.23,2.42,1.85Z"/>
      <path d="M107.44,219.79c.28,4.25-5.19-.62-3.87,4.84l-2.9-1.47c-.54-2.42,4.99-3.86,6.77-3.37Z"/>
      <path d="M111.31,209.13v4.84s-4.84-1.94-4.84-1.94c-.35-3.17,2.83-2.46,4.84-2.9Z"/>
      <polygon points="140.33 189.77 141.32 192.67 136.49 191.69 136.49 190.75 140.33 189.77"/>
      <polygon points="147.13 197.52 147.13 200.42 145.69 200.41 143.26 198 147.13 197.52"/>
      <polygon points="100.67 225.61 99.16 227.48 97.29 227.52 95.85 226.08 97.27 224.66 100.67 225.61"/>
      <path d="M138.41,185.9c.99,1-1.92,3.88-2.89,2.89s1.92-3.88,2.89-2.89Z"/>
      <path d="M70.66,249.81l-.98,2.89h-1.92c-.31-1.83,1.13-3.22,2.9-2.89Z"/>
      <circle cx="117.14" cy="215.89" r="1.2"/>
      <circle cx="61.97" cy="254.62" r="1.2"/>
      <polygon points="68.72 241.1 66.8 243.02 66.79 241.09 68.72 241.1"/>
      <g>
        <path d="M411.4,121.03c.14-.9-.21-2.15,0-2.9,2.26-.42,4.93-2.23,6.76.48l-6.76,2.42Z"/>
        <path d="M262.79,345.47l-6.35-1.87c-.26-2.72,1.03-2.91,2.98-4.23-23.59-3.55-47.33-6.38-71.03-9.31-5.46-.67-10.1-3.45-16.09-.86l.98-1.92c-4.67.22-13.7-2.96-17.75-1.94-.75.19-.62,1.91-1.21,1.94-.33.02-6.16-1.01-6.56-1.16-1.29-.47-1.18-2.12-2.36-2.69-2.66-1.29-7.28-.5-9.89-1,.11.02.82,1.4,1.93.98v.95s-4.83-.97-4.83-.97v-.95c.93.07,2.02-.16,2.9,0-10.99-2.11-22.27-4.28-33.53-5.82l-2.76,1.94c-1.33-2.89-4.05-3.78-7.06-4.57-7.73-2.03-16.97-2.14-24.76-5.02l-3.52-5.42c10.25-7.17-1.91-10.1-4.91-14.44s1.26-5,2.38-7.32c2.39-4.94,4.64-12.28,6.93-17.4,4.58-10.24,8.11-.98,12.57-.91,1.56.02,1.76-3.05,4.32-2.05l-.49-1.94-5.31.97c.27-1.83,2.92-.2,1.95-3.38-.1-.34-1.51-.38-1.71-.73-1.11-1.98-1.58-7.36-1.68-9.96-.03-.83-1.4-1.61-1.4-1.89.04-1.66,9.95-4.94,10.38-5.53.68-.94.39-4.78,2.43-6.27,1.39-1.02,6.19-1.6,7.94-1.31,3.01.51,1.31,3.6,4.34,2.94l-.56-2.95c2.27-1.97,5.91-1.26,8.26-2.4,3.45-1.69,3.45-7.8,11.65-5.29.31-3.83-3.35-2.3-5.1-2.95-1.13-.42-.11-2.57-3.62-1.39-2.12-4.87,5.22.18,7.13-.72,1.38-.65,1.54-2.26,2.71-3.08,8.71-6.08,17.97-6.57,27.18-10.52,5.12-2.2,12.23-8.25,16.97-10.14,2.52-1.01,7.05-.99,8.02-1.66,1.03-.71.81-3.25,1.86-3.95,1.16-.78,3.34-.11,4.85-.95.27-.15,4.27-4.09,4.43-4.36.92-1.49-.47-2.83-.26-4.19.3-1.96,4.68-4.23,1.21-6.27l-4.39.81.98,2.89h-8.72c-.25,3.79,4.58-.1,2.72,5.67-4.51,1.89-5.95,2.9-10.46.13-1.1-2.29,1.68-1.61,1.93-2.55,1.32-5.04-2.2-4.25-2.91-5.66l2-1.01-1.03-3.34c3.27-.57,2.81,2.86,6.69,2.05l.08,2.79h1.44c3.64-3.84,10.85-4.55,15.99-5.82-.79-2.79-1.07-6.92.91-9.26.78-.92,2.54-1.14,2.82-1.57,1.23-1.91-3.38-12.91,7.87-9.5l-.86-2.79c3.73-.49,2.24-3.51,3.31-5.89,1.63-3.66,7.56-4.41,11.1-3.89l-1.47,2.88c3.5-2.8,9.35-3.41,12.79-5.15,7.74-3.9,13.66-12.49,22.56-14.22l-.83-1.77c2.14-3.24,10.94-2.8,11.38-3.21.28-.26,2.22-5.71,3.4-6.69,1.54-1.29,5.27-1.07,6.2-2,.1-.1-.7-1.28.55-2.76,4.44-5.27,9.45-7.84,14.67-11.58,1.88-1.35.89-4.32,6.25-2.93l.47,2.89-.47-3.85,13.55-2.9c-1.86,2.55-6.77,3.11-9.68,3.87l2.37,1.94c2.34-1.33,5-2.13,7.37-3.34,15.73-8.07,22.86-19.39,41.12-26.64,2.99-1.19,4-4.41,4.79.92,3.33-1.95,5.54-7.08,9.2-6.76l-2.8,2.03.46,3.83c-4.61.8-8.8,2.97-13.15,4.32-1.28.39-2.71-.45-3.89-.06-5.52,1.82-13.87,7.81-17.93,12.13-1.16,1.23-1.15,3.01-1.72,3.58-2.75,2.76-6.36,5.53-10.35,5.63l.5,2.42,8.02-2.13c3.34-6.92,9.26-12.32,15.64-16.8,4.15-1.51,2.29,2.35,4.4,1.52.69-.27,1.44-1.94,2.45-2.39,1.83-.83,4.42-.53,6.6-1.14,1.7-.47,2.83-2,3.56-2.26,2.71-.94.11,3.66,2.87,2.88,2.03-.86.56-3.34.98-3.92,2.59-3.57,8.48.52,6.64-10.38-.22-1.31-1.92-2.8-1.92-3.6,0-.7,2.52-7.5,3.99-8.22,2.99,1.89-3.13,4.86.98,6.75,1.21.56,5.01-6.28,6.27-2.4.66,2.03-3.78,2.13-3.86,4.33,4.81-1.14,4.83-1.33,8.25,1.96.06-3.83,8.73-.79,9.18.48l-1.99,1.02c1.02,2.96,2.52,4.93-1.87,4.31l2.89,1.44-4.72,6.64c.21,1.16,5.1,5.87,6.15,7.48,1.65,2.53-.76,5.31,6.33,4.78.46,4.07-1.76,5.2-3.63,7.46-3.47,4.21,1.63,4.01,2.74,2.57,1.5-1.95,1.66-6.84,5.21-6.21s1.71,3,2.73,4.62c.64,1.02,3.64,1.21,2.7,5.03l14.45,1.05c.42,2.42-.37,1.82-2.14,2.25-4.15,1.01-9.86-.95-13.34,3.08,3.88,2.61,8.71,1.48,12.57-.49l-4.83,4.84,4.75-.13c-.5-3.81,2.74-3.17,5.18-4.68,1.46-.9,1.38-4.53,3.6-1.47.62,4.66-4.67,3.44-6.51,4.61-.64.4-3.06,4.51-5.01,5.16l.87,2.84,2.9.45c-3.34,1.37-4.2,5-8.7,4.87-.22,5.46,6.58-2.61,8.71-.97-.44,1.55-2.47,2.31-2.9,3.86-2.75.51-6.52,1.27-9.2,1.94-1.35.34-3.02,0-3.39,1.93,4.93-1.75,7.77-1.36,12.58-.96,5.7.48,9.61.14,14.87.33,2.83.1,7.65,3.03,10.35,1.16.95-.66,2.39-8.42,5.29-2.46l-4.36,3.86c4.59-.96,10.09.87,13.54-1.93l-.55,2.92c-7.55-1.46-5.51,2.1-9.6,5.77l.48-3.84h-3.86c1.79,5.9.26,3.68-1.35,5.86s-.5,4.73-5.43,3.8l.47-1.93c-3.4-4.45-13.82,8.11-3.87,3.86l.5,2.92,1.94-3.87c4.87,3.37,8.9,3.4,14.51,1.94.23,4.47-5.04,2.62-6.12,2.99-2.77.96-3,3.7-3.47,4.3-.27.34-5.47,4.79-5.84,4.89-7.53-.67-15.25-.86-22.83-.6-2.26.08-3.72,1.67-5.58,1.69-12,.13-31.73-6.17-43.82-8.38l-8.17.9c3.64-1.03,6.96,3.9,7.39,3.96,1.17.18,3.08-1.13,4.7-1.06,2.88.13,5.99,1.68,9.2.98,1.14,7.1-7.65,5.69-12.58,5.81-.77,3.72,5.62,1.27,7.74,1.94-1.78,3.81-7.24.71-9.67,3.39-.48,2.39,7.27,3.18,2.05,7.88l1.42,2.23c4.88-3.12,8.25,1.51,9.57,1.66,1.4.16,5.54-2.36,7.8-2.18,1.93.15,5.41,3.88,7.61,3.34,1.72-.42,2.66-6.07,6.39-4.72v2.91s10.65,0,10.65,0l-.97,3.86,21.29.98c-.77,4.72-8.51,1.97-10.39,7.24,2.26,1.64.82,4.11,1.28,5.38,1.17,3.18,5.77,5.89,3.27,11.56-6.07,1.48-6.16-3.8-10.13-6.43l-10.16,1.61,1.93-4.83c-4.82,1.93-7.59-2.44-10.15-2.93-4.12-.79,1.58,4.04,1.37,5.21l-5.45,5.37c-2.78-1.99-6.53-.34-8.39-.96-2.01-.67-.31-4.13-4.47-1.85v-2.92c-2.76,1.79-5.41-.67-7.26-.57-2,.1-3.22,3.08-4.14,3.41-.75.27-9.91,1.95-10.44,1.91-1.61-.12-2.15-1.89-4.36-1.49-1.14.21-5.13,4.16-3.81,5.45,6.85-.96,13.46.95,20.22,2.05l.11,4.74-3.82.09-.58,2.87c-2.73.62-6.19-.89-8.54-.72-4.1.3-5.05,4.9-9.28,2.59l-1.01,2.89c12.9-1.42-5.12,7.78-7.34,10.58-4.05,5.09-1.64,13.32,5.32,9.19,2.2-1.31,3.97-5.66,6.87-3.78l-1.46,4.34c1.58-3.31,2.67-3.25,6.29-2.89l.03,32.47c-2.23,4.6-.39,17.81-3.41,20.8-3.38,3.34-12.55.2-14.98,3.49-3.36,17.91,12.63,2.91,16.44,12.95h1.93s1.92-1.92,1.92-1.92l-1.94,4.33,4.2,1.5.64,2.39c-4.04,2.31-7.65.81-7.73,7.26l3.94,1.62c-.07,1.82-.2,4.14-.87,5.8-.78,1.94-2.62.72-2.1,2.75,2.57,2.2,3.86,3.69,7.39,4.31.49,6.01,6.2,2.72,7.69,4.83,2.87,4.05-2.51,5.98-4.11,7.19-.74.56-.78,1.79-1.74,2.25-.81.39-4.68-1.21-5.32-.6-.61.58-.64,5.41-5.34,5.85-1.42.13-16.34-2.62-17.32-3.18l-2.51-5.15c-4.47,1.08-10.85,2.02-9.73-4.36l-3.71,1.13-.57,4.74c-3.72,3.06-8.26-.36-10.87-.74-1.23-.18-2.56.76-3.7.66-3.97-.36-7.89-1.63-12.11-.94,2.88,3.94,9.09,2.32,12.97,2.99,4.07.71,8.11,2.15,12.19,2.82.36,4.7-5-2.68-6.64,2.37l-31.08-3.66M373.73,60.1c-.59.95.83,2.78,1.36,2.8,4.49.24,4-8.87-.48-8.68l1.28,4.58-2.17,1.29ZM346.53,71.65h-2.89v.95h2.89v-.95ZM365.89,80.37h-1.93v.95h1.93v-.95ZM388.16,82.28c-3.15-4.9-9.45.14-12.58,2.91,4.76.91,8.16-2.09,12.58-2.91ZM352.34,82.31h-5.8s0,.95,0,.95h5.8s0-.95,0-.95ZM362.77,89.81c2.75-2.82-2.93-6.41-3.64-5.57l.45,5.84c.71,1.26,2.58.36,3.19-.27ZM396.87,86.16l-2.99.57c-.83,2.33-.08,4.98-2.83,5.71l1,2.44,5.79-.98-2.9-1.94c-.41-1.6,1.68-.41,1.95-1.59.29-1.25-.15-2.87-.02-4.22ZM383.32,87.15l-6.77.47c1.19,1.39,6.22,1.74,6.77-.47ZM342.66,88.11h-1.92s-.98,3.86-.98,3.86h2.89s0-3.86,0-3.86ZM337.82,91.97v-1.93s-1.93,1.46-1.93,1.46l1.93.47ZM342.66,93.92c-1.73-.26-3.39.06-3.87,1.92,1.26.39,4.87-1.45,3.87-1.92ZM350.41,93.92h-4.83s0,.95,0,.95l4.83.98v-1.93ZM361.06,93.92l-4.42.9-.37,3.88,7.69,1.01-4.83-.96,1.93-4.83ZM336.86,95.86h-2.9s0,1.92,0,1.92h1.43s1.47-1.92,1.47-1.92ZM383.1,97.27c0-.68-.55-1.23-1.23-1.23s-1.23.55-1.23,1.23.55,1.23,1.23,1.23,1.23-.55,1.23-1.23ZM374.61,96.83c-2.01.17-6.69-.26-7.74,1.92,3.36.63,6.05,2.06,7.74-1.92ZM393,97.79c-4.05-.97-2.86,2.78-5.3,4.86-1.42,1.22-8.09,4.56-9.96,4.7l-.98-.11c-.22-3.41-2.71-.06-4.13-1.15l-1.41-2.5-2.42,2.88,3.44,1.95c.42.86-2.9,3.62-.07,3.85,2.29.18,3.65-3.76,6.3-2.87.11,1.48-.35,3.87-1.43,4.86-1.32,1.21-3.52.21-3.4,1.91,4.73,1.99,6.03-5.26,7.69-6.29.94-.59,10.06.97,10.7-2.41l-6.77-.97c3.51-1.75,13.73.12,13.06-4.86l-7.25,1.94,1.93-5.8ZM362.03,104.57l-5.76-.97-1.02,2.89,2.45,1.97c-5.24,4.94-4.06-2.54-8.62-.88l-1.57,4.73,3.87-1.92-.5,2.88c3.47-2.05,7.57-.78,11.15,0-1.84-4.05,6.24-3.7,3.39-8.7l-5.32,3.86,1.93-3.86ZM406.8,107.45c0-.66-.54-1.2-1.2-1.2s-1.2.54-1.2,1.2.54,1.2,1.2,1.2,1.2-.54,1.2-1.2ZM394.93,110.38h-1.43s-1.47,1.92-1.47,1.92h2.9s0-1.92,0-1.92ZM398.81,110.38h-2.89v.95h2.89v-.95ZM387.46,112.98c-.59-.35.08-1.95-.75-1.63l-1.45,2.9h4.83c.28-1.69-1.49-.59-2.63-1.26ZM364.93,112.32h-1.93s0,1.93,0,1.93l1.93-1.93ZM401.71,113.28l-8.72,3.38.02,3.39c.88-.61,10.49-5.17,8.7-6.77ZM406.55,113.29h-2.89v.95h2.89v-.95ZM362.02,115.23c-2.2-.34-4.12.4-3.86,2.89l1.91-.02,1.95-2.87ZM388.16,119.1l-3.86-.98v1.93s3.86,0,3.86,0v-.95ZM263.29,119.1h-1.93v.95h1.93v-.95ZM335.89,120.07c-1.75-.32-3.17,1.31-3.87,2.89,1.75.32,3.17-1.31,3.87-2.89ZM280.72,121.03c-.56.56.81,2.88,1.45,2.88,2.68,0,.02-4.34-1.45-2.88ZM375.58,121.03h-1.93s0,1.93,0,1.93l1.93-1.93ZM370.74,122c-1.21-.65-3.37,1.55-2.9,1.92,1.21.65,3.37-1.55,2.9-1.92ZM381.39,123.92c-.51-1.89-2.07-2.22-3.85-1.91l-.99,2.88,4.84-.97ZM421.08,123.94c-3.87-.07-6.55,1.6-5.8,5.8l5.8-5.8ZM371.71,126.84c-1.77-.33-3.21,1.06-2.9,2.89h1.92s.98-2.89.98-2.89ZM398.81,131.67l-.47-2.89-1.45,1.46v1.43s1.92,0,1.92,0ZM434.63,128.78l-3.87.97v1.92s2.77-.13,2.77-.13l1.09-2.76ZM393.97,131.67v-1.93s-3.86.98-3.86.98v.95s3.86,0,3.86,0ZM406.55,129.75h-2.89v.95h2.89v-.95ZM429.78,130.72c-2.58-.21-6.82.46-6.77,3.86l6.77-3.86ZM289.42,133.62h-3.86v.95h3.86v-.95ZM351.38,133.62c-1.83-.32-3.22,1.13-2.89,2.89l2.89-2.89ZM401.71,133.62c-.97-.99-3.89,1.89-2.89,2.89s3.89-1.89,2.89-2.89ZM289.42,136.52h-1.43s-1.47,1.92-1.47,1.92h2.9s0-1.92,0-1.92ZM375.58,137.49c-2.05.09-4.18-.29-6.23.05-.85.14-5.06,1.7-5.38,2.84,3.32-1.07,6.86-.57,10.18-.96,1.44-.17,2.96-.77,1.43-1.93ZM385.25,137.49c-.73-.73-3.92-.45-2.89,2.41,1.2,3.34,4.17-1.13,2.89-2.41ZM315.81,139.4c0-.66-.54-1.2-1.2-1.2s-1.2.54-1.2,1.2.54,1.2,1.2,1.2,1.2-.54,1.2-1.2ZM346.53,138.46c-3.08-.5-2.43,3.3-3.88,4.33-1.65,1.18-6.65,1.13-7.73,4.37,7.2,1.41,9.73-2.54,11.61-8.7ZM355.25,139.43c-2.16-.19-3.9,2.23-4.83,3.85.82.78,4.36-3.02,4.83-3.85ZM431.71,147.17l-.47-2.9-1.44,1.45,1.91,1.45ZM345.5,156.38l-10.64,1.52.21,1.49,10.64-1.52-.21-1.49ZM283.62,168.48c-1.98-.66-7.13-1.95-6.77,1.92l6.77-1.92ZM348.47,171.37c3.38-2.96-15.73-5.96-13.54,1.94,1.9-.19,4.44.47,6.18-.13,1.85-.64.9-4.49,7.36-1.8ZM340.98,178.13c0-.66-.54-1.2-1.2-1.2s-1.2.54-1.2,1.2.54,1.2,1.2,1.2,1.2-.54,1.2-1.2ZM389.13,182.01l-1.47-1.92h-1.43s0,1.92,0,1.92h2.9ZM310.72,208.16v1.94s6.79,0,6.79,0v-1.94s-6.79,0-6.79,0ZM249.73,210.11h-1.93v.95h1.93v-.95ZM266.68,261.42h14.52c.47,0,8.08,2.3,8.92,2.7,8.68,4.14,10.5,18.15,2.18,23.89-10.25,7.08-23,1.59-33.27-2.36-7.61,9.18,4.34,14.63,12.5,15.46,18.57,1.87,37.91-2.99,39.19-24.7.67-11.32-5.49-16.22-14.48-21.27,1.64-3.23,5.04-4.3,7.16-7.34,4.99-7.15,3.19-15.26,3.46-23.44-8.78-9.55-15.21-12.71-28.55-11.34-3.84.39-17.6,5.98-18.73,9.34-.69,2.04.07,5.17-.2,7.43,3.73,3.7,7.5-1.74,11-3.4,10.69-5.1,21.91-4.53,22.82,9.51.58,8.85-5.92,14.42-14.19,15.58-3.43.48-10.31-.54-12.43,1.13l-1.2,7.21,1.3,1.6ZM201.35,252.71c-2.7-12.37,6.55-27.83,19.85-29.03,4.49-.41,15.96,2.22,17.3,1.84,3.19-.9,2.63-8.43-3.05-10.31-15.37-5.1-33.79,2.22-41.07,16.49-8.06,15.79-10.12,64.58,11.74,69.98,22.24,5.49,40.35-7.78,39.79-31-.59-24.55-26.79-26.55-44.55-17.97ZM156.81,257.54c2.51-2.8,5.65-3.62,8.25-6.75,10.26-12.38,5.04-33.46-12.12-34.87l.04,6.33-7.78.45,7.65,4.44c10.52,10.56,2.71,24.71-11.15,26.43-6,.75-14.74-2.69-11.79,7.18,1.34,4.49,13.25,2.1,17.63,2.7,8.81,1.2,16.43,9.23,14.68,18.35-2.65,13.88-20.61,13.31-31.1,9.69-3.41-1.18-5.74-3.8-9.14-3.92-6.62,18.28,27.21,17.4,37.13,13.42,20.42-8.18,20.97-39.83-2.29-43.45ZM108.41,237.2l-1.47-1.92h-1.43s0,1.92,0,1.92h2.9ZM112.28,242.07l-3.85,2.41c1.96,2.45,4.52,3.74,7.73,3.38-.95-2.55-3.33-3.14-5.81-2.9l1.94-2.89ZM89.05,263.36h-1.93s1.46,1.93,1.46,1.93l.47-1.93ZM89.54,274.01c6.1-.2,12.28,0,18.39,0,2.56,0,4.5-9.27-1.92-9.78-.66-.05-8.81.5-9.25.66-.64.23-10.52,7.96-10.59,8.64-.26,2.41,3.19.49,3.37.48ZM68.97,274.96c0-.66-.54-1.2-1.2-1.2s-1.2.54-1.2,1.2.54,1.2,1.2,1.2,1.2-.54,1.2-1.2ZM272,274.01l-3.86,1.44,2.4,1.45,1.46-1.46v-1.43ZM87.11,275.95h-5.8v.95h5.8v-.95ZM125.11,280.77c0-.66-.54-1.2-1.2-1.2s-1.2.54-1.2,1.2.54,1.2,1.2,1.2,1.2-.54,1.2-1.2ZM278.77,279.82h-1.43c-7.51,3.33,1.93,6.87,1.43,0ZM79.62,284.64c0-.66-.54-1.2-1.2-1.2s-1.2.54-1.2,1.2.54,1.2,1.2,1.2,1.2-.54,1.2-1.2ZM72.59,286.6c-2.67-.03-6.91-.93-6.77,2.89,1.7.36,2.23-1.14,3.63-1.69,1.25-.49,3.36.52,3.13-1.2ZM335.89,319.52h-1.93v.95h1.93v-.95ZM299.1,326.29v-1.93h-.95v1.93h.95ZM264.25,339.86h-2.89v.95h2.89v-.95ZM335.89,345.67l-2.9.47,1.45,1.44,1.45-1.91ZM338.79,347.6h-2.89v.95h2.89v-.95Z"/>
        <path d="M372.96,243.7c.91.84,2.64.92,3.58,1.75,2.96,2.62,5.58,7.25,11.07,6.36.85-.14.58-2.4,1.48-3.52,4.12-5.15,6.04-3.26,11.04-4.38,2.68-.6,5.23-2.06,7.91-2.69,2.03.29,1.39,4.63.18,5.47-1.58,1.1-3.37-1.58-2.08,3.16-.78,1.14-12.96,5.39-14.81,5.55-2.33.19-4.96-1.37-7.33-.8-1.12.27-1.09,3.06-3.28,3.73-4.84,1.5-11.95-1.81-16.65,2.28.95,5.1-1.58,9,1.96,13.74,1.14,1.53,3.81,2.09,3.8,3.99-2.16,4.44-3.46,6.35-8.78,5.34v-9.69s1.95-.47,1.95-.47c-5.93-2.14-1.79-10.42-1.92-14.47-.02-.65-1.99-.13-2.07-1.97-.22-4.82,2.33-12.41,1.09-17.95l4.33,1.94c4.62-7.77,5.97.23,8.53,2.6ZM365.9,244h-1.93s0,1.93,0,1.93l1.93-1.93ZM367.83,247.87c-4.32-.83-3.38,8.65-1.45,8.69,2.08.04-.07-7.24,1.45-8.69Z"/>
        <path d="M383.11,202.57c.22.12.16,1.69.81,1.79l9.08-1.02-1.93,7.74c.55.58,9.73-5.78,9.66-1.45-.03,1.44-12.57,7.74-12.56,11.68l-2.91-.54.8-6.6c-5.21-4.96-9.76-4.13-15.3.31,12.81,10.11-11.39,8.7-10.71,1.98.52-5.16,8.59-4.24,10.68-8.78l-.19-1.28c-4.82-2.07.05-4,3.59-4.03,1.31-.01,8.58,0,8.99.22Z"/>
        <path d="M411.38,61c1.1,2.56,0,3.08-.99,5.32l2.04,1.03-3.94,7.2c3.74.65,4.29-2.7,6.29-4.81,3.51,4.19-1.6,7.24-1.47,11.6l-.94-4.34-1.92-.46-8.25,9.65c-3.44-2.31.11-4.06.32-5.51.17-1.13-1.38-1.93-1.4-2.72s2.21-2.44.64-4.29l6.77-3.57-2.94-3.27c-.9,2.52-1.54,5.7-4.86,4.83,1.05-1.88.8-3.08-.94-4.35l8.65-2.46.04-3.84h2.89Z"/>
        <path d="M464.63,92.95c1.13,4.96-3.7,5.03-4.62,6.08-.49.55.01,2.16-.31,2.47-.63.6-5.59-.46-6.65,2.58,3.23,4.21,9.47-1.95,11.59,2.41-4.47-.26-6.34,4.61-10.15,4.88-3.34.24,1.15-3.49-1.95-4.85-1.22,2.75-9.09,2.52-9.18.47,2.18-10.06,11.06-3.29,17.34-9.75,1.41-1.45,1.02-4.66,3.92-4.3Z"/>
        <path d="M449.14,73.58l.97,4.83-4.85.5,3.73,2.54c1.65,5.3-4.39,5.21-8.11,6.52l-.48-3.29,5.83-1.41-4.86-.47c-1.92-1.04.85-3.07,1.01-4.38-.38-.33-3.94.84-2.9-1.45,1.19-2.61,3.87-.5,5.2-.73,1.68-.29,2.2-3.25,4.46-2.67Z"/>
        <path d="M388,285.81c.15.07-.12,1.59,2.25,2.14,1.93.45,3.31-.05,5.15-.4.95.02.62,1.27.03,1.97-1.52,1.8-14.95,5.93-16.96,4.81-1.45-3.89,7.91-9.24,9.52-8.52Z"/>
        <path d="M429.79,112.29l2.9,1.94-4.84.02,1.5,3.88-7.31,1.91,2.89-4.36-2.9-1.44c.74-4.88,6.24-5.74,10.15-6.77l1,1.94-3.4,2.88Z"/>
        <path d="M419.9,48.69c.18.1.14,1.5.85,1.65,3.65.79,10.19,1,12.9-1.93l.03,2.42c-2.88,2.69-6.87.69-9.79,1.04-3.1.38-6.03,3.21-6.4,3.29-2.49.55-5.83-.56-8.5,1l-.99-1.93c1.41-2.41,4.24-1.5,6.27-2.45,1.81-.85,2.89-4.56,5.63-3.08Z"/>
        <path d="M483.99,110.38l-.05,4.77c-2.33,1.73-5.31-.17-7.02.21-1.95.44-3.27,4.78-6.47,3.72l1.93-3.39c.43-.78-3.67.11-.94-1.9,3.9-2.87,7.64-4.11,12.55-3.41Z"/>
        <path d="M453.01,158.79l-1.52,3.76-22.68-4.25c3.21.25,9.57-1.7,12.07-1.44,1.41.15,2.49,1.67,3.96,1.88,2.65.38,5.5-.15,8.18.05Z"/>
        <path d="M451.08,91.98c.99.86-2.02,3.23-2.57,3.74-2.55,2.32-6.78,4.82-10.32,4-.56-.13-1.6-3.66-6.46-.97,2.48-5.75,9.17.08,11.14-5.8l1.38.08,1.49,1.84,5.34-2.89Z"/>
        <path d="M416.12,204.4l-.84,9.57c-1.66.1-3.26.13-4.86-.46-2.6-.96-.22-1.26.29-1.73,2.67-2.47.22-4.4-2.2-7l2.39-2.13,5.22,1.75Z"/>
        <path d="M431.72,99.72l1.5,4.84c2.8-.02,3.94-2.28,6.79-2.85,1.23-.24,3.85-.84,3.32,1.39-4.08,3.23-10.45,2.65-15.48,3.4-.38-3.02.12-6.7,3.87-6.77Z"/>
        <path d="M467.3,150.41c.19.11.22,1.61.79,1.63,1.38.06,4.56-2.19,6.23-.52l-4.84,1.46.98,3.86c-6.95,2.66-8.03-.5-5.78-6.75.93-.06,1.73-.19,2.62.32Z"/>
        <path d="M366.86,299.19l-2.75,3.05.82,1.77c-4.5-.6-4.46,4.05-8.72,2.91l2.85-7.27,7.79-.46Z"/>
        <path d="M455.91,63.9c-1,7.57-13.7,5.6-7.26-.94,2.05,2.51,4.54,2.38,7.26.94Z"/>
        <polygon points="464.63 117.16 454.24 120.79 449.15 121.02 454.98 117.65 464.63 117.16"/>
        <path d="M478.19,101.67c-1.36,2.87-2.38,4.24,0,6.76-3.48.88-3.14-.74-4.69-1.83-1.02-.72-2.79,1.17-2.09-2.99l6.78-1.93Z"/>
        <path d="M424.94,154.92c-.35,4.14-5.9,4.09-8.7,2.89-2.46-2.61,7.63-3.47,8.7-2.89Z"/>
        <path d="M427.85,63.9c-.28,4.7-5.21,4-8.71,3.86v-2.9c3.85,2.03,5.12-.7,8.71-.97Z"/>
        <path d="M401.71,164.6c-1.52,1.88,3.31,3.7,1.94,4.83-1.1.9-6.45-3.31-8.7-1.94l6.77-2.89Z"/>
        <path d="M415.27,83.27c-1.58,3.24-5.21,4.84-8.71,4.82,2.14-2.48,5.14-5.36,8.71-4.82Z"/>
        <polygon points="419.13 42.6 413.33 37.77 418.2 37.2 419.13 42.6"/>
        <path d="M478.19,100.69c.49-1.3-.48-6.38,2.4-5.8s.75,6.54-2.4,5.8Z"/>
        <path d="M502.38,160.73c1.26,1.39-3.97,4.42-4.82,4.83-1.21-3.09,2.57-7.31,4.82-4.83Z"/>
        <path d="M470.44,162.66c.71,3.81-6.5,1.22-8.7,1.92,1.3-2.87,6.22-1.02,8.7-1.92Z"/>
        <path d="M425.91,81.33c-.91,2.12.77,6.1-2.9,5.8v-5.8s2.9,0,2.9,0Z"/>
        <path d="M416.23,88.11v1.43s-1.58,1.36-1.58,1.36c-1.72.47-3.17.07-4.22-1.35l5.8-1.44Z"/>
        <circle cx="410.2" cy="38.95" r="2.03"/>
        <path d="M435.59,116.19v1.43s-2.42,2.42-2.42,2.42l-1.45-1.45c.07-2.26,1.94-2.7,3.86-2.4Z"/>
        <path d="M418.15,107.46c-4.8,0-.34-4.63,1.94-4.83l-1.94,4.83Z"/>
        <path d="M458.82,90.05l-1.07,3.77-2.8.09v-1.43c1.18-1.14,2.01-2.79,3.86-2.43Z"/>
        <path d="M440.43,107.47v1.43s-2.42,2.42-2.42,2.42c-2.38-1.76-.64-4.78,2.42-3.85Z"/>
        <polygon points="431.72 186.86 429.79 186.86 429.79 183 431.23 183 432.67 184.44 431.72 186.86"/>
        <path d="M423.98,89.08c.81,1.01-5.26,4.49-3.86-.97l3.86.97Z"/>
        <path d="M346.53,228.5v3.87s-2.89-.97-2.89-.97c-.31-1.83,1.13-3.21,2.89-2.89Z"/>
        <path d="M395.92,74.55l.97-5.8h.95c.06,2.12.54,5.05-1.92,5.8Z"/>
        <path d="M442.36,66.8c-.03.46.17,1.02,0,1.44-1.67,4.18-6.99,1.02,0-1.44Z"/>
        <path d="M485.93,153.96c-.58,2.2-3.04,2.02-4.84,1.92.58-2.2,3.04-2.02,4.84-1.92Z"/>
        <rect x="462.44" y="111.26" width="2.46" height="3.08" transform="translate(211.68 518.03) rotate(-71.8)"/>
        <path d="M401.71,52.29v1.93s-3.87,0-3.87,0c.52-1.93,2.06-2.17,3.87-1.92Z"/>
        <path d="M392.03,5.81v1.93s-3.87,0-3.87,0c.52-1.93,2.06-2.17,3.87-1.92Z"/>
        <path d="M402.68,27.11v1.93s-3.87,0-3.87,0c.52-1.93,2.06-2.17,3.87-1.92Z"/>
        <path d="M423.97,68.75v1.93s-3.87,0-3.87,0c.52-1.93,2.06-2.17,3.87-1.92Z"/>
        <rect x="105.51" y="318.55" width="1.93" height="2.89"/>
        <polygon points="463.66 74.56 463.66 75.51 459.8 76.48 459.8 74.55 463.66 74.56"/>
        <polygon points="391.06 77.45 388.16 77.44 389.14 74.55 391.06 76.02 391.06 77.45"/>
        <rect x="439.47" y="72.62" width="2.89" height="1.93"/>
        <rect x="429.79" y="38.73" width="1.93" height="2.89"/>
        <path d="M459.79,66.81c1.46,1.46-2.88,4.13-2.88,1.45,0-.64,2.32-2,2.88-1.45Z"/>
        <rect x="461.96" y="61.12" width="4.8" height="1.72" transform="translate(34.64 248.57) rotate(-31.07)"/>
        <rect x="413.34" y="60.03" width="1.93" height="2.89"/>
        <rect x="393.98" y="57.13" width="2.89" height="1.93"/>
        <circle cx="419.62" cy="45.95" r="1.23"/>
        <polygon points="441.4 43.57 441.4 45.5 438.5 45.49 439.97 43.58 441.4 43.57"/>
        <path d="M268.13,104.57c1,.47-2.61,2.31-3.87,1.92.47-1.86,2.14-2.18,3.87-1.92Z"/>
        <polygon points="476.25 122.97 474.79 124.89 473.35 124.89 473.35 122.97 476.25 122.97"/>
        <polygon points="440.44 49.37 437.54 48.9 438.98 47.46 440.44 49.37"/>
        <circle cx="454.01" cy="47.42" r="1.2"/>
        <polygon points="467.54 46.46 464.64 45.99 466.09 44.55 467.54 46.46"/>
        <polygon points="438.5 113.29 437.05 115.2 435.6 113.76 438.5 113.29"/>
        <path d="M422.04,61c.47.37-1.69,2.56-2.9,1.92-.47-.37,1.69-2.56,2.9-1.92Z"/>
        <circle cx="495.63" cy="119.07" r="1.2"/>
        <circle cx="461.75" cy="69.69" r="1.2"/>
        <circle cx="482.08" cy="120.04" r="1.2"/>
        <polygon points="181.01 180.1 179.09 182.02 179.08 180.09 181.01 180.1"/>
        <polygon points="437.53 24.21 435.61 26.14 435.6 24.21 437.53 24.21"/>
        <rect x="374.62" y="27.12" width="2.89" height=".95"/>
        <polygon points="418.17 66.81 416.25 68.74 416.24 66.81 418.17 66.81"/>
        <polygon points="392.04 0 390.11 1.93 390.1 0 392.04 0"/>
        <rect x="474.32" y="163.64" width="2.89" height=".95"/>
        <polygon points="400.74 162.65 398.82 162.18 400.74 160.72 400.74 162.65"/>
        <rect x="440.44" y="90.05" width="2.89" height=".95"/>
        <polygon points="455.92 61 454 62.93 453.99 61 455.92 61"/>
        <polygon points="373.64 152.97 371.71 152.5 373.63 151.04 373.64 152.97"/>
        <polygon points="159.71 195.58 159.24 197.51 157.78 195.59 159.71 195.58"/>
        <rect x="507.23" y="144.27" width="1.93" height=".95"/>
        <rect x="342.67" y="57.13" width="1.93" height=".95"/>
        <rect x="472.39" y="96.82" width=".95" height="1.93"/>
        <rect x="423.98" y="152.02" width="1.93" height=".95"/>
        <rect x="412.37" y="172.35" width="1.93" height=".95"/>
        <rect x="178.11" y="329.21" width="1.93" height=".95"/>
        <rect x="428.82" y="91.02" width="1.93" height=".95"/>
        <rect x="434.63" y="90.05" width="1.93" height=".95"/>
        <path d="M393,97.79l-1.93,5.8,7.25-1.94c.67,4.98-9.54,3.11-13.06,4.86l6.77.97c-.64,3.38-9.76,1.82-10.7,2.41-1.66,1.03-2.95,8.28-7.69,6.29-.12-1.69,2.08-.7,3.4-1.91,1.08-.99,1.54-3.38,1.43-4.86-2.65-.89-4.01,3.05-6.3,2.87-2.83-.23.49-2.99.07-3.85l-3.44-1.95,2.42-2.88,1.41,2.5c1.42,1.08,3.91-2.26,4.13,1.15l.98.11c1.87-.14,8.53-3.48,9.96-4.7,2.44-2.08,1.24-5.84,5.3-4.86Z"/>
        <path d="M362.03,104.57l-1.93,3.86,5.32-3.86c2.85,5-5.23,4.65-3.39,8.7-3.58-.78-7.67-2.05-11.15,0l.5-2.88-3.87,1.92,1.57-4.73c4.56-1.66,3.37,5.83,8.62.88l-2.45-1.97,1.02-2.89,5.76.97Z"/>
        <path d="M348.47,171.37c-6.46-2.69-5.52,1.16-7.36,1.8-1.74.6-4.28-.06-6.18.13-2.19-7.89,16.92-4.89,13.54-1.94Z"/>
        <path d="M346.53,138.46c-1.88,6.16-4.41,10.11-11.61,8.7,1.07-3.24,6.08-3.19,7.73-4.37,1.45-1.04.8-4.83,3.88-4.33Z"/>
        <path d="M388.16,82.28c-4.42.81-7.83,3.82-12.58,2.91,3.13-2.77,9.43-7.8,12.58-2.91Z"/>
        <path d="M396.87,86.16c-.12,1.35.31,2.97.02,4.22-.27,1.17-2.36-.01-1.95,1.59l2.9,1.94-5.79.98-1-2.44c2.75-.73,2-3.38,2.83-5.71l2.99-.57Z"/>
        <path d="M401.71,113.28c1.79,1.6-7.82,6.16-8.7,6.77l-.02-3.39,8.72-3.38Z"/>
        <path d="M362.77,89.81c-.61.62-2.48,1.53-3.19.27l-.45-5.84c.71-.84,6.39,2.75,3.64,5.57Z"/>
        <path d="M373.73,60.1l2.17-1.29-1.28-4.58c4.47-.18,4.97,8.92.48,8.68-.53-.03-1.95-1.86-1.36-2.8Z"/>
        <polygon points="361.06 93.92 359.13 98.75 363.96 99.71 356.27 98.7 356.64 94.82 361.06 93.92"/>
        <path d="M375.58,137.49c1.53,1.16.02,1.77-1.43,1.93-3.32.39-6.85-.12-10.18.96.31-1.13,4.53-2.69,5.38-2.84,2.04-.34,4.18.04,6.23-.05Z"/>
        <path d="M112.28,242.07l-1.94,2.89c2.48-.24,4.87.35,5.81,2.9-3.2.36-5.76-.93-7.73-3.38l3.85-2.41Z"/>
        <path d="M421.08,123.94l-5.8,5.8c-.75-4.2,1.93-5.87,5.8-5.8Z"/>
        <path d="M283.62,168.48l-6.77,1.92c-.36-3.87,4.78-2.58,6.77-1.92Z"/>
        <path d="M374.61,96.83c-1.68,3.98-4.38,2.55-7.74,1.92,1.05-2.17,5.73-1.75,7.74-1.92Z"/>
        <path d="M278.77,279.82c.51,6.87-8.94,3.33-1.43.01h1.43Z"/>
        <rect x="313.14" y="205.74" width="1.94" height="6.79" transform="translate(104.78 523.12) rotate(-89.96)"/>
        <path d="M429.78,130.72l-6.77,3.86c-.06-3.39,4.18-4.07,6.77-3.86Z"/>
        <rect x="334.91" y="157.13" width="10.75" height="1.5" transform="translate(-18.91 49.73) rotate(-8.13)"/>
        <path d="M72.59,286.6c.23,1.72-1.88.71-3.13,1.2-1.41.55-1.93,2.05-3.63,1.69-.14-3.82,4.09-2.92,6.77-2.89Z"/>
        <path d="M381.39,123.92l-4.84.97.99-2.88c1.78-.31,3.34.01,3.85,1.91Z"/>
        <path d="M385.25,137.49c1.28,1.27-1.69,5.74-2.89,2.41-1.03-2.86,2.16-3.13,2.89-2.41Z"/>
        <polygon points="342.66 88.11 342.66 91.98 339.77 91.97 340.75 88.11 342.66 88.11"/>
        <path d="M383.32,87.15c-.55,2.21-5.58,1.86-6.77.47l6.77-.47Z"/>
        <path d="M387.46,112.98c1.14.67,2.91-.42,2.63,1.26h-4.83s1.45-2.89,1.45-2.89c.82-.31.16,1.29.75,1.63Z"/>
        <polygon points="434.63 128.78 433.53 131.54 430.76 131.67 430.76 129.75 434.63 128.78"/>
        <polygon points="272 274.01 271.99 275.45 270.54 276.91 268.14 275.45 272 274.01"/>
        <rect x="346.54" y="82.31" width="5.8" height=".95" transform="translate(-.19 .79) rotate(-.13)"/>
        <polygon points="350.41 93.92 350.4 95.85 345.58 94.87 345.58 93.92 350.41 93.92"/>
        <path d="M401.71,133.62c.99,1-1.92,3.88-2.89,2.89s1.92-3.88,2.89-2.89Z"/>
        <path d="M362.02,115.23l-1.95,2.87-1.91.02c-.26-2.49,1.66-3.23,3.86-2.89Z"/>
        <polygon points="388.16 119.1 388.16 120.05 384.3 120.05 384.3 118.12 388.16 119.1"/>
        <rect x="81.31" y="275.95" width="5.8" height=".95"/>
        <path d="M335.89,120.07c-.7,1.58-2.13,3.2-3.87,2.89.7-1.58,2.13-3.2,3.87-2.89Z"/>
        <path d="M280.72,121.03c1.46-1.46,4.13,2.88,1.45,2.88-.64,0-2-2.32-1.45-2.88Z"/>
        <path d="M371.71,126.84l-.98,2.89h-1.92c-.31-1.83,1.13-3.22,2.9-2.89Z"/>
        <path d="M355.25,139.43c-.47.83-4.01,4.64-4.83,3.85.94-1.62,2.67-4.05,4.83-3.85Z"/>
        <circle cx="381.87" cy="97.27" r="1.23"/>
        <polygon points="336.86 95.86 335.39 97.78 333.96 97.78 333.96 95.86 336.86 95.86"/>
        <polygon points="289.42 136.52 289.42 138.45 286.52 138.44 287.99 136.53 289.42 136.52"/>
        <path d="M351.38,133.62l-2.89,2.89c-.33-1.77,1.06-3.21,2.89-2.89Z"/>
        <path d="M342.66,93.92c1,.47-2.61,2.31-3.87,1.92.47-1.86,2.14-2.18,3.87-1.92Z"/>
        <polygon points="393.97 131.67 390.1 131.67 390.11 130.72 393.96 129.74 393.97 131.67"/>
        <polygon points="389.13 182.01 386.23 182.02 386.23 180.09 387.67 180.1 389.13 182.01"/>
        <polygon points="398.81 131.67 396.88 131.67 396.89 130.24 398.33 128.78 398.81 131.67"/>
        <polygon points="108.41 237.2 105.51 237.21 105.51 235.28 106.94 235.29 108.41 237.2"/>
        <polygon points="394.93 110.38 394.93 112.31 392.04 112.3 393.5 110.38 394.93 110.38"/>
        <polygon points="431.71 147.17 429.81 145.72 431.24 144.27 431.71 147.17"/>
        <circle cx="314.62" cy="139.4" r="1.2"/>
        <rect x="285.56" y="133.62" width="3.86" height=".95"/>
        <circle cx="67.78" cy="274.96" r="1.2"/>
        <circle cx="123.92" cy="280.77" r="1.2"/>
        <circle cx="78.42" cy="284.64" r="1.2"/>
        <circle cx="405.61" cy="107.45" r="1.2"/>
        <polygon points="335.89 345.67 334.44 347.57 332.99 346.14 335.89 345.67"/>
        <circle cx="339.78" cy="178.13" r="1.2"/>
        <path d="M370.74,122c.47.37-1.69,2.56-2.9,1.92-.47-.37,1.69-2.56,2.9-1.92Z"/>
        <rect x="343.64" y="71.65" width="2.89" height=".95"/>
        <polygon points="375.58 121.03 373.65 122.96 373.65 121.03 375.58 121.03"/>
        <rect x="335.9" y="347.6" width="2.89" height=".95"/>
        <rect x="261.36" y="339.86" width="2.89" height=".95"/>
        <rect x="403.66" y="129.75" width="2.89" height=".95"/>
        <polygon points="337.82 91.97 335.9 91.5 337.82 90.04 337.82 91.97"/>
        <polygon points="89.05 263.36 88.57 265.29 87.12 263.37 89.05 263.36"/>
        <rect x="403.66" y="113.29" width="2.89" height=".95"/>
        <rect x="395.91" y="110.38" width="2.89" height=".95"/>
        <polygon points="364.93 112.32 363.01 114.25 363 112.32 364.93 112.32"/>
        <rect x="261.36" y="119.1" width="1.93" height=".95"/>
        <rect x="298.15" y="324.36" width=".95" height="1.93"/>
        <rect x="333.96" y="319.52" width="1.93" height=".95"/>
        <rect x="363.97" y="80.37" width="1.93" height=".95"/>
        <rect x="247.81" y="210.11" width="1.93" height=".95"/>
        <path d="M367.83,247.87c-1.52,1.45.63,8.73-1.45,8.69-1.93-.04-2.87-9.51,1.45-8.69Z"/>
        <polygon points="365.9 244 363.97 245.93 363.97 244 365.9 244"/>
        <path d="M200.48,263.52c13.92-8.01,32.93-10.47,32.88,10.97-.02,7-4.07,15.96-11.05,18.08-18.86,5.73-21.1-15.68-21.84-29.05Z"/>
      </g>
    </g>
  </g>
</svg>