<?xml version="1.0" encoding="UTF-8"?>
<svg id="Layer_1" data-name="Layer 1" xmlns="http://www.w3.org/2000/svg" viewBox="0 0 428.23 394.4">
  <path d="M97.27,341l-3.27,7.63c13.06-.11,5.07,22.36,6.8,24.96.72,1.08,5.67,3.92,7.34,2.37,3.17,7.07-2.49,5.72-4.24,8.24-1.84,2.67-.8,7.26-5.54,9.77-4.57,2.42-4.98-6.66-6.76-.8l-3.06-.85,5.48-5.12-.02-10.16c-13.4.5-22.93-3.81-17.15-18.79,3.22-8.35,7.93-6.62,12.45-9.95.74-.55,6.05-9.19,7.97-7.31ZM83.22,371.44c4.36,3,14.48-8.78,12.76-14.39-.42-1.38-2.08-2.65-3.36-3.21-10.64-4.61-11.75,15.98-9.4,17.6Z"/>
  <path d="M155.17,350.83v3.27c-4.16-.21-9.97-.53-11.57,4.3-1.96,5.87,10.25.84,8.28,4.98-2.06,4.34-12.48.27-9.69,8.62,1.08,3.23,12.96,1.92,16.1,1.62,2.68-3.36,3.5-23.74,8.33-22.78,3.77.75-1.28,21.17-2.67,23.53-1.97,3.35-5.57,4.38-9.29,3.74-1.38-.24-2.66-1.75-3.32-1.75-.59,0-2.22,1.65-4.3,1.85-3.64.36-8.02.11-11.38-1.31-1.08-1.61,3.88-23.98,5.22-25.61,2.97-3.59,10.31-.4,14.29-.45Z"/>
  <path d="M121.03,348.83c3.38-.65,10.36.68,12.18,3.8,2.62,4.5-1.66,7.88-1.89,10.94-.18,2.48,4.1,3.34-.19,9.65-3.02,4.44-12.16,5.18-16.78,3.67-3.53-1.16-1.16-7.55-.93-10.24.1-1.17-.92-2.54-.62-4.08.12-.62,4.37-11.18,4.72-11.71.69-1.04,2.3-1.8,3.51-2.03ZM127.86,355.2c-3.86-.54-7.04,1.18-6.54,5.45l5.29-.15,1.25-5.3ZM119.13,372.67c8.48,1.41,11.51-7.79,1.14-6.5l-1.14,6.5Z"/>
  <path d="M238.17,345.37l-3.23,5.9c14.93,8.94,3.24,33.68-13.46,28.83-8.23-2.39-5.35-12.78-2.8-18.72,4.01-9.35,6.42-6.26,11.25-10.59,2.99-2.68,1.37-7.13,8.24-5.41ZM235.84,358.63c-13.09-8.36-19.88,19.51-7.21,17.16,6.55-1.21,8.47-11.65,7.21-17.16Z"/>
  <path d="M184.67,349.76c2.49,3.78,6.42,26.07,4.95,28.41-.71,1.13-2.09,1.37-3.28,1.02-2.72-.81-.18-8.3-8.79-7.71-5.83.4-4.4,7.29-10.36,6.65-.26-1.91.12-3.41.85-5.15,2.28-5.49,12.31-21.45,16.15-26.46.95-1.24,2.07-2.31,3.23-3.34l2.71,2.71-5.44,3.87ZM182.32,367.05l-.38-7.48-4.91,8.73,5.3-1.25Z"/>
  <path d="M199,352.06c6.79-.69,17.43-.57,14.9,8.88-.56,2.1-3.52,4.13-3.91,5.98-.57,2.73,4.35,11.2.32,12.31-5.32,1.46-4.33-9.04-7.65-10.91-3.11-.73-3.22,8.4-5.96,10.41-1.51,1.11-2.71.1-3.15-1.3-1.42-4.48,4.66-19.84,5.45-25.36ZM208.69,356.29l-5.31.15-1.24,6.4,5.52-.47,1.03-6.08Z"/>
  <path d="M19.63,347.65c.96,3.25,5.71,23.62,5.05,25-.42.88-2.17,2.47-3.29,2.21-3.31-3.62-2.56-7.96-8.72-7.73-7.06.27-5.7,7.78-12.59,6.63-.6-.57,2.87-8.02,3.51-9.08.9-1.49,2.51-1.72,3.06-2.64,1.86-3.11,7.77-18.04,12.98-14.39ZM17.4,362.71l-1.5-8.59c-1.44,3.19-8.59,10.16-1.35,9.6.49-.04,2.71-.81,2.85-1.01Z"/>
  <path d="M36.1,348.64c1.17,4.93-4.98,18.84,0,21.31,12.04,5.95,10.16-15.88,13.69-20.18,1.24-1.5,2.03-1.22,3.79-1.12-2.64,11.57-1.73,30.91-18.88,27.07-10.29-2.3-2.78-19.38-1.96-26.44l3.37-.64Z"/>
  <path d="M69.97,353.01c.91,3.46-1.32,5.54-2.08,8.3-1.32,4.79-.73,13.73-7.74,13.55l1.89-21.37c-13.61-6.85,5.04-6.93,11.28-5.46,8.4,1.97,2.9,6.4-3.34,4.98Z"/>
  <path d="M263.52,375.79l1.62.41-.16,3.08-4.98.49c1.82-4.79-2.72-27.63,2.76-28.94,2.52.01,2.56,1.87,2.77,3.77.73,6.48.4,15.27-2.02,21.19Z"/>
  <path d="M287.33,353.56c3.65-3.92,5.14.63,5.52,4.3.61,5.9-1.03,10.32-1.63,15.75-.24,2.17,1.61,5.82-.56,7.32-5.91,2.24-3.33-4.08-3.33-7.7v-19.67Z"/>
  <path d="M279.68,380.31c-11.22,3.02-4.48-3.09-4.39-5.99.05-1.58-1.98-3.9-2.22-6.56-.3-3.31.87-5.74,1.15-8.75.16-1.68-2.25-6.18,1.68-7.08,5.85-1.34,1.55,19.8,1.7,22.45.11,1.9,2.81,3.46,2.08,5.93Z"/>
  <path d="M246.92,353.56c.35-1.21,2.47-2,3.81-1.62,3.21.91,1.86,21.15-1.09,21.83l-2.72-1.63v-18.57Z"/>
  <path d="M327.75,354.11l2.74-1.07c2.85.08,2.2,20.83,1.54,21.72-.54.72-4.27,1.35-4.27-.44v-20.21Z"/>
  <path d="M304.72,353.08c1.76,1.09,1.44,16.81.63,19.63-.32,1.1-.52,2.96-2.17,2.14-5.04-2.47-.39-17.26-1.65-21.85l3.19.07Z"/>
  <path d="M359.42,354.11v19.12c0,.34-2.22,2.01-2.73,2.71-.38-.52-1.64-1.33-1.64-1.62v-20.21h4.37Z"/>
  <path d="M319.01,353.01v20.76c-1.56-.1-3.47,2.11-4.23-.69-.62-2.3-.52-13.49-.19-16.31.37-3.22.9-4.18,4.43-3.77Z"/>
  <path d="M341.95,354.65l2.72-1.63c3.42,2.42.68,6.18.57,9.29-.15,4.18.1,8.39,0,12.56h-3.27v-20.22Z"/>
  <path d="M372.53,354.11v18.03c0,.85-1.45,3.67-3.27,2.73-1-4.15-.06-7.64.08-11.48.13-3.44-2.56-8.67,3.19-9.28Z"/>
  <path d="M313.55,381.41c-1.8-7.09,6.85-6.76,5.44-1.65l-5.44,1.65Z"/>
  <path d="M304.8,375.96c.18.13,1.32,3.67.62,4.39-4.13,2.59-6.4,1.31-4.45-3.33.56-1.2,3.24-1.47,3.84-1.06Z"/>
  <circle cx="343.53" cy="379.83" r="2.8"/>
  <path d="M251.28,374.87l-.52,4.39c-5.67,4.34-5.54-5.47.52-4.39Z"/>
  <circle cx="356.93" cy="379.56" r="2.67"/>
  <path d="M332.11,377.05l.05,3.66c-5.15,4.76-7.21-6.08-.05-3.66Z"/>
  <circle cx="370.09" cy="380.07" r="2.29"/>
  <g>
    <path d="M54.67,200.06l1.11,9.84c2.1.1,2.21.5,2.22-1.67.01-1.92-2.24-5.43.51-4.91,2.14.33,6.02,4.89,6.5,6.57,1.35,4.81-2.53,1.91-3.79,2.66-1.44.87-1.13,2.49-1.09,3.89,3.69,1.22,5.75-.13,8.64-.64,4.63-.82.14,4.51.04,5.63-.2,2.31,3.1,4.76,1.05,8.03-3.83.72-14.86.17-14.93-4.99-.03-2.08,3.54-4.95.28-6.9-1.42,2.38-3.96,1.02-5.68,1.84-1.35.64-8.28,9.51-8.8,10.96-3.31,9.33,1.9,18.12,10.74,21.51,2.96,1.14,6.63,2.26,9.74,3.36,3.45,1.22,7.86,1.18,10.89,3.31,4.02,2.83-.05,3.05.22,5.21.08.67,3.57,6.52,4.36,7.69,4.94,7.28,10.47,9.54,18.73,10.94,1.87.32,4.5,4.03,6.81-.39,1.94-3.72-9.17-11.81-7.15-17.47,2.64.16,5.55-.36,8.14.06,12.12,1.97,36.81,11.54,49.56,15.97,21.57,7.5,35.94,15.56,59.73,18.91,4.51.64,11.33,1.9,15.27,2.26,9.59.87,32.91-7.76,36-17.6,3.17-10.1,1.87-15.3-6.85-21.23,5.11-5.3,3.1-7.91,4.11-14l7.7-6.23c-.15,6.28-3.62,10.43-3.34,16.95.3,7,5.65,12.82,5.25,20.98-.08,1.58-1.61,2.49-1.72,4.1-.45,6.38,4.5,15.95,9.14,20.21,5.05,4.64,16.51,9.75,23.18,6.85.56-.24,7.71-5.78,8-6.19,1.29-1.81.67-3.73,1.32-5.23,2.15-4.89,3.28-5.57,1.97-11.7,4.27.38,4.37-3.57,4.81-7.16,1.26-10.22,2.03-18.77.27-29.25-.62-3.68-5.11-10.83,2.49-9.01-1.96,8.04,2.46,16.1,1.07,24.57,1.23.05,2.48.06,3.72-.1,2.04-.26,11.69-3.57,14.08-4.5,3.77-1.48,5.75-4.22,7.54-7.76.37-.74,2.68-6.58,2.73-6.95.35-2.43-1.87-7.17.87-10.19,3.3,2.53.79,6.19.95,9.1s1.55,17.86,2.31,19.33,3.3,1.92,4.33,3.32c2.35,3.2,1.05,5.77,6.78,8.52,8.96,4.3,17.6,2.26,23.31-5.86,7.95-11.29,4.59-34.84,2.13-48-.33-1.78-2.31-3.28-2.13-4.41,2.8-4.28,5.01,5.34,5.64,7.45,2.04,6.91-.6,12.87,10.68,7.74,4.64-2.11,14.61-9.1,18.94-12.51.98-.77.72-2.08.81-2.15.85-.64,2.88-.17,2.16,1.6-.26.64-9.13,8.42-10.37,9.3-3.25,2.31-17.58,8.85-18.58,10.92-1.8,17.35-.9,33.87-18.68,42.5-1.79.87-11.82,5.04-13.23,5.34-5.58,1.16-12.67-.76-18.1.47-2.79.63-7.32,7.12-9.34,1.23-1.76-5.13,3.48-4.98,2-6.9-.09-.12-1.82-.08-2.66-1.13-1.02-1.28-1.04-3.67-2.29-5.41-2.62-3.65-5.14-8.15-9.6-5.31-2.89,1.85-1.74,8-2.54,11.66-.67,3.08-6.13,20.52-7.39,22.1-3.89,4.89-15.02,10.12-21.12,11.65-13.37,3.37-15.45.92-27.1-.77-3.84-.56-9.26,1.84-11.79.04-1.18-.84-1.54-5.16-2.85-6.95-.26-.36-5.56-5.21-5.93-5.36-5.22-2.08-7.91.15-12.14.19-30.2.29-55.08-11-82.77-20.99-6.88-2.48-18.48-8.43-25.42-9.53-9.81-1.56-7.51,4.28-13.57,9.24-12.16,9.95-31.04,1.57-39.34-9.86-2.79-3.84-3.61-10.29-5.96-12.61-3.8-3.75-15.95-6.59-21.31-10.37-15.31-10.8-9.83-31.58,5.97-38.68-.37-3.91-1.36-8.02.26-11.82.67-1.55.26-1.65,2.46-1.36Z"/>
    <path d="M108.21,117.02c14.32-5.08,3.92,12.49,12.58,14.18,1.83.35,11.35-.05,13.96-.34,9.17-1.01,14.75-3.61,24.02-3.21s17.29-1.34,26.15.6c6.33,1.38,14.18,4.81,20.48,5.72,4.13.6,11.15-.5,14.64.7,1.58.54,1.45,2.62,1.95,2.99.6.44,2.56-.98,4.23-.53,2.83.77,6.82,2.13,10.08,3.09,4.45,1.31,7.95,5.36,12.12,2.03.75,2.19,7.01,2.86,6.15,4.8-1.78,4-10.15,4.15-12.07,5.41-1.53,1-.54,4-1.21,4.8-.23.28-5.69,1.58-6.85,2.35l-3.89-8.15c2.31-3.34,5.88.1,9.28-.56,3.27-5.7-8.67-6.15-11.81-5.49-.81.17-.6,1.94-1.5,2.18-1.99.52-3.99-.23-6.62.85-2.39.98-4.01,4.4-6.76,5.25-2.14.67-4.92.04-6.61,1.03-2.32,1.35-3.81,9.7-9.34,3.87-1.47-1.54-1.5-4.06-2.68-4.95-2.93-2.2-8.04-.57-10.59-1.39-5.16-1.67-5.76-8.74-12.27-6.68l-.16,3.02c-3.54-1.12-4.41,2.08-5.06,2.26-7.08,2.03-11.2-.17-17.34-.97-11.85-1.54-5.54,10.43-13.55,14.67,1.49,2.01,4.22,1.28,6.07,2.67s4.67,6.84,8.1,8.26c-3.8,4.45-5.09.17-5.71-.18-5.01-2.8-2.7,6.16-5.88,7.17l-9.57-2.13c-1.86,3.61-7.25,4.14-10.42,6.14-1.05.66-1.34,2.62-2.27,3.19-1.61.97-3.81.18-5.44,1.12-1.29.75-1.63,4.35-3.82,3.81-6.48-5.69.92-8.55,2-11.17,1.1-2.65.24-6.69,1.88-8.99,1.26-1.77,3.32-1.29,4.02-1.97.23-.22,2.23-5.6,2.27-5.93.13-1.33-5.61-9.61-6.13-12.11-.28-1.36.91-3.16.75-3.4-1.85-2.86-8.92-.67-9.66-1.28-.19-2.14.85-3.83-2.23-3.2,1.22,3.43,1.42,6.15-1.63,8.69l-3.31-2.15c-.48-.13-.29,1.56-1.36,2.11-2.03,1.03-10.61,5.43-11.97,6.95-3.08,3.43.44,5.07-7.94,4.66-1.12-.05-2.75,1.68-2.21-1.16.57-3.02,11-11.94,13.05-15.43-3.68-5.26-6.68-7.18-7.45-14.17-.53-4.81-.42-14.59,5.33-15.72-2.26,5.38-3.31,11.03-.8,16.64,1.59,3.55,8.07,8.9,12.22,8.47.43-.05,7.56-3.24,7.95-3.57.58-.49,5.14-9.79,5.27-10.56.07-.39-2-7.06-2.29-7.66-.23-.47-4.77-6.05-5.4-6.65-1.21-1.15-4.36-.48-3.86-3.21-2.16,2.94-5.17,1.13-6.58,1.69-.32.13-5.56,5.44-4.3,1.06,1.49-5.17,8.82-6.92,13.6-5.98,2.1.41,3.55,2.73,6.03,2.13,3.09-8.14,1.05-18.41,7.12-25.12.59,2.42,1.29,6.13.92,8.56-.58,3.82-4.06,6.63-4.26,8.33-.36,3.09,1.48,8.9.6,12.59ZM217.42,144.34c-5.63-1.44-3.65,6.01-.54,2.18.66-.81.68-1.17.54-2.18ZM126.76,154.17h-2.17s0,4.37,0,4.37h3.27s-1.1-4.37-1.1-4.37Z"/>
    <path d="M240.36,66.79l-1.1,2.76c-6.07-2.05-11.42,7.27-10.97,11.83.04.4,5.19,5,6.08,5.07,6.37.48,9.92-3.83,10.38-9.85,13.84,5.28-1.24,14.45-3.53,22.68-2.9-.32-5.59,3.52-5.95,3.58-1.86.3-3.6-.9-5.41-1.02-1.38-.09-2.81.82-4.06.65-.52-.07-8.83-4.23-9.37-4.67-4.7-3.82-3.81-13.79-2.27-19.01l-4.35-1.65c.91-3.03,3.53-3.68,5.12-5.31.45-.46.08-2.04.58-2.56.75-.79,10.73-5.51,12.32-5.7,6.08-.72,7.58.36,12.53,3.2Z"/>
    <path d="M193.39,71.13c-9.21-3.45-19.44,2.76-11.24,12.04,5.01,1.25,10.1-2.7,10.16-7.67,6.24-.12,5.24,11.8,4.13,15.62-.88,3.03-6.91,6.85-7.45,10.6-7.31-3.02-21.63-3.85-22.97-13.59-1.28-9.35,3.02-19.91,12.71-22.39l-.63-4.43c8.26.52,15.25-1.35,15.28,9.82Z"/>
    <path d="M227.93,223.45c.23.1,4.14,2.55,4.3,2.75.83,1.03.59,2.57.43,3.84l-2.52,1.59-3.96-.45c2.87,1.52,8.69,4.12,3.25,6.56-3.13,1.4-6.73-.07-8.51,5.71-1.16,3.75,1.5,6.83,5,7.75,3.19.84,5.02-1.93,6.79.75-10.11,13.39,2.27,5.12,3.3,6.02-1.65,2.52-2.85,5.59-4.53,8.06-1.35,1.99-4.12,1.31-3.11,5.03,2.24,2.17,19.52-5.27,22.93-6.07,1.93-.45,2.62-.36,3.28,1.7-6.13.39-10.38,4.5-16.35,6.06-7.92,2.06-15.26,1.92-23.22.21-1.24-.27-10.99-2.91-9.58-4.06l20.75,1.08c1.09-1-5.99-7.56-7.19-8.68s-2.88-.89-3.43-1.43c-.46-.45-4.1-11.05-4.14-12.25-.2-6.39,2.1-9.98,4.07-15.1,2.68-6.99,1.8-13.81,12.46-9.06Z"/>
    <path d="M164.05,178.05c.41.36,5.76.43,6.75.18,1.11-.28,1.07-2.25,1.82-2.73,1-.64,13.85-1.78,15.29-1.12,2.96,1.98,3.62,5.63,5.46,8.47.65,1,2.45,1.37,3.17,2.55,1.5,2.46,2.81,8.27,4.41,11.27-9.4,8.16-17.75-1.25-22.31-9.7-1.88,1.06-1.24,3.28-1.9,4.64-2.32,4.8-3.49-.45-5.31-1.82-2.09-1.57-6.36-2.23-8.11-3.98-1.48-1.48-.52-3.73-1.53-4.9-2.33-2.71-6.34-1.7-6.64-7.06,8.66-3.34,7.1,2.61,8.89,4.2Z"/>
    <path d="M285.41,282.84c-.8-.68-2.45-7.6-2.49-9.08-.12-4.57,2.4-19.8,6.19-22.23,11.23-7.22,17.51,20.94,11.33,29.93-.66.97-4.19,4.53-5.06,4.7l-9.97-3.31ZM287.34,261.24c.34,2.73-.67,6.65.17,9.12.29.87,4.45,3.84,4.75,3.83,4.2-.1,2.54-15.9-4.92-12.95Z"/>
    <path d="M379.08,242.66c-3.43.8-2.67-3.67-3.52-5.76-1.3-3.21-6.03-3.78-2.84,2.84,2.88,5.99,7.34,3.71,4.54,12.58-.41,1.3-.94,2.55-1.9,3.55-1.91,1.94-8.57.68-9.92-1.2-3.91-5.44-4.08-31.35,8.78-24.07,4.43,2.51,3.65,7.79,4.86,12.06ZM367.07,238.3c-.03,2.88-3.48,12.34,2.72,10.91,2.47-.57,1.83-11.69-2.72-10.91Z"/>
    <path d="M277.5,100.64c-1.36,4.83,1.26,6,2.64,8.83,1.11,2.27.18,4.3,3.09,5.67,3.61,1.69,5.13-.71,7.02,4.96,1.53,4.57-.47,6.72-.23,7.9.71,3.43,3.75,5.36-3.22,6.59l-2.66-1.88,2.09-12.39-8.73,2.17c-1.27-3.1,3.16-1.43,2.17-3.8-1.29-3.09-3.99-.99-4.67-2.99-.6-1.77-.68-12.02.02-13.66.67-1.57.25-1.7,2.48-1.39Z"/>
    <path d="M244.73,1.22c.24,1.15-2.7,2.46-3.35,2.63-7.37,2-14.74-.83-22.09-.05-3.37.36-5.03.66-8.96.89-5.11.3-10.47,1.62-15.83.88,1.43-3.72,8.73-4.07,12.57-4.35,5.05-.37,10.26.24,15.33.04,7.3-.29,14.7-2.66,22.34-.03Z"/>
    <path d="M265.23,149c.33.17.42,1.65,1.04,1.93,3.72,1.66,7.74,2.14,11.21-.04,3.38,4.94.49,8.47-4.96,9.77-3.48.83.13-3.45-.49-4.26l-5.93-2.31c-.73-.02-4.02,10.39-11.52,4.96-2.95-2.13,2.89-5.21,4.43-5.55l-.08-4.81c1.94.23,4.62-.58,6.3.3Z"/>
    <path d="M316.82,133.42c-.02,5.29-7.06,5.52-9.31,7.67-1.3,1.25-1.16,6.94-4.33,8.71-5.85-8.88,5.2-16.79,13.64-16.38Z"/>
    <path d="M233.8,56.93c-2.98-1.09-5.7-1.58-8.21.82l-2.65-3.43,9.25-4.98c2.51,1.78,1.53,5,1.61,7.6Z"/>
    <path d="M287.34,109.37c-1.11-2.19-.5-16.41,1.63-16.37,3.29,1.36,2.02,19.98-1.63,16.37Z"/>
    <path d="M190.98,51.7c.67.46,1.49,4.09,2.42,5.22-5.57,1.26-7.93-6.44-13.08-3.29l-1.12-3.25c1.66-1.3,10.29.29,11.78,1.31Z"/>
    <path d="M387.81,217.54c-2.97-2.23-4.81-5.85-8.45-7.38-4.14-1.75-8.9-.13-11.2-3.53,6.68-.37,20.13,2.45,19.65,10.91Z"/>
    <path d="M411.85,186.94c-1.1,4.8,4.83,4.25,8.38,5.33,1.78.54,3.08-.89,2.54,2.31-1.58-.15-11.4-1.22-11.97-1.61-2.61-1.75-3.16-6.38,1.05-6.04Z"/>
    <path d="M67.79,186.94l-7.09,1.12-.58-2.74c2.77-.3,2.28-5.49,4.92-4.92,1.91.41,3.34,4.6,2.75,6.54Z"/>
    <path d="M210,191.11l1.45-5.28c6.58.16,8.56,12.54-1.45,5.28Z"/>
    <path d="M244.74,230.65l-2.2-5.98c.26-1.59,7.92-2.72,7.18.56-.27,1.2-3.38,6.94-4.98,5.43Z"/>
    <path d="M301.53,155.26l-7.97-.13-1.85-3.14c4.18.21,9.13-3.04,9.82,3.27Z"/>
    <path d="M210.87,26.34c-1.31.17-10.96.41-9.81-2.71.77-2.09,10.76-1.19,9.81,2.71Z"/>
    <path d="M173.74,117.03c-1.25,6.28-8.17,2.82-10.92-1.09l10.92,1.09Z"/>
    <path d="M267.68,2.31c3.22.34,7.4-1.28,9.8,1.63.04,2.09-10.64,3.34-9.8-1.63Z"/>
    <path d="M83.07,225.19v7.64s-4.33-1.14-4.33-1.14c-.92-1.25,1.54-7.39,4.33-6.5Z"/>
    <path d="M298.25,7.76c-3.32-.15-8.97,0-10.92-3.26,3.71,1.92,10.52-2.78,10.92,3.26Z"/>
    <path d="M327.43,134.84c.75.62,1.82,2.99,2.5,4.03-1.36,1.12-8.51-2.44-7.64-5.45,1.82-.13,3.71.23,5.14,1.42Z"/>
    <path d="M363.79,208.8c1.23,1.1-.91,2.92-2.05,2.81-2.09-.25-5.1,6.39-6.67,4.82-1.25-1.24,6.67-9.48,8.73-7.64Z"/>
    <path d="M183.56,109.38v5.45c-7.85,1.06-1.66-7.13,0-5.45Z"/>
    <path d="M416.22,178.21c-.71,1.69-6.25,6.32-7.64,2.72-.26-.68,6.32-3.19,7.64-2.72Z"/>
    <path d="M160.63,115.92l-4.4-.51c-3.55-6.37,2.33-3.78,4.4.51Z"/>
    <path d="M239.27,250.32c.15,1.85,1.86,3.5-.55,4.35-4.33,1.54-3.55-4.73.55-4.35Z"/>
    <path d="M276.42,145.43l-1.1-4.36c4.92-.68,6.17,4.01,1.1,4.36Z"/>
    <path d="M349.6,235.01c-.49-3.37.71-7.17,3.26-3.81.42,2.27-.92,4.17-3.26,3.81Z"/>
    <path d="M311.35,164.02l.18,1.88c.23.23,6.38-1.67,5.29,2.46-2.66,1.06-11.88-3.88-5.47-4.34Z"/>
    <path d="M190.12,206.62v3.27c-2.62.42-4.63-.51-4.36-3.27h4.36Z"/>
    <path d="M292.79,223.01c-.17.91-1.46,2.34-2.18,2.72-5.34,2.78-3.87-4.11,2.18-2.72Z"/>
    <polygon points="280.78 135.59 276.41 135.59 276.42 133.97 278.05 132.34 280.78 135.59"/>
    <path d="M250.19,173.84c.15,1.02.12,1.38-.54,2.18-3.11,3.83-5.1-3.62.54-2.18Z"/>
    <path d="M285.14,141.06v3.27s-3.27,0-3.27,0c-.35-2.06,1.28-3.62,3.27-3.27Z"/>
    <polygon points="151.88 103.91 152.98 107.18 149.71 107.18 149.71 103.92 151.88 103.91"/>
    <path d="M308.09,172.75l-2.2,5.45h-1.07c-.32-2.71-.08-5.76,3.27-5.45Z"/>
    <polygon points="209.78 172.75 209.78 176.02 207.61 176.02 206.5 172.75 209.78 172.75"/>
    <rect x="406.4" y="207.71" width="2.17" height="3.27"/>
    <path d="M120.21,97.36c.35,2.06-1.28,3.63-3.27,3.26l1.1-3.27h2.17Z"/>
    <polygon points="315.73 12.13 312.46 12.13 312.46 8.86 315.73 12.13"/>
    <polygon points="91.81 263.44 91.81 264.51 87.45 264.51 87.45 262.34 91.81 263.44"/>
    <polygon points="114.75 78.79 113.65 82.05 112.58 82.06 112.57 78.79 114.75 78.79"/>
    <circle cx="262.23" cy="3.38" r="1.35"/>
    <path d="M403.11,209.88c-1.36.73-3.81-1.74-3.28-2.16,1.36-.73,3.81,1.74,3.28,2.16Z"/>
    <circle cx="133.34" cy="205.5" r="1.35"/>
    <polygon points="203.23 102.83 201.05 105 201.05 102.83 203.23 102.83"/>
    <polygon points="178.1 115.92 175.93 115.39 178.09 113.75 178.1 115.92"/>
    <polygon points="209.78 82.06 207.6 81.52 209.77 79.88 209.78 82.06"/>
    <rect x="426.06" y="218.64" width="2.17" height="1.07"/>
    <rect x="173.74" y="168.38" width="2.17" height="1.07"/>
    <polygon points="126.76 154.17 127.86 158.53 124.59 158.54 124.59 154.17 126.76 154.17"/>
    <path d="M217.42,144.34c.15,1.02.12,1.38-.54,2.18-3.11,3.83-5.1-3.62.54-2.18Z"/>
  </g>
</svg>