<?xml version="1.0" encoding="UTF-8"?>
<svg id="Layer_1" data-name="Layer 1" xmlns="http://www.w3.org/2000/svg" viewBox="0 0 404.62 189.28">
  <path d="M80,15.33c1.35,3.93-1.56,14.72,2.34,15.86,20.32.69,36.57-14.39,54.43-22.41,15.41-6.92,27.37-12.09,44.07-6.22,4.65,1.64,10.58,6.29,14.91,6.92,15.65,2.3,38.52-.69,55.34-.03,26.15,1.02,65.6,3.79,89.87,13.48,10.14,4.05,17.78,9.21,23.62,18.6l.72-14.56h16.01s-2.92,42.23-2.92,42.23l-14.55-1.45c-.22-3.44,1.57-6.8-2.9-5.83.06,3.78-7.86,7.18-11.26,8.4-8.51,3.06-14.51,2.5-22.95,3.25-1.48.13-2.66,1.45-2.92,1.45h-63.32c.6,4.3,3.74,7.99,4.31,12.43.56,4.39-.85,10.47.27,14.29.67,2.29,4.89,4.48,6.29,6.81,2.95,4.93,2.52,13.88,2.29,19.66-.45,11.38,0,6.83,3.61,16.66.69,1.87,3.56,11.23,3.55,12.41-.01,9.14-13.69,20.01-21.25,23.83-14.58,7.37-39.99,11.8-54.78,4.22-7.82-4.01-9.46-10.15-19.34-11.22-15-1.63-31.49-.56-46.16-4.79-18.47-5.32-33.48-23.06-51.59-27.02-2.8-.61-5.89.22-8.48-1.51-3.14.18-5.05,18.27-5.05,21.6l-32.59-1.29c-3.62,1.09-2.62,9.83-10.34,10.13-8.69.34-22-5.64-31.25-6L5.76,15.33h74.24ZM165.16,162.39h25.47l-.07-5.75c-9.12-.22-13.17-8.55-13.12-16.86.02-2.5.97-4.36.86-6.52-1.58-2.18-4.63-1.12-7.01-1.77-12.8-3.49-18.62-12.64-17.07-25.89-15.27,3.45-35.34.6-47.31-10.19-1.4-1.26-6.25-6.84-2.9-7.29,6.58-.88,17.56,4.92,24.82,5.75,16.62,1.91,31.03-1.75,41.3-15.39l-12.82-23.39,3.47-6.27c19.52,15.44,39.05,47.02,67.41,31.75l1.55-7.48c-7.69-8.87-12.8-20.55-20.18-29.39-4.77-5.72-19.16-20.65-24.81-24.69-1.61-1.15-6.88-3.99-8.61-4.49-26.37-7.57-48.87,16.52-71.84,25.83-7.41,3-13.79,4.86-21.97,4.24l-1.68,1.23-2.9,83.13c1.77,2.57,8.26.97,11.63,1.47,12.18,1.81,23.94,11.93,34.73,17.68,12.61,6.71,26.9,12.98,41.04,14.28ZM208.1,21.16l26.14,35.73c5.07,5.27,22.56,4.34,29.83,5.11,21.24,2.23,61.32,7.32,80.45-2.67,2.93-1.53,5.54-4.43,7.49-7.07,3.14-10.45-12.12-16.46-19.79-19.12-20.41-7.07-50.89-11-72.39-12.04-17.03-.82-34.65.71-51.73.06ZM68.36,26.98h-25.47l-2.18,2.18v111.39l23.29,2.91,4.37-116.48ZM170.62,94.32c-1,.97-5.62,7.99-5.93,9.35-2.59,11.52,9.1,18.73,19.42,18.02,14.04-.97,49.46-11.12,60.29-19.82,10.96-8.8,10.03-19.47-2.82-25.4-1.49,8.63-8.77,15.12-17.07,17.16-6.11,1.5-16.43,1.06-22.67.02-3.74-.62-8.07-3.49-12-4.01-6.49-.87-14.38,0-19.23,4.68ZM249.84,111.69c-7.58,1.73-20.82,9.55-29.69,12.52-9.69,3.25-19.83,5.16-29.56,8.29-2.76,1.89-1.03,9.96.76,12.43,6.01,8.3,33.82,3.28,42.98.75,12.19-3.36,31.43-11.44,26.96-27.04-1.81-6.31-4.84-8.46-11.45-6.95ZM264.55,163.53c3.33-3.47,1.69-12.66-1.03-16.52-4.37-3.11-21.49,6.02-27.42,7.71-9.66,2.76-19.73,3.29-29.51,5.42-11.43,6.33-3.53,16.36,7.08,17.18l.42,2.41c3.73-2.88,7.71-.31,10.76-.51,9-.59,21.87-4.47,29.79-8.87.99-.55,9.5-6.38,9.91-6.82Z"/>
  <path d="M404.62,9.51l-4.37,75.72c-4.14.12-12.48-.24-13.14-5.07-1.13-8.23-.28-23.22-.02-32.12.07-2.49,1.45-4.66,1.56-7.17.46-10.46-1.28-21.11,1.46-31.3l14.5-.06Z"/>
</svg>