<?xml version="1.0" encoding="UTF-8"?>
<svg id="Layer_1" xmlns="http://www.w3.org/2000/svg" version="1.1" viewBox="0 0 677.8 544.2">
  <!-- Generator: Adobe Illustrator 29.3.1, SVG Export Plug-In . SVG Version: 2.1.0 Build 151)  -->
  <g id="Shape_44">
    <path d="M388.5,235c-.8-.2-1.4-.5-1.9-.4-3.5.1-7,.3-10.4.4-1.2,0-2.5-.1-3.7-.3-1.2-.1-2.4-.5-3.5.3-.4.3-1.1,0-1.6,0-4.6,0-9.3,0-13.9,0-2.1,0-2.1,0-2.1,2.1,0,6.9,0,13.9,0,20.8s0,1.1,0,1.6c0,.2-.6.5-.7.4-1.2-.6-2.2-1.5-3.5-1.9-1.3-.5-2.8-.6-4.2-.8-.3,0-.6,0-.9,0-4.5-1.1-4.2-.2-8.8.9-2.2.5-4.2,1.3-6,2.7,0,0-.4-.1-.5-.2-.2-1.3-.5-2.7-.5-4.1,0-6.5,0-12.9,0-19.4,0-2.1,0-2.1-2.1-2.1-.8,0-1.7-.4-2.4.4-.1.2-.6.1-.9,0-3-1-6.1-.6-9-.3-2.5.2-4.9.3-7.4.3-1,0-2.1.3-3.1-.4-.3-.2-.8-.1-1.2,0-2.6.9-5.2.4-7.8.4-12.4,0-24.7,0-37.1,0-1.7,0-3.4.2-5.1.4-1.1.1-2.2-.3-3.4-.3-1.9,0-3.9-.3-5.8,0-2.1.3-4,.3-6.1,0-1.9-.3-4,.1-6,.2-2.2,0-4.3,0-6.5,0-1.1,0-2.3-.4-3.4-.2-3.6.6-7.2.5-10.9.2-1.5-.1-3,.2-4.5.2-14,0-28,0-42.1,0-1.3,0-2.5.7-3.9.2-1.2-.4-2.8,0-4.1,0-1.2,0-2.4,0-3.5,0-2.9.1-5.8.3-8.7.5-.6,0-1.2-.2-1.8-.3-1.2-.3-1.8,0-1.8,1.2,0,1.4,0,2.8,0,4.3s0,2.4,0,3.5c0,1.6-.4,1.8-1.8,1.1-5.7-3.1-11.3-6.2-16.9-9.3-3-1.6-6-3.1-8.9-4.7-2.5-1.3-4.9-2.7-7.3-4-1.7-.9-3.5-1.8-5.3-2.6-.3-.2-.7-.3-1-.5-.6-.5-1.2-1-1.8-1.5.6-.4,1.1-.9,1.7-1.3,3.8-2.3,7.7-4.7,11.6-6.9,3.5-2,7.1-3.9,10.6-5.9,3.6-2.1,7.2-4.4,10.8-6.5,2.1-1.2,4.2-2.4,6.3-3.5,1.4-.7,1.5-.6,1.5.9,0,2.9,0,5.8,0,8.7,0,1.6.1,1.7,1.7,1.8,1.4.1,2.9.5,4.3.4,13.6-1,27.1-.3,40.7-.4,13.5-.1,27.1,0,40.6,0,1.6,0,3.3-.7,4.7-.4,3,.7,5.9.2,8.8.4,1.2,0,2.4.1,3.6-.3.9-.3,2,.3,3.1.4,2.8,0,5.7.3,8.5,0,1.9-.3,3.9-.6,5.7-.2,1.3.3,2.7.5,3.8.2,2.6-.7,5.1-.3,7.6-.3,1.3,0,2.8.7,4,.4,2.2-.6,4.5-.4,6.7-.4,8.6,0,17.2,0,25.8,0,1.3,0,2.6.3,3.8-.4.4-.2,1.1-.2,1.6,0,2.8.9,5.7.3,8.6.4,1.9,0,3.9-.7,5.7-.3,2.2.5,4.4.6,6.4.3,2.4-.4,4.8-.3,7.2-.3,1.2,0,2.5-.3,3.6.4.3.2.8.1,1.2,0,2.2-.9,4.4-.4,6.7-.4,12.7,0,25.4,0,38,0,1,0,2.1.3,3.2-.4.4-.2,1.2.4,1.9.4,2.8,0,5.5,0,8.3,0,1.5,0,3-.4,4.5-.4,1.8,0,3.6,0,5.5.3,1.6.3,3.3-.3,5-.4,13.2,0,26.5,0,39.7,0,2.9,0,5.9-.4,8.8-.4,2.1,0,4.3.4,6.4.4,1.8,0,3.7-.5,5.5-.4,3.1,0,6.2-.1,9.3,0,3.3,0,6.6,0,9.9,0s6.5.3,9.7,0c9.1-.9,18.2-.2,27.2-.4,1.1,0,1.1-.5,1.2-1.3.6-3.4.4-6.8.4-10.2,0-.8.2-1,.9-.6,3.1,1.8,6.3,3.4,9.4,5.2,4,2.3,7.9,4.8,12,6.9,4,2.1,7.8,4.6,11.9,6.6,2.7,1.4,5.2,3.1,7.8,4.7.2.1.3.4.5.6-.2.1-.3.3-.5.4-2.8,1.5-5.6,2.9-8.3,4.4-3,1.7-6,3.4-9,5.1-2.5,1.5-5.1,3-7.6,4.4-2.4,1.4-4.8,2.7-7.3,4.1-2.8,1.5-5.5,3-8.3,4.4-1.4.8-1.5.7-1.5-.9,0-2.3,0-4.6,0-6.9,0-1.7-.2-1.9-1.8-1.9-11.7,0-23.3-.4-35,.1-11.5.5-23,0-34.5.4-1.7,0-3.4.7-5,.4-2.6-.6-5.3-.6-7.8-.3-3.2.5-6.3.2-9.5.3-1.4,0-2.9-.2-4.3,0-1.6.2-3.3,0-5,0h-33.8c-1.6,0-3.2,0-4.7,0-1.9,0-3.8.3-5.9.5M345.3,235.9v-.4c0,.1-.1.3-.5.4v.4c0-.1.1-.3.5-.4M396.1,212.5c-.1,0-.3,0-.4,0,.1,0,.3.2.4.5.1,0,.3,0,.4,0-.1,0-.3-.2-.4-.5M333.7,215.8c-.1,0-.3,0-.4,0,.1,0,.3.2.4.5.2,0,.3.2.5.5.1,0,.3,0,.4,0-.1,0-.3-.2-.4-.5-.2,0-.3-.2-.5-.5M382.8,217.2c-.1,0-.3,0-.4,0,.1,0,.3.2.4.5.2,0,.3.2.5.5.1,0,.3,0,.4,0-.1,0-.3-.2-.4-.5-.2,0-.3-.2-.5-.5M357.6,216c-.2.3-.4.5-.6.8.1,0,.3.2.4.2.2-.3.4-.6.8-.9,0-.2.2-.3.5-.5.2-.4.5-.7.7-1.1,0,0-.2-.2-.3-.2-.2.5-.4.9-.9,1.4,0,.2-.2.3-.5.5M178.4,222.2c.2-.2.5-.3.7-.5,1.1-.7,1.5-1.5,1.1-1.4-.7.2-1.4.7-2,1.2-.1,0,0,.4-.3.7,0,.1,0,.3,0,.4,0-.1.2-.3.5-.4M406.2,227.4c-.5.8-1,1.6-1.4,2.4-.1.2,0,.5,0,.8.2-.1.5-.3.6-.4.8-.7,1.2-1.6,1.4-2.8v-.4c0,.1-.1.3-.5.4M445.2,214.9c-.2,1.1.6,1.7,1.4,2.1.2.1.6-.2,1-.3-.2-.2-.5-.6-.7-.6-.9,0-1.1-.6-.5-.9,1.5-.8,1.6-2.3,2.1-3.6,0-.2.2-.4.3-.7-.3.2-.6.3-.7.5-.7,1.3-1.4,2.4-2.9,3.5M327.8,259c1.5-.5,3-1.1,4.5-1.6.3-.1.6-.2.8-.3.1-.1.1-.4.2-.6-.2,0-.3,0-.5,0-.9.2-1.9.3-2.8.7-.9.4-1.8.9-2.7,1.5-.1,0,0,.5,0,.8.1,0,.2,0,.6-.4M324.5,213.2c-.3,0-.6,0-.9,0-.4.1-.8.4-1.1.6.4.1.8.3,1.1.3.5,0,1.1,0,1.6,0,.4,0,1.1.2.9-.6,0-.2-.7-.2-1.6-.4M417.1,223.1c-.6-.2-1.3-.3-1.9-.5-.2,0-.4,0-.6.1.1.2.2.3.3.5,1,1.1,2.1,1.1,3.2-.2.1-.2,0-.5,0-.8-.3.2-.5.4-1.1.8M315.5,211.8c0,.1-.2.3-.1.3,1.1,1.2,2,.8,2.9-.2.2-.2.4-.3.6-.5-.3,0-.7-.1-.9,0-.3.2-.5.6-.9.7-.3,0-.7-.2-1.6-.2M177.5,229.7c-.4,0-.7.1-1.1.2.3.1.6.3.9.3.5,0,1-.2,1.5-.3.1,0,.1-.3.2-.5-.1,0-.3-.1-.4,0-.3,0-.6.1-1.1.5M158.1,229.3c.4-.3.9-.5,1.3-.8.1,0,.2-.3.3-.5-.1,0-.3-.1-.4-.1-.6.2-1.2.4-1.8.7.2.2.3.3.7.7M550.6,217.7c.2-.6.3-1.3.4-1.9,0,0-.3,0-.3,0-.2.6-.4,1.2-.6,1.9,0,0,.1.2.5.1M349.3,239.4c-1-.5-1.4,0-1.4,1,0,.2.1.4.2.6.2-.1.4-.2.5-.4.2-.3.3-.6.7-1.2M501.7,227.9c.2-.4.4-.9.6-1.3-.3.2-.7.4-1,.7-.2.2-.5.4-.6.7,0,0,.1.4.2.4.2,0,.4-.1.8-.5M141.3,224.3c-.5,0-1,0-1.4,0-.2,0-.3.3-.4.5.2,0,.4.2.6.2.3,0,.7-.3,1.2-.7M273.7,215.3c-.3.3-.7.6-.9,1-.1.2-.2.4-.3.6.3-.1.6-.2.8-.4.2-.2.3-.5.5-1.2M308.2,213h-.9c0,.4,0,.7.1,1.1.3-.2.5-.4.8-1.1M195.9,212.3l-1-.5c.1.3.2.6.4.8.1.2.3.3.5.5.1-.2.2-.4,0-.9M334.2,237.1c0-.2-.1-.4-.2-.6-.1.4-.3.9-.3,1.3,0,.2.3.4.5.5,0,0,.2-.1.4-.2-.2-.2-.3-.3-.5-1M317.4,232.1c-.1,0-.3,0-.4,0-.3,0-.5.1-.7.3,0,0,0,.5.2.5.3,0,.5,0,.8-.2.2,0,.3-.3.2-.7M511.4,223.8c-.5,0-1-.2-1.5-.2-.1,0-.2.1-.4.2.2,0,.3.2.5.3.4,0,.8,0,1.4-.2M413.1,215.8c-.6-.6-.9,0-1.3.4,0,0,0,.2,0,.3.3-.1.6-.3,1.2-.7M453.7,210.6c-.5,0-1-.2-1.5-.2-.1,0-.2.1-.4.2.2,0,.3.2.5.3.4,0,.8,0,1.4-.2M304.9,230c-.2-.2-.4-.5-.5-.7-.1.1-.3.3-.4.4.2.2.5.4.9.3M367.5,226.9c0,0-.1,0-.2.2,0,0,0,.1,0,.2.3,0,.6,0,.9-.1-.2-.1-.3-.3-.7-.2M302.3,217.9c0,.3,0,.6,0,.9.2,0,.5-.1.7-.2-.2-.2-.3-.3-.7-.7M305.6,218.4c0,0-.1,0-.2.2,0,0,0,.1,0,.2.3,0,.6,0,.9-.1-.2-.1-.3-.3-.7-.2M525.1,220.1c0,0,0,.1.2.2,0,0,.1,0,.2,0,0-.3,0-.6-.1-.9-.1.2-.3.3-.2.7M351.4,216c-.1,0-.3,0-.4,0-.2,0-.5.2-.7.3.2,0,.4.2.6.2.3,0,.5-.1.6-.5M549,220.3c.2-.2.5-.3.7-.5,0,0-.1-.2-.2-.4-.3.2-.5.4-.5.9M162.8,214.6c0,.3,0,.6,0,.9.2-.3.3-.6,0-.9M445.2,224.8c0,.1,0,.3,0,.4,0,.2.2.5.3.7,0-.2.2-.4.2-.6,0-.3-.1-.5-.5-.6M148.2,226.4l.6-.8c-.1,0-.3-.2-.4-.2-.2.2-.4.5-.3.9M201.1,212.7c0,0,.1,0,.2-.2,0,0,0-.1,0-.2h-.9c.2.3.3.4.7.3M272,227.4c-.2.2-.5.3-.7.5,0,0,.1.2.2.4.3-.2.5-.4.5-.9M265.6,228.1c-.3,0-.6,0-.9,0,0,.2.1.5.2.7.2-.2.3-.3.7-.7M398.4,229.5l.8.6c0-.1.2-.3.2-.4-.2-.2-.5-.4-.9-.3M284.8,232.1c.2-.3.4-.5.6-.8-.1,0-.3-.2-.4-.2-.2.2-.4.5-.3.9M335.3,256.2c.2,0,.4,0,.6-.1,0-.1,0-.3,0-.3-.3,0-.5.1-.5.4M545.4,206.3c.2,0,.3-.2.5-.2-.2,0-.3-.2-.5.2M501.2,232.1c.2,0,.4,0,.6-.1,0-.1,0-.3,0-.3-.3,0-.5.1-.5.4M293.3,231.2c-.2,0-.4,0-.6.1,0,.1,0,.3,0,.3.3,0,.5-.1.5-.4M441.7,229.3c0,.2.2.3.2.5,0-.2.2-.3-.2-.5M369.6,228.6c-.3,0-.5-.1-.8-.2,0,0,0,.2,0,.3.2,0,.4,0,.8-.1M370.6,212c-.3,0-.5-.1-.8-.2,0,0,0,.2,0,.3.2,0,.4,0,.8-.1M561.3,226.9c-.2,0-.4,0-.6.1,0,.1,0,.3,0,.3.3,0,.5-.1.5-.4M494.9,227.6c0-.2,0-.4-.1-.6-.1,0-.3,0-.3,0,0,.3.1.5.4.5M347.6,226.4c0-.2-.2-.3-.2-.5,0,.2-.2.3.2.5M199.5,213.9c-.3,0-.5-.1-.8-.2,0,0,0,.2,0,.3.2,0,.4,0,.8-.1M425.8,223.8c0,.2,0,.4.1.6.1,0,.3,0,.3,0,0-.3-.1-.5-.4-.5M486.8,214.4c.3,0,.5.1.8.2,0,0,0-.2,0-.3-.2,0-.4,0-.8.1M377.2,223.8c.3,0,.5.1.8.2,0,0,0-.2,0-.3-.2,0-.4,0-.8.1M243.9,219.6c.3,0,.5.1.8.2,0,0,0-.2,0-.3-.2,0-.4,0-.8.1M137.3,219.3c0,.2.2.3.2.5,0-.2.2-.3-.2-.5M345.3,217.5c0-.2-.2-.3-.2-.5,0,.2-.2.3.2.5M524.6,217.7c.2,0,.3-.2.5-.2-.2,0-.3-.2-.5.2M256.4,217.9c0,.2.2.3.2.5,0-.2.2-.3-.2-.5M367.2,217.7c0,0-.2-.1-.3-.2,0,.1,0,.3.3.2M430.6,218.2c0,0,.2.1.3.2,0-.1,0-.3-.3-.2M311.5,218.6c0,0,.2.1.3.2,0-.1,0-.3-.3-.2M506.4,217c0,0,.1-.2.2-.3-.1,0-.3,0-.2.3M380,216.7c0,0,.2.1.3.2,0-.1,0-.3-.3-.2M299.4,216.5c0,0,.1-.2.2-.3-.1,0-.3,0-.2.3M504.3,221c0,0,.2.1.3.2,0-.1,0-.3-.3-.2M448.5,222.9c0,0,.2.1.3.2,0-.1,0-.3-.3-.2M509,223.4c0,0-.2-.1-.3-.2,0,.1,0,.3.3.2M320.7,214.6c0,0,.1-.2.2-.3-.1,0-.3,0-.2.3M351.6,224.3c0,0-.2-.1-.3-.2,0,.1,0,.3.3.2M249.1,213.4c0,0,.2.1.3.2,0-.1,0-.3-.3-.2M483.3,226c0,0,.1-.2.2-.3-.1,0-.3,0-.2.3M307.2,226.2c0,0,.2.1.3.2,0-.1,0-.3-.3-.2M331.6,227.4c0,0,.1-.2.2-.3-.1,0-.3,0-.2.3M480.7,212c0,0-.2-.1-.3-.2,0,.1,0,.3.3.2M283.1,212c0,0,.2.1.3.2,0-.1,0-.3-.3-.2M225.4,212c0,0,.2.1.3.2,0-.1,0-.3-.3-.2M507.4,211.3c0,0-.1.2-.2.3.1,0,.3,0,.2-.3M323.3,211.5c0,0,.2.1.3.2,0-.1,0-.3-.3-.2M377.4,233.1c0,0-.1.2-.2.3.1,0,.3,0,.2-.3M349.8,236.1c0,0,.2.1.3.2,0-.1,0-.3-.3-.2M541.6,239c0,0-.2-.1-.3-.2,0,.1,0,.3.3.2M341.2,240.9c0,0-.2-.1-.3-.2,0,.1,0,.3.3.2M330.1,253.8c0,0-.1.2-.2.3.1,0,.3,0,.2-.3Z"/>
    <path d="M145.1,128.1c.3-1.6.7-3,.9-4.3.7-4.2,2.3-8.2,3.9-12.1,2.2-5.2,5.5-9.6,8.8-14.1,3.7-4.8,8.5-8.3,13.3-11.7,4.2-2.9,9-4.9,13.9-6.4,2.7-.9,5.5-1.7,8.2-2.3,1.8-.4,3.6-.5,5.5-.5,3,0,6,0,9,0,2.1,0,4.2.4,6.2.8,1.9.4,3.9.4,5.7,1.1,4,1.4,8,2.6,11.8,4.7,3.1,1.8,6,3.8,9,5.7,2.5,1.6,4.5,3.7,6.6,5.7,5.4,5.5,9.6,11.8,12.7,18.8,1.8,4.1,3,8.4,4,12.8.4,1.8.1,3.9.6,5.7.7,2.8.5,5.6.3,8.3-.2,3-.7,5.9-1.2,8.9-.5,2.9-1.5,5.6-2.2,8.4-.6,2.6-2.1,5-3.3,7.3-1.9,3.5-4,6.7-6.5,9.9-4.4,5.6-9.8,10.1-15.8,13.7-3,1.8-6.3,3.2-9.7,4.6-3.9,1.5-7.9,2.3-11.9,3.1-4.5,1-9.2.8-13.7.5-4.3-.4-8.6-1.1-12.7-2.4-5.1-1.6-9.9-3.7-14.5-6.5-5.4-3.3-9.9-7.4-14.1-12-1.9-2-3.5-4.3-5.2-6.6-3-4-4.8-8.7-6.6-13.3-1.4-3.5-2.2-7.3-2.7-11.2-.4-3.3-1-6.6-.8-10,0-2.1.3-4.1.5-6.4M163.8,143.3c0,.1,0,.3,0,.4,0-.1.2-.3.5-.4,0-.1,0-.3,0-.4,0,.1-.2.3-.5.4M223.1,80.6c-.1,0-.3,0-.4,0,.1,0,.3.2.4.5.1,0,.3,0,.4,0-.1,0-.3-.2-.4-.5M165.9,115.6c.1,0,.3,0,.4,0-.1,0-.3-.2-.4-.5h-.4c.1,0,.3.1.4.5M253.6,137.6v.4c0-.1.1-.3.5-.4v-.4c0,.1-.1.3-.5.4M182.2,103.1c0,.1,0,.3,0,.4,0-.1.2-.3.5-.4,0-.1,0-.3,0-.4,0,.1-.2.3-.5.4M153.8,107.8c0-.3.1-.5.2-.8-.1,0-.2,0-.3,0,0,.3,0,.6-.4.8,0,.1,0,.3,0,.4,0-.1.2-.3.5-.4M195,98.8c.2,0,.4,0,.6-.1,0-.1,0-.2,0-.3-.2.1-.5.3-1,.4,0,.1,0,.3,0,.4,0-.1.2-.3.5-.4M218.6,88.9c0-.3.1-.5.2-.8-.1,0-.2,0-.3,0,0,.3,0,.6-.4.8,0,.1,0,.3,0,.4,0-.1.2-.3.5-.4M251.2,139c-.2.2-.5.3-.7.5,0,0,.1.2.2.4.2-.2.4-.3.6-.5,0,0,.1-.2.4-.4v-.4c0,.1-.1.3-.5.4M206.3,78.5c-.2.2-.5.4-.7.5.1.1.3.3.4.4.2-.3.4-.6.8-.9,0-.1,0-.3,0-.4,0,.1-.2.3-.5.4M177,84.6c-.2.2-.3.3-.5.5-.2.1-.4.2-.6.3.2,0,.4.1.6.2.8.1.8-.4,1-.9,0-.1,0-.3,0-.4,0,.1-.2.3-.5.4M159.5,114.9c-.7.2-1.4.4-2.1.7,0,0,0,.2,0,.2.7-.1,1.4-.3,2.1-.4,0,0,.1-.3.4-.4,0-.1,0-.3,0-.4,0,.1-.2.3-.5.4M246,144.2c-.4-.2-.7-.5-1.1-.6-.2,0-.6,0-.8.2-.1,0-.1.4-.2.6.3,0,.6,0,.8-.2.5-.2,1,1.2,1.8,0,.2,0,.4,0,.5,0,.4.4.8.8,1.3.1,0-.1.2-.2.3-.3-.4,0-.9-.3-1.3-.2-.4,0-.7.3-1.3.4M221,102.6c-2.4-.8-4.8-1.8-7.3-2.3-2.3-.5-4.5-1.2-6.9-1-2.1.2-4.1.2-6.2.4-4.3.4-8.2,1.9-12,3.7-3.9,1.9-7.3,4.4-10.3,7.7-3,3.4-5.6,6.9-7.3,11.2-1.5,3.7-2.4,7.4-2.8,11.4-.2,2,0,3.9.2,5.7.2,1.7.4,3.4.8,5.1,1,4.1,2.6,7.9,4.8,11.5,1.5,2.6,3.5,4.7,5.4,7,2.2,2.5,5.1,4.3,7.9,6,4.4,2.7,9.2,4.1,14.2,4.9,1.1.2,2.4.4,3.6.1,1.2-.2,2.5,0,3.8,0,1.3,0,2.5-.3,3.8-.5,3.7-.4,7.1-1.8,10.4-3.3,3.5-1.6,6.5-4.1,9.3-6.7,3.9-3.5,6.5-8,8.5-12.8.8-1.9,1.2-3.9,1.6-5.9.4-1.8,1.2-3.6.5-5.6,1.2-3.4,0-6.7-.5-10-.9-4.7-3.1-9-5.6-13-.7-1.2-1.5-2.4-2.4-3.5-3.7-4.2-8.1-7.5-13.4-10.1M151,113.5c-1.4,0-.4,1.1-.7,1.5.3.1.6.3,1,.3,3.1.3,5.8-.9,8.4-2.4.2,0,.3-.2.5-.3-.2,0-.4-.2-.6-.2-.4,0-.9.1-1.3.3-1.1.4-2.1.9-3.2,1.3-1.3.4-2.7.8-4-.7M260.2,127.7c.2.8.2,1.7.6,2.3.5.8,1.3,1.3,2,2,.1.1.4.2.4.2.4-.5.7-.9,1-1.5,0,0-.7-.7-1-.7-1.3,0-1.8-.5-1.8-1.7,0-.2-.4-.4-1.1-.7M165.4,94.3c0-.6.2-.8.8-.6.2,0,.4,0,.6,0,0-.5,0-.9,0-1.4,0,0-.5-.3-.6-.2-1.1,1.1-2.1,2.2-3.1,3.3-.1.1,0,.6.1.8.2-.2.5-.3.7-.5.4-.4.9-.9,1.5-1.5M165,106.6c-.4.4-.9.9-1.3,1.3s-.3.4-.5.7c.4,0,.8.2,1.1,0,.3-.1.5-.6.9-.8.5-.3,1.1-.6,1.7-.8-.5-.2-1.1-.4-1.8-.4M200.6,78c-.4,0-.8,0-1.2,0-.3,0-.6.1-.9.2.2.2.3.4.5.7.8.9,1.6-.3,2.4,0,.1,0,.5-.5.7-.7-.4,0-.7-.1-1.6-.2M199.2,85.6c-.5,1.4,1.4,1.8,1.2,3.1,0,0,.2,0,.3.1,0-.1,0-.3.1-.4.5-1.3-1-1.8-1.7-2.8M156.2,116.3l.6-.2c0-.1-.1-.3-.2-.3-1.3.1-2.7.3-4,.5-.1,0-.3.2-.4.3.1,0,.3.2.4.1,1-.1,2-.3,3.5-.5M164.2,111.6c.3-.6,1.7-1.1,1-1.7-1.1-.8-1,.8-1.5,1.3-.2.1-.4.3-.5.5,0,0,.1.4.2.4.2,0,.4-.1.8-.5M173.9,94.8c.2.4.3.8.5,1.2,0,.2.3.4.4.4.3,0,.6-.2.7-.5,0-.1,0-.6-.1-.6-.7,0-.1-1.9-1.5-.6M255.7,119.4c.3-.6.6-1.2.8-1.8,0-.2-.2-.4-.3-.6-.1.1-.3.2-.4.4-.3.5-.6,1-.9,1.5-.3.6,0,.8.9.5M252.9,140.7c.2-.3.3-.6.5-1,.1-.2.2-.4.3-.7-.3,0-.6,0-.8.2-.4.4-.7.9-1,1.4-.1.2-.1.4-.2.6.3-.2.6-.3,1.2-.7M188.8,80.4c.6.2,1.1.3,1.7.5.1,0,.4-.2.4-.4,0-.2-.1-.5-.2-.5-.9,0-1.7,0-2.6,0-.3,0-.6.2-.9.3.4,0,.7.1,1.6.2M247.9,135.7c-.3,0-.6,0-.9,0-.3,0-.5.4-.7.5.3,0,.7.3.8.2.6-.6.9-.2,1.3.1,0,0,.4-.2.7-.3-.2-.2-.5-.4-1.2-.6M224,87.2c.6.5.9.4,1-.5,0-.7,0-1.3-.8-1.6,0,.3-1,.4-.3,1,.1.1.1.4.2,1.1M244.4,146.8c.1-.7,0-1.2-.7-1.6,0,.5-.2,1-.3,1.4,0,.2,0,.5,0,.7.2,0,.4-.2.9-.5M224.3,174.9c-.2-.3-.3-.7-.5-1-.1-.2-.3-.3-.5-.4,0,.2-.2.4-.2.6,0,.9.4,1.5,1.2.8M240.6,154.8c1.3.6,1.4-.7,1.9-1.2,0,0,0-.1,0-.2-.2,0-.4,0-.5,0-.4.4-.8.7-1.4,1.4M245.1,97.9c.6,0,.9-.2.6-.8-.2-.3-.7-.4-1.1-.6,0,.4.2.8.5,1.4M171.1,108c-.1-.5-.3-.9-.5-1.4,0,0-.3,0-.5,0,.2.6-.6,1.6.9,1.4M180.3,84.2c.3-.4.5-.8-.2-.9-.6-.1-1.1.1-1.3.8.4,0,.7,0,1.6.1M234,93.4c-.2,0-.4-.2-.6-.2,0,0-.2.3-.2.4.2.3.5.6.8.8.2.1.5,0,.8,0-.2-.3-.4-.5-.8-1.1M200.4,96.2c0,.4-.1.7-.2,1.1,0,.2,0,.4,0,.5.2-.1.5-.2.5-.3.2-.5.3-.9.4-1.4-.2,0-.4-.1-.9,0M168.5,109.2c0,0,.1-.1.2-.2,0,0,0-.2,0-.2-.2,0-.4-.2-.6-.1-.4,0-.7.2-1,.3.4.3.7,1,1.5.1M206.8,82.3c-.4-.5-.8-.8-1.3-.1,0,.1-.2.2-.3.3.4,0,.8.2,1.3.2.2,0,.4-.1.4-.5M160.7,100.5c.2.2.4.5.5.7.3-.3.5-.6.8-.8-.4,0-.7,0-1.3.1M196.4,82.8c0,.2-.3.5-.2.6.2.2.5.4.7.3.3-.2.4-.5.7-.8-.2,0-.4,0-1.1-.1M236.6,109.7c.4,0,.7,0,1.1-.1-.2-.3-.3-.7-.6-.8-.5-.2-.8,0-.5.9M217.7,79.4c0,.3-.2.6-.1.8,0,.3.4.4.6.6,0-.3.2-.5.2-.8,0-.2-.1-.4-.7-.6M150.3,151c.2,0,.5.3.6.2.4-.2.8-.5,1.2-.7-.6-.4-1.2-.3-1.8.5M178.7,104.3c-.4,0-.9-.2-1.3-.2-.1,0-.3.3-.4.4.2.1.4.4.7.4.3,0,.5-.2,1-.5M215.3,84.6c-.3-.2-.6-.3-.9-.5,0,.2-.2.4-.3.5.3.1.6.3.9.4.2,0,.4-.1.3-.5M244.8,128.8c-.2.3-1,.6,0,.7.3,0,.6-.2.8-.4-.2-.2-.5-.4-.9-.3M162.4,154.1c0,0,.1-.1.2-.2,0,0,0-.2,0-.2-.6,0-1.2-.1-1.8-.1-.1,0-.3.2-.4.3.1,0,.3.1.4.1.4,0,.8,0,1.6,0M233,85.8c.3,0,.6,0,.9,0,0-.2-.2-.5-.3-.7-.2.3-1-.5-.7.7M248.8,154.1c-.2.2-.3.3-.5.5-.2.2-.4.4-.7.6.3,0,.6,0,.8-.2.2-.2.4-.5.4-.9M233.2,176.9c.2,0,.4.2.7.3.2-.6,0-.8-.7-.8-.8,0-.9,0-.9.5h.9M168.3,114.7c-.2.2-.4.4-.7.7,0,0-.2.2-.2.3.1,0,.3.2.4.2.6-.3,1.4-.4.5-1.2M222.4,173c0,0,.2,0,.2,0,.2-.2.3-.5.5-.7-.5,0-.9,0-1.4,0,.2.2.3.3.7.7M151.2,116.5c-.5,0-.9,0-1.4,0,0,.2,0,.4,0,.6.4-.1.7-.2,1.3-.6M252.2,124.8c.2-.2.5-.4.7-.5-.3-.3-.6-.5-.8-.8,0,.4,0,.7.1,1.3M167.1,123.9c0,.3,0,.6,0,.9.2,0,.5-.1.7-.3.2-.1-.1-.6-.7-.6M210.8,89.6c.3.2.5.4.8.6,0-.4,0-.7.1-1.1-.3,0-.6,0-.9.5M226.6,170.7c.1,0,.4,0,.4,0,0,0,0-.3,0-.4-.4,0-.8.2-1.2.2.2.1.3.3.7.2M185.7,172.8c.3,0,.5,0,.8.1-.2-.3-.4-.6-.5-.8-.2.1-.3.3-.3.7M212.5,84.6c.2.1.5.4.5.4.6-.6-.1-.9-.4-1.3-.1.2-.2.4,0,.9M239.4,115.4c0,.3,0,.6,0,.9,0,0,.4,0,.4,0,0-.3,0-.6-.4-.9M242.9,94.3c-.3,0-.6,0-.9,0,0,0,0,.4,0,.4.3,0,.6,0,.9-.4M240.6,100.5c.2,0,.4.2.6.2.3,0,.5-.1.8-.2-.3-.1-.5-.2-.8-.3-.2,0-.4-.1-.6.3M248.4,98.8c.2-.2.5-.4.7-.5-.1-.1-.3-.3-.4-.4-.2.2-.4.5-.3.9M173.9,112.8c.3,0,.6,0,.9,0,0,0,0-.4,0-.4-.3,0-.6,0-.9.4M156.4,152c-.3,0-.6,0-.9,0,0,0,0,.4,0,.4.3,0,.6,0,.9-.4M255.7,145.9c-.3,0-.6,0-.9,0,0,0,0,.4,0,.4.3,0,.6,0,.9-.4M206.1,89.1c.3,0,.6,0,.9,0,0,0,0-.4,0-.4-.3,0-.6,0-.9.4M243.2,91.7c0,.3,0,.6,0,.9,0,0,.4,0,.4,0,0-.3,0-.6-.4-.9M168.5,90.8c0,.3-.1.5-.2.8.4-.1.7-.2,1.1-.3,0,0,0-.3,0-.4,0,0-.3,0-.9,0M239.9,89.4l-.7.5c.1.1.3.3.4.4.2-.2.4-.5.3-.9M175.3,99.1c0-.2,0-.5,0-.7,0-.2-.2-.3-.3-.4-.3.3-.2,1.1.3,1.1M264.2,138.8c-.3,0-.6,0-.9,0,0,.2.1.5.2.7.2-.2.3-.3.7-.7M244.8,139.7c0,0-.1-.1-.2-.2,0,0-.2,0-.2,0,0,.4-.1.7-.1,1.1,0,0,.2.1.3.2,0-.2.1-.4.2-1.1M246.2,141.6c.3-.2.6-.3.9-.5-.3,0-.6,0-.9.5M255.7,135.5c0,.2,0,.4.1.6.2-.2.5-.5.7-.7-.2,0-.4,0-.8.1M163.5,104.3c-.3,0-.7-.2-1-.2-.1,0-.2.1-.4.2.2,0,.3.2.5.3.2,0,.4,0,.9-.2M238.7,106.1c.3-.2.6-.3.9-.5-.3,0-.6,0-.9.5M247.7,106.6c0,0,0,.1.2.2,0,0,.1,0,.2,0,0-.3,0-.6-.1-.9-.1.2-.3.3-.2.7M203.9,77.6c-.2,0-.4.1-.6.2.1.1.2.3.4.3.4,0,.5,0,.2-.5M208.7,78c.2.2.3.3.5.5,0-.2.1-.5.2-.7-.3,0-.6,0-.7.3M242,151c0,.1,0,.3,0,.4,0,.2.2.5.3.7,0-.2.2-.4.2-.6,0-.3-.1-.5-.5-.6M255,110.6c-.2.3-.4.5-.6.8.1,0,.3.2.4.2.2-.2.4-.5.3-.9M238.4,183c-.2-.2-.3-.3-.5-.5,0,.2-.1.5-.2.7.3,0,.6,0,.7-.3M207.7,85.6c0-.3,0-.6,0-.9-.2,0-.5.1-.7.2.2.2.3.3.7.7M198.3,96c0,.3,0,.6,0,.9.2,0,.5-.1.7-.2-.2-.2-.3-.3-.7-.7M170.6,95.3c0,.1,0,.3,0,.4,0,.2.2.5.3.7,0-.2.2-.4.2-.6,0-.3-.1-.5-.5-.6M244.4,93.4c.2.2.3.5.5.7,0,0,.2-.1.4-.2-.2-.3-.4-.5-.9-.5M191.4,175.6c.3,0,.7.2,1,.2.1,0,.2-.1.4-.2-.2,0-.3-.2-.5-.3-.2,0-.4,0-.9.2M172,117.5c0-.2,0-.4-.1-.6-.2.2-.5.5-.7.7.2,0,.4,0,.8-.1M164.7,127.2c.2.3.3.6.5.9,0-.3,0-.6-.5-.9M191.7,86.5c.1,0,.3,0,.4,0,.2,0,.5-.2.7-.3-.2,0-.4-.2-.6-.2-.3,0-.5.1-.6.5M232.5,91.5c0-.2,0-.4-.1-.6-.2.2-.5.5-.7.7.2,0,.4,0,.8-.1M176.1,88c0-.2-.2-.3-.2-.5,0,.2-.2.3.2.5M231.8,87.5c.2,0,.4,0,.6-.1,0-.1,0-.3,0-.3-.3,0-.5.1-.5.4M146,137.8c0,.2,0,.4.1.6.1,0,.3,0,.3,0,0-.3-.1-.5-.4-.5M237,91.3c0-.2-.2-.3-.2-.5,0,.2-.2.3.2.5M239.4,92.2c-.2,0-.4,0-.6.1,0,.1,0,.3,0,.3.3,0,.5-.1.5-.4M231.8,94.1c0,.3-.1.5-.2.8,0,0,.2,0,.3,0,0-.2,0-.4-.1-.8M243.2,178.2c-.2,0-.4,0-.6.1,0,.1,0,.3,0,.3.3,0,.5-.1.5-.4M176.5,179.2c.2,0,.4,0,.6-.1,0-.1,0-.3,0-.3-.3,0-.5.1-.5.4M169.9,113.9c.2,0,.4,0,.6-.1,0-.1,0-.3,0-.3-.3,0-.5.1-.5.4M173,96.2c0-.2,0-.4-.1-.6-.1,0-.3,0-.3,0,0,.3.1.5.4.5M256.2,113.2c-.3,0-.5-.1-.8-.2,0,0,0,.2,0,.3.2,0,.4,0,.8-.1M172.3,165.5c0,.3-.1.5-.2.8,0,0,.2,0,.3,0,0-.2,0-.4-.1-.8M221.2,183.7c.2,0,.3-.2.5-.2-.2,0-.3-.2-.5.2M221.4,97.9c0-.3.1-.5.2-.8,0,0-.2,0-.3,0,0,.2,0,.4.1.8M239.4,157c0,.2.2.3.2.5,0-.2.2-.3-.2-.5M246.2,111.3c0-.2,0-.4-.1-.6-.1,0-.3,0-.3,0,0,.3.1.5.4.5M224,98.1c0,.2,0,.4.1.6.1,0,.3,0,.3,0,0-.3-.1-.5-.4-.5M209.4,81.6c.3,0,.5.1.8.2,0,0,0-.2,0-.3-.2,0-.4,0-.8.1M184.6,81.8c0-.2-.2-.3-.2-.5,0,.2-.2.3.2.5M211.7,81.1c0,.2,0,.4.1.6.1,0,.3,0,.3,0,0-.3-.1-.5-.4-.5M164.7,129.1c0,.2.2.3.2.5,0-.2.2-.3-.2-.5M260.9,152c0,.2,0,.4.1.6.1,0,.3,0,.3,0,0-.3-.1-.5-.4-.5M193.1,79.9c0,.3-.1.5-.2.8,0,0,.2,0,.3,0,0-.2,0-.4-.1-.8M171.1,103.8c0-.2,0-.4-.1-.6-.1,0-.3,0-.3,0,0,.3.1.5.4.5M250.5,151c.3,0,.5.1.8.2,0,0,0-.2,0-.3-.2,0-.4,0-.8.1M244.4,131.7c0-.2,0-.4-.1-.6-.1,0-.3,0-.3,0,0,.3.1.5.4.5M166.1,104c0-.2-.2-.3-.2-.5,0,.2-.2.3.2.5M231.6,104.3c.2,0,.3-.2.5-.2-.2,0-.3-.2-.5.2M151.5,132.9c0-.2-.2-.3-.2-.5,0,.2-.2.3.2.5M252.6,134.7c0-.2-.2-.3-.2-.5,0,.2-.2.3.2.5M259,138.8c0-.2,0-.4-.1-.6-.1,0-.3,0-.3,0,0,.3.1.5.4.5M242.2,106.9c0,0,.1-.2.2-.3-.1,0-.3,0-.2.3M238,107.8c0,0,.1-.2.2-.3-.1,0-.3,0-.2.3M183.9,102.4c0,0,.2.1.3.2,0-.1,0-.3-.3-.2M177,102.1c0,0,.1-.2.2-.3-.1,0-.3,0-.2.3M168.3,101.9c0,0-.2-.1-.3-.2,0,.1,0,.3.3.2M166.4,100.5c0,0-.2-.1-.3-.2,0,.1,0,.3.3.2M233.5,109c0,0-.2-.1-.3-.2,0,.1,0,.3.3.2M255.7,109.5c0,0,.2.1.3.2,0-.1,0-.3-.3-.2M257.4,109.7c0,0-.1.2-.2.3.1,0,.3,0,.2-.3M220.5,100.2c0,0,.1-.2.2-.3-.1,0-.3,0-.2.3M152.2,110.4c0,0,.2.1.3.2,0-.1,0-.3-.3-.2M174.4,110.4c0,0-.2-.1-.3-.2,0,.1,0,.3.3.2M181,189.8c0,0-.2-.1-.3-.2,0,.1,0,.3.3.2M215.8,97.9c0,0,.1-.2.2-.3-.1,0-.3,0-.2.3M167.6,97.4c0,0-.1.2-.2.3.1,0,.3,0,.2-.3M223.1,97.2c0,0,.2.1.3.2,0-.1,0-.3-.3-.2M258.5,111.8c0,0-.2-.1-.3-.2,0,.1,0,.3.3.2M161.4,96.9c0,0,.1-.2.2-.3-.1,0-.3,0-.2.3M247.2,96.2c0,0,.2.1.3.2,0-.1,0-.3-.3-.2M236.3,113.2c0,0,.2.1.3.2,0-.1,0-.3-.3-.2M258.5,113.7c0,0,.2.1.3.2,0-.1,0-.3-.3-.2M198.7,94.6c0,0-.1.2-.2.3.1,0,.3,0,.2-.3M184.6,95c0,0,.1-.2.2-.3-.1,0-.3,0-.2.3M175.1,175.4c0,0-.1.2-.2.3.1,0,.3,0,.2-.3M187.4,174.4c0,0,.1-.2.2-.3-.1,0-.3,0-.2.3M152,117.7c0,0-.1.2-.2.3.1,0,.3,0,.2-.3M253.1,171.6c0,0,.1-.2.2-.3-.1,0-.3,0-.2.3M241,90.6c0,0,.2.1.3.2,0-.1,0-.3-.3-.2M153.1,118.9c0,0,.2.1.3.2,0-.1,0-.3-.3-.2M216.5,89.1c0,0,.2.1.3.2,0-.1,0-.3-.3-.2M170.6,88.7c0,0,.2.1.3.2,0-.1,0-.3-.3-.2M238.2,88.2c0,0-.2-.1-.3-.2,0,.1,0,.3.3.2M241.5,170.4c0,0,.2.1.3.2,0-.1,0-.3-.3-.2M255.7,121.3c0,0-.2-.1-.3-.2,0,.1,0,.3.3.2M238.7,170c0,0-.2-.1-.3-.2,0,.1,0,.3.3.2M181.7,88.4c0,0,.1-.2.2-.3-.1,0-.3,0-.2.3M250.3,169.7c0,0,.1-.2.2-.3-.1,0-.3,0-.2.3M228.5,169.2c0,0,.1-.2.2-.3-.1,0-.3,0-.2.3M147,127.4c0,0,.2.1.3.2,0-.1,0-.3-.3-.2M226.6,86.1c0,0,.1-.2.2-.3-.1,0-.3,0-.2.3M187.9,85.6c0,0-.1.2-.2.3.1,0,.3,0,.2-.3M154.8,166.4c0,0,.1-.2.2-.3-.1,0-.3,0-.2.3M231.4,84.2c0,0-.1.2-.2.3.1,0,.3,0,.2-.3M245.3,164.8c0,0,.2.1.3.2,0-.1,0-.3-.3-.2M198.5,83.5c0,0,.2.1.3.2,0-.1,0-.3-.3-.2M193.3,83c0,0,.2.1.3.2,0-.1,0-.3-.3-.2M160.5,129.1c0,0,.1-.2.2-.3-.1,0-.3,0-.2.3M246,154.6c0,0,.1-.2.2-.3-.1,0-.3,0-.2.3M220.7,80.2c0,0,.2.1.3.2,0-.1,0-.3-.3-.2M202.1,80.4c0,0,.1-.2.2-.3-.1,0-.3,0-.2.3M167.1,128.6c0,0-.1.2-.2.3.1,0,.3,0,.2-.3M247,129.1c0,0-.1.2-.2.3.1,0,.3,0,.2-.3M153.8,151.3c0,0,.1-.2.2-.3-.1,0-.3,0-.2.3M197.1,78.3c0,0,.2.1.3.2,0-.1,0-.3-.3-.2M162.6,129.8c0,0,.2.1.3.2,0-.1,0-.3-.3-.2M245.1,131c0,0,.1-.2.2-.3-.1,0-.3,0-.2.3M248.6,131.7c0,0-.2-.1-.3-.2,0,.1,0,.3.3.2M163.5,132.1c0,0,.2.1.3.2,0-.1,0-.3-.3-.2M159.8,144c0,0,.2.1.3.2,0-.1,0-.3-.3-.2M161.2,142.1c0,0-.2-.1-.3-.2,0,.1,0,.3.3.2M159.3,142.1c0,0,.2.1.3.2,0-.1,0-.3-.3-.2M255.9,137.1c0,0-.1.2-.2.3.1,0,.3,0,.2-.3Z"/>
    <path d="M330.8,300.2c.8,1.5,2.4.8,3.6,1.3,1.4.6,3.2.7,4.7.5,4.1-.4,8-1.2,11.4-3.8.3-.2.6-.2,1-.3,0,.4.2.8,0,1.1-.6,1.1-.3,2.1,0,3.2.3,1.8.1,3.7.1,5.6,0,4.1-.4,3.7,3.6,3.7,1.7,0,3.5,0,5.2,0,.7,0,.8.3.5.9-1.1,2.1-2.1,4.2-3.2,6.3-1.6,3.3-3.2,6.6-4.7,9.9-1.4,3-2.8,6.1-4.3,9.1-1.5,3-3.1,6-4.5,9-1.5,3.1-2.9,6.3-4.4,9.5-.4.8-.7,0-.7-.2-.6-1-1.2-2-1.7-3.1-1.9-3.6-3.7-7.3-5.7-10.9-2.9-5.4-5.9-10.8-8.9-16.2-.9-1.7-1.6-3.4-2.5-5.1-1.3-2.5-2.7-4.9-4-7.3-.4-.7-.1-1.4.7-1.3,1.6.1,3.2-.3,4.8,0,1.3.1,2.7-.3,4.1-.4.8,0,.7-.5.7-.9,0-2.8,0-5.5,0-8.3s0-1.6,0-2.4c0-2.4.7-2.8,3-1.7.8.4,1.7.5,2.4,1,1.3,1,1.8.3,2.7-.7,1.1-1.2,2.9-1.3,4.5-1.7.4,0,.8,0,1.2,0,.5,0,.9.2,1.4.3-.5.2-.9.5-1.4.6-.7.2-1.4.3-2.1.6-.1,0-.1.4-.2.6.2,0,.3,0,.5,0,1.1-.3,2.2-.7,3.4-1,.5-.1,1.1-.2,1.6-.1.4,0,.8.4,1.1.7-.4.2-.7.5-1.1.7-.7.4-1.5.6-2.1,1.1-1,.9-2.1.9-3.2.7-1.1-.1-2.1-.7-3.2-.8-1.3-.1-2.6,0-4-.2-.3-.1-.4-.1-.6-.2.1,0,.3.2.4.3M349.8,327.8c.1,0,.3,0,.4,0-.1,0-.3-.2-.4-.5-.1,0-.3,0-.4,0,.1,0,.3.2.4.5M349.3,322.1c.2,0,.3.2.5.5.5.2.9.5,1.4.7.1,0,.3,0,.4-.1-.1-.1-.2-.3-.3-.3-.5-.2-1-.3-1.4-.7-.2,0-.3-.2-.5-.5-.1,0-.3,0-.4,0,.1,0,.3.2.4.5M336.5,299.5c.1,0,.3,0,.4,0-.1,0-.3-.2-.4-.5-.3,0-.5-.1-.8-.2,0,.1,0,.2,0,.3.3,0,.6,0,.8.4M342.2,312.7c-.1,0-.3,0-.4,0,.1,0,.3.2.4.5.6.2,1.2.6,1.8.7.4,0,1-.2,1.4-.3-.4,0-.9-.1-1.3-.2-.6-.1-1.3-.3-1.9-.7M353.5,313.2c-.2,0-.6-.3-.6-.2-.6,1-1.2,1.9-1.8,2.9,0,0,.3.4.4.4.2,0,.4-.1.5-.3.4-.8.8-1.7,1.4-2.7M343.8,329.5c.3-.2.6-.3.9-.5.3-.2.5-.4.7-.6-.3,0-.6-.2-.9-.2-.2,0-.4.3-.6.3-.3,0-.6-.2-.9-.3,0,.4.1.8.6,1.2M350.7,319.3c-.1-.4-.2-.9-.3-1.3,0-.1-.3-.2-.5-.3.1.6.2,1.3.4,1.8,0,.2.5.2.8.3,0-.1,0-.2-.4-.6M335.1,311.7c-.2,0-.5-.3-.6-.2-.4.2-.8.5-1.2.7.6.4,1.2.3,1.8-.5M328.7,299.7c.2,0,.4-.1.6-.2-.3-.3-.6-.5-.9-.8,0,0-.2.1-.4.2.1.2.3.3.7.7M348.1,308.2c-.2,0-.4,0-.6.1,0,.1,0,.3,0,.3.3,0,.5-.1.5-.4M339.1,323.8c-.2,0-.4,0-.6.1,0,.1,0,.3,0,.3.3,0,.5-.1.5-.4M341.5,303c0,0-.1.2-.2.3.1,0,.3,0,.2-.3M341.2,304.7c0,0-.2-.1-.3-.2,0,.1,0,.3.3.2M338.9,308.9c0,0,.2.1.3.2,0-.1,0-.3-.3-.2M329.4,310.3c0,0,.2.1.3.2,0-.1,0-.3-.3-.2M342.2,316.5c0,0-.2-.1-.3-.2,0,.1,0,.3.3.2M340.1,324.7c0,0-.1.2-.2.3.1,0,.3,0,.2-.3M341.5,333.3c0,0,.1-.2.2-.3-.1,0-.3,0-.2.3Z"/>
    <path d="M412.7,183.5c-.8,1.9-1.5,3.8-2.3,5.6-.6,1.2-1.2,2.4-2.3,3.3-1.3,1-2.9,1.3-4.1.4-.4-.3-.7-.8-.8-1.3-.4-2.1-.7-4.1-1-6.2-.5-3.6-.8-7.3-1.9-10.8,0-.2-.2-.4-.2-.6-.3.1-.6.1-.8.3-3.2,4.4-7.5,7.5-11.9,10.5-3.4,2.2-7.2,3.9-11.3,3.3-2.7-.4-5.7-.9-7.6-3.3-1.1-1.4-2.1-3-2.5-4.6-.4-1.6.2-3.4.8-5,1.7-4.1,4.7-7,8.5-9.2,2.6-1.5,5.2-2.7,8.3-2.9,1.1,0,2.1-.6,3.2-.8.8-.1,1.7,0,2.5,0,.7,0,1.5.3,2.2.4,3.4.3,6.1,3.9,6.1,6.3,0,1.3-.9,1.7-1.5,2.5,0,0-.4,0-.5,0-.3-.4-.7-.8-.9-1.3-1.5-3.8-4.1-5.4-8.1-4.6-3,.6-5.8,1.4-8.5,2.8-1.5.8-3.2,1.3-4.4,2.4-2.2,2-3.8,4.5-4.5,7.3-.7,3.1,2.1,6.2,5.3,6.3,3.8.2,5.8.1,8.1-1.1,2.9-1.5,6-2.7,8.2-5.3.8-1,2-1.6,2.9-2.5,1.6-1.7,3.1-3.4,4.6-5.2.4-.5.9-.9,1.4-1.3.1,0,.3,0,.5,0,0,.6.2.9.8.6,0,0-.1-.6-.2-.9,0,0-.1-.1-.1-.2.4-2.9-.5-5.7-1-8.6-.3-1.8,0-3.8-.9-5.5,0-.2,0-.5,0-.7,0-3.4-1-6.4-2.1-9.5-.7-1.8-.9-3.8-.7-5.8.1-1,1-1.7,2.1-1.6,2.7.3,4.6,1.6,5.9,3.9,1.6,2.8,2.4,5.8,2.9,9,.3,1.9.5,3.8.3,5.7-.3,3.4-.5,6.8-2.3,9.9-1.5,2.5-1.9,4.9-1,7.7.5,1.6.4,3.3.5,5,.2,3.1.6,6.1,1.4,9.1,0,.2.1.4.2.6.2-.2.5-.3.7-.6,1.6-3.4,3-7,4.9-10.2,2.3-3.8,3.4-8,5.2-12,.9-1.9,1.5-3.6,1.3-5.6-.2-2,.4-4-.4-6-.4-.9.2-2.2.2-3.3,0-1.1-.6-2.4-.2-3.4.6-1.9.2-3.8.4-5.7.2-2.1.9-4.1,2.5-5.6,1.8-1.7,3.9-1.3,5,.8.6,1.1,1,2.3,1,3.6,0,1.8,0,3.6,0,5.4-.1,3.3-.7,6.5-2.2,9.5-1,1.9-.8,4.2-2.5,5.8,0,0,0,.2,0,.2.1,3.3.2,6.7.3,10,0,1.3.5,2.5.6,3.8.2,3.4.7,6.8,1.9,10.1.6,1.5,1.2,3,2,4.4.3.5,1,.8,1.7,1.1.4.2,1,.2,1.1-.7.1-1,.7-1.9.8-2.9.3-2.6.4-5.2.5-7.8,0-2.3.9-3.4,3.1-4.1,3.4-1.1,6.9-1.8,10.4-2.4,3.6-.7,7.1-1.5,10.8-1.4,1.5,0,3-.2,4.5-.4,1.9-.3,3.6.4,5.3,1,1.2.4,2.1,2,1.6,2.9-.7,1.5-1.4,1.6-3.2.9-.8-.3-1.7-.4-2.6-.5-1.6,0-3.1,0-4.7,0-3,0-5.8.9-8.7,1.3-2.8.4-5.3,1.2-7.9,2-1,.3-2,.5-2.9,1-.7.4-1.3.9-1.3,2,0,2.5-.2,5-.5,7.4-.2,1.5-.5,2.9-1,4.3-.5,1.3-3.7,3.3-5.6,2.6-1.7-.6-2.8-1.5-3.7-3.1-1.8-3.3-2.9-6.7-3.8-10.2-.5-2-.9-4.1-1-6.2-.1-1.9-1.2-3.3-1.6-5.1,0,0-.5,0-.5,0-.2.5-.3,1-.5,1.4-1.3,3.4-2.7,6.8-4,10.2-.2.4-.2.9-.5,1.4M393.9,177.8c0,.2-.2.3-.5.5,0,.2-.2.3-.5.5-.9.8-1.7,1.6-2.8,2.4v.4c0-.1.1-.3.5-.4.9-.8,1.7-1.6,2.8-2.4,0-.2.2-.3.5-.5,0-.2.2-.3.5-.5v-.4c0,.1-.1.3-.5.4M388.3,182.5c.2,0,.4,0,.6-.1,0-.1,0-.2,0-.3-.2.1-.5.3-1,.4,0,.2-.2.3-.5.5-.2,0-.5,0-.6.2-2.8,1.8-5.9,2.9-9.1,3.6-.1,0-.3.1-.4.2.2,0,.3.3.5.3,1.5-.3,3.1-.4,4.5-1,1.9-.8,4-1.5,5.6-3.3,0-.2.2-.3.5-.5M380.2,165.9c-.2.2-.5.3-.9.5-1.1,0-2.1.4-2.8,1.4,0,.1,0,.3,0,.4,0-.1.2-.3.5-.4.9-.5,1.7-.9,2.8-1.4.2-.2.5-.3.9-.5.2,0,.4,0,.6-.1,0-.1,0-.2,0-.3-.2.1-.5.3-1,.4M407.2,189.6c-.2.3-.3.6-.5,1-.2.4-.4.9-.6,1.3.4-.3.9-.5,1.1-.9.2-.3.1-.9.4-1.3,0-.3.2-.6.5-.9.5-1,1.1-1.9,1.5-2.9.9-2.1,1.7-4.2,2.5-6.2,0-.2,0-.4-.1-.7-.1.2-.3.4-.4.6-1.3,2.7-2.5,5.4-3.8,8.1-.1.3,0,.8-.3,1.2,0,.3-.2.6-.5.9M401.5,148.9c.4,1.9.8,3.8.7,5.8,0,2.1.3,4.3.4,6.4,0,.2.2.3.3.5.1-.1.3-.2.3-.3.3-.5.7-1,.8-1.6.4-2.3.8-4.6.9-6.9.2-4.1-1.9-7.5-3.5-11,0-.1-.2-.3-.3-.3-.2,0-.5-.2-.6,0-.1,0-.3.4-.2.6.8,2.2,1,4.4,1.2,6.9M421.8,143.7c-.2,1-.6,2-.6,3-.1,2.5,0,5,0,7.5,0,.1.3.3.5.3.2,0,.4-.2.4-.4,0-.8,0-1.6.1-2.3.8-3.1,1.4-6.1,1.3-9.3,0-.6-.2-1.1-.3-1.7-.8.3-1,1-1.1,1.7,0,.3,0,.6-.2,1.2M419.2,168.5c0,.6,0,1.2,0,1.9,0,.1.3.2.5.2,0,0,.2-.2.2-.4,0-.9-.2-1.8-.3-2.7,0,0-.3,0-.5,0v1M386.4,164.5c0,0,.1-.1.2-.2,0,0,0-.2,0-.2-.4,0-.7-.1-1.1-.1,0,0-.1.2-.2.3.2,0,.4.1,1.1.2M399.6,171.6c0,.2.2.3.2.5,0-.2.2-.3-.2-.5M396.3,168.8c0,0-.1.2-.2.3.1,0,.3,0,.2-.3M375.3,168.5c0,0,.2.1.3.2,0-.1,0-.3-.3-.2M419.5,165.9c0,0-.1.2-.2.3.1,0,.3,0,.2-.3M381.9,165.2c0,0,.2.1.3.2,0-.1,0-.3-.3-.2Z"/>
    <path d="M347.9,32.7c1.1.2,1.4-.9,2.1-1.3.2,0,.5,0,.6,0,.1.1.2.5.1.6-.4.6-.9,1.2-1.3,1.8-.5.7-.9,1.4-1.5,1.9-.5.5-1.3.7-1.9,1-.5.3-.7,1.3-1.8.7-.3-.2-1.3.6-1.9,1-.9.7-1.5,1.6-2.9.9-.6-.3-1.6.5-2.5.7-.7.1-1.8.4-2.2,0-.9-.9-1.8-.7-2.8-.7-.8,0-1.4,0-2.1-.7-.5-.4-1.2-.9-2.1-.4-.1,0-.8-.6-1.1-1.1-.3-.3-.4-.8-.6-1.1-.1.4-.2.8-.4,1.1-.1.3-.4.5-.7.7-.1-.2-.3-.5-.3-.7-.4-1.3-.9-2.5-.5-3.9.5-1.7-.7-3.1-1.1-4.7,0-.2-.4-.4-.7-.5-.4-.1-1.3,0-1.3-.2-.1-.7-.2-1.4,0-2,.4-1,0-1.8,0-2.8-.5-3.5-1.2-7.2,0-10.7.6-1.8,1.9-3.3,2.8-5,.8-1.5,2.4-2.1,3.7-3,1.5-1,3-1.9,4.5-2.8,2.4-1.5,5-2,7.7-.9.2,0,.4.4.5.4,2.5-.5,4.2,1.3,6.3,2,1.5.6,2.9,2,4,3.3,1.6,2,3.1,4.2,3.6,6.8.1.6.3,1.1.4,1.7.5,2.8,0,5.6-.4,8.4-.3,1.8-1.3,3.2-2.1,4.6-1.1,1.7-2.7,3.1-4.2,4.8-.1.3-.1.4-.2.6,0-.1.2-.3.3-.4M333.2,20.6c-.1,0-.3,0-.4,0,.1,0,.3.2.4.5.1,0,.3,0,.4,0-.1,0-.3-.2-.4-.5M342,10c-.4.4-.8.7-1.1,1.1-.2.2-.3.4-.4.6.3,0,.7,0,.8-.1.4-.5.7-1.1,1.2-1.7,0-.1,0-.3,0-.4,0,.1-.2.3-.5.4M342.2,24.9c0,1.2-.6,1.8-1.6,2.1-1.8.7-2.9,2.4-2.4,4.1.2.7,0,.6-.4.5-.7,0-1.6-1-2,.5,0,0-.3,0-.4,0-1.3-.7-2.6-1.3-3.9-2-.2,0-.3-.1-.5-.2,0,.2,0,.5,0,.6,1,1.2,2.5,1.9,3.9,2.5,1.1-1.3,2.2.1,3.4,0,.9,0,1.9.5,2.8-.4.3-.3.9-.5,1.4-.5,2.4,0,2.9-2,3.9-3.5.2-.3,0-.8,0-1.3-.3.3-.6.5-.8.8-.4.5-.8,1.1-1.2,1.6-.5.8-.6.7-1.1,0-.1-.2-.4-.4-.6-.4-.5,0-1,0-1.4,0-.2,0-.2-.5-.3-.7,0-.1,0-.3,0-.5.2,0,.5.2.7.3,1.2.8,1.8.6,2.8-.4.9-1,1-2.2.7-3.2-.3-.9-1.1-1.6-1.8-2.3-.2-.1-.7,0-1.1.2-.7.3-1.9,0-1.7,1.3.2,1.2,1.2.4,1.9.8M324.9,11.4c0,1.5-.1,3-.3,4.4,0,.1-.5.2-.5.3,0,.7-2,1.3,0,2,0,0,0,.2,0,.3-.5.6-.3.8.4,1,.7.3,1.2,1.1,1.8,1.7.5.5,2.9.8,3,.4,0-.6-.3-1.2-.5-1.8-.1-.3-.5-.6-.5-1,0-.8-.3-1.9.1-2.3.9-.9.7-2,.5-2.8-.8-3-.6-5.8.5-8.7,0-.2,0-.4,0-.6-.2,0-.4.1-.5.2-.4.4-.9.7-1.2,1.2-.3.5-.4,1.5-.7,0-.4.3-.9.6-1.3,1q-2,2-1,4.3c0,0,0,.2-.2.2-1.3-.4-2.4.2-2.6,1.4-.2,1.3-.4,2.5-.5,3.8,0,.3.2.6.4.9.2-.3.4-.5.5-.8.2-.6.4-1.1.4-1.7,0-1.6,1.7-2.2,2.2-3.6M348.6,10.4c.9-.4,1.5-1,1.2-2,0-.3-.3-.5-.5-.8-.1.2-.4.4-.4.6,0,.6-.2.9-.8.8-.4,0-.7-.1-1.1-.2.1-.4.2-.8.5-1.2.2-.2.5-.4.8-.5.7,0,.8-.4.4-.9-.6-.8-2-1.4-2.8-1-.3.1-.8.6-.7.8.1,1,.4,2,.7,3,.4,1.1,1.7.7,2.8,1.4M334.9,4.8c.6.3,1.1.6,1.7.9.3-.6.7-1.2.9-1.9.1-.7,0-1.4,0-2.1,0-1.1-.8-1-1.2-.7-.6.4-1.3.8-1.2,1.8,0,.5-.3,1.1-.2,1.9M342.7,6.9c0,.2,0,.5,0,.7.2.3.4.6.6.9,0-.3.3-.7.3-1-.3-1.7-.6-3.3-1.1-5,0-.3-.7-.5-1.1-.6-.9-.1-1.9.3-2.5-.7-.2.1-.4.2-.4.3,0,1,.4,1.4,1.4,1.3.8,0,1.5,0,1.7,1,0,.4-.3,1-.2,1.1.4.3.9.3,1.3.6.1,0,0,.6,0,1.4M333.7,6.4c-.2.2-.3.3-.5.5.5.4,1.1.7,1.6,1.2.8.9,1.5,1.8,2.2,2.8.2.3.2.6.3.9.2-.4.6-.7.6-1.1,0-.5.1-1.3-.1-1.5-1.3-1-1.9-2.8-4.1-2.7M348.8,24.9c.6-.5,1.8,0,1.9-1.3,0-.9,0-1.7-1.2-1.9-.2,0-.3-.6-.5-.9-.1-.2-.3-.3-.5-.4,0,.2-.1.4-.2.6-.3,1.2.8,1.2,1.3,1.7.2.2.4.3.6.5-.2.1-.4.4-.6.4-.8,0-1.6-.3-2.4-.4-.2,0-.5,0-.6.1-.1.1-.1.6,0,.6,1.1.4,1.4,1.2,1.4,2.2,0,0,.2.2.3.3,0-.2,0-.4.2-.6.1-.2.3-.3.5-1M332,2.9c-.4.2-1,.4-1.1.7-.5,1.4-1.3,2.7-1,4.3,0,.2.2.4.3.7.2-.2.6-.4.6-.7.2-.9.3-1.9.5-2.8.3-1.1.5-1.1,1.7-1.2.2,0,.6-.2.6-.4,0-.4,0-.9,0-1.4-.4.2-.9.4-1.5.8M352.4,19.4c.1.3.2.5.3.8.1-.2.4-.5.4-.7-.1-.6-.4-1.2-.5-1.9-.2-.7-.4-1.3-.6-2-.3.6-.4,1.2-.8,1.7-.6.7-.4,1,.4,1.2.3,0,.4.4.9.9M337.7,5.2c-.2.3-.3.7-.5.9-.7.9.4,1.1.7,1.6.1.2.8.1,1.1,0,.8-.7-.4-.7-.4-1.1,0-.4,0-.9-.2-1.3,0-.1-.3-.2-.7,0M347.6,11.9c.8-1-.3-.9-.7-1.1-.2,0-.7,0-.8.3-.3.8-.5,1.7-.6,2.6,0,.2.3.4.4.6.2-.2.4-.4.5-.6.3-.6-.6-1.6,1.2-1.8M348.8,12.6c-.3.1-.5.2-.8.3.2.1.3.4.5.4.9,0,1.7,0,2.6,0,.1,0,.3-.3.4-.4-.4-.3-.8-.8-1.2-1-.3,0-.8.3-1.4.7M322.8,20.6c-.2,1,.6,1.5,1.1,2.1,0,0,.2-.1.3-.2.3-.9-.5-1.4-1-1.9,0,0-.1-.1-.4,0M324.2,24.4c.2.4.3.8.5,1.2,0,.1.1.3.2.4.1,0,.3,0,.3-.2.3-.5-.3-1.5-.9-1.4M348.6,16.1c.4.5.8.8,1.3.1,0-.1.2-.2.3-.3-.4,0-.8-.2-1.3-.2-.2,0-.4.1-.4.5M349.5,26c0,.4-.2.9-.2,1.3,0,.2.2.4.2.6.2-.2.5-.3.5-.5,0-.4-.2-.8-.5-1.4M345,4.1c-.8-.6-1,.1-1.4.5,0,0,.4.4.6.6.2-.3.3-.6.7-1.2M340.5,9.5c.9.1.7-.5.7-1,0-.1-.1-.2-.2-.4-.3.2-.5.4-.8.7,0,0,0,.3.2.7M346.9,18.7v-.6c-.4.4-.7.7-.9,1.1.3,0,.6,0,.9-.5M326.6,27.2c.2.2.3.4.5.5.2.1.5,0,.8.1-.1-.2-.2-.5-.4-.6-.2-.1-.4-.1-.9,0M333,4.8c-.2.2-.5.4-.7.5.1.1.3.3.4.4.2-.2.4-.5.3-.9M331.3,15.9c-.3.2-.6.3-.9.5.3,0,.6,0,.9-.5M326.4,24.6c0,0-.1,0-.2.2,0,0,0,.1,0,.2.3,0,.6,0,.9-.1-.2-.1-.3-.3-.7-.2M329.7,28.4c-.1,0-.3,0-.4,0-.2,0-.5.2-.7.3.2,0,.4.2.6.2.3,0,.5-.1.6-.5M329.2,36.4c0-.3.1-.5.2-.8,0,0-.2,0-.3,0,0,.2,0,.4.1.8M346,15.9c-.2,0-.3.2-.5.2.2,0,.3.2.5-.2M330.6,23.7c0,0,.1-.2.2-.3-.1,0-.3,0-.2.3M322.6,19.9c0,0,.1-.2.2-.3-.1,0-.3,0-.2.3M344.6,12.1c0,0-.2-.1-.3-.2,0,.1,0,.3.3.2Z"/>
    <path d="M457,436.8c-.9-2.2-.9-4.6-2.3-6.4-.3-.3-.4-.8-.7-1.1-.6-.7-1.2-.8-2-.1-2.4,2.1-3.5,4.9-4.5,7.8-1.1,3.2-1.1,6.5-.9,9.8.2,2.5.8,5,1.2,7.5.2,1.1.6,2.2.6,3.3,0,.6-.6,1.6-1.1,1.8-.7.3-1.6.3-2.4-.3-2-1.6-2.2-3.9-2.5-6-.2-1.3-.4-2.4-.8-3.7-1.3-3.3-2.1-6.7-2.9-10.1-.4-1.7,1.3-3.5,3.2-3.1,1.4.3,1.6-.5,2-1.4,1.3-3,2.5-6,5-8.3.8-.8,1.7-1.7,2.7-2.1.7-.3,1.5-.8,2.6-.3,2.1.9,3.8,1.9,4.9,4.1,1.6,3.1,2.5,6.3,2.8,9.7.1,1.5.3,3,.5,4.5,0,.2.1.4.2.6.2-.1.4-.2.5-.4.3-.5.5-1,.7-1.6,1-2.7,1.6-5.7,3.1-8.2,1.5-2.5,3.5-4.9,6.8-5.6,2.4-.5,4.4-.2,6.3,1.4,2.2,2,3.5,4.6,4.6,7.3,1.2,2.9,2.1,5.9,3,8.9.6,1.8.9,3.7,1.3,5.6.1.6-.4,1.3-.4,1.9,0,1,.1,2.2-1,2.4-1.2.3-1.7-.9-2.2-1.7-.5-.8-.9-1.8-.9-2.6,0-3.4-1.8-6.2-2.9-9.2-.9-2.5-2.4-4.8-3.6-7.3-1.5-3.1-3.6-2.5-5.8-.3-3,2.9-3.8,6.8-4.7,10.6-.7,2.9-1,5.9-1.5,8.8-.3,1.6-.6,3.2-1,4.8-.5,1.8-2.4,2.2-3.8,1-1.3-1.1-1.6-2.3-1.1-4.1.3-1-.1-2.3-.3-3.5,0-.7-.4-1.3-.4-1.9,0-3-.1-6-1.4-8.9-.4-1-.4-2.2-.5-3.6M443.6,450c0-.6.2-1.2.2-1.7,0-.4-.1-.7-.2-1.1,0,.3-.2.6-.3,1,0,.5,0,1.1.2,1.8M464.1,443.6c0,0-.1-.1-.2-.2,0,0-.2,0-.2,0,0,.4-.1.7-.1,1.1,0,0,.2.1.3.2,0-.2.1-.4.2-1.1Z"/>
    <path d="M360.3,453.2c-1.6-2.8-2.6-5.6-2.5-8.8,0-1.3.6-1.7,1.6-1.9,1.1-.2,2.4.4,2.7,1.3.3,1.1.4,2.2.5,3.3,0,3.2,1.7,5.7,4.2,7,2.8,1.4,5.9.9,8.4-1.4,1.3-1.2,2.7-2.4,3.8-3.9.9-1.2,1.5-2.7,2-4.1.9-2.7,1.1-5.5,1-8.3,0-2.4-.8-4.6-1.8-6.8-1.3-3-2.7-5.9-5.2-8-1.4-1.2-3.1-1.9-4.9-2.4-2-.6-3.9-.3-5.8.1-.9.2-1.8.8-2.5,1.4-1.5,1.3-2.8,2.7-4.2,4.1-1.9,2-2.9,4.4-3.2,7.2-.2,1.4-.6,2.7,0,4.1.2.3.2.9,0,1.2-.8,1.3,0,2.6,0,3.9,0,.2,0,.4-.1.7-.2-.2-.6-.2-.7-.5-1.9-3.9-2.9-7.9-2.2-12.5.8-5.4,4.3-8.4,7.8-11.7,1.5-1.4,3.6-2,5.7-2.2,3.4-.3,6.7.2,9.8,2,2.3,1.3,4.1,3.2,5.5,5.2,1.8,2.6,3.1,5.5,4.2,8.4.8,2.1,1.3,4.3,1.3,6.6,0,1.7.7,3.5.1,5.2-.6,1.8-1.3,3.6-2,5.3-1.6,4.1-4.6,6.9-8,9.4-3.2,2.3-8.4,2.4-11.5.1-1.5-1.1-2.7-2.6-4.1-4.1M376.5,454.7c0-.1,0-.3,0-.4,0,.1-.2.3-.5.4,0,.2-.2.3-.5.5-1,.6-2,1.3-3.3,1.9-.2,0-.4,0-.6.1,0,.1,0,.2,0,.3.2-.1.5-.3,1-.4,1.4,0,2.4-.7,3.3-1.9,0-.2.2-.3.5-.5M378.3,452.4c0-.2.2-.3.5-.5,0-.2.2-.3.5-.5.4-.6.8-1.3,1.4-1.9,1.2-1.3,1.7-2.9,1.9-4.7,0-.4.2-.8.2-1.3,0-.2-.1-.4-.2-.6,0,.2-.2.5-.3.7,0,.4,0,.8-.2,1.1-.6,1.6-1.1,3.2-1.9,4.7-.4.6-.8,1.3-1.4,1.9,0,.2-.2.3-.5.5,0,.2-.2.3-.5.5,0,.1,0,.3,0,.4,0-.1.2-.3.5-.4Z"/>
    <path d="M27.9,30.8c3,1,4.7,3.2,5.4,5.8.7,2.5.6,5.3-1.4,7.5-1.4,1.5-2.7,3-4.9,3.6-2.8.8-7.6-.4-9.4-3.6-.9-1.6-1.8-3.1-1.6-5,0-.2,0-.2.5,0,.1,0,.3,0,.4,0,0-.5,0-1.4-.1-1.5-1.6-.8-.7-1.8-.3-2.8,1.2-3.2,3.7-4.4,6.8-4.4,1.4,0,3-.6,4.5.4M17,35.7c0,.2.1.4.2.6.3-.7.5-1.3.8-2,0,0-.2-.1-.3-.2,0,.1,0,.3-.2.4-.1.2-.3.5-.5,1.2Z"/>
    <path d="M1.9,285.6c.2-.2.5-.4.4-.5-.2-.5-.6-1.5-.7-1.5-1.6.3-1.5-1.4-1.5-1.7,0-2.2-.5-4.5,1.2-6.5,1.9-2.2,4.1-3.4,7-3.6,3.7-.3,7.6,2.7,8.4,5.7.8,2.8.9,5.7-1.4,8.1-.8.8-1.6,1.6-2.6,2.3-2.8,1.9-8,1.3-10.8-2.2M11.1,286.5c0-.2-.2-.3-.2-.5,0,.2-.2.3.2.5Z"/>
    <path d="M659.9,275.9c.1-2.5,1.2-4.5,2.7-6.2,1.8-2.1,6.4-3,9-1.9,2.4,1,4.5,2.3,5.4,5,0,.3,0,.5.1.8-.2-.1-.5-.2-.7-.4-.2-.2-.3-.5-.5-.8,0,.3-.2.6-.1.9.6,1.7.7,3.4,0,5,0,.1.1.4.2.6.1-.1.3-.2.3-.3.3-.5.6-1,.9-1.5.1-.3.2-.6.3-.9,0,.4.3.8.1,1.1-.4,1.1-.7,2.3-1.4,3.2-1.9,2.3-3.9,4.4-7.4,4.2-4.1-.2-6.9-1.9-8.4-5.7-.3-.9-.4-1.9-.6-3M664.8,281.3c0,.3-.1.5-.2.8.1,0,.2,0,.3,0,0-.3,0-.6.4-.8l.2-.8c-.1,0-.2,0-.3,0,0,.3,0,.6-.4.8M668.6,283.2c-.3-.2-.7-.3-.9-.5-.2-.2-.2-.7-.4-.7-.2,0-.5.1-.8.2.3.3.6.8,1,1,.4.2.9.2,1.1,0M669.5,278c-.9,0-1,.4-.4.9.3.3.8.2,1.2.4.3,0,.6.3.8.4-.1-.3-.2-.7-.4-.9-.2-.2-.6-.3-1.2-.7M670,282.2l-.7.6c.3.1.6.4.9.3.7,0,.6-.5-.2-.9M673,279.6c.2,0,.3-.2.5-.2-.2,0-.3-.2-.5.2Z"/>
    <path d="M20.7,524.8c-.2.2-.3.6-.2.7,1.2,1.3,2.1,2.9,3.9,3.5.2,0,.4.2.5.4-.2,0-.5.1-.7.1-2.2-.4-4.4-2.6-4.9-5,0-.4,0-.8-.2-1.1-1.3-2.3-.6-4.6.4-6.5,2-4.1,7.9-5.9,12.2-3.1,3.1,2,4.3,5.1,4.1,8.6-.1,3.2-3.7,6.9-6.8,7.1-.5,0-1-.3-1.5-.4-2.7-.7-5-1.9-7-4.1M27.4,527.3c.8.7,1-.2,1.4-.5-.4-.4-.7-.8-1.1-1.2-.1.4-.2.8-.3,1.7Z"/>
    <path d="M332.4,531.9c1.8-3.7,6.1-5.3,9.6-4.8,3.4.5,6.6,4.5,6.9,7.9.5,5.2-2.9,7.7-6.8,9-1.9.6-4,.4-5.7-1.2-.9-.9-2.2-1.5-3-2.5-2-2.2-2.3-4.8-1-7.5,0-.2,0-.5.1-.8M335.6,537.7c-.3,0-.8-.1-.9,0-.2.3-.1.7-.2,1.1,0,.3-.1.6-.2,1,.4-.2.8-.2,1.1-.5.2-.2.1-.7.2-1.5M342.4,538.4c.2-.2.5-.4.6-.6,0-.2,0-.5-.1-.8-.2.2-.5.3-.7.5-.1.1,0,.4.2.9M342.4,539.8c.2-.3.4-.5.6-.8-.1,0-.3-.2-.4-.2-.2.2-.4.5-.3.9M338.9,534.4c.2,0,.3-.2.5-.2-.2,0-.3-.2-.5.2Z"/>
    <path d="M656,523.7c-1.5.4-2.9,1.3-4.6,1.5-3.1.3-6.7-3.2-7.2-6.6-.4-2.7.2-5.3,2-7.4,1.1-1.4,2.8-2.3,4.6-2.5,2.4-.4,4.8-.5,7.1,1.3,1.9,1.4,2.6,3.3,3.4,5.3.3.6.4,1.3.5,1.9.3,2.3-1.1,3.8-2.4,5.4-.6.7-1.5,1.2-2.3,1.9-.7.5-.6-.3-.9-.5,1.1-1,2.2-1.9,3.2-2.8,0,0,0-.5-.2-.6-.1,0-.5,0-.6,0-.9,1-1.7,2.1-2.5,3.2M660.5,518.1c0-.8,0-1.6,0-2.3-.2.6-.3,1.3-.5,1.9,0,.3-.2.5-.3.8,0,.2,0,.4,0,.6.2-.2.4-.5.8-.9Z"/>
    <path d="M656.4,43.4c-3.4,3.5-11,2.6-13.5-2.4-2.5-4.9-.2-10.5,5.3-12.6.2,0,.5,0,.7,0,1.4.3,2.9.3,4.3,0,.5,0,1.2.5,1.7.9,3,1.8,4.8,4.4,4.4,8.1-.2,2.3-1.1,4.3-2.9,6M650.6,44c.4-.5-1.5-1.3.2-1.7,0,0-.1-.7-.2-1.1-.3,0-.6,0-.8.2-.5.2-.9.5-1.3.8-.3.2-.6.7-.5.9.2.5.6,1,1,1.2.3.2.9-.1,1.5-.4M652.5,41.6c0,.7-.2,1.5-.2,2.2,0,.2.1.4.2.6,0-.2.1-.4.2-.6.3-.6.5-1.5,1-1.7.6-.3,1.4,0,1.8-.8-.7,0-1.3-.2-2-.2-.3,0-.6.1-1.1.5M647.5,41.9c0-.5-.1-1.1-.2-1.6-.5.5-1.1,1-1.6,1.5-.1.1.1.7.3.9.7.8,1,0,1.5-.9M657,33.8c0,0,.2.1.3.2,0-.1,0-.3-.3-.2Z"/>
    <path d="M311.5,443.9c1.9-.3,3.6-.7,5.3-.8,1.4-.1,2.7,0,4.1,0-.9,1-1.6,2.3-2.7,3-.9.6-2.2.8-3.3,1.1-2.1.6-4.1,1.3-6.3,1.4-1.9.1-3.9.4-5.5,2.2-1.3,1.6-2.7,1.3-4-.2-.5-.5-.4-.8,0-1.3,1.8-2.8,2.3-6,2.9-9.2,0-.4.2-.7.3-1.1.1-.3.3-.6.5-.8,0,.4.2.7.1,1.1,0,.2-.4.3-.4.5,0,.7.1,1.4.2,2,.7-.4.6-1.1.8-1.7,1-4.6,2.4-9.1,3.2-13.8.6-3.6,1.2-7.2,1.1-10.9,0-3.5.5-7,1.8-10.3,1.1-2.9,3.2-3.9,5.8-2,.5.3,1,.6,1.5,1,.3.2.7.5.7.9.2.8,0,1.5-.7,2.1-.8.8-1.2-.2-1.6-.4-1.4-.8-1.3-.8-1.9.7-1.5,4.2-2.3,8.5-3.4,12.8-.9,3.4-1.5,6.9-2.7,10.2-.8,2.3-1,4.9-1.5,7.4-.4,2-.8,4.1-1.2,6.1,0,.2.4.8.4.8,1.7-.8,3.5-.2,5.2-.4.3,0,.7-.3,1.2-.5Z"/>
    <path d="M310.4,181.9c2.1-2.3,4.7-1.9,7.2-1.6.5,0,1,.2,1.5.3,1.4.1,2.9-.1,4.3.4,1,.4,2.5.5,2.7-1.4,0-.2.4-.3.6-.4,0,.3.3.6.2.7-1.1,1.5-.2,1.3,1,1.7,3.2,1,6.7,1.2,9.7,2.8,2.2,1.1,4.4,2.2,6.6,3.4.3.2.5.7.7,1.1-.4,0-.9.3-1.3.2-2.2-.6-4.4-1.2-6.5-1.9-2.1-.6-4.4-.4-6.5-1-1.8-.5-3.6-.8-5.5-.9-1.6-.1-2.5.7-3.2,1.8-1.4,2.3-3.6,3.5-6,4.3-2,.7-4.5-1.3-4.8-3.7-.1-.9.2-2,.2-2.9,0-.3,0-.5,0-.8-.3,0-.7,0-.8.2-.5.6-1,1.3-1.4,2-.1.3-.4,1.6.8.6,0,0,.5.2.6.4.1.3,0,.6,0,.9,0,.8,0,1.5-.1,2.3-.6-.7-1.5-1.3-1.6-2,0-1.4-1.2-2.9-.2-4.3.5-.7,1.1-1.4,1.8-2.3M322.1,185.3c.9-1.2.9-1.4.2-1.4-2.6-.2-5.2-.4-7.8-.5-1.9,0-2.6.9-2.5,3.3,0,1.6,1.1,2.7,2.6,2.8,1.3,0,2.3-.5,3.2-1.4,1.2-1.1,2.4-2.3,4.3-2.9M319,188.4c0,0,.2.1.3.2,0-.1,0-.3-.3-.2Z"/>
    <path d="M327.1,458.5c0,2.4,0,4.6,0,6.8,0,.2-.2.5-.3.7-.2-.2-.5-.3-.6-.5-.4-1.4-.7-2.9-.9-4.3-.2-1.6.4-3.4-.9-4.8.4-1.7-.7-3.3-.1-5,.3-1-.1-2.2-.3-3.4,0-.2-.1-.4-.1-.7-.2-3.3-.4-6.6-.4-10,0-1.5.7-3.1.8-4.6,0-1.5,1.4-2.1,2-3.2.3-.5,1.8-.6,2.6-.3.7.2,1.3,1.1,1.7,1.8.1.3-.4.9-.6,1.3-1.1,2.1-1.5,4.3-1.7,6.6,0,.6,0,1.3,0,1.9-.2,5.2-.3,10.4-.5,15.6,0,.6-.3,1.1-.5,1.9Z"/>
    <path d="M329.4,140.4c1.8-.7,4.3.1,5.2,1.8.4.8.9,1.8.9,2.7.2,2.8.6,5.6.2,8.6-.4,2.9-.9,5.8-1.6,8.6-.8,3.3-1.7,6.6-3.2,9.8-.9,1.8-1.7,3.6-2.5,5.3-.1.3-.4.4-.7.6,0-.4-.2-.7-.2-1.1,0-.3.3-.7.5-1,2.2-3.7,3.8-7.6,4.5-11.8.5-2.6,1.6-5.2,1.2-8.1-.1-.8,0-1.6.3-2.4.3-1-.2-2.3-.4-3.5-.2-1.5-.2-3-.5-4.5-.3-1.7-1.5-2.7-2.9-2.5-.3,0-.7,0-.8.2-1,1.4-3,2.1-3.4,4,0,.1-.3.3-.3.3-.2-.1-.4-.3-.5-.5-.5-1.7.1-3.3,1.2-4.6.7-.8,1.3-2.1,3-1.9M326.8,143.7v.4c0-.1.1-.3.5-.4v-.4c0,.1-.1.3-.5.4Z"/>
    <path d="M337.6,490.5c-.7-.8-1.2-1.5-1.6-2.3-1-1.9.1-3.2,1-4.2.9-1.1,2.5-1.8,4.1-1.3,3.8,1.2,4.5,4.1,2.4,7.4-.2.3-.6.4-.9.6-1.6.8-3.2.7-4.9-.1Z"/>
    <path d="M379.6,132.3c-.9-1.9-.7-4.3.3-5.2,1.4-1.3,4-1.7,5.6-.7,1.7,1,2.5,4.4,1.4,6-1.5,2-3.8,2.8-6.1,1.1-.4-.3-.7-.7-1.1-1.1Z"/>
    <path d="M387.1,72.8c.1,2,0,3.7-1.9,4.7-2.3,1.2-4.9.4-6.2-2-1.2-2.2-.4-4.3,2.1-5.5,1.6-.8,4.4.2,5.5,2,.1.2.3.3.5.7Z"/>
    <path d="M421.9,431.7c-1.9-1.4-2.5-4.1-1.1-5.7,2.4-2.7,5.9-2.5,7.5.7.5,1,.6,1.8,0,2.7-.5.7-.8,1.6-1.4,2.3-1.1,1.3-2.5.9-3.8.6-.3,0-.7-.3-1.1-.6Z"/>
    <path d="M504.3,258.1c.1-1.3,0-2.4.4-3.4.9-2.3,2.8-2.9,5.6-1.8,1.9.7,2.3,2.8,1.9,4.6-.1.6-.5,1.1-.6,1.6-.4,1.3-1.4,1.7-2.5,1.8-2.1.2-3.8-.7-4.8-2.8Z"/>
    <path d="M427.3,256.7c-1.2,3-2.3,3.8-4.8,3.8-2.5,0-4.3-3.1-3.3-5.4.5-1.1.8-2.3,2.3-2.7,3.2-.9,5.6.7,5.8,4.3M423.2,258.6c.2,0,.4,0,.6-.1l-.7-.7c0,.2,0,.4.1.8M425.6,255.7c0,0-.1.2-.2.3.1,0,.3,0,.2-.3Z"/>
    <path d="M592.7,295.4c-.9-.4-1.9-.6-2.3-1.2-1.1-1.4-1.4-3.1-.8-4.9.6-1.9,2.4-2.4,4-2.8,1.5-.4,3.3,1.5,3.4,3.2.1,1.2-.4,2.4-.1,3.6.1.4-.6,1.3-1.1,1.6-.9.4-1.9.4-3.1.6Z"/>
    <path d="M437.8,133.2c-2-.9-2.6-2.3-2.5-4.3,0-1.6.7-2.7,2.2-3.3,1.7-.7,3.1-.5,4.3.7.4.4.8.8,1.2,1.2,1.2,1.2.9,2.6.3,3.9-.5,1.2-1.5,1.8-2.8,1.9-.9,0-1.7,0-2.7-.1Z"/>
    <path d="M181,253.8c1.2-.8,2.4-.3,3.1.1.9.6,1.8,1.8,2.1,2.8.7,2.9-1.4,5.6-4.4,5.5-.9,0-1.9-.7-2.7-1.3-.4-.3-.4-1.1-.4-1.7,0-1.4-.7-2.9.5-4.1.5-.5,1.1-.9,1.9-1.4Z"/>
    <path d="M424,482.6c1.5.3,2.7.7,3.5,1.8,1.2,1.9,1.2,3.1-.3,4.6-.9.9-2.3,1.5-3.6,2.1-.3.1-.7,0-1-.2-2.1-.9-3.1-2.5-2.8-4.6.2-1.4,1.4-3.3,4.2-3.6Z"/>
    <path d="M509.5,345.1c2.1,0,3.2,1,3.3,2.8,0,1.8,0,3.7-1.8,4.7-1.3.7-3.7.6-4.7-.2-1.1-.9-1.8-3.6-1.3-4.9.6-1.6,1.9-2.4,3.9-2.4.2,0,.3,0,.7,0Z"/>
    <path d="M184.4,347.3c1.6,1.3,2,2.8,1.8,4.6-.3,2.1-2.8,3.7-4.8,3.1-.8-.2-1.5-.6-2.2-.9-1.1-.5.5-1.1-.1-1.7-.4-.4-.5-1-.7-1.6-.6-1.8.4-3.6,2.2-3.7,1.2-.1,2.4.1,3.8.3Z"/>
    <path d="M94.5,254.3c2.4-1,4.2-.5,5.2,1.4,1.2,2.1.8,4.6-.9,5.9-1.5,1.1-4.4,1.2-6.1-.9-.4-.5-.7-.8.2-.9,0,0,.3-.7.2-.8-1-1.3-.3-2.4.5-3.4.3-.4.5-.9,1-1.3Z"/>
    <path d="M258.7,484.9c1.4,1.5,1.7,2.9.8,4.6-1.3,2.5-3.3,3.2-5.5,1.5-1-.8-1.9-1.8-2.5-3-.3-.7-.3-1.7.5-2.5,2-2.2,4.4-2.7,6.6-.6Z"/>
    <path d="M425.7,345.7c2.5,1.3,3.2,4.3,1.1,6.3-2.2,2.1-4.5,2.2-6.1,0-.8-1.2-1.4-2.5-.6-4.2.8-1.7,2.1-2.3,3.6-2.6.6-.1,1.3.3,2,.5M422.5,351c0,0-.2-.1-.3-.2,0,.1,0,.3.3.2M424.7,351.7c0,0-.1.2-.2.3.1,0,.3,0,.2-.3Z"/>
    <path d="M499,131.3c-2.2,2.2-3.6,2.5-5.5,1.5-2.5-1.3-3.3-5-1.4-6.8.7-.7,1.8-1.3,3.3-.8,2.3.7,3.2,2.4,4.1,4.1.2.4-.2,1.2-.5,2Z"/>
    <path d="M93.6,354.6c.2-.1.5-.2.7-.1.2,0,.4.2.7.3,0-.2,0-.5,0-.6-.5-.7-1.1-1.1-1.4-2-.4-2.1-.1-3.9,1.2-4.6,1.2-.6,4.2,0,5.1,1.1,2.1,2.4,1.2,5.9-1.4,7-1.8.8-3.3.2-4.8-1Z"/>
    <path d="M128.2,391.5c.9-.3,1.7-.5,2.5-.6,1.5,0,3.6,1.6,4,3.1.5,2-.4,4-2.2,4.9-2.2,1.1-3.5.5-4.5-1.7-.4-.9-.7-1.7-.9-2.7-.4-1.3,0-2.2,1.1-3.1M129.5,398.7c0,0,.2.1.3.2,0-.1,0-.3-.3-.2Z"/>
    <path d="M584.2,486.7c-.9.6-.9,1.5-1,2.4,0,.5-.5,1.4-.8,1.4-1.3,0-2.7.1-3.9-.2-1.6-.4-2.6-2.3-2.4-3.9.2-1.8,1.9-3.8,3.5-3.8,1.3,0,2.7-.4,3.9.9.9,1,.4,2.1.6,3.2Z"/>
    <path d="M442.7,75.5c-1.9,1.7-3.7,2-5.5,1.1-1.6-.8-2.5-3.7-1.9-5.5.5-1.5,2.6-2.5,4.3-2,3,.8,4.3,3.3,3.1,6.5Z"/>
    <path d="M547.4,129.4c-.1-1.5-.3-2.8.9-4,1.3-1.3,2.3-1.4,4.1-.7,1.9.7,2.6,2.2,3,3.9.3,1.2,0,2.5-1.2,3.2-1.4.8-3.5.9-4.9-.2-.7-.5-1.1-1.4-1.8-2.2Z"/>
    <path d="M498.5,75.5c-.8.3-1.5.5-2.2.8-2.3.8-4.6-.7-4.8-3.1,0-.4,0-.8,0-1.2,0-3.6,2.7-4.3,5.3-3,2.6,1.3,3.3,3.9,1.7,6.5Z"/>
    <path d="M604.6,129.9c0-1.2-.6-2-.3-3.3.5-1.7,1.7-2.1,2.9-2.6.4-.2,1.3.2,1.8.5.7.5,1.2,1.2,1.9,1.8.5.5.7.9.7,1.6,0,.5-.2,1.1,0,1.4.4.6.7,1.1.2,1.6-.6.6-1.2,1.2-2,1.4-1.7.6-4.2-.6-5.2-2.4Z"/>
    <path d="M126.2,486.9c2.6-2.2,5.6-1.7,6.8.9,1.2,2.6,0,5.3-2.6,6.1-.2,0-.4.1-.6,0-2.4-.6-4.4-3.9-3.8-6.5,0-.1.2-.2.3-.6Z"/>
    <path d="M549.8,75.5c-1.3-1.2-2.1-2.3-2-4,.1-2.7,1.8-4.2,4.4-3.4,1.6.5,2.9,1.7,3.2,3.4.2,1.3.7,2.7-.8,3.7-1.5,1.1-3,1-4.8.2Z"/>
    <path d="M576.3,394.6c-1.3-1.3-.8-2.8-.4-3.9.4-1.2,1.9-2,3.1-2,1.1,0,2.4.5,3.4,1.2,1,.7,1,1.9.9,3.1-.3,3.1-3,4.6-5.6,3.2-.5-.3-.8-.9-1.4-1.5Z"/>
    <path d="M256.2,398c-1.2-.5-2.3-.8-3-1.8-1-1.3-1.1-2.8-.6-4.1.6-1.4,2-2.3,3.6-2.6,1.7-.3,3.7,1.9,3.9,3.7.4,2.9-1.5,3.8-3.8,4.8Z"/>
    <path d="M605.5,73.3c-1-1.7-.6-3.2,0-4.5.5-1,1.5-1.3,2.6-1.2,2.6.4,4.5,2.8,4.4,5.4,0,1.4-1.2,2.4-2.5,2.7-2.1.4-3.3-.8-4.5-2.4Z"/>
    <path d="M480.7,182c.3.7,1.1,1.7.9,2-.6.8-1.6,1.6-2.4,1.7-2.5.2-4.9.3-7.2-1.3-.8-.6-1.8-.9-1.6-2.1.2-1.2,1-1.7,2.5-1.7,2,0,3.9,0,5.9,0,.9,0,1.8.1,1.9,1.3-.7.1-1.2,0-1.8.1-.5,0-.9.2-1.3.3.5.2.9.5,1.4.6.8.1,1.6,0,1.8-.9Z"/>
    <path d="M344.1,393.8c-.5,1.5-1,2.4-2.5,3-1.7.6-2.6-.1-3.6-.9-1.2-1-1.3-2.5-.8-3.9.5-1.5,1.3-1.9,3.1-1.9,2.5,0,3.6,1,3.8,3.8Z"/>
    <path d="M264.2,295.4c-.8-2.1-.6-3.1.7-4.3.7-.7,2.2-.7,3.4,0,.6.3,1.8,2.2,1.5,2.6-.6,1-.9,2.4-2.4,2.6-1.1.2-2.3,0-3.2-.9Z"/>
    <path d="M592.2,347.9c1-1.5,2.9-2,4-1.4,1,.5,1,2.2.8,3.6-.3,1.4-1.4,2-2.2,1.9-.8,0-1.5-1.2-2.1-2-.4-.5-.4-1.3-.5-2.1Z"/>
    <path d="M355.1,456.5c1.3,1.1,1.7,3.1.9,4.1-.5.6-1,1-2,.5-.9-.4-2-.7-2.4-1.6-.4-.8-.4-1.9-.2-2.8,0-.3,1.1-.5,1.8-.6.6,0,1.2.1,1.9.3Z"/>
    <path d="M268.8,349.4c.5,1.5-.5,2.4-1.4,3-.4.3-1.5,0-2-.3-.7-.6-1-1.8-.7-2.7.2-.6,1.1-1.4,1.5-1.3.9.1,1.6.8,2.6,1.4Z"/>
    <path d="M345,275.5c-1.4-.6-2.2-2-3.8-2.6-2-.7-3.8-1.1-5.7-.1-.2,0-.5,0-.8,0,.9-1.8,2.3-1.9,4.1-1.5,2.1.5,4.1,1,5.6,2.6.3.3.3.9.5,1.5Z"/>
    <path d="M337.9,258.6c.3.3.4.7.4.8-1.5.8-3.1,1.4-4.5,2.2-.6.4-.7,0-.8-.2-.1-.2-.2-.7,0-.8.8-.7,1.3-1.8,2.7-1.6.7,0,1.4-.3,2.4-.4Z"/>
    <path d="M320.9,30.8c.1-.7.1-1.1.3-1.5.3-.5.8-.8,1.1.1.4,1,.9,2,1.3,3,0,.2-.1.5-.2.8-.2-.1-.5-.2-.7-.4,0,0,0-.3,0-.4-.2-.5-.5-1-.7-1.5-.6.4-.8.9-.7,1.6,0,.2-.2.4-.3.6,0-.2-.1-.4-.1-.6,0-.5,0-.9,0-1.6Z"/>
    <path d="M343.5,285.4c-1.3.4-2.5.8-3.7,1-.1,0-.4-.2-.4-.4,0-.2.1-.5.3-.5,1.3-.3,2.7-.7,4-.9,0,0,.2.2.2.4,0,.1-.2.2-.4.5Z"/>
    <path d="M346.4,260.9c.6.2,1,.4,1.4.7.2.2.9.4.2.8-.2.1-.5,0-.8,0-.8-.1-1.5-.4-.8-1.5Z"/>
    <path d="M332.3,280.8c-.3.2-.9.3-.9.2-.1-.4-.1-.8,0-1.1.1-.5.4-.9.6-1.4.1.5.2.9.3,1.4,0,.2,0,.5,0,.9Z"/>
    <path d="M333.2,284.2c1.2,0,2.1.7,2.8,1.7-1.2,0-2.1-.7-2.8-1.7Z"/>
    <path d="M351.6,30.8c.2-.6.3-.9.5-1.2,0,0,.4,0,.4,0,.3.5-.5,1.9-1,2.1,0,0-.2-.3-.2-.4,0-.1.2-.2.3-.6Z"/>
    <path d="M336,286.1c0-.1.2-.1.2-.1.7.1,1.4.2,2,.3-.8.2-1.6.6-2.3.6-.9,0,0-.4,0-.8Z"/>
    <path d="M521.2,324.6c.3-.2.5-.3.7-.3.2,0,.4,0,.7,0-.1.2-.2.6-.4.6-.4.1-.8,0-1.3,0,0,0,0-.1,0-.2,0,0,.1-.1.3-.3Z"/>
    <path d="M327.9,172.4c.3-.3.6-.6.8-.8,0,.2.3.4.3.5-.3.5-.5,1.2-1.3.8,0,0,0-.1,0-.2,0,0,.1-.1.3-.3Z"/>
    <path d="M446.1,136.8c0,.3-.2.5-.4.6-.2.1-.5.2-.8.2,0,0-.2-.5-.2-.5.2-.2.5-.2.7-.3.1,0,.3,0,.6.1Z"/>
    <path d="M332.7,287.1c.5,0,1,.2,1.4.4.1,0,.2.2.3.3-.1,0-.3.2-.4.1-.5-.2-.9-.5-1.4-.8Z"/>
    <path d="M345,271.9c.3,0,.8,0,1,.2.2.2.2.6.3.9-.3-.2-.6-.4-.8-.6-.2-.1-.3-.3-.5-.6Z"/>
    <path d="M584.2,487c.2.3.4.7.5,1.1,0,.2-.1.4-.2.6,0-.2-.2-.5-.3-.7,0-.3,0-.6,0-1Z"/>
    <path d="M345,271.7c-.5-.1-.9-.4-1.4-.7.5.1.9.4,1.4.7Z"/>
    <path d="M345,275.7c.1,0,.3,0,.4,0,.2.3.4.6.5.9,0,0-.2.2-.3.3-.2-.4-.4-.8-.7-1.3Z"/>
    <path d="M99.6,510.4c-.3.1-.6.2-.8.1-.2,0-.3-.2-.5-.3.1,0,.3-.2.4-.2.3,0,.7.1.9.3Z"/>
    <path d="M319.5,26c-.3.2-.6.2-.9.2.3-.2.6-.3.9-.2Z"/>
    <path d="M399.7,32.8c-.1.3-.4.5-.7.8,0-.1-.2-.3-.2-.4.2-.2.5-.4.8-.4Z"/>
    <path d="M306.4,419.9c.2.1.3.4.3.7,0,.2-.1.4-.2.6,0-.2-.2-.5-.3-.7,0-.1,0-.3.1-.6Z"/>
    <path d="M475.8,329.1c-.1.3-.4.5-.7.8,0-.1-.2-.3-.2-.4.2-.2.5-.4.8-.4Z"/>
    <path d="M328.4,293.4c-.1-.2-.1-.5-.2-.8.2,0,.5.1.7.2-.2.2-.3.3-.6.6Z"/>
    <path d="M329.5,170.2c0-.3,0-.6,0-.8.1,0,.2,0,.3,0,0,.3-.1.5-.3.8Z"/>
    <path d="M339.4,288.8c-.2.2-.3,0-.5,0,.2,0,.3-.2.5,0Z"/>
    <path d="M329.3,170.2c0,.3,0,.6,0,.8-.1,0-.2,0-.3,0,0-.3.1-.5.3-.8Z"/>
    <path d="M333.2,284c-.3,0-.6,0-.8,0,0-.1,0-.2,0-.3.3,0,.5.1.8.3Z"/>
    <path d="M276.5,320.5c.2.2,0,.3,0,.5,0-.2-.2-.3,0-.5Z"/>
    <path d="M347.3,274.5c-.2-.1-.3-.4-.3-.6,0,0,.2,0,.3,0,0,.2,0,.4,0,.7Z"/>
    <path d="M331.7,164.6c0,.3,0,.5,0,.7-.1,0-.3,0-.3,0,0-.3.1-.5.3-.6Z"/>
    <path d="M349.4,163c0-.3,0-.5,0-.7.1,0,.3,0,.3,0,0,.3-.1.5-.3.6Z"/>
    <path d="M484.8,252.3c-.2-.1-.3-.4-.3-.6,0,0,.2,0,.3,0,0,.2,0,.4,0,.7Z"/>
    <path d="M133.4,391c.3,0,.5,0,.7,0,0,.1,0,.3,0,.3-.3,0-.5-.1-.6-.3Z"/>
    <path d="M325.3,261.3c0-.1.2-.1.3-.2,0,0-.1.2-.3.2Z"/>
    <path d="M343.6,270.7c-.1,0-.3,0-.4-.2.1,0,.3,0,.4.2Z"/>
    <path d="M334.5,272.8c0,.1,0,.3-.2.4,0-.1,0-.3.2-.4Z"/>
    <path d="M1.4,284.9c-.1,0-.3,0-.4-.2.1,0,.3,0,.4.2Z"/>
    <path d="M1.9,285.4c-.2,0-.3,0-.5-.2.2,0,.3,0,.5.2Z"/>
    <path d="M332.7,286.8c-.1,0-.3,0-.4-.2.1,0,.3,0,.4.2Z"/>
    <path d="M343,288c0,.1-.2.1-.3.2,0,0,.1-.2.3-.2Z"/>
    <path d="M390.8,303.6c0,.1-.2.1-.3.2,0,0,.1-.2.3-.2Z"/>
    <path d="M332.4,86.4c0-.1.2-.1.3-.2,0,0-.1.2-.3.2Z"/>
    <path d="M285.6,156.6c.1,0,.1.2.2.3,0,0-.2-.1-.2-.3Z"/>
    <path d="M417.9,349.2c0-.1.2-.1.3-.2,0,0-.1.2-.3.2Z"/>
    <path d="M93.6,354.4c-.1,0-.3,0-.4-.2.1,0,.3,0,.4.2Z"/>
    <path d="M306.9,418.7c0-.1.2-.1.3-.2,0,0-.1.2-.3.2Z"/>
    <path d="M305.9,423.9c0-.1.2-.1.3-.2,0,0-.1.2-.3.2Z"/>
    <path d="M392.9,62.5c.1,0,.1.2.2.3,0,0-.2-.1-.2-.3Z"/>
    <path d="M332.9,40.8c.1,0,.1.2.2.3,0,0-.2-.1-.2-.3Z"/>
    <path d="M319.6,25c0-.1.2-.1.3-.2,0,0-.1.2-.3.2Z"/>
    <path d="M567.8,508.2c.1,0,.1.2.2.3,0,0-.2-.1-.2-.3Z"/>
    <path d="M327.9,537.1c0,.1-.2.1-.3.2,0,0,.1-.2.3-.2Z"/>
    <path d="M173.6,145.5c0-.1.2-.1.3-.2,0,0-.1.2-.3.2Z"/>
    <path d="M325.8,9.8c.2-.1.5-.1.8-.2,0,.2-.1.5-.2.7-.2-.2-.3-.3-.6-.6Z"/>
    <path d="M326.7,19.1c.1,0,.1.2.2.3,0,0-.2-.1-.2-.3Z"/>
    <path d="M339,32.1c0-.4.1-.6.3-.8.3.3.7.7,1,1,0,0-.2.4-.2.4-.3-.1-.7-.3-1.1-.5Z"/>
    <path d="M342.3,24.6c0-.3,0-.6,0-.8.1,0,.2,0,.3,0,0,.3-.1.5-.3.8Z"/>
  </g>
</svg>