<?xml version="1.0" encoding="UTF-8"?>
<svg id="Layer_1" xmlns="http://www.w3.org/2000/svg" version="1.1" viewBox="0 0 261.4 268.8">
  <!-- Generator: Adobe Illustrator 29.3.1, SVG Export Plug-In . SVG Version: 2.1.0 Build 151)  -->
  <g id="Shape_60">
    <path d="M6.8,207.3c0-2.1,0-4,0-6,0-1.6-.1-3.1-.1-4.7,0-1.5.1-3,0-4.5,0-1.5-.2-3.1-.2-4.6,0-.9,0-1.9,0-2.8,0-.7,0-1.5,0-2.2,0-.9,0-1.8,0-2.7,0-1.7,0-3.3,0-5,0-1.1,0-2.2,0-3.4,0-.6.4-.8.7-1.1,0,0,0-.2,0-.3-1.2-.1-.7-1-.8-1.7-.1-1.4-.1-2.8-.2-4.2,0-.6,0-1.3,0-1.9,0-1.5-.1-3-.1-4.4,0-1.2,0-2.3,0-3.5,0-.9,0-1.9,0-2.8,0-1.3,0-2.5,0-3.8,0-1.3-.2-2.6-.2-3.9,0-1.1,0-2.3,0-3.4,0-1.3-.1-2.7-.1-4,0-1.8,0-3.6-.2-5.4,0-1.3-.2-2.6-.3-3.9,0-1.6-.1-3.2-.2-4.8,0-1.1,0-2.3-.1-3.4,0-1.2,0-2.5-.2-3.7,0-1.3-.2-2.5-.3-3.8,0-1.6,0-3.1-.2-4.7,0-1.3-.2-2.5-.3-3.8,0-1.2,0-2.5-.2-3.7,0-1.3-.1-2.7-.2-4,0-1.7-.1-3.5-.2-5.2,0-1.9-.2-3.9-.3-5.8,0-1.9,0-3.9-.2-5.8,0-1.4-.3-2.8-.3-4.3,0-1,0-2,0-3,0-.4,0-.8,0-1.2-.1-1.8-.3-3.6-.4-5.4,0-1.2,0-2.4,0-3.6,0-1.1-.2-2.1-.2-3.2,0-.8.2-1.5.3-2.3,0-.2,0-.4,0-.5-.6-.6-.4-1.4-.4-2.1,0-.4.3-.4.6-.2.3.2.7.5,1,.7.2,0,.5,0,.7,0,0-.2,0-.4-.2-.7-.4-1.1-1.5-1-2.3-1.4-.3-.2-.6-1.1-.3-1.4,0,0,.2,0,.2,0,.1.1.2.3.3.5.1.2.3.3.5.4,0-.2.2-.5,0-.7-.9-1.6-.8-3.4-1-5.1-.2-2.1-.3-4.3-.5-6.5-.1-1.7-.2-3.4-.3-5,0-1.3-.2-2.7-.3-4,0-1.9,0-3.9,0-5.8,0-1.9-.2-3.8-.3-5.7,0-.6,0-1.2.2-1.7.1-.2.7-.3,1.1-.4,1.6-.1,3.2-.3,4.8-.3,1.4,0,2.7,0,4.1,0,.6,0,1.1-.2,1.7-.3.5,0,1,.1,1.5.1,1.3,0,2.6-.2,3.9-.3.9,0,1.8,0,2.7-.2.3,0,.6,0,1,0,2-.1,4.1-.3,6.1-.4,1.5,0,2.9-.1,4.4-.2,1.8-.1,3.6-.3,5.4-.4,1.1,0,2.2-.2,3.3-.3.9,0,1.8-.1,2.8-.2,1,0,2-.2,3-.3,1.1,0,2.2-.2,3.3-.3,1.1-.1,2.3-.2,3.4-.3,2.1-.2,4.2-.4,6.3-.6,1.8-.1,3.6,0,5.5-.2,2.3-.1,4.6-.4,6.9-.6.9,0,1.9,0,2.8-.2,1.5,0,3.1-.2,4.6-.3.9,0,1.7,0,2.6,0,1.6,0,3.2-.2,4.8-.3,1.2,0,2.5,0,3.7,0,1.1,0,2.2,0,3.3-.1,1.3,0,2.6,0,3.9-.1,1,0,2,0,3-.1.4,0,.5.1.4.5,0,.1,0,.4.2.5,0,0,.2,0,.4,0,0-.2,0-.3,0-.5,0,0,0-.2,0-.3.5,0,1,0,1.6,0,0,.1,0,.2,0,.3-.1.4-.3.8-.4,1.3,0,0,0,.2.1.3.1,0,.3-.1.3-.2.2-.4.5-.9.6-1.4.1-.6.5-.6,1-.6,1.5,0,3-.2,4.5-.2.9,0,1.8,0,2.7,0,1,0,2.1,0,3.2,0,.7,0,1.3,0,2,0,1.8,0,3.5,0,5.3,0,1.4,0,2.7.1,4.1.1.9,0,1.8,0,2.6,0,.9,0,1.6.2,2.2.8.5.5.6.1.9-.2.1-.2.4-.5.6-.5,1-.1,2-.2,2.9-.2,2.8,0,5.7,0,8.5,0h6.1s5.8-1,8.7-1c1.6,0,3.2.1,4.8.1,1.5,0,3,0,4.6,0,1.6,0,3.2.1,4.9.1,1.3,0,2.5,0,3.8,0,1.8,0,3.6.1,5.4.1.8,0,1.7,0,2.5,0,.3,0,.6,0,.8,0,2.1,0,4.1,0,6.2.1,1.1,0,2.2,0,3.3,0,1,0,2,.2,3,.2.7,0,1.4,0,2,0,1.4,0,2.8,0,4.3,0,1.2,0,2.3,0,3.5,0,2.1,0,4.2,0,6.3.1,1.5,0,3.1,0,4.6,0,1.7,0,3.3,0,5,0,1.7,0,3.4.2,5.1.2.7,0,1.4,0,2.1,0,1.4,0,2.8.2,4.1.3,1,0,1.9-.1,2.9-.1.8,0,1.6.1,2.4.1.9,0,1.9,0,2.8,0,.9,0,1.9.2,2.8.3.7,0,1.5.2,2.2.2.8,0,1.5,0,2.3-.1.6,0,1.2,0,1.8,0,0,0,.3,0,.2.1,0,.1,0,.3-.1.4-.3.5-.7,1-1,1.4,0,0,0,.2,0,.4.2,0,.4,0,.5,0,0,0,0-.1,0-.2.7-.8,1.2-.7,1.8.2.3.5.5,1.1,1.1,1.3.2,0,.3.5.4.8.2.4.3.8.5,1.2,0,0,.3.2.4.1,0,0,.2-.2.2-.3-.1-.8-.2-1.7-1-2.3-.5-.4-.6-1-.8-1.5-.1-.3-.6-.5-.9-.8-.1-.1-.2-.3-.3-.4.1,0,.3,0,.4,0,.9.1,1.8.3,2.6.5,0,0,.1.2.2.3,0,0-.2.2-.3.2-.3,0-.6,0-.9,0-.1,0-.3,0-.4,0,0,0,0,.3,0,.4.2.5.4.9.6,1.4,0,0,.1.1.2.1.1-.1.3-.2.4-.3,0,0,0-.2,0-.4,0,.1.2.2.2.3-.2,1,.7,1.8,0,2.9-.2.3.3.9.3,1.4,0,1.1,0,2.1.1,3.2,0,.8.1,1.6.2,2.3,0,.3,0,.5-3.1.8v1.7c3.1.9,3.2,1.7,3.1,2.6,0,1.3,0,2.5-.1,3.8,0,.5-.1,1.1-.1,1.6,0,1.4,0,2.8-.2,4.2-.1,2-.3,4-.4,6,0,1.5,0,3-.2,4.5,0,1.1-.2,2.3-.2,3.4,0,1.7,0,3.4,0,5.1,0,1.2-.2,2.5-.3,3.7,0,1,0,2.1,0,3.1,0,2,0,4-.1,6,0,1.3-.1,2.6-.1,3.9,0,1.1.1,2.1.1,3.2,0,1.1-.1,2.1-.1,3.2,0,1.1,0,2.1,0,3.2,0,1,0,2-.1,2.9,0,1,0,1.9-1.1,2.9v2.9s0,4.8,0,4.8c1.1,3.6,1.1,7.3,1.1,10.9,0,1.6,0,3.2,0,4.8,0,1.4,0,2.8,0,4.2,0,2,0,4,0,5.9,0,2.1.2,4.1.2,6.2,0,1.4-.1,2.8-.1,4.2,0,1.1,0,2.3.1,3.4,0,1.4,0,2.8.2,4.3,0,1.8.2,3.7.3,5.5,0,1.6,0,3.2.1,4.8,0,1.7.1,3.4.2,5.1,0,1.4.2,2.9.3,4.3,0,1.2.1,2.4.2,3.7,0,.7,0,1.4.1,2.2,0,1.3.2,2.6.3,3.9,0,1.6.1,3.2.2,4.7.1,2,.3,4.1.4,6.1.1,1.9.3,3.7.4,5.6.1,1.6.4,3.1.4,4.7,0,1.7.2,3.3.3,5,.2,2.4.3,4.9.5,7.3,0,1.3,0,2.5.2,3.8,0,1.3.2,2.6.3,3.9,0,1.5.1,3,.2,4.5.1,2.5.3,5,.5,7.5.1,2.5.3,5.1.4,7.6,0,1.5,0,3.1.2,4.6,0,.9.1,1.8.1,2.7,0,1.3,0,2.5.2,3.8,0,1.4.2,2.7.3,4.1,0,1.3,0,2.7,0,4,0,1,0,2,.1,3,0,.9,0,1.8.1,2.7,0,1.3.1,2.5.1,3.8,0,1.1,0,2.2,0,3.3,0,.9,0,1.8.1,2.6,0,.5.1,1,.1,1.6,0,.2-.3.4-.5.4-1.5,0-2.9,0-4.4,0-.9,0-1.8.1-2.7,0-2,0-4,0-5.9,0-1.6,0-3.2,0-4.8,0-1.2,0-2.4-.1-3.7-.1-1,0-1.9.1-2.9.1-1.3,0-2.5,0-3.8-.1-.9,0-1.7,0-2.6,0-1.2,0-2.5,0-3.7,0-1.1,0-2.3-.1-3.4-.1-1.2,0-2.5.1-3.7.1-.7,0-1.4,0-2,0-1.3,0-2.5,0-3.8,0-.7,0-1.4,0-2.1,0-.9,0-1.8,0-2.7,0-1.1,0-2.3.1-3.4.1-1.3,0-2.5,0-3.8-.1-2.1,0-6.3,1.8-6.3,1.8h-5.9s-4.2-1.8-6.3-1.8c-2.1,0-4.2-.1-6.4-.1-1.2,0-2.3.1-3.5.1-.7,0-1.4,0-2,0-1,0-2,0-3,0-1.3,0-2.5,0-3.8-.1-1.2,0-2.3,0-3.5,0-.9,0-1.7,0-2.6,0-.8,0-1.7,0-2.5,0-2,0-4.1,0-6.1,0-1.8,0-3.6,0-5.4,0-1.7,0-3.3-.1-5-.1-1.5,0-3,0-4.5,0-1.6,0-3.2-.1-4.8-.1-1.5,0-3.1,0-4.6,0-1.4,0-2.7-.2-4.1-.3-.6,0-1.1,0-1.7,0-1.4,0-2.8-.2-4.3-.3-1.2,0-2.5,0-3.7,0-.6,0-1.3,0-1.9-.1-.7,0-1.4-.1-2.2-.1-1.4,0-2.7-.2-4.1-.2-1.6,0-3.2,0-4.7,0-1.1,0-2.2-.2-3.3-.3-.7,0-1.4,0-2.1,0-2.6,0-5.2-.2-7.7-.3-1.1,0-2.3,0-3.4,0-1.7,0-3.3,0-5,0-1.8,0-3.7-.1-5.5-.1-1.5,0-3.1,0-4.6,0s-2.3,0-3.5,0c-1.4,0-2.9.1-4.3.1-1.6,0-3.1,0-4.7,0-1,0-2.1,0-3.1,0-.8,0-1.6,0-2.4,0-2.3,0-4.7.1-7,.1-1.7,0-3.4,0-5-.1-1.2,0-2.4,0-3.5,0-1.5,0-3.1-.1-4.6-.1-2.1,0-4.2.2-6.3.2-1.8,0-3.5,0-5.3,0-1.4,0-2.9,0-4.3,0-1.7,0-3.5,0-5.2.1-.6,0-.8,0-.7-.7,0-1.1,0-2.3,0-3.4,0-1.4.1-2.8.1-4.2,0-3,0-6,0-9,0-2.2,0-4.3,0-6.5,0-1.5,0-3.1,0-4.6,0-1.1.1-2.2.1-3.3,0-1.1-.1-2.2-.1-3.3,0-1.2,0-2.5-4-3.7l4.4-3.1s0-1.6,0-2.4,0-1.5,0-2.2c0-1.1-.1-2.1-.1-3.2,0-1.1,0-2.1,0-3.2,0-1.1,0-2.2,0-3.3,0-.7,0-1.4,0-2.2M182.5,43.6c-1.5-.9-2.9-1.9-4.5-2.8-1.5-.9-3.1-1.6-4.6-2.4-1.3-.7-2.6-1.4-4-2-1.6-.6-3-1.6-4.7-2.1-1.2-.3-2.4-1.1-3.6-1.5-1.3-.5-2.6-.9-3.9-1.3-1.9-.5-3.7-1.1-5.6-1.5-2.6-.6-5.2-1.2-7.8-1.8-1-.2-2-.3-3-.5-.8-.1-1.5-.3-2.3-.4-1.2-.2-2.4-.3-3.6-.4-.9,0-1.7-.2-2.6-.2-.7,0-1.4,0-2,0-1.7-.2-3.5-.3-5.2-.3-1.5,0-2.9,0-4.4,0-.2,0-.4,0-.5,0,.1-.1.3-.3.4-.4,0,0,.2,0,.3-.1.9-.6,1.8,0,2.6-.1.1,0,.3-.1.4-.2-.1,0-.3-.2-.4-.2-.2,0-.6,0-.7,0-.4-.6-.9-.4-1.3-.2-.4.2-.8,0-1-.5-.2-.6-.7-.8-1.3-.4-.7.5-1.4.6-2.2.5-.4,0-.9,0-1.3.2-.2,0-.5.1-.7.3-.2.2-.4.4-.6,0,0,0,.2-.3.4-.4,0,0,.2-.2.3-.2-.1,0-.3-.3-.4-.3-.5.1-1.2-.2-1.6.4,0,.1-.3.2-.5.2-.8,0-1.6,0-2.5.3-.7.3-1.6.6-2.4-.1,0,0-.4,0-.5,0-.6.9-1.6.7-2.3,1.1-.1,0-.3.2-.3.3,0,.3,0,.6.2.8,0,0,.3,0,.4,0,.6-.6,1.2-.7,1.9-.1,0,0,.3,0,.4,0,0-.1,0-.3,0-.4,0-.2,0-.4-.1-.6.2.1.3.2.5.4.3.3.5.8,1.1.4.2-.1.6.2.9.2,0,0,0,0,0,.1-.3,0-.6,0-.8,0-.1,0-.2,0-.3,0-.6,0-1.2.3-1.8.1-.5-.1-.8,0-1.3.2-.8.3-1.6.7-2.4.9-1.5.4-3,.4-4.4,1-1.2.5-2.4.6-3.6,1.1-1,.4-2.1.7-3.2,1-1.2.4-2.4,1.2-3.7,1.2,0,0-.1.1-.2.1-.7.3-1.4.6-2.1.9-.7.3-1.3.5-2,.8-.5.2-1,.5-1.5.7-.9.4-1.8.9-2.8,1.3-.8.4-1.6.8-2.4,1.2-1.7.9-3.4,1.7-5.1,2.6-1.6.9-3.2,1.9-4.7,3-.9.6-1.9,1.1-2.7,2-.9,1-2.2,1.6-3.4,2.4-.9.7-1.8,1.4-2.7,2.2-.7.5-1.4,1.1-2,1.6-.6.5-1.2.9-1.8,1.4-1,.9-2,1.9-3.1,2.9-.9.8-1.8,1.5-2.6,2.3-.9.9-1.7,1.9-2.6,2.8-.4.4-.8.7-1.2,1.2-.9,1.2-1.8,2.4-2.8,3.6-.8,1.1-1.7,2.1-2.5,3.2-.5.7-1,1.5-1.5,2.2-1.3,1.9-2.6,3.7-3.9,5.5-.7,1-1.2,2.1-1.8,3.1-.8,1.3-1.6,2.6-2.3,4-.5,1-1,2.1-1.5,3.2-.4.9-1.1,1.5-1.3,2.5,0,.5-.6.9-.5,1.6,0,.3-.2.8-.4,1.1-.5,1.2-1.1,2.3-1.6,3.5-.4.9-.6,1.9-.9,2.9-.4,1.2-.8,2.3-1.1,3.5-.4,1.5-.7,3-1,4.4-.6,2.4-1.2,4.7-1.7,7.1-.4,1.6-.5,3.3-.8,5-.2,1.4-.3,2.8-.5,4.2,0,.9,0,1.9-.2,2.8-.5,2-.2,4-.3,5.9,0,1.6.3,3.2.4,4.8,0,1.4,0,2.9,0,4.3,0,1.1,0,2.1.1,3.2,0,.9.2,1.9.3,2.8.1,1.1.2,2.2.3,3.2,0,.7.3,1.4.4,2.1.3,1.4.4,2.8.7,4.2.3,1.6.7,3.2,1,4.7.3,1.2.7,2.3.9,3.4.2,1.1.5,2.1.9,3.2.3,1,.6,2.1.9,3.1.3,1.1.7,2.1,1.1,3.2.2.5.3.9.5,1.4.3.9.9,1.7,1.1,2.7.3,1,.8,1.8,1.2,2.8.6,1.3,1.2,2.6,1.8,3.8.5,1.1,1.2,2.1,1.8,3.1.6,1.1,1.1,2.2,1.7,3.3.6,1,1.3,1.9,2,2.9,1.3,1.9,2.5,3.8,3.7,5.6.4.7.9,1.3,1.4,1.9.8,1,1.6,2,2.4,3,.9,1.1,1.8,2.2,2.7,3.3.6.7,1.3,1.3,1.9,1.9,1.2,1.4,2.3,2.8,3.6,4.1,1.6,1.6,3.4,3,5.1,4.5,1,.9,1.9,1.8,2.9,2.6.8.7,1.8,1.2,2.7,1.8,1.1.8,2.2,1.8,3.3,2.6,1.6,1.1,3.2,2.2,4.9,3.2,2.3,1.4,4.6,2.6,6.9,3.9,1,.6,2.1,1.1,3.2,1.6.7.4,1.4.7,2.1,1.1.9.4,1.8.7,2.6,1.1.9.4,1.8.8,2.8,1.1.8.3,1.6.6,2.4.9.8.3,1.6.8,2.4,1,2.3.7,4.7,1.3,7.1,2,.4.1.8.2,1.1.3,1.6.3,3.1.8,4.7,1,1.6.2,3.1.8,4.8.8,1.3,0,2.6.4,3.8.5,1.2.2,2.4.3,3.6.4.7,0,1.3.1,2,.1,1.3,0,2.5,0,3.8,0,1.5,0,2.9.1,4.4,0,2.2,0,4.5-.2,6.7-.4,1.2,0,2.5-.2,3.7-.3,1.8-.2,3.5-.5,5.3-.7,1.1-.2,2.1-.4,3.2-.6,2-.4,4.1-.8,6.1-1.2.7-.2,1.5-.4,2.2-.6.8-.2,1.5-.6,2.3-.8.8-.3,1.7-.5,2.6-.8.8-.3,1.5-.6,2.3-.9.8-.3,1.6-.7,2.4-1,1-.4,1.9-.9,2.9-1.3,1-.5,2.1-.9,3.1-1.4.8-.4,1.5-.8,2.3-1.2,1.9-1,3.7-1.9,5.6-2.9.6-.3,1.2-.7,1.8-1.1.4-.2.9-.4,1.3-.6.7-.5,1.4-1.2,2.2-1.7,1.7-1,3.3-2,4.8-3.3.5-.4.9-.8,1.5-.9.4-.1.7-.7,1.1-1,1.2-1,2.4-2,3.6-3,.7-.6,1.4-1.3,2.1-1.9.8-.7,1.6-1.5,2.4-2.2.5-.5,1-1,1.4-1.5.6-.6,1.3-1.3,1.9-1.9.8-.8,1.7-1.7,2.4-2.6,1.1-1.4,2.2-2.7,3.5-4,.9-.9,1.5-2.2,2.3-3.3.6-.9,1.3-1.7,1.9-2.5,1-1.5,2-2.9,2.9-4.4.7-1.1,1.3-2.3,1.9-3.5.5-.8,1.1-1.6,1.6-2.4.5-1,.9-2,1.5-3,.7-1.1,1.2-2.4,1.8-3.6.5-1.2,1-2.5,1.5-3.7.5-1.2,1-2.5,1.5-3.7.5-1.4,1-2.8,1.5-4.2.2-.7.5-1.3.7-2,.5-2.1.9-4.1,1.5-6.2.6-2,1-4.1,1.2-6.2.2-1.6.4-3.2.6-4.9.2-1.5.5-3.1.7-4.6.2-1.7.2-3.5.2-5.2,0-1.8.2-3.6.2-5.4,0-1.9,0-3.7-.1-5.6-.1-2.2-.3-4.4-.5-6.6-.1-1.3-.4-2.6-.6-4,0-.7-.3-1.5.4-2,.1-.1.2-.2.3-.4-.2-.1-.4-.2-.6-.3-.2-.1-.6-.3-.6-.5-.3-1.4-.6-2.7-.9-4.1-.3-1.6-.7-3.3-1-4.9-.2-1-.5-2-.8-3-.5-1.6-1-3.1-1.5-4.7-.3-1-.7-2.1-1.1-3.1-.2-.7-.6-1.3-.8-2-.4-1-.6-2.1-1-3-.6-1.5-1.4-2.9-2.1-4.3-.5-1-1-2.1-1.6-3.1-.6-1.2-1.2-2.4-1.8-3.5-.8-1.4-1.6-2.7-2.5-4-1-1.5-2-3.1-3-4.6-.5-.8-1.1-1.6-1.7-2.4-1.2-1.5-2.4-3-3.6-4.5-1-1.2-1.9-2.4-2.9-3.5-1.1-1.2-2.4-2.4-3.6-3.6-1.3-1.2-2.5-2.5-3.8-3.7-.7-.6-1.4-1.1-2.1-1.7-.9-.8-1.7-1.8-2.7-2.6-1.2-1-2.5-1.8-3.7-2.7-1.3-1-2.7-1.9-4-2.8-.5-.4-1.1-.9-1.7-1.3M153.1,256.3c0,.2,0,.5,0,.7.1.4.1.6-.4.6-.4,0-.7.3-1,.5-.5.4-.8,1.3-1.8.7-.1,0-.5.3-.8.5.3.1.5.3.8.3.4,0,.8.2,1.2.2.2,0,.4-.2.6-.3-.4-.5.2-.6.3-.9.1-.4,1.3-.7,1.6-.6.6.3.8.9.7,1.6,0,.2.1.5.2.5.3,0,.7,0,.8-.2.1-.3.1-.7,0-1.1,0-.4,0-.6.4-.4.7.2,1.5.3,1.7-.7,0-.3.3-.6.6-.8.1,0,.4-.1.5,0,0,0,.2.3.2.3-.4.5-.8,1.1-1.3,1.6,0,0,0,0-.1.1-.1,0-.3.2-.4.3,0,.1.1.4.2.4.5,0,.3.3.4.6,0,.2.2.5.3.7,0,.1.3.1.4.2,0-.2.1-.4,0-.5-.4-.5-.3-1,0-1.6,0-.1,0-.2,0-.4.1,0,.3.1.3.2,0,.5.4.4.7.3.6-.1,1-.6,1.5-.9.8-.5.3-.8,0-1.3,0-.1-.2-.3-.3-.4-.4-.6.3-.7.5-1,0,0,.1,0,.2-.1.1.5.8.7.5,1.4,0,0,.1.3.2.3.3,0,.8-.1.9-.4.5-1.2,1.5-1.6,2.5-2.1.8-.4,1.6-.7,2.4-1,.1,0,.2-.3.3-.5-.2,0-.4-.1-.6-.1-.3,0-.7,0-1,.2-.8.4-1.6.5-2.3,1.2-.5.6-.8.6-1.2,0,0-.1-.2-.2-.3-.2,0,0-.2.2-.2.3,0,.2,0,.5,0,.7,0,.3.1.6.2,1-.2-.2-.5-.4-.7-.6-.2-.3-1.3-.7-1.4-.5-.4.8-1.2.8-1.9,1.2,0,0-.2,0-.3,0,0-.1,0-.3.1-.3.3-.3.5-.5.8-.7.1,0,.2-.2.3-.3-.2,0-.5,0-.6,0-.6.4-1.2,1-1.8,1.4-.1,0-.3.2-.4.2-.6,0-1.3,0-1.9,0-.3,0-.6.3-.8.5,0,0,.3.4.3.6,0,.2-.1.4-.2.6-.4-.2-.9-.3-1.1-.6-.3-.4-.4-1,.3-1.3,0,0,.1-.1.2-.2,0,0-.2,0-.3,0-.2.1-.4.2-.7.4M87.7,251.1c.5-.9,1.1-1.8,1.7-2.7.4-.6,1-1,1.5-1.5.2-.2.6-.3.8-.6.2-.2.1-.6.2-.8-.2.2-.4.3-.6.5,0,0-.1,0-.2,0-.5.4-1,.7-1.4,1.1-.6.6-1,1.3-1.5,2-1,1.5-2,3-2.9,4.5-.1.2-.2.5-.4.7-.8.5-1.3,1.3-1.6,2.2-.5,1.3-1.1,2.6-2.2,3.4-1.3,1-2.1,2.3-2.8,3.7,0,0,0,.3,0,.4.1,0,.3,0,.4,0,.2-.3.5-.5.6-.8.5-.9,1.1-1.7,1.9-2.3,1-.8,1.8-1.9,2.4-3.1.3-.7.5-1.4.9-2,.3-.5.8-.8,1.1-1.2.8-1,1.5-2.1,2.2-3.2M84.1,11.2c.2.5.8.8.4,1.4,0,0,.1.2.2.2.4,0,1.5-.8,1.6-1.2,0-.4.1-.7.2-1.1,0-.1,0-.3,0-.4-.2,0-.3,0-.5,0-.7.2-.5.8-.6,1.3,0,.2-.1.3-.2.5,0-.1-.2-.2-.2-.4,0-.2,0-.5-.2-.7,0-.2-.2-.4-.4-.6-.1.2-.3.4-.4.6,0,.1,0,.3,0,.5M152.3,261.2c.5-.7.9-1.3,1.4-2,.1-.2.1-.4.2-.5-.2,0-.5,0-.6,0-.3.2-.6.6-.9.8-.3.3-.2,1.2-1,.8,0,0,0,.2,0,.3,0,.2,0,.3,0,.5-.2,0-.3-.1-.5-.2-.1,0-.2,0-.4,0,.1.2.3.5.4.6.5.5.9.1,1.3-.4M154.2,261.7c.2.2.4.4.7.5.2.1.5.4.7,0,.3-.5.6-.9.8-1.4,0-.1.2-.3.1-.4,0-.1-.3-.2-.4-.3,0,.1-.2.3-.2.4,0,.2-.1.4-.3.5-.2.2-.3.7-.7.1-.2-.3-.7-.4-1.1-.5-.1,0-.3.1-.4.2,0,.1.1.3.2.4.1.1.3.2.6.4M6.7,57.4c0-.2,0-.4,0-.6,0-.2-.2-.4-.3-.4-.3,0-.7,0-.9.2-.1,0-.3.4-.2.5.5.4-.1.5-.2.7-.1.2-.4.3-.5.5,0,0,.1.4.2.4.7-.2,1.6-.3,2-1.2M114.2,9.5c-.1.5-.3,1,.1,1.4.2.3.2.7.4,1,0,.2.3.3.4.5,0-.1.3-.3.3-.4,0-.7,0-1.4,0-2.1,0-.3-.4-.9-1.1-.4M235.9,129.2c.1.6.1,1.3.3,1.9,0,.2.5.3.8.5,0-.3,0-.6-.2-.9-.1-.4-.5-.8.2-1.1,0,0,.1-.3,0-.4-.2-.3-.4-.5-.7-.8-.2.2-.4.4-.6.7M104.2,27.2c0-.3-.2-.6-.3-.8,0,0-.3,0-.5.1-.3.1-.5.3-.8.5-.4.3-.8.6-1.2.9,0,0,0,.3,0,.4.1,0,.2,0,.4,0,.5-.2,1-.3,1.5-.5.3-.1.6-.4,1-.7M162.1,259.3c.3-.2.7-.4.4-.9,0,0,0-.2,0-.3,0-.1.2-.3.3-.4,0,0-.2-.1-.2-.1-.1.1-.3.3-.4.5-.3.5-.5,1.1-1.2,1.2-.5,0-.9.3-1.3.5-.2,0-.3.3-.4.4.2,0,.5.3.7.2.7-.3,1.3-.7,2.1-1M67.3,251.7c.2,0,.5,0,.6,0,.1-.2.2-.5.1-.7-.2-.4-.3-.7.1-1,0,0,0-.2,0-.3-.3,0-.7,0-.9,0-.3,0-.6.4-.6.6,0,.5.3,1,.6,1.4M132.8,9.7c0,.7-.1,1.3-.1,2,0,0,.2.2.3.3,0,0,.2-.1.2-.2,0-.3.1-.7.1-1,0-.5.1-.9.7-1,.1,0,.2-.2.3-.3-.1,0-.2-.2-.4-.2-.5-.2-.9.1-1.3.5M150.2,263.1c-.2-.3-.4-.5-.6-.8-.1-.1-.3-.3-.4-.3-.4,0-.9,0-1.3.2-.1,0-.2.2-.3.3.1.1.3.3.4.3.2,0,.4,0,.6,0,.5-.2.8-.1.9.5,0,.2.4.4.5.6,0-.2,0-.5.2-.8M241.9,144.7c-.2,0-.5,0-.7.2-.2.1-.3.4-.5.6.2,0,.4.2.6.2.3,0,.7,0,1,0,.2,0,.3-.4.4-.6-.2-.1-.4-.2-.8-.4M161.2,11.3c.2.4,0,.8-.3,1.1,0,0,0,.3,0,.4.2,0,.4,0,.5,0,.4-.4.8-.7.7-1.4,0-.3-.2-.6-.3-.8,0-.2-.2-.3-.4-.4,0,.1-.2.3-.2.4,0,.2,0,.3.1.7M149.1,261.1c-.2-.4-.4-.8-.7-1.1,0-.1-.4,0-.6,0,0,.1,0,.3,0,.4.1.2.4.4.4.6,0,.5.3.6.7.7.3,0,.6,0,.9,0-.2-.2-.5-.3-.8-.5M154.5,263.9c.2-.4.4-.8.6-1.2-.4.2-.8.3-1.2.5,0,0,0,0,0,0,0,.2-.1.5-.2.7.2,0,.5,0,.8-.1M32.1,262.9c0-.6-.1-1.2-.2-1.8,0,0-.3-.1-.4-.2,0,.2,0,.3,0,.5,0,.3,0,.7.2,1,0,.2.2.4.5.6M196.9,233.5c-.1-.2-.2-.4-.3-.7,0,.2-.1.5-.1.7,0,.3,0,.6.2.8.1.2.4.3.6.4,0-.2.1-.4,0-.6,0-.2-.2-.4-.4-.7M15.2,208c.4-.2.8-.3,1.2-.5,0,0,.1-.1.2-.2,0,0-.2-.1-.2-.1-.6.2-1.2.4-1.8.6,0,0-.2.3-.2.3.1.1.3.2.4.2.1,0,.3-.2.5-.3M2.9,60.7c0,.2-.1.4,0,.5,0,.3.2.5.4.8.2-.2.4-.4.5-.7,0-.3-.1-.6-.2-1-.2,0-.3.1-.5.3M245,161.2c-.2,0-.6,0-.7,0-.1.3-.1.6-.1.9,0,0,.2.2.2.2.4,0,.8-.7.6-1.1M23.1,192.1c.2,0,.3-.2.5-.3-.2-.2-.3-.4-.5-.5-.3,0-.6,0-.8.1-.1,0-.2.2-.4.4.1,0,.3,0,.4,0,.2,0,.4,0,.7.1M195.9,30.1c.1-.2.2-.3.3-.5,0,0,0-.2,0-.2-.3,0-.6-.4-.8,0-.1.2-.2.5-.3.7.2,0,.4,0,.7,0M16.3,45.4c.3-.2.5-.3.7-.5.1-.1.1-.4.2-.6-.2,0-.3,0-.5,0-.2.1-.5.2-.7.4,0,.1,0,.4.2.6M21,193.4c.4.2,1.2,0,1.3-.3,0-.2,0-.6-.4-.4-.3.2-.6.5-1,.8M155.9,258.7c0,.3,0,.5,0,.8,0,0,.4.2.5.1.2,0,.3-.3.3-.5,0-.4-.4-.5-.9-.4M150.5,255.7c0,.2-.2.4-.2.5,0,0,0,.1,0,.2.3-.1.7-.2.8-.4.2-.2,0-.6,0-.9-.2.2-.4.3-.6.5,0,0,0,0-.1.1M154,249.5c0-.3,0-.6,0-.9,0,0-.2,0-.2,0-.1.4-.2.8-.3,1.1.2,0,.4.5.6-.1M235.6,26.7c0,.1-.3.2-.3.3,0,.1.2.3.2.3.3-.1.7-.3,1-.5,0,0,0-.4,0-.4-.3,0-.5,0-.8.2M239.2,153.2c0-.2.3-.4.3-.5,0-.2-.3-.4-.5-.6-.1.3-.3.5-.4.8,0,.1.3.3.6.3M211.9,30.6c0-.7-.5-.5-.9-.5-.1,0-.3.1-.3.1,0,.1,0,.4.2.4.3,0,.6,0,1,0M119.2,255.4c.1,0,.3.2.4.2.2,0,.4-.1.4-.2,0-.2,0-.5-.2-.6-.1-.1-.4,0-.6,0,0,0,0,.3,0,.6M211.6,28.6c.2-.2.3-.5.5-.7-.3.1-.7.3-1,.4,0,0,0,0,0,.1,0,.2-.1.4-.2.6.2,0,.4-.2.6-.3,0,0,0,0,0-.1M165.1,23.8c-.6-.3-.8.2-1.2.5,0,0,0,.2,0,.3.1,0,.3.1.3,0,.3-.2.6-.5.9-.9M152,256.5c-.3,0-.6.2-.8.3-.2,0-.3.2-.4.4,0,0,0,.2.1.2.2,0,.5,0,.6,0,.3-.2.5-.4.8-.7,0,0,.2-.2.2-.3-.1,0-.3,0-.5.1M160.7,253.9c0,0,.1,0,.2,0,.7.3,1.4,0,1.5-.5,0,0,0-.2,0-.3,0,0-.1.2-.2.2-.3.2-.6.6-1.1.3,0,0-.3.1-.3.3M258.6,247.5c0,.2,0,.4.2.6,0,0,.3,0,.4.1,0-.4,0-.7,0-1.1-.2,0-.3.1-.5.4M8.2,214.2c0-.3.2-.5.2-.8-.2,0-.5.1-.6.3-.1.2-.2.4-.2.6,0,.1.3.2.4.4,0-.1,0-.2.1-.5M226.4,179.6c.2-.1.4-.3.5-.4,0,0-.1-.3-.2-.4-.2.1-.4.3-.6.4-.2.1-.2.3-.4.5.2,0,.4,0,.7,0M162.4,264.3s0,0,0,0c0-.1-.1-.2-.2-.3-.2.2-.4.3-.4.5,0,.2,0,.5,0,.7,0,0,.4,0,.4,0,0-.2,0-.4,0-.7M152.5,262.3c.2,0,.4,0,.6.1,0-.2,0-.3,0-.5,0,0,0-.1,0-.2,0-.2,0-.3,0-.5-.1.2-.3.4-.4.6,0,0,0,.2,0,.5M221.2,69.3c-.3.2-.5.4-.3.8,0,0,.4,0,.6-.2.2-.1.2-.4.3-.6-.2,0-.3,0-.6,0M229.5,250.9l.5.2c0-.2,0-.5,0-.7,0-.1-.1-.2-.2-.3-.1.1-.3.2-.4.3,0,0,0,.3.1.5M125.9,27.3s-.9,0-.8,0c.2,0,.4,0,.6,0-.2-.2-.3-.4-.6-.5-.2,0-.5,0-.7-.1.1.2.2.4.5.6M62.4,22.3c.2-.1.4-.2.6-.3-.2-.1-.5-.3-.7-.3-.2,0-.3.3-.5.5.2,0,.3.1.6.1M11.8,212.5c-.5,0-.4.4-.3.7,0,.1.3.1.4.2,0-.2.2-.4.2-.7,0,0-.1-.1-.3-.2M8.6,215c-.1.2-.3.5-.4.7,0,0,.2.1.3.1.2-.2.4-.3.5-.5,0-.2.1-.5-.3-.3M150.4,260.2c-.2-.1-.4-.3-.6-.4,0,.2-.2.4-.2.5.1.2.3.3.5.4,0,0,.2-.2.2-.4M48.5,225.7c0,.2-.1.4,0,.5,0,.2.3.3.4.5,0,0,.2,0,.2,0,.1-.2-.2-.8-.6-.8M6.8,49.8c0,.2,0,.3,0,.5.2,0,.5,0,.7,0,0,0,.1-.2.2-.4-.2,0-.4,0-.8-.1M87.5,243.4c.2-.1.5-.3.7-.4,0,0,0-.2,0-.3-.2,0-.5,0-.7,0-.1,0,0,.4,0,.7M8,208c0,0-.2-.1-.3-.2-.1.3-.3.5-.3.8,0,0,.2.2.3.3,0-.1,0-.2.1-.3,0-.2,0-.3.1-.6M12.4,209.7c-.1,0-.2-.2-.3-.2-.2,0-.4.2-.5.3,0,.1,0,.3,0,.5.2-.1.4-.2.6-.3.1,0,.2-.1.3-.3M12.9,128.1c0,.3,0,.6,0,.9,0,0,.2,0,.3,0,0-.3,0-.5,0-.8,0-.1-.2-.2-.4-.2M246.4,11.1c0,0,0,.2-.1.2.3,0,.5,0,.8,0,0,0,.2-.2.2-.3-.2,0-.4,0-.6,0,0,0-.1,0-.3,0M234.8,163.3c-.3-.3-.6,0-.8.2,0,0,0,.2,0,.3.2,0,.5-.2.7-.3,0,0,0,0,0-.2M8.7,196.4c-.2-.1-.5-.4-.5.1,0,.2,0,.3,0,.5.2-.2.3-.3.4-.6M9.4,214.1c0,.1,0,.2,0,.3,0,.1.2.3.3.4,0,0,.3-.1.3-.2,0-.2,0-.4-.2-.5-.1-.1-.4,0-.5,0M157.5,254.5c-.2-.5-.5-.3-.8-.1,0,0-.1.2-.2.3.2,0,.4,0,.6,0,0,0,.2,0,.3-.1M250.8,246.3c0-.1,0-.3,0-.4,0-.1-.2-.2-.3-.3,0,0-.2,0-.2,0,0,.2,0,.4,0,.5,0,.1.3.1.5,0M202.6,10.5c0-.2.2-.4.3-.6-.2,0-.3,0-.5,0,0,.2,0,.4.2.6M108.8,24.8c.7.3.5-.5.7-.7,0,0-.2-.1-.2,0-.2.2-.4.5-.5.8M209.2,217.9c.1-.2.2-.4.3-.5-.2,0-.4,0-.5,0,0,.2,0,.4.2.5M50.6,25.9c0,0-.3.1-.3.2,0,.2,0,.4,0,.6,0,0,.1,0,.2,0,.2-.2.6-.4.2-.8M235.4,170.7c0,.3,0,.5,0,.8.1,0,.2,0,.3,0,0-.3,0-.5-.1-.8,0,0,0,0-.1,0M180,38.2c0,.2-.2.4-.3.6.1,0,.3,0,.4,0,0-.2,0-.5-.1-.6M231.7,66.6c.2-.1.3-.2.5-.4,0,0-.1-.2-.2-.2-.1.2-.3.3-.3.6M157.7,261c-.1,0-.3-.2-.4-.3-.1,0-.2-.1-.3-.2,0,.2,0,.5,0,.5.2,0,.4,0,.7,0M252.2,198.7l.2-.2c-.1-.1-.3-.3-.5-.4,0,0-.2.2-.2.2,0,.1.2.3.4.5M118.1,24.2c0-.2.2-.3.2-.5-.3,0-.5.1-.8.2,0,0,0,.2.1.2.1,0,.2.1.4,0M242.4,13c0,.2,0,.4.2.6,0,0,.2,0,.3,0,0-.1-.1-.3-.2-.4,0-.1,0-.3,0-.4,0,0-.2.1-.2.3M150.7,257.8c-.2,0-.4.2-.6.3,0,0,0,.2.1.2.2-.1.3-.3.5-.4,0,0,0,0,0-.1M161.5,251.4c-.1,0-.2,0-.3.1l.5.5c0-.2,0-.4-.1-.6M104.6,251.8c.1-.2.2-.3.4-.5-.1,0-.3,0-.4,0,0,.2,0,.3,0,.6M254.4,195.7s0,0,0,0c0,0,0,0,0,0,.2-.2.4-.3.5-.5,0,0-.1-.1-.2-.2,0,.2-.2.3-.3.6M107.6,19.8c-.2,0-.3,0-.5-.1,0,0,0,.2,0,.2.2,0,.3,0,.5-.1M36.4,264c0-.1,0-.2,0-.4-.2,0-.3.2-.5.3.1,0,.2.1.4.1M20.5,192.9c.2,0,.4,0,.6-.2,0,0,0-.1,0-.2-.2,0-.3,0-.5.1,0,0,0,0,0,.2M214.4,46.2c0,.1,0,.2,0,.4.1-.1.3-.2.4-.3-.1,0-.2,0-.4,0M159.3,253.4h-.3s0,0,0,.2c.1,0,.2,0,.2-.2M143.5,22.9s0,0,0,.1c0,0,.2,0,.3-.1,0-.1,0-.2-.3-.3M45.9,250.3c0,.1-.1.3-.2.4,0,0,.2,0,.3,0,0-.1,0-.3,0-.4M121.2,24.2c0,.1.2.2.2.4,0,0,.1,0,.2-.1-.1-.1-.2-.2-.4-.2M237.6,130c0-.1-.2-.2-.3-.3,0,0-.1.1-.2.2.1,0,.2.2.4.2M147.7,261.5c0,0-.1-.1-.2-.2,0,0,0,.2,0,.3.1,0,.2,0,.2,0Z"/>
    <path d="M129.2,7.8c.3,0,.6,0,.9,0,0,0,.2.2.2.2,0,.1-.2.3-.2.3-.3-.2-.6-.3-.8-.5Z"/>
    <path d="M138.6,0c.1.2.2.4.3.5,0,0-.2,0-.3,0,0-.2,0-.4,0-.6Z"/>
    <path d="M108,6.9c-.2,0-.3,0-.4,0,0,0,0-.1.1-.2.1,0,.2.1.3.3Z"/>
    <path d="M118.4,26.5c-.1,0-.2.1-.2.1-.4,0-.7-.1-1.1-.2.3,0,.7-.2,1-.2.2,0,.3,0,.5,0,.1,0,.3,0,.4.1,0,0,0,.1,0,.2-.2,0-.3,0-.6,0Z"/>
    <path d="M114.1,25.9c0,0,.1,0,.1.1-.2.2-.5.4-.7.6,0,0-.1-.1,0-.2.2-.2.4-.4.7-.6Z"/>
    <path d="M119.8,25.3c.3.5-.2.2-.3.3,0,0-.2-.1-.3-.2.2,0,.3,0,.6-.1Z"/>
    <path d="M116.8,25.7c-.1,0-.2,0-.3,0,.1,0,.2-.2.3-.3,0,0,.2.1.3.2,0,0-.1,0-.2,0Z"/>
    <path d="M156.9,257.2c.1.2.3.4.4.6-.2,0-.4,0-.6,0-.2,0-.5-.2-.7-.3-.1,0-.3-.2-.4-.3.1-.1.2-.3.4-.3.4-.2.7-.3,1,.3Z"/>
    <path d="M160,256.9c0,0,.3-.2.4-.2.2.2.4.4.6.6,0,0-.1.2-.2.2-.1,0-.3,0-.4,0-.2-.1-.2-.3-.4-.5Z"/>
  </g>
</svg>