<?xml version="1.0" encoding="UTF-8"?>
<svg id="Layer_1" xmlns="http://www.w3.org/2000/svg" version="1.1" viewBox="0 0 231.1 294.3">
  <!-- Generator: Adobe Illustrator 29.3.1, SVG Export Plug-In . SVG Version: 2.1.0 Build 151)  -->
  <g id="Shape_56">
    <path d="M143.1,41.8c-5.5-.6-10.4-2.7-15.9-2.5-3.5.1-7-.5-10.5-.7-4.4-.2-8.8-.8-13.1-.3-4.5.6-8.9,1.1-13.4,1.4-4,.3-8.1.2-12.1,0-2,0-4,1.3-4.5,4.1-.7,3.7-1.1,7.4-1.6,11.2-.3,2.7-.5,5.4-.9,8.1-.1,1-1,1.9-1.1,2.9-.8,5.5-2.6,10.9-2.1,16.6.3,3.2-.3,6.2-1,9.4-.7,3-.4,6.3-.5,9.4-.3,6.1-1.2,12.1-3.4,17.9-.9,2.5-1,5.2-1.5,7.8-.5,3.2-.6,6.6-1.7,9.5-1.1,2.9-1.4,6-2.3,8.9-.8,2.4-1.9,4.7-2.8,7.1-.9,2.4-1.4,4.9-2.3,7.3-1.5,3.7-3.1,7.4-4.7,11.1-1.2,2.7-2.2,5.5-3.5,8.2-1,2.1-2.4,4-3.1,6.1-.6,1.9-.5,4-.4,6,.1,1.8-.6,3.7-2.3,4.2-3.3,1-5.1,3.5-6.3,6.5-.4,1-.8,2.3-1.6,2.9-3,2.1-4.2,5.3-6,8.2-1.5,2.4-2.7,5.1-4.6,7.1-2.5,2.6-5.7,4.6-8.4,7.1-1.3,1.2-2.1,2.9-3.1,4.3-.7,1-1.2,2.3-2.1,3.1-1.1,1.1-3.3.3-3.8-1.2,0-.2,0-.6.2-.7,1.8-1.3,1.7-3.3,2.1-5.2.1-.5-.5-1.1-.8-1.7-.2.4-.5.8-.7,1.2-.2.5-.1,1.2-.5,1.6-.4.5-.5,1.3-1.9,1-1.7-.4-.6-1.2-.5-1.5,1.5-3.9,2.6-8,6.6-10.3,1-.6,1.6-1.8,2.2-2.9,1.8-2.9,3.4-5.8,5.3-8.7,1.7-2.5,3.8-4.8,5.4-7.4,3-4.9,5.8-9.9,8.6-14.9,1.8-3.3,3.6-6.5,5.2-9.9,1.1-2.3,1.6-4.8,2.5-7.2.8-2,1.8-4,2.5-6,1.2-3.2,2.3-6.5,3.5-9.8,0-.2.1-.5.2-.7,1.1-1.9,1.6-3.8,1.9-6.1.4-3.1,2-6.1,2.8-9.2.5-1.7.1-3.6.6-5.3.8-2.8,2.1-5.6,3-8.4.4-1.2.7-2.5,1-3.8,1-5.4,2-10.8,3-16.2,0-.1.2-.2.2-.3-.6-3.6.8-7,1.2-10.5.3-2.5.8-5,1.2-7.5.3-2.5.2-5.1.9-7.5,1.5-5.8,1.1-11.6,1.1-17.4,0-3.1,0-6.2,0-9.2.2-4.2.7-8.4.7-12.5,0-1.9.3-3.3,1.8-4.4.6-.5,1.5-.7,2.2-.9.5-.2,1.2-.1,1.6-.4,2.2-1.5,4.7-1.3,7.2-1.6,2.7-.3,5.4-.9,8.1-1.3,2.8-.5,5.6-1.3,8.4-1.4,4.8-.1,9.7,0,14.6.4,2.9.2,4.5-1.6,3.9-4.5-.5-2.8-.3-5.3.6-7.9.8-2.3,1.5-4.6,2.1-7,.3-1.3,0-2.8.6-4,.5-1.2,1.6-2.2,2.7-3.1,1-.8,2.1-.5,3.1.3,2,1.7,2.1,4,2.1,6.5,0,5.4,0,10.8.2,16.2,0,1.5,3.5,3.7,5.5,3.9,3.6.2,7.3.5,10.9.8.6,0,1.2.4,1.7.8,1.2.8,2.2,1.9,3.8.8.1,0,.4.2.7.3,3.4,1.2,6.8,2.3,10.1,3.8,3.8,1.7,8,2.7,11.1,5.7.7.7,1.3,1.3.3,2.3-.2.2-.2.9,0,1.2,1.9,2.7.7,5.6.8,8.4,0,.6-.3,1.3-.2,1.9.2,5.2-.6,10.3-1.6,15.4-.5,2.4-1.1,4.8-1.1,7.1,0,4,.5,8.1.7,12.1,0,1.2.3,2.4.4,3.7.7,6.9,1.3,13.8,2,20.7.2,1.6.3,3.2.4,4.9,0,2.4.1,4.6,1.1,7,.9,2.2.8,4.9,1.3,7.3,1.4,6,2.7,12,4.5,17.8,1.1,3.9,2.9,7.6,4.3,11.5,1,2.7,1.8,5.5,2.8,8.3,1.1,3,1.8,6.5,3.8,8.8,2.1,2.3,2.8,5.1,4.2,7.6,3.1,5.6,6.5,11,9.6,16.5,2.6,4.8,6.6,8.5,9.8,12.8,3.8,5.2,8.8,9.4,12.7,14.4,3.1,4,6.9,7.3,10,11.3.6.8,1.2,1.5,1.7,2.3,1.6,2.9-.6,6.2-4.4,6.3-3.5,0-6.6,1.5-10,1.7-1,0-2-.4-3-.4-4.2,0-8.5.4-12.7.4-6.3,0-12.6-.2-18.9-.4-2.2,0-4.3-.6-6.5-.7-1.7,0-3.5.4-5.3.3-2.6-.1-5.3-.5-7.9-.7-.6,0-1.2.4-1.8.4-4.4,0-8.8,0-13.1,0-1.9,0-3.8-.3-5.7-.4-.4,0-1-.2-1.2,0-3,2.6-6.6,1.3-10,1.6-1.4.1-1.9.2-1.8,2.1.3,4.6,2.5,8.5,3.9,12.7.1.4.2,1.1,0,1.3-1.6,1.9-1.8,4.2-2.6,6.4-1,2.9-2.5,5.7-3.8,8.5-.3.6-.7,1.1-.8,1.7-1.1,4.7-4.5,7-8.4,9.2-3.6,2.1-7.3,1.7-11.1,1.2-1.3-.2-2.7,0-4,.4-2.8.6-4.7-1.2-7-2.1-.4-.2-.7-.7-1.1-.7-4.1-.2-5.6-4.1-8.6-5.8-.3-.2-.6-.4-1-.6-1.9-1-3.5-2-4.2-4.4-.6-2.2-2.2-4.1-3.3-6.3-.4-.9-.5-2-.6-3-.1-2.9-.7-6-.1-8.8.5-2.5,2.5-4.7,3.6-7.1.8-1.7,1.3-3.6,1.7-5.5,0-.3-.9-1.2-1.5-1.1-3.3,0-6.6.2-9.9.3-1.7,0-3.4-.1-5.2-.3-1.9-.1-3.9-.3-5.8-.5-4.1-.3-8.2-.6-12.3-.8-3-.2-6.1-.3-9.1-.4-3.8-.1-7.7-.2-11.5-.5-.6,0-1.4-.6-1.6-1.1-.2-.3.4-1.1.9-1.6.4-.5,1-.8,1.5-1.1.4-.2.8-.4,1.2-.7-.6-.2-1.1-.7-1.7-.7-1.7,0-3.4.2-5.1.4-.2,0-.4.4-.5.6-.7,2.1-3.6,2.9-5.5,1.7-.2-.1-.4-.3-.7-.3-2.1-.5-4.3-1-6.4-1.5-.3,0-.6-.1-1,0-1,0-2,0-1.7-1.4.1-.6.5-1.6,1.1-1.8,3.6-1.3,7.2-2.8,11.2-2.5,1.1,0,2.4,0,3.4-.4,2.3-.8,4.1-.1,5.8,1.3.5.4,1.4.9,1.9.7,2-.7,3.9-1.7,5.8-2.4.7-.3,1.6-.6,2.2-.4,2.7,1,5.4,1.3,8.3,1.3,9.4,0,18.9-.5,28.1.6,6.6.8,13.1.8,19.6.9,5.5,0,11.1-.3,16.6-.3,4.3,0,8.6.4,12.9.3,3.1,0,6.2-1.1,9.3-1.1,4.1,0,8.2.9,12.4,1.1,3.9.2,7.7,0,11.6,0,2.4,0,4.7-.5,7.1-.3,3.5.3,7,.8,10.4,1.6,4.7,1.1,9.4,1.7,14.2.3.5-.2,1.2,0,1.7.1,2.8.5,5.6.6,8.3,1.8,1.6.7,4,0,6-.3,1.8-.2,3.6-.6,5.3-1.2.7-.2,1.5-1.2,1.6-1.9,0-.5-.9-1.3-1.6-1.6-1.3-.6-1.9-1.3-1.9-2.8,0-2.8-2-5.1-4.7-5.7-.6-.1-1.3-.6-1.8-1-5.7-5.8-11.4-11.6-17-17.4-.3-.3-.6-.7-.6-.9.2-2.3-1.3-3.6-2.7-5.2-2.2-2.4-4.3-4.9-6.2-7.5-.4-.5,0-1.5,0-2.3,0-.7.1-1.6-.2-2.2-1.9-3-3.1-6.5-6.2-8.7-.4-.3-.5-1.3-.4-2,.2-2.3-.5-4.2-2-6.1-.7-.9-.6-2.4-.9-3.6-.5-2.2-.9-4.5-2.6-6.2-.3-.3-.6-.9-.6-1.3.3-3.6-1-6.9-1.8-10.3-1-4.6-3-9-2.8-14,0-1.7-.9-3.5-1.3-5.3-.2-.9,0-1.8-.3-2.7-1-4.5-2.3-9-3.1-13.6-.6-3.4-.7-6.8-.9-10.3-.1-2.5-.4-4.9-1.3-7.3-.6-1.6-.3-3.5-.3-5.3,0-4.5.1-9,.4-13.5.2-3.7,1.3-7.5,1.1-11.1-.3-5.5,1.1-11-.6-16.4-.2-.6,0-1.4,0-2.1.3-2,.8-4,1.1-6,.2-1.4-2-3.6-3.5-3.8-1.4-.2-2.9-.3-4.5-.4M109.1,250.8c-5,.1-10.1.3-15.1.4-2.1,0-3.8,1.4-4,3.5-.3,3.1-.5,6.2-.8,9.3,0,.9-.5,1.7-.6,2.5-.2,2-.7,4-.4,5.9.8,4.4,3.4,7.7,6.6,10.7,3.1,2.9,6.8,3.3,10.8,2.2.9-.3,1.8-1.2,2.7-1.1,2.9.1,5.1-1.8,7.5-2.9,2.7-1.2,4-3.8,5.3-6.5,2.1-4.3,1.9-8.6.6-12.9-.5-1.6-1.6-2.9-2.3-4.5-1.9-4.5-5.1-6.7-10.3-6.7M17.9,215.4c-.7.3-1.5.6-2.2.9.1.2.3.4.4.7.7-.5,1.3-.9,1.8-1.6M89,249.6c-.8-1-1,0-1.2.5,0,.2.2.7.3.7.8.2,1.3,0,.9-1.2Z"/>
    <path d="M118.8,233.2c0,.4,0,.9,0,.9-2.5,0-4.9.1-7.4.1-.2,0-.5-.3-.5-.5,0-.2.3-.5.5-.5,2.4,0,4.8,0,7.4,0Z"/>
    <path d="M126.1,42.1c.3-.2.6-.3.8-.3.9.3,1.9.6,2.8.9-.2.2-.3.7-.5.7-1.1-.2-2.7.8-3.1-1.3Z"/>
    <path d="M170.5,283c-.2.2-.3.3-.4.3-.5,0-1.1,0-1.6,0,.2-.2.4-.6.7-.7.6-.3,1.3-1,1.3.5Z"/>
    <path d="M65.4,134.9c-.4,0-.9-.2-1.1-.5,0-.2.3-.6.5-.9.2.4.5.9.6,1.4Z"/>
    <path d="M136.7,256.3c0-.4.2-.9.5-1.1.2,0,.6.3.9.5-.4.2-.9.5-1.4.6Z"/>
    <path d="M75.3,57.6c-.4-.2-.6-.5-.9-.7.2-.2.5-.3.7-.5,0,.4.2.7.2,1.2Z"/>
    <path d="M179.5,159.5c-.2-.3-.4-.7-.5-1.1,0,0,.3-.1.5-.2,0,.4,0,.8,0,1.3Z"/>
    <path d="M121.3,234.2c-.4-.1-.7-.4-1-.6.3-.2.6-.3,1-.5,0,.3.1.6,0,1.1Z"/>
    <path d="M94.7,256.7c1-1.3,2.2-2,3.6-1.3.4.2.6.8.9,1.2-.5,0-.9.1-1.4.2-.6.1-1.4.2-1.7.6-.3.4.2,1.2,0,1.7-.3.9-.9,1.6-1.4,2.4-.4-.4-1.1-.9-1-1.3.1-1.2.6-2.3,1-3.5Z"/>
    <path d="M101.3,256.4c-.8-.5-.9-1.1-.1-1.2,2.5-.2,5.1-.4,7.6-.4.4,0,.9.6,1.3,1-.5.2-.9.5-1.4.5-2.4,0-4.8,0-7.4,0Z"/>
  </g>
</svg>