<?xml version="1.0" encoding="UTF-8"?>
<svg id="Layer_1" xmlns="http://www.w3.org/2000/svg" version="1.1" viewBox="0 0 402.6 395.2">
  <!-- Generator: Adobe Illustrator 29.3.1, SVG Export Plug-In . SVG Version: 2.1.0 Build 151)  -->
  <g id="Shape_63">
    <path d="M365.9,179.4c-2.8-1.7-5.5-3.2-8.3-4.8-1.1-.6-2.1-1.3-3.2-1.9-.3-.2-.9-.2-1.2,0-1.7.8-3.3,1.6-5,2.4-3,1.5-6,3-9,4.4-2.8,1.4-5.6,2.7-8.4,4.1-1.8.9-3.5,1.7-5.3,2.6-1.7.8-3.5,1.7-5.2,2.5-2,.9-4.1,1.6-6.1,2.4-.4.1-.8.2-1.2.2-4,0-7.9,0-11.9,0-1.7,0-3.4.2-5.1.2-.3,0-.7-.3-1-.4.3-.2.6-.5.9-.5,1.7-.1,3.4-.2,5.1-.3.5,0,1-.2,1.5-.2,2.9,0,5.8-.1,8.7,0,2.6.1,4.8-.6,7-1.7,3.2-1.6,6.5-3.1,9.7-4.6,3.7-1.8,7.3-3.7,11-5.4,4.3-2.1,8.6-4,12.8-6.2,1.7-.9,2.7-.5,4.1.3,2.9,1.8,5.8,3.4,8.7,5.1,2.9,1.7,5.9,3.4,8.8,5.1,2.7,1.5,5.4,3,8.1,4.5,3.6,2.1,7.2,4.2,10.8,6.2,2.6,1.5,5.2,3,7.9,4.4.7.4,1.3.7,2,1.1.6.3.6.6,0,1-4.2,2.4-8.5,4.9-12.7,7.4-5.8,3.4-11.6,6.9-17.4,10.2-3.1,1.8-6.3,3.5-9.4,5.3-2.6,1.5-5.1,3-7.6,4.6-1,.6-2,.6-3,0-2.3-1.2-4.7-2.4-7-3.5-6.9-3.4-13.7-6.8-20.6-10.2-3.1-1.5-6.3-3-9.5-4.4s-.7-.2-1.1-.3c-5.5,0-11.1,0-16.6,0-.4,0-.8.2-1.2.4.3.4.5.8.8,1.1,1.4,1.4,2.8,2.8,4.1,4.3.9,1,1.8,2.2,2.7,3.2,2.8,2.9,5.7,5.9,8.5,8.8.6.6.9,1.2.9,2.1,0,2.5,0,4.9,0,7.4,0,2.8-.1,5.5-.3,8.3,0,.4-.3.7-.5,1.1-.3-.2-.6-.3-.8-.5-1.8-1.8-3.7-3.6-5.5-5.5-2.5-2.7-5-5.4-7.6-8-1.1-1.2-2.2-2.4-3.4-3.6-3.2-3.3-6.5-6.6-9.7-10-2.4-2.5-4.9-5-7.3-7.5-1.2-1.3-2.6-1.9-4.5-1.9-17.1,0-34.2,0-51.2,0s-.5,0-.7,0c-1,0-.8.6-.2,1.4s.3.3.4.5c1.5,1.6,3.1,3.2,4.6,4.9,2.2,2.4,4.4,4.7,6.6,7.1,1,1,1.9,2.1,2.9,3.1,3,3.1,6,6.1,8.9,9.2,2.6,2.7,5.2,5.5,7.7,8.2,1.3,1.4,2.7,2.8,4,4.2.8.9,2,1.4,3.2,1.4,1.8,0,3.7.2,5.5.2.5,0,.9-.2,1.4-.2,14.7,0,29.4.2,44.1.2.4,0,.7.2,1.1.3-.2.3-.5.5-.8.8-.3.2-.6.4-.8.6-3.4,3.4-7,6.6-10.3,10.1-1.5,1.6-3.2,2.1-5.2,1.9-2-.2-4-.2-6-.3-4.8-.1-9.6-.2-14.4-.3-.6,0-1.2-.2-1.7-.2-.3,0-.6.3-.9.5.2.2.3.4.5.6,4.1,4.1,8.4,8.2,12.4,12.5,1.5,1.6,3.5,2.1,5.4,2.8,3.8,1.3,7.6,2.6,11.4,3.8,3.9,1.3,7.8,2.6,11.8,3.9,4.6,1.5,9.2,3.1,13.8,4.5,1.7.5,1.6,1.8,1.9,2.9.5,2,.9,4.1,1.4,6.2.6,2.8,1.2,5.6,1.9,8.4.4,1.8,1,3.6,1.4,5.4.5,1.9.8,3.8,1.3,5.7.4,1.7.7,3.5,1.1,5.2.8,3.6,1.5,7.1,2.4,10.7.4,1.5.9,3,1.3,4.5.5,2.1,1,4.2,1.4,6.3.2,1-.6,1-1.2.8-2.7-.6-5.4-1.4-8.1-2-3.4-.9-6.9-1.7-10.3-2.6-2.1-.5-4.1-1.2-6.2-1.7-3.6-.9-7.2-1.8-10.8-2.7-4.2-1.1-8.4-2.1-12.6-3.2-1.8-.5-3.7-.9-5.5-1.6-.6-.2-1.1-1.1-1.3-1.7-1.4-4.2-2.6-8.4-4-12.6-1.7-5.3-3.4-10.6-5.1-15.8-1.1-3.6-2.2-7.3-3.3-10.9-.3-.9-.9-1.8-1.6-2.5-2.3-2.6-4.7-5-7-7.6-1.3-1.4-2.6-2.9-3.9-4.4-.2-.3-.6-.4-.8-.6-.1.4-.4.7-.4,1.1,0,2.1,0,4.3,0,6.4,0,6.4-.1,12.9-.3,19.3,0,.6-.4,1.2-.8,1.6-1.3,1.3-2.7,2.5-4,3.8-1.8,1.7-3.5,3.5-5.3,5.3-.7.7-1.3,1.3-2,2-.2.2-.6.3-.8.2-.2,0-.3-.4-.3-.7,0-3.9.2-7.7.2-11.6,0-1,0-2.1,0-3.1,0-4.8.2-9.5.2-14.3,0-3.3.2-6.6.2-10,0-4,.2-8,.3-11.9,0-1.4-.4-2.5-1.4-3.5-2-1.9-3.9-4-5.8-6-.6-.6-1.2-1.2-1.8-1.8-4.9-5-9.8-10-14.8-15-5-5.1-10-10.2-15-15.3-.2-.2-.6-.4-.8-.6-.1.4-.3.7-.3,1.1-.1,4.6-.2,9.2-.3,13.8,0,4.4-.2,8.8-.2,13.2,0,3.7-.2,7.5-.2,11.2,0,3.2-.2,6.3-.2,9.5,0,1.9-.2,3.8-.2,5.7,0,.5.2,1,.4,1.4.7.9,1.6,1.8,2.4,2.7,3.7,3.8,7.4,7.6,11.1,11.4,5.4,5.5,10.8,11.1,16.2,16.6,2.1,2.2,4.2,4.3,6.2,6.5.3.3.5.9.4,1.1-.3.4-.9.9-1.3.9-2.1,0-4.2-.2-6.3-.2-2.2,0-4.3-.1-6.5,0-1.9.1-3.4-.3-4.7-1.7-2.4-2.7-4.9-5.2-7.4-7.7-.5-.5-1.1-.8-1.5-1.3-2.5-2.5-4.9-5.1-7.4-7.6-.1-.1-.2-.2-.3-.3-.3-.3-.6-.6-.9-.9-.2.5-.6,1-.6,1.5,0,1.7.2,3.3.2,5,0,1.4-.2,2.8-.2,4.2,0,3,0,5.9.3,8.9,0,1,.7,1.9,1.2,2.8,2,4.5,4.1,8.9,6.1,13.4,2.4,5.2,4.7,10.4,7.1,15.6,1,2.2,2.1,4.5,3.2,6.7.4.8-.1,1.3-.5,1.8-1.5,2.2-3,4.4-4.5,6.6-3.1,4.3-6.2,8.7-9.3,13-1.9,2.7-3.9,5.3-5.8,8-1.9,2.7-3.6,5.4-5.4,8.1-.6.9-3.4,2-4.2,1.6-.7-.4-1.2-1.2-1.6-1.9-1.9-2.9-3.7-5.8-5.6-8.7-3-4.7-6-9.5-9-14.2-1.9-2.9-3.9-5.8-5.8-8.8-1.1-1.6-2.1-3.2-3.1-4.9-.7-1.1-.4-2.3.2-3.4,1.4-2.7,2.8-5.5,4.1-8.3,1.9-3.9,3.7-7.9,5.7-11.8,1.9-3.9,3.9-7.7,5.9-11.6.9-1.9,1.7-3.8,2.5-5.7.1-.2.2-.5.2-.8,0-3.2.1-6.3.3-9.5,0-2.1-.5-4.2.2-6.3,0-.2-.1-.5-.3-.6-.2-.1-.5,0-.6,0-.2.1-.4.4-.6.6-3.1,3.1-6.2,6.2-9.3,9.3-2.2,2.1-4.3,4.3-6.6,6.3-.4.4-1.2.6-1.8.6-3.2,0-6.4,0-9.6,0h-4.8c-1.1,0-2.2,0-3.2,0-.3,0-.6-.2-.9-.3.1-.3.2-.6.4-.8,1.9-1.8,3.8-3.6,5.6-5.4,5.1-5.2,10.2-10.4,15.3-15.5,4.4-4.4,8.9-8.7,13.3-13.1,1-1,2-2,2.8-3.1.3-.4.5-1,.5-1.5,0-3,0-6,0-9,0-5.9.2-11.8.2-17.6,0-5.2.2-10.5.2-15.7,0-3,0-5.9,0-8.9,0-.6.1-1.2.2-1.9,0-.1.2-.3.3-.3.1,0,.3.2.4.3.1.4.3.8.2,1.2,0,2.2-.2,4.4-.2,6.6,0,2.1.2,4.3.2,6.4,0,1.8,0,3.6,0,5.4,0,1.9-.2,3.8-.2,5.7,0,1.1,0,2.2,0,3.4,0,2.8,0,5.5,0,8.3,0,4.5-.1,9-.2,13.5,0,1.3-.1,2.6-.3,3.8,0,.4-.3.8-.6,1.1-1.9,2.1-3.9,4.1-5.9,6.2-1.9,1.9-3.8,3.7-5.7,5.5-1.7,1.6-3.4,3.1-5,4.8-2.9,2.9-5.7,5.9-8.6,8.8-3.2,3.3-6.5,6.5-9.8,9.8-.3.3-.5.7-.8,1,.4,0,.8.1,1.2.1,4.5,0,8.9,0,13.4,0,1.6,0,2.7-.5,3.8-1.6.3-.3.7-.7,1-1,3.2-3.2,6.3-6.3,9.5-9.4,1.5-1.5,3.1-2.8,4.7-4.2.4-.3,1.2-.7,1.3-.6.4.6,1,1.2,1,1.9,0,5.2,0,10.4,0,15.6,0,.3,0,.6-.1.8-.6,1.4-1.2,2.8-1.8,4.2-1.7,3.7-3.4,7.3-5.2,11-.9,1.9-2,3.8-3,5.8-1.1,2.2-2.2,4.5-3.3,6.7-.6,1.3-1.3,2.6-1.9,3.9-1,2.1-2,4.2-3,6.2-.7,1.5-.3,2.7.5,3.9,1.9,2.9,3.7,5.8,5.6,8.7,1.3,2.1,2.6,4.2,4,6.2,1.6,2.4,3.3,4.7,4.9,7.2,1.8,2.7,3.4,5.6,5.1,8.3,1.1,1.8,2.4,3.5,3.5,5.3.6,1,2.9.3,3.6-.7,1.6-2.4,3.3-4.8,5-7.1,1.8-2.6,3.7-5.3,5.5-7.9.7-1,1.5-2.1,2.3-3.1,1.5-2.2,3-4.4,4.6-6.6,1.1-1.4,2.2-2.7,3.4-4.1.1-.1.2-.3.3-.5,1.3-2,2.6-4,3.9-6,.1-.2,0-.5,0-.8-.9-2.2-1.8-4.3-2.8-6.4-.6-1.4-1.4-2.8-2.1-4.2-1.1-2.3-2.2-4.6-3.2-6.9-1.8-4-3.6-8.1-5.4-12.1-1.2-2.7-2.7-5.3-3.7-8-.5-1.5-.4-3.3-.4-4.9,0-1.3,0-2.6,0-3.8,0-3.6,0-7.2,0-10.8,0-.3,0-.7,0-1,.4-1.3,1.8-1.6,2.9-.5,1.6,1.6,3.1,3.3,4.6,4.8,1.3,1.3,2.7,2.5,4,3.8,1.6,1.6,3.2,3.4,4.8,5,1.5,1.5,3.1,3,4.7,4.4.4.3,1,.5,1.5.5,2.8,0,5.6,0,8.4,0,1.6,0,3.1.2,4.7.2.3,0,.6-.2,1-.3-.2-.2-.4-.4-.6-.7-1.5-1.5-3-3-4.5-4.5-.2-.2-.5-.5-.7-.7-2.1-2.1-4.1-4.1-6.1-6.2-2.4-2.5-4.8-5-7.2-7.5-1.5-1.6-3-3.2-4.6-4.8-2.5-2.6-5.1-5.2-7.5-7.8-1.6-1.7-3.2-3.6-4.7-5.4-.7-.9-.8-1.9-.5-3,0-.3,0-.6,0-.9,0-2.5,0-5.1,0-7.6,0-3.5.2-6.9.2-10.4,0-1.3,0-2.7,0-4,.2-5.7.3-11.5.5-17.2,0-2,.2-4.1.2-6.1,0-2.1.1-4.3.3-6.4,0-.4.4-.9.8-1,.5-.2,1.3-.3,1.6,0,3.2,3,6.3,6,9.4,9.1,1.8,1.8,3.6,3.5,5.4,5.4,3.3,3.5,6.5,7.1,9.8,10.5,2,2.1,4.1,4.1,6.2,6.2,2.6,2.6,5.2,5.1,7.8,7.8.6.6,1,1.6,1,2.5.2,1.8,0,3.5,0,5.3,0,3.8,0,7.6,0,11.4,0,3.9-.3,7.7-.5,11.6,0,.5.2,1,.2,1.5,0,2.3-.2,4.5-.2,6.8,0,4.4,0,8.7,0,13.1,0,.3.1.6.2.8.3-.2.5-.3.8-.6,2.3-2.3,4.7-4.5,6.9-6.8,1-1,2.4-1.8,2.7-3.4.2-1,.2-1.9.2-2.9,0-2.2,0-4.4,0-6.6,0-.5,0-1,0-1.5,0-3.9.2-7.8.2-11.7,0-1.1-.1-2.3,0-3.4,0-.5.6-1,1.1-1.3.2-.2.9,0,1.1.3,3.6,3.7,7.3,7.5,10.8,11.3,1,1.1,1.9,2.3,2.5,3.6.8,1.8,1.2,3.9,1.8,5.8,1.1,3.4,2.2,6.8,3.3,10.2,1.3,4.1,2.8,8.1,4.1,12.2,1.2,3.7,2.2,7.5,3.2,11.3.4,1.5,1.7,1.5,2.8,1.8,2.7.7,5.4,1.2,8.1,1.9,4.6,1.2,9.1,2.5,13.7,3.8,2.8.8,5.5,1.5,8.3,2.2,2.3.6,4.7.9,7,1.5,3.1.8,6.2,1.7,9.3,2.5,1.2.3,2.5.7,3.8,1,.2,0,.7-.4.7-.5-.4-2.3-.9-4.7-1.4-7-.4-1.6-.8-3.3-1.2-4.9-.7-2.8-1.4-5.7-2-8.5-.6-2.5-1.1-5.1-1.7-7.7-.4-1.5-.9-3-1.2-4.5-.5-2-.8-4.1-1.3-6.1-.2-.8-.5-1.5-.7-2.3-.8-3.4-1.5-6.8-2.2-10.1-.1-.6,0-1.4-.4-1.7-.7-.5-1.5-.8-2.4-1.1-1.5-.6-3.1-1.1-4.6-1.6-5.7-1.9-11.4-3.7-17.1-5.6-4.2-1.4-8.4-2.8-12.6-4.2-1.5-.5-3-.9-4.4-1.6-.9-.4-1.6-1.2-2.4-1.9s-.5-.4-.6-.6c-2.9-3-5.9-6-8.8-9.1-1-1-2.1-2-2.8-3.1-1-1.5-.2-2.6,1.6-2.6.7,0,1.5,0,2.2,0,6.6,0,13.1,0,19.7.3,2.3.1,3.7-.6,5.2-2.1,2.6-2.7,5.3-5.2,8-7.8.3-.3.6-.6,1-.9-.5,0-1-.3-1.5-.3-2.6-.1-5.3-.2-7.9-.2-2.4,0-4.7.2-7.1.2-.8,0-1.7-.2-2.5-.2-.7,0-1.5.2-2.2.2-3,0-6,0-9,0-3.7,0-7.5-.2-11.2-.2-2.3,0-4.6,0-7,0-2.2,0-4.1-.5-5.5-2.4-.8-1.1-2.1-2-3.1-3-.3-.3-.5-.5-.8-.8-1.5-1.6-3-3.1-4.5-4.7-.9-.9-1.6-2-2.4-2.9-1.2-1.3-2.3-2.6-3.6-3.8-3.7-3.8-7.4-7.5-11-11.3-2.7-2.9-5.4-5.8-8-8.7-.8-.9-2-1.7-1.9-3.3.1-1.3.3-1.6,1.6-1.6,3,0,6,0,9,0,14.3,0,28.5,0,42.8,0,2.3,0,4,.8,5.5,2.3,3.1,3.1,6.1,6.2,9.1,9.4,3,3.2,6,6.4,9,9.5,2.2,2.3,4.4,4.6,6.6,6.9,2.5,2.6,4.9,5.2,7.4,7.8.2.2.5.3.7.5,0-.3.2-.6.2-.9,0-1.3-.3-2.6-.2-4,0-2.6.3-5.2.5-7.8.1-1.9-.5-3.5-2-4.8-2.2-2-4.4-4-6.4-6.2-2.3-2.4-4.3-5.1-6.5-7.6-.3-.3-.7-.5-1-.8-.7-.6-1.3-1.3-1.1-2.4.2-1.1,1.2-1.1,2-1.3.2,0,.4,0,.6,0,4.3,0,8.6.1,12.9,0,2.8-.1,5.2.6,7.6,1.8,3.3,1.7,6.6,3.3,9.9,4.9,2.9,1.4,5.7,2.8,8.6,4.2,3.8,1.9,7.7,3.8,11.5,5.7,1.3.6,2.6,1.2,3.9,1.9,1,.6,1.7.4,2.6-.1,1.5-.9,3.2-1.7,4.7-2.6,2.9-1.7,5.7-3.5,8.5-5.2,2.2-1.3,4.4-2.4,6.6-3.6,1.2-.7,2.3-1.5,3.5-2.2,2.6-1.5,5.2-3,7.8-4.5,2.1-1.2,4.2-2.6,6.3-3.8,2.4-1.4,4.7-2.8,7.1-4.2.8-.5.7-.8,0-1.2-2.1-1.2-4.3-2.3-6.4-3.5-1.4-.8-2.8-1.6-4.2-2.4-1.7-1-3.4-2-5.2-3-2-1.2-4-2.4-6-3.6-3.3-1.9-6.6-3.8-9.9-5.7-.6-.4-1.3-.7-2-1Z"/>
    <path d="M84.8,154.3c-.3,0-.7.1-.7.2,0,1.5,0,3,0,4.5,0,2.5-.2,5.1-.2,7.6,0,1.4.4,2.6,1.5,3.7,3.6,3.6,7,7.4,10.5,11.1,1.9,2.1,3.8,4.1,5.7,6.2.2.2.4.4.5.7,0,.3,0,.7,0,1-.3-.1-.7-.1-.8-.4-2.7-2.9-5.4-5.9-8.1-8.8-.5-.6-1.2-1.1-1.7-1.7-2.7-2.8-5.3-5.6-8-8.5-.3-.4-.5-1-.5-1.5,0-1.8.2-3.6.2-5.5,0-.6-.2-1.2-.2-1.7,0-2.9.1-5.8.2-8.7,0-.3.2-.6.3-.8.3.1.6.2.8.4,2.1,2.2,4.1,4.4,6.2,6.7.8.8,1.5,1.7,2.3,2.5,3.1,3.2,6.2,6.3,9.2,9.5,3.3,3.5,6.6,7.1,9.9,10.6,2.6,2.7,5.2,5.4,7.8,8.1s1.3.8,1.9.8c17.6,0,35.2,0,52.8,0,.4,0,.7-.2,1.1-.3-.2-.3-.3-.6-.5-.9-.3-.4-.6-.8-1-1.2-3-3.1-6-6.2-9-9.3-5.5-5.6-10.9-11.3-16.4-16.9-3-3-5.9-6.1-8.9-9.1-.9-.9-1.8-1.7-2.7-2.7-.7-.8-1.7-.8-2.6-.9-4.1,0-8.1,0-12.2,0s-1.6,0-2.4,0c-5.3,0-10.6.1-15.9.2-2.9,0-5.7.2-8.6.2-3.3,0-6.6.2-9.9.2-.3,0-.7-.1-1-.2.2-.3.3-.6.5-.8,2.8-2.9,5.7-5.8,8.5-8.8.2-.2.3-.4.4-.6.9-1.2,1.8-2,3.6-2,5,0,10.1-.1,15.1-.2,3.3,0,6.6-.2,10-.3.3,0,.5-.1.8-.2-.1-.3-.2-.6-.4-.8-3.9-3.9-7.8-8-11.9-11.8-1.2-1.1-3.1-1.6-4.7-2.2-4.1-1.4-8.2-2.8-12.3-4.1-4.5-1.5-9-3.1-13.4-4.6-2.7-.9-5.5-1.9-8.2-2.8-.4-.1-.8-.1-1.2-.2-2.3-.3-2.4-2.2-2.7-3.8-.6-2.9-1.2-5.7-1.8-8.6-.7-3.3-1.4-6.6-2.1-9.8-.6-2.7-1.2-5.4-1.8-8.1-.6-2.9-1.3-5.8-1.9-8.7-.6-2.9-1.2-5.8-1.8-8.7,0-.3-.1-.7,0-.8,1.1-1.1,2.1-2.3,3.3-3.3.8-.6,2-.6,2.9-1.2,2.4-1.5,4.6,0,6.8.5,2.6.7,5.2,1.6,7.8,2.4,2.8.9,5.7,1.6,8.6,2.5,3.2,1,6.5,2,9.7,2.9,3.6,1.1,7.2,2.1,10.8,3.2,1.5.5,1.7,1.9,2.1,3.1,1.6,5,3.1,10,4.7,15,1.5,4.8,2.9,9.6,4.4,14.4.5,1.6,1.2,3.2,1.8,4.8.3,1,.5,2,.9,2.9.5,1,1,2.1,1.8,2.9,3.1,3.2,6.3,6.3,9.4,9.5.9.9,1.7,1.8,2.5,2.8.1.1.2.3.3.5-.2,0-.4.2-.6,0-.4-.2-.9-.4-1.3-.7-1.7-1.8-3.4-3.6-5.1-5.3-1.9-1.9-4-3.8-5.9-5.7-1.5-1.6-2.3-3.6-2.9-5.8-.9-3.5-2.2-6.9-3.3-10.3-.9-2.9-1.8-5.8-2.7-8.7-.8-2.5-1.4-5-2.2-7.6-1-3.1-1.9-6.2-3-9.2-.3-.9-.9-1.4-2-1.7-1.8-.4-3.6-1.1-5.4-1.7-3.5-1-7.1-1.9-10.6-3-3.5-1.1-6.9-2.3-10.4-3.4-1.7-.5-3.4-.9-5.1-1.4-2.1-.7-4.3-1.4-6.4-2.1-1.6-.5-3.2-.8-4.8.2-1.3.8-2.8.9-4,2-1.2,1-1.4,2.1-1,3.5,1,4.1,2,8.3,2.9,12.4.7,3.4,1.3,6.9,2,10.4.4,2.1,1,4.1,1.5,6.1.6,2.7,1.1,5.5,1.7,8.3.3,1.6.7,3.2,1.1,4.8,0,.3,0,.6.1.9.2,1.1.4,2.1,1.9,2.4,1.7.3,3.2,1.1,4.9,1.6,4,1.3,8,2.6,12,3.9,2.9,1,5.8,2,8.7,3,3.1,1.1,6.3,2.1,9.4,3.1,2.6.9,5.1,2,7.1,4.2,3.1,3.4,6.4,6.5,9.6,9.7,1.2,1.2,1,2.6-.5,3.1-.4.2-1,.2-1.4.2-.9,0-1.8,0-2.7,0-4.5,0-8.9.2-13.4.2-2.9,0-5.7.1-8.6.3-.3,0-.7.2-.9.4-2.8,2.9-5.6,5.8-8.4,8.7-.1.1-.2.3-.3.4.2,0,.4.3.6.3,1.8,0,3.5-.2,5.3-.2,1,0,1.9,0,2.9,0,7.3,0,14.5-.1,21.8-.3,3.3,0,6.6-.2,9.9-.2,2.7,0,5.4.1,8,.2.4,0,1,.1,1.3.4,1.1.9,2,2,3.1,3,.5.5,1.1.8,1.5,1.3,4.2,4.3,8.5,8.6,12.7,12.9,3.1,3.1,6.1,6.3,9.2,9.5,2.1,2.2,4.2,4.4,6.3,6.6,1.6,1.7,3.2,3.5,4.8,5.3.4.4.8.8,1.2,1.2.7.7.6,1.5.2,2.4-.4.9-1,1-1.9,1-8.4,0-16.9,0-25.3,0h-17.4c-3.3,0-6.6,0-9.9,0-.9,0-1.7-.3-2.3-.9-2.6-2.7-5.3-5.3-8-8-2.4-2.4-4.7-4.8-7-7.3-2.9-3.1-5.7-6.2-8.6-9.3-1.7-1.8-3.5-3.6-5.2-5.5-1.1-1.2-2.1-2.5-3.2-3.7-.7-.8-1.4-1.6-2.2-2.5Z"/>
    <path d="M301.4,166c-1.6,1.7-3.1,3.4-4.7,5-1.6,1.6-3.4,3.2-5,4.8-1.1,1.1-2.1,2.3-3.2,3.4-2.7,2.6-5.4,5.2-8.1,7.8-1,.9-1.9,1.9-3,2.7-.6.5-1.5.9-2.3.9-12.4,0-24.9,0-37.3,0s-4.5,0-6.7,0c-1.6,0-3.2-.2-4.9-.2-1.5,0-3.1,0-4.6-.3-.6-.1-1.4-.7-1.6-1.3-.2-.4.3-1.3.7-1.7,1.8-1.9,3.7-3.7,5.5-5.6,1.9-2,3.8-4,5.7-5.9,2.1-2.1,4.4-4,6.5-6.1.9-.9,1.6-1.9,2.5-2.7,3.2-3.2,6.4-6.4,9.5-9.6,1.7-1.7,3.3-3.5,5-5.2,1.2-1.2,2.4-2.4,3.7-3.4.6-.5,1.6-.6,2.4-.6,3.6,0,7.3,0,10.9,0,1.8,0,3.5.2,5.3.2,1.4,0,2.8-.2,4.2-.2,1.7,0,3.5.2,5.2.2,4.2,0,8.4,0,12.5,0,3.3,0,6.6.2,9.8.2.4,0,.8-.1,1.1-.2-.2-.3-.4-.6-.6-.8-1.8-1.8-3.7-3.6-5.4-5.4-1.2-1.3-2.2-2.7-3.3-4-.3-.3-.7-.6-1.1-.6-1.5,0-3,.2-4.6.2-1.1,0-2.1-.2-3.2-.2-5.9,0-11.8,0-17.7,0-.4,0-.7-.3-1.1-.4.3-.2.6-.4.9-.5.6-.1,1.2-.3,1.7-.3,7.8,0,15.6,0,23.5,0,.7,0,1.6.3,2.1.8,2.7,2.7,5.4,5.5,8,8.2.8.9,1.6,1.8,2.4,2.7.3.3.4.8.6,1.2-.5.2-.9.5-1.4.5-3.1,0-6.2,0-9.3,0-7.1,0-14.3-.2-21.4-.2-6.4,0-12.9-.2-19.3-.3-1,0-1.8.3-2.5,1-2.2,2.3-4.5,4.5-6.7,6.7-1.8,1.8-3.4,3.6-5.2,5.4-.9.9-1.9,1.7-2.8,2.6-1.8,1.8-3.5,3.7-5.3,5.5-2,2-4,3.9-6.1,5.8-1.9,1.8-3.7,3.7-5.5,5.5-1.7,1.7-3.3,3.5-5,5.2-.5.6-1.1,1.2-1.6,1.8,0,0,.2.6.4.6.8,0,1.7,0,2.5,0,17,0,34,0,51,0,.7,0,1.6-.4,2.1-.8,2.7-2.5,5.2-5,7.8-7.5,2.6-2.5,5.3-5,7.9-7.6,6.5-6.5,12.9-13.1,19.4-19.6.2-.2.4-.5.6-.6.6-.3,1.2-.4,1.8-.6.1.6.4,1.1.4,1.7,0,2.9-.1,5.8-.2,8.7,0,1.6-.5,3.2-.2,4.7.5,2.2-.6,3.3-1.9,4.6-3.8,3.8-7.7,7.6-11.5,11.5-1.4,1.4-2.7,2.8-4,4.2-.5.5-1.1,1-1.7,1.5,0,0-.4.1-.4,0,0-.1-.2-.4-.1-.5.2-.4.4-.9.8-1.3,3.3-3.3,6.6-6.6,9.9-9.9,2.5-2.5,5-5.1,7.4-7.7.3-.3.5-.8.5-1.1,0-1.3-.2-2.6-.2-3.8.1-3.1.3-6.3.5-9.4,0-.2,0-.3,0-.5,0-.3,0-.6,0-.9-.3.2-.6.3-.8.6-2.1,2.2-4.2,4.4-6.3,6.6-1.5,1.6-3.2,3-4.8,4.6Z"/>
    <path d="M181.1,61.6c-1.3-2.6-2.6-5.2-3.9-7.8-1.7-3.4-3.3-6.9-5.1-10.3-.7-1.4,0-2.3.6-3.3,1.6-2.5,3.3-4.9,4.8-7.3,2-3.1,4-6.3,5.9-9.5,2.1-3.3,4.1-6.6,6.1-9.9,2.4-3.9,4.9-7.8,7.4-11.7,1.6-2.5,5.9-2.5,7.4.3,2.4,4.3,5.1,8.4,7.6,12.6.8,1.3,1.4,2.6,2.2,3.9,1.9,3.2,3.9,6.4,5.9,9.6,1.1,1.8,2.1,3.6,3.1,5.3,1.3,2.1,2.6,4.1,3.9,6.1.7,1.2.8,2.5.1,3.9-2.2,4.2-4.4,8.5-6.6,12.7-1.3,2.6-2.6,5.2-3.9,7.8-1.8,3.4-3.6,6.8-5.4,10.3-1,2.1-1.9,4.2-2.9,6.3-.1.2-.2.5-.2.8,0,4.6-.1,9.3-.3,13.9,0,1.5-.3,3-.5,4.5,0,.2-.2.5-.4.7,0,.1-.3.1-.4.2,0-.1-.1-.3-.1-.4,0-4.3.1-8.6.3-13,0-2.3,0-4.8.6-6.9.9-2.8,2.5-5.4,3.8-8,1.2-2.6,2.5-5.1,3.8-7.7.6-1.3,1.5-2.4,2.1-3.7.6-1.2,1.2-2.5,1.8-3.7,1.1-2.1,2.2-4.2,3.3-6.3.7-1.3,1.3-2.6,1.9-3.9.7-1.5,1.5-3,2.3-4.5.5-.9.3-1.6,0-2.3-1.4-2.3-2.9-4.5-4.3-6.8-1.1-1.8-2.2-3.7-3.3-5.5-.8-1.3-1.6-2.5-2.3-3.8-.8-1.4-1.6-2.8-2.4-4.2-1.1-1.8-2.1-3.6-3.2-5.4-1.7-2.8-3.4-5.6-5-8.4-.7-1.2-1.3-2.6-2.1-3.8-.5-.8-1.2-1.5-2.4-1.4-1.3,0-2.4,0-3.3,1.3-2.2,3.8-4.6,7.4-6.9,11.1-1.6,2.5-3.2,5.1-4.9,7.6-1.7,2.6-3.4,5.1-5,7.7-1.7,2.7-3.3,5.4-5,8.1-.9,1.4-1.9,2.7-2.8,4.1-.3.5-.5,1,0,1.9,1.5,2.7,2.7,5.5,4,8.3,2.6,5.3,5.3,10.5,7.8,15.8,2,4.1,4,8.3,5.9,12.4.3.7.5,1.5.5,2.2,0,4.6-.1,9.2-.2,13.8,0,1.8-.3,3.6-.5,5.3,0,.2,0,.3-.2.5-.1-.1-.3-.2-.3-.4-.2-.5-.5-.9-.5-1.4,0-1.6.1-3.2.2-4.8,0-.3,0-.6,0-.9,0-1.7,0-3.4,0-5.1,0-2,0-4,.3-6,.2-1.7-.4-3.1-1.1-4.5-1.9-4.1-3.9-8.1-5.8-12.2-.7-1.5-1.6-3-2.4-4.6Z"/>
    <path d="M56.2,327.5c.9-3.2,1.7-6.3,2.6-9.4.8-2.8,1.7-5.5,2.5-8.3,1.8-6.4,3.6-12.9,5.4-19.4.3-1,.8-1.6,2-1.9,1.9-.4,3.6-1.2,5.5-1.9,2.7-1,5.4-1.9,8-2.9,2.9-1,5.9-2.1,8.8-3.1,4.5-1.6,8.9-3.3,13.4-4.7,2.2-.7,3.6-2.2,5.1-3.6,2.8-2.5,5.4-5.3,8.2-7.8,1.2-1.1,2.5-2,3.8-3,0,0,.3,0,.4,0,0,.1,0,.3,0,.4-.2.3-.4.7-.7.9-3,2.9-5.9,5.9-9,8.8-1.9,1.8-4,3.4-6.2,4.9-.9.6-2.1.9-3.2,1.3-3.4,1.2-6.7,2.5-10.1,3.7-2.8,1-5.5,1.8-8.3,2.8-2,.7-4,1.5-6.1,2.2-2.3.8-4.6,1.4-7,2.2-1,.3-2.1.5-2.8,1.1-.7.6-1,1.8-1.3,2.7-.8,2.6-1.6,5.1-2.4,7.7-.8,2.9-1.5,5.8-2.3,8.7-.5,2-1.2,3.9-1.8,5.9-1.1,3.9-2.1,7.9-3.2,11.8-.5,1.7-1,3.4-1.5,5-.7,2.2-1.5,4.4-2.1,6.6-.2.6-.3,1.3-.3,2,0,.1.6.4.8.4,2.1-.5,4.3-1.2,6.4-1.7,3.3-.8,6.6-1.6,9.9-2.4,2-.5,3.9-1,5.9-1.6,2.7-.8,5.3-1.6,8-2.3,2.1-.5,4.3-.8,6.5-1.3,2.5-.6,4.9-1.4,7.4-2,1.5-.4,3-.7,4.4-1.2.6-.2,1.3-.6,1.5-1.1.9-2.3,1.7-4.6,2.5-6.9.8-2.1,1.6-4.2,2.4-6.3,1.1-2.8,2.1-5.7,3.3-8.5.9-2.4,2-4.7,2.9-7,1.2-3.1,2.3-6.2,3.5-9.2.3-.7.6-1.4,1-1.9,1-1.1,2.1-1.9,3.2-3,1.2-1.2,2.2-2.4,3.4-3.6,1.5-1.5,3.2-3,4.7-4.5.7-.6,1.2-1.4,1.8-2.1.2-.2.3-.4.6-.4s.5,0,.7,0c0,.2-.1.4-.2.6-1.5,1.7-3,3.4-4.5,5-2.6,2.7-5.2,5.3-7.9,7.9-1.3,1.2-1.9,2.6-2.5,4.1-.9,2.4-1.8,4.7-2.7,7.1-1.8,4.7-3.6,9.4-5.4,14.1-1.5,3.9-3,7.7-4.4,11.6-.4.9-.7,1.8-1,2.8-.3,1.4-1.3,2.2-2.6,2.5-5.3,1.3-10.7,2.6-16.1,4-2,.5-4,1.2-6,1.7-3.9,1-7.8,2-11.7,3-4,1-8.1,2.1-12.1,3.1-1.4.4-2.9.7-4.4,1.1-.5.1-.9,0-.8-.6.2-.8.3-1.7.5-2.5.7-2.6,1.5-5.1,2.2-7.7.4-1.3.8-2.5,1.2-3.9Z"/>
    <path d="M45.8,225.2c-.7.3-1.3.6-2,.8-1.1.2-1.9-.3-2.8-.9-2.2-1.5-4.5-2.8-6.7-4.2-4.5-2.9-9-5.9-13.5-8.8-5.1-3.4-10.2-6.8-15.3-10.3-1.7-1.2-3.4-2.4-5-3.6-.8-.6-.5-1,.2-1.4,3.9-2.4,7.8-4.9,11.7-7.4,4.1-2.6,8.1-5.2,12.2-7.8,6.2-3.9,12.4-7.7,18.7-11.5.5-.3,1.5-.2,2.1,0,5.2,2.7,10.4,5.4,15.6,8.1,2,1,4,2,6,3,3.5,1.8,7.1,3.7,10.6,5.5,1.5.8,3.1,1.6,4.7,2.2.7.3,1.6.3,2.5.3,1.6,0,3.2,0,4.8,0,3,0,6,0,9.1,0,.7,0,1.3.1,2,.3.2,0,.4.3.6.5-.2.2-.4.4-.6.4-1.1,0-2.2,0-3.3,0-2.8,0-5.6.1-8.4,0-3.5-.3-7.2.4-10.4-2.1-1.2-1-2.8-1.4-4.3-2.1-2.7-1.4-5.4-2.8-8.1-4.2-3.4-1.8-6.7-3.5-10.1-5.3-3.6-1.9-7.3-3.8-10.9-5.6-.5-.2-1.4-.1-1.9.2-2.5,1.5-4.8,3.2-7.3,4.7-4.4,2.7-8.9,5.4-13.3,8.1-3.1,1.9-6.1,3.9-9.2,5.9-2.8,1.7-5.6,3.4-8.4,5.2-1,.6-1.8,1.3-2.8,1.9-.6.4-.4.8,0,1.1.4.3.7.6,1.1.9,4.9,3.2,9.8,6.4,14.7,9.6,3,1.9,6,3.8,8.9,5.7,3.3,2.2,6.5,4.4,9.8,6.6,2,1.3,4,2.6,6.1,3.6.6.3,1.7-.1,2.4-.4,2.8-1.3,5.5-2.8,8.2-4.2,2.3-1.2,4.6-2.3,6.9-3.4,2.3-1.2,4.7-2.3,7-3.4,2.3-1.2,4.5-2.5,6.9-3.6,2.6-1.2,5.1-2.6,7.8-3.3,2.1-.5,4.5-.2,6.7-.2.3,0,.7,0,1,0,3.4,0,6.8.2,10.3.2.2,0,.4,0,.5,0,.3.2.6.4.9.6-.3.2-.6.6-.9.6-.8,0-1.6,0-2.5,0-.7,0-1.5-.2-2.2-.2-3.4-.1-6.7,0-10.1-.3-2.4-.1-4.5.5-6.6,1.6-3.8,2-7.6,3.9-11.5,5.8-3.3,1.6-6.7,3.1-10,4.7-2.9,1.4-5.7,3-8.6,4.5-1,.5-2.1,1-3.2,1.5Z"/>
    <path d="M247.4,117.2c0-2.6.1-5.1.2-7.5.1-3.5.3-7.1.5-10.6.1-2.8.3-5.6.5-8.4.2-2.4.3-4.8.5-7.2,0-.2.1-.5.2-.7.2.1.5.2.7.3,1,1,2,2.1,3,3.2,2,2.2,4.1,4.4,6.1,6.6.5.6,1.2,1.1,1.5,1.8.4.8,1,1.6.6,2.8-.3,1.1,0,2.4,0,3.7-.2,3.7-.5,7.5-.7,11.2-.1,1.7-.4,3.5-.5,5.2,0,1.7,0,3.3-1,4.9-.8,1.4-.2,3.1-.3,4.6,0,.3-.2.6-.2.9-.2-.3-.4-.5-.5-.8-.5-1.6-.8-3.2,0-4.9.5-1.2.7-2.5.8-3.7.3-3.4.5-6.8.7-10.3,0-1.5.2-3,.3-4.5.2-2.1.3-4.1.5-6.2.2-1.6-.2-2.2-1.7-2.8-.1,0-.3-.2-.3-.3.4-1-.5-1.2-.9-1.7-1.1-1.3-2.3-2.7-3.5-4-1-1.1-2-2.2-3-3.3-.1-.1-.2-.2-.3-.3-.1.2-.3.3-.3.5,0,1.4,0,2.8,0,4.2,0,.6-.1,1.2-.2,1.8,0,1.8-.2,3.6-.3,5.4-.2,3.5-.3,7.1-.5,10.6,0,1.6,0,3.2,0,4.8-.1,2-.5,4.1-.7,6.1,0,.2,0,.3,0,.5,0,5.2-.3,10.4-.2,15.6,0,1.5-.5,2.5-1.5,3.5-3.3,3.3-6.7,6.7-10,10-4.9,4.9-9.8,9.8-14.8,14.7-2.2,2.2-4.5,4.4-6.8,6.6-2.1,2-4.2,4-6.3,6.1-.1.1-.3.3-.5.4-.5.2-1,.3-1.5.4.3-.4.5-.8.8-1.1,2.2-2.2,4.5-4.3,6.6-6.4,5-4.9,9.9-9.9,14.8-14.8,1.8-1.8,3.6-3.5,5.4-5.2.6-.6,1.1-1.3,1.8-2,3.2-3.2,6.5-6.5,9.7-9.7.8-.8.9-1.8.9-2.9,0-3,.1-6.1.2-9.1,0-.1,0-.2,0-.4,0-2.5.2-5.1.2-7.8Z"/>
    <path d="M226.9,83.9c-2.6,2.5-5.2,5-7.8,7.5-3.2,3.1-6.3,6.2-9.5,9.3-.2.2-.7.3-1,.4,0-.4,0-.8.2-1.1,1-1.1,2-2,3-3.1.6-.6,1-1.2,1.6-1.8,3.4-3.3,6.8-6.6,10.1-9.9.3-.3.7-.4.9-.7,1.6-2.4,4-2.8,6.7-2.6,2.7.2,5.5,0,8.3,0,1.7,0,3.3-.2,5-.2.4,0,.8.2,1.2.3-.2.3-.5.5-.7.8-.1.1-.2.2-.3.3-4.3,4.2-8.5,8.3-12.8,12.5-2.4,2.4-4.9,4.7-7.3,7-5.5,5.3-10.9,10.6-16.4,15.9-.3.3-.5.9-.6,1.3-.1,3.4-.2,6.8-.3,10.2,0,5-.2,10-.2,15,0,5.5-.2,11.1-.2,16.6,0,4.1-.1,8.1-.3,12.2,0,.6-.3,1.2-.5,1.7,0,.1-.3.2-.4.2-.1,0-.3-.2-.3-.4,0-1,0-2.1,0-3.1,0-2.4,0-4.8,0-7.1,0-1.2.2-2.5.2-3.7,0-1.5-.2-2.9-.2-4.4,0-1.8.3-3.6.4-5.3,0-1.2-.1-2.3-.1-3.5,0-.8.2-1.6.2-2.5,0-1.6,0-3.3,0-4.9s0-3.5,0-5.2c0-4.1.1-8.3.2-12.4,0-1.3,0-2.6.3-3.8.1-.7.6-1.5,1.2-2.1,2.5-2.6,5-5.1,7.5-7.6,2.5-2.4,5-4.9,7.5-7.3,1.2-1.1,2.3-2.4,3.5-3.4,1.7-1.5,3.4-2.9,5.1-4.4,1-.9,1.8-2,2.8-3,2.6-2.6,5.3-5.1,7.9-7.7.3-.3.4-.6.6-1-.4,0-.7-.2-1.1-.2-1.5,0-2.9.2-4.4.2-.5,0-1.1-.2-1.6-.2-2,0-3.9.2-5.9.2-.9,0-1.8-.2-2.6.7Z"/>
    <path d="M188.9,140.5c0-.4.2-.6.2-.9,0-5,.2-10,.3-15,0-1.2.2-2.5.2-3.7,0-.6-.2-1.4-.6-1.8-2.4-2.6-4.9-5.2-7.4-7.7-4.4-4.5-8.9-8.9-13.4-13.4-4.6-4.6-9.3-9.1-13.9-13.7-.2-.2-.5-.4-.7-.7-.5-.8-.3-1.3.7-1.3,4.8,0,9.6-.2,14.4-.3,1,0,1.8.3,2.5,1.1,3.2,3.3,6.4,6.5,9.7,9.7,2,2,4,3.9,6,5.8,1,1,1.9,2,2.8,3,0,0-.2.5-.2.5-.3,0-.7,0-1-.3-1.3-1.2-2.6-2.3-3.8-3.5-1.8-1.8-3.6-3.8-5.4-5.6-1.9-2-3.8-3.9-5.8-5.8-1.1-1.1-2.3-2.2-3.5-3.3-.3-.2-.7-.4-1.1-.4-3.4,0-6.7,0-10.1,0s-1.9,0-2.9,0c-.2,0-.5.2-.7.3.1.2.2.4.3.6,1.1,1,2.2,1.9,3.2,3,1.4,1.4,2.6,2.9,4,4.2,2.4,2.3,4.9,4.6,7.3,6.9,1.2,1.1,2.4,2.3,3.5,3.5.5.5.8,1.1,1.3,1.5,4,4,8.1,7.9,12.1,11.9,1,1,1.7,2.2,2.7,3.1.7.7.9,1.5.8,2.5,0,2.2,0,4.3,0,6.5,0,4.8-.1,9.6-.2,14.4,0,2.2-.2,4.4-.2,6.5,0,2.4-.2,4.9-.2,7.3-.1,4.7-.2,9.4-.3,14.1,0,1.3-.1,2.6-.3,3.9,0,.3-.4.5-.6.7-.1-.3-.4-.5-.4-.8,0-3.1,0-6.2,0-9.3,0-3.9.2-7.9.2-11.8,0-4,.2-8,.2-12.1Z"/>
    <path d="M158.9,146.5l-1.8-1.8c-2.1-2.1-4.1-4.1-6.2-6.2-1.8-1.8-2.8-3.9-2.1-6.6.3-1.3-.1-2.7,0-4,0-2.5.1-4.9.1-7.4,0-1.6,0-3.1,0-4.7,0-3.5.2-7,.2-10.5,0-4.6.2-9.2.3-13.8,0-1.4.2-2.7.2-4.1,0-.5-.3-.9-.5-1.4-.3.3-.5.5-.8.8-2.1,2-4.2,4-6.2,6-.9.9-1.8,1.8-2.7,2.7-.2.3-.4.7-.4,1.1-.1,2.3-.2,4.6-.3,6.9,0,1.6,0,3.1,0,4.7-.1,4.9-.3,9.8-.5,14.7,0,.2-.2.4-.3.6-.2-.2-.6-.4-.7-.6-.1-1.6-.2-3.2-.3-4.8,0-1.3.2-2.6.2-4,.1-3.5.2-7.1.3-10.6,0-2.4.1-4.8.3-7.1,0-.5.2-1.2.6-1.6,3.7-3.7,7.4-7.3,11.2-11,.2-.2.5-.2.8-.4,0,.3.1.5.1.8,0,4.6,0,9.3,0,13.9,0,3.5-.2,6.9-.2,10.4,0,3.8-.2,7.5-.2,11.3,0,4.5-.1,9-.3,13.6,0,1.5.5,2.7,1.5,3.7,1.7,1.8,3.5,3.5,5.2,5.2,5.6,5.7,11.3,11.4,16.9,17.2,3.9,4,7.8,8,11.7,12,.9.9,1.7,1.8,2.5,2.8.2.2.2.5.2.7-.3,0-.6,0-.7,0-.7-.5-1.5-1-2.1-1.6-1-1-2-2.1-3-3.2-4.6-4.7-9.2-9.4-13.8-14.1-1.7-1.8-3.4-3.6-5.1-5.3-1.2-1.2-2.5-2.3-3.7-3.5-.2-.2-.4-.5-.6-.8Z"/>
    <path d="M146.3,238.6c-2.6,2.6-5.1,5.1-7.6,7.6-1,1-2,2.1-3.2,2.9-.7.5-1.8.5-2.7.6-1.3,0-2.6,0-3.8,0h-7.9c-1.7,0-3.3,0-5,0-3.9,0-7.8-.2-11.7-.2-6.1,0-12.2-.2-18.4-.2-.3,0-.6.2-.8.3.2.1.4.3.6.4,2,2.1,4,4.2,6,6.2,1,1,2,2.1,3,3,.3.3.9.3,1.3.3,2,0,3.9,0,5.9,0,4.2,0,8.4.1,12.6.2,1.7,0,3.5.1,5.2.3.3,0,.6.3.9.5-.3.1-.6.4-.9.4-4.1,0-8.1,0-12.2,0-3.9,0-7.9-.1-11.8-.3-.6,0-1.4-.4-1.9-.8-3.6-3.6-7.1-7.2-10.6-10.9-.2-.2-.3-.6-.5-.9.3,0,.6-.1.9-.1,3.2,0,6.3,0,9.5,0,1.3,0,2.6.2,3.9.2.8,0,1.6-.2,2.4-.2,5.1,0,10.2.1,15.4.2,4.9,0,9.8.2,14.6.2,1.5,0,3.1,0,4.6-.3.7-.1,1.5-.7,2.1-1.2,5.9-5.8,11.7-11.7,17.6-17.5,1.4-1.4,2.7-2.7,4.1-4.1,4.2-4.2,8.3-8.5,12.5-12.7,1-1,2.1-2,3.2-2.9.1-.1.4-.1.6-.2,0,.2,0,.5,0,.7-.1.3-.3.5-.5.8-2.3,2.4-4.7,4.9-7,7.3-1.9,2-3.9,3.9-5.9,5.9-3.2,3.2-6.3,6.5-9.5,9.7-1.6,1.6-3.2,3.2-4.8,4.8Z"/>
    <path d="M97.6,228.6c.2-.3.4-.6.6-.8,3-3.1,6-6.1,8.9-9.2,1.5-1.5,2.9-3.2,4.4-4.6,2.1-1.9,4.2-3.8,6.4-5.6.1-.1.3-.2.3-.3.2-1.6,1.5-1,2.3-1,1.9-.1,3.8,0,5.7,0h3.9c7.3,0,14.7,0,22,0,2.1,0,4.1.2,6.2.2,1.2,0,2.4-.2,3.6-.2.8,0,1.7.2,2.5.2,2.9,0,5.8,0,8.8,0,.3,0,.7.4,1,.6-.3.2-.7.5-1,.5-1.4,0-2.7-.2-4.1-.2-.7,0-1.3.2-2,.2-.9,0-1.9-.2-2.8-.2-3.1,0-6.1,0-9.2,0-6.8,0-13.6-.2-20.4-.2-2.3,0-4.6,0-6.9,0s-4.4,0-6.6,0c-1.1,0-2,.4-2.7,1.1-2.2,2-4.4,4.1-6.5,6.2-2.5,2.5-4.8,5-7.3,7.5-7.1,7.2-14.2,14.4-21.4,21.6-.2.2-.5.5-.7.7-.2.2-.4.5-.7.7-.1-.3-.4-.7-.4-1,0-4.5.1-8.9.2-13.4,0-1.3,0-2.6.3-3.8.2-.9.9-1.7,1.6-2.4,4.4-4.4,8.8-8.7,13.3-13,.9-.9,1.7-1.7,2.6-2.6,0,0,.2-.2.3-.3.7-.3,1.4-.5,2.1-.7-.4.5-.7,1-1.1,1.5-1.2,1.2-2.3,2.4-3.5,3.6-4.4,4.4-8.9,8.7-13.3,13.1-.6.6-.9,1.2-.9,2.1,0,2.3,0,4.6,0,6.8s0,3.5,0,5.2c0,.7,0,1.3,0,2,0,0,.5.2.6,0,1.2-1.2,2.3-2.5,3.6-3.8,3.4-3.5,6.9-6.9,10.4-10.4Z"/>
    <path d="M170.7,236.3c.4-.3.8-.5,1.1-.8,2.1-2.1,4.2-4.2,6.3-6.3,2.6-2.5,5.3-5,7.9-7.5.3-.3.6-.4,1-.5.2,0,.5.1.6.3,0,.1,0,.4-.2.6-3.9,3.8-7.9,7.6-11.9,11.4-3.8,3.7-7.5,7.5-11.3,11.3-3.5,3.5-6.9,6.9-10.4,10.4-1.6,1.7-3.3,3.4-4.8,5.1s-.6,1-.6,1.5c-.2,3.7-.4,7.4-.5,11.1-.1,4.5-.2,9-.3,13.5,0,1.8,0,3.7,0,5.5,0,4.4-.1,8.9-.3,13.3,0,2.6-.3,5.2-.5,7.8,0,.2-.1.4-.2.6-.3,0-.7,0-.7-.4-.2-2-1.4-3.7-3.3-4-.8-.1-1-.7-1.4-1.2-2-2.1-3.9-4.1-5.9-6.2-.3-.3-.4-.8-.4-1.2,0-1.3,0-2.6,0-3.8v-19.9c0-.3,0-.6,0-.9.1-.3.4-.6.6-.8.1.3.3.6.3.8.1,5,.2,10,.3,15,0,1.2,0,2.3,0,3.5,0,1.8-.2,3.5-.2,5.3,0,.5.3,1.3.7,1.7,1.9,2,3.9,3.9,5.8,5.8.9,1,1.7,2.1,2.6,3.1.2.2.4.4.6.6.1-.3.4-.6.4-.9.1-3.2.2-6.4.3-9.6,0-1.2.2-2.5.2-3.7,0-3.9,0-7.7,0-11.6,0-2.4.2-4.9.2-7.3,0-1.4,0-2.7,0-4.1.2-3.8.7-7.5.6-11.3,0-2.6,1.5-3.9,3.1-5.5,2.3-2.3,4.3-4.8,6.6-7,1.5-1.5,3.3-2.8,4.9-4.2,1.2-1.1,2.1-2.3,3.2-3.4.4-.4.9-.7,1.3-1.1.5-.5.9-1,1.3-1.5,1-1.1,1.9-2.2,2.9-3.4Z"/>
    <path d="M276.9,101.9c.6-1.8,1.2-3.5,1.8-5.1,2.2-6.2,4.5-12.3,6.7-18.5,1.1-3,2.5-5.8,3.1-8.9.5-2.4,2.1-2.4,3.6-2.8,2.5-.8,5-1.3,7.5-2,4.8-1.3,9.6-2.6,14.3-3.9,1.4-.4,2.7-.8,4.1-1.2.4-.1.8-.3,1.2-.3,1.7.3,3.1-.7,4.6-1.1,3-.9,6-1.9,9-2.8,1-.3,2-.3,3-.5,1.3-.2,2.2.7,3.1,1.3.2,0,.2.4.3.6-.2,0-.4,0-.6-.2-2.5-1.5-4.8-.3-7.2.5-1.6.6-3.3.9-5,1.4-1.8.6-3.5,1.3-5.3,1.8-3.1.8-6.4,1.4-9.5,2.3-2.7.7-5.4,1.6-8.1,2.3-1.8.5-3.6.9-5.3,1.3-1.4.4-2.8.9-4.2,1.3-1,.3-2,.3-2.9.6-.5.2-1.2.6-1.4,1-.7,1.8-1.2,3.7-1.9,5.5-1,2.9-1.9,5.7-3,8.6-1,3-2.1,5.9-3.2,8.9-1.5,4.1-3,8.2-4.5,12.4-.2.7-.4,1.4-.6,2.1-.6,2.2-2.5,3.3-3.9,4.9-2,2.1-3.9,4.3-5.9,6.4-.8.9-1.7,1.8-2.7,2.4-2,1.2-2.4,3-2.5,5,0,1.7,0,3.4,0,5.2,0,1-.2,2.1-.2,3.1,0,.7.7,1.4-.3,1.9-.2-.6-.4-1.2-.4-1.8,0-1.3,0-2.7,0-4s0-3.7,0-5.6c0-1.3.4-2.4,1.4-3.4,2.5-2.4,4.8-4.8,7.2-7.2,1.8-1.8,3.8-3.6,5.3-5.7,1-1.4,1.4-3.2,2.1-4.9,0-.2.2-.5.2-.9Z"/>
    <path d="M342.2,61.6c.2-.5.3-.9.5-1.3.4-.8,0-1.7-.9-1.9-.2,0-.4-.2-.5-.4.2-.1.4-.3.6-.3.5,0,1.1,0,.6-.7,0,0,.2-.1.2-.1.9,0,1.7,1,1.5,1.8-.5,1.9-1,3.9-1.5,5.8-.8,3.2-1.6,6.4-2.5,9.7-1.1,4.1-2.2,8.2-3.3,12.4-.4,1.6-.7,3.1-1.1,4.7-1,3.8-2.1,7.7-3.1,11.5-.4,1.5-.8,3-1.1,4.6-.2,1.1-1.2,1.3-1.9,1.5-3.5,1.2-7,2.1-10.5,3.2-7.1,2.3-14.2,4.6-21.4,6.8-2.9.9-5.9,1.8-8.8,2.8-1,.4-1.9,1.1-2.7,1.8-3.4,3.2-6.7,6.5-10,9.7-1,.9-1.9,1.9-2.9,2.8-.1.1-.3.1-.4.2,0-.2-.2-.5-.1-.6.7-1,1.4-2,2.1-3,.2-.2.5-.4.7-.6,3-2.9,6.1-5.8,9-8.8,2.2-2.3,5.1-3.2,8-4.1,4.9-1.6,9.7-3.3,14.6-4.8,4.2-1.3,8.5-2.5,12.7-3.8,3.2-1,6.4-2.1,9.6-3.2.3,0,.6-.4.7-.7.6-2.2,1.2-4.5,1.7-6.8.4-1.5.8-2.9,1.2-4.4,1.2-4.4,2.3-8.8,3.4-13.2,1.3-4.7,2.6-9.3,3.8-14,.6-2.1,1.1-4.3,1.6-6.6Z"/>
    <path d="M258.9,132.7c0,.9.2,1.8.2,2.6,0,.2-.1.4-.2.6-.2-.2-.5-.3-.5-.5-.2-1.1-.4-2.1-.5-3.2,0-.4.3-.7.5-1.1.1.1.4.2.4.3,0,.4,0,.8,0,1.3Z"/>
    <path d="M328.9,307.1c0-.3.2-.5.2-.6.1-.2.2-.4.4-.6.1.2.4.5.4.7,0,.8-.1,1.6-.3,2.4,0,.2-.4.4-.6.6-.1-.3-.3-.6-.3-.8,0-.5.1-1,.2-1.6Z"/>
    <path d="M316.9,319.9c-.2.6-.4,1-.5,1.5,0-.4,0-.9,0-1.3,0-.1.3-.2.5-.1Z"/>
    <path d="M252.3,123.6c.3-.2.7-.3,1-.4-.2.3-.4.6-.7.9-.1-.1-.2-.3-.3-.5Z"/>
    <path d="M261.3,136.5c-.2.2-.4.4-.6.5,0-.3,0-.6.1-.8,0-.2.3-.4.5-.5,0,.3,0,.5,0,.8Z"/>
    <path d="M335.4,57.3c.4,0,.7,0,1.1,0,0,0,0,.3,0,.4-.4-.1-.8-.2-1.1-.4Z"/>
    <path d="M201.9,163.9c-.5-.2-.9-.5-1.2-.7,0,0,.2-.3.2-.3.4.2.8.5,1.2.7,0,0,0,.2-.1.3Z"/>
    <path d="M235.3,161.7c0,.1,0,.2,0,.3,0,.3-.1.5-.2.8-.2-.2-.5-.4-.5-.5,0-.3.3-.5.6-.6Z"/>
    <path d="M86.5,97.2c-.3-.2-.5-.4-.8-.6.1-.1.3-.3.3-.3.3.2.6.4.9.6-.1.1-.2.2-.4.2Z"/>
    <path d="M307.5,192.4c-.2.2-.5.3-.8.4,0-.1,0-.2-.1-.3.3,0,.6-.1.9,0Z"/>
    <path d="M193.3,170.2c-.2-.1-.4-.2-.5-.3.3,0,.6,0,.9.2.1,0,.2.3.2.4-.2,0-.3-.2-.6-.2Z"/>
    <path d="M327.2,305.3c.2,0,.4,0,.5,0-.2.3-.3.6-.5.8,0-.2,0-.5,0-.8Z"/>
    <path d="M251.5,126.3c-.2,0-.3,0-.5-.1.2-.1.4-.2.5-.4,0,.1,0,.2,0,.5Z"/>
    <path d="M238.5,203.4c-.2.1-.4.2-.6.3,0-.2.1-.5.2-.7.1.1.3.2.4.4Z"/>
    <path d="M126.7,192.7c-.1.2-.3.3-.5.4,0-.1-.1-.2-.2-.3.2,0,.4-.1.7-.1Z"/>
    <path d="M289.6,192.8c.1.2.1.5.1.7,0,0-.2,0-.2,0,0-.2,0-.5.1-.7Z"/>
    <path d="M287.7,293.5c.2-.2.4-.3.6-.4,0,.1,0,.4,0,.4-.1,0-.3,0-.6,0Z"/>
    <path d="M285.9,86.2c-.2-.1-.4-.2-.5-.3.2,0,.3-.1.5-.2,0,.2,0,.3,0,.5Z"/>
    <path d="M324,208.4c-.2,0-.4,0-.7,0,0-.1,0-.2,0-.3.2,0,.4.1.6.2Z"/>
    <path d="M144.5,292.8c.1-.1.3-.2.4-.3,0,.1,0,.2.1.3-.2,0-.3,0-.6,0Z"/>
    <path d="M286.4,83.8c0-.2,0-.4,0-.5.1,0,.3,0,.3,0,0,.2,0,.4,0,.6,0,0,0,0,0,0,0,0,0,0-.1-.1Z"/>
    <path d="M323.2,325c-.2.1-.4.2-.6.2,0-.1,0-.2,0-.3.2,0,.5,0,.7,0Z"/>
  </g>
</svg>