<?xml version="1.0" encoding="UTF-8"?>
<svg id="Layer_1" data-name="Layer 1" xmlns="http://www.w3.org/2000/svg" viewBox="0 0 308.25 276.96">
  <path d="M54.44,5.21c.2.2-.2,2.26,0,2.46s2.11-.18,2.87,0c3.67.86,10.31,10.93,11.9,14.36,2.14,4.63,2.4,6.51,3.28,11.49.06.31.78.52.82.82.27,2.2.31,7.7,0,9.85-.04.3-.76.5-.82.82-.15.76.18,1.78,0,2.46-.39,1.48-1.77,4.21-2.46,5.75-3.14,6.96-7.29,11.45-13.54,15.18-3.15,1.88-7.49,4.29-10.67,4.92-.84.17-1.95-.11-2.87,0l13.13,43.5,105.44-9.03c2.01.55,1.05,6.48,1.23,8.62.18,2.14,1.48,6.9,1.64,9.03.28,3.69-.27,5.45.82,9.03.95,3.13-2.17,2.52-3.69,2.87-3.56.83-5.34.55-9.03.82-21.36,1.59-43.48,4.59-64.82,6.57-6.35.59-12.84.44-18.87,1.64-2.19.44-3.7-1.15-2.87,2.87.56,2.74,2.64,6.3,3.28,9.03.18.77-.21,2.67,0,2.87.33.33,8.01.09,9.44,0,12.81-.83,26.56-3.15,39.39-4.1,6.84-.51,14.13-.15,20.51-1.64,2.48-.58,5.62,2.55,9.85,1.64.9-.19,3.01-2.39,3.28-2.46,1.05-.29,2.85.19,4.1,0,11.59-1.72,24.33-2.17,36.1-3.28,1.36-.13,5.54-.28,6.56,0s1.06,1.74,1.23,2.05c1.07,1.92,2.23,3.82,3.28,5.75,10.48,19.14,21.7,38.46,32,57.45,3.78,6.98,7.21,15.71,11.49,22.16.3.45,2.67,2.87,2.87,2.87s2.37-2.2,3.28-2.46c13.26-4.64,26.15-10.27,38.57-15.59l5.74-2.46c.53.72,1.64,1.36,2.05,2.05.11.18-.12.57,0,.82,2.99,6.44,4.95,12.76,7.38,19.7.15.43,1.57,2.15,1.64,2.46.84,3.71-.46,2.44-2.05,2.87-2.7.74-6.22,2.99-9.03,4.1-19.96,7.89-38.86,14.55-58.26,22.98-1.59-.41-2.57,1.27-4.1.82-1.01-.3-1.05-1.73-1.23-2.05-.39-.71-1.29-1.77-1.64-2.46-5.59-11-12.12-22.71-18.05-33.65-9.73-17.93-18.86-35.79-29.54-53.35-.24-.39-.59-2.11-.82-2.46-.18-.28-1.08-1.19-1.23-1.23-1.25-.34-6.51-.13-8.21,0-.29.02-.53.8-.82.82-9.63.79-19.09.85-28.72,1.64-27.86,2.3-56.38,5.87-84.52,7.39-2.33.13-9.8.46-11.49,0-.33-.09-.79-.95-1.23-1.23l-.82-4.1c-5.91-17.43-10.75-35.13-16.41-52.53-3.24-9.96-7.4-19.8-9.85-30.37-.09-.38-1.29-.75-.82-1.64h1.64l-2.46-3.28c-.29-.85-.65-4.34-.82-4.51-.15-.15-1.49.15-1.64,0-.32-.32-1.03-6.63-1.64-8.62-3.54-11.61-7.56-23.55-11.49-35.29C.72,43.88-.61,37.49.28,30.24c.04-.3.76-.51.82-.82.33-1.87.23-3.83.82-5.75s2.16-4.79,3.28-6.57c.81-1.28,2.44-1.18,3.28-2.46-.87-1.36-2.15.03-2.87.41-.55.29-2.68,1.87-2.87,1.64-.08-.09-.09-2.38,0-2.46.15-.15.84.22,1.23,0,.69-.38,2.12-2.46,2.46-2.46.38,0,1.9,2.3,2.46,2.46,1.03.3,1.53-1.24,2.87-.82.42-1.34-1.12-1.84-.82-2.87.07-.25,3.13-3.27,3.69-3.69,3.19-2.39,7.64-3.69,11.49-4.92,4.56-1.46,10.15-2.44,15.59-1.64,1.06.15,6.67,1.85,8.21,2.46,1.24.49,2.45,2,3.28,2.46.39.22,1.08-.15,1.23,0ZM29,21.62c-1.47.6-2.48-1.65-2.87-1.64-.25,0-1.12,1.29-1.64,1.64-1.65,1.11-3.52,2.23-4.92,4.1l-4.51,1.64c.78,1.71,1.48,3.95,3.69,3.28.31-.09.47-.66.82-.82.79-.37,2.72-1.22,3.28-1.64,2.09-1.56,4.45-4.51,6.15-6.57ZM14.23,27.37c-.63-.52-2.3.27-1.64.82.63.52,2.3-.27,1.64-.82ZM24.9,106.16c1.44-.24,2.15,1.28,3.69.82,1.03-.3,3.01-3.57,2.87-4.92l-2.87,3.28-3.69.82ZM153.73,120.94c-.09-.09-2.37-.09-2.46,0-2.18,2.18,4.65,2.18,2.46,0Z"/>
  <path d="M263.68,104.52c.17.14.79-.18,1.23,0,.56.23,1.9,1.41,2.46,1.64.44.18,1.09-.14,1.23,0,.08.08.25,1.04.82,2.05,5.35,9.44,10.41,16.46,13.95,27.08,6.58,19.78,7.69,39.57,2.46,59.91-2.48,9.63-6.93,19.48-12.31,27.91-2.37,3.71-4.53-1.56-6.97-2.05-1-1.95-6.56-4.66-6.97-6.16-.78-2.84.5-8.89,0-12.31-.08-.55-1.43-3.35-1.64-4.1-.4-1.4-1.81-6-1.64-6.57.52-1.7,2.22-5.24,2.46-6.57.22-1.24-.19-2.83,0-4.1,1.53-10.2,1.35-16.96-.82-27.08-5.07-23.65-18.52-40.05-39.8-52.12-6.51-3.69-13.86-6.14-20.51-7.39-5.02-.94-9.58-.47-14.77-.82-9.97-.68-21.93-.19-32,1.64-.24.04-.83,1.29-2.46.82-1.8-.52-.95-3.24-1.23-4.51-.12-.58-1.21-2.62-1.64-4.1-.14-.47-2.58-1.93-1.64-2.87.11-.11,2.08.11,2.46-1.23.59-2.04.91-3.72,1.64-5.75.78-2.14,3-6.69,4.1-8.21.58-.8,3.8-4.09,4.51-4.51.16-.1,1.54-.8,1.64-.82,1.15-.26,2.83.19,4.1,0,.31-.05.51-.78.82-.82,30.38-4.25,60.31,5.57,84.52,23.8,3.19,2.4,16.79,12.64,16.82,16,0,.2-1.23.9-.82,1.23Z"/>
  <path d="M29,21.62c-1.7,2.06-4.07,5.01-6.15,6.57-.56.42-2.49,1.28-3.28,1.64-.35.16-.52.73-.82.82-2.21.67-2.91-1.57-3.69-3.28l4.51-1.64c1.41-1.87,3.28-2.99,4.92-4.1.52-.35,1.39-1.64,1.64-1.64.39,0,1.4,2.24,2.87,1.64Z"/>
  <path d="M24.9,106.16l3.69-.82,2.87-3.28c.14,1.35-1.84,4.62-2.87,4.92-1.54.46-2.26-1.06-3.69-.82Z"/>
  <path d="M153.73,120.94c2.18,2.18-4.65,2.18-2.46,0,.09-.09,2.37-.09,2.46,0Z"/>
  <path d="M14.23,27.37c.66.55-1.02,1.34-1.64.82-.66-.55,1.02-1.34,1.64-.82Z"/>
</svg>