<?xml version="1.0" encoding="UTF-8"?>
<svg id="Layer_1" data-name="Layer 1" xmlns="http://www.w3.org/2000/svg" viewBox="0 0 377.17 389.93">
  <path d="M223.05,2.54l-5.4.94c2.31,8.85,1.55,20.95.87,30.35-1.68,23.17-2.58,46.2-3.29,69.54-.12,3.9-3.18,10.31-2.96,12.66.1,1.11,3.2.73,3.48,2.2.19,1-1.33,3.13-.81,4.22,2.68,5.61,6.8-2.5,8.75-5.64,12.59-20.28,19.9-44.04,29.28-65.49,9.6-7.91,11.3-28.76,26.25-27.2,1.43.15,16.19,5.12,16.87,5.7s.06,3.33.88,4.27c1.74,2,4.84,2.18,5.71,5.79,3.34,13.87-12.03,30.18-18.51,40.78-2.56,4.2-3.67,9.51-6.82,14.47-5.91,9.32-13.29,12.57-15.94,24.95-.39,1.81,1.16,3.94,1.01,4.09-.46.48-6.37.06-8.49,2.33-2.13,2.27-9.03,16.31-5.81,19.19,1.38,1.23,28.55-17.66,31.28-19.69,16.01-11.86,31.19-25.76,46.14-37.06,24.49-18.5,32.61,6.9,38.1,28.14-4.48,1.14-9.75,10.74-11.65,11.56-2.26.98-4.96.64-11.04,3.51-17.34,8.19-33.15,18.2-49.53,27.7-8.5,4.93-20.58,8.58-27.21,16.23,15.3-4.1,31.2-2.69,46.92-4.05,13.51-1.16,12.67-3.54,27.41-1.36.86.13.54-3.84,4.1-4.4,3.17-.49,7.72,1.32,11.88.94,8.74-.8,13.13-7.91,19.57,3.66,3.72,6.69,5.02,33.06-1.49,37.57-8.39,5.81-25.16,1.79-34.06,1.56-15.18-.39-29.23-.98-44.55-1.96-34.46-2.2-69.67-1.38-105.91-1.62-17.99-.12-44.41,4.12-61.83-.69-3.92-1.08-3.09-4.74-4.31-4.65-2.46.18-4.57,3.15-8.81,3.74-20.25,2.79-54.02-1.02-75.32-1.99-32.44-1.47-43.79,5.32-34.85-36.23,12.9-9.22,24.08-3.66,37.14-1.68,16.43,2.5,32.78,2.54,49.5,4.16,3.03.29,9.46,3.7,9.88,3.39.29-.22.59-4.06,3.76-6.16,3.3-2.2,8.54-2.68,12.47-2.77L27.19,109.84c-4.29-4.24,1.58-27.09,9.76-21.42l-1.78-5.34c4.02-1.77,4.43,6.87,8.94,3.54.44-.32-3.58-7.47-1.77-10.72,17.78,1.27,16.99,6.32,12.52,21.47,6.18-1.72,4.3-12.37,10.83-10.02,7.43,2.68,27.87,16.58,35.37,21.93,6.68,4.77,15.81,15.84,23.26,19.8,2.47,1.31,13.87,3.27,14.64,4.08.35.36-2.46,4.12-1.75,5.16.29.43,7.44,3.56,8.86,5.56,5.41-14.53-1.81-9.24-3.33-10.86-.48-.51-.78-9.14-3.3-13.71-4.48-8.15-12.28-18.9-17.62-27.2-6.89-10.69-10.63-18.92-17.05-30.82-1.4-2.59-7.67-7.82-8.4-11.67-1.01-5.27,9.17-8.9,5.11-13.71-4.53-5.37-9.39.53-9.94.57-9.48.54,4.51-6.71,4.93-7.08,3.09-2.64,4.67-8.09,10.27-7.18.53.41-6.96,8.44-.88,10.7,4.63,1.72,5.64-6.69,9.82-3.54,1,.75-3.78,3.7-3.58,5.33,2.29,2.08,9.51-6.09,8.98-8.91l3.56,7.14,8.92-5.36c-1.61,8.23,5.11,12.59,7.95,18.07,9.72,18.76,19.25,38.22,29.5,56.68,2.24,4.03,1.36,15.15,7.91,12.67,4.62-1.75,7.23-17.08,7.38-22.07.2-6.52-3.1-13.07-3.62-18.75-2.01-22.23-2.14-44.49-2.7-66.8,9.5-10.55,16.27-3.89,26.07-3.99,6.14-.07,14.63-7.03,16.99-.88Z"/>
  <path d="M89.47,304.3c7.6,7.49,32.05,24.44,41.73,28.96,2.06.96,15.03,5.62,15.86,5.53,2.07-.24,1.95-5.16,3.52-5.25,2.7,7.1,19.78,10.4,26.92,10.83,19.72,1.19,60.93-6.05,77.52-15.5,7.4-4.22,5.18-4.18,12.88-7.04,11.34-4.2,13.27-12.58,19.89-16.54,2.41-1.44,7.05.39,8.62-.38.26-.13-1.56-2.81-.07-5.8.98-1.97,14.27-16.29,17.44-20.85,1.74-2.5.62-5.12.84-5.27,11.8-8.1,7.5-12.51,14.48-23.93,10.18-16.68,19.57-1.27,27.6-7.34,1.26-.96,2.08-4.71,3.22-4.75.63-.02,6.77,8.91,7.11,10.47.39,1.83-5.21,25.16-6.25,27.47-2.22,4.96-10.98,22.22-14.87,27.62-2.24,3.11-19.82,22.81-20.44,24.33-.61,1.49,1.03,3.43.28,4.89-2.04,3.94-17.47,18.69-21.18,17.85-4.68-2.16-1.74-11.92-8.15-10.68-.6,5.31,6.26,10.55,3.2,15.76-.61,1.03-17.73,11.66-20.16,12.92-13.31,6.87-63.35,22.8-77.06,22.32-14.92-.53-42.55-1.4-56.82-5.19-13.11-3.48-27.44-17.02-42.42-15.41-.21-.13,1.83-2.87,1.56-3.3-.73-1.14-19.67-10.26-23.68-13.1-22.67-16.03-65.27-66.2-71.81-92.69-1.71-6.92-4.79-22.58,2.75-25.97,2.95-1.33,30.45,1.88,33.94,3.57,4.68,2.27,14.52,27.64,18.17,33.71,4.92,8.18,19.04,26.49,25.39,32.75Z"/>
</svg>