<?xml version="1.0" encoding="UTF-8"?>
<svg id="Layer_1" xmlns="http://www.w3.org/2000/svg" version="1.1" viewBox="0 0 401.2 404.2">
  <!-- Generator: Adobe Illustrator 29.3.1, SVG Export Plug-In . SVG Version: 2.1.0 Build 151)  -->
  <g id="Shape_12">
    <path d="M243.2,3.8c1.4-.6,2.1-.5,2.9.5,0,.1,0,.3.1.5-.1,0-.3,0-.4,0-.4,0-.7-.1-1.1-.1-.1,0-.2,0-.3.1.1,0,.2.2.3.3.4.2.7.4,1.1.5.4,0,.9.2,1.1,0,1.4-1.1,3-.7,4.4-.1.9.4,1.8.8,2.8.7,1,0,1.9.2,2.7.8.1.1.3.3.4.3,1.8,0,3.1,1.2,4.5,2,.2.1.6.2.9,0,1-.4,1.9,0,2.7.5.5.3,1,.7,1.6.8.8.1,1.8-.2,1.6,1.2,0,0,.2.2.3.3.8.3,1.8,1.1,2.3.8,1.3-.8.8,1.1,1.7.9.7-.1,1.5.4,2.3.6,0-.2,0-.3.1-.6.7.4,1.6.9,2.2,1.5.6.7,1.5,1,2.3,1.4.9.4,1.7.6,2.2,1.5.1.2.3.6.7.2.3-.4.1-.5,0-.7-.1-.1-.2-.4-.2-.5.2,0,.4,0,.5,0,.3.1.5.3.8.5.4.2.8.6,1.3.6,2.8,0,4.6,1.9,6.6,3.4.9.7,1.4,2,2.8,2.1.2,0,.4.5.5.7.2.5.6.8,1.2.7.2,0,.5,0,.7-.1-.1-.2-.3-.4-.4-.5-.2-.2-.3-.3-.5-.4.2,0,.5-.1.7,0,.5.1.9.3,1.3.5.2,0,.3.3.4.5-.2,0-.4,0-.7,0-.1,0-.3,0-.4,0,0,.2,0,.5,0,.5.4.2.9.5,1.3.4,1.8-.5,3.1.6,4.4,1.5.9.6,2,1.1,3,1.6.4.2.8.3,1.1.6.9.8,1.7,1.7,2.9,2.2,2,.9,3.4,2.6,5.5,3.4.4.1.8.4,1,.8,1,1.8,3,2.1,4.4,3.3-.4.1-1.1,0-.7.7.3.5.9.9,1.4,1.3.3.2.7.4.9.6.5,1.3,1.9,1.3,2.7,1.2,1.3-.2,2.1.5,2.1,1.2.1.9.7,1,1.1,1.2,1.2.6,2.6,1,2.5,2.8,0,.3.5.7.8,1,.7.5,1.5,1,2.2,1.5.9.7,1.7,1.4,2.5,2.1,1.7,1.6,3.4,3.1,5.1,4.7.5.5.4,1.5,1.3,1.7.2,0,.4.2.5.2.9-.3,1-.3,1.3.1.6.8,1.2,1.5,1.7,2.3s1.8,2.2,2.7,2.8-.5,1.2.5,1c.8-.1.6.8,1,1.1.3.3.7.6,1,.9.4.4.6.9,1,1.3.1.2.5.1.6.3.9.9,2.1,1.6,2.6,2.7.4,1,1.1,1.6,1.6,2.4-.6,0-.8.3-.6.7.6,1.3,1.8,2.1,2.8,3.1,0,0,.5,0,.5,0,0-.2,0-.5,0-.6-.8-1-1.7-2.1-2.5-3.1.2,0,.6,0,.7.1.6,1.5,2.4,2.1,2.8,3.8.2.7.9,1.3,1.4,1.9,1,1.1,1.6,2.4,2.2,3.7.4.9,1,1.8,1.8,2.5,1,.9,1.3,2.3,2.5,3,.1,0,.2.5.1.7-.1.7.1,1.1.8,1.4.1,0,.2.3.3.4-.2,0-.3,0-.5.1-.2,0-.3,0-.5.1.1.2.2.4.4.5.2.1.5,0,.7.1.2,0,.5.1.7.2-1,.6,1.2.7.2,1.3,0,0,0,.4.2.7,0,.2.1.3.2.4,0-.2.1-.3.2-.5,0-.2,0-.4.1-.5.2.1.5.2.5.4.3,1.1.6,2.3.9,3.4,0,.2,0,.5,0,.5,1.9.4.9,2.2,1.5,3.2,0,.1.2.3.2.4,0-.2.1-.3.1-.5,0-.2,0-.4,0-.6,0-.1.2-.2.2-.4,0,0,.2.2.3.3.2.5.4,1.1.6,1.6.3.8.4,1.8.9,2.5.7,1.1,1.1,2.2,1.4,3.4.2.8.7,1.6,1.3,2.3.3.4.7,0,.6-.6.8.3.3,1,.4,1.5.1.8,0,1.7,1.2,1.9.3,0,.6.8.7,1.3.1.7,0,1.4,0,2.1,0,.2,0,.5.1.7.2-.1.4-.3.5-.5.1-.2.2-.4.3-.6,0,.2.2.5.2.7.1,1.1,0,2.2,0,3.3,0,.6.2.9.3,1.3.1.4.5.8.8,1.2.4-.5,0-.8-.1-1.3-.2-.5,0-1.6.2-1.6,1-.1,0,1.1.8,1.4.2,0,0,1.1,0,1.6,0,.9-.2,1.8.9,2.3.1,0,.1.7.1,1,0,.4-.3.8-.3,1.2,0,.7-.3,1.8,1,.8,0,0,.5.5.4.5-.7,1.4-.3,2.4.7,3.4.2.2,0,.7,0,1.1,0,.2.2.6.2.6,1.3,0,.9,1.1,1.3,1.7.5.7,0,1.8,1,2.3,0,0,0,.3,0,.5-.2,1.3-.6,2.6-.6,3.9,0,.6.4,1.5.9,1.9,1,.8,1.1.7.7,2,0,.2,0,.5,0,.7,1.3-.4.8.8,1.1,1.2.3.4.4,1.1.6,1.7,0,.3.2.5.3.8-.2-.1-.4-.3-.7-.4-.1,0-.4,0-.4,0-.4.6.2,2.2.9,2.5.3.1.7.2.9.5.3.4,0,.7-.6.5-.2-.1-.3-.1-.4-.1.1,0,.2.1.4.2,0,.2.3.3.3.5,0,.9,0,1.7,0,2.6,0,.2-.1.5,0,.6.5,1.1.9,2.3,1.4,3.4.6,1.2.9,2.4.8,3.7-.1,1.6.1,3.2,1.2,4.5.8,1-.2,1.7,0,2.5-1.1,0-.3.7-.3,1,0,.3.5.6.5.9,0,.5-.2,1.1-.2,1.6,0,.5.3.9.3,1.4.2,2,.3,4,.4,5.9,0,.2,0,.5,0,.5,2.1,1.1.9,2.9.8,4.4,0,.3,0,.7.3.9.5.6.6.9-.2,1.4-.3.2-.4,1.3-.1,1.7.4.7.3,1.2.3,1.9,0,.6.4,1.2.7,1.8.2.4.7.6.7.9,0,.6-.2,1.3-.5,1.7-.8.8-.4,1.8-.4,2.7,0,.7.4,0,.5,0,.3-.3.6-.6.6.2,0,.6,0,1.3,0,1.9,0,.8-.3.4-.7.3-.2,0-.5.4-.5.5.2.4.7.7.7,1,0,.4-.6.8,0,1.2.2.2.3.5.4.8,0,.1,0,.4-.1.5-1,.8-1.1.8-1,1.7,0,.2.1.5.2.7,0-.2.2-.4.2-.7,0-.2,0-.5,0-.7,0-.2.3-.3.5-.5,0,.2.2.3.1.5,0,.6-.2,1.2-.2,1.8,0,.7,0,1.5,0,2.2,0,1,.2,2.1.2,3.1,0,.1,0,.2-.1.3,0-.1-.2-.3-.2-.4,0-.2,0-.5-.2-.7,0-.2-.3-.3-.4-.4,0,.2-.2.4-.2.5,1,1.2-.3,2.6.3,4,.3.5,0,1.6-.4,2.1-.8.9,0,1.8-.3,2.6-.2.5.2.2.5,0,.8-.3.7.4.6.7-.1.4-.6.6-.7,1-.2.4-.1.8-.2,1.3-.2,1.3-.4,2.6-.5,4,0,.2-.6,1.4.6.7,0,.2,0,.5,0,.6-.5.9-.6,1.9-.6,3,0,2.3,0,4.8-.8,7-.7,2.2-1.1,4.3-1.1,6.6,0,.6-.4,1.2-.6,1.8-.2.7-.4,1.4-.5,2.1,0,.1,0,.3,0,.4-1.1,2-.8,4.4-1.5,6.5-.1.4-.5.9-.3,1.2.6.9-1.4.7-.7,1.7.2.2-.5,1-.8,1.5,0,.2-.4.3-.4.4.2,1.4-.8,2.5-.9,3.8,0,.8,0,1.6-.4,2.3-1.1,2.4-1.6,4.9-2.3,7.4-.6,1.9-1.5,3.7-2.4,5.5-.7,1.5-1.1,3.2-1.7,4.8-.3.9-.5,1.8-.9,2.7-1.2,2.2-2.7,4.2-3.6,6.5-.9,2.6-2.9,4.6-3.6,7.3-.2.7-.8,1.2-1.2,1.8-2.1,3.2-4.2,6.4-6.4,9.6-2.1,2.9-4.3,5.7-6.4,8.6-.2.3-.4.6-.5.9-1.4,2.5-3.7,4.3-5.4,6.6-1.5,2.1-3.7,3.6-4.9,6,0,.2-.3.3-.4.4-3.4,3.5-6.6,7.1-10.2,10.5-3,2.9-6.4,5.5-9.6,8.1-2.5,2-4.9,4-7.5,5.9-1.7,1.3-3.5,2.6-5.3,3.8-2.8,1.9-5.5,3.8-8.3,5.7-2.1,1.3-4.3,2.6-6.4,3.8-4.6,2.6-9.3,5.2-14,7.8-1.9,1-3.8,1.8-5.8,2.7-1,.5-2.1.8-3.1,1.3-3.5,1.7-7,3.2-10.7,4.5-3,1-5.8,2.2-8.8,3.2-2.2.7-4.5,1.2-6.7,1.8-.2,0-.4.2-.6.3-.4.2-.6,0-1.6-.2-.8-.3-1.6,0-2.2.6-1,1-2.2,1.2-3.5,1.3-.6,0-1.2.3-1.8.4-2.4.3-4.7,1.1-7.2,1.2-1,0-2.2,0-3,.5-1.2.7-2.4.6-3.6.6-1.3,0-2.6,0-3.9.6-.9.4-2,.5-3,.5-3.8,0-7.5,1-11.3.9-2.7,0-5.4.5-8.1.7-.8,0-1.8-.6-2.5-.3-1.3.6-2.7-.6-3.9.3-2-1-4.2.2-6.2-.8-.1,0-.3,0-.4,0-1.2.7-2.5-.1-3.7,0-1.3,0-2.6.3-3.8,0-2.1-.6-4.2,0-6.2-.7-1.1-.4-2.4-.3-3.6-.4-3.3-.3-6.5-.9-9.7-1.4-2.5-.4-4.9-1.4-7.5-1.3-1.4,0-2.8-.7-4.3-1.1-.4-.1-.8-.3-1.2-.3-.7,0-1.4,0-2.1-.6-.5-.4-1.5-.4-2.2-.6-2.2-.5-4.4-1-6.6-1.6-1-.3-2-.8-2.9-1.3-1-.5-2.1-.8-3.2-1-.8-.1-1.4-.4-2-.8-.9-.7-1.8-1.3-3-1.1-.2,0-.6-.2-.8-.4-1.3-1.3-3.1-1.5-4.7-1.9-.3,0-.7-.2-1-.4-2.9-1.2-5.8-2.3-8.5-3.9-1.3-.8-2.9-1.1-4.2-1.9-1.8-1-3.4-2.2-5.1-3.3-.8-.5-1.4-1.1-2.3-1.5-2.2-.9-4.3-1.8-5.9-3.6-.3-.4-.9-.5-1.4-.7-1.4-.7-2.9-1.3-4.3-2-.3-.1-.3-.8-.5-1-.3-.3-.8-.4-1.2-.7-1.2-.7-2.3-1.5-3.4-2.3,0,0-.2-.1-.3,0-.9.2-1.3-.3-1.7-1.1-.2-.4-.8-.6-1.2-.9q-.8-.8-1.2-.3c-1.3-.9-2.6-1.8-3.7-2.9-.4-.4-.7-.5-1.1-.6-.4,0-1.1-.3-1.1-.4,0-1.1-1-1.3-1.5-1.4-1-.1-.3-1.2-.9-1.4-.5-.1-1,0-1.5-.3-.5-.3-1-.7-1.4-1.1-.3-.3-.4-.7-.6-1.1-.2-.3-.6-.8-.8-.8-1.6.2-2.3-1-3.3-1.7-1.3-1-2.5-2.2-3.8-3.3-.3-.3-.6-.5-.8-.8-1-1.7-2.2-3.1-3.5-4.1-2.1-1.6-3.7-3.5-5.6-5.4,0-1-.9-1.2-1.3-1.7-1.3-1.5-2.3-3.2-3.8-4.5-2.6-2.2-3.5-5.6-6.1-7.8-1-.8-1.4-2.3-2.1-3.5-.1-.3-.2-.7-.4-.8-2.2-1.2-2.6-3.5-3.7-5.5-.5-.9-.9-2-2-2.6-.7-.3-1.1-1-1-1.9,0-.2-.1-.6-.3-.8-.5-.7-1.1-1.4-1.6-2-1.1-1.3-1.1-1.2-1.5-2.9,0-.2,0-.4,0-.6-1.2-1.7-2.4-3.4-3.6-5.2-.3-.4-.6-.9-.5-1.3.3-1-.4-2-.9-2.3-.7-.4-.6-.9-.8-1.4-.8-1.5-1.4-3-2.2-4.4-.7-1.4-1.4-2.7-2.2-4.1-.8-1.3-1.5-2.7-1.6-4.3,0-.6-.5-1.2-.7-1.8-.5-1.4-.8-3-1.6-4.3-1.1-1.9-1.5-3.9-1.6-6.1,0-1.4-.6-3.1-2.2-4-.2,0-.2-.5-.3-.8-.3-.8-.9-1.7-.7-2.3.2-.9-1-1.2-.5-2.1-.2,0-.5-.2-.7-.3-1.4-.2-1.5-.3-1.5-1.7,0-.8,0-1.5,0-2.3,0-.5.5-1.2.3-1.6-.7-1.7.1-3.7-.8-5.4-.1-.2-.3-.5-.3-.6.9-2.1.1-4-.8-5.9,0,0,.4-.3.6-.4.1.3.2.4.2.6,0,0,.2,0,.2,0-.1-.2-.2-.4-.4-.6-.3-.7-.6-1.3-.7-2-.1-.7,0-1.4,0-2.1,0-.2,0-.3-.2-.5-.9-1.3-.9-2.9-1.3-4.4-.6-2,0-4.3-1.5-6.1-.1-.2,0-.5,0-.7-.1-2.1-.3-4.3-.4-6.4,0-.2-.1-.7-.2-.7-1.1.2-.7-.7-1.1-1.2-.4-.7,0-1.1,0-1.6,0-1.8,0-3.6-.6-5.3-.1-.4-.2-1.2,0-1.4.8-.6.3-1.3.2-1.7-.5-1.3-.4-2.5-.1-3.8.1-.6,0-1.2,0-1.8,0-.5.2-1,.1-1.5,0-1.1-.2-2.2-.3-3.3,0-.4,0-1-.1-1.3-.5-.7-.3-1.2.3-1.6.6-.4.4-.8.2-1.3-.2-.7-.8-1.4,0-2.2.2-.2,0-.6,0-.9-.4-1.8,0-3.5.4-5.3,0-.1,0-.3,0-.4-.3-1.4-.5-2.8.8-3.9-.4-1.4.7-2.6-.2-4.2-.8-1.4-.3-3.4,0-5.1.4-2,1-4,1-6.1,0-1.7.4-3.5.8-5.2,0-.5.5-1,.9-1.3,1.2-1.3,1.8-2.7,2.2-4.4.5-2.3.9-4.6,1.4-6.8.5-2.1,1-4.2,1.5-6.2.5-1.9,1.2-3.8,1.8-5.7s.8-2.5,1.3-3.7c1-2.6,2.1-5.3,3.2-7.8.4-.8,1.1-1.6,0-2.4-.1,0,0-.5.1-.8.6-1.4,1.2-2.7,1.7-4,1-2.3,1.8-4.6,3-6.8,1.1-2.1,2-4.3,3.4-6.2.9-1.2,1.5-2.7,2.2-4,1.1-2,2.3-3.9,3.5-5.8,1.1-1.7,2.2-3.4,3.4-5.1.5-.7,1-1.3,1.5-2,.5-.7.9-1.5,1.4-2.3.8-1.2,1.4-2.4,2.3-3.4,2.1-2.5,3.7-5.3,6-7.7,1-1.1,1.6-2.6,2.7-3.8,1.2-1.3,2.2-2.8,3.4-4.1,2-2.3,4.1-4.7,6.2-6.9s1.7-1.8,2.7-2.7c1.3-1.3,2.5-2.7,3.9-3.9,2.8-2.5,5.6-4.9,8.4-7.3,1.7-1.4,3.4-2.9,5.1-4.3,4.4-3.6,9.1-6.8,13.8-9.9,3.3-2.2,6.8-4,10.2-6s3.5-2,5.2-2.9c3-1.6,6-3.3,9.2-4.5,4.4-1.8,8.5-3.9,12.9-5.7,1.5-.6,2.9-1.5,4.5-1.5.2,0,.5-.2.6-.3,1.3-1,2.9-1,4.3-1.5,2.7-.9,5.5-1.5,8.2-2.4,2.4-.8,5-1,7.5-1.8,1.3-.4,2.8-.6,4.2-.9,2.3-.5,4.5-.8,6.8-1.2s2.7-.4,4-.3c2.1,0,4.1-.5,6.2-.9.7-.1,1.1-.3,1.8,0,.5.2,1.1.1,1.7,0,1.4-.2,2.8-.6,4.3-.7.9,0,1.9-.4,2.6.6.1.2.9-.1,1.3-.3,1.8-.7,3.7-1.2,5.6-.4.3.1.8.2.9,0,.9-1.1,2-.4,3-.4,1.3,0,2.8,0,4-.4.7-.2,1.2,0,1.6.2,1.5.5,3.1.2,4.6.3.4,0,.8-.2,1.2-.4,1.4-.6,2.9-.5,4.4.2.4.2.9.3,1.3.1,1.3-.6,2.7-.2,4-.4,1.5-.2,3-.3,4.4.7.2.1.5,0,.7,0,.3,0,.6,0,1,0h1.7c.6,0,1.1,0,1.7,0,.4,0,1.1-.2.5.6.6,0,1.2-.1,1.6.2,1.1.8,2.3,0,3.4.3,2,.4,4.1,1.1,6.2.4,1.1.6,2.3.3,3.5.4.6,0,1.1.4,1.6.6-.6.1-1.2.2-1.7.2,0,0,0,.3,0,.2.6,0,1.2-.1,1.7-.2,0,0,0-.1,0-.2M103.8,169.7h-.4c.1,0,.2.1.4.4.1,0,.2,0,.4,0-.1,0-.2-.1-.4-.4M16.4,241.9c-.1,0-.2,0-.4,0,.1,0,.2.1.4.4,0,.2,0,.4,0,.5,0,.1.1.3.2.4,0,0,.2-.2.1-.3,0-.3-.2-.5-.4-1M87.6,118.4c-.2.1-.3.2-.5.3.5.5,1.3,1,1.3,1.5.2,1.6,1.7,2.4,2.2,3.9.1.4.7.7,1.1,1.1.1,0,.3,0,.5,0,0-.1,0-.3-.2-.4-.3-.4-.6-.8-.8-1.2-.1-.2,0-.6,0-.9.2.2.5.3.7.5,1.1,1.7,2,3.4,3.1,5,.6.8,1.4,1.5,2.1,2.1,1,.9,2.1,1.8,3.1,2.7,1.3,1.2,2.5,2.5,3.8,3.8,0,0,.2.3.1.3-.6.8.2,1.1.6,1.5.7.8,1.5,1.5,2.3,2.3.2.2.3.5.4.8,0-.3.1-.6.2-.9,0-.2.1-.4.2-.6,0,.2,0,.4.2.5.9,1.3,1.6,2.7,2.7,3.8,1.2,1.2,1.8,3.2,3.8,3.6.2,0,.6.4,0,.5,0,0-.1.3-.1.4,2.3,1,2.6,3.7,4.5,5,0,0,.2.2.2.3-.2,1.7,1.2,2.8,1.8,4.2,1.2,2.7,2.9,5.1,4.7,7.4,1.2,1.5,2.4,3.1,3.9,4.4,1.6,1.4,2.8,3.3,4.5,4.3,2.4,1.5,3.2,4.2,5.3,5.9.2.2.3.5.4.8.2.4.4.9.6,1.3.2.4.4.9.6,1.3.8,1.7.3,3.5,1,5.3.8,2.1.8,4.4,1.9,6.5,0,.1.1.2.1.3-.4,1.5,1.2,2.3,1.2,3.7,1.7,1.4,2.1,3.6,3.6,5.2,1.5,1.5,3.3,3,4.1,5.1,0,.2.2.4.4.4,1.2.2,1.6,1.3,2.4,2,1.9,1.6,2.3,3.9,2.8,6.1.4,1.9.9,3.9,1.1,5.8.2,2.1.2,4.2,0,6.2-.2,1.7-.4,3.4-1,5.1-.5,1.5-.6,3.1-1,4.5-1.1,3.4-2.5,6.7-4.3,9.9-1.8,3-4,5.7-6.6,7.9-2.9,2.5-6.5,3.7-9.9,5.1-1.4.6-2.7,1.1-4.1,1.5-3.5,1-6.9,2-10.4,3-3.3,1-6.5,2.1-9.8,3.1-4.4,1.5-8.5,3.4-12.4,6-2.4,1.6-4.9,3.2-7.5,4.4-2.7,1.3-5.5,2.2-8.5,2.1-1,0-1.9-.3-2.9-.4-2.4-.2-4.4-1.2-6.5-2.4-.7-.4-1.5-.7-2.2-1.1-.4-.2-.9-.3-1.3-.6-2.8-2.2-5.6-4.3-8.1-6.8-2-2.1-3.6-4.4-4.9-7-.4-.8-.9-1.7-1.1-2.6-.5-2-.8-4-1.2-6,0-.3-.4-.8-.3-.9.8-1,0-1.6-.4-2.2-.2-.5-.7-.9-.8-1.4-.3-2.1-1.6-3.7-2.6-5.4-1.2-1.9-3-3.4-4.6-5-2.1-2.1-4.3-4-6.8-5.7-2.4-1.6-4.5-3.7-6.6-5.8-1.3-1.3-2.3-3-3.4-4.5-.9-1.2-1.8-2.5-2.2-4.1-.2-.9-.9-1.8-1.6-2.3-.6-.4-.8-.7-1-1.3-.1-.5-.9-.9-.7-1.6.2-.8-.3-1.3-.8-1.5-1.1-.5-1.5-1.3-1.9-2.3-.4-.9-1-1.8-1.5-2.6-.2-.3-.4-.9-.7-.9-.9-.2-1.2-.9-1.7-1.4-.5-.6-.9-1.5-1.5-1.8-1.1-.5-.8-.9-.1-1.4,2.1-1.6,4.2-3,6.3-4.6,2.3-1.7,4.6-3.4,6.8-5.2,1.8-1.5,3.6-3,5.4-4.6,2.1-1.8,4.2-3.7,6.3-5.5.6-.5.3-1,.2-1.3-.7-1.3-1.6-2.4-2.1-3.7-.4-1-.8-2-1.4-2.8-1.3-1.8-2.6-3.6-3.6-5.6-.6-1.2-1.4-2.2-2.1-3.3-1.7-2.4-3.6-4.6-5.2-7-1.7-2.5-3.4-5-5.4-7.3-.8-1-1.6-1.9-1.9-3.2-.2-.8-.4-.6-.9-.2-1.1,1-1.1,2.4-1.4,3.6-.7,2.7-.8,5.5-1.7,8.1-.8,2.3-.8,4.7-1.3,7.1-.4,1.9-.4,4-.9,6-.2.8-.5,1.6-.3,2.3.3,1.3,0,2.5-.2,3.7-.2,1.7-.7,3.4-.7,5.2,0,.4,0,.7-.1,1.1,0,.4-.4,4.7-.3,5.1.2.9,0,1.8-.2,2.7-.2.9.2,1.9.3,2.9,0,0,0,.2,0,.2-.8.7-.1,1.5-.3,2.2-.1.9-.1,1.9-.1,2.8,0,.5.7,1,0,1.6-.4.4.2.9,0,1.6-.3,1.3-.3,2.8,0,4.2.4,2.4.7,4.7.7,7.1,0,.4-.1.9,0,1.3.7,1.9.8,3.8.8,5.8,0,.4.2.8.3,1.2.4,1.5,1.1,3,1.1,4.5,0,1.1-.2,2,.5,3,.1.2.2.7,0,.9-.7.8-.2,1.4,0,2.2.2.8.4,1.7.4,2.5,0,.7.1,1.3.9,1.5,1,.4.4,1.6,1.1,2.3,0,0-.3.6-.5.9-.5.8-.4,1.6.4,1.9.7.2.6.7.5.9-.8,1.3.1,2.5.3,3.6.1,1.1.9,2,1,3.2.1,1,1.6,1.8.7,3.2,0,0,.2.2.2.3.5,2,2.5,3.5,2.1,5.8,0,.2.3.5.4.8.4.8.9,1.6,1.1,2.4.4,3.1,2.5,5.6,3.2,8.6.2.7.8,1.2,1.1,1.8.9,2.4,1.9,4.7,3,7,1.3,2.8,2.9,5.4,4.4,8.1.6,1,1.2,2,1.8,3.1.7,1.4,1.3,2.8,2,4.1,1.1,2,2.4,3.9,3.6,5.9.5.9.7,2.1,1.4,2.8,1,1,1.9,1.9,2.6,3.1.2.3.6.4.9.6-.2.2-.5.3-.6.6,0,.1.1.5.3.6.3.3.8.4,1,.7,1.7,1.9,2.9,4.3,4.9,6,.1.1.2.3.3.5,1,1.4,2,2.8,3.1,4,1.9,2.2,3.9,4.2,5.9,6.3,1,1,2,1.9,2.9,3,.6.7,1.1,1.5,1.8,2.1,1.4,1.3,3,2.5,4.2,4,.7.8,1.5,1.3,2.3,1.9.9.7,1.8,1.4,2.7,2.2.7.6,1.3,1.2,1.9,1.8.7.7,1.6,1.3,2.2,2.1.7.9,1.5,1.7,2.3,2.4.5.4,1.1.6,1.7,1,1.4.9,3,1.5,3.8,3.1,2.2.7,3.5,2.7,5.5,3.7.5.2.8.8,1.2,1.2.3.3.6.7,1,.9,1.6.7,3,1.7,4.4,2.6,1.6,1.1,3.3,2.3,5,3,.9.4,1.6.8,2.3,1.3,1.3.9,2.6,1.9,4.1,2.6,1.8.8,3.5,1.9,5.3,2.9,1.5.8,3,1.7,4.5,2.4,2.4,1.1,4.9,2,7.3,3.1,2.4,1,4.7,2.1,7.1,3,4,1.5,8.1,2.8,12.2,4.2.4.2.9.3,1.4.4,2.8.7,5.5,1.4,8.3,2.1,2.3.6,4.6,1.2,6.9,1.7,2.5.5,5,.7,7.5,1.2,2.8.5,5.7.9,8.5,1.1,1.5.1,3,0,4.4.4,2.3.6,4.7,0,6.9.7,6.9-.2,13.9.3,20.8-.3,3.2-.3,6.4-.5,9.6-.8,2.9-.3,5.8-.6,8.7-1.2,2.6-.5,5.2-.7,7.7-1.2,3.5-.7,7-1.4,10.5-2.3,4.1-1.1,8.2-2.4,12.2-3.7,2.4-.8,4.7-1.9,7.1-2.7,4-1.5,7.9-2.9,11.7-4.9,2.9-1.4,5.8-2.8,8.7-4.3,5.3-2.8,10.5-5.8,15.5-9.2,2.1-1.4,4.3-2.7,6.3-4.2,2.6-1.9,5-4.2,7.6-6,4.2-2.9,7.7-6.5,11.6-9.8,1-.8,1.7-2,2.6-2.9,1.5-1.4,3.1-2.7,4.5-4.2,2.2-2.4,4.2-4.9,6.2-7.3,1.6-1.9,3.2-3.7,4.9-5.6.1-.1.1-.3.2-.5,1.3-1.7,2.5-3.6,4-5.2,1.4-1.6,2.5-3.4,3.6-5.2,1.3-2.2,3-4,4.1-6.3.7-1.5,1.7-2.9,2.8-4.2,1.2-1.3,1.6-3.1,2.6-4.5.5-.7,1-1.4,1.1-2.2.2-.8.5-1.4.9-2.1.8-1.5,2.5-2.7,2.2-4.8,0-.3.3-.7.5-.9,2.1-2.2,3-5,4-7.7.8-2.3,2-4.4,2.6-6.8.6-2.5,2-4.9,3.5-7.1.2-.3.4-.7.4-1-.2-1,.4-1.4,1.2-1.8.5-.2,1-.5,1.6-.8.2-.1.4-.2.7-.3-.2,0-.4-.2-.6-.2-.6,0-1.2.2-1.8.3-1.6.3-3.1-.2-4.4-1.2-.2-.2-.5-.6-.4-.7.2-.3.5-.6.8-.6,1.5-.3,3-.5,4.5-.8.7-.1,1.5-.2,2.2-.3-.8,0-1.6-.1-2.4-.1-1.1,0-2.2-.2-3.3.3-.8.4-1.8.4-2.7.4-.4,0-.7-.4-1.1-.6.2-.3.3-.6.6-.9.1-.2.5-.2.6-.3.5-2.6,2.6-3.1,4.6-3.5.8-.2,1.8,0,2.2-.5.5-.5.3-1.6.4-2.4,0-.1.2-.2.2-.3.6-1.9,1.4-3.8,1.6-5.8.3-2.5.6-5,1.6-7.4-.6-1.6-.3-3.2.4-4.7-.7-.9,0-1.5.4-2.2.1-.2.4-.6.3-.8-.5-1.3,0-2.6.2-3.9.2-2.2.7-4.5.7-6.8,0-.6.4-1.3.3-1.9,0-2,.4-3.9-.2-5.9,0-.2-.2-.4-.1-.5.8-1,.4-2.1.3-3.1,0-1.1.5-2,.1-3.1-.3-1-.2-2.1-.2-3.1,0-.1,0-.3,0-.4.9-.8.6-1.8.3-2.7,0-.3-.1-.6,0-.9.1-.9,0-1.8-.1-2.7,0-.9-.2-1.7-.3-2.6-.2-1.4-.8-2.8,0-4.2,0-.1,0-.3,0-.5-.2-1.8-.5-3.6-.7-5.4-.3-2.3-.5-4.6-.8-6.9,0-.8-.2-1.7-.6-2.2-.8-1-.5-2-.4-3,0-.3.3-.9.2-1-.7-.7-.2-1.5-.3-2.2-.1-.6.5-1.7-.9-1.5,0,0-.2-.3-.2-.4-.3-1.1-.7-2.3-1-3.4-.1-.4-.3-1-.1-1.3.8-1.3,0-2.4-.5-3.5-.1-.4-.4-.8-.3-1.2.2-.6.5-1.1-.5-1.3-.1,0-.2-.5-.3-.8-.5-2.4-.7-4.8-2.1-7-.9-1.5-1.2-3.4-1.7-5.2-.1-.3-.3-.7-.4-1-.1-2.4-1.6-4.3-2.3-6.5-.6-1.8-1.7-3.3-2.3-5.2-.7-2.4-2.1-4.5-2.9-6.8-.7-2-1.9-3.8-2.9-5.7-.7-1.3-1.3-2.8-2.5-3.7-.2-.2-.3-.6-.4-1-.7-1.5-1.2-3.1-2.1-4.5-.8-1.4-1.8-2.6-2.3-4.2,0-.3-.3-.6-.5-.9,0-.1-.2-.2-.3-.3,0,.1-.1.3-.2.4-.1.2-.2.4-.3.6-.1-.3-.5-.7-.4-.7.9-.8,0-1.2-.4-1.6-.3-.4-.6-.8-.8-1.2-.6-1.2-1.4-2.3-2.4-3.2-.5-.4-1-.8-1.3-1.4-.3-.6,0-1.5-.5-1.9-.5-.4-1.3-.4-1.5-1.2-.7-2.1-3.3-3.1-3.6-5.5,0,0,0-.1-.1-.1-2.3-.8-2.4-4-4.9-4.6,0,0,0-.1,0-.2-1.3-1.7-2.5-3.3-4.1-4.8-1.8-1.7-3.2-3.8-4.9-5.5-.8-.8-1.2-2.1-2.6-2.4-.4,0-.6-.8-.9-1.3-.3-.4-.6-1.1-1-1.2-1.4-.4-1.4-.3-1.7-.7-.3-.3-.4-.7-.7-1-.6-.6-1.2-1.2-1.9-1.8-.9-.7-2.2-.8-2.6-2-.4-1.3-2.4-.8-2.3-2.4-.1,0-.3,0-.4,0-.3,0-.6,0-.8,0-.9-.8-1.6-1.8-2.6-2.5-1.5-1.2-3-2.5-4.7-3.5-.8-.5-1.6-.9-2.2-1.5-.8-.8-1.1-2.1-2.6-1.9,0,0,0,0-.1-.1-1.1-1.2-2.5-1.9-3.8-2.7-4-2.6-8.1-5.3-12.4-7.4-1-.5-1.9-1.2-3-1.6-1.7-.6-3.4-1.5-4.9-2.5-1.6-1.1-3.4-2.1-5.2-2.6-3.3-1.1-6.6-2.3-9.7-3.9-.4-.2-1-.2-1.3-.5-.2-.1.4-.8-.5-.7-.7,0-1.4,0-2-.7-.5-.6-1.7-.5-2.5-.9-.5-.2-.8-.4-1.3-.2-.5.2-1.4,0-1.1-.7.6-1-.3-.6-.5-.6-.6,0-1.3.5-1.7.3-2.3-.9-4.6-1.6-6.9-2.3-1.2-.4-2.3-.7-3.5-.7-.8,0-1.8.4-2.1-1,0-.1-.8-.2-.8-.1-.6.9-1.1,0-1.6,0-.5-.1-.9-.6-1.4-.7-2.8-.4-5.5-.8-8.3-1.2-1.1-.2-2.2-.6-3.3-.7-1.2-.2-2.4-.3-3.7-.4-1.4-.1-2.9,0-4.2-.4-1.9-.5-3.7-.8-5.6-.7-.9,0-1.8,0-2.7-.5-.6-.3-1.5-.4-2.1-.2-1.1.4-1.9.4-3,0-.9-.3-2-.6-2.9-.4-1.8.4-3.5.4-5.3,0-.7-.1-1.5-.3-2.3-.1-.4,0-.8,0-1.1,0-2.3.6-4.6.6-6.9,0-.3,0-.7,0-1.1.1-1.1.3-2.4,1.2-3.3.8-1.8-.6-3.3.6-4.9.2-.2,0-.5,0-.7.2-.8.6-1.7.5-2.7.5-.7,0-1.3.2-2,.3-1.7.2-3.4.5-5.1.4-1,0-1.8,0-2.6.4-.3.2-.8.3-1.2.4-1.9.4-3.9.8-5.8,1.1-1.3.2-2.6.2-3.8.5-3.3.9-6.5,2.2-10,2.5-1.6,1-3.4,1.4-5.1,1.9-1,.3-2,.2-2.9.4-1,.2-1.5,1.3-2.6,1.5-1.8.4-3.4,1.2-5.2,1.8-2.7.9-5.3,2.1-7.8,3.3-4.2,2.1-8.7,3.7-12.7,6.2-3.4,2.1-7,4-10.4,6.2-2.9,1.8-5.7,3.7-8.5,5.7-2.8,2-5.4,4.1-8.1,6.2-4.4,3.4-8.6,7-12.5,10.9-1.5,1.5-3,2.9-4.4,4.4-2.8,2.9-5.5,5.7-8.2,8.6-.8.9-1.6,1.8-2.3,2.7-1.7,2.2-3.3,4.5-5.2,6.6-1.9,2.1-3.3,4.5-4.9,6.8-1.9,2.7-3.7,5.5-5.5,8.2-.8,1.2-.7,2.3.2,3.4,1.3,1.7,2.6,3.4,3.7,5.1,1.3,2,2.6,4,4.3,5.6.3.3.4.9.6,1.3.6.9,1.1,1.9,1.8,2.7.6.7.6.6,1.2,1.6.3.5,1,.8,1.1,1.2.2,1.3,1.1,2.1,1.9,2.8,1.2,1.2,1.8,2.4,2,4,0,.3.6.9.7.9,1-.7.9.4,1.2.8.2.2.1.7.3.8.8.2.7.8,1,1.4.2.5,1,.7,1.4,1.1.4.6.6,1.4,1,2.1.4.6,1,1.4,1.6,1.6,1.3.4,0,1.5.8,2,.4.3.6,1.1,1,1.3,1.7.7,1.9,2.3,2.6,3.7.3.5.5.5.8.1.1-.1.3-.4.3-.4.9.6,1,0,1.2-.7.2-.5.4-1,.6-1.5,1.6-3.4,3.2-6.8,4.9-10.2,1.3-2.5,2.6-5,4-7.5,1.3-2.4,2.7-4.7,4.7-6.6,1.3-1.2,1.9-1.1,2.3.7M83.2,251c-1.6-.6-3.2-1.2-4.2-2.7,0,0-.2,0-.3-.2-1.5-1.2-3.3-2.2-4.2-4-.4-.8-.7-1.6-1.2-2.3-1.3-1.9-2.7-3.7-4-5.6-.4-.6-1.2-1.3-1.1-2,0-1.5-1-2.2-1.6-3.2-.9-1.3-2-2.5-2.9-3.7-1.7-2.3-3.3-4.6-5.1-6.8-3-3.7-5.8-7.5-8.6-11.3-.2-.3-.5-.6-.5-.9.1-.8-.4-1.1-.9-1.6-1.7-1.6-2.9-3.6-4-5.6-.2-.4-.4-.9-.5-1.3-.2-1-.4-2-.4-3,0-1-.3-2.1,0-3.1.1-.5-.2-.7-.6-.4-1,.6-1.9,1.3-2.9,1.7-3.3,1.5-5.8,4-8.5,6.3-1.7,1.5-3.1,3.3-4.6,4.9-.2.3-.4.6-.5.9-.5,1.1-.5,1,.6,1.3.7.2,1.6.3,1.9.8.9,1.7,3.1,2.4,3.5,4.2.3,1.2,1.1,2,1.3,3.1.2.8.3,1.7.8,2.3.6.9,1.7,1.5,1.6,2.8,1.6,2.2,3,4.6,5.3,6.2.9.6,1.7,1.3,2.7,1.9.9.6,1.3,1.8,2.7,1.8.2,0,.5.5.7.8.2.2.4.4.6.4.8,0,1.3.3,1.3,1.2,0,.1.3.3.5.4.5.4,1.1.8,1.6,1.2.7.5,1.4,1,2,1.6.8.7,1.5,1.5,2.3,2.3.2.2.3.5.5.7.2.2,1.9,1.9,1.9,2.1,0,.2.1.5.3.6,1.2.8,1.6,2.2,2.5,3.3,0,.1.1.5,0,.5-1,.7-.3,1.4,0,1.8,1,1.1,1.1,2.4,1.3,3.7.3,1.7.6,3.4.9,5.1,0,.5.1,1.1.2,1.6,0,.2.1.4.2.7.5-.7.8,0,.9.2.2.4.3.9.4,1.4.3.9.5,1.9,1,2.6.5.8,1.3,1.3,2,1.9,1.8,1.6,3.6,3.1,5.3,4.7,1.1,1,2.1,2,3.6,2.5.7.2,1.4.7,2,1.2,1,.8,2.5.8,3.2,2,0,0,.1,0,.2,0,1.5-.2,3,.3,4.4-.4,2.9-1.3,6-2.3,8.7-3.9,3.9-2.3,7.9-4.4,11.9-6.3,3.2-1.5,6.5-2.7,9.9-3.9,4.4-1.6,8.8-3,13.2-4.4,2.6-.8,5.2-1.6,7.8-2.5,3.3-1.1,5.8-3.1,7.5-6.2.9-1.6,1.5-3.3,2.2-5,.7-1.5,1.2-3,1.2-4.7,0-1.1.5-2.2.7-3.3.2-.8.3-1.7.4-2.5,0-1.5,0-2.9,0-4.4,0-1.4.3-2.8,0-4.3-.3-1.8-.3-3.7-.4-5.6,0-.3-.2-.7-.5-.9-1.6-1.7-3.2-3.4-4.7-5.1-.8-.9-1.4-1.8-2.1-2.8-2.5-3.4-4.3-7.1-5.9-10.9-1.1-2.6-2.2-5.2-3.2-7.8-.7-1.8-.9-3.8-1.6-5.6-.6-1.5-1.1-3.2-2.6-4.3-.9-.6-1.8-1.4-2.5-2.2-3.5-3.4-6.6-7.1-9.8-10.8-2.7-3.2-4.9-6.8-7.5-10.1-.4-.5-.8-1.2-1.2-1.8-.8-1.2-1.5-2.3-2.3-3.4-1.1-1.4-2.3-2.8-3.4-4.1-2-2.5-3.6-5.3-5.9-7.5-.2-.2-.4-.5-.6-.7-1.4-1.8-2.7-3.6-4.3-5.3-1.6-1.7-3.4-3.2-5.1-4.8-.9-.8-1.3-.7-1.7.4-.4.9-.8,1.7-1.1,2.6-1.8,4-3.5,7.9-5.4,11.9-.9,1.9-1.7,3.8-2.7,5.5-.6,1-.3,1.5.6,2,1.8.9,3.2,2.6,5.5,2.4.3,0,.7.2,1,.4,1.2.5,2,1.9,3.6,1.6,0,0,.3.2.4.4.9,1.2,2.2,1.9,3.6,2.5.8.4,1.6.9,2.2,1.7.3.4,1.3.8,1.5.7.8-.6,1,0,1.4.4.3.3.7.6.9.9.8,1.1,2.3,1.4,3.3,2.2,1.1.9,2.1,2,3.7,2.2.3,0,.5.5.8.7,1.1.8,1.4,2.5,3.1,2.6.1,0,.2.4.4.5,1.3,1.3,2.5,2.7,3.9,3.9,1,.9,2.3,1.4,2.6,2.9,0,.1.2.3.4.3,1.4.4,1.3.5,1.9,1.6.4.7,1,1.3,1.6,1.9.7.7,2,1.3,2.1,2.1.2,1.5,1.3,2,2,3,.8,1.2,1.3,2.5,1.9,3.8,0,0-.2.3-.2.4,0,.7-.5,1.5.9,1.5.4,0,.9.8.7,1.5,0,.2,0,.5,0,.6.8,1.5.7,2.2-.7,3-2.5,1.3-5.1,1.8-7.9,1-2.9-.8-5-2.7-6.7-5.1-2.3-3.2-4.7-6.3-7.5-9.1-.9-.9-2.1-1-3.2-1.6-.1,0-.3,0-.5,0,0,.1.1.3.2.4,2.2,1.6,3.5,3.8,5.1,5.9.3.4.8.7.3,1.3.5.2.1,1,.9,1.2.5.1,1,.9,1.4,1.5,1.5,1.9,2.9,3.8,4.3,5.6.8,1,1.8,1.6,2.2,2.9.2.5.7,1,1.1,1.4,0,0,.2.1.3.2,0-.4.1-.9.6-.6.2.1.1.7.2,1,0,.2.2.4.4.6.8,1.1,1.9,2.1,2.5,3.4.7,1.3,2.4,1.9,2.2,3.7,0,0,.2.2.3.3.6.6,1.3,1.2,1.9,1.9.6.7,1.1,1.5,1.5,2.2.6,1.2,1.1,2.6,2.3,3.5.1,0,0,.5,0,.7.4,1.2.6,2.6,1.4,3.6.8,1.2,1.9,2.2,2.7,3.5.9,1.6,1.2,3.5,1.7,5.2,0,.1-.1.3-.2.5-.7,1.7-1.8,3-3.6,3.6-2,.7-3.8,1-5.6-.5-.8-.7-1.5-1.6-2.4-2-2.3-1.1-2.7-3.8-4.6-5.1-.5-1.9-1.9-3.3-2.7-5-.4-.9-.7-1.9-1.4-2.4-2-1.6-2.2-4.5-4.5-5.8-.1,0,0-.4-.2-.5-1.1-1.1-2-2.4-3.6-2.8-.3,0-.6,0-.9,0,.2.2.3.6.5.6.6,0,.5.4.6.7.2.6.6,1.2,1,1.7.9,1,2.1,1.9,2.4,3.4,0,.3.4.6.7.9,1.3,1.5,2.7,2.9,3.7,4.6,1,1.7,2.4,3.2,3.4,5.1,1.1,2,3,3.5,4,5.6,0,.1.3.2.4.3.5.6,1.1,1.1,1.5,1.7.5.7.9,1.5,1.4,2.1,1.9,2.2,2.6,4.7,1.7,7.6-.9,2.7-3.2,3.9-5.3,3.8-2.4-.1-4.6-1-6.3-2.7-1.5-1.5-2.8-3.3-4.2-4.9-.6-.7-1.1-1.3-1.6-2-.6-.7-1-1.8-1.8-2.1-1.2-.5-.1-1.7-1-2.1,0,0,0-.2-.1-.3-.5-.5-1.1-1-1.6-1.6-.5-.6-.8-1.3-1.2-2-1.3-1.9-2.7-3.7-4-5.6-1.1-1.6-2.2-3.3-3.4-4.9-.6-.8-1.5-1.6-2.3-2.3-.1-.1-.5,0-.8.2,0,0-.1.4,0,.5,1.2,2.1,2.3,4.1,3.5,6.2.1.2.2.4.3.6.8-.5.8.1,1,.6.1.4.4.7.7,1.1.4.5.8,1.1,1.2,1.6.9.9,1.5,2.1,2.5,3,.9.8,1.4,2.1,2.3,3,1.1,1.2,2,2.6,2.9,4,1.2,1.9,2.5,3.8,3.4,5.8.6,1.3.6,2.8.8,4.2,0,.4-.2.8-.4,1.2-.9,2.5-2.6,3.8-5.1,3.4-2.9-.5-5.5-1.6-7.6-3.7-.6-.6-.8-1.5-1.3-2.1-1.6-1.7-2.5-3.8-3.5-5.8-.6-1.3-1.4-2.6-2.1-3.9-.4-.8-1.6-1.3-1.9-2.1-.4-.8-.8-1.6-1.2-2.4-1.8-2.9-4-5.6-6.1-8.3-.5-.7-1.1-1.4-1.6-2-.1-.1-.4-.1-.6-.2,0,.2-.2.5-.1.7.6,1.3,1,2.7,1.8,3.8,1.5,2.1,3.5,3.9,4.4,6.4,0,.2.4.3.5.5,1.1,1.8,2.7,3.2,3.7,5.1,1.3,2.6,1.8,4.6,1,7.2-.3,1.1-1.2,1.7-2.5,1.7-.8,0-1.5,0-2.5-.2M51.7,157.3c.2,0,.5.1.6.3.9,1.7,2.3,2.4,4.2,2.4.4,0,.9,0,1.3,0,1.7,0,3-.8,3.9-2,.5-.7.7-1.7.9-2.7,0-.5-1.4-.8-.4-1.6-.5-1-.7-2.3-1.5-2.9-1.7-1.3-3.6-2.6-6.1-1.5-1.6.7-2.9,1.8-4,3.1-.7.8,0,1.7.2,2.6,0,.2,0,.4,0,.6-.2.7.3,1.2,1,1.8M304.2,30c.7.4,1.4.9,2.1,1.3.1,0,.4,0,.5,0,0,0,.1-.4,0-.5-.9-.6-1.8-1.1-2.7-1.7,0,0-.2.2-.2.3,0,0,.2.2.2.6M10.9,257.7c0-.2-.1-.3-.2-.5-.2-.4-.3-.9-.5-1.3,0,0-.2,0-.2,0,0,.5,0,1,.2,1.4.1.4.4.7.6,1,0-.2.2-.3,0-.7M300.4,27.7c.5.2.9.4,1.4.6.1,0,.4,0,.4-.2,0-.1,0-.5-.1-.5-.6-.1-1.2-.2-1.8.1M396.2,248c0,.2.2.3.3.5.2-.3.4-.6.5-.9,0-.3-.1-.9-.3-.9-.8,0-.3.6-.5,1.3M309.6,33.5c.2.2.5.4.7.6,0,0,.2,0,.3,0,0,0,0-.2,0-.2-.4-.3-.8-.5-1.2-.8,0,.1,0,.3.2.6M314.9,36.9c.1.1.2.3.4.4.2,0,.4,0,.6,0-.1-.2-.2-.4-.4-.5-.1-.1-.3,0-.7,0M388.6,136.1s0,.1.1.1c0,0,0,0,.1,0-.1-.3-.2-.6-.3-.9,0,0-.2,0-.3,0,0,.2,0,.4.3.8M389.8,138.1c0,.2,0,.4.1.5.1.2.3.2.5.4,0-.2,0-.5,0-.6,0-.2-.3-.3-.6-.2M353.5,71.3c.1.2.3.4.4.6,0,0,.2,0,.3-.1-.2-.2-.3-.4-.7-.4M9.4,250.9c0,.2-.1.4-.1.6,0,0,.2,0,.2,0,0-.2,0-.3,0-.7M398.9,185c0-.2,0-.3-.1-.5,0,0-.2,0-.2,0,0,.2,0,.4.3.4M396.6,170.9c0,.2,0,.3.1.5,0,0,.2,0,.2,0,0-.2,0-.4-.3-.4M381.5,114.6c0,0-.1.2-.2.2.1,0,.2,0,.2-.2M100.4,186.5c0,0,.2.1.2.2,0-.1,0-.2-.2-.2M400.1,196.8c0,0,.2.1.2.2,0-.1,0-.2-.2-.2M388.2,232.7c0,0-.2-.1-.2-.2,0,.1,0,.2.2.2M391.3,145.3c0,0,.2.1.2.2,0-.1,0-.2-.2-.2M372,96.6c0,0,.1-.2.2-.2-.1,0-.2,0-.2.2M362.3,83.1c0,0-.2-.1-.2-.2,0,.1,0,.2.2.2M356,74.5c0,0,.1-.2.2-.2-.1,0-.2,0-.2.2M344.7,60.9c0,0-.2-.1-.2-.2,0,.1,0,.2.2.2Z"/>
    <path d="M395.1,158.1c0-.5,0-.8,0-1.1,0-.2.3-.3.4-.4,0,.1.3.2.3.4,0,.4,0,.9,0,1.3,0,.3-.1.6-.2.9-.2-.3-.4-.6-.5-1.1Z"/>
    <path d="M323.7,41.7c.1-.2.4-.2.4-.2.1.3.2.6.3.9-.2-.2-.4-.3-.6-.7Z"/>
    <path d="M293.3,22.3c.3,0,.5,0,.6,0,.2.1.2.3.4.5-.2,0-.5,0-.6,0-.2,0-.3-.3-.3-.5Z"/>
    <path d="M388.6,131.4c.1-.2.4-.2.4-.2.1.3.2.6.3.9-.2-.2-.4-.3-.6-.7Z"/>
    <path d="M379.1,108.9c0-.4,0-.5.1-.7,0,0,.2,0,.2.1,0,.3,0,.6-.1.9,0,0,0,0-.1,0,0,0,0,0-.1-.3Z"/>
    <path d="M332,48.1c-.3,0-.5-.2-.7-.3,0,0,0-.2.1-.3.2.2.4.3.5.6Z"/>
    <path d="M275.2,13.7c-.2,0-.4,0-.7,0,0,0,0-.2,0-.2.2,0,.4.1.6.2Z"/>
    <path d="M83.6,365.8c-.1.6-.4.4-.7,0,.3,0,.5,0,.7,0Z"/>
    <path d="M400.9,219.6c.1.1.2.3.2.5,0,0-.2,0-.2,0,0-.2,0-.3,0-.6Z"/>
    <path d="M399.2,179.4c-.3,0-.4,0-.6,0,0,0,0-.2,0-.2.2,0,.4,0,.5.2Z"/>
    <path d="M400.3,191.2c-.1,0-.1-.1-.1-.2,0,0,.2.1.1.2Z"/>
    <path d="M380.2,110.3c-.1,0-.2,0-.4-.1.1,0,.2,0,.4.1Z"/>
    <path d="M286,.2c.1,0,.1.1.1.2,0,0-.2-.1-.1-.2Z"/>
    <path d="M320.7,39.5c.1,0,.2,0,.4.1-.1,0-.2,0-.4-.1Z"/>
    <path d="M82.9,365.8c-.1,0-.3-.1-.3-.3.2,0,.2.2.3.3Z"/>
    <path d="M173.6,274.2c.5.3,1,.4,1.4.7,2.9,2.3,5.7,1.3,8.3-.3,2.9-1.8,5.2-4.5,7.2-7.2,2.2-3,3.2-6.6,4.6-9.9,1-2.3,1.6-4.8,2.4-7.2.4-1.4.7-2.9,1.1-4.3.2-.9.3-1.8.6-2.6.4-1,.6-2.1.6-3.2,0-.8.5-1.6.7-2.4.7-2.8,1.3-5.6,1.9-8.4.2-.7.5-1.3.7-2,.8-2.5,1.5-5,2.3-7.4,1-3,2.6-5.7,4-8.5,1.3-2.7,3.1-5,4.9-7.3,1.9-2.4,4.2-4.4,6.4-6.5,1.4-1.4,2.9-2.7,4.5-3.8,2.6-1.8,5.3-3.5,8.1-5,1.4-.7,2.8-1.6,4.2-2.3,1.8-.9,3.6-1.7,5.5-2.4.5-.2,1.3-.1,1.8,0,1.1.5,2.2,1.2,3.3,1.7,1.4.6,2.6,1.5,3.9,2.2,1.2.6,2.6,1,3.9,1.6,0,0,.1,0,.2,0,2.3,1.3,4.8,1.7,7.3,2.3,2.1.5,4.1,1.1,6.2,1.5,3.2.7,6.4,1.2,9.6,2,2,.5,4,1.1,5.9,1.3,3,.3,5.7,1.4,8.6,1.9,1.2.2,2.4.6,3.6.5,1.2-.2,1.9.9,2.9.8,1.1-.1,1.8.6,2.7.8.2,0,.3.4.4.3,1.6-.4,2.9,1,4.5.8.5,0,1,.3,1.5.5,1.9.8,3.7,1.8,5.6,2.5,2.2.8,4.1,2.1,6,3.4,1,.7,2.1,1.3,3.2,1.9,1.1.6,2.1,1.4,3,2.4.7.9,1.8,1.5,2.7,2.2.4.3,1.1.7,1.1.9-.1,1.2.9,1.8,1.5,2.4.9,1,1.5,2,1.3,3.3,0,.2.2.5.3.5,1-.1,1,.7,1.2,1.3.3,1,.6,2.1.8,3.1.1,1.1,0,2.3,0,3.4-.1,4.1-2.2,7.2-5.2,9.8-1.6,1.4-3.5,2-5.4,2.2-1.3.1-2.7-.5-3.9-1-2.1-.7-3.8-2.1-5.5-3.5-2.2-1.8-4.3-3.8-6.4-5.7-1.5-1.3-3.2-2.5-5-3.1-2.2-.7-4.5-.2-6.4,1.3-2.4,1.9-2.5,1.8-3.6,4.4-.7,1.6-.9,3.3-1.3,5-.4,1.7-.6,3.4-.9,5.2,0,.2-.2.4-.2.7-.1,2.2-.3,4.5-.4,6.7,0,1-.3,2,0,3.1.2,1.1,0,2.3,0,3.4,0,.8.3,1.5.3,2.3,0,.9-.5,1.9.4,2.8,0,0,0,.4,0,.6.1,2.6,0,5.1.4,7.7.4,2.4.2,4.7.3,7.1.1,1.9.7,3.7.7,5.6,0,1.5-.5,3-.7,4.5-.1.7-.8,1.4,0,2.2.2.2.1.7,0,.9-1.1,2.6-1.4,5.5-3,7.9-.8,1.1-1.5,2.2-2.3,3.2-1.8,2.1-3.6,4.2-5.7,6-3,2.7-6.1,5.1-9.2,7.7-2.4,2.1-4.1,4.7-5.2,7.6-.5,1.3-.8,3.1.7,4.4.2.2.2.7.3,1,.3,1.3.3,2.8,1.9,3.4.2,0,.3.4.4.6.4.9,1.2,1.1,2.1,1.2,1.7.1,3.3-.2,4.8-.7,1.7-.5,3.4-1,5.1-1.5,1.9-.5,4.3.6,5.2,2.1.5.8.3,1.7,1,2.5.4.4,0,2-.4,2.5-1.6,1.8-3.1,3.7-5.4,4.8-2.1,1-4.3,2-6.6,2.6-3.1.9-6.3,1.8-9.5,2.3-2.4.4-4.7,1.1-7,1.5-2.2.4-4.4.5-6.5.8-2.4.4-4.8.5-7.1.8-3.1.4-6.1.7-9.2.7-1.3,0-2.6.5-3.8.3-3.3-.5-6.7-.2-9.9-1.4-2.6-1-4.4-2.7-5.3-5.3-.8-2.3-1.6-4.7-2.3-7.1-.7-2.3-2.1-3.8-4.1-4.9-3.2-1.8-6.5-3-10.1-3.8-3.5-.8-7-1.9-10.4-3-1.8-.6-3.7-1.2-5.2-2.7-.6-.6-1.5-1-2.3-1.4-2.1-1.1-3.9-2.5-5.5-4.1-1.8-1.7-3.5-3.5-5.2-5.4-.9-1.1-1.6-2.2-2.4-3.4-.2-.4-.4-.8-.8-1-1.2-.9-1.7-2.3-2.2-3.5-1.2-2.4-2.1-5-3.1-7.5-.6-1.5-1.1-3.1-1.5-4.7-1-3.5-1-7.1-1.2-10.8-.1-2.2-.3-4.3-.3-6.5,0-2.3.5-4.6.7-6.9.2-2.8.9-5.5,1.7-8.1.2-.6.6-1.3,1.1-1.8.7-.6,1.9-.2,1.9.7,0,2.3,1.6,4,2,6.1.2,1.2.6,2.4,1,3.5.5,1.5,1.4,3.1,3.4,3.6M332.9,220.1c0,0,.2.1.2.2,0-.1,0-.2-.2-.2Z"/>
    <path d="M310.3,124.5c.6.4,1.2.9,1.8,1.2.7.4.6,1.7,1.8,1.5.8-.1,1.3.7,2.1.8,1.9.4,3.8,1.3,5.6,2,.3.1.7.2,1,.2,1.4.2,2.8,0,4.2.3,1.4.3,2.9-.4,4.4-.6,1.3-.1,2.6,0,3.9-.8.9-.5,1.6-1,2.2-1.9,2.3-3.3,5.3-5.5,9.1-7,1.6-.7,3.4-.9,5-1.7.3-.2.7,0,1.1,0,2.6.1,5.1.2,7.7.4,1.1,0,2.4,1.4,2.5,2.5,0,.7.2,1.2.6,1.9.4.6.8,1.4.3,2.5-.5,1,.2,2.3,0,3.5,0,.3-.2.7-.4,1-.8,1.1-1.6,2.1-2.4,3.2-.2.3-.3.7-.2,1,.2.8-.2,1.6,0,2.3.4,1.2,0,2.5.3,3.8.2.9,0,2.1-.3,3.1-.6,2.3-1.3,4.7-2.1,7-.2.7-.9,1.2-1.3,1.9-.8,1.3-1.5,2.7-2.2,4s-.5.8-.9,1.2c-1.5,1.7-3,3.5-4.7,5.1-1.8,1.7-3.8,3.2-5.6,4.9-2.6,2.4-5.6,4.1-8.7,5.6-4.3,2.1-8.8,4-13.6,4.9-2.9.5-5.8,1.2-8.9,1.1-.8,0-1.5.4-2.3.3-2.6,0-5.3,0-7.8-.4-2.6-.5-5.3-1-7.9-2-1.7-.6-3.1-1.8-4.8-2.3-.3,0-.7-.2-1.1-.3-.2-.6-.8-.5-.8-.2-.2,1.9-1.7,2-3,2-2.8.1-5.6.2-8.4,0-2.2-.2-4.4-1-6.6-1-2.8,0-5.5-.9-8.1-1.7-2.7-.7-5.3-1.5-7.9-2.5-3.1-1.2-5.6-3.4-8.6-4.7-1.2-.5-1.6-2-1.3-3.3.6-2.9.5-5.7-.5-8.5,0,0-.3,0-.4,0-.1,0-.3.2-.3.3-.2,2.7-2.4,4.1-4.1,5.5-1.6,1.4-3.7,2.3-5.7,3.1-3.4,1.3-7,1.5-10.6,1.1-2.8-.2-5.5-1.1-7.8-2.7-1.1-.7-2-1.7-2.9-2.7-.3-.3-.4-.7.2-1.1,1.4-.9,2.7-1.9,3.9-3,1.2-.9,2.2-2,3.4-3,2.2-1.8,3.7-4.3,5-6.7,1-2,1.9-4.2,2.3-6.5.2-1.6.3-3.1.3-4.6,0-.8-.6-1.5,0-2.4.3-.5-.3-1.5-.3-2.3,0-1.4.8-2.2,2.2-2.4,2.5-.3,5-.3,7.5-.8,4.3-.8,8.7-1.6,13.1-2.5,4.5-1,8.7-2.6,13-4.1,3.2-1.2,6.3-2.8,9-5,3.7-3.1,7.2-6.2,9.5-10.5,1.1-2,2.3-4,3.4-6,.9-1.7,3.6-2.7,5.5-1.9,2.9,1.1,5.8,1.7,8.9.8,1.1-.3,2.2-.4,3.3-.4,2.8.1,5.3-.9,7.9-1.7,1.2-.4,2.4-1.1,3.5-1.6.4-.2.9-.4,1.3-.5.8-.1,1.8-.7,1.8,1,0,.6.8,1.2,1,1.8,1,2.7,1.2,5.3,1.2,7.4s0,2,0,2.8c.1,3.3-1.5,5.6-4.3,7.2-2.2,1.2-4.6,1.9-7,1.9-2.4,0-4.9-.2-7.3-.3-.3,0-.5.1-.8.2.2,0,.5,0,.7.2.6.3,1.2.6,1.6,1.1.6.6.9,1.4,1.4,2,.6.6,1.4,1,2,1.5,1.9,1.6,3.5,3.5,5.5,4.9-.3.1-.4.2-.6.2.2.2.5.4.7.7.1.1.2.1.4.1-.1,0-.2-.1-.4-.3v-.8M306.9,122.4c-.1,0-.2,0-.4,0,.1,0,.2.1.4.4l.6.2c0,0,0-.2,0-.2-.2,0-.4,0-.7-.3M284,170.9c-.1,0-.2,0-.4,0,.1,0,.2.1.4.4.9.8,1.8,1.6,2.8,2.4.1,0,.3,0,.5,0,0-.1,0-.3,0-.4-1-.9-1.9-1.8-3.2-2.4M285.2,119.7c-.3.3-.8.9-.7,1,.5.8.2,1.7.3,2.5.4,2.4,2.9,3.9,4.5,3.6,1.6-.3,3.2-1.9,3.4-3.5,0-.4-.1-1-.4-1.3-.7-.6-1.4-1.3-1.8-2.1-.4-.8-1.1-1-1.9-1.1-1.2-.1-2.3,0-3.5.9M275.4,138.6c0,0,.2-.2.3-.3,2.4-.8,3.2-3.2,1.9-5.2-.3-.5-.7-.8-.9-1.3-.3-.9-1.1-1-1.8-1.1-.8-.2-1.8-.2-2.6.1-.6.3-1.3,1.1-1.4,1.8-.3,1-.1,2.1-.1,3.2,0,0,.2.2.3.3,1.5.7,2.2,2.5,4.5,2.6Z"/>
    <path d="M269.8,191.4c-1-.2-1.9-.3-2.8-.5-2.4-.7-4.8-1.7-7.2-2.3-2.5-.7-4.8-1.9-7.2-3-3.6-1.5-7.3-3-10.8-4.7-1.9-.9-3.8-2-5.5-3.2-1.4-1-1.4-1.4-.4-2.9,1.4-2.1,2.9-4.2,4.3-6.2.9-1.3,3.2-1.5,4.4-.4,1.4,1.1,2.9,2.1,4.6,2.6.4.1,1.3,0,1.2,1,0,.1.4.4.6.4.7.2,1.4.3,2,.6,2.7,1.3,5.5,2.5,8.4,3.2.3,0,.6,0,.8.3.8.8,1.8.8,2.9.9,1,0,2.1.1,3,.5,1.7.6,3.5,1,5.3,1,1.3,0,2.7.2,4,.4,1.3.1,2.6.2,3.9.3,2.9.1,5.9.5,8.8-.2,1.6.9,3.1-.4,4.6,0,.2,0,.5.3.6.5.8,1.4.8,3,1.1,4.5.4,2.1.8,4.2,1.8,6.1.6,1.1.9,2.4,1.3,3.7.2.8-.5,1.5-1,1.6-1.3.1-2.7,1.1-4.1.1-.1,0-.4,0-.5,0-1.8-.1-3.6-.1-5.4-.4-2.8-.4-5.5-1.2-8.3-1.5-3.5-.4-6.9-1.5-10.5-2.2Z"/>
    <path d="M170,349c-.2.7-.2,1.2-.3,1.8.8,0,1.1-.6,1.4-1.2,1.5-2.7,3.6-4.8,6.1-6.6,1.7-1.2,3.6-1.2,5.4-.2.4.2.9.6,1,1,.9,2.5,2.9,3.9,5.1,5,1.5.7,2.7,1.8,3.7,3,.6.7,1.1,1.8,1.1,2.7,0,.7-.8,1.4-1.4,2.1-2.2,2.5-5.1,3.4-8.2,4.1-2,.5-4.1.5-6.2.8-1.7.2-3.3.2-5,.3-2.5.1-5,.1-7.5.4-3.2.4-6.5.9-9.7,1.6-.7.2-1.4,0-1.7-.3-1.3-1.4-2.8-2.4-3.3-4.6-.4-2,.4-3.5.7-5.2,1-.4.3-1.4.8-2,.8-1,1.2-2.2,2.1-3.1,2.2-2.3,4.5-4.5,6.7-6.7,1.6-1.7,3.5-3.2,4.6-5.4.3-.6.5-1.2.5-1.9.1-1.6.9-2.2,2.6-1.9.7.1,1.4,0,2,.2,1.2.3,2.3.8,3,2.1.5,1,2,1.6,1.9,2.8-.1,1.3.1,2.5.5,3.7.3.9-.7,1.4-1.2,1.7-2.2,1.3-3.3,3.5-4.8,5.6Z"/>
    <path d="M374,153.6c1.5.6,2,1.8,2.6,3,0,.2,0,.5-.1.8-.1.4-.5.9-.5,1.3,0,1.5-1,2.2-2.1,2.8-1.2.6-2.3,1.3-3.7,1.2-1.8-.1-3.6-1.3-4.2-3-.3-.8-1-2-.7-2.5.6-.9,1.7-1.6,2.7-2.1,1.8-1,3.7-1.7,5.9-1.5M370.1,158.1c.2,0,.3-.2.5-.3-.7-.3-1.4-.6-2.1-.9-.1,0-.4.2-.6.3.1.2.2.4.4.5.4.2.9.3,1.7.4Z"/>
    <path d="M87.8,118.5c.1,0,.2,0,.4.1-.1,0-.2,0-.4-.1Z"/>
    <path d="M288.5,174.5c0,.1,0,.2-.1.4,0-.1,0-.2.1-.4Z"/>
    <path d="M48.4,113.7c-.1,0-.1-.1-.1-.2,0,0,.2.1.1.2Z"/>
    <path d="M60,130.3c.1,0,.1.1.1.2,0,0-.2-.1-.1-.2Z"/>
    <path d="M381.6,148.3c0,.1-.1.1-.2.1,0,0,.1-.2.2-.1Z"/>
    <path d="M92.9,161.2c.1,0,.1.1.1.2,0,0-.2-.1-.1-.2Z"/>
    <path d="M128.4,224c0-.1.1-.1.2-.1,0,0-.1.2-.2.1Z"/>
  </g>
</svg>