<?xml version="1.0" encoding="UTF-8"?>
<svg id="Layer_1" xmlns="http://www.w3.org/2000/svg" version="1.1" viewBox="0 0 197.8 442.1">
  <!-- Generator: Adobe Illustrator 29.3.1, SVG Export Plug-In . SVG Version: 2.1.0 Build 151)  -->
  <g id="Shape_25">
    <path d="M64.5,23.4c1.4-4.9,2.9-9.7,4.3-14.5.6-2.2,1.2-4.4,1.8-6.5.8-2.5,1.8-2.7,4.9-1.9,4.3,1.2,8.6,2.1,12.8,3.2,3.5.9,7,1.9,10.5,2.9,3.4.9,6.8,1.7,10.2,2.6,4.3,1.1,8.6,2.3,12.9,3.4,3.2.9,6.4,1.7,9.6,2.7,1.4.4,2.8,1,4.2,1.5,1.1.4,1.8.9,1.2,2.4-1.8,4.2-3.4,8.4-5.1,12.6-1.8,4.5-3.7,9-5.5,13.5-2.1,5.2-4.3,10.3-6.4,15.5-1.5,3.6-3,7.3-4.5,10.9-1.7,4-3.4,8-5,12.1-1.6,3.8-3.1,7.6-4.7,11.4-1.2,2.8-2.4,5.6-3.6,8.4-.9,2.2-1.8,4.4-2.7,6.6-1.5,3.6-2.9,7.1-4.4,10.7-1.6,3.8-3.2,7.6-4.7,11.4-1.7,4.2-3.5,8.4-5.3,12.6-1.7,4.1-3.4,8.1-5.1,12.2-1.2,2.8-2.4,5.5-3.5,8.3-2,5-4,10-5.9,15.1,0,.3,0,.6,0,.8.3,0,.6,0,.8,0,5.6-2,11.3-3.9,16.9-5.9,7.3-2.7,14.6-5.4,21.9-8.2,5.5-2,11-4.1,16.5-6.1,7.5-2.8,15.1-5.5,22.6-8.4,8.9-3.4,17.9-6.9,26.8-10.2,4.4-1.7,9-3.1,13.4-4.7,2.5-.9,5-1.7,7.5-2.5.3-.1.8,0,1,0,.2.1.2.6.1.9-1.5,4.2-3,8.3-4.4,12.5-3,8.4-6.1,16.8-9.1,25.2-1.3,3.7-2.5,7.4-3.8,11.1-1.4,3.9-2.9,7.7-4.3,11.6-3.3,9-6.6,18-9.9,26.9-2,5.5-3.9,11-5.8,16.5-2.7,7.5-5.5,15-8.2,22.5-1.5,4.3-2.9,8.6-4.4,12.9-1.8,5.1-3.7,10.1-5.5,15.2-1.9,5.5-3.7,11-5.7,16.5-3.1,8.9-6.3,17.7-9.4,26.5-3.1,8.8-6.3,17.6-9.4,26.4-.7,2.1-1.5,4.2-2.1,6.3-.1.3-.2,1,0,1.1.3.2.8.2,1.2.1,2.3-.7,4.6-1.5,6.8-2.3,4.5-1.6,9-3.3,13.5-4.9,2.3-.8,4.5-1.5,6.8-2.3.4-.1.8,0,1.2,0-.1.4-.1.9-.4,1.2-3.5,4.6-6.9,9.2-10.4,13.8-3.7,4.7-7.4,9.4-11.1,14.1-3,3.9-5.9,8-9,12-2.7,3.6-5.6,7-8.4,10.5-2.9,3.7-5.7,7.6-8.6,11.3-2.7,3.5-5.5,7-8.3,10.4-2.9,3.6-5.8,7.2-8.8,10.8-.1.2-.7.2-.9,0-.3-.3-.5-.7-.6-1.1-.7-3.7-1.5-7.4-2.1-11.1-.8-4.3-1.4-8.7-2.2-13-.6-3.6-1.5-7.1-2.1-10.7-.6-3.3-1-6.6-1.6-9.9-.6-3.5-1.4-6.9-2-10.4-.6-3.2-1.1-6.4-1.6-9.5-.3-1.7-.6-3.4-.9-5.1-.4-2.3-.8-4.5-1.2-6.8-.5-2.5-1-5-1.4-7.5-.5-2.6-.9-5.2-1.3-7.8,0-.5.2-1,.4-1.5.4.2.9.3,1.2.6,3.5,2.6,7.1,5.3,10.6,7.8,2.9,2.1,5.8,4.2,8.7,6.1,1.4.9,2.3.5,2.8-1.2,1.7-6.1,3.5-12.3,5.2-18.4,1.5-5.3,2.9-10.7,4.3-16,1.4-5.2,2.8-10.3,4.1-15.5,1.3-5,2.5-10,3.8-15,1.3-4.9,2.7-9.9,3.9-14.8,1.1-4,2-8.1,3.1-12.1,1.1-4,2.3-7.9,3.3-11.9,1.1-3.9,2-7.9,3.1-11.8,1.4-5.4,2.8-10.8,4.3-16.2.9-3.4,1.8-6.7,2.7-10.1.9-3.6,1.8-7.2,2.7-10.7,0,0,0-.1,0-.2.2-.7.3-1.4.5-2.1-.8,0-1.7,0-2.4.3-5.5,1.9-11,3.8-16.5,5.8-6.4,2.3-12.9,4.7-19.3,7.1-5.7,2.1-11.5,4.2-17.2,6.2-7.6,2.7-15.3,5.3-22.9,8-5.9,2.1-11.8,4.2-17.7,6.4-5.7,2.1-11.4,4.2-17.2,6.3-4.2,1.5-8.3,2.9-12.5,4.3-.8.3-1.6-.5-1.4-1.4,1.5-5.4,3.1-10.8,4.6-16.2,1.2-4.2,2.3-8.5,3.5-12.7,1.1-3.9,2.2-7.7,3.3-11.6,1.5-5.3,3-10.6,4.6-15.9,1.3-4.5,2.7-9,3.9-13.6,1.7-6.1,3.4-12.3,5.2-18.4,1.6-5.6,3.3-11.1,4.9-16.7,1.3-4.6,2.6-9.3,4-13.9,1.9-6.7,3.9-13.4,5.8-20.1,1.8-6.5,3.6-13,5.5-19.5,1.6-5.4,3.3-10.7,4.8-16.1,2.4-8.5,4.7-17,7.1-25.5,1.5-5.4,3.3-10.8,4.8-16.3.9-3,1.6-6,2.4-9.2M81,102.4c-.5.5-1.1.9-.3,1.5.5.3,1.1.5,1.6.7.2-.6.6-1.3.4-1.7-.2-.4-1-.5-1.7-.6M158.9,190.3c-.2.4-.6.9-.7,1.4,0,.4.1.8.2,1.2.3-.2.9-.4,1-.7.2-.8.1-1.6.1-2.3-.2.1-.3.2-.6.5M116.7,336.6c-.9-.1-1.7-.2-2.6-.3-.3,0-.6.1-.9.2.3.1.5.3.8.4,1,.1,1.9.3,2.9.3.5,0,1-.2,1.5-.4-.4,0-.9-.1-1.6-.2M152,180.8c0,0,.1-.2.2-.2-.3-.1-.8-.4-.9-.3-.5.4-.8,1-1.2,1.5,0,0,.3.3.3.3.4-.2.7-.4,1.1-.6.2-.1.3-.3.6-.6M66.8,82.4c-.2,0-.6,0-.7.1-.2.3-.3.7-.3,1,0,.1.4.3.6.4.2-.5.4-.9.4-1.5M162.5,166.6c.4-.3.8-.5,1.2-.8,0,0,0-.3-.1-.5-.3.2-.7.4-1,.7-.1.1-.2.3,0,.7M104.2,68.7c-.4.2-.7.5-1.1.7.2,0,.5.3.6.2.3-.2.5-.6.5-.9M156.6,192.3c0,.4-.2.8-.3,1.2,0,0,.4.2.6.3,0-.4.1-.8.1-1.1,0-.1,0-.3-.4-.4M111.5,335.1c.1.4.2.8.4,1.2.1-.1.4-.3.4-.4.1-.5,0-.8-.7-.8M73.5,371.3c-.1.3-.3.5-.4.8.3,0,.6,0,.8,0,.3-.1.4-.4.7-.6-.3,0-.5-.1-1.1-.2M90.7,101.5c.2.1.3.3.5.4.1-.5.2-.9.3-1.4-.3.2-.5.5-.8,1M138,296.4c.2-.1.3-.3.5-.4-.5-.2-.9-.4-1.4-.5-.1,0-.3,0-.4.1.2.2.4.3.7.5.2,0,.4.1.7.3M72,161.6c-.1.1-.3.3-.4.4.4,0,.8.2,1.2.2,0,0,.2-.2.3-.4-.3,0-.5-.1-1.1-.2M153.1,175.7c-.4-.1-.8-.2-1.2-.3,0,0-.2.2-.3.3.4,0,.7.1,1.1.2,0,0,.2,0,.4-.2M27.7,191c-.4-.1-.8-.2-1.2-.3,0,0-.2.2-.3.3.4,0,.7.1,1.1.2,0,0,.2,0,.4-.2M93.7,96.9c-.4-.1-.7-.3-1.1-.4,0,.1,0,.3-.1.4.4,0,.7.1,1.2,0M76.5,385.3c-.4,0-.7.1-1.1.2,0,.1,0,.3.1.4.4-.1.7-.3.9-.6M75.3,394.1c0-.3,0-.6,0-.9-.2,0-.4.2-.6.3,0,.2.2.4.6.6M84.6,422.3c-.3,0-.7,0-1,.1,0,0,0,.2,0,.3.4,0,.7,0,1.1-.4M117.8,184c-.3,0-.6,0-.9,0,0,0,0,.3,0,.3.3,0,.6,0,.9-.3M173.2,188.8c0-.3-.1-.5-.2-.8-.1,0-.3.2-.4.3.2.2.3.4.6.5M157.7,223.8c0,.1-.1.3-.2.4.3,0,.5-.1.8-.2-.2-.1-.3-.2-.6-.2M135.9,294.9c-.3,0-.6-.2-.9-.3,0,0,0,.1,0,.2.4,0,.8.2,1,0Z"/>
  </g>
</svg>