<?xml version="1.0" encoding="UTF-8"?>
<svg id="Layer_1" xmlns="http://www.w3.org/2000/svg" version="1.1" viewBox="0 0 334.4 432.5">
  <!-- Generator: Adobe Illustrator 29.3.1, SVG Export Plug-In . SVG Version: 2.1.0 Build 151)  -->
  <g id="Shape_34">
    <path d="M34.6,276.9c1.8,0,1.9.2,2,1.9,0,.5,0,.9,0,1.4,0,3-.1,6,.4,9,.2,1-.2,1.8-.8,2.7-.5.7-.7,1.7-1,2.5,0,.1,0,.3,0,.4,1.2,2.3.8,4.1-1.3,5.5-1.1.8-1.4,2.6-.3,3.9.6.7,1,2,2.4,1.7.2,0,.8.5.9.8.2,1,.2,2.1.4,3.2.5,2.7.4,5.4.4,8.2,0,.8.7,1.5,0,2.3.8.8-.1,1.7,0,2.2.5,1.3.2,2.6.3,3.8,0,.7-.2,1.3-1,1.3-.2,0-.9,0-.3.4.8.5.6,1.3.6,1.9.2,2.5,1.5,4.8.4,7.4-.2.5.3,1.2.3,1.8.2,3.5.3,7,.4,10.5,0,1.9-.2,3.7.3,5.6.2.8,0,1.9,0,2.8,0,1,0,2,0,3v6.1c0,1.1,0,2.1,0,3.2,0,1.2-.4,1.3-1.5.7-.2,0-.3-.2-.5-.3-.4-.1-1.1-.3-1.1-.2-.3.6,0,1.1.6,1.4.3.2.7.3,1,.4,1.5.3,1.4.3,1.5,1.6,0,.9.3,1.9.4,2.8,0,.9-.5,2-.2,2.8.4,1.6-.3,3,0,4.6.2,1.8,0,3.6-.1,5.5-.1,1.3-.4,2.6-.8,3.8-.2.7-.6,1.4-1.1,1.9-.5.6-1.2.5-1.9,0,0,0-.1,0-.2,0-1,0-2.2.3-2.7-.6-.4-.7,0-1.8-.1-2.7-.1-2.1-.4-4.2-.4-6.3,0-1.4.4-2.7.7-4.1,0-.3.1-.7,0-1-.6-2.7.3-5.3,0-8,0-.6,0-1.1-.1-1.7,0-.5-.4-1.1-.2-1.5.4-1,0-1.9,0-2.9,0-1.3-.2-2.6-.3-3.9,0-1.4,0-2.9-.1-4.3,0-1-.4-2-.3-3,0-1,0-2-.1-2.8-.5-1.8-.1-3.5-.3-5.2-.1-1.3-.2-2.7-.4-4,0-.8-.3-1.7-.4-2.5,0-1,0-2,0-3,0-1.3,0-2.6-.3-3.9-.2-.7.3-1.6.3-2.4,0-1,.8-.5,1.2-.5.1,0,.4.5.4.8,0,.7-.3,1.3-.4,2,0,.7.6,1,1.1.5.4-.4,1.4-.7.5-1.7-.3-.3,0-1,0-1.5,0-1.2-.3-1.4-1.4-1.4-1.8,0-2.5-.5-2.1-2.4.2-1-.1-1.9,0-2.9,0-1,.2-2.1,0-3-.6-1.8.1-3.5-.3-5.3-.4-1.8,0-3.8,0-5.7,0-.8-.2-1.8,1.1-1.8.8,0,1.1-1.5,2.2-.6.4.3,1.2,0,1.8,0-.5-.3-1.1-.5-1.6-.9-.8-.6-1.5,0-2.2.2-1.1.4-1.4.3-1.4-.8,0-1.5-.7-3.1,0-4.6-.8-1.9-.3-3.9-.4-5.9s0-2.5,0-3.8-.2-2.4-.4-3.5c0-.4.2-.9.2-1.3,0-.8,0-1.5,0-2.3,0-.5-.3-1-.2-1.5.3-2.4-.1-4.8,0-7.2,0-2.5,0-5,0-7.5,0-1.1-.2-2.3,0-3.4.2-1.3,0-2.6,0-4v-7.8c0-1.3,0-2.5,0-3.8,0-1.4.4-2.8-.3-4.3-.3-.7.2-1.9.2-2.8,0-.6.2-1.2,0-1.7-.2-.4-.2-.6,0-.7s.6,0,.7.3c.3.6.6,1.3.9,2,.1.3.4.4.6.7,0-.3.3-.7.1-.9-.4-.8-.8-1.9-1.5-2.3-1.5-.7-2-2.1-2.7-3.3-2.1-3.8-5-7-7.2-10.7-1.2-2-2.5-4-3.6-6-1.6-2.9-3.3-5.8-4.7-8.7-1.1-2.3-1.9-4.8-2.8-7.2-.7-2-1.6-4-2.1-6.1-.5-2-1.5-4-1.5-6.1,0-1.2-.5-2.4-.8-3.6-.4-2.1-.7-4.2-1.2-6.3-.5-2.1-.5-4.1-.3-6.2.2-2.4-.4-4.8.8-7.1-.5-1.4.4-2.9,0-4.3-.1-.5.1-1.1.4-1.6.8-1.4-.1-3.2,1-4.6.4-.5.6-1.3,1.5-1.1-.2-.6-.6-1.2-.5-1.7.4-1.1,1-2.1,1.7-3,1.5-2,3-4.1,4.6-6,1.4-1.7,2.9-3.3,4.4-4.9,2.2-2.5,4.4-5,5.5-8.2.4-1.2.6-2.4.8-3.6.2-1.4-.2-2.8.4-4.2.3-.7-.9-1.7,0-2.6-.8-1.7-.2-3.5-.3-5.2-.7-7-.3-14.1-.4-21.1,0-1.1,0-2.2,0-3.2,0-1.4-.4-2.8-.3-4.2,0-1.7.3-3.3.4-5,0-1.4-.2-2.8,0-4.2.2-1.6,0-3.2,0-4.8s-.1-3.1,0-4.6c.2-2.1,0-4.3,0-6.4,0-2.2,0-4.5,0-6.7,0-1.2.4-2.4.1-3.7-.2-1.2.2-2.5.3-3.8,0-.8-.1-1.5,0-2.3,0-.8,0-1.4-.2-2.2-.1-.4,0-1.2,0-1.8,0-.4.5-1.1.9-1.4,2.7-1.7,5.4-3.2,8.1-4.8,1.7-1.1,3.4-2.2,5.2-3.3.6-.4,1.2-.7,1.8-1,3.3-1.3,6.2-3.3,9.3-4.9,4.4-2.3,8.8-4.6,13.2-6.8,3.3-1.6,6.6-3.3,10.1-4.4,2.5-.8,4.8-2.1,7.4-2.7,2.8-.7,5.3-2.2,8.3-2.6,1.4-.2,2.7-.9,4-1.3,2.4-.8,4.8-1.5,7.2-2.2,2.4-.7,4.8-1.3,7.2-1.9,1-.2,2-.3,3-.5,2.3-.6,4.6-1.3,7-1.9,1-.3,2.1-.4,3.2-.5,1.8-.2,3.5-.9,5.3-1,1.5-.1,3-.4,4.4-.7,1.6-.3,3.2-.2,4.8-.3,3.1,0,6.2,0,9.3,0,.7,0,1.5-.3,2.2-.4.7-.1,1.4.7,2.1,0,1.3.6,2.7-.5,4.1.3.4.2,1.2-.3,1.8-.3,1.1,0,2.2.3,3.3.2,1,0,2-.6,3,.2,1.2-1,2.4,0,3.6,0,5.2,0,10.5.2,15.7.4,2.8.1,5.6.3,8.4.8,2.4.5,4.8.5,7.2.8,2.1.2,4.2.4,6.3,1.1,1.1.4,2.3.3,3.4.4,3.7.4,7.4,1.1,11,2.1,2.5.7,5.1,1,7.5,1.9,2.3.8,4.8,1,7,2.3,4.5.6,8.4,2.7,12.6,4.1,1.1.4,2.2.9,3.3,1,.2,0,.5.2.7.3,2.1,1.2,4.6,1.7,6.8,2.8,1.4.7,2.8,1.3,4.2,1.8.5.2,1,.1,1.5.3,2.2.9,4.3,2.1,6.5,2.9,2.3.8,4.4,2.1,6.7,3.1,3.7,1.6,7.1,3.6,10.7,5.4s2.3,1.1,3.5,1.6,2.7,1.6,4.3,2.1c1.3.5,2.5,1.4,3.7,2,1.5.8,2,2.1,1.5,3.8,0,.2-.2.4-.3.7-.1,2-.3,4-.4,6-.1,1.4.1,2.8-.3,4.2-.2.9.1,2,0,3-.2.8-.6,1.8-.3,2.4.5.9-.1,1.6,0,2.3.3,1.6-.1,3.2,0,4.8,0,1.6-.3,3.4,0,4.9.5,1.9.7,3.8.9,5.6.2,2,1.1,3.6,1.8,5.2.9,2,1.9,3.8,2.4,6,0,.2.3.3.4.4,1.6,1.2,2.3,3.3,4,4.4.1,0,.3.2.3.3,0,1.9,1.8,2.5,2.8,3.6,2.2,2.4,4.5,4.7,6.7,7.1,2,2.2,4.1,4.5,6,6.8,1.7,2.1,3.2,4.4,4.8,6.5.8,1.1,1.9,2.1,2.1,3.5,0,.6.2,1.3,0,1.7-.5.8-.4,1.7-.5,2.6-.2,2.5-.5,5-1.1,7.5-.3,1.2-.3,2.4-.4,3.6-.2,1.6-.8,3.2-1,4.7-.3,2.1-1,4.1-1.4,6.2-.5,2.1-.7,4.2-1.9,6.2-.4.7-.7,1-1.4.6-.1,0-.4,0-.5,0,0,.2,0,.6.1.7,1.2.7,1,1.8.6,2.8-.9,2.2-1.8,4.4-2.8,6.6-1.5,3.1-3,6.3-4.6,9.4s-4.4,7.5-7.1,10.9-3.2,4.2-4.9,6.2c-1.6,1.8-3.3,3.6-5.2,5.2-2.5,2.2-5.1,4.2-7.8,6.2-2.2,1.6-4.4,3-6.7,4.3-2,1.1-4.2,2-6.3,2.9-1.2.5-2.4,1-3.5,1.5-4.6,1.9-9.3,3.5-14.1,4.8-3.2.8-6.5,1.5-9.8,1.7-2.1.2-4.2.4-6.3.3-1.3,0-2.5.5-3.9.1-1.3-.4-2.8-.2-4.1,0-1.5.1-2.9-.2-4.4,0-1.4,0-2.8-.5-4.2-.7-.3,0-.5,0-.8,0-3.3,0-6.6-.3-9.9-1.1-1.2.6-1.6-.5-2.2-1-.6-.6-1.1-1.1-2-.3-.4.3-1.1.5-1.6.4-1.9-.5-3.8-.4-5.7-1.1-1.9-.7-3.9-1-5.9-1.6-1.8-.6-3.6-1.3-5.3-2-2.9-1.1-5.7-2.7-8.3-4.3-1.4-.8-1.4-.8-1.1-2.4.1-.6,0-1.2,0-1.8,0-.6-.7-.8-1.3-.4-.1,0-.2.2-.3.3-1.7,1.1-1.9,1.1-3.7-.1-2.4-1.7-4.7-3.5-7.2-5.2-2.3-1.5-4.7-3-7.2-4.2-2.4-1.2-5-1.3-7.3-2.5-1.5-.7-3.4-.6-5.2-.9-1.3-.2-2.5-.8-3.8-.9-1,0-1.9-.6-2.9-.7-2.7-.2-5.5-.5-8.2-.4-3,.1-5.9.7-8.8,1.1-3.1.5-6.2.9-9.3,1.6-2.8.6-5.5,1.5-8.1,2.4-.4.1-.6.2-.9,0-1-1-1.1-2.4-1.3-3.6-.1-1-.3-1.6-1.5-1.5-.4,0-.8-.2-1.2-.4-1.2-.5-2.4-.6-3.7-.2-.3,0-.8,0-.9-.2-.1-.2,0-.8.1-.9.8-.7,1.7-1.3,2.6-1.9,3.1-1.9,6.4-3.4,9.8-4.6,2.6-.9,5.2-1.5,7.8-2.2,3.2-.8,6.5-1.3,9.8-1.6,1.4-.2,2.7.3,4,0,.2,0,.5.2.6.4.5.6.9.5,1.2,0,.5-.6,1-1,1.7-.4.2.1.5,0,.8,0,2.7.1,5.4,0,7.9.5,3.4.7,6.8.8,10.1,1.9,2.9,1,6.1,1.5,8.7,3.4,1.4-.2,2.4.7,3.4,1.3.5.3,1.2.3,1.3,1.1,0,.2.6.4.9.5.9.4,1.8.7,2.7,1.2.4.2.8.9.1,1.5-.2.1-.2.4-.3.7.3,0,.6,0,.8,0,.5-.1,2.1,1,1.9,1.4-.1.3-.9.7-1.2.5-1.5-.8-3.3-.6-4.8-1.3-.2,0-.5.2-.7.4.2.1.3.3.5.4.7.3,1.5.6,2.2.9.8.3,1.5.7,1.3,1.8-.2,1,.4.9,1,.8.2,0,.3-.2.5-.3,1-.7,1.8-1.1,2.9.1.4.5,1.8.1,2.7,0,.1,0,.4-.4.3-.4-.3-.3-.6-.7-1-1,0,0-.4.2-.5.3-.2.2-.3.6-.5.7-.1,0-.5,0-.6-.1-.1,0-.2-.4-.2-.5,0-.3.1-.6.2-.9.6-1.6,1-1.7,2.4-.5,1,.8,2.2,1.4,3.3,2.2,1.3.9,2.9,1.3,3.9,2.6,0,0,.2.2.3.2,1.5-.4,2.5.7,3.7,1.2,1.3.5,2.5.9,3.8,1.3,1.2.4,2.4.9,3.6,1.3,2.3.8,4.6,1.8,7,2.1,3.2.4,6.3,1.2,9.4,1.8,4.9.9,9.8,1.1,14.8,1.1.7,0,1.5.5,2.2.3,2.1-.5,4.1-.2,6.2-.4,1-.1,1.9.3,2.9-.2.9-.4,2.2,0,3.3-.1,3.4-.3,6.8-.4,10.2-1.5,1.4-.4,2.9-.6,4.4-.9,3.2-.6,6.4-1.4,9.4-2.6,2.8-1.1,5.7-2.2,8.5-3.4,2.5-1.1,4.9-2.5,7.5-3.4,1.5-.6,1.8-1.3,1.8-2.8,0-6,0-12,0-18,0-4,.2-8.1.4-12.1,0-1.3-.6-2.5-.1-3.9.4-1.2.2-2.8,0-4.1-.2-1.9,0-3.8,0-5.7s0-3.3,0-4.9-.3-2.2,0-3.4c.2-1.1,0-2.4,0-3.6v-11.1c0-1.3,0-2.5,0-3.8,0-.8.5-1.6,0-2.5-.4-.7.3-1.4,0-2.3-.3-.8-.1-1.8,0-2.8,0-.8.2-1.6.4-2.4,0,0,0-.1,0-.2-1-2.2.2-4.5-.2-6.7-.1-.7.2-1.4.2-2.2,0-6.4,0-12.8,0-19.2,0-.9-.2-1.7.3-2.7.3-.4-.3-1.3-.3-2,0-2.3-.2-4.6,0-6.9.2-1.3-.1-2.6,0-3.8,0-1-.4-2.1.4-3-.8-.9-.3-2-.4-3,0-.7.3-1.5.3-2.2,0-1.1-.2-2.3-.3-3.4,0-.4-.1-.9,0-1.3.6-1.5.4-3,.2-4.4-.3-1.7-.7-2.5-1.1-2.8-.9-.5-1.9-.9-2.8-1.3-2.2-1.1-4.4-2.1-6.6-3.2-2.4-1.1-4.9-2-7.2-3.2-4.1-2.1-8.4-3.6-12.7-5.3-4.5-1.8-9.2-3.3-13.9-4.8-4.5-1.4-9-2.8-13.6-4.1-1.9-.5-4-.6-5.8-1.3-2.8-1.1-5.7-1.5-8.5-2.3-3.1-1-6.3-1.9-9.5-2.4-2.1-.3-4.2-1.3-6.3-1.4-2.4-.2-4.6-1.3-7-1.4-2.1,0-4.2-.8-6.3-1.1-1.5-.2-3.1-.2-4.6-.4-1.9-.3-3.8,0-5.6-.8-.1,0-.3,0-.4,0-1.9-.1-3.7-.3-5.6-.4-1.2,0-2.5,0-3.7,0s-1.7,0-2.5,0-2.3.2-3.4-.3c-.4-.2-1.1.4-1.6.3-2.9-.4-5.8.5-8.7-.2-2.1.7-4.4-.2-6.6.5-.8.2-1.9,0-2.8.1-2.3,0-4.7.2-7,.4-3.1.3-6.2.5-9.2,1.2-3.2.8-6.5.6-9.5,1.9-2.6-.3-4.9,1.2-7.4,1.2-1.1,0-2.3.6-3.4.9-3.5.9-6.8,2-10.3,3-2.1.6-4.1,1.4-6.2,1.9-3.7.9-7.1,2.7-10.7,3.8-2.2.7-4.3,1.8-6.4,2.7-3.4,1.5-7,2.7-10.2,4.5-1.7.9-3.4,2-5.3,2.6-1.9.6-3.2,1.8-4.8,2.8-2.1,1.3-4.3,2.4-6.4,3.6-2.2,1.3-4.5,2.6-6.7,4-1.1.7-2.2,1.3-3.3,2-.1,0-.4.3-.3.3.5,1-1.1,2,0,3.1,0,0,0,.3,0,.4-.9,1.4.2,2.8,0,4.2-.2,1.4,0,2.9,0,4.4,0,1.4.4,2.7.3,4.1-.1,1.3,0,2.5,0,3.8s0,3.1,0,4.6,0,1.3.3,1.9c.3.6-.4,1,0,1.7.3.6,0,1.5-.2,2.2,0,.2-.2.6-.1.7.8,1.5.2,3.1.4,4.6.2,1.3,0,2.6,0,3.8,0,2.9.4,5.8.5,8.7,0,.8-.2,1.7-.2,2.5,0,1,.1,2,.2,2.9,0,1,.1,1.9.2,2.9,0,1,0,2,0,3s0,2.1,0,3.2c0,1.7.2,3.4.4,5.1,0,1.1-.5,2.1,0,3.3.4,1.1-.2,2.4.1,3.5.4,1.6-.1,3.1.2,4.7.3,1.6.1,3.4.1,5.1,0,2.5,0,5.1.3,7.6.1,1.4.3,2.8.2,4.2s-.2,3,0,4.5c.5,4.5.2,9.1.4,13.6,0,1.6,0,3.2.1,4.8.2,1.8.1,3.7.2,5.5,0,1.3.2,2.7.4,4,0,.5,0,.8-.7.8-.4,0-.9.4-1.3.6-.4.2-.2,1.2-1.2,1-.6-.1-1.2,0-1.6-.6-.1-.1-.4-.1-.7-.2,0,.2,0,.5,0,.7.3.6.2,1.5,1.3,1.4.4,0,.8.6,1.2.8.4.2,1,.2,1.5.2,0-.4,0-.8-.1-1.2-.2-.6-.2-1,.3-1.3.2-.2.6-.1.9-.2,0,.5.6.6.4,1.4-.3,1.2-.5,2.7.2,4,0,.1,0,.4,0,.6.2,2.7-.5,5.3.4,8-.7.9-.3,1.8-.2,2.8,0,.9.1,1.8.2,2.7,0,.2.3.4.4.4,2.4.6,5,.7,7.3.3,1.6-.3,3.4-1.1,4.8-2.3,4.4-3.9,9.3-7,15.2-8.3,1.9-.4,3.7-.9,5.6-.7,1.6.1,3.2.5,4.8.7.9.1,1.8.1,2.7.3,3.1.7,5.9,2.1,8.1,4.5.3.4.9.5,1.2.9.5.6.8.3,1.3-.1,2.3-2.1,4.6-4.1,7-6.2.3-.2.7-.3.9-.6.6-.6,1-.3,1.2.2.7,1.8,2.5,3.3,1.4,5.5,0,.1.4.5.7.7.3.2.8.2,1,.5.3.4.6.9-.3,1.2-.3,0-.7.2-1,.5-.3.3-.6.6-.9,1,.6.5.7-.3,1.1-.4.3-.1.6-.1.9-.2.9-.4,1.3-1.3,1.1-2.2-.2-.9-.4-1.8-.8-2.7-.2-.5-.7-.9-.9-1.4-.2-.4-.2-.8,0-1.2.2-.7.7,0,1,0,1.2.1,2.4.3,3.6.4.4,0,.8,0,.8.6,0,.6-.2.6-.7.7-.5,0-1,.3-1.3.6-.3.3-1.3.6-.6,1.3.4.5.9,1.3,1.7.3.2-.2.8-.3,1.2-.2.3.1.9.6.3,1-.5.4-1.1.8-1.7,1.2-.6.4-1.4.7-1.9,1.2-1.4,1.5-3.4,2.1-5.1,3.1-3.4,2-6.8,3.9-9.5,6.7-.5.6-1,.6-1.7.1-1.4-.9-2.9-1.6-4.3-2.4-.8-.4-1.6-.9-2.5-1.2-1.9-.7-3.8-1.3-5.8-1.9-.4-.1-.9-.1-1.3-.1-2,0-4.1,0-6.1,0-3.9.2-7.6,1.2-10.9,3.5-2.2,1.6-4.3,3.4-6.5,4.9-1.2.8-2.8,1.4-4.4,1.5-2.7.2-5.4,0-8-.9-2.1-.7-4.2-1.8-6.1-3.1s-3.4-2.6-4.9-4.1c-2.5-2.6-4.9-5.2-6.3-8.6-.5-1.2-1.2-2.4-1.8-3.6-.1-.3,0-.6,0-1,.3,0,.6.1,1,.2.2,0,.4.3.6.4.6,0,1.2,0,1.5-.6-.4-.2-.9-.5-1.3-.6-.3,0-.7,0-1,0-.9,0-1.5,0-1.7-1.3-.2-.8-.7-1.7-.8-2.6-.2-.8-.6-1.7-.6-2.5,0-.9,0-1.9-.2-2.6-.6-2.1-.6-4.2-1-6.3-.2-1.4-.9-3.1-.1-4.6,0-.1,0-.3,0-.4.1-2.7.2-5.3.4-8,0-1.1.4-2.2.8-3.2.6-1.5,1.3-3,2-4.5.1-.3.2-.5.3-.8-.3,0-.7-.1-.9,0-.8.7-1.6,1.4-2.1,2.3-.9,1.5-1.8,3.1-2.5,4.7-.9,2.1-1.5,4.4-2.3,6.6-.7,1.7-.7,3.5-1.2,5.3-.2.7-.3,1.5-1.4,1.3-.2,0-.4.2-.5.3.2.1.3.3.5.4.7.3.8.8.7,1.4-.2,2,.5,4-.4,6,.7,1.4,0,3,.4,4.5.3,1.5.1,3,.4,4.6.6,3.6,1.3,7.2,2.5,10.7.6,1.8,1.5,3.5,2.2,5.2,1,2.4,2.6,4.5,3.6,6.9.8,1.9,2.2,3.5,3.4,5.1,1.7,2.2,3.5,4.4,5.3,6.5,1.1,1.3,2.2,2.7,3.2,4,.5.6.9,1.4,1.2,2.1.1.2,0,.6-.2.9,0,.1-.3.2-.5.3.2,0,.4.1.5.1.8.1,2,0,2.3.5,1.7,2.2,4.1,3.7,5.4,6.2.5,1.1.8,2.2.8,3.4,0,2.6,0,5.2.4,7.8.5,2.7.1,5.5.3,8.2,0,1.2-.3,2.4.3,3.6.2.4-.4,1.2-.3,1.8.6,3.5.3,7.1.4,10.6,0,1.2-.5,2.4,0,3.6,0,.2-.2.4-.2.6-.2-.2-.4-.4-.5-.6-.2-.3-.2-.6-.4-.8-.9-.7-1.4-1.4-.1-2.3.3-.2-.6-1.9-1.1-1.9-.1,0-.4.2-.4.3,0,.2.4.5.3.6-.3.5.8.7.2,1.1-.4.3-.7.8-1.4.5-.3-.1-.7-.2-.9-.1-.3.1-.4.5-.6.7.2.1.4.3.7.4.7.4,1.4.7,2.1,1,.8.4.9,1.1.7,2-1,0-1.9-.2-2.9-.3-.2,0-.4.3-.6.5.2,0,.4.2.6.3.6.2,1.3.4,1.9.7.4.2.7.5,1,.8,0-.4,0-.9.1-1.3,0-.2,0-.4,0-.6M33.9,355.8c0-.1,0-.2,0-.4,0,.1-.2.2-.4.4,0,.1,0,.2,0,.4,0-.1.2-.2.4-.4M35.3,331.8c.1,0,.3.1.4.4-.1.7,0,1.5-.4,2-1,1.2-.5,2.2,0,3.3.2.3.4.6.6.9,0-.4.2-.7.2-1.1,0-.2-.2-.5-.4-.6-.6-.6-.6-1.1,0-1.6.4-.4.8-.8,1.2-1.2.1-.1.1-.4.2-.5-1.3.6-.7-1.1-1.4-1.4-.1,0-.3-.1-.4-.4-.1,0-.3-.1-.4-.4-.1,0-.2,0-.4,0,.1,0,.2.2.4.4.1,0,.3.1.4.4M157.3,182.1c.2-.1.4-.3.6-.5,0,0,0-.2-.1-.3-.2.1-.4.3-.5.4,0,0,0,.2-.3.3,0,.1,0,.2,0,.4,0-.1.2-.2.4-.4M286.6,126.1c-.2.2-.4.4-.5.7.1,0,.3.1.3.1.2-.3.3-.5.6-.8v-.4c0,.1-.1.2-.4.4M226.5,207.7c.1,0,.2,0,.4,0-.1,0-.2-.2-.4-.4,0-1.2-.7-2.1-1.4-3-.2-.2-.5-.3-.8-.4,0,.2,0,.5.2.7.6,1,1.3,1.9,2,3M133.9,178.9c.6-.8,1-.2,1.4.2,0,0,.3,0,.4,0,0-.1,0-.3,0-.4-.7-.9-1.7-1.2-2.8-1.4-.3,0-.5-.1-.8-.2.1.3.2.6.4.8.2.2.6,0,.9.3.2.2.2.5.1.8-.2,0-.3,0-.5.1,0,0,0,.2,0,.3.2-.1.4-.2.8-.4M201.5,208.4c.2.2.4.4.7.5,0-.1.1-.3.1-.3-.3-.2-.5-.3-.8-.6.4-.6.6-1.4,1.1-1.9.7-.7.4-1.1-.2-1.5-.3-.2-.5-.3-.8-.5-.1,0-.3-.2-.4-.3,0,.2-.2.4,0,.5.6.7.7,1.5-.1,2-.7.4-1.5,1.1-2.3,0,0-.1-.7,0-.9.1-.4.3-.7.7-1,1.1.2,0,.4.1.5.1,1.4.1,2.8.3,4.2.6M218.2,208.4c-.8-.9-1.6-1.8-2.4-2.7-.6-.7-1.2,0-1.7.2-.8.3.3.4.1.8-.2.5-.2,1.1-.3,1.6-.2.9.9,2.5,1.7,2.3,1-.3,2.3-.3,2.6-2.1M84.9,195c0,.3-.3.7-.2.9.7,1.2,2,1,3.2,1.4,1,.3.7-.2.6-.5-.3-.7-.8-1.4-.4-2.3.2-.5-.2-.7-.7-.4-.7.5-1.4.8-2.5.9M52.6,200.7c.3-.7.5-1.2-.6-1.2-1.1,0-3.2,1.8-3.5,3.1,0,.1,0,.2,0,.4.1,0,.3,0,.4-.2,1.1-.7,2.2-1.4,3.7-2.1M28.2,202.5c.1,1.3,1.2,1,1.9,1,.5,0,1.5,0,1.6-.3.2-1-.9-.2-1.2-.8-.2-.4-.8-.7-1.2-.8-.4-.2-1.1-.5-1.1.9M22.2,158.5c0,.5-.2,1-.2,1.5,0,.2,0,.5.2.7.2-.2.3-.4.5-.6.2-.3.5-1,.7-.9.9,0,.9-.4.9-1.1,0-.2-.3-.6-.3-.6-.5.2-1.5-.6-1.7,1M36.1,368.3c0,.2,0,.9.4.3.6-.7,1-1.7,1.4-2.6,0,0-.2-.4-.2-.4-.8.4-1.5.8-2.2,1.3,0,0,.3.7.7,1.2M13.7,164.6c.9,0,1.8-.2,2.6.4.2.2,1,0,.7-.4-.4-.5-1.1-.9-1.8-1.1-.7-.2-1.6-.2-1.5,1.1M253.1,204.5c0-1-.8-1.1-1.5-1-.3,0-.6.6-.9.9.4.3.2,1.3,1,1.1.5-.1.9-.4,1.3-1M36.5,346.9c.4-1.5-.3-3-1.6-3.2-.1,0-.2.2-.4.3.9.8,1.1,2,1.4,3.1,0,0,.2,0,.6-.2M264.4,199.1c-.7.1-1.5.2-2.2.4-.1,0-.3.5-.2.7.5.8,1.3.6,1.9.4.5-.2,1.4-.5.5-1.5M191.2,208c0,.3,0,.5,0,.8,0,.9.4,1.2,1.2,1,.1,0,.2-.4.2-.7-1.5-.2-.1-1-.3-1.5,0-.1.1-.4.2-.5-.5.1-1.3-.6-1.4.9M33.5,313.8c.2,0,.5.3.5.2.5-.4.7-.9.2-1.4-.5-.4-1.1-.8-1.6-1.1,0,.5.1,1,.3,1.5,0,.2.3.4.6.8M145.8,178.1c0,0,.2-.2.3-.3,0-.4.1-.8.2-1.2-.3.1-.6.3-1,.4-.3.1-.6.2-.9.3-.3,0-.5.2-.8.2.3.2.5.5.8.5.3,0,.7,0,1.4,0M291.2,58.1c.6-.6.6-1.2,0-1.9-.1-.2-.4-.2-.7-.3,0,0-.3.4-.2.5.3.6-.7,1.6.8,1.7M107.3,189.2c.2-.1.4-.2.6-.3,0,0-.1-.4-.2-.4-.5,0-1,0-1.6,0-.3,0-.6,0-.9.1.2.3.4.7.7.8.3.1.8,0,1.4-.2M150.5,184.8c.4,0,.9,0,1.3-.1-.2-.4-.4-.8-.7-1.2-.2-.4-.4-.7-.7-1.1-.1-.1-.4-.1-.5-.2,0,.2,0,.5,0,.5.9.5.6,1.2.5,2.1M175.9,193.2c-.2,0-.5.1-.7.3-.5.4-.4.7,0,1.1.5.4,1.4.3,1.6-.4,0-.2-.5-.5-.9-1M111.5,186.2c0,0-.2.2-.3.3-.7.4-.5,1.1-.5,1.7.1,0,.3,0,.4,0,.8-.2.9-.8,1.1-1.4,0-.2-.4-.5-.8-.5M34.5,339c.1.3.3.5.4.8.2.3.4.6.6.9.1-.1.4-.2.4-.3,0-.4.2-.9,0-1.2-.2-.3-.8-.3-1.4-.2M25.6,199.1c.9,0,.5-.9,1-1.1-.2-.1-.4-.5-.5-.4-.4.1-.8.4-1.1.6-.7.5,0,.7.6,1M94.6,192c.8-1-.6-.6-.7-1.1,0,0-.5,0-.8.2-.2.1-.2.4-.3.6.3,0,.5.2.8.3.2,0,.4,0,1,0M32.3,293.9c-.2,0-.6.3-.6.3.2.4.3.9.6,1.3,0,.1.3.2.5.2,0-.2.2-.5.2-.7-.1-.3-.3-.6-.7-1.1M92.8,195.4c.5.3,1,.7,1.6,1,.2,0,.5-.2.8-.2-.2-.2-.4-.4-.6-.5-.5-.2-1.1-.3-1.8-.2M200.1,211.4c.9,0,.5-.6.5-1-.4,0-.9,0-1.2.1-.8.4.1.6.6.9M34.7,329.3c0,.2-.2.3-.2.5,0,.2,0,.4,0,.6.2-.1.4-.2.5-.3.2-.3.4-.6.5-.9,0-.2-.2-.4-.3-.6-.2.2-.3.4-.7.8M31.3,300.5c0,.2,0,.4.1.5,0,0,.2,0,.3-.1,0-.3.1-.6,0-.8-.4-.4-.9-.7-1.3-1,0,0,0,0-.2,0,.3.4.6.7,1.1,1.3M33.7,363.2c.4.2.6,1,1.2.4-.3-.3-.5-.5-.8-.8,0,0-.3,0-.4.4M34.5,321.1c.3.3.6.6,1,.9,0,0,.2-.2.2-.2-.3-.3-.5-.6-.8-.9,0,0-.1,0-.4.2M184.2,202.6h-.4c0,.5,0,1.2.8,1.2.2,0,.3-.1.5-.2-.2,0-.3-.1-.5-.2-.1-.2-.2-.4-.5-.8M180.3,200.7c.2-.2.4-.3.6-.5-.3-.1-.6-.3-.9-.3-.2,0-.3.2-.5.3.2,0,.4.2.8.5M138.4,176.3c.2,0,.4,0,.5-.2.1-.2.2-.4.3-.6-.2,0-.5-.2-.7,0-.3.3-.9.5-.1.9M73.2,191.2c-.3,0-.6,0-.9,0,.2.2.3.5.5.6.5.2.7,0,.4-.7M4.1,172.1c-.1,0-.3,0-.4,0-.2,0-.4.1-.6.3,0,0,0,.5.1.5.2,0,.4,0,.6-.1.2,0,.3-.3.2-.6M193.8,207.1c0,.2-.2.4-.2.5.1.2.4.4.5.3.2-.1.4-.4.6-.6-.2,0-.3,0-.9-.1M302.1,155.5c-.2-.3-.4-.5-.6-.8,0,0-.2,0-.3.1.2.2.3.4.9.7M33.1,341.2c0,.3,0,.5,0,.8,0,0,.4,0,.4,0,0-.3,0-.5-.4-.8M26.2,68.8c.5.5.8,0,1.1-.3,0,0,0-.2,0-.3-.3.1-.5.3-1,.6M77,22c-.2-.2-.4-.4-.6-.5,0,.1-.2.3-.1.3.2.2.4.3.8.2M33.9,337.6c.2,0,.3,0,.5-.1,0,0,0-.2,0-.2-.2,0-.4,0-.4.4M36.5,352.1c-.2,0-.4-.1-.6-.2,0,0,0,.2,0,.2.2,0,.3,0,.7,0M136.1,176.3c-.2,0-.4-.1-.6-.2,0,0,0,.2,0,.2.2,0,.3,0,.7,0M212.6,205.3c.2,0,.4.1.6.2,0,0,0-.2,0-.2-.2,0-.3,0-.7,0M186.1,201.3c-.2,0-.4-.1-.6-.2,0,0,0,.2,0,.2.2,0,.3,0,.7,0M93.8,187.6c0,0,.1-.2.2-.2-.1,0-.2,0-.2.2M228.1,210.4c0,0,.2.1.2.2,0-.1,0-.2-.2-.2M229.7,215.2c0,0-.2-.1-.2-.2,0,.1,0,.2.2.2M27,234.2c0,0-.2-.1-.2-.2,0,.1,0,.2.2.2M289.2,175.5c0,0,.2.1.2.2,0-.1,0-.2-.2-.2M35.3,273.1c0,0-.2-.1-.2-.2,0,.1,0,.2.2.2M34.1,282.2c0,0,.2.1.2.2,0-.1,0-.2-.2-.2M34.9,393.7c0,0-.2-.1-.2-.2,0,.1,0,.2.2.2M20.4,138c0,0-.1.2-.2.2.1,0,.2,0,.2-.2Z"/>
    <path d="M171.3,415.3c.2.3.3.7.4.8.4.1.9,0,1.4,0,.3,0,.8-.2.9-.5.1-.2-.1-.7-.3-.9-1-1.2-1-1.2.1-2.3,2.5-2.5,5-5,7.9-7.2,1.3-1,2.2-2.6,3.4-3.7,1.4-1.2,2.5-2.9,4.4-3.7.9-.4,1.6-1.5,2.4-2.3,2.1-2,4.3-4,6.4-6,2.8-2.7,5.6-5.4,8.5-8.1,2-1.8,4.1-3.5,6.1-5.3,1.4-1.2,2.6-2.6,3.9-3.9,2.9-2.8,5.7-5.5,8.6-8.2,3-2.8,6.1-5.5,9.1-8.3,1.6-1.5,3-3.1,4.6-4.6.6-.6,1.5-.9,2.2-1.4.8-.7,1.6-1.5,2.4-2.3.7-.7,1.4-1.3,2.3-1.6.5-.1,1.1-.5,1.4-1,1-1.9,2.6-3.2,4.2-4.6,1.9-1.6,3.5-3.6,5.3-5.3,1.9-1.7,3.9-3.3,5.8-5.1,1.6-1.5,3-3.1,4.6-4.6,3.4-3.2,6.9-6.4,10.3-9.5,1.2-1.1,2.6-2,3.5-3.3.6-.8.5-2.2.6-3.3,0-4.3,0-8.6,0-12.9,0-1.4.3-2.8.3-4.2,0-1.4-.2-2.8-.3-4.2,0-1.2.2-2.3.2-3.5,0-1-.6-2,.2-3-.7-1.2.5-2.7-.4-3.9,1.1-1.1-.6-2.5.4-3.7-.4-1.3,0-2.6,0-3.8,0-4.6,0-9.3,0-13.9,0-1-.3-2.1.4-3,.1-.2.1-.7,0-.8-1.1-.8.3-1.8-.3-2.8-.4-.8-.4-2.2,0-3.1.6-1.5-.4-2.9.3-4.3.1-.2-.4-.8-.3-1,.3-.5,1-.8,1.1-1.3.1-.5-.2-1.2-.2-1.8,0-.1.3-.3.4-.4,2-1.7,4-3.5,6-5.2.5-.5,1-1,1.5-1.5s.9-.9,1.4-1.4c1.2-1.3,2.4-2.5,3.5-3.9.9-1.2,1.8-2.4,2.6-3.6.4-.7.6-1.5,1.5-1.7.2,0,.4-.4.4-.6.8-2.7,2.8-4.8,3.9-7.3.5-1.2,1.2-2.3,1.8-3.4,1.1-2.3,2.2-4.5,3.2-6.8,1.7-4,3.5-8,4.6-12.2.4-1.6,1.2-3.1,1.6-4.7.6-2.3,1.6-4.6,2.1-6.8.7-2.5,1.3-5,1.8-7.6.5-2.7,1.3-5.4,1.9-8.1.4-1.9.5-3.9.8-5.8.3-2.2.8-4.3,1.1-6.5.2-1.2.4-2.4.4-3.6,0-2.4.1-4.7.8-7,0-.1,0-.3,0-.4.1-2.7.1-5.5.5-8.2.1-1.3-.4-2.5,0-3.6.4-1.3.2-2.6.3-3.8,0-.2.2-.4.3-.6.2.1.4.3.5.4.4,1.1.8,2.2,1.2,3.3.7,1.8,1.4,3.5,2,5.3.3.9.6,1.8.7,2.7.3,2.8.7,5.6.9,8.4.2,2.9.2,5.9.2,8.8,0,2.5-.1,5-.4,7.4-.3,3-.6,6.1-1.3,9-.3,1.3.2,2.8-.9,4-.1.1-.2.4-.2.5.3,2.3-1,4.4-1.5,6.6-.5,2.9-1.6,5.7-2.6,8.5-.9,2.8-2,5.7-2.9,8.5-.5,1.4-1.5,2.7-2,4.1-.4,1.2-.8,2.3-1.4,3.4-1.2,2.2-2.2,4.5-3.3,6.8-.5.9-.9,1.9-1.5,2.7-1.1,1.6-2.2,3.2-3.3,4.8-1.3,1.8-2.5,3.6-3.9,5.3-1,1.3-2,2.5-3.1,3.7-1.5,1.6-2.8,3.4-4.1,5.2-1.4,1.9-3.1,3.7-4.7,5.4-1.4,1.5-3,3.4-2.7,6,.2,1.8,0,3.6,0,5.4,0,1.2-.3,2.4-.4,3.6-.1,1.2.3,2.5-.4,3.6,0,0,0,.3,0,.4-.1,3-.2,6-.4,9-.2,2.5-.6,5-.6,7.4,0,1.5-.3,3.1-.2,4.6,0,1.2-.2,2.4-.4,3.6-.1,1.2.2,2.4-.4,3.6-.2.5,0,1.2,0,1.8,0,2-.3,3.9-.7,5.9-.1.6.3,1.2.3,1.8,0,3-.3,5.9-.8,8.8,0,0,0,.1,0,.2,0,1.9.1,3.9-.4,5.8-.2.7.3,1.4,0,2.3-.2.8,0,1.7,0,2.6,0,2-.3,3.9-2.4,4.9-.5.2-.8.8-1.2,1.3-.2.2-.3.7-.6.7-1.9.7-3,2.3-4.4,3.6-.2.2-.4.4-.6.6-1.6,1.2-3.2,2.4-4.8,3.6-1.3,1.1-2.5,2.3-3.8,3.3-2,1.6-4,3.2-5.9,4.8-1.7,1.4-3.3,2.8-5,4.2-2.1,1.7-4.2,3.3-6.2,5.1-1.9,1.6-3.8,3.3-5.7,4.9-2.3,1.9-4.6,3.8-6.9,5.8-1.1.9-2.1,1.9-3.2,2.8-2.3,2.1-4.6,4.1-7,6.2-1.2,1.1-2.6,2-3.9,3.1-.8.7-1.5,1.5-2.2,2.2-2.4,2.2-4.8,4.3-7.2,6.5-3.1,2.7-6.2,5.4-9.3,8.1-1.2,1-2.2,2.2-3.4,3.3-2.8,2.7-5.6,5.5-8.5,8-1.9,1.7-3.7,3.4-5.5,5.2-2.6,2.5-5.3,5-7.9,7.5-1.6,1.5-3.2,2.9-4.7,4.3-.7.7-1.2,1.5-1.8,2.2-2.4,2.3-4.8,4.6-7.3,6.9-1.1,1-2.1,2.1-3.2,3.2-1.8,1.7-3.5,3.4-5.5,5-.6.5-1.6.6-2.5.7-1.9,0-3.8-.1-5.7,0-1.4.1-2.8,0-4.2,0-1.5,0-3,0-4.6,0-.7,0-1.5-.5-2.2-.3-1.1.3-2.2-.1-3.3,0-.7,0-1.3,0-2.1.3-.7.3-1.7-.3-2.6-.3-.9,0-1.9,0-2.7.3-1,.3-2,.1-2.8,0-1.6-.3-3.1,0-4.7,0-.8,0-1.6-.2-2.4-.4-.9-.2-1.7.2-2.7,0-1.1-.2-2.4-.2-3.4,0-1.1.2-2.3-.8-3.3.3-1-1-2.2.5-3.3-.4-.2-.2-.8,0-1.2,0-1.4-.1-2.8.3-4.2-.4-.9-.4-1.8.8-2.6,0-1.1.9-2.3,0-3.4,0-6.5-.1-13-.3-19.5-.4-1.9,0-3.8,0-5.8,0-.9,0-2.1-.6-2.8-.3-1,.5-1.7,0-2.5,0-1.5,0-3,.4-4.4.2-.8,0-1.6,0-2.3,0-.8-.1-1.6-.2-2.4-.2-.7,0-1.4-.3-2.1.3-.2.2-.8,0-1.3-.1-.3,0-.6-.3-.9-.2-2.2.6-4.5-.7-6.7.3-.5.2-1.2-.2-1.8-.3-.6,0-1.2,0-1.9,0-.7,0-1.5.1-2.2,0-.7-.2-1.1.6-1.9.1-.5-.3-1.4-.1-2.1,0-.7,0-1.5-.3-2.3.3-.3.3-1.1.2-1.5,0-2.4-1.2-5.1.3-7.5-.7-.6.7-1.5.3-2.2.4-1,0-1.9-.2-2.9-.2-.9,0-1.8.2-2.8.2-.9,0-1.7-.1-2.6-.3-1.2-.2-2.4.3-3.7.5-.7.1-1.6.4-2.1.1-1.5-.8-2.5-.2-3.6.8-.2.1-.4.2-.6.3,0-.3-.2-.6,0-.7,1-1.3,1.5-3.1,3.2-3.9.3-.1.6-.3.7-.6,1-2.1,3.2-2.9,4.8-4.3,1.7-1.6,3.7-2.9,5.5-4.4,2.3-1.8,4.4-3.7,5.9-6.3.3-.5.8-.9,1.2-1.3,2.1-2,2.1-2,3.4-4.9.2-.4.7-.6.9-1,.7-.9,1.4-1.8,2-2.8.5-.8.7-2,2.2-1.2.2,0,.5-.3.8-.3.4,0,1,0,1.1.2.2.4.2,1.1,0,1.3-1.5,1.1-1.3,3.5-3.3,4.2-.2,0-.5.5-.5.8-.6,2.5-2.3,4.3-4.2,6-1,.9-1.9,1.8-2.8,2.8-1.9,2-4.2,3.4-6.5,4.9-.6.4-1.2.7-1.8,1-1.1.6-2.1,1.3-3.1,2.2-1.3,1.2-2.7,2.3-4.1,3.4-.4.3-1.3.7-1.3.8.3.9,1.1.4,1.7.4,2,0,4,.3,6-.3.6-.2,1.5.4,2.1.2.8-.2,1.3-.2,2,.2.4.2,1,0,1.6,0,8.1,0,16.3,0,24.4,0,.9,0,1.8-.3,2.6.4.2.1.6.1.8,0,1.5-.7,3.1-.4,4.6-.4,7.7,0,15.3,0,23,0,.8,0,1.7-.2,2.3.6.1.2.9.2,1,0,.8-1,1.8-.6,2.7-.6,1.3,0,2.6.3,3.9-.4,0,0,.1,0,.2,0,1.5,1,3,.1,4.5,0,1.2,0,2.4,0,3.6,0,1.3,0,2.5,0,3.8,0,1.4,0,2.9-.1,4.3.4.3.1.8,0,1.2,0,1.5-.4,2.1,0,2.5,1.3,0,.3.4.5.6.7.2-.2.5-.5.6-.8.1-.5,0-1.3.2-1.5.4-.3,1.1-.1,1.7-.1,1.1,0,2.3,0,3.4-.3,1.5-.3,3.2.1,4.8,0,.3,0,.6.2.8.4.2.1.4.3.6.5-.2,0-.5-.1-.7-.1-.1,0-.2,0-.4,0,0,.1,0,.3.2.4.5.4.8.6,1.4-.1.7-.8,1.6-1.8,3-.8.4.3,1.3.2,1.7,0,.7-.4,1.2-.2,1.9,0,.8.2,1.7-.2,2.6-.3.9,0,1.9-.1,2.8,0,.8.2,1.6-.4,2.5,0,.8.3,1.9.2,2.8,0,1.4-.2,2.7.3,4.1-.3.5-.2,1.2.3,1.8.3.5,0,1,0,1.5,0,1.3,0,2.7.4,4-.2.1,0,.3-.1.4,0,2,1.2,4.2-.8,6.3.3.7.3,1.8-.7,2.8,0,0,0,.2-.1.3-.2.9-.8,1.9-1.6,2.8-2.4,1.3-1.3,2.4-2.9,4-3.8,1.7-1,2.5-2.9,4.3-3.7,1-.5,1.4-1.9,2.7-2.2M283.7,248.9c0,.4,0,.8,0,1.2,0,0,.5.2.6.1.2-.1-.1-1.2-.7-1.3M127.3,429.8c.1-.8-.4-.6-.8-.6-.1,0-.2.3-.3.5.3,0,.7.2,1.2,0M121.6,430.4c.1-.1.3-.3.4-.4,0-.2,0-.4,0-.7-.2.1-.4.2-.5.4-.1.1-.1.3,0,.7M244.8,347.7c.2.2.4.4.6.5,0-.1.2-.3.1-.3-.2-.2-.4-.3-.8-.2M125,429.4c0,0,.2.1.2.2,0-.1,0-.2-.2-.2Z"/>
    <path d="M74.9,170.6c-.4-.1-.6-.2-.8-.3.5-1-1.1-2,0-3-.8-.9-.3-2-.4-3,0-1.9,0-3.8,0-5.7,0-1.4-.4-2.8-.1-4.1.2-1.3-.4-2.5-.2-3.8.2-1.4,0-2.8,0-4.2,0-1.5,0-3,0-4.6s0-3,0-4.6c0-.5.2-1.1.4-1.6,0-.2.4-.3.6-.3.3,0,.7.1,1,0,.5-.3.9.8,1.1,0,0-.3-.6-1.1-1.1-1.2-1-.2-1.8-.4-2.1-1.5,0-.1-.3-.2-.3-.3,0-.8.4-1.6.3-2.4,0-.7-1.1-1.2-.4-2.1.2-.2,0-.6,0-1,0-1.2-.2-2.3-.2-3.5,0-1,.3-2.1.2-3.1-.6-5.3-.3-10.6-.4-16,0-1.2-.5-2.4-.3-3.6.2-1.2,0-2.3,0-3.4,0-1.3.2-2.5,0-3.8-.3-1.4.2-2.8,0-4.2-.5-4.5-.4-9.1-.4-13.6,0-.5-.2-1.1-.4-1.6-.2-.5.7-.8,0-1.3-.2-.1-.2-.9,0-1.1.9-1.2,0-2.4.2-3.7.2-.9-.2-1.9-.3-2.8-.2-3,.5-6.1-.4-9.2.8-1.5-.3-2.9,0-4.4.2-1.5,0-3,0-4.6,0-.6-.2-1.2-.3-1.9-.1-.7,1-2.2,1.5-1.8,1,.7,2.2.5,2.9.2,1.5-.7,2.9.6,4.3-.2.5-.3,1.3.4,2,.3.6,0,1.1-.7,1.7,0,1.1-1,2.5.5,3.7-.3.4-.3,1.2,0,1.8,0,1.3,0,2.2,1.1,1.8,2.3-.2.7-.3,1.1,0,1.8.2.3,0,1,0,1.5,0,.6.1,1.1.2,1.7,0,3.9,0,7.8,0,11.7,0,1.1-.3,2.2.4,3.2,0,0,0,.3,0,.4-.8,2,.8,4.1-.3,6.1.2,3.3.6,6.6.4,9.8-.1,1.9.3,3.6.3,5.4,0,4.4,0,8.7,0,13.1,0,.7.3,1.5.4,2.2,0,.6-.6,1.2,0,1.9.3.3.1,1.2-.8.6-.2-.1-.5-.2-.7-.2-.2,0-.3.3-.5.4.1.1.2.3.4.3,1.5.5,1.6.5,1.6,2.1,0,1.3,0,2.6,0,4v3.2c0,1-.2,2,0,3,.3,1-.2,1.9,0,2.9.7,5.7.3,11.5.4,17.3,0,.8.4,1.6,0,2.5-.3.7.1,1.6,0,2.4-.1,1.1.4,2.3.3,3.4-.1,1.3.2,2.6,0,4s0,1.9,0,2.9c0,1.7-.1,3.4,0,5.1.2,1.7-.1,3.5.1,5.1.3,1.8.1,3.6.2,5.4.1,2,0,2-1.9,2-4.5,0-9,0-13.5,0-.8,0-1.5.6-2.4,0M87.1,103.5c0,.2-.1.5-.3.7-.7.7.4.7.5,1.1,0,0,.2.1.3.2,0-.3-.2-.6-.3-.9,0-.3,0-.6.2-1,0-.1,0-.2,0-.4,0,.1-.2.2-.4.4M77,131.1c0-.5-2.2-1.2.2-1.4,0,0,.2-.3.2-.4,0-.1-.2-.3-.4-.3-.6,0-1.3,0-1.9,0,.1.4.2.8.3,1.2,0,0,0,.1,0,.2-.8,1.2,0,1.2.9,1.3,1.1.2,2.2.5,2.3,2,0,.1.2.2.3.4.1-.2.4-.3.4-.5.2-1.3-.5-2-2.4-2.5M82.3,133.7c.2,0,.4.1.5.1.4,0,.8,0,1.2.1-.2-.3-.4-.7-.7-1-.3-.3-.7-.6-1.1-.8-.5-.2-1.1-.4-1.6-.4-.3,0-.6.5-.8.8-.1.2,0,.4-.1.7.4,0,.8.1,1,0,.7-.6.9.1,1.5.6M80.9,129.1c0-.2-.1-.5-.3-.7-.2-.3-.4-.5-.6-.7,0,.3-.3.7-.2,1,.4,1.3,1.7,1.8,2.6,2.5,0,0,.4,0,.5-.2,0-.1,0-.4-.1-.5-.5-.4-1.1-.8-1.8-1.5M77.1,126.1c-.6-.1-.6.3-.6.7,0,.7.4.5.8.5.7,0,1.5,0,1.5-.7,0-1-.9-.2-1.7-.5M74.8,124.1c-.3,0-.7.2-1,.3.2.2.5.4.7.6.1.1.3.3.5.2.3,0,.7-.1.7-.3,0-.4.2-1-1-.9M80.9,54.9c-.5,0-1.1,0-1.6,0,.1.5.2.9.4,1.4,0,.2.3.3.5.4,0-.3,0-.5.1-.8,0-.3.2-.6.6-1M88.1,156.5c.3.5.7.6,1.1.2.1-.1.3-.3.3-.3-.2-.3-.4-.7-.8-.8-.4-.2-.8,0-.7,1M82.1,99.7c0-.1,0-.3,0-.4-.3-.2-.5-.9-1-.2-.2.2-.4.3-.6.5.3.1.7.2,1,.3.1,0,.3,0,.6-.2M75.8,122.4c-.2-.2-.5-.4-.7-.6-.2-.1-.5-.2-.8-.3.1.3.2.7.4.9.2.2.6.1,1.1,0M82.7,106.7c.4-.2.9-.4,1.3-.6,0,0-.2-.2-.2-.2-.5.2-.9.4-1.1.8M81.3,127.1c.2,0,.4.1.6.2,0,0,0-.2,0-.2-.2,0-.3,0-.7,0Z"/>
    <path d="M121,90c0,.3.3.4.3.5-.1,4.1-1.1,8-4.7,10.4-2.2,1.5-4.8,2.2-7.8,1.6-2.6-.5-4.5-1.9-6.3-3.5-.9-.8-1.2-2.4-1.8-3.6-1-2.1-1-4.4-.7-6.6.2-1.4,1.1-2.7,1.8-4,.8-1.4,2-2.3,3.3-3.2,1.9-1.3,3.8-1.4,5.7-1.4,3,0,5.5,1.3,7.5,3.8,1.4,1.8,2.3,3.7,2.6,6.1M108.1,82.1c-.6-.1-1.1-.4-1.5.3-.5.8-.3,3,.6,3.4.5.2,1.2.2,1.8,0,.2,0,.5-.7.5-1.1.2-1.1,0-2.1-1.4-2.7M116.4,90c-.2,0-.3.2-.5.3.5.3,1,.6,1.4,1,.8.7.9-.2,1.1-.5.6-.7-.3-.3-.5-.5-.2-.2-.7-.2-1.4-.3M111.9,83.9c-.2,0-.3.1-.5.2-.2.1-.5.2-.7.4,0,.2,0,.5.1.7.3-.1.5-.3.8-.3,1.1-.1.6-.7.2-1M105.5,83.1c-.1.1-.3.3-.4.4.2,0,.4.1.6.2,0-.3,0-.5-.2-.6Z"/>
    <path d="M49.9,104c-3.2-2.6-4.8-5.9-4.2-9.8.3-2,1.3-3.8,2.9-5.3.7-.7,1.2-.2,1.9,0,.2,0,.5,0,.7-.2-.1-.1-.2-.3-.4-.4-.2-.2-.6-.4,0-.7.7-.4,1.4-1,2.1-1,2-.2,4,0,5.9,1.1,1.7,1.1,3,2.4,3.6,4.3.4,1.3,1.2,2.6,1.1,3.9-.1,2.1-.5,4.3-1.7,6.2-1.5,2.3-3.7,3.5-6.3,3.9-1.9.3-3.8-.4-5.5-1.8M55.1,101.7c0,0-.2-.1-.2-.2,0,.1,0,.2.2.2Z"/>
    <path d="M256.3,309c-.3,1.5-.5,2.8-.8,4-.3,1.4-.8,2.9-1,4.3-.3,2-1.5,3.7-1.7,5.6-.2,2.3-1.5,4-2.1,6.1,0,.2-.4.4-.5.5,0-.2-.2-.5-.2-.7,0-.4.2-.8.4-1.2.8-2.3,1.9-4.5,2.4-6.9.4-1.8,1-3.4,1.2-5.3.3-2,1.1-4,1.7-6,.5-2,1.6-3.9,1.5-6.1,0-.3.4-.7.6-1,.2.4.6.8.5,1.2-.5,1.8-.8,3.7-1.9,5.5Z"/>
    <path d="M259.5,295.5c.4-1.5,1-2.8.8-4.2,0-.3,0-.6.2-.9,0-.2.3-.3.4-.4,0,.1.2.3.2.4.1,1.8-.1,3.5-.8,5.2-.3.7-.5,1.5-.8,2.2,0,.2-.3.3-.4.5-.1-.2-.4-.4-.3-.5.2-.7.5-1.4.8-2.2Z"/>
    <path d="M35.4,301c1.1.9.7,1.8.3,2.6,0,.2-.9.3-1.1.1-.9-.8-.5-2.1.8-2.7Z"/>
    <path d="M321.4,148c.3-1.1.5-2.2.7-3.2,0-.2.4-.3.6-.4,0,.2.1.6,0,.7-.6.6-.2,1.3-.3,1.9,0,1.1-.4,2.2-.6,3.3,0,.1-.3.3-.4.4,0-.2-.2-.4-.2-.5.3-.7.5-1.4,0-2.1Z"/>
    <path d="M247.9,340.8c0-1.2-.3-2.3.4-3.2.1-.2.4-.2.5-.4,0,.2.3.4.2.7,0,.9-.2,1.9-.4,2.8,0,.3-.4.6-.6.9-.1-.1-.3-.2-.4-.3,0,0,.2-.2.3-.5Z"/>
    <path d="M249.1,332c.6-.6,1-.4.8.2-.5,1.2-.3,2.4-.4,3.6,0,.2-.2.4-.4.5-.1-.2-.4-.3-.4-.5,0-1.2.2-2.4.4-3.9Z"/>
    <path d="M33.8,137.1c-.2-1.4-.4-2.8-.5-4.1,0-.2.3-.4.5-.6,0,.2-.1.5,0,.6.7,1.4.4,2.7,0,4Z"/>
    <path d="M294,62.1c-.8-1-.3-2.2-.3-3.3,0,0,.2-.2.3-.3.1-.5.2-1,.3-1.4,0,.6.4,1.3.1,1.7-.5.7-.2,1.2,0,1.9.1.4-.2.9-.3,1.5Z"/>
    <path d="M281.3,226.9c-.3,0-.5,0-.6,0-.7,0-1.3,0-1.4-.9,0,0,.6-.3.9-.3.8,0,1.7,0,1,1.2Z"/>
    <path d="M232.9,219c1,0,1.9.2,2.7.3-.8,0-1.7,0-2.5.1-.3,0-.7,0-1,0-.5,0-1,0-1.5,0,0,0,0-.2,0-.3.7.3,1.3-1,2.2,0Z"/>
    <path d="M262.5,281.1c.2-.6.4-1.2.5-1.7,0,0,.2,0,.3,0,0,.6,0,1.2,0,1.9,0,.1-.2.2-.2.3,0,.4.2,1-.6.9,0,0,0-.7,0-1.2Z"/>
    <path d="M32.6,399.8c.5-1.1,1.4-1.1,2.4-1.1,0,0,.2.3.2.4,0,0,0,.3-.2.3-.8.2-1.6.3-2.5.3Z"/>
    <path d="M.8,167.4c-.2.4-.4.6-.6.8,0-.2-.2-.4-.2-.6,0-.2.2-.4.3-.7.4-.6.7-1.2,1.1-1.8.5.9-.3,1.5-.6,2.4Z"/>
    <path d="M282.5,90.4c0,.5,0,.7,0,1,0,.2,0,.4-.1.5,0-.1-.1-.3-.3-.4-.9-.7.3-1.5-.3-2.3-.2-.2.1-.8.3-1.2,0-.1.2-.2.3-.4,0,.1.1.2.1.3,0,.7,0,1.5,0,2.4Z"/>
    <path d="M312.1,172.8c-.6-1.2.5-1.9.9-2.8,0,0,.2-.1.3-.2,0,.1.2.2.1.3-.1.5-.2,1-.4,1.4-.2.4-.5.8-.9,1.3Z"/>
    <path d="M169.8,12c1.5,0,3-.1,4.5,0,.2,0,.4.1.6.2-.2,0-.3.2-.5.2-1.5,0-3.1-.1-4.6-.3Z"/>
    <path d="M9.2,161.4c-.2-1.1,0-2.2.6-3.2,0,.9.1,1.8,0,2.7,0,.2-.4.3-.7.5Z"/>
    <path d="M110,104.4c-.4,0-.7,0-1,0-.2,0-.4-.2-.6-.3.2,0,.3-.2.5-.2.8,0,1.6,0,2.4,0,.2,0,.4.1.6.2-.2.2-.5.5-.7.5-.3,0-.7-.2-1.1-.3Z"/>
    <path d="M276.8,115.5c.2.9-.4.7-.8.7-.5,0-1,0-1.5-.2,0,0,0-.5,0-.7.2,0,.3,0,.5,0,.6,0,1.1,0,1.8.2Z"/>
    <path d="M256.6,198.2c-.8.4-1.6.7-2.3.9-.2,0-.5,0-.7-.1.2-.2.3-.5.5-.5.9-.1,1.8-.2,2.6-.2Z"/>
    <path d="M322.1,143.2c.8-.8.2-1.7.4-2.4,0-.1,0-.2.1-.3,0,0,.3.1.3.1-.2,1,.4,2.2-.4,3.2-.1-.1-.3-.3-.4-.6Z"/>
    <path d="M280.4,266.1c0-.6-.2-1.2-.3-1.7,0-.2.2-.4.3-.6,0,0,.4.2.4.2,0,.9-.2,1.8-.3,2.6,0,0-.3.1-.4.2,0-.2,0-.4.2-.8Z"/>
    <path d="M154.7,11.5c.8-.3,1.6-.4,2.4-.4.2,0,.4.2.6.3-.3.1-.8.5-.9.4-.7-.8-1.5,0-2.2-.3Z"/>
    <path d="M308,194.1c.4,0,1.1-.4,1.1.4,0,.2-.1.7-.2.7-.5,0-.9,0-1.4-.1.1-.3.3-.5.5-.9Z"/>
    <path d="M70.1,59.2c.5.9-.8,1.7,0,2.5-.1,0-.2.2-.3.2-.1,0-.3,0-.3,0-.3-.9,0-1.8.3-2.7,0,0,.1,0,.3,0Z"/>
    <path d="M295.2,55.2c.4.3.9.6,1.3,1,0,0,.1.4,0,.5,0,.1-.4.2-.5.1-1-.1-.8-.9-.8-1.7Z"/>
    <path d="M266.3,269.4c-.1.3-.2.4-.2.6-.2-.2-.7-.5-.6-.5.3-.6.6-1.2.9-1.7.2.2.6.4.5.6,0,.3-.3.6-.6,1Z"/>
    <path d="M76.1,25.6c-.7,0-1.2,0-1.8,0,.5-.2,1-.5,1.6-.7.2,0,.4,0,.6,0,.2,0,.4-.7.5,0,0,.1-.3.3-.5.4,0,0-.2.1-.4.3Z"/>
    <path d="M32.2,85.4c0,.3.1.5.2.8,0,.2-.1.5-.2.7-.2-.1-.4-.3-.4-.4,0-.4,0-.9,0-1.4,0-.3.4-.6.7-.9,0,.4,0,.7-.2,1.2Z"/>
    <path d="M142.8,11.4c-.4.2-.8.4-1.2.5-.4,0-.7,0-1.1-.1.3-.2.7-.5,1-.6.4,0,.9.1,1.3.3Z"/>
    <path d="M126.6,188.5c.9,0,1.8-.1,2.6,0,.4,0,.8.1,1.2.2-.4,0-.9.2-1.3.2-.9,0-1.8-.1-2.5-.3Z"/>
    <path d="M31.2,398.8c0,.3.2.5,0,.7-.2.3-.4.5-.7.7-.2-.3-.9-.6-.3-1,.2-.2,0-1.5.9-.4Z"/>
    <path d="M91.7,57.4c0-.8-.1-1.4,0-2.1,0-.2.2-.4.3-.5.2.2.5.4.5.6-.1.7-.4,1.4-.7,2Z"/>
    <path d="M37.6,257.1c0,.4.1.8,0,1.1,0,.4,0,.8-.1,1.1-.2-.4-.6-.8-.6-1.2,0-.4.4-.8.6-1Z"/>
    <path d="M136.5,187.6c.2.3.2.5.2.8-.7,0-1.4,0-2.1-.1.6-.2,1.1-.4,1.9-.7Z"/>
    <path d="M281.3,131.7c.7,0,.8.6.8,1.2,0,.3-.3.5-.5.7,0-.3-.2-.5-.2-.8,0-.3,0-.6,0-1.2Z"/>
    <path d="M126.6,12.9c-.3-.2-.5-.3-.8-.4.1-.1.3-.3.4-.3.2,0,.4,0,.6,0,.4,0,.8.2,1.2.2-.3.5-.8.7-1.4.5Z"/>
    <path d="M226.9,23.4c-.5.1-1,0-1.5,0-.2,0-.3-.2-.5-.4.2-.1.5-.4.7-.4.5.1.9.4,1.3.8Z"/>
    <path d="M92.1,53.5c-.2-.7-.4-1.5-.5-2.2,0,0,.2,0,.3,0,.2.7,1,1.4.2,2.3Z"/>
    <path d="M236,201.5c-.5,0-.7,0-1,0-.4,0-.9,0-1.3-.1,0,0,0-.3,0-.3.6-.1,1.1-.3,1.7-.3.3,0,.5.2.8.4,0,0,0,0,0,.1,0,0,0,0-.3.1Z"/>
    <path d="M191.1,212.3c0,.3,0,.5,0,.6,0,0-.2,0-.3-.2-.4-.6-1.7.3-1.5-.6.2-1,1.1.2,1.8.1Z"/>
    <path d="M266.2,320.5c-.2.4-.3.6-.5.8l-.7-.8c.2-.1.3-.3.5-.4.2,0,.5.1.7.4Z"/>
    <path d="M94.3,155c-.1.3-.2.5-.2.8,0,.2,0,.3,0,.5-.2,0-.5-.1-.5-.2,0-.5,0-1,0-1.6,0,0,.4-.3.4-.2.1.2.2.4.2.7Z"/>
    <path d="M282,108.2c-.1-.4-.2-.9-.2-1.4,0-.2.3-.3.5-.5,0,.2.2.4.1.5,0,.4-.3.8-.5,1.3Z"/>
    <path d="M93.6,135.1c-.1-.2-.4-.5-.4-.8,0-.4.2-.7.3-1.1,0,0,.3,0,.3,0,0,.4,0,.8-.1,1.2,0,.2,0,.3-.1.6Z"/>
    <path d="M153.9,426.1c0-.9.7-.2,1.2-.4.5-.1,1,0,1.5.1-.5,0-1,.2-1.5.3-.3,0-.7,0-1.2,0Z"/>
    <path d="M221.7,201.4c-.4,0-.6.1-.9,0-.3,0-.6-.2-.9-.3.3-.2.7-.5,1-.5.3,0,.6.4.8.7Z"/>
    <path d="M93.2,128.9c0-.5,0-.8.1-1.1.1.2.3.4.4.7.1.3.2.6.2.9,0,.1-.3.3-.5.4,0-.2-.2-.4-.3-.8Z"/>
    <path d="M134.5,12.2h-.6c0-.1,0-.4,0-.4.7-.1,1.4.3,2-.4.2.2.4.4.5.5-.1,0-.2.2-.4.2-.5,0-.9,0-1.6,0Z"/>
    <path d="M294,62.3c.9.6.2,1.6.4,2.4,0,0-.1.2-.2.3,0-.1-.2-.2-.2-.3,0-.3-.1-.6-.1-.9,0-.4,0-.9.1-1.4Z"/>
    <path d="M149.1,11.4c-.2,0-.4.1-.5,0-.6,0-1.1,0-1.7-.1,0,0,.1-.3.2-.3.7.2,1.5-1,2.1.3Z"/>
    <path d="M100.1,426.8c.9-.1,2-.1,3-.1-1,0-2,.2-3,.1Z"/>
    <path d="M295.2,73.7c.5-.2,1.1-.2,1.6-.2,0,0,0,.4,0,.4-.5,0-1.1,0-1.6-.2Z"/>
    <path d="M268.6,38.3c-.5,0-1-.2-1.5-.5-.3-.1-.5-.4-.8-.5.4,0,.7,0,1.1,0,.4.2.8.5,1.2.9Z"/>
    <path d="M333.1,157.2c-.2,0-.4,0-.5-.1,0,0,0-.2-.1-.3.4,0,.8-.2,1.1-.1.3,0,.5.3.8.5-.2.2-.3.5-.4.5-.3,0-.5-.3-.8-.6Z"/>
    <path d="M85,22.2c0-.1,0-.3,0-.3.6-.1,1.2-.3,1.7-.4,0,0,0,.1,0,.1-.4.7-1.1.5-1.8.6Z"/>
    <path d="M294.9,47.1c0-.3-.1-.5,0-.7,0-.4,0-.8.1-1.1,0,0,.3.1.3.2-.1.5.9.9,0,1.5-.1,0-.2.2-.4.2Z"/>
    <path d="M32.8,102c.2.4.4.7.5,1.1,0,.1-.3.3-.4.4,0,0-.3-.2-.3-.3,0-.4.1-.8.3-1.1Z"/>
    <path d="M319.5,163.8c0-.6-.1-1.3,0-1.9,0-.3.1-.5.2-.8,0,.3.2.6.2.9,0,.6-.1,1.2-.3,1.9Z"/>
    <path d="M93.3,115.5c.2.2.3.5.3.8,0,.4-.1.7-.2,1.1,0,0-.2-.2-.3-.3-.5-.4-.3-.8,0-1.1,0,0,0-.3.1-.5Z"/>
    <path d="M311.1,173.8c.1.3.3.7.2.9-.2.2-.7.3-1,.4.1-.3.2-.6.4-.8,0-.2.3-.3.5-.5Z"/>
    <path d="M314.3,184.4c0-.3-.2-.5,0-.8.1-.5.4-1,.5-1.6,0,.4,0,.8,0,1.1,0,.1-.2.2-.2.3,0,.3-.1.6-.3.9Z"/>
    <path d="M40.4,196.7c-.5,0-.9,0-1.2,0-.1,0-.2,0-.3-.1.1,0,.2-.3.3-.3.5,0,1,0,1.6,0,.3,0,.5.2.7.3-.3,0-.6,0-1.1.1Z"/>
    <path d="M113.9,190.7c0-.2.2-.3.4-.3.4,0,.7.2,1.1.3,0,0,0,.3,0,.3-.5.2-.9.2-1.4-.4Z"/>
    <path d="M44.4,166.6c.4,0,.7.1.8.3.1,0,.2.3.3.4-.1,0-.2.1-.3.1-.5,0-1.1,0-.8-.8Z"/>
    <path d="M31.3,71.8c0-.5,0-.8.1-1.1.2.4.4.9.7,1.3-.3,0-.5,0-.8-.2Z"/>
    <path d="M281.8,72.9c0-.4,0-.7,0-1,.2.4.7.8.6,1.2-.1.8-.3,0-.6-.1Z"/>
    <path d="M46.9,38.1c.3-.1.5-.2.6-.2.1,0,.3,0,.4-.1,0,.1,0,.3,0,.4-.4.2-.8.5-1.3.7,0,0-.2-.2-.2-.3,0-.1.2-.2.4-.4Z"/>
    <path d="M109.5,15c.5,0,.8,0,1.2,0,.1,0,.2,0,.3.1-.1,0-.2.2-.3.3-.4.1-.8.3-1.3.2-.7,0-.3-.4,0-.6Z"/>
    <path d="M312.2,190.8c0,.5,0,.8-.1,1.1,0-.2-.2-.5-.3-.7,0-.4,0-.7.1-1.1,0,0,.3,0,.5,0,0,.2-.2.4-.2.7Z"/>
    <path d="M306.2,196.2c.3-.2.4-.3.6-.3.2,0,.4,0,.6,0-.1.2-.2.5-.3.5-.3,0-.7,0-1.1,0,0,0,0,0,0-.1,0,0,0,0,.2-.2Z"/>
    <path d="M40.8,368.1c-.1.5-.3.7-.4,1,0,0-.2.2-.3.1-.6-.4.7-.9-.1-1.3.3,0,.5,0,.8.2Z"/>
    <path d="M255.9,32.9c.4,0,.6,0,.8,0,.2,0,.3.3.4.5-.2.1-.4.3-.6.3-.3,0-.6-.3-.9-.5,0,0,0,0,0-.1,0,0,0,0,.3-.1Z"/>
    <path d="M33.7,146.8c.9.3.2,1.1.4,1.8,0,0,0,.1-.1.1,0,0-.2,0-.3-.2,0-.5,0-1,0-1.8Z"/>
    <path d="M319.3,163.8c0,.8,0,1.6-.2,2.4,0-.8,0-1.6.2-2.4Z"/>
    <path d="M296.6,41.9c-.2-.1-.3-.3-.4-.6,0-.2,0-.5,0-.7.2,0,.4,0,.5,0,.5.3,0,.5-.1.7,0,.1,0,.3-.1.5Z"/>
    <path d="M113.7,14.9c-.4,0-.7.1-1.1,0-.3,0-.5-.1-.8-.2.2,0,.5-.1.7-.2.3-.1.7-.2,1-.3,0,0,.2.3.2.6Z"/>
    <path d="M195.5,15.1c-.4,1.1-1.1,0-1.7.3,0,0-.1-.2-.2-.3.1,0,.2-.1.3-.1.5,0,.9,0,1.5,0Z"/>
    <path d="M161.6,410.7c.3-.3.5-.7.8-.2.1.2.1.5.2.8-.2,0-.5,0-.7-.1-.2,0-.3-.3-.3-.5Z"/>
    <path d="M96.8,18.2c.5,0,.8,0,1.1.1-.2,0-.5.2-.7.3-.3,0-.6,0-1,0,0,0-.1-.2-.2-.3.2,0,.4,0,.7-.1Z"/>
    <path d="M229.8,11c-.2-.3-.3-.5-.3-.7.4.2.9.3,1.3.5,0,0,0,.3-.1.3-.3,0-.5,0-.9,0Z"/>
    <path d="M155.9,176.4c-.7,0-1.3,0-2-.2.7,0,1.3,0,2,.2Z"/>
    <path d="M244.3,28.8c-.3,0-.5.2-.6,0-.2-.1-.3-.4-.4-.6.2,0,.5-.2.6,0,.2,0,.4.3.4.6Z"/>
    <path d="M272.9,254.3c-.2-.2-.1-.4,0-.7l.9.6c-.1.1-.2.2-.3.4,0,0-.2-.2-.5-.3Z"/>
    <path d="M314.1,174.4c.5.3.5.3.2.6-.2.2-.5.2-.8.2.2-.2.3-.5.6-.8Z"/>
    <path d="M98.8,89.6c-.2,0-.5-.2-.6-.5,0-.2,0-.4,0-.6.2.1.4.2.5.4,0,.1,0,.3.1.7Z"/>
    <path d="M32.1,76.1c-.4-.3-.6-1.4-.3-1.5,0,0,.2.2.2.3,0,.3,0,.6,0,1.2Z"/>
    <path d="M88.9,172.1c.5,0,.8,0,1.2,0,.1,0,.2,0,.3.1-.1,0-.2.3-.3.3-.5,0-1,0-1.5-.1,0,0,0,0,0-.1,0,0,0,0,.3-.1Z"/>
    <path d="M211.7,217.7c-.2,0-.2.1-.3,0-.4,0-.8,0-1.1-.1.1,0,.2-.2.4-.3.5-.4.9-.3,1.1.3Z"/>
    <path d="M282.2,50.2c0-.5-.1-.9,0-1.2,0-.2.1-.4.2-.6,0,.2.2.3.2.5,0,.5-.1,1-.3,1.3Z"/>
    <path d="M132.5,11.9c.3,0,.3,0,.4,0,.1,0,.2,0,.3.1-.6,0-1.1.2-1.7.3,0,0,0-.2-.1-.3.2,0,.4,0,.5-.1.1,0,.3,0,.6,0Z"/>
    <path d="M42.5,371.8c.7.7,0,.8-.5,1.1,0,0-.2,0-.3-.2,0,0,.1-.2.2-.3.2-.2.4-.4.6-.7Z"/>
    <path d="M273.8,306.7c.2,0,.4.1.5.3,0,.2.2.4.1.6,0,0-.4.2-.5.1-.1-.2-.2-.4-.3-.6,0-.1,0-.2,0-.5Z"/>
    <path d="M7.5,165.4c0-.4.1-.7.3-.8,0-.1.3-.2.4-.3,0,.2.2.4.1.5-.1.3-.3.6-.5.9,0,0,0,0-.1,0,0,0,0,0-.1-.3Z"/>
    <path d="M238.4,219.4c-.3,0-.3,0-.4,0-.1,0-.2,0-.3-.1.6,0,1.1-.2,1.7-.3,0,0,0,.2.1.3-.2,0-.4,0-.5.1-.1,0-.3,0-.6,0Z"/>
    <path d="M61,31.3c0,.1,0,.3-.2.4-.4.1-.8.2-1.2.3,0,0,0-.1,0-.1.3-.5.8-.7,1.4-.6Z"/>
    <path d="M226.9,201.1c-.3.4-1.4.6-1.5.3,0,0,.2-.2.3-.2.3,0,.6,0,1.2,0Z"/>
    <path d="M259,215.4c0,.1,0,.3-.2.4-.4.1-.8.2-1.2.3,0,0,0-.1,0-.1.3-.5.8-.7,1.4-.6Z"/>
    <path d="M281.7,161.4c-.4-.3-.6-1.4-.3-1.5,0,0,.2.2.2.3,0,.3,0,.6,0,1.2Z"/>
    <path d="M91.6,59.1c0-.5,0-.8.1-1.1,0,.2.2.5.3.7,0,.3,0,.6,0,1,0,0-.2.1-.3.2,0-.2,0-.4-.1-.7Z"/>
    <path d="M39.6,210.5c-.5,0-.9.1-1.2,0-.2,0-.4-.1-.6-.2.2,0,.3-.2.5-.2.5,0,1,.1,1.3.3Z"/>
    <path d="M206.7,17.8c-.5,0-.8,0-1.1-.1.2,0,.5-.2.7-.3.3,0,.6,0,1,0,0,0,.1.2.2.3-.2,0-.4,0-.7.1Z"/>
    <path d="M62.2,200.6c-.5,0-.9.1-1.2,0-.2,0-.4-.1-.6-.2.2,0,.3-.2.5-.2.5,0,1,.1,1.3.3Z"/>
    <path d="M174.8,420.8c-.4.2-.6.4-.9.5,0,0-.1-.2,0-.3.3-.3.5-.8,1-.2Z"/>
    <path d="M40.4,384.8c0,.3.1.6,0,.9,0,.2-.1.4-.2.6,0-.2-.2-.3-.2-.5,0-.4.1-.7.3-1.1Z"/>
    <path d="M282,103c-.3,0-.5,0-.6-.1.2-.3.4-.6.6-.8,0,.3,0,.6,0,1Z"/>
    <path d="M282.2,45.3c.1,0,.2,0,.2,0,0,.5,0,.9,0,1.4,0-.5-.2-.9-.1-1.5Z"/>
    <path d="M171.5,415.3c0-.1,0-.3,0-.3.2-.2.5-.3.8-.5,0,0,.1.1.2.2-.3.2-.6.4-1.1.6Z"/>
    <path d="M93.7,150.4c.1,0,.2,0,.2,0,0,.5,0,.9,0,1.4,0-.5-.2-.9-.1-1.5Z"/>
    <path d="M57.8,33.2c-.3,0-.4,0-.6-.2.3-.2.5-.9,1.1-.3,0,0-.2.3-.5.5Z"/>
    <path d="M133.3,426c-.3,0-.6.1-.9,0-.2,0-.4-.1-.6-.2.2,0,.3-.2.5-.2.4,0,.7.1,1.1.3Z"/>
    <path d="M315.5,166.3c.2-.2.4-.3.5-.5,0,.3.1.6.2.9,0,0-.3.1-.4,0-.2,0-.3-.3-.3-.5Z"/>
    <path d="M295.5,76.9c0,0,0,.1.1.2,0,.3.2.6.3.9-.2,0-.3,0-.5,0,0-.4,0-.8.1-1.2Z"/>
    <path d="M318.9,166.2c0,.3.1.6,0,.9,0,.2-.1.4-.2.6,0-.2-.2-.3-.2-.5,0-.4.1-.7.3-1.1Z"/>
    <path d="M148.3,426.4c-.4,0-.7.1-1,0-.1,0-.3-.1-.4-.2.1,0,.2-.2.3-.2.4,0,.8.1,1.1.3Z"/>
    <path d="M15.5,426.4c.4,0,.6,0,.7.1h-1.5c.2,0,.4,0,.7-.1Z"/>
    <path d="M198.7,197c-.4,0-.7.1-1,0-.1,0-.3-.1-.4-.2.1,0,.2-.2.3-.2.4,0,.8.1,1.1.3Z"/>
    <path d="M33.2,116.9c-.1,0-.2,0-.2,0,0-.5,0-.9,0-1.4,0,.5.2.9.1,1.5Z"/>
    <path d="M276.8,50.6c-.3,0-.5-.2-.7-.4.1-.1.2-.2.3-.3.2.2.3.4.4.7Z"/>
    <path d="M282.1,117c0,.3,0,.5,0,.6,0,.2,0,.4-.1.5,0-.1-.3-.2-.3-.3,0-.4,0-.7.1-1.1,0,0,0,0,.1,0,0,0,0,0,.1.3Z"/>
    <path d="M92.9,120.1c0-.4-.1-.7,0-1,0-.1.1-.3.2-.4,0,.1.2.2.2.3,0,.4-.1.8-.3,1.1Z"/>
    <path d="M295.7,76.9c0-.5,0-.9,0-1.5.6.4.5.9,0,1.5Z"/>
    <path d="M291.3,271.4c.3,0,.5.2.7.4l-.3.3c-.2-.2-.3-.4-.4-.7Z"/>
    <path d="M311.9,177.2c.4-.6.7,0,1,.2,0,0,0,.2,0,.3-.3-.1-.5-.3-.9-.5Z"/>
    <path d="M27.3,326.9c0,.2,0,.3-.2.5-.1.2-.3.5-.4.7,0-.1-.1-.2-.1-.3,0-.4-.2-.9.7-.8Z"/>
    <path d="M101.8,198.6c-.3,0-.5,0-.6,0-.2-.1-.2-.4-.4-.5.2,0,.5,0,.7,0,.2,0,.3.3.3.5Z"/>
    <path d="M317.9,169.5c.2.1.3.3.3.6,0,.2,0,.3-.2.5,0-.2-.2-.4-.2-.6,0-.1,0-.2,0-.5Z"/>
    <path d="M31.6,63.1c0,.3.1.5,0,.7,0,.1-.1.3-.2.4,0-.1-.2-.2-.2-.3,0-.3.1-.6.3-.8Z"/>
    <path d="M282,128c-.2-.1-.3-.3-.3-.6,0-.2,0-.3.2-.5,0,.2.2.4.2.6,0,.1,0,.2,0,.5Z"/>
    <path d="M249.8,199.8c-.3,0-.5.1-.7,0-.1,0-.3-.1-.4-.2.1,0,.2-.2.3-.2.3,0,.6.1.8.3Z"/>
    <path d="M211.4,199.9c.4,0,.5,0,.7.1,0,0,0,.3-.1.3-.3,0-.6,0-.9-.1,0,0,0,0,0-.1,0,0,0,0,.3-.1Z"/>
    <path d="M247.1,200.2c-.3,0-.5.1-.7,0-.1,0-.3-.1-.4-.2.1,0,.2-.2.3-.2.3,0,.6.1.8.3Z"/>
    <path d="M121.7,1.6c-.1.2-.3.3-.6.3-.2,0-.3,0-.5-.2.2,0,.4-.2.6-.2.1,0,.2,0,.5,0Z"/>
    <path d="M294.7,74.2c-.1.3-.3.5-.5.6,0-.1-.2-.3-.1-.3.2-.2.4-.3.7-.3Z"/>
    <path d="M282.1,55.9c.8-.4.2.2.4.4,0,0-.2.2-.3.3,0-.2,0-.3-.1-.7Z"/>
    <path d="M145.5,189.9c-.2.2-.4.4-.5.5,0-.2-.1-.4-.2-.6.3,0,.5,0,.7.1Z"/>
    <path d="M295.2,55c-.1,0-.2,0-.3,0-.2-.2-.3-.3-.4-.5.1,0,.3-.2.3-.1.2.2.3.4.5.7Z"/>
    <path d="M93.3,113.4c0-.3,0-.7,0-1.1.7.2.4.6,0,1.1Z"/>
    <path d="M77.2,427.2c-.3,0-.5-.2-.7-.3,0,0,0-.2.1-.3.2.2.4.4.5.6Z"/>
    <path d="M133.3,426.2c0,0,.1-.1.2,0,.3,0,.6.1,1,.2-.4,0-.8,0-1.2-.1Z"/>
    <path d="M33.4,46.1c.3,0,.4,0,.6,0-.2.2-.4.4-.6.6,0-.2,0-.3,0-.6Z"/>
    <path d="M71.4,184.8c.4.8-.2.2-.4.4,0,0-.2-.2-.3-.3.2,0,.3,0,.7-.1Z"/>
    <path d="M198.8,215c-.3,0-.5,0-.8-.2.3,0,.5,0,.8.2Z"/>
    <path d="M35.3,183.3c0-.4,0-.5.1-.7,0,0,.3,0,.3.1,0,.3,0,.6-.1.9,0,0,0,0-.1,0,0,0,0,0-.1-.3Z"/>
    <path d="M281.6,182.2c0,.3.1.5,0,.7,0,.1-.1.3-.2.4,0-.1-.2-.2-.2-.3,0-.3.1-.6.3-.8Z"/>
    <path d="M282.4,82.6c0,.3.1.5,0,.7,0,.1-.1.3-.2.4,0-.1-.2-.2-.2-.3,0-.3.1-.6.3-.8Z"/>
    <path d="M169.8,11.8c0,0-.1.1-.2,0-.3,0-.6-.1-1-.2.4,0,.8,0,1.2.1Z"/>
    <path d="M251.4,217.4c-.2.1-.5.3-.8.4,0,0-.2,0-.3-.1.1,0,.3-.2.4-.2.2,0,.4,0,.7,0Z"/>
    <path d="M70.7,110.7c.2.1.3.3.3.6,0,.2,0,.3-.2.5,0-.2-.2-.4-.2-.6,0-.1,0-.2,0-.5Z"/>
    <path d="M261.7,39.2c-.2.1-.5.3-.8.4,0,0-.2,0-.3-.1.1,0,.3-.2.4-.2.2,0,.4,0,.7,0Z"/>
    <path d="M259.9,37.2c0-.4,0-.5.1-.7,0,0,.3,0,.3.1,0,.3,0,.6-.1.9,0,0,0,0-.1,0,0,0,0,0-.1-.3Z"/>
    <path d="M332.6,148.8c.2.1.3.3.3.6,0,.2,0,.3-.2.5,0-.2-.2-.4-.2-.6,0-.1,0-.2,0-.5Z"/>
    <path d="M26.9,260.9c-.3,0-.5.1-.7,0-.1,0-.3-.1-.4-.2.1,0,.2-.2.3-.2.3,0,.6.1.8.3Z"/>
    <path d="M317.4,174.1c-.4,0-.5,0-.4-.4,0-.1.2-.2.3-.3,0,.2,0,.3.1.7Z"/>
    <path d="M82.9,172.1c0,.4,0,.5-.4.4-.1,0-.2-.2-.3-.3.2,0,.3,0,.7-.1Z"/>
    <path d="M93.2,107.4c-.1-.2-.3-.5-.4-.8,0,0,0-.2.1-.3,0,.1.2.3.2.4,0,.2,0,.4,0,.7Z"/>
    <path d="M122.2,90.8c0-.4,0-.5.1-.7,0,0,.3,0,.3.1,0,.3,0,.6-.1.9,0,0,0,0-.1,0,0,0,0,0-.1-.3Z"/>
    <path d="M113.6,103.8c.1-.2.3-.3.6-.3.2,0,.3,0,.5.2-.2,0-.4.2-.6.2-.1,0-.2,0-.5,0Z"/>
    <path d="M91.7,172c.1-.2.3-.3.6-.3.2,0,.3,0,.5.2-.2,0-.4.2-.6.2-.1,0-.2,0-.5,0Z"/>
    <path d="M73,170.2c-.3,0-.5,0-.8-.2.3,0,.5,0,.8.2Z"/>
    <path d="M203.1,17.4c0-.4,0-.5.4-.4.1,0,.2.2.3.3-.2,0-.3,0-.7.1Z"/>
    <path d="M32.2,90.9c.1.2.1.4.1.7-.2,0-.4-.1-.6-.2.1-.1.3-.3.5-.5Z"/>
    <path d="M32.5,93.2c.2.3.2.5.2.8-.1-.3-.3-.5-.2-.8Z"/>
    <path d="M241.2,27.6c-.4,0-.8,0-1.2-.2.4,0,.8,0,1.2.2Z"/>
    <path d="M229.4,24.3c.3,0,.5-.1.7,0,.1,0,.3.1.4.2-.1,0-.2.2-.3.2-.3,0-.6-.1-.8-.3Z"/>
    <path d="M64.2,99.5c0,0,.1.1,0,.2,0,.3-.1.6-.2,1,0-.4,0-.8.1-1.2Z"/>
    <path d="M280.2,300.3c0,0-.1-.1,0-.2,0-.3.1-.6.2-1,0,.4,0,.8-.1,1.2Z"/>
    <path d="M280.1,301.9c.1-.1.3,0,.4,0-.1,0-.3.1-.4,0Z"/>
    <path d="M289.5,301.2c0,.3,0,.4,0,.6,0,0-.2,0-.2,0,0-.2,0-.4.3-.5Z"/>
    <path d="M75,26.9c.1.1,0,.3,0,.4,0-.1-.1-.3,0-.4Z"/>
    <path d="M34.4,160.7c0,.3,0,.4,0,.6,0,0-.2,0-.2,0,0-.2,0-.4.3-.5Z"/>
    <path d="M317.5,160.1c.1-.2.3-.2.5-.3,0,0,0,.2,0,.2-.2,0-.3,0-.6,0Z"/>
    <path d="M64.4,99.5c0-.2,0-.5,0-.7,0,0,.2,0,.3,0,0,.2-.1.4-.3.6Z"/>
    <path d="M36.5,304.7c.1-.1.3,0,.4,0-.1,0-.3.1-.4,0Z"/>
    <path d="M26.9,293.8c-.2-.1-.2-.3-.3-.5,0,0,.2,0,.2,0,0,.2,0,.3,0,.6Z"/>
    <path d="M78.2,24.3c.3,0,.4,0,.6,0,0,0,0,.2,0,.2-.2,0-.4,0-.5-.3Z"/>
    <path d="M10,158.3c0-.2,0-.5,0-.7,0,0,.2,0,.3,0,0,.2-.1.4-.3.6Z"/>
    <path d="M139.7.3c.1-.2.3-.2.5-.3,0,0,0,.2,0,.2-.2,0-.3,0-.6,0Z"/>
    <path d="M280.1,290c.1-.1.3,0,.4,0-.1,0-.3.1-.4,0Z"/>
    <path d="M38.1,284.4c-.1.1-.3,0-.4,0,.1,0,.3-.1.4,0Z"/>
    <path d="M38,281.1c-.2-.1-.2-.3-.3-.5,0,0,.2,0,.2,0,0,.2,0,.3,0,.6Z"/>
    <path d="M200.6,16.5c-.3,0-.4,0-.6,0,0,0,0-.2,0-.2.2,0,.4,0,.5.3Z"/>
    <path d="M178.4,16.1c-.3,0-.4,0-.6,0,0,0,0-.2,0-.2.2,0,.4,0,.5.3Z"/>
    <path d="M321.2,153.5c0,.2,0,.5,0,.7,0,0-.2,0-.3,0,0-.2.1-.4.3-.6Z"/>
    <path d="M86.2,172.2c.3,0,.4,0,.6,0,0,0,0,.2,0,.2-.2,0-.4,0-.5-.3Z"/>
    <path d="M247.7,29.8c.3,0,.4,0,.6,0,0,0,0,.2,0,.2-.2,0-.4,0-.5-.3Z"/>
    <path d="M263.8,275.7c.1-.1.3,0,.4,0-.1,0-.3.1-.4,0Z"/>
    <path d="M330.2,173.3c0-.2,0-.5,0-.7,0,0,.2,0,.3,0,0,.2-.1.4-.3.6Z"/>
    <path d="M263.3,36c-.3,0-.4,0-.6,0,0,0,0-.2,0-.2.2,0,.4,0,.5.3Z"/>
    <path d="M120.7,173.6c.1-.2.3-.2.5-.3,0,0,0,.2,0,.2-.2,0-.3,0-.6,0Z"/>
    <path d="M122.2,173.3c.1.1,0,.3,0,.4,0-.1-.1-.3,0-.4Z"/>
    <path d="M40,349c-.2-.1-.2-.3-.3-.5,0,0,.2,0,.2,0,0,.2,0,.3,0,.6Z"/>
    <path d="M330,173.3c0,.2,0,.5,0,.7,0,0-.2,0-.3,0,0-.2.1-.4.3-.6Z"/>
    <path d="M119,173.7c.1.1,0,.3,0,.4,0-.1-.1-.3,0-.4Z"/>
    <path d="M54.8,107.2c.3,0,.4,0,.6,0,0,0,0,.2,0,.2-.2,0-.4,0-.5-.3Z"/>
    <path d="M92.5,88.3c.1-.2.3-.2.5-.3,0,0,0,.2,0,.2-.2,0-.3,0-.6,0Z"/>
    <path d="M149.5,174.6c-.1.2-.3.2-.5.3,0,0,0-.2,0-.2.2,0,.3,0,.6,0Z"/>
    <path d="M36.5,241.6c-.1-.1,0-.3,0-.4,0,.1.1.3,0,.4Z"/>
    <path d="M22.9,234.7c-.3,0-.4,0-.6,0,0,0,0-.2,0-.2.2,0,.4,0,.5.3Z"/>
    <path d="M311.5,176.4c0-.3,0-.4,0-.6,0,0,.2,0,.2,0,0,.2,0,.4-.3.5Z"/>
    <path d="M282.2,85c.2.1.2.3.3.5,0,0-.2,0-.2,0,0-.2,0-.3,0-.6Z"/>
    <path d="M56,85.2c.1-.2.3-.2.5-.3,0,0,0,.2,0,.2-.2,0-.3,0-.6,0Z"/>
    <path d="M177.3,12.3c.1.1,0,.3,0,.4,0-.1-.1-.3,0-.4Z"/>
    <path d="M129.7,12.6c-.1-.1,0-.3,0-.4,0,.1.1.3,0,.4Z"/>
    <path d="M33.8,141.7c.2.1.2.3.3.5,0,0-.2,0-.2,0,0-.2,0-.3,0-.6Z"/>
    <path d="M251.6,217.4c.1-.1.3-.2.5-.4,0,0,0,.2,0,.3-.2,0-.3,0-.6.1Z"/>
    <path d="M311,180.5c.1-.1.3,0,.4,0-.1,0-.3.1-.4,0Z"/>
    <path d="M40.5,384.8c0-.2,0-.5,0-.7,0,0,.2,0,.3,0,0,.2-.1.4-.3.6Z"/>
    <path d="M41.3,41.3c.3,0,.4,0,.6,0,0,0,0,.2,0,.2-.2,0-.4,0-.5-.3Z"/>
    <path d="M93.5,139.6c0,.2,0,.5,0,.7,0,0-.2,0-.3,0,0-.2.1-.4.3-.6Z"/>
    <path d="M200.3,215.8c-.1-.1,0-.3,0-.4,0,.1.1.3,0,.4Z"/>
    <path d="M165.4,11.5c-.1.1-.3,0-.4,0,.1,0,.3-.1.4,0Z"/>
    <path d="M259.2,215.4c.1-.1.3-.2.5-.4,0,0,0,.2,0,.3-.2,0-.3,0-.6.1Z"/>
    <path d="M192.3,403c-.2-.1-.2-.3-.3-.5,0,0,.2,0,.2,0,0,.2,0,.3,0,.6Z"/>
    <path d="M188.8,405c.1.1,0,.3,0,.4,0-.1-.1-.3,0-.4Z"/>
    <path d="M34,138.7c-.2-.1-.2-.3-.3-.5,0,0,.2,0,.2,0,0,.2,0,.3,0,.6Z"/>
    <path d="M37.4,44c0-.1.3-.3.6-.4,0,.1-.3.3-.6.4Z"/>
    <path d="M303.1,211c.1-.1.3,0,.4,0-.1,0-.3.1-.4,0Z"/>
    <path d="M295.2,44c-.1.1-.3,0-.4,0,.1,0,.3-.1.4,0Z"/>
    <path d="M95.1,7.8c-.3,0-.4,0-.6,0,0,0,0-.2,0-.2.2,0,.4,0,.5.3Z"/>
    <path d="M313.5,187.2c0-.2,0-.5,0-.7,0,0,.2,0,.3,0,0,.2-.1.4-.3.6Z"/>
    <path d="M204.4,4.2c.1-.2.3-.2.5-.3,0,0,0,.2,0,.2-.2,0-.3,0-.6,0Z"/>
    <path d="M313.1,188c0-.3,0-.5.2-.8,0,.3,0,.5-.2.8Z"/>
    <path d="M92.4,77.6c-.1-.1-.2-.3-.4-.5,0,0,.2,0,.3,0,0,.2,0,.3.1.6Z"/>
    <path d="M69.1,51c0-.3,0-.4,0-.6,0,0,.2,0,.2,0,0,.2,0,.4-.3.5Z"/>
    <path d="M91.9,53.5c0,.2,0,.5,0,.7,0,0-.2,0-.3,0,0-.2.1-.4.3-.6Z"/>
    <path d="M295.6,75.2c-.1-.1-.2-.3-.4-.5,0,0,.2,0,.3,0,0,.2,0,.3.1.6Z"/>
    <path d="M177.2,203c-.3,0-.4,0-.6,0,0,0,0-.2,0-.2.2,0,.4,0,.5.3Z"/>
    <path d="M282.4,53.6c0,.3,0,.4,0,.6,0,0-.2,0-.2,0,0-.2,0-.4.3-.5Z"/>
    <path d="M230.5,201.5c-.1-.1,0-.3,0-.4,0,.1.1.3,0,.4Z"/>
    <path d="M123.3,189.2c-.1.1-.3.2-.5.4,0,0,0-.2,0-.3.2,0,.3,0,.6-.1Z"/>
    <path d="M103.9,426.5c.1.1,0,.3,0,.4,0-.1-.1-.3,0-.4Z"/>
    <path d="M11.6,427c.3,0,.4,0,.6,0,0,0,0,.2,0,.2-.2,0-.4,0-.5-.3Z"/>
    <path d="M25.4,426.9c.1.1,0,.3,0,.4,0-.1-.1-.3,0-.4Z"/>
    <path d="M281.6,120.1c-.2-.1-.2-.3-.3-.5,0,0,.2,0,.2,0,0,.2,0,.3,0,.6Z"/>
    <path d="M20.1,74.1c0,.2,0,.5,0,.7,0,0-.2,0-.3,0,0-.2.1-.4.3-.6Z"/>
    <path d="M20.3,74.1c0-.2,0-.5,0-.7,0,0,.2,0,.3,0,0,.2-.1.4-.3.6Z"/>
    <path d="M244.5,200.6c.1-.2.3-.2.5-.3,0,0,0,.2,0,.2-.2,0-.3,0-.6,0Z"/>
    <path d="M110.2,191.9c-.3,0-.4,0-.6,0,0,0,0-.2,0-.2.2,0,.4,0,.5.3Z"/>
    <path d="M108.4,192.3c.1-.2.3-.2.5-.3,0,0,0,.2,0,.2-.2,0-.3,0-.6,0Z"/>
    <path d="M214.6,200.6c-.2,0-.5,0-.7,0,0,0,0-.2,0-.3.2,0,.4.1.6.3Z"/>
    <path d="M186.9,193.3c.3,0,.4,0,.6,0,0,0,0,.2,0,.2-.2,0-.4,0-.5-.3Z"/>
    <path d="M7.9,194c.1-.1.3,0,.4,0-.1,0-.3.1-.4,0Z"/>
    <path d="M282,129.2c-.2-.1-.2-.3-.3-.5,0,0,.2,0,.2,0,0,.2,0,.3,0,.6Z"/>
    <path d="M281.6,123.8c0,.3,0,.4,0,.6,0,0-.2,0-.2,0,0-.2,0-.4.3-.5Z"/>
    <path d="M267,194.8c.1.1,0,.3,0,.4,0-.1-.1-.3,0-.4Z"/>
    <path d="M66.5,200c0,.3,0,.4,0,.6,0,0-.2,0-.2,0,0-.2,0-.4.3-.5Z"/>
    <path d="M20.9,124.2c0,.3,0,.4,0,.6,0,0-.2,0-.2,0,0-.2,0-.4.3-.5Z"/>
    <path d="M31.4,60c.2.1.2.3.3.5,0,0-.2,0-.2,0,0-.2,0-.3,0-.6Z"/>
    <path d="M205.9,198.7c.1.1,0,.3,0,.4,0-.1-.1-.3,0-.4Z"/>
    <path d="M323,196.4c.2.1.2.3.3.5,0,0-.2,0-.2,0,0-.2,0-.3,0-.6Z"/>
    <path d="M31.4,65.3c0-.3,0-.4,0-.6,0,0,.2,0,.2,0,0,.2,0,.4-.3.5Z"/>
    <path d="M199.2,197.4c0-.1.1-.1.3-.1,0,0-.1.2-.3.1Z"/>
    <path d="M282.4,64.1c-.1,0-.1-.1-.1-.3,0,0,.2.1.1.3Z"/>
    <path d="M309.9,196.4c.1,0,.1.1.1.3,0,0-.2-.1-.1-.3Z"/>
    <path d="M92.3,62.1c-.1,0-.1-.1-.1-.3,0,0,.2.1.1.3Z"/>
    <path d="M31.7,66.1c-.1,0-.2,0-.4-.1.1,0,.2,0,.4.1Z"/>
    <path d="M91.7,60.4c.1,0,.1.1.1.3,0,0-.2-.1-.1-.3Z"/>
    <path d="M31.7,66.3c.1,0,.2,0,.4.1-.1,0-.2,0-.4-.1Z"/>
    <path d="M208.2,199.8c-.1,0-.1-.1-.1-.3,0,0,.2.1.1.3Z"/>
    <path d="M310.5,195.8c-.1,0-.1-.1-.1-.3,0,0,.2.1.1.3Z"/>
    <path d="M282.2,66.3c.1,0,.1.1.1.3,0,0-.2-.1-.1-.3Z"/>
    <path d="M67.7,200c0,.1-.1.1-.3.1,0,0,.1-.2.3-.1Z"/>
    <path d="M282.4,59.6c0,.1-.1.1-.3.1,0,0,.1-.2.3-.1Z"/>
    <path d="M294.1,67.5c.1,0,.1.1.1.3,0,0-.2-.1-.1-.3Z"/>
    <path d="M282.2,68.9c0-.1.1-.1.3-.1,0,0-.1.2-.3.1Z"/>
    <path d="M302.8,200.2c0-.1.1-.1.3-.1,0,0-.1.2-.3.1Z"/>
    <path d="M20.3,57.4c0-.1.1-.1.3-.1,0,0-.1.2-.3.1Z"/>
    <path d="M294,69.7c-.1,0-.2,0-.4-.1.1,0,.2,0,.4.1Z"/>
    <path d="M294,69.9c.1,0,.2,0,.4.1-.1,0-.2,0-.4-.1Z"/>
    <path d="M214.6,200.8c.1,0,.2,0,.4.1-.1,0-.2,0-.4-.1Z"/>
    <path d="M117.1,190.1c.1,0,.1.1.1.3,0,0-.2-.1-.1-.3Z"/>
    <path d="M20.3,55.8c0-.1.1-.1.3-.1,0,0-.1.2-.3.1Z"/>
    <path d="M238.5,200.8c.1,0,.1.1.1.3,0,0-.2-.1-.1-.3Z"/>
    <path d="M239.3,201c0-.1.1-.1.3-.1,0,0-.1.2-.3.1Z"/>
    <path d="M118.1,189.7c0,.1-.1.1-.3.1,0,0,.1-.2.3-.1Z"/>
    <path d="M303,189.2c0,.1,0,.2-.1.4,0-.1,0-.2.1-.4Z"/>
    <path d="M227.8,201.2c.1,0,.1.1.1.3,0,0-.2-.1-.1-.3Z"/>
    <path d="M228.6,201.4c0-.1.1-.1.3-.1,0,0-.1.2-.3.1Z"/>
    <path d="M121.5,189.5c0-.1.1-.1.3-.1,0,0-.1.2-.3.1Z"/>
    <path d="M232.2,201.4c0-.1.1-.1.3-.1,0,0-.1.2-.3.1Z"/>
    <path d="M303.2,189.2c0-.1,0-.2.1-.4,0,.1,0,.2-.1.4Z"/>
    <path d="M307.6,201.6c.1,0,.1.1.1.3,0,0-.2-.1-.1-.3Z"/>
    <path d="M123.5,189.2c0-.1,0-.2.1-.4,0,.1,0,.2-.1.4Z"/>
    <path d="M277.6,76c-.1,0-.1-.1-.1-.3,0,0,.2.1.1.3Z"/>
    <path d="M69.5,52c.1,0,.1.1.1.3,0,0-.2-.1-.1-.3Z"/>
    <path d="M312.9,188c0,.1,0,.2-.1.4,0-.1,0-.2.1-.4Z"/>
    <path d="M294.7,49.2c0,.1,0,.2-.1.4,0-.1,0-.2.1-.4Z"/>
    <path d="M319.9,204.7c0-.1,0-.2.1-.4,0,.1,0,.2-.1.4Z"/>
    <path d="M319.7,204.7c0,.1,0,.2-.1.4,0-.1,0-.2.1-.4Z"/>
    <path d="M173.5,187.7c.1,0,.1.1.1.3,0,0-.2-.1-.1-.3Z"/>
    <path d="M294.9,49.2c0-.1,0-.2.1-.4,0,.1,0,.2-.1.4Z"/>
    <path d="M177.8,206.4c.1,0,.1.1.1.3,0,0-.2-.1-.1-.3Z"/>
    <path d="M20.3,48.5c.1,0,.1.1.1.3,0,0-.2-.1-.1-.3Z"/>
    <path d="M20.3,46.1c.1,0,.1.1.1.3,0,0-.2-.1-.1-.3Z"/>
    <path d="M181.2,208.5c-.1,0-.1-.1-.1-.3,0,0,.2.1.1.3Z"/>
    <path d="M90.1,186.7c0-.1.1-.1.3-.1,0,0-.1.2-.3.1Z"/>
    <path d="M33.4,209.5c.1,0,.1.1.1.3,0,0-.2-.1-.1-.3Z"/>
    <path d="M183.4,209.7c0-.1.1-.1.3-.1,0,0-.1.2-.3.1Z"/>
    <path d="M37.2,44c0,.1,0,.2-.1.4,0-.1,0-.2.1-.4Z"/>
    <path d="M92.4,77.8c.1,0,.2,0,.4.1-.1,0-.2,0-.4-.1Z"/>
    <path d="M74.7,185.7c.1,0,.1.1.1.3,0,0-.2-.1-.1-.3Z"/>
    <path d="M73.7,185.9c-.1,0-.1-.1-.1-.3,0,0,.2.1.1.3Z"/>
    <path d="M263.7,213.5c0,.1-.1.1-.3.1,0,0,.1-.2.3-.1Z"/>
    <path d="M314.1,184.4c0,.1,0,.2-.1.4,0-.1,0-.2.1-.4Z"/>
    <path d="M282.2,81c.1,0,.1.1.1.3,0,0-.2-.1-.1-.3Z"/>
    <path d="M38.2,43.6c0-.1,0-.2.1-.4,0,.1,0,.2-.1.4Z"/>
    <path d="M204.4,216.3c.1,0,.1.1.1.3,0,0-.2-.1-.1-.3Z"/>
    <path d="M328.2,181.4c.1,0,.1.1.1.3,0,0-.2-.1-.1-.3Z"/>
    <path d="M315.5,179.8c.1,0,.1.1.1.3,0,0-.2-.1-.1-.3Z"/>
    <path d="M6,177.2c0-.1.1-.1.3-.1,0,0-.1.2-.3.1Z"/>
    <path d="M215.1,217.9c.1,0,.1.1.1.3,0,0-.2-.1-.1-.3Z"/>
    <path d="M218.5,218.3c0,.1-.1.1-.3.1,0,0,.1-.2.3-.1Z"/>
    <path d="M44.3,39.9c-.1,0-.1-.1-.1-.3,0,0,.2.1.1.3Z"/>
    <path d="M245.3,218.7c.1,0,.1.1.1.3,0,0-.2-.1-.1-.3Z"/>
    <path d="M155.9,176.6c.1,0,.2,0,.4.1-.1,0-.2,0-.4-.1Z"/>
    <path d="M261.9,39.2c0-.1,0-.2.1-.4,0,.1,0,.2-.1.4Z"/>
    <path d="M32.6,231.8c.1,0,.1.1.1.3,0,0-.2-.1-.1-.3Z"/>
    <path d="M153.9,176c-.1,0-.2,0-.4-.1.1,0,.2,0,.4.1Z"/>
    <path d="M244.5,238.1c.1,0,.1.1.1.3,0,0-.2-.1-.1-.3Z"/>
    <path d="M36.8,245.6c0,.1-.1.1-.3.1,0,0,.1-.2.3-.1Z"/>
    <path d="M268.6,38.5c.1,0,.2,0,.4.1-.1,0-.2,0-.4-.1Z"/>
    <path d="M37,250.4c.1,0,.1.1.1.3,0,0-.2-.1-.1-.3Z"/>
    <path d="M295.3,38.3c0-.1.1-.1.3-.1,0,0-.1.2-.3.1Z"/>
    <path d="M19.9,86.3c0-.1.1-.1.3-.1,0,0-.1.2-.3.1Z"/>
    <path d="M92.8,89.1c-.1,0-.2,0-.4-.1.1,0,.2,0,.4.1Z"/>
    <path d="M141.1,173c0,.1-.1.1-.3.1,0,0,.1-.2.3-.1Z"/>
    <path d="M252,31.6c0-.1.1-.1.3-.1,0,0-.1.2-.3.1Z"/>
    <path d="M61.2,31.3c0-.1,0-.2.1-.4,0,.1,0,.2-.1.4Z"/>
    <path d="M268.5,274.8c-.1,0-.1-.1-.1-.3,0,0,.2.1.1.3Z"/>
    <path d="M126.8,172.8c-.1,0-.1-.1-.1-.3,0,0,.2.1.1.3Z"/>
    <path d="M290.9,276.2c.1,0,.1.1.1.3,0,0-.2-.1-.1-.3Z"/>
    <path d="M249.6,30.8c0-.1.1-.1.3-.1,0,0-.1.2-.3.1Z"/>
    <path d="M92.8,89.3c.1,0,.2,0,.4.1-.1,0-.2,0-.4-.1Z"/>
    <path d="M263.7,278c-.1,0-.1-.1-.1-.3,0,0,.2.1.1.3Z"/>
    <path d="M65.5,29.4c.1,0,.1.1.1.3,0,0-.2-.1-.1-.3Z"/>
    <path d="M281.4,171.4c.1,0,.1.1.1.3,0,0-.2-.1-.1-.3Z"/>
    <path d="M70.3,90.7c0-.1.1-.1.3-.1,0,0-.1.2-.3.1Z"/>
    <path d="M280.4,286.7c-.1,0-.1-.1-.1-.3,0,0,.2.1.1.3Z"/>
    <path d="M38.4,289.3c0,.1-.1.1-.3.1,0,0,.1-.2.3-.1Z"/>
    <path d="M241.2,27.8c.1,0,.2,0,.4.1-.1,0-.2,0-.4-.1Z"/>
    <path d="M38.2,290.5c.1,0,.1.1.1.3,0,0-.2-.1-.1-.3Z"/>
    <path d="M122.3,93.9c0-.1.1-.1.3-.1,0,0-.1.2-.3.1Z"/>
    <path d="M282.2,96.3c0-.1.1-.1.3-.1,0,0-.1.2-.3.1Z"/>
    <path d="M27.1,297.6c.1,0,.1.1.1.3,0,0-.2-.1-.1-.3Z"/>
    <path d="M240,27.2c-.1,0-.2,0-.4-.1.1,0,.2,0,.4.1Z"/>
    <path d="M281.4,163.3c0-.1.1-.1.3-.1,0,0-.1.2-.3.1Z"/>
    <path d="M280,300.3c0,.1,0,.2-.1.4,0-.1,0-.2.1-.4Z"/>
    <path d="M99.1,162.3c0,.1-.1.1-.3.1,0,0,.1-.2.3-.1Z"/>
    <path d="M9,161.4c0,.1,0,.2-.1.4,0-.1,0-.2.1-.4Z"/>
    <path d="M282,101c-.1,0-.1-.1-.1-.3,0,0,.2.1.1.3Z"/>
    <path d="M116.3,102.4c.1,0,.1.1.1.3,0,0-.2-.1-.1-.3Z"/>
    <path d="M320.3,158c.1,0,.1.1.1.3,0,0-.2-.1-.1-.3Z"/>
    <path d="M84.8,22.2c0,.1,0,.2-.1.4,0-.1,0-.2.1-.4Z"/>
    <path d="M89.7,20.5c0-.1.1-.1.3-.1,0,0-.1.2-.3.1Z"/>
    <path d="M27.5,326.9c0-.1,0-.2.1-.4,0,.1,0,.2-.1.4Z"/>
    <path d="M284.4,20.1c-.1,0-.1-.1-.1-.3,0,0,.2.1.1.3Z"/>
    <path d="M93.7,19.1c.1,0,.1.1.1.3,0,0-.2-.1-.1-.3Z"/>
    <path d="M210.4,18.9c0-.1.1-.1.3-.1,0,0-.1.2-.3.1Z"/>
    <path d="M115.1,103.4c0-.1.1-.1.3-.1,0,0-.1.2-.3.1Z"/>
    <path d="M264.3,157c0-.1.1-.1.3-.1,0,0-.1.2-.3.1Z"/>
    <path d="M10.4,157c0-.1.1-.1.3-.1,0,0-.1.2-.3.1Z"/>
    <path d="M198.9,16.1c0-.1.1-.1.3-.1,0,0-.1.2-.3.1Z"/>
    <path d="M321,155c0-.1.1-.1.3-.1,0,0-.1.2-.3.1Z"/>
    <path d="M118.9,14.1c-.1,0-.1-.1-.1-.3,0,0,.2.1.1.3Z"/>
    <path d="M54,107.2c.1,0,.1.1.1.3,0,0-.2-.1-.1-.3Z"/>
    <path d="M321.4,153.5c0-.1,0-.2.1-.4,0,.1,0,.2-.1.4Z"/>
    <path d="M93.2,107.6c.1,0,.2,0,.4.1-.1,0-.2,0-.4-.1Z"/>
    <path d="M241.5,12.7c0,.1-.1.1-.3.1,0,0,.1-.2.3-.1Z"/>
    <path d="M93.7,144.9c.1,0,.1.1.1.3,0,0-.2-.1-.1-.3Z"/>
    <path d="M281.6,144c0,.1,0,.2-.1.4,0-.1,0-.2.1-.4Z"/>
    <path d="M281.8,144c0-.1,0-.2.1-.4,0,.1,0,.2-.1.4Z"/>
    <path d="M93.2,112.1c-.1,0-.2,0-.4-.1.1,0,.2,0,.4.1Z"/>
    <path d="M143.1,11.5c0,0-.2.1-.3,0,0,0,.2,0,.3,0Z"/>
    <path d="M93.7,139.6c0-.1,0-.2.1-.4,0,.1,0,.2-.1.4Z"/>
    <path d="M143.3,11.5c0-.1,0-.2.1-.4,0,.1,0,.2-.1.4Z"/>
    <path d="M266.5,139.1c-.1,0-.1-.1-.1-.3,0,0,.2.1.1.3Z"/>
    <path d="M194.1,403.3c0-.1.1-.1.3-.1,0,0-.1.2-.3.1Z"/>
    <path d="M71.5,138.7c0-.1.1-.1.3-.1,0,0-.1.2-.3.1Z"/>
    <path d="M87.4,9.6c.1,0,.1.1.1.3,0,0-.2-.1-.1-.3Z"/>
    <path d="M30.2,413.1c.1,0,.1.1.1.3,0,0-.2-.1-.1-.3Z"/>
    <path d="M29,413.9c.1,0,.1.1.1.3,0,0-.2-.1-.1-.3Z"/>
    <path d="M93.7,8c.1,0,.1.1.1.3,0,0-.2-.1-.1-.3Z"/>
    <path d="M207.6,5c0-.1.1-.1.3-.1,0,0-.1.2-.3.1Z"/>
    <path d="M143.3,425.8c.1,0,.1.1.1.3,0,0-.2-.1-.1-.3Z"/>
    <path d="M144.5,425.8c.1,0,.1.1.1.3,0,0-.2-.1-.1-.3Z"/>
    <path d="M93.6,135.3c.1,0,.2,0,.4.1-.1,0-.2,0-.4-.1Z"/>
    <path d="M331.8,134.6c.1,0,.1.1.1.3,0,0-.2-.1-.1-.3Z"/>
    <path d="M51.3,3.2c.1,0,.1.1.1.3,0,0-.2-.1-.1-.3Z"/>
    <path d="M196.5,2.8c.1,0,.1.1.1.3,0,0-.2-.1-.1-.3Z"/>
    <path d="M64.9,426.8c-.1,0-.1-.1-.1-.3,0,0,.2.1.1.3Z"/>
    <path d="M19.5,134.2c.1,0,.1.1.1.3,0,0-.2-.1-.1-.3Z"/>
    <path d="M195.1,2.8c0,.1-.1.1-.3.1,0,0,.1-.2.3-.1Z"/>
    <path d="M93.1,113.4c0,.1,0,.2-.1.4,0-.1,0-.2.1-.4Z"/>
    <path d="M148.1,113.5c.1,0,.1.1.1.3,0,0-.2-.1-.1-.3Z"/>
    <path d="M281.8,114.7c.1,0,.1.1.1.3,0,0-.2-.1-.1-.3Z"/>
    <path d="M184,1.8c-.1,0-.1-.1-.1-.3,0,0,.2.1.1.3Z"/>
    <path d="M281.8,121.5c.1,0,.1.1.1.3,0,0-.2-.1-.1-.3Z"/>
    <path d="M311.5.3c0-.1.1-.1.3-.1,0,0-.1.2-.3.1Z"/>
    <path d="M216.2,209c-.3-.1-.5-.3-.6-.4-.5-.5,0-.8.3-1,0,0,.6.3.7.6,0,.2,0,.6-.4.9Z"/>
    <path d="M108.2,85.2c-.2-.1-.2-.3-.3-.5,0,0,.2,0,.2,0,0,.2,0,.3,0,.6Z"/>
  </g>
</svg>