<?xml version="1.0" encoding="UTF-8"?>
<svg id="Layer_1" xmlns="http://www.w3.org/2000/svg" version="1.1" viewBox="0 0 349.4 346.9">
  <!-- Generator: Adobe Illustrator 29.3.1, SVG Export Plug-In . SVG Version: 2.1.0 Build 151)  -->
  <g id="Shape_97">
    <path d="M49.8,4.3c2.8-.2,5.4-.4,7.9.7.1,0,.2.1.4.2.3-1.9,1.7-.8,2.6-.8,3.3-.4,6.6-.5,9.9-.7.7,0,1.5.5,2.2.6,1.5.2,2.9.4,4.4.3.6,0,1.1-.7,1.6-1.1.3-.2.5-.5.8-.8.2.2.3.5.5.7,1,1.5,2.2.6,3.3.3.8-.2,1.5-.7,2.2.3,0,0,.5,0,.5,0,.6-1.6,1.1-.7,2-.2.8.4,2,0,3,.2,2.3.3,4.6.8,6.8,1.1.3,0,.7,0,1,0-.2-.4-.3-.8-.5-1.1-.2-.3-.5-.5-.8-.8.4,0,.9,0,1.2.1,1.5.9,3.3,2.2,4.9,1.2,2.1-1.3,4.2-1.2,6.1-.7,2.1.5,4.1.2,6.2.2.6,0,1.1-.4,1.7-.6.4-.1.9-.2,1.3-.4,0,.4,0,.8.2,1.1,0,.2.2.4.4.5.2,0,.7.1.8,0,2.1-1.9,4.9-.6,7.2-1.5.2-.1,1.8-.9,1.3.8,0,0,.7.4,1.1.4.8,0,1.6,0,2.4,0,.9,0,1.8.3,2.3-1,.1-.3,1-.5,1.5-.4,1.2.1,2.5.2,3.5.8,1.6,1,2.9.3,4.5,0,3.4-.6,7-.7,10.5.1,1.1.3,2.7.2,3.5-.5,1.5-1.3,2.7,0,4,0,1.3,0,2.5.1,3.8.2,1.1,0,2.2.3,3.3.3.9,0,1.8-.4,2.7-.6,1.1-.2,1.7.1,1.5,1.4,0,.4.3.8.5,1.2.2-.4.4-.9.5-1.3,0-.3-.1-.8,0-1,.3-.3,1-.5,1.1-.4.6.7,1.1.5,1.9.4,2.1-.1,4.3.1,6.5.3.4,0,.8.7,1.2,1.1.2.2.5.3.8.5,0-.3.1-.6,0-.9-.2-1,.2-1.3,1.1-1.2,1.7,0,3.7.6,5.2,0,2-.8,3.7,0,5.5,0,2.4.2,4.9-.3,7.3-.2,2,.1,4-1.1,6,.2.3.2,1.3-.5,1.9-.8.9-.5.9-.4,1.3.4.2.3.8.5,1.2.5,2.6-.4,5.4.8,7.9-.6.2-.1.7.1,1,.3.8.5,1.6,1.2,2.5,0,0,0,.2,0,.3,0,2,.2,4.1.6,6.1.6,2.5,0,5-.1,7.5-.3.5,0,1-.7,1.6-1,.3-.2.6-.2.9-.3,0,.3.2.8,0,.9-.5.4-.7.9,0,1.2.4.1.9,0,1.3-.2.2,0,.5-.3.6-.6.4-1,.5-2.5,1.8-.5.2.2,1.3-.1,2-.3.6-.1.5-.1.7.6,0,.2.6.6.8.5,1.6-.7,4,.1,4.6-2.5,0-.3.7-.5,1.1-.7,0,.3-.1.7-.2,1,0,.5-.2,1.1,0,1.6.1.5.5.8.8,1.2.3-.4.7-.8.8-1.2,0-1.1.3-.7,1-.4,1.9.9,3.8,1,5.9.3,1.4-.4,3,0,4.4.1.9,0,1.7.5,2.1-.7,0-.2.7-.5.9-.4,1.3.3,2.6.7,3.9,1,.6.1,1.5.3,1.7,0,.8-.8,1.5-.8,2.4-.4.5.2,1.1,0,1.6,0,3.1.1,6.1.2,9.2.3.4,0,.9-.3,1.3-.5.5-.2,1.1-.6,1.4-.5.8.4,1.4.9,2.1-.3,0-.2,1.2.2,1.8.4.4.2,1.1.8,1.1.8.6-.5,1-1.2,1.5-1.8,0,0,0-.3,0-.3.3-.4.7-.8,1-1.1.2.5.7,1.2.5,1.6-.5,1.3,0,1.4,1.1,1.4,1.4,0,2.9.2,4.1-1.1.4-.4,1.2-.4,1.9-.5,0,0,.3.5.3.6-1.3,1.4,0,1.5.8,1.3,1.9-.3,3.7-.7,5.6-1.1.3,0,.7-.3.9-.2,1.3,1.2,2.6.1,3.9.1,1.4,0,3-.4,4.2.8.2.2.5.5.8.5.5,0,1.1-.2,1.6-.3-.3-.4-.6-.9-1-1.2-.2-.2-.6-.2-.9-.4.4,0,.8-.2,1.2-.2.5,0,1.1,0,1.6.3.5.1.9.4,1.4.6.3.1.6.4.9.3,1.7-.3,3.6.7,5.2-.6.1,0,.4,0,.6,0,0,.2,0,.5-.2.7-1.3,1.1-.6,1.6.6,2.1,2,.8,4.1,1.4,5.4,3.4.3.4.5.8.8,1.2.3.4-.4,1.9,1.1.9.1.3.3.6.3.9,0,1.2.6,1.9,1.8,2.1.2,0,.4.1.6.2-.2.2-.3.3-.5.5-.2.3-.6.7-.5.9.6,1.4,1.1,3,2,4.1.8,1.1.3,1.2-.5,1.6-.4.2-.7.4-1,.7-.5.5-1,.9.3,1,.5,0,.8.8,1.2,1.2-.3.3-.7.5-.9.8-.2.3-.3.8-.2,1,.7,1.3.7,2.5.5,3.9-.3,1.3.2,2.8.2,4.2,0,.4-.2.8-.2,1.2,0,1.1-.2,2.1,0,3.2.3,2.4.3,4.8-.8,7-.2.4-.4,1-.5,1.4,0,0,.3.2.3.2.5-.4.9-.8,1.3-1.2.3-.4.5-.8.7-1.2.8.6.4,1.1,0,1.9-.9,2.4-1.4,4.8-2.1,7.3,0,.1.2.5.4.5,1.1.3,1.3.6,1.2,1.5-.1,1.2,0,2.5,0,3.7,0,.4.2,1,0,1.1-2.1,1.7-.1,3.7-.3,5.5,0,.1.3.3.3.4-.4.7-2,1.3-.1,2.3.3.2-.4,2.1-.5,3.2,0,1.9,0,3.7,0,5.6,0,.7-.1,1.5-.5,1.9-1,.9-1.1,1.6-.1,2.7.5.5.6,1.4.7,2.2.2,1.7.2,3.4.4,5.1,0,.2,0,.6,0,.6-1.3.5-.6,1.5-.6,2.3,0,2.5-.6,5.3.2,7.6.7,2.2-.6,3.9,0,5.9.6,1.9.6,4.1.9,6.1,0,.2,0,.5,0,.6-1.8,2.1-.4,4.5-.7,6.8,0,.7-.4,1.4-.5,2.1,0,.3.1.8.3.9,1.4.5,1.7,1.3.6,2.4-1,1.1-1.4,1.9,0,3,.5.4.6,1.2.8,1.8,0,.2-.3.9-.4.9-1.7,0-1.6.5-.9,1.8.5.9.8,2-.3,2.9-.2.2-.3,1.1-.1,1.3,2.2,1.5.7,3.5.3,5-.4,1.3-.6,2.4.2,3.5,0,.1.2.2.3.4-2.4,1,.9,3.2-.9,4.3.2.2.3.4.5.5.3.1.6.1.9.2-.1.2-.3.4-.4.7-.3.9-.6,1.9-.8,2.8-.2,1-.1,2.1-.4,3.2-.2.9-.6,1.7.7,2.1.2,0,.3.7.3,1,0,2-.3,4-.3,6.1,0,2.1.4,4.2.5,6.4,0,.6-.4,1.2-.5,1.8,0,.9,0,1.8,0,2.7-.2,1.5-.5,2.9-.6,4.4,0,.3-.6,1.6.7.7,0,.5.3.9.3,1.4,0,.5-.4,1.1-.2,1.4.5.7.2,1,0,1.7-.3.9,0,2,0,3.1,0,.4,0,.9,0,1.3,0,.6-.1,1.2,0,1.7.4.8,1,1.4-.1,2.1,0,0-.1.3,0,.4.7,1.8,0,3.5-.3,5.2,0,.3.3.8.4.8,1.6-.1,1.3,1,1.3,1.9,0,.9.1,1.9,0,2.8,0,.2-.5.5-.8.7-.4.3-1.3.8-1.3,1,.4,1.4,0,2.9.6,4.3.5,1.3.7,2.9.6,4.4-.1,2.4-.7,4.8-.9,7.2,0,.7.2,1.4.3,2,.4,1.5,1,2.9-.1,4.4,0,0,.2.5.3.7.3.3.7.6.9.9.2.3,0,.7.1,1-.3-.1-.5-.2-.8-.4-.3-.2-.6-.4-.9-.6,0,.4.1.8.2,1.1.6,3.6,1,7.1.1,10.8-.4,1.7.2,3.7.2,5.5,0,1.1-.2,2.2-.3,3.2,0,.1,0,.3,0,.3,2.5,2.2.5,4.5,0,6.7-.3,1.4-.7,2.8.4,4.1.2.3.3,1.2,0,1.4-.9.9-.6,1.8-.6,2.9,0,1.9.9,3.5.8,5.3,0,1.4-.2,2.9,0,4.2.5,2.1-.8,4.4.8,6.4.2.2-.3,1-.5,1.5,0,0-.4.1-.4.1-.1-.4-.2-.8-.3-1.2-.1-.4-.3-.8-.4-1.2-.1,0-.3,0-.3.1,0,.4,0,.8,0,1.3.3,2.3.8,4.6,1,6.9.2,3.3,0,6.6,0,9.9,0,.7.4,1.4.5,2.1,0,.3,0,.6,0,.9-1.4,2.9-.7,5.8-.4,8.8.3,2.9.5,5.9,0,9-.4,2.1,0,4.4,0,6.6,0,.4.2.9,0,1.2-.7,2.4-1.6,4.7-2.2,7.1-.3,1-.2,1.7-1.5,1.1-.8-.3-1.6-.2-1.4,1.3.1.8-.5,2-1.2,2.4-1.4.9-3,1.6-4.6,2.1-1.3.5-2.6.7-3.9,1-1.4.3-2.9.6-4.4.6-1.3,0-2.7-.5-4-.6-1-.1-2.2-.3-3,0-2.4,1-4.8.7-7.2.1-.3,0-.6-.2-.9-.2-.3,0-.5,0-.8.1.2.2.4.4.5.6.2.3.5.6.6.9,0,.2-.5.6-.6.6-.4-.2-1.1-.5-1.1-.8,0-1.3-.9-1-1.7-1.1-2.2-.5-4.4-.3-6.6.4-.1,0-.2,0-.3,0-3.9-1.6-7.7.7-11.6,0-4.4-.7-8.8-.9-13.2-1.4-.2,0-.6,0-.8.1-1.8,1.1-3.7,1.1-5.7.5-.6-.2-1.3.2-2,.3-2.3.2-4.6,0-6.8-.9-.3-.1-.8.3-1.2.6,0,0,.2.5.3.8.3.6.5,1.2.7,1.9,0,.1-.1.4-.3.5-.1,0-.4,0-.6-.2-.3-.3-.5-.7-.7-1-1-2-2.3-2.3-4.4-1.4-.7.3-1.9.1-2.5-.3-1-.8-1.9-.6-2.6,0-1,.8-1.8.5-2.9.4-1.2-.1-2.4.1-3.6.2-.6,0-1.2,0-1.7,0-1.3,0-2.6,0-4,0-1,0-1.9.1-2.7-.9-.2-.3-1.2-.3-1.6-.1-1.9,1-3.7,1-5.8.7-1.8-.2-3.6-.5-5.4-1-.7-.2-1.7.5-2.5.9-1,.5-1.8.8-2.9.2-.6-.3-1.9.4-2.4,0-1.1-1-2.5-.8-3.4-.5-1.3.4-2.4.4-3.6.2-1.5-.2-2.9-.6-4.4-.6-1.1,0-2.2.2-3.3.4-.3,0-.7.3-.9.3-2.2-1-4.5-.7-6.7,0-.2,0-.5.1-.6,0-2.6-2-5-.3-7.5.4-.6.2-1.3.1-2,.1.2-.4.3-.8.4-1.2,0,0-.3-.3-.5-.3-2,0-4,0-6,0-.4,0-.8-.5-1.2-.9-.2-.2-.3-.5-.5-.8-.3.2-.8.4-.8.6-.1,1.7-1.2,1.6-2.5,1.8-1.7.3-3.2-.3-4.7-.4-3.3,0-6.6-.2-9.9,0-1.6,0-3.3-.2-4.8.9-.2.2-.8-.1-1.2-.2-1.2-.2-2.3-.5-3.5-.8-1-.2-1.9-.6-2.9-.6-1.3,0-2.7.2-4,.3-1.1,0-2.3,0-3.4,0-1.1,0-2.2.3-3.4.3-1.9,0-3.8,0-5.7,0-.5,0-1.1.2-1.4.6-.8,1-1.6.6-2.4,0-.6-.3-1.2-.6-1.9-.7-2.8,0-5.7-.4-8.5,0-2.2.4-4-1.2-6.1-.8-.3,0-.6-.1-.8,0-1.2.9-2.4,1.7-3.4-.3,0,0-.2,0-.3,0-1.4.9-2.3.4-3.2-.8,0,0-.9.3-1,.6-.4,1.1-1.1,1.1-2,1.2-1.7.1-3.5.3-5.2.7-1.3.3-2.2.3-2.9-1-.5-.9-1.4-1.2-2.3-.3-1.2,1.3-2.6,1-3.7.2-1-.7-1.4-1.1-2.9-.5-2,.9-4.4.8-6.7,1.1-.8.1-1.7,0-2.5,0-.3,0-.7,0-.8-.1-.5-1.1-1.5-.9-2.3-.8-1.3.2-2.5.6-3.8.9,0,0-.2.1-.3.1-2.1-1.5-4.5,0-6.6-.7-.3,0-.6-.6-.9-.7-.4-.1-1.1-.2-1.2,0-.9,1.8-2.5.9-3.7.9-2,0-4.1-.8-6-.5-2.2.4-4.3,0-6.4.2-.2,0-.5,0-.7,0-1.2.9-2.3.5-3.7.1-1.6-.5-3.5-.1-5.3,0-2.3.2-4.5.5-6.7-.9-.6-.4-1.7-.1-2.6,0-3.1.9-5.6-.6-8-2.1-1.2-.7-2.2-1.8-3.2-2.8-.8-.8-1.6-1-2.6-.4-.2.1-.5,0-.8.1,0-.3,0-.7,0-.9.2-.3.6-.7,1-.8,1.5-.7,1.5-.7.1-1.8-1.4-1.1-1.5-2.7-1.6-4.2-.2-2.6-.2-5.3-.2-7.9,0-1,0-1.9,0-2.9,0-1.4-.1-2.8-.2-4.3,0-.2,0-.4,0-.6,0-2.4,0-4.7,0-7.1,0-.4.2-1,0-1.3-1.2-1.4-.1-2.9-.3-4.3-.2-2.3-.2-4.6-.3-6.9,0-.4,0-.9.1-1.3.1-.5.4-1,.4-1.5-.1-1.5-.5-3.1-.6-4.6,0-1.3.1-2.6.2-3.9,0-.8.4-1.8,0-2.2-1.1-1.5-.5-3.1-.2-4.4.8-3.3-.4-6.3-.9-9.5,0-.2-.3-.4-.2-.6,1-1.8,0-4.1,1.4-5.8.9-1.1.6-2.1-.3-3.1-.3-.3-.6-.9-.5-1.3.9-2.6,0-5.3.3-7.9-1.8-1.3,0-3.5-1.3-5-.2-.2-.2-.8,0-1.1,1.4-2.3.7-4.9.9-7.3.2-1.6,0-3.2,0-4.9,0-.3-.6-.6-.6-.9,0-.4.2-.8.4-1.1.1-.1.6,0,.8,0-.2-.3-.4-.5-.5-.8-.3-.7-.7-1.4-.8-2.2-.2-1.3-.4-2.7-.3-4,.1-2.2-.1-4.4.9-6.4.2-.3.2-1,0-1.1-1.4-.8-.6-2.1-.6-3.1-.2-3.2-.4-6.3-.7-9.5,0-1.1,0-2,1-2.8.3-.3.4-.9.6-1.3-.7-.3-1,0-.9.7,0,0-.5.2-.5.1-.2-.4-.6-.9-.4-1.1.7-1.2.3-2.5.3-3.8,0-1.6,0-3.2,0-4.9.1-2.1-1.3-4.2.2-6.4.4-.6-.2-1.8-.2-2.8,0-2.2,0-4.5,0-6.7,0-1.8-.2-3.6-.3-5.4,0-.2,0-.4,0-.5,1.2-1.3,0-2.7,0-4,0-1.2,0-2.4,0-3.5-.2-2.6-.6-5.2-.6-7.9,0-1.8.4-3.7.6-5.5,0-.4.2-.8,0-1.1-1.1-2.4-.7-4.8-.4-7.2.2-1.2-.2-2.5-.2-3.7,0-1.2,0-2.4,0-3.6,0-.3.2-.5.1-.8-1-3.2.5-6.4,0-9.6,0-.3,0-.6-.1-.9-.1-1-.4-1.9-.4-2.9,0-1.3,1.8-2.7-.3-3.9-.7-.4.1-3.1.8-3.9.2-.2.2-1,0-1.2-.7-.7-.8-1.4-.5-2.4.2-.7,0-1.5,0-2.2s-.4-2.3,0-2.8c1.3-1.4.6-2.4,0-3.6-.2-.5-.1-1.2,0-1.8.5-2.3-1-4.7.3-6.9-1.2-1.9-.4-4-.7-5.9,0-.6,0-1.3,0-1.9,0-.4.4-.9.3-1.2-1.1-2.5.4-4.9.2-7.3-.1-1.3-.5-2.7-.5-4,0-2.4,0-4.7,0-7.1,0-.5-.2-1-.3-1.5-.5-2.6-.9-5.1.6-7.5.1-.2,0-.5-.1-.8-.7-2.9-1.4-5.8-.5-8.9,0-.2,0-.5,0-.7-1.4-2.8,0-5.6,0-8.4,0-2.8-.6-5.7-.5-8.5,0-2.8.2-5.7,2.1-8.1.4-.5.7-1.1,1-1.7,0,0-.6-.4-.9-.6-.2-.1-.4-.2-.6-.4.2-.1.4-.2.6-.3.6-.3,1.2-.4,1.6-.8,1.3-1.2,2.5-2.6,3.9-3.8.3-.3,1.1-.1,1.7,0,.5,0,1.1.2,1.6.3-.2-.4-.6-.7-.7-1.2,0-.2,0-.8.2-.8,1.3-.4,2.7-.7,4.1-1,.4-.1.7-.5,1.1-.6.7-.1,1.4-.3,2-.1,2,.5,3.9,1,6.1.4,1.2-.4,2.6-.2,3.8-.4.5,0,1-.2,1.5-.3.8-.3,1.5-.7,1.1.8,0,.2.3.6.5.8.6-.5,1.3-.8,1.7-1.4.3-.4.3-1,.4-1.5.2.5.2,1.1.5,1.3,1,.7,2.1,1.4,3.1,2,.1,0,.4-.2.6-.3-.2-.1-.4-.3-.5-.4-.4-.4-.9-.9-1.3-1.3.8,0,1.6,0,2.4,0,.2,0,.5.1.5.3,1.1,2.3,2.8.8,4.3.7,2-.2,4.1-.2,6.3-.4M307.4,11.6c-2.3.3-4.6.8-6.9.9-.8,0-2.6,1.2-2.6-1.1,0,0-.2-.1-.3-.1-1,0-1.9,0-2.9,0-.8,0-1.5-.2-2.3-.3-.7,0-1.7-.2-2.1.1-1.4,1.1-2.7,1.4-4.4.9-.8-.3-1.8-.1-2.7,0-1.1.1-2.2.5-3.4.6-.4,0-1.1-.2-1.2-.5-.5-.8-.8-.9-1.5-.2-.2.3-.7.4-1.1.4-1,0-2,0-3,.2-1.1.2-2.2.6-3.3.8-.2,0-.4-.2-.6-.4,0,0,.1-.3.3-.4.8-.8,1.8-1,2.9-.7.3,0,.6-.1.9-.2-.2-.2-.4-.5-.6-.6-.9-.1-1.8-.3-2.6-.2-2.1.4-4.1,1.3-6.2,1.4-2.6.2-5.3,1.2-7.8-.4-.6-.4-1.7.1-2.3-.3-1-.7-1.6-.4-2.4.2-1.4,1.1-4,1.3-4.9.3-1.3-1.4-2.1-.6-2.6.4-.5.9-.9.8-1.7.7-2-.3-4-.7-5.9-.9-.8,0-1.6,0-1.5-1.2,0-.2-.1-.3-.3-.5,0,0-.3,0-.4.2-.9,1.2-2.5,2.1-3.9,2.1-4.6,0-9.2-.2-13.9-.3-.3,0-.5-.1-.8-.1-2.4,0-4.7,0-7.1,0-1.2,0-2.4,1-3.7-.4-.7-.8-2.2-1.3-3.3.3-.6,1-1.5.1-2.1-.2-1.1-.7-2.2-1-3.3,0-.3.3-1.1,0-1.7,0-.7,0-1.5-.5-2.1-.4-1,.2-2,.9-3.1,1-1.7.1-3.5,0-5.3-.1-.5,0-1-.4-1.5-.4-2.4.1-4.8-1-7.1.3-.3.2-.8.2-1.1,0-.9-.5-1.5-.3-2.3.2-.6.4-1.6.2-2.4,0-1.4-.2-2.8-.7-4.2.3-.8.6-1.4.3-2.2-.2-.6-.4-1.3-.5-2.1-.6-1,0-2,0-3,0-.4,0-.9,0-1.3.1-.7.1-1.4.5-2.1.5-1.3-.1-2.6-.3-3.8-.8-1-.4-2.6.5-2.8-1.4-.2,0-.5,0-.5.1-.7,1.8-2.7,1-3.9,1.8-.5.3-1,.4-1.1-.5-.1-.9-.5-.8-1.1-.2-.4.4-1,1-1.5,1-1.2.2-2.4,0-3.6,0-.2,0-.5-.5-.6-.8-.1-.3-.1-.7-.2-1-.3.2-.8.4-.8.7,0,1.5-1.2,1.2-2.1,1.3-1,0-2.3-.6-2.5,1.2,0,0-.6.2-.9.2,0-.3,0-.6,0-.9,0-.4.2-.8.3-1.1-.4,0-.8,0-1.2,0-1.1.2-2.2.4-3.3.5-.9,0-1.8-.1-2.6.1-1.4.5-2.8.2-4.2,0-1.9-.2-3.9-.3-5.7,0-1,.2-1.8.3-2.8,0-1.1-.4-2.3-.9-3.5.2-.2.2-1.3,0-1.3-.2-.4-1.1-1-1.2-2-.7-1.1.5-2.6,1.3-3.5.9-2.1-.8-3.9,0-5.8.2-.3,0-.5.2-.8,0-1.6-.4-3.2-1.3-4.6-1-2.5.6-5,.8-7.6.9-.9,0-1.8-.2-1.8,1.2,0,.1-.5.3-.8.5,0-.2,0-.5,0-.7.2-1.2-.4-1.7-1.5-1.3-1.9.8-3.9.4-5.8,0-.7-.2-1.1-.3-1.8.3-1.1,1.1-2.2.7-2.8-.7-.2-.5-1.2-1.1-1.4-.9-1.9,1-3.8,2-6.1,1.7-.3,0-.6.4-.9.6-.2.1-.5.2-.7.2,0-.3,0-.6,0-.9,0-.3.3-.6.5-.9-.4,0-.8,0-1.2,0-1.2,0-2.3.1-3.5.2-.3,0-.7,0-.9.2-1.4,1.4-2.9.8-4.5.5-1.2-.2-2.4-.1-3.5,0-1.1.1-2.3.7-3.4.6-1.1-.2-3,.4-3.3-1.7,0-.3-.9-.6-1.4-.8-.1,0-.3.1-.5.2.3.4.6.7.9,1.1,0,0,0,0,.1.1.2.5.4.9.7,1.4-.5,0-1,0-1.5-.2-1.1-.2-2.1-.6-3.2-.6-1.5-.1-3.1,0-4.6,0-.4,0-1.1-.2-1.1-.4-.6-1.9-2.2-.7-3-.7-1.1,0-2.3,1.2-3.4,1.9-.2.1-.5.2-.7.4-.1-.3-.3-.6-.3-.9,0-.8,0-1.5-.2-2.3,0-.5-.5-1-.8-.2-.4.9-.5,1.9-.7,2.9-.1.4-.4.7-.6,1-.2-.3-.5-.5-.7-.8-.3-.4-.5-.8-.7-1.2-.3.5-.6.9-.9,1.4-.6.9-.9,2.2-1.7,2.7-2.2,1.3-2.4,1.5-1.4,3.7.2.3-.1.9-.2,1.3-.2,0-.4,0-.6-.2-.3-.2-.6-.5-.8-.8-.1.5-.4,1.1-.3,1.5.3,1.3.7,2.6,1.1,3.9,0,.3,0,.6-.1.9-.3-.1-.7-.1-.9-.3-.3-.2-.4-.6-.6-.9-.2-.2-.4-.4-.7-.6,0,.3,0,.8.2,1,2.1,1.7,2.1,4,2,6.3,0,1.1-.9,2.4-.5,3.3.6,1.8-.5,3.6.5,5.3.4.6,0,1.7-.1,2.6,0,.6,0,1.1,0,1.7.1.8.4,1.5.4,2.3,0,2.4-.2,4.8.1,7.1.2,1.4,0,2.2-1.1,2.8-1,.5-1.2,1.2-1,2.1,0,.3.3.6.4.8.2-.2.4-.4.6-.6.5-.5,1.1-.9,1.7-1.3.2,0,.5.2.8.3-.1.2-.2.5-.5.6-.7.5-1.2.9-.8,2,.3.8.3,1.8-1.2,1.7-.2,0-.5.3-.7.5.3.2.5.4.8.5,1.2.2,1.2,1.1,1.2,2,0,1.4,0,2.9.1,4.3,0,.6.2,1.3.1,1.9-.1,1.4-.6,2.7-.6,4.1,0,3.2.2,6.4.3,9.5,0,.6.7,1.3.6,1.9-.4,2.6-1.3,5.1,0,7.7-1.3,1.9,0,3.9-.3,5.9-.2.9-.2,1.8,0,2.7.3,1.2.9,2.3-.3,3.4,0,0,0,.3,0,.5.1,2.4.1,4.9.3,7.3.2,2.8-.5,5.6.6,8.3.1.3,0,.7,0,1,0,.7,0,1.4,0,2.1,0,.5.2,1.1,0,1.4-1.3,1.4-1.2,3.2.1,4.6.2.2.2.7.2,1,0,2.8-.1,5.7-.3,8.5,0,1.7.2,3.6-.5,5-.6,1.4-.5,2.2,0,3.4.5,1,1.1,2.2,1,3.2-.4,2.5-.8,4.9.5,7.2.1.2,0,.6-.1.8,0,.1-.5.2-.6,0-.9-1-1.1-.5-1.1.5,0,.3-.2.6-.4.8-.4.8-.4.7.6.8.2,0,.6.7.5,1-.2,2.3.4,4.7-1,6.8-.1.2,0,.7.2.9,1.3.9,1,2.1,1.1,3.4,0,1.6-1.3,3.3.3,4.8,0,0-.3.3-.3.5,0,1.7,0,3.3,0,5,0,1.8.2,3.7.3,5.5.1,2.1.2,4.3.3,6.4,0,1.2.3,2.5.3,3.7,0,3.7-.4,7.4-.3,11.2,0,2.5.6,5-.4,7.5-.2.4.1,1,.2,1.5.2,1.7.4,3.4.5,5,0,1.2,0,2.4-.2,3.6-.4,2.8,1.9,5.5,0,8.3,0,0,0,.2,0,.3.3,1.4,1.1,3.1.6,4.2-.7,1.6,0,3-.1,4.5-.2,2.3-.1,4.7,0,7,0,.8.6,1.6.6,2.4,0,1.7-.4,3.4-.2,5,.2,1.5-1.2,3.2.2,4.7.2.2,0,.7,0,1.1,0,.5,0,1,0,1.5.1,2,.4,4,.4,6,0,3.8-1.6,7.5-.3,11.3.2.5,0,1.1,0,1.7,0,.8-.6,1.8-.3,2.3,1.7,2.8-1,5.6.2,8.3,0,.1-.2.4-.3.7,0,.2,0,.5,0,.7.2,2.6.9,5.2.5,7.7-.3,2.4,1,4.8-.2,7.1,0,.1.1.4.1.6.2,1,.4,2.1.5,3.1,0,.9-.3,1.8-.3,2.7,0,1,.7,2.1.6,3-.2,2.4.8,4.5,1.8,6.5.3.7,1.2,1.5,1.9,1.5,1.4,0,2.5.5,3.4,1.6.6.7,1.1,1.1,2.2.6,1-.5,2.4-.7,3.5-.3,1.5.5,2.8,0,4.1-.4,1.2-.5,2.3-.5,3.6.4.7.5,1.9.7,2.9.5,1.1-.2,2.4.1,3.1-.1,1.5-.5,2.8,0,4.2-.2.4,0,.9-.4,1.2-.3,2.9,1.6,6-.3,8.9.6.5.2,1.5-.5,1.8-.2,1.3,1,3.1-1.2,4.2.6,0,0,.4,0,.5,0,1-1.4,2.2-1.1,3.5-.4.4.2,1.1-.2,1.7-.3.9,0,1.8-.1,2.7,0,1.4.2,2.7.7,4.1.9.3,0,.8-.2,1.1-.4.9-.5,1.7-1.1,2.5-1.5.2-.1.7.2,1,.3,0,.2-.2.4-.2.6,0,.3-.2.6-.2.9.5,0,1,.2,1.5,0,.9-.2,1.8-.7,2.8-.9,1.1-.3,2.3-.4,3.4-.6,1.7-.3,3.6-1,5.1.3,1.8,1.5,3.9,1.1,5.8,1.1,1.6,0,3.1-1.4,5.1-1,2,.4,4.1,0,6.2.1,1.3,0,2.6.7,3.9.6,2.8-.2,5.5-.6,8.3-.9,1.3-.1,2.7-.3,4-.3.6,0,1.9.1.8,1.4,0,.1,0,.4,0,.6.2,0,.5-.2.7-.3,1-.6,1.9-1.9,3,0,.2.2,1.4.2,1.8-.2.9-.7,1.6-.5,2.5.1.5.3,1.7.4,1.9.1,1-1.2,2.3-.8,3-.2,1,.8,1.5.5,2.2-.1.8-.7,1.6-.9,2.6-.3.4.2,1,.2,1.4.1,1.5-.1,2.7-1.3,4.4-.5,1.5.7,3.4-.3,4.7,1.2.1.1.7,0,1-.2,1.5-1.3,3.1-1.4,4.9-.6.2,0,.5,0,.8,0,2-.7,3.9-.6,5.7.8.4.3,1.5.2,1.9-.1,1.4-1.3,2.8-1.3,4.4-.8.6.2,1.4.4,1.9.2,1-.4,1.5-.3,2.4.3.7.5,1.9.1,2.9.1-.2-1.7,1.1-1,1.6-.8,1.4.5,2.8.9,4.3.3.2,0,.5,0,.8,0,.8.2,1.5.4,2.3.6.5.1,1.1,0,1.5.3,1.5.7,2.7.4,3.9-.7.8-.8,1.5-.9,2.7-.6,1.4.3,2.5,2.1,4.3.8.7-.5,1.8-.8,2.6.3.1.1.8-.1,1.2-.2.4,0,.9-.4,1.1-.3,1.8,1,3.5-.1,5.3-.2.9,0,.8-.2.7.7,0,.2.3.7.4.7.9-.2,1.8-.2,2.5-.7,1.2-.8,2.2-.7,3.2.2.5.4,1.2,1,1.6-.3.4-1.1,1.4-.6,2.3-.3.9.3,1.8.5,2.6.6.7.1,1.4.1,2.1.1.4,0,1.1,0,1.2-.2.5-1.1,1.3-.9,2.2-.8,2.2.4,4.4.8,6.5,1,1.2,0,2.5-.5,3.7-.6,1.1,0,2.2.3,3.3.3,1.5,0,3-.2,4.5-.3,2.1,0,4.2.6,6.1-.6.1,0,.7.2.8.5.4,1.5,2.3,2.1,3.6,1,1.8-1.4,2.9-1.3,4.4.2.2.2.5.5.8.5.2,0,.6-.5.5-.7-.4-.9.1-.9.8-.9,1.2,0,2.4,0,3.5,0s3.1,0,4.6,0c1.3,0,2.5,1.7,3.9,0,0-.1,1,.5,1.5.6.5.1,1,0,1.5,0,.7,0,1.4.2,2.1.2.7,0,1.6.3,2.1,0,1.1-.8,1.9-.8,3,0,.4.3,1.5.3,2,0,1.1-.8,2-1.5,2.8.2.2.3.9.4,1.3.5,0-.4,0-.8,0-1.2,0-.3.1-.7.3-.7,1.5-.5,2,.7,2.8,1.5.6.7,1.3,1.5,1.6-.3,0-.2.4-.6.6-.6,2.3,0,4.6-.1,6.9.1,2.4.3,4.9,1.4,7.2-.5.2-.1.5,0,.8,0,1,0,2,.1,3,.3,1.2.3,2.4.7,3.6.9.7.1,1.4,0,2.1-.2,1.4-.4,2.5-1.2,4.2-.8,1.6.4,3.9.9,4.9,0,2.2-1.9,5.2-3.1,6-6.6.6-2.7,2.5-5.2.5-8-.1-.2,0-.5,0-.8.2-2.4.5-4.8.6-7.3,0-1.3,0-2.7,0-4,0-1.6-.3-3.3-.3-4.9,0-1.7,0-3.5,0-5.2s0-4,0-6c0-1.7.6-3.4.6-5,0-2-.4-4-.6-6-.1-1.3-.4-2.7-.3-4,0-.8.9-1.5.9-2.2,0-2.1-.4-4.3-.5-6.4,0-2.6,0-5.3,0-7.9,0-.7,0-1.3,0-2,0-1.7,0-3.3.1-5,0-.7.6-1.6.3-2.1-1.5-2.9.1-5.9-.5-8.9,0-.3.4-.6.5-1,.2-.7.7-1.6.4-2.1-.9-1.4-.7-2.8-.6-4.3,0-2.5-.2-5-.3-7.5,0-1.8-.2-3.6-.3-5.4,0-.5,0-.9,0-1.4.2-1.1.6-2.3.6-3.4,0-2.5-.2-4.9-.3-7.4,0-2.1,0-4.2,0-6.3,0-2.2.7-4.4.2-6.4-.9-3.4.1-6.6-.2-9.9-.1-1.4,0-2.8,0-4.2.1-2.7-.3-5.4.3-8.1,0-.2-.3-.4-.4-.7-.1-.3-.3-.7-.2-.9,1-1.3-.8-2.9.6-4.1,0,0,0-.5-.2-.7-.2-.6-.5-1.2-.5-1.8,0-2,.2-4,.3-6.1,0-1.7.7-3.3.1-5.2-.5-1.6-.1-3.6,0-5.3,0-.8.6-1.8.2-2.3-.8-1.2-.3-2.2,0-3.4.1-.7,1.6-2.7-1.1-2.5-.1,0-.4-.2-.4-.3,0-.2.2-.5.3-.5,2-.5,1.7-2.1,1.2-3.3-.8-2-.3-4-.7-5.9-.3-1.7-.3-3.2.8-4.6,0,0,.1-.2,0-.3-.3-2.6-.6-5.2-.8-7.8,0-.3.2-.6.2-.9.1-.7.4-1.4.4-2.1,0-1.4-.6-2.7-.6-4.1,0-2.6.2-5.1.3-7.7,0-3.3,0-6.6,0-9.9,0-.9,0-1.7,0-2.6-.1-2,1-4,0-6.1-.5-1.2-.6-2.8-.3-4.1.7-3.1.4-6.2,0-9.3-.1-1.2-.4-2.7.2-3.5.8-1,.5-1.7.3-2.6-.2-1.1-.5-2.1-.6-3.2-.2-2.7-.3-5.3-.3-8,0-.6.4-1.3.5-1.9.1-.5.1-1.1,0-1.7,0-.5-.3-.9-.3-1.4,0-2.6.1-5.3.3-7.9.1-1.7-.9-3.4,0-5.2.1-.2-.2-.7-.4-1-.1-.3-.4-.8-.3-.9,1.3-1.2.8-2.7.7-4.1-.1-1.8,0-3.5,0-5.3s0-3,0-4.5c0-2.2.1-4.5-1.3-6.4-.2-.3-.3-.8-.3-1.2,0-.4,0-.8-.1-1.2-.4.2-.8.4-1.1.7-.2.2-.4.4-.6.5,0-.3-.2-.5-.1-.8.4-1.4-.4-2.3-1.2-3.2-.9-1.1-1.5-1-2.2,0-.7,1.1-1.8.9-2.3.4-1.1-1.1-2.4-.9-3.4-.6-1,.3-1.4,0-1.9-.5-1.7-1.8-2.2-1.4-3.9-.2-1.2.9-2.3,1.4-3.8.6-.3-.2-.9-.3-1-.1-.7.9-1.1.3-1.7-.2-.3-.2-.7-.3-1-.5,0,.4-.1.8-.2,1.3,0,.3,0,.6,0,.9-.3,0-.6-.2-.8-.3-1.2-.2-2.4-.4-3.9-.7M90.3,337.3c.3-.2.7-.3,1-.5-.6-.3-1.3-.7-2-1,0,0-.2.1-.4.2.4.4.8.7,1.3,1.3M159.8,4.5c0,.3-.1.5-.2.8.4,0,.9-.1,1.3-.3.2,0,.1-.6.2-.9-.4,0-.8.1-1.3.4M79.2,11c-.6.3-1.2.5-1.8.8.1.2.3.5.4.4.5-.3,1.1-.6,1.6-.9,0,0,0-.1-.2-.3M206.8,10.3c-.3.4-.6.7-.8,1.1,0,0,.4.5.5.5.4-.3.8-.6,1.2-.9-.2-.2-.4-.3-.8-.7M6,23.1c.3.3.6.7.9.9.1,0,.5-.2.7-.3-.4-.5-.4-1.7-1.7-.6M347.1,202.8c-.2-.3-.4-.5-.6-.8-.1.4-.4.7-.4,1.1,0,.3.1.5.2.8.3-.3.5-.6.8-1.2M195.6,337c.3.3.6.5.9.8.1-.3.3-.5.4-.8-.4-.1-.9-.2-1.3,0M70.9,336.5c-.3,0-.7,0-1,0,0,.3.2.6.3.9.3-.3.6-.5.7-.9M34.2,336c-.2.1-.4.2-.6.4.4.2.7.4,1.1.4.1,0,.3-.2.5-.4-.3,0-.6-.2-1-.4M136.8,4.5l-1-.3c0,.2,0,.6,0,.6.3,0,.7,0,1-.3M249.8,10.8c0-.3,0-.5-.1-.8-.3.2-.6.4-.8.6.3.1.6.3,1,.2M346.3,128.9c-.1-.3-.2-.7-.4-1-.2,0-.3.2-.5.3.2.2.3.5.8.7M195.1,4.3c-.3,0-.5-.1-.8-.2,0,.3,0,.5,0,.8.3-.1.6-.3.7-.6Z"/>
    <path d="M277.8,344.8c1.2,0,2.4,0,3.6,0,.2,0,.4.2.7.2-.2.1-.3.3-.5.4-1.2.7-3.2.4-3.7-.6Z"/>
    <path d="M183.3,2.9c-.2,0-.6-.1-.6-.2.1-.9,1.8-1.8,2.5-1.4.3.2.3.6.5.9-.3,0-.5,0-.8,0-.5.1-1,.3-1.6.5Z"/>
    <path d="M2.2,97.9c-.4,0-.7,0-1-.1-.4-.2-.9-.3-1.3-.5.4-.4.7-1,1.1-1.1.3,0,.8.5,1.1.9.1.2,0,.5,0,.8Z"/>
    <path d="M239.8,2.3c-.7.1-1.4,0-2.1,0-.3,0-.6-.2-.9-.4.3-.2.7-.6,1-.6.7.1,1.3.5,2,1Z"/>
    <path d="M196.7.7c.2,0,.4.1.4.3.2.5.3,1,.4,1.6-.2,0-.5,0-.5,0-.2-.6-.3-1.1-.3-1.8Z"/>
    <path d="M348.2,267.3c0,.4-.2.7-.3,1.1-.1-.1-.4-.2-.4-.3,0-.5.1-.9.2-1.3.1.2.3.3.5.6Z"/>
    <path d="M235.2,2.3c-.5,0-.9,0-1.3-.1.2-.2.5-.5.6-.5.3,0,1.3-.5.6.6Z"/>
    <path d="M347,79.6c.3.3.5.6.7.9,0,0-.4.2-.5.4,0-.4-.2-.8-.2-1.3Z"/>
    <path d="M348.2,245.2c.5.1.9.3,1.2.5,0,.1-.1.3-.2.4-.4-.3-.7-.6-1-.9Z"/>
    <path d="M4.9,322.9c0-.4,0-.7,0-1.1.3.2.5.3.8.5-.2.2-.4.5-.7.6Z"/>
    <path d="M263.6,1.7c0,.2-.2.4-.4.6-.2-.2-.4-.5-.5-.7.3,0,.6,0,.9.1Z"/>
    <path d="M348.3,251.7c-.4,0-.8,0-1.1,0,0,0,0-.3,0-.5.4.1.8.3,1.2.5Z"/>
    <path d="M93.4,2.7c.3-.3.5-.5.8-.7,0,.3,0,.7,0,1-.3,0-.5-.1-.7-.3Z"/>
    <path d="M21.3,2.9c.2-.2.4-.4.6-.6,0,.1.2.3.3.4-.3,0-.6.1-.9.1Z"/>
    <path d="M269.7.7c.1.2,0,.4,0,.7-.2,0-.4-.2-.7-.3.2-.1.3-.3.7-.4Z"/>
    <path d="M83,344.8c-.2-.3-.2-.7-.1-1,0,0,.3,0,.3,0,0,.3,0,.7-.1,1Z"/>
    <path d="M197.6,112.9c-.4-.7-.9-1.4.6-1.3,1.4,0,2.8,0,4.2,0,.7,0,1.3-.3,2-.3.9,0,1.9,0,2.6.4,1.8,1.1,3.4.3,5.1,0,2.3-.4,4.6-.4,6.9-.6,2.9,2.6,6.1.5,9.1.6,1.1,0,2.5-1.3,3,.9,0,.1.9.2,1.2,0,1.2-.7,2.3-.8,3.7-.6,1.4.2,2.9-.2,4.3-.3.6,0,1.2.2,1.8.2,1.7,0,3.3.1,5,0,.2,0,.6-.5.6-.8,0-.9,0-1.9,1.2-2.2,0,0,.1-.5,0-.5-1.1-.9-.5-1.8-.1-2.7.2-.5,0-1.2-.1-1.8-.2-1.2-.9-2.5-.6-3.5.6-1.7,1.6-3.6,2.9-4.6,1.5-1.1,5.2.4,6.1,1.9.2.3.1.8.2,1.2.2.8.5,1.6.7,2.4,0,.4,0,.8,0,1.1,0,1.2-.1,2.5-.2,3.7,0,1.5-.1,2.9-.3,4.4-.1,1,.2,1.1,1.1,1.3,1.2.2,2.3.5,3.5,0,.2-.1.8.1,1,.4.7,1,1.3,2.3,1.5-.2.6,0,1.3,0,1.9.2.4.1.6.6.9.9.4.3.9.4,1.4.7,0-.5-.3-1-.2-1.5.2-.5,1-1.1,1-1.1,1.6,1.3,3.4.5,5.1.6.9,0,1.8.3,2.8.5.2,0,.5.2.6.1,2.2-1.9,4.8,0,7.1-.6,1-.2,2-.3,3-.3.9,0,1.8.2,2.7.3,1.4,0,2.9.4,4.2,0,1.4-.5,2.2-.5,2.7,1,.3-.2.8-.3.9-.6.6-1.1,2.9-1.8,3.8-1,.7.6,1.1.7,2,.3,1.5-.7,3-.4,4.4.3,1.1.5,2.8,0,3.3,1.6.4,1.2.9,2.4,1.1,3.7,0,.4-.7,1.1-1.2,1.3-.6.2-1.6-.2-1.4,1.1,0,.1-.5.4-.8.6-.8.4-1.6.7-2.4,1.1-.3.1-.7.1-1,.2.2-.3.3-.6.5-.9.2-.2.5-.4.7-.6-.4,0-.9-.3-1.2-.2-1.3.5-2.4,1-3.9.2-.8-.4-2.5-.6-3.1,1.1-.2.4-1.1.8-1.6.8-2.7-.4-5.4-.8-8.1-1.4-1.2-.3-2.2-.2-3.3.4-1.9,1.1-3.1,1-4.4-.4-.8-.9-1.8-.9-2.6-.2-.9.9-1.8.6-2.8.4-.5,0-1.5.1-1.5.3-.3,1.9-1,.5-1.3.1-.6-.8-1.3-.7-2-.2-.8.5-1.5,1.1-2.1,1.8-.3.3-.6,1.2-.4,1.4.8,1.1.3,2.3.3,3.4,0,.4-.3.9-.5,1.3,0,0-.1,0-.1.1-.1,1.6-.4,3.1-.4,4.7,0,1.1.8,2-.1,3.4-.7,1.1,0,3,0,4.6,0,.5.1,1.1-.1,1.5-1,1.4-1.6,2.8-.9,4.6.2.4.4,1.2-.7,1.2-.8,0-1.6.3-2.4.6-.3.1-.6.5-.8.8.3.2.6.3.9.5.1,0,.3.2.4.4-.2,0-.3.3-.5.3-2-.1-3.3.8-4.6,2.2-.6.7-1.5,1.4-2.7.8-.2-.1-.5-.4-.5-.5,0-1.4-.9-.9-1.4-.5-3.3,2.1-4,2.1-6.7-.5-.3-.3-.7-.5-1-.7,0,.4.1.8.2,1.1,0,.3.2.6.2.9,0,.3,0,.6-.3.8,0,0-.6,0-.6,0-1.2-2.1-3.7-2.6-5.2-4.2-1.3-1.4-2.5-3.1-3.4-4.9-.5-.9-.4-2.2-.4-3.3,0-1.2-.3-2.2-1.2-3-1.4-1.3-2.3-3.3-5.1-1.7-1.4.8-3.6.5-5.5.4-2.4-.2-4.7.8-7.1-.3-.3-.1-.8-.1-.9,0-.8,1-1.2.2-1.5-.3-.5-1.3-1.2-.2-1.2,0,.3,2.1-1.9,3-2.2,4.8,0,.4-.4,1-.2,1.3.6,1,.2,1.7-.6,2-2,.9-.8,2.7-1.4,4-.2.5-.2,1.3,0,1.9,0,.5.2,1.2.5,1.4.3.2,1,0,1.4,0,.3,0,.6-.5.9-.5.4,0,.9.2,1.3.4-.3.3-.5.7-.8.9-.3.3-.7.4-1.1.7.3.3.6.9,1,1,.3,0,.9-.3,1.2-.6,2.2-2.6,6.2-2.7,8.5-.3.1.2.4.3.6.3,1.6-.2,2.2,1,3,2.1.3.5.5,1.1,1,1.4,2,1.1,2.1,3.1,2.3,5,0,.5.4,1.1.6,1.6.5,1.2,1,2.4,1.4,3.7,0,.3-.5.8-.6,1.2-.1.5,0,1,0,1.5.4,0,.7-.1,1.1-.2.1,0,.3,0,.4,0,0,.1,0,.2-.1.4-.2.4-.3.8-.5,1.1-.1.3-.4.7-.3.9.8,1.2,1.7,2.2,2.6,3.4.3.3,1.1.5.3,1.2-.2.2,0,.9,0,1.3,0,.7,0,1.3.2,2,0,.3.2.6.3.9.2,0,.4-.2.6-.3.2,0,.5,0,.7-.1,0,.2,0,.4-.1.6-.1.5-.3.9-.3,1.4,0,.8-.9,2.3,1.1,1.3.2,0,.7.1.8.3.1.2-.1.6-.2.9,0,.3,0,.8,0,.9.4.3.9.4,1.4.5,0-.3,0-.7,0-1,.1-.4.3-1.2.6-1.2.7,0,1.4.2,2.2.3-.2.3-.4.6-.6.9-.2.3-.4.6-.5.9.3,0,.7.1,1,0,1.1-.2,1.8.2,2.2,1.3.2.6.6,1.1.9,1.6.1-.6.2-1.1.4-1.7.1-.4.3-.8.5-1.2.2.4.4.9.5,1.3.1,3-2.1,5.5-5.1,6-.3,0-.6.2-.9.3-1.4.5-2.8,1-4.1-.3-.7-.7-1.4-.8-2.1,0-.1.2-.9.2-.9.2-.4-1.5-1.7-.9-2.6-.9-1.1,0-2.3,0-3.4,0-.4,0-1.1.5-1.1.8,0,1.3-.4,1-1.1.4-.2-.2-.7-.2-1.1-.2-1.6,0-2.5-.9-2.5-2.5,0-.6,0-1.1,0-1.7-.3-1.9.6-3,2.4-3.4.5-.1.9-.5,1.3-.7-.5-.2-1-.5-1.4-.7-.1,0-.2-.2-.4-.3-.6-.3-1.2-.5-1.9-.8.8,0,1.7-.4,2.5-.2,1.7.5,2.8-.3,2.5-2-.5-2.5-1-5-2.7-7-.2-.2-.2-.8,0-1,.9-.9.5-1.6-.2-2.3-.3-.3-.2-.8-.3-1.3-.1-.5-.2-1-.3-1.5-.5-1.5-1-3-1.7-4.4-.5-1.1-1.3-2-2-3,0-.1-.6.2-.9.2-1.1,0-2.2,0-3.3-.2-.6,0-1.3-.6-1.8-.4-1.6.7-3,0-4.4-.4-2-.5-2.3-.2-2.5,1.8-.2,1.7-.4,4-1.5,4.7-1.1.7-1.4,1.7-2.1,2.4-.2.2-.5.2-.8.2-1.4,0-2.7-.3-4.1-.3-.8,0-1.6.6-2.4.6-2.3,0-4.7,0-7,0-.6,0-1.2,0-1.7.3-.9.4-1.3,1-.7,2.2.4.8.2,1.8.2,2.8,0,.8-.1,1.6,0,2.3.3,1.3-.1,2-1.5,2-1,0-1.8,0-1.8,1.4,0,.4-.7,1.1-1.2,1.2-1.1.3-2.2,0-3-1-1.5-1.7-2.2-3.5-1.5-5.8.4-1.3,0-2.9-.3-4.3,0-.3-.6-.6-1-.7-.6-.1-1.3,0-2,0-.3,0-.9-.5-.9-.6.2-1.6-.8-1-1.4-.7-1,.5-1.8,0-1.5-1.1.3-1.3.4-2.4-.6-3.5,0,0,.5-.9.8-.9,1.4,0,2.1-.6,1.5-2.1,0-.1,0-.4.2-.4,0,0,.3,0,.5.1,1.2.6.8,1.6.5,2.5,0,.4-.1.8-.2,1.1.3-.2.8-.3,1-.6.3-.3.3-.8.6-1.2.3-.5.6-1.1,1-1.5.2-.2.7,0,1.1.1,0,.3,0,.6-.2.9-.2.4-.4.8-.7,1.2.5-.1,1.1-.2,1.6-.5.6-.4,1.1-1,1.8-1.3.4-.2,1.2.2,1.6,0,2.4-1.4,4.2,1.4,6.4.8,1-.3,2-.5,3.1-.7.4,0,1-.2,1.2,0,1.3,1.1,3,.9,4.2-.5.5-.6,1.1-1.3,1.8-1.7,1.2-.6,1.5-1.5,1.4-2.8,0-1.2.3-2.5.3-3.7s0-1.7-.4-2.3c-.5-.9,0-1.1.6-1.1,1.5,0,2.4-.4,2.2-2.2,0-.7.8-1.5.9-2.2.2-1.3,1-2.6-.3-3.8-.2-.2,0-.9.1-1.4.7-2.2-.2-3.4-2.5-3.3-1,0-2,0-3,0-1.2,0-2.2.3-3,1.2-.2.2-.6.2-.9.3.1-.3.2-.5.4-.8.2-.3.4-.5.6-.7-.3-.1-.7-.4-.9-.3-1.4.7-2.8.3-4.3,0-1.2-.2-2.6.1-3.6.7-.8.5-.9.2-1.4-.2-.3-.3-.8-.7-1-.6-1.5.5-2.8,0-4.1-.7-.1,0-.6.2-.6.3.4,1.5-.9,1.1-1.3,1-1.1-.5-1.7-.2-2.1.9-.1.3-.4.5-.7.7-.2.1-.5.2-.7.2,0-.3,0-.5,0-.8,0-.7.1-1.4,0-2.2,0-.1-.4-.2-.6-.3,0,1.2-2.2,1.2-1.8,2.7,0,.2-.3.5-.4.8-.2.2-.3.4-.5.7-.1-.3-.2-.6-.3-.8-.6-.9-1.1-2-1.9-2.5-.7-.4-1.9-.4-2.3,1,0,.2-.7.3-1,.2-2.6-.9-5.1-.8-7.4.9-.2.1-.6,0-.9,0,0-.5-.2-1.2,0-1.4,1-.8.4-1.4-.2-1.7-.9-.4-1.1.4-1.3,1.1,0,.4-.5.8-.8,1.1-.2.2-.7.2-1,.2,0-.3,0-.6,0-.9,0-.3.1-.5.2-.8-.3,0-.7-.1-1,0-.3,0-.7.2-.8.5-1,1.8-2.3,1-3.6.5-1.3-.5-2.8-1.6-3.5.8,0,.2-.7.3-.7.3-.2-.4-.6-.9-.5-1.2.2-.7.2-1.1-.7-1-1.2.1-2.3.2-3.5.3-1,.1-3.2-.8-3.6-1.7-.1-.3,0-.8.3-1.1.2-.2.7-.2,1-.2.2,0,.3.2.5.4,0-.2.2-.5.1-.6-1.1-1.3-.5-2.6,0-3.9.2-.4.5-.7.7-1.1.3.3.6.7.9,1,.3.3.7,1,1,.9.7-.2,1.3-.6,1.9-1-.3-.2-.7-.5-1-.6-.4-.1-.8-.2-1.2-.2.2-.3.3-.7.5-.7.4-.1.9-.1,1.2,0,.4.2.7.5,1,.9.7.8,1.2,1.1,2.1.2.3-.3,1.3,0,2,0,.6,0,1.1,0,1.7,0,.6,0,1.3.3,1.9.3,1.6.1,3.3.2,4.9-.3.7-.2,1.5,0,2.2,0s.7.1,1,0c2.9-1.5,5.7.3,8.5.4,1.1,0,2.2.3,3.2.3.7,0,1.6-.4,1.9-.9.7-1.4,2.1-1.2,3.1-1.7.2-.1.6.1.9.2-.2.3-.4.5-.7.8-.5.5-1,1-1.4,1.6-.1.2,0,.6.1.9.3-.1.8-.1.9-.3.3-1,.8-.6,1.7-.6,2.8,0,5.6-.3,8.4-.6.2,0,.5,0,.7,0,1.4,0,2.6.6,4.1-.2.8-.4,2.1.2,3.1.2,2.2,0,4.4,0,6.5,0,.7,0,1.5.2,2.2.3.3,0,.6,0,.8,0,1.1-1.1,1.9-.4,2.8.2.2.2.6.1.9,0,1.9-.4,3.5-1.4,5.8-.5,2.4.9,5.4.4,8,.1.9-.1,1.6-.5,2.4.3.2.2.7,0,1,0-.2-.2-.4-.3-.5-.6-.1-.3-.1-.7-.2-1,.4,0,1.1,0,1.2.1.7,1.5,1.8,1.5,3.2,1,1.3-.4,1.8.2,1.7,1.6,0,.3.2.6.3.9.2-.1.5-.2.6-.4.3-.4.5-1.3.9-1.3,1-.2,2.1-.3,3.1-.2,1.1.2,1.4-.3,2.1-1.1,1.6-1.9.8-3.5,0-5.3-.2-.4-.1-1-.2-1.5,0-.4-.1-.8-.3-1-.2-.2-.6-.1-.9,0-.3,0-.7.3-1,.4-.5,0-1-.1-1.6-.2.2-.3.5-.7.7-1,.1-.3.2-.6.3-.9-.3,0-.7-.2-1-.2-.2,0-.4.2-.5.4-2,3.2-5.1,2.2-7.9,1.9-1.6-.2-3.4-1.4-4.6.9,0,.1-.6,0-.9,0,0-.3.1-.7.3-1,.2-.3.5-.6.7-.9-.6,0-1.2-.3-1.8-.2-1.3,0-2.6.3-4,.5-.3,0-.5.1-.8.2-1.5.3-2.9.9-4.4,0-.2-.1-.8-.2-1,0-1.8,1.4-3.1.2-4.5-.6-.3-.2-.8,0-1.1,0,.2.3.5.7.6,1,.2.7,2,.5,1.1,1.6-1,1.1-1.3-.5-1.6-.9-1.3-1.6-3.3-1.4-5-2.1-1.2-.5-.9,1.1-1.4,1.7-.2.3-.2.6-.4.9-.2-.3-.5-.6-.6-1-1-1.9-1.1-3.8-.3-5.8,0,0,0-.2,0-.3-.2-2.7.5-3.2,3.2-2.1.4.2.7.4,1,.5v-.4c-.2,0-.5-.1-.9-.2M245.5,131.7c.4.3.8.5,1.1.8.4.4.8.8,1.2,1.3-.5,0-1,0-1.4.1-.3,0-.7,0-1,.2-.1,0-.2.5,0,.7.5,1.1,1,2.3,1.5,3.4.9,1.8.5,3.8.4,5.7,0,1.1.1,1.5,1.2,1.2,1.6-.4,3.3.6,4.1,2.1.1.3.6.7.8.6,1-.4,2.1-.8,2.8-1.5,1.4-1.4,2.6-2.9,3.8-4.5.2-.2.1-.7.1-1.1,0-.3-.1-.8,0-1,1.5-1.8.4-3.6,0-5.2-.3-1.2,0-2.2.5-2.5,1.5-.8.7-1.5,0-2-.9-.8-.7-1.6-.6-2.7.2-1.5.3-3,.3-4.5,0-.4-.6-1.1-1-1.2-1.1-.4-2.2-.6-3.4-.7-1-.1-2.1,0-3.2-.2-1.1-.2-2.1-.5-3.1-.9-1.6-.7-1.9-.4-1.3,1.3.1.4-.4,1-.6,1.5-.3-.2-.6-.4-.9-.6-.2-.1-.5-.3-.7-.5-.1.4-.3.8-.4,1.2,0,.8,0,1.6,0,2.4,0,.8-.3,1.9,0,2.4,1.1,1.5.3,2.5-.4,4M240,193.3c-.3,0-.7,0-1,0-.4,0-.8-.1-1.1-.2,0,.2,0,.6,0,.6.4.1.8.2,1.2.3,1.2,0,1.2,0,1-.7M225,194l.8.2c-.3-.4-.5-.8-.8-1.2,0-.1-.4,0-.6,0,.1.3.3.6.6,1.1M160.8,136.3c0-.3-.2-.6-.3-.8-.2.1-.4.3-.7.4.2.2.5.4.9.4M283.8,118.2c0,.3,0,.6-.1.9,0,0,.2,0,.2,0,0-.3.2-.6,0-.9M206.4,113.3c-.2.1-.3.3-.5.4.3,0,.6.2.9.2,0-.1-.1-.3-.4-.6Z"/>
    <path d="M72.2,96.9c-.5-.4-.9-.6-1.2-.9-1.5-1.3-3-2.7-4.4-4.1-.7-.7-1.1-1.8-1.8-2.6-1.2-1.2-2.5-2.2-3.9-3.3-.4-.3-.9-.3-1.2-.7-1.8-2.1-3.5-4.2-5.2-6.3-.3-.3-.5-.7-.8-1-.7-.7-1.8-1.4-.6-2.6.1-.1,0-.6,0-.7-1.2-1.1.4-2,.2-3,.3,0,.7-.1.8,0,1.1,1.1,1.8.5,2.5-.5.2-.3.4-.5.6-.8.3.3.7.6.7.8,0,1.2.8,1.1,1.6,1.1,1.1,0,1.9,0,1.5,1.6-.1.6.1,1.3.4,2,0,.1.8,0,1.2,0,.5-.2,1-.5,1.5-.8,0,.4,0,1,.2,1.3.6.7,1.3,1.2,1.9,1.8.8.8,1.6,1.6,2.4,2.4s.4.4.6.6c1.8,1.8,3.8,3.3,5.1,5.7.6,1.1,1.8,1.8,2.6,2.7.9,1,1.6,2.1,2.5,3.1.3.4.7,1,1,1,2.4-.3,3.3,1.6,4.7,2.8.4.4.9.8,1.3,1.3.5.7,1,1.5,1.5,2.2.9,1.1,1.9,2.2,2.9,3.3.9.9,2.9,1.2,2,3.2.2,0,.6.2.7.1.9-.8,1.5-.7,2.1.4.3.6,1,1.2,1.6,1.3,1.9.3,2.1,1.6,2.3,3.2.2,1,1,1.9,1.7,2.8,0,.1.7,0,1.1-.2.4-.2.7-.6,1.1-.6.5,0,.9.2,1.4.3-.4.2-.7.5-1.1.6-1,.3-1.2.7-.3,1.4,1,.7,2.1,1.2,3,2,.7.7,1.2,1.7,1.8,2.5.5.6.9,1.5,1.6,1.7,2.3.7,3.4,2.6,4.8,4.3.2.3,0,.9.2,1.2.3.4.7.8,1.2,1,.4.3,1.1.3,1.4.6.6.5,1,1.2,1.6,1.8,2.5,2.3,5,4.6,7.6,6.9.3.3.8.3,1.1.5.6.4,1.9.4,1.1,1.7,0,.1.2.5.3.7,1.3,1.1,2.8,2.1,4,3.4.6.7.7,1.8,1,2.7,0,.2.2.4.3.7.1-.2.3-.3.4-.5.7-1.1,1.1-.2,1.5.2.6.7,1.1,1.4,1.5,2.2.7,1.2,1.6,2.1,3.2,1.8.3,0,.8.5,1.1.9.1.1.2.4.3.5-.2,0-.5.1-.7.2-.4,0-.8.1-1.3.2.5.4.9.9,1.4,1.1,1,.3,2.1.3,3,.7,1,.4,1.7,1,1.3,2.3,0,.3.3.8.5,1.1.8.7,1.7,1.3,2.5,1.9.9.7,2.1,1.1,2,2.6,0,.3.5.9.8,1,2.7.9,5,3.5,6.1,5.9.7,1.7,2.1,3.1,4,3.8.6.2,1.1.9,1.5,1.4.5.7.6,1.8,1.8.7.2-.2,1.3.1,1.5.5.8,1.3,1.3,2.8,2.1,4.1.2.4.8.8,1.3.8,1.2.2,1.9.6,1.7,2,0,.6,0,1.1.9.8.2-.1.7.1,1,.3,1.3,1,2.5,2.1,3.8,3.2.1.1,0,.5,0,.8-.2,0-.5,0-.7-.2-.1,0-.3-.2-.4-.2-.5-.1-1-.2-1.6-.3.4.3.8.6,1.2.9.3.3.8.5,1,.8.6,1.4,1.9,1.6,3.1,2.2,1.1.6,1.8,1.8,2.8,2.5,1.7,1.2,2.3,3.8,4.9,4.1.2,0,.5.3.5.3-.8,1.8,1,1.4,1.6,2,.8.7,1.6,1.5,2.3,2.3.7.7,1.8,1.3,2,2.1.7,2.8,3,4,5,5.5,1.1.8,2.3,1.6,3.4,2.5.2.1.4.5.3.7-.3,1.4.6,1.6,1.6,1.9.4.1.8.7,1,1.2.2.5.2,1.1.4,1.7.1.4.5.7.8,1,.2-.3.4-.7.5-1,.3-.6.7-.7,1,0,.6,1.3,2.5,1.6,2.6,3.4,0,.5,1,1.2,1.7,1.3,3.1.8,4.8,3.2,4.8,5.9,0,.6.5,1.1.7,1.7.2-.5.4-1,.6-1.5.1-.3.2-.7.4-1,.2-.2.5-.3.8-.4,0,.3.1.5.1.8,0,1.2-.4,2.5.9,3.3,1.4.9,2.8,1.8,4.3,2.6,1.3.6,1.4,1.1.4,2-.1,0,.2.9.3.9,2.5.2,3.7,2.7,5.9,3.4.5.2.8,1,1.2,1.6.4.6.6,1.3,1.2,1.6,1.2.8,2.1,1.7,2.6,3.2.2.7,1.1,1.3,1.9,1.8.9.6,2,1,3,1.5.2,0,.2.5.2.8,0,0-.1.1-.1.1,1.1,1.3,2.2,2.6,3.2,3.9.2-.3.5-.7.8-.9.2-.2.6-.2.9-.2,0,.3.1.7,0,.9-.4.5-1,.9-1.4,1.4-.2.3,0,.8,0,1.2.3-.1.9-.2,1-.5.4-.8.6-.4,1.1-.2,2,.8,2.1,2.9,3.2,4.3.2.3.4.7.6.8,2.5.6,4,2.3,5.4,4.4.4.5,1,.9,1.5,1.3.8.8,1.7,1.4,2.3,2.3.7,1.1,1.4,1.5,2.7,1.7.8,0,1.6.6,2.4,1,.2.1.4.6.3.9-.6,1.5-.1,2.7,1.3,3.4.5.2.8.7,1.2,1.1.4.4.5,1.5,1.5.6.3.4.9.8.8,1.2-.1,1.5.8,2.4,1.7,3.3.1.1.2.3.4.3,1.3,0,2.2,0,2.7,1.6.4,1.1,1.5,2.1,2.6,2.7,2.4,1.3,1.5,3.6,1.9,5.4.3,1.5-1.3,1.4-2.1,1.8-.4.2-1.1.1-1.3.4-1.2,1.6-2.4.4-3.1-.3-1.6-1.8-3-3.6-5.3-4.5-.3-.1-.5-.7-.8-1-.5-.4-.5-2.1-1.7-.7,0,0-.4,0-.4-.2-.4-1-1.2-2-1.1-3,.1-1-.4-1.4-1-1.3-2.1.4-2.7-1.4-3.8-2.5-1.4-1.5-2.8-3.2-4.3-4.6-1.7-1.5-3.6-3-4.1-5.2-.4-1.8-.6-2.7-2.5-1.7,0,0-.4-.2-.5-.3-2.5-2.7-5-5.3-7.5-8-.2-.2-.4-.5-.6-.6-1.2-1-3-1.5-3-3.6,0-.1-.5-.4-.8-.4-1.3,0-2-.5-1.8-1.8.1-1.1-.3-1.7-1.5-1.5-1,.1-1.6-.3-2-1.2-.4-1-1.1-2-1.6-3,0-.1-.3-.4-.3-.3-2.5.5-2.8-2.4-4.6-3.2-1.3-.6-2-2.6-3.1-3.9-.9-1-1.9-2-2.9-2.9-.8-.7-1.7-1.2-2.5-1.9-.8-.7-1.3-1.8-2.7-1.6,0,0-.4-.8-.4-1.3,0-.6,0-1.3,0-1.9-.6.3-1.2.6-1.8.9-.2,0-.3.2-.4.4,0-.2-.3-.4-.3-.6.3-1.7-.7-2.4-2-3.1-.6-.3-.8-1.3-1.4-1.8-1.7-1.3-2.8-3.2-5-3.8-.2,0-.5,0-.6-.2-1.2-2.1-2.1-2.5-3.8-4.3-.9-1-3.2-1.4-2.6-3.6,0,0-.2-.3-.3-.4-2.6-.8-3.2-3.7-5.5-4.9-1.3-.7-2.5-1.9-3.6-2.9-.8-.7-1.3-1.8-2.1-2.4-2.9-2.2-4.5-5.5-6.7-8.2-.6-.7-1.6-1.2-2.4-1.8-.4-.3-1.2-.9-1.1-1.1.6-1.7-.8-1.4-1.3-1.2-1.8.8-1.9-.5-2.4-1.5-.4-.8-.9-1.5-1.5-2.2-.4-.5-1-.9-1.5-1.4-.6-.5-.4-2.1-1.9-1.4,0,0-.3-.4-.4-.6-.4-.6-.8-1.1-1.2-1.7-.6-.8-2.1-1-1.6-2.6,0-.2-.6-.7-1-1-.9-.7-1.8-1.4-2.8-2.1-.2-.1-.5,0-.7-.2-.4-.1-.8-.2-1-.4-1.1-1.2-2.2-2.5-3.3-3.8-1.7-1.8-3.3-3.6-5.1-5.4-.5-.5-1.1-.9-1.7-1.2-1-.4-2-.7-1.7-2.2,0-.2-.7-.6-1.1-.8-.4-.3-1.3-.4-1.3-.7-.6-2.9-3.5-3.6-5.2-5.3-.6-.6-1.2-1.4-1.6-2.3-.8-1.7-1.4-3.4-3.6-3.7-.3,0-.9-.4-.9-.6,0-2.3-2.4-1.8-3.4-3-.5-.6-1.1-1.2-1.7-1.7-1-.9-2.1-1.8-3.2-2.6-1-.8-2.1-1.6-3.1-2.4,0,0-.1-.2-.1-.3.4-2.6-1.6-2.8-3.3-3.3-.3,0-.6-.3-.8-.5-1-1.1-2.1-2.2-3-3.4-.5-.6-1-1.4-1.4-2.1-.2-.3-.3-.7-.5-.8-2.2-.8-2.9-2.8-4-4.5-.2-.2-.4-.5-.5-.7-.1.3-.2.6-.3.9,0,.3,0,.6-.1.9,0,.3-.2.5-.3.8-.2-.3-.7-.6-.6-.8.4-2.4-.9-3.7-2.7-5.1-1.6-1.2-2.9-2.8-4.4-4.2-.3-.3-.9-.6-1.3-.5-1.4.3-1.9-.6-2-1.6-.2-1.4-.9-2.1-2.3-2.4-1-.2-1.9-.8-1.7-2.1.1-.9-.2-1.4-1.1-1.9-2.2-1.1-3.8-2.9-5.3-4.8-1.1-1.4-2.2-3.2-3.7-3.8-2.3-1-3.9-2.4-4.9-4.7-.3-.7-1.2-1-1.9-1.6M70.7,93.8c.4-.4.7-.8,1.1-1.3-.3,0-.7-.2-1-.1-.4.2-.7.5-1.1.8.3.3.6.5,1,.6M82.7,95.8c-.3,0-.7-.2-1-.3,0,.3.1.6.2.8.2.4.4.7.7,1,.1.1.4.2.5.3,0-.2.2-.4.2-.5-.1-.4-.3-.8-.6-1.3M96.5,108.9c-.4,0-.8.2-1.2.2.3.4.5.8.9,1.1.2.1.6-.2,1-.3-.1-.3-.2-.7-.7-1M124.1,138.5c-.1.3-.2.7-.3,1,.3,0,.7.2.8.1.3-.3.5-.8.7-1.2-.3,0-.7-.1-1.2,0M166.7,177.9c-.4-.3-.7-.6-1.1-.8,0,.2-.2.4-.3.6.4.1.8.2,1.3.2M94.8,117.6c-.1.2-.2.4-.3.7.3,0,.6,0,.9.1,0-.3-.1-.5-.5-.8M167.1,180.2c.3.3.6.5.9.8.1-.2.3-.3.4-.5-.4-.2-.7-.3-1.3-.3M121.4,142.8c.3,0,.5-.2.8-.2-.4-.2-.8-.5-1.1-.7,0,.3.1.5.4,1M78.9,101.3l-.3-1c-.2,0-.3.2-.5.2.2.3.3.5.8.8M90.7,114.8c.2.2.5.3.7.5,0-.1.2-.3.3-.4-.3,0-.6-.1-1,0M222.7,235.5c.1.2.2.4.4.6.2-.2.3-.3.5-.5-.2-.1-.4-.2-.8-.2M60.8,83.9v-.7c-.2,0-.3.1-.5.2.1.2.2.5.5.5Z"/>
    <path d="M132.9,219.2c.2-2.2.5-4.3.6-6.4,0-.3-.2-.9-.3-.9-1.6.1-.8-.8-.7-1.5.1-1,0-2,0-3,0-1,.2-2,.3-3,0,0,.2-.2.2-.2-.2-.7-.4-1.4-.5-2,.6,0,1.2,0,1.7-.2.4-.1.8-.6.9-.9.4-2.6,2.7-3,4.5-4,.6-.3,1.6-.3,2.2,0,1.8.7,3.2-.4,4.7-.9.7-.2,1.5,0,2.3,0,.2,0,.6-.3.6-.4-.1-.8-.4-1.6-.4-2.5,0-.4,0-1,.3-1.2,1-1.1,2-2.1,3-3,1-1,4-.9,5.1,0,.3.2.6.4.9.6.3.2.8.6.8.8-.2,1.4-.2,2.9-.8,4-.7,1.4-1.2,2.8-.8,4.4.5,2.3-.7,4.9-2.7,6-.1,0-.3.1-.5,0-2-1.1-3.3.8-5,1-.5,0-1-.1-1.5-.2.4-.3.8-.6,1.1-.8.2-.1.4-.3.5-.4-.2,0-.5-.3-.7-.3-.9.3-1.8.6-2.8.9-.4.1-.8.2-1.1.3,0-.3,0-.7-.2-1,0-.3-.2-.8-.4-.8-.4,0-1,0-1.1.3-.6,1.6-1,3.2-1.5,4.9-.1.6,0,1.3,0,1.9,0,2.2.3,4.3.3,6.5,0,1.5-.2,3-.3,4.6,0,1.2,0,2.5,0,3.7,0,2.2,0,4.5,0,6.7,0,.8.5,1.5.5,2.3,0,.9-.3,1.8-.4,2.7,0,.6,0,1.3,0,1.9,0,.5.3,1.1.1,1.5-.5.9-.5,1.6.3,2.3.8.6,1,1.1,0,1.8-.2.1-.1.5-.2.8.3,0,.7.2.9,0,1.2-.6,2.1-1,3.4,0,.4.3,1.8-.2,2.5-.7,1-.7,1.7-.6,2.4.2.7.7,1.4.8,2.3.2.4-.3,1-.4,1.5-.4,1.7-.2,3.5-.5,5.2-.6.5,0,1.1.5,1.6.8.3.2.6.4.9.6.1-.3.2-.7.3-1,0-.4.1-.7.1-1.1.3.3.5.5.8.8,1.3,1,3.1,2.1,4.4,1.4,1.7-.9,3.4-.8,5.1-.9,1.5,0,3-.6,4.5.3.7.4,1.8-.1,2.7-.3,1.2-.2,2.5-.5,3.7-.6.8,0,1.7-.2,2.5,0,.6.2,1.1.9,1.6,1.3.2.2.2.4.3.6.1-.2.3-.4.4-.6.4-1.5,1-1.7,2.5-.9,1.1.6,2.6.5,4,.7.2,0,.6,0,.8-.1,1.9-1.6,4.4-1.4,6.5-1,1.2.2,2.6-.2,3.3.3,1.8,1.1,3.2,1.1,4.7-.1.2.3.5.7.4.8-.8.9,0,1,.6,1.3.6.3,1.1.6,1.6.9.6.5,1.4,1.1.3,1.9-.1,0-.2.3-.2.4,0,2.1-1.3,2.8-3.1,3.3-1,.3-1.5.5-2-.6-.1-.3-.7-.5-1.1-.7,0,.4.1.9.2,1.3,0,.2.2.6,0,.7-.3.2-.7.5-1.1.5-.8,0-1.6-.2-2.4-.3-.4,0-.8-.2-1.1-.4-2-1.7-3.4-1.6-5.3.1-1.1,1-1.4.9-2.2-.4-.3-.5-1.1-.7-1.7-.9,0,0-.4.5-.6.7-.2.2-.5.5-.7.5-1.4.2-2.7.3-4.1.3-.3,0-.9-.1-1-.3-.9-2.2-2.5-1.1-3.9-.7-1,.3-1.8,1.1-2.8,1.3-.6.1-1.6-.2-2.1-.7-.8-.8-3.2-1.7-4.1-1.1,0,0,.1.6.2.9,0,.2.2.5.3.7-.4,0-.9.3-1.1.1-.8-.6-1.3-1.6-2.6-.9-.1,0-.7-.6-1.1-1-.2-.2-.4-.6-.4-.6-.3.1-.8.3-.9.6-.4,2-1.8,1.5-3,1.2-1.2-.3-2.3-1.3-3.4.1,0,0-.3.1-.3,0-1.5-1.8-3.3.7-4.8-.3-.2-.1-.6.2-.9.2-.9.2-1.7.2-2.5-.7-1.3-1.4-1.5-1.3-2.4.4-.2.4-.8.7-1.3.9-.2.1-.6,0-.9-.1.1-.3.3-.5.4-.8,0-.2,0-.5.1-.7-.2,0-.5.2-.7.3-.7.3-1.5.9-2.2,1-2.9.2-5.6-.4-8.3-1.2-.4,0-.8-.1-1.1,0-1.2.1-1.6-.3-1.5-1.5,0-.4.1-.9,0-1.3-.1-.3-.5-.6-.8-.8-.2.3-.3.6-.5.9-.3.5-.6.9-.9,1.3-.1-.5-.4-1-.4-1.5,0-1.5.3-3.1-1.2-4.2-.2-.2-.1-.7-.1-1.1-.1-1.4-.3-2.9-.3-4.3,0-.8.4-1.6.7-2.4,0-.3.4-.8.3-.9-.8-.8-.3-1.7-.3-2.6-.2-3.5-.4-7-.7-10.6,0-.5-.1-1.4.1-1.6,1.5-1,1-1.9.2-3.1M201.3,247.6c.4.1.9.2,1.3.3,0-.7.1-1.4.2-2.1-.5.1-1,.1-1.4.4-.2.1,0,.7-.1,1.4M186.8,245.1c-.3.2-.6.4-.8.7,0,0,.2.4.4.7.2-.4.4-.8.4-1.3M135.3,245.5c.2-.3.3-.5.5-.8-.2,0-.6-.3-.7-.2-.3.3-.5.6-.7.9.2,0,.4.1.8,0M180.5,252.1c0,.3.1.6.2.9.1,0,.3-.1.4-.2-.1-.2-.2-.4-.7-.7Z"/>
    <path d="M166.7,226.3c.5,1.2.8,2.4,1.3,3.6.5,1.3,1.5,2.1,3,2,.8,0,1.5,0,.9,1.2-.2.3,0,.8.2,1.2.1.3.5.4.7.6.1-.3.3-.6.4-.9,0-.4,0-.9,0-1.4.6,0,1.2.2,1.8.3.2,0,.4.2.5.3.9.6,1.4.5,1.3-.7,0-1.1.2-1.4,1.3-.9,1.6.8,3.1-.4,3.7-2.5.1-.5.6-.9.9-1.3.2-.2.5-.4.6-.6.2-2,1.7-3,3-4,.5-.4,1.1-1-.3-1-.2,0-.4-.4-.6-.7.3,0,.5-.3.8-.3.8,0,1.7,0,2.5,0,1.3,0,1.8.9,2,2.1.2,1.2.4,1.2,1.2.5.2-.2.7-.3.9-.2.3.2.5.6.5.9,0,.6-.2,1.1-.4,1.7-.1.4-.6.9-.5,1.2.8,2.1-.3,2.5-2.1,2.5,0,.4,0,.8,0,1.1,0,1.1.2,2.2,0,3.2,0,.4-.9.8-1.5,1-.9.3-1.8.5-2.7.8-.2,0-.5.5-.4.6,0,.3.4.5.6.6.4.1.8,0,1.2,0,.2,0,.3.2.5.2-.2.1-.3.4-.5.4-2.8,0-5.1,1.4-7.4,2.6-.4.2-1.1.2-1.5,0-1.4-.5-2.2,0-2.9,1.2-.2.3-.4.5-.6.7-.1-.3-.4-.7-.4-1,0-.4.2-.8.1-1.2,0-.2-.3-.4-.4-.6-1.7,2-3.3,0-5-.2-1.2-.1-2.4-.6-3.6-.9-.3,0-.6-.4-.8-.6-.3-.3-.7-1-.9-1-1.6.2-1.9-.9-2.5-1.9-.6-1-1.5-2.1-2.6-2.5-1.9-.9-1.5-2.2-1.3-3.7,0-.6,0-1.4-.3-1.9-.6-.8-.8-1.3-.8-2.4,0-1.6-.8-3.3.5-4.8-1.4-2,1.2-2.8,1.3-4.4,0-.7.7-1.4,1-2.1.5-1.1.9-2.3,1.5-3.4,0-.2.7,0,1.1-.1.5,0,1.4-.1,1.4-.3.3-2.2,2.3-2.6,3.7-3.4.4-.3.9-.5,1.4-.6,1-.2,2.5-.9,2.8-.5,1.2,1.4,2.1,3.1,3,4.7.1.2-.6,1.1-1.1,1.3-1.7.6-2.5,1.5-1.9,3.4.2.5-.2,1.1-.3,1.7,0,.1-.4.3-.5.2-.2-.2-.4-.5-.5-.8-.2-.5-.4-1-.6-1.5-.4.5-.7,1-1.1,1.6-.2.4-.3.9-.7,1.2-1.4,1.2-1.6,2.7-1.7,4.4,0,1.3-.7,2.5-.5,3.9.1,1,.2,1.1,1.1,1.2M181,236.3c-.2.2-.5.4-.7.7,0,.1-.1.4,0,.5,0,.1.5.3.5.2.5-.5,1.5-.8.2-1.5Z"/>
    <path d="M102,189.3c1.3-1.6,2.6-3,4-4.5.2-.2.5-.2.7-.2,1.3.2,2.5.4,3.8.6,1.2.2.8-1,1.1-1.5.4-.6.6-1.5,1.1-2,1.3-1.2,1.4-2.1.3-3.4-.3-.3-.4-.7-.6-1,.5,0,1.1-.1,1.5,0,.4.1.6.6,1,.9.3.2.6.4.9.6,0-.4.2-.7.2-1-.1-.7-.4-1.4-.7-2,0-.2-.3-.5-.6-.5-.4-.1-.9,0-1.3-.1.3-.4.8-.7,1-1.2.9-2.4,1.7-4.8,2.6-7.2.3-.8.5-1.7.9-2.5.6-1.1,1.5-2,2-3.1.5-1,1-1.1,1.9-.6.3.2.7.3,1,.4,3,.2,4.5,2.5,3.7,5.3-.7,2.8-1.2,5.6-1.9,8.4-.2,1-.9,1.8-1.3,2.8-.5,1.2-.8,2.5-1.3,3.8-.5,1.2-1.2,2.4-1.7,3.6-.1.2,0,.6,0,.9.2-.1.5-.2.7-.4.5-.5.8-1.3,1.6,0,.8,1.4,2.4.9,3.7,1,.3,0,.7.1,1,.2-.2.2-.5.5-.7.7-.9.8-.4,1.4.4,1.8.9.4.8.8.3,1.6-.8,1.3-1.8,2.5-2.8,3.7-1,1.2-2.3.3-3.1,1.1,0-.3-.3-.7-.2-.9.4-.8.6-1.1-.7-.9-1.6.2-3.3,0-4.6,1.4,0,.1-.5.1-.6,0-1.1-1.1-2.2-.1-3.3,0-1.6,0-3.1-.2-4.7-.3-.5,0-1.1-.4-1.5-.3-1.9.4-2.1-.8-2.3-2.2,0-.7.3-1.9-1.2-1.1,0-.5-.1-1-.2-1.7Z"/>
    <path d="M46.7,121c-1.1-1.2-2.1-1.6-3.1,0-.3.4-.6.9-1.1,1-.4.1-.9,0-1.3-.2-.2,0-.1-.6-.1-1,0-.3.2-.5.2-.8-.3,0-.8,0-1,.3-.4.5-.6,1.5-1.5.9-.9-.7-2.1-1.4-1.7-2.9,0-.2.3-.5.3-.7,0-.3-.2-.6-.3-.9-.2.3-.5.5-.6.8-.2.3-.2.6-.4.8,0,0-.6-.1-.7-.3,0-.3,0-.6,0-.9.3-.8.6-1.7,1.1-2.3.6-.7,1-1.7,2.4-1.2.6.2,1.6-.3,2.3-.6,1.1-.5,2.2-1.8,3.5-.2,0,0,.7-.4,1-.6.3-.2.5-.4.7-.6,1.3,2,2.7.6,4.1.2.5-.2,1.1.2,1.6.2,1.2.1,2.4.3,3.7.4,1.2.1,2.4.3,3.6.3.8,0,1.7-.2,2.5-.3,1-.1,2-.2,3.1-.3,1.2-.1,2.3-.3,3.5-.3,2.4,0,4.8,0,7.1,1,.3.1.8,0,1.1-.1.8-.4,1.1,0,1.4.7.2.6,1,1.2.9,1.7-.2,1.6-.5,3.3-1,4.9-.2.6-1.4.8-2.1,1.2-.7.3-1.4.5-2,.7-.3,0-.6.2-.9.3-.9.3-1.1-2.2-2.5-.7-.3.3-1.8-.3-2.7-.6-1.5-.6-2.8-.5-4.2.4-.8.5-1.5.7-2.6,0-.8-.5-2.3,0-3.4,0-.4,0-1.2,0-1.2-.2-.5-1.8-1.7-.9-2.6-.7-1.2.3-2.2.9-3.6.5-.9-.3-2.2.2-3.4.3M49.2,118.4c-.2-.3-.4-.5-.6-.8-.1.1-.2.2-.3.3.3.2.5.4.9.4Z"/>
    <path d="M86.4,151.4c-.7-.4-1.4-.6-2-.9-.3-.2-.5-.6-.7-.9.3,0,.7-.2,1-.2.2,0,.4,0,.5-.1,0,0,0-.4,0-.4-.6-.3-1.2-.6-1.8-.9-.3-.1-.7,0-.8-.1-.1-.2-.1-.7,0-.9,1.3-1.3-.3-1.6-.7-1.6-1-.1-1.1-.6-1.1-1.4,0-1-.2-2-.3-3,0-.3,0-.9.3-1,1.1-.8.5-1.5,0-2.5-.4-.9-.3-1.9-.4-2.9-.1-1.7-.3-3.3-.3-5,0-2.4.5-3,2.8-3.5.2,0,.3,0,.4-.1.5-.5,1-1.5,1.3-1.4,1.5.3,2.9.9,4.4,1.4.5.2,1.1.7,0,1.1-1.1.5-1.4,1.3-.3,2.2.8.7,1.2,1.3,0,2.2-.4.3,0,1.5,0,2.3,0,.3.5.7.4.8-.9,1.3,0,2.6,0,3.9,0,1.5.4,3,.7,4.5,0,.3.4.7.7.8,1.5.8,2.5,2.1,2.9,3.8,0,.2.3.4.5.6.2-.2.4-.4.5-.6,1.2-1.7,2.4-1.6,3.3.3.1.3.4.6.6.7.3.1.7,0,1.1,0,0-.3,0-.7-.2-.9-1-1.6-.8-2.2,1-2.4,1.5-.2,2.6-.3,1.7-2.2,0,0,.4-.5.6-.5,1,0,1.9.2,2.9.3,1.4,0,2,1,1.7,2.4-.2.6-.6,1.2.6,1.4.4,0,1.9.7.4,1.6,0,0-.1,0-.1.1.8,2.9-1.8,3.4-3.4,4.2-1.3.7-2.8,1.5-4.5.6-1.7-.9-3.1-.3-4.7,1.8-.5.6-1,.6-1.3,0-.2-.4-.4-1.1-.6-1.1-.9-.1-2-.2-2.9,0-1.1.3-2,.7-2.3-1-.1-.6-1.1-.9-1.7-1.5M89.2,151.8c0,.3-.1.5-.2.8.6,0,1.1,0,1.7,0,0,0,.2-.3.3-.4-.5-.2-1-.4-1.7-.4M95.3,148c.2.3.4.5.6.8l.3-.3c-.3-.2-.5-.4-.9-.4Z"/>
    <path d="M121.6,121.8c-.9-.8-1.8-1.5-2.6-2.3-1.9-1.9-2-4.8,0-6.8.2-.2.8-.4.9-.3,1.5,1.4,3.1.2,4.7.5.3,0,.9-.2.9-.4.4-2.4,1.9-.9,2.7-.6,1.3.4,2.5.6,4,.3,1.4-.3,3-.1,4.5-.2,1.5,0,2.9-.3,4.4-.4,1.6,0,3.3,0,4.9,0,.9,0,1.8,0,2.7,0,.4,0,.9.2,1.1.5.8.9,1.7,1.4,2.9,1.2,1.4-.2,1.8.7,1.8,1.8,0,1.1.8,2.4-.6,3.3,0,0,0,.1,0,.1,1,1.5,0,2-1.3,2.4-1,.4-1.9.4-3,.3-1.5-.3-3.4-1.2-4.6.8,0,0-.9,0-1.1-.3-1.1-1.5-2.5-2-4.3-1.8-.9.1-1.3.2-1,1.2,0,.2-.2.6-.5.8,0,0-.4-.2-.7-.3-.5-.3-.9-.8-1.4-.9-.6-.2-1.3,0-2,0,.2.4.4.8.6,1.2,0,.2,0,.4,0,.6-.2,0-.5,0-.6-.2-1.3-2.1-3.7-1.7-5.5-1.7-1.5,0-3.8-.7-4.9,1.5-.1.2-1.2,0-1.9-.1M123.1,120.6c.3,0,.6-.1.8-.2,0-.1-.2-.3-.3-.4-.2.2-.5.3-.5.7Z"/>
    <path d="M202.4,204.7c0-.6-.2-1.1-.4-1.6-.3-.7-.8-1.2-1-1.9-.2-.5-.3-1.4,0-1.7.8-1,1.8-1.9,2.9-2.5.6-.3,1.7.4,2.5.2,2.3-.7,4.1.4,5.9,1.6,0,0,.2.1.3.1.7.2,1.6-.8,2.2.4,1,1.8,2.2,3.4,2.1,5.6,0,1.3.2,2.6.3,3.8.2,2-1.2,3.6-3.2,3.5-.9,0-1.8.1-2.7,0-.6-.2-1.5-.6-1.7-1.2-.6-1.3-1.6-2.6-1.1-4.3,0-.3-.6-1-.9-1.1-1.3,0-2.7,0-3.7-1.2,0-.1-.5,0-.7,0,0,0,0,.4,0,.6,0,.2.1.5,0,.6-.1.3-.3.6-.5.9-.2-.3-.4-.5-.4-.8,0-.3,0-.7,0-1.1M203.9,202.8c.1.3.3.5.4.8,0,0,.2-.2.2-.2-.1-.2-.3-.5-.7-.5Z"/>
    <path d="M52.2,122.3c.3-.2.5-.3.6-.3.5-.1,1-.2,1.6-.3.1,0,.2.2.3.3-.5.2-1.1.3-1.6.5-.4.2-.8.5-1.2.6-.3,0-.7,0-1,0,.3-.2.5-.4.8-.6.1,0,.3-.1.5-.3Z"/>
    <path d="M291.4,14.5c-.9-1.1,0-1.7.6-2.4,0,0,.4,0,.4,0,0,.2.2.5.1.7-.3.6-.7,1.2-1.1,1.6Z"/>
    <path d="M167.1,240.1c.1-.2.3-.4.4-.3.6.3,1.3.7,1.9,1.1,0,0-.2.4-.3.6-.7-.4-1.3-.8-2-1.3Z"/>
    <path d="M288.6,121.2c.3.3.4.7.5,1l-1.8.5c0-.2,0-.6,0-.7.3-.3.7-.6,1.3-.8Z"/>
    <path d="M146.6,14.5c0-.5,0-1,0-1.4.2,0,.6,0,.6,0,.2.4.2.9.3,1.3-.3,0-.5,0-.9,0Z"/>
    <path d="M172.5,213.2c0-.3,0-.7,0-.8.3-.3.7-.5,1-.7,0,.5.2,1,.1,1.5,0,0-.7,0-1.2,0Z"/>
    <path d="M270.4,137.5c0,.3,0,.4,0,.5-.2.4-.4.8-.6,1.2-.1-.2-.4-.4-.4-.6,0-.6-.2-1.5,1-1Z"/>
    <path d="M233.8,137.8c.4.2.7.4.9.6-.5.1-1,.3-1.4.4-.1,0-.3-.3-.5-.4.3-.2.6-.4,1-.6Z"/>
    <path d="M169.8,127.8c-.1-.4-.1-.6-.1-.9.5.1,1.1.3,1.6.4-.3.2-.5.4-.8.6-.2,0-.4,0-.7,0Z"/>
    <path d="M115.9,126.2c.4.3.7.6.9.9-.4,0-.8.2-1.3.2,0-.4.1-.8.3-1.2Z"/>
    <path d="M141.4,121.6c.2.3.2.6.3.9-.4-.2-.9-.3-1.3-.6-.1,0,0-.5,0-.8.3.1.6.3,1,.5Z"/>
    <path d="M77.5,135.9c.4-.3.8-.5,1.1-.7,0,.3.2.6.1.7-.3.4-.7.6-1.1.9,0-.3-.2-.6-.2-.9Z"/>
    <path d="M119,124c.4,0,.6-.1.9,0,.3,0,.7.2,1,.2,0,.1-.1.4-.2.4-.3,0-.7,0-1,0-.3,0-.5-.3-.7-.6Z"/>
    <path d="M227.9,153.9c.1,0,.2-.1.2,0,.2.5.5,1,.7,1.5,0,0-.2.1-.4.2-.2-.5-.4-1-.5-1.6Z"/>
    <path d="M321.5,11.3c.3.3.4.7.5,1-.5,0-.9,0-1.4-.1.3-.3.5-.6.9-.9Z"/>
    <path d="M291.5,19.5c.3-.2.6-.2.9-.3,0,.2,0,.6,0,.7-.3.2-.7.3-1.1.5,0-.3.1-.5.3-.9Z"/>
    <path d="M195.6,127.9c-.4,0-.7-.2-1-.3.3-.1.7-.4,1-.4.3,0,.7.2,1,.4-.3,0-.6.2-1,.3Z"/>
    <path d="M336.4,159.3c-.4-.1-.8-.3-1.2-.5.4-.1.9-.3,1.3-.4,0,.3,0,.6-.1.9Z"/>
    <path d="M174.3,126.6c-.2.2-.6.3-.9.4,0-.4,0-.9,0-1.3.3.3.5.6.9.9Z"/>
    <path d="M317.6,273.1c-.3-.3-.5-.6-.7-.9,0,0,.4-.2.5-.4,0,.4.2.8.2,1.3Z"/>
    <path d="M327.4,117.8c-.2,0-.3.1-.4,0-.4-.3-.7-.6-1.1-.9.1-.1.3-.3.3-.3.4.3.8.7,1.2,1.2Z"/>
    <path d="M306.2,70.5c0,.2,0,.3-.1.3-.4.2-.7.3-1.1.4,0-.2-.1-.3-.2-.5.4-.1.9-.2,1.4-.3Z"/>
    <path d="M156.5,227.1c0,.2.1.3,0,.4-.2.3-.3.7-.5,1,0,0-.3-.2-.3-.3.2-.4.4-.8.7-1.1Z"/>
    <path d="M59.4,122.8c-.4.2-.7.4-1,.5,0-.3,0-.5,0-.8.4,0,.8.1,1,.3Z"/>
    <path d="M23.2,14c.2-.4.5-.6.7-.9.1.2.2.3.4.5-.3.2-.7.3-1.1.4Z"/>
    <path d="M189.6,161.7c-.5.2-.8.2-1.2.3,0-.2.1-.5.1-.5.4,0,.8.1,1.1.2Z"/>
    <path d="M13,149.1c0,.3-.1.5-.2.7-.2-.2-.3-.3-.5-.5.2-.1.4-.2.7-.2Z"/>
    <path d="M152.5,41.8c.2-.4.4-.6.6-.9,0,.2.3.4.3.4-.3.2-.5.4-.9.5Z"/>
    <path d="M185.9,183.1c-.1-.5-.2-.9-.2-1.3,0,0,.2,0,.2,0,.1.4.3.9.4,1.3,0,0,0,.1,0,.1,0,0-.2,0-.3-.2Z"/>
    <path d="M52.1,104.6c-.4.2-.7.3-1.1.4,0,0,0-.2,0-.3.4,0,.8-.1,1.2,0Z"/>
    <path d="M102.3,14.9c.3.2.5.4.6.5-.3,0-.7.2-1,.3,0-.3.1-.5.4-.8Z"/>
    <path d="M279.9,121.6c.1-.3.4-.5.6-.7.1.2.3.4.4.6-.3,0-.6.2-1,.2Z"/>
    <path d="M197.5,121.3c-.3.2-.6.3-.9.4,0,0-.1-.3-.2-.4.3,0,.7,0,1.1,0Z"/>
    <path d="M190.7,335.1c.4-.2.9-.2,1.3-.1,0,0,0,.3,0,.3-.4,0-.9,0-1.3-.1Z"/>
    <path d="M209.3,186.1c.3-.1.6-.2.9-.3,0,.3,0,.5,0,.8-.3-.1-.6-.3-.8-.5Z"/>
    <path d="M160.2,171.3c.2-.2.4-.4.6-.6,0,.1.2.3.3.4-.3,0-.6.1-.9.1Z"/>
    <path d="M118.2,196.2c-.3,0-.5,0-.8,0,.1-.2.2-.4.3-.6.2.1.4.3.5.5Z"/>
    <path d="M179,189.7c-.3-.2-.4-.4-.5-.7.1,0,.3-.1.4-.2,0,.3.1.6,0,.9Z"/>
    <path d="M83.1,31.3c.3-.2.5-.3.8-.4,0,.2,0,.4,0,.6-.3,0-.5-.1-.7-.2Z"/>
    <path d="M35.5,159.8c-.1.2-.3.4-.5.5-.1-.2-.2-.4-.3-.6.2,0,.5,0,.8,0Z"/>
    <path d="M98.9,155.4c-.3,0-.5,0-.8,0,.1-.2.2-.4.3-.6.2.1.4.3.5.5Z"/>
    <path d="M154.4,77.1c.3.1.5.3.7.4-.2,0-.4.2-.7.3,0-.2-.1-.4,0-.7Z"/>
    <path d="M154.4,254.3c-.2-.2-.4-.4-.6-.6.1,0,.3-.2.4-.3,0,.3.1.6.1.9Z"/>
    <path d="M234.9,128.1c.2-.2.4-.4.6-.6,0,.1.2.3.3.4-.3,0-.6.1-.9.1Z"/>
    <path d="M41.6,124c.1.2.2.5.2.7,0,0-.3,0-.5.1,0-.3.1-.5.3-.9Z"/>
    <path d="M301.7,121.8c.2-.2.4-.4.6-.6,0,.1.2.3.3.4-.3,0-.6.1-.9.1Z"/>
    <path d="M332.5,13c.3,0,.6,0,.9,0,0,.1-.1.3-.2.4-.2-.1-.4-.2-.7-.5Z"/>
    <path d="M256.8,59.2c.3,0,.5,0,.8,0,0,.2-.1.3-.2.5-.2-.1-.5-.2-.6-.4Z"/>
    <path d="M151.1,111.6c-.1-.2-.1-.5,0-.6,0,0,.4,0,.6,0-.1.2-.3.4-.6.6Z"/>
    <path d="M246.7,126.3c0-.4,0-.7.1-1.1.2.2.5.3.6.5.1.4,0,.8.1,1.2-.3-.2-.5-.3-.8-.6Z"/>
    <path d="M252.1,122.6c-.4,0-.8,0-1.2,0,0-.2.2-.4.2-.4.3,0,.7.2,1,.5Z"/>
  </g>
</svg>