<?xml version="1.0" encoding="UTF-8"?>
<svg id="Layer_1" xmlns="http://www.w3.org/2000/svg" version="1.1" viewBox="0 0 312.2 257.4">
  <!-- Generator: Adobe Illustrator 29.3.1, SVG Export Plug-In . SVG Version: 2.1.0 Build 151)  -->
  <g id="Shape_98">
    <path d="M0,170.5c.3,0,.7,0,1,.2-.3.3-.6.5-.9.8C0,171.1,0,170.8,0,170.5Z"/>
    <path d="M312.2,113.2c-.2,0-.3-.1-.5-.3-.3-.2-.5-.4-.8-.6.4,0,.7.2,1.2.2,0,.2,0,.3,0,.6Z"/>
    <path d="M188,115.4c.2,0,.6,0,.6,0,.7-1.2,1.4-2.3,2-3.6.3-.7.4-1.6.3-2.3-.1-1.7.2-2.9,2.1-3.4,1.6-.4.8-1.9.8-2.9,0-.8-.6-1.6-1-2.4-.1-.3-.2-.5-.3-.8.4,0,.8-.1,1.1,0,1.5,1,1.9.7,2.3-1,.3-1.2,1-2.2,1.5-3.3.7-1.3,1.4-2.6,2-4,.1-.3-.4-.9-.6-1.4-.1-.3-.1-.6-.1-.9.3,0,.6,0,.9,0,.4.1.8.3,1.2.5.1-.4.3-.9.4-1.3.5-3.2-.9-5.9-2.1-8.8-.2-.5-.1-1.1-.2-1.6-.3-1.1-.6-2.1-.8-3.1,0-.3-.2-.6-.1-.7,1.5-1.5-.7-2.5-.6-3.7.4-2.6-1.4-4.5-2-6.7-.5-2.1-.4-4-.5-6,0-.9-.3-2-.9-2.8-1.3-1.9-2.5-3.7-1.8-6.2.2-.6-.5-1.4-.8-2.1-.4-1.1-1.6-2-.9-3.4,0-.2-.2-.7-.4-.9-1.2-.7-1.6-1.8-1.4-3,0-.5.5-.9.8-1.3.2.4.3.7.5,1.1.1.4.2.8.4,1.2.2.4.5.7.8,1,0-.4.3-.9.2-1.2-1.2-2.3-1.5-5.4-4.8-6.1-1.3-.2-2.8-.3-4,0-1.2.3-1.4.2-1.5-.9,0-.7-.5-1.4-.8-2.1,0-.1-.3-.1-.5-.2,0,.2-.2.4-.1.6.3,1,0,1.8-.8,2.2-.4.2-1.1-.2-1.7-.3-1.2-.2-2.5-1.6-3.4.4-.1.3-1.2.1-1.8.2.2-.5.3-.9.5-1.4,0-.1.2-.2.3-.4.3-.4.6-.8.9-1.2-.7.1-1.5.1-2.1.4-.4.2-.7.8-.7,1.3-.2,1.6-1.1,1.8-2.4,1.3-1-.3-1.9-.6-2.9-.9-.2,0-.5,0-.8,0,0,0,0,.3,0,.4.7.9-.1,1-.6.9-1.7-.3-3.3-.9-5-1.1-1.3-.1-2.6.2-3.9.3-.9,0-1.8,0-2.8-.1-1.9-.2-3.8-.5-5.7-.6-1.6,0-3.1.2-4.7.3-.5,0-1.1-.2-1.3,0-1.2,1.2-2.1.4-3.1-.2-.3-.2-.6-.5-.9-.6-.3,0-.7,0-1,0,.1.3.2.6.4.9.2.3.5.6.8,1-.4.1-.8.4-1.2.4-1.8,0-3.7,0-5.5-.4-1.3-.2-1.7-1.4-1.6-2.7,0-.5,0-1,0-1.5-.2,0-.5,0-.5.1-.3.6-.6,1.3-.7,1.9,0,.5.3,1,.4,1.5,0,.3-.2.7-.2,1-.3-.2-.6-.4-.8-.6-.3-.2-.8-.8-.8-.7-.4.3-1.1.8-1.1,1.1,0,1.8-1.4,2.1-2.5,2.7-.3.1-.9-.4-1.3-.6-.4-.2-.8-.3-1.2-.5,0,.5-.2,1-.2,1.5,0,.7.2,1.5.2,2.2,0,.4-.2.9-.5,1.1-.4.3-.9.4-1.3.7.1-.5.3-.9.4-1.4.2-.5.3-.9.4-1.4-.8,0-1.7-1.2-2.4,0-.4.7-.3,1.5-.7,2.2-.4.8-.9,1.9-1.6,2.2-1.1.6-2.5.8-3.7,1-.8.1-1.5,0-.5,1,.1.1-.2,1-.2,1-1.1-.2-1.6.6-2.1,1.4-.3.4-.9.6-1.4.9,0-.6,0-1.1,0-1.7,0-.5,0-1-.1-1.5-.4.3-.9.5-1.2.8-.7.6-1.4,1.2-2.1,1.8-.2.2-.4.5-.5.7,0,0,.2.2.3.2.3.2.7.3,1,.4-.5.3-.9.7-1.4.9-1,.2-2,.2-3,.4-.8.1-1.1.5-.7,1.3.4.9.1,1.3-.9,1.3-1.4,0-2.9.3-4.2-.7-.2-.2-.6-.2-.9-.2-.4,0-.8.1-1.1.2.2-.3.4-.6.5-.9,0-.3,0-.9-.1-1-.5-.1-1.1-.3-1.4,0-.9.7-1.6.8-2.7.5-.7-.2-1.6.4-2.5.7-.3,0-.5,0-.8,0,0-.2,0-.5,0-.7.7-1.4,1.6-1.6,3.2-1.1.5.2,1.3.2,1.6,0,.8-.8,2.3-1.4,1.7-2.9-.2-.6-1.2-.9-1.8-1.4-.2-.1-.3-.3-.5-.4.2,0,.3-.2.5-.2.2,0,.3,0,.5,0,1.5.4,2.9.5,3.7-1.2.2-.3.9-.4,1.4-.4,2-.1,2.5-.7,2-2.6,0-.2,0-.5,0-.7.2.1.3.3.5.4.7.5,1.2,1.8,2.1-.2,1.2-2.6,3.9-3.6,6.8-3.9,1,0,2.4.5,2.3-1.6,0-.5,1.1-1.2,1.9-1.6.6-.3,1.4,0,2.1-.1.4,0,1,0,1.1-.3.4-1.4,1.5-2.4,2.8-2.4.9,0,1.4-.3,1.9-1.1.4-.7,1.4-1.1,2.1-1.6,1.8-1.3,3.5-2.6,5.4-3.7,1.3-.7,2.9-1.1,4.3-1.6.2,0,.5.1.7.2-.2.3-.4.6-.7.8-.5.2-1.1.3-1.6.5.2.2.4.7.7.7.7,0,1.6.2,2.1-.2,1.1-.9,2-1.5,3.3-.1.6.6,1.2,0,1.2-.8,0-1.8,1.1-3,2.3-4.2.1-.1.4,0,.6-.1,0,.2-.2.3-.2.5-.5,1.2-1.2,2.3-1.6,3.5-.2.6,0,1.2,1.1.7,1.6-.7,3.2-.2,4.8.4.5.2,1.3.3,1.8.1,1.3-.5,1.8-.2,1.9,1.2,0,.4.4.8.6,1.2.2-.4.7-.9.7-1.2-.2-1.6.4-2.2,2.1-2.1,1,0,2-.6,3-.8,1.2-.2,2.5-.4,3.8-.5.3,0,.6.4.8.6-.3.1-.6.3-.9.4-.5.2-1,.4-1.5.7.6.3,1.1,1,1.6.9,1.9-.2,3.8-.7,5.7-1.1.5-.1,1.1-.3,1.6-.1,1.2.4,2.1.4,2.7-.8.1-.2.9-.3,1.2-.2,1.3.9,2.7.6,4.1.4.4,0,2.5-1.2,1.7,1.1.3,0,.6.3.9.2.9-.2,1.9-.5,2.8-.8,1.1-.4,1.9-.2,3,.2,2.4.9,4.9,1.6,7.5.8.3,0,.4-.7.7-.9.5-.5,1.1-.9,1.6-1.4.2.4.5.8.7,1.3.5,1,1.3,1.7,2.4,1.3,1.2-.4,2-.7,2.3.9,0,.4.6.7.9.9.8.7.9,1.4.1,2.2-.3.3-.2.9-.3,1.3.5,0,.9-.1,1.4-.2.5,0,1-.2,1.5-.3,0,.5,0,1-.3,1.4-.7,1-.8,3.8,0,4.7.7.8,1.1,1.4.8,2.6-.1.6.3,1.4.7,2,.6.9.4,1.5,0,2.4-.4,1.1-.4,2.3-.5,3.4,0,.2.1.3.2.5.2,0,.4-.2.5-.3.1,0,.1-.3.2-.4.5-.4,1.1-.8,1.6-1.2-.1.5,0,1.1-.3,1.6-.9,1.5.2,2.6.5,3.9,0,.2.7.4,1.1.4,1.8,0,3.4,0,5.1,1,1.3.8,3.2.5,4.3,1.9.6.7,1.1,1.5,1.6,2.3.2.4.5.7.7,1.1.3-.3.5-.6.7-.9.3-.5.7-.9,1-1.4.7,1,2.9-.7,3,1.6,0,.4.4.7.7,1,.3-.3.7-.5.9-.9.3-.7.5-.6,1.3-.5,2.4.4,4,2.2,5.9,3.5,1,.6,1.7,1,2.5,0,.7-.7,1.2-.7,1.7.3.2.5.9.8,1.4,1.2.3-.4.5-.9.9-1.2.6-.6,1.2-1.2,1.8-1.7,0,0,.5.1.6.3,0,0,0,.4-.2.6-.5.5-1.1,1-1.5,1.6-.3.4-.4,1-.3,1.4.1.3.8.4,1.3.4,1.8.2,3.6.4,5.4.7.6.1,1.1.7,1.7,1,.5.3,1,.5,1.6.6.4,0,.8-.2,1.1-.4-.2-.3-.5-.5-.7-.8-.3-.5-.6-1-1-1.5.5.4,1.1.6,1.5,1.1.6.7,1.1,1,2.1,1,1.9.1,2.6,1.1,2.8,3.3,0,.4.1.8.2,1.2.4-.2.8-.4,1.2-.6.2-.1.4-.3.7-.4,0,.3.2.6.2.9-.3,2.5-.2,5,.3,7.5.2.9-.2,1.9-.3,2.8,0,.2,0,.5,0,.7.4,1.6.2,3.1,0,4.8-.4,3.3-.3,6.7-.4,10,0,1,.3,2,.3,3,0,.9.5,1.8-.2,2.8-.3.4.2,1.5.2,2.3,0,2.5,0,4.9,0,7.4,0,5.1.2,10.2.3,15.3,0,2.3-.6,4.2-2.8,5.3-.7.4-1.6.7-2.3.7-1.2,0-2.1.3-2.5,1.2-.8,1.8-2.2,1.4-3.6,1.1-1.5-.4-3.2.3-4.1,1.5-1,1.2-2,2.4-3.9,2.3-.4,0-.8.4-1.2.6-.2,0-.5.2-.6.1-.1-.2-.3-.6-.2-.6.5-.5,1.1-1,1.7-1.4.2-.2.7,0,.9-.2.4-.4.7-.8,1-1.2-.5,0-1.1,0-1.6.1-1.3.2-2.3,1-3.2,1.9-.5.5-1.4.5-2.1.9-.4.3-1.1.7-.2,1.3.3.2.6.4.7.7.1.3,0,.7,0,1-.3,0-.6-.1-.9-.2-.1,0-.2-.2-.4-.3-.7-.6-1.4-1.3-2.2-1.9-.6.7-1.1,1.5-1.8,2-.5.4-1.2.6-1.9.6-1,0-1.3.3-.8,1.3.2.4.6.9.6,1.2,0,.9-.8,2-.5,2.6.3.6,1.8.6,2.3,1.3,1.2,1.3,2.2,2.8,2.2,4.7,0,1,.4,2,.7,3,0,.2.7.3,1.1.5,0-.3,0-.6.2-.8,0-.3.2-.6.3-.8.2.2.6.4.7.7.1.3.1.8,0,1.1-.5.8-.4,1,.6,1.2.3,0,.6,1.3.5,2,0,1.2,0,2.2,1.5,2.3.3,0,.8.5.8.6-.3,1.6.7,2.2,1.8,2.9.2.1.5.4.6.6.1.3,0,.6.1.9-.2,0-.5-.1-.7-.2-.3-.1-.6-.3-.9-.5-.2.4-.4.7-.4,1.1,0,.4,0,.8,0,1.2,0,.4,0,.8,0,1.2.3-.2.6-.5.9-.7.2,0,.6,0,.8,0,.5.6,1.1,1.2,1.3,1.9.5,1.7,1.2,3.4,1.2,5.1,0,1.8-.6,3.6-.9,5.4,0,.2-.5.5-.6.5-1.9-.8-2.4,2.3-4.3,1.4-.8-.4-1.8-.5-2.7-.7-.3,0-.7.3-1,.4.2.3.4.7.7.9.6.2,1.2.2,1.8.4.3,0,.5.2.7.3-.2.2-.4.4-.7.5-2.9,1.2-7.7-2.2-7.5-5.4,0-1.2.6-2.4,1.2-3.4.3-.4,1.4-.2,2.1-.4.3,0,.6-.2.9-.3-.2-.3-.2-.7-.5-1-.4-.4-1-.7-1.4-1.1-.2-.2-.5-.8-.4-.9.8-1.3,0-2.1-.7-3-1.1-1.4-1.9-3-2.9-4.5-.9-1.3-1.1-3.1-2.4-4.4-.1-.1,0-.5.1-.8.2-1.2.8-2.4-1.3-2.4-.4,0-.9-.9-1.1-1.4-.3-.7-.6-1.4-.5-2.1.4-2.6-1.8-4-2.5-6.1-.2-.6-.2-1.4-.4-2-.2-.5-.6-.8-.9-1.2-.2.2-.5.5-.7.7-.1.1-.4.3-.4.3-.2-.2-.5-.5-.5-.7.2-2.2-1.3-4-1.6-6,0-.7.3-1.6.8-2.1,1-1.1,2-2.2,3.8-1.5.6.2,1.4-.2,2.2-.3-.1-.7-.3-1.4-.3-2,0-.2.2-.4.2-.6.9.5,2.3.1,2.6,1.6.2,1,.7,1,1.3.2.8-1,1.6-2,2.6-2.8.3-.3,1.1-.4,1.5-.3,2.2.9,3.9-.4,5.4-1.5.9-.6,1.7-1,2.9-.9.8,0,1.6-.4,2.4-.6.2,0,.4-.4.5-.3,1.8.5,3-.5,4.1-1.7.7-.7,1.2-1.2,2.5-.4,1.2.8,1.4-.9,1.7-1.7,1.2-3.1.6-6.3.6-9.4,0-1.3-.2-2.6.3-3.9.3-.8-.2-1.8-.3-2.7,0-1.5,0-2.9-.2-4.4-.4-1.7.3-3.6.2-5.4-.1-1.8-.6-3.5-1-5.2,0-.2-.1-.5-.2-.7.2,0,.5,0,.7.2.2,0,.4.1.6.2.1-.3.3-.6.3-.9-.2-1.1-.6-2.2-.8-3.3-.2-1.1-.2-2.3-.2-3.5,0-2,.2-3.9.3-5.9,0-.3,0-.7,0-1,.4-1.6.9-2.7-1.8-2.4-1.2.1-2.8-1.5-4-2.5-1-.8-1.8-2-2.7-3-.2-.3-.6-.4-.9-.6,0,.3.1.6,0,.9,0,.3-.2.9-.4.9-.3.1-.9,0-1.1-.2-.6-.9-1.5-1-2.5-.9-2.1,0-4-.2-5.5-1.9-.5-.5-1.5-.7-2.3-.7-2.3,0-4.6,0-6.5-1.7-.4-.4-1.3-.1-1.9-.2-.6-.1-1.1-.3-1.7-.5.4-.3.7-.7,1.2-.9.4-.2.8-.4,1.2-.6-.4-.1-.9-.4-1.3-.4-1.5.1-2.9.4-4.4.7-.7.1-1.3.6-2,.8-.2,0-.5.1-.7.2,0-.3,0-.8.1-.9.6-.4,1.4-.7,2-1.1.2-.1.3-.5.5-.7-.3,0-.6-.2-.9-.2-.3,0-.6,0-.9.1-1.9.2-2.7,2.1-1.7,3.8.4.7.9,1.4,1,2.1,0,.6-.5,1.4-.4,2,.1.4,1.4.6,1.5,1,.2,1.5.3,3.1.1,4.6-.2,1,0,1.7.7,2.4,1.4,1.3,2.3,2.6,1.6,4.8-.3.8.4,2.1,1,3,.8,1.3,1.1,2.3-.1,3.4-.3.3-.2.9-.3,1.4-.2,1.1-.5,2.1-.7,3.2,0,.1-.2.3-.3.3-1.4.4-2.2,1-1.7,2.8.2,1-1.4,1-2.5.8-.4,0-.9.2-1.4.3.3.3.6.6.9.9.4.3.8.5,1.1.8.2.3.3.7.5,1-.3,0-.7-.3-.9-.2-.5.2-1.2.5-1.2.9-.2,1.4-.3,2.8-.4,4.2,0,.1,0,.2,0,.3-1.2,1.7-2.4,3.4-3.5,5.2-.9,1.3-1.6,2.7-2.4,4.2-.1.3.2.8.3,1.2,0,.5,0,.9,0,1.4-.2-.2-.4-.6-.7-.7-.3-.1-.8,0-.9,0-.8,1.8-1.5,3.6-2.1,5.4-.2.7-.3,1.4-.6,2.1-.4.9-.3,2.5-2.1,1.7-.1,0-.5,0-.5.2-.3.9-.4,1.8-.7,2.7-.2.5-.5,1.3-.7,1.3-1.2,0-1.9,1.9-3.4.5-1.3-1.3-3.2-1-4.4.2-.2.2-1,.2-1.3,0-.7-.5-1.1-1.4-2.2-.6-.1,0-.8-.4-1-.7-1.1-2.8-1.1-2.6-4-2.3-1,.1-2.2.7-3.3-.5-.3-.4-1.8.2-2.7.4-.5,0-1.3.4-1.4.2-.3-.4-.3-1.1-.4-1.7,0-.2.2-.6.1-.7-.9-1.1-1.8-2.1-2.8-3.1,0,0-.8.4-.8.6.1.6.5,1.3.6,1.9,0,.4-.2.8-.3,1.2-.2-.2-.5-.3-.7-.5-.7-1.2-1.5-2.3-.2-3.8.4-.5,0-1.7-.1-2.6,0-.6.1-1.1.2-1.7.5,0,.9.2,1.4.3,1.2.3,1.8-.3,2.3-1.3.2-.4.6-.9.9-1.2.2-.1.6,0,.9,0-.1.2-.3.4-.4.6,0,.3-.2.8-.1.9.7.2,1.5.5,2.1.4,2.6-.5,2.6-.5,3.9,1.6.7,1.1,1.9,1.5,3.2.6,1.2-.9,2.2-.7,3.1.3,1.1,1.3,2.3,1.7,3.8.6.3-.2,1.1,0,1.4.4.5.5.8,1.2,1.2,1.8.2.3.6.5,1,.7,0-.4.3-.8.2-1.2-.2-.6-.5-1.4-.9-1.6-2.1-.7-.4-1.6,0-1.7,1.8-.4,1.6-1.7,1.6-3.1M169.2,26.9c.5,0,1.1,0,1.6,0,.5,0,1-.3,1.5-.4-.5-.3-1-.7-1.5-.9-1.1-.4-2.3-.8-3.4-1.2-.3,0-.6-.1-.9-.1-.1,0-.3.1-.4.2,0,.1,0,.3.1.4.9.6,1.9,1.2,3,2M149.1,31.4c.3.1.8.5.9.4.7-.9,1.5-1.8,2.1-2.8.2-.2,0-.7,0-1-.4,0-.9,0-1.1.3-.6.9-1.1,2-1.8,3.1M216.7,138.2c0-.4,0-.9.1-1.3-1.1.9-1.8-.2-2.6-.5-.3-.1-.8,0-1.1.2,0,0,0,.7,0,.7,1.1.4,1.9,1.8,3.5.9M102.1,42.2c-.4-.8-.2-1,.7-1,.4,0,.7-.3,1.1-.4-.4-.3-.8-.7-1.3-.8-1.2-.2-2,1.1-1.5,2.6.2.5.5.9.7,1.3.2-.5.3-1,.3-1.6M153.6,24.6c-1.3.3-2.6.6-3.9,1-.3,0-.4.6-.6,1,.2,0,.4.3.6.2,1.1-.3,2.3-.6,3.4-.9.7-.2,1.4-.2.5-1.3M170.6,119.9c-.1.8-.3,1.6-.3,2.3,0,.3.2.6.3.9.2-.2.5-.4.5-.6.3-1.4.5-2.8.7-4.2,0-.2-.3-.5-.4-.5-.3,0-.7.2-.8.4-.1.4-.1.9,0,1.6M194.6,112.4c-.3-.4-.5-.8-.8-1.2-.3.3-.8.7-.8,1.1-.1.7,0,1.4,0,2.1,0,.3.4.5.6.8.1-.2.3-.5.3-.7.2-.6.3-1.3.7-2.1M163.6,28.2c.3-.2.9-.6.9-.7-.4-.8-.9-1.5-1.5-2.2-.2-.3-.7-.3-1.1-.5,0,.4-.2,1,0,1.3.4.7,1,1.2,1.6,2M241.8,72.3c-.2.2-.6.5-.6.7,0,.3.4.6.6.8.6.2,1.3.4,1.9.5.2,0,.5,0,.7,0,0-.3,0-.7-.1-.8-.8-.4-1.6-.7-2.5-1.2M108.1,42.2c-.2-.2-.3-.4-.5-.6-.3-.5-.6-.9-.9-1.4-.1.1-.4.3-.4.4.1.7.2,1.3.5,1.9.1.3.5.5.9.7.3.1.6.1.9.2-.1-.3-.2-.7-.5-1.2M228.5,171.9c-.3.1-.7.2-1,.3.7.6,1.4,1.2,2.2,1.8,0,0,.5-.3.8-.5-.1-.2-.3-.3-.4-.5-.4-.4-.9-.7-1.5-1.2M233.5,68.3c0-.2.1-.3.2-.5-1-.2-2.1-.4-3.1-.6,0,.3,0,.8,0,.8.9.2,1.8.3,2.9.3M196.1,51.2c-.4.2-1,.3-1.2.6-.2.3-.3.9-.2,1.3,0,.3.5.5.8.7.3-.4.6-.7.8-1.2.1-.4,0-.9-.1-1.5M222,150.5c-.3.2-.5.4-.8.6.6.3,1.1.9,1.7,1,.3,0,.7-.7,1-1.2,0,0,0-.4,0-.4-.3,0-.7-.1-1-.1-.2,0-.4.1-.9.2M165.9,120.6c-.2-.1-.4-.2-.7-.3-.3-.1-.6-.3-.9-.4,0,.3,0,.8.3,1,.4.5,1,.8,1.5,1.2.2.1.4.1.6.2,0-.2,0-.5,0-.7-.1-.3-.3-.5-.6-1M188.7,127.4c-.5,0-1.1-.1-1.6,0-.2,0-.3.6-.4.9.5,0,1,.3,1.5.2.3,0,.5-.6.5-1.1M131.2,34.4c.3,0,.7-.1,1-.2-.4-.5-.7-1.1-1.2-1.6,0,0-.5.3-.8.4.3.4.5.8.9,1.4M249.1,68.3c.2.2.4.5.6.7.1-.7.4-1.3.4-2,0-.2-.6-.4-1-.6,0,.5,0,1,0,1.8M211.9,55.7c-.8-.5-1.6-1-2.5-1.4,0,0-.4.2-.4.4,0,.1.1.4.3.4.8.3,1.6.5,2.6.6M200.8,50.8c-.2-.7-.4-1.3-.5-2-.2.5-.5,1-.6,1.5-.2.8.2,1.1,1.1.5M177.9,120.9c.2.4.3.9.5,1.3,0,.2.2.3.4.4.2,0,.6,0,.6-.1,0-.6,0-1.3-.1-1.9-.5,0-1,.1-1.3.4M232.5,131c.4-.1.9-.2,1.3-.4-.5-.3-1-.6-1.5-.8-.2,0-.6.2-.8.4.3.2.6.4,1,.8M223.9,133c.3-.3.7-.7,1-1-.2-.2-.5-.5-.6-.5-.5.2-.9.6-1.4.9.3.3.6.5,1,.6M227.7,133.9c.4-.4.8-.7,1.2-1.1-.3-.1-.7-.5-1-.4-.7.2-1.1.6-.2,1.5M94.3,48c0-.6,0-1.2,0-1.8-.2.2-.5.3-.7.5-.6.8-.4,1.2.7,1.3M223,164.1c.5-.1.9-.2,1.3-.4.1,0,0-.6,0-.9-.2,0-.5,0-.7.2-.3.3-.6.6-.7,1.1M180.2,128.2c.4.3.7.6,1.1.9,0-.3.3-.7.2-.9-.4-.5-.9-1.1-1.3,0M223,58.1c-.2.2-.3.5-.5.7.5,0,1,.2,1.5.2.2,0,.3-.3.5-.5-.4-.1-.7-.3-1.4-.4M250.8,128.1c.1.6.3,1.2.9.4.3-.4.2-1,.4-1.4-.4.2-.8.5-1.3,1.1M136.3,29.2c.7-.6.3-1-.2-1.5,0,0-.4.1-.6.2.2.5.4,1,.7,1.3M239.6,64.8c-.4.1-.7.3-1.1.4.2.2.3.5.5.5.5,0,.9,0,1.4,0-.1-.3-.3-.6-.8-.9M190.2,119.6c.4.2.8.5,1.2.6,0,0,.4-.6.4-.6-.5-.4-1.1-1.1-1.6,0M139,24.9l-.8.6c.3.1.7.5.9.4.4-.1.6-.5,1-.8-.3-.1-.7-.2-1.1-.2M238.1,71.3c.5.1,1,.3,1.6.4,0-.3,0-.7-.1-1-.4.1-.8.3-1.4.6M243.8,129.1c0,.3-.1.7,0,.9.4.5,1,.9,1.5,1.3-.3-.5-.5-.9-.8-1.4-.2-.3-.4-.6-.7-.7M208.6,91.9c0,.4,0,.8.1,1.1.3,0,.7-.2,1-.3-.3-.3-.6-.7-1.1-.9M95.2,51.8c0-.3.1-.5.2-.8-.4,0-.9,0-1.3-.1.3.3.5.6,1.1.9M127.5,25.8c-.4-.3-.8-.6-1.3-.8,0,0-.2.2-.4.4.4.2.9.4,1.3.6,0,0,.1,0,.3-.2M112.4,41.5c0,.3-.1.5-.2.8.3,0,.7,0,.9-.2.2-.2.2-.6.3-1-.3,0-.5.1-1,.4M167.6,117.9c-.2.2-.5.4-.7.6.4,0,.8.2,1.3.2,0-.3-.1-.5-.5-.8M177.7,25.8c-.3-.4-.6-.7-.9-1.1-.1.2-.3.4-.4.6.4.2.8.4,1.3.4M249.3,124.2c-.2.3-.5.6-.7.9.2.1.3.2.5.3.2-.4.4-.8.3-1.3M230,163.4c-.1-.2-.2-.4-.3-.7-.3.2-.5.3-.8.5.3.1.6.2,1.1.2M219.2,65c0,0,.2,0,.2,0,0,0,.1,0,0-.1-.1-.3-.2-.7-.4-1,0,0-.3,0-.4.1.1.2.2.5.5.9M189.7,25.8c-.1-.2-.3-.3-.4-.5,0,.2-.2.4-.3.7.2,0,.4.1.7-.2M228.2,169.9c.2-.1.4-.2.6-.4-.3-.2-.5-.3-.8-.5,0,.2,0,.4.2.8M227.4,67.8c.2,0,.5,0,.7,0,0-.2-.1-.3-.2-.5-.2.1-.5.2-.5.5M210.7,138.5c0,.2,0,.5.2.6,0,0,.4,0,.6,0-.1-.2-.3-.4-.8-.6M196.5,36.2c.2,0,.5,0,.7,0,0-.2-.1-.3-.2-.5-.2.1-.5.2-.5.5Z"/>
    <path d="M61.4,91.3c-1.4.9-2.8,1.6-4.1,2.4-1.1.7,0,1.1.3,1.6.2.3.6.5.8.8-.4.2-.8.5-1.2.5-.5,0-1.1-.2-1.5,0-.5.4-1.3,1.1-1.2,1.5.5,2.4-.2,4.3-1.8,6-1.3,1.5-1.3,2.4,0,4.2,0,.1-.3.6-.6.9-.3.2-.7.3-1,.4.4.3.7.8,1.1.9,1.3.3,1.8-.8,2.6-1.6.6-.6,1.3-1.2,2-1.7.2-.1.9.4,1.3.6-.3.2-.6.6-.9.7-1,.4-1.7,3.3-.8,4.1.1.1.8-.1,1-.4.2-.3,0-.8,0-1.1.2-.5.5-1.3,1-1.5.3-.2,1.1.2,1.5.6,1,1.1,1.6,1.1,2.7-.2.8-1,1-2,1.5-3,.2-.3.5-.5.8-.8,0,.3,0,.7,0,1-.2.8-.4,1.7-.8,2.5-1,1.9,1.1,1.7,1.7,2,1.4.7,3,1.7,4.8.6.5-.3,1.7.7,2.6,1,.4.2.9.1,1.4.2-.1-.4-.2-.8-.3-1.2-.2-.5-.4-1.1-.5-1.6.5.4,1,.8,1.5,1.2.6.5,1.3,1,1.8,1.5.8.7,1.5,1.5,2.2,2.2.3.3.7.5,1,.8,0-.3-.3-.7-.2-1,.1-.3.6-.7.8-.7,1.3.2,2.6.6,4,.8.4,0,.9,0,1.3-.2.3,0,.6-.1,1-.2,0,.3,0,.8-.3,1-.5.4-1.1.5-1.6.9-.3.2-.4.6-.6.9.3,0,.7.1,1,.2,0,0,.1,0,.1,0,1.7-2.6,3.8-.7,5.8-.5,0,0,.2.1.3.1,4.1-.9,6.9,2.4,10.5,3.3,1.1.3,1.3,1,.9,2.2-.8,2.3-1.5,4.6-2,7-.2,1-.4,1.6-1.3,1.9-2.1.8-1.8,2.8-2,4.4-.2,1.5-.7,2.6-1.8,3.6-.2.2-.6.2-.9.4,0-.4-.3-.9-.1-1.2.2-.5.6-.8.9-1.3.1-.2.1-.6.1-.9-.3,0-.6,0-.8.3-1.6,1.2-1.4,3-1.5,4.7,0,1.2-.1,2.5-.6,3.6-.6,1.4-1.6,2.5-2.4,3.8-.5,1-.6,2.3-2.2,2.2-.1,0-.4.3-.5.5-.6,1.5-1.3,3.1-1.6,4.6-.3,1.2-.4,2.2-1.9,2.6-.7.2-1.5,1.1-1.8,1.8-.7,1.9-.9,4-2.9,5.3-.8.5-1.3,1.9-1.4,3-.3,1.9-1.7,3-2.5,4.5-.5,1-.7,2.1-1.2,3.2-.4.8-.8,1.5-1.3,2.3-.3.5-.7.9-1,1.4,0,.2.2.6.2.9.2,0,.5-.1.7-.3,1.1-.7,2-.6,3.1.3,1.5,1.3,2.5,3.3,4.8,3.6.1,0,.3.2.4.2.6-.1,1.1-.3,1.6-.4-.4-.4-.7-.8-1.1-1.1-.2-.2-.6-.4-.9-.6.4,0,.8,0,1.1.2.7.5,1.4,1,2,1.6,1.1,1.1,2.2,1.9,3.8,2.1,2.5.3,4.5,1.7,6.5,3.2.5.4.8.5,1.6.5,1.1,0,2.2.7,3.2,1.3,1.5.8,3,1.7,4.5,2.4.7.4,1.5.6,2.3,1,.7.3,2.3.3.8,1.6,0,0,0,.6.2.6.2.1.7,0,.8,0,1.4-2.6,2.8-1.7,4.5-.3.9.7,2.4.7,3.2,1.4,1.5,1.3,3.1,2,5.1,2.1,1.1,0,2.4.8,3.3,1.6,1,.9,2.1,1.2,3.4,1.2,1.9,0,3.6.8,5.3,1.6,2.1.9,3.4,2.7,5.2,3.8.7.4,1.2,1.4,1.7,2.1.2.2.3.5.5.8.2-.3.5-.5.6-.8.4-.9.7-1.8,2-1.4.2,0,.4.5.4.7,0,.7-.4,1.4-.4,2.1,0,.3.5.7.8.7.3,0,.6-.4.8-.7.1-.3,0-.7,0-1,0-.3.1-.6.2-.9.3.1.8.2,1,.4.8.9,1.5,1.9,2.4,2.6.6.4,1.8.8,2.3.4,1.6-1.1,2.7-.2,3.9.5.3.2.6.5.9.7.7.5,1.3.4,1.3-.5,0-1.5.8-1.6,2-1.9,1.1-.2,2.3-1.1,2.9-2,.6-.8.6-.7,1.1,0,.4.4,1,.6,1.5.8,0-.6,0-1.2.2-1.7.2-.5.6-1.1,1-1.2.7-.2,1.5.2,2.1-.1.7-.3,1.7-1.1,1.7-1.7,0-1.5.6-1.6,1.8-1.3.6.2,1.3,0,2-.2.1,0,.2-.4.3-.7-.2,0-.4,0-.6,0-.2,0-.5,0-.6-.2,0-.2,0-.6,0-.6.6-.3,1.3-.5,1.9-.6.9,0,1.9,0,2.2-1.1,0-.2.6-.5.9-.5,1.3.2,2.1-.3,2.7-1.5.7-1.1,1.7-1,2.9-.6,1.3.4,2.8,0,4.2,0,.6,0,1.2-.3,1.8-.5-.7-.3-1.4-.7-2.2-.8-.8-.1-1.7,0-2.5,0-.2,0-.4-.3-.6-.5.2-.2.4-.4.6-.5,1.7-.5,3.4-1.1,5.1-1.5.3,0,.6.1.9.3.1,0,0,.4,0,.6,0,.9-.1,1.7.9,2.2,0-.7.1-1.4,0-2.2,0-1.5.8-3.3,2.6-3.3,1.3,0,1.8-.7,2.3-1.6,1-1.8,1.7-2,3.1-.5,1,1.1,2,1.1,3.2.6.3-.1.7,0,1.1,0,0,.3,0,.7-.2.9-.6.9,0,.9.6,1.2.8.4,2.1.9.2,1.8-.4.2-.6,1-.7,1.5-.4,1.4-1,1.7-2.1.8-.8-.7-1.1-.4-1.5.3-.8,1.3-1.7,2.6-2.6,3.9,0,0-.2.2-.2.2-2.7-.7-3.6,2-5.6,2.8-1.5.6-2.6,2.1-4,3.2-.4.3-.9.8-1.3.8-2.1-.2-3.5.9-4.9,2.1-1,.9-1.8,2-3.4,1.6-.1,0-.3.1-.4.2-1.5,1.3-3.3,1.6-5.2,1.4-1.2,0-2.1.2-1.4,1.8.2.5.3,1.4-.9,1.2-.6-.1-1.1-.3-1.7-.4-.5-.1-1.1-.2-1.6-.2.1.2.2.5.3.6.2.1.7,0,.7.2.2.3.1.7.2,1-2.8.2-2.8,2.9-3.9,4.6-.2.3-.5.5-.8.8-.2-.5-.7-1.1-.6-1.5.2-.7.8-1.3,1.2-2,.2-.3.3-.5.4-.8-.4,0-.9-.2-1.1,0-.5.4-1.1.8-1.4,1.4-.5,1-.9,2.1-2.3,2-.1,0-.4.7-.4,1.1,0,.1.5.3.7.5.4.2.8.5,1.2.7-.4,0-.8.2-1.2.2-2,.1-4.1.4-6.1.3-1.5-.1-2.9-.9-4.4-1.4-1-.3-1.9-.8-2.8-1.2-.6-.3-1.6-.3-.9-1.5.2-.3,0-.9,0-1.4-.5.2-.9.4-1.4.6-.3,0-.7.2-.9,0-1.2-.5-2.4-1.1-3.6-1.7-.9-.4-1.3-1-.7-2,.2-.3.3-.8.3-1.2,0-.8-.1-1.5-.3-2.3,0-.4-.4-.8-.6-1.2-.1.3-.4.7-.4,1,.2,1.4.2,2.7-.8,3.9-.6.7-1.2,1.1-2,.2-.6-.7-1.1-1.4-2.3-.8-.2.1-1.3-.7-1.3-.8.5-1.2-.3-1.1-1-1.1-2.2.2-4.1-.2-5.7-1.8,0,0-.2-.2-.3-.2-4.2-.4-7.6-3.1-11.6-4.1-.8-.2-1.6-1.3-2-2.1-.5-1-1.1-1.2-2.1-1.1-.4,0-1.1,0-1.2-.1-1.1-2.3-3.7-1.9-5.3-3.2-.1,0-.5,0-.6,0-.2.3-.3.8-.5,1.1-.4.5-.8,1-1.2,1.5,0-.5,0-1.1-.1-1.5-.2-.7-.6-1.3-1-1.9-.3-.4-.8-.7,0-1.2,1.1-.8.9-1.9.5-3,0-.3-.4-.4-.7-.6-.2.3-.5.5-.6.8-.3,1.2-.5,2.5-.8,3.7,0,.2-.4.4-.6.4-.3,0-.9-.3-.9-.5,0-1.6-1.1-1.5-2.2-1.5-.3,0-.8-.6-.8-.7.7-1.3-.2-1.5-.9-1.2-2.6,1-4.2-1-6.2-1.7-.3-.1-.5-.6-.8-.9.3-.1.7-.3,1-.4.2,0,.4-.2.6-.3-.3-.2-.5-.6-.8-.6-1.5,0-3,.3-4.5.4-.6,0-1.6.1-1.7-.1-.7-1.3-1.8-.9-2.8-1-.6,0-1.3-.5-1.8-.8-1.1-.7-2.1-1.6-3.6-1.2-.2,0-.6-.4-.9-.6-1.1-1-2.2-2-3.3-2.9-.2-.2-1-.1-1.2,0-.7.9-1.8,1.1-2.5.7-.8-.6-1.4-1.7-1.8-2.7-.3-.7-.3-1.6-.6-2.2-1-2.3-.3-4.2,1.3-5.9,1.2-1.3,2.4-2.6,2.6-4.4,0-.3.4-.6.7-.9,2.6-2,3.4-4.9,4.3-7.9.1-.5.3-1.1.7-1.3,3-1.7,2.3-4.3,1.7-6.8-.3-1.4-1.3-2.7-1.9-4-.3-.7-.6-1.4-.9-2.1-.2-.4-.4-.8-.7-1-2.7-1.6-3.4-4.4-4.2-7-.3-1-.7-1.6-1.6-2.2-.6-.4-1.2-1.4-1.1-2,.3-2.1-.8-3.4-2.2-4.6-.5-.4-1.1-.8-.6-1.7.2-.3-.2-1.1-.4-1.6-.9-1.8-1.8-3.6-2.9-5.3-.6-.9-1.4-1.7-2.2-2.4-1.3-1.2-1.2-2.7-1.5-4.2-.1-.5-.3-1.1-.6-1.6-.4-.6-.8-.7-1,.2-.1.4-.4.6-.6,1-.3-.4-1-.8-.9-1.2,0-1.8-.7-1.8-2-1.1-.2.1-.6.2-.7.1-1-1.2-2.4-.7-3.6-.9-2.6-.3-5.3-.6-7.9-1-.2,0-.3-.2-.5-.3.2-.1.3-.4.5-.4,1.1-.1,2.2-.3,3.3-.3,1.3,0,1.1-.6.6-1.3-.6-.9-1.3-1.6-1.8-2.6-.1-.3.4-1,.7-1.4.3-.4.8-.6,1.2-.9-.4-.3-.9-.5-1.3-.8-.1,0-.2-.2-.3-.3.1-.1.2-.3.4-.4.5-.4,1.2-.7,1.6-1.2.8-.8,1-1.6,0-2.4-.1-.1-.2-.4-.3-.6.2,0,.5,0,.7,0,2,.5,2.2.3,3.4-1.5.9-1.4,2.1-2.6,3.1-4,1.6-2.3,3.3-4.6,3.9-7.5,0-.4.7-.8,1.2-1.1.3-.2.7-.1,1.1-.2-.6-1.6.9-2,1.7-2.9.6-.7.8-1.5-.4-1.9-.3-.1-.6-.2-.8-.3.4-.2.8-.6,1.2-.6,1.2,0,2.8-1.1,2.7-2.4,0-1.1.1-1.7,1.3-1.9.8-.2,2-2.9,1.6-3.7-.6-1.4,0-2.4,1.4-2.8,2-.5,2.8-1.8,2.7-4,0-.3.4-.7.7-1,.6-.5,1.2-.9,1.7-1.4.2-.2.4-.8.3-.9-.4-.2-.8-.4-1.3-.5-.3,0-.6-.1-.9-.2.3-.2.6-.7.9-.7.9,0,1.9.3,2.8.5.2,0,.4.2.6.1,1-.3,2-1,2.9-.8.9.1,1.3,1.9,2.7.9,0,0,.4.3.4.4.5,2.4.7,4.8-.6,7.2-.5.9-.9,1.3-1.9,1.3-1.3,0-1.9.7-1.3,2,0,.1.2.4.1.4-1.2,1.6-.9,3.9-2.6,5.2,0,0-.4,0-.4,0-.2-.2-.3-.5-.5-.8,0,.4,0,.7-.2,1.1,0,.3-.2.6-.4.8-1.6,1.6-2.6,3.5-3.3,5.6,0,.3-.3.5-.5.8,0-.3,0-.6-.1-.9,0,0,0-.1,0-.2.3-.5,1-1,.1-1.4-.2,0-1.2.8-1.2,1.2.4,2-1.4,3.9-.4,6M83.7,126.1c0-.8,0-1.6-1.1-1.5-1.1,0-2.2,0-3.2,0-1.1.1-1.8-.4-2.3-1.2-.7-1.3-1.8-1-2.5-.4-.8.7-1.3.5-2,0-.6-.4-1.3-.6-2-.7-.8,0-1.5,0-1.5-1.2,0-.5-.4-1.1-.6-1.5-.1-.3-.4-.4-.6-.6-.2.3-.6.5-.7.8-.3.8-.5,1.6-.7,2.4-.5,1.7-.8,3.5.6,4.9.6.6.9,1.1,0,1.8-.2.1-.2.6-.1.8.1.2.7.3.7.2.8-1,1.5-.2,2.2.1.3.1.5.4.8.6-.3.1-.7.3-1,.4-.4.2-.9.4-1.3.7.4.3.9.9,1.3.9,1,0,1.6.4,1.7,1.5,0,.5.3,1.1.7,1.3,1.7,1.2,1.9,2.6.9,4.4,0,.2.2.7.2.7,1.4,0,2.8-.2,4.3-.2.5,0,1,.4,1.5.6-.5.2-.9.5-1.4.7-.4.2-1.2.3-1.2.5-.2,1.6-.1,3.2,1.1,4.5,1.1,1.1,2.2,1.3,3.4.6.5-.3.9-.8,1.4-1.3-.5-.1-.9-.2-1.4-.4-.3,0-.6-.2-.9-.3.3-.2.5-.4.8-.7.6-.6,1.5-1,1.7-1.7.7-2,1.5-3.7,3.7-4.4.2,0,.5-.7.4-.9-1-1.9.8-2.7,1.6-3.9.4-.6,1.2-1,1.8-1.5-.6-.5-1.3-1-1.8-1.5-.2-.2-.3-.5-.5-.8.3,0,.6-.2.9-.2.7,0,1.5.2,2.2.3.2,0,.3.1.5.2,0-.3.1-.7,0-.8-1.3-1-2.1-2.6-4.1-2.5-1.1,0-2.3-.3-3.4-.8M67.8,133.7c-.3-.2-.6-.2-.8-.5-.9-1.2-1.7-2.4-2.6-3.6-.3-.3-.8-.5-1.2-.8,0,.4,0,.9.2,1.3.4.9.8,1.9,1.5,2.7.7.8,1.7,1.4,2.6,2,.2.1.5-.1.8-.2-.2-.3-.3-.5-.7-.9M61.4,126.7c.4,0,.9,0,1.3,0-.1-.4-.2-.8-.3-1.2-.3-.5-.6-1.1-1-1.5-.2-.3-.6-.4-.9-.6-.2.5-.6,1.1-.4,1.6.2.6.8,1.1,1.4,1.8M63.3,187.3c.7-.3,1.5-.4,2.1-.8.2-.1.1-.8.2-1.2-.7.1-1.5.1-2.2.4-.6.3-1.3.8,0,1.6M95,191.8c-.3.8-.7,1.6-1,2.4,0,.2.4.7.6.7.9-.2,1.3-2.4.4-3M78.6,121.2c-.2.3-.5.6-.7.9.4.1.8.3,1.2.4.3,0,.6,0,.8,0,.3,0,.6-.1.9-.2-.2-.4-.2-.9-.5-1.1-.3-.2-.9,0-1.6,0M90.3,146.7c0,.3,0,.5.1.8.2,0,.5,0,.5-.2.3-.9.5-1.8.7-2.7,0-.2-.2-.5-.3-.7-.2.2-.5.4-.6.6-.2.6-.2,1.2-.4,2.2M87.2,188.7c.1.4.1,1,.4,1.3.2.3.8.2,1.2.3.3,0,.7,0,1,0-.1-.3-.2-.8-.5-1-.6-.3-1.2-.5-2.2-.7M199.8,195l-.5.6c.2.1.4.4.5.4.6-.1,1.3-.3,1.9-.6,0,0,0-.4,0-.4-.6-.1-1.1-.2-1.7-.3,0,0,0,0-.3.3M55.1,122.1c.2,0,.5.2.7.3,0-.2.3-.6.2-.7-.5-.5-1.1-1-1.7-1.5,0,0-.4,0-.6.2.4.5.8,1,1.3,1.7M146.1,214.4c0,0,.2.2.2.2.5.5,1,.9,1.5,1.4-.2-.5-.5-1.1-.7-1.6-.1-.3-.3-.5-.5-.8-.2.1-.4.3-.6.8M75.1,142.7c-.6-.2-1.2-.4-1.8-.5-.1,0-.3.3-.5.5.3.1.6.4,1,.4.4,0,.9,0,1.3-.5M60.1,81.9c.2.2.4.5.6.7.2-.5.6-1,.7-1.5,0-.2-.4-.5-.7-.7-.2.4-.4.8-.6,1.5M96.3,196.1c-.1.2-.2.5-.3.7.2,0,.5,0,.7,0,.4-.4.7-.8.9-1.2.1-.2.2-.5.3-.8-.3,0-.7,0-1,.2-.3.2-.4.6-.6,1.2M150.5,224c.7,0,1.5-.1,2.2-.2,0-.2-.2-.4-.2-.4-.7,0-1.3.2-2,.6M79.2,188l.6-1.1c-.4,0-.8,0-1.1,0,0,.4.1.8.5,1.1M49.7,103.3c0,.2-.2.4-.1.6,0,.3.2.5.3.7.2-.2.5-.3.6-.5.1-.4,0-.9,0-1.3-.2.1-.5.2-.9.5M182.7,205.4c-.2-.1-.5-.2-.7-.3,0,.3-.2.6-.1.8.3.3.6.5,1,.7,0-.3,0-.7-.2-1.2M61.1,71.9c-.3.2-.7.4-1,.5.2.2.4.4.6.6.2-.3.4-.7.4-1.2M125.9,212.1c0-.4,0-.8-.1-1.1-.3.1-.5.3-.8.4.3.3.5.6.9.7M48.3,97c0,.4.1.9.2,1.3.2-.3.5-.6.6-1,0,0-.4-.3-.8-.3M89.7,140.7c0-.5,0-.9,0-1.4-.2,0-.4.1-.4.2,0,.5.2.9.5,1.2M52.5,98.8c.2.3.5.6.7.8,0-.4.2-.7.3-1.1-.3,0-.6,0-1,.3M115.9,201.8c-.1.3-.4.6-.3.9.1.3.5.4.8.6-.1-.4-.2-.9-.5-1.5M66.3,141.8c.3-.1.6-.3.8-.4-.2-.3-.4-.6-.6-.9-.1.4-.2.8-.2,1.3M152.8,215.7c-.4-.1-.9-.2-1.3-.3.4.4.9.8,1.3,1.1,0-.2.1-.4,0-.8M41.5,109.5c0-.4-.1-.8-.2-1.2-.1,0-.3,0-.4.1.2.4.3.8.6,1M113.3,207.1c.3.1.6.3.9.4,0-.2,0-.4,0-.6-.3,0-.7-.1-1,.2M74.6,161.1c0-.4,0-.9,0-1.3,0,0-.3,0-.3,0,0,.4,0,.9.3,1.3M119.4,210.1c.2,0,.5.2.7.3v-.9c-.2,0-.5.2-.7.6M198,193.2c-.3,0-.6.2-.9.2l.4.6c.2-.2.5-.4.5-.8M155.1,223.1c.4.2.8.3,1.2.5,0-.1,0-.3.1-.4-.4,0-.8-.1-1.3,0M81,149.6c.2.2.4.3.5.5.1-.2.2-.4.3-.6-.3,0-.6-.1-.9.1M76.6,185.4l.8-.3c-.1-.2-.3-.4-.4-.7-.2.2-.4.5-.4.9M45.5,99.2c.2-.3.4-.6.7-.8-.1-.1-.3-.2-.4-.3,0,.3-.2.6-.2,1.2M141.7,217.2c-.2.3-.3.7-.5,1,0,0,.1.1.2.2.1-.4.3-.7.3-1.3M121.2,203.8c.3.2.5.3.8.5,0-.2.2-.3.2-.5-.3-.1-.7-.2-1,0M109.3,201.5c0,.3.1.6.2.8.1,0,.3-.2.4-.3-.2-.2-.3-.5-.7-.5M116.6,208.1c.2.2.5.3.7.5,0-.1.2-.3.3-.4-.3,0-.6-.1-1,0M91.3,122.1c.2.3.4.5.6.8l.3-.3c-.3-.2-.5-.4-.9-.4M72.6,177.7c-.2,0-.5,0-.7,0,0,0,0,.3,0,.5.3-.1.6-.3.7-.6M66.4,144c0,.2,0,.5,0,.7.2,0,.3-.1.5-.2-.1-.2-.2-.5-.5-.5M63.8,178.2c-.2.1-.4.2-.6.4.2.2.3.3.5.5.1-.2.2-.4.2-.8Z"/>
    <path d="M278.4,241.4c.7.8,1.5,1.5,1.9,2.3.3.7.1,1.5,1.3.8.2-.1,1.3.7,1.4,1.1.2,1.3,0,2.7,0,4.1,0,.6.3,1.1.5,1.6,0,0,.5,0,.5-.1.2-.4.3-.8.3-1.2,0-.5,0-.9,0-1.4.3.1.7.2.8.4.3.6,1,1.6.8,1.9-.8,1.2-1.9,2.3-3,3.4-.2.2-.9,0-1.3-.2-.3-.2-.5-.6-.8-.8-.3-.1-.7,0-1.1,0,.1.3.2.6.3.8.4.4.7.9,1.2,1.2,1,.7.4,1.3,0,1.8-.1.2-.5.3-.7.2-.1,0-.2-.4-.3-.6-.2-.5-.3-1.2-.7-1.5-1.6-1.5-3.1-3.3-5-4.2-2.2-1.1-3.3-3.2-5.3-4.4-.3-.2-.6-.5-.6-.7.2-3.4-3.5-4.2-4.5-6.7-.1-.3-.6-.5-.9-.6-.4,0-.8.2-1.1.3.2.3.4.6.6.8.6.4,1.3.7,1.8,1.2.1.1,0,.7-.2,1,0,.1-.7,0-.9,0-.7-.6-1.4-1.2-1.9-1.9-.3-.4-.1-1.1-.3-1.6-.3-.8-.5-1.6-1-2.2-.5-.7-1.1-1.4-2.2-.7-.1,0-1-.5-1.1-.8-.4-2-2.1-3.2-4.1-2.9-.2,0-.5,0-.7-.1,0,0-.1-.3,0-.4.8-1.5.5-1.9-1-3-2-1.4-3.9-2.9-5.8-4.4-.8-.6-1-1.1,0-1.8.3-.2.3-.7.5-1.1-.6-.1-1.2-.3-1.9-.3-.2,0-.4.6-.5.9,0,.2-.1.4-.2.6-.2-.1-.5-.2-.6-.3-.9-1.7-1.6-3.5-2.8-5-1-1.2-2-2.6-3.9-2.9-.5,0-.9-1-1.4-1.6-.5-.6-.8-1.4-1.4-1.9-1.3-1-2.8-1.7-4.2-2.7-.3-.2-.2-1-.1-1.5.1-.6.6-1.1.7-1.7,0-.5-.3-1.1-.5-1.6-.2.4-.4.9-.4,1.3,0,.7-.1,1-.8.4-.4-.4-.8-.7-1.2-1.1-.3-.3-.6-.9-.9-.9-2.9,0-3.8-2.3-4.8-4.1-.9-1.7-1.1-2.2-2.1-.3,0,0-.7-.1-.8-.3-.1-.4,0-.9,0-1.3-.2-.6-.5-1.1-.8-1.7-.4.3-.9.6-1.3.9-.2.1-.3.3-.5.4,0-.2.1-.5,0-.7-.2-1.5-1-2.6-2.3-3.3-1.8-.9-3.1-2.2-3.9-4.1-.4-.9-1.5-1.5-2.3-2.2-.8-.7-1.8-1.2-1.7-2.6,0-.4-.6-.9-.9-1.4-.4.4-.7.8-1.1,1.2-.2.2-.3.5-.5.8,0-.3-.3-.7-.3-1,.2-1.1-.6-2.4-1.8-2.6-1.3-.2-2-1-2.6-2-.3-.6-.9-1.1-1.3-1.6-.4-.6-1.6-.8-.9-2.1,0-.2-.6-1.1-1.1-1.3-2.6-.9-3.9-3.1-5.6-4.9-.8-.8-1.5-2.3-3-.8-.1-.2-.3-.5-.3-.7.3-1.7.3-3-1.9-3.5-.7-.1-1.1-1.1-1.7-1.7-.4-.4-.7-.9-1.1-1-.9-.3-1.2-.6-.4-1.4.3-.3.3-.8.4-1.2-.3.2-.5.6-.8.6-.6,0-1.3.2-1.7,0-.7-.5-1.2-1.2-1.7-2-.2-.3,0-.9,0-1.3,0-.3-.3-.6-.5-1-.3.2-.6.4-.8.6-.3.2-.5.5-.7.7,0-.3-.2-.7-.3-1,0-.4,0-.9-.2-1-1.4-.6-2.3-1.5-2.7-3,0-.1-.4-.3-.5-.3-1.4.3-1.7-.9-2.2-1.7-.2-.4-.6-1.1.5-.7,0,0,.3-.3.4-.5-1.2,0-1.7-2.5-3.3-.9-.5-.5-1.3-1-1.5-1.6-.3-.7,0-1.6,0-2.5,0-.4-.2-1.1-.2-1.1-.7,0-1.3.2-2,.3.1.4.2.9.3,1.2,0,.2.5.4.5.6,0,.3-.2.6-.3.9-.2,0-.5-.1-.7-.3-1.3-1.2-2.3-2.4-2.5-4.3,0-.9-1.3-1.7-2.2-2.5-.8-.7-1.7-1.3-2.5-2-.8-.6-1.7-1.1-2.4-1.8-.5-.5-.9-1.5-.8-2.1.3-1.4-.2-1.2-1.2-.9-1.1.3-2.6,1-3-.9-.9-3.5-3.7-5.4-6.1-7.7-.6-.6-1.2-1.4-1.9-1.8-1.1-.7-2.3-1.2-3.4-1.7-.4-.2-1-.4-1-.6.3-2-2-2.6-2.4-4.2,0-.2-.7-.6-.9-.5-1.3.5-1.6-.2-1.9-1.2,0-.3-.6-.6-1-.8-1.6-.7-2.4-2.2-3-3.6-.1-.3,0-.8,0-1.1,0-.3-.2-.5-.3-.8-.2.2-.4.4-.6.6-.2.4-.4.9-.6,1.3-.2-.5-.4-1-.7-1.4-.3-.5-.8-.8-1.2-1.3-.4-.5-.7-1.2-1.1-1.7-.6-.7-1.3-1.5-2.1-1.9-1.6-.8-3.2-1.6-3.8-3.5-.2-.7-.5-1.3-.7-2-.3-1-.9-1.4-1.9-1.1-1.2.4-2.6-.4-2.7-1.6,0-1.9-1.8-2.6-2.4-4,0,0-.2-.1-.3-.1-2,1.4-1.1-.6-1.3-1.2,0,0,0-.3,0-.3-2.1-.5-2.2-3.7-4.8-3.6-.3,0-.8-1-1.1-1.6-.2-.4-.3-.9-.5-1.3-.3.3-.6.6-.8.9-.2.2-.2.5-.4.7-.2.2-.5.3-.7.5,0-.3-.1-.7,0-.9.5-1.3.7-2.2-1.1-2.6-.4,0-.7-.8-.9-1.2-.5-1.5-1.1-2.4-2.8-2.8-1.6-.4-2.9-1.5-3.5-3.2-.3-.9-.6-1.6-1.8-1.1-1.1.5-1.6-.5-1.8-1.4-.3-1.8-1.2-3.1-2.9-3.9-.5-.2-.8-1-1.1-1.5-.5-.7-.9-1.5-1.4-2.2-.2-.2-.7-.2-1-.2,0,.4,0,.9,0,1.2.2.5.5,1,.8,1.5-.6-.4-1.2-.6-1.7-1.1-.7-.6-1.1-1.2-.1-2.1.7-.7.3-1.5-.8-1.8-.8-.2-1.7-.3-2.4-.7-.5-.3-.8-1-1.1-1.5-.3-.5-.4-1.2-.8-1.7-.5-.7-1.4-.9-1.7-2-.2-.6-1.4-1-2.3-1.1-1.8-.3-3.4-2.3-3-4.1.3-1.3-.9-1.4-1.5-1.9-.1.2-.4.3-.4.5,0,.3.2.7.3,1,0,.3,0,.6,0,.9-.3-.1-.8-.2-.8-.4-.2-2.2-3.1-2.7-2.9-5.1-.5,0-1-.2-1.4,0-1.7.7-1.4.6-1.7-1.1-.2-1.1-1.3-2.3-2.2-3.1-1-.9-2.1-1.4-2-3.1,0-.7-.5-1.5-1.6-1.3-.5,0-1-.2-1.5-.3-1-.3-1.2-.7-.2-1.3.2-.1.4-.4.5-.7-.3,0-.6,0-.9,0-.4,0-.9,0-1.2-.1-1-.7-2-1.2-3.3-1.3-1,0-.8-1.1-.6-1.7.3-.8.5-1.5-.6-1.7-3.4-.9-5-3.7-6.8-6.3-.7-1-1.8-1.8-2.7-2.6-.4-.4-1-.6-1.2-1-.9-1.4-1.9-2.3-3.7-2-.7,0-1.1-.4-.4-1.2.3-.4.4-1,.6-1.6-.5-.2-1-.5-1.5-.4-1.2,0-2-.3-2.8-1.4-.9-1.1-2-2.3-3.8-2.4-.3,0-.8-.8-.8-1.2.2-1.5.6-3.1.9-4.6,0-.3,0-.7.2-.9,1.8-2.5,4.6-3,7.2-1.3.5.3,1,.5,1.6.7,1.6.4,2.3,1.5,2.3,3.2,0,.7.6,1.3.9,1.9,0,0,.3.1.3,0,1.4-1,2.4-.8,2.7.7.3,2.1,1.2,3.2,3.3,3.4.2,0,.5.2.5.3.5,1.8,2.1,2.4,3.2,3.6.7.8.9,1.9,1.3,2.9,0,.2,0,.5,0,.7.4.7.9,1.4,1.4,2.1,0-.6,0-1.3-.1-1.9-.2-1.2.3-1.8,1.4-1.4.3.1.6.5.6.8,0,1.6.9,3.4,2.3,3.4,2.2,0,2.4,1.9,3.4,3.1.4.6.8,1.2,1.3,1.7.4.4,1,.6,1.5.8,2.1,1.1,2.3,1.8,1.2,3.6-1,1.7-.9,3.1.3,3.8.3.1.6.2.9.2,0-.3-.1-.5-.2-.8,0-.4-.1-.7-.1-1.1,0-.5,0-1,.3-1.3.3-.3,1-.5,1.3-.4.9.4,1.9,1,2.6,1.6.4.4.9,1.2.8,1.6-.2.5-1,.7-1.5,1.1-.2.1-.5.3-.7.4.3,0,.6.3.8.3,1.5-.3,3.1-.4,4.3-1.6.3-.3.9-.2,1.4-.3-.2.4-.2.9-.5,1.2-.3.5-1,1.1-.9,1.3.5,1.1,1.1,2.7,2,2.9,2,.5,2.6,2,3.6,3.4.4.5,1,.7,1.5,1.1.6.5,1.2,1.1,1.6,1.7.9,1.3,1.4,2.8,3.5,2.7,1.1,0,2.4.7,1.6,2.5-.5,1,1.3,3.1,2.5,3.4,2.8.6,5.4,1.4,6.1,4.7.1.6-.2,1.4,0,1.9.8,1.3,1.8,2.5,2.7,3.7,0,0,.4,0,.5-.1,0-.3-.1-.6-.2-.9-.6-1.2-1.2-2.4-1.7-3.6-.1-.2,0-.7.3-.9.2-.2.7-.3.9-.2.2.2.3.6.4,1,.1.7.2,1.4.4,2.1.2.7.6,1.4,1,2.1.3.4.6.9,1.1,1,1.5.5,2.7,1.1,2.6,3,0,.3.6.8,1,1,.2.1.6,0,.8,0,.4.2.7.4,1.1.7-.3.2-.7.4-1,.6-.3.2-.6.4-.9.6.3.1.7.4,1,.4,2.8-.5,4.4.9,5.7,3.2.5,1,1.7,1.7,2.6,2.4,1.1.7,2.1,1.4,1.9,3,0,.4.3.9.5,1.4.3-.4.5-.8.8-1.2.1-.2.2-.3.3-.5.2,0,.4.2.5.3.2.3.4.6.5.9.9,2.8,3.3,3.9,5.6,5.1,1.1.5,1.4,1.5,1.5,2.6,1.3-.1,2,.7,2.4,1.8.1.3-.4.7-.5,1.1-.1.3-.3.7-.2,1,0,.2.5.5.6.4.3-.2.5-.5.6-.8.3-.5.3-.9.7,0,.7,1.4,1.7,2.6,2.5,3.9.5.8.4.8,1.1,0,.2-.2.7,0,1,0,.3.2.7.7.6.8-.3.6-.7,1-1.1,1.5-.2.2-.3.4-.5.6.3,0,.7.2.9,0,1.4-.8,2.7,0,3.7.7,1.1.6,1.9,1.5,3.2,2,1.3.4,2.3,2,3.1,3.2.9,1.4,1.4,3.1,2.3,4.5.3.5,1.5.4,2.1.9,1.4,1.2,2.5,2.6,3.9,3.8,2.4,2,4,4.9,7.3,6,.1,0,.3.2.4.3.3.4.6.9.9,1.3-.5-.1-.9-.3-1.4-.3-.4,0-.8,0-1.2,0,.2.3.3.7.5.8,4.1,1.5,6.3,5.4,10,7.4.8.4,1.5,1.2,2.2,1.8-.9.4-1.8.8-2.6,1.2-.4.2-.7.6-1.1.9.4.1.8.4,1.2.4.9-.1,1.7-.4,2.6-.6,1.4-.3,2.6-.2,3.2,1.4.2.6.3,1.3.8,1.7.4.4,1.1.5,1.7.7.3,0,.6,0,.9,0-.2.3-.3.6-.5.9-.2.3-.5.6-.8.8.4.2.8.5,1.1.5,1.3-.2,1.8.6,2.6,1.5,1.1,1.3,2.5,2.4,3.8,3.5,2.6,2.4,5.8,4.4,7.4,7.7.8,1.7,1.6,2.5,3.3,3.3,1.9.9,3.7,2.5,4.4,4.8.2.6.8,1.3,1.4,1.5,1.9.8,2.5,1.5,2.6,3.5,0,.5.2.9.3,1.3.3-.2.6-.4.9-.6,1.2-.8,1.9.2,2,1,.1,1.3.6,1.9,1.9,1.8.3,0,.7.4,1,.7-.3.2-.6.5-.8.7-.2.2-.5.5-.7.8.3,0,.7.2,1,.1,1.9-.5,3.2.6,4.7,1.3,0,0,.1.5,0,.5-1.3,1.1-.1,1.7.5,2.3.8.8,1.8,1.5.9,2.9,0,.1,0,.4.2.6.2-.2.4-.3.5-.5.4-1.3,1.2-.9,2-.7,1,.4,1.4.9.5,1.8-.3.3-.3.7-.5,1.1.4,0,.7.2,1.1.2,1.2-.1,2.3-.3,3.5-.4.2,0,.5,0,.7-.1-.1.3-.2.7-.4.8-1.9.5-1,1.3-.2,2,.7.7,1.1,2.2,2.6,1.1.1.4.4.8.4,1.1,0,.5-.3,1-.5,1.5.6.1,1.1.3,1.7.4,2.2,0,2.9.7,2.1,2.7-.7,1.8,1.1,1.9,1.5,2.8.1,0,.3,0,.3-.2,0,0,.2-.3.1-.3-.2-.2-.5-.4-.5-.6,0-.5,0-1,0-1.6.5.2,1,.4,1.4.7,1.2.8,2.6,1.6,1.6,3.5.4.2.9.6,1.3.6,1.2,0,2.2.2,3,1.2.1.2.2.5.3.7-.2,0-.5,0-.7,0-.3,0-.6,0-.9,0,0,.4,0,.8,0,1.1,0,.2.6.5.8.4,2.2-1.1,3.2.7,4.4,1.9.8.8,1.6,1.7,2.3,2.7.4.5.6,1.2,1,1.7.2.4.6,1,.8,1,2.5-.2,2.5,2.3,3.8,3.4,1.1,1,1.6,2.5,3.4,2.8.6,0,2,.7,1.4,2.2-.1.3.8.9,1.2,1.4.4.4.9.8,1,1.2.3,1.2.5,2.5.7,3.7,0,.1.1.3.2.4.1,0,.3,0,.4-.1-.4-1.2,1.4-2.4-.1-3.5-.2-.1,0-.6-.1-.9.3,0,.6.1.8.3,1.1.8,2.2,1.6,3.1,2.5.4.4.4,1.2.3,1.8-.1,2.2,1.1,3.5,3,4.4.2,0,.6,0,.7-.2,0-.2,0-.6,0-.9.3.2.7.4.9.7,1.1,1.3,2.2,2.7,3.3,3.9.3.3.9.4,1.4.4,1.1-.1,1.7.4,1.5,1.5-.4,1.7.2,2.6,2,3.1,1.5.4,2.9.8,3,2.8,0,.4.8.9,1.3,1.1,1.8.5,3,1.5,3.8,3.2.2.5.8.8,1.2,1.3M262.7,228.4c-.4-.5-.8-1.2-1.3-1.4-.6-.3-1.5-.5-2.1-.3-1.3.4-1.7,1.5-1.5,2.8,0,.4.4.8.6,1.2.1-.4.3-.8.4-1.2.1-.5.2-1.4.3-1.4.6,0,1.3,0,1.8.3.4.2.7.7,1.1,1,.9.8.8,0,.8-.9M162.3,135.2c-1.4.9-1.6,2.3-.4,3.2.2.1.8,0,.8,0,0-1-.2-2-.5-3.1M124.9,103.1c.7-1,.3-1.9-.3-2.7-.2-.3-.6-.4-.9-.6,0,.4-.3.9-.1,1.2.3.8.8,1.5,1.4,2.1M41.2,22.8c0,.3,0,1,0,1,.8,0,1.6,0,2.3,0,.2,0,.4-.4.6-.7-.3-.1-.5-.4-.8-.4-.6,0-1.3,0-2.1.1M136,104c.5.5,1,1,1.5,1.5.2.2.5.2.7.3,0-.3.1-.7,0-.9-.6-.6-1.3-1.1-1.9-1.6-.3-.2-.7-.4-1.1-.6,0,0-.2.2-.3.3.3.3.7.6,1.2,1M157.3,131.2c-.2-.3-.5-.6-.7-1-.5.6-1,1.2-1.4,1.9,0,.1.3.5.5.8.5-.4,1-.8,1.5-1.2,0,0,0-.2.2-.5M204.3,172.9c-.5.2-1.1.5-1.6.7.6.2,1.3.3,1.9.5.2,0,.5,0,.7-.2.3-.1.6-.3,1-.5-.4-.2-.8-.4-1.2-.6-.2,0-.4,0-.8.2M30.1,11.3c.9-.6.9-1.1-.2-1.5-.6-.2-1.1-.5-1.7-.8-.1,0-.3,0-.5,0,0,.1,0,.3,0,.3.6.7,1.3,1.3,2.3,2M169.9,138.9c-.6-.2-1.4-1.4-1.7,0-.1.5.8,1.2,1.3,1.9.2-.5.4-.9.6-1.4,0,0,0-.2-.2-.5M88.5,69.8c.5,0,.9,0,1.4,0-.2-.4-.3-1-.5-1.1-.6-.1-1.2,0-1.8,0,.2.3.4.7,1,1M52.6,31.6c.4.9.7,1.8,1.1,2.7,0,.1.3.2.5.3,0-.2.3-.4.2-.5-.5-.9-1.1-1.8-1.8-2.5M274.2,247.1c.6.2,1.2.4,1.8.5-.5-.5-.9-1-1.4-1.5-.3-.2-.7-.2-1.1-.3.1.4.3.8.8,1.2M68.9,49.5c.4.5.8,1.2,1.3,1.6.2.2.8,0,1.2-.2-.2-.3-.3-.7-.6-.9-.5-.3-1.1-.5-1.9-.6M94.3,72.6c-.6-.2-1.2-.3-1.8-.5,0,.2,0,.6,0,.7.4.3.9.6,1.4.9.2-.3.4-.6.4-1.1M147.8,124.1c.1.3.2.6.3.8.1.2.3.4.5.6,0-.3,0-.6.1-.9,0-.4.1-.8.2-1.1,0-.2.2-.4.4-.6-.2-.1-.6-.4-.6-.4-.4.4-.7.9-.9,1.5M48.2,29.7c.5.2.9.4,1.4.5.4,0,.8,0,1.2,0-.4-.3-.7-.8-1.2-.9-.4-.1-.9.2-1.5.5M218.2,187.8c-.2.2-.6.5-.6.7,0,.4.1.9.4,1.1.3.2.8,0,1.2-.1-.3-.5-.6-1-1-1.6M243.6,211.9c.1-.3.2-.7.3-1-.4,0-.9-.2-1.3-.3-.1,0-.3.3-.5.4.4.2.9.5,1.5.8M41.2,20.1c-.4-.1-.9-.2-1.3-.3.2.3.3.7.6.8.2,0,.6-.2.7-.5M85.7,63c-.3-.1-.6-.3-.9-.4,0,.4-.2.8,0,1.1,0,.2.5.3.7.5,0-.3.2-.6.2-1.2M233.5,199.5c-.4,0-.8-.1-1.1-.2.1.4.3.8.4,1.1.2-.2.5-.4.7-1M185.5,161.8c-.1-.1-.2-.3-.3-.3-.3-.2-.6-.3-.9-.4.1.3.1.6.3.8.3.2.6,1.2.9,0M121.1,91.4c0-.5.1-1,.2-1.5,0,0-.3,0-.5-.1,0,.5.1,1,.4,1.6M175.5,144.8c.3.2.5.3.8.5,0-.2.2-.5,0-.6-.3-.3-.7-.5-1-.8,0,.2,0,.5.1.9M224.7,196.3c0,.4.2.8.2,1.2.2-.1.6-.3.5-.4-.2-.4-.4-.7-.8-.9M30.4,1.7c0,.3-.3.6-.2.8.1.2.5.2.8.3,0-.3-.2-.7-.6-1M181.2,149.1c.4.4.8.9,1.3,1.3,0,0,.3,0,.4,0,0,0,0-.2,0-.2-.6-.4-1.2-.8-1.7-1M275,240.7c.3,0,.7-.1,1-.2l-.8-.6c-.1.2-.2.4-.2.8M89.5,59.8c.2-.1.5-.3.5-.4,0-.3-.2-.5-.4-.8,0,0-.3.1-.3.2,0,.3,0,.6.2,1.1M68.9,41.5c.3.3.6.7.9,1l.3-.3c-.3-.3-.7-.6-1.2-.7M245.1,218.7c.2-.2.6-.3.6-.5,0-.2-.2-.4-.4-.6,0,.3-.2.6-.2,1.2M248.3,222.9c-.3.1-.6.3-.8.4l.6.6c.1-.3.3-.6.2-1M254.6,222.6v-1c-.2.1-.4.2-.7.3.1.2.2.5.7.7M86,57.3c0,.3.1.5.2.8.2,0,.3-.2.5-.2-.2-.3-.3-.5-.7-.6M91.2,66.1c-.2-.3-.5-.6-.7-.9l-.4.4c.2.2.5.4,1.1.6M44.3,18c.1-.2.2-.5.3-.7-.3,0-.5-.1-.8-.2.1.2.2.5.5.8M213.9,189.5c-.2.1-.4.2-.6.4.3.2.5.3.8.5,0-.2,0-.4-.2-.8M44.5,25.8l-.7-.3c0,.2-.1.3-.2.5.2,0,.5,0,.9-.1M118.6,88.2c0-.3.2-.5.2-.8-.1,0-.3,0-.4,0,0,.3,0,.6.2.8M232.3,207.6c.1.2.2.4.4.6l.5-.5c-.2-.1-.4-.2-.8-.2M31.6,8.8c0,.1-.1.3-.2.4l.9-.2c-.2-.1-.3-.3-.7-.2Z"/>
    <path d="M146.1,142.4c.9-2.2,3.1-2,4.7-2.9.2,0,.8.3,1,.6.9,1.7,1.7,3.4,2.6,5.1.6,1.2-.3,2.7-1.6,3-.5.1-1,.5-1.3,1-.8,1.5-3.8,2.7-5.4,2.1-1.2-.4-2.2-.9-2.7,1-.3,1-2.3,1-2.7,2.7,0,.3-1.7.4-2.7.5-1.5,0-2.6.5-2.5,2.4,0,.3-.3.6-.5,1-.2-.4-.4-.7-.5-1.1-.2-.4-.2-.8-.4-1.2-.3.4-.7.9-.9,1.4-.2.5-.1,1.1-.4,1.5-1.2,1.5,0,2,1,2.6.8.5,1.5,1,2.2,1.5.1.1,0,.4,0,.7-.2,0-.5,0-.7,0-.3,0-.5-.1-.8-.1-.3,0-.6.1-.9.2.2.2.3.6.5.7,2.8.6,3.3,3.3,4.7,5.1.6.8,1,1.4,2.1.9.2,0,.7.4.9.7.3.7.3,1.4.5,2.1.6,2.7,2.6,4.6,4.1,6.7,1.1,1.7,2.5,3.2,3.7,4.8.2.3.3.7.3,1,0,.4,0,.9,0,1.4.6,0,1.2-.2,1.8-.3.3,0,.6-.2.8,0,.2.1.2.5.2.8,0,.6-.1,1.5.2,1.9,1.1,1.2,1,2.6.9,3.9,0,1,.4,1.1,1.2.8.4-.1,1.1-.1,1.5.2,1.7,1.5,1.8,2.6.7,4.7-.5.8-.7,1.8-1,2.7-.1.3-.4.6-.6.7-.2,0-.7-.3-.7-.5-.3-1.4-1-.9-1.6-.3-.8.8-1.3,1.4-2.2,0-.2-.4-1.3-.2-2-.2-.2,0-.5,0-.7.1,0-.2.1-.4.2-.6.2-.6.6-1.2.5-1.7-.3-.7-1-1.1-1.8-.5,0,0-.8-.5-1-.9-.6-1.7-1.1-3.5-1.8-5.2-.1-.4-.9-.7-1.3-.7-1.4,0-2.8-.7-3.9.7-.2.2-.6.3-.9.4,0-.4,0-1,.2-1.2.8-.7,1.7-1.5,2.7-2,.8-.4,1.1-.7.3-1.3-.6-.5-1.3-.9-1.7-1.4-.5-.6-.8-1.4-1.1-2.2-.1-.3-.1-.7-.4-.8-.5-.4-1.1-.7-1.7-1.1.2.5.4,1,.6,1.5.1.3.1.7.2,1-.3-.1-.8-.2-.9-.5-.6-1.1-1.1-2.2-1.6-3.3,0-.1.3-.5.5-.6.4-.3.8-.6,1.2-.9-.6-.3-1.4-.9-1.8-.7-1.5.8-1.8-.1-2.2-1.1-.3-.8-1.8-1.1-1.1-2.5.2-.4-.2-1.1-.3-1.7-.5.1-.9.4-1.4.4-.3,0-.9-.3-.9-.5-.4-2.1-2-3.5-3.4-4.9-.5-.5-1.7-.6,0-1.2.2,0,.5-.7.4-.9-.1-.3-.6-.6-.9-.6-.4,0-.9,0-1.3,0-.5,0-.9-.1-1.4-.2.4-.4.7-.9,1.1-1.2.3-.2.8-.3,1.1-.4-.4-.3-.8-.6-1.1-.9-.7-.5-1.5-1-2.1-1.6-1.6-1.5-3.1-3.1-4.7-4.7-.2-.2-.3-.5-.5-.7.3-.1.6-.4.8-.4.9,0,.9-.3.7-1.1-.5-2.8,1.8-4.4,4.1-5.2.9-.3,1.8-.7,2.7-1,1.3-.4,2.6-.7,3.8-1.2,1.2-.5,2.2-1.3,3.3-2,.2-.1.4-.3.7-.3.3,0,.6,0,1,.1-.2.2-.4.4-.6.5-.6.3-1.2.5-1.8.9-.2.1-.3.5-.4.7.3.1.7.4.8.3.8-.6,2-.2,2.4-1.6.3-.8,1.6-1.3,2.6-1.8,1.7-.9,3.3-1.9,5.4-1.9,1.2,0,2.5-.6,3.8-1M127.4,151.5c-.8,0-1.6,0-2.4,0,0,0,0,.4,0,.5.8-.1,1.6-.2,2.4-.3,0,0,0,0,0-.3M140,173.4c-.3,0-.5-.1-.8-.2.1.7.2,1.4.4,2.1,0,0,.5,0,.7,0,0,0,.1-.3.1-.4,0-.5-.2-.9-.5-1.5M145,184c-.1-.4-.2-.9-.4-1.3-.1-.2-.5-.2-.8-.3,0,0-.3.2-.3.3.3.6,0,1.8,1.5,1.4M139.2,152.6c-.4.2-.7.3-1.1.5-.2,0-.4.2-.6.4.2,0,.5.3.6.3.5-.2.9-.4,1.4-.6.3-.2.7-.3,1-.4-.4,0-.8-.2-1.3,0M154.9,197c-.2-.2-.3-.4-.5-.5-.2.4-.5.8-.7,1.2,0,.1.3.4.5.6.1-.4.3-.7.6-1.3M121.2,155c0-.5,0-1,0-1.5-.2.3-.3.6-.5.9-.1.2-.3.3-.5.5.2,0,.5.2.9,0M135,179.4c0-.3.1-.5.2-.8-.4,0-.8,0-1.1.1.2.2.4.5,1,.7M118.9,158c.1.4.2.8.4,1.2.2-.3.4-.5.6-.8-.3-.2-.6-.4-1-.4M135.5,169.2c-.1-.3-.3-.6-.4-.8-.3.3-.6.5-.8.8.4,0,.7.2,1.3,0M123.2,156.3c-.1.3-.3.6-.4.9.2,0,.5,0,.5,0,0-.3,0-.7-.1-.8M131.5,170.6c0-.3.2-.5.2-.8-.3,0-.6,0-.9,0,.2.3.3.6.6.7M124.6,159.6c0,.3.1.6.2.8.1,0,.3-.2.4-.3-.2-.2-.3-.5-.7-.5M150.6,140.8c0,.2.1.4.2.7l.7-.3c-.2-.1-.3-.3-.8-.4Z"/>
    <path d="M129.3,59.2c.6-1.8,2.2-2.2,3.4-3.1.9-.7,1.8-1.4,3.1-.7.4.2,1.4-.2,1.8-.7,2.1-2.3,4.5-3.6,7.8-3.7,1.7,0,3.3-1.5,5-2.3.4-.2.8,0,1.3,0,.3,0,.6,0,.8,0,1.6-.5,3.1-1,4.7-1.4.2,0,.6.1.8.2-.2.2-.4.4-.6.5-1,.7-.5,1.2.3,1.5.5.2.9.4,1.4.6.9.2,1.9.3.7,1.6-.2.2.3,1.1.6,1.5.6.8,1.5,1.4,1.9,2.3.4,1.1,1,1,1.9,1.1.6,0,1.2.3,1.7.5-.5.4-1,.8-1.5,1.1-.2.2-.5.2-.8.3.2.2.3.5.5.6,1.6,1.7,3.2,3.3,4.9,4.9.4.4.9.8,1.4,1.1.4.3.8.5,1.3.7-.4.2-.9.6-1.3.6-1.3,0-1.2.5-.7,1.3.3.4.7.7,1.1,1.1,0-.4.1-.8.2-1.2,0-.2.2-.5.4-.7.2.2.6.3.7.5.3.4.4.9.6,1.4.6,2.1,1.9,3.8,3.5,5.4,1.3,1.3,2.2,3,3.3,4.6.1.2.3.6.2.7-.7,1.2,0,1.3.9,1.3.3,0,.7,0,1,0,.3.2.5.6.8,1-.3,0-.7.1-1,.3-.6.3-1.5.5-1.7.9-1,1.8-2.5,2.1-4.3,2-2.5,0-2.5,0-3-2.5,0-.5-.5-1-.8-1.4-.2.5-.3,1-.5,1.5-.1.3-.3.5-.5.8-.2-.2-.4-.3-.6-.5-.4-.4-.9-.9-1-1.4-.1-.5,0-1.1.2-1.7,0-.3.5-.4.7-.6-.4-.1-.8-.3-1.2-.4-.8-.3-1.5-.6-2.2-1,0,0-.2-.2-.2-.2.2-2.6-3.3-3.4-3-6.1,0-.1-.1-.3-.2-.4-1.3-1.2-2.8-2.2-3.4-4-.4-1.2-1.5-2.3-2.3-3.4-.3-.4-.9-.9-1.1-.8-1.6.7-1.5-.8-1.9-1.5-.4-.6-.5-1.3-.9-1.9-.4-.7-.9-.8-1.7-.2-.9.7-2.1,1.4-2.8-.4-.1-.3-.7-.4-1.1-.6,0,.5-.2,1.1,0,1.3.8.9.2.9-.5.9-1.7-.1-2.9.2-2.9,2.3,0,.2-1.1.7-1.5.6-1.5-.7-2.7-.7-3.8.6-.3.4-.9.7-1.5.8-1,.1-2.2-.2-2.4,1.4,0,.1-.4.3-.7.3-.9,0-1.8,0-2.7,0-.8,0-1.2-.1-1.4-1.1-.2-.7-.9-1.5-1.6-1.9-1.2-.7-.7-1.5-.5-2.4.2-.6.5-1.2.9-1.9M137,57.5c-.4-.1-.8-.3-1.2-.3-.2,0-.6.3-.6.4.3.7.6,1.3,1,1.9,0,.1.7.1.7,0,.1-.6.2-1.3.1-2.1M175.7,77.9c-.5.5-1.1,1.1-1.6,1.6,0,0,.3.4.3.4.7-.3,1.3-.7,1.9-1.1.2-.2.3-.5.5-.8-.3-.1-.7-.2-1.2-.2M147.1,57.3c-.4-.1-.8-.3-1.2-.4,0,.2,0,.5,0,.5.3,0,.7,0,1.2-.1M131.4,59.5c0,.4,0,.9,0,1.3,0,0,.3,0,.3,0,0-.4,0-.9-.3-1.3M144.6,53.8c0,.2,0,.4,0,.7.3-.2.5-.3.8-.5-.2-.1-.4-.2-.8-.2Z"/>
    <path d="M102.5,96.8c-.6,1,0,1.5.8,1.9.2.1.6,0,.9-.1,0-.3,0-.8-.3-1-.7-.8-.3-.9.4-.9,1.1,0,2.2,0,3.3,0,1.3,0,1.7.7,1.5,1.9-.2,1-.2,1,.9.8,1.6-.3,2.4.6,2.2,2.3-.2,1.3,0,2.5,1.8,2.4.3,0,.6.4.9.6-.2.2-.4.7-.7.7-1.5.3-2.6,1.1-3.3,2.5,0,.1-.6.2-.9,0-.8-.2-1.5-.6-2.3-.9-.1,0-.4,0-.5,0-2-2.3-5.1-1.3-7.5-2.6-2-1.1-4.3-1.7-6.4-2.6-1.4-.6-2-1.8-1.6-3.3,0-.4-.1-.9,0-1.3.2-.4.6-1,1-1.1.8-.1,1.3,0,.8-1.1,0-.2.4-.9.6-.9,1.6,0,3.2.2,4.8.3.7,0,1,0,.4.8-.2.2-.2.8,0,1,.3.3.8.4,1.2.5.6,0,1.3,0,2,.2M96,96.2c.3,0,.5.1.8.2,0-.3,0-.6-.1-.9-.3.2-.5.4-.6.7Z"/>
    <path d="M227.1,141.8c-.6.2-1.1.4-1.6.4-.2,0-.5-.3-.6-.6,0-.1.2-.5.4-.6.4-.3.9-.5,1.3-.7.2.5.4,1,.5,1.5Z"/>
    <path d="M204,204.5c-.4-.3-.8-.5-1-.8-.1-.2,0-.6.2-.8,0,0,.4,0,.7.2.2,0,.4.1.6.2.3.3.6.6.8.9-.4.1-.8.3-1.2.3Z"/>
    <path d="M185.3,23.9c-.3-.2-.5-.6-.4-.7.2-.3.6-.6.9-.6.6,0,1.3.2,1.9.3-.5.2-1.1.4-1.6.6-.2,0-.4.2-.7.3Z"/>
    <path d="M176,72c.2-.2.2-.3.3-.3.5,0,1.1,0,1.6,0-.2.3-.3.7-.5.8-.6.2-1.2.2-1.8.3,0-.2.2-.5.4-.8Z"/>
    <path d="M104.9,107.4c.2.2.4.3.4.4,0,.6,0,1.2-.1,1.8-.5-.6-1-1.2-1.5-1.8.4-.2.7-.4,1.2-.5Z"/>
    <path d="M175.4,19.9c.4.2.6.4.8.6.3.3.6.6.9.9-.7-.2-1.3-.3-2-.5,0,0,0-.6.3-1Z"/>
    <path d="M199.6,190.3c0-.2,0-.3.1-.3.5-.2,1.1-.3,1.6-.5,0,.3.1.7,0,.9-.5.7-1.1.8-1.7-.1Z"/>
    <path d="M60.5,96c0-.5,0-.9.1-1.3.2-.5.4-.9.6-1.4,0,.3.2.7.2,1,0,.8.4,1.8-1,1.7Z"/>
    <path d="M94.2,104.1c.4.3.7.5,1.1.8-.4,0-.8,0-1.1-.2-.7-.4-1.2-1-1.9-1.5.6.3,1.2.5,1.9.9Z"/>
    <path d="M59.5,24.3c-.2.2-.5.3-.7.3-.6,0-1.3,0-1.9-.1,0-.2.1-.5.2-.5.8,0,1.6,0,2.4.3Z"/>
    <path d="M81.6,42.6c-.2-.3-.3-.5-.4-.7.3,0,.6.1.9.2.5.3,1.1.6,1.6.9-.7-.1-1.3-.2-2.1-.4Z"/>
    <path d="M210.8,75.8c.2.2.3.3.4.4.3.3.6.7,1,1-.4,0-1,.1-1.3,0-.6-.3-1.1-.9,0-1.4Z"/>
    <path d="M143.9,154c.2-.5.4-.9.8-1.2,0,0,.5.4.8.5-.5.3-1,.5-1.6.7Z"/>
    <path d="M144.5,206.9c-.3,0-.9-.2-.9-.5,0-.4.2-.9.3-1.3.2.1.6.2.6.4,0,.4,0,.9,0,1.5Z"/>
    <path d="M94.7,107.3c.3.3.5.6.6.9-.6,0-1.2,0-1.9,0-.1,0-.2-.3-.3-.4.5-.1,1-.3,1.6-.4Z"/>
    <path d="M256.2,104.9c-.2-.8-.3-1.4-.4-2.1,0-.1.2-.3.3-.5,0,0,.3,0,.3,0,0,.9,0,1.7-.2,2.5Z"/>
    <path d="M70.3,159.4c.3.1.5.4.7.6-.3.3-.6.6-1,.8-.1,0-.4-.3-.7-.5.3-.3.6-.5.9-.8Z"/>
    <path d="M144.2,194c.2,0,.3.2.3.3-.1.5-.3.9-.5,1.4-.3-.1-.5-.3-.8-.4.3-.4.5-.8.9-1.2Z"/>
    <path d="M138.1,67.4c-.2,0-.3,0-.4,0-.5.3-.9.6-1.4,1,0-.1-.2-.4-.1-.4.5-.5,1-1,1.6-1.6.1.3.3.6.3.9Z"/>
    <path d="M230.8,149.1c.4.2.7.4.9.6-.4.1-.7.4-1.1.4-.3,0-.5-.1-.8-.2.3-.3.6-.5,1-.8Z"/>
    <path d="M98.9,90.8c.1.5.2.9.2,1.3,0,0-.4.1-.4,0-.2-.5-.4-1-.7-1.5.3,0,.6,0,.9.1Z"/>
    <path d="M108.9,92.4c0,.3,0,.8-.4,1-.2.1-.6-.1-1-.2.4-.3.8-.5,1.3-.8Z"/>
    <path d="M241.6,200.7c.3-.3.5-.6.8-.8.1,0,.4-.1.5,0,.1,0,.3.5.2.5-.5.4-.9,1.2-1.6.3Z"/>
    <path d="M226.4,127.1c-.3.2-.6.4-.9.5-.2,0-.5,0-.7,0,.1-.2.2-.6.4-.7.4,0,.8,0,1.2.2Z"/>
    <path d="M158.8,194.9c0-.4.2-.9.3-.9.4,0,.8.3,1.3.4-.1.2-.2.5-.4.5-.4,0-.7,0-1.2,0Z"/>
    <path d="M211.2,175.4c-.3-.3-.4-.7-.5-1,.4.1.9.2,1.3.3-.2.2-.4.4-.8.7Z"/>
    <path d="M243,136.8c-.3,0-.7.1-.8,0-.3-.3-.4-.7-.7-1.1.3.2.7.3,1,.5.2.1.4.4.5.6Z"/>
    <path d="M241.2,175c-.1.3-.4.7-.6.7-.2,0-.5-.3-.7-.5.4,0,.8-.2,1.3-.2Z"/>
    <path d="M183.3,140.8c.5-.3.9-.6,1.2-.9,0,.2.2.5,0,.6-.5.4-1,.7-1.5,1,0-.2,0-.4.1-.7Z"/>
    <path d="M188,115.2c-.2,0-.6-.2-.6-.4,0-.4.1-.9.2-1.3,0,0,.4,0,.4,0,0,.4,0,.7,0,1.1,0,.2,0,.3,0,.6Z"/>
    <path d="M131.9,116.9c.5.2.8.3,1.1.6.1.1.1.4.2.7-.2,0-.4,0-.6-.1-.4-.3-.8-.6-1.3-.9.1,0,.3-.2.6-.2Z"/>
    <path d="M103.9,205.7c0,.2-.2.4-.4.5-.2.2-.4.5-.7.7,0-.2-.3-.6-.2-.7.3-.3.8-.5,1.2-.6Z"/>
    <path d="M146.9,36.1c.1-.5.3-.9.5-1.2.2.1.4.3.6.4-.4.3-.7.6-1.2.8Z"/>
    <path d="M258.7,242.8c-.1.2-.3.3-.4.3-.3,0-.7,0-1,0,0,0-.1-.3,0-.3.3-.1.6-.3,1-.4.2,0,.4,0,.6.3Z"/>
    <path d="M109.4,208.4c-.3-.2-.4-.5-.6-.7.3,0,.6,0,.9-.1,0,.3-.1.5-.3.9Z"/>
    <path d="M157.8,141.2c-.4,0-.7.1-.9.2.1-.3.2-.7.4-.7.4,0,.8,0,1.3.1-.2.1-.3.3-.7.4Z"/>
    <path d="M236.9,196.1c.5.3.9.7,1.2,1l-.2.2c-.4-.4-.7-.8-1-1.2Z"/>
    <path d="M233.1,139.1c0,.2,0,.7-.2.7-.3,0-.7-.1-1-.2.2-.1.4-.3.7-.4.1,0,.3,0,.6,0Z"/>
    <path d="M137.8,161.7c-.4,0-.6,0-.9,0,.2-.3.4-.6.6-.8.1.3.3.6.3.9Z"/>
    <path d="M182.3,22.2c-.4.2-.7.4-1,.5,0-.2,0-.6.2-.7.3,0,.6,0,.8.2Z"/>
    <path d="M105.9,127.5c-.3,0-.6,0-.9,0,.3-.3.7-.6,1-.8.1,0,.4.1.6.2-.2.2-.4.3-.7.6Z"/>
    <path d="M210.5,146.7c-.2.2-.4.4-.5.5-.2.2-.4.3-.6.5,0-.3,0-.6.2-.8.2-.3.5-.5.8-.8,0,.1.1.3.1.5Z"/>
    <path d="M209.5,158.5c0-.3.1-.5.3-.7.3.2.5.3.8.5-.3.1-.6.2-1.1.3Z"/>
    <path d="M193.6,57.1c-.2.3-.5.4-.7.5v-.9c.2,0,.5.2.7.5Z"/>
    <path d="M84.7,198.3c-.3-.1-.7-.4-1-.7,0,0,.2-.2.2-.3.2.3.5.6.7,1Z"/>
    <path d="M224.9,145.6c-.1-.3-.2-.7-.2-1.2,0,0,.2,0,.3-.1,0,.4,0,.8-.2,1.3Z"/>
    <path d="M152.5,36.9c-.2-.4-.3-.7-.4-1.1,0,0,.2,0,.3,0,0,.4.1.8,0,1.2Z"/>
    <path d="M188.1,152.9c.5,0,.8.2,1.2.4-.1.2-.3.3-.4.5-.3-.3-.6-.5-.8-.8Z"/>
    <path d="M135.8,41.3c0,.2,0,.4,0,.6-.3,0-.6-.2-.9-.3.3-.1.6-.3.9-.3Z"/>
    <path d="M191.2,185.4c.2.3.3.5.4.8-.3,0-.5-.1-.8-.2.1-.2.2-.5.4-.6Z"/>
    <path d="M111.7,97.1c.5,0,.9,0,1.2.1,0,.1,0,.3-.1.4-.4-.2-.8-.3-1.1-.5Z"/>
    <path d="M159,119.8c-.4.2-.7.3-1.1.4,0-.2,0-.4.1-.4.3,0,.7,0,.9,0Z"/>
    <path d="M222.2,177.1c.2-.2.5-.3.6-.2.1.2.1.5.1.7-.2,0-.5-.2-.7-.5Z"/>
    <path d="M193,176.7c.3-.2.7-.2,1-.2-.1.2-.2.4-.3.7-.2-.1-.5-.2-.7-.5Z"/>
    <path d="M310.1,53.7c-.2-.2-.4-.4-.6-.7.2,0,.3-.2.5-.2,0,.3.1.5,0,.9Z"/>
    <path d="M85,73.4c0,.3,0,.7-.2,1-.2,0-.3-.2-.5-.2.2-.3.3-.5.7-.8Z"/>
    <path d="M200.7,199.7c.2.2.4.4.6.6-.1,0-.3.2-.4.3,0-.3-.1-.6-.1-.9Z"/>
    <path d="M135.3,197.7c.4,0,.6,0,.9.1,0,.1-.2.3-.3.4-.2-.2-.5-.3-.6-.6Z"/>
    <path d="M69.1,58.8c.2.3.2.7.1,1,0,0-.3,0-.3,0,0-.3,0-.7.1-1Z"/>
    <path d="M185.7,45.5c-.2-.3-.2-.7-.1-1,0,0,.3,0,.3,0,0,.3,0,.7-.1,1Z"/>
    <path d="M241.6,176.8c.3.2.6.4.9.7-.1,0-.3.2-.3.2-.2-.3-.4-.5-.5-.9Z"/>
    <path d="M215.8,76.7c.3,0,.5,0,.7,0,0,.1,0,.4,0,.4-.3,0-.6,0-.9,0,0,0,0,0,0-.1,0,0,0,0,.2-.2Z"/>
    <path d="M142.9,124.7c.2.1.3.4.4.6-.2,0-.3.1-.5.2,0-.2,0-.5,0-.8Z"/>
    <path d="M258.7,222.6c-.1.2-.4.3-.6.4,0-.2-.1-.3-.2-.5.2,0,.5,0,.8,0Z"/>
    <path d="M254.8,240.9c.3,0,.6.2.8.3,0,0-.2.2-.2.2-.2-.1-.5-.3-.6-.6Z"/>
    <path d="M79.6,127.8c.3-.2.5-.3.8-.4,0,.3,0,.7,0,1-.1.2-.5.3-.8.5,0-.3,0-.7,0-1.1Z"/>
    <path d="M76,125.3c0-.4,0-.7.2-1,.2.1.4.3.6.4-.2.2-.4.5-.7.6Z"/>
  </g>
</svg>