<?xml version="1.0" encoding="UTF-8"?>
<svg id="Layer_1" xmlns="http://www.w3.org/2000/svg" version="1.1" viewBox="0 0 312.6 407.8">
  <!-- Generator: Adobe Illustrator 29.3.1, SVG Export Plug-In . SVG Version: 2.1.0 Build 151)  -->
  <g id="Shape_84">
    <path d="M307.3.7c1.5-.3,2.8-.5,4.2-.7.2,0,.6.5.6.8,0,1.1-.2,2.1-.2,3.2,0,2.1.2,4.2.3,6.4,0,1,.2,2.1.2,3.1,0,.6-.2,1.3-.2,1.9,0,2.6,0,5.2,0,7.8,0,2.9.3,5.7.2,8.5,0,1.9,0,3.7.2,5.6.3,1.7-.3,3.6-.1,5.4.2,3.6-.3,7.2-.5,10.8-.1,2.9,0,5.9,0,8.8,0,1.5.2,2.9.2,4.4,0,9.4,0,18.9,0,28.3,0,1.3-.3,1.5-1.6,1.4-1.2,0-2.4,0-3.5.1-.2,0-.5.2-.7,0-1.3-.7-2.6-.4-3.9-.3-1.3.1-2.7,0-4,0-1.9,0-3.8.2-5.6,0-2.4-.2-4.6,0-6.9.8-.6.2-1.3,0-2,0-.5,0-.9,0-1.4,0-.7,0-1.5,0-2.2,0-.4,0-.9-.2-1.2,0-2.9,1.4-5.9,2.8-8.7,4.4-1.2.7-2.3,1.7-3.3,2.8-1.1,1.1-2.4,1.8-3.7,2.5-.9.5-1.6,1.4-2.4,2-2.3,1.9-4.6,3.8-6.9,5.7-.6.5-1.2,1.2-1.8,1.8-2.1,2-4.2,4-6.3,6-1.2,1.2-2.2,2.6-3.3,3.8-.4.5-1.1.7-1.6,1.1-1.6,1.4-3.1,2.9-4.7,4.4-3.3,3.2-6.5,6.4-9.8,9.5-.4.4-1.1.5-1.5.8-1.5,1.1-2.9,2.3-4.5,3.4-2.7,1.9-5.2,3.9-8.4,5-2.8,1-5.4,2.4-8.1,3.6-1.2.5-2.4.7-3.7,1-3.2.8-6.3,2-9.3,3.4-2,1-3.9,2-6.1,2.5,0,0-.2,0-.2,0-1.1,1.9-3.2,1.7-4.9,2.3-2.3.8-4.6,1.6-6.9,2.3-1.4.5-2.8,1-4.3,1.4-.7.2-1.4-.2-2.2-.2-.7,0-1.5,0-2.2,0,0,0-.2.4-.1.5.3.4,1.1,1,1,1.1-.3.6-.9.5-1.6.5-.9-.1-1.8.1-2.7.2-.3,0-.6-.2-.9-.3.2-.2.4-.3.6-.4.6-.4,1.1-.8,1.7-1.2.2-.1.3-.3.5-.4-.2,0-.5-.2-.7-.1-1.3.4-2.4,1.2-3.2,2.4-.6,1-1.4,2-2.2,2.7-1.1,1-2.4,1.7-3.7,2.5-2.5,1.4-5,2.7-7.4,4.2-.8.5-1.4,1.5-2.1,2.3-.9,1-1.7,2-2.7,2.9-.6.6-1.6.7-2.2,1.3-1.6,1.4-3.1,2.9-4.5,4.5-.8.9-1.4,1.9-2.1,2.8,0,.1-.2.3-.4.3-2,.8-3.4,2.3-4.5,3.9-1.2,1.8-3.1,2.5-4.7,3.8-1.2.9-2.2,2-3.4,2.8-1.9,1.3-3.2,3.1-4.5,4.9-1,1.4-1.6,3-2.7,4.4-2.2,2.9-3.6,6.5-6.2,9.2-.5.5-.7,1.3-.8,2.1-.1,1-1,2.6-1.9,2.6-1.3,0-2.3,1.3-3.7.6-.2,0-.6.3-.9.5.1.2.3.4.4.6.7,1.2,1.3,2.5,2.1,3.7.7,1.1,1.5,2.3,2.4,3.2,2.2,2.3,3.6,5,5,7.7.8,1.6,2.1,3,3.3,4.4,1,1.2,2.4,2.2,3.2,3.5,1.1,1.9,2.7,3.6,3.6,5.5,1.4,3,3.5,5.4,5.1,8.2,2,3.4,4,6.9,6.9,9.8,1,1,1.4,2.4,2.1,3.7.7,1.3,1.3,2.8,2.3,3.9,1.3,1.4,1.9,3,2.8,4.6,1,1.8,2.2,3.6,3.2,5.4,0,0,.2.1.2.2.8,3.3,3.5,5.6,4.8,8.6.6,1.3,1.5,2.5,2.5,3.7,1.4,1.7,2.1,3.7,3.1,5.6,1.5,2.8,3.1,5.7,4.5,8.6,1.5,3,3.2,5.8,4.2,9.1.4,1.5,1.5,2.8,2.2,4.2.1.2.2.5.2.8-.2,2.1,1.2,3.7,1.9,5.4.2.6.5,1.2.6,1.8.4,2.2.8,4.4,1,6.6.2,2.2,0,4.5,0,6.8,0,1.6-.1,3.2-.2,4.7,0,.5-.3.9-.5,1.3-.3.9-.8,1.7-1,2.6-.6,1.8-.9,3.6-1.6,5.3-.9,2.1-2.1,4-3.1,6,0,.1,0,.3-.1.3-1.1,1.1-2,2.4-2.8,3.8-1,1.6-2.5,3-3.8,4.4-.8.9-1.6,1.9-2.5,2.7-1.9,1.8-3.9,3.5-5.9,5.1-.6.5-1.6.6-2.2,1-1.4.9-2.5,2.3-4,2.9-1.9.7-3.1,2.1-4.6,3.4-.6.5-1.6.6-2.4.9-2.1.9-4.3,1.7-6.4,2.6-2.6,1.1-5.2,2.4-7.9,3.5-1.3.5-2.7.8-4,1.1-.2,0-.4,0-.6.2-.8.9-1.7.6-2.7.4-.8-.1-1.8-.2-2.4.3-1.5,1-3.3.7-4.9,1.2-1.7.5-3.6.6-5.4.9-.2,0-.4.2-.7.2-2.3,0-4.7.1-7,.3-1.1,0-2.2.2-3.2.5-1.9.5-3.4-.1-5.1-.8-.4-.2-1,0-1.5,0-2.9,0-5.9,0-8.8,0-.2,0-.5-.2-.7-.2-2.4.2-4.5-1-6.9-1.3-1.7-.2-3.3-.8-5-.3-.5.1-1.4,0-1.8-.5-1.1-1.3-2.6-1.2-4-1.6-1.7-.4-3.3-.9-5-1.5-1.1-.4-2.1-.8-3.2-1.3-2.8-1.3-5.7-2.5-8.5-3.8-2.5-1.2-5-2.4-7.3-3.9-2.8-1.9-5.9-3.3-8.1-6-1.2-1.5-2.9-2.5-4.2-4-2.5-3-5.6-5.3-7.9-8.4-.6-.8-1-1.8-1.6-2.6-.4-.5-.9-1.1-1.5-1.3-1.9-.5-2.8-1.9-3.8-3.4,0,0,0,0,0-.1,0-.6.1-1.3.2-1.9.4.3.7.7,1.1,1,0,0,0,0,0,0,.5.3.9.9,1.4.8.5,0,.4-1.6-.2-2.2-1.4-1.4-1.8-3.1-2.1-5-.2-1.2-.7-2.3-1-3.5,0-.2,0-.5,0-.7,0-.9.3-1.9,0-2.6-1.1-2.2-.6-4.2,0-6.3.5-1.9.5-3.9.9-5.9.3-1.4.9-2.8,1.3-4.2.2-.6.2-1.3.3-1.9,0-.3,0-.5.1-.8.9-1.9,2.2-3.8,2.8-5.8,1.2-4.2,3.3-7.8,5.2-11.6,1.5-3.2,2.8-6.4,4.4-9.5.8-1.8,1.6-3.7,3.5-4.6.1,0,.3-.5.2-.6-.5-.9-.2-1.6.3-2.3.7-1.1,1.2-2.3,1.8-3.4.4-.7,1.2-1.3,1.6-2,.6-1,1.2-2,1.5-3.1.8-2.3,2.3-4.1,3.6-6.2,1.8-2.9,3.3-5.9,4.9-8.9,1-1.7,2-3.3,3-5,1.5-2.5,2.9-5.2,4.6-7.6,1.2-1.6,2.1-3.3,2.8-5.2,0-.2.3-.4.5-.5,1.5-.9,2.4-2.3,3.1-3.9.7-1.6,1.7-3,2.7-4.4.8-1.2.8-2-.3-2.8-.8-.5-1.3-1.9-.7-2.2.7-.3,1.6-.3,2.4-.2.5,0,1.3.7,1.4.6.7-.7,1.6-1.5,1.8-2.4.3-.9.6-1.7,1.2-2.4.7-.8,1.2-1.9,1.8-2.8,1.3-1.8,2.9-3.5,4.1-5.4.9-1.4,1.4-3,2.1-4.5.1-.3.3-.7.6-.9,1.5-1.4,2.7-3,3.5-4.9,0-.2.3-.4.5-.6,1.1-1.1.8-1.9-.3-3-1.5-1.4-3.1-.9-4.8-.6-.7.1-1.9,1.1-2.1-.6,0-.1-.6-.3-.9-.3-1.7.2-2.2,0-2.6-1.7-.6-2.9-1.1-5.7-1.8-8.5-.6-2.5-1.5-4.9-2.2-7.4-.7-2.4-1.1-4.9-1.1-7.4,0-.6-.2-1.2-.4-1.7-.6-1.8-1-3.6-1.4-5.4-.6-2.6.2-5.4-1.5-7.8-.4-.6-.4-1.5-.4-2.2-.2-2,0-4.2-1.2-6,0,0,0,0,0,0,.3-2-.4-3.9-.8-5.8-.1-.7-.3-1.5-.4-2.2-.1-1.2-.2-2.4-.4-3.6-.3-2.1,0-4.3-1-6.2-.2-.3,0-.8,0-1.1-.3-3.4-.6-6.8-1-10.1-.4-3-.7-6-1.3-9-.6-2.7-1.5-5.3-2.3-8-.3-1-.3-2.1-.5-3.1,0-.5-.5-1-.5-1.4,0-1.8.2-3.6.3-5.4.1-1.9,1.1-3.6,1.9-5.2,1.5-2.8,3.1-5.5,5.7-7.6,1.2-.9,2.1-2.2,3-3.5,1.8-2.5,3.9-5,5.1-7.8,1.2-2.7,3.9-4.1,4.8-6.9.3-.9,1.2-1.7,1.2-2.6,0-1.6,1.1-2.1,2.2-3,1-.7,1.5-2.1,2.1-3.3,1.7-2.7,3.3-5.5,4.9-8.3.2-.4.5-.8.5-1.2-.2-1.1.5-1.7,1.2-2.2,2.2-1.5,2.9-3.8,3.9-6,.5-1,1.1-1.9,1.2-3.1,0-.7,1.4-1.3,1.9-2.1,1.4-2.5,2.6-5,3.8-7.6,1-2,1.9-4.1,2.8-6.1.8-1.8,1.7-3.6,2.5-5.4.9-1.7,1.8-3.4,2.7-5.1.6-1.3,1-2.8,1.7-4.1.7-1.3,1.8-2.4,2.7-3.6,1.3-1.6,2.6-3.2,4.1-4.5,1.3-1.1,2.9-1.8,4.4-2.5,1.8-.8,3.6-1.5,5.5-2.1.8-.3,1.7-.2,2.5-.5,1.5-.6,3-.7,4.6,0,.7.3,1.6,0,2.4-.2,1.7-.3,3.2.7,4.8,1,.1,0,.3.2.4.2,3.8,0,7.1,2.4,11,2.1.1,0,.3,0,.4,0,1.9,1.4,4.3,1.1,6.3,1.9,2.9,1.1,6,1.3,9,1.6,1.5.2,2.9.5,4.4.7.3,0,.8,0,1-.3.7-.8,1.3-.5,1.9,0,1.8,1.4,3.7,1.7,5.9.9.4-.1.9-.1,1.2,0,2.4,1.1,4.9,1.4,7.4,1.4,3.1,0,6.2.1,9.3.3,1.5,0,2.9.4,4.4.5,1.9,0,3.8-.3,5.7-.2,2.4.1,4.8.6,7.2.7,1.8,0,3.7-.3,5.5-.4.4,0,.9-.2,1.3-.2,2.5,0,5.1,0,7.6,0,.4,0,.9-.3,1.3-.4.5-.1,1-.2,1.4-.3,1-.1,2-.2,2.9-.3,1.2,0,2.5,0,3.8,0,.4,0,.8-.1,1.2-.2,1.1-.3,2.3-.6,3.4-1,1.5-.6,2.9-.7,4.3,0,0,0,.3-.1.4-.2,1.5-1,3.2-1,4.8-1.3,1.7-.3,3.4-.3,5-.5,2.9-.4,5.8-.8,8.8-1.3.8-.1,1.7-.4,2.5-.8,1.1-.6,2.2-.7,3.3-.2.2,0,.5,0,.6,0,2.8-1.6,5.9-1.6,8.9-1.8,1.3,0,2.5-.8,3.8-1,1.9-.4,3.8-.6,5.7-1,2.3-.5,4.9.1,7-1.1,2.5-1.4,5.3-.9,7.9-2,.4-.1.8,0,1.3,0,.9-.1,1.7-.4,2.6-.5.8-.2,1.7-.3,2.5-.5,1.7-.3,3.5-.5,5.1-1.1,1.7-.6,3.3-.8,5.2-1M99.4,364.1c-.2,0-.4.1-.5.3-1.5,1.4-2.9,3-4.5,4.2-1.7,1.2-3.1,3-5.4,3.2-.2,0-.4.4-.4.5,0,1,0,2,0,3,0,.4.4.7.7,1.1.3-.3.6-.5.8-.8.2-.5.5-1.1.5-1.7.1-1.2.8-1.7,1.6-1,1.1.9.9.2.9-.5,0-.9,1.3-2.7,2.1-2.7,1.4,0,2.7-.3,3.8-1.3.4-.4,1-.8,1.4-1.1-.5-.1-1-.3-1.6-.4-.5-.1-.9-.1-.4-.8.4-.5.6-1.2,1-1.8.2-.1.4-.3.6-.4,0,0-.2-.2-.3-.3-.1.2-.3.5-.6.7M120.9,86.7c.2,2.2.6,4.4.4,6.6-.2,2.5.7,3.5,3.1,2.9,1.2-.3,2.1-1.1,3-1.9,1.7-1.5,3.8-2.6,5.6-4,.7-.6,1.4-1.3,1.9-2.1.9-1.6,1.2-3.5,1.3-5.3,0-1.5.4-3.1.5-4.6.2-2.2,2-4,1.8-6.4,0-.2.6-.5.9-.7.5.9,1.5,1.8,1.5,2.6,0,2.5-.4,5.1-.7,7.6-.1,1-.5,2.1-.5,3.1,0,2.3.2,4.5.2,6.8,0,.6-.3,1.2-.2,1.8.4,1.8.5,3.5.3,5.3-.2,1.6.2,3.3.2,5,0,4.6.2,9.1,1,13.6.3,1.8,1.5,2.5,3.1,1.8.4-.2,1-.2,1.4-.4.9-.6,1.9-1.1,2.7-1.8,1.4-1.1,1.8-3.7,4.4-3,0,0,.2-.2.4-.3.5-.3,1.1-.7,1.7-.9.7-.4,1.5-.6,2.3-1,1.3-.6,2.2-2.2,3.9-1.9.2,0,.3-.2.5-.2.8-.2,1.6-.6,2.4-.7.4,0,1.2.3,1.2.5,0,.6.5,1.4-.5,1.8-4.2,1.7-7.4,4.9-10.8,7.7-3.2,2.6-6,5.6-9,8.4-2.1,2.1-4.2,4.2-6.3,6.3-.5.5-1.1,1-1.7,1.4-1.2,1-2.3,2.2-3.6,3-2,1.3-4.2,2.4-6.2,3.7-1.3.8-2.2,2.2-3.5,3-1.7,1.1-3,2.4-4.2,3.9-.3.3-.8.5-1.2.7-1.1.6-2.4,1.1-3.4,2-1.4,1.2-2.4,2.6-3.7,3.9-1.4,1.3-2.9,2.5-4.3,3.8-.6.6-1.2,1.2-1.7,1.9-.8,1.2-1.4,2.5-2.2,3.7-1.4,2.1-3.2,4.1-4.5,6.3-2.7,4.6-5.2,9.4-7.8,14.1-1.2,2.3-1.2,4.9-1.1,7.4,0,1.3.1,2.6.2,4,0,.9.3,1.8.2,2.7,0,.7-.2,1.4-.5,2.1-.3.8-.9,1.6-1.2,2.4-1,2.9-1.9,5.7-2.9,8.6-.3,1-.2,1.8.4,2.6,1,1.3,2.6,1.8,3.9,2.6,2.3,1.6,5,2.2,7.5,3.2.5.2,1,.4,1.6.5,1,.1,1.9.3,2.5-.9.9-1.7,1.9-3.3,2.9-4.9,1.4-2.3,3-4.5,4.4-6.8.7-1.1.8-2.6,2.2-3.1,0,0,0-.1.1-.2,1.1-1.3,2.1-2.6,3.2-3.9.9-1,1.9-2,2.9-2.9,1.7-1.5,3.5-3,5.3-4.3,1-.7,2.1-1.2,2.9-2.3.6-.9,1.6-1.6,2.5-2.3,1-.8,1.2-2.3.2-3.2-1.5-1.5-3.1-3-4.5-4.6-.3-.4-.6-1.1-.5-1.5.3-1.4,2.2-1.9,3.2-.8,1.3,1.3,2.5,2.6,3.7,3.9.9,1,2.5,1.4,2.9.5,1.1-2.6,3.5-4.1,5.5-5.8,2.7-2.3,5.8-4.1,8.8-6.1,1-.7,1.9-1.3,2.8-2.1.9-.8,1.9-1.5,2.7-2.4.5-.6.9-1.2,1.8-1,.2,0,.6,0,.8-.3,1.2-1.1,2.2-2.3,4.2-2.2,1.9,0,3.5-1.2,5.5-1.5,2.5-.3,4.9-1.3,7.3-2.1,1.7-.6,3.3-1.4,5-2.1,1.9-.9,3.7-1.8,5.6-2.8,1.4-.7,2.7-1.6,4-2.3,1.9-1,3.9-2,5.4-3.7.7-.8,1.7-1.3,2.5-1.9,1.1-.8,2.4-1.2,3.2-2.5.5-.8,1.2-1.6,2-2.2,1.4-1.2,3.1-2.1,4.4-3.5,3.1-3.2,6-6.5,8.9-9.9,1.7-2,3.1-4.1,4.7-6.2.2-.2.5-.4.7-.6.1.3.3.6.3.9-.1,1.6-.7,2.9-1.4,4.4-1.8,3.6-4.4,6.6-6.6,9.9-1.2,1.8-3,3.1-4.2,4.9-1.3,2-3.1,3.4-4.7,5.1-.1.2-.3.3-.4.5,0,.2-.1.5,0,.7,0,.1.4.2.6.2.5,0,1.1,0,1.5-.3,1.4-.6,2.8-1.1,4.1-1.8.6-.3,1-.8,1.7-1,1.6-.6,3.2-1.4,4.7-2.3,1.4-.8,2.7-1.6,3.9-2.5,2-1.5,4-2.9,5.9-4.5,1.3-1.1,2.4-2.3,3.5-3.5,1.5-1.5,2.8-3.1,4.4-4.5,1.8-1.6,2.9-3.8,5.1-5.2,2.5-1.6,4.5-4,6.5-6.2,1.4-1.5.4-3.4.4-5.1,0-.3-.2-.8,0-1,.7-1.3,2.2-1.8,3.7-1.4,1.1.3,2.3.8,3.3.5,1.5-.3,3.1-1,3.8-2.7.1-.3.4-.6.7-.8,2.4-2.1,4.9-4.2,7.3-6.3.4-.3.8-.9,1.3-1,2-.4,3.4-1.6,4.8-3,1.1-1.1,2.3-2.4,4-2.6.2,0,.5-.3.7-.4.7-.7,1.4-1.4,2.4-1.9,2.2-1.3,4.3-2.9,6.5-4.3,2.3-1.5,4.7-2.8,7-4.2,3.4-2,6.7-4,10.1-6,.2-.1.5-.4.7-.4.6,0,1.3.2,1.9.2-.2.5-.3,1.1-.7,1.6-1.1,1.3-2.4,2.1-4,2.9-1.8.8-3.2,2.3-4.8,3.4-2.4,1.6-4.8,3.1-7.2,4.7-.4.3-1,.9-.9,1.2.1.5.7,1.1,1.2,1.2,1.1.2,2.2,0,3.3,0,2.5,0,5,0,7.4,0,1.3,0,2.5-.2,3.8-.2,1,0,2.1-.2,3,0,1.9.5,3.6,0,5.4-.3.9-.2,1.4-.6,1.3-1.7-.2-1.8-.2-3.6-.3-5.4,0-1.2,0-2.5,0-3.7,0-2.5-.2-5-.2-7.4s.2-5,.2-7.4c0-1.3-.4-2.7-.5-4,0-2.9.1-5.9.2-8.8,0-.4.2-.7.2-1.1,0-1.7,0-3.3,0-5,0-3.6,0-7.1,0-10.7,0-.4.1-.8.1-1.2-.2-2.6-.3-5.3-.5-7.9,0-.9,0-1.9,0-2.8s0-2.6,0-3.9c0-.6.2-1.3.2-1.9,0-.9-.4-1.8-.4-2.7,0-1.9.4-3.8.5-5.8,0-1.7-.7-2.6-2-2.5-1.8.1-3.6.3-5.4.5-.4,0-.7.3-1.1.4-.6.2-1.3.6-1.9.5-1.9-.2-3.8.2-5.5.9-2.2,1-4.5,1.3-6.9,1.2-.3,0-.5,0-.8,0-1.5.4-2.9.9-4.4,1.2-2,.4-4,.7-5.9,1.1-.8.2-1.9.9-2.4.7-1.4-.7-2.3,0-3.5.3-1,.3-2,.5-2.9.7-.5.1-1.1.3-1.6.3-.6,0-1.3-.3-1.9-.2-1.9.4-3.5,1.4-5.5,1.4-1.1,0-2.2.8-3.5.3-.4-.1-.9.1-1.4.2-1.3.3-2.7.7-4,1-1.4.3-2.9.1-4.2.6-1.5.6-3,.8-4.6.7-.6,0-1.3.2-1.9.3-1.7.4-3.4.9-5.1,1.1-2.6.3-5.3.4-7.9.5,0,0-.2,0-.3,0-1.5.8-3.1.7-4.6.8-.9,0-1.8.2-2.8.4-1.3.3-2.6.7-4,.8-1.9.2-3.7.2-5.6.3-.6,0-1.4-.2-1.9,0-1.7.9-3.5.6-5.3.8-4,.4-7.9.8-11.9.7-1,0-1.9.3-2.9.2-1.4,0-2.7-.3-4.1-.5-1.8-.2-3.5-.8-5.4-.3-.8.2-1.8,0-2.8,0-2.1-.3-4.2-.6-6.2-.9-1.7-.3-3.3-.6-5-.8-1.1-.1-2.2-.1-3.3-.2-.4,0-.9,0-1.2-.2-.6-.6-1.2-.7-2-.8-1.4-.2-2.8-.7-4.2-.9-1.2-.2-2.6-.3-3.8,0-1.1.3-2,.1-2.8-.5-1-.8-2.1-1-3.4-1.1-.8,0-1.5-.4-2.3-.7-.3,0-.6-.3-.9-.3-3.1-.2-6.1-.3-9.2-.5-1.1,0-2.3-.2-3.4-.2-1.2,0-2.4,0-3.5.2-1.1.2-2.1.9-3.2,1.2-2.5.7-4.9,1.4-6.8,3.3-1.3,1.4-2.9,2.7-4,4.3-1.1,1.6-1.6,3.6-2.6,5.3-1.9,3-3.3,6.1-4.2,9.6-.6,2.4-1.7,4.7-2.6,7.1-.5,1.5-1,3-1.5,4.5-.6,1.6-1.3,3.1-2,4.6-.8,1.7-1.5,3.5-2.3,5.1-1,2-2.3,3.8-3.4,5.7-.7,1.1-1.1,2.4-1.9,3.4-1.8,2.4-4,4.6-5.5,7.3-1.2,2.1-2.8,3.9-4.3,5.9-.4.5-1,.9-1.1,1.4-.1.9-.5,1.3-1.2,1.7-.5.3-1,.8-1.4,1.3-2.9,4.3-5.9,8.5-8.7,12.8-1.6,2.6-2.8,5.5-4.1,8.2-1,2-2.1,3.9-2.8,6-1,3.1-1.2,6.3-1.1,9.5.1,3.7,0,7.5,0,11.2s0,.7,0,1c0,2,0,4.1-.2,6.1-.2,1.9-.8,3.8-1.1,5.6-.1.8.3,1.6.2,2.4-.3,3.6-.6,7.3-1,10.9-.2,2-.6,3.9-.8,5.9,0,1,0,2,.3,2.9.3,1.2.9,2.3,1.3,3.4,1.1,2.9,2.2,5.8,3.4,8.7,1.4,3.3,2.8,6.6,4.2,9.8.8,2,1.4,4,2.4,5.9,1,1.9.9,4.1,2.1,6,1,1.7,1.7,3.6,2.5,5.5.3.7.6,1.5.7,2.2.1.9.5,1.4,1.5,1.5,1.7,0,3.3-.3,4.8-1,2-.9,3.8-2,4.8-3.9.7-1.4,1.3-2.8,1.8-4.4,1-3.5,1.7-7,1.7-10.6,0-.4.2-.8.2-1.2,0-2.7-.1-5.5-.4-8.2-.2-2.1-.6-4.2-.9-6.2,0-.4,0-.8-.2-1.2-.4-2-1-4-1.3-6.1-.2-1.6-2.8-3.7-4.5-3.3-1.1.3-2.3.7-3.4,1-.9.3-2.9-.7-2.8-1.5,0-1.2,1-1.3,2-1.3,0,0,0,0,.1,0,1.4-.7,2.8-1.4,4.3-1.9.5-.2,1-.2,1.5,0,1.1.2,2.6-.3,2.9-1.1.3-.7.6-1.4.8-2.1.5-2,1-4.1,1.6-6.1.3-1.1.9-2.1,1.4-3.1.3-.7.7-1.4.9-2.2.2-.9.1-1.8.2-2.8.2-1.6.4-3.2.5-4.7,0-.6-.3-1.3-.2-1.9.4-1.9,1.2-3.8,1.1-5.8,0-.8.2-1.6-.4-2.4-.7-1.1-1.4-2.2-2.2-3.2-.8-1-1.9-1.8-2.7-2.8-.4-.4-.6-1.3-.5-1.8.2-.9,1-.3,1.6-.2,1.5.3,2.9.5,4.4.8.8.2,1.8.2,2.4.6.8.6,1.3.2,1.8-.2,1.6-1.5,3-3,5.1-3.9,1.3-.6,2.3-2,3.4-3,.3-.3.7-.5,1.1-.8,2.2-2.2,4.4-4.4,6.6-6.6.3-.3.5-.6.7-1,.8-1.2,1.5-2.4,2.3-3.5.7-1,1.6-2,2.2-3,1-1.7,1.9-3.5,1.2-5.7,0-.3,0-.6.1-.9.4-1.7,1.2-3.4,1.3-5.2.2-3.1-.1-6.2-.2-9.2,0-.2,0-.5.2-.7.3-.3.6-.6,1-.9.3.4.7.7.8,1.2.5,1.4.9,2.9,1.3,4.6M106.3,139c1.1.2,2.3.3,3.3.5.8.2,1.4.1,1.9-.5,1.6-1.8,2.9-3.8,3.5-6.2.3-1.4.3-2.8.6-4.2.3-1.7-.4-2.8-1.6-4-.8-.8-1.2-1.9-1.7-3,0-.2.2-.8.3-.8,2,0,4,0,6,.4,1.7.2,3.4,1.2,4.7-.8,0-.1.4-.2.5-.3,2.4-1.8,5.4-2.8,7.3-5.3.4-.5.8-1.1,1.2-1.7.8-1.4,1.6-2.7,2.3-4.1.2-.5,0-1.2-.1-1.9,0-.7,0-1.3,0-2-.3-1.8-1-3.5,0-5.3.3-.5.3-1.2.3-1.8,0-.6,0-.9-.9-.7-1.3.2-2.2.9-3.2,1.5-2.1,1.3-4.7,1.9-6.4,3.9-.3.3-.8.3-1.1.6-.4.3-.8.6-1.1.9-1.5,2-2.9,4-4.4,5.9-1.2,1.5-2.4,3-3.7,4.4-1.2,1.3-2.4,2.6-3.7,3.8-2.5,2.3-5,4.5-7.5,6.8-.8.7-1.5,1.4-2.3,2.1-1.5,1.4-3.1,2.7-4.6,4.2-.4.4-.8,1-.8,1.5,0,2-.3,4-.7,5.9-.7,2.9-1,6-2.4,8.7-.1.2-.2.4-.2.7,0,2,.2,3.9-1.2,5.8-.7,1-.6,2.6-.9,3.9,0,.3-.2.5-.3.8-.5,1.1-1.1,2.2-1.3,3.4-.6,2.4-1.4,4.8-.9,7.3,0,.5.2,1,.2,1.5.2,2.4.3,4.9.6,7.3,0,.5.5,1.1,1,1.4.2.1.9-.4,1.2-.8,1.7-2.4,3.4-4.7,4.8-7.2,1.3-2.3,2.5-4.6,3.5-7.1.4-.9.3-1.9,1-2.8.9-1.1,1.8-2.4,2.4-3.7.4-.9.5-2,1.5-2.7.9-.6,1.8-1.3,2.4-2.2,1.3-2,2.6-4,3.6-6.1,1-2.3.6-2.8-1.7-3.6-.7-.2-1.3-.7-1.9-1.1-.3-.2-.6-.5-.9-.6-1.2-.2-1.8-.9-2.1-2,0-.3-.1-.7,0-.9.2-.2.6-.4,1-.4.9,0,1.8.3,3,.5M52.2,127.6c0-.7,0-1.4,0-2.1,0-.9,0-1.8,0-2.7,0-.3-.3-.9-.4-.8-1.4.5-.3-.5-.3-.6,0-.3.4-.6.5-.9.3-1.3.5-2.6.9-3.8.6-1.7,1.4-3.3,1.9-5.1.8-3.2,2.5-5.9,4.1-8.8.7-1.3,2-2.4,2.4-3.8.4-1.3,1.2-1.9,1.9-2.8.4-.4.8-.8,1.1-1.2.8-1.3,1.2-3,2.2-4,1.7-1.7,2.9-3.8,4.2-5.8,1.9-2.8,3.9-5.6,5.8-8.4,1.4-1.9,2.7-3.9,4.1-5.8,1.7-2.3,3.6-4.4,5.1-6.8,2-3.2,3.6-6.5,5.4-9.9.5-.9.8-1.8,1-2.8.1-.7.2-1.3.7-1.9.6-.7.8-1.7,1.1-2.6,1.2-3.3,1.7-6.9,3.5-10,.3-.5.2-1.2.3-1.8,0-.4-.1-.9,0-1.2.7-1.4,1.4-2.8,2.2-4.2,1.1-1.9,2.2-3.7,3.4-5.5,1.8-2.6,3.6-5.3,6.4-7,1.4-.8,2.7-1.7,4.1-2.5.2-.1.6.2.9.3.3,0,.6,0,.9.1-.1-.3-.1-.9-.3-1-.6-.3-1.4-.5-2.1-.5-1,0-2.1.5-3.1.4-2-.2-3.3.9-4.6,2.1-1.5,1.4-2.8,3-4.4,4.3-2.4,2-3.7,4.8-5.2,7.4-1.4,2.5-2.4,5.1-3.6,7.7-.8,1.7-1.5,3.4-2.3,5-1.1,2.4-2,4.8-3.2,7.1-1.3,2.6-2.9,5.1-4.2,7.7-1.4,2.8-2.8,5.5-4.8,8-.8.9-1.4,1.9-2.1,2.9-.3.5-.5,1-.8,1.5-.5.7-1.1,1.2-1.5,1.9-1.8,2.8-3.5,5.7-5.3,8.5-1.6,2.6-3.3,5.2-4.9,7.8-1.2,1.9-2.3,3.9-3.5,5.8-.6.9-1.2,1.7-1.8,2.6-1.1,1.4-3,2.2-3.3,4.2,0,.2-.3.3-.4.4-1,1.1-2.3,2.1-3.1,3.3-1.1,1.7-2.4,3.4-3.7,5-1.2,1.4-2.8,3-2.4,5.2,0,.4.2.9.3,1.3.5,2.6,1,5.3,1.4,7.9.2,1.3.4,2.6.6,4,.1,1.1,0,2.3.2,3.4.4,1.9,1.2,3.7,1.5,5.6.3,1.5.2,3.1.3,4.7.1,2.6.1,5.1.3,7.7,0,.8.4,1.6.5,2.5,0,1.4,0,2.8,0,4.1,0,.7.7,1.2,1.5,1.1,1.1,0,.5-.7.5-1.2,0-.3,0-.5,0-.8.2-2.6.4-5.2.5-7.8,0-2.9,0-5.8,0-8.7,0-2.8,0-5.7-.2-8.6M133.8,129c1.2-1.3,2.4-2.7,3.7-3.9,1.2-1.1,1.3-1.9.6-3.3-.5-1.1-.8-2.3-1.1-3.5-.2-1.1-1.1-1.7-2-1.1-.8.5-1.5,1.2-2.1,1.9-1.5,1.6-2.6,3.4-4.6,4.4-1.5.8-2.9,1.7-4.4,2.5-1.1.6-2.4,1.3-2.6,3-.3,2-.7,4-1,6.1-.1.6-.3,1.2-.6,1.6-1.1,1.6-2.3,3.2-3.5,4.8-.2.3-.4.8-.3,1,.3.4.9.8,1.2.7.6-.2,1.1-.7,1.5-1.2.4-.4.6-1.1,1-1.5,2.2-1.9,4.4-3.7,6.6-5.6.3-.3,1-.5,1.3-.4.6.3.6,0,1-.4,1.7-1.8,3.5-3.5,5.4-5.3M43.1,280.3c.3,0,.5,0,.8,0-.1-.2-.2-.3-.4-.5-.2-.2-.4-.4-.5-.6.3,0,.5-.1.8-.2,1.7-.3,3.3.4,4.9.8.8.2,1.5,1,2.3,1.6-.4.4-.9.8-1.2,1.3-.7.9-1.4,1-2.2.2-.4-.4-.8-1-1.2-1.4-.2-.2-.7-.3-.7-.2-.2.3-.5.7-.4,1,0,.4.5.6.7,1,1.1,1.9,1.5,1.4.3,3.6-.2.3-.2.7-.2,1,.3-.1.7-.2,1-.4.7-.4,1.2-.8,2-.2,1.7,1.3,3.5,1.3,5.3.3.5-.3.9-.9,1.3-1.4-.5-.4-.9-.8-1.4-1.1-.7-.4-1.4-.6-1.4-1.6,0-1,0-2.1-.5-2.8-.9-1.4-2.2-2.6-3.4-4-.8-.9-1.6-.9-2.5-.3-.7.5-1.3.4-1.8-.2-.4-.5-.8-1-1.1-1.6-.1-.2,0-.6,0-1,0-.2,0-.5-.2-.5-.9-.3-2.5.7-2.7,1.6,0,.1.3.4.3.4.9-.3,1.1.2,1.1.9,0,.5-.2,1.1-.3,1.7-.3-.4-.6-.8-1-1.1-.5-.4-1-.8-1.5-.8-.3,0-1,.7-.9,1.1,0,.5.5,1.1,1,1.4,1.2.7,2.5,1.3,3.9,2.1M54.7,186.2c-.1.9.4,1.1,1.2,1.1.2,0,.4,0,.5,0,0,.2,0,.4-.1.5-.9.6-.6,1.6-.5,2.3.3,2.1,1.1,4.1,1.1,6.2,0,1.7.9,3,1.3,4.3.8,2.2.8,4.4,1.3,6.6.3,1.4.6,2.8,1.3,4,.3.5,1.5.6,2.4.7.3,0,.9-.8.8-1.1-.2-1.5-.5-3-1-4.4-.4-1-1.3-1.6-1.1-3.1.2-1.3-.8-2.7-1.3-4.1-.4-.9-1.2-1.7-1.3-2.6-.2-2.8-.7-5.5-1.8-8.2-.9-2.2-1.1-2.5-2.8-2.3M102.8,359.9c-.5.6-1,1.2-1.5,1.9,0,0,0,.4,0,.4.2,0,.5,0,.7,0,.7-.4,1.3-1,2-1.4,2.9-2,5.8-3.9,8.1-6.6.1-.2.3-.3.4-.5.9-.9,1.7-1.7,2.6-2.6.2-.2.1-.6.2-1-.3.1-.8.1-1,.3-1.2,1.1-2.3,2.4-3.5,3.5-.9.9-1.9,1.7-2.9,2.4-1.6,1.2-3.2,2.2-5,3.5M69.3,302.4c.7.3,1.4.7,2.1,1,.2,0,.5-.3.8-.4-.2-.2-.4-.4-.7-.6-.5-.3-1.1-.4-1.5-.7-2.3-2.1-2.2-1.7-4.5-.4-.9.5-1.6.7-2.5,0-.2-.1-.8,0-.8,0-.3,1.5-1.4,1.3-2.4,1.5-.6,0-1.2.4-1.7.7,0,0-.1.5,0,.6.7.4,1.2,1.1,2.3.6.8-.4,1.8-.3,2.7-.6,1-.3,1.8-.9,2.8-1.3,1.1-.5,2.1-1.2,3.5-.2M8.2,367.4c-.2,0-.4,0-.6,0-.7-.5-1.3,0-1.5.5-.3.6.1,1.1.8,1.3.5.2,1,.4,1.4.6.6.3,1.1.7,1.6,1.1-.4.3-.8.6-1.2,1-.2.2-.4.5-.3.6.2.4.5.8.7,1.2.2-.2.5-.3.7-.5.6-.6,1.1-1.1,1.7-1.7.6-.6,1.4-1.2,1.9-1.8.2-.2.2-.9,0-1.1-.2-.2-.8-.3-1.1-.1-1.4.5-3,.3-4.1-.8M122.4,332.1c-.6.5-.9,1.2-.1,1.6.7.4,2.4-.8,2.4-1.7-.1-1.1.6-1.8,1.4-2,1.6-.5,2.7-1.6,3.8-2.7.4-.3,1.1-.7.5-1.3-.5-.6-1-.1-1.5.3-1,.8-2.1,1.5-3.1,2.3-1.3.9-2.9,1.5-3.4,3.4M125.5,378.4c-.9,1.6-.6,2.9.8,3.1.9.1,1.9,0,2.8-.4,1.5-.6,1.6-1.4.4-2.4-.4-.4-1.1-.6-1.6-.6-.8,0-1.5.1-2.4.3M138.7,367.5c.2-.3.3-.5.5-.8-.3,0-.6-.2-.8,0-.4.1-.8.3-1.1.6-.5.4-.8,1-1.6.4-.1,0-1,.5-1,.7.1,1-.6,1.4-1.1,2-.2.3,0,.9,0,1.3,0,.2.6.4.8.3,1,0,2.7-1.8,2.9-2.8.2-.6.7-1,1.2-1.7M142.7,365.8c-.3,0-.6,0-.8.3-.4.4-.7.9-1.1,1.3.3.2.6.4.9.5,1.1.3,2.2.5,3.4.7,1,.2,1.4-.6,1.2-1.4-.1-.5-.7-1.2-1.2-1.4-.6-.2-1.4,0-2.4,0M193.8,21.9c.4,0,.9.3,1.3.2,1.5-.2,2.9-.5,4.4-.7.2,0,.3-.2.5-.3,0-.1-.2-.3-.3-.4-1.1-.8-2.4-.8-3.7-.7-1.2.2-2.4.6-3.5.9-.3,0-.5,0-.8.1.3.2.6.5.9.6.3.1.7.2,1.3.3M109.3,362.8c.1,0,.3,0,.4,0,1.8-1.8,3.6-3.6,5.3-5.5.1-.1,0-.5,0-.8-.2.1-.5.2-.7.3-1.9,1.8-3.9,3.5-5.8,5.3-.4.4-.9.7-1.3,1.1.6-.1,1.3-.3,2.2-.4M76.6,364.4c.1.4,1.5,1.3,1.7,1.1.1-.2.2-.6,0-.8-.4-.7-.5-1.2.3-1.7.3-.2.5-1,.3-1.2-.4-.5-1-1-1.5-1-.5,0-1.2.7-1.3,1.2-.1.7.2,1.5.4,2.4M90.2,304c.4,0,.9,0,1.3,0-.2-.3-.3-.6-.5-1-.1-.3-.4-.6-.3-.8.1-.2.5-.5.8-.5.5,0,1,0,1.5,0,.2,0,.5-.3.6-.6,0-.2-.2-.6-.4-.6-.9-.1-1.9-.3-2.8-.2-.5,0-1.3.8-1.3,1.1,0,.9.6,1.7,1.1,2.6M12.6,353.4c-.3-.2-.6-.4-.9-.5-1.5-.3-2.5.8-3.8,1.2,0,0,0,.6,0,.7,1,.9,4.2,0,4.7-1.4M112.1,370.2c.7-.3,1.5-.6,2.2-1,.5-.3.4-.7,0-.9-.6-.3-1.3-.5-2-.7-.8-.1-2.1,1-2.1,1.8,0,.2.4.6.6.7.3.1.7,0,1.3,0M155.4,368.6c.3-.6.6-1.1.9-1.7-.6-.1-1.2-.3-1.7-.4-.2,0-.5,0-.6,0-.5.3-1.2.6-1.4,1-.1.3.3,1.1.7,1.4.6.4,1.4.4,2.1-.4M70,279.4c.2-.8-.4-1.4-.9-1.3-.7.1-1.4.7-2,1.2-.2.2,0,.8,0,1.1.2.4.8.9.9.8.7-.4,1.8-.4,1.8-1.9M66.9,253.7c-.2.4-.6.9-.5,1,.4.5,1,1.3,1.6,1.3.6,0,1.3-.7,1.9-1.1,0,0-.1-.4-.2-.5-.7-.9-1.7-.9-2.8-.8M68.1,350.8c.9-.3,1.8-.7,2.7-1,0,0,.1-.6,0-.7-.2-.2-.7-.3-.9-.5-.6-.8-1.3-.6-1.7,0-.5.6-1.3,1.4,0,2.3M28.1,313.1c1.5,0,2.2-.8,1.6-1.5-.4-.5-.9-.9-1.4-1.2-.2-.1-.8.1-1.1.4-.2.1-.3.5-.3.7.2.6.6,1.1,1.1,1.7M35.5,284.9c.2,0,.5.1.7.2.2,0,.5,0,.7,0-.1-.1-.3-.3-.4-.4,0,0,0-.2-.1-.3.2,0,.4,0,.5,0,.5-.1,1-.3,1.5-.5-.3-.2-.7-.6-1-.6-.8,0-1.7.1-2.5.2-.3,0-.5.2-.8.3.2.3.4.6.6.9.1.1.4.1.8.3M87.2,302.7c.1-.3.3-.7.3-.9,0-.2-.5-.2-.8-.3-1.2-.3-2,.4-2.9,1-.2.1-.3.5-.4.8.3,0,.7.2,1,.2.9-.2,1.8-.4,2.9-.6M102.9,300.1l.4-.6c-.5,0-1.2-.3-1.4,0-.9,1.1-2.3.9-3.5,1.2-.4.1-.8.3-1.2.5,0,0-.1.2-.2.3.5.1,1.1.5,1.5.3,1.4-.5,2.7-1.1,4.3-1.7M109.1,303.5c.4,0,.8.1,1.2,0,.5-.1,1-.3,1.5-.6.3-.2.7-.4,1-.6-.4-.3-.7-.8-1.1-.9-1.4-.1-2.1.8-2.6,2M119.6,328.3c0,.1,0,.2,0,.3-.1.2-.3.5-.4.7.2,0,.6,0,.7-.2,1-.8,1.9-1.6,2.9-2.5.1-.1.2-.4.3-.5-.3,0-.6-.3-.9-.2-1,.5-2.2.9-2.6,2.3M108.4,308.7c0-.2-.3-.4-.2-.5,0-1-.6-1-1.2-.9-.7.2-1,.7-.8,1.4.3.8.9,1.2,1.8,1.1.5,0,1-.1,1.5-.2-.3-.2-.7-.4-1-.9M28.6,360c-.6,0-1.3-.2-1.9-.2-.2,0-.4,0-.5.2,0,.2,0,.5.1.5.8.6,1.7,1.2,2.5,1.8.3.2.7,0,1.1,0,0,0,0-.2,0-.3-.4-.6-.8-1.2-1.4-1.9M48.1,342.8c.2.3.4.6.6.9-.4,0-.8,0-1.1-.1-.3,0-.7-.2-1-.2-.1,0-.4,0-.4.2,0,.1,0,.5.1.5.9.2,2.1.8,2.8.5.9-.4.2-1.5-.2-2.2-.1-.2-.4-.4-.6-.6,0,.3-.2.7-.2,1.1M116.2,346.7c.5-.2.9-.3,1.4-.5-.2-.4-.4-1.1-.5-1.1-.5,0-1.1.3-1.5.6-.5.3-1,.8-1.5,1.2.7,0,1.3,0,2.1-.2M14.5,353.5c-.7.5-.7,1.1,0,1.6.7.6,1.2.2,1.5-.5.2-.5.4-1.1.6-1.6-.7.1-1.3.2-2.1.4M44.8,396c-.1,0-.2,0-.3.1-.3.2-.6.4-.9.7.3.2.8.6,1,.6.8-.4,1.6-.9,2.3-1.4.2-.1.2-.4.3-.6-.3,0-.6-.1-.9,0-.5.1-.9.4-1.5.7M73,404.7c.8-.3,1.6-.4,2.3,0,0,0,.5-.3.7-.4-.7-.5-1.3-1.3-2.1-1.5-1-.2-1,.8-1,1.8M66.5,390.5c0-.4.2-.9.2-1.3-.6,0-1.3-.2-1.9-.2-.2,0-.5.6-.5.9,0,.4.4.9.6,1,.4,0,.9-.2,1.5-.4M57.1,256.1c0,.3-.3.6-.2.8.3.5.8.8,1.2,1.2.6.7,1.1.1,1.1-.3,0-.7-.2-1.4-.5-2,0-.1-1,.1-1.6.3M69.7,287.5c.2-.5.4-1,.5-1.4,0,0-.3-.3-.4-.4-.7.9-1,.1-1.3-.3-.1-.2-.4-.2-.5-.3,0,.2,0,.5,0,.7.2.6.5,1.1.8,1.7.1.3,0,.6,0,.9.3-.2.6-.4,1-.8M93.3,258.4c.3-.2.6-.3.8-.5.2-.2.3-.6.3-.7-.2-.2-.5-.4-.7-.3-.7.2-1.4.4-2.1.8-.3.2-.5.5-.8.8,0,0,0,.2.1.2.8.1,1.6.7,2.5-.2M245.1,114.2c0,.6,0,1.3.8,1.1.6-.2,1.1-.7,1.7-1.1-.2-.3-.5-.9-.7-.8-.6.1-1.2.4-1.9.8M77.1,331.1c.1-.4.2-.8.3-1.2-.7,0-1.5,0-2.1.3-.2.1,0,1.1,0,1.6,0,.2.4.3.6.4,0-.2.2-.4.2-.7,0-1.1.3-.9,1-.5M50.6,396.5c.2.5.3,1.1.5,1.6.1.2.4.6.6.6.3,0,.9-.4.8-.6-.1-.6-.3-1.2-.7-1.7-.1-.2-.8,0-1.3.2M76.1,261.6c0,.4-.1.7-.2,1.1.3-.1.7-.2.9-.4.5-.4.9-1,1.2-1.5,0,0-.2-.6-.4-.6-1-.3-1.4.3-1.6,1.4M123.8,312.4c-.7.5-1.4,1-2.1,1.6-.1,0,0,.4,0,.7.2,0,.5,0,.7-.1.4-.2.7-.4,1-.6.3-.2.7-.2,1-.4-.2-.3-.3-.7-.6-1.2M90.7,341.6c.3.2.6.6,1,.7.3,0,.7-.1,1.1-.2,0,0,0-.4,0-.5-.7-.4-1.5-.7-2.2-.9-.2,0-.6.3-.9.5.3.1.6.3,1.1.4M64,265c.9,0,1.7,0,2.6,0,.3,0,.6-.2.8-.4,0,0,0-.4-.2-.4-.3,0-.6,0-.9,0-.5,0-1.1.2-1.4,0-1.3-1-1.1,0-1,.9M54.6,397.2c.3-.5.6-.9.9-1.4,0-.1-.2-.6-.3-.6-.4,0-.9,0-1.1.3-.4.4-.6.9-.8,1.4.4.1.7.2,1.4.3M56.4,314.9c-.2.4-.3.7-.5,1.1.4.1.9.4,1.3.4.5,0,.9-.5,1.3-.7-.4-.2-.9-.5-1.3-.7-.2,0-.5,0-.8,0M103.2,365.1c-.7.3-1.5.6-2.1.9-.2,0-.2.5-.3.8.2,0,.5.1.7,0,.8-.4,1.5-.8,2.3-1.2.2-.1.3-.3.5-.5-.3,0-.5,0-1,0M48.2,299.6c-.2,1.1.6.4.9.4.3,0,.6-.3,1-.4.3-.1.6-.3.8-.4-.2-.3-.3-.6-.6-.8-.2-.1-.6,0-.8.1-.4.2-.8.6-1.3,1M281.3,94.3c-.2-.3-.4-.6-.6-.9-.3.5-.7.9-.9,1.5,0,.2,0,.5.1.8.3,0,.7-.1,1-.3.2-.2.3-.6.4-1.1M55.1,367.4c0,0-.1-.2-.2-.2-.5,0-1-.2-1.5,0-.2,0-.3.5-.4.8.5,0,1.1.4,1.5.2.3-.2,1.2.3.7-.7M84.7,298.7c0-.1,0-.3,0-.4-.5.4-1.1.8-1.5,1.3-.2.2,0,.7.1,1,.3-.2.7-.2.9-.5.2-.3.3-.8.5-1.4M74.2,287.2c-.5.9.3.9.8,1,.3,0,.7-.2,1.1-.3-.4-.3-.7-.7-1.1-.9-.1,0-.5,0-.8.2M64.2,261.4c-.2.1-.4.2-.6.4.3.1.6.4.9.4.5,0,1.1,0,1.6-.1-.3-1-1.1-.4-1.9-.6M71,292.1c-.2-.2-.4-.6-.7-.7-.3-.1-.7,0-1-.1.1.3.2.6.4.8.3.3.7.5,1.1.6.3.1.6.2.9.3-.2-.2-.4-.5-.7-.8M139.7,363.7c-.7-.2-1.4-.3-2.1-.5,0,.1,0,.4,0,.4.7,0,1.3.1,2.1,0M67.7,269.2c.2.6.3,1.2.5,1.8,0,.2.3.3.5.5,0-.3.3-.6.2-.9-.3-.6-.7-1.1-1.2-1.5M144.1,385.1c-.7-.8-1.2-.2-1.7.2,0,0,0,.3-.1.4.5-.1,1-.2,1.6-.4,0,0,.1-.1.3-.3M93.5,305.2c.3,0,.5,0,.8,0,0-.3,0-.8-.3-.9-.3-.2-.7,0-1.1,0,.1.3.2.6.6,1M68.3,265.3c.5.2,1,.3,1.5.5,0,0,.1-.3.2-.5-.6-.2-1.2-.9-1.8,0M70.5,400.3c-.4,0-.9-.2-1.3,0-.2,0-.3.6-.5,1,0,0,.2.2.3.2.3-.9,1-.8,1.7-.6,0-.1,0-.3-.2-.6M40.9,269c0-.4,0-.9,0-1.3,0-.3-.3-.6-.4-.9,0,.3-.3.7-.2,1,0,.4.4.8.7,1.1M64.2,346.2c0-.2.1-.4.2-.6-.4,0-.8,0-1.1,0-.2,0-.3.4-.5.7.2,0,.5,0,.7,0,.2,0,.4,0,.7-.1M57.8,308.4c-.2-.6-.4-1.2-.7-1.7,0,0-.4,0-.5,0,.4.6.7,1.3,1.2,1.8M146,176.1c-.4-.4-.8-.9-1.2-1.3,0,0-.2.2-.4.3.5.4.9.8,1.4,1.2,0,0,0,0,.2-.2M222.9,140.2c.4-.4.7-.7,1.1-1.1.1-.1,0-.4,0-.7-.4.3-.9.6-1.2.9-.1.1,0,.4.2.8M27.7,288.8c.3,0,.7,0,1-.1-.2-.3-.3-.5-.5-.8-.2.3-.4.5-.5.9M50.1,300.5s0,0,0,0c0,0,0,0,0,0,0,.3-.1.7,0,1,0,.3.2.5.3.8.1-.3.3-.6.4-.9,0-.2-.2-.4-.5-.7M134.4,283.5c0-.2-.1-.4-.2-.6-.2.2-.5.4-.6.6,0,.3.2.6.3.8.1-.2.3-.4.4-.8M52.9,179.6c-.1-.2-.2-.4-.3-.6-.2.3-.4.5-.6.8,0,0,0,.3.2.4.2-.2.4-.3.8-.6M189.9,21.5c0-.1,0-.3,0-.4-.4.1-.9.2-1.3.4,0,0,0,.2,0,.3.4,0,.7-.1,1.2-.3M55,306.4c.1.3.2.6.3.9l.4-1.1c-.2,0-.4,0-.8.2M107.7,282.4c-.2-.1-.5-.2-.7-.3,0,.3-.1.6,0,.8,0,.2.4.3.6.4,0-.2.1-.4.2-.9M56.5,368.3c.1,0,.3.2.4.1.3,0,.6-.2.8-.4,0,0,0-.3,0-.3-.3,0-.6,0-.9,0-.1,0-.2.2-.3.5M74.8,333.4c0-.2-.1-.4-.2-.6-.3.3-.5.5-.8.8,0,0,0,.3,0,.4.3-.2.5-.3.9-.6M65,77.1c-.2.3-.3.5-.5.8.1,0,.3.1.4.2,0-.3.2-.7,0-1M116.1,273.5c.2.3.3.6.5.9,0,0,.2-.1.3-.2-.2-.3-.4-.6-.8-.7M67.7,267.2c-.2.2-.3.4-.5.7.2,0,.3.1.5.2,0-.3,0-.5,0-.9M87.5,305.1c.2,0,.4.2.5.2,0-.1.1-.3.1-.3-.2-.2-.5-.4-.8-.5,0,.2,0,.3.1.6M21.6,345.6c0-.3,0-.5,0-.8,0,0-.3,0-.4,0,.1.3.2.6.5.8M46.2,103.6c-.2.2-.4.5-.6.7l.4.3c.1-.3.2-.6.2-1M257.5,108.2c.1.3.3.5.4.8.2-.1.3-.2.5-.3-.2-.1-.4-.3-.8-.4M19.9,337.6c.2-.2.4-.5.6-.7,0,0,0-.2-.1-.3-.2.3-.4.6-.5,1M133.9,309.9c-.3-.1-.6-.2-.9-.4,0,.1,0,.2-.1.3.3,0,.6.1,1,0M77.9,259.3c0-.3-.1-.6-.2-.9-.1,0-.2,0-.3.1.1.3.2.6.5.8M79.9,299.5c.2.1.4.3.6.4,0-.1.1-.3.2-.4-.3,0-.5-.2-.8,0M117.7,133.6c-.1.2-.3.4-.4.6,0,0,.2.1.2.2.1-.3.3-.5.1-.8M115.6,260l.3.4c0-.2.1-.3.2-.5-.2,0-.3,0-.5.1M247.6,111.5c-.1.1-.2.3-.3.4.1,0,.3.2.4.2,0-.2,0-.4-.1-.7M39.8,284.1c-.2,0-.4,0-.5,0,0,.1.2.3.2.4.1-.1.3-.2.3-.5M17,309.7h.5c0-.3-.1-.5-.2-.6-.1.1-.2.3-.3.6M69.8,284.6s0,0,0,0c0,0,0,0,0,0,.2,0,.4,0,.7,0,0,0,0-.2,0-.3-.2,0-.3,0-.6.1M12.9,356.3c0,.2-.1.4-.2.6.1,0,.2,0,.3,0,0-.2,0-.5-.1-.6Z"/>
    <path d="M53.1,85.2c-.2,0-.3,0-.4,0-.3-.1-.7-.3-1-.5,0,0,.2-.3.3-.3.5.1,1,.3,1.4.4l-.2.2Z"/>
    <path d="M119.7,205.4c-.2-.3-.3-.5-.4-.8.4.1.7.2,1.1.3,0,0,0,.4,0,.4-.2,0-.4,0-.7,0Z"/>
    <path d="M47.5,186.9c-.3.1-.7.2-1,.3,0-.1,0-.3,0-.3.3,0,.6,0,.9,0Z"/>
    <path d="M117.4,248.6c0,.2,0,.4,0,.6-.2-.2-.4-.3-.5-.5,0-.1,0-.3,0-.5.1.1.2.2.4.4Z"/>
    <path d="M186.4,161.7c.2.1.3.3.4.5-.1,0-.3.1-.4.2,0-.2,0-.4,0-.7Z"/>
    <path d="M122.1,402.4c-.1-.1-.2-.3-.2-.6,0,0,.3,0,.4-.1,0,.2-.1.4-.2.7Z"/>
    <path d="M64.1,163.1c-1.8.8-2.5.7-3.4-.2-.4-.4-.2-.7.2-.7,1,0,2,0,3,0,.1,0,.2.6.3.9Z"/>
    <path d="M229.4,92.6c0,.6-.1,1.1-.2,1.5-.2-.4-.4-.9-.6-1.3,0,0-.1-.1-.1-.2,0-.5,0-1.1,0-1.6,0,0,.2,0,.2,0,.2.5.4,1,.5,1.7Z"/>
    <path d="M98.2,119.6c-.2,0-.3.2-.4.3-.3.2-.5.3-.8.5,0-.4-.2-.8,0-1.1.1-.2.6-.3.9-.3.2,0,.3.4.3.7Z"/>
    <path d="M241.3,107.7c.2.2.3.6.3.6-.3.2-.6.3-.9.4,0-.2.1-.4.2-.6,0-.1.2-.2.5-.4Z"/>
    <path d="M160.9,115.1c.3.2.5.4.6.6-.2.1-.4.2-.6.3,0-.3,0-.6,0-.9Z"/>
    <path d="M96.4,139.9c-.3,0-.5,0-.7,0,.1-.2.2-.4.3-.6.1.2.3.4.4.6Z"/>
    <path d="M59.3,97.5c-.2-.1-.4-.3-.5-.4l.6-.3c0,.3,0,.5-.1.8Z"/>
    <path d="M51.1,285.6c.2-.1.5-.2.6-.2.2.3.4.7.7,1,.2.2.4.5.6.7-.3.2-.7.5-1,.5-.2,0-.6-.4-.7-.6-.1-.4,0-.9,0-1.4Z"/>
    <path d="M58.3,257.1c-.3-.1-.4-.2-.5-.3.2,0,.3-.1.5-.2,0,.2,0,.3,0,.5Z"/>
  </g>
</svg>