<?xml version="1.0" encoding="UTF-8"?>
<svg id="Layer_1" xmlns="http://www.w3.org/2000/svg" version="1.1" viewBox="0 0 409.9 447.6">
  <!-- Generator: Adobe Illustrator 29.3.1, SVG Export Plug-In . SVG Version: 2.1.0 Build 151)  -->
  <g id="Shape_85">
    <path d="M100.1,160.3c.2-.2.2-.3.2-.4-.2,0-.6,0-.7,0-1.2,1-2.3,2-3.4,2.9-2.3,1.9-4.9,3.7-7,5.8-2.8,2.7-5.8,5.1-8.2,8.3-2.4,3.3-3.6,6.9-5,10.5-.3.8-.5,1.7-.6,2.6-.2,1.7-.3,3.4-.5,5.1-.2,1.6-.6,3.1-.8,4.7-.2,1.4-.4,2.8-.5,4.2,0,2.8-1.1,5.4-1.4,8.2-.3,2-.8,4.1-1.2,6.1-.5,2.1-1.1,4.2-1.5,6.4-.7,2.9-1.2,5.9-2,8.8-1,3.9-1.7,8-3.6,11.6-1.7,3.2-4.4,5.5-7.9,6.7-.3.1-.6.3-.9.4-.8.2-1.7.1-2.4.5-.6.3-.9,1.1-1.5,1.6-.5.4-1.2.7-1.7-.2-.8-1.2-1.9-1.6-3.3-2.1-2.4-.7-4.3-2.4-6.3-3.9-2.7-2.1-3.8-5-4.7-7.9-.8-2.8-1-5.6-.2-8.6.7-2.8.7-5.8,1.4-8.6.6-2.5.5-5.1,1.6-7.4.5-1.1.3-2.5.5-3.7.4-2.4.9-4.9,1.4-7.3.4-1.8.8-3.6,1.2-5.4.6-2.7,1.2-5.4,1.7-8.1.4-1.8.6-3.7.9-5.5.5-2.7,1.2-5.4,1.7-8.1.5-2.7.9-5.5,1.4-8.2.2-1.1.6-2.2.9-3.4.5-2,1.1-4,1.3-6,.2-2.2,1.5-3.8,2.6-5.5,1.3-2.1,3.5-3.4,5.3-5.2.5-.5,1.1-.9,1.6-1.3,3.1-2.7,6.3-5.4,9.4-8.1,1.4-1.2,2.7-2.4,4-3.6,3.1-2.6,6.1-5.3,9.2-7.9,1.7-1.5,3.6-2.7,5.2-4.4,1.1-1.2,2.5-2,3.5-3.1,1.1-1.3,2.5-2.1,3.7-3.2,1.6-1.4,3.2-2.9,4.8-4.3,2.2-1.9,4.5-3.6,6.7-5.5,1.5-1.3,3-2.7,4.5-4,2.7-2.4,5.5-4.7,8.3-7,.9-.8,1.9-1.5,2.8-2.3,3-2.9,6.5-5,10.3-6.9,3-1.5,6.1-2.7,9.4-3.3,3.1-.5,6.4-1.1,9.7-.2,1.8.4,3.7.5,5.5.9,2.2.5,4.3,1.5,6.2,2.5,2,1,3.9,2.4,5.7,3.8,1.2.8,2.1,1.9,3.2,2.9,2.8,2.4,5,5.3,6.9,8.3,1.5,2.3,2.7,4.9,4,7.3,1.8,3.3,3.6,6.6,5.3,9.9,2.8,5.7,5.6,11.4,8.4,17.2,1.2,2.4,2.3,4.9,3.5,7.3,1.9,3.9,3.8,7.8,5.7,11.7,2.3,4.7,4.6,9.4,6.8,14.1.9,2,1.8,4,3.1,5.7,1.1,1.4,2.3,2.8,3.6,4,4,3.6,8.6,6.4,12.9,9.4,5.4,3.8,11,7.1,16.2,11.1,3.5,2.7,7.3,5.1,10.8,8,1,.8,2.1,1.4,3.1,2.1,4.2,2.8,7.7,6.1,9.8,10.8,1.2,2.6,1.9,6.6.9,9.9-1.1,3.8-2.9,7.1-5.8,9.7-2.1,1.9-4.6,3.2-7.6,3.4-.6,0-1.2.4-1.8.4-4.1.2-7.8-1.1-11.2-3.1-5.5-3.3-10.6-7.3-15.9-11-5.1-3.6-10.3-7-15.4-10.6-3.8-2.6-7.4-5.4-11.2-8-2.6-1.9-5.5-3.4-8-5.5-2.4-2-4.7-4.2-6.7-6.7-2.5-3-4.5-6.4-6.1-10-1.1-2.5-2.1-5-3.3-7.4-1.4-2.8-2.9-5.5-4.4-8.3-.1-.2-.3-.4-.5-.5-.1.2-.3.4-.4.6-.3,1.1-.5,2.3-.8,3.4-.8,3.3-1.5,6.7-2.3,10-.7,3-1.5,6-2.2,9-.7,3-1.2,6.1-1.8,9.1-.4,1.7-1,3.4-1.3,5.2-.5,2.6-1.2,5.2-1.7,7.8-1,4.5-1.8,9.1-2.7,13.6-.4,1.7-.9,3.4-1.4,5.1-1.1,3.6-.1,6.9,2,9.8,1.8,2.5,3.7,4.9,5.6,7.3.7.8,1.6,1.5,2.3,2.3,3.2,3.9,6.4,7.9,9.6,11.8,1.6,1.9,3.2,3.8,4.8,5.7,1.9,2.2,3.7,4.5,5.6,6.7,2.2,2.5,4.4,5,6.5,7.6,1.6,1.9,3.1,4,4.7,6,1.1,1.3,2.3,2.6,3.4,3.9,2.2,2.6,4.4,5.3,6.7,8,1.8,2.1,3.6,4.2,5.4,6.3,3.9,4.4,7,9.4,8.8,15,.9,2.9,1.7,6,1.9,9.1,0,1.6.7,3.2,1.1,4.8.2,1.1.4,2.2.6,3.3.5,3.3,1,6.6,1.7,9.8.8,3.4,1.2,7,1.8,10.5.6,3.3,1.1,6.7,1.8,10,.5,2.5,1.2,4.9,1.7,7.4.4,1.9.5,3.9.9,5.8.7,2.9,1.1,5.8,1.6,8.7.4,2,.9,4.1,1.1,6.2.2,2,.9,4,1.2,6.1.4,2.1.5,4.3.9,6.4.5,2.5,1,5,.8,7.5-.3,3.9-.9,7.7-2.7,11.2-1.6,3.1-4,5.5-6.7,7.8-2.6,2.2-5.6,3.2-8.5,4.4-1,.4-2.1.6-3.2.7-4.5.3-9,0-13.2-2.1-4.2-2.2-7.7-5-10.5-9-2.6-3.8-3.8-8-4.7-12.3-.7-3.2-1.5-6.4-2.1-9.6-.5-2.7-.9-5.5-1.4-8.2-.4-2-1.1-3.9-1.2-5.8-.3-3.3-1.4-6.3-1.9-9.6-.4-2.6-1-5.1-1.5-7.7-.4-2.1-.8-4.3-1.1-6.4-.1-1.2-.6-2.4-.8-3.6-.2-1.1-.3-2.2-.5-3.3-.1-.8-.3-1.6-.4-2.5-.6-3.3-1.4-6.5-1.7-9.8-.3-3.1-1.1-6-1.9-8.9-1.2-4.1-2.8-8.1-5.6-11.5-2.1-2.6-4.3-5.3-6.5-7.8-2.6-2.9-5.3-5.6-7.9-8.4-2.3-2.5-4.6-5.1-6.8-7.7-2.9-3.3-5.8-6.7-8.7-10-2.2-2.5-4.4-4.9-6.5-7.4-1.8-2.1-3.5-4.4-5.3-6.6-.4-.5-.9-1-1.4-1.4-1.5-1.1-3.5-.1-3.9,1.7-.6,3.2-1.4,6.4-2.1,9.7-.5,2.4-.8,4.9-1.4,7.3-.6,2.4-.8,4.8-1.6,7.2-.9,2.6-1,5.4-1.5,8.2-.3,1.4-.6,2.8-.9,4.2-.4,1.8-.9,3.6-1.3,5.4-1.3,6-3.4,11.7-6.4,17.1-2.1,3.9-4.4,7.7-6.7,11.5-2.2,3.8-4.3,7.6-6.5,11.3-2.3,4-4.7,7.9-7,11.8-1.3,2.2-2.5,4.4-3.8,6.6-1.9,3.4-3.9,6.7-5.9,10.1-1.3,2.2-2.4,4.6-3.8,6.8-2.5,4.1-4.6,8.4-7.3,12.3-1.8,2.6-3,5.7-4.6,8.4-1,1.7-2.2,3.4-3.6,4.9-1.7,1.8-3.6,3.5-5.5,5.1-2.1,1.8-4.7,2.6-7.3,2.9-2.2.2-4.4.3-6.6,0-3.9-.6-7.7-1.9-10.9-4.3-1.1-.8-2.1-1.7-3.1-2.6-2.7-2.4-4.1-5.7-5.5-8.9-1.3-3-1.7-6.1-1.9-9.3-.2-3.6.9-6.8,1.9-10.1.5-1.6,1.8-2.8,1.4-4.7,0,0,.2-.2.3-.3.6-.7,1.3-1.2,1.8-2,1.3-2.2,2.5-4.5,3.8-6.8,1.5-2.5,3-5,4.5-7.6,2.2-3.9,4.3-7.9,6.5-11.8,1.7-2.9,3.4-5.7,5.1-8.6,1-1.8,1.9-3.8,3-5.6,2.5-4.2,5.3-8.3,7.7-12.6,2.7-4.9,5.4-9.7,7.3-15,1.3-3.4,2.6-6.8,3.6-10.4.9-3.3,1.6-6.7,2.5-9.9.9-3,.9-6.2,2.1-9.2.9-2.2.9-4.7,1.4-7.1.6-2.8,1-5.5,1.7-8.3.8-3.2,1.2-6.4,1.8-9.6.7-3.3,1.5-6.6,2.2-9.9.4-1.9.6-3.9.9-5.8.3-1.5.7-2.9,1.1-4.4.2-.9.3-1.8.5-2.7.5-2.4,1-4.7,1.5-7.1.3-1.7.6-3.4,1-5.1.4-1.8.9-3.6,1.2-5.4.5-2.4.9-4.8,1.3-7.1.6-2.8,1.2-5.5,1.7-8.3.3-1.5.6-3,.9-4.5s.6-3,.9-4.5c.3-1.5.6-3,.9-4.4.6-2.6,1.2-5.2,1.7-7.9.6-3.1,1.2-6.2,1.9-9.3.4-1.8.8-3.6,1.2-5.4.5-2.3,1.1-4.7,1.6-7,.2-1.1.5-2.2.6-3.3.3-3,1.2-6,1.8-8.9.3-1.4.3-2.8.6-4.3M157,202.1c.1,0,.3,0,.4,0-.1,0-.3-.2-.4-.5-.2,0-.5-.1-.7-.2,0,0,0,.2,0,.3.3,0,.5,0,.8.3M160.3,285.3c-.4.5-.7,1-1.1,1.5,0,0,.2.1.3.2.4-.5,1.2-.8,1.3-1.7.4-.4.7-.9,1.3-1.3.3-.3.6-.5.7-.8.2-.2.2-.6.2-.9-.3,0-.8,0-.9.3-.2.4-.2.9-.6,1.4-.9,0-1.1.5-1.3,1.3M79.8,329.8c.1.9-.2,1.7-.7,2.5,0,0,.2.4.3.6,0,0,.4,0,.4,0,.5-1,.9-1.9,1.3-2.9,0-.2-.3-.5-.4-.8-.2.1-.5.3-.9.7M178.7,152.3l-1.5.3c.5.2,1,.4,1.5.6.1,0,.3,0,.4,0,.8-.1,1.6-.2,2.4-.3-.6-1.2-1.6-.2-2.9-.5M148.9,213.3c-.6-.6-1.2-.5-1.9-.2,0,0,0,.4,0,.4.5.1,1.1.2,1.6.4.2,0,.3.2.5.3,0-.2.1-.4,0-.8M165.6,187.8c0,0-.1,0-.2,0-.4,0-.9.2-1.3.3,0,0,0,.3,0,.4.6.4,1,.3,1.5-.3.1-.2.3-.3,0-.5M161.8,307.9c0-.4-.2-.7-.3-1.1-.2.1-.5.2-.6.4,0,.4-.2,1.1.8.7M225.3,341.4c-.4.1-.7.2-1.1.3,0,0,0,.3,0,.4.3,0,.7-.1,1-.3.2,0,.3-.3,0-.4M152.6,195.1c.1-.2.4-.4.4-.4-.6-.6-.8.1-1.2.4.2.1.4.2.8,0M162.1,315.1c-.2.2-.4.3-.6.5,0,0,0,.2.2.3.2-.2.5-.4.5-.8M153.5,197.7c0,.1,0,.3,0,.4,0,.2.2.4.2.6,0-.2.2-.4.2-.5,0-.2-.1-.5-.4-.5M84.6,284.2c.1,0,.3-.1.4-.2-.1,0-.3-.1-.4.2M82.8,254.3c.2,0,.5.1.7.2,0,0,0-.2,0-.3-.2,0-.4,0-.8.1M185.1,146.4c-.2,0-.5-.1-.7-.2,0,0,0,.2,0,.3.2,0,.4,0,.8-.1M143.6,100.5c-.2,0-.4,0-.6.1,0,0,0,.3,0,.3.2,0,.5-.1.5-.4M94.3,367.1c0,0-.2-.1-.3-.2,0,.1,0,.3.3.2M95.1,367.1c0,0-.2-.1-.3-.2,0,.1,0,.3.3.2M93.4,367.6c0,0-.2-.1-.3-.2,0,.1,0,.3.3.2M157.9,199.5c0,0,.2.1.3.2,0-.1,0-.3-.3-.2Z"/>
    <path d="M305.8,283.5c0-4.7-.3-9.2,0-13.6.9-13,.1-25.9.4-38.9,0-.4,0-.9,0-1.3,0-.2-.4-.6-.6-.6-2.1-.2-4.1.3-6.1.7-1.2.3-2.5.4-3.7.5-.2,0-.5-.5-.6-.8-.2-.5-.4-1-.4-1.6-.2-1.3-.3-2.7-.4-4,0-1,.3-1.4,1.3-1.5,3.4-.4,6.8-.9,10.2-1.3,2.8-.3,5.6-.5,8.4-.9,2.5-.3,5-.9,7.6-1.3,1.4-.2,2.8-.3,4.2-.5,2.8-.3,5.6-.4,8.4-.9,3.2-.6,6.5-.8,9.8-1.3,3-.5,6.1-.8,9.1-1.3,3.1-.5,6.2-1.1,9.3-1.3,2.2-.1,4.5-.4,6.7-.9,3.2-.7,6.5-.6,9.6-1.7,1.2-.4,2.6-.3,4-.5,3.5-.4,7-.8,10.4-1.3,3.1-.5,6.2-1.3,9.4-1.7,1.8-.2,3.6-.2,5.3-.9.3-.1.9-.2.9.6,0,.5.3,1,.4,1.6.2,1.2-.1,2.4.4,3.6.5,1.2-.5,2-1.9,2.2-2.8.4-5.5.9-8.2,1.3-1.1.1-1.3.7-1.3,1.6,0,.5,0,1,0,1.5-.1,6.6-.3,13.2-.5,19.9,0,1.7.1,2.3,2.1,2.1.9,0,1.8-.3,2.7-.4,1.1-.2,1.4,0,1.4,1.1,0,3.7.3,7.5,0,11.2-.8,8,.1,16-.5,24-.6,8.8.2,17.6-.4,26.4-.7,10,0,19.9-.4,29.9,0,1.3-.1,2.6-.3,3.9-.2,1.3-.1,2.7-.1,4,0,11.1.3,22.2,0,33.3-.5,15-.2,29.9-.4,44.9-1,2.4.1,5.1-.9,7.5-.2.4,0,.9,0,1.3,0,1.8,0,3.7,0,5.5,0,2.1,0,4.1.3,6.2.3,2.3-.2,4.7-.3,7,0,.7-.5.6-.9.6-1.8,0-3.5,0-5.3,0s-1.2-.2-1.5,0c-.8.7-.9,0-1.1-.5,0-.2,0-.4,0-.7,0-3.4,0-6.7,0-10.1,0-1.6.4-3.2.4-4.9,0-.9.4-1.9-.4-2.7-.1-.1-.1-.5,0-.6.8-1.3.4-2.7.4-4,0-9.4,0-18.9,0-28.3,0-1.4-.3-2.9.4-4.2.1-.2,0-.6,0-.9-.8-3.1.9-6.3-.4-9.3,1-2.6.3-5.3.4-7.9.1-2.6,0-5.3,0-7.9,0-.8-.2-1.1-1.1-1.1-8.2,0-16.4-.2-24.6.1-2.8,0-5.6.3-8.4.3-.7,0-1.6.3-2.3-.4-.2-.2-.9-.2-1.3,0-1.9.8-3.8.4-5.8.4-13.8,0-27.6,0-41.5,0s-.7,0-1.1,0c-.6,0-1.2.2-1.8.4,0-.8-.2-1.6-.2-2.3,0-14.5-.4-29,.1-43.4.4-11.9,0-23.7.3-35.8M372.7,300.2c0,.1,0,.3,0,.4,0-.1.2-.3.5-.4,0-.1,0-.3,0-.4,0,.1-.2.3-.5.4M307.1,296c.1,3.4-.4,6.8-.4,10.2-.1,9.3,0,18.6,0,27.8,0,1.5.2,1.7,1.8,1.7,10.2,0,20.3,0,30.5,0,.8,0,1.1,0,1.1-1,0-6.7.3-13.5.4-20.2,0-1.4,0-2.8,0-4.2.3-10.4-.4-20.7.4-31.1.2-3.1,0-6.1,0-9.2,0-1.8,0-1.8-1.9-1.8-10,0-20,0-30,0-1.9,0-1.9,0-1.9,2,0,8.5,0,17,0,25.9M346,325.2c-.8.1-1.6.3-2.4.4-.5,0-1.1-.1-1.5,0-.4.2-.7.7-1.1,1,.3,0,.6.2,1,.2.6,0,1.2-.3,1.8,0,.3.1,1-.1,1.3-.4.4-.5.6-.2,1,0,.2.1.7-.2,1-.4-.3-.2-.6-.5-1.1-.9M347.7,339.7c.7-.8,1.3-.5,2,.2.1.2.6,0,.9,0-.1-.2-.1-.6-.3-.7-1.3-1.2-2.1-1.1-4.2.4-.4.3-.7.6-1,.9.5-.2,1-.3,1.5-.5.3,0,.5-.2,1.2-.3M382,266.4c.4-.1,1-.1,1-.3.2-.7-.4-.5-.8-.5-1,0-1.9,0-2.7.7-.1.1-.2.3-.3.5.2,0,.4.2.6.1.6-.1,1.2-.3,2.2-.4M343.1,311.4c-.4,1.6.7.7,1.2.6.2,0,.4-.2.6-.4-.2-.2-.4-.4-.7-.5-.3,0-.6,0-1.1.2M386.8,346.7c.2,0,.4,0,.6-.1,0,0,0-.3,0-.3-.2,0-.5.1-.5.4M387.9,301.3c-.2,0-.5-.1-.7-.2,0,0,0,.2,0,.3.2,0,.4,0,.8-.1M378.2,323.2c0,0,.2.1.3.2,0-.1,0-.3-.3-.2M393.4,252.8c0,0-.1.2-.2.3.1,0,.3,0,.2-.3M347.1,349.6c0,0-.2-.1-.3-.2,0,.1,0,.3.3.2M355.8,354.4c0,0-.2-.1-.3-.2,0,.1,0,.3.3.2Z"/>
    <path d="M120.1,45.2c-.6-2.6-.4-5.1-.4-7.5,0-5.4,1.3-10.5,3.5-15.4,1.5-3.4,3.5-6.5,6-9.4,3.2-3.6,6.8-6.6,11.1-8.7,2.7-1.4,5.6-2.3,8.5-3.3,1.3-.4,2.8-.3,4.2-.5,1.1-.1,2.3-.6,3.3-.3,1.2.4,2.3.2,3.4.3,3.7.5,7.4.9,10.8,2.6,2.1,1.1,4.5,1.8,6.4,3.1,3,2.1,5.8,4.5,8.2,7.4,1.8,2.2,3.5,4.4,4.8,6.8,1.4,2.5,2.4,5.3,3.1,8.1,1,3.7,1.6,7.6,1.4,11.5-.1,3.1-.9,6.1-1.6,9-1,4.3-3,8.3-5.6,11.9-2.2,3.2-4.5,6.4-7.9,8.6-2.1,1.4-4,3.3-6.3,4.4-2.7,1.4-5.6,2.3-8.5,3.2-3.5,1-7.2,1.2-10.8.9-2.8-.2-5.6-.6-8.2-1.9-.8-.4-1.8-.6-2.7-1-4.8-2.3-9.2-5.1-12.7-9.1-3-3.5-5.6-7.2-7.4-11.4-1-2.4-1.5-5.1-2.3-7.6-.2-.5-.3-1-.4-1.8M126.5,29.8c.2-.1.4-.3.9-.4.4-.3.7-.6,1.3-.9,0-.1.1-.3.4-.4.5-.4,1-.9,1.8-1.3,0-.1.1-.3.4-.4.4-.3.7-.6,1.3-.9.4-.3.7-.7,1.1-1,0,0,0-.1,0-.2-.4.3-.7.5-1.1.8,0,0-.1.2-.4.4-.4.3-.7.6-1.3.9,0,.1-.1.3-.4.4-.5.4-1,.9-1.8,1.3,0,.1-.1.3-.4.4-.4.3-.7.6-1.3.9-.2.1-.4.3-.9.4,0,.1,0,.3,0,.4,0-.1.2-.3.5-.4M188.6,36.6c-.5,0-1.1,0-1.5.3-.3.2-.4.7-.7,1.1.4-.1.7-.2,1.1-.3.4-.2.7-.4,1.1-1M137.3,60.8c0,0,.2.1.3.2,0-.1,0-.3-.3-.2Z"/>
    <path d="M270.3,276.9c.8,2.2,1.6,4.1,2.3,6.1,1.2,3.3,2.3,6.5,3,9.9.4,2.2.4,4.4.3,6.6-.1,1.7-.8,3.3-1.4,4.9-1.4,3.7-4.1,6.3-7.3,8.5-1.9,1.3-4.1,2.2-6.3,2.9-.3.1-.7.1-1,.2-1,0-2,.3-2.9.3-1.8,0-3.8-.3-5.5-.9-1.5-.5-2.8-1.6-4.6-1.6-.4,0-.8-.2-1.1-.5-2-2-4.2-3.8-6-6.1-1.3-1.7-2.3-3.7-2.6-5.9,0-.7-.3-1.3-.4-2-.2-1,.3-2-.4-2.9-.2-.2.4-.9.4-1.3.2-3.8,1.8-7.3,3-10.8,1.3-3.9,2.8-7.6,4.5-11.3,3.1-6.9,6.2-13.8,9.7-20.6.7-1.3,1.1-2.6,1.8-3.9.2-.4.6-.7.9-1,.1.4.2.8.4,1.1.4.8,1,1.5,1.4,2.3,1.8,3.8,3.5,7.6,5.3,11.4,1.4,3.1,2.9,6.1,4.3,9.2.8,1.7,1.5,3.5,2.2,5.4Z"/>
    <path d="M230,339.8c1.2,0,.9.5.3.9-.3.2-.9,0-1.3,0,.3-.3.6-.6,1-1Z"/>
    <path d="M33.1,229c-.4,0-.7,0-.8-.2-.2-.2-.2-.6-.3-.9.3,0,.6-.2.8,0,.5.2,1.2.4.3,1.2Z"/>
    <path d="M61.8,254.5c-.2-.3-.2-.6-.2-.9.4.1.9.3,1.3.4,0,0,0,.4-.1.6-.3.6-.5,0-1-.1Z"/>
    <path d="M40.2,191.7c-.4,0-.7,0-.8-.2-.2-.2-.2-.6-.3-.9.3,0,.7,0,.9.3.2.1.2.5.2.8Z"/>
    <path d="M115.8,46.1c0,.4,0,.6-.1.8-.2-.2-.6-.4-.7-.6,0-.1.2-.5.3-.6,0,0,.3.1.5.4Z"/>
    <path d="M195.1,28c-.3,0-.5,0-.7-.2.2-.2.3-.3.5-.5.2-.1.5-.2.8-.4-.1.3-.3.6-.5,1Z"/>
    <path d="M386,446.7c-.5.1-.8.1-1.2,0-.2,0-.3-.2-.5-.2.1,0,.2-.2.3-.2.5,0,.9.1,1.3.3Z"/>
    <path d="M58.3,253.7c0-.3,0-.6.2-.9.2.2.4.4.6.6-.2,0-.4.2-.8.3Z"/>
    <path d="M0,156.6c0-.3.2-.5.4-.8.1.1.2.2.4.4-.2.2-.4.3-.8.4Z"/>
    <path d="M181.3,392c.3-.1.5-.1.7,0,.2,0,.3.2.4.2-.1,0-.2.2-.3.2-.3,0-.6-.1-.8-.3Z"/>
    <path d="M231.5,339.1c-.3,0-.5,0-.7,0l.7-.7c0,.2,0,.4,0,.7Z"/>
    <path d="M87.1,118.6c0,.3,0,.5,0,.7l-.7-.7c.2,0,.4,0,.7,0Z"/>
    <path d="M251.3,140.5c-.1.2-.4.2-.6.3,0,0,0-.2,0-.3.2,0,.4,0,.7,0Z"/>
    <path d="M115.2,11.7c-.3,0-.5,0-.7,0,0,0,0-.3,0-.3.2,0,.5.1.6.3Z"/>
    <path d="M406.9,325.3c.3,0,.5,0,.7,0,0,0,0,.3,0,.3-.2,0-.5-.1-.6-.3Z"/>
    <path d="M344.3,100.4c-.3,0-.5,0-.7,0,0,0,0-.3,0-.3.2,0,.5.1.6.3Z"/>
    <path d="M120.3,319.6c.3,0,.5,0,.7,0,0,0,0,.3,0,.3-.2,0-.5-.1-.6-.3Z"/>
    <path d="M207.6,291.5c.1,0,.1.2.2.3,0,0-.2-.1-.2-.3Z"/>
    <path d="M352.2,103.9c-.1,0-.1-.2-.2-.3,0,0,.2.1.2.3Z"/>
    <path d="M343.2,108.3c0-.1.2-.1.3-.2,0,0-.1.2-.3.2Z"/>
    <path d="M238.1,354.3c0,.1-.2.1-.3.2,0,0,.1-.2.3-.2Z"/>
    <path d="M238.5,356.3c-.1,0-.1-.2-.2-.3,0,0,.2.1.2.3Z"/>
    <path d="M386,433.1c-.1,0-.1-.2-.2-.3,0,0,.2.1.2.3Z"/>
    <path d="M390.4,189.3c0,.1-.2.1-.3.2,0,0,.1-.2.3-.2Z"/>
    <path d="M333.6,329.9c-1.2-.9-2-1.8-2.5-3-.4-1-.3-1.2.8-1.3.1,0,.3,0,.4,0,.7,0,1.5,0,1.6.7,0,.4-.8,1.1-1.4.2-.1.3-.4.8-.4.9.7.5,1.5.9,2.3,1.3.3.2.6.3.9.5-.3.3-.6.6-.9.8-.2.1-.4,0-.8,0Z"/>
    <path d="M325.9,279.4c-1,.1-1.9.1-2.7,0-.2,0-.5-.2-.7-.3.1-.2.3-.4.5-.5,1.2-.6,2.2-.2,3,.8Z"/>
    <path d="M334.4,313c.5,0,1.1,0,1.2.2.2.7-.5.6-.8.5-.4-.2-.6,1-.8,0,0-.2.3-.5.5-.8Z"/>
    <path d="M329.1,294.9c0-1,.7-.3,1.2-.3-.1,0-.2.2-.4.3-.2,0-.4,0-.9,0Z"/>
  </g>
</svg>