<?xml version="1.0" encoding="UTF-8"?>
<svg id="Layer_1" xmlns="http://www.w3.org/2000/svg" version="1.1" viewBox="0 0 774.1 239.2">
  <!-- Generator: Adobe Illustrator 29.3.1, SVG Export Plug-In . SVG Version: 2.1.0 Build 151)  -->
  <g id="Shape_110">
    <path d="M144.7,144.1c-.2,1.2-.6,2.3-.6,3.3,0,3,0,6.1.3,9.1.2,1.7-.6,2.3-2.1,2.5-5.1,1-10.1,1.9-15.2,2.9-5.5,1.1-11,2.4-16.5,3.5-3.6.7-7.2,1.3-10.7,2-4.4.9-8.8,2-13.2,2.9-3.7.7-7.5,1.3-11.2,2-3.7.7-7.5,1.6-11.2,2.3-3.8.8-7.6,1.5-11.4,2.2-3.2.6-6.4,1.3-9.6,1.9-3.5.7-7.1,1.5-10.6,2.3-2.8.6-5.6,1.2-8.4,1.7-4.1.8-8.3,1.7-12.4,2.5-.9.2-1.9.4-2.8.6-1.6.4-2,0-2-1.7,0-12.1,0-24.2,0-36.3,0-18.5.2-36.9.3-55.4,0-1.5.5-3.1.6-4.6,0-.8-.3-1.6-.3-2.5,0-5.3.2-10.6.4-15.9,0-.4.6-1,1.1-1.1,5.9-1.3,11.9-2.7,17.9-3.9,4.4-.9,8.8-1.7,13.2-2.6,4.3-.9,8.6-1.9,13-2.8,4-.8,8.1-1.6,12.1-2.1,3.7-.4,6.9,1.3,9.9,3.4,7.1,4.8,14.2,9.6,21.3,14.4,5,3.4,10,6.7,15,10.1,5.9,4,11.8,8.1,17.7,12.2,1.4.9,2.8,1.2,4.5.8,2-.4,4-.4,6-.7,3.9-.6,7.7-1.3,11.5-1.9,4.3-.7,8.6-1.2,12.8-2,4.5-.8,8.9-1.8,13.4-2.5,2.9-.5,5.8-.6,8.7-1,2-.3,3.9-.7,5.9-1,2.3-.4,4.6-.9,6.9-1.2,2.6-.5,5.3-.9,7.9-1.3,2.5-.4,4.9-.9,7.4-1.3,2-.3,4-.9,6.1-.9,5.4-.2,9.3,2.2,11.7,7,2,4.1,3.8,8.4,5.9,12.5.9,1.8,1.7,3.9,4.1,4.2.7,0,1.4.3,2,.2,3-.5,4.9.3,5.6,3.2.8,3.5,1.3,7.2,1.9,10.7.4,2.7-1.5,3.9-3.4,4.6-1.7.6-3.6.6-4.7,2.4-1.5,2.4-3,4.7-4.6,7-.8,1.2-1.6,2.6-2.8,3.5-1.1.9-2.6,1.3-4,1.7-3.2.8-6.4,1.2-9.6,2-1.4.4-1.5-.3-1.9-1.2-.6-1.8-1.3-3.7-1.9-5.5-1.3-3.9-3.4-7.3-6.1-10.3-2.2-2.4-4.5-4.8-7.1-6.7-4.8-3.6-10.2-5.8-16.1-6.8-2.3-.4-4.7-.8-7-.6-4.9.3-9.7,1.3-14.5,3-5.3,2-9.6,5.4-13.3,9.3-4.6,4.8-7.7,10.6-9.3,17.2-.2.8-.4,1.5-.6,2.5M26.9,124.5c.2.2.5.3.7.5,0,0,.1-.1.2-.2-.3-.1-.6-.3-.9-.6-.2-.2-.5-.3-.7-.5,0,0-.1.1-.2.2.3.1.6.3.9.6M12.7,183.7c-.4,0-.8,0-1.2,0,0,0,0,.2-.1.3.4,0,.7,0,1.1,0,.1,0,.3-.2.6-.3.3,0,.5-.1.8-.2,0-.1,0-.3-.1-.4-.3.2-.6.4-1,.6M9.3,72.9c.2-.2.5-.3.7-.5.1,0,.2-.2.2-.3-.1,0-.2,0-.3-.1-.3-.1-.6-.3-.9-.4,0,.5.2,1,.3,1.7-.2.3-.4.6-.6.8.2.1.6.3.6.3.2-.3.4-.7.7-1.1-.2,0-.4-.2-.6-.4M80.9,111.3c.4,0,.8,0,1.3,0,.2,0,.3-.2.5-.3-.1,0-.3-.3-.4-.3-.6,0-1.2.2-2,.3l-1.1.6c.4,0,.8,0,1.1,0,.1,0,.3-.2.6-.3M50.7,125.3c-.5.5-1,.9-1.5,1.4-.8.9,0,.9.6.8,1.8,0,.8-1.5,1.2-2.3.3.2.6.5,1,.7.2,0,.5,0,.8,0-.2-.3-.3-.7-.6-1-.1-.1-.5,0-.7-.2-.3-.2-.6-.5-.9-.8,0,.4.1.8,0,1.3M38.4,125c-1-.6-1.7,0-2.3.7.4.2.7.4,1.1.7,0,0,0,0,0,.1.9,2.5,1-.5,1.5-.2,0-.4-.1-.8,0-1.3.7.3,1.3.7,2,.9.3,0,.7-.2,1-.3-.2-.5-.5-1.6-.6-1.5-.9.2-1.8.6-2.8.9M22.5,125.9c-1-.1-2.1-.4-3.1-.3-2,.1-4,.3-5.9.7-.6.1-1.2,1.1-1.4,1.7,0,.4.7,1.2,1.2,1.4,1,.5,2.6-.4,2.2-1-.6-1-.1-.7.5-.6.5,0,1.1-.2,1.7-.3.8,0,1.7-.1,2.5,0,1.4.2,2.5-.5,2.7-1.6.9,0,1.9,0,2.8,0,.2,0,.5-.5.6-.8,0-.1,0-.4-.2-.5-.5-.3-3,.6-3.5,1.3M21.5,74.3c-1.4.2-2.8.3-4.1.7-3.8.9-6.1,4-5.5,7.4.8,4.2,1.8,8.4,2.6,12.6.5,2.3.8,4.7,1.2,7,.6,3.2,1.1,6.3,1.8,9.5.5,2.5,1.1,5,2,7.5.8,2.3,3.5,2.8,5.3,2.5,3-.6,6.1-1.3,9.1-1.9,4-.8,8-1.5,12-2.3,5.1-1,10.3-2.2,15.4-3.2,4.1-.8,8.1-1.5,12.2-2.3,3.9-.8,7.8-1.7,11.8-2.5,6.3-1.3,12.7-2.7,19-3.9,6.1-1.2,7-6,4.7-9.8-.6-1-1.7-1.8-2.6-2.4-7.8-5.4-15.7-10.7-23.6-16-5.1-3.4-10.1-6.8-15.3-10.1-1.2-.8-2.9-1.7-4.2-1.4-5.4.9-10.7,2.3-16.1,3.4-3.1.6-6.3,1-9.4,1.7-5.4,1.2-10.8,2.5-16.3,3.9M9.7,116.4c.1-.3.4-.7.3-.8-1-1.4-.6-2.9-.3-4.4,0-.2-.2-.5-.2-.8-.2.2-.6.3-.7.5-.2.7-.3,1.4-.3,2.1,0,3.9,0,7.8,0,11.7,0,1.4-.3,2.7-.3,4.1,0,.4.7.7,1.1,1,.1-.3.1-.9.4-1,.5-.2,1.1-.3,1.6-.4,0,0,0-.1,0-.1-1.1-.6-1.6-1.4-1-2.6,0,0,0-.1-.1-.1-1.2.2-.8-.7-.8-1.2,0-1.9,0-3.7,0-5.6,0-.7.2-1.4.3-2.5M16.8,112.8c-.1-.8-.2-1.5-.3-2.3-.3-1.9-.6-3.8-1-5.8,0-.2-.2-.4-.4-.5-.2.2-.5.3-.6.5-.1.3,0,.6,0,1,.3,2.6.6,5.3.8,7.9,0,1.6,1.2,3.2,1.9,4.7.1.2.5.3.7.5,0-.3.2-.6.2-.9-.4-1.6-.8-3.2-1.3-5.1M9.7,107c0-.4-.2-.7-.2-1.1,0-1.7.2-3.5.2-5.2,0-.3-.4-.7-.5-1-.2.2-.7.4-.7.7,0,2.2,0,4.4,0,6.6,0,.6.6,1,1.3,0M9.5,133.4c.9.1,1.7.2,2.6.3.3,0,.5-.2.8-.2-.2-.3-.3-.6-.5-.7-.3-.2-.9-.4-1.1-.3-.9.5-1.2.2-1.3-.7,0-.3-.7-.4-1.1-.6,0,.4-.2.9-.2,1.2,0,.3.4.6.8,1M36,129.4c.3-.5.6-1,.9-1.6.1-.2.1-.7,0-.7-.2-.1-.6-.2-.9-.1-.8.4-1.6.8-2.4,1.3-.1,0-.2.5-.1.6.8.3,1.5.5,2.5.6M43.9,123.3c-.3.2-.7.4-1,.7-.3.4-.5.9-.8,1.4.5-.2,1-.3,1.4-.5.7-.3,1.4-.7,2.2-1,.3-.1.6,0,1,0-.3-.2-.7-.6-1-.7-.5-.1-1-.1-1.7,0M43.6,119.8c.9-.3,1.9-.6,2.8-1,.2,0,.4-.4.4-.6,0-.1-.4-.4-.5-.3-1,.2-2.1.4-3.1.6-.3,0-.4.4-.7.5.3.2.5.5,1.1.7M14.7,100.6c0-.1-.1-.3-.2-.4-.1-.3-.2-.6-.3-.9-.1.3-.3.6-.3.9,0,.9,0,1.8,0,2.7,0,.3.5.6.8.9.1-.3.4-.6.4-1,0-.7-.2-1.4-.5-2.3M31.6,132.8c.7,0,1.5.2,2.2.2.4,0,.9-.3,1.3-.5.1,0,.1-.3.2-.5-.4,0-.9-.1-1.3-.1-.6,0-1.2,0-1.8,0-.3,0-.5.5-.6.9M91.8,114.1c-.2-.9-1.9-1.5-2.8-1.1-.3.2-.5.5-.7.8.3.1.6.4.9.4.8,0,1.6,0,2.6-.1M109.5,154.2c-.4.9-.8,1.7-1.1,2.6,0,0,.4.3.7.3.3,0,.9-.2.9-.3,0-.8-.2-1.6-.4-2.6M108,165.1c.3,0,.6,0,.9-.2.4-.2.7-.4.9-.7,0-.1-.1-.7-.3-.7-.4,0-.8,0-1.1.2-.3.1-.5.4-.7.6-.3.2-.7.3-1,.4.4.2.7.4,1.2.4M55.6,115.9c-.5.1-1.1.1-1.5.4-.3.2-.4.7-.7,1.1.2,0,.5.2.5.1.8-1,1.6-.6,2.5-.3.6.2,1-.1.5-.7-.2-.3-.7-.4-1.4-.6M28.7,131.5c.5,0,1,.2,1.5.2.3,0,.5-.1.8-.2-.1-.2-.2-.6-.4-.6-.9,0-1.7,0-2.6,0-.2,0-.3.5-.5.7.3,0,.6,0,1.1-.2M32.5,126.6c.2-.2.3-.4.6-.5.8-.5.2-1.1.1-1.7,0-.2-.4-.3-.6-.4-.2.5-.4,1-.5,1.5,0,.3,0,.7.5,1.1M13.1,96.4c.2,0,.3.1.5.2,0-.9,0-1.8,0-2.8,0-.1-.4-.3-.5-.3-.2,0-.4.3-.4.4,0,.8.2,1.5.5,2.4M136.4,158.1c-.5.7-.5,1.2.5,1,.8-.2,1.5-.5,2.2-.8,0,0-.1-.4-.1-.4-.8,0-1.5.2-2.6.3M21.5,67.8c.6-.3,1.2-.5,1.8-.8-.8,0-1.5-.1-2.3-.2,0,0-.1,0-.1,0-.5.3-1.1.6-1.6.9.6,0,1.1,0,1.7,0,.1,0,.2,0,.6,0M87.7,109.4c-.1,0-.3,0-.4.1-.5.4-1,.8-1.6,1.1.7,0,1.3.1,2,0,1.2-.1.7-.7,0-1.3M89.8,72.9c-.2-.2-.5-.5-.6-.5-.6.3-1.1.7-1.6,1.1,0,0,0,.3,0,.5.5-.2,1-.3,1.5-.5.3-.1.5-.3.6-.6M67.4,127.1c-.5-.6-.9-1.1-1.4-1.7-.1-.1-.5-.1-.7,0,0,0-.2.5-.2.5.9.3.8,2.1,2.3,1.2M145.2,129.8c-.3,0-.5,0-.8.1.4.3.8.8,1.2.8.7,0,1.3-.4,2-.7-.5,0-.9-.2-1.4-.2-.2,0-.4,0-1,0M90,79.2c-.2.3-1-.9-.8.3.1.5.6.9,1.1,1.3.1.1.6,0,.8-.1-.2-.4-.5-.9-.7-1.3,0,0,0,0-.4-.1M83.5,76.3c.5.3,1,.7,1.5,1,0,0,.3-.2.5-.2-.3-.4-.4-.9-.8-1-.4-.1-.9,0-1.2.3M64.8,126.8c-.6-1-1.1-.5-1.6,0-.1.2,0,.5-.1.8.6-.2,1.6,1.1,1.8-.8M63.4,124.6c-.2-.1-.3-.3-.5-.4-.3-.1-.5-.2-.8-.2,0,0-.2.3-.1.4.2.3.4.7.7.8.5.2,1,.2,1.6.1,0,0,.2-.4.2-.6-.3,0-.5,0-1.1-.1M73.1,69.1c.7.5,1.5,1.1,2.2,1.6,0-.1.2-.3.2-.4-.7-.6-1.3-1.2-2.1-1.8,0,0-.3.3-.4.6M148.4,128.9c-.4-.5-.9-1.1-1.3-1.6,0,.2-.2.5-.1.7.2.5.5,1,.8,1.4,0,0,.5-.3.7-.6M42.1,119.6c-.8,0-1.6-.1-2.4-.1-.2,0-.4.3-.6.5.2.2.4.5.6.4.7-.2,1.4-.4,2.3-.8M21.2,121.7c-.3,0-.7,0-1,0,.2.3.2.8.5.9.4.2.8.2,1.3.3-.1-.4-.3-.8-.7-1.2M109.8,162.6h.5c0-.3,0-.7,0-1.1,0-.4,0-.8,0-1.1-.2,0-.5,0-.5,0-.2.4-.3.9-.3,1.3,0,.2.2.4.5.8M32.1,127.7c-.5.3-.9.6-1.4.9,0,0,0,.4,0,.6.6-.3,1.2-.6,1.8-1,0,0-.2-.4-.4-.5M47.3,66.7c.2-.2.4-.3.6-.5-.2-.2-.4-.6-.6-.6-.5,0-.9.3-1.3.5.4.2.8.5,1.3.6M53.9,125h.4c0-.3-.1-.9-.2-.9-.6,0-1.3.1-1.9.2.3.2.6.4.9.5.2,0,.4.2.9.2M72.1,113.3c.5-.3,1-.5,1.5-.8-.4,0-.9,0-1.3.1-.2,0-.4,0-.6.1-.3.2-.5.4-.7.6.3,0,.6,0,1.1-.1M37.1,64.3c.3-.2.5-.3.8-.5-.3,0-.7-.2-1-.2-.6.2-1.2.5-1.8.7,0,0,0,.2,0,.2.5,0,1.1-.2,2-.3M26.7,127.9c-.1.3-.3.5-.4.8,0,.1,0,.3.1.5.3-.1.9-.2.9-.4.1-.5,0-1,0-1.5-.2.2-.3.3-.6.6M200.7,89.3c-.2-.3-.5-.9-.7-.9-.6.1-1.2.5-1.8.7.4,0,.9.1,1.3.2.3,0,.5,0,1.1,0M42.1,126.8c-.4.2-.9.3-1.3.5-.1,0,.1.6.2.9.4-.4.7-.8,1.1-1.5M60,127.7c-.4-.5-.7-1-1.1-1.4,0,0-.3.1-.5.2.3.4.7.9,1,1.3,0,0,.3,0,.6,0M94.1,167.3c-.5,0-1.1,0-1.6-.1,0,.3,0,.6.1.9.4-.2.9-.4,1.5-.8M110,157.6v1.5c.3-.1.6-.3.9-.4-.2-.4-.5-.8-.9-1.1M17.9,73.4s0,0,.1-.1c0,0,0,0,0-.1-.5-.3-1.1-.5-1.6-.7-.2,0-.4,0-.6.1,0,0,.1.2.2.2.6.3,1.2.5,1.9.7M30.3,121.1l-.3.7c.4,0,.9.3,1.3.3.2,0,.3-.5.4-.7-.4,0-.7-.1-1.4-.2M59.2,115.9c.5,0,1,0,1.5,0,.2,0,.4-.4.5-.6,0,0,0-.2,0-.3-.7.3-1.4.5-1.9,1M162.1,94.5c0,0-.1.2-.2.3.7.3,1.4.7,2.2,1,0,0,.1-.3,0-.3-.6-.3-1.2-.7-2.1-1M69.2,113.9l.5-.2c-.1-.1-.2-.4-.3-.4-.4,0-.8.2-1.1.3-.4.1-.7.4-1.1.5.4,0,.9,0,1.3-.1.1,0,.3,0,.8-.1M11.6,84.9c0-.3,0-.6,0-.8,0-.3-.3-.7-.4-1-.2.4-.5.8-.5,1.2,0,.3.5.5.9.6M75.4,112.6c.4-.1.9-.2,1.3-.3.1,0,.2-.2.3-.3-.6,0-1.3,0-1.9,0,0,0,0,.4.3.6M99.3,166.7c0-.5.1-1,.2-1.4-.2,0-.6.2-.6.3,0,.4.2.9.4,1.2M24.6,127.1c.1.4.2.8.3,1.1.2-.1.6-.2.6-.4.2-.6,0-1.1-.9-.7M248.4,125.6c.3-.3.5-.6.8-.9h-1.4c.1.2.2.5.6.9M49.6,118.3c.4-.2.8-.4,1.2-.6,0,0-.2-.2-.2-.2-.5,0-1.1.1-1.6.2.2.2.3.5.6.6M44.4,126.1c-.4-.1-.9-.2-1.3-.3.1.2.2.5.3.6.3.3.6.5.9.7,0-.3.2-.6,0-1M9,94c0-.4,0-.9,0-1.3,0,0-.2.2-.3.3-.4.6-.8,1.1.3,1.1M70.5,124.6c.2-.5.4-1.1-.5-1-.4,0-.8,0-1.2.1.4.2.9.3,1.3.5,0,0,.2.1.4.3M109.8,125c.2,0,.3,0,.5,0,.3,0,.6,0,.9-.1,0,0,0-.2-.1-.2-.3-.1-.7-.3-1-.3-.3,0-.7.2-1,.3,0,0,0,.3,0,.5.2,0,.4,0,.7-.3M116,112.3c-.4,0-.7-.1-1.1-.2.2.3.2.7.5.8.2.1.6,0,1,0,0-.3-.1-.5-.4-.6M76.4,114.3c-.5,0-.9,0-1.4,0-.1,0-.3.1-.3.2,0,.1,0,.4.1.4.6-.1,1.2-.3,1.7-.6M20.2,68.5c-.1.3-.3.6-.4.9.3,0,.7,0,1,0,0-.3-.1-.5-.5-.8M11.8,120.1c.4,0,.7,0,1.1-.2,0,0,0-.5,0-.7-.4.2-.8.5-1.1.9M12.4,131.1c.1-.3.3-.6.3-1,0,0-.4-.2-.6-.3,0,.4,0,.9.3,1.3M25.1,65.9c.1.3.2.6.3,1,.4-.1.7-.3,1.1-.4-.4-.2-.7-.4-1.4-.5M129.8,103.7c-.4-.4-.7-.8-1.1-1.1,0,.1-.2.3-.2.4.4.3.7.6,1.3.8M11.8,89.6l.3,1c.2-.2.3-.3.5-.5-.2-.2-.4-.4-.8-.5M24.3,122.9c-.5-.2-1-.3-1.5-.4,0,0,0,.3-.1.4.4,0,.8.1,1.1.2.1,0,.2,0,.5-.2M111.3,96.2c0-.2-.1-.4-.2-.6-.2-.3-.4-.6-.5-.9,0,.4,0,.8.1,1.2,0,.2.3.3.6.3M111.6,111.8c0-1-.6-.6-1.1-.5-.2,0-.3.1-.5.2.4.1.7.3,1.1.4,0,0,.2,0,.5-.2M57.4,174.5c-.4,0-.7,0-1.1.2,0,0,0,.4,0,.6.4-.2.9-.4,1.2-.8M38.1,178.9c.3,0,.5-.2.8-.2-.1-.1-.2-.4-.3-.4-.4.1-.8.3-1.3.4.1,0,.3.1.8.2M18.8,121.9c-.3.1-.6.2-.9.4.3.2.5.3.8.5.1-.2.2-.4.2-.8M104.4,136.2c0-.3,0-.6-.1-.8,0-.1-.4,0-.7,0,.2.3.4.7.8.8M41.6,63c-.4,0-.7-.1-1.1-.2,0,.2.1.5.1.5.4,0,.7,0,1-.3M8.7,96.2c.2.3.3.5.5.8,0,0,.3-.2.4-.2-.3-.2-.5-.5-1-.5M88.1,168.8c.1-.1.3-.3.4-.4-.4,0-.7-.2-1.1-.2-.2,0-.3.3-.4.5.2,0,.5,0,1.1,0M90.8,168c.3,0,.6-.2,1-.3-.5,0-1,0-1.6,0,.1,0,.3,0,.6.3M17.1,130.7c0-.3.1-.5.2-.8-.3,0-.6,0-.8,0,.2.3.3.6.6.7M8.9,108.7c-.1.2-.2.4-.3.6.4,0,.7.1,1.1.2-.1-.3-.3-.6-.8-.9M16.8,68.3c.3.2.6.3.8.5,0-.3,0-.6,0-.8-.3,0-.5.1-.9.4M88.1,115.2c.2.2.4.5.6.6,0,0,.3,0,.4,0,0,0,0-.2,0-.2-.2-.1-.4-.2-1-.3M81.2,73.7c-.3.1-.5.2-.8.4.2.2.4.4.6.6.1-.3.2-.5.2-1M106.2,121.1c.4-.1.7-.3,1.1-.4-.1-.2-.2-.3-.4-.5-.3.2-.6.5-.7.9M10.3,69.6c.4.2.8.3,1.2.5,0-.1,0-.3.1-.4-.4,0-.8-.1-1.3,0M55.1,61.8c-.3,0-.6-.1-.9-.1-.2,0-.5.1-.7.2.2.2.4.4.6.4.3,0,.6-.2,1-.5M97.8,125.3c-.3,0-.5-.1-.8-.2,0,.3,0,.6,0,.8.3-.2.6-.3.7-.6M108.7,162.1c-.3-.2-.6-.5-.9-.7-.1.2-.2.3-.4.5.4.1.7.3,1.3.3M55.8,125.8l-.7-.3c-.1.2-.2.4-.3.6.3,0,.6,0,1-.3M21.8,124c0,.4,0,.7.1,1.1,0,0,.2,0,.3,0,0-.4,0-.8-.4-1.2M13.4,71.4c0,.2,0,.4,0,.6.3-.3.5-.5.8-.8-.2,0-.4,0-.8.1M47.8,122.7c-.1.2-.2.4-.3.7.3,0,.5.1.8.2-.1-.2-.2-.4-.5-.8M42.8,129.4h1.2s0-.2,0-.2c-.4,0-.7,0-1.1.2M63.2,116.4c.2-.1.4-.2.6-.3-.2-.3-.4-.5-.5-.8,0,.2,0,.5,0,1.1M61.9,61.5c-.2-.2-.4-.5-.6-.7-.1.2-.3.4-.4.6.3,0,.5.2,1,0M14.7,68.5c-.3.1-.5.2-.8.4.3,0,.6.2.9.3,0-.2,0-.3,0-.6M111.4,155.2c0-.3-.1-.6-.2-.9-.2.1-.4.2-.6.3.1.2.3.4.8.5M93.4,114.7h-1.3c0,.1,0,.3,0,.4.4,0,.7-.2,1.2-.4M123.8,106.1c.4-.1.7-.3,1.1-.4,0,0-.2-.2-.2-.2-.3.1-.7.3-.8.6M142.9,130.8c-.3.1-.5.2-.8.4.3,0,.6.2.9.3,0-.2,0-.3,0-.6M108.2,130.5c0,0,0,.1,0,.2,0,0,0,.1.1,0,.4,0,.8-.1,1.1-.2,0,0,0-.3,0-.3-.3,0-.6,0-1.1.2M39.4,66.5c0,.2.1.4.2.6.2,0,.4-.2.6-.2-.2-.1-.3-.3-.8-.4M33.8,130.8c.2-.1.3-.3.5-.4-.2,0-.4-.2-.6-.2,0,.2-.1.4.2.6M8.9,99c.2-.2.3-.5.5-.7-.1,0-.3-.2-.4-.3,0,.3-.1.5,0,1M128.6,106.1c-.3,0-.5-.1-.8-.2,0,.2.1.5.1.5.3,0,.5,0,.6-.3M29.3,65.9c.3,0,.5-.1.8-.2,0-.1-.2-.3-.3-.4-.2.2-.5.3-.5.6M30.9,64.9c-.2.2-.3.5-.5.7,0,0,.2.2.3.2.2-.3.3-.6.2-1M92.9,76c-.2.2-.3.5-.5.7.1,0,.3.2.4.3,0-.3.1-.5,0-1M45.4,65.1c-.4-.2-.7-.3-1.1-.5,0,.1,0,.3,0,.3.3.1.7.2,1.1.2M88.1,75.6c0,.3,0,.6,0,1,0,0,.3,0,.3,0,0-.3,0-.6-.3-1M62.1,115.6c.3,0,.5-.1.8-.2,0-.1-.2-.3-.3-.4-.2.2-.5.3-.5.6M45.5,129.2c.3,0,.5-.1.8-.2,0-.1-.2-.3-.3-.4-.2.2-.5.3-.5.6M99.9,135.5c.3,0,.6,0,1,0,0,0,0-.3,0-.3-.3,0-.6,0-1,.3M61.9,127.1c-.2-.2-.5-.3-.7-.5,0,.1-.2.3-.3.4.3,0,.5.1,1,0M11.1,121.1c-.2.1-.3.3-.5.4.2,0,.4.2.6.2,0-.2.1-.4-.2-.6M120.5,122c-.2.2-.3.5-.5.7.1,0,.3.2.4.3,0-.3.1-.5,0-1M111.1,162.3c0,.2.1.4.2.6.2,0,.4-.2.6-.2-.2-.1-.3-.3-.8-.4M93.9,143.1c.2-.2.3-.5.5-.7-.1,0-.3-.2-.4-.3,0,.3-.1.5,0,1M17,123c-.2,0-.5-.2-.7-.2,0,.1,0,.3,0,.4.3,0,.6,0,.8-.2M106.7,123.2c-.1-.2-.3-.5-.4-.7,0,0-.2.2-.2.2.1.2.3.5.6.5M79.1,72.9c0,.1-.1.3-.2.4l.9-.2c-.2-.1-.3-.2-.6-.2M56.6,126.6v-1c-.2.3-.3.6,0,1M26.2,122.5c.1.2.3.3.4.5,0-.3.2-.5.3-.8-.2,0-.4,0-.6.3M129.3,121.4c0-.2,0-.5-.2-.6,0,0-.4,0-.6,0,.1.2.3.4.7.6M28.7,128.2c.2-.1.5-.3.7-.4,0,0-.2-.2-.2-.2-.2.1-.5.3-.5.6M106.8,115.9v-.7c-.3.1-.5.3-.8.4.1,0,.3.1.8.2M25.6,70.3c0-.1-.1-.3-.2-.4-.1.3-.3.5-.4.8.2,0,.4,0,.6-.3M33,129.7v-.7c-.3.1-.4.3-.6.4.2.2.3.3.6.4M65,63.3l-.4.6c.3,0,.6.2.9.3-.1-.2-.2-.4-.5-.8M91.3,109.7c0,.2,0,.4,0,.6.2,0,.3-.1.5-.2-.1-.2-.2-.4-.5-.4M12.7,109.7c-.2-.2-.3-.4-.5-.6-.1,0-.2.2-.3.3.2.1.3.3.8.4M24.9,131.9c-.2,0-.4,0-.6,0,0,.2.1.3.2.5.2-.1.4-.2.4-.5M130.6,108.7c-.2.2-.3.4-.5.7,0,0,.1.1.2.2.1-.2.3-.5.3-.9M114,154.5c0-.2,0-.4,0-.6-.2,0-.3.1-.5.2.1.2.2.4.5.4M31.2,130.5c0-.3-.1-.6-.2-1,0,.3,0,.6.2,1M23,131.3c0,.1.1.3.2.4.1-.3.3-.5.4-.8-.2,0-.4,0-.6.3M11.3,79.4c-.1-.2-.3-.5-.4-.7,0,0-.2.2-.2.2.1.2.3.5.6.5M113.9,149.8c.2.2.3.3.5.5.1-.2.3-.4.4-.5-.2,0-.5,0-.9,0M84.6,169.6c-.3-.2-.5-.3-.8-.5,0,.1-.1.3-.2.4.3,0,.5.2,1,0Z"/>
    <path d="M582,162.3c14.2,0,28.2,0,42.2,0,3.5,0,7,.3,10.5.3,2.1,0,4.1-.1,6.2-.3,1.9-.2,2.8-1.5,2.8-3.9,0-9.6,0-19.3,0-28.9s0-10.4,0-15.6c0-4.9,0-9.8-.4-14.6-.1-1.7,0-3.2.3-4.8.2-1.6-.2-3.4-.2-5,0-.8,0-1.6,0-2.3v-22.1c0-5.2,0-10.3,0-15.5,0-3.3,3.5-8.1,7.6-8,4.3,0,8.6-.1,12.9-.3,16.8-.7,33.5-.1,50.3-.4,3.3,0,6.5-.3,9.8-.3,13.5-.1,27-.2,40.4-.3,2.1,0,4.3,0,6.4,0,2,0,3.2,1,3.1,3-.2,7.2,0,14.4,0,21.6,0,.4-.1.7-.2,1.1-.2-.3-.4-.6-.6-.9-2.9-4.3-5.8-8.7-8.7-13-.9-1.3-2.1-2-3.7-2-16.6,0-33.1,0-49.7,0-10.7,0-21.4.2-32.1.3-4,0-5.8,2.4-6.1,5.9-.1,1.6-.3,3.2-.3,4.7,0,2.2.2,4.4.3,6.6,0,1-.3,2.1-.3,3.1.1,2.1.5,4.2.6,6.3,0,.9-.3,1.9-.3,2.8,0,1.3.2,2.7.3,4,0,.7-.3,1.3-.3,2,0,2.5,0,4.9,0,7.4,0,2.5-.1,5-.1,7.5,0,1.7.1,3.4.1,5,0,1.9,0,3.8,0,5.7.3,6.5,2.9,11.7,8.8,14.7,2.2,1.1,4.8,1.7,7.2,1.7,27.6.1,55.3,0,82.9,0,1.9,0,2.3.5,1.9,3.5s-.5,8.5,0,12.7-.3,2.6-1.7,2.7c-3.2.3-6.5.5-9.7,1-3.5.5-6.9,1.6-10.2,3.1-3.7,1.7-7.3,3.4-10.5,6-4.3,3.4-8.5,6.9-11.4,11.7-2.1,3.5-3.8,7.3-5.6,11-.6,1.1-1.4,1.8-2.7,1.7-2.7-.1-5.3-.3-8-.3-2,0-4,0-6,0-1.4,0-2.7-.3-4.1-.3-35.7,0-71.4,0-107.1,0s-4.5,0-6.7,0c-19.3-.1-38.6-.2-58-.3-1.2,0-1.8-.5-2.2-1.7-1.8-5.2-4.7-9.7-8-14-.5-.6-.9-1.3-1.3-2,.7,0,1.5-.1,2.2-.1,19.6,0,39.3,0,59.1,0M593.6,164.7c.3.1.6.3,1,.3.3,0,.6,0,1,0,0-.2,0-.6-.1-.7-.3-.2-.7-.4-.9-.3-.3,0-.6.4-.9.5-.3-.2-.5-.5-.8-.5-.4,0-.8.2-1.1.4-.1,0,0,.5,0,.7.4,0,.7-.1,1.1-.2.3,0,.6-.2.8-.2M752.3,135.2c-.1.3-.2.7-.3,1,.1,0,.3,0,.3,0,0-.4,0-.7,0-1.3.3-.5.6-1,.8-1.4-.3,0-.7.1-1,.3-.3.2-.5.6-.8.9.3.1.6.3.9.6M704.9,130c.3.3.5.5.8.8,0-.1.2-.3.2-.4-.3-.2-.6-.4-1-.8.2,0,.4-.2.6-.2-.2-.2-.4-.5-.5-.6-1.2,0-2.5,0-3.7,0-.2,0-.4.3-.5.5-.1.4-.2.9-.3,1.3.3,0,.7,0,.9-.2,1.1-.9,2.3-.9,3.5-.5M681.4,128.2c.9.5,1.8.8,2.7,1.4.8.6,3.2.8,3.9.2.1-.1-.1-.8-.3-.9-.8-.2-1.6-.3-2.4-.3-.8,0-1.2-.3-1.7-.8-.4-.4-1.2-.4-1.8-.5,0,0-.3.5-.2.9M773.1,135.8c0-1.2,0-2.5,0-3.7,0-.3-.5-.7-.7-1-.2.4-.5.8-.5,1.2,0,1.6.2,3.2.3,4.7,0,.6,0,1.3,0,1.9,0,.3.3.5.4.8,0-.2.2-.5.2-.7.1-1,.2-2,.3-3.3M732.2,129.7c.8.3,1.6.6,2.4.8.2,0,.8-.4.8-.5-.1-.4-.4-1-.6-1-1.8,0-3.5,0-5.3,0-.4,0-.9.1-1.3.3-.2,0-.3.4-.5.6.2.1.4.4.6.4,1.2,0,2.5-.2,3.9-.5M577.9,178.2c-.5.2-1,.4-1.5.6.5.1.9.3,1.4.3,2.2,0,4.4,0,6.6,0,.4,0,.7-.3,1.1-.4-.4-.2-.8-.5-1.2-.5-2.1-.1-4.2-.1-6.4,0M602.7,178.4c-.8,0-1.7.2-2.5.1-1.8,0-3.6-.2-5.4-.3-.3,0-.5.4-.8.6.2.1.3.4.5.4,2.5,0,5.1,0,7.6,0,.2,0,.4-.3.6-.8M565.8,178.2c-1.9.1-3.8.2-5.7.3-.2,0-.4.3-.6.4.2,0,.5.2.7.2,2.1,0,4.1,0,6.2,0,.3,0,.6-.2.9-.3-.3-.1-.6-.2-.9-.4-.1,0-.3-.1-.6-.3M756.5,42.4c.2,0,.4.2.6.2,1.6,0,3.3,0,4.9,0,.3,0,.6-.5,1-.8-.3,0-.6-.2-.8-.2-1.9,0-3.8.1-5.7.2,0,0,0,.3,0,.6M541.8,179.2c.4,0,.8-.1,1.2-.2.3,0,.6-.2.9-.2-.4-.2-.7-.5-1.1-.5-1.5,0-2.9,0-4.4,0-.3,0-.6.2-.9.3.3.2.7.6,1,.7,1,0,1.9,0,3.2,0M547.3,179.2c.8,0,1.5,0,2.3,0,.3,0,.5-.2.8-.2-.2-.1-.4-.4-.7-.4-1.5-.1-3.1-.2-4.6-.3-.3,0-.6.2-.8.3.3.2.5.5.8.6.6,0,1.3,0,2.3,0M709,129.2c-.6,0-1.1,0-1.7,0,0,0-.1.4-.1.4.4.2.8.4,1.2.5.4.2.8.3,1.3.4.3,0,.7,0,.9,0,.2-.3.3-.8.4-1.2-.6,0-1.2-.2-2,0M749.9,131.5c-.5.5-1,1.1-1.4,1.7,0,.1.2.5.3.8.2-.1.4-.2.6-.3.6-.3,1.2-.6,1.8-.8.3-.1.6-.1.9-.2-.2-.3-.3-.7-.6-.9-.3-.2-.8-.2-1.5-.3M691.1,130.2c.4-.2.8-.5,1.1-.7-.4-.2-.8-.5-1.2-.5-.5,0-1.1,0-1.6,0-.4,0-.7.2-1.1.2.4.3.7.8,1.2,1,.3.2.8,0,1.6,0M739.3,132.9c.7,0,1.5.1,2.2.3.3,0,.6.4.9.5,0-.4.2-.8.1-1.2,0-.2-.5-.3-.8-.4-.7-.1-1.5-.3-2.3-.3-.3,0-.5.1-.8.2.2.2.3.5.6.9M726.7,136.5c-1.1-.5-1.4.3-1.6,1-.3.8-.4,1.7-.6,2.6.2,0,.5,0,.6-.1.6-1,1.1-2.1,1.6-3.5M675.1,174.5c.4.3.8.6,1.2.8.3,0,.7-.2,1-.3-.3-.1-.6-.2-.9-.3-.3-.1-.5-.3-.7-.5.2-.2.3-.3.5-.4.3-.2.6-.3.8-.5,0,0-.1-.5-.2-.5-.4,0-.9,0-1.2.3-.3.3-.4.8-.6,1.5M674.4,131.3c-.5-.8-3.1-1.2-3.7-.5-.1.1,0,.7,0,.7,1.2,0,2.3,0,3.6-.1M720,129.8c.8.1,1.5.3,2.3.3.4,0,.7-.5,1.1-.7-.3-.2-.6-.5-.9-.5-.9,0-1.7,0-2.6,0,0,0,0,.5,0,.9M569.4,179.2c.5,0,1.1.1,1.6,0,.3-.1.6-.6.8-.8-.3-.1-.7-.4-1-.4-.7.1-1.4.4-2.1.6-.2,0-.3.3-.5.4.3,0,.5.2,1.1.2M626.7,164.7c.7,0,1.5.2,2.2.1.3,0,.6-.5,1-.7-.1-.2-.3-.4-.4-.4-.9.5-1.8,0-2.6,0-.1,0-.2.6-.2,1.1M767.6,133.2l-.3.3c1.1.4,2.3.7,3.4,1.1.1,0,.4-.3.4-.4,0-.1-.2-.4-.4-.4-1-.3-2-.5-3.1-.5M646,132.4c-1.4.2-.4,1.1-.4,1.6,0,.5.6,1,.9,1.5.1-.2.3-.4.3-.6-.1-.9-.3-1.7-.8-2.5M659.5,155.3c.1.5.3,1,.4,1.6,0,.3,0,.6.1.9,0,0,.3,0,.3,0,.4-.8.8-1.6,1.1-2.4-.6-.1-1.3-.2-1.9,0M588.2,178.5c.1.3.3.9.3.9.7-.1,1.5-.3,2.2-.6,0,0,0-.4,0-.4-.7,0-1.5,0-2.5,0M662.1,126.4c0,.3,0,.5,0,.8,1.1-.4,2.2-.7,3.2-1.1,0,0,0-.3,0-.4-.2,0-.4,0-.5,0-.8.2-1.7.4-2.7.7M698.3,128.9c-.8,0-1.5,0-2.3,0-.2,0-.3.3-.5.4.2,0,.3.1.5.2.5.1,1.1.2,1.6.3,1.1.4,1.2,0,.6-1M660.5,175.1c-.2-1.4-1.3-.6-2-.8,0,0-.2.5-.2.8,0,.2.3.5.4.5.6,0,1.2,0,1.9-.5M603.8,178.5c0,.2,0,.6.2.6.6.2,1.2.3,1.8.3.3,0,.5,0,.8,0-.2-.3-.4-.9-.7-1-.5-.2-1.2,0-2.1,0M580.8,175.3c.5-.1,1-.1,1.4-.4.2,0,.1-.6.2-.9-.6,0-1.3,0-1.9,0,0,0,0,.8.3,1.2M738.2,134.4c0,1.9,1.1.6,1.7.6.2,0,.5-.2.7-.3-.3-.2-.5-.6-.8-.6-.4,0-.9.2-1.6.3M610.2,178.7c.3,1.6,1.4,1,2.4.8.2,0,.3-.3.5-.5-.3-.1-.5-.4-.8-.4-.6,0-1.3,0-2.1.1M654.5,175c-.8-.2-1.5-.5-2.3-.6,0,0-.4.4-.3.5.3.6,2.2.8,2.7,0M555.8,179.2c.2,0,.3,0,.5,0,.4-.2.9-.4,1.3-.8.1,0,0-.5,0-.8-.4.2-.7.4-1.1.5-.1,0-.3,0-.5,0-1.2,0,0,.6-.1,1M756.4,132.4c-.3.1-.7.2-1,.3-.2.2-.3.5-.5.7.5,0,1.1.3,1.6.2.3,0,.4-.7.7-1-.2,0-.4,0-.8-.2M620.7,178.5c-.4.2-.8.4-1.1.5.4.1.7.4,1.1.4.6,0,1.2-.2,1.8-.3-.5-.2-1.1-.3-1.8-.6M531.7,165.3s.5,0,.7,0c0-.2-.1-.5-.2-.5-.6,0-1.3-.2-1.9,0-.3,0-.6.4-.9.6,0,.1.2.3.2.3.4-.1.7-.4,1.1-.4.3,0,.6,0,1.1.1M753.5,130.2c.4-.2.8-.5,1.1-.8,0,0-.2-.5-.3-.5-.5,0-1,0-1.5,0,.1.4.3.8.7,1.2M752.6,132.6c1.2-.3.4-1.3.6-2-.3,0-.6,0-.9,0,0,.6,0,1.2.2,2M676.4,123.2c-.4-.3-.8-.7-1.2-1,.3.5.5,1,.8,1.5,0,0,.1.2.2.2.4.4.8.8,1.2,1.2-.3-.5-.7-1.1-1-1.9M534.7,178.5c-.7-.1-1.3-.2-2-.3-.1,0-.4.3-.4.4,0,.2.2.5.3.5.7-.1,1.5-.3,2.1-.6M739.3,129c-.2.3-.3.5-.5.8.7-.1,1.4-.2,2.2-.3.1,0,.1-.4.2-.6-.5,0-1,.1-1.5.2-.1,0-.2.1-.3-.1M747.6,134.7c.2-.4.3-.8.5-1.1-.6,0-1.2,0-1.7.2-.2,0-.4.2-.5.4.2,0,.3.2.5.3.3.1.7.2,1.3.3M687.9,134.7c-.2,0-.4-.1-.5-.2-.4-.3-.8-.7-1.1-1,.2.5.4,1,.6,1.4,0,.1.2.3.3.4.2.2.5.5.7.7,0-.4.2-.8,0-1.3M611.3,174.3c-.2,0-.5,0-.7,0-.2.1-.5.4-.4.6,0,.3.4.6.6.6.4,0,.9-.1,1.3-.2-.2-.4-.3-.7-.8-1.1M659,163.9c0-.2,0-.4.1-.5-.8.3-1.5.5-2.3.8,0,0,0,.2-.1.3.6,0,1.2-.2,1.8-.3.1,0,.3-.1.6-.3M737.2,141.2c.6-.2,1.2-.4.5-1.1-.2-.3-.5-.6-.7-.8,0,.5-.2,1-.2,1.4,0,.1.2.2.5.5M661.3,130.5c-.3,0-.5,0-.8,0-.3,0-.6-.1-.9-.2,0,.3-.1.6,0,.7.3.3.7.7,1,.6.4-.2.6-.6.8-1.2M769,145.4c.2.1.4.2.7.3,0-.2.1-.4,0-.5-.2-.2-.4-.4-.6-.4-.4,0-.9.2-1.3.3-.3,0-.6.2-.9.4.3,0,.6.3.9.3.3,0,.6-.2,1.2-.3M606.7,163.9c-.9.6-.3,1.1.2,1.4.2.1.6-.1.9-.2-.2-.4-.5-.8-1.1-1.2M652,163.1c.3-.3.6-.7,1-1-.2-.1-.4-.3-.6-.4-.2.4-.4.9-.4,1.5M546.5,174.5c-.2-.2-.4-.5-.6-.5-.5.1-1,.4-1.5.6-.1,0-.1.3-.2.5.5,0,.9-.1,1.4-.2.2,0,.4-.2.8-.5M574.5,178.4c-.2,0-.5-.2-.7-.1-.3.1-.6.4-.9.7.2,0,.4.2.6.3.8.1,1,0,1-.8M648.8,139.1c.3.4.5.8.8,1.1.2-.5.4-.9.5-1.4-.4,0-.8,0-1.3.2M728.6,135.5c-.2-.2-.3-.3-.5-.4-.2-.1-.5-.2-.8-.3,0,.3-.2.8,0,.9.3.3.8.4,1.3.6,0-.2.1-.4,0-.8M661.3,164.6s0,0,.1-.1c0,0,0,0,0-.1-.6.1-1.3.2-1.9.3-.1,0-.2.3-.2.5.6-.1,1.2-.3,2-.6M631.4,178.9c-.7,0-1.4,0-2.1.1.8.2,1.5.4,2.3.5,0,0,.2,0,.3-.1-.1-.1-.2-.2-.5-.5M759.5,130c1.1-1.2-.6-.6-.7-1-.3,0-.5,0-.8.1,0,.2.1.5.3.7.3.2.6.2,1.1.2M769.5,129.4c-.5,0-1.1,0-1.6,0,.1.3.2.5.4.8.7.8,1,.3,1.2-.7M535.2,164.1c-.8.7,0,.9.4,1,.3,0,.6-.2.9-.4-.4-.2-.8-.5-1.3-.6M745.8,129.4c-.8-.2-1.6-.3-2.4-.5-.2,0-.3.1-.5.2.2.2.3.4.5.4.8,0,1.5,0,2.4-.1M640.7,164.7c0,0,.2,0,.2,0,0,0,0-.2,0-.3,0-.3,0-.6,0-1-.4,0-.9.1-1.3.2.3.3.5.5,1,.9M584,174.3c-.4.2-.7.4-1.1.6.5.1,1,.2,1.4.3,0-.3,0-.6-.4-.9M620.2,177.4c.2.2.3.3.5.4.2.1.5.2.8.3-.1-.4-.2-.8-.4-1.1-.1-.1-.6,0-.9.4M662.1,135.5c-.4-.2-.7-.3-1.1-.5-.1,0-.4,0-.4,0,0,.2,0,.4,0,.5.4.5.9,1.1,1.5-.1M545.7,163.9c.5,0,1-.2,1.5-.2,0,0,0-.3,0-.3-.6,0-1.1-.1-1.7-.1-.2,0-.3.3-.5.4.1,0,.3.1.8.2M626.5,168.5c-.3.2-.5.4-.8.5.3.2.5.5.8.7.1-.4.2-.9,0-1.3M668.1,162.6c-.3.2-.5.5-.8.7.3,0,.6.3.8.2.4-.2.8-.5,1.1-.7-.3,0-.5-.2-1.1-.2M594.7,174.6c0,.3.1.6.2,1,.3-.3.6-.6,1-1-.3,0-.6-.1-1.1,0M541.8,166.8l-.3,1c.4-.1.9-.2,1.3-.3-.2-.2-.4-.4-1-.7M649.4,132.9c.2,0,.4-.1.6-.2-.2-.3-.4-.7-.6-.9,0,0-.4.1-.6.2.2.3.3.5.6.9M533.2,163.4c-.6,0-1.3,0-1.9,0,0,0,0,.3,0,.3.6,0,1.3,0,1.9-.3M646.8,155.3c0-.3-.2-.5-.2-.8-.2.4-.5.8-.7,1.2,0,.2,0,.5.1.7.2-.3.5-.6.8-1.1M723.6,141.2c.4,0,.8,0,1.1,0-.3-.3-.6-.7-.9-1-.1.3-.3.5-.2,1M653.6,133.2c-.5.2-1,.4-1.5.6,0,0,.1.3.2.2.5-.1.9-.3,1.4-.8M742.3,134.9c-.2-.3-.3-.6-.5-.8-.2-.2-.5-.4-.8-.6,0,.5,0,1,.1,1.5,0,0,.6,0,1.1-.2M622.5,164.7l.2-.8c-.3,0-.7,0-.8.2-.2.2-.2.6-.3,1,.3,0,.5-.1.9-.4M550.4,176.7c-.3-.1-.6-.3-.9-.4,0,.3,0,.6,0,.9.1.3.4.5.6.7,0-.3.2-.5.2-1.1M761.6,129.5c.2,0,.4,0,.6,0,.4,0,.8-.2,1.2-.3-.4,0-.8-.3-1.2-.3-.3,0-.5.3-.6.6M600.7,165.1c.3.1.8.5.8.4.3-.3.5-.8.7-1.2-.4,0-.7.2-1.1.3-.1,0-.3.1-.4.5M655.3,134.5c.1.4.2.8.4,1.1.2,0,.4-.2.6-.3-.3-.3-.5-.7-1-.9M654.3,161.2c-.1-.4-.3-.8-.4-1.1,0,.4-.2.7-.2,1.1,0,.3.1.5.2.8.2-.2.3-.3.5-.8M764.5,42.2c.3,0,.7,0,1,0-.4-.3-.7-.6-1.1-.9,0,.3-.2.6,0,1M547.3,164.6c-.4,0-.8.1-1.1.2.1.2.3.6.4.6.3,0,.7-.2,1-.4,0,0,0-.3-.2-.4M571.2,163.8c.4,0,.9.1,1.3.1,0,0,.1-.4.2-.5-.6,0-1.1.2-1.5.4M526.4,166c-.4-.1-.9-.2-1.3-.3,0,0-.1.3-.2.4.4,0,.9,0,1.5-.1M652.5,132.1c.4,0,.8,0,1.1,0-.3-.2-.5-.6-.8-.7-.1,0-.4.4-.3.6M645.4,139.6c0,.3-.2.6-.3,1,.4,0,.7,0,1.1-.1-.2-.3-.4-.7-.8-.8M645.5,138.4c.3-.1.6-.2,1-.3-.3-.3-.5-.5-.8-.8,0,.3-.1.5-.2,1.1M763.8,136.7c.1-.3.2-.6.3-1h-1.4c.2.4.5.7,1.1,1M757.5,132.3c.5.2,1,.3,1.5.5,0,0,.1-.2.1-.2-.3-.2-.7-.5-1.1-.6-.1,0-.4,0-.5.4M715.2,141.8c-.4,0-.7,0-1.1,0-.1,0-.3.1-.3.2,0,.1.1.4.1.4.5-.1,1-.3,1.3-.6M662.4,179c.7.2,1.3.3,2,.5,0,0,.2,0,.3-.1-.4-.1-.9-.3-1.3-.4-.2,0-.5,0-.9,0M699.9,143.5s0,0,.1-.1c0,0,0-.1,0-.1-.3,0-.6-.1-.9,0-.1,0-.2.3-.3.4.3.2.7.4,1,.5,0-.2,0-.3.1-.6M655.1,132.1c-.4.2-.7.4-1.1.6.3.2.5.5.8.7.1-.4.3-.7.3-1.3M565.7,166.4c0-.2,0-.4,0-.6,0-.3-.2-.5-.2-.8-.1.1-.4.2-.4.3,0,.3,0,.6,0,.8,0,.2.3.3.6.3M664,165.4c.2-.3.3-.5.5-.8-.4,0-.9.2-1.3.3.2.2.4.4.8.5M760.6,134.7c.2,0,.4.2.5.2.2,0,.4,0,.6-.2-.3-.2-.6-.5-.9-.7,0,0-.3.3-.3.6M538.4,164.4c-.2,0-.5-.2-.7-.1-.2,0-.4.2-.6.3l1.4.6c0-.2,0-.4-.1-.8M665,133.2c.4.1.8.3,1.2.4,0-.1.1-.4.1-.4-.4-.1-.9-.2-1.3,0M527.7,167.3c.2.3.4.5.6.8l.7-.5c-.4-.2-.7-.3-1.3-.3M753.8,41.6c-.4,0-.7-.1-1.1-.2,0,.3,0,.5,0,.8.4-.1.8-.3,1.1-.6M757,147c-.2.2-.5.4-.7.6.5,0,1,0,1.5,0-.1-.2-.3-.4-.8-.5M662.3,173.7c-.1.4-.3.8-.3,1.3,0,0,.2.2.3.3,0-.4.1-.8.2-1.1,0-.1,0-.2-.2-.5M669.6,148.2l-.2-1.1c-.1.3-.4.5-.4.8,0,.2.4.4.6.3M559.8,175.1c.3-.1.6-.2.9-.4-.3-.2-.5-.3-.8-.5-.1.2-.2.4-.2.8M731.1,134.1c0-.3,0-.6.1-.9-.3,0-.6,0-.9,0,.1.3.3.6.7.9M663.9,166.2c0,.4,0,.8.2,1.2,0,0,.4,0,.7,0-.2-.3-.4-.7-.8-1.1M751.5,129.5c.3,0,.5,0,.8-.1-.1,0-.3-.1-.4-.2-.2-.1-.4-.3-.7-.3-.3,0-.5.1-.8.2.3.1.5.3,1.1.4M704.6,142.3c.1.3.3.5.4.8.3-.2.5-.5.8-.7-.4,0-.7-.2-1.2,0M746.6,152.2c0-.1.1-.3.2-.4-.4.2-.9.4-1.3.6,0,0,0,.5.1.7.2-.3.5-.6,1-.9M708.3,145.4c-.1.4-.3.8-.4,1.2.2,0,.4-.1.5-.2,0-.2,0-.5,0-1M575.7,172.8c.3.3.6.6.9.8,0,0,.2-.1.4-.2-.4-.3-.7-.5-1.3-.6M696.3,132.1l.5-.7c-.2,0-.3-.2-.5-.3-.1.3-.2.6,0,1M591.8,174.6c.4,0,.8,0,1.2,0,0,0,0-.2.1-.3-.4,0-.7,0-1.1,0-.1,0-.3,0-.3.3M750.5,42.8c.3-.2.5-.5.8-.7-.2,0-.4-.3-.4-.2-.2.2-.4.5-.4,1M746.3,132.1c.3,0,.5-.2.8-.2-.2-.1-.5-.4-.6-.4-.2,0-.3.4-.2.6M716.6,129.4c.2.2.5.3.7.5,0-.2.2-.3.3-.5-.3-.1-.6-.2-1,0M587.1,176.1c0,0-.2,0-.2,0,0,0,0,0,0,.1,0,.4,0,.9,0,1.3.1,0,.3,0,.3,0,0-.4.1-.7,0-1.3M657.7,132.1c-.1.2-.2.4-.3.6.3,0,.6,0,1,0-.1-.2-.2-.4-.6-.6M649.1,166c.2.1.4.2.6.3,0-.4.1-.7.2-1.1-.2.2-.4.4-.8.8M729.8,148c0-.4,0-.9,0-1.3,0,0-.3,0-.3,0,0,.4,0,.9.3,1.3M713.2,129.5c.2,0,.3,0,.5,0,.3,0,.6-.1.9-.2-.4-.1-.7-.3-1.1-.4-.1,0-.3.3-.3.6M692.8,129.5c.4,0,.8-.1,1.1-.2,0-.1,0-.3-.1-.4-.4.2-.8.3-1,.6M744.9,133.6c-.2-.3-.5-.5-.7-.8,0,.1-.2.3-.2.3.3.3.6.6,1,.5M649.4,127.4c.3,0,.6.1.9,0,.2,0,.3-.3.4-.4-.4,0-.9,0-1.3.3M649.3,135c-.2.3-.3.6-.5.8.3,0,.6,0,.8,0,0-.3-.1-.5-.4-.9M597,164.6c.3,0,.7,0,1,0,0,0-.2-.2-.3-.3-.5-.4-1-.6-.7.3M647,127.2s0,0-.1.1c0,0,0,.1,0,.1.3,0,.7.1,1,0,.1,0,.2-.3.3-.5-.3,0-.6,0-1.1.1M719.2,142.7c-.2.2-.5.3-.6.5,0,.1,0,.4,0,.6.2-.3.5-.6.5-1.1M529.2,163.3c-.4,0-.8.1-1.1.2,0,.1,0,.3.1.4.4-.2.8-.3,1-.6M649.4,161.5c.4,0,.7.1,1.1.2,0,0,0-.3.1-.5-.4,0-.7.1-1.3.4M772.3,63c.1-.3.4-.6.4-.9,0-.1-.5-.3-.7-.4,0,.4.1.7.4,1.3M714.8,140.2c-.3.2-.5.5-.8.7.2,0,.4.3.4.2.2-.2.4-.5.4-1M734.3,139.9c0,0,0,.2,0,.2,0,0,0,0,.1,0,.5,0,.9,0,1.4-.1-.4-.1-.8-.2-1.4-.2M690,139.1h-1c0,.1,0,.3,0,.4.4,0,.7-.2.9-.4M727.5,139.3c.2-.2.5-.4.7-.6-.2-.1-.4-.3-.6-.4,0,.3-.2.5,0,1M615,179.3c0-.1,0-.3,0-.3-.3-.2-.6-.3-.9-.4,0,0-.2.2-.3.3.3.1.6.2.8.3,0,0,.2.1.4,0M724.4,136.2c.3-.2.6-.5.9-.7l-.3-.3c-.2.2-.4.5-.6,1.1M735.8,144.9c-.4,0-.9,0-1.3,0,.1.2.2.4.3.7.3-.2.5-.3,1-.7M654,134.5c-.1.3-.2.7-.3,1,.1,0,.4,0,.4-.1,0-.3,0-.7-.1-.8M761.3,132.4c.2.2.4.4.5.6,0-.2.2-.4.3-.6-.2,0-.4-.1-.8,0M662.3,147v1c.2-.1.4-.2.6-.3-.1-.2-.2-.4-.6-.7M601.6,175.6c.1-.2.2-.4.3-.7-.3,0-.5-.1-.8-.2.1.2.2.4.5.8M725.7,129.4c.4,0,.8,0,1.3,0,0-.1,0-.3,0-.4-.4,0-.7.2-1.2.4M590.5,167.5c-.1.3-.3.6-.4.9.3,0,.5,0,.8,0,0-.3-.1-.5-.4-.9M722.6,150.6c0-.4,0-.8.1-1.2-.1,0-.3,0-.3,0,0,.4,0,.7.2,1.1M551.7,169.3c0,.3-.1.5-.2.8.3,0,.5,0,.8,0-.1-.3-.3-.6-.6-.7M609.7,173.7c-.2-.3-.5-.6-.7-.9-.1.1-.2.2-.3.3.2.2.5.4,1.1.6M652,161.2c.3,0,.6-.1,1-.2,0-.2,0-.4-.1-.6-.2.2-.5.4-.8.8M528,171.5l.4.5c0-.2.2-.4.2-.6-.2,0-.4-.1-.6.2M692.8,131.1c.3,0,.5-.1.8-.2,0-.1-.2-.3-.3-.4-.2.2-.5.3-.5.6M551.1,172.2c.3,0,.7.2,1,.3,0,0,.2-.2.2-.3-.4,0-.7,0-1.2,0M554.2,170.1c0-.2-.1-.4-.2-.6-.2,0-.4.2-.6.2.2.1.3.3.8.4M770.3,130.2c-.2.1-.3.3-.5.4.2,0,.4.2.6.2,0-.2.1-.4-.2-.6M671.5,151.4c-.3,0-.6,0-1,0,0,0,0,.3,0,.3.3,0,.6,0,1-.3M731.7,130.8c0-.2-.1-.4-.2-.6-.2,0-.4.2-.6.2.2.1.3.3.8.4M748.8,129.7c-.4-.2-.7-.3-1.1-.5,0,.1,0,.3,0,.3.3.1.7.2,1.1.2M544.1,167.8c0-.3,0-.6.1-.9-.3.2-.5.4-.8.5.1.1.2.2.7.3M678.2,167.2c.3,0,.5-.1.8-.2,0-.1-.2-.3-.3-.4-.2.2-.5.3-.5.6M711.6,129.2c.2.2.5.4.7.6,0-.2,0-.4.1-.6-.3,0-.6-.1-.8,0M747.9,42.5c.1-.2.3-.4.4-.6h-.8c0,.2.1.5.4.6M769,41.6c0,0,0,.1,0,.2,0,0,0,.1.1,0,.4,0,.7-.2,1.1-.2,0-.1-.1-.3-.2-.4-.2.1-.4.2-1,.3M646.2,147.9c0,.3.1.5.2.8.1,0,.3-.2.4-.3-.2-.2-.3-.5-.6-.5M656.6,127.7c.2,0,.4-.1.6-.2,0-.2-.2-.4-.2-.6-.1.2-.3.3-.4.8M758.7,146.7c-.2.1-.3.3-.5.4.2,0,.4.2.6.2,0-.2.1-.4-.2-.6M740.2,136.7c-.2.1-.3.3-.5.4.2,0,.4.2.6.2,0-.2.1-.4-.2-.6M712.2,139.6c.3-.2.5-.3.8-.5-.3,0-.7-.1-1-.2,0,.2,0,.3.2.6M733.7,160.7c0,.3.1.6.2,1,.2,0,.4,0,.6-.1-.2-.2-.4-.5-.8-.8M646.3,151.6c-.2.1-.3.3-.5.4.2,0,.4.2.6.2,0-.2.1-.4-.2-.6M770.8,145.3c.3,0,.6-.2.9-.2,0,0,0-.2,0-.2-.3.1-.7.2-.8.5M671.7,160.7c.2.3.3.6.5,1,.1,0,.3-.2.3-.2-.1-.3-.3-.5-.8-.7M658.5,122.9c-.2.2-.4.5-.6.7.2,0,.4,0,.6.1,0-.3.1-.6,0-.8M677.8,158.7c0,.3,0,.6-.1.9,0,0,.2,0,.2,0,0-.3.2-.6,0-.9M758.8,135.8c-.2.1-.4.2-.6.3.1.2.3.3.4.5,0-.2,0-.4.2-.8M671.6,148.7s.3,0,.5,0c-.1-.3-.3-.5-.4-.8,0,.1-.1.3-.2.8M617.5,164.2c-.3.1-.5.3-.8.4,0,0,0,.1.1.2.3-.2.6-.4.6-.6M550.9,164.9c-.2,0-.3,0-.5,0,.3.1.6.2.8.3,0-.2-.1-.3-.4-.3M615.7,177.1c.3,0,.6,0,1-.1-.3,0-.6-.1-1,.1M756.9,129.4c0,0,.2,0,.2,0,0,0,0-.1,0-.1-.1-.2-.3-.4-.4-.4-.2,0-.4.2-.5.3.2,0,.3,0,.6.1M676.9,167.5c.2,0,.5,0,.7,0-.1-.2-.3-.4-.4-.5-.2.2-.3.3-.4.6M715.2,130.5c.2-.1.3-.2.5-.4-.3,0-.6-.1-.9-.2,0,.1.1.3.4.6M555.8,169.4c-.2.1-.5.3-.7.4,0,0,.2.2.2.2.2-.1.5-.3.5-.6M561.6,171.4l.5-.8c-.1,0-.3-.1-.4-.2,0,.3-.2.5,0,1Z"/>
    <path d="M504,76.3c2.6,6.8,5.2,13.4,7.8,20,1.9,4.9,3.8,9.9,5.7,14.8,2.2,5.7,4.4,11.4,6.6,17.1,1.9,5,3.7,9.9,5.6,14.9.7,2,.4,2.4-1.6,2.4-3.4,0-6.7-.1-10.1,0-3.7.2-4.9-1.7-5.9-4.2-2.6-6.5-5-13.1-7.4-19.6-2.8-7.5-5.6-15-8.5-22.4-1.9-5-3.9-10-5.8-14.9-2.1-5.4-4.3-10.8-6.4-16.2-2.3-5.9-4.5-11.9-6.8-17.8-3-7.7-6-15.4-9.1-23,0-.2,0-.4-.1-.6-1.1-3.4-1.4-3.6-5.1-3.6-2.4,0-4.9,0-7.3,0-17.4.1-34.9.2-52.3.3-10.2,0-20.4.2-30.5.3-1.5,0-2.9.3-4.4.3-2.9,0-4.5-1.7-4.5-4.5,0-4.2,0-8.4,0-12.7,0-.4,0-.9.1-1.2,1.2-3.3.9-3.8,5-3.6,2.6,0,5.2,0,7.8,0,13-.1,26.1-.2,39.1-.3,7.6,0,15.2-.2,22.7-.3,8.7-.1,17.3-.2,26-.3,2.6,0,5.2,0,7.7-.4,2.2-.3,2.7,1.7,3.7,2.8,3,3.5,5.6,7.3,8.5,10.9,4.7,5.9,9.5,11.6,14.2,17.5,4.3,5.5,8.5,11.1,12.8,16.6,3.4,4.3,7,8.5,10.4,12.7,3.6,4.5,7,9,10.6,13.5,2.5,3.1,5.1,6.1,7.6,9.2,2,2.5,4,5.1,6,7.6,2.1,2.7,4.3,5.4,6.4,8.1,2.3,2.9,4.6,5.9,6.9,8.8,2.5,3.1,5.1,6.1,7.6,9.2,3.6,4.4,7.1,8.8,10.7,13.3,3.3,4.1,6.6,8.3,9.8,12.5.3.4.5,1.2.4,1.7,0,.2-.9.5-1.4.5-4.9,0-9.7-.1-14.6,0-2.2,0-3.5-.8-4.7-2.4-2.7-3.6-5.6-7.1-8.3-10.7-3.1-4-6.2-8-9.3-11.9-2.9-3.6-5.9-7.2-8.8-10.8-2.5-3.1-4.9-6.2-7.3-9.3-1.6-2-3.2-4.1-4.8-6.1-2.7-3.4-5.4-6.9-8.1-10.3-1.8-2.2-3.6-4.3-5.4-6.5-3.1-3.9-6.1-8-9.2-11.9-.8-1.1-1.7-2.1-2.6-3.1-1-1.1-2-2.2-3-3.3-.4-.4-1-.7-1.5-1-.2.7-.8,1.4-.7,2,.2,1.2.8,2.4,1.2,3.5,1.6,4.1,3.2,8.3,4.9,12.6M447.7,2.6c-1.3-1.4-2.7,0-4.1-.3,0,.2,0,.5.1.6,1.3.3,2.6.5,3.9.7,0,0,.2-.6.4-.9.4,0,.8-.1,1.1-.2,0-.1,0-.3-.1-.4-.4.2-.8.3-1.2.5,0,0,0,0-.2.1M583.2,140.4c.2.2.4.4.7.6-.1-.4-.2-.7-.4-1.3-1.5-1.9-3-3.9-4.5-5.8-.2-.3-.7-.3-1-.5,0,.3,0,.7,0,.7,1.3.3,0,1,0,1.4-.3-.3-.7-.6-1-.9,0,.2-.2.5-.1.7.2.4.5.8.7,1.1.2-.3.4-.6.7-.9.2,0,.4.1.5.2,1.4,1.4,2.8,2.9,4.2,4.5M575.9,132.4c.3.6.7,1.3,1,1.9,0-.7.3-1.6,0-2.2-.3-.7-.9-1.9-1.4-1.9-1.6,0-3.2.3-4.9.6-.2,0-.5.2-.7.2.3.1.5.4.8.4,1.3,0,2.7,0,4,0,.9,0,1,.3.7,1-.3,0-.6,0-.9,0,0,0,0,.2-.1.3.4,0,.8-.2,1.4-.3M519.1,144.4c2.9,0,5.8,0,8.7,0,.4,0,1.1-.2,1.1-.3,0-.6-.2-1.2-.3-1.8,0,0-.6,0-.6.1-.3.8-.8.6-1.6.8-2.9.5-5.7,0-8.5.2-1.2.1-2.2-.1-2.9-1.1-.1-.2-.4-.2-.7-.3,0,.3-.3.8-.3.8.7.6,1.4,1.2,2.2,1.5.7.3,1.6,0,2.8,0M562.9,129.8c-.3-.2-.9-.7-1-.6-1.2,1.1-2.2-.3-3.2-.3-.3,0-.5.2-.8.2.6.6,1.2,1.3,1.9,1.9.9-1.1,1.9-.5,2.9-.3.6.2,1.2,0,.3-.9M517.2,121.4c.4,0,.8-.2,1.1-.3,0-.2-.1-.7-.2-.7-.4,0-.8,0-1.1.2-.5.2-1,.6-1.6.9,0,0-.3,0-.4,0-.2-.2-.3-.5-.5-.7-.4.5-.8.9-1.1,1.5-.1.3.3.7.4,1.1.3-.3.6-.5.8-.8.1-.1.1-.3.2-.5,0,0,.1.3.1.3.3,0,1,.8,1-.3,0-.2.5-.4,1.1-.6M566.8,131.1c-.2-.2-.5-.4-.7-.6,0,.2-.2.5-.1.7.1.5.2,1.3.6,1.4,1,.4,2.1.5,3.2.6,0,0,0-.3.1-.4.1-.8,0-1.2-1-1.2-.6,0-1.3-.3-2-.6M438.3,21.1c-.3,0-.7.2-.9,0-.5-.2-1-.6-1.5-.9.2.5.3,1,.6,1.5.3.4.6,1,1,1,.6,0,1.3-.3,1.9-.4.4-.1.9-.2,1.3-.3-.5-.3-1-.6-1.5-.8-.2,0-.4,0-1,0M585.6,142.5c-.1-.2-.2-.4-.3-.6-.1.2-.4.5-.4.6.8,1.4-.4,1-1,1.1-.4,0-.7,0-1.1.2-.2,0-.4.3-.7.5.2.1.5.3.7.3.6,0,1.3,0,1.9,0,.5,0,1,0,1.5-.1-.2-.5-.4-1.1-.8-1.8M509.4,122.4c-.5,0-1.1,0-1.6,0-.4,0-.8,0-1.2,0,.3.3.5.7.9,1,.9.8,1.6-.1,2.4-.3.4,0,.7-.3,1.1-.4,0-.1-.1-.3-.2-.3-.4,0-.8,0-1.5,0M557.1,125.3c-.3,0-.6.3-.9.2-1-.2-1,.7-.9,1.1.1.5.7.9,1.1,1.3,0-.4,0-.9.2-1.3,0-.2.2-.5.3-.5.3,0,.6.2.9.4-.1-.4-.3-.8-.7-1.2M518.5,122.4c-.3,0-.5,0-.8.1.2.3.3.7.5.8.6.3,1.3.6,2,.6.3,0,.7-.5,1-.8-.3-.2-.5-.6-.8-.7-.5-.1-1.1,0-1.9,0M516,125.1c-.1-.3-.2-.6-.3-.8,0-.1-.3-.2-.4-.3,0,.1-.2.3-.2.4.2,1,0,1.2-.9.6-.2,0-.5,0-.7.1.1.3.2.6.5.8.3.2.7.4,1.1.5.4.1.8.1,1.2.2,0-.4-.1-.7-.2-1.4M509.2,128.4c-.1-.4-.2-.8-.3-1.2,0-.2-.2-.4-.3-.6-.1.2-.4.5-.3.7.1.8.4,1.6.6,2.3,0,.2.2.3.3.4,0-.2,0-.5,0-.7,0-.2,0-.4,0-1M522.5,128.7c.1.7.3,1.4.4,2.1,0-.6.1-1.3.2-1.9,0-.1,0-.2,0-.3-.3-.5-.7-1-1-1.5,0,0-.1,0-.2,0,.1.5.3,1,.6,1.7M509.9,124.8c0,.2,0,.5,0,.7.5-.1,1-.2,1.4-.5.4-.3.6-.9.9-1.3-.4.2-.8.4-1.2.5-.3.1-.5.2-1,.5M456.1,2.9c0-.2.1-.4.2-.6-.4,0-.7,0-1.1,0-.3,0-.5,0-.8.1.1.3.2.7.4.7.4,0,.8,0,1.3-.2M566.2,135c.9-.2,1.9-.4,2.8-.6.2,0,.4,0,.6-.1-.2,0-.4-.2-.5-.2-1,0-2,.2-3,.3,0,0-.1.4.1.6M522,125c-.4,0-.8,0-1.1,0,.2.6.4,1.1.5,1.7.3-.4.5-.8.7-1.1,0,0,0-.2-.2-.5M576.4,144c-.5-.1-1.1-.3-1.6-.3,0,0-.2.4-.3.6.5,0,.9.1,1.4.1.2,0,.4,0,.6-.5M561.3,132.4c-.2-.1-.4-.2-.7-.3-.2,0-.5-.1-.8-.2.1.3.2.5.4.8.2.3.4.5.7.7.2-.2.4-.5.4-.9M564.6,131.1c.1.4.2.9.4,1.3.1-.1.4-.2.4-.3,0-.6-.1-1.1-.2-1.6-.1.2-.3.3-.6.6M510.5,133.2c.2.3.3.5.5.8,0-.1.2-.2.2-.3-.2-.6-.4-1.3-.6-1.9,0,0-.4,0-.6,0,.1.4.3.8.6,1.4M433.7,11.4c.3,0,.8.1,1,0,.3-.2.3-.7.5-1-.1,0-.2,0-.3,0-.4.3-.9.6-1.2,1.1M525,72.1c.2-.2.5-.4.7-.6-.4-.1-.7-.4-1.1-.4-.3,0-.5.5-.8.7.3,0,.5.2,1.1.2M507.6,126.1s0,0,.1.1c0,0,.1,0,.1,0,0-.7,0-1.4,0-2.1,0,0-.3,0-.4,0,0,.6,0,1.3.2,2.1M441.9,17.5c0,0,0-.1,0-.2,0,0,0,0-.1,0-.5.1-1.1.2-1.6.3,0,.1.2.3.2.3.4,0,.8,0,1.4-.3M520.1,121.7c.7-.5.6-.9,0-1.3-.2-.1-.5-.1-.8-.2.2.4.3.8.5,1.2,0,0,0,0,.3.3M569.7,124c.4.2.7.3,1.1.5-.2-.4-.4-.9-.6-1.3-.2.2-.4.4-.5.8M433.1,16.6c0-.4,0-.9-.1-1.3-.3.2-.6.4-.8.6.2.2.4.4,1,.7M518.6,128.4c-.3-.3-.6-.6-.9-.8,0,0-.3.3-.4.4.4.2.8.4,1.3.4M515.1,129c-.3-.3-.6-.5-.9-.8,0,.5,0,.9-.1,1.4.3-.1.6-.2,1-.6M569.4,143.8c.4.2.8.4,1.2.6,0,0,.2-.3.3-.4-.4-.2-.8-.4-1.2-.5-.1,0-.3,0-.3.3M519.4,139.6c-.1.2-.2.4-.3.7.4,0,.8,0,1.1,0,.1,0,.2-.3.3-.4-.3,0-.5-.1-1.1-.2M562.6,131.5c-.5,0-.9-.1-1.4-.2,0,.1.2.2.3.3.4.4.9.4,1.2-.1M438.1,2.1c-.8.1-1.5.2-2.3.3.7,0,1.3.1,2,.1,0,0,.2-.1.3-.5M559.7,113c0-.4-.1-.8-.2-1.2-.1,0-.4.2-.4.2,0,.3.2.7.6,1M573.5,144c-.4,0-.9,0-1.3,0,0,.1,0,.3,0,.4.5,0,.9-.2,1.2-.4M523.7,131.5c0,.2-.2.4-.3.6.4,0,.7.1,1.1.2-.1-.3-.3-.6-.8-.9M465.7,3.1c.2-.2.4-.4.6-.7-.4,0-.7,0-1.1-.1,0,.3.2.6.4.8M562.8,134.9c-.3-.3-.6-.6-.9-.8,0,0-.2.1-.4.2.4.3.7.5,1.3.6M572,125.9c0,.3,0,.7.3.9.2.2.5.2.8.4,0-.3-.1-.5-.3-.8,0-.2-.3-.3-.8-.5M580.3,144.3c.4,0,.9,0,1.3,0,0,0,0-.3,0-.3-.4,0-.9,0-1.3.3M441,8.3c0,.2,0,.5,0,.7.3-.2.6-.5.9-.7-.3-.1-.6-.2-1,0M447.7,8.3c.2.1.4.3.5.4v-1.2c-.2.1-.4.3-.5.8M576.4,142.7c0-.3-.2-.5-.3-.8-.2.1-.4.3-.6.4.2.2.5.4.9.4M516.8,125.6c0,.2,0,.4,0,.6.3-.3.5-.5.8-.8-.2,0-.4,0-.8.1M441.2,21.4c.2.2.3.5.5.6.1,0,.4-.1.6-.2-.3-.1-.5-.3-1.1-.4M438.9,4.2c-.2,0-.3,0-.5,0,.2.2.3.5.5.7.1-.2.2-.4,0-.6M525.6,135.4c-.1-.3-.2-.6-.3-1-.2,0-.3.2-.5.2.2.2.3.5.8.7M564.2,134.7c.2-.2.3-.3.5-.5-.3,0-.6,0-.8,0,0,.2.2.5.4.6M446.4,21.4c.2.2.4.4.5.6,0-.2.2-.4.3-.6-.2,0-.4-.1-.8,0M519.1,119.8c0-.3-.2-.6-.2-.9,0,0-.2,0-.2,0,.1.3.2.7.5.8M440.6,15.9c.2-.1.3-.3.5-.4-.2,0-.4-.2-.6-.2,0,.2-.1.4.2.6M434.4,22.7c.1-.2.3-.4.4-.5-.2,0-.4-.2-.6-.3,0,.2,0,.5.1.8M522.8,138.1c-.2,0-.4.1-.6.2.2.3.4.6.5.9,0-.2,0-.5,0-1.1M577.5,144.1c0-.2-.1-.4-.2-.6-.2,0-.4.2-.6.2.2.1.3.3.8.4M512.6,124c.2.2.3.4.5.6,0,0,.2-.2.3-.3-.2-.2-.4-.3-.8-.4M382.1,3.2c.2,0,.5.2.7.2,0-.1,0-.3,0-.4-.3,0-.6,0-.8.2M555,125.5c-.1-.2-.3-.3-.4-.5,0,.1-.2.2-.3.3.2.2.4.3.6.2M503,84.9c0-.1.1-.3.2-.4l-.9.2c.2.1.3.2.6.2M436.7,10.1c.2-.2.3-.4.5-.7,0,0-.1-.1-.2-.2-.1.2-.3.5-.3.9M440.9,20.5c-.2,0-.5-.2-.7-.2,0,.1,0,.3,0,.4.3,0,.6,0,.8-.2M566.8,128.5c-.1.3-.3.6-.4.9h.4c0-.1.1-.4,0-.9Z"/>
    <path d="M209.9,128.6c3.2,4,5.2,8.6,6.1,13.5.7,4,1,8.2.7,12.2-.5,6.2-3.3,11.7-7.1,16.7-4.4,5.7-10.1,9.9-17.1,11.9-2.7.8-5.6,1.2-8.5,1.5-6.4.8-12.3-1.1-17.9-3.9-2.2-1.1-4.1-2.8-6.2-4.3-4.3-3.2-7.1-7.7-9.3-12.5-1.6-3.5-2.7-7.1-2.8-11,0-.9-.3-1.9-.3-2.8,0-7.5,2.2-14.2,6.5-20.4,4.3-6.3,10.2-10.6,17.5-12.9,2.4-.8,5-1.2,7.5-1.5,7.2-.8,13.8,1,20.2,4.3,4.3,2.2,7.6,5.6,10.7,9.4M166.1,150.8c.5,4.4,2.1,8.2,5.6,11.1,3.4,2.9,7.3,4.3,11.9,4,3.9-.2,7.1-1.8,9.7-4.4,3.8-3.8,5.9-8.2,5-13.9-.7-4.7-2.6-8.4-6.5-11.1-5.4-3.7-11.1-4.3-17-1.5-4.3,2-6.9,5.6-8.3,10-.6,1.7-.3,3.6-.4,5.7M191.1,119.9c.2-.1.6-.2.6-.3.2-.8-.1-1.4-1-1.6-.4,0-.8,0-1.2-.1.2.3.4.5.5.8.3.4.5.7,1,1.3M188.5,132.9c-.2-.2-.4-.5-.7-.7-.2-.1-.4-.2-.7-.3,0,.3-.2.6-.2,1,.6,0,1.2,0,1.6,0M191.3,134.7c.3-1.2-.5-1-1.1-1-.3,0-.6.1-.9.2.4.2.8.4,1.2.5.2,0,.4.1.9.2M183.8,128.2c0,.3,0,.6,0,1,.4-.3.9-.6,1.3-1,0,0-.1-.4-.1-.4-.3,0-.7.2-1.2.4M165,132.4c.4-.3.8-.6,1.1-.9,0,0,0-.3-.1-.4-.4.4-.9.9-1,1.3M174.4,182.1c.1.2.2.6.3.6.4.1.8.1,1.2.1,0-.1,0-.4,0-.4-.4-.1-.7-.2-1.4-.3M197.6,120.3c.2.3.4.6.7.8,0,0,.4-.2.6-.2-.4-.2-.8-.5-1.3-.5M177.8,132.6c-.4-.1-.9-.2-1.3-.3,0,0-.2.2-.3.3.5,0,1,0,1.6,0M184.8,132.4c.3,0,.5-.1.8-.2,0-.1-.2-.3-.3-.4-.2.2-.5.3-.5.6M167.6,126.9c-.3,0-.5.1-.8.2,0,.1.2.3.3.4.2-.2.5-.3.5-.6M194.7,123.5c.2.1.4.3.6.4,0-.2.2-.4.2-.6-.2,0-.4,0-.8.2M197,126.1c.2.2.4.3.7.5,0,0,.1-.1.2-.2-.2-.1-.5-.3-.9-.3M158.3,131.6s0,0,.1.1c0,0,.1,0,.1,0,0-.3,0-.6,0-.8,0,0-.3,0-.4,0,0,.2,0,.4.2.8Z"/>
    <path d="M316.5,70.5c2.6-3.4,5.2-6.7,7.7-10.1,3-3.9,6-7.9,9-11.8,3-4,6-7.9,9-11.9,2.9-3.9,5.9-7.8,8.8-11.8,2.3-3.1,4.6-6.3,7-9.4.9-1.2,1.7-2.4,2.6-3.6,0-.1.2-.1.4-.2,0,.2.3.4.3.6,0,1.9-.3,3.8-.3,5.7,0,2.1.2,4.3.7,6.4.4,1.5,1.8,2.2,3.5,2.2,3,0,6.1,0,9.1,0,.3,0,.7.1,1,.2-.2.3-.3.5-.5.8-4.5,5.9-9,11.8-13.5,17.8-3.9,5.1-7.6,10.3-11.5,15.4-3.5,4.6-7,9.1-10.4,13.7-3.2,4.2-6.5,8.4-9.6,12.6-3.2,4.3-6.4,8.6-9.6,12.9-2.7,3.6-5.6,7.2-8.3,10.8-2.5,3.2-4.8,6.5-7.3,9.8-1.2,1.5-2.3,3.1-3.6,4.5-.2.2-1,.2-1.3,0-2.7-2-5.4-4-8-6.1-2.1-1.6-4.1-3.3-6.3-4.9-.8-.6-.9-.9-.3-1.7,2.6-3.4,5.1-6.8,7.6-10.2,4.2-5.6,8.3-11.2,12.5-16.7,2.9-3.9,6-7.7,8.9-11.6.8-1.1,1.6-2.3,2.5-3.5M349.8,50.2c0,.3,0,.6,0,1,0,.5.1,1,.2,1.5.1,0,.4,0,.4-.2.2-.6.4-1.2.5-1.8,0-.2,0-.5-.2-.7,0-.2-.2-.4-.3-.6-.2.2-.3.4-.7.8Z"/>
    <path d="M506.5,157.8c1.8,1.3,3.6,2.4,5.1,3.9,2.7,2.7,5.5,5.4,7.8,8.4,3.6,4.8,5.4,10.5,6.7,16.4.8,3.8.8,7.6.5,11.4-.5,6.2-2.5,12-5.7,17.4-2.1,3.5-4.5,6.8-7.4,9.6-5.5,5.2-12,8.6-19.4,10.4-5.1,1.3-10.4,1.2-15.5.8-5.7-.4-10.9-2.7-15.8-5.6-3.8-2.2-7.3-4.9-10.2-8.2-3.4-3.9-6.3-8.3-8-13.2-1.1-3.3-2.3-6.7-2.9-10.2-.5-2.8-.3-5.8,0-8.6.3-3,.7-6.1,1.6-9,1.9-6.1,5-11.6,9.4-16.4,3.3-3.6,7.2-6.4,11.5-8.6,4.5-2.3,9.2-4,14.2-4.5,1.7-.2,3.4-.7,5.1-.9.9,0,1.8.6,2.6.6,6.5,0,12.4,2.1,18,5,.7.4,1.4.8,2.2,1.2M504,229.7c.3.1.6.3.9.4-.2-.3-.4-.6-.6-1.1-.2-.2-.3-.3-.5-.5,0,.3.1.6.2,1.1M519.1,185c0,.7,0,1.5,0,2.2.1,0,.4,0,.4,0,0-.7-.1-1.5,0-2.2l-.2-1.2c-.1,0-.3.1-.3.1.1.4.3.7.2,1.1M515.1,176.1c.3.5.5,1,.8,1.4,0-.2.1-.5.2-.7.2-.9-.3-1-1-1.1-.2-.6-.4-1.2-.7-1.7-.1-.2-.5-.3-.8-.4.1.3.1.6.3.9.4.5.8.9,1.2,1.5M502.7,163.4c.3.8,1,.9,1.7.8,0,0,.1-.2.2-.4-.5-.2-1.1-.4-1.6-.6,0,0-.2,0-.3-.2-.2-.1-.4-.2-.6-.4-.8-.5-1.5-1-2.3-1.4-.1,0-.4,0-.6.1,0,.2,0,.4.2.5,1.1.5,2.2.9,3.3,1.5M446.9,212.1c1.5,2.4,3,4.8,4.6,7.1.1.2.4.4.6.6,0-.5,0-1-.2-1.4-.1-.3-.6-.4-.7-.7-1.1-1.8-2.2-3.6-3.3-5.4-.2-.2-.6-.3-1-.6.1-.2.3-.5.3-.7-.7-2.5-1.5-5-2.3-7.5-.2-.5-.7-.9-1.1-1.4,0,.6-.2,1.3,0,1.8,1,2.6,2.1,5.2,3.1,8M485.4,159.4c-2.8.2-5.6.1-8.3.7-7,1.6-13.1,4.8-18.2,10.1-5.6,5.8-8.4,12.8-9.3,20.7-.4,4,.1,8.1,1.3,12,1.7,5.6,4.2,10.8,8.5,14.8,2.3,2.2,4.8,4.1,7.5,5.8,4.8,3.2,10.2,4.8,15.9,5,2.9,0,5.8-.4,8.7-.9,6.9-1.2,12.7-4.6,17.7-9.4,3-2.9,5-6.5,6.9-10.3,1.9-3.9,2.5-8,2.7-12.2,0-2.2,0-4.4-.3-6.6-.6-3-1.2-6.1-2.4-8.9-2.5-5.8-6.4-10.6-11.6-14.3-5.6-4-11.8-6-18.9-6.5M491.2,159.4c1.8.5,3.6,1,5.4,1.5.4,0,.9,0,1.2-.1.3-.2.4-.6.6-.9-.4,0-.8,0-1.3,0-.3,0-.6,0-.8,0-3.2-1.9-7-1-10.3-2.5-.1,0-.4,0-.5.1,0,.1,0,.4.1.4.4.3.8.6,1.2.7,1.4.3,2.8.6,4.4,1M511.8,163.8c0,0,.2,0,.2,0,0,0,0,0,0-.1-.2-.4-.3-.9-.6-1.1-2-1.4-4-2.8-6-4.2-.3-.2-.5-.3-.8-.5-.1.2-.4.5-.3.7.2.3.5.6.8.8,2.2,1.4,4.3,2.8,6.7,4.4M481.8,157.8c-2-.4-4-.4-5.8.7-.3.2-.6.5-.9.7.4,0,.8.3,1.1.2,1.9-.7,3.7-1.3,5.8-.7.4.1,1-.4,1.5-.7-.5,0-1-.2-1.8-.3M442.8,198.7c.6-.7,1.2-1.3,1.6-2,.2-.3,0-.9-.2-1.4,0-.2-.4-.4-.5-.3-.7.2-1.3,2.8-.9,3.8M451.6,209.7c.6,1.1,1.2,2.3,1.8,3.4,0,.2.4.3.6.4,0-.2.3-.4.2-.6-.6-1.2-1.3-2.4-2-3.6-.1-.2-.3-.4-.5-.6-.1.3-.2.6,0,1M519.9,174.5c1-.7.7-1.5,0-2.2,0-.1-.6,0-.6,0-.2.8-.3,1.6-.3,2.4,0,.2.2.3.4.5.2-.2.4-.3.6-.8M446.4,178.2c-.4.1-1,.2-1.1.4-.3.8-.4,1.7-.5,2.5.3,0,.7,0,.8-.2.4-.9.7-1.7.8-2.8M503.4,158.6c-.3.1-.6.2-1,.3.3.7.5,1.4.8,2.1.1.2.7.2,1.1.2-.1-.4-.2-.7-.4-1.1-.2-.4-.4-.8-.6-1.5M492.8,233.4c-.2.3-.5.6-.7.9.3.1.6.4.8.4.7,0,1.3-.2,1.9-.4.2,0,.4-.3.7-.4-.3-.1-.5-.4-.8-.4-.6,0-1.2,0-1.9,0M489.2,152.9c-.3.1-.5.3-.8.4.3.2.5.4.9.5.3,0,.8.1,1.1,0,.5-.2.9-.5,1.3-.7-.4,0-.9-.2-1.3-.2-.3,0-.5,0-1.1,0M508.7,168.5c.7.5,1.4,1,2,1.5-.5-.7-.9-1.5-1.4-2.2,0,0-.1-.1-.1-.1-.2.2-.4.4-.5.8M510.5,226.4c.1-.1.2-.2.3-.3-.5,0-1.1-.3-1.4,0-.5.3-.8.9-1.2,1.4.6-.1,1.1-.2,1.6-.4.2,0,.3-.3.6-.6M499.3,232.7c.4-.3.8-.5,1.1-.8-.4,0-.8,0-1.2.1-.4,0-.9-.1-1.3,0-.2.1-.3.6-.4.9.2,0,.5.2.7.1.3,0,.5-.3,1.1-.4M523.2,181s0,0,.1.1c0,0,0,0,.1,0-.2-.9-.3-1.7-.5-2.6,0-.1-.3-.2-.5-.3,0,.2-.2.4-.2.5.2.7.5,1.4,1,2.2M525.8,194.9c-.2-.5-.3-1-.5-1.4,0,.4-.1.8-.2,1.2,0,.3-.4.6-.3.8.2.5.5,1,.7,1.5,0-.4.2-.8.2-1.2,0-.2,0-.3,0-.8M500.9,155.8c-.6-.3-1.2-.6-1.9-.9-.2,0-.5,0-.6.2,0,0,0,.5.1.5.9,0,1.8.1,2.4.2M513.2,164.3h-.6c.1.2.2.5.4.7.5.5,1,.9,1.5,1.4-.3-.6-.7-1.3-1.2-2.1M472.2,233.5c-.5-.3-.9-.6-1.4-.8-.4-.2-1-.2-1.4-.3.4.2.7.5,1.1.7.5.2,1,.4,1.7.4M507.4,166.2c-.4-.2-.8-.4-1.2-.6,0,0-.2.2-.3.3.3.3.7.7,1,1,.1.1.2.2.4.3.2,0,.4,0,.5,0-.1-.2-.2-.4-.5-.8M502.1,224.8c.3,0,.6.2.9.1.5-.1.9-.4,1.4-.6-.5,0-.9,0-1.4,0-.3,0-.6.1-.9.5M520.1,195.1c0,.7,0,1.4-.1,2.2,0,0,.2,0,.2,0,0-.7.2-1.4,0-2.2M514.1,222.2c-.3.3-.6.7-1,1,.2.2.4.3.6.5.3-.5.6-1.1.9-1.6-.1.1-.2.2-.5.2M519.9,201.4c0-.5,0-1.1,0-1.6,0-.2-.4-.3-.5-.4-.1.6-.3,1.2-.4,1.8,0,.1.5.3.9.3M524.3,205.8v-.5c-.3.3-.8.5-1.1.9-.1.2.1.6.2,1,.2-.4.5-.8.9-1.3M508.7,220.1s0,0-.1.1c0,0,0,.1,0,.1.7,0,1.3,0,1.5-.7,0-.2-.1-.5-.2-.8-.4.4-.7.8-1.2,1.3M470.7,160.4c-.3,0-.6,0-.8,0-.3.2-.5.5-.7.7.3,0,.6.3.8.2.3-.2.5-.5.6-.9M445.1,198.7c0-.4.1-.8,0-1.2,0,0-.4-.1-.6-.2.1.4.3.8.6,1.4M492.7,229.7c.2-.3.4-.5.6-.8-.1-.1-.3-.3-.4-.3-.4.2-.8.5-1.1.7.2.2.5.4.9.4M482.4,153.5c.4-.3.8-.5,1.1-.8-.4,0-.9-.1-1.3-.2,0,.3,0,.5.2,1M447.7,200c.4,0,.8,0,1.1,0-.2-.2-.4-.7-.7-.7-.3,0-1.2-.5-.5.6M485,229.8c.6,0,1.2.2,1.7.2,0,0,.1-.3.2-.5-.7.1-1.5.2-1.9.3M482.6,229.7c-.5,0-1,.1-1.5.2,0,0,0,.3,0,.5.5-.1.9-.2,1.4-.3,0,0,0,0,.1-.4M460,220.1c-.6.5-.5.8.2,1,.3,0,.6.1.9.2-.3-.3-.6-.7-1.1-1.1M450.6,206.8c0-.5,0-1-.2-1.6,0-.2-.2-.4-.3-.6,0,.3-.3.5-.2.8,0,.4.3.8.7,1.4M525,203.2c-.4-.2-.7-.3-1.1-.5.1.3.2.7.3,1,.3-.1.6-.2.8-.5M458.7,167.8c.2.2.3.4.5.6.2-.4.4-.7.6-1.1-.3,0-.6.2-1.1.4M520.9,199.5c.1-.3.3-.5.3-.8,0,0-.3-.2-.4-.3-.2.4-.4.9-.5,1.3.2,0,.3,0,.6-.2M485.8,153c0-.2,0-.3,0-.5-.5.1-1.1.3-1.6.4.5,0,.9.2,1.6,0M506.1,226.2c.4,0,.8-.2,1.2-.3,0,0,0-.2.1-.3-.4,0-.7,0-1.1,0-.2,0-.3.3-.3.6M471.7,160.7c.4-.2.9-.4,1.3-.7,0,0,.1-.3.1-.4-.1,0-.2,0-.3,0-.4.3-.9.7-1.2,1.1M478.2,229.2c0,.3-.1.5-.2.8.3,0,.6,0,.9-.1-.1-.2-.2-.4-.7-.6M520.2,215l-.6-.3c0,.3,0,.6-.1.9.3,0,.5-.1.8-.5M492.8,153.9c.4,0,.8-.2,1.1-.2,0,0,0-.2,0-.3-.4,0-.7.1-1.1.2-.2,0-.5,0-.8.1.1,0,.3.1.8.2M465.6,163.6c.2-.3.4-.7.6-1-.1,0-.3-.1-.4-.2-.1.3-.2.7-.2,1.2M484.4,234.7c-.3,0-.5.2-.8.2.2.1.5.4.6.4.2,0,.3-.4.2-.6M463.4,222.5c-.2,0-.4,0-.5-.1.2.4.4.7.6,1.1,0,0,.3,0,.4-.1-.1-.2-.2-.4-.5-.8M485,157.4c-.4,0-.8.1-1.1.2,0,.1,0,.3.1.4.4-.2.8-.3,1-.6M442.8,200.3c.3-.2.5-.3.8-.5,0,0-.2-.3-.2-.4-.2.3-.5.5-.5,1M524,182.4c0-.3,0-.6,0-1-.1,0-.3,0-.4,0,0,.4.2.7.4.9M448.2,206.3c0,.2.2.5.2.5.3,0,.5-.2.7-.3-.3-.1-.5-.2-1-.2M482.1,234.7c-.1.2-.3.4-.4.5.4,0,.8,0,1.2,0-.1-.2-.3-.4-.7-.6M456,171.5c.3-.2.6-.3.8-.6,0,0-.2-.3-.3-.5-.2.3-.4.5-.5,1.1M516.5,170.7c-.2-.2-.3-.4-.5-.6l-.3.3c.2.2.4.3.8.4M502.6,230.1c0,.3-.2.7-.3,1,0,0,.2.2.3.2,0-.4,0-.7,0-1.2M498.7,228.5c-.2,0-.3-.1-.5-.2.2.2.4.5.5.5.3-.1.5-.4.7-.6-.2,0-.4,0-.7.3M458.7,226.2c-.2-.2-.3-.4-.5-.6,0,0-.2.2-.3.3.2.2.4.3.8.4M454.7,213.7c0,.3,0,.7,0,1,.1,0,.2,0,.3,0,0-.4-.1-.7-.4-.9M445.9,203.4c0,.2,0,.4.2.4.2.1.5.2.7.3-.2-.3-.5-.6-.9-.7M524.5,183.9c0-.3-.1-.5-.2-.8-.1,0-.3.2-.4.3.2.2.3.5.6.5M525,200.6c0,.4,0,.8-.1,1.2.1,0,.3,0,.3-.1,0-.3,0-.6-.2-1.1M525.3,198c0,.3.1.6.2.9,0,0,.1,0,.2,0,0-.3,0-.6-.4-.9M520.7,192.5c0,0,0-.2,0-.2,0,0,0,0-.1,0-.3.2-.7.4-1,.6.3,0,.6,0,1-.3M450.5,182.6c0-.2,0-.5,0-.7-.2.1-.4.3-.5.4.2.2.3.3.6.4M515.4,213.1c-.3,0-.6,0-.9-.1,0,0,0,.2,0,.2.3,0,.6.2.9,0Z"/>
    <path d="M244.1,134.1c.5-3.4,3.2-3.9,5.7-4.7,1.3-.4,2.2,0,3.2.7,1.6,1.1,3.3,2.3,5,3.3.5.3.8.5.4,1.2-1.7,2.9-2.9,6-2.9,9.3,0,3,.4,6,2.3,8.6,2.6,3.6,6.3,5.2,10.6,5.8,3.4.5,6.7.4,9.9-1,4.3-1.8,6.7-5,7.6-9.4.8-3.8.5-7.6-1-11.1-.9-2-2.4-3.7-3.7-5.5-.9-1.2-2-2.4-3.1-3.4-.9-.8-.7-1.5-.1-2.1,2.2-2.5,4.4-4.9,6.7-7.3.3-.3,1.4-.3,1.8,0,2.9,2,5.6,4.2,8.4,6.3.7.5.9.7.4,1.6-.3.6-.3,1.7.1,2.2,2.2,3.3,3.1,7,3.7,10.8.9,5.4.5,10.7-1.6,15.7-1,2.4-2.3,4.8-3.9,6.8-2.5,3.1-5.6,5.8-9.3,7.5-2.5,1.1-5,1.9-7.7,2.1-2.3.2-4.6.8-6.9.6-6.6-.6-12.7-2.5-17.9-6.9-2.9-2.5-5.3-5.3-6.9-8.7-1.8-4.1-3.2-8.4-2.7-12.9.3-3.2,1.2-6.4,2-9.7M275.5,160.8c0-.2.2-.5.2-.7-.1,0-.3,0-.4,0,0,.3,0,.6.2.8Z"/>
    <path d="M754.2,165.1c-3.3,1.7-6.3,3.7-8.5,6.6-1.8,2.3-3.5,4.7-5.2,7.1-1.9,2.7-2.8,5.9-3.4,9.1-.5,3.1-.8,6.2-.7,9.3.2,6.3,2.4,11.9,5.8,17.2,3.6,5.5,8.5,9.6,14.3,12.6,3.5,1.8,7.4,2.8,11.4,3.4,1.3.2,2.7.3,4.1.3,1.1,0,1.7.3,1.7,1.6-.1,1.9,0,3.8,0,5.7,0,.4-.7,1.2-1,1.1-2.1-.1-4.2-.3-6.2-.6-7.3-1-13.8-3.9-19.8-8.1-5.4-3.7-9.6-8.6-12.8-14.2-2.7-4.7-4.5-9.8-5.2-15.2-.4-3.6-1-7.2-.6-10.7.4-3.5,1.8-7,2.9-10.4,2.7-7.9,7.8-13.9,14.4-19,4.8-3.7,10.1-6.1,15.8-7.6,3.6-.9,7.4-1,11.1-1.4,1-.1,1.4.3,1.4,1.4,0,1.9,0,3.8,0,5.7,0,1.2-.4,1.5-1.5,1.4-6.3-.5-11.9,1.5-17.4,4.2-.2.1-.4.3-.7.6M743.2,218c.3.4.6.8.9,1.1,0,0,.2-.1.4-.2-.4-.4-.8-.7-1.1-1.1,0,0-.1,0-.2-.2-.3-.5-.6-1.1-.9-1.5,0-.1-.5,0-.7,0,.2.6.3,1.2.6,1.8,0,.1.7,0,1,0M747.5,222.8c.8.7,1.7,1.4,2.5,2.1.1,0,.4,0,.6,0,0,0,0-.2,0-.2-1-.7-1.3-2.5-3.1-1.8M753.6,227.1c-.5-.5-1-1-1.4-1.4,0,.1-.2.3-.2.3.4.4.9.8,1.3,1.2,0,0,.1,0,.3-.2M747.3,226.2c-.2-.3-.4-.6-.5-1-.2.3-.4.6-.6,1,.3,0,.6.1,1.1,0M734.6,212c0,.5-.1.9-.2,1.4,0,0,.3.1.5.2,0-.5-.1-1-.3-1.6M746.2,221.5c0,.3,0,.5,0,.8.4-.2.7-.4,1.1-.6-.3-.2-.6-.3-1-.2M729.4,192.2c0-.3-.1-.6-.2-1-.1.3-.2.5-.3.8,0,.2,0,.5,0,.6,0,.2.3.3.5.5,0-.3-.1-.5,0-.9M740.6,214.1c-.3-.1-.7-.2-1-.3,0,0-.1.3-.2.4.3,0,.7,0,1.2-.1M772.4,237.8c.1-.2.2-.4.3-.7-.3,0-.5.1-.8.2.1.2.2.4.5.5M733.5,208.9c-.2.2-.3.3-.5.5.4,0,.7.2,1.1.2-.1-.2-.3-.4-.6-.7M738,208.9c-.4,0-.7,0-1.1.1,0,0,0,.2,0,.3.4,0,.8,0,1.2-.4M756.7,229.8c-.3,0-.5.1-.8.2,0,.1.2.3.3.4.2-.2.5-.3.5-.6Z"/>
    <path d="M535.9,148.1c3,0,5.9.2,8.9.2,2.1,0,4.1-.3,6.2-.3,2.6,0,5.1.3,7.7.3,8.9,0,17.9,0,26.8,0,1.3,0,2.5-.2,3.8-.3,2.7-.3,4.1.9,4.1,3.6s0,4.5,0,6.8c0,1.8-.4,2.2-2.1,2.2-23.6,0-47.3,0-70.9,0-.9,0-2-.5-2.8-1.1-2.4-1.8-4.6-3.7-6.9-5.6-1.6-1.2-1.9-2.8-1.3-4.6.3-.8.7-1.1,1.5-1.1.3,0,.7-.3,1-.3,2.3,0,4.6,0,6.9.1.5,0,1,.2,1.5.2,4.7,0,9.4,0,14.2,0,.5,0,1-.1,1.6-.2M548.3,150.3c2.1,0,4.1,0,6.2,0,.4,0,.7,0,1.1-.2.1,0,.2-.2.3-.3-.1,0-.3-.1-.4-.2-1.2-.1-2.4-.3-3.6-.3-2.1,0-4.2,0-6.3,0s-2,0-3,0c-.3,0-.7.4-1,.6.3.1.7.4,1,.4,1.8,0,3.6,0,5.6,0M537,150.3c.9,0,1.7,0,2.6,0,.3,0,.5-.3.8-.5-.3-.1-.5-.4-.8-.4-1.7,0-3.4,0-5.1,0-.3,0-.5.1-.8.2.3.2.5.7.8.7.7.1,1.5,0,2.6,0M573.3,149.6c-.4,0-.8-.2-1.2-.2-.3,0-.6,0-.9.1.2.2.5.7.7.7,1.6,0,3.2,0,4.8,0,.2,0,.4-.4.6-.6-.2-.1-.5-.4-.7-.3-1.1,0-2.1,0-3.4.3M592.3,150.5c-.2-.8-2.3-1.8-3.1-1.4-.3.1-.4.6-.5.9,0,0,.4.3.6.4.9.1,1.8.2,2.9.2M511.5,153.4c.9.6,1.7,1.3,2.6,1.9.2.2.6.1.9.1,0,0,.2-.4.1-.4-1.1-.8-2.3-1.6-3.4-2.4,0,.1,0,.3-.1.8M525.6,150c.6.1,1.2.3,1.8.3.2,0,.4-.4.6-.6-.2-.1-.5-.3-.7-.3-1,0-1.9,0-2.9,0-.2,0-.4.3-.6.4.2.2.3.5.5.5.3,0,.7,0,1.2-.3M516.2,149.3c-.4,0-.7,0-1.1.1.3.3.6.7,1,.8.6.1,1.3,0,1.9,0,.2,0,.4-.4.6-.6,0,0-.1-.3-.2-.3-.7,0-1.4-.1-2.2,0M517,157.3c.6.7,1.1,1.4,1.7,2,.2.2.7.2,1.1.4-.2-.3-.4-.5-.6-.8-.2-.3-.3-.8-.6-1-.5-.4-1.1-.6-1.6-.6M514.4,149.8c0-.2,0-.3,0-.5-1.1,0-2.2,0-3.3,0-.2,0-.5.2-.7.4.3.2.5.6.8.6,1,0,1.9-.2,3.1-.5M591.8,152.2c-.3.6-.6,1.2-.8,1.8-.1.3,0,.7,0,1.1,0,0,.5.1.6,0,.2-.2.5-.5.5-.7,0-.6-.2-1.3-.5-2.1M559.5,150.1c.1-1.9-1.3,0-1.7-.7,0,0-.4,0-.6,0,.2.3.4.7.6.7.5.1,1,0,1.7-.1M578.8,150c.2.1.4.3.7.3.4,0,.7,0,1.1,0-.3-.3-.6-.6-1-.8-.3-.2-.8-.1-1.2-.2,0,.2.1.3.4.6M541.5,155.5c.5-.9-.2-1.2-.8-1.4-.1,0-.3,0-.4,0,.2.4.5.8.7,1.1,0,0,.1.2.5.2M591.8,159.7c.4-1.9-1.1,0-1.3-.6-.2,0-.3.2-.5.3.2.1.3.3.5.4.3,0,.6,0,1.3,0M566.5,150.3c-.2-.4-.5-.8-.7-1.2,0,0-.4.2-.6.3.3.3.7.6,1.4.9M553.7,159.2c-.6,0-1.3,0-1.9,0,0,0,0,.3,0,.3.6,0,1.3,0,1.9-.3M509.9,151.7l1-.8-.4-.3c-.2.3-.4.5-.5,1.1M517.5,151.6c.3,0,.5.1.8.2,0-.3,0-.6,0-.8-.3.2-.6.3-.7.6M554.3,156c0-.3,0-.7,0-1,0,0-.3.2-.3.2,0,.3,0,.6.3.8M539.9,158.7c.3-.1.7-.2,1-.4,0,0-.1-.3-.1-.3-.4.1-.7.3-.9.6M562.4,159.5c.4,0,.8,0,1.3,0,0-.1,0-.3,0-.4-.4,0-.7.2-1.2.4M592.1,157.4c-.2-.1-.4-.2-.7-.3,0,.3.1.5.2.8.2-.1.4-.2.5-.5M574.1,155.3c-.2-.1-.4-.3-.5-.4-.1.2-.2.4-.3.6.3,0,.6.1.9-.1M582.4,149.6c-.4,0-.7-.1-1.1-.2.2.3.5.5.7.8,0,0,.3-.3.4-.6M587.1,149.5c-.3,0-.6,0-1,0,0,.1,0,.3,0,.4.4,0,.7-.2.9-.4M535,151.4l-.4.6c.4,0,.8,0,1.2,0-.1-.2-.3-.4-.7-.6M521.5,150.1c-.2-.2-.5-.3-.7-.5,0,.1-.2.3-.3.4.3,0,.5.1,1,0M529,158.6c-.3-.2-.6-.5-.9-.7,0,.2-.1.4,0,.4.2.2.5.3,1,.3M522.7,159.7c.4,0,.7,0,1.1-.1,0-.1-.2-.3-.2-.3-.3,0-.7.2-.8.4M587.4,159.5c-.3-.1-.6-.3-.9-.4,0,.1,0,.3-.1.4.3,0,.5.1,1,0M555,159.2c0-.1-.1-.3-.2-.4-.1.3-.3.5-.4.8.2,0,.4,0,.6-.3M578.5,158.1c-.2.2-.3.4-.5.7,0,0,.1.1.2.2.1-.2.3-.5.3-.9M585.3,150v-.7c-.3.1-.5.3-.8.4.1,0,.3.1.8.2M583.5,153.4c-.3,0-.6,0-.9-.1,0,0,0,.2,0,.2.3,0,.6.2.9,0Z"/>
    <path d="M448.1,162.1c-4.4,4.6-7.5,10-9.6,16-.4,1.1-.9,1.8-2.3,1.8-3.6,0-7.1,0-10.7,0-4,0-7.6-2.6-8.9-6.5-1.9-5.7,2.9-11.4,8.3-11.4,7.7,0,15.5,0,23.3,0M428.5,177.9c-.7,0-1.4,0-2.2,0-.3,0-.6.2-.9.3.2.2.5.6.8.6.9,0,1.8,0,2.7,0,.7,0,1.3-.3,2-.5-.7-.2-1.4-.3-2.4-.5M417.3,172.5c.4.8.7,1.6,1.1,2.4-.2-.9-.3-1.7-.5-2.6,0-.2,0-.4,0-.6-.2.1-.4.3-.6.7M422.2,178c.4.2.8.4,1.2.5.4.1.9.1,1.3.2,0,0,.1-.4,0-.4-.4-.3-.8-.7-1.3-.8-.3,0-.8.2-1.3.4M433.7,177.9c-.4.2-.8.5-1.1.7.4,0,.8,0,1.2,0,.1,0,.2,0,.3,0,.3,0,.7,0,.8-.2.2-.3.2-.7.3-1.1-.4.1-.8.3-1.4.6M437.8,177.7c-.2-.4-.4-.7-.6-1.1-.2.4-.5.9-.7,1.3.4,0,.8,0,1.3-.2M442.2,167.5c.4-.3.8-.5,1.1-.8,0,0-.1-.3-.2-.5-.4.3-.7.5-1.1.8,0,0,0,.2.2.5M429.8,174c-.2,0-.3.2-.5.2.5.1,1,.3,1.5.4.1,0,.3-.2.5-.4-.4,0-.8-.2-1.5-.2M444.8,163.9c.3,0,.5-.2.8-.2-.3-.2-.5-.5-.9-.7-.2,0-.5,0-.7.1.2.2.4.5.8.8M438.1,173.2c0,.3-.1.5-.2.8.3,0,.5,0,.8,0-.1-.3-.3-.6-.6-.7Z"/>
  </g>
</svg>