<?xml version="1.0" encoding="UTF-8"?>
<svg id="Layer_1" xmlns="http://www.w3.org/2000/svg" version="1.1" viewBox="0 0 415.7 418.2">
  <!-- Generator: Adobe Illustrator 29.3.1, SVG Export Plug-In . SVG Version: 2.1.0 Build 151)  -->
  <g id="Shape_82">
    <path d="M353.2,349.3c-4.5,4.6-8.8,9.3-13.3,13.7-3.7,3.5-7.3,7.2-11.6,10.1-1.9,1.3-3.5,3-5.4,4.5-1.5,1.2-3.1,2.4-4.7,3.5-2.6,1.9-5.3,3.7-8,5.5-2,1.3-4,2.5-6.1,3.6-4.7,2.7-9.4,5.6-14.4,7.9-3.6,1.7-7.1,3.6-10.9,5-2.6.9-5.1,2-7.6,2.9-3.1,1.1-6.1,2.2-9.2,3.1-2.5.7-4.9,1.4-7.3,2.2-4.2,1.3-8.5,2-12.7,3.1-2.7.7-5.5.9-8.3,1.3-2.3.4-4.6.9-6.9,1.2-1.6.2-3.2.3-4.8.4-2.5.2-5,0-7.4.5-5.4.8-10.9.4-16.3.3-2.3,0-4.6.2-6.8-.4-2.7-.6-5.4,0-8.1-.7-1.6-.5-3.4-.3-5.2-.5-1.7-.2-3.4-.1-5.1-.8-.3-.1-.6-.4-.9-.4-1.2,0-2.5.4-3.6,0-1.1-.4-2.2-.8-3.3-.9-1.4-.1-2.9-.3-4.2-.8-2.6-1-5.4-1.2-8-2-1.6-.5-3.3-1.1-4.9-1.5-2-.5-3.9-1.1-5.9-1.8-2.5-.8-4.9-1.8-7.3-2.6-.7-.3-1.5-.3-2.2-.6-1.9-.7-3.8-1.5-5.6-2.3-4.9-2.3-9.9-4.5-14.8-7-3.8-1.9-7.6-3.8-11.2-6.2-3.5-2.3-7.1-4.4-10.5-6.8-2.4-1.6-4.8-3.4-7.1-5.2-2.8-2.1-5.6-4.3-8.5-6.4-.3-.2-.5-.5-.7-.7-2.4-2.3-4.8-4.6-7.2-6.8-2.7-2.6-5.5-5-8.1-7.7-2.8-3-5.3-6.4-8.2-9.3-2.5-2.5-4.3-5.4-6.6-8-1.7-1.9-3.1-4-4.5-6.1-2.2-3.2-4.4-6.5-6.5-9.8-2.1-3.3-4.3-6.5-6-10.1-2.6-5.2-5.4-10.2-7.9-15.4-1.5-3-2.6-6.2-3.9-9.3-.7-1.6-1.4-3.1-2-4.7-.9-2.6-1.7-5.3-2.6-8-.9-2.7-1.7-5.5-2.5-8.2-.8-2.6-1.7-5.1-2-7.8-.2-1.8-.9-3.6-1.3-5.4-.5-2.7-1.4-5.4-1.7-8.2-.2-2-.5-4.1-1.1-6.1-.3-1.1-.4-2.3-.4-3.5,0-1.7-.2-3.3-.8-4.8,0-.2,0-.4,0-.6-.1-3.8,0-7.7-.5-11.5-.4-3.3-.3-6.6-.3-9.9,0-1.2-.3-2.4.4-3.5.1-.3.2-.8,0-1-.7-.9-.6-2.1-.3-2.9.5-1.8.3-3.6.3-5.4,0-2.3.3-4.5.8-6.7.2-.8,0-1.6,0-2.5,0-1.8.3-3.5.8-5.2.4-1.2.2-2.5.5-3.7.5-2.1.3-4.2,1.1-6.3.5-1.3.5-2.9.8-4.4.4-2,.9-4,1.4-6,.8-3.2,1.5-6.3,2.5-9.5,1.2-3.9,2.6-7.7,3.9-11.5,3.2-9.7,7.6-18.8,12.4-27.8,3-5.6,6.2-11.1,10-16.2,2.6-3.6,5.2-7.2,7.9-10.7,1.2-1.6,2.6-3.2,3.9-4.8,2-2.4,4.1-4.9,6.1-7.3.3-.4.7-.7,1-1,1.9-1.9,3.7-3.8,5.6-5.6,2.5-2.4,5-5,7.7-7.2,4-3.4,8.2-6.4,12.2-9.8,3.7-3.2,7.9-5.8,11.9-8.5,2.8-1.9,5.8-3.6,8.7-5.3,3.6-2.1,7.2-4.1,10.8-6.2.4-.3.8-.7,1.1-1.1.2-.2.5-.5.6-.5,1,.8,1.8-.1,2.6-.5,4.2-1.8,8.3-3.9,12.5-5.6,4.3-1.7,8.7-3.3,13.1-4.7,5.5-1.8,11-3.6,16.7-4.8,3-.6,5.9-1.5,8.9-1.8,1.5-.2,3-.8,4.5-1,1.3-.3,2.7-.5,4.1-.5,2.8-.2,5.4-.8,8.1-1.2.7-.1,1.4,0,2.1,0,.6,0,1.1-.2,1.7-.1,1.2.2,2.6.1,3.7-.4,1.2-.7,2.3.5,3.5-.2,1-.5,2.4,0,3.6-.1,5.8-.6,11.5-.5,17.3-.3,2.7.1,5.4,0,8.1.7.8.2,1.6,0,2.5,0,2.2,0,4.3.3,6.4.8,1.3.3,2.6.4,3.9.4,1.7,0,3.4.7,5,.7,2.1,0,3.9,1,6,1,1.4,0,2.9.5,4.3.9,1.5.3,3,.7,4.5,1.1,3.6.9,7.2,1.6,10.7,2.9,2,.7,4,1.3,6,2,1.9.6,3.8,1.1,5.6,1.8,3.4,1.3,6.8,2.4,10.1,4,4.3,2,8.7,3.8,12.8,6.4,1.2.8,2.6,1.3,3.9,1.9,3.6,1.8,6.9,3.9,10.2,6.1,3.1,2,6.2,4,9.2,6.1,2.1,1.5,4.1,3.1,6.1,4.7,3,2.4,6,4.9,9.1,7.4.4.3.7.7,1,1,3.9,3.9,7.9,7.8,11.7,11.8,3.2,3.4,6.5,6.8,9.2,10.7,1.6,2.4,3.7,4.5,5.5,6.8,1.6,2.2,3.2,4.4,4.6,6.7,2.6,4,5.4,8,7.7,12.2,2.7,5,5.6,10,7.7,15.3,1,2.6,2.3,5.1,3.4,7.6.8,1.9,1.5,3.9,2.2,5.9,1.2,3.2,2.4,6.4,3.5,9.7.8,2.5,1.6,5.1,2.3,7.7,1,3.6,1.9,7.3,2.8,11,.5,2.3.9,4.7,1.3,7.1.4,2.2.9,4.3,1.2,6.5.2,1.4.2,2.8.4,4.1.4,3.1.5,6.2.9,9.3.5,3.9.5,7.9.8,11.8.3,3.5.4,6.9.2,10.3-.1,3.6,0,7.1-.4,10.7-.4,3,0,6.2-1.1,9.2-.1.3,0,.7,0,1,0,3-.8,5.8-1.1,8.8-.2,2.2-.7,4.3-1,6.4-.5,3.4-1.6,6.8-2.2,10.2-.7,4.1-2.3,8-3.1,12.1-.5,2.3-1.4,4.5-2.1,6.7-1,3.1-2.1,6.3-3.2,9.4-.7,1.9-1.5,3.8-2.3,5.6-1.4,3.2-2.7,6.4-4.2,9.5-2,4.1-4,8.1-6.2,12-2.7,4.8-5.7,9.6-8.6,14.3-1.5,2.5-3.2,4.9-4.9,7.2-2.1,2.8-4.2,5.5-6.4,8.2-1.7,2.1-3.4,4.2-5.2,6.4M149.8,136.7c-2.3-.1-4.2-1.6-6.6-1.5-.2,0-.5-.5-.8-.8.3-.1.6-.4.9-.4.4,0,.8,0,1.2,0,10.8.1,21.5-.3,32.3.4,2.2.1,4.4,0,6.6,0h52.6c2.2,0,4.4,0,6.6,0,2.1.1,4.1-.4,6.2,0,.7.1,1.5-.5,2.1-.3,2,.8,4.1,0,6.1.3,1.1.1,2.3-.6,3.3-.3,1.2.4,2.4.3,3.6.3,1.2,0,2.3,0,3.5,0,2.7.3,4.6-1,6.5-2.6,2-1.7,4.1-3.2,6.2-4.8,1.5-1.2,3-2.3,4.5-3.5,2.4-1.9,4.7-3.9,7.1-5.8,1-.8,2-1.4,3-2.2,1.5-1.2,3-2.4,4.5-3.6,1-.8,2.1-1.5,3.1-2.3,1.1-.9,2.3-1.8,3.4-2.7,2-1.6,4-3.1,6.1-4.7,1.7-1.3,3.3-2.6,5-3.9.6-.5,1.2-1,1.8-1.6.1-.2,0-.8,0-.9-2.3-2.4-4.6-4.9-7.1-7.1-2.4-2.1-5-4-7.6-6-2.5-1.9-5.1-3.8-7.7-5.7-2.7-2-5.7-3.8-8.6-5.5-3.5-2-7.1-3.8-10.6-5.8-1.7-1-3.7-1.6-5.6-2.3-.3-.1-.9-1.8-1,.1,0,.1-.1.2-.2.3-.1-.1-.4-.3-.4-.4,0-1.3-1.2-1.6-2-1.9-3.4-1.4-6.9-2.6-10.4-3.8-1.4-.5-2.8-.8-4.2-1.3-1.7-.6-3.6-.8-5.2-1.4-1.6-.6-3.2-1.1-4.7-1.4-4-.6-7.9-1.7-11.9-2.3-3.5-.5-7-.9-10.4-1.4-3.3-.5-6.7-.4-10.1-.5-.4,0-.8,0-1.2,0-.8,0-1.8-.5-2.5-.2-1.2.5-2.4.3-3.6.3-2.1,0-4.3-.5-6.4,0-.8.2-1.6.6-2.3.4-1.7-.6-3.4,0-5,.2-2.8.3-5.6.4-8.4,1.1-2.2.5-4.4.5-6.6.9-2.9.6-5.7,1.3-8.6,2-3.5.8-7,1.6-10.4,2.6-3.4,1-6.7,2.3-10,3.6-3.6,1.4-7.2,2.8-10.7,4.4-4.3,2-8.5,4.3-12.7,6.5-2,1-3.9,2.1-5.8,3.4-3.2,2.2-6.4,4.4-9.6,6.6-3.1,2.1-5.9,4.5-8.9,6.7-3.4,2.5-6.4,5.6-9.4,8.5-3.2,3.1-6.1,6.4-9.1,9.7-2.4,2.7-4.7,5.7-7,8.5-2.8,3.4-5.3,7.1-7.6,10.8-2.8,4.6-5.4,9.4-7.9,14.2-1.4,2.6-2.4,5.3-3.6,7.9-1.5,3.5-2.9,7-4.1,10.6s-1.8,5.3-2.5,7.2-1,4.2-1.6,6.3c-1.2,3.8-1.8,7.8-2.5,11.7-.5,2.9-.9,5.8-1.2,8.7-.3,2.8-.6,5.5-.8,8.3-.2,2.6-.2,5.2-.3,7.8-.2,3.4-.4,6.9.3,10.3.4,2.2.1,4.5.4,6.8.3,2.6.4,5.1.9,7.7.5,2.8.8,5.7,1.3,8.5.2,1.4.5,2.8.8,4.2.3,1.5.5,2.9.8,4.4.4,1.6.8,3.2,1.2,4.8.2.7.7,1.3.8,1.9.1,2,1,3.8,1.6,5.7.9,3.1,1.9,6.2,3.1,9.2,1.2,3,2.6,5.9,3.9,8.9.7,1.8,1.8,3.4,2.5,5.1,1.1,2.7,2.6,5.1,4.1,7.6.6,1,1.1,1,1.9.4,2.2-1.6,4.4-3.3,6.6-4.9,1.4-1,2.6-2.2,4-3.2,4-2.7,7.8-5.7,11.6-8.7,2-1.6,4.1-3,6.1-4.6,2.6-1.9,5.2-3.8,7.6-5.9,2.6-2.3,5.5-4.2,8.2-6.3,2.6-2,5.2-4.1,7.9-6.1.3-.2.5-.8.4-1.2,0-2.5-.3-5-.4-7.4,0,0,0-.1,0-.2-1.1-2.9-.6-6-1.2-9-.3-1.5-.2-3.1-.5-4.6s-.8-4-.8-6-.2-3.2-.4-4.8c-.4-2.4-.9-4.9-1.2-7.3-.2-1.6-.1-1.7-1.6-1.7-.5,0-1.1,0-1.6,0-1.3.2-2.3-.8-3.4-1.3-.3-.2-.3-1.2-.4-1.8,0-.1-.2-.2-.3-.3-.6-2.2,0-3.5,2.1-4.5,1.1-.5,2.3-.4,3.4-.3,5,0,10,.2,15,.4,4.3.2,8.7-.5,13,.4.4,0,.8,0,1.2-.1.6,0,1.2-.4,1.7-.2,1.4.5,2.9,0,4.2.1s2.8.3,4.1.2,3.1,0,4.6,0c8.4,0,16.7,0,25.1,0,1.4,0,2.3-.5,3.4-1.3,1.6-1.2,2.9-2.9,4.8-3.7.8-.3,1.4-1,2-1.6,1.8-1.4,3.5-2.8,5.3-4.1,1.8-1.4,3.6-2.7,5.3-4,1.6-1.2,3.2-2.6,4.8-3.8,1.3-1,2.7-2,4.1-3,1.7-1.3,3.4-2.6,5.1-4,2-1.5,4-3,5.9-4.6,2.7-2.4,5.7-4.3,8.6-6.5.5-.4,1-.9,1.5-1.4.5-.6-.5-4.4-1.2-4.6-.9-.3-1.8-.5-2.7-.8-3.9-1.2-7.9-2.4-11.8-3.7-1.9-.6-3.7-1.2-5.6-1.9-1.4-.5-2.9-1-4.4-1.4-1.8-.5-3.5-1.2-5.3-1.6-4.5-.9-8.5-3-13-3.9-1.9-.4-3.7-1.3-5.6-1.8-2-.6-3.9-1.8-6.1-1.7-2.9-1.5-6-2.4-9.2-3.1-2-.4-3.9-1.2-5.8-1.9-3-1-5.9-1.9-9.1-3.1M194.6,261.2c-.3,1.2-.7,2.4-.8,3.6-.3,3.2-.6,6.3-.8,9.5-.1,1.7-.2,3.3-.4,5-.3,1.8-1,3.6-1.2,5.5-.2,2.8-.5,5.5-.8,8.3-.4,2.9-.5,5.8-1.1,8.8-.5,2.4-.5,5-.9,7.4-.4,2.1-.3,4.3-.5,6.4-.1,1.3,0,2.7-.5,3.9-.8,2.5-1,5-1.1,7.5-.1,1.9,0,2.3-2.2,2.2-4.8-.2-9.6.3-14.4-.4-2.2-.3-4.5,0-6.8,0h-6.6c-2.3,0-4.5-.1-6.8,0-2.2.1-4.3-.6-6.4,0-.4,0-.9-.2-1.3-.2-1.1,0-2.1,0-3.2,0-.5,0-1,.3-1.5.2-.8,0-1.6-.3-2.4-.3-.9,0-1.9,0-2.9,0-2.1,0-4.2,0-6.4,0-.9,0-1.4-.9-1.1-1.8s0-.1,0-.2c0-1.3-.6-2.5-.7-3.7-.1-2.1,0-4.1-.4-6.2-.4-1.7-.6-3.5-.8-5.2-.1-.8-.3-1.7-.4-2.5,0-1,0-1.9,0-2.9,0-.5-.3-1-.7-1.3-.2-.1-.9.2-1.2.4-.7.6-1.2,1.4-1.9,1.8-3.3,1.7-6,4.3-9,6.4s-3.9,2.9-5.8,4.4c-4.5,3.6-9.1,7-13.6,10.6-.9.7-1,1.2-.3,2,1.6,1.7,3.1,3.6,5,4.9,3.2,2.3,5.8,5.2,9,7.5,1.8,1.2,3.4,2.6,5.2,3.9,2.6,1.8,5.3,3.5,7.8,5.4,4,2.8,8.3,5.1,12.6,7.3,1.6.8,3.2,1.5,4.8,2.3,3.3,1.6,6.6,3.3,10,4.6,4.1,1.6,8.3,2.9,12.4,4.2,3.5,1.1,7.1,2,10.7,2.9,1.6.4,3.2,1.2,4.8,1.2,3.4,0,6.6,1.3,10,1.4,2.6,0,5.3.9,7.9,1.1,3.1.3,6.3.4,9.5.4,3.4,0,6.7-.3,10.1-.4,1.8,0,3.8.3,5.5,0,2.3-.4,4.6-.3,6.9-.7,1.3-.2,2.6-.3,3.9-.4.6,0,1.1-.3,1.7-.4,2-.3,4-.6,5.9-1,2-.5,4-.9,6-1.3,2.5-.5,4.8-1.3,7.3-1.8.9-.2,1.7-.5,2.5-.8,1.6-.5,3.2-.8,4.7-1.5,2.1-.9,4.3-1.6,6.4-2.4,4.5-1.7,8.8-3.9,13.1-5.9.6-.3,1.2-.6,1.8-.9,4.3-2.5,8.8-4.6,12.9-7.4,2.7-1.8,5.4-3.5,8-5.5,2.9-2.1,5.5-4.6,8.4-6.6,3.2-2.3,5.9-5,8.7-7.6,2.6-2.4,5-4.9,7.4-7.4.3-.3.7-.6,1-1,1.5-1.9,2.8-4,4.6-5.7,2.4-2.2,4-5,6-7.5,2.3-2.9,4.1-6.2,6.2-9.3,2.6-4,5-8.2,7.2-12.5,1.9-3.9,3.8-7.9,5.6-11.9,1.4-3.2,2.7-6.4,3.8-9.7,1.4-4,2.5-8.1,3.7-12.2.7-2.4,1.7-4.9,2-7.4.3-2.8.9-5.4,1.5-8.1.6-2.9.9-5.9,1.5-8.8.7-3.4.7-6.9,1.1-10.3s0-1,0-1.6c0-5.6.2-11.2-.3-16.7-.3-2.9-.3-5.8-.4-8.7,0-.9-.3-1.7-.4-2.6-.2-1.3-.3-2.6-.4-3.9-.1-1.4,0-2.8-.5-4.1-.8-2.5-.7-5.1-1.5-7.6-1.1-3.7-1.7-7.5-2.7-11.2-1-3.5-2.2-7-3.5-10.5-.9-2.5-1.8-4.9-2.8-7.3-1.9-4.7-4.4-9.1-6.4-13.8-.3-.6-.9-1.1-1.5-1.4-.2-.1-.8.5-1.2.8-.3.2-.6.3-.8.4-2.9,2.4-5.8,4.7-8.8,7.1-1.6,1.3-3.2,2.6-4.8,3.9-1.5,1.2-3.2,2.3-4.7,3.6-2.1,1.7-4.4,3.1-6.4,5-1.1,1.1-2.6,1.9-3.9,2.9-2,1.6-3.9,3.2-5.8,4.8-.5.4-.8,1-1.3,1.2-2,.9-3.6,2-5.5,5s-1.1,1.3-1.9,1.7c-5.7,2.7-5.3,2.6-5.1,4.4s0,.2,0,.2c1.8,3.6,3.7,7.1,5.4,10.7.9,1.9,1.7,3.8,1.4,6-.2,1.2,0,2.4,0,3.6,0,.5,0,.9-.1,1.4,0,.7-.4,1.5-.2,2.1.1.6.6,1-.1,1.5-.5.4-.8,1-1.7,1-3.6,0-7.2.2-10.7.4-2.5.1-5.1-.1-7.7.3-2.8.5-5.7.3-8.5.5-2.7.1-5.4.2-8,.4-.9,0-1.7.6-2.6,0-.2-.1-.6-.1-.8,0-.8.7-1.8.3-2.7.4-1.3,0-2.3.5-3.5,1.1-1,.5-1.4,2.1-2.9,1.9-.2,0-.4.4-.6.6.2,0,.5.2.7.2,1.2,0,2.4-.1,3.5,0,1.1.2,2.1,0,3.2,0,1.7,0,3.3.1,5,.3,2.9.4,5.8-.1,8.7.4.7.1,1.5-.4,2.3-.3,1.2,0,2.4.3,3.5.4,2.9.2,5.8-.3,8.7.4.6.1,1.4-.4,2.1-.3,1,0,2,.4,2.9.3,1.6-.1,3.2.1,4.8,0,.6,0,1.1.2,1.7.3.4,0,.8,0,1.1-.1,1.3-.3,2,.3,1.6,1.5-.8,3.1-1.2,6.3-1.2,9.6,0,.3,0,.7,0,1-1,3-.6,6.1-1.2,9.2-.3,1.5-.1,3.1-.5,4.5-.4,1.9-.7,3.9-.8,5.8,0,.6.1,1.3,0,1.8-.6,2.7-.8,5.4-.8,8.1,0,.5,0,1.1,0,1.6-.7,2.3-1.1,4.7-1.2,7.1,0,1.5,0,3.1-.4,4.5-.5,2.2-.4,4.5-.8,6.7-.2,1.2,0,2.6-.5,3.7-.6,2-.3,4.1-.7,6.1-.4,1.6-.1,3.3-.5,4.9-.6,2.6-.3,5.3-.8,7.9-.3,1.5,0,3.1-.5,4.5-.5,1.9-.4,3.8-.7,5.6-.4,2.1-.3,4.3-.5,6.4,0,.1,0,.3,0,.4-1.2,2.4-.8,5-1.1,7.5-.4,2.7-.5,5.4-.9,8.1-.4,2.8-.4,5.7-.9,8.5-.3,2.1-.3,4.1-.4,6.2,0,.4-.3.7-.4,1.1,0,.2-.1.3-.2.5,0-.2-.1-.4-.2-.5-.3-1.1-.6-2.2-.8-3.4-.5-2.3-.4-4.8-1.6-7-.4-.8-.5-1.8-.5-2.7,0-2.2-.8-4.2-1.2-6.3-.3-1.3-.7-2.6-1-3.9-.2-1.1-.2-2.2-.5-3.3-.6-2.8-1.1-5.7-2-8.4-.6-2-.7-4-1.3-6-.7-2.1-1.3-4.4-1.4-6.6-.2-3.2-1.3-6.2-1.9-9.3-.5-2.4-.5-5-1.8-7.2,0-3.1-1.4-5.9-1.7-9-.4-3.7-1.5-7.4-2.4-11.1-.2-.8-.5-1.6-.8-2.3,0-.2-.3-.3-.4-.5-.1.2-.3.4-.4.6-.4.7-.8,1.4-1.3,2.1-1.9,3.3-3.8,6.5-5.7,9.8-1.4,2.4-2.8,4.8-4.2,7.1-2,3.4-4.1,6.8-6.1,10.2-1.2,2.1-2.3,4.3-3.5,6.4-2.2,3.8-4.5,7.5-6.7,11.2-2.1,3.5-4.1,7.1-6.1,10.6-.9,1.5-1.8,3.1-2.7,4.7-1,1.8-2.1,3.5-3.1,5.3-1.3,2.4-2.5,4.9-4,7.2-1.8,2.8-3.7,5.5-4.9,8.7-.2.4-.4.8-.7,1.1-.1.1-.4.2-.5.2-.1,0-.3-.3-.3-.4,0-.4.2-.9.3-1.3.3-1.4.7-2.8.9-4.1.4-2.2.8-4.5,1.4-6.6.8-3.2,1.3-6.4,1.9-9.7.4-2,.8-4,1.2-6.1.2-1.1.7-2.1.8-3.2.1-3.3,1.4-6.3,1.7-9.6,0-1,.8-2,.7-3,0-2.2.9-4.2,1.2-6.3.3-1.9.6-3.7.9-5.6.2-1.1.2-2.2.6-3.3,1-2.9,1.2-5.9,1.9-8.9.4-1.9.8-3.8,1.1-5.7.4-2.3.9-4.6,1.3-6.8.5-2.3,1-4.6,1.4-6.9.4-2.3.8-4.7,1.4-7,.9-3,1.2-6.2,1.7-9.4.3-1.7.6-3.5,1-5.1.9-3.6,1.5-7.2,1.9-10.8s0-.1,0-.2c.4-1.2.8-2.4,1.1-3.6,0-.2,0-.4,0-.6-.2,0-.4.2-.6.3-1.5,1.3-3.1,2.5-4.6,3.8-1.7,1.4-3.5,2.7-5.3,4.1-2.2,1.7-4.3,3.5-6.5,5.2-2.5,1.9-5.2,3.7-7.7,5.7-2.2,1.8-4.5,3.5-6.7,5.3-2.6,2-5.2,4.1-8,6-1.4,1-2.3,2.5-4.1,3-1,.3-1.5,1.5-1.6,2.5-.1.9-.1,2-.1,2.9,0,1.5-.2,2.9-.4,4.4-.2,1.7-.5,3.3-.8,5.4M233.7,179.5c-1-1-2-2-3-3.1-.5-.5-1-.6-1.6-.2-.8.6-1.5,1.3-2.3,1.9-.8.6-.8,1.5-.5,2.3.9,2.4,1.8,4.7,2.7,7.1,1.6,4.1,3.3,8.2,4.9,12.3.2.4,0,.9.1,1.4-.3-.2-.7-.4-1-.6-.4-.3-.9-.6-1.3-.9-2.6-1.9-5.1-3.8-7.7-5.7-2.6-1.9-5.3-3.8-7.9-5.8-.8-.6-1.5-.5-2.2-.2-.8.3-1.5.8-2.1,1.3-.4.4-.8.9-1,1.4,0,.4.3.9.5,1.3,1.8,2.8,3.7,5.6,5.5,8.4,1.5,2.3,3.2,4.3,4.5,6.8,1.2,2.3,2.8,4.5,4.4,6.6,1,1.4,1.7,1.4,3,.1.1-.1.3-.3.4-.4.6-.6.6-1.4,0-1.9-1.6-1.6-2.5-3.6-3.8-5.4-1.4-1.9-2.7-3.8-4.1-5.7-1.1-1.5-2.1-3.1-3-4.7-.1-.2,0-.6-.1-.8.2,0,.5,0,.7.2,1.9,1.3,3.7,2.6,5.6,3.9,3.2,2.3,6.4,4.6,9.7,6.9.8.6,1.6,1.5,2.4,1.5.8,0,1.6-1,2.5-1.3.9-.3.9-.9.8-1.5-.5-1.8-1.1-3.5-1.8-5.2-1.5-3.8-3.2-7.6-4.8-11.4-.4-1.1-.9-2.1-1.2-3.2,0-.3,0-.7,0-1,.2.2.5.3.7.5.4.3.7.7,1,1,2.9,3.3,5.7,6.5,8.6,9.8,1,1.2,2,2.3,3.1,3.5.3.4.8.7,1.3.9.6.3,1.2,0,1.6-.5.4-.5.8-1,1.2-1.6,0-.1-.1-.5-.3-.7-.2-.3-.5-.5-.7-.7-2.6-2.9-5.2-5.8-7.9-8.7-2.3-2.5-4.6-4.9-7-7.8M132.5,265c1,.7,2,1.4,3,2.2,3.6,2.8,7.3,5.6,11.2,8.1,1.2.8,1.8.4,2.5-.2,1.7-1.4,1.8-2,.9-3.9-.1-.2-.2-.4-.3-.7-1.3-3.8-2.9-7.6-4.5-11.3-.9-2-1.6-4-2.4-6,0-.2,0-.4.2-.7.2,0,.4,0,.5.2.4.3.7.7,1,1,2,2.2,4,4.5,5.9,6.7,1.8,2,3.5,4,5.2,6.1,1.5,1.8,3,1.9,4.4,0,.2-.2.2-.8,0-1-2.7-3.1-5.5-6.1-8.3-9.1-.6-.7-1.3-1.2-1.9-1.9-2.6-3-5.1-6-7.7-8.9-1.3-1.4-2.1-1.4-3.5,0-.4.4-.7.8-1.2,1.2-.9.7-.7,1.6-.4,2.4,1.1,2.8,2.2,5.5,3.3,8.3,1.5,3.7,3.1,7.5,4.6,11.2.1.3,0,.7,0,1.1-.3-.1-.6-.2-.8-.4-3-2.3-5.9-4.6-8.9-6.8-1.5-1.1-3-2.2-4.6-3.3-1.4-1-2.7-2-4.2-2.9-.6-.4-1.6-.4-2.2.4-.2.3-.5.5-.7.7-1.8,1.3-1.8,1.4-.9,3.2.2.4.5.8.7,1.1,2.2,3.3,4.5,6.6,6.7,10,1.5,2.2,2.9,4.4,4.4,6.6,1,1.5,2,3,3,4.5.2.2.6.5.8.5,1.3-.1,2.3-1.9,1.8-3.2-.4-1-1-1.9-1.6-2.8-1.2-1.7-2.5-3.4-3.6-5.1-1.9-2.9-3.5-5.9-5.8-8.5-.2-.2-.2-.6-.3-.8.3,0,.6,0,.8.2.9.6,1.7,1.1,2.8,1.9M93.5,294.6c1.4.8,3,1,4.4,1.8,2.3,1.2,5,1.7,7.6,2.6,2.5.8,4.9,1.7,7.3,2.6.9.3,3.5-.8,3.7-1.8,0-.3,0-.7-.2-.9-.6-1-1.3-2-2-2.8-2.3-2.5-4.1-5.3-6.2-8-2.8-3.5-5.4-7.1-8.2-10.6-.4-.5-1-1.1-1.3-1.1-.6.2-1.4.7-1.7,1.3-.3.8-.4,1.8.3,2.6,1.6,1.9,3,3.8,4.5,5.7,1.4,1.8,2.7,3.5,4.1,5.3.9,1.1,1.9,2.1,2.7,3.2.3.4.6,1.1.4,1.3-.4.4-.9.2-1.4-.2-.2-.2-.4-.2-.7-.3-1.3-.6-2.6-1.4-4-1.7-2.6-.4-4.7-1.8-7.2-2.5-3.2-1-6.2-2.5-9.5-3.4-1.9-.5-2.9.1-3.9,1.3-.2.2-.2.7,0,1,.3,1.3,1.4,2.1,2.1,3,1.6,2,3.1,4.2,4.7,6.3,2,2.7,4.1,5.3,6.1,8,1.3,1.8,2.6,3.6,4,5.3,0,.1.5,0,.7,0,.4-.1.7-.4,1-.6,1.7-1.1,1.8-2,.4-3.5-.4-.4-.7-.9-1.1-1.4-1.4-1.9-2.8-3.8-4.3-5.6-2-2.5-4-5.1-5.9-7.6-.1-.2-.2-.4-.3-.6.3,0,.6-.1.8,0,1,.4,2,.8,3.2,1.4M187,228.6c0,1.7.1,3.4.2,5,0,1.5.5,3.1.3,4.6-.3,2.1,1,3.3,2,4.7.1.2.7.3.9.2,1.8-1.2,3.7-2.4,5.4-3.8,3.2-2.5,6.3-5,9.4-7.5.2-.1.4-.4.4-.6,0-1-.6-1.8-1.4-2.2-.5-.3-1.4-.3-2.1.3-3.2,2.6-6.4,5.1-9.6,7.6-.2.1-.5.2-.7.3,0-.2-.2-.4-.2-.5-.1-2.4-.3-4.8-.4-7.2,0-1.6.2-3.3,0-4.9-.4-2.6-.8-5.2-.8-7.9,0-1-.1-1.9,0-2.9.4-2.1-.9-3.5-1.9-5-.4-.5-.9-.6-1.4-.2-1.4,1-2.9,2-4.3,3.1-3.3,2.6-6.6,5.2-9.9,7.8-.3.3-.6.3-.6.8,0,1.3.9,2,1.7,2.8,0,0,.4-.1.6-.2,2.3-1.7,4.6-3.5,6.9-5.2,1.2-1,2.5-2,3.7-2.9.5-.4,1.1,0,1.1.5.1,2.3.3,4.5.4,6.8,0,2.1,0,4.2.2,6.6M178.2,239.5c.3.5.7.9,1,1.4.5.8,1.3,1.6,1.5,2.4.3.8.4,2.1,0,2.6-1.3,1.5-2.9,2.8-4.5,4-1.6,1.2-3.3,2.2-5,3.3-.2.2-.5.6-.4.9.4,1.2,1.8,1.8,3,1.2,1.1-.5,2.2-1.1,3.2-1.7,2.5-1.4,4.7-3.1,6.7-5.3,2.2-2.5,2.4-3.7.9-6.6-.5-.9-.9-1.9-1.5-2.7-1.1-1.3-2.2-2.5-3.5-3.5-1.1-.8-2.5-1.2-3.9-.9-1,.2-1.9.8-2.7,1.3-2,1.3-3.9,2.8-5.9,4.2-1.4,1-2.7.8-3.8-.5-.6-.7-1.2-1.4-1.7-2.2-1.4-1.9-1.2-4.3.7-5.6,2.4-1.8,4.8-3.5,7.3-5.2,1.7-1.2,1.7-1.7,0-2.8-.3-.2-1-.1-1.4,0-1,.5-2,1.1-3,1.7-1.9,1.2-3.9,2.3-5.6,3.7-1.1.9-2.4,2.2-2.7,3.6-.4,1.9-.5,4.1.9,5.9,1.2,1.6,2.6,3,3.8,4.6,1.4,1.8,4.7,2,6.6.6,2.4-1.7,4.8-3.2,7.2-4.8.9-.6,1.7-.7,2.7.2M313.2,143.5c-1.6,1.2-3.2,2.3-4.7,3.5-.7.6-1.5,1.1-2.1,1.7-.2.2-.4.5-.3.7.4.6.7,1.3,1.3,1.7.3.2.9,0,1.4-.2.7-.4,1.4-.8,2.1-1.3,2.5-1.6,5-3.2,7-5.4.6-.7,1.5-1.2,2-2,.7-1.3,1.2-2.7.6-4.3-1.1-2.8-2.9-5.2-5.2-7.1-1.5-1.2-3.4-1.9-5.2-.8-1.7,1-3.2,2.3-4.8,3.4-1.2.9-2.5,1.6-3.7,2.5-.8.6-1.5.4-2.1-.4-1.2-1.4-2.4-2.8-3.5-4.3-.5-.6-.5-1.5.1-2.2,1.1-1.1,2.2-2.2,3.4-3.1,2-1.5,4.1-3,6.2-4.4.9-.6.7-1.3.3-2-.6-1-1.2-1.2-2.1-.7-.6.3-1.3.6-1.8,1-2.9,1.9-5.8,3.7-8.3,6.2-1.7,1.7-2.3,5-1,6.9,1,1.6,1.9,3.2,3.1,4.7,2.1,2.7,4.8,3.1,7.9,1.7,2.2-1.1,3.9-2.8,5.8-4.2,1.6-1.2,4.2-1.5,5.2.8.5,1.1,1.2,2.1,1.7,3.2.1.2.3.6.2.8-.7,1.5-1.5,2.9-3.4,3.8M201.2,218.5c.8,1,1.6,2.1,2.5,3.1,1.1,1.4,2.2,2.8,3.5,4.1,1.2,1.2,2.9,1.7,4.5,1.1,1.2-.4,2.4-1.3,3.4-2.1,2.5-2.1,4.8-4.2,7.2-6.4,1.4-1.2,1.4-1.9-.2-3-.3-.2-1-.2-1.4,0-.7.4-1.4,1-2,1.6-2.3,1.8-4.7,3.6-7,5.4-1.2.9-2.3.8-3.1-.4-1.2-1.6-2.3-3.2-3.5-4.7-.4-.5-.4-.8,0-1.2,1.4-1.2,2.9-2.4,4.3-3.5,1.4-1.1,2.8-2.2,4.2-3.3.3-.3.7-1.1.6-1.3-.6-.7-1.3-1.3-2-1.9,0,0-.2,0-.3.2-2.8,2.1-5.7,4.2-8.4,6.4-.7.5-1.2.6-1.7,0-1-1.2-2.1-2.4-3-3.7-.4-.5-.7-1.1-1-1.6-.4-.7-.4-1.4.3-2,1.2-1,2.5-2,3.7-3,1.8-1.5,3.7-3,5.5-4.6.2-.2.6-.6.5-.8-.4-.7-.7-1.4-1.3-1.9-.2-.2-1.1.1-1.5.4-3.3,2.2-6.5,4.5-9.7,6.9-1,.8-2.1,2.1-2.1,3.1,0,1.5.3,3.2,1.5,4.5.9,1,1.6,2.1,2.4,3.1,1.4,1.7,2.7,3.4,4.1,5.5M287.5,147.4c-1,.7-1.9,1.3-2.9,2-.6.5-1.3,1.4-1.9,1.3-.6,0-1.2-1-1.7-1.6-1-1.3-2.1-2.5-3-3.9-.8-1.1-.6-2,.5-2.9,1.2-.9,2.5-1.7,3.6-2.6,1.8-1.4,3.5-2.8,5.2-4.3,1.1-1,1-1.9-.3-2.8-.3-.2-1-.2-1.4,0-3.4,2.4-6.8,4.8-10.1,7.2-1.9,1.4-3.1,4.3-1.4,6.6.9,1.1,1.7,2.3,2.5,3.5,1.3,1.8,2.7,3.7,4,5.5,1.9,2.5,3.8,4.9,5.7,7.3,1.7,2.1,4.7,2.6,6.7,1,1.2-.9,2.2-1.9,3.3-2.9,1.6-1.4,3.3-2.7,4.9-4.1.5-.4.9-.8,1.3-1.3.6-.7.6-1.4-.1-2.1-.6-.5-1-1.5-2-.3-1.3,1.3-2.8,2.4-4.3,3.5-1.8,1.3-3.4,2.9-5.4,3.8-.6.3-.8.3-1.2-.1-1.1-1.3-2.2-2.5-3.3-3.8-.4-.5-.7-1.1-1-1.6-.2-.4-.4-.7,0-1.1,1.8-1.6,3.5-3.2,5.2-4.8.9-.8,1.8-1.6,2.7-2.3,1.1-.9,1.3-1.2.6-2.3-.5-.8-1.3-.9-2.4-.1-1.3.9-2.7,1.8-4.2,3M258.9,190.8c2.5-2.2,4.9-4.4,7.4-6.5.7-.6.8-1.2.6-2-.3-.8-1.4-1.2-2.2-.9-.4.1-.7.3-1,.6-1,.9-2,1.7-3,2.6-1.6,1.4-3.2,2.7-4.9,4.1-.8.6-2.1.6-2.6,0-1.4-1.7-2.7-3.4-3.9-5.2-.2-.3-.2-1,0-1.4.2-.5.7-.8,1.1-1.1,1.2-.9,2.4-1.8,3.6-2.8,1.1-.9,2.2-2,3.3-2.9,1.1-.9,1.2-1.2.4-2.1-.8-1-1.4-1.1-2.7-.2-2.4,1.7-4.8,3.4-7.1,5.1-2,1.5-2.2.8-3.4-.5-.8-.9-1.4-2-2.2-3-1.4-1.7-1.4-2.3.2-3.8.5-.5,1.1-.9,1.7-1.3,2.3-1.8,4.7-3.5,7-5.4.3-.3,1.1-1,.1-1.8-1.2-1.1-1.5-1.2-2.9-.3-3.1,2.2-6.3,4.3-9.4,6.6-.9.7-1.6,1.9-2.1,3-.4.9.3,1.8.7,2.8.7,1.6,1.8,3,2.8,4.4,1.8,2.5,3.6,5,5.5,7.4,1.6,2,3.2,4.1,5,5.9.7.7,1.9,1.1,2.9,1.4,1.1.3,2-.1,2.9-1,.5-.5,1.3-.8,2.2-1.4M114.4,288c1.4,2.2,2.8,4.3,4.8,6,1,.8,2.4,1.1,3.5.7,1.2-.4,2.2-1.2,3.3-2,.7-.5,1.1-1.2,1.8-1.7,2.3-1.6,4.4-3.5,6.3-5.6.3-.3.5-.9.3-1.2-.4-1-2.1-1.4-2.9-.7-.8.7-1.6,1.4-2.5,2-2.1,1.6-4.3,3.2-6.4,4.8-.7.5-1.6.3-2.1-.4-1.2-1.6-2.4-3.3-3.7-4.8-.4-.5-.2-.8,0-1.1.2-.3.4-.7.7-.9,2.3-1.9,4.6-3.8,6.9-5.7.9-.7,1.3-1.7.9-2.4-.6-1-1.5-1.2-2.7-.5-.6.3-1,.8-1.6,1.2-2.2,1.5-4.4,3-6.5,4.6-.7.5-1,.2-1.3-.2-1.4-1.8-2.7-3.5-4.1-5.3-.6-.8-.5-1.4.3-2,2.3-1.8,4.5-3.6,6.8-5.4.8-.6,1.6-1.2,2.3-1.9.6-.6.6-1.3,0-1.9-.6-.7-1.4-.9-2.1-.4-3.1,2.2-6.3,4.4-9.4,6.5-2.4,1.7-2.8,5.2-1.1,7.2,1,1.2,1.8,2.7,2.8,4,1.8,2.3,3.7,4.5,5.7,7M172.8,310.2c0,1.9,0,3.8,0,5.7,0,1.8-1.2,3.4-.5,5.2.1.3-.4.7-.3,1,0,.5.3,1.1.7,1.3.7.3,1.5.4,2.3.4,2.1,0,4.2,0,6.4,0,.9,0,1.3-.3,1.4-1.2.2-1.7.6-3.5.8-5.2.2-1.5.3-3,.4-4.5.1-1.2.3-2.5.5-3.7.2-1.7.6-3.5.7-5.2,0-1.3-.2-1.5-1.5-1.5-2.9,0-5.7,0-8.6,0-1.7,0-1.7,0-1.8,1.9,0,1,.2,2,0,2.8-.3.9.6,1.8-.3,2.9M138.7,322.1c0-1.5,0-3-.3-4.6-.2-1.1.1-2.3,0-3.6-.4-3.1-.4-6.3-.5-9.5,0-.4,0-.8,0-1.2,0-.8-.7-1.7-1.3-1.4-1.2.5-2.3-.1-3.4,0-1.8,0-3.7,0-5.5,0-1.5,0-1.6.1-1.7,1.6,0,1.7.5,3.3.8,5,.5,3,.6,6.1.9,9.1.1,1.2,0,2.6.5,3.7.3.7,0,2,1.4,2,2.9,0,5.9,0,8.8,0,.1,0,.2-.4.3-1M142.4,302.4c-.3,1.4-.3,2.9-.2,4.3.2,2,.4,4.1.6,6.1,0,.8,0,1.6,0,2.5.1,2.4.3,4.9.4,7.3,0,.2.3.6.5.6,2.6.2,5.2.3,7.8.4,1.3,0,1.9-.6,1.9-2,0-5.9,0-11.9,0-17.8,0-1.4-.1-1.6-1.7-1.6-3.1,0-6.2,0-9.4.2M167.9,319.6c.1-.8.4-1.5.4-2.3.2-3.6.3-7.3.4-10.9,0-1-.3-2,.4-2.9.4-.6-.5-1.6-1-1.2-.9.6-1.9.3-2.7.3-1.9,0-3.9-.3-5.8-.4-1.5,0-1.5,0-1.5,1.4,0,3.3,0,6.6,0,9.9s0,2.5,0,3.7c0,1.1-.3,2.3-.4,3.4,0,.6,0,1.2,0,1.8,0,.8.3,1.1,1.1,1.1,2.7,0,5.3,0,8,0,.9,0,1.2-.4,1.2-1.2,0-.8,0-1.5,0-2.7M134,236.8c0-2.2-.1-4.5-.2-6.7,0-1.4-.2-1.5-1.5-1.5-1.8,0-3.6,0-5.3,0-2.5-.1-5.1.5-7.6-.3-.4-.1-1,.5-1.6.8.8,1.3,0,2.8.4,4.1.6,2.1.4,4.3.8,6.4.1.6.4,1.1.4,1.7,0,1.1.4.9,1.2.8,1.3-.2,2.7-.4,3.9-.2,1.3.2,2.7.4,4,.3.8,0,1.7-.3,2.5-.4.7,0,1.1-.3,1.6-.7,1.5-1,1.8-2.5,1.4-4.3M147.5,224.1c1.5,0,3,0,4.5,0q1.9,0,1.9-1.8c0-2.3,0-4.7,0-7s0-.8,0-1.2c.4-1.9.4-2-1.5-2-4.6,0-9.2,0-13.8,0s-.7,0-1,0c-.5.1-.7.3-.7,1.1,0,3.2.6,6.3.9,9.5.1,1.3,0,1.3,1.5,1.3,2.6,0,5.2,0,8.2,0M126.6,212.1c-.1-.1-.3-.4-.4-.4-3.1,0-6.3,0-9.4,0-.7,0-.6.4-.6.8.1,1.1.3,2.2.4,3.3.2,2,.3,4,.4,6,.1,1.3.7,1.8,2,1.9,1,0,2-.2,2.9,0,.9.2,1.7-.1,2.5,0,2.2.2,4.4.3,6.6.4,2,0,3-1,2.3-2.9-.3-1.1-.3-2.1-.3-3.1,0-1.4,0-2.9,0-4.3,0-1.2-.4-1.6-1.6-1.6-1.4,0-2.9,0-4.7,0M188.8,272.4c.2-1.8.3-3.6.8-5.4,0-.3.3-1-.6-1-.4,0-.7-.4-1.1-.4-1,0-2.2.6-3.1.3-1.1-.4-2.1-.2-3.2-.3-.7,0-1.6.5-2.1.3-.9-.5-1.8-.2-2.7-.3-.8,0-1.2.3-1.2,1.2,0,1.7,0,3.4-.3,5.2-.3,1.9,0,3.8,0,5.7,0,1.3.2,1.5,1.5,1.5,1.4,0,2.9,0,4.3,0,1.3-.1,2.6.8,4,0,.2-.1.6.1.9.2,1,.3,1.8,0,2-1,.2-1,.3-2.1.4-3.1.1-.8.3-1.7.4-2.9M267.8,158.1c-.9-1.3-1.7-2.8-2.8-3.9-.6-.7-.3-.9.1-1.2,1.5-1.1,3-2.2,4.6-3.3,1.7-1.2,1.7-2,.2-3.4-.9-.9-1.1-.9-2.1,0-.4.4-.8.7-1.2,1-1.3.9-2.5,1.9-3.8,2.8-1.6,1.2-3.2,2.5-4.8,3.8-1.7,1.3-3.3,2.6-4.9,3.9-.4.3-.6.7,0,1.2.4.4.7,1,1,1.4.6.7,1.1.7,1.8,0,1.3-1.2,2.7-2.2,4.1-3.4,1.1-.9,1.4-.9,2.4.2.2.2.3.5.5.8,1.6,2,3.1,4,4.7,6.1,1.6,2.1,3.2,4.3,4.8,6.4,1.3,1.7,2.8,3.4,4.2,5,.6.7,1.2.7,1.8,0,.4-.5.8-1,1.1-1.6.1-.2,0-.6,0-.8-1.4-1.9-2.9-3.7-4.3-5.6-1.4-1.8-2.7-3.5-4.1-5.3-1-1.3-2-2.6-3.2-4.1M174.3,287.8c-.2,3-.4,6-.6,9,0,.7.1.9.9.9,3.3,0,6.7,0,10,0,1,0,1.4-.4,1.4-1.4,0-1.6.1-3.2.4-4.7.4-2,.8-4,.8-6,0-1.4,0-1.5-1.4-1.4-1.9.1-3.8-.5-5.6.4-.9-1.1-2.1.3-3.2-.3-.6-.3-1.7,0-2.4.5-.3.2-.1,1.1-.2,1.7,0,.4,0,.8-.2,1.4M169.9,284.3c-3.8,0-7.6-.1-11.4-.2-.9,0-.5.6-.5,1,0,3.8,0,7.6,0,11.5,0,1,0,1.4,1.2.7.5-.3,1.4,0,2.1.1.6,0,1.1,0,1.7,0,.3,0,.6,0,.8,0,1.7,0,3.4.1,5,.1.2,0,.3-.5.5-.8-.7,0-.6-.2-.2-.6.2-.3.4-.7.4-1,.2-2.6.3-5.2.4-7.8,0-.5.5-1.3.3-1.4-.8-.5,0-1-.4-1.7M153.5,284.3c-1.1-.8-3.4-1-4.7-.2-2,1.2-4,2.5-6,3.9-1.2.9-2.3,1.9-1.3,3.7.2.4,0,.9,0,1.4,0,.8,0,1.5,0,2.3.1,1.4.7,1.9,2,1.9,2.8,0,5.6,0,8.4,0,1.4,0,1.5-.1,1.5-1.5,0-3,0-6,0-9,0-.7.1-1.5,0-2.4M170.8,276.1c0-1,0-2.1,0-3.1,0-.6.5-1.3.3-1.9-.4-1.2,0-2.3.3-3.5,0-.2,0-.5.1-.7-.3,0-.7-.2-.9,0-1.2.8-2.3,1.7-3.4,2.6-.6.5-1.1,1-1.7,1.5-1.9,1.4-3.8,2.7-5.6,4.2-.7.5-1.2,1.2-1.6,2-.7,1.3-.2,2,1.3,2,2.9,0,5.7,0,8.6,0,2.7,0,2.7.2,2.6-3.1M190.4,257.2c.5-1.9.9-3.8.8-5.8,0-.2-.1-.4-.2-.5-.1.1-.3.3-.4.4-2,1.5-3.9,3.1-5.9,4.6-1.8,1.4-3.6,2.8-5.4,4.2-.2.2-.3.5-.4.8.3,0,.6.2.9.2.4,0,.9-.5,1.3-.4,1.8.5,3.6,0,5.4,0,.2,0,.4,0,.6,0q3.3.6,3.3-2.7v-.9M158.4,213.6c0,2,0,4,0,5.9,0,.4,0,.8.1,1.2.1.3.4.7.9.1.9-1,1.7-2.3,2.9-2.8,2-1,3.5-2.7,5.4-3.8.8-.5,1.5-1,2.3-1.4.1,0,.2-.3.4-.4-.2,0-.4-.1-.5-.2-.3,0-.6,0-.8,0-2.4.5-3.4.5-5.8,0-1.3-.2-2.6.4-4,0-.1,0-.5.6-.8,1.4M139.5,235.8c2.2-1.7,4.4-3.4,6.7-5.1.4-.3.7-.6,1.1-.8.3-.2.6-.3.9-.5-.3-.3-.9-.8-1-.7-1.2,1-2.4,0-3.6,0-.9,0-1.8-.3-2.7.3-.3.2-1,.2-1.4,0-.9-.5-1.1,0-1.2.7,0,1.2,0,2.5,0,3.7s0,1.5,0,2.2c0,.5.3,1.1,1.2.2M133.8,295c-.8.5-1.5,1-2.3,1.5-.1,0-.2.4-.2.5,0,.1.3.3.4.3.4,0,1-.5,1.2-.4,1.1.8,2.1,0,3.2,0,1,0,1.1-.7,1.2-1.2.3-.8,0-1.8-.8-2.3-.2-.2-.9.3-1.4.5-.5.2-.9.6-1.5,1.1M120.2,249.8c.3.2.4.9,1,.2.7-.7,1.5-1.3,2.3-1.9.3-.2.5-.4.8-.6-.3-.1-.6-.3-1-.4-.3,0-.5,0-.8,0q-2.3,0-2.3,2.7M79.5,56.1c-.7.7-1.4,1.4-2.1,2.1-.1.1-.2.3-.2.4.2,0,.5.1.5,0,.9-.8,1.7-1.7,2.6-2.6-.2,0-.4-.2-.7,0M307.2,159.7c-.4,0-.9-.2-1.3-.2-.1,0-.4.3-.3.3,0,.2.3.5.4.5.3,0,.7-.2,1.2-.6Z"/>
    <path d="M158.9,10.2c-.2.5.3,1.7-.9,1.1-.2-.1-.5-.7-.4-.8.3-.4.5-1.1,1.3-.4Z"/>
    <path d="M342.6,57.6c-.4.5-.7.6-.8,0,0-.6.1-1,.7-1.2,0,.3,0,.6.1,1.2Z"/>
    <path d="M394.8,135.7c-.4-.2-.6-.3-.8-.5.2-.1.4-.3.6-.3.3.1.7.3,1,.5-.2,0-.4.2-.8.3Z"/>
    <path d="M195.5,5c.3.1.4.4.6.6-.4,0-.7,0-1.1,0,.1-.1.3-.3.5-.5Z"/>
    <path d="M415.7.7c-.3,0-.5-.2-.7-.4.1-.1.2-.2.4-.4.2.2.3.4.4.7Z"/>
    <path d="M398.5,137c.3-.1.6-.2.8,0,.2.1.3.4.5.6-.2,0-.4-.1-.5-.2-.2,0-.4-.2-.7-.4Z"/>
    <path d="M83.3,21.3c0-.3.2-.5.4-.7,0,0,.2,0,.3.1-.2.2-.4.4-.7.6Z"/>
    <path d="M360.7,343.3c-.3,0-.5,0-.8-.2.3,0,.5,0,.8.2Z"/>
    <path d="M398.5,136.8c-.2,0-.5,0-.7,0,0,0,0-.2,0-.3.2,0,.4.1.7.3Z"/>
    <path d="M398,91.6c-.1,0-.1-.1-.1-.3,0,0,.2.1.1.3Z"/>
    <path d="M112.3,12.6c-.1,0-.1-.1-.1-.3,0,0,.2.1.1.3Z"/>
    <path d="M250.5,129.9c-2.1.6-3.9.5-5.9.1-1.4-.3-2.9-.4-4.3-.9-2.5-.9-4.8-2.2-6.8-4-1.9-1.7-3.5-3.6-4.6-5.9-.7-1.4-1.2-2.8-1.4-4.3-.3-2-.4-4.1-.4-6.2,0-2.6.7-5.1,1.8-7.5,2.5-5.6,7.1-9,12.6-11.3,1.2-.5,2.5-.5,3.8-.6,1.4-.1,2.7,0,4.1,0,3,0,5.5,1.1,8,2.6,1.6.9,3.2,1.7,4.4,3.2,2.5,3,4.5,6.2,5.2,10.2.4,2.6.1,5.1.3,7.6,0,.4-.3.8-.4,1.3-.9,2.9-2,5.8-3.8,8.2-2,2.7-4.8,4.7-7.8,6.3-1.4.7-3,.9-4.8,1.4Z"/>
    <path d="M125.8,184.9c1-1,1.8-1.9,2.7-2.7,2.5-2.4,4.3-5.4,6.5-8,2.9-3.5,4.7-7.5,6.7-11.4.7-1.5,1.4-3,1.8-4.6.2-1,.6-.8,1.2-.6.6.3,1.2.7,1.8,1,1.4.8,2.7,1.8,4.4,2.3,1.4.4,2.8,1.3,4.2,1.8,2.3.8,4.7.9,7,.2.8-.2,1.7-.5,2.5-.4,2,.3,3.7-.7,5.6-1,1.8-.2,3.6-.8,5.4-1.4,2.1-.8,4.1-1.7,6-2.8.8-.4,1.5-1.1,2.2-1.7,1.1-.9,1-.9,1.7.4.7,1.3,1.6,2.3,2.3,3.6,1,2,2.3,3.7,3.8,5.4.7.8,1.4,1.2,2.5,1.1,1.6-.2,3.3-.4,5-.4,1.5,0,1.6.1.8,1.6-.8,1.5-1.7,3-2.6,4.5-1.5,2.3-3.1,4.5-5.1,6.3-1.9,1.7-3.9,3.3-6,4.8-2.5,1.8-4.7,3.8-6.7,6.2-1.7,2-3.3,3.9-4.8,6.1-.5.8-1.1,1.4-1.2,2.4,0,.6-.5.7-1.1.3-2.2-1.5-4.8-2.4-7.4-3-.2,0-.5-.3-.7-.3-1.1,0-2.2,0-3.3,0-.9,0-1.8-.4-2.7,0-2.5.9-5.1.8-7.7,1.2-2,.3-4.1.1-6.1-.1-.6,0-.9.2-1.4.2-2.6,0-5.2-.4-7.6-1-2.9-.7-5.7-1.7-8.5-2.8-1.6-.6-3.1-1.5-4.6-2.4-.8-.5-1-1.3-.3-1.8,1.2-1,2.4-1.9,3.7-2.9M164.4,169c-1.4-.2-2.9-.2-4.3-.6-2.8-.8-5.7-1.3-8.3-2.7-1.1-.5-2.3-.9-3.3-1.5-2.2-1.4-2.4-1.4-3.2,1.2,0,0,0,.1,0,.2-1.3,3-2.5,6.1-4.4,8.9-1.3,2-2.4,4.1-4,5.9-1.7,2-3.7,3.8-5.7,5.5-1.7,1.4-1.7,1.9.2,2.9.3.2.7.3,1.1.4,2.3.4,4.3,1.4,6.7,1.8,2.4.4,4.8-.3,7.1.7.1,0,.3,0,.4,0,1.7-.3,3.5-.5,5.2-.8,1.5-.2,2.9-.6,4.4-.8,1.3-.2,2.6-.4,3.9-.4,2.4,0,4.8-.3,7.2.3,1.2.3,2.4.2,3.5,1.1.5.4,1.3.4,1.8-.3,1.2-1.6,2.4-3.2,3.6-4.9.3-.4.7-.7,1-1,1-.9,2.1-1.8,3.2-2.8,1.4-1.2,2.6-2.6,4.1-3.6,3.1-2,5.8-4.5,8.3-7.2.2-.3.5-.7.4-1-.2-.6-.9-.9-1.3-.5-.8.7-1.7.3-2.5.3-2.7.2-5.5-.4-8.3.4-.4.1-1.1.2-1.4,0-1-.6-2-.3-2.9-.4-1.6,0-3.3.2-4.9,0-1.7-.3-3.4-.8-5.2-.8-.6,0-1.3-.3-2.3-.4M171.4,166.1c2.7.1,5.3-.1,8,.3,2.1.4,4.4,0,6.6,0,1,0,1-.6.7-1.1-.6-1-1.4-2-2.1-3-.4-.6-.9-.4-1.6-.2-1.8.7-3.5,1.7-5.6,2-1.8.2-3.4,1.1-5.3,1.1-.3,0-.7.4-.8.8Z"/>
    <path d="M97.1,256.4c-.3,0-.5,0-.6-.2.4-.4.7-.8,1.2-1.1.5-.4.7-1.3,1.6-.9-.4.5-.8,1-1.2,1.5-.2.2-.5.4-.9.7Z"/>
    <path d="M102.5,254.5c-.5,0-1.1-.1-1.2-.3-.2-.6.4-.5.7-.5,0,0,.1,0,.2,0,.5,0,.9-.2,1.4-.3-.3.4-.6.8-1.1,1.1Z"/>
    <path d="M95.2,250.9c.5-.1.9-.2,1.3,0,.2,0,.4.3.7.4-.3.1-.6.4-.7.3-.4-.2-1.3.6-1.2-.7Z"/>
    <path d="M110.7,256.1c-.4-.1-.7-.2-.8-.3,0,0,0-.5.2-.5.6-.1,1.1,0,1.4.7-.2,0-.4,0-.8.1Z"/>
    <path d="M114.1,252.1c-.5-.3-.6-.3-.2-.6.2-.2.5-.2.8-.2-.2.2-.3.5-.6.8Z"/>
    <path d="M42.5,215.8c0,.3-.3.5-.6.8,0-.1-.2-.3-.2-.3.2-.2.4-.3.8-.5Z"/>
    <path d="M96.5,252.9c.3,0,.4,0,.6,0,0,0,0,.3,0,.3-.2,0-.4-.1-.6-.3Z"/>
    <path d="M232.9,126.5c0-.1.1-.1.3-.1,0,0-.1.2-.3.1Z"/>
    <path d="M143.7,66.9c0-.1.1-.1.3-.1,0,0-.1.2-.3.1Z"/>
    <path d="M109.9,341.6c.6-.4,1.2-.7,1.8-.8.2,0,.4.2.7.2-.1.2-.2.4-.4.6-.3.3-.7.6-1.1.9-.3.2-.6.5-.9.7,0-.5,0-.9-.1-1.6Z"/>
    <path d="M109.5,343.3c-.8.2-1.6,1.3-2.6.2-.4-.6,0-.8.2-.9.8-.2,1.7-.4,2.4.7Z"/>
    <path d="M361.4,201.1c.2.4.4.7.5.9-.4,0-.9,0-1.2,0-.2,0-.3-.7-.2-.9.1-.4.5-.6.9,0Z"/>
    <path d="M116.2,325.7c1-.2.7.5.6.9,0,.1-.7,0-1,.1,0-.3.2-.6.4-1.1Z"/>
    <path d="M107.8,340.7c-.4.6-.9.4-.9,0,0-.4.3-.8.5-1.2.2.2.4.4.5.6,0,0,0,.3,0,.5Z"/>
    <path d="M251,297.7c-.4,0-.6-.2-.9-.4.4,0,.7,0,1.1,0,0,0,0,.1,0,.1,0,0,0,0-.2.2Z"/>
    <path d="M264.4,363.1c0,.3-.2.5-.4.7l-.4-.4c.2-.2.4-.3.7-.4Z"/>
    <path d="M130.6,330.6c.3,0,.4,0,.6,0,0,0,0,.3,0,.3-.2,0-.4-.1-.6-.3Z"/>
    <path d="M358.9,176.5c0,.1-.1.1-.3.1,0,0,.1-.2.3-.1Z"/>
    <path d="M128.9,331.7c0-.1.1-.1.3-.1,0,0-.1.2-.3.1Z"/>
    <path d="M132.4,332.1c-.1,0-.1-.1-.1-.3,0,0,.2.1.1.3Z"/>
    <path d="M151.7,321.8c-.1,0-.1-.1-.1-.3,0,0,.2.1.1.3Z"/>
    <path d="M128.1,240.2c.3,0,.4,0,.6,0,0,0,0,.3,0,.3-.2,0-.4-.1-.6-.3Z"/>
    <path d="M177,269c.3,0,.4,0,.6,0,0,0,0,.3,0,.3-.2,0-.4-.1-.6-.3Z"/>
    <path d="M176.2,273.1c.2.1.2.3.3.6,0,0-.2,0-.3,0,0-.2,0-.3,0-.6Z"/>
  </g>
</svg>