<?xml version="1.0" encoding="UTF-8"?>
<svg id="Layer_1" xmlns="http://www.w3.org/2000/svg" version="1.1" viewBox="0 0 511.6 381.1">
  <!-- Generator: Adobe Illustrator 29.3.1, SVG Export Plug-In . SVG Version: 2.1.0 Build 151)  -->
  <g id="Shape_112">
    <path d="M416.3,249.1c2.5,3.8,5.1,7.3,7.6,11,2.7,3.9,5.4,7.7,8.1,11.6,1.8,2.6,3.4,5.2,5.2,7.8,5.1,7.3,10.2,14.6,15.2,21.9,4.9,7.2,9.8,14.4,14.7,21.6,2.6,3.9,5.1,8,8,11.6,3.9,4.8,7,10.1,9.9,15.5,1.7,3.1.9,6.5-.9,9.5-2.3,3.9-5.7,6.6-10.2,7.6-.3,0-.5.1-.8.1-3.6.1-7.2.3-10.8.3-7.4.1-14.9.2-22.3.3-1.7,0-3.5,0-5.2,0-6.9.1-13.7.2-20.6.3-6.4.1-12.7.2-19.1.3-10.4.1-20.8-.1-31.2.4-14,.7-27.9.4-41.9.6-2.1,0-4.1,0-6.2,0-8.6.1-17.3.2-25.9.3-4.4,0-8.8.2-13.1.3-1.9,0-3.8.3-5.7.3-3,0-5.9,0-8.9,0-1.6,0-3.2-.3-4.8-.3-1.4,0-2.8.3-4.2.3-2.1,0-4.2-.3-6.3-.3-6.1,0-12.2.2-18.3.3-1.8,0-3.7,0-5.5,0-3.7,0-7.3.3-11,.3s-7.3-.3-11-.3c-8.1,0-16.2.2-24.3.3-11.1.1-22.2.2-33.2.3-5.9,0-11.9.2-17.8.3-3.6,0-7.1,0-10.7,0s-4.5,0-6.7,0c-1.3,0-2.7-.3-4-.3-6.4,0-12.9.3-19.3.3-9.2,0-18.4,0-27.6,0s-11.8.1-17.7,0c-3.9-.1-7.5-1.4-10.3-4.3-3.7-3.8-4.8-9.9-2.2-14.6,2.5-4.5,4.9-9,7.8-13.2,4.7-6.7,8.9-13.7,13.3-20.5,4.4-6.7,9-13.3,13.3-20.1,2.7-4.2,5.2-8.6,7.9-12.8,3.3-5.2,6.9-10.2,10.2-15.4,4.3-6.6,8.4-13.4,12.7-20,3-4.7,6.2-9.2,9.3-13.9,3.8-5.9,7.5-11.9,11.3-17.9,5.3-8.2,10.5-16.5,15.8-24.7,4.6-7.2,9.3-14.4,14-21.6,2.3-3.6,4.2-7.5,6.8-10.9,4.6-6.1,7.9-12.9,12.3-19.2,6.9-9.9,13.3-20.2,19.8-30.3,4-6.3,8-12.6,12-18.9,4.9-7.7,9.8-15.4,14.7-23.1,5.1-8,10.4-16,15.5-24,4.5-7.1,8.9-14.4,13.4-21.5,1.7-2.6,4.1-4.5,6.8-6,.6-.3,1.4-.4,2.1-.5,3-.3,6.1-.8,9,.5,3.7,1.6,6.5,4.3,8.8,7.6,3.2,4.7,6.4,9.3,9.6,14,3.9,5.7,7.6,11.6,11.5,17.3,5.3,7.7,10.8,15.2,16.1,22.9,3.1,4.5,5.8,9.3,8.9,13.7,5.1,7.3,10.4,14.5,15.4,21.8,2.8,4.1,5.4,8.3,8.1,12.4,4,5.9,8.2,11.7,12.2,17.5,3.9,5.6,7.6,11.4,11.4,17,6.2,9,12.5,18,18.6,27,3.4,4.9,6.5,9.9,9.9,14.8,4.8,7,9.6,13.8,14.4,20.8,5.3,7.7,10.5,15.4,15.7,23,.1.1.3.3.4.6M135.3,243.3c-.4.6-.8,1.2-1.2,1.8-4.6,7.1-9.2,14.2-13.8,21.4-2.5,3.8-4.8,7.8-7.3,11.6-4.3,6.8-8.7,13.6-13,20.4-5.8,9-11.5,17.9-17.3,26.9-2.7,4.2-5.5,8.4-8.3,12.7-.3.5-.6,1.4-.4,1.7.4.4,1.2.7,1.8.7,14.9,0,29.8-.2,44.7-.3,3.3,0,6.6.3,9.9.3,6,0,12-.2,18-.3,8.4-.1,16.8-.3,25.3-.3,2.1,0,4.1.3,6.2.3,5.5,0,11.1-.3,16.6-.3,10,0,20,0,29.9,0,7.3,0,14.6-.2,22-.3,7.1,0,14.2,0,21.3,0,2.4,0,4.8-.3,7.2-.3,6.5-.1,13-.2,19.5-.3,9.4-.1,18.8-.2,28.3-.3,5.4,0,10.8,0,16.2,0,1.8,0,3.7.3,5.5.3,3.5-.1,7-.5,10.5-.6,2.2,0,4.3.3,6.5.3,3.4,0,6.8-.5,10.2-.6,4.6-.1,9.1,0,13.7,0,2.3,0,4.7-.3,7-.3,6.4-.1,12.9-.2,19.3-.3,1.1,0,2.1,0,3.2,0,5.4-.1,10.8-.2,16.1-.3.9,0,1.9.3,2.9.3,1,0,1.4-.4.8-1.4-.9-1.5-1.7-3.2-2.7-4.7-4.5-6.6-9.1-13-13.6-19.6-2.1-3.1-3.9-6.5-6-9.6-1.6-2.4-3.6-4.6-5.3-7-2.8-3.9-5.5-7.9-8.2-11.9-5.7-8.4-11.4-16.9-17.1-25.3-2.3-3.4-4.3-7-6.7-10.3-3.4-4.9-7.1-9.7-10.5-14.6-6.5-9.4-12.9-18.8-19.3-28.2-4.6-6.8-9.1-13.6-13.7-20.4-5.1-7.6-10.2-15.3-15.3-22.9-3.6-5.4-7.3-10.8-11-16.2-3.1-4.5-6.2-8.9-9.3-13.4-4.6-6.8-9.1-13.6-13.6-20.4-2.8-4.2-5.9-8.2-8.7-12.4-5.2-7.8-10.3-15.6-15.5-23.5-2.4-3.6-4.9-7.1-7.1-10.8-1.1-1.9-3.1-2.6-4.6,0-2.6,4.3-5.1,8.5-7.8,12.7-2.9,4.6-6.1,9.1-9,13.7-5.9,9.3-11.6,18.8-17.5,28.1-4.7,7.5-9.7,14.9-14.4,22.4-3.2,5.1-6.2,10.3-9.4,15.4-4.7,7.4-9.5,14.7-14.2,22-6.5,10.2-12.9,20.6-19.4,30.8-5,7.9-10.1,15.9-15.2,23.8-2.1,3.2-4.2,6.5-6.3,10Z"/>
    <path d="M507.7,373.1c1.2-.6,2-.4,2.3.9,0,.2.3.6.4.6,1,0,1.3,1.1,1.1,1.3-.5.5-1.3,1-2,1.1-1.4.2-2.9,0-4.3,0-6.6.1-13.2.2-19.8.3-3.6,0-7.1.2-10.7.3-1.1,0-2.1,0-3.2,0-6,.1-12.1.2-18.1.3-3.3,0-6.5.3-9.8.3-4.9,0-9.8,0-14.7,0-2.4,0-4.8.3-7.2.3-2.2,0-4.3-.3-6.5-.3-3.5.1-7,.5-10.5.6-1.6,0-3.1-.3-4.7-.3-1.8,0-3.7.3-5.5.3-2.7,0-5.4-.2-8.2-.3-2.9,0-5.8-.2-8.7,0-15.1,1-30.3.5-45.4.7-1.6,0-3.1.6-4.7.6-2.8,0-5.6-.2-8.4-.3-2.2,0-4.4,0-6.5,0-1.6,0-3.2-.5-4.9-.6-.7,0-1.3.2-2,.3-1.7.1-3.3.3-5,.3-3.3.1-6.7.3-10,.3-1.8,0-3.7-.4-5.5-.6-.6,0-1.1,0-1.7,0,0-.2,0-.6,0-.6.5-.2,1.1-.4,1.7-.3,1.5,0,2.9.2,4.3.3,2.7.1,5.3.4,8,.3,2.3,0,4.6-.5,6.9-.6,1.4,0,2.8.3,4.2.3,1.7,0,3.4-.2,5.2-.3,1.7,0,3.4,0,5,0h4c.8,0,1.6,0,2.3,0,5.4-.2,10.8-.5,16.2-.6,3.4,0,6.9,0,10.3,0,1.7,0,3.4-.3,5.1-.3,1.2,0,2.5.3,3.7.3,1.7,0,3.3-.3,5-.3,2.4,0,4.8.5,7.2.3,6.8-.6,13.7,0,20.5-.3,2,0,3.9,0,5.9,0,3.1-.1,6.3-.4,9.4-.5,1.1,0,2.2.2,3.3.2,3.9-.2,7.8-.4,11.7-.6s.6,0,.9.1c1.6.5,3,.9,4.8.3,1.5-.5,3.3.2,5,.2,9.1,0,18.3-.2,27.4-.3,2.1,0,4.2-.4,6.4-.6,3.1-.4,6.2.9,9.2-.3.6-.3,1.6.3,2.3.3,2.1,0,4.2-.2,6.3-.3,5.6-.1,11.1-.3,16.7-.3,1.7,0,3.4.3,5.2.3.6,0,1.2-.3,1.7-.5-.3-.5-.7-1-1-1.4-.2-.2-.4-.3-.6-.7Z"/>
    <path d="M111.1,379.4c2.6-.1,4.9-.3,7.3-.3,1.9,0,3.9.3,5.8.3,1.5,0,3-.2,4.6-.3.3,0,.6.1.9.2-.2.1-.4.4-.7.4-1.1.3-2.2.6-3.4.7-3.2.2-6.4.3-9.7.3-2,0-4.1-.8-6.1.3-.2,0-.6,0-.6,0-.7-1.7-2-.7-3.1-.7-4.8.1-9.5.2-14.3.4-1,0-2,.3-3,.3-3,0-6-.2-9-.3-.8,0-1.7.3-2.5.3-5.6,0-11.2-.2-16.8-.3-3.8,0-7.7,0-11.5,0h-7.9c-6,0-12.1,0-18.1,0-1.6,0-3.2.3-4.8.3-1.2,0-2.3-.3-3.5-.3-1.7,0-3.3.3-5,.3-2.4,0-4.8-.2-7.2-.3-.4,0-.9-.3-1.3-.4.4-.3.8-.8,1.2-.8,1.3-.1,2.6,0,3.9,0,4.2,0,8.4,0,12.7,0,1.2,0,2.3-.3,3.5-.3,2.2,0,4.5,0,6.7,0,2.3,0,4.7.3,7,.3,4,0,8,0,12,0,1.3,0,2.6-.3,3.8-.3,3.2.1,6.5.5,9.7.6,1,0,2-.3,3-.3,4.7,0,9.3,0,14,0,2.1,0,4.2-.2,6.3-.3,4-.1,8.1.2,12.1.2,3.5,0,6.9-.3,10.4-.2,1.1,0,2.2.8,3.6.3Z"/>
    <path d="M200.8,380c-1.4,0-2.6,0-3.9,0-.7,0-1.3.3-2,.3-1.8,0-3.6,0-5.4,0-1.5,0-3-.3-4.5-.3-3.9,0-7.8.2-11.6.3-8.5.1-17,.3-25.4.3-1.7,0-3.4-.3-5.2-.3-1.8,0-3.7.2-5.5.3-.3,0-.6-.2-.9-.3.3-.1.5-.3.8-.3,6.1-1.1,12.3-.5,18.5-.7,4.1,0,8.2-.3,12.3-.3,2.6,0,5.2.3,7.7-.3.9-.2,1.9.2,2.8.3,1.3,0,2.6,0,3.9,0,2.2,0,4.4.3,6.7.4.9,0,1.7,0,2.6,0,1.9,0,3.8,0,5.7,0,1.7,0,3.3-.2,5-.3.3,0,.6,0,.8,0,.5.2.9.5,1.3.8-.5.2-1,.5-1.5.5-.7,0-1.3-.2-2.2-.3Z"/>
    <path d="M256.6,378.7h6c4.3,0,8.7,0,13,0,1.8,0,3.6.2,5.4.3.2,0,.3.3.5.4-.2,0-.3.2-.5.2,0,0-.1,0-.2,0-2.8.1-5.5.3-8.3.3-3.5,0-7,0-10.5,0-1.9,0-3.9.3-5.8.3-2.3,0-4.6-.3-6.8-.3-2.9,0-5.9,0-8.8,0s-5.1,0-7.7,0c-1.1,0-2.1,0-3.2,0,0,0-.2-.4-.2-.4.3-.2.6-.5,1-.5,2.8-.1,5.5-.3,8.3-.3,2.3,0,4.6.2,6.9.3.8,0,1.6-.3,2.3-.3,1.2,0,2.3.3,3.5.3,1.7,0,3.3-.2,5.2-.3Z"/>
    <path d="M43.4,313.6c-.4.4-.9.8-1.1,1.2-.8,2.6-3.1,4-4.7,5.9-.2.2-.6.2-.9.3.1-.3.2-.6.4-.8,5-6.4,9.5-13.1,13.5-20.1.2-.3.4-.5.6-.8,0,.3-.2.5-.2.8-.9,4.3-1,4.2-3.8,7.8-1.4,1.7-2.5,3.7-3.8,5.7Z"/>
    <path d="M8.7,366.6c-1.3,2.9-3.2,5.3-5.2,7.6-.7.7-1.4,1.4-2,2.1-.1.1-.3.2-.5.3,0-.2,0-.4,0-.6.5-.9,1-1.8,1.7-2.6,1.1-1.3,2.6-2.3,2.8-4.3,0-.9,1.2-1.8,1.9-2.6,1-1.3,2-2.6,2.9-3.9.8-1.2,1.3-2.4,2.1-3.6.1-.2.7-.2,1-.3,0,.5.2,1.2,0,1.6-1.4,2.2-2.9,4.2-4.4,6.4Z"/>
    <path d="M20.7,347.3c-.4.5-.6.8-.9,1.2-.2.3-.4.5-.6.8,0-.3-.2-.7,0-.9.4-.7.8-1.4,1.3-2.1.8-1.1,1.6-2.2,2.3-3.3.9-1.3,1.7-2.6,2.6-3.9,1.9-2.8,3.8-5.6,5.8-8.4.2-.3.9-.3,1.4-.5,0,.4,0,.8-.1,1.1-2.2,3.1-4.5,6.2-6.8,9.3-1.3,1.8-2.5,3.6-3.8,5.4-.3.5-.7.9-1.1,1.5Z"/>
    <path d="M239.7,8.1c1-1.5,1.9-3,2.8-4.5.5-.9.8-1.9,1.1-2.8.1-.3.2-.5.3-.8.2.2.6.4.6.6,0,1,0,2-.4,2.8-1.2,2.1-2.5,4.2-3.9,6.2-2.5,3.5-5.1,7-7.6,10.5-.1.2-.4.3-.6.5,0-.3,0-.7,0-.9,1-1.6,2.1-3.2,3.1-4.8,1.4-2.2,2.9-4.4,4.4-6.7Z"/>
    <path d="M168.5,120.2c-1.8,2.5-3.5,4.9-5.3,7.2-.2.2-.6.3-.9.4,0-.3,0-.7.1-.9,2.6-3.8,5.2-7.6,7.7-11.4,1.4-2.2,2.7-4.5,4.1-6.8.2-.3.6-.5.8-.8l.8,1.5c-1.9-.4-.4,2.6-2.3,2.2,0,0-.3.4-.4.6-1.5,2.6-3,5.3-4.7,8Z"/>
    <path d="M210,55.1c.2-.2.4-.4.6-.5.2-.1.5-.2.8-.3-.1.3-.2.6-.4.8-.7.8-1.5,1.6-2.1,2.5-.7,1-1.2,2-1.8,3.1-.6,1-1.2,1.9-1.8,2.9-.4.7-.7,1.5-1.2,2.2-.8,1.1-1.7,2.2-2.5,3.2-1,1.2-2.1,2.5-3,3.7-.3.3-.2.9-.4,1.3-.1.3-.3.6-.6.9,0,0-.4,0-.4,0-.1-.4-.4-1-.3-1.3.9-1.3,1.9-2.6,2.9-3.8.4-.5,1-.8,1.3-1.4,2.1-3.5,4.2-7,6.4-10.5.7-1,1.6-1.9,2.5-2.9Z"/>
    <path d="M225.4,30.6c.4-.4.7-.7,1-1,.4-.3.8-.6,1.2-.9-.1.6,0,1.5-.4,1.7-2.2,1.4-2.8,3.8-4.2,5.7-2.6,3.5-5.1,7-7.7,10.6-.1.2-.4.2-.6.3,0-.2,0-.4.2-.6,3.5-5.2,6.9-10.5,10.5-15.8Z"/>
    <path d="M130.3,177.3c1.3-1.8,2.5-3.6,3.7-5.4.9-1.3,1.8-2.6,2.8-3.8.6-.7,1-1.3,1-2.4,0-.8,1.1-1.6,1.8-2.3,0,0,.2,0,.3,0,0,.1,0,.2,0,.4-.1.9-.2,1.7-.3,2.6,0,.2,0,.4-.2.6-2.6,3-5.3,5.9-7,9.5-.8,1.6-2.3,2.9-3.6,4.3-.3.3-.8.3-1.2.5.2-.3.3-.7.5-1,.7-1,1.5-1.9,2.3-3Z"/>
    <path d="M148.9,148.7c1.3-2,2.6-3.9,3.8-5.8,1.4-2.1,2.8-4.3,4.2-6.4,0-.1.3-.2.4-.3,0,.2-.1.4-.1.6,0,.5,0,1,0,1.5,0,.6.4,1.8-1.1,1,0,0-.5.2-.5.4,0,2.3-1.9,3.6-3.1,5.2-1.8,2.6-3.1,5.7-5.8,7.6-.3.2-.6.3-.9.4.2-.3.3-.6.5-.9.8-1.1,1.6-2.1,2.5-3.2Z"/>
    <path d="M119.7,196.5c-1,1.4-2,2.7-3,4-.1.2-.2.5-.4.7-.3.4-.5.9-.8,1.3,0-.8-.4-1.7,0-2.3.8-1.4,1.9-2.6,2.8-4,.2-.3.5-.7.4-1-.2-1.9,1.4-2.7,2.4-3.8,0-.1.4,0,.6-.1,0,.3.2.6,0,.8-.6,1.4-1.3,2.9-2,4.4Z"/>
    <path d="M65.8,277.3c1.1-1.4,2-2.7,2.1-4.4,0-.2.6-.3.9-.5,0,.2.2.5.2.7-.4,2.4-1.5,4.3-3.3,6.1-1.7,1.6-2.8,3.8-4.2,5.7-.2.3-.5.5-.8.7,0-.4,0-1,.3-1.3,1.6-2.3,3.2-4.6,4.9-7Z"/>
    <path d="M189.7,84.9c.8-.8,1.5-1.6,2.3-2.2.2-.2.6,0,.9,0,0,.2-.1.5-.2.7-.8,1.4-1.6,2.8-2.5,4.1-.6.8-1.3,1.6-1.9,2.4-.5.7-1,1.5-1.4,2.2-.2.4-.4.9-.6,1.3-.2-.1-.6-.3-.6-.4,0-.6,0-1.2.2-1.7,1-1.5,2.1-3,3.1-4.5.3-.5.5-1.1.8-1.8Z"/>
    <path d="M83.8,251.7c-.7.6-1.6,1.1-1.9,1.8-.9,2.5-2.9,4.2-4.6,6,0,0-.2,0-.3.1,0-.2,0-.4.1-.6,1-1.3,2.2-2.5,3.1-3.9.7-1.1,1-2.5,1.7-3.6.9-1.5,1.9-2.8,2.9-4.3.1-.2.1-.4.2-.6.3-.5.7-1.1,1-1.6,0,.7,0,1.4-.2,2-.6,1.5-1.3,3-2,4.6Z"/>
    <path d="M99.2,225.3c1.4-2.2,2.8-4.4,4.2-6.5.4-.5.3-1.8,1.5-1.2.2,0,.2.4.3.7-1.5.6-1.2,2.1-1.9,3.2-.5.7-1.2,1.4-1.7,2.1-.5.7-.8,1.4-1.2,2.1-.2.4-.2.8-.4,1.2-.3-.5-.6-1-.9-1.6Z"/>
    <path d="M107.8,211.6c.6-.8.9-1.6,1.3-2.3.5-.9,1.1-1.8,1.8-2.6.9-1.2,1.8-2.3,2.8-3.5.2-.2.5-.3.8-.4,0,.3,0,.8-.2,1-1.2,1.7-2.5,3.4-3.7,5.1-1,1.4-1.9,3-2.8,4.4-.1.2-.3.3-.5.5,0-.2-.2-.5-.2-.7.1-.5.3-1.1.6-1.6Z"/>
    <path d="M208.3,379.1c2.8,0,5.6-.3,8.3-.4.2,0,.5.2.7.3-.3.3-.5.9-.8.9-1.7.2-3.4.4-5.1.4-1.6,0-3.1-.4-4.7-.6-.2,0-.4-.3-.7-.4.2,0,.4-.2.7-.2.5,0,1,0,1.6,0Z"/>
    <path d="M219.7,379c1.2-.1,2.3-.3,3.3-.3.5,0,.9.1,1.4.2,1.1.1,2.1.3,3.2.5.2,0,.3.3.4.5-.2.1-.4.4-.6.4-2.3,0-4.6,0-6.8-.3-.4,0-.7-.6-.9-1Z"/>
    <path d="M95.2,232.6c-.2.2-.3.3-.4.4-.5.6-1.1,1.1-1.6,1.7.4-.7.9-1.4,1.3-2.1,1.1-1.7,2.3-3.3,3.4-5,0-.1.2-.2.3-.4,0,.2.2.3.2.5.2,1.4-.7,2.3-1.5,3.2-.5.5-1.1,1.1-1.7,1.7Z"/>
    <path d="M492.1,348.4c-.2-.3-.5-.6-.8-.6-1.3-.2-1.6-1.4-2.2-2.3.1,0,.3-.2.4-.2,1.7.3,2.8,1.4,3.3,3,0,.3,0,.7-.1,1-.2-.3-.4-.5-.6-.9Z"/>
    <path d="M181.2,99c.9-1.4,1.8-2.7,2.8-3.9,0-.1.4-.1.6-.2,0,.2.2.4.1.5-1.1,1.3-2.1,2.7-3.2,4,0,0-.2-.1-.3-.3Z"/>
    <path d="M459.1,298.7c-.2.2-.4.4-.6.4-.4-.2-.9-.4-1.1-.8-.5-.7-.8-1.4-1.1-2.1.5.4,1.1.9,1.6,1.4.4.4.8.8,1.3,1.2Z"/>
    <path d="M496.3,354.1c-.1-.3-.2-.5-.2-.6.4.2,1.1.2,1.2.5.3.7.3,1.4.4,2.2,0,0-.2.2-.2.2-.2,0-.4-.2-.4-.3-.3-.6-.5-1.2-.8-1.9Z"/>
    <path d="M403.5,218.8c.3.3.5.4.6.6.3.3.6.7.8,1-.5-.2-1-.4-1.5-.7-.2-.1-.2-.4-.4-.7-.3-.5-.7-1-1-1.5.4.4.8.7,1.4,1.1Z"/>
    <path d="M73.2,264.7c0-.2.2-.3.2-.4.4-.4.8-.8,1.3-1.3,0,.1,0,.3,0,.3-.6.8-1.2,1.7-1.9,2.5,0,0-.2-.1-.3-.2.2-.3.4-.6.7-1.1Z"/>
    <path d="M0,378.2c.2-.5.4-.8.5-1.2,0,.4.1.8.2,1.1,0,.1-.2.2-.3.4-.2.6-.3,1.2-.5,1.8,0-.7,0-1.3,0-2.1Z"/>
    <path d="M476.5,325.8c-.4-.5-.7-1-1-1.5.4.3.9.7,1.3,1,.1.1.3.2.3.4.1.2.1.5.2.8-.2-.2-.5-.4-.8-.7Z"/>
    <path d="M284.4,43.1c-.7-.5-1.3-1-1.9-1.6,0,0,0-.2.1-.3.6.6,1.2,1.2,1.8,1.9Z"/>
    <path d="M347.2,135.6c.3.6.4,1.1.6,1.6-.1,0-.4,0-.4,0-.1-.5-.2-1-.2-1.5Z"/>
    <path d="M58.6,288.3c.3-.2.7-.2,1-.1.1,0,.2.2.3.3-.4,0-.9,0-1.3-.2Z"/>
    <path d="M313.5,87.4c-.3-.3-.5-.7-.7-1.1,0,0,.2-.1.2-.2.2.4.4.8.5,1.3Z"/>
    <path d="M466.1,313.5c-.2-.4-.4-.9-.6-1.4,0,0,.1-.1.2-.2.2.5.3,1,.4,1.5Z"/>
    <path d="M71.7,275.8c0,.4,0,.9,0,1.4,0-.3,0-.6-.1-.8,0-.1,0-.3.2-.5Z"/>
    <path d="M380.6,185.9c-.3-.3-.5-.5-.7-.8.1,0,.3-.2.4-.1.4.3.8.6,1.2.9-.3,0-.5,0-.9,0Z"/>
    <path d="M363.1,158.8c0,.4-.2.6-.3.9,0-.3-.2-.5-.3-.8,0,0,.3-.2.6-.2Z"/>
    <path d="M69.2,280.2c-.2-.2-.4-.5-.5-.8.2,0,.5,0,.5,0,0,.2,0,.5,0,.8Z"/>
    <path d="M463.2,304.6c-.2,0-.4-.2-.7-.3,0-.1.2-.2.3-.3.1.2.3.3.4.7Z"/>
    <path d="M131.8,379.9c0,.3-.2.5-.3.7-.1-.3-.2-.6-.4-.9.2,0,.4,0,.6.2Z"/>
    <path d="M305,317.4c-2.8,2.6-5.6,5.2-8.4,7.7-.8.7-1.5,1-2.4,0-1.9-2.1-3.8-4.2-5.8-6.2-8.4-8.3-16.8-16.6-25.2-24.9-2.4-2.3-4.8-4.6-7.4-6.7-1.9-1.6-2.8-1.7-5.6.6-4.5,3.7-8.8,7.6-13.3,11.2-5,4.1-10.2,8.1-15.2,12.2-3,2.5-5.9,5.1-8.8,7.7-1.4,1.2-2.8,2.5-4.1,3.8-.6.6-.9.6-1.4,0-1.7-1.9-3.5-3.8-5.3-5.6-2.7-2.7-5.6-5.3-8.3-8-1.9-1.9-3.5-4-5.3-5.9-2.3-2.4-4.8-4.6-7.2-6.9-.8-.7-1.2-1.5-.2-2.3,1.5-1.2,3-2.5,4.4-3.7,2.1-1.8,4.1-3.7,6.2-5.5,3.5-3,7-5.8,10.5-8.8,3.8-3.2,7.6-6.4,11.1-9.9,3.2-3,6.2-6.2,9.9-8.5,1-.6,1.2-1.3.2-2.2-4.3-4.3-8.6-8.6-12.9-12.9-3.7-3.6-7.5-7-11.2-10.6-2.6-2.5-5-5.1-7.6-7.6-2-1.9-4.2-3.8-6.3-5.6-1.1-.9-1.1-1.5,0-2.3,2.7-2.2,5.3-4.3,7.9-6.6,4.5-3.8,8.9-7.7,13.3-11.6,2.3-2,4.6-4,6.8-6.1,1.1-1,2-1,3,0,3,2.9,6,5.8,9,8.7,3.7,3.6,7.4,7.2,11.1,10.8,4.6,4.5,9.1,8.9,13.7,13.4,1.2,1.2,2.6,2.4,3.9,3.5,1.4,1.3,3.2.9,5.1-.8,4.2-3.7,8.5-7.2,12.8-10.8,3.6-3.1,7.1-6.3,10.7-9.4,3.3-2.9,6.7-5.6,10.1-8.5,2.2-1.9,4.4-3.7,6.6-5.7.5-.4.7-.6,1.2,0,1.8,2,3.7,4,5.6,5.9,1.6,1.6,3.2,3.1,4.9,4.6,2.7,2.5,5.4,4.9,8,7.4,1.2,1.2,2.1,2.7,3.3,3.9,1.6,1.6,3.3,3.2,5,4.7.7.7.7,1.1,0,1.6-2.8,2.4-5.7,4.8-8.5,7.1-1.8,1.5-3.6,2.9-5.3,4.4-3.2,2.7-6.4,5.3-9.6,8-2.8,2.3-5.5,4.6-8.3,6.9-2.8,2.3-5.5,4.5-8.4,6.7-2.2,1.7-2.2,3.7,0,5.3.2.1.3.3.5.5,2.5,2.4,5,4.8,7.5,7.2,2.4,2.3,4.7,4.6,7,7,1.9,2,3.7,4.2,5.6,6.3.7.7,1.5,1.2,2.2,1.9,1.8,1.6,3.5,3.3,5.2,4.9,3.4,3.3,6.8,6.7,10.3,10,.9.8.5,1.2-.1,1.8-1.6,1.3-3.3,2.5-4.9,3.9-4.6,4.1-9.1,8.2-13.7,12.3-.6.6-1.3,1.1-2,1.7Z"/>
  </g>
</svg>