<?xml version="1.0" encoding="UTF-8"?>
<svg id="Layer_1" xmlns="http://www.w3.org/2000/svg" version="1.1" viewBox="0 0 131 266.6">
  <!-- Generator: Adobe Illustrator 29.3.1, SVG Export Plug-In . SVG Version: 2.1.0 Build 151)  -->
  <g id="Shape_135">
    <path d="M16.7,0c.7.3,1.4.7,2.1.9.6.1,1.3-.1,1.9,0,.8,0,1.6.2,2.3.2.6,0,1.2,0,1.8-.2.2,0,.5,0,.8,0,0,0,.1.2.2.3,0,0-.2,0-.3,0-.2.1-.4.2-.6.4-.6.6-1.2,0-1.8,0-.4,0-.9-.4-1.3,0-.8.7-1.5.5-2.4.2-.1,0-.3,0-.4-.1,0,.2,0,.5,0,.7.2.5.8.6,1.3.4.1,0,.3,0,.4,0,0,.2-.1.4-.3.5-.5.3-1.1.5-1.7.4-.4,0-.8.3-1.1.2-.7,0-1.3-.3-2-.4-.2,0-.5,0-.7,0-1.2,0-2.4,0-3.5-.1-.4,0-.8,0-1.3.1-.7,0-1.5.1-2.2.1-.6,0-1.2,0-1.8.2-.2,0-.6-.3-.8-.6-.2-.3-.2-.8-.3-1.2,0,0-.2-.2-.2-.1-.1.1-.4.3-.4.5,0,.3.2.6.2.8,0,.7-.3,1.3-.4,2-.1.6-.2,1.2-.4,1.8-.1.6-.5,1.1-.5,1.7,0,.6,0,1.2.3,1.7.5.9,1.2,1.4,2.1,1.7.2,0,.3.2.4.4,0,0,0,.3,0,.3-.8.3-1.6.4-2.3-.3-.5-.5-1.2-.7-1.7-1.1-.2-.2-.8-.3-.6-.9.1-.3-.1-.9,0-1,.5-.5.2-1.2.4-1.7.1-.5-.2-.7-.4-.9-.3-.3-.8-.3-1.3-.5,0,0,0-.1,0-.2.5-.1.9-.2,1.4-.3,0,0,.3,0,.3,0,0-.5,0-1.1-.2-1.6-.1-.4,0-1.3.4-1.7.3-.4.7-.6,1.2-.8.7-.3-.4-.3-.2-.6,0,0-.1-.3-.2-.5.1,0,.3,0,.4-.1.2,0,.3-.1.5-.2.5,0,.9-.2,1.4-.2.6,0,1.2,0,1.8,0,.6,0,1.1,0,1.7,0,.4,0,.8.3,1.1.5.8.3,1.5,0,2.2-.2.4,0,1.5-.3,1.7,0,.4.5.9.4,1.3.5.5,0,1.2-.4,1.5-1h.6M16,1.7c-.2.1-.4.2-.5.4,0,0,0,.2,0,.2.2,0,.4,0,.5.1.4.1.8.3,1.3.4.3,0,.5,0,.8,0-.1-.2.2-.6-.2-.8-.2,0-.4-.2-.6-.3-.4-.3-.9-.2-1.4,0Z"/>
    <path d="M52,266.6c0,0,0-.2-.1-.3,0-.1-.2-.2-.3-.3.2,0,.5,0,.7,0,0,.1-.1.2-.2.3,0,0,0,.2,0,.3,0,0,0,0,0,0Z"/>
    <path d="M105.8,264.1c-.3.2-.6.4-.9.5-.5.3-1,.7-1.6.9-.7.2-1.5.4-2.2.4-.5,0-1-.4-1.6-.6-.6-.2-1.3-.2-1.9-.3-.7,0-1.3,0-2,0-.5,0-1,.3-1.5.3-.9,0-1.9-.2-2.7,0-.6.2-1.2.2-1.8.2-.6,0-1.3-.2-1.9-.3-.4,0-.8,0-1.1,0-.4,0-.8-.1-1.2-.1-.4,0-.7.1-1.1.2-.2,0-.5.1-.7.2-.4,0-.8.3-1.2.2-.3,0-.7-.4-.9-.7-.4-.5-.3-.5-1-.4-.3,0-.7-.1-1-.1-.5,0-.9,0-1.4,0,0,.2.2.3.3.5.4.5,1.1.7,1.7.9,0,0,.2,0,.3.1,0,0-.1.2-.2.2-.3,0-.7-.1-1-.2-.5-.1-.9-.3-1.4-.4-.6-.2-1.3-.4-1.9-.4-.4,0-.9.1-1.4.2-.2,0-.3,0-.5,0-1.3,0-2.6-.1-3.9,0-.6,0-1.1.3-1.7.5-.1,0-.3,0-.4,0-1.1,0-2.3,0-3.4,0-.7,0-1.5-.2-2.2-.3-.2,0-.4.1-.5,0-.8-.3-1.7.1-2.5-.3,0,0-.3.1-.5,0-.9,0-1.8-.2-2.6-.3-.2,0-.3,0-.5,0-1.1,0-2.2-.2-3.3-.4-.6-.2-1.4,0-2,.3-.5.1-1,.3-1.4.5-.6.3-1,0-1.4,0-.5,0-1-.3-1.5-.6-.7-.4-.7-.3-1.4,0-.7.4-1.5.9-2.5.4,0,0-.3,0-.4,0-.4,0-.8,0-1.2,0-.2,0-.5,0-.7,0-1.4,0-2.9,0-4.3.1-.8,0-1.6,0-2.5-.1-.3,0-.6.1-.9.1-1,0-2-.3-3.1-.4-.3,0-.7.1-1,0-.7,0-1.3-.3-2-.3-.7,0-1.5,0-2.3,0-.8,0-1.6,0-2.4,0-.3,0-.7-.1-.8-.3-.4-.6-.9-1.1-1.6-1.4-.3-.1-.6-.7-.7-1.2,0-.8-.7-1.1-1.2-1.5-.6-.4-1.1-.8-1.1-1.6,0-.4-.3-.9-.2-1.3.2-.7.6-1.3.8-2,0-.3.5-.4.2-.9-.3-.5-.5.4-.6,0-.2.1-.4.3-.6.4-.1,0-.4,0-.4,0,0-.2,0-.4,0-.6,0-.1.2-.2.3-.3.6-.3,1-1.3.7-1.9-.2-.5-.4-.9-.5-1.4,0-.3.2-.7.2-1,0-.3,0-.7,0-1,0,0-.3,0-.5,0-.2,0-.4-.1-.6-.2,0,0,0-.1,0-.1.2-.1.3-.3.5-.4.4,0,.9,0,1.3-.1,0,0,.1-.2.1-.2,0-.4-.2-.8-.1-1.1,0-.4.2-.7.4-1.1,0,0,.1,0,.2,0,.2.1.3.3.5.4,0,0,.3,0,.4,0,0,0,0-.2,0-.3,0-.3-.1-.6-.2-.9,0-.2-.8-.3-.9-.2-.2.2-.5.3-.8.4-.2,0-.5,0-.4-.3.1-.6.1-1.1.3-1.7.1-.5.3-.9.5-1.4.2-.5.4-1,.6-1.5,0,0-.1-.2-.2-.2-.1,0-.3,0-.4.1-.2.2-.3.5-.5.7,0,0-.2.1-.3.2,0-.1,0-.2,0-.3,0-.9.5-1.6.9-2.3,0,0,.1-.2.1-.2-.2-.1-.4-.3-.6-.4-.4-.1-.8-.2-1.2-.2,0,0,0,0,0,0-.2,0-.3,0-.5,0,.2,0,.4-.1.5-.2.6-.4,1.4-.7,1.7-1.4,0-.2,0-.4,0-.6-.2-.7-.5-1.3-.6-2-.1-.5-.1-1-.2-1.5,0,0,.1-.2.1-.1.3.1.5.3.8.4,0,0,.1,0,.2,0,.4-.1.8-.3,1.2-.4,0,0,.2-.1.3-.1.4,0,.3-.2.1-.4-.4-.5-1-.4-1.5-.4-.2,0-.5,0-.7,0-.2,0-.5,0-.6,0,0-.2,0-.4,0-.6,0,0,.1-.2.1-.3,0-.2.3-.7-.4-.5-.2,0-.5-.3-.8-.5.2,0,.5-.2.7-.2.2,0,.5.2.7-.1,0,0,.2,0,.3-.1-.1-.2-.2-.5-.4-.6-.9-.6-1.1-1.3-.5-2.1.3-.5.5-.9.4-1.5,0-.5-.1-1-.1-1.6,0-.4,0-.8.2-1.1.3-.4,0-.7,0-1,0-.4-.3-.8-.5-1.2,0-.1,0-.3.1-.4,0,0,.2,0,.3,0,.2.2.4.3.6.5.1,0,.3.1.4.2,0-.1,0-.2,0-.3,0-.3-.1-.6-.1-.9,0-.6-.5-.6-.8-.7-1-.2-1.6-.9-1.5-1.8,0-.4,0-.8.2-1.2,0-.2.4-.4.5-.6.1.2.3.5.3.7,0,.3-.2.6-.2.9,0,.4.2.8.4,1.2,0,.2.3.3.4.4,0-.3.4-.4.3-.9-.2-1,0-2,0-3,0-.2,0-.3-.1-.5-.3-.7,0-1.3.3-1.8.2-.3.8-.4,1.2-.5.2,0,.4,0,.6-.1-.2-.2-.4-.4-.6-.5-.5-.2-1.1-.2-1.6-.3-.5-.1-.8-1.3-.4-1.6.4-.2.9-.2,1.4-.2.3,0,.6.3,1,.3.6,0,1.2,0,1.8.2.4.1.7,0,1,.1.5.2.4-.2.7-.3-.2-.2-.3-.4-.5-.5-.3-.2-.7-.2-1-.4,0,0,0-.2,0-.2,0,0,.2-.2.3-.2.6,0,1.1,0,1.6.3.6.3,1.3.3,1.9.5.4,0,.7.3,1,.4.2,0,.5.2.8.2.2,0,.4,0,.5,0-.1,0-.3,0-.3-.1-.3-.4-.5-.7-.7-1.1,0,0,0-.2,0-.2.4,0,.8.1,1.3.2.3,0,.7,0,1,.2.5,0,1,.2,1.5.3.6,0,1.2.1,1.8.1.7,0,1.3,0,2-.2.5,0,1-.2,1.5-.3.5,0,1.1,0,1.7,0,.5.1,1,.3,1.5.3,1.3,0,2.7-.2,4,0,1.1.2,2.1,0,3.2.1.6.1,1.2.1,1.8.1.3,0,.6,0,.6-.5.2,0,.4,0,.5,0,.4.6,1,.5,1.5.5,1,0,2-.1,3,0,.8,0,1.5.2,2.3.2.4,0,.9-.1,1.3-.2.4,0,.8-.1,1.2-.2.3,0,.6-.2.9-.2.4,0,.9-.1,1.3-.2,0,0,.1,0,.2,0,.6-.5,1.2,0,1.8,0,.5,0,1.1,0,1.6,0,.7,0,1.4,0,2-.3.4-.1.8-.1,1.2-.1.4,0,.8,0,1.1.1.6.2,1.2.5,1.8.6.5.1,1.1,0,1.6,0,.8,0,1.6,0,2.4.2.5,0,1,.2,1.4.4.7.2,1-.4,1.5-.5.5-.1.9-.4,1.3-.4.7-.1,1.4,0,2.1-.2.7,0,1.2.2,1.8.5.5.2.9.5,1.4.7.5.2.9,0,1.3-.2.3-.2.5-.3.7-.6.1-.2.2-.4.3-.6,0-.2.2-.4.3-.6,0,0,.1,0,.2,0,.2.2,0,.5.2.8.4.5.8.2,1.2.2.2,0,.4,0,.6,0,.2,0,.4.1.5.2.1,0,.3.2.4.3-.2,0-.3,0-.5,0-.5,0-1,.2-1.6.3-.2,0-.3.3-.4.4,0,0,0,0,.1,0,.2,0,.5.2.7.2.4,0,.7,0,1.1-.2.4,0,.8-.2,1.2-.3.7-.2,1.4-.4,2.1-.6.5-.2,1-.5,1.6-.3.2,0,.4-.2.6-.2.8,0,1.5,0,2.2.6.2.1.5,0,.8,0,1.7,0,3.5-.1,5.2-.1.6,0,1.3.2,1.9.2.3,0,.6-.1.9-.1,1.1,0,2.3.2,3.4.1.2,0,.9,0,.8-.6,0-.1,0-.3.1-.5,0,0,0-.1,0-.2,0,0,0,0,.1.1.2.2.4.4.3.8-.1.4-.1.8-.3,1.1-.2.5.4.6.7.7.5.3,1.3,1,1.3,1.3,0,.4-.1.6-.6.9-.2.1-.3,1-.1,1.3.2.3.2.5-.2.5-.4,0-.6.3-.5.7,0,.5,0,1,0,1.6,0,.2.3.3.4.5,0-.2.6.1.3-.4,0,0,0-.3.1-.5,0-.2.1-.4.2-.6.2.1.4.2.5.4,0,.1,0,.3,0,.5,0,.4-.1.8-.2,1.2,0,.3,0,.6-.1.8-.2.6-.4,1.3-.6,1.9-.2.5-.7.4-1.1.6-.2.1-.4.2-.4.3,0,.5.3.3.6.4.4,0,.7,0,1.1.2.1,0,0,.4.2.6.6.5.3,1.1,0,1.6-.5.9-.6,1.9,0,2.5.6.8.2,1.3,0,1.9-.3.8-.3,1.3.4,1.7.1,0,.2.2.3.3.2,0,.4.1.6.2-.2,0-.4,0-.7,0-.6,0-.7.4-.6,1,.2.7.2,1.4.3,2.1,0,.1,0,.3-.2.4-.5.2-.6.5-.6,1.1,0,.4.1.7.2,1.1.2.6.2,1.2.2,1.8,0,.6,0,1.2-.1,1.7-.2.8,0,1.6-.2,2.3-.2.7-.4,1.3-.5,2,0,.5,0,1,.2,1.5.2.6,0,1.2-.6,1.5-.2,0-.3.3-.4.4.2.1.3.3.5.3.8.1,1.6.2,2.3.4.3,0,.6.5.9.8,0,0,0,.3-.1.3-.2,0-.4.1-.6,0-.2,0-.4-.2-.6-.2-.4,0-.5,0-.6.5,0,.5-.2.9-.2,1.4,0,0-.1.2-.2.2,0,0-.1,0-.2-.2,0,0,0,0,0-.1,0-.6,0-1.2,0-1.8,0-.1-.2-.2-.2-.3,0,0-.1,0-.2,0-.4.3-.7.7-.6,1.3.1.5,0,1.1.1,1.6,0,.1.1.3.2.4.2.4.5.8.6,1.3,0,.5,0,1.1,0,1.6,0,.4.2.7.2,1.1,0,.1.3.3-.2.3-.3,0-.4.8-.2,1.1.2.2.4.5.5.7,0,.2,0,.4-.2.6-.3.4-.7.6-.8,1.2,0,.3-.7.5-1,.3-.4-.2-.8-.2-1.2,0,0,0-.2,0-.2.1,0,.1.1.4.2.4.7,0,1.1.5,1.3,1,.1.3.2.9,0,1.2-.1.2-.2.7-.8.7-.5,0-1,.5-1.5.8,0,0-.2,0-.2,0M59.4,263.8c-.2,0-.4,0-.6,0-.1,0-.3.2-.4.3,0,0,.2.2.3.3.2,0,.4,0,.6,0,.5,0,.9-.1,1.4-.1.8,0,1.6.1,2.4.5.6.2,1.3.2,1.9.3,0,0,.2,0,.2,0,.4,0,.9-.2,1.3-.3.3-.1.7-.3,1-.5,0-.1,0-.3-.2-.3-.4,0-.7-.2-1.1,0-.2.1-.5.3-.7.2-.6,0-1.2-.1-1.9-.2-.6,0-1.3,0-1.8-.2-.8-.4-1.5-.2-2.5,0M109.3,236.6c0-.4,0-.8,0-1.2,0,0,0-.1,0-.2,0-.4-.1-.7-.1-1.1,0-.2-.1-.6-.3-.6-.4,0-.4.2-.4.5,0,.7-.1,1.3.1,2,.1.3,0,.8,0,1.1.2.6.4,1.2.3,1.8,0,0,.1.1.2.2.3-.3.7-.6.7-1.1,0-.5-.2-.9-.3-1.5M79.8,208.1c0,0-.1-.2-.2-.2-.8,0-1.7.1-2.5.3-.2,0-.4.4-.6.6.2,0,.3.2.5.2,1.1,0,2.2,0,3.4,0,.1,0,.2-.3.3-.4-.1,0-.3-.1-.3-.2-.1-.3-.4,0-.6-.2M108.9,227.1c0,.4-.1.7-.2,1.1,0,.2,0,.5,0,.7.2,0,.3,0,.4,0,0,0,.1-.3.2-.4.1-.3.2-.7.4-1,.3-.3.3-.7.2-1.1,0-.1-.3-.2-.4-.4-.2.3-.3.7-.6,1M40.6,263.7c.3,0,.6,0,.9-.1.1,0,.2,0,.3,0,0-.1,0-.3-.1-.4,0,0-.2-.1-.3,0-.8.1-1.7.3-2.5.4-.4,0-.9,0-1.3,0-.1,0-.3,0-.4,0,.2,0,.3.2.5.2.8,0,1.7.1,2.5.2.1,0,.2,0,.5-.1M102.1,263.2c.4,0,.8,0,1.2,0,.5.1.6-.2.8-.4,0,0-.1-.3-.2-.3-.3,0-.6,0-.9.1-.4,0-.9-.3-1.3.1-.1.1-.2.2-.4.3.2,0,.4,0,.7.2M89.7,264.6c.5-.4,1.2.1,1.6-.4,0,0,.2,0,.3-.1-.1,0-.2-.1-.3-.2-.3,0-.6-.3-.9-.2-.4,0-.8.3-1.3.4.2.2.3.3.6.5M110.4,232.5c-.2-.2-.3-.4-.5-.6-.2-.2-.3-.4-.5-.6,0,0-.2,0-.3,0,0,0,0,.1,0,.2,0,.2,0,.5.2.7,0,.2.2.6.3.6.3,0,.5-.2.8-.4M104.4,260.7c.2-.5-.3-.3-.4-.5,0-.1-.4-.3-.5-.3-.2,0-.4.4-.4.5,0,.2.3.4.5.6.2-.3.7.3.8-.3M17.4,226.1c.1-.1.3-.2.4-.4-.1-.1-.3-.3-.4-.4-.6-.1-.4.4-.6.7,0,0,0,.2,0,.2,0,0,.2,0,.2,0,.1,0,.3,0,.4-.1M32.3,219.1c0-.2,0-.4,0-.5,0,0-.2-.1-.3,0-.2,0-.4.2-.6.3,0,0,0,.2,0,.2.3,0,.5.1.9,0M71.2,263.6c.1,0,.3,0,.4,0,.1,0,.2-.1.3-.2-.1,0-.3,0-.4,0-.2,0-.5,0-.7,0,0,0-.2,0-.2.2,0,0,0,.2,0,.2.2,0,.3,0,.5,0M108.6,254.9c0-.1.7.3.2-.3,0,0,0-.1,0-.2-.1-.1-.3-.3-.5-.4,0,.2-.2.3-.3.5.2,0,.3.2.5.4M17.8,241.7c-.7-.2-.3.3-.3.5,0,0,.1.3.3.4,0,0,.3-.1.3-.2,0-.2,0-.5-.2-.7M108,214.9c0,0-.2,0-.2,0-.1.3.1.4.3.4.1,0,.3,0,.4,0,0,0,0-.2,0-.2-.2,0-.3,0-.6-.1M33.4,264.2h.1c0-.1-.2-.3-.3-.4-.2,0-.4,0-.6,0,.1.1.2.2.4.3,0,0,.2,0,.3,0M17.6,258c0,0-.1-.1-.2-.2,0,.3-.1.5-.2.8.1,0,.3,0,.3,0,0-.2,0-.3,0-.6M31.1,264.1c.2.3.3,0,.4,0,0,0,.1-.1.2-.2,0,0,0-.2-.1-.2-.1,0-.2,0-.3,0,0,0-.1.2-.1.4M107.6,255.6c-.1.2.1.7.4.7,0,0,.1,0,.2,0,0,0,0-.2,0-.2-.1-.2-.3-.4-.5-.5M109.6,217c0-.1,0-.2,0-.3-.2,0-.4,0-.6,0,0,.1,0,.3.1.3.1,0,.3,0,.4,0M82.6,263.4c0,0,0,.2.1.3,0-.2,0-.3,0-.5,0,0-.2.1-.2.2Z"/>
    <path d="M63.6,56.6c.5,0,1-.2,1.6-.3.8,0,1.5-.2,2.3,0,.3,0,.6.7.7,1.1.2.8.5,1.2,1.2,1.2,0,0,.2-.1.2-.2.7-.4,1.2.1,1.7.3.3.1.6.4.8.6.1.1.2.4,0,.5,0,.1-.3.2-.5.2-.3,0-.6-.3-.8.1,0,.1-.3.2-.4.2.2.2.4.5.6.5.7,0,1.1.4,1.7.8.4.4,1,.7,1.7.6.6-.1,1.2,0,1.8,0,.2,0,.5.3.5.5,0,.4.1,1,0,1.4-.4.9,0,1.9,0,2.8,0,.2.2.5.4.5.3,0,.3-.3.3-.5,0-.5-.1-1,0-1.5,0-.4.3-.8.5-1.1,0,0,.1,0,.2,0,0,.3.1.5.1.8,0,.4-.1.9-.2,1.3,0,.3,0,.6-.1.9-.2.5-.4,1.1-.6,1.6-.2.5.3,1.3.8,1.4,1.2.5,2.5.1,3.7.2.3,0,.6-.2.8-.3,0,0,0-.3,0-.4-.2-.3-.5-.6-.7-.9,0,0,0-.2,0-.3.1,0,.2,0,.3.2.4.4.8.9,1.2,1.3.1.1.5.1.7,0,.6-.2,1.2-.2,1.7-.4.7-.3,1.4-.1,2-.4.5-.2.7.3.9.6.3.4,0,1.4-.1,2-.1.5-.4.8-.6,1.1-.3.4-.8.5-1.2.6-.7.1-1.4,0-2.2.2-.3,0-.6.3-1,.4-.1,0-.3,0-.4-.1-.3-.3-.5-.7-.8-1-.2-.2-.5-.5-.8-.6-.4,0-.4.4-.4.6,0,.8,0,1.5-.7,1.9-.2.2-.6,0-1,.1,0,0,0-.2,0-.2.3-.5.6-1,.8-1.5,0-.1.2-.3-.1-.4-.5-.3-.3-.8,0-1.1.3-.3,0-.4,0-.5,0,0-.2,0-.3,0-.5,0-1.1,0-1.6,0-.5-.1-.4.4-.4.4,0,.8,0,.8-.8.9-.2,0-.4,0-.6.2-.4.3.1.5.2.7,0,.2.5.3.7.5,0,0,.2.2.2.3-.1,0-.2,0-.3,0-.2,0-.5,0-.7,0-.1,0-.3,0-.4,0,0,.2,0,.5,0,.7,0,0,0,0,.1.1.6.6.6.6,0,1.2-.1.1-.3.5-.2.5.2.2.4.3.7.3.5,0,1,0,1.5,0,.3,0,.5.3.8.4,0,0,0,.2,0,.2-.6.1-1.3.4-1.9.4-.4,0-.7-.3-1.1-.5,0,0-.2,0-.3,0,0,.1,0,.2,0,.4,0,.2.1.5,0,.6-.3.4-.8.6-1.1,1-.2.2-.4.5-.6.6-.8.5-1.1,1.3-1.5,2-.3.6-.8,1.1-1.5,1.3-.7.3-1.4.6-2.2.5-.4,0-.8.3-1.2.3-.6,0-1.2.1-1.8,0-.5-.1-1.1.4-1.5-.2l-.5.4c0,0,.1.1.1.2,0,.2,0,.3,0,.5-.1.3-.4,0-.5.1-.6.2-1.1-.2-1.6-.3-.6-.1-1.2-.3-1.8-.5-.4-.1-.8-.2-1.2-.3-.4,0-.8-.2-1.1-.3-.4-.1-.8-.3-1.2-.4-.3-.1-.7-.1-1-.2-.9-.3-.9-.3-.9.6,0,.5,0,1,0,1.5,0,.4.8.6,1.2.4.1,0,.3,0,.5,0,.1,0,.2.2.3.3.2.1.3.2.5.3-.3.1-.6.3-.9.3-.9,0-1.2.4-1,1.4.1.9.1,1.8-.5,2.5-.4.4-.9.8-1.7.9-.4,0-.7.6-1.1.9,0,0-.1.2-.2.4,0-.1-.2-.3-.2-.4-.2-.7-.3-1.3-.5-2,0-.3.5-.3.3-.7,0-.1-.1-.3-.2-.4-.1,0-.3.1-.4.2-.3.5-.6.9-.8,1.4,0,0-.1.1-.2,0-.4-.3-.6-1-.2-1.5.3-.4.6-.7,1-1,0,0,.2-.2.3-.1.7.2.6-.2.6-.6,0-.2,0-.3,0-.5,0-.4,0-.4.4-.2.2.2.8,0,.8-.4,0-.6-.2-.9-.9-1.2-.4-.2-.8-.3-1.2-.5,0,0-.1-.2-.2-.3.2,0,.4-.3.6-.2.5.1,1,.4,1.5.4.5,0,1,.4,1.5,0,.2-.2.2-.5.2-.7,0-.4-.3-.8-.4-1.2-.1-.6.4-.6.8-.7.5,0,1.1,0,1.7,0,.2,0,.3-.1.5-.2,0-.1-.1-.2-.2-.3-.4-.5-1-.6-1.6-.6-.7,0-1.2-.5-1.7-.9-.5-.5-.9-1-1.3-1.5,0,0,0-.3,0-.4.2-.5,0-.8-.6-.8-.8,0-1.6-.2-2.3-.2,0,0,0,0-.1,0,0,0,.1,0,.2,0,.7-.2,1.3-.4,2-.6.3,0,.6-.2.9-.3,0,0,.1,0,0-.3-.2-.9-1-1.1-1.6-1.4-.2,0-.2-.4-.3-.5-.2-.2-.5-.3-.7-.4-.4-.1-.9-.2-1.3-.3-.3,0-.7.3-1-.2-.1-.2-.4-.4-.6-.7,0,0,0-.1,0-.1.5,0,1.1.2,1.6.2.5,0,1.1,0,1.6-.1,0,0,.1-.3,0-.4-.1-.2-.3-.3-.5-.4-.4-.1-.8-.2-1.3-.3-.1,0-.2-.2-.3-.3.1,0,.2-.2.3-.2.7-.1,1.5-.3,2.2-.4.1,0,.2-.1.3-.2,0,0-.2-.1-.2-.2-.2-.4-.6-.2-.9-.2-.6,0-1.3,0-1.8.1-.4.1-.7.5-1.1.8-.1.1-.2.2-.4.3,0-.2-.2-.4-.2-.6,0-.6.2-.9.6-1.3.2-.2.5-.4.7-.4.7,0,1.3,0,2,0,.3,0,.6,0,.9-.2.6-.1,1.2-.3,1.7-.5.2,0,.2-.3.4-.4-.1,0-.2,0-.3,0-.8-.1-1.6-.1-2.1-.8-.2-.3,0-.9,0-1.4.1,0,.3,0,.3,0,.2.3.3.7.5,1,0,0,.5,0,.7-.2.1,0,.2-.4.2-.6-.1-.6-.4-1.1-.5-1.7,0-.3-.1-.7-.2-1.1,0,0,0-.3.1-.3.1,0,.3,0,.4.1.3.2.1.9.7.5.3-.2.9-.1.7-.8-.1-.5.1-1.1.8-1.3.5-.2.9-.6,1.4-.9.2-.1.5-.3.7-.4.3-.1.5-.3.5-.6,0-.4,0-.8-.1-1.2-.1-.4-.5-.7-.9-.8-.2,0-.4-.2-.6-.2.2-.2.4-.5.6-.5.5-.2,1.1,0,1.5-.6.2-.3.3-.6.5-1,0-.2.2-.3.3-.5,0,.2.1.4,0,.6,0,.4-.1.8-.3,1.1-.4.9.2,1.7,0,2.5-.1.5.3.8.2,1.2,0,0,.2.2.3.3,0-.1.1-.3.2-.4.2-.3,0-.7.1-1,0-.2.2-.4.4-.5.1,0,.4,0,.5,0,0,0,.1,0,.2,0,.7-.2,1.3,0,1.9.2.5.1,1.1,0,1.6,0,.9,0,1.8,0,2.7-.1.5,0,1,.2,1.5-.1,0,0,.2,0,.3,0,.1,0,.3,0,.4.1,0-.2,0-.5,0-.6-.2-.2-.4-.3-.7-.3-.7,0-1.3,0-2,.1-.4,0-.9.2-1.3,0-.3,0-.6-.3-.9-.5,0,0,0,0,0,0,.4-.2.5-.8,1.1-.6M85.9,71.2c.4.1.7.3,1.1.4,0,0,0,.1.1.2,0-.1.1-.2,0-.3,0-.3-.2-.6-.4-.8-.1-.2-.2-.7-.5-.5-.6.2-.7.4-.5,1.1M75.1,63.9c0,.1,0,.2,0,.3,0,.2,0,.4,0,.5-.4.1,0,.4-.1.6,0,0,.1.1.2.2,0,0,0-.1,0-.2.1-.5.3-.9.4-1.4,0-.2,0-.4,0-.6-.3,0-.5,0-.8.1,0,0,0,.3,0,.6M51.3,72.6c0,.2,0,.6,0,.6.4,0,.8.2,1.2.2.1,0,.3-.1.3-.2,0,0,0-.3,0-.3-.4,0-.8-.5-1.4-.3M54.6,86.5c0,0,.1-.2.2-.3,0,0,0,0,0,0,0,0-.1.2-.1.4M54.7,78.6c0,0,0-.2,0-.3,0,0-.1,0-.2,0,0,.1,0,.3,0,.3Z"/>
    <path d="M39.7,154.3c-.2-.5-.4-.9-.5-1.4-.1-.5-.3-1-.4-1.5,0-.3,0-.8,0-1.1-.2-.5-.5-.9-.9-1.3-.4-.4-.9-.6-1.4-.9-.1,0-.3,0-.4,0-.5-.1-.5-.5-.2-.9.2-.2.3-.5.6-.7.4-.2,0-.6.2-.9-.2,0-.4,0-.6,0-.2-.1-.4-.3-.6-.5.1,0,.3-.1.4-.3.2-.3.3-.6.4-.9.1-.3.3-.7.3-1,0-.5,0-1-.1-1.5,0-.2-.4-.4-.6-.5-.1,0-.3-.1-.5-.2.2-.2.4-.4.6-.5.3-.1.6-.1.9-.2.3,0,.2-.8,0-1.1-.2-.2-.7-.3-.3-.9.3-.5.6-1.2.5-2,0-.4-.4-.7-.8-.7-.4,0-.8,0-1.1-.1,0,0-.2-.2-.2-.3,0-.7,0-1.3.2-2,0,0,.1-.1.2-.2.1.2.3.3.4.5.1.3.1.7.3,1,0,.2.4.4.6.4.5,0,1,0,1.4,0,.2,0,.4-.3.4-.4-.2-.2-.4-.4-.6-.6-.3-.3-.8-.5-.8-1,0-.3.7-1.1.9-1.3.6-.5,1.4-.3,2-.5.3,0,.6-.4.9-.7,0,0,.1-.1.2-.2,0,0,0,.1,0,.1-.3.6.4.6.6.7.6.3,1.3.4,2,.6.3,0,.5.2.8.3,0,0,.2,0,.2,0,0,.1-.2.3-.3.3-.7.2-1.4.4-1.8,1.1-.2.4-.2.6.2.8.3.1.5.1.8.3.1,0,.2.3.3.4-.1,0-.2,0-.3.1-.4.1-.9.2-1.2.5-.2.1-.4.5-.5.8,0,0,.3.3.5.4.2,0,.4-.1.6-.2.5-.1.4.3.4.5,0,.4-.3.8-.4,1.2,0,.2,0,.3,0,.5,0,.8,0,1.6,0,2.4,0,.6.3,1.1.3,1.7,0,.4-.3.8-.4,1.3-.1.5-.3,1.1-.4,1.6,0,0,.3.2.5.2.5,0,.9,0,1.4,0,.2,0,.4.3.7.4-.2.2-.3.4-.6.5-.3,0-.6,0-.9-.1-.5-.2-1-.2-1.5.1,0,0-.2.2-.1.3.3.3.6.6,1,.9.4.3.8.6,1.3.8.4.2.9.2,1.4.3.6.2,1.3.1,1.7.7,0,0,.2.1.3.2,0,0,.1.2.2.4-.3,0-.5,0-.8,0-.5-.1-1.1-.3-1.6-.4-.5-.1-.9.2-1.2.5,0,0,0,.5.2.5.2.1.5,0,.8,0,.5.1,1.1.2,1.6.4.4.1,1-.2,1.2-.5.2-.4.5-.6,1-.5.8.4,1.7.5,2.6.5.7,0,1-.3,1.3-.8,0,0,0-.2,0-.3,0-.3-.1-.6-.1-.9,0,0,.3-.1.3,0,.5.5.9.4,1.3,0,.3-.4.3-.6-.2-.8-.2,0-.5-.2-.7-.4.2-.2.3-.4.6-.5.2-.1.5-.2.8-.3.4-.2.5,0,.8.3,0,.1.4,0,.6,0,0,0,.1-.2.1-.2-.2-.3-.4-.7-.7-1-.3-.4-.7-.8-1-1.2-.3-.3-.6-.5-.9-.8-.1-.1-.2-.1,0-.3.8-.6,1.7-.9,2.7-.6.2,0,.5,0,.8-.2.1,0,.2-.3.2-.4-.2-.2-.4-.4-.6-.5-.2,0-.5,0-.7.1-.4.3-.8,0-1.1-.1-.4-.2-.7-.5-1-.7-.1-.1-.2-.2-.3-.4.2,0,.3-.2.5-.2.5,0,1,0,1.6,0,0,0,.2,0,.2,0,0-.1,0-.3,0-.3-.3-.3-.5-.6-.9-.9-.7-.5.1-.8.2-1.1,0-.3.3-.6.3-.8,0,0-.2-.3-.2-.3-.4.1-.8-.5-1.2,0,0,0-.2,0-.3,0,0-.2,0-.4.1-.5.4-.3.8-.6,1.2-.8.3-.2.7-.6.7-.9,0-.2-.3-.6-.5-.7-.2,0-.4,0-.5-.1-.1,0-.4-.2,0-.4.3-.2.4-.7.9-.6,0-.2,0-.4-.2-.4-.4-.1-.8-.5-1.3-.3,0,0-.1,0-.2,0,0,0,.1-.2.2-.2.5-.2.9-.6,1.5-.6.5,0,1.1-.3,1.6-.5.1,0,.4,0,.4,0,.6.6,1.2.3,1.9.2.6-.1,1.2,0,1.8.4.1.1.3.2.4.3-.2.1-.5.3-.7.3-.4,0-.4.2-.6.5-.6.8,0,1.7-.3,2.5.4.2,0,.8.6,1.1.3.2.5.7.7,1.1-.2.1-.4.3-.7.3-.3,0-.6,0-.9,0-.2,0-.3.2-.5.3.2.2.4.4.6.5.5.2,1,.3,1.6.4,0,0,.2,0,.3,0,.2,0,.4.2.5.4-.3.2-.5.4-.8.5-.4.2-.9.2-1.3.4-.3.1-.4.5-.2.7.4.5.9.9,1.3,1.4.3.3.2,1.1-.2,1.3-.4.1-.8,0-1.2,0-.3,0-.9.4-.7.7.1.2.5.2.8.3,0,0,.1,0,.2,0,.2,0,.4,0,.5.1,0,0,0,.3,0,.5,0,.4-.2.8-.2,1.2.2.7.4,1.5.7,2.1.2.5,0,.7-.2.9-.1.2-.4.3-.7.4-.4.1-.8.1-1.1.4-.3.2-.3.6-.5.9.2,0,.4,0,.6,0,.2,0,.3.2.4.3,0,.2,0,.4,0,.5-.3.5-.7,1-1.1,1.4-.3.3-.5.6-1,.7-.2,0-.3.4-.5.6-.4.6-.9,1.2-1.3,1.9-.3.7-.8,1-1.5.9-.8-.1-1.5-.4-2.3-.5-.4,0-.8,0-1.2,0-.6,0-1.2.2-1.8.2-.8,0-1.7.5-2.6,0-.4-.2-1,0-1.6,0-.9,0-1.7,0-2.6,0,0,0-.3-.3-.2-.4,0-.2.3-.4.5-.4.3,0,.6,0,.8-.2,0-.1.2-.2.3-.3-.2-.1-.4-.3-.6-.4-.5-.1-.9-.1-1.4-.2-.5-.1-1-.2-1.5-.4-.1,0-.2-.2-.3-.3M59.5,146.5c-.2,0-.3,0-.5,0-.2,0-.4,0-.6.1,0,0,.2.2.3.3.2.2.5.4.7.6.1.1.3.2.5.2,0-.2.2-.4.2-.6,0-.4-.4-.3-.6-.6M56.7,132.8c.1.1.3.4.4.4.2,0,.4-.2.6-.3,0,0,0-.2-.1-.3-.3-.2-.6-.4-.9-.4-.1,0-.3.2-.5.3.1,0,.3.2.5.3M55.7,145.2s0,0,.1-.1c.2,0,.4-.2.6-.3-.1-.2-.2-.4-.4-.5-.3-.2-.6,0-.9.1.1.2.3.4.4.5,0,0,0,.1.1.2M46.5,153.3s0,0-.1.1c.3.3.7.3,1.1.2,0,0,.2-.1.2-.2,0-.1-.1-.3-.1-.3-.3,0-.7-.3-1.1,0Z"/>
    <path d="M86.2,147.8c-.4.4-.2,1.1,0,1.2.6.4,0,.8,0,1-.5.9-.7,1.8-.4,2.8,0,0,0,.2,0,.3,0,.2,0,.4-.1.6-.2-.2-.6-.4-.6-.6,0-.6,0-1.1,0-1.7,0-.2-.1-.4-.2-.6,0,0-.1,0-.2,0-.4.5-.5,1.1-.7,1.7,0,.3,0,.5-.1.8,0,.5.2.9.4,1.3,0,.1.1.4,0,.5,0,.2-.3.3-.4.3-.4.3-.9.5-1.3.7-.7.4-1,1.3-1.9,1.3-.4,0-.8-.2-1.2-.4-.3,0-.7-.2-1-.2-.6,0-1.2,0-1.8,0-.5,0-.9-.2-1.2-.6-.3-.3-.4-.6-.3-1.1.1-.3.2-.7,0-1.1-.3-.5-.5-.9-1-1.2-.4-.2-.4-.9-.2-1.3,0,0,0-.1,0-.1-.2-.1-.3-.2-.5-.3,0,0-.2,0-.3,0-.2,0-.5,0-.7,0,0-.2.2-.4.3-.6.2-.6.5-1.2.2-1.8-.2-.3-.5-.6-.8-.9-.2-.2-.5-.3-.6-.5-.2-.3-.2-.7-.3-1.1,0-.4,0-.8-.1-1.2,0,0,0-.1,0-.2,0,0,.1,0,.1,0,.3.3.6.6.9.9,0,0,.3,0,.4,0,0,0,.1-.2,0-.3,0-.2-.1-.4-.3-.6-.3-.5-.9-.7-1.5-.5-.2,0-.5,0-.7-.1-.5-.3-.8-1.5-.5-2.1.2-.4.5-.8.7-1.2,0-.2.1-.5,0-.5-.2-.2-.5-.4-.8-.5-.5,0-1,0-1.4,0,0,0,0-.1,0-.2.5-.6.6-.6,1.3-.4.1,0,.4,0,.5,0,0-.2,0-.4,0-.6-.3-.7-.6-1.4-1-2-.2-.3-.2-.4,0-.6.3-.4,0-.7-.4-.8-.4-.1-.7-.2-1.1-.5-.7-.6-1.1-2-.5-2.7.2-.3.5-.9,1.2-.7.3,0,.7-.3,1.1-.3.5,0,1,.1,1.6.2.5.1,1.1.2,1.6.4.6.2,1.1.6,1.6.9.1,0,.1.5,0,.6-.6,1-.3,2.1-.4,3.2,0,.2.6.7.9.8.9.2,1.2.3,1.2,1.2,0,.3.2.7.2,1,0,.2,0,.5,0,.8-.2.4-.3,1.1-.2,1.4.2.4.4.9.6,1.3.2.5.4,1.1.7,1.6,0,.1,0,.3,0,.4.2.3.6.6,1.1.8.4.2.8.5,1.1.7.4.3.8.7,1.3.9.3.1.8,0,1-.4.4-.5.9-1.1,1.3-1.6.1-.2,0-.5.1-.7-.2,0-.3,0-.5,0-.3,0-.6-.2-.8-.4-.1,0-.3-.2-.4-.2.2-.1.4-.3.6-.4.2,0,.5,0,.8,0,.5,0,.6-.2.4-.7-.2-.5,0-1.2.5-1.6.3-.3.9-.5.4-1.1,0-.1-.3-.2-.4-.2-.4,0-.8-.1-1.2-.2,0,0,0-.1-.1-.2.5,0,.6-.8,1.3-.5.3-.5,1,0,1.3-.5,0,0,0-.2,0-.2,0-1,.2-2,.2-3.1,0-.1,0-.2,0-.3-.1-.6.4-1.5,1-1.7.2,0,.5-.2.7-.4.4-.3,1.1-.6,1.9-.8.5-.1,1.1-.4,1.6-.4.7,0,1.4.3,2.1.6.6.3-.5,0-.2.3-.2,0-.5,0-.7,0-.1,0-.1.4,0,.6.2.3.5.6.7.8,0,0,0,.1.1.2,0,0-.2.1-.3.2-.4,0-.8.2-1.2.3-.1,0-.2.2-.3.3,0,0,.1.1.2.2.5.2.9.4,1.4.6,0,0,.1,0,.2.1,0,0-.1,0-.2,0-.6.3-1.2.6-1.8,1-.3.2-.5.9-.3,1.1.6.7.6.9,0,1.6-.3.4-.9.8-1.7,1.1-.5.2-1.1.4-1.4.9-.2.3-.2.2.1.4.4.3,1.1,0,1.3.6.1.3.1,1.4-.2,1.5-.1,0-.3,0-.4,0-.4,0-.6-.5-1.1-.2-.3.2-.3.3,0,.4.3.2.6.4.9.4.6,0,.3.5.3.7-.3.7-.7,1.3-1.1,1.9,0,.1-.2.2-.4.4M78.2,147.1c-.5-.4-.9-.4-1.4,0-.1.1-.5.2-.2.5.1.1.3.2.5.2.5,0,.9,0,1.4,0,.2,0,.4,0,.7-.2,0,0,0-.1,0-.2-.3,0-.4-.5-.9-.3M69.6,132.9c0-.5-.3-.7-.8-.7-.4,0-.7,0-1.1.2-.1,0-.5.1-.4.2.1.2.3.4.6.5.3,0,.7,0,1.1,0,.2,0,.4,0,.7-.2M83.8,144c0,0,.1-.2.2-.2.4-.2,0-.5,0-.8,0,0-.1,0-.2,0,0,.2-.2.4-.2.6,0,.1,0,.3,0,.4M87.2,134.6c0,0,0-.2-.1-.2-.1,0-.3.2-.3.3,0,.3.2.6.3.9,0,.1.2.2.4.3,0-.1,0-.3,0-.4,0-.2-.2-.5-.3-.7M72.7,133c0,0-.2,0-.3,0,0,0-.1,0-.2,0,0,0,0,.2,0,.3,0,0,.2.1.4.1.2,0,.5,0,.7-.1,0,0,0,0,0,0-.2,0-.4,0-.7-.1M74.4,138.8s0,0,0,0c0,0,0,0,0,0,.1,0,.2.2.3.3,0-.2,0-.4,0-.6,0,0,0,0,0,0,0,0-.1,0-.2-.1,0,.1,0,.2-.1.4M81,148.9c0,0-.1-.1-.2-.2,0,0-.1.2-.2.3.1,0,.3,0,.3,0M75.3,143.3c0-.5-.3,0-.4-.1,0,0,0,0-.1,0,.2,0,.3,0,.6,0M82.8,147.2c0,0,.1-.1.2-.2-.1,0-.2,0-.4,0,0,0,0,.1.1.2M84.7,145.5c0,0,0-.2,0-.3,0,0-.1,0-.2,0,0,0,.1.1.3.2Z"/>
    <path d="M100.7,4.8c.2,0,.5,0,.7,0,.4.1.8.2,1.2.4.1,0,.2.3.2.3,0,.1-.2.3-.3.3-.8.2-1.6.5-2.4,0-.5-.3-1-.5-1.5-.7-.4-.1-.8-.2-1.2-.2-.9-.1-1.9-.2-2.8-.3-.2,0-.4,0-.6,0-1,0-2,0-2.9.2-1.6.2-3.2.5-4.8.2-.3,0-.7.2-1.1.2-.8.1-1.5-.3-2.2-.6-.5-.2-.9-.4-1.5-.4-.6,0-1.3-.1-1.9,0-.6,0-1.1.3-1.7.4-.2,0-.4,0-.6,0,0,0-.1-.2-.1-.4,0-.5-.7-1.2-1.2-1.2-.6,0-1.3.2-1.9.3,0,0-.1.2-.2.3.2,0,.4.3.5.2.9-.4,1.3-.4,2,.1.1,0,.3.1.5.2-.2.1-.5.2-.7.4-.6.3-1.3.3-2,.4-1.5.3-3,.3-4.4.3-.6,0-1.2-.3-1.7-.7-.4-.3-.8-.4-1.3-.6-.1,0-.3-.1-.4-.2-.2,0-.3-.1-.5-.2,0,.2-.1.4-.1.5,0,.3-.3.6.1.8,0,.1-.2.3-.3.3-.5-.1-1-.3-1.4-.4,0,0-.2,0-.2-.1-.1,0-.2-.2-.3-.3.1,0,.3,0,.4-.1.2-.1.4-.2.6-.4-.1-.1-.3-.3-.4-.4,0,0-.1,0-.2,0-.5,0-.9-.1-1.4-.2-.2,0-.4,0-.6,0-1.1-.1-2.1-.3-3.2-.3-.6,0-1.2,0-1.7.1-.3,0,0,.5,0,.7.1.4.4.3.8.2.2,0,.5,0,.8,0,0,0,0,0,0,0-.3.2-.6.5-.9.5-.4,0-.9,0-1.3,0-.2,0-.5,0-.7-.2-.1-.1,0-.4,0-.6,0-.3,0-.7,0-1,0-.1-.5-.2-.7-.1-.2,0-.3.5-.3.6.3.5-.2.7-.4.7-.4.1-.9.2-1.2,0-.6-.3-1.1-.6-1.8-.6-.5,0-.9-.4-1.4-.4-.5,0-1.1,0-1.7,0-.8,0-1.5.2-2.3.5-.7.3-1.5.3-2.2-.2-.4-.3-.7-.6-1.1-.9-.2-.2-.3-.4-.7-.3-.3.1-.7,0-1,.2-.4.1-.7.4-1.1.5-.5.1-.5.6-.6.9-.1.4-.2.9-.3,1.3,0,0-.1,0-.2,0,0-.7-.7-1.1-1.1-1.6-.2-.3-.8-.5-.8-.3-.2.3,0,.7,0,1.1,0,.1.2.2.4.4,0,0,0,.2,0,.2-.1.1-.3.3-.3.3-.4-.4-.8-.7-1.1-1.1-.2-.2-.3-.7-.2-.8.4-.4-.1-.9.2-1.3-.2-.2-.4-.3-.7-.5-.1,0-.3,0-.5,0-.1,0-.2,0-.3,0,.1-.1.2-.3.3-.3.6,0,1.1,0,1.7-.1.7-.2,1.3,0,1.9.4.3.1.7,0,1,0,.9,0,1.8,0,2.6-.4.2,0,.5,0,.7.1.9.5,1.8.4,2.7.4.5,0,1.1-.2,1.6-.2.7,0,1.5.2,2.3.3.4,0,.8.1,1.2.2,1.4.1,2.8-.1,4.1.2.8.2,1.6.1,2.4,0,.4,0,.8-.4,1-.8.3-.5.4,0,.6,0-.2.5.2.3.4.3,1.3,0,2.7,0,4,0s1.1.2,1.5,0c.5-.4,1.1-.2,1.6-.3.6-.1,1.3.3,1.9.4,1,.2,2.1.5,3.2,0,.6-.2,1.4,0,2.1,0,.2,0,.5,0,.8,0,.9,0,1.8-.1,2.6,0,.9.2,1.8,0,2.7.2.3,0,.7-.2,1.1-.2,1.2,0,2.4,0,3.6.1.7,0,1.4-.1,2-.1.5,0,.9.2,1.4.2.3,0,.7-.2,1.1,0,1.6.3,3.1,0,4.7.3,1.2.2,2.5,0,3.7,0,.3,0,.6,0,.9.1.3,0,.7,0,1,0,.8,0,1.5.3,2.3.3.3,0,.7,0,1,0,1-.3,2-.3,3,0,.2,0,.4,0,.6,0,1,0,1.9.3,2.9.3.7,0,1.4.1,2-.1.4-.1.8,0,1.2-.1.4,0,.7-.2,1.1-.3.6-.1,1.1-.4,1.7,0,.3.2.8.3,1.2.3,1,0,1.9,0,2.9,0,.3,0,.8-.1,1.1.3.2.2.9-.1,1.3-.1.6,0,1.3,0,1.9,0,.6,0,1.1.1,1.7.2.4,0,.9.2,1.3.3,0,0,.2,0,.3,0,.2,0,.5-.1.6,0,.4.2.8.2,1.2.1.8,0,1.6.8,1.6,1.8,0,.4,0,.8,0,1.3,0,.1.2.3.3.3.3.2.7.3,1,.5,0,0,0,.1,0,.1-.1,0-.3.3-.5.3-.6,0-1.2,0-1.9,0,0,0-.2.2-.2.2.1.2.2.5.4.6.4.2.9.3,1.4.4,0,0,.2.2.2.2,0,.1-.2.3-.3.3-.6,0-1.2.2-1.8-.2-.3-.2-.7-.3-1-.4-.5-.3-.4-.7-.4-1.2,0-.5,0-1.1,0-1.6,0-.1,0-.2,0-.4-.2,0-.4,0-.4.3,0,.3-.3.6-.4.8,0,0-.2.2-.3.2,0-.2-.2-.4-.1-.4.4-.5-.4-.7-.3-1,0,0-.2,0-.2,0,0,.2-.2.3-.2.5,0,.8-.6,1.1-1.3.8-.3-.1-.7,0-1,0-.6,0-1.3-.1-1.9-.1-.4,0-.7.1-1.1,0-.4,0-.9-.3-1.3-.5.2-.2.4-.4.6-.5.4-.2.8-.4,1.1-.7,0,0,0-.2,0-.2,0-.1-.2-.3-.2-.3-.9,0-1.8-.2-2.7,0-.4.2-.5.4-.3.8,0,.1.1.3,0,.4,0,.1-.2.2-.3.2-.6,0-1.1-.1-1.7-.1-.3,0-.6.2-.9.2-.8,0-1.6-.2-2.4-.3-.3,0-.6,0-.8,0-1.2,0-2.4,0-3.6.1-.7,0-1-.5-.8-1.2,0-.2,0-.4-.1-.6-.2,0-.3.1-.5.2-.3.2-.6.4-.7.6-.5.6-.9,0-1.3,0-.7-.2-1.2-.6-1.9-.7-.7-.1-1.3-.2-2-.4-.5-.1-1,0-1.4,0,0,0,0,.2,0,.2.2.1.4.3.6.4.5.2,1,.5,1.6.7M68.8,4c0,0,.1,0,.2,0,.4.1.9.4,1.2.3.7-.3,1.3-.2,1.9-.2.2,0,.5-.2.7-.3,0,0,0-.2,0-.2-.4-.1-.7-.3-1.1-.3-.6-.1-1.2-.2-1.8-.4-.3,0-.5,0-.8-.2-.6-.1-1.1-.3-1.7-.5-.2,0-.4,0-.6,0,0,0-.1.2-.1.2,0,.1.2.3.3.3.9,0,1.3.7,1.9,1.3M121.9,4c-.2,0-.4,0-.6,0,0,.1,0,.4.2.4.4.2.8.3,1.2.4.2,0,.5,0,.4-.4-.2-.6-.4-.7-1.1-.5M113.3,4.6c.2,0,.4,0,.5-.2.1,0,.2-.2.3-.3-.1,0-.3,0-.4,0-.4,0-.8,0-1.2,0,0,0-.2,0-.3,0,0,0,.1.2.2.2.3,0,.6,0,.9.2M108.3,4.1c-.1,0-.2-.1-.3-.2,0,0-.1-.2-.1-.3,0,.2-.2.3-.2.5,0,.2,0,.4,0,.6,0,0,0,.1,0,.2,0,0,.2,0,.2-.2.1-.2.2-.4.4-.7M109.3,4.5c0,.2,0,.3.1.5,0-.1.2-.3.3-.4,0,0,0-.2,0-.2-.1,0-.3,0-.4.1M53.7,3.2c.2,0,.3,0,.5,0,0,0,0-.1,0-.1-.1,0-.2,0-.4,0M81.1,2.7c0,0-.1,0-.2,0,.1,0,.3,0,.4,0,0,0,.1,0,.2,0-.1,0-.2,0-.4,0Z"/>
    <path d="M37.7,200.4c-.1.9-.5,1.7-1.3,2.2-.4.2-.9.3-1.3.4-.2,0-.5,0-.7,0-1,0-1.1,0-1.6-.5-.3-.3-.6-.4-1-.4-1.2,0-2.3,0-3.5,0-.3,0-.5,0-.8,0-.5,0-1.1.2-1.6.2-.4,0-.8-.3-1.1-.7-.5-.7-1.2-.8-2.1-.8-.9,0-1.7,0-2.6-.1,0,0-.2,0-.3,0-.1,0-.3.2-.4.2.1,0,.2.1.4.1.9.1,1.7.2,2.6.4.4,0,.7.4,1,.7,0,0,0,.2,0,.2-.5,0-.9.1-1.4.1-.3,0-.5-.3-.8-.3-.8,0-1.6,0-2.5,0-.3,0-.6.5-.9,0-.3-.4-.3-.7.2-1,0,0,.1-.2.2-.2,0,0-.2,0-.3,0-.5,0-1,0-1.5,0-.2,0-.4,0-.5,0,0-.1,0-.4,0-.5.6-.5.3-.8,0-1.2-.1-.1-.2-.4-.3-.5,0,0,0-.1.1-.1.2,0,.4,0,.6,0,0,0,.2,0,.2-.1,0,0,0-.3,0-.3-.5,0-.9,0-1.4,0-.2,0-.5,0-.7,0-.4-.1-.5-.5,0-.9.4-.4.3-.9.5-1.3.3-.8.3-1.7.5-2.5,0-.1.4-.2.7-.2,0,0,.2.2.2.3,0,.2,0,.4.1.5,0,0,.3.2.3.2.3-.3.6-.6.9-1,.2-.2.3-.3.5-.5,0,0,.2,0,.3,0,0,.2,0,.5-.2.7-.3.5-.8.9-1.1,1.3-.4.4-1,.6-1.1,1.3,0,.1,0,.3,0,.4.2,0,.5.1.6,0,.5-.4,1.3-.4,1.7,0,.5.6,1.3,1,2,1.3.4.2.8,0,1.2,0,.9,0,1.7-.3,2.6-.4.5,0,.7.3.8.8,0,.5.3,1,.5,1.5.1.4.3.8.5,1.2,0,.2.3.3.5.4,0,0,.1-.1.1-.2-.1-.4-.3-.8-.5-1.2-.1-.4-.1-.7-.2-1.1,0-.2,0-.4,0-.6.2,0,.4,0,.7,0,.2,0,.4,0,.5.2.6.4,1.3.2,2.1.2.9,0,1.7-.7,2.7-.3.4.1.9,0,1.3,0,0,0,.3.2.3.2-.2.3-.4.5-.6.8-.1.1-.3.2-.5.3.2,0,.5.2.6.1.8-.3,1.5-.7,2.3-.9.7-.2,1.4-.5,2.1-.8.5-.2.9-.4,1.4-.5.2,0,.5.2.7.3.1,0,.3.2.4.3-.2,0-.4.2-.6.3-.2,0-.4.1-.5.3-.1.1-.2.3-.2.5,0,0,.2.1.3.1.3,0,.6.2,1,.2.2,0,.5,0,.6-.1.4-.6.9-.6,1.5-.5.2,0,.5-.2.7,0,.4.2.9.1,1.3,0,.5,0,.9-.2,1.4-.2.5-.1,1-.2,1.4-.3.3,0,.7-.2,1-.2.1,0,.2,0,.4,0,.7,0,1.5.2,2.2,0,1-.3,1.9-.2,2.8-.2.5,0,.9,0,1.4.2.3,0,.6.4.7.6.1.6.7.6,1,.6.7,0,1.4-.2,2-.5.5-.2,1,.2,1.3.5.2.2.3.7.8.5.1,0,.4,0,.4,0,0-.2,0-.4,0-.6-.1-.2-.3-.5-.5-.7.2,0,.3-.2.5-.3.9-.2,1.7,0,2.5.3.4.2.8.1,1.2.2.4,0,.8.3,1.2.3.4,0,.8,0,1.2,0,.5,0,1,.4.8.8-.2.5,0,.8,0,1.2,0,.1.1.4.1.4-.2.1-.5.3-.7.3-.4-.1-.4.2-.6.3,0,0,0,.3.1.3.5,0,1,.1,1.5.2.4,0,.7.1,1.1.2.1,0,.3,0,.4,0,.1,0,.3,0,.4.2,0,.1,0,.4,0,.4-.1,0-.3.1-.5,0-.6-.1-1.1-.3-1.7-.4-.7-.2-1.3-.3-2-.4-.5,0-1.1,0-1.6-.1-.8,0-1.5-.2-2.3-.3-.1,0-.2,0-.3,0-.6,0-1.2,0-1.7,0-.5,0-1,0-1.5,0-.7,0-1.5,0-2.2.3-.1,0-.3,0-.5,0-.6,0-1.1,0-1.6.5-.4.3-.8,0-1.1-.3-.5-.4-1-.5-1.6-.4-.6,0-1.2.3-1.7.6-.2,0-.6,0-.8-.2-.4-.3-.8-.6-1-1.2,0,0-.3-.1-.4-.1-.2,0-.4,0-.7.1.1.3.3.5.4.8,0,.2.2.4.2.6-.2,0-.5-.2-.6-.3-.4-.4-1.1-.7-1.4-.5-.6.4-1.2,0-1.8.2-.4,0-.8-.2-1.3-.3-.7-.2-1.4-.5-2.2-.3-.3,0-.7,0-.9.3,0,0-.2,0-.3,0,0-.1,0-.4.2-.4.5-.4.5-.4.5-.5-.1-.3,0-.7-.5-.7-.1,0-.3-.2-.4-.3-.4-.4-.6.2-.9.3M47.5,200c0,0,.2-.1.3-.1.2,0,.5.4.7.3.5-.3,1,.2,1.5,0,.5-.2.8-.4,1.1-.8,0-.1,0-.4,0-.6-.1,0-.3.1-.4.1-.3,0-.6.1-.8,0-.4-.2-.8-.1-1.1,0-.5,0-.6.2-1.2.1-.1,0-.3,0-.4.2,0,0,0,.2,0,.3,0,.1.2.3.4.4M64,201.5c.2,0,.3,0,.5-.1.1,0,.3-.1.4-.2-.1,0-.2-.2-.4-.2-.5-.1-.9-.2-1.4-.3-.2,0-.4.1-.6.2,0,.2.1.4.2.5.4.1.8.1,1.3.1M22.8,198.9c.1.3.3.5.4.8,0,.1.3.2.4.4,0-.2.1-.4.2-.6,0-.2.3-.8-.4-.5,0,0-.2-.2-.2-.2-.1,0-.3,0-.3.2M54.2,200.5c.2,0,.4,0,.7,0,0,0,0-.1,0-.2-.2-.2-.3-.3-.5-.4-.1,0-.3,0-.4,0-.3-.2-.4,0-.5.3.2,0,.4.2.7.3M44.2,200.7c-.3-.4-.7,0-1.1-.1.2.2.3.3.5.5,0,0,.2.1.3.1.2,0,.4.1.6,0,.1,0,.2-.3.3-.4-.1,0-.3-.1-.6-.2M29.3,200.7c0,.1-.1.2-.2.3.3,0,.6.2.9.3.1,0,.2-.2.4-.3-.1-.1-.2-.3-.4-.3-.2,0-.4,0-.7,0M53.5,201.9c0-.7-.6,0-.8-.2,0,0-.2.2-.3.3.1,0,.2,0,.3.1.3.2.5,0,.8-.1M52.2,199.3c0,0-.1,0-.2,0,0,0,.1.2.2.3,0,0,0-.2,0-.3Z"/>
    <path d="M112.6,200.3c0,0,.2,0,.2,0,0,0,0,.2,0,.2-.4.2-.8.5-1.3.6-.2,0-.4.6-.7,0-.1-.2-.4-.3-.5-.7,0-.4-.1-.5-.6-.4-.4,0-.9,0-1.3,0-.4,0-.7.2-1.1.3-.2,0-.4.3,0,.4.3.1.7.2,1,.2.6-.2,1,0,1.3.6.4.9.2,1.2-.8,1.5-.2,0-.3.2-.4.3,0,0,0-.1,0-.2,0-.3,0-.6,0-.9,0-.1-.2-.4-.2-.4-.4,0-.7.1-1.1.2-.7.2-1.3.4-2,.2-.7-.2-1.5-.6-2.3.2-.2.2-.7.3-1,.2-.7-.2-1.3,0-1.9.2-.1,0-.3.3-.3.3.3.5-.1.8-.4,1-.1.1-.6-.2-.9-.2-.6,0-1-.7-1.5-.7-.6,0-1.4-.2-1.9.2-.4.4-.7.2-1,0-.6-.3-1.1-.3-1.7-.4-.7,0-1.5,0-2.1.2-.5.2-.7,0-1.1,0-.4,0-.7-.2-1.1-.3-.3,0-.7,0-1,.1-.6,0-1.2,0-1.7.2-.3,0-.6.2-.9.2-.9,0-1.7,0-2.6,0-.7,0-1.4-.2-2.2-.3,0,0-.2-.3-.2-.3.2-.5.8-.7,1.3-.4,0,0,.1.1.2.1.7,0,1.5.1,2.2.1.2,0,.3-.1.5-.2,0,0,0-.2,0-.2-.1-.2-.3-.4-.5-.4-.9-.1-1.9-.3-2.8-.2-.6,0-1.2,0-1.8.2-.5.1-1,.2-1.5.4-.6.3-.7.6-.4,1.1,0,0,0,.2,0,.3,0,0-.2,0-.3,0-.4.1-.8.3-1.3.4-.2,0-.5,0-.7,0-.2-.2-.3-.5-.1-.8,0,0,.1-.1.2-.1.2,0,.5,0,.7,0,.1,0,.2,0,.3,0,0,0-.1-.2-.2-.3-.3-.3-.5-.8-1.1-.6-.1,0-.4,0-.4,0-.3.6-.9.5-1.4.6-.5,0-1.3-.2-2-.5-.4-.2-.7-.4-1.1-.6-.3-.1-.6-.3-.9-.4-.8-.4-.9-.6-.4-1.3,0-.2,0-.4.2-.6,0-.1.1-.2.2-.4,0,.1.1.2.2.3,0,.3.5.7.7.6,0,0,.1-.1.1-.2,0-.9.3-1.2,1.2-1.3.4,0,.8-.3,1.1-.2.8.2,1.6.2,2.3.8.4.4,1.1.4,1.7.6.8.3,1.5.2,2.3.2.2,0,.3,0,.5-.1.5-.2.9-.4,1.4-.6,0,0,.2-.2.2-.3-.2-.1-.4-.4-.6-.4-.5-.2-1.1-.2-1.6-.4,0,0-.1-.2,0-.2.1,0,.3-.2.4-.2.6-.3,1.1-.2,1.7,0,.6.2,1.3,0,1.8.2.4.2.8-.1,1.1.3.1.2.7,0,1,0,.5,0,.9.2,1.4.3.2,0,.4,0,.6,0,.8,0,1.6,0,2.4,0,.5,0,1,.3,1.4.4.6.1,1.3.5,1.9.2.3-.2.7-.3,1-.3.4-.1.8-.3,1.2-.3.9.2,1.8,0,2.7,0,.2,0,.4,0,.6.1,0,0,0,.3,0,.3-.4.2-.8.3-1.2.4-.4.1-.7.3-1.1.4,0,0,0,0-.1,0-.4,0-.9,0-1.3,0-.4,0-.9,0-1.2.3-.2.1-.6-.2-.7.3-.2.5.1.8.2,1.2,0,.2.7-.1.8-.4.2-.5,1.1-.8,1.6-.7.5.2,1.1.3,1.6-.2.6-.6,1.5-.5,2.3-.5.5,0,.6-.4.6-.6,0-.6.5-1.1,1.1-.9.1,0,.2.2.3.3,0,0-.2.2-.3.2-.6.3-.6,1.5,0,1.9.1,0,.2,0,.4.1,0-.2.2-.5.2-.7-.1-.4-.1-.6.2-.7.3,0,.7,0,1-.1.4,0,.9-.1,1.3-.2.2,0,.5-.2.7-.2,1,0,1.9,0,2.9,0s1,0,1.4-.8c.3-.4.4-.9.7-1.3.5-.6.3-1.4.5-2,0,0-.2-.2-.3-.3-.4-.4-.8-.8-1.1-1.3-.1-.2-.1-.4-.2-.7.2,0,.5,0,.7.1,0,0,.1.1.2.2.4.6,1,.6,1.6.6.6,0,1.3.6,1.3,1.3,0,.6,0,1.2,0,1.7,0,.2,0,.3,0,.5.3.8.2.9-.2,1.6-.2.4,0,1,0,1.5,0,0,0,0,.1,0,.4,0,.9,0,1.3,0M72.7,199.7c-.3,0-.6-.2-.9-.3-.1,0-.4,0-.4,0,0,.2-.1.6,0,.7.2.3.5.5.7.7.4.3.7.8,1.3.3,0,0,.2,0,.3,0,.2,0,.4,0,.6-.2,0-.2-.1-.3-.2-.5,0,0-.2-.2-.3-.2-.3-.3-.7-.5-1-.7M98.1,203.4c.6.6.3-.3.5-.4.2,0,.4-.5.3-.8,0-.1-.4-.3-.7-.4-.3-.1-.7-.2-.9-.4-.2-.3-.3-.1-.4,0-.3.3,0,.3.2.5.5.3,1,.7,1,1.5M85.4,201.5c0,0-.2,0-.2,0-.3.4.3.7.4.7.5,0,1,0,1.5,0,.2,0,.3-.1.5-.2-.1-.1-.2-.3-.3-.4-.6-.4-1.2,0-1.8,0M93.5,202.4c.4.3.8.5,1.3.4.1,0,.3-.3.3-.3-.3-.3-.5-.6-.9-.9,0,0-.5-.4-.3.2,0,.1-.3.3-.4.6M84.5,199.9s.1,0,.1,0c.3.8.5.9,1.3.6,0,0,.2,0,.3,0,.1,0,.2-.2.3-.3-.1,0-.2-.2-.4-.2-.2,0-.4-.1-.6-.1-.4,0-.7,0-1,.1M88.7,201.1s0,0,0,0c0,0,0,0,0,0,0,0,.2,0,.2,0,0,.1.3.3.4.3,0,0,0-.2-.1-.2,0-.2-.1-.4-.1-.5,0-.5-.4-.8-.8-.8,0,0-.1.1,0,.1.2.3.4.6.6,1M110.6,198.3c0,0,0-.2.1-.3-.2,0-.4-.2-.5-.2,0,.2-.1.4-.2.5.2,0,.5,0,.6,0M81.7,200.8c.1-.2.3-.4.4-.7,0,0,0,0,0,0-.2.1-.4.2-.6.4,0,0,.2.3.3.3M76.8,201.3c-.3,0-.5,0-.8.1,0,0,0,.1,0,.2.3,0,.6.2.8-.3Z"/>
    <path d="M122.6,43.6c.3-.5.8-.8,1.6-1.1.1,0,.2-.2.3-.3,0,0-.2-.1-.3-.2-.4-.3-.8-.5-1.2-.4,0,0-.1-.2-.1-.2,0-.2.1-.5.3-.7.2-.3-.1-.5,0-.7.2-.7.3-1.4.5-2,.1-.4.4-.7.6-1.1.1-.2.2-.5.2-.8,0-.7.2-1.4,0-2.1-.2-.6-.2-1.1-.2-1.6,0-.3,0-.5.1-.8,0-.2,0-.5,0-.7,0-.6,0-1.1.2-1.7.2-.8.4-1.5.6-2.2,0-.3.2-.5.4-.7.2-.2.4-.5.7,0,.1.2.5.3.7.5.4.5.4-.2.7-.2-.1-.1.4-.5-.2-.5,0,0-.4-.2-.6-.2-.4,0-.5-.1-.3-.6.2-.6.3-1.2.4-1.9,0-.4,0-.8,0-1.2,0-.4-.1-.7-.1-1.1,0-.6.1-1.3,0-1.8-.2-.5-.2-.8-.1-1.3,0-.4.2-.9.3-1.3,0-.2.2-.4.2-.6.1-.6.3-1.1.4-1.7,0,0,0-.2,0-.2,0-.5.1-1.6.4-2.2.2-.4.2-.8.3-1.3,0-.6.3-.7,1-.6.3,0,.6,0,.8,0,.5.2.3.3.4.9,0,.4-.2.9.2,1.4.1.2,0,.5,0,.8-.1,0-.3,0-.4,0-.1,0-.2-.2-.3-.3-.2,0-.3-.2-.5-.2,0,.2-.3.5-.2.6.3.5.4,1.2,1.3,1.2.3,0,.5.5.8.7.4.4-.1.7-.2.8-.5.5-.4,1.1-.8,1.6,0,0-.1.3-.2.3-.5,0-.4.4-.4.6,0,.3,0,.7.2,1,.2.5,0,1.1-.2,1.6-.3.6-.7,1.2-.7,1.9,0,.6-.2,1.1-.3,1.7,0,.2,0,.4,0,.6,0,1.1-.2,2.3-.2,3.4,0,.5.5.7.9,1,.2.2.5.3.8.5,0,0,0,.2,0,.2-.5,0-.9,0-1.4,0,0,0-.2,0-.3,0-.4,0-.8,0-1.2,0-.6-.1-.9.1-.9.8,0,.4,0,.8,0,1.2,0,0,0,.2,0,.2,0,0,0-.1.1-.1.5-.2,1-.4,1.4-.5,0,0,.1,0,.1.1,0,.7-.1,1.5-.7,2.1-.1.1,0,.6.2.8.5.5,0,1-.2,1.2-.6.7-.6,1.3,0,2,.4.4.7.9.7,1.6,0,.1-.1.2-.2.4,0,0-.1-.2-.2-.2-.6-.2-.9-1-1.6-.7-.3.1-.6.2-.3.6.2.4.4.8.6,1.2.2.3.5.5.7.7.1.1.3.2.4.4-.1,0-.2,0-.3,0-.2.1-.5.3-.7.5-.3.1-.3.1-.3.8,0,.3.3.6.5.8.6.8.5,1.1,0,1.9-.3.5-1,.7-1,1.4,0,0-.4.1-.6.2,0-.3,0-.7.1-.9.3-.4.7-.8.9-1.3.2-.6-.5-1.5-1.2-1.5-.6,0-.6,0-1.2.6,0,0-.4,0-.5-.1-.1-.1-.1-.3-.1-.6M126.2,29.2c.4.2.5-.2.8-.4,0,0,0-.2,0-.4-.2,0-.4-.1-.5,0-.2.2-.4.4-.3.8Z"/>
    <path d="M119.7,101.4c.3.4.7.8.3,1.4,0,.1,0,.3,0,.4,0-.2-.2-.4-.3-.5-.2-.2-.4-.3-.6-.3-.6,0-1.3,0-1.9,0-.3,0-.8,0-.9,0-.3-.4-.8.1-1.1-.2-.1.2-.4.4-.4.6-.1.6-.2,1.2-.2,1.8,0,0-.2,0-.2,0-.1-.4-.6-.7-.5-1.3,0-.4-.2-.9-.3-1.4,0,0,0,0,0-.1.8-.8,1.6-1.5,2.4-2.3.2-.2.6-.4.8-.6.4-.3.4-.7,0-1.1-.4-.4-.4-1.4-.3-1.9.2-.8.3-1.6.3-2.4,0-.1-.5-.2-.8-.3-.1,0-.4,0-.4-.1-.2-.4,0-.6.2-.8.2-.1.4-.3.6,0,.1-.1.4.2.5-.3,0-.5,0-1-.2-1.4-.1-.2-.4-.3-.7-.3-.4,0-.9,0-1.3-.1-.1,0-.3-.4-.2-.4.2-.2.4-.3.6-.4.4-.1.8-.1,1.2.2.1,0,.6-.1.6-.3,0-.3.2-.8,0-1.1-.5-.7-.3-1.2,0-1.9.2-.4.2-.9.2-1.4,0-.2,0-.5.1-.6.5-.4.4-.9.5-1.4,0-.1,0-.3,0-.4-.3-.7,0-1.2.8-1.2.2,0,.4,0,.6,0,0,0,.2-.2.2-.2,0-.1-.2-.4-.2-.3-.7,0-.8-.7-1.2-1-.1,0,0-.3-.1-.5.1,0,.2.2.3.2.5.1.9.3,1.4.4.1,0,.3-.2.5-.3-.1,0-.2,0-.3,0-.6-.3-1.3-.5-1.9-.8-.2,0-.2-.3-.4-.5.2-.1.3-.2.5-.3.3-.1.6-.2.8-.3.4-.2.6-.9.5-1.4,0-.3,0-.6,0-.9,0-.2,0-.3,0-.5,0-.8.2-1.5.3-2.3.1-.6.4-1.2.5-1.8,0-.2-.2-.4-.4-.6-.3-.4-.4-1,0-1.3.6-.4.6-.9.6-1.5,0-.6.9-.9,1.4-.6.1,0,.3.2.4.2.4,0,.5.3.4.7,0,.3-.1.6-.2.9,0,0,0,.1,0,.2.1.8-.2,1.4-.6,2-.2.3-.2.6,0,.8.2.1.4.2.6.3,0,0,0,0,0,0-.3.1-.5.3-.8.4-.2,0-.5,0-.7,0-.5.3,0,.6,0,.9.1.3.5.6.7.9,0,.1-.1.5-.3.6-.2.1-.4.7-.8.1-.2-.2-.5,0-.6.2,0,0,.2.3.3.3.4.2.9.3,1.3.5.2.1.5.3.7.5,0,0,0,.2,0,.3-.3.2-.4.5-.5.8-.1.4-.3.8-.5,1.2-.1.4-.2.9-.3,1.3-.2.6-.4,1.2-.6,1.8,0,.3-.3.6-.2,1.1.1.3.2.7.4,1,.2.4.5.8.7,1.2.4.6.4,1.2.3,2.1,0,.4,0,.7-.3.9,0,0-.1,0-.2.1,0,0,0-.1,0-.2,0-.8-.2-1.6-.3-2.4,0-.2,0-.4-.4-.3-.4,0-.9-.2-1.4-.3-.2,0-.4,0-.6,0,0,0,0,.3,0,.3.2,0,.4.2.5.2.5,0,1.3.4,1.4.8,0,.1-.3.4-.5.4-.4,0-.8.1-1.2,0-.7,0-.8,0-.5.6,0,0,.2.1.2.1.9,0,1.4.4,1.8,1.2.2.3.5.5.7.7.1,0,.2.2.3.3-.2,0-.4.2-.5.2-.2,0-.4,0-.6,0-.5-.2-.8.2-1.3.3,0,0,0,.4,0,.5.3.3.7.5,1,.8.1,0,.2.3.2.4-.2.1-.4.3-.6.3-.3,0-.6-.3-1-.4,0,0-.1,0-.2,0,0,.1-.2.4-.2.4.4.3.2.6.1,1,0,.2,0,.3,0,.5.2,0,.3-.1.5-.2,0,0,.2,0,.2,0,.1,0,.3.3.3.3-.1.4,0,.7.1,1,0,.1,0,.3,0,.5-.1.5-.2,1.1-.4,1.6-.1.4-.4.7-.6,1.1-.3.4-.5.9-.8,1.3,0,0,0,0,0,0,.3,0,.6.1.9.2.1,0,.2.1.4.2,0,0-.1.2-.2.2-.2,0-.4.2-.6.2-.5,0-1.1,0-1.6-.2,0,0-.4,0-.4.1,0,.2,0,.4,0,.6.2.5.8.5,1.2.6.6,0,1.2.4,1.8,0,.2-.1.3-.2.5-.3,0,0,.1-.2.2-.3,0,.2.1.4.2.6M118.7,89.1c.1-.1.3-.2.3-.3,0-.1-.2-.2-.3-.3-.2.2-.3.3-.5.5,0,0,0,.2,0,.2,0,0,.2,0,.4-.1Z"/>
    <path d="M16.4,152.7c0,.4.2.7.2,1.1,0,.6.3,1,.9.9.2,0,.6,0,.6.4,0,0,0,.2-.2.2-.8,0-1.6,0-2.4,0-.6,0-1.1.2-1.7.2-.2,0-.5-.1-.7-.3-.1-.2.5-1.2.7-1.2.3,0,.6.2.9.3,0,0,.2,0,.2,0,0-.3.1-.7,0-1,0-.8-.6-1.3-1.2-1.8-.1,0-.1-.3-.2-.4.1,0,.3,0,.4,0,.3,0,.7,0,.9-.3.1-.3.3-.7-.4-.6-.3,0-.6-.2-.9-.4-.5-.3-.5-1,0-1.3.2,0,.5,0,.7,0,.2,0,.4.2.6.3.2,0,.5,0,.5,0,0-.4.2-1-.2-1.2-.7-.3-1.1-.8-1.5-1.3,0,0-.1-.2,0-.3.2-.7-.5-.7-.8-1-.1-.1-.2-.3-.3-.4,0,0,.2-.1.3-.1.6,0,1.2.1,1.7,0,.3,0,.7-.2,1-.4,0,0,0-.3-.1-.4-.1-.1-.4-.3-.5-.3-1.6,0-3.3,0-4.9,0-.2,0-.3,0-.5,0-.6-.2-.2-.4,0-.5.2-.1.4-.2.6-.2.5,0,1.1,0,1.5-.2.3-.1,1,0,.8-.7,0-.1,0-.3-.1-.4-.5-.3-.1-.8-.3-1.1.4,0,.9-.2,1.3-.3.3,0,.6,0,.9-.1,0,0,0,0,0,0,0-.2-.2-.5-.3-.5-.8,0-1.6-.2-2.5-.2-.1,0-.3,0-.5-.2-.1,0-.2-.2-.3-.3.1,0,.3-.2.4-.2.5,0,.9-.1,1.2-.6,0,0,0,0,0,0,.2-.8.5-1.6.6-2.4,0-.7.1-1.4-.4-2.1-.2-.3,0-.8,0-1.2,0-.6,0-1.1.1-1.7,0-.9-.1-1.7-.2-2.6,0-.6.2-1.2.2-1.8,0-.3,0-.7,0-1.1,0-.3.1-.5.1-.8,0-.2,0-.4,0-.5-.2-.3,0-1.1.3-1.1.2,0,.5.2.7.3.7.5,1.3,1.1,1.9,1.6.2.1.5.2.7.2.2,0,.3,0,.5,0,0,0,.2.1.2.2,0,0-.1.2-.2.2-.5.1-.9.3-1.4.3-.7,0-1.1.4-1,1.1,0,.7,0,1.3.2,2,.1.7.4,1.3.6,1.9,0,.3,0,.6-.1.9,0,.4.3.8,0,1.3-.2.3-.4.9-.8,1-.2,0-.3.7-.2.8.3.3.5.6.5,1.1,0,.8.3,1.6.5,2.4,0,.5.3,1,.2,1.4-.2.6.2.8.3,1.2,0,.2.2.4.2.6,0,0-.2.1-.4.2-.4,0-.7.1-1.1.2-.2,0-.4.2-.6.2-.1,0-.2,0-.3,0,0,.2.2.4.3.4.6.2,1.2.3,1.9.5.3,0,1.3.9,1.4,1.2,0,.4-.1.5-.8.8-.5.2-.9.4-1.4.6-.2,0-.3.5-.3.6.1.2.4.5.7.5,1.2.1,1.5.2,2.2.8-.1.1-.2.3-.4.4-.8.3-1.2,1.1-1,1.9,0,.2.2.3.3.4,0,.3.2.6.1.9-.1.4-.4.8-.6,1.2,0,.1-.1.2-.2.4.2,0,.3.2.5.3M14.5,124.3s0,0-.1-.1c-.2.3-.4.6-.6,1,0,0,0,0-.1.1,0,0,.1.1.2.1.4,0,.7-.3.6-1.1Z"/>
    <path d="M7.7,38.9c0,.5,0,1-.1,1.5,0,.5.3.6.7.8.5.2,1.1.2,1.3.8,0,.1,0,.4-.1.4-.7,0-1.4.1-2.1.1-.5,0-.9-.8-.9-1.4,0-.6,0-1.2-.2-1.7-.2-.4-.4-.8-.7-1.2-.2-.4-.5-.8-.7-1.1-.2-.3-.4-.6-.7-.8-.5-.4-.1-.5.2-.6.4-.2.7-.3,1.1-.5.1,0,.2-.3.2-.4,0,0-.2-.2-.3-.2-.7,0-.9-.5-1.2-1,0-.2,0-.6,0-.8.4-.6,0-1.2.2-1.8.1-.4-.4-1-.6-1.6,0-.2,0-.3-.1-.5.1,0,.3,0,.4,0,.3,0,.6-.1.9-.3.1,0,.3-.3.2-.5,0-.1-.3-.3-.4-.4-.5-.2-1-.3-1.5-.5,0,0,0-.3,0-.4.2-.4.6-.7.8-1.1.1-.3.2-.8,0-1.1-.5-.8-1.2-1.5-1.8-2.1-.5-.5-.8-1.4-.5-2.1.2-.4.2-.9.3-1.4.1-.5.4-1,.5-1.6,0-.8.2-1.6,0-2.3,0-.3-.8-.5-1.1-.8,0,0-.2-.2-.2-.3.3-.9,1-1,1.7-.4.5.4,1.1.7,1.7,1.2.3.2.6.5.2,1-.3.5-.2,1.1,0,1.7.2.7.7,1.4.5,2.2,0,.2,0,.5-.1.7-.3.4-.8.4-1.3.5-.4,0-.8,0-1.1.1,0,0,0,0,0,.2,0,.4.8.8,1.2.9.8.3,1.9-.2,2.5.8.1.2.3.4.2.6-.3.7,0,1.3,0,2,0,.5.3.9.4,1.4,0,.5,0,1,0,1.5,0,.4.2.8.2,1.1,0,.8-.1,1.6-.3,2.4-.2.8-.3,1.6-.2,2.5,0,.4.4.7.6,1.1.1.2.2.5.3.7,0,.3,0,.4-.3.3-.3,0-.8.3-1-.3,0-.1-.6,0-.9,0,0,.2,0,.5.2.6.6.6,1.3,1.1,2,1.6,0,0,.1.2.2.4M4.2,18.4c0-.3-.2-.5-.3-.8,0,0-.1,0-.2,0,0,0-.1,0-.1.1,0,.6-.1,1.2,0,1.8,0,.2.3.3.4.5,0,0,.1,0,.2,0,.2,0,.4-1.1.3-1.3,0-.1,0-.3-.2-.4M5.6,26c-.2,0-.3,0-.5,0,0,.1,0,.3.1.4,0,.2.2.3.3.5.1-.2.3-.3.3-.4,0-.2-.2-.3-.2-.5M5.6,31.4c0,.2,0,.4,0,.5.1,0,.3,0,.4,0,0,0,.1-.2,0-.2-.1-.1-.2-.2-.4-.2Z"/>
    <path d="M115.1,130.3c0,.4.3.9.7,1,.2,0,.3.2.5.4-.2.1-.4.3-.6.4-.3,0-.7,0-1,.2,0,0,0,.2,0,.2.5.6.4,1.2.3,1.9-.2,1,0,1.9-.1,2.9,0,.7-.3,1.4-.5,2.1-.1.7-.1,1.4-.2,2.1,0,.5.3.8.5,1.1.1.2.3.4.5.5-.2.1-.4.3-.6.4-.6.2-.5.2-.2.7.1.2,0,.7-.2.9-.2.3-.2.6,0,.9,0,0,.2.3.1.3-.2.1-.4.3-.5.3-.6,0-.7-.5-.9-.9,0,0-.1-.2-.2-.2,0,0,0,.1-.1.2-.2.6-.3,1.3-.5,1.9-.2.5-.5,1-.7,1.6,0,.2,0,.3-.2.5,0,.2-.2.3-.3.4,0-.3-.2-.5-.2-.8,0-.6.2-1.2.3-1.7.1-.6.4-1.1.5-1.7.1-.6,0-1.1.2-1.7,0-.3.2-.6.3-.9,0-.2-.4-.6.2-.7-.2-.4.3-.6.4-.8.3-.4.2-.9.1-1.2-.1-.4-.4-.1-.6.1-.3.4-.6.8-1,1.2-.1.1-.5.3-.5.2-.3-.3-.5-.6-.7-.9.2-.1.3-.3.5-.3.8-.2,1.2-.5,1.2-1.3,0-.4,0-.8,0-1.2,0-.1.3-.3.5-.3.4,0,.8-.4.8-.8,0-.4,0-.9.1-1.3,0-.4,0-.8,0-1.2,0-.6.1-1,.3-1.5,0-.2,0-.4,0-.6-.2,0-.4,0-.5.1-.2.3-.4.7-.6,1,0,0-.1,0-.1,0,0,0-.2-.2-.2-.3.1-.4.2-.9.4-1.3.2-.4.6-.6.9-.9,0,0,.1-.2.2-.3-.2,0-.3-.2-.5-.2-.4,0-.7-.2-1.1-.2,0,0-.2,0-.3,0-.3,0-.5-.2-.8-.3,0,0,0-.4,0-.4.3,0,.5,0,.8,0,.4,0,.9.2,1.3.2.3,0,.4-.1.1-.4-.2-.2-.2-.6-.3-.9,0,0,.1-.3.2-.3.6,0,1.2,0,1.8,0,.2,0,.4-.1.4-.3,0-.1,0-.4,0-.6,0-.1-1,0-1.1,0-.2.1-.4.2-.6.3.1-.3-.4-.5-.1-.9.2-.2.2-.5.3-.8.1-.2.2-.5.5-.6.6-.3,1.1,0,1.6.3.2.2.4.6.5.9,0,.4-.1.8-.2,1.1,0,.3-.2.7-.3,1,0,.3,0,.9-.2,1-.3.2,0,.4,0,.6Z"/>
    <path d="M117.7,124.4c-.1.1-.3.3-.4.2-.8,0-1.6.2-2.4-.2-.2-.1-.6,0-1,0-.8,0-1-.4-.7-1.2.1-.3,0-.6,0-.9.1-.5.3-1,.4-1.5.1-.5.2-1.1.4-1.5.3-.6,0-1.3.2-1.9,0-.3-.2-.7-.2-1,0-.6,0-.7.7-.5.2,0,.4-.1.5-.2,0,0,0-.2,0-.2-.1-.1-.3-.3-.4-.3-.6-.2-1.1-.1-1.7-.1-.1,0-.3-.2-.4-.3,0-.1.2-.3.3-.4.3,0,.8,0,1,0,.6-.4,1.3,0,1.8-.5.3-.3.1-.6-.1-.6-.4,0-.8-.4-1.2,0,0,0-.2,0-.2,0,0-.1,0-.3,0-.4.1-.3.4-.6.5-1,0-.2,0-.5,0-.8,0-.2-.2-.4-.2-.4.4-.6-.3-1-.2-1.5,0-.3-.3-.6,0-.9.2,0,.4-.1.6-.1.5,0,1,.1,1.5.2.1,0,.2,0,.3,0,.3,0,.7,0,1,.2,0,0,.1.2,0,.2,0,.1-.2.3-.4.3-.6,0-1.2,0-1.8,0,0,0,0,0,0,0,0,0,0,.2.1.3.2,0,.4.2.6.2.5,0,1,.1,1.5.2.3,0,.6.2.9.3,0,0,0,.2,0,.2-.3.1-.5.5-.9.4-.5,0-1,0-1.5.2,0,0,0,0,0,0,0,.3,0,.8.3,1,.4.4.6.8.6,1.4,0,.5,0,1-.3,1.3-.2.2-.4.4-.6.6,0,0-.2.3-.2.3.1.2.3.4.5.6.2.2.4.5.6.7.5.5,0,.9-.2,1.3-.1.5-.7.8-.6,1.4.1.5.2.6.6.8.2.1.4.3.6.5-.2,0-.2.4-.7.4-.4,0-.9.4-1.4.7-.3.2-.7.4-1,.6-.1,0-.2.2-.3.4.3.1.5.3.8.3.4.1.8.2,1.2.3.4.1.9.2,1.3.4,0,0,.1.1.2.2,0,0-.2,0-.2.2M114.9,121c0,0,.2.2.2.3.2-.3.5-.5.6-.8,0-.4,0-.8,0-1.1,0,0-.2-.2-.3-.2,0,0-.2,0-.2.2-.3.5-.3,1-.3,1.7M115.6,118.6c0,0,.1.2.2.2.3-.1.6-1.1.5-1.4,0,0,0,0-.1,0-.5,0-.9.8-.5,1.3Z"/>
    <path d="M8.9,50.5c0,.6,0,1.2-.1,1.8,0,.5.7,1.4,1.2,1.5.7.2.8.5.4,1.2-.2.3,0,.8,0,1.2,0,.4.3.7.4,1.1,0,0-.1.3-.2.3-.1,0-.3,0-.4-.1-.2-.2-.4-.5-.5-.8-.2-.2-.3-.4,0-.7,0,0,0-.1,0-.1-.3,0-.7-.2-1-.1-.3,0-.6.4-.6.6,0,.3,0,.8.2,1,.7.6,1.4,1,2.1,1.5.2.1.4.5.3.6-.2.3.1.8-.4,1-.8.3-1.4.3-2.2,0-.1,0-.4,0-.5,0-.3,0-.6-.2-.8-.4,0,0,0-.4.2-.5.1,0,.3,0,.5,0,.3,0,.6,0,1,0,0,0,0-.3,0-.4,0-.3-.2-.5-.4-.7-.2-.3-.4-.6-.6-.8-.4-.5-.8-1-1.2-1.5-.2-.3,0-.7.4-.7.2,0,.4,0,.5,0,.2,0,.4,0,.3-.4,0-.4.1-.8,0-1.1,0-.3-.4-.5,0-.8.1-.1.3-.3.4-.3.7-.3,0-.6,0-.7-.4-.3-.8-.4-1.2-.6-.7-.4-1.1-1.8-.7-2.5,0-.1.2-.2.3-.3,0,.1,0,.2,0,.3,0,.3.2.6.3.9.2.4.6.7.8,1.1.2.4.5.2.7,0,.1-.1,0-.4,0-.6-.2-.4-.5-.8-.6-1.2,0-.2.1-.6.3-.8.3-.3.4-.6,0-.8-.6-.5-.7-1.2-.7-1.8,0-.8-.3-1.4-.6-2,0-.2,0-.4,0-.5,0-.1.1-.2.1-.3,0-.2,0-.4,0-.6.1.2.2.4.4.5.4.3.6,1,1.3.8.2,0,.5,0,.7,0,.2,0,.3.2.5.3-.2.2-.3.3-.5.5,0,0-.3,0-.4,0-.2.1-.3.3-.4.4.2,0,.3,0,.5,0,.6,0,1.1.4,1.1,1,0,.9.2,1.8-.2,2.7-.1.3,0,.8,0,1.2,0,.2,0,.4-.1.7M9.2,59.6c-.1,0-.2.1-.3.2,0,0,0,.2.1.3.1-.2.2-.3.2-.5Z"/>
    <path d="M113.5,177.3c0,0,.2.1.2.1-.2,0-.3.3-.5.3-.7,0-1.3,0-2,0-.4,0-.6.1-.6.4,0,.1.3.3.5.4.3.1.6.2.9.4.1,0,.3.1.3.2,0,.6,0,1.3,0,1.9,0,.3-.2.6-.3.9,0,.1.1.3.2.4.4.6,0,1.1-.2,1.6-.4.6-.3,1.3-.2,2.1,0,.7.3,1.5,0,2.3-.2.4-.2,1.2.2,1.7.2.3.5.5.8.8,0,0,0,.2,0,.3,0,.1-.2.2-.3.2-.4,0-.8.2-1.2.2-.5,0-1,.2-1.5.3-.1,0-.2,0-.3,0-.1,0-.2.2-.4.3,0-.3,0-.6,0-.9,0-.5.4-.8.8-1,.5-.3.3-.7.4-1,0,0-.3-.3-.4-.4,0,0-.1.2-.2.2-.3.2-.5.3-.8.4-.1-.3-.2-.6-.3-.9,0,0,0-.1,0-.2,0-.6-.1-1.2-.1-1.8,0-.4.2-.8.4-1.1.2-.2.6-.3,1-.4.2-.1.6-.2.6-.4,0-.2-.3-.6-.4-.6-.5.3-.6-.3-1-.4-.2,0-.3-.1-.5-.2.2,0,.5,0,.6-.2.4-.6.9-.3,1.3-.2.6.2.6-.2.6-.5,0-.4-.3-.8-.4-1.3,0-.1,0-.3-.1-.4.1,0,.2,0,.3,0,.3,0,.5,0,.8,0,0,0,0-.2,0-.2-.1-.2-.3-.5-.4-.5-.4.2-1-.2-1.3.4,0,0,0,0,0,.1,0,.3,0,.5-.2.8,0,0-.3.2-.3.2-.2-.2-.5-.5-.5-.7,0-.4.2-.7.4-1.1.2-.5.5-1,.8-1.5,0,0,0-.1,0-.2,0-.7.1-1.6-.5-2.2.2-.1.3-.2.5-.3,0,0,.1,0,.2,0,.8.4,1.5.8,2.3,1.2.3.2.6.3.9.4M109.8,186c-.5.3-.3.7-.3,1.1,0,.5.5.6.6.5.6-.3.5-.9.4-1.4,0-.5-.5-.1-.8-.2Z"/>
    <path d="M123.5,61c0,.9-.2,1-1,1.1-.5,0-1,.3-1.3.7,0,0-.2,0-.2,0-.2-.3-.3-.7-.5-1-.2-.4,0-1-.5-1.4-.3-.2,0-.5,0-.7.3-.4.6-.7.9-1.1.2-.3.1-.5,0-1.1-.1-.6,0-1.2-.1-1.8,0-.3,0-.7-.1-1,0-.5-.2-.9-.3-1.4,0,0,0-.2.1-.2,0-.2.1-.4,0-.5-.1-.2-.4-.3-.6-.4-.3,0-.6,0-.9-.1,0,0-.1-.2-.2-.3.2-.1.4-.4.6-.4.8,0,1.6,0,2.4,0s.9,0,1.4,0c.8,0,1.2.8.8,1.5,0,0,0,.2,0,.2,0,.4-.2,1.4-.3,1.9,0,.4,0,.8,0,1.2,0,.5-.2,1-.3,1.5,0,0,0,.1,0,.2,0,.6-.1,1.2,0,1.8,0,.4.2.9.2,1.4M121.6,60c0,.2-.1.4,0,.5.1.1.3.2.5.2.2,0,.5-.1.6-.3.2-.3-.3-.9-.6-.8-.1,0-.2.2-.4.4Z"/>
    <path d="M14.5,160.5c0-.2-.1-.4-.1-.4.4-.3.8-.5,1.3-.3,0,0,.2,0,.3,0,.3,0,1,.9,1,1.1,0,.3.2.5.1.8,0,.4-.3.9-.3,1.3,0,.5,0,1.1-.2,1.6-.1.5,0,.9-.1,1.3,0,.6.3,1,.4,1.6.1.4.3.9.5,1.3.1.4.4.8.4,1.2,0,.3,0,.6,0,.9-.1.4-.4.8-.6,1.2-.2.4-.4.8-.5,1.2,0,.2.2.4.3.6.2-.1.4-.3.6-.4.1,0,.4-.2.5-.2.4.5.7,1,1,1.5,0,.2,0,.4.1.5-.1,0-.3-.2-.4-.2-.2,0-.4,0-.6,0-.7,0-1.3,0-2,0-.4,0-.9-.2-1.3-.3,0,0,0-.3,0-.3.2-.2.5-.3.7-.4.1,0,.3-.2.3-.3,0-.1,0-.3-.2-.4-.2-.3-.4-.5-.6-.8.3-.2.5-.3.8-.5.1,0,.3-.2.4-.3,0-.1,0-.4,0-.4-.2-.1-.5-.1-.7-.2-.4-.2-.7-.5-1-.8.1-.2.3-.3.4-.5,0,0,.2,0,.2,0,1,0,.7-.9.8-1.4,0-.3-.3-.8-.5-1.1-.4-.5-.3-1.1-.3-1.7,0-.7.6-1.4.2-2.1-.2-.4-.5-.7-.9-.9-.5-.3-1.1-.4-1.6-.7-.1,0,0-.5,0-.7.2,0,.4,0,.6.1.6.3,1.3.7,1.9.9.3.1.7,0,1,0,0,0-.1-.1-.2-.2-.2-.7-.8-.9-1.3-1.3-.1,0-.2-.3-.2-.4Z"/>
    <path d="M44.3,60.1c-.1-.2-.2-.5-.4-.6-.3-.1-.6-.2-.9-.2-.2,0-.5-.1-.7-.2-.2,0-.3,0-.5,0-.3,0-.5,0-.7-.2-.4-.2-.2-.6.4-.8.5-.1,1.1-.1,1.7-.2.3,0,.6,0,.9-.1.2,0,.5-.2.7-.1.9.3,1.8.6,2.6,1.1.8.5,1.8.8,2.7,1.1.2,0,.3.1.4.2,0,0,.1.2.2.3-.2.1-.4.3-.7.4-.5,0-.8.5-.6,1,.2.5.6,1-.1,1.4-.1,0-.3.2-.5.2-.5,0-.9,0-1.4,0-.5,0-.9-.2-1.4-.5-.3-.2-.7-.3-1.1-.3-.5,0-1-.2-1.4-.4-.5-.2-.1-.4.1-.6.2,0,.5,0,.6-.2.1-.1,0-.4,0-.6,0-.2,0-.4-.1-.5,0,0,0-.1,0-.2Z"/>
    <path d="M71.5,92.3c-.2-.2-.5-.4-.7-.5.2,0,0-.6.4-.2,1.3-.6,2.6,0,3.9-.3.3,0,.5-.3.7-.5-.3-.1-.6-.3-.8-.4-.5-.2-1,.2-1.6-.2-.5-.4-.9-.8-1.2-1.4-.5-.9-1.2-1.3-2.2-1.4-.3,0-.5-.4-.7-.6,0,0,.2-.2.3-.2.5,0,.9,0,1.4-.1.5-.3.8-.7,1-1.1.4-.9,1-1.2,1.8-.8.3.1.7,0,1,.1.5.1,1,.3,1.4.5.6.3.8.8.6,1.5-.1.4,0,.9,0,1.3,0,.1-.2.3-.2.4,0,.3,0,.7,0,1-.1.5,0,.9,0,1.4.1,1.3-.4,1.6-1.7,1.5-.7,0-1.4,0-2.1,0-.4.1-.9,0-1.4,0M76.1,86.1s0,0,0,0c-.5-.2-1-.5-1.6-.7-.2,0-.5,0-.6,0-.4.3-.4,1.3,0,1.6.5.4,1.1.8,1.6,1.2.1,0,.3,0,.4,0,0,0,.1-.2.1-.3,0-.2,0-.5,0-.6.3-.4.4-.8,0-1.4Z"/>
    <path d="M46.9,83.4c-.6.2-1.2.5-1.9.6-.5,0-1,.2-1.5.4-.4.2-1,.2-1.4.4-.1,0-.4-.2-.7-.3.1-.1.3-.2.4-.4.4-.4.7-.8.8-1.4.2-.7.3-1.2.1-1.9,0,0,.6-.3.7-.2.6.3.9.1,1.3-.3.6-.6.6-.7.4-1.5,0-.2,0-.6.2-.8.1-.2.5-.2.7-.2.6,0,1.2.3,1.8.3.6,0,.9.2,1.1.7,0,.2.1.4.2.6,0,.2,0,.4.2.5.1,0,.4,0,.5,0,.6-.4,1.9-.3,2.5.3,0,0,.1,0,.2,0,.1.1.2.2.4.4-.1,0-.3.2-.4.2-.8,0-1.6-.2-2.4-.2-.4,0-.9.1-1.3,0-.4,0-.9-.2-1.3-.4-.2,0-.3-.3,0-.3.2,0,.4-.3.4-.5.1-.6-.4-.2-.5-.2-.3,0-.6.2-.9.3-.1,0-.4,0-.4,0,0,.3-.1.6,0,.8.1.3.4.6.6.9.4.5.9.4,1.4.4.4,0,.7.1,1.1.2,0,0,0,.1,0,.1-.5.3-.9.5-1.4.7-.3.1-.7.3-.9.5Z"/>
    <path d="M85.9,83.4c0,0,0,0,0,.1.2.3-.1.5-.3.5-.6.2-1.3.3-1.9.5-.3,0-.5.3-.7.4,0,0-.2,0-.2,0-.7-.2-1.4,0-2-.4-.1,0-.2-.5-.2-.5.6-.5-.1-.6-.2-.9-.1-.3-.6-.4-.9-.7-.4-.3-.8-.5-1.3-.5-.4,0-.9-.3-1.3-.4-.3,0-.6,0-.9-.1-.4,0-1,.1-1-.3,0-.5.5-.5.9-.5.7,0,1.3.2,2,.2.5,0,.9,0,1.2-.4,0,0,0,0,0-.1.1-.2.3-.4.4-.6,0,0-.3-.2-.5-.4-.4-.4,0-.6.3-.7.3-.1.7-.1,1.1-.2.3,0,.5-.3.8-.3.3,0,.7,0,1,.2,0,0,0,.1,0,.2.1,0,.3,0,.5,0-.2,0-.3,0-.5.1-.1,0-.2,0-.4.2-.4.2-.8-.2-1.1.2,0,.1-.2.2-.3.3,0,0,.2.2.3.3.5,0,1,.2,1.4.2.9,0,1.1,0,1.3,1.1,0,.3.3.6.5.8.7.5,1.4,1,2.1,1.6M82.6,82.2c-.3-.5-.7-.2-1.1-.3-.2,0-.3,0-.2.3.3.6.6,1.2,1,1.8.2.3.3,0,.4,0,0-.2,0-.3,0-.5,0-.2-.3-.4-.3-.5,0-.3.2-.6.1-.9Z"/>
    <path d="M72,57.7c-.4-.2-.8-.4-1.1-.6-.2-.1-.5-.3-.7-.4,0,0,0-.1.1-.1.6,0,1.2,0,1.8,0,.2,0,.4.1.6.1,0,0,.2-.1.2-.2.3-.7-.1-1.4-.8-1.4-.3,0-.6,0-1,0,0,0,0,0-.1,0,0,0,.1-.2.2-.3.8-.5,1.7-.5,2.6-.5.2,0,.5-.3.5-.5,0-.3,0-.6,0-.8,0-.1-.1-.2-.2-.3,0,0-.2,0-.2.1-.2.2-.5.4-.7.6-.4.6-.8-.2-1.2,0,0-.3,0-.6.1-.8.2-.3.6-.5.9-.7.1,0,.4-.1.4-.2.2-.4.5-.4.8-.3.4.2.5-.3.8-.3,0-.2-.2-.4-.2-.6,0-.3-.5-.5,0-.8.1,0,.4,0,.5,0,.2.3.3.3.6.4.6.2,1.1,0,1.6,0,.2,0,.4.2.5.4,0,0-.2.4-.3.5-.5.2-1.1.2-1.7.3-.2,0-.5.3-.6.5-.1.2-.2.5.3.4.5-.1,1.1-.1,1.4.5,0,.2.2.4.2.5-.3.7.4.6.7.8.1.1.3.3.4.4-.1,0-.3.3-.4.3-.5,0-1,0-1.6,0-.3,0-.6.2-.9.4-.4.4-.9.8-1,1.3-.1.5-.3.7-.7,1-.6.4-1.2.4-1.9.1Z"/>
    <path d="M13.3,91.7c-.2-.6-.6-.7-1.2-.7-.6,0-1.2-.1-1.9-.2-.1,0-.3.1-.4.2,0,0-.1.3,0,.4.4.5.8,1,1.2,1.5,0,0,.2,0,.3,0,0-.1,0-.4,0-.4-.4-.3-.2-.7,0-1,0,0,.4-.1.4,0,.6.6,1.3,1.2,1.9,1.9.2.2.3.7,0,1-.4.5-.4,1.4,0,1.9.1.2.2.4.2.6,0,.5-.3.7-.6.3-.3-.3-.5,0-.6,0-.1,0-.2.4-.2.6,0,.1,0,.3,0,.4,0,.3,0,.5.4.4.1,0,.3,0,.5,0,.6,0,1.3,0,1.6-.7,0-.1.2-.3.3-.3.3.2,0,.3,0,.4,0,.6-.2.8-.6,1.1-.6.4-1.1.4-1.8.2-.7-.2-1.3-.4-1.7-1-.3-.4-.4-1-.6-1.4-.2-.4-.2-.8.2-1,.1,0,.3,0,.5,0,.2,0,.5.1.6,0,.1-.1.2-.4.1-.6,0-.1-.3-.2-.5-.2-.4,0-.8,0-1.2-.2-.4-.2-.2-.7-.2-1,0-.6,0-1.2-.4-1.8-.2-.3-.4-1.8-.2-2,.2-.2.6-.4.9-.5,1.1-.2,2.2.1,3.1.8.3.2.4.6.6.9,0,.1,0,.3,0,.5,0,0-.1-.2-.2-.2-.1,0-.2,0-.4,0Z"/>
    <path d="M79.8,63.7c-.4-.2-.5-.5-.7-1,0,0-.2,0-.3,0-.7,0-.8,0-.6-.6.3-.6.6-1.1.8-1.7,0-.3.2-.6.4-.8,0,0,0-.2.1-.3,0,.1.2.2.2.3,0,.2,0,.4,0,.6,0,.1,0,.3,0,.4.2,0,.4-.1.5-.2.1-.1.2-.4.2-.5,0-.4.5-1.2.9-1.3.4,0,.8,0,1.1-.1.4-.2.8-.2,1.2-.3.9-.3,1.8.4,1.8,1.3,0,.2,0,.6,0,.7-.2.2-.5.5-.8.6-.6.2-.8.6-.8,1.2,0,.2,0,.5-.2.6-.3.5-.5,0-.6-.2-.1,0-.2-.3-.3-.4-.1-.1-.3-.2-.4-.3-.1.3-.4.5-.4.8,0,.6-.3,1.1-.9,1.1-.5,0-.9,0-1.4,0M82,60.2c0,0,.1-.1.2-.2,0,0-.1,0-.2,0-.1,0-.2,0-.4,0,0,0-.2,0-.2,0,.1.1.3.3.4.4,0-.1,0-.2.2-.4Z"/>
    <path d="M12.8,84.5c.1-.4.5-.8.3-1.2-.3-.4-.3-.7.1-.9,0,0,.2-.1.3-.2,0,.1.2.3.2.4,0,1,0,1.9-.8,2.7-.1.1,0,.4-.1.6,0,.3,0,.5,0,.8-.2,0-.5-.1-.7-.3-.4-.3-.9-.1-.9.3,0,.3-.6.6,0,.8.4.1.7.3,1.1.3.6,0,1.3.2,1.6.7,0,0-.1,0-.2.1-.5.5-.9.4-1.5.2-.4-.1-.8-.3-1.1-.5-.6-.3-.7-.8-.9-1.3-.2-.6-.1-1.4-.2-2,0-.4-.5-1,.2-1.3,0,0,0,0,.1,0,.2-.2.3-.3.5-.5-.3-.1-.3-.8-.9-.5-.2,0-.5,0-.8-.1,0,0,0-.2,0-.2.3-.2.6-.5.9-.7.2-.1.5-.2.7-.3,0,0,0-.2,0-.4,0,0-.2,0-.2,0-.5-.3-.9-.6-1.3-1,0,0,0-.2,0-.3.6-.5,1.2-1,1.8-1.6,0,0,.3,0,.3,0,.3.4.9.5.7,1.2,0,.2.2.4.2.5,0,.5,0,1.1-.3,1.5-.2.5,0,.9-.1,1.3,0,.7,0,1.4.2,2.1,0,.2.1.3.2.5,0-.1.2-.2.2-.3.1-.1.2-.3.4-.5Z"/>
    <path d="M14.7,114.1c-.1.4-.8.7-.2,1.1.1,0,.2.2.4.2.2,0,.5.2.7.3-.3.2-.6.5-.9.7-.3.2-.8.3-.7.8,0,.2,0,.4.2.6.2.7.2,1.2-.4,1.5-.4.2-1,.5-1.5,0,0,0-.2,0-.4,0,0,0-.2-.1-.3-.2,0,0,0-.2.2-.2.3-.2.6-.4.9-.5.6-.3.3-.9.4-1.3,0-.1-.2-.4-.4-.5-.4-.3-.9-.5-1.4-.8-.3-.2-.5-.4-.7-.6,0,0,0-.1,0-.1.3,0,.6-.1.9-.1.5,0,1-.4,1-.9,0-.4-.2-.7-.5-1.1-.5-.6-.8-1.5-1.2-2.2-.2-.3-.4-.5,0-.9.3-.3.3.1.5,0,0,.3.1.7.3.9.2.2.6.6.8.5.7-.3,1,.4,1.4.6.6.3,1,1.1,1.9,1,.1,0,.2.2.4.3,0,.1-.2.2-.3.3-.4.4-.8.5-1.4.5Z"/>
    <path d="M42.1,69.1c.3-.1.5-.3.7-.4,0,0,0-.2-.1-.3-.1-.2.3-.9.6-.9.3,0,1.1.5,1.1.7,0,0-.2.2-.3.3-.3.2-.6.4-.9.7.2.2.4.6.5.6.9-.2,1.1.6,1.4,1.1.2.2.2.5.3.8.1.5-.3,1.1-.9,1.3-.6.2-1.2.4-1.9.2-.4-.1-.9,0-1.3.1-.6,0-.8-.3-1.1-.8-.2-.4,0-1-.6-1.3,0,0-.1,0-.2,0-.6,0-1.2-.1-1.8.2-.3.1-.7,0-1.1-.1-.3-.1-.4-.4-.1-.5.1,0,.3,0,.4-.1.4-.1.7-.2,1.1-.3.4-.1.8-.2,1.3-.3.5-.1,1-.3,1.5-.5.5-.1.9-.3,1.4-.4M42,72.5c.5,0,.9,0,1.4,0,.2,0,.4-.1.5-.2-.1-.1-.2-.3-.3-.3-.4-.1-.8-.2-1.3-.3-.4,0-.8-.1-1.2-.1-.2,0-.5,0-.5.1,0,.1,0,.4,0,.6.3.4.8.2,1.4.3Z"/>
    <path d="M60.8,91.1c.3-.3.8-.6,1-.9.2-.6.1-1.1-.1-1.7-.1-.3-.5-.6-.7-.9,0-.1-.1-.3-.2-.4.1,0,.3-.1.4-.2.4,0,.7-.1,1.1-.1.8,0,1.4.3,2,.7.3.1.5.3.8.4.1,0,.2.2.3.3-.2,0-.3.2-.5.2-.4,0-.8-.3-1.2-.3-.3,0-.6,0-.9,0,0,.3,0,.5,0,.8,0,.6.4.7.9.7.2,0,.4,0,.6,0,.5,0,.8.3.8.9,0,.7,0,1.4.1,2.2,0,1.1-.3,1.4-1.4,1.3-.2,0-.4,0-.5,0-.4.4-.7.3-.9,0-.1-.3-.2-.7,0-1,.2-.6.3-1.2.3-1.8,0,0,0,0-.1-.1,0,0-.1,0-.2.1-.4.7-1.1.9-1.6.4,0,0,0-.1.2-.3Z"/>
    <path d="M65.3,52.1c.2.2.5.5.5.7,0,.2-.4.4-.6.5-.4.2-.8.3-1.2.4,0,0-.3-.2-.3-.2,0-.4.1-.9,0-1.3,0-.3-.3-.5-.5-.8,0,0,0,.1-.1.2-.1.3-.2.6-.3.9,0,0-.2.2-.3.1-.1,0-.4-.2-.4-.3,0-.3,0-.6,0-.9,0-.4.2-.9.2-1.3,0-.6,0-1.1,0-1.7,0-.1.4-.3.6-.3.5,0,1,0,1.4-.2.3-.2.8-.5.7-1.1,0-.2,0-.4.1-.7,0,0,.2,0,.2,0,.3.3.5.7.7,1,0,0-.1.3-.2.4-.2.5-.2.9.4,1.1.3,0,.4.3,0,.6-.2.2-.3.5-.4.8,0,.2.3.4.3.6.2.5,0,.7-.4.8-.2,0-.4,0-.6,0,0,0,0,.3,0,.5M64.7,49.5s0,0,0,0c0,0,0,0,0,0-.2,0-.4.2-.6.3,0,0,.2.1.3.2,0-.1.2-.2.3-.4Z"/>
    <path d="M54.3,51.9c.5.5,1.1.9,1.6,1.3.4.3.4,1.2,0,1.6-.5.5-1.1.9-1.7,1.1-.6.2-1.1.5-1.7.8,0,0-.2,0-.2,0,0-.2-.3-.5-.2-.6.4-.6,0-1.2,0-1.7,0-1,0-1.9-.6-2.8-.2-.3-.3-.7-.4-1.1,0-.1,0-.4.1-.5.1-.2.8-.2.9-.1.5.2.9.5,1.4.7.6.3.6.8.6,1.4Z"/>
    <path d="M14.8,179.1c0-.9,0-1.7,0-2.5,0-.4.6-.4.9-.4.5,0,1.1,0,1.6.1.2,0,.4,0,.5.1,0,.1,0,.3-.2.4-.4.3-.7.7-.8,1.2-.1.5-.4,1.1-.1,1.7.2.5.2,1,.3,1.5,0,.3.1.5.1.8,0,.6-.4,1.1-1,1.3-.4.1-.9.1-1.1.6,0,.1-.4.2-.6.2-.2,0-.2-.4-.1-.7.2-.5.4-1.1.5-1.7,0-.3-.2-.6-.3-1,0-.2,0-.5,0-.7,0-.4.1-.7.2-1.1Z"/>
    <path d="M14.2,110.6c-.4-.1-.7-.2-1-.4-.6-.5-1.1-1.1-1.7-1.6-.1-.1,0-.4,0-.6,0-.2,0-.4,0-.6,0-.7-.2-1.5,0-2.2,0-.4.4-.8.7-1.1,0,0,.4.1.5.2.3.4.8.3,1.2.4.5.2,1,.3,1.4.5,0,0,0,.1,0,.1-.4.2-.7.4-1.1.6,0,0-.2.2-.2.3,0,.5,0,.9,0,1.4,0,.4.4.5.6.8,0,0,0,.1,0,.2-.2.2-.5.4-.5.7,0,.2,0,.4.5.4.6,0,1.2.2,1.8.4.2,0,.5.4.5.6,0,.3-.2.5-.7.3-.5-.2-1.1-.1-1.6-.2,0,0,0-.1,0-.2Z"/>
    <path d="M111.2,166c-.8-.8-1-1.1-.9-2.1,0-.9.3-1.8,1.2-2.1.5-.2,1.1-.2,1.6-.2,0,0,.1,0,.2.1.4,0,.6.3.3.6-.4.4-.3,1-.5,1.5-.2.6,0,1.1-.1,1.6-.2.5-.3.9-.1,1.4,0,.4.4.9.8,1,.4.2,1,0,1,.7,0,.2,0,.4-.2.4-.8,0-1.7,0-2.5,0-.1,0-.3-.1-.4-.2.1-.2.2-.4.4-.5.4-.4.4-.9.5-1.4,0-.1-.5-.3-.7-.5-.1,0-.2-.1-.4-.2Z"/>
    <path d="M111.4,154.6c-.5-.3-.9-.6-1.3-1-.2-.1-.3-.3-.4-.5,0,0,.2-.4.3-.4.3,0,.6.1.7.3.3.4.4.1.6-.1,0-.2.1-.4.1-.6,0-.8.9-1.2,1.6-.8.1,0,.3.2.4.1.8-.2.6.6.5.7-.5.4,0,.9-.2,1.3-.2.3-.2.9-.4,1-.4.3,0,.5-.1.8.3,0,.5,0,.8,0,.2,0,1.1.3,1,.3-.2.2-.5.5-.7.5-.6,0-1.2-.1-1.8,0-.3,0-.6.2-.8.3.1.2.2.6.4.6.6.2,1.3.2,1.9.3.3,0,.6.3.9.5,0,0,0,0,0,0,.1,0,.2.1.4.2-.2,0-.4.1-.6.2-.5,0-1.1,0-1.5-.2-.4-.1-.9-.3-1.3-.2-.5,0-.6-.4-.9-.6-.1,0-.1-.4-.2-.5,0-.2-.2-.3-.3-.5.3-.2.6-.3.9-.5.3-.2.8-.2.6-.7,0-.2-.3-.3-.5-.5M112.8,153.3c-.1-.3-.2-.6-.4-.9-.2.2-.3.3-.5.5,0,0,0,.2,0,.3.1.2.2.3.4.5.1.2.3.4.4.6,0-.2,0-.4,0-.6,0,0,0-.1,0-.3Z"/>
    <path d="M15.1,191.2c.4-.3.5-.6.6-1.1,0-.3.1-.7.1-1,0-.8-.2-1.5-.5-2.1-.4-.7,0-1.2.2-1.7.4-.7,1-1.2,1.9-1.1.5-.6.9,0,1.3,0,.1,0,.2.2.3.3-.1,0-.3.2-.4.3-.4.4-1,.1-1.4.2-.4,0-.8.2-.8.6,0,.2.1.5.2.6.4.4.2.7,0,1.2-.2.4-.2,1,.2,1.4.4.4.7.9.8,1.4,0,.4,0,1-.3,1.3-.2.2-.6.6-1.1.3-.5.7-1.3-.2-1.9.2,0,0-.3-.2-.5-.3.2-.2.3-.4.6-.6.1-.1.4,0,.6-.1Z"/>
    <path d="M116.3,107c-.8,0-1.6-.2-2.5-.3,0,0-.2,0-.3,0-.5.2-.8-.2-1.2-.4,0,0,0-.1,0-.1.4-.2.8-.6,1-.5.5.2,1,0,1.6,0,.8,0,1.7,0,2.5.1,0,0,.1,0,.2,0,0,0,0-.2,0-.2-.4-.2-.7-.4-1.1-.6-.4-.2-.8-.5-1.3-.8,0,0,0,0,0-.1.2-.5,1.2-1,1.8-.9.3,0,1,.8.9,1.1-.1.7.1,1.2.6,1.6.2.2.4.6.4.9,0,.3-.7.6-1.1.4-.3-.1-.6-.3-.9-.4-.2,0-.5,0-.8,0Z"/>
    <path d="M122.4,45.5c.6.6.8.5,1.3-.3,0-.1.2-.4.3-.4.2,0,.4.1.5.2-.1.2-.2.4-.3.6-.2.3-.5.5-.6.7-.1.4-.2.8.1,1.3.2.3.2.8,0,1.1-.2.6.5.2.5.5.4,0,.8-.1,1.1-.1.3,0,.6.3.9.4,0,0,0,.2,0,.3-.2.1-.4.3-.6.3-.6,0-1.2,0-1.7.1-.6,0-1,0-1.3-.7-.2-.5-.5-.9-.7-1.3,0,0-.1-.2-.2-.2,0,0,.2,0,.2-.2,0-.5.1-.9.2-1.4,0-.1-.1-.3-.2-.4-.8-.3-.1-.7,0-1,0-.2.3-.1.7.3Z"/>
    <path d="M12.1,73.4c-.2.4-.4.6-.8.2-.2-.2-.5-.3-.7-.4,0,0-.1,0-.1,0,0,0-.1.2-.1.3.2.5.4,1,.7,1.5.2.6.5,1.1.7,1.7,0,0-.3.4-.4.3-1-.4-1.8-1-2.1-2.1-.2-.5-.2-.8.2-1.1.3-.3,0-.8-.6-.9-.3,0-.6,0-.9-.1-.3,0-.6-.2-.8-.4,0,0-.1,0-.2,0,0,0,0,0,.1,0,1.1,0,2.2,0,3.3,0,0,0,.2,0,.3,0,.6-.2,1.1,0,1.6.4.2.2.3.5,0,.6,0,0,0,0,0,0,0,0,0,0,0,0Z"/>
    <path d="M10.8,102.2c-.1-.8.1-1.5.8-1.9,0,0,0,0,.1,0,.7,0,1.4.1,2,.5.2.1.3.5.2.7-.1.5.3.8.3,1.2,0,.2,0,.5.1.7-.1,0-.3,0-.4,0-.2,0-.5.3-.7.2-1,0-1.9-.3-2.5-1.2,0,0,0-.1,0-.2M12.3,101.6c0,0,0,.2,0,.2,0,0,0,0,.1.1,0-.1,0-.2,0-.3Z"/>
    <path d="M10.6,66.5c-.3.5-.2,1.3.2,1.6.3.2.7.5,1.1.4.1,0,.2.1.4.2-.1,0-.2.1-.4.2-.2,0-.4.1-.6.2-.4.1-.8.3-1.1.3-.2,0-.7-.2-.7-.4,0-.5-.1-1.1.1-1.4.3-.4.1-.5,0-.6-.2-.1-.5,0-.7-.1-.2-.1-.3-.4-.5-.6-.2-.2,0-.4,0-.6,0-.2,0-.4,0-.6-.1-.5.2-1.3.8-1.5.1,0,.5.3.6.5.1.4.2.8.2,1.2,0,.3,0,.5.4.6.2,0,.3.4.4.7Z"/>
    <path d="M112.5,172.5c0,.6-.1,1.2-.2,1.7,0,.1.2.2.3.3.2.3.4.6.7.9,0,0,.1.2.2.3-.2,0-.4.1-.6,0-.6-.3-1.2-.7-1.9-1.1-.6-.3-.8-.8-.8-1.5,0-.2-.2-.3-.2-.5,0-.5.3-.9.9-1,.7-.1,1.2.2,1.7.7Z"/>
    <path d="M34,3.4c0,.1.1.2.2.2-.1,0-.2.1-.3.1-.5-.3-1.1-.1-1.6-.5-.2-.1-.6,0-.9-.3-.2-.3-.6-.5-.7-.8-.1-.3-.1-.7-.1-1,0-.4.1-.4.5-.3.3,0,.6,0,.8,0,.6,0,1.2,0,1.8-.1.1,0,0,0,0,.1-.1.6-.3,1.2-.3,1.9,0,.2.4.4.5.6Z"/>
    <path d="M13.8,157.2c-.1-.5-.1-.5.3-.4.2,0,.5,0,.7-.1.5-.1,1-.2,1.5-.4,0,0,.2,0,.2,0,0,.1,0,.3-.2.4-.3.4-.3.4.2.7.3.2.6.7.8,1,0,0,0,.2-.2.2-.3,0-.6,0-.8.2-.5.4-.7.2-1.2,0-.4-.3,0-.4,0-.4-.2-.3-.4-.6-.6-.8-.2-.2-.5-.3-.9-.4Z"/>
    <path d="M10.6,61.6c.3,0,.6,0,.8-.1.5-.2.7,0,.7.5,0,.6-.8.9-1.4.7-.2,0-.3,0-.5,0-.8-.1-1.7-.2-2.5-.4-.2,0-.5-.1-.7-.2,0,0,0-.2,0-.3.4-.1.7-.3,1.1-.3.4,0,.8.2,1.2.3.4,0,.8,0,1.3,0Z"/>
    <path d="M25.8,3.3c.1,0,.2,0,.3,0,.2,0,.4.2.6.3-.3.2-.6.4-.9.5-.2.1-.5,0-.7.2-.8.6-1.2-.2-1.8-.5-.2-.2-.5-.3-.7-.5-.3-.3-.5-.6-.8-.9,0,0,0,0,.1,0,.8,0,1.4.2,2.1.6.5.3,1.1.6,1.8.3Z"/>
    <path d="M112.2,170.7c-.6,0-1.2.2-1.8.2-.3,0-.7.2-.6-.4,0-.5.4-.8.9-.8.9,0,1.7,0,2.6,0,.2,0,.4.4.7.6-.1.1-.3.3-.4.3-.4,0-.8,0-1.3.1Z"/>
    <path d="M119.5,63.6c.5-.2,1-.3,1.4-.5.3-.1,1.9.3,2.1.5.1.1.3.2.3.4.2.6-.6.5-.6.5-.5,0-1-.2-1.4-.3-.4,0-.7,0-1.1,0-.2,0-.5,0-.7.1-.1,0-.3,0-.4,0,.1-.1.3-.2.4-.4,0,0,0,0,0-.2Z"/>
    <path d="M15.1,121.2c.3.2.6.5.9.7,0,0,0,.2,0,.2-.2,0-.4.1-.5.1-.3,0-.6-.2-.9-.4-.6-.2-1.3,0-1.9-.1-.4,0-.7,0-1.1-.2,0,0-.2-.3-.2-.5,0-.5.6-.5.8-.4.3.3.6,0,.8.1.2,0,.4.1.6.2.1,0,.3,0,.4,0,.4-.4.7.2,1.1,0,0,0,0,.1,0,.1Z"/>
    <path d="M120.7,66c-.3.2-.5.4-.8.3-.4,0-.8-.2-1.1-.3,0,0-.1,0-.2,0-.2-.1-.4-.2-.6-.3.3-.1.6-.3.9-.3.9-.1,1.9-.2,2.9-.3.4,0,.8.2,1.2.3,0,0,0,.2,0,.2-.3.3-.5.7-1,.2-.2-.2-.8,0-1.2.2Z"/>
    <path d="M106.8,203.6c-.4.2-.8.3-1.3.4-.6,0-1.1,0-1.7,0-.1,0-.2,0-.3,0-.3,0-.5-.2-.8-.3.2-.2.4-.4.7-.5.4,0,.9,0,1.3,0,.7,0,1.3-.3,1.9-.5.2,0,.3-.1.5-.2,0,.2.2.4.1.6,0,.1-.3.2-.5.3Z"/>
    <path d="M38.1,206c.8,0,1.6,0,2.3.2,0,0,.2,0,.2.1,0,0-.1.2-.2.2-.8.2-1.6.4-2.5,0-.7-.3-1.5-.5-2.1-1-.1-.1-.2-.3-.3-.5.2,0,.5,0,.7,0,.6.2,1.2.5,1.7.8,0,0,0,.1.1.2Z"/>
    <path d="M58.4,203.8c-.2,0-.5.1-.6,0-.1-.2-.2-.4-.2-.7.1,0,.2,0,.3,0,.4,0,.8-.1,1.2-.1.5,0,1,0,1.4.1.3,0,.5.4.8.6-.2.2-.5.5-.5.4-.4-.4-.9,0-1.3-.1-.3,0-.7-.1-1.1-.2Z"/>
    <path d="M64.5,95.8c-.9,0-1.8.2-2.7.2,0,0-.2,0-.3,0,0,0,.1-.1.2-.2.2-.2.3-.4.5-.5.6-.5,1.4-.1,2.1-.2,0,0,.2.5.2.8Z"/>
    <path d="M11.1,70.1c0,.2,0,.4-.2.6-.2.3-.4.6-.9.3-.3-.2-.6-.2-.9-.3-.1,0-.2-.4-.2-.6.4,0,.5-.5,1-.3.3.2.8.1,1.2.3Z"/>
    <path d="M112.8,148.6c-.2-.1-.3-.2-.4-.4.3-.2.6-.4.9-.5.2,0,.4-.2.5-.1.4,0,.9.2,1.3.4.1,0,0,.5.1.7-.2,0-.4,0-.5,0-.6-.5-1.2,0-1.8-.2,0,0,0,.1-.2.2Z"/>
    <path d="M41.9,3.1c.4-.4.6.1.9.2,0,0,0,.3,0,.3-.6.2-1.2.4-1.8.5-.2,0-.5-.1-.6-.3,0-.1,0-.5.2-.6,0-.1.5-.1.5,0,.4.4.6,0,.9,0Z"/>
    <path d="M37.5,150.5c0,.2,0,.3,0,.4.4.6.7,1.1.5,1.9,0,.1,0,.3,0,.4,0-.1-.2-.2-.3-.4-.2-.4-.4-.8-.5-1.2-.1-.3-.2-.6-.3-1,0-.1.1-.3.2-.4.1,0,.3.2.4.3Z"/>
    <path d="M112.4,159.9c-.3,0-.6.2-.9.3-.3,0-.3,0-.3-.3,0,0,0-.2,0-.3,0-.5.7-.9,1.2-.7.1,0,.3,0,.4.2.1,0,.3.3.3.4-.2.2-.4.4-.6.5Z"/>
    <path d="M33.5,197.5c.6,0,1.2.7,1.2,1.1,0,.1-.2.2-.3.3,0,0-.2,0-.3,0-.5-.4-1-.8-1.4-1.2,0,0,0-.3-.1-.4.1,0,.3,0,.4,0,.2,0,.4.2.6.3Z"/>
    <path d="M97.4,6.4c.2-.2.3-.5.7,0,.1.1.4.1.6.2.4,0,.8.2,1.3.3.4,0,.1.2,0,.3-.3.2-1.3.3-1.6,0-.2-.1-.4-.1-.5-.2-.1-.1-.2-.3-.4-.5Z"/>
    <path d="M111.6,192.9c-.4-.3-.8-.6-1.1-.8,0,0,0-.2.2-.2.5-.2,1.6.3,1.8.8,0,.2.1.3.2.5-.2,0-.4-.1-.7-.2-.1,0-.2,0-.4,0Z"/>
    <path d="M42.4,197.9c-.5,0-.9-.2-1.4-.3,0,0-.2-.2-.1-.2,0,0,.1-.2.2-.2.4-.1.7-.3,1.1-.3.3,0,.6.2.9.2,0,0,0,.2,0,.2-.2.2-.4.3-.7.5Z"/>
    <path d="M110.9,124.1c-.3,0-.6,0-1-.1,0,0-.2-.2-.2-.4,0-.1.1-.4.1-.4.6,0,1.2.2,1.8.3.1,0,.3.3.3.4,0,.1-.2.3-.4.3-.2,0-.4-.1-.5-.2,0,0,0,0,0,0,0,0,0,0,0,0Z"/>
    <path d="M114.1,150.4c-.6,0-1.1-.1-1.5-.3-.1,0-.1-.5-.1-.8,0,0,.4-.1.6-.1.3,0,.7,0,.9.3.2.2.2.6.2.9Z"/>
    <path d="M110.3,167.6c-.5-.3-.2-.9,0-1.1.2-.2.7,0,.8.3,0,.1,0,.4,0,.6,0,.2,0,.3-.1.5,0,.2,0,.3,0,.5-.2,0-.4-.1-.5-.2-.1-.1-.1-.3-.1-.5Z"/>
    <path d="M60.5,3.8c.3-.3.4-.6.9-.4.3.1.5.3.8.3.5,0,.5.2.3.5,0,.1-.4.2-.6.1-.4,0-.8,0-1.1-.1,0,0-.2-.2-.2-.3Z"/>
    <path d="M82.1,5.6c-.8,0-1.5,0-2.2-.1,0,0-.1,0-.2-.1,0,0,0-.1,0-.1.4,0,.8,0,1.1,0,.4,0,.8,0,1.2,0,.2,0,.4.1.4.2.1.4-.2.3-.5.3Z"/>
    <path d="M18.2,135c-.4,0-.7.1-1.1.1-.1,0-.2-.2-.4-.3.3-.2.6-.4.9-.5.2,0,.5,0,.7,0,0,.2,0,.4-.2.6Z"/>
    <path d="M109.1,174.7c-.2,0-.3-.2-.3-.3-.1-.3-.2-.7-.3-1,0,0,.2-.2.2-.3,0,.1.2.2.3.3.1.3.3.5.4.8,0,.1-.1.3-.2.4Z"/>
    <path d="M50.3,4.7c0,.1,0,.2,0,.3,0,0,0,.2.1.3,0,0-.2.1-.2.1-.6,0-.8-.4-.7-1,0-.1,0-.3.1-.4.2.2.3.4.5.5,0,0,.1.1.2.2Z"/>
    <path d="M75.2,135.1c0,.2,0,.5,0,.6,0,.2-.2.3-.3.4-.1,0-.3,0-.5,0,0-.2,0-.4,0-.6,0-.2.2-.5.3-.7,0,0,.1-.1.2-.2,0,0,0,.2.1.2,0,0,0,0,.2.2Z"/>
    <path d="M111.7,260.5c-.5,0-1.1-.1-1.6-.2,0,0,0-.1,0-.1.1-.1.3-.4.4-.4.4,0,.9.2,1.3.3,0,0,0,.3,0,.4Z"/>
    <path d="M76.6,61.3c-.4,0-.7-.1-1-.2,0,0,0-.2,0-.2.4-.1.8-.3,1.2-.4,0,0,.2.3.2.4,0,.2-.3.3-.5.4Z"/>
    <path d="M95.1,6.2c-.4,0-.8.1-1.1.2,0-.2,0-.4,0-.5.4-.1.8-.2,1.2-.3,0,.2,0,.4,0,.6Z"/>
    <path d="M119.6,118.1c0,0,.1.1.2.2-.3,0-.6.2-.9.3-.3,0-.9-.4-.7-.6.1-.2.6-.1.9,0,.2,0,.3.1.6.3Z"/>
    <path d="M60.9,57.8c0-.2-.2-.4-.2-.6,0-.2,0-.4,0-.6,0,0,.2,0,.3,0,.3,0,.6.8.3,1.1-.1.1-.3.2-.5.2Z"/>
    <path d="M56.3,198.1c-.3,0-.5,0-.8,0,0,0,0-.2,0-.2.2,0,.5-.2.7-.2.2,0,.4.2.6.3.1,0,.2,0,.4,0-.1.1-.2.3-.4.4-.1,0-.3-.2-.5-.2Z"/>
    <path d="M109.8,159.5c.1.2.3.3.3.4,0,.1,0,.3,0,.5,0-.1-.1-.2-.2-.3-.4-.2-.7-.5-1.1-.7,0,0-.1-.1-.2-.2,0,0,.2,0,.2,0,.3,0,.6.2.9.4Z"/>
    <path d="M114.4,165.2c.2,0,.3,0,.5,0-.1.2-.2.4-.4.6,0,0-.2,0-.3,0-.2-.1-.4-.2-.7-.4,0,0,0-.2,0-.2.2,0,.5-.1.8-.2Z"/>
    <path d="M12.3,124.1c0,.4.1.9-.5.8-.1,0-.2,0-.4,0,.1-.3.3-.6.4-.9,0,0,.3,0,.5.2Z"/>
    <path d="M62.9,132.6c.2.2.4.4.5.6,0,0-.2.4-.3.4-.3-.1-.6-.2-.7-.5-.1-.2,0-.5.4-.7,0,0,0,.1.1.2Z"/>
    <path d="M38.8,203.1c.2,0,.4-.1.5,0,.1,0,.3.1.3.2,0,.1,0,.3,0,.4-.1,0-.3,0-.5,0-.2,0-.3-.1-.5-.2-.1,0-.2-.2-.3-.3.2,0,.3,0,.5,0Z"/>
    <path d="M65.8,90.4q.3-.3.5-.1s0,0,0,0c.6.2.3.6.2.9,0,0-.1.1-.2.2,0,0-.1-.1-.2-.2-.2-.2-.4-.5-.5-.7,0,0,0,0,0,0,0,0,0,0,0,0Z"/>
    <path d="M76.2,94.2c-.5-.5-.4-.6.1-.8,0,0,.2,0,.2,0,.1.3.2.6.3.9-.2,0-.4,0-.6,0Z"/>
    <path d="M112.2,135.4c0,0-.1.1-.2.2-.1,0-.3-.2-.3-.3,0-.2,0-.5,0-.7,0-.1.3-.3.3-.2.1.1.3.3.3.4,0,.2,0,.4-.1.6Z"/>
    <path d="M122.2,81.7c0,0,.2.1.2.2-.3,0-.5,0-.8,0-.1,0-.3-.1-.4-.2.2-.2.4-.3.7-.5,0,0,.2-.1.2-.2,0,.2,0,.4,0,.6Z"/>
    <path d="M78.9,143.1c-.2,0-.3,0-.5,0,.1,0,.2-.2.3-.2.4,0,.7,0,1.1.2,0,0,0,.2,0,.3,0,.1-.2.3-.2.3-.2-.1-.5-.3-.7-.5Z"/>
    <path d="M15.4,211.8c0-.1,0-.2,0-.2,0,.5.1.9.2,1.4,0,0-.1.2-.2.2-.1,0-.3,0-.4,0,0,0,.1-.1.1-.2,0-.3.1-.7.2-1Z"/>
    <path d="M43.8,79.8c0-.2,0-.4,0-.6.2.1.5.2.7.4,0,.1,0,.4-.1.6-.2-.1-.3-.2-.5-.4Z"/>
    <path d="M73.9,206.3c0,0-.1-.2-.2-.2-.1,0-.3-.2-.4-.2,0-.1.2-.3.3-.4.2,0,.4,0,.5,0,.2,0,.2.3.4.4-.2,0-.3.1-.5.2,0,0,0,0,0,.2Z"/>
    <path d="M64.3,55.1c.2,0,.3-.3.3-.2.1,0,.2.1.3.2,0,0-.2,0-.3,0-.4.2-1.1.3-1.4.2,0,0,0-.1,0-.2.3,0,.7,0,1,0Z"/>
    <path d="M125,23.2c0-.1,0-.3,0-.3.2-.1.4-.2.6-.3,0,.1,0,.2,0,.3,0,.1,0,.3,0,.4-.1.2-.3.3-.5.5,0-.2,0-.3,0-.6Z"/>
    <path d="M52.9,48.5c.1.1.2.2.4.2,0,0,.1.1.2.2,0,0-.1,0-.2,0-.3,0-.5.3-.8,0,0,0-.1,0-.2,0,0-.2.1-.4.2-.6,0,0,.1.1.2.2,0,0,.1,0,.2,0Z"/>
    <path d="M18.4,206.5c0,0-.2,0-.2-.1,0,0,.2-.2.3-.2.4.2.7.3,1.1.5,0,0,0,.1-.1.1-.4.2-.7,0-1-.4Z"/>
    <path d="M15.3,119.9c0,.2-.1.4-.2.4-.2,0-.3-.1-.5-.2,0-.1,0-.3.2-.3.2,0,.4,0,.6-.1.1,0,.2-.1.3-.2-.1.1-.3.3-.4.4Z"/>
    <path d="M15.8,96c0,.2,0,.4,0,.5,0,.1,0,.3,0,.4-.1-.1-.3-.2-.4-.3,0-.2-.2-.4-.1-.6,0-.1.3-.2.4-.3,0,0,0,.1,0,.2Z"/>
    <path d="M113.6,185c-.2-.1-.3-.1-.5-.2.1-.1.3-.3.4-.3.3,0,.5.2.8.4,0,0,0,.2-.1.2-.2,0-.4,0-.6,0Z"/>
    <path d="M117.6,75.1c0,.3,0,.5,0,.8,0-.2-.1-.5-.2-.7,0,0,0,0,0-.1,0-.3,0-.6,0-.8,0,.3.1.6.2.9Z"/>
    <path d="M86.3,131.7c-.2-.1-.4-.3-.6-.4,0,0,.1-.2.2-.2.2,0,.4,0,.6.1.1,0,.2.2.3.3-.1,0-.2,0-.3,0,0,0,0,.1,0,.2Z"/>
    <path d="M56.8,51.8c.1-.1.3-.2.4-.3,0,.2,0,.4-.1.5,0,.1,0,.3,0,.4,0,0,0,0,0,.1-.1-.2-.3-.4-.4-.6,0,0,.2,0,.3-.2Z"/>
    <path d="M5.7,40.7c0,.1,0,.2,0,.2-.1-.3-.3-.6-.4-.9,0,0,.2-.2.3-.3,0,.1.1.2.2.3,0,.2,0,.3,0,.6Z"/>
    <path d="M100.3,206.7c-.1,0-.3.2-.4.2-.1,0-.4,0-.4-.2,0,0,0-.4.1-.4.1,0,.3,0,.4.1,0,0,.2.1.3.3Z"/>
    <path d="M14.5,232.7c-.2-.1-.3-.3-.5-.4.2-.2.3-.3.5-.5,0,.1.2.2.2.3,0,.2,0,.4-.2.6Z"/>
    <path d="M115.5,98c.2.3,0,.5-.2.6,0,0-.3-.1-.3-.2-.1-.4.1-.5.5-.4Z"/>
    <path d="M112.8,227c0-.1,0-.2-.1-.3,0-.1-.2-.2-.3-.3,0,0,.2,0,.2,0,.2.2.4.3.5.5,0,0-.1.2-.2.3,0,0,0,0-.1-.2Z"/>
    <path d="M52.4,137.4c-.2-.2-.5-.3-.7-.4,0,0,0,0,0,0,.2,0,.4,0,.6,0,.1,0,.2,0,.4.1,0,0,.1.1.2.2-.1,0-.2.2-.4.2Z"/>
    <path d="M125.7,57.7c0,0,0,0,0,.1-.1,0-.3.2-.4.3,0-.2-.2-.3-.2-.5,0,0,0-.2,0-.3,0,0,.1.1.2.2.1,0,.3.1.4.2Z"/>
    <path d="M52,94.2c0-.3,0-.4,0-.6,0,0,.1,0,.1,0,0,.3.1.5.2.8,0,0-.2.1-.2.2,0-.1,0-.2,0-.4Z"/>
    <path d="M107.4,189.8c0,0,0,0,0,0,.3,0,.5,0,.8,0,0,0,0,.1.1.2-.3,0-.6,0-1-.1Z"/>
    <path d="M5.3,45.9c0,0-.1,0-.2,0-.2,0-.3,0-.5,0,0-.1,0-.2,0-.3.3,0,.6.1.8.2,0,0-.1,0-.2,0Z"/>
    <path d="M10.2,52c.3.4.2.5-.2.5,0,0-.2,0-.3-.1.2-.1.3-.3.5-.4Z"/>
    <path d="M115.1,154.4c0,0-.1,0-.1-.1,0-.2.1-.4.2-.7.1.2.2.4.3.7-.1,0-.2,0-.4.1Z"/>
    <path d="M16.2,126.7c.2.1.4.2.5.3,0,0,0,.1,0,.2-.2-.1-.5-.2-.7-.4,0,0,.1-.1.3-.2Z"/>
    <path d="M120.7,97.9c-.1,0-.3,0-.4,0-.1,0-.2-.1-.4-.2.1,0,.3,0,.4,0,.1,0,.3,0,.4,0,0,0,0,0,.1.1,0,0-.1,0-.3.1Z"/>
    <path d="M48.2,4.4c0,0-.2,0-.2.1,0-.2,0-.5-.1-.7,0,0,0,.1.1.2,0,0,0,0,0,0,.1,0,.3,0,.4,0,0,.1-.2.3-.3.4Z"/>
    <path d="M66.6,135.7c0,.1,0,.2,0,.2,0,.2,0,.3,0,.5-.1-.2-.2-.4-.3-.5.1,0,.2-.1.3-.1Z"/>
    <path d="M112.5,120.1c-.1,0-.2-.1-.3-.2.2,0,.3-.1.5-.2,0,0,0,.1.1.2-.1,0-.2.1-.4.2Z"/>
    <path d="M16.5,139.4c0-.3,0-.5.1-.7.1,0,.3.2.3.2,0,.2-.2.3-.3.5,0,0,0,0,0,0,0,0,0,0,0-.1Z"/>
    <path d="M62.2,44.3c0,0,.2,0,.2-.1,0,.2,0,.4-.2.6,0,0-.2,0-.2,0,0-.1,0-.3-.1-.4,0,0,.2,0,.3,0Z"/>
    <path d="M79.1,73.8c0-.3-.2-.5,0-.7,0-.2.4,0,.3.3,0,.1,0,.3-.1.4,0,0,0,0,0,0Z"/>
    <path d="M109.1,165.8c0,.1-.2.3-.3.4,0,0,0,0-.1,0,0-.1,0-.3,0-.4,0,0,.2,0,.3,0,0,0,0,0,0,0,0,0,0,0,0,0Z"/>
    <path d="M11.5,41.3c0-.2,0-.3-.1-.5.1,0,.2,0,.3,0,0,.2-.1.3-.2.5Z"/>
    <path d="M13.2,172.2c.1.1.2.3.3.5-.1,0-.3,0-.3,0,0-.1,0-.3,0-.5Z"/>
    <path d="M14.4,86.3c0-.1,0-.2,0-.3,0-.1.1-.2.2-.4,0,.1,0,.2,0,.3,0,.1.2.5-.3.3Z"/>
    <path d="M18.5,5.4c-.2,0-.3,0-.5,0,0-.1.1-.2.2-.3.1.1.2.2.4.3Z"/>
    <path d="M13.6,175.4c-.1.1-.2.3-.3.2-.1,0-.2-.1-.4-.2,0,0,.2-.1.3-.1.1,0,.2,0,.3,0Z"/>
    <path d="M15.7,90.6c0,0,.2,0,.2,0,.1,0,.2.2.3.3,0,0,0,0,0,.1-.1,0-.2,0-.3-.1,0,0-.2-.1-.2-.2Z"/>
    <path d="M89.4,142c.1-.1.1-.2.2-.4.1.1.2.2.3.3-.2,0-.4.1-.6.2,0,0,0,0,0,0,0,0,0,0,.1,0Z"/>
    <path d="M44.3,197.7c0,0,0,.1,0,.2,0,0-.1,0-.2,0-.1,0-.2,0-.3-.2,0,0,0-.1-.1-.2.2,0,.4,0,.6,0,0,0,0,0,0,0,0,0,0,0,0,.1Z"/>
    <path d="M76.5,5.3c0,0,.2-.2.2-.2,0,0,0,.2,0,.2,0,.1-.2.2-.3.3,0,0-.1,0-.2.1,0-.1.1-.2.2-.4Z"/>
    <path d="M8.4,39.9c0,0,0,0,0,0,.2,0,.3.1.5.2,0,0-.1.1-.1.1-.2,0-.3-.2-.5-.3Z"/>
    <path d="M91.6,142.1c0-.1,0-.2,0-.3.1,0,.3.1.4.2-.1,0-.3.1-.5.2Z"/>
    <path d="M5.9,67.9c.2,0,.3.1.4.2,0,0,0,0-.1,0-.2,0-.3-.1-.5-.2,0,0,.1,0,.2,0Z"/>
    <path d="M76.9,120c0-.1,0-.2.2-.2,0,.1.2.2.2.3-.1,0-.2,0-.4,0Z"/>
    <path d="M110.1,138.2c.2,0,.3.2.4.2,0,0,0,0-.1,0-.1,0-.2-.2-.3-.3Z"/>
    <path d="M58.5,55.9c0,0,.1,0,.2,0,.1,0,.2,0,.4,0-.1,0-.2.2-.4.2,0,0-.1-.2-.2-.2Z"/>
    <path d="M62.8,46.8c.2,0,.3,0,.5-.1,0,0,0,.1,0,.1-.1,0-.3,0-.4,0Z"/>
    <path d="M115.9,72.2c.1,0,.2-.1.4-.1,0,0,0,0,0,.1-.1,0-.3,0-.5,0Z"/>
    <path d="M18.5,5.5c.1,0,.3.1.4.2,0,0,0,0,0,.1-.1-.1-.2-.2-.3-.3Z"/>
    <path d="M20.1,206.8c.1,0,.2.1.2.2-.2,0-.3,0-.5-.1,0,0,.1,0,.2,0Z"/>
    <path d="M37.9,129.9c0,0-.1.2-.2.2,0,0,0,0,0,0,0,0,.2-.1.3-.1Z"/>
    <path d="M91.2,142.1c0,0,.1-.1.2-.2,0,.1,0,.2,0,.3,0,0-.1,0-.2,0,0,0,0-.1.1-.2Z"/>
  </g>
</svg>