<?xml version="1.0" encoding="UTF-8"?>
<svg id="Layer_1" xmlns="http://www.w3.org/2000/svg" version="1.1" viewBox="0 0 182.4 393.9">
  <!-- Generator: Adobe Illustrator 29.3.1, SVG Export Plug-In . SVG Version: 2.1.0 Build 151)  -->
  <g id="Shape_120">
    <path d="M180.8,0c.3,0,.5,0,.9,0,.4.5,1.1.7.4,1.5-.4.5-.6,1.4-.6,2.1-.1,2.3,0,4.5.3,6.7.1.9.3,1.9.3,2.8,0,1,0,2-.2,3,0,.4-.1.8,0,1.2.2,1.2.5,2.3.5,3.5,0,3.3-.2,6.7-.3,10,0,2.3-.3,4.5-.3,6.7,0,4.4,0,8.8,0,13.2,0,3.4-.3,6.9-.3,10.3-.1,25.5-.2,51.1-.3,76.6,0,2.2,0,4.4,0,6.6,0,5.2-.2,10.5-.3,15.7,0,2.7-1,5.6.5,8.1s.4,1.5,0,2.3c-1.1,2.5-.3,5.3-.3,7.9s-.2,4-.3,5.9c0,.5-.6,1-.6,1.5,0,2,.2,4.1.3,6.1.4,6.7-.2,10-.3,20.5-1,2.5,0,4.5,0,4.6,0,8.9-.1,14.2,0,21.3,0,2.5.2,5,.3,7.5,0,1.1-.3,2.3-.3,3.4,0,1.6.5,3.2.6,4.8,0,2.1-.1,4.2-.3,6.3-.1,1.5-.5,3-.6,4.4,0,.9.3,1.8.3,2.6,0,3.9-.3,7.7-.3,11.6,0,2.9.4,5.8.6,8.7,0,.8-.3,1.6-.2,2.4,0,1.2.5,2.3.5,3.5,0,2.6,0,5.3-.4,7.9-.2,1.2-.1,2.3-.3,3.5,0,.5-.6,1-.5,1.3.7,2.7-.1,5.4.5,8.1.3,1.4-.2,2.9-.2,4.4,0,7.9.3,15.8.3,23.8,0,2.7-.4,5.3-.3,8.1.3,5.5-.1,11,.3,16.5.3,4.9-.2,9.8-.3,14.7s0,.3,0,.4c-.8,1.7-.8,3.4-.2,5,.5,1.5-.9,4.3-2.4,4.4-2.4.2-4.7.2-7.1.3-.5,0-1-.1-1.6,0-1.5.1-3,.3-4.5.4-.5,0-1-.3-1.5-.2-1.4.1-2.9.5-4.3.6-2.5,0-5,0-7.5,0h-11.1c-6.4,0-12.8,0-19.2,0-3.4,0-6.8.2-10.3.3-3.5,0-6.9,0-10.4,0-1.4,0-2.7-.3-4.1-.3-2.8.1-5.6.6-8.3.6-6.6,0-13.2-.2-19.9-.3-3.3,0-6.6.2-9.9.3-.8,0-1.6-.2-2.5-.3-.7,0-1.5,0-2.2,0-1.8.3-3.6.8-5.5.9-1.2,0-2.3-.8-3.5-.8-1.9,0-3.9.2-5.8.2-4,.1-7.9.3-11.9.3-1.5,0-3-.6-4.4-.2-4.7,1.2-9.3.4-14,.1-1.9-.1-3.8-.3-5.4.3-1.5.5-1.8-.8-1.8-1.1,0-3,0-6,0-9.1,0-1.3-.3-2.6-.4-3.9,0-3.4,0-6.8,0-10.3C.1,367.9,0,366.8,0,365.6c0-1.4,0-2.7,0-4.1.4-1.4.7-2.7.9-4,.1-1.4,0-2.9,0-4.3,0-.3.2-.6.2-.9,0-2.4,0-4.8-.1-7.1,0-1.4-.9-2.8-.6-4.1.3-1.6-.2-3.2.9-4.7s.2-.4.2-.6c-.8-4.6-.4-9.3-.1-14,.2-3.2.6-6.4.6-9.6,0-5.5-.2-11.1-.3-16.6,0-1.9.2-3.8.3-5.7,0-2.2,0-4.4,0-6.6,0-.8.4-1.5.5-2.3.1-1.2,0-2.3.1-3.5,0-1.3.6-2.7.2-3.8-.8-2.6-.9-5.3-.9-8,.1-8.6.3-17.2.5-25.8s0-.5,0-.7c.5-4.4.4-8.9.5-13.3,0-1.6.3-3.3.3-4.9,0-2.5-.5-5.1-.6-7.6-.1-2.4.3-4.8.9-7.1.4-1.5,0-3.1,0-4.6.2-3.3.6-6.7.6-10,0-3.8-.5-7.5-.6-11.3,0-4.9.2-9.7.3-14.6,0-.7.6-1.3.6-2,0-2.1-.2-4.3.1-6.4.3-1.7,0-3.3-.3-4.9-.2-1.3-.3-2.6-.4-4,0-.7.3-1.4.3-2.1,0-2.9,0-5.8,0-8.7s0,0,0,0c.6-2.2.6-4.4.7-6.7,0-1,.6-2,.6-3,0-2.5-.5-5-.5-7.4,0-1.8.3-3.7.3-5.6,0-1.3-.3-2.5-.3-3.8,0-1.2.3-2.4.3-3.6,0-1.6-.3-3.3-.3-4.9,0-2.5,0-5,.3-7.4.4-3.1.2-6.2.3-9.4,0-1.1.6-2.2.6-3.3,0-2.3-.2-4.7-.3-7,0-.8,0-1.7,0-2.5,0-.8-.4-1.6-.3-2.3.7-3.8-.2-7.6.6-11.4.3-1.7-.2-3.6.1-5.3.3-1.7.5-3.2.3-5-.4-4.2-.3-8.5-.4-12.7,0-1.1.3-2.2.3-3.3,0-1.1-.6-2.2-.6-3.3,0-3.9.2-7.9.3-11.8s0,0,0,0c.3-1.7.8-3.4.9-5.2.1-1.5,0-3,0-4.5,0-1,.3-2,.3-3,0-2.5.6-3.2,3.1-3.1,1.7,0,3.5.3,5.2.2,2.6-.2,5.1-.7,7.6-.9,1.7-.1,3.5.3,5.2.3,3.2-.1,6.4-.4,9.7-.6.7,0,1.5.3,2.3.2,2.5-.2,4.9-.8,7.3-.8,23.2,0,46.4.2,69.7.2.2,0,.3-.4.5-.6M118.1,0c.5,0,1,0,1.5,0,.8,0,1.6,0,2.4,0,.8,0,1.6,0,2.5,0,.2.2.4.5.5.5,3.9,0,7.8-.2,11.7-.3,1.7,0,3.4.3,5,.3,1.7,0,3.3-.4,5-.6,4.7,0,9.4,0,14.2,0M60.7,308.1c3.9.1,7.7.3,11.6.3,1.7,0,3.5-.2,5.2-.3.7,0,1.4.5,2,.3,2.5-1,5-.6,7.5-.4.3,0,.8-.5.8-.7,0-2.8,0-5.6.1-8.3,0-1.2.3-2.4.3-3.7,0-5.3,0-10.6,0-15.9,0-1.4-.4-2.1-1.8-2.4-1.9-.5-3.9-.6-5.9-.7-2,0-3.9-.3-5.9-.3-3,0-6,.5-9,.6-2.2,0-4.4-.3-6.5-.3-2.3,0-4.7.5-7,.7-1.4.1-1.5,1.5-1.6,2.2-.3,1.7,0,3.5,0,5.3,0,3.5-.3,7.1-.3,10.6,0,3.5.3,7.1.2,10.6,0,1.5.7,2,1.8,2,2.7.2,5.5.3,8.5.4M113.3,307.4c2.7.1,5.4.3,8.2.3,2.5,0,4.9-.3,7.4-.7.8-.1,1.9-.9,2-1.5.3-1.3-.2-2.9.2-4.2.7-2.2.1-4.4.2-6.6,0-1.6,0-3.3-.2-4.9-.6-3.5-.6-7,0-10.5.2-1.1.2-2.8-1-3.4-1-.5-2.5-.5-3.7-.4-2.1,0-4.2.6-6.3.6-6.7,0-13.3,0-20,0-1.5,0-3,0-4.5.4-.8.2-1.7.8-2,1.5-.4.7,0,1.7,0,2.5,0,3.3,0,6.6,0,9.9,0,.7-.5,1.3.3,1.9.2.2,0,.9,0,1.4,0,1.5-.3,3.1-.3,4.6,0,2.7,0,5.5,0,8.2,0,.5.4,1.1.8,1.3.5.3,1.2.6,1.7.6,1.3-.1,2.5-.7,3.7-.8,2.2,0,4.5.3,6.7.2,2.1,0,4.3-.4,6.7-.6M67.3,230.5c1.8-.2,3.6-.4,5.4-.5,2.4,0,4.8,0,7.2,0,1.8,0,3.6.3,5.4.3,1.1,0,2.5-.3,3.2-1,.6-.6.6-2,.6-3-.1-2.8-.5-5.7-.6-8.5,0-3.2.1-6.3.3-9.5,0-.9.6-1.8.6-2.7,0-1.5-.4-3-.2-4.4.2-1.4-.7-1.8-1.5-2-2-.4-4-.6-6.1-.7-2.4,0-4.8.3-7.2.3-6.1,0-12.2,0-18.3,0-1.5,0-2.8.3-3.9,1.3-.1.1-.5.2-.5.2,0,1.2,0,2.4,0,3.5-.1,1.3-.6,2.5-.6,3.8,0,2,.4,4,.6,6.1,0,.8,0,1.7,0,2.5,0,1.2.6,2.5.2,3.6-.5,1.3-.2,2.5-.2,3.7,0,1-.4,2.1-.3,3.1,0,1-.2,2.3,1,2.8,1.5.6,3.2,1.1,4.8,1.2,3.3.1,6.7,0,10.1,0M131.4,241.6c0-1.1,0-2.2.1-3.4,0-.2,0-.5-.2-.6-.9-.3-1.7-.8-2.6-.8-7.4.2-14.9.4-22.3.6-.9,0-2-.5-2.8-.2-2.5.8-5.1.5-7.7.5-.6,0-1.8,1-1.8,1.6-.1,2.2.1,4.4.2,6.6,0,2.9,0,5.9,0,8.8,0,3.1.4,6.3-.6,9.3-.2.5-.2,1.3,0,1.8.4,1,.3,2,2,2.4,2.4.6,4.5,0,6.8.1,5.5.2,11,.3,16.5.3,2.1,0,4.1-.2,6.2-.3,1,0,2.1.4,3.1.2,1-.2,2.6-.8,2.7-1.4.4-2.6.4-5.3.5-8,0-5.8,0-11.6,0-17.7M44.7,299c.2-1.3.5-2.6.4-3.9-.1-2-.8-3.9-.9-5.8,0-2.5.1-5,.3-7.6,0-1.1.4-2.2.6-3.4,0-.3-.4-.7-.7-.8-1.5-.3-3-.8-4.5-.8-4.6,0-9.2,0-13.7.1-.9,0-1.8-.3-2.6-.3-1.5.1-3.1.6-4.6.6-2.6,0-5.2-.2-7.7-.4-1.2,0-1.8.7-2.8.9-.4,0-.9,1.2-.9,1.7.3,4.1-.1,8.2-.4,12.3-.4,4.5-.1,9.1,0,13.6,0,2,1.9,3.6,3.6,3.3,1.7-.3,3.5-.6,5.3-.6,1.3,0,2.7.5,3.9.2,4.6-.9,9.2-1,13.8,0,.3,0,.6,0,1,0,1.7,0,3.4,0,5.1,0,1,0,2,.2,3,0,2.4-.6.9-3,1.8-4.3.2-.3.3-.7.3-1,0-1.3-.2-2.6-.1-4.1M20.7,316.2c-3.5,0-7,0-10.6,0-1,0-2.9,1.1-2.8,2.1.2,1.5,0,2.7-.3,4.2-.4,2.5,0,5.2-.1,7.7,0,1-.6,2-.6,3,0,1.7.2,3.4.3,5.1,0,.7-.2,1.4-.1,2.1,0,1,.2,2,.3,3,.1.9,0,2,.4,2.5.7.7,2,1.3,3,1.3,7.3.1,14.6,0,21.9,0s7.3,0,10.9,0c.6,0,1.5-.7,1.6-1,0-1.8,0-3.5-.3-5.3-.1-1.6-.7-3.2-.5-4.8.4-2.6.3-5.2.3-7.7,0-1.5.1-2.9.3-4.4,0-.5.6-1,.6-1.5,0-1.5.1-3.1,0-4.6,0-.5-.7-1.4-1.2-1.4-2.3-.2-4.6-.3-6.9-.4-4.1,0-8.2,0-12.2,0-1.2,0-2.4-.2-3.8.4M154,385.5c4.2,0,8.3,0,12.5,0,1.4,0,2.8-.3,4.1-.6,2-.5,2.1-.8,2.1-2.9,0-1,.6-2.1.6-3.1,0-1.6-.3-3.2-.3-4.7,0-4,0-8,0-12,0-.6.1-1.3.1-1.9,0-1.1-.1-2.3-.1-3.4,0-.7.3-1.3.2-2,0-.2-.8-.3-1.2-.4-.6-.1-1.2-.3-1.8-.3-9.3,0-18.7.2-28,.3-.4,0-1,.1-1.3,0-1.1-.9-2.3-.3-3.4-.1-.9.1-1.7,1.1-1.7,2.4,0,2.4,0,4.7.3,7.1.1,1.2-.3,2.4-.3,3.6,0,2.1.2,4.1.3,6.2,0,1.1-.3,2.2-.3,3.3,0,2.4-.1,4.7,0,7.1,0,.5.3,1.1.7,1.3.4.3,1.1.3,1.6.4,2.7,0,5.4.2,8.1.2,2.5,0,5-.2,7.7-.2M88.1,248.4c0-2.5-.2-5,0-7.5.2-1.3-.4-1.8-1-2.6-.7-1-1.5-.5-2.3-.5-10.4,0-20.8,0-31.2,0-.4,0-.9-.3-1.3-.2-1.4.6-2.2,2.9-1.6,4.3.2.4.3.9.3,1.3,0,1-.3,2-.3,3,0,2.1,0,4.2,0,6.3,0,1.5-.3,3.1-.3,4.6.1,3.2.4,6.4.6,9.6,0,.3,0,.7.2.9,1.1,1.4,2.5,1.1,4.1,1.1,7.3-.2,14.6,0,21.9-.1,3.1,0,6.2-.2,9.3-.3.4,0,1.2-.5,1.2-.8.2-1.8.4-3.6.4-5.4,0-4.5,0-9,0-13.8M8.8,243.9c-.3,1.5-.8,3.1-.8,4.6,0,4.3.1,8.6.2,12.9,0,1.9-.3,3.7-.2,5.6,0,.6.6,1.4,1.1,1.7.6.4,1.4.6,2.1.7,2,.2,4.1,0,6.1-.2,2.8-.2,5.6,0,8.3,0s6.7-.2,10,0c2.6.2,5.2.3,7.7.2.5,0,1.4-.4,1.5-.8.2-.8,0-1.8,0-2.7.2-4,.5-8.1.6-12.1.1-2.9,0-5.8,0-8.8s0-2,0-3c-.1-1.3.4-3-1.4-3.5-1.3-.3-2.8-.2-4.1-.4-2.7-.3-5.5-.3-8.2-.3-.9,0-1.8-.3-2.6-.3-1.5.1-3,.6-4.4.6-2.2,0-4.5-.3-6.7-.3-2.5,0-4.9.5-7.4.6-1.4,0-2,.6-1.9,2.1,0,1,0,2,0,3.3M161.8,345.5c2.4.6,4.8.5,7.2.3,1.2,0,2.5-.7,3.5-1.3.4-.3,0-1.5.2-2.2.4-1.9-.3-3.9.5-5.9.6-1.5,0-3.4.1-5.1,0-1,.3-1.9.3-2.8,0-2.9.4-5.8-.3-8.7-.2-1-.3-2.1-.5-3.1,0-.4-.2-1.1-.5-1.2-1-.3-2.1-.6-3.1-.7-2.6,0-5.1,0-7.7,0-3.5,0-7-.2-10.5-.3-1,0-2-.4-3-.3-3.3.3-6.6.6-9.9,1-.6,0-1.6.8-1.5.9.5,1.3,0,2.3-.3,3.5-.4,1.8-.1,3.8-.1,5.7,0,4.9,0,9.7,0,14.6,0,.6-.3,1.1-.3,1.7,0,1.4,0,2.8.5,4,.2.5,1.8.4,2.8.4,1.7,0,3.3-.3,5-.3,2.4,0,4.8,0,7.2,0h10.3M173.3,286.5c.2-2.7.5-5.5.6-8.2,0-.8-.7-1.9-1.4-2.3-.9-.5-2.1-.3-3.1-.4-1.1-.1-2.2-.4-3.3-.3-1.8.1-3.6.6-5.4.6-3.5,0-7.1-.3-10.6-.3-3.8,0-7.6.5-11.4.5-1,0-1.5.4-1.9,1.1-.2.4,0,1.1,0,1.7,0,7.5-.2,14.9-.3,22.4,0,1.2-.3,2.5-.6,3.7-.2,1.1.6,2.2,1.6,2.2,10.5,0,20.9,0,31.4,0,1.8,0,3.2-.6,4.1-1.8.7-.8.6-2.4.6-3.6,0-1.8-.2-3.6-.3-5.3,0-.6.5-1.4.3-1.8-1-2-.6-4.1-.3-6.1,0-.6.1-1.3,0-2.1M41.5,386.5c.3-.2.6-.4.8-.7.3-.2.8-.4.8-.7.2-1.9.4-3.7.5-5.6,0-1.3-.3-2.5-.3-3.8,0-2.3.4-4.6.3-6.9,0-2.1.5-4.3-.2-6.4-.4-1,0-2.3,0-3.5,0-1.1.3-2.1.4-3.2,0-.1-.3-.4-.5-.4-2.3,0-4.6-.2-6.9-.2-1.2,0-2.4.4-3.5.4-2.8,0-5.7-.2-8.5-.3-1.5,0-3.1.3-4.6.3-.9,0-1.8-.6-2.7-.6-2.2,0-4.5.2-6.7.3-2.8,0-2.9.3-3.7,2.9-.8,2.6-1.2,5.4-.8,8,.5,2.9-.1,5.8.4,8.8.6,3.1.1,6.5.1,9.7,0,.2,0,.3.1.5,0,1.7,1.3,1,2.1,1,10.5,0,21,0,31.5,0,.4,0,.7.1,1.2.3M94.3,214.9c0,2.2,0,4.3,0,6.5,0,1.8,0,3.5,0,5.3,0,.7.3,1.5.6,2.2,0,.2.5.5.7.5,3.5.1,7,.2,10.5.3,3.4.1,6.8.3,10.3.3,1.8,0,3.6-.2,5.4-.3.6,0,1.2.2,1.7.1,2-.1,4.1-.2,6.1-.4.7,0,1.8-.2,1.9-.6.6-1.6.9-3.3.6-5-.3-1.6-.4-3.3-.5-5,0-.5.2-1,.2-1.4-.1-1.2-.5-2.3-.5-3.5,0-3.5,0-6.9,0-10.4,0-.8.2-1.6.5-2.4.3-.9-.2-2.6-1-2.6-3.1,0-6.2,0-9.3,0-1.1,0-2.2.3-3.3.3-1.6,0-3.3,0-4.9,0-1,0-2,.3-3,.3-1.7,0-3.5-.3-5.2-.3-2.9.1-5.9.4-8.8.7-.5,0-1,.6-1.4,1-1,1-.2,2.2-.3,3.3-.2,1.6-.6,3.3-.6,4.9,0,2,.2,3.9.3,6.2M173.5,263.9c0-.8-.2-1.6-.1-2.4,0-2.1.2-4.2.3-6.3.1-1.2.5-2.3.6-3.5.1-1.7,0-3.4,0-5.1,0-1.1,0-2.2-.1-3.2-.1-1.3-.5-2.6-.4-3.8,0-1.1-.2-1.7-1.2-2.1-1.6-.6-3.2-.5-5-.4-2.8.2-5.6-.1-8.4-.2-3.4-.1-6.9-.7-10.2-.2-3.3.6-6.5.3-9.7.5-1.6,0-2.5.7-2.4,2.3,0,1.5.2,3,.3,4.5,0,1.5.1,3.1.1,4.6,0,6.3.2,12.5.2,18.8,0,1.2.4,1.6,1.6,1.3,1.2-.3,2.4-.4,3.7-.5.6,0,1.3-.2,1.9-.2,2,0,4-.2,6-.1,2.3.2,4.5.9,6.8.9,3.1,0,6.2.6,9.3-.5,1.5-.6,3.2-.4,4.8-.8.7-.2,1.9-.3,1.4-1.7-.2-.5.2-1.1.4-1.8M89.9,127.3c0-.9,0-1.9-.1-2.8-.1-.7-.3-1.7-.7-1.8-1.1-.3-2.3-.2-3.4-.2-1.7,0-3.5,0-5.2,0-1.2,0-2.4-.2-3.6-.1-1.6.2-3.2.7-4.7.8-2.6.1-5.2.1-7.8,0-2,0-4-.5-6.1-.6-1.2,0-2.6,0-3.7.4-1.5.7-1.7,2.1-1.5,3.8.2,1.8-.2,3.7-.3,5.6-.1,3.3-.3,6.6-.3,9.9,0,3,0,5.9.2,8.9,0,.7.7,1.7,1.2,1.8,1.9.4,3.9.7,5.9.7,5.3,0,10.7-.5,16-.6,3.5,0,7,.2,10.5.3,1.7,0,3.9-1.7,3.8-2.9,0-1.9-.1-3.7-.2-5.6-.1-3.1-.3-6.1-.3-9.2,0-2.7.4-5.5.5-8.3M57.9,191.5c2.8,0,5.6-.1,8.4-.1.8,0,1.7.3,2.5.3,1.4-.1,2.7-.5,4.1-.6,2.7,0,5.4,0,8.1,0,1.4,0,2.9,0,4.2.5,1.9.6,4-.7,3.9-2.8,0-1.5-.3-3.1-.3-4.6,0-1.7.5-3.5.2-5.2-.3-2.8-.5-5.6.3-8.4.1-.4.1-.8.1-1.2,0-2.2-.2-4.5-.3-6.7,0-.8-.1-1.7-1.2-1.8-1.6-.1-3.3-.3-4.9-.3-2.4,0-4.9.3-7.3.3-5.4,0-10.7,0-16.1,0-.2,0-.4,0-.6,0-2.1-.5-4.2-.6-6,1-.5.5-1.1,1.3-1.1,2,0,1.9.1,3.8.2,5.7,0,.8,0,1.6,0,2.3,0,2.2,0,4.4-.2,6.7,0,.4-.2.7-.2,1.1,0,3.7.2,7.4.3,11.1,0,.3.2.8.4.8,1.8.2,3.5.3,5.4.2M131.4,189.2c.6-2.2.3-4.5.3-6.7,0-.3.3-.6.3-.8,0-.5,0-1,0-1.5,0-1.1.2-2.2.3-3.3,0-.6.3-1.1.3-1.6,0-2.8-.2-5.6-.3-8.3,0-.4.3-.8.2-1.1-.1-1.2-.6-2.5-.5-3.7.2-1.6-.5-2-1.9-2-2.4,0-4.8.3-7.2.3-2.5,0-4.9,0-7.4,0s-6.8.3-10.2,0c-2.7-.3-5.3-.3-7.9.4-.9.2-2.3.6-2.4,1.2-.3,1.5-.2,3.2-.1,4.8,0,1.2.3,2.4.3,3.6,0,3.8-.1,7.6-.3,11.5-.1,2.5-.4,5-.6,7.4,0,.2.3.3.3.5.5,1.1,1.4,1.4,2.6,1.3,2.4,0,4.8.3,7.2.2,3.6,0,7.2-.4,10.8-.6,1.6,0,3.1,0,4.7,0s4.4,0,6.6,0c1.4,0,2.7-.2,4.1-.3.3,0,.5-.5.8-1.1M22.6,161.1c-3.4,0-6.8,0-10.2,0-1.3,0-2.9,1.2-2.9,2.2,0,1.7.2,3.4.2,5.2,0,3.3,0,6.5,0,9.8,0,1.2-.6,2.3-.6,3.5,0,2.8.2,5.5.3,8.3,0,.5-.8,1.2.4,1.4.5,0,1,.8,1.5.8,2.2,0,4.5-.1,6.7-.1.9,0,1.9.3,2.8.3,1.6-.1,3.2-.6,4.8-.6,5,0,10.1.2,15.1.3,1.2,0,2.4-.3,3.6-.7.6-.2,1.6-.7,1.6-1.2.2-2.1,0-4.3.1-6.5.2-3.2.5-6.4.6-9.6,0-1.3-.4-2.6-.6-4,0-.6.4-1.4.1-1.7-1.3-1.7,0-3.3,0-4.9.1-1.9.2-2.4-1.9-2.4-7.2,0-14.4,0-21.9,0M45.9,225.3c0-1.1,0-2.2,0-3.3,0-.7-.3-1.3-.3-2,0-1.6.3-3.2.3-4.7,0-1.8-.3-3.6-.3-5.4,0-2.5.1-5,.3-7.6.1-1.3,0-2.3-1.3-2.7-.3,0-.6-.1-.9-.2-1.6-.1-3.2-.3-4.7-.3-1.5,0-3,.5-4.4.6-2,.1-4,0-6,0-.9,0-2-.5-2.8-.3-3.8,1.3-7.5,0-11.2,0-1.2,0-2.4.2-3.6.5-.9.2-1.2.9-1.5,1.8-.4,1,0,1.8-.2,2.6-.2.7-.5,1.3-.5,2,0,2.9.6,5.8-.4,8.6-.3.8,0,1.9.1,2.8.3,1.3,1,2.5,1,3.7,0,2.4,0,4.8-.3,7.1-.1,1.2.3,1.7,1.2,1.8,1.9.1,3.7,0,5.6,0,.9,0,1.7.3,2.6.2,1.3,0,2.6-.6,3.8-.5,5.3.3,10.6-.7,15.8.5,1.7.4,3.7,0,5.5-.3.9-.1,2-.4,2.1-1.6,0-1,.1-2.1.2-3.4M10.6,126.6c-.9,1.4.1,3-.7,4.7-.7,1.6-.1,3.8-.2,5.7,0,.8-.3,1.7-.3,2.5.1,1.4.6,2.8.6,4.1-.1,3.1,0,6.1.3,9.2,0,.7.2.9.9.9,2.4,0,4.8,0,7.2,0,.9,0,1.9.5,2.8.3,4-1.1,8.1-.6,12.1-.5,3.8,0,7.5.7,11.3-.4,1.9-.5,3.4-2.9,2.8-4.5-.3-.7-.9-1.4-.9-2.1,0-2.4.2-4.8.3-7.2,0-1.1.4-2.2.3-3.3-.4-3.6-.7-7.2.5-10.8.1-.4.3-1.8-1.1-1.9-2.3,0-4.6-.2-6.9-.3-4.5-.1-8.9-.2-13.4-.3-.7,0-1.4-.3-2.1-.3-1.9.1-3.8.5-5.7.6-.8,0-1.7-.3-2.5-.3-1.4.1-2.8.3-4.1.7-.5.2-.9,1-1.1,1.6-.2.4,0,.9,0,1.6M95.8,52.7v13.9c0,2.8,0,5.5,0,8.3,0,1.2.7,1.6,1.6,1.7,2.1.2,4.1.3,6.2.3,3.1,0,6.2,0,9.3,0,5.7,0,11.5,0,17.2,0,.9,0,2.2-.4,2.7-1.1.5-.7.8-2.4.3-2.8-.7-.8-.5-1.4-.5-2.1,0-1.2.2-2.5.3-3.7,0-2.7,0-5.5,0-8.2,0-1,.3-2,.3-3,0-2.4-.2-4.8-.3-7.2,0-.7,0-1.8-.5-2.1-.8-.5-1.8-.6-2.8-.7-1.2-.2-2.5-.3-3.7-.2-1.2,0-2.4.5-3.7.5-2.2,0-4.5-.3-6.7-.3-2,0-4,.5-6.1.6-3.6.1-7.3,0-10.9,0-.8,0-2.1.6-2.2,1.2-.4,1.5-.4,3.2-.5,5.1M138.2,148.6c0,.8-.3,1.8,0,2.5.5,1.1,3.2,1.5,4.5,1.3,1.3-.2,2.7,0,4.1,0,.9,0,1.7.3,2.6.3,2.2,0,4.6-.7,6.7-.2,2.9.8,5.6,0,8.4.3,2.5.3,5.2-.5,7.8-.7,1.5-.2,2.5-1.1,2.5-2.3,0-8.9-.2-17.7-.1-26.6,0-1.4-.3-1.4-1.4-1.4-6.3,0-12.7,0-19,0-.9,0-1.9,0-2.8,0-2.9,0-5.9,0-8.8.1-1.3,0-2.8.4-3.9,1-.5.3-.7,1.6-.7,2.4,0,4.3-.1,8.5,0,12.8,0,3.4.2,6.8.3,10.6M155.3,160.1c-5,0-10,0-14.9,0-2.2,0-2.9.8-2.8,2.9,0,1.7,0,3.3.3,5,.3,2.2.2,4.5,0,6.7,0,1.9-.6,3.8-.6,5.7,0,2.8.4,5.6.2,8.3,0,1.4.6,1.9,1.5,2.2,1,.3,2.1.4,3.2.3,2.6-.2,5.1-.7,7.7-.8,6.8-.1,13.5,0,20.3,0,1.5,0,2.9-.3,3.6-1.8.2-.5-.1-1.1,0-1.7.5-2.1.6-4.2.7-6.3,0-.9.8-1.9.6-2.6-.8-3,.1-5.9-.5-8.9-.4-1.9.2-3.9.2-5.9,0-2-.9-2.9-2.9-3-5.4,0-10.7,0-16.4,0M174,208.7c0-2.7-.1-5.4,0-8.1.1-1.6-.5-2.1-1.9-2.1-10.8,0-21.7,0-32.5,0-.6,0-1.2.9-1.8,1.4-1,.8-.2,1.8-.2,2.7-.1,2.2,0,4.4,0,6.6,0,.6.3,1.1.3,1.7,0,1.6-.3,3.2-.3,4.7,0,1.6.3,3.3.3,4.9,0,2.6-.2,5.1-.3,7.7,0,.5.4,1.4.7,1.4,2.1,0,4.1,0,6.2-.2,2.1-.2,4.3-.8,6.4-.6,1.4.1,2.9-.1,4.1.3,1.4.5,2.8.1,4.2.3.6,0,1.1.3,1.7.3,1.5-.1,3.1-.5,4.6-.6,2.3-.2,4.6-.2,6.9-.4.8,0,2.3.1,1.4-1.7-.3-.7.1-1.7.2-2.6,0-.7.4-1.4.3-2.1-.1-1.9-.6-3.8-.6-5.6,0-2.1.4-4.3.6-6.4,0-.4-.2-.8-.3-1.5M132.5,112.6c0-1.4,0-2.7.2-4.1,0-2,.3-4,.3-5.9,0-3.8.2-7.5-.3-11.3-.1-1.1.2-2.2.3-3.3,0-1,.3-2.1-.1-2.9-.7-1.4-2.1-1.6-3.6-1.4-3.2.2-6.5.6-9.7.6-6.1.1-12.2,0-18.4,0s-1.5,0-2.3,0c-1.3,0-3.5,1.4-3.2,2.2.8,2.6.2,5.2.4,7.8.3,4.4.9,9-.5,13.4,0,.2,0,.5,0,.8.1,1.3.2,2.5.3,3.8,0,.7-.1,1.6,1,1.7,2.9.2,5.7.7,8.6.6,4.2-.2,8.3.9,12.5.1,2.9-.6,6,.2,9-.3,2-.3,4.1,0,5.6-1.7M107,152.8c1.4-.2,2.7-.4,4.1-.5,2.4,0,4.8,0,7.2,0,1,0,2.2-.5,3.1-.2,1.4.4,2.7.2,4,.3.6,0,1.2.3,1.8.3,1.1,0,2.4.3,3.4-.1.9-.3,2.1-.8,1.8-2.5-.3-2.5-.3-5.1-.4-7.7,0-1.6,0-3.2,0-4.8,0-3.6.2-7.2.3-10.8,0-.3,0-.6.1-.7,1.1-1.1.5-2.4,0-3.2-.7-1.1-2.2-.9-3.4-.9-2.5,0-4.9.7-7.3.7-6,0-12.1-.2-18.1-.3-1.8,0-3.6,0-5.4,0-1.5,0-2.9.9-3,2.2-.1,2.3,0,4.5,0,6.8,0,1.1-.3,2.3-.3,3.4,0,1.6.5,3.2.6,4.8,0,3.4,0,6.8,0,10.1,0,.7.4,1.5.3,2.1-.3.9.1.8.7.8,3.4,0,6.8,0,10.4.2M81.5,114.6c2.1,0,4.1,0,6.2,0,1.1,0,2.3-.3,2.4-1.5.2-2.4,0-4.8,0-7.3,0-2.4.3-4.9.3-7.3,0-1.4-.2-2.7-.3-4.1,0-.5.2-1.1.2-1.6,0-2.2,0-4.4-.2-6.7,0-.5-.5-1.4-.9-1.4-2.2-.3-4.5-.7-6.7-.7-3.7,0-7.3.4-11,.6-.8,0-1.5-.3-2.3-.3-1.5.1-3,.5-4.4.6-3,0-6,0-8.9,0s-3.5,1.3-3.1,3.7c.4,2.1.9,4.2.9,6.3,0,2.5.5,5.1-.6,7.5-.1.3,0,.8,0,1.1,0,2.3-.1,4.7-.1,7,0,1,.1,1.9.2,2.9,0,.4.3,1,.5,1,1.1.1,1.9.9,3.2.4,1-.4,2.2-.1,3.4,0,2.2,0,4.4.4,6.6.3,2.7-.1,5.4-.7,8.1-.9,2.1-.1,4.2.2,6.6.3M47.2,85.5c-1.5-.2-3-.6-4.5-.6-3.9,0-7.8.1-11.6.1-.8,0-1.5-.3-2.3-.3-2.2.1-4.4.5-6.6.6-2.3,0-4.6-.3-6.9-.2-1.3,0-2.5.7-3.7,1.3-.3.1-.1,1-.2,1.5-.2,1.3-.6,2.6-.6,4,0,2.9,0,5.8,0,8.7,0,4.2,0,8.5,0,12.7,0,.5.2,1.1.6,1.4,1.5,1.6,3.3,1.4,5.3,1,2.2-.4,4.6-.3,6.9-.4.3,0,.6.2.9.1,1.1-.1,2.1-.4,3.2-.4,3.2,0,6.5.2,9.7.3,2.3,0,4.7,0,7,0,1.5,0,2.8-1.3,2.8-2.8,0-2.6-.3-5.2-.3-7.8,0-2.1-.2-4.4.4-6.3.7-2.1-1-4.1.4-6.2.6-.9,0-2.5.1-3.8,0-.2,0-.5.2-.7.9-1.1.5-1.6-.9-2.1M133.3,18.2c.1-.5.5-1.1.3-1.5-.9-2.1-.6-4.3-.5-6.5,0-.4-.7-1.1-1.1-1.1-3.5,0-7,0-10.6,0-6.2,0-12.3,0-18.5,0-.6,0-1.1-.2-1.7-.3-1.1-.3-3.6.8-4.1,1.9-.4,1.1-.9,2.2-.9,3.4,0,4.2.2,8.4.3,12.6,0,.8-.5,1.8-.2,2.4,1.2,2.6.2,5.2.6,7.8,0,.3,0,.8.2.9,1.3,1.2,2.8,1.3,4.6,1.3,9.2,0,18.4,0,27.6,0,1.2,0,2.1-.9,3.3-.8.2,0,.7-.5.7-.7,0-1.9,0-3.9,0-5.8,0-.5.2-1,.2-1.5.2-2.5.4-4.9.4-7.4,0-1.5-.4-3-.6-4.8M77.9,46.6c-1-.1-2.1-.3-3.1-.3-3.3.2-6.6.5-10,.6-2.1,0-4.1-.1-6.2-.3-2.4-.2-3.4.6-4.4,2.7-.4,1-.2,1.7-.2,2.6-.1,1.7-.3,3.3-.3,5,0,5.9,0,11.8,0,17.7,0,1.5.6,2.3,1.9,2.2,2.8-.1,5.6,0,8.4-.1,6.5,0,13.1-1,19.6.5.2,0,.4,0,.6,0,1.5,0,3,0,4.5,0,.7,0,1.5-.2,1.9-.7.3-.3.2-1.2,0-1.8-.2-1.3-.8-2.5-.8-3.8,0-2.4.2-4.7.3-7.1,0-.3.2-.7.3-1,0-.4.2-.8.2-1.1,0-2.3-.4-4.8.2-6.9.5-1.6-.2-3,.4-4.6.4-1.3-2-3.1-3.9-3.2-3-.1-6.1-.2-9.5-.3M47.5,75.4c.1-4.1.2-8.2.3-12.3.2-4,.5-8.1.6-12.1,0-2.4-1.4-3.8-3.8-3.8-1.2,0-2.4,0-3.6,0-3.8,0-7.6,0-11.4,0-1,0-2-.4-2.9-.3-4.3.8-8.5.8-12.8.3-.2,0-.4.3-.6.5-1.2.9-.9,2.1-1,3.4,0,1.4-1.1,2.9-.8,4.2.5,2-.5,3.5-.5,5.3,0,1.6,0,3.3,0,4.9,0,.9-.2,1.8-.2,2.8,0,2,.1,4,.3,6,0,.7,0,1.7.5,2.2,1.3,1.5,5.1,2.3,6.9,1.4,2.5-1.2,5-.5,7.6-.7.6,0,1.3.3,2,.3,3,0,6,0,9,0,.8,0,1.5.3,2.3.3,2,0,4-.2,6-.2.9,0,2.3-1.1,2.1-2.2M68.1,9.5c-1.9-.1-3.7-.3-5.6-.3-1.6,0-3.3.5-4.9.6-2.5.1-2.8.2-3,2.8-.2,3-.4,6-.3,9,.2,3.3.8,6.5-.4,9.7,0,.2,0,.5,0,.8,0,1.5,0,3.1,0,4.6,0,1-.3,2.1,1,2.8,1.2.6,2.5.5,3.7.5,1.9.1,3.8-.5,5.7-.5,2,0,3.9.3,5.9.3,1.8,0,3.6-.5,5.4-.6,4.4,0,8.9,0,13.3,0,1,0,1.9-.2,1.8-1.5,0-1.3,0-2.7,0-4,.1-7.3.3-14.5.4-21.8,0-.4.2-1.6-1-1.7-1.9-.1-3.8-.4-5.6-.6-2.5-.2-4.9-.6-7.4-.6-2.9,0-5.8.4-9,.6M172.5,75.9c1.2-.3,2.2-.4,2.2-2.3-.2-8.7-.1-17.3,0-26,0-1.4-.5-1.6-1.5-1.6-5.4,0-10.8,0-16.1,0-1.1,0-2.3.3-3.4.3-2.4,0-4.8-.3-7.2-.3-2.1,0-4.2.4-6.2.6-.4,0-1.1.6-1.2.9-.1,2.4,0,4.9-.2,7.3-.2,4.3-.5,8.6-.6,13,0,2.5,0,5,0,7.6,0,0,.2.1.3.2.7,1.4,1.9,1.1,3.1,1,1.3-.2,2.7-.6,4-.6,3.1,0,6.2.2,9.3.3,2.9.1,5.8.3,8.6.3,2.9,0,5.7-.4,8.9-.6M169,113.6c1,0,2,0,2.9,0,.6,0,1.3-.4,1.8-.8,1.4-.9,1-2.4,1-3.7,0-7.1,0-14.2,0-21.3,0-.4.2-.8.2-1.2,0-.8.2-2.1-.3-2.4-.9-.6-2.2-1-3.2-.8-3.8.9-7.5.5-11.3.6-1.1,0-2.2-.3-3.3-.3-1.3,0-2.6.6-4,.6-3.9,0-7.8-.1-11.7,0-.5,0-2.2-.5-2.1,1.4,0,.8-.7,1.6-.9,2.4-.2.8-.4,1.7-.3,2.5.1,1.7.6,3.4.6,5.1,0,2.5-.7,4.9-.5,7.4.2,2.6.5,5.1-.4,7.6-.3.9.9,3.4,1.7,3.5,2,.1,3.9.2,5.9.2,2.4,0,4.8-.3,7.2-.4.6,0,1.2.3,1.8.2,1.2-.1,2.4-.5,3.7-.5,3.6,0,7.3,0,11.2,0M48.5,27.9c-.1-1.7-.3-3.5-.3-5.2,0-3.2.2-6.3.3-9.5,0-.8.3-1.6.3-2.3,0-.4-1-1-1.1-.9-1.3,1.1-2.7.2-4,0-.4,0-.7-.2-1.1-.2-2.9,0-5.8,0-8.7,0h-3.3c-2,0-4,.4-5.8-.1-1-.3-1.9,0-2.2.3-1,1.1-2.3,1.1-3.2.8-1.4-.5-2.7-.2-4-.2-1,0-2.4.3-2.7,1.6-.3.9-.3,2-.3,2.9,0,3.9,0,7.8,0,11.8,0,3.5-.2,7-.3,10.5,0,2,.6,2.8,2.5,2.8,1.9,0,3.9-.1,5.8-.3,2.4-.2,4.8.2,7.2.2,1.6,0,3.2-.3,4.7-.3,1,0,2,.3,3,.3,1.6-.1,3.2-.5,4.8-.6,2.2-.1,4.4,0,6.6,0,0,0,.1-.3.2-.3,1.7-.5,1.7-1.8,1.7-3.3,0-2.6,0-5.2,0-7.9M175.1,24.2c-.2-.4-.5-.8-.5-1.3,0-4.1,0-8.2,0-12.4,0-1-1.8-2.6-2.8-2.3-1.5.4-3.1.9-4.7.9-4.2,0-8.4-.2-12.6-.3-2.4,0-4.8,0-7.2,0-2,0-4,.1-5.9.3-1.1.1-2.4.6-2.4,1.8.1,5.1.8,10.3-.4,15.4-.1.5,0,1,0,1.5,0,2.2-.1,4.4-.2,6.7,0,1.1-.1,2.1,0,3.2,0,.4,3.3,1.4,3.7,1.3,1.1-.3,2.2-.8,3.2-.8,2.1,0,4.2,0,6.4.4,3.3.5,6.8,0,10.2-.1,1.3,0,2.5,0,3.8,0,1.9,0,3.7-.4,5.6-.3,2.2.2,4-1.1,4-3.1,0-2,0-4.1,0-6.1,0-.5,0-.9,0-1.4,0-1.1,0-2.2-.2-3.5M50.1,342.7c.1,1.1.1,2.3.4,3.4,0,.4.8.9,1.2.9,2.2,0,4.4,0,6.6,0,1.5,0,3.1-.3,4.6-.3.9,0,1.8.6,2.7.6,2.2,0,4.5-.2,6.7-.3,1.9,0,2.8-1.3,2.1-3,0-.2,0-.4,0-.6-.1-.8,0-1.7-.4-2.4-.7-1.6,0-4.1,1.6-4.3,2.4-.3,4.8-.4,7.2-.3,1,0,1.9-.4,2.7-.8.6-.3,1.3-1,1.6-1.7.5-1.4.7-2.9.7-4.5-.1-4.2,0-8.4,0-12.7,0-1,0-1.7-1.5-1.3-1.3.3-2.7.3-4.1.4-2.1,0-4.3,0-6.4,0-1,0-2,.4-3,.3-3.3-.3-6.7-.8-10-.9-3.5,0-7,.3-10.4.7-.7,0-1.8.9-1.9,1.5-.2,2.2-.1,4.5-.2,6.8,0,.4,0,.9,0,1.3-.2,2.8-.4,5.6-.6,8.4,0,.1,0,.2,0,.3.2,1.4.5,2.8.6,4.3,0,1.3,0,2.7,0,4.2M130.7,321.3c0-1.4.2-2.8.2-4.1,0,0-.1-.2-.2-.3-.8-.9-1.4-1.9-2.9-1.7-1.4.2-2.8,0-4.1.3-1.5.2-3.1.2-4.6,0-3.8-.5-7.5-.2-11.3-.3-.5,0-1.1-.4-1.5-.3-3,1.1-6.1.6-9.2.5-1.3,0-2.2.3-3,1.1-.3.3-.5.9-.5,1.4-.2,2-.4,3.9-.6,5.9,0,.5,0,.9,0,1.4,0,2.4.3,4.9,0,7.3-.5,2.8.1,4.3,2.4,4.1,1.4,0,2.8-.5,4.2-.6,2-.1,4.1.1,6.1-.3.8-.2,1.7-.3,2.4,0,1,.4,2.4,1.1,2.5,1.8.4,2.4.5,4.9.4,7.4,0,.9.3,1.2.8,1.7,1.2,1.1,2.5,0,3.8.2,1.1.2,2.4-.4,3.7-.4,1.1,0,2.3.3,3.4.3,2.1-.1,4.2-.3,6.2-.7.6,0,1.5-.6,1.6-1.1.2-1.2.1-2.4.1-3.6,0-3.5,0-7,0-10.5,0-1.6-.6-3.3-.2-4.7.4-1.6,0-3.1.2-5M60.7,385.8c2.1.2,4.3.5,6.4.6,1.5,0,3.1,0,4.5-.4,2.5-.7,2.1-3.1,2.2-4.9.1-2.2-.2-4.5-.3-6.7,0-3.4,0-6.8,0-10.1s-.1-.7,0-1c.6-1.2.7-2.4.7-3.8,0-2.4-1.7-4.2-4.1-4.3-3.8-.1-7.5-.2-11.3-.3-2.1,0-4.3-.2-6.4-.3-1.2,0-1.7.5-2.1,1-.9,1.1-.5,2.3-.5,3.5-.1,6.9-.2,13.7-.3,20.6,0,1-.3,2.1-.3,3.1,0,1.3,0,2.6,2,2.8,3.1.3,6.1.5,9.5.3M110.9,376.6c-.1,2.1-.2,4.3-.3,6.4,0,1.8.6,2.5,2.5,2.5,1.4,0,2.8,0,4.2,0,1,0,1.9.2,2.9.2,2.1,0,4.1-.3,6.2-.4.8,0,3.6-1.6,3.6-2.3,0-1.5,0-3,0-4.5,0-2.5.4-4.9.3-7.4-.2-4.8.5-9.7-.3-14.5-.2-1.5-2.8-3.3-4.3-2.9-1.4.4-2.8.7-4.2.8-1.3,0-2.6-.3-3.9-.3-1.4,0-2.8.3-4.3.3-2.3,0-3.7,1.9-3.2,4.2.4,1.6.4,3.3.6,5,0,.5-.4,1.2-.3,1.6,1,3.3.9,6.5,0,9.7,0,.3.2.8.3,1.5Z"/>
  </g>
</svg>