<?xml version="1.0" encoding="UTF-8"?>
<svg id="Layer_1" xmlns="http://www.w3.org/2000/svg" version="1.1" viewBox="0 0 285.8 290.8">
  <!-- Generator: Adobe Illustrator 29.3.1, SVG Export Plug-In . SVG Version: 2.1.0 Build 151)  -->
  <g id="Shape_133">
    <path d="M282.5,184.4c0,.2,0,.5,0,.7,0,.4-.1.8-.2,1.2-.3-.2-.5-.4-.8-.6-.1,0-.3-.1-.5-.2,0,.2,0,.4.2.5.7.6,1.4,1.1,2.1,1.6,0,0,0,.4,0,.4-1.3.7-.5,1.8-.6,2.7-.1.7.4,1.4-.3,2.2-.6.7-.3,2.1.5,2.7.7.6.9,2,.2,2.5-.2.1-.5,0-.8,0-.1,0-.2,0-.3,0,0,.1,0,.2,0,.3,0,.2.2.4.3.5.9.6.4,1.3.1,1.9-.1.2-.3.4-.3.6,0,.2,0,.4,0,.6.1-.1.2-.3.3-.4.1-.1.3-.3.5-.4,0,.2.3.4.3.6,0,.3-.1.7-.3.9-1,1-.3,2,0,3,.1.5.2.8-.2,1.1-.4.4-.3.7-.2,1.3.2,1,.6,2,0,3.1-.3.7,0,1.8.1,2.7,0,.2.3.5-.2.5,0,0-.2.3-.3.5.7.3.3.9.3,1.4,0,.7,0,1.4-.2,2.1,0,.6-.3,1.1-.4,1.7,0,.2,0,.3,0,.5,0,1.4-.1,2.7-.2,4.1,0,1,0,1.9.9,2.7.5.5.7.9,0,1.4-.4.3-.3.7.2,1,.1,0,.3.1.4.3.1.2.2.5.3.7-.2,0-.5-.1-.7-.2-.1,0-.3-.1-.4-.2,0,.2,0,.4,0,.5.2.7.5,1.4.7,2,.5,1.4,0,2-1.4,2.3-.2,0-.5,0-.6,0-.1,0-.2.2-.2.4.1,0,.2,0,.3.1.3,0,.6,0,.8.2.5.5.8,1.1,1.2,1.7,0,0,0,.2,0,.3-1.2,1.3.3,1,.8,1.3.1,0,.3.1.4.2-.1.1-.2.3-.3.4-.2,0-.4,0-.6,0-.4,0-1.1-.1-1.2,0-.2.6-.2,1.2-.2,1.8,0,.3,0,.6,0,.9s0,.2,0,.2c1,1.1,0,2.4.4,3.6.3,1,.5,2.2-.2,3.3-.4.6-.3.6.3.7.2,0,.3.3.4.5-.1,0-.2.2-.3.2-.1,0-.3,0-.4,0,0,.2,0,.6.1.6.8.2.2.5,0,.7-.6.9-.9,1.8-.1,2.8,0,0,0,.4,0,.4-.2.1-.6.3-.8.2-.9-.3-1.8-.3-2.6.3-.1,0-.2.2-.3.3.1,0,.2.1.3.1.8,0,1.6-.1,2.4-.2.2,0,.4,0,.5,0,0,.2-.2.3-.3.5-.3.3-.6.6-.3,1.2.2.7-.3,1.3-1,1.5-1.1.2-1.4.8-1.1,1.8.3.9-.5,1.2-1,1.6-.6.4-1.4.6-2,1-.2.1-.2.5-.3.7,0,0,0,.2,0,.2,0,0,.2-.1.3-.2.4-.2.8-.5,1.2-.6.2,0,.4.1.7.2-.2.2-.3.5-.5.5-1.1-.1-1.2.7-1.5,1.4-.3.7-.7,1.5-1.7,1.6-.1,0-.3.3-.4.4-.9,1.3-2,2.4-3.6,2.9-.2,0-.3.1-.5.3-.5.6-1.1,1.2-1.6,0-.1,0-.3.2-.4.3-.8.9-1.2,2.2-2.5,2.6-.2,0-.4,0-.6.1-.3,0-.8,0-.9.3-.3.5-.8,1.1,0,1.6,0,0,0,.3,0,.3,0,.1-.3.2-.4.2-.4,0-.7,0-1.1,0-1.3-.2-2.4.2-3.4,1-.6.5-1.2.5-1.8,0-.1,0-.4,0-.5,0-.8,1.2-2.1,1.6-3.3.9,0,0-.1-.1-.1-.1-1.3.4-2-.8-3.1-.9-.1,0-.3.1-.4.2.1,0,.3.1.4.2.2.2.4.4.6.6-.3.1-.5.3-.8.3-.6,0-1.3.1-1.6-.8,0-.2-.8-.1-1.2-.2,0,.2.2.4.3.7,0,.1.1.3.2.4-.3,0-.6.3-.8.3-.9-.3-1.8-.7-2.7-1-.1,0-.2-.1-.3-.2,0,.1,0,.3.1.4.1.2.3.4.4.6-.2,0-.4-.1-.7,0-.7,0-1.2-.3-1.8-.5-.6-.2-1.4.1-2,.3-.5.1-.7.2-1.2-.1-.6-.4-1.5-.5-2.2-.6-1,0-2,0-3,0-.3,0-.5.2-.8.3.2.1.5.4.7.4,1.1.2,2.2.5,3.4.1.6-.2,1.6.6,2.4.9,0,0,0,.2,0,.2-.2,0-.4.2-.5,0-.5-.5-1-.4-1.6-.3-.8,0-1.7-.2-2.5-.1-1.2,0-2.4.4-3.7.6.3-.4.6-.8.9-1.2-.5,0-1,0-1.5,0-.9,0-1.7.3-2.6-.3-.5-.3-1.5-.2-2.1,0-.9.3-1.8.3-2.8.2-.3,0-.7,0-1,.2-1.2,1-2.1.4-3.1-.2-.4-.3-1.2-.4-1.6-.1-1.2.7-2.5.3-3.8.5-1.2.2-2.4,0-3.6,0-.5,0-1-.3-1.4-.6-.5-.4-.8-.8-1.3.1-.3.5-1.4.5-2.2.5-1.8,0-3.5-.9-5.3-.8-.3,0-.7-.1-1-.2-.2,0-.4.1-.5.2.2.1.4.3.6.4.8.1,1.6.1,2.3.2.3,0,.5.2.8.3,0,0,0,.3,0,.3-.3.1-.6.3-.9.3-1.1,0-2.2-.3-3.3-.2-1,0-2.1.5-3.1.6-1.5.3-2.9.5-4.4.7,0,0-.2-.1-.2-.2,0,0,0-.1.2-.2,1-.2,1.9-.9,3.1-.8.6,0,1.2-.6,1.8,0l.5-.6c-.2-.1-.4-.3-.5-.3-.9,0-1.8,0-2.8.2-.3,0-.6.2-.8.3-.8.5-1.3.4-1.7-.5,0-.1-.2-.3-.3-.2-1.3.7-2.6.2-3.8.2-.2,0-.4.1-.5.2,0,.2.2.4.3.6,0,.1.3.1.4.2-.2,0-.4.1-.7.1-.7,0-1.3-.2-2-.3-.6,0-1.3,0-1.9,0-.6,0-1.3-.2-1.6.7,0,0-.6.2-.8,0-.5-.2,0-.4.1-.7,0-.1.1-.3.2-.4-.1,0-.3,0-.4,0-.8.3-1.7-.3-2.4.4,0-.2-.2-.3-.2-.5,0-.1.2-.3.3-.4-.2,0-.5-.1-.5,0-.8.7-1.5.2-2.2,0-.2,0-.6,0-.8,0-.9.4-1.7,1.1-2.6,1.4-.8.2-1.8.1-2.7.1,0,0-.2-.2-.3-.4.1,0,.2-.1.4-.2.6,0,1.2-.1,1.8-.2.1,0,.3-.1.4-.2-.1-.1-.3-.4-.3-.4-1,.2-2.1-.5-2.9.6-.5.6-.7-.1-.8-.4-.3-.5-2.2-.7-2.5-.3,0,0,0,.2.2.3.1,0,.4.1.5.2.3.2.6.6.9.7.4.2.8.3,1.2.4,0,0,.1,0,.2.1-.1,0-.3.3-.4.2-.9-.5-2.1,0-3-.8-.2-.2-.9-.4-1.4.2-.2.2-.9,0-1.4,0-1,0-1.9-.2-2.9-.3-.2,0-.5,0-.7,0-.5-.1-1-.3-1.5-.5.7-.2,1.3-.3,2-.5.1,0,.3,0,.4,0,.3,0,.6.2.9.3-.3-.2-.6-.3-.9-.5-1-.9-2-.4-2.9,0-.5.3-1,.8-1.5.9-.6.1-1.2,0-1.8,0-1.1-.3-2-.7-3.2-.2-.4.2-1,0-1.5,0-.2,0-.5,0-.7,0,.1.2.3.4.4.6,0,.1.3.1.4.2.3.1.6.3.9.4-.5.1-1,.4-1.4.3-.6-.2-1.2-.6-1.5-1.1-.8-1-1.9-1-3-1.1-1.2,0-2.4,0-3.6.2-.3,0-.6.1-.8.3-.1,0,0,.3-.1.5.2,0,.3,0,.5,0,.1,0,.2-.1.3-.1.2,0,.4,0,.6,0-.2.1-.3.3-.5.3-.3.1-.7.3-1,.3-.3,0-.5-.3-.8-.5,0,0,0-.3,0-.5-.3,0-.7.1-1,.3,0,0,0,.3,0,.3.1,0,.3.1.5.2.2,0,.3,0,.5.1-.2,0-.3.2-.5.3-.9,0-1.9,0-2.4-.9-.2-.3-2-.7-2.2-.4,0,.1,0,.5.1.6.2.2.5.2.7.3.2,0,.4,0,.6.1-.3,0-.6.3-.7.2-1.2-1.1-2.8-.2-4.1-.9-.7-.4-1.3.2-2,.4-.3.1-.7.2-.9.1-1.2-.7-2.5-.4-3.7-.4-.2,0-.3.2-.5.4-.4.5-1.4.5-1.8.1-.1-.1-.2-.3-.2-.4.1,0,.3-.1.4-.1.3,0,.6,0,.9-.2.2-.1.4-.3.7-.5-.3-.2-.5-.5-.8-.5-.7,0-1.4.3-2.1.4-.5.1-.9.2-1.4.3-.8.2-1.6.4-2.4.6-.6.1-1.3.2-2,.2-.7,0-1.4-.2-2.1-.2-1.2,0-1.4-.1-1.9-1.2,0,0-.2-.2-.3-.1-1.1.3-2.2,0-3.4-.1-1-.2-2.1.3-3.1.4-1.4.1-2.8,0-4.2.1-.4,0-.9,0-1.2.1-.8.4-1.4.4-2.1-.2-.2-.2-.7-.1-1.1-.1-1.6,0-3.2,0-4.8,0-.2,0-.3,0-.5.1,0,0,.1.2.2.2,0,.1.2.3.3.4-.2.1-.4.3-.6.3-1,0-2.1,0-3.1,0-.2,0-.4-.1-.6-.2.1-.1.2-.3.4-.4.3-.1.6-.2.9-.3.1,0,.3-.2.4-.2-.1-.1-.2-.3-.3-.3-.7,0-1.4,0-2.1,0-.5,0-1.1,0-1.6,0-.2,0-.5,0-.7.1.1.1.3.3.4.4.1.2.2.3.4.5-.2.1-.5.4-.7.4-1.6,0-3.1-.2-4.7-.3-1.5-.1-2.9-.4-4.4-.6-.3,0-.6.2-.9.2-.8-.2-1.6-.5-2.3-.7-.9-.3-1.7.1-2.4.8-.3.3-1,.4-1.5.4-.7,0-1.4,0-2.1,0-1.3,0-2.5,0-3.8,0-.8,0-1.6-.3-2.4-.5-.2,0-.3-.3-.4-.4.2,0,.4-.3.6-.3.4,0,.8.2,1.2.2,1.1,0,2.3-.2,3.4-.4,0,0,.2-.1.3-.2,0,0-.2-.2-.2-.2-1.7,0-3.3,0-5,.2-.6,0-1.1.2-1.7.2-1.2,0-2.5.3-3.7.4-.1,0-.3.1-.4.1-1.4-.2-2.7-.4-4.1-.5-.2,0-.4.2-.5.4-.5.6-1,.7-1.7.5-.8-.2-1.6-.2-2.4-.3-.4,0-.8-.1-1-.3-.5-.5-1-.6-1.6-.6-1.2,0-2.4-.2-3.6-.4-.3,0-.7-.4-.8-.7-.6-1.3-2.2-1.1-3.1-1.9-.1-.1-.5,0-.8,0-.2,0-.4.3-.6.4.2,0,.4,0,.6.1.5.1,1.1,0,1.5.7.1.3.7.3,1,.4.2,0,.4.2.6.4-.2.2-.3.5-.5.6-.4,0-.9.1-1.2,0-.5-.2-.9-.7-1.3-1.1-.2-.2-.4-.3-.6-.4-.7-.2-.7-.2-.7-.9,0,0-.3-.3-.5-.2-.9.1-1.6.2-1.7-1,0-.1-.5-.2-.7-.4-.4-.3-.8-.5-1.1-.9-.3-.3-.3-.8-.9-.5-.2,0-.6-.3-.9-.5,0,0,0-.2,0-.3.2,0,.4,0,.6,0,.1,0,.3.1.4.2,0-.2,0-.5,0-.6-.2-.2-.5-.5-.8-.5-.9,0-1.5-.5-1.9-1.2,0-.1-.2-.3-.3-.3-1,.1-1.3-.7-1.4-1.3-.2-.9-.6-.8-1.2-.4-.1,0-.3.1-.4.2,0-.2,0-.4,0-.5.3-.3.6-.5.9-.7.2-.1.3-.3.4-.4-.1,0-.3-.2-.4-.3-1-.9-2-1.8-3-2.8-.3-.3,0-.9-.1-1.4,0-.2,0-.6,0-.6-.9-.3-.9-1.2-1.1-1.9-.2-.6-.3-.8-.9-1-.4-.1-1.2-.4-.5-1.2.1-.1-.2-.7-.3-.9-.2-.3-.4-.5-.7-.7-.4-.4-.4-.6,0-1,.7-.5.5-1.4.5-2.1,0-.1-.1-.3-.2-.4,0,.1-.3.2-.3.4,0,.6,0,1.2-.6,1.5,0-.5-.2-1.1-.2-1.6,0-.7-.1-1.5-.2-2.2,0-.2,0-.3,0-.5.2.1.4.3.5.4,0,0,0,0,0,0,0,.3.1.7.2,1,0-.4.2-.7.2-1.1,0-.3,0-.6,0-1s0-.2,0-.3c-.2-.1-.5-.2-.5-.3,0-.3.3-.6.3-.8,0-.5-.2-1-.4-1.5,0-.1-.2-.3-.2-.3.6-.7.1-1-.3-1.4,0,0,0-.3.1-.3.8-.3,1-1.7.4-2.2,0,0-.2,0-.3,0-.2,0-.3,0-.5,0,.2,0,.3-.2.5-.3.1,0,.3,0,.4,0,0-.1,0-.3-.1-.4-.8-.8-.3-1.7,0-2.5.1-.4.2-.8.2-1.2,0-.4-1-.9,0-1.4,0,0-.1-.6-.3-.9-.4-.7-.7-1.3-.8-2.3-.1-1.2.9-1.7.9-2.7,0-.1.2-.2.2-.3,0-.4,0-.7,0-1.1-.2.3-.3.6-.5.9-.1.1-.3.2-.5.3,0-.2-.1-.5,0-.6.6-.7.5-1.6.4-2.4,0-.3,0-.6,0-.9.1-.5.1-1.2,1-.8.4.2.9,0,1.3.1-.3-.3-.7-.6-.9-.9-.3-.4-.6-.9-.6-1.3,0-.9-.2-1.6-.8-2.2-.2-.2,0-.8,0-1.2.2-1.2.5-2.4.7-3.6,0-.2-.3-.6-.5-.8-.5-.5-.6-.9-.2-1.5.2-.3.6-.8,0-1.2-.2-.3.8-.8-.2-1,0-.1.1-.3.2-.4.1-1,.6-2.1-.1-3.1,0,0,0-.3.1-.4.3-1.5.5-3.1.8-4.6,0-.2,0-.5,0-.5-1.1,0-.7-.9-.7-1.4,0-1.2-.3-2.4.5-3.6.2-.3-.2-1-.3-1.4-.2-.6,0-1.5-.8-1.8,0-.1.1-.4.2-.4.8-.2.9-.8.8-1.4,0-.3-.1-.7-.2-1,0-.2,0-.3-.1-.5,0,.2-.2.3-.3.5-.1.1-.2.3-.3.4,0-.2-.2-.5-.2-.7.2-.4.7-.8.7-1-.3-1,.3-1.8.2-2.7,0-.7,0-1.3-.5-1.8-.5-.5-.4-1.2,0-1.9.3-.4.5-.9.6-1.4,0-.1-.2-.3-.2-.5,0,.1-.2.3-.3.4-.2.3-.5.8-.6.8-.6-.3-.3-.9-.1-1.2.8-1.6.4-3.1-.1-4.6-.4-1.2-.4-2.5.2-3.7.1-.2.2-.5.1-.7-.6-1.1.4-1.5.8-2.2,0,0,.2,0,.3,0,.1,0,.3,0,.4,0,0-.2,0-.4-.2-.5-.5-.5-1.1-.9-1.6-1.4-.1-.1-.2-.3-.2-.5.2,0,.4,0,.6.1.2,0,.3.2.5.4,0-.2,0-.5,0-.6-.7-.9-.6-1.9-.1-2.8.5-1-.2-2-.3-2.9-.2-1.1-.2-2,.3-3,.2-.4.8-1.3-.4-1.4-.1,0-.3-.4-.3-.6,0-.1.3-.3.5-.4.1,0,.3,0,.5,0-.3-.4.7-.8-.1-1.2-.5-.2-.7-.9-1.5-.7,0,0-.2-.2-.4-.4.2-.1.3-.4.5-.4.4,0,.9,0,1.4,0,.1,0,.2-.2.3-.3,0,0-.2-.2-.3-.3-.5,0-1.1,0-1.6,0-.2,0-.4-.2-.7-.3.1-.2.2-.3.4-.5,0,0,.1,0,.2,0,.4,0,.9,0,1.2-.3.2-.1.2-.6.2-1,0-.4.1-.8.1-1.2,0-.9-.1-1.8-.2-2.7,0,0,0-.2.1-.2.1-.2.3-.4.4-.7-.2,0-.4-.2-.7-.3-.3,0-.8-.2-.7.4,0,0-.2.2-.3.3,0,0-.2-.2-.2-.3-.1-.3-.2-.6-.3-.8,0,0,0-.1,0-.2,1,.2.9-1,1.4-1.2.9-.4.6-1.1.6-1.6,0-.8-.4-1.6-.5-2.4,0-.3,0-.6,0-.8,0-.4.4-1.1-.6-1.1-.1,0-.4-.3-.4-.4,0-.2,0-.5.2-.7.7-.6.7-.8,0-1.4,0,0,0-.3,0-.4,0-.9,0-1.9.1-2.8.3-1.6.2-3.4,1-4.9,0-.2,0-.3.1-.5-.1,0-.3.1-.4.2-.3.4-.5.1-.6,0-.2-.3-.3-.6-.3-.9,0-.5.3-.9.3-1.4,0-.6.2-.9.8-.8.1,0,.2-.2.4-.4-.2,0-.3-.2-.5-.2-1.1,0-1.1-.2-.5-1.3.1-.2.2-.5.2-.7,0-.6-.3-1.3-.4-1.9,0-.5.2-1,.2-1.5,0-.9-.4-1.9-.1-2.7.3-.8.2-1.6.3-2.4,0-.2,0-.4,0-.5-.8-1.1.2-2.6-.5-3.7-.1-.2.2-.6.3-.9.2-.5.8-1.1-.4-1.1-.3,0-.5-.1-.7-.3-.2-.2-.5-.3-.1-.7.8-.8.8-2.3.3-3.4-.2-.4,0-1.1,0-1.6,0-.9.2-1.8.2-2.6,0-1.1-.3-2.2-.4-3.3,0-.1,0-.3,0-.4.2.1.4.2.5.3,0,0,0,.3,0,.4,0,.2.2.3.3.5,0-.2.3-.4.3-.5-.2-.6-.4-1.3-.8-1.9-.5-.8-.5-1.7.2-2.2.8-.6.7-1.4.4-2.1-.5-1.2-.9-2.4-.8-3.7,0-.1,0-.3-.2-.4-1.2-.5-.3-1.4-.4-2.2,0,0,.5-.3.5-.3.6.6.4,0,.4-.2,0-.6,0-1.3,0-1.9,0-.4-.3-.9-.3-1.3,0-.5,0-1,0-1.5,0-.7,0-1.4,0-2.1,0-.6.2-1.2.2-1.9,0-.7-.3-1.5-.5-2.2,0,0,0,0,0,0,.8-1.4-.5-2.9.2-4.3,0-.2.1-.5.3-.6.9-.7.5-1.2-.1-1.8-.3-.3-.6-.5-.1-1.1.3-.4,0-1.3,0-2,0-.2,0-.3,0-.5.4-.8.3-1.5-.2-2.2-.1-.2-.2-.5-.1-.7,0-.1.3-.2.5-.3,0,0,.2.2.2.4,0,.2,0,.5,0,.7,0,0,0,.2,0,.3,0,0,.3-.2.3-.2,0-1,0-2.1-.2-3.1,0-.1-.3-.3-.4-.3-.9.3-.9-.5-.7-.7.4-.5-.2-1.5.8-1.6,0,0,.2-.5,0-.7-1.1-1.3-.8-3-1.1-4.5,0-.1.2-.4.3-.4.8.3.5-.3.4-.6-.3-.9-1.1-1.9,0-2.8,0,0-.1-.7-.3-.9-.4-.5-.3-.9-.2-1.4.1-.8-.2-1.6.2-2.4,0-.1,0-.4.1-.4,1-.3.3-1.1.5-1.5.7-1.8-.5-3.3-.4-5,0-.3.2-.6.2-.9,0-.5,0-1.1,0-1.6,0-.3,0-.6,0-.9.2,0,.5,0,.7,0,.1,0,.3,0,.4,0,.2-.1.4-.3.5-.5,0-.2,0-.5,0-.7,0-.3-.2-.7,0-.9.8-1.3,1.6-2.6,1.5-4.2,0-.2.5-.7.6-.7,1.2.4,1-.7,1-1.1,0-.8.4-.9,1-1.1.2,0,.4-.3.6-.4-.2,0-.5-.2-.7-.1-.7.1-1-.2-.9-.9,0-.2-.2-.5-.1-.7,0-.2.3-.4.4-.6,0,.2,0,.4.2.5.1.2.3.3.5.4.3.2.7.4,1.1.5.2,0,.7,0,.8,0,.2-.3.1-.6.2-1-.2,0-.5,0-.6,0-.2-.1-.4-.3-.6-.5,0,0,0-.3.2-.4.2,0,.4,0,.6,0,.3,0,.7.4.9.3.5-.3.9-.7,1.4-1.1,0,0-.1-.2-.2-.2-.5,0-1,0-1.4,0-.2,0-.4-.2-.5-.3.1-.1.3-.3.4-.3.8,0,1.7-.1,2.5-.2.2,0,.4-.2.6-.4.1,0,.1-.3.2-.4,1.1-.8,1.5-2.1,2.2-3.1,0,0,.6-.9.7,0,0,0,0,.1,0,.2.2.2,2.3-.4,2.5-.7.2-.2.4-.5.6-.6,1.6-.7,3.2-1.4,4.9-2,.7-.2,1.5-.2,2.2-.3.5,0,1.1-.2,1.6.2.2.2.7,0,.3-.7-.4-.7-.2-1,.7-1,.9,0,1.8-.3,2.8-.4.2,0,.4.2.6.3-.2.2-.3.4-.5.4-.5.1-1,.1-1.6.2-.1,0-.3.2-.3.3,0,0,.1.3.2.3.5,0,1.1.3,1.4.1.5-.4,1.2-.5,1.6-.8.8-.7,1.7-.7,2.6-.8.3,0,.7-.3,1-.4.8-.3,1.1.7,1.8.8.5,0,1,.1,1.5,0,1.2-.3,2.3-.4,3.4.4.3.2,1,.2,1.1,0,.3-.5.5-.3.9-.2.9.3,1.8.4,2.5-.6.1-.1.5-.1.7-.2,0,.1-.2.3-.2.4,0,.3.2.7.3.7.5,0,1.1-.1,1.6-.3.5-.2.9-.6,1.2.3,0,.2.7.2,1.1.2.3,0,.7,0,1,0,.9,0,1.9,0,2.8.1,1.2,0,2.3.1,3.5.2.5,0,1,.2,1.3-.4,0,0,.4-.1.6,0,1,.6,2.1.9,3.2.7.4,0,.8,0,.5-.6,0,0,.3-.3.5-.3.6-.2,1.3-.3,1.9-.4,1,0,1.9,0,2.9,0,1.5,0,2.9,0,4.4,0,.1,0,.2-.2.3-.3-.1,0-.2-.2-.4-.2-.7-.1-1.3-.2-2-.4-.2,0-.4-.3-.6-.4.2,0,.4-.1.6-.2,1.3-.3,2.5-.2,3.1,1.2,0,0,.3,0,.4.1.2,0,.4.1.6.2-.2.1-.3.4-.5.4-.3.1-.7.1-1,.2-1,0-2,.1-3,.2-.1,0-.2.1-.3.2.1,0,.3.2.4.2.9,0,1.8,0,2.7,0s1.1,0,1.6,0c.7,0,1.1-.1.8-.9,0,0,.3-.2.4-.2.6,0,1.5.2,1.9,0,.6-.4,1.1-.4,1.7-.3.5,0,1,0,1.4.2,1.2.6,2.2.8,3.4,0,.7-.4,1.7-.3,2.5-.5.3,0,.6-.4.9-.5.3-.2.7-.4,1.1-.4.9,0,1.8.2,2.7.4,0,0,.2.1.3.2-.1.1-.2.4-.4.4-.3,0-.7,0-1.1,0-1.2.2-2.3.4-3.4.6,0,0-.2.3-.2.3,0,.2.3.4.4.4.6,0,1.2,0,1.7,0,.2,0,.5,0,.7,0,.3,0,.6.2.9.2-.1-.2-.3-.4-.4-.7,0,0,.1-.2.2-.2,1.8,0,3.7-.1,5.5-.2.1,0,.3,0,.4,0,.9,1.1,2.2.5,3.2.7,1.2.2,2.4,0,3.7,0,.8,0,1.5-.1,2.2-.6,0,0,.2,0,.2-.1.5-1.2,1.2-.8,1.9-.3.8.6,1.7,0,2.5,0,1.6-.2,3.1-.4,4.7-.6.9,0,1.9,0,2.8,0,.6,0,1.1.3,1.6.5.4.1.8.3,1.2.3,1.1,0,2.2-.2,3.3-.2.5,0,.9.3,1.4.5-.4.2-.8.3-1.3.5-.2,0-.4,0-.6,0-.1,0-.2.2-.3.4.1,0,.2.2.4.2.4,0,.9,0,1.3-.2,1-.4,1.9-.2,2.9,0,.5,0,1.1-.2,1.7-.3.3,0,.5,0,.2.3-.1.1-.1.3-.2.5.1,0,.3.1.4.1,1.6-.1,3.3-.2,4.9-.4.2,0,.5-.2.7-.3-.2,0-.4-.2-.7-.2-.7,0-1.5,0-2.2,0-.8,0-1.6,0-2.4-.4-.7-.3-1.6,0-2.5,0-.3,0-.5.2-.8.2-.1,0-.3-.2-.4-.2.1,0,.2,0,.4-.1,0,0,.2,0,.2-.1,1.2-1.3,2.5-.9,3.9-.5.6.2,1.3.2,1.9.3.6,0,1.2-.1,1.7,0,.8.2,1.6.5,2.5.2.1,0,.4,0,.5,0,0,.2-.2.3-.3.5-.1.2-.2.5-.3.7.2,0,.4-.1.7-.1,1,0,2-.1,3-.2.7,0,1.4-.1,2,.4,0,0,.4,0,.5,0,.1,0,.3-.2.4-.3-.2,0-.3-.1-.5-.2-.2,0-.5,0-.7-.1.2-.2.4-.3.6-.5.2-.2.4-.4.6-.6-.3,0-.6,0-.8,0-.9,0-1.8,0-2.7,0-.4,0-.8.3-1.3.4-.2,0-.5-.2-.7-.3.2-.1.3-.3.5-.4,2.3-.6,4.5-1,6.7.4,0,0,0,.1.1.1.2.1.5.3.7.4-.4.5-.6-.1-.9,0-.2,0-.4.4-.6.6.2.1.3.3.5.3.9,0,1.9.1,2.8,0,.6,0,1.2-.8,1.7-.7,1.1.1,2.3-.5,3.2.5.5.6,1.2-.1,1.8-.2,1.2-.1,2.2-.5,3.3.5.3.3,1.1.1,1.7,0,.1,0,.3-.4.3-.6,0-.2,0-.5-.2-.5-.2,0-.5,0-.6,0-.5.7-.9.3-1.2-.1-.1-.1-.2-.4-.1-.5.3-.6.9-.6,1.5-.5,0,0,0,0,.1.1.9,1.3,2.2,1,3.5.8.4,0,.9,0,1.2.3.8.5,1.4,0,1.9-.4.9-.7,1.8-.6,2.8-.5,0,0,.1,0,.2.1,0,0-.1.2-.2.2-1,.5-2,.9-3,1.4-.1,0-.2.2-.3.3.1,0,.3.2.4.2.8-.3,1.6-.6,2.5-.8.9-.2,1.8-.3,2.6-.4.2,0,.6,0,.6-.2.1-.8.7-.5,1.2-.6.6-.1,1.3-.3,1.9-.6.4-.2.6-.2.7.3.1.6.5.7,1,.7,1,.1,2,.5,3,.6,1.1.1,2.2,0,3.2-.7.6-.5,1.3-1,2-1.4.4-.2.8-.2.7.5-.1,1,.4,1.2,1.2,1.2.6,0,1.2.1,1.8-.3.4-.3,1.1,0,1.5-.5,0,0,.3,0,.4.2.4,1.2,1.3,1.6,2.2.8.4-.3.6-.2,1.1-.1.8.2,1.8,0,2.7-.1,0,0,.1-.1.1-.1.4,0,.7,0,1.1.2,0,0,0,.4,0,.4-.3,0-.6.2-1,.2-.6,0-1.1.1-1.7.2-.1,0-.3,0-.4.1.1.1.2.4.3.4,1.1,0,2.1-.1,3.2-.3.9-.1,1.8-.2,2.6-.5,1.3-.4,2.4-.4,3.6.2.3.1.8-.1,1.2-.2.9,0,1.8.2,2.8-.2.3-.1.7.2,1.1.4,1.5.7,3.2.2,4.8.4.2,0,.3,0,.5-.1-.1,0-.3-.2-.4-.2-1.4-.6-2.8-.7-4.3-.6-.3,0-.6-.3-1-.4.2,0,.5-.2.7-.3,1.2-.6,2.2,0,3.3.3,1.1.3,2.3.5,3.5.7.2,0,.5.1.7.2.7.2,1.2-.2,1.2-.9,0-.2.2-.4.3-.4,1.1-.5,2.2-.4,3.4-.4.1,0,.2,0,.4,0,0,0,0,0,0,0-.1,0-.3,0-.4,0-.2,0-.5,0-.6,0-.2.1-.4.4-.6.6.2,0,.5,0,.7.1,1.2.7,2.4.5,3.6,0,.5-.2,1-.2,1.6-.2.3,0,.6.3.9.4-.3.2-.5.5-.8.5-.5,0-1.1,0-1.6,0-.2,0-.4.4-.7.6.2,0,.5.2.7.2,1.3-.2,2.6-.2,3.8-.6.8-.2,1.4-1,2.1-1.4.2-.1.6,0,.8,0,.5.1,1,.6,1.6.2.2,0,.5.1.8.2.6.1,1.1.5,2,.1.7-.3,1.7.2,2.6-.1.1,1.1,1.1.6,1.6.7,1,.2,2.1,0,3.1-.1.3,0,.7,0,.9.2,1.1,1,2.5.9,3.9.9.2,0,.8.3.4-.4.1,0,.3-.1.4-.2,1.3,0,2.5.5,3.7.9,1,.4,2,.5,2.4,1.8,0,.1.4.2.7.2.7,0,1.4,0,2,.2.8.2,1.6.3,1.7,1.5,0,.2.4.6.6.6,1,0,1.7.6,2.3,1.3.5.5,1,.6,1.6.4.4-.1.8,0,1.2,0,0,0,0,.2,0,.2-.4.1-.7.3-1.1.4-.2,0-.4.1-.5.2.1.1.2.3.3.4.4.5.7.7,1.4.4.2,0,.5.2.8.4-.2,0-.5.1-.7.2-.1,0-.3.1-.3.2,0,.2,0,.5.1.6.6.6,1.3,1.2,1.9,1.8,0,0,.2,0,.3,0,.2,0,.4.1.5.2-.2.1-.3.2-.5.3-.1,0-.3.1-.5.2.2.1.3.3.5.4.5.1,1.1.1,1.7.2.2,0,.3.2.5.2-.2.1-.3.2-.5.3-.3.1-.6.2-.8.3.3.2.6.4.7.7.5.6,1.7.8,1.3,2.1-.1.3.5.9.8,1.4.3.5.4,1.1.7,1.6.2.3.6.5.9.8.4.3.6.6,0,1-.9.7-1,1.8-.2,2.5,0,0,.2.1.2,0,0,0,.1-.2.1-.3,0-.5-.1-1-.2-1.5,0,0,.3-.2.4-.2.8.6.9,1.7.5,2.4-.6,1.1-.6,2.4-.3,3.6.3,1.1.5,2.1.5,3.2,0,.7.2,1.5.3,2.2,0,.1,0,.3-.1.4-.5.9-.8,1.8-.3,2.9.4.9.5,2,0,3-.2.6-.4,1.3-.6,2-.1.4-.5.6-.7,1,0,.1-.1.3-.2.5.1,0,.3,0,.4-.1.8,0,1.7-.2,2.5-.2.1,0,.2.3.3.4-.2.1-.3.3-.5.3-.9,0-1.4.3-1.3,1.3,0,.4-.3.9-.3,1.4,0,.3-.7.8.3.9.1,0,.2,1.3,0,1.9,0,.2-.6.3-.9.5-.3.2-.6.5-.8.8-.2.3-.4.7-.6,1.1,0,.1-.1.3-.2.4.1,0,.2.1.4.2.6,0,.8-.2,1-.7.2-.5.6-.9.9-1.2,0,0,.6,0,.6.1.1.9.2,1.9.2,2.9,0,.7-.3,1.3-.3,2,0,.3.2.6.2.9,0,.2.2.4.1.5-.7,1.3-.2,2.6-.2,3.9,0,1.2-.4,2.5-.7,3.7-.2.8.1,1.5.9,1.7.2,0,.4.3.6.4-.2.2-.3.4-.5.5-1.1.6-1.4,1.9-.5,3,.4.4.4.7,0,1.2-.5.7-.6,1.6-.9,2.4-.1.3-.3.5-.4.8,0,.1,0,.3,0,.5,0,0,.2-.3.3-.3.2,0,.5,0,.6,0,.1,0,0,.4,0,.6,0,.3,0,.6,0,.9.3,1.1-.5,1.4-1.3,1.6-.2,0-.3.2-.5.3.2.1.3.3.5.3.6.1,1,.3,1.3,1.1.4,1.2.4,2.2,0,3.3-.2.6,0,1.4,0,2.1,0,1.1,0,2.2,0,3.3,0,.3.3.7.5.7.7.2.7.7.7,1.3,0,.2-.2.3-.3.5-.1,0-.2-.2-.3-.3,0,0-.1-.1-.2-.2,0,0-.2.2-.2.3,0,.4.2.9.2,1.3,0,2,0,4-.5,6.1-.3,1.4-.2,3-.4,4.5,0,.3.3.6.4.9,0,.5,0,1,0,1.4,0,.5,0,.9,0,1.4,0,1.2-.4,2.2-1.5,2.8-.3.2-.5.6-.8.9.5-.1.9-.2,1.4-.3.1,0,.2-.2.3-.3.2,0,.3-.1.5-.2,0,.1.1.3,0,.4,0,.6-.2,1.3-.3,1.9-.3,1,0,1.9,1,2.5.6.4,0,.6-.2.8-.7.6-.8,1.2-.4,2.1,0,.2.2.4.1.5-.7.6-.3,1.5-.4,2.2-.1.9-.2,1.8-.4,2.7,0,.1,0,.3,0,.4.4.9.2,1.8-.3,2.6-.1.2,0,.5-.1.7.2-.1.4-.3.6-.4.2,0,.5-.2.7-.1.4.2.4.5,0,.8-.2.2-.4.5-.3.7.1,1.6-1.3,1.4-2.1,2-.2.1-.4.3-.6.4.2.1.5.3.7.3.3,0,.5-.2.8-.2.4,0,1,0,1.1,0,.2.4.3,1.1,0,1.4-.3.5-.7.8-.4,1.6.2.4-.4,1-.5,1.5,0,.5.1,1.1.2,1.6.2,0,.4-.2.5-.2.2,0,.5-.3.6-.3.2,0,.5.4.5.6,0,.2-.4.5-.6.5-.7,0-.6.3-.6.7,0,.2,0,.4,0,.6-.1.5-.3.9.2,1.4.2.2-.1.9-.3,1.4-.3.7-.5,1.4-.2,2.2.1.3.1.6.1,1,0,.3-.1.6-.1.9,0,.9,0,1.8,0,2.7,0,.8,0,1.7.2,2.5.1.8-.5.8-.9,1-.2.1-.4.3-.6.5.3,0,.5.1.8.2,0,0,.1,0,.2,0,.5,0,1.4.1,1.4.2,0,.6,0,1.3-.2,1.9-.4.8-.7,1.5,0,2.4.2.2-.1.8-.3,1.2,0,.2-.5.2-.5.4,0,.8-.1,1.7.1,2.5.1.4.2.6-.1.8-.4.3-.5.6,0,1,.5.5.9,1.1.7,2-.2,1,0,2.1-.6,3.1-.1.2-.1.7,0,.8.9.9.4,1.9.3,2.8,0,.4-.4.7-.5,1.1,0,.2,0,.5,0,.7.1-.1.3-.3.4-.4.2-.4.4-.8.6-1.2,0-.1.2-.2.3-.3,0,.2.3.4.3.5-.4.9-.2,2-1.1,2.8-.3.2-.3,1.1-.1,1.6.1.5.6.9.9,1.4.5.6.3,1.7-.4,2,0,0-.3-.2-.5-.3,0-.1,0-.2,0-.3,0-.2.1-.3.2-.5,0,0-.1-.1-.2-.2,0,.3-.1.5-.2.8,0,0,.1.2.2.2M168.9,167.4c.3.4.5.9.8,1.3.4.6.9,1.2,1.3,1.9.4.8.7,1.6,1.1,2.4,0,.1.4.3.5.3.2-.1.5-.4.4-.5,0-.4-.2-.9-.4-1.3-.3-.5-1.1-1-1-1.4.2-.9-.4-1.6-.3-2.4,0,0,0-.1,0-.2.1,0,.3,0,.4,0,.3.3.7.7.7.9-.3,1.8,1.6,2.8,1.5,4.6,0,.8-.2.8-.7.8-.3,0-.5,0-.8,0-.2,0-.3.3-.4.4.1.1.3.3.4.3.7,0,1.4.2,2-.4.3-.3.9-.2,1.4-.4.2,0,.5-.2.5-.3.2-.8-.4-.9-.9-.8-.4,0-.7.1-1-.3.3,0,.6,0,.9-.1.2,0,.3-.2.4-.3-.1,0-.3-.2-.4-.3-.5-.4-1.2-.7-1.3-1.1-.2-.9-.5-1.7-1-2.5-.6-1.1-.1-2.7-1.5-3.6,0,0,0-.3,0-.4,0-.6-.7-.9-1.3-.7-.9.4-1.5-.1-1.5-1.1,0-.3-.1-.5-.2-.8,0-.2-.2-.4-.3-.6.2,0,.6.1.7.3.3.3.4.8.6,1.1,0,.1.3.2.5.3,0-.6.2-1.7,0-1.8-.8-.4-1.3-.9-1.4-1.8,0-.2-.4-.3-.6-.4-.2,0-.4,0-.5,0,.1.2.3.4.4.6.1.2.1.5.2.7-.3,0-.6,0-.9-.1,0,0-.1-.1-.2-.2-.4-.4-.9-.8-1.3-1.3,0,0,0-.2-.1-.3.1,0,.2,0,.3,0,.3,0,.5,0,.8-.1-.2-.3-.4-.6-.6-.8-.5-.3-1-.5-1.5-.9-.3-.2-.5-.6-.7-.9.3.2.7.4,1,.6,0,0,0,0,0,0,.4,0,.8.1,1.2.2-.2-.3-.3-.6-.5-.9-.5-.7-.9-1.4-1.5-2.1-.1-.2-.5-.2-.8-.2,0,.2,0,.4.1.6.4.4.2.5-.2.6-.7.2-1.4.5-2.1.8-.1,0-.2.5-.2.6.5.5,1,1,1.6,1.4.6.4,1.3.6,1.2,1.5,0,.1.4.3.6.5.5.5,1.3,1,1.4,1.7.2,1.1.7,1.9,1.4,2.6.2.2.5.7.4.8-.4.7-.5,1.2.2,1.8.5.4,1,.9,1.5,1.4M153.9,136c0-.4,0-.9,0-1.3,0-.3-.2-.5-.3-.7,0-.1-.3-.1-.4-.2,0,.3,0,.6.1.9,0,.2.1.4,0,.5,0,.1-.4.2-.5.1-.6-.2-1.1-1.2-.9-1.9.3-1,0-1.4-.8-1.8-.3-.1-.5-.3-.8-.4-.8-.3-.9-.7-.3-1.4.7-.9,1.1-1.9,2.1-2.6.7-.5,1.2-.9,2-.8.2,0,.4,0,.5,0,.2-.2.3-.4.4-.7-.2,0-.4-.2-.6-.2-.6,0-1.2,0-1.8,0-.2,0-.3-.2-.4-.3.1,0,.3-.2.4-.2.7-.1,1.5-.2,2.2-.3,1.1,0,2.2,0,3.2-.2,1.3-.2,2.4-1,3.4-1.8.4-.3.9-.5,1.4-.8.5-.2,1.1-.4,1.6-.6.6-.2,1.1-.6,1.7-.6.9,0,1.9.2,2.3-.9,0-.1.2-.2.3-.3,1.3-.3,2.6-.6,3.9-1,.4-.1.9-.2,1.3-.4.3-.2.4-.7.6-1.1,0,0-.2-.3-.2-.2-.3.1-.5.3-.8.4-.4.1-.9.3-1.3.3-.1,0-.3-.2-.4-.4.2,0,.4,0,.5-.1.2,0,.5,0,.5,0,.6-1,1.7-.8,2.6-.9,1-.1,2,.1,2.8.9.4.3.9.5,1.5-.2.6-.8,1.7-1.3,2.7-1.1.8.2,1.3-.2,2-.3.3,0,.6-.1.8-.3.2-.1.3-.3.5-.5-.2-.1-.5-.4-.7-.4-.4,0-.7.3-1.1.3-.1,0-.3-.2-.5-.3,0,0,.2-.2.3-.2.6,0,1.2,0,1.8-.3.6-.3,1.2-.7,1.7-1.2.2-.2.2-.7.4-1,.6-.5.7-1.2.6-1.9,0-.3-.4-.5-.6-.8.3,0,.7,0,1-.1,0,0,0,0,.1-.1.6-.7,1.4-.9,2.3-.9.4,0,.9,0,1.3-.2.2,0,.3-.3.5-.5-.2,0-.4-.3-.6-.3-.5,0-1,.2-1.5.1-.4,0-.8-.3-1.1-.5,0,0,0-.2,0-.3.2-.3.5-.7.8-.9.1-.1.3-.1.5-.2,0,0,0,.2.1.4,0,.2.1.3.2.5.2-.1.3-.3.5-.3.4,0,.3-1.2,1.2-.6.3.2.8-.2,1.2-.3-.3-.1-.7-.3-1-.4-.2,0-.3-.2-.5-.2.1-.1.3-.2.4-.3.5-.4,1.1-.8,1.6-1.2.1-.1,0-.5,0-.7,0-.2-.3-.2-.5-.3.2,0,.4-.1.6,0,.3,0,.6.2.9.2.2,0,.4-.2.6-.3.1-.1.1-.3.2-.5-.2,0-.4,0-.6-.1-.2,0-.4,0-.6-.1.1-.2.2-.3.4-.5.4-.3.9-.6,1.3-.8.2-.1.3-.3.5-.3.6-.2,1.3-.4,1.8-.7.3-.2.5-.6.7-.9-.4,0-.8,0-1.3.1,0,0,0,.1-.1.1-.1,0-.3,0-.4,0,0-.2,0-.4,0-.4.4-.2.8-.6,1.3-.6,1.1-.2,2.2.3,3.1-.6.1-.1.3-.3.4-.5-.2,0-.3,0-.5,0-.2,0-.3-.3-.5-.4,0,0,.1,0,.2-.1.6-.6,1.6-1.1,1.9-1.9.3-1,.7-.5,1.2-.4.3,0,.9.2,1,0,.9-1.4,2.8-.9,3.7-2.4.4-.6,1.3-.8,2-1.2.2-.1.5-.1.8-.2,0,.2-.2.4-.2.7,0,.1,0,.3,0,.5.1,0,.2-.1.3-.2.1-.1.4-.3.4-.4-.2-1.3,1-1.3,1.6-1.8.3-.2.8-.5.8-.8,0-.4-.2-.9-.9-.8-.1,0-.5-.5-.5-.5.4-.5,1.5-.5,1.9,0,.1.1.2.4.3.4,1,0,2.1.2,3.1.2.2,0,.5-.4.7-.6-.3,0-.5,0-.8-.1-.3,0-.6-.1-.8-.2,0,0,0-.2,0-.3.3-.2.6-.6.8-.5,1.6.3,3.1.3,4.3-1,.2-.1.4-.2.7-.2.5-.1,1.2,0,1.4-.4.4-.8,1-.5,1.6-.6.3,0,.7-.4.7-.5-.4-.9.4-.8.7-.8.5,0,1.1.1,1.6,0,.6-.1,1.1-.4,1.7-.7,0,0-.2-.4-.2-.6,0-.1,0-.4.1-.4.1,0,.4,0,.5,0,0,0,0,.1.1.2,0,.2,0,.4,0,.6,0-.2.2-.4.3-.6.1-.4.8-.8,0-1.1-.8-.4-1.7-.8-2.6,0-.1.1-.4.2-.6.2-.3,0-.6-.3-.9-.4.2-.2.5-.4.7-.5.6-.2,1.2-.2,1.8-.4.3,0,.6-.3.9-.4-.4-.1-.7-.3-1.1-.4-1-.1-1.8-.7-2.2-1.6-.2-.5-.4-.6-.9-.6-1,.2-1.8-.2-2.4-1-.1-.1-.3-.2-.4-.4-.3-.2-.5-.5-.8-.7.3,0,.7,0,1,0,.3,0,.5.3.7.3.3.1.6.2,1,.2,0,0,.2-.3.3-.5-.7-.3-1.4-.8-2.1-.8-1.8,0-2.6-1.3-3.6-2.2-.3-.3-.7-.6-1-.7-.8-.2-1.6-.1-2.3-.2-.2,0-.4-.2-.6-.4.2,0,.4-.2.5-.2.5,0,1,0,1.4,0,.3,0,.5-.3.7-.5-.2,0-.5-.2-.7-.2-.4,0-1.1-.4-1.3-.2-.5.6-.7,0-1-.2-.2-.2-.3-.6-.5-.6-1.1-.1-1.8-1.3-2.9-1.3-.9,0-1.9-.2-2.8-.2-.3,0-.5,0-.8,0,.2-.2.4-.4.7-.5.7-.3,1.4-.5,2.1-.8.3-.2.5-.6.8-.9-.4.2-.9.3-1.3.6-.6.5-2.4.5-2.9-.1,0,0-.2-.2-.2-.3.1,0,.2,0,.4,0,.6,0,1.2-.1,1.9-.2.1,0,.2-.2.3-.3-.1,0-.2-.2-.3-.2-1,.3-1.9-.8-2.9,0,0,0-.4,0-.5-.1-.5-.3-1-.7-1.5-1.1-.5-.3-.9-.6-1.5-.9-.2-.1-.6-.1-.9-.2,0,.3.2.6.2.9,0,.2-.1.5-.2.7,0,0-.4,0-.5-.1-.4-.3-.7-.6-.5-1.2.1-.4-.1-.7-.5-.4-.6.4-.8-.1-1-.4.3,0,.5-.1.8-.2.2,0,.4-.2.5-.4,0,0,0-.3,0-.3-.3-.2-1.7,0-1.9.4-.1.2-.5.4-.5.4-.4-.2-.7-.6-1-.9.2,0,.4-.1.6-.3.2-.1.3-.4.4-.5-.2,0-.3-.2-.5-.2-.4,0-.7.2-1.1.3-.1,0-.3.1-.3.1-.8-.3-1.8-.5-2.4-1.1-1.3-1.2-2.9-1.2-4.4-1.1-1,0-1.7-.2-2.5-.7-.2,0-.4,0-.6-.1,0,.2.1.4.1.5,0,.2,0,.4,0,.7-.2,0-.3-.1-.5-.2-.1,0-.1-.4-.2-.4-.6-.1-1-.5-.9-1.1-.5.1-1,.3-1.6.3-1.4,0-2.8-.2-4.2-.4-1-.2-1.9-.6-2.9-.9-.4-.1-.9-.4-1.3-.4-1,0-2,.1-3.1.2-.3,0-.7-.3-1-.4l-.9-.7c-.7-.1-1.4-.3-2.2-.4-.2,0-.4.2-.7.3.2.1.3.2.5.3.2,0,.4,0,.6.2.2,0,.3.3.4.4-.1.1-.3.3-.4.3-1.7,0-3.4.2-5.2.2-2.5,0-4.9-.4-7.4-.5-.2,0-.4.2-.6.3.2,0,.4.2.6.2.4.1.8.2,1.1.3-.4.2-.8.4-1.2.6,0,0-.2-.1-.3-.1-.9.1-1.9-.4-2.6.6-.1.2-.7.3-.9.1-.8-.4-1.4,0-2,.2-.8.2-1.5.5-2.3.7-.3,0-.7,0-1.1,0-.4,0-.9.3-1.3.2-1-.3-1.9.1-2.7.5-1.1.5-2.1,1.1-3.3,1.1-.3,0-.6.2-.7.4-.3.7-.8.6-1.4.4-.1,0-.2-.2-.4-.3.1,0,.3,0,.4-.1.4,0,.9.2.9-.5,0,0-.1-.3-.2-.3-.7,0-1.4.1-2.1.2,0,0,0,.2,0,.4,0,.1,0,.2,0,.3.3.8-.3,1.1-.9,1.2-.6,0-1.3.2-1.8,0-1-.3-.6.2-.5.6.3.7-.3,1.3-.7,1.3-1,0-1.6.6-2.4,1-.5.2-.9.5-1.4.6-1.4.3-2.8.6-3.7,1.9,0,0-.2.2-.3.2-1.2.4-2.5.7-3.6,1.3-.7.4-1.2,1.6-2.3,1.1,0,.1,0,.3,0,.4-.3.2-.7.4-1.1.6-.3.1-.7,0-1.1.1-.6.2-1.2.4-1.8.7-.1,0-.3.1-.4.2,0,.1.1.3.3.4.2.1.4.1.6.2.2.1.5.3.7.4-.3.2-.5.4-.8.5-.2,0-.5,0-.8,0-.2,0-.4,0-.6,0,.2.2.4.6.6.5.6,0,1.1-.3,1.7-.3.6,0,1.3-.2,1.8,0,.8.4,1.6.4,2.3.1.8-.3,1.2-.3,1.5.6.1.3.7.6,1,.5.3,0,1.2.2,1-.8,0,0,.2-.3.3-.3.2,0,.5,0,.7,0,0,.1-.2.2-.3.3,0,.2,0,.5.1.5,1.1.4,2.2.7,3.2,1.1.2,0,.5,0,.7,0,.3,0,.6-.1.9-.2-.2.2-.5.4-.7.5,0,0-.1,0-.2,0-.2.1-.4.3-.5.4.3.1.5.3.8.3.2,0,.4-.2.6-.3.6-.5,1.2-.3,1.5.4.1.2.4.5.6.5.9,0,1.8,0,2.6,0,.2,0,.4.1.6.2-.2.1-.3.2-.5.4-.1.1-.2.2-.3.3.1,0,.3.2.4.2.6,0,1.1,0,1.7,0,.7,0,1.3.1,1.9.5.9.5,1.6,1.7,2.9,1.1,0,0,.2.2.3.2.5.2.8,1.1,1.7.8.3,0,1,.4,1.2.8.2.4.3.5.6.5.4,0,.8,0,1.2,0,.2,0,.3.2.4.4.3.7.6,1.3,1,2,0,0,.4,0,.5,0,1-.4,2.1-1.1,3.2-.1.2.1.5.1.7.2.5.1.9.3,1.4.4,0,0-.1.3-.2.3-.5,0-.9,0-1.4-.1-.2,0-.4-.2-.7-.3-.4-.1-.8-.2-1.2-.3,0,0-.3.3-.2.4.4.6.7,1.4,1.7,1.2.3,0,.6,0,.9.2.3.2.5.4.7.7-.3,0-.6.2-.9.3-.3,0-.5,0-.8,0,0,0-.2,0-.3.2,0,0,.1.2.2.2,1,.1,2,.3,3,.4.5,0,.9,0,1.1.6,0,.3.4.5.7.7.5.3.9.6,1,1.3,0,.3.7.6,1,.9,0-.4,0-.8-.1-1.1-.1-.3-.4-.5-.6-.8,0-.1-.2-.2-.3-.3.2,0,.3,0,.5,0,.9,0,1.6.5,1.9,1.5.2.8,0,1.8,1.3,1.9,0,0,.3.4.2.4-.4.9.1.8.7.9.2,0,.4.2.7.4-.2.2-.4.4-.6.6-.1,0-.4,0-.6,0-.2,0-.4,0-.6.1,0,0,0,.2.1.2.2,0,.4.1.7.1.9,0,1.8,0,2.7,0,.2,0,.4.2.6.3-.3.1-.6.3-.9.4-.2,0-.4,0-.6,0,0,.3,0,.6.1.8,0,.1.5,0,.7,0,.4,0,.7-.3,1.1-.4.3,0,.6,0,.9,0-.1.2-.2.4-.4.6-.2.2-.4.4-.6.6-.3.2-.7.4-1,.7.4,0,.9,0,1.3.1,1,.2,1.9.5,2.9.5,1,0,1.5.7,2.2,1.1.1,0,0,.5.1.7-.2,0-.4-.1-.5-.2-.3-.2-.7-.5-1-.6-.2,0-.6,0-.8,0,.2.2.3.6.5.6,1.7.5,2.5,2.1,3.7,3.2.2.1.2.4.3.7,0,.2.1.3.2.5,0-.1.1-.3.2-.3.4,0,.9-.1,1.2,0,.2,0,.3.4.4.6-.3,0-.6.2-1,.3-.2,0-.4.2-.6.2.2.2.5.4.7.5.6.2,1.3.2,1.9.4.5.2.7.7,1.2.9.8.4,1.5,1.3,1.7,2.1.2.8.5,1.4,1.1,1.9.4.4.9.6,1.3,1,.1.1.2.3.3.5-.2,0-.4.2-.6.1-.4,0-.7-.1-1.1-.1-.1,0-.2.2-.3.3.1.1.2.3.4.3.4,0,.9,0,1.3.2.3,0,.6.3.9.5,0,0,0,.5-.2.6-.3.1-.6.2-.9.2-.1,0-.2-.1-.3-.1-.2,0-.3,0-.5.1.1.1.2.4.3.4.6.2,1.1.6,1.7,0,.1,0,.3-.2.4-.2.3,0,.6.2.9.3-.2.2-.4.6-.6.6-1.1,0-2.2,0-3.3,0-.2,0-.5-.2-.6-.4-.4-.8-.9-.4-1.5-.3-.6.2-1.3.3-1.9.4-.2,0-.3,0-.5.1.1.1.3.4.4.4.6,0,1.1,0,1.7,0,.2,0,.4,0,.6,0-.2.2-.3.4-.5.4-.3.1-.6.2-1,.2-.3,0-.7,0-.8.1-1,1-2.4.5-3.5,1.2-.5.3-1.3.1-1.8.4-1.7,1-3.3,2-5.4,1.8-.6,0-1.4-.2-1.6.7,0,.3-.3.6-.5.9,0,.1-.3.3-.4.2-.2,0-.3-.2-.4-.4,0-.1-.3-.3-.4-.3-.3.2-.6.3-.8.6-.5.8-1.3,1-2,.9-1.1-.2-1.9.1-2.7.8-.5.4-.9.7-1.4,1-.7.4-1.3.9-2,1.2-.8.4-1.5,1.1-2.6,1.2-.7,0-1.6.5-2,1-.9,1.2-1.4,1.5-2.8,1.2-.5-.1-1,0-1.5.2-.1,0-.1.4-.2.6.2,0,.3,0,.5,0,.5,0,.9,0,1.4,0,.1,0,.3,0,.4.1,0,.2-.2.4-.3.4-.6,0-1.3,0-1.9,0-.4,0-.8-.2-1.2-.2-.1,0-.2.4-.3.6.1,0,.3,0,.4,0,.3.1.5.3.8.5-.2,0-.4.3-.7.3-1,0-2,.1-3,.2-.1,0-.4.3-.4.3.5.9-.3.9-.8,1.2-.4.2-.9.4-1.3.6,0,0-.1.3,0,.4,0,.2.2.3.3.5-.3.1-.5.4-.8.4-1.1,0-2.2,0-2.9,1.2-.2.4-.9.6-1.4.9-.2,0-.3.2-.5.3.2.1.4.3.6.3.4,0,.8-.1,1.2-.2.7,0,1.4-.1,2-.3.4-.1.5-.6,1.1-.8.9-.3,1.7-.7,2.8-.4.4,0,.8-.1,1.2-.2,1.2-.1,2.3-.3,3.5-.4.2,0,.6.3.7.5.6.8,1.2,1.6,1.8,2.3.2.2.6.4.9.5.3.1.7.3,1,.4-.3.3-.6.5-.9.8-.1.1-.2.2-.3.4,0,0,.1.2.2.2.6.3,1.2.5,1.8.8.2,0,.3.3.4.5-.3,0-.6.1-.9.1-.1,0-.2-.3-.3-.3-.5,0-.9,0-1.4,0,.3.2.5.5.8.7,0,0,.2.2.3.2.9.2,1.7.3.8,1.5,0,.1,0,.4,0,.6,0,.1.2.2.3.2.6,0,1.2-.3,1.8-.3.4,0,.9.2,1.4.3-.4.2-.9.4-1.3.6-.1,0-.3,0-.4.1,0,.2,0,.4.2.5.2.2.5.3.8.3,1,.1,1,.2.7,1.2-.3.8,0,1.3.9,1.4.4,0,.7.3,1.1.4-.4.1-.7.2-1.1.3-.2,0-.3.2-.5.3.1.1.3.3.4.3,1.2.3,2.2,1.8,1.9,3.1-.1.7.3,1,.7,1.4.7.5,1.3,1.1,1.9,1.6.3.2.7.5,1,.4.7-.2,1.3-1.9,1-2.5-.4-.8,0-.7.5-.7.2,0,.3,0,.5.1,0-.2,0-.4-.2-.6-.2-.2-.4-.3-.7-.5-.4-.3-.9-.5-1.1-.9-.5-1.6-1.5-2.6-2.9-3.3-.2-.1-.4-.4-.5-.6.2,0,.4,0,.7,0,.3,0,.6,0,.9-.2.1,0,.2-.3.4-.4-.2,0-.3-.1-.5-.2-1-.2-2-.3-1.9-1.7-.2,0-.4,0-.7,0-.2,0-.4,0-.7,0,.1-.2.3-.5.4-.5.6,0,1.2,0,1.8,0,.2,0,.3-.1.5-.2,0-.1-.2-.3-.3-.3-.8-.2-1.7-.2-2.5-.5-.2,0-.4-.5-.5-.8,0-.1.3-.4.6-.5.1,0,.4,0,.5,0-.1-.2-.2-.6-.4-.7-1-.3-2.1-.6-3.1-.9-.2,0-.3-.2-.5-.3.2,0,.3-.2.5-.3.6,0,1.3-.1,2-.2.2,0,.3-.2.5-.4,0,0-.2-.2-.2-.2-.4-.2-.9-.4-1.3-.7M72.7,104.2c-.3.6-.7,1.2-1,1.8-.5,1.2-1.2,2.1-2.5,2.4-.3,0-.6.4-.7.7,0,.1,0,.4.1.6.2,0,.4,0,.5-.2.5-.4.9-.9,1.4-1.1.7-.3,1.4-.8,2.1,0,.1.1,0,.4.1.6-.1,0-.3-.2-.4-.2-.2,0-.4-.3-.5-.2-.5.4-1.1.7-1.4,1.2-.3.6-.7.9-1.4.9-.7,0-1.1,0-.6.9,0,0-.1.3-.2.5-.2.4-.4.9-.5,1.3-.1.3-.1.6-.3.8-.4.6-.6,1.1.2,1.4,0,0,.1.2.2.3-.1,0-.2,0-.3,0-.6,0-.9.2-1,.8,0,.5-.3,1.1-.6,1.5-.4.6-.6,1.1-.5,1.7,0,.1,0,.4-.2.5-.4.3-.9.6-1.4.8-.2,0-.3.2-.5.2.2.1.4.3.6.3.3,0,.5,0,.8,0,.2,0,.3,0,.5-.1,0,.2,0,.5,0,.6,0,.1-.3.2-.5.2,0,0-.2,0-.3-.1,0,.1,0,.3,0,.4-.2.3-.3.6-.5.9-.1,0-.3-.2-.4-.3-.2-.2-.5-.4-.7-.6-.1.4-.4.7-.4,1.1,0,.3,0,.6.2.9.4,1,.2,1.6-.7,2.1-.7.4-1.4,1.7-1.1,2.3,0,.1.2.2.2.3,0-.1.1-.2.2-.3.3-.5.5-1,.8-1.5.1-.2.5-.2.7-.2,0,.2.1.5,0,.7-.7,1-.9,2.1-1,3.3,0,.6-.6,1.5-1.2,1.7-.8.2-.6.6-.5,1,0,.4.4.7.6,1.1,0,0,0,.2,0,.3-.7-.1-.7.5-.9.9-.2.3-.6.6-.9.9-.3.2-.6.4-.8.6,0,0,0,.2,0,.3.4-.1.7-.2,1.1-.3,0,0,0,0,0,0,.2,0,.5-.2.6,0,.1.1.1.4.1.6,0,.2,0,.6.1.7.5.3.4.5.2.9-.2.2-.3.5-.5.8,0-.3,0-.6-.1-.9,0-.3-.1-.6-.3-.8,0,0-.5-.1-.5,0-.1.2-.2.4-.2.7,0,1.3-.6,1.7-1.9,1.2,0,0,0-.1-.1-.1-.3,0-.6,0-.8,0,0,0,0,.2,0,.2.2.1.5.2.8.3,0,0,.1,0,.2,0,1.2.1,2.7,1.8,2.5,2.9-.1.8-.6,1.6-.7,2.4-.1.8-.4,1.3-1.3,1.3-.2,0-.3.4-.5.7.2,0,.4.3.6.2.5,0,1.1-.3,1.6-.3.2,0,.5.2.7.3-.3.2-.5.3-.8.5,0,0-.2,0-.4,0-.1,0-.4.1-.4.2-.1.5-.2,1-.2,1.5,0,.2.3.5.5.6.1,0,.4,0,.6,0,.2,0,.5.2.7.4-.2.2-.4.5-.7.6-.3.1-.6,0-1,0-.1,0-.3.2-.3.3,0,.3.1.6.2,1,0-.1.2-.3.3-.3.3,0,.7-.1,1-.2,0,.2,0,.6-.2.7-.7.5-1,1.6-2.1,1.6,0,0,0,.4,0,.4.3,0,.7.3.9.2.6-.4,1.2-.4,1.8-.2.1,0,.3,0,.5,0,0,.1-.2.2-.3.3-.7.8-1.3,1.8-1.4,2.9,0,.7,0,1.4,0,2.1,0,.7.3,1,.8,1.2.1,0,.2,0,.3.1,0,0-.1.2-.2.2-1.1.4-.4,1.3-.5,1.9,0,.2.7.5,1,.7,0,0,.1.2.1.2-.2.6-1.6,1.8-2.2,1.9-.1,0-.3,0-.4.1.1.2.2.4.3.4.5,0,1,.3,1.5-.1.2-.2.6,0,1,0-.1.2-.3.4-.4.6-.1.2-.4.3-.5.5-.2.4-.2.8-.3,1.2.3,0,.6,0,.9,0,.2,0,.3,0,.5,0,.2,0,.5.2.7.3-.2,0-.4.2-.6.3-.3.1-.5.2-.8.4.2.2.5.4.7.6.3.2.8.3.5,1-.1.2.1.8.3.9.6.3.6.8.6,1.3,0,.4.4.7.6,1,.1.2.3.2.5.4-.2,0-.4.1-.7.2-.1,0-.3,0-.4,0,.2.6.4,1.2.7,1.8.1.3.4.4.7.7,0,0,0,.2.1.3,0-.1,0-.3,0-.3.2-.1.4-.2.6-.2.1,0,.2,0,.3,0-.1.2-.3.3-.3.5,0,.3,0,.6.1.8,0,.2,0,.4.1.5-.2,0-.5,0-.6,0-.9-.9-1.7-1.9-2.5-2.9-.2-.2-.3-.4-.5-.5,0,.3-.2.7,0,.9.5.9,1.2,1.6,1.7,2.5.3.7.9.5,1.4.8,1.2.7,1.3.7,1.3-.7,0-.8.2-.9.9-.8,0,0,.2,0,.2,0,.2-.7,1.3-1.1.5-2.1,0,0,.3-.5.4-.5.3,0,.6.3.9.3.5,0,1,0,1.4,0,.2,0,.4-.2.6-.3.7-.2.7-.3.3-.8,0,0,0-.2,0-.3.7-.6.5-1-.3-1.2-.2,0-.3-.2-.4-.4.2-.1.3-.3.5-.3.2,0,.4,0,.6,0,.6.5,1.1.3,1.7-.2.2-.2.6-.1.8-.3.6-.3,1.1-.7,1.6-1.1,0,0-.4-.6-.5-1,0-.2,0-.5,0-.7.1-.2.5-.4.6-.3.2.1.4.5.3.7-.4,1.4.5.6.9.5.3,0,.7-.3,1-.4.5-.2.9-.4.7-1-.1-.5.2-.8.7-.7.8.1,1.3-.2,1.7-.8.1-.2.5-.4.6-.3.6.4.6,0,.5-.3-.3-.9.2-1.2.8-1.5.9-.4,1.7-.8,2.6-1.2.1,0,.3,0,.4,0,.5.6.9.2,1.3,0,.8-.4,1.6-.7,2.3-1.2.8-.5,1.6-1.1,2.4-1.6.8-.5,1.6-1,2.4-1.5,0,0,.2,0,.3.1,1.1,0,2.3,0,3.4,0,.1,0,.3-.2.4-.2-.1,0-.3-.1-.4-.1-.7-.1-1.3-.2-2-.4-.3,0-.6-.2-.9-.3.3-.2.6-.7.9-.6,1.1,0,2.2.2,3.2.4.1,0,.3.2.4.3.1.1.2.3.3.5.2-.2.5-.5.7-.7-.2-.1-.4-.3-.6-.4-.1,0-.3,0-.5,0-.2-.1-.3-.3-.4-.5.2,0,.4-.2.6-.3,1.1,0,2.1,0,3.2,0,.2,0,.5,0,.6,0,.9-.9,2.1-.7,3.1-.9,1.4-.2,2.8-.3,4.2-.4.6,0,1.2-.4,1.8-.5.7,0,1.5.2,2.2.3.2,0,.5,0,.7-.2,0,0,0-.3,0-.5,0,0,0-.2.1-.3,1,0,.7-.7.5-1.2-.2-.5.1-1.1.7-1.1,1.8,0,2.5-.3,2.3-2.2,0-.1.2-.3.2-.3,1,.3,1-.5,1.3-1.1,0-.1.1-.4.2-.4,1-.1,1.1-.7.6-1.4,0-.1-.2-.3-.2-.5,0-.1,0-.3,0-.5.1,0,.3,0,.4.1.5.3,1.6-.2,1.7-.6,0-.2.2-.6.4-.7,1.4-.3,2.2-1.3,3.2-2.2.2-.2.2-.6.3-.9-.3,0-.7-.4-1,.1,0,.1-.5,0-.8,0,0-.2,0-.4.1-.6.2-.6.7-.6,1.3-.6.9.1,1.8.1,2.7.1.2,0,.3-.3.5-.5-.2,0-.4-.2-.5-.3-.3,0-.7,0-1,0-.9-.3-1.8-.3-2.7.2-.5.3-1.1.6-1.6.9,0,0,0,.4.2.5.2.2.5.1.1.5-.7.7-1.4,1.4-2.1,2.1-.1.1-.4.2-.6.2-.7,0-1.2.4-1.3,1.1,0,.3-.3.6-.5.8,0,.1-.2.2-.3.3.1,0,.2.1.3.1.7,0,.5.3.2.6-.3.2-.7.3-1,.4-.2,0-.3.2-.5.3.1.2.3.4.4.5.1,0,.4,0,.6,0,.1,0,.2.1.3.2,0,.1-.2.3-.3.4-.2,0-.5,0-.8,0-.1,0-.3.2-.3.3,0,.8-.2,1-.9.8-.5-.1-.9-.1-1.4-.2-.3,0-.5-.2-.7-.3-.4-.2-.8-.5-1.1-.8-.5-.4-1.1-.8-1.5-1.3-.3-.3-.4-.9-.6-1.3,0-.1-.3-.2-.4-.3,0,.2-.2.4-.1.5.1.5.4,1,.5,1.5,0,.2,0,.4,0,.6-.2-.1-.4-.3-.5-.4-.2-.3-.3-.7-.6-1.1-.2-.2-.5-.3-.8-.5.4-.4,0-1.3.8-1.5.2,0,.4-.6.3-.8-.4-.9-.8-1.7-1.4-2.5-.7-1.1-.8-2.2-.9-3.4,0-.2-.1-.5-.2-.7-.1.2-.2.4-.4.6-.2.2-.4.4-.5.5-.1-.3-.4-.7-.3-.9.4-.9.4-1.6-.1-2.5-.2-.3-.2-.7-.2-1.1,0-.8.2-1.7-.6-2.4,0,0,0-.4,0-.5.7-.6.4-1,0-1.5-.7-.6-1.1-1.4-.7-2.4,0-.2-.2-.7-.5-.9-.5-.3-1.1-.5-1.6-.8-.1,0-.2-.2-.4-.3.8-.6,0-.9-.3-1.4-.2-.3-.3-.7-.4-1.1.3,0,.5-.1.8-.1.5,0,1,0,1.5.1-.3-.4-.7-.7-1-1.1-.1-.2-.2-.6-.1-.6,1-.4.5-.9,0-1.4-.2-.2-.2-.6-.3-.9-.2-.5-.4-1-.6-1.5-.1-.3-.4-.5-.4-.8,0-.7-.2-1-.9-1-.8,0-.7-.8-.7-1.3,0-.5.2-.9.9-.8.5,0,1.1.1,1.3-.6-.5-.1-1-.3-1.4-.4,0,0-.2.1-.3.1-.1,0-.3-.2-.3-.3.7-1.3.1-2.7.1-4,0-.3-.2-.5-.2-.8,0-1.1.1-2.1.2-3.2,0-1.1-.2-1.2-1.1-.7-.1,0-.2.3-.3.3-.2,0-.3-.2-.5-.4,0,0,0-.1,0-.1.5-.1.9-.4,1.4-.4.6,0,.9-.4.9-.8,0-.4-.3-1-.6-1.1-.5-.2-.4-.4-.3-.7.2-.8.4-1.6.6-2.4,0-.2,0-.4,0-.7,0,0-.3,0-.3,0,0,.2-.2.4-.2.6,0,.2,0,.3,0,.5,0,.7-.4,1-.5.6-.1-.5,0-1,0-1.6,0,0,.1-.1.2-.2,1-1.2,1-1.4.2-2.8,0,0-.1-.2-.1-.2,0-.4.1-.7.2-1.1.3.2.6.3.9.5.1,0,.2.3.3.4,0-.2.1-.4,0-.5,0-.2-.3-.4-.4-.6-.2-.2-.5-.4-.6-.6,0-.1.4-.4.5-.6.2-.3.4-.7.3-.9-.5-.6,0-1.1,0-1.7,0-1.2.9-.6,1.5-.8,0,0,0,0,0,0,.1-.1.3-.3.4-.4-.1-.1-.3-.3-.4-.3-1.6-.4-1.5-.4-1.1-1.9.1-.4-.2-1.1,0-1.3,1.1-.8.4-2.5,1.8-3.1,0,0,0-.5,0-.8-.2,0-.5.1-.6.3-.4.5-.7,1-1.1,1.4-.3.2-.8.2-1.1.2-.2,0-.4-.4-.6-.7.3,0,.6-.2.9-.3.2,0,.4-.1.6-.2.6-.2.9-.9.7-1.4-.4-.9,0-1.5,1-1.5.6,0,.8-.3.8-.7,0-.4,0-.8,0-1.2,0-.8-.7-1.1-1.4-.8-.6.2-1.2.3-1.8.7-.5.3-1.4.3-1.6,1.2,0,.2-.9.3-1.4.4-.1,0-.3-.4-.4-.6.2-.1.3-.3.5-.3.5-.2,1-.4,1.4-.6.2,0,.3-.3.4-.5,0-.1,0-.3,0-.4-.2.1-.4.2-.5.4-.7.5-1.5.9-2.2,1.4-.3.2-.7.2-1,.4-.2,0-.3.2-.4.3.2.1.4.3.6.3.2,0,.5,0,.7,0,0,0,.2.3.2.3-.4.3-.9.8-1.3.7-1-.3-1.6.5-1.9.9-.9,1.4-2.2,2.1-3.7,2.4-.2,0-.3.2-.5.3.2.1.4.3.5.3.5,0,1,0,1.5,0,0,0,.2.1.2.2-.5.5-.9,1.1-1.4,1.5-.2.1-.7-.2-1.1-.3,0,0-.1-.2-.1-.3.2,0,.5,0,.7,0,.1,0,.3,0,.4-.1,0-.2,0-.3-.2-.5-.6-.6-1.3-.3-2,0-1.1.4-1.1,1.7-1.5,2.5-.7,1.2-1.7,1.8-2.9,2.2-.7.2-1.6.3-2.3.4-.1,0-.2.2-.3.3.1,0,.2.2.4.3.2.1.5.2.8.3-.2.2-.4.5-.6.7-.2.1-.6.2-.9.2-.2,0-.4,0-.6.1,0,.2.1.5.3.6.8.4.4.7-.1,1-.4.2-.8.4-1.2.6-.2.1-.3.4-.3.7,0,0,.3.2.4.3.2,0,.4,0,.6,0,.2,0,.5,0,.7,0-.2.2-.4.4-.7.5-.4,0-.9,0-1.4,0-.2,0-.5,0-.6,0-1.2.9-2.3,1.8-3.4,2.7-.2.1-.2.6-.1.8.2.4.4.5.8,0,.2-.2.7,0,1.1,0,0,0,0,.2,0,.2-.3.2-.6.4-.9.5-.9.2-1.9.2-2.8.4-.3,0-.5.3-.7.5,0,0,0,.2.1.2.8-.9,1.7.2,2.6-.1,0,0,.2,0,.4,0,0,0-.2.3-.2.3-.9-.3-1.6,1.1-2.6.3,0,0-.2.1-.4.2-.2.1-.4.2-.6.4-.1,0-.3.2-.4.2.2,0,.3.1.5.1.2,0,.4,0,.7.1M188.8,238.4c.1,0,.3.3.4.3.7,0,1.4,0,2,.6.2.2.3.4.5.6.5.6,1,.2,1.6.2,1.3-.1,2.5-.2,3.8-.2.4,0,.8.1,1.1.3,1,.6,2,.7,3.1.6.4,0,.8-.4,1.2-.6.6-.3,1.2-.4.9-1.4-.4-1.3-.3-1.3,1-1.3.2,0,.5-.6.5-.7-.5-.5-.1-1,0-1.5.2-.7.6-1.1,1.4-1.2.3,0,.6-.3.9-.5-.2-.3-.4-.6-.6-.8,0,0-.2-.1-.3-.2-.1-.1-.2-.3-.3-.5.2,0,.3.1.5,0,.5-.2,1.1-.2.9-1.1-.4-1.2,0-1.4,1.1-1.2.3,0,.6-.3.9-.5-.2,0-.4-.2-.6-.3-.3,0-.7,0-1-.2-.3-.2-.5-.5-.7-.8,0,0,.2-.4.3-.4.6,0,.8-.5.6-.8-.2-.3-.7-.4-1.2-.6-.3,0-.6,0-1-.1,0,0,0-.3,0-.3.3-.1.7-.2,1-.3,0,0,.1,0,.2,0,.2,0,.4,0,.6,0,0-.3,0-.6-.2-.8-.3-.4-.8-.7-1.1-1.2-.2-.3-.3-.8-.2-1.1.4-.9.3-1.4-.6-1.8-.2-.1-.5-.2-.7-.4-.1,0-.3-.3-.2-.4,0-.1.3-.3.4-.3.9.4,2-.4,2.8.5,0,0,.2,0,.4,0,0-.1,0-.4-.1-.4-.7-.2-1.4-.4-2.1-.6-.3,0-.7,0-.9-.1-1.1-.8-2.3-1.7-3.4-2.6-.1,0-.3-.3-.3-.4,0-.7-.3-.8-.8-1-.2,0-1,0-1.3,0-1.2.6-2.3,1.1-3.7.7-.1,0-.3,0-.4,0,0,.2,0,.5.2.5.9.2,1.7.4,2.6.5,0,0,.3-.2.3-.3.1-.6.6-.6.9-.4.3.2.7.6.3,1.2-.2.2-.3.7-.2,1,.4.8,1,1.5,1.5,2.3,0,.1.3.2.4.2,0-.2,0-.4,0-.5,0-.2-.2-.3-.2-.5,0-.1-.1-.3-.2-.4.2,0,.3,0,.5,0,.9.2.7.8.6,1.5,0,.3,0,.9.2,1,1.1.5.8,1.8,1.4,2.6,0,.1-.2.5-.3.7-.1.3-.2.6-.3.8,0,0,.3.2.3.1.2-.2.3-.4.5-.7.1-.1.3-.2.4-.3,0,.2.3.5.2.5-.4.3,0,.5,0,.7.6.8,1.9,1.1,1.9,2.5,0,.8-.4,2.2-.9,2-.6-.2-1,0-1.2.4-.2.4-.3,1-.2,1.5.2.9-.4,1.1-.9,1.2-.8.2-1.8,0-2.6.3-.8.1-1.5.4-2.2.8-.7.3-1.4.7-2.2.5-.3,0-.7,0-1,0-.9.1-1.8.8-2.5-.4-.2-.3-.7-.4-1-.6-.4-.2-.8-.5-1.2-.7.4,0,.9,0,1.3,0,.4,0,.8-.2,1.2-.3-.4-.2-.8-.4-1.2-.4-.9,0-1.6-.5-2.2-1-.3-.2-.5-.6-.7-.9.3,0,.6.1.9,0,.3,0,.5-.2.8-.3,0,0,0-.2,0-.2-.5-.4-1-1-1.5-1-1.1,0-1.4-.7-1.6-1.6,0-.3,0-.6,0-.8.2.1.5.2.7.4.2,0,.3.2.5.3,0-.3,0-.7-.2-.8-.9-.9-1.8-1.7-2.6-2.6-.4-.5-.8-1-1.5-.7-.1,0-.3,0-.4-.1.1,0,.2-.2.3-.3.1,0,.3,0,.5,0,.1,0,.2-.3.3-.4-.1,0-.2-.2-.4-.2-.6,0-1.1,0-1.7,0-.6,0-.6.2-.4.6.3.5.5,1-.1,1.5-.1,0-.2.5,0,.6.3.3.7.5,1,.8.2.2.4.4.6.5-.2.2-.4.3-.6.5,0,0-.1.1-.2.2,1.5.6,1.2,2.2,1.8,3.2.3.7.5,1.2,1.3,1.3.3,0,.6,0,.9,0,.2,0,.4.2.7.3-.2.2-.6.6-.7.6-.9-.4-.7.4-.6.7.1.4.4.8.7,1.2,0,0,.2,0,.3-.1.1-.1.2-.4.3-.4.3,0,.6.2.9.4,0,0,0,.3,0,.4-.3.7,0,1.3.7,1.5.3,0,.5.2.8.3-.2.2-.4.5-.7.7-.2.1-.4.2-.7.5M190.8,202.9c.7.4,1.4.7,2.2,1.1.6.3.7.8.2,1.2-.9.6-.3,1.3,0,1.9.5,1.1,1,2.2,1.5,3.2.4.7.4,1.7,1.6,1.7.2,0,.5.5.7.8.3.5.5,1.2.9,1.6.1.2.6.1,1,.2,0-.2-.1-.5-.1-.7,0-.3.1-.7.3-.8.2,0,.6,0,.8.2.2.1.3.5.5.6.1.1.5.1.5.1.1-.6.3-1.1.3-1.7,0,0-.6-.3-1-.3-.4,0-.8.2-1.2.1-.3,0-.7-.5-.6-.6.4-1-.3-1.5-.9-2-.2-.2-.5-.4-.7-.6.2,0,.5-.1.7-.2.2,0,.3-.1.4-.2-.1-.1-.2-.3-.4-.4-.3-.2-.7-.4-1-.7-.9-.8-1.1-2-1.3-3.1-.2-.6-.3-.9-1-.9-.9,0-1.6-.5-1.8-1.4,0-.1,0-.2-.2-.3,0-.2-.2-.3-.3-.5.2,0,.6,0,.7.1.5.4.9.8,1.3,1.3.1.1.3.2.5.2,0-.2.1-.6,0-.7-.7-.7-1.4-1.3-2.2-2-.7-.6-1.4-1.2-2.2-1.8,0,0-.2-.2-.3-.3.1,0,.3-.1.4,0,.7.3,1.3.6,1.9.9,0,0,.2.1.3.2,0,0,0-.2,0-.3-.5-.4-.9-.8-1.4-1.2-1-.8-2-1.6-3-2.4-.3-.2-.3-.8-.4-1.2.2,0,.4,0,.7-.1,0,0,.1-.2.1-.3-.5-1.2-.9-2.4-1.6-3.5-.2-.3-.9-1-1.6-.3,0,0-.3,0-.4,0-.7-.7-1.5-1.4-2.2-2.2,0,0-.1-.2-.2-.3.2,0,.3,0,.4,0,.2,0,.3.2.4.4.3.4.6.5.9,0,.3-.4.1-.6-.3-.9-.4-.2-.7-.5-.9-.9-.4-.8-.8-1.4-1.8-1.5-.2,0-.4-.3-.6-.5.2,0,.4-.1.4-.3.1-.3.2-.6.1-.8,0-.3-.2-.7-.4-1-.1-.2-.3-.5-.5-.7-.2-.2-.4-.4-.5-.7-.8-1.2-1.5-2.5-2.3-3.7-.1-.2-.1-.4-.2-.6.2,0,.5-.1.7,0,.7.2,1.3.5,1.9.7.2,0,.4,0,.6,0-.1-.2-.3-.4-.4-.5-1.1-.6-2.4-.8-3-2,0,0-.4-.1-.5,0-.4.3-.7,1.1-1.3.3,0,0-.2.2-.3.3-.2.2-.5.3-.7.5,0,0-.1.2,0,.3.2.4.5.8.7,1.3.3.7.3,1.5,1.4,1.3,0,.3.9,0,.4.6-.4.6.3,2.5.9,2.9.4.2.7.5,1,.8.7.9,1.2,1.8,1.9,2.7.2.3.6.6.9.8-.4.3-.8.7-1.2,1-.1,0-.3,0-.4,0-.1.1-.3.4-.3.5,0,.2.3.4.5.4.3,0,.5-.3.8-.4.3-.1.5-.3.8-.4,0,.3,0,.7,0,1-.3.9-.2,1.1.7,1,.7,0,1.2.3,1.7.8.5.5.1.9-.2.9-1,.2-.5,1-.3,1.1.7.5.5,1.2.5,1.9,0,.4,0,.5.5.4.3,0,.9.5,1,.8.1.6,0,.7.7.5.7-.2,1.2.3,1.1,1-.2.7-.4,1.3-1.2,1.5-.3,0-.7.2-1,.4-.1,0-.2.2-.3.3.1,0,.3.2.4.2.7-.2,1.3-.6,2-.8.2,0,.6,0,.7,0,.3.4.4.8.6,1.2,0,.2.2.3.3.4.4.3.9.5,1.3.8.7.4.4.9,0,1.4,0,0,0,.2.2.4M110,66.7c0,0-.1-.1-.2-.2-.2-.2-.4-.3-.7-.5.2,0,.5,0,.7,0,.4,0,.7,0,1.1,0,.1,0,.2-.2.3-.3,0,0-.1-.2-.2-.2-.7-.4-1.4-.8-2-1.2-.1,0-.2-.3-.3-.5.1,0,.3,0,.4-.1.1,0,.2-.2.4-.3-.1,0-.2-.2-.3-.3-.5-.2-1.1-.4-1.6-.5-.5-.2-1-.1-.9.6,0,.6-.4,1.3.6,1.7.4.1.6.7,1,1.1.1.1.4.2.5.3-.3.1-.5.4-.8.4-.9,0-1.8-.4-2.3-1.2,0,0-.2-.1-.3-.2,0,.1-.1.3,0,.3.1.2.2.5.4.6.8.7,1.7,1.4,2.1,2.5.3.6,1.9,1.2,2.6,1.1.3,0,.6,0,.8,0-.2.2-.4.3-.6.5,0,0-.2,0-.3,0-.9.1-1.8.2-2.6.4-.2,0-.3.2-.5.2.2,0,.3,0,.5.1.8.2,1.9-.5,2.4.7,0,0,.2,0,.3,0,1.2-.6,2.5-.8,3.8-.7.1,0,.2-.1.3-.2,0-.1-.1-.3-.3-.4-.2,0-.5-.2-.7,0-.7.4-1.1-.1-1.1-.5,0-.9-.6-1-1-1.3-.2-.1-.3-.4-.5-.6.3,0,.7-.2.8-.1,1.2.8,2.4,0,3.5,0,0,0,.1-.2.2-.2-.1,0-.2-.1-.3-.1-.4,0-.8,0-1.1,0-1.3-.2-2.6-.4-4.1-.6M141.6,134.2c-1.1-.1-1.9.2-2.7,1.1-.2.3-.7.4-1.1.5-1.3,0-2.6,0-3.9,0-.2,0-.5,0-.5.2-.2.7-.6,1-1.3.6-.2-.1-.6,0-.9.2-.1,0-.2.2-.3.3.1,0,.3.2.4.3.5.2,1,.4,1.4.6.1,0,0,.5,0,.8-.2,0-.4-.1-.5-.2-.2,0-.4-.2-.6-.2-.8.3-1.6.4-2.4-.2,0,0-.4.1-.6.2.1.2.2.4.4.5,0,0,.2,0,.4,0,.1,0,.2,0,.4,0,0,0-.1.2-.2.3-.6.6-.4,1.1.3,1.4.4.2.8.3,1.2.4,1.4.4,3-2,2.6-3.4-.2-.6.3-1,.6-1,1.3,0,2.6,0,3.8,0,.7,0,1.3.3,1.5-.7,0-.3.6-.6.9-.7.9-.2,1.8-.3,2.7-.4.1,0,.2-.3.4-.5-.2,0-.3,0-.5,0-.4,0-.7,0-1.3,0M115.6,6.3c.1.2.2.4.3.5.3,0,.7,0,.9,0,1,.7,2,0,2.9,0,1.3,0,2.6-.4,4-.7.3,0,.5-.2.7-.3-.3-.2-.6-.5-.8-.5-1.1.1-2.1.4-3.1.5-1,.1-2,.2-3.1.2-.6,0-1.3,0-1.9,0M187,7.2c0-.1.2-.2.3-.3-.1,0-.3-.2-.4-.2-.6-.2-1.3-.6-1.9-.7-1,0-2,0-3.1,0,0,0-.2.2-.2.3,0,0,.2.2.3.3,1.6.2,3.2.4,5.1.6M152.6,53.4c.4-.1.8-.3,1.2-.4.5-.1,1-.2,1.5-.2.2,0,.4,0,.6,0,0,0,0-.2,0-.3-.2-.1-.4-.3-.6-.2-.6,0-1.2.1-1.8.2-1.1,0-2.3.1-3.4.2-.2,0-.4.3-.6.5.2.2.3.5.5.5.9,0,1.7-.1,2.6-.3M124.7,142.2c.6,0,1.2-.1,1.8-.5.2-.1.5-.2.8-.2.7.1,1.4.3,2.1.5.2,0,.5,0,.8,0-.2-.1-.3-.3-.5-.4-.2-.2-.5-.3-.7-.6-.4-.4-.6-.5-1.2-.3-1,.4-2.2.7-3.3,1-.3,0-.6.3-.9.4.4,0,.7.1,1.2,0M135.2,58.7c0-.1.2-.3.2-.4,0-.3,0-.5,0-.8-.2.2-.3.3-.5.5-.7.8-1.6,1.3-2.7,1.5-.2,0-.4.4-.6.6.2,0,.5.2.7.1.8-.2,1.6-.4,2.4-.6.2,0,.6.5.6-.1,0-.2-.1-.5-.1-.8M182.7,222.2l.9-.2c-.3-.2-.5-.5-.8-.6-.9-.5-1.6.2-2.3.6-.2.1-.2.8,0,1.2.2.6.6,1.2.9,1.8,0,0,0,0,.1.1,0-.1.1-.2,0-.3-.2-.5-.4-1-.6-1.6,0-.2-.2-.4-.2-.6.2,0,.5-.2.7-.2.4,0,.7-.1,1.3-.2M90.8,6.6c-.6-.4-1.2-.7-2-.6-.9.2-1.8.3-2.7.4,0,0-.2.1-.3.2.1,0,.2.2.3.2.8,0,1.7.2,2.5,0,.8-.2,1.4,0,2.1.2.3.2.7.2,1.1.3,0,0,0-.2,0-.2-.3-.1-.6-.3-1.1-.5M192.4,6.6c1.1.3,2.2.9,3.4.4.1,0,.2-.1.3-.2-.1,0-.2-.2-.3-.2-.4,0-.7,0-1.1,0-.3-.1-.8-.3-.9-.6-.2-.5-.3-.8-.8-.3-.1.1-.3.1-.5.1-.7,0-.5.3-.2.8M104.4,77.4c-1,.1-2.1.3-3.1.4,0,0-.2.1-.3.2,0,.1.1.3.2.3.3,0,.5.1.8.1.8,0,1.6,0,2.4,0,.3,0,.6-.3.9-.5-.2-.2-.5-.3-.9-.5M41.5,6.7c.2.2.3.5.5.5,1,0,2.1,0,3.1,0,.1,0,.3-.2.3-.3,0-.2-.2-.5-.4-.5-1.1,0-2.3.1-3.5.3M178.5,184.8c.6,0,.7.3.7.8,0,.2,0,.4,0,.5.1-.2.4-.3.4-.5,0-.7-.1-1.4-.8-1.6-.6-.2-1.3,0-1.9,0,0,0-.1.3-.2.5,0,0,.2.1.4.1.4,0,.7,0,1.3,0M193.2,195.9c-1-.4-2-.7-2.9-1.1-.2,0-.5,0-.7-.1.1.2.2.5.4.7,1,.9,2.2.7,3.3.8v-.4M243.3,6.9c.3-.3.4-.4-.2-.5-.7,0-1.4-.3-2.2-.4-.3,0-.7.2-1,.3,0,0,0,.4,0,.4.3,0,.6.2.9.2.8,0,1.6,0,2.5,0M127.1,6.4c-.4,0-.9,0-1.3,0-.2,0-.5.1-.7.2.2.2.5.5.7.5,1,0,2-.2,3-.4,0,0,.2-.1.2-.2,0,0,0-.2-.1-.2-.5,0-1.1,0-1.7,0M198.1,241.5c.4-.4.1-.5-.3-.7-1.1-.4-1.8.7-2.8.6,0,.1,0,.4,0,.4.3,0,.7.1,1,.1.6,0,1.3-.2,2-.4M105.7,127.9c-.1-.3-.2-.8-.4-.9-.4-.3-.9-.4-1.3-.5-.1,0-.2,0-.4,0,0,.1,0,.3.2.4.4.5.8,1,1.2,1.4.1,0,.8.8.7-.4M280.6,200.1c0,.2-.2.5-.3.6-.3.3-.6.6-.9.9,0,0-.3,0-.4,0,.1.1.3.4.4.4.4-.1,1-.2,1.1-.5.3-.7.5-1.2,1.4-1.3.2,0,.3-.4.4-.6-.2,0-.4,0-.6,0-.3,0-.6.2-1,.4M203.5,213.5c.6-.1,1.1-.2,1.7-.4,0,0,.2-.2.2-.4,0,0-.2-.2-.3-.2-.6,0-1.2,0-1.7.2-.3,0-.5.4-.6.7,0,.1.1.4.2.6.2-.1.4-.3.6-.5M175.2,167.3c-.4-.3-.8-.7-1.2-1,0,0-.3,0-.4,0,0,0,0,.2,0,.3.7.7,1.3,1.7,2.5,1.6.3,0,.5-.2.8-.3-.2-.1-.4-.4-.7-.4-.2,0-.5,0-1,0M129.2,71.9c-.6,0-1.1-.1-1.7-.2-.1,0-.3.2-.4.2.1.1.3.3.4.3.6.2,1.2.3,1.9.4.3,0,.7,0,1,.1-.3-.2-.6-.5-.9-.7,0,0,0,0-.3-.1M10.3,174.4c0,.5,0,1,0,1.4.1.6.4,1.3.6,1.9,0,0,.2.1.3.2,0-.2,0-.3,0-.5-.1-.4-.3-.8-.3-1.2-.2-.7-.3-1.5-.4-2.2,0,0-.1-.1-.2-.2v.6M144.1,55.4c.8-.3,1.5-.6,2.2-.9.2,0,.3-.2.5-.3-.2-.1-.4-.3-.5-.3-.9.3-1.7.7-2.6,1.1,0,0,.2.2.4.3M177.5,117.3c-.4-.1-.8-.3-1.3-.4-.2,0-.4.2-.6.2.3.3.7.8,1,.9.4,0,.8-.2,1.3-.3,0-.2-.2-.3-.5-.5M168.6,50.6c-.4,0-.8,0-1.3,0-.3,0-.6.2-1,.3.3.1.7.4,1,.4.5,0,.9-.1,1.4-.2.2,0,.3,0,.5-.1-.2-.2-.3-.3-.7-.5M198.7,207.7c.2.2.4.4.5.5.1.1.3.3.5.4,0-.2,0-.6,0-.7-.7-.5-1.4-1-2.1-1.5,0,0-.3,0-.4,0,0,.2.1.4.3.5.4.2.8.4,1.3.7M175.1,113.1c-.1.2-.3.3-.4.5,0,0,.2.2.3.2.6-.2,1.2-.4,1.8-.7.1,0,.1-.3.2-.4-.1,0-.2-.1-.3,0-.5.1-1,.3-1.6.5M61.5,278.3h-.6c0,.2.2.4.3.5.6.2,1.2.3,1.8.4.1,0,.3-.2.4-.3-.1-.1-.2-.3-.4-.3-.5,0-1,0-1.6-.2M107.2,160c-.2-.2-.4-.5-.5-.5-.7.1-1.3.4-1.9.6-.1,0-.2.2-.3.4.2,0,.3.2.5.1.7-.2,1.4-.4,2.2-.7M135.5,137.8c.1-.2.2-.4.4-.6-.2,0-.4,0-.6,0-.3,0-.6,0-.8.2-.2.3-.2.6-.3,1,.2,0,.5,0,.7,0,.2,0,.4-.2.6-.4M105.1,7.3c.2-.2.4-.3.6-.5-.1,0-.3-.2-.4-.2-.7.1-1.4.2-2.1.4-.1,0-.2.2-.3.2.1,0,.2.1.3.1.6,0,1.2,0,1.8,0M168,96.7c.2-.1.5-.2.7-.3-.2,0-.4-.2-.7-.2-.2,0-.6,0-.6,0-.2.4-1.1-.4-1,.5,0,0,.9,0,1.6,0M10.4,87.6c.2.2.4.4.7.5.2,0,.5,0,.7,0-.1-.2-.2-.4-.4-.5-.1-.1-.4-.2-.5-.3-.3-.2-.6-.4-.9-.6.1.3.2.7.4,1.1M106.1,77.2c.2-.2.5-.3.6-.6,0-.1-.2-.6-.3-.6-.5,0-1,.1-1.5.2,0,0,0,.2,0,.2,0,0,.1,0,.2.1.3.2.6.3,1,.6M11.7,226.5c.4,0,.8,0,1.2,0,0,0,0-.3,0-.3-.5-.3-1.1-.5-1.6-.7,0,.1-.1.2-.1.3,0,.3.2.6.5.9M211,59.5c-.6,0-1.1-.1-1.7-.2-.1,0-.3,0-.4.2,0,0,0,.3,0,.4.3.5,1.7.3,2-.3M204.4,95.4c.5,0,.9,0,1.4,0,.2,0,.3-.2.4-.3-.4-.1-.7-.3-1.1-.4,0,.5-1.3-.4-.7.8M103.7,82.3c.5.2.9.5,1.4.7.1,0,.4-.2.6-.2-.1-.1-.2-.4-.4-.4-.5-.1-1-.2-1.6,0M186.6,223.4c-.2,0-.3,0-.5,0,.2.3.4.8.7.9.3.1.8,0,1.2-.2-.3-.2-.5-.4-.8-.6-.1,0-.3-.1-.7-.2M185,51.9c.3,1,1.1.6,1.7.7,0,0,.2-.1.2-.2-.4-.2-.8-.4-1.1-.6-.1,0-.3-.2-.4-.2-.2,0-.3.1-.4.3M105.7,61.2c-.3,0-.6.2-.8.3-.1,0-.2.1-.3.2.1,0,.3.2.4.2.4,0,.9-.2,1.3-.4.3,0,.5-.3.7-.4-.3,0-.6,0-.9,0,0,0,0,0-.2.2M282.9,197.1c-.2,0-.4-.2-.6-.2-.4,0-.9.2-1.3.3-.1,0-.2,0-.4-.1,0,.1,0,.3.2.4.3.1.6.3.9.3.4,0,.8-.3,1.2-.6M115.6,69.2c.3,0,.5.1.8.2,0,0,.3,0,.3-.2,0-.1,0-.4-.1-.4-.5-.2-1.1-.3-1.7-.4,0,.1-.1.3,0,.4.2.2.4.3.8.4M204.5,238.6c-.1.2-.3.4-.4.6,0,0,.1.2.1.2.6-.3,1.3-.7,1.8-1.1.1,0,0-.4,0-.6-.2,0-.3.1-.5.2-.4.2-.7.4-1.2.6M115.6,150.6c.1,0,.3,0,.4,0,.2-.2.5-.4.7-.5-.2,0-.4,0-.6,0-.2,0-.5,0-.7,0-.2.1-.4.3-.6.5.2,0,.5,0,.9,0M58.1,146.4c.2-.3.3-.6.5-.8-.3,0-.6.2-.9.2-.4,0-.7.2-1.1.2.4.1.8.2,1.5.4M156.7,51.3c0,0,0,0,.2,0,.2,0,.4,0,.5,0,.2-.1.4-.4.7-.6-.5,0-.9.1-1.4.2,0,0-.1,0-.2,0-.2.1-.3.3-.5.4.2,0,.5,0,.8,0M180.3,175.4c.4-.2.8-.5,1.2-.7-.4,0-.7,0-1.1,0,0,0,0,0,0,0-.3,0-.5.2-.8.2.2.2.5.4.8.4M163.7,152.4c.3,0,.6.2.9.2.2,0,.4-.2.6-.4-.2,0-.4-.2-.5-.2-.3,0-.7,0-1-.1-.2,0-.4,0-.6,0,.2.2.3.3.7.5M205.7,236.4c.1,0,.4.3.4.3.3-.3.5-.6.7-1,0,0-.1-.3-.2-.5-.1,0-.3.1-.3.2-.2.3-.4.5-.6,1M12.3,72.7c0-.1-.1-.3-.2-.4-.5-.4-1.1-.8-1.6-1.2,0,0,0,0-.1-.1,0,0-.1.2,0,.2,0,.2,0,.5.3.7.5.3,1,.6,1.8.8M92.2,84.1l.3-.3c-.1,0-.2-.2-.3-.2-.5,0-1,.2-1.4.3,0,0,0,.2,0,.4.5,0,.9,0,1.5,0M74.4,175.7c-.5,0-1,.1-1.5.2-.1,0-.2.2-.3.4,0,0,0,.2.1.2.7,0,1.4.2,1.7-.8M279.5,247.8c.4,0,.7,0,1.1,0,.3,0,.5-.2.8-.3-.3,0-.5-.2-.8-.2-.4,0-.7,0-1.1,0,0,0,0,.3,0,.6M202.5,216.2c0,0,.2,0,.3,0,.5-.1.9-.3,1.4-.4-.4,0-.9-.1-1.3-.1-.1,0-.3,0-.4,0-.8,0-.3.3,0,.6M188.5,204.3c0,.2,0,.4,0,.6.3-.2.6-.4.7-.6.1-.3,0-.7,0-1.1-.2.2-.4.4-.6.6,0,0,0,.2-.2.4M67.5,179.2l.3,1c.2-.2.5-.3.6-.5,0-.2,0-.6-.1-.7-.1-.1-.5,0-.8.1M281.1,195.5c-.4.2-.8.3-1.2.5,0,0-.1.2-.2.2,0,0,.2.2.3.1.5-.2,1-.3,1.5-.6.2,0,.2-.3.3-.5-.2,0-.4,0-.8.2M168.1,116c.1.2.3.5.4.7.4-.3.7-.5,1.1-.8-.4,0-.8-.1-1.2-.1,0,0-.2.1-.4.3M201.5,210c-.2,0-.4,0-.6,0-.2,0-.5.1-.7.2.2.1.4.3.7.3.1,0,.3,0,.5,0,.2,0,.4,0,.6,0,0-.2-.2-.4-.5-.6M77.6,278.5c.3-.1.6-.2,1-.3-.3,0-.7-.1-1-.2,0,0,0,0,0,0-.3.1-.6.2-.8.3,0,0,0,.2,0,.4.3,0,.6,0,.9-.2M182.8,278.3c-.9,0-1.7,0-2.6-.1,0,0,0,0-.1.1.1,0,.2.1.3.1.8,0,1.5,0,2.4,0M193.1,234.9c.1,1,.9.3,1.3.5.1,0,.3,0,.5-.1-.1-.1-.3-.4-.4-.4-.4,0-.8,0-1.3,0M10,31.2c0-.5.2-1,.3-1.5,0,0-.1-.2-.2-.2,0,0-.2,0-.2.2-.1.4-.3.8-.4,1.2,0,.2-.3.7.5.4M172.5,175.8c0,0-.1,0-.2,0-.3,0-.6.2-.9.2.3.1.6.2.9.3.1,0,.3,0,.5,0,.1,0,.3-.2.4-.2-.2-.1-.3-.2-.7-.3M107.8,61.8c.4.2.8.4,1.3.5.1,0,.3-.2.5-.3-.1,0-.3-.2-.4-.2-.4,0-.9,0-1.3,0M181,117.7c.3,0,.5,0,.8,0,.1,0,.2-.2.3-.3-.4,0-.7-.2-1.1-.2-.2,0-.5.3-.7.4.2,0,.3,0,.7.1M146.3,133.8c0,0-.2,0-.3,0-.3,0-.5.2-.8.2.3.2.6.4.9.5.2,0,.4-.2.6-.3-.1-.1-.3-.2-.5-.4M193.2,241.4c.4,0,.9,0,1.3,0,0,0,.1-.1.2-.2,0,0,0-.2-.1-.2-.5,0-.9-.2-1.4-.2-.1,0-.3,0-.4.1,0,.2.2.3.5.5M281.9,208.7c-.5,0-1,0-1.5,0,0,0,0,.2,0,.4.5,0,1.1,0,1.6-.3M109.4,278.6c-.2,0-.4,0-.6,0-.3,0-.6.1-.9.2.3.1.6.2.9.3.1,0,.3,0,.4,0,.6.1.6,0,.2-.6M190.3,110.7c0-.3.1-.5.2-.8-.4,0-.8,0-1.2.1.2.2.5.4.7.6,0,0,.1,0,.4,0M93.2,83.2c0,.2.1.4.2.6.3-.2.6-.4.8-.7,0-.1,0-.4,0-.6-.2.1-.4.2-.5.3-.1,0-.2.2-.4.4M140.4,76.5c0-.4.1-.9-.5-.7-.2,0-.6.4-.6.6,0,.6.5.3.8.2,0,0,.1,0,.3,0M161.2,90.7c.5,0,1.1,0,1.6,0,0,0,.2-.1.3-.2,0,0-.2-.2-.2-.2-.6,0-1.2,0-1.8,0,0,0,0,.2.2.4M126.2,62.5c0,.2,0,.4,0,.7,0,0,.2.1.3.2.2-.4.3-.8.4-1.1,0,0-.3-.3-.4-.4-.1.2-.2.3-.3.7M84.5,168c-.5,0-.9,0-1.4.1,0,0-.1.2-.1.3,0,0,.1.3.1.3.5-.1.9-.3,1.4-.7M189.2,143c-.3,0-.5,0-.8.1.2.1.4.3.7.4.2,0,.3.1.5.1.2,0,.4,0,.6,0-.1-.1-.3-.3-.4-.4-.1,0-.3,0-.5-.2M281.6,190.2c.2-.1.3-.3.5-.4-.4-.1-.8-.2-1.2-.3,0,0-.1.1-.2.2.2.2.5.4.9.5M185.4,187.1c-.2,0-.3,0-.5-.1,0,.2,0,.6,0,.6.4,0,.7,0,1.1,0,0,0,.2-.2.2-.4-.2,0-.5,0-.9-.1M281.4,39.9c0,.1.1.3.2.4.3-.4.6-.7.9-1.1,0,0,0-.3-.1-.4,0,.1-.2.2-.3.4-.2.2-.4.5-.7.8M66.7,113.5c0-.4,0-.7.1-1.1,0-.1,0-.2,0-.4,0,0-.2.2-.2.3,0,.5-.2,1-.2,1.4,0,.1.1.3.2.4,0-.2,0-.3.1-.7M233.8,122c.4,0,.9.2,1.3.3,0-.1,0-.3,0-.3-.3,0-.6-.2-.9-.2-.1,0-.3,0-.4.3M280.6,126c-.2,0-.3,0-.5,0,.2.2.3.6.5.7.2.1.5,0,.8,0-.2-.2-.4-.4-.5-.5,0,0,0,0-.3-.1M278.7,25.6c.3-.2.6-.4.9-.6-.1,0-.3-.2-.4-.1-.3,0-.6.2-1,.3,0,.1.2.3.5.4M280.8,137.5c0,0,.1-.1.2-.2.1,0,.3-.1.5-.2,0,0,0-.2-.1-.2-.2,0-.4,0-.5.2-.3.2-.5.3-.7.6-.1.1-.1.4-.1.6.2,0,.3,0,.5-.2.1-.1.2-.3.4-.6M200.4,222.4c.2,0,.4,0,.7,0,0-.2-.2-.4-.3-.4-.4,0-.7,0-1.1,0,.2.2.3.3.7.5M116.8,156.5c.2-.2.4-.4.6-.6,0,0,0-.2,0-.3-.3,0-.7.2-1,.2,0,.2.2.5.4.7M63.4,118.6c.5,0,.9,0,1.4,0,0,0,0-.2.1-.3-.3,0-.7,0-1,0-.2,0-.4,0-.5.3M104.9,87.3c.2.2.3.4.6.5.1,0,.4,0,.5,0,.1,0,.2-.1.3-.2-.1-.1-.3-.3-.4-.4-.3,0-.6-.1-.9,0M229.1,278.2c.2,0,.3-.2.5-.2-.3-.1-.6-.3-1-.3-.1,0-.3.2-.4.3.2,0,.5.2.9.2M258.5,277.1c.2,0,.5,0,.7-.2,0,0,0-.2,0-.4-.4,0-.8.1-1.3.2,0,0,0,.3,0,.5.1,0,.3-.1.6-.2M279.1,187.7c.3.1.7.3,1,.4,0,0,.3-.3.2-.4-.2-.4-.9-.4-1.2,0M85.4,89.6c0,.1,0,.2-.1.3,0,.1-.3.2-.3.3,0,.2,0,.5,0,.7.2-.3.5-.7.7-1,0,0,0-.2-.3-.3M281.2,149.3c-.2,0-.3,0-.5,0-.1,0-.3,0-.4.1,0,.1.2.4.3.4.3,0,.7-.1,1-.2,0-.1-.2-.2-.5-.3M209.8,92.4c.4,0,.9,0,1.3,0,0,0,0-.3,0-.4-.3,0-.7,0-1,.1-.1,0-.2,0-.3.3M283.2,59.3c-.8,0-.7.5-.7,1,0,.2.1.3.2.5,0-.1,0-.3.1-.4.1-.3.3-.7.3-1.1M178.7,172.7c-.2,0-.5-.2-.7-.2-.1,0-.2.2-.4.3.2.1.5.3.7.4.1,0,.3-.3.3-.6M165.7,151c0,0,0-.1,0-.2-.4,0-.9-.1-1.3-.2,0,0-.2.2-.2.4.3,0,.6,0,1,0,0,0,.2,0,.5,0M182.5,228.8c-.2,0-.5-.2-.7-.2-.1,0-.3,0-.4.1.2.2.4.5.6.6.3.1.6,0,.4-.6M183.1,51.8c-.3,0-.7-.1-1-.2,0,0-.2,0-.3.2,0,0,0,.2.1.2.4,0,.8,0,1.1-.2M155.5,132.9c0,0,0-.2,0-.2-.5,0-1-.2-1.5-.3,0,0,0,.2,0,.3.5.1,1,.2,1.5.2M160.6,142.7c-.2.1-.3.3-.5.4.3,0,.6.1,1,.1.1,0,.3-.3.4-.4-.2,0-.5,0-.9-.1M26.9,274.1c.2,0,.5.2.7.2,0-.2.2-.5.1-.5-.2-.1-.5-.2-.7-.3,0,0-.2.3-.1.6M104,95c.2-.2.5-.3.7-.5-.3,0-.7-.1-1-.1,0,0-.2.3-.1.4,0,0,.2.1.5.1M129.1,144.7c-.3,0-.7-.2-1-.3-.2,0-.5,0-.7.2.2,0,.5.2.7.2.3,0,.6,0,1,0M70.6,106.9c-.2,0-.4-.3-.5-.3-.3,0-.5,0-.8,0,0,.1,0,.3.1.3.3,0,.6,0,.9,0,0,0,.2,0,.4-.2M194,108.4c-.2,0-.5,0-.7,0-.1,0-.1.3-.2.5.2,0,.5.1.7,0,.2,0,.2-.4.1-.6M281.4,64.6c-.2,0-.3.2-.5.2.2,0,.4.2.5.1.4-.2.7-.4,1.1-.6-.3,0-.6.1-1.1.3M188.4,222.2c.2,0,.5-.2.7-.2,0-.1-.1-.3-.2-.3-.3,0-.6,0-.9,0,0,.2.2.4.4.5M184.4,188.5c0,.2.1.5.2.7.2-.1.4-.3.6-.4-.2-.1-.5-.2-.8-.2M273.8,266.5c.6.7.3-.2.4-.3.1,0,0-.4,0-.6-.2,0-.4,0-.6,0,0,.2,0,.4.1.8M198.1,6.7c.2.2.4.4.7.5.1,0,.3-.1.5-.3,0,0,0-.3,0-.3-.3,0-.7,0-1,0M12.5,159c-.3,0-.6,0-.9,0,0,.2.2.4.2.6.2-.1.5-.3.6-.5M152.4,131c-.4-.2-.7-.5-1.1-.7,0,0-.1.2,0,.2.4.2.7.5,1.1.7,0,0,0,0,0-.3M12.1,194.7v.2c.4,0,.9.2,1.4.2,0,0,0-.2,0-.2-.3,0-.6,0-1-.1,0,0-.2,0-.5,0M230.4,81.8c0-.2-.1-.4-.2-.6-.2.1-.4.2-.7.4.3.1.5.2.9.2M204.4,228c-.1,0-.3.1-.3.2,0,.2,0,.5-.1.7.2-.1.4-.2.6-.3.3-.2.3-.3-.2-.6M62.7,120.8c.3-.2.6-.4.8-.5-.4,0-.8,0-1.2,0,0,.2.1.4.4.6M56.6,151.7s.1,0,.1-.1c0-.2.2-.3.2-.5-.4.1-.8.2-1.2.3,0,0-.1.2,0,.2,0,0,.1.1.2.1.2,0,.4,0,.8,0M279.9,251.9c.2-.7-.4-.5-.7-.6-.1,0-.2,0-.4.2.2.1.4.3.6.4.1,0,.2,0,.5,0M170.3,98.5c.2,0,.4,0,.7.1,0-.2,0-.4-.1-.5-.1-.2-.3-.3-.5-.4,0,.2,0,.5,0,.8M279.6,258c-.3,0-.6.1-1,.2,0,.2.2.3.3.5.2-.2.5-.3.7-.6M178.4,186.2c-.1.2-.3.3-.4.5.1,0,.3.2.3.2.2-.2.4-.4.6-.6-.2,0-.3,0-.6,0M166.3,169.8c0,.1,0,.4.1.4.3,0,.6,0,.9-.2.2,0,.3-.3.5-.5-.2,0-.4,0-.6.1-.2,0-.5.1-.9.2M63,183.1c-.1,0-.2,0-.3,0-.1,0-.3.1-.4.2.2,0,.3.2.5.2.2,0,.4,0,.6-.2.1,0,.2-.2.3-.2-.2,0-.3-.1-.6,0M25.6,272.1c-.1,0-.3,0-.4,0-.2,0-.4,0-.5,0,.2.2.4.4.7.6,0,0,.2-.2.3-.5M101.4,117c.2.3.4.6.7.8.1-.1.2-.2.3-.3-.3-.2-.5-.4-.8-.6,0,0,0,0-.2,0M112.5,278.7c.3,0,.6,0,.9,0,0,0,.1-.1.2-.2-.3,0-.5-.1-.8-.2,0,0-.2.1-.4.3M281.2,230.9c-.3,0-.6.1-.9.2,0,.1.1.2.2.4.3-.2.5-.3.7-.6M262.6,8.9c.3.2.6.3.9.5-.2-.2-.3-.5-.5-.7,0,0,0,0,0,0-.1,0-.2-.2-.3-.2,0,.1,0,.3,0,.5M245.6,6.6c-.2,0-.4.1-.6.2-.2,0-.4.2-.7.3.3,0,.6.2.8.1.2,0,.4-.3.5-.6M254.2,277.5c-.2.1-.4.2-.6.3,0,.1.2.4.3.3.2,0,.4-.1.7-.2,0-.2-.2-.3-.4-.4M172.3,99.5c-.2,0-.4-.1-.6-.2,0,.1,0,.3,0,.3.2.1.4.2.5.3.2,0,.4-.1.6-.2,0,0-.2,0-.5-.1M29.3,274.1c-.3-.2-.5-.3-.8-.5,0,.1-.1.2-.2.4.3,0,.5.1.8.2,0,0,0,0,.2,0M280.1,223.2l.3-.4c-.2,0-.5-.2-.6-.1-.1.1-.2.4-.2.6,0,0,.2,0,.5,0M48.5,6.7c.3,0,.6.2.9.3,0,0,.2-.1.2-.2,0,0,0-.2-.1-.2-.3,0-.7,0-1,0M110.5,144.9c0,0,.2.2.3.3.2.1.3.2.5.3,0-.3,0-.6-.2-.8,0,0-.4,0-.6.2M201.2,229.2l-.9.4c0,0,.1.2.1.2.3-.1.6-.2.8-.4,0,0,0,0,0-.2M194.6,212.7c0,.2.2.4.3.6.1.1.3.1.5.2,0-.1.1-.3,0-.3,0-.1-.2-.2-.4-.2,0,0-.2-.1-.5-.2M102.3,110.9c-.2,0-.5.2-.7.2.2.1.3.2.5.4.1-.2.3-.4.2-.6M108.2,78.2c-.3,0-.5-.1-.8-.2,0,0-.1.2-.2.4.3,0,.6,0,1-.2M75.8,6.9c0,.1.2.3.3.3.2-.1.3-.3.5-.4-.2,0-.5,0-.8.1M156.2,121.2c.2,0,.3,0,.5-.1-.2,0-.4-.2-.6-.2-.2,0-.4.1-.6.2.2,0,.3,0,.7.1M156.5,125.5c.2.2.3.3.5.5,0,0,.2-.2.3-.3-.2-.1-.5-.2-.8-.2M174.4,170.2c.2,0,.4.2.5.2,0-.2,0-.4,0-.6-.2,0-.5.2-.6.4M32.7,7.8c-.3,0-.6,0-.8,0,0,0-.2,0-.2.1,0,0,0,.2,0,.2.4,0,.7-.2,1-.4M162.8,123.7c0-.2.2-.3.3-.5-.2,0-.4,0-.5,0-.2,0-.3.2-.4.4.2,0,.3,0,.7.1M14.9,194.6c-.2.1-.4.2-.6.3.1,0,.3.2.4.2.3-.1.5-.3.8-.4-.2,0-.3-.1-.6,0M71.8,278.8c.2-.2.3-.3.5-.5-.2,0-.3-.1-.5-.1-.2,0-.3.1-.5.2.1.1.3.2.5.4M120.5,145.6c0,0-.2,0-.3.1.3,0,.6.2.9.2,0,0,.2-.1.3-.2-.2,0-.5,0-.9-.1M207.5,102.4c-.3,0-.6,0-.8,0,0,0-.2,0-.2.1,0,0,0,.2,0,.2.4,0,.7-.2,1-.4M150.5,145.2c.3,0,.6,0,.9-.1,0,0-.3-.3-.3-.2-.2.2-.8-.4-.6.4M187.2,144.6c-.2,0-.3.2-.5.2,0,.1.2.3.2.3.3,0,.5-.2.8-.3,0,0-.2-.2-.5-.2M229.2,6.3c-.1,0-.2,0-.3-.1-.2,0-.4,0-.6-.1,0,0,0,.2,0,.2.2.1.3.2.5.3.1,0,.3,0,.4-.3M280.4,113.4c0,.2,0,.3,0,.5.3-.2.6-.4.9-.6,0,0,0-.2,0-.2-.2.1-.4.2-.8.4M12,179.8l-.7-.3c0,0,0,.2,0,.3.3,0,.5.1.8,0M55.2,7l-.4-.4c-.1.1-.2.2-.3.3.2,0,.4.1.7,0M281.2,118.1c-.1-.1-.2-.3-.4-.4-.1.1-.2.2-.3.3.2,0,.4.1.7,0M138.9,129.7c-.2,0-.5,0-.7,0,.2.1.3.3.5.4,0,0,.2-.2.2-.4M105.3,119.1c-.3,0-.6-.2-.9-.3,0,0,0,.2,0,.3.3,0,.6.1,1,0M109.3,59.9c0,.2-.2.3-.3.5.2,0,.4,0,.6,0,0-.2,0-.3-.3-.5M257.7,153.1c.4,0,.8,0,1.2,0-.4-.1-.7-.2-1.1-.4,0,0,0,0,0,.3M147.8,80.2c0,.2,0,.3-.1.5h.5c0-.2,0-.3-.3-.5M147.2,137.4c-.2,0-.4,0-.6.1.2.1.3.2.5.4,0-.1.1-.3.1-.5M189.5,239.8c0,.1-.1.3-.2.4.2,0,.4,0,.6.1,0-.2-.2-.3-.4-.5M199.7,224.6c0,.2,0,.3,0,.5.2-.2.4-.4.5-.6,0,0-.1-.2-.2-.3-.1.1-.2.3-.4.5M107.3,131.1c0,.2,0,.4,0,.6.2-.1.4-.2.6-.3-.2,0-.3-.2-.7-.2M45.6,74.7c.3,0,.6.2.9.3,0,0,0-.2,0-.2-.2,0-.5,0-.7-.1,0,0-.1,0-.3,0M280.6,81.8c0,.2,0,.3-.1.5h.5c0-.2,0-.3-.3-.5M279.9,191.2c-.2,0-.5,0-.7.1.1,0,.3.3.4.2.2,0,.8.3.3-.4M12,190.5c0,.2,0,.3,0,.5.2-.1.4-.2.6-.3-.2,0-.3-.2-.6-.2M179.7,105.8c-.2-.2-.3-.3-.5-.5,0,0-.2.1-.2.2.2.1.3.3.5.4,0,0,.2,0,.3-.1M108.4,138.7c.2.3.3.6.5.9,0,0,.1,0,.1-.1-.1-.3-.3-.6-.4-.8,0,0,0,0-.2,0M112.7,147.2c-.2,0-.3.2-.5.2.2.1.4.2.6.3,0-.2,0-.3-.1-.6M144.2,278.6c0,.1-.1.3-.2.4.2,0,.4,0,.6.1,0-.2-.2-.3-.4-.5M278.4,23.2c0,.2,0,.3,0,.5.2-.1.4-.2.6-.3-.2,0-.3-.2-.6-.2M60.6,180.9c0,.2-.2.5-.3.7,0,0,.2,0,.2,0,0-.3.1-.5,0-.8M176.1,181.7c-.2.1-.5.2-.7.4,0,0,0,.1.1.2.2-.2.4-.3.6-.6M182.3,182.2c0,.2,0,.5.1.7,0,0,0,.2.1.2,0,0,0-.1,0-.2,0-.4,0-.8,0-1.1,0,0-.2,0-.3-.1,0,.1,0,.3,0,.5M280.2,151.1c.2,0,.5.2.7.3,0,0,0-.2,0-.2-.3,0-.5-.1-.8,0M276.1,262c-.3,0-.5.1-.8.2,0,0,0,.2,0,.2.2,0,.5-.2.7-.5M127.5,278.8c.2,0,.4,0,.6,0,0,0,0-.2,0-.3-.2,0-.5.2-.6.4M127.9,60.3c0,.2-.2.4-.3.6,0,0,0,0,.1.1.1-.2.2-.5.1-.7M130.1,61.6c.1-.2.2-.4.4-.6-.1,0-.3,0-.3,0,0,.2-.2.4-.2.6,0,0,0,.1.2,0M110.9,63.9c-.2,0-.3-.2-.5-.3,0,.2.1.4.2.5,0,0,.2,0,.3-.3M64.2,119.7c0,.2.1.3.2.5.1-.1.2-.2.4-.4-.2,0-.3-.1-.6-.1M160.2,6.6c0,.2,0,.4,0,.6.2-.2.4-.3.6-.5-.1,0-.3,0-.6,0M158,153.7c0,0,0-.2-.1-.3,0,.3,0,.6,0,.9,0,0,.2,0,.2,0,0-.2,0-.4-.1-.7M165.9,153.4c0,.1-.2.2-.3.3.2,0,.3.2.5.3,0-.2,0-.4-.2-.6M233.8,73.6c-.2,0-.4,0-.6,0,0,.1,0,.2,0,.4.2,0,.3-.2.5-.4M149.6,123.9c-.2,0-.5,0-.7.1,0,.1.2.3.2.4.2-.1.4-.3.4-.5M70.6,179c.3,0,.5,0,.8,0,0,0,0-.2,0-.2-.3,0-.5,0-.8.2M279,253.3c-.2,0-.5-.2-.7-.3,0,0,0,.2,0,.2.2,0,.5,0,.8,0M180.4,123.5c-.2,0-.5,0-.7.1,0,0,0,.2,0,.2.2,0,.5-.2.6-.4M282.3,182.5c-.1-.1-.2-.3-.3-.4,0,.3,0,.5,0,.8,0,0,.2,0,.3-.3M179.3,111c-.3,0-.5,0-.8,0,0,0,0,.2,0,.2.3,0,.5,0,.8-.2M122.3,144.3c-.2,0-.5-.2-.7-.3,0,0,0,.2,0,.2.2,0,.5,0,.8,0M217.1,87.3c.1.2.3.3.4.5,0,0,.2-.2.1-.3-.1-.1-.3-.2-.6-.2M149.4,109.7c-.2,0-.3,0-.5.1.1,0,.3.3.4.2.1,0,.2-.2.1-.4M201.9,223.4c-.2,0-.3,0-.5.1.1,0,.3.3.4.2.1,0,.2-.2.1-.4M277.7,22c0,.1-.2.2-.3.3.2,0,.5,0,.7,0,0-.1-.2-.2-.5-.3M158.8,138.7c-.1-.2-.2-.3-.3-.5,0,0-.2,0-.3.1.2.1.3.3.6.3M34.8,277.1c0-.2,0-.4,0-.6-.1,0-.2,0-.4,0,0,.2.2.3.4.5M161.7,159.1c0-.3,0-.6.1-.8,0,0-.2,0-.3,0,0,.3,0,.5,0,.8,0,0,0,0,.2,0M173.1,6.3c-.1,0-.3-.2-.4-.3,0,0,0,.2-.1.3.2,0,.4.1.6,0M12.1,233.2c.2,0,.3,0,.5,0,0,0,0-.2-.1-.3-.1,0-.3.2-.3.4M86.9,87.7c0,.2-.1.4-.2.6,0,0,.2,0,.2,0,.1-.3.2-.6.3-.8,0,0-.1.1-.3.3M104,88.2c0,.2-.2.4-.2.6,0,0,.2.1.2.2,0-.2,0-.4,0-.7M195.7,201.8c0,0,.2,0,.3,0,0-.1-.2-.3-.3-.4,0,.1-.1.3,0,.4M9.7,83.3c-.1,0-.2-.2-.3-.2,0,.2,0,.5,0,.7.1,0,.2-.2.3-.5M161.1,125.3c-.1,0-.3-.2-.4-.3,0,0,0,.2-.1.3.2,0,.4.1.6,0M185.1,196c0,.2.1.4.2.6h.3c0-.3-.2-.4-.5-.6M174,101.4c0-.1,0-.3-.1-.4-.1,0-.3,0-.4.1,0,0,.2.2.5.2M262.2,274.7c0-.1,0-.3-.1-.4-.1,0-.3,0-.4.1,0,0,.2.2.5.2M11.6,26.5l-.2-.3c0,.1,0,.3-.1.4.1,0,.3,0,.4,0M116.3,67.6c.1,0,.3.2.4.3,0,0,.1-.2.2-.3-.2,0-.3,0-.6,0M163.6,125.2c.1,0,.3.2.4.3,0,0,.1-.2.2-.3-.2,0-.3,0-.6,0M107.9,135.7c0,.2,0,.4,0,.6,0,0,.2,0,.2,0,0-.2,0-.4-.2-.6M194.9,199.6l-.2.4.5-.2c0-.1-.2-.2-.3-.2M175,50.8c0,0,.2-.2.3-.2-.1,0-.2,0-.4,0,0,.1,0,.3,0,.3M174,163.1c0,0-.2.2-.3.2.1,0,.3,0,.4.1,0-.1,0-.3,0-.4M253.3,60.9c.2,0,.3,0,.5-.1,0,0-.1-.2-.2-.3-.1,0-.3.2-.3.4M57.3,166c0,.3,0,.5,0,.8,0-.3.1-.5,0-.8M278.7,208.8c0,.1,0,.3.1.4.1,0,.3,0,.4-.1,0,0-.2-.2-.5-.2M105.5,121.5c-.2,0-.4,0-.6,0,0,0,0,.2,0,.2.2,0,.4,0,.6-.2M11.7,211.3h-.4c0,.2.2.3.3.5,0,0,0-.2.1-.5M191.4,204.4c0,0,.2.1.3.1,0-.1.2-.3.2-.4-.1,0-.3.1-.5.3M9.1,50.1c0,.2,0,.3,0,.5,0,0,.1-.2.1-.3,0-.2,0-.4,0-.6,0,0,0,.2-.1.4M10.5,43.5c0-.2,0-.3-.1-.5,0,0-.2,0-.2,0,0,.2.2.3.4.4M180.6,108.6c0,.2,0,.3.1.5,0,0,0,0,.1,0,0-.2,0-.3-.3-.5M169.5,159.4c0,0,.2,0,.3.1,0-.2,0-.3-.1-.5,0,0-.1.2-.1.4M203.2,230.4c.1-.1.3-.2.4-.3l-.2-.2c0,0-.2.2-.2.5M274.1,70.3c0-.1,0-.3.1-.4,0,0-.2,0-.3,0,0,.2,0,.4.1.5M180.3,179c0,0-.2-.2-.2-.3,0,0-.1.1-.2.2.1.1.3.2.4.1Z"/>
    <path d="M104.3,279.2c.9.3,1.9,0,2.5.8.1.2.2.4.4.7-.2,0-.5,0-.7,0-1.1-.3-2.2-.8-3.3-.8-1.3,0-2.6.6-3.9.9-.1,0-.2,0-.4,0-.3,0-.5-.1-.7-.2.3-.2.6-.4.9-.6.2,0,.4,0,.6,0,1-.3,2-.7,3.1-.9.5-.1,1,.1,1.6.2Z"/>
    <path d="M112.3,5.2c-.7.4-1.3.4-2,.2-1-.2-2.1-.2-3.2-.2-.2,0-.4,0-.6,0-.3-.2-.5-.4-.8-.6.3,0,.6-.1.8-.1,1.6.1,3.2.3,4.8.4.6,0,1.2-.2,1.9-.4.1,0,.3,0,.4,0-.1,0-.2.2-.4.3-.3.1-.6.3-1,.4Z"/>
    <path d="M176,281.1c-1.1-.3-2-.6-3-.7-.4,0-.8.3-1.3.4-.2,0-.4-.1-.6-.2.2,0,.3-.2.5-.3,1.3-1.1,2.8-.5,4.1-.2.3,0,.6.2.9.4.3.1.6.3.9.5-.1.1-.2.3-.3.3-.4,0-.8.4-1.2-.2Z"/>
    <path d="M73.2,4.3c-.2.4-.5.7-.7,1.1-.3.5-.4.6-.7.2,0,0-.2-.1-.3-.2,0,.1,0,.2-.1.3,0,.2-.2.5-.2.4-.9-.3-1.7-.6-2.5-.9,0,0,0-.2,0-.3.2,0,.3-.2.5-.2.4,0,.7.1,1.1.2.5,0,1,0,1.5-.5.4-.3,1.1-.2,1.6-.3Z"/>
    <path d="M162,4.4c-.6.1-1.2.2-1.8.2-.2,0-.4-.2-.7-.3.2,0,.4,0,.6-.1,1-.1,1.9-.3,2.9-.4.5,0,1.1.7.9,1.2,0,.1-.2.3-.4.4,0,0-.2,0-.4,0,0-.1.1-.3.1-.4,0-.1,0-.4-.1-.4-.4-.1-.8-.2-1.2-.2Z"/>
    <path d="M206.9,4.8c-1.2,0-2.3.1-3.4.2,0,0-.2-.2-.3-.3.1,0,.3-.2.4-.2,1.1,0,2.2-.1,3.3-.2.2,0,.3,0,.5.1-.2.2-.3.3-.6.5Z"/>
    <path d="M63.8,5.4c-.2,0-.3.2-.4.3-.2.2-.3.6-.6.7-.3,0-.6,0-1-.2,0,0-.1,0-.2-.1,0,0,.1-.2.2-.3.2-.2.4-.4.6-.5.2-.1.3-.3.5-.4.2,0,.5,0,.8,0,.3,0,.5,0,.8,0-.2.2-.4.4-.7.5Z"/>
    <path d="M92.3,280c.3.1.5.2.7.3-.3.2-.6.5-.9.6-.5.1-1,0-1.4,0-.2,0-.5-.3-.7-.4.2-.2.4-.4.6-.5.5,0,1.1,0,1.7,0Z"/>
    <path d="M141.3,279.4c.6.2,1.1.4,1.7.5.1,0,.2.2.3.2-.1.1-.2.3-.3.3-.7,0-1.5.2-2-.5-.1-.2-.2-.4-.4-.6.2,0,.4,0,.7,0Z"/>
    <path d="M128.2,282.5c-.2.1-.5.3-.6.3-.4-.5-.8-1-1.2-1.5,0,0,.1-.3.2-.3.2,0,.6-.2.7,0,.3.5.6,1.1.8,1.6Z"/>
    <path d="M33,6.4c-.6,0-1.2.1-1.7.2-.2,0-.4.2-.7.3-.2,0-.4,0-.7,0,.1-.1.2-.2.3-.3.9-.7,1.9-.4,2.8-.4,0,.1,0,.3-.2.4Z"/>
    <path d="M95.2,279.4c.7,0,1.3,0,1.9,0,.2,0,.4,0,.6.1-.1.2-.2.4-.4.5-.4.3-2,0-2.3-.3,0,0,.1-.1.2-.2Z"/>
    <path d="M180.7,5c-.7.1-1.2.3-1.8.4,0,0-.2-.2-.3-.3.1,0,.2-.2.4-.3.7-.2,1.4-.3,2.1-.4.2,0,.4-.1.6-.2-.1.2-.2.4-.4.5,0,.1-.3.1-.5.2Z"/>
    <path d="M152,280.9c.7-.8,1.5-.5,2.3-.6,0,0,.1,0,.2.1,0,0-.1.2-.2.2-.5.2-1,.3-1.5.5-.2,0-.4.2-.6.2-.2,0-.4.1-.7.2.1-.2.3-.4.4-.6Z"/>
    <path d="M53.1,280.2c-.6-.2-1.2-.3-1.7-.5.5,0,1.1-.1,1.6-.2,0,0,.2,0,.3,0,.3,0,.7,0,1,.1-.4.2-.7.3-1.1.5Z"/>
    <path d="M9.2,114.7c-.2-.6-.3-1.1-.4-1.6,0,0,.4-.1.6-.2.2.5.4,1,.4,1.5,0,.1-.4.3-.7.4Z"/>
    <path d="M255.7,5.6c-.6.3-1.1,1-1.6,0-.1-.2,0-.5,0-.7,0,0,.3,0,.5,0,.3,0,.7,0,1,.2.1,0,.1.3.1.5Z"/>
    <path d="M226.1,4.5c.4,0,.6.1.9.2.2,0,.4,0,.6.1-.3.1-.5.3-.8.4-.2,0-.5,0-.8,0-.3-.1-.6-.4-.9-.6.3,0,.6-.1,1-.2Z"/>
    <path d="M284.6,129.1c-1,0-1-.7-.9-1.4,0-.1.2-.2.3-.3,0,.1.3.2.3.3,0,.5,1.4.5.4,1.4Z"/>
    <path d="M221.8,280c-.2-.7.3-.6.6-.6.5,0,1.1,0,1.7,0,0,0,.2,0,.3,0,0,0-.1.2-.2.3-.8.1-1.5.2-2.3.3Z"/>
    <path d="M91.8,4.7c-.4,0-.7,0-1-.2.3-.2.6-.3.9-.5,0,0,.1,0,.2,0,.5.1,1,.2,1.4.3-.5,0-.9.2-1.5.3Z"/>
    <path d="M199.9,4.6c.2-.1.4-.3.6-.3.5,0,1.1.1,1.6.2,0,0,0,.2-.2.3-.7.2-1.4.7-2.1-.2Z"/>
    <path d="M208.2,5c.3-.1.5-.4.7-.4.3,0,.6.2.8.3-.2.2-.4.4-.7.5-.4.1-.8.2-1.2.2-.1,0-.2-.3-.3-.4.2,0,.3,0,.6-.1Z"/>
    <path d="M145,4.5c.2-.5,1.4-.9,1.7-.6,0,0,.1.3,0,.3-.1.2-.3.4-.4.4-.4,0-.9,0-1.4-.1Z"/>
    <path d="M138.8,280.5c.6,0,1.1,0,1.7,0,.1,0,.2,0,.3.1,0,0-.2.2-.3.3-.6,0-1.2.2-1.7.2-.2,0-.3-.3-.5-.5.2,0,.3,0,.5-.1Z"/>
    <path d="M214.9,5.4c-.2-.2-.3-.5-.4-.7.2,0,.5,0,.7,0,0,0,.2,0,.2.1.3.2.5.4.8.6,0,0-.2.4-.3.3-.3,0-.7-.2-1-.4Z"/>
    <path d="M170.1,4.6c0-.2-.1-.4-.2-.5.5,0,1.1,0,1.6,0,0,0,0,.3,0,.5-.5,0-1,0-1.5,0Z"/>
    <path d="M66.1,5.4c.5.1,1,.3,1.5.4,0,0,0,.2,0,.2,0,0-.2.1-.3.1-.4,0-.9,0-1.3-.1-.2,0-.5-.2-.7-.3.2,0,.5-.2.7-.3Z"/>
    <path d="M73.5,280.6c-.2,0-.4.2-.6.1-.3,0-.6-.1-1-.2.2-.2.3-.4.5-.4.4,0,.9,0,1.3.1,0,.1-.2.2-.3.4Z"/>
    <path d="M217.7,280.5c-.4-.1-.7-.3-1-.4-.2,0-.4-.1-.6-.2.2-.1.4-.4.6-.4.5,0,.9.3,1.3.5,0,.2-.2.3-.4.5Z"/>
    <path d="M282.9,219.9c.3.3.6.6.8,1,0,.1-.2.4-.3.7-.1,0-.4-.1-.4-.3,0-.4-.1-.9-.1-1.4Z"/>
    <path d="M214,280.4c-.3,0-.6,0-.8-.1,0,0-.1-.2-.2-.3.1,0,.2-.1.3-.1.6,0,1.3,0,1.9,0,0,0,.2,0,.3.1,0,0-.2.2-.3.3-.4,0-.8.1-1.3.2Z"/>
    <path d="M45.8,279.6c.6,0,1.1,0,1.6,0,.2,0,.3,0,.5.1-.2,0-.3.2-.5.3-.6.2-1.3.8-1.6-.3Z"/>
    <path d="M283.1,118.2c.3-.2-.6-.7,0-.8.4,0,.9,0,1.4-.1,0,.2-.1.4-.2.5-.4.2-.8.3-1.2.4Z"/>
    <path d="M202.2,280.2c-.2-.1-.3-.2-.3-.3.7,0,1.3,0,2,0,0,.1-.2.3-.3.4,0,0-.3,0-.4,0-.3,0-.6,0-1-.1Z"/>
    <path d="M268.3,273c-.2.4-.3.8-.6,1.1,0,0-.4-.1-.7-.2.1-.2.2-.4.3-.5.3-.2.6-.3.9-.4Z"/>
    <path d="M4.5,195.8c.3-.2.6-.5.9-.5.2,0,.5.2.8.3-.3.2-.5.4-.8.4-.3,0-.6-.1-.9-.2Z"/>
    <path d="M265.1,8.3c-.2-.2-.3-.3-.4-.5.2,0,.4,0,.5,0,.4,0,.8.2,1.1.3.1,0,.2.2.3.2,0,0-.2.1-.3.1-.4,0-.8-.1-1.2-.2Z"/>
    <path d="M207.4,280.3c-.6-.1-1.2-.3-1.7-.5,0,0-.1-.1-.2-.2.1,0,.2,0,.4,0,.5,0,1.1.1,1.6.2,0,0,0,.3,0,.5Z"/>
    <path d="M156.8,5c-.3,0-.6,0-.8-.1,0,0,0,0-.1-.1,0,0,.1-.1.2-.1.5,0,1.1-.1,1.7-.2,0,0,.1,0,.2.1-.3.1-.7.3-1.1.4Z"/>
    <path d="M283.6,243.5c.2.1.4.2.5.3-.3.1-.5.4-.8.4-.2,0-.4-.4-.5-.6.2,0,.5,0,.8-.1Z"/>
    <path d="M50.4,5c-.3,0-.6-.2-.9-.3.3-.1.5-.4.8-.4.7,0,.3.4.1.7Z"/>
    <path d="M283.9,48.6c-.2-.2-.3-.3-.4-.5,0-.1,0-.3,0-.5.2,0,.3,0,.5.1.1,0,.2.2.3.2.2,0,.3.2.5.2-.2.1-.5.2-.7.3Z"/>
    <path d="M6.1,62c.3-.5.7-.5,1.1,0,0,0,0,.2,0,.3-.4,0-.7-.2-1.2-.3Z"/>
    <path d="M9.9,203.8c.1-.3.2-.6.3-.8.1.1.4.3.4.4,0,.3-.2.6-.4.9-.1-.1-.3-.3-.3-.4Z"/>
    <path d="M240.8,3.3c.2,0,.4,0,.6,0,.3,0,.5.1.8.2,0,0,0,.3,0,.3-.3,0-.7,0-1,0-.2,0-.3-.3-.4-.4Z"/>
    <path d="M244.3,5.2c-.2-.2-.4-.4-.5-.5.4,0,.7,0,1.1,0,.1,0,.2.3.3.5-.3,0-.5,0-.9,0Z"/>
    <path d="M7.1,194.8c0-.1-.2-.4,0-.5.3-.3.6-.6,1-.8,0,.1,0,.3,0,.4-.3.3-.6.6-.9.9Z"/>
    <path d="M10.7,237.6c-.1-.3-.2-.5-.3-.8.2,0,.5,0,.7,0-.1.3-.2.5-.4.7Z"/>
    <path d="M25.2,9.1c-.2.2-.4.5-.6.7-.1-.1-.2-.3-.3-.4.3-.1.6-.2,1-.4Z"/>
    <path d="M27,7.4c.2,0,.4.1.5.2-.2.2-.5.4-.7.5,0,0-.3-.2-.4-.4.2,0,.4-.2.6-.3Z"/>
    <path d="M213.8,6c-.3-.2-.5-.4-.7-.6.2,0,.5-.1.7-.1.2,0,.3.2.5.3-.1.1-.2.3-.4.5Z"/>
    <path d="M284.2,204.1c-.6.6-.6,0-.7-.2,0-.2.1-.4.2-.7.1.2.2.4.4.6,0,.1.1.2.1.4Z"/>
    <path d="M185.2,4.6c.4,0,.9-.1,1.4-.1,0,0,.1.1,0,.1,0,0-.2.3-.3.3-.4,0-.8-.1-1.2-.2Z"/>
    <path d="M8.9,156.7c-.2-.2-.3-.4-.5-.6.3,0,.7,0,1-.1-.1.2-.3.5-.5.7Z"/>
    <path d="M187.9,280.7c-.3,0-.5-.2-.7-.3.2-.1.4-.3.6-.3.2,0,.5,0,.8.1-.2.1-.3.3-.6.4Z"/>
    <path d="M113,2.9c-.3,0-.6,0-.8,0,.2,0,.3-.2.5-.3,0,0,.1-.2.2-.2.3,0,.5,0,.8,0-.2.1-.4.3-.6.4Z"/>
    <path d="M270.9,10.3c-.7.8-.2-.2-.5-.2,0-.2,0-.5,0-.7,0,0,.2,0,.2,0,.1.3.2.6.3,1Z"/>
    <path d="M223,4.1c0,0,0,.2,0,.3-.1,0-.3,0-.4,0-.4,0-.7-.2-1.1-.3,0,0,.2-.1.2-.1.4,0,.8.1,1.3.2Z"/>
    <path d="M9.2,242.6c.2.2.3.4.5.7-.2,0-.3.2-.5.2,0-.3,0-.6,0-.9Z"/>
    <path d="M54.4,4.6c-.3,0-.6,0-.8,0,0-.1.1-.3.2-.4.3,0,.7,0,1-.1-.1.1-.2.3-.4.5Z"/>
    <path d="M37.5,4.5c.4-.1.8-.2,1.2-.2,0,0,.2,0,.3.1,0,.1-.1.3-.2.3-.5,0-.9,0-1.3-.2Z"/>
    <path d="M3,155.9c-.2,0-.3,0-.4,0-.2-.2-.3-.4-.4-.7.1,0,.3-.1.3,0,.2.2.3.5.5.8Z"/>
    <path d="M118.5,290.7c0,0-.2.2-.2.1-.3,0-.5-.2-.8-.3,0,0,.1-.3.2-.3.3.1.6.2.9.4Z"/>
    <path d="M9.9,216.6c.2,0,.3,0,.5,0-.3.2-.5.5-.8.7,0,0-.3-.1-.5-.2.1,0,.2-.2.3-.3.1,0,.3-.1.4-.2Z"/>
    <path d="M3.7,107c0-.3,0-.5,0-.7.2,0,.5.1.7.2-.2.2-.4.4-.6.6Z"/>
    <path d="M238.4,4.9c-.1.2-.3.3-.5.4,0-.2-.2-.3-.3-.5.3,0,.5,0,.8,0Z"/>
    <path d="M104.7,4.3c.1.2.1.4.1.5-.3,0-.6-.1-.9-.2.2-.1.4-.2.7-.3Z"/>
    <path d="M67.1,279.6c0,0-.1.1-.1.1-.3-.1-.6-.3-.9-.4,0,0,0-.1,0-.1.4,0,.8,0,1.2,0,0,.1-.2.2-.3.4Z"/>
    <path d="M264.6,275.9c-.1-.2-.2-.3-.2-.5.3,0,.6,0,.9-.1,0,.1,0,.3-.2.4,0,0-.3.1-.5.2Z"/>
    <path d="M119.9,4.4c0,.2-.2.4-.3.4-.3,0-.5-.2-.8-.4,0,0,.1-.2.2-.2.3,0,.6,0,1,.1Z"/>
    <path d="M7.9,36.3c-.1.2-.3.3-.4.5,0-.3-.1-.5-.2-.8.2,0,.4.1.6.3Z"/>
    <path d="M10.5,222.6c.2-.2.4-.2.6-.3,0,.3-.1.5-.2.8-.1-.1-.3-.3-.4-.5Z"/>
    <path d="M8.8,164.9c0-.1,0-.2.2-.2.2,0,.5-.2.7-.2,0,.1,0,.3,0,.3-.3,0-.5.2-.8.2Z"/>
    <path d="M243,284c0-.2,0-.4,0-.5.2,0,.4,0,.5.1,0,.1,0,.3,0,.5-.2,0-.4,0-.6-.1Z"/>
    <path d="M141.3,282.1c.4,0,.6-.1.9-.2,0,0,0,.2-.1.3-.3.1-.6.2-.9.3,0,0-.1-.1-.2-.2,0,0,.2,0,.3-.1Z"/>
    <path d="M235.4,4.3c-.3.2-.5.2-.8.3,0,0-.1-.2-.2-.4.3,0,.6,0,1,.1Z"/>
    <path d="M251.3,4.7c.3.1.5.2.7.3-.2,0-.3.3-.5.2-.2,0-.5-.2-.7-.3,0,0,.2-.2.4-.2Z"/>
    <path d="M283.5,208.7c.2.1.3.3.5.5-.2,0-.3.2-.5.2,0-.2,0-.4,0-.7Z"/>
    <path d="M47,4.5c-.4.1-.7.2-1,.3,0,0,0-.2,0-.2.4,0,.7-.2,1.1-.2,0,0,0,0,0,0,0,0,0,0-.1.1Z"/>
    <path d="M9.3,89c-.1.2-.3.3-.5.5,0-.2-.2-.3-.2-.5.2,0,.4,0,.7,0Z"/>
    <path d="M249.3,4.8c.4,0,.7,0,1-.1,0,0-.2.3-.2.3-.3,0-.6,0-.9,0,0,0,0,0,0,0,0,0,0,0,.2,0Z"/>
    <path d="M11.2,22.1c.2,0,.3.2.3.2-.1.2-.3.3-.5.5-.1,0-.3.1-.4.2,0-.1,0-.3.2-.4.1-.2.3-.3.5-.4Z"/>
    <path d="M125.8,4.1c-.3,0-.5,0-.7,0-.1,0-.2-.2-.3-.2.1,0,.2-.1.4-.1.3,0,.5,0,.8,0,0,.1,0,.3-.2.4Z"/>
    <path d="M284.1,223.7c.1-.2.3-.4.5-.5,0,0,.2.2.2.3-.2,0-.5.2-.7.2Z"/>
    <path d="M283.6,193.7c0,.3-.2.5-.4.7,0-.1-.2-.3-.1-.4.1-.2.3-.3.5-.4Z"/>
    <path d="M230.5,280c0,0,0,.1,0,.2-.2,0-.5,0-.7.1,0,0,0-.2,0-.3.3,0,.5,0,.8,0Z"/>
    <path d="M10.2,244.7c0,.2,0,.3,0,.5-.2,0-.4,0-.4-.1,0-.2,0-.4,0-.6.1,0,.3.1.4.2Z"/>
    <path d="M283.5,93.5c.3,0,.6,0,.8,0,0,0,0,.3,0,.3-.3,0-.5-.1-.7-.2Z"/>
    <path d="M267.9,8.8c.2,0,.3.1.4.2,0,0-.1.1-.2.2-.2,0-.3,0-.5,0-.2-.1-.3-.3-.4-.5.2,0,.4,0,.7.2Z"/>
    <path d="M13.8,262.7c-.2-.2-.4-.3-.6-.5.3,0,.6,0,.8,0,0,.2-.1.4-.2.5Z"/>
    <path d="M140.7,286.5c0,0-.1,0-.1,0-.2,0-.5-.2-.7-.2,0,0,.1-.1.1-.1.3,0,.5.2.7.3Z"/>
    <path d="M28.7,278.1c.3,0,.5.1.7.2,0,0-.1.2-.2.3-.2-.1-.4-.3-.5-.5Z"/>
    <path d="M58.2,4.7c-.2,0-.4,0-.6-.2,0,0,.1-.2.2-.3.2.1.3.3.5.4Z"/>
    <path d="M53.1,4.3c0,.2,0,.4-.2.6-.1,0-.2-.2-.4-.3.2-.1.3-.2.5-.3Z"/>
    <path d="M253.2,4.1c-.2.2-.4.4-.6.5,0,0,0-.1-.1-.2.2-.1.5-.2.7-.3Z"/>
    <path d="M8.3,65.2c-.1.2-.3.3-.5.5,0,0-.1-.2-.2-.3.2,0,.4-.2.7-.2Z"/>
    <path d="M285.2,39.2c.2,0,.4.2.5.3,0,0,0,.2-.1.3-.1-.2-.3-.3-.4-.5Z"/>
    <path d="M10.6,211.9c0,.2-.2.4-.4.6,0,0-.2-.2-.2-.3.1-.1.3-.2.5-.3Z"/>
    <path d="M21.3,9.1c0,0,0,.2,0,.3-.2.2-.4.3-.5.5.1-.2.3-.5.5-.7Z"/>
    <path d="M285.1,57.6c.2,0,.4.2.5.3,0,0,0,.2-.1.3-.1-.2-.3-.3-.4-.5Z"/>
    <path d="M18.5,10.5c.2,0,.3.2.5.3-.2,0-.3.2-.5.2,0-.2,0-.3,0-.5Z"/>
    <path d="M87.9,280.6c.3,0,.5,0,.7,0-.1.2-.3.3-.4.5-.1-.1-.2-.3-.3-.5Z"/>
    <path d="M18,13.9c0-.1,0-.4,0-.4.2,0,.4,0,.6,0-.2.1-.4.3-.6.4Z"/>
    <path d="M67.4,283.4c-.2.1-.4.2-.6.3,0-.1,0-.2-.1-.3.3,0,.5,0,.7,0Z"/>
    <path d="M9.7,27.1c0,.2-.2.4-.3.5,0,0-.1-.1-.2-.2.1-.1.3-.2.5-.3Z"/>
    <path d="M6,221.8c.2-.1.5-.1.7-.2,0,0,0,.2,0,.2-.2,0-.4,0-.6,0Z"/>
    <path d="M280.8,267.3c-.2-.2-.3-.3-.4-.5.2,0,.4,0,.6,0,0,.2,0,.3-.2.4Z"/>
    <path d="M61.7,4.3c.2.1.2.3.3.4-.1,0-.3,0-.4,0,0,0,0-.2.1-.3Z"/>
    <path d="M284,153.9c-.1-.1-.2-.3-.3-.5.2,0,.3,0,.5,0,0,.2,0,.3-.2.5Z"/>
    <path d="M8.7,248.7c-.2-.1-.3-.2-.3-.3h.7c0,.1-.2.2-.3.3Z"/>
    <path d="M148.5,283c-.2,0-.4-.1-.5-.2.2,0,.3,0,.5-.1,0,0,0,.2,0,.3Z"/>
    <path d="M192.3,281.7c.2,0,.2.1.3.2h-.6c0,0,0-.1,0-.2,0,0,.1,0,.3,0Z"/>
    <path d="M19.2,12.5c-.2,0-.3,0-.4-.2.2,0,.3-.2.5-.3,0,.1,0,.3,0,.4Z"/>
    <path d="M77.1,2.9c0-.1-.1-.3-.1-.4,0,0,.2,0,.3,0,0,.2,0,.3-.2.5Z"/>
    <path d="M267.4,275.2c-.2,0-.4,0-.6,0,.2,0,.4,0,.6-.1,0,0,0,0,0,0,0,0,0,0-.1.2Z"/>
    <path d="M108,2.7c0-.1,0-.2,0-.3.2,0,.4,0,.6.1-.2,0-.3.2-.5.2Z"/>
    <path d="M8.6,139.8c.2,0,.3.2.5.3l-.2.2c-.1-.1-.2-.3-.3-.5Z"/>
    <path d="M59.5,5.4c.2,0,.4,0,.5,0,0,.1-.2.2-.2.3-.1-.1-.3-.3-.3-.4Z"/>
    <path d="M284.9,175.4c0-.2,0-.3,0-.4,0,0,.2,0,.3,0,0,.2-.2.4-.3.5Z"/>
    <path d="M220.5,280.5c0-.1,0-.2,0-.3.2.1.4.2.6.3-.2,0-.3,0-.5,0Z"/>
    <path d="M229.1,279.8c-.2.1-.4.2-.6.2,0,0,0-.1-.1-.2.2,0,.4,0,.7,0Z"/>
    <path d="M233.5,4.6c0-.1,0-.2,0-.3.2,0,.4,0,.6.1-.2,0-.3.2-.5.2Z"/>
    <path d="M252,279.1c-.2,0-.4,0-.6,0,0,0,0-.1,0-.2.2,0,.5,0,.7.1Z"/>
    <path d="M73.3,4.3c.1-.1.3-.2.5-.4,0,0,0,.2,0,.2-.2,0-.3,0-.5.1Z"/>
    <path d="M147.8,3.5c-.2,0-.3,0-.4,0,0,0,0-.2,0-.2.2,0,.3,0,.5,0,0,0,0,0,0,0,0,0,0,0-.1.1Z"/>
    <path d="M219.2,2.6c0,.1-.2.2-.3.3,0-.1-.2-.2-.2-.3.1,0,.3,0,.5,0Z"/>
    <path d="M283.6,224.6c-.1.1-.3.2-.5.3,0,0,0-.2,0-.2.2,0,.3,0,.5,0Z"/>
    <path d="M262.7,0c.2,0,.3.2.4.2,0,0-.1.1-.2.2-.1-.1-.2-.3-.2-.4Z"/>
    <path d="M282.7,236.3c0-.1,0-.3,0-.4,0,0,.2,0,.3,0,0,.1-.2.2-.3.3Z"/>
    <path d="M5.3,69c0-.1-.1-.2-.2-.3h.5c0,.2-.2.3-.3.3Z"/>
    <path d="M.3,250.4c-.1,0-.2,0-.3-.2.2,0,.3,0,.5-.1,0,0,0,.2-.2.3Z"/>
    <path d="M142.5,130.9c0-.3,0-.5,0-.8.2.1.7.2.7.3,0,.5,0,1,.7,1.2,0,0,.1.3,0,.4,0,.1-.2.2-.4.2-.6,0-1.2.1-1.8.2-.3,0-.5,0-.8,0-.2,0-.3-.2-.5-.2.2-.1.3-.3.5-.3.6,0,1.2-.1,1.4-1Z"/>
    <path d="M163.1,120.8c-1.1.3-1.8,1.2-2.6,1.9-.4.4-1.2.2-1.9.4,0-.2,0-.4,0-.5.4-.2.8-.4,1.2-.5.6,0,.9-.2,1.2-.8.2-.5,1.4-.5,2.2-.7,0,0,0,0,0,0,0,0,0,0-.1.1Z"/>
    <path d="M121.1,68.1c.1,0,.2,0,.3.1.3.3.6.6.9.9-.5,0-1,0-1.5,0-.2,0-.4-.3-.7-.5-.3-.2-.6-.3-.8-.4.4-.1.8-.3,1.2-.3.2,0,.3,0,.6.2Z"/>
    <path d="M193.1,55.8c.9.1,1.6.2,2.4.4.1,0,.2.3.3.4-.2,0-.4.1-.5,0-1.1-.2-2.1-.4-3.2-.7-.2,0-.3-.2-.4-.3.2,0,.3,0,.5,0,.3,0,.7.1,1.1.2Z"/>
    <path d="M210.5,88c-1.2.1-2.3,1-3.6.5-.4-.2-.8,0-1.2-.1,0,0,0-.3,0-.3,1.6,0,3.2,0,4.8,0Z"/>
    <path d="M180.3,95.6c-.2.6-.3,1.2-.6,1.8,0,0-.2.1-.3.2,0-.1,0-.2,0-.3,0-.5,0-1,0-1.5,0-.3.2-.5.3-.8.2.2.4.4.7.6Z"/>
    <path d="M168.5,53.5c.3,0,.5.2.7.2.8,0,1.5,0,2.3,0,0,0,.2,0,.3,0,0,0-.1.2-.2.2-.7.5-2.8.4-3.3-.2,0,0,0-.2.2-.3Z"/>
    <path d="M193.3,101.8c.3.1.5.2.7.3-.2,0-.4.2-.7.2-.2,0-.3.1-.5.1-.2,0-.5,0-.6,0-.2-.1-.3-.5-.2-.6.2-.2.5-.2.7-.3.2,0,.3.1.6.2Z"/>
    <path d="M156.8,122.7c.3,0,.6.1.7.3.1.1.2.3.3.5-.2,0-.4,0-.7,0-.1,0-.2,0-.3,0-.3,0-.5-.2-.8-.2.2-.2.4-.4.7-.5Z"/>
    <path d="M181.5,114.6c-.2,0-.4-.2-.6-.3.1-.2.2-.4.4-.6,0,0,0,0,0,0,.6,0,1.1,0,1.7.1-.4.2-.8.3-1.2.5,0,0-.1.1-.3.2Z"/>
    <path d="M166.5,118.7c0-.2,0-.4,0-.6.5,0,1,.1,1.4.2,0,0,0,.3,0,.3-.5,0-.9.1-1.4.2Z"/>
    <path d="M135.3,73.1c-.3-.1-.5-.2-.7-.3.2,0,.4-.2.7-.2.5,0,1,0,1.5,0,.1,0,.2,0,.3.1,0,0-.2.2-.3.3-.4,0-.9.1-1.5.2Z"/>
    <path d="M205.2,88.1c-.5,0-.9.1-1.3.1-.2,0-.3-.2-.5-.4.2,0,.4,0,.4,0,.6-.7,1,0,1.5.1,0,0,0,0,0,0,0,0,0,0-.1.1Z"/>
    <path d="M187.1,109.9c-.3.3-.7.7-1.1.9,0,0-.4-.3-.6-.4.1,0,.3,0,.4-.1.4-.1.8-.3,1.3-.4Z"/>
    <path d="M169.8,94.9c-.3-.4-.5-.7-.7-1,0-.1-.1-.2-.2-.3.2,0,.4,0,.5.1.3.2.5.5.7.7.1.1.1.3.2.5-.2,0-.4,0-.6,0Z"/>
    <path d="M211.1,84c-.2.2-.4.3-.6.5-.1-.3-.3-.6-.3-.9,0,0,.4-.3.5-.3.2.2.3.4.5.8Z"/>
    <path d="M208.3,62.3c.4,0,.8,0,1.1.1.1,0,.3,0,.4.1-.1.1-.2.4-.3.4-.6.3-1.3,0-1.2-.7Z"/>
    <path d="M205.9,60.7c.2-.1.3-.2.4-.2.3,0,.6.2.8.3-.2.2-.3.5-.5.5-.3,0-.6-.2-1-.3,0,0,0,0,.2-.2Z"/>
    <path d="M126.1,66.1c0-.3.1-.7.2-.7.3,0,.7,0,1,0,0,.1,0,.3-.1.3-.3.2-.7.3-1.1.4Z"/>
    <path d="M228.4,74.8c.3,0,.5.1.7.2.1,0,.3,0,.4.1-.2.1-.4.4-.6.4-.3,0-.6-.2-.9-.4,0-.1.2-.2.3-.3Z"/>
    <path d="M159,150.8c.4.2.7.4,1,.6-.1,0-.3.2-.3.2-.4-.2-.7-.4-1-.6,0,0,.2-.1.4-.2Z"/>
    <path d="M151.6,132.9c0,.2-.1.4-.2.5-.2-.2-.5-.4-.7-.7,0,0,0-.3,0-.4.3.2.5.4.8.6Z"/>
    <path d="M175.7,96c.3-.2.6-.3.8-.4-.2.3-.3.6-.5.9,0,.1-.2.2-.3.3-.2,0-.3,0-.5,0,0-.2,0-.3.2-.5,0-.1.2-.2.3-.3Z"/>
    <path d="M165.7,89.4c0,.2-.2.5-.4.6-.1,0-.4,0-.6,0-.1,0-.1-.3-.2-.5.2,0,.3-.1.5-.1.2,0,.4,0,.6,0Z"/>
    <path d="M173.3,52c.3,0,.5,0,.7.1-.2.1-.4.4-.7.4-.2,0-.5-.1-.8-.2.2-.1.4-.2.7-.3Z"/>
    <path d="M221,69.2c.1,0,.2,0,.2.1.1.3.3.6.4.9,0,0-.2.1-.2.1-.3-.3-.5-.7-.8-1.1,0,0,.2,0,.4,0Z"/>
    <path d="M133.6,70.8c-.3,0-.5-.2-.8-.3.2,0,.4,0,.6-.1.2,0,.3,0,.5,0,.2,0,.4,0,.6,0,0,0-.1.2-.2.2-.2,0-.4,0-.8,0Z"/>
    <path d="M140.4,72.9c.3,0,.6.2.9.3-.2.2-.4.3-.6.5-.1-.2-.2-.5-.3-.7Z"/>
    <path d="M143.2,72.1c-.1-.1-.4-.4-.3-.5.1-.2.4-.3.6-.4,0,.3-.1.6-.3.9Z"/>
    <path d="M174.5,99c.5,0,1-.1,1.6-.1,0,0,0,0,.1.1,0,0-.1.2-.2.2-.5.3-1,.5-1.5-.2Z"/>
    <path d="M178,96.8c-.2,0-.4,0-.6-.2,0-.2.2-.4.3-.4.2,0,.4,0,.6,0,0,.2-.2.4-.3.6Z"/>
    <path d="M200.3,59.6c.4,0,.7,0,1,0,.2,0,.3,0,.5.1-.2,0-.3.3-.5.2-.4,0-.7-.2-1-.3Z"/>
    <path d="M137.1,133.2c.2,0,.3.2.5.3-.2.1-.4.3-.6.4,0,0-.2-.2-.3-.3.1-.1.3-.3.4-.4Z"/>
    <path d="M141.5,74.4c.3,0,.5,0,.8,0-.1.1-.2.3-.3.3-.3,0-.5-.2-.8-.3,0,0,.2,0,.3-.1Z"/>
    <path d="M123.3,67.9c-.2,0-.5,0-.7-.2,0,0,0-.2,0-.4.2.2.4.3.7.6Z"/>
    <path d="M148.9,128.3c.3,0,.5,0,.7.1-.2.1-.4.4-.6.4-.2,0-.5-.3-.7-.4.2,0,.3,0,.6,0Z"/>
    <path d="M183.8,107.9c-.4,0-.7-.2-1-.4,0,0,.2-.2.2-.2.3.1.6.3.8.5Z"/>
    <path d="M231.1,79.1c.3,0,.5,0,.8,0-.1.2-.2.3-.3.5-.2-.2-.3-.3-.4-.5Z"/>
    <path d="M153.9,136.1c0,0-.3.3-.3.3-.2,0-.4-.3-.6-.4,0,0,.2-.3.3-.2.2,0,.4.2.7.4Z"/>
    <path d="M185.5,55.5c0-.2.2-.4.4-.6,0,0,.2,0,.3.2-.2.2-.4.3-.6.5Z"/>
    <path d="M128.9,70.4c-.2,0-.3-.2-.4-.3.3,0,.6,0,.9,0,0,0,0,.2.1.3-.2,0-.4,0-.7,0Z"/>
    <path d="M220.2,82.8c.2.1.4.2.5.3-.1,0-.3.3-.4.2-.3-.1-.5-.3-.7-.5.2,0,.3,0,.6,0Z"/>
    <path d="M189.2,107c-.3.2-.5.3-.7.4,0-.2.1-.4.2-.4.1,0,.3,0,.5,0Z"/>
    <path d="M224,72.5c0,.2-.1.3-.2.4-.2-.3-.4-.5-.6-.8,0,0,.1-.1.1,0,.2.2.4.3.7.5Z"/>
    <path d="M130.5,63c.3-.1.6-.2,1-.3,0,0,0,.2,0,.2-.3,0-.7.1-1,.2Z"/>
    <path d="M131.5,70.8c.2.1.4.2.5.3-.1,0-.2.2-.4.3,0-.2-.2-.4-.2-.6Z"/>
    <path d="M189.2,56.8c-.3-.2-.5-.4-.7-.6.2.1.4.2.6.4,0,0,.1.1.1.3Z"/>
    <path d="M164.5,53.2c.1,0,.2,0,.2,0,.2,0,.4.2.7.3,0,0-.1.2-.1.2-.2,0-.4,0-.6-.2,0,0-.1-.1-.2-.2Z"/>
    <path d="M144.6,129.5c.2,0,.4-.1.5-.2,0,.2-.2.4-.3.5-.1,0-.3,0-.5.1,0-.1.1-.3.3-.4Z"/>
    <path d="M124.1,66.3c-.2-.1-.3-.2-.3-.3.3,0,.6-.1.9-.2-.1.2-.3.4-.5.5Z"/>
    <path d="M147.9,77c-.2-.2-.3-.3-.4-.5.2,0,.4,0,.6.1,0,.1-.1.3-.3.4Z"/>
    <path d="M144.2,68.6c-.1.2-.2.3-.3.3,0,0-.2-.2-.2-.2.2-.2.4-.3.6-.5,0,0,0,.2,0,.4Z"/>
    <path d="M179.8,53.9c0-.1,0-.3.1-.3.2,0,.4,0,.6.1-.2,0-.4.2-.7.2Z"/>
    <path d="M132.7,68.9c0,0,.1,0,.1,0,.2,0,.5,0,.7,0,0,0-.1.2-.1.2-.3,0-.5-.1-.7-.2Z"/>
    <path d="M218.5,84c0,.2-.2.3-.4.5,0-.1-.1-.3-.2-.4.2,0,.3,0,.6-.1Z"/>
    <path d="M225.3,73.7c.3,0,.4,0,.6.1,0,.1-.1.3-.2.4-.2-.2-.3-.3-.4-.5Z"/>
    <path d="M153.6,139.6c.2,0,.4,0,.5.1,0,.1-.2.3-.2.4-.1-.1-.2-.3-.3-.5Z"/>
    <path d="M208.4,89.6c0,.2-.2.3-.3.5,0-.1-.2-.3-.2-.4.2,0,.3-.1.5-.1Z"/>
    <path d="M197.4,57.3c0,.2-.1.3-.2.4-.1-.2-.2-.3-.3-.5.2,0,.3,0,.6.1Z"/>
    <path d="M199.9,58c.2,0,.4,0,.5.1,0,.1-.2.3-.2.4-.1-.1-.2-.3-.3-.5Z"/>
    <path d="M218.7,78.6c.2,0,.3,0,.5,0-.2.1-.4.3-.5.4,0-.1,0-.3,0-.5Z"/>
    <path d="M174.8,96.5c-.2,0-.5,0-.6-.2,0,0,0,0,0-.1.2,0,.5.2.7.3Z"/>
    <path d="M160.5,149.8c-.2,0-.4-.1-.5-.2.2,0,.3,0,.5-.1,0,0,0,.2,0,.3Z"/>
    <path d="M158.8,121.2c0,0,.1.2,0,.2-.1.1-.3.2-.5.3,0,0-.1-.1-.2-.2.2,0,.3-.2.6-.3Z"/>
    <path d="M178.5,102.5c-.2,0-.4-.1-.5-.2.2,0,.3,0,.5-.1,0,0,0,.2,0,.3Z"/>
    <path d="M211.2,88.2c.2,0,.4,0,.7-.1,0,0,0,.2,0,.2-.2,0-.4,0-.6,0Z"/>
    <path d="M157,83.8c-.2-.1-.3-.2-.3-.3h.7c0,.1-.2.2-.3.3Z"/>
    <path d="M178.4,114.6c.2,0,.3,0,.4.1-.2,0-.3.2-.5.3,0-.1,0-.3,0-.4Z"/>
    <path d="M181.5,66.7c0-.1,0-.3,0-.4,0,0,.2,0,.3,0,0,.1-.2.2-.3.3Z"/>
    <path d="M72.1,168.7c-.3,0-.6,0-.9,0-.8,0-1.5,0-2.3.2-.6.1-1.3.3-1.8.6-.6.4-.8,0-1.1-.3,0,0-.1-.1-.2-.2,0,0,.2,0,.3,0,1.7.3,3.2-.5,4.8-.9.4,0,.9.1,1.4.2.1,0,.2.2.4.3-.2,0-.4.1-.6.2Z"/>
    <path d="M87.6,124.5c.4-.2.8-.6,1.1-.5.3.1.7.7.6,1,0,.4-.5.8-.8,1.2-.3-.3-.6-.6-.8-.9-.1-.2,0-.5,0-.9Z"/>
    <path d="M111.1,155.1c0-.2,0-.4,0-.5,0-.3-.2-.5-.2-.8.2.2.5.4.7.6.7,1.2.5,1.5-.8,1.7-.2,0-1-.1-.6.6,0,0-.1.2-.2.3-.2-.1-.4-.2-.5-.4,0,0,0-.4.1-.4.5-.3,1-.6,1.5-1.1Z"/>
    <path d="M105.1,157.6c-.3-.1-.5-.2-.7-.3.2,0,.4-.2.7-.2.9,0,1.9.1,2.8.2.1,0,.2.1.4.2-.1,0-.2.2-.3.2-.9.2-1.8.7-2.8,0Z"/>
    <path d="M79,98.5c.2,0,.3,0,.4,0,0,0,0,.2,0,.3-.7.8-1.5,1.3-2.5,1.5-.2,0-.4-.2-.7-.3.1-.2.3-.5.3-.5,1.1.4,1.6-.5,2.4-.9Z"/>
    <path d="M72.5,106.1c.1-.3.2-.6.4-.7.2-.1.5,0,.7,0,0,.2,0,.4-.2.6-.1.2-.3.5-.4.7-.1.2-.3.5-.4.7-.1,0-.4-.1-.4-.2,0-.2,0-.5,0-.7,0,0,.1-.1.2-.3Z"/>
    <path d="M87.2,165.2c-.3,0-.5,0-.7.2-.4.3-.8.4-1,0,0-.1.5-.5.8-.7.2-.1.6,0,.8,0,.8,0,.3.3,0,.6Z"/>
    <path d="M77.4,150.8c0-.3,0-.4,0-.6.2,0,.5,0,.7.1.2,0,.3.3.4.5,0,.3,0,.6,0,.9-.2-.1-.5-.2-.7-.4-.2-.2-.4-.4-.6-.6Z"/>
    <path d="M67.5,162.1c.4,0,.7,0,1,0,0,.3-.1.6-.3.8-.1.2-.4.2-.7.2,0-.3-.1-.6-.1-1Z"/>
    <path d="M113.2,153c-.2-.2-.3-.3-.4-.5.1,0,.3-.2.4-.1.5.2.9.4,1.3.7,0,0,0,.3,0,.5-.2,0-.3,0-.5,0-.3-.2-.5-.4-.9-.6Z"/>
    <path d="M89.5,87.7c0,.2,0,.4.1.5,0,.2.2.4.3.5-.4.1-.7.2-1.1.3,0,0-.1-.2-.2-.4.9,0,.5-.6.4-1,.2,0,.3,0,.5,0Z"/>
    <path d="M113.8,155.1c-.4-.4-.8-.8-1.1-1.3,0,0,.1-.4.2-.6.2.2.4.3.5.5.2.4.3.9.4,1.4Z"/>
    <path d="M80.1,104.3c-.3-.2-.5-.5-.6-.7,0-.1-.1-.3,0-.4.1-.1.4-.3.5-.2.2.2.5.4.6.6,0,.2-.1.5-.3.7Z"/>
    <path d="M103.9,130.9c-.3,0-.5-.2-.8-.3.2,0,.4-.1.5-.2.1,0,.3-.1.4-.1.3,0,.6.1.9.2,0,0,0,.2,0,.2-.3,0-.6.1-1,.2Z"/>
    <path d="M100.9,88.8c.3,0,.9-.3.7.4,0,.3-.3.6-.5.9,0-.3-.2-.6-.3-.9,0-.1,0-.3,0-.4Z"/>
    <path d="M68.1,113.6c.4-.3.8-.6,1.3-.8,0,0,.2.1.3.2-.3.3-.7.6-1,.9,0,0-.3-.1-.5-.3Z"/>
    <path d="M115.2,153.7c.2-.1.6-.2.7-.1.1.2,0,.5.1.8-.2,0-.4,0-.6-.2-.1,0-.1-.3-.2-.5Z"/>
    <path d="M81.2,162.9c-.2.3-.5.5-.7.7,0-.2-.3-.4-.2-.5.1-.2.3-.4.5-.6,0,0,.3.2.4.4Z"/>
    <path d="M100,104.7c.3,0,.5,0,.8.1-.3.2-.5.4-.8.6-.1,0-.3,0-.5,0,.1-.2.3-.5.5-.7Z"/>
    <path d="M83.6,165.6c-.2.2-.4.4-.7.4-.2,0-.4-.2-.6-.2.1,0,.3-.2.4-.2.2-.1.5-.2.7-.3.2,0,.5-.2.7-.3-.2.2-.4.4-.7.6Z"/>
    <path d="M107,146.5c.4,0,.7,0,1,0,0,.1-.1.3-.2.3-.4,0-.7,0-1.1.1.1-.2.2-.3.4-.5Z"/>
    <path d="M60.2,161.8c-.2,0-.4,0-.6,0,0-.2,0-.5,0-.6.2-.1.4,0,.6-.1,0,.2,0,.4,0,.6Z"/>
    <path d="M82.3,160.9c.1-.2.3-.5.4-.5.3,0,.6.2.9.3-.3,0-.5.2-.8.3-.2,0-.3,0-.5,0Z"/>
    <path d="M73.7,104.3c.2-.2.4-.3.6-.4,0,.1.2.3.1.4-.2.2-.4.3-.6.5,0-.1-.1-.3-.2-.5Z"/>
    <path d="M60.1,142.4c.2,0,.4-.1.6-.2,0,.3,0,.7,0,1-.2-.3-.4-.5-.6-.9Z"/>
    <path d="M106.2,136.6c-.8.3-.4-.4-.5-.6,0,0,0-.2,0-.3.2.1.5.2.6.4,0,0,0,.3,0,.5Z"/>
    <path d="M101.1,152.5c.2-.3.5-.6.7-.9,0,0,.2,0,.2.1,0,.1,0,.2-.1.3-.2.2-.5.4-.8.5Z"/>
    <path d="M61.7,138.2c0,.2-.3.4-.5.6,0,0-.3-.2-.4-.2.3-.1.6-.2.9-.3Z"/>
    <path d="M107,139c-.1.2-.3.3-.4.5-.1-.3-.2-.5-.3-.8.2,0,.5.2.7.3Z"/>
    <path d="M111.6,157.6c-.2,0-.4-.1-.5-.2-.1-.1-.2-.3-.4-.5.1,0,.4,0,.4,0,.2.2.3.4.4.7Z"/>
    <path d="M105.1,133.4c.3,0,.5,0,.7,0,0,.2,0,.3-.1.5-.2-.2-.4-.3-.6-.5Z"/>
    <path d="M64.4,131.8c.1,0,.2,0,.2,0,0,.3-.2.6-.3.9,0,0-.2,0-.2,0,0-.3.2-.6.4-.9Z"/>
    <path d="M100.8,94.3c0-.2.2-.4.4-.6,0,0,.2.2.3.3-.2.1-.4.3-.6.4Z"/>
    <path d="M103.3,80.1c0,.2-.2.4-.4.4-.2,0-.5,0-.8,0,0,0,0-.1-.1-.2.2,0,.4,0,.6,0,.2,0,.4-.1.6-.1Z"/>
    <path d="M103.3,157c-.2-.1-.2-.3-.3-.4.3,0,.7,0,1-.1-.1.1-.2.2-.3.3,0,0-.2.1-.4.2Z"/>
    <path d="M70,158.2c-.1.2-.3.4-.4.5l-.3-.5c.2,0,.5,0,.8,0Z"/>
    <path d="M80.8,168c-.2,0-.5,0-.6,0,0,0,0-.2,0-.3.2,0,.5.2.7.3Z"/>
    <path d="M76.4,169.3c0,.2,0,.4-.1.6-.2,0-.4-.2-.7-.3.2,0,.5-.2.8-.3Z"/>
    <path d="M68.4,176.6c-.2.2-.4.3-.5.3,0,0-.1-.2-.2-.3.2,0,.3-.1.5-.2.2,0,.4-.5.2.2Z"/>
    <path d="M71.8,154.2c0,.1.1.3.2.4-.2,0-.4,0-.6,0,.1-.1.3-.3.4-.4Z"/>
    <path d="M99.7,121.2c.1.2.2.3.2.5-.2,0-.3,0-.5,0,0-.1.1-.3.3-.4Z"/>
    <path d="M104.4,140.9c.1,0,.3-.1.5,0,0,0,0,.2.1.4-.2,0-.4-.2-.6-.3Z"/>
    <path d="M64.3,134.2c0,.2,0,.3.1.4-.2,0-.4,0-.5-.2,0,0,0-.3,0-.4.1,0,.3.1.4.2Z"/>
    <path d="M83.6,96.4c.3,0,.5,0,.7-.1-.2.2-.4.3-.6.5,0-.1-.1-.3,0-.4Z"/>
    <path d="M89.2,164c.1.1.1.2.1.3-.2,0-.4,0-.6,0,.1-.1.2-.3.5-.4Z"/>
    <path d="M76.3,171.3c-.2-.1-.4-.3-.5-.4.1,0,.4-.2.4-.1.1.1.1.3.1.5Z"/>
    <path d="M98.9,104.5c-.2-.1-.4-.2-.5-.3.3,0,.6,0,.9,0,0,.1-.2.2-.3.3Z"/>
    <path d="M59.5,160.1c-.1.2-.2.3-.3.4,0-.2-.2-.3-.3-.5.2,0,.4,0,.6,0Z"/>
    <path d="M100.4,158.5c-.3,0-.5,0-.8-.1,0,0,0-.1,0-.2,0,0,.1,0,.2,0,.2,0,.5.2.7.3Z"/>
    <path d="M61.8,136.7c.1.2.2.3.2.4-.2,0-.3,0-.5,0,0-.1.1-.3.2-.3Z"/>
    <path d="M80.2,123.4c0-.2,0-.3,0-.4.2.2.3.3.5.5-.1,0-.3,0-.4,0Z"/>
    <path d="M62,167.7c0,.2-.3.4-.5.6,0,0,0-.1,0-.1.2-.2.3-.3.6-.4Z"/>
    <path d="M79.2,168.9c.2,0,.4,0,.5.1,0,.1-.2.3-.2.4-.1-.1-.2-.3-.3-.5Z"/>
    <path d="M63.5,178.6c0-.2,0-.3,0-.4.2,0,.3.2.5.3-.1,0-.2.1-.4.2Z"/>
    <path d="M113.8,155.2c.2,0,.5,0,.7,0,0,0-.1.2-.1.2-.2,0-.4-.1-.6-.2Z"/>
    <path d="M109,148.6c.3,0,.5,0,.7,0,0,0-.1.2-.1.2-.2,0-.4-.1-.6-.2Z"/>
    <path d="M94.6,158.2c.2,0,.4.2.5.3,0,0-.1.1-.2.1-.2-.1-.3-.3-.4-.4Z"/>
    <path d="M104,135.1c0-.1-.1-.2-.2-.3.2,0,.3,0,.5.1,0,0-.2.1-.3.2Z"/>
    <path d="M98.1,105.1c0,.1-.2.2-.3.3,0-.1-.2-.2-.2-.3.1,0,.3,0,.5,0Z"/>
    <path d="M64.1,175.8c-.2,0-.3-.1-.5-.2,0,0,.1-.1.1-.1.1,0,.3.2.4.3Z"/>
    <path d="M89.2,90c0,.1,0,.3,0,.4-.2,0-.3-.2-.5-.3,0,0,.2,0,.4-.1Z"/>
    <path d="M89.3,156.3c.1.2.2.3.2.4-.1,0-.3-.1-.4-.2,0,0,0-.2.2-.2Z"/>
    <path d="M203.4,235.6c-1.2,0-2.3,0-3.4,0-.2,0-.3-.3-.5-.5.3,0,.6-.3.7-.3,1.4.6,2.8.3,4.2-.2,0,0,.2,0,.3,0,0,.1,0,.3-.1.3-.4.2-.7.4-1.2.6Z"/>
    <path d="M183.5,225.6c.3-.8.8-.5,1.3-.2.4.3,1.1.4.9,1.2,0,0-.1,0-.1.1,0,.3,0,.6,0,.8-.4-.3-1.1-.8-1.1-1,.2-.8,0-.8-.6-.6,0,0-.2-.2-.4-.4Z"/>
    <path d="M200.3,218.3c0-.3-.1-.6,0-.9,0-.2.3-.4.4-.6.1.2.2.4.3.5.2.2.5.3.7.5.2.2.5.4.7.7,0,0,0,.3,0,.4,0,0-.2-.2-.3-.2-.6-.1-1.1-.2-1.7-.4Z"/>
    <path d="M204,222.1c-.2,0-.4,0-.6,0-.2,0-.5,0-.6-.1,0,0-.1-.4,0-.5.1-.1.4-.3.5-.3.5.1.9.3,1.3.5,0,0,0,.2.1.3-.2,0-.4.1-.6.2Z"/>
    <path d="M201.8,238.3c.4.2.8.4,1.2.6,0,0,.2.3.1.3,0,0-.3.2-.4.2-.5-.3-.9-.7-1.4-1,.1,0,.3,0,.5,0Z"/>
    <path d="M190.4,237.3c.5,0,1.1,0,1.7,0,0,0,.2.1.1.2,0,.1-.2.3-.3.4-.6,0-1.3.4-1.6-.6Z"/>
    <path d="M205.5,224.9c-.1,0-.3,0-.3-.1-.2-.2-.5-.5-.7-.7h1.1c0,.3,0,.6,0,.9Z"/>
    <path d="M185.4,229.6c-.2-.2-.3-.4-.3-.5.4,0,.8,0,1.2,0,0,0,0,.1.1.2-.3.1-.6.2-1,.3Z"/>
    <path d="M200.3,239.8c-.3,0-.4-.2-.6-.3.1-.1.3-.3.4-.3.3,0,.7.1,1,.2,0,0,0,.2,0,.2-.2,0-.5.1-.8.1Z"/>
    <path d="M190,234.6c-.1,0-.3,0-.4-.1-.1-.3-.1-.6-.2-1,.1,0,.3,0,.3,0,.1.3.2.6.3.8,0,0,0,.1,0,.3Z"/>
    <path d="M202.4,237.5c-.2-.1-.4-.3-.5-.4.2,0,.5,0,.7-.1,0,.2,0,.3-.2.5Z"/>
    <path d="M193.3,237.8c0-.1,0-.3,0-.5.1,0,.2,0,.4,0-.1.1-.2.3-.4.5Z"/>
    <path d="M185.6,190.6c.3,0,.6-.2.8,0,.1,0,.2.5.1.6-.5.4-1,.8-1.5,1.2,0-.2-.3-.5-.2-.7.2-.4.5-.6.8-1Z"/>
    <path d="M196.2,208.3c-.3.1-.7.2-1.1.3,0-.2,0-.5,0-.7,0-.2-.1-.3-.2-.5,0-.3-.1-.6-.2-.8.1,0,.3,0,.4,0,.2.2.6.6.5.7-.4.7.3.8.6,1.1Z"/>
    <path d="M197.1,211.1c-.4-.3-.8-.6-1.2-.9-.1-.1-.2-.4-.2-.6.2,0,.5,0,.6,0,.3.4.6.9.8,1.4Z"/>
    <path d="M186.4,194.8c-.1-.1-.2-.2-.3-.2-.2-.1-.4-.3-.6-.4.2,0,.4,0,.6,0,.6-.3,1-.2.9.6,0,0-.4.1-.7.1Z"/>
    <path d="M187.5,192.3c-.1.2-.3.4-.4.5-.2.1-.4.3-.5.4,0-.2-.2-.4-.2-.6,0-.2.3-.4.5-.5.2,0,.4,0,.6.2Z"/>
    <path d="M176.4,177c.2,0,.4,0,.6.2,0,.1-.2.2-.3.4-.1-.2-.2-.3-.3-.5Z"/>
    <path d="M176.6,175.5c.3,0,.5.2.8.3,0,0-.2.2-.2.3-.2-.2-.4-.4-.5-.5Z"/>
    <path d="M168.9,167.3c-.4-.5-.7-1-1.1-1.5,0-.1-.1-.3-.2-.5.2,0,.4,0,.5,0,0,0,.2,0,.2,0,.5.6,1.2.8,1.9.6.1,0,.3,0,.5,0,0,.1-.2.3-.3.3-.5.3-1,.6-1.6,1Z"/>
    <path d="M108.8,68.4c-.2-.3-.3-.5-.4-.7.2.1.4.2.6.3,0,0,0,0,.1.1.2.2.3.3.5.5-.3,0-.5-.1-.8-.2Z"/>
    <path d="M107.3,63.6c.2,0,.4,0,.5.2-.1.1-.2.2-.4.4,0-.2-.1-.3-.2-.5Z"/>
    <path d="M131.3,139.4c.4,0,.7,0,.9-.1,0,0,0,.2,0,.3-.3.2-.7.4-1,.4-.4,0-.4-.3,0-.5Z"/>
  </g>
</svg>