<?xml version="1.0" encoding="UTF-8"?>
<svg id="Layer_1" xmlns="http://www.w3.org/2000/svg" version="1.1" viewBox="0 0 265.6 454.4">
  <!-- Generator: Adobe Illustrator 29.3.1, SVG Export Plug-In . SVG Version: 2.1.0 Build 151)  -->
  <g id="Shape_59">
    <path d="M263.3,128.6c-.1.7.8,1.1,0,1.7-.2.2,0,.9,0,1.4,0,11.7,0,23.4,0,35.1,0,.7-.2,1.5-.3,2.2,0,.4,0,.7,0,1.1,0,.8.5,1.7.3,2.4-.2.7.6,1.4-.3,1.9.6,1,0,2,0,3,0,9.5,0,18.9,0,28.4,0,.7-.5,1.6-.2,2.2.3.8.3,1.4-.1,2.1.8,1.1-.5,2.2.2,3.4.3.5-.2,1.5-.2,2.3,0,8.3.3,16.7,0,25-.5,10.2,0,20.3-.3,30.4,0,.7-.3,1.4.3,2,.1.1.1.6,0,.7-.7.6-.3,1.4-.3,2,0,13.2,0,26.4,0,39.6,0,1.3-.3,2.6-.3,3.8,0,2.6,0,5.1,0,7.7s0,4.4,0,6.7.1,5.7,0,8.5c0,1.4-.4,2.7-.2,4.2.1,1.3,0,2.6,0,4,0,1.4,0,2.9,0,4.3s0,2.9,0,4.3c-.1,8,0,16-.4,23.9-.5,8,.1,16.1-.4,24.1-.4,6.4,0,12.7-.3,19-.4,6.3-.2,12.7-.3,19,0,.9-.3,1.7-.3,2.6,0,.9.2,1.9.2,2.9,0,1-.5,2.1-.2,3.1,0,.1-.5.5-.8.7-.3.1-.7,0-1.1,0-20.1,0-40.3,0-60.4,0-.6,0-1.2.1-1.9-.3-.7-.5-1.7,0-2.5,0-.5,0-1,.3-1.6,0-.4-.2-.7.3-1.3,0-.5-.3-1.6-.1-2.2.2-1.2.5-2.3-.6-3.5,0-.3.2-.8-.3-1.3-.3-1.2,0-2.4-.2-3.7.3-.6.2-1.5-.1-2.2-.2-.5,0-1.1,0-1.6,0-15.8,0-31.6,0-47.4,0s-.6,0-.9,0c-1.3,0-1.4-.1-1.4-1.5,0-4.2-.2-8.3,0-12.5.5-7.2.2-14.3.3-21.5,0-7.2-.3-14.5,0-21.7.4-7.7-.1-15.5.3-23.2.6-11.4,0-22.7.3-34.1,0-1.1,0-2.2.2-3.3.2-1,.1-2.2.1-3.3,0-2.1,0-4.1,0-6.2.1-13.3.2-26.7.4-40,0-1.8.5-3.6.3-5.3-.7-5.6-.5-11.3-.2-16.9.4-9.7.1-19.3.3-29,0-.9.4-1.8.3-2.7-.2-2.9,0-5.8,0-8.6,0-3.1,0-6.3,0-9.4v-9.2c0-3.1,0-6.2,0-9.2,0-1.1,0-2.3.4-3.2.5-1-.2-.6-.4-.5-.3,0-.6.3-.7.5-.5,1.8-2.1,3-3.1,4.5-.8,1.3-1.9,2.4-2.8,3.6-.8,1-1.6,2.1-2.4,3.2-2.1,2.8-4.1,5.7-6.3,8.4-1.9,2.4-3.9,4.8-5.7,7.2-.9,1.2-1.8,2.5-2.7,3.8-1.3,1.7-2.5,3.3-3.8,4.9-1.6,2-3.4,3.7-4.7,5.9-1.9,3.1-4.7,5.6-6.5,8.7-.6,1-1.5,1.1-2.4.4-2.4-1.8-4.9-3.6-7.4-5.4-2.5-1.8-4.9-3.6-7.4-5.4-2.8-2-5.5-4.1-8.3-6.1-2.2-1.6-4.5-3.2-6.7-4.9-2.4-1.8-4.8-3.6-7.2-5.3-2.4-1.7-4.8-3.3-7.1-5.1-2.8-2-5.5-4.1-8.3-6.1-2.6-1.9-5.2-3.8-7.8-5.6-1.6-1.1-3.2-2.3-4.7-3.5-2.1-1.6-4.2-3.3-6.4-4.7-2.4-1.5-4.4-3.4-6.9-4.8-1.7-1-3.1-2.4-4.7-3.5-1.2-.9-2.4-1.7-3.6-2.6-.8-.6-.8-1.5-.3-2.5,1-2.1,2.7-3.7,4.1-5.5.5-.6.8-1.4,1.3-2,.9-1.2,1.9-2.3,2.8-3.6,2.2-3.1,4.8-5.9,7-9,2.2-3.2,4.9-6.2,7.4-9.3,1.2-1.5,2.2-3.1,3.4-4.6,1.6-2.1,3.3-4.2,5-6.3,1.3-1.6,2.5-3.3,3.7-5,.8-1,1.7-1.9,2.4-3,1.7-2.9,4.4-5.1,6.1-8.1,1.2-2.1,3.1-3.9,4.7-5.9,1.8-2.2,3.5-4.5,5.2-6.7.7-1,1.4-1.9,2.2-2.9,1.9-2.4,4-4.6,5.6-7.1,2.1-3.3,5-6,7-9.4.8-1.3,2.2-2.2,3-3.5,1.4-2.2,3.2-4.1,4.8-6.2,2-2.6,3.8-5.3,5.8-7.9.6-.8,1.2-1.6,2-2.3,1.8-1.8,3-4.1,4.6-6,1.6-2,3.3-4,4.9-6,1.3-1.6,2.6-3.3,3.8-4.9,1.4-1.8,2.7-3.7,4.1-5.5,1.9-2.5,3.8-5.1,5.8-7.6,1.5-1.9,3.1-3.8,4.6-5.7,2.4-3,5.1-5.9,7.2-9.2,1.4-2.2,3.4-4.1,4.7-6.3.7-1.2,1.7-2.3,2.7-3.4.9-1.1,2-2,2.5-3.5.3-.9,1.3-1.6,2-2.4,1.6-2,3.1-4.1,4.6-6,.5-.7,1.1-1.2,2.2-1.2,1.8,0,3.7-.5,5.4-.2,4.2.6,8.4.5,12.5.2,5-.4,10.1-.4,15.1-.2,9,.4,18,.2,26.9.3,9.2,0,18.5-.3,27.7,0,10.3.4,20.5,0,30.8.2.7,0,1.3.4,2.1.1.7-.3,1.7,0,2.5,0s1.6,0,2.4,0c1.6,0,1.8.2,1.8,1.8,0,7.8,0,15.7,0,23.5,0,1.1,0,2.2,0,3.3,0,1.1,0,2.3,0,3.4,0,.7-.2,1.4-.3,2.1,0,.6.3,1.2.2,1.8,0,1-.2,2.1-.3,3.1,0,1.1.2,2.2,0,3.3-.1,1.2,0,2.4,0,3.6v17.9c0,4.9,0,9.9,0,14.8,0,.9,0,1.8-.2,2.6-.3.8.8,1.5-.2,2.2.6,1.4-.5,2.9.3,4.5.3.7-.3,1.8-.3,2.7,0,6.2,0,12.4,0,18.6,0,.8-.2,1.7-.2,2.5,0,.9.1,1.8.2,2.7,0,1,0,1.9,0,2.9,0,.6-.5,1.5-.3,1.8.6.7,0,1.2,0,1.7,0,.9.3,1.8.3,2.7,0,.7-.2,1.4-.3,2.2M160.1,21.3c0,.1,0,.2,0,.3,0-.1.1-.2.4-.3,0-.1,0-.2,0-.3,0,.1-.1.2-.4.3M191.8,26.9c-.1,0-.2,0-.3,0,.1,0,.2.1.3.4.1,0,.2,0,.3,0-.1,0-.2-.1-.3-.4M150.6,46c0,.1,0,.2,0,.3,0-.1.1-.2.4-.3,0-.1,0-.2,0-.3,0,.1-.1.2-.4.3M169.5,50.7c0,.1,0,.2,0,.3,0-.1.1-.2.4-.3,0-.1,0-.2,0-.3,0,.1-.1.2-.4.3M183.4,53.7c-.1,0-.2,0-.3,0,.1,0,.2.1.3.4.1,0,.2,0,.3,0-.1,0-.2-.1-.3-.4M179.3,70.6c0,.1,0,.2,0,.3,0-.1.1-.2.4-.3,0-.1,0-.2,0-.3,0,.1-.1.2-.4.3M165.1,82.2c0,.1,0,.2,0,.3,0-.1.1-.2.4-.3,0-.1,0-.2,0-.3,0,.1-.1.2-.4.3M48.1,135.8c0,.1,0,.2,0,.3,0-.1.1-.2.4-.3,0-.1,0-.2,0-.3,0,.1-.1.2-.4.3M45.2,139.8c0,.1,0,.2,0,.3,0-.1.1-.2.4-.3,0-.1,0-.2,0-.3,0,.1-.1.2-.4.3M25,165.9c0,.1,0,.2,0,.3,0-.1.1-.2.4-.3,0-.1,0-.2,0-.3,0,.1-.1.2-.4.3M45.4,197.6c-.1,0-.2-.1-.4-.4-.1-.1-.2-.3-.4-.4-.2-.2-.4-.3-.6-.4,0,.2,0,.6.2.7.2.2.5.2.8.4.1,0,.2.1.4.4.1,0,.2,0,.3,0-.1,0-.2-.1-.3-.4M57.7,206.6c-.1,0-.2,0-.3,0,.1,0,.2.1.3.4.2,0,.4,0,.6.1,0,0,0-.2,0-.2-.2,0-.4,0-.6-.3M186.1,17.3c.2,0,.3,0,.5,0,0,0,0-.2,0-.2-.2.1-.4.2-.8.3,0,.1,0,.2,0,.3,0-.1.1-.2.4-.3M130.4,170.2c0-.2,0-.4.1-.6,0,0-.2,0-.2,0,0,.2,0,.4-.3.6-.2,0-.3,0-.5,0,0,0,0,.2,0,.2.2-.1.4-.2.8-.3M172.7,31.5c-.2,0-.3,0-.5,0,0,0,0,.2,0,.2.2-.1.4-.2.8-.3,0-.1,0-.2,0-.3,0,.1-.1.2-.4.3M184.9,30.6c.1,0,.2,0,.3,0-.1,0-.2-.1-.3-.4-.2,0-.5-.1-.7-.4,0-.2,0-.4,0-.5-.1-.2-.4-.3-.5-.4,0,.2,0,.3.2.5.1.2.3.4.4.8.2,0,.5.1.7.4M183.2,22.1c.2-.2.3-.4.5-.6,0,0-.3-.1-.3-.1-.1.2-.3.5-.6.7,0,.1,0,.2,0,.3,0-.1.1-.2.4-.3M21.3,170.6l-.5.6c0,0,.3.1.3.1.1-.2.3-.5.6-.7,0-.1,0-.2,0-.3,0,.1-.1.2-.4.3M159.2,51.2c.1,0,.2,0,.3,0-.1,0-.2-.1-.3-.4-.2-.2-.4-.3-.6-.5,0,0-.1.3-.1.3.2.1.5.3.7.6M193.4,54.7c-.2.3-.4.6-.5.9,0,0,.1.1.2.2.2-.3.3-.7.7-1,0-.1,0-.2,0-.3,0,.1-.1.2-.4.3M27.1,163.3c-.2.3-.4.6-.5.9,0,0,.1.1.2.2.2-.3.3-.7.7-1,.2-.2.3-.4.5-.6,0,0-.3-.1-.3-.1-.1.2-.3.5-.6.7M97,212.6c-.2.3-.4.6-.5.9,0,0,.1.1.2.2.2-.3.3-.7.7-1,0-.1,0-.2,0-.3,0,.1-.1.2-.4.3M105,202.8c.2-.5.4-1,.7-1.4h.5c0-.2,0-.3,0-.3-.2.1-.4.2-.8.3-.5.3-.6.9-.7,1.4,0,.1,0,.2,0,.3,0-.1.1-.2.4-.3M193,29.7c.3-.1.9.3.9-.4,0-.2,0-.4-.1-.6-.2.2-.3.5-.5.7-.1.1-.3.2-.6.4,0,.2,0,.4-.1.6,0,0,.2,0,.2,0,0-.2,0-.4.3-.6M101.7,206.4c-.1.1-.3.2-.4.4-.2.2-.3.4-.4.6.2,0,.6,0,.7-.2.2-.2.2-.5.4-.8,0-.1,0-.2,0-.3,0,.1-.1.2-.4.3M198.8,29.7c-.2.3-.4.7-.5,1,0,0,0,.2,0,.3,0,0,.2-.1.3-.3.1-.4.2-.7.6-1.1,0-.1,0-.2,0-.3,0,.1-.1.2-.4.3M172,23.1c.2.1.5.2.7.3,0-.2.2-.4.1-.5-.3-.2-.6-.4-.9-.6,0,.2,0,.4-.3.7,0,.1,0,.2,0,.3,0-.1.1-.2.4-.3M41.8,195.4c0,0,.2.2.3.2.5,0,1,.1,1.5.2-.4-.2-.7-.4-1.1-.5-.2,0-.4,0-.7-.3-.4-.3-.8-.6-1.2-.9,0,0-.1.1-.2.2.4.3.7,1,1.4,1.1M175.1,23.3c.1,0,.2,0,.3,0-.1,0-.2-.1-.3-.4,0,0-.2-.2-.3-.3-.3-.3-.7-.7-1-1,0,0-.2.2-.2.2.2.4.5.8.8,1.1.1.1.4,0,.6.3M194.1,17.7c.4.8.9.2,1.3,0,.3-.1.5.8.7,0,0-.2-.5-.7-.7-.7-.5,0-.9.4-1.6.7-.3,0-.6,0-.8.1,0,.1.2.4.3.4.3,0,.5-.2.8-.3,0,0,0-.1.2-.2M250.8,213.1c.1-1,0-2,0-2.9,0-1.7.3-3.3.3-5,0-9.2,0-18.3,0-27.5.1-9.2-.2-18.4.3-27.5.5-9.1-.3-18.3.4-27.4,0-1.1.2-2.2-.2-3.3-.3-.8.5-2,.2-2.8-.4-1.1.1-1.9.1-2.8,0-14.6,0-29.2,0-43.8,0-1.8-.3-3.5.3-5.3.2-.5-.2-1.1-.2-1.7,0-.9,0-1.8,0-2.7,0-.5.3-1,.3-1.5,0-2.5,0-5.1,0-7.6v-7.8c0-2.5,0-5.1,0-7.6-.1-2.5.3-5,0-7.5-.1-1.5.3-3,.3-4.6,0-2.7,0-5.3,0-8,0-1.2,0-1.2-1.2-1.3-8.9-.2-17.9.2-26.8-.3-10.2-.5-20.5,0-30.8-.3-14.9-.5-29.9.3-44.8-.4-.9,0-1.9.2-2.7,0-.9-.2-1.5.7-2.5.1-.4-.3-1.8,1-1.6,1.5.7,1.3.1,2.7.3,4,.1.7.5,1.5.3,2-.4,1-.3,2-.3,3,0,1.7-.2,3.4,0,5.1.2,1.6,0,3.2,0,4.8,0,1.3.2,2.6,0,3.9-.2,2.5,0,4.9,0,7.4,0,.5.3,1.1.5,1.6,0,0,.2,0,.3,0,0,0,.2-.2.2-.2-.6-.7-.6-1.3.4-1.8,0,0,0,0-.1-.1-.6-1.5-.4-3-.2-4.5,0-.5.3-1.1.3-1.6,0-.6-.4-1.4-.2-1.8.5-1.1.2-2.1.3-3.1.2-1.7-.2-3.4,0-5.1.1-2,0-4,0-6,0-1.9.2-3.7,0-5.6,0-.4-.2-.7-.4-1.1,0-.3-.2-.5-.3-.7.3,0,.6-.1.8-.1,7.2,0,14.5,0,21.7,0s2.2,0,3.3,0c1,0,2,.2,3,.3.3,0,.7.1.9,0,1.1-1,2.3.4,3.4-.3.7.6,1.3.4,2.1.1.7-.2,1.5,0,2.2,0,1.3-.1,2.6.3,3.8,0,.5-.1,1.2.4,1.6.3,1.2-.4,2.2,0,3.3,0,3.1.2,6.2.5,9.2.2,1.5-.1,3,.4,4.5-.1.8-.2,1.7.2,2.6.2.9,0,1.9-.2,2.8-.2,1,0,2.1,0,3.1.3.9.3,1.9-.2,2.9-.2,1,0,1.9.1,2.9.2,1,0,2.2.4,3,0,.9-.4,1.7.1,2.7-.2,1.2-.4,2.6.2,4,.2,3.5,0,7,0,10.5,0,4.1,0,8.2-.4,12.3.3,1,.2.8.3.3.9-1.1,1.4-2.1,2.9-3.2,4.3-1.6,2.1-3.2,4.1-4.8,6.2-1,1.3-2,2.5-3,3.8-1.1,1.4-2.1,2.8-3.1,4.1-1,1.3-2.1,2.6-3.1,3.9-1.6,2-3.2,4-4.8,6-1.6,2-3.2,4.1-4.8,6.2-.7.9-1.4,1.8-2.1,2.8-1.6,2.1-3.2,4.2-4.8,6.3-1.5,1.9-3.1,3.8-4.6,5.7-1.5,1.9-2.9,3.9-4.4,5.8-.6.8-1.3,1.5-1.9,2.3-1.2,1.4-2.3,2.8-3.5,4.2-1.7,2.2-3.4,4.4-5.1,6.6-1.2,1.6-2.4,3.1-3.6,4.7-.8,1.1-1.6,2.1-2.4,3.2-1.3,1.6-2.5,3.3-3.8,4.9-1.5,1.9-3,3.7-4.5,5.6-1.5,1.8-2.8,3.8-4.4,5.6-1.9,2.2-3.5,4.7-5.3,7-1.2,1.6-2.3,3.2-3.6,4.6-1,1.1-1.7,2.3-2.6,3.5-1.7,2.1-3.4,4.1-5.1,6.2-1.6,2-3.1,4-4.6,6-1.1,1.4-2.3,2.7-3.3,4.1-1.8,2.3-3.5,4.7-5.3,7-1.2,1.6-2.4,3.1-3.6,4.7-.8,1.1-1.7,2.1-2.7,3-.7.6-1.1,1.3-1.2,2.2-.1,3.9-.3,7.8-.4,11.7-.2,10.3.4,20.7-.4,31,0,1.1,0,2.2,0,3.3v22.8c0,1.1,0,2.2,0,3.3,0,1,0,2,0,3,0,1.5-.3,3.1-.3,4.6,0,9.1,0,18.2,0,27.3,0,1.2-.9,2.4,0,3.7-.8,2.6-.2,5.2,0,7.9,0,.3.3.6.5.9,0,0,.5,0,.6,0,0-.3,0-.6,0-.9,0-.3-.2-.8.5-.7.4,0,1-.3,1,.6,0,.2,0,.3.1.5,0-.2.1-.4.3-.5.4-.2.8-.5,1.2-.5,1.1,0,2.3,0,3.4,0,1.1,0,2.1-.1,3.2-.1.7,0,1.5.5,2,.3,1.5-.6,3.1-.4,4.6-.2,1.1.2,2.2.2,3.3.3.8,0,1.8-.3,2.2.9,0,.1.4.2.6.2,1.2,0,2.4,0,3.6,0,.3,0,.6-.6.9-.9-.8-.7,0-.6.3-.5,2.2.7,4.4.5,6.5.3,2-.2,3.9-.5,5.9,0,.4.1,1.1.2,1.4,0,.9-.5,1.7-.3,2.6-.3.9,0,1.7.2,2.6.3.9.2,1.6-.4,2.6,0,.8.3,1.9-.2,2.9-.3,3.1,0,6.3,0,9.4,0,.6,0,1.4.5,1.8.3.8-.4,1.7-.5,2.2-.1,1,.8,1.2-.9,2-.5.2.1.6,0,.9,0,.8,0,1.6.9,2.4,0,.8.9,1.7,0,2.6.3,1,.3,2,0,3.1-.4,1.4-.5,2.8-.7,4.2,0,.2,0,.4,0,.6,0,2.4,0,4.8-.1,7.2,0,.5,0,1.4-.4,1.8.6,0,.2.7,0,1,0,.7,0,1.4-.2,1.9.1.5.3.6,0,.8-.2-.2-.1-.4-.3-.6-.4-.4-.2-.7-.3-1.1-.5.5,0,.9-.1,1.4,0,.4,0,.8,0,1.1.2,1.2.9,2.3.8,3.5.2.9-.4,2-.3,2.6.3.8.6,1.5.3,2.2.4.1,0,.2-.2.3-.3-.1-.1-.2-.4-.4-.4-.2,0-.5,0-.7,0-.2,0-.4-.2-.6-.3.2-.1.6-.5.7-.4,1.1.7,2.2.2,3.3.3.3,0,.7.1,1,.2.2,0,.4.2.6.4-.2,0-.5,0-.7.1-.2,0-.2.3-.4.5.2,0,.4.2.6.2.7-.3,1.3-.1,1.9.2.1,0,.4,0,.4,0,.1-1,.4-2.1.4-3.1,0-14.7,0-29.3.4-44,.1-5,0-10,0-15.4M250.6,301.5c0-5.9,0-11.7,0-17.6,0-.4,0-.9-.3-1.1-.6-.5-1.5-1.2-2-1-.8.2-1.5.2-2.4.1-.8,0-1.6.2-2.3,0-.6-.1-1.1,0-1.7,0-.5,0-1.2-.6-1.6.3-1.1-.9-2.2.3-3.4.1-2.3-.3-4.6-.6-6.8-.4s-4.7-.3-7.1.3c-.5.1-1,.6-1.7.1-.5-.3-1.2.2-1.9,0-.6-.2-1.3-.4-2-.4-1.8,0-3.5,0-5.3,0-.5,0-1,.2-1.5.2-2.1,0-4.3,0-6.4,0-1.6,0-3.2,0-4.7,0-.6,0-1.2.3-1.7.2-1.9-.5-3.8-.5-5.7,0-.6.2-1.3.2-1.8,0-1.4-.6-2.9-.5-4.2-.2-2,.5-4,.2-6,.2-.7,0-1.5.2-2.2,0-.8-.2-1.6-.3-2.4-.3-.9,0-1.8.2-2.7.2-.9,0-1.8.1-2.6.1-2.7,0-5.4,0-8.2,0-1.8,0-3.7-.3-5.5.3-.4.2-1,0-1.6-.1-1.2,0-2.4-.2-3.6-.2-.6,0-1.1.3-1.7.3-.7,0-1.3,0-2,0-.6,0-1.4-.1-1.7.2-.7.8-.6-.6-1.3-.3-.9.3-2-.2-3.1-.2-.4,0-.7.2-1.1.5-1.1.7-.7,1.9-.7,2.8-.3,3.7-.2,7.4-.4,11.1-.4,11.4,0,22.9-.4,34.3-.5,14.9.4,29.9-.4,44.8,0,.7.2,1.4.2,2.2,0,.8-.2,1.6-.2,2.4,0,4.7,0,9.3,0,14,0,.9-.1,1.8-.3,2.6-.2,1.1.5,1.9.2,2.9-.2.7-.3,1.3-.4,2,0,2.3,0,4.6,0,6.9v6.7c0,2.3.1,4.6,0,6.9-.2,2.1-.2,4.3-.3,6.4-.1,4.2,0,8.5,0,12.7,0,.9.2,1.1,1.1,1.1,1.7,0,3.5.1,5.2,0,1.7-.2,3.4.6,5.2.1,1.1-.3,2.3.3,3.5.3,19.2,0,38.4,0,57.6,0s24.2,0,36.2,0c1.4,0,1.7-.2,1.7-1.7,0-4.7-.1-9.4.3-14.1.3-4.1-.1-8.2.4-12.2.2-1.8,0-3.6,0-5.4v-10.7c0-1.8.2-3.5,0-5.3-.2-1.7.7-3.4,0-5.1.9-2.1,0-4.3.3-6.4.2-1.7,0-3.6,0-5.3s0-2.1,0-3.2.3-2.9,0-4.2c-.4-1.4,1-2.7,0-4,.4-1.2.5-2.5.3-3.7-.2-1.3,0-2.6,0-3.9.1-6.9-.2-13.8.3-20.8.4-6.5,0-13,.4-19.5.3-5.2,0-10.4,0-15.9M142.2,68.3v2.6c0,.8,0,1.7,0,2.5.1.8-.2,1.6,0,2.4.1.8-.3,1.7-.3,2.6,0,6.3.2,12.6-.3,18.9,0,1,.3,2,.3,2.9,0,2.4-.2,4.8-.2,7.3,0,.7.2,1.3.2,2,0,.7-.6,1.2-.1,2.1.3.6-.2,1.5-.2,2.3,0,1.8,0,3.6,0,5.4s0,3.5,0,5.3c0,1.7.1,3.4,0,5.1,0,3.2-.1,6.5-.4,9.7-.1,1.6.3,3.2,0,4.8,0,.5.2,1.1.2,1.6,0,2.9-.1,5.7-.2,8.6,0,.2,0,.3.1.5.2-.2.5-.3.5-.5.2-1.1.7-2.1.5-3.3-.2-1.6-.2-3.3,0-4.9.2-1.5-.4-3.1.3-4.6.1-.3-.1-.8-.2-1.2,0-.4-.3-1-.1-1.2.5-.7.3-1.4.3-2.1,0-1.5.4-3-.3-4.4.8-1.5.5-3.1.4-4.7-.1-2.3,0-4.7,0-7.1s.2-4.6,0-6.9c-.2-2.3.8-4.5,0-6.8,0-.1,0-.3,0-.4.9-1.4.4-3,.2-4.2-.3-2.1,0-4.1-.1-6.1,0-1.5.2-3.1.2-4.6,0-1.5,0-3,0-4.5s0-3.1,0-4.7.2-2.3,0-3.5c0-1,.3-2.1.3-3.1,0-1.1.3-2.4-.1-3.4-.6-1.2.4-2.1.2-3.2-.2-1,0-2,0-3.1,0-1,.4-2.1-.3-3.1.9-.8,0-1.8.3-2.6.1-.3-.4-1-.3-1.3.6-.9.2-1.9.3-2.8,0-.7,0-1.5,0-2.2,0-.7-.2-1.3.4-1.9,0,0,0-.3,0-.4-.5-.9-.2-1.8,0-2.7.1-.6.1-1.3,0-2,0-.3-.5-.5-.8-.7,0,.2-.2.5-.2.7-.1.9-.3,1.7-.4,2.6,0,.5,0,1.1,0,1.6,0,.7.2,1.5.2,2.2,0,1-.3,2-.3,3,0,3.6,0,7.1,0,11M155.2,57.7c0,.5-.3,1.1-.2,1.6.2,1.1.5,2.2-.2,3.2,0,0,.2.3.3.3,1.1-.1,1.5-.5,1.5-1.6,0-.4.1-.9,0-1.3-.4-1.1.6-1.8.6-2.7,0-.1.3-.3.5-.4.2-.1.4-.2.6-.3-.2-.2-.5-.4-.7-.4-.5,0-1,0-1.4,0-.9,0-1.1.5-1,1.6M149.2,276.3c.3,0,.6,0,.9,0,.7,0,1.4-.1,2.2-.2-.6-.2-1.3-.4-1.9-.5-.4,0-.8,0-1.2,0,0,0,0,.3,0,.6M216.2,25.3c.2-.5.3-.9.5-1.4-.3.3-.7.6-1,.8-.2.1-.4.2-.6.3-.3.2-.5.3-.8.5.4,0,.7,0,1.1-.1.2,0,.3,0,.8-.1M148.3,275.8c-.5-.1-1-.3-1.4-.3-.2,0-.4.1-.6.2.1.2.3.6.4.6.6,0,1.1,0,1.7-.5M150.1,70.4c0,0,0,.1,0,.2.5.8,1.3.2,2,.3,0,0,.1-.2,0-.2-.4-.6-1-.4-1.6-.5-.1,0-.2,0-.5.2M189.4,24.2c.1-.2.5-.6-.1-.6-.3,0-.5.2-.8.2-.2,0-.4-.1-.7-.2.2.3.2.7.5.8.2.1.6,0,1.1-.3M175.1,17.2c-.2-1.2-1.1-.3-1.7-.5-.1,0-.3,0-.5.1.2,0,.3.2.5.2.5.1,1,.2,1.6.2M151.4,63c0,.4.1.9.3,1.3,0,.2.3.3.5.5,0-.2.1-.5,0-.6-.4-.3-.1-.5,0-.6-.2-.2-.5-.5-.9-.6M145.9,71.3c-.2,0-.5,0-.7,0-.2,0-.4.3-.6.4.2,0,.4.2.5.3.4,0,.7,0,1.1,0,0,0,0-.5-.3-.7M181.6,19.3c-.1.3-.3.6-.4.9,0,0,0,.2.1.3.5-.3,1.1-.5,1.6-.8,0,0,0-.2,0-.2,0,0-.1,0-.2,0-.3-.1-.6-.2-1.1-.2M163.5,17.2c-.4-.3-.8-.6-1.2-.9.2.4.5.7.7,1.1.1.2,0,.4.2.6,0,.1.3.3.3.3.3-.2.5-.5,0-1.1M145.2,81.8c-.2.3-.4.7.2.7.4,0,.8-.4,1.1-.6.1,0,.2-.2.2-.4-.2,0-.4,0-.6,0-.2,0-.4.2-1,.2M76.6,99c0,0,.2.1.2.1.4-.6,1.2-.7,1.1-1.6-.5.4-.9.8-1.4,1.5M187.8,31.3s0,0-.1-.1c0,0-.1,0-.1,0-.2.5-.2.9.3,1.2.2,0,.4,0,.6,0,0-.2,0-.4,0-.6,0-.2-.2-.3-.5-.6M184.5,31.3c-.2,0-.6,0-.7,0-.2.3-.2.7-.3,1.1,0,0,.2,0,.3.1.1-.3.3-.6.4-1,0,0,0,0,.3-.3M162.6,82.5c.3-.2.7-.4,1-.6,0,0,0-.4,0-.6-.2,0-.4,0-.5,0-.2.3-.4.6-.4,1.1M158.4,63.9c-.2-.2-.3-.3-.5-.5,0,.2-.2.3-.2.5,0,.2,0,.5,0,.7,0,0,.4.2.4.2.1-.1.2-.3.3-.9M152.1,61.2c0-.2,0-.4.1-.6-.3.1-.7.2-1,.4-.1.1,0,.6.2.9.2-.2.3-.3.7-.7M164.9,59.2c-.3,0-.6,0-.8.2-.1,0-.2.4-.2.5.2,0,.4.2.5.1.3-.2.5-.5.6-.9M145.4,275.8c-.6.1-1.2.2-1.8.4.6,0,1.1,0,1.7.1,0,0,0,0,.1-.5M180.5,43.6c.2,0,.4.2.6.2.3,0,.5-.1.8-.2-.3-.2-.5-.4-.8-.5-.2,0-.4,0-.6.5M150.6,17.7c-.2,0-.3,0-.5.1.2,0,.3.2.5.2.3,0,.6.1.9.2-.2-.3-.5-.5-.9-.6M170,17.2c0,0-.2-.2-.3-.2-.3-.1-.6-.2-1-.3,0,0-.1.1-.2.2.4.2.7.3,1.1.5,0,0,.1,0,.4-.2M210,35.8c0,.2,0,.5,0,.7.4-.2.8-.4,1.2-.6-.3,0-.6,0-1.2-.1M166.4,67.2l1.1-.4c-.4,0-.8-.2-1.2-.1-.2,0-.4.3-.5.4.2,0,.3.2.7,0M166.6,92.3c0,.2-.2.4-.2.4.3.3.6.7.9,1,0,0,.1-.1.1-.1-.2-.4-.5-.7-.9-1.3M185.1,24.6c.5.6.5.2.6-.2,0-.1.1-.2.2-.4-.2,0-.4-.2-.5,0-.3.2-.5.5-.4.7M245.4,16.8c-.6-.5-.8,0-1,.4.4,0,1,.6,1-.4M172.7,38.7c-.2-.2-.3-.6-.5-.5-.2,0-.5.3-.7.4.3,0,.6,0,1.2.1M168.4,102.1c0-.2,0-.5,0-.7-.2,0-.4.1-.6.2.2.2-.4.8.5.5M184.7,27.1c-.2.3-.3.6-.5,1,.3-.2.6-.4.8-.6,0,0,0-.2-.4-.4M168.6,20.4c-.1.2-.2.5-.4.7.1,0,.3.1.4.2.1-.2.2-.4.3-.7,0-.1-.1-.3-.3-.3M173.8,70.2c-.5.7.2.9.6,1.1,0,0,.2,0,.3-.1,0,0-.1-.2-.2-.3-.2-.2-.3-.3-.7-.7M145.2,57.9c.3,0,.5,0,.8,0-.1-.2-.2-.5-.4-.6-.4-.2-.6,0-.4.7M153.9,72.8c-.2.2-.3.4-.5.6.2,0,.5,0,.7-.2.3-.2.3-.3-.3-.4M184,88.7c1,0,.2-.4,0-.6-.1-.2-.4-.2-.6-.3.1.2.2.5.5.9M168.2,32.7c-.2-.3-.4-.6-.6-.9,0,0-.1.2-.1.3,0,.4-.1.9.7.6M205.7,17.3s0,0,.1-.1c0,0,0-.1,0-.1-.3,0-.6,0-.9,0,0,0,0,.3,0,.4.2,0,.5,0,.9-.2M216.9,48.9c0,.2,0,.3.1.5,0,.2.2.4.2.6,0-.2.2-.4.2-.6,0-.1-.1-.3-.5-.4M195.7,50.5c.1.2.3.4.4.5,0,0,.2-.1.3-.2-.2-.2-.5-.5-.7-.4M36.9,191.9c.2.1.5.2.7.3,0,0,0-.2,0-.2-.3-.2-.5-.8-.8,0M190.7,18.3c.2,0,.5,0,.7-.1,0-.2-.1-.5-.2-.7-.1.2-.2.5-.5.9M183.4,51.6c-.2,0-.5,0-.7.1,0,.2.1.5.2.7.1-.2.2-.5.5-.9M187.2,47s0,0-.1.1c0,0,0,0,0,.1.3,0,.6-.2.9-.3,0,0,0-.2,0-.2-.2,0-.4,0-.8.3M178.2,22.4c0-.1.2-.3.2-.4-.1-.2.8-.4,0-.6,0,0-.3.3-.4.5,0,0,0,.2.2.5M196.5,21.5c-.2,0-.5,0-.7,0,0,0,0,.3,0,.3.2,0,.5,0,.7-.3M157.9,22.8s0,0,.1-.1c0,0,0,0,0-.1-.2,0-.4,0-.7.1,0,.3.2.5.3.8,0-.2,0-.3.3-.6M179.4,43.6c-.1-.2-.3-.4-.4-.5-.1.1-.2.2-.3.3.2.1.4.3.7.2M167.7,26.8c0,.2,0,.4-.1.6l.6-.4c-.1-.1-.2-.3-.5-.2M174.7,26.9c-.1-.2-.3-.4-.4-.5-.1.1-.2.2-.3.3.2.1.4.3.7.2M200.3,27.5c-.2,0-.4,0-.5.1-.1.1-.2.3-.3.5.2,0,.4,0,.6,0,.2,0,.3-.2.2-.5M184.3,73.9l.5-.4c-.1-.1-.2-.2-.3-.3-.1.2-.3.4-.2.7M183.2,73.5c.2,0,.3,0,.5-.1-.2-.2-.5-.4-.7-.6,0,0-.2,0-.3.2.1.1.2.3.5.6M146.8,71.5c.1,0,.3.2.4.2.2-.1.4.8.6,0,0,0-.3-.3-.5-.4,0,0-.2,0-.5.2M149.7,68.6c.2,0,.5,0,.7,0,0,0,0-.3,0-.3-.2,0-.5,0-.7.3M221.5,49.8c0,.2,0,.3,0,.5.2-.2.4-.4.5-.5-.2,0-.3,0-.6,0M156.8,16.3c-.2.2-.3.4-.5.6,0,0,.2.1.3.1.2-.2.3-.4.2-.7M235.8,16.6c-.2,0-.3,0-.5,0,.2.2.4.4.5.5,0-.2,0-.3,0-.6M149.7,65c.2,0,.5,0,.7,0-.2-.1-.5-.2-.7,0M233.2,17c-.1,0-.2,0-.3,0-.2,0-.4.1-.5.2.1,0,.3.1.4.1.2,0,.4-.1.4-.4M188,69.5c0-.2,0-.5,0-.7-.1.2-.2.5,0,.7M239.7,17c-.2,0-.3,0-.5.1,0,0,.2.2.3.2.3,0,.4,0,.2-.4M116,188.1c-.1.1-.2.2-.4.4.2,0,.4.1.6.2,0-.2,0-.5-.2-.5M202.4,17.3c0,.2,0,.5,0,.7.2,0,.4-.1.6-.2-.1-.1-.2-.2-.5-.5M167.3,19.2s0,0-.1.1c0,0,0,0,0,.1.2,0,.4,0,.7,0-.1-.1-.2-.2-.5-.1M145,74c.3,0,.5.1.8.2,0,0,.2,0,.3-.1-.1,0-.2-.2-.4-.2-.2,0-.3,0-.7.2M223.4,32.9c-.2,0-.3,0-.5,0,.2.2.4.4.5.5,0-.2,0-.3,0-.6M201,21c0-.3.1-.5.2-.8,0,0,0-.2-.1-.3,0,.1-.2.2-.2.4,0,.2,0,.3.2.7M146.8,32.4c-.2,0-.5,0-.7,0,0,.2.1.4.2.6.1-.1.2-.2.5-.5M171.3,20.2c0,.2,0,.5,0,.7.1-.2.2-.5,0-.7M217.7,21.7c0-.2,0-.5,0-.7-.1.2-.2.5,0,.7M165.9,22.4s0,0-.1.1c0,0,0,.1,0,.1.3,0,.6,0,.8.1,0,0,0-.2.1-.2-.2,0-.3,0-.8-.1M214.9,23c-.2,0-.5,0-.7,0,0,.2.1.4.2.6.1-.1.2-.2.5-.5M172.2,80.9c.2-.1.5-.2.7-.4-.2,0-.5,0-.7.4M181.2,24c.2.2.4.3.6.5,0,0,.1-.2.1-.3-.2-.2-.4-.3-.7-.2M169.5,110.8c-.2.2-.3.4-.5.6,0,0,.2.1.3.1.2-.2.3-.4.2-.7M176,57.9l-.5.6c0,0,.2.1.3.1.2-.2.3-.4.2-.7M169.8,26.4c-.1-.1-.2-.2-.4-.4,0,.2-.1.4-.2.6.2,0,.5,0,.5-.2M161.5,103.6c0,.2,0,.5,0,.7.1-.2.2-.5,0-.7M187.6,26.4c.1,0,.2,0,.3,0,.2,0,.4-.1.5-.2-.1,0-.3-.1-.4-.1-.2,0-.4.1-.4.4M190.1,26.8c-.1-.1-.2-.2-.4-.4,0,.2-.1.4-.2.6.2,0,.5,0,.5-.2M164,87.3l.5-.6c0,0-.2-.1-.3-.1-.2.2-.3.4-.2.7M167.7,88.3l-.5.6c0,0,.2.1.3.1.2-.2.3-.4.2-.7M216.6,26.8c.1.2.2.5.4.7,0-.2,0-.5-.4-.7M156.8,28.2c0-.2.1-.4.1-.6,0,0-.1,0-.2,0,0,.2,0,.3,0,.6M148.8,91.6c0,.1.1.2.2.4,0-.1.1-.2-.2-.4M158.1,27.3c.2,0,.4.1.6.1,0,0,0-.1,0-.2-.2,0-.3,0-.6,0M145.2,89.1c0,.1.1.2.2.4,0-.1.1-.2-.2-.4M187.6,41.6c0,.2-.1.4-.1.6,0,0,.1,0,.2,0,0-.2,0-.3,0-.6M144.1,93c.2,0,.3,0,.5,0,0,0,0-.2,0-.2-.2,0-.4,0-.4.3M161.9,94.1c0-.1-.1-.2-.2-.4,0,.1-.1.2.2.4M147.4,41.3c.2,0,.3,0,.5,0,0,0,0-.2,0-.2-.2,0-.4,0-.4.3M154.3,95.6c0,.1.1.2.2.4,0-.1.1-.2-.2-.4M144.8,97c0-.2.1-.4.1-.6,0,0-.1,0-.2,0,0,.2,0,.3,0,.6M173.1,84.7c0,.1.1.2.2.4,0-.1.1-.2-.2-.4M159.7,59c0,.1.1.2.2.4,0-.1.1-.2-.2-.4M151.9,84.9c-.2,0-.4-.1-.6-.1,0,0,0,.1,0,.2.2,0,.3,0,.6,0M149.6,29.3c0-.1-.1-.2-.2-.4,0,.1-.1.2.2.4M146.3,99.6c0,.2-.1.4-.1.6,0,0,.1,0,.2,0,0-.2,0-.3,0-.6M163,26.8c0-.1-.1-.2-.2-.4,0,.1-.1.2.2.4M188.9,26.2c0,.2,0,.3,0,.5,0,0,.2,0,.2,0,0-.2,0-.4-.3-.4M146.7,41.3c0-.2.1-.4.1-.6,0,0-.1,0-.2,0,0,.2,0,.3,0,.6M190.8,25.7c-.2,0-.3,0-.5,0,0,0,0,.2,0,.2.2,0,.4,0,.4-.3M147.6,105.2c0-.2,0-.3,0-.5,0,0-.2,0-.2,0,0,.2,0,.4.3.4M152.6,106.3c-.2,0-.4-.1-.6-.1,0,0,0,.1,0,.2.2,0,.3,0,.6,0M162.1,25.5c-.2,0-.4-.1-.6-.1,0,0,0,.1,0,.2.2,0,.3,0,.6,0M176.9,25.5c0-.2,0-.3,0-.5,0,0-.2,0-.2,0,0,.2,0,.4.3.4M212.6,29.7c0,.1.1.2.2.4,0-.1.1-.2-.2-.4M158.8,111.3c.1,0,.2-.1.4-.2-.1,0-.2-.1-.4.2M164.2,25.1v.5c.2,0,.3,0,.3,0,0-.2,0-.4-.3-.4M159.7,31.1c0,.1.1.2.2.4,0-.1.1-.2-.2-.4M204.4,23.3c0,.2,0,.3,0,.5,0,0,.2,0,.2,0,0-.2,0-.4-.3-.4M153.9,80.4c0,.1.1.2.2.4,0-.1.1-.2-.2-.4M166.6,80c0,.1.1.2.2.4,0-.1.1-.2-.2-.4M216.9,43.8c0-.2.1-.4.1-.6,0,0-.1,0-.2,0,0,.2,0,.3,0,.6M190.7,23c0-.2,0-.3,0-.5,0,0-.2,0-.2,0,0,.2,0,.4.3.4M147.7,22.8c.2,0,.3,0,.5,0,0,0,0-.2,0-.2-.2,0-.4,0-.4.3M159.5,78.7c.1,0,.2-.1.4-.2-.1,0-.2-.1-.4.2M146.3,76.4c-.2,0-.3,0-.5,0,0,0,0,.2,0,.2.2,0,.4,0,.4-.3M215.5,32.6c.2,0,.3,0,.5,0,0,0,0-.2,0-.2-.2,0-.4,0-.4.3M194.1,20.2c0-.1-.1-.2-.2-.4,0,.1-.1.2.2.4M175.8,74.8c.2,0,.4.1.6.1,0,0,0-.1,0-.2-.2,0-.3,0-.6,0M217.5,46.9c-.1,0-.2.1-.4.2.1,0,.2.1.4-.2M201.9,19.7c.2,0,.4.1.6.1,0,0,0-.1,0-.2-.2,0-.3,0-.6,0M172.9,19.7c-.1,0-.2.1-.4.2.1,0,.2.1.4-.2M161.7,74.8l-.4.2c.1,0,.2.1.4-.2M150.1,40.3c.1,0,.2-.1.4-.2-.1,0-.2-.1-.4.2M155.7,276.3c.2,0,.3,0,.5,0,0,0,0-.2,0-.2-.2,0-.4,0-.4.3M179.4,275.8c0,.2,0,.3,0,.5,0,0,.2,0,.2,0,0-.2,0-.4-.3-.4M235.4,274.9c0,.2-.1.4-.1.6,0,0,.1,0,.2,0,0-.2,0-.3,0-.6M156.1,18.8c0-.2.1-.4.1-.6,0,0-.1,0-.2,0,0,.2,0,.3,0,.6M151.7,51.4c0,.2-.1.4-.1.6,0,0,.1,0,.2,0,0-.2,0-.3,0-.6M202.8,34.7c0,.2-.1.4-.1.6,0,0,.1,0,.2,0,0-.2,0-.3,0-.6M25.9,183.8c.2,0,.4.1.6.1,0,0,0-.1,0-.2-.2,0-.3,0-.6,0M221.8,48.3c.2,0,.4.1.6.1,0,0,0-.1,0-.2-.2,0-.3,0-.6,0M35.6,190.7c0-.2,0-.3,0-.5,0,0-.2,0-.2,0,0,.2,0,.4.3.4M242.5,17.2c.2,0,.4.1.6.1,0,0,0-.1,0-.2-.2,0-.3,0-.6,0M106.8,199.9c0,.1.1.2.2.4,0-.1.1-.2-.2-.4M155.7,64.8c0-.1-.1-.2-.2-.4,0,.1-.1.2.2.4M103.7,204.8c-.2,0-.4-.1-.6-.1,0,0,0,.1,0,.2.2,0,.3,0,.6,0M153.2,68.4c0-.2.1-.4.1-.6,0,0-.1,0-.2,0,0,.2,0,.3,0,.6M103,205.5c0,0-.1,0-.2-.1,0,.1,0,.2.2.1M220.6,274.9c0,0,0,.1-.1.2.1,0,.2,0,.1-.2M241,275.1c0,0-.1,0-.2-.1,0,.1,0,.2.2.1M217.8,275.8c0,0,.1,0,.2.1,0-.1,0-.2-.2-.1M177.1,276.3c0,0,0-.1.1-.2-.1,0-.2,0-.1.2M250.1,281.9c0,0-.1,0-.2-.1,0,.1,0,.2.2.1M144.3,149.7c0,0,.1,0,.2.1,0-.1,0-.2-.2-.1M149.4,141.8c0,0,.1,0,.2.1,0-.1,0-.2-.2-.1M148.6,141.8c0,0,.1,0,.2.1,0-.1,0-.2-.2-.1M149.4,136c0,0-.1,0-.2-.1,0,.1,0,.2.2.1M158.2,122.8c0,0,0,.1-.1.2.1,0,.2,0,.1-.2M148.5,121.7c0,0,0-.1.1-.2-.1,0-.2,0-.1.2M144.3,113.5c0,0,.1,0,.2.1,0-.1,0-.2-.2-.1M145.9,111.5c0,0,0-.1.1-.2-.1,0-.2,0-.1.2M151.4,111.2c0,0,0-.1.1-.2-.1,0-.2,0-.1.2M160.6,110.3c0,0,.1,0,.2.1,0-.1,0-.2-.2-.1M157.5,105.7c0,0,0-.1.1-.2-.1,0-.2,0-.1.2M174.2,104.3c0,0,0-.1.1-.2-.1,0-.2,0-.1.2M164.6,100.5c0,0,.1,0,.2.1,0-.1,0-.2-.2-.1M171.5,99.4c0,0-.1,0-.2-.1,0,.1,0,.2.2.1M165.9,99.2c0,0,0-.1.1-.2-.1,0-.2,0-.1.2M157.9,97c0,0,0-.1.1-.2-.1,0-.2,0-.1.2M168.6,95c0,0,.1,0,.2.1,0-.1,0-.2-.2-.1M159.9,93.2c0,0-.1,0-.2-.1,0,.1,0,.2.2.1M163.1,91.1h.2s0,0-.2,0M186.9,89.4c0,0,0-.1.1-.2-.1,0-.2,0-.1.2M164.6,89.2c0,0-.1,0-.2-.1,0,.1,0,.2.2.1M151.2,88.5c0,0,.1,0,.2.1,0-.1,0-.2-.2-.1M148.3,86.3c0,0,.1,0,.2.1,0-.1,0-.2-.2-.1M174.2,86.2c0,0,0-.1.1-.2-.1,0-.2,0-.1.2M153.4,86c0,0-.1,0-.2-.1,0,.1,0,.2.2.1M159.5,85.3c0,0-.1,0-.2-.1,0,.1,0,.2.2.1M194.5,84.7c0,0,0,.1-.1.2.1,0,.2,0,.1-.2M157.7,83.8c0,0,.1,0,.2.1,0-.1,0-.2-.2-.1M147.6,83.1c0,0-.1,0-.2-.1,0,.1,0,.2.2.1M148.5,82.5c0,0,0,.1-.1.2.1,0,.2,0,.1-.2M143.9,82c0,0,.1,0,.2.1,0-.1,0-.2-.2-.1M173.6,80.9c0,0-.1,0-.2-.1,0,.1,0,.2.2.1M167.5,78.7c0,0-.1,0-.2-.1,0,.1,0,.2.2.1M188.3,76.4c0,0,0,.1-.1.2.1,0,.2,0,.1-.2M159,76.7c0,0,0-.1.1-.2-.1,0-.2,0-.1.2M181.2,76.2c0,0,.1,0,.2.1,0-.1,0-.2-.2-.1M157,75.8c0,0-.1,0-.2-.1,0,.1,0,.2.2.1M163.7,74.6c0,0,0,.1-.1.2.1,0,.2,0,.1-.2M171.1,74.4c0,0,.1,0,.2.1,0-.1,0-.2-.2-.1M152.8,73.9c0,0,0-.1.1-.2-.1,0-.2,0-.1.2M148.5,73.1c0,0,0,.1-.1.2.1,0,.2,0,.1-.2M158.1,72.9c0,0,.1,0,.2.1,0-.1,0-.2-.2-.1M165.3,71.9c0,0,.1,0,.2.1,0-.1,0-.2-.2-.1M153.2,71.3c0,0,0-.1.1-.2-.1,0-.2,0-.1.2M205.5,70.4c0,0,.1,0,.2.1,0-.1,0-.2-.2-.1M182,70c0,0,.1,0,.2.1,0-.1,0-.2-.2-.1M164.6,69.7c0,0-.1,0-.2-.1,0,.1,0,.2.2.1M165.3,69c0,0,.1,0,.2.1,0-.1,0-.2-.2-.1M160.2,68.6c0,0,.1,0,.2.1,0-.1,0-.2-.2-.1M207.7,67.9c0,0-.1,0-.2-.1,0,.1,0,.2.2.1M186.5,68.1c0,0,0-.1.1-.2-.1,0-.2,0-.1.2M174.2,67c0,0,0-.1.1-.2-.1,0-.2,0-.1.2M170.6,65.5c0,0,0,.1-.1.2.1,0,.2,0,.1-.2M200.4,63.9c0,0,.1,0,.2.1,0-.1,0-.2-.2-.1M167.1,63.9c0,0,.1,0,.2.1,0-.1,0-.2-.2-.1M156.4,64.1c0,0,0-.1.1-.2-.1,0-.2,0-.1.2M193,63c0,0,0,.1-.1.2.1,0,.2,0,.1-.2M211.9,62.6c0,0,0-.1.1-.2-.1,0-.2,0-.1.2M209.3,61.2c0,0,0,.1-.1.2.1,0,.2,0,.1-.2M186.9,61.2c0,0,0,.1-.1.2.1,0,.2,0,.1-.2M149.9,59.4c0,0,0-.1.1-.2-.1,0-.2,0-.1.2M167.7,59c0,0,0-.1.1-.2-.1,0-.2,0-.1.2M147.7,57.9c0,0,0-.1.1-.2-.1,0-.2,0-.1.2M187.4,55.9c0,0,.1,0,.2.1,0-.1,0-.2-.2-.1M191.8,55.6c0,0,.1,0,.2.1,0-.1,0-.2-.2-.1M186.7,55.2c0,0,.1,0,.2.1,0-.1,0-.2-.2-.1M189.4,54.3c0,0,0,.1-.1.2.1,0,.2,0,.1-.2M214.2,53c0,0,.1,0,.2.1,0-.1,0-.2-.2-.1M175.8,52.3c0,0,.1,0,.2.1,0-.1,0-.2-.2-.1M220.6,51.4c0,0,0-.1.1-.2-.1,0-.2,0-.1.2M203.3,50.9c0,0-.1,0-.2-.1,0,.1,0,.2.2.1M182.3,50.9c0,0-.1,0-.2-.1,0,.1,0,.2.2.1M192.1,49.4c0,0,.1,0,.2.1,0-.1,0-.2-.2-.1M222.2,49c0,0,.1,0,.2.1,0-.1,0-.2-.2-.1M161.1,48.5c0,0,0,.1-.1.2.1,0,.2,0,.1-.2M169.8,48.1c0,0,0-.1.1-.2-.1,0-.2,0-.1.2M176.9,46.9c0,0,.1,0,.2.1,0-.1,0-.2-.2-.1M169.8,46.3c0,0,0-.1.1-.2-.1,0-.2,0-.1.2M217.5,44c0,0,.1,0,.2.1,0-.1,0-.2-.2-.1M212.4,43.6c0,0,.1,0,.2.1,0-.1,0-.2-.2-.1M208.4,43.6c0,0-.1,0-.2-.1,0,.1,0,.2.2.1M199.4,42.9c0,0,.1,0,.2.1,0-.1,0-.2-.2-.1M182.7,42.5c0,0-.1,0-.2-.1,0,.1,0,.2.2.1M196.8,42.2c0,0,.1,0,.2.1,0-.1,0-.2-.2-.1M195.4,40c0,0-.1,0-.2-.1,0,.1,0,.2.2.1M225.4,39.6c0,0,.1,0,.2.1,0-.1,0-.2-.2-.1M204.4,39.3c0,0,.1,0,.2.1,0-.1,0-.2-.2-.1M216,38.9c0,0,.1,0,.2.1,0-.1,0-.2-.2-.1M204.4,38.2c0,0,.1,0,.2.1,0-.1,0-.2-.2-.1M183.6,38.4c0,0,0-.1.1-.2-.1,0-.2,0-.1.2M151.5,37.8c0,0-.1,0-.2-.1,0,.1,0,.2.2.1M200.8,37.4c0,0,.1,0,.2.1,0-.1,0-.2-.2-.1M153,37.1c0,0,.1,0,.2.1,0-.1,0-.2-.2-.1M217.5,36.4c0,0-.1,0-.2-.1,0,.1,0,.2.2.1M154.1,36.4c0,0-.1,0-.2-.1,0,.1,0,.2.2.1M203.9,36.2c0,0,0-.1.1-.2-.1,0-.2,0-.1.2M209.3,35.8c0,0,0-.1.1-.2-.1,0-.2,0-.1.2M149.2,35.1c0,0,0-.1.1-.2-.1,0-.2,0-.1.2M202.3,34.6c0,0-.1,0-.2-.1,0,.1,0,.2.2.1M177.3,33.8c0,0-.1,0-.2-.1,0,.1,0,.2.2.1M157.3,33.5c0,0-.1,0-.2-.1,0,.1,0,.2.2.1M227.8,33.3c0,0,0-.1.1-.2-.1,0-.2,0-.1.2M198.1,32.9c0,0,0-.1.1-.2-.1,0-.2,0-.1.2M175.1,31.7c0,0,.1,0,.2.1,0-.1,0-.2-.2-.1M185.8,31.1c0,0,0-.1.1-.2-.1,0-.2,0-.1.2M150.8,29.8c0,0,.1,0,.2.1,0-.1,0-.2-.2-.1M172.7,28.6c0,0,0-.1.1-.2-.1,0-.2,0-.1.2M235.8,28.2c0,0,0-.1.1-.2-.1,0-.2,0-.1.2M206.8,28.2c0,0,0-.1.1-.2-.1,0-.2,0-.1.2M183.8,28c0,0-.1,0-.2-.1,0,.1,0,.2.2.1M166.8,27.3c0,0-.1,0-.2-.1,0,.1,0,.2.2.1M157.7,26.9c0,0-.1,0-.2-.1,0,.1,0,.2.2.1M230,26.8c0,0,0-.1.1-.2-.1,0-.2,0-.1.2M205.2,26.6c0,0-.1,0-.2-.1,0,.1,0,.2.2.1M178,26.2c0,0-.1,0-.2-.1,0,.1,0,.2.2.1M156.8,26c0,0,0-.1.1-.2-.1,0-.2,0-.1.2M154.8,24.8c0,0-.1,0-.2-.1,0,.1,0,.2.2.1M177.1,24.2c0,0,0,.1-.1.2.1,0,.2,0,.1-.2M161,24.4c0,0-.1,0-.2-.1,0,.1,0,.2.2.1M156.6,23.7c0,0-.1,0-.2-.1,0,.1,0,.2.2.1M200.8,23c0,0,.1,0,.2.1,0-.1,0-.2-.2-.1M151.7,22.8c0,0,0-.1.1-.2-.1,0-.2,0-.1.2M146.5,22.6c0,0-.1,0-.2-.1,0,.1,0,.2.2.1M158.6,21.7c0,0,0,.1-.1.2.1,0,.2,0,.1-.2M179.1,21.5c0,0,.1,0,.2.1,0-.1,0-.2-.2-.1M187.8,20.1c0,0,.1,0,.2.1,0-.1,0-.2-.2-.1M157.5,20.2c0,0,0-.1.1-.2-.1,0-.2,0-.1.2M169.3,19.7c0,0-.1,0-.2-.1,0,.1,0,.2.2.1M217.7,19.2c0,0,0,.1-.1.2.1,0,.2,0,.1-.2M146.5,19.3c0,0,.1,0,.2.1,0-.1,0-.2-.2-.1M184.1,18.6c0,0,.1,0,.2.1,0-.1,0-.2-.2-.1M165.7,18.3c0,0-.1,0-.2-.1,0,.1,0,.2.2.1M175.8,17.5c0,0,.1,0,.2.1,0-.1,0-.2-.2-.1M166.4,17.5c0,0,.1,0,.2.1,0-.1,0-.2-.2-.1M206.6,17.2c0,0,.1,0,.2.1,0-.1,0-.2-.2-.1M192.8,17.2c0,0-.1,0-.2-.1,0,.1,0,.2.2.1M167.8,16.8c0,0,.1,0,.2.1,0-.1,0-.2-.2-.1Z"/>
    <path d="M265.6,69.5c-.7.4-.2-.2-.3-.4,0,0,.2-.2.2-.3,0,.2,0,.3.1.7Z"/>
    <path d="M33.7,131.4c-.2,0-.4,0-.5,0,0,0,0-.2,0-.2.2,0,.4,0,.5.2Z"/>
    <path d="M172.1.2c-.2,0-.4,0-.5,0,0,0,0-.2,0-.2.2,0,.4,0,.5.2Z"/>
    <path d="M133.4,2.9c.1-.1.2,0,.4,0-.1,0-.2.1-.4,0Z"/>
    <path d="M265.3,66.6c.1-.1.2,0,.4,0-.1,0-.2.1-.4,0Z"/>
    <path d="M72.1,82.5c-.1,0-.1-.1-.1-.2,0,0,.1,0,.1.2Z"/>
    <path d="M73.2,80.3c-.1,0-.1-.1-.1-.2,0,0,.1,0,.1.2Z"/>
    <path d="M127.7,9.8c.1,0,.1.1.1.2,0,0-.1,0-.1-.2Z"/>
    <path d="M178.3,0c0,.1-.1.1-.2.1,0,0,0-.1.2-.1Z"/>
    <path d="M241.7,35.1c1.2-2.3,2.3-4.4,3.5-6.5.1-.2.1-.5.3-.6.3-.2.9-.7,1-.6.8.5-.2.7-.3,1-.7,1.1-.8,2.3-1.4,3.4-.5,1.1-1.1,2.2-1.9,3.2-.6.8-1.6,1.5-1.1,2.8-1.1.4-.6,2-1.7,2.6-.3.2-.4.8-.7,1.3,0-.6-.1-1.3.1-1.8.7-1.5,1.2-3.2,2.3-4.7Z"/>
    <path d="M218.3,80.7c-.3-1.1.2-2,.7-2.7.9-1.3,1.4-2.8,2.2-4.1.7-1.2,1.3-2.4,1.9-3.6.7-1.3,1.6-2.6,2.4-3.9.1-.2.3-.4.5-.5.1,0,.3,0,.5,0,0,.1-.1.3-.2.4-.5.9-.9,1.8-1.6,2.6-.5.7,0,1.7-1,2.1-.2,1.4-1.5,2-2,3.3-.7,2-1.8,3.8-2.8,5.7-.1.3-.4.5-.6.7Z"/>
    <path d="M234,49.6c.5.6.7,1.1,0,1.7-.4.4-.5,1.1-.7,1.7-.1.3-.2.6-.5.9-.4.4-.7.7-.7,1.4,0,.3-.3.6-.5.9-.8.9-1.8,1.7-1.7,3.1,0,.3-.2.7-.5.8-.6.3-.8.6-.7,1.3,0,.3-.5.6-.9,1,0,0-.2,0-.3,0,0-.1,0-.3.1-.4.8-2.2,1.7-4.4,3.3-6.2.5-.6.8-1.4,1.2-2.2.3-.8.4-1.6,1.1-2.3.4-.3.4-1,.6-1.6Z"/>
    <path d="M234.2,49.6c.2-.8.5-1.6,1-2.3.7-.9,1-1.9,1.5-2.8.4-.9,1-1.8,1.4-2.7,0,0,.1-.1.2-.2,0,.1.2.2.1.3-.1.6-.2,1.1-.4,1.7-.6,1.6-1.6,3.1-2.2,4.7-.2.6-1,.9-1.7,1.3Z"/>
    <path d="M193.2,128.5c-.5,1.3-.7,2.5-1.7,3.3-.1.1-.3.2-.4.3,0-.2,0-.5,0-.6,1.1-1.8,1.3-4.1,2.8-5.7.4-.5.8-1,1.2-1.5,0,0,.3,0,.4.2,0,0,.2.3.1.4-1.2.9-1.6,2.3-2.4,3.7Z"/>
    <path d="M215.9,84.3c0-1.1,1.4-1.3,1.2-2.3,0,0,.3-.2.5-.1.1,0,.2.3.2.4-.2.4-.5.8-.7,1.2-.7,1.5-1.5,3-2.2,4.5,0,.2-.3.3-.4.4,0-.2-.3-.4-.3-.5,0-.7-.1-1.3.8-1.7.4-.2.6-1.1.9-1.8Z"/>
    <path d="M249.1,22.4c0-.3.2-.8.4-1,.4-.5,0-1.6,1.1-1.5,0,.7.2,1.4.2,2,0,.9-.3,1.8-.5,2.6,0,.1-.2.3-.4.4,0-.1-.2-.3-.2-.4,0-.7,0-1.4,0-2.1-.1-.7-.3,0-.6,0Z"/>
    <path d="M250.2,71.7c-.1-.8,0-1.8-.3-2.4-.4-.7,1-.7.3-1.4-.3-.3,0-1.1,0-1.7,0-.5-.3-1,0-1.5,0-.2.2-.3.3-.5.1.1.3.2.4.4,0,.3,0,.6.1.9,0,1,0,1.9,0,2.9,0,1.2,0,2.3-.6,3.4Z"/>
    <path d="M250.4,88.3c-.1,1.1-.2,2-.4,2.9,0,.2,0,.4-.1.7,0-.2-.2-.5-.2-.7.2-1.8-.3-3.5.3-5.3.2-.7-.2-1.6-.3-2.4,0,0,.2-.2.4-.2.1,0,.3.2.3.3-.4,1.1.2,2.2,0,3.3,0,.4,0,.8,0,1.4Z"/>
    <path d="M181.2,151c-.8,1.1-1.5,2-1.8,3.2,0,.1-.1.3-.2.4,0-.2-.2-.4-.1-.5.5-1.3,1-2.6,1.6-3.8.3-.7.8-1.4,1.3-2,0-.1.3-.1.5-.2,0,.2,0,.3,0,.5,0,1-.8,1.5-1.2,2.4Z"/>
    <path d="M174.7,163.3c0,.2,0,.3,0,.4-.5.4-.5,1.3-1.2,1.5,0-.7,0-1.5.3-2,.4-.7,1.1-1.2,1.7-1.8,0,0,.3.1.5.2,0,.1-.1.3-.2.4-.3.4-.7.8-1.1,1.5Z"/>
    <path d="M164.9,274.9c.6,0,1,0,1.4,0,.3,0,.5.3.7.5-.2,0-.5.2-.7.2-1,.1-1.9.2-2.8-.4-.2-.1-.3-.3-.4-.4.2-.1.5-.3.7-.3.3,0,.6.2,1.1.3Z"/>
    <path d="M160.5,190.4c-.5.7-.8,1.3-1.2,2,0,.1-.2.2-.4.2,0-.2-.1-.4,0-.5.4-.9.7-1.7,1.2-2.6,0-.1.6,0,.9,0-.1.2-.2.5-.4.8Z"/>
    <path d="M157.3,194.8c.4.3.5.4.2.7-.7.8-.9,1.7-1.1,2.6,0,.3-.5.4-.7.6,0-.2-.3-.6-.2-.7.6-1,1.2-2,1.8-3.2Z"/>
    <path d="M249.8,44.2c0-.3,0-.4,0-.6.1-.4.3-.8.4-1.2.1.3.3.6.4.9.1.6.2,1.2.2,1.8,0,.1-.5.4-.7.4-.7-.1,0-.3,0-.5,0-.3-.2-.5-.2-.8Z"/>
    <path d="M250.7,28.7c0,.4-.2.7-.4.9,0,0-.5-.1-.5-.2.2-.9,0-1.8,0-2.8,0-.1.2-.3.3-.3.1,0,.3.2.4.3,0,.6.1,1.3.3,2Z"/>
    <path d="M249.7,102.1c0-.8,0-1.5,0-2.2,0-.1.3-.3.4-.4,0,.1.3.2.3.4,0,.8,0,1.7,0,2.5,0,.1-.3.3-.4.4,0-.2-.2-.4-.3-.7Z"/>
    <path d="M185.3,143.4c0-.7.1-1.5.3-2.2,0-.2.5-.2.8-.4,0,.2.2.5.1.7-.3.6-.7,1.2-1.2,1.9Z"/>
    <path d="M169.7,173.2c-.4.3-.8.4-.8,0,0-.5.3-1,.6-1.5.1-.3.4-.4.6-.7,0,.3,0,.5-.1.8,0,.5.6,1-.3,1.5Z"/>
    <path d="M250.3,60.4c.2.8-.2,1.7.4,2.4,0,0-.2.5-.3.5-.3,0-.7,0-.7-.2,0-.5,0-1,0-1.4,0-.4.3-.8.6-1.2Z"/>
    <path d="M208.1,98.6c.3-.2.4-.2.6-.3.2.8,0,1.6-.6,2.2,0,0-.3.1-.4,0-.1-.1-.3-.4-.3-.5.2-.5.4-.9.7-1.4Z"/>
    <path d="M226.6,64.2c.3-.2.6-.3.8-.4,0,.2.2.5.2.6-.2.4-.4.7-.7.9-.2.2-.6.1-.9.2.2-.3.3-.5.4-.8,0-.1,0-.3.2-.6Z"/>
    <path d="M155.3,199.3c.6.6-.2.9-.3,1.4-.1.4-.4.7-.6,1-.2.2-.3.4-.5.7,0-.3-.1-.6,0-.8.4-.7.9-1.4,1.5-2.2Z"/>
    <path d="M250.7,38.3c-1-.7-1.2-1.9-.4-2.4,0,0,.3,0,.5.1-.9.7.3,1.5,0,2.3Z"/>
    <path d="M250.1,131.4c0,1.2-.2,2.2-.2,3.2,0-1,0-2-.1-3,0-.2,0-.4,0-.5,0-.4.2-.7.2-1,0,.4,0,.8.1,1.4Z"/>
    <path d="M250,71.7c.2.5.4,1,.4,1.5,0,.5,0,.9-.1,1.4,0-.4-.1-.8-.3-1.2-.1-.3-.4-.6-.5-.9,0-.2.2-.5.4-.8Z"/>
    <path d="M205.6,104.3c-.3-1,.6-1.5.9-2.2,0,0,.2-.1.4-.2,0,.2.1.4,0,.5-.4.7-.8,1.3-1.3,2Z"/>
    <path d="M197.5,120.6c.5.9-.6,1.3-.7,2,0,0-.8.2-.9,0-.3-.3,0-.4.3-.7.5-.3.8-.9,1.3-1.4Z"/>
    <path d="M246.4,26.4c.3-.6.6-1.1,1-1.5.1-.2.5-.1.7-.2,0,.2,0,.5-.1.6-.5.5-1.1.9-1.6,1.1Z"/>
    <path d="M177.6,157.5c-.1-.3-.1-.7,0-1,.2-.4.6-.7,1-1.1-.1.5-.3.9-.4,1.4,0,.3-.2.5-.6.7Z"/>
    <path d="M203.6,108.5c-.2-.1-.6-.4-.5-.5.3-.4.7-.8,1-1.2,0,.2.3.4.3.5-.2.4-.5.8-.8,1.2Z"/>
    <path d="M176.8,158.9c.2-.3.2-.5.3-.7,0-.1.2-.1.4-.2,0,.1.1.2,0,.3-.2.7-.5,1.3-.8,2,0,0-.3.1-.5.1,0-.1,0-.2,0-.4.1-.4.2-.7.5-1.2Z"/>
    <path d="M250.4,93.4c0,.6-.2,1-.2,1.4-.6-.3-.6-.9-.5-1.4,0-.2.3-.5.5-.7,0,.2.2.3.2.7Z"/>
    <path d="M249,252.1c0,.4-.2.6-.3.7,0,0-.4,0-.4-.2,0-.3,0-.7,0-1.1,0-.2.4-.3.6-.5,0,.3,0,.6.1,1Z"/>
    <path d="M147.5,214c-.2.6-.4,1.1-.6,1.7-.1.3-.2.5-.3.8,0-.3-.2-.6,0-.8.2-.6.6-1.1,1-1.6Z"/>
    <path d="M250.8,53.9c-.1.3-.3.4-.4.6-.2.3-.4.5-.6.8,0-.3-.2-.7,0-1,.2-.4.4-1.1,1.1-.4Z"/>
    <path d="M248.9,22.4c0,0,0,.1,0,.2,0,.6,0,1.1-.7,1.3-.1,0-.4-.2-.4-.2.2-.5.1-1.1,1-1.2Z"/>
    <path d="M250.3,105.8c0,.3-.2.4-.4.6,0-.2-.2-.4-.2-.5,0-.4,0-.8,0-1.2,0-.1.3-.2.4-.4,0,.1,0,.3,0,.4,0,.3,0,.7.2,1.1Z"/>
    <path d="M142.5,224.5c-.2.3-.3.5-.5.7,0-.2-.2-.3-.2-.5,0-.2,0-.4,0-.5,0-.3-.1-.8.4-.7.2,0,.2.6.3,1Z"/>
    <path d="M250.1,124.2c0,1.1-.2,2-.2,2.8,0-.9,0-1.9-.1-2.8,0-.1,0-.2.1-.3,0,0,0,0,.1,0,0,0,0,0,.1.3Z"/>
    <path d="M212.1,92.8c-.2.3-.4.5-.5.6,0-.2-.3-.4-.2-.5,0-.3.3-.6.5-.9.1-.1.3-.2.5-.3,0,.2,0,.3,0,.5,0,.2-.1.3-.3.6Z"/>
    <path d="M185.1,143.4c0,.1.1.3,0,.3-.4.4-.8.7-1.2,1.1,0,0-.2-.2-.2-.2.4-.4.8-.8,1.3-1.2Z"/>
    <path d="M210.3,94.6c.7.7,0,1.3-.2,2,0,0-.3,0-.5,0,0-.1,0-.3,0-.4.2-.5.3-1.1.6-1.7Z"/>
    <path d="M250.3,39.5c0,.3.1.6,0,.8,0,.2-.2.4-.3.6-.2-.1-.5-.2-.6-.3,0-.2,0-.4.2-.6.1-.2.3-.3.6-.4Z"/>
    <path d="M188.2,136.6c.2-.2.3-.3.5-.4,0,.3.2.7,0,1-.2.3-.6.5-.8.8,0-.1-.1-.2-.1-.3,0-.1,0-.2.1-.3,0-.2.2-.4.3-.7Z"/>
    <path d="M205.4,104.3c0,.3.2.7,0,.9-.2.4-.5.6-.8.9,0,0-.1,0-.1,0,.1-.3.3-.7.4-1,.1-.3.2-.5.5-.7Z"/>
    <path d="M250.7,52c-.5.7-.8.2-.9,0,0-.2.1-.6.2-.9.2.2.3.3.5.5.1.1.2.3.3.5Z"/>
    <path d="M243.8,48.2c.3.2.5.2.7.3.3.2.5.4.8.6-.3,0-.6-.1-.9-.2-.3,0-.6,0-.9,0-.4,0-.4,0,.2-.6Z"/>
    <path d="M189.9,134.3c-.1.5-.3,1-.6,1.4-.1,0-.3-.1-.4-.2.3-.4.6-.8,1-1.2Z"/>
    <path d="M198,119.9c-.2-.3-.3-.5-.3-.8,0-.2,0-.5.2-.7,0-.1.2-.2.2-.3,0,.3.2.5.2.8,0,.3-.1.7-.3,1Z"/>
    <path d="M212.1,91c.2-.3.3-.6.5-.8,0-.1.2-.2.4-.3,0,.2.2.3.1.5,0,.7-.3,1.1-1,.7Z"/>
    <path d="M165.6,179.3c0,.3.1.7,0,1-.2.3-.6.5-.9.7.1-.3.3-.7.4-1,.1-.2.2-.5.5-.7Z"/>
    <path d="M250.7,32.6v.5c-.6,0-.5-.6-.7-.9,0-.1,0-.4,0-.6.2.2.4.4.6.7,0,0,0,.1,0,.4Z"/>
    <path d="M163.2,185.5c-.2,0-.3,0-.5,0,.1-.4.2-.8.4-1.1,0-.2.3-.3.5-.5,0,.2,0,.4-.1.6,0,.3-.1.5-.3.9Z"/>
    <path d="M249.7,140.9c0-.3,0-.4,0-.5,0,0,.2,0,.2-.1,0,.3.1.6.1.8,0,.5,0,1-.1,1.6,0-.5-.2-1-.2-1.8Z"/>
    <path d="M250.4,56.9c.1,0,.3,0,.3,0,0,.8,0,1.6,0,2.4,0-.8-.1-1.5-.2-2.4Z"/>
    <path d="M243.9,55.7c.2-.2.3-.4.5-.3.2,0,.4.2.6.3-.2.1-.4.3-.6.3-.1,0-.3-.1-.5-.3Z"/>
    <path d="M242.8,58.6c.1-.4.3-.5.4-.7,0,.2.3.5.3.7,0,.6-.4.4-.7,0Z"/>
    <path d="M250.7,46.4c0,.2,0,.2,0,.3,0,.3,0,.7-.1,1-.1,0-.3-.2-.4-.3-.6-.6,0-.8.4-1Z"/>
    <path d="M249.7,149.6c0-.5,0-.8,0-1.1,0-.1,0-.2.1-.3,0,0,.2,0,.2.1,0,.6,0,1.3-.1,1.9,0,0-.2-.2-.2-.3,0,0,0-.1,0-.4Z"/>
    <path d="M167.4,175.9c.3.2.3.6,0,.9,0,0-.2.1-.3.2,0-.3,0-.7.2-1.1Z"/>
    <path d="M159.1,193.5c0,.2-.1.4-.3.4-.2,0-.4.1-.6.1,0,0-.2-.4-.1-.4.1-.1.4-.2.6-.2.1,0,.2,0,.4,0Z"/>
    <path d="M248.2,43.7c-.8.2-.6-.3-.6-.7,0,0,0-.2.1-.3.2.3.4.6.5,1Z"/>
    <path d="M250.1,117c0,.2,0,.3,0,.4,0,.1,0,.2-.1.3,0-.5-.2-1-.2-1.6,0,0,.2,0,.2-.1,0,.2,0,.3.1.5,0,.1,0,.2,0,.5Z"/>
    <path d="M147.7,214c0-.2-.2-.5,0-.7,0-.2.3-.3.5-.4,0,.2,0,.3-.1.5,0,.2-.2.4-.3.6Z"/>
    <path d="M249,223.4c0,.3-.2.5-.2.7-.1-.2-.3-.4-.4-.6.2,0,.4-.2.6,0Z"/>
    <path d="M248.6,264c-.2-.1-.4-.3-.3-.4,0-.2.1-.4.2-.6,0,.2.2.4.2.6,0,.2,0,.3,0,.5Z"/>
    <path d="M172.5,167.3c0,.4-.3.7-.5,1.1,0-.4.3-.7.5-1.1Z"/>
    <path d="M250.1,161.9c0,.3,0,.4,0,.5,0,.2,0,.3-.1.5,0,0-.2-.2-.2-.3,0-.3,0-.7.1-1,0,0,0,0,.1,0,0,0,0,0,.1.3Z"/>
    <path d="M249.8,137.7c.1,0,.2,0,.2,0,0,.4,0,.9,0,1.3,0-.4-.1-.8-.1-1.3Z"/>
    <path d="M250.4,56.7c-.1-.1-.3-.3-.4-.5,0-.1-.1-.3-.2-.5.2.1.4.2.5.4,0,.1,0,.3,0,.6Z"/>
    <path d="M250,121.8c0,.4.1.7,0,1,0,.1-.1.2-.2.4,0,0-.2-.2-.1-.3,0-.4.1-.8.3-1Z"/>
    <path d="M201.3,112.2c-.3-.9.3-.7.9-.7-.2.2-.5.5-.9.7Z"/>
    <path d="M202.3,111.5c0-.3.2-.7.4-1,0,0,.2.2.2.2-.2.3-.4.6-.6.9Z"/>
    <path d="M247.8,104.4c0,.4.1.7,0,1,0,.1-.1.2-.2.4,0,0-.2-.2-.1-.3,0-.4.1-.8.3-1Z"/>
    <path d="M249.8,98.6c.3,0,.5.2.6.3-.1.1-.2.2-.3.3-.1-.2-.3-.4-.3-.6Z"/>
    <path d="M249.8,80.8c.3,0,.5.2.6.3-.1.1-.2.2-.3.3-.1-.2-.3-.4-.3-.6Z"/>
    <path d="M246.5,31.4c.2.1.4.2.6.2-.3,0-.5.2-.8.3,0-.2,0-.4-.1-.7,0,0,0,0,.1,0,0,0,0,0,.2.2Z"/>
    <path d="M242.9,39c0-.3.2-.5.3-.6.1.1.2.2.3.3-.2.1-.4.3-.6.3Z"/>
    <path d="M245,37.6c.3,0,.5,0,.7.1,0,0,0,.2-.1.2-.3,0-.6,0-.8-.1,0,0,0,0,0-.1,0,0,0,0,.3-.1Z"/>
    <path d="M249,222.4c-.3,0-.4,0-.4-.4,0-.1.2-.2.2-.3,0,.2,0,.3.1.7Z"/>
    <path d="M142.1,232.9c-.7.4-.2-.2-.3-.4,0,0,.2-.2.2-.3,0,.2,0,.3.1.7Z"/>
    <path d="M162.1,186.9c-.2.2-.5.2-.7.2.2-.1.5-.2.7-.2Z"/>
    <path d="M245.6,35.4c0-.1-.1-.4-.1-.6.2,0,.4.1.6.2-.1.1-.2.2-.4.4Z"/>
    <path d="M231.7,273.9c.3,0,.4-.1.6,0,.1,0,.2.1.4.2,0,0-.2.2-.3.1-.3,0-.5-.1-.7-.3Z"/>
    <path d="M249.3,53.6c-.2,0-.5,0-.7-.2.2,0,.5,0,.7.2Z"/>
    <path d="M250,121.2c-.2-.1-.2-.3-.3-.5,0-.1,0-.3.1-.4,0,.2.2.4.2.5,0,.1,0,.2,0,.4Z"/>
    <path d="M250,107.3c0,.3.1.4,0,.6,0,.1-.1.2-.2.4,0,0-.2-.2-.1-.3,0-.3.1-.5.3-.7Z"/>
    <path d="M247.8,102c-.2-.1-.2-.3-.3-.5,0-.1,0-.3.1-.4,0,.2.2.4.2.5,0,.1,0,.2,0,.4Z"/>
    <path d="M247.8,59.3c-.3,0-.5-.2-.6-.3,0,0,0-.2.1-.3.2.2.4.3.5.6Z"/>
    <path d="M248.2,96.2c-.3-.1-.4-.3-.6-.5,0,0,.2-.1.3-.1.2.2.3.4.3.6Z"/>
    <path d="M248.2,94.2c0,.2,0,.4,0,.6l-.5-.5c.2,0,.3,0,.6,0Z"/>
    <path d="M247.9,93c.1.1,0,.2,0,.4,0-.1-.1-.2,0-.4Z"/>
    <path d="M211.7,94.1c-.1.1-.2,0-.4,0,.1,0,.2-.1.4,0Z"/>
    <path d="M247.8,99.8c-.1-.1-.2-.3-.2-.5,0,0,.1,0,.2,0,0,.2,0,.3,0,.5Z"/>
    <path d="M238.6,102.6c.1.1.2.3.2.5,0,0-.1,0-.2,0,0-.2,0-.3,0-.5Z"/>
    <path d="M249.8,110c0-.2,0-.4,0-.5,0,0,.2,0,.2,0,0,.2,0,.4-.2.5Z"/>
    <path d="M230.8,111.3c0,.2,0,.4,0,.5,0,0-.2,0-.2,0,0-.2,0-.4.2-.5Z"/>
    <path d="M200.9,113c0-.2,0-.5.2-.7,0,.2,0,.5-.2.7Z"/>
    <path d="M250,114.3c-.1-.1-.2-.3-.2-.5,0,0,.1,0,.2,0,0,.2,0,.3,0,.5Z"/>
    <path d="M197.6,120.6c0-.2,0-.5.2-.7,0,.2,0,.5-.2.7Z"/>
    <path d="M242.9,123.4c0-.2,0-.4,0-.5,0,0,.2,0,.2,0,0,.2,0,.4-.2.5Z"/>
    <path d="M247.8,123.7c-.1-.1-.2-.3-.2-.5,0,0,.1,0,.2,0,0,.2,0,.3,0,.5Z"/>
    <path d="M250,128.6c0,.2,0,.4,0,.5,0,0-.2,0-.2,0,0-.2,0-.4.2-.5Z"/>
    <path d="M242.6,43.9c.1.1.2.3.2.5,0,0-.1,0-.2,0,0-.2,0-.3,0-.5Z"/>
    <path d="M247.2,137.6c.1-.1.2,0,.4,0-.1,0-.2.1-.4,0Z"/>
    <path d="M239.9,139.4c-.1-.1,0-.2,0-.4,0,.1.1.2,0,.4Z"/>
    <path d="M247.8,140.4c-.2,0-.4,0-.5,0,0,0,0-.2,0-.2.2,0,.4,0,.5.2Z"/>
    <path d="M226.3,144.9c.2,0,.4,0,.5,0,0,0,0,.2,0,.2-.2,0-.4,0-.5-.2Z"/>
    <path d="M249.8,145.8c0-.2,0-.4,0-.5,0,0,.2,0,.2,0,0,.2,0,.4-.2.5Z"/>
    <path d="M248.4,154.2c.1-.1.3-.2.5-.2,0,0,0,.1,0,.2-.2,0-.3,0-.5,0Z"/>
    <path d="M233.8,157.2c-.1-.1,0-.2,0-.4,0,.1.1.2,0,.4Z"/>
    <path d="M237.5,53.8c0-.2,0-.4,0-.5,0,0,.2,0,.2,0,0,.2,0,.4-.2.5Z"/>
    <path d="M165.8,179.3c0-.2,0-.4,0-.6,0,0,.2,0,.2,0,0,.2,0,.4-.2.6Z"/>
    <path d="M248.7,180.8c.1.1.2.3.2.5,0,0-.1,0-.2,0,0-.2,0-.3,0-.5Z"/>
    <path d="M248.9,255.2c-.1-.1-.2-.3-.2-.5,0,0,.1,0,.2,0,0,.2,0,.3,0,.5Z"/>
    <path d="M248.7,245.6c.1.1.2.3.2.5,0,0-.1,0-.2,0,0-.2,0-.3,0-.5Z"/>
    <path d="M248.4,238.9c0-.2,0-.4,0-.5,0,0,.2,0,.2,0,0,.2,0,.4-.2.5Z"/>
    <path d="M152.4,204.3c.1.1.2.3.2.5,0,0-.1,0-.2,0,0-.2,0-.3,0-.5Z"/>
    <path d="M142,230.4c0,.2,0,.4,0,.5,0,0-.2,0-.2,0,0-.2,0-.4.2-.5Z"/>
    <path d="M141.9,228.6c.1.1.2.3.2.5,0,0-.1,0-.2,0,0-.2,0-.3,0-.5Z"/>
    <path d="M151.1,207.2c0,.2,0,.4,0,.5,0,0-.2,0-.2,0,0-.2,0-.4.2-.5Z"/>
    <path d="M148.9,211.1c0,.2,0,.4,0,.6,0,0-.2,0-.2,0,0-.2,0-.4.2-.6Z"/>
    <path d="M149.1,211.1c0-.1,0-.2.1-.3,0,.1,0,.2-.1.3Z"/>
    <path d="M149.5,210.3c0-.1.1-.1.2-.1,0,0,0,.1-.2.1Z"/>
    <path d="M248.5,234.6c-.1,0-.1-.1-.1-.2,0,0,.1,0,.1.2Z"/>
    <path d="M248.7,202.2c.1,0,.1.1.1.2,0,0-.1,0-.1-.2Z"/>
    <path d="M248.4,197.8c.1,0,.1.1.1.2,0,0-.1,0-.1-.2Z"/>
    <path d="M248.7,247.8c.1,0,.1.1.1.2,0,0-.1,0-.1-.2Z"/>
    <path d="M248.4,260.5c.1,0,.1.1.1.2,0,0-.1,0-.1-.2Z"/>
    <path d="M166.5,177.9c.1,0,.1.1.1.2,0,0-.1,0-.1-.2Z"/>
    <path d="M248.4,266.3c.1,0,.1.1.1.2,0,0-.1,0-.1-.2Z"/>
    <path d="M244,177.4c0-.1.1-.1.2-.1,0,0,0,.1-.2.1Z"/>
    <path d="M171.7,168.4c0,.1,0,.2-.1.3,0-.1,0-.2.1-.3Z"/>
    <path d="M172.6,167.3c0-.1,0-.2.1-.3,0,.1,0,.2-.1.3Z"/>
    <path d="M239.7,165c0-.1.1-.1.2-.1,0,0,0,.1-.2.1Z"/>
    <path d="M250,164.7c-.1,0-.1-.1-.1-.2,0,0,.1,0,.1.2Z"/>
    <path d="M247.3,158.2c0-.1.1-.1.2-.1,0,0,0,.1-.2.1Z"/>
    <path d="M183,147.5c0,.1-.1.1-.2.1,0,0,0-.1.2-.1Z"/>
    <path d="M236.4,141.9c0-.1.1-.1.2-.1,0,0,0,.1-.2.1Z"/>
    <path d="M187.7,138.6c-.1,0-.1-.1-.1-.2,0,0,.1,0,.1.2Z"/>
    <path d="M190,134.3c0-.1,0-.2.1-.3,0,.1,0,.2-.1.3Z"/>
    <path d="M248,128.1c0-.1.1-.1.2-.1,0,0,0,.1-.2.1Z"/>
    <path d="M239.2,125c.1,0,.2,0,.3.1-.1,0-.2,0-.3-.1Z"/>
    <path d="M239.2,124.8c-.1,0-.2,0-.4-.2.1,0,.2,0,.4.2Z"/>
    <path d="M238.8,124.5c-.1,0-.2,0-.3-.1.1,0,.2,0,.3.1Z"/>
    <path d="M195.5,123.7c0-.1.1-.1.2-.1,0,0,0,.1-.2.1Z"/>
    <path d="M249.8,119.8c0-.1.1-.1.2-.1,0,0,0,.1-.2.1Z"/>
    <path d="M227.5,119c-.1,0-.1-.1-.1-.2,0,0,.1,0,.1.2Z"/>
    <path d="M198.7,117.4c.1,0,.1.1.1.2,0,0-.1,0-.1-.2Z"/>
    <path d="M240.6,116.3c0,.1-.1.1-.2.1,0,0,0-.1.2-.1Z"/>
    <path d="M200.5,114.7c0-.1.1-.1.2-.1,0,0,0,.1-.2.1Z"/>
    <path d="M248,113.8c.1,0,.1.1.1.2,0,0-.1,0-.1-.2Z"/>
    <path d="M200.7,113c0,.1,0,.2-.1.3,0-.1,0-.2.1-.3Z"/>
    <path d="M247.8,110.3c-.1,0-.1-.1-.1-.2,0,0,.1,0,.1.2Z"/>
    <path d="M243.1,104.5c-.1,0-.1-.1-.1-.2,0,0,.1,0,.1.2Z"/>
    <path d="M250,96.2c-.1,0-.1-.1-.1-.2,0,0,.1,0,.1.2Z"/>
    <path d="M239.3,95.5c0-.1.1-.1.2-.1,0,0,0,.1-.2.1Z"/>
    <path d="M244,93.3c0-.1.1-.1.2-.1,0,0,0,.1-.2.1Z"/>
    <path d="M231,92.4c.1,0,.1.1.1.2,0,0-.1,0-.1-.2Z"/>
    <path d="M247.6,88.1c.1,0,.1.1.1.2,0,0-.1,0-.1-.2Z"/>
    <path d="M250,81.9c0,.1-.1.1-.2.1,0,0,0-.1.2-.1Z"/>
    <path d="M247.8,81.2c0,.1-.1.1-.2.1,0,0,0-.1.2-.1Z"/>
    <path d="M218.1,80.7c0,.1,0,.2-.1.3,0-.1,0-.2.1-.3Z"/>
    <path d="M249.8,79.6c0-.1.1-.1.2-.1,0,0,0,.1-.2.1Z"/>
    <path d="M250.2,77.6c.1,0,.1.1.1.2,0,0-.1,0-.1-.2Z"/>
    <path d="M250.3,76.7c-.1,0-.1-.1-.1-.2,0,0,.1,0,.1.2Z"/>
    <path d="M230.1,76.5c0,.1-.1.1-.2.1,0,0,0-.1.2-.1Z"/>
    <path d="M246.9,73.9c.1,0,.1.1.1.2,0,0-.1,0-.1-.2Z"/>
    <path d="M247.2,67.4c.1,0,.2,0,.3.1-.1,0-.2,0-.3-.1Z"/>
    <path d="M247.2,67.2c-.1,0-.2,0-.3-.1.1,0,.2,0,.3.1Z"/>
    <path d="M242,65.6c0,.1-.1.1-.2.1,0,0,0-.1.2-.1Z"/>
    <path d="M250.5,60.4c0-.1,0-.2.1-.3,0,.1,0,.2-.1.3Z"/>
    <path d="M234.4,58.5c-.1,0-.1-.1-.1-.2,0,0,.1,0,.1.2Z"/>
    <path d="M243.5,54.9c-.1,0-.1-.1-.1-.2,0,0,.1,0,.1.2Z"/>
    <path d="M238.1,52.2c.1,0,.2,0,.3.1-.1,0-.2,0-.3-.1Z"/>
    <path d="M238.1,52c-.1,0-.2,0-.3-.1.1,0,.2,0,.3.1Z"/>
    <path d="M242.2,49.7c.1,0,.1.1.1.2,0,0-.1,0-.1-.2Z"/>
    <path d="M242.6,48.2c.1,0,.1.1.1.2,0,0-.1,0-.1-.2Z"/>
    <path d="M246.7,47.3c-.1,0-.1-.1-.1-.2,0,0,.1,0,.1.2Z"/>
    <path d="M245.6,42.4c0,.1-.1.1-.2.1,0,0,0-.1.2-.1Z"/>
    <path d="M247.8,39.7c-.1,0-.1-.1-.1-.2,0,0,.1,0,.1.2Z"/>
    <path d="M247.8,37.2c-.1,0-.1-.1-.1-.2,0,0,.1,0,.1.2Z"/>
    <path d="M248.4,36.3c.1,0,.1.1.1.2,0,0-.1,0-.1-.2Z"/>
    <path d="M224.4,371.3c2-1.2,4-2.1,5.6-3.8.8-.8,2.1-.8,2.9-1.7.4-.5,1.1-.7,1.7-1.1,2.1-1.5,4.2-3,6.3-4.5,2.1-.1,2.8-2.4,4.5-3.1.7-.3,1.2-.8,1.9-1.1.2,0,.5,0,.8.1,0,.2-.1.5-.2.6-.3.4-.7,1-1,1-1.5,0-1.5,1.4-2.1,2.2,0,0,0,.3,0,.4,0,.2,0,.5,0,.7-.2-.2-.4-.3-.5-.5-.5-.5-2.3-.3-2.9.3-.9.8-1.7,1.7-2.6,2.5-.3.3-.7.4-1,.7-.3.4-1.8,0-.9,1.3,0,.1-.3.2-.6-.1-.2-.1-.5-.2-.6-.2-.8.5-1.6,1-2.5,1.5.3,1.4-1,1.4-1.7,1.6-.6.2-1.2.4-1.6.9-.2.3-.5.6-.8.6-1.4.2-2.1,1.2-2.9,2.1-.2.2-.4.5-.5.5-.8,0-1.3.5-1.9.7-1.2.5-1.7,1.8-2.9,2.2-.6.2-.9.7-1.4,1.1-.6.4-1.2.8-1.9,1.2-1,.5-2.1.8-2.9,1.8,0,0-.3,0-.5-.1,0-.2,0-.5.2-.6,1.3-.9,2.6-1.7,3.8-2.6,1.1-.7,2.1-1.4,3.2-2.2,1-.7,1.9-1.6,3-2.4Z"/>
    <path d="M247.2,386c-.1,0-.4-.1-.3-.2.3-1.6-.4-3.2,0-4.7.4-1.4-.6-2.8.3-4.1-.4-1-.4-2-.3-3,.1-1.6.3-3.1,0-4.7,0-.5.4-1.1.3-1.6-.2-1.2.2-2.4,0-3.5-.1-.7,0-1.4,0-2-.1-1,.2-1.9.1-2.8,0-.3.1-.6.2-.8,0-.1.2-.2.4-.3,0,.2.1.3.1.5-.3.9-.3,1.9-.3,2.8,0,.8.2,1.7.2,2.5,0,.7-.4,1.6-.2,2.2.7,1.5-.8,3.2.3,4.6-.9,1.6,0,3.3-.3,5-.1.9-.4,2,.3,2.9,0,0,0,.2,0,.4-.8,2.1,0,4.4-.5,6.5,0,0-.2.2-.2.3Z"/>
    <path d="M247.2,386.2c.1.1.3.3.3.6,0,2.5,0,5,0,7.4,0,1.1-.6,1.5-1.2,1.6-.5,0-1,.3-1.5.2-.8-.2-1,.2-.9,1,0,.3,0,.4-.4.3-1-.3-1.2,0-1.4.9,0,.2-.2.6-.2.6-.4,0-.7-.2-1.1-.4.2-.1.5-.3.5-.4,0-1.1.5-1.7,1.4-2.1.2-.1.5-.7.5-.8-.3-.4-.3-.8.2-.5.8.5,1.6.3,2.4.3.4,0,1.1-.4,1.2-.8.1-.4-.2-1-.5-1.4-.3-.5-.3-.4,0-.7.3-.5.8-.7.5-1.6-.3-1.2-.6-2.7.2-4.1Z"/>
    <path d="M147.1,424.4c-1.2,1-2.3,1.8-3.4,2.7-.1,0-.3.1-.4.2,0-.2,0-.3,0-.5.1-1.4,1.5-1.5,2.3-2.2,1.2-1.1,2.7-2,4.2-2.8.8-.4,1.7-.5,2.4-1.2.1-.1.6.1.9.3,0,0,0,.4,0,.4-.7.3-1.4.5-2,.8-.3.1-.6.4-1,.6-.2.1-.4.4-.5.4-1,0-1.7.6-2.4,1.4Z"/>
    <path d="M233.3,386.4c.2-.2.3-.4.3-.6q1,.9,1.6-.1c0,0,.2-.2.3-.2.7.2,1.4.4,2.1.6,0,.1-.1.3-.2.3-.5.1-1.1.3-1.6.4-.3,0-.9-.3-.9.5-.2,0-.5.1-.7,0-.5-.3-.9-.6-1.4-.2,0,0-.3-.2-.4-.4,0-.2,0-.4.1-.6.2.1.5.2.8.3Z"/>
    <path d="M164.9,412.4c-1.3.5-2.1,1.4-3,2.2-.1.1-.3.2-.5.2,0-.2,0-.5.2-.6.5-.5.9-1.1,1.5-1.5,1.1-.8,2.2-1.6,3.4-2.3.2-.2.6,0,1,0-.2.3-.3.6-.6.8-.6.4-1.2.8-1.9,1.2Z"/>
    <path d="M199.1,389c1.5-1.1,2.9-2.4,4.9-3,.2,0,.3,0,.5,0-.1.2-.2.4-.3.5-1.4,1-3.2,1.4-4.1,3.1-.2.4-.6.3-.7-.3,0,0-.1-.2-.3-.3Z"/>
    <path d="M198.5,389.3c-.5.7-1,1.5-1.6,2.2-.2.2-.5.3-.7.4-.7.3-1.5.5-2.2.7,0,0-.2,0-.3,0,0-.1,0-.3.2-.4.5-.3,1-.5,1.5-.8.5-.2,1.4-.4,1.4-.6,0-.9.7-1,1.2-1.3.1,0,.3,0,.6-.1Z"/>
    <path d="M244.3,391.5c-.3.8-2.1,1.9-2.6,1.8,0,0-.2-.1-.2-.2,0,0,.2-.2.3-.3.5-.4.5-1.2,0-1.6,0,0-.2-.2-.3-.3,0,0,.2-.2.3-.2.9,0,1.8,0,2.6.7Z"/>
    <path d="M242.1,382.9c.2,0,.7.3.6.4-.2,1,.5,1.6.9,2.3.4.6,0,.8-.3,1.1,0,0-.4,0-.6-.1.4-1.3-1-2.3-.7-3.7Z"/>
    <path d="M182.7,400.6c.4,0,1,0,.5.3-1,.5-2.1,1.2-3.3,1.1-.1,0-.2,0-.3,0,0,0,0-.2,0-.2,1.1-.1,1.7-1.5,3.1-1.1Z"/>
    <path d="M158.5,416.6c-.2.3-.2.5-.4.6-.3.2-.7.2-1.1.3.3-.3,0-.9.8-1.1.5-.1.8-.8,1.3-1.2.3-.2.5-.5.8-.5.3,0,.7,0,1,.1-.2.1-.5.2-.7.4-.6.4-1.1.8-1.7,1.3Z"/>
    <path d="M241.7,375.2c0-1.2.8-.6,1.2-.7.3,0,.7,0,1,.1,0,.3-.1.8-.3.9-.6.2-1.3.2-1.9.2v-.7M243.2,375c0,0,.1,0,.2.1,0-.1,0-.2-.2-.1Z"/>
    <path d="M186.3,397.7c.5-.7,1-1.2,1.5-1.7.2-.2.6-.1.8,0,.1,0,.2.4.1.6,0,.2-.4.4-.6.4-.7,0-1.1.1-1.3.9,0,0-.5,0-.7-.2Z"/>
    <path d="M238.2,410.3c.3-.5-1.2-1-.1-1.3.8-.3.8.4.8.9,0,.6.3.5.7.5.2,0,.3.2.4.4-.2.1-.5.4-.7.3-.4-.2-.6-.5-1.1-.8Z"/>
    <path d="M142.5,284.3c-.5,0-.8,0-1.1,0-.2,0-.3-.3-.4-.4.1,0,.2-.3.4-.3.7,0,1.4,0,2.1,0,.2,0,.5.1.7.2-.2.2-.4.4-.7.5-.3,0-.6,0-1.1,0Z"/>
    <path d="M178.7,402.4c.2,0,.4.2.4.3-.3.6-.3.6-1.2.9-.5.2-1.2,1.1-1.5.5-.3-.7,1-.7,1.5-1.1.2-.2.4-.4.8-.6Z"/>
    <path d="M141.7,427.4c.2.6-.1.9-.7,1.1-.4.1-.7.4-1,.6-.1,0-.2.3-.3.4,0-.2-.2-.5,0-.7.5-.7.9-1.5,2.1-1.4Z"/>
    <path d="M245.3,401.7c0,.8.1,1.6,0,2.5,0,.1-.2.3-.4.4,0,0-.3,0-.3-.1,0-.9-.5-2,.6-2.8Z"/>
    <path d="M236.3,375.3c.3,0,.6.2.9.3.9.2.5.5.2.9-.1.1-.3.2-.5.2-.5,0-.8,1.2-1.2.6-.6-.9.7-.5,1-.9.2-.3.3-.2-.4-1Z"/>
    <path d="M241.4,415.8c.5-.6.9-1,.7-1.7,0-.1,0-.3.2-.5.2.2.5.3.5.5,0,.5-.2,1.1-.4,1.6-.1.3-.5.5-.7.8,0-.2-.2-.3-.3-.7Z"/>
    <path d="M172.2,407.1c.2,0,.3.2.4.3,0,.1,0,.3,0,.3-.8.4-1.6.8-2.3,1.2.6-.6,1.2-1.2,2-1.8Z"/>
    <path d="M213.8,379.5c-.5.5-1,1-1.5,1.4-.2.1-.5,0-.8.1,0-.2.1-.5.3-.6.6-.4.9-1.7,2-.9Z"/>
    <path d="M242.1,378.1c.3.4.6.5.8.7.1.1.2.4.2.6,0,.1-.2.3-.4.4-.2,0-.4-.1-.5-.2-.2-.5-.4-1-.5-1.6,0-.2.2-.5.4-.6.2,0,.4,0,.6.1-.2.1-.5.3-.7.6Z"/>
    <path d="M237.1,397.7c0-.2,0-.4,0-.5.3,0,.7,0,1,.3.2.1.1.5.1.8.2,0,.4,0,.6,0,0,.2,0,.6-.1.6-.4,0-.9,0-1.2-.1-.2-.1-.2-.6-.4-.9Z"/>
    <path d="M149.5,440.5c.5,0,.8-.2,1.2,0,.3,0,.6.3.9.5-.3,0-.6.2-.9.2-.4,0-.9,0-1.3,0-.7-.2,0-.3.1-.6Z"/>
    <path d="M243.6,402.3c-.4.2-.9.4-1.3.4-.6.1-.6-.3-.5-.7,0-.2.4-.4.6-.4.4,0,.8.3,1.2.6M242.3,402c0,0,0,.1-.1.2.1,0,.2,0,.1-.2Z"/>
    <path d="M235.5,404.9c-.3.2-.7.5-1.1.7-.1,0-.4,0-.5,0,0-.2-.2-.5,0-.7,0-.1.3-.3.5-.3.4,0,.7.2,1.2.3Z"/>
    <path d="M241,376.3c-.3.2-.7.1-1,0-.3,0-.5,0-.8,0,.4,0,0-1.3.9-.6,0,0,.7-.6.8.5Z"/>
    <path d="M236.8,404.2c0-.1,0-.2,0-.4,0-.5-.2-.9-.2-1.4.5.2,1,.4,1.4.7,0,0,0,.3,0,.3-.3.3-.6.5-1,.7Z"/>
    <path d="M239.5,384.7c-.3-.1-.4-.2-.6-.2.2-.2.3-.6.5-.5.4,0,.9.2,1.3.3.2,0,.2.3.3.5-.2,0-.4.2-.6.2-.3,0-.6,0-1-.2Z"/>
    <path d="M210.1,382.4c-.6,0-.7.3-.6.7,0,.6-.4.4-.7.4-.1,0-.3,0-.3-.1-.1-.3,1.3-1.5,1.7-1.5,0,0,0,.2,0,.4Z"/>
    <path d="M247.3,410.4c-.2-.7-.3-1.3-.4-2,0,0,.2,0,.2,0,.2.7.9,1.3.2,2.1Z"/>
    <path d="M241.4,367.6c.4.1.7.3.9.3.8,0,.4.5.5.9-.2-.1-.5-.2-.7-.3-.3-.2-.7-.4-1-.6,0,0,0,0,0-.1,0,0,0,0,.3-.1Z"/>
    <path d="M236.8,383.6c.5-.7.9-.1.9,0,0,.3-.4.6-.6.9-.2-.2-.3-.4-.4-.6,0,0,0-.2,0-.4Z"/>
    <path d="M236.9,382.4c-.7-.2.3-1.3-.8-1.4,0-.1.1-.3.2-.3.8,0,1.1.7.6,1.7Z"/>
    <path d="M243.9,370.9c.2-.4.4-.7.6-.8.2-.1.5,0,.8,0-.2.3-.4.6-.6.8-.6-.8-.5.1-.6.3,0,0,0,0-.1,0,0,0,0,0-.1-.3Z"/>
    <path d="M236.9,397.7c-.2.1-.6.3-.9.3-.1,0-.3-.2-.4-.4,0-.1,0-.3,0-.5.2,0,.5.1.7.2.2,0,.4.2.7.4Z"/>
    <path d="M238.9,394.7c0-.4,0-.9,0-.9.5,0,1,0,1.6,0,0,0-.1.2-.2.3-.4.3-.9.5-1.4.6Z"/>
    <path d="M236.9,400.8c-.2,0-.3.1-.4,0-.3,0-.6-.2-.9-.3.2-.2.4-.4.7-.6.8-.5.1.7.6.6,0,0,0,0,0,.2Z"/>
    <path d="M226.4,387.6c0,.2,0,.5-.2.5-.2,0-.5-.2-.7-.2-.3,0-.5.3-.8.5,0-.1-.1-.3,0-.3.3-.2.6-.5.9-.6.2,0,.5,0,.8,0Z"/>
    <path d="M238.1,440.1c.4.2.6.4.8.6.2.1.3.3.5.4-.2,0-.6.1-.7,0-.3-.3-.6-.7-.7-1.1Z"/>
    <path d="M242.4,387.4c-.3,0-.5.1-.6,0-.4-.1-.7-.3-1.1-.5.4-.7.8,0,.9.2.3.5.9-1.1.8.3Z"/>
    <path d="M219.4,440.9c.6,0,1-.1,1.5,0,.3,0,.6.1.9.2-.3,0-.7.2-1,.1-.5,0-1-.1-1.4-.3Z"/>
    <path d="M238.1,386.8c-.1-.9.4-.7.8-.7.1,0,.2.2.3.3-.2.1-.4.3-.6.4-.1,0-.3,0-.5,0Z"/>
    <path d="M235.9,389.6c-.2,0-.5,0-.7-.2.2-.2.3-.3.5-.5,0,0,.1,0,.2,0,.4,0,.7.1,1.1.2-.4.1-.7.2-1.1.4Z"/>
    <path d="M242.9,362.1c.4-.8.9-.8,1.2-.2,0,0-.1.3-.2.3-.3,0-.6,0-1,0Z"/>
    <path d="M237,373.4c.4,0,.6.1.8.3,0,0,.1.4,0,.5,0,.1-.4.2-.5.1-.2-.3-.4-.6-.4-.9Z"/>
    <path d="M206,384.3c0-.1,0-.3,0-.3.4-.2.7-.3,1.1-.4,0,0,.2.2.2.2-.3.5-.7.6-1.3.5Z"/>
    <path d="M190,395.1c0-.1.2-.3.4-.3.3,0,.7-.1,1-.2,0,.1,0,.3,0,.3-.4,0-.7.8-1.3.2Z"/>
    <path d="M155.1,418.7c0,.2,0,.6,0,.6-.4.2-.8.2-1.2.3,0,0,0,0,0-.1,0-.2,0-.4.2-.5.3-.2.7-.3,1.2-.4Z"/>
    <path d="M229.9,391.4c.1-.4,1.2-.8,1.3-.5,0,0,0,.3-.2.4-.3.1-.6.2-1.1.2Z"/>
    <path d="M242.4,400.8c-.3,0-.6,0-.7-.2-.1-.2-.3-.7-.2-.7.4-.3.6-.1.6.4,0,.1.2.3.3.5Z"/>
    <path d="M234.8,397c-.6-.6,0-.8.2-1.1,0,.3.2.5.3.8,0,.2,0,.3-.1.5,0,0,0,0-.1,0,0,0,0,0-.2-.2Z"/>
    <path d="M244,439.8c.6.4,0,.7-.2.9-.1,0-.4,0-.6,0,0-.2.1-.4.3-.6,0-.1.3-.1.5-.3Z"/>
    <path d="M235.2,406.8c.4,0,1.1-.5,1.1.4,0,.2-.3.4-.4.5-.2-.3-.4-.5-.6-.9Z"/>
    <path d="M184.4,398.8c0,.2.1.4,0,.5,0,.3,0,.6-.1.9-.1,0-.4-.2-.4-.3,0-.3,0-.6,0-.9,0,0,.2-.2.3-.3Z"/>
    <path d="M238.5,371.6c.4,0,.7,0,.9,0,.1,0,.1.3.2.4-.1,0-.3,0-.4,0-.3,0-.6-.1-1-.2,0,0,0,0,0-.1,0,0,0,0,.3-.1Z"/>
    <path d="M235.5,382.6c0,.3-.2.5-.3.6-.1-.2-.3-.4-.3-.6,0-.8.3-.2.6,0Z"/>
    <path d="M184.6,398.8c0-.1,0-.3.2-.4.3-.1.7-.2,1.1-.3,0,0,0,0,0,.1-.3.4-.7.6-1.3.5Z"/>
    <path d="M245.1,398c0,.3.1.6.1.8-.2,0-.4,0-.4,0,0-.3,0-.6,0-.9,0,0,0,0,.1,0,0,0,0,0,.2.2Z"/>
    <path d="M239.1,380.7c0,.2.1.4,0,.5,0,.2,0,.3-.1.5,0-.1-.2-.2-.2-.3-.1-.2-.3-.5-.4-.8,0,0,.2-.2.3-.2,0,0,.2.2.3.2Z"/>
    <path d="M248.3,295.2c0-.5,0-.7.1-1,.1,0,.3.1.4.2.4.5-.2.7-.2,1.1,0,0,0,0-.1,0,0,0,0,0-.1-.3Z"/>
    <path d="M242.6,418.4c.2-.2.3-.3.5-.5v1.1c-.2-.1-.4-.2-.5-.3,0,0,0-.1,0-.3Z"/>
    <path d="M228.1,372.4c.1,0,.2,0,.2,0,.3.2.5.5.8.7,0,0,0,0,0,.1-.3-.3-1.1,0-.9-.9Z"/>
    <path d="M241,391.9c-.1.2-.3.4-.4.3-.2,0-.4-.1-.6-.2.2-.2.3-.4.5-.5.2,0,.4,0,.6.3Z"/>
    <path d="M241.3,411.1c0,.1,0,.2,0,.3-.3.2-.6.5-.9.7,0,0,0-.1,0-.1.3-.3.6-.6,1-.8Z"/>
    <path d="M241.3,401.8c0,.2-.1.4-.3.4-.2,0-.4.1-.6.1,0,0-.2-.4-.1-.4.1-.1.4-.2.6-.2.1,0,.2,0,.4,0Z"/>
    <path d="M236.7,410.7c.3,0,.5,0,.7.1-.2.2-.3.5-.5.6,0,0-.4-.1-.5-.3,0,0,.1-.3.3-.4Z"/>
    <path d="M186.3,441.1c-.2,0-.3,0-.4,0-.1,0-.2,0-.3-.1.5,0,1-.2,1.6-.2,0,0,0,.2.1.2-.2,0-.3,0-.5.1-.1,0-.2,0-.5,0Z"/>
    <path d="M226.2,391.5c-.5,0-.8,0-1.1,0-.1,0-.2,0-.3-.1,0,0,.2-.2.3-.2.5,0,.9,0,1.4.1,0,0,0,0,0,.1,0,0,0,0-.3.1Z"/>
    <path d="M228.2,391.1c.3,0,.6-.1.8-.1,0,.2,0,.4,0,.4-.3,0-.6,0-.9,0,0,0,0,0,0-.1,0,0,0,0,.2-.2Z"/>
    <path d="M146.7,440.5c.3.2.5.3.7.3-.1,0-.2.2-.4.3-.2,0-.4,0-.5,0-.1,0-.3-.1-.4-.2.2-.2.3-.3.6-.4Z"/>
    <path d="M236.3,375.1c-.1,0-.3.1-.3,0-.2-.2-.4-.4-.7-.6.1-.1.3-.3.4-.4.2.2.3.5.5.7,0,0,0,0,.1.2Z"/>
    <path d="M238.1,391.5c-.7-.5-.2-.7,0-1,0,0,.2,0,.2,0,0,.3,0,.6-.3,1Z"/>
    <path d="M205.8,384.3c0,.1,0,.2,0,.3-.3.2-.6.5-.9.7,0,0,0-.1,0-.1.3-.3.6-.6,1-.8Z"/>
    <path d="M233.9,369.5c.2-.2.3-.3.3-.3,0,0,.2.1.3.2-.2.3-.4.5-.6.8l-.4-.3.3-.3Z"/>
    <path d="M246,385.8c0,.3.2.5,0,.6-.1.2-.4.3-.5.4,0-.2-.1-.4,0-.6,0-.2.3-.3.6-.4Z"/>
    <path d="M241,406.4c.2-.2.5-.2.7-.2,0,0,0,.3,0,.3-.2,0-.5,0-.7-.2Z"/>
    <path d="M232,441.2c-.3,0-.5,0-.7-.1h1.3c-.2,0-.3,0-.7.1Z"/>
    <path d="M169,409.9c-.2-.2-.3-.3-.4-.5.3,0,.6-.1.8-.1,0,0,.1.2,0,.3,0,.2-.2.3-.5.3Z"/>
    <path d="M236.6,404.2c.3.9-.3.7-.9.7.2-.2.5-.5.9-.7Z"/>
    <path d="M213.1,404.2c-.2-.2-.2-.5-.2-.7,0,0,.3,0,.3,0,0,.2,0,.5-.2.7Z"/>
    <path d="M168.6,441.2c-.3,0-.5,0-.7-.1h1.3c-.2,0-.3,0-.7.1Z"/>
    <path d="M160.2,441.1c-.4,0-.7.1-1,0-.1,0-.2-.1-.4-.2,0,0,.2-.2.3-.1.4,0,.8.1,1,.3Z"/>
    <path d="M159.8,283.8c-.3.3-.4.6-.7.2,0,0-.2-.2-.3-.3.2,0,.4-.2.6-.2.2,0,.3.1.4.3Z"/>
    <path d="M152,284.4c.4,0,.7-.1,1,0,.1,0,.2.1.4.2,0,0-.2.2-.3.1-.4,0-.8-.1-1-.3Z"/>
    <path d="M231.1,412.1c-.1,0-.2,0-.2,0,0-.4,0-.9,0-1.3,0,.4.1.8.1,1.3Z"/>
    <path d="M188.9,441.1c0-.3.2-.5.4-.6.1,0,.3.3.5.4-.3,0-.6.2-.9.2Z"/>
    <path d="M244.2,412.4c-.2,0-.3.1-.4,0-.2-.1-.6-.3-.5-.4.2-.8.4.2.6,0,0,0,.3.1.3.3Z"/>
    <path d="M245.3,378.8c-.2.2-.3.3-.5.4,0-.3-.1-.6-.1-.8,0,0,.2-.1.3,0,.2,0,.3.2.3.5Z"/>
    <path d="M241.8,380.4c.2,0,.4,0,.6.2-.3.2-.5.8-1,.3,0,0,.2-.2.4-.5Z"/>
    <path d="M226.6,382.6c.3,0,.5.2.6.4,0,.1-.3.3-.4.5,0-.3-.2-.6-.2-.9Z"/>
    <path d="M243.8,383.1c.1-.2.2-.4.2-.6,0,.3.2.5.3.8-.2,0-.4,0-.7.1,0,0,0,0,0-.1,0,0,0,0,.2-.2Z"/>
    <path d="M223.4,385.8c.3,0,.5.2.6.3-.1.1-.2.2-.3.3-.1-.2-.3-.4-.3-.6Z"/>
    <path d="M142.6,428.6c.3,0,.5.2.6.3-.1.1-.2.2-.3.3-.1-.2-.3-.4-.3-.6Z"/>
    <path d="M244.7,392.7c.2,0,.3.2.3.4,0,.2-.1.4-.2.6,0,0-.2-.2-.3-.3-.4-.3,0-.4.2-.7Z"/>
    <path d="M225.7,393.8c.2.3.3.6.4.8,0,0-.2,0-.2,0-.2-.3-.8-.5-.2-.9Z"/>
    <path d="M222.5,417.9c-.3,0-.4,0-.6-.1.2-.3.4-.5.6-.8,0,.3,0,.5,0,.9Z"/>
    <path d="M239.1,396.9c.2,0,.3.2.4.3-.2.1-.4.3-.6.4,0-.2,0-.4.2-.7Z"/>
    <path d="M246.5,397.4c.2,0,.3-.1.4,0,.2.1.6.3.5.4-.2.8-.4-.2-.6,0,0,0-.3-.1-.3-.3Z"/>
    <path d="M239.6,414.3c.2.2.2.5.2.7,0,0-.3,0-.3,0,0-.2,0-.5.2-.7Z"/>
    <path d="M186,414.1c0,.1.1.4.1.6l-.6-.2c.1-.1.2-.2.4-.4Z"/>
    <path d="M210.9,415.1c0,.2-.2.5-.3.7,0,0-.2,0-.3-.1.2-.2.3-.4.6-.6Z"/>
    <path d="M211.9,441.1c-.3,0-.4.1-.6,0-.1,0-.2-.1-.4-.2,0,0,.2-.2.3-.1.3,0,.5.1.7.3Z"/>
    <path d="M183.4,440.8c.4.7-.2.2-.4.3,0,0-.2-.2-.3-.2.2,0,.3,0,.7-.1Z"/>
    <path d="M155.8,418c0,.4.2.8-.5.7,0-.2.3-.5.5-.7Z"/>
    <path d="M229.9,394.3c-.2-.2-.3-.3-.4-.4l.6-.2c0,.2,0,.5-.1.6Z"/>
    <path d="M191,421c.1.2.3.4.4.7,0,0,0,.2-.1.3,0-.1-.2-.2-.2-.4,0-.2,0-.3,0-.6Z"/>
    <path d="M232.7,403.2c.1.2.3.4.4.7,0,0,0,.2-.1.3,0-.1-.2-.2-.2-.4,0-.2,0-.3,0-.6Z"/>
    <path d="M233.4,422.3c-.2-.2-.2-.5-.2-.7.1.2.2.5.2.7Z"/>
    <path d="M231.3,398.9c.2,0,.4,0,.6,0l-.5.5c0-.2,0-.3,0-.6Z"/>
    <path d="M242.6,422c.2,0,.4,0,.6,0l-.5.5c0-.2,0-.3,0-.6Z"/>
    <path d="M213.6,392.2c.1-.3.3-.4.5-.6,0,0,.1.2.1.3-.2.2-.4.3-.6.3Z"/>
    <path d="M211.6,410.6c-.2.2-.3.3-.4.4,0-.2-.1-.4-.2-.6.2,0,.5,0,.6.1Z"/>
    <path d="M154.8,440.8c.3,0,.5,0,.7.1,0,0,0,.2-.1.2-.3,0-.6,0-.8-.1,0,0,0,0,0-.1,0,0,0,0,.3-.1Z"/>
    <path d="M241.5,411.1c0,0,0-.2,0-.3.1-.1.3-.3.5-.4,0,0,.2.2.1.3-.2.2-.4.3-.6.4Z"/>
    <path d="M204.9,440.5c.3,0,.4-.1.6,0,.1,0,.2.1.4.2,0,0-.2.2-.3.1-.3,0-.5-.1-.7-.3Z"/>
    <path d="M231.5,427.1c.2.2.3.3.4.4l-.6.2c0-.2,0-.5.1-.6Z"/>
    <path d="M195,440.8c-.2.2-.5.2-.7.2.2-.1.5-.2.7-.2Z"/>
    <path d="M245.6,366.1c-.3,0-.5-.2-.6-.3,0,0,0-.2.1-.3.2.2.4.3.5.6Z"/>
    <path d="M176.5,441.1c-.3,0-.5-.2-.6-.3,0,0,0-.2.1-.3.2.2.4.3.5.6Z"/>
    <path d="M144.9,440.7c.2,0,.3.1.5.2h-.7c0,0,0,0,0,0,0,0,0,0,.2-.2Z"/>
    <path d="M240.3,440.4c.2-.2.5-.2.7-.2-.2.1-.5.2-.7.2Z"/>
    <path d="M245.3,387.8c-.3,0-.4.1-.6,0-.1,0-.2-.1-.4-.2,0,0,.2-.2.3-.1.3,0,.5.1.7.3Z"/>
    <path d="M225.4,375.5c-.2,0-.4,0-.6,0l.5-.5c0,.2,0,.3,0,.6Z"/>
    <path d="M244.5,375.3c0,.3.1.4,0,.6,0,.1-.1.2-.2.4,0,0-.2-.2-.1-.3,0-.3.1-.5.3-.7Z"/>
    <path d="M226.9,427.7c.3,0,.5,0,.7.1,0,0,0,.2-.1.2-.3,0-.6,0-.8-.1,0,0,0,0,0-.1,0,0,0,0,.3-.1Z"/>
    <path d="M232.2,377.3c-.3-.1-.4-.3-.6-.5,0,0,.2-.1.3-.1.2.2.3.4.3.6Z"/>
    <path d="M244.2,380.7c-.1,0-.4.1-.6.1,0-.2.1-.4.2-.6.1.1.2.2.4.4Z"/>
    <path d="M230.4,430.6c-.3-.1-.4-.3-.6-.5,0,0,.2-.1.3-.1.2.2.3.4.3.6Z"/>
    <path d="M229.2,385.5c.2,0,.4,0,.6,0l-.5.5c0-.2,0-.3,0-.6Z"/>
    <path d="M140.2,431.3c0-.1-.1-.4-.1-.6.2,0,.4.1.6.2-.1.1-.2.2-.4.4Z"/>
    <path d="M231.7,384.5c0-.2,0-.4,0-.6l.5.5c-.2,0-.3,0-.6,0Z"/>
    <path d="M223.2,384c0,.3-.2.5-.3.6,0,0-.2,0-.3-.1.2-.2.3-.4.6-.5Z"/>
    <path d="M241.7,434.5c0-.1-.1-.4-.1-.6l.6.2c-.1.1-.2.2-.4.4Z"/>
    <path d="M224.7,383.9c.2,0,.5,0,.7.2-.2,0-.5,0-.7-.2Z"/>
    <path d="M146.5,431.5c.2,0,.4,0,.6,0,0,0,0,.2,0,.2-.2,0-.4,0-.6-.2Z"/>
    <path d="M243.6,432c0-.2,0-.4,0-.5,0,0,.2,0,.2,0,0,.2,0,.4-.2.5Z"/>
    <path d="M239.5,382.9c0,.2,0,.4,0,.5,0,0-.2,0-.2,0,0-.2,0-.4.2-.5Z"/>
    <path d="M151.9,432.5c.1-.1.2,0,.4,0-.1,0-.2.1-.4,0Z"/>
    <path d="M190.9,412.8c-.2,0-.4,0-.5,0,0,0,0-.2,0-.2.2,0,.4,0,.5.2Z"/>
    <path d="M245.8,432.2c.2,0,.4,0,.5,0,0,0,0,.2,0,.2-.2,0-.4,0-.5-.2Z"/>
    <path d="M143.7,431.5c.1.1.2.3.2.5,0,0-.1,0-.2,0,0-.2,0-.3,0-.5Z"/>
    <path d="M222.5,382.5c-.1.1-.2,0-.4,0,.1,0,.2-.1.4,0Z"/>
    <path d="M196.4,438.3c0,.2,0,.4,0,.5,0,0-.2,0-.2,0,0-.2,0-.4.2-.5Z"/>
    <path d="M245.7,430.6c.1-.1.2,0,.4,0-.1,0-.2.1-.4,0Z"/>
    <path d="M232.8,381.1c.2,0,.4,0,.5,0,0,0,0,.2,0,.2-.2,0-.4,0-.5-.2Z"/>
    <path d="M246.9,412.8c0-.2,0-.4,0-.5,0,0,.2,0,.2,0,0,.2,0,.4-.2.5Z"/>
    <path d="M221.2,412.3c.2,0,.4,0,.5,0,0,0,0,.2,0,.2-.2,0-.4,0-.5-.2Z"/>
    <path d="M233.5,399.9c.1.1.2.3.2.5,0,0-.1,0-.2,0,0-.2,0-.3,0-.5Z"/>
    <path d="M241.3,438.9c-.1-.1-.2-.3-.2-.5,0,0,.1,0,.2,0,0,.2,0,.3,0,.5Z"/>
    <path d="M155.1,430.6c-.1-.1-.2-.3-.2-.5,0,0,.1,0,.2,0,0,.2,0,.3,0,.5Z"/>
    <path d="M220.7,380.7c-.1-.1,0-.2,0-.4,0,.1.1.2,0,.4Z"/>
    <path d="M162.1,429.2c0-.1.3-.2.5-.3,0,0,0,.2,0,.2-.2,0-.3,0-.6,0Z"/>
    <path d="M239.3,380.7c0-.2,0-.4,0-.6,0,0,.2,0,.2,0,0,.2,0,.4-.2.6Z"/>
    <path d="M227.2,401c0,.2,0,.4,0,.5,0,0-.2,0-.2,0,0-.2,0-.4.2-.5Z"/>
    <path d="M245.8,439.6c0-.2,0-.4,0-.5,0,0,.2,0,.2,0,0,.2,0,.4-.2.5Z"/>
    <path d="M245.6,412.4c-.1-.1-.2-.3-.2-.5,0,0,.1,0,.2,0,0,.2,0,.3,0,.5Z"/>
    <path d="M234,377.5c-.1.1-.3.2-.5.2,0,0,0-.1,0-.2.2,0,.3,0,.5,0Z"/>
    <path d="M226.3,378c0-.2,0-.4,0-.5,0,0,.2,0,.2,0,0,.2,0,.4-.2.5Z"/>
    <path d="M247.1,401c0,.2,0,.4,0,.5,0,0-.2,0-.2,0,0-.2,0-.4.2-.5Z"/>
    <path d="M217,400.1c-.2,0-.4,0-.5,0,0,0,0-.2,0-.2.2,0,.4,0,.5.2Z"/>
    <path d="M235.3,387.8c.1-.1.3-.2.5-.2,0,0,0,.1,0,.2-.2,0-.3,0-.5,0Z"/>
    <path d="M172.9,439.6c-.2,0-.4,0-.6,0,0,0,0-.2,0-.2.2,0,.4,0,.6.2Z"/>
    <path d="M164.2,439.7c.1.1,0,.2,0,.4,0-.1-.1-.2,0-.4Z"/>
    <path d="M219,400.1c0-.2,0-.4,0-.5,0,0,.2,0,.2,0,0,.2,0,.4-.2.5Z"/>
    <path d="M231.1,388.9c-.2,0-.4,0-.5,0,0,0,0-.2,0-.2.2,0,.4,0,.5.2Z"/>
    <path d="M237.5,388.7c.2,0,.4,0,.5,0,0,0,0,.2,0,.2-.2,0-.4,0-.5-.2Z"/>
    <path d="M234.2,373.1c.2,0,.4,0,.5,0,0,0,0,.2,0,.2-.2,0-.4,0-.5-.2Z"/>
    <path d="M227.3,389.1c.2,0,.4,0,.5,0,0,0,0,.2,0,.2-.2,0-.4,0-.5-.2Z"/>
    <path d="M225.4,401.6c-.2,0-.4,0-.5,0,0,0,0-.2,0-.2.2,0,.4,0,.5.2Z"/>
    <path d="M242.1,371.3c.1,0,.2.3.3.5,0,0-.2,0-.2,0,0-.2,0-.3,0-.6Z"/>
    <path d="M152,440.5c.1.1.2.3.2.5,0,0-.1,0-.2,0,0-.2,0-.3,0-.5Z"/>
    <path d="M232,369.8c.1-.1.2,0,.4,0-.1,0-.2.1-.4,0Z"/>
    <path d="M170.1,441.1c0-.2,0-.4,0-.5,0,0,.2,0,.2,0,0,.2,0,.4-.2.5Z"/>
    <path d="M242.2,412.6c.1.1.2.3.2.5,0,0-.1,0-.2,0,0-.2,0-.3,0-.5Z"/>
    <path d="M235.6,368.7c.1-.1.2,0,.4,0-.1,0-.2.1-.4,0Z"/>
    <path d="M168.5,412.1c-.2,0-.4,0-.5,0,0,0,0-.2,0-.2.2,0,.4,0,.5.2Z"/>
    <path d="M232.8,401.8c.1.1.2.3.2.5,0,0-.1,0-.2,0,0-.2,0-.3,0-.5Z"/>
    <path d="M247.1,410.4c0,.2,0,.4,0,.6,0,0-.2,0-.2,0,0-.2,0-.4.2-.6Z"/>
    <path d="M235.9,389.8c.1,0,.2.3.3.5,0,0-.2,0-.2,0,0-.2,0-.3,0-.6Z"/>
    <path d="M206.6,390.4c-.1.1-.2,0-.4,0,.1,0,.2-.1.4,0Z"/>
    <path d="M219.6,391.4c-.1-.1-.2-.3-.2-.5,0,0,.1,0,.2,0,0,.2,0,.3,0,.5Z"/>
    <path d="M248.6,316.2c-.1.1-.2,0-.4,0,.1,0,.2-.1.4,0Z"/>
    <path d="M248.6,315.1c-.1.1-.2,0-.4,0,.1,0,.2-.1.4,0Z"/>
    <path d="M225,440.7c-.2,0-.4,0-.5,0,0,0,0-.2,0-.2.2,0,.4,0,.5.2Z"/>
    <path d="M211,425.3c.2,0,.4,0,.5,0,0,0,0,.2,0,.2-.2,0-.4,0-.5-.2Z"/>
    <path d="M158.1,440.8c.1.1,0,.2,0,.4,0-.1-.1-.2,0-.4Z"/>
    <path d="M238,392.6c0,.1-.3.2-.5.3,0,0,0-.2,0-.2.2,0,.3,0,.6,0Z"/>
    <path d="M167.4,440.9c-.1.1-.3.2-.5.2,0,0,0-.1,0-.2.2,0,.3,0,.5,0Z"/>
    <path d="M208.1,399.1c-.1.1-.2,0-.4,0,.1,0,.2-.1.4,0Z"/>
    <path d="M238.6,402.8c.1.1.2.3.2.5,0,0-.1,0-.2,0,0-.2,0-.3,0-.5Z"/>
    <path d="M224.8,421.5c.1-.1.3-.2.5-.2,0,0,0,.1,0,.2-.2,0-.3,0-.5,0Z"/>
    <path d="M171.8,441.1c-.1-.1,0-.2,0-.4,0,.1.1.2,0,.4Z"/>
    <path d="M199.4,413.3c-.1.1-.2,0-.4,0,.1,0,.2-.1.4,0Z"/>
    <path d="M222.5,404.3c0,.2,0,.4,0,.5,0,0-.2,0-.2,0,0-.2,0-.4.2-.5Z"/>
    <path d="M225.2,413.6c0-.2,0-.4,0-.6,0,0,.2,0,.2,0,0,.2,0,.4-.2.6Z"/>
    <path d="M189.9,395.1c0,.1-.3.2-.5.3,0,0,0-.2,0-.2.2,0,.3,0,.6,0Z"/>
    <path d="M156,418c0-.1.3-.2.5-.3,0,0,0,.2,0,.2-.2,0-.3,0-.6,0Z"/>
    <path d="M181.2,441.1c-.2,0-.4,0-.5,0,0,0,0-.2,0-.2.2,0,.4,0,.5.2Z"/>
    <path d="M247.1,404.3c0,.2,0,.4,0,.5,0,0-.2,0-.2,0,0-.2,0-.4.2-.5Z"/>
    <path d="M238,395.8c-.2,0-.4,0-.5,0,0,0,0-.2,0-.2.2,0,.4,0,.5.2Z"/>
    <path d="M238.9,395.8c.1-.1.3-.2.5-.2,0,0,0,.1,0,.2-.2,0-.3,0-.5,0Z"/>
    <path d="M231,413c.2,0,.4,0,.5,0,0,0,0,.2,0,.2-.2,0-.4,0-.5-.2Z"/>
    <path d="M192.9,441.1c.1-.1.3-.2.5-.2,0,0,0,.1,0,.2-.2,0-.3,0-.5,0Z"/>
    <path d="M235.3,416.8c0-.2,0-.4,0-.5,0,0,.2,0,.2,0,0,.2,0,.4-.2.5Z"/>
    <path d="M247.3,396c.1.1.2.3.2.5,0,0-.1,0-.2,0,0-.2,0-.3,0-.5Z"/>
    <path d="M229.9,405.9c.1-.1.3-.2.5-.2,0,0,0,.1,0,.2-.2,0-.3,0-.5,0Z"/>
    <path d="M228.1,406.3c.1-.1.3-.2.5-.2,0,0,0,.1,0,.2-.2,0-.3,0-.5,0Z"/>
    <path d="M221.9,397.8c.2,0,.4,0,.5,0,0,0,0,.2,0,.2-.2,0-.4,0-.5-.2Z"/>
    <path d="M211.6,414.7c0,.1-.3.2-.5.4,0-.1.3-.2.5-.4Z"/>
    <path d="M175.5,283.1c0-.1.1-.1.2-.1,0,0,0,.1-.2.1Z"/>
    <path d="M151.5,284.2c-.1,0-.1-.1-.1-.2,0,0,.1,0,.1.2Z"/>
    <path d="M241.1,364.4c0-.1,0-.2.1-.3,0,.1,0,.2-.1.3Z"/>
    <path d="M244.9,364.3c-.1,0-.1-.1-.1-.2,0,0,.1,0,.1.2Z"/>
    <path d="M240.9,364.4c0,.1,0,.2-.1.3,0-.1,0-.2.1-.3Z"/>
    <path d="M228.4,370.6c.1,0,.1.1.1.2,0,0-.1,0-.1-.2Z"/>
    <path d="M242.1,371.1c-.1,0-.2,0-.3-.1.1,0,.2,0,.3.1Z"/>
    <path d="M227.5,371.9c-.1,0-.1-.1-.1-.2,0,0,.1,0,.1.2Z"/>
    <path d="M240.9,371.9c-.1,0-.1-.1-.1-.2,0,0,.1,0,.1.2Z"/>
    <path d="M240,372.1c.1,0,.1.1.1.2,0,0-.1,0-.1-.2Z"/>
    <path d="M245.1,372.3c0-.1,0-.2.1-.3,0,.1,0,.2-.1.3Z"/>
    <path d="M244.9,372.3c0,.1,0,.2-.1.3,0-.1,0-.2.1-.3Z"/>
    <path d="M238.9,373.7c0-.1.1-.1.2-.1,0,0,0,.1-.2.1Z"/>
    <path d="M234.2,375.7c.1,0,.1.1.1.2,0,0-.1,0-.1-.2Z"/>
    <path d="M228.4,376.2c0-.1.1-.1.2-.1,0,0,0,.1-.2.1Z"/>
    <path d="M245.3,376.4c0,.1-.1.1-.2.1,0,0,0-.1.2-.1Z"/>
    <path d="M230.1,378.4c-.1,0-.1-.1-.1-.2,0,0,.1,0,.1.2Z"/>
    <path d="M225.7,378.8c-.1,0-.1-.1-.1-.2,0,0,.1,0,.1.2Z"/>
    <path d="M231.3,378.6c.1,0,.1.1.1.2,0,0-.1,0-.1-.2Z"/>
    <path d="M239.8,378.8c-.1,0-.1-.1-.1-.2,0,0,.1,0,.1.2Z"/>
    <path d="M235.1,379.1c-.1,0-.1-.1-.1-.2,0,0,.1,0,.1.2Z"/>
    <path d="M224.1,380.4c.1,0,.1.1.1.2,0,0-.1,0-.1-.2Z"/>
    <path d="M230.4,381.3c-.1,0-.1-.1-.1-.2,0,0,.1,0,.1.2Z"/>
    <path d="M215.8,381.5c.1,0,.1.1.1.2,0,0-.1,0-.1-.2Z"/>
    <path d="M217.7,382.4c-.1,0-.1-.1-.1-.2,0,0,.1,0,.1.2Z"/>
    <path d="M242.1,382.7c-.1,0-.2,0-.3-.1.1,0,.2,0,.3.1Z"/>
    <path d="M210.7,382.9c.1,0,.1.1.1.2,0,0-.1,0-.1-.2Z"/>
    <path d="M245.8,382.9c.1,0,.1.1.1.2,0,0-.1,0-.1-.2Z"/>
    <path d="M233.7,383.8c-.1,0-.1-.1-.1-.2,0,0,.1,0,.1.2Z"/>
    <path d="M245.6,385.3c-.1,0-.1-.1-.1-.2,0,0,.1,0,.1.2Z"/>
    <path d="M224.6,386c-.1,0-.1-.1-.1-.2,0,0,.1,0,.1.2Z"/>
    <path d="M225.9,386.2c.1,0,.1.1.1.2,0,0-.1,0-.1-.2Z"/>
    <path d="M232.1,387.6c.1,0,.1.1.1.2,0,0-.1,0-.1-.2Z"/>
    <path d="M243.8,388.5c-.1,0-.1-.1-.1-.2,0,0,.1,0,.1.2Z"/>
    <path d="M198.7,389.3c0-.1,0-.2.2-.4,0,.1,0,.2-.2.4Z"/>
    <path d="M224.1,389.6c0-.1.1-.1.2-.1,0,0,0,.1-.2.1Z"/>
    <path d="M200.9,389.8c.1,0,.1.1.1.2,0,0-.1,0-.1-.2Z"/>
    <path d="M216.7,391.4c-.1,0-.2,0-.3-.1.1,0,.2,0,.3.1Z"/>
    <path d="M205.6,391.8c0-.1.1-.1.2-.1,0,0,0,.1-.2.1Z"/>
    <path d="M216.7,391.6c.1,0,.2,0,.3.1-.1,0-.2,0-.3-.1Z"/>
    <path d="M236.2,392.2c-.1,0-.1-.1-.1-.2,0,0,.1,0,.1.2Z"/>
    <path d="M238.2,392.6c0-.1,0-.2.1-.3,0,.1,0,.2-.1.3Z"/>
    <path d="M222.1,394.9c0,.1-.1.1-.2.1,0,0,0-.1.2-.1Z"/>
    <path d="M205.6,395.6c.1,0,.1.1.1.2,0,0-.1,0-.1-.2Z"/>
    <path d="M236.4,396.2c0-.1,0-.2.1-.3,0,.1,0,.2-.1.3Z"/>
    <path d="M236.2,396.2c0,.1,0,.2-.1.3,0-.1,0-.2.1-.3Z"/>
    <path d="M210,397.6c0-.1.1-.1.2-.1,0,0,0,.1-.2.1Z"/>
    <path d="M213.2,398.5c.1,0,.1.1.1.2,0,0-.1,0-.1-.2Z"/>
    <path d="M243.8,399.8c-.1,0-.1-.1-.1-.2,0,0,.1,0,.1.2Z"/>
    <path d="M244.2,400.8c-.1,0-.1-.1-.1-.2,0,0,.1,0,.1.2Z"/>
    <path d="M245.5,401.7c0-.1,0-.2.1-.3,0,.1,0,.2-.1.3Z"/>
    <path d="M235.5,402.3c-.1,0-.1-.1-.1-.2,0,0,.1,0,.1.2Z"/>
    <path d="M213.2,402.5c.1,0,.1.1.1.2,0,0-.1,0-.1-.2Z"/>
    <path d="M225.4,402.7c-.1,0-.2,0-.3-.1.1,0,.2,0,.3.1Z"/>
    <path d="M243.6,402.5c.1,0,.2,0,.3.1-.1,0-.2,0-.3-.1Z"/>
    <path d="M225.4,402.8c.1,0,.2,0,.3.1-.1,0-.2,0-.3-.1Z"/>
    <path d="M232.7,403c-.1,0-.2,0-.3-.1.1,0,.2,0,.3.1Z"/>
    <path d="M247.1,403.4c-.1,0-.1-.1-.1-.2,0,0,.1,0,.1.2Z"/>
    <path d="M237.1,405c.1,0,.1.1.1.2,0,0-.1,0-.1-.2Z"/>
    <path d="M217.6,405.7c.1,0,.1.1.1.2,0,0-.1,0-.1-.2Z"/>
    <path d="M174.3,406.3c-.1,0-.1-.1-.1-.2,0,0,.1,0,.1.2Z"/>
    <path d="M247.1,406.1c0,.1-.1.1-.2.1,0,0,0-.1.2-.1Z"/>
    <path d="M235.2,406.6c-.1,0-.2,0-.3-.1.1,0,.2,0,.3.1Z"/>
    <path d="M243.3,406.6c0-.1.1-.1.2-.1,0,0,0,.1-.2.1Z"/>
    <path d="M238.4,407.7c-.1,0-.1-.1-.1-.2,0,0,.1,0,.1.2Z"/>
    <path d="M188.2,408.3c.1,0,.1.1.1.2,0,0-.1,0-.1-.2Z"/>
    <path d="M243.5,408.5c-.1,0-.1-.1-.1-.2,0,0,.1,0,.1.2Z"/>
    <path d="M240.7,408.8c0-.1.1-.1.2-.1,0,0,0,.1-.2.1Z"/>
    <path d="M220.5,409.4c.1,0,.1.1.1.2,0,0-.1,0-.1-.2Z"/>
    <path d="M226.3,412.3c.1,0,.1.1.1.2,0,0-.1,0-.1-.2Z"/>
    <path d="M220.6,412.6c0,.1-.1.1-.2.1,0,0,0-.1.2-.1Z"/>
    <path d="M245.5,413.2c0-.1.1-.1.2-.1,0,0,0,.1-.2.1Z"/>
    <path d="M244,413.3c.1,0,.1.1.1.2,0,0-.1,0-.1-.2Z"/>
    <path d="M165.9,413.7c0,.1-.1.1-.2.1,0,0,0-.1.2-.1Z"/>
    <path d="M225,413.6c0,.1,0,.2-.1.3,0-.1,0-.2.1-.3Z"/>
    <path d="M246.9,413.9c0-.1.1-.1.2-.1,0,0,0,.1-.2.1Z"/>
    <path d="M240.9,414.3c-.1,0-.1-.1-.1-.2,0,0,.1,0,.1.2Z"/>
    <path d="M211.8,414.7c0-.1,0-.2.1-.3,0,.1,0,.2-.1.3Z"/>
    <path d="M242.7,417.5c-.1,0-.1-.1-.1-.2,0,0,.1,0,.1.2Z"/>
    <path d="M191.1,418.2c0-.1.1-.1.2-.1,0,0,0,.1-.2.1Z"/>
    <path d="M191,420.8c-.1,0-.2,0-.3-.1.1,0,.2,0,.3.1Z"/>
    <path d="M228.8,421c.1,0,.1.1.1.2,0,0-.1,0-.1-.2Z"/>
    <path d="M221.5,421.3c.1,0,.1.1.1.2,0,0-.1,0-.1-.2Z"/>
    <path d="M246.5,423.1c.1,0,.1.1.1.2,0,0-.1,0-.1-.2Z"/>
    <path d="M236.9,424c-.1,0-.1-.1-.1-.2,0,0,.1,0,.1.2Z"/>
    <path d="M246.7,424.8c-.1,0-.1-.1-.1-.2,0,0,.1,0,.1.2Z"/>
    <path d="M141.9,427.4c0-.1,0-.2.1-.3,0,.1,0,.2-.1.3Z"/>
    <path d="M233.7,427.7c-.1,0-.1-.1-.1-.2,0,0,.1,0,.1.2Z"/>
    <path d="M236.9,429.1c-.1,0-.1-.1-.1-.2,0,0,.1,0,.1.2Z"/>
    <path d="M162,429.2c0,.1,0,.2-.1.3,0-.1,0-.2.1-.3Z"/>
    <path d="M231,429.8c0-.1.1-.1.2-.1,0,0,0,.1-.2.1Z"/>
    <path d="M199.3,430.2c-.1,0-.1-.1-.1-.2,0,0,.1,0,.1.2Z"/>
    <path d="M242.6,430.3c0-.1,0-.2.1-.3,0,.1,0,.2-.1.3Z"/>
    <path d="M242.4,430.3c0,.1,0,.2-.1.3,0-.1,0-.2.1-.3Z"/>
    <path d="M146.5,431.3c-.1,0-.2,0-.3-.1.1,0,.2,0,.3.1Z"/>
    <path d="M244.9,431.1c0,.1-.1.1-.2.1,0,0,0-.1.2-.1Z"/>
    <path d="M230.8,431.6c-.1,0-.1-.1-.1-.2,0,0,.1,0,.1.2Z"/>
    <path d="M178.3,432c-.1,0-.1-.1-.1-.2,0,0,.1,0,.1.2Z"/>
    <path d="M184.4,432.7c-.1,0-.1-.1-.1-.2,0,0,.1,0,.1.2Z"/>
    <path d="M230.8,433.1c-.1,0-.1-.1-.1-.2,0,0,.1,0,.1.2Z"/>
    <path d="M246,433.6c0,.1-.1.1-.2.1,0,0,0-.1.2-.1Z"/>
    <path d="M169.6,434.5c-.1,0-.1-.1-.1-.2,0,0,.1,0,.1.2Z"/>
    <path d="M239.5,434.9c-.1,0-.1-.1-.1-.2,0,0,.1,0,.1.2Z"/>
    <path d="M212.7,436c-.1,0-.1-.1-.1-.2,0,0,.1,0,.1.2Z"/>
    <path d="M210.7,437.1c0-.1.1-.1.2-.1,0,0,0,.1-.2.1Z"/>
    <path d="M228.1,436.9c.1,0,.1.1.1.2,0,0-.1,0-.1-.2Z"/>
    <path d="M187,438.2c-.1,0-.1-.1-.1-.2,0,0,.1,0,.1.2Z"/>
    <path d="M183.7,439.2c-.1,0-.1-.1-.1-.2,0,0,.1,0,.1.2Z"/>
    <path d="M172.9,439.8c.1,0,.2,0,.3.1-.1,0-.2,0-.3-.1Z"/>
    <path d="M245.5,440.3c0-.1.1-.1.2-.1,0,0,0,.1-.2.1Z"/>
    <path d="M144,440.5c.1,0,.1.1.1.2,0,0-.1,0-.1-.2Z"/>
    <path d="M195.8,440.5c.1,0,.1.1.1.2,0,0-.1,0-.1-.2Z"/>
    <path d="M174.8,440.9c.1,0,.1.1.1.2,0,0-.1,0-.1-.2Z"/>
    <path d="M178.8,440.9c.1,0,.1.1.1.2,0,0-.1,0-.1-.2Z"/>
    <path d="M188.2,440.9c.1,0,.1.1.1.2,0,0-.1,0-.1-.2Z"/>
  </g>
</svg>