<?xml version="1.0" encoding="UTF-8"?>
<svg id="Layer_1" xmlns="http://www.w3.org/2000/svg" version="1.1" viewBox="0 0 463 293">
  <!-- Generator: Adobe Illustrator 29.3.1, SVG Export Plug-In . SVG Version: 2.1.0 Build 151)  -->
  <g id="Shape_7">
    <path d="M393.6,59.7c-3.5,4.5-6.9,8.9-10.3,13.3-1.8,2.3-3.8,4.4-5.8,6.6-4.5,4.8-9,9.7-13.7,14.4-3.6,3.5-7.5,6.7-11.3,10.1-.4.3-.6.9-1,1.2-.5.4-1.1.7-1.7,1-.2-.7-.8-1.5-.6-2,1.8-5.5,3.4-11.2,5.7-16.5,5.5-13.1,12.2-25.6,19.9-37.6,3.1-4.8,6.8-9.2,10.1-13.9,2.8-3.9,6.2-7.1,10.4-9.4,1.5-.9,3.1-1.6,4.7-2,3.4-.8,5.8,2.2,6.3,5.4.6,3.5-.1,7-1.7,10.1-2.7,5.2-5.7,10.3-8.6,15.4-.8,1.3-1.6,2.6-2.5,4.1Z"/>
    <path d="M402.6,90c3.3-1.4,6.4-2.6,9.5-3.8,5.2-2,10.4-2.8,15.7-.7,3.1,1.2,5.4,2.9,5,6.6-.3,2.5-2,4.1-4,4.9-6.5,2.8-13.1,5.5-19.8,8-3.7,1.4-7.5,2.5-11.4,3.6-3.7,1-7.4,1.9-11.1,2.6-4,.8-8,1.5-12,2.2-.5,0-1.1,0-1.7,0,.3-.5.4-1.2.8-1.6,1.7-1.7,3.3-3.4,5.1-4.9,4.3-3.5,8.6-7.1,13.1-10.4,3.3-2.4,7-4.3,10.7-6.6Z"/>
    <path d="M10.8,275.9c4.6,3.6,9.3,7.1,15.1,8.5,3.3.8,6.7,1.3,10.1,1.4,6.7.2,13.4,0,20.1,0,6.3,0,12.7.3,19,.4,5,0,10,0,15,0,4.3,0,8.7.4,13,.5,1.5,0,3,0,4.5-.1,7.2,0,14.5,0,21.7-.1,4.9,0,9.8,0,14.7,0,4.6.1,9.2.4,13.9.5,1.7,0,3.5-.1,5.2-.1,7.8,0,15.6-.1,23.4-.2,5.7,0,11.4,0,17.1,0,4.5,0,8.9,0,13.4.1,4.4,0,8.9,0,13.3.1,3.5,0,7,.2,10.5.2,5.9,0,11.8,0,17.8,0,4.1,0,8.1.1,12.2.1,6,0,12,0,18,0,5.1,0,10.1,0,15.2,0,4.3,0,8.6,0,12.9.1,4.5,0,9,0,13.6.1,5,0,10,0,15,0,4.1,0,8.1.1,12.2.1,5.5,0,11.1,0,16.6,0,4,0,8,0,11.9.1,4.4,0,8.9,0,13.3.1,5.9,0,11.9.2,17.8,0,8.2-.3,15.3-3.5,21.4-9.1,4.5-4,7.8-8.6,9.8-14.2,0-.2,0-.5.2-.6.3-.4.7-.8,1.1-1.1,0,.5.3,1.1.2,1.5-1.2,5.6-3.6,10.2-7.8,14.3-4.8,4.7-10.7,7-16.5,9.5-1.2.5-2.5.9-3.8,1-4.9.4-9.8.8-14.7.8-3.1,0-6.1-.5-9.2-.6-2.2,0-4.4.5-6.6.6-1,0-2.1-.3-3.1-.3-4.7,0-9.4,0-14.1-.1-2.7,0-5.3-.2-8-.2-4.1,0-8.2-.1-12.2.4-4.9.6-9.6-.8-14.4-.7-9.8.3-19.5.3-29.3.4-4.5,0-9,0-13.6,0-6.1,0-12.2,0-18.3,0-2.5,0-5-.5-7.6-.7-1.6,0-3.2,0-4.7.1-4.5.1-9.1.3-13.6.3-2.3,0-4.5-.2-6.8-.2-2.7,0-5.3.2-8,.2-9.5,0-19,0-28.5-.2-3.6,0-7.2-.2-10.8-.2-4.6,0-9.2.3-13.8.3-5.7,0-11.4-.3-17.1-.4-2.1,0-4.3.2-6.4.1-5.2-.1-10.5-.4-15.7-.5-4.2,0-8.4.2-12.7.3-1.6,0-3.1-.2-4.7-.3-1.6-.1-3.1-.3-4.7-.3-6.5,0-12.9,0-19.4,0-6.1,0-12.1,0-18.2,0-4.4,0-8.8-.4-13.2-.5-2.2,0-4.5.1-6.7.1-5.7,0-11.4,0-17.1,0-3.6,0-7.2-.2-10.8-.1-8.5.2-16.2-2.2-23.1-7.1-1.6-1.1-2.7-3-4-4.7Z"/>
    <path d="M332,41.3c.4-4.8,5.8-10.1,10.6-9,2.9.6,3.7,3.3,4.3,5.6,1.9,6.9,1.7,13.8,0,20.7-1.7,7.5-4.3,14.6-7.8,21.4-1.2,2.3-2.6,4.5-4,6.7-.1.2-.8.4-1,.3-.4-.4-.8-.9-.9-1.4-.6-3.2-1.3-6.4-1.6-9.6-.6-5.4-1.4-10.7-1.3-16.1,0-6.2,1-12.3,1.6-18.6Z"/>
    <path d="M361.5,285.5c-7.2,0-14.1.1-21,0-9.5,0-19,0-28.5-.2-8.5,0-17-.2-25.5-.2-6.2,0-12.4,0-18.5,0-10.1,0-20.1,0-30.2-.1-9,0-17.9-.1-26.9-.2-5.1,0-10.3,0-15.4,0-9.4,0-18.7-.1-28.1-.2-4.1,0-8.1-.1-12.2-.1-5.1,0-10.3,0-15.4,0-4.5,0-9,0-13.6-.1-4.8,0-9.5,0-14.3,0-9,0-17.9-.1-26.9-.2-3.7,0-7.5-.1-11.2-.2-4.6,0-9.2,0-13.8-.1-7.3,0-14.5-.2-21.8-.4-6.9-.2-13.8-1-19.7-5.1-5.9-4-10.5-9.1-12.6-16.1-.5-1.9-1.1-3.8-1.5-5.7,0-.3.4-.7.6-1.1,0,.3.2.7.3,1,.9,4.5,3.1,8.5,5.3,12.5,2.5,4.4,6.3,7.3,10.6,9.5,3.4,1.7,6.9,3.4,10.9,3.4,7.2,0,14.4.3,21.5.3,6.2,0,12.3,0,18.5,0,3.9,0,7.8.5,11.8.6,4.7,0,9.4-.3,14.1-.3,8.8,0,17.6.1,26.4.2,3.5,0,7,.1,10.5.2,5.5,0,10.9,0,16.4,0,5,0,9.9,0,14.9,0,4.8,0,9.6,0,14.3,0,6.8,0,13.5,0,20.3,0,7.9,0,15.8.2,23.7.3,5.2,0,10.3,0,15.5,0,3.9,0,7.9.1,11.8.1,4.9,0,9.9,0,14.8,0,3.4,0,6.8.5,10.2.6,1.6,0,3.3-.5,4.9-.5,6.6,0,13.1-.1,19.7,0,4.9,0,9.9.4,14.8.5,3.6,0,7.2-.2,10.8-.2,5.1,0,10.1,0,15.2,0,3.7,0,7.5,0,11.2.2,4.9.1,9.9.4,14.8.5,2.1,0,4.3-.5,6.4-.6,2.1,0,4.2.2,6.3.3,4.4,0,8.8.1,13.2.1,5.6,0,11.2,0,16.8,0,5,0,10.1,0,14.8-1.8,1.5-.6,2.9-1.6,4.4-2.4.4-.2,1,0,1.4,0-.2.5-.2,1.2-.6,1.4-3.8,2-7.6,4-12.1,4-7.7,0-15.5.5-23.2.6-9.3,0-18.6,0-27.8-.2-2,0-4.1-.2-6.3-.3Z"/>
    <path d="M411.3,143.3c-4.1-.8-8.2-1.2-11.9-2.6-5-1.8-9.7-4.3-14.5-6.6-.7-.4-1.2-1.3-1.8-1.9.7-.4,1.4-1,2.2-1.3,5.5-2.4,11.3-3.1,17.1-2.7,8.7.5,16.7,3.1,23,9.6.6.6,1.1,1.2,1.5,1.9.6,1,1.1,2.2,1.7,3.3-1.2.3-2.4.8-3.6.8-3.9,0-7.9,0-11.8-.1-.6,0-1.1-.3-1.9-.4Z"/>
    <path d="M201.2,50.5c1.4-.5,2.7-.8,3.8-1.4,1.7-.9,3.3-2,5.1-3,.4-.2,1.1,0,1.6,0-.3.5-.4,1.1-.8,1.4-1.9,1.4-3.9,2.9-5.9,4.2-1.4.9-1,1.2.1,1.8,4.6,2.3,8.4,5.6,10.6,10.2,1.3,2.7,2,5.8,2.3,8.9.3,3,.2,6.2-.4,9.1-1.1,4.9-4.1,8.9-7.8,12.2-4.8,4.2-10.5,6.2-16.8,6.2-5.5,0-11.1-1.2-15.3-5-4.9-4.3-8.4-9.5-8.4-16.5,0-1.8-.2-3.6-.1-5.4.3-5.4,2.4-9.8,6.5-13.4,2.6-2.3,5.4-4.1,8-6.3,2.2-1.9,4.3-2.3,6.8-2.9,2.1-.5,3.9-2.5,5.8-3.8.3-.2.5-.6.8-.8.8-.6,1.6-1.2,2.5-1.7-1-.5-2-1.1-3.1-1.5-1.4-.6-3-1.7-4.3-1.4-1.3.3-2.2,2-3.2,3.2-1.2,1.4-2.3,2.8-3.5,4.2-.3.4-.8.6-1.2.9-.1-.6-.5-1.3-.3-1.6,2.1-3.2,3.8-6.8,7.3-8.7.8-.4,2.1-.3,3,0,1.4.4,2.7,1,4,1.7,1.1.6,2,.5,2.4-.5,1.1-2.2,3.1-2.2,4.8-1.5,2.3.9,4.5,2.3,6.7,3.6.4.2.4,1,.6,1.5-.5,0-1-.1-1.4-.3-1.9-.9-3.8-1.7-5.7-2.7-1.1-.6-1.8-.4-2.5.5-2.5,3-5,5.9-7.5,8.9-.1.2-.3.3-.4.5.3,0,.6.2.9.2,1.6-.2,3.3-.4,5.2-.6M173.8,87.8c2.2,3.8,5.3,6.8,9.4,8.3,4.7,1.8,9.6,3,14.7,1.5,2.3-.7,4.6-1.7,6.8-2.7,3.1-1.4,5.1-3.9,7.2-6.5,2.8-3.5,4.1-7.4,4.4-11.7.6-7.4-1.8-13.8-7.7-18.7-5.4-4.5-11.7-5.5-18.3-4.4-4.6.8-8.7,2.9-12.3,6.3-2.8,2.7-4.8,5.7-6.1,9-2.3,6.3-1.6,12.6,1.8,18.8Z"/>
    <path d="M124.9,73.5c0,5.5,0,10.8,0,16.1,0,2-.2,3.9-.3,5.9,0,.6-.3,1.1-.5,1.6,0,0-.8,0-.9-.2-.2-.5-.5-1.1-.4-1.7.2-2.2.6-4.3.7-6.5,0-2.5-.2-4.9-.1-7.4.1-4.9.4-9.8.5-14.6.1-4.1,0-8.2.2-12.3,0-.4.4-1.1.8-1.2,3.7-1.4,7.6-1.9,11.1,0,1.9,1.1,3.2,3.3,4.5,5.2,3.4,4.7,6.6,9.5,10,14.2.3.4,1,.6,1.5.9,0-.5.2-1,.2-1.5,0-2.6-.2-5.2-.2-7.8,0-2.9.5-5.9.6-8.8,0-2.1,1.3-3.1,3-3.3,2.3-.3,4.7-.4,7-.2,2.3.2,3,2.2,3.1,4.1.1,2-.2,4.1-.2,6.1,0,1.9.3,3.7.4,5.6,0,.9-.1,1.8-.2,2.8-.1,7.1-.2,14.1-.4,21.2,0,1.8-.2,3.7-.9,5.4-.4,1-1.7,2.2-2.7,2.3-2.2.3-4.8.5-6.7-.4-2-.9-3.6-2.8-5-4.6-3.3-4.1-6.3-8.3-9.4-12.5-1-1.3-1.8-2.8-2.7-4.2-.2-.3-.6-.4-.9-.6-.2.4-.5.8-.5,1.2,0,6.2,0,12.4,0,18.5,0,1.4-.9,2.7-2.8,2.6-1.9,0-3.9.2-5.8,0-.8,0-1.6-.6-2.4-1,.8-.3,1.5-.7,2.3-.8,1.5-.2,3.1-.1,4.7-.2,1.5,0,2.2-.6,2.2-2.2,0-4.5,0-9,0-13.6,0-3,.1-6.1.2-9.1,0-.4.3-.8.5-1.2.2.3.5.6.7.8,5.4,7.4,10.8,14.8,16.2,22.3,1.6,2.2,6.5,4.1,9,3,.8-.3,1.6-1.4,1.7-2.2.3-2.2.3-4.4.4-6.6,0-5.5,0-10.9,0-16.4,0-4.9.4-9.9.5-14.8,0-1.1.3-2.7-.2-3.2-.7-.7-2.2-.6-3.4-.6-1.3,0-2.7-.2-3.9.2-.9.3-2,1.3-2.2,2.1-.4,2.1-.4,4.2-.4,6.3,0,5.4,0,10.8,0,16.1,0,.4-.1.7-.2,1.1-.4-.2-.9-.3-1.1-.7-4.9-6.9-9.7-13.7-14.6-20.6-.6-.9-1.2-1.8-1.9-2.7-.9-1.2-2.1-2-3.8-1.6-.5.1-1.1,0-1.6,0-4.7.1-4.7.1-4.8,4.9-.1,4.7-.4,9.4-.5,14.3Z"/>
    <path d="M177.6,210.5c1.5,2,2.8,3.9,4.3,5.8.2.2.9.3,1,.2.2-.3.3-.8.3-1.2.1-5.4.1-10.8.4-16.1.1-2.8,2.8-2.4,4.5-2.8,1.3-.3,2.8,0,4.2-.2,2.5-.3,3.6,1.4,4,3.2.4,1.8-.1,3.8,0,5.7,0,1.1.4,2.2.4,3.2-.1,4.3-.4,8.7-.6,13,0,.5,0,1.1,0,1.6-.2,4.5-.4,8.9-.6,13.4,0,1.1.3,2.3,0,3.3-.3.7-1.3,1.5-2.2,1.7-1.7.3-3.4,0-5.1.3-3.2.6-5-1.4-6.7-3.5-3.2-4.1-6.1-8.4-9.2-12.6-.9-1.3-1.9-2.4-2.9-3.7-.3-.4-.6-.7-.9-1.1-.2.5-.5.9-.5,1.4,0,4.2-.2,8.4-.1,12.6,0,6.3-3,8.7-9.2,6.8-3.3-1-4.4-2.1-4.2-5.5.2-4.5.8-9,.9-13.5,0-2.4-.5-4.7-.6-7.1,0-3.6.2-7.1.3-10.7,0-1.1.2-2.2.2-3.4,0-3.9.6-4.7,4.4-5.2,4.7-.7,8.4,1.2,11.1,5.2,2.1,3.1,4.5,6,6.9,9.1M158.5,198.3c-.6,1.1-1.7,2.1-1.7,3.2-.3,6.6-.3,13.1-.5,19.7-.1,5.6-.3,11.1-.3,16.7,0,.9.2,2.4,2,2.2,1.5-.2,2.9-.1,4.4-.1,2.9,0,3.6-.9,3.6-3.9,0-3,.2-6.1.2-9.1,0-3.7-.2-7.4-.2-11.1,0-.2.1-.5.2-.8.4.1.9.2,1.1.4.5.8.8,1.7,1.4,2.4,5,6.7,10,13.3,15.1,19.9.6.8,1.4,1.6,2.3,1.8,1.3.4,2.7.4,4,.4,1.4,0,3.2.4,3.5-1.9.1-1.3.3-2.5.4-3.8.2-6,.3-12,.5-18,0-4.5,0-9,.1-13.6,0-.3,0-.6,0-.9.9-2.1.5-3.5-2-3.6-2.1,0-4.4-.3-6.2.5-1,.4-1.5,2.8-1.6,4.3-.2,5.1-.1,10.3-.1,15.4,0,1.2,0,2.3,0,3.5,0,.3-.2.7-.3,1-.3-.2-.7-.3-.9-.6-.6-1-1.1-2.1-1.8-3-4.8-6.6-9.7-13.1-14.5-19.7-.5-.6-1.3-1.3-2-1.4-2.2-.3-4.4-.3-6.8-.1Z"/>
    <path d="M104.7,88.5c-2.6,0-5,.1-7.5.2-1.8,0-2.9-.5-2.9-2.7,0-5.2-.1-5.1,5.2-5.3s8.5-.3,12.8-.3c1.5,0,2-.5,1.9-2,0-1.7.2-3.5.3-5.2,0-1.3-.4-1.7-1.7-1.7-5.1,0-10.3,0-15.4,0-1.7,0-2.6-.6-2.5-2.4,0-1.1,0-2.2-.1-3.3-.3-1.9.8-2.3,2.3-2.3,5.9-.1,11.8-.4,17.7-.4,2.2,0,2.7-1.1,2.7-2.9,0-1.6.2-3.2.1-4.8,0-.4-.6-.9-1-1.2-.3-.2-.8,0-1.1,0-8.9,0-17.7.1-26.6.3-3.4,0-4,.7-4,4.1,0,.2,0,.3,0,.5,0,6,0,12,0,18,0,4.1,0,8.1-.1,12.2,0,2.4-.2,4.9-.3,7.3,0,.3-.3.7-.5,1-.3-.4-.8-.8-.9-1.2-.2-3.8-.4-7.6-.3-11.3,0-2.9.5-5.9.6-8.8,0-1.7-.1-3.5-.1-5.2,0-4.8,0-9.5,0-14.3,0-2.6,1.3-4,3.9-4.1,7-.2,14-.4,21.1-.5,2.5,0,5.1.2,7.6.2,1.9,0,2.5,1.4,2.8,2.8.4,1.9.6,3.9.7,5.8.2,3-2.1,4.6-5.2,4.2-2.2-.3-4.5,0-6.8,0-3.1,0-6.2,0-9.2.1-.6,0-1.6.7-1.7,1.2-.2,1,0,2.1.2,3.1,0,.1,1.1.1,1.7.1,2.3,0,4.6-.3,6.9-.3,2.3,0,4.6.2,6.9.3,2.2,0,3.8,1.4,3.9,3.6,0,2.3,0,4.6-.3,6.8-.1.8-1.2,1.9-2,2-1.7.2-3.4-.2-5.2-.2-1.3,0-2.5.4-3.8.5-2.1.1-4.3.4-6.4.1-2-.3-2.1.6-2.1,2,0,1.7-.3,2.9,2.4,2.4,3.2-.6,6.6,0,9.9,0,1.9,0,3.8,0,5.6,0,3,0,4.4,1.3,4.6,4.3,0,1.5,0,3,.1,4.4,0,2.2-1.3,3.7-3.5,3.8-3.1,0-6.1-.2-9.2-.2-5.6,0-11.2.4-16.9.4-1.3,0-2.6-.7-3.9-1,1.2-.3,2.4-.7,3.7-.7,4-.2,8.1-.3,12.1-.3,4.4,0,8.9,0,13.3.1,1.9,0,2.6-.8,2.5-2.6,0-1.6.3-3.2.2-4.7,0-.6-1-1.5-1.6-1.5-3.6-.2-7.2-.2-11-.2Z"/>
    <path d="M102.5,198.2c-2.1,0-4-.2-5.9-.3-2.1-.2-3.4,1.1-3.4,3.2,0,4.8,0,9.5,0,14.3,0,3.8,0,7.6-.7,11.3-.6,4.1-3.7,5.5-7.6,3.7-1.1-.5-2.3-1.2-3.1-2.1-1.1-1.1-1.8-.8-2.7,0-1.3,1.4-2.8,2.7-3.9,4.3-.4.6-.4,2.2,0,2.6,2.7,2.5,5.8,4,9.5,4.6,3.3.5,6.3,0,9.5-.8,3.8-1,6-3.8,7.1-7.2,1.1-3.3,1.5-6.9,1.6-10.4.2-6.2,0-12.5,0-18.7,0-1,.2-1.9.4-2.8,0-.3.4-.6.7-.8.2.3.7.6.7.8.1,2.5.3,5,.2,7.5,0,5.7-.4,11.3-.4,17,0,4.9-1.1,9.5-4.5,13-1.8,1.9-4.7,3.3-7.3,3.8-3.1.6-6.4.3-9.6-.1-3.1-.4-6-1.5-8.1-4.1-.3-.4-.9-.5-1.3-.7,0,.4,0,.9-.2,1.3,0,.5-.2,1-.3,1.4-.4-.4-1-.8-1.3-1.3-2-4.4-3.9-8.8-5.8-13.2-2.8-6.7-5.6-13.4-8.3-20.1-.7-1.7-1.4-3.5-2.2-5.2-.2-.5-.5-1.2-.8-1.2-2.5-.2-5.1-.5-7.5,0-1.1.2-2.2,2-2.7,3.3-2.7,6.1-5.3,12.3-8,18.4-2.3,5.5-4.7,11-7,16.5-.2.5-.4,1-.6,1.4-.2.3-.6.4-.9.5,0-.3-.3-.6-.2-.8.2-1.2.3-2.5.8-3.6,1.9-4.4,4.1-8.7,6-13.2,2.8-6.4,5.3-12.9,8-19.3,2.1-4.8,6.6-6.9,11.5-5.3,2.3.8,3.4,3.2,4.4,5.4,2.8,6.8,5.6,13.7,8.5,20.5,1.5,3.5,3,7,4.5,10.5.2.5.7.8,1,1.2.3-.4.5-.8.8-1.2,2-2.1,3.9-4.4,6.1-6.2.5-.4,2.6.5,3.4,1.3,1.8,2,4.1,1.8,6.2,1.4,2-.4,1.6-2.6,1.8-4.1.4-4,1-8,1-12,0-3.5-.5-7.1-.7-10.6-.2-4.1,1.3-5.6,5.2-5.5,1.8,0,3.6-.2,5.4-.1,1.4,0,1.8.7.4,1.8Z"/>
    <path d="M247.6,127.6c.7.3,1.2.6,1.7.9,2.1,1.4,2.8,3.7,1.6,5.8-1,1.7-2.3,3.2-3.5,4.7-1.3,1.5-3.7,1.5-5.5.7-2.5-1.1-5-2.2-7.7-2.8-.9-.2-2.2,1.2-3.3,1.8.3.3.5.8.8.9,2.7.9,5.5,1.7,8.2,2.6,4.6,1.6,9,3.6,11.5,8,1.7,3,2.1,10.2-.9,13.8-1.1,1.3-2.1,2.8-3.3,4.1-2.2,2.4-5.5,2.8-8.4,3.4-7.6,1.4-14.7-.5-21.1-4.8-2.8-1.9-3-5.2-.6-7.6,1.2-1.2,2.4-2.3,3.8-3.2,1.4-.9,2.8-.9,4.4.2,3,2,6.2,3.8,10.1,3.1.9-.2,1.9-.3,2.8-.6.2,0,.5-.6.5-.8-.2-.5-.5-1.3-1-1.5-2.4-1-4.8-1.9-7.3-2.6-3.7-1.1-7.6-2.1-10.3-4.9-1.8-1.9-2.7-4.2-3-7-.4-3.7.5-6.8,2.2-9.9,2.3-4.2,6.3-5.8,10.5-7,4-1.1,8.2-.9,12.2.2,1.9.5,3.6,1.7,5.7,2.6M231.7,170c2,0,4.1.1,6.1-.2,3-.5,6-1,8.4-3.4,2.6-2.7,4.4-5.8,4.5-9.6.2-3.8-.9-7-4.3-9.4-3.7-2.5-7.9-3.4-12.1-4.6-1.7-.5-3.3-1.6-4.7-2.7-.5-.5-.7-2.4-.3-2.8,1.7-1.4,3.5-2.9,6.1-2,2.4.9,4.9,1.7,7.3,2.7,1.8.8,3,.4,4.1-1.1.8-1.2,1.5-2.6,2.6-3.6,1.1-1.1.6-1.6-.3-2.3-4.4-3.9-9.7-4.9-15.2-4.8-3.4,0-6.7,1.1-9.6,3.2-3.1,2.2-6.4,8.6-5.6,12.4.8,3.8,2.8,6.9,6.5,8.3,4,1.5,8.2,2.6,12.3,3.9,2.3.7,3.3,2.1,3,4.3-.3,2.4-2,2.5-3.9,2.7-4.7.5-8.8-.6-12.5-3.6-1.2-1-2.2-.9-3.2.4-.9,1.3-1.9,2.6-3.1,3.7-1.7,1.4-1.2,2.5.3,3.4,2.2,1.3,4.4,2.5,6.8,3.4,2,.8,4.2,1.2,6.7,1.7Z"/>
    <path d="M314.5,80.1c0,1.9.1,3.5.1,5.1,0,.5-.2.9-.3,1.4-.5-.2-1.2-.3-1.5-.7-1.7-2.1-3.4-4.1-4.8-6.3-4.4-6.8-7.9-14.1-9.7-22-.5-2.3-.5-5.1.1-7.4,1.1-3.6,4.9-3.8,7.4-.9,4.6,5.2,6,11.5,6.9,18.1.5,4.1,1.1,8.3,1.7,12.6Z"/>
    <path d="M293.1,169.8c1.4,0,2.6-.1,3.8,0,.9,0,1.6,0,1.3-1.2-.8-2.5-1.6-4.9-2.5-7.4-2.5-6.5-5-13-7.5-19.5-1.7-4.4-3.4-8.9-5-13.3-.2-.4-.4-.8-.7-1.1-1.5-1.8-9-1.1-10,1-2.2,4.5-4.2,9.2-6.3,13.7-1.7,3.6-3.5,7.1-5.2,10.7-2.1,4.5-4.1,9-6.2,13.6,0,0,0,.2,0,.2-.7.9-1.4,1.7-2,2.6,0-1.3-.4-2.7,0-3.7,1.3-2.9,3-5.6,4.3-8.5,1.8-3.9,3.3-7.9,5.1-11.7,1.2-2.7,2.7-5.3,4-7.9,1.5-3.2,2.8-6.5,4.5-9.6,1.2-2.1,3.5-3.9,5.9-3.8,4.2.3,7.2-1.8,10.3-4,.9-.6,2.3-.7,3.4-1.1-.8.9-1.4,2-2.3,2.7-1.6,1.3-4.1,1.9-4.8,3.5-.5,1,1.7,3.1,2.4,4.8,2.4,6,4.7,12.1,7,18.1,1.3,3.4,2.6,6.9,3.9,10.3,1.1,2.9,2.4,5.9,3.5,8.8.7,1.9-.6,3.6-2.6,4.2-3.1.9-6.2.8-9.2-.5-2.7-1.1-2.9-4.1-3.4-6.4-.4-2.1-1.5-2.5-2.9-2.5-4,0-7.9,0-11.9.4-1,0-1.9,1.7-2.6,2.7-.5.8-.5,2-.9,2.9-1,2-2,3.8-4.9,3.4-1.9-.3-3.9.1-5.8,0-.5,0-.9-.6-1.3-.9.4-.3.7-.9,1.1-.9,1.4,0,2.7,0,4.1.2,2.3.5,3.6-.3,4.6-2.6.6-1.6,1.3-3.2,2.2-4.7.8-1.5,2-2.3,3.9-2.3,4.4.2,8.7,0,13.1.2.7,0,1.6.9,2,1.6.7,1.2,1.1,2.5,1.5,3.8q1.5,4.2,6.2,4.1Z"/>
    <path d="M269.5,196.1c2.8-1.5,5.3-3,8-4.4.5-.3,1.4,0,2.1,0-.4.4-.7.9-1.1,1.3-.2.2-.6.3-.9.5-1.1.8-2.2,1.7-3.3,2.6,1.3,0,2.7,0,4,.2,1.3,0,2.7.1,4,.4,1.9.3,2.4,2.1,2.7,3.6.3,1.8.2,3.7.2,5.6,0,1.9-1.1,2.9-2.9,2.9-5,.2-9.9.3-14.9.4-.6,0-1.3-.4-1.9-.4-.9.1-2.2.3-2.6.9-.5.8-.5,2.1-.3,3,0,.4,1.4.7,2.2.7,4.8,0,9.5-.3,14.3-.3.6,0,1.1.8,1.7,1.3-.5.2-1,.5-1.5.5-5.4,0-10.8,0-16.1,0-1.4,0-2.5-.5-2.5-2.4-.1-5-.2-5,4.7-5.1s10.3-.3,15.4-.4c1.8,0,2.7-.6,2.6-2.5,0-1.4.2-2.8.3-4.2.1-1.3-.5-1.7-1.8-1.7-6.2,0-12.5,0-18.7,0-3,0-5.9-.2-8.9-.2-2.5,0-3.2.9-3.3,3.5,0,6.5-.2,13-.4,19.4-.1,5.1-.3,10.2-.5,15.2,0,.6-.2,1.3-.4,1.9-.1.5-.3,1-.4,1.5-.3-.6-.9-1.2-.9-1.8.1-3.5.4-6.9.6-10.4,0-.9-.5-1.7-.5-2.6.3-5,.7-10,.9-15.1.1-3.4,0-6.8-.3-10.3,0-1.3,1.9-3.7,3.2-3.7,2.9,0,5.8,0,8.8,0,.4,0,.9-.2,1-.5,1.3-3.3,3.5-6.4,6.3-8.8.3-.3.5-.8.9-1,1.3-.6,2.8-1.7,3.9-1.5,2.1.4,4,1.7,5.8,2.7.5.3.7,1.2,1,1.8-.5,0-1.1-.1-1.6-.2-.3,0-.7-.3-1-.4-1.9-.7-4.3-2.6-5.5-1.9-2.2,1.1-3.6,3.6-5.3,5.6-.8.9-1.6,1.7-2.3,2.6-.3.3-.3.8-.4,1.2.4.1.8.3,1.2.3,1.4,0,2.8,0,4.4-.1Z"/>
    <path d="M180.8,124.7c6.6,0,13,0,19.4,0,3.4,0,6.8.2,10.2.2,2,0,3.7.5,3.9,2.8.3,3.5,1.2,7.1-1.6,10.1-1.6,1.8-3.3,3.5-4.9,5.2-3.8,4.1-7.6,8.3-11.3,12.5-.9,1-1.4,2.2-2.1,3.3,1.2,0,2.4,0,3.7,0,3.8,0,7.6-.2,11.4-.3,2.3,0,4,2.1,4.1,4.4,0,2.1.2,4.1-.3,6.1-.2.7-.7,1.9-1.1,2-2.1.3-4.3.3-6.4.3-.6,0-1.2,0-1.8,0-4.1.1-8.3.3-12.4.3-4.3,0-8.6,0-12.9-.2-.7,0-1.3-.7-2-1.1.7-.2,1.4-.7,2-.7,9.3-.1,18.5-.4,27.8-.3,5.4,0,5.5.2,5.4-5.2,0-3.4,0-3.3-3.7-3.3-5.2,0-10.4,0-15.7,0-1,0-2,0-3.1,0,.7-.8,1.3-1.6,2-2.3,6.7-7.5,13.4-15,20-22.6,2-2.3,1.4-5.3,1.2-8,0-.4-1-.8-1.6-1.1-.2,0-.5,0-.7,0-9.7.1-19.5.2-29.2.3-2.7,0-3.4.9-3.4,3.6,0,1.2.1,2.3,0,3.5,0,.3-.4.6-.6.9-.3-.3-.7-.5-.7-.8-.3-1.5-.5-3-.6-4.5-.2-3.1.5-3.9,3.5-4.6.4-.1.8-.3,1.4-.5Z"/>
    <path d="M388.5,209.8c-1.7,3.5-3.3,6.9-5,10.2-3.1,6.4-6.2,12.7-9.3,19-.2.5-.8.9-1.1,1.3-.1-.8-.6-1.7-.4-2.4,1.3-3,2.9-6,4.3-9,1.4-2.8,2.8-5.7,4.2-8.6,1.8-3.8,3.5-7.7,5.4-11.5,1.6-3.3,3.2-6.4,4.8-9.7,1.1-2.3,3.6-3.4,6.2-3,1.2.2,2.5-.1,3.7,0,3,.3,4.3,2.4,5.3,5,1.9,4.8,3.8,9.6,5.6,14.5,1.6,4.3,3.1,8.7,4.7,13,1.2,3.3,2.5,6.6,3.7,9.9.7,1.9-.7,3.8-2.7,3.8-1.9,0-3.7,0-5.6.2-4.2.5-6.2-2.7-6.8-5.9-.5-2.9-.9-3.5-3.9-3.6-3.1-.1-6.3,0-9.4-.3-3.3-.4-3.8,2.3-4.3,4.1-1.6,5.1-5.3,6.2-10,5.2-.3,0-.6,0-.9,0-.7-.2-1.4-.5-2.1-.7.7-.2,1.4-.6,2.1-.7,1.3-.1,2.6-.2,4-.1,2.2.2,3.4-1,4.2-2.8.7-1.6,1.5-3.1,2.2-4.7.7-1.7,2-2.2,3.7-2.2,3.2.1,6.4.2,9.6.2,4.4,0,5.7.8,6.8,5,.2.7.3,1.4.5,2.1.5,1.7,1.4,2.6,3.4,2.5,2.2-.2,4.4.1,6.6.2,1.1,0,1.9,0,1.3-1.6-1.6-4.1-3.2-8.2-4.7-12.3-3.4-9-6.9-18-10.4-27-.1-.3-.1-.6-.3-.8-1.7-2.3-9.1-1.7-10.4.9-1.6,3.1-3.1,6.2-4.8,9.4Z"/>
    <path d="M201.9,210.4c0-3.6.4-7.2.5-10.7,0-2.5,2.1-3.2,3.6-3.2,8.1-.2,16.4-1.2,24.2,1.7,7,2.6,12,7.4,13.7,15.1,1.1,5,1,9.9-.7,14.7-1.6,4.4-4.7,7.7-8.6,9.9-4.6,2.6-9.6,4.3-15,4.4-4.9,0-9.9-.3-14.8-.5-2-.1-3.3-.9-3.3-3.3,0-3-.3-6.1-.2-9.2.2-5.4.6-10.8.9-16.2,0-.8-.2-1.6-.4-2.6M203.7,240.3c5.6,0,11.2.3,16.8,0,3.6-.3,7.3-1.1,10.6-2.6,4.8-2.3,8.2-6.2,10.3-11.3,1.4-3.3,1.4-6.7,1.1-10.2-.5-5.7-3.2-10.2-7.9-13.5-4.7-3.3-10-4.3-15.7-4.3-3.5,0-7,0-10.5-.2-3.1-.1-4.6,1.2-4.6,4.4,0,2.3-.2,4.7-.3,7-.1,7-.2,14-.4,21.1,0,1.7-.3,3.5-.3,5.2,0,1.4.4,2.8.8,4.4Z"/>
    <path d="M334.2,226.5c-.2,4.8-.4,9.3-.6,13.9,0,.2-.1.4-.2.6-.2-.1-.4-.3-.5-.5-.3-.6-.7-1.2-.7-1.8,0-6,.2-12,.4-18,.1-3.8.4-7.5.6-11.3,0-.8.4-1.6.4-2.4,0-2.1,0-4.3-.2-6.4-.2-2.1,1.4-4,3.9-4.1,2.2,0,4.4.3,6.6.2,4.1,0,8.3-.4,12.4-.2,4.2.2,8.2,1,11.5,4.3,3.3,3.2,4.9,12.5.7,16.4-1.2,1.1-.8,1.6.2,2.3,2.4,1.8,3.9,4.4,4,7.1,0,2.9.1,6-1.9,8.7-1.9,2.5-3.9,4.2-6.9,5.4-5,1.9-10.2,1.5-15.3,1.6-3.4.1-6.8-.4-10.2-.6-1,0-2,.4-3.1.5-.4,0-.9-.4-1.3-.7.4-.2.7-.6,1.1-.7.9-.2,1.9-.5,2.8-.5,6.5,0,12.9.1,19.4-.1,7.7-.3,12-4,13.6-11.4.5-2.2-1.8-7.8-4.7-9-2.4-1-2.5-1.4-.5-3,4.7-4,4.3-11,.6-14.7-1.8-1.8-4.8-2.8-7.4-3.3-3.3-.6-6.7-.3-10-.3-3.7,0-7.3-.1-11-.2-1.8,0-2.6,1-2.7,2.7-.3,7-.5,14.1-.8,21.1,0,1.3-.2,2.7-.3,4.2Z"/>
    <path d="M267.8,4.7c-3.2.2-6.3.7-9.4.8-3,.1-6.1-.1-9.1-.1-2.8,0-5.7.2-8.5.2-5.1,0-10.2,0-15.3,0-2.7,0-5.4.2-8.1.2-1,0-2.1-.3-3.1-.3-4.2,0-8.3.8-12.5,0-2.3-.4-4.9.5-7.3.5-4.7,0-9.4-.3-14.1-.4-.8,0-1.5.3-2.3.3-6,0-12,0-18,0-3,0-6,.2-9,.2-3.9,0-7.8-.2-11.7-.1-2.4,0-4.9.6-7.3.6-3,0-6-.5-9-.6-2.2,0-4.3.1-6.5.1-3.1,0-6.3-.1-9.4-.2-.3,0-.6-.1-.8-.2.3-.2.5-.6.8-.7.4-.1.9,0,1.4,0,3.9-.1,7.8-.3,11.7-.3,3.6,0,7.2.4,10.8.6,1,0,2-.5,3.1-.5,11.7-.2,23.5-.3,35.2-.5,3.9,0,7.7-.3,11.6-.3,5.9,0,11.9.3,17.8.4,3.8,0,7.5.2,11.3.1,1.6,0,3.3-.5,4.9-.5,6.2,0,12.4,0,18.5,0,3.1,0,6.1-.2,9.2-.2,1.4,0,2.8.3,4.2.3,4.2,0,8.3-.2,12.5-.3s4.9-.2,7.3-.1c.4,0,.9.8,1.2,1.2Z"/>
    <path d="M327.5,145.4c.8-1.4,1.6-2.9,2.8-4.1,3.5-3.6,7.2-7.1,10.9-10.5,1-.9,2.3-1.5,3.5-2.2.3-.2.6,0,.9-.1,0,.4.1.9,0,1.1-1.3,1.5-2.7,3-4.1,4.4-1.9,1.8-3.9,3.5-5.9,5.3-1.4,1.3-2.8,2.6-4.2,3.9-1.3,1.3-2.1,2.1-.3,4.2,3.5,4.1,6.3,8.8,9.3,13.2,1.6,2.3,3.2,4.5,4.5,6.9,1,1.8,0,3.7-2,3.7-3.6.2-7.2,0-10.8-.2-1,0-2.2-1.2-2.8-2.1-2.7-3.8-5.3-7.7-7.9-11.5-.6-.8-1-1.8-1.6-2.6-.9,1.3-2.3,2.5-2.7,4-.5,2.1-.2,4.4-.4,6.5-.2,1.7-.7,3.4-1.3,5-.2.6-1.1,1.2-1.7,1.2-2.4,0-4.9,0-7.3-.3-.6,0-1.1-.7-1.7-1,.5-.3,1-.7,1.4-.7,1.7,0,3.5,0,5.2.3,1.9.3,2.9-.3,3-2.3.3-3.2.5-6.4.7-9.7.1-2,2.9-5,4.7-5,.4,0,1,.5,1.3,1,3.3,4.7,6.4,9.6,9.8,14.2.7.9,2.4,1.4,3.7,1.6,2.7.3,5.5.2,8.2.3.3,0,.9-.3.9-.5,0-.6-.1-1.3-.5-1.7-1.7-2.3-3.5-4.6-5.1-6.9-3.5-5-7-10.1-10.6-15.3Z"/>
    <path d="M114.8,155.5c1,2.4,1.8,4.7,2.6,7,.6,1.7,1.4,3.3,2,5,.2.5-.1,1.2-.2,1.7-.4-.4-1.1-.8-1.3-1.3-1.8-4.2-3.6-8.4-5.4-12.7-3.7-9-7.3-18.1-11-27.2-.8-1.9-2.8-1.4-4.1-1.6-3.9-.6-5.3.3-7,4.1-2.7,6.2-5.4,12.4-8.1,18.6-2.7,6.3-5.5,12.5-8.2,18.7-.2.4-.6.8-.9,1.1-.2-.4-.5-.9-.4-1.3.3-1.4.7-2.8,1.3-4.1,2.6-6.2,5.3-12.4,7.9-18.7,1.6-3.8,3.2-7.7,4.9-11.5.7-1.7,1.8-3.3,2.5-5.1,1.4-3.6,4.5-4.7,7.7-4.6,3.2,0,5.2-1.7,7.6-3.3.7-.5,1.4-1,2.2-1.4.5-.2,1-.1,1.5-.2-.2.5-.3,1.2-.7,1.6-1.5,1.2-3,2.4-4.6,3.4-1.6.9-1.8,1.5-.6,3.2,1.9,2.9,3.1,6.3,4.5,9.5,2.6,6.2,5.2,12.5,7.9,18.8Z"/>
    <path d="M432.3,242.9c-1.5-.2-2.9,0-4.2-.3-.7,0-1.3-.6-2-.9.6-.3,1.2-.8,1.9-.9,1.2,0,2.4.1,3.5.3,2.8.5,4.2-.8,4.3-3.7,0-1.7.6-3.3.6-5,0-.5-.6-1.6-1-1.6-2.6-.2-5.3-.4-8-.2-.8,0-1.9,1.2-2.1,2-.4,1.7-.3,3.4-.4,5.2,0,.6-.5,1.1-.7,1.7-.5-.7-1.5-1.4-1.5-2.1,0-1.9,0-3.8.8-5.5.5-1.1,2-2,3.2-2.7,1.2-.6,2.1-.6.8-2.3-1-1.4-1.3-3.5-1.5-5.4-.4-3.1-.6-6.2-.7-9.3-.2-3.9-.2-7.7-.4-11.6-.1-2.2,1.6-3.3,3-3.5,3.2-.3,6.4,0,9.6.1.5,0,.9,1,1.4,1.5-.5,0-1.1-.1-1.6-.1-3,0-6.1,0-9.1.3-.7,0-1.5,1.7-1.7,2.6-.2,1.5.3,3,.4,4.5.3,6.2.6,12.4,1.1,18.7,0,.7,1.2,1.6,2.1,2,.7.3,1.8.2,2.5,0,.7-.3,1.6-1,1.8-1.6.7-3.3,1.1-6.7,1.7-10,.7-3.9,1.3-7.8,2-11.7,0-.2,0-.5,0-.7.5-.9,1-1.8,1.5-2.7,0,.8,0,1.7,0,2.5-.5,3.7-1,7.4-1.5,11.1-.2,1.7-.7,3.4-.9,5.2-.3,3.3-.2,6.7-2.5,9.4,0,0,.2.6.4.7,1.9,1,2.6,2.6,2.4,4.7-.1,1.4,0,2.9,0,4.3.3,3.7-1.4,5-5.4,5Z"/>
    <path d="M119.9,204.6c.4-1.2.7-2.4,1-3.5,1-3.3,4.7-6.1,8.3-6,3,0,5.3-1,7.4-2.9.7-.7,1.7-1.1,2.6-1.6.5-.3,1.2-.3,1.8-.4-.3.6-.5,1.3-.9,1.7-1.6,1.2-3.1,2.4-4.8,3.4-1.3.7-1.2,1-.5,2.3,1.8,3.2,3,6.7,4.5,10,2.1,4.6,4.3,9.1,6.3,13.7,2.2,5.2,4.1,10.4,6,15.7.2.6-.2,1.4-.3,2.2-.4-.5-1-.9-1.2-1.4-2.2-5.2-4.2-10.4-6.4-15.5-3.1-7.6-6.2-15.2-9.4-22.7-.4-.9-1.8-1.5-2.8-1.8-.9-.3-2,.1-3,0-2.9-.4-4.3,1.2-5.4,3.7-1.8,4.4-3.9,8.6-5.9,13-3.5,8-6.9,15.9-10.4,23.9-.2.4-.7.7-1.1,1.1-.2-.5-.7-1-.6-1.4.3-1.3.6-2.7,1.2-3.9,1.8-3.6,3.7-7.2,5.6-10.8.4-.7.5-1.5.8-2.2,2.4-5.5,4.7-11.1,7.2-16.8Z"/>
    <path d="M63.7,53.7c3.5-2.6,7.3-.6,10.9-1,.8,0,2.2,2.1,2.6,3.5.5,1.8.3,3.8.2,5.6-.1,3.1-.6,6.1-.6,9.2,0,4,.3,8,.3,12,0,4.8-.3,9.6-.6,14.3,0,.7-1.1,1.6-1.8,1.8-2.1.4-4.4.6-6.5.7-.7,0-1.4-.6-2.1-1,.7-.3,1.3-.8,2-.8,1.7-.2,3.5,0,5.1-.3.8-.2,1.9-1.3,1.9-2.1.2-5,.1-10,.2-15,0-5,0-10,0-15,0-2.9.5-5.8.7-8.7.1-1.6-.4-2.7-2.3-2.6-1.9,0-3.7.3-5.6.1-2.1-.2-3.3.9-4.2,2.5-2.8,4.6-5.7,9.2-8.5,13.8-.3.4-.8.8-1.3.9-.2,0-.7-.6-.9-1-2.9-5-5.7-10-8.7-15-.5-.8-1.9-1.2-2.9-1.3-2.1-.2-4.3-.1-6.4.2-.8.1-1.4,1.2-2.1,1.8-.3.3-.4.6-.6.9-.3-.5-.9-1-.8-1.4.3-2,1.7-3,3.5-3.3,2.1-.3,4.2-.3,6.3-.2,2.1,0,3.5,1.4,4.6,3.1,2.5,3.9,4.9,7.9,7.3,11.8.3.5.9.9,1.3,1.4.2-.5.3-1.1.6-1.6.5-1,1.2-1.8,1.8-2.8,2.2-3.5,4.3-7.1,6.7-10.7Z"/>
    <path d="M137,126.8c-4,.1-7.8.3-11.6.3-2.1,0-4.2-.2-6.3-.3-2.1,0-3,1.1-2.9,3.2,0,1.5.2,3,0,4.4,0,.5-.5.9-.8,1.4-.2-.5-.5-.9-.5-1.4-.1-2.4-.4-4.8-.1-7.1.2-2.1,2.4-2.2,4-2.3,3.3-.2,6.6.2,9.8.1,4.7,0,9.5-.3,14.2-.3,2.6,0,5.3-.2,7.8.4,1.1.2,2.5,1.9,2.7,3.2.5,2.2.5,4.6.2,6.9-.1.9-1.5,2.1-2.5,2.3-3,.4-6,.4-9,.6-.5,0-1.3.7-1.3,1.1-.3,3.3-.6,6.6-.7,10,0,4.5.1,9,.1,13.4,0,2.2-.2,4.4-.6,6.5-.1.8-1.2,1.8-1.9,1.9-2.3.3-4.7.3-7,.2-.7,0-1.4-.7-2.1-1,.7-.3,1.4-.7,2.1-.8,1.8-.2,3.6-.2,5.4-.2,1.5,0,2.2-.7,2.2-2.2,0-4.6,0-9.2,0-13.8.1-5,.3-10,.6-15,0-.8,1.2-2,1.9-2.1,2.5-.2,5,0,7.6.1,2.1.1,3.4-1,3.4-3,0-2.1.6-4.9-.4-6-1-1-3.9-.2-6-.3-2.7,0-5.3-.2-8.2-.2Z"/>
    <path d="M157,127.1c1.4-.9,2.7-2,4.1-2.2,2.2-.3,4.5,0,6.8.2.4,0,1.1.6,1.2,1,.5,2.2,2,4.2.9,6.6-.1.3,0,.8,0,1.1,0,6.2.1,12.4,0,18.5-.1,5.6-.6,11.1-.9,16.7,0,1.4-.8,2.3-2.4,2.3-2.3,0-4.7-.1-7-.3-.4,0-.8-.5-1.2-.7.4-.2.9-.6,1.3-.7,1.6-.1,3.3-.3,4.9-.1,2.4.3,2.8-1.2,2.9-2.9.2-3.5.2-7,.2-10.5,0-5,0-10,.1-15,.2-4,.7-8,1-12,.1-1.3,0-2.2-1.8-2.2-2,0-4.1-.4-6.1-.2-.9,0-2,1.2-2.3,2-.5,1.5-.4,3.3-.4,4.9,0,4.7,0,9.4-.1,14-.1,5.7-.3,11.4-.5,17.1,0,1.4-.2,2.8-.4,4.2,0,.2-.4.5-.7.6-.2,0-.7-.2-.7-.3,0-1.2-.2-2.4-.1-3.6,0-2.6.2-5.2.3-7.8.2-6.3.3-12.7.4-19,0-3.9.3-7.8.5-11.8Z"/>
    <path d="M6.8,20.2c-2.9,4.3-4,9-4.8,13.9,0,.5-.2,1-.4,1.4-.1.3-.4.5-.6.7,0-.3-.3-.6-.3-1-.3-4.2.8-8.2,2.2-12.1.4-1.2.7-2.5,1.1-3.7.1-.4.2-.9.4-1.2,4-4.4,7.7-9,13.1-11.9,1.8-1,3.3-2.4,5.1-3.4,1.6-.9,3.4-1.7,5.1-1.9,4.3-.3,8.7-2,13,0,.9.4,2.2.3,3.2,0,3.3-1.2,6.7-1,10.2-.8,3.5.3,7.1-.1,10.7-.2.4,0,.7,0,1.1.1-.2.4-.3,1.1-.6,1.3-.8.5-1.7,1-2.6,1-7.5.1-15,.5-22.4,0-7-.4-13.4.8-19.5,4.2-5.5,3.1-10.1,7.2-13.3,12.6-.2.3-.4.5-.6.9Z"/>
    <path d="M42.5,79.9c0-2.4.2-4.6.3-6.8,0-.4.4-.8.6-1.1.2.3.5.7.7,1.1,2.9,4.7,5.7,9.4,8.6,14.1.7,1.2,1.6,1.5,2.6-.3,2-3.6,4.5-7,6.7-10.6.7-1.2,1.3-2.4,2.1-3.6.3-.5.8-.8,1.2-1.2,0,.4.2.9.2,1.3,0,5,0,10,0,15,0,2.8-.1,5.6-.2,8.4,0,.3-.2.6-.4.9-.2-.2-.5-.5-.6-.7-.5-2.1-2-4.1-.3-6.3.2-.3,0-.8,0-1.2,0-1.6,0-3.2,0-4.9,0-1.9,0-3.8-.1-5.6,0,0-.7-.2-.8,0-1,1.2-1.9,2.3-2.7,3.6-1.1,1.8-2.1,3.7-3.1,5.5-1.7,2.8-4.2,2.9-6,0-1.9-2.9-3.6-5.9-5.4-8.9-.3-.4-.6-.8-.9-1.2-.2.4-.5.8-.5,1.2,0,3.7-.1,7.4-.2,11.1,0,2.5-.1,5.1-.3,7.6-.1,1.9-1.6,2.5-3.1,2.5-2.5,0-5.1-.3-7.5-.8-.6,0-1-1.1-1.4-1.8,0-.1.3-.5.4-.7.2.2.3.4.5.5.9.4,1.7,1,2.6,1,1.9.1,3.7,0,5.6-.2.6,0,1.5-1,1.5-1.6.1-5.3,0-10.6.1-16.1Z"/>
    <path d="M.5,148.7c-.2-12.3-.4-24.3-.5-36.4,0-8.4.2-16.8.2-25.3,0-7.5-.1-15.1-.1-22.6,0-6.7.2-13.4.4-20.1,0-1.1.2-2.2.4-3.3,0-.9.2-1.8.2-2.8.2,1,.7,2,.7,3,0,4.1,0,8.3-.1,12.4-.1,6.9-.3,13.9-.4,20.8,0,2,.1,3.9.1,5.9,0,9.1.2,18.2.3,27.3,0,6.2,0,12.3,0,18.5,0,6.3,0,12.6,0,18.9,0,4.8,0,9.5,0,14.3,0,4,0,8-.2,11.9,0,.3-.1.5-.2.8,0-.3-.2-.6-.2-.8-.1-3.8-.2-7.7-.3-11.5l-.3-10.9Z"/>
    <path d="M174.3,164.9c-.7-3.1,1.3-5,2.9-6.9,4.8-5.6,9.7-11,14.6-16.5.4-.4.7-1,1-1.5.5-.7,1.1-1.5,1.6-2.2-1.1-.1-2.2-.4-3.3-.4-3.7,0-7.5-.1-11.2-.2-.4,0-.8-.2-1.1-.4.3-.3.5-1,.8-1,6.4-.2,12.9-.4,19.3-.5.3,0,.6.5.8.7-.2.2-.4.4-.6.7-2.4,2.5-4.7,5.1-7.1,7.6-.4.4-.6.9-.9,1.3-4.7,5.3-9.5,10.7-14.2,16-1.6,1.8-1,4-1,6.1,0,.6-.2,1.3-.3,1.9-.5-.6-1.3-1.2-1.5-1.9-.2-.8,0-1.8.2-2.8Z"/>
    <path d="M318.3,241.9c-1.4-.6-2.9-1-3.6-1.9-3.1-4.4-6-8.9-9-13.4-.2-.2-.8-.5-.8-.5-1,1.3-2.4,2.5-2.7,4-.6,3.1-.4,6.4-.9,9.6-.1.8-1.2,2-1.9,2.1-2.4.3-5,.3-7.4.3-.4,0-.8-.4-1.2-.6.3-.2.6-.6.9-.7,1.9-.3,3.9-.7,5.8-.7,1.7,0,2.3-.9,2.4-2.3.2-2.7,0-5.5.3-8.2,0-1.1.4-2.4,1.1-3.2,2.8-3.3,3.4-3.2,5.9.3,2.9,4,5.9,8.1,8.9,12,1,1.4,2.5,1.8,4.2,1.7,2.3,0,4.5,0,6.8.3.5,0,.9.6,1.3.9-.5.1-.9.4-1.4.4-2.9,0-5.8-.1-8.9-.2Z"/>
    <path d="M25.7,7.2c7.2-2.3,14.5-1.9,21.7-2.1,2.5,0,5.1-.2,7.6-.2,3.7,0,7.5,0,11.2.2.3,0,.5.3.8.5-.3.2-.5.5-.8.6-1.4.2-2.8.4-4.3.5-4.2.2-8.4.3-12.7.3-.9,0-1.7-.3-2.6-.4-2.9-.1-5.9-.4-8.7-.2-5.3.5-10.5,1-15.5,3.9-5,2.9-8.8,6.6-11.8,11.1-1.9,2.9-3.8,6.1-4,10-.2,2.8-.7,5.5-1.1,8.3,0,.2-.3.4-.4.6-.2-.2-.5-.4-.5-.6,0-2.2,0-4.5.3-6.7.5-4.4,1.9-8.5,4.3-12.2,3.7-5.7,8.6-10.1,14.9-12.9.5-.2,1-.5,1.7-.9Z"/>
    <path d="M262.8,223.8c4-.1,7.7-.2,11.4-.3.8,0,1.6.2,2.4.4,1.7.4,3.3-.9,3.4-2.7,0-1.4.1-2.8.4-4.2,0-.4.7-.8,1.1-1.1.2.4.7.9.7,1.3-.2,2.1-.3,4.1-.8,6.1-.2.7-1.1,1.8-1.7,1.8-5.2.2-10.4,0-15.5.2-.7,0-1.7.7-2.1,1.4-.4.7-.5,1.7-.4,2.6,0,.4.8,1,1.2,1,6.2,0,12.3-.3,18.5-.4.6,0,1.2.9,1.8,1.4-.5.1-1.1.4-1.6.4-6.1,0-12.1,0-18.2,0-2.9,0-3.7-1.1-3.1-3.9,0-.4,0-.9,0-1.4-.4-2.1.7-2.7,2.7-2.6Z"/>
    <path d="M315.7,218.3c3.3,4.7,6.5,9.2,9.7,13.7,1.3,1.8,2.7,3.5,3.9,5.3.4.6.3,1.5.4,2.3-.6-.3-1.4-.6-1.8-1.1-3.1-4.1-6.2-8.2-9.2-12.4-2-2.8-3.9-5.6-5.7-8.5-.3-.5-.3-1.8.1-2.2,4.5-4.6,9.1-9.1,13.7-13.5.8-.7,2.2-.8,3.3-1.2-.7.9-1.3,1.8-2,2.6-.2.2-.4.5-.6.7-4.3,4.2-8.5,8.3-12.8,12.5-1,1-.2,1.4.9,1.7Z"/>
    <path d="M315.9,134.6c.1-1.5.2-2.8.4-4,.1-.8.2-1.6.5-2.3.1-.3.7-.5,1.1-.7,0,.4.2.7.2,1.1,0,2.8-.2,5.6-.2,8.4,0,.5.3,1,.5,1.4.4-.2.8-.4,1.1-.7,3.5-3.5,6.9-7.2,10.6-10.6,2.4-2.2,5.2-3.8,8.9-2.6,1.1.4,2.5,0,3.7,0,.7,0,1.3.5,1.9.7-.6.4-1.1,1-1.7,1-2.2.2-4.4.3-6.5.2-2.4-.2-4,.9-5.5,2.5-2.3,2.5-4.6,4.8-6.9,7.3-2.3,2.5-4.6,5.1-6.9,7.7-.2.2-.6.4-.7.3-.3-.4-.7-.9-.7-1.3,0-1.7.2-3.4.3-5.2,0-1,0-2,0-3.3Z"/>
    <path d="M303.8,150.8c0-2.1.2-4,.3-6,.1-2.1.3-4.2.3-6.3,0-.4-.5-1-1-1.2-1.2-.7-1.4-1.4-.3-2.3,1.3-1.1,2-2,1.3-4-1-3.1,2-6.3,5.5-6.4,2,0,4.1.1,6.1.3.4,0,.8.6,1.1.9-.4.2-.7.5-1.1.5-2.1,0-4.3.2-6.4.2-1.8,0-3.5,1.5-3.6,3.5,0,4,0,8-.2,11.9-.2,7.1-.5,14.2-.8,21.3,0,1.3-.2,2.5-.4,3.8-.1.7-.5,1.4-.8,2.1-.3-.7-1-1.3-1-2,.2-5,.6-10,.9-15.1,0-.3,0-.6,0-1.2Z"/>
    <path d="M302.6,199.5c.2,3.1.3,6.1.4,9.1,0,.5.4.9.6,1.4.4-.2.9-.3,1.2-.7,2.5-2.6,5-5.3,7.5-7.9.8-.9,1.7-1.7,2.7-2.4,1.5-.9,3.1-2.1,4.8-2.4,2.5-.5,5.1-.3,7.7-.3.5,0,1.1.3,1.6.6.3.2.4.6.6.9-.3.1-.6.3-1,.3-2.6,0-5.3.2-7.9.2-1.7,0-3.1.6-4.3,1.9-4,4.2-8.1,8.2-12.1,12.4-.8.9-1.5,1.9-2.3,2.8-.3.3-.8.4-1.3.6-.2-.5-.6-.9-.5-1.4.2-3.1.3-6.1.7-9.2.3-2.1-.5-4.4,1.5-6Z"/>
    <path d="M119.4,237.8c-1.5,1.2-2.7,3-4.3,3.4-2.3.5-4.8.1-7.2.1,0-.2,0-.7.1-.7,1.2-.3,2.5-.8,3.6-.7,2.5.4,5-.7,5.8-3.1.4-1.2.8-2.5,1.2-3.7.7-2.1,2.2-2.7,4.4-2.5,3.3.2,6.7,0,10-.1,3.2,0,3.8.3,4.9,3.3.2.5.3,1,.5,1.4,2,4.5,2.3,5.1,6.8,4.8,1.4-.1,2.8-.1,4.2-.1.3,0,.6.3.8.4-.2.3-.4.9-.6.9-1.9.2-3.9.4-5.9.5-4.6.1-6.2-3-7.2-6.7-.5-2-1.5-2.8-3.7-2.7-3.4.1-6.9-.1-10.3,0-.7,0-1.7.7-2,1.3-.6,1.3-.9,2.7-1.4,4.2Z"/>
    <path d="M98.8,161.9c-3,0-5.8-.4-8.5-.1-1.1.1-2.2,1.5-3,2.5-.5.6-.4,1.7-.7,2.5-1.5,4-5.1,5.6-9.8,4.5-.7-.2-1.3-.4-2-.6.8-.4,1.7-.9,2.5-1.1.7-.2,1.5,0,2.3,0,3.9-.1,4.4-.6,5.7-4.3.4-1.1.8-2.1,1.3-3.2.7-1.5,1.6-2.1,3.6-1.8,2.8.4,5.7,0,8.6-.1q5.5-.1,7.5,4.7c.2.6.3,1.3.6,1.9.7,1.9,1.7,3.2,4.1,3,2-.2,4.1.1,6.1.3.4,0,.7.3,1.1.4-.4.3-.7.9-1.1.9-2.9,0-5.8,0-8.7-.3-.7,0-1.5-.9-1.8-1.6-1-1.9-1.6-4-2.6-5.9-.4-.7-1.3-1.3-2.1-1.5-.9-.2-1.8,0-3,0Z"/>
    <path d="M68,145.9c0-2.5.2-4.8.3-7,0-3.3.1-6.6.3-9.8,0-.4.6-.8.9-1.2.1.4.4.7.4,1.1.9,6.9-.2,13.8-.2,20.7,0,2.5.4,5,.3,7.4,0,3.9-.2,7.8-.5,11.7,0,.7-.9,1.6-1.6,1.8-2.1.4-4.4.5-6.5.7-.3,0-.7.1-.9,0-.6-.3-1-.8-1.5-1.1.5-.2,1-.6,1.6-.7,1.8-.1,3.6-.2,5.4-.2,1.6,0,2.3-.7,2.3-2.4,0-6.9,0-13.9-.1-21Z"/>
    <path d="M288.6,227.8c.4-3.3,1-6.3.3-9.5-.5-2.2.5-4.7.6-7.1.1-2.6.2-5.3-.1-7.9-.7-4.7,2.3-7.5,7.1-6.6,1.4.3,3-.1,4.5,0,.5,0,.9.6,1.3.9-.5.1-.9.4-1.4.4-2.4.1-4.8,0-7.1.4-.8.1-1.9,1.4-2.1,2.2-.5,2.7-.6,5.5-.8,8.2-.2,2.7-.2,5.5-.3,8.2-.3,7.3-.5,14.5-.9,21.8,0,.5-.7.9-1.1,1.4,0-.5-.3-1.1-.3-1.6-.1-3.3-.2-6.5-.3-9.8,0-.3.3-.7.4-1.2Z"/>
    <path d="M32.2,167c0,.4,0,.5,0,.7,0,.7,0,1.4.1,2.1-.5-.8-1.4-1.6-1.5-2.4,0-3.2.2-6.4.2-9.5,0-1-.2-1.9-.2-2.9,0-5.6,0-11.2,0-16.7,0-2.4-.1-4.7-.2-7.1-.1-4.7,2.8-7.1,7.4-6.2,1.3.3,2.6.5,3.8.8.3,0,.5.5.8.8-.3.2-.6.6-.9.6-1.6,0-3.3-.3-4.9-.3-3.2,0-4.3,1.3-4.3,4.4,0,5-.4,10-.5,15,0,3.7.2,7.5.3,11.3,0,3.1-.1,6.2-.2,9.6Z"/>
    <path d="M61.7,237.9c1.4,2,3.5,1.4,5.2,1.8,1.4.3,3,0,4.5,0,.2,0,.5.4.5.6,0,.3-.3.8-.4.8-2.8-.4-5.6.7-8.6-.4-2.9-1.1-3.7-3.7-3.9-5.5-.4-3.5-2.7-3.2-4.6-3.3-3.2-.2-6.5,0-9.8.3-1,.1-2,1.4-2.6,2.4-1,1.9-1.2,4.8-2.7,5.7-2,1.1-4.8.8-7.3.9-.5,0-1.1-.5-1.6-.7.5-.2,1-.6,1.6-.6q6.8-.6,8.9-6.8c.7-2.1,2.6-2.8,4.7-2.7,3.2.2,6.5,0,9.7-.1,2.2-.1,3.7.6,4.4,2.7.6,1.6,1.2,3.2,1.9,5Z"/>
    <path d="M253,242.1c-.6-.1-.9-.3-1.2-.4-.4-.2-.8-.4-1.1-.7.4-.2.9-.7,1.3-.7,5.1,0,10.1,0,15.2,0,4.7,0,9.3-.2,14-.4.4,0,1.1-.8,1.2-1.2.2-1.7.2-3.4.4-5.2,0-.4.4-.7.7-1.1.4.4,1.1.9,1.1,1.3,0,1.8,0,3.6-.3,5.4-.2.8-1,1.6-1.7,2.1-2.7,2-5.7.3-8.5.3-5.7,0-11.4.3-17.1.4h-3.8Z"/>
    <path d="M350.5,223.8c2.7,0,5.1,0,7.5.3,2.2.3,3,2.1,2.9,4.2,0,2.2-1.9,3-3.6,3.2-3.9.3-7.8.3-11.6.4-1.6,0-1.9-1-1.7-2.3,0-.5.2-1,.2-1.6,0-4.2,2-5.6,6.4-4.2M351.7,225.1c-5.4.1-5.5.1-5.8,3.8,0,.4.8,1.4,1.2,1.4,3.1-.1,6.1-.5,9.2-.6,1.6,0,3-.8,3-1.8,0-.8-1.7-1.7-2.8-2.4-.3-.2-.9,0-1.4,0-1.1,0-2.1,0-3.4-.4Z"/>
    <path d="M43,169.9c-2.8,1.9-5.8.8-8.7,1.1-.2,0-.4-.4-.7-.6.4-.2.7-.7,1.1-.7,1.5-.1,3.1-.2,4.7-.1,1.8,0,2.6-.7,2.6-2.6,0-4.1.1-8.3,0-12.4,0-1.6.7-2,2-2,4.2,0,8.4,0,12.6.2.5,0,.9,1,1.3,1.6-.5,0-.9.2-1.4.2-3.7,0-7.3-.2-11,0-.7,0-1.9,1.3-1.9,2.1-.1,1.9.5,3.7.5,5.6-.1,2.6-.6,5.1-1.1,7.7Z"/>
    <path d="M55.8,141.6c.6-.5,1.3-.9,1.3-1.4.2-1.8.3-3.6.3-5.5,0-1.3,0-2.7-.4-3.9-1-3.6.3-5.6,4-5.7,2,0,4-.2,6-.1.6,0,1.2.8,1.7,1.2-.5.2-1.1.6-1.6.6-1.9.1-3.9.1-5.8.2-2.3,0-3.2,1-3.2,3.4,0,3.6.1,7.3.3,10.9,0,1.6-.3,2.3-2,2.2-3.6-.1-7.2-.1-10.8-.2-.3,0-.5-.2-.8-.3.2-.2.4-.6.7-.6,1.2-.2,2.5-.5,3.7-.6,2-.1,4-.1,6.3-.2Z"/>
    <path d="M353.8,207.3c3.2-.4,5.6,1.7,5.3,4.1-.2,2.2-1.5,3.6-4.2,3.8-2.6.2-5.3.2-7.9.2-1.8,0-2.7-1.3-2.4-2.9.2-.8.5-1.6.4-2.4-.3-2.4,1.3-2.9,3-3,1.9-.1,3.7.2,5.9.3M346.9,210.6c-.6,2.7-.1,4,2.9,2.5.1,0,.4.3.6.3,1.7,0,3.4.3,5.1-.1.8-.2,1.4-1.5,2-2.3-1.1-.6-2.1-1.4-3.2-1.7-1.4-.4-2.9-.5-4.3-.3-1,0-2,.8-3,1.6Z"/>
    <path d="M331.6,4.5c-4.2.3-8.1.6-12,.8-2.1,0-4.3-.2-6.4-.3-5.6-.2-11.3-.4-16.9-.5-2.8,0-5.7.1-8.5.2-.4,0-.9-.2-1.3-.3.5-.2.9-.6,1.4-.6,3.5-.1,7-.3,10.5-.3,5.5,0,10.9,0,16.4,0,3.2,0,6.4-.2,9.6-.2,2.8,0,5.6.1,8.4.2.3,0,.5.3.8.5-.5.1-1.1.3-1.9.4Z"/>
    <path d="M448.3,252.4c.1,4.9-1.1,9.3-2.9,13.7-2.1,5.4-5.9,9.3-10.2,12.8-.4.4-.9.7-1.5.9-.3.1-.7-.1-1.1-.2.2-.3.2-.7.5-1,2.4-2.4,5.2-4.6,7.3-7.4,1.7-2.3,2.6-5.3,4-7.9,2-3.6,2.6-7.4,3-11.4,0-.3.5-.6.7-1,0,.4.1.7.2,1.3Z"/>
    <path d="M272.3,148.8c1.3-3.1,2.4-6,3.6-8.9.2-.4.7-.7,1.1-.8.1,0,.6.5.7.8,1.1,3.3,1.8,6.7,3.2,9.9.7,1.6,0,1.2-.9,1.3-2.1,0-4.2,0-6.3.2-2.1.2-2.5-.6-1.5-2.4M278,146.2c-.2-.7-.5-1.4-.7-2-.4.5-.9,1-1.1,1.6-.5.9-.6,2-1.2,2.7-.9,1.2-.1,1.3.7,1.3,2.4,0,3-.8,2.4-3.5Z"/>
    <path d="M397,211.9c.4-.4.8-.7,1.1-1,.2.4.5.7.7,1.1.9,2.8,1.5,5.6,2.6,8.2.8,1.8.5,2.3-1.3,2.2-1.9,0-3.7.1-5.6.1-.6,0-1.2-.3-1.9-.5.2-.6.3-1.2.6-1.8,1.2-2.8,2.5-5.5,3.8-8.4M398.9,219c-.2-.8-.5-1.7-.7-2.5-.5.6-1,1.2-1.4,1.9-.3.5-.4,1.1-.6,1.6,0,.2-.2.4-.3.7.9,0,1.9,0,2.8,0,.3,0,.3-.9.3-1.6Z"/>
    <path d="M126.8,139.8c1.2-1.2,1.8-1.5,1.8.5,0,6.4,0,12.8,0,19.1,0,2.9-.1,5.8-.2,8.7,0,.5-.4.9-.6,1.4-.4-.5-1.2-1-1.2-1.5,0-2.2.1-4.4.2-6.6,0-1.2.3-2.4.3-3.5.1-3.1.3-6.1.2-9.2,0-2.9-.4-5.8-.6-8.8Z"/>
    <path d="M279.6,115.7c-2,2.5-3.9,4.8-5.9,7.1-.3.3-.9.2-1.4.3,0-.4-.1-.9,0-1.2,2.5-3.9,4.9-8,9.3-10,.9-.4,2.3,0,3.3.3,1.6.6,3.2,1.4,4.6,2.3.5.3.7,1.2,1.1,1.8-.6,0-1.2,0-1.7-.2-1.4-.5-2.8-1-4.2-1.8-2.1-1.1-3.7-.9-5.2,1.2Z"/>
    <path d="M126.2,215.7c.7-1.7,1.2-3.2,1.9-4.7.1-.3.6-.6,1-.8.1.2.4.4.4.7.2,3.7,2.6,6.7,3.6,10.2,0,.3.3.6.5,1-.4,0-.8.1-1.3.1-2.3,0-4.7,0-7,0-.4,0-.9,0-1.3,0,0-.4,0-.8.2-1.1.6-1.7,1.3-3.3,2.1-5.1M128.8,220.1c1.2.2,2.2.1,1.8-1.5,0-.3-.3-.7-.4-1-.3-.8-.7-1.6-1-2.4-.6.8-1.2,1.6-1.8,2.4-.1.2,0,.6-.2.8-1.2,1.9,0,2,1.6,1.7Z"/>
    <path d="M98.8,146.5c.5,1.3.9,2.5,1.6,3.5.7,1,.4,1.1-.6,1.1-2.3,0-4.6.1-7,.2-1.4,0-1.7-.6-1.2-1.9,1.1-2.9,2.1-5.8,3.3-8.6.2-.5.8-.8,1.2-1.1.2.5.4.9.6,1.4.7,1.7,1.3,3.5,2,5.4M95.4,149.4c2.8,0,2.8,0,2-2.7-.1-.4,0-.9,0-1.3-.1-.4-.5-.8-.7-1.1-.8,1.7-1.7,3.5-2.5,5.2.4,0,.7.1,1.3,0Z"/>
    <path d="M134.7,183.9c2.1.9,4.1,1.7,6,2.6.4.2.5,1,.7,1.5-.5,0-1,.1-1.4,0-1.5-.5-3.2-.7-4.4-1.6-2.2-1.6-3.4-.4-4.7,1.2-1.9,2.4-3.7,4.8-5.7,7.2-.1.2-.8.2-.8.2-.2-.5-.6-1.2-.4-1.5.9-1.6,1.8-3.2,3-4.6,1.1-1.5,2.4-2.9,3.9-4,1-.7,2.4-.8,3.8-1Z"/>
    <path d="M54.5,219.2c.3.6.4,1.2.7,1.5,1.2,1.3.1,1.2-.7,1.2-2.1,0-4.2-.3-6.3-.2-1.8,0-2-.6-1.5-2.1,1.1-2.8,2-5.7,3.1-8.5.1-.3.7-.5,1.1-.7,0,.3.2.5.3.8,1.1,2.7,2.2,5.3,3.4,8.1M50.9,219.9c.3,0,.6.2.8.1,1.9-1,0-2,0-3.1,0-.6-.2-1.3-.3-1.9-.6.5-1.4.9-1.8,1.6-.4.5-.4,1.2-.6,1.8-.1.6-.1,1.2-.2,1.8.6-.2,1.2-.3,2.1-.3Z"/>
    <path d="M102.6,114.7c-1.4-.8-2.5-.6-3.4.5-1.9,2.3-3.8,4.7-5.8,7-.3.4-1,.5-1.5.7,0-.6-.1-1.4.2-1.8,1.9-2.5,3.7-5.2,5.9-7.4,1.4-1.4,3.4-1.9,5.5-.8,1.4.8,2.9,1.3,4.3,2.1.5.3.7,1,1,1.5-.5,0-1.1.2-1.5,0-1.5-.6-2.9-1.2-4.6-1.8Z"/>
    <path d="M4,159.8c0-7.5,0-14.7-.1-22,0-.4,0-.9.2-1.3.2-.5.6-1,.9-1.5,0,.5.2,1,.2,1.5,0,7.2.1,14.3.1,21.5,0,2.3-.2,4.5-.3,6.8,0,.3-.3.6-.5,1-.1-.3-.3-.6-.4-.9,0-1.6-.1-3.3-.2-5.1Z"/>
    <path d="M4.9,229.7c0,3.3-.2,6.5-.2,9.6,0,4.3.2,8.6.3,12.9,0,.5-.2.9-.4,1.4-.2-.4-.5-.8-.5-1.2-.2-4.9-.3-9.8-.4-14.6,0-4.5,0-9,0-13.5,0,0,0-.2,0-.2.4-1,.7-2,1.1-3,.1.9.3,1.8.3,2.7,0,2-.2,4-.3,6.2Z"/>
    <path d="M455.4,204.6c-.5,5.7-.9,11.2-1.4,16.8,0,.4-.3.7-.5,1-.1-.3-.4-.6-.4-.9.3-4.1.6-8.2.9-12.3,0-1.1,0-2.1,0-3.2.2-3.3.4-6.6.7-9.9,0-.3.3-.5.5-.8.1.3.4.6.4.9,0,2.7-.1,5.5-.2,8.4Z"/>
    <path d="M86.5,4.7c3.7,0,7.2,0,10.8,0,2.3,0,4.5.2,6.8.3.3,0,.5.3.8.5-.3.1-.6.4-.9.4-4.1,0-8.1.8-12.3,0-2.5-.5-5.1,0-7.7,0-.3,0-.7-.1-1-.2.3-.2.5-.6.9-.7.8-.2,1.7-.4,2.7-.4Z"/>
    <path d="M450.8,189.3c.4-1.1.7-2,1.1-2.8,0,.9.2,1.9.1,2.8-.2,3.9-.5,7.8-.7,11.7,0,1.8,0,3.7,0,5.5,0,.3-.4.6-.6.9-.3-.3-.8-.7-.8-1,.3-5.7.6-11.3.9-17.2Z"/>
    <path d="M42.2,140.1c0-3.1.2-6,.2-8.9,0-.7-.1-1.4,0-2.1,0-.4.6-.7.9-1,.2.3.4.5.4.8,0,1.6.1,3.1.1,4.7,0,2.7.2,5.3.2,8,0,.6-.4,1.1-.7,1.7-.4-.6-.8-1.2-1.1-1.9-.1-.3,0-.8,0-1.4Z"/>
    <path d="M369.3,3.5c3.3-.2,6.4-.5,9.5-.7.2,0,.5.2.7.3,0,0-.2.5-.2.5-1.8-.1-3.2,2.1-5.2.7-.4-.3-1.2,0-1.8,0-3.7.1-7.5.2-11.2.3-.6,0-1.3-.4-1.9-.7.7-.2,1.4-.7,2-.7,2.6,0,5.3.1,8.2.2Z"/>
    <path d="M448.3,233.3c.1-.3.2-.4.3-.6.3-.4.5-.9.8-1.3,0,.5.3,1,.3,1.5-.3,5.1-.6,10.2-1,15.2,0,.4-.3.7-.4,1-.2-.4-.4-.7-.5-1.1-.7-4.9.6-9.7.5-14.8Z"/>
    <path d="M452.9,248.1c-.3,1.1-.7,2-1,2.8,0-1,0-1.9,0-2.9,0-2,.2-3.9.3-5.9,0-3.4.1-6.9.2-10.3,0-.3.3-.7.5-1,.1.3.4.6.4.9-.2,4.1-.4,8.3-.6,12.4,0,1.2,0,2.5,0,4Z"/>
    <path d="M350.7,4.9c-3.3,0-6.4-.1-9.4-.2-.6,0-1.2-.4-1.8-.6.5-.2,1-.7,1.5-.7,4.1.1,8.2.4,12.3.6.5,0,1-.2,1.5-.2.3,0,.6.2.9.2-.2.3-.4.8-.6.9-1.4.1-2.8.1-4.5.2Z"/>
    <path d="M5.4,177.5c0,3-.1,5.7-.3,8.5,0,.5-.6.9-.9,1.3-.2-.4-.5-.9-.5-1.3,0-4.4,0-8.8,0-13.1,0-.2,0-.5,0-.7.3-.6.7-1.1,1.1-1.7.1.6.3,1.3.3,1.9,0,1.6,0,3.2.1,5Z"/>
    <path d="M58.3,166.7c-.4.8-.9,1.7-1.2,1.7-1.6-.2-.8-1.2-.7-2.3.3-2.3.2-4.7.3-7.1,0-.4,0-.8.1-1.1.2-.5.6-1,.9-1.5.1.5.3,1.1.3,1.6.1,2.8.2,5.6.2,8.6Z"/>
    <path d="M118.3,137.9c-.4-.4-.7-.8-1-1.1.5-.2,1-.7,1.6-.7,1.8,0,3.6.2,5.4.3,1,0,2-.1,3,0,.4,0,1.1.6,1.2,1,.2,1.5-.6.4-1.2.4-2.9,0-5.9,0-8.9,0Z"/>
    <path d="M456,122.5c0,2.3-.2,4.3-.3,6.3,0,.2-.4.5-.6.7-.3-.2-.8-.5-.8-.7,0-1.9.2-3.8.3-5.6.1-2,.2-4.1.3-6.1,0-.5.4-1,.7-1.5.2.6.7,1.2.7,1.8,0,1.6-.2,3.3-.3,5.2Z"/>
    <path d="M454.3,17c-.3-.5-.5-1-.7-1.4.3.1.8.1,1,.4,3,3.2,4.4,7.1,5.5,11.2,0,.4,0,.8,0,1.2,0,.3-.3.5-.5.8-.1-.2-.3-.4-.4-.7-1.6-3.8-3.2-7.6-4.9-11.4Z"/>
    <path d="M457.3,101c-.1,1.6-.2,3.1-.4,4.5,0,.2-.2.5-.4.7-.2-.2-.5-.5-.5-.7,0-1.9-.4-3.8,0-5.6.4-1.8.9-3.4.3-5.3-.1-.4.3-.9.5-1.4.1-.2.4-.4.6-.6,0,.3.2.6.2.9,0,2.4-.2,4.8-.3,7.5Z"/>
    <path d="M406.1,3.1c1.4.2,2.7.2,4.1.3.3,0,.5.2.7.2-.2.2-.4.6-.7.6-2.2.1-4.4.1-6.6.2s-3.1.1-4.6.1c-.4,0-.8-.2-1.2-.2.4-.2.7-.6,1.1-.6,2.3-.3,4.6-.5,7.1-.6Z"/>
    <path d="M449.3,217c.3-.2.5-.3.8-.4,0,4,0,8-.1,11.9,0,.2-.3.5-.3.5-.3,0-.7-.2-.7-.4-.2-.8-.4-1.6-.4-2.4,0-2.4.2-4.8.3-7.2,0-.6.2-1.3.5-2Z"/>
    <path d="M3.9,192.4c0-.5,0-.9,0-1.2.2-.7.4-1.4.6-2.1.3.7.8,1.4.8,2.1,0,3,0,5.9-.2,8.9,0,.4-.3.7-.5,1-.2-.3-.4-.6-.4-.9-.1-2.6-.2-5.2-.2-8Z"/>
    <path d="M454.5,139c0,3.1,0,6-.1,9,0,.4-.2.8-.3,1.2-.4-.4-1-.8-1-1.2,0-1.9.2-3.8.4-5.7.2-1.2.6-2.3,1-3.3Z"/>
    <path d="M460.2,51.5c-.2,2.9-.5,5.6-.7,8.2,0,.2-.3.4-.4.7-.2-.2-.5-.4-.5-.5.2-3,.3-6,.6-9,0-.8.6-1.5,1-2.2,0,.9,0,1.7,0,2.8Z"/>
    <path d="M387.4,3.4c2.7-.1,5.2-.1,7.8,0,.5,0,1.1.4,1.6.5-.5.1-1,.3-1.5.3-3,.1-6,.2-9,.2-.5,0-1-.1-1.5-.2.1-.3.2-.7.3-.7.4,0,.8,0,1.3,0,.3,0,.6,0,1-.1Z"/>
    <path d="M4,123.9c.2-.9.4-1.6.6-2.3.3.6.8,1.2.8,1.9,0,2.2-.1,4.3-.3,6.5,0,.2-.2.3-.4.4-.2-.2-.5-.5-.5-.7,0-1.8-.1-3.7-.2-5.8Z"/>
    <path d="M452,176.4c.3-.2.5-.3.8-.4-.2,2.5-.4,5-.7,7.5,0,.3-.4.5-.5.7-.1-.2-.4-.5-.4-.7.2-2.3.5-4.7.8-7.2Z"/>
    <path d="M453.8,159.4c-.1,1.5-.2,2.8-.4,4,0,.3-.4.5-.6.7-.1-.3-.3-.5-.3-.8,0-2.2.1-4.4.3-6.6,0-.4.7-.7,1.1-1,0,.4.1.8,0,1.3,0,.7-.2,1.5-.3,2.4Z"/>
    <path d="M73.1,6.3c-1.1-.2-1.9-.4-2.8-.6.9-.3,1.7-.7,2.6-.8,1.3-.2,2.6-.1,4-.1.3,0,.5.4.8.7-.3,0-.6.2-.8.2-1.2.2-2.3.4-3.8.6Z"/>
    <path d="M457.9,84.3c0,1.9,0,3.9,0,5.9,0,.2-.3.5-.5.5-.3,0-.7,0-.8-.2-.6-.7.3-5.4,1.3-6.2Z"/>
    <path d="M274.7,5.1c-1.4-.1-2.6-.2-3.8-.4-.3,0-.6,0-.9-.1.2-.2.3-.6.5-.6,2.1,0,4.3,0,6.4,0,0,0,0,.6,0,.6-.7.2-1.4.4-2.3.6Z"/>
    <path d="M4.9,209.2c0,1.9.1,3.6.1,5.3,0,.3-.3.5-.5.7-.1-.3-.4-.6-.4-.9,0-2-.2-4-.1-6,0-.5.4-.9.5-1.4.1.4.3.9.3,1.3,0,.2,0,.5,0,.9Z"/>
    <path d="M31.3,62.5c.4-.6.7-1,1.1-1.4,0,.5.3,1,.3,1.5,0,1.5.1,3.1.1,4.6,0,.4-.1.9-.2,1.3-.3-.1-.7-.1-.8-.3-.2-.3-.1-.7-.2-1.1-.1-1.5-.3-2.9-.4-4.6Z"/>
    <path d="M5.1,113.1c-.2,1.1-.3,2-.5,2.8-.1-.9-.3-1.7-.4-2.6,0-1.5-.1-2.9-.1-4.4,0-.3.4-.6.6-.9.1.3.3.6.3.9,0,1.3,0,2.6.1,4.2Z"/>
    <path d="M32.7,80.6c0,1.3.1,2.4,0,3.5,0,.4-.3.8-.5,1.2-.3-.5-.8-.9-.9-1.4,0-1.4.2-2.8.3-4.2,0-.5.4-.9.6-1.4.1.4.2.9.3,1.3,0,.2,0,.5,0,.9Z"/>
    <path d="M419.1,3.5c1.5-.2,2.8-.4,4.2-.4.2,0,.4.3.6.4-.1.2-.2.4-.4.4-1.6.1-3.2.2-4.8.3,0-.2.2-.4.4-.8Z"/>
    <path d="M4.3,46.9c0-1.4-.1-2.5,0-3.7,0-.3.4-.6.6-.9.1.3.3.6.3.9,0,1.6.1,3.2.1,4.9,0,.4-.2.8-.3,1.2-.2-.4-.5-.8-.6-1.2,0-.3,0-.6,0-1.2Z"/>
    <path d="M279.4,3.7c.8-.1,1.6-.2,2.3-.2.6,0,1.2.4,1.8.6-.5.3-1,.7-1.5.7-.9.1-1.8.1-2.8,0-.3,0-.6-.3-.9-.4.3-.2.6-.5,1-.9Z"/>
    <path d="M434.8,4.9c.9-1,3.4-.9,4,.1,0,.2.2.6,0,.6-.2.1-.6.3-.8.2-1-.2-2.1-.5-3.2-.9Z"/>
    <path d="M451.8,255.7c.3,1.1,1.2,2.4,0,3.6-.2.2-.4.3-.5.5-.1-.2-.4-.5-.4-.7.2-1.1.5-2.2.9-3.4Z"/>
    <path d="M456.6,112.1c-.3-1.3-.4-2.7-.6-4.2,0,0,.2-.2.3-.3,0,.2.3.5.3.7,0,1.2,0,2.4,0,3.8Z"/>
    <path d="M450.5,211.3c-.3.4-.6.6-.9.7,0-.4-.1-.8,0-1.1.2-.7.6-1.4.9-2.1,0,0,.3,0,.5,0-.1.8-.3,1.5-.4,2.6Z"/>
    <path d="M31.9,89.9c.3,1.2.4,2.4.5,3.7,0,0-.3.2-.4.1-.2-.2-.4-.4-.4-.6,0-1,0-2.1.2-3.2Z"/>
    <path d="M427.3,4.2c0-.3.2-.6.4-.6,1.3,0,2.6,0,3.9.1,0,0,.1.2.2.3-1.1,0-2.1.2-3.2.2-.4,0-.8,0-1.3,0Z"/>
    <path d="M412.8,3.4c.6-.1,1.1-.3,1.5-.1.6.2,1.1.7,1.7,1-.6,0-1.1,0-1.7,0-.5,0-1.1,0-1.6,0,0-.2,0-.5.2-.8Z"/>
    <path d="M31.6,74.1c.2-.6.4-1,.6-1.4.1.3.2.6.3.9,0,.2,0,.5,0,.7,0,.7-.2,1.4-.3,2.1-.2-.7-.4-1.4-.6-2.3Z"/>
    <path d="M453.1,168.8c0,1.1-.2,1.9-.3,2.8-.1,0-.4,0-.4,0,0-1-.1-2.1-.1-3.1,0-.2.3-.3.5-.5.1.2.2.4.3.8Z"/>
    <path d="M452.7,14.3c-.2.2-.5.2-.6,0-.6-.6-1.1-1.2-1.6-1.7.6.3,1.2.6,1.8,1,.2.1.3.3.5.7Z"/>
    <path d="M454.7,193.9c0-.8.2-1.3.3-1.9.2.3.6.7.6.9-.1.5.8,1.8-.9,1Z"/>
    <path d="M453.2,226.1c.2.6.3,1.2.3,1.9,0,0-.4,0-.4,0,0-.6,0-1.2.2-1.9Z"/>
    <path d="M338.5,4.7c-.6,0-1.1,0-1.6,0,.1-.2.3-.6.4-.6.5,0,.9.3,1.3.6Z"/>
    <path d="M10.8,275.7c-.1,0-.3,0-.4,0-.4-.4-.7-.9-1-1.4,0,0,.2-.2.3-.3.4.5.8,1,1.2,1.7Z"/>
    <path d="M460,39c.3-.2.5-.3.7-.4,0,.4-.2.8-.3,1.3-.2-.2-.4-.5-.4-.8Z"/>
    <path d="M181.4,74.8c.2-7.8,8.1-13.1,14.7-11.7,4.6,1,7.6,3.3,9.1,7.7,2.6,7.1-1,15.5-7.8,17.5-7.4,2.1-15.6-2-15.9-11.1,0-.7,0-1.4,0-2.3M182.8,76.9c.2.8.3,1.6.5,2.4,1.3,5.2,8.4,9.3,13.1,7.1,6.6-3,9-8,6.9-15-.3-1.1-.6-2.6-1.4-3-2.2-1.1-4-2.6-6.7-3.1-4.2-.8-6.5,1.2-9.2,3.4-2.4,2-2.4,5.1-3.2,8.2Z"/>
    <path d="M214.9,207.4c3.1,0,6.1-.3,9,.2,4.6.8,7.4,4.2,8.3,8.5.9,4.3.3,8.8-3.3,12-2.7,2.4-5.9,3.6-9.6,2.9-1-.2-2.2,0-3.3,0-2.5,0-3.4-1-3-3.3.2-1,.3-2,.4-3.1.2-5.4.3-10.8.6-16.2,0-.3.6-.7,1-1.1M217.9,229.2c2.8-.3,5.6.4,8.3-1.5,2-1.4,2.7-3.2,3.7-5.2,1.2-2.3.9-4.5.2-6.7-1.6-5.1-7.7-8.2-12.9-6.6-.8.3-1.8,1.6-1.8,2.5-.2,5.4,0,10.7-.1,16.1,0,1.8.7,2.3,2.6,1.4Z"/>
  </g>
</svg>