<?xml version="1.0" encoding="UTF-8"?>
<svg id="Layer_1" xmlns="http://www.w3.org/2000/svg" version="1.1" viewBox="0 0 284.2 317.5">
  <!-- Generator: Adobe Illustrator 29.3.1, SVG Export Plug-In . SVG Version: 2.1.0 Build 151)  -->
  <g id="Shape_15">
    <path d="M176.2,122.8c.4.5.6.9.9,1.3,2.9,2.9,5.6,6,7.8,9.6,1.2,2,2.5,3.8,3.1,6.2.6,2.3,2.1,4.3,2.8,6.6.7,2.5,1.1,5.2,1.4,7.9.3,2.5.5,5.1.3,7.6-.2,2.9-.8,5.7-1.3,8.6-.4,1.9-.8,3.8-1.4,5.7-.7,2-1.5,4-2.5,5.9-1.5,2.8-3.1,5.6-5,8.3-2.7,3.9-6.1,7.1-10,9.8-2,1.4-4,2.9-6.1,4.1-4.1,2.2-8.5,3.4-13,4.5-3,.8-6.1,1.2-9.1,1.2-3.1,0-6.3-.5-9.4-1-2.4-.4-4.9-.8-7.1-1.7-3.4-1.3-6.7-3.1-10.1-4.7-.2,0-.3-.4-.4-.6.2,0,.5-.2.7,0,1.4.4,2.8.8,4.3,1.2.3,0,.7,0,1,0-.2-.3-.4-.7-.6-.8-1.2-.7-2.5-1.3-3.8-1.9-.3-.2-.9-.3-1.1-.1-2.4,1.5-4.1-.2-5.6-1.6-2-1.9-4.4-3.5-5.3-6.2,0-.2-.3-.7-.2-.7,1.3-1.3,0-1.9-.6-2.8-1.2-2-2.1-4.1-3.1-6.1-.7-1.3-1.3-2.6-1.9-3.9-.1-.2-.5-.3-.8-.4,0,.3-.3.8-.2,1,1.9,2.8,2.3,6.4,5,8.8.6.6.7,1.7,1,2.6,0,0-.2.3-.3.3-.2,0-.5-.1-.6-.3-1.2-1.6-2.5-3.1-3.4-4.8-1.6-3.1-3-6.4-4.4-9.7-1.7-4-2.7-8.1-2.7-12.4,0-2.1.2-4.1,0-6.1-.8-5.6,1-10.7,2.8-15.7,1.9-5.4,4.5-10.5,8.5-14.8,3-3.2,6-6.3,9.5-8.8,4.6-3.2,9.6-5.2,14.9-6.9,3.4-1.1,6.7-1.7,10.2-1.6,2.7,0,5.5.4,8.2.3,6.1-.2,11.4,2.4,16.7,4.9,4,1.9,7.8,4.2,11.1,7.4M118.9,127.4c-1.2-.6-2,0-2.4,1.1-.2.4-.2.8-.3,1.3.8-.4,1.6-.8,2.3-1.3.3-.2.4-.7.8-1.1.8-.3,1.5-.6,2.3-.9.1,0,.2-.4.3-.5-.2,0-.4-.3-.5-.2-.7.5-1.5,1.1-2.3,1.7M101.4,145.2c0-.2,0-.4,0-.5,2.1-4.1,3.9-8.3,6.3-12.1,2.1-3.2,4.5-6.3,7.9-8.4.8-.5,1.3-1.3,2-2-.7.3-1.5.6-2.2.9-.4.1-.8.1-1.1.1.2-.4.4-.8.7-1,2.7-1.7,5.3-3.4,8.1-4.9,4.1-2.1,8.5-3.3,12.9-4.5.5-.1.8-.5,1.3-.7-.5,0-1-.4-1.5-.3-1.9.4-3.7,1-5.6,1.5-3.7.9-7.1,2.7-10.5,4.4-4,1.9-7.1,4.8-10.1,7.9-3.3,3.3-6.1,7-8.3,11.3-3.2,6.2-5.4,12.5-5.3,19.6,0,1.7-.4,3.4-.6,5.1,0,.3.3.7.4,1,.3-.2.9-.4.9-.7.4-2.7.8-5.4,1-8.1,0-.7-.4-1.4-.3-2.1.4-3.7,1.5-7.2,3-10.6,1.8-3.9,3.7-7.7,6.6-11,.5-.6,1.3-1.1,1.9-1.6-.4.7-.8,1.5-1.2,2.2-1.2,1.8-2.5,3.6-3.5,5.5-1.3,2.3-2.4,4.6-3.4,7.1-.9,2.1-1.4,4.4-2,6.6-.3,1-.3,2-.3,3.1,0,.1.2.3.3.5.1-.1.3-.3.4-.4.7-2.6,1.5-5.1,2.4-7.9M137.2,113.9c-2.9.9-5.7,2.1-8.7,2.6-3.3.5-5.8,2.3-8.6,3.8-.6.3-1.1.6-1.6,1-.1,0-.1.4-.2.6.2,0,.4.1.6,0,1.4-.7,2.8-1.5,4.2-2.1,3.3-1.4,6.5-2.8,9.8-4,1.2-.4,2.6-.5,3.8-.5,2.5,0,3.9-2.9,6.6-2.2,0,0,0-.1.1-.1,2.6,0,5.2,0,7.7.2,1.7.2,3.3,1,5,1.4.3,0,.7-.1,1.1-.2-.2-.3-.3-.7-.5-.8-1.5-.4-3-.8-4.5-1-2-.3-4.1-.2-6.1-.4-3-.3-6.1-1.1-8.8,1.8M97.9,160.3c-.3,1-.4,2-.9,2.9-.5.7-1.1,1.2-.6,2.2.3.7,1.8,2.1,2.1,1.7.4-.6.5-1.4.6-2.2,0-1,.1-2,0-3-.1-.6-.6-1.2-1.1-1.6M108.1,192.1c.2,0,.4.1.5.3,1.9,2.7,4.2,5.1,7.3,6.5.3.1.5.2.8.2,0-.3,0-.7-.1-.9-.2-.4-.6-.7-.9-1-1-.7-2.1-1.3-3-2.1-1.2-1-2.2-2.2-3.4-3.3-.2-.2-.8,0-1.1.2M96.7,169.3c-.1,1.7,0,3.3,1.3,4.7.4.4.6,1,1,1.5,0-.7,0-1.4-.2-2.2,0-.4-.2-.7-.3-1-.3-1.1-1.5-2-.4-3.4.1-.2-.5-1-.8-1.5-.1.4-.3.8-.4,1.2,0,.1,0,.2,0,.7M109.6,136.8c-.5.8-1,1.6-1.3,2.5,0,.2.3.7.5,1.1.3-.3.6-.5.8-.9.3-.7.5-1.5.6-2.3,0-.2-.3-.4-.6-.4M114.5,131.9c-1,.9-1.9,1.7-2.9,2.6-.1.1,0,.5.1.8.3,0,.8,0,1-.3.7-.9,1.3-1.9,1.7-3M119.4,160.1c0-.2,0-.5,0-.7-.1-.4-.3-.8-.5-1.2-.3.4-.8.8-.9,1.2-.1.3.2.8.3,1.2.3-.1.6-.3,1.1-.6M105.5,145.9c.1,0,.3.1.4.2.3-1,.6-2.1.9-3.1,0,0-.1-.2-.2-.2-.2,0-.4.1-.5.3-.3.9-.5,1.7-.7,2.9M134.5,119.7c-1.2.5-2.3.9-3.5,1.4-.1,0-.3.1-.4.2.1,0,.3.2.4.2,1.4-.3,2.7-.7,4.1-1-.1-.2-.2-.5-.7-.7M167.7,158.6c.3-.2.6-.3.8-.5.2-.2.2-.5.3-.8-.5.1-1,.2-1.5.4,0,0,0,.6.4.9M158.4,204.2c-.5-.5-.9-1-1.4-1.4,0,0-.3,0-.4-.1,0,0,0,.1,0,.2,1,.2.2,2.4,2,1.3M151.1,207s0,0-.1.1c0,0,0,.1,0,.1.8,0,1.5.1,2.3,0,.3,0,.5-.5.7-.7-.3,0-.6,0-.9,0-.6,0-1.1.2-2,.3M144.5,207.9c.6.2,1.3.3,1.9.5,0,0,0-.3.1-.4-.5,0-.9-.2-1.4-.2-.2,0-.3,0-.7.2M129.2,205.5c-.4,0-.8,0-1.2-.1,0,.1,0,.3.1.3.4,0,.8,0,1.1-.2M111.1,185.7l.7.3c0-.3-.2-.6-.3-.9-.2.1-.4.3-.4.6M160,117.8c-.2.2-.5.4-.7.5,0,0,.2.2.3.3.2-.2.4-.5.4-.8M170,191.5c.3,0,.5.2.8.2,0-.1,0-.3,0-.4-.3,0-.7,0-.8.2Z"/>
    <path d="M189.4,28.5c.5-.3.8-.6,1.2-.6,1.8,0,3.6,0,5.4,0,1.3,0,1.8.5,2,2,.2,2.4.9,4.7,1.3,7,.6,3.1,1.3,6.2,2,9.3,0,.3.3.6.5,1,.3-.2.7-.3.8-.5.4-.7.8-1.5,1-2.3.6-2.6,1.2-5.3,1.8-8,.6-2.3,1.2-4.7,2-7,.2-.5,1-1.2,1.6-1.2,1.9-.2,3.8,0,5.8,0,1.3,0,1.9.3,1.5,1.8-.4,1.6-.3,3.4-.4,5.1-.1,3.1-.3,6.3-.3,9.4,0,2.4,0,4.8,0,7.2,0,1.5-.2,3-.4,4.4,0,.3-.5.8-.8.8-1.1,0-2.2.1-3.2,0-.3,0-.7-.7-.7-1,.2-3.5.4-6.9.6-10.4,0-.8,0-1.6,0-2.4,0-1.9.2-3.9.3-5.8,0-.5,0-1.1-.1-1.6-.4.4-1,.7-1.2,1.1-.8,2.4-1.4,4.8-2.1,7.3-1,3.8-2,7.5-3.1,11.3-.5,1.6-1.6,2.1-4.5,1.6-1.3-.2-1.4-1.3-1.7-2.4-.5-2.9-1.2-5.8-1.8-8.7-.6-2.7-1.2-5.4-1.9-8-.1-.5-.5-1.4-.8-1.4-1.1,0-.8.9-.8,1.6,0,3.9,0,7.7,0,11.6,0,1.9-.1,3.9-.4,5.8,0,.5-.7,1.2-1.2,1.2-3.2.6-4.1-.5-3.3-3.8.1-.5,0-1,0-1.5,0-6.5,0-13,0-19.5,0-1.1.3-2.2.6-3.4M191,43.4c0,.5,0,.9,0,1.4.3-.2.5-.3.8-.5-.2-.3-.4-.7-.8-.9M194.6,30.4c0,.3.2.6.3.8.2-.1.4-.3.7-.4-.3-.2-.5-.4-.9-.4Z"/>
    <path d="M160,33.3c.1-1.7.1-3.2.4-4.8,0-.4.8-.9,1.3-1,2.1-.2,4.3-.5,6.5-.3,3.3.2,6.7.3,9.9,1.1,3.7.8,5.7,5.3,5,8.9-.4,2-1.3,3.9-3.1,5.1-.8.6-1.9.9-2.8,1.5-.7.4-1,.9-.1,1.7,3.2,2.6,4.6,6.4,6.6,9.8.3.4.2,1.1.3,1.7-.5,0-1.1,0-1.6.1-3.8.2-5.2-2.6-6.8-5.3-1-1.8-2.2-3.6-3.4-5.4-1.2-1.7-3-2-4.8-1.8-1.1.1-2,.7-2,2.1,0,2.8-.2,5.7-.3,8.5,0,1.2-.7,1.5-1.7,1.3-.2,0-.4,0-.6-.1-2.7-.2-2.8-.2-2.7-3,0-2.7.3-5.4.3-8.2,0-3.9-.2-7.8-.3-11.9M175.6,39.2c.3-.3.7-.6,1-1,2-2.6,1-5.3-1.8-5.8-2.5-.5-5.1-.2-7.6,0-.5,0-1.2.9-1.3,1.5-.3,1.6-.3,3.2-.4,4.8,0,1.6.8,2.1,2.3,1.7.9-.2,1.7-.4,2.6-.5,1.7-.2,3.3-.3,5.2-.6M179.2,38.4c-.5.5-1,1-1.5,1.5,0,0,.4.5.5.5.8-.3,1.5-.7,1-2Z"/>
    <path d="M222,47.8c0-4.4,0-8.6,0-12.8,0-1.8.1-3.5.4-5.3.2-1.6,1.6-1.6,2.8-1.6,3.2,0,6.5.2,9.7.3,2.4,0,4.8.2,7.1.3.2,0,.6,0,.6.1.2,1.1.5,2.2.4,3.2,0,.4-1,1-1.5,1-3.9,0-7.8,0-11.7,0-1.6,0-2.2.7-2.3,2.3,0,.8-.2,1.6-.3,2.4-.3,1.4.4,1.9,1.9,1.8,1.2-.1,2.5.2,3.7.3,2.5,0,5.1,0,7.6,0,1.2,0,2,.3,1.4,1.7-.1.3,0,.7,0,1,0,1.3-.5,2.1-2,2-3.2-.2-6.3-.3-9.5-.4-2.1,0-3,.9-3,2.9,0,1.2,0,2.4,0,3.6-.1,1.5.3,2.1,1.9,2,2.3-.2,4.6,0,6.9,0,2,0,4.1.2,6.1.3.8,0,1.1.3.6,1.1-.1.2-.4.4-.3.5.6,1,.4,2.1-.6,2.4-1.1.4-2.5.3-3.7.3-.5,0-1.1-.2-1.6-.2-4.4,0-8.8,0-13.3,0-1.2,0-1.6-.3-1.5-1.5.2-2.6.2-5.2.4-8M239.5,55c-.3,0-.6.2-.8.3.2.1.5.4.7.4.2,0,.4-.4.2-.6Z"/>
    <path d="M135.7,36c.9-2.2,1.8-4.3,2.7-6.3.8-1.8.8-2.6,3.5-2.5.8,0,1.6-.2,2.4,0,.7.2,1.7.7,1.9,1.3,2.3,6.5,4.6,13,6.8,19.5.8,2.2,1.7,4.4,2.5,6.6.5,1.4.2,1.8-1.3,1.7-3.6-.2-3.7-.2-4.9-4.2-.6-2.1-1-2.5-3.6-2.6-2.1,0-4.3,0-6.4,0s-3.5.8-4.3,3c-1.2,3.2-2.6,4.1-5.9,3.4-.2,0-.4-.7-.3-1,1.2-3.3,2.5-6.5,3.7-9.8,1.1-3,2.2-6,3.2-9.2M140.9,37.3c-.7,2-1.5,3.9-2.2,5.9-.5,1.6,0,2,1.8,1.6.5-.1,1.1,0,1.7,0,1,0,2,.2,2.9,0,.7-.2,1.3-.6.8-1.8-1-2-1.6-4.3-2.4-6.4-.2-.6-.4-1.2-.7-1.8-.5.5-1,1.1-1.5,1.6-.2.2-.2.6-.4,1.1Z"/>
    <path d="M68.9,30.6c1.2,3.5,2.5,6.8,3.7,10.1.9,2.3,1.9,4.6,2.7,7,.2.7,0,1.7-.1,2.5,0,.4,0,.8-.1,1.3.2-.2.5-.5.7-.4.5.2,1.1.4,1.2.8.3,1.1,2,2.3.8,3-1.1.7-3.1.4-4.5,0-.7-.2-1.2-1.6-1.6-2.6-.2-.5-.2-1-.4-1.5-.8-2.4-2.4-3.1-5.1-2.8-2,.3-4,0-6-.1-1.4-.1-2.1.6-2.6,1.7-.2.4-.3.9-.5,1.3q-1.1,3.4-4.6,3.4c-2.3,0-2.3,0-1.5-2.3.9-2.4,1.8-4.8,2.7-7.2,2.3-5.9,4.5-11.7,6.7-17.6.5-1.4,1.3-2,2.8-1.8.4,0,.8,0,1.2,0,2.5,0,3.1-.4,3.8,3.2.1.6.4,1.2.7,1.9M65.2,32.4c.4-.6.9-1.1,1.3-1.7.2-.2.1-.6.2-.9-.3,0-.7-.1-.9,0-.4.2-.7.5-.9.9-.4.9-.7,1.8-1.1,2.8-1.2,3-2.4,6.1-3.6,9.2,0,.1.4.7.7.7,1.4,0,2.8,0,4.2,0,2.5,0,3.1-.9,2.2-3.2-.9-2.4-2.2-4.7-2-7.8Z"/>
    <path d="M86.5,3.8c.2-1.4.9-1.9,2.2-1.7.7,0,1.4,0,2,0,1.3,0,2,.7,2.2,1.9.7,3,1.3,6.1,2,9.1,0,.3.3.6.4.8.3-.3.8-.6.9-.9.7-2.7,1.5-5.3,2-8,.6-2.8,3.3-4.1,5.8-2.6,1.5.9,1,2.4,1,3.7,0,2.6-.2,5.1-.3,7.6,0,2,0,4-.4,5.9,0,.5-1.2,1-1.9,1.2-.2,0-1.1-.7-1.1-1.1.1-3.6.4-7.2.6-10.7,0-.4-.2-.9-.3-1.3-.4.2-.9.4-1.2.7-.3.3-.4.9-.5,1.3-.8,3.2-1.5,6.5-2.4,9.7-.1.5-.9,1.1-1.3,1.1-.8,0-2,.7-2.3-.8-.5-2.1-1.2-4.3-1.7-6.4-.3-1.6-.5-3.2-.7-4.8,0-.3-.3-.5-.5-.8-.2.2-.4.4-.5.6-.3.9-.6,1.7-.7,2.6,0,2.4,0,4.7,0,7.1,0,.7-.3,1.5-.7,2-.4.4-1.2.5-1.8.4-.2,0-.5-.8-.5-1.3,0-3.3,0-6.5,0-9.8,0-1.9-.2-3.7-.3-5.8Z"/>
    <path d="M87.6,31.6c0,3.3,0,6.4,0,9.5,0,2.6.5,5.2.2,7.7-.2,1.4.5,1.8,1.2,2,1,.3,2.1.1,3.2,0,1.1,0,2.2-.3,3.3-.3,1.9,0,3.7.2,5.6.3,1,0,1.8,0,1.1,1.4-.2.4,0,.9,0,1.3,0,1.1-.5,1.7-1.6,1.6-1.5,0-3.1-.3-4.6-.3-.9,0-1.7.3-2.6.3-3.1,0-6.1-.2-9.2-.3-.9,0-1.7-.3-1.8-1.6,0-5.8-.2-11.5-.3-17.3,0-2.5,0-5.1,0-7.6,0-1.5.7-2.3,2.2-2.2,1,0,1.9,0,2.9,0,.7,0,1.2,0,.8,1.2-.5,1.2-.3,2.7-.4,4.2M85.4,48.5c-.4,1.1-.8,2.2-1.2,3.3,0,.2.3.6.6.7.1,0,.6-.2.6-.4,0-1.2.1-2.3,0-3.7Z"/>
    <path d="M106.9,53.3c.1-3.1.3-6.1.3-9.1,0-4.9-.2-9.7-.3-14.6,0-2.6.2-2.8,2.8-2.8.4,0,.8,0,1.2,0,1.3-.3,1.9.2,1.8,1.5-.1,2-.2,4-.3,5.9-.1,2.7-.3,5.5-.3,8.2,0,2.5.2,5,.4,7.5,0,.4.6.9,1,.9,2.4.2,4.9.3,7.3.4,1.8,0,3.5.2,5.3.3.2,0,.5,0,.5,0,0,1,.2,2,.1,3,0,.4-.8,1-1.2,1-2.4,0-4.8-.3-7.1-.3-2.2,0-4.3.2-6.5.3-.8,0-1.7,0-2.5,0-2.1,0-2.2.3-2.2-2.4M122.8,53.4c-.3-.1-.6-.3-.9-.4,0,.1-.1.4-.1.4.3.1.7.2,1,0Z"/>
    <path d="M75,1.4c2.3.3,4.6,0,6.4,1.8,2.2,2.1,2,6.2-.8,8-1.9,1.3-1.8,1.2-.5,3,1.2,1.6,2.1,3.4,3.1,5.1.6,1,0,1.3-.9,1.4-1.6.2-2.5-.9-3.2-1.9-1-1.3-1.7-3-2.8-4.2-.8-.9-2.1-1.5-3.3-1.9-.4-.1-1.3.9-1.8,1.6-.3.3-.2.9-.2,1.4-.1,1.2-.3,2.4-.3,3.6,0,1.2-.8,1.3-1.5,1.1-.6-.2-1.5-.8-1.5-1.3,0-3,.2-5.9.2-8.9,0-1.3-.3-2.6-.4-3.9-.1-1.1-.3-2.3-.2-3.4,0-.7.4-1.5,1.6-1.4,2,.1,4,0,6.1,0M75.5,9.6c.7-.1,1.5-.1,2.2-.4,1.2-.4,1.8-2.5,1-3.2-1.9-1.6-4.2-1.3-6.4-1-.3,0-.8.5-.9.9-.8,1.9.4,3.6,2.4,3.6.5,0,.9,0,1.7,0Z"/>
    <path d="M197.1,14.2c.6.4,1.1.8,1.7,1.1,0-.5.3-.9.3-1.4.1-2.9.2-5.9.4-8.8,0-.3.8-.9,1.2-.9.8,0,2.1-.6,2.1.8.1,2,0,3.9-.1,5.9-.2,3.4-.6,6.9-.4,10.3,0,1.6-.9,1.9-1.6,1.8-1-.1-2.3-.7-2.8-1.4-1.7-2.7-3-5.5-4.5-8.3-.3-.6-1-.9-1.5-1.4-.3.7-.8,1.3-.8,2-.1,2.5,0,5-.2,7.5,0,.5-1.2,1.1-1.9,1.4-.3,0-1.3-.8-1.3-1.2,0-1.9.2-3.9.2-5.8,0-2.4,0-4.7,0-7.1,0-1-.1-1.9,0-2.9.1-.7.4-1.9.8-1.9.9-.2,1.9,0,2.8.3,1.9.8,2.1,2.9,3.1,4.4,1,1.7,1.6,3.6,2.5,5.5Z"/>
    <path d="M263.4,14.3c-.1,1.5-.3,2.8-.3,4.1,0,1.2.1,2.4,0,3.5-.1.7-.5,1.8-1.1,2-.6.3-1.8,0-2.3-.5-.9-1-1.6-2.2-2.3-3.4-1.2-2-2.2-4-3.4-6-.3-.4-.7-.7-1.1-1.1-.3.5-.8,1-.8,1.5,0,2.4,0,4.9,0,7.3,0,1.2-.5,1.7-1.7,1.7-1.1,0-1.8,0-1.7-1.5.2-4.9.2-9.7.4-14.6,0-.9.6-2.1,1.3-2.5,1-.6,2.1.1,2.7,1.1,1.6,2.8,3.2,5.7,4.8,8.5.1.2.2.4.3.6.5.5,1,1.1,1.5,1.6.2-.6.5-1.3.5-1.9,0-2.3.1-4.7,0-7,0-1.6.9-2.3,1.9-2.9.8-.5,1.9.4,1.8,1.5,0,2.3-.2,4.6-.3,7,0,.3,0,.6,0,1Z"/>
    <path d="M172.8,4.7c-.1,1.8-.2,3.5-.2,5.3,0,.3.5.8.9.9,1.5.2,2.9.3,4.4.4,1.4,0,2.1-.7,2.1-2.1,0-1.4,0-2.8,0-4.1,0-.4.8-1.1,1.2-1.2,2.5-.4,3.2.6,2.8,3.1-.3,2.1-.3,4.2-.4,6.3-.1,2.7-.1,5.3-.4,8,0,.6-1.3,1.5-2,1.4-1,0-1.9-.8-1.7-2.2.2-1.7.3-3.4.3-5.1,0-.4-.5-1-.8-1.1-1.7-.1-3.4,0-5.1,0-1.5,0-1.7.9-1.8,2-.1,1.6-.3,3.3-.3,4.9,0,1.7-1.6.9-2.2,1.5-.4-.5-1.1-1-1.2-1.6-.2-1.2,0-2.5,0-3.8,0-2.3.2-4.6.3-7,0-1.6,0-3.2,0-4.7,0-1.1.5-1.9,1.4-2.1,1-.2,2.3-.5,2.6,1.2Z"/>
    <path d="M133.7,21.7c-1.1-.2-1.5-.7-1.5-1.8,0-4.1,0-8.2,0-12.4,0-.7-.2-1.4-.3-2.1-.2-1.2,1-2.6,2.2-2.6,3.5,0,7,.2,10.5.3,1.1,0,1.4.8,1.4,1.8,0,1.1-.5,1.3-1.4,1.3-2.1,0-4.3,0-6.4,0-1.5,0-3.2,2.1-2.6,3.5.1.3.8.6,1.2.6,2.4.2,4.9.2,7.3.4.4,0,.9.4,1.3.7-.7.5.2,2.1-1.4,2-1.9,0-3.8,0-5.8,0-1.7,0-2.7,1-2.7,2.8,0,.6-.2,1.2,0,1.7.3.6,1,1.2,1.5,1.3,2.5.1,4.9,0,7.4,0,.7,0,2-.3,1.8.7-.2.9-1.2,2-2.1,2.2-1.4.3-2.9-.2-4.4-.2-2,0-4.1,0-6.2,0Z"/>
    <path d="M28.9,19.3c-2.1.4-3.4-.3-4-2.3-.5-1.4-1.5-2.1-3.1-2-1.1,0-2.3,0-3.4,0-1.5,0-2.3,1.1-2.9,2.3-.9,1.7-2,2.4-3.6,1.7-.4-.1-.6-1.6-.3-2.2,1.2-3.2,2.6-6.4,3.9-9.6.5-1.4.9-2.8,1.4-4.2.1-.4.3-.9.6-1.3.8-.9,1.5-2.1,3-1.6,1.3.4,2,1.3,2.5,2.7,1.8,4.8,3.8,9.6,5.7,14.4.2.6.3,1.4.3,2.1M20.2,5.3c-.7,1.6-1.5,3.2-2.1,4.9-.2.4,0,1,0,1.5.4,0,.8,0,1.3,0,.2,0,.5,0,.7,0,2.6-.1,2.7-.3,1.9-2.9,0-.2,0-.4,0-.5-.5-1.1-1.1-2.1-1.7-2.9Z"/>
    <path d="M50.3,9.9c.7-2.1,1.4-4,2-5.9.8-2.4,1.5-2.8,3.8-2.9,2.4-.2,2.4,1.9,2.9,3.1,1.9,4.6,3.5,9.4,5.2,14.1.2.6.2,1.4.2,2.1-1,0-2.1.4-2.9-.7-.4-.7-.6-1.5-1.1-2.1-.6-.7-1.3-1.6-2.1-1.7-1.7-.3-3.5-.4-5.2,0-.8.2-1.5,1.4-2.2,2.2-.5.6-.8,1.4-1.5,1.7-.6.3-1.5.2-2.3.2,0-.6-.2-1.3,0-1.9,1-2.6,2-5.3,3-8.1M51.5,13.3s0,0-.1.1c0,0,0,.1,0,.1.3,0,.7.2,1,0,1.1-.3,2.2-.8,3.3-1,1.8-.2,2.4-1,1.9-2.7-.1-.5-.3-1-.5-1.5-.2-.6.2-1.8-1.1-1.6-.5.1-1,.9-1.4,1.4-.3.5-.4,1.2-.7,1.7-.7,1.1-1.6,2-2.5,3.2Z"/>
    <path d="M236.3,20.8c2.4-.2,4.6-.4,6.9-.6,1.2-.1,2.5.5,2.6,1.5.2,1.5-.7,2.5-2.3,2.5-3.7-.2-7.5-.4-11.2-.7-1.4,0-2-1.7-1.1-3.4.7-1.3,1.7-2.5,2.6-3.7,1.5-1.9,3.1-3.7,4.8-5.5.9-.9,2-1.6,3-2.4.3-.2.5-.5.8-.8-.4,0-.7-.2-1.1-.1-2.2,0-4.3.3-6.5.3-.7,0-1.7-.3-2.1-.8-.7-.9.2-2.2,1.6-2.2,2.7,0,5.4,0,8.1,0,.4,0,.9,0,1.3,0,.7,0,1.8,0,2,.2.3.6.4,1.7,0,2.3-1,1.7-2.1,3.3-3.3,4.7-2.1,2.5-4.3,4.8-6.4,7.2-.3.4-.5.9-.7,1.4.3,0,.6,0,1,.1Z"/>
    <path d="M183.8,283.2c.7,1.8,1.3,3.5,1.9,5.2.2.5.5,1.1.5,1.6,0,.4-.3.9-.4,1.3-.5-.2-1.3-.2-1.4-.6-.9-2.3-1.8-4.6-2.4-7-.3-1.3-.8-1.7-2-1.6-.4,0-.8,0-1.2,0-.6-.1-1.1-.3-1.6-.5.4-.4.8-1.1,1.3-1.3,3.2-.9,6.5-1.8,9.8-2.6.4,0,1,0,1.2.3.8,1,1.4,2.2,2.3,3.3.4.4,1.1.5,1.7.8.2-.5.6-1,.6-1.5,0-1.7-.3-3.4-.3-5.1,0-.4.6-1.1,1-1.1.6,0,1.4.2,1.7.6,1.1,1.3,2,2.7,3,4,.3.4.8.8,1.2,1.1.1-.7.4-1.3.3-1.9-.2-1.7-.6-3.5-.8-5.2,0-.4.6-.8,1-1.3.3.4.9.9,1,1.4.5,2.7.9,5.5,1.3,8.3,0,.4,0,.8,0,1.2,0,.8,0,1.8-1,1.9-.7,0-1.5-.4-2-.9-1.2-1.3-2.2-2.7-3.4-4-.2-.3-.6-.4-.9-.6-.2.4-.5.8-.5,1.1.2,1.8.5,3.6.6,5.5,0,.7-.3,1.4-.4,2.1-.7-.2-1.6-.1-2-.6-1.5-1.6-2.9-3.3-4.3-5-.6-.7-1-1.5-1.6-2.2-.1-.2-.6-.1-.9,0-.6.3-1.2,1-1.8,1-1.7,0-2,.9-1.8,2.3Z"/>
    <path d="M160,22.4c-1.4,0-2.9.4-4.1,0-3.7-1.1-6.5-4.9-6.5-8.8,0-2.8.1-5.3,1.9-7.5,1.7-2.2,3.9-3.3,6.9-3.1,2.5.2,4.4.8,6,2.7.7.8,1.6,1.7.5,2.8-1.1,1.1-2,.8-3-.2-.7-.6-1.3-1.4-2.2-1.7-3.4-1.2-5.9,1.4-6.4,3.8-.4,1.7-.3,3.5,0,5.2.3,2,1.7,3.4,3.7,3.8,2,.4,3.4-1,4.5-2.4.8-1,2.7-1.3,3.6-.3.1.2,0,.6,0,.9-.8,2.4-2.5,3.8-4.8,4.8Z"/>
    <path d="M223.3,4.2c1.4.6,2.8,1,4,1.7.6.3,1.1,1,1.3,1.6.2.7-.1,1.5-.2,2.3-.9-.2-1.9.8-2.8-.2-1.3-1.6-2.8-2.4-5-1.9-2.6.6-3.3,2.6-3.6,4.7-.2,1.8,0,3.8.3,5.7.4,2.1,4.4,3.2,6.1,1.8.6-.5,1.2-1.2,1.6-1.9.9-1.3,2.7-1.3,3.5,0,0,.2.2.4.1.6-1.9,4.3-6,7-10.9,3.9-4-2.5-5.2-6.1-4.4-10.8.5-3.1,2-5.3,4.6-6.7,1.5-.8,3.4-.6,5.3-.8Z"/>
    <path d="M268.4,218.8c-1,1.9-2,3.8-3,5.7-.7,1.4-1.7,1.5-2.5.1-.9-1.5-1.5-3.1-2.2-4.7,0,0,0-.3,0-.3-.7-1-1.5-2-2.3-3.1-.7.8-1.3,1.6-2,2.4-.1.2-.3.4-.5.5-.4.3-.8.5-1.3.8,0-.6-.3-1.3-.1-1.7.8-1.9,1.8-3.6,2.7-5.5.5-1,.8-2,1.2-2.9.5-1.2,1.3-1.8,2.7-1.7.8,0,1.6,0,2.4-.4,1.1-.4,1.2-1.9.2-2.7-1.2-1-2-2.2-1.7-3.9,0-.3.5-.6.8-.9.2.2.4.5.6.7.7.8,1.4,1.6,2,2.5,1.6,2.4,3.5,4.4,6.5,4.9.3,0,.6.6.8.9-.4.3-.8.7-1.2.7-.8,0-1.6-.1-2.4-.4-1.3-.5-2.3-.9-3.8,0-1.3.8-3.2.8-4.8,1.1-1.4.2-1.2.9-.8,1.8.9,1.9,1.7,3.9,2.5,5.9.3.8.4,1.8.6,2.6.1.4.3.8.5,1.1.4-.3.9-.6,1.2-1,.9-1.4,1.6-2.9,2.4-4.4.2-.3.4-.8.7-.9.5-.1,1.1,0,1.6,0-.1.4-.2.8-.4,1.2-.2.4-.4.9-.7,1.4Z"/>
    <path d="M280.5,9.5c-1.6,2.5-3.4,4.9-4.6,7.5-.7,1.5-.4,3.4-.3,5.1,0,1.3-.5,2.2-1.7,2-.8-.2-1.8-1.3-2-2.1-.3-1.3.3-2.7.2-4.1,0-1.2-.4-2.4-1-3.5-1.4-2.7-2.9-5.3-4.6-7.9-.5-.8,0-1,.3-1.2,1.4-.9,3.7.1,4.4,1.7.7,1.6,1.6,3.1,2.5,4.5,0,.2,1,.1,1.1,0,1.1-1.5,2.1-3.1,3.1-4.6.7-1.1,4-2.2,5.1-1.6.1,0,0,1-.3,1.4-.6,1-1.4,1.9-2.2,2.9Z"/>
    <path d="M93.3,69.5c0,2.8,0,5.4,0,8,0,.9-.2,2-1.5,1.8-.3,0-.9-.8-.8-1.2.1-2.3.4-4.6.6-6.8,0-.4-.2-.9-.2-1.4-.4.3-.9.5-1.1.9-.7,2.3-1.4,4.6-2,6.9-.3,1-.8,1.6-1.7,1.3-.6-.2-1.2-.9-1.3-1.5-.6-2.2-.9-4.4-1.4-6.5,0-.2-.3-.4-.4-.7-.2.2-.5.3-.6.5-.3.6-.6,1.3-.6,1.9,0,1.6,0,3.2,0,4.7,0,.6-.8,1.1-1.2,1.6-.3-.5-.7-1-.7-1.6,0-3.4,0-6.8,0-10.2,0-.9.2-1.8,1.2-1.8,1.1,0,2.5-.4,2.9,1.3.5,2.5,1.1,5,1.7,7.4,0,.4.4.7.6,1.1.1-.3.3-.6.4-.9.7-2.3,1.4-4.6,2-6.9.5-1.6,1.7-1.8,3.1-1.7,1.3,0,1.4,1,1.3,2,0,.5,0,1,0,1.7Z"/>
    <path d="M10.8,170.6c.8-.2,1.6-.3,2.3-.4.5-.1.9-.4,1.3-.6-.5-.2-1-.6-1.5-.7-2.4-.5-4.8-.8-7.2-1.4-.7-.2-1.7-1-1.7-1.5,0-.8.3-1.7,1.6-2,3.1-.7,6.1-1.7,9.1-2.5.3,0,.7,0,1,0,.5.1,1,.4,1.4.5-.3.5-.5,1.2-.9,1.4-1.5.6-3,1-4.5,1.4-.9.3-1.8.5-2.7.9-.3.1-.4.5-.6.8.3.1.6.3.9.4,2,.2,4,.5,6,.7,1.4,0,2.1,1,2.1,2.1,0,.7-.9,1.6-1.7,1.9-2,.8-4.1,1.3-6.1,2-.3.1-.6.4-.9.6.4.2.8.4,1.1.5,1.6.2,3.2.1,4.8.4,1.2.2,2.3.6,3.4,1.1.2,0,.2.8,0,1.1-.1.3-.7.5-1,.4-3.6-.6-7.2-1.4-10.8-2-1.2-.2-1.9-.7-1.7-2,.1-1.3,1-1.2,2-1.4,1.4-.3,2.7-1,4.2-1.6Z"/>
    <path d="M124.1,8.2c-.1,1.9-.3,3.7-.3,5.4,0,1.9,0,3.8,0,5.6,0,1.3-.6,2.1-1.9,2.1-1.4,0-1.5-1-1.5-2.1,0-4,0-8,0-12,0-1.4-.5-1.9-1.9-1.9-.7,0-1.5,0-2.2,0-1.2,0-1.7-.5-1.7-1.7,0-1.3.6-1.4,1.6-1.4,4.1.1,8.1.2,12.2.3.9,0,1.5.3,1.5,1.4,0,1-.2,1.8-1.5,1.7-.4,0-.8,0-1.2,0-1.7-.2-2.8.4-3.1,2.4Z"/>
    <path d="M181.4,219.9c-.3-1.3-.9-2.4-.9-3.5,0-.6.8-1.5,1.4-1.8.4-.2,1.5,0,1.9.5,1.2,1.7,2.3,3.4,3.4,5.2.5.8,1.1,1.6,1.6,2.4.2.3.4.6.4.8,0,.7-.2,1.4-.4,2-.5-.4-1.2-.7-1.6-1.3-.8-1.1-1.4-2.4-2.1-3.5-.2-.3-.6-.6-1-.8-.1.4-.4.8-.3,1.1.3,1.7.7,3.4,1,5.2,0,.6,0,1.2,0,1.7-.7-.1-1.5,0-1.9-.4-1.3-1.1-2.4-2.4-3.6-3.5-.3-.3-.8-.4-1.1-.5-.1,0-.4,0-.5,0,0,0-.1.3,0,.5,1.1,1.7,2.3,3.3,3.3,5.1.2.3,0,1,0,1.5-.7-.1-1.8,0-2-.3-1.5-2.4-2.8-4.8-4.1-7.2-.3-.5-.5-1.2-1-1.4-1.7-1-.7-1.5.2-2,1.3-.8,2.4-1.3,3.5.3.9,1.2,2.1,2.2,3.2,3.2.4.4,1.1.4,1.6.6,0-.5,0-1-.2-1.5-.2-.7-.4-1.4-.7-2.3Z"/>
    <path d="M82.7,118.4c2.1,1.4,4,2.8,6.1,3.9.9.5.9,1,.5,1.8-.9,1.6-1.6,3.2-2.7,4.6-1.6,2.2-3.8,2-5.5,0-.4-.4-1.1-.9-1.6-.9-4.4.5-5.4-3.7-3.9-6.5.8-1.4,1.5-2.8,2.3-4.2.2-.3.7-.5,1-.4,1.2.4,2.4,1,3.7,1.6M80.3,124.7c.5-.9,1-1.7,1.6-2.6.7-1.2.3-2.4-1-2.4-.7,0-1.9.4-2.2,1-.7,1.2-1,2.6-1.4,4,0,.1.8.6,1.2.6.5,0,1.1-.3,1.8-.6M82.1,126.6c.4.5.8,1.4,1.2,1.4.6,0,1.3-.5,1.7-1,.6-.6,1.1-1.3,1.4-2.1.2-.6.2-1.7-.1-1.9-.5-.3-1.6-.3-2,0-.9.9-1.5,2-2.2,3.4Z"/>
    <path d="M32,2.8c.2-.7.3-1.6.5-1.6,1,0,2.1,0,3,.3.1,0,0,1.1,0,1.6,0,1.6.2,3.1.2,4.7,0,2.2-.3,4.3-.3,6.5,0,1.6.7,2.4,2.4,2.4,1.9,0,3.8,0,5.8,0,.8,0,2-.2,1.6,1.1-.2.7-1.1,1.7-1.8,1.8-1.2.2-2.5-.2-3.7-.2-1.7,0-3.4.3-5.1.3-2,0-2.2-.2-2.2-2.2,0-1.2,0-2.5,0-3.7,0-3.6-.2-7.2-.3-11Z"/>
    <path d="M227.8,69.9c.6,1.8-.2,4.4-1.9,5.3-1.2.6-.8.9-.2,1.6.9,1,1.8,2.2,2.6,3.3.2.2,0,1-.2,1.1-.5.2-1.3.3-1.6,0-1.4-1.5-2.6-3.1-4-4.5-.5-.5-1.7-.7-2.3-.6-.7.2-1.1,1-.6,2,.3.6,0,1.6-.3,2.3-.2.4-.8.8-1.3.8-.3,0-.9-.4-1-.7-.2-.6-.4-1.4-.4-2,.2-3.1.5-6.2.6-9.4,0-1,.3-1.4,1.3-1.4,2,0,4,0,5.9,0,1.4,0,2.6.6,3.3,2M221.5,69.9c-.4.1-.8.2-1.2.4-1.3.7-1.1,1.9-.9,3,0,.3.9.7,1.4.7,1,0,2.1,0,3-.4.8-.3,1.4-1.1,1.9-1.8.1-.2-.7-1.2-1.3-1.4-.8-.3-1.7-.3-2.9-.4Z"/>
    <path d="M192.8,260c-.6-.2-1.1-.2-1.6-.3.2.4.5.7.6,1.1.8,1.7,1.6,3.4,2.3,5.1.2.4,0,1-.2,1.5-.5-.3-1.2-.4-1.5-.9-.9-1.4-1.6-2.9-2.4-4.4-.6-1.1-1.3-2.3-2.1-3.4-.9-1.2,0-2.1.6-2.9.6-.9,1.6-.9,2.4-.2,1,.9,1.9,2,2.8,3.1.4.4.6,1.1,1.1,1.4.3.2.9,0,1.3,0,0-.3,0-.6,0-.9-.3-1.7-.7-3.4-1-5.2-.3-1.5.9-2.1,1.9-2.5,1.1-.4,1.4.6,1.8,1.5,1.1,2.7,2.3,5.3,3.5,7.9.1.3.4.5.4.8,0,.4-.2.8-.3,1.2-.3-.1-.8-.2-.9-.4-.6-1-1.2-2.1-1.7-3.2-.4-.7-.8-1.5-1.3-2.2-.1-.2-.5-.3-.7-.5-.1.3-.4.6-.4.9.3,1.8.8,3.5,1,5.3,0,.7-.3,1.4-.4,2.1-.6-.3-1.5-.4-1.9-.9-1.2-1.2-2.3-2.6-3.5-4.1Z"/>
    <path d="M275.1,201.5c-.8.2-1.5.5-2.1.4-2.7-.6-5.3-1.2-8-2-.7-.2-2-.2-1.7-1.5.6-2.4.8-5,2.4-7.1,1.2-1.5,2.7-1.7,4-.3.9.9,1.7,1.1,2.8.5,1.2-.7,2.3-.3,3.3.4,1.2.8,1.7,2.1,1.4,3.4-.5,2.1-1.3,4.1-2.1,6.2M273.7,198.9c.4-.8.7-1.8,1.2-2.5.9-1.3.1-2.3-.8-2.7-.5-.2-1.7.5-2.2,1.1-.6.7-.6,1.8-1.1,2.6-.6,1-.3,1.5.6,1.6.6.1,1.3,0,2.3,0M269.5,195.7c0-.3,0-.6.1-.8.6-.8.7-1.5-.2-2-.9-.5-1.8-.4-2.4.6-.4.7-.6,1.4-.9,2.2-.6,1.7,0,2.3,1.6,1.9.6-.2,1.1-1.1,1.8-1.8Z"/>
    <path d="M32.1,181.1c1.9-.4,3.8-.6,5.5-1.2,1.3-.5,1.9.2,2.1,1.1.4,1.9.6,3.9.7,5.8.1,2.8-1.1,3.7-3.9,3.1-.4,0-1,.2-1.5.5-3.9,2.6-6.7,1.3-7.5-3.4-.2-1.2-.7-2.3-.6-3.4,0-.7,1-1.5,1.7-1.8,1-.4,2.2-.4,3.4-.7M33.4,185.2c0-1.5-1.2-2-2.7-1.3-1.6.7-1.6,2.1-.7,4.4.6,1.4,1.7,1.4,2.5,1.1.9-.4,1.5-1.4,1.1-2.6-.1-.4-.2-.8-.2-1.6M38.4,184.2c-.2-.5-.4-1.4-.6-1.4-.8,0-1.8.1-2.4.6-.4.3-.3,1.3-.2,2,0,.5.5,1,.5,1.5.1,1,.5,1.2,1.4.8.9-.3,1.9-.5,1.5-1.8,0-.4-.2-.8-.2-1.6Z"/>
    <path d="M70.5,140.2c-.1,0-.2,0-.3,0-.8-.2-1.6,1.3-2.3.1-.4-.7,1.5-3,2.4-3.2,1-.2,2-.4,2.9-.7.2,0,.4-.2.5-.3.6-.7,1.3-1.4,1.9-2.1-.6-.4-1.1-.9-1.8-1.2-.5-.3-1.1-.3-1.6-.6-.5-.3-1.2-.8-1.2-1.2,0-.9.8-1.3,1.7-1,1.4.4,2.8.7,4.1,1.1,1.7.6,3.3,1.3,5,1.9,1.5.6,1.9,1.9,1.1,3.9-.5,1.3-1.2,2.5-1.8,3.8-.6,1.6-2,2.1-3.4,2-1.7,0-2.8-1.4-2.9-3.1,0-1.2-.3-1.1-1.3-.7-1,.5-2.1.6-3.3,1M79.1,140.2c.6-1.2,1.3-2.3,1.6-3.5.3-1.1-.3-1.8-1.5-1.8-1.1,0-2.3,1.4-2.5,2.9-.2,1.9.3,2.5,2.4,2.3Z"/>
    <path d="M131.7,74.4c.9,1.6,1.9,3.2,2.9,4.8.1.2-.3.9-.3.8-.8-.3-1.8-.4-2.3-.9-.9-.9-1.8-1.9-2.3-3.1-.7-1.5-2-1.7-3.2-1.3-1.1.4-1.3,1.6-1.3,2.8,0,.6.7,1.4-.2,2-.3.2-.8.6-.9.5-.4-.3-.8-.7-.8-1.1,0-2.4.2-4.8.3-7.2,0-1.3,0-2.6,0-3.9,0-.4.5-1.2.9-1.2,2.1-.2,4.1-.3,6.2-.2,2.1,0,3.2,1.6,3.5,3.3.2,1-.7,2.3-1.2,3.4-.2.5-.8.8-1.3,1.3M130.7,68.8c-1.1-.1-2.2-.5-3.2-.2-.8.2-1.6,1.2-2,2-.2.4.5,1.6,1,1.8.9.3,2,.3,2.9,0,2.3-.7,2.9-2.2,1.3-3.6Z"/>
    <path d="M215.3,207.5c.2-.1.4-.1.5-.2,2.2-1.8,3.2-.8,4.5.7.5.6,1.3,1.3,2,1.4,3.8.3,5.1,2.3,3.3,5.7-.6,1.2-1.4,2.3-2.3,3.3-1.4,1.6-2.4,1.6-4.2.3-2-1.5-3.9-3-5.9-4.5-1.9-1.4-1.8-1.4-.4-3.3.8-1,1.5-2.2,2.4-3.4M222.5,211.5c-1.8,0-2.1,1.9-3.4,2.7-.7.5-.5.9,0,1.4,1.9,2,3.2,1.7,4.2-.9.1-.4.5-.7.7-1.1.7-1.3.4-1.8-1.5-2.2M219.2,209.4c-.9-1.2-1.9-.8-2.6,0-.9.9-1.8,2-1,3.4.2.4,1.4.7,1.8.5,1.4-.8,1.7-2.3,1.9-3.8Z"/>
    <path d="M50.2,69.5c0-.2,0-.3,0-.3,0-1.2-.4-2.8.2-3.6.6-.7,2.2-.4,3.4-.5,1.2,0,2.4,0,3.6,0,1.7,0,3,1,3.4,2.5.4,1.3.5,2.9-1,3.9-.2.1-.3.3-.5.5-1.3.8-1.1,1.7-.2,2.7.7.8,1.2,1.6,1.8,2.5.2.4.3.9.4,1.3-.7,0-1.6.1-1.9-.2-1-1-1.7-2.3-2.6-3.5-.5-.6-1.2-1.3-1.9-1.5-2.2-.5-2.8.2-2.9,2.5,0,.9-.5,1.7-.8,2.5,0,0-1.1-.1-1.1-.3,0-1,0-2.1,0-3.1v-5.5M55.5,67.2c-.3,0-.7,0-1,0-1.5.2-2.6,1.7-2.2,3.2.5,1.6,1.6.8,2.6.5.5-.1,1.1.2,1.5,0,.8-.4,1.7-1,2.2-1.7.2-.2-.4-1.3-.9-1.7-.5-.3-1.3-.2-2.3-.3Z"/>
    <path d="M63.5,272.1c-2.6-1.5-5-3-7.4-4.6-.2-.1-.2-.8,0-1,2.1-2.7,4.2-5.4,6.3-8,.7-.9,1.4-.9,2.2,0,1.3,1.2,2.8,2.3,4.1,3.5,1.6,1.5,1.3,3.7-.7,4.8-.8.4-1.4.8-1.1,2,.3,1.7-.7,2.8-2.5,3.1-.2,0-.5.2-.9.3M63.2,265.8c-.8-.3-1.7-1-2.4-.8-.8.2-1.3,1.2-2,1.9.5.5,1,1,1.6,1.5.4.4.8.9,1.3.9.9,0,1.8-.1,2.6-.2-.1-.8-.2-1.7-.4-2.5,0-.2-.4-.4-.7-.8M64.4,264.3c.8.9,1.9,1.1,2.7.2.9-1,.2-1.8-.6-2.5-.4-.4-.8-.7-1.3-1-1-.6-2.1.1-2.8,1.5-.8,1.5.6.9,1,1.2.2.1.4.4.9.6Z"/>
    <path d="M108.9,252.8c-1.8-.7-3.4-1.6-5.1-2-1.2-.3-.9-.9-.6-1.4,1.2-2.9,2.4-5.9,3.7-8.8.2-.5,1.1-1.1,1.6-1,2.3.5,4.6,1,6.4,2.7,1.1,1.1,1.2,2.8,0,3.9-1,1-1.6,1.8-.8,3.4.3.7-.5,2.4-1.4,3.1-.7.6-2.1.2-3.2.3-.2,0-.3,0-.6-.1M108.9,246.8c-.4,0-.9-.3-1.1-.1-.7.7-1.5,1.4-1.9,2.3-.6,1.3.7,1,1.3,1.2.7.2,1.5.3,2.1.6,1.4.7,1.9-.5,2.5-1.2.1-.2-.7-1.3-1.2-1.8-.4-.4-1-.5-1.7-.9M109.1,242.3c-1.6,1.7-1.5,2,.4,2.8.3.1.5.4.8.4.8,0,1.7,0,2.5-.3.3-.1.5-1,.5-1.6,0-.7-3-1.7-4.2-1.4Z"/>
    <path d="M257.9,189.1c-2.8-.5-5.5-1-8.2-1.5-.9-.2-1.9-.3-2.8-.5-.3,0-.9-.6-.8-.8.5-2.3,1-4.5,1.7-6.7.4-1.2,1.3-2.3,2.8-2.3,1.6,0,2.9.6,3.5,2.1.5,1.3,1.3,1,2.2.6,1.2-.5,2.5-1.1,3.7-1.6.4-.1.8,0,1.2,0-.1.4-.2.8-.4,1.2-.7,1.5-2,2.2-3.5,2.8-1.2.5-2.2,1.4-3.1,2.4-.8.9-.5,1.6.8,1.6.8,0,1.6,0,2.4.4,1.2.4,1.7,1.2.5,2.3M250.8,185.2c1.4-.8,2.4-3.6,1.6-4.8-.2-.3-.6-.4-1-.4-1.7,0-2.3.9-2.7,3.4-.2,1.5.2,2.3,2,1.8Z"/>
    <path d="M214.6,181c-1.9-.6-4-.5-5.1-2.3-.4-.6-.8-1.1-1-1.7-1.2-3.4,0-7.3,2.7-7.9.5-.1,1,0,1.5,0,0,.5.1,1.2-.1,1.6-.3.7-.9,1.3-1.4,1.8-1.4,1.3-.8,2.7-.2,4.1.6,1.5,1.9,1.6,3.3,1.8,2.5.4,4-.8,4.8-3,.3-.8.3-1.9,0-2.7-.4-1-1.2-.3-1.7.2-.4.3-.4,1.1-.8,1.3-.4.3-1.1.5-1.6.4-.2,0-.4-.8-.4-1.3,0-.3,0-.6.2-.9.4-1,0-2.5,1.6-2.8,2-.4,3.5.5,4.4,2,1.5,2.5,1,4.8-.5,7-1.2,1.9-3,2.7-5.4,2.5Z"/>
    <path d="M243.4,77.3c-1.1,2.4-2.5,4.5-5.4,4.4-2.9-.1-5.5-1-6.8-3.9-1.5-3.4-.2-8.3,2.9-9.5,3.8-1.5,9.3-.3,9.3,5.7,0,1.1,0,2.1,0,3.4M233.9,78.5c1.8.9,3.4,1.6,5.4.2,1.8-1.3,1.8-2.9,1.7-4.7,0-2.1-.9-3.5-2.8-4-1.4-.4-3.4.5-4.3,1.9-1.5,2.1-1.3,4.3,0,6.7Z"/>
    <path d="M64.3,69.3c1-2.7,2.9-4,5.6-4.1,2.6,0,5,.8,6.4,3.1,1.2,2,1.2,4.4.6,6.7-1.2,4.1-3.8,4.4-6.3,4.4-2.7,0-5.7-2.2-6.3-4.9-.4-1.6,0-3.4,0-5.2M73.8,68.5c-1.8-1.5-4.1-1.4-5.9,0-1.6,1.3-1.4,3-1.4,4.7,0,2.7,1.2,3.2,3.2,4,1.2.5,3.5-.8,4.3-2.1,1.3-2.2,1-4.3-.2-6.6Z"/>
    <path d="M19.2,194.3c-1.2,1.1-2.3.6-3.3,0-1.9-1.3-1.6-1.6-3.5.5-.8,1-1.7,1.9-2.5,2.8-.1.1-.8,0-.8-.1,0-1.5-.6-3.1.9-4.3.8-.6,1.5-1.4,2.2-2.1.3-.3.6-.6.6-.9.5-2-.1-2.4-2.1-2-1,.2-2.1,0-3.2,0-.1,0-.4-.7-.3-.7,1-.5,1.9-1.2,2.9-1.4,2.7-.7,5.5-1.2,8.3-1.6.5,0,1.4.4,1.4.7.1,2.7,1.5,5.3.4,8-.2.5-.6.9-.9,1.4M15.9,187.1c-1,.7-1.4,1.7-1.2,2.9.3,1.9,2,3.2,3.1,2.3.9-.7,1.4-3,.5-4.5-.3-.5-1.4-.5-2.5-.7Z"/>
    <path d="M230.2,138c3.5-2.1,6.8-1.9,9.2.5,3.2,3.2,1.6,9.4-2.8,10.5-4.4,1.1-7.5-.3-8.7-4.4-.7-2.2.5-5.5,2.3-6.6M235.4,146.4c.8-.4,1.9-.5,2.4-1.1.6-.9,1.1-2.1,1.1-3.2,0-1.1-.6-2.1-2.1-2.5-1.9-.5-3.5-.2-5.2.8-2.6,1.5-2.2,4.6,0,5.9,1,.5,2.4.2,3.8.2Z"/>
    <path d="M117.7,77.7c1,.2,1.8.4,2.6.7.2,0,.3.5.5.8-.3.2-.6.5-1,.5-1.4,0-2.8,0-4.2,0-1.3,0-2.7.2-4,0-1.3,0-1.7-.8-1.7-2.1,0-2.8.2-5.6,0-8.5-.1-2.2,1.3-3.8,3.8-3.4,1.8.2,3.6.2,5.4.4.5,0,.9.5,1.3.8-.4.4-.8,1.1-1.3,1.2-1.4.2-2.9,0-4.4,0-.7,0-1.7.4-2,.9-1,1.5-.4,2.4,1.4,2.4,1.4,0,2.8,0,4.2,0,.5,0,1,.5,1.5.8-.5.4-1,1-1.5,1.1-1.1.2-2.3-.1-3.4.1-.9.2-1.9.7-2.4,1.4-.9,1.2,0,2.6,1.6,2.6,1.2,0,2.4,0,3.7,0Z"/>
    <path d="M58.1,166.1c.1,2.3.3,4.4.3,6.5,0,1.7-1,2.5-2.5,3-1.3.5-2.3,0-3-1-.9-1.3-1.7-1.1-2.6-.2-.9.9-1.8,1.9-2.8,2.7-.2.2-.6.2-.9.3,0-.3-.2-.5-.3-.8-.5-1.7.5-2.6,1.6-3.6,1-.9,1.9-1.8,2.7-2.8.4-.4.4-1,.6-1.6-.5-.2-1.1-.5-1.6-.5-1,0-2,.3-2.9.2-.6,0-1.1-.7-1.6-1.1.4-.4.8-1.1,1.3-1.2,2.5-.3,5-.5,7.5-.7.8,0,1.6-.2,2.3-.5,1-.3,1.8-.4,1.7,1.2M56.7,168.2l-.3-.3c-1.1,0-2.4,0-3.1.6-.6.5-.4,2.1-.3,3.2.1,1.3,1.1,1.9,2.2,1.4.7-.3,1.2-1.3,1.5-2.2.2-.7,0-1.6,0-2.7Z"/>
    <path d="M201.7,79c.5.3,1,.7,1,.8-.2.5-.6,1.2-.9,1.2-2.8,0-5.7,0-8.5-.2-1.4,0-1.8-.8-1.7-2.2.2-3,.3-6,.4-9,0-1.2.6-2.3,1.8-2.4,2.6,0,5.3.1,8,.3.3,0,.7.8.7.9-.3.4-.8,1-1.2,1.1-1.5.1-3.1,0-4.6.1-.7,0-1.6.6-2,1.2-.9,1.4-.4,2.1,1.2,2.1,1.5,0,2.9,0,4.4,0,.5,0,1,.6,1.5,1-.5.3-1,.9-1.5,1-1.2.1-2.5,0-3.7,0-1.1,0-1.9.6-2.3,1.6-.6,1.4,0,2.4,1.5,2.4,2,0,3.9,0,6.1,0Z"/>
    <path d="M23.5,255.7c-.7,1.6-1.3,3.1-2,4.5-.2.4-.5.6-.7,1-.2-.3-.6-.7-.6-1,0-1.2-.2-2.4,0-3.6.2-1.1.8-2.1,1-3.1.1-.5,0-1.4-.4-1.6-.5-.2-1.2-.1-1.8.1-.6.3-1.1.9-1.7,1.3-.7.4-1.8.9-2.2-.2-.2-.5.2-1.5.7-1.9,2.3-1.9,4.8-3.7,7.1-5.5.9-.7,1.5-.6,2.1.2,1.3,1.5,2.8,2.8,3.7,4.5.6,1,.5,2.8,0,3.9-.5,1-1.9,1.8-3.4,1.2-.5-.2-1.2,0-1.9.2M24,252.8c.7.2,1.5.5,2.2.4.4,0,.9-1.1.8-1.4-.3-.9-.9-1.8-1.5-2.6-.4-.5-1.4-1-1.8-.8-.8.4-1.4,1.2-1.8,2,0,.1.7.8,1.1,1.3.3.3.6.6,1,1Z"/>
    <path d="M137.4,77c.1-3,.1-5.8.4-8.7,0-.7.9-1.6,1.5-1.8,1-.3,2.2-.1,3.4,0,1.3,0,2.6.2,3.9.4.5,0,.9.4,1.3.6-.4.5-.8,1.2-1.3,1.3-1.5.2-3,0-4.6,0-.9,0-1.6.2-1.9,1.3-.5,1.9-.5,2.1,1.5,2.1,1.5,0,2.9,0,4.4,0,.4,0,.8.5,1.2.7-.4.4-.8,1.2-1.2,1.2-1.3.2-2.7,0-4.1,0-1.5,0-2.1.8-2.2,2.3,0,1.5.8,1.9,2.1,1.8,1.6,0,3.3,0,4.9,0,.5,0,1,.4,1.5.7-.4.3-.7.9-1.2,1-1.3.2-2.7.4-4.1.4-1.3,0-2.5-.4-3.7-.3-1.5,0-2.1-.5-1.8-1.9,0-.3,0-.7,0-1.2Z"/>
    <path d="M205.4,128.7c0-1.9.3-3.6,0-5.4-.3-2.3.5-4.2,2.3-5.2,1.3-.7,3.5.5,4.8,2.3,1.1,1.6,1.6,3.4,1.1,5.3-.2.7-.7,1.5-1.3,2-.7.7-1.4.3-1.4-.6,0-.7,0-1.4.3-2,.6-1.5,0-3.3-1.5-4-.7-.3-2,.6-1.9,1.4,0,1.8.2,3.5.3,5.3.1,1.8-1,2.8-2.4,3.5-1.3.6-2.4-.2-3.3-1-1.3-1.1-2.6-4.5-1.7-6.4.2-.5.9-.8,1.3-1.2.3.6.9,1.1,1,1.7.2,1,0,2.1,0,3.1.2,1.2,1.1,1.5,2.3,1.3Z"/>
    <path d="M231.9,263.2c-1.6-1.7-3.1-3.3-4.6-5-.3-.3-.3-.9-.4-1.4.4,0,.9,0,1.2,0,1.6.4,4.6-1.1,5-2.6,0-.3-.2-1-.5-1.1-.5-.2-1.3-.4-1.8-.2-1,.6-1.9,1.5-2.9,2.1-.7.4-1.5.6-2.3.9.3-.7.5-1.6,1.1-2.2.8-.9,1.8-1.8,2.8-2.5,1.6-1.2,4.3-.4,5.4,1.4.4.7,1.1,1.5,1.9,1.8,2.2.9,3.1,3.5,1.5,5.2-1.2,1.4-2.6,2.6-3.9,4-1,1-1.7.5-2.4-.4M232.2,260.4c.6.7,1.2,1.4,2.1.3.6-.7,1.4-1.1,2-1.7.4-.5.9-1.4.7-1.8-.4-1-1.4-1.3-2.4-.6-.8.5-1.5,1.2-2.4,1.7-1.2.7-1.1,1.3,0,2.2Z"/>
    <path d="M230.6,283.7c-.7.1-1.3.2-1.9.3.4-.6.7-1.3,1.2-1.9.3-.3.6-.6,1-.9.7-.5,1.5-1.1.8-2.1-.8-1-2-.8-2.6,0-1.4,2-3.6,1.5-5.4,2-.1,0-.4-.1-.5-.2,0-.2.1-.4.3-.5,2.2-1.4,4.3-2.9,6.5-4.1,1.1-.6,3.7,1.2,3.6,2.6,0,1.2.4,1.6,1.5,1.9,2.5.7,3.3,3.8,1.4,5.5-1.5,1.3-3.1,2.4-4.8,3.4-.3.2-1.3-.1-1.6-.5-1.2-1.3-2.3-2.6-3.4-4-.5-.7-1.1-1.4-1.3-2.2,0-.3.8-.8,1.2-1.2.2.3.6.6.7.9.2,1.1.5,2,1.9,2.3.6.1,1.2,1,1.6,1.6.5.7.9,1,1.6.5.9-.7,1.7-1.4,2.5-2.2.3-.4.6-1.2.4-1.5-.2-.4-1-.8-1.5-.8-1,.2-2,.6-3.1,1Z"/>
    <path d="M76,184.1c-.7,0-1.5-.2-1.9.1-1.1,1-2.1,2.3-3.2,3.4-.1.2-.9,0-.9,0-.1-1.3-.4-2.5.5-3.7,1.2-1.4,2.2-3,3.3-4.5.2-.3.7-.5,1-.7.2.4.3.9.5,1.3.4.8.7,1.9,1.4,2.3.8.5,1.8.1,2.4-.8.4-.7-.1-4.3-.8-4.7-.1,0-.4-.2-.4-.1-1.4,1.5-3.4,0-5.1,1.4-1,.9-2.9.7-4.5.9-.2,0-.8-.7-.8-.7.4-.6.7-1.4,1.3-1.6,3.2-.9,6.5-1.5,9.6-2.5,1.3-.4,1.4.3,1.5.9.4,1.6.7,3.2,1.1,4.8.8,3-1.4,5.6-4.3,5.2-.3,0-.6-.5-.9-.9Z"/>
    <path d="M133.6,229.4c-.8,1.1-1.4,2.3-2.3,3-.9.6-1.1,1-.7,2,.5,1.1.9,2.2,1.3,3.3,0,.2,0,.6,0,.7-.2.1-.7.2-.8.1-.6-.6-1.4-1.2-1.8-2-.6-1.1-.9-2.3-1.4-3.5-.3-.7-.6-1.3-1.7-1.4-1.3,0-1,.9-1.3,1.4-.4.7-.3,1.6-.8,2.2-.4.5-1.1.8-1.7,1.2-.1-.6-.5-1.2-.4-1.7.6-3,1.4-5.9,2.1-8.9.3-1.2.6-1.6,1.9-1.2,1.9.5,4,.4,5.8,1.3.9.4,1.3,2.2,1.8,3.5M131.3,228.9c-.8-1.4-3.6-2.5-4.9-1.8-.4.2-.7.8-.8,1.3,0,.4,0,1.1.4,1.3,1.8,1.3,3.8,1,5.3-.8Z"/>
    <path d="M224.4,197.6c-.7.5-1.2.9-1.7,1.4-.4.4-.5,1.2-1,1.4-1.7.8-.9,1.4.1,1.9,2.4,1.2,4.8,2.2,7.1,3.5.6.3.8,1.2,1.2,1.8-.8.1-1.7.6-2.3.4-2.9-1.3-5.7-2.9-8.5-4.4-1.5-.8-.2-1.7.1-2.5,1.1-2.6,2.2-5.2,3.4-7.8.5-1.1.5-2.6,2.3-2.4.4,0,.8.3,1.2.4-.1.3-.3.6-.4.9-.2.3-.4.6-.6.9-.7,1.5-.3,2,1.2,2.5,2.5.8,4.9,1.8,7.3,2.8.2.1.4.8.3,1.1,0,.3-.6.7-.9.7-1.1-.2-2.2-.6-3.3-1-1.8-.6-3.6-1.1-5.6-1.7Z"/>
    <path d="M29.4,124.5c.9-1.5,1.9-2.7,3.8-2.4.4,0,1.1.4,1.1.6,0,.4-.2,1-.6,1.4-.8.7-1.8,1.2-2.5,2-1.1,1.2-.7,3.7.6,3.7.6,0,1.3-.3,1.7-.7,1-1.2,1.9-2.5,2.8-3.7,1.1-1.5,3-1.7,4.4-.5,2.3,2,1.8,6.5-1,8-.6.3-1.4,1-1.9.8-1.2-.5-.6-1.3,0-2,.9-1.2,1.7-2.3,2.5-3.5.2-.3,0-1-.1-1.5-.5.2-1.1.2-1.5.5-.9,1-1.8,2-2.6,3.1-1.9,2.8-5.4,3.1-6.9,0-.8-1.7-.8-3.7.2-5.7Z"/>
    <path d="M210.5,133.9c.6-3.1,3.4-4.4,5.6-2.7,2.3,1.9,3.8,6.2,1.7,8.4-.4.4-1.3.9-1.6.7-.9-.5-.8-1.4-.2-2.3.8-1.2.7-3.1-.4-3.9-.5-.4-1.2-.6-1.8-.5-.2,0-.5.9-.6,1.4-.2,1.5-.3,3.1-.4,4.6,0,1.6-1.1,2.7-2.7,2.8-.7,0-1.9.3-2.2,0-.9-1.1-1.8-2.4-2.2-3.8-.3-1.3-1-3,.4-4.2.4-.4,1-.6,1.5-.8.2.6.5,1.3.4,1.9,0,.8-.6,1.6-.6,2.4,0,.7.2,1.6.6,2.1.2.3,1.3.4,1.7.1.5-.3.8-1,.9-1.6,0-1.4-.2-2.8-.3-4.4Z"/>
    <path d="M98.3,309.9c-1.8.8-1.4-.7-1.2-1.2.5-2.1,1.1-4.3,1.7-6.4,1.1-3.3,1.1-3.3,4.7-2.4,1.3.3,2.7.8,3.7,1.6,1.8,1.4,1.7,2.2.5,4.1-.3.6-.3,1.4-.3,2.1,0,1.2.4,2.5,0,3.5-.5,1.4-2.1.9-3.2.7-1.1-.1-2.2-.3-3.3-.6-.5-.1-1-.3-1.5-.5.5-.4,1-.9,1.6-1.1.4-.2,1,.2,1.6.2.8,0,1.6,0,2.3-.3,1-.4,1-1.5,0-2-1.1-.6-2.3-1.4-3.5-1.5-.7,0-1.6,1.1-2.3,1.9-.4.5-.5,1.2-.8,2M105.3,304.6c.4-.4,1.1-.9,1.1-1.3,0-.5-.6-1.2-1.1-1.3-1-.3-2.1-.6-3-.3-.7.2-1.2,1.3-1.8,2,0,.1.1.8.2.8,1.4,0,2.8.1,4.5.2Z"/>
    <path d="M59.9,212.4c0-.2,0-.3,0-.4-.3-.6-1-1.4-.9-1.7.4-.7,1.2-1.2,1.9-1.7,2-1.2,4-2.3,5.9-3.6,1.5-1,2.6-1,3.6.6,1,1.6,2.2,3,2.3,5.2,0,4-2.3,5.1-5,6.1-2.4.9-4.4,0-5.9-2.1-.6-.8-1.3-1.5-2-2.3M68.8,207c-1.8,1-3.7,2-5.5,3.1-1.6,1-1.6,2.5,0,3.7,1.7,1.3,4.5,1.4,5.7.2,2.3-2.3,2.3-4.7-.1-7Z"/>
    <path d="M58.9,282c-.1,2.5-3,6-5.6,6.3-2.2.3-3.8-1.1-5.5-2.3-.7-.6-1.5-1.2-2.1-1.8-.2-.2-.3-.8-.1-1,1.9-2.4,3.9-4.8,5.8-7.2.9-1.1,1.8-1.6,3-.5,1.3,1.2,2.9,2.3,4,3.6.5.6.4,1.9.5,2.9M53.9,277.8c-.5.2-1,.4-1.4.7-1,1.1-1.9,2.4-2.9,3.5-1.8,2-1.8,1.9.5,3.2,3,1.7,4.4,0,6.2-2.5,1.2-1.8.3-3.5-2.4-5Z"/>
    <path d="M92.4,235.9c-1.4,1.7-2.6,3.3-3.9,4.9-.2.3-1,.4-1.1.3-.6-.7-1.5-1.5-1.4-2.2.1-2.5.6-4.9,1-7.3,0-.3,0-.5.1-.8-.3.2-.6.3-.8.5-1.3,1.4-2.6,2.9-4,4.2-.4.4-1.4.7-1.8.5-1-.6,0-1.1.4-1.7,1.6-2.1,3.2-4.3,4.8-6.5.3-.4.6-.7,1-.9.4-.2,1.1-.6,1.5-.4.4.2.8.8.8,1.3.3,3,0,5.9-.8,8.8-.1.4,0,.9,0,1.3.3-.3.6-.6.8-.9,1.2-1.6,2.4-3.3,3.6-4.9,1-1.3,1.9-1.4,2.6-.3.1.2.1.6,0,.8-.8,1.1-1.7,2.2-2.7,3.4Z"/>
    <path d="M261.6,145.5c0,2.2,0,2.1-2.1,1.6-3.1-.7-6.2-1.3-9.3-2.1-.8-.2-1.7-1.3-2-2.2-.1-.4.8-1.5,1.5-1.9,2.9-1.9,6-3.8,9-5.6.4-.2,1-.2,1.5-.3,0,.5.2,1,0,1.4-.3.7-.8,1.3-1.2,2-.4.7-1,1.5-1.1,2.2-.4,2.7.8,4.3,3.6,4.9M253.7,143.7c.8-.2,1.9-.2,2.5-.7.3-.2-.1-1.4-.2-2.1-.6.1-1.2.2-1.8.4-.5.2-1,.4-1.4.7-.7.5-1.3,1-1.9,1.5.8,0,1.7.2,2.9.2Z"/>
    <path d="M48.3,230.4c1.4-2.7,2.7-5.1,4-7.6.2-.4.2-.9.3-1.4-.4.2-.8.3-1.2.5-1.6,1.1-3.1,2.2-4.7,3.3-.4.3-.8.7-1.2.7-.4,0-1-.3-1.2-.7-.1-.3,0-1,.3-1.2,1.9-1.4,3.9-2.8,5.9-4.1.8-.6,1.7-1.2,2.5-1.6.5-.2,1.1-.1,1.6-.2,0,.5,0,1-.1,1.4-.4.8-1,1.5,0,2.3.1,0,0,.7-.2,1-1.3,2.3-2.6,4.7-3.9,7-.1.2-.1.6-.2.8.3-.2.6-.2.8-.5,1.9-2.3,4.4-4,7-5.4.3-.2.9.2,1.4.3-.2.5-.2,1.1-.5,1.4-2.4,1.8-4.9,3.5-7.3,5.2-2,1.4-2.2,1.4-3.5-1.1Z"/>
    <path d="M69.4,151.9c-1.3,1-2.1,2.2-1.4,3.8.3.6.8,1.2,1.4,1.5.2.1,1-.5,1.3-1,.7-1.1,1.2-2.3,1.7-3.5.7-1.5,2-2.7,3.4-2.2,1.2.4,2.6,1.7,3,3,1,2.9.1,4.5-2.3,6.1-.3.2-.8.4-.9.3-.2-.2-.4-.7-.4-1,.1-.6.4-1.2.7-1.7.3-.5.8-.9.9-1.5.2-.8.4-1.9,0-2.3-.7-.7-2.2.3-2.7,1.4-.5,1.3-1,2.6-1.7,3.9-.6,1.2-3.2,1.6-4.2.8-2.8-2.6-3.5-3.9-1.7-7.9.6-1.4,1.9-1.6,3.1-2,.3,0,.8.1,1,.4.1.2,0,.7-.2,1-.2.4-.5.7-.9,1.1Z"/>
    <path d="M233.6,170.1c-.9-1.3-1.8-2.5-2.8-3.6-.7-.9-1.6-1.7-1.3-3,0-.3.3-.7.5-.8.2,0,.6.2.8.4.6.7,1.2,1.4,1.7,2.1.8,1.2,1.7,1.4,3,.8,1.6-.8,3.2-1.7,4.8-2.3.5-.2,1.3,0,1.9,0-.2.6-.2,1.3-.5,1.8-.3.5-.9.8-1.4,1.1-.7.4-1.4.7-2.1,1.1-.8.6-2.3,1.6-2.2,1.8.6,1.2,1.7,2,3.1,2,.4,0,.8-.1,1.2,0,.6.2,1,.6,1.6.9-.5.5-1.1,1.3-1.6,1.3-2.9,0-5.8-.4-8.7-.6-.3,0-.7,0-1,0-.6-.1-1.2-.3-1.8-.6-.1,0,0-1.1.4-1.3.5-.3,1.1-.1,1.7-.3.9-.2,1.8-.5,2.6-.9Z"/>
    <path d="M213.3,192.7c-3-1.7-2.9-1.7-4.5,1.3-.8,1.4-.9,2.4,1,2.8.6.2,1.3.5,1.8.9.4.4.7,1,1,1.6-.6.2-1.3.6-1.8.5-1.6-.5-3.2-1.2-4.8-2-1.5-.7-3-1.5-4.4-2.4-.3-.2-.6-.5-.8-.8.4-.3.9-.6,1.3-.8.2,0,.4,0,.6,0,3.7.9,3.2,1.3,4.9-2.2.5-1.2,0-1.6-.8-2-.7-.3-1.5-.6-2.1-1.1-.3-.3-.6-1.1-.4-1.5.2-.4,1-.8,1.4-.7,1.4.5,2.8,1.1,4.2,1.8,1.8.9,3.6,1.9,5.3,3,.4.2.6.8.9,1.3-.6.2-1.3.5-1.9.6-.2,0-.5-.2-.8-.4Z"/>
    <path d="M103.8,74.3c-1,0-1.8,0-2.5,0-1.3.1-2.3.6-2.2,2.2,0,.7-.3,1.4-.3,2.1,0,.9-.5,1-1,.8-.4-.1-1-.6-1-.9,0-3.7,0-7.3,0-11,0-1,.5-1.7,1.7-1.6,1.7.2,3.4.2,5.1.4,1.2,0,3.4,2.3,3.6,3.4.3,1.6-.7,3.6-2.2,4.3-.3.2-.7.2-1.2.4M99.8,68.7c-.2,1.1-.4,2.3-.7,3.4.8,0,1.6.1,2.5.1.3,0,.6.1.8,0,.7-.6,1.7-1.1,2-1.8.2-.5-.4-1.8-1-2-1.1-.3-2.4-1.1-3.7.3Z"/>
    <path d="M268.8,168.8c.1-.7.2-1.3.4-1.9.2-.6.4-1.2.7-1.7.1-.2.5-.3.8-.4.2.3.5.7.5,1-.1,1.8-.3,3.6-.4,5.4,0,.7-.2,1.3-.2,2,0,0,.2.2.3.3.9-1.3,3.1-1.3,3.1-3.4,0-.9,0-1.9.4-2.7.2-.6,1-1,1.5-1.5.2.6.5,1.2.5,1.8,0,1.2-.6,2.3-.6,3.4,0,.5.7,1.4,1.3,1.5,1.5.4,2.6-.5,2.7-1.9.1-1.3.1-2.6.4-3.9,0-.4.9-.6,1.4-.9.1.5.4.9.4,1.4,0,1.6-.3,3.3-.1,4.9.2,2.3-.9,3.5-3.2,3.2-1.6-.2-3.3-.1-4.9-.4-1.6-.2-3.3-.5-4.8-1.1-.4-.2-.3-1.8-.3-2.7,0-.7.2-1.4.3-2.2Z"/>
    <path d="M185.2,238.5c-1.1-1.4-.8-2.2.7-2.9,2-.9,3.4-3,6-2.8,2.1.2,3.7,2.6,2.7,4.5-.2.4-.5.7-.6,1.1-.1.6-.2,1.1.9,1.3,1.6.2,3.2.8,4.8,1.3,0,0,0,.9,0,.9-.8.2-1.8.5-2.5.3-1.4-.4-2.7-1-4.1-1.6-1.4-.6-2,.3-2.8,1.1-1,1,.3,1.2.5,1.7.3.6.7,1.1.9,1.6.3.7.4,1.5-.6,1.6-.4,0-1-.3-1.3-.7-1.6-2.4-3.1-4.9-4.7-7.4M190,235.5c-.6.3-1.4.6-1.9,1-.4.4-1,1.3-.8,1.6.5.9,1.4,1.5,2.4,1,.8-.4,1.6-1.1,2.3-1.6.7-.5,1.2-1.2.5-2.1-.8-.9-1.6-.8-2.6.1Z"/>
    <path d="M228.5,232.1c0,1.1-.1,2.1-.2,3,.9-.1,1.8-.3,2.7-.3,1.2,0,2.4.2,3.6.3.6,0,.8.4.3,1-1.1,1.2-2.5,1-3.9,1-1.6,0-3.3,0-4.8.7-1.3.6-1,1.4.3,2.1.4.2.8.8,1,1.3,0,.2-.2,1-.4,1-.6,0-1.4,0-1.7-.3-1.3-1.1-2.5-2.4-3.7-3.6-.8-.8-1.7-1.4-2.5-2.2-.3-.3-.5-1-.4-1.1,1.8-1.8,2.9-4.4,5.5-5.2,2.7-.8,3.4.2,4.2,2.4M225.9,234.8c0-.3,0-.7.3-.9.9-.7.4-1.5,0-1.8-.4-.3-1.3-.2-1.9,0-.7.3-1.4.9-1.9,1.5-.4.6-.6,1.4-.9,2.2.9.3,1.6,1.7,2.7.3.4-.5,1-.8,1.7-1.4Z"/>
    <path d="M205,207c.3-.6.7-1.1.7-1.7.2-1.3-.7-1.9-1.9-1.3-1.2.6-2.4,1.4-3.6,2-2.2,1.2-3.6.8-4.6-.3-.9-1-1.3-2.9,0-4.8,1.3-1.9,3-3,5.4-2.6.4,0,.8.5,1.2.7-.3.3-.4.8-.8.9-1.1.6-2.3,1.1-3.5,1.7-.2.1-.5.3-.6.5-.3.6-.4,1.2-.6,1.8.7,0,1.5.3,2,0,1.1-.5,2-1.2,3-1.9,2.6-1.6,5.1-.8,6,1.1.7,1.5-.4,4.6-1.8,5.8-1.4,1.2-3.1,1.6-4.8,1.4-.4,0-.7-.3-1.1-.5.2-.3.4-.7.6-.9.6-.4,1.3-.6,2-.9.8-.3,1.5-.7,2.4-1.1Z"/>
    <path d="M29,157.3c1.9-1,1.6-2.9,1.6-4.3,0-1.5-1.8-1.1-2.8-1.5-.6-.2-1.3-.1-1.9-.3-.4-.1-.6-.6-.9-.9.4-.4.8-.9,1.2-1.1.4-.2,1.1-.2,1.5,0,3,1.2,6.1.6,9.1.5.4,0,.9.6,1.3.9-.4.5-.8,1.3-1.3,1.5-.8.3-1.8-.1-2.7.1-.7.2-1.5.8-1.7,1.4-.3,1-.2,2.2,0,3.2,0,.3.8.6,1.3.7,1.1.2,2.3.3,3.4.5.3,0,.8.8.7,1-.2.4-.7.9-1.1.9-3.7-.2-7.4-.4-11.1-.7-.4,0-.7-.8-1-1.3.5-.3,1-.9,1.5-1,.9,0,1.8.2,2.9.3Z"/>
    <path d="M208.8,229.4c1.3,3.7-.8,7.1-4.1,8.1-3.3,1-7.3-1.9-7.7-5.4,0-.2,0-.4,0-.5-.5-1.1-1.1-2.3-.3-3.4,1.3-1.7,2.8-3.3,5.1-3.5,1,0,2.3.1,3.1.7,1.5,1.1,2.7,2.5,4,4M204.6,227.7c-1.4-1.3-3.8-.8-4.9.2-1.3,1.2-1.2,2.7-.7,4.3.4,1.5,2.3,3.1,3.9,3.3,1.2.1,3.6-1.1,4.1-2.2.2-.4.4-1.1.3-1.5-.8-1.4-1.7-2.7-2.7-4.2Z"/>
    <path d="M230.9,178c-1.1,1.1-2.4,2-2.1,3.8,0,.4.2,1,.5,1.1.3.1.9-.1,1.1-.4.9-1.2,1.9-2.3,2.6-3.6.9-1.7,2.2-2.3,3.9-1.9,1.3.3,2.1,1.3,2.8,2.5,1,1.8-.9,6.8-3.2,7.1-.2,0-.4.2-.6.1-.6-.1-1.1-.3-1.7-.4.3-.5.5-1.1.9-1.6.2-.3.8-.4,1-.7.6-.8,1.3-1.6,1.7-2.5.2-.5-.4-1.2-.6-1.8-.8.3-1.8.4-2.4,1-1.1,1.1-1.8,2.4-2.8,3.6-1.5,1.7-4.7.9-5.3-1.2-.6-2.1.3-5.8,2.9-6.7.6-.2,1.4,0,2.1-.1-.3.6-.6,1.2-1,1.9Z"/>
    <path d="M204.2,297.4c-.9-4.1.4-6.5,4.1-8.3,1.2-.6,4,.2,5.2,1.3,2.1,2.1,3.3,4.4,2.2,7.4-.7,1.9-2.4,2.8-4.1,3.7-1.2.7-2.5.5-3.8.3-.2,0-.6-.1-.7-.3-.9-1.3-1.8-2.7-2.8-4.2M206.3,297.2c1,1.9,2.3,2.5,4.4,2,2-.4,3.7-2.4,3.1-4-.5-1.4-1.3-2.6-2.3-3.8-.3-.3-1.3,0-2,0-2.9.4-4.5,3-3.3,5.7Z"/>
    <path d="M236.6,224c1.5,1.9,2.8,1.8,4.1,0,.7-1,1.5-2,2.4-2.9.4-.4,1.2-.4,1.8-.5,0,0,.4.8.3,1-1.5,2-3.1,4-4.6,6.1-.7,1-1.6.9-2.4.3-2.8-1.8-5.5-3.6-8.2-5.5-.2-.2-.2-1.1,0-1.4,1-1.7,2.1-3.3,3.3-4.9.3-.5.8-.9,1.3-1.1.4-.2,1,0,1.5,0-.1.4-.2.8-.4,1.2-.8,1.1-1.8,2-2.3,3.1-.4.8-.5,2.1,0,2.6.7.8,1.7.1,2.3-.7.9-1,1.8-2.1,2.8-3.1.4-.4,1.2-.3,1.8-.4-.2.5-.4,1.1-.6,1.5-1,1.5-2,2.9-3,4.5Z"/>
    <path d="M269,180.7c-.3-1.1-1.8-2-.4-3,.2-.2,1.6,1.1,2.2,1.8,1.3,1.6,1.8,1.8,3.6.9,1.7-.8,3.4-1.6,5.1-2.4.5-.2,1.1,0,1.7,0-.2.4-.5.8-.6,1.3-.7,2.7-3.5,2.2-5.1,3.4-.6.4-1.2.9-1.7,1.4.6.6,1.2,1.3,1.9,1.8.4.3,1.1.2,1.7.4.5.2,1,.5,1.5.7-.6.4-1.2,1.3-1.7,1.3-2.2,0-4.4-.4-6.6-.7-.9-.1-1.9-.3-2.8-.6-.5-.2-.9-.8-1.4-1.3.6-.4,1.2-.9,1.8-1,.9,0,1.9.2,2.9.3.3,0,.7-.3,1-.4-.2-.3-.3-.7-.5-.9-.8-1-1.7-1.9-2.6-2.9Z"/>
    <path d="M259.6,170.1c-.7.1-1.3.3-1.8.4,0-.7,0-1.5.3-2,.5-.9,1.3-1.7,1.9-2.6.7-1,.4-2.2-.5-2.6-.6-.3-2,.3-2.4,1-.7,1-1.5,1.9-1.6,3.4,0,1.2-1.3,2.1-2.8,2.2-1.9.1-2.7-1.1-3.3-2.5-1.1-2.5.3-5.7,2.8-6.7.4-.1.8,0,1.3,0,0,.4,0,.8-.2,1.1-.7,1.2-1.6,2.4-2.1,3.7-.2.5.3,1.2.4,1.8.5-.2,1.4-.2,1.6-.6.8-1.4,1.5-2.9,2.1-4.3.6-1.4,2.8-2.5,4.3-1.9,1.4.6,3,2.4,2.4,3.9-.1.3-.3.7-.2.9.8,2.2-.5,3.5-2.1,4.9Z"/>
    <path d="M44.3,245.1c.9-.6,1.6-1.3,2.5-1.7.5-.3,1.3-.1,1.9-.2-.1.5,0,1.3-.4,1.6-2.3,2.1-4.6,4.1-7,6-.5.4-1.6.5-2.2.3-.9-.4-1.1-1.2-.6-2.3,1.4-2.9,2.6-5.8,3.8-8.7.1-.3.1-.7.2-1-.3.1-.7.2-.8.4-1.5,2.5-3.9,4-6.1,5.7-.4.3-.9.5-1.3.7,0-.8-.4-1.9,0-2.2,1.7-1.6,3.6-3.1,5.5-4.6.7-.6,1.6-1.1,2.4-1.4,1.7-.7,2.6,0,2,1.7-.9,2.6-2.2,5.1-3.3,7.6,0,.1-.3.2-.3.4-.2.5-.4,1.1-.5,1.6.5-.3,1-.5,1.4-.9,1-.9,1.8-1.8,2.8-2.8Z"/>
    <path d="M220.9,154.1c-3.5-.5-6.9-1-10.3-1.8-.7-.2-1.4-1.1-1.7-1.9-.4-.9.2-1.6,1.2-2.2,3.2-1.8,6.2-3.8,9.3-5.6.3-.2.9-.1,1.3-.2,0,.4.1.9,0,1.2-.4.8-.9,1.6-1.5,2.3-1.7,1.8-.9,5.4,1.4,6.2.2,0,.4.2.5.3.4.3.8.6,1.2.8-.4.2-.9.5-1.4.8M212.4,150.8c1,0,2,.2,2.8,0,.6-.2,1.1-1,1.6-1.7.2-.2-.1-.7-.2-1.1-.6.2-1.3.3-1.8.5-.9.4-1.8.9-2.6,1.3-.6.3-.6.6.3,1Z"/>
    <path d="M52.2,252c1.5-2.4,2.3-2.5,4.3-.6,1.3,1.2,2.8,2.3,4.1,3.5.3.3.4.8.6,1.3-.6,0-1.4.4-1.8.1-1.1-.7-1.9-1.7-2.9-2.4-.4-.3-1.2-.7-1.5-.6-.8.4-1.4,1.1-2.1,1.8,0,0,.3.6.5.7,1.2,1,2.4,1.9,3.5,2.9.2.2.2.7.3,1.1-.4,0-1,.3-1.2.1-1-.8-1.9-1.6-2.9-2.5-1-.9-2.3-.9-3,0-.7.9-.8,1.8.2,2.7,1,.9,2,1.9,2.9,2.9.2.3.2.8.3,1.3-.5,0-1.2.4-1.5.1-1.9-1.8-3.8-3.7-5.6-5.6-.2-.2.2-1.2.6-1.6,1.7-1.8,3.4-3.5,5.2-5.3Z"/>
    <path d="M182.3,272c-5-1.1-7.9-5.7-5.4-10.2,1.4-2.5,3.6-2.7,6-2.6,1.8.1,3.2,1,3.8,2.7.7,1.7,1.5,3.5,1.5,5.2,0,1.1-.9,2.5-1.9,3.2-1.1.8-2.7,1.1-4.1,1.7M186,266.7c.5-3.2-2.1-6.1-4.9-5.4-3.1.8-4.4,4.6-2.2,6.8,2.4,2.4,5.1,2.8,7-1.4Z"/>
    <path d="M66.8,286.1c-.7-.4-1.3-.9-2-1.1-1.3-.4-1.8.5-1.9,1.6,0,.4.5.9.9,1.2,1.2.8,2.4,1.5,3.6,2.3.3.2.3.9.4,1.4-.5,0-1.2.3-1.6,0-1.3-.7-2.4-1.6-3.7-2.2-1-.5-3.1,1.2-3,2.3,0,.2.3.4.5.5,1.4.8,2.9,1.5,4.2,2.4.5.3.8,1,1.2,1.6-.7,0-1.5.3-2.1,0-1-.4-1.8-1.1-2.7-1.6-.9-.5-1.9-.9-2.8-1.5-1.1-.7-1.5-1.5-.5-2.8,1.5-2.1,2.7-4.4,4.1-6.6,1.2-1.9,1.5-2,3.4-.9,1.8,1.1,3.6,2.2,5.4,3.4.3.2.4.6.5.9-.4,0-.9.4-1.3.3-.9-.3-1.7-.8-2.6-1.2Z"/>
    <path d="M38.1,206.7c2.4-1.1,4.6-2.3,6.9-3.3.7-.3,1.5-.4,2,1,.6,1.9,1.9,3.6,2.8,5.4.2.5,0,1.2.1,1.8-.6-.3-1.3-.6-1.6-1.1-.6-.8-.9-1.8-1.4-2.6-.3-.6-.8-1.5-1.2-1.5-.9,0-1.8.5-2.6,1-.1,0,0,.8.1,1.1.6,1.2,1.4,2.2,2,3.4.2.4,0,1,0,1.5-.5-.2-1.3-.3-1.5-.7-.7-1.1-1.1-2.3-1.7-3.4-.6-1.2-1.5-1-2.6-.4-1.8,1-1.2,2-.4,3.2.5.8,1,1.7,1.3,2.7.2.6-.2,1.4-.3,2-.4-.4-.9-.8-1.3-1.3-.9-1.5-1.7-3-2.5-4.5-1.1-1.8-1-2.4.7-3.6.3-.2.7-.5,1.2-.7Z"/>
    <path d="M276.9,223.6c1.5.5,2.9.8,4.2,1.4,2.3,1,3.5,3.7,3,6.1-.6,2.7-3,5.1-5.5,5-4.9-.2-8.6-4.2-7.1-8.8.6-2,3.1-3.7,5.4-3.7M277.1,226c-1.6-.3-3,.6-3.4,1.8-.4,1.2-1.1,2.7.2,4.2,1.6,1.9,5,2.4,6.9.7,2-1.7,1.9-4.4-.5-5.8-.9-.5-2-.7-3.3-1Z"/>
    <path d="M122.2,276.4c.2-2,.6-3.9.9-5.8.2-1.4.5-2.9.4-4.3,0-1.6,1.1-1.6,1.9-1.7,2.3,0,4.5,1.3,6.9.7.2,0,.7.6.7,1,0,.3-.4.9-.6.9-1.2,0-2.4,0-3.5-.3-2.2-.5-3.6.2-3.3,2,0,.4.6.9,1,.9,1.2.2,2.5.2,3.7.4.6.1,1.1.7,1.7,1.1-.6.2-1.3.6-1.9.5-2.5-.4-4.1.1-5.3,1.9-.6.8-.4,1.3.6,1.5,1.6.3,3.2.4,4.8.7.5.1,1,.7,1.5,1-.5.3-1.1,1-1.6.9-2.6-.4-5.2-1.1-7.8-1.7Z"/>
    <path d="M65.7,168.1v-1.2c0-3.3,0-3.4,3.1-3.9,2.6-.4,5.3-.5,8-.7,1,0,1.5.2,1.5,1.4,0,2.4.2,4.8.3,7.1,0,.3-.4.6-.6,1-.3-.3-1-.6-1-.9-.1-1.5,0-3.1-.1-4.6,0-.4-.6-1-1.1-1.2-1.3-.4-2.9,1.4-2.6,2.8.2,1.1.3,2.2.3,3.2,0,.3-.5.7-.8,1-.3-.3-.8-.6-.8-1,0-1.5,0-3.1,0-4.6,0-1.5-1-1.2-1.8-1.2-1.8,0-2.5,1.2-2.3,2.9.2,1.2,0,2.5,0,3.7,0,.4-.4.8-.6,1.2-.3-.4-.9-.7-1-1.2-.2-1.2-.3-2.5-.4-3.9Z"/>
    <path d="M37.3,163.4c.3,2.4.6,4.7.7,7.1,0,.5-.3,1-.6,1.4-.2.3-.6.3-.9.5-.2-.3-.4-.7-.4-1,0-1.5,0-2.9,0-4.4,0-1.1-.4-1.7-1.5-1.7-1,0-1.9.3-1.9,1.7,0,1.2,0,2.4,0,3.6,0,.5-.5,1-.8,1.5-.3-.5-.8-.9-.8-1.5-.2-1.2,0-2.4-.2-3.6-.2-.9-.5-1.9-1.9-1.8-1.3,0-2.3.6-2.3,1.9,0,1.5.2,3,.3,4.4,0,.5-.3,1-.5,1.5-.4-.3-.9-.6-1.3-1-.2-.2-.3-.6-.3-.9,0-2.3,0-4.5,0-6.8,0-.4.4-1.1.6-1.1,3.9-.1,7.7-.1,11.6-.2,0,0,0,0,.2.2Z"/>
    <path d="M138.5,268.3c.9,1.8,1.8,3.6,2.6,5.3.1.2.5.5.8.5.2,0,.5-.3.6-.5.2-1.7.2-3.5.4-5.2,0-.8-.6-1.9,1-2,.8,0,1.3,0,1.1,1.2-.3,1.7,0,3.5,0,5.2-.1,1.6-.4,3.1-.7,4.6,0,.4-.6,1.1-.8,1.1-.5,0-1.2-.4-1.5-.8-1.1-1.7-2.1-3.4-3.1-5.1,0-.1,0-.3-.2-.4-.3-.3-.7-.6-1.1-1-.3.5-.7,1-.8,1.5-.1,1.3,0,2.6,0,3.9,0,.6-.8,1.1-1.2,1.6-.3-.5-.7-1-.7-1.5,0-1.9.2-3.7.3-5.6,0-1.1,0-2.2,0-3.3,0-.6.5-1.1.8-1.7.5.3,1.1.5,1.6.9.4.3.7.8,1.1,1.4Z"/>
    <path d="M120.8,304.7c-1.6,0-3.2-.2-4.7-.1-.6,0-1.4.3-1.8.7-.3.3-.4,1.4-.3,1.5.8.4,1.6.7,2.5.9.9.2,1.8.2,2.7.4.3,0,.6.4.9.6-.2.2-.3.6-.6.7-.5.2-1,.3-1.5.3-1.3,0-2.7-.4-3.7.1-.9.4-1.3,1.8-1.9,2.8.4.2.8.5,1.1.4,1.4-.5,4.9,0,5.8,1,.2.2.4.6.3.7-.3.3-.7.6-1,.6-2.7-.2-5.3-.5-7.8-1.6-.3-.1-.8-.6-.8-.8.5-3,1.1-5.9,1.7-8.8.3-1.5,1.5-2,2.9-1.8,2,.2,3.9.6,5.8,1,.3,0,.4.8.5,1.4Z"/>
    <path d="M115.4,268.8c.8,0,1.5,0,2.1.3.8.4,2.8.4,1.2,2.2,0,0,0,.1,0,.2,0,1.3,0,2.9-1.3,3.2-2.2.5-4.6,1-6.7-.9-3.1-2.9-3-6.5-1.1-9.2,1.1-1.7,3.1-2.6,4.8-2.5,2.1.2,4.6.7,5.4,3.4.1.4,0,.9,0,1.4-.5,0-1-.2-1.5-.3-.1,0-.2-.2-.4-.3-.7-.7-1.4-1.9-2-1.9-1.6.2-3.5,0-4.6,1.8-.7,1.1-.8,4.6,0,5.6,1.1,1.3,5,1.4,6.1,0,.2-.2,0-.9-.2-1.2-.2-.3-.8-.3-1.2-.3-.4,0-.8-.1-1.2-.2.2-.5.4-.9.7-1.5Z"/>
    <path d="M32.1,197.6c.3-.2.4-.3.6-.4-.2-.1-.3-.3-.5-.4-.6-.2-1.2-.5-1.8-.7.6-.3,1.2-.8,1.8-1,2.8-1,5.5-2,8.3-2.8.6-.2,1.7.1,1.9.5,1.1,2.2,2,4.5,2.8,6.8.1.4-.2,1-.4,1.5-.4-.3-1-.6-1.2-1-.6-1.3-.9-2.7-1.4-4-.2-.5-.8-1.3-1.1-1.3-.8.1-1.6.6-2.2,1.1-.2.2-.2.9,0,1.4.3,1,.8,1.9,1.2,2.9.1.4.2.9.1,1.3-.2.4-.6.7-1,1-.2-.3-.6-.6-.7-1-.4-1.2-.6-2.5-1.1-3.6-.2-.5-1-1.2-1.5-1.1-.9.2-2.3.2-2.2,1.6.1,1.4.5,2.8.7,4.3,0,.5.3,1,.2,1.4,0,.3-.4.6-.7.7-.2,0-.8-.2-.8-.4-.5-2.2-1-4.3-1.5-6.5,0,0,.2-.2.4-.4Z"/>
    <path d="M173.2,265.1c.3,1.7-.4,2.8-1.6,3.9-.4.3-.5,1-.7,1.6.5,0,.9.3,1.4.2,1,0,1.7,0,2.1,1.2.1.4.7.6,1,.9.3.3.6.7.8,1.1-.6.1-1.4.6-1.8.4-1.2-.7-2.2-1.6-3.2-2.5-1.4-1.2-3.8-1.1-4.5.3-.2.3,0,.9.1,1.3,0,.2.5.4.5.6,0,.8,0,2.2-.5,2.4-1.2.5-1.1-.8-1.2-1.5-.3-1.5-.6-3-.9-4.5-.4-1.5-.7-3-1.2-4.4-.4-1.3.3-1.8,1.2-2,2-.4,4-.7,6-1,1.5-.2,2,1,2.8,2.1M166.7,269c1.7,0,3.1-.4,4.1-1.8.3-.4.5-1.1.4-1.6,0-.3-.9-.6-1.3-.6-1,.1-2.1.3-3.1.7-1.9.8-1.9.9-.7,2.7.1.2.3.3.6.7Z"/>
    <path d="M122.4,244c1.7.3,3.3.6,4.8,1.1.4.1.6.7,1,1-.4.2-.8.6-1.2.6-1.5-.1-3-.5-4.5-.6-.6,0-1.3.4-1.8.9-.3.3-.6,1.3-.4,1.4.4.4,1.1.5,1.7.7,1.5.4,3,.8,4.5,1.3.1,0,.3.7.2.8-.5.3-1.1.8-1.5.7-1-.1-1.9-.6-2.8-.9-1.6-.5-3.3.8-3.2,2.4,0,.5.8,1,1.4,1.2,1.1.4,2.3.5,3.4.7.4,0,.8.2,1.2.5.3.3.5.7.8,1-.4.2-.9.6-1.3.5-2.5-.5-5-1-7.4-1.8-.3-.1-.6-1.4-.5-2.1.5-2.5,1.1-5,1.8-7.5.6-2.4,1.4-2.7,4-1.8Z"/>
    <path d="M79.3,268.4c.5.4,1,.7,1.4,1.1.3.3.5.7.7,1-.5,0-1.1.3-1.6.1-1.2-.5-2.5-1.1-3.6-1.9-1.2-.8-2-.4-2.7.5-.7,1-.2,1.5.7,2,1.2.6,2.2,1.4,3.3,2.2.2.2.4.4.6.7-.4.2-1,.8-1.3.7-1-.4-2-.9-2.9-1.5-1.5-.9-3.2-.5-3.7,1-.1.4.1,1.2.5,1.4,1.4,1,2.9,1.8,4.3,2.7.3.2.4.5.6.7-.3.2-.6.7-.9.7-.7,0-1.4-.3-1.9-.7-1.5-1.1-3-2.3-4.5-3.4-1.8-1.3-.2-2.5.3-3.5,1-2,2.5-3.7,3.6-5.6.6-1,1.2-1.3,2.2-.7,1.6.8,3.2,1.6,4.9,2.5Z"/>
    <path d="M76.3,221.4c.5.6,1,1.1,1.2,1.6.2.3,0,.8,0,1.3-.4,0-1,0-1.3-.2-.9-.8-1.7-1.6-2.5-2.5-1-1.2-1.9-.6-2.8,0-1.1.8-.9,1.8-.2,2.7.9,1.1,1.9,2,2.7,3.1.2.3.1.9.2,1.4-.5,0-1.1,0-1.4-.3-1.7-1.9-3.2-3.8-4.8-5.8-.2-.2-.1-.8,0-1,2.2-2,4.4-4,6.6-6,.4-.4.8-1.2,1.1-1.2.8,0,1.8.3,2.3.8,1.4,1.4,2.6,2.9,3.8,4.5.3.4.2,1,.3,1.5-.5-.1-1.2,0-1.5-.4-.8-.7-1.5-1.6-2.2-2.5-1.2-1.5-2.8-1.3-3.5.5-.1.4,0,1,.2,1.3.3.4.8.7,1.3,1.1Z"/>
    <path d="M264,252.1c0,.7,0,1.4.3,1.8.7.7,1.6,1.1,2.3,1.7.4.4.5,1,.7,1.5-.6.1-1.5.6-1.9.4-2.7-1.9-5.4-4-8-6-.2-.2-.2-.8-.3-1.1.4,0,1-.3,1.3-.2.9.4,1.6,1,2.4,1.4.3.1.7.1,1,0,.2,0,.2-.6,0-.9-.3-1.4-.8-2.8-1.1-4.3-.3-1.4.3-2.5,1.3-3.5.2-.2.5-.3.7-.4.1.3.4.7.3.9-.8,1.7,0,3.1.7,4.5.3.5.9,1.2,1.4,1.2,2.3.1,4.6,0,6.8.1.4,0,.7.4,1.1.6-.2.2-.4.5-.6.7-1.2,1.2-2.6,1-4.2.8-1.4-.2-3,.5-4.5.9Z"/>
    <path d="M79.7,292.8c.2,2.1.3,4.1.5,6,0,.4.5.8.7,1.2.2-.3.5-.5.7-.8.6-1.1,1-2.2,1.6-3.2.3-.6.7-1.3,1.3-1.6.5-.3,1.2-.3,1.8-.4-.1.4-.2.9-.4,1.3-.9,2-1.9,4-2.9,5.9-.5.9-1.1,1.7-1.8,2.5-.3.3-1.1.7-1.4.5-.5-.3-1-.9-1-1.5-.1-2.4,0-4.9,0-7.3,0-.3-.2-.6-.4-.9-.2.2-.6.3-.7.5-.5.9-.9,1.9-1.5,2.8-.6,1.1-1.2,2.3-2,3.2-.4.5-1.3.5-1.9.7,0-.5-.2-1.2,0-1.5.7-1.1,1.4-2,1.5-3.6.1-1.6,1.5-3.3,2.6-4.8.9-1.3,2.1-1,3.2,1Z"/>
    <path d="M189.9,215.8c-.7-1.4-1.3-2.6-1.9-3.9-.3-.8-.9-1.5,0-2.4.9-.9,1.6-.8,2.6-.4,3.3,1.5,6.6,2.9,9.8,4.4.5.2,1,.5,1.5.8-.6.4-1.2.8-1.9,1.1-.3.1-.7,0-1,0-.9,0-2-.6-2.6-.2-1.2.8-2.2,2-3.3,3.1-.1.1.2.7.3,1,.1.6.4,1.3.3,1.9,0,.4-.7.8-1.1,1-.1,0-.7-.4-.8-.8-.7-1.9-1.3-3.7-2-5.7M194.8,212.8c-.8-.1-1.6-.3-2.4-.3-.5,0-1.2-.2-1.3,0-.8,1.2.8,1.7,1,2.6,0,.2.8.4,1.1.2.8-.5,1.5-1.1,2.1-1.8.1-.1-.1-.5-.5-.8Z"/>
    <path d="M57.3,201.4c-.4-.8-.6-1.6-1-2.3-.2-.4-.7-.7-1.1-.8-.5-.1-1.2.1-1.7,0-.5-.2-.9-.7-1.3-1.1.4-.3.8-.9,1.3-.9,3.3-.3,6.6-.5,9.8-.7,1.2,0,2.4.1,2.6,1.2.2.9-.4,2.1-1,2.8-1.4,1.6-3,3-4.5,4.6-.9.9-1.7,1.9-2.5,2.8-.3.3-.6.4-.9.6-.2-.4-.7-.8-.6-1.2,0-.8.1-1.9.6-2.4.8-.9.7-1.6.3-2.6M61.6,197.6c-.4.1-.8.3-1.2.3-2.1.3-2.3.7-1.4,2.6.4.9.7,1,1.4.3.6-.6,1.3-1.2,2-1.7.5-.4,1.1-.7,1.7-1.1-.7-.2-1.4-.3-2.5-.5Z"/>
    <path d="M24,202.4c-1,.8-1.8,1.6-2.7,2.3-.4.3-.8.6-1.1.9-1.9,1.7-3.7,3.5-5.6,5.2-.2.1-1.1-.3-1.1-.3.2-.9.2-1.9.7-2.5.9-1.3.9-5-.4-6-.3-.2-.9-.1-1.2-.3-.7-.3-1.5-.5-1.9-1-.6-.6-.3-1.3.6-1.3,1.2,0,2.5.3,3.7.3,1.8,0,3.5,0,5.3,0,1,0,2,0,2.9.4,1,.4,1.3,1.3.9,2.4M19,201.6c-.4.1-.8.2-1.2.3-1.4.3-1.9,1.6-1,2.7.2.2,1,.2,1.3,0,.8-.5,1.4-1.1,2.1-1.7.5-.4,1-.9,1.5-1.3-.6,0-1.3,0-1.9,0-.2,0-.3,0-.8,0Z"/>
    <path d="M98.1,245.9c.3.2.6.3.8.4.5.4,1,.8,1.5,1.2-.8.1-1.7.6-2.3.3-2-.9-3.9-2-5.8-3.1-.8-.4-1.1-1-.4-2,1.7-2.7,3.2-5.7,4.9-8.5.2-.4.9-.6,1.3-.8,0,.4,0,.8,0,1.2,0,.2.2.5.3.7,0,0,.4-.2.6-.2.4-.1.9-.4,1.2-.2,1.5.8,3,1.8,4.4,2.7.3.2.3.7.5,1.1-.4,0-.9.2-1.2,0-1.4-.6-2.7-1.3-4.1-2-1.5-.8-1.6.9-2.5,1.3.4.5.7,1.1,1.2,1.5,1,.7,2.1,1.2,3.1,1.9.4.3.5.9.8,1.4-.6,0-1.2.2-1.7,0-1.1-.5-2.2-1.2-3.3-1.8-.3-.1-.9-.2-1.1,0-.7.8-1.4,1.8-2.1,2.7.6.3,1.1.7,1.7,1,.7.4,1.4.8,2.1,1.3Z"/>
    <path d="M176.2,293.7c-1.9,1-3.8,2-5.8.7-.7-.4-1.2-1.1-1.7-1.8,0,0,.5-.9.7-.8.5,0,1.1.3,1.6.6,1.9,1,3.8,0,4.7-1.2.1-.2,0-.8-.1-.9-.6-.4-1.3-.7-2-.8-1.1-.2-2.3-.3-3.4-.4-1.3,0-2.4-.7-2.6-2-.2-1.5-.4-2.9,1.7-3.9,3.1-1.4,4.9-1.5,6.9.8.1.2.2.4.3.6-.2.1-.5.4-.7.4-.7,0-1.5-.2-2.2-.5-.9-.4-3.5,0-3.9.9-.1.3.4,1.2.7,1.3,1.3.4,2.7.6,4.1.7,1.6.2,2.9.8,3.4,2.3.5,1.6-.3,3-1.7,4.1Z"/>
    <path d="M84.9,208c-.7-.2-1.4-.4-2-.5-.5,0-1,.3-1.4.2-.5-.2-.9-.7-1.4-1.1.4-.4.7-1,1.2-1.1,3.4-1,6.9-2,10.3-2.8.6-.1,1.5.5,2,1,.3.3.1,1.2,0,1.7-1.4,2.8-2.8,5.5-4.3,8.2-.5.9-1.2,1.8-2.2,1.3-.9-.4-.9-1.5-.3-2.4.7-1,.4-1.8-.3-2.6-.5-.5-1-1.2-1.5-1.9M89.4,205.4c-.8.3-1.5.6-2.3,1-.9.5-.9,1.1,0,1.7.7.5,1.5,1,2.2-.1.5-.8,1.3-1.4,2-2.1.2-.2.3-.5.5-.8-.4,0-.8-.2-1.2-.2-.4,0-.7.2-1.2.5Z"/>
    <path d="M259,260.2c-1.6-.8-2.2.6-2.9,1.2-2.5,2-5.2,1.6-6.3-1.3-.2-.6.5-1.7.9-2.5.4-.8.9-1.4,1.4-2.1.7-1,3.8-1.5,4.7-.8.6.5.9,1,0,1.4-.6.2-1.3.5-1.9.7-.3.1-.7.2-1,.3-1.1.4-2.3,2.5-1.8,2.7.8.3,1.8,0,2.7-.2,1.1-.4,2-1.4,3.1-1.8,3-1.1,5.3.9,4.7,4.1-.5,2.9-3.1,4.9-6,4.6-.6,0-1.2-.7-1.8-1,.6-.4,1.2-1,1.9-1.3,1-.4,2.3-.3,3.2-.8.7-.4,1.1-1.4,1.6-2.1-.7-.4-1.5-.8-2.4-1.2Z"/>
    <path d="M164,255.9c-.4.5-.9,1.1-1.4,1.2-2.1.4-4.2.8-6.3,1-1.8.2-2.1-.2-2.3-2.1-.3-2.6-.9-5.3-1.3-7.9-.3-1.7.8-3,2.4-2.5,1.7.5,2.9-.4,4.3-.5.3,0,.6-.3.9-.2.6.2,1.1.5,1.6.7-.5.4-.9,1.1-1.4,1.2-1.5.4-3,.7-4.4.7-1.9,0-.9,1.3-.8,1.8.1.5,1,1.2,1.5,1.2,1.6,0,3.1-.4,4.7-.5.4,0,.8.3,1.2.4-.2.4-.4,1-.7,1.1-1.3.4-2.6.7-3.9.8-2,.2-2.6,1.3-1.8,3.1.6,1.2,1.5.7,2.3.6,1.7-.1,3.3-.4,5-.6.2,0,.5.2.8.4Z"/>
    <path d="M260.7,226.3c1.9,2,2.2,3.2,1.2,5.1-1.6,3.1-3.8,3.7-5.8,3.4-.3,0-.8-.4-.8-.6,0-.4.2-.9.5-1.1.4-.3,1-.5,1.5-.5,2.3-.2,2.5-2.1,3-3.8.2-.7-1.2-1.3-2.1-.8-.6.3-1.3.6-1.5,1.2-.7,1.7-2.3,2-3.7,2.5-1.7.6-3.2-.6-3.8-2.8-.6-2.4,1.4-5.6,3.8-5.9.7,0,1.5.2,2.2.3.1,0,.4.3.3.4-.1.3-.3.8-.5.9-.6.2-1.3.2-1.9.4-.7.2-1.5.4-2,.9-.7.7-1.6,1.6-.7,2.6.9,1,2.7.7,3.4-.4,1.4-1.9,4.1-2.7,6.8-1.9Z"/>
    <path d="M207.9,4.2c2.6,0,3.3.9,2.5,3.6,0,.3-.2.5-.2.7,0,4.3,0,8.6-.1,12.9,0,1.2-1.1,1.9-2.2,1.7-.5,0-1.3-.9-1.3-1.5,0-1.5.2-3.1.2-4.6,0-1.6-.3-3.2-.3-4.8,0-2.3.2-4.5.4-6.8,0-.4.6-.8,1.1-1.3Z"/>
    <path d="M152.9,296.8c-.5.5-1.1,1-1.6,1.1-2.2,0-4.3,0-6.5,0-1.3,0-1.7-1.1-1.7-2.2,0-1.2.3-2.4.3-3.6,0-1.3,0-2.6-.3-3.8-.3-1.8,0-2.2,1.7-2.3,2.1-.1,4.1-.4,6.2-.6.3,0,.7.4,1,.6,0,0-.2.5-.4.7-1.3,1.5-3.1,1.5-4.9,1.3-1.2-.1-1.5.5-1.7,1.4-.1.8,0,1.4,1.1,1.4,1.6,0,3.3-.1,4.9,0,.2,0,.6.6.6.6-.7.7-1.2,1.8-2.7,1.3-2.5-.9-4.4.9-4,2.4.1.5.8,1.1,1.2,1.1,1.8,0,3.5-.2,5.3-.2.4,0,.9.5,1.3,1Z"/>
    <path d="M155.7,315c.8.7.8,1.3-.2,1.4-2.4.3-4.8.5-7.2.7-1.3,0-2.4-1.6-2.3-2.9.1-1.1,0-2.3,0-3.4,0-.7,0-1.3,0-2,0-.6,0-1.2,0-1.8-.3-1.1.3-2.1,1.5-2.1,1.3,0,2.6.1,3.9.1.8,0,1.7-.1,2.5-.1.5,0,1,.2,1.4.3-.3.3-.6.9-1,1-1.5.3-3,.7-4.5.7-1.3,0-1.7.8-1.8,1.7-.2.8-.1,1.3,1.1,1.1,1.5-.3,3-.1,4.6,0,.4,0,.7.5,1.1.7-.3.3-.6.8-.9.9-1.1.2-2.3.2-3.4.4-.7.1-1.6.4-2.1.9-.3.3-.1,1.5.3,1.8.6.4,1.5.6,2.2.6,1.5,0,3,0,4.6,0Z"/>
    <path d="M170.6,222.5c.3.3.6.5.8.8.2.3.3.8.2,1-.2.3-.7.6-1,.6-.9,0-1.8-.2-2.7-.3-1.1-.2-2.4.7-2.3,1.7,0,.3.5.9.8.9,1.1,0,2.2,0,3.3-.2,2.6-.6,5.2,1.2,5,3.8,0,.7-.6,1.3-1.1,1.9-.4.4-.9.7-1.4,1.1-2.3,1.9-4.5,1.7-6.5-.5-.1-.1-.2-.3-.4-.5.2-.1.5-.4.7-.4.7,0,1.5.1,2.2.4,1.4.5,2.7,0,3.6-.8.5-.4.5-1.5.7-2.3-.7,0-1.5-.3-2.2-.2-2,.2-3.9.5-5.6-.8-1.9-1.5-2.1-3.2,0-5.1,1.7-1.5,4-2,6-1Z"/>
    <path d="M93.3,301.9c.3.1.5.2.7.3.4.3.9.7,1.3,1.1-.7.2-1.4.7-2,.6-.8-.1-1.5-.8-2.3-1-.7-.2-1.7-.4-2.1,0-.7.6-1.2,1.6-1.7,2.5,0,0,.5.5.8.6,1.8.6,3.7,1.1,5.5,1.8.3.1.7.5.7.7,0,.3-.4.8-.7.8-.7,0-1.5,0-2.2-.2-2.1-.7-4.1-1.5-6.1-2.4-.2-.1-.6-.6-.5-.7,1.2-3,2.5-6,3.8-8.9.4-.9,1.2-1.3,2.4-.9,1.9.7,3.9,1.1,5.8,1.7.4.1.6.6.9.9-.6.3-1.2.9-1.7.8-1-.1-1.9-.7-3-1-.8-.2-1.6-.4-2.4-.2-.5.1-1.2,1.1-1.1,1.5.2.6,1,1.1,1.6,1.4.6.3,1.3.5,2.1.7Z"/>
    <path d="M27.9,228.6c-2.1,1.3-2.1,1.5-.9,3.4.6,1,1.2,2.1,1.7,3.2.1.2-.1.6-.2.9-.3-.1-.8-.1-1-.4-1.4-2-2.9-4.1-4.1-6.2-.2-.3.5-1.4,1.1-1.8,1.4-.9,2.9-1.6,4.4-2.4,1.2-.7,2.5-1.3,3.7-2.1,1.1-.7,1.7-.2,2.2.5,1.1,1.7,2.1,3.4,3,5.2.2.4,0,1,0,1.6-.5-.2-1.3-.2-1.6-.6-.8-1.3-1.4-2.7-2.2-4-.2-.3-1-.6-1.2-.5-.7.5-1.3,1.2-1.9,1.9-.1.1,0,.6.2.9.8,1.1,1.6,2.2,2.3,3.4.2.4,0,1.1,0,1.6-.4-.2-1-.3-1.3-.6-.8-1-1.5-2.1-2.1-3.2-.5-.9-1-1.4-2.1-.8Z"/>
    <path d="M143.4,231.8c.4,0,.7,0,.8,0,.4.3.8.8,1.2,1.2-.5.3-1,.8-1.5.8-.9,0-1.8-.1-2.7-.3-1.5-.3-2.8.6-2.9,2.2,0,.1,0,.2,0,.3,0,1,.1,1.2,1.2,1.2,1.6,0,3.3.2,4.9.4.4,0,.7.5,1,.8-.3.3-.5.7-.8.9-.3.2-.8.4-1.2.3-2-.2-4-.3-6-.7-.5-.1-1.4,1.4-1.5-.2,0-.6.5-1.3.6-1.9.3-1.5.4-2.9-.2-4.5-.6-1.4-.2-3.3,0-4.9,0-.2,1-.6,1.5-.5,2.3,0,4.5.2,6.8.3.5,0,1,.3,1.4.5-.5.4-.9,1-1.4,1.1-1.3.2-2.6,0-3.9,0-1.5,0-2.7,1.2-2.5,2.6,0,.3.5.8.8.8,1.4,0,2.7-.2,4.3-.3Z"/>
    <path d="M43.4,281.8c-.4.1-.9.2-1,.1-.3-.7-.9-1.4-.7-2.1.2-1,.9-2.2-.2-2.8-1.4-.7-2.4-2.8-4.5-1.6-.1,0-.3,0-.5,0-.6,0-1.2,0-1.7-.1.3-.5.4-1.3.8-1.6,2.4-1.4,4.8-2.7,7.3-4.1.5-.2,1-.4,1.4-.6,1.4-.9,2.1.3,2.8,1,.2.2.2.9.1,1.3-1.2,3.2-2.4,6.3-3.6,9.5,0,.2,0,.5-.2.9M41.2,273.3c-1,1,.3,1.2.7,1.6.2.2,1.1.2,1.4,0,.7-.7,1.2-1.5,1.7-2.3.1-.2.1-.8,0-.9-.3-.2-.7-.2-1,0-.9.5-1.7,1-2.7,1.7Z"/>
    <path d="M58.1,159.3c-1.1,3.1-1.8,3.8-3.8,3.7-1.8,0-3.7-1.8-4-3.6-.1-1-.4-2-.3-2.9.1-1.4-.6-1.3-1.5-1.3-.8,0-1.6,0-2.4-.4-.4-.1-.6-.7-.9-1.1.5-.3,1-.8,1.5-.8,1.6,0,3.2.2,4.8.3,1.6,0,3.2,0,4.7,0,1.5,0,2.4,1.2,2.2,2.7-.1,1.1-.2,2.2-.3,3.4M52.3,157.1c0,.6-.2,1.3,0,1.8.3.7.9,1.4,1.5,1.6.5.2,1.6-.3,1.7-.8.4-.9.3-2.1.4-3.1.1-1.1-.6-1.2-1.4-1.1-.9.1-2.2-.5-2.3,1.5Z"/>
    <path d="M20.2,245.1c-3,1.4-5,.8-6.5-1.9-.9-1.7-1.6-1.9-3.3-.9-.4.2-.9.4-1.2.7-.8.7-1.4,0-1.5-.5-.1-.4.2-1.3.6-1.5,2.8-1.8,5.7-3.4,8.5-5.1.9-.6,1.4-.2,1.8.4.9,1.4,1.8,2.7,2.5,4.2.9,1.7.3,3.2-.9,4.7M18.6,239.6c-.9-1.5-2-.8-2.9,0-.5.4-1.1,1.6-.9,2,.5.8,1.5,1.4,2.4,1.8.9.4,1.8-.2,1.9-1.2,0-.7-.2-1.5-.5-2.5Z"/>
    <path d="M56.3,191.9c-.6-.9-1.4-1.6-1.6-2.5-.4-1.9-1.1-2.6-2.9-2-1.3.4-2.3.6-3.2-.5.8-.6,1.5-1.4,2.4-1.7,2.4-.8,4.8-1.5,7.2-2.2,2.1-.6,2.5-.4,3.2,1.6.4,1.3.8,2.6,1,4,.3,1.5-.2,2.8-1.6,3.6-1.5.8-3,1.2-4.5-.3M59.6,189.8c.9-.8.8-1.7.6-2.7-.2-.9,0-2-1.4-1.6-1.1.3-2.6.5-2.7,2-.2,2.2,1.1,3.2,3.5,2.4Z"/>
    <path d="M165.1,290.4c.1,1.8.3,3.3.3,4.9,0,.4-.4,1.1-.6,1.1-.4,0-1.2-.3-1.3-.6-.7-2.7-3.2-3.9-4.6-6-.1-.2-.7-.4-.8-.4-.4.5-1,1-1,1.5,0,1.6.2,3.2.2,4.8,0,.5-.7.9-1.1,1.4-.2-.5-.5-.9-.6-1.4-.4-2.6-.7-5.1-1-7.7,0-.3,0-.7,0-1,.2-.7.5-1.4.8-2,.6.3,1.3.6,1.7,1,1.7,1.6,3.2,3.2,4.9,4.8.2.2.7.2,1,.4.1-.4.4-.9.3-1.2-.7-1.4-.9-2.8-1.1-4.3-.2-1,.4-1.2,1-1.4.8-.2.8.3.9.9.2,1.7.6,3.3,1,5.2Z"/>
    <path d="M17.2,212c2.4.5,4.8,1,7.1,1.4.8.1,1.7.2,2.5.3-.2-.7-.4-1.5-.7-2.2-.2-.6-.6-1.1-.7-1.7,0-.4.2-.9.3-1.4.4.2,1,.3,1.2.6.7,1.3,1.3,2.6,2,3.9.4.8.6,1.7,1.1,2.4.6,1.1.2,1.6-.9,1.5-1.7-.3-3.4-.7-5.1-1.1-1.5-.3-3-.7-4.6-.9-1.2-.2-1.1.6-.8,1.3.5,1.3,1,2.5,1.4,3.8.2.5-.1,1.2-.2,1.8-.5-.4-1.1-.6-1.4-1.1-1.3-2.5-2.7-5-3.5-7.7-.3-1,1.1-1.4,2.3-1Z"/>
    <path d="M206.8,279.5c-.3-3.2-.7-6.2-1-9.2,0-.5.2-1.2.5-1.6.7-.8,1.3-.3,2,.3,3.1,2.2,6.2,4.4,9.3,6.6.1,0,.1.7,0,.8-.9.7-1.7.7-2.7,0-1.6-1.3-3-.1-4.2.7-.9.6-2.3,1.3-1.6,3,.2.4-.2,1.2-.5,1.6-.2.3-.8.5-1.2.7,0-.4-.2-.8-.3-1.2-.1-.5-.2-.9-.3-1.6M210,272.8c-.4-.2-.8-.4-1.3-.6-.3,0-.6,0-.9,0,.1,1.2.3,2.3.4,3.5,0,0,.6,0,.9,0,.4-.2.8-.5,1.2-.8.4-.3.8-.6,1.2-.9-.4-.4-.8-.8-1.5-1.2Z"/>
    <path d="M186.6,76.4c-.5,1.2-.8,2.4-1.4,3.4-.8,1.3-2.3,1.4-3,0-.9-1.9-1.7-3.8-2.4-5.8-.5-1.4-.9-2.8-1.2-4.2-.2-.8-.7-1.9.5-2.3,1.2-.4,1.4.6,1.7,1.5.7,2.2,1.3,4.4,2.1,6.6.1.4.5.7.7,1.1.4-.3.9-.6,1.1-1,.8-2.1,1.6-4.2,2.2-6.4.5-1.5,1.6-2.1,2.9-2.4.2,0,.5.1.7.3.1.1,0,.5,0,.7-1,2.4-2.1,4.8-3.2,7.1-.2.4-.3.9-.6,1.4Z"/>
    <path d="M26.3,142c-1.1-2.5.5-6.5,3.9-6.7,3.4-.2,6.7.5,8.7,3.8,1.4,2.3-.2,6.9-2.7,7.7-.4.1-1,.2-1.1,0-.2-.4-.4-1-.2-1.3.2-.6.7-1.1,1.2-1.5,2.3-2.6,1.4-4.9-1.6-5.8-.8-.2-1.6-.4-2.5-.5-1.8-.3-2.9.7-3.6,2.2-.6,1.3-.8,2.6.6,3.7.5.5,1.4,1.3.4,2-.3.2-1.5-.4-1.9-.9-.5-.6-.7-1.6-1.1-2.6Z"/>
    <path d="M96.6,263.9c1.7-2.4,3.6-4.1,6.3-5,1.3-.5,1.5.3,1.5,1,0,2.3-.2,4.5-.3,6.8,0,1.4.2,2.8.3,4.3,0,.4-.3.8-.5,1.1-.3-.3-.7-.5-.9-.9-.4-.8-.6-1.6-1-2.4-.2-.4-.5-.8-.8-1-.9-.4-1.8-.8-2.8-1-.7-.1-1.4-.2-2.1.6-.6.7-2,.7-3.1,1-.2,0-.6-.3-.6-.4,0-.3.2-.6.4-.8,1.1-1.1,2.3-2.1,3.5-3.2M103,261.9c0-.3,0-.6.1-.9-.3,0-.6,0-.8.2-1.1,1-2.2,2-3.3,3-.1.1,0,.7.1.9,1.3.9,2.9.4,3.3-1,.2-.7.2-1.4.5-2.2Z"/>
    <path d="M99.8,278.8c1.5,2.3.1,5.6-2.5,5.8-.9,0-1.9,0-2.8-.3-1.6-.4-2.6,0-3.6,1.8-.9,1.6-1.4,1.8-2.1.6-.2-.3-.2-.8,0-1.1,1.1-2.7,2.4-5.3,3.4-8,.5-1.4,1.5-1.8,2.6-1.4,1.7.6,3.3,1.6,5,2.6M94.8,278.9c-.5.7-1.2,1.3-1.5,2.1-.5,1.1,0,1.6,1.2,1.3.2,0,.4,0,.7,0,1.4,0,3.1.2,3.1-1.7,0-1.9-1.8-1.7-3.5-1.7Z"/>
    <path d="M59.2,234.7c-.3-1.1-.6-2-.7-3-.2-2.1,1.7-3.4,3.9-2.6,2.2.7,3.9,3.1,3.8,5.5,0,.6-.6,1.3-.9,1.9-.4-.6-1.1-1.3-1.1-1.9,0-1.3-.2-2.3-1.4-2.9-.5-.2-1.4-.5-1.5-.4-.4.6-.7,1.3-.6,1.9.3,1.2,1,2.4,1.5,3.6.7,1.6.3,2.9-1,3.9-1.4,1.2-3,1.3-4.5.3-1.4-1-2.8-2-2.4-4.1,0-.5-.4-1.1-.3-1.5,0-.4.5-1,.9-1,.3,0,.9.4,1.1.8.2.6.1,1.2,0,1.8-.1,1.1.3,1.9,1.3,2.1.8.1,2,.1,2.3-.3.4-.6.2-1.7.2-2.6,0-.4-.4-.9-.7-1.4Z"/>
    <path d="M211.4,214.6c.5,3.5,1,6.9,1.5,10.3.1,1,1,1.2,1.7.6,1-.9,1.9-2,2.9-2.8.4-.4,1.1-.6,1.7-.7.3,0,.7.3,1.1.5-.3.3-.6.5-.8.8-1.5,1.6-3,3.3-4.6,4.8-1.2,1.2-2.3,1.2-3.3.1-.2-.2-.4-.5-.4-.7.2-3.1-1.6-6.1-.4-9.2,0-.3-.2-.7-.3-1-.3.2-.7.4-.9.6-.9,1.2-1.8,2.6-2.8,3.7-.4.4-1.2.4-1.8.5,0,0-.5-.8-.4-.9,2.1-2.4,4.3-4.8,6.4-7.1,0,0,.2.2.4.4Z"/>
    <path d="M29.7,264c1.6-1.5,3.2-3,4.7-4.4.3-.3,1.1-.6,1.3-.4,2.1,1.7,4.6,3,5,6,.2,1.5-1.6,3.8-3.1,3.7-1.7-.1-3.4-.3-4.4-2.1-.6-1.2-1.7-1.2-2.9-.2-.6.5-1.3,1-2,1.3-.3.1-1.2,0-1.2-.2-.2-.5-.2-1.2,0-1.6.7-.8,1.5-1.4,2.4-2.2M38.4,265.5c.4-1.6-.8-2.4-1.8-3.1-1.4-.8-2.2.5-2.9,1.4-.3.3-.2,1.3,0,1.7,1.6,1.9,2.7,1.9,4.7,0Z"/>
    <path d="M141.8,259.1c-1.4-1.2-.6-2.7-.7-4-.2-1.7,0-3.4-.3-5-.5-2.4.2-3.4,2.6-3.4s2,0,3,0c2-.2,4.3,2.4,4.2,4.1-.1,1.8-1.8,3.3-4,3.4-.9,0-1.8,0-2.6.4-1.3.5-.5,1.9-.9,2.8-.3.7-.8,1.2-1.3,1.8M146,248.7c-.8.2-1.9-.6-2.4.7-.3.8-.4,1.7-.5,2.6,0,.2.4.6.6.6.9-.1,1.9-.2,2.8-.5.9-.4,1.5-1.2,1.3-2.4-.1-1.1-.9-.9-1.9-1Z"/>
    <path d="M85.3,285.5c-2.2-1.2-4.3-2.2-6.4-3.3-.7-.4-1.2-.9-1.9-1.4.6-.7,1.1-1.6,1.9-2,2.4-1.1,4.9-2.1,7.4-3,.3-.1.7-.2,1-.4.2,0,.3-.3.5-.5-.2-.2-.4-.4-.6-.5-1.2-.5-2.5-.9-3.7-1.4-.4-.2-.7-.6-1-1,.5-.2,1.1-.8,1.4-.7,2.4,1,4.7,2,6.9,3.2,1.1.6,0,1.5-.5,1.8-1.8.9-3.6,1.6-5.4,2.4-1.3.6-2.6,1.1-3.9,1.7-.3.2-.4.6-.7,1,.3.1.6.2.9.4,1.7.7,3.5,1.4,5.2,2.2.2.1.4.9.3,1-.5.2-1,.4-1.6.4Z"/>
    <path d="M132.2,285.9c1.8-.3,3.6-.5,5.3-.6.8,0,1.6.4,2.4.6.5.2.9.5,1.4.7-.2.4-.4.9-.7,1.3-2.2,2.4-4.5,4.7-6.7,7.1-.2.2-.3.5-.5.7.3.1.7.4,1,.4,1.9,0,3.8,0,5.6,0,.3,0,.6.5,1,.8-.3.3-.7.6-1,.8-.2,0-.4,0-.7,0-2.3,0-4.7,0-7,0-.6,0-1.5-.3-1.6-.8-.2-.5,0-1.5.4-1.9,2-2.2,4.1-4.4,6.2-6.6.3-.3.4-.8.4-1.2,0-.2-.7-.4-1-.4-1.1,0-2.2.4-3.2.2-.5,0-.9-.8-1.2-1.4Z"/>
    <path d="M55.7,135.9c1.5-.1,2.8-.3,4.1-.3.7,0,1.3.5,2,.8-.6.5-1.2,1.3-1.9,1.5-2.4.5-4.8.7-7.2,1.1-.5,0-.9.6-1.4.9.4.2.7.5,1.1.7,1.5.9,3,1.8,4.5,2.7.4.3,1.1.4,1.4.7.4.6.6,1.4.9,2.2-.7,0-1.5.3-2,0-2.8-1.8-5.6-3.6-8.3-5.6-.7-.5-1.1-1.5-1.4-2.4,0-.3.7-1.1,1.2-1.2,2-.3,4.1-.5,6.1-.7.3,0,.6-.2,1-.3Z"/>
    <path d="M7.7,220.7c.7-.4,1.8-1,1.9-.9.9,1,.5,2.1-.3,2.9-1.5,1.5-3.1,2.9-4.6,4.3-.6.5-1.1,1.1-1.7,1.7.8,0,1.5-.2,2.3-.3,2.5-.3,5-.6,7.5-.7.5,0,1,.8,1.6,1.2-.5.2-.9.6-1.4.7-3.7.5-7.4.9-11.2,1.2-.5,0-1.2-.5-1.5-.9-.4-.7-.5-1.5.3-2.2,2.4-2.3,4.7-4.7,7.1-7.1Z"/>
    <path d="M131.5,252.7c1.3-1.2,2.5-2.3,3.7-3.4.2-.2.5-.5.7-.7-.4-.2-.7-.5-1.1-.5-1.1,0-2.2,0-3.3,0-.6,0-1.2-.6-1.8-.9.4-.6.5-1,1.7-.9,2,.3,4.1-.3,6,.8,1.6.9,1.7,1.4.5,2.5-2.4,2.2-4.8,4.3-7.1,6.5-.2.2-.2.5-.3.7.2,0,.4.1.6.1,2,0,4,0,6,0,.5,0,1,.3,1.5.5-.5.4-1,1.2-1.5,1.2-2.8,0-5.6-.1-8.4-.3-.2,0-.6-1-.5-1.2.9-1.4,2-2.8,3.1-4.2Z"/>
    <path d="M256.2,195.9c-.4,4.5-4,7-8.1,5.3-1.9-.8-3.6-1.5-4.2-3.6-.2-.8-.2-1.6-.2-2.5,0-1.8.4-3.4,2-4.5.2-.1.4-.5.6-.5.9,0,1.7,0,2.6,0-.4.6-.8,1.3-1.3,1.9-.7.9-1.6,1.8-2.1,2.8-.3.6-.2,1.9.2,2.2,1.5,1,3.2,2,4.9,2.4,1.5.4,2.4-.8,3.1-2.1.6-1.2.5-2.3-.3-3.3-.4-.5-1.1-1.1-.1-1.6.5-.2,1.3,0,1.8.3,1.1.7,1.1,1.8,1,3.1Z"/>
    <path d="M96.7,222.6c.8-2.8,1.7-5.5,2.5-8.1.3-.8.5-1.7.9-2.5.2-.3.7-.5,1-.7.3.6,1.5.7,1,1.9-1,2.4-1.8,4.9-2.7,7.3-.1.4,0,.8,0,1.3.4-.1.8-.2,1.2-.4,1.6-1.2,3.1-2.5,4.7-3.7.5-.3,1-.6,1.5-.8,1.1-.5,2.1-.3,3,.5-.6.6-1.1,1.4-1.8,1.6-3,.9-4.8,3.5-7.5,4.9-1.6.9-2.7.7-3.8-1.1Z"/>
    <path d="M222.1,257.9c1.7-.7,2-.6,1.9,1.2-.2,3.2-.4,6.3-.6,9.5,0,.3.2.6.3.9.2-.2.4-.3.6-.5,1.5-1.2,2.9-2.5,4.5-3.6.4-.3,1.3.1,1.9.2-.3.4-.5.9-.8,1.3-1.7,1.5-3.5,2.9-5.3,4.3-.5.3-1.3.6-1.8.4-.4-.2-.8-1.1-.8-1.6,0-2.7.2-5.4.3-8,0-1-.5-1.4-1.3-.9-.8.4-1.5,1.1-2.3,1.5-.6.3-1.4.4-2.1.6.2-.7.3-1.5.8-1.9,1.4-1.2,3-2.2,4.6-3.4Z"/>
    <path d="M173.8,244.6c-.5.2-.9.3-1.2.3-1.7-.3-3.3-.5-4.8.7-.9.7-1.2,1.6-1,2.6.2,1,.4,2,.8,2.9.4.8,1.1,1.8,1.9,2,1.7.5,3.1-.4,4.3-1.7.4-.4,1.3-1,1.6-.9,1,.5,0,1.1-.1,1.7-.8,2.5-3.2,3-5.1,3.1-2,0-3.8-1.4-4.7-3.5-.8-1.9-1.7-3.7-.8-5.8.6-1.5,1.6-2.6,3.3-2.8,1.2-.2,2.2-1.1,3.7-.7,1.3.3,1.8.9,2.1,2Z"/>
    <path d="M109.5,288.3c0,.1.1.2,0,.3-1.7,3-1.3,3.6,2.1,4.1.9.1,1.7.5,2.5.8.3.1.4.5.7.8-.4.3-.9.8-1.2.7-2.4-.6-4.8-1.3-7-2.2-.4-.2-.6-1.6-.4-2.4.5-2.5,1.1-5,1.8-7.5.3-1,.7-1.6,2.1-1.1,2,.6,4.1.7,6.1,1.1.5.1.9.7,1.4,1.1-.5.2-1.1.5-1.6.5-1.5,0-3,0-4.4-.4-1.3-.3-1.8.7-2,1.3-.3.8-1.5,1.8-.2,2.8Z"/>
    <path d="M70.6,238.6c3,.2,5,2.6,4.7,5.4,0,.4-.4.7-.6,1-.4-.2-.9-.4-1-.8-.3-.7-.2-1.6-.6-2.3-.7-1.3-2.8-1.8-4.2-1.1-2.2.9-3.4,2.7-4,4.9-.4,1.5,1.7,3.1,3.4,2.9.9-.1,1.9.3,2.9.5,0,0,0,.6,0,.6-.9.4-1.7,1-2.6,1-4.3,0-6.3-4.5-4.9-7.5.8-1.7,1.6-3.4,3.3-4.1,1-.5,2.3-.4,3.7-.5Z"/>
    <path d="M192.9,295.1c2.2,0,4.3,0,6.4,0,1.4,0,1.9,1.2,2.1,2.5.2,1.5-.7,2.3-1.9,2.9-.3.1-.5.3-.8.5.3.2.6.5.9.5,2.2-.1,3.5,1.4,5.1,2.5.2.1.2.3.4.5-.2.1-.5.5-.7.4-.8-.1-1.7-.3-2.4-.6-1.2-.6-2.4-1.4-3.6-2-.3-.2-.7-.1-.9-.3-1.2-1.2-1.1-1.7.5-2.6.6-.4,1.7-1.4,1.6-1.5-.6-1.1-1.6-1.6-2.9-1.2-.5.2-1,.3-1.5.5-1.3.5-1.6,1.3-1,2.6.3.5.5,1.1.6,1.6,0,.4,0,1.1-.3,1.2-.4.2-1.1,0-1.3-.2-.9-1.3-2.1-2.7-2.4-4.2-.2-.8,1.3-1.9,2.1-2.9Z"/>
    <path d="M244.1,248.6c-2.2-.9-3.9-2.3-4.6-4.4-.4-1.2-.1-3,.5-4.1,1.1-1.8,2.9-3,5.1-3.5.3,0,1.2.6,1.2.8,0,.5-.4,1.1-.8,1.4-.6.4-1.4.6-2.2.9-1.5.5-1.9,1.8-2.3,3.1-.4,1.1,0,2.2,1.1,2.7,1.6.8,3.3,1.4,5.1,1.1,1.4-.2,2.4-2.2,2.1-3.7-.1-.5.1-1.1.2-1.6.4.3,1,.5,1.3.9,1.1,1.5.6,2.8,0,4.5-.8,1.8-2.4,1.8-3.6,2.5-.6.4-1.9-.3-3-.7Z"/>
    <path d="M129.5,287.1c-.2.6-.5,1.1-.8,1.6-.5-.4-1.1-.7-1.5-1.2-1.5-1.6-4-1.7-5.4,0-1.2,1.4-1.4,5.2-.3,6.2,1.2,1.1,2.3,1.5,3.8.7.7-.3,1.4-.6,2.1-.7.3,0,.8.3,1.1.5.1.1,0,.7-.2.9-2.6,2.5-7,2.1-8.6-.9-1.5-2.9-1.4-5.6.2-8.2,1.4-2.5,6.2-2.1,7.9-.6.5.5,1,1,1.6,1.6Z"/>
    <path d="M216.7,287.1c-.4.1-.7.3-1,.2-.6,0-1.2-.1-1.8-.2.4-.5.7-1.1,1.2-1.5,1.8-1.2,3.7-2.2,5.5-3.4.9-.6,1.5,0,1.7.5.2,1.1.3,2.2.1,3.3-.4,2.4-.9,4.7-1.4,7,0,.3.1.7.4.8.1.1.6,0,.8-.2,1.5-.9,3-1.9,4.6-2.8.3-.2.9.2,1.4.3-.1.3-.1.8-.3.9-2.3,1-4.7,2.2-7.1,2.9-1.3.4-1.9-.6-1.8-2,.2-2,1.4-3.8.7-5.9,0-.2.3-.5.4-.8.2-.4.3-.8.5-1.3-.5.1-1.1.1-1.6.4-.8.4-1.5,1-2.3,1.6Z"/>
    <path d="M208.1,74.9c.1-1.4.2-2.6.3-3.7,0-.8.1-1.6-1.1-1.3-.3,0-.7,0-1,0-1,0-2.3,0-2.1-1.1,0-.7,1.1-1.6,2.6-1.4,2.1.3,4.4,0,6.6.1.6,0,1.3.6,1.9.9-.6.3-1.1.9-1.7,1-3,.8-3.1.9-3.1,4.1s0,4.1,0,6.1c0,.9-.2,1.6-1.2,1.3-.7-.2-1.7-.5-1.5-1.6.1-1.4.2-2.8.3-4.4Z"/>
    <path d="M252.5,131.2c.3,0,.5,0,.6-.1,1.1-.6,2.7-.8,3.2-1.8.4-.8-.5-2.2-.8-3.4-.1-.6-.2-1.3,0-1.8.1-.4.6-.9,1-1,.2,0,.9.4,1,.8.5,2.4,1,4.9,1.4,7.4,0,.5-.6,1.4-1.2,1.6-2.9.9-5.9,1.7-8.8,2.4-.9.2-2.2.3-2.3-1.1,0-.5.9-1.3,1.6-1.6,1.3-.6,2.8-.9,4.3-1.4Z"/>
    <path d="M141.8,305.6c1.3.9,1.9,2.1,1.7,3.6-.2,1.5-1.2,2.5-2.6,2.5-1.8,0-3.6.2-4.8,1.9-.4.5-.8,1.4-.6,1.9.4.9-.2.7-.6.6-.3,0-.8-.2-.8-.3,0-.6-.3-1.4,0-1.8,1.2-2.2.4-4.4.1-6.6-.2-1.3.5-2.4,1.8-2.3,1.9.1,3.8.4,5.8.7M139.7,310.2c.6-.7,1.1-1.4,1.7-2.1-.8-.5-1.6-1-2.5-1.4-.2-.1-.6,0-.8,0-1.5.2-1.7,1.2-1.8,2.4-.1,1.4.8,1.3,1.7,1.3.5,0,1,0,1.7-.2Z"/>
    <path d="M251.8,155.9c-.1.7-.1,1.2-.4,1.7-.2.5-.7.9-1,1.3-.3-.4-.9-.9-1-1.4-.2-2.1-.3-4.3-.4-6.4,0-.6-.2-1.4,0-1.9.2-.4,1-.6,1.5-.8,0,.5.4,1,.3,1.4-.4,1.9.3,2.6,2.3,2.4,2.6-.3,5.2-.3,7.8-.3.5,0,.9.8,1.3,1.3-.4.3-.9.9-1.3,1-2.5.3-5.1.5-7.7.7-.5,0-1,.5-1.5,1Z"/>
    <path d="M159.7,311c1.6,3,3.9,3.6,6.7,1,.3-.3.7-.6,1.1-.6.4,0,.8.2,1.2.3-.2.4-.3.8-.5,1.2-1.2,2-3.1,2.1-5.2,2.3-2.2.2-4.7-1.3-5-3.6-.2-1.5-.5-3-.2-4.4.2-.9,1.1-1.9,2-2.5,2.1-1.5,5-1.4,6.9,0,.4.3.5,1.1.7,1.6-.5,0-1.2,0-1.6-.3-1.6-1.2-5.1-.2-5.7,1.8-.3,1-.3,2-.4,3.2Z"/>
    <path d="M205.8,246c.5,0,1,0,1.3-.1.8-.3,1.4-.5,1.8.6,0,.3.4.5.7.7,1.8,1.8,1.5,4.2-.6,5.6-.4.3-1,.4-1.4.8-.6.6-1.2,1.2-1.5,1.9,0,.3.8.9,1.2,1.4.2.2.5.4.6.6.2.6.5,1.5.2,1.8-.7.9-1.4,0-1.7-.6-.6-1.3-1.3-2.6-1.6-4.2-.4-1.9.8-1.6,1.5-2.1.9-.6,2-1.1,2.5-2,.3-.4-.3-1.6-.8-2.2-.2-.3-1.1-.5-1.5-.3-2.1.7-2.7,1.8-2.8,4,0,.5-.2.9-.3,1.4-.4-.2-.8-.4-1.1-.8-.6-.8-1.3-1.6-1.8-2.5,0-.2.4-.8.7-1,1.4-1,2.9-2,4.5-3Z"/>
    <path d="M182.4,309.3c-1.9.2-3.3.9-4.1,2.6-.2.3-.7.5-1,.8,0-.3-.3-.7-.3-1,.2-3.1.3-6.3.7-9.4,0-.8.9-1.8,1.6-2.1.5-.2,1.6.6,2,1.2,1.1,1.6,1.7,3.8,3.2,4.9,3.1,2.4.3,1.9-.9,2.3-.4.1-.7.4-1.2.7M182.1,305.1c-.6-.4-1.1-.8-1.7-1.2-.3.5-.8,1.1-1,1.7-.2.5-.3,1.1-.3,1.7,0,.3.3.9.5.9,1.7.2,2.9-1.2,2.5-3.1Z"/>
    <path d="M164.1,69.2c-.1,2.8-.2,5.5-.4,8.1,0,1,.5,1.3,1.2,1.3,1.1,0,2.3-.2,3.4-.3.5,0,1.1-.2,1.5,0,.6.3,1.2.9,1.7,1.3-.6.3-1.1.9-1.7,1-2,.1-4.1,0-6.1,0-1.7,0-2.3-1.4-2.3-2.6,0-3.2.2-6.4.4-9.6,0-1.2.8-1.7,1.9-1.4,1.3.4.1,1.2.3,2Z"/>
    <path d="M163.2,213.7c0-.5.1-1.1.4-1.2,5.9-2.4,11.1-5.7,15.9-9.8,2.7-2.4,5.2-5,7.8-7.5.4-.4.7-.9,1.1-1.3-.2.6-.4,1.2-.5,1.9,0,.6,0,1.2.1,1.8.3,1.2-.6,2.2-1.8,1.9-.4,0-1,0-1.2.2-1.9,1.8-3.7,3.7-5.6,5.5-.9.8-2,1.4-3,2-2.1,1.3-4.3,2.7-6.5,3.8-2.1,1.1-4.3,1.8-6.6,2.7Z"/>
    <path d="M211.2,166.1c-.7-.4-1.2-.9-1.7-1.3.6-.3,1.1-1,1.7-1,2.4-.1,4.9-.1,7.3,0,1.4,0,1.8-.7,1.9-1.8.1-1.2.1-2.5.4-3.7,0-.4.8-.6,1.2-.9.2.4.7.8.7,1.2,0,2.1,0,4.2-.3,6.3-.1,1.2-1.2,1.6-2.3,1.6-2.9,0-5.8-.2-8.8-.3Z"/>
    <path d="M121,224.7c-1-.5-1.9-.8-2.5.3-.8,1.5-1.4,3.1-2.2,4.7-.5,1-.9,2-1.5,2.9-.2.3-.8.5-1.1.7-.3-.5-.8-1.1-.7-1.5.2-1,.6-2,1-3,.6-1.5,1.3-3.1,2-4.6.7-1.3.1-1.7-1.1-2.1-.5-.1-1-.6-1.3-1-.1-.2.3-1,.6-1,.6,0,1.3.1,1.8.3,2,.8,4,1.6,5.9,2.5.6.3,1,.9,1.5,1.4-.8.1-1.6.3-2.5.3Z"/>
    <path d="M85.8,192.4c-2.1,1.3-4.1,2.6-6.2,3.8-2.5,1.4-2.6,1.3-1.3,3.8.4.8,1,1.5,1.3,2.4.2.5,0,1.1-.2,1.6-.5-.2-1.2-.2-1.4-.5-1.3-2.1-2.5-4.2-3.6-6.3-.1-.3.4-1.2.9-1.5,2.4-1.5,4.9-2.8,7.4-4.2,2-1.1,2.3-1,3,1Z"/>
    <path d="M241.9,157.8c-1.3,1.7-2.8,2.3-4.8,2.2-2-.2-4,.2-5.9.2-.4,0-1.1-.5-1.3-1-.3-.8,0-1.4,1.1-1.4,2.1,0,4.2-.2,6.3-.3.7,0,1.5,0,2-.4.5-.3.8-1.1.8-1.7,0-1.2-.1-2.3,0-3.5,0-.4.7-.8,1.1-1.2.3.4.8.7.8,1.1,0,1.9,0,3.9,0,5.9Z"/>
    <path d="M247.4,212.8c.5-1,.9-2,1.6-2.7.3-.3,1.2,0,1.8.2-.1.4-.2.7-.4,1.1-.6,1.1-1.3,2.3-1.9,3.4-.3.5-.4,1.1-.7,1.6-.9,1.5-1.8,1.7-3.3.8-2.2-1.3-4.4-2.5-6.6-3.7-.4-.2-.9-.4-1.2-.7-.3-.3-.4-.8-.7-1.3.5-.1,1.2-.5,1.6-.4,1.4.6,2.9,1.3,4.2,2.1,1.4.9,2.8,1.3,4.4.9.5-.1.8-.7,1.2-1.3Z"/>
    <path d="M212.8,246.4c-1-1.3-2-2.4-2.9-3.6-.1-.1.4-.8.7-1.1,1.7-1.5,3.5-2.9,5.3-4.3.3-.2,1,0,1.5.1,0,.4,0,1-.2,1.2-.9.9-2,1.6-3,2.5-.5.5-1.2,1.2-1.3,1.9-.2,1.5.6,1.9,1.9,1.1.9-.6,1.7-1.3,2.6-2,.5-.4.9-.9,1.4-1,.4-.1,1,0,1.3.3.1.1,0,.8-.1,1.1-.3.5-.7.9-1.1,1.2-1.5,1.1-3,2.2-4.6,3.1-.2.1-.9-.3-1.4-.6Z"/>
    <path d="M268.7,243.7c-1.1-.8-2.2-1.4-3.1-2.1-.5-.4-.8-1-1.2-1.5.7-.1,1.5-.5,2-.3,1.7.9,3.3,1.9,4.8,3.1,1.4,1.1,2.9,1,4-.6.6-.9,1.3-1.9,2.1-2.6.3-.3,1-.2,1.6-.3,0,.4,0,.9-.3,1.3-1.2,1.8-2.4,3.5-3.6,5.3-.5.7-1.1,1-2,.5-1.4-.9-2.9-1.8-4.4-2.7Z"/>
    <path d="M79.5,253c-1.7-1.3-3.4-.9-4.2.9-.3.6-.7,1.1-1.2,1.5-.3.2-1.1.2-1.3,0-.3-.3-.4-1-.2-1.3,1.9-2.9,3.8-5.7,5.8-8.5.3-.4,1.3-.5,1.8-.3,1,.4.4,1,0,1.6-.5.7-1.1,1.5-1.3,2.3-.2,1-.2,2.1,1.3,2.2,0,0,.2,0,.3.1.6.4,1.6,1,1.6,1.2-.5,1.1-1.5.8-2.4.3Z"/>
    <path d="M88.7,265.2c-1.3-.8-2.5-1.6-3.8-2.3-1.2-.6-1.3-1.3-.6-2.3,1.4-2.2,2.9-4.5,4.3-6.7.3-.4.7-.7,1.2-.8.6-.2,1.2-.2,1.8-.2-.2.5-.4.9-.6,1.4-1.3,2.3-2.6,4.6-3.8,6.9-.2.3,0,1.1.4,1.4,1.1.8,2.3,1.3,3.3,2.1.4.3.7.8,1,1.3-.7,0-1.3.3-1.9.2-.4,0-.8-.5-1.3-.9Z"/>
    <path d="M239,269c1.5-1.3,2.8-2.7,4.1-3.9.2-.2,1-.1,1.3.1.2.1.2.9,0,1.2-.6.7-1.4,1.3-2,1.9-.2.2-.4.6-.6.8.3.2.6.4,1,.5.6.2,1.3.3,1.7.7,1.4,1.5,2.8,3,4.1,4.6.3.4,0,1.3,0,1.9-.5-.3-1.1-.4-1.5-.8-1.5-1.5-2.9-3.1-4.3-4.6-1-1.1-2-1.3-3.2-.5,0,0-.2,0-.3,0-.7,0-1.4,0-2.1,0,.3-.6.6-1.1,1-1.6.1-.2.4-.3.9-.4Z"/>
    <path d="M63.8,177.7c.3.5.5,1,.7,1.5-.6,0-1.2,0-1.7-.2-1.2-.5-2.1-1-3,.6-.4.8-1.9,1.1-2.9,1.3-2.6.6-5.2,1-7.9,1.4-.5,0-1-.6-1.5-1,.3-.5.6-1.2,1-1.3,1.6-.5,3.3-.7,5-1.1,2.3-.5,4.5-1,6.8-1.4,1.1-.2,2.2,0,3.4.1Z"/>
    <path d="M32.8,254.9c1.9-1.9,2.8-2.2,4-1.2.2.2.3.5.5.7-.3.1-.6.3-.8.4-.6.1-1.3.2-1.9.3-.9,0-1.5.1-1,1.4.2.4-.7,1.4-1.3,1.9-2.1,1.8-4.3,3.5-6.5,5.1-.5.3-1.4,0-2.2,0,0-.5-.2-1.4.1-1.6,2.9-2.4,5.9-4.7,9-7.1Z"/>
    <path d="M128.5,309.6c-1.2,1-2.4,1.8-3.4,2.7-.6.6-.8,1.4-1.3,2.1-.3.5-.7,1-1.1,1.2-.5.2-1.5.5-1.2-.7.2-.8.3-1.7.8-2.2,1.7-1.7,3.6-3.2,5.4-4.8.3-.3.7-.6.9-1,0-.1-.2-.7-.4-.7-1.2-.2-2.5-.2-3.7-.4-.5,0-.9-.6-1.4-.9.5-.2,1-.7,1.4-.7,2.4.1,4.9.4,7.3.7.2,0,.4.3.7.4-.1.2-.2.3-.3.5-1.2,1.2-2.4,2.4-3.7,3.7Z"/>
    <path d="M156,74.9c.1-2.5.3-4.8.3-7.1,0-1.1.8-1.1,1.5-.9.4.1.8.8.8,1.2,0,3.4,0,6.8-.2,10.2,0,.7-.2,1.5-.6,2-.2.2-1.2-.2-1.8-.4-.2,0-.4-.4-.4-.7,0-1.4.2-2.7.3-4.3Z"/>
    <path d="M52.2,215.8c-1.6,1-3.1,1.9-4.7,2.8-1.4.8-2.7,1.6-4.1,2.3-.5.2-1.1.1-1.7.2,0-.7,0-1.7.3-2,1.2-1,2.6-1.7,4-2.4,1.6-.9,3.2-1.7,4.9-2.4.5-.2,1.2,0,1.8,0-.1.5-.3,1.1-.5,1.7Z"/>
    <path d="M248.5,173.8c.4-.9.6-1.6,2-1.4,3.3.6,6.6.7,9.9,1.1.4,0,.8.4,1.2.5-.4.5-.8,1.4-1.2,1.4-2.3,0-4.6-.2-6.9-.5-1.7-.2-3.3-.8-5-1.2Z"/>
    <path d="M28.9,222.2c-1.9,1-3.6,1.9-5.4,2.7-.5.2-1,.5-1.5.4-.5,0-1-.6-1.5-.9.3-.4.5-.9.9-1.1,1.2-.7,2.5-1.4,3.7-2,1.7-.9,3.5-1.7,5.2-2.5.5-.2,1.1-.1,1.6-.2,0,.8.7,1.9-.7,2.3-.8.3-1.5.8-2.3,1.2Z"/>
    <path d="M31,175.5c2.3-.2,4.4-.5,6.5-.6.4,0,1,.3,1.3.6.2.1,0,.8-.1,1-.6.5-1.2,1-1.9,1.1-3.1.4-6.1.8-9.2,1-.4,0-1.1-.4-1.3-.8-.1-.4.1-1.2.4-1.4.4-.3,1.1-.3,1.7-.4.8-.1,1.6-.2,2.6-.3Z"/>
    <path d="M51.3,246.7c1.2.8,1.3,1.5.2,2.4-2.3,2-4.5,4.1-6.8,6-.4.3-1.3,0-1.9-.1.1-.5,0-1.3.4-1.6,1.1-1.1,2.8-1.8,3.5-3.1,1.1-1.9,3-2.3,4.6-3.6Z"/>
    <path d="M69.9,146.4c-.4,0-.8,0-1-.1-.6-.4-1.7-1.1-1.6-1.4.3-1,1.4-1,2.3-.8,3.1.6,6.1,1.3,9.1,2.1.5.1.9.7,1.4,1.1-.6.3-1.2.9-1.7.8-2.8-.5-5.6-1.1-8.5-1.6Z"/>
    <path d="M110.2,223.9c-.8,1.8-2.8,2.8-3,5,0,.2-1,.4-1.6.5,0,0-.5-.7-.4-1,.8-1.8,1.6-3.6,2.5-5.4.6-1.2,1.5-2.3,2.2-3.5.2-.3.4-.7.6-.7.6,0,1.2,0,1.8,0,0,.5,0,1-.1,1.4-.6,1.2-1.3,2.4-2.1,3.6Z"/>
    <path d="M103.1,282.2c.4-.8.7-1.6,1.2-2.1.3-.3,1.1,0,1.6.1,0,0,0,.8,0,1.2-.9,2.7-1.8,5.5-2.7,8.2-.2.5-.5,1.1-.9,1.5-.3.3-1,.2-1.5.2,0-.4-.2-.9,0-1.3.7-2.6,1.5-5.2,2.4-7.8Z"/>
    <path d="M179.8,245.6c.7,1.5,1.5,3,2,4.5.1.4-.2,1-.4,1.5-.4-.2-1.1-.2-1.3-.5-.8-1.3-1.6-2.6-2.2-4-.8-1.9-1.5-3.8-2.1-5.7-.1-.4.2-1.2.5-1.3.4-.2,1.3,0,1.4.3.7,1.7,1.2,3.4,1.9,5.2Z"/>
    <path d="M83.9,252.5c.2-.4.3-.8.4-1.1.2-.6.3-1.3.7-1.6.4-.3,1.4-.3,1.7,0,.3.4.3,1.4,0,1.8-1.9,2.6-3.8,5.1-5.8,7.6-.5.7-1.3,1.2-1.9.4-.3-.4-.2-1.5.2-2,1.4-1.7,3-3.3,4.7-5.1Z"/>
    <path d="M243.6,253.5c.1.4.2,1,.2,1-.4.1-1,.3-1.3.1-.7-.3-1.4-.8-2-1.3-2.1-1.8-4.1-3.6-6.2-5.5-.3-.2-.4-.8-.3-1.2,0-.4.5-.7.8-1,0,0,.5.3.5.4-.2,1.1.6,1.1,1.3,1.5,1,.5,2,1.1,2.8,1.8,1.5,1.3,2.8,2.8,4.3,4.2Z"/>
    <path d="M242.1,280.8c.1.6.3,1.6.1,1.6-.6.3-1.1.2-1.6-.7-.9-1.4-2.3-2.5-3.4-3.9-.9-1.1-1.6-2.2-2.4-3.4-.2-.3,0-.8,0-1.3.3,0,.7,0,.9.3,1.7,1.9,3.4,3.8,5.1,5.8.4.4.7.9,1.2,1.5Z"/>
    <path d="M173.3,310.4c0,1.2.3,2.3-.8,3-.3-.9-.6-1.8-.9-2.8-.5-2.2-1-4.4-1.3-6.7,0-.4.2-1,.5-1.3.2-.2,1.1,0,1.1.2.5,2.4,1,4.9,1.4,7.5Z"/>
    <path d="M217.9,249.6c1.5-1.4,2.9-2.7,4.4-4,.3-.3.8-.6,1.2-.6.4,0,.9.4,1.2.8,0,0-.2.7-.5.9-1.5,1.3-3.2,2.4-4.7,3.7-1.4,1.3-1.4.2-1.6-.8Z"/>
    <path d="M128.3,314.3c.7.2,1.2.3,1.8.4.3,0,.6.2.8.3-.2.2-.3.5-.6.7-.3.3-.7.5-1,.8-.5.3-1.1.6-1.6.9.2-.5.4-1,.5-1.5,0-.2,0-.4,0-.6-.2,0-.4,0-.6,0-.8.4-1.5.9-2.3,1.3-.3.1-.6.1-.9.2,0-.3.2-.6.2-.8.4-2.1,1.7-2.5,3.6-1.8Z"/>
    <path d="M109.7,288.3c.7-1.3,1.7-1.8,3.2-1.1.7.3,1.6.2,2.3.4.3,0,.5.6.7.9-.4.2-.8.7-1.2.7-.8,0-1.7-.1-2.5-.3-.8-.2-1.6-.4-2.5-.7Z"/>
    <path d="M144.2,283.9c0-1.9,1.5-1.9,2.6-1.5,1.4.5,2.3,0,3.4-.5.3-.1.7,0,1,0-.1.3-.3.6-.4.8-.8,1.1-1.9,1.6-3.3,1.4-1-.1-2.1,0-3.3-.1Z"/>
    <path d="M170.5,239.1c-.4.5-.7.9-1,1.4-.9,1.3-3,1.5-4.1.4-.2-.2-.2-.5-.2-.7,0-.1.3-.3.5-.3,1.5.1,2.9,0,3.9-1.5,0,0,.6.4.9.7Z"/>
    <path d="M154.6,232.8c.7,0,1.2-.3,1.7-.2.7.1,1.3.4,2,.7-.4.5-.8,1.3-1.3,1.5-.6.3-1.5.2-2.1,0-1.1-.4-1.4-1.1-.2-2Z"/>
    <path d="M154,272.5c.7-.2,1.4-.4,2-.3.6,0,1.1.5,1.6.7-.3.4-.6,1-1,1.1-.6.3-1.4.3-2,.3-.4,0-.9-.3-1.3-.4.2-.5.4-.9.7-1.5Z"/>
    <path d="M237.9,240.2c-1-.2-1.2-.6-.6-1.4.8-1.1,1.7-2.1,2.5-3.2.2-.2.6-.1.9-.2,0,.3.1.7,0,.9-.9,1.3-1.8,2.5-2.8,3.9Z"/>
    <path d="M82.6,214.8c.1,1,.2,1.9.2,2.8,0,.2-.3.4-.5.7-.2-.3-.5-.6-.4-.8.1-1.5-.9-1.7-2-1.9-.3,0-.7-.3-1-.4.3-.3.7-.9,1-.8.9,0,1.8.3,2.7.5Z"/>
    <path d="M159.8,301.1c.3-.4.6-.8,1.1-.9,1-.3,2-.5,3.1-.7.3,0,.7.2,1,.3-.1.2-.2.5-.4.7-1.5,1.6-2.8,1.8-4.8.6Z"/>
    <path d="M62.2,167.8c-.2,1-1.2,1.9,0,2.7,0,0,0,.7-.2.7-.3.1-.9.2-1,0-.4-.8-1.1-1.8-.9-2.6.1-.8,1-1.4,1.6-2.1.2.4.3.8.4,1.3Z"/>
    <path d="M237.3,267c-.6,0-1-.2-1.4-.3.3-.3.5-.7.8-1,.8-.7,1.5-1.4,2.3-2,.2-.1.4-.2.6-.3.1.2.3.4.4.7.2,1.5-.9,2.8-2.7,2.9Z"/>
    <path d="M157.1,214.6c1.2-.3,2.3-.6,3.4-.7.3,0,.6.2,1,.3-.2.2-.4.6-.6.7-2.1.4-4.2.7-6.3,1-.1,0-.3,0-.5-.1.1-.2.2-.4.4-.5.9-.2,1.7-.4,2.7-.7Z"/>
    <path d="M177.2,235.9c-.5,1-1.1,2-1.8,2.9-.1.2-.7,0-1.1-.1.2-.7.3-1.5.7-2,.5-.7,1.1-1.6,2.2-.8Z"/>
    <path d="M217,202.1c-.5-.5-1.2-1.1-1.4-1.7,0-.4.7-.9,1-1.4.2.3.5.7.6,1,0,.7,0,1.3-.2,2.1Z"/>
    <path d="M173.8,201.5c-.3,0-.5,0-.8,0,0-.2.1-.5.3-.6,1.1-.8,2.2-1.6,3.4-2.4.2-.1.5,0,.8,0,0,.2,0,.5-.1.7-.3,1-1,1.3-2,1.3-.5,0-1,.5-1.6.9Z"/>
    <path d="M195.9,306.4c.4.5.7.9.9,1.3-.3.1-.9.4-1,.3-.6-.5-1.5-1.2-1.5-1.6.2-1.3.9-.5,1.5,0Z"/>
    <path d="M137.3,315.4c-.3.2-.5.3-.8.4,0-.2,0-.5,0-.7,0-.1.2-.3.3-.4.7-.4,1.4-.8,2.1-1.2-.5.5-.9,1-1.4,1.5,0,0-.2.2-.3.3Z"/>
    <path d="M187.2,309.3c.5,1.4-1,.5-1.1,1.1l-.6-.6c.5-.2,1.1-.4,1.7-.5Z"/>
    <path d="M110.3,127.2c-.2.2-.4.4-.6.6,0-.2-.1-.5,0-.6.3-.3.8-.4,1.1-.6-.1.2-.3.4-.5.7Z"/>
  </g>
</svg>