<?xml version="1.0" encoding="UTF-8"?>
<svg id="Layer_1" xmlns="http://www.w3.org/2000/svg" version="1.1" viewBox="0 0 576.5 200.2">
  <!-- Generator: Adobe Illustrator 29.3.1, SVG Export Plug-In . SVG Version: 2.1.0 Build 151)  -->
  <g id="pjXIaK">
    <g>
      <path d="M570.2,74.2l-9.9,1.7c-11.8-.9-22.7.5-34.1-.5-2.6-.2-7.4.5-10.6.1-1.7-.2-3.7,0-3.9,0-6.1-1-6.8-4.2-10.4-7.7-1.2-1.1-2.6-2.5-4.2-2.9l-2,1.9,3.7,2.6-.5,5.1,2.3.8-1.7,4.7-3.1-2.4-.5,5.1c1.5.4,4.9,3.7,4.8,5-.1,1.4-1.4,3.1-1.7,4.7,0,.5.8,1.1.7,1.6-.4,2.2-2.7,8.7-5.7,6.5l-4.9-6.4c.6-2.3,2-4.7,2.5-7,.9-4-.6-5.8,2.2-9.8.5-.7.6-2,1.1-2.9-3.9-1.5-3.4-10-1.6-13.8l-2.3-.8,1.3-10.8-5.8-20.6,6.4,4.3,4.4-10.3c3.1,4.9-5.3,11.1-1,15.5l2.3-4.5,1.5-6,2.3.8c3-9.3,8.2,2,13.9-.2l2.2,4.8,2.3.8c1.1-1.1,2.3-.2,2.8-.3,3.1-.6,5.7-4.5,9.3-1.9l1.1-2.9,12.2-2.8.5,4.1c6,.9,7.1,6.6,3.8,11.3-.6.9-4.4,1-4.2,4.4l-4.7-1.7.6,5.5-4.5-2.3c1.9,2.1,2.9,5.5,4.5,7.6.2.3.9.1,1.2.4,1.5,1.9,3.8,3.4,2.4,6.1-1.8-1.6-4.6,0-5.7-.7-.4-.3-.3-1.3-.7-1.6-1-.6-2.6-.6-3.5-1.3-.2-.1-2.1-2.8-2.7-3.6-1-1.3-.7-3.6-3.2-3.8l.9,4.9-3.5,6c-4.5-.6-5-4.2-8.1-6.9l-4,3.8c.7-2.9-.7-6.4,2.7-7.6l.4-1.2c-1.1-1-.2-2.4-.3-2.8-.6-2.8-2.1-2.3-3.4-3.2-.9-.7-.8-4.1-3.8-4l-6.5-7.6c-2.8-.2-5.4,7.7-7.7,8.4.4,1.3,2.6,6.9,2.6,7.5-.2,2.7-1.1,6.4-.6,9,.6,3,2.9,6.4,6.1,6.8.6,0,5-.7,5.5-.6,1.9.3,4.2,2,5.8,2.1.7,0,2.5-1.5,3.2-1.5,2,.2,4.8,2.2,7,2.5,1.8.2,7.8-1.9,9.9-1.7,7.1.6,10.8-.5,17.7-1.5,2.6-.4,7.1,0,9.4-.5,3.5-.9,8.1-4.1,10.7-6l1-10.2c-1.6-2.3-2.5-6.8-4.1-8.7-2-2.4-4.4-2.4-6.6-3.7-4-2.4-8.1-7.6-12.3-9.7-4.9-2.5-12.5-5.6-17.1-7.5-7.6-3.2-16.2-6.2-23.8-7.3-3.3-.5-7.8-1.2-11.3-1.5-2.1-.2-7.3,2.4-12.6,2-.5,0-4.5,2-5.9,1.8-1.6-.2-3.5-1.5-5.2-1.9-.3.9-1.2,1.7-.3,2.5,2,1.7,5.1,3.3,3.6,6.6-3.7-2.2-6.9-5.1-9.4-8.7-5.4-2.4-16.8-9.1-22.9-9.6-.7,0-2.5,1.5-3.2,1.5-9.4-.7-16.3-2.9-25.9-1.4-9.7,1.4-18,1.6-27.6,3.2-4.2.7-9.9,1.7-14.2,2.8-4.3,1-13.7,5.2-16.7,7.8-.5.4-.3,1.6-.6,1.7l-2.9-1.1-1.1-2.4,1.8-1.3c-1.7-1.3-2.8.2-3.3.1-9-1-13.7-.2-22.8,1-5.8.7-12.6.8-18.1,2.7-11.9,4-28.1,14.9-37.7,16.7-15.1,2.8-29.1,6.2-43.8,7.9-6.1.7-12.8,2.7-19.7,3.4-12.9,1.4-28.2,2.1-41.6,2.1-15.2,0-29.6-.4-44.7-.4h-25.1c-23.5,1.8-53.4,2.7-72.7,20.7-.7.6-2.8.9-3.2,1.5-.7,1-.3,2.8-2.4,3.1l-.4,1.2c.9,1.2,1.9,5,2.6,5.6,1.1.8,3.3,1.6,4.2,2.9.8,1,1.7,5.4,1,6.3l-4,1.9c-.9-3.4-2.9-3.9-6.2-4.9l-1.1-2.4.9-4.3h-3.3c0,.1-3,8.3-3,8.3l-2.3-.8c-2.1,7.5-6.4,15.3-8.2,22.7-.1.4.8,1.1.7,1.6-.3,1.7-1.5,3.5-1.9,5.2.6,1.3,5.5-.5,6.1-.4,3.6.5,5.5,2.3,6.5,5.7-.4,2.2-5.2,3.9-5.6,4.6-.4.6-1.8,3.7-.9,4.3l12.7-4,.4-1.2c-1.8-2.9,2.5-6.1.6-9l4.1-.5,2.5-7-8-1.6-7,6.7h-3.3c-2.4-2.4-4.4-13.1.7-12.8,2.5.2,2.7,2.2,3.1,2.4,1.5.8,3.6,1.1,5.2,1.9.5-2,1.7-5.3,3.9-5.2,2.6.2,2.5,2,3.1,2.4,2.1,1.6,5.8,4.5,8.2,3,2.1,6.4,10,7.3,12.6,12.5l1.2.4c5.8-3.4,6,8.6,7.2,9.2,1.6-1.4,2.6.2,2.7,1.6.2,2.5-1.6,1.1-2.4,1.1-2,0-4.4-.2-6.3,1l1.4,7.1-5.6,2.6-3.4-5.2-8.4-.4c-1.3,3.1-4.9,2.8-5.3,7.3l3.2,3.8,6.1-.4-.5-2.2,2.2-2.5c2.3,1.1,5.4,1.6,7.6,2.7.4.2.3,1.3.7,1.6.9.6,2.6.6,3.5,1.3,1.5,1,.8,4.5-.1,5.9-1.9,2.7-9.9-2.1-12.9-2.7-.7-.1-6,.4-6.7.2-3-.5-5.3-3.2-8.2-1,.6,3.4,3.6,2.7,5.8,4.1,1.3.8,2.6,4.2,3.4,5.2.4.5,1.6.3,1.7.6l-2.9,4.2-4.5-.3c-2.5-.1-2.7-2.2-3.1-2.4-1-.6-2.6-.6-3.5-1.3-.5-.4-4.8-6.8-5.3-7.2-1-.7-2.9-.8-4.1-1.5l3.6-2.7-4.8-3.1-3,2.9,12,12.3c9,8.9,22.8,15,36.1,17,5.5.9,12.4,1.1,18.4,0,1.6-.3,3.7.7,4.2-2.4l3.7,2.6c12.4-2.4,24.4-2.4,36.1-1.4,12.8,1,26.3,2.3,39.1,4.9,14.2,2.8,27.3,4.6,41,6.9,7.8,1.3,5.5.3,12.2-.9,9-1.5,22.9-1,32.2-1.5,2.7-.1,8.2-2.2,8.7-2.1,1.4.1,3.2,1.5,4.7,1.7.4,0,3.9-1.1,4.3-1.1,5.4.7,10.2,1.1,15.3,1.6,7.5.7,15.5,3.2,21.9,1.3,3,6.2,9.5,1.5,12.5,1.9,5.2.7,10.4,2.6,16,3.2,3.3.3,7,1.4,10.2,1,1.4,2.7,3.8,4.4,6.7,5.1,1.8-7.6,7.2-1.4,11.6-1.1,1.2.1,2.7-.7,6.7-.2,7.2.9,14.3,1.3,21.5,2.5,1.4.2,4.8.8,6.3.9.7,0,2.5-1.5,3.2-1.5,6.4.5,12.7,1.8,19.2,1.7,3.3,0,7.7-.8,11-1.3,1.6-.2,2.5-1.1,4.5.3,1.5-2.1.3-3.4-2.1-3.4-1.4,0-5.8.4-6.7.2-1.9-.4-7.8-2.4-9.3-3.4-.9-.6-3.4-4.5-4.6-5.6-.5-.5-1.6-.3-2.3-.8-.4-.3-3.8-7.6-4.1-8.7,0-.3.5-.8.4-1.2-.2-1-1.5-2.6-1.5-3.2,0-.8.8-1.6.8-2.3,0-.5-.8-1.1-.7-1.6.6-3.4,3.2-7.5,4-11.1l2.3.8c1.2-3.4,6.3-3.9,9.4-5.8.9,2.2,5.2,3.6,7.7,4.1.5,0,1.1-.8,1.6-.7,1.8.2,3.3,2.1,5.1.5,1.2,1.3,3,2,4.2,2.9.6.4.9,2.8,1.5,3.2,3.8,2.7,7,8.1,6.5,12.9,3.7.9,2.9,4.7,1.2,7.7-.2.4-1.4.3-1.6.7-1.2,2.3-1.7,6.4-3,8.2-.6.9-5.2,1.9-6.4,3-1.8,1.7,1.1,2.8,2.3,2.8.7,0,2.2-1.3,3.2-1.5,4-.8,10.5-1.6,14.2-2.8,1.2-.4,8.5-3.7,8.7-4.1.5-.7.6-2,1.1-2.9h-3.3c0,.1-1.4-5-1.4-5l1.3-3.5c6.7-3.8,6.4-13.9,9.9-20.2.2-.4,2.2-.4,2.2-2.5l2.3.8c-1-3.9.7-7.8,4.9-6.2-1.5,2.8,1,5.2,4,5.4,1.5.1,4.8-3.8,7.7-1.2,2.9-5.2-7-2.5-7.7-4.1l.8-2.3c-1.5.1-3.7-3.5-3.6-4.6.2-2.6,2.3-2.8,2.4-3.1,1.5-2.6,5.3-9.9,5.8-12.4.6-2.8,1.3-8.3,1.5-11.3,0-.5-.8-1.1-.7-1.6.4-3.1,3.3-4.1,3.9-7.2,3.5.9,5.5,3.9,6.7,7l-2.3,6.4c4.8,2,9.6-1.7,14.1,1.1,1.8-2.5-2.5-6.5-2.3-8.1.1-1.8,1.9-4.4,2.3-6.4l6.2,12.1,1.4,5.1c1.1.8,18.5,7.1,19.8,7.2.8,0,3.4-1.9,4.8-2.2,1.8-.4,4.3.6,6.3-1,1.6-1.2,6.5-3.8,6.8-4.1.5-.6.4-1.7.8-2.3.4-.6,2.8-.9,3.2-1.5,1.3-1.8,1.7-5.9,3-8.2l-1.1-2.4c-6.1-1.3-14.1-6.4-19.8-7.2-2-.3-8,2.2-8.7,2.1-2.7-.2-6.5-1.1-9-.6-1,.2-2.1,1.2-3.2,1.5-5.8-1.4-11.1-4.7-11.1-11.3,2.3-1.7,4.1-.6,6.5.4l.8-2.3c8,3.1,14.8-1.6,23.4-.8,7.9.8,19,3.9,27,1.9,2.2-.6,4.2-3.1,6.5-1.6l4.4-12.2-1.9-4ZM288.7,31.7c1.8,1.7,4.7.4,5.1.5,1.7.3,5.6,1.7,7,2.5.4.2.3,1.3.7,1.6.7.5,1.8.4,2.3.8.4.3.3,1.2.7,1.6,1.8,1.7,4.6,3.7,4.9,6.4.4,3.1-4-.1-5.1,1.4l-8.5-5.7c-1.5.7-5.6.7-6.7,2.2-1.9,2.6,3,4.8,5.4,5.2.5,0,1.1-.8,1.6-.7,3.1.7,6.2,2.5,9.3,3.4l5.1,5.8c.7-4-1.1-6.8,1.3-10.8.2-.4,1.3-.3,1.6-.7.5-.6.4-1.7.8-2.3.2-.3,3.2-1.6,4-1.9.5-.2,3,.4,4.3-1.1l8.9,4.5,7.8,9.4c2.2-4.4-1.4-8.4-.7-12.8,3.8-2.5,5.6.9,8.4,2.4.7-2.6,6.3-5.2,8.5-3.5.4.3.3,1.3.7,1.6,1,.6,2.6.6,3.5,1.3,3.2,2.3,5.6,12,7.1,13.1,1.3.9,4.2,1.2,5.8,2.1.4.2.3,1.4.7,1.6,1.8.9,6.5,2.7,8.2,3,2.1.3,2.8-2,1.3-3.5l-9.8-2.2c-3.9-5.1-8-8.8-4.3-15.4,1.4-.3,4.7-2.7,5.6-2.6,1.1,0,2.4,1.1,3.5,1.3.9.1,2.4-1.2,5.1.5.4.3.3,1.3.7,1.6.6.5,1.7.4,2.3.8.6.4,1.1,2.1,3.8,4,.9.6.7,3.8,3.2,3.8l-.3-10,2.2-2.5-4.7-1.7v-3.3c0-1.3,3.6-3.1,4.3-3,3,.2,4.2,5.5,6.5,7.6.7.7,2.7.8,3.7,2.6v-7.3s6.9-.8,6.9-.8c-.8,1.4-.5,2.8.5,4.1,2.7,3.5,3.9.9,5.3,7.2.4,2,2,2.1,3.7,2.6l1.6-8-3.4-5.2c.2-4.3,3.3-1.6,6-3.8.5.2,2.1,5.2,3,6.4,2.7,3.3,8.1,3.2,10.8,6.6,2,2.5,3.2,8.2,5.2,11.1l2.5-5c-1.4-1.6,0-2.7,0-3.9,0-.5-.8-1.1-.7-1.6.4-3.1,3-5.6,6.4-4.9,1.4,1,.5,5,1.8,5.9.6.5,1.7.4,2.3.8,4.1,2.9-1.1,9.8-1.5,13.3-.2,1.6-.3,3.8-.5,5.1-.3,1.9-2,3.3-.5,5.1-.2,3.4-6.8,1.4-8.6.2-.5-.3-.9-2.4-1.5-3.2-4.4-6.1-7.4-13.9-10.8-21.1l-4.8-3.1c-1.4,3,.6,4.6,3.4,5.2-.1,3.5,0,9,.7,12.8.7,3.9,3.9,7.5,1.1,11.6l-4.5-.3-6.4-9.6c1.2-1.9.1-12.1-2.8-12.2h-3.3c0,.1-1.3,3.6-1.3,3.6.1.3,1.3.1,1.7.6,2.6,3.1-1.2,7.5,6,12.7.6.4,1.2,3.1,1.9,4-3.1,2.4-7.7,1.4-11-.7-.4-.2-.3-1.2-.7-1.6-.3-.3-1-.2-1.2-.4-.7-.8-3.8-7.5-4.1-8.7-1.6-6.5.8-6-4-12.7-1-1.4-.8-3.6-3.2-3.8l2.2,4.8c-.7,3.8.2,8.9.7,12.8.4,3.3,2.3,6,2.5,9.5.9,1-1.7,1.9-2,1.9-.8,0-4-1.2-4.7-1.7-.9-.6-1-4.4-4.4-4.2-.6,3.1-2.2,5.3-5.4,5.9-.3,0-.7-.5-1.2-.4-.5,0-1,.7-1.6.7-.7,0-1.5-.8-2.3-.8-1.1,0-2.9,2.6-5.5.6l-11.3-10.7c-1.7.8,2.5,9,1.5,10.4-1.2,1.7-5.6.4-7-.6-.6-.4-.9-2.8-1.5-3.2-.6-.5-1.7-.4-2.3-.8-1.8-1.3-.3-3.6-.3-4.7,0-.7-1.5-2.5-1.5-3.2,0-1.1,1.2-2.4,1.3-3.5,0-.7-1.4-1.7-.1-3.3l-4.7-1.7-3.1,4.8c1.1,1.5.4,4,.6,5.5.4,2.3,2.5,6.1,2.9,8.3.3,1.5-.1,2.4-.7,3.7l-6.8-1.2c-1.4-3.5-2.3-5.6-6.3-6.2l-1.9,5.2-6.7,2.2c-3.3-1.8-8.7-2.4-11.7-4.2-.8-.5-3.5-4.5-4.6-5.6-1.1-1.2-1.2-2.5-3.7-2.6l.9,4.9-1.3,3.5c-2,1.2-3.4,3.2-6,3.8-.3,0-5.2.7-5.5.6-1.1,0-2.4-1.1-3.5-1.3-.5,0-1.1.8-1.6.7-1.6-.3-5.8-1.8-7-2.5-.4-.2-2.1-3.1-2.7-3.6-.8-.7-3.2-1.6-4.2-2.9-.4-.5-2.5-5-2.6-5.6-.3-2.7,2.6-1,3.5-.7,3.5,1.2,6.2,2.5,8.9,4.5.7.5,1.1,2.7,3.7,2.6.2-3.7,5.3-1.9,6.6-3.6,1-2.9-1.8-4.6-4.2-4.8-.5,0-1.1.8-1.6.7-4.7-1-8.8-3.6-12.4-5.8l-4.5-7.6.9-6.3,10.3-4.8ZM122.2,85.6c1.3-1.5,4.2-3.1,5.6-4.6.5-.5.3-1.6.8-2.3,1.9-2.6,8.8,1.5,11.7,2.3l1.9,4-16.7,7.8-6.4-2.3c.4-2,1.7-3.4,3.1-4.8ZM263.1,142.5c-4.3-.3-8.7-1.8-12.9-.7l-6.7.2c-.7-2-6.3-4.3-6.1-6.8,0-1.4.9-2.8,2.4-3.1,1.9-.4,3.1,1.2,3.9,0-.8-3.7-1.1-7.6-5.7-8-.7,0-2.5,1.5-3.2,1.5-.9,0-1.7-.9-2.3-.8-1.1.1-4.7.8-5.1,1.4l-.3,4.5-2.5-.3,4.2,4.8,4.1,1.5-.9,6.3c-1.4-.3-2.8-1.3-4.1-1.5-1.3-.2-5.8-.2-7.8-.2-.7,0-3.9,1.1-4.3,1.1-1-.1-5.1-1.6-5.8-2.1-.9-.6-1-4.4-4.4-4.2l-1.5,4.1c-.3.4-8.3,2.4-9.5,2.5-2.2.1-6.7-.7-9-.6-14.1.2-28.7.6-42.4.5-1,0-4.9.7-5.5.6-5.1-.9-6.3-3.1-5.7-8,1.7-2.3,6.3,1.4,5.9-1.8-.2-2-3.3-4.2-1.6-6.5-4.6-2.4-9.7.3-14.7-1.4-3.6,1.1-3,2.5-1.3,5.5l-3.4,2.1,8.3,4.3,1.2,5.7c-1.7-1.3-2.6.1-3.3.1-5,0-9.7,0-14.5,0-.8,0-1.5-.8-2.3-.8-.7,0-1.8,1.4-3.9,0l-2.8-5-2.1,5.8c-1.7-1.3-2.6.1-3.3.1-7.3,0-14.9-.6-22.4-.2l-17.3.3-2.5-2.2.9-6.3c2.9,1.5,5-.9,5.4-4,.2-1.8-1.9-7.8-1.7-9.9.3-3.4,1.1-6.8,1-10.2,0-2.2-1.9-4.8,0-7.3l-6.4-2.3-.8-6.9c1.8,1.7,3.9.2,4.5.3,2.7.3,5.7,1.8,8.6,1.8,2.5,0,9-1.6,11-1.3,3.3.4,8.9,3,6.1,6.8-1.3,1.7-4,.4-4.1.5-.3.1-.1,1.2-.6,1.7-.6.7-2.3.6-2.4,3.1,0,.7,1.5,2.5,1.5,3.2-.3,3.7,1,7.3,1,8.3,0,1.1-1.2,2.4-1.3,3.5,0,.4,1.9,4.4,1.8,5.9l-3.1,4.8,8.2,3c.3-.1.1-1.2.6-1.7,2.5-2.7,8.5-4.7,10.8-8,1.1-1.6.5-4.1,3.6-4.6,1.5,3.6,8.6,2,7.3,7.2-2.5.7-2.5,3.7-3.5,6h3.9c0-2,2-2,2.2-2.4,3.8-6.6,5.9-18.1,9.3-25.7.2-.4,1.4-.3,1.6-.7,1.1-2.3,2.9-7,3.4-9.3,0-.5-.9-1.2-.7-1.6,2.7-2.2,4.5.2,7,.6.5,0,1.1-.8,1.6-.7,1.3,0,2.3,1.5,3.9,0l1.2.4c1.5,1.6,2.3,3.6,3.4,5.2,2.3,3.2,2.5,7.3,4.5,9.5,2.3,2.6,2.6,7.3,5.2,11.1,1.8,2.5,1.9,3.4,3.4,5.2,1.1,1.3,2.1,5.7,3,6.4,1.1.8,3,1.5,4.2,2.9,3.3-1,5.2-2.9,5.7-6.5,0-.5-.7-1-.7-1.6,0-7.5-2.6-15.2-1-22.8-.6-3.4-3.8-2.7-5.8-4.1-1.1-.8-2.2-4.7-1-6.3,1.8-2.6,3,.5,3.1.5.5,0,1.2-.8,1.6-.7,6.2,1.5,6.8,1.3,12.9.7,2.8-.3,6.3.4,9,.6.6,0,3.9-1.1,4.3-1.1,1.5.2,3.1,1.4,4.7,1.7.5,0,1.1-.8,1.6-.7,1.7.4,5.7,1.7,7,2.5,1.2.7,3,4.9,3.4,5.2,1,.7,3.6,1,3.4,3.2,0,.8-.8,1.6-.8,2.3,0,1.1,1.2,2.7-.5,5.1-.6.9-3.9.7-3.8,3.2,2.1.1,1.8,1.6,2.5,2.2,2,2,4.2,4,5.7,6,1.7,2.2.6,4-.4,6.5l3.5,1.3c0-2.1,2-2.1,2.2-2.5,5.7-10,7.8-27.4,13.5-37.3.2-.4,2.2-.4,2.2-2.5-2.4-.8-4.5-1.1-5.2-3.9,3.1-.5,3-2.6,4-3.8.5-.6,2.4-.8,2.4-3.1l7.1-3.3c3.2.4,3.5,2.4,4.2,2.9,1.8,1.2,6.8,2,3.8,6-.7.9-7.6,3.2-9.5,4.5-1.1.7-2,.5-2.2,2.5,1.2.6,3,.8,4.1,1.5.6.4,4.7,5.4,4.9,6.4.9,3.9,12.9,28.7,15.7,31.4,1.3,1.2,4.6,2.8,6.2,4.9.8,1,1.1,2.8,1.9,4-1.1.2-3.2,1.9-4,1.9ZM306,138.9c-1.4,2-9.2,2.4-11.5,4.4-1.5-1.5-3.6,0-3.9,0-2.6-.5-12.6-5.2-13.4-4.9v3.3c.1,0-3.4.7-3.4.7-.4-1.8-3.1-3.1-3.8-4-1.7-2.3-5.6-11.3-6.7-14.3-.6-1.5-1.7-2.3-.5-4.1l5.7.7c.3,2.1,2.1,1.7,3.1,2.4.6.4.9,2.7,1.5,3.2,2,1.4,5.2,2.6,6.2,4.9l8.7,3.2-.5-2.2c3.6-2.1,7.1-1.1,9.7-5-2.3-.9-3.1-3.2-6-3.5-3.6-.4-5-1-8.6-1.8-.5,0-1.2.9-1.6.7-2.4-.6-7.4-2.2-9.3-3.4-.4-.2-.3-1.3-.7-1.6-.7-.5-1.8-.4-2.3-.8-.4-.3-.3-1.2-.7-1.6-.6-.6-2.7-1.9-3.1-2.4-2-2.6-1.5-7.1-3.7-9.9l.8-2.3c2.6-.5,2.1-3.7,3.3-5.4.4-.6,3.7-1.4,4.8-2.2.3-.2.1-.9.4-1.2.9-.7,4.1-1.4,5.1-1.4.7,0,1.5.8,2.3.8.5,0,1.1-.8,1.6-.7,1.5.3,5.6,1.8,7,2.5.4.2.4,2.2,2.5,2.2.6-3.8,4.7-5.7,7.9-3.7l-.8,2.3,4.2,2.9c-1.8,5.2,7.2,8.7,3.9,14.6-1.6-.8-3.8-1-5.2-1.9-1.4-.8-4.7-5.4-5.7-6-2.1-1.3-5.8-1.7-8.2-3l-10.6,2.1c2.2,5.2,9.4,7.1,14.7,8.6.4.1,1.2-.9,1.6-.7,4.3,1.2,8.5,3.3,12.8,4.6l6.4,9.6-.6,9c-2.6.5-2.1,3.7-3.3,5.4ZM414.9,140.7c-1.7-1.3-2.6.1-3.3.1-3.5,0-6.9.1-10.6.1-1.5,0-4.7-.9-6.3-.9-.7,0-1.8,1.4-3.9,0-2.2-4.4-6.3-6.4-3-11.7,6.6,4,3.9-5,0-5.3-.5,0-4.5,1.9-5.9,1.8-2.6-.9-4.6-2.4-7-.6.5,2,2.3,8.9,3.7,9.9.6.5,1.7.4,2.3.8,1.3.9.5,3.8,1.4,5.1l-2.4,1.1c-1.2-.2-2.5-1.2-3.5-1.3-2.2-.2-4.8,0-7.8-.2-1.4-.1-3.6,2.8-7.8-.2-.9-.6-1-4.4-4.4-4.2l-1.9,5.2-2.4,1.1c-2.2-1.2-4.1-1-6.3-.9-6.7.1-16.4,1.4-22.8,1-1.7,0-3.3-2.1-5.1-.5l-5.7-8c1-2.2,1.5-4.9,2.5-7,.2-.4,1.3-.3,1.6-.7,4.1-7.2,7.4-12,12.6-18.5,1.2-1.5,1.9-2.7,2.3-4.5-4.4-2.3-3-.4-4.1.5-1.1.9-4.3,1.6-4.8,2.2-.8,1.2-2.1,2.6-2.4,3.1-.7,1-.8,2.9-1.5,4.1-4.7-.6-6.2-4.1-9.7-6.1l5.3-14.6,2.4-1.1c3.2,3,6.7-1.1,8.3-1,3.4.3,7.9,1.2,11.3,1.5.4,0,5.2-1.4,7.1-1.4,1.2,0,3.3-.3,3.9,0l7.6,10-.8,2.3c-2.6.5-2.1,3.6-3.3,5.4-4,6.1-9.1,12-13.8,18.1-1.8,2.3,0,2.6-1.1,4.9l9.3-3.9,5.9-9.1c3.6.2,3.1,2.8,4.4,4.2.5.6,2.7,1.9,3.1,2.4,1.8,2.3-.8,4.6,2.8,5l14.4-39.7,8.8-.8c1.2,2.3,2.7,4.6,4.1,6.8,7.9,12.2,12.9,27.1,23.4,37.5.5.5,1.6.3,2.3.8,1.4,1,2.2,5.3.8,6.9ZM446.9,139.8c-1.4,1.9-4.6-.3-6.3,1-3.9-1.4-7.9-.4-11.8-.3-1,0-2.4-1.6-3.9,0l-1.2-.4c-1.5-1.6-2.3-3.6-3.4-5.2-.2-.3-1-.2-1.2-.4-4.4-6.8.8-5.9,2.2-7.8,3-4.3.1-6.4.2-7.8.3-5-.6-7.6-.9-12.2,0-1.4-.2-3.1.3-4.5-5.3-2.6-4.7.7-6.6,3.6-.3.4-1.3.3-1.6.7-1.2,1.9-.9,5.4-4.8,4.2-1.5-1.6-2.3-3.6-3.4-5.2-.2-.3-1-.2-1.2-.4-3.5-5.4.2-7.2,1.1-12.1,0-.4-1.4-1.8,0-3.9,1.4-1.9,3.9-.2,4.7-.3,8.1-.6,16.9-.7,25.1-.1.5,0,5.1-1.7,7.1-1.4,1.3.2,2.7,1.2,4.1,1.5l-.8,2.3c3.9,3.6,6.7,9.9,10,14.2,1.4,1.8,1,3.4,0,5.3-4.2-1-7.3-3.1-8.6-7.1l-3.1-2.4c-2.2-.8-3.8-.4-6.3-.9-1.2-.3-2.6-1.1-2.4,1.1.1,1.2,2.3,3.9,2.2,4.8-.4,6.2,1,11.9,1.5,17.7.4,4.4,2.7,7.6,6,10.7,1.1,1,5.4,1.8,2.6,5.6Z"/>
      <path d="M508,182.3c-2-1.4-3.1.4-4.9.9-.4,0-.9-.5-1.2-.4-5.3,1.6-3.7,4.5-10.7,4-.7,0-2.5,1.5-3.2,1.5-1.4-.1-3.2-1.5-4.7-1.7-5.3-.8-12.7-1.4-18-1.2-.9,0-4.3.2-4.5-.3,1.5-2.8,2-7.4,3.6-9.9.6-.9,4.1-6.9,4.1-7.7,0-.7-1.4-1.7-.1-3.3l3.7,2.6c3-.8,6.4-2.5,9.1-3.3,2.3-.7,4.4-.4,6.7-.2.7,0,2.5-1.5,3.2-1.5,1.1,0,2.4,1.1,3.5,1.3.5,0,1.1-.8,1.6-.7,1.9.4,7.9,2.5,9.3,3.4.4.2.3,1.2.7,1.6.3.3,1,.2,1.2.4.4.5,2.6,5.3,2.6,5.6-.2,2.8-3.3,5.8-2,9.2Z"/>
      <path d="M528.1,141.4l-1.7,4.7c-2,1.1-4.4,1.8-6.4,3-.3.2-.1,1-.4,1.2-2.3,1.4-7.5,3.3-9.9,3.7-6.8,1.2-11.8-2.7-18-1.2l-1.2-.4c-.4-.3-.3-1.2-.7-1.6-.6-.6-2.7-1.9-3.1-2.4-2.8-3.6-2.6-10.9,1.5-13.3l.4-1.2c-1.8-3.1-2.1-6.6-.3-10,3.9-.2,3.9,4.9,5.1,5.8,3.6,2.5,5.5-.3,6.7-.2,2.9.2,12.8,1.5,14.8,2.7.4.2.3,1.4.7,1.6,4.7,2.4,11,1.8,12.4,7.8Z"/>
      <path d="M192.5,128.2l-.8,2.3c-1.7,1.2-5,1.8-6.4,3-.5.4-.3,1.6-.6,1.7s-2.2-1.2-3.3.1l-3.7-2.6,1.5-4.1-1.2-7.7c4.7.9,9-1.9,13.5.9l1,6.3Z"/>
    </g>
  </g>
</svg>