<?xml version="1.0" encoding="UTF-8"?>
<svg id="Layer_1" xmlns="http://www.w3.org/2000/svg" version="1.1" viewBox="0 0 144.2 476.6">
  <!-- Generator: Adobe Illustrator 29.3.1, SVG Export Plug-In . SVG Version: 2.1.0 Build 151)  -->
  <g id="Shape_20">
    <path d="M141.3,36.8c.2.3.5.6.4.9,0,1.4-.4,2.9-.3,4.3.1,1.9-.4,3.8.5,5.7.5,1.1.5,2.5.7,3.8,0,.2-.2.4-.3.5-.3.5-.6,1-.8,1.5-.2.4-.3.7-.7.2-.1-.2-.4-.4-.5-.3-.3,0-.5.2-.8.3.2.1.4.3.5.4.3.2.6.5,1,.7.3.2.5,1,1.2.5,0,0,.9.7,1.1,1.2.2.4,0,1-.2,1.5-.1.4-.2,1-.9.8-.1,0-.3.1-.4.2.1,0,.3.2.4.3.7.5,1.2.9.8,2-.2.7,0,1.7.3,2.4.5.8,0,.7-.4.8-.8.1-1.3.5-1.1,1.4.2,1,.4,2,.4,3,0,1.1-.2,2.1-.2,3.2,0,1.1,0,2.2,0,3.3-.2,1.5.6,3.2-.5,4.6,0,0,0,.2,0,.3.4,1,.8,2,1.2,3,0,.2-.1.5-.2.7-.2,0-.4-.1-.6-.3-.3-.2-.6-.5-.8-.5-.4,0-.8.2-1.2.3.2.2.4.6.6.7,1.2.7,1.6,1.7,1.4,3,0,.6,0,1.4.3,1.8.7,1,.8,2.1.8,3.2,0,.8,0,1.6,0,2.5,0,.4-.1.9-.4,1.2-.8.9-.7,1.8-.2,2.8.2.3,0,.8.1,1.3.1,1.2.2,2.3.4,3.5.2,1.2.6,2.3-.4,3.4-.2.2,0,.7,0,1.1.2,1.1.5,2.2.6,3.3,0,.8,0,1.6-.2,2.3-.2.9-.2,1.7.1,2.7.3.9,0,2.2-.4,3.3-.4,1.1-.6,2,0,3,.2.3.3.6.2.9-.2,1.5-.5,3-.7,4.5,0,.9,0,2,.2,2.9.5,1.4,0,2.6-.4,3.8-.3.7-.6,1.4-.9,2.1,0,0,.3.3.4.5.4.3,1.2.4.5,1.2-.2.2,0,.7,0,1,.4.6.4,1.2.2,1.8-.1.6-.2.8-.8,1-.5.2-.7,1-1.1,1.6,0,0,0,.2.2.2,0,0,.2,0,.3-.1.2-.2.4-.3.7-.5,0,.2.3.5.3.6-.2.4-.4.8-.8,1-.4.2-.9.1-1.3.2.4.2.9.4,1.2.7.3.3.4.8.6,1.2-.4,0-.9,0-1.3,0-.2,0-.7,0-.7.2,0,.6,0,1.2,0,1.9,0,0,.6.1.6,0,.5-.9,1.5-.3,2.2-.9,0,0,.2,0,.3.1,0,0,0,.2,0,.3-1.3,1.1-.7,2.6-.5,3.7.5,1.7.3,3.3,0,5,0,.2-.2.5-.1.6.9,1.6,0,3.1-.3,4.7,0,.2-.4.5-.7.6-.7,0-1.5,0-2.2,0-.2,0-.3,0-.5,0,0,.1.1.3.2.4,0,.1.2.2.4.3,1.5.3,2,1.3,1.9,2.7,0,.3.2.5.3.8.1-.3.3-.6.3-.9,0-.7-.2-1.3-.3-2,0,0,.1-.3.2-.3.1,0,.4,0,.4,0,.2.8.3,1.6.4,2.5,0,.2-.2.6-.1.7.3.8-.1.7-.6.7-1-.2-2.2.4-2.4,1.3,0,.2.2.5.3.5.3,0,.7-.1.9-.3.3-.5.6-1,1.3-.8.2,0,.4,0,.5.2,0,0,0,.4-.1.5-.8.7-.8,1.3,0,2.1.1.1,0,.8-.2.9-1.2,1-1.3,1.7-.3,2.9.4.6,1.1,1.2-.3,1.4,0,0-.1.7,0,.8.4.5.9.8.4,1.6-.1.2.2.8.5,1,1,.8.9,1.8.7,2.8,0,.2-.2.6,0,.7.8.7.6,1.4.4,2.3-.1.7.1,1.5.2,2.2,0,.7,0,1.4-.9,1.7-.4.2-.9.7.1.9.2,0,.5.5.5.8,0,.7,0,1.5,0,2.3,0,.7-.2,1.1-.9,1.4-2.2,1.1-3.4,1-5.2-.6-.4-.3-1-.4-1.5-.6-.6-.3-1.2-.8-1.8-1.2-.2-.2-.5-.4-.7-.4-.2,0-.4.4-.5.6-.5,1.4-2.1,1.7-3.1.6,0,0-.4,0-.4,0-.5,1.4-1.4,2-3.1,2.1-3.3,0-6.6-.2-9.7,1.1-.3.1-.7,0-1,0-1.5-.3-3-.6-4.6-.8-.6,0-1.3.2-2,.2-2-.2-4-.5-6-.7-.2,0-.5,0-.7,0-1.2,0-2.5,0-3.7,0-1.1,0-2.2.4-3.4.4-1.2,0-2.3-.4-3.5-.5-.8,0-1.5,0-2.3,0-1.2.2-2.3.6-3.5.6-1.5,0-3.2.4-4.5-.7-.2-.2-.8-.1-1.2,0-1.5.2-2.8.9-4.5.2-1.1-.4-2.7,0-4,.2-.8.2-.9,0-.9-.6,0-.2-.1-.5-.2-.7,0-.1-.1-.2-.2-.3,0,.1-.2.3-.2.4,0,.3,0,.7,0,1,0,.3-.4.6-.6.6-1.5.2-3.1.4-4.6.5-.8,0-1.5-.3-2.3-.3-.4,0-.8.1-1.1.1-1.4,0-2.8,0-4.2-.3-.3,0-.5-.6-.8-.9-.3-.3-.7-.7-.8.1-.2.8-1.2,1.2-1.8.5-.7-.8-1.5-1-2.5-.9-.5,0-1.3-.2-.7.8,0,0-.2.3-.4.3-.9,0-1.8-.2-2.7-.1-2.1.2-4-.1-5.6-1.7-.6-.5-1.3-.6-2.1-.2-.9.4-1.8.8-2.8.9-.7.1-1.4-.1-2.2-.2-.2,0-.5-.1-.7-.2,0,.2.2.4.3.6.1.2.4.5.3.7-.1.4-.4.7-.6,1-.2-.3-.4-.5-.5-.9-.1-.4,0-1.2-.2-1.2-.6-.2-1.3-.2-1.7.5-.7,1.1-1.8.5-2.7.7-1,.3-2.2,0-3.3,0-.5,0-1,.3-1.5.2-1.1-.1-2.3-.4-3.4-.5-.4,0-.9-.2-1.3,0-.8.2-1.5.8-2.3,0-.1-.1-.5-.1-.7,0-1.3,1-2.4.1-3.4-.4-.8-.4-.9-.3-1.3.4-.3.7-3,1.1-3.5.5-.1-.1-.2-.5-.1-.5.1-.1.4-.1.6-.2.3,0,.5-.1.8-.2-.3,0-.6-.3-.9-.2-.5,0-1,.3-1.5.3-.4,0-.9-.1-1.4-.2.3-.2.6-.4.8-.7.2-.3.2-.7.4-1-.3,0-.6,0-.9.2,0,0-.2.2-.3.2-.4.2-.8.3-1.2.5.2-.3.6-.6.6-.9.2-.7.1-1.6.4-2.3.6-1.6-.8-3.6,1-5,.6-.5,1-1.5-.3-2.3-.6-.4-.8-1.6-1-2.5-.2-.8-.6-1.6.2-2.4.1-.1-.1-.5-.2-.8,0-.2-.3-.5-.2-.6,1.1-1.1,0-1.3-.6-1.8-1.1-.8-1-1.5,0-2.4.3-.2.6-.8.5-1.1-.2-.9-.7-1.7-.9-2.6-.5-2.1-.7-4.3-.2-6.5.2-.8.3-1.7.4-2.5,0,0-.1-.2-.2-.2,0,0-.2,0-.3,0-.4.2-1,.7-1.1.7-.5-.4-1-1-1.1-1.5-.2-.7.1-1.4.2-2.1,0-.7,0-1.4,0-2.1,0-.2,0-.4,0-.6.6-2.2,1.3-4.4,1.9-6.6.4-1.6.5-3.1-.8-4.4-.6-.6-.5-2.1.2-2.9.7-.8.7-1.4-.2-2.1-1.6-1.1-.9-2.6-.8-4.1.2-2.4,1.2-4.7,1-7.1,0-.2.2-.5.3-.7.1.2.3.5.4.7,0,.3,0,.6,0,.8,0,.4.2.8.3,1.3.2-.4.6-.9.5-1.3,0-1.2-.2-2.4-.3-3.6,0-.2-.1-.4-.1-.5,0-2.2-.2-4.5-.2-6.7,0-.8.2-1.6.3-2.3.2-1.7.4-3.4.4-5.1,0-1.5-.7-3-.8-4.5,0-.8.4-1.7.4-2.5,0-3-.2-6.1-.2-9.1,0-1.3.2-2.7.2-4,0-1-.2-2-.2-3.1,0-1.1.2-2.2.2-3.3,0-1.6-.4-3.1.2-4.6.2-.4-.1-1-.2-1.5,0-.2-.2-.5-.2-.7,0-2.1,0-4.2,0-6.3,0-3,.2-6,.2-9,0-1.7-.4-3.4-.5-5.1,0-.3.1-.5.1-.8,0-1,0-2.1,0-3.1,0-3.5,0-7,0-10.5,0-1-.3-1.9-.4-2.9,0-.4.1-.9.1-1.3,0-.9-.2-1.9-.4-2.8,0-.2-.4-.3-.6-.4,0,0-.2.2-.3.3-.1.2-.2.3-.2.5-.2-.2-.5-.5-.5-.7.4-2.1-.2-4-1.1-5.9-.2-.5.3-1.4.7-2,.2-.3,1-.1,1.5-.2.2,0,.4,0,.6.1,0-.2-.1-.3-.2-.5-.4-1.1-.9-2.1,0-3.3.2-.2,0-.7,0-1,0-1.7.2-3.4.2-5.1,0-.8-.2-1.7-.2-2.5,0-1.9-.2-3.8-.2-5.6,0-1.1,0-2.1,0-3.2,0-1.3,1.9-3.1,3.2-3.1.8,0,1.6-.2,2.3-.5,1.1-.5,2.1-.5,3.3-.3.7.1,1.5-.3,2.2-.3,1.6-.1,3.3-.1,4.9-.3.7,0,1.3-.3,1.9-.4.5,0,1.1-.2,1.6,0,1.2.4,2.3.5,3.5.2,1.5-.3,3-.5,4.5-.5,1.2,0,2.3.5,3.5.8.5.1,1.2.3,1.6,0,1.4-.6,2.7-.5,4.1-.3.5,0,1.2,0,1.6-.2,1.5-.8,3-.8,4.7-.5.6.1,1.3-.2,1.9-.2.9,0,1.8.2,2.7.2,1.7,0,3.4,0,5.2,0,.2,0,.5.1.7.2-.1.1-.3.2-.4.4-.1.1-.2.3-.3.5.1,0,.3.2.4.2,1,0,2-.2,3.1-.2,1.1,0,2.1.2,3.2.2.8,0,1.5-.2,2.3-.1,1.3,0,2.6.2,3.9.3.8,0,1.5,0,2.3,0,.1,0,.3-.2.4-.1,1.4,1.2,2.8.4,4.2.2.2,0,.4.2.6.1.5,0,1.1-.1,1.6-.3.7-.2,1.3-.4,2-.6.5-.1,1-.3,1.5-.3.6,0,1.2,0,1.7,0,.9.1,1.7.5,2.6.5,2.6,0,5.2-.2,7.8-.2.7,0,1.5.5,2.2.5,1.3,0,2.6,0,3.9-.2.8,0,1.6-.1,2.5-.2.4,0,.9,0,1.3-.2,1.8-.4,3.6-.8,5.4-1.1.4,0,1,.2,1.4.5,1.1.9,2.8.9,3.8,0,1.2-1,3.7-.7,4.4.6.4.7,1.1.7,1.3.5,1.1-1.2,2.3-.4,3.5-.4,1,0,1.9,0,2.9,0,1,0,2-.1,2.8,1,.5.8,1.8,1.1,2.7,1.5.3.2.7.3,1,.4.2,0,.4.2.6.3,0-.2-.1-.4-.1-.6,0-.2,0-.4,0-.5.2,0,.4.1.6.2.1,0,.2.3.2.4-.5.6,0,.6.5.8.5.3,1,.6,1.4.9,1,1,1.9,2.1,2.9,3.1.5.5.9,1,1.7,1.2.7.2,1.1,1.3,1.8,1.8.3.3.9.2,1.4.3.2,0,.4,0,.6,0,0,.3,0,.7-.2.8-1.4.5-2.1,2.4-4,2,0,0-.2.4-.1.6,0,.2.3.3.4.5.5.7,1.1,1.3-.5,1.2-.2,0-.5.5-.7.8,0,.1,0,.4,0,.5.3-.1.6-.2.9-.3.2,0,.4,0,.6,0,0,.2,0,.4,0,.5-.7.7-1.1,1.3.1,2,.2.1.1.9.1,1.3,0,.8.3.9,1,.8.2,0,.6.4.6.6,0,1.1.1,2.2,0,3.3,0,.4-.6.7-.9,1.1.4.2,1,.4,1.1.7.1.4-.1,1-.2,1.5,0,.5.2,1.1-.7,1.1,0,0-.3.4-.2.5.2.3.4.8.6.8.6,0,.7.2.3.7-.1.1,0,.4-.1.6-.1,1-.2,2-.4,3-.4,0-.7,0-1,0-.4.1-.8.4-1.3.6,0,0,.1.2.2.2.5,0,1.1.2,1.5,0,.2,0,.4-.6.6-.9M85.6,48.8c0-.3.4-.8.3-.9-.7-.6-.2-1.1.1-1.6.5-.8,1.3-1.6,1.5-2.5.2-.8,0-1.8,0-2.8,0-.2,0-.4,0-.6.1.1.3.2.4.4.4.5.7.4.9-.1.3-.9.6-1.8.9-2.7,0-.2,0-.4,0-.6-.2,0-.5,0-.6.2-.4.4-.8.8-1.2,1.1-.1.1-.5.1-.5.1-.2-.6-.6-1.2-.6-1.7,0-.3.9-.5,1.4-.7,0,0,.2,0,.3,0,1.5-.1,2-.6,2-2.1,0-.3,0-.6.2-.7.5-.5.5-.9-.3-1.2-.2,0-.3-.4-.4-.6,0-.2.3-.5.4-.5,1.3.4.8-.7.8-1.1,0-.8,0-1.7-.5-2.3-.5-.7-1.4-1.2-2.2-1.7-.2-.1-.5,0-.8.1-.2.1-.4.4-.6.6-.1-.3-.2-.5-.4-.8-.3-.5-.2-1.4-1.2-1.5-.2,0-.3-.4-.5-.6.2,0,.4,0,.6-.2.2,0,.4-.2.4-.3,0-.2,0-.4-.2-.5-.5-.4-1-.7-1.6-1-1.3-.8-1.5-1.7-.7-3,.2-.3.3-.6.4-1,0,0-.2-.2-.4-.3-.5.8-1,1.5-1.5,2.3-.1.2-.1.5-.2.7-.2-.1-.5-.3-.6-.5-.7-.8-1.4-.6-2.1,0-1,.8-2,1.6-2.8,2.6-.8,1-1.7,1.9-1.9,3.4-.2,1.5-1.3,2.7-2.7,3.4-.7.4-.9.9-1,1.7-.2,1.2-.5,2.4-.9,3.6-.3.7-1,1.3-1.3,2-.8,1.7-1.6,3.5-2.3,5.2-.5,1.3-2.3,1.9-2.1,3.7,0,0-.1,0-.2.2-.5,1.2-1.4,2.3-1.5,3.6-.2,1.7-.8,3.1-1.7,4.5-.6.9-1.3,1.9,0,2.9.2.2.4.5.5.7,0,.1-.2.5-.2.5-1.2-.3-1.9.3-2.5,1.4-.7,1.4-1.7,2.7-1.9,4.4,0,.8-.7,1.6-1.1,2.3-.5.9-1.2,1.7-1.4,2.7-.2.7-.1,1.5-.9,2-.1,0,0,.5,0,.8-.2.6-.3,1.1-.6,1.6-.2.5-.7,1,.2,1.2.1,0,.2.2.3.3-.1,0-.3,0-.4.1-.7.2-1.5.3-2,.7-1.8,1.6-2.2,3.9-2.4,6.1,0,.9-.4,1.4-.8,2-.4.5-1.2,1.3-1.1,1.7.4,1.3-.4,1.8-1.1,2.6-.6.7-1,1.8-1.4,2.7-.8,2.1-2,4.1-1.7,6.6.1,1.3-.4,2.7-.7,4-.2,1.1.4,1.9,1.5,1.7.4,0,.9-.1,1.3-.2,1-.2,2.1-.5,3.1-.8.6-.1,1.2-.3,1.7-.2,1.5.3,3.5-.7,4.2-2.1.3-.6.7-.8,1.5-.6.6.2,1.3.1,2,0,.3,0,.5-.4.7-.6-.3-.1-.5-.2-.8-.3-.3,0-.5-.1-.8-.2.3-.2.6-.6.9-.7.6-.2,1.3-.2,1.9-.5.6-.3.9-.3,1.2.2,0,.1.3.1.5.2,0-.2,0-.4,0-.6-.2-.3-.4-.5-.7-.7.4,0,.8-.3,1.2-.2.5,0,1,.4,1.5.6.3.1.6.3.9.3,1.1,0,2.1-.2,3.1-.6,1.2-.4,2.7-.2,4.1,0,.5,0,.9.4.6,1.2-.6,1.5-1.2,2.9-1.7,4.4-.4,1.1-.6,2.3-1.4,3.3-.5.6-.7,1.6-.6,2.4,0,.9.6,1.8.9,2.8,0,.3,0,.6,0,.9-.3-.2-.6-.3-.8-.5-.1-.1-.2-.4-.3-.6-.2-.4-.4-.8-.6-1.2-.2.4-.4.8-.6,1.2,0,0,0,.2,0,.3,0,.8.2,1.6,0,2.4-.2.9-.7,1.6-1.1,2.5-.2.4-.5.7-.7,1.1-.6,1.4-1.1,2.7-1.7,4.1,0,.2-.5.2-.8.3-.2,0-.4.2-.5.4.1.1.3.3.4.4.1.1.2.2.3.3.5,1.2-.4,4.7-1.6,5.4-1.9,1.2-2,3.2-2.6,5-.2.6-.3,1.3-.5,1.9-.3.9-.8,1.9-1.1,2.8-.4,1.2-.7,2.4-1.2,3.5-.4.9-.9,1.8-1.4,2.7-.3.5-.4,1.1-.8,1.4-1.1.9-2.4,1.6-3.5,2.5-.7.6-1.6,1.3-1.9,2.1-.3.9-.3,2.1,0,3,.4,1.1,0,1.8-.7,2.5-.7.7-.8,1.4-.3,2.1.9,1.5.5,3.1.6,4.7.1,1.6-.3,3.2-.4,4.9-.1,2,0,3.9-.3,5.9-.2,1.1.3,2.1.5,3.1.1.7.2,1.1-.4,1.5-.3.2-.6.4-.9.7-.1.1-.3.4-.3.4.7.8,1.4,1.5,2.2,2.2.2.1.5,0,.8,0,0-.2,0-.4-.2-.6-.2-.3-.5-.5-.8-.8-.1-.1-.1-.3-.2-.5.2,0,.5-.1.5,0,.7,1.2,2,.3,2.9.9,0,0,.5-.2.5-.3.2-1.8.6-2.4,2-3,.1,0,.2-.2.3-.3,0,0-.2-.1-.3-.1-1.1-.1-.5-.7-.2-1,.9-.8,1.4-2,2.6-2.3.3,0,.5-.6.7-1,.5-.8-.3-2.6,1.6-2.4,0,0,.1,0,.2-.2.7-1.1,1.3-2.1,1.9-3.2.6-1.1,1.2-2.2,1.9-3.2.5-.8,1.3-1.5,1.9-2.3.8-1.2,1.4-2.5,2-3.7.2-.4.4-.9.6-1.4.3-.7.7-1.4,1-2.1.1-.3.4-.7.3-1-.2-.8-.3-1.5.4-2.1.1,0,0-.5,0-.6-.3-.3-.7-.6-1.1-.8-.7-.3-.7-.8-.7-1.5,0-1.9,2.1-2.8,1.8-4.7,0-.2.5-.5.8-.8.2-.1.5-.3.5-.4-.3-1.5,1.2-2.5,1-4.1-.2-1.7.7-3.2,1.6-4.7.6-.9,1.1-2,1.6-3,.4-.9.9-1.8,1.3-2.6.2-.6.4-1.2.6-1.7.3-.9.6-1.8,1-2.6,0-.2.4-.4.4-.6.2-1.7.6-3.4,1.6-4.9.8-1.2.4-3,1.7-4.1,0,0,0-.4,0-.4-.6-.8-.1-1.1.5-1.5.3-.2.5-.5.6-.8.4-1,.6-2.1,1.1-3.1.4-.8,0-1.5.3-2.2.5-1.7,1.2-3.5,2.2-4.9.8-1.2,1.2-2.2,1-3.6,0-.6,0-1.1.7-1.4.2,0,.5-.8.4-.9-.7-.7-.2-1.1.2-1.6.2-.2.4-.6.3-.8-.6-.9,0-1.5.4-2.2.7-1.3.9-3,2.1-4,0,0,0,0,0,0,0-.1,0-.2,0-.3-.1,0-.3,0-.4,0-.2,0-.4,0-.7.1.1-.2.2-.5.3-.7.7-1.1,1.6-2.1,2.1-3.2.7-1.5,1.1-3.2,1.6-4.7.4-1.2.2-2.5,1-3.7.4-.7.4-1.6.5-2.5,0-.2,0-.5,0-.7-.2,0-.5.1-.6.3-.3.3-.5.7-.7,1-.1.1-.4.3-.4.3-.8-.9-.7.2-1.1.4-.4.3-1.1.6-1.5.5-.7-.2-1.1,0-1.4.4-.9,1.1-1.9.9-3.2.5-1-.3-2.2-.8-3.3,0-.5.4-1.4.2-2.1.3-.7,0-1.5-.6-2,.4,0,0-.5-.1-.6-.3-1.2-1.1-1.1-3.1,0-4.7.6-1,1-2.4.9-3.4-.2-1,.4-1.1.8-1.6.2-.2.6-.4.7-.6.2-.7.3-1.5.2-2.2,0-.9.2-1.3,1.2-1.2.4,0,1.1-.2,1.1-.4.4-1.2.5-2.4,1-3.6.4-.9-.3-2.1.8-2.8,1.2-.9,1.4-2.2,1.6-3.7M100.5,3.9c-.8,1.2-1.9,1-3,.6-.2,0-.5,0-.7,0-.2,0-.5.2-.5.3,0,.1.1.5.3.5.8.4,1.6.8,2.4,1.2.1,0,.5-.2.6-.4.6-.7,1.1-.6,1.5,0,.1.2.2.4.3.6.1.1.5.3.5.2.2-.2.4-.5.3-.7-.2-.3-.5-.6-.8-.9-.2-.1-.4-.2-.6-.3.2-.1.3-.3.5-.3.8,0,.4-.4.1-.6-.3-.2-.7-.2-1.1-.2M57.4,10.9l.6-.3c-1-.7-1.1-1.7-1.1-2.8,0-.2-.7-.5-1-.7,0,.3-.2.6-.3.9,0,.2.2.3.3.5-.2,0-.5,0-.7-.2-.2-.2-.4-.5-.6-.8,0-.1-.2-.2-.3-.4,0,.2-.2.3-.2.5,0,1.3,1.8,3.2,3.3,3.4M132.6,172.4c0,.8.1,1.7.3,2.5,0,.3.4.5.7.7.2-.3.4-.5.4-.8,0-.5-.3-.9-.4-1.4,0-.5-.2-1.1,0-1.5.3-.9.2-1.7-.3-2.5-.1-.2-.6-.2-.8-.3,0,.3,0,.6.2.8.6.5.4,1,.2,1.6,0,.2-.2.5-.2,1M140.6,156c-.3-.6-.6-1.3-1-1.9,0,0-.2-.1-.3,0,0,0-.1.2-.1.3.6,1.1-.2,1.5-.9,2-.1,0-.1.5-.1.8,0,.1.3.3.4.2.7-.3,1.3-.7,2-1.3M73.5,172.5c-.1.1-.3.3-.3.4,0,1.4,0,2.8,0,4.1,0,.3.2.5.4.8.1-.3.3-.5.3-.8,0-1.5,0-3-.3-4.5M113.8,5.9c-.4-.4-.7-.9-1,0-.2.6,1.2,2.6,1.9,2.7,0,0,.2,0,.3,0,0,0,0-.2,0-.2-.3-.7-.7-1.5-1.2-2.4M138.1,188.2c0-.4,0-1-.2-1.1-.7-.2-1.4-.2-2-.2-.1,0-.3.3-.5.5.2.2.4.5.7.5.6.2,1.2.3,2,.3M131,8.8c.8.5,1.6,1,2.4,1.5,0-.1,0-.2,0-.3-.2-1-1.4-2-2.5-2-.1,0-.3,0-.4.1.1.2.2.4.5.7M122.2,121.9c-.9-.5-1.4.3-1.6.8-.3.5-.2,1.3-.3,1.9.1,0,.3,0,.4,0,.6-.8,1.1-1.6,1.7-2.4,0,0,0-.2-.1-.3M107.8,6.7c.2.2.4.4.6.6.5-.5,1.1-1,1.5-1.5,0,0,0-.4-.1-.6-.2,0-.5,0-.6.2-.4.4-.8.8-1.4,1.3M86.7,3.2c.4.7.8,1.4,1.2,2.1,0,.1.2.3.3.4,0-.1.2-.3.2-.4-.3-.9-.7-1.8-1.1-2.7,0-.2-.3-.4-.5-.5,0,.3,0,.6,0,1.2M138.1,177.9c0,.1-.1.4-.1.4.8.5,1.5,1,2.3,1.5,0-.1.2-.3.2-.4-.2-1.1-1-1.6-2.4-1.4M116,6.2c-.1,0-.3-.2-.4-.3,0,.3-.3.6-.2.8.4.6.9,1.1,1.4,1.6,0,0,.3,0,.5,0,0,0,0-.3,0-.4-.3-.5-.7-1-1.2-1.7M130.9,191.3c.3.2.6.4,1,.4.3,0,.6-.3.9-.5-.2-.2-.3-.4-.6-.5-.6-.2-1.1-.4-1.7-.6,0,0-.3.3-.3.4.2.2.4.4.7.7M132.6,108.7c.3,0,.6.2.9.3,0-.3,0-.7-.2-1,0-.2-.2-.5-.4-.6-.3-.2-.6-.4-1-.5,0,.3.1.7.2,1,0,.3.2.5.5.9M140,124.9c.2,0,.4,0,.5,0,.2-.5.4-1.1.6-1.6,0-.2,0-.5,0-.7-.3.2-.8.3-.8.5-.2.5-.2,1.2-.2,1.9M71.7,172.9c0,.4.1.9.2,1.3.2-.5.4-.9.5-1.4,0-.4,0-.8,0-1.2,0-.1-.3-.2-.5-.3,0,.5-.1.9-.2,1.6M50.8,186.2c.4.1.7.3,1.1.3.2,0,.5,0,.7-.1-.2-.2-.3-.6-.5-.7-.4-.2-.9-.3-1.4-.3-.2,0-.5,0-.7.1.2.2.4.4.7.7M120.6,128c.1.1.3.3.4.4.2,0,.5,0,.7.1,0-.2-.2-.4-.3-.6-.1-.3-.1-.7-.3-1-.1-.3-.4-.5-.6-.8-.1.3-.3.6-.3.9,0,.3.1.6.3.9M85.6,181.7c0,0,0-.2.1-.3-.3,0-.7-.2-.9,0-.5.3-.8.7-1.2,1.1.2,0,.6.3.7.3.4-.2.8-.6,1.3-1M27.2,101.2c.5,0,1.1,0,1.6-.1-.4-.2-.9-.3-1.3-.5,0,0,0,0,0,0-.5,0-.9,0-1.4,0,.4.2.7.4,1.2.7M114.7,4.7c0-.3-.1-.7-.3-1-.2-.3-.4-.6-.6-.9-.1.1-.4.3-.4.4,0,.4,0,.8.3,1.1.2.2.6.3,1,.3M4.6,31.4c-.4-.2-.7-.6-1.1-.7-.2,0-.5.3-.8.5.1.1.2.3.3.4.5.2,1,.3,1.4.5,0,0,.2-.4.2-.7M105.3,152.4c.7,0,1.3.2,2,.2.1,0,.3-.2.4-.3-.1-.1-.3-.4-.4-.4-.8,0-1.5,0-2.3,0,0,.1,0,.2.3.4M96.8,146.6c.2.4.4.9.6,1.3,0-.6.2-1.2.1-1.8,0-.3-.4-.5-.6-.7,0,.3,0,.6,0,1.2M120.5,188.8c-.2.3-.5.5-.5.8,0,.2.1.5.2.7.4-.4.8-.8,1.2-1.2-.3-.1-.5-.3-.9-.3M67.7,3.4c.5-.6.3-.9-.4-.8-.4,0-.8.4-1.2.6.4.1.8.2,1.3.3,0,0,.2,0,.3-.1M99.7,143.7c.3,0,.5,0,.8,0-.1-.3-.2-.7-.5-.9-.1-.1-.5,0-.8,0,.1.3.3.5.5.9M84.9,177.4c-.3.2-.7.4-1,.6,0,0,0,.3-.1.4.3,0,.9.2,1,0,.2-.3,1.1-.4.2-1M55.8,178.7c-.2.1-.3.2-.5.4.1,0,.3.2.4.2.3,0,.6,0,.9,0,.3,0,.5-.3.7-.5-.2,0-.5-.1-.7-.2-.3,0-.5,0-.9.1M97.2,179.2c-.4.4-.7.7-.3,1.3.4-.3.8-.7,1.2-1-.3-.1-.5-.3-.9-.3M89.4,168.8c.4-.1.7-.3,1.1-.4-.3,0-.7-.2-1-.3-.2,0-.4,0-.5,0-.1,0-.2.3-.3.4.2,0,.4.1.8.2M124.7,3.9c.2,0,.5-.2.7-.2-.3-.3-.5-.7-.8-1,0,0-.3,0-.5,0,0,.3.1.5.2.8,0,.1.2.2.4.4M104.7,139.6c.3,0,.6.1.9.2-.2-.3-.4-.5-.7-.8,0,0-.1,0-.2,0-.3,0-.5,0-.8,0,0,0-.1.2-.2.2.3.1.5.2.9.4M89.5,3.9c0,.4,0,.8,0,1.1,0,.1.2.2.3.4.1-.3.3-.7.3-1,0-.2-.4-.4-.7-.5M137.4,28.2c.1-.2.3-.5.4-.7-.3,0-.6-.2-.8-.2-.2,0-.4.4-.6.6.3.1.5.2,1,.3M76,187.8c.1.1.2.2.3.3.3.1.6.2.9.4,0-.1.1-.3,0-.4-.2-.3-.5-.6-.8-.7-.1,0-.4.2-.5.4M139.4,167c.2-.1.5-.2.6-.4.1-.2,0-.5,0-.8,0,0-.3-.1-.4,0-.2.1-.4.3-.5.5,0,.2,0,.4.2.8M91.2,165.4c0-.3,0-.6,0-.8-.2-.2-.6-.4-.9-.5,0,0-.3,0-.4.1.2.2.4.4.6.6.2.2.4.4.8.5M39.5,11c-.2.1-.4.3-.5.4.3.1.6.3.9.3.2,0,.4-.4.6-.6-.3,0-.6-.1-1,0M94.2,136.8l-.3-1.1c-.7.2-.3.7-.2,1.1,0,.1,0,.2,0,.3,0,.2.2.3.3.5,0-.2.1-.4.2-.8M70.8,3c0,.4.2.8.3,1.2,0,0,.3,0,.5,0-.1-.3-.3-.6-.4-1,0,0-.2-.2-.4-.1M124.2,7.6c-.2-.1-.5-.3-.7-.4,0,.3,0,.7,0,1,.3-.1.5-.2.8-.6M78,192.1c0,.2.2.3.2.5.1.4.2.8.3,1.3,0-.5.1-.9.2-1.4,0-.1,0-.3,0-.3-.2,0-.4,0-.7,0M118.7,122.1c-.5,0-.9-.2-1.4-.2-.1,0-.2.1-.3.2,0,0,0,.2,0,.2.6,0,1.2,0,1.7-.2M93.9,3.3c0-.1,0-.4,0-.4-.5-.1-1-.2-1.5-.3,0,0,0,.2-.1.3.4.1.9.3,1.5.4M140.6,24.5c-.1-.1-.2-.2-.3-.3,0,.2-.1.3-.1.5,0,.5.1,1.1.2,1.6,0-.5.2-1,.3-1.8M133.3,86.2c0-.3-.1-.5-.2-.8-.3.2-.6.4-.9.5.3.1.7.3,1.1.3M63.3,8.6c-.2.2-.4.4-.4.6,0,.2.2.5.3.7,0,0,.3,0,.4-.1,0-.2,0-.4,0-.6,0-.1,0-.3-.3-.5M132.6,111.2c-.2.2-.5.3-.7.5.1.1.4.4.4.3.4-.2.7-.5,1-.7-.2,0-.4-.1-.7,0M133.6,186.9c.1-.5.3-.9.4-1.4,0,0-.2,0-.3,0-.1.5-.3,1-.4,1.5,0,0,0,.1.2,0M66.2,190.1c-.3,0-.5.1-.8.2.2.2.3.4.5.4.3,0,.6,0,.9,0-.1-.2-.2-.3-.6-.5M79.1,183.1c.4,0,.7-.1,1.1-.2,0,0,0-.3-.1-.3-.4,0-.8,0-1.2,0-.1,0-.2.2-.4.3.1,0,.2.1.6.2M136.5,156.6c.2-.3.4-.7.6-1,0,0-.2-.2-.3-.4-.1.4-.2.8-.2,1.4M133,118.9l-.3.4c.4.1.8.2,1.1.3,0,0,.2-.1.2-.2-.3-.2-.5-.4-1.1-.5M87.9,179c-.3.2-.6.3-.9.5.1.2.2.4.3.5.2-.3.5-.6.6-1M138.1,172.8c-.4,0-.9,0-1.3,0,.3.1.6.3,1,.4.2,0,.4,0,.5,0,0-.2,0-.3-.2-.5M70.4,187.1c-.2.1-.4.3-.5.4.3.1.5.3.8.3.2,0,.4-.3.6-.5-.2,0-.4-.1-.8-.2M100.6,174.6c.2,0,.3,0,.5,0,.3-.1.5-.3.8-.4-.3,0-.6-.3-.9-.3-.2,0-.3.4-.3.7M98.7,170.3c0,0,.2.2.3.2.2.1.4.2.6.3-.1-.2-.2-.4-.3-.6-.1-.2-.3-.3-.4-.4-.2-.1-.4-.2-.6-.2,0,.2.2.4.4.8M82,179.7c0,0-.1.1-.2.2.3.1.6.4.8.4.1,0,.3-.3.5-.5-.3,0-.5-.1-.8-.2,0,0-.2,0-.3.1M84.4,135.4c-.3,0-.5,0-.8-.1.1.3.2.5.3.8.2-.1.3-.3.5-.7M142.2,182c-.2,0-.4-.1-.5-.1-.3,0-.6.2-.9.4,0,0,0,.3,0,.3.3,0,.5-.1.8-.2.2,0,.3,0,.5-.4M128.3,141.6c0,.2.2.5.2.7.3-.1.5-.2.8-.3-.3-.1-.5-.3-1-.4M81.9,142.3c-.3,0-.5,0-.8,0,0,.2.1.5.2.7.2-.2.5-.5.6-.8M122.7,118.4c.2-.1.4-.3.5-.4-.3,0-.6-.2-.9-.3-.1,0-.3.1-.4.2.2.1.5.2.8.5M18,193.3c.3-.1.7-.2,1-.3,0-.2-.1-.3-.2-.5-.3.2-.6.5-.8.8M50,127.1l.5.7c.1-.1.2-.2.3-.3-.2-.2-.5-.3-.8-.4M141,100.3c.2-.2.5-.4.7-.7-.2,0-.3-.2-.5-.3-.2.3-.3.6-.3.9M118.2,128c.2,0,.3.1.5.2,0-.2,0-.5-.2-.6-.2-.2-.5-.2-.8-.2,0,.2.2.4.5.6M136.4,170.8c.2,0,.3.1.5.2,0-.2.2-.5.2-.7,0-.1-.3-.2-.5-.4,0,.2-.1.4-.2.8M116,163.5c.3-.1.6-.2.9-.4,0,0-.1-.2-.2-.2-.4,0-.7.1-1.1.2,0,.2.1.3.3.4M29,129.5c.1.3.3.5.4.8,0-.3.2-.6.3-.9-.2,0-.4,0-.7.2M110,177.2c.2.1.5.3.7.4l.3-.6c-.3,0-.6,0-1.1.1M95.5,182.6c-.3.2-.6.4-.8.6,0,0,0,.2.1.4.3-.2.5-.4.8-.6,0,0,0-.1-.1-.3M23.9,192.3c-.3-.3-.6-.5-.9-.8,0,0-.2.2-.2.2.3.2.5.4.8.6,0,0,.1,0,.3-.1M26.1,193.4c-.2.1-.3.3-.5.4.3,0,.6.1.9.2,0-.2,0-.4-.4-.6M4.6,152.1c0,.3,0,.7-.1,1,0,0,.2,0,.4.1,0-.3,0-.5-.1-.8,0,0,0-.2-.1-.4M105.8,188.5c.2.2.4.5.6.7,0,0,.3-.2.4-.3-.3-.1-.5-.3-1-.4M80.5,187.8c0-.3,0-.6,0-.9-.2,0-.5.2-.4.2,0,.2.1.5.4.7M107.4,63.1c-.3-.1-.5-.2-.8-.4,0,.2,0,.5,0,.5.3,0,.6,0,.8-.1M12.8,192.7c-.2,0-.4,0-.6-.1,0,.3,0,.6.1.8.2-.2.4-.4.4-.7M112.2,184.6c-.8-.3-.4.3-.4.6,0,.1.2.3.4.5,0-.3,0-.5,0-1M130.3,173.1c-.2.2-.3.3-.5.5.2,0,.4,0,.5,0,.2-.1.4-.4.6-.6-.2,0-.3,0-.6.1M66.4,38c.2-.2.4-.3.5-.5,0,0,0-.3,0-.4-.1,0-.3,0-.3,0-.2.3-.3.6-.2.9M139.8,33.3c0,.4,0,.8,0,1.2,0,0,.2,0,.2,0,0-.4,0-.8-.2-1.2M126.3,122c0,.2.1.4.2.6,0,0,.3,0,.5-.1-.2-.2-.4-.4-.7-.4M133,128c.3,0,.5-.1.8-.2-.2-.1-.4-.3-.6-.3-.2,0-.3.3-.2.4M2.6,33c.1.3.3.5.4.8,0,0,.3-.2.3-.3-.2-.2-.4-.5-.7-.6M126.8,164.2c.1.2.3.4.4.6.1-.1.2-.2.3-.3-.2-.1-.4-.3-.7-.3M39,2.6c.1.2.2.4.4.4.1,0,.3-.2.5-.3-.2,0-.4-.1-.8-.2M62.1,188.6c.2,0,.5,0,.7,0-.1-.1-.3-.3-.4-.4-.1,0-.3.2-.3.4M94.7,7.9c0-.2,0-.4,0-.6-.2,0-.4.2-.6.3.2.1.4.3.7.3M131.3,180.3c.3,0,.5-.1.8-.2,0,0,0-.2,0-.3-.3.1-.6.2-.7.5M140.4,29.7c.2-.1.4-.2.4-.4,0-.1-.2-.3-.3-.5,0,.2-.1.4-.2.8M127.2,171c-.3-.1-.6-.2-.8-.3,0,0,0,.2,0,.3.3,0,.5.1.9,0M131.8,82.8c-.2,0-.3,0-.5,0,.1.2.3.3.4.5.1-.2.2-.3,0-.5M88.3,169.6c0,.3.1.5.2.8,0,0,.2,0,.3,0-.1-.3-.2-.6-.5-.7M103.7,167.8c0-.3,0-.6,0-.9,0,0-.2,0-.2,0,0,.3,0,.6.2.9M121.9,126.2c.2,0,.5,0,.7-.1,0-.1,0-.3,0-.4-.2.1-.4.2-.6.5M87.5,139c.2,0,.4-.1.6-.2-.2,0-.3-.3-.5-.3-.2,0-.2.3-.1.4M109.9,156.2c-.3,0-.6,0-.9,0,0,.1,0,.2,0,.3.3,0,.5-.1.9-.3M91.4,193l.5.4c0-.1.1-.2.2-.3-.2,0-.5-.2-.7,0M137.7,12.7c-.2,0-.3-.1-.5-.2,0,.2,0,.4.1.6.2,0,.3-.1.4-.3M38.3,21.1c.2-.2.4-.4.6-.6,0,0-.1-.1-.2-.2-.2.2-.4.4-.4.7M72.5,134.6l-.5.4c.2,0,.3.2.5.3,0-.2.1-.4,0-.7M58.1,172.6c0,.2-.1.3-.2.5.2,0,.4,0,.6-.1,0-.2-.1-.3-.3-.4M97,170.3c0,.2-.1.3-.2.5.2,0,.4,0,.6-.1,0-.2-.1-.3-.3-.4M124.6,164.8c.2,0,.4,0,.6.1,0-.1,0-.2,0-.3-.4,0-.7,0-1.1,0,.1,0,.2,0,.5,0M85.9,163.6c0-.2.2-.4.3-.6-.1,0-.4,0-.4,0,0,.1,0,.3,0,.6M68.5,4.2l.5.2c0-.2,0-.3,0-.5-.2,0-.4,0-.4.2M30.6,101.3c.1,0,.2-.2.4-.3-.2,0-.3-.1-.5-.2,0,.2,0,.3.1.5M140.8,110.5c0-.2,0-.4.1-.6-.1,0-.4,0-.4.1,0,.2,0,.4.2.5M139.7,112.9c0-.2,0-.4.1-.6-.1,0-.4,0-.4.1,0,.2,0,.4.2.5M39.8,66.7c-.2-.1-.3-.2-.5-.4,0,.1-.1.2-.2.3.2,0,.4.1.7,0M140.8,58.3c0,.1.2.2.3.4l.2-.5c-.2,0-.3,0-.5.1M133.8,55.7c.2.1.3.2.5.4,0-.1.1-.2.2-.3-.2,0-.4-.1-.7,0M48.4,188c0-.2,0-.3-.1-.5-.2,0-.3.1-.5.2.1,0,.2.2.6.3M59.5,171.7c.1.1.3.2.4.3l.2-.4c-.2,0-.3,0-.6,0M125,119.1c-.2,0-.4.1-.6.2,0,.1.1.2.2.3.2-.1.3-.2.4-.5M73.1,185.3c-.2,0-.5,0-.7,0,0,0,0,.2,0,.2.2,0,.5,0,.7-.2M98.2,191.9c-.1-.2-.3-.4-.4-.5l-.2.2c.2.1.4.3.6.3M109.7,163c.2,0,.4.1.6.1,0,0,0-.2.1-.4-.2,0-.4,0-.7.3M66.8,160.7c-.2,0-.5,0-.7,0,0,0,0,.2,0,.2.2,0,.5,0,.7-.2M29.2,140.9c0,.1.2.3.3.4.1-.2.2-.4.3-.6-.2,0-.3,0-.6.1M116.1,184.7c-.2,0-.4.1-.6.2,0,.1.1.2.2.3.2-.1.3-.2.4-.5M2.9,30l.2-.5c-.1,0-.2,0-.3-.1,0,.2,0,.3.1.6M90.2,149.2c0-.2,0-.4-.1-.6h-.3c.1.3.2.5.4.6M121.9,124.6c0-.2,0-.3,0-.5-.1,0-.2,0-.3.1,0,.2.1.3.3.4M76.2,148.7c0,.1.2.2.3.4,0,0,.1-.1.2-.2-.2-.1-.3-.2-.5-.1M140.8,192.1c0,.1.1.2.2.3.1-.2.2-.4.3-.5-.2,0-.3,0-.5.2Z"/>
    <path d="M94.6,459.4c-.2,1.5-1.5,1.9-2.4,2.8-.3.3-.7.5-.4,1.2.2.5-.1,1.2-1,1.1-1.2,0-2,.4-2.4,1.6-.1.4-.5.7-.7,1-.1.1-.4.2-.4.3-.6,2.4-2.7,2.1-4.4,2.6-.2,0-.4.4-.5.7-.1.3,0,.7-.1,1-.2-.2-.5-.4-.7-.6-.2-.1-.3-.3-.5-.4,0,.2,0,.5,0,.5-.5.1-1,.3-1.6.3-.9,0-1.8-.3-2.8-.4-.2,0-.4.1-.6.2.2.2.4.4.6.5.5.1,1,.1,1.5.3.1,0,.2.3.3.4-.2,0-.4.1-.6.2-1,.1-2.1.2-3.1.3-.5,0-1.1.1-1.6.2-.2,0-.4.2-.5.3-.3.9-.9.8-1.6.6-1.3-.3-2.5-.3-3.9,0-1,.3-2.2,0-3.3-.4-1-.3-2-1.1-2.8.2,0,0-.3,0-.4,0-.7-1.5-2.1-.7-3.1-1-1-.4-2-.6-3-.9-.5-.1-1,0-1.5,0-.6,0-1.1,0-1.7.1,0-.4,0-.9,0-1.3,0-.2,0-.4,0-.6-.2,0-.3.2-.5.2-.9,0-1.8,0-2.8,0,0,0-.2-.3-.3-.4-.3-.4-.6-.8-.9-1.1-.3-.4-.5-.7-.8-1.1-.1-.2-.3-.3-.4-.5,0,.2-.2.4-.2.6,0,.2,0,.4-.1.6-.2,0-.6-.1-.6-.3-.3-.7-.5-1.4-.7-2.2,0,0,.4-.3.7-.3.9,0,1.7,0,2.6,0,.2,0,.4-.2.7-.3-.2-.1-.4-.3-.7-.3-1.2,0-2.4-.2-3.5,0-1.9.3-2.8-.8-3.9-1.9-.8-.9-1.6-1.8-2.3-2.8-.3-.4-.5-.8-.8-1.2-.4-.6-.7-1.2-1.1-1.8-.9-1.1-1.7-2.1-1.1-3.6,0-.1,0-.3-.2-.5-.1,0-.2.2-.3.2-.1.1-.3.3-.4.4,0-.2-.2-.4-.3-.6-.3-.8-.5-1.6-.8-2.4,0-.2,0-.4.1-.6.2,0,.5,0,.5.2.4.9,1,1.4,2,.7,0,0,.4,0,.5.2,0,0-.1.3-.1.5,0,.2,0,.5,0,.7.2-.1.6-.2.6-.4.1-.5.2-1,0-1.4,0-.1-.7-.2-1.1-.1-.7.2-1.1,0-1.6-.4-.6-.5-.3-.9-.3-1.4,0-.9-.1-1.7,0-2.6,0-.2.3-.6.5-.6,1.5-.1,3.2.2,4.5-.4,2-1,4-.4,6-.8,1.9-.3,3.9,0,5.8.1.3,0,.6,0,.9-.1.3,0,.6-.2.9-.3-.1.2-.4.5-.4.7,0,.3,0,.7.3,1,.7,1.1,1.5,2.2,2.1,3.4.3.6.7,1.1,1.1,1.7,1.5,2.2,3.6,3.6,5.9,4.8.8.4,1.9.5,2.8.5,1.4,0,2.8,0,4.2-.2.6,0,1.3-.3,1.8-.6,1-.6,1.9-1.2,2.8-1.9.3-.2.4-.7.7-1.1.1-.2.4-.6.4-.6,1.7.9.5-1.3,1.3-1.2-.2-.2-.5-.4-.7-.7-.2-.1-.4-.3-.5-.4.3,0,.6-.3.8-.2,2.2.6,2.2.5,3.2-1.8.5-1.4,1.5-2.6,2.2-3.9.3-.6.5-1.3.8-2,.2-.4.3-.8.6-1,.9-.5,1.6-1.7,1.5-2.7,0-.1,0-.3-.1-.4-.1-.2-.3-.3-.5-.4.3,0,.6-.3.8-.2.7.3.7-.1.8-.6.1-1.2.3-2.4.5-3.6,0-.1.1-.2.2-.4,0,.1.2.3.3.4.1.1.3.2.4.3,0-.2.3-.4.3-.5-.6-1.5.5-2.8.5-4.2,0-1,.3-2,.4-3,0-.6-.2-1.3.7-1.6,0,0,.2-.2.2-.2-.3-.8-.5-1.8-1.1-2.4-.5-.4-1.5-.4-2.2-.5,0,0-.2.1-.3.2-1.3,1.3-2.6,2.5-3.8,3.9-.5.5-1,.8-1.7.5-.1,0-.6.3-.6.4-.1,1-.8,1.2-1.7,1.3-.4,0-.8.5-.9.9-.6,1.6-2.6,2.6-4.3,2.2-.6-.1-1.4,0-2,0-1-.2-1.2-.9-.7-1.7.2-.4.5-1,.4-1.4,0-1.9-.2-3.8-.2-5.6,0-.8.4-1.7.4-2.5,0-.6-.2-1.2-.2-1.8,0-.2.5-.7.6-.7,1.5.3,2.1-.9,3.1-1.6.6-.4,1.2-.7,1.8-1.1.6-.4,1.1-.9,1.6-1.4.4-.4.9-.7,1.3-1.1.9-1.2,2.7-1.7,2.6-3.7,0-.4.4-.9.8-1.2,1.4-.9,1.6-2.4,1.8-3.8.2-1.3.2-2.7.2-4,0-2.1,0-4.2-.5-6.2,0,0,0,0,0-.1-1.8-2-1.5-4.8-2.6-7.1-.5-1.1-1.2-2-1.6-3.1-.6-1.7-1.9-2.8-2.8-4.2-1.2-1.7-2.2-3.5-3.2-5.3-.2-.3-.1-.7-.3-1.1-.3-.7-.6-1.3-.9-2-.2-.5-.6-1.1-.4-1.4.9-1.6,0-3-.3-4.5,0-.4-.3-.8-.2-1.1.4-1.3.1-2.3-.8-3.2,0,0-.1-.4,0-.5.5-.9,1-1.7,1.5-2.5,0-.1.4-.3.4-.2q1.1,1.2,2.8,1.8c.2,0,.4.2.6.3.3.3.6.7.8,0,0-.1.4-.3.4-.2.2.2.3.4.4.7.1.2.2.5.3.7.1-.2.2-.5.4-.5.5-.1,1.2-.3,1.6-.1,1.7.7,3.3,1.6,5,2.3.5.2,1.1.4,1.5.2,1.3-.6,2,.2,2.7,1,.7.8,1.3,1.6,2,2.4.2.2.4.3.7.3,1.1.2,1.6,1,2.1,1.8.2.4.5.7.9,1,.2.2.7.2.8.5,1.1,1.8,2.2,3.5,3.2,5.3.4.7.8,1.4,1.2,2.2.2.3.2.7.4,1,.4.6.9,1.1,1.4,1.6.2.2.4.2.7.3-.2.1-.4.3-.6.4-.2,0-.4.2-.5.2.2,0,.4.2.7.2.3,0,.6,0,.9,0,0,.3-.1.6-.2.9-.2.8-.5,1.5.2,2.2,0,0,0,.2,0,.3.2,1.9,1.6,3.5,1.6,5.4,0,.4.2.9.5,1.1.7.5.5,1.1.5,1.9,0,1.9.4,3.8.6,5.6.1.9.1,1.8.3,2.7.3,1.1.3,2.1.3,3.2,0,1.6,0,3.4,1,4.8,0,.1,0,.5-.1.7-.8.8-.6,1.6-.1,2.6.3.6.4,1.3,0,2.2-.5,1.1-.2,2.5-.4,3.7,0,.5-.3,1.1-.4,1.6-.2.8.2,1.2.8,1.4.8.3.8.6.2,1.1-.4.3-1,.7-.2,1.2.1.1.1.5,0,.8-.5,1.3-.5,2.5-.3,3.8.1.8-.3,1.8-.6,2.7-.4,1.4-.9,2.8-1.2,4.2-.1.5,0,1.1,0,1.7-.2,1.4-.8,2.8-.7,4.1,0,1.3-.3,2.2-.8,3.3-.1.3.1.8.1,1.2,0,.3.1.9,0,1-1.3.8-1.5,2.1-1.9,3.3-.2.8-.6,1.6-.9,2.5-.3,1-.6,2-1,2.9-.2.4-.7.8-1,.8-.7-.1-.7,0-.9.6-.2.6-.8,1.2-1.2,1.7-.1-.1-.4-.3-.4-.4,0-.8,0-1.6,0-2.5,0-.2-.1-.4-.2-.6,0,.2-.2.3-.3.5-.2,1.3-.8,2.5-.3,3.8,0,.2-.2.6-.4.9-.5.5-.3.7.4.9M70.2,358.8c.1.2.2.5.4.7.2-.4.5-.8.7-1.2,0-.1,0-.3-.1-.5-.1,0-.2,0-.3.1-.2.2-.3.5-.6.8M101.2,432.5c-.1-.3-.2-.7-.3-1-.1.2-.3.3-.4.5,0,.3,0,.7,0,1,.2,0,.5-.1.7-.4M96.4,445.8c0,.3,0,.6.1.9.2,0,.5,0,.5-.2,0-.4,0-.8,0-1.1-.2,0-.3.2-.6.4M71.4,472.7c0,1.1.7.2,1,.5,0,0,.2-.2.3-.3-.4,0-.7-.1-1.3-.2M99.8,387.3c0,.1.2.2.3.4,0-.3,0-.6,0-.8,0-.2-.4-.2-.6-.3,0,.2.2.4.4.8M97.7,441.9c-.2.2-.3.4-.5.6.1,0,.2.1.3.2,0-.2.2-.5.1-.8M38.9,455c-.2-.2-.4-.4-.6-.5,0,.1-.2.2-.3.3.3.1.5.2.9.2M50.4,469.6v-.6c-.3,0-.5.2-.7.3.2.1.4.3.7.3M37.7,448.5c-.1-.3-.2-.5-.3-.8-.1,0-.2.2-.3.3.2.2.4.4.6.5M93.5,390.4c.3-.2.6-.3.9-.5,0,0,0-.2,0-.3-.2.2-.4.4-.6.6,0,0,0,0-.2.2M81.5,368.8c.2,0,.5,0,.7,0,0,0,0-.2,0-.2-.2,0-.5,0-.7.2M103.6,420.8c0,.1.2.2.3.4,0-.2.1-.3.2-.5-.2,0-.3,0-.5.1M38.7,446.8c.2.1.3.2.5.4,0-.1.1-.2.2-.3-.2,0-.4-.1-.7,0M103.7,423.8c.2,0,.3,0,.5,0,0-.1,0-.2-.1-.3-.2,0-.3.1-.4.3Z"/>
    <path d="M95.7,282.6c2,1.3,4,2.4,5.9,3.8,1.3,1,2.4,2.3,3.4,3.6.8,1.2,1.2,2.7,2,3.8.9,1.4.4,3.1,1.6,4.4.8.9.3,1.6-.7,1.7-.1,0-.2,0-.4.1.2.1.4.3.6.3.6,0,1.1,0,1.3.7.1.4.2.8-.3.7-1.2-.3-1,.9-1.3,1.4-.1.2.5.9.9,1.2.3.3.6.4.1.7-.2.1-.6.3-.6.3.2.6.3,1.1.6,1.6.1.2.3.4.5.7-.3,0-.6,0-.8,0-.3,0-.6.1-1,.2.2.3.4.5.6.8.4.6.8,1.1,1.2,1.7,0,0-.3.3-.5.4,0,0-.2,0-.3,0-.4,0-.8-.1-1.2-.2.3.3.5.6.8.9.1.2.3.3.5.4-.3,0-.5.2-.8.2-.2,0-.4-.1-.6-.1-.3,0-.5,0-.8-.1.2.2.4.6.7.7.6.4,1.3.7,1.9,1,.2.1.3.3.4.5-.2,0-.4.2-.5.2-1-.1-2-.3-3-.4-.2,0-.4,0-.6,0,.1.2.2.5.3.5.6.1,1.3.2,1.9.3.3,0,.6.3.9.4-.2.2-.5.5-.7.5-1.6-.3-1.2.9-1.1,1.7,0,.4.2.7-.4.7-.9.1-.8.8-.9,1.5,0,.7.2.9.9.9.2,0,.4.3.5.5-.2.1-.4.3-.6.4-.2,0-.5,0-.7,0-1-.1-1.1.3-.8,1.2.4,1.2-.2,2-1.5,1.9-.2,0-.5,0-.7,0,.1.2.2.5.4.7.2.4.5.8.7,1.2-.5-.1-.9-.3-1.4-.4-.2,0-.4-.1-.6-.2,0,.2.2.4.2.6,0,.6.1,1.2,0,1.8-.4,2.5-2.3,2.9-4.4,3.1-.9.1-1.7.6-2.5,1-.2,0-.4.5-.3.7.4.8.2.9-.5.5,0,0-.3.1-.5.2.1,0,.2.2.4.3.3.2.6.4.8.6.1.2.3.5.2.7,0,.2-.4.3-.6.3-.5,0-.9-.2-1.4-.3-.4,0-.9-.1-1.3-.1-.2,0-.4.2-.6.2-.7,0-2.3-.7-.9,1.1,0,0-.4.4-.6.6-.3.2-.9.2-.9.3-.2,1.1-.9.8-1.5.6-.7-.2-1.4-.3-2.1-.5-.3,0-.7,0-.8,0-.8,1.5-2.3.7-3.5,1.3-.4.2-.9-.1-1.4-.2-.5,0-1.1-.1-1.5,0-.7.2-1.2.1-1.7-.4-.1-.1-.2-.3-.3-.3-1.7-.2-2.2-1.8-3.2-2.7-.2-.2,0-.5-.1-.8.2.2.3.3.5.5.1.1.3.2.5.2,0-.2.2-.4,0-.5-1.2-1.8-.3-3.5.2-5.2.1-.5-.3-1.1-.4-1.7-.4-1.2.2-1.9,1.4-2.2,1.5-.4,3.2-.4,4.3-1.8.2-.2.4-.4.4-.6,0-.7.3-.8.9-.9,1.1,0,2-1.2,2.2-2.2,0-.3.3-.6.5-1,.1.3.3.6.4.9,0,.2.2.3.3.5.1-.1.3-.2.4-.4.4-1.4,1.1-2.5,2.4-3.5,1-.8,2-2,2.1-3.7,0-1,.5-2.1.6-3.1.2-1.2.3-2.4.2-3.6,0-.6-.4-1.1-.6-1.7-.1-.5-.3-1.2-.1-1.7.5-1.5.2-2.4-1.3-3.5-.2-.1-.5-.3-.6-.4-1.4-2.9-4.3-6.7-6.9-8.7-.2-.2-.8-.3-.9-.2-.9.7-1.5.2-2.1-.5,0-.1-.2-.3-.3-.3-1,0-1.9-.1-2.8-.7-.8-.5-2-.5-3-.8-.2,0-.4-.4-.4-.6,0-.8-.5-.8-1.1-.8-.1,0-.2.1-.3.2,0,0,0,.2.1.3.1.2.3.3.4.5-.4,0-.9.1-1.1,0-.7-.6-1.2-1.3-1.9-2-.2-.2-.4-.3-.6-.5-.1.2-.2.5-.3.7-.1.2-.2.4-.4.7-.2-.2-.5-.4-.5-.6,0-.5,0-1,.2-1.4.7-1,.7-1.8,0-2.8-.2-.3-.3-.9-.2-1.3.3-1-.2-1.7-.9-2.2-.1-.1-.6.1-.9.3-.1.1,0,.5,0,.7-.2,0-.5,0-.5-.2-.2-.2-.3-.7-.3-.8.9-.7,0-1.6.2-2.3,0-.2,0-.5,0-.7.2,0,.3.1.5.2,0,.1-.3.3-.2.4.4.6.9,1.1,1.4,1.7.1-.2.5-.5.4-.6-.6-1,.8-1.2.8-1.9.1.1.4.2.4.3,0,.3,0,.6,0,.9,0,.2.2.3.3.5.1-.1.4-.3.4-.4,0-1.2.9-1.1,1.7-1,.5,0,1.1.3,1.4-.5,0-.2.9-.3,1.1-.2.7.6.7.2.7-.4,0-.2.2-.5.3-.7.2.1.3.3.5.4.2,0,.5.2.6.1.8-.8,2-1.4,2.3-2.4.3-1.1,1.6-1.1,1.9-2.2.1-.3.8-.5,1.3-.7,1-.4,1.9-.8,2.9-1.3.1,0,.1-.4.2-.6-.2,0-.4,0-.6.1-.3,0-.5.3-.8.3-.3,0-.5-.2-.8-.3.2-.1.4-.3.6-.4.5-.5,1-1,1.5-1.5.4-.4.8-.9,1.2-1.4.4-.4,0-1.5,1-1.4,0,0,.2-.4.1-.5-.1-.1-.4-.1-.6-.2-.2,0-.4-.2-.6-.3.2-.1.4-.4.6-.4,1.9-.4,1.8-.3,1.5-2.2-.1-.9,0-1.7,0-2.6,0-2.9-.2-5.8-1.8-8.4-.5-.7-1.2-1.3-1.9-1.9,0,0-.2-.2-.2-.3-.5-1.6-2.2-1.9-3.2-2.9-.1-.1-.4-.2-.6-.3,0,.2-.2.4-.2.7,0,.2,0,.3-.1.5-.2,0-.3-.2-.5-.3-1.7-.9-1.9-2.8-2.4-4.4-.1-.4,0-.8.6-.5.1,0,.4,0,.5-.1,0-.2-.1-.3-.3-.5-.9-1-.9-2,0-3.1.1-.1,0-.6-.1-.8-.8-1.3-.7-1.7.6-2.5.6-.4,1-1.1,1.5-1.7,0,0,0-.2,0-.2-.1,0-.3,0-.4,0-.4.1-.9.3-1.3.4.3-.4.6-1,1-1.3.9-.7,1.3.2,1.8.7.2.2.3.4.4.6,0-.3.3-.7.2-1-.2-.6-.4-1.1.5-1.2.4,0,.8,0,.4.5-.1.2,0,.6.1.9.2-.2.4-.4.5-.6.4-.5,1.1-.4,1.6.3.2.3.6.5.9.7,0-.4,0-.8,0-1.2,0-.3.1-.6.2-.9,0-.2.3-.3.4-.5,0,.2.2.4.3.6,0,.2.2.5.3.8.3-.2.7-.2.9-.5.5-.8,1.2-.4,1.8-.4,0,0,.1.4.2.6-.2,0-.4,0-.6,0-.2,0-.5-.2-.6-.1-.1,0-.3.4-.2.6,0,.2.3.4.6.4.7.1,1.4.5,1.5-.7,0-.2.4-.5.5-.4.9.2,1.8.4,2.8.7.1,0,.2.3.3.4-1,.7-.1.6.3.9.3.2.3.8.4,1.2,0,.3,0,.6.1.9,0-.2.2-.5.2-.5.6,0,1.2,0,1.7.2,1.5,1,2.8,2,3.5,3.8.4,1.1,1.7,1.9,2.5,2.8.4.5.6,1.1.9,1.6.4.6.7,1.2,1.1,1.8.4.7,1.1,1.3.6,2.3-.1.3.2.9.4,1.3.5.8.9,1.6.7,2.6,0,.2.3.5.4.8,0-.3.1-.5.2-.8.2-.4.3-.9.5-1.3.1.5.4.9.4,1.4,0,.5-.5,1-.4,1.4.2,1.6.5,3.2.7,4.8,0,.2.2.5.1.6-1.4,1.5-1.3,3.2-.9,5.1,0,.4,0,.8,0,1.2,0,.4.2,1.1-.7.7-.1.4-.4.8-.3,1.2.3,1.4-.4,2.8-1.7,3.3-.1,0-.3.5-.2.6.3,1.3.4,1.3-.9,1.2-.3,0-.5,0-.8,0-.2,0-.4,0-.7,0,.2.2.4.3.4.5,0,.3,0,.7-.2.8-.8.4-1.5.7-1.2,1.8,0,.2-.3.6-.5.7-1.7.7-3.1,1.9-5,2-.2,0-.6.1-.7.3-.6,1.1-1.1,2.2-1.7,3.3-.4.7-.2,1.1.2,1.7,1.1,1.4,2.8,2,4.2,2.9.5.4,1.1.7,1.7,1.1M78.7,269.2c0-.2,0-.3,0-.5-.5.1-1,.2-1.5.4,0,0,0,.2,0,.4.5,0,1-.1,1.6-.3M84.2,262.5c-.1.1-.2.3-.3.4.3.2.7.3,1.1.5,0,0,.2-.3.3-.4-.3-.1-.5-.3-1.1-.4M103.1,309.3c.2-.2.4-.4.6-.6-.3,0-.5-.1-.8-.2,0,.3,0,.6.2.8M82.1,265.6c.1,0,.3,0,.4,0,0-.2,0-.4-.2-.5-.1-.1-.4,0-.5-.1,0,.2.2.3.3.6M85.9,259.5c.2-.2.4-.4.5-.6-.1,0-.2-.2-.3-.3-.1.3-.2.5-.2.9Z"/>
    <path d="M31.6,390c.6-2,1.2-3.9,1.7-5.8.1-.4-.3-1-.4-1.5,0-.3-.1-.5-.2-.8.2,0,.5,0,.7,0,.5-.2,1-.5,1.5-.8-.3-.4-.6-.8-.9-1.1-.1-.2-.3-.3-.4-.4-.2-.2-.4-.4-.6-.6.2-.1.4-.3.6-.4,1.3-.2,1.7-1.4,2.4-2.3.2-.3.4-.6.5-1,.1-.4.3-.8.2-1.1-.7-1.5-.7-1.5.8-2,.2,0,.3-.4.4-.6.4-.5.7-1.1,1.1-1.5.6-.6,1.3-1,1.9-1.5.2-.1.4-.5.4-.5-.2-.2-.5-.4-.7-.5,0,0-.3,0-.3,0-.3-.2-.6-.4-.9-.6,0,0,0-.3,0-.3.3,0,.7,0,.9.2,1.5.7,2,.5,2.5-1.1,0-.3.1-.6.2-.8.2-.3.5-.6.8-.9.1.3.3.7.4,1,0,.1.1.3.2.4.2-.2.5-.4.5-.5,0-.6,0-1,.7-1.2,0,0,.1,0,.2-.2.5-1,.5-1,1.8-1.6.2,0,.4-.3.4-.4-.2-1,.6-1,1.2-1.3,1.6-.8,3.4-1.3,4.7-2.6.2-.2.7-.4,1-.4.6,0,1.2,0,1.2-.8,0-.1.3-.3.4-.3,1.4,0,2.9-.6,4.3.4.6.4.9.7.7,1.6-.2,1,0,2.2.1,3.3,0,1.1.1,2.2.2,3.2,0,.6.2,1.3.2,1.9,0,.2,0,.4,0,.5-.8.6-.5,1.5-.4,2.3.2,1.8-1.4,4.1-3.2,4.2-.5,0-1,.1-1.5.2-.1,0-.2.2-.3.3-.1.4,0,.9-.3,1.3-.3.7-.4,1.3-1.3,1.9-.7.4-1.2,1.4-2.1,1.7,0,0-.1.3-.1.3,0,0,.2.1.4.2.3.2.7.4,1,.6-.3,0-.7,0-1,.1-.1,0-.3,0-.4.1-.8,1.1-1.6,2.2-2.4,3.3,0,0-.1.1-.1.2,0,.3,0,.7,0,1,.2-.3.4-.5.6-.8.3-.4.7-.7,1-1.1,0,.4,0,.9-.2,1.3-.3.9-.8,1.1-1.6.9,0,0-.3,0-.3.2-.1.6-.4,1.3-.2,1.8.2.8.7,1.4,0,2.3-.6.7-.4,2-.6,3,0,.4-.1.8-.3,1.2-.3.7-.3.6.3.8.2,0,.4.5.4.6-.6.8-.3,1.7-.3,2.6,0,1.9,1.2,3.4,1.1,5.3,0,.2,0,.5,0,.6,1.8.9,1.4,3.2,2.7,4.5.8.9,1,2.4,1.6,3.5.3.5.9.8,1.3,1.3.6.7,1.2,1.5,1.7,2.3.1.2.2.6.4.6,1.5.3,1.9,1.8,2.9,2.6.1.1.2.3.3.3.6.4,1,.8.7,1.5-.6,1.2-.3,2.4-.1,3.5.4,1.8-.5,3.3-.6,5,0,.3,0,.6-.1.9,0,.4.3,1.3-.7.5,0,0-.4,0-.5.2-.3.8-.8.8-1.7.9-2,.1-3.5-1-5.3-1.3-1.6-.3-3.1-1.3-4.9-.9-.7.2-1.6-.3-2.4-.5-.1,0-.3-.5-.3-.5.5-.5.1-.8-.3-1-.3,0-.7,0-1.1,0-.2,0-.4,0-.5-.1-.6-1.1-1.2-2.2-1.9-3.3-.1-.2-.4-.3-.6-.4,0,.2,0,.5,0,.7,0,.5.1.9.2,1.4-.4-.4-.9-.7-1-1.2-.5-2-1.9-3.4-3-4.9-.5-.7-1.4-1-1.8-1.7-.5-.7-.6-1.7-.9-2.5,0-.2,0-.5-.1-.7-.8-1.1-1.6-2.1-1.8-3.5-.1-.8-.9-1.6-1.3-2.4-.3-.6-.6-1.2-.5-1.8.3-1.1,0-1.5-1-2-.4-.2-.9-.9-.9-1.2,0-.5.7-.9,1.1-1.3.2-.2.5-.2.7-.4.2-.2.3-.5.5-.7-.3,0-.5,0-.8.1-.2,0-.4.2-.6.4,0-.3-.2-.6-.2-.8,0-.4,0-.9,0-1.3,0-.7,0-1.5,1.1-.8.1,0,.4,0,.6-.2-.2-.7.8-1.6-.2-2.3-.2-.2-.2-.8-.1-1.2.3-1.2,1.3-2.3.4-3.7,0-.1.2-.5.4-.8M34.2,411.5c-.2-.3-.4-.5-.6-.8-.1.3-.4.5-.3.7,0,.2.4.4.7.5.4.2.7.2,1.1.3-.2-.2-.5-.4-.9-.8M44,423.9c.4,0,.7.2,1.1.3,0-.1,0-.4,0-.4-.3,0-.6,0-1.1,0M46.7,424.7c-.2,0-.4.2-.6.3.2.1.5.3.7.4,0-.2,0-.5-.1-.7M51.8,422.5c-.1-.3-.2-.5-.3-.8,0,.3-.1.5-.1.8,0,.2,0,.4,0,.5.1-.1.3-.2.4-.5M35.7,414.9c-.3,0-.5,0-.8,0,.2.2.3.5.5.5.2,0,.9.4.3-.4M59.3,357.1c-.3,0-.6,0-.9,0,0,0,0,.2,0,.2.3,0,.6,0,.9-.2M52.3,418c.2,0,.3.1.5.2,0-.2,0-.4.1-.6-.2,0-.3.1-.6.3M38.2,413.6c-.2,0-.3,0-.5.1,0,.2.1.3.2.5,0-.1.2-.2.3-.6M51.1,426.9c.2,0,.4.2.6.3,0-.1,0-.4,0-.4-.1,0-.3,0-.6,0Z"/>
    <path d="M57.9,340.1c-.1,0-.2,0-.2,0-1.9.1-3-.9-3.9-2.4-.5-.8-1.2-1.7-2-1.9-1.8-.4-2.7-2.1-4.2-2.9-.7-.4-1.3-1.1-1.9-1.7-.9-1-1.7-2.1-2.5-3.2-.4-.5-.6-1.2-.9-1.7-.2-.4-.2-.8-.4-1.1-.7-1.3-1.5-2.6-2.2-3.9-.6-1-1.3-2-1.8-3.1-.2-.4,0-1,0-1.4,0-.3,0-.7-.1-.9-.5-.5-1.1-1-1.6-1.4-.1-.1-.2-.3-.3-.4.2,0,.4-.3.6-.2.8.3,1.5.7,2.3,1.1.1,0,.3.2.3.2.1,0,.3-.2.3-.3-.1-.6-.2-1.2-.4-1.7,0,0-.3,0-.4,0-.3,0-.6.2-1,.2,0,0-.1-.3,0-.4.2-.3.5-.6.8-.7.6-.1,1.3,0,.4-.8,0,0,.2-.5.3-.5.6,0,1.4-.2,1.8,0,1,.8,2,.5,3.1.2.4-.1,1.1,0,1.4.2.5.4.6.2.7-.2.2-.7.4-.8,1-.3.6.6,1.3.2,1.8-.2.5-.4.9-.6,1.2.2.2.5.6.5,1.1.2.6-.4,1.4-.7,2.1-1,.2,0,.5-.2.7-.2,0,.2,0,.5-.1.7-.2.5-.6,1-.7,1.6,0,.4,0,.9.2,1.2.3.5,1,.9,1.2,1.5.6,2.1,1.9,3.7,3.3,5.2.3.3.6.8.9,1.1,1.4,1.4,3,2.3,4.7,3.2,1.6.9,3.1,1.9,3.3,4.2.2,1.9-.1,3.5-.7,5.2-.4,1.1-.2,2.4-.3,3.6,0,.2,0,.3,0,.5,0,.2-.2.6-.3.6-1.6,0-1,2.6-2.8,2.2-.3,0-.6.1-.9.2.2.2.5.4.7.6.2.2.3.3.5.5-.2,0-.4,0-.6,0-1.6,0-2.7-1.1-4.3-1.6M43.8,313.5c0-.2-.1-.4-.2-.6,0,.2-.3.3-.3.5,0,.2.3.2.4.1M43.7,322.3c0-.2,0-.3-.1-.5-.2,0-.3.1-.5.2.1,0,.2.2.6.3Z"/>
    <path d="M40.1,246.1c0-2.1.2-2.4,1.9-2.9.3,0,.6.1.9.2.1,0,.2.2.3.3,0-.2.1-.3.1-.5,0-.2,0-.5,0-.6,1.1-.8,1.3-1.6.8-2.9,0-.2.2-.7.5-1,.4-.5,1.1-.9.4-1.7,0,0,.1-.5.3-.7,0-.1.4,0,.5,0,0,.2,0,.4,0,.6,0,.2,0,.4,0,.6.2,0,.5-.1.7-.3.6-.6,1.2-1.3,1.7-2,.4-.6.7-1.1,1.5-.9,0,0,.4-.3.4-.3-.3-.7-.6-1.3-1-1.9,0-.2-.1-.4-.2-.6.2,0,.5,0,.6,0,1.2,1.2,2.7.9,4.1.8.3,0,.7.2,1.1.2.2,0,.4-.2.6-.3-.1-.1-.3-.3-.4-.4-.2-.2-.5-.4-.7-.6.2-.2.4-.5.6-.7.7-.6,1.4-1.3,2.2-1.7.3-.1.9.4,1.3.6.2.1.4.4.7.6,0-.4.2-.7.2-1.1,0-.2-.1-.5-.1-.8,0-.2.2-.4.3-.7.1.2.3.4.3.6,0,.8.3,1,1.1.6.3-.2.8,0,1.2,0,.6,0,1.2,0,1.8-.5.4-.4.9-.4,1.2.4.3.8.7,1.7,1.2,2.4.4.5.8.9.4,1.7-.3.5-.1,1.3,0,2,.2,1.6.4,3.1.6,4.7,0,.2,0,.4-.2.6-.2.6-.8,1.3-.6,1.8.8,2.2-1.4,1.6-2.1,2.2-.6.5-1.6.7-2.4,1-1.4.6-2.7,1.2-3.3,2.7-.2.4-.2.8-.5,1.1-1,.9-1.5,2-2.1,3.2-.3.6-.9,1-1.1,1.6-.5,1.3-1.4,1.9-2.7,2-1,0-1.9.3-2.9.4-.2,0-.5,0-.7,0-.7,0-1.4-.2-2.1-.2-.8,0-1.6.1-2.2-.7-.8-1-1.9-.2-2.9-.2-.5,0-1.4.3-1.5,0-.5-1-1.2-.8-1.9-.5,0-.2-.2-.6-.1-.7.1-.2.5-.3.7-.5.2-.2.3-.4.4-.6-.2,0-.4-.1-.6-.3-.3-.3-.6-.5-.7-.9-.2-.4-.2-.9-.3-1.4,0-.1-.2-.3-.2-.4.9-1.3,1.1-3.1,2.7-3.8.3.3.6.6.8.9,0,0,.2-.2.1-.3-.3-.2-.6-.5-.9-.7M39.6,248.1c.1.9.8.5,1.2.6.1,0,.2-.2.4-.4-.4-.1-.8-.2-1.1-.3-.1,0-.2,0-.5.1M52.4,233.5c0,.2-.1.3-.2.5.4,0,.8,0,1.2,0,.1,0,.2-.2.3-.3-.1-.1-.2-.3-.4-.4-.2,0-.5,0-.9.2M38.9,250.9c0,.2.1.4.2.6,0-.2.3-.4.3-.5-.1-.3-.4-.5-.5-.7,0,.2,0,.3,0,.6Z"/>
    <path d="M78.5,339.2c.3.2.5.4.7.6-.2.1-.4.4-.6.4-1,0-2,.1-3,0-.5,0-1.2.8-1.5-.2,0,0,.9-.6,1.4-.7.9-.1,1.9,0,3,0Z"/>
    <path d="M142,19.7c-.2.3-.4.5-.6.6-.1-.3-.4-.6-.4-.9.2-.6.5-1.2.8-1.7,0-.1.6,0,1,0,0,.2-.1.5-.2.7-.2.4-.4.7-.6,1.2Z"/>
    <path d="M41,241.7c.2-.4.4-.7.7-1,0,0,.5.2.7.4.6.6.7-.2.9-.4.1,0,.2-.2.3-.4,0,.2.2.3.2.5-.2.6,0,1.6-1.3,1-.4-.2-.9,0-1.5,0Z"/>
    <path d="M144.8,68.7c.2.4.3.8.2,1.2,0,.3-.4.6-.6.9,0,0-.3,0-.3-.1,0-.4-.2-.8,0-1.1,0-.3.4-.6.7-.9Z"/>
    <path d="M76.4,448.6c.1-.7.4-1.4.6-2.1,0,0,.3-.1.3,0,.1.2.3.5.2.6-.3.6-.7,1.1-1.2,1.6Z"/>
    <path d="M73.1,338.6c-.4,0-.7,0-1-.2-.2-.1-.4-.4-.5-.6.3,0,.7-.3.9-.2.3.2.5.6.7,1Z"/>
    <path d="M78.1,291.2c0,.4.1.9.2,1.4,0,0-.3.2-.3.2-.2-.3-.4-.7-.5-1,0,0,.4-.3.7-.5Z"/>
    <path d="M141.3,15.5c.3-.2.4-1,.9-.4.1.2,0,.4.1.6-.3,0-.7,0-1-.3Z"/>
    <path d="M103.6,384.6c0,.2.2.3.2.4,0,.4-.2.7-.3,1-.1,0-.4-.2-.4-.3.1-.4.3-.8.5-1.1Z"/>
    <path d="M82.3,258.9c.2-.2.5-.4.8-.6,0,.2.2.5.3.7-.4,0-.7,0-1.1,0Z"/>
    <path d="M38,195.3c.3.3.4.6.6,1-.2,0-.3.1-.5.2,0-.4-.1-.7-.2-1.1Z"/>
    <path d="M82.1,293.9c.1.1.3.2.3.3,0,.3,0,.6,0,.9-.2-.1-.4-.3-.6-.4-.2-.3-.6-.8.3-.8Z"/>
    <path d="M96,333c-.3.1-.6.2-.8.2,0-.2,0-.5.1-.6.2-.1.5-.2.7-.2,0,.2,0,.4,0,.6Z"/>
    <path d="M27.2,400.1c.2-.1.4-.2.5-.3.3-.1.5-.2.8-.4-.2.3-.3.6-.5.8-.2.1-.6,0-.8-.1Z"/>
    <path d="M3.1,178.6c0-.1,0-.2,0-.3-.1-.3-.3-.6-.5-1,0,0,.1,0,.2,0,.3.4.7.7,1,1.1-.2,0-.4.2-.6.2Z"/>
    <path d="M52.3,231.1c.3,0,.6,0,.8,0,.1,0,.2.2.3.3-.1,0-.3.1-.4.1-.3,0-.6,0-.9,0,0-.2,0-.3.2-.5Z"/>
    <path d="M43.3,466.2c.3.2.5.4.7.6-.2.1-.4.2-.5.3,0-.3-.2-.6-.1-.9Z"/>
    <path d="M38.2,244.2c-.1.3-.4.6-.7.9,0,0-.2,0-.3-.1.3-.3.5-.5.9-.8Z"/>
    <path d="M38.2,444.1c.2.2.3.5.3.7-.3,0-.6-.2-.9-.2.2-.2.3-.3.6-.5Z"/>
    <path d="M12.1,196.1c.3,0,.5.1.8.2,0,.1-.2.3-.2.3-.3,0-.6,0-1-.2.1-.1.2-.2.4-.4Z"/>
    <path d="M50.4,310.1c-.2-.2-.2-.4-.2-.6.3,0,.6.1.9.2-.2.1-.3.3-.6.4Z"/>
    <path d="M115.1,198.2c0-.3.2-.6.3-.8.1.2.3.4.3.6,0,.2-.4.2-.6.3Z"/>
    <path d="M64.6,226.8c-.3,0-.6-.1-.9-.2,0-.1.1-.3.2-.4.2.2.5.4.7.6Z"/>
    <path d="M143.2,77.9c-.2-.2-.4-.4-.5-.7,0,0,.3-.2.4-.3,0,.3.1.6.1.9Z"/>
    <path d="M72,232.6c.3-.1.6-.2.9-.2,0,.2-.1.5-.2.5-.2,0-.5-.1-.7-.3Z"/>
    <path d="M86.9,311.5c.2,0,.5,0,.7,0,0,.2-.1.3-.2.5-.2-.1-.3-.2-.5-.5Z"/>
    <path d="M52.4,430.6c-.2.2-.5.3-.8.4,0-.1,0-.4,0-.4.2,0,.5,0,.8,0Z"/>
    <path d="M106.4,421.7c.2-.1.4-.2.6-.2,0,.3-.2.5-.3.8-.1-.2-.3-.4-.3-.6Z"/>
    <path d="M4.2,192.7c-.2.2-.4.3-.6.4,0-.1,0-.3,0-.4.2,0,.5,0,.7,0Z"/>
    <path d="M131.2,2.9c-.2,0-.4.2-.6,0-.1-.1-.1-.4-.2-.6.2.2.5.3.8.5Z"/>
    <path d="M4.3,198.6c.3,0,.6,0,.9,0,0,0,0,.2,0,.3-.3-.1-.6-.2-.8-.4Z"/>
    <path d="M74.5,448.3c0-.2,0-.4,0-.7,0,0,.2,0,.4,0,0,.2-.2.4-.4.7Z"/>
    <path d="M78.2,444.6c-.3,0-.6,0-.9,0,0,0,0-.2,0-.3.3.1.6.2.8.4Z"/>
    <path d="M2.9,171.9c-.2.2-.3.3-.4.4,0-.2-.2-.4-.1-.6,0-.2.3-.2.5-.3,0,.2,0,.3,0,.5Z"/>
    <path d="M87.3,301.9c-.1.2-.3.3-.5.4,0-.1-.1-.2-.2-.4.2,0,.4,0,.6,0Z"/>
    <path d="M73.1,230.1c-.1-.1-.2-.3-.3-.4.2,0,.4,0,.6-.1,0,.2-.1.3-.3.5Z"/>
    <path d="M82,439.2c-.2-.1-.3-.3-.4-.5.1,0,.2-.1.4-.2,0,.2,0,.4,0,.6Z"/>
    <path d="M50.7,386.1c.1.2.2.4.3.6,0,0-.2.1-.3.2,0-.3,0-.5,0-.8Z"/>
    <path d="M67.8,475.1c.1.1.2.3.3.4-.2,0-.4,0-.6.1,0-.2.1-.3.3-.5Z"/>
    <path d="M94.7,459.4c0,0,0,0,0-.1.1-.3.2-.5.3-.8,0,0,.1.1.1.1-.1.3-.2.5-.4.8Z"/>
    <path d="M3.5,196.9c0,.2,0,.3,0,.5-.2,0-.3-.1-.5-.2.1,0,.2-.2.5-.3Z"/>
    <path d="M55.5,449c-.2-.2-.3-.4-.4-.6.1,0,.4,0,.4,0,0,.1,0,.3,0,.5Z"/>
    <path d="M1.9,50.4c-.2,0-.4-.2-.5-.3.2,0,.3-.1.5-.2,0,.2,0,.3,0,.5Z"/>
    <path d="M130.1,352.1c-.2,0-.4,0-.5,0,0-.1,0-.3,0-.3.2,0,.4,0,.6,0,0,0,0,0,0,0,0,0,0,0-.1.1Z"/>
    <path d="M82.8,254.4c.2-.1.3-.2.4-.2l-.2.6c0-.1-.2-.2-.2-.4Z"/>
    <path d="M67,94.5c0-.4,0-.6.1-.9.1.2.3.4.4.5.6.8,1.2.1,1.8-.1.7-.3,1.4-.3,2.1.2.1.1.2.3.3.5-.2,0-.3.2-.5.2-1.1.2-2.1.4-3.2.4-.3,0-.6-.5-1-.8Z"/>
    <path d="M54.6,168.8c-.2-.5-.4-.9-.4-1.3,0-.2.2-.5.3-.8.2.2.6.5.6.7,0,1.3-.3,2.5-.4,3.8,0,.1-.2.3-.2.4,0-.1-.2-.3-.2-.4.1-.8.3-1.5.5-2.4Z"/>
    <path d="M55.1,163.9c0,.5-.1.8-.2,1.2,0,.3-.3.5-.4.7,0-.2-.2-.4-.2-.6,0-.5,0-.9,0-1.4,0-.3.2-.7.2-1,.2.4.5.7.7,1.2Z"/>
    <path d="M63.6,95.5c.7-.3,1.4-.5,2.1-.6.1,0,.3,0,.4.2,0,.1-.1.3-.2.3-.7.5-1.5.4-2.3.2Z"/>
    <path d="M57.8,96.4c-.1-.3-.2-.5-.3-.8.3,0,.6,0,.8,0,.2,0,.3.4.4.6-.3,0-.6.2-1,.2Z"/>
    <path d="M89.7,28.8c.7.4.7,1.2,0,1.5,0,0-.3,0-.3-.1,0-.4,0-.9.2-1.4Z"/>
    <path d="M78.1,61c-.2.2-.3.3-.3.4,0-.3,0-.7,0-1,0-.1.4-.2.5-.3,0,.3,0,.5-.2.9Z"/>
    <path d="M54.1,160.3c.2-.2.5-.3.7-.3,0,.4-.1.8-.2,1.3-.2-.3-.4-.5-.5-.9Z"/>
    <path d="M87.8,82.4c.1.3.2.5.2.7,0,.2.1.4.2.6-.2-.1-.6-.3-.7-.5,0-.3.1-.6.2-.9Z"/>
    <path d="M83.4,49c.2.3.4.6.5.9,0,0-.3.2-.4.3,0-.4-.1-.7-.1-1.2Z"/>
    <path d="M74.3,125.2c-.3.5-.5.8-.5,0,0-.3,0-.6,0-.9.2.3.4.5.5.9Z"/>
    <path d="M49.5,176.6c0,.4.1.8.2,1.2,0,0-.2.1-.3.1,0,0-.2-.1-.2-.2,0-.4.1-.7.3-1.1Z"/>
    <path d="M69.8,108c0,.3,0,.7,0,1.1,0,0-.2,0-.2,0,0-.3,0-.7.2-1.1Z"/>
    <path d="M64.4,47.6c0,.4-.1.8-.2,1.2,0,0,0,.1-.1.2,0,0-.1-.2-.1-.3,0-.4.2-.7.5-1.1Z"/>
    <path d="M70.2,131.7c.2.1.4.3.5.4-.2.1-.4.2-.6.3,0-.2,0-.5,0-.8Z"/>
    <path d="M86.1,39.6c0-.4,0-.8,0-1.1.1,0,.2,0,.3,0-.1.4-.2.7-.4,1Z"/>
    <path d="M85.1,91.7c-.1-.3-.1-.6-.1-.9,0,0,.2,0,.2,0,0,.3,0,.6-.1.9Z"/>
    <path d="M72.7,97.4c0,.2.1.5.1.8,0,0-.2,0-.3,0,0-.3,0-.5.2-.9Z"/>
    <path d="M82.1,52.4c.3,0,.4,0,.6.1,0,.2-.2.3-.3.5-.1-.2-.3-.4-.4-.6Z"/>
    <path d="M78.8,75.3c.2-.1.4-.2.5-.3,0,.2,0,.4-.1.6-.2,0-.3-.1-.4-.3Z"/>
    <path d="M71.2,92.4c0-.2,0-.4,0-.5l.6.6c-.2,0-.3,0-.5,0Z"/>
    <path d="M50.6,99.9c0,.2-.2.4-.3.5,0-.2-.1-.3-.2-.5.2,0,.3,0,.5,0Z"/>
    <path d="M88.8,78c-.2-.2-.3-.4-.4-.6.1,0,.4,0,.4,0,0,.1,0,.3,0,.5Z"/>
    <path d="M85,74.9c-.2,0-.4,0-.6,0,0-.1,0-.2,0-.3.2,0,.4.1.6.2Z"/>
  </g>
</svg>