<?xml version="1.0" encoding="UTF-8"?>
<svg id="Layer_1" xmlns="http://www.w3.org/2000/svg" version="1.1" viewBox="0 0 401 189.1">
  <!-- Generator: Adobe Illustrator 29.3.1, SVG Export Plug-In . SVG Version: 2.1.0 Build 151)  -->
  <g id="n6MnyG">
    <g>
      <path d="M297.2,9.5c.4,0,.8,0,1.1-.6l-1.1.6ZM296,9.4c-.1,0-1.4,1.3-1.8,1.9l3.1-1.7c-.5,0-.9-.3-1.3-.1ZM294.1,11.2l-1.8,1,1.7-.2c-.1-.2-.2-.4,0-.7,0,0,0,0,.2-.2ZM302.4,13.9l-1.9.4c-.2,1.7.9,3.9-.8,5.2-5.1-2.4,1.4-2.5-.5-6,4.7-.8,5.9-5.1.6-1.9l-5.8.6c.5.6,2.7.4,2.6,1.4-2.7.8-2.8-.7-4.5-1.1,0,.5.6,1.2.6,1.5,0,.2-2.1.7-1.1,2.8l-2-1.8-1.1,6.1,1.7.5-.3,2.5c-1.1.1-.5-1.3-1.4-2.1-.8-.7-8.5-6-9-6.1-1.3-.2-2.7.3-4,0l-1.8-4.1c-2.7,1.6,1.7,2.2.4,3.6-1.2,1.4-1.2-2.2-2.6-1.1l-.3,1.8c-8.1.2-11.5,3.4-14.8,9.8-.3.5-1.2.5-1.2.9,0,.5.7,1.2.6,1.8-.9,7.1.2,6.3,2.9,12.2.3.7,0,2.3.3,2.5.1.1,1.7,0,2.5.3,1.9.8,4,2.4,6,3.3,2.9,1.3,9,2.7,10.7,4.9,1.2,1.6,1.8,4.9.9,6.6-.2.3-1,.5-1.3.9-.4.5-.2,1.4-.8,1.9-1.6,1.4-5,1-7,.5.6-3.3-2-2.1-2.8-3.3-.7-1.1-.4-3.6-1.3-4.2l-11.7-.5c-.7,8.2,4.7,12.3,10.4,17.2,9,.9,19,1.3,24.8-6.5,2.2-3,2.2-7.6,5.5-9l-2.6-.5c.7-4-.8-8-3.9-10.9-1.8-1.7-4.9-2.2-3.7-4.7-3.5,1.2-8.3-.9-11.6-2.4-2.5-1.2-5.3-2.2-5.4-5.2l1.3.3.2-1.7,1.5-.5-1.3-3.3,1.3,1.2c1.8.3,1.5-1.8,2.3-1.9,3.8-.7,5.9,3.5,6.9,6.2l-1.3.6,1.7,1.5,1.2-1.9,2.4,2.3,2.5-.6-1.1,3.7,1.9.3-1.2,2.8,2.5-.7-.5,3.1h1.6c1.4-.7,0-1.9.4-2.4.2-.3,1.3-.3,1.7-1.2.8-1.9-.1-4.5,0-5.3.2-1,2.1-.9,2.4-2.6.3-2.2-2.4-.8-.8-3.3l-1.9,1.9,1.1-4.9.7,1.8c1.7.4,1-.8,1.7-1.2,3.1-1.8,2.6,2.3,5.1,3.4l.4-1.7,1.8-.2-1-1.8-.6,1.2c-2.9-1-1.5-1.4-1.8-2.6,0-.4-2-.5-1.3-2.2l3.3,2.3v-4.2c-.1,0,1.8,1.2,1.8,1.2l.6-2.2-1.9-.2,1.1-4.9ZM290.1,12.5c.6,0,1.4-.2,1.9,0l.3-.2-2.2.2Z"/>
      <g>
        <path d="M398,150.1c.9.8-.6,10-.3,11.9s1.4.8,1.4,1.2c0,1-1.6,3.5-1.3,5.1-2.1,1.1-4.7,1.3-6.9.4l1.4,2.4c-.8,0-1.8-.2-2.5.2-.4.2.3,1.3-.7,1.1l.5-3.7c-2.2-.1-11.1.8-12.3-.5l1.4-18.4,19.4.3Z"/>
        <path d="M60.6,86.7l-2.7-1.5c1.1-2.3-1.4-4.9.8-6.9,1.7,2.8.2,5.5,1.9,8.5Z"/>
        <path d="M139.1,66.9l-3.1,1.4,1.2-1.6-1.4-3.3c2.7-.6,2.6,1.8,3.3,3.5Z"/>
        <g>
          <path d="M377.8,124.3c-.3-24.2-10.3-39.1-37.2-41.1l-.8-1.8-.3,1.8-28.7-.6-.8.9-3.6,84.3c5.8,1.1,11.8,0,17.7,0,5.7,0,11.7.6,17.5.4,1.7,0,3.5-1,4.9-1,2.2.1,3.3,2.1,3.5,2.2.8,0,5.6-1.2,4.3-2-.3-.2-1.1.5-.9-.6,5.2-3.9,10.8-8.1,15-13,1.6-1.8,2.1-4.2,4.7-5.3l4.2-17.8,1.1,1.2,2.2-.7v-1.2c-4.6,1.5-2.8-3.2-2.8-5.7ZM349,148.4c-1.2,1-5.9,3.5-7.3,3.6l-14.2.5,1.7-52.4,9.3-.3c23.6-.8,23.7,37.6,10.4,48.7Z"/>
          <path d="M161.4,130.5c-.2.8-3.4,1-4.1,1-6.4,0-13-1-19.3,0l-12-.7c0,2.9.3,5.9.3,8.8s-.3,4.6-.4,6.7,0,3,.1,4.5l39.4.5-.4,15.3-8.1.9,1.9.6c1.2,1.6-1.4,4.8-2.7,4.9-2.2.2.7-2.5.7-2.8.1-.9-.8-2.2-.6-3.3-1,0-1.9.7-2.9.7-5.3,0-11.4-.7-16.8-.7-9.7,0-19.3.7-29,.4-4.1-.6-1.9-6.1-1.9-8.7-.1-16.2,0-32.5-.4-48.7-.1-6.7-1.1-14-.8-20.1s-.8-7.7.3-8.5c3.9-.5,8-.7,12-.7,6.1,0,16.3,1.5,22,.5s2.3-1.3,3.1-1.4.8,1.4,4,1.6c2.7.2,17.3-.3,18.3.3l.7,1.2-.2,14.9-26.8.3-1.2,1.3c-1.9-3.3-7.8-1-11.3-1.4,2.9,2.9.2,2.7,0,3.9-.3,2.9,1.3,5.2,1.3,6.1s-2.5,6.4-.8,7.4l34.9.3.5,14.9Z"/>
          <path d="M240.2,80l-1.3-.6-.5,3.1,3.9.8-31.1,34.6,31.3,48.8c-2.2,2.2-5.9.6-8.6.6-4.3,0-8.9.6-13,0-2.4-2.1-4.2-7.4-6.4-9.2s-1.8-.2-2-.3c-.3-.2-1.1-4.2-2.2-6.2-3.5-6.3-8.3-13-12.5-18.8-1,1.5-4,3.4-4.7,4.7-1.3,2.3,0,10.7-.1,14.1s-.5,2.5-.5,3.7c-.1,4,.7,8-.6,11.9l-.6.5c-3-1.1-5.2.2-6.4,2.8l-1.4-2.4-.6,1.2-.4-1.8c-3.6.6-7.6-1.2-9.6,2.1l-.7-1.8c0,2-1.7,1.6-3.2,1.3,1.3,5-3.4,4.5-4.5.2,3.5-.3,2.9-2.8,7-1.7,2.1-1.3.7-12,.8-14.7.1-10.5.8-21.2.9-31.6.1-13.1-.7-26.2,0-39.3l19.7.5v31.1c0,0,26.8-30.4,26.8-30.4l17-.3c1.3-2.2,1.4-4,2.7-6.2l.8,3.6Z"/>
          <path d="M252.6,82.6l52.2,1c-.7,4.8-.1,9.7-.8,14.6s-.2,1.2-.9,1.4l-37-.3-.8,17.6c1.3.3,1.7-1.3,2.7-1.2s1.6,1.3,2.7,1.1l28.7.2c-.4,2.4.6,5.4.6,7.6s-.8,1.2-.9,1.9c-.1,2.8.6,5.5-.4,8.2l-1.3-1.8-1.6,1.3-.4-1.8-1.2,1.9h-.9c-.7-.2-.7-1.6-1.5-1.8-4.2-.8-13.9-.6-18.6-.6-2.9,0-5.8.3-8.7.3l-.6,19.5c1.2-.1,2.4.4,3.6.4,5.8.3,18.3.6,23.8,0,1.5-.2.3-1.6,1.8-1.3l-.3,1.2h1.9c0,0-1.4-4.9-1.4-4.9l.7,1.8,2.5-1.9c-1,4.2,3.2,1.9,2.6,1.1-3,.2-.7-2,.9-1.9s.2,3.4-.1,3.9c-.7,1-3.1.4-3.2,1.7h4.1s1,.8,1,.8v15.4c-1.1.2-2.5-.2-3.5.1s0,1.5-1,1.3l-.4-1.8h-52.8s0-27.4,0-27.4c-1.4.8-4.6.9-4.6-1.4s.9-.3,1.1-.5c.4-.8-.3-1.8.8-1.7-.3,1.1,2.9,2.8,3.3,2.3,0-2.5-.4-5.1-.3-7.6.2-7.4,1.1-14.6,1.2-21.9s.5-5-1.5-4.6v-.6c1.6.5,1.7-3.9,1.7-5.3.2-5.2,0-10.5.1-15.7l1.2-1.7c.9.8,3.7,1.7,4.5,1.1s-1.1-2.4.9-3.1l-.2,3Z"/>
          <g>
            <path d="M97.7,99.8c.2-2.3,4.5-2.2,3.6-7.4l-1.3-.3c.7,1.1-3.6,2.1-3.8,1.9l1.8-3.4c-1.2-1.6-1.9,0-3.2.4l-.3-8.5,1.4,3,1.2-3.7,1.6.5.2-1.8-2.9,1.3c-.3-1.1-2.7-1.7-3.9-1.7-5.6-.3-11.8,0-17.4,0l-.4-1.9-1.9,1,1.4,1.1c-.6,3.5,1.1,9.6.4,12.7,0,.1-3.4,1.7,0,1.3l1,28-.9,1.6c-4.1-2.2-7.2-2.9-6.4-8.3l-1.2,2.5c-.5.6-3.9-6-4.3-6.7-1.5-3.5-.7-2.6-3.3-6.3-4-5.5.8-2.9,1.2-3.2l-.7-2.7c-3,.2-.6-1.4-2.4-2.7l-1.4,1.2c-3.1,0-2.8-6.7-3.1-7-.2-.2-1.4,0-2.5-1-2.1-2.2-3.8-9.9-7.2-10.3-1.7-.3-3.9.5-5.7,0-1.2-.3-1.9-1.9-2.8-2.2-1.9-.7.5,2.3-1.2,2.5-1.3.1-.7-2.4-.4-3-2.3-.5-.8,1.9-1.2,2.5l-5.4.2c-1-.2-1-6.8-2.5-4.8l-1,7.9-2.2-.5-1.2,3.1-1.6-1.2c.5,2.8,1.4,3.2.2,6.1.5-.3,1.8-.6,1.9-1.1.2-1-1-2.9.8-2.7,2.4,1.2,1.1,2.2,1.2,3.3,0,.2,2,.4,1.3,2.1h-2.6c.7,1.1.6,3.5-.8,3.6-.5,0-1.2-1.5-2.3-1,.2,1.5.2,2.9-1.1,4,1.1,1.3,2.3,1.3,3.8.8l.9,2.9h2.5s1.3,20.6,1.3,20.6c-3.1-.3-4,1.1-.5,1.6l.3,12.7-2.4,1.1.6-1.8-3.2.7c.2-3.7-2.9-1.2-1.2,1.3l-1.9.4-2-3.6c.9-1.4,1.8-.9,3.2-.4l-.7-1.8c.5-.4,2.8,1.7,3.9.5.7-.8-1.3-2.3-2.3-1.2l-.4-1.7-2.5,2.5c-.4-1.1-.3-2.9-2-2.4l-.2,3.1-2.3.3c.3,3.4-2.7.5-2.6-1.4l1,1.2.9-1.5c-2.7-1.7-2.5-3.5-2.8-6.3-1.4.2-2.2,4.6-1.8,4.9l1.9.6-2.9.7c.9,3.9-1.5,1.5-1.6-1.2l-1.6.6-.3-1.1c-4.2,4,2.1,2.8,3.1,4.1.4,1.7-1,2.9,1.7,3v.6c-2.1.1-1.3,3.5-3,5,3.2-.1,6-1,6.6,2.8,3.6-2.2,5.6-2.3,9.8-1.5.5.1.5,1.1.9,1.1,1.3,0,3.9-.5,5.2,1.1.7.9.2,5.1-1.5,5.2,2.8.7,1.4,3.8,1.5,6,.3,3.1.9,6.3.9,9.4h20c.5-7.9-1.6-17.1-.9-24.7.1-1.6,1.2-2.9,1.2-4.3,0-1.1-1.3-.5-1.5-1.7-.5-3.2.2-6.7.2-9.8,0-3.4-2.3-4.5,3.8-5l4.8,8.4c-1.3.6-3.5.1-3.1,2.2,2.3.6,4.7,2.9,4.1,5.4,1.9.5.7-2.3,2.8-.7.8.6.4,1.6.5,2.4l-1-1.8-2.1,3.1c.3-2.7-1-2.9-3.3-3.5.3,3.8-2,1.4-3.2.1-.6,1.9,0,3.3.1,5.1,0,.6-.6,1.4-.6,1.9,0,.6,2.3.5,2,1.8h-1.3c0,0,.2,4.6.2,4.6l2.8-1.9c.4,0,.9,3.7,2,1.8.5-.8,2.1-3.5,2.1-4.1,0-2.6-3.4-5.1,1.1-5.2l-1.2,1.6,2,.8c-.8-1.4.9-2.4,1.5-3.7,1.4.6.4,1.9.6,2.3,0,.2,2.6,2,3.1,3.5.2.7-.5,1.7-.4,1.9,0,.1,1.8.3,2.3,1.8.4,1.2-.4,2.4-.3,2.5.2.1,1.3-.4,2,.3.3.3,4.3,7.4,4.5,8,.5,1.4-.4,2.3-.3,3.7l2.6.2-1.8,4,2.2-1.9c.9,2.9,8-.6,9.4,1.8l-.9,1.6,2.1-1-.6-1.5,8.4.3-1.1,6.7h-1.9c-1.1-1,1.1-4.8-1.1-4.8-1.3.6-.4,1.8-.7,2.5-.4.8-1.3,1.4-1.7,2.6-.3,1.2.4,2.2.3,2.3-.3.2-2.6-.2-3.2,1,.5.8,4.5,0,4.5,1.1,0,1-1.9.9-2.5.4l.7,1.8-1.2.4c0,.3,6,1.7,2,3,3.2,1.2,1.1,1.5,1.7,3.9l2.8-2.8-1.3-1.5,3.2-.7-.6,1.8h1.9c0-2.5-.8-3-3-3.6l-.3,1.8h-1.9c0,.1,1.2-1.7,1.2-1.7l-1.4-1.8-1.3.4,1.2-2.5.7.9c1,.3.3-2.4,1.6-.7.7.9,1,1.9,1.1,3h1.9c0,0-.1-3.1-.1-3.1l2,1.8c0-3.9-3.4-5-.3-8.8l-3.3-1.7,1.1-.4-.5-1.1h2.5c0-.1.5-4.1.5-4.1l-1.5-63,2,1.2-1.2,2.5,1.9-.7v1.8c2.6,0,3.4-.6,3.8-3.1-1.9.2-3.5.2-3.3-2ZM71,126.6c5.6-.6,3.1,3.8,4.1,7.2l-4.1-7.2Z"/>
            <path d="M75.1,133.7l-4.1-7.2c5.6-.6,3.1,3.8,4.1,7.2Z"/>
          </g>
        </g>
        <g>
          <path d="M115.5,15.1l2.6-1-.7-1.8,3.9,1.7c-1.9-1.6-.4-1.9-.4-2.7,0-1.6-1.4-3.8.8-4.6l.7,2.4.6-1.8,1.4,3-2.4.8.3,2.3c1.2,1.4,6-.2,6.8.5s0,1.2.3,1.5c.6.6,1.7.6,2.2,1.3s.4,5.3,1.8,6.6l1.9-.7c.8,1.5-1.3,1.2-1.2,1.6.2,1.2,1.4,1.9,2.6,1.4l.6-2.8-1.3-.5,1.2-2.5-2-1.2,2.5-2.6-.7-2.4,1.6-.4c1.3,3-.1,5.9-.7,8.8l3.2.5-2.5,1c-.2.9,1,.4,1.3,1,.5.8.7,1.7.7,2.6l-1-1.2c-.9,1.1-2.2,2.5-2.1,4,.1,2,4.5,10.2,5.8,12.5s2.4,2,1.9,4.1c1.1,0,1.2-2.1,1.2-2.8,0-1.7-.2-12.4-.6-12.9s-1.4.4-1.2-1c2.3-.8,1-4.9,1-7.3s1.1-3.4-.3-6.5c-.3-.6-1.9-.3-1.3-3.2s8-2,2.4-4l.4,1.2-1.8.6-1.1-2.4,2,1.1c-.1-2.3,2.9-1.5,4.5-2l-.5,1.6c2.5.6.3,3.6,1.5,5.7,1.3,0,6.7-.5,7.1.8v53.2c-.1,0-11.2,0-11.2,0-2.7-.4-4.1-6.7-5.7-8.7h-2.2c0,.1,0-1.1,0-1.1l1.2-.8-6.5-13h-1.6c.4-3.3-2-5.9-2.9-8.9l-.2,31.7-11.3.4c-.9-.5-.9-1.2-1.1-2.1-1-6.4.1-13.2,0-19.5,0-2.9-1.4-5.2-.3-8.2l-2.5,3.4c2.1.5,1.2,2.1,1.4,3.9-1.1.2-.5-1.1-1.1-1.8-1-1.2-2.8,0-.4-3.6l-3.2,2.2v-4.5c-.1,0,2.4-.8,2.4-.8.5-2.2-2-1.3-1.4-3.8.1-.4,2.4-.9.5-4.1,1.3.8,1.7,1.1,3.2.5,0,2.5.4,5.1-1,7.3h1.9c0,0-.8-22.3-.8-22.3Z"/>
          <path d="M110.8,43.6l-1.5-.3c0-4.7,0-9.4-1.7-13.9l1.3.3v-1.2s-1.9-1.6-1.9-1.6l1.7-3c-.8-.6-4.4-1.1-4.6-1.7-.7-2,.9-5.1-.4-7.4-.2-.4-3.8-3.7-4.4-3.1,1,.9-.5,5.5-1.8,4.3l-.6-2.2,1.7-1.5-3.2-.5-1.2,2.5-.4-1.8c-2.4,1-6.4-.4-5-2.9-2.3,1.4-1.8-.1-2.1-.3-.6-.3-1.1-.2-1.8-.2v2.4c-3.3-.4-6.2,1-9.3,1.5-.8.1-2-.5-2.1-.4-.1,0-.3,1.3-.9,1.8-1.6,1.3-3.6.8-4.5,3.2h-.9s-.4-1.2-.4-1.2c-2.4,3.7-3.5,8.8-5.5,12.8-.7,1.4-3,2.1-2.6,4.8l1.9-.4c0,3.9-.8,7.9-.2,11.8.5,3.3,3.1,7.1,2.3,10.6h1.6c.4,4.5.9,2,2,2.9,1.2.8,2.9,3.5,4.6,4.8,9.6,7.3,24.4,7.1,32.2-2.3.7-.9,3.3-4.3,3.6-5,.9-2.1,0-6.1,3.3-6.8l-1.4-.9c-.2-.7,0-3,.5-3.5.2-.3,3.8-.7,1.5-1.6ZM95.9,47.4c-1.5,4.2-2.3,8.5-7.2,10.2-1.1.4-1.9-1.2-2.4.8-17.3-.4-18.2-39.3,1.1-35.4l.2,4.2.5-3.1c.9-.6,3.6,1.5,4,2.1.6.9.4,2.1.8,2.7,1,1.7,4,3.5,1.4,5.9l2,.9-1.2,3.1c2.2.1,1.9,7.5-.4,7.6l1.3.8Z"/>
          <path d="M373.7,71.7c-.4,0-2-.6-2.3-.9l-11.6-20.5c-6,4.2-3.2,14.4-4.4,20.9-2-.7-3.7,1.3-4.8,1.4s-.3-1.1-.8-1.2c-1.8-.4-4.6.7-6.6-.5l.6-17.6c-5.6,1.3-3.1-3.7.6-2.5-.6-1.8.5-4.3.3-5.7s-1.1-1.5-1.2-1.9,1.1-.2,1.4-1.2.1-5.5-.3-6-1.8,0-1.4-1.6c4.7,0,.9-8.1,2.7-11.3l-3.8-2.1,3.8-1.4c-3.3-2.8,2.9-3,5-3.2l.4,1.8c2.4-2,4.2-.2,7.1.3l1.1,4.9c.4-2.5.4-4.1-.8-6.3l3.2-1.1c0,1.8-.9,3.6-1.4,5.3s.3,1.3,0,2.1c-.5,1.5-2.1,1.8-2.3,2.3-.4,1.6-.4,7.3-.5,9.5,0,.7-1.2,1.2.5,1,4.3-5.1,10-10.2,14-15.4,1.2-1.5,2.5-3.2,2.4-5.2,2.6-.6.2,1.8.7,2.4l1.1-.5,1.1,1.1,2.2-1.1c.4-1.6-1.3-.5-1.8-.9s-.8-1.9-.7-2c.2-1.3,4.8,0,2.8-6.1-.5-1.5-2.6-2.4-.1-3l-.7-2.9c2.4-2.9,5.2-.1,8-2.5l1.1,2.4c2.2,0,3.5-2.3,5.8-1.1,1.2.7-1.4,4.6,2.7,4.2l-2.5,1.6,1.6.6.3,1.2c-2.7.5-2.1,1.6-2.5,3.4s.5,1.1-1.2,1c.3-1.1-.8-2.5-.8-3.3s2.2-.4,1.2-3.6c-.1-.5-1.1-.3-1.2-.8s1-3.1-1.4-2.6c0,1.5,1.6,10.5,0,11s-2.1-.2-2.3-.8c-.4-1.4,2.9-1,.6-5.7-.4-.9.4-1.7-1.5-1.3l.3,9.7,1-1.3h2.2c.4,2.2-.6,3.7-3.1,3.7l1.3,1.5-1.9.4c-.5,2.5,2.1,0,2.6.5l-.5,5.5-1.7-3.6-.6,2.5c-1.8,1.4-3.5-1.1-4.1-.5l1.4,3.6c-.7-.5-2.3,0-2.5,0s-.2-2-1.4-1,0,1.1-.6,1.5c-1.8,1.7-11.2,10.4-11.3,12l11,20.2c.7.7,2,.4,2.7,1.3,1.3,1.6-1.8-.3-1.2,1.2,1,2.9,3.9,5,4.1,8.1-3.5-.2-7.9.7-11.3.4Z"/>
          <path d="M251.5,32.7h-1.9c.8-.7.3-6.4-.8-5.4-.2.2.6,1.5-.6,1.2v-3c-.1,0-1.4.7-1.4.7v-3c-.1,0-1.3.6-1.3.6-1-.9-2.8-4.5-3.5-5-.8-.6-2.5-.4-3.5-.9-.8-.4-.9-1.3-1.3-1.5-.3-.2-6.4-1.1-7.3-1.1-33.1-1.7-33.3,50.1-8.8,55.4,4.3.9,8.7-.2,12.6,1.1.4,0-.6-2.4,1.5-1.9,1.4,2.7-.8.9-.5,3.1l3.2-.8c-1.4-3.9,4-6.3,6.5-9.3,4.7-5.7,6.2-12.9,6.7-20,.2-3.6-1.1-6.7.3-10ZM238.4,45.6c-.3,4.5-3.6,14.1-8.9,15.2-18.6,3.9-16.8-40,.8-34.7,1.8.5,5.3,2.6,4.7,4.8l-2.2,2c-.4.6,1.2,2.4,2.5,1-1.8,2.3-4.2,0-3,4.3h1.8c.2,2.5-.2,4.1,2.8,2.9-2-1.9-1.4-4.5-.9-7,.2-.9-.5-1,1.2-1,.6,4.1,1.3,8.3,1.1,12.5Z"/>
          <path d="M21.3,11.9l-.7.4v2.7c.1,0-1.8-.5-1.8-.5l1.4,3-3.2-.5c-.4-.4,1.2-2.8,1.5-3.1,1-.9,2.1,1.3,1.5-3.1,1.7-.2,1.2,0,1.3,1.2,3.1-1.9,2.6-.1,4.8-.1,2.9,0,5.5.2,8.4.3,7.4.2,14.8,0,22.2.6.7,1.8,2,10.2,0,10.8s-7.9-.8-9.6-.8c-4,0-8,.4-11.9.4.6,4-1.3,7.6.5,11.5l17.7.7,1.6.9.3,9.4c-6.4-.8-12.9-1-19.3-.5,0,7.3,0,14.6,1.3,21.8h-14.8c0-.1.5-5.3.5-5.3l-2-.3.8-3.1.7,1.8c1.6-1.1.5-2.2.2-3.7l-2.5.7v-2.4c0,0-3.3-.2-3.3-.2,0-1.5,2-2.4,3.4-2.3l2.4,3.6-.2-4.9h-2.6c2.4-2.2,3-2.5,2.4-6.1-1.4,0-.1,2-.7,2.9s-2.6,2-3.1.5c-.7-3.1,2.3-2.7,2.5-2.8.5-.6-1-2.7-.4-3.6h2c0,0-.4-2.5-.4-2.5l-1.2,1.3-.4-2.4-.9,3.1-3.2-.5c-.7-2.4,2.4-2.2,2.4-4.3l2,1.2c-.9-2,1-4.6,1-5.9,0-1.8-2.3-.8,0-2.9l-1-8.2c-1,.1-1.2,2.8-1.2,3.4,0,2.3,2,6-1.1,6.4l1.4.9-.6,2.7-1.8-.8.4-2.2-1.9,1.3-.2-6.1c-.2-.2-4.1,3.3-3.8,1,.2-1.3,1.1-2.6,1.2-4l1.4,2.4c3.4-.2,0-4.3,1.7-6.8l1.3,1.8.6-2.5,3.3,1.7c-.3-2.6,0-5.4-.3-7.9Z"/>
          <path d="M165.2,25.9c-1.8-.5,0-8-.6-9.9l.9-1,20.2.5-.7-3h3.2c0-.1,1.1,3.4,1.1,3.4,3.1-.6,6.7,0,9.9,0s2.4-1.2,4.5.2l.3,8.8c0,.2-.6,1.4-1,1.6-2.2.5-5-.2-7-.1s-1.4.8-1.9,1-.9-2.3-3.5-1.1v44.4c-3.8-1.7-8.6-1.4-12.8-1.4V26.4c-.2-.3-2.3-.9-2.5-.9-2.2,0-8.8.7-10.3.4Z"/>
          <path d="M113.1,23.3c.3-.2-.4-1.7,1.3-1.2l.8,4.2-1.7-1.8-1.2,3.1c-1-.4-.7-1.8-1.2-2.3s-2.3.7-1.8-1.3l.6-1.8,3.2,1Z"/>
          <path d="M336.2,49.9c.9-.4,3-2.2,3.5-3.2-2-.1-4.5-1.5-5-3.5l-2.1,3.7c-.6-1.2.6-3.1.5-3.9,0-.4-1.1-.3-1.1-.5-1.1-2.9,0-4.8.2-7.8l-1.8,3.1-4.7-19.8c-2.5-1.9-3.3-.1-4.7,0-1.3,0-3.3-.9-4.9-.4l-.4-3c-2-.3-.4,2.7-.9,3.1-.2.2-1.8-.2-2.5.2-.8.5-1,5.9-3.8,5.5l-.7-1.8-.5,3.7,2.2-1.3-.2,2.4c-2.9-1.6-3.4,1.1-2,1.3.6,0,1.9-.5,1.5.8-.9,2.4-1.3-.4-1.9-.2l.5,3.6-10.3,27.4h-3.9c0,.7-.1,1.6.7,2,.7.4,2.3-1.3,2,.5-.6,2.9-3.1,2.4-4.4,5l2.5-1-1.1,4.9,11.9-.4c.1,0,.8.9,1,.6,0-1.2,0-2.8.6-3.9.5-.8,1.6-1,1.7-1.1,0-.2-.6-1.3-.4-2.3.4-1.4,1.2-2.8,1.7-4.2h14.7s2.4,11.5,2.4,11.5l12.9.2c-.7-1.6,0-4.4-.2-5.7,0-.4-1.2-.3-1.5-1.2-.8-2.4-2.7-8.7-2.8-11-.1-1.2,0-1,1.2-1l2,2.4v-4.2c-.1,0-4-.2-4-.2l.6-2.1c2.6-.9-.3,2.7,1.7,1.8ZM312.7,50.1c-.5-.4,3-9.7,3.5-11.2.3-.8,2.2-1.5,1.1-4.2,1.6.5,2.5,6.9,2,7.7-.2.3-1.2,0-1.1.5,3.1,1.1,2.3,4.9,3.5,7.5l-9-.3Z"/>
          <path d="M91.4,26.6l.7,2.4-1.9-.5c-.4.6,1.1,5.9-1.7,5.5l.6-3.9-2.1-2.2,4.5-1.4Z"/>
          <path d="M227,34.8c0,0-.2.6.6,1.1s1.1-.1,1.3.1c.4.4,0,1.4.2,1.9.3.7,1.8,0,1.3,1.6l-3.9-.5-.8-3.9,1.2-.3Z"/>
        </g>
      </g>
    </g>
  </g>
</svg>