<?xml version="1.0" encoding="UTF-8"?>
<svg id="Layer_1" data-name="Layer 1" xmlns="http://www.w3.org/2000/svg" viewBox="0 0 382.36 453.74">
  <g id="igj1z0">
    <g>
      <path d="M200.94,189.03l5.14-1.87c4.08-.39,8.24-1,12.15-1.87.37-.08.58-.87.93-.94,4.31-.79,9.42,3.17,12.62,6.08v14.03l-1.4,1.4c-1.19.15-2.65-.22-3.74,0-3.36.69-7.47,1.93-11.22,2.81-21.98,5.17-43.48,11.6-65.42,16.84-.61.14-1.52,1.54-3.74.94-1.79-1.09-4.1-3.76-5.61-4.68-.22-.13-.69.14-.93,0-.72-.41-.82-1.37-2.34-.94.22-2.56-.31-5.46,0-7.95.1-.79,1.73-4.74,1.87-5.61.21-1.29-.14-2.86,0-4.21,1.53.5,1.85-.79,2.34-.94,9.63-2.87,20.09-4.1,29.91-6.55.37-.09.58-.87.93-.94,1.53-.27,3.52.19,5.14,0-.22-1.38-1.16-1.61-2.34-1.87-7.91-1.78-22.71-9.84-28.97-14.97-2.47-2.02-6.19-7.18-8.41-8.42-.44-.25-1.23.17-1.4,0s.25-.96,0-1.4c-.51-.91-2.15-1.83-2.8-2.81-1.85-2.77-4.47-8.15-5.61-11.22-.91-2.47-.56-4.99-.93-7.48-.05-.35-.85-.56-.93-.94-.54-2.32.88-3.37.93-3.74.29-2-.4-4.72,0-6.55.08-.35,1.76-2.39,1.87-2.81.22-.8-.22-2.01,0-2.81.09-.33,3.4-5.18,3.74-5.61,3.8-4.89,9.7-8.85,14.49-11.69,2.85-1.69,6.44-4.43,9.35-1.87l-.47-1.87c1.53.5,1.85-.79,2.34-.94,2.94-.86,10.74-1.52,14.02-.94.35.06.56.84.93.94,4.39,1.09,7.84,2.5,12.15,3.74.48.14,1.23,1.52,1.87,1.87.51.28,2.38.67,2.8.94.5.32.89,1.01,1.4,1.4l-.93,2.34c2.1-1.51,4.32-1.42,4.67,1.4l-.93,2.34h2.34c1.48-1.26,3.23-2.13,5.14-1.87v-2.34l1.4-1.4h2.34v-2.34c1.97-2.78,6.83-1.44,6.54-5.14l2.34.94,3.74-2.81,9.81-1.87c.21-1.65-2.11-.88-3.27-.94-1.4-.06-2.82.04-4.21,0l2.8-1.87-.93-1.87c1.96.17,4.17-.25,6.07,0,.34.04.58.87.93.94,1.14.21,2.75-.27,3.74,0,.86.24,4.96,4.07,7.48,3.74l7.01,7.02c-.11,1.63,2.55,4.42,2.8,5.61.35,1.62.31,10.41,0,12.16-.03.16-.65,1.7-.93,2.81-5.6,21.68-29.27,40.26-46.26,53.78-.83.66-2.02,1.78-2.34,2.81ZM226.17,101.11h-1.87v.94h1.87v-.94ZM237.39,104.85l-3.74-.94c.96,1.86,1.35,4.11,3.74,3.74v-2.81ZM206.55,172.2c.17-.17-.25-.96,0-1.4.9-1.6,7.62-5.2,9.35-7.48,8.55-11.34,18.26-19.06,22.43-33.67.11-.38.86-.58.93-.94.23-1.1-.2-2.6,0-3.74.06-.36.88-.59.93-.94.17-1.15.17-3.53,0-4.68-.05-.35-.85-.57-.93-.94-.18-.85.21-2.03,0-2.81-.11-.4-1.49-2.17-1.87-2.81-.15-.25.13-.73,0-.94-.32-.49-3.05-3.21-3.27-3.27-.58-.17-1.31.18-1.87,0-.39-.12-.59-.87-.93-.94-1.43-.25-5.01-.19-6.54,0-.34.04-.58.87-.93.94-1.14.2-2.64-.23-3.74,0-1.95.4-9.52,4.33-11.22,5.61-1.93,1.45-4.45,3.9-5.14,5.14-.99,1.78-3.32,2.61-5.14,3.27-.39.14-.58.84-.93.94-1.26.34-2.87-.65-3.74.94-1.19-.62-2.67-.63-3.74-.94-.55-.16-1.96-2.21-2.8-2.81-.76-.53-7.03-4.58-7.48-4.68-1.09-.23-2.59.2-3.74,0-.36-.06-.59-.89-.93-.94-1.88-.23-5.6-.23-7.48,0-.34.04-.58.87-.93.94-1.15.2-2.65-.23-3.74,0-.33.07-2.22,1.6-2.8,1.87-.47.22-1.25-.18-1.87,0-.27.08-3.94,2.34-4.67,2.81-5.59,3.52-11.47,10.37-13.55,16.37-.34.99-.91,1.76-.93,1.87-.24,1.07.2,2.6,0,3.74-.06.36-.89.59-.93.94-.21,1.68-.21,4.87,0,6.55.04.34.87.58.93.94.2,1.15-.23,2.65,0,3.74s2.91,6.08,3.74,7.48c8.15,13.79,22.82,21.2,36.92,25.72.86.28,2.04-.48,2.8.94l14.95-10.29c1.51-3.03,7.54-5.21,8.88-6.55ZM165.43,108.59l-4.67.47-2.8,1.4,7.48-1.87ZM167.76,108.59c-.61,0-.61.94,0,.94s.61-.94,0-.94ZM155.14,113.27l.93-1.4-2.34-1.4c-.77,1.4-1.89.67-2.8.94-.37.11-3.32,2.78-4.21,3.27v2.34c-1.21-.34-3.21,1.28-3.74,2.34-1.05,2.13,2.84.91,3.27,2.34h2.34v-1.87l2.8.94v-1.87h1.87v-1.87h1.87v-1.87c3.84.06,7.24-1,10.75-1.87.37-.09.58-.87.93-.94,2.84-.51,13-.23,14.95.94,1.07.64,2.15,2.45,3.27,3.27l2.8-.47-1.87-.94v-1.87c-1.52.26-4.17-1.7-5.14-1.87-1.41-.25-3.22.22-4.67,0-.35-.05-.59-.9-.93-.94-4.04-.44-12.15.87-15.89,1.87-.37.1-.58.86-.93.94-.95.2-2.23-.12-3.27,0ZM244.87,127.3c-.3-2.13.42-5.06,0-7.02-.05-.21-1.59-3.22-1.87-3.74-.84-1.56-1.9-3.05-3.27-4.21-.52,1.25,1.09,1.44,1.4,3.27.12.72-.07,1.57,0,2.34h1.87c-.51,1.5.87,1.97.93,2.34.2,1.11-.11,2.53,0,3.74.11,1.19-.75,3.47.93,3.27ZM145.33,115.14c-.61,0-.61.94,0,.94s.61-.94,0-.94ZM144.86,124.49v-1.87h-.93v1.87h.93ZM135.05,125.43c-.61,0-.61.94,0,.94s.61-.94,0-.94ZM135.05,129.17c-.61,0-.61.94,0,.94s.61-.94,0-.94ZM242.53,133.85l-1.4,1.4.47.47,1.4-1.4-.47-.47ZM133.65,134.78h-1.87v.94h1.87v-.94ZM238.79,141.33c-.61,0-.61.94,0,.94s.61-.94,0-.94ZM235.05,146.94l-1.4,1.4.47.47,1.4-1.4-.47-.47ZM231.78,153.49v-1.87h-.93v1.87h.93ZM232.25,156.29c-.61,0-.61.94,0,.94s.61-.94,0-.94ZM223.84,165.65c-.61,0-.61.94,0,.94s.61-.94,0-.94ZM221.03,168.45c-.61,0-.61.94,0,.94s.61-.94,0-.94ZM215.43,173.13l-3.27,3.27.47.47,3.27-3.27-.47-.47ZM202.34,184.36c-.61,0-.61.94,0,.94s.61-.94,0-.94ZM197.67,187.16l-1.4,1.4.47.47,1.4-1.4-.47-.47ZM186.45,189.03l-.47.47,1.4,1.4.47-.47-1.4-1.4ZM217.3,190.9l-1.4,1.4.47.47,1.4-1.4-.47-.47ZM211.22,191.84l-4.67.94.93,2.81,3.74-3.74ZM214.02,193.71v-1.87l-1.87,1.4v.47h1.87ZM190.19,192.77c-.61,0-.61.94,0,.94s.61-.94,0-.94ZM205.61,194.64c-1.64.17-3.57-.25-5.14,0-.59.09-3.98,1.73-4.67,1.87-4.38.91-9.73-.16-13.08,3.74-1.28-1.79-2.7-.81-3.27.94l7.94-.94c5.15-2.39,10.95-3.19,15.89-3.74l2.34-1.87ZM171.03,204v-1.87l-1.87,1.4v.47h1.87ZM160.75,204.93c-2.86.05-5.28-.75-7.01,1.87l-2.8-.94-3.27,2.81,9.81-1.87,3.27-1.87ZM145.33,205.87c-.61,0-.61.94,0,.94s.61-.94,0-.94Z"/>
      <path d="M20.56,10.38l-3.27,1.87-2.34,1.4c-.25.9-.25,11.26,0,12.16.1.38,1.08.9,1.4,1.4l.93-.94c.31,0,.58.88.93.94,1.76.29,6.58.25,8.41,0,3.22-.44,2.63-5.24,2.34-7.95-.04-.34-.9-.59-.93-.94-.22-1.94.15-4.11,0-6.08-.69-.69-5.69,1.59-4.67-1.87h15.42c.31,0,.57.87.93.94,1.19.22,3.46-.83,3.27.94-2.71-.42-3.99.26-5.61,2.34v27.13l.93,3.27h1.4l3.27,1.87c-1.98-.14-4.12.2-6.07,0-.34-.03-.6-.91-.93-.94-2.88-.25-5.98.18-8.88,0l1.87-.94v-15.9c-3.7.35-8.1-.49-11.68,0-1.25.17-1.56.44-2.34,1.4,1.25.8.88,1.6.93,2.81.15,3.42-.11,6.87,0,10.29l.93.94,3.74.47c.56,3.94-3.04.94-3.27.94H0c1.44-3.89,4.57,1.06,6.54-2.34-.49-7.91.66-16.51,0-24.32-.03-.34-.9-.59-.93-.94-.22-1.94.15-4.11,0-6.08h-1.4l-3.27-1.87h19.63ZM36.45,30.02l-2.8,2.34c-.7,2.67-3.81,3.27-2.8,7.02,1.22.25,3.4-.15,3.74-1.4.17-.62-.21-1.4,0-1.87.86-1.92,2.6-3.22,1.87-6.08Z"/>
      <path d="M224.4,33.72c0,10.48-8.49,18.98-18.97,18.98s-18.97-8.5-18.97-18.98,8.49-18.98,18.97-18.98,18.97,8.5,18.97,18.98ZM200.01,18.8c.14,2.02-2.1,3.38-2.8,5.14-.14.36-.91,2.65-.93,2.81-.35,1.94.41,4.72,0,6.55-.08.36-.83.56-.93.94-.34,1.23.85,1.49.93,1.87.55,2.47-.18,5.62.93,8.42.11.27.82,1.68.93,1.87.26.44,3.05,3.21,3.27,3.27,1.26.35,2.87-.65,3.74.94,1.19-.62,2.67-.63,3.74-.94,1.71-.49,3.55-4.43,4.21-6.08.16-.4.86-.59.93-.94.24-1.08-.2-2.59,0-3.74.06-.36.89-.59.93-.94.62-4.99-.29-10.41-.93-14.97-.8-1.01-2.91-4.77-4.21-5.14-.58-.17-1.31.18-1.87,0-.38-.12-.58-.85-.93-.94-2.83-.66-4.5,1.77-7.01,1.87Z"/>
      <path d="M362.63,55.28l2.8-3.27-9.81-13.56c-2.06,1.21-1.06,2.73-1.4,4.21-.09.37-.88.59-.93.94-.43,2.99.31,6.72,0,9.82h1.4l2.34,1.87c-2.91-.42-7.15.59-9.81,0-.36-.08-.56-.83-.93-.94l-6.07.94c-.2-1.67,1.4-.51,2.8-1.4,3.02-1.9,1.53-5.29,1.87-8.42.04-.34.91-.6.93-.94.52-6.37-.07-14.54.93-20.58.06-.36.93-.62.93-.94-.67-.51-1.22-1.46-1.87-1.87-1.41-.89-3.01.27-2.8-1.4l4.67.47c1.92.7,5.52,1.08,7.01-.47l5.14.94c.26,1.71-1.42.65-2.34.94-.17.05-2.29,2.18-2.34,2.34l-.93,12.63c1.08,1.09,7.24-4.55,8.88-4.68.93-2.32,8.56-5.95,8.88-7.02s.03-2.15-.93-2.81c-1.11-.75-2.12.05-1.87-1.4h13.08c.63,3.14-1.69,1.38-3.27,1.87-1.83.56-8.69,5.91-11.22,7.48-1.6,1-3.25,2.75-5.14,2.81-.86.92,4.1,7.85,5.61,8.89,2.6,4.03,5.58,8.69,9.35,12.16.93.86,1.25,1.75,2.8,1.4-.26,2.58-3.08,0-3.27,0h-14.49ZM354.46,25.32c0-.64-.52-1.16-1.16-1.16s-1.16.52-1.16,1.16.52,1.16,1.16,1.16,1.16-.52,1.16-1.16Z"/>
      <path d="M337.48,36.67c0,10.35-8.39,18.75-18.73,18.75s-18.73-8.39-18.73-18.75,8.39-18.75,18.73-18.75,18.73,8.39,18.73,18.75ZM318.23,19.73c-.77,1.4-1.89.67-2.8.94-1.65.47-3.6,4.42-4.21,6.08-.14.39-.84.58-.93.94-.21.78.19,1.96,0,2.81-.08.37-.88.59-.93.94-.37,2.51-.43,11.64,0,14.03.06.35.83.55.93.94.17.61-.2,1.36,0,1.87.15.37.76.55.93.94.13.29-.12.73,0,.94.22.37,2.17,2.29,2.34,2.34.58.17,1.31-.18,1.87,0,.87.28,1.48,1.46,3.74.94.36-.08.55-.81.93-.94.56-.18,1.28.17,1.87,0,1.65-.47,3.6-4.42,4.21-6.08.14-.39.84-.58.93-.94.21-.78-.19-1.96,0-2.81.08-.37.88-.59.93-.94.34-2.35.45-12.89,0-14.97-.07-.31-1.53-2.2-1.87-2.81-.14-.26.13-.73,0-.94-.84-1.31-1.65-1.08-2.34-1.4-.39-.18-.57-.79-.93-.94-.74-.29-2.06.5-2.8-.94h-1.87Z"/>
      <path d="M114.02,45.45c.49,1.81,4.33.83,4.67,3.27h-12.15c-.62-3.13,1.66-1.4,3.27-1.87,1.73-.51.96-3.35,2.34-4.21v-25.25l-3.27-2.34-2.34-1.87h12.62l13.55,17.3,4.67,4.21v-17.3c0-.17-2.14-2.27-2.34-2.34-1.33-.48-2.87,1.1-2.34-1.87l11.22.94-2.34,1.87h-1.4l-.93,2.34v28.06l-.93,3.27-24.3-29v24.79Z"/>
      <path d="M228.51,52.47c-.24-.07-1.86-1.4-.93-1.87l21.03-30.4c.18-1.79.04-1.34-1.4-1.4-2.15-.09-6.64-.39-8.41,0-.34.08-.54.78-.93.94-2.15.86-4.89,1.63-5.14,4.21l-1.87,3.27.47-4.68.47-5.61,25.23.47,2.8-.47c.49,1.82-1.18,2.19-1.87,3.27-5.19,8.17-11.13,15.76-15.89,24.32-1.46,1.33-2.89,2.88-3.74,4.68-.68,1.42.38,1.36,1.4,1.4,2.72.12,8.98.5,11.22,0,.34-.08.54-.78.93-.94,2.96-1.18,6.09-2.96,7.01-6.08l2.8-3.27-2.8,12.16h-30.37Z"/>
      <path d="M162.15,14.12l1.4,1.87h-3.74v2.34l7.48,14.5,2.8-2.34c1.6-2.53,3.1-5.74,4.67-8.42.6-1.02,2.12-2.29,2.8-3.74s-.89-1.57-1.87-1.87c-1.37-.43-3.02-.02-2.8-1.4h11.22c-1.42,2.16-4,2.97-5.61,5.14-1.24,1.67-2.58,4.75-3.74,6.55-1.03,1.6-5.32,7.08-5.61,8.42-.23,1.09.2,2.59,0,3.74-.06.36-.89.59-.93.94-.17,1.41-.3,6.4,0,7.48.04.16,2.18,2.29,2.34,2.34,1.13.32,3.46-.9,3.27.94-3.23-.17-6.59.24-9.81,0-.33-.02-.6-.91-.93-.94-2.59-.22-5.34.15-7.94,0-.18-1.83,2.14-.62,3.27-.94.15-.04,1.36-1.26,1.4-1.4.28-1.03.27-10.95,0-12.16-.5-2.26-4.43-7.2-5.61-9.35-1.32-2.42-3.4-8.35-4.67-9.82-.11-.13-2.77.05-2.8-1.87h15.42Z"/>
      <path d="M271.04,53.41c-.26-1.71,1.42-.65,2.34-.94,1.2-.37,1.3-2.58,2.34-3.27.26-6.18-.36-12.55,0-18.71.02-.33.91-.6.93-.94.23-3.23-.16-6.59,0-9.82-1.58.22-3.7-.32-5.14,0-.33.07-.53.75-.93.94-.29.13-.73-.12-.93,0-.43.26-3.2,3.05-3.27,3.27-.35,1.14.38,2.82-1.87,3.27.15-1.66-.22-3.54,0-5.14.05-.35.86-.57.93-.94.19-.96-.12-2.23,0-3.27h29.44l2.34.94c-.43,2.97,1.23,7.12-1.4,9.35l-1.4-5.14c-2.06-3.09-3.89-2.13-7.01-2.34-.14,0-1.73-1.79-2.34.47-.64,2.4.2,8.13,0,11.22-.02.33-.92.61-.93.94-.18,3.42-.67,15.31,0,17.77.56,2.07,3.92.53,3.74,2.34h-16.82Z"/>
      <path d="M87.85,47.79l3.74-.94-.93-6.08-2.34-3.27h-12.62c-.05,2.45-2.61,4.3-1.87,7.02.49,1.81,4.33.83,4.67,3.27-2.49-.28-5.58.4-7.94,0-.58-.1-.45-1.42-1.4-.47-1.22,1.22-1.96-.07-2.8-.94.33-.96,1.55-.16,2.8-.94,1.44-.9,5.42-8.88,6.54-11.22,2.5-5.22,5.17-12.24,7.48-17.77.46-1.11,2.19-2.56,1.87-4.21l2.8,2.34c3.79,9.01,8.02,18.35,12.15,27.13.99,2.1,1.55,5.26,4.67,5.14l-.47,1.87c-.99.53-1.58-.94-1.87-.94h-14.49ZM87.85,35.63l-1.87-5.14-3.27-6.08c-2.6,3.26-4.26,7.32-5.14,11.22h10.28Z"/>
      <path d="M50.47,13.65l-2.8-2.34c1.97.15,4.15-.22,6.07,0,2.69.31,3.07,1.14,7.01.47,1.8-.31,2.32-1.09,3.74.94l-3.74.94-.93.94v29.93c.5.32,1.02,1.3,1.4,1.4,1.13.32,3.46-.9,3.27.94h-18.69v-.94l4.67-.94V13.65Z"/>
      <path d="M147.67,311.56c-1.75,3.29-2.15,6.51-1.87,10.29,1.8.46,2.19-1.13,3.27-1.87.21-.15.73.14.93,0,2.21-1.54,4.24-4.58,7.01-4.68v-3.74h5.61c-.31.99-1.53,2.21-2.34,2.81-.2.15-.72-.15-.93,0-2.68,1.92-5.06,4.09-7.94,6.08l12.15,13.56h-10.28l.93-2.34c-2.71-1.62-4.56-6.7-7.01-7.95-1.83-.93-1.39,1.55-1.4,2.34-.07,3.35-.53,5.43,1.87,7.95h-9.35l1.87-2.34v-19.17l-1.87-.94h9.35Z"/>
      <path d="M79.91,371.43c.29.06,3.15,1.91,3.27,2.34v4.68l-4.67,3.27,4.21.94,2.34,3.27c.32,1.15-3.19,5.8-4.21,6.08s-2.6-.21-3.74,0c-.36.07-.59.89-.93.94-1.46.18-4.15.18-5.61,0-.34-.04-.58-.88-.93-.94-1.29-.2-2.85.14-4.21,0v-20.58c4.23.61,10.59-.84,14.49,0ZM71.03,380.78c2.05.4,5.95-.18,6.54-2.34,1.24-4.52-2.28-6.95-6.54-6.08v8.42ZM71.03,381.72c.27,2.46-1.53,11.81,3.27,10.29.47-1.05,1.59-.77,1.87-.94,3.28-1.97,3.29-6.46,0-8.42-.18-.11-1.76-.91-1.87-.94-.92-.22-2.24.14-3.27,0Z"/>
      <path d="M255.15,374.23c.38,3.69-1.52,6.49-.93,10.29.61.67,4.28-2.25,5.14-2.81,1.36-.88,3.31-1.93,4.67-2.81,1.46-.93,1.59-2.08,1.4-3.74h5.61l-2.34,1.87-8.88,6.08,10.28,13.56h-9.35l.93-2.34c-1.02-2.16-2.59-3.33-4.21-5.14-.65-.74-.59-2.16-1.87-2.81-1.83-.93-1.39,1.55-1.4,2.34-.05,2.65.04,5.31,0,7.95l-6.54-.94c.28-.96.78-1.05.93-2.34.51-4.29-.72-10.01,0-14.03.05-.27,1.47-.95.93-2.81-.14-.48-1.44-.81-.93-2.34h6.54Z"/>
      <path d="M31.78,371.43v6.55l-4.21-4.68-5.61-1.87c-2.02,1.6-4.31.31-6.07,3.27-.12.2.13.65,0,.94-.18.39-.79.57-.93.94-.2.51.17,1.27,0,1.87-.11.38-.87.59-.93.94-.19,1.06-.16,3.57,0,4.68.05.35.85.57.93.94.19.85-.22,2.05,0,2.81.15.49,1.44.8.93,2.34,2.99.59,4.39,2.35,7.94,1.87,3.3-.45,2.23-3.44,2.34-6.08l-2.8-2.34h11.22l-2.8,2.34v4.68c-.96,1.77-2.24,1.07-3.27,1.4-.39.12-.59.87-.93.94-1.64.29-9.71.33-11.22,0-.34-.08-.54-.78-.93-.94-.63-.25-2.42-.68-2.8-.94-.56-.37-4.12-3.92-4.21-4.21-.17-.59.18-1.31,0-1.87-.12-.39-.87-.59-.93-.94-.49-2.66.83-4.26.93-6.55l7.01-6.08c1.47.65,2.53-.89,2.8-.94,1.22-.22,4.34-.19,5.61,0,.62.09,3.81,1.62,4.67,1.87,1.17.34,1.75-1.42,3.27-.94Z"/>
      <path d="M169.16,431.29v5.61l-4.21-3.74c-1.58-1.76-4.63-.66-7.01-.94v8.42c1.68.27,2.06,0,3.27-.94,1.58-1.22.9-2.83,2.34-2.81v9.35l-2.34-3.74-3.27-.94v8.42c1.91.11,3.04,1.43,5.14.94.36-.08.56-.83.93-.94.59-.17,1.34.19,1.87,0,.37-.13.55-.78.93-.94.5-.21,1.22.16,1.4,0,.13-.11-.05-2.78,1.87-2.81l-.93,5.61h-17.76c-.71-1.69.93-3.09.93-3.27v-17.3h16.82Z"/>
      <path d="M214.96,313.44v4.68l-4.21-3.74h-4.21c-.21,3.51.29,7.28,0,10.76-.15,1.75-1.48,4.27-.93,7.48.06.36,1.45.84.93,2.34h-7.48c-.52-1.5.87-1.98.93-2.34.62-3.61.54-8.68.93-12.16.22-1.93-.15-4.11,0-6.08h-5.14l-3.27,3.74v-5.61c5.29.36,11.14-.5,16.36,0,.34.03.59.89.93.94,1.61.21,3.48-.14,5.14,0Z"/>
      <path d="M179.44,312.5c-.22,1.52.36,2.87.93,4.21,1.9,4.42,3.76,8.85,5.61,13.1.42.97,3.58,4.44,2.8,5.14h-7.48c.41-2.54-.46-4.41-.93-6.55h-8.88l-2.34,3.27.93,2.34h-4.67l4.67-7.02,6.54-12.16,2.8-2.34ZM176.64,319.98l-2.8,2.34-1.87,4.21,6.54.94-1.87-7.48Z"/>
      <path d="M60.75,392.94l-8.41-.94c.25-2.08-.76-4.14-2.34-5.61h-7.48l-2.34,3.27.93,3.27h-4.67l1.87-1.87c2.24-5.47,5.3-10.56,8.41-16.37.64-1.2.78-3.22,2.34-4.21l4.21,9.82c2.51,2.11,2.81,6.53,4.67,9.35.72,1.09,2.49,1.87,2.8,3.27ZM47.66,378.91c-2.41-.99-5.06,6.17-4.67,6.55h6.54l-1.87-6.55Z"/>
      <path d="M320.57,375.17v4.68l-3.27-3.74h-4.21c-.12,1.05.19,2.31,0,3.27-.07.36-.89.59-.93.94-.34,2.7.58,15.79,0,16.37h-6.54c-.52-1.5.87-1.98.93-2.34.55-3.24.63-8.18.93-11.22.22-2.25-.16-4.73,0-7.02-3.79-.69-4.81.71-7.48,2.81v-3.74h20.56Z"/>
      <path d="M207.48,439.71l1.87-5.14,2.8-2.34c-.64,2.26,1.28,3.68,1.87,5.14,1.71,4.29,3.31,10.12,5.61,14.03.45.76,1.85,1.28,1.87,2.34h-7.48c.32-2.47-.44-4.81-2.34-6.55h-7.48l-2.34,3.27.93,2.34h-3.74c.02-1.05,1.42-1.58,1.87-2.34.93-1.58,1.92-3.15,2.8-4.68.66-1.13,1.2-3.58,1.87-4.68.38-.63,1.11-1.19,1.87-1.4l-2.8,6.55h6.54c.25-2.22-1.13-4.06-1.87-6.08-.31-.84-1.27-.63-1.87-.47Z"/>
      <path d="M97.2,371.43c.31.26-1.79,2.9-1.87,3.27-.31,1.41-.32,14.72,0,15.9.16.59,1.95,1.31,1.87,2.34h-9.35l1.87-.94c-.49-5.81.67-12.56,0-18.24-.15-1.28-.65-1.37-.93-2.34h8.41Z"/>
      <path d="M227.11,313.44c.31.26-1.79,2.9-1.87,3.27-.87,4.04.71,10.64,0,14.97-.06.36-.91.61-.93.94-.01.17,1.67,1.64.93,3.27-2.24-1.55-4.88-.79-7.48-.94-.08-1.02,1.71-1.75,1.87-2.34.49-1.79.29-14.36,0-16.84-.15-1.28-.65-1.37-.93-2.34h8.41Z"/>
      <path d="M286.92,375.17l.93,5.14c2.72,3.25,3.2,7.84,4.67,11.22.42.97,3.58,4.44,2.8,5.14h-7.48l.93-2.34c-2.53-3.58-3.55-7.58-4.67-11.69l-2.8,2.34-1.87,2.81.93,1.87c-.51.37-.92,1.13-1.4,1.4-.44.25-1.23-.17-1.4,0-.1.1.27,1.86-.93,2.34l.93,3.27h-4.67l4.67-6.08,6.54-13.1,2.8-2.34Z"/>
      <path d="M181.31,451.87l-2.34.94-4.21-.94c.28-.96.78-1.05.93-2.34.57-4.86-.24-8.07.93-13.1.49-2.11-.83-3.24-.93-5.14h5.14c2.33,1.56.47,1.96.47,2.34v18.24Z"/>
      <path d="M189.73,441.58v2.34l6.54,8.89h-6.54v-1.4l-6.54-8.42,5.61-2.81v-5.61l-3.74-2.34c1.58.22,3.7-.32,5.14,0,.33.07.53.75.93.94.29.13.73-.12.93,0,4.24,2.53,2.76,9.02-2.34,8.42ZM192.53,438.77h-1.87v.94h1.87v-.94Z"/>
      <path d="M332.72,375.17c-1.06,1.22-.65,2.27-.93,3.27-1.27,4.5-.76,8.45-1.87,13.1-.38,1.61.15,2.89.93,4.21h-6.54c-.52-1.5.87-1.98.93-2.34.58-3.4.52-7.95.93-11.22.28-2.25.26-5.1-.93-7.02h7.48Z"/>
      <path d="M92.53.09c.38,1.6-.61,1.86-1.4,2.81-1.23,1.48-3.2,3.39-4.67,4.68-1.05.92-1.55,2.24-3.27,1.87l1.87-7.95c1.66-2.36,4.77-1.15,7.48-1.4Z"/>
      <path d="M244.87,127.3c-1.69.2-.83-2.09-.93-3.27-.11-1.21.2-2.63,0-3.74-.06-.37-1.45-.84-.93-2.34h-1.87c-.07-.77.12-1.62,0-2.34-.31-1.83-1.92-2.03-1.4-3.27,1.37,1.15,2.43,2.65,3.27,4.21.28.52,1.82,3.53,1.87,3.74.42,1.95-.3,4.88,0,7.02Z"/>
    </g>
  </g>
</svg>