<?xml version="1.0" encoding="UTF-8"?>
<svg id="Layer_1" data-name="Layer 1" xmlns="http://www.w3.org/2000/svg" viewBox="0 0 515.04 119.12">
  <g>
    <path d="M475.44,63.94V30.83h-16.56v82.77l13.8-5.52,11.03,11.04,24.84-5.52c-3.05-8.84,5.15-11.66,5.51-13.79,5-29.28-9.32-52.63-38.62-35.87ZM483.71,108.08c-12.23-3.88-7.63-28.42-8.27-38.62h22.07c1.06,8.08,2.63,43.84-13.8,38.62Z"/>
    <path d="M309.88,25.3l-5.52,33.11,24.83-22.07,19.31-11.04c7.43,7.43-20.76,25.58-22.07,30.35-4.94,17.92,6.54,19.21,11.04,27.59.79,1.48-.77,4.19,0,5.52,2.2,3.83,12.46,18.05,11.04,19.31-22.52,4.32-28.67-22.45-33.11-38.63-21.2-6.18-6.49,28.56-11.04,33.11h-16.56c1.67-5.69,4.63-6.22,5.52-13.8,2.34-19.9-1.68-43.09,0-63.46h16.56Z"/>
    <path d="M243.66,102.56l-16.56-13.8,5.52-13.8h-22.07l16.56,16.56-8.28,11.04-24.83-13.8c-.7-23.61,19.05-27.45,38.63-24.83,1.7-12.13-8.77-19.52-19.31-16.56-5.5,1.55-15.82,15.68-13.8-5.52h35.87l8.28,8.28v52.42Z"/>
    <path d="M100.18,63.93l-33.11-5.52c-1.53,7.17.93,20.15,8.28,22.07,6.81,1.78,20.48-3.84,24.83,2.76l-35.87,2.76-13.8-19.31v-16.56l13.8-19.31h22.07c12.26,9.57,16.25,17.11,13.8,33.11ZM89.14,52.9l-13.8-16.56-8.28,8.28v8.28h22.07Z"/>
    <path d="M403.69,52.9c-3.34,29.84,1.71,75.19,27.59,30.35,2.47-11.67-8.34-34.8,11.04-30.35-1.2,11.3,4.82,60.18-8.28,60.7-9.05-12.06-37.15,1.58-41.39-13.8-1.93-7.02-.46-29.21,0-38.63.44-8.97,4.71-15.81,11.04-8.28Z"/>
    <path d="M17.41,3.23v71.74h27.59l-8.28,11.04c-9.87-.21-32.71,3.18-35.87-8.28-3.56-12.92,5.18-19.69,5.52-22.07,1.9-13.2-.69-30.01,0-44.15.44-8.97,4.71-15.81,11.04-8.28Z"/>
    <path d="M133.29,19.79v16.56h11.04c-14.69,15.19-11.24,29.35-11.04,49.67l11.04,5.52c-6.02-.89-14.21,1.41-19.31,0-10.77-2.97-12.29-34.36-2.76-41.39l-11.04-11.04c12.45-6.82,6.85-23.6,22.07-19.31Z"/>
    <path d="M376.1,19.79c-2.36,19.49,3.28,45.04,0,63.46-.37,2.06-4.92,3.3-5.52,5.52-2.63,9.85,7.26,22.93-11.04,19.31,1.84-18.28-2.58-40.32,0-57.94.3-2.05,5.09-3.38,5.52-5.52,2.25-11.19-7.66-28.88,11.04-24.83Z"/>
    <path d="M188.48,36.34l-22.07,24.83c-3.07,11.15,8.82,34.85-11.04,30.35v-55.18c8.43-3.04,12.5,5.49,13.8,5.52,1,.02,9.75-9.83,19.31-5.52Z"/>
  </g>
  <path d="M94.66,3.23c-1.72,7.59-16.76,20.91-22.07,16.56,1.73-6.53,7.82-8.22,5.52-16.56h16.56Z"/>
</svg>