<?xml version="1.0" encoding="UTF-8"?>
<svg id="Layer_1" data-name="Layer 1" xmlns="http://www.w3.org/2000/svg" viewBox="0 0 427.44 295.88">
  <path d="M261.42,141.06c-.28-.65-1.13-3.13-1.2-3.6-1.01-6.9.42-16.65,0-24.05-.01-.2-.59-.39-.6-.6-.14-1.96.36-4.93,0-6.6-.05-.23-1.12-1.54-1.2-1.8-.14-.51.15-1.29,0-1.8-.05-.19-1.67-3.4-1.8-3.61-.48-.71-1.53-1.36-2.1-2.1l-6.31-2.7c.62-1.13,1.41-.69,2.11-.91.17-.05,2.6-1.53,3-1.8,2.75-1.82,5.6-6.33,6.91-9.31,1.75-3.96,1.46-8.68,1.8-13.22.01-.22.58-.39.6-.6.24-2.5-.25-6.49-.6-9.02-.03-.23-.57-.37-.6-.6-.14-.91.22-2.24,0-3.01-.05-.15-1.51-1.73-1.8-2.39-.15-.34.15-.87,0-1.2-.25-.58-1.5-2.6-1.8-3.01-.52-.7-2.63-2.86-3.3-3.3-.25-.17-1.51-.43-1.8-.6-.73-.44-1.5-1.44-2.39-1.8-1.6-.64-3.84-.89-5.41-1.2-.23-.05-.37-.57-.6-.6h-35.75c-.22,2.18.31,4.81,0,6.91-.4,2.73-.42,7.08-.6,10.21-.75,12.89,1.42,29.54-.6,40.87-1.7,9.58,1.5,25.24,0,34.26-.41,2.43-.05,4.48-.6,7.21-.12.62.08,1.44,0,2.11,1.27.09,2.67-.14,3.9,0,.23.02.39.58.6.6,1.76.15,8.95.34,10.21,0,1.17-.33,1.09-3.88.91-5.11-.03-.18-1.07-1.02-.6-2.11l-1.2-.29c.65-1.11,1.73-.83,1.8-.91.15-.15-.11-2.03,0-2.7.03-.23.6-.4.6-.6v-30.05c0-.06.83-.9.9-.9h12.62c.19,0,.35.52.6.6.39.11.87-.14,1.2,0,.23.09.35.49.6.6.18.08.47-.08.6,0,.52.31,2.87,2.71,3.3,3.3.09.12-.1.45,0,.6.27.41,1.12.93,1.2,1.2.24.9-.16,2.52,0,3.61.36,2.62,1.1,3.16.6,6-.57,3.16,0,10.25.6,13.22.05.23.53.36.59.6l-1.19,2.1c1.51-.14,2.02.96,1.79,2.41l2.11-.6.9.91-.6,1.5c1.33-.16,2.02.79,1.8,2.11l1.8,3c-.88.89-.54,1.07-1.5.31-.79-.62-1.69-1.43-1.51-2.41h-2.41v-1.5c-.01-.53-1.74-.37-1.79-.31-1.08,1.04,1.69,2.91,1.79,3.3.22.77-.9,1.11-.6,2.11.27.27,4.64-.25,5.71,0,1.32.29,3.18.4,4.81.6,1.97.24,4.29-.18,6.31,0,.5-.45-1.53-2.69-1.8-3.31ZM245.79,74.35c-.01.22-.57.37-.59.6-.15,1.12.22,2.6,0,3.61-.06.22-1.03,1.43-1.2,1.8-.15.29.11.81,0,1.2-.09.31-4.2,4.41-4.51,4.51-.51.14-1.27-.13-1.8,0-.24.06-.37.54-.6.6-.69.16-1.67-.14-2.41,0-.23.03-.39.57-.6.6-1.82.22-7.31.28-9.01,0-.24-.05-.54-.93-1.5-.6l.6-29.45c.95.33,1.26-.57,1.5-.6,1.8-.31,7.05-.2,9.01,0,.22.02.37.57.6.6.93.14,2.16-.19,3.01,0,.14.02,2.17,1.04,2.39,1.2.47.3,3.84,3.64,3.92,3.9.14.51-.15,1.29,0,1.8.06.24.53.36.6.6.72,2.63.87,6.62.59,9.61Z"/>
  <path d="M18.08,109.51c2.69.11,5.42-.15,8.11,0,.21.01.39.59.6.6,2.29.15,4.63-.1,6.91,0,.1,1.06-.15,2.29,0,3.31.19,1.24.44,2.68.6,3.61.4,2.31.6,4.43,1.8,6.61.23.41.97.79,1.2,1.2.16.28-.11.79,0,.9s.62-.16.9,0c.6.33,1.19,1.44,1.8,1.8.69.41,1.73.41,2.4.6.24.07.38.56.6.6,1,.18,5.69.2,6.61,0,.2-.04,3.04-1.49,3.61-1.8.41-.23.79-.97,1.2-1.2.28-.16.79.11.9,0,.16-.16-.15-1.56,0-2.1.34-1.24,3.52-3.28,1.8-5.41.74-1.25.27-4.73,0-6.61-.03-.22-.55-.36-.6-.6-.12-.54.14-1.3,0-1.8-.08-.31-.98-.79-1.2-1.2-.18-.33-.43-1.55-.6-1.8-1.11-1.68-3.07-2.39-4.51-3.31-8.35-5.33-18.91-7.23-25.54-15.33-1.22-1.49-2.47-3.55-3-5.41-.12-.43-1.69-1.38-1.8-1.8-.18-.64.15-1.69,0-2.4-.05-.23-.55-.37-.6-.6-1.16-5.27-2.07-15.1-.6-20.43.22-.81,2-.79.6-3,.83-.94.64-2.34,1.2-3.61,2.23-5.02,4.55-7.82,9.31-10.52.71-.4,2.44-1.65,3-1.8.51-.14,1.3.14,1.8,0,.55-.16,2.6-1.14,3-1.2,2.33-.34,8.38-.25,10.82,0,.22.02.37.57.6.6.93.14,2.1-.16,3,0,.77.14,3.29,1.39,4.21,1.8,5.77,2.6,9.81,6.32,12.32,12.32.14.34-.14.85,0,1.2s1.15,1.58,1.2,1.8c.44,2.05.33,4.51.6,6.61.03.22.58.38.6.6.12,1.28.17,3.58,0,4.81-.23,1.72-1.82,1.77-3.3,1.5-.23-.04-.38-.57-.6-.6-1.89-.23-11.3.41-11.72,0,.33-.97-.56-1.27-.6-1.5-.25-1.42.19-3.31,0-4.81-.03-.22-.56-.37-.6-.6-.13-.73.18-1.77,0-2.4-.1-.36-2.02-1.92-1.8-3l-2.1-1.5c-2.36-1.97-4.84-1.97-7.81-1.8l-.6.6-3,.6c-.71.93-2.1,1.79-2.7,2.7-.09.13.09.44,0,.6-.23.39-1.16,1.61-1.2,1.8-.15.7.13,1.67,0,2.4-.04.23-.57.38-.6.6-.17,1.39-.2,4.66,0,6.01.03.22.55.37.6.6.11.56-.14,1.32,0,1.8.07.24.52.36.6.6.11.36-.11.83,0,1.2.1.35,1.42,1.26,1.8,1.8.13.19.02.94.9,1.5.97.62,3.37,2.94,3.61,3,1.86.54,2.57.94,4.21,1.8,5.73,3.04,11.42,5.9,16.82,9.62.59.41,3.16,1.66,3.3,1.8.11.11-.16.62,0,.9.62,1.11,2.82,2.43,3.61,3.61.17.25.43,1.49.6,1.8.23.42,1.11.89,1.2,1.2.37,1.24.88,2.54,1.2,3.61.52,1.69.35,3.15.6,4.81.03.23.58.38.6.6.35,3.36.31,9.83,0,13.22-.02.22-.57.38-.6.6-.14,1.13.19,2.53,0,3.61-.04.22-.53.36-.6.6-1.5,5.29-4.52,10.57-9.31,13.52-1.11.68-4.44,2.74-5.41,3-.5.14-1.27-.13-1.8,0-.23.06-.37.55-.6.6-.69.16-1.67-.13-2.4,0-.23.04-.38.57-.6.6-2.87.35-10.35.35-13.22,0-.22-.03-.37-.56-.6-.6-.74-.13-1.7.15-2.4,0-.95-.2-2.6-1.39-3.61-1.8-.35-.14-.87.15-1.2,0-1.64-.71-6.39-4.2-7.51-5.71-.3-.41-2.34-3.38-2.4-3.61-.61-2.11-1.85-4.05-2.4-6.01s-.35-4.06-.6-6.01c-.03-.22-.6-.4-.6-.6v-9.32Z"/>
  <path d="M394.81,42.2v11.12c0,.2-.58.38-.6.6-.13,1.41.31,3.7,0,4.81-.03.11-.86,1.15-1.2,1.8-2.88,5.51-5.48,10.59-8.41,16.23-2.43,4.67-5.63,10.18-7.81,15.02-2.5,5.53-6.83,11.33-8.41,16.83-.13.45-4.08,6.16-4.21,6.61-.89,3.11-2.78,6.79-4.21,9.62-.68,1.35-2.13,2.22-1.8,3.91l32.45.6c-.27,3.98.37,8.4,0,12.32-.02.22-.57.38-.6.6-.14,1.04.09,2.24,0,3.31l-51.67-.6v-9.32c0-.13.95-.87.6-2.4-.24-1.05-.59.03,0-1.8,1.88-5.84,4.84-11.15,7.81-16.83.47-.91,3.49-6.23,3.61-6.61,1.06-3.6,3.54-9.07,5.41-12.62,1.5-2.85,3.15-4.91,4.21-7.81,2.1-5.79,6.36-11.75,9.01-17.43,1.09-2.34,2.9-5.35,3.61-7.81.13-.46,1.46-.88,1.2-1.8-.03-.1-1.4-1.5-1.5-1.5h-27.64c-1.02,0-1.03-3.01-.9-3.91.03-.23.58-.38.6-.6.41-3.88-.3-8.37,0-12.32h50.47Z"/>
  <path d="M129.23,40.39v16.53c0,.48-3.54,6.99-4.21,8.41-8.09,17.24-16.6,35.73-24.63,53.49l-3,5.41c0,1.71,1.32,1.25,2.1,1.5.25.08.41.6.6.6h29.74c-.14,1.23.21,2.75,0,3.91-.03.17-.96.63-.6,1.8.08.25.56.38.6.6.51,2.85-.37,6.91,0,9.92l-51.07-.6c.18-.62.5-.68.6-1.5.45-3.83-.86-5.93,0-9.62.36-1.53-.6-2.27-.6-2.4,0-.34,1.98-5.08,2.4-6.01,1.41-3.13,2.76-5.8,4.21-9.01,2.54-5.64,4.37-11.55,7.21-16.83,1.24-2.31,2.23-5.13,3-7.81.1-.33,1.11-.87,1.2-1.2,1.17-4.08,3.58-6.47,4.81-10.82.45-1.6,1.13-3.37,1.8-4.81,2.08-4.46,3.92-8.08,5.41-12.62.08-.24.52-.36.6-.6.23-.72-.41-2.1-.9-2.1h-26.44c-.13,0-2.02-1.21-2.1-1.5-.42-3.69.58-8.51,0-12.02-.04-.23-.58-.39-.6-.6,0-.12,1.13-1.39.6-2.4.61-.91,1.62-1.15,2.7-.9,8.79,2.05,22.04-1.19,30.04.6,1.22.27,2.25.36,3.61.6,3.68.66,9.03-.48,12.92,0Z"/>
  <path d="M427.26,9.44c-.05-.23-.52-.35-.6-.6-.11-.36.1-.83,0-1.2-.06-.18-2.52-2.66-2.71-2.7-.59-.17-1.3.29-1.79-.6-113.95-.5-228.5-.57-342.49-2.41-10.01-.17-25.81.4-34.84-1.2-8.8-1.57-23.31.67-33.05,0-.22-.01-.39-.59-.6-.6C9.91.03,6.82-.1,5.76.13c-.14.02-2.28,1.12-2.41,1.2C2.26,2.07,1.28,3.4.05,4.03.16,7.23-.1,10.45.05,13.64c1.25,26.36.3,55.28,2.41,80.54.99,11.88.28,25.16.6,37.26.25,9.39-.03,22.21,1.2,30.65.42,2.84.4,16.86,0,18.63-.99,4.4,1.51,9.45,0,14.42-.26.84,1.11,3.71.6,6-.69,3.06.08,19.32.6,21.64.34,1.54.16,8.02,0,9.01-.52,3.13-.28,12.19,0,15.63.09,1.16.49,1.67.6,2.7l1.2-1.5c-.31-2.92.69-6.62-.6-9.02.16-65.71-1.7-134.36-3.01-203.13,0-.2-.6-.4-.6-.6-.16-8.19.81-17.56-.6-25.24-.1-.55-.1-1.86,0-2.41.05-.23.52-.35.6-.6.11-.36-.11-.83,0-1.2.05-.15,1.96-2.07,2.1-2.1.37-.11.85.11,1.2,0,.25-.08.39-.57.6-.6,1.94-.35,6.23-.19,7.81.6,108.05,1.4,217.61,3.13,325.06,3.6h80.52c1.08.84,2.37.59,3.3,2.11-.11,4.2.16,8.42,0,12.62-.25,6.75-.66,13.81-1.2,20.43-.76,9.18-.67,18.92-1.2,28.25-.91,15.79-2.52,32.71-2.41,48.08-2.73,42.31-4.66,84.56-6,125.61-.01.2-.59.4-.6.6-.25,8.18.44,19.61-.6,25.84-.22,1.27-.32,3.67.91,4.51.67-.76.17-2.3.29-3.3.91-6.99.78-14.39,1.2-21.63.92-15.99,2.57-33.08,2.41-48.69,3.16-46.34,5.74-92.5,7.81-139.43.23-5.04.83-10.86,1.8-15.63.13-.61-.08-1.43,0-2.1h-1.2c-.33-.96.56-1.27.6-1.51,1.34-7.44.85-16.71,1.2-24.64.01-.2.59-.39.6-.6.11-2.28.35-6.99,0-9.01ZM5.76,208.67c.4,0,.4.6,0,.6s-.39-.6,0-.6Z"/>
  <path d="M406.83,101.09c-.09,1.07.14,2.27,0,3.31-.03.22-.58.38-.6.6-.3,3.16.22,6.71,0,9.92h-19.23v-13.82h19.83Z"/>
  <path d="M329.92,156.39l-1.2,3.31c-3.15,3.93-5.13,8.99-7.81,13.22-.49.78-1.54,1.84-2.1,2.7h-8.71c-.04-.7-.1-1.15.3-1.8,1.13-1.85,1.37-4.23,2.1-6.31.69-1.97,2.74-5.11,3-6.61.16-.9-.21-2.23,0-3,.03-.1,1.4-1.5,1.5-1.5h12.92Z"/>
  <path d="M410.43,293.41c.24-1.15-1.01-1.28-.3-2.4,2.05-3.23-.11-4.29.3-5.71l1.8-2.7v7.51l-1.8,3.31Z"/>
  <path d="M382.19,295.82l1.5-1.2c.96.11,2.11-.16,3,0,2.24.4,3.57-.45,5.41.6l1.8-1.2.3,1.2,1.2.6h-13.22Z"/>
  <path d="M402.62,295.22c.15,1-.81.57-1.5.6-.9.04-1.81-.02-2.7,0l1.5-1.2,2.7.6Z"/>
  <rect x="375.58" y="295.22" width="4.81" height=".6"/>
  <path d="M374.38,294.02v1.2h-1.8c-.3-.24,1.05-1.59,1.8-1.2Z"/>
  <rect x="369.57" y="294.62" width="1.8" height=".6"/>
  <rect x="412.23" y="279.59" width=".6" height="1.2"/>
  <g>
    <path d="M96.79,249.54c-.94-.02-2.39-1.71-2.7-1.8-1.13-.33-1.89.94-3,.6-1.02-.48-2.38-2.16-3.61-1.8-.86.25-1.13,1.9-.9,2.7.31,1.09,2.37.38,1.8,2.1h-2.4l.6-1.8-2.4.6c.33-.97-.56-1.27-.6-1.5-.22-1.24.14-2.88,0-4.21-.35-3.36-1.25-11.38-.6-15.02.12-.69.74-8.55.6-9.01-1.09-3.58-1.38-36.15-.6-40.87.04-.23.59-.39.6-.6,0-.11-1.07-1.05-.6-2.1l42.06.6c-.22,1.92-.87,3.52-.6,5.71.03.22.58.38.6.6.26,2.79-.19,5.89,0,8.71h-27.34c-.06,0-.9.84-.9.9v22.24c0,.06.84.9.9.9h25.54c-.26,2.54.36,5.66,0,8.11-.19,1.27-.71,4.14-.6,5.41.07.84.44.88.6,1.5-.96-.33-1.27.56-1.5.6-1.11.19-3.6.11-4.81,0-.22-.02-.39-.58-.6-.6-3.35-.25-14.66-.6-17.42,0-.19.04-2.1,1.29-2.1,1.5v16.53Z"/>
    <path d="M84.77,254.35c-.28.74,1.05,2.27,1.5,2.4.75.22,1.12-.91,2.1-.6v1.8h-3.61c.22-1.46-1.62-1.7-1.2-3.31l1.2-.3Z"/>
    <rect x="83.57" y="271.78" width=".6" height="1.2"/>
    <rect x="123.82" y="259.16" width="1.2" height=".6"/>
    <path d="M83.87,252.55c.39,0,.39.6,0,.6s-.39-.6,0-.6Z"/>
  </g>
  <g>
    <path d="M332.32,234.22c-.03.09-.81.88-.9.9-.99.27-5.25.09-6.61,0-.21-.01-.39-.59-.6-.6-4.9-.28-11.76.74-16.22,0-.23-.04-.4-.6-.6-.6-1.76,1.09-1.19,1.96-1.5,3.31-.06.24-.57.38-.6.6-.79,5.43.96,11.7-.6,16.83-.22.73.42,1.22,0,3-.24,1.04.09,1.86.6,2.7-.98-.31-1.35.82-2.1.6-.24-.07-.37-.55-.6-.6-1.22-.25-2.62.02-3.61-1.2h-1.2l-3,1.8-3.3,3,1.8-83.84.9-.9,41.76.6c-.07.68.11,1.47,0,2.1-.26,1.47.24,2.87,0,4.81-.03.22-.58.38-.6.6-.24,2.6.18,5.48,0,8.11h-27.34c-1.22,0-.77,3-.9,3.91-.03.23-.6.4-.6.6v18.93c1.27.1,2.66-.14,3.91,0,.22.02.39.58.6.6,7.03.6,14.82-.44,21.93,0,.33.91-.6,1.38-.6,1.5v13.22Z"/>
    <path d="M333.52,262.76v2.4c-1.31-.37-2.2.92-3.3.6-.14-.04-2.01-1.9-2.1-2.1-.56-1.2,1.33-.81,1.5-1.5,1.58-.29,2.6.38,3.91.6Z"/>
    <path d="M327.51,263.97l-2.1.6c-.47-.7-.99-.68-1.8-.6l-1.5-1.8c2.01.24,5.41-1,5.41,1.8Z"/>
    <path d="M303.48,276.59h-9.01l2.1-1.2h1.2c1.17,1.39,2.54.34,3.61,0,.89-.29,1.9.24,2.1,1.2Z"/>
    <path d="M312.49,261.56l-.6,1.8c-1.13.44-1.8-.53-2.1-.6-.92-.23-1.93.43-2.7-.9l5.41-.3Z"/>
    <path d="M333.52,275.99c.24,1.63-.26,1.17-1.5,1.2-1.7.04-3.41-.03-5.11,0-.82-.69-.08-1.15.9-1.2.72-.04,1.77-.12,2.4,0,.22.04.35.52.6.6,1.11.35,1.66-.78,2.7-.6Z"/>
    <path d="M319.1,262.16l-.9,1.2c-.43-.59-.78-.72-1.5-.6v-.6h2.4Z"/>
    <path d="M300.78,262.16c.39,0,.39.6,0,.6s-.39-.6,0-.6Z"/>
  </g>
  <path d="M333.52,141.66c-.45-3.42-1.68-7.4-2.39-10.82-1.17-5.57-2-11.16-3.01-16.83-1.71-9.62-3.51-19.32-5.41-28.85-2.17-10.84-3.36-21.82-6-32.45-.54-2.19-.87-5.03-1.2-7.22-.17-1.11.45-3.53-.9-3.9-1.77-.49-3.29.95-4.81.6-.24-.06-.37-.57-.6-.6-4.49-.66-10.36.49-15.01,0-1.42.85-.68,2.05-.91,3.3-.17.95-.4,2.85-.6,3.61-.06.19-1.66,1.75-1.8,2.41-.29,1.41-.22,3.18-.6,4.8-1.95,8.36-4.31,16.88-6.6,25.25-.99,3.59-1.59,7.32-2.41,10.82-1.15,4.89-2.67,9.15-3.6,14.42-.83,4.62-2.39,9.1-3.61,13.82-1.63,6.37-3.19,12.83-4.81,19.24-.28,1.12-.35,1.9-.6,3-.05.23-.52.36-.6.6-.17.58.72,1.51.91,1.51h15.32c.08,0-.11-1.1,0-1.51.74-2.7,1.7-5.6,2.41-8.41.79-3.23,1.19-6.25,1.8-9.61.03-.24.93-.54.59-1.51h24.34c1.41.85.67,2.07.9,3.3.83,4.53,1.1,9.18,1.8,13.82.03.23.58.39.6.6.15,1.24-.1,2.66,0,3.92h16.82c-.09-1.07.15-2.27,0-3.31ZM310.39,106.5c-.91-.43-1.62.58-1.8.6-2.07.36-7.31.16-9.61,0-.22-.01-.39-.58-.6-.6-1.66-.14-3.43.1-5.11,0,.1-1.06-.16-2.29,0-3.3.03-.23.56-.36.6-.6,1.32-6.89,2.56-13.67,4.21-20.43,1.49-6.13,2.89-12.44,4.2-18.63.18-.84-.19-1.45.91-2.1,1.78,1.06,1.16,2.07,1.5,3.3.07.26,1.16,1.58,1.2,1.8.34,1.58-.17,4.19,0,6,.2,2.26.82,5.3,1.2,7.82,1.04,6.91,2.64,14.12,3.6,21.03.2,1.44-.52,3.27.6,4.21l-.9.9Z"/>
  <g>
    <path d="M177.9,40.99h-21.03c.45,1.11-.57,1.88-.6,2.1-2.59,14.03-6.12,27.57-9.01,41.47-1.66,7.93-3.45,16.15-5.41,24.05-1.97,7.94-3.67,15.72-4.8,24.04-.32,2.26-2.03,4.83-2.41,6.62-.23,1.08.36,2.2-.6,3.3h16.82c.08,0-.1-1.1,0-1.51,1.11-4.11,1.37-8.48,2.41-12.62.06-.24.56-.37.6-.6.19-1.08-.23-2.59,0-3.6.05-.22.49-.34.6-.6.08-.19-.08-.48,0-.6.29-.51,1.11-.98,1.5-1.51h18.63c.72.35,1.42.39,2.39.6.77.17,1.86-.11,2.71,0,.1,1.46-.16,3.08,0,4.51.34,3.19,1.97,6.71,2.39,9.62.3,1.96-.07,2.68.6,4.8.12.37.05,2.11.91,2.11h15.32l-21.03-102.17ZM176.1,105.3c-1.38.26-2.39.88-3.9.6-.24-.03-.39-.57-.6-.6-2.13-.26-13.04.49-13.52,0,.08-.67-.12-1.49,0-2.1,2.75-13.38,4.93-26.95,7.81-40.27l.6-3.3c1.97-.18,1.51,1.17,1.8,2.1.08.25.56.37.6.6.15.7-.14,1.67,0,2.41.28,1.61.29,4.32.6,5.4.09.34,1.1.87,1.19,1.2,1.04,3.79.81,9.19,1.8,13.22,1.49,5.96,2.36,12.59,3.61,18.63.13.61-.08,1.43,0,2.1Z"/>
    <path d="M160.48,36.79c.12-1.04-.18-2.32,0-3.31.16-.92,1.75-2.82,1.8-3,1.14-4.13,2.53-8.03,3.61-12.02.19-.71-.31-2.37.9-2.7,1.31-.36,8.98-.16,10.82,0,.22.02.38.58.6.6,1.24.14,2.64-.1,3.91,0-.01.93-1.71,2.4-1.8,2.7-1.15,4-4.87,8.62-7.21,12.62-.41.7-.79,2.38-1.2,3-.22.33-1.95,2.1-2.1,2.1h-9.31Z"/>
  </g>
  <path d="M5.76,208.67c.39,0,.39.6,0,.6s-.39-.6,0-.6Z"/>
  <g>
    <path d="M393.3,181.03c-.22-.01-.39-.59-.6-.6-1.75-.1-7.75-.34-9.01,0-.1.03-1.34,1.25-1.5,1.51-1.28,1.99-2.43,5.05-3.61,7.21-2.32,4.23-4.85,8.35-7.21,12.62-2.09,3.78-4.21,7.54-6.01,11.42-.48,1.04-1.75,2.24-1.79,2.41-.15.51.14,1.29,0,1.8-.18.65-3.16,2.9-3.92,2.7-1.68-.45-.31-1.99-.29-2.1.67-4.9,1.57-17.49.6-21.63-.31-1.32,1.09-7.35,1.2-9.02.15-2.28-.11-4.63,0-6.91h-12.91c-.16,0-.66-.9-.91-.6.33.96-.56,1.27-.6,1.51-.4,2.25.47,5.7,0,7.81-.24,1.08-.36,1.93-.6,3.01-1.51,6.85.48,19.94-.6,26.44-.71,4.35-1.33,17.26-.6,21.63.31,1.84-.32.81-.6,1.8-1.25,4.57.94,13.03-.6,18.63-.22.79.56.96.6,1.2.17.76-.11,1.86,0,2.7,1.33.24,1.92-.23,2.71-1.2,1.26,1.66,2.34,1.66,3.6,0h.6c.65.51,3.09,1.88,3.3,2.71.15.51-.14,1.28,0,1.79.28,1.02,2.04,1,3.01.91v-13.53c0-.19.58-.39.6-.6.36-3.88-.36-6.62,3.01-9.61.79-2.35,2.16-4.53,3.9-6.31.53.28,2.02.52,2.1.6.14.14-.14,1.08,0,1.5.11.33,1.08,1.46,1.2,1.8,2.3,6.41,4.16,12.55,6.62,18.63.99,2.47,1.11,5.4,3,7.81-.39,2.17,1.6,3.63,1.8,5.71.57.59,2.88-1.45,2.41-2.39,1.16-.03,1.99-.96,3.3-.6.96.26,1.13,2.45.9,3.3-.12.49-1.65.9-1.19,2.41.35,1.18,1.91.74,2.7.9.23.05.35.53.6.6.22.06,2.57-.84,4.2-.6.23.03.39.58.6.6,1.03.14,2.25-.09,3.31,0-.72-2.09-2.08-1.46-3.31-1.8-1.1-.31-3.29-3.54-1.2-4.2,1.23-.4,1.57,1.95,2.41,2.39,1.09-.65-.22-1.82-.29-2.1-1.11-3.6-2.63-7.24-3.61-10.82-.94-3.44-3.2-6.72-4.21-10.21-2.09-7.33-5.13-13.98-7.81-21.04-.64-1.68-1.3-3.68-1.8-5.41-.07-.24-.56-.37-.6-.6-.1-.62-.14-3.09,0-3.6.09-.31.99-.79,1.2-1.2,1.61-2.99,4.4-7.44,5.41-10.21,1.11-3.06,3.56-6.3,5.4-9.62,2.44-4.39,5.43-9.25,7.82-13.82.87-1.67,1.26-2.3,1.79-4.21.11-.37,1.26-.84,1.2-1.5-1.87-.1-3.84.15-5.71,0ZM347.65,247.73c-.4,0-.4-.6,0-.6s.39.6,0,.6Z"/>
    <path d="M347.94,265.77c.46,1.09-.52,1.78-.6,2.1-.28,1.14.41,2.02-1.2,3-.8.49-1.55.28-2.4.3-.46-1.1.52-1.77.6-2.1.13-.52-.13-1.27,0-1.8.07-.28.93-.52.6-1.5h3Z"/>
    <path d="M345.54,275.99c.11.11.58-.14.9,0l1.5,1.8h-4.21v-4.81c2.4-.43,1.6,2.8,1.8,3Z"/>
    <path d="M356.95,274.78v3h-5.41c-.11-2.3,1.58-1.5,2.7-1.8.33-.09,2.22-1.7,2.7-1.2Z"/>
    <path d="M347.64,247.14c.39,0,.39.6,0,.6s-.39-.6,0-.6Z"/>
  </g>
  <g>
    <path d="M229.57,186.13c-.22-1.29.27-7.24,0-7.51l-41.46-.6c.18,1.53-.53,3.5.6,4.51-1.12,17.13-.88,34.58-1.2,51.09v25.55l1.8-2.11-.6-1.2,1.2-1.8-1.2-3c.64-1.1,2.51-2.73,3.01-3.61.2-.37-.4-1.46,1.5-.91.53.16.9,1.67,2.41,1.2.23-.07.34-.49.6-.6.54-.23,1.11.5.9-.9l1.5-2.7,2.11,2.39v-11.71c0-.19,1.23-1.1,1.5-1.51h22.83l1.5.6c-.33-.91.6-1.37.6-1.5v-14.13h-24.93c-.16,0-.59-.69-.9-.9v-15.63c1.49-1.01.07-2.01,0-2.41-.11-.6-.16-4.35,0-4.51.12-.12,1.06.12,1.5,0,.25-.07.41-.6.6-.6h26.14c.23-1.96-.31-4.44,0-6.31.03-.23.6-.4.6-.6,0-.19-.57-.36-.6-.6ZM191.14,231.64c-.42,0-.75-.33-.75-.75s.33-.74.75-.74.74.33.74.74-.33.75-.74.75ZM219.36,229.71v1.8c-1.65.16-3.13.06-3.01-1.8h3.01Z"/>
    <path d="M219.36,229.71v1.8c-1.65.16-3.13.06-3-1.8h3Z"/>
    <circle cx="191.13" cy="230.9" r=".74"/>
  </g>
  <g>
    <path d="M177.9,178.02l-43.26-.6v14.73c0,.06.84.9.9.9h24.64c.5,0,1.12,1.38.9,2.11-.09.31-1.01,1.4-1.2,1.79-1.09,2.34-1.95,4.87-3,7.22-1.23,2.74-4.91,9.03-5.41,10.82-.73,2.64-1.58,5.02-2.41,7.82-.44,1.52-3.26,5.43-3.6,6.61-1.1,3.84-2.95,7.99-4.81,11.42-1.2,2.22-.44,3.04-.6,3.61-.35,1.28-3.27,4.06-3,6.01l-1.2,2.41c.37.24,1.69-.32,1.8-.6.73-2.08,1.61-1.32,1.79-1.51.14-.12-.12-1.07,0-1.5.1-.33,1.53-1.68,2.11-1.51.14.05,2.05,1.96,2.1,2.11.28,1.01-.08,2.64,1.2,3.6-1.23.99-.95,2.39-1.2,3.61-.18.9-.73,1.21-.6,2.11.83-.06,1.6-1.67,2.1-1.8,1.1-.32,2.61-.57,3.61-1.2,1.36-.87,1.1-2.44,1.5-3.3,4.76-10.4,9.85-20.37,14.42-30.65,2.7-6.07,5.12-12.97,7.81-18.63,1.54-3.25,2.41-4.97,3.61-8.41.11-.32,1.16-1.59,1.2-1.8.42-1.94-.14-5.54,0-7.82.01-.2.59-.39.6-.6.15-2.27-.11-4.63,0-6.91ZM142.76,244.14c-.87-.42-.79-1.58-1.51-2.11l.6-1.5,2.41.6c-.83.47-.09,3.68-1.5,3.01Z"/>
    <path d="M144.25,241.13c-.83.47-.09,3.68-1.5,3-.87-.42-.79-1.57-1.5-2.1l.6-1.5,2.4.6Z"/>
  </g>
  <g>
    <path d="M237.09,178.62c-1.86,1.17.09,2.01-.31,3.31-.66,2.16-.43,5.31,0,7.21.35,1.5-.56,2.13-.6,2.41-.13.83.09,1.84,0,2.7h16.52c.07,0,1.23.9.6,1.2l-.29,23.74,2.41,3.3c-.11.1-2.59-2.39-3.01-.3-.14.68.5.86.6,1.8.26,2.55-1.06,4.68-.6,7.21.34,1.92.29,6.06,0,7.81-.62,3.76.45,8.99,0,12.93l1.8-1.5c.35-1.79-1.01-4.82,1.5-5.11.99.28.83,1.73.9,1.79.11.11,2.56,1.17,2.71,1.2.7.19,2.35-.32,2.7.91.85,2.97,1.28,1.58,1.8,2.1.12.12-.14,1.07,0,1.51.1.34,1.2,1.03,1.5,1.5l1.51-57.99,2.7-2.11c1.18-.36,1.7.6,1.8.6h12.91v-15.63l-47.17-.6ZM256.02,228.51h-1.8v-1.8h1.8v1.8ZM256.61,224.9h-1.79v-1.8h1.79v1.8Z"/>
    <rect x="254.21" y="226.7" width="1.8" height="1.8"/>
    <rect x="254.81" y="223.1" width="1.8" height="1.8"/>
  </g>
  <g>
    <path d="M35.5,176.22c-.33.97.56,1.27.6,1.5.22,1.25.41,2.55.6,3.61,1.69,9.56,2.51,19.3,4.21,28.85,2.06,11.61,4.17,23.79,6.01,35.46.13.83-.09,1.84,0,2.7l3.61-.6c-.37-1.74-1.32-2.55.6-3.91-.59-4.44,1.18-10.13,1.8-15.02,1.79-14.1,3.89-28.01,6.01-42.07.16-1.05,1.1-3.82,1.2-4.81.14-1.4-.56-5.31.9-5.71.98-.27,6.48-.14,7.81,0,.22.02.37.57.6.6,1.77.26,2.4-.22,3.61-.6.71-.22,1.93.27,2.1.9.38,1.39-.49,1.95-.6,2.4-.64,2.68-.65,5.67-1.2,8.41-3.14,15.71-5.67,31.58-8.41,47.48-.49,2.85-1.7,6.18-2.4,9.01-.38,1.53-.29,3.69-.6,4.81-.14.5-2.26,2-2.7,2.7-.2,0-.37-.56-.6-.6-1.07-.18-3.26.25-4.21.6-.89.33-1.77,1.56-3,1.2-.14-.04-2.06-1.96-2.1-2.1-.11-.37.11-.83,0-1.2-.49-1.71-2.24-.17-2.7-.3-1.91-.55-3.32-1.78-6.01-1.2-.21.04-1.6,1.16-1.8,1.2-1.03.22-3.61.14-3.91-.9-.11-.38.11-.84,0-1.2-.08-.25-.56-.38-.6-.6-.31-1.76-.15-3.48-.6-5.41-2.59-11.05-4.83-23.56-7.21-35.46-1.81-9.03-3.46-18.08-5.41-27.04l-.6-3.31c2.08.11,4.23-.15,6.31,0,.21.02.39.59.6.6,2.69.16,5.43-.12,8.11,0Z"/>
    <rect x="37.9" y="260.36" width=".6" height="1.2"/>
  </g>
</svg>