<?xml version="1.0" encoding="UTF-8"?>
<svg id="Layer_1" data-name="Layer 1" xmlns="http://www.w3.org/2000/svg" viewBox="0 0 868.43 81.63">
  <path d="M169.98,22.67c-.21-.79-4.54-6.02-6.05-3.02l-12.09,1.51c-1.18,7.38.88,6.53,7.56,6.05l4.54,4.54v27.21l-16.63,7.56c-4.72-5.87-15.87-11.79-13.61-19.65.48-1.66,5.59-4.38,6.05-6.05,2.24-8.19-1.03-14.88-7.56-19.65h-22.68v43.84l6.05,4.54v-18.14c15.45-3.36,16.21,9.77,25.7,18.14h21.16l7.56-7.56c.82-2.93.79-36.25,0-39.31ZM120.09,27.2l7.56,1.51,6.05,9.07c-10.91,15.84-26.3,3.6-13.61-10.58Z"/>
  <path d="M472.33,31.74c-6.77-8.56-17.66-12.97-28.72-10.58-1.21.27-9.43,5.74-10.58,7.56-.39.6.42,2.06,0,3.02-.6,1.33-2.78,1.97-3.02,3.02-.88,3.81-.76,20.05,0,24.19.18,1.06,2.48,1.72,3.02,3.02.67,1.63-.54,4.02,0,4.54.54.57,3.08-.79,4.54,0,2.09,1.18,4.51,5.62,6.05,6.05,6.35,1.75,18.9-1.66,22.68-7.56.85-1.33,2.21-7.01,3.02-9.07.51-1.27,2.78-1.9,3.02-3.02,1.3-5.87-.91-14.72,0-21.16ZM463.26,58.95l-10.58,7.56c-5.17,1.09-5.87-.54-9.07-3.02-11.79-9.1-9.83-23.01,0-33.26h12.09l7.56,7.56v21.16Z"/>
  <path d="M733.86,21.16c-4.72.63-10.82-.91-15.12,0-1.21.27-9.43,5.74-10.58,7.56-.88,1.36-2.21,7.01-3.02,9.07-.51,1.3-2.78,1.94-3.02,3.02-1.84,8.34,2.87,13.94,3.02,21.16,11.58,11.88,28.94,9.98,39.31-3.02l3.02-21.16-13.61-16.63ZM738.4,55.93c-.21,1.18-4.69,2.72-3.02,7.56l-13.61,3.02-10.58-7.56v-21.16c6.38-9.4,13.61-7.89,24.19-7.56-1.66,4.84,2.81,6.38,3.02,7.56.67,3.87.64,14.27,0,18.14Z"/>
  <path d="M593.26,24.19h10.58c1.61.44,6.67,8.56,7.56,10.58.74,1.69-.74,4.36,0,6.05,1.81,4.11,7.15,8.52,6.05,13.61h6.05c-6.21-7-.26-8.73,0-10.58.65-4.61-.24-10.2,0-15.12.24-4.92,2.58-8.66,6.05-4.54-.78,10.25,1.09,21.69,0,31.75-.12,1.1-2.84,1.88-3.02,3.02-.66,4.17.43,9.23,0,13.61l-15.12-16.63-6.05-19.65c-3.55-4.08-5.81-.36-6.05,4.54-.39,8.03.39,16.16,0,24.19-.29,5.9.42,4.79-6.05,4.54V24.19Z"/>
  <path d="M487.44,21.16v45.35c5.55-3.61,13.13-4,19.65-3.02,1.14.17,4.89,5.01,12.09,3.02,11.18-3.08,6.86-26.92,7.56-36.28-6.55.1-10.6,2.27-9.07-6.05l15.12-3.02c-1.96,11.22,2.69,31.05,0,40.82-.99,3.58-11.79,12.05-16.63,10.58-1.24-.38-1.91-2.82-3.02-3.02-9.24-1.65-21.97,1.18-31.75,0-1.49-1.49,1.33-28.82,0-34.77-.31-1.39-4.76-2.78-3.02-6.05l9.07-7.56Z"/>
  <path d="M27.87,18.14l9.07,4.54-1.51,19.65c5.46-7.02,16.56-12.41,16.63-21.16,6.18-.18,11.19-1.35,15.12,4.54-4.07,2.22-1.99-3.22-7.56,1.51-4.84,4.12-8.85,9.36-13.61,13.61-.72,2.5,4.98,12.15,7.56,13.61,1.42.8,3.97-.57,4.54,0,.53.53-.68,2.9,0,4.54.79,1.89,6.96,9.73,6.05,10.58-5.57,1.18-7.18-3.05-10.58-6.05-5.32-4.68-9.88-10.33-15.12-15.12l-4.54,21.16-6.05-4.54V18.14Z"/>
  <path d="M584.2,37.79c-.24-1.06-2.45-1.69-3.02-3.02-.42-.94.36-2.36,0-3.02-3.26-5.47-9.52-6.98-13.61-10.58h-9.07c-4.11,3.6-10.37,5.11-13.61,10.58-.39.67.42,2.09,0,3.02-.6,1.33-2.78,1.97-3.02,3.02-.66,2.87-.72,18.62,0,21.16,1.12,4.11,13.39,11.07,16.63,13.61,7.74,1.21,18.63-3.78,22.68-10.58.36-.63-.42-2.09,0-3.02.58-1.3,2.78-1.93,3.02-3.02.64-2.9.64-15.21,0-18.14ZM578.15,52.9c-.24,1.09-2.45,1.72-3.02,3.02-.42.94.36,2.39,0,3.02-.72,1.18-7.04,7.41-7.56,7.56-6.62,1.84-10.79-2.9-16.63-3.02,1.66-4.84-2.81-6.38-3.02-7.56-1.69-9.61.67-19.5,7.56-25.7h15.12c6.08,5.56,9.34,14.69,7.56,22.68Z"/>
  <path d="M321.15,21.16v18.14h21.16v-18.14h9.07l-3.02,48.38c-3.47,4.13-5.81.38-6.05-4.54-.27-5.52.18-11.13,0-16.63h-21.16c-.18,5.5.27,11.11,0,16.63-.24,4.91-2.58,8.66-6.05,4.54-1.44-12.6,1.99-28.8,0-40.82-.19-1.16-3-1.99-3.02-3.02l9.07-4.54Z"/>
  <path d="M381.63,21.16h-12.09l-15.12,48.38,9.07-1.51,4.54-10.58h15.12c4.54,1.27,4.69,14.3,13.61,12.09l-15.12-48.38ZM369.53,51.39l7.56-18.14,4.54,18.14h-12.09Z"/>
  <path d="M233.46,21.16v21.16c7.99-3.96,12.31-11.3,16.63-18.14,3.01-4.78,8.89-2.73,13.61-3.02l-21.16,22.68,21.16,25.7c-12.1,2.68-17.98-14.2-25.7-18.14-5.92-3.02-4.46,5.03-4.54,7.56-.18,6.47,2.9,12.38-6.05,10.58-1.72-2.05,1.53-30.95,0-37.79-.26-1.16-2.69-1.81-3.02-3.02v-3.02l9.07-4.54Z"/>
  <path d="M70.2,21.16h30.23c4.13,3.47.38,5.81-4.54,6.05-5.52.27-11.13-.18-16.63,0v12.09c5.5.18,11.11-.27,16.63,0,4.91.24,8.66,2.58,4.54,6.05-6.05.51-22.29-2.43-24.19,4.54-4.33,15.91,9.52,13.11,19.65,13.61,4.91.24,8.66,2.58,4.54,6.05h-25.7l-4.54-4.54V21.16Z"/>
  <path d="M662.8,24.19l6.05,4.54,1.51,16.63c3.75-4.74,10.29-8.9,13.61-13.61.44-.62-.49-2.25,0-3.02,3.66-5.78,9.78-3.74,15.12-7.56,4.38,4.53-17.15,19.23-18.14,22.68-2.48,8.66,13.57,15.86,15.12,25.7-3.98,3.73-19.02-15.51-22.68-18.14-6,3.95-4.23,7.8-4.54,13.61-.31,5.89.46,4.8-6.05,4.54V24.19Z"/>
  <path d="M829.09,18.14c2.24,10.37-7.62,4.67-13.61,6.05-1.36.31-2.65,4.67-7.56,3.02.05,2.6-6.65,16.08,1.51,12.09,1.33-.65,2.01-2.86,3.02-3.02,5.05-.82,11.33.55,16.63,0,4.13,3.47.38,5.81-4.54,6.05-6.52.32-13.15-.22-19.65,0v18.14c4.5.15,9.09-.22,13.61,0,3.77.18,11.26-2.33,10.58,3.02-8.11,1.12-19.25-2.96-25.7,3.02-3.11-2.5-3.99-3.52-4.54-7.56-1.51-11.14,1.09-24.76,0-36.28l4.54-4.54h25.7Z"/>
  <path d="M789.79,21.16l-3.02,10.58-24.19,27.21c-1.2,6.73,2.93,4.44,7.56,4.54,5.2.11,11.57,1.62,15.12-3.02l1.51,6.05h-33.26l24.19-34.77-4.54-4.54-19.65-1.51c3.95-5.99,7.8-4.24,13.61-4.54,7.52-.38,15.17.27,22.68,0Z"/>
  <path d="M420.92,21.16c-1.96,11.22,2.69,31.05,0,40.82-.69,2.49-11.99,13-16.63,10.58l-4.54-9.07c22.39,3.63,13.62-17.97,15.12-33.26l-12.09-7.56,18.14-1.51Z"/>
  <path d="M841.19,18.14c3.47-4.13,5.81-.38,6.05,4.54.57,11.54-.41,23.25,0,34.77h21.16c.6,5.73-6.74,2.28-10.58,3.02-1.17.23-1.89,2.84-3.02,3.02-4.15.67-9.24-.45-13.61,0V18.14Z"/>
  <path d="M281.84,60.47c1.33,1.31-6.72,20.53-12.09,21.16l3.02-19.65,9.07-1.51Z"/>
  <polygon points="88.34 18.14 82.29 16.63 82.29 7.56 94.38 0 88.34 18.14"/>
  <path d="M723.27,9.07v9.07h-9.07c-.87-5.76,3.31-9.94,9.07-9.07Z"/>
  <rect x="729.32" y="9.07" width="6.05" height="9.07"/>
  <polygon points="42.98 6.05 42.98 10.58 36.94 15.12 36.94 6.05 42.98 6.05"/>
  <circle cx="3.74" cy="21.1" r="3.74"/>
  <rect x="39.96" y="21.16" width="3.02" height="6.05"/>
  <rect x="230.44" y="12.09" width="6.05" height="3.02"/>
  <path d="M47.52,15.12c1.96,0,1.96,3.02,0,3.02s-1.96-3.02,0-3.02Z"/>
  <polygon points="88.34 18.14 94.38 0 82.29 7.56 82.29 16.63 88.34 18.14"/>
  <polygon points="42.98 6.05 36.94 6.05 36.94 15.12 42.98 10.58 42.98 6.05"/>
  <path d="M723.27,9.07c-5.76-.87-9.94,3.31-9.07,9.07h9.07v-9.07Z"/>
  <rect x="729.32" y="9.07" width="6.05" height="9.07"/>
  <rect x="230.44" y="12.09" width="6.05" height="3.02"/>
  <path d="M47.52,15.12c-1.96,0-1.96,3.02,0,3.02s1.96-3.02,0-3.02Z"/>
  <circle cx="3.74" cy="21.1" r="3.74"/>
  <path d="M27.87,18.14v46.86l6.05,4.54,4.54-21.16c5.24,4.79,9.8,10.44,15.12,15.12,3.4,3,5.01,7.23,10.58,6.05.91-.85-5.26-8.69-6.05-10.58-.68-1.63.53-4.01,0-4.54-.57-.57-3.12.8-4.54,0-2.57-1.46-8.28-11.1-7.56-13.61,4.75-4.24,8.76-9.49,13.61-13.61,5.57-4.73,3.49.71,7.56-1.51-3.93-5.89-8.94-4.72-15.12-4.54-.07,8.76-11.17,14.15-16.63,21.16l1.51-19.65-9.07-4.54Z"/>
  <path d="M169.98,22.67c-.21-.79-4.54-6.02-6.05-3.02l-12.09,1.51c-1.18,7.38.88,6.53,7.56,6.05l4.54,4.54v27.21l-16.63,7.56c-4.72-5.87-15.87-11.79-13.61-19.65.48-1.66,5.59-4.38,6.05-6.05,2.24-8.19-1.03-14.88-7.56-19.65h-22.68v43.84l6.05,4.54v-18.14c15.45-3.36,16.21,9.77,25.7,18.14h21.16l7.56-7.56c.82-2.93.79-36.25,0-39.31ZM120.09,27.2l7.56,1.51,6.05,9.07c-10.91,15.84-26.3,3.6-13.61-10.58Z"/>
  <path d="M420.92,21.16l-18.14,1.51,12.09,7.56c-1.49,15.29,7.28,36.89-15.12,33.26l4.54,9.07c4.64,2.41,15.94-8.09,16.63-10.58,2.69-9.77-1.96-29.6,0-40.82Z"/>
  <path d="M829.09,18.14h-25.7l-4.54,4.54c1.09,11.52-1.51,25.15,0,36.28.55,4.04,1.42,5.06,4.54,7.56,6.45-5.99,17.59-1.91,25.7-3.02.68-5.35-6.82-2.84-10.58-3.02-4.52-.22-9.11.15-13.61,0v-18.14c6.5-.22,13.13.32,19.65,0,4.92-.24,8.66-2.58,4.54-6.05-5.3.55-11.58-.82-16.63,0-1.01.16-1.69,2.37-3.02,3.02-8.17,3.99-1.46-9.5-1.51-12.09,4.91,1.65,6.2-2.71,7.56-3.02,5.99-1.38,15.84,4.32,13.61-6.05Z"/>
  <path d="M841.19,18.14v45.35c4.37-.45,9.45.67,13.61,0,1.14-.18,1.86-2.8,3.02-3.02,3.84-.74,11.18,2.71,10.58-3.02h-21.16c-.41-11.52.57-23.23,0-34.77-.24-4.91-2.58-8.66-6.05-4.54Z"/>
  <rect x="39.96" y="21.16" width="3.02" height="6.05"/>
  <path d="M70.2,21.16v43.84l4.54,4.54h25.7c4.13-3.47.38-5.81-4.54-6.05-10.13-.5-23.99,2.3-19.65-13.61,1.9-6.97,18.14-4.02,24.19-4.54,4.13-3.47.38-5.81-4.54-6.05-5.52-.27-11.13.18-16.63,0v-12.09c5.5-.18,11.11.27,16.63,0,4.91-.24,8.66-2.58,4.54-6.05h-30.23Z"/>
  <path d="M233.46,21.16l-9.07,4.54v3.02c.34,1.21,2.76,1.87,3.02,3.02,1.53,6.85-1.72,35.74,0,37.79,8.95,1.8,5.87-4.12,6.05-10.58.07-2.53-1.38-10.58,4.54-7.56,7.72,3.94,13.6,20.82,25.7,18.14l-21.16-25.7,21.16-22.68c-4.71.29-10.59-1.75-13.61,3.02-4.32,6.85-8.64,14.18-16.63,18.14v-21.16Z"/>
  <path d="M321.15,21.16l-9.07,4.54c.03,1.03,2.83,1.87,3.02,3.02,1.99,12.02-1.44,28.21,0,40.82,3.47,4.13,5.81.38,6.05-4.54.27-5.52-.18-11.13,0-16.63h21.16c.18,5.5-.27,11.11,0,16.63.24,4.91,2.58,8.66,6.05,4.54l3.02-48.38h-9.07v18.14h-21.16v-18.14Z"/>
  <path d="M381.63,21.16h-12.09l-15.12,48.38,9.07-1.51,4.54-10.58h15.12c4.54,1.27,4.69,14.3,13.61,12.09l-15.12-48.38ZM369.53,51.39l7.56-18.14,4.54,18.14h-12.09Z"/>
  <path d="M472.33,31.74c-6.77-8.56-17.66-12.97-28.72-10.58-1.21.27-9.43,5.74-10.58,7.56-.39.6.42,2.06,0,3.02-.6,1.33-2.78,1.97-3.02,3.02-.88,3.81-.76,20.05,0,24.19.18,1.06,2.48,1.72,3.02,3.02.67,1.63-.54,4.02,0,4.54.54.57,3.08-.79,4.54,0,2.09,1.18,4.51,5.62,6.05,6.05,6.35,1.75,18.9-1.66,22.68-7.56.85-1.33,2.21-7.01,3.02-9.07.51-1.27,2.78-1.9,3.02-3.02,1.3-5.87-.91-14.72,0-21.16ZM463.26,58.95l-10.58,7.56c-5.17,1.09-5.87-.54-9.07-3.02-11.79-9.1-9.83-23.01,0-33.26h12.09l7.56,7.56v21.16Z"/>
  <path d="M487.44,21.16l-9.07,7.56c-1.73,3.26,2.71,4.66,3.02,6.05,1.33,5.95-1.49,33.28,0,34.77,9.78,1.18,22.5-1.65,31.75,0,1.11.2,1.78,2.65,3.02,3.02,4.84,1.47,15.64-7,16.63-10.58,2.69-9.77-1.96-29.6,0-40.82l-15.12,3.02c-1.53,8.32,2.52,6.15,9.07,6.05-.7,9.36,3.62,33.2-7.56,36.28-7.2,1.98-10.96-2.85-12.09-3.02-6.52-.98-14.1-.58-19.65,3.02V21.16Z"/>
  <path d="M584.2,37.79c-.24-1.06-2.45-1.69-3.02-3.02-.42-.94.36-2.36,0-3.02-3.26-5.47-9.52-6.98-13.61-10.58h-9.07c-4.11,3.6-10.37,5.11-13.61,10.58-.39.67.42,2.09,0,3.02-.6,1.33-2.78,1.97-3.02,3.02-.66,2.87-.72,18.62,0,21.16,1.12,4.11,13.39,11.07,16.63,13.61,7.74,1.21,18.63-3.78,22.68-10.58.36-.63-.42-2.09,0-3.02.58-1.3,2.78-1.93,3.02-3.02.64-2.9.64-15.21,0-18.14ZM578.15,52.9c-.24,1.09-2.45,1.72-3.02,3.02-.42.94.36,2.39,0,3.02-.72,1.18-7.04,7.41-7.56,7.56-6.62,1.84-10.79-2.9-16.63-3.02,1.66-4.84-2.81-6.38-3.02-7.56-1.69-9.61.67-19.5,7.56-25.7h15.12c6.08,5.56,9.34,14.69,7.56,22.68Z"/>
  <path d="M662.8,24.19v45.35c6.51.26,5.74,1.36,6.05-4.54.31-5.8-1.46-9.65,4.54-13.61,3.66,2.63,18.7,21.87,22.68,18.14-1.55-9.84-17.6-17.04-15.12-25.7.99-3.44,22.52-18.14,18.14-22.68-5.33,3.81-11.45,1.78-15.12,7.56-.49.77.44,2.4,0,3.02-3.32,4.7-9.85,8.87-13.61,13.61l-1.51-16.63-6.05-4.54Z"/>
  <path d="M733.86,21.16c-4.72.63-10.82-.91-15.12,0-1.21.27-9.43,5.74-10.58,7.56-.88,1.36-2.21,7.01-3.02,9.07-.51,1.3-2.78,1.94-3.02,3.02-1.84,8.34,2.87,13.94,3.02,21.16,11.58,11.88,28.94,9.98,39.31-3.02l3.02-21.16-13.61-16.63ZM738.4,55.93c-.21,1.18-4.69,2.72-3.02,7.56l-13.61,3.02-10.58-7.56v-21.16c6.38-9.4,13.61-7.89,24.19-7.56-1.66,4.84,2.81,6.38,3.02,7.56.67,3.87.64,14.27,0,18.14Z"/>
  <path d="M789.79,21.16c-7.51.27-15.15-.38-22.68,0-5.81.3-9.66-1.45-13.61,4.54l19.65,1.51,4.54,4.54-24.19,34.77h33.26l-1.51-6.05c-3.55,4.64-9.92,3.13-15.12,3.02-4.63-.1-8.76,2.19-7.56-4.54l24.19-27.21,3.02-10.58Z"/>
  <path d="M593.26,24.19v45.35c6.47.26,5.76,1.37,6.05-4.54.39-8.03-.39-16.16,0-24.19.24-4.89,2.5-8.61,6.05-4.54l6.05,19.65,15.12,16.63c.43-4.38-.66-9.43,0-13.61.18-1.14,2.9-1.92,3.02-3.02,1.09-10.06-.78-21.49,0-31.75-3.47-4.13-5.81-.38-6.05,4.54-.24,4.92.65,10.51,0,15.12-.26,1.86-6.21,3.58,0,10.58h-6.05c1.11-5.09-4.24-9.5-6.05-13.61-.74-1.69.74-4.36,0-6.05-.89-2.02-5.95-10.14-7.56-10.58h-10.58Z"/>
  <path d="M281.84,60.47l-9.07,1.51-3.02,19.65c5.37-.64,13.43-19.86,12.09-21.16Z"/>
  <path d="M198.69,12.09c-1.96,0-1.96,3.02,0,3.02s1.96-3.02,0-3.02Z"/>
  <path d="M183.26,6.95c.59,0-6.66,5.86-1.19,8.17,1.66,4.86-2.82,6.37-3.02,7.56-.89,5.05-1.03,28.66,0,33.26.24,1.07,2.43,1.71,3.02,3.02.43.94-.39,2.37,0,3.02,3.25,5.46,9.5,7,13.61,10.58,2.8-5.11,8.01-1.91,12.09-3.02,9.18-2.51,7.43-26.71,7.56-34.77.06-3.96-.92-6.51,3.02-9.07h-12.09c3.94,2.56,2.96,5.11,3.02,9.07.25,16.12,5.01,32.34-16.63,28.72l-7.56-10.58c-1.75-5.98,2.87-8.2,3.02-9.07,1.3-7.3.72-19.29-3.02-25.7h24.19v-6.05l7.56,3.02c7.22-2.1-5.34-6.8-.32-8.17"/>
  <path d="M198.69,12.09c1.96,0,1.96,3.02,0,3.02s-1.96-3.02,0-3.02Z"/>
</svg>