<?xml version="1.0" encoding="UTF-8"?>
<svg id="Layer_1" data-name="Layer 1" xmlns="http://www.w3.org/2000/svg" viewBox="0 0 453.33 524.11">
  <path d="M23.16,241.32c1.73-.25,12.3-.35,13.57,0,.41.11,1.09,1.39,1.51,1.51.64.18,1.62-.18,2.26,0,.89.24,2.75,2.19,3.02,2.26,4.51,1.29,8.12,5.54,10.93,9.43,2.38,3.29,3.81,6.64,5.28,10.56-.78,12.73,1.05,26.64,0,39.21-.02.27-.72.48-.75.75-.25,2.35-.53,5.37,1.51,6.79-1.2,3.51-.73,7.45-2.26,11.31-1.03,2.61-2.85,4.63-4.52,6.79-3.12,4.01-5.95,6.48-10.93,7.92-.42.12-1.09,1.39-1.51,1.51-.63.17-1.59-.16-2.26,0-.3.07-.47.71-.75.75-1.15.19-2.6-.18-3.77,0-.28.04-.48.73-.75.75-2.01.21-7.21.33-9.05,0-1.7-.3-4.27-2.65-6.03-3.02-.9-.19-2.21.22-3.02,0-.63-.17-8.45-7.42-9.42-8.67-1.57-2.02-3.73-6.43-4.52-9.05-.54-1.76-.45-3.57-.75-5.28-.07-.38-1.19-1.13-.75-3.02,1.12-4.87.25-8.92,0-14.33-.53-11.17.39-22.72,0-33.94,1.31-1.85,1.56-4.42,2.26-6.79.08-.27,2.75-4.18,3.02-4.52,2.1-2.69,7.85-7.83,10.93-8.67.64-.18,1.62.18,2.26,0,.41-.11,1.09-1.39,1.51-1.51.63-.17,1.59.16,2.26,0,.3-.07.48-.71.75-.75ZM29.95,253.38c-1.92,1.24-5.24.87-7.54,1.51-.4.11-1.62,1.77-2.26,2.26-.16.12-.6-.12-.75,0-.95.76-3.55,3.24-4.15,4.15-.21.32-.54,1.78-.75,2.26-.14.31-.65.46-.75.75-.16.42.14,1.03,0,1.51-.09.31-.7.47-.75.75-1.44,8.07,1.07,20.12,0,28.66,1.74,1.26.1,1.8,0,2.26-.8,3.58.07,13.18.75,16.59.14.69-.16,1.62,0,2.26.12.46,1.35,1.51.75,3.02.95,1.05,2.09,1.95,3.02,3.02,1.21,1.4.67,1.26,2.64,2.64.72.5,3.39,2.91,3.77,3.02.47.14,1.06-.14,1.51,0,.31.1.48.7.75.75.85.15,2.88.13,3.77,0,.28-.04.48-.72.75-.75,1.63-.18,3.83.31,5.28,0,.17-.04,2.69-1.32,3.02-1.51.51-.29.97-1.13,1.51-1.51.17-.12.6.12.75,0,2.26-1.67,3.31-4.7,5.65-6.41.13-1.72-.18-3.6,0-5.28,1.28-11.85.88-25.11,0-36.95-.29-3.95.03-7.59-.75-11.31-1.08-1.7-2.04-3.51-3.02-5.28-.12-.21.1-.59,0-.75-1.11-1.73-5.15-2.13-6.41-4.15l-6.79-1.51Z"/>
  <path d="M451.77,72.4h-1.51v1.51l-2.26,1.13v3.39l3.02-.75c-.11,1.09.17,2.36,0,3.39s-1.1,3.85-1.51,5.28c-.12.43-2.89,3.34-3.02,3.77-.38,1.33-.65,2.59-1.51,3.77-3.44,4.74-8.6,7.91-13.95,9.43-.3.09-.47.7-.75.75-.89.18-2.1-.17-3.02,0-.29.05-.47.7-.75.75-2.1.38-3.22-.69-3.77-.75-2.13-.26-4.71.3-6.79,0-.28-.04-.46-.69-.75-.75-.68-.15-1.63.17-2.26,0-.34-.09-1.82-1.34-2.26-1.51s-1.1.18-1.51,0c-4.68-2.03-7.86-6.75-11.69-10.18-.38-1.93-.9-3.97-1.51-6.03-.13-.42-1.39-1.09-1.51-1.51-.26-.96.17-2.62,0-3.77-.04-.28-.73-.48-.75-.75-.4-3.86-.27-10.37,0-14.33.14-2.09,1.02-4.42.75-7.54-.44-5.21-.54-10.01,0-15.08.48-4.47-.63-10.02,0-14.33.03-.19.58-2.39.75-3.02.09-.34,1.37-1.85,1.51-2.26.32-.91.47-2.8.75-3.77.16-.55,2.11-1.72,2.26-2.26.14-.5-.18-1.15,0-1.51,1.37-2.73,6.77-7.81,9.42-9.43,6.41-3.92,13.97-4.08,21.86-3.77,2.27,1.51,4.71,2.18,7.54,3.02.19.06,2.73,2.03,3.02,2.26,3.01,2.4,7.17,7.63,8.67,10.93.72,1.58.43,1.99.75,3.02.16.5,1.45,2.69,1.51,3.02.28,1.55-.18,3.61,0,5.28.27,2.55.99,5.13.75,8.3-.26,3.44-1.53,6.46-.75,9.8.44,1.87-.71,2.72-.75,3.02-.48,3.28.76,20.73,0,21.49ZM403.52,74.66l2.26,1.13.75,6.79c2.06,1.69,2.37,2.29,3.02,4.52.44,1.54,4.27,2.65,5.65,3.39.52.28,1.12,1.4,1.51,1.51,1.02.28,7.71.2,9.05,0,.28-.04.46-.68.75-.75.67-.16,1.63.17,2.26,0,.38-.11.99-1.23,1.51-1.51,2.01-1.08,3.3-1.24,4.9-3.39.12-.16-.12-.59,0-.75.51-.69,2.92-3.44,3.02-3.77.17-.63-.16-1.59,0-2.26.07-.3.71-.48.75-.75.3-2.05-.18-4.62,0-6.79.53-6.39,1.33-14.74,1.51-21.12.19-6.91.05-13.94-.75-20.36-.51-4.03.23-4.63-2.26-8.3-.87-1.28-2.07-1.44-1.51-3.77l-1.13-1.13-1.51.75c-.82-.86-3.64-2.82-4.52-3.02-.94-.21-8.24-.22-9.05,0-.41.11-1.09,1.39-1.51,1.51-.46.13-1.04-.13-1.51,0-.41.12-1.61,1.76-2.26,2.26-.16.12-.6-.12-.75,0-.62.49-4.07,3.87-4.15,4.15-.14.5.18,1.13,0,1.51-.25.54-1.33,1.79-1.51,2.26-.14.37-.73,2.14-.75,2.26-.18,1.02-.84,7.16-.75,7.54.73,3.11.29,2.15,0,4.52-.83,6.73.61,14.95,0,21.87l-2.26,1.13c.94,1.78,1.87,3.17,1.51,5.28l-2.26,1.13v4.15Z"/>
  <path d="M291.56,0l1.13,1.13c-.14,3.51.19,7.06,0,10.56-1.14,21.23-.49,44.87-2.26,64.85v28.28c-1.74.33-3,1.1-4.9.75-.29-.05-.48-.72-.75-.75-1.33-.16-6.91.25-7.16,0-.13-1.33.19-2.87,0-4.15-.56-3.74.57-6.69,0-10.56-.04-.3-1.19-1.14-.75-3.02,2.84-12.17-1.39-29.47.75-41.48.4-2.22.48-4.99.75-7.54.53-4.99-.39-10.75,0-15.84l-1.88-1.13c-.35.83-1.28.62-1.51.75-2.04,1.25-7.82,8.71-9.05,9.05-1.07.29-2.91-.2-4.15,0v-13.95c0-.52,1.85-2.42,2.26-3.02.12-.18-.11-.6,0-.75,3.39-4.51,9.52-8.69,13.19-13.2h14.32Z"/>
  <path d="M91.39,318.99v16.21c-2.47,2.02-4.69,5.31-7.16,7.16-1.08.81-3.47,2.1-4.9,2.26v1.51l-3.77,1.51c.21-2.8-.29-5.92,0-8.67.41-3.83.42-8.03.75-12.07.14-1.66-.6-7.92,1.13-7.92h13.95Z"/>
  <path d="M232.38,497.72c-.24,2.77.33,5.97,0,8.67-.03.28-.7.46-.75.75-.39,2.15.67,3.43.75,5.28l-3.39,3.39-1.51-2.26c-.49.66-1.51,1.25-1.88,1.89-.08.14-.73,1.42-.75,1.51-.24.86.42,2.91-1.13,3.39-1.75.54-2.01-3.53-3.77-3.02-1.09.32-1.4,2.41-1.13,3.39.17.62,2.03,1.18,1.51,2.64l-3.02.75.75-26.39c1.21.41,1.59-.7,1.88-.75,1.76-.31,7.96-.27,9.8,0,.24.03,1.32,1.35,2.64.75ZM225.59,498.47h-1.51l-.75,1.89,1.13,2.64c1.64-1.08,1.08-2.71,1.13-4.52ZM227.85,507.52h-1.51l1.13,1.51h.38v-1.51ZM220.32,512.8c.3.37,1.99-1.32,1.51-2.26-.3-.37-1.99,1.32-1.51,2.26Z"/>
  <path d="M207.5,206.63c-.55-2.56,1.86-1.2,3.39-1.51.43-.09,1.14-1.19,3.02-.75,5.46,1.28,10.33.23,15.08.75,6.01.22,12.09-.3,18.09,0,1.47.07,1.2-.11,1.13,1.51h-40.71Z"/>
  <path d="M279.5,208.14c-.62-.17-1.38-1.45-1.13-2.26,3.99.49,9.41-.67,13.19,0,.21.04.79,1.2,2.26.75.31-.09.48-.7.75-.75,1.77-.32,4.15.22,6.03,0l1.88,2.26h-22.99Z"/>
  <polygon points="274.6 207.38 259.52 207.38 260.65 205.87 273.47 205.87 274.6 207.38"/>
  <circle cx="191.68" cy="305.4" r=".93"/>
  <g>
    <path d="M333.4,193.81v12.82h-28.65c-.25,1.64,1.23,2.69,2.64,2.26,1.1-.34,1.73-1.13,3.77-.75,6.57,1.2,13.41.33,20.36.75,7.22.45,15.03,3.28,21.86,2.26,3.7-.55,9.61,2.09,12.82,1.51.39-.07,1.14-1.19,3.02-.75,5.43,1.27,11.6.66,16.59,3.02h.75c1.69-1.6,4.52-1.88,6.79-1.51.29.05.5.75.75.75.13,0,.75-1.19,2.26-.75.92.26,1.67,2.9,3.77,2.26.31-.09.48-.7.75-.75,2.65-.47,5.58.11,5.65,3.02.84-.1,1.87.16,2.64,0,.29-.06.48-.72.75-.75,2.92-.37,6.78.84,9.05-.75,2.57,1.4,3.31,3.65,6.79,3.02.28-.05.46-.68.75-.75,3.06-.72,3.48,1.98,4.52,2.26,1.15.32,4.76-.14,5.65.75.1.1-.26,1.37,1.13,2.26s2.79,2.47,3.77,3.02c.36.2.99-.14,1.13,0s-.2.77,0,1.13c.39.7,2.12,1.76,2.26,2.26.58,2.09-.44,5.1,1.51,7.54-1.5,4.04-.56,9.63-.75,14.33-1.23,29.54-2.59,59.08-3.77,88.99-.65,16.46-2.44,33.57-3.02,49.77-.22,6.27.16,12.58,0,18.85l-1.13,1.13c-2.74-.13-5.56.19-8.29,0-25.87-1.78-53.81-1.87-79.92-2.26-11.03-.17-27.55,1.48-37.7,0-16.24-2.38-36.59.72-54.28-.75-6.62-.55-15.04.09-21.86-1.51-1.61-.38-5.22,1.14-6.79,1.51-4.6,1.08-9.13,1.99-13.57,3.02-.3.07-.47.7-.75.75-1.01.19-2.31-.12-3.39,0-.09-.6.16-1.42,0-1.89-.42-1.28-2.78-4.2-3.02-5.28-.34-1.56-.31-2.75-.75-4.52-4.87-19.56-1.86-50-3.02-71.64-1.11-20.78-.92-42.65,0-63.35.46-10.37-1.83-20.17,0-30.16.37-2.02-.39-4.39,0-7.54.67-5.47-1.2-15.93,0-20.36.17-.62,2.03-1.18,1.51-2.64h-3.39l-1.13,1.13v3.39c-1.89-.38-2.59.6-3.77,1.89-.14,11.81.19,23.64,0,35.44-.52,32.08-1.28,65.29-.75,96.53-1.39.73-.13,5.66-1.88,5.66h-13.95v-36.57c-1.74-1.26-.1-1.8,0-2.26,1.32-5.88-1.11-16.34,0-22.62.05-.3,1.17-.67.75-1.89h-1.51c.1-.84-.16-1.87,0-2.64.34-1.66,1.07-2.76.75-5.28-1.36-10.94-.18-22.39,0-33.18.19-11.31-.14-22.63,0-33.94l-1.13-1.13h-114.6c-4.43-.44-9.56-.36-14.32-.75-1.66-.14-7.92.6-7.92-1.13v-14.33l1.13-1.13c4.2.23,8.66-.31,12.82,0,7.27.55,16.17.38,23.37,0,52.51,1.08,109.83,1.15,162.1.75,9.11-.23,21.81,2.13,30.91,0,.47-.11,1.8-.11,2.26,0,15.53,3.63,38.83-1.73,55.04,1.51.78.16,1.79-.1,2.64,0ZM207.5,206.63h40.71c.06-1.61.34-1.44-1.13-1.51-6-.3-12.08.22-18.09,0-4.75-.52-9.62.52-15.08-.75-1.87-.44-2.58.67-3.02.75-1.53.31-3.95-1.05-3.39,1.51ZM251.23,205.87h-1.51v.75h1.51v-.75ZM274.6,207.38l-1.13-1.51h-12.82l-1.13,1.51h15.08ZM279.5,208.14h22.99l-1.88-2.26c-1.88.22-4.26-.32-6.03,0-.28.05-.44.66-.75.75-1.47.45-2.05-.72-2.26-.75-3.78-.67-9.2.49-13.19,0-.25.81.51,2.1,1.13,2.26ZM362.43,312.2h-19.98l.75,2.64,35.06,35.82c1.9.54,3.13-1.88,4.52-3.02,10.88-8.94,20.87-19.75,31.67-29.41.14-.12.61.13.75,0,.69-.61,4.21-3.78,3.39-4.52-2.61-.13-5.31.18-7.92,0-.27-.02-.49-.74-.75-.75-3.87-.22-7.82.16-11.69,0-.12-1.85.18-3.83,0-5.66-.03-.27-.73-.49-.75-.75-.72-9.37-.6-16.22-3.77-24.89-1.49-4.06-2.96-8.1-5.28-12.07-37.89-71.38-146.53-56.9-162.85,23.38-.69,3.41-1.98,7.82-2.26,11.31-.58,7.1-.05,14.84,1.51,21.12,3.48,14.01,9.45,28.88,18.85,40.72,13.47,16.99,29.61,25.15,49.38,29.79,2.15.5,3.92.44,6.03.75.28.04.48.72.75.75,1.15.14,3.4.16,4.52,0,.23-.03,1.62-1.38,3.02-.75l1.13-1.13c.53-7.8-.72-16.45,0-24.13.03-.27.72-.48.75-.75.34-2.75-.48-4.75-.75-7.16-1.09-.11-2.35.16-3.39,0-1.98-.31-4.8-1.01-6.79-1.51-8.07-2.01-13.77-4.86-20.36-9.8-.16-.12-.44-.08-.75,0-30.1-24.67-24.58-73.28,11.31-89.74,9.39-4.54,19.46-5.77,30.16-4.52.28.03.47.71.75.75,4.21.63,7.07,1.01,11.31,2.26.42.13,1.09,1.39,1.51,1.51,7.29,2.1,14.48,7.96,19.23,13.95,3.09,3.9,3.77,5.61,6.03,9.8.28.52,1.4,1.12,1.51,1.51.74,2.69,1.43,5.46,2.26,8.3.88,3.01,1.92,6.61,2.26,9.8.18,1.68-.13,3.56,0,5.28l-1.13,1.13ZM192.62,305.4c0-.52-.42-.93-.93-.93s-.93.42-.93.93.42.93.93.93.93-.42.93-.93ZM419.55,325.01c0-.52-.42-.93-.93-.93s-.93.42-.93.93.42.93.93.93.93-.42.93-.93Z"/>
    <circle cx="418.62" cy="325.01" r=".93"/>
  </g>
  <rect x="249.72" y="205.87" width="1.51" height=".75"/>
  <g>
    <path d="M380.9,1.51c-.2,1.78.28,3.96,0,5.66-.05.29-.75.5-.75.75s.71.47.75.75c.41,2.46.25,5.01-1.88,6.41l-42.97-.75-1.13,1.13c-.13,2.74.18,5.56,0,8.3-.02.27-.74.49-.75.75-.16,2.75-.53,12.33,0,14.33.05.2,1.13,1.5,1.51.75.64-.79,1.86-.16,2.64-.38.34-.09,1.98-1.45,2.26-1.51,1.9-.41,4.89.41,6.79,0s3.35-2.46,6.79-1.51c.41.11,1.09,1.39,1.51,1.51,1.18.32,3.24-.28,4.52,0,2.45.54,4.4,3.62,7.54,4.52.38.11,5.14,4.95,5.65,5.66.86,1.18,1.13,2.44,1.51,3.77.12.42,1.39,1.09,1.51,1.51.23.82-.23,2.19,0,3.02.11.41,1.39,1.09,1.51,1.51.26.96-.17,2.62,0,3.77.04.28.73.48.75.75.4,3.86.35,11.18,0,15.08-.02.27-.72.47-.75.75-.18,1.41.27,3.26,0,4.52-.18.83-2.19,2.77-2.26,3.02-.18.64.18,1.62,0,2.26-.77,2.83-7.43,10.45-10.18,12.44-.4.29-7.04,3.66-7.54,3.77-4.47.97-9.46.73-14.32.75-1.85-1.31-4.42-1.56-6.79-2.26-.48-.14-1.56-1.8-2.26-2.26-.31-.21-1.95-.55-2.26-.75-1.23-.82-8.48-8.75-8.67-9.43-.56-1.94-2.04-4.04-2.26-5.28-.26-1.45.18-3.36,0-4.9,2.31.04,4.26-.6,5.65,1.51l6.41-.75c-.38,1.24.51,1.36.75,1.89,1.79,3.86,2.01,3.36,4.9,5.66.88.7,3.82,3.58,4.52,3.77,1.16.32,3.19-.24,4.52,0,.21.04.79,1.2,2.26.75l4.9-1.51c-.32.95.77,2.6,1.88,2.26l1.13-1.51-2.26-1.51c1.45.36,1.77-.89,2.64-1.51,2.42-1.71,2.45-1.63,4.15-4.15.45-.66,2.21-2.84,2.26-3.02.13-.47-.14-1.06,0-1.51.1-.31.7-.48.75-.75.45-2.52-.19-6.26,0-9.05.02-.27.73-.48.75-.75.12-1.41.29-5.74,0-6.79-.11-.41-1.39-1.09-1.51-1.51-.38-1.34-.43-3.35-.75-4.52-.09-.33-4.32-4.52-4.9-4.9-.32-.21-1.85-.53-2.26-.75-.49-.27-.97-1.13-1.51-1.51h-8.29c-.28.05-.45.68-.75.75-1.09.27-2.72.44-3.77.75-1.34.4-3.16,2.95-6.03,3.77-.54.16-1.73,2.12-2.26,2.26-1.03.28-9.98.23-11.31,0-.3-.05-.67-1.17-1.88-.75l.75-54.67,1.13-1.13c.97-.1,2.1.15,3.02,0,.29-.05.5-.75.75-.75s.47.71.75.75c7.79,1.3,23.78.37,32.42.75,5.37.24,12.19.66,16.59,0,1.28-.19,2.82.13,4.15,0ZM362.81,43.74v-1.51h-.75v1.51h.75Z"/>
    <rect x="362.05" y="42.23" width=".75" height="1.51"/>
  </g>
  <g>
    <path d="M117.78,280.15c.11.39,1.24,1.37,1.88,1.13.3-.09.45-.66.75-.75,2.69-.87,5.86-1.76,8.29-2.26,4.8-.98,10.23-1.2,14.32,1.51,8.34.72,12.97,7.85,17.72,13.95-.88,2.15,1.33,3.11,1.51,3.77.42,1.52-.16,4.84,0,6.79.02.27.74.49.75.75.18,2.73.43,8.88,0,11.31-.2,1.11-1.93,4.03-2.26,5.28-.17.64.18,1.62,0,2.26-.09.33-2.51,3.09-3.02,3.77-2.22,2.99-3.87,5.14-7.16,7.16-1.21.74-5.89,3.58-6.79,3.77-1.26.27-3.12-.18-4.52,0-.28.04-.48.73-.75.75-2.39.22-8.4.38-10.56,0-.28-.05-.45-.68-.75-.75-4.35-1.08-7.9-2.7-11.31-5.28-1.27-.96-1.54-2.24-1.88-2.64-1.87-2.16-2.19-1.62-3.02-4.52-.12-.44-2.88-3.32-3.02-3.77-.41-1.38-1.35-3.74-1.51-4.52-3.03-14.84.7-35.44-.75-51.28,1.46-1.17.44-3.52.75-5.28.05-.28.67-.45.75-.75,2.1-7.37,6.06-11.69,12.44-15.46.52-.31,1.13-1.4,1.51-1.51,1.36-.39,3.24-1.39,3.77-1.51,1.56-.34,2.74-.31,4.52-.75,2.43-.61,6.33-1.24,9.05-.75.28.05.45.68.75.75,2.4.6,5.25.88,7.54,1.51.53.15,1.72,2.11,2.26,2.26.46.13,1.04-.13,1.51,0,.54.15,7.76,7.38,7.92,7.92.13.46-.13,1.04,0,1.51.31,1.08,3.67,2.27,3.02,4.52-.23.81-1.75,1.41-2.64,1.13-.31-.1-.48-.71-.75-.75-2.73-.48-7.46.65-9.8,0-.34-.1-4.09-3.85-5.28-4.52-.33-.19-2.85-1.46-3.02-1.51-.63-.17-1.58.15-2.26,0-.29-.06-.47-.7-.75-.75-.68-.12-2.33-.12-3.02,0-.29.05-.47.7-.75.75-.91.17-2.13-.18-3.02,0-.28.06-.44.65-.75.75-.45.14-1.04-.14-1.51,0-.35.1-.99,1.16-1.51,1.51-.18.12-.6-.11-.75,0-.77.56-6.28,5.97-6.41,6.41-.14.5.18,1.13,0,1.51-.21.45-1.51,2.13-1.51,2.26,0,3.27-.65,11.92,0,14.33ZM115.52,275.25v-2.26h-.38l-1.13,1.13v1.13h1.51ZM150.2,300.52c-.16-.47.17-1.09,0-1.51-.57-1.43-3.46-5.34-4.9-6.41-.16-.12-.59.12-.75,0-1.27-.94-2.59-1.96-3.77-3.02-2.9.25-6.23-.35-9.05,0-.28.03-.47.7-.75.75-.93.16-2.14-.19-3.02,0-.24.05-1.78,1.22-2.26,1.51-.19.12-.58-.11-.75,0-.47.3-1.51,1.39-1.88,1.89-1.11,1.46-2.96,3.67-3.77,5.28-.18.36.14,1.01,0,1.51-.12.42-1.39,1.09-1.51,1.51-.45,1.64.29,4.82,0,6.79-.04.3-1.19,1.14-.75,3.02.07.29.68.46.75.75.16.67-.16,1.61,0,2.26.07.29.67.46.75.75.32,1.2.34,3.2.75,4.52l5.65,5.66c1.86-.63,4.68,2.1,5.28,2.26.84.23,6.49.19,7.54,0,.28-.05.44-.65.75-.75.45-.14,1.04.13,1.51,0,.18-.05,2.35-1.81,3.02-2.26,2.89-1.95,3.7-2.77,5.65-5.66.35-.51,1.41-1.16,1.51-1.51.18-.64-.18-1.62,0-2.26.11-.41,1.39-1.09,1.51-1.51.29-1.06.21-8.4,0-9.8M154.35,289.58l-1.13,1.13,1.13,1.13,1.13-1.13-1.13-1.13ZM114.77,303.91c.38-2.2-.43-4.41-3.02-4.52l.75,4.52h2.26Z"/>
    <path d="M114.77,303.91h-2.26l-.75-4.52c2.58.11,3.39,2.33,3.02,4.52Z"/>
    <rect x="153.55" y="289.91" width="1.6" height="1.6" transform="translate(-160.35 194.25) rotate(-44.99)"/>
    <polygon points="115.52 275.25 114.01 275.25 114.01 274.12 115.14 272.99 115.52 272.99 115.52 275.25"/>
  </g>
  <g>
    <path d="M150.95,441.91c-.57,1.37.72,2.42.75,2.64.21,1.4-.24,3.17,0,4.52.05.28.65.44.75.75.14.45-.14,1.04,0,1.51.25.88,4.73,2.97,6.03,2.64-.57,2.43,2.07,2.85,1.51,5.28,1.94-.46,1.82,1.26,2.26,1.89.59.83,2.87,2.5,3.02,3.02.53,1.93-.65,4.81.75,6.79l-1.51,2.26.75,3.77c-1.13.62-.54,1.52-.75,2.26-.19.65-3.1,2.75-3.77,3.77-.26.39-2.94,5.7-3.02,6.03-.2.92-.22,7.51,0,8.3.13.48,1.84,1.6,2.26,2.26l-.75,3.39c3.19-1.34,4.64,1.97,5.65,2.26,2.24.64,4.7,1.78,6.79,2.26,1.06.25,2.29-.5,3.02.75l1.88-.75v-1.51l6.79-.75c.38-3.2,4.28-3.68,5.65-6.79l.75.75,1.13-1.13-1.51-2.26c2.79-4.03,1.15-7.89-.75-12.07l-5.65-7.16-1.51-.75-5.65.75c-.16-1.03.24-2.51,0-3.39-.19-.7-2.21-1.19-1.51-3.77l1.88-1.13,2.26.75,1.13-1.13c-.61-3.44,1.8-6.19,5.28-5.66-.24-1.69,1.61-2.52,2.64-3.77l1.88,3.39c-1.26,2.14-6.03,3.41-5.28,6.03.12.42,1.39,1.09,1.51,1.51.4,1.47-.26,4.26,0,6.03.03.24,1.34,1.32.75,2.64h2.26c-.15-2.08.22-4.37,0-6.41-.03-.27-.71-.47-.75-.75-.26-1.78-.03-5.09,1.88-5.66s2.4,1.34,3.02,1.51c.89.24,2.36-.16,3.39,0-.08,2.12-2.19,2.42-1.51,4.9.49.92,3.67,4.18,3.77,4.52.49,1.72.8,2.25,1.51,3.77.37.8,2.15,4,2.26,4.52.31,1.44.28,9.76,0,11.31-.11.59-1.13,3.24-1.51,4.52-.06.21-1.87,2.12-2.26,3.02-.18.42.18,1.09,0,1.51-.46,1.05-7.05,8.42-7.92,8.67-1.6.46-2.31.7-3.77,1.51-3.25,1.8-3.24.9-6.03,1.51-.26.06-2,1.45-2.26,1.51-1.37.3-9.07.26-10.56,0-.28-.05-.45-.68-.75-.75-1.35-.33-3.36-.43-4.52-.75-.53-.15-1.72-2.11-2.26-2.26-.95-.27-4.5-1.87-4.9-2.26-.14-.14.2-.77,0-1.13-.79-1.42-4.34-3.2-6.03-6.03-.78-1.31-.46-2.69-.75-3.77-.11-.41-1.39-1.09-1.51-1.51-.18-.64.17-1.62,0-2.26-.63-2.34-2.01-3.41-1.51-6.79.04-.28.72-.48.75-.75.2-1.85-.35-4.4,0-6.03.24-1.13,2.87-4.76,3.02-5.28.23-.79.24-2.21.75-3.02.75-1.18,1.68-1.29,3.02-1.13-.27-1.64.39-4.24,0-5.66-.13-.46-1.81-1.57-2.26-2.26-.21-.31-.55-1.95-.75-2.26-.46-.7-2.13-1.79-2.26-2.26-.51-1.78-.45-3.55-.75-5.28-.05-.29-.72-.48-.75-.75-.49-3.97.36-8.74,0-12.82l1.88-1.89,2.64.75ZM192.42,472.08c.06-1.62.31-2.81-1.13-3.77-2.04,1.48-1.32,3.86,1.13,3.77Z"/>
    <path d="M189.4,429.85c1.96.24,4.22,1.17,3.77,3.39.8.93-.12,2.38.75,4.15,2.94.89,3.33,3.32,6.41,5.28,1.33.85,1.24,2.73,1.88,4.15l-4.15,2.64c-.87-1.63-6.63-.22-7.16-.75l-2.26-7.92c-3.11-3.34-6.62-6.08-11.31-6.41-.25-3.73,2.26-4.49,4.9-6.03l1.51.75,1.13-1.13c-1.41-1.06-.7-1.74.38-2.64l1.88,2.64c-1.49,1.39-2.73,2.23-2.26,4.52,2.35,2.79,4.24.06,4.52-2.64Z"/>
    <path d="M175.08,429.85l-.75,3.77c-1.15-.43-2.69,1.36-3.39,1.51-1.49.32-2.89-.22-4.52.75-.7.42-1.78,2.13-2.26,2.26-1.24.34-3.46-.24-4.9,0-.22-1.36,0-1.66.75-2.64.46-.6,3.86-4.07,4.15-4.15.97-.27,2.48-.12,3.02.75,2.08-2.6,4.86-2.39,7.92-2.26Z"/>
    <path d="M159.25,443.42h-2.26c.48.94-1.2,2.64-1.51,2.26l-.75-3.02c-2.6-.08-3.45-2.42-3.02-4.9.05-.3,1.17-.68.75-1.89l3.39.75,2.64,2.64.75,4.15Z"/>
    <path d="M171.31,475.85l-1.13,1.51-3.39.75c-.13-2.71,2.26-2.35,4.52-2.26Z"/>
    <path d="M197.7,463.78c-.35-1.78.62-3.04,2.26-3.77.21,2.07.08,3.93-2.26,3.77Z"/>
    <path d="M192.04,460.01c.49,0,.49.75,0,.75s-.49-.75,0-.75Z"/>
    <path d="M192.42,472.08c-2.46.09-3.17-2.29-1.13-3.77,1.44.96,1.19,2.15,1.13,3.77Z"/>
  </g>
  <g>
    <path d="M279.88,423.06c.42,1.21-.7,1.59-.75,1.89-.76,4.32-1.46,7.44-3.02,11.31-1.45,3.59-1.47,9.95-5.28,10.93l.75,3.39c-1.15.6-.52,1.67-.75,2.26-1.56,3.85-2.88,7.76-4.52,11.31-1.85,4-3.03,8.51-4.52,12.82-.54,1.55-2.56,8.16-3.39,8.67-.95.58-1.55-.68-1.13,2.64,1.46,2.19,2.14.45,2.64.38,1.45-.2,3.12-.67,3.77-.75,5.12-.63,11.32.46,16.59,0,2.21-1.36,1.49-2.46,1.88-4.15.07-.3.71-.48.75-.75.32-2.21-.84-5.73-.75-6.03s.69-.46.75-.75c.44-1.88-1.03-3.03-.75-4.9.37-.35,8.45.29,10.18,0,.29-.05.5-.75.75-.75l1.13,1.89c-.98.67-.97,2.57-.75,3.77.52,2.84,1.3,6.49.75,9.8-.05.29-.75.5-.75.75,1.06,1.81,2.66.8,4.15,1.13.09.02,1.36.67,1.51.75,1.15.69,1.73,2.68,3.39,2.26v6.41l-2.64,1.89c-2.26-2.3-4.57,1.16-7.16.75.02,2.05,2.12,2.28,1.51,4.9-.85,3.65-.39,2.95,0,6.03.17,1.37.34,5.25-1.13,5.66-1.76.49-2.69-.71-3.02-.75-2.55-.37-4.92.21-7.16,1.13-.38.75-1.46-.56-1.51-.75-.14-.53-.11-2.4,0-3.02.05-.29.72-.48.75-.75.5-4.09-.37-9,0-13.2-1.33-.13-2.87.19-4.15,0-.28-.04-.46-.68-.75-.75-1.87-.44-2.72.71-3.02.75-3.3.48-7.51-.35-10.93,0v-1.51c-.61.08-1.38-.14-1.88,0-.45.13-2.69,1.45-3.02,1.51-1.01.19-2.31-.12-3.39,0v-3.02c-2.2-.91-3.21,1.98-4.15,2.26-1.45.43-2.14-1.32-3.02,0-.26-.41-1.05-.82-1.13-1.13-.27-1-.26-13.12,0-14.33.14-.66,2.06-3.03,2.26-3.77.18-.65-.2-1.67,0-2.26,1.13-3.4,3.65-7.36,4.52-10.56.71-2.59-.83-1.67,1.88-3.39,1.12-.71.98-1.88,1.88-2.64-1.31-1-.6-2.9-.75-4.52l3.02-2.26c-.69-3.37,3.02-4.15,3.77-4.9.12-.12.15-2.13,1.51-2.64l-.75-3.02c.57-.79,1.81-1.51,2.26-2.26,1.78-2.99-.43-4.63,0-6.03.89-2.92.36-4.09.75-6.79.04-.28.68-.46.75-.75.16-.67-.17-1.63,0-2.26.23-.84,2.87-1.83,2.26-3.39,1.03.16,2.51-.24,3.39,0,1.47.41-.14,1.88,3.77.75.95-.27,1.41,1.14,2.64.75ZM265.93,448.7c-1.51.76-6.08,3.95-3.39,5.66.92.59,1.93.77,2.64,1.89.37-.58,1.76-1.45,1.88-1.89.14-.47-.14-1.06,0-1.51.21-.67,1.23-1.26.75-3.02l-1.88-1.13ZM273.84,493.19l-2.26,1.13v1.89l2.26-1.13v-1.89ZM291.38,498.46c0-.52-.42-.93-.93-.93s-.93.42-.93.93.42.93.93.93.93-.42.93-.93ZM290.43,504.5c.35-4.2-3.07-3.42-5.28-1.13l1.88,1.89.75-.75c.89,1.38,1.11-.25,2.64,0Z"/>
    <path d="M265.93,448.7l1.88,1.13c.48,1.76-.54,2.35-.75,3.02-.14.45.14,1.04,0,1.51-.12.43-1.51,1.3-1.88,1.89-.71-1.12-1.72-1.3-2.64-1.89-2.69-1.71,1.88-4.9,3.39-5.66Z"/>
    <path d="M290.43,504.5c-1.53-.25-1.75,1.38-2.64,0l-.75.75-1.88-1.89c2.2-2.29,5.62-3.06,5.28,1.13Z"/>
    <polygon points="273.84 493.19 273.84 495.08 271.58 496.21 271.58 494.32 273.84 493.19"/>
    <circle cx="290.45" cy="498.46" r=".93"/>
  </g>
  <path d="M225.59,498.47c-.05,1.81.51,3.44-1.13,4.52l-1.13-2.64.75-1.89h1.51Z"/>
  <path d="M220.32,512.8c-.49-.94,1.21-2.64,1.51-2.26.49.94-1.21,2.64-1.51,2.26Z"/>
  <polygon points="227.85 507.52 227.85 509.03 227.48 509.03 226.35 507.52 227.85 507.52"/>
</svg>