<?xml version="1.0" encoding="UTF-8"?>
<svg id="Layer_1" xmlns="http://www.w3.org/2000/svg" version="1.1" viewBox="0 0 768.7 92.9">
  <!-- Generator: Adobe Illustrator 29.3.1, SVG Export Plug-In . SVG Version: 2.1.0 Build 151)  -->
  <g id="Shape_14">
    <path d="M713,63.4c-2.4,1.9-5.2,1.9-7.9,2-2.9.1-5.9-.3-8.8-.3-2.1,0-4.2.4-6.3.3-2.7,0-5.4-.3-8-.4-3.2,0-6.3,0-9.5,0-.9,0-2.2.4-2.5,1-.3.6.2,1.8.6,2.6,1.5,2.8,3.7,5,6.1,7,2,1.6,4.4,1.8,6.7,2.1,5.4.7,10.3-.7,14.8-3.6,2.7-1.7,5.7-2.3,8.7-1.4,4.2,1.3,6.3,7.2,2.7,11.3-1.3,1.5-3.1,2.6-4.8,3.7-1.4.9-3,1.9-4.6,2.4-3,1-6.1,2-9.3,2.4-4,.4-8.2.5-12.2,0-4.5-.6-8.9-1.9-12.7-4.4-5.3-3.5-10-7.8-12.2-14-1.4-4-2.5-8.2-2.9-12.3-.5-5.6.3-11.3,2.4-16.5,1.3-3.2,3.6-6,5.5-8.9,3.1-4.6,7.6-7.4,12.6-9.4,1.1-.5,2.2-1.3,3.4-1.5,1.8-.4,3.7-.5,5.5-.9,6-1.1,11.7,0,17.2,2.1,3,1.2,5.5,3.3,8.2,5.1,1,.6,1.8,1.4,2.7,2.3,2.4,2.3,4.1,5.1,4.9,8.4.4,1.5,1.3,2.9,1.8,4.4.8,2.1,1.8,4.1.6,6.7-.6,1.3.1,3.3.2,5,0,2.1-1.3,3.4-2.9,4.7M653.6,68.1c.3,2.2.9,4.2,2.5,5.7.1.1.3.3.2.5-.2,2.3,1.3,3.9,2.6,5.4,1.8,2.1,4.1,3.7,6.2,5.6.8.7,1.6,1.5,2.5,2.1,3.3,1.9,7.2,2.3,10.8,3.5,2.7.8,5.4-.9,8,.3.5.2,1.2.1,1.8,0,3.6-.7,7.5-1,10.9-2.3,3.3-1.2,6.3-3.3,9.1-5.5,1.1-.9,2.2-2.9,2-4.2-.3-2.5-2.3-4.2-4.9-4.8-2.1-.5-3.5.2-5,2.2-.3.3-1,.7-1.2.6-1.1-.6-2.1-.4-2.8.3-2.7,2.6-6.3,2.5-9.5,3.1-2.5.5-5.4-.9-8.2-1.4-.3,0-.7-.3-1-.5-2.4-2.3-5.8-3.6-7.3-6.9-.7-1.6-1.5-3.1-2-4.8-.4-1.3.2-2.5,1.6-2.8,1.5-.4,3.1-.5,4.6-.6,1.7,0,3.4,0,5.1,0,1.1,0,2.3-.4,3.4-.4,2.7,0,5.4.3,8.1.4,3.4,0,6.8.1,10.3,0,2.8,0,5.7-.6,8.5-.5,1.6,0,2.1-.6,2.7-1.7,1.1-1.9,2.2-3.9,1.9-6.3-.2-1.7,0-3.4-.5-5-.8-2.6-2.4-5.1-2.9-7.8-.9-4.6-4.2-7.1-7.6-9.6-.9-.6-2.6-.5-3-1.2-1.8-3.2-5.2-3.4-8.1-4.2-4.5-1.2-9.3-1.3-13.9,0-1.8.5-4-.6-5.6,1.1-.4.4-1,.8-1.6,1-4,1.3-7.3,3.7-10.2,6.7-.9.9-1.3,2.3-2.2,3.3-2.1,2.6-3.7,5.5-4.6,8.7-.4,1.2-.7,2.4-.8,3.6-.3,2-.4,4-.5,6.1,0,.4-.2.7-.2,1.1-.1,1-.4,2.1-.3,3.1.2,2,.6,3.9,1,6.2Z"/>
    <path d="M320.5,45.6c2.2,1.2,4.1,2.6,6.3,3.5,5,2,10.2,3.5,15,5.7,5.1,2.3,9.5,5.6,11.2,11.4.4,1.5.4,3.3.4,4.9.1,2.8.2,5.5-1.2,8.1-2.3,4.4-5,8.3-9.9,10.4-3.6,1.5-7.3,3-11,2.9-4.1,0-8.3.6-12.4-1.1-3.2-1.4-6.8-1.6-9.9-3.1-3.4-1.7-7.5-2.6-9.5-6.4-.2-.3-.5-.7-.5-1-.1-4.9.5-7.6,5.7-9.5,1.7-.6,3.5,0,5.2.9,3.2,1.7,6.6,3,9.9,4.5,3.8,1.8,7.9,1.2,11.9,1.1,3.2,0,5.6-4.2,4-6.8-.7-1.1-2.1-1.7-3.4-2.3-3.1-1.3-6.2-2.8-9.5-3.5-3.8-.8-7.3-2.5-10.7-4.1-5.2-2.4-8.4-6.8-9.4-12.3-1.3-7.6.6-14.6,6.9-19.5,3.2-2.5,7.2-4.4,11.4-4.9,3.5-.4,7.1-.5,10.6,0,3.9.5,7.9,1.5,11.6,2.8,2.5.9,4.8,2.4,6.8,4.1,2.5,2,2.7,4.9,1.4,8-1.2,2.9-3.5,4.1-6.6,4.3-3,.2-5.2-1.7-7.8-2.5-3.8-1.2-7.4-2.9-11.6-2.4-2.2.3-5.6,1.4-5.8,3.5,0,1.1.4,2.2.8,3.4M303.8,44.1c.1.7.4,1.4.3,2,0,.7-.5,1.6-.3,2.2,1.3,3.9,3,7.7,6.6,9.9,2.9,1.7,6.1,3,9.2,4.4.7.3,1.3.7,2,.8,5,.9,9.7,2.5,14,5.2,1.9,1.2,3.1,6,1.5,7.5-1.8,1.7-4,2.8-6.1,4.1-.2.1-.5,0-.8,0-1.8-.2-3.7-.5-5.5-.8-1.8-.3-3.6-.2-5.2-.9-3.5-1.5-6.8-3.4-10.3-5-1.3-.6-2.9-1-4.3-.9-2.5.2-4.6,3.1-4.7,6.9,0,1.8,1.5,3.3,3.2,4.2,3.5,1.7,6.8,3.7,10.7,4.7,4.6,1.2,9.1,2.6,13.9,2.1.9,0,1.7,0,2.6,0,1.7-.1,3.4,0,5-.6,2.6-.8,5-2,7.6-3,2.1-.8,3.9-1.9,4.9-3.9,1.3-2.4,2.6-4.8,3.5-7.3.5-1.5,0-3.2.1-4.8,0-1.1.2-2.2.3-3.3,0-.4,0-.8-.1-1.1-3.4-6.1-8.4-10.1-15.2-12.1-3.9-1.1-7.6-2.8-11.4-4.3-1.8-.7-3.5-1.8-5.2-2.8-2.2-1.3-2.2-3.5-1.9-5.5.3-1.5,1.3-2.6,2.9-3.5,2.1-1.2,4.1-1.4,6.3-1.4,2,0,4.3-1,5.9,1.3.2.2.7.2,1.1.3,2.3.7,4.6,1.1,6.7,2.1,1.5.7,2.8,1.4,4.6,1.2,1.8-.2,3.3-.9,4-2.5.9-2.2,1.5-5-.4-6.7-2.2-1.9-4.9-3.4-7.7-4.3-3.7-1.2-7.7-2.1-11.6-2.4-4.4-.4-8.9-.2-13.2,1.5-6.3,2.5-11.4,5.9-12.3,13.3-.1,1-.5,1.9-.8,3.3Z"/>
    <path d="M479.7,91.9c-1.9.4-3.5,1.1-5.1-.4-.6-.6-1.9-.4-2.6-.9-1.2-1-2.3-2.1-3.1-3.4-.9-1.4-1.5-1.7-3-.6-4.6,3.1-9.4,6.1-15.4,5.7-2.7-.2-5.6.4-8.2-.1-4.1-.8-8.1-2.4-11.4-5.1-1.9-1.6-3.6-3.8-4.5-6.1-1.9-4.9-2-9.9-.6-15.1,1.4-5.3,4.7-8.7,9.4-10.9,2.1-1,4.2-2,6.4-2.8,1.3-.5,2.8-.6,4.2-.6,3-.1,6-.2,9,0,2.7.1,5.4.4,8.1.8,1,.1,1.9.7,2.8.9.8.2,1.5.4,2.3.5,0-.6,0-1.2.1-1.8.1-2.4-.4-4.7-2-6.6-2.1-2.5-4.7-4.1-8.1-4.3-2.4-.1-4.8-.5-7.2-.3-2.2.1-4.3.9-6.5,1.1-3.6.4-7.1,1.9-10.7-.3-2.1-1.3-3.1-3.8-3.1-6.2,0-5.1,3.4-6.4,7.4-8.1,3.9-1.7,8-1.6,11.9-2.2,2-.3,4,0,6.1,0,1,0,2-.3,3-.4,6.4-.1,12.6,1.5,17.9,5,4.2,2.8,7.1,7.1,8.7,12.3.7,2.3,1.3,4.7,1.4,7,.2,4.4-.2,8.9-.3,13.3,0,2.7.3,5.5.3,8.2,0,3-.3,6-.4,9,0,1.2,0,2.4,0,3.7,0,4.6-2.7,7.1-6.8,8.7M481.7,37.7c-2.4-2.5-4.5-5.4-7.3-7.3-2.6-1.7-5.9-2.7-9-3.2-4.1-.7-8.5-1.2-12.6-.8-4.8.5-9.7,1-14.5,2.6-4.8,1.6-7.4,3.6-5.8,9.2.4,1.3,2.6,2.6,4.3,2.8,1.7.2,3.2-.4,4.8-.7,2-.3,4.1-.8,6.1-1.2,5-.9,9.6-.6,14.3,1,3.8,1.3,6.4,4.1,7.8,7.6.6,1.5.6,3.7-.3,5.6-.8,1.8-3.2,2.9-4.9,1.5-1.8-1.6-3.8-1.5-5.9-1.5-1.6,0-3.2.3-4.7,0-4.6-.9-9.1,0-13.5,1.2-3,.9-6,2.4-8.6,4.3-1.8,1.3-3.4,3.3-3.8,5.9-.2,1.7-.8,3.4-1.4,5-.2.5-.9,1-.9,1.5.3,3.2,1.4,6.3,2.5,9.3,1.5,4.4,5,6.8,9.2,8.3,1.6.6,3.3,1,5,1.5.7.2,1.4.5,2.2.5,1.8,0,3.5-.2,5.3-.4,2-.2,4.1-.5,6.1-.8.8-.1,1.6-.9,2.4-.9,2.6-.2,4.2-2.4,6.4-3.3.9-.4,1.3-1.8,2.7-.8.8.6,1.8,1.1,2.6,1.8.7.6.9,1.7,1.6,2.3,2.8,2.4,6.9,2.7,9.7.4,1.5-1.2,3.1-2.9,3.6-4.6.6-2-.2-4.3-.2-6.5,0-4,.2-8,.4-12,0-1.1,0-2.2,0-3.3,0-1.1,0-2.3,0-3.4,0-1.2-.3-2.5-.4-3.7,0-2.2,0-4.4,0-6.7,0-1.4.3-2.9-.1-4.2-.7-2.4-1.9-4.7-3.1-7.2Z"/>
    <path d="M630.3,72.4c.6,2.5,2.2,3.9,4.6,3.9,2.6,0,5-.1,7.5,1.3,2.6,1.5,4.2,5.5,2.9,8.4,0,0,0,.1,0,.2-.9,2.1-1.8,3.8-4.4,4.6-2.9.9-5.8,2-8.8,1.9-3.6-.1-7.4.5-10.8-1.1-3.3-1.6-6.9-3-8.2-6.9-1.3-4-3.2-7.9-2.3-12.4.4-2.1,0-4.3,0-6.4,0-4.3,0-8.6,0-12.9,0-1.3.2-2.7.4-4,0-.3.4-.6.6-.9.2.2.6.4.7.7.3.9.9,1.9.6,2.7-.6,2.1-.6,4.1-.4,6.3.3,3.4,0,6.8-.6,10.1-.3,1.7.5,3.7.2,5.5-.2,1.4,0,2.5.4,3.7.5,1.3.6,2.7.8,4,.6,3.9,2.8,6.5,6.4,8.1,3.7,1.7,7.5,1.2,11.4,1.4,3.6.2,6.6-.7,9.7-1.8,1.7-.6,2.7-1.5,2.6-3.6,0-.9.7-1.9.6-2.8-.3-1.6-3.9-4-5.8-4.1-.7,0-1.3,0-2,0-3.6.5-6-1.3-7.8-4.1-.3-.4-.1-1.2-.2-1.8-.1-2.3-.3-4.7-.4-7,0-1.7.1-3.4.1-5.1,0-2.6.1-5.3.1-7.9,0-1.1-.3-2.2-.3-3.3,0-2.2.2-4.5.4-6.7,0-.2.5-.4.7-.7.3-.4.6-.8.8-1.3.2-.5.3-1.1.5-1.7.3.3.5.9.8,1,.5.2,1.1.1,1.6,0,2.6-.2,5.3.8,7.6-.8,1.7-1.2,3.5-2.7,4.4-4.5,1.3-2.7-2.3-7.1-5.3-7.1-2.4,0-4.9.6-7.2.2-1.3-.2-2.9-1.6-3.5-2.8-.6-1.3,0-3.1-.2-4.6-.4-2.6.6-5.4-1.5-7.6-1-1-1.7-1.9-3.3-2-1.2,0-2.3-.6-3.5-.7-2-.2-3.5.3-5,2.1-1.5,1.9-1.9,3.8-2.1,6.1-.2,2-.6,4-.7,6.1-.1,2.3-2.4,3-4.2,3.6-3.5,1.2-5.5,3.5-3.9,7.4,1.1,2.5,2.7,4.1,5.1,4.4,2.1.3,2.3,2.1,2.9,3.2.5,1,0,2.6-.2,3.9,0,.2-.3.4-.5.6-.2-.2-.6-.4-.7-.6-.1-.5,0-1.1,0-1.6,0-3.2-.5-3.8-3.7-4.6-2.3-.5-4.6-3.3-4.7-5.7,0-.7-.2-1.5-.4-2.2-.4-1.9.4-3.7,2.4-4.9,1.8-1,3.7-1.8,5.4-2.9,1-.6,2.8-1.2,1-2.9,0,0,0-.1,0-.2.6-3-.3-6.3,1.3-9.1,1.4-2.5,3.6-4,6.3-4.8,2.1-.7,8.1,1,9.6,3.4,1.3,2.1,2.6,4.4,2.1,6.4-.5,1.9.5,3.6-.4,5.4-.6,1.2.1,2.2,1.5,2.2,1.7,0,3.4,0,5.1,0,3.5,0,6.9.2,8.8,3.8,1.4,2.7,1.7,5.6.4,8.2-1.4,2.7-4.2,3.8-7.1,4-2.4.2-4.9,0-7.3.2-.6,0-1.4,1.5-1.4,2.3,0,2,.3,4,.3,6,0,2.3-.4,4.7-.4,7,0,4.3,0,8.5,0,12.8,0,.8.1,1.7.3,2.6Z"/>
    <path d="M745.5,83.1c.4,2.9-.8,5.2-2.6,6.6-1.9,1.5-4.2,2.7-7.1,2.7-4,0-6.3-2.2-8-5.1-.9-1.6-.6-3.9-.8-5.9,0-.8-.3-1.6-.2-2.4,0-2.6.4-5.3.4-7.9,0-3.6.1-7.2.4-10.8.3-5.1,0-10.2,0-15.3,0-2.8.3-5.5.4-8.3,0-1.6-.4-3.2,0-4.6,1.5-4.9,7.4-8.2,12.3-7,3.7.9,6.5,4.9,6.1,8.8,0,.3-.2.5-.3.8-.2-.1-.5-.2-.6-.4-.6-1.2-1.3-2.4-1.7-3.7-.6-1.9-4.1-4.3-6-3.9-3.2.7-6.1,2-7.7,5-.7,1.3-.8,2.9-.9,4.4-.1,2.8,0,5.6,0,8.3,0,3.5-.3,6.9-.4,10.4,0,1.6.3,3.1.4,4.7,0,1,.2,2.1,0,3-.9,3.5-.3,6.9,0,10.4,0,.7,0,1.7-.4,2.2-1,1.1-.2,2.1-.1,3.2.2,2,0,4.1.3,6.1.2,1.4.6,3.2,1.6,4,4.9,4,11.4,1.8,13.7-3.8.3-.7.3-1.7.1-2.5-.5-2.7-.9-5.3.3-8,.2-.5-.3-1.3-.3-2,.2-3.6.5-7.2.8-10.9,0-.8-.1-1.6,0-2.4.2-.8.5-1.6.8-2.4,0-.1.3-.2.3-.3-.5-2.8,1.9-4.4,2.9-6.6,1.6-3.6,4.4-5.9,8.1-7.3,1.9-.7,3.8-1.1,5.7-1.6,1.9-.5,4.3-4.2,4.2-6.3-.1-2,0-4-1.6-5.5-2-1.8-6.5-2.6-8.8-1.1-2,1.3-3.8,2.8-5.5,4.4-.5.4-.5,1.4-.9,2-.4.7-1,1.4-1.6,1.9-.3.3-1,.1-1.5.2.2-.4.4-.8.6-1.2,1.3-2.7,3.3-4.9,5.3-6.9,3-3,6.5-3.5,10.4-2.5,3.2.9,5.3,4.2,5.1,7.6-.1,2,.5,4.4-1.1,5.9-1.9,1.7-4.1,3.3-6.5,4-5.9,1.6-9.9,5-12.6,10.6-1.6,3.4-2,6.8-2.3,10.4-.3,3.3-1.2,6.7-.6,9.8.5,2.8-1,5.4.2,8.1.1.2-.2.7-.4,1.2Z"/>
    <path d="M541.7,85.4c0-4,0-8,0-11.9s0-7.1,0-10.7c0-1.9.4-3.8.3-5.6-.1-3-.3-5.9-.8-8.9-.4-2.5-4.9-6.2-7.5-6.4-2.3-.2-4.7-.6-6.9,0-3.5.9-6.4,2.9-7.2,6.9-.4,1.7-1.3,3.4-1.5,5.1-.2,1.8.2,3.6.3,5.4,0,.3,0,.6,0,.8-.3.5-.7.9-1,1.3-.2-.5-.4-1-.4-1.5,0-1.5-.1-3-.1-4.5,0-.6,0-1.1,0-1.7-.9-4.1,2.6-6.7,3.7-10.1.2-.7,1.5-1,2.3-1.4.3-.2.9-.3,1-.5.4-2.3,2.3-1.7,3.8-1.9,1.2-.2,2.5-.6,3.6-.4,2.1.4,4.5.6,6.2,1.7,2.9,2,5.1,4.7,6,8.2.1.5-.2,1.2-.2,1.8.1,2.1.5,4.1.5,6.2,0,2.5-.3,5.1-.5,7.6,0,.2-.3.4-.3.5,1.4,1.6.7,3.2.4,4.9-.3,1.3.3,2.7.3,4.1,0,3.4-.2,6.7-.4,10.1,0,1.4,2.4,4.5,4.2,5.2,2.8,1.2,5.7,1,8.1-.6,1.5-1,2.5-2.6,3.7-4,0,0,0-.3,0-.4-1.6-2.4.5-4.8-.2-7.4-.6-1.8.5-4.1.6-6.2,0-1.7-.3-3.4-.3-5.1,0-3.3,0-6.7,0-10,0-1.6-.2-3.2,0-4.7.5-3.9-.4-7.6-1.3-11.4-1.2-5.6-4.5-9.5-9.9-11.7-3.1-1.2-6.1-2.6-9.4-2.3-6.3.5-12.5,1.6-16.5,7.5-.3.4-1.2.5-1.7.7,0-.6,0-1.5.3-1.9,3.1-3.6,6.9-6.2,11.6-7.1,3.4-.7,7.1-1.3,10.3-.6,4.8,1,9.6,2.6,12.9,7,1.5,2.1,3.2,4,3.8,6.4.9,3.8,1.5,7.8,1.8,11.7.2,3.2.1,6.6-.4,9.8-.7,4.3.3,8.4.4,12.6,0,2-.5,3.9-.7,5.9,0,.8,0,1.6.2,2.3,1.3,4.8-3,11.7-7.7,12-4.4.2-8.4-.2-11.2-6.9Z"/>
    <path d="M121.5,37.5c1.5-1.8,2.9-3.7,4.6-5.1,3.1-2.6,6.6-4.5,10.3-6.1,4.6-2.1,9.4-2.7,14.3-2.8,4.7,0,9.5.1,13.8,2.1,3.9,1.9,8.3,3.3,11.5,6.6,4.1,4.3,8.3,8.5,10,14.6.6,2.3,1.6,4.6,1.9,7,.3,1.8-.4,3.8-.3,5.7.3,4.5-1.1,8.4-2.7,12.5-2,5.1-5.6,8.6-9.7,12.1-3.3,2.9-7.1,4.4-11,5.9-3.3,1.2-7,2.5-10.2,2-5.4-.7-11.2.2-16.3-2.6-2.9-1.6-5.9-3-8.8-4.8-3.6-2.2-6.5-5.2-8.6-9-2.2-4.1-4.3-8.4-4.9-13.2-.5-4.3-.7-8.6.5-12.8,1-3.6,1.8-7.4,4.3-10.4.4-.5.8-1.1,1.3-1.8M129.9,31.3c-1.5,1.4-3.2,2.7-4.6,4.2-2,2.4-4.5,4.5-5.4,7.7-.7,2.4-1.7,4.8-2.3,7.2-.6,2.3-1.2,4.6-1.2,6.9,0,2.6.6,5.3,1.1,7.9,1.3,5.7,3.9,10.7,8,14.8,3.1,3,6.6,5.3,10.6,7.2,3.3,1.6,6.6,2.7,10.3,2.6.3,0,.6-.1.8,0,2.4,1.5,5.3.2,7.8,1.2.2,0,.4,0,.6,0,3.2-.9,6.3-1.9,9.6-2.6,4.6-1.1,8-4.1,11.5-6.9,2.3-1.8,3.9-4.4,5.7-6.8.8-1,1.5-2.2,1.9-3.4.7-2.1,1.1-4.2,1.5-6.4.4-2.4,1.1-4.8.8-7.2-.3-3.3,0-6.8-1.9-10-1.3-2.3-1.9-5.1-3.3-7.3-2.9-4.4-7.1-7.6-11.5-10.6-1.6-1.1-4.1-1.1-5.6-2.3-3.7-3-8.1-1.8-12.1-2.8-2-.5-4.3.4-6.4.7-1.5.2-3.2,0-4.6.6-3.8,1.5-7.4,3.3-11.3,5.2Z"/>
    <path d="M368,69c2.2-2.3,4.3-4.6,6.4-6.8,1.7-1.8,3.6-3.5,5.3-5.3,2.1-2.2,3.9-4.7,6-6.9,2.2-2.4,4.5-4.6,6.7-6.9.2-.2.7-.2,1.1-.3,0,.4.1,1,0,1.2-.8.9-1.7,1.7-2.5,2.6-2.8,3.3-5.5,6.7-8.3,9.9-1.5,1.7-3.4,3-5,4.7-1.6,1.7-3,3.6-4.6,5.3-3.1,3.3-6.2,6.4-9.3,9.7-2.5,2.7-3.5,5.9-2.8,9.4.2.9,1.2,1.8,2,2.4,2.5,1.9,5.4,1.8,8.4,1.7,2.7-.1,5.4.3,8.1.3,1.1,0,2.3-.4,3.4-.3,3.1,0,6.3.3,9.4.3,2.4,0,4.9-.4,7.3-.3,3.4,0,6.8,0,10.2.4,2.8.3,6.8-2,7.6-4.7.8-2.8-2.3-6.9-5.1-7-3.4,0-6.8,0-10.1,0-3.3,0-6.7-.3-10-.4-1.6,0-3.2.3-4.8.3-.9,0-1.9-.2-2.8-.4-.3,0-.6-.6-.6-.8,0-.3.5-.7.8-.7,8.1,0,16.2-.1,24.2,0,2.2,0,4.5.4,6.5,1.2,2.1.9,3.6,3,3.6,5.3,0,3.1-.4,6.3-4.4,7.5-2.4.8-4.5,1.3-7,.8-1.5-.3-3.1,0-4.7,0-2.3,0-4.6,0-6.8,0-1.3,0-2.7.4-4,.4-4,0-8-.3-12-.4-4.5,0-8.9,0-13.4,0-3.4,0-6.9-3.7-7.2-7.2-.3-4.1,1.4-7.3,4.2-10.1,1.5-1.5,2.9-3.2,4.5-4.9Z"/>
    <path d="M593.2,63.5c0,4.2.3,8.1,0,12.1-.3,3.3.7,6.6-.3,10-1.1,3.6-4.3,6.4-7.8,6.4-1.4,0-2.8.1-4.2,0-2.4-.3-6-4-6.5-6.4,0-.2,0-.4,0-.6.9-2.6-.2-5.3,0-7.9.2-4.7,0-9.4,0-14.1s0-4,0-6.1c.1-4.5.5-9.1.3-13.6,0-2.9.3-5.7.3-8.5,0-2.2.4-4,1.4-5.8,2-3.7,8.6-5.1,12.3-2.9,4,2.3,5.4,5.7,5.3,10-.1,3-.3,6-.4,9,0,1.5.5,3,.3,4.4-.6,4.2-.2,8.3-.4,12.5,0,.5-.3,1-.4,1.6M576.6,36.7c0,3.9-.1,7.9-.2,11.8,0,.5.1,1.1,0,1.6-.7,1.9-.2,3.9-.1,5.8.1,2.6,0,5.3,0,7.9,0,1.5,0,2.9,0,4.4,0,.4.2.7.1,1.1-.2,1.8-.5,3.6-.7,5.4,0,.2.3.4.4.6,0,1.4.2,2.8.2,4.1-.1,2.9-.7,6,1.4,8.5,2.2,2.6,5.3,2.6,8.2,2.1,2-.3,4.4-1.2,4.8-3.9.1-.7,0-1.5.5-2,1.6-1.8.9-3.7.5-5.7,0-.5-.3-.9-.3-1.4.2-4,.4-8,.6-11.9,0-1.9,0-3.8,0-5.7,0-1.9,0-3.9,0-5.8,0-1.3,0-2.6,0-3.9.1-2.1.4-4.2.4-6.3,0-1.5-.6-3.1-.3-4.4.8-3.2.5-6.3-1.4-8.9-1.2-1.6-3.2-3.2-5.1-3.7-2.3-.7-4.8.6-6.5,2.3-1.2,1.3-1.8,3.2-2.7,4.8-.6,1.1-.5,2,.2,3.1Z"/>
    <path d="M.4,36.7C.2,34.3,0,32.1,0,29.9c0-1.1.4-2.3.3-3.4C.3,23,0,19.5,0,16c0-2,.2-3.9.4-5.9.3-2.1,1.6-3.5,3.3-4.6,2.2-1.4,4.6-1.8,7.1-1.7,2.6,0,5.2-.3,7.8-.3,2.7,0,5.4.3,8,.4,3.8,0,7.6-.1,11.5,0,5.2.2,10.4,1,15.1,3.6,5,2.7,9.8,5.8,12.5,10.9,1.8,3.6,3.8,7.3,4.2,11.5,0,.1,0,.3,0,.4-.3.9-.7,1.8-1,2.7-.3-1.2-.6-2.3-.8-3.5-.2-1.2,0-2.5-.4-3.6-1.1-2.8-2.2-5.7-3.9-8.2-1.4-2.1-3.4-3.8-5.6-5.2-3.4-2.2-7-4-10.6-5.8-.7-.4-1.7-.2-2.6-.3-3.2-.4-6.3-1.6-9.6-.7-1.4.4-3.1,0-4.6-.4-1.4-.3-2.6-.3-3.9.3-.4.2-1.2-.2-1.8-.2-2.6-.2-5.1-.4-7.7-.4-2.2,0-4.3.4-6.5.7-.7,0-1.5,0-2.2.1-5.3.1-8.2,2.6-7.3,9.3.2,1.8,0,3.6,0,5.4,0,2.5,0,5,0,7.5,0,1,0,1.9,0,2.9.1,3,.3,6,.4,9,0,2.2,0,4.4,0,6.7,0,3.2,0,6.3,0,9.5.1,7.8.2,15.7.4,23.5,0,1.3,1.1,2.7.9,3.9-.2,2.2.7,3.6,2.6,4.3,1.7.7,3.4,1.1,5.1,1.6.8.2,1.7.4,2.5.6-.9.2-1.7.5-2.6.5-1.1,0-2.4.1-3.2-.4-2.2-1.6-5.4-2.2-6-5.5-.2-1.2-.4-2.4-.5-3.7-.1-2.9,0-5.7-.2-8.6,0-2.1-.2-4.2-.3-6.3,0-1.6,0-3.2-.1-4.8-.1-3-.3-5.9-.3-8.9,0-2.1.4-4.2.3-6.3,0-2.6-.2-5.2-.4-7.8,0-.5,0-.9,0-1.6Z"/>
    <path d="M400.9,25.5c2.5-.1,4.9,0,7.2-.4,4.1-.6,9.7,2.4,10.8,6.3.6,2.1.4,4.2-1,6.1-1.9,2.6-3.6,5.5-5.7,8-3.4,3.9-7,7.6-10.5,11.4-2.1,2.2-4.3,4.3-6.4,6.5-2.8,2.9-5.4,6-8.2,8.9-.7.8-1.7,1.4-2.5,2.1-.2.1-.4.2-.7.2,0-.3-.2-.6-.1-.9,0-.2.2-.3.4-.4,3.1-2.1,4.7-5.6,7.3-8.1,2.3-2.2,4.5-4.6,6.6-7,2.9-3.2,5.7-6.5,8.6-9.8.4-.5,1.1-.7,1.5-1.2,2.6-2.8,5.2-5.5,7.6-8.4,1.8-2.3,2.9-5.1,1.5-7.9-.6-1.3-2.2-2.4-3.6-2.9-2.3-.8-4.7-1.3-7.3-1-3,.3-6.1-.2-9.2-.3-1.8,0-3.6.3-5.4.4-3.3,0-6.6,0-9.9,0-3.4,0-6.8-.4-10.2-.3-2.5,0-4.9.6-7.3,1.3-.8.2-1.3,1.5-1.7,2.4-1.4,2.8-.4,6.3,2.9,7.2,1.5.4,2.8.7,4.4.8,2.7.2,5.6-.6,8.2.7.1,0,.4-.3.6-.3,4.4,0,8.7,0,13.1,0,.5,0,1,.6,1.5,1-.6.2-1.2.5-1.8.6-5,0-9.9,0-14.9,0s-6.2,0-9.3,0c-3,0-6.1-2.9-6.6-6-.6-3.4,0-6.4,3.3-8,1.7-.8,3.7-1.1,5.6-1.2,2.7-.1,5.5.3,8.2.3,2,0,4-.3,6-.3,1.5,0,3.1.3,4.6.3,1.7,0,3.4-.4,5-.3,2.4,0,4.8.2,7.4.4Z"/>
    <path d="M499.3,73.9c.1-5,.3-9.9.4-14.7,0-3.3-.3-6.5-.4-9.8,0-2.3,0-4.7.1-7,0-.5.2-1,.2-1.5,0-2.2.1-4.5,0-6.7-.5-7.3,8.1-11.4,13.5-8.4,3.3,1.9,4.4,4.8,5.9,7.7,0,.1,0,.5-.2.5-.2,0-.7.2-.8,0-.7-.9-1.5-1.7-2-2.8-1.2-2.6-3.2-4.1-6-4.6-2.6-.5-6.7.8-7.6,3.2-.9,2.1-.8,4.6-1.2,6.9-.1,1-.4,1.9-.4,2.9,0,2.5.3,5,.4,7.5,0,3,0,6,0,9.1,0,2.7-.3,5.4-.4,8,0,1.9.3,3.8.3,5.7,0,1.1-.4,2.3-.3,3.4,0,2.9.4,5.8.3,8.6,0,1.5-.5,2.8.3,4.4,1.4,2.6,3.5,3.6,6.2,3.8,1.6.1,3.1.2,4.7-.5,2.8-1.2,4.1-2.7,4.1-5.8,0-.4-.1-.8,0-1.2.1-.4.5-.6.8-.9.2.3.7.7.7,1,.2,4.2-2.3,7.5-6.7,9-4.3,1.4-11.4-1.4-12-7.1-.4-3.5,0-7.1,0-10.9Z"/>
    <path d="M197.1,56.3c.1-4.7.3-9.2.3-13.7,0-1.3-.9-2-2.4-2.3-5.1-1-7-4.7-5.8-9.3.6-2.4,2.4-4.3,5.1-5.1.9-.2,1.7-1,2.6-1.5.4-.3.8-.5,1.2-.8,0,.7.1,1.6-.2,2.1-.5.7-1.4,1.3-2.2,1.4-3.6.5-4.8,3.2-5.7,6.2-.5,1.7,2.2,5,4.3,5.5,2,.5,3.7,1.6,4.4,3.6.4,1.2,0,2.7.1,4,.1,2.6.3,5.1.5,7.7,0,.2.1.4,0,.6-1.1,2.6-.3,5.2,0,7.7,0,.1,0,.3,0,.4-.9,3.8-.6,7.5,0,11.3.2,1.8-.3,3.6-.5,5.4-.5,4.1,1.4,8,5,10,.4.2.8.4,1.2.4,2.5,0,5,0,7.4-1.2,1.6-.8,1.8-2.3,2.2-3.8.2-.6.6-1.2,1-1.8,0,.7.3,1.5.2,2.2-.3,4-3.9,5-6.6,6-2.2.8-5.3.3-7.6-1.4-2.1-1.6-3.7-3.6-3.8-6.4-.2-4.5-.3-9-.4-13.5,0-3.8,0-7.5,0-11.3,0-.7-.2-1.5-.4-2.4Z"/>
    <path d="M78.4,86.2c1.3,2.3,4.1,3.6,6.8,3.3,1.1-.1,2.3,0,3.3-.5,1.3-.6,2.4-1.6,3.6-2.3.2-.1.5,0,.7,0,0,.2,0,.5-.1.7-4.1,5.6-13.8,4.2-15.9-1.5-.6-1.6-1.1-3.4-1.2-5.1-.2-3.5,0-7.1,0-10.7,0-5.2-.3-10.3-.4-15.5,0-1.4,0-2.8,0-4.3,0-2.5-.4-5.1-.4-7.6,0-2.7.3-5.4.3-8.1,0-.7-.3-1.4-.4-2,0-3.3,2-5.6,4.3-7.3,2.2-1.7,5.1-2.6,7.7-1.2,2.6,1.4,5.7,2.4,6.7,5.7.4,1.1.4,2.3.5,3.5,0,.1-.2.3-.3.4-.2-.2-.4-.4-.5-.6-.9-2.3-1.5-4.7-4-5.9-3.2-1.7-6.5-2.4-9.7-.2-1.8,1.2-2.9,3.1-3,5.2-.1,2.2.2,4.5.3,6.7,0,1.1-.1,2.1-.1,3.2,0,3.1.1,6.3.1,9.4,0,1.9,0,3.8,0,5.7,0,4.4,0,8.7,0,13.1,0,3,.8,6,.2,8.9-.6,2.8,1,4.8,1.5,7.3Z"/>
    <path d="M244.6,64.3c0,4.5.1,8.7,0,13-.1,2.8-.2,5.5.8,8.1.8,2.1,2.9,4.1,5.1,4.5,2.7.4,5.2-.1,7.5-1.3.4-.2.8-.6,1-1,.6-2.4,2.5-4.4,1.7-7.2-.4-1.4.2-3.1.3-4.7,0-1.2,0-2.3,0-3.5,0-1.3-.3-2.6-.4-3.9,0-.3.4-.6.6-.9.1.3.4.5.4.8.2,2.5.6,5.1.5,7.6,0,3.2-.4,6.4-.8,9.5-.4,3.1-4.3,5.6-7.7,6-3.2.4-5.8-.7-8.1-2.8-1.9-1.7-2.4-4-2.6-6.3-.2-3.9,0-7.8,0-11.6,0-4.2-.5-8.5-.3-12.7.2-3.6.4-7.3.3-10.9,0-3.6-.3-7.1-.3-10.7,0-.4.6-.9,1-1.3.2.4.5.8.6,1.2,0,3.4,0,6.9,0,10.3,0,1.1.4,2.3.4,3.4,0,4.1-.3,8.1-.4,12.2,0,.6.2,1.2.4,2Z"/>
    <path d="M32.1,19.8c3.2-.4,6.2-.6,9.2.5,4.1,1.4,7.5,3.6,9.3,7.6,1.3,3,1.3,6.2,1,9.4-.3,2.8-1.9,5-3.5,6.9-1.9,2.2-4.2,4-7.5,4.2-3.2.1-6.4,1.3-9.5.9-2.5-.3-4.9-.3-7.3,0-1.8.2-3.1-.2-4.5-1-.3-.2-.8-.8-.7-.9.3-.5.8-1,1.2-1.4.2.3.5.5.7.8.6.9,1.3,1.1,2.5.9,2.7-.4,5.5-.5,8.1-.1,3.1.4,6.1.2,9-.5,3.5-.9,6.6-2.7,8.6-5.9,2-3.3,2.2-6.7,1.3-10.3-1.3-5.3-5.4-7.6-9.9-9.5-.3-.1-.6-.2-.9-.2-5.7-.1-11.3-.3-17-.4-1.3,0-2.2.3-2.7,1.6-.1.3-.5.5-.8.7-.2-.4-.5-.8-.5-1.2,0-1.5,1.4-2.5,2.9-2.4,1.7,0,3.5-.3,5.2-.3,1.9,0,3.9.4,5.9.7Z"/>
    <path d="M594.8,7.1c1.4,3.9-.4,8.2-3.9,10-1.7.9-3.4,1.6-5.4,1.2-1.4-.2-2.8,0-4.3,0-2.8,0-4.6-1.8-5.9-3.8-1.7-2.7-2.4-5.9-.5-8.8,1-1.5,2.7-2.8,4.3-3.5,4.6-1.9,9.3-1.8,13.4,1.4,1,.8,1.5,2.2,2.2,3.5M593.4,11.9c.7-4.8-1.5-8.6-6.2-9.1-2.7-.3-5.6.4-8.3,1.3-2.5.8-4.3,4.3-3.7,6.3,1.2,4,2.9,6.4,7.9,6.3,1.8,0,3.6,0,5.5-.6,2.6-.9,4-1.5,4.7-4.2Z"/>
    <path d="M243.3,14.4c-2.2-2.9-2.3-6.3-.9-9.1,1.5-3.1,4.5-4.9,8.4-5,4.2-.2,7.8,1,10.4,4.2.8,1,.9,2.6,1.3,4,0,.2-.2.4-.2.6-.2-.2-.4-.4-.5-.6-.9-1.4-1.6-3.1-2.7-4.2-5-5-14.3-2.5-16.4,4.2-.6,1.9,1.9,6.1,3.8,6.7,1.6.5,3.2,1.6,4.7,1.5,3.6-.2,7.4-.3,9.1-4.5,0-.2.3-.4.6-.6.4-.2.8-.5,1.1-.4.8.4,0,.7,0,1.1-1.1,3.6-3.9,5.2-7.2,5.6-4.1.5-8.2.1-11.3-3.4Z"/>
    <path d="M105.4,41.4c2.4-.9,4.7-1.6,6.9-2.6,1.3-.6,3.1-4.8,2.7-6.2-.4-1.5-.7-3.4-1.6-4.5-2.9-3.4-8.5-4.3-12-.4-1.2,1.3-2.3,2.8-3.5,4.1-.3.3-.7.4-1.1.6,0-.5-.4-1.2-.2-1.5,1.8-2.9,4.2-5.3,7.3-6.7,3.3-1.5,9.8,0,11.4,4.3.9,2.4.7,4.6.5,6.8-.1,1.5-1.4,3.2-2.7,4.2-1.4,1.1-3.3,1.9-5,2.2-3.8.7-6.8,2.5-8.9,5.5-1.7,2.5-2.8,5.3-4.2,8-.2.3-.5.6-.8.9-.1-.3-.4-.7-.3-1,.4-3.3,2.1-6,4.1-8.5.7-.9,1.8-1.6,2.5-2.6,1.2-1.8,2.7-2.7,4.9-2.9Z"/>
    <path d="M197.9,13.9c.9-3.4,2.4-6.3,4.7-8.9,2.8-3.1,6.4-4.2,10.4-4.8,4.5-.6,8.9-.1,13.3.5,2.8.4,5.8,3.9,5.6,6.8,0,.4-.4.8-.6,1.2,0-.4-.2-.7-.3-1.1-.4-.9-.8-1.8-1.1-2.7-1.1-2.8-3.7-2.6-5.9-3-2.3-.3-4.7-.5-7-.4-2.9.2-6,.2-8.6,1.3-2.6,1.1-5.1,2.6-6.6,5.7-1.3,2.7-2,5.3-2.7,8.1-.2.9-.2,1.9-.3,2.9,0,.6-.1,1.1-.3,1.7-.2.5-.5.9-.8,1.4,0-.6-.2-1.3-.2-1.9,0-.6,0-1.2.1-1.7.1-1.6.3-3.2.4-5Z"/>
    <path d="M43.9,63.5c-1.8.1-3.4.3-5,.4-2.6.2-5.2.5-7.7.5-3.1,0-6.2-.3-9.3-.4-.8,0-1.6.5-2.3.8-.2,0-.3.2-.4.4,0-.2,0-.5,0-.7.4-1.6,1.8-1.9,3-1.8,3.9.2,7.8-.5,11.7.3,1.6.3,3.3-.1,5-.3,2.5-.3,5-.8,7.6-1.2,2.4-.4,4.5-1.7,6.8-2.4,5-1.6,8-5.4,11.4-8.8.9-.9,1.4-2.2,2.2-3.3.2-.3.4-.5.7-.7,0,.4.2.8.1,1.1-1.3,3.5-3.8,6-6.5,8.5-2.9,2.8-6.5,4.4-10.3,5.6-2.2.7-4.4,1.3-6.8,2Z"/>
    <path d="M253.4,26.3c-2.2-.8-5.7.6-6.9,2.2-1.2,1.5-1.5,3.3-1.9,5,0,.4-.7.7-1.1,1-.3-.5-.9-1.2-.8-1.6,1-3,2-5.8,5.2-7.5,3.3-1.7,6.2-1.4,9.3.4,2.9,1.7,4.5,4.3,5,7.5.2,1.2-.2,2.4-.4,3.6,0,.2-.4.4-.5.6-.2-.3-.5-.6-.6-.9-.2-1.1-.3-2.1-.4-3.2-.3-5.1-2.4-5.8-6.8-7.1Z"/>
    <path d="M216.7,55.8c0,3.3,0,6.4,0,9.6,0,1.3,0,2.6,0,3.9,0,.2-.2.4-.3.6-.2-.2-.5-.4-.5-.6-.3-1.8-.6-3.7-.8-5.5-.1-1.8,0-3.5,0-5.3,0-1.7,0-3.4,0-5.2,0-2.8,0-5.5,0-8.3,0-.5.6-1.5.8-1.5,1,.2.5.8.5,1.5,0,2.1.2,4.1.3,6.2,0,1.5,0,2.9,0,4.5Z"/>
    <path d="M261.8,46.7c.1,2.5.3,4.9.4,7.2,0,4.1,0,8.2,0,12.3,0,.3-.4.6-.7.8,0-.3-.2-.6-.2-.9-.1-1.1-.2-2.3-.3-3.4,0-1.8-.1-3.6-.2-5.3,0-2.5-.2-5-.2-7.5,0-3.8,0-7.5,0-11.3,0-.3.3-.5.5-.8.2.3.6.5.6.8,0,2.2,0,4.4,0,6.6,0,.4,0,.7,0,1.3Z"/>
    <path d="M221,27.5c-1.2-.1-2.2-.2-3.2-.4-.4,0-.8-.4-1.2-.6.4-.3.8-1,1.1-1,3.2.1,6.5-.4,9.6.9,2.6,1.1,3.9,2.9,4.5,5.4.2.8,0,1.8-.1,2.7,0,0-.5.1-.6,0-.4-.7-.9-1.4-.9-2.2-.1-2.4-1-3.7-3.2-4.2-1.9-.4-3.9-.6-6-.8Z"/>
    <path d="M93.5,83.1c0-3.9,0-7.7,0-11.4,0-2.6-.4-5.1-.3-7.7,0-2.1.5-4.2.8-6.3,0-.2.4-.4.5-.5,0,.2.2.5.2.7-.1,4.3-.3,8.5-.4,12.8,0,3.5.3,6.9.3,10.4,0,.7-.2,1.5-.4,2.2-.1.6-.3,1.2-.5,1.8,0-.6-.2-1.1-.3-1.9Z"/>
    <path d="M216.9,16.2c1.2-.7,2.3-1.5,3.5-1.8,1.3-.4,2.7-.5,4-.4,2.7.1,4.4-1.3,5.7-3.4.2-.4.7-.6,1.1-.9,0,.6.2,1.5,0,1.8-2.1,2.2-4,4.4-7.6,4.2-2.6-.1-5.7.2-7.1,3.3-.1.2-.6.3-.9.5,0-.3.2-.7.3-1,.3-.7.6-1.5,1.1-2.3Z"/>
    <path d="M216.3,39.6c2.5-.2,4.9-.4,7.4-.5,2.4,0,4.5-.5,6.2-2.3.2-.2.6-.3.9-.4,0,.4,0,.9-.2,1.2-1.6,1.9-3.6,3-6.1,3.1-2.5,0-5,0-7.4,0-.3,0-.7-.6-.9-1.1Z"/>
    <path d="M518.1,74.7c.1,1.6.3,3,.4,4.4,0,.6-.2,1.2-.4,1.8,0,0-.6.1-.6,0-.2-.6-.5-1.2-.5-1.8,0-1.3,0-2.7,0-4,0-1-.2-2.1,0-3,.5-1.3,1-2.3,0-3.8-.6-1,0-2.6-.1-4,0-.4-.3-.9-.2-1.3,0-.4.3-.7.4-1.1.3.2,1,.4,1,.7,0,1.3,0,2.7,0,4,0,1,.4,2,.4,3,0,1.6-.2,3.2-.4,5Z"/>
    <path d="M18,31.1c.8-2,.3-3.9.4-5.7,0-.4.3-.7.4-1.1.1.3.3.6.3.9,0,1.8,0,3.6,0,5.4,0,1.3.3,2.5.4,3.8,0,.3-.3.7-.5,1-.2-.3-.6-.6-.7-1-.2-1.1-.3-2.1-.4-3.4Z"/>
    <path d="M214.7,21.2c1.1.5,1.5,3.4.7,4.1-.2.1-.5,0-.8,0,0-1.3,0-2.7,0-4.1Z"/>
    <path d="M215,79.9c0-.5,0-.9,0-1.2.2-.6.6-1.1.9-1.6,0,.5.2,1,.3,1.5,0,.3,0,.5,0,.8,0,.7,0,1.4.1,2.1-.5-.5-.9-.9-1.4-1.6Z"/>
    <path d="M19.1,68c0-.5,0-.8.2-1.2.1.3.3.6.3.9.2,1.3.3,2.7.4,4,0,.3-.3.6-.5,1,0-.3-.3-.6-.3-.9,0-1.2,0-2.4-.1-3.7Z"/>
    <path d="M18.8,37.5c.3,1.5.3,3,.4,4.6,0,.2,0,.4-.1.5-.1,0-.4-.1-.4-.3-.4-1.6-1.4-3.2.1-4.9Z"/>
    <path d="M18.1,85.6c.4-.4.7-.6.9-.9-.2.8-.3,1.6-.5,2.4,0,.2-.4.2-.6.3-.6.4-1.1.8-1.6,1.3.4-.6.7-1.3,1.1-1.9.2-.4.5-.7.8-1.2Z"/>
    <path d="M69.4,40.8c0,.4,0,.8,0,1-.4.6-.8,1.1-1.2,1.7,0-.4-.2-.7-.2-1.1,0-1,0-1.9,1.5-1.6Z"/>
    <path d="M216.6,70.7c.3.2.4.4.4.5-.2.8-.4,1.5-.6,2.3,0,0-.5-.1-.5-.1.2-.9.3-1.8.7-2.7Z"/>
    <path d="M753.5,35.5c.4.4.6.9.8,1.3-.6.2-1.1.4-1.7.5,0,0-.3-.5-.2-.7.3-.4.6-.8,1.2-1.2Z"/>
    <path d="M746.6,47.8c-.6.1-1,.1-1.5.2.2-.6.4-1.1.7-1.7.3.5.6.9.8,1.5Z"/>
    <path d="M741.5,60.7c.3,0,.8-.1,1.3-.1.1,0,.3.6.2.7-.1.2-.5.4-.7.6-.2-.4-.4-.8-.8-1.2Z"/>
    <path d="M69,38.2c-.2-.5-.3-1.1-.3-1.7,0,0,.4-.1.6-.2,0,.6-.2,1.2-.3,1.8Z"/>
    <path d="M736.4,77.6c.4,0,.8,0,1.1.3,0,0-.2.5-.2.8-.3-.3-.6-.7-.8-1.1Z"/>
    <path d="M394.9,41.5c-.2.5-.4.8-.5,1.1,0-.3-.3-.6-.2-.7.2-.3.5-.4.8-.4Z"/>
    <path d="M759.4,38c-.2.3-.5.5-.8.7-.1-.2-.2-.4-.3-.5.3,0,.7-.2,1.1-.2Z"/>
    <path d="M739.4,32c0,.4,0,.8-.2,1.1-.2-.1-.4-.2-.5-.3.2-.3.4-.6.7-.8Z"/>
    <path d="M20.4,77.9c-.3.1-.6.1-.8,0,0,0,0-.5,0-.7.2.2.5.3.7.7Z"/>
    <path d="M694,40.6c1.3,1.4,2.5,2.7,3.6,4.1.5.6.9,1.3,1.1,2.1.5,2.1,1.9,3.8,1.2,6.3-.6,2.3-2.1,2.4-3.7,2.4-3.4,0-6.8,0-10.2-.3-3.1-.3-6.4.2-9.6.4-1.4,0-2.8.3-4.1.3-.6,0-1.3-.5-1.8-.8-.3-.2-.4-.6-.5-.9.4-.2.8-.5,1.2-.5,2.3,0,4.6,0,6.9,0,2.4,0,4.8-.4,7.2-.4,3.3,0,6.7.3,10,.4.9,0,2.5,0,2.6-.2.1-1.4.4-3-.2-4.1-1.6-2.7-3.5-5.1-5.5-7.5-.4-.5-1.4-.6-2.2-.9-1-.4-1.9-.9-2.9-1.1-1.5-.2-3.1-.4-4.6,0-6,1.1-9.8,4.9-12,10.5-.2.6.1,1.4-.1,2-.2.6-.8,1.1-1.3,1.4-.2.1-.7-.1-1-.2.2-.5.3-1.1.5-1.6.4-1.2.8-2.3,1.1-3.5.9-4,3.7-6.8,7.1-8.5,3-1.4,6.3-2.8,9.8-2,2.6.6,5.1,1.9,7.7,3Z"/>
    <path d="M699.2,59.2c-.6.3-1.1.4-1.6.6,0-.4-.2-.9,0-1.3,0-.3.8-.6.9-.6.4.3.6.8.8,1.3Z"/>
    <path d="M442.1,68.7c2-4.8,5.9-7.2,10.6-7.9,2.8-.4,5.8.5,8.7.5,1.6,0,3,.3,4.5.8,2,.6,3.1,1.9,4.1,3.5.2.4.4.8.4,1.2,0,5.7-2.7,9.7-7.5,12.6-2.8,1.7-5.9,2.3-9,2.2-3.2,0-6.7-.8-9.3-2.9-1.3-1.1-1.8-3.2-2.5-4.9-.4-1-.7-2-.7-3.1,0-.7.4-1.4.7-2.2M442.9,71.7c.3.7.7,1.4.8,2.1.2,2.3,1.6,3.7,3.5,4.5,4.1,1.7,8.3,2.3,12.6.6,2.9-1.1,5.5-2.7,7.1-5.3,1-1.5,1.6-3.4,1.9-5.2.1-1.1-.4-2.9-1.3-3.5-1.2-1-3-1.5-4.6-1.7-2.2-.4-4.5-.2-6.7-.5-2.4-.3-4.6,0-6.8.8-2.7,1.1-5,2.4-5.4,5.7,0,.7-.8,1.4-1.2,2.5Z"/>
    <path d="M167,49.2c-2.4-4.1-5.5-7.5-10-8.7-5.1-1.4-10.2-1.6-15.2,1.5-4.1,2.5-6.3,5.7-7.1,10.2,0,.4-.7.8-1,1.2,0-.5-.2-1,0-1.4.7-2.1,1.6-4.1,2.3-6.2,1-2.9,3.8-4.1,6.1-5.3,2.7-1.4,5.7-2.8,8.9-2.5,6.3.6,11.9,2.6,15.8,8.1,2.5,3.5,3.9,7.4,3.9,11.5,0,4.9-.8,9.8-4.3,13.5-3.1,3.4-6.7,6.3-11.7,6.3-3,0-6.1.3-8.8-.6-1.7-.5-3.9-1-5.1-3.1-.8-1.4-2.6-2.1-3.6-3.5-1.1-1.5-1.8-3.2-2.7-4.8-.1-.2-.3-.4-.4-.6-.2-.4-.3-.9-.4-1.3,0-.1.3-.3.4-.5.4.4.9.8,1.1,1.3,2.9,7.5,10.1,11.6,16.6,11.7,7.3,0,12.3-3.2,15.4-9.3,1.6-3,2.3-6.4,1.7-10-.4-2.5-.7-5-1.8-7.5Z"/>
    <path d="M133.2,55.6c.3.5.5,1.1.6,1.7,0,0-.3.2-.5.1-.1,0-.2-.3-.3-.4,0-.4,0-.9,0-1.5Z"/>
  </g>
</svg>