<?xml version="1.0" encoding="UTF-8"?>
<svg id="Layer_1" xmlns="http://www.w3.org/2000/svg" version="1.1" viewBox="0 0 540 169.1">
  <!-- Generator: Adobe Illustrator 29.3.1, SVG Export Plug-In . SVG Version: 2.1.0 Build 151)  -->
  <g id="Shape_40">
    <path d="M348.2,169.1c3.9-5,7.6-10.1,12.2-14.5.4-.4.5-1,.8-1.5.2-.3.5-.5.8-.8.1.3.4.7.4,1,0,.5-.3,1.1-.6,1.5-1.2,1.3-2.7,2.5-3.8,3.9-2.6,3.2-5.1,6.6-7.6,9.9,0,0,0,.3-.1.5-.6,0-1.3,0-2,0Z"/>
    <path d="M130.1,87.2c-3.1,1.3-6.1,2.5-9,3.8-2.3,1-4.6,2-6.9,3-1.5.7-3,1.3-4.6,1.9-.5.2-1.1.3-1.6.6-.4.2-.9.5-1,.9,0,.3.3.8.6,1.1,2.7,3.1,6.7,3.9,10.3,4.8,3,.7,6.4,0,9.7-.4,3.9-.6,7-3.2,10.7-4.1,1.8-.5,3.7-1,5.5-1,1.3,0,2.9.7,3.8,1.6.9,1,1.2,2.6,1.5,4,.4,2,0,4-1.4,5.5-2.2,2.4-4.5,4.9-7.6,6.2-2.8,1.2-5.7,2.1-8.8,2.2-1.3,0-2.6.6-3.8.9-.3,0-.6.2-.9.2-3.4,0-6.7-.1-10.1-.3-1.3,0-2.5-.6-3.8-.9-1.3-.3-2.6-.2-3.8-.7-1.8-.7-3.5-1.7-5.3-2.6-.6-.3-1.3-.4-1.9-.7-3-1.7-5.7-3.9-8-6.6-2.2-2.6-3-5.8-4.4-8.8-.8-1.6-.9-3.2-.6-5.1.3-1.9.1-3.9,0-5.8-.1-3.2.8-6.3,1.5-9.4.3-1.3.8-2.5,1.1-3.8,0-.5-.2-1-.4-1.6-.4.3-.9.6-1.2.9-.6.7-1.1,1.6-1.8,2.3-.2.2-.6.2-.9.3,0-.6-.4-1.3-.2-1.6.3-.5,1-.7,1.5-1.1,1.3-.8,2.2-1.9,3.8-2.5,1-.4,1.6-2,2.4-3.1.5-.6.8-1.3,1.3-1.9,2.2-2.2,4.3-4.4,6.6-6.5,1.5-1.4,3-2.7,4.7-3.8.7-.5,1.9-.5,2.8-.4,1.8.1,3.1-1,4.6-1.5.5-.2,1-.2,1.5-.2.2,0,.5,0,.7,0,4.4.3,8.9.2,13.3,1,2.7.5,5.7.8,7.9,3,.3.3.9.4,1.4.5,1.5.4,2.2,1.7,3.2,2.7.4.4.7.9,1.5.2.8-.7,1.9,0,1.6.9-.5,1.8,0,3.3.9,4.8,0,.1,0,.3,0,.4,0,1.7.1,3.3.3,5,.2,1.8-.6,3.3-1.5,4.8-2.1,3.8-5.5,6.2-9.3,8.1-1.9.9-3.8,1.9-5.8,2.9M125.3,68.9c-1.5-.3-3-.6-4.6-.9-1.7-.3-3.3.5-4.8,1-1.1.4-2.4.6-3.2,1.3-2.6,2.3-5.1,4.7-6,8.2,0,.3.2.7.2,1.1.3-.1.7-.2.7-.4.2-.8.7-.5,1.2-.4.7.1,1.6.1,2.3-.2,2.3-1,4.6-2.2,6.9-3.3,2-.9,4.1-1.5,6.1-2.4,1-.4,2-.9,3-1.5.3-.2.7-.6.7-1,0-.3-.3-.7-.6-.9-.6-.3-1.2-.5-2.2-.7M144.4,61.8c-.2-.2-.3-.4-.5-.7-.1.1-.2.2-.3.3.2.2.4.3.8.4Z"/>
    <path d="M476.2,125.5c-2.3,0-4-1.3-5.8-2.2-3.8-1.8-6.2-5.2-8.8-8.3-1.4-1.7-2.3-3.8-2.6-6.2-.1-1-.9-2-.8-2.8.4-1.7-.2-3-.6-4.5-.2-.6-.2-1.3-.3-1.9-.1-1.4-.4-2.7-.3-4.1.2-2.6.3-5.3.9-7.9.5-2,1.6-3.8,2.4-5.7.3-.6.6-1.1.8-1.7.9-2.6,3-4.3,4.6-6.4.3-.4.5-.8.8-1.1.7-.7,1.5-1.3,2.2-1.9.7-.6,1.4-1.4,2.2-2,1.1-.8,2.2-1.6,3.3-2.4.4-.3.8-.5,1.1-.8.5-.9,1.1-1.1,2.2-1,.9,0,1.9-.7,2.9-1.1.9-.3,1.8-.6,2.7-.9.1,0,.3,0,.4,0,1.1-2.1,3.2-.8,4.8-1.3,1.8-.5,3.8.4,5.6-.6.1,0,.5.2.7.3.6.2,1.3.7,1.8.5,2.7-.8,5,.7,7.3,1.6,3.1,1.3,6.1,3,9.1,4.6,1.3.7,2.1,1.7,2.5,3.2.3,1.1.9,2.2,1.4,3.2.7,1.2.1,2-.8,2.7-1,.8-1.5,1.5-.2,2.5.2.2,0,1.4-.3,1.7-1,.8-.8,1.8-.8,2.7,0,2.4,0,4.9,0,7.3,0,3.4,0,6.8.4,10.2.3,2.3.6,4.6,1.1,6.9.3,1.4,1.2,2.8,1.9,4.1.8,1.7,1.7,3.3,2.4,5.1.3.9,0,1.9,0,2.9,0,2-.9,3.7-2.5,4.7-1.7,1.1-3.5,2.2-5.4,2.5-2.1.4-3.9-1.1-5.7-2.1-.5-.3-1-.7-1.4-1.1-1.9-1.9-2.8-2-5.1-.7-.5.3-1.1.4-1.6.6-1.7.5-3.4,1.1-5.1,1.6-1.6.4-3.2.9-4.8,1-2.9.1-5.9.2-8.8-.3-1.2-.2-2.3-.6-3.6-.9M494.9,109.6c.3-.2.6-.4.9-.6,2.2-.9,3.2-2.5,3-5-.3-3.6-.5-7.2-.6-10.8,0-3.9,0-7.8,0-11.7,0-.5.1-1,.3-1.5.6-1.4-.3-3.7-1.8-3.9-1.7-.2-3.4-.2-5.2.2-3.8.9-7.1,3-10.5,4.7-.5.2-.8.9-1.1,1.4-.3.5-.6,1.1-.9,1.7-1.9,2.9-4,5.6-4.9,9,0,.3-.4.8-.3.9,1.1,1.2.3,2.7.5,4,.2,1.5.3,3,.4,4.5.1,1.7,1,3.2,1.7,4.7,0,.2.5.4.6.4.8-.5,1.2-.4,1.1.5,0,1.1.4,1.5,1.3,1.8,1.5.4,2.9,1,4.3,1.4,3.8,1,7.3-.1,11.1-1.7M508.1,74.6c1.3-.5,1.7-1.7.3-3.8-.1-.2-.3-.3-.5-.4-.1.2-.4.5-.3.7,0,1.1.3,2.2.6,3.4M475.3,70.8c0-.5.1-1,.2-1.6-.2,0-.5,0-.7,0,0,.5.2,1,.3,1.6,0,0,0,0,.2,0Z"/>
    <path d="M212.6,101.1c.3,1.8.6,3.5.9,5.1.1.7.2,1.4.2,2.1,0,.9,0,1.8,0,2.7.2,3.1-.6,7.1-4.7,8.8-2.3.9-4.4.5-6.7.7-.2,0-.5-.1-.7-.3-1.5-1.3-3.1-2.6-4.6-4-.3-.3-.4-.9-.5-1.4-.1-3,.2-6.1-.4-9-.8-4.3-.3-8.5-.5-12.7-.1-2.1,0-4.2,0-6.3s0-4.9,0-7.3c0-1.6.2-3.2.3-4.8,0-.9-.1-1.8-.3-2.6,0-.2-.3-.4-.5-.6-.4-.3-1-.5-1.3-.9-.7-.9-2-1.2-2.8-.5-.9.7-1.7,1.7-2.6,2.5-.2.2-.4.5-.6.6-2.5.6-3.7,2.8-5.1,4.6-1.9,2.4-3.4,5.1-4.3,8.1-.7,2.3-1.6,4.6-2.2,6.9-.4,1.6-.6,3.3-.7,4.9-.3,5.6-.4,11.3-.6,16.9,0,1.8-1.3,2.6-2.6,3.3-.7.4-1.6.6-2.3,1-4.4,2.6-9,.4-11.2-3.1-.8-1.3-1.5-2.9-1.4-4.7.1-1.6-.4-3.2-.5-4.8,0-1.2.2-2.4.2-3.7,0-4.6,0-9.2,0-13.8,0-2.3.6-4.7,1-7,0-.3.1-.5.1-.8,0-1.9.3-3.8,0-5.6-.5-2.4.2-4.6.3-6.8,0-1.2,0-2.5,0-3.7,0-2.1,0-4.2,0-6.3,0-1.1,1.4-3.8,2.4-4.4,1.3-.8,2.6-1.7,4-2.4.4-.2,1,0,1.6,0,.4,0,.8.2,1.1,0,2.2-.9,3.6.7,5.2,1.6.9.5,1.6,1.4,2.2,2.2.4.6.5,1.4.7,2.2.7,2.1.7,2,2.5,1,2.7-1.6,5.5-3,8.3-4.4.9-.4,1.8-1.1,2.7-1.1,3.6,0,7.3-.4,10.8.9,5.9,2.2,9.1,6.5,10.9,12.2.5,1.6.5,3.4.7,5.1,0,.6.2,1.3.3,1.9,0,.9,0,1.9,0,2.8,0,1.5.3,2.9.3,4.4-.1,3.2-.8,6.5-.4,9.6.3,2.4-.7,4.9.6,7.3.5.9.1,2.2.2,3.4M197.8,59.8c0-.2.3-.4.3-.6,0-.4,0-.8,0-1.2-.4,0-1,0-1,.3-.2.6-.2,1.2-.4,1.8.3,0,.7-.1,1.1-.3M184.7,72.5c-.2-.2-.3-.4-.5-.7l-.3.3c.2.2.4.3.8.4Z"/>
    <path d="M328.1,108.7c-.2,2-.6,3.9-.5,5.8.2,4-1.9,6.6-5,8.5-.9.5-2.3.2-3.5.2-.4,0-.8-.2-1.2-.2-1.9.3-3.6-.1-4.8-1.6-1.5-1.7-3.4-1.3-4.9-.9-3.2.8-6.4,1.5-9.7,1.3-2.7-.2-5.6.2-8.2-.4-3.2-.7-6.3-1.6-9-3.8-3.2-2.6-4.9-6.2-6.9-9.5-.6-1-.4-2.5-.4-3.7-.2-3.7.1-7.5-.7-11.1-1.5-6.5-.4-12.9-.7-19.4-.1-2.2.2-4.5.6-6.7.3-1.4,1.2-2.7.8-4.1-.5-1.8.3-3.3,1.3-4.4,1.1-1.2,2.1-2.4,3.7-3.1,3.6-1.7,6.5.1,9.4,1.5,1.8.8,3.2,5.1,2.6,7.3-.1.4-.2.9-.2,1.4-.2,3,.2,6.2-.8,8.9-.8,2.4-.4,4.6-.7,6.8-.1,1,0,2.1,0,3.1.4,3.8.8,7.5,1.1,11.3,0,.7-.2,1.4-.3,2.1-.2,2.3.7,4.4,1.5,6.5.2.5.8,1.2,1.3,1.2,3.1.3,6.1.6,9.2.6,1.9,0,3.8-.6,5.6-1.1,2.5-.7,3.2-1.7,3.3-4.4,0-1.1,0-2.1,0-3.2,0-1.4.3-2.8.3-4.2,0-1.3-.3-2.6-.2-3.9.1-3.4.5-6.7.5-10.1,0-2.9-.2-5.7-.2-8.6,0-2.8.1-5.6.3-8.4,0-.6.5-1.2.8-1.8,1-1.7,1.9-3.4,3.9-4.1.1,0,.2-.3.3-.3,2.4.2,4.8.2,7.2.6,2.7.4,4.4,2.4,5.5,4.7.6,1.4.4,3.2.5,4.8,0,1.2.1,2.5,0,3.7,0,1.6-.1,3.1-.4,4.7-.3,2-.9,3.9-1,5.9-.2,2.4,0,4.7,0,7.1-.1,2.8-.4,5.6-.5,8.5,0,2.2,0,4.5,0,6.7,0,2,.2,4,.3,6.1M288.6,72.3c0-.2-.1-.5-.2-.7-.1,0-.3.2-.4.3.1.2.3.4.6.5M324.2,111c-.2,0-.4,0-.6,0,0,0,0,.3,0,.5.3-.1.5-.2.6-.5Z"/>
    <path d="M371.7,53.2c-.2,1.4,0,2.6,1.3,2.9,1,.2,2,0,3-.1.4,0,.8-.1,1.2-.1,1.7,0,3.4.3,5.2.3,3.1,0,5.5,1.5,7.8,3.2.6.4,1,1.4,1.1,2.1.2,1.8.3,3.6.3,5.4,0,.4-.2.9-.4,1.3-2.5,2.8-5.3,5.1-9.4,5-1.9,0-3.8,0-5.8,0-1.2,0-2.3.1-3.5.3-1.4.2-1.3,1.4-1.5,2.4-.2.8-.4,1.7-.5,2.6,0,.9.1,1.8.2,2.7.1,2.3-.3,4.6.8,6.8.3.6-.2,1.5-.2,2.3,0,1.6.3,3.2.2,4.8,0,2.9-.4,5.8-.5,8.8,0,1.1.3,2.2.2,3.2-.2,3.1-.2,6.2-.9,9.2-.5,2.3-1.1,5-3.6,6.3-2,1.1-4.1,2.4-6.6,1.4,0,0,0,0-.1,0-3,.7-4.8-1.1-6.3-3.2-.3-.5-.7-1.2-.7-1.7,0-8.5,0-16.9,0-25.4s0-5.1,0-7.6c.1-2.6.4-5.3.5-7.9,0-1.5.1-2.9,0-4.4,0-.4-.8-1.1-1.3-1.1-2.1-.1-4.2,0-6.1-1.1-.7-.4-1.8,0-2.7,0-1.7,0-3.3.2-4.5-1.4-1-1.3-2.3-2.3-3.4-3.5-1.3-1.4-.8-3-.4-4.6.3-1,.7-1.9,1.1-2.9,1-2,2.9-2.7,4.9-3.2,1.4-.4,2.9-.4,4.4-.3,1.6,0,3.3.4,4.9.7,2.3.5,3.9-.1,3.8-2.8,0-2.2-.2-4.5,0-6.7.2-2.1.7-4.2,1.2-6.3.2-.6.9-1.2,1.6-1.6,2.2-1.3,4.7-1.8,7.3-1.7,1.1,0,1.9.5,2.7,1.1,2.3,1.7,2.8,4.4,3.9,6.8.6,1.2.7,2.4.4,3.9-.3,1.4.1,2.9.2,4.5Z"/>
    <path d="M408.2,121.5c-2.4-1.1-4.4-2.5-5.9-4.6-1-1.3-2.4-2.2-3.5-3.3-.7-.7-1.2-1.6-1.7-2.5-.7-1.2-1.3-2.4-1.9-3.6-1.7-3.5-2.2-7.3-1.8-11,.5-3.8.4-7.7,2.2-11.3.8-1.7.9-3.8,1.6-5.6.3-.9,1.1-1.7,1.7-2.5,1-1.4,2.1-2.8,3.1-4.2.7-1,1.4-2,2.2-3,1.4-1.7,2.7-3.5,4.2-5.1,2.7-2.7,6.2-4,9.6-5.5,2.1-.9,4.2-1.7,6.6-1.5,2.6.3,5.3,0,7.7.7,3.2.8,6.2,2.2,9.2,3.6,1.7.8,3.3,1.9,4.8,3,1.1.8,2.2,1.7,2.8,2.9,2,3.6,1.8,5.5-2,8.7-.2.2-.4.4-.6.6-2.1,2.1-3.9,2-6.7.9-3.4-1.4-6.3-4.2-10.1-4.7-.5,0-.9,0-1.4,0-1.1,0-2.2.3-3.1,0-1.7-.6-2.8.2-3.8,1.2-1.9,1.8-3.7,3.6-5.5,5.5-.4.4-.6,1-.8,1.5-.8,1.8-1.5,3.8-2.5,5.5-1,1.7-1.6,3.4-1.8,5.3,0,.5-.1,1.1-.4,1.6-1.4,2.3-.6,4.5,0,6.8.3,1,.7,1.9,1.1,2.9,1.5,3.4,4.3,5,7.7,6.1,2.1.7,4.2,1.4,6.5,1.4,2.3,0,4.2-.8,6.2-2,1.9-1.2,4.2-1.8,6.3-2.6,1.4-.6,2.8-1.2,4.5-1.2,2.6,0,4.4,1.1,5.8,3.1.4.5.7,1.1,1,1.6,1.7,2.3,1.5,4.6-.5,6.6-.4.4-.7.8-.9,1.2-.8,1.7-2.7,1.7-4.1,2.5-2.8,1.5-5.8,2.6-8.8,3.6-2.3.8-4.9.8-7.2,1.5-3.7,1.1-7.2,0-10.7-.5-3.1-.4-6.4-1.6-9.2-3.6Z"/>
    <path d="M45.7,54.8c.7.9,1.4,1.7,2.1,2.6.7.9,1.7,1.3,2.7.8,2.8-1.3,5.5-2.7,8.2-4,2.3-1.1,4.8-1.8,7.4-1.8,1.8,0,3.5.2,5.3,0,3.1-.4,5.6,1,8.1,2.5,2.9,1.6,3.6,4.3,4.1,7.3.3,1.8,1,3.5.8,5.5-.1,1.9.1,3.9,0,5.8-.3,3.4-2.5,5.6-5.1,7.4-.7.5-1.8.9-2.7.8-2,0-4.2.9-5.7-1.1-.9-1.2-1.7-2.6-2.4-3.9-.8-1.6-1.2-3.2-.7-5,.2-.7-.5-2-1.1-2.3-.8-.4-2.1-.3-2.9,0-1.1.5-2,1.2-3.3,1.1-.5,0-1.1.5-1.7.8-3.4,1.6-6.3,3.8-8.6,6.8-1.2,1.6-2,3.4-1.9,5.6.2,3.2,0,6.5,0,9.7v5.6c0,2.4,0,4.9,0,7.3,0,2.1-.2,4.3-.6,6.4-.3,1.1-1.5,2-2.1,3-1.6,2.7-4.1,1.2-6.3,1.3-.1,0-.4-1.2-.4-1.8,0-.8-.7-3.1-1.4-3.3-.2,0-.5,0-.7,0-.7.5-1.4,1.1-2,1.7-.6.5-1.2.7-1.7-.1-.4-.7-1.2-1.4-.2-2.3.1-.1.3-.4.4-.4,2.2-.6,1.4-2.1,1-3.4-.6-1.9-.6-3.6.8-5.2.2-.2,0-.7,0-1.1-.3,0-.6,0-.8.2-.4.3-.7.7-1,1-.3.2-.7.4-1,.6-.1-.4-.3-.8-.3-1.2,0-4.6.1-9.1.3-13.7,0-1.7.4-3.4.5-5.1,0-.8-.3-1.6-.2-2.3,0-4.2.1-8.4.3-12.6,0-1.2.7-2.2,1.8-2.7.9-.4,1.9-.6,2.8-.9.3-.1.5-.5.5-.8,0-.4,0-.9,0-1.3,0-.5-.3-.9-.5-1.3-.3.4-.8.7-.9,1.1-.2,1-.5,1.7-1.7,1.5-1.2-.2-1.9-.8-2.1-2.1-.8-5.5,5.4-9.7,10.1-8.4,1.2.3,2,.8,2.9,1.6M52.3,69.6c-.7.7-1.5,1.4-2.1,2.2-.2.3.2,1,.3,1.5.3-.2.9-.5.9-.7,0-1.1.5-1.8,1.4-2.3.8-.5.2-.7-.5-.6M40.9,98.2c-.1-.1-.2-.2-.3-.3-.3-.1-.5-.2-.8-.3,0,.3,0,.7.3.9.2.2.5.4.8.5.1,0,.3,0,.5,0,0-.2-.2-.4-.4-.7Z"/>
    <path d="M137,19.4c1.4,1.3,2.6,2.6,2.7,4.5,0,.6,0,1.3-.2,1.9-.9,2.6-2.5,4.6-4.9,5.7-3,1.5-5.1,3.8-7,6.5-1.6,2.3-3.7,3.9-6,5.4-1.1.7-2.1,1.5-3.3,1.7-1.5.3-3.4.4-4.7-.2-1.8-.8-3.4-2.4-5-3.7-.6-.5-.8-3.8-.4-4.5,2.3-3.6,5.4-6.4,8.6-9.2,2.2-1.9,4.2-4,6.1-6.2,1.5-1.6,3.4-2.1,5.3-2.9,3.1-1.3,5.9-.7,8.7,1M120.7,28.3c-.5-.3-1-.5-1.5-.8.2.5.3,1.1.5,1.6.4,1.1.7,2.1,1.1,3.2.1.3.2.7.4,1,.3-.4.8-.9.7-1.2-.3-1.2-.7-2.4-1.3-3.7M126.9,26.1c0-.2-.2-.5-.3-.7-.2-.3-.4-.6-.6-.9-.1.3-.3.6-.3.9,0,.6-.1,1.3,0,1.9,0,.4.5.8.7,1.2.1-.4.3-.7.4-1.1,0-.3,0-.7,0-1.3M120.1,35c.1-.4.2-.7.4-1.1-.4,0-1.1,0-1.2.3-.3.8-.3,1.6-.4,2.4,0,0,.2.1.3.2.2-.5.5-1,.7-1.5,0,0,0,0,.2-.2Z"/>
    <path d="M181.7,92.9c-.6.3-1.1.6-1.7.8-.3,0-.7-.1-1.1-.2.2-.2.4-.4.6-.5,1.7-.9,3.4-1.7,5.2-2.5.2,0,.7.2.7.3.3,2.7.9,5.5.8,8.2,0,3.6.5,7.1,1.6,10.5.2.8,1,1.4,1.5,2.1.1.2.4.4.4.5,0,.6,0,1.2-.2,1.8-.3-.4-.7-.8-.9-1.2-.4-1-1-1.7-1.8-2.5-.9-1-1.3-2.5-1.5-3.8-.2-1.6,0-3.3,0-5,0-1-.4-2.1-.2-3.1.4-1.9-.6-3.5-1-5.2-.3-1.2-1.1-1.2-2.6-.2Z"/>
    <path d="M303.7,68.7c-.7-2-2-2.4-3.8-2.1-.2,0-.5-.1-.8-.2.1-.2.3-.5.5-.7.6-.5.5-.8-.1-1.2-1.8-.9-2.8-2.3-3-4.3,0-.2,0-.4,0-.7.2.1.4.2.6.3.7.9,1.5,1.7,2,2.6.7,1.2,1.8,1.8,3.1,2.3.9.4,1.6,1.3,2.6,1.5,1.3.3,2.7.1,4,.1.1,0,.3.1.3.2,0,.8,0,1.5-.1,2.3,0,.5,0,.9,0,1.4,0,.4-.2.8-.3,1.2-.3-.3-.7-.5-.9-.8-.8-1.1-1.5-2.2-2.2-3.3-.1-.2-.5-.2-.7-.3,0,.2-.2.5-.2.7,0,.4,0,.8,0,1.2-.2,0-.4-.2-.7-.3Z"/>
    <path d="M445.1,83.8c.4,0,.8.2,1.3.3,0-.6.1-1.2,0-1.8,0-.3-.6-.5-.8-.8-.1-.2-.2-.6,0-.9,0-.2.5-.4.7-.3.2,0,.5.4.6.6.2.7.4,1.5.6,2.2.2.5.4,1.2.8,1.5,1.3.9,1.3,2.1,1.2,3.4,0,.2,0,.5-.2.6-1,.6-1,1.6-1.3,2.5-.1.5-.8.8-1.2,1.2-.2-.5-.7-.9-.7-1.4,0-1.1.1-2.2.3-3.4,0-.2.2-.3.4-.4.2.3.4.5.5.8,0,.2,0,.4.1.7.1-.2.4-.5.4-.7,0-.8.5-2-1.2-2-.5,0-1.1-.6-1.6-.9-.8-.5,0-.8.2-1.3Z"/>
    <path d="M85.7,91.3c.6,1.7-1.3,2.6-1.2,4,0,1.4.5,2.8.8,4.1,0,.1.7,0,1,.1.3,0,.5,0,.8,0,0,.3,0,.6-.2.8-.7.7-.6,1.1.4,1.2,0,0,.2.3.2.5-.2,0-.3,0-.5,0-.2,0-.5-.1-.7,0-1.3.6-1.3-.2-1.3-1.1,0-.4,0-.9-.2-1-1.3-.8-1.5-2.2-1.9-3.4-.1-.3-.2-.8,0-1.1.6-1.4,1.4-2.8,1.9-4.3.4-1.1.6-.2.9.1Z"/>
    <path d="M464,26.8c-1.4-1.7-.2-3,.5-4.4,1.2-2.5,3-4.8,3.2-7.6,0-.3.1-.5.3-.7.4-.5.8-.9,1.3-1.3-.1.5-.3,1-.4,1.6-.6,1.8-1.1,3.6-1.8,5.4-.3.9-.6,1.8-1.2,2.5-1,1.2-1.6,2.4-1.1,4,0,.2-.4.5-.8.7Z"/>
    <path d="M142.6,125.2c0,.5.2.8.2,1.1,0,.4-.3.9-.1,1.2,1.3,2.3-.3,4.2-.6,6.2,0,.2-.4.4-.5.4-.3-.2-.8-.5-.9-.8,0-.6,0-1.4.3-1.7,1.3-1.3.5-2.6.4-3.9-.1-1.1.1-2.2.3-3.3,0-.1.4-.3.5-.4.2.3.4.7.5,1.2Z"/>
    <path d="M475.2,3.1c1.1.9.7,1.5-.3,1.9-1.1.5-2.3.9-3.5,1.3,0,0-.3,0-.3,0,0-.1-.1-.3,0-.4.4-.5.8-.9,1.1-1.4.4-.7.7-1.4,1-2.2.4-.8.7-1.6,1.2-2.2.1-.2.8,0,1.3,0-.2.1-.3.3-.5.4-.7.8-.6,1.6,0,2.5Z"/>
    <path d="M413.2,89.3c1.5-3,3.6-5.4,6.2-7.4.2-.1.4-.1.6-.2,0,.3.1.6,0,.8-.7,1-1.4,1.9-2.2,2.8-1.3,1.5-2.6,2.9-4,4.3-.2.2-.4.2-.6.3,0-.2,0-.4,0-.7Z"/>
    <path d="M384.1,125.5c0-.5.1-1,.4-1.4,1.3-1.9,2.6-3.8,4-5.7.2-.3.6-.4.9-.6,0,.5.4,1.1.2,1.4-1.2,1.6-2.5,3.2-3.8,4.8-.5.6-1,1-1.7,1.5Z"/>
    <path d="M251.8,77.4c0-.4-.1-.7,0-1,0-.5.3-.9.5-1.3.3.4.7.7.9,1.1.2.4.2,1,0,1.3-.7.9-.2,1.8-.3,2.6,0,.2-.2.4-.3.5-.3.3-.7.4-1,.7-.3.3-.6.6-.8,1,0-.7-.2-1.7.2-2,.9-.8.9-1.7.9-2.8Z"/>
    <path d="M449.5,94.2c0,.4.3,1,.1,1.3-.7.9-1.1,1.7-.5,2.8,0,.1,0,.4,0,.5-.7,1-.7,2-.5,3.1,0,.2-.3.4-.4.7-.1-.3-.4-.5-.4-.8-.7-2.8-.3-5.3,1.8-7.5Z"/>
    <path d="M31.9,104c.3.2.6.5.6.8.2,1.2.3,2.3.3,3.5,0,.6-.5,1.2-.7,1.8-.3-.5-.9-1.1-.9-1.6,0-1.5.4-3,.7-4.6Z"/>
    <path d="M443.7,56.1c-1.1-1.6-.9-2.6.6-4.3.7-.8,1.4-1.6,2.1-2.3,0-.1.3-.1.4-.2,0,.2,0,.5,0,.7-.7,1.3-1.5,2.6-2.2,4-.2.5-.2,1.1-.3,1.6,0,.2-.3.3-.5.4Z"/>
    <path d="M133.8,124c.8-1.1.9-2.9,2.9-2.5.2,0,.6.5.6.5-1.1,1.2-2.2,2.5-3.4,3.7,0,0-.5-.2-.5-.3,0-.4.3-.8.5-1.3Z"/>
    <path d="M218,74.2c1.3,2.3.3,4.5,0,6.6,0,.1-.5.3-.5.2-.2-.3-.6-.7-.5-1,0-.8.4-1.7.5-2.5,0-.9-.2-1.8-.4-2.8,0-.2,0-.5,0-.7.3,0,.5,0,.9.1Z"/>
    <path d="M357.1,31.8c.3-.4.9-.9.9-.8.5.5,1.2,1.1,1.3,1.7.2.8-.1,1.6-.3,2.5,0,0-.4.1-.7.2-.2-1.2-1.9-1.8-1.3-3.5Z"/>
    <path d="M439.1,59.8c-.5-.5-.9-.7-.2-1.4.8-.7,1.3-1.7,2-2.5.2-.2.5-.3.7-.4,0,.3,0,.5,0,.8,0,1-.1,2.1-.2,3.1,0,.1-.3.3-.5.4-.6-1.2-1.1,0-1.8,0Z"/>
    <path d="M521.5,106.9c-1-1,0-2.2-.3-3.2,0,0,.2-.2.3-.2,0,0,.2.1.3.2.1.5.2,1,.3,1.5.3.9,0,2,1.4,2.4.2,0,.4.7.3,1-.1.5-.5.9-.7,1.3,0,0-.4-.2-.6-.3.7-1.2-.9-1.6-.9-2.7Z"/>
    <path d="M26.1,118.9c-1,0-1.7-.1-1.4-1.3,0-.3.4-.9.6-.9,1,.1,2.6-.4,2.5,1.5,0,.8-.8,1.2-1.8.7Z"/>
    <path d="M407.1,45.2c.5-.4.9-.7,1.4-1.1,0,.7,0,1.4,0,2.1,0,.3-.2.7-.4,1-.4.3-.8.5-1.3.8,0-.6,0-1.2,0-1.8,0-.3.2-.6.4-1Z"/>
    <path d="M393.1,47.1c-.4-.4-.8-.8-.8-1.3,0-.4.4-.9.6-1.3.2-.3.5-.5.8-.7,0,.4,0,.9,0,1.2-.5,1.3-.4,1.2.8,1.6.7.2,1,1.3,1.5,2,0,0-.1.2-.2.1-.4-.2-.8-.4-1.2-.6-.5-.3-.9-.7-1.5-1.1Z"/>
    <path d="M308.9,124.4c.3.9.5,1.6.6,2.4,0,.2-.2.5-.4.7-.3-.2-.7-.3-.7-.5-.3-1.3-.6-2.5-2-3.1,0,0-.1-.3,0-.4,0,0,.3-.2.4-.1.7.3,1.4.6,2.2.9Z"/>
    <path d="M191.7,88.7c-.3.3-.5.6-.8.8,0-.4-.2-.8-.2-1.2.2-1.1.5-2.2.9-3.2.1-.4.5-.7.7-1,.1.4.4.8.4,1.1-.3,1.2-.6,2.3-1.1,3.5Z"/>
    <path d="M457.8,34.3c.5-.4,1-.7,1.5-1,.1.5.3,1.1.3,1.6,0,.1-.1.3-.2.5-.4.5-.7,1-1.1,1.6-.1-.6-.3-1.1-.4-1.7,0-.3,0-.6,0-.9Z"/>
    <path d="M32.1,54.6c.3.6.4,1.1.6,1.6-.6,0-1.2,0-1.6-.3-.5-.4-1.4-1.4-1.2-1.6.8-1.1,1.4.2,2.3.4Z"/>
    <path d="M266.3,101.7c-.5-.1-.8-.3-1.1-.4.1-.2.2-.6.4-.7.3,0,.6,0,.9.2.6.3,1.2.7,1.6,1.1.6.6.4,1.3-.3,1.6-.2,0-.8-.5-1.1-.9-.2-.2-.1-.6-.3-.9Z"/>
    <path d="M252.3,69.4c-.3.3-.5.4-.7.6-.1-.3-.4-.6-.4-.8,0-.6-.1-1.3,0-1.9,0-.5.5-.9.7-1.3.2.4.7.8.7,1.3,0,.7-.2,1.4-.3,2.1Z"/>
    <path d="M134.1,130.8c0,.3,0,.5,0,.6-.3,0-.7,0-.8-.2-.5-.8-.9-1.6-1.2-2.5-.1-.4.2-.9.3-1.4.4.4.9.7,1,1.2.3.7.3,1.5.5,2.3Z"/>
    <path d="M448.2,47.9c0-1.5,1.2-2.4,2.3-3.4.4-.4,1-.7,1.5-1.1-.3.6-.6,1.2-1,1.7-.9,1-1.8,1.8-2.8,2.8Z"/>
    <path d="M214.8,80.9c0,.3,0,.6-.2.8-.2-.2-.6-.3-.6-.5,0-1.5.2-2.9.3-4.4,0-.1.4-.2.7-.4,0,.3.2.6.2.9-.1,1.1-.3,2.3-.4,3.5Z"/>
    <path d="M374.6,108.9c.9.6,1.1,2.1.4,2.6-.2.1-.7,0-.7,0-.3-1-.4-1.9-.6-2.9.3,0,.6.2.9.3Z"/>
    <path d="M518.6,97.7c-.5,0-1.1,0-1.2-.3-.2-.8-.3-1.7-.3-2.6,0-.1.1-.3.2-.4.2,0,.4.1.4.3.3,1,.6,2,.8,3Z"/>
    <path d="M252.1,85.8c1-.9,1-1.9.6-3-.1-.3,0-.7.1-1.1.2.3.4.5.5.8.5,1,.5,2-.2,2.9-.2.3-.7.4-1.1.4Z"/>
    <path d="M26.3,113.3c.5-.9,1.1-1.7,1.8-2.5.2-.2.5-.3.8-.5,0,.5.2,1.1,0,1.3-.7.7-1.6,1.1-2.5,1.6Z"/>
    <path d="M223,86.1c.2.3.4.5.5.8-.2,0-.4,0-.6,0-.9.2-1.1.8-1,1.6,0,.2-.1.5-.2.7-.2-.2-.5-.4-.6-.6-.5-1.2.4-2.5,1.9-2.5Z"/>
    <path d="M286.6,141.2c-.2-1.4.5-2.3,1.2-3.2,0-.1.3-.2.4-.2,0,.1.2.3.1.4-.4,1.1-.8,2.2-1.3,3.4,0,0-.3,0-.5-.2Z"/>
    <path d="M347.1,167c.1-.9-.3-2.2,1.4-1.7,0,0,.2-.1.3-.2.2-.2.3-.4.5-.6.1.1.4.3.4.4-.1.3-.3.5-.5.7-.5.6-.8,1.6-2,1.4Z"/>
    <path d="M197.5,41.9c-.2.5-.4.8-.5,1.2-.3-.4-.8-.7-.9-1.1-.1-.5,0-1.2,0-1.7.3.3.7.5,1,.8.2.2.3.5.4.8Z"/>
    <path d="M287.2,125.8c0,.5.2.8.3,1.2,0,.5.1.9.2,1.4-.4-.2-.8-.5-1.3-.6-.2,0-.5,0-.7,0-.2,0-.4-.2-.5-.3,0,0,0-.2,0-.4,1.2.2,1.1-1,1.6-1.5,0,0,.2,0,.4.3Z"/>
    <path d="M215.7,89c0-1.4.8-2,1.8-1.3.3.2.6.6.5.9-.2.6-1.7.9-2.3.5Z"/>
    <path d="M125.5,96.5c0,.4-.1.6-.2.9-.2-.3-.6-.6-.6-.9-.2-1-.2-2-.3-3,0-.3.2-.7.3-1,.2.3.4.5.5.8.1,1,.2,2,.3,3.2Z"/>
    <path d="M186.7,87.1c-.4.2-.7.4-1.1.5,0-.3,0-.6,0-.9.1-.3.3-.6.6-.9.2-.3.5-.6.8-.9,0,.5,0,1,0,1.5,0,.2-.2.4-.4.7Z"/>
    <path d="M336.7,70.7c0,.7-.1,1.3-.3,1.8,0,0-.8,0-.8,0-.1-.6-.1-1.2-.2-1.8.4,0,.8,0,1.3,0Z"/>
    <path d="M281,137.8c.5-1.1.5-1,1.3-.5.5.3,1.1.3,1.7.5.2,0,.4.3.6.5-.2,0-.5.2-.7,0-.9-.3-2,.8-2.8-.5Z"/>
    <path d="M305.2,53.8c0-.2,0-.2,0-.3.2-.5.5-1,.7-1.5,0,.5,0,1,0,1.5,0,.6,0,1.2,0,1.9,0,.2-.3.4-.4.7-.1-.2-.4-.5-.4-.7,0-.5.2-1,.3-1.6Z"/>
    <path d="M468,57.5c-.9-.9-1.5-1.9-.5-3.1,0-.1.2-.2.4-.3,0,0,.2.2.2.3,0,1,0,2,0,3.1Z"/>
    <path d="M400.2,68.3c.1.1.1.2.2.3-.2,0-.5,0-.5,0-.2-1.2-.4-2.3-.6-3.5,0-.1.3-.3.5-.4.1.2.3.4.3.6,0,1,0,2,0,3.1Z"/>
    <path d="M387.1,54.5c.7-.5,1.3-.9,1.9-1.3.2-.1.5,0,.8,0,0,.2-.1.4-.3.6-.4.4-.7.9-1.2,1.2-.5.4-1.3.9-1.2-.5Z"/>
    <path d="M423,79.3c.1-1.1.5-2.2,1.8-2.6.3-.1.7,0,1.1,0-.2.2-.5.4-.7.6-.7.6-1.4,1.3-2.2,2Z"/>
    <path d="M132.7,50.4c0-.3,0-.7.2-.9.3-.3.7-.4,1-.6.1.3.4.6.3.8-.1.5-.5.9-.7,1.4-.2-.2-.5-.5-.8-.8Z"/>
    <path d="M259.5,82.5c0,.2,0,.3,0,.5,0,.3,0,.6,0,.9-.2,0-.6,0-.7-.1-.2-.3-.4-.6-.5-1,0-.2.1-.4.3-.6.3-.4.6-.7,1-1.1,0,.4,0,.9-.1,1.4Z"/>
    <path d="M350.1,32.9c-.3-.2-.8-.5-.7-.7.2-.6.6-1.2.8-1.8.2.2.5.4.5.5-.1.6-.4,1.3-.6,2Z"/>
    <path d="M348.4,158.7c-.3-.1-.6-.2-.8-.3.2-.2.4-.6.6-.6.6-.2,1.2-.2,1.9-.3.1,0,.3,0,.4.1,0,0,0,.3,0,.4-.6.3-1.3.6-2,.8Z"/>
    <path d="M125.6,47.1c-.3-.5-.6-.9-.8-1.4,0-.2,0-.4,0-.6.1-.2.4-.3.6-.3.7.2,1.2,1.8.8,2.3,0,0-.3,0-.6-.1Z"/>
    <path d="M108.4,45.1c-.1.5-.3.8-.4,1.1-.2-.2-.6-.4-.7-.6-.1-.7,0-1.4,0-2,.2,0,.6,0,.6,0,.2.4.4.9.5,1.5Z"/>
    <path d="M92.8,56.1c.6.4,1.1.8,1.6,1.2-.6,0-1.3-.1-1.9-.3-.3,0-.6-.4-.9-.7.4-.1.8-.2,1.2-.3Z"/>
    <path d="M406.9,53.5c.2,0,.7-.1.8,0,.5.7.9,1.4,1.4,2.1,0,.1,0,.3.1.4-.1,0-.3,0-.4,0-1.5,0-1.2-1.6-1.9-2.4Z"/>
    <path d="M447.4,64c-1.2.9-1.1-.6-1.8-.8,0-.2,0-.6.2-.6.6-.1,1.2-.3,1.4.6,0,.2.2.4.3.7Z"/>
    <path d="M125.4,50c-.9.2-1.7.3-2.6.4,0,0-.3-.2-.2-.2,0-.2.2-.4.3-.4.8-.2,1.7-.3,2.5-.4,0,.2,0,.5,0,.7Z"/>
    <path d="M36.7,117.6c-.4-.6-.7-1.2-.9-1.7.2,0,.7-.3.7-.2.4.6.7,1.2,1,1.9-.2,0-.5,0-.8,0Z"/>
    <path d="M193.7,74.7c.2-.2.4-.3.6-.4.2.7.4,1.5.6,2.2,0,0-.2.3-.4.3-.2,0-.4-.1-.5-.3-.1-.5-.2-1.1-.3-1.7Z"/>
    <path d="M471.2,9.1c-.2.4-.4.6-.6.8-.1.1-.3.3-.4.4,0-.2.1-.3.1-.5,0-.5,0-1.1,0-1.6,0-.3.4-.5.6-.8,0,.3.2.6.2.9,0,.2,0,.5,0,.9Z"/>
    <path d="M400.9,39.5c-.4-.3-.2-2.5.2-2.5.2,0,.7.5.7.6-.2.6-.5,1.2-.9,1.9Z"/>
    <path d="M370.1,141.7c.5-.4,1-.7,1.5-1-.3.5-.6,1.1-.9,1.6,0,0,0,0-.1,0-.5.2-1,.3-1.5.5.3-.4.6-.7,1-1.2Z"/>
    <path d="M51.4,88.9c-1.4-.3-.5-1.3-.8-2,.2,0,.6,0,.6,0,.1.6.2,1.3.2,2Z"/>
    <path d="M416.9,95.6c0,.8,0,1.7,0,2.5,0,.2-.3.3-.5.4-.1-.2-.4-.4-.3-.6.2-.8.5-1.5.8-2.3Z"/>
    <path d="M189.4,103.2c0,.4.2.7.2,1,0,.1-.2.4-.4.4-.2,0-.4-.2-.5-.3,0-.4,0-.9,0-1.3,0-.4.3-.8.4-1.3.1.5.2,1,.2,1.5Z"/>
    <path d="M284.6,50.9c.4.2.7.3.8.5,0,.1-.2.4-.3.6-.2-.2-.4-.3-.6-.5-.2-.1-.5-.2-.7-.4-.2-.1-.5-.2-.7-.4,0,0,.2-.4.3-.6.2.1.5.3.7.4.1,0,.2.2.5.3Z"/>
    <path d="M69.8,89.9c.1.3.3.8.2,1-.3.5-.7.8-1.1,1.2-.1-.2-.4-.5-.3-.6.3-.5.7-1,1.2-1.6Z"/>
    <path d="M426.5,89.8c.3.1.9.5.8.6-.2.5-.6,1-1,1.4-.1-.3-.4-.6-.4-.8,0-.4.4-.7.5-1.2Z"/>
    <path d="M376.3,34.7c0,.5,0,.8,0,1.1,0,.3,0,.6,0,.9-.2-.3-.5-.5-.6-.8,0-.5,0-1.1,0-1.6,0-.3.3-.5.5-.8,0,0,.4.1.4.1,0,.3-.2.6-.3,1Z"/>
    <path d="M437,85.7c.2-.1.7-.4.9-.2.4.3.7.8,1.1,1.2-.3,0-.6.3-.8.2-.4-.3-.8-.7-1.2-1.1Z"/>
    <path d="M193.4,81.1c-.4.8-.8.3-1,0-.3-.4-.5-.9-.7-1.4.3,0,.6,0,.8,0,.4.3.6.8.9,1.3Z"/>
    <path d="M524.6,105.1c-.5,0-.8-.1-1.2-.2,0-.1,0-.3.1-.4.5-.3,1-.5,1.5-.8-.1.4-.2.9-.4,1.4Z"/>
    <path d="M294.8,48.5c.2.2.3.4.4.6-.2.1-.4.3-.6.3,0,0-.2-.1-.3-.2-.4-.4-.8-.8-1.2-1.2.5.1,1.1.3,1.7.5Z"/>
    <path d="M539.4,111.4c.3.3.4.5.6.7-.3,0-.6.1-.8,0-.3,0-.6-.1-.7-.3-.3-.4-.5-.8-.7-1.3.4.2.7.3,1.1.5.2,0,.3.1.6.3Z"/>
    <path d="M294.4,132.8c0,.3,0,.4,0,.6,0,.3-.1.6-.2.9-.1-.2-.2-.5-.4-.7,0-.2-.3-.4-.3-.6,0-.4,0-.8,0-1.2.3.3.5.6.8,1.1Z"/>
    <path d="M156.3,82c-.3,0-.8-.2-.8-.3.1-.6.4-1.1.6-1.6.2.1.5.2.5.3,0,.5-.2,1-.3,1.6Z"/>
    <path d="M422.4,50.1c.7,1-.2,1.4-.6,1.9-.2-.2-.5-.4-.4-.4.3-.5.7-1.1,1.1-1.5Z"/>
    <path d="M82.2,52.6c-.3-.2-.7-.4-.8-.6,0-.4.2-.8.3-1.3.2.3.4.6.5,1,0,.3,0,.6,0,.9Z"/>
    <path d="M63.6,100c.2.4.4.7.5.9,0,.2-.1.5-.2.7-.2-.1-.4-.2-.5-.4-.3-.4-.5-.8-.7-1.2,0-.1,0-.3,0-.5.4.1.7.2,1.1.5Z"/>
    <path d="M277.6,139.2c0-.5-.1-.8-.2-1.1.2.2.3.5.5.7,0,.1.2.2.3.3.2.4.4.9.5,1.4,0,0-.2.1-.3.2-.2-.4-.4-.7-.6-1.1,0,0-.1-.1-.2-.3Z"/>
    <path d="M106.3,52.4c.3.4.4.7.5,1.1-.5.1-1,.2-1.6.3,0-.2,0-.4,0-.5.3-.3.6-.6,1.1-.9Z"/>
    <path d="M84.5,80.5c.2,0,.5,0,.6.1.2.4.4.8.6,1.3-.2,0-.4,0-.5,0-.5-.3-1.3-.4-.7-1.4Z"/>
    <path d="M83.3,81.9c-.5.1-.9.2-1.3.3,0-.3.1-.7.3-1,.1-.2.4-.3.7-.4.1.3.3.7.3,1.1Z"/>
    <path d="M58.5,97.2c-.5,0-.9-.2-1.3-.3,0-.2.2-.5.3-.7.4.3.7.6,1,1Z"/>
    <path d="M281.1,142.1c.1-.6.2-1.1.3-1.6.2,0,.5,0,.5.1,0,.7.2,1.5-.8,1.5Z"/>
    <path d="M382.3,50.4c.2.5.4.9.5,1.4-.3-.3-.6-.6-.9-.9,0,0,0-.2-.1-.4,0-.3-.2-.6-.3-.9.2.2.5.5.8.8Z"/>
    <path d="M223.7,96.1c-.1-.3-.2-.6-.3-.9,0-.3,0-.5,0-.8.2,0,.6,0,.7,0,.2.2.3.5.2.8,0,.3-.4.6-.6.8Z"/>
    <path d="M218.1,91c0,.5-.1.8-.2,1.2-.2-.2-.6-.5-.6-.7,0-.4.1-.9.2-1.3.2.2.4.5.7.9Z"/>
    <path d="M257.5,63c-.2.2-.3.4-.5.5-.4.3-.7.5-1.1.7,0-.2,0-.5,0-.5.7-.1.5-1.7,1.7-1.1,0,0,0,.2,0,.3Z"/>
    <path d="M400.1,70.1c0,.3,0,.4,0,.5,0,.3,0,.6,0,1,0,0-.2.1-.3.2-.1-.3-.4-.7-.3-1,0-.3-.5-1.2.5-.7Z"/>
    <path d="M324.3,38.1c-.2.2-.4.3-.6.4,0-.5,0-.9,0-1.4,0-.2.1-.3.2-.4.1.3.3.6.4.8,0,.1,0,.3,0,.6Z"/>
    <path d="M383.9,114.5c.2-.5.5-.8.7-1.2.2.2.3.3.5.5-.4.3-.8.5-1.2.7Z"/>
    <path d="M149.9,35.6c.5,0,.9,0,1.4,0-.1.2-.3.3-.4.5-.7.6-.9.1-.9-.5Z"/>
    <path d="M429.2,56.1c0-.5,0-.9,0-1.2.1,0,.3,0,.4.1.2.4.3.8.5,1.2-.2,0-.5,0-.8-.1Z"/>
    <path d="M131.2,97c.4.3.7.6.9,1-.2,0-.4.2-.6.2-.2-.4-.3-.8-.4-1.2Z"/>
    <path d="M29,122.1c-.2-.3-.3-.6-.4-.9.2.1.4.3.6.4.1.1.3.3.4.4.2.2.5.5.7.7-.1,0-.3.2-.3.1-.3-.2-.5-.5-.9-.8Z"/>
    <path d="M429.1,47.4c-.4-.4-.6-.7-.8-1.1,0,0,.3-.2.4-.3.2.5.4.9.4,1.4Z"/>
    <path d="M86.1,77.8c-.4-.2-.7-.4-.9-.5.1-.2.3-.5.4-.5.3,0,.6.1.9.2,0,.3-.2.6-.3.8Z"/>
    <path d="M63.6,95.3c-.5-.3-1.1-.6-.3-1.2.2-.1.5-.2.7-.3,0,.2-.2.5-.3.7,0,.2,0,.4-.2.7Z"/>
    <path d="M225.1,82.1c-.4,0-.7,0-.9,0,.1-.3.2-.7.4-.9.1-.1.6.1.8.2,0,.2-.2.4-.3.7Z"/>
    <path d="M404.5,41.9c0-.5.2-.8.2-1.2.2,0,.4.2.6.3-.5.1.2,1.4-.9.9Z"/>
    <path d="M453.7,41.9c-.1-.3-.2-.6-.1-1,0,0,.4-.1.6-.2-.1.4-.2.7-.4,1.2Z"/>
    <path d="M529.2,109.3c0,.5-.1.9-.3,1.3,0,0-.3,0-.5,0,.2-.5.4-.9.7-1.3Z"/>
    <path d="M406.5,127.3c0-.4.1-.6.2-.9.1.3.3.6.3.9,0,.3-.2.6-.3.9,0-.2-.1-.5-.2-.9Z"/>
    <path d="M30.2,89.5c-.3,0-.6,0-.8.1,0-.4.1-.8.2-1.2.2.2.3.3.5.5,0,.1.1.3.1.6Z"/>
    <path d="M405.1,39.5c0-.4,0-.7,0-1.1.2.1.5.2.7.4-.2.3-.4.5-.7.7Z"/>
    <path d="M395.2,59.9c-.2-.4-.4-.8-.4-1.2,0,0,.2-.1.4-.2,0,.4.1.9,0,1.3Z"/>
    <path d="M312.1,131.6c-.2,0-.4,0-.5,0,0,0,0,0,0-.1-.1-.4-.3-.8-.4-1.2.3.4.6.9.9,1.4Z"/>
    <path d="M138.5,96.7c-.4,0-.7-.3-1-.4.4-.1.8-.2,1.1-.4,0,.2,0,.5-.1.8Z"/>
    <path d="M367.3,145.6c0,.3,0,.6,0,.8-.3.2-.6.2-1,.3.2-.3.4-.6.6-.8,0-.1.2-.2.5-.3Z"/>
    <path d="M145,30.8c0-.2,0-.3,0-.4,0-.3.1-.7.2-1,.2.2.5.4.4.5,0,.3-.3.6-.6.8Z"/>
    <path d="M0,124c.3.2.5.5.6.8,0,0-.3.2-.5.3,0-.4-.1-.7-.1-1.1Z"/>
    <path d="M413.4,59.4c.2-.3.5-.5.8-.6,0,0,.2.3.3.5-.4,0-.7.1-1.1.1Z"/>
    <path d="M305.5,49.1c.3-.3.7-.5,1-.7,0,.2,0,.6,0,.6-.3,0-.7.1-1.1,0Z"/>
    <path d="M50.9,83.1c-.1-.4-.1-.8-.1-1.2.2,0,.6.2.6.3,0,.3-.2.6-.4.9Z"/>
    <path d="M375.9,38.5c0,.3-.3.5-.4.7-.1-.3-.3-.6-.3-.9,0-.2.2-.3.3-.5.2.2.3.4.5.7Z"/>
    <path d="M154.2,72.7c.3,0,.6,0,.8,0-.1.2-.2.4-.4.5-.3.1-.6.2-.8.2.1-.3.2-.5.5-.8Z"/>
    <path d="M228.5,97.7c.2.2.3.4.3.6,0,.2-.2.5-.3.7,0,0-.3,0-.3,0,0-.3,0-.5,0-.8,0-.2.1-.3.3-.5Z"/>
    <path d="M156.3,77c-.1.3-.2.4-.4.6,0-.4-.2-.8-.2-1.2,0,0,.2-.2.3-.3,0,.2.1.5.2.9Z"/>
    <path d="M424.2,31.5c-.2.2-.4.2-.6.2,0-.2,0-.5,0-.7,0-.2-.1-.4-.2-.6.2.1.4.3.6.4.1.1.1.3.2.6Z"/>
    <path d="M436.6,80.9c-.3-.4-.5-.7-.6-1,0,0,.2-.2.3-.2.2.5.4.9.6,1.4,0,0,0,0,0,0,0,0,0,0-.2-.2Z"/>
    <path d="M315,50.3c.3,0,.6.2.9.3-.2.2-.4.4-.5.6-.1-.2-.2-.5-.3-.9Z"/>
    <path d="M389.6,56.7c-.3-.2-.5-.5-.7-.7.2-.1.4-.2.6-.4,0,.3.1.7.2,1.1Z"/>
    <path d="M310.3,135.6c-.4.2-.7.4-1.1.5.1-.2.2-.6.4-.7.2-.1.5,0,.7.1Z"/>
    <path d="M408.9,60.7c.1-.4.3-.7.5-1.1l.3.2c-.2.3-.5.6-.8.9Z"/>
    <path d="M24.8,121.5c-.2-.4-.3-.9-.4-1.4.1,0,.4,0,.4.1,0,.4,0,.8,0,1.2Z"/>
    <path d="M405.1,64.5c0-.4,0-.8.2-1.2,0,0,.2,0,.3-.1-.1.5-.3.9-.5,1.3Z"/>
    <path d="M224.4,86.6c0-.3-.2-.7-.1-1,0-.1.2-.2.4-.3,0,.4-.1.8-.3,1.3Z"/>
    <path d="M399.7,53.2c-.3,0-.6,0-.8-.2,0,0,.1-.4.2-.6.2.2.5.5.6.8Z"/>
    <path d="M539.1,100.9c.1.3.2.5.2.8-.3-.2-.7-.3-1-.5.2-.1.5-.2.8-.3Z"/>
    <path d="M135.6,53.2c-.2-.3-.3-.6-.4-1,.2,0,.5,0,.5,0,0,.3,0,.6,0,1Z"/>
    <path d="M61.4,102.1c.2.2.3.5.3.8,0,0-.3.1-.4.2,0-.3,0-.6,0-1Z"/>
    <path d="M334.3,80c.4.1.7.3,1,.5,0,0-.1.2-.2.3-.3-.2-.6-.5-.8-.8Z"/>
    <path d="M445.1,83.7c-.2,0-.4-.2-.5-.3-.1-.2-.2-.4-.3-.6.2,0,.4-.2.5-.1.2.1.3.4.4.6,0,.1,0,.3,0,.5Z"/>
    <path d="M299.4,125.3c-.1-.3-.2-.7-.3-1.2h.4c0,.3,0,.7,0,1.2Z"/>
    <path d="M526.9,102.1c0-.3,0-.6.1-.9.2.1.3.2.5.3-.2.2-.4.4-.6.5Z"/>
    <path d="M388,74.9c.2-.3.4-.6.6-.8,0,.2.2.5.2.6-.2.2-.5.2-.8.2Z"/>
    <path d="M441.9,97.7c0,.3,0,.6,0,.9h-.5c.1-.3.3-.6.5-.9Z"/>
    <path d="M458.2,114.7c0-.3.3-.5.4-.7.1.2.2.5.4.7-.2,0-.5,0-.8,0Z"/>
    <path d="M380.4,46.9c-.2.3-.3.4-.5.5v-1.1c.2.1.3.3.5.5Z"/>
    <path d="M269.1,89.6c0-.3,0-.6.1-.9.2.1.3.2.5.3-.2.2-.4.4-.6.5Z"/>
    <path d="M226.9,54.3c0,.4,0,.6,0,.9,0,0-.2,0-.2,0,0-.3-.1-.7-.2-1,0,0,0,0,0,0,0,0,.1,0,.3.2Z"/>
    <path d="M252.9,73.6c.1-.2.3-.4.6-.6,0,.1.2.2.3.4-.2,0-.5.1-.9.2Z"/>
    <path d="M308.1,133.4c-.1.4-.3.6-.4.8,0-.2-.2-.4-.2-.5.1-.2.4-.3.6-.3Z"/>
    <path d="M297.9,67.5c0,0,0,.2-.1.3-.2.2-.5.3-.7.5.2-.3.5-.5.8-.8Z"/>
    <path d="M404,43.9c0-.3,0-.6.1-.8.1,0,.3.2.4.3-.1.2-.3.4-.5.5Z"/>
    <path d="M155.7,70.6c0-.3,0-.6.1-.8.1,0,.3.2.4.3-.1.2-.3.4-.5.5Z"/>
    <path d="M395,45.9c0-.3,0-.6.1-.8.1,0,.3.2.4.3-.1.2-.3.4-.5.5Z"/>
    <path d="M318.8,131.7c0,.3.1.5,0,.7,0,0-.3,0-.5,0,.1-.3.2-.5.4-.7Z"/>
    <path d="M193.1,91c.1-.3.2-.4.4-.6,0,.2.1.4.2.6-.2,0-.4.1-.6,0Z"/>
    <path d="M369.9,37.3c-.2,0-.4,0-.6,0,0-.2.1-.4.2-.6.1.1.2.3.4.6Z"/>
    <path d="M149,92.7c.2,0,.4,0,.6,0,0,.2-.1.4-.2.6-.1-.1-.2-.3-.4-.6Z"/>
    <path d="M420.4,106.3c-.2,0-.3-.3-.5-.4.2,0,.3-.2.5-.3,0,.2,0,.4,0,.7Z"/>
    <path d="M72.4,105c.3-.1.5-.2.8-.3,0,.2,0,.5-.1.5-.2,0-.5,0-.6-.2Z"/>
    <path d="M300.8,75.6c.1.3.1.6.1.9,0,0-.3,0-.3,0,0-.3,0-.6.1-.9Z"/>
    <path d="M269.3,74.4c0,.3,0,.5,0,.7-.2-.1-.5-.3-.7-.4.2-.1.4-.2.6-.2Z"/>
    <path d="M326.3,32.3c-.2-.2-.3-.5-.4-.7.2,0,.4,0,.5,0,0,.2,0,.4,0,.7Z"/>
    <path d="M390.7,53.6c0,.3,0,.6-.1.8l-.4-.3c.1-.2.3-.4.5-.5Z"/>
    <path d="M349.2,160.6c-.3,0-.5,0-.7,0,0-.2.2-.3.3-.5.2.1.3.3.4.5Z"/>
    <path d="M342.1,161.6c.2.1.4.3.5.5-.1,0-.3.2-.4.3,0-.2-.1-.5-.1-.8Z"/>
    <path d="M190.5,99.1c-.2.2-.4.3-.6.4,0-.1-.1-.3-.2-.4.3,0,.5-.1.8,0Z"/>
    <path d="M323.8,39.2c0,.3-.1.4-.2.6-.1-.1-.3-.3-.4-.4.2-.1.4-.2.6-.2Z"/>
    <path d="M260.2,84.6c-.1.3-.2.4-.4.6,0,0-.2-.2-.2-.3.2-.2.4-.3.6-.3Z"/>
    <path d="M215.4,83.4c-.2-.1-.4-.3-.5-.5,0,0,.1-.1.2-.2.1.2.2.4.3.7Z"/>
    <path d="M367.5,168.7c-.2-.1-.3-.3-.3-.5.1,0,.3,0,.4-.1,0,.2,0,.4,0,.7Z"/>
    <path d="M493.9,107.2c-.3,0-.6-.2-.9-.5,0,0,.1-.3.2-.4.2.2.4.5.7.9Z"/>
  </g>
</svg>