<?xml version="1.0" encoding="UTF-8"?>
<svg id="Layer_1" xmlns="http://www.w3.org/2000/svg" version="1.1" viewBox="0 0 260.6 398.8">
  <!-- Generator: Adobe Illustrator 29.3.1, SVG Export Plug-In . SVG Version: 2.1.0 Build 151)  -->
  <g id="Shape_47">
    <path d="M259.6,59c-.1,3.1,0,6.2-.4,9.1-.2,1.8,0,3.6-.3,5.4-.3,2.1,0,4.3-.4,6.3-.3,1.7,0,3.4-.3,5.1-.3,2.4,0,4.8-.4,7.2-.2,1.8-.1,3.6-.3,5.4-.7,9.5-.2,18.9-.3,28.4-.1,9.5,0,19,0,28.5s0,.6,0,1c0,.8-.2.9-1,.7-1.2-.3-1.2-.1-1.3,1-.1,5.3-.2,10.5-.3,15.8,0,4.5,0,9-.4,13.5-.5,5.4,0,10.7-.3,16.1-.6,8,0,15.9-.3,23.9,0,.7-.3,1.3-.3,2,0,1,0,1.9,0,2.8,0,1,0,2.1,0,3.1,0,1.5,0,2.9,0,4.4,0,1.5.2,3.1,0,4.6-.2,1.6,0,3.2,0,4.9v24.5c0,1.6,0,3.2,0,4.9,0,1.2,0,2.4.2,3.6.1,1,.1,2.1.1,3.1,0,4.5,0,9,0,13.5,0,.8,0,1.6-.2,2.5-.4,1.4,0,2.8.4,4.2,0,.3.2.7.2,1.1,0,1,0,2.1,0,3.1.1,6.1,0,12.3.4,18.3.3,4.1-.1,8.2.3,12.2.4,3.4,0,6.9.3,10.2.4,3.8,0,7.5.3,11.2.5,4.3,0,8.7.3,13,.4,3.6.1,7.3.3,10.9,0,.4.1.8,0,1.1-.1.3-.6.6-.8.6-1.1-.2-2.1-.6-3.2-.9-.5-.1-.8-.2-.9.6,0,1.1-.4,2.2-.6,3.3-.2.9-.6,1.8-.6,2.6,0,1.7-.5,3.1-1,4.6-.1.4,0,.9,0,1.3.1.9-.5.9-1,.7-.8-.4-1.7-.3-2.5-.3-5.1,0-10.2.2-15.2,0-3.7-.2-7.4,0-11.1-.3-3.3-.3-6.5,0-9.8-.3-.5,0-1-.2-1.5-.3-.3,0-.6-.1-.8,0-.9.4-1.8,0-2.7,0-5.9-.1-11.8,0-17.7-.4-3.7-.2-7.5,0-11.2-.3-4.5-.5-9,0-13.5-.3-4-.4-7.9,0-11.9-.3-3.6-.4-7.3-.1-10.9-.3-1.3,0-1.3-.1-1-1.4,0-.3.1-.6,0-.8-.6-1-.3-2.1-.3-3.1,0-13,0-26.1,0-39.1,0-1.3.5-2.7.2-3.9-.3-1.5-.2-2.9-.2-4.4,0-.7.3-1.3.3-2,0-.6-.1-1.1-.1-1.7,0-.9,0-1.7,0-2.6,0-.4,0-.8,0-1.2,0-.8-.3-1.7-.2-2.5.1-.4,0-.7,0-1.1-.2-.9-.1-1.8,0-2.7.1-1,.5-1.1,1.4-1.3,1.6-.3,3.1-.8,4.7-1.1,4.8-1.1,9.2-3.2,13.5-5.4,2.2-1.2,4.4-2.6,6.3-4.3,1.4-1.3,2.9-2.4,4.3-3.7,1-.9,1.9-2,2.8-3.1,1.1-1.5,2.2-2.9,3.3-4.5,2-3,3.6-6.2,5-9.6,1-2.5,1.8-5.1,2.4-7.8.7-2.8,1.1-5.6,1.4-8.5.2-1.8.1-3.5.3-5.2,0-1.1.5-2.2.3-3.3-.4-2.1,0-4.3-.3-6.4-.3-3-.7-6-1.3-8.9-1-4.5-2.5-8.7-4.7-12.8s-4.1-6-6.1-8-3.5-3.3-5.6-4.5c-2.2-1.3-4.6-2.5-7-3.6-1.9-.8-4-1.4-6-1.9-1.3-.3-2.6-.4-3.9-.6-2.6-.4-5.2-.7-7.9-.7s-1.3-.1-1.9-.3c-.3-.1-.7-.6-.7-.9.1-2-.4-4.1.2-6.1,0-.2-.1-.4-.1-.5,0-.9,0-1.9,0-2.8s0-.6,0-.9c0-.9-.2-1.7-.2-2.6,0-.6.2-1.1.3-1.7.2-1.1-.3-2.2,0-3.3.2-1.1,0-2.4,0-3.6v-10.5c0-1.2,0-2.4,0-3.6,0-1.2,0-1.2,1.2-1.2,2.3,0,4.7-.1,7,0,2,.2,4,.5,5.9.8,2,.4,4,.8,5.9,1.4,2.4.7,4.7,1.4,7.1,2,1.2.3,2.4.9,3.7.4,2-.7,2.6-2.3,2.9-4.1.6-4.4.3-8.8.3-13.2,0-1.9-.2-3.8-1.3-5.4-.6-.9-1.4-1.9-2.4-2.3-2.9-1.4-5.9-2.5-9.1-3-2-.3-4-.9-6-1.3-1.2-.2-2.5-.1-3.7-.4-1.9-.4-3.8,0-5.7-.4-1.5-.2-2.9-.2-4.4-.2-1.2,0-1.3-.1-1.3-1.2,0-8.1,0-16.1,0-24.2,0-1.8-.2-3.5,0-5.2,0-.9-.2-1.9.3-2.8.1-.2.2-.7,0-.9-.7-.8-.3-1.7,0-2.3.8-1.2.4-2.2,0-3.3-.1-.3-.1-.7-.1-1.1,0-7.1,0-14.3,0-21.4,0-.5-.3-1.1.6-1.2,0,0,0-.7,0-.8-.6-.4-.5-1-.5-1.6,0-12.4,0-24.8,0-37.1,0-.9.2-1.9.3-2.8,0-.8-.2-1.6,0-2.4.1-.9,0-1.6-.2-2.4-.1-.6.1-1.2.2-1.8.2-1.1,0-2.3,0-3.4,0-.8-.3-1.8,0-2.4.3-.5,1.4-.5,2-.9,2.6-1.7,4.5-3.9,4.4-7.2,0-1.7,0-3.4-1-5-1-1.5-2.1-2.7-3.8-3.4s-.3-.1-.4-.2c-1.3-.6-1.6-1.2-.8-2.1.9-1.1,1.1-2.7,2.3-3.6,0,0,0-.3,0-.3-1-.4-1.9.2-2.1,1.3,0,.5-.2,1-.4,1.5,0,.3-.3.5-.4.8,0-.3-.2-.6-.2-.9.5-4.4.2-8.9.3-13.3,0-1.3.4-1.5,1.8-1.4.5,0,1.1-.3,1.6-.3,1.9,0,3.9,0,5.8,0,.9,0,1.8.5,2.6.3,1.3-.3,2.5-.2,3.8-.3,1.5,0,2.9,0,4.4,0,.7,0,1.3-.2,2-.3.5,0,1-.1,1.4,0,1.3.5,2.5.4,3.8,0,.2,0,.5,0,.8,0,3.1,0,6.3,0,9.4,0,.9,0,1.4.2,1.7,1,.4.9,1,1.7.5,2.8-.2.4,0,1,0,1.4,0,.6,0,1.2,1.1.7.2-.1.9.2,1.2.5.7.7,1.2,1.8,2.4,2,.1,0,0,.6.3.8.9.9,1.7,1.8,2.6,2.6.1.1.4.1.6.1,1.8,0,3.5-.3,5.2-1,1.3-.6,2.8-1.3,4.3-.9.3,0,.8.6.8.7-.6,1.3.8,2.2.8,3.4,0,.5.4,1.1.6,1.7.5-.4.9-.8,1.4-1.2.6-.5,1.2-.9,1.7-1.4.6-.5,1-1,1.1-2,.2-1.5.7-2.9,2.3-3.7,1-.5,1.9-1.4,2.9-2.1,1-.7,2-.6,3.1-.2.2,0,.6.3.6.3.8-.7,1.4,0,1.9.4.7.5,1.4,1.1,1.2,2.3-.2.8.2,1.6-.3,2.3,0,.1,0,.4,0,.6.2,0,.4,0,.6-.1.2,0,.5-.2.7-.3.7-.4,1.2.1,1.6.5.2.1,0,.7,0,1.1,0,.7-.3,1.2-.2,2,.2,1.5,0,3-.5,4.6-.9,2.4-2,4.9-1.7,7.6,0,.2,0,.6.2.7.2,0,.6,0,.7-.1.7-.6,1.3-1.3,1.9-1.9,0,0-.1-.4-.3-.5-.2,0-.4,0-.6,0-.1,0-.2-.3-.3-.4.1,0,.3,0,.4,0,1.2.2,2.1-.2,2.8-1.2,0-.1.1-.2.2-.4,0,.1,0,.3.2.4,0,0,.3,0,.4,0,1.4-1.7,3.1-2.9,4.9-4.2.3-.2.6-.4.7-.7.2-1.8,2-1.5,3-2.2.5-.4,1.2.2,1.6.6.4.4.7.7,1.4.4.6-.3,1.5.2,2.2.4.2,0,.4.3.4.5.2,1.7.8,3.2,1.6,4.7,0,.1,0,.3,0,.5,0,.6-.2,1.3.5,1.7.9.5,1.7,1.1,2.6,1.6,0,0,.4-.2.4-.4,0-.4,0-.8,0-1.1,0-7.3,0-14.6,0-21.9,0-2.1.2-4.1.3-6.2,0-.6.5-.6.7-.5,1,.6,2.5-.2,3.3,1.2,0,.1.6.1.8,0,1.7-1,3.7-1.2,5.6-1.8.9-.3,1.9-.5,2.8-.7,1.1-.3,2.1-.7,3.2-.9.2,0,.7.3.8.6.1.4,0,.9,0,1.3,0,12.4,0,24.9,0,37.3q0,1.4,1.4,1c0,0,.2-.1.3-.2,1-.3,1.3,0,1.3,1,0,.6-.3,1.2-.3,1.8-.1,3.5,0,7-.4,10.4-.2,1.9-.2,3.7-.3,5.7M250.7,157.9c0-.1.1-.2.3-.3.6-.6,1.1-1.5,2.2-.7,0,0,.4-.2.7-.3v-.3c0,.1-.1.2-.3.3-.1,0-.3,0-.4-.1-1.4-.5-1.8-.3-2.5,1.1,0,.1-.1.2-.3.3,0,.1-.1.2-.3.3,0,.2-.1.4-.3.6-.2.3-.3.5-.5.8,0,0,.1.1.2.2.2-.3.3-.6.6-.9,0-.2.1-.4.3-.6,0-.1.1-.2.3-.3M233.2,44.4c.2-.3.3-.5.5-.8,0,0-.1-.1-.2-.2-.2.3-.3.6-.6.9,0,.1,0,.2,0,.3,0-.1.1-.2.3-.3M247.1,164.1c-.6,0-1.1,0-1.6.6-.2.1-.3.2-.6.3-.7,0-1.4.1-2.1.2.7,0,1.4,0,2.1,0,0,0,0-.2.3-.3.2-.1.3-.2.6-.3.6,0,1.1,0,1.6-.6,0-.1,0-.2,0-.3,0,.1-.1.2-.3.3M252,382.4c0,.2,0,.5-.2.7,0,0-.2.2-.2.3,0,.3,0,.6,0,.9.2-.4.3-.8.4-1.3,0-.2,0-.4.2-.6,0-.2,0-.3.1-.5,0,0-.1,0-.2,0,0,.2,0,.4-.2.6M206.7,40.4c.2,0,.4-.2.6-.2-.1,0-.2-.2-.4-.2-.4,0-.8,0-1.1,0-.5,0-1.1-.8-.9-1.2.4-1,.8-2,1.2-3.1.2-.4.5-.6,1-.6,1.1,0,2.2,0,3.2,0,.8,0,1.8-.3,2.4,0,.6.4.7,1.4,1,2.1,0,.2.1.5.2.7.3.9.1,1.2-.7,1.6-.2,0-.4.2-.6.3.2.1.5.4.7.3,1.4-.5,2.9-.2,4.4-.3.2,0,.4,0,.6,0,.1,0,.2-.1.4-.2,0,0-.2-.1-.3-.1-1.4,0-1.9-.9-2.3-2-.6-1.8-1.5-3.5-2.1-5.3-.8-2.7-2.1-5.2-3.2-7.8,0-.2-.4-.5-.6-.5-.3,0-.6.3-.7.5-.4.7-.7,1.4-1,2.2-1.4,4-3.1,7.8-4.9,11.6-.4.8-.9,1.5-1.9,1.6-.1,0-.3.2-.4.3.2.1.4.3.6.3.6,0,1.2-.3,1.8-.3.9,0,1.7.2,2.8.1M168.1,26.1c.2-.8.9-.8,1.6-.8.2,0,.4-.3.6-.4-.2,0-.4-.2-.6-.2-.6,0-1.3,0-1.9,0s-1.6,0-2.4,0c-.3,0-.5.3-.8.4.2,0,.5.2.7.2,1,0,1.5.5,1.6,1.2.1,1.7.3,3.4.3,5.1,0,.5-.5,1.3-.3,1.6.7,1.2.1,2.4,0,3.5-.6,2.9-3.9,4.6-6.7,3.4-1.4-.6-2.2-1.8-2.3-3.4,0-1.3.2-2.8,0-4-.5-1.8-.2-3.6-.2-5.4,0-1.2.7-1.9,1.5-2,.3,0,.9.4,1-.4,0,0-.7-.2-1.1-.2-.2,0-.5,0-.8,0-1.2,0-2.5,0-3.7,0-.3,0-.6,0-.9,0,0,0-.2.2-.3.3,0,0,0,.2,0,.3.2.1.4.2.5.2,1.5.2,1.6,1.3,1.6,2.5,0,2.8,0,5.6,0,8.4,0,1.9,1.5,3.9,3.3,4.5,1.1.4,2.2.1,3.3.3,1.4.2,2.5-.4,3.6-1,.6-.3,1.2-1,1.5-1.6.5-1.1.8-2.3.7-3.6,0-1.9,0-3.9,0-5.8,0-1,.1-1.9.3-3M186.3,33.6c0,1.6.5,3.1,1.4,4.3,1.2,1.6,2.7,3.1,5.2,2.7.8-.1,1.6,0,2.4,0,.9.1,1.8-.2,2.5-.7,1-.7,1.8-1.7,2.7-2.6,0,0,.1-.3.1-.4,0-.1,0-.3,0-.4-.1,0-.2.1-.3.2-.3.3-.7.5-.8.8-.4,1.2-1.4,1.6-2.4,2-3.4,1.4-7.1-.4-7.8-3.9-.4-2.1-.5-4.2,0-6.2.4-1.7,1.1-3.3,3.1-4.1.9-.3,1.8-.2,2.7-.2,1.9-.1,3.4.6,4.1,2.5.2.7.4,1.3.7,2,0,.1.2.2.3.3,0-.1.2-.3.2-.4,0-1.5-.2-2.9-.3-4.4,0-.2,0-.4,0-.6,0-.1-.1-.3-.2-.4-.1,0-.4.2-.4.3-.4.9-1,.8-1.8.4-1-.5-2.1-.8-3.3-.7-1.2,0-2.1.5-3.2.9-2.2.8-3.3,2.4-4.1,4.4-.5,1.3-.6,2.6-.6,4.3M184.2,28.2c.2,0,.4.7.5,0,0-1,.1-2.1-.3-3.1-.1-.4-.2-.5-.6-.5-3.8,0-7.7,0-11.5,0-.6,0-.9.2-.9.8,0,.9,0,1.8,0,2.8,0,0,0,.2.1.3,0-.1.2-.2.2-.3.9-2.5.9-2.6,3.6-2.6.3,0,.7,0,1,0,.5,0,.6.2.6.7,0,4.1,0,8.2,0,12.3,0,1.1-.4,1.5-1.6,1.7-.2,0-.5.1-.7.2-.1,0-.2.2-.2.3,0,0,.2.1.3.1,2.3,0,4.5,0,6.8,0,0,0,.2,0,.3-.1,0-.1-.1-.3-.2-.3-.2-.1-.5-.2-.7-.2-1.1-.1-1.9-.7-1.9-1.8,0-3.9,0-7.9,0-11.8,0-.7.3-1,1-.9.8,0,1.6,0,2.4,0,.7,0,1,.3,1.3.7.3.5.6,1.1.6,1.9M197.5,31.1c-1.8,0-2.1.4-2.1,1.9,0,.8.3,1.4.8,1.6.7.2,1.5.1,2.1-.2.9-.4,1.3-1.7.8-2.3-.3-.4-.9-.7-1.7-1M200.4,57.7c4.9-.2,9.7.3,14.6-.3,3.3-.4,6.6-.3,9.9-.4.2,0,.4,0,.6-.1-.2,0-.4-.2-.6-.2-1.5.1-3-.3-4.4.3-.5.2-1.1,0-1.6,0-6.2.1-12.4.2-18.7.3-.2,0-.4,0-.6,0,0,0,0,.2,0,.2,0,0,.2,0,.6,0M153.1,58.7c-.7,0-1.4,0-2.1,0-3.4.1-6.8.2-10.2.3-.2,0-.3.1-.4.2.1,0,.3,0,.4.1.2,0,.4,0,.6,0,4-.2,8,.4,12-.3.8-.1,1.6-.2,2.4-.2-.8,0-1.6,0-2.7-.1M154.7,7.8c-.4,0-.8,0-1.1,0-.6,0-1,.2-1,.9,0,.2,0,.4,0,.6.1-.2.2-.3.3-.5.6-.7,1.4-.4,2.1-.3.4,0,.7,0,1.1,0-.3-.3-.5-.5-.8-.8,0,0-.2,0-.6,0M208.8,13.6c.2,0,.3.7.5,0,.4-1.1.4-1.1,1.1-.4.2.2.4.6.7,0,0-.2,0-.6,0-.7-.3-.3-.9-.6-1.2-.5-.5.2-.9.8-1.4,1.2,0,0,.2.2.4.4M220.4,310.2c-.2,0-.4,0-.5-.1,0,.2,0,.5,0,.5.3.2.8.2,1.1.5.5.5.7,0,1-.2-.2,0-.5-.1-.7-.2-.2,0-.4-.2-.8-.5M160.2,58.4c-1,.1-2,.2-3,.3-.1,0-.2.1-.3.2,0,0,.2.1.3.1,1.1,0,2.1,0,3.2,0,0,0,0-.3,0-.6M176.4,58.1c-.8,0-1.6.1-2.4.2.8,0,1.6,0,2.4.1.1,0,.2,0,.3,0,.5,0,.9-.1,1.4-.2-.5,0-.9,0-1.7-.1M163.4,58.4l-2.4.2c.8,0,1.6,0,2.4.1.3,0,.5,0,.8,0,0,0,0-.2-.1-.2,0,0-.2,0-.6,0M192.6,58.1c0,0,.1,0,.2,0,.8,0,1.7-.1,2.5-.2-.9,0-1.8,0-2.7,0-.1,0-.2.2,0,.3M239.8,102.6c0,.2,0,.3,0,.5,0,.6.1,1.3.2,1.9,0-.6,0-1.3.1-1.9,0-.4,0-.4-.3-.5M214.2,13.5c-.7.4-.7.4-.6,1,0,.1,0,.3.1.4,0-.1.1-.3.2-.4.1-.2.2-.4.3-1M142.4,8.4c0,0-.1.2-.2.2-.3.2-.6.4-.9.6,0,0,.2.2.2.2.4-.1.7-.3,1.1-.5,0,0,0-.2-.2-.5M161.5,8.1s0,0,.1-.1c0,0,0,0,0-.1-.5,0-1,.2-1.4.3,0,0,0,.1,0,.2.4,0,.8,0,1.4-.3M153.1,11.7c.2,0,.4.7.4,0,0-.3-.3-.6-.5-1,0,.3,0,.5,0,.9M238.2,359.8c0,.6.1,1.2.2,1.8,0-.6,0-1.3-.2-1.8M229,56.8c-.4,0-.9,0-1.3,0,0,0,0,.1-.1.2,0,0,0,.1.1.1.5-.2,1.2.3,1.3-.3M197.5,57.4c-.6,0-1.2.1-1.8.2.6,0,1.3,0,1.8-.2M168.3,58.7c.5,0,1-.1,1.4-.2-.5,0-1,0-1.5,0,0,0,0,0,0,.3M212.3,12.8c0,.2,0,.5,0,.7.2-.1.4-.2.5-.4.2-.4,0-.6-.6-.3M230.1,56.9c.4,0,.8.1,1.2.2.1,0,.3,0,.4-.1-.2,0-.3-.2-.5-.2-.3,0-.6,0-1.1.2M240.1,107.5c0-.3,0-.5,0-.8,0-.1-.2-.3-.2-.3-.3.1-.1,1,.2,1.1M255.9,1.2c-.1,0-.3,0-.4.1.4,0,.8,0,1.2,0-.1,0-.3,0-.8-.1M240.2,61.1c0,.1,0,.3.1.4v-1.2c0,.1,0,.3-.1.8M240.3,41.8c0,.3-.1.7-.2,1,0,0,0,.2.1.3,0-.1.2-.2.2-.3,0-.3,0-.5-.2-.9M143.5,25.1c.1-.1.2-.2.3-.3-.3,0-.6,0-.9,0,.1.2.3.4.6.4M253.8,2.8c.1.1.2.3.3.3.2,0,.4,0,.5,0,0-.2-.2-.3-.3-.4-.1,0-.3,0-.6,0M166.8,58.5c-.2,0-.5-.1-.7-.2,0,0-.2,0-.2.1.1,0,.2.2.3.2.1,0,.3,0,.6-.2M240,112.5c0-.2.1-.5.2-.7,0,0,0-.2-.1-.2,0,.1-.2.2-.2.3,0,.1,0,.3.2.6M199,57.6c-.2,0-.5-.1-.7-.2,0,0-.2,0-.2.1.1,0,.2.2.3.2.1,0,.3,0,.6-.2M147.4,9.2c0,.1,0,.3,0,.4.2-.2.3-.3.5-.5-.1,0-.3,0-.6,0M240.1,71.8c0,.1,0,.2,0,.3,0,.2.1.3.2.5,0-.1.1-.3.1-.4,0-.2,0-.4-.3-.4M241.6,165.1c.1,0,.2,0,.3,0,.2,0,.3-.1.5-.2-.1,0-.3-.1-.4-.1-.2,0-.4,0-.4.3M257.7,43.6c0-.1,0-.3,0-.4,0,0-.2,0-.2,0,0,.2,0,.3.3.4M227.2,56.9c-.2,0-.3,0-.5-.1,0,0,0,.1,0,.2.1,0,.3,0,.6,0M145.8,11.2c0,.1,0,.3,0,.4,0,0,.2,0,.2,0,0-.2,0-.3-.3-.4M240.1,38.1c0,.1,0,.3,0,.4,0,0,.2,0,.2,0,0-.2,0-.3-.3-.4M250.2,381.2c-.2,0-.3,0-.5-.1,0,0,0,.1,0,.2.1,0,.3,0,.6,0M232.4,265.4c0,.1,0,.3,0,.4,0,0,.2,0,.2,0,0-.2,0-.3-.3-.4M142.4,14.9c0,.2,0,.3-.1.5,0,0,.1,0,.2,0,0-.1,0-.3,0-.6M240.5,64.7c0-.1,0-.3,0-.4,0,0-.2,0-.2,0,0,.2,0,.3.3.4M238.5,147.7c0-.1,0-.3,0-.4,0,0-.2,0-.2,0,0,.2,0,.3.3.4M229.8,151.6c0,.1,0,.3,0,.4,0,0,.2,0,.2,0,0-.2,0-.3-.3-.4M247.9,163.3c0,0-.1,0-.2-.1,0,0,0,.2.2.1M147.7,16.4c0,0-.1,0-.2-.1,0,0,0,.2.2.1M240.1,63.7c0,0,.1,0,.2.1,0,0,0-.2-.2-.1M170.3,58.4c0,0,0,.1-.1.2,0,0,.2,0,.1-.2M237.9,333.6c0,0-.1,0-.2-.1,0,0,0,.2.2.1M240.3,37c0,0,0-.1.1-.2,0,0-.2,0-.1.2M238.2,363.1c0,0,.1,0,.2.1,0,0,0-.2-.2-.1M238.2,363.7c0,0,.1,0,.2.1,0,0,0-.2-.2-.1M191.5,57.9c0,0-.1,0-.2-.1,0,0,0,.2.2.1M186.3,57.9c0,0,.1,0,.2.1,0,0,0-.2-.2-.1Z"/>
    <path d="M115,58.2c0,15.9,0,31.6,0,47.3,0,1.5,0,3,0,4.4,0,1.6,0,3.2,0,4.9v9.6c0,1.6,0,3.1,0,4.7,0,1,.2,2.1-.3,3.1-.1.3,0,.7,0,1,.7,3,.5,6,.2,8.9-.5,7.1,0,14.2-.2,21.3,0,.8-.2,1.2-1.1,1.5-3.1,1.1-6.1,2.6-8.9,4.2-1.8,1-3.5,2.1-5.1,3.3-3.3,2.3-6.1,5.3-8.9,8.3-2.4,2.5-4.3,5.4-6.1,8.3-.9,1.5-1.8,2.9-2.5,4.5-1.2,2.6-2.3,5.2-3.3,7.8-.9,2.3-1.5,4.8-2.3,7.1-.9,2.5-1.4,5.2-1.9,7.8-.5,2.7-1.1,5.5-1.6,8.2-.2.9-.1,1.8-.3,2.8-.3,1.7-.1,3.5-.4,5.2-.3,2,0,3.9-.3,5.9-.5,3.3-.2,6.6-.3,9.9,0,2.8,0,5.5,0,8.3,0,3.1,0,6.3.4,9.4.1,1.5.2,2.9.3,4.4.2,2.2.3,4.4.7,6.5.5,3.2.9,6.4,1.6,9.5,1.1,4.5,2.3,9,4,13.4,1.7,4.2,3.7,8.2,6.4,11.7,2.2,2.9,4.8,5.6,7.9,7.8,2.1,1.5,4.3,2.9,6.6,4,2.8,1.4,5.8,2.5,8.9,3.2,1.6.4,3.2.7,4.8,1,1.1.2,1.6.5,1.6,1.7,0,5.6,0,11.1,0,16.7,0,.8-.5,1.6-.3,2.3.3,1.1.3,2.2.2,3.3,0,1,.3,2-.3,3,0,.1.2.5.2.7,0,.5,0,1,0,1.5,0,.4-.3.7-.2,1,.6,1.8-.4,3.6.2,5.5.3.7-.2,1.7-.3,2.6,0,.8.2,1.6,0,2.5-.1.8-.2,1.8,0,2.6.4,1.2-.2,2.2,0,3.3,0,.5.2,1,.3,1.5,0,.3.1.6,0,.8-.6,1.1-.3,2.2-.3,3.3,0,4.5,0,9.1,0,13.6q0,1.6-1.6,1.6c-1.5,0-2.9.1-4.4,0-7.2-.7-14.4,0-21.6-.4-7-.4-14,0-20.9-.3-1.1,0-2.1,0-3.1,0-10.2-.5-20.4-.2-30.6-.4-1.4,0-2.7.3-4.2-.2-.7-.2-1.8-.4-2.6.2-.3.2-.9,0-1.3,0-3.9-.7-7.9-.1-11.9-.3-.3,0-.6.2-.8.4-1.1,1.2-2.7,1.6-4.1,2.4-.5.3-1.2.2-1.9.1-.6,0-1.1-.1-1.6-.3-.4-.2-1-.2-1-1.1-.3-3.9-.3-7.8-.3-11.8,0-15.2,0-30.5,0-45.7,0-.7-.2-1.3-.3-2,0-.2,0-.4,0-.6.4-1.6-.1-3.2,0-4.8.1-2,0-4,0-6s0-2.6,0-3.9.7-1.6.2-2.7c-.3-.7.2-1.7.1-2.5,0-.8.2-1.6-.2-2.5-.2-.4.3-1.1.3-1.6,0-4.8,0-9.6,0-14.4,0-1.6,0-3.1-.3-4.7,0-.5.1-1.1.3-1.6.2-.5-.7-.9,0-1.6.3-.4-.2-1.5-.2-2.2,0-8.8,0-17.6,0-26.4,0-1-.2-2-.2-3,0-.5.2-1.1.2-1.6,0-5.6,0-11.1,0-16.7,0-.8-.5-1.6-.3-2.3.3-1.1-.3-2.2.2-3.4.3-.6-.2-1.5-.2-2.3,0-1.3.2-2.6,0-3.9-.2-1.4,0-2.8,0-4.2s0-2.8,0-4.2c0-1.2.1-2.4,0-3.6,0-1.3,0-2.6,0-3.9s-.1-2.6,0-3.9c.2-1.5,0-3,0-4.4,0-1.6,0-3.2,0-4.9v-33.4c0-1.6,0-3.1,0-4.7,0-.6-.4-1.5-.2-1.9.4-.8-.1-1.3-.1-1.9,0-.5.1-1,.2-1.5,0-.3.2-.5,0-.8-.6-1.7-.3-3.5-.3-5.2,0-11.8,0-23.5,0-35.3,0-5.6,0-11.2-.4-16.8-.4-4.9,0-9.9-.3-14.8-.5-10.6,0-21.2-.4-31.8-.1-4,0-8-.3-12C.1,36.1,0,34.5,0,32.8c0-1,.6-1.4,1.6-1.1.3,0,.6.2.9.2,1.8,0,1.7,0,2.1-1.8.3-1.6.8-3.2,1.3-4.8.6-2.1,1.4-4.1,1.7-6.3.2-1.7.9-3.3,1.4-4.9.1-.4.2-.9.4-1.3,0-.2.4-.2.6-.3,0,.2,0,.4,0,.5-1.2,2.4-1.3,5-1.9,7.5-.2.9-.7,1.8-.7,2.8,0,.1-.2.2-.2.3,1,.5.2,1.3.3,1.9,0,.4-.7,1.2.5,1.2,0,0,0,.3.1.5-.1,0-.2,0-.3-.1,0,0,0,0-.1,0-.3-.2-.7-.4-1-.6-.2.4-.4.8-.6,1.2,0,.3,0,.6-.1.9.2-.2.5-.3.7-.5.2-.2.4-.6.7,0s0,.6-.3.6c-1.4.4-1.4,1.9-2,2.9,0,0,.3.4.5.3,1.1-.2,1.7-.8,2.4-2,.7-1.3,1.5-2.6,1.7-4.2,1.6-1.1,1.3-3,2.1-4.5.7-1.4,1.2-2.9,2-4.2.7-1.1.3-2.4.8-3.6.2-.5.3-1,.3-1.5,0-.7.2-1.4-1.1-1.7s-1.6-.8-2.1-1.5-.4-.3-.7-.4c.2-.1.3-.4.5-.4.4,0,.8,0,1.1,0,2.7.5,5.5.5,8.2,0,1.1.6,2.2,0,3.3,0,3.3,0,6.6,0,9.9,0,4.8,0,9.6-.2,14.4-.3.7,0,1.3-.4,2-.3,4.5.5,9.1.1,13.6.3,1.1,0,2,.1,3-.3.3-.2.9-.1,1.3,0,.6.2,1.2.6,1.8,0,.9.7,1.9-.1,2.8,0,1.3.1,2.7,0,4,0,2.9.3,5.9-.3,8.8,0,1.5.1,2.9-.2,4.4.3.5.2,1.2-.1,1.8-.2.6,0,1.2-.2,1.7,0,.3,0,.5.5.8.8,0,.1,0,.3,0,.5.1,2,.2,3.9.3,5.9,0,.8,1.2,1.5,2,.9.7-.5,1-.4,1.5,0,.1.1.4,0,.6,0,.1,0,.3-.1.4-.2-.1,0-.3,0-.4-.1-.2,0-.3-.1-.5-.2.1-.1.2-.3.3-.3,1.1,0,1.8-1,3.2-.6.9.3,2.1-.4,3.2-.6.3,0,.7-.2,1-.2.6,0,.9-.2,1.2-.7.4-.6,1-1,1.7-.2.1.2.5.2.7.2,0,0,.2-.3.1-.3-.3-.5,0-.6.4-.6,1.2,0,1.2,0,2.8-1.2.1-.1.3-.2.5-.3,0,.2.1.4,0,.6,0,.3-.2.6-.4.8-.1.2-.3.2-.5.4.3,0,.7.1.7,0,.4-.7.7-1.4,1.1-2.1,0,0-.2,0-.3-.1-.3,0-.8,0-.6-.4.2-.3.7-.5,1.2-.6.5-.1.4.3.4.6,0,.3,0,.6,0,1v47.9M113.5,16.5c0,.2,0,.3-.1.5,0,0,.1,0,.2,0,0-.2,0-.4.2-.6,0-.1,0-.2,0-.3,0,.1-.1.2-.3.3M87.7,17c-.1,0-.2,0-.3,0,.1,0,.2.1.3.3,0,.2,0,.4,0,.6,0,.2.1.3.2.5,0-.1.2-.3.1-.4,0-.3-.2-.6-.3-1M81.9,180.8h.3c-.1,0-.2-.1-.3-.3.2-.7-.3-1.4,0-2.1,0,0,0-.2-.1-.3,0,0-.2,0-.2.2-.1.4-.2.9-.3,1.3,0,.5,0,.9.6,1.2M7.8,380.4c-.2.4-.4.7-.5,1.1-.1,1.4.9,2.5,1.3,4,0,.1,0,.3,0,.4,0,0,.1,0,.2,0-.1-.2-.2-.3-.3-.7-.1-.7,0-1.6-.4-2.2-.6-.9-.6-1.6-.1-2.5,0-.1,0-.2,0-.3,0,.1-.1.2-.3.3M63.6,26.3c1,.3,1.1,1.1,1.1,1.9,0,1.9-.3,3.9,0,5.8.3,1.9.1,3.8.2,5.7,0,.9-.6,1.6-1.3,1.8-.3.1-1-.4-.9.4,0,.1.7.2,1.1.2.2,0,.5,0,.8-.1.7,0,1.5-.2,2.2-.1.8,0,1.5.2,2.3.3.1,0,.3-.2.4-.3-.1-.1-.3-.3-.4-.3-1.5-.2-2.1-.7-2.1-1.9,0-1.6,0-3.1,0-4.7,0-.2,0-.4.2-.5.5-.3,1.8,0,2.2.6,1.4,2,2.7,4,4.1,5.9.3.4.7.9,1.2.9,1.4.1,2.7,0,4.1.4.2,0,.5,0,.8,0,.5,0,.9-.2,1.3-.3,1,0,2.1,0,3.1,0,.2,0,.4-.2.6-.3-.2,0-.4-.3-.6-.3-.8,0-1.6,0-1.8-1,0-.4-.1-.7-.1-1.1,0-2.3,0-4.5,0-6.8,0-1-.2-2.1-.3-3.1,0-.2.1-.4.2-.7.1.2.3.3.4.5.4.8.8,1.6,1.2,2.4,1.1,2.5,2.2,5,3.4,7.5.4.9.9,1.7,1.4,2.5,0,.1.2.2.3.3,0-.1.1-.2.2-.4.6-1.4,1.2-2.8,1.8-4.1.3-.8.8-1.5,1.1-2.3.9-2.1,1.7-4.2,2.5-6.2,0-.2.3-.4.4-.6.1.2.3.5.3.7,0,3.4,0,6.7,0,10.1,0,1.7-.1,1.8-1.8,2.2-.2,0-.3.2-.4.3.1.1.3.3.4.3,1.9,0,3.9,0,5.8,0,.2,0,.3,0,.5,0,.2-.1.3-.3.4-.4-.1,0-.3-.1-.4-.1-.7,0-1.7.2-1.9-.7-.3-1.1-.7-2.2-.4-3.5.2-.8.4-1.6.2-2.3-.3-.8-.2-1.5-.3-2.3,0-1.4,0-2.7,0-4.1,0-1.9,0-1.9,2-2.4.2,0,.3-.4.5-.6-.2-.1-.6-.4-.6-.3-.9.6-1.9.3-2.8.3-.8,0-1.3.3-1.6,1-.6,1.2-1.1,2.5-1.6,3.7-1.1,2.4-2.2,4.8-3.2,7.3-.3.8-.7.4-.8,0-.6-1.2-1.2-2.5-1.8-3.8-1.1-2.4-2.2-4.7-3.2-7.1-.3-.6-.6-.8-1.2-.8-.8,0-1.7.2-2.5-.3-.2-.1-.6,0-1,0-.1,0-.3.2-.3.3,0,.1.1.3.2.3.1,0,.3.1.4.2,1.5.3,1.7,1.3,1.6,2.5,0,1.8,0,3.6,0,5.3s0,3.8,0,5.7c0,.8-.3,1.3-.9,1.5-1.5.6-4.2-.3-5.1-1.6-1.1-1.5-2.2-3.1-3.3-4.6-.3-.4-.7-.9.3-1.2,1-.3,1.9-1,2.4-2,.7-1.3.8-2.6.1-3.9-.8-1.4-2.2-2.1-3.7-2.2-2.5-.2-5.1,0-7.6,0-.3,0-.7-.2-.6.4,0,.1.5.2,1.1.3M60.5,41.4c.3-.9.5-1.8.8-2.8,0-.2,0-.4,0-.7-.2.1-.5.2-.6.4-.2.4-.4.8-.6,1.2-.4,1.1-1.4,1.5-2.4,1.6-1.4.2-2.9,0-4.4,0-.6,0-.8-.3-.9-.8-.5-1.8-.3-3.6-.3-5.4,0-.7.6-1.3,1.3-1.2.9,0,1.9.3,2.8.3,1,0,1.5.5,1.9,1.3.2.3-.3,1.1.6,1,0-.4-.1-.7-.2-1.1,0-1.2,0-2.5,0-3.7,0-.2-.1-.4-.2-.7-.2.2-.4.4-.4.6-.5,1.3-.9,1.6-2.1,1.6-.8,0-1.6,0-2.4,0-1.1,0-1.3-.1-1.3-1.3,0-1.4.1-2.8,0-4.2-.1-.8,0-1,.7-1,1.6,0,3.1,0,4.7,0,1,0,1.4.6,1.8,1.3.2.3.2.8.4,1.1,0,.2.3.3.4.5,0-.2.2-.4.2-.5,0-.7-.2-1.4-.3-2.1,0-1.1-.1-1.2-1.3-1.2-3.4,0-6.7,0-10.1,0s-.3,0-.5,0c-.1,0-.3,0-.4.1.1.2.2.4.4.4.2,0,.4,0,.6,0,.8.1,1.2.5,1.2,1.4,0,2,0,4,.3,6,.3,2,0,4,0,6,0,1.4-.4,1.7-1.7,1.9-.2,0-.4.2-.6.3.2.1.4.3.6.3,3,0,6.1,0,9.1,0,.9,0,1.9-.4,3-.8M107,25.3c-2,0-4-.2-6.1-.2-.2,0-.4.3-.6.5.1.1.3.3.4.3,1-.2,1.5.4,1.9,1.2.1.3,0,.6,0,1,0,3.6,0,7.2,0,10.9,0,1.7-.2,1.9-1.8,2.2-.2,0-.3.2-.4.3.2.1.4.3.6.3,1,0,2-.3,2.9-.3,2.6,0,5.3,0,7.9,0,.5,0,1,0,1.2-.6.4-1,.7-2.1,1-3.2,0-.1,0-.3,0-.4-.1,0-.3.1-.3.2-.3.4-.5.9-.9,1.3-.5.6-1.1,1.5-1.7,1.6-1.5.3-3.1.3-4.7.4-.7,0-1.3-.5-1.3-1.3,0-1.7,0-3.5,0-5.2,0-.8.3-1.1,1.1-1,.7,0,1.3.3,2,.3,2.2,0,2.3,0,2.8,2,0,.2.3.4.4.6,0-.2.2-.5.2-.7,0-.7-.3-1.3-.3-2,0-.8.2-1.6.3-2.5,0-.2-.1-.5-.2-.7-.2.2-.5.4-.5.6-.1,1-.9,1.5-1.7,1.6-1.1.2-2.3,0-3.4,0-.2,0-.6-.4-.6-.6,0-.8-.8-1.6,0-2.5.2-.3,0-1-.2-1.5-.4-1.4,0-1.9,1.3-1.9.9,0,1.7,0,2.6,0,.8,0,1.8,0,2.5.3.8.3.8,1.3,1,2.2,0,.2.3.3.4.5,0-.2.2-.3.2-.5,0-.8,0-1.6,0-2.4,0-.7-.3-.9-1-.9-1.5,0-2.9,0-4.7,0M33.9,32.3c.4.9.9,1.8,1.3,2.7,1.1,2.4,1.9,4.9,3.2,7.1,0,.2.2.3.3.4.1-.1.3-.2.3-.4.3-.7.5-1.4.7-2.1,1.5-3.9,2.9-7.7,4.5-11.6.4-.9.7-2,2-2.1.1,0,.3-.2.3-.3,0-.1-.1-.3-.2-.3-1.3,0-2.7,0-4,0-.2,0-.4.3-.6.5.2,0,.4,0,.6.1,1.1.4,1.4.9,1,2.1-.6,1.9-1.3,3.8-2,5.6-.5,1.3-1,2.6-1.5,3.9,0,.2-.2.5-.4.7-.2-.2-.5-.4-.6-.6-.4-.9-.6-1.9-1.1-2.8-1-2.1-2-4.1-3-6.2-.9-1.9-.8-1.9,1.1-2.7.1,0,.2-.2.3-.3-.1-.1-.3-.4-.4-.3-.8,0-1.5.3-2.3.3-1,0-2,.2-3-.3-.2-.1-.6.1-.9.2.2.2.4.4.6.5.9.4,1.3,1.1,1.7,1.9.6,1.3,1.3,2.5,1.9,4.1M112.2,59.9c.5,0,1,0,1.5,0,0,0,.2,0,.3-.1,0,0-.2-.2-.3-.2-.2,0-.3,0-.5,0h-7.8c-1.3,0-2.6.1-3.9,0-1.2-.1-2.4.5-3.6,0-2,.6-4.1.2-6.2.3-3.7.2-7.5.2-11.2.3-.2,0-.4.1-.6.2.2,0,.4.1.6.1,2.9,0,5.8-.1,8.7-.3,6.2-.3,12.4.3,18.6-.4,1.3-.1,2.7,0,4.4,0M52.5,60.9c1.3,0,2.6,0,3.9,0,.6,0,1.1-.3,1.7,0,.5.2,1.2-.2,1.8-.3.2,0,.4-.1.6-.2-.2,0-.4-.2-.6-.2-1.1,0-2.2,0-3.2,0s-2.1-.2-3.1,0c-1,.2-1.9-.2-2.9.2-.6.2-1.4.1-2.1-.2-.6-.2-1.4.2-2.1.2-5.1,0-10.3,0-15.4,0s-.8,0-1.1,0c0,0-.2,0-.3.1.1,0,.2.2.3.2.3,0,.6,0,1,0h21.5M54.2,22.1c-.2.5-.4.9-.5,1.4,0,.2.1.3.2.5.1-.1.3-.2.4-.3.7-.9,1.4-1.8,2.2-2.7.3-.4.7-.8,1-1.1-.5,0-1.1,0-1.6,0-.5,0-1,0-1.2.5-.2.5-.2,1.1-.5,1.8M13.3,26.9c.7.2,1.5.4,2.2.5.2,0,.4,0,.5,0,0-.2,0-.4-.2-.5-.3-.3-.7-.6-1-.9h-3.6c-.2.1-.4.3-.7.4.2.2.4.5.7.6.6,0,1.2,0,2.1,0M14.7,21.9c-.9,0-.8,0-1.1.9,0,.1-.3.2-.4.2-.3,0-.5-.3-.8-.4-.2-.1-.5-.2-.7-.4,0,.3,0,.7.2.8.3.3.9.7,1.2.6,1.3-.4,2.9-.2,3.6-1.9,0-.1,0-.2,0-.3-.1,0-.4,0-.4,0-.4.6-1,.6-1.7.4M10.7,392.4c-.2-.7-.5-1.5-.4-2.2.1-1.3-.9-2-1-3.1,0,0-.3-.1-.4-.2,0,.1,0,.3,0,.4.4,1.4,1.2,2.7,1.2,4.2,0,.5,0,.9.2,1.4,0,.2.3.3.5.5,0-.3,0-.5,0-.9M91.4,9.1c.5,0,.9,0,1.1.6,0,.1.1.2.2.3,0-.1.1-.3.1-.4,0-.5,0-.9,0-1.4-.3,0-.6.2-1,.3-.3,0-.3,0-.4.7M109.9,14.3c.1.7.1.7-.6.7-.2,0-.3.2-.5.3,0,0,0,0-.1.1.1,0,.3,0,.4.2.5.7,1.1.1,1.4-.1.4-.4,0-.8-.7-1.2M89.2,9.1c.4.3.9.6,1.3,1-.3-.5-.6-1-1-1.5,0-.1-.3-.1-.5-.2,0,.2,0,.4.2.8M111.2,20.1c0,.2.1.5.2.7,0,.6-.2,1.2.5,1.5,0-.6.1-1.1.1-1.7,0-.2-.3-.4-.8-.6M27.4,27.4l.6,1.4c0-.5,0-1.1-.1-1.6,0-.3,0-.6-.1-.9,0,0-.1-.2-.2-.3,0,0,0,.2,0,.3,0,.3,0,.5,0,1.1M106.2,16.1c-.2,0-.5-.2-.7-.1-.2,0-.4.2-.6.3.1.2.3.6.4.6.3,0,.6-.2.9-.7M74.9,60.6h1.1c-.4-.2-.7-.3-1.1-.3-.1,0-.2,0-.3,0-.5,0-.9,0-1.4.1.5,0,.9.1,1.7.2M87.6,16.2c1-.2.5-.8.3-1.3,0-.1-.2-.2-.3-.3,0,.3-.1.6-.2,1,0,.2,0,.3.2.6M110.3,12.7c.1,0,.3,0,.3,0,.3.3.5.5.9,0,0,0,.1-.2.2-.2-.3-.2-.6-.5-.8-.5-.2,0-.5.3-.6.6M108.5,12.5l-.9.4c.3.2.6.4.9.4.5,0,.4-.3,0-.8M84.6,9.4c.2-.3.4-.6.6-.9,0-.1,0-.2.1-.3-.2,0-.3,0-.5,0-.9,0-.2.8-.3,1.3M32.7,16.9c-.1.3-.3.6-.4.9.3,0,.5,0,.8,0,0-.3-.1-.5-.4-.9M55.9,10.2c.1.3.2.6.3,1,0,0,.2,0,.3,0-.2-.4.4-1.1-.6-1M47.7,12.7c0,0,.1.2.2.2,0,0,.2,0,.2,0,.1-.6-.2-.8-.8-.9,0,.2,0,.4.3.6M61.6,60.6c.6,0,1.2-.1,1.8-.2-.6,0-1.3,0-1.8.2M44.9,189.6c-.1.1-.2.2-.3.3-.1.1-.2.2-.3.3.2,0,.4.1.5,0,.3-.2.5-.4.7-.7-.1,0-.3-.1-.6,0M72,60.6c.1,0,.2,0,.3,0,.1,0,.3,0,.4-.1,0,0,0-.2-.1-.2-.5,0-.9.1-1.4.2,0,0,.2,0,.3.1,0,0,.1,0,.5,0M52.2,9.4c0,.3,0,.6,0,.9.1,0,.3,0,.4,0,0-.2-.2-.5-.4-.9M91.1,14.6c.3-.2.5-.4.8-.5,0,0-.2-.1-.3-.1-.3,0-.8-.1-.5.6M30.3,13.1c0,0,0,.1,0,.2,0,.3-.2.6-.3.8,0,0,.2,0,.2,0,.1-.3.3-.5.4-.8,0-.1,0-.3-.3-.2M81.7,8.4c.1,0,.2,0,.3,0,.2.1.3.5.6,0,0,0,.1-.2.2-.2-.2,0-.4-.2-.5-.2-.2,0-.5,0-.6.3M85.4,10.2c0,.6.3.5.7.5,0,0,.2,0,.3-.1-.2-.2-.3-.4-.5-.5,0,0-.2,0-.5.2M107,13.9c-.5,0-1,.1-1.4.2.5,0,1,0,1.5,0,0,0,0,0,0-.3M49.3,20.8l-.5.4c0,0,.2.2.3.3.1-.2.2-.3.2-.6M45.7,22.7l.5-.4c0,0-.2-.2-.3-.3-.1.2-.2.3-.2.6M17.7,10.5s0,0-.1-.1c0,0-.1,0-.1,0,0,.3,0,.6,0,.9.2,0,.4,0,.5,0-.1-.1-.2-.2-.3-.7M38.4,11.8c0,.1,0,.3.1.4.2-.2.4-.4.5-.7,0,0,0-.2-.1-.3-.1.1-.2.2-.5.5M113.3,12.5c-.2.1-.4.3-.6.4.2,0,.5,0,.7,0,0-.2,0-.4-.2-.5M61,9.7c0-.2.2-.5.1-.7,0-.1-.3-.2-.4-.3,0,.2,0,.3.1.5,0,0,0,.2.2.5M104.4,15.6s0,0,.1-.1c0,0,0-.1,0-.1-.3,0-.6,0-.9,0,.2.1.4.2.8.2M39.7,9.2c.2.1.4.3.5.4,0-.2-.1-.5-.2-.7,0,0-.2,0-.3.3M114,28.4c0-.1,0-.3-.1-.4,0,0-.2.2-.2.3.1.2-.3.7.3.2M8.7,378.8c0-.2.1-.5.2-.7,0,0,0-.2-.1-.2,0,.1-.2.2-.2.3,0,.1,0,.3.2.6M91.6,11.2s0,0-.1-.1c0,0,0,0-.1,0,0,.2,0,.4,0,.6,0-.1.2-.2.1-.5M85.4,25.1c0-.1,0-.2,0-.3,0-.2-.1-.3-.2-.5,0,.1-.1.3-.1.4,0,.2,0,.4.3.4M76.7,60.5c.2,0,.5.1.7.2,0,0,.2,0,.2-.1-.1,0-.2-.2-.3-.2-.1,0-.3,0-.6.2M43.8,10.1c-.1,0-.2,0-.3,0-.2,0-.3.1-.5.2.1,0,.3.1.4.1.2,0,.4,0,.4-.3M85,19.1c-.1,0-.3,0-.4,0,.2.2.3.3.5.5,0-.1,0-.3,0-.6M113.5,17.8c0,.2,0,.3-.1.5,0,0,.1,0,.2,0,0-.1,0-.3,0-.6M50.7,8.3c0,.1,0,.3,0,.4,0,0,.2,0,.2,0,0-.2,0-.3-.3-.4M93.7,33.4c0,.2,0,.3-.1.5,0,0,.1,0,.2,0,0-.1,0-.3,0-.6M110.1,13.8c.1,0,.2-.1.3-.2-.1,0-.2-.1-.3.2M106.2,30.3c-.1,0-.2.1-.3.2.1,0,.2.1.3-.2M89.2,15.2c0-.1-.1-.2-.2-.3,0,.1-.1.2.2.3M55.4,8.8c0,.1.1.2.2.3,0-.1.1-.2-.2-.3M49,8.1c0,.1.1.2.2.3,0-.1.1-.2-.2-.3M67.6,60.5c-.2,0-.3,0-.5-.1,0,0,0,.1,0,.2.1,0,.3,0,.6,0M109.1,24.2c-.2,0-.3,0-.5-.1,0,0,0,.1,0,.2.1,0,.3,0,.6,0M111.4,24.2c0-.1,0-.3,0-.4,0,0-.2,0-.2,0,0,.2,0,.3.3.4M61.9,240.3c.1,0,.3,0,.4,0,0,0,0-.2,0-.2-.2,0-.3,0-.4.3M100.5,16.2c0-.1-.1-.2-.2-.3,0,.1-.1.2.2.3M111.7,16.7v-.4c-.2,0-.3,0-.3,0,0,.2,0,.3.3.4M109,23c0-.2,0-.3.1-.5,0,0-.1,0-.2,0,0,.1,0,.3,0,.6M101.7,22.9c.1,0,.2-.1.3-.2-.1,0-.2-.1-.3.2M4.7,192.8c0,.1,0,.3,0,.4,0,0,.2,0,.2,0,0-.2,0-.3-.3-.4M33.6,18.7c0,.1,0,.3,0,.4,0,0,.2,0,.2,0,0-.2,0-.3-.3-.4M39.4,19.3c0,0,.1,0,.2.1,0,0,0-.2-.2-.1M109,18.5c0,0,0-.1.1-.2,0,0-.2,0-.1.2M19.4,17.5c0,0,0-.1.1-.2,0,0-.2,0-.1.2M113.3,19.6c0,0-.1,0-.2-.1,0,0,0,.2.2.1M32.1,20.4c0,0,0,.1-.1.2,0,0,.2,0,.1-.2M39.7,8.3c0,0-.1,0-.2-.1,0,0,0,.2.2.1M87.9,23.4c0,0,0,.1-.1.2,0,0,.2,0,.1-.2M86.7,16.1c0,0-.1,0-.2-.1,0,0,0,.2.2.1M53.7,16.1c0,0-.1,0-.2-.1,0,0,0,.2.2.1M78.8,60.6c0,0,0-.1.1-.2,0,0-.2,0-.1.2M101.7,15.4c0,0,.1,0,.2.1,0,0,0-.2-.2-.1M66.1,15.2c0,0,0,.1-.1.2,0,0,.2,0,.1-.2M73,8.8c0,0,0,.1-.1.2,0,0,.2,0,.1-.2M41,8.3c0,0,.1,0,.2.1,0,0,0-.2-.2-.1M99.7,14.8c0,0,.1,0,.2.1,0,0,0-.2-.2-.1M90.3,13.8c0,0-.1,0-.2-.1,0,0,0,.2.2.1M87.4,13.8c0,0,.1,0,.2.1,0,0,0-.2-.2-.1M14.4,31.9c0,0,.1,0,.2.1,0,0,0-.2-.2-.1M81.6,43c0,0-.1,0-.2-.1,0,0,0,.2.2.1M46.9,9.9c0,0-.1,0-.2-.1,0,0,0,.2.2.1Z"/>
    <path d="M150.3,284.1c-.6,2.1-1.2,4.1-2,6-.6,1.4-1.4,2.8-2.2,4.1-.6.9-1.2,1.8-1.9,2.6-1.1,1.3-2.5,2.3-4,3.2-.3.1-.5.3-.8.3-1,.1-1.1,0-1.1-1,0-14.8,0-29.6,0-44.4,0-1.3-.1-2.6,0-3.9,0-.9.5-1.2,1.2-.8,2.3,1.1,4.6,2.3,6.3,4.4,1.8,2.2,3.1,4.6,3.8,7.3.6,2.4,1.1,4.8,1.4,7.2.4,2.9.3,5.9.2,8.8,0,2-.3,4.1-.9,6.2Z"/>
    <path d="M114.6,279.6c0,6.3,0,12.5,0,18.6,0,.3-.1.6-.2.8-.2-.2-.5-.3-.7-.5-.9-1.1-1.8-2.1-2.6-3.3-1.6-2.4-2.7-5.1-3.6-7.9-.7-2.3-1.4-4.5-1.7-6.9-.3-2.2-.7-4.5-1-6.7-.4-3-.5-6.1-.7-9.1-.1-1.8-.2-3.7-.3-5.5,0-1.1.3-1.8,1.4-2.5,1.9-1.1,3.7-2.3,5.6-3.2.5-.2,1-.4,1.5-.6.7-.3,1.3-.6,2-.9,0,.8,0,1.6,0,2.4,0,8.4,0,16.8,0,25.4Z"/>
    <path d="M105.2,215c.4-2.6,1.2-4.9,2.2-7.2,1.2-3,2.7-6,4.7-8.6.7-1,1.5-1.9,2.2-2.8,0,0,.3-.1.3,0,.1.1.3.3.3.4,0,.6-.2,1.2-.2,1.9,0,9.1,0,18.2,0,27.4,0,1.5,0,1.4-1.4,2-3.1,1.4-6.3,2.7-9.1,4.7-.2.2-.7.4-.9.3-.5-.2-.1-.6,0-1,.1-1.6,0-3.1,0-4.7,0-1.6.2-3.2.6-4.8.2-1,.2-2.1.4-3.1.3-1.4.6-2.9,1-4.5Z"/>
    <path d="M139.3,35c0-2.8,0-5.4,0-8.1,0-.3.1-.7.2-1,.4.1.9.2,1.3.4,1.1.8,1.6,2.1,2,3.3.2.6.3,1.3.3,2,0,1.3.1,2.5,0,3.8-.1,2.1-1.8,4.7-3.7,5.4-.1,0-.3,0-.4,0,0,0-.2-.3-.1-.4.7-1.1.1-2.4.3-3.6,0-.5,0-1.1,0-1.8Z"/>
    <path d="M8.5,19.7c.4-.1.8-.3.9-.2.6.5.9.3,1.4-.2,0,0,.2,0,.3-.1,0,.1,0,.3,0,.4-.1.2-.3.3-.4.5-.2.2-.8.3-1,.2-.3,0-.7,0-1.1,0-.2,0-.2,0,0-.6Z"/>
    <path d="M7.7,22.9c.1-.9.6-.7,1-.3.2.2.4.6.7.7.3,0,.6,0,.5.5,0,0-.4,0-.6,0-.5-.2-1-.5-1.5-.9Z"/>
    <path d="M10.1,16.5c.7-.3.4.3.4.4-.2.5-.5,1.1-.8,1.6,0,.1-.5,0-.7,0,.1-.2.2-.5.4-.5.7-.1.7-.3.3-.8,0,0,.3-.4.5-.6Z"/>
    <path d="M136,214c.6.5.6.6.3.6-.5,0-.6.2-.6.7,0,.1-.2.2-.4.3,0-.2-.3-.4-.2-.5.2-.4.5-.8,1-1.1Z"/>
    <path d="M136.3,291c.1.2.2.4.3.5-.7.3-1-.3-1.4-.7,0,0,.2-.2.2-.2.3,0,.6.2.9.4Z"/>
    <path d="M11.3,12.7c.3-.2.5-.3.7-.4,0,.2.1.4,0,.5-.2.3-.5.5-.8.7,0-.3,0-.5,0-.8Z"/>
    <path d="M133.1,337c-.6-.4-.2-.6,0-.8,0,0,.4.2.5.3.2.4,0,.6-.6.5Z"/>
    <path d="M95.3,11.3c0-.4,0-.6.1-.9.1,0,.4.2.4.3,0,.3.2.8-.5.6Z"/>
    <path d="M124.9,360.9c-.2,0-.3-.2-.4-.2-.4,0-.6-.2-.4-.6,0,0,.5,0,.6.2.1.1.2.4.2.6Z"/>
    <path d="M137.1,56.8c.2,0,.2,0,.3.1.2.2.3.5.5.7-.2,0-.3,0-.5,0-.7,0-.3-.5-.3-.9Z"/>
    <path d="M10.5,15.9c-.3-.1-.5-.3-.6-.4,0-.1,0-.3,0-.4.1,0,.3,0,.3.1.2.2.3.5.3.8Z"/>
    <path d="M11.2,17.5c.2-.1.4,0,.5,0-.2.2-.3.5-.5.7-.1,0-.2-.2-.3-.3,0,0,.1-.1.2-.4Z"/>
    <path d="M136.8,151.5c.5-.1.7,0,.5.4,0,.2-.3.3-.5.4,0-.2,0-.5,0-.8Z"/>
    <path d="M8.6,21.7c-.6-.4-.2-.6,0-.9,0,0,.1,0,.2,0,0,.3,0,.6-.3.9Z"/>
    <path d="M137,384.6c0,.6-.1.8-.5.6,0,0,0-.4,0-.5.1-.1.4-.2.5,0Z"/>
    <path d="M137.7,53.8c.2-.2.4-.2.6-.1,0,0,0,.3,0,.3-.2,0-.4,0-.6-.1Z"/>
    <path d="M137,97c.2.2.2.4.1.6,0,0-.3,0-.3,0,0-.2,0-.4.1-.6Z"/>
    <path d="M137.4,92.7c0,.2-.1.3-.2.4,0-.3-.1-.5-.2-.8.1,0,.2,0,.3,0,0,0,0,.2,0,.4Z"/>
    <path d="M110.7,10.4c-.3.1-.4.2-.5.3,0-.2,0-.4,0-.5.3,0,.6,0,.9,0,0,0,0,0,0,.1,0,0,0,0-.3.1Z"/>
    <path d="M12.4,14c0,.3,0,.6,0,.8-.1,0-.3-.2-.3-.2,0-.2.2-.5.4-.6Z"/>
    <path d="M133.5,218.2c0-.2.2-.4.3-.6,0,0,.2.2.3.3-.2.1-.3.2-.6.3Z"/>
    <path d="M136,253.3c0,.2,0,.4-.2.6,0-.2,0-.4.2-.6Z"/>
    <path d="M118.2,208.9c.3,0,.4,0,.6.1,0,0,0,.2-.1.2-.2,0-.5,0-.7,0,0,0,0,0,0-.1,0,0,0,0,.3-.1Z"/>
    <path d="M136,330.5c-.2.2-.4.2-.6.2.2-.1.4-.2.6-.2Z"/>
    <path d="M237.6,30.4c.1-.1.3-.2.5-.2.1,0,.3,0,.4.1-.2,0-.3.1-.5.2,0,0-.2,0-.4,0Z"/>
    <path d="M11.3,9.5c.2,0,.4.3.5.4,0,0-.2.1-.2.1-.1-.1-.2-.3-.3-.6Z"/>
    <path d="M135.6,191.3c0-.1,0-.3-.1-.5.2,0,.3,0,.5.1-.1.1-.2.2-.4.4Z"/>
    <path d="M106.4,11.9c-.2,0-.4.1-.5,0-.1,0-.2-.1-.3-.2,0,0,.2-.1.2-.1.2,0,.5,0,.6.2Z"/>
    <path d="M12.9,10.9c.1,0,.3,0,.5-.1,0,.2,0,.3-.1.5-.1-.1-.2-.2-.4-.4Z"/>
    <path d="M10.4,10.9c-.2,0-.4,0-.5,0l.5-.5c0,.1,0,.3,0,.5Z"/>
    <path d="M95.3,12.6c0-.1.3-.2.4-.2,0,0,0,.1,0,.2-.1,0-.3,0-.5,0Z"/>
    <path d="M119.7,341.9c0,.1-.3.2-.4.2,0,0,0-.1,0-.2.1,0,.3,0,.5,0Z"/>
    <path d="M238.1,26.5c-.2,0-.4,0-.5,0,0,0,0-.2,0-.2.2,0,.3,0,.4.2Z"/>
    <path d="M137.3,60.3c-.1.1-.2,0-.3,0,.1,0,.2-.1.3,0Z"/>
    <path d="M101.3,9.2c0,.1-.3.2-.4.2,0,0,0-.1,0-.2.1,0,.3,0,.5,0Z"/>
    <path d="M137.1,197.3c.2,0,.4,0,.5,0,0,0,0,.2,0,.2-.2,0-.3,0-.4-.2Z"/>
    <path d="M137.7,21.2c.1,0,.2.3.2.4,0,0-.1,0-.2,0,0-.1,0-.3,0-.5Z"/>
    <path d="M137,98.9c.1-.1.2,0,.3,0-.1,0-.2.1-.3,0Z"/>
    <path d="M137.7,19.8c.1-.1.2,0,.3,0-.1,0-.2.1-.3,0Z"/>
    <path d="M137.6,130c-.2,0-.4,0-.5,0,0,0,0-.2,0-.2.2,0,.3,0,.4.2Z"/>
    <path d="M137.9,150.2c0,.2,0,.4,0,.5,0,0-.2,0-.2,0,0-.2,0-.3.2-.4Z"/>
    <path d="M137.4,154c0-.2,0-.4,0-.5,0,0,.2,0,.2,0,0,.2,0,.3-.2.4Z"/>
    <path d="M1.2,168.9c0,0,.1-.1.2-.1,0,0,0,.1-.2.1Z"/>
    <path d="M137.3,103.1c0,0-.1-.1-.1-.2,0,0,.1,0,.1.2Z"/>
    <path d="M137.4,206.7c0,0,.1.1.1.2,0,0-.1,0-.1-.2Z"/>
    <path d="M122.7,255c0,0-.1.1-.2.1,0,0,0-.1.2-.1Z"/>
    <path d="M136.1,262.8c0,0,.1.1.1.2,0,0-.1,0-.1-.2Z"/>
    <path d="M135.6,263.6c0,0-.1-.1-.1-.2,0,0,.1,0,.1.2Z"/>
    <path d="M121,285.8c0,0-.1.1-.2.1,0,0,0-.1.2-.1Z"/>
    <path d="M2,318.2c0,0-.1.1-.2.1,0,0,0-.1.2-.1Z"/>
    <path d="M6.2,30.1c0,0-.1-.1-.1-.2,0,0,.1,0,.1.2Z"/>
    <path d="M123,342.1c0,0-.1-.1-.1-.2,0,0,.1,0,.1.2Z"/>
    <path d="M121.2,356.5c0,0,.1.1.1.2,0,0-.1,0-.1-.2Z"/>
    <path d="M256.8,375.3c0,0,.1.1.1.2,0,0-.1,0-.1-.2Z"/>
    <path d="M10.4,12.1c0,0-.1.1-.2.1,0,0,0-.1.2-.1Z"/>
    <path d="M96.2,11.9c0,0,.1-.1.2-.1,0,0,0,.1-.2.1Z"/>
    <path d="M99.5,10.1c0,0,.1.1.1.2,0,0-.1,0-.1-.2Z"/>
    <path d="M120.2,53.3c0,0,.1.1.1.2,0,0-.1,0-.1-.2Z"/>
    <path d="M111.6,9.8c0,0-.1.1-.2.1,0,0,0-.1.2-.1Z"/>
    <path d="M136,393.6c0,0-.1-.1-.1-.2,0,0,.1,0,.1.2Z"/>
    <path d="M212.2,398.8c0,0-.1-.1-.1-.2,0,0,.1,0,.1.2Z"/>
    <path d="M209.7,34.1c-1,0-1.8,0-2.6,0,0,0-.2-.2-.2-.3.8-1.9,1.6-3.8,2.4-5.6,0-.2.3-.4.4-.5.1.2.2.4.3.6.2.5.3.9.5,1.4.5,1.2.9,2.5,1.5,3.7.4.7.3.8-.4.8-.6,0-1.2,0-1.9,0Z"/>
    <path d="M72.1,29.5c0,2.9-2.3,4.6-4.9,3.9-.1,0-.2-.2-.3-.3,0,0,0-.1,0-.2-.1-1.7-.2-3.4-.3-5,0-.8,0-1.2,1-1.4,2.2-.6,4.1.5,4.5,3Z"/>
  </g>
</svg>