<?xml version="1.0" encoding="UTF-8"?>
<svg id="Layer_1" xmlns="http://www.w3.org/2000/svg" version="1.1" viewBox="0 0 587.1 249">
  <!-- Generator: Adobe Illustrator 29.3.1, SVG Export Plug-In . SVG Version: 2.1.0 Build 151)  -->
  <g id="Shape_53">
    <path d="M222.9,115.5c0-2.4,0-4.6,0-6.8.2-8.2,2.4-15.9,7.5-22.4,2.5-3.1,5.7-5.6,8.7-8.4,3-2.9,6.8-4.5,10.6-6.1,6.2-2.5,12.7-2.8,19.2-2.3,7.2.5,13.6,3.4,19.5,7.7,5.4,4,9.5,8.9,12.3,14.9,1.2,2.6,2.1,5.4,3,8.1.4,1.2-.4,2.1-1.7,2.2-6.1,0-12.1,0-18.2,0-.6,0-1.3-.7-1.7-1.2-1.7-2.3-3.1-5-5.1-7.1-2.8-3-6.4-4.4-10.4-5.1-6.2-1-11.4,1-16.1,4.9-4.8,4-6.8,9.3-7,15.3,0,3.5,0,7,0,10.5s0,.6,0,.9c-.2,1.9.3,2.2,2.2,1.5,2.7-1,5.3-2.1,8-3,1.5-.5,3.2-.8,4.8-.9,3.3-.1,6.6,0,9.9,0,1.2,0,2.3.4,3.5.5,7.1.7,12.9,4.4,18.5,8.4,2.3,1.7,4.2,4.2,6,6.5,1.6,2,2.4,2.1,4.5.7,3.5-2.4,7.2-4.5,10.8-6.8,2-1.3,4.2-2.4,5.9-4,.8-.7.7-2.5.8-3.7,0-4-.1-7.9,0-11.9.2-2.8,1.1-5.6,1.2-8.5.2-4,2.3-7.3,4.1-10.5,2.4-4.3,5.7-7.9,9.6-10.9,2.7-2.1,5.6-4,8.6-5.7,3.1-1.6,6.4-2.7,10-3.3,2.8-.5,5.4-1,8.3-1,7,0,13.6,1.4,19.7,4.7,3.7,2,7.2,4.2,10,7.5,1.6,1.8,2.7,1.6,4.7.4,2.8-1.6,5.7-2.9,8.6-4.4,2.8-1.5,5.6-3,8.4-4.5,4.9-2.5,9.7-5,14.6-7.5,5-2.6,10-5.2,15.1-7.6,9.3-4.5,18.6-9,27.9-13.4,5.5-2.6,11.1-5.2,16.7-7.7,8.1-3.6,16.3-7.1,24.5-10.6,4.6-2,9.1-3.9,13.7-5.8,4.6-1.8,9.2-3.6,13.8-5.3,5.3-1.9,10.6-3.8,15.9-5.6,5.4-1.8,10.8-3.5,16.2-5.3.9-.3,2-.6,2.6-1.2,2.1-2.3,4.5-1.6,7-1.2.6,0,1.2.3,1.8.3,3.3,0,4.7,1.3,5.1,4.6.1,1.3.5,2.6.7,4,0,.5,0,1.2-.4,1.6-2.2,2.2-4.3,4.9-6.9,6.4-3.3,1.8-6.9,4.1-11.2,2.7-.9-.3-2,.5-3.1.6-2.2.3-4.5.2-6.6.9-3.9,1.2-7.7,2.7-11.6,4.1-7,2.6-13.9,5.1-20.9,7.8-3.8,1.4-7.5,3-11.2,4.7-5.5,2.5-11,5.1-16.5,7.6-3.3,1.5-6.7,2.9-10.1,4.4-2.5,1.1-4.9,2.4-7.4,3.5-2.1,1-4.3,1.9-6.4,2.9-3.4,1.6-6.7,3.2-10.1,4.8-2.4,1.1-4.9,2.2-7.3,3.3-.1,0-.4,0-.5,0-.4,0-.9-.1-1.3-.2.4-.3.7-.6,1.1-.7,3.1-1.4,6.2-2.6,9.3-4.1,1.4-.7,2.7-1.7,4.1-2.4,2.9-1.5,5.9-2.9,8.9-4.3,2.2-1,4.5-1.8,6.6-2.9,2-1,3.9-1.9,6.2-2.2.5,0,.8-1.1,1.4-1.3,1.7-.8,3.4-1.4,5.1-2.2,2.7-1.3,5.4-2.6,8.1-3.9,2.6-1.3,5.1-2.7,7.8-3.8,3.7-1.6,7.4-2.9,11.1-4.3,2.8-1.1,5.6-2.4,8.5-3.5,2.5-.9,5-1.6,7.5-2.5,2.5-.9,5-2,7.5-2.9,1.5-.6,3.1-1.1,4.6-1.7,1.9-.8,3.8-1.6,5.8-2.4.3-.1.6-.4.9-.4,3.1-.3,6.2-.7,9.3-.6,1.7,0,3.3.2,4.9-.5,1.1-.5,2.2-1.1,3.2-1.8,2.2-1.6,4.5-3.2,6.6-4.9,1.3-1.1,1.3-3.4.4-4.7-.1-.2-.2-.5-.2-.7.7-1.6,0-3.2-1.7-3.4-2.1-.3-4.3-.5-6.4-.7-1.4-.1-2.4.5-3,1.8-.3.5-.7,1.1-1.1,1.4-.2.2-.8-.1-1.1-.3-.3-.1-.7-.4-1-.3-1.6.6-3.1,1.4-4.7,2-2.9,1.1-5.7,2.1-8.6,3.1-.7.2-1.4.2-2.1.5-3.9,1.5-7.8,3.1-11.7,4.6-1.5.5-3.1.7-4.7,1.2-2,.6-4,1.3-5.8,2.3-3.4,1.9-7.1,2.7-10.7,4.1-2.4.9-4.6,2-7,2.9-2.9,1-5.2,3.5-8,4-2.8.5-5.1,1.6-7.6,2.7-3.7,1.6-7.4,3.3-11.1,4.9-4,1.8-8.2,3.2-11.9,5.4-3.9,2.3-8.4,3.4-12.2,6.1-2.7,1.9-6.3,2.7-9.4,4.2-5.1,2.4-10.1,4.9-15.2,7.4-3.1,1.6-6.2,3.3-9.3,4.9-2.3,1.2-4.8,2.2-7.1,3.4-3.4,1.8-6.8,3.7-10.3,5.6-.4.2-.9.3-1.4.6-1.3.7-2.6,1.4-3.9,2.2-.5.3-.9.9-1.4.9-3.1.1-5.3,2.1-7.7,3.6-1.8,1.1-3.5,2.3-5.3,3.4-.2,0-.6-.1-.8-.3-1.4-1.2-2.8-1-4.4-.1-3.8,2.2-7.6,4.1-11.4,6.2-1.4.8-2.6,2.2-4.4,1.7-1.2-.3-2.4-1.1-3.5-1.7-3.7-1.8-7.6-1.7-11.4-1.3-4.4.5-8.3,2.6-11.4,5.8-3.2,3.4-5.5,7.3-5.7,12.2,0,.9-.3,1.7-.3,2.6,0,2.3-2.2,2.6-3.5,3.4-4,2.5-8.2,4.7-12.3,7.2-1.9,1.1-3.3,2.8-4.7,4.4-1.6,1.9-3.9,3.3-6,4.7-2.1,1.4-4.5,2.6-6.7,3.9-1.4.9-2.7,2-4.2,2.7-1.7.8-3.7,1.1-5.5,1.6-.6.2-1.2.4-1.7.7-4.1,2.7-8.3,5.4-12.4,8.2-.3.2-.5.5-.6.8-.5,3-2.2,4.8-5.1,5.6-1.1.3-1.9,1.3-2.9,2.1-2.1,1.7-4.2,3.4-6.4,5-4,2.9-8.1,5.8-12.2,8.7-2.1,1.5-4.3,3.1-6.4,4.6-.9.6-1.8,1.2-2.8,1.7-.3.2-.8,0-1.2-.1.2-.3.3-.7.5-.9,2.5-1.9,5.1-3.7,7.6-5.5,3.8-2.8,7.4-5.6,11.2-8.4,4.8-3.4,9.6-6.7,14.4-10,1.8-1.2,1.9-2.3.5-4-2.8-3.2-6-5.8-10.2-7-5.6-1.6-11-1-16,1.9-5.1,2.9-8,7.6-9.6,13.1-.3.9-.4,1.9-.4,2.8-.1,4.9-.7,9.9-.2,14.7.3,2.8-.7,3.9-2.7,5.4-4.3,3.1-8.4,6.6-12.5,9.9-.5.4-.8,1.3-.8,1.9,0,1.5-.8,2.2-1.9,3-2.5,1.6-4.9,3.4-7.3,5.1-2.3,1.6-4.7,3.2-7,4.9-1.6,1.2-3,2.6-4.6,3.9-1.9,1.6-4,3-5.9,4.6-1.7,1.4-3.4,2.7-5,4.2-2,1.8-3.7,4-5.9,5.4-4.9,3.1-8.6,7.7-13.2,11.2-2,1.5-3.4,3.8-5.6,5-2.7,1.5-3.2,4.2-4.5,6.5-.2.4.4,1.5.8,2,.9.9,2,1.7,3,2.5,1.9,1.3,4.1.7,6.2.6,3.4-.2,4.8-3,6.9-5.1,1.7-1.7,3.6-3.3,5.3-5,.8-.8,1.4-1.8,2.3-2.6,1.6-1.4,3.2-2.8,4.8-4.1.7-.6,1.3-1.1,2-1.6,2.2-2,4.5-4,6.7-6,2.4-2.1,5-4.2,7.4-6.4,2-1.8,3.5-3.9,6.2-5,2.1-.9,3.5-3,5.4-4.5,3.3-2.6,6.6-5,10-7.5.4-.3.9-.3,1.4-.4,2.8-.2,4.5-2.3,6.6-3.8,3.4-2.4,6.6-5,10-7.4.5-.3,1.6-.2,2.1.2,4.4,2.9,9.5,2.6,14,1.8,5.5-.9,10-4.3,13-9.3,2.1-3.5,2.9-7.2,2.9-11.2,0-4.7,0-4.7,3.7-7.3,4.6-3.1,9.3-6.1,13.8-9.3.7-.5,3-1.4.6-3-.4-.3-.4-1.9,0-2.6.8-1.4,0-2.1-.9-2.7-1-.7-1.5-1.5-1.2-2.6.1-.6.5-1.1.8-1.6.4.5,1.1.9,1.3,1.5.7,2.3,1.2,4.6,1.9,6.9,0,.2,1.2.3,1.5,0,1.3-.8,2.4-1.9,3.6-2.8,2-1.4,4.1-2.7,6.1-4.1.2-.1.5-.2.8-.2.4,0,.8,0,1.3,0-.2.3-.4.7-.7.9-3.5,2.5-7,4.9-10.6,7.3-.8.5-1,1-1,1.9,0,5.8,0,11.6,0,17.4,0,6.8-1.2,13.4-4.6,19.4-3.8,6.8-8.7,12.5-15.8,16.1-2.9,1.5-5.7,3-8.8,4.1-2.2.8-4.6.9-6.9,1.2-1.4.2-2.9.3-4.3.4-8.1.5-15.7-1.5-22.7-5.5-1.6-.9-3.1-2-4.5-3.1-1.1-.9-2-1.1-3.2-.1-3.8,3-7.8,5.8-11.6,8.8-3.5,2.8-6.9,5.6-10.3,8.5-5.5,4.8-11.1,9.5-16.5,14.4-4.6,4.2-8.9,8.8-13.3,13.2-1.9,1.9-4.1,2.4-6.6,2.8-4.3.8-6.8-2-9.7-4.1-1.2-.9-1.3-3.3-.7-4.8,1.4-3.4,4.4-5.3,6.8-7.8,2-2,4.4-3.7,6.5-5.5,4.3-3.7,8.5-7.4,12.8-11,4.2-3.6,8.5-7.2,12.8-10.6,3.7-3,7.5-5.8,11.3-8.7,2.9-2.2,5.7-4.4,8.6-6.6.4-.3.7-.6,1.1-.7,1.1-.4,1.1-1,.7-2-1.6-3.4-2-7-2.6-10.6-.8-4.6-.2-9.2-.3-13.9-.1-5.3-.1-10.6,0-15.9.2-10.3.5-20.6.7-31Z"/>
    <path d="M416.4,123.3c0-5.8,0-11.4,0-17,0-5.6,1.4-11,3.8-16.1,2-4.4,4.8-8,8.4-11,1.8-1.5,4.2-2.3,6.4-3.3,3-1.5,6.1-3,9.1-4.5,2.7-1.4,5.4-2.8,8.2-4.2.3-.1.7-.1,1-.1,3.2,0,6.4-.1,9.6,0,4,.2,7.8,1.3,11.4,2.8,6.1,2.6,11.5,6.2,15.9,11.3,4.1,4.7,7.3,10,8.7,16.2.8,3.4,1.3,6.9,1.4,10.4.3,9.8.3,19.6.4,29.4,0,4.4,0,8.7,0,13.1,0,5.6.3,11.3.3,16.9,0,3.4-.6,6.6-1.2,9.9-1,5-3.5,9.1-6.1,13.1-2,3.1-5.1,5.6-8,8.2-4.2,3.7-9.3,6.1-14.7,7.6-2.5.7-5.2,1.2-7.8,1.3-3.9.1-7.8,0-11.7-.3-6.8-.8-12.8-3.8-18.4-7.7-6.3-4.4-10.6-10.4-13.5-17.4-1.3-3.1-2.2-6.5-2.5-9.7-.5-7.1-.3-14.2-.5-21.3,0-2.9-.3-5.8-.3-8.8,0-1.5.3-3,.3-4.5,0-4.7-.2-9.4-.3-14.2M465.8,185.7c5.4-1.8,9.4-5.1,12.1-10.3,2.5-4.7,1-9.8,1.8-14.6.2-1.4-.3-3-.3-4.5-.1-8.2-.2-16.3-.4-24.5-.1-6.9-.2-13.7-.3-20.6,0-1.8,0-3.6,0-5.4,0-5.2-2.1-9.5-5.9-13-5.3-4.9-11.5-7.1-18.6-5.6-6.4,1.3-11.1,4.9-14.2,10.8-2.4,4.6-2.4,9.4-2.4,14.3,0,2.4.3,4.8.3,7.2.1,6.9.3,13.8.4,20.8,0,1.9,0,3.7,0,5.6,0,6.3,0,12.6,0,19,0,4.4.6,8.6,3,12.6,3.7,6.2,9.4,8.7,16.1,9.8,2.8.4,5.5-.3,8.3-1.4Z"/>
    <path d="M352,186.7c6.8,2.6,13.3,1.8,19.4-1.7,4.5-2.6,7.4-6.6,9.1-11.5.4-1.1.4-2.4.4-3.5,0-11,0-22,0-32.9,0-2.4-.3-4.8-.3-7.2,0-3.7.4-7.4.3-11.1,0-4.6-.5-9.1-.6-13.7,0-.4.4-1.1.7-1.2,4-.8,7.1-3.4,10.6-5.2,2.1-1,4-2.3,6-3.5.3-.2.7-1,.5-1.3-.5-.7-1.2-1.3-2.2-.6-.5.4-1,1-1.6,1.2-.4.2-.9-.1-1.4-.2.2-.3.4-.6.7-.7,1.3-.8,2.5-1.6,3.8-2.4.2,0,.6,0,.7.2.7,1.1,1.7,2.1,2,3.2,1.9,7.1,2.3,14.4,2.2,21.8-.1,18,0,36.1,0,54.1,0,2.4-.6,4.8-1,7.2-1,5.4-3.8,10-6.9,14.3-2.4,3.3-5.8,5.9-8.9,8.6-3.7,3.2-8.4,4.7-12.9,6.6-1.9.8-4,1-6,1.2-2.5.3-5.1.4-7.6.4-6.5-.1-12.7-1.7-18.6-4.7-6.7-3.3-11.8-8.2-15.7-14.2-2.9-4.5-5.2-9.3-5.8-14.8-.4-3-.5-6-.4-9,.1-3.7-.3-7.5-.3-11.2,0-3.5.2-7,.3-10.5,0-.7-.4-1.3-.3-2,.2-1.2.7-1.9,2-2.5,2.5-1.2,4.8-3,7.2-4.5,2.8-1.8,5.6-3.5,8.5-5.2,1.5-.9,2.9-3.4,2.5-5,0-.3-.3-.5-.5-.6,0,0-.4.1-.5.2-.8.6-1.5,1.3-2.3,1.8-.3.2-.9-.1-1.3-.2,0-.4,0-.8.2-1.1.3-.3.8-.6,1.3-.8,1.2-.4,2.2-1,2.6-2.3.2-.5.9-.8,1.4-1.2,0,.6.3,1.2.3,1.8,0,.4-.3.7-.3,1.1,0,.4,0,1.2.1,1.3,1.7.6.9,1.9.9,2.9,0,3.2-.3,6.5-.3,9.7,0,2,.3,4,.3,5.9,0,2.2-.3,4.4-.3,6.6,0,3.1.3,6.3.3,9.4,0,1.9-.4,3.8-.3,5.8.3,5.7.6,11.4,4.9,16,2.2,2.3,4.6,3.9,7.5,5.3Z"/>
    <path d="M66.6,101.6c1.6-3.2,3-6.3,4.4-9.4.2-.5,0-1.3,0-1.9-.5,0-1.1,0-1.5.1-2.5.9-5,1.7-7.3,2.8-5.2,2.5-10.6,4.8-15,8.7-.7.6-1.7,1.1-2.2,1.9-1.9,2.7-4.5,3.3-7.5,2.9-.1,0-.3,0-.4,0-2.8-1.6-6.3-2.1-8.4-4.9-.5-.7-.7-1.2,0-2,1.8-2,3.2-4.5,5.1-6.3,2.4-2.3,5-4.5,7.9-6.1,4.4-2.6,9.1-4.8,13.7-7,2.6-1.2,5.2-2.2,8-3,2.6-.7,5-1.7,7.8-1.9,2.8-.2,5.2,0,7.7,1.5,1.1.7,2.6.9,3.9,1.3,4.3,1.5,5.5,5.1,5.9,8.9.6,4.7-1.2,8.9-3.4,12.9-1.7,3.2-3.3,6.6-5.2,9.7-1.9,3-4.2,5.8-6.2,8.8-2.5,3.7-4.9,7.4-7.6,11-2.4,3.2-5,6.2-7.5,9.3-.3.4-1,.5-1.4.8,0-.6.1-1.1.3-1.7.1-.4.5-.7.7-1.1,1.5-2.2,2.8-4.6,4.6-6.6,1.3-1.4,2.2-3,3.3-4.5,2-2.8,4.8-5.1,6.1-8.5.4-1.1,1.3-2.1,2-3.1,1.2-1.6,2.6-3.2,3.7-4.8.9-1.3,1.6-2.6,2.3-4,1.6-3.2,3.3-6.3,4.6-9.6.6-1.7,1.3-3.4,1.9-5.1.4-1.1,0-2.5-.2-3.7-.2-1.4-.5-2.8-1.1-4-.4-1-1.3-1.9-2.2-2.5-1.2-.8-2.6-1.2-3.9-1.7-1.8-.7-3.5-1.8-5.3-2-1.9-.3-4-.2-5.9.9-1.1.6-2.3,1.1-3.5,1.3-3.5.5-6.6,1.9-9.7,3.5-2.7,1.4-5.4,2.9-8.1,4.4-1.9,1-3.7,2.2-5.6,3.2-.7.4-1.8.2-2.3.7-1.4,1.1-2.6,2.5-3.9,3.8-.4.4-1,.7-1.3,1.1-.6.9-1.2,1.8-1.8,2.7-.5.7-.2,2-1.6,1.9-.1,0-.5.6-.4.8.1.4.5.9.8.9,2.6,0,4.3,2.1,6.5,2.8,1.8.5,3.9.3,5.6-1.2,2.4-2.2,4.9-4.3,7.6-6.1,2.4-1.6,5.3-2.3,7.5-3.9,3.1-2.3,6.9-2.6,10.1-4.2,2.4-1.2,4.4.2,4.7,2.9.2,1.4-.7,2.1-1.1,3.2-1.5,4.5-4.2,8.4-6.4,12.6-1.4,2.6-2.8,5.2-4.3,7.8-.8,1.3-1.9,2.3-2.8,3.5-1.1,1.6-2.1,3.3-3.2,4.9-.6.8-1.4,1.5-2.1,2.3-2.5,2.9-4.9,5.9-7.4,8.8-.7.9-1.2,1.9-1.9,2.8-.3.4-.7.8-1,1.2-1.4,1.5-2.7,3-4.1,4.5-1.5,1.7-3.1,3.3-4.6,5-1.4,1.4-2.8,2.8-4.2,4.2-1.5,1.5-3.1,2.8-4.3,4.4-.9,1.1-1.2,2.7-1.9,4-.5,1-1.3,2-1.9,2.9-.1.2-.5.2-.7.4,0-.3-.2-.7,0-1,1.9-4.3,4.6-8.1,7.9-11.4,3.9-3.9,7.4-8,10.7-12.4,2-2.7,4.3-5.1,6.5-7.6,1.3-1.5,2.4-3.1,3.7-4.7,1.3-1.6,2.8-3.1,4.1-4.8,2.7-3.8,5.4-7.5,7.9-11.4,1.9-3,3.5-6.2,5.3-9.4Z"/>
    <path d="M190,75.4c2.9,4.7,5.6,9.4,6.6,14.7.5,2.9.4,6,.4,9.1,0,2.3,0,4.7-.7,6.8-1.9,5.9-5.3,10.9-8.9,16-3.8,5.3-8.3,9.7-12.9,14.1-5.1,4.8-10.9,9-17.7,11-2.7.8-5.6,1.2-8.5-.1-2.6-1.2-5.4-2.2-8.1-3.1-.5-.1-1.4.6-1.9,1.2-1.3,1.7-2.5,3.6-3.7,5.4-1.4,2.1-2.7,4.3-4.4,6.1-2.3,2.5-4.8,4.7-7.3,7.1-2.6,2.5-5.5,4.3-8.7,5.9-3.8,1.9-7.7,3.5-11.9,3.2-3-.2-6-1.2-8.9-2.1-2-.6-4-1.4-5.7-2.5-1.5-1-2.6-2.6-3.8-4-.2-.2,0-.6,0-1,.3,0,.7,0,1,.2.2.1.3.4.5.7,1.1,1.7,2.7,2.7,4.8,2.8.6,0,1.9-.5,1.2,1.1,0,0,.3.3.4.3,3.1.9,6.4,1.5,9.3,2.7,1.8.7,3.4.2,4.8-.3,4.2-1.5,8.5-2.6,12-5.7,2.6-2.3,5.6-4.2,8.3-6.3.2-.2.3-.5.5-.7.8-1,1.6-1.9,2.4-2.9.7-.8,1.3-1.7,1.9-2.6.3-.5.4-1,.7-1.5,1.6-2.1,3-4.2,4.8-6.1,1.6-1.8,3.6-2.6,6.2-1.4,1.5.7,3.3.7,4.9,1,.3,0,.7.2.9.4,2.7,1.9,5.6,1.3,8.1.2,3.5-1.4,6.8-3.5,10.1-5.5,1.8-1.1,3.6-2.3,5.2-3.8,2.1-1.9,3.9-4.1,5.8-6.2.6-.7,1.6-1,2.1-1.7,1.7-2,3.3-4.2,4.9-6.3,1.5-2,3.2-4,4.6-6.1,1.1-1.8,1.7-4,2.9-5.7,1.3-1.8,1.8-3.8,2-5.9.2-1.6.3-3.3.4-4.9,0-1.7.1-3.4,0-5.1-.2-2.6-.7-5.1-1-7.7,0-.1,0-.3,0-.3-2.3-.6-1.2-2.9-2.3-4.2-1.2-1.5-2.1-3.3-3-4.9-1-1.6-1.8-3.3-2.9-4.8-1-1.4-2.2-2.6-3.4-3.7-1.1-1.1-2.3-2.2-3.7-2.9-1.9-1-4-2-6.1-2.2-2.3-.3-4.6.8-6.8,2-2.2,1.2-3.8,2.9-5.5,4.6-1.4,1.4-2.8,2.7-4.1,4.1-.3.3-.3.9-.4,1.4.4,0,.8-.1,1.2-.1,1.7-.1,3.4-.2,5.1-.4,1.9-.2,3.9-.2,5.7-.8,1.5-.5,2.8,0,4.2.2.2,0,.3.3.5.5-.2,0-.4.2-.6.2-3.9.8-7.7,2.1-11.8,1.8-1.6-.1-3.3.5-4.9.4-1.4-.1-2.1-2.4-1.1-3.4,3.5-3.4,6.8-7,10.7-9.8,3.7-2.7,8.2-3.1,12.6-1,5.7,2.7,9.8,7.1,13,12.6Z"/>
    <path d="M98.5,134.3c.4-1.3.6-2.4,1.2-3.4,1-1.8,1.9-3.5,2.5-5.5.7-2.2,2.2-4,3.3-6,1.4-2.4,2.6-5,4-7.4,1.5-2.5,3.2-4.9,4.8-7.4,1-1.5,1.7-3.2,2.7-4.7,1.1-1.5,2.4-2.8,3.7-4.2,1.7-1.9,3.5-3.7,5.2-5.6,2.1-2.3,5.1-2.1,6.6.8,1.6,3.2,3,6.5,2.5,10.3,0,.3-.3.6-.5.9-.3-.3-.8-.5-.9-.8-.3-1.6-.4-3.2-.8-4.8-.4-1.9-1.1-3.7-1.7-5.5-.4-1.2-1.3-1.6-2.3-.6-2.1,1.9-4.3,3.8-6.2,5.9-2.5,3-4.8,6.1-6.9,9.3-2.1,3.3-4,6.7-5.9,10.1-1.8,3-3.6,6.1-5.2,9.2-1,1.9-1.7,4-2.5,6-.6,1.4-1.4,2.7-2,4.1-2,4.9-3.8,9.8-4,15.2,0,2.3.5,4.7,1,7,.7,2.8,3.3,3.9,6,2.7,5.3-2.3,9.8-5.4,13.3-10.1,1.9-2.5,4.3-4.7,6.1-7.2,4.9-7.1,9.3-14.4,11.8-22.7.6-2,.7-4.1,1.1-6.1.2-.9.4-1.8.8-2.7.1-.3.6-.5,1-.7.1.5.4,1,.3,1.4-.2,1.3-.7,2.5-.6,3.8.2,2.9-.5,5.4-1.6,8.1-1,2.6-2.3,5.1-3.7,7.6-1.1,1.8-1.9,3.8-3,5.7-1.2,2.1-2.3,4.2-3.8,6-3.9,4.6-7.7,9.3-12.1,13.4-3,2.9-6.9,5-11.1,6-1.4.3-2.7-.2-3.9-1.2-2.1-1.9-2.9-4.2-3.1-6.9-.1-2.2-.4-4.3-.3-6.5,0-1.5.4-3.1,1.1-4.3,1-1.7.8-3.5,1.4-5.2.4-1.3,1.1-2.5,1.7-3.9Z"/>
    <path d="M99.1,105.5c1.5-2.7,2.8-5.5,4.5-8,2.4-3.4,5-6.7,7.6-9.9.8-1,1.8-1.7,2.6-2.6,1.4-1.4,2.6-3,4-4.3,2.4-2.1,4.8-4.4,7.6-6.1,4-2.6,8.3-4.8,13.2-5.1,1.2,0,2.4.7,3.6,1.2,3,1.1,5.7,3,7.7,5.3,1.9,2.3,2.9,5.2,1.7,8.4-1.2,3.1-2.3,6.3-3.4,9.4-.2.6-.4,1.2-.7,1.8-.2.4-.4.8-.6,1.1-.4-.5-1.1-.9-1.1-1.5,0-.7,0-1.5.5-2,.8-1,1.7-1.7,1.4-3.5-.2-1.2,1.1-2.7,1.4-4.1.4-1.5.9-3.2.8-4.7-.3-2.6-1.6-4.7-3.9-6.1-2.1-1.3-4.2-2.6-6.5-3.6-.8-.4-2-.2-2.9,0-3.4,1-6.7,2.1-9.6,4.2-2.5,1.8-5.2,3.5-7.6,5.6-1.7,1.4-3.2,3.3-4.7,5-1.2,1.4-2.5,2.8-3.6,4.3-2.4,3.1-4.9,6.1-7.1,9.3-1.3,1.9-2.3,4.1-3.4,6.2-2,3.8-4,7.5-6,11.3-1,1.9-1.8,4-2.7,5.9,0,.1,0,.4-.2.5-1.6,1.4-1.6,3.5-2.3,5.2-.5,1.3-1,2.5-1.4,3.8-.8,2.3-2.1,3.3-4.3,2.6-3.2-1-6.1.2-9.1,1.1-2.1.7-4.3,1.2-6.4,2.2-2.8,1.3-5.5,2.9-8.3,4.4-.8.4-1.6.9-2.5,1.2-.2,0-.7-.3-1-.5.2-.3.4-.7.7-.9,1.9-1,3.8-2,5.7-3,5.1-2.7,10.3-5.3,16.2-5.9,1.9-.2,3.7-.5,5.6.3,1.1.4,1.5-.4,1.7-1.4.3-1.3.6-2.6,1.1-3.8,1.5-3.6,2.9-7.2,4.6-10.7,2.1-4.3,4.6-8.5,7-12.8Z"/>
    <path d="M176.2,110.7c3-3.9,4.8-8,4.5-13,0-.5.3-1,.3-1.5,0-1.4-.2-2.8-.2-4.2,0-.4.2-.8.3-1.2.4.2,1,.3,1.1.5.2.8,1.1,1.6.1,2.5-.1.1-.3.5-.2.6,1.1,1,.3,2.2.3,3.3,0,2,.2,4.1-.4,5.9-.8,2.4-2.2,4.6-3.5,6.7-1.3,2-2.8,3.8-4.2,5.7-1.7,2.2-3.2,4.4-5.1,6.4-3,3-6.1,5.9-9.3,8.6-2.1,1.8-4.6,3.3-7.3,4.1-1.3.4-2.9-.3-4.4-.6,0,0-.1-.3-.1-.5,0-1.5.3-3,.1-4.4-.3-3.6,1.6-6.6,2.8-9.7,1-2.6,2.5-5,3.8-7.4,1-1.9,2.2-3.7,3.4-5.5,1.1-1.7,2.4-3.4,3.6-5.1.6-.8,1.3-1.6,2-2.3,2.9-3.4,6.3-6.2,10.1-8.6,1.2-.7,2.5-1.5,3.6-2.3,1-.8,1.4,0,1.8.5,0,0-.5.7-.8,1-3,2.2-6,4.4-9,6.5-4.4,3.2-7.2,7.9-10.3,12.2-2.9,4.1-5.1,8.7-7,13.3-1.4,3.2-1.9,6.7-2.7,10-.3,1.3,1.3,2.2,2.8,1.4,2.6-1.4,5.1-2.9,7.5-4.6,2.2-1.6,4.4-3.4,6.2-5.5,3.2-3.6,6-7.4,9-11.1.4-.5.7-1.1,1.2-1.8Z"/>
    <path d="M69.7,175.3c-3.7,3.6-7.2,7.1-10.9,10.5-4.8,4.5-9.7,8.9-14.7,13.3-5.7,5-11.6,9.9-17.4,14.9-2.9,2.5-5.6,5.2-8.5,7.7-.4.4-1,.5-1.6.7.2-.6.2-1.3.6-1.8.7-.8,1.6-1.3,2.3-2,1.5-1.5,2.9-3,4.5-4.4,4.1-3.7,8.3-7.5,12.5-11.1,2.3-2,4.7-3.7,7-5.6,1.8-1.5,3.5-3.2,5.2-4.8,4.2-4,8.5-8,12.7-12,2.4-2.2,4.7-4.5,7.1-6.7,2.2-2.1,4.6-4.2,6.7-6.4,1.2-1.3,2.1-3,3.3-4.3,1-1.1,2.3-2,4-1.9.3,0,.7.3.8.5,0,.2-.3.8-.5.8-1.9.2-2.5,1.8-3.6,2.9-2.4,2.5-4.9,4.9-7.4,7.4-.8.8-1.6,1.6-2.5,2.5Z"/>
    <path d="M41.4,183.8c-3.7,1.9-6.1,5.3-9.6,7.4-2.9,1.7-5.2,4.5-7.8,6.9-2.1,1.8-4.1,3.7-6.2,5.5-.2.2-.7,0-1.1.1.1-.3.2-.6.4-.8,3.7-3.4,7.4-6.8,11.2-10.1,2.6-2.3,5.3-4.6,7.9-6.9,2.8-2.4,5.6-4.8,8.3-7.3,2.2-2,4.4-4.1,6.6-6.2,2.5-2.5,5-5,7.5-7.5,2.4-2.3,4.9-4.5,7.5-6.7.3-.3,1-.2,1.5-.3-.2.5-.4,1-.7,1.3-1.4,1.5-2.9,2.9-4.4,4.3-.4.4-.8.8-1.2,1.2-1,1-2.1,2.1-3.1,3.1-1.6,1.7-3.1,3.4-4.8,5.1-.6.6-1.6.8-2.3,1.3-1.1.8-2.1,1.8-3.1,2.7-2.2,2.3-4.4,4.6-6.6,6.9Z"/>
    <path d="M42.6,166.7c3.5-2.2,6.8-4.3,10.3-6.3,3.4-2,6.8-3.8,10.2-5.6.9-.5,1.9-.7,2.8-.8.3,0,.7.3,1,.5-.2.3-.3.8-.5.8-2.5-.2-3.8,2-5.7,3-4,2.1-7.8,4.5-11.8,6.7-2.6,1.5-5.2,2.9-7.8,4.2-2.2,1.1-4.5,2.1-6.8,2.8-2.7.8-5.2-.8-7.6-1.8-1.6-.7-3-1.8-4.5-2.8-.3-.2-.6-.6-.7-1,0-.2.4-.7.6-.7.4,0,.8.3,1.2.5,1.2.7,2.4,1.6,3.7,2.2.8.4,1.7.7,2.6,1.1,2.3,1.3,4.6.7,6.8-.1,2.1-.8,4.1-1.7,6.2-2.6Z"/>
    <path d="M333.7,121.8c-4.1,2.5-8.1,4.9-12.2,7.1-1.9,1-1.4,2.6-1.8,4.1-.2.7-.1,1.5-.1,2.3,0,.4,0,.8,0,1.2,0,.3,0,.8,0,.9-.3.2-.8.2-1,0-.3-.2-.4-.6-.5-.9-.1-1-.2-1.9-.2-2.9,0-1.2.4-2.3.4-3.5,0-1.5,1-2.1,2.1-2.7,2.1-1.2,4.2-2.5,6.2-3.8,1.9-1.2,3.8-2.4,5.8-3.6,2.2-1.3,4.5-2.6,6.7-3.9.2,0,.6.2.9.3-.4.9-.6,2.5-1.2,2.6-1.9.5-3.2,1.8-5,2.6Z"/>
    <path d="M269.2,174.3c-3.7,2.7-7.2,5.3-10.8,7.9-1.2.9-2.5,1.7-3.8,2.5-.5.3-1.1.3-1.6.3-.2,0-.6-.4-.7-.6,0-.1.2-.5.4-.7,1.7-1.1,3.5-2.2,5.1-3.4,4.2-3,8.4-6,12.5-9,1.8-1.3,3.4-2.9,5.2-4.1,1.5-1,3.2-1.6,4.8-2.4.3-.1.7.2,1.1.4-.2.3-.4.8-.7,1-3.2,2.3-6.5,4.5-9.7,6.8-.6.4-1.2.8-1.9,1.3Z"/>
    <path d="M355.1,117.3c1.7-.8,3.2-1.5,4.7-2.4,2.5-1.4,5.1-2.9,7.6-4.4,2.1-1.2,4.2-2.5,6.2-3.7,1-.6,2.1-1.2,3.2-1.7.5-.2,1-.1,1.6-.2-.2.5-.3,1.1-.7,1.3-1.7,1-3.6,1.9-5.3,2.9-2.4,1.4-4.8,2.9-7.3,4.2-4.7,2.5-9.4,4.9-14.1,7.5-2.9,1.6-5.8,3.3-8.8,4.9-.3.2-.7.3-1.1.4.2-.3.3-.6.5-.9,1.6-2,4.1-2.9,6.1-4.3,2.3-1.6,5-2.2,7.3-3.7Z"/>
    <path d="M345.1,108c3.2-1.9,6.3-3.8,9.5-5.6,4-2.2,8.1-4.4,12.2-6.5,1.3-.7,2.5-1.4,3.8-2,.3-.1.6,0,1,0,0,.3,0,.8-.2,1-1.5,1-3,2.1-4.6,3-1.8,1-3.8,1.7-5.6,2.7-2.8,1.5-5.6,3-8.4,4.5-1.2.7-2.3,1.6-3.4,2.3-2.2,1.4-4.4,2.8-6.6,4.1-.2.1-.6,0-.7,0-.2-.2-.3-.7-.2-.8,1-.9,2.1-1.7,3.3-2.6Z"/>
    <path d="M162.2,83.6c2.8-2.8,6.2-4.6,9.5-6.3.3-.1.6,0,1,0-.1.3-.2.7-.5.9-2.3,1.7-4.7,3.2-7,4.9-1,.7-1.9,1.5-2.7,2.4-3.6,3.7-7.2,7.5-10.6,11.3-1.2,1.3-2.7,1-4,1.5-.1,0-.3,0-.5-.1.1-.2.2-.5.4-.5,1.7,0,2.5-1.4,3.4-2.4,2.9-3,5.8-6.2,8.6-9.3.7-.8,1.5-1.5,2.3-2.3Z"/>
    <path d="M383.4,95c.6-.3,1-.6,1.4-.8-.4,0-.8.2-1.1.1-2-.2-3.6,1-5.3,1.6-.7.3-1.6.1-2.4.1-.1,0-.3-.2-.3-.3.1-.2.2-.6.5-.7,1.4-.8,2.8-1.5,4.2-2.2.5-.2,1.3-.5,1.6-.3,1.1.8,2,.1,3,0,4,0,6.5-2.8,9.5-4.5.4-.2,1.1-.5,1.4-.3.5.3.9.9,1.3,1.4-.5.3-1,.5-1.4.8-1.6,1-3.1,2.1-4.7,3.2-.4.2-.9.8-1.1.7-1.4-.6-2.3.1-3.3.7-.6.3-1.2.6-1.8.9-.4.2-.8.5-1.2.5-.4,0-.9,0-1.3-.2.3-.3.6-.6,1.1-.9Z"/>
    <path d="M6,212.6c-1.1,2.5-2.1,5.1-3.4,7.6-1.3,2.5-1.3,2.9.6,4.9,1.8,2,3.8,3,6.5,2.2.8-.2,1.7,0,2.4-.2.6-.2,1-1,1.4-1.5.4-.5.8-1.1,1.2-1.6.2.6.7,1.4.5,1.9-.6,1.2-1,2.5-2.9,2.8-5.8,1.1-7.8.2-11.5-4.2-.8-.9-1-1.9-.3-3,1.7-3,2.9-6.4,5.6-8.9Z"/>
    <path d="M403.5,90.6c4.4-2.3,8.7-4.5,13.1-6.7,1.8-.9,3.7-1.9,5.6-2.8.3-.1.6-.2.9-.3-.2.3-.2.8-.5,1-1.5.9-3.1,1.7-4.6,2.5-2.9,1.5-5.9,3-8.9,4.6-1.8,1-3.5,2.1-5.3,3.1-.5.3-.9.6-1.5.7-.5.1-1,0-1.5,0,.4-.3.7-.6,1.1-.9.5-.4,1-.7,1.6-1.2Z"/>
    <path d="M289.4,152.7c-.2.7-.4,1.3-.4,1.9,0,.8.5.9,1.1.3.6-.7,1.3-1.4,2-2,.2-.1.9,0,.9.2.4,1.7-1.5,2.9-3.2,2.9-2.1,0-2.1-1.8-3-2.8-.1-.1,0-.6.2-.8.3-.4.7-1,1.1-1.1.6-.2.9-1.7,1.7-.6.3.4-.2,1.3-.4,2.1Z"/>
    <path d="M381.2,103c-.5-.2-1-.3-1.2-.7-.7-1.2-1.3-2.5-1.9-3.8-.2-.4-.1-.9,0-1.3.1-.2.7-.5.9-.4.4.2,1.1.7,1.1,1.1.1,1.2.4,2,1.6,2.7,1.5.8-.4,1.5-.6,2.4Z"/>
    <path d="M11.3,210.4c1-1,2-2,2.9-2.9.1-.1.4,0,.6-.1,0,.2-.2.3-.2.5.1,2-1,3-2.7,3.7-.7.3-1.3,1.1-1.9,1.6-.3.2-.8.3-1.2.5,0-.3,0-.7.3-1,.7-.8,1.5-1.5,2.3-2.3Z"/>
    <path d="M6.1,212.6c.7-1.1,1.5-2.2,2.4-3.2,1.8-2,3.6-4,5.5-6,.2-.2.5-.3.7-.4,0,.3,0,.7-.2.8-.5.6-1.1,1.2-1.7,1.7-2.2,2.3-4.4,4.7-6.7,7Z"/>
    <path d="M435.2,74.2c-.4.2-.8.3-1.2.5-.4.1-.9.3-1.3.4.3-.3.5-.8.9-1,2-1.2,3.9-2.4,6-3.5.3-.2.8,0,1.3.2-.3.3-.5.6-.9.8-1.5.9-3.1,1.7-4.7,2.6Z"/>
    <path d="M137.2,109.2c-.4-.4-.6-.8-.7-1.2-.3-1.2.2-2.6-1.2-3.4-.1,0,0-.5,0-.7.3,0,.6-.1.7,0,.4.4,1,.7,1.2,1.2.5,1,.8,2.1,1,3.2,0,.2-.5.5-1,.8Z"/>
    <path d="M285.9,158.9c0,.5-.2.9-.4,1.3-.6-.4-1.4-.7-1.9-1.2-.2-.2-.2-.8,0-1.2.3-.7.8-1.3,1.2-1.9.1-.2.5-.2.7-.2,0,.3.2.7,0,.8-1.6.9-.4,1.6.3,2.4Z"/>
    <path d="M390.4,88.9c-.8.2-1.5.4-2.1.5.5-.6.8-1.4,1.4-1.8.6-.5,1.3-.8,2-1,.3,0,.8.5,1.2.7-.3.2-.6.4-.8.6-.5.3-1,.6-1.7,1Z"/>
    <path d="M386.2,98.6c-.8-.4-1.2-.8-.3-1.3.6-.3,1.2-.6,1.8-.7.4,0,.9.4,1.3.6-.2.3-.3.8-.5.9-.7.3-1.5.4-2.3.4Z"/>
    <path d="M326.1,130.9c.7-.4.9-1.8,1.9-.8.3.3.7.7.6,1-.2.9-.8,1.4-1.7,1.1-.4-.2-.6-.8-.8-1.3Z"/>
    <path d="M242.8,184.4c.7-.5,1.4-1,2-1.3.4-.2.8-.2,1.2-.2,0,.4,0,1.1-.2,1.3-.9.5-2,.8-3,1.2,0-.3,0-.6,0-1Z"/>
    <path d="M283.5,155.2c.2-.7.3-1.3.6-1.8.2-.3.8-.7.9-.6.4.3.7.7.9,1.2,0,0-.5.4-.7.6-.5.4-.6,1.6-1.7.7Z"/>
    <path d="M232.7,190.9c.5-.2.9-.5,1.2-.4.3.1.5.6.7.9-.4.2-.7.4-1.1.6-.1,0-.3,0-.5,0-.6,0-1.2.2-1.8.3.5-.5,1-.9,1.6-1.4Z"/>
    <path d="M144.5,138c.3.3.5.6.8.8-.3,0-.6.2-.8.1-.8-.1-1.6-.3-2.3-.4.8-.2,1.5-.4,2.4-.6Z"/>
    <path d="M63.2,170.9c-.5,0-1.3,0-1.4-.2-.3-.6-.2-1.3-.3-2,.2,0,.7,0,.7,0,.4.7.7,1.4,1,2.2Z"/>
    <path d="M104.5,163.5c.1.4.1.7.2,1-.1,0-.2,0-.3,0-.7-.1-1.4-.3-2.1-.4,0-.2.2-.5.3-.5.6,0,1.3-.1,2,0Z"/>
    <path d="M288.2,149.5c.2-1.5,1.3-1.3,2.3-1.3.1,0,.3.1.4.2-.9.4-1.8.8-2.7,1.1Z"/>
    <path d="M330,130c.2-.5.6-.9.9-1.3l.8,1c-.5.2-1.1.3-1.7.4Z"/>
    <path d="M437.4,65.1c-.2.3-.4.7-.7.8-.6.3-1.3.5-2,.7.3-.4.7-.7,1-1,.1,0,.4,0,.5,0,.4-.1.7-.3,1.1-.4Z"/>
    <path d="M248.7,185.8c-.5-.2-.9-.2-1.3-.3.6-.2,1.2-.5,1.8-.7.2,0,.4.3.6.5-.4.2-.7.4-1.2.5Z"/>
    <path d="M283.5,151c-.2-.4-.3-.9-.2-1.3,0-.2.6-.2.9-.3,0,.3-.2.7-.3,1,0,.2-.2.4-.4.6Z"/>
    <path d="M288.4,158c-.1-.3-.3-.8-.2-1.2,0-.2.5-.3.8-.4-.2.5-.4,1-.7,1.7Z"/>
    <path d="M446.4,68.1c-.2,1-.9,1-1.6,1-.2,0-.5-.1-.7-.2.2-.2.4-.4.7-.5.5-.2,1.1-.3,1.7-.3Z"/>
    <path d="M289.5,143.9c1,.5.4.9,0,1.2-.2.1-.5,0-.8,0,.2-.4.4-.7.8-1.1Z"/>
    <path d="M147.8,105.6c-.4.3-.7.4-1.1.5,0-.2,0-.6,0-.6.4,0,.7,0,1.1,0Z"/>
    <path d="M367.4,102.3c.5-.2,1-.4,1.4-.5,0,.2,0,.4,0,.5-.5.2-1,.4-1.5.5,0,0-.1,0-.1,0,0,0,0-.2.2-.3Z"/>
    <path d="M91.5,138.5c0,.4,0,.8-.1,1.2-.2-.1-.5-.2-.7-.3.2-.3.5-.6.8-.9Z"/>
    <path d="M113.9,90.1c.5,0,.8,0,1.2,0,0,0,0,.4,0,.6-.4-.2-.9-.3-1.2-.6Z"/>
    <path d="M72.8,152.3c-.2,0-.6.1-.8,0-.2-.2-.2-.5-.3-.8.3.3.6.5,1.1.9Z"/>
    <path d="M68.9,154.8c0,.4,0,.8-.1,1.2-.2-.1-.5-.2-.7-.3.2-.3.5-.6.8-.9Z"/>
    <path d="M431.2,68.8c-.6,0-1,.1-1.4.2.2-.3.4-.6.7-.7.4-.1.9,0,1.4,0-.2.2-.3.3-.7.5Z"/>
    <path d="M91.8,163c-.6-.2-1-.3-1.4-.5.1-.2.3-.3.4-.5.4.3.8.7.9,1Z"/>
    <path d="M109.2,107.3c.2-.4.6-.6.9-.9.1.2.3.3.4.5-.4.2-.8.3-1.3.4Z"/>
    <path d="M294.7,147c.3,0,.6,0,.8.1-.1.2-.2.6-.3.6-.4,0-.7-.1-1.1-.2.2-.2.3-.3.6-.6Z"/>
    <path d="M293.8,147.8c0,.2,0,.3-.1.3-.5.1-1,.2-1.5.4,0,0,0-.2,0-.2.5-.2,1.1-.4,1.7-.4Z"/>
    <path d="M181.4,228.7c0,.4,0,.7,0,.9-.3-.1-.6-.3-.8-.4.3-.2.5-.4.9-.5Z"/>
    <path d="M312.6,131c0-.3.3-.6.4-.6.4,0,.8.3,1.2.4-.3,0-.7.2-1,.2-.2,0-.4,0-.6,0Z"/>
    <path d="M238.4,189.5c-.4-.1-.6-.3-.9-.5.3-.1.6-.3.8-.4,0,.3,0,.6,0,.9Z"/>
    <path d="M577.7,9.3c.4,0,.8,0,1.2,0,0,.2-.2.5-.2.5-.4,0-.7-.2-1-.4Z"/>
    <path d="M51.7,86.4c.3,0,.6,0,.8,0-.3.3-.6.6-.9.9,0-.2,0-.5,0-.8Z"/>
    <path d="M242.4,180.4c0-.3.3-.7.6-1l.4.4c-.3.2-.5.4-1,.6Z"/>
    <path d="M237.8,180.7c.2-.3.5-.4.7-.5.1.2.2.5.3.7-.4,0-.7,0-1.1-.2Z"/>
    <path d="M50,142.5c-.3.4-.5.5-.8.7,0-.2-.2-.3-.3-.5.4-.1.7-.2,1.1-.2Z"/>
    <path d="M14.2,216.2c-.3-.2-.4-.5-.5-.7.2-.1.5-.2.7-.3,0,.4,0,.7-.2,1.1Z"/>
    <path d="M580.9,4.7c.2.2.4.6.5.9-.3,0-.6,0-.8,0,0-.3.1-.6.3-.9Z"/>
    <path d="M123.4,87.8c0-.4,0-.6,0-.9.3.3.6.6.9.9-.3,0-.6,0-.9,0Z"/>
    <path d="M573.3,10.3c.2-.1.5,0,.7,0,0,.2-.2.5-.3.7-.1-.2-.3-.4-.4-.7Z"/>
    <path d="M389.9,84.8c.3,0,.6,0,.8,0,0,.2-.2.4-.3.6-.2-.1-.4-.3-.5-.5Z"/>
    <path d="M364.2,101.6c-.4,0-.6,0-.9,0,.1-.2.3-.4.4-.6.2.2.4.3.5.6Z"/>
    <path d="M201.3,212.6c-.3.3-.6.5-.9.7.3-.3.6-.6.9-.7Z"/>
  </g>
</svg>