<?xml version="1.0" encoding="UTF-8"?>
<svg id="Layer_1" xmlns="http://www.w3.org/2000/svg" version="1.1" viewBox="0 0 687.5 408.3">
  <!-- Generator: Adobe Illustrator 29.3.1, SVG Export Plug-In . SVG Version: 2.1.0 Build 151)  -->
  <g id="Shape_55">
    <path d="M404.8,331.4v56.7c0,2.3,0,2.3-2.3,2.3-5.5,0-11,.3-16.4.3-10.6.1-21.2.2-31.9.3-6.3,0-12.6.2-18.9.3-3.2,0-6.3.4-9.5.3-2.2,0-3.1.8-2.9,3,.1,1.2,0,2.5,0,3.7,0,2.9,0,5.7,0,8.6,0,.4-.2.9-.3,1.3-.5-.1-1.1,0-1.5-.4-2.1-1.4-4.1-2.8-6.2-4.2-7.5-4.7-15-9.4-22.5-14-3.5-2.2-2.9-1.9,0-3.9,3.9-2.8,8.1-5.3,12.1-8,5.8-3.9,11.5-8,17.3-11.9.3-.2.8-.3,1.1-.5.1.4.3.8.3,1.2,0,2.6,0,5.3,0,7.9,0,2.2-.2,4.4-.3,6.6,0,1.5,1.3,1.3,2.1,1.4,1.2.1,2.4-.2,3.7-.3,12.6-.1,25.2-.2,37.8-.3,3.5,0,7,0,10.4,0,5.6,0,11.1-.2,16.7-.3,1.5,0,2-1,2-2.4,0-16.7,0-33.5,0-50.2,0-2.7.3-5.3.3-8,0-12.6,0-25.2,0-37.9,0-1.4.4-1.8,1.8-1.7,2.1,0,4.2-.3,6.3-.3,1,0,1.2.8,1.2,1.7,0,5.5,0,10.9,0,16.4v15.3c0,5.1,0,10.2,0,15.3,0,.5-.2,1-.3,1.7Z"/>
    <path d="M449.1,64.7c.1-10.1.2-20.1.3-30.1,0-4.6.2-9.1.3-13.7,0-2.8,2.3-4.9,5.1-5,2.4,0,4.8-.2,7.2-.3,3.8-.2,6.1,1.8,7,6,.7,3.5,1.6,7.1,2.5,10.6,1.1,4.7,2.3,9.3,3.4,14,.2.8.2,1.6.4,2.3,0,.3.3.6.5.9.3-.3.7-.6.8-1,.3-1.1.4-2.3.7-3.4,1.9-7.2,3.9-14.4,5.9-21.6.3-1,.5-2,.7-3,.7-2.6,2.3-4.4,4.9-4.5,3.5,0,7.1-.5,10.5.6,2.5.8,3.5,3.5,3.2,5.7,0,.3,0,.6,0,1-.1,10.8-.2,21.7-.3,32.5,0,4.2-.2,8.5-.3,12.7,0,2.8-2,4.6-4.8,4.8-4.2.3-6.5-1.5-6.5-6.1,0-5.7,0-11.4,0-17.1,0-3.3.4-6.6.6-9.8,0-.6,0-1.2,0-1.8,0-.3-.3-.6-.5-1-.2.3-.4.5-.5.8-.4,1.2-.7,2.4-1,3.6-1.7,6.9-3.5,13.7-5.2,20.6-.5,2.1-.9,4.3-1.7,6.3-1.5,3.6-3.1,4.9-7.7,4.6-2.6-.2-4.9-1.4-5.9-5.2-1-3.7-1.8-7.4-2.7-11.2-.9-3.8-1.9-7.6-2.8-11.4-.5-2.2-.8-4.4-1.2-6.6,0-.4-.5-.7-.8-1-.2.4-.5.7-.5,1.1,0,1.6.3,3.1.3,4.7,0,2.6-.2,5.3-.3,7.9,0,.4,0,.8,0,1.2,0,4.9,0,9.8,0,14.8,0,2-.3,4.2-2.5,5-4.1,1.4-8.1,1.3-8.7-4-.1-1.2-.2-2.3-.3-3.7Z"/>
    <path d="M222,19.6v22.9c0,3.2,0,6.4,0,9.6,0,3,.3,5.9.3,8.9,0,2.3,0,4.6-.9,7-1,2.6-2.8,3.2-5,3.4-5,.6-7.9-2.4-10.3-6.1-3.5-5.4-6.9-10.9-10.3-16.3-2.7-4.3-5.5-8.6-8.3-12.8-.2-.4-.7-.6-1.1-.9-.2.5-.6.9-.5,1.4,0,1.7.2,3.3.3,5,0,.8-.3,1.7-.3,2.5,0,6.9.2,13.7.3,20.6,0,3.8-2.1,6.1-5.9,6-1.3,0-2.7-.2-3.8-.7-2.2-1.1-2.8-3.3-2.8-5.6,0-8,0-15.9,0-23.9,0-7.5-.3-15-.3-22.5,0-4.4,2.7-7.3,7.1-7,1.5,0,3,.3,4.5.8,2.6.8,3.3,3.5,4.7,5.5,4.7,6.9,9.2,13.9,13.7,20.8,2,3.1,3.9,6.2,5.9,9.3.2.4.6.6.9.9.1-.4.4-.9.4-1.3,0-2.8-.3-5.5-.3-8.3,0-4.6,0-9.2,0-13.8s0-5.5,0-8.2c0-3.2,1.9-5.1,5.1-5.2,2.2,0,4.4.1,5.7,2.1,1.2,1.7,1.2,3.7,1.1,5.8Z"/>
    <path d="M199.6,128.8c1.5,3.2,3.1,6.3,3.5,9.8.2,1.2.6,2.5.5,3.7,0,3.8,0,7.7-.4,11.5-.4,4.6-2.2,8.9-5,12.7-3,4.1-7.2,6.7-12.1,8-2.4.7-4.9,1.2-7.4,1.3-4.7.2-9.3.3-13.9-1.3-4.1-1.4-7.7-3.3-10.7-6.6-2.8-3.1-4.7-6.6-5.8-10.6-.6-2.3-.9-4.7-1.2-7.1-.2-1.6-.4-3.2-.3-4.8.3-3.4.4-6.8,1.5-10.1,1.4-4.3,3.3-8.3,6.5-11.4,3.4-3.2,7.4-5.5,12.2-6,3.6-.4,7.3-.8,11-.6,6.1.3,12,1.8,16.6,6.2,1.7,1.6,3.1,3.5,4.8,5.4M184.7,161.7c.5-.4,1-.6,1.4-1.1,3.5-4.4,4.5-9.7,4.5-15.2,0-1.8-.5-3.7-1-5.6-.9-3.9-2.9-7.3-6.2-9.5-4.1-2.8-8.6-3.8-13.5-1.6-3,1.4-5.4,3.2-6.9,6.2-2.4,4.8-3.3,9.7-2.4,15.1.9,4.9,2.4,9.3,6.5,12.4,5.7,4.4,12.2,3.8,17.5-.8Z"/>
    <path d="M250.6,70.4c-4.6-1.4-8.5-3.5-11.8-7-3-3.3-5-7.1-6.1-11.3-.6-2.3-1.2-4.7-1.2-7.1,0-4,.2-8,.6-12,.5-4.5,2.6-8.4,5.5-11.8,2.5-3,5.5-5.3,9.2-6.5,2.9-1,5.9-1.6,8.9-2,2.6-.3,5.2-.2,7.8,0,5.7.2,11,1.9,15.3,5.8,3.2,2.9,5.2,6.2,5,10.7-.1,3.1-2.4,4.7-4.8,5-3.2.4-5.5-.8-7.3-3.7-1.6-2.6-3.3-5.4-6.4-6.5-8.8-3.3-16.9.9-19.6,9.8-.7,2.4-1.3,4.9-1.3,7.4,0,4.6.6,9.2,3.3,13.2,2.4,3.6,5.7,5.9,10,6.7,5.4,1,10.4-.4,15.1-3,.2,0,.4-.1.5-.3.6-.6.9-6.1.3-6.8-.3-.3-.7-.5-1.1-.6-2.9-.2-5.8-.2-8.6-.4-1.3-.1-2.6-.5-3.7-1-.6-.3-1.1-1.2-1.2-1.9-.2-1.3,0-2.6,0-4,0-1.2,2.4-3,3.9-3,4.1,0,8.2,0,12.3,0,2.2,0,4.4.2,6.5.7,3.1.7,3.7,2.8,3.8,4.9.1,5.1,0,10.2,0,15.3,0,2.4-1.6,3.9-3.3,4.9-4.2,2.5-8.7,4.5-13.5,5.3-3.3.5-6.8.5-10.1.4-2.6,0-5.2-.7-7.9-1.2M272,62.2c-.2-.3-.4-.5-.6-.8-.3.3-.5.6-.7,1,0,.1.2.4.3.6.3-.2.6-.4,1-.8Z"/>
    <path d="M63.3,28.9c-.1-2.1-.5-4-.3-5.8.4-3.5,1.8-6.5,4.5-8.9,3.2-2.7,6.9-4.3,11.1-4.5,3.3-.2,6.6-.5,9.8-.3,4.3.3,8.5,1,12.1,3.6,2.9,2.1,5.7,4.4,6.3,8.2.5,2.9,1.1,6-1.7,8.2-.6.4-1.4.6-2.1.8-.3,0-.7,0-1,0-3.6.7-5.6-1.3-7.1-4.2-1.3-2.4-2.7-4.8-5.4-6-2.9-1.4-9.3-.8-11.6,1.4-3.2,3.1-2.1,5.7,1.3,7.4,3,1.6,6.4,2.4,9.7,3.4,5.2,1.5,10.6,2.7,15.1,5.9,3.1,2.2,5.1,5.1,5.8,8.7.8,4.5.7,9.1-1.6,13.3-1.4,2.5-3.4,4.4-5.9,5.9-5.9,3.6-12.3,3.9-18.9,3.6-5.7-.2-11-2-15.3-5.8-4.1-3.7-6.6-8.4-5.7-14.3.2-1.6,2.7-3.6,4.6-3.7,3.2-.2,5.7.5,7.4,4.1,1.1,2.3,2.4,4.5,4.1,6.4,2.7,3.1,6.4,3.6,10.3,2.8,1.3-.3,2.6-.7,3.8-1.2,2.4-.9,3.5-3,4.3-5.3.4-1.2-1.3-4-2.9-5.1-2.7-1.9-5.8-2.6-8.9-3.3-5-1.1-10-2.6-14.5-5.1-3.8-2.1-6.4-5.5-7.2-10.2Z"/>
    <path d="M479.4,168.8v-3.5c0-6.7,0-13.4,0-20.1,0-1.6.3-3.2.3-4.8,0-5.2-.1-10.4,0-15.6.1-3.7,2.1-6.3,6.4-6.3,1.9,0,4-.3,5.4,1.2,1.2,1.2,2.1,2.8,3,4.2,3.1,4.7,6.1,9.4,9.1,14.1,2.7,4.2,5.2,8.5,7.9,12.8.4.6.8,1.2,1.2,1.8.2.3.5.6.7.8.1-.4.4-.8.4-1.2,0-2.5,0-5,0-7.5,0-3.8.2-7.6.3-11.5,0-3.2,0-6.3,0-9.5,0-3.6,2.4-5.8,5.5-5.5,1.5.2,3.2-.1,4.3,1.1,1.7,1.8,1.9,4.1,1.7,6.5,0,.4-.2.8-.2,1.2-.1,12.4-.2,24.9-.4,37.3,0,2-.2,4-.3,6-.2,2.1-2.4,5-5.2,4.6-1.4-.2-3,.4-4.2-.1-1.6-.7-3.2-1.8-4.2-3.2-5.4-8.4-10.7-16.9-16-25.4-.9-1.4-1.7-2.8-2.7-4.2-.2-.3-.6-.5-1-.8-.1.5-.3.9-.3,1.4,0,2.8,0,5.6,0,8.3,0,3.2-.2,6.3-.3,9.5,0,2.9,0,5.9,0,8.8,0,2.7-1.6,5-4,5.9-2.1.8-5.1,0-6.5-1.6-1.3-1.4-1-3.1-1-4.9Z"/>
    <path d="M260.4,168.8c0-14.8,0-29.5,0-44.1,0-3.5,2-5.9,5.2-6,1.6,0,3.2,0,4.9,0,5.1,0,10.3-.2,15.4,0,3,.1,6.1.4,8.9,1.4,2.9,1.1,5.5,3.1,7.6,5.7,2.3,2.8,4,5.9,5,9.4.6,2.3,1.1,4.7,1.2,7.1.1,3.9,0,7.8-.3,11.6-.5,4.9-2.2,9.3-5.4,13.2-2.1,2.5-4.5,4.4-7.4,5.6-1.9.8-4,1.5-6,1.5-7.8.3-15.6.4-23.4.3-3.5,0-5-2-5.2-4.4,0-.5-.2-.9-.3-1.5M290.2,162c1.9-1.7,3.2-3.7,4-6.1,1.1-3.4,1.6-6.8,1.4-10.4-.2-2.9-.2-5.7-1.4-8.4-1.6-3.4-4-6-7.8-7.1-3.7-1-7.5-1-11.4-1-1.6,0-2.1.7-2.1,2.1,0,10.7,0,21.4,0,32.1,0,1.3.8,1.8,1.9,1.5.5-.1.9-.2,1.4-.2,1.8,0,3.6.4,5.4.3,2.9-.2,5.9-.8,8.5-2.8Z"/>
    <path d="M147.3,69.3c-6.1,0-12.1,0-18.1,0-1.8,0-3.6-.3-5.4-.7-2.8-.6-4.4-2.8-4.4-5.5,0-2.4,0-4.8,0-7.1,0-3.8-.3-7.6-.3-11.4,0-2.5.3-4.9.3-7.4,0-5.9-.2-11.9-.3-17.8,0-1.6,0-3.2.4-4.7.6-2.5,2.5-3.7,5-3.7,3.2,0,6.4,0,9.6,0,7,0,14.1.2,21.1.4,1.8,0,3.7.2,5.4.7,2.6.6,3.5,3.1,3.1,5.7-.5,3.4-2.7,4.2-5.6,4.2-8,0-15.9-.1-23.9-.3-1.5,0-1.9.4-1.8,1.8.1,2.8,0,5.5,0,8.3,0,1.8.4,2.1,2.1,2.2,7.3.1,14.5.2,21.8.4,1.6,0,3.2.4,4.4,1.8,1.4,1.8,1.4,3.8.9,5.8-.5,1.7-2,2.6-3.9,2.6-3.9,0-7.9,0-11.8,0s-7.6,0-11.4,0c-1.3,0-1.7.4-1.6,1.7,0,3.6,0,7.2,0,10.8,0,1.3.5,1.8,1.8,1.8,7.3,0,14.6,0,21.9,0,1.9,0,3.8.3,5.7.7,1.8.4,2.8,1.9,2.8,3.8,0,1.8.4,3.6-1.3,5.1-1.3,1.1-2.8,1.4-4.3,1.4-3.9,0-7.9-.2-12-.3Z"/>
    <path d="M454,174.1c-4.8,1.8-9.8,1.8-14.6,1.3-7.9-.7-14.5-4.1-18.6-11.2-2-3.4-3.1-7.1-3.6-11.1-.7-6.6-.6-13.2,1.8-19.4,2.7-7.2,7.8-12.1,15.3-14.2,2.1-.6,4.3-.9,6.5-1,4.2-.1,8.4-.3,12.5.9,5.7,1.6,10,4.8,13.1,9.8,2.4,4,3.7,8.4,4,13.1.4,5.8,0,11.4-1.7,16.9-.9,2.9-2.5,5.5-4.4,8-2.7,3.4-6.3,5.1-10.2,6.8M433.2,160c.6.6,1.2,1.3,1.9,1.9,2.4,2.3,5.3,3.6,8.6,3.6,3.3,0,6.2-1.4,8.6-3.6,4.2-3.8,5.5-8.8,5.7-14.2,0-3-.4-6.1-1.3-9-1.7-5.6-5.5-9.2-11.4-9.9-5.3-.7-10.5,1.9-13.3,7.4-2.5,5-2.9,10.3-2,15.8.5,2.8,1.4,5.5,3.3,8.1M428.2,132.8c-.1.2-.2.4-.3.7.3,0,.7,0,.9-.3.2-.2.2-.6.3-.9-.2.1-.4.2-.8.5Z"/>
    <path d="M14.5,43.2c1.1,7.1,4,12.1,11.3,14.2,8,2.3,14-3.2,16.3-9.4.5-1.4.8-3,2.4-3.8.4-.2.9-.4,1.3-.4,1.2,0,2.3,0,3.5,0,2.8-.3,4.9,2.5,5.1,4.7.3,3.8-.9,7.3-3,10.5-3.2,5-7.9,7.6-13.4,9.1-1,.3-2,.6-3.1.6-4.5,0-9,.5-13.5-.6-5.1-1.3-9.7-3.4-13.3-7.6-2.8-3.2-5-6.6-6.1-10.6-.8-2.9-1.2-5.8-1.6-8.8-.2-1.4-.4-2.9-.3-4.4.3-6.7,1.5-13.1,5.7-18.5,3.5-4.5,8-8,13.7-9.1,3.5-.7,7.2-1.1,10.8-1,6.6.2,12.6,2.5,17.6,7.1,2.7,2.5,4.9,5.2,5.6,8.8.4,1.9.3,4.1-.4,6-.9,2.4-4,3-6.7,2.6-3.2-.5-4.1-3.1-5.6-5.2-2-2.8-3.8-5.7-7.2-7-2.7-1.1-5.2-1.5-8.1-.8-6.3,1.5-9.1,6-10.6,11.6-.6,2.4-.8,5-1,7.5,0,1.5.3,3.1.5,4.7M17.9,58.9c0-.3,0-.7,0-1-.1-1-.2-2-.4-3,0-.2-.7-.3-1.1-.5,0,.3.2.5.1.8-.1,1.8,1,3.7-.4,5.5-.2.2.3,1,.5,1.6.3-.3.8-.5.9-.9.2-.7.3-1.4.4-2.5M11.9,26.4c-.2,0-.6,0-.6,0,0,.9-.1,1.9,0,2.8,0,.4.7.6,1.1,1,.2-.4.5-.8.4-1.1-.2-.8-.6-1.6-1-2.7M8.6,37c-.3-.2-.7-.4-1-.6,0,.4,0,.9,0,1.2.3.6.8,1.2,1.2,1.8,0-.7,0-1.5-.2-2.4M21.2,65.2c-.3-.2-.6-.5-.8-.4-.5,0-.9.4-1.3.6,0,0,0,.5.2.5.4.1.9.2,1.3.2.2,0,.4-.4.6-.9M3.3,32.7c.3-.3.7-.6,1-1,0-.1-.3-.5-.4-.8-.2.5-.4,1-.5,1.8M7.8,19.9c0-.3,0-.7,0-1-.3.4-.6.9-.8,1.3,0,.2.1.4.2.7.1-.3.3-.6.6-1M48.4,52.2c0,.2,0,.5,0,.6.1.3.4.5.6.8,0-.3.2-.7.1-1,0-.2-.3-.4-.7-.4M24.9,16.4c-.1-.2-.3-.3-.4-.5,0,.2-.2.4-.3.7.2,0,.4.1.7-.2M20.9,18.4c-.2.2-.4.3-.7.5,0,.1.2.2.3.3.1-.2.3-.3.4-.8Z"/>
    <path d="M319.4,72.6c-6.1-.4-11.8-2-16.5-5.8-4-3.3-6.8-7.5-8.1-12.7-1.1-4.2-1.8-8.3-1.5-12.6.3-4.6.7-9.2,2.9-13.4,1.2-2.3,2.9-4.4,4.4-6.5,2.7-3.6,6.5-5.6,10.7-6.8,4.3-1.2,8.6-1.2,13.1-.7,2.9.3,5.7.9,8.2,2.2,6.8,3.4,11.2,8.9,13.4,16.2,1.6,5.4,1.6,10.9,1,16.4-.4,4-1.5,7.6-3.4,11.1-3.3,6.1-8.5,10-15.2,11.6-2.9.7-5.9.7-9,1.1M307.6,31.2c-.4.9-.8,1.9-1.2,2.8-1.2,3.8-1.5,7.6-1.3,11.5.1,3.1.7,6,2.1,8.7,2.9,5.3,7.3,8.1,13.5,8.1,5.1,0,8.8-2.3,11.7-6.2,2.5-3.4,3-7.4,3.2-11.4.2-2.9-.1-5.8-.7-8.7-.7-3.9-2.6-7.3-6-9.6-3.2-2.2-6.7-2.8-10.5-2.4-4.8.5-8.1,2.9-10.7,7Z"/>
    <path d="M671.5,40.6c3.3,5,6.6,9.8,9.8,14.8,2,3.1,3.9,6.2,5.5,9.5.7,1.6.9,3.7.5,5.4-.3,1.3-1.9,2.9-3.1,3.1-2.4.5-5.2.9-7.4-.9-1.1-.9-2-2.1-2.7-3.3-2.3-3.8-4.4-7.7-6.7-11.5-1.5-2.5-3.1-5-4.7-7.5-.7-1.1-1.7-1-2.6-.3-1.9,1.7-3.8,3.5-5.6,5.3-.4.4-.7,1.2-.7,1.8-.2,3.7-.1,7.3-.4,11-.2,2.8-1.6,5.7-5.8,5.6-1.6,0-3.1-.1-4.5-1.2-1.5-1.2-1.9-2.8-1.9-4.5,0-6.8.2-13.5.3-20.3,0-4.4.2-8.9.3-13.3.1-4.1.2-8.2.3-12.3.2-3.9,2.2-5.6,6.1-5.9,4.1-.3,6.3,2.4,6.1,6.2-.1,2.8,0,5.5,0,8.3,0,2.6-.2,5.1-.3,7.7,0,.5.3,1,.5,1.5.3-.3.7-.7,1-1,.3-.4.6-.9,1-1.3,4.4-4.5,8.7-9,13.1-13.5,1.9-2,3.8-3.9,5.6-6,2-2.2,7.3-2.4,9.5-.1,1.5,1.6,1.4,3.6,1,5.6-.6,3.4-3.6,5-5.6,7.3-1.6,1.7-3.3,3.2-5,4.7-1,.9-1.9,1.7-2.9,2.6-.8.7-1.2,1.4-.6,2.5Z"/>
    <path d="M588.7,63.7c3.8-1,7.1-2.2,8-6.5.3-1.3,0-2.4-.8-3.5-2.2-2.6-5.3-3.5-8.4-4.2-4.7-1.1-9.4-2.3-13.7-4.7-4.4-2.5-6.8-6.1-7-11.2-.1-3.4.2-6.6,2-9.6,1.8-3,4.4-5,7.5-6.4,5.2-2.3,10.8-1.8,16.2-1.6,5,.2,9.2,2.4,12.5,6.1,2.6,2.9,3.4,6.5,2.2,10.3-.6,2-2.2,3.2-4.3,3.4-2.7.3-4.9-.3-6.2-3-.8-1.6-1.8-3.1-2.8-4.6-1.8-2.7-5.6-3.5-8.3-2.8-1.8.5-3.7,1.4-5.2,2.6-2.8,2.3-1.5,5.1.9,6.6,3.3,2,7.1,2.5,10.8,3.6,4.1,1.2,8.3,2.3,11.8,4.8,2.9,2.1,4.6,5,5.2,8.8.5,3.5.3,6.8-.8,10-1.2,3.3-3.2,6.1-6.3,8-3.5,2.1-7.2,3.3-11.3,3.7-5.2.5-10.2.3-14.9-1.8-5.7-2.4-9.6-6.4-10.2-12.9-.1-1.2,0-2.4,0-3.5.1-2,1.4-3.2,3.2-3.7,3.5-1,6.4,0,7.8,3.7,1.2,3.1,2.5,6.5,6,7.8,1.8.7,4,.5,6.1.8Z"/>
    <path d="M389.4,58.7c-2.3-.4-2.7,1-3.3,2.5-1.3,3.2-2.6,6.4-4,9.6-.3.7-1.2,1.3-1.9,1.6-2.8,1.2-6.9.1-8.1-2.6-.7-1.7-.8-4-.3-5.8,1.2-3.9,2.9-7.6,4.4-11.4,2.2-5.7,4.4-11.4,6.7-17.1,2-5.1,4.2-10.2,6.2-15.3,2.6-6.5,7.3-6.8,12.6-5.1,2.6.8,3.8,3.2,4.7,5.6,2.9,7.4,5.6,14.8,8.5,22.2,2.5,6.6,5.1,13.2,7.6,19.9.9,2.4,1.3,5-.1,7.5-1.4,2.5-3.7,3-6.3,2.8-2-.2-3.5-1.1-4.3-3-1.3-3.1-2.4-6.3-3.7-9.4-.6-1.4-1.7-1.9-3.2-1.9-5.1,0-10.2,0-15.4,0M391.2,46.8c-.2.4-.5.8-.4,1.1.2.5.6,1.1,1,1.2,3.4,0,6.9,0,10.3,0,1.3,0,1.7-.3,1.2-1.6-.8-2.5-1.7-4.9-2.5-7.4-.9-2.9-1.9-5.7-2.8-8.6,0-.3-.4-.4-.6-.7-.2.3-.6.6-.7.9-1.8,4.9-3.6,9.9-5.5,15Z"/>
    <path d="M355.3,142.2c1.9,4.6,3.7,9.2,5.6,13.7,1.3,3.2,2.7,6.4,4,9.6.9,2.4,1.1,4.8,0,7.2-1.1,2.4-3.2,2.7-5.5,3-2.3.2-4.2-.7-5.2-2.7-1.4-2.8-2.6-5.7-3.7-8.6-.9-2.4-1-2.6-3.4-2.6-5.4,0-10.7,0-16.1,0-1.3,0-2,.4-2.4,1.8-1.2,3.2-2.4,6.3-3.9,9.3-1.5,3-4.5,3.8-7.6,2.4-2.2-1-3.3-2.5-3.4-5-.1-3.2,1.3-5.9,2.4-8.7,1.5-4,3.1-8,4.7-12,1.9-4.8,3.8-9.6,5.7-14.4,1.6-4.1,3.1-8.2,4.8-12.3,1.2-2.9,3.3-4.9,7.1-4.9,1.3,0,2.6-.1,3.8.1,4,.8,5.4,4,6.7,7.3,1.6,4.1,3.3,8.2,4.9,12.4.5,1.4.9,2.8,1.4,4.3M337.8,152.2c.4-.1.8-.3,1.2-.3,1.9,0,3.8.2,5.7.3,1.1,0,1.5-.3,1-1.4-1.2-2.9-2.2-5.9-3.3-8.9-.7-2.1-1.4-4.2-2.1-6.2-.2-.5-.4-.9-.6-1.3-.3.4-.8.7-1,1.1-1.1,3-2.1,6.1-3.2,9.1-.7,1.9-1.3,3.8-2,5.6-.6,1.8-.4,2,1.4,1.7.8-.1,1.7.2,2.8.3Z"/>
    <path d="M520.1,37.2c2.1-5.3,4.1-10.5,6.3-15.6,1.5-3.5,3.1-6.1,8.3-6,5.3.1,7.1,1.3,9,6.4,3.7,9.9,7.3,19.7,11,29.6,1.5,4.1,3.3,8.2,4.6,12.3.5,1.7.6,3.7.3,5.4-.6,2.9-2.3,3.7-5.2,4-3.3.3-5.2-1-6.3-4-.5-1.4-1.1-2.7-1.6-4.1-.5-1.3-.9-2.7-1.4-4.1-.5-1.2-1.3-1.8-2.7-1.8-5.4,0-10.7,0-16.1,0-1.2,0-2,.4-2.4,1.8-1.2,3.2-2.6,6.3-3.9,9.5-.8,1.9-2.2,2.9-4.4,2.7-1.5-.2-3,.1-4.4-.9-1.4-1-1.9-2.2-2.1-3.8-.3-2.6.6-5,1.5-7.3,2.5-6.2,4.9-12.4,7.4-18.6.7-1.8,1.5-3.6,2.3-5.5M533.6,34.3c-.5,1.2-1.1,2.3-1.5,3.5-1.4,3.7-2.8,7.4-4.1,11.1,0,.3.3,1,.5,1,3.8,0,7.6-.2,11.3-.2,1.5,0,.8-1,.7-1.4-1.7-4.9-3.4-9.9-5.1-14.8-.2-.6-.6-1.1-.9-1.7-.3.6-.7,1.2-1,1.8,0,0,0,.2,0,.7Z"/>
    <path d="M212.6,149.6c0-8.9,0-17.6,0-26.4,0-3.7,2.8-6.1,5.8-5.8.9,0,1.9,0,2.8.2,3.2.9,4.3,2.3,4.3,6.2.2,12.7,0,25.4,0,38.1,0,2.5,0,2.4,2.5,2.4,3.7,0,7.4,0,11.1,0s5.9,0,8.8,0c3.1,0,4.8,1.1,5.6,3.6,1.2,4-.9,7.1-5,7.1-10.1,0-20.1,0-30.2,0-3.1,0-5.2-1.8-5.3-4.8-.2-6.7-.2-13.5-.4-20.4Z"/>
    <path d="M398.7,164.2c2.9,0,5.7,0,8.5,0,4.8,0,6.6,3.3,5.5,7.5-.6,2.3-2.7,3.1-4.9,3.1-9.7.1-19.4,0-29.2,0-3.3,0-5.7-2.5-5.7-5.8,0-7.7,0-15.4,0-23,0-4,.3-7.9.3-11.9,0-1.9-.4-3.8-.3-5.7.1-2.4.5-4.8.9-7.1.3-1.7,1.7-2.7,3.3-3,2.6-.5,5.1-.6,7.1,1.6,1.2,1.3,1.5,2.9,1.3,4.7-.1,1.1.3,2.2.3,3.3,0,11.5-.2,23-.3,34.6,0,1.2-.2,1.9,1.7,1.7,3.8-.4,7.6-.1,11.6-.1Z"/>
    <path d="M630.8,39.5c0,3.1,0,6,0,9,0,4-.2,8.1-.3,12.1,0,2.5-.1,5-.4,7.5-.3,2.8-2.2,5.6-5.6,5.6-4.6,0-5.7-1.8-6.5-4.4-.1-.4-.1-1-.1-1.4.1-7,.2-14.1.3-21.1,0-4.6.2-9.2.3-13.8,0-3.4.2-6.8.4-10.1,0-1.2.4-2.5.8-3.6,1.1-2.8,4-4.1,7-3.2,3,.9,4.3,1.6,4.4,5.3.1,4.8-.2,9.6-.3,14.3,0,1.2,0,2.4,0,3.8Z"/>
    <path d="M548,119c1.9,1.3,2.1,3.3,2.2,5.2.1,2.8.2,5.6,0,8.4-.3,3.6-.9,7.1-1.3,10.7-.3,2.4-.4,4.9-.7,7.3-.2,1.5-.4,3.1-.9,4.6-.9,2.5-2.1,3-5.4,2.6-1.2-.1-2.4-1.6-2.6-3.6-.3-3.2-.5-6.3-.7-9.5-.3-4.6-.5-9.2-.7-13.8,0-2.7,0-5.3,0-8,0-2.3,1.4-3.9,3.7-4.2,2.1-.2,4.2,0,6.4.2Z"/>
    <path d="M534.9,13.2c-2,.4-4,.8-6,1-1.3.1-2.2-1.1-1.6-2.4,1.4-2.8,2.8-5.5,4.5-8,.6-.8,2.1-1.3,3.3-1.4,2.2-.2,4.4-.2,6.6,0,.8,0,1.9.5,2.3,1.1.3.4-.1,1.7-.6,2.2-2.7,2.6-5.6,5-8.5,7.6Z"/>
    <path d="M537.3,167.2c1.2-5.3,8.9-5.8,11.6-1.8.4.6.6,1.3.7,2,.1.8,0,1.5,0,2.3,0,3.3-2.2,5.5-5.5,5.4-1.5,0-3-.2-4.3-.7-1.6-.6-2.5-2-2.4-3.9,0-1,0-2.1,0-3.3Z"/>
    <path d="M320.1,4.4c-1.4,1.5-2.7,2.9-3.9,4.3-.8,1-1.8,1.4-3.1,1.3-1.2,0-2.3,0-3.5,0-1,0-1.5-.3-1-1.4,1.3-2.6,2.5-5.3,3.8-7.8.2-.4.8-.7,1.2-.7,2.9,0,5.7,0,8.6,0,.4,0,.7.3,1.1.5-.2.3-.3.6-.6.9-.8,1-1.7,1.9-2.6,3Z"/>
    <path d="M332.7.3c1.4,0,2.7,0,4,0,.3,0,.6.3,1,.4-.1.3-.2.6-.4.8-1.8,2-3.8,3.9-5.5,6-1.2,1.4-2.2,2.7-4.4,2.4-1.1-.1-2.2.2-3.3.3-.8,0-1.7.2-1-1.2,1.2-2.5,2.2-5.1,3.4-7.5.4-.8,1.2-1.3,2.3-1.2,1.3.1,2.5,0,4,0Z"/>
    <path d="M662.1,81.4c.6,0,1,.2,1.5.4-.2.2-.4.5-.5.5-.5,0-1-.3-1.4-.5.1-.1.2-.2.4-.4Z"/>
    <path d="M485.6,85.3c.2.2.4.5.5.8-.3,0-.5,0-.8,0,0-.3.1-.5.3-.9Z"/>
    <path d="M271.4,99.8c.2-.2.4-.4.6-.6,0,.1.2.3.3.4-.3,0-.6.1-.9.1Z"/>
    <path d="M33.9,153.3c-.2-.1-.3-.3-.4-.5.2,0,.3-.1.5-.2,0,.2,0,.4,0,.7Z"/>
    <path d="M377.3,202.6c-.2-.1-.3-.4-.4-.6.2,0,.3-.1.5-.2,0,.2,0,.5,0,.8Z"/>
  </g>
</svg>