<?xml version="1.0" encoding="UTF-8"?>
<svg id="Layer_1" xmlns="http://www.w3.org/2000/svg" version="1.1" viewBox="0 0 1019.6 427.4">
  <!-- Generator: Adobe Illustrator 29.3.1, SVG Export Plug-In . SVG Version: 2.1.0 Build 151)  -->
  <g id="Shape_89">
    <path d="M453.1,87.6c.4.3.9.7,1.1,1.2.5,1.1.7,2.2,1.2,3.2.4,1,1.1,1.9.1,3.1-.3.4-.3,1,.6,1.6,2.8,1.9,3.4,6.9,1.5,9.9-.4.6-1.1.8-1.7,1.3-1.2,1-1.2,1.8,0,2.8,1.3,1.1,2.8,2.1,4.2,3,.1,0,.6-.2.8-.4,1.9-1.6,1.9-1.6,3.1.7,3,5.8,5.3,11.8,7.5,17.9.3.7.8,1.4,1.1,2.1,2.1,5,4.5,9.9,6.1,15.1.4,1.5.2,3.2,1.8,4.2.3.2-.2,1.6-.5,2.4-.2.6-1.1,1.4-1,1.5.7.8,1.7,2,2.5,2,1.7,0,2.4,1.2,2.5,2.1.4,2.7,1.6,5.2,3.1,7.4,1,1.5.2,2.3-.5,3.3-.3.4-.6.8-.9,1.1-1,.9.6,1.4.4,2.2.6,0,1.4,0,1.7-.3,1.3-1.5,1.7-.2,2,.6,1.4,3.4,2.6,6.8,3.9,10.2.8,2.1,1.8,4.1,2.6,6.1.7,1.8.9,3.9,1.8,5.6.7,1.3,1.3,2.5,1.9,3.8.9,2,1.4,4.1,1.5,6.3,0,.6.5,1.6.9,1.8,2.3.6,3.5,3.5,6.3,3,.2,0,.4.5.6.6.7.2,1.5.7,2.1.5,2.7-1.1,4.5.5,6.2,2.1.4.3.5,1,.6,1.5,0,1.4,0,2.9,0,4.3,0,1-1.2,1.9-2.2,1.8-1.6-.1-3.2-.4-4.7-.4-1.8,0-3.5-.2-5.1-.8-.7-.3-1.4-.3-2.2-.3-2.7,0-5.4-.2-8.2-.1-5,.1-10-.3-15-.5-.5,0-1,0-1.4,0-1.8,0-2.3-.2-3.2-1.7-.1-.3-.5-.4-.7-.6-.1.3-.4.6-.4.9-.4,1.7-.3,1.5-2.3,1.5-4.8-.2-9.5-.8-14.3.5-1.5.4-3.2-.1-4.8-.2-.3,0-.5-.2-.7-.3-.8,0-2.3.2-2.4-.2-.4-.9-.2-2-.3-3.1,0-1.2,0-2.5,0-3.7,0-1.2.6-1.6,1.7-1.7,3.4-.1,6.8-.6,10.1-.5,4.6,0,5.9-2.5,4.4-6.5-.8-2.2-1-4.5-2.3-6.6-.9-1.5.7-3.6-1.3-5.4-1.3-1.2-1.8-3.4-2.5-5.2-.8-2.1-1.5-4.2-2-6.4-.2-1.1.2-2.4.4-3.6,0-.3,0-.8-.1-1-1-.8-2-1.7-3.1-2.3-1-.5-2.1-1.2-3.3-.1-.4.3-1.6-.1-2.2-.5-.8-.6-1.5-.8-2.2,0-1.3,1.3-2.9.8-4.3.5-1.9-.5-3.6-.4-5.5,0-.9.2-1.9-.3-2.8-.3-3,0-6,0-8.9,0-1.1,0-2.3.4-3.1-.8,0-.1-.4-.1-.6,0-2.1,1.1-4.1.7-5.9-.7-.2-.2-.9,0-1.1.3-1.1,1-2.1,1.1-3.6.8-1.4-.4-3.1-.2-4.6,0-2.4.2-4.1-.5-4.9-2.9-.1-.4-.7-.7-1-1-.4.5-1,.7-.5,1.6.3.6.2,1.6,0,2.3-1.2,3.4-2.4,6.7-3.7,10-.7,1.9-1.6,3.8-2.3,5.7-1.2,3.6-2.3,7.3-3.5,10.9-.1.4-.3.8-.5,1.2-1.5,3.3.7,7,4.4,7.3,2.4.2,4.9.3,7.2.6,1.7.2,3.1,1.5,5,1.1.2,0,.5.2.6.4.7,2.4.1,4.9,0,7.3,0,.6-1.5,1.6-2.1,1.4-3.4-.9-6.8-.9-10.2-1.1-2.3-.1-4.5-1.1-6.8-1.5-.8-.2-1.8-.3-2.5,0-4.3,1.2-8.7.6-13,.4-2.5-.2-5-.4-7.6-.4-1.6,0-3.1.5-4.7.5-1.7,0-2.5-.9-2.6-2.6,0-1.4.2-2.9,0-4.3-.3-1.7.8-2.2,2-2.3,2.6-.2,5.2-.2,7.8,0,1.9.1,3-.4,3.9-1.8,2.8-4.8,4.8-9.9,6.8-15,1.3-3.2,3-6.2,4.3-9.4,1.3-3.1,2.8-6.1,4.1-9.3.9-2,1.6-4.2,2.2-6.3.4-1.3,1-2.6,2.1-3,.8-.3.8-.6.8-1.2-.1-3.1,0-3.8,1.9-6.2.2-.2.4-.4.4-.7.4-4,2.5-7.4,4-11,1.3-2.9,2.2-6,3.5-8.9.8-1.9,1.9-3.6,3.1-5.3.3-.5,1.3-.5,2-.7,1.1-.3,2.5-.2,3.4-.8,1-.8,1.6-2.2,2.3-3.3,0-.1,0-.4-.2-.6-.5-.6-1-1.2-1.6-1.6-2.2-1.2-2.2-2.9-1.4-5,1.1-3,3.4-4.8,6.6-4.8,1,0,2.1.5,2.9-.5.3-.4.8-.7,1.2-1-.4-.4-.7-.9-1.2-1.3-1.1-.8-2.3-1.4-3.4-2.2-.8-.6-1.4-1.2-.7-2.6,1.6-3.2,2.8-6.5,4.1-9.8,1.2-3,2.4-6.1,3.6-9.2.6-1.5.6-3.4,2.6-4.1.5-.2.7-1.4.8-2.2.3-3.1,1.3-5.9,3.1-8.5.4-.6.5-1.4,1-1.9.4-.5,1.4-1.2,1.7-1,1.7,1,3.5.3,5.3.5,2.5.2,5,.5,7.5.6,1.7,0,1.9,1.4,2.1,2.5.2,1,.5,1.7,1.2,2.4,1.1,1.1,1.3,3.8.3,4.9-.7.8-.9,1.6-.9,2.6,0,2.3-.4,4.7,1.2,6.7.4.5.7,1.1,1.2,1.5,1.1.8,2.9,0,2.5-1.3-.3-.9.9-1.1.3-1.8M419.9,166.4c0-.3.2-.6.2-.9-.1,0-.3,0-.4,0,0,.3,0,.7-.4,1,0,.2,0,.4,0,.5.1-.2.2-.4.6-.5M421.4,124.1c-1,2.3-1.9,4.6-2.9,6.9-.6,1.4-1.2,2.8-1.7,4.2-.8,2.3-1.6,4.5-2.3,6.8-.6,2-1.7,3.7-2.6,5.5-1.4,2.5-2.5,5.1-3.7,7.7-.8,1.8-1.6,3.6-2.3,5.4-.1.3,0,.7.1,1.1.3-.2.5-.4.8-.5.8-.2,1.6-.4,2.3-.4.5,0,1.2.6,1.5.4,1.5-.8,2.1.2,2.7,1.2.3.5.5,1.1.8,1.7.3-.5.6-1,1-1.4.5-.4,1.1-.7,1.7-.8.8-.1,1.7,0,2.6,0,1.5-.2,2.4.5,3.2,1.7,1.1,1.9,3.1,2.1,4.7.7,1.4-1.1,3-2.1,5-1.9,1.6.2,3.1-.3,4.7.5.9.4,2.4.5,3.1,0,1.1-.8,2.3.3,2.7,0,1.4-1.1,2,.2,2.8.7,1.2.7,2.1.6,3.1-.4,1.3-1.3,2-2.8,2.6-4.4,0-.2-.4-.9-.5-.9-1.5.4-1.8-.8-2.2-1.8-1-2.4-1.9-4.8-2.9-7.2-.7-1.8-1.5-3.6-2.3-5.4-.8-1.9-1.6-3.8-2.4-5.7-1.5-3.6-3.4-7.1-4.5-10.8-1.1-3.7-1.8-7.5-1.8-11.4,0-1.3,0-2.7,0-4,0-1.6-.5-1.8-2-1.1-.3.1-.7.3-1,.4-.9.3-1.7,1.1-2.3-.7-.4-1.4-1.8-1.2-2.5.3,0,0-.2.1-.2.2-.7,1.8-.4,4.2-2.8,5.2-.1,0-.2.5-.1.8,0,1.3-.4,2.3-1,3.3-.6,1-.9,2.3-1.3,4.1M472.4,194.1c-1.2,1.6-2.8,1.5-4.3.8-1-.5-1.7-.3-2.2.5-.6,1,.4,1.4.9,1.7,2.5,1.7,5.1,3.4,7.8,4.9,1.7,1,1.8.9,2.9-1,1-1.7,1-1.7-.6-3-.3-.3-.7-.7-.8-1.1,0-.3.3-1.1.5-1.1,2.9,0,3.8-3.1,6.1-4.2.8-.4,1.1-2,1.5-3,0-.2-.4-.8-.7-.9-2.2-.3-4.5-.3-6.7-.6-1-.1-1.2.4-1.5,1.1-.8,1.9-1.8,3.7-2.9,5.8M438.9,87.5c-.7.9-1.4,1.7-2,2.6-.7.9-2.2,1.4-1.6,2.7.2.5,1.8.3,2.8.5.4,0,1.1.4,1.1.5-.2,1.6.6,2.8,1.2,4.1.2.5.3,1.1.4,1.6.3-.5.9-1,1-1.6.4-1.8.7-3.6.9-5.4,0-.3,0-.8-.3-1-1-.7-.8-1.6-.8-2.6,0-2.1,0-2.1-2.6-1.5M434.6,104.5c1-.8.8-2.1.5-2.9-.5-1.1-1.5-2-2.4-3,0,0-.4.1-.6.3-.1.1-.3.5-.2.6,1,.9.3,2.1.4,3.1.1,1.1.2,2.5,2.3,1.9M489.7,186c-.4,0-.9.1-1.3.2.1.4.2.9.4,1.2.8.7,1.7,1.4,2.6,2,.2.1.5,0,.8,0,.1,0,.2-.4.2-.5-.9-.8,0-2.8-2.6-2.8M463.7,171.1c.4-2.1-1.2-3-2.6-4-.4-.3-1.1-.3-1.7-.4.3.5.5,1.1.9,1.5.9,1,1.8,1.9,3.3,2.9M405.2,169c.8.8,1.9,1.3,2.3,2.4.1.3.5.5.8.8,0-.4.4-1.1.3-1.3-1-1.2-2-2.2-3.1-3.3-.1-.1-.7,0-.7.1,0,.3,0,.6.4,1.3M449.6,172.5c.6-1.2,1.3-2.3,1.7-3.6.2-.7,0-1.6-.2-2.4,0-.2-.4-.4-.6-.6-.1.2-.3.5-.3.7.2,2.1-.4,3.9-1.2,5.8,0,0,.2.3.6.2M461.4,153.2c0-.2.2-.5.3-.7-.9,0-1.9-.2-2.8-.2-.2,0-.3.5-.5.8.8.2,1.5.5,2.3.7.1,0,.3-.2.7-.6M401.8,163.3c0,0,0-.2,0-.3-.8-1.2-1.5-.6-2.1.1-.3.4-.5.9-.7,1.4.6-.1,1.3-.2,1.9-.4.2,0,.4-.4.9-.8M404.6,150c1.1.3,2.2.6,3.3.8.2,0,.5-.3.7-.5-.2-.2-.4-.6-.7-.6-1,0-2.1,0-3.4.3M451,140.5c-.3.1-.5.3-.8.4.8,1.2,2,.6,3.1.7,0,0,.1-.2.2-.4-.2,0-.3-.1-.5-.2-.5-.2-1-.4-2-.6M456.8,126.7c.9-.2,1.7-.4,1.3-1.6-.1-.3-.5-.5-.8-.7-.3.6-.5,1.3-.5,2.2M406.4,144.8l.8.8c.1-.4.5-.8.3-1-.3-.5-.8-.8-1.2-1.2,0,.2-.3.3-.2.5,0,.1.2.3.4,1M451.3,127c-.2.4-.4.8-.6,1.2.2,0,.5.3.7.3.7-.2.6-1.2-.1-1.4M445,102.2c.2-.4.4-.7.6-1.1-.2-.1-.4-.2-.7-.3-.2.3-.4.7-.5,1,0,.2.2.5.6.4M484.8,186.9c.3,0,.7.3.9.2.3-.1.5-.5.8-.8-.3,0-.7-.2-1-.3-.2,0-.5.2-.7.8M397.1,156.9c-.2-.2-.4-.4-.6-.6-.3-.2-.7-.5-1-.7.2.5.3.9.6,1.4.1.2.5.1,1,0M403.2,148.6c.2-.4.4-.8.5-1.2-.3,0-.7-.2-1,0-.8.4,0,.7.4,1.3M466.9,128.1c-.6,0-1.1,0-1.7,0,0,.2,0,.5,0,.7.4-.1.9-.3,1.6-.7M455.6,157.2c-.2-.2-.6-.5-.6-.5-.8.8.1,1.1.5,1.6.1-.3.3-.5.1-1M463.4,122.3c0,0-.1-.1-.2-.2,0,0-.2,0-.2,0,0,.4-.1.9-.2,1.3,0,0,.2.1.4.2,0-.3.1-.5.2-1.3M468.6,167.9c-.3,0-.6-.2-.9-.2,0,0,0,.2,0,.4.2,0,.5.1,1-.1M449.9,147.4c0-.3.2-.6.2-.9,0,0-.2,0-.4,0,0,.2-.1.5.1,1M425.1,101.3c0,.3-.2.6-.2.9,0,0,.2,0,.4,0,0-.2.1-.5-.1-1M449.6,144.8c.2,0,.4-.2.6-.3-.2,0-.4-.2-.6.3M463.1,130.7c0-.1.2-.2.2-.3-.2,0-.3,0-.2.3M438.9,109.4c0,.1-.2.2-.2.3.2,0,.3,0,.2-.3M457.7,174.8c-.1,0-.2-.2-.3-.2,0,.2,0,.3.3.2Z"/>
    <path d="M215,93.8c-1.2-2.7-2.5-5-3.4-7.5-1.5-3.9-3.2-7.7-5.2-11.4-1.3-2.2-3.6-2.4-5.7-3-2.2-.6-4.5-.7-6.7-1.2-.5-.1-1.2-.8-1.3-1.4-.5-2.1.6-4.3-.6-6.4.7-.3.3-1.6,1.7-1.5,3.2.3,6.4-.1,9.6,1.1,2.1.8,4.6.6,6.9.7,2.4.1,2.4,0,2.5,2.4.1,2.1,3.2,3.8,4.9,2.8.2-.1.2-.5.3-.7.2-.9.4-1.8.6-2.6.4-1.8,1.2-2.2,2.9-1.4,1.5.7,2.8,1.6,4.2-.2.2-.3,1.1-.1,1.6-.2,3.7-.3,7.3.4,10.9.8.4,0,.9-.3,1.4-.3,1.8.1,3.7.3,5.5.3,1.6,0,3.9,1.1,5.4-.8.2-.2,1-.3,1.4,0,1.6.9,3.3.4,5,.5,1.9.1,2.1.3,2.1,2.2,0,1.9-.3,3.9-.6,5.8,0,.5-1,1.1-1.5,1.2-3.2.3-6.4.4-9.6.6-1.4.1-2.8.1-4.1.6-1.2.5-1.9,2-1.4,3.3.4,1.1-.1,1.7-.5,2.6-.3.7-.6,1.5-.7,2.3,0,.7,0,1.8.3,2.1.6.5,1.4,0,1.9-.7,0,0,.5,0,.6.2.6,2.4,1,4.9,2.2,7.2.2.3.1.7,0,1.1-.2,1.4.3,2.4,1.4,3.2,1.4,1,1.3,2.7,1.8,4.1,1.8,4.6,3.6,9.3,5.5,13.9,0,.2.5.5.4.7-.5,2.7,1.3,4.4,2.4,6.5,1.1,2,1.5,4.4,2.6,6.4.8,1.4,1.3,2.9,2,4.4.4.8.8,1.6,1.2,2.4-.9.1-1.8.1-2.6.4-1,.3-2.2.5-2.5,1.8-.4,1.8,0,3.3,1.2,4,1.2.7,2.6.2,2.9-1.2,0-.4,0-.8,0-1.1,0-.9,0-1.9.9-2.1.3,0,1.2,1.2,1.3,1.9.2,1.8.6,3.6,1.7,5.1-.8,2.4,1.3,3.8,2.1,5.6.9,1.9,1.4,4,2.1,6,.1.3.6.6.5.9-.5,2.6,1,4.5,2.2,6.6.8,1.3,1.5,2.7,1.3,4.4,0,.9.7,1.8,1.1,2.7.6,1.8,1,3.6,1.8,5.3.3.6,0,2,1.3,1.7.6-.1,1.2-.7,1.5-1.2,1-2.2,2.2-4.3,2.9-6.6.8-2.8,2-5.5,3-8.3,1.1-3.1,2.5-6.1,3.6-9.1.5-1.3.7-2.6,1.8-3.6.7-.6.7-2,.9-3.1.4-2.8,2.1-5.1,2.9-7.7.8-2.5,2-5,2.8-7.5.5-1.5,1-1.2,1.8-.3,2.3,2.7,5.6,4,8.5,5.9.7.4.8.8.6,1.3-1.1,3-2,6.2-3.6,8.9-.9,1.5-1.6,3.2-2,4.7-.8,3.7-2.7,6.5-5.9,8.3-.7.4-.8.7-.3,1.2,2.2,2.1.8,4.3,0,6.3-2.1,5.2-4.5,10.3-6.7,15.4-1.3,3.1-2.1,6.6-4.1,9.2-1.9,2.4-1.8,5.3-3,7.7-.8,1.8-1.6,3.6-2.5,5.3-.8,1.7-1.4,3.3-1.4,5.2,0,1.3-.9,2.5-1.2,3.8-.4,1.2-.8,2.4-.9,3.6-.1,1.2-.7,1.9-1.8,1.6-4.1-.9-8.3-.3-12.4-.6-1.1,0-2.6-.4-2.6-2.3,0-.6-.5-1.1-.8-1.7-1.7-2.8-2.5-5.9-3.2-9-.4-1.6-1-3.3-1.7-4.7-1.6-3-2.2-6.2-3.2-9.3-1.2-3.6-2.6-7.2-3.8-10.8-.8-2.3-2.1-4.7-2.3-7.1-.4-3.9-2.7-6.8-4-10.2-1.1-3-2.2-6-3.3-9,0-.2,0-.4,0-.6-2.3-3-2.4-6.9-4.2-10.1,0,0-.2-.2-.2-.2.9-2.3-.9-3.8-2-5.3-.6-.9-.8-1.7-.3-2.6.6-.9.4-1.8-.4-2.1-1.2-.5-1.3-1.5-1.8-2.4-2.1-4.1-3.2-8.7-5-12.9-.8-1.9-1.7-3.7-2.5-5.6-.4-1.1-.6-2.3-1-3.3-.5-1.2-1.2-2.4-1.7-3.6-1-2.7-1.9-5.3-2.9-8-.1-.3-.4-.6-.6-1.2M237.5,87.8c-.3,0-.6-.2-.9-.2v.4c.3,0,.6,0,.9.4.3.5.5.9.8,1.4,0,0,.4,0,.5,0,.1,0,.2-.2.3-.3-.6-.4-.3-1.9-1.7-1.7M268,167.9c.2,0,.4,0,.5,0-.2-.1-.4-.2-.5-.6-.6-1-1.6-1-2.5-.8-.5.1-1,.6-1.4.9.5,0,.9.2,1.4.2.9,0,1.7,0,2.6.3M240.4,116c0-1.7.3-3.5,0-5.2-.5-2-.8-3.9,0-5.9.1-.3-.1-.9-.2-1.3-.3.1-.6.3-1,.3-1.6.4-2,1.6-2.2,3.1-.1,1.3,0,2.6,1,3.6.6.6.7.9.3,1.8-.8,2.2-.2,4.3,2,5.7.2.1.4.2.6.3,0-.2.1-.4.1-.5,0-.5-.2-1.1-.6-1.9M243,120.3c-.7,0-1.4-.1-2,0-.5.1-.9.6-1.1,1,0,.2.3.9.7,1.1.9.4,1.8.7,2.7,1,.5.1,1,.1,1.5.2,0-.6.3-1.4,0-1.9-.2-.6-.9-1-1.9-1.4M251.9,145.4c-.6.6-1.3,1.3.2,1.4,1.4.1,2.9,0,4.3,0,.2,0,.4-.4.7-.6-.2-.2-.3-.4-.5-.5-1.4-.2-2.9-.4-4.6-.3M253.3,67.3c.7.2,1.3.5,2,.5.4,0,.8-.3,1.1-.4-.3-.2-.6-.6-.9-.7-.7-.3-1.4-.3-2-.6-.7-.4-1.4-1-2.1,0,.5.3,1,.5,1.8,1.1M247,142.8c1.7-.1,1.4-1.4,1.4-2.5,0-.1-.5-.4-.6-.3-1.2.3-1.1,1.3-1.1,2.3,0,0,0,.2.3.6M238.9,94.4c-.5-.1-.9-.2-1.4-.4.2.4.3.8.5,1.2.4-.2.8-.4.9-.8M261.4,161.8c-.5.1-1,.3-1.4.4.2.3.3.7.5.7.6,0,1.4.3.9-1.1M231.7,124.1c-.2-.3-.4-.6-.7-.9-.2.2-.3.3-.5.5.3.2.6.4,1.2.4M266.6,151.5l-.9.7c.2.2.3.3.5.5.2-.3.4-.6.4-1.2M258.8,169.6c.3,0,.6.2.9.2,0,0,0-.2,0-.4-.2,0-.5-.1-1,.1M246.1,137.3c-.1,0-.2-.2-.3-.2,0,.2,0,.3.3.2M249.6,117.2c.1,0,.2.2.3.2,0-.2,0-.3-.3-.2M232.3,101.6c-.1,0-.2-.2-.3-.2,0,.2,0,.3.3.2M270.9,214c-.1,0-.2-.2-.3-.2,0,.2,0,.3.3.2M265.7,163.8c-.1,0-.2-.2-.3-.2,0,.2,0,.3.3.2Z"/>
    <path d="M639.2,80.6c0,1.7-.9,1.2-1.6,1-2.9-.8-4.5,0-5.4,2.7-.1.4-.3.8-.6,1.2-.2.3-.5.8-.7.8-.5,0-1.1-.4-1.4-.7-.1-.2,0-.9.3-1.1,1.8-1.3,1.4-2.8.4-4.4-.2-.4-.4-.8-.6-1.2-.8-1.5-2.3-2.3-3.5-1.7-.9.4-2.4,3-1.9,3.7.7.9,0,1.3,0,1.9-.7,2.6-1.4,5.2.3,7.7.3.4.3,1.1.2,1.6-.1,1-.4,2-.5,2.9-.1,1-.8,1.5-1.6.9-.6-.4-1.1-1-1.7-1.5-.9-.8-1.8-1.6-2.8-2.3-1-.7-2-1.1-2.8-2.2-1.4-1.7-2.3-1.7-4.3-.6-.2.1-.5.2-.6.2-.2-.2-.5-.7-.5-.8,1-1.4,0-1.3-1-1.3-.3,0-.7.2-1,.3-2.1.6-3.6-.4-4.6-2.3-1.1-1.9-2.1-4.1-4.4-5-.4-.2-1-.3-1.4-.1-1,.5-1.7,1.7-3.3,1-.5-.2-1.6,1.1-1.9,2.2-.5,2.1-1.4,2.8-3.1,2.2-1.7-.6-3.1-.8-4.8,0-.5.3-1.4.2-2,0-.8-.4-2-.6-1.7-2,.1-.5.2-1,0-1.4-.3-.7-.7-1.7-1.8-.8-.5.4-1.1.6-1.7.8-1.8.5-2.1,1.1-1.1,2.6.2.2.4.5.6.6,1.5.8,3.1,1.6,2.8,3.7-.2,1.6.5,3.3-.5,5-.8,1.3-1,3-1.7,4.5-1.2,2.6-3.1,3.4-5.5,2.1-1.9-1.1-3.9-1.1-5.9-1.1-.3,0-.8.5-.8.7,0,1.4,2,3,3.3,2.5,2.4-.9,4.4-.4,6.3,1.4.8.8,2,1.5,3,1.6,1.4.2,1.5.9,1,1.6-.8,1.1-1.3,2.1-1.7,3.4-.3.9-1.5,1.7-2.5,2-1.5.5-3.1.4-4.6.7-.9.1-1.8.5-2.6.5-2.7.2-5.4.5-8.1.5-1.2,0-1.6.7-2,1.4-.4.8-.5,1.7-.7,2.6-.2.6-.3,1.4-.8,1.7-2.3,1.5-2.9,3.9-3.9,6.1-.2.5-1.2.6-1.8,1-.7.4-1.4.8-.6,1.9,1.7,2.5,3.4,5.1,6.1,6.6,1.7,1,3.5,1.9,5.1,2.9.6.4,1.1,1,1.5,1.6.8,1.3,2.2,1.9,3.6,1.4,1.4-.6,2.8-1.2,4.2-1.7.2,0,.6.4.9.7,1,.9,2.6.8,3.3-.3.2-.3-1.5-4.5-1.9-4.5-.9.1-1.8.3-2.6.6-.4.2-.7.7-1,1.2-.6.8-3,1.5-3.7,1.1-.1,0-.3-.3-.3-.4,0-.3,0-.6,0-.9-.2-1.5.5-3,0-4.4-.6-1.3-1.7-2.4-2.6-3.6-.7-1-.9-2-.3-3.2.3-.6.7-1.5.5-2-.9-2.6,1.5-4.6,1.3-7.1,0-.3.6-.7,1-.9,1.3-.6,2.6-1.6,3.9-1.6,1.2,0,2.4,1,3.6,1.6,1.6.8,3.1,0,4.7,0,2.5,0,3.1.8,1.9,2.9-.8,1.4-.4,2.6,0,3.8,1.1,3.6,1.3,4.7.5,6.8-.2.7-.8,1.2-1.1,1.8-.6,1.3-1.1,2.6-1.6,3.9,0,0,.4.4.5.4.7-.4,1.6-1.1,2.1.1.4,1,.5,2.1-.3,3.2-.5.7-.8,2.1-.4,2.8.7,1.2.4,2.1-.2,3.1-.5,1.1-.5,2-.2,3.3.5,2.2.1,4.6.2,6.9,0,1.8,0,3.5-1.4,4.9-.2.2-.2.9,0,1.1,2.3,2.3,1.6,5.2,1.2,7.8-.3,1.6.2,3.8-1.4,5.2-.1.1.3.9.4,1.4.3,1.3,2.1,2.3.6,3.9,0,0,0,.4,0,.5,2,1.6.8,3.7,1.1,5.6.3,2.5-.3,5,.5,7.6.3.8-.7,1.9-1.1,2.9-.5,1.3-2.2,2.2-1.7,3.9,0,.3.2.6.3.9.2-.2.4-.4.6-.6.1-.1.1-.4.2-.5.4-.4.9-.8,1.4-1.2.1.5.3,1,.4,1.5.2,1.2.5,2.3.6,3.5,0,.6-.2,1.3-.3,1.9,0,.4-.4.8-.2,1,1.6,2.1.8,5.4,3.6,6.9.5.3.9.6,1.4.7,1.9.3,2.8,1.6,3.6,3.1.1.3.2.6.4.9.2-.2.4-.4.6-.6.6-.7,1-1.9,1.7-2.1,1.2-.3,2.7-.2,4,0,.9,0,1.8.4,2.6.6.4,0,.7.2,1.1.2-.3.1-.6.2-.9.4-.8.6-1.1,1.1-.2,2,1.1,1.2.7,3.7-.3,4.8-.2.2-.6.5-.9.5-4.1,0-8.2,1.6-12.3-.5-.6-.3-1.5,0-2.3,0-7.5,0-15,0-22.5,0s-1.3.2-1.7,0c-1.9-1-3.8-1.4-5.7,0-.3.2-1-.2-1.6-.3-.7,0-1.4-.1-2.1-.1-1.4,0-2.8.1-4.1.2-1.9,0-3.9,0-5.8,0-1.4,0-2.7,0-4.1,0-.6,0-1.3-.3-1.9-.2-1.7.3-2.9,0-3.6-1.3-.1-.2,0-.6,0-1,.1-.7.4-1.4.3-2.2,0-1.4.2-2.9,1.3-3.4,1.2-.6,2.9-1,4.2-.7,1.2.3,2,.2,3.1-.1,1.7-.6,3.5-.7,5.3-1.2,2-.5,2.8-1.6,2.9-3.5,0-1.9-.3-3.9,1.1-5.6.4-.5,0-1.5,0-2.3,0-1.7-.3-3.4.5-5,.2-.4,0-1.3-.3-1.5-1.5-1.2-.9-2.7-.1-3.7,1-1.3.6-2.4.4-3.6,0-.5-.1-.9,0-1.4,0-.5.2-1.1.2-1.6.2-2.4-.2-4.8.5-7.3.4-1.4.7-3.2-.4-4.7-.3-.4-.1-1.1,0-1.7,1.2-6.1.3-12.3.6-18.5,0-.4,0-.8,0-1.2-.2-1.5,0-2.6,1.8-3.1.9-.2.6-1,.1-1.2-2.3-.8-1.9-2.7-1.9-4.4,0-2.4,0-4.8,0-7.2,0-1.5.8-3.1.4-4.3-.6-2.1-.3-4.1-.5-6.1,0-1.6.2-3.1,1.3-4.4.2-.2.3-1,.1-1.1-1.6-1.5-.8-3-.2-4.6.2-.4.3-1.1,0-1.4-1.1-1.3-1.3-2.8-1.3-4.4,0-.6-.2-1.3-.2-1.9,0-.5,0-1.1.2-1.4,1-.8.9-1.9.5-2.6-.8-1.8-.3-3.5-.5-5.3-.1-1.1,0-2.1-.4-3.3-.4-1.1.3-2.7.5-4,0-.4.5-1,.3-1.2-2.2-1.9-1.1-4.9-2.4-7.2-1.2-2.1.1-4.4,1.2-6.4.4-.8,1.2-1.5,1.2-2.3.2-1.8,1.5-1.9,2.4-1.5,1.8.9,3.5.2,5.3.5,1,.1,2,.4,3,.5.5,0,1-.2,1.6-.2.6,0,1.3-.1,1.7.2,1.6,1,3.1.9,4.5-.1.8-.6,1-.3,1.2.6.4,1.5.6,1.5,1.8.4,1-.9,2.1-1.3,3.5-1.3,2.3,0,4.5.5,6.6,1.4,1.3.5,2.5.6,3.9-.2,1.1-.6,2.5-.5,3.8-.6.1,0,.4.5.4.8,0,.6,0,1.2,0,1.7,0,.5.3,1.4.4,1.4.7,0,1.5-.2,2.1-.5.4-.2.8-.9.8-1.3,0-1.2.6-2.3,1.5-2.5,1.4-.4,3-.2,4.5-.1.3,0,.7.8.8,1.2.4,1.3,1.1,1.3,2,.6.8-.6,1.3-1.8,2.6-1.3,1.3.6.7,2,.8,3.1.2,1.8.4,3.7.6,5.5,0,.2.4.5.5.5,1.5-.3,2.9-.8,4.4-1.1,1.2-.2,1.4-1,1.4-2,0-1.2,0-2.3,0-3.5,0-1.9.5-2.1,2.6-2.1,1.3,0,2.5-.4,3.8-.5,1.9-.1,3.6.3,5.2,1.4.2.2.6.3.7.2,1.6-1.2,3.5-.4,5.1-.3,2.9.2,5.9.5,8.4,2.3.7.5,1.2,1,2.2,1,1.6,0,1.6.1.8,2.3M574.1,79.7c-.2,0-.4,0-.5,0,.2.1.4.2.5.6,0,.2.1.5.2.7.1,0,.3,0,.4-.1-.2-.3-.4-.6-.5-1.2M549.3,204.8c-1.1,2.5-.7,4.3,1.5,6.1.3.2.6.5.9.5,1,0,4.8-2.8,5.1-3.9.5-2.2,1.8-3.1,4-3,.4,0,.8-.2,1.2-.3-.3-.8-.5-1.7-.9-2.5-.3-.8-.8-.1-1.2,0-1.8.3-3.7.5-5.5.6-1.1,0-1.8.4-2.4,1.1-.6.7-1.2,1.5-2.6,1.5M565.5,83.7c0-1,.7-1.2,1.6-1.5,1.7-.5,1.8-1.7.4-2.8-.5-.4-1.2-.9-1.4-1.4-.4-1.9-1.2-.8-1.6-.2-.4.6-1,1.8-.7,2.2,1,1.4,0,2.3-.4,3.5-.2.5-.3,1.1-.2,1.6,0,.4.2,1.2.3,1.2.5,0,1.2-.1,1.5-.4.3-.3.3-1,.4-2.1M555.1,102.2c-.3,2.4,1.5,2.8,3.1,3.8,1.3.9,1.7,0,2.2-.6.7-.7.4-1.4-.2-2.2-1.3-1.9-3.2-1.3-5.2-1.1M557.4,155.2c-.5-.5-.8-1.1-1.4-1.4-.5-.3-1.4,0-1.9-.2-1.4-1-1.3,0-1.3.9,0,1,.4,2.3-1.2,2.6-.2,0-.3.6-.5.9.4.1.9.5,1.2.3,1.7-.9,3.2-1.9,5.1-3.1M557.1,142.8c-.7-.4-1.3-.9-2.1-1.1-.9-.2-1.6,0-.8,1.2.7,1,.9,2.1.8,3.4,0,.4.2.8.4,1.2.4-.4,1.1-.7,1.3-1.2.4-1,.4-2.1.3-3.4M558.8,100.2c.4.7,1.1.5,1.1,0,0-.7-.6-1.4-1-2.2-.3.2-.6.3-.8.6,0,0,.1.4.2.6,0,.3.1.5.5,1M575.2,128.1c.4.1.5,1.3,1.4.4.7-.7.3-1.1-.3-1.5-.8-.6-1.2-.4-1.1,1.2M554.5,95.3c0,.2,0,.5,0,.6-.5.5-.9,1-.1,1.6.2.1.3.3.4.4.1-.5.3-1,.3-1.5,0-.4-.2-.9-.6-1M568.9,97l-.7-.9c-.1.4-.4.8-.4,1.1,0,.9.6.7,1.1-.3M563.7,196.7c1,0,1.9,0,2.9,0-.8-.2-1.5-.4-2.3-.6-.2,0-.4,0-.6.5M593.7,76.8c0,0,0-.2,0-.3-.3-.2-.6-.4-.9-.6,0,.6,0,1.1,0,1.7.2-.2.4-.4.9-.9M568.3,171.9c.2.2.4.4.6.6.3.2.7.5,1,.7-.2-.5-.3-.9-.6-1.4-.1-.2-.5-.1-1,0M556.5,159c-.3.2-.6.4-.9.7.3.3.7.6,1,.9,0-.4,0-.9-.1-1.6M566.9,90.9c0,.2-.3.5-.3.7,0,.3.2.6.3,1,.1-.1.3-.3.4-.4.7-.5.1-.7-.4-1.3M561.4,145.4c0,.3.1.5.2.8,0-.7,0-1.4,0-2.1,0,.3-.1.5-.2,1.3M596.6,78c0,.3.1.5.2.8.1-.2.4-.4.4-.5-.2-.3.6-1.2-.6-.3M568,85.2c.3-.3.5-.6.8-.9-.1,0-.4-.2-.4-.2-.2.3-.4.6-.4,1.1M551.6,94.7c.1,0,.2.2.3.2,0-.2,0-.3-.3-.2M593.7,79.7c.1,0,.2.2.3.2,0-.2,0-.3-.3-.2M559.1,169.6c.1,0,.2.2.3.2,0-.2,0-.3-.3-.2Z"/>
    <path d="M62.7,70c-3.2.7-6,2.1-9.2,1.9-2-.1-3.5,1.3-5.1,2.2-.6.3-1,1.4-1,2.1,0,2.2.2,4.5.3,6.7,0,.6.2,1.1.2,1.7,0,2,.1,4,0,6-.1,1.9.6,3.7,0,5.6,0,.2,0,.4,0,.6,1.9,4.5,1.5,9.6,3.4,14.1.2.4,0,1,0,1.4,0,3.8.6,7.5,1.7,11.1.4,1.6.4,3.3.7,4.9.1.7.4,1.4.5,2.1.2,1.4.3,2.9.6,4.4.8,3.5.3,7.1,1.6,10.6.6,1.6.4,3.5.7,5.2.1.8.4,1.6.5,2.4.2,1.8.4,3.7.6,5.5.6,4.6.4,9.4,2.4,13.7.6,1.3,0,2.6.4,4,.4,1.2.8,2.4,1.3,3.5.4.9,1,1.8.3,2.8,0,.1-.3.4-.3.4,1.9,2.7.6,6.1,1.9,9,.8,2,1.7,3.7,3.2,5.3,1,1.1,2.1,1,3.4.8.3,0,.6-.3,1-.4,2.7-.8,5.4,0,8.2,0,.5,0,1.2.4,1.3.8.5,1.7-.6,3.6.6,5.2.1.2-.5.9-.7,1.4-.5,1.2-1.4,1.9-2.7,1.8-3.1-.2-6.2.6-9.3-.5-.6-.2-1.5,0-2.2.2-2.7.5-5.4.8-7.9-.4-.8-.4-1.1-.5-1.6.1-.8.9-1.5.8-2.4,0-.5-.4-1.4-.4-2-.6-.4-.1-.9-.3-1-.6-.2-.4.2-1.3-.8-1.1-.2,0-.3.7-.4,1.1-1.1,3.4-1.1,3.5-4.9,3.4-1.9,0-3.9.5-5.7-1-.2-.2-1.1.2-1.3.5-1.1,1.6-2.6,1.6-4.3,1.6-3.2,0-6.4.4-9.6.5-2,0-2.5-.5-2.5-2.6,0-1.2,0-2.5,0-3.7,0-1.1.5-1.6,1.6-1.8,2.7-.4,5.3-1.4,8.2-1.2,1.1,0,2.4-1.2,3.4-2,.3-.2.4-.9.3-1.3-.4-1.3-.5-2.5.2-3.7.8-1.5.8-1.6,2-.4.7.7,1,.6,1.9,0,1-.7,2.3-.8,3.5-1.3.6-.3.9-.6.2-1.4-1.3-1.6-2.4-3.4-1.2-5.7.2-.4,0-1.1,0-1.7,0-.5-.3-1-.4-1.4-.4.3-1.1.6-1.2,1-.3,1.1-.6.9-1.3.4-.6-.4-1.5-.7-2.3-.8-2.2-.2-2.2-.2-2.2-2.3,0-4.1-.7-8-1.7-12-.5-2.1-.3-4.4-.7-6.7-.4-2.7-1-5.3-1.5-8-.3-1.8-.4-3.6-.8-5.4-.8-3.8-.7-7.8-2.2-11.5-.6-1.6-.2-3.4-.6-5.2-.9-3.8-1.2-7.8-1.8-11.6-.3-1.8-.9-3.5-1.3-5.2-.2-.9-.2-1.8-.4-2.7-.4-1.8-.6-3.6-1.3-5.2-.3-.8-1.6-1.2-2.3-1.9-.2-.2-.3-.6-.4-1,.3,0,.5.2.8.2.8.2,1.1-.3.9-.9-1.6-4.8-1.4-10-2.3-14.9-.5-2.7-1-5.5-1.7-8.2-.6-2.2-2-3.4-4.5-3.7-1.9-.2-3.6-.4-5.6,0-1.9.4-4.1-.2-6.1-.5-.4,0-1-.9-1-1.4-.3-2-.4-4.1-.6-6.1,0-1,.4-1.6,1.4-1.7,2.3-.2,4.7.3,7-.5,1-.3,2.4.6,3.5.4,2.9-.5,5.9,0,8.8-1.1.4-.1,1,0,1.4,0,3.3,0,6.5-.2,9.6-1.1.4-.1.8,0,1.1,0,3.5-.2,7-.3,10.4-.6,3-.3,6.3,0,8.9-1.3,2.8-1.3,5.7-.2,8.3-1.5,1.3-.6,2.7.5,2.7,1.4,0,2.5.9,5.1-.6,7.7M43.2,66.4c-.2-.3-.5-.6-.7-.9-.3.4-.9.8-.9,1.2,0,1.3-.8,2.1-1.9,2.6-.4.2-.7.6-1,1-.1.2,0,.6.1.7.1.1.6.2.7,0,1.3-1.4,3.6-2,3.7-4.8M40.4,97c-.1.1-.3.3-.4.4.3,0,.7.2,1,0,.4,0,.7-.4,1-.6-.5,0-.9-.1-1.6,0M35.7,87.8c0,.2.1.5.2.7.1,0,.4,0,.4,0,0-.3-.1-.6-.5-.6M38,98.1c.3,0,.6.2.9.2,0,0,0-.2,0-.4-.2,0-.5-.1-1,.1Z"/>
    <path d="M617.9,192.4c-.4-1-.7-2.1-1.2-3.1-.2-.5-.4-1.3-.8-1.4-3.3-.5-4.4-3.2-5.9-5.5-1.5-2.3-3.4-4.4-3.9-7.3-.2-1.1-.4-2,.1-3.2.8-2,1.3-4.1,1.9-6.1.2-.8.8-1.2,1.7-1.2.9,0,.9-.7.4-1.1-1.7-1.1-3.4-2-5.1-2.9-2.2-1.2-4.4-.4-6.6.2-2.1.6-2.3.7-3.1-1.3-1.6-3.6-3.9-6.8-6.4-9.7-1.3-1.5-.9-3.5-1.4-5.2-.1-.5.9-1.5,1.6-2.1.3-.2,1.1,0,1.6.2.9.3,1.7,1.1,2.7,0,.2-.2,1.2,0,1.5.4.9,1.1,1.7,1.3,2.9.4.8-.5,1.8-.7,2.8-.8.5,0,1.2.2,1.4.6.6.8,1,1.7,1.4,2.6.3.5.4,1.1.8,1.4.7.5,1.7.7,2.3,1.3.5.5.5,1.6,1.1,2.1,1.4,1.3,1.1,2.7.7,4.1-.7,2.3,0,4.3,1.4,6.1.6.8,1.1,1.7,1.9,2.4,1,1,2.5,1.8,3.7,1.2,1.4-.7,1.8,0,1.9.8.2,1.5,1.4,1.9,2.2,2.8.3.3.9.4,1.1.7,2.3,3.5,5.9,1.9,8.9,2.1,1,0,2.2-2.2,2.2-3.8,0-.8,0-2.3.3-2.4,1.2-.4,2.6-.2,3.7.7,0,0,.1.1.2.2,1.6,2.2,2.6,4.8,4.5,6.8.1.2.1.6,0,.8-1.1,1.9-.5,3.9-.5,5.8,0,1.7-.7,2.6-2.1,3.4-.9.6-1.8,1.3-2.6,2.1-.2.2-.1.8,0,1.1.2.2.7.3,1,.3.6-.1,1.2-.6,1.8-.5,1.3.3,1.8-.5,2.3-1.4,1-1.8,1.3-1.9,3.1-1,3.7,1.8,6.8,4.3,9.1,7.8,1.1,1.7,2.8,2.9,3.1,5,.1.8,1.1,1.6.3,2.6-.2.2,0,.7,0,1.1.3-.2.7-.5,1-.6.4,0,1,0,1.4.1.3.1.6.5.8.8,1,2,2.1,3.9,3.1,5.9.5,1.1,1.7,2.5,3.4,4,.7.6.7,1.2.4,2-.4,1.1-.3,1.1,1,1.3.3,0,.6.3.9.5,2.9,1.8,6.1,2.7,9.5,2.9.3,0,.8.4.9.7.2.7.5,1.8.2,2.1-1.9,1.8-3.8,3.6-5.9,5.2-.8.7-1.9,1.1-3,.2-.3-.2-1-.3-1.3-.2-1.6.7-3.1.1-4.7,0-1.7,0-3.3-.2-4.8-1-.9-.4-1.7-.5-2.6.3-.4.3-1,.5-1.5.6-.6.2-1.1,1.1-1.9.1-.8-1,.5-.9.6-1.4,0-.2,0-.4.1-.5.2-.5.3-1,.5-1.4-.6,0-1.2,0-1.8.3-.3.1-.5.5-.8.8-1.3,1.3-2.4,3.2-4.4,3.3-3,.2-6.1.6-8.9-.7-1.1-.5-2.3-1.4-3-2.4-3.7-5.8-7.6-11.6-10.7-17.8-1.5-2.9-3.4-5.3-5.2-7.9-.8-1.2-1.8-2.6-1.3-4.4.5-.1,1,0,1.3-.2.3-.2.5-.6.8-1-.6.1-1.1-1.2-1.8-.3-.2.3-.3.8-.4,1.2M651.9,217.5c.2,0,.4,0,.5,0-.2-.1-.4-.2-.5-.6,0-.7.2-1.4,0-2-.3-.5-1-.8-1.6-1.2,0,0-.5.4-.4.5.7,1,1.4,2,2.1,3.3M643.3,196.7c-.5-.9-1-1.9-1.6-2.8-.2-.2-.8-.5-.9-.4-1.4,1.5-3.9.8-5.1,3.1-1.1,2.1-1.1,3.7-.5,5.7.5,1.6,1.5,2.2,3.1,2.1,1.2,0,2.5.2,3.7,0,1.1-.2,2.2-.8,3.1-1.5,1-.6.9-1.9.2-2.4-1.1-.9-1.2-2.2-2-3.8M654.5,203.3c-.9,0-1.9.2-2.5-.8-1.1-1.6-2.8-.7-4.2-.9-.1,0-.5.4-.4.5.2,1,.3,2.5.8,2.7,2.9,1.1,2.7,3.5,2.6,5.8,0,.3,0,.6,0,.9,0,.7,0,1.1.9,1,.6,0,1.3-.2,1.7,0,1.8,1.4,1.9-.5,2.6-1.2.3-.3.4-.8.4-1.2,0-2.3,1.2-4.9-1.8-6.8M626.3,175.1c.7.7,1.4,1.5,2.2,2.2.3.2.9,0,1.3,0,0,0,.2-.3.2-.5,0-.7-3.1-3.4-3.8-3.4-.5,0-.9.3-1.3.5.4.3.8.6,1.4,1.2M613.6,182c1.1-1,2.3-2,3.8-2.3,0,0,.2,0,.3,0,0-.2.2-.5.2-.8,0-.1-.3-.3-.4-.3-1.1.2-2.3.3-3.4.7-1.1.4-.8,1.6-.5,2.8M656.2,201c-1-.3-2.1-.4-3.1-.8-.5-.2-.9-.8-1.2.1,0,.1.5.5.9.7,1.5.6,3.1,1.2,4.6,1.8.3,0,.5.1.8.2,0-.4.1-1,0-1.1-.5-.3-1.1-.4-2-.9M627.7,188.6c0,.3,0,.5-.2.8-.2.4-.5.8-.7,1.2.5,0,1.1,0,1.5-.3.5-.3,1-.9,1.4-1.4,0,0-.2-.5-.3-.5-.5,0-.9,0-1.7.3M615.3,184.9c-.6-.4-1.2-.7-1.8-1.1,0,.2-.3.4-.2.4.4.6.8,1.2,1.3,1.7.3.2.9,0,1.3,0-.1-.3-.2-.5-.6-1.1M668.9,217.2c.5-.1,1-.3,1.4-.5,0,0,0-.5,0-.5-.9,0-1.9-.3-2.6,0-.5.3,0,1,1.3.9M631.2,195.6c0,.3,0,.6,0,.8,0,.4.2.7.4,1.1.3-.3.7-.5.8-.8,0-.9.3-1.9-.7-2.5-.1.3-.3.5-.4,1.3M638.4,176.8c1-1.4-.5-2.6-.5-3.9,0,0-.5,0-.7-.1,0,.2,0,.4.1.6.3,1,.5,2.1,1.1,3.4M626.5,193.2c-.2,0-.3-.3-.5-.3-.6,0-1.5-.3-1.3.9,0,.4.1.9.2,1.3.3-.5.7-1,1-1.5,0,0,.1-.1.5-.5M627.7,196.1c.6-.6,1.3-1.2-.2-1.4-.3,0-.6.2-.9.3.3.5.6.9,1.2,1.1M599.5,153.5c-.1-.5-.3-1-.4-1.4-.2,0-.7.2-.7.3,0,.8-.3,1.8,1.1,1.2M622.5,191.5c-.1.1-.3.3-.4.4.2.2.5.5.6.4.3-.2.6-.4.8-.7.2-.3.3-.7.5-1-.4.2-.8.4-1.5.9M624.8,176c0,.2,0,.4,0,.5,0,.3.2.6.4.9,0,0,.7-.1.7-.2,0-.3,0-.6-.2-.9-.1-.2-.4-.4-.8-.3M615.6,169.6c-.3-.5-.6-.9-.9-1.4,0,.2-.2.3-.2.5,0,.6-.2,1.4,1.1.9M653.1,196.7c0,.3.1.5.2.8.1-.5.3-1.1.4-1.6,0-.2-.4-.4-.7-.6,0,0-.3.2-.4.2.2.2.4.4.6,1.2M669.5,221.2c-.3.2-.6.5-.8.7,0,0,.2.3.3.4.4-.4.8-.8.6-1.1M643,217.7c0-.4,0-.7,0-1.1-.3,0-.6.2-.9.3.2.2.4.4.9.9M632.3,171.3c0,0-.1-.1-.2-.2,0,0-.1,0-.2,0,0,.4,0,.7.1,1.1.2-.2.3-.4.2-.9M617,184.9c.2,0,.5-.1.7-.2,0-.1,0-.4,0-.4-.3,0-.6.1-.6.5M597.2,150.6c-.3,0-.6-.2-.9-.2,0,0,0,.2,0,.4.2,0,.5.1,1-.1M641.5,190.9c.1,0,.2.2.3.2,0-.2,0-.3-.3-.2Z"/>
    <path d="M787.5,178.4c-1.4-1.1-3.2-1.6-4.3-.9-1.9,1.2-2.2-.5-2.7-1.3-.9-1.4-2.1-1.8-2.7-.4-.9,2.1-3.2,1.8-4.5,3.1-.4.3-2.3-.2-2.5-.8-.3-.9-.1-2.6.4-2.9,1.4-.8,1.1-1.7,1.1-2.8,0-.6.2-1.3,0-1.9-.1-.5-.6-1.1-1-1.1-.4,0-1.2.6-1.2.9,0,1.3.7,2.7.4,3.8-.3,1.1-1.6,1.9-.8,3.2.5.8,0,.8-.4.7-1-.3-2.2-.5-2.9-1.2-2.2-2-4.2-1.2-6.3,0-.5.3-1.2.6-1.7.6-1.2,0-2.1.3-3,1.2-1.6,1.5-3.6,1.1-4.8-.7-1-1.5-1.7-1.7-2.8-.1-1.3,1.7-2.7.8-4.1.8-.2,0-.4-.5-.6-.7-2.3-2.7-1.6-6-1.8-9.1,0-.4,1.4-.7,0-1.1-.7-.2-1.8-.6-2.2-.3-2.3,1.6-3.8,4.1-5.3,6.4-.3.5-.4,1.8,0,2.2,1.2,1.2,0,2.1-.5,2.6-1.1,1.2-1.9,2.4-2.2,4-.5,2.1-1.8,3.8-2.1,6.1-.3,2.2-1.9,2.6-3.9,1.5-1.4-.8-2.5-1.8-2.4-3.7.2-2.3-1.3-4.1-2-6.1-.1-.3-.7-.5-.8-.8,0-.8,0-1.7.1-2.5.7,0,1.4,0,2.1.2.4,0,.8.4,1.2.6.1,0,.4,0,.5-.2,0-.1,0-.4,0-.5-.2-.1-.5-.1-.8-.2-2.9-1.6-3.2-2.5-1.9-5.5.2-.5.4-2.5,2-.9.4.3,1.8-1,2.5.4.4-.2,1.1-.6,1.1-.7-.2-.7-.5-1.3-.9-1.9-.4.2-.8.4-1.2.6-.3.2-.5.9-.8,0-.6-1.7-2.7-3-4.2-2.2-1,.5-1.6.4-2.5,0-.7-.3-1.8-.2-2.5,0-.6.2-1,0-1.6,0-2.9-.5-5.8-1.1-8.7-1.1-2.9,0-5.7-.5-8.6-.9-.5,0-1.1.3-1.6.2-3-.4-6.1-.3-9.1-1-1.5-.3-3.2-.5-4.5,0-1.3.6-2.2.2-3.3,0-1.3-.4-2.7-.5-4.1-.6-3.1-.2-6.2-.4-9.3-.6-.6,0-1.4-.5-1.5-.9-.1-.7.6-1.9.3-2.2-.4-.5-1.4-.7-.9-1.6.6-1.3,0-2.3-.6-3.3-.2-.3-.2-.7-.3-1.1.4.2,1,.3,1.2.6.6.9,1.3,1.9,1.4,2.8.4,3.6,1.9,5.1,5.6,5.2,1,0,2.1.3,2.8-.1.9-.6,1.5.2,2.2.2,3,0,6,0,9,.6,1.7.3,3.2-.3,4.7,0,1.7.2,3.3.9,5,1.1,1.7.2,3.5-.3,5.2.1,2.7.6,5.5,0,8.1.6,4.1.8,8.3.5,12.3,1.6.7.2,1.5,0,2.2-.2,1-.1,2.1-.6,3-.3,2.5.7,4.9.8,7.3,0,.6-.2,1.4.5,2,.5,1.5,0,3.1,0,4.6,0,2.6,0,5.1.2,7.6,1,2.4.8,5.2.6,7.8.7,2.4,0,4.8-.2,7.2,0,4.3.6,8.7.2,13,.6,2.4.3,4.9,0,7.3.5,3,.6,6.2-.2,9.2,1,.8.3,1.9-.5,2.9-.5,4.1.1,8.4,0,12.4.7,2.4.5,4.7,0,7.1.4,1.9.3,3.8.1,5.7,1,1.1.5,2.6.2,3.9.2.8,0,1.5,0,2.3,0,.2,0,.3.3.5.5-.2.2-.5.5-.7.6-.3,0-.7-.2-1-.3-1.3-.1-2.7-.2-4-.3-.2,0-.6.5-.6.7,0,.5,0,1.1.3,1.6,1.2,2.3,1.9,4.8,2.7,7.3.9,3,.6,4.2-1.7,6-.2.2-.5.4-.7.6.3.2.6.5.8.5.8,0,1,.3.9,1,0,.7,0,1.3,0,2,0,.3.2.7.3,1,.2-.2.4-.4.6-.6.4-.4.8-.9,1.3-1.1.3-.1,1.2.2,1.2.3,0,2.3,2.3,2.9,3.3,4.4.2.3.7.7.7.8-.8,1-1.5,2.1-2.5,3-.4.3-1.4.3-1.8,0-.7-.6-1.1,0-1.7,0-1.4.2-2.1.3-.8,1.7.8.8,1,1.5-.5,2-.4.1-.5,1.1-.8,1.6-.3.4-.7.8-1.1,1.1-.1,0-.8-.3-.8-.6,0-.4,0-1,.2-1.4.3-.6.8-1.2,1.2-1.8.1-.2.5-.6.5-.6-1.8-1.9,0-3.8,0-5.7,0-.9-.2-1.9-.6-2.6-.6-1.1-1.2-1.9-1.2-3.3,0-.6-1.2-1.8-1.7-1.8-2,.1-2.1-1.3-2.8-2.5-.9-1.6-1.9-3.2-2.9-4.8-.1-.2-.6,0-1-.1.1.2.2.4.4.6,1.1,1.7,1,4.1-.3,5.1-1.1.9-2.5.7-3-.5-.6-1.1-.9-2.3-.3-3.7.6-1.5,1.1-3.1.4-4.9-.3-.8-.6-1.3-1.3-1.8-1.4-1-2.7-2-3.8-3.3-.8-.9-1.9-1.3-2.8-.9-.9.5-1.8,1.4-1.5,2.8.2.7.1,1.5,0,2.3-.1,1.2.2,1,1.1.7.4-.2,1.3.5,1.8.9.6.7.8,1.6,1.4,2.3,2.2,2.6,2.4,4.3.8,7.5-.4.7-1.4,1.5-.7,2.3.9,1,2.2,1.6,3.3,2.4.2.1.7,0,.8,0,1.8-2.4,1.9-.1,2.4.9.8,1.3,1.5,2.6,2.2,4,.4.7.5,1.5.8,2.3.1.4.3.8.6,1,1.1,1,1.3,1.8.4,2.8-.4.4-1.1.5-1.7.7,0-.4.1-.9,0-1.3-.3-.9-1.1-2-.9-2.6.6-1.5-.3-2.2-1.2-2.3-1.2-.2-2.7-.8-3.5.9,0,.2,0,.4-.1.5-.7.8-1.3,1.6-2,2.4,0-.9,0-1.9-.2-2.8-.1-1.3-1.6-2.8-3-2.8-1.5,0-3.1,0-4.6,0-1,0-1.6-.4-1.6-1.5,0,0,0-.2,0-.3-1.2-2.8-1.1-5.5,0-8.3,0-.2,0-.6,0-.9-.8-2.2-.8-4.2.5-6.2,0,0-.7-.8-.7-.7-.7.5-1.5,1-2.1,1.6-.4.4-.6,1.2-.6,1.7,0,.9-.3,1.7-1.1,1.7-1.3,0-.5-1.1-.7-1.7-.3-1.1-.6-2.3-1-3.5M811.3,173.4c0-.2,0-.4,0-.5-.1.2-.2.4-.6.5,0,.2,0,.4,0,.5.1-.2.2-.4.6-.5M792.6,175.4c.2,0,.4,0,.5,0-.2-.1-.4-.2-.5-.6.3-1.7-1.2-2.2-2.1-3.1-.2-.2-.7,0-1.1,0,.2.3.2.8.5,1,.9.9,1.8,1.6,2.7,2.7M814.2,180.3c1.8-1.9,1.8-1.9.9-3.4-.7-1.1-3-1.7-4-.9-.3.2-.5,1.2-.4,1.3,1.2.9.8,2.2.9,3.4,0,1.1.5,1.1,1.2.4.3-.3.5-.5,1.4-.8M729.4,168.2c1,.2,2-.4,2.9.5.3.3,1.3,0,1.9,0,.2,0,.4-.3.6-.4-.2-.2-.3-.7-.6-.7-1.9-.2-3.8-.4-5.7-.6-.2,0-.4.2-.6.3.3.3.5.5,1.4.8M786.2,173.6c.6.7,1.2,1.2,2.1.8-.5-.5-1-1.1-1.5-1.6-.2-.2-.6-.6-.9-.5-.5.1-.9.5-1.4.7.4.1.9.3,1.6.7M752.5,170.5c-.2-.2-.4-.5-.6-.6-.6-.2-1.1-.4-1.7-.5.3.5.5,1,.9,1.4.3.3.7.6,1,.9.2-.3.5-.6.4-1.2M749.3,174.8c.3.3.5.5.8.8.1-.3.3-.6.3-.8,0-.3,0-.6,0-.8,0-.5.2-1.3-.7-1.1-.3,0-.3.9-.4,2M824,197.6c0-.4,0-.8,0-1.2-.5.5-.9.9-1.4,1.4.4,0,.8,0,1.4-.2M760.3,171.3c-.1-.3-.2-.8-.4-1-.3-.2-.8-.2-1.2-.3.1.4.1.9.3,1.2.2.2.6.3,1.2.1M749.3,170.8c0-.3,0-.6-.2-.7-.2-.2-.5-.4-.8-.6,0,.3-.1.7,0,.9.2.4.6.7.9.4M732,169.6c.2.2.4.4.6.6.3.2.7.5,1,.7-.2-.5-.3-.9-.6-1.4-.1-.2-.5-.1-1,0M745.9,168.5c.2,0,.5.3.7.3.4-.2.7,1.3,1,0,0-.1-.5-.4-.9-.6-.1,0-.4,0-.8.3M724.2,179.1c-.3,0-.5.1-.8.2.2.1.4.4.5.4.3-.2,1.2.6.3-.6M726.3,182.3h1.1c-.4-.2-.8-.4-1.1,0M784.8,176.8c0-.3.2-.6.2-.9,0,0-.2,0-.4,0,0,.2-.1.5.1,1M794.9,176c.2,0,.4-.2.6-.3-.2,0-.4-.2-.6.3M768.1,170.5c0,.3-.2.6-.2.9,0,0,.2,0,.4,0,0-.2.1-.5-.1-1M775,170.5c0,.1-.2.2-.2.3.2,0,.3,0,.2-.3M783,172.2c0,.1-.2.2-.2.3.2,0,.3,0,.2-.3M806.7,173.9l-.2.3c.2,0,.3,0,.2-.3Z"/>
    <path d="M310.5,74.7c-.2.1-.3.1-.4.1-3.8,1.6-7.6.1-11.4,0-.4,0-1.2-.8-1.2-1.2-.1-2.4-.1-4.8,0-7.2,0-.7.2-1.3,1.5-.9,1.4.5,3.1-.2,4.7,0,1.9.3,3.7.1,5.6,1.1,1.6.8,4,.4,6,.1,2.3-.3,3.6.8,4.8,2.3,1.2,1.5,1.4,3.5.7,5-.7,1.7,0,1.8,1.1,2,2.4.5,4.1-1.1,5.6-2.4.7-.6.3-2.6,0-3.9-.3-1.7,0-2.3,1.7-2.3,1.5,0,2.9-.3,4.4.5.6.3,1.7-.2,2.6-.5.6-.2,1.3-.7,1.7-.5,2.3.9,4.5-.2,6.7,0,1.3.1,2.2,1.1,2.2,2.4,0,1.5,0,3.1,0,4.6,0,1.6-.8,1.9-2.3,2.3-2.9.8-6,0-8.9,1.5-.9.4-2.3-.1-3.4-.3-1.5-.3-2,.2-1.6,1.9.6,2.8-.2,5.4-1.4,8-.9,1.8-1.8,3.7-2.6,5.5-1.3,3-2.6,6-3.9,9-1.7,3.8-3.3,7.7-5.3,11.4-1.5,2.7-2.5,5.5-3.4,8.4-.6,1.7-1.8,3.1-2.2,4.9-.3,1.2-1.5,1.5-2.5.7-1.6-1.4-2.7-3-3-5.4-.3-3.1,0-6.4-1.5-9.4-.2-.4,0-1.1.2-1.5,1.2-3,2-6.1,4-8.7.2-.2,0-.6,0-1,0-.5-.1-1,0-1.4,1.9-4.1,2.7-8.5,4.1-12.7.2-.7.4-1.4.6-2.1.9-2.9.4-5.3-1.6-7.8-.3-.4-.4-1-.7-1.4-.3-.4-.7-.7-1.3-.8M312.7,122.1c.7-.6,1.2-1.2.7-2.1,0-.2-.6-.3-.7-.2-.8.6-1.4,1.3,0,2.3M315.3,86.6c0,0-.1-.2-.2-.2,0,0-.2,0-.2,0-.5,1.1-.1,1.8.9,2.2.3.1.7,0,1.1-.1-.4-.5-.9-1.1-1.6-1.9M317.9,104.2c.2.3.5.7.7,1,0-.4,0-.9,0-1.3-.4,0-.8,0-.8.3M320.8,100.2c0,.2.2.4.3.6,0-.2.2-.4-.3-.6M314.4,102.5c-.2,0-.5.1-.7.2,0,.1,0,.4,0,.4.3,0,.6-.1.6-.5M319.3,73.9c-.1,0-.2-.2-.3-.2,0,.2,0,.3.3.2Z"/>
    <path d="M118.9,203.5c-4.3,3.5-8.9,3.6-13.5,1.6-5.2-2.3-8.9-6.1-10.5-11.5-.7-2.4-1.3-4.7-.5-7.5.6-2.1.5-4.4,1.7-6.5.9-1.6,1.8-2.8,3.3-3.8,2.2-1.5,4.4-2.9,7-3.4,2.9-.6,5.6.4,8.2,1.6.6.3,1.2,1,1.8,1.1,3.3.5,4.3,3.3,5.9,5.6,1.9,2.6,2.1,5.7,2.5,8.8.6,4.8-1.8,8.3-3.6,12.2-.3.7-1.3,1.2-2.1,1.9M103.2,182.9c-.4-.4-.7-1-1.2-1.2-.6-.2-1.4-.1-2.1-.1.4.3.9.7,1.3,1,1,.8,1.7,1.7,1.5,3.1,0,.3.2.6.3.9.3-.3.8-.6.8-.8,0-.8-.3-1.5-.5-2.9M103.2,188.1c0-.3-.1-.5-.2-.8-.1.5-.3,1.1-.4,1.6,0,.2.4.4.7.6,0,0,.3-.2.4-.2-.2-.2-.4-.4-.6-1.2M100,185.5c0-.3.1-.7.2-1l-1,.7c.2.2.4.4.8.3M107.8,180c.1,0,.2.2.3.2,0-.2,0-.3-.3-.2Z"/>
    <path d="M448.4,26.4c.8-.3,1.4-.4,1.7-.8,1-1.4,2.4-1.5,4-1.5,3.8-.2,6.4,1.7,8.4,4.6,1.5,2.2,1.1,4.4.4,6.6-1.2,3.8-4.3,5.5-7.6,7-.4.2-1.1,0-1.6-.3-1.4-.6-2.9-.2-2.8,1.2,0,2.9-2.1,3.2-3.8,3.3-1.8.2-2.9,1.1-4.1,2-2.9,2-5.9,3.9-9.6,3.9-.7,0-1,.2-1,.9.1,1.5-.6,1.8-2,2-1.3.2-2.4,1.1-3.6,1.7-1.3.6-2.4,1.8-3.9,1.6-.7,0-1.5-.9-2-.8-.7.3-1.2,1.3-1.9,1.7-.4.2-1.3.1-1.7-.2-1.4-1.1-1.6-4.6-.3-5.8,2.5-2.4,5.1-4.8,7.7-7.1.7-.6,1.8-.6,2.7-1.1.6-.3,1.5-.9,1.4-1.3-.3-2.5,1.6-3.9,3.1-4.7,1.6-.8,2.8-1.8,3.9-3,.9-.9,1.7-.8,2.8-.6,1,.2,1.8,1.4,2.9.7,1.3-.7,1.7-2.3,1.6-3.3-.1-3.7,2-5.5,5.3-6.8M453.6,26.1c.1,0,.2.2.3.2,0-.2,0-.3-.3-.2Z"/>
    <path d="M888.8,286.9c.7.9,1.5.7,2.4.3.3-.2.4-1.3,1.1-.4.7,1,2.1,1.7,1.7,3.3,0,.1-.3.4-.4.3-.3-.1-.7-.4-.7-.5.2-1.2-1-1.5-1.3-1.1-.9,1.8-1.9.7-3.1.6-3.8-.5-7.5.1-10.8,2.3-.3.2-.6.5-.9.7-1.4,1.3-2.7,2.7-4,4-.4.4-.6.9-.8,1.4-.7,1.4-1,3-2,4.4-.6.9-.3,1.9.6,2.7.7.6.5,1.2-.5,1.2-1.2,0-2.3.6-3.6,0-.7-.3-1.8.4-2.6.4-1,0-2.1-.3-3.1-.6-.1,0,0-1,0-1.5,0,0-.8-.8-.8-.8-.6-.1-1.3-.4-1.9-.3-.4,0-.7.5-1,.8.3,0,.7.2,1,.3.4.1,1.1.1,1.2.4.5.8.8,1.8,1.1,2.7-.6.1-1.4.5-1.7.3-1.1-.8-1.4,0-1.9.6-.2.2-.3.6-.3,1,0,0,.5.2.7.2.6,0,1.2,0,1.7,0,1.5,0,3.1-.3,3.2,1.9,0,0,.4.2.5.2.2-.1.6-.4.6-.6,0-.2-.5-.4-.5-.6,0-.7-.3-1.9,1.1-.9.1,0,.6-.3,1-.5.1.3.3.6.1.8-.3.5-1.2,1.1,0,1.4.5.1,1.9.7,1.8-.9,0-.3.3-.6.4-1,.2-.5.3-1,.4-1.5.3.6.6,1.3.8,2,.1.3.2.9,0,1.1-2.1,2-1,4.5-1.1,6.7,0,2.1.2,2.2-2.2,2.3,0-1.6-2-1.4-2.3-2.5-.1-.3-.4-.9-.3-1,1.2-1.1.6-1.3-.5-1.1-.6,0-1.2.5-1.8.5-.7,0-1.8,0-2.1-.3-1-1.8-1.4-1.1-1.9.3-.1.4-.6.7-.9,1,.4,0,.9.3,1.3.3,1,0,2,.3,2.9,0,2.1-.7,2.3,1.8,3.8,2-.1.6-.3,1.2-.4,1.8-.3-.1-.7-.2-1-.3-.4-.1-.8-.2-1.2-.4.2.5.4.9.5,1.4,0,.5,1.4-.3.8.8-.2.4-.6,1.1-.9,1.1-2.4.3-4.8.4-7.2.6-.2,0-.5-.2-.7-.3.2-.2.4-.6.6-.6,1.9-.2,3.1-2.4,5.2-2.1.6,0,1.1-2.5.7-2.9-.2-.1-.6-.3-.6-.3-.9,1.4-2.5,1.1-3.8,1.6-.4.2-.6.9-1,1.2-.3.2-.8.4-1,.3-.2-.1-.4-.7-.3-1,1.5-3.2,2-6.7,2.5-10.2.2-1,.9-2,1.1-3,.1-1-.1-2-.3-3-.2-1,.4-3.8,1.3-4.5.3-.3,1-.5,1.3-.3.6.3,1.1.8.3,1.6-.3.3-1.3.7-.3,1.2.7.3,1.6.3,2.3.2.2,0,.4-.8.5-1.3,0-.4-.1-.8-.2-1.2.3.1.5.2.8.3,0-.6,0-1.4-.3-1.7-1-1.1-1.3-2.4-1.3-3.8,0-1.3,0-2.4,1.2-3.3.4-.3.6-.9.8-1.4.1-.4,0-.9.1-1.2.2-.4.5-1,.9-1.1,2-.7,4-1.6,6.1-1.2.7.1,1.8-.6,2,.9,0,.1,1.1.3,1.6.2,1.7-.4,3.5-.7,5.2-1.4.8-.4,1.4-1.3,2.3-.3.2-.2.6-.4.6-.6,0-.3-.2-.7-.3-1.1.4.2,1,.3,1.2.6,1,1.6,2.4,1.7,4,1.1.2,0,.5,0,.6,0,.3-.4.5-.9.9-1.3.7-.8.5.1.7.4.3.4.8.7,1.3,1,2.1,1.2-.3,1.2-.6,1.6-.4-.2-.6-.4-.9-.4-1.1-.3-.8.9-1.4,1.3,0,0,0,.3,0,.4.5-.2.9-.5,1.4-.7.2-.1.5-.3.7-.4M868.3,304.8c.3-.2.8-.4.8-.4-1-2.5-3-4.2-5-5.9,0,0-.4,0-.5,0,0,.2.1.4.2.6,0,.3,0,.6.2.8.5.5,1.1.8,1.6,1.2-.7,0-1.5.1-2.2.2-.1,0-.3.5-.2.5.6.6,1.2,1.1,1.8,1.6-1.2.6-1.7-.4-2.4-1-.1-.1-.6,0-.7.1-.1.1-.2.6,0,.7.7.8,1.5,1.4,2.8,1.2,1.1-.2,2.3,0,3.8.2M861.7,295.8c.1.1.2.3.4.4.6.3.9,1.8,2,.7,1-1.1.6-1.7-.6-2.2-1.1-.5-.2-1.3.2-1.3,1.1,0,2.4-1.5,3.4.3,0,0,.2.2.2.2.6-.2,1.2-.4,1.7-.7.2,0,.2-.5.2-.7-.4,0-.9.2-1.3.2-.3,0-.7-.2-1-.3-3.7-1.1-3.9-1-4.7,2.5,0,.2-.3.3-.4,1M874.4,289.5c-.2,0-.5-.3-.7-.3-1,0-2,0-2,1.2,0,.1,1.2.4,1.9.5.4,0,.9.2,1.1,0,.2-.2,0-.7-.2-1.4M872.4,292.7c-.2,0-.5,0-.5,0-.1.5-.2,1-.3,1.5.6,0,1.2,0,1.7-.2.4-.2.7-.8,1-1.1-.4,0-.9-.1-1.9-.2M870.4,291.2c0-.2,0-.4,0-.6-.2-.8-.4-1.6-.6-2.3,0,0-.3,0-.4-.1,0,.9,0,1.8.1,2.7,0,.2.4.4.9.3M865.6,297.6v.5c.7-.1,1.4-.2,2.1-.4.1,0,.1-.5.2-.7-.5,0-1-.2-1.6-.3-.2,0-.5.2-.7.8M860.3,310.5c-.5.1-1,.3-1.4.4.5.5.9.9,1.4,1.4.1-.5.3-1,0-1.7M857.4,311.1c-.4-.4-.9-1-.8.2,0,.5.2,1,.3,1.5.3-.5.5-.9.5-1.7M867.5,287.2c-.5,0-1.1-.2-1.6-.3-.2,0-.5.2-.7.3.2.2.4.6.6.6.5,0,.9-.2,1.7-.6M870.7,295.6c-1.1-.2-.9.6-.9,1.2,0,.2.1.3.2.5.3-.3.6-.5.9-.8,0-.1,0-.3-.3-.8M867.2,289.8c0,0,.1-.1.2-.2,0,0,0-.2,0-.2-.5,0-1,0-1.5,0,0,0,0,.5-.1.7.4,0,.8,0,1.4-.3M866,316.9c-.3-.2-.8-1.2-.8.1,0,.3.3.7.5,1,.2-.3.4-.6.4-1.2M879.3,287.5c.2,0,.4,0,.5,0,.3,0,.6-.2.9-.4,0,0-.1-.7-.2-.7-.3,0-.6,0-.9.2-.2.1-.4.4-.3.8M865.5,314c.2,0,.5-.1.7-.2,0-.1,0-.4,0-.4-.3,0-.6.1-.6.5M877.3,289.5c-.1,0-.2-.2-.3-.2,0,.2,0,.3.3.2Z"/>
    <path d="M707.2,205.6c.9-1.6,1.8-2.8,2.6-4.1.3-.4.2-1.1.3-1.6,0-.5,0-1,0-1.4,0-.9.4-1.7,1.3-2.1.3,1.2,2.9-.4,2.4,2.2-.3,1.8.2,3.7.4,5.5,0,.3.2.6.3.9.3-.3.5-.5.8-.8,0,0,0-.2,0-.3.2-2.4.4-4.8.6-7.2,0-.2-.1-.5-.2-.8-.1.3-.2.6-.3.9,0,.2-.2.5-.3.8-.2-.2-.5-.3-.6-.6-.5-.8-1-1.6,0-2.4,1.4-1.1,2.5-2,4.6-1.1,1.6.6,3.6,0,5.4.1.6,0,1.1.3,1.7.5-.5.8-.9,2-1.7,2.3-.9.3-2.1-.2-3.2-.4-.5-.1-.9-.6-1.4-.8-.8-.3-1.3-1.3-2.4-.7.5.7,1,1.5,1.6,2,2.2,1.6,2.5,2,.8,4.1-.9,1.1-1,2.3-.6,3.1.5,1.2,0,2,0,3-.1,2.2-.6,4.5.3,6.7.3.8-.1,1.9-.4,2.9-.3,1-.7,2-1.2,2.9-1,1.9-2.3,2.9-4.6,3.3-2.2.4-4.4-.7-6.5.4-1.1.6-2.2-.5-2.5-1.3-.9-2.9-2-5.7-.7-9,1-2.4,2.9-4.1,3.4-6.9M711,202.8c0,.2,0,.4,0,.5.1-.2.2-.4.6-.5v-.5c0,.2-.2.4-.6.5M713.6,207.1c.2,0,.4,0,.5,0-.2-.1-.4-.2-.5-.6-.7-.3-1.3-.6-2-.8-.2,0-.5.4-.8.7.2.1.3.4.5.4.8,0,1.5,0,2.3.3M717.3,205.1c0,.3-.3.7-.2.9.1.3.5.5.8.8,0-.3.2-.7.3-1,0-.2-.2-.5-.8-.7M708.4,217.5c.1,0,.2.2.3.2,0-.2,0-.3-.3-.2Z"/>
    <path d="M607.4,145.8c-.3-.3-.4-.4-.5-.6-.5-.7-1.1-1.5-1.6-2.2,1-.7,1.9-1.4,2.9-2,.4-.2,1,.1,1.4-.1.5-.3,1.2-.7.3-1.4-.6-.4-.8-.9.3-.8,2,.2,3.1-1.5,4.1-2.5,1.7-1.7,3.4-3.1,5.4-4.4.5-.4,1.1-1,1.2-1.6.1-1.2.5-2.2,1.1-3.3.7-1.1.8-2.5,1.3-3.8.2-.6.6-1.4,1.1-1.7,1-.6,1,.6,1.5,1.1.9,1,1.2,2.1,1.5,3.4.4,2,1.1,4,3.1,5.3,1,.6,1.5,1.8,2.3,2.8,0,.1.2.4.2.4-1.2,1.2-1,3.5-3,4.3-1.1.4-2.4.9-2.2,2.7.1,1-.9,1.8-2.1,1.8-.5,0-1,0-1.4,0-2.7,0-4.3.9-5,3.4-.3,1.1-.1,1.5-1.4.8-2.2-1.3-2.2-1.1-3.4,1.4-.5,1.1-1.1,2.1-1,3.3,0,.5-.2.9-.3,1.4-.6-.4-1.4-.7-1.9-1.1-.4-.3-.6-1-.6-1.5,0-1.4-.3-2.2-1.7-2.8-.6-.3-.9-1.5-1.4-2.4M616.2,140.2c-.3-.3-.5-.5-.8-.8-.1.3-.3.6-.3.8,0,.3,0,.6,0,.8,0,.5-.2,1.3.7,1.1.3,0,.3-.9.4-2Z"/>
    <path d="M972.4,409.1c1,0,2.4,0,1.6-1-1.1-1.4-.2-2.6-.3-3.8,0-.9.3-1.7.4-2.6,0-.2.2-.4.3-.7,0,.3,0,.6.3.7.7.7.8,1.4.2,2.2-.3.4-.2,1.1-.2,1.6.1,2.4,1.2,3.6,3.5,4,.9.2,1.9.7,2.6.4,2.3-.9,4.7-.2,7-.4.2,0,.4,0,.5-.1.3-.3.5-.7.8-1.1-.4-.2-.7-.4-1.1-.5-1.5-.2-3.1-.4-4.7-.6-.2,0-.4-.3-.6-.4.2-.2.4-.7.6-.7,1.9.2,3.8.5,5.7.8.3,0,.5.3.7.3,1.3,0,2.2-1.2,1.6-2.5-.2-.5-.5-.9-.7-1.4,0-.2-.2-.4-.2-.6.3,0,.7,0,.7,0,.4,2,2,1.4,3.3,1.7,2.1.5,4.1,1.2,6.1,2,4.4,1.6,8,4.4,11.7,7.2.1,0,.2.2.4.3-.2,0-.3.3-.5.2-2.9-.9-6,1.9-9-.4-.5-.4-1.7-.1-2.5-.1-1,0-2.1.3-2.5-1.2,0-.2-1-.3-1.6-.3-1,0-2,.3-2.9,0-1.7-.4-3.2-.5-4.9,0-1,.3-2.3.8-3-.9-.2-.4-1.1-.5-1.7-.7-.3,1-.7,2-.9,3,0,.2.4,1.5,1.3.6,0,0,.5.4.8.6-.2.2-.5.3-.6.5-.5.7-2,.5-1.5,1.9,0,0-.4.4-.6.4-.2,0-.5-.3-.5-.5,0-1.2,0-2.5,0-3.7s.2-1.2,0-1.7c-.2-.4-.8-.7-1.2-1-.1.4-.5.8-.4,1.2.4,1.2-1.2,2.6.4,3.7-.4.3-.7.9-1.2.9-.5,0-1-.3-1.4-.6-.8-.7-1.4-.6-2.2,0-1,.9-2.2.9-3.6.7-1.5-.2-3.1,0-4.6,0-2.6-.1-3.8-1.7-3-4.1.1-.4.7-1.1,1.1-1,2.3,0,3.6-1.7,5.3-2.7.2,0,.5.2,1.1.3M974.4,412.6c-.4,0-.9.1-1.3.2.5.7,1,1.4,1.5,2.1,0,0,.5,0,.5,0,.2-.9.8-1.8-.6-2.2M992.9,408.5c-.3.1-.7.2-1,.4-.4.3-.7.6-1,.9.6,0,1.2.2,1.7,0,.3,0,.4-.7.3-1.4M968.6,414.9c.4,0,.9-.1,1.3-.2,0-.3-.1-.6-.2-1,0,1.2-1.8-.1-1.2,1.1M978.4,412.6l-.9.7c.2.2.3.3.5.5.2-.3.4-.6.4-1.2M996.9,409.1c0,.2.2.4.3.6,0-.2.2-.4-.3-.6M993.7,405.9c-.1,0-.2-.2-.3-.2,0,.2,0,.3.3.2Z"/>
    <path d="M644,105.5c1.1-1.2,2-2.2,3.8-1.9.5,0,1.1-.5,1.7-.6.4-.1.9-2.3,1.4,0,.2,0,.4-.2.6-.3.4-.3.7-.7,1-1,.6-.6,1.1-1.2,1.6-1.8.2.8.6,1.6.6,2.3,0,.5-.5,1.2-.9,1.6-2.3,2.2-2.5,5-2.5,7.9,0,.2.1.3.2.5.1-.2.3-.3.4-.5.5-1.9,2.3-3.4,1.8-5.6,0-.3,0-.8.1-1.1,0-.2.4-.4.6-.6.1.2.3.5.4.7,1.2,1.6.6,3.5.5,5.2-.2,2.6-1.6,5-1.7,7.6,0,.8-.8,1.6-1.1,2.4-.7,2.2-2.8,3.4-3.4,5.8-.6,2-2.5,3.5-3.9,5.3-.2.2-.4.4-.6.6-.5.4.5,1.8-1,1.5-.2,0-.2-1.2-.3-1.8-.4-2.2-.9-4.4-1.3-6.7,0-.2,0-.5,0-.7.2.1.6.2.7.3,0,.5,0,1,0,1.4,0,.2.8.5.9.4,1.5-1,1.6-2.9.6-4.3-.7-.9-1.4-2-1.5-3.1-.4-3.1-.5-6.2-.6-9.3,0-1.7.9-2.9,1.9-4.3M648.5,120c0,.8,0,1.6.1,2.4.1,0,.4,0,.4,0,0-.9-.2-1.8-.3-2.6,0,0-.2,0-.3-.3,0-1.2-.9-1.5-1.9-1.4-.1,0-.2.2-.4.4.6.5,1.1.9,1.7,1.3.1,0,.4,0,.6.3M649.6,117.2c0,.6.1,1.3.2,1.9.4-.5,1-1,1.2-1.6.2-.7.1-1.5.1-2.3-.4.6-.8,1.1-1.5,2M645.3,118c0-.2.2-.5.3-.7.1-.3.2-.7.3-1-.5.1-1.1.2-1.4.5-.2.2.1.8.8,1.2M652.2,112.8c0,.1-.2.2-.2.3.2,0,.3,0,.2-.3Z"/>
    <path d="M907.3,177.8c-.4.3-.9.8-1.2.7-3.2-.9-3.7,2.3-5.4,3.5,0,0,0,.5,0,.6.2.2.6.4.8.3.5-.3.9-.7,1.2-1.2.4-.6.8-1.3,1.3-1.8.3-.4.9-.5,1.4-.8,0,.4.2.9.3,1.3.2,3,.4,6,.6,9,0,1.1-.3,1.4-1.3,1.2-.8-.1-1.6-.3-2.4-.5-2-.5-2.5.1-2.5,2.2,0,1.5-.4,2.9.7,4.2,0,0-.6,1-.8,1-.7-.2-1.7-.5-1.8-.9-.4-3-2.7-4.1-4.9-5.4-.6-.3-.9-1.1-1.2-1.8-.5-1-1-2.1-1.4-3.2-.7-1.7-.5-3.3,1.1-4.5.5-.4,1.1-.7,1.6-1,1-.7.9-1.1-.3-1.8-2.1-1.3-4.2-1.1-6.2-.2-1.2.5-2,.7-3-.2-.9-.8-2-1.3-3.3-1-2.3.5-4.3-.7-6.4-1.3-.3,0-.5-.5-.8-.8.3,0,.7-.3,1-.3,2.6.5,5.3.2,7.9,1.1.7.2,1.5,0,2.3,0,3.2,0,6.3,0,9.3,1.1.4.1.9-.1,1.3-.2,1.1-.1,2.4-.6,3.3-.3,2.2.8,4.5.3,6.7.5.7,0,1.5.2,2.2.4M896.6,186.6c.6-.5,1.1-1.3,1.4.2,0,.3.2.6.3.9.3-.3.7-.5.8-.8,0-.5-.2-1-.3-1.5-1.1.4-2.2-1.5-3.2,0-.3.4-.3,1-.4,1.5.4,0,.8,0,1.4-.3M893.4,185.8c-.2-.7-.4-1.3-.6-2,0-.2-.4-.2-.6-.3-.2.8-.6,1.6-.5,2.3,0,.5.7,1.4,1.6,0M903.8,186.3c0,0,.1.2.2.2,0,0,.2,0,.2,0,0-.4.3-1,.1-1.3-.3-.6-.8-1.2-1.2-1.8,0,0-.3,0-.4,0,.2.7.3,1.3.5,2,0,.3.2.5.6,1M896.6,180.3c0,.4,0,.8,0,1.1.2-.4.4-.8,0-1.1M903.5,188.3c.2,0,.5-.1.7-.2,0-.1,0-.4,0-.4-.3,0-.6.1-.6.5Z"/>
    <path d="M895.6,410.1c-1.9,0-3.6-1.3-5.4,0-1.2-1.3-2.9-1-4.3-1.4-2.9-.9-5.8-.7-8.6.6-.4.2-.9.2-1.3.3,0,0-.2-.4-.2-.5.4-1.2.4-1.4-.8-1.2-3,.4-5.8-1-8.6-1.5-1.4-.2-2.7-.6-3.9.3-.3.2-.5.4-.7.6.3.2.5.5.8.5,1,0,2,.3,2.9,0,1.7-.6,2.6,1.5,4.1,1.2,0,0,.1.3.2.4-.2,0-.3.2-.5.2-2.3-.2-4.7-.3-7-.6-2.3-.3-4.7-.7-7-1.2-.4,0-.7-.4-1-.6.4-.2.7-.5,1.1-.5.6,0,1.2.2,1.9.3,1.6.4,3.2.6,4.3-1,.9-1.4,2.3-1.3,3.6-1,3.7.7,7.4,1.7,11.2,2.2,2.5.3,5.1.1,7.5-.6,1.5-.5,2.5-.2,3.4.5,1.3,1,2.5,1.6,3.6-.2.2-.3.2,0,1,.7.9.8,2.3,1.3,3.3.8,1.5-.7,2.5.1,3.7.5,1.1.3,2.3.4,3.4.8,2.6.9,5.4,0,7.9,1.1.6.2,1.3,0,2,0,3.6,0,7.2.4,10.8,1.1,1.4.3,2.9,0,4.3,0,1.4,0,2.7.3,4.1.6.8.2,1.7.8,2-.6,0-.2.2-.3.2-.5.1.2.2.4.3.6,1.2,1.6,1.8,1.5,2.9-.3,1.1-1.7,1.9-3.2-.1-4.8-.2-.1-.2-.6-.1-.8.2-.3.6-.5.9-.5,1.1.1,2.2.2,3.2.6.5.2.9,1,1.3,1.5,0,.1,0,.4,0,.5-.2,0-.5,0-.6-.2-.4-.3-.7-.7-1-1,0,0-.6.1-.6.2,0,1.2.5,2.4,0,3.6,0,0,.2.3.3.5.1-.1.3-.2.4-.4,1.1-1.7,2.3-2.6,4.4-1.4.4.3,1.5-.1,2-.6,1.1-1.1,1.6-.2,2.2.5.1.2.2.6,0,.8-.1.2-.5.2-.8.2-2.3-.7-4.8-.3-6.7,1-.7.5-1.8.3-2.6.5-.5.1-1,.5-1.4.7.4.3.7.6,1.2.8.8.3,8.3-.5,8.9-1.1.9-.9,1.6-.3,1.8.3.4,1.7,1.6,1.5,2.8,1.6,1.6.1,3.2-.6,4.7.5.3.2,1.2-.3,1.7-.6,2.3-1.4,3.9-.9,5.2,1.3.5.8,1.2,1.4,1.9,2-1-.1-2.1-.2-3.1-.3-4-.7-8.1-1.5-12.2-1.1-3.6-2.1-7.5-.8-11.3-1.2-2.3-.2-4.6-.4-7-.6-.4,0-.8-.4-1.2-.5-.5-.2-1-.6-1.5-.6-2.5.5-5.1.1-7.6-.2-4.4-.5-8.8-.5-13.1-1.6-2.1-.5-4.4-.5-6.7-.6-1.8-.1-3.7.3-5.3-1.1,0,0-.5.2-.9.4M962,414.6c-1.2-.9-2.2.6-3.3.4,0,0-.2.4-.1.5,0,.2.3.5.5.5.7,0,1.5,0,2.2.2,1,.1,1,.2.7-1.6Z"/>
    <path d="M622.4,109.5c-1-1-1.8-1.7-2.6-2.6-2.3-2.5-1.6-4.9,1.7-5.6,1.8-.4,3.7-.5,5.5-.6,1.6,0,2.2.9,1.8,2.4-.1.4-.3.8-.6,1.2-.3.5-.6,1-1,1.5.7,0,1.3.1,2,0,.2,0,.5-.1.7-.3.9-.6,1.2-.3,1.2.6,0,.9,0,1.7,0,2.6,0,.4.2.9.4,1.2,1,1.3,2.1,2.6,3.3,3.8.6.7.9,1.3.9,2.2,0,3.2-.8,3.8-4,2.9-2.3-.7-4.6-.7-6.7.3-.7.3-.9.6-.8-.3.2-1.6,0-3.2.6-4.6.7-1.7-.1-2.5-1.2-3.4-.4-.4-.8-.8-1.4-1.4M629.1,114c1.3,1.2,1.1-.3,1.5-.8.3-.4.8-.9,0-1.2-.4-.1-1.1,0-1.3.2-.3.4-.3,1-.1,1.8M625.1,103c0,.2-.3.5-.3.7,0,.4.4.7.5,1,.2-.3.5-.6.5-1,0-.2-.2-.5-.8-.7Z"/>
    <path d="M538.8,81.9c-2.4-.2-4.6,0-6.8-.7-2-.7-2.3-1.1-2.3-3.1,0-1.6,0-3.2,0-4.9,0-1.3.6-1.9,1.9-1.8,3.2.2,6.3.4,9.5.6.7,0,2.4,2.3,2.5,3.3.3,2-.1,3.8-1.2,5.5-.8,1.3-1.8,2.1-3.6,1.1Z"/>
    <path d="M642.5,89.6c.1-1.5.4-2.8-1-3.7-.4-.2-.6-1.4-.4-1.6.4-.5,1.3-.8,1.9-.8,4.8.4,7.6,4.3,8.4,7.8.9,3.7-.8,6.5-2.6,9.4-.2.4-.9.6-1.4.7-.9.1-1.9,0-2.9,0-1,0-1.2-.2-1.3-1.2-.3-3-.7-6-1.1-9,0-.4.2-.9.4-1.5M647.3,96.4c.1.3-.1,1.3.5.5.6-.7.8-1.8,1.1-2.7.2-.5.2-1,.4-1.6-.5.4-1.1.7-1.4,1.1-.3.6-.4,1.3-.6,2.6M644.7,95.5c0,.3-.2.6-.2.9,0,0,.2,0,.4,0,0-.2.1-.5-.1-1M646.4,88.1c0-.1.2-.2.2-.3-.2,0-.3,0-.2.3Z"/>
    <path d="M836.9,380.9c0-2,0-3.7,0-5.5,0-.3.3-.6.4-.9.2.3.6.6.7.9.1.8,0,1.5,0,2.3,0,1.1-.2,2.4,1.7,2,.1,0,.6.8.6.8-.7.7-.4.7.4.9.4,0,.6.9.9,1.3-.2.1-.5.4-.7.3-.6-.1-1.2-.3-1.6-.6-.3-.2-.4-.8-.6-1.2,0-.2-.2-.3-.2-.5-.1.2-.3.4-.3.6-.5,3.4-1.3,6.7-1.2,10.2,0,1.2,0,2.5-.6,3.5-1,1.8,0,3.6-.5,5.4-.2.5.2.8.7,1.2,1.5,1.2,3.1,1,4.8,1.1.5,0,.9.3,1.4.5-.4.2-.8.5-1.3.6-.7.2-1.5.2-2.2.3.7.3,1.4.6,2.2.9.4.1,1.1.2,1.4,0,2-1.3,3.6.1,5.4.6.3,0,.5.2.8.2-.2.1-.4.3-.6.3-3.7-.3-7.5.3-11.2-1-1.3-.5-2.8-.2-3.7-1.5-.2-.3-.8-.3-1.3-.3-1.9,0-3.8.2-5.6.3,0,0-.2.2-.2.2-2.5-1.8-5.3,0-7.9-.5-.4,0-.7-.3-1.1-.5.3-.2.6-.5.9-.7.4-.4,1.1-.7.3-1.5-.3-.3,0-1.1,0-1.7,0-.5-.3-1.3-.5-1.3-.6,0-1.5,0-1.8.3-.5.7-.4,1.5.7,1.9.4.2,1.5.4.6,1.2-.5.5-1,1.9-2,.6-.8-.9-1.7-.7-2.6-.8-.3,0-.5-.3-.8-.5.2-.2.5-.6.7-.6.9,0,1.7.3,2.6.4-.5-.9-1-1.8-1.6-2.7-.2-.3-.3-.7-.6-.9-.3-.3-.6-.6-1-.8.6,0,1.4-.3,1.7,0,1.4,1.6,3.3,1,5,1.1.8,0,1.3,0,1.2-1,0-.4.2-.9.3-1.3.6.5.8-1.1,1.6-.1.6.7,0,.7-.2,1.1-.3.8-.3,1.6-1.4,2-.5.2-1,1.4-.8,1.8.3.7,1.2,1.5,1.8,1.5,3.3,0,6.3,1.4,9.6,1.3,3.1-.1,3.9-.5,4-3.6.2-3.4.4-6.8.6-10.1,0-1.7,1.3-3.3.2-5.1-.2-.3,1.3-1.2,1-2.6M836.6,403.9c-.1-.3-.2-.7-.4-1-.2-.3-.6-.4-1-.5,0,.6-.5,1.6,1.4,1.5Z"/>
    <path d="M825.4,374.5c-.2.4-.5.8-.6,1.2-.2,2.4-.3,4.8-.6,7.2-.2,1.5-.6,3-1.1,4.4-.2.7-.7,1.3-1.2,1.8-.3.3-1,.2-1.5.2.1-.4.2-.8.4-1.1.9-1.5,0-3.6,1.6-4.8.2-.1,0-1.3-.3-1.5-1.3-.9-.2-2.5,0-2.5,1.9-1.2,1.6-3.1,1.6-4.8,0-1.4,0-2.6,1.7-3.4,1.2-.5,2.2-1.8,1.8-3.5-.1-.5-.4-1.3.8-1.4.6,0,1.2-.9.2-1.6-.3-.2-.5-.9-.4-1.2,1.2-3.1.2-6.4.5-9.6.3-2.4.8-4.6,2.4-6.5.9-1,1.5-.2,1.8,0,.8.5,1.8,1.1,1.5,2.4,0,0-.5.2-.5.1-.2-.4-.3-.9-.7-1.2-.4-.4-.9-.6-1.4-.8-.2.4-.4.7-.6,1.1-1.3,1.8-.6,4.1-1.5,6-.8,1.9,0,3.7,0,5.6,0,.5.4,1,.6,1.5.2.4.2.5-.6,1.1-.3.2-.9.3-.3,1,1.2,1.4.7,2.7-.2,4.1-.9,1.4-1.3,3.1-2.7,4.4-.4.4-.4,1.1-.8,1.6-.3-.2-.5-.2-.7-.2.2.1.4.2.5.3Z"/>
    <path d="M698.5,225.1c-1.8.3-3.4,0-5.1.6-1.2.4-2.7-.2-4-.5-.2,0-.5-.5-.5-.7,0-2.2,0-4.4,0-6.6,0-.2.3-.5.6-.7,1.5-1.1,3.3-.5,4.9-.5.3,0,.7.8.8,1.3.1,1.2,0,2.5,0,3.7,0,.6-.2,1.1-.4,1.7.4-.3.8-.7,1.2-1,.2-.1.6,0,.8.1.8.6,1.6,1.2,2.4,1.8-.2.2-.4.4-.7.8Z"/>
    <path d="M882.5,262.8c2.1-.4,2.1-.4,2.3-2.7,0-.3.2-.6.3-.9.3.3.8.6.8.8-.1,1.4-.3,2.7-1.4,3.7-.2.2-.5.3-.7.4.3,0,.6,0,.8.2.5.8,2.3,1.2.9,2.6,0,0,0,.5.2.7.6.7,1.4,1.3,2,2,.3.4.3.9.5,1.4-.5-.2-1-.4-1.4-.6-.3-.2-.5-.5-.8-.8,0,0-.4,0-.4,0,0,.8-.1,1.5,0,2.3,0,.2.8.4,1.2.4.7,0,1.7.1,2.2-.3.8-.6,1.2,0,1.7.3.2,0,.5.2.7.3-.2.2-.4.5-.6.6-.5.2-1.1.2-1.6.2-.8,0-1.5,0-2.3,0-.4,0-.7.5-1.1.8.2.3.4.6.7.8.3.2.7.3,1,.4.2,0,.4.3.4.4,0,.2,0,.5-.2.6-1,.7-2,1.3-3,1.9-.2-.5-.6-1-.5-1.5,0-1.1.4-2.1.5-3.2,0-.2-.2-.5-.3-.8-.1.2-.3.5-.3.7,0,.4,0,.8,0,1.1,0,.2-.4.4-.6.4-.2,0-.5-.4-.5-.4.7-1-.1-2,0-3,0-1-.4-1.9-.5-2.9,0-.3,0-.8.2-1,1.8-1.6,1.1-3.3.3-5.1M883.3,267.9c0,.2-.2.5-.3.7.2,0,.5,0,.7,0,.2-.1.5-.4.6-.6,0-.2,0-.5,0-.7-.2,0-.5.2-1,.6M883.3,270.2c0,.3-.2.6-.2.9,0,0,.2,0,.4,0,0-.2.1-.5-.1-1Z"/>
    <path d="M910.6,246.4c-1.8-.3-1.9-1.9-2.1-3-.2-1.9-1-3.2-2.5-4.2-.4-.3-.6-.8-.9-1.2.6,0,1.1-.1,1.7-.1.2,0,.3.1.5.3.5.4,1.3,1.3,1.6,1.2,1.5-.6,3-1.4,4.1-2.4.6-.5.8-1.1,1.7-1.4,2.8-.8,3-1.6,1.4-4.1-.1-.2-.1-.5-.2-.8.3,0,.6.1.8.3.4.3.7.7,1,1,.7.7,1.4,1.5,2.2,2.2-.7.5-1.7.9-2.2,1.7-1.7,2.6-4.5,3.3-7.1,4.4-.5.2-1,.4-1.4.7-.2.1-.3.6-.2.7,0,.2.5.3.7.3,2,0,2.5.6,1.8,2.4-.3.7-.5,1.3-1,2.1Z"/>
    <path d="M925.6,230.6c.7.7,1.4,1.3,1.9,1.9.2.3.3.6.5.9-.3.1-.6.4-.9.4-.9,0-1.7,0-2.6,0-.2,0-.4-.5-.6-.7.2,0,.6.1.7,0,.4-.2,1.4-.2.6-1.2-.5-.6-.7-1.4-1-2.1-.5.7-.9,1.4-1.4,2-1.6,1.9-2.5,1.8-3.4-.8-.3-.9-.4-1.8-1.4-1.7-1.7.1-2-.9-2.2-2.1,0-.6-.2-1.3-.3-1.9,1,0,1.2.7,1.5,1.6.5,1.7,1.9,2,3.1.6.8-.9,1.5-1.4,2.3,0,.1.2.5.6.6.6,2.2-.6,2,1.1,2.5,2.5M922.8,229c-.1-.1-.3-.4-.4-.4-.6,0-1.4-.3-1.9,0-.4.2-.4,1.1-.6,1.7.6-.1,1.3-.2,1.9-.4.2,0,.4-.4.9-.8Z"/>
    <path d="M851.5,334.3c-1.2,1.5-4.4,2.7-5.5,2.1-.5-.3-.9-1.2-.9-1.8,0-.9.3-1.8.5-2.6,0-.3.4-.5.6-.7.2.3.5.5.5.8,0,1.3.6,1.2,1.3.5.5-.5,1-.9,1.4-1.4.4-.5.6-1.2,1.1-1.5.3-.2,1,.3,1.4.5.7.4,1.4.8,2,1.3.2.1,0,.9-.2,1.1-.7.6-1.4,1.1-2.3,1.8M849.3,334.2c.8,0,1.5-.2,1.1-1.2-.4-1.1-1.1,0-1.5,0-.6.3-1.1,1,.4,1.1Z"/>
    <path d="M901.3,254.5c.2-.2.3-.3.3-.3.4-.4.8-.8,1.2-1.2.1.2.4.5.3.7-.2.6.6,1.6-.8,1.7-.6,0-1.2.3-1.8.6-.7.5-1.7,1-2,1.7-.8,2-2.8,1.5-4.1,2.2-.2,0-.7-.5-1.1-.8.3-.1.6-.3.9-.3.4,0,.8.1,1.1,0,.7-.3,1.8-.7,1.8-1.1,0-1-.9-1.1-1.8-1.2-1,0-2-.3-2.9-.6-.2,0-.3-.5-.3-.7,0-.2.4-.3.6-.4,0,0,.2,0,.3,0,.7-.2,1.5,1.4,2.1.1.4-.9.6-1.9.8-2.9,0-.2,0-.4,0-.6.3,0,.6,0,.8.2,1.2.8.6,1.7.2,2.7-.1.3-1.2.8-.2,1.3.5.3,1.1.5,1.5.4,1-.2,2-.7,3.1-1.3Z"/>
    <path d="M627.1,156.6c-1.6.4-2.1-.8-2.2-1.4-.1-2.2-.8-4-2.3-5.7-.2-.2-.3-.7-.2-1,.2-.6.5-1.1.8-1.7.3.4.6.8.9,1.3,1.2,2,2.4,3.9,3.5,6,.8,1.5.8,1.6-.6,2.5Z"/>
    <path d="M843.9,339.9c0-.4.2-.4.2-.5.4-.8.8-1.6,1.2-2.4,0,1,0,1.9,0,2.9,0,.5-.3,1.1-.3,1.6.1,4.2-2,7.4-4.4,10.5-.9,1.1-2.8,1.5-4.1,1-.3-.1-.5-.5-.7-.8.3,0,.6-.3.8-.2,2.6,1.2,3.3-1,4.3-2.4.9-1.4,1.5-3,2.4-4.5.9-1.6.4-3.3.6-5.2Z"/>
    <path d="M882.6,222.5c1.7-.2,2.7.5,2.7,2.1,0,1,0,1.1,1.1.7,1.8-.6,3.5,1.6,2.9,3.5,0,.2-.7.3-1,.2-.2,0-.6-.4-.6-.6-.2-1.4-1.1-1.5-2.2-1.5-.7,0-1.4-.3-2-.6-.1,0-.1-.3-.2-.5.8,0,1.3-.3.7-1.2-.6-.8-1.4-.9-2.2-.2,0,0-.2.2-.2.2-.3,0-.6,0-.7-.2-.1-.2,0-.6,0-.7.5-.4,1-.7,1.7-1.2Z"/>
    <path d="M885.9,199.3c0-.6,0-.9,0-1.1,0-.4-.3-.7-.4-1-.2.7-1.7.1-1.3,1.4.3.8.4,1.6.6,2.3,0,.3,0,.5.1.8-.3,0-.7-.1-.7-.2-.3-1.8-1.7-2.9-2.6-4.3-.5-.8-.5-1.2.6-1.2,1.1,0,2.1,0,3.2,0,2.1,0,2.7.7,2.3,2.8-.1.6-.3,1.3-.8,1.7-.6.5-1,0-.9-1Z"/>
    <path d="M598.9,164.1c.7-.3,4.6.7,4.7,1,.2.9.5,1.8.4,2.7,0,.6-.6,1.3-1.1,1.8-.2.2-1,.1-1.1,0-1-1.7-2-3.4-2.9-5.4Z"/>
    <path d="M854.4,328.8c0-2.1-1.2-2.3-2.6-2.2-.3,0-.6-.2-.9-.3.2-.2.4-.4.6-.6.9-1,2.1-1.5,3.1-.7.9.7,1.2-.4,1.9-.2.7.2,1.5,0,2.3,0,.6,0,1.3.4,1.9.6-.6.4-1.3,1.1-1.9,1.1-2-.1-3.5.4-4.3,2.2Z"/>
    <path d="M933.6,239.2c-.2-.1-.3-.2-.4-.1q-2.8.6-4-2.3c0-.2,0-.4-.2-.5-.3-.3-.6-.7-1-1,.5,0,1.1-.2,1.6-.3,1,0,.7.7.7,1.2.2,1.8.6,2.1,2.6,1.8,1.5-.2,3-.1,4.5,0,.4,0,.6.8,1,1.2-.5.2-1,.5-1.4.4-.5-.1-.9-1.2-1.5,0-.2.4-.6.8-.9,1.2-.3-.5-.5-.9-.9-1.5Z"/>
    <path d="M637.1,137.8c-.5.3-.9.6-1.3.7-.4,0-1,.1-1.1,0-.3-.6-.5-1.3-.5-2,0-.1.7-.5,1-.4,1.8.4,2.9-.9,4.2-1.6.5-.2.9-.5,1.4-.7.2,0,.6,0,.7.2.1.2,0,.6-.1.7-1.4,1-2.8,2-4.3,3.2Z"/>
    <path d="M838.1,354.9c1.6-.5,2-.3,1.7.9-.7,3.2-1.4,6.4-1.2,9.7,0,.3-.2.6-.3.9-.3-.3-.8-.5-.8-.8,0-1.6-.4-3.4,0-4.8.6-1.9.3-3.7.5-5.8Z"/>
    <path d="M672.8,28.7c-.2-2.9,0-5.7-1.2-8.4-.5-1.2-.1-2.8,0-4.3,0-.2.3-.4.4-.6.2.2.6.4.7.6,0,.8,0,1.5,0,2.3s-.2,1.3,0,1.7c2.1,2.9.6,5.8.1,8.6Z"/>
    <path d="M849.2,397.6c-.3-2.1-.4-4.3-.5-6.4,0-.3.2-.6.4-.8.7-1,1.9-2,.3-3.2,0,0,.2-.5.4-.5.9-.2,1.5.3,1.6,1.1.1.7.1,1.6-.2,2.2-.6,1.1-1.3,2.1-.9,3.3.4,1.1-1.5,1.9-.2,3,0,0-.5.9-.9,1.3Z"/>
    <path d="M988,417.8c-.8-.3-1.4-.7-1.9-1-.2-.1-.3-.3-.4-.4.2-.1.5-.3.7-.3,2.3.3,3.9-.8,5.4-2.4.2-.2.4-.3.6-.5,0,.3.2.5.2.8.2,1.2,0,2.1-1.4,2.6-1,.3-2,.8-3.2,1.2Z"/>
    <path d="M810.4,395.8c0,1.5,0,2.8,0,4,0,.2-.3.4-.4.6-.2-.2-.7-.4-.7-.6,0-1.9,0-3.8.2-5.7.2-1.8.3-1.8,2-1.8.6,0,1.2,0,1.7,0,.2,0,.4.5.6.7-.3.1-.6.4-.9.4-2.4-.5-2.4-.5-2.6,2.4Z"/>
    <path d="M851.2,369.5c-.9,0-1.7.2-2.5.5-.4.2-.6.7-1,0-.4-.6-1-1.1-1.5-1.6.7,0,1.5-.3,2.2-.2,1.1,0,2.1.3,3.2.6.7.1,1.4.4,2,.6.4.1.9.1,1.2.4.3.2.3.8.4,1.1-.3,0-.7,0-1,0-1-.4-2-.8-3.1-1.3Z"/>
    <path d="M838.2,393.4c.8-.2,1.7-.2,2.6-.2.8,0,1.7,0,2.5,0,.6,0,1.4-.3,1.9,0,.4.1.6.9.8,1.3-.4,0-.8,0-1.2,0-1.7,0-3.4,0-5.1.4-1.1.2-1.2-.6-1.6-1.3Z"/>
    <path d="M811.1,390.2c-.7.6-1.3.7-1.3-.2.1-1.7.5-3.4.8-5.1,0-.3.2-.5.3-.7.2-.6-.6-1.7.8-1.5.2,0,.3,1.3.2,2-.2,1.8-.5,3.6-.9,5.5Z"/>
    <path d="M38.2,185.9c.4.6,1.1,1.2.9,1.5-.4,1-.9,1.9-1.6,2.7-.2.3-1.4.4-1.3-.8,0-.8,0-1.7,0-2.6-.1-1.7.8-1.3,1.9-.7Z"/>
    <path d="M624.4,161.1c1,1.1-1.2,2.4.4,3.3-.2.2-.3.5-.6.6-.1,0-.5,0-.6,0-.8-1.1-1.5-2.2-2.2-3.4,0-.1.4-.8.6-.8.7,0,1.5.1,2.3.4Z"/>
    <path d="M670.4,40.2c.4-.3,1.1-.3,1.1-.3.2,2.5-.2,4.9-2.2,6.8-.2.2-.8.1-1.2.2,0-.3,0-.7.3-1,1.3-1.6,2-3.4,2-5.7Z"/>
    <path d="M857.7,357.8c-.2.6-.3.9-.5,1.1,0,0-.6-.2-.6-.3.3-3.2-1.9-6.1-1.2-9.3,0-.3.2-.5.3-.7,0,.1.3.3.3.4,0,2.6.8,5,1.7,7.3.1.3,0,.8,0,1.4Z"/>
    <path d="M876.7,213.1c-2.4,1-5.1,1.1-6.6,3.4,0,0-.5,0-.7-.1,0-.1,0-.3.2-.4,1.1-1.6,1.9-3.4,4.5-3,.7.1,1.5-.4,2.2-.9.9-.6,1.1.2,1.6.5-.3.1-.5.3-1,.4Z"/>
    <path d="M830.4,172.4c1.9.9,3.7,1.1,5.5,1,.5,0,1,.2,1.5.3-.5,0-1.1.2-1.6.2-2.7,0-5.4,0-7.8-1.1-.2,0-.4,0-.6,0-.6-.1-1.3-.3-1.9-.4.6,0,1.3-.2,1.9-.2,1,0,1.9,0,3,.1Z"/>
    <path d="M667.5,71.9c.4,0,.5.2.5.2-1.4,2.1-1.4,4.7-2.2,7,0,.2-.1.5-.2.8-.1-.2-.3-.4-.4-.5-.1-2.7,0-5.3,2.3-7.5Z"/>
    <path d="M886.1,280.6c-.2-.4-.3-.8-.6-1.2.3-1,.9-.6,1.4-.1-.2.3-.2.5-.2.7.1-.2.2-.4.3-.5.2-.4.4-.9.6-1.3.1-.3.2-.7.3-1,0,.3.3.7.3,1,0,1.5.8,2.1,2.1,2.5.4,0,.8.4,1.1.7.2.1.2.5.2.7-.3,0-.5-.1-.8-.2-1.6-.4-3-1.4-4.8-1.2Z"/>
    <path d="M885.2,292.5c-.6,0-1.5,0-1.5-.3-.2-.9.8-.5,1-.7,1.5-1.5,2.9.5,4.4.1.1,0,.6.8.8,1.3,0,.3-.2.7-.3.9,0,0-.5,0-.7-.2-1-.9-1.9-2-3.7-1.1Z"/>
    <path d="M876.3,217.6c-.1-.3,0-.6-.2-.7-.3-.3-.8-.6-1.1-.9.2-.2.4-.5.5-.5.6.2,1.4-.6,1.9.6.5,1.4,1.7,1.8,3.2,1.7.2,0,.5.5.8.8-.3,0-.6.3-.9.3-.8,0-1.8-.6-2.3-.3-1.2.8-1.1-.6-1.8-.9Z"/>
    <path d="M844,392.2c-.3-.9-.5-1.7-.8-2.5-.3-.7-2.2-1.4,0-2.2,0-.1-.1-.3-.3-.4-.3-.1-1.2.2-.4-.6.3-.3.8-.5,1.2-.4.3,0,.7.5.7.8.2,1.6.3,3.2.3,4.8,0,.2-.4.4-.7.5Z"/>
    <path d="M851.5,380.4c.6-.3,1.1-.6,1.6-.7.3,0,.7.1,1,.2-.1.4-.2.8-.4,1.2-.1.2-.5.4-.6.6-.2,1.3-1.6,1.1-2.2,2-.2-1.1-.6-2.2.5-3.2Z"/>
    <path d="M971.7,399.7c-.5-2.5-.6-5.2-1.6-7.8-.1-.3.2-.8.3-1.2.1.3.3.6.4,1,.3,2.3,1.8,4.3,1.6,6.7,0,.4-.4.8-.7,1.3Z"/>
    <path d="M899.3,268.3c.9.7,1.6,1.2,2.3,1.8.3.3.5.8.8,1.2-.5,0-1.1.2-1.4,0-1.4-.9-2.6-1.9-3.9-2.9,0,0,.1-.5.2-.5.6,0,1.3.2,2,.4Z"/>
    <path d="M910.9,351.9c1.7,0,3.2-.3,4.8-.4.2,0,.5.1.8.2-.3.1-.5.3-.8.4-.6.2-1.2.5-1.8.5-1.7,0-3.4,0-5.2,0-.4,0-.9-.1-1.3-.2.4-.3.8-.8,1.2-.9.7,0,1.4.1,2.3.4Z"/>
    <path d="M672.5,28.7c0,1.3-.3,2.5-.4,3.8-.1,1.1,0,2.2-.1,3.3,0,.3-.3.6-.5.9-.3.4-.6.8-.9,1.2,0-.5,0-1.1,0-1.6.3-1.6.6-3.2,1-4.8.2-1,.6-1.9,1-2.8Z"/>
    <path d="M812.9,381.3c2-1.5,4.1-2.8,6.2-4.2.1,0,.3-.1.4-.2,0,.2.1.3.2.5,0,0,0,.2,0,.3-2.1,1.4-4.1,2.8-6.2,4.1,0,0-.3-.3-.5-.5Z"/>
    <path d="M854.1,372.6c1.4.6,1.5.7,1,1.3-1,1.2-1.3,2.5-1.5,4,0,.2-.2.4-.3.6-.1-.1-.4-.3-.4-.4,0-.6-.3-1.2-.1-1.7.3-1.2.8-2.4,1.3-3.7Z"/>
    <path d="M668.8,49.6c.2,2,.3,4.1.4,6.2,0,.2-.3.3-.5.5-.2-.2-.6-.4-.6-.6,0-2-.4-4.1.7-6.1Z"/>
    <path d="M668.6,58.7c.2,1.8.4,3.3.5,4.9,0,.3-.4.6-.7.9-.2-.3-.4-.5-.4-.8-.2-1-.5-2.1-.6-3.2,0-1-.4-2.1.7-2.8.1.3.3.5.4,1Z"/>
    <path d="M852.9,337.1c-.9,2.3-1.9,4.6-4.9,5.2,1.5-1.7,3.1-3.5,4.9-5.2Z"/>
    <path d="M846.2,174.7c.9-.3,1.7-.6,2.6-.7,1.2,0,2.3.7,3.6,0,.1,0,.5.3.7.5-.2.2-.5.6-.7.6-2.1,0-4.1-.2-6.2-.4Z"/>
    <path d="M878.3,183.3c-1.8-.6-1.6-1.9-1.6-3.2,0-.2.4-.4.5-.4.2,0,.6.3.6.4-.2,1.3.9,1.7,1.5,2.5.3.5.5,1,.7,1.6-.5-.2-1-.5-1.7-.9Z"/>
    <path d="M883.6,325c-.6-.3-.8-.5-1.1-.8.3-.1.6-.3.9-.3,1.8-.4,2.9,1.3,4.4,1.6,0,0,0,.4,0,.7-.8-.3-1.8,1-2.5-.3-.2-.4-.9-.6-1.6-.8Z"/>
    <path d="M663.9,112.3c-.2.7-.9,1.3.2,2.1.7.5,1.2,1.4.5,2.4-.3.4-.6,1.2-.7,1.2-1.2-.4.6-.7,0-1.1-.8-.6-.2-1.7-1.3-2.4-1.1-.8-.5-1.9,1.1-2.2Z"/>
    <path d="M614.4,157.8c.1-.8.3-1.2.4-1.7.3.4.8.7.9,1.1.2,1,.3,2,.4,2.9,0,.4-.2.7-.3,1.1-.3-.4-.6-.7-.8-1.1-.3-.6-.4-1.3-.6-2.3Z"/>
    <path d="M645,165.9c-.6.9-1.1,1.7-2,.6-.6-.7-.5-1.6.2-1.9.7-.3,1.5-.1,2.3-.2-.2.4-.4.8-.5,1.5Z"/>
    <path d="M664.2,112.3c-.3-.9-.2-2-.8-2.5-1-.9-.1-1.5,0-2.1,0-.1.5-.2.5-.2,1.3,1.6,1.4,3.3.2,4.8Z"/>
    <path d="M2.3,111.7c.8-.7,1.9-1.1,1.8-2.3,0-.3.5-.7.7-1.1.1.4.3.7.4,1.1,0,2.5-.8,3.2-3.3,2.7,0,0,0-.1,0-.2,0,0,.1-.1.5-.2Z"/>
    <path d="M862.9,335.9c.6.1.9.3,1.1.5,0,0-.1.6-.3.7-.6.3-3.4-.8-3.6-1.4,0-.2.1-.7.3-.9.1-.2.6-.3.8-.2.5.4,1,.9,1.7,1.4Z"/>
    <path d="M663.3,105.2c-.4-1.3-.7-2.7-1-4.1,0-.3.2-.6.3-1,.3.2.6.3.8.5,1,1.4.6,2.9-.1,4.5Z"/>
    <path d="M645.1,179.6c.2.3.4.4.4.6,0,.6-.2,1.2-.3,1.9-.4-.2-.8-.3-1.2-.6-.7-.5-1.2-1.2-.7-2.1.6-1.2,1.1-.4,1.7.3Z"/>
    <path d="M451.3,81.9c1.5,1.4,1.8,3.3,1.7,5.5-1.6-1.4-1.9-3.3-1.7-5.5Z"/>
    <path d="M879.4,201.2c.7-.9,1.2-1,1.9-.3.4.4,1.7.5,1.3,1.3-.6,1-1.5.8-2.3,0-.2-.3-.5-.5-.9-.9Z"/>
    <path d="M887.1,187.2c-1.1-.2-2.3-.7-3.3-1.4-.3-.2-.4-.9-.6-1.3.5,0,1.2-.2,1.5,0,.9.7,1.6,1.6,2.4,2.6Z"/>
    <path d="M919.2,347.3c1.4-.7,2.5-2.1,4.1-1.6.2,0,.3.4.3.6,0,.1-.3.4-.4.4-1.8-1-2.6,2.1-4.4,1.2,0,0,0-.1,0-.2,0,0,.1-.1.3-.4Z"/>
    <path d="M874.5,208.7c.7.6.6,1.2,0,1.8-.7.7-1.4,1.3-2,2-.1-.2-.3-.4-.3-.6,0-.4.2-.9.5-1.2.5-.7,1.2-1.2,2-2Z"/>
    <path d="M832.9,354.3c0-.7,0-1.2.2-1.6.2-.3.7-.5,1.1-.7.1.4.4.7.4,1.1,0,.5,0,1.1-.2,1.6-.6,1.2-1.1.3-1.6-.4Z"/>
    <path d="M831.2,379.7c.9.6,1.5,1.2,2.1,1.8,0,0,0,.4-.2.5-1.5.5-2.8-.7-2.7-2.3,0,0,.4,0,.8,0Z"/>
    <path d="M824.3,338.6c-.4,0-.9,0-1.1-.3-.4-.6-.6-1.3-.9-1.9-.2-.4-.4-.7-.6-1,.5,0,1-.2,1.4,0,.3,0,.6.5.7.8.3.7.4,1.5.6,2.5Z"/>
    <path d="M663.6,92.8c-.1.3,0,.5-.2.7,0,0-.3.1-.4.2,0-1.2-.2-2.4-.1-3.7,0-.5.5-.9.8-1.4.1.5.3,1,.3,1.5,0,.8-.2,1.6-.4,2.6Z"/>
    <path d="M899.1,230.4v1.4c-.3-.1-.7-.2-1-.4-.2,0-.3-.3-.4-.4-.3-.2-.6-.4-.9-.7.4-.4.8-.9,1.3-1.1.6-.2,1.1,0,1,1.1Z"/>
    <path d="M823.1,397c.9-1.4,1.9-2.3,2.6-2.3.3,0,.6.3.9.4-.2.2-.4.7-.6.7-1,0-1.6.4-1.8,1.4,0,0-.7,0-1.1-.2Z"/>
    <path d="M849.2,326.8c.6.3,1.4.8.3,1.5-.6.4-1.1.9-1.7,1.3,0,0-.4-.3-.4-.5-.2-1.1.5-1.6,1.5-1.8,0,0,.1-.1.3-.3Z"/>
    <path d="M393,135.5c-.6-.7-1.2-1.2-1.4-1.8,0-.4,1.6,0,2.3.9.1.1.4.3.4.4,0,.6,0,1.3-.1,1.9-.3-.4-.7-.9-1.1-1.5Z"/>
    <path d="M848.9,397.6c.3.5.4,1.1.8,1.4.9.9-.3,1.3-.3,2-.3,0-.7-.1-.7-.1.1-1.1-1.6-2.3.3-3.3Z"/>
    <path d="M856,367.6c-.1.5-.3.8-.4,1.1-1-.8-1-2.9,0-3.8.1-.1.4-.2.5,0,.2.1.4.4.4.6-.1.7-.4,1.3-.6,2.3Z"/>
    <path d="M828.3,390.2c.2.1.5.3.6.6.2.6.3,1.3.5,2-1,0-2,0-3.1.1,0,0-.1-.1-.2-.2.2-.1.4-.3.6-.3,1.5,0,1.7-.9,1.6-2.2Z"/>
    <path d="M663,99.1c-.4.2-.6.3-.9.4,0-.2-.2-.4-.2-.5,1.2-1.2,1.7-2.6,1.5-4.2,0-.1.2-.3.3-.5.1.1.3.3.3.4-.2,1.4.7,3.1-1,4.3Z"/>
    <path d="M879.7,221.9c-.7.2-1.2.4-1.7.4-.2,0-.5-.4-.7-.6.2-.2.3-.5.5-.5.8-.2,1.6-.4,2.3-.6.2,0,.4.4.6.7-.3.2-.6.3-1,.6Z"/>
    <path d="M850.3,323.4c.4-.3.9-.4,1-.6.2-.5-.3-1.4.9-1.3,0,.5,0,1.1-.3,1.6-.3.6-.7,1.1-1.1,1.5-.2.2-.8,0-1.1,0,.2-.4.4-.8.7-1.3Z"/>
    <path d="M996.2,414.7c-.4-.2-.7-.3-.9-.4-.3-.3-.6-.6-.9-.9.3,0,.7-.2,1-.2.2,0,.4,0,.6,0,.6.1,1.2.2,1.8.4-.5.4-1,.9-1.6,1.2Z"/>
    <path d="M859.8,405.5c-.7.1-1.3.2-1.9.1-.5-.1-.9-.5-1.4-.8.5-.1,1-.3,1.5-.3.7,0,1.4-.1,2,0,1.1.3,0,.5-.2,1Z"/>
    <path d="M903.8,413.1c-.8-.2-1.3-.4-1.7-.6-.2,0-.3-.3-.4-.4.2,0,.3-.2.5-.2.8,0,1.5,0,2.3,0,.5,0,1.3-.2,1.1.7,0,.2-.9.3-1.7.4Z"/>
    <path d="M931.5,410.8c-.3-.4-.3-.8-.3-1.2.8.2,1.5.4,2.3.6.5.1,1.7-.4,1.4.7-.3,1-.8-.7-1.4-.2-.4.3-1.1,0-1.9,0Z"/>
    <path d="M320,65.7c.8.6,1.4,1.2,2.5,1,.2,0,.5.3.8.5-.3.2-.6.6-.9.6-1.4.2-2.2-.7-2.4-2.1Z"/>
    <path d="M950.3,406.4c-.2-.5-.5-1.1-.4-1.1.7-.5-1.5-.9,0-1.3,1.4-.4,1.2.9,1.6,1.5.2.3-.4,1.2-.6,1.9-.1-.3-.3-.5-.5-.9Z"/>
    <path d="M901.5,287.5c.4.1.5.3.7.4.7.4,1.4.7,2.2,1-.1.1-.3.3-.4.3-1,0-2.1.4-2.9-.7-.2-.2-.4-.4-.6-.6.2-.1.5-.3,1-.4Z"/>
    <path d="M930.2,232c-1.2-.5-2.2-1.1-3.2-1.8-.1,0,0-.5,0-.7.2,0,.4.1.6.3.9.7,1.8,1.4,2.6,2.3Z"/>
    <path d="M796.6,202.2c-.5-.4-.9-1-.8-1.1.6-.9,1.5-.7,2.4-.4-.2.4-.3.9-.6,1.3-.1.2-.5.1-1,.2Z"/>
    <path d="M905.7,195.7c0-1.1-1.6-1.9-.3-2.9.1-.1.3-.3.4-.4.1.1.3.2.3.4.2.9.4,1.7.5,2.6,0,.1-.5.3-1,.3Z"/>
    <path d="M579.4,101.7c-.3-.6-.5-1.1-.7-1.6.5-.2,1-.4,1.5-.5.1.8,1.1,1.9-.8,2.1Z"/>
    <path d="M661,143c.3.6.8,1.2.7,1.6-.2.7-.7,1.4-1.2,2.1,0,0-.3,0-.4,0,0-.2-.2-.4-.1-.5.3-1.1.6-2.2,1-3.2Z"/>
    <path d="M910.3,249.6c.6,1.1,1.1,2.3,1.6,3.5,0,.2,0,.5-.1.8-.3-.2-.7-.3-.8-.5-.3-1.2-.5-2.4-.7-3.8Z"/>
    <path d="M911.7,228.6c-.3.3-.5.5-.7.7-.2-.5-.6-1-.6-1.6,0-.5,1.5-.7.4-1.6.2,0,.3-.3.4-.3.2,0,.6.2.7.3,0,.7,0,1.5-.1,2.4Z"/>
    <path d="M842.3,397.4c-.5-.3-.8-.4-1.1-.5.2-.2.4-.3.6-.5.4-.2.8-.5,1.2-.6.9-.1,1.4.3.6,1-.2.2.1,2.2-1.3.5Z"/>
    <path d="M718.3,183.3c-.7-.6-1-2.1-.5-2.4.2-.1.6,0,.7,0,.4.4,1.3.8.5,1.6-.2.2-.4.4-.7.7Z"/>
    <path d="M668.6,68.3c-.4,0-1.1-.3-1.1-.5,0-.9.4-1.7.6-2.5.2.1.5.3.5.4,0,.8,0,1.7,0,2.7Z"/>
    <path d="M895.3,355.6c.5-.1.9-.2,1.3-.1.3,0,.5.1.8.2-.2.3-.3.7-.6.8-.4.2-.9,0-1.3.2-.5.2-.9.6-1.4.9.4-.6.7-1.2,1.3-1.9Z"/>
    <path d="M881.3,261c-.3-.4-.3-1.1-.3-1.1.6,0,1.1-.1,1.7,0,.3,0,.6.3.9.4-.3.2-.6.6-.9.7-.3.1-.7,0-1.4,0Z"/>
    <path d="M914,334c-.5.5-.9,1-1.3,1.3-.1,0-.6,0-.7-.2-.1-.2-.1-.6,0-.7.6-.5,1.1-2.1,2-.4Z"/>
    <path d="M900.9,387.8c.6,0,.9,0,1.1,0,.6,0,1.1.2,1.7.4-.8.3-1.7.7-2.5.7-.4,0-.8-.7-1.2-1.1h.9Z"/>
    <path d="M905.5,361.3c-.8.3-1.5.4-2.3.2-.3,0-.4-.7-.6-1.1.3,0,.7.2,1,.3.6.1,1.2.2,1.8.6Z"/>
    <path d="M884.1,334.9c-.4-.5-.6-.8-.9-1.1.5,0,1.1-.1,1.5.1.2.1.1.8.2,1.3.1.5,1.2.5.6,1.3-.4-.5-.9-1-1.5-1.6Z"/>
    <path d="M336.8,62c.3.5.4.8.5,1.1.3.4.6.8.9,1.2-.5-.2-1.3-.3-1.5-.7-.4-.6-.5-1.5-.6-2.3,0,0,.2-.1.4-.2,0,.3.1.5.3.9Z"/>
    <path d="M672.1,3.9c-.3.6-.5.9-.8,1.1-.2.1-.6,0-.7,0-.2-.1-.2-.5-.2-.7.1-.4.3-.8.6-1.1.3-.3.6-.5,1-.8,0,.4.1.9.2,1.6Z"/>
    <path d="M874.8,372.6c-.4.3-.7.4-.9.5.2-1,.3-1.9.5-2.9,0-.2.5-.4.6-.3.3.1.6.4.9.6-.2.2-.4.3-.5.5-.2.5-.3,1-.6,1.6Z"/>
    <path d="M872.8,282.7c.5.7.5,1.7,1.6,1.3,0,0,.3.2.5.4-.3.2-.5.7-.8.7-1.2,0-2.1-1.4-1.8-2.7,0,0,.1,0,.2,0,0,0,.1.1.3.3Z"/>
    <path d="M893.9,364.9c-.2-.5-.4-.8-.4-1.2,0-.2.3-.3.5-.5.4.7.9,1.3,1.2,2.1,0,.2-.6.7-.9,1.1,0-.4-.1-.9-.3-1.5Z"/>
    <path d="M620.6,52.7c-1,.3-1.1-.2-1-.8,0-.6.2-1.2.2-1.9.3.1.9.2.9.3,0,.7,0,1.5-.1,2.4Z"/>
    <path d="M846.2,174.4c-.5.1-1,.3-1.4.1-1.1-.4-2.1-.9-3.1-1.4,0,0,0-.2,0-.2,1,.3,1.9.6,2.9.9.5.2,1,.3,1.5.5Z"/>
    <path d="M890.5,399.9c-.2-.9-.4-1.5-.6-2.1,0-.2.1-.5.2-.8.2.2.5.3.6.5.3,1,.6,2.1.9,3.1,0,0-.3.3-.3.3-.3-.3-.6-.5-.8-1.1Z"/>
    <path d="M413.9,58.1c-.8.2,0,2-1.2,1.3-1-.6-.4-1.2.2-1.8.2-.2.4-.4.6-.6.1.2.3.5.4,1Z"/>
    <path d="M342.5,247c-.2-.2-.3-.3-.3-.3-.7-.3-1.4-.7-2.1-1,.3,0,.8-.4,1-.2.9.5,2.4.4,2.4,2.1-.3-.1-.5-.2-.9-.5Z"/>
    <path d="M871.1,409.3c.8,0,1.5.2,2.2.4.3,0,.7.1,1.1.2-.1.2-.2.5-.4.6-.4.1-.8.2-1.1.1-.6-.3-1.2-.8-1.6-1.3Z"/>
    <path d="M871.1,398c-.3-1,.3-1.1.9-1,.3,0,.7.4.7.6,0,.5-.1,1.1-.2,1.6-.4-.4-.8-.7-1.4-1.2Z"/>
    <path d="M851.3,404.6c1-.5,2-.3,2.9-.1.2,0,.3.5.5.8-.3,0-.7.3-.9.3-.9-.2-1.7-.5-2.5-.9Z"/>
    <path d="M837.1,370.3c0-.9.2-1.7.4-2.5,0-.3.3-.5.4-.7.3.4.8.9.7,1.1-.3.8-.9,1.5-1.5,2.1Z"/>
    <path d="M892.7,324.2c-1.1.3-2.1.6-3.1.7-.2,0-.5-.1-.8-.2.2-.2.3-.6.5-.6,1.2,0,2.3,0,3.3,0Z"/>
    <path d="M661.7,135.3c-.6-.2-1.1-.6-1.1-.7.2-.6.5-1.1.8-1.6.3.3.7.6.8,1,0,.4-.2.8-.5,1.3Z"/>
    <path d="M880.9,384.8c0-.4,0-.7,0-.9.2.1.4.3.6.4.5.4,1,.9,1.5,1.3,0,0-.2.3-.2.4-.6-.4-1.2-.7-1.9-1.3Z"/>
    <path d="M802.2,207.5c-.2-.3-.4-.4-.4-.6-.2-.6-.3-1.1-.4-1.7.3,0,.7-.2.7,0,.3.6.6,1.3.8,1.9,0,.2,0,.5-.2.8,0,0-.1,0-.2,0,0,0-.1-.1-.3-.3Z"/>
    <path d="M893.3,315.3c0,.6,0,1,0,1.5-.3-.2-.6-.4-.8-.6-.3-.3-.6-.8-.6-1.2,0-.5.4-1.1.7-1.6.1.4.2.9.3,1.3,0,.2.2.3.4.6Z"/>
    <path d="M921.2,409c-.9-.1-1.7-.1-2.5-.1-.2,0-.4,0-.5-.1,0-.1,0-.5,0-.5,1.1,0,2.3,0,3.4.2,0,.2-.2.5-.4.6Z"/>
    <path d="M467,34.6c.6.1,1.3.3,1.5.7.2.4,0,1.3-.3,1.4-.9.3-.7-.5-.8-1,0-.3-.4-.6-.4-1.1Z"/>
    <path d="M960.9,421.8c-.9-.2-1.5-.3-2-.6-.2-.1-.2-.6-.2-.9.3.1.5.3.8.4.8.2,1.5.4,2.3.6,0,0,.1.2.2.4-.3,0-.5.1-1.1.2Z"/>
    <path d="M1018.6,411.8c-.1-.5-.2-.9-.1-1.3,0-.5.3-.9.4-1.3.3.5.7.9.7,1.4,0,.5-.5.9-.9,1.2Z"/>
    <path d="M381.6,75.9c-.7-.4-1.1-.8-1.5-1.2-.2-.2,0-.6-.1-1,.3.2.6.3.8.6.4.5.7,1.1.8,1.6Z"/>
    <path d="M908,234.6c.2-.2.3-.3.3-.3.8-.3.3-1.8,1.6-1.5.1,0,.3.4.2.4-.6.7-.7,2.3-2.1,1.4Z"/>
    <path d="M861,395.1c.5-.2.8-.3,1.1-.3,0,.3,0,.8,0,.9-.4.3-.9.5-1.4.6-.2,0-.4-.2-.6-.4.3-.2.6-.5,1-.9Z"/>
    <path d="M823,390.8c0,.3-.2.7-.5.7-.7.1-1.4.1-2.1.1,0-.1,0-.4.1-.4.6-.2,1.2-.4,1.8-.6.2,0,.4,0,.7.1Z"/>
    <path d="M859.4,389.5c-.3.6-.5.8-.8,1.1-.1-.3-.3-.5-.4-.8,0-.2,0-.4,0-.6.1-.5.2-.9.4-1.3.3.5.5.9.8,1.6Z"/>
    <path d="M893.4,262.8c.7.3,1.5.5,2,1.1.3.3.1,1,.2,1.5-.3-.3-.5-.7-.8-1-.4-.5-.9-.9-1.4-1.5Z"/>
    <path d="M659.4,108.8c0,.4-.1.4-.2.5-.5.4-.9.7-1.4,1.1,0-.3-.3-.8-.1-1,.3-.6.6-1.7,1.7-.6Z"/>
    <path d="M855.5,362.9c-.1-.5-.2-.9-.1-1.3,0-.3.1-.5.2-.8.3.2.7.4.8.6.2.5.3,1.1.1,1.6-.3,1.1-.5,0-1-.2Z"/>
    <path d="M587.9,159c0,.8.1,1.3,0,1.7-.2.4-.6.7-.9,1.1,0-.4.1-.8.2-1.2.1-.7.2-1.4.4-2.1,0,0,.1,0,.2,0,0,0,.1.1.2.5Z"/>
    <path d="M885.5,352.8c.3-.1.6-.2.7-.1.5.4,1,.9,1.4,1.4,0,0,0,.1-.1.2-.5-.8-2.1.3-2-1.4Z"/>
    <path d="M933.6,237.2c-.3.1-.5.2-.7.1-.5,0-1-.2-1.4-.3.3-.3.5-.7.8-.7.6,0,1.6-.5,1.3.9Z"/>
    <path d="M919.5,240.4c1.8,0,.7,1.2,1,1.9-.2,0-.5,0-.6,0-.2-.5-.4-1.1-.4-1.8Z"/>
    <path d="M857.5,339.8c-.3.1-.5.2-.7.1-.5-.2-.9-.5-1.3-.7.1-.1.3-.4.4-.4.6.3,1.8-.7,1.6,1Z"/>
    <path d="M883.2,352.5c-.1-.9-.2-1.6-.1-2.4,0,0,.3,0,.5-.1.2.8.4,1.6.5,2.5,0,0-.5.1-.9,0Z"/>
    <path d="M453.2,20.2c.7.2,1.4.6,1.9,1.1.2.2.1.6.2.9-.3-.2-.6-.3-.8-.5-.5-.4-.9-.9-1.3-1.5Z"/>
    <path d="M382.7,84.6c-.5-.3-.8-1.9-.4-2.2,0,0,.3,0,.4.1.8.6.8,1.2,0,2Z"/>
    <path d="M880.7,374.4c-.6.1-1.2.2-1.7.1-.4,0-.7-.2-1.1-.4.5-.2.9-.7,1.4-.6.5,0,.9.5,1.4.9Z"/>
    <path d="M804.2,375.5c0,.5-.1.8-.3,1.1-.3-.5-.7-1-1-1.6,0-.1.3-.4.4-.6.2.3.5.6.9,1Z"/>
    <path d="M737.2,179.1c-.3.5-1.9.8-2.2.4,0,0,0-.3.1-.4.6-.8,1.2-.8,2,0Z"/>
    <path d="M461.3,110.4c0-.8,0-1.5.2-2.2.2,0,.6,0,.7.2.4.9,0,1.5-.9,1.9Z"/>
    <path d="M259.4,60.4c-.2-.7-.4-1.1-.5-1.5.3.2.8.3,1,.5.3.3.5.8.6,1.2,0,.3-.2.6-.2.9-.3-.3-.5-.5-.8-1.1Z"/>
    <path d="M62.3,88.6c.5,0,.8.1,1.1.2-.3,1-1.1,1.1-1.9.9-.1,0-.3-.6-.3-.7.2-.2.5-.3,1.1-.5Z"/>
    <path d="M849.5,379c-.8,0-1.5-.2-2.1-.4-.2,0-.3-.1-.5-.2,0-.1,0-.3.1-.4.8.4,2.3-1,2.5,1Z"/>
    <path d="M870.9,175.7c-1.3-.1-2.3-.3-3.4-.4,1,0,2-.1,3-.2.3,0,.5.1.8.2,0,0,0,.1,0,.2,0,0-.1.1-.5.2Z"/>
    <path d="M879,311.7c-1.1-.1-2-.3-2.8-.4.8,0,1.7-.1,2.5-.2.4,0,.8,0,1.1,0,0,0,.2.2.2.4-.3,0-.5.1-1.1.2Z"/>
    <path d="M916.9,263.4c-.6-.2-1-.3-1.5-.3.3-.1.6-.3,1-.4.4,0,.8-.1,1.1,0,.3.1.5.5.7.8-.4,0-.8,0-1.3-.1Z"/>
    <path d="M889.5,260.8c.2-.4.5-.9.9-1,.4,0,.9.3,1.3.5-.4.2-.8.5-1.2.6-.2,0-.5,0-1-.1Z"/>
    <path d="M630.2,140.6c.3-.1.5-.2.7-.1.5,0,1,.2,1.4.3-.3.3-.5.7-.8.7-.6,0-1.6.5-1.3-.9Z"/>
    <path d="M670.5,9.5c0-.8,0-1.6.3-2.1.3-.5.7.4.3,1.3,0,.2-.1.5-.2.7,0,0-.1.1-.3,0Z"/>
    <path d="M828.3,389.9c-.2.1-.5.2-.6.1-.4-.4-.8-.9-1.2-1.4,0,0,.3-.3.3-.3.5.4.9.9,1.4,1.5Z"/>
    <path d="M806.8,385.9c-.6,0-1,0-1.5,0,.6-.3,1.2-1,1.7-.9,1.1.2,0,.5-.2.9Z"/>
    <path d="M54,91.4c.3,0,.5.3.7.5-.4.2-.8.4-1.2.6-.3.1-.6,0-1,.1.2-.3.5-.7.8-1,0,0,.4,0,.7-.2Z"/>
    <path d="M899.6,379.3c.3-.5.3-.5.9-.3.5.2,1,.3,1.6.4-.6.1-1.2.2-1.8.3-.1,0-.3-.2-.6-.4Z"/>
    <path d="M511.3,104.2c.3-.2.7-.2.8,0,.3.5.6,1,.8,1.6-.5-.4-1-.7-1.4-1.1,0,0-.1-.1-.2-.5Z"/>
    <path d="M981,406.2c.4.1.5.3.5.4-.4.6-.9,1.3-1.3,1.9-.9-1,.7-1.5.9-2.3Z"/>
    <path d="M373.1,257.4c.2.5.4.8.4,1.2,0,.2,0,.4-.1.5,0,0-.4,0-.4,0-.2-.8-.3-1.7-.5-2.5.1.2.3.3.4.5,0,0,0,.2.2.4Z"/>
    <path d="M903.8,283.5c-.9-.3-1.6-.6-2.2-1,1.1-.7,1.8.4,2.7.6,0,0,0,.1,0,.2,0,0-.1.1-.5.2Z"/>
    <path d="M658.1,117.6c.3,1.2-.5,1-1.1,1-.2,0-.3-.5-.5-.7.5-.1,1-.3,1.6-.2Z"/>
    <path d="M786.6,400c.1.2.2.3.1.4-.3.6-.5,1.1-.8,1.7-.1-.1-.3-.2-.3-.3.1-.5.3-1,.5-1.5,0-.2.3-.3.5-.3Z"/>
    <path d="M753.8,401.8c-.1-.3-.1-.5-.1-.7.6.4,1.2.8,1.7,1.2,0,0,.1.3,0,.4-.1,0-.4.2-.5.1-.4-.2-.7-.6-1.2-1Z"/>
    <path d="M944.1,246.6c-.5-.2-.7-.4-.9-.6-.1-.3-.1-.6-.2-.9.3.1.5.4.8.4,1,0,1.1.4.3,1.2Z"/>
    <path d="M910.3,236.6c-.4-.4-1-.7-.3-1.1.3-.2.8-.2,1.2-.3,0,.3,0,.7-.2,1-.1.2-.4.4-.7.5Z"/>
    <path d="M885.5,327.4c.3.2.3.7.6.8,1,.7-.7,1-.1,1.6-.1,0-.3.2-.4.2,0-.5-.2-.9-.2-1.4,0-.4,0-.8.1-1.3Z"/>
    <path d="M664,121.6c0-.1.3-.2.3-.1,0,1.1.2,2.1.2,3.2,0,0-.2,0-.4,0,0-1,0-2-.1-3.2Z"/>
    <path d="M322.6,127.4c.3.9.5,1.7.7,2.5,0,0-.3,0-.4.1,0-.9-1.4-1.6-.3-2.6Z"/>
    <path d="M420.7,69.6c-.3.5-.5.8-.8,1.1-.1-.4-.4-.8-.3-1,.2-.4.7-.6,1.1-.9v.8Z"/>
    <path d="M931,293.4c.6,0,1,0,1.4,0-.3.3-.6.7-.9,1-.2-.3-.4-.6-.5-1Z"/>
    <path d="M668.6,68.6c.3,0,.6.2.8.4.2.2.2.6.2.9,0,0-.6.3-.7.2-.2-.2-.3-.6-.4-.9,0-.2,0-.4,0-.7Z"/>
    <path d="M895.2,298.4c-.6-.4-.8-2-.4-2.2,0,0,.3.3.4.5,0,.5,0,.9,0,1.7Z"/>
    <path d="M939.5,243.1c0-.7.1-1.2.2-1.6.2.1.4.2.6.3.7.7-.4,1.1-.4,1.7,0,0-.1,0-.2,0,0,0-.1-.1-.2-.5Z"/>
    <path d="M471.9,76.1c0,.4-.3.7-.5,1-.2-.3-.5-.7-.5-1,0-1.3.5-.3,1,0Z"/>
    <path d="M877.4,315c-.2-.9,0-1.2.8-.9.3.1.5.6.7.9-.4,0-.9,0-1.4,0Z"/>
    <path d="M847.5,401.5c.3.1.5.1.7.1-.2.2-.5.6-.6.5-.4-.3-.8-.7-1.2-1,.3,0,.7.1,1.1.3Z"/>
    <path d="M872,315c-.7.8-1.3,1-2.1.5.5-.3,1-.7,1.5-.9.2,0,.5.2.6.4Z"/>
    <path d="M906.7,289.2c-.5-.1-.8-.3-1.1-.4.3-.3.6-.8.8-.7.5.2.9.6,1.3.9-.3,0-.5.1-1,.2Z"/>
    <path d="M908.6,248.4c-.4.2-.6.3-.9.4,0-.2,0-.5,0-.7.1-.2.4-.5.6-.6.2,0,.5,0,.7,0,0,.2-.2.5-.4.9Z"/>
    <path d="M837.5,397c.4-.3.8-.3,1.2-.3,0,.4-.1.9-.2,1.3-.3-.2-.7-.5-1-1Z"/>
    <path d="M899.3,250.2c.9-.2,1.2,0,.9.8-.1.3-.6.5-.9.7,0-.4,0-.9,0-1.4Z"/>
    <path d="M979.9,395.8c-.5-.2-.7-.4-.9-.6-.2-.1-.5-.1-.7-.2.2-.1.3-.4.5-.4.8,0,1.6,0,1.2,1.1Z"/>
    <path d="M910.7,318c.5,0,.8.1,1,.2-.3.3-.5.7-.8.9-.1,0-.6-.2-.8-.4,0,0,.2-.5.5-.7Z"/>
    <path d="M714.3,97.7c-.3-1.2.5-1,1.1-1,.2,0,.3.1.5.2-.5.3-.9.6-1.5.8Z"/>
    <path d="M416.3,100c-.3-.6-.4-1-.6-1.5.2,0,.5,0,.7,0,0,.6,0,1.1-.2,1.5Z"/>
    <path d="M120.9,166.9c-.3,0-.6-.2-.7-.4-.1-.3-.2-.6-.2-.9,0,0,.6-.3.7-.2.2.2.3.6.4.9,0,.2,0,.4-.1.7Z"/>
    <path d="M952.8,378.6c0,.5-.1.8-.2,1-.3-.3-.7-.5-.9-.8,0-.1.2-.6.4-.8,0,0,.5.2.7.5Z"/>
    <path d="M877.9,283.5c.3.4.3.8.3,1.2-.4,0-.9-.1-1.3-.2.2-.3.5-.7,1-1Z"/>
    <path d="M880.3,213.9c.4,0,.8,0,.9,0,.3.4.4.9.6,1.4-.3-.2-.7-.4-1-.7-.2-.2-.4-.4-.5-.7Z"/>
    <path d="M860.6,328.4c-.5-.1-.8-.3-1.1-.4.4-.2.7-.5,1.2-.5.3,0,.7,0,1,.1-.3.3-.5.5-1.1.8Z"/>
    <path d="M657.2,151.6c.6,0,1,0,1.4,0-.3.3-.6.7-.9,1-.2-.3-.4-.6-.5-1Z"/>
    <path d="M410.3,37.2c-.9.2-1.2,0-.9-.8.1-.3.6-.5.9-.7,0,.4,0,.9,0,1.4Z"/>
    <path d="M856.7,378.4c0-.4.3-.7.5-1,.2.3.5.7.5,1,0,1.3-.5.3-1,0Z"/>
    <path d="M913.5,408.7c0,.2-.3.4-.5.4-.4,0-.7-.3-1-.5.1-.2.2-.4.3-.7.4.2.7.4,1.3.7Z"/>
    <path d="M884.1,338.4c1.2.8-.2,1.3,0,1.9-.2,0-.5-.1-.5-.2,0-.6.2-1.3.4-1.7Z"/>
    <path d="M631.9,66.6c1-.9,1.2.1,1.6.8,0,0-.1.3-.2.5-.1-.1-.3-.2-.4-.3-.3-.3-.5-.5-.9-.9Z"/>
    <path d="M833.9,377.8c-.8-.2-2.1.9-2.1-.5,0-.7,1.1.4,1.8,0,0,0,.3.2.3.4Z"/>
    <path d="M500.3,135.9c.2-.4.5-.6.7-.6.3,0,.7.2,1,.3-.3.3-.5.6-.8.8-.3,0-.6,0-.9-.5Z"/>
    <path d="M661.3,130.9c.5-.3.9-.5,1.3-.7-.2.5-.3,1-.5,1.6-.3-.2-.7-.5-.9-.9Z"/>
    <path d="M659.5,128c.4,0,.7.3,1,.5-.2.2-.3.3-.5.5-.2-.3-.4-.6-.5-1Z"/>
    <path d="M130.3,280.6c-.5,0-.7,0-.8,0,0-.1,0-.5,0-.5.4-.2.9-.3,1.3-.4,0,.3-.1.6-.5,1Z"/>
    <path d="M897.6,365.7c0-.4.3-.7.5-1,.2.2.3.3.5.5-.3.2-.6.4-1,.5Z"/>
    <path d="M916.3,364.9c.3.3.5.5.7.8-.2,0-.4.3-.5.2-.4-.3-.8-.6-1.2-.9.3,0,.5-.1.9,0Z"/>
    <path d="M492.7,133.7c.4.4,1,.7.3,1.2-.2.1-.3.3-.4.4-.1-.3-.3-.6-.3-1,0-.2.2-.5.4-.6Z"/>
    <path d="M917.6,347.4c0,.4-.1.8-.3,1.1-.3-.3-.5-.5-.8-.8.3-.1.5-.2,1.1-.4Z"/>
    <path d="M953.5,369.2c0-.4.1-.6.3-.9.3.5,1.2.8.5,1.6,0,0-.4-.3-.7-.7Z"/>
    <path d="M954.5,408c0-.5,0-.7,0-.9,0-.3.1-.5.2-.8.1.2.4.3.4.5,0,.5,0,1.1-.2,1.6,0,0-.1,0-.2,0,0,0-.1-.1-.2-.5Z"/>
    <path d="M842.1,269.6c-.5-.3-.8-.6-1-1,.2,0,.4-.2.5-.2.3.4.6.8.6,1.1Z"/>
    <path d="M321.8,61.4c0-.2,0-.3,0-.3.7,0,1.4,0,2.1.1-.7.1-1.3.2-2.1.2Z"/>
    <path d="M880.3,342.1c.5,1.3-.5.5-.8.7-.1-.1-.3-.3-.4-.4.3-.1.7-.3,1.2-.3Z"/>
    <path d="M843.1,378.1c0-.3.3-.5.5-.7.2.3.4.7.7,1-.3,0-.7-.1-1.1-.3Z"/>
    <path d="M656.5,147.3c-.4,0-.8-.3-1.2-.5.2-.2.3-.3.5-.5.2.3.4.6.7,1Z"/>
    <path d="M789.1,407.4c-.4-.1-.8-.5-1.1-.9.1,0,.4-.3.4-.3.3.3.5.6.7,1.1Z"/>
    <path d="M337.3,266.6c.2-.2.6-.2,1-.2,0,.4,0,.9,0,1.3-.2-.3-.5-.7-.9-1.1Z"/>
    <path d="M362.4,45.8c-.4,0-.6-.1-.9-.3.5-.3.8-1.2,1.6-.5,0,0-.3.4-.7.7Z"/>
    <path d="M882.3,326.2c0,.4-.3.7-.5,1-.2-.2-.3-.3-.5-.5.3-.2.6-.4,1-.5Z"/>
    <path d="M858.8,381.6c.2.4.4.9.6,1.4,0,.2-.1.5-.2.7-.1-.3-.3-.6-.3-.9,0-.4,0-.7,0-1.2Z"/>
    <path d="M947.6,264.4c-.4.3-.8.3-1.2.3,0,0,0-.5,0-.5.4,0,.8,0,1.2.3Z"/>
    <path d="M865,319.8c0,.4-.3.8-.5,1.2-.2-.2-.3-.3-.5-.5.3-.2.6-.4,1-.7Z"/>
    <path d="M874.8,387.1c-.3-.2-.4-.5-.5-.8,0-.3-.2-.5-.2-.8.3.2.7.4.9.6.1.2,0,.5-.1.9Z"/>
    <path d="M877.7,262.7c.1.5.2.9.1,1.4,0,.3-.2.6-.3.9,0-.2-.2-.5-.2-.7,0-.5.2-1,.4-1.5Z"/>
    <path d="M902.1,263.3c-.2.3-.5.3-.6.3-.2-.4-.3-.9-.4-1.3.3.3.6.5,1,1Z"/>
    <path d="M882.3,320.2c-.9-.6,0-1,.3-1.4,0,0,.3,0,.4.1-.2.4-.4.8-.7,1.3Z"/>
    <path d="M895.6,386.5c-.4,0-.7-.3-1-.5.2-.2.3-.3.5-.5.2.3.4.6.5,1Z"/>
    <path d="M897.3,263.1c-.3-.2-.4-.5-.5-.8,0-.3-.2-.5-.2-.8.3.2.7.3.9.6.1.2,0,.5-.1.9Z"/>
    <path d="M669.6,167.5c-.3.3-.5.5-.8.7,0-.2-.3-.4-.2-.5.3-.4.6-.8.9-1.2,0,.3.1.5,0,.9Z"/>
    <path d="M872.2,226c.4,0,.7.3,1,.5-.2.2-.3.3-.5.5-.2-.3-.4-.6-.5-1Z"/>
    <path d="M815.2,390.8c.2,0,.3,0,.3,0,.4.3.8.5,1.2.7-.2,0-.3.2-.5.2-.6,0-1.4.2-1.1-1Z"/>
    <path d="M891,319c-.4-.2-.6-.5-.9-.9.5,0,1,0,1.6.1-.2.2-.4.4-.7.8Z"/>
    <path d="M967.9,406.1c.6-.9,1,0,1.4.3,0,0,0,.3-.1.4-.4-.2-.8-.4-1.3-.7Z"/>
    <path d="M341.8,87.5c.4.1.8.5,1.1.9-.1,0-.4.3-.4.3-.3-.3-.5-.6-.7-1.1Z"/>
    <path d="M781.7,417c0,.5-.3.9-.5,1.2,0-.5,0-1,0-1.6,0,0,.1,0,.2,0,0,0,.1.1.3.3Z"/>
    <path d="M787.2,394.3c0,.4-.1.6-.3.9-.3-.5-1.2-.8-.5-1.6,0,0,.4.3.7.7Z"/>
    <path d="M854.1,287.9c-.6.1-1.1.2-1.5.1-.2,0-.4-.2-.6-.3.2,0,.3-.2.4-.2.6,0,1.2.2,1.7.4Z"/>
    <path d="M347.4,183.3c0-.3.3-.5.5-.7.2.3.4.7.7,1-.3,0-.7-.1-1.1-.3Z"/>
    <path d="M840.4,398.7c.3.4.3.8.3,1.2-.4-.3-.9-.6-1.3-1,.3,0,.5-.1,1-.2Z"/>
    <path d="M122.6,315.9c0,.4-.3.7-.5,1-.2-.2-.3-.3-.5-.5.3-.2.6-.4,1-.5Z"/>
    <path d="M885.2,181.3c-.3.3-.5.5-.8.7,0-.4-.2-.9-.2-1.3,0,0,.4-.2.5,0,.2.1.4.4.5.7Z"/>
    <path d="M790.8,410.3c-.3-.4-.3-.8-.3-1.2,0,0,.5,0,.5,0,0,.4,0,.8-.3,1.2Z"/>
    <path d="M893.4,308.8c.4.1.8.5,1.1.9-.1,0-.4.3-.4.3-.3-.3-.5-.6-.7-1.1Z"/>
    <path d="M865.3,308.8c0-.4.3-.8.5-1.2l.5.5c-.3.2-.6.4-1,.7Z"/>
    <path d="M850.8,403.8c-.5.1-.9.2-1.4.1-.3,0-.6-.2-.9-.3.2,0,.5-.2.7-.2.5,0,1,.2,1.5.4Z"/>
    <path d="M406.4,72.5c.4-.3.8-.3,1.2-.3,0,0,0,.5,0,.5-.4,0-.8,0-1.2-.3Z"/>
    <path d="M778.9,179c0-.4.3-.7.5-1,.2.2.3.3.5.5-.3.2-.6.4-1,.5Z"/>
    <path d="M515.7,238.9c-.2-.3-.4-.7-.4-1.1,0-.2.5-.3.7-.5,0,.3-.1.6-.2.9,0,.2,0,.4-.1.7Z"/>
    <path d="M94.1,235.2c.2.2.2.6.2,1-.3,0-.6-.2-.9-.3l.7-.7Z"/>
    <path d="M956.1,421.4c-.2.2-.6.2-1,.2l.3-.9c.2.2.4.4.7.7Z"/>
    <path d="M444,0c.2.2.4.5.4.8,0,.2-.1.5-.2.7-.1-.3-.2-.6-.3-.9,0-.2,0-.4.1-.7Z"/>
    <path d="M858.3,418.9c-1.2.6-.3-.3-.6-.6,0,0,.2-.3.4-.5,0,.3.1.5.2,1.1Z"/>
    <path d="M786.4,417.3c.4,0,.7.3,1,.5,0,0-.1.3-.2.4-.3-.3-.6-.5-.8-.9Z"/>
    <path d="M478.6,22.5c.2.2.2.6.2,1-.3,0-.6-.2-.9-.3.2-.2.4-.4.7-.7Z"/>
    <path d="M796.7,412.7c.2.2.4.5.4.8,0,.2-.1.5-.2.7-.1-.3-.2-.6-.3-.9,0-.2,0-.4.1-.7Z"/>
    <path d="M943.7,412.4c-.3-.3-.5-.5-.7-.7.3,0,.6-.2.9-.3,0,.4,0,.7-.2,1Z"/>
    <path d="M925.8,235.8c.4-.1.7-.2,1-.1.2,0,.4.2.6.3-.1,0-.3.2-.4.2-.4,0-.8-.2-1.1-.4Z"/>
    <path d="M417.7,46.1c0,.4-.3.7-.5,1,0,0-.3-.1-.4-.2.3-.3.5-.6.9-.8Z"/>
    <path d="M297.6,58.2c.2.2.2.6.2,1-.3,0-.6-.2-.9-.3.2-.2.4-.4.7-.7Z"/>
    <path d="M945.4,241.5c.4,0,.6,0,.9,0-.3.3-.6.6-.9.9,0-.2-.1-.5,0-.9Z"/>
    <path d="M988,405.1c-.6-1.2.3-.3.6-.6,0,0,.3.2.5.4-.3,0-.5.1-1.1.2Z"/>
    <path d="M971.1,401.8c.1.4.2.7.1,1,0,.2-.2.4-.3.6,0-.1-.2-.3-.2-.4,0-.4.2-.8.4-1.1Z"/>
    <path d="M946.3,400.9c-.4,0-.7-.3-1-.5,0,0,.1-.3.2-.4.3.3.6.5.8.9Z"/>
    <path d="M258.4,80.1c.4,0,.6,0,.9,0l-.9.9c0-.2-.1-.5,0-.9Z"/>
    <path d="M649.7,83.6c.2.2.4.5.4.8,0,.2-.1.5-.2.7-.1-.3-.2-.6-.3-.9,0-.2,0-.4.1-.7Z"/>
    <path d="M853.8,394.6c0,.3-.2.5-.4.7,0-.4,0-.7-.1-1.1,0,0,.1,0,.2,0,0,0,.1.1.3.3Z"/>
    <path d="M58.9,90.5c.3-.3.5-.5.7-.7,0,.3.2.6.3.9-.4,0-.7,0-1-.2Z"/>
    <path d="M895.2,391.2c0-.5.1-.8.2-1.1.1,0,.4.1.4.2,0,.4,0,.9-.2,1.3,0,0-.1,0-.2,0,0,0-.1-.1-.2-.5Z"/>
    <path d="M461,91.9c-.4-.2-.7-.5-.9-.8.1,0,.4-.2.4-.2.2.3.4.6.5,1Z"/>
    <path d="M412.3,95.7c.4-.1.7-.2,1-.1.2,0,.4.2.6.3-.1,0-.3.2-.4.2-.4,0-.8-.2-1.1-.4Z"/>
    <path d="M504.9,99.6c-.3-.4-.3-.8-.3-1.1.2.4.4.8.3,1.1Z"/>
    <path d="M658.4,100.6c.2-.4.5-.7.8-.9,0,.1.2.4.2.4-.3.2-.6.4-1,.5Z"/>
    <path d="M833,383.9c.4.2.7.5.9.8-.1,0-.4.2-.4.2-.2-.3-.4-.6-.5-1Z"/>
    <path d="M883.2,380.4c.4-.1.7-.2,1-.1.2,0,.4.2.6.3-.1,0-.3.2-.4.2-.4,0-.8-.2-1.1-.4Z"/>
    <path d="M905.1,254.5c0-.4,0-.6,0-.9l.9.9c-.2,0-.5.1-.9,0Z"/>
    <path d="M893.3,229.7c-.4-.2-.7-.5-.9-.8.1,0,.4-.2.4-.2.2.3.4.6.5,1Z"/>
    <path d="M862.7,381.3c-.4-.2-.7-.5-.9-.8.1,0,.4-.2.4-.2.2.3.4.6.5,1Z"/>
    <path d="M866.9,380.1c-.4,0-.8-.3-1.1-.5,0,0,.1-.3.2-.4.3.3.6.5.9.9Z"/>
    <path d="M878.4,257.5c.3.4.3.8.3,1.1-.2-.4-.4-.8-.3-1.1Z"/>
    <path d="M800.2,380.1c0-.4.3-.7.5-1,0,0,.3.1.4.2-.3.3-.5.6-.9.8Z"/>
    <path d="M1000.5,379.6c-.2-.2-.4-.5-.4-.8,0-.2.1-.5.2-.7.1.3.2.6.3.9,0,.2,0,.4-.1.7Z"/>
    <path d="M514.7,102.5c0,.5-.1.8-.2,1.1-.1,0-.4-.1-.4-.2,0-.4.1-.9.2-1.3,0,0,.1,0,.2,0,0,0,.1.1.2.5Z"/>
    <path d="M913.2,377c.4-.1.7-.2,1-.1.2,0,.4.2.6.3-.1,0-.3.2-.4.2-.4,0-.8-.2-1.1-.4Z"/>
    <path d="M664,121.3c-.8,0-.7-.5-.3-.9.1-.1.6.1.9.2-.2.2-.4.4-.6.7Z"/>
    <path d="M835.8,366.5c.4,0,.8.1,1.1.3-.4,0-.8,0-1.1-.3Z"/>
    <path d="M663.3,127.7c.3,0,.5.2.7.4-.4,0-.7,0-1.1.1,0,0,0-.1,0-.2,0,0,.1-.1.3-.3Z"/>
    <path d="M907.7,355.4c-.4,0-.6,0-.9,0l.9-.9c0,.2.1.5,0,.9Z"/>
    <path d="M265,132.9c-.2-.2-.4-.5-.4-.8,0-.2.1-.5.2-.7.1.3.2.6.3.9,0,.2,0,.4-.1.7Z"/>
    <path d="M825.8,349c-.4,0-.7-.3-1-.5,0,0,.1-.3.2-.4.3.3.6.5.8.9Z"/>
    <path d="M662.3,138.2c-1.2.6-.3-.3-.6-.6,0,0,.2-.3.4-.5,0,.3.1.5.2,1.1Z"/>
    <path d="M848.3,339.2c-.4.1-.7.2-1,.1-.2,0-.4-.2-.6-.3.1,0,.3-.2.4-.2.4,0,.8.2,1.1.4Z"/>
    <path d="M874,221.6c0-.4,0-.6,0-.9.3.3.6.6.9.9-.2,0-.5.1-.9,0Z"/>
    <path d="M874.3,218.2c-.4.1-.7.2-1,.1-.2,0-.4-.2-.6-.3.1,0,.3-.2.4-.2.4,0,.8.2,1.1.4Z"/>
    <path d="M653.8,145.3c.3-.3.5-.5.7-.7,0,.3.2.6.3.9-.4,0-.7,0-1-.2Z"/>
    <path d="M642.3,146.1c-.3-.3-.5-.5-.7-.7.3,0,.6-.2.9-.3,0,.4,0,.7-.2,1Z"/>
    <path d="M880.7,263.9c.4-.3.8-.3,1.1-.3-.4.2-.8.4-1.1.3Z"/>
    <path d="M395.3,147.3c-.4,0-.7-.3-1-.5,0,0,.1-.3.2-.4.3.3.6.5.8.9Z"/>
    <path d="M924.7,332c.4.2.7.5.9.8-.1,0-.4.2-.4.2-.2-.3-.4-.6-.5-1Z"/>
    <path d="M857.5,330.9c0,.4-.3.7-.5,1,0,0-.3-.1-.4-.2.3-.3.5-.6.9-.8Z"/>
    <path d="M350,162c.4,0,.7.3,1,.5,0,0-.1.3-.2.4-.3-.3-.6-.5-.8-.9Z"/>
    <path d="M923,269.5c0,.3-.2.5-.4.7,0-.4,0-.7-.1-1.1,0,0,.1,0,.2,0,0,0,.1.1.3.3Z"/>
    <path d="M872.7,322.6c.6,1.2-.3.3-.6.6,0,0-.3-.2-.5-.4.3,0,.5-.1,1.1-.2Z"/>
    <path d="M863,323.1c.2-.4.5-.7.8-.9,0,.1.2.4.2.4-.3.2-.6.4-1,.5Z"/>
    <path d="M904.4,321.5c.3.4.3.8.3,1.1-.2-.4-.4-.8-.3-1.1Z"/>
    <path d="M665,165.7c-.4.1-.7.2-1,.1-.2,0-.4-.2-.6-.3.1,0,.3-.2.4-.2.4,0,.8.2,1.1.4Z"/>
    <path d="M891.5,321.4c-.4.1-.7.2-1,.1-.2,0-.4-.2-.6-.3.1,0,.3-.2.4-.2.4,0,.8.2,1.1.4Z"/>
    <path d="M870.4,312.8c-.5,0-.8-.1-1.1-.2,0-.1.1-.4.2-.4.4,0,.9.1,1.3.2,0,0,0,.1,0,.2,0,0-.1.1-.5.2Z"/>
    <path d="M945.9,296.7c0,.4-.1.8-.3,1.1,0-.4,0-.8.3-1.1Z"/>
    <path d="M900.3,279.4c0,.5-.1.8-.2,1.1-.1,0-.4-.1-.4-.2,0-.4.1-.9.2-1.3,0,0,.1,0,.2,0,0,0,.1.1.2.5Z"/>
    <path d="M945.3,293.8c.6,1.2-.3.3-.6.6,0,0-.3-.2-.5-.4.3,0,.5-.1,1.1-.2Z"/>
    <path d="M913.7,289.2c0-.2,0-.3,0-.5.2-.2.5-.4.7-.6,0,.1.2.4.2.4-.3.2-.6.4-1,.7Z"/>
    <path d="M770.1,182.6c.4,0,.8.1,1.1.3-.4,0-.8,0-1.1-.3Z"/>
    <path d="M858.3,288.1c-.4,0-.8-.1-1.1-.3.4,0,.8,0,1.1.3Z"/>
    <path d="M896.7,285.6c-.4.1-.7.2-1,.1-.2,0-.4-.2-.6-.3.1,0,.3-.2.4-.2.4,0,.8.2,1.1.4Z"/>
    <path d="M891.5,285c-.4-.2-.7-.5-.9-.8.1,0,.4-.2.4-.2.2.3.4.6.5,1Z"/>
    <path d="M948.6,282.4c-.2.2-.5.3-.8.4,0,0,0-.2,0-.4.2,0,.5-.1.9,0Z"/>
    <path d="M887.8,346.4c.2.2.3.5.4.8,0,0-.2,0-.4,0,0-.2-.1-.5,0-.9Z"/>
    <path d="M954.5,419.5c-.2-.2,0-.4,0-.6,0,.2.2.4,0,.6Z"/>
    <path d="M898.8,283.3c0-.4,0-.6,0-.9.1,0,.4,0,.4,0,0,.3-.1.6-.4.8Z"/>
    <path d="M927.3,419.3c-.2-.2-.3-.5-.4-.8,0,0,.2,0,.4,0,0,.2.1.5,0,.9Z"/>
    <path d="M671.9.9c-.2-.2-.3-.5-.4-.8,0,0,.2,0,.4,0,0,.2.1.5,0,.9Z"/>
    <path d="M773.4,417c-.2-.2-.3-.5-.4-.8,0,0,.2,0,.4,0,0,.2.1.5,0,.9Z"/>
    <path d="M927,416.5c0-.4,0-.6,0-.9.1,0,.4,0,.4,0,0,.3-.1.6-.4.8Z"/>
    <path d="M929.7,415c.2.2.4.5.5.8-.1,0-.3,0-.4.1,0-.2-.1-.5-.2-.9Z"/>
    <path d="M453.6,184.2c-.2-.2-.4-.5-.5-.8.1,0,.3,0,.4-.1,0,.2.1.5.2.9Z"/>
    <path d="M885.9,281.3c.2.2.4.5.5.8-.1,0-.3,0-.4.1,0-.2-.1-.5-.2-.9Z"/>
    <path d="M425.8,11.8c-.4,0-.6,0-.9,0,0-.1,0-.4,0-.4.3,0,.6.1.8.4Z"/>
    <path d="M880.6,280.4c-.4,0-.6,0-.9,0,0-.1,0-.4,0-.4.3,0,.6.1.8.4Z"/>
    <path d="M481.9,24.1c.2-.2.4,0,.6,0-.2,0-.4.2-.6,0Z"/>
    <path d="M950.1,412.1c.4,0,.6,0,.9,0,0,.1,0,.4,0,.4-.3,0-.6-.1-.8-.4Z"/>
    <path d="M247.7,34.9c-.2-.2-.3-.5-.4-.8,0,0,.2,0,.4,0,0,.2.1.5,0,.9Z"/>
    <path d="M410.8,45.8c-.4,0-.6,0-.9,0,0-.1,0-.4,0-.4.3,0,.6.1.8.4Z"/>
    <path d="M307.9,47c0-.4,0-.6,0-.9.1,0,.4,0,.4,0,0,.3-.1.6-.4.8Z"/>
    <path d="M925.6,409.3c-.2.2-.5.3-.8.4,0,0,0-.2,0-.4.2,0,.5-.1.9,0Z"/>
    <path d="M885.2,279.4c-.2.2-.5.4-.8.5,0-.1,0-.3-.1-.4.2,0,.5-.1.9-.2Z"/>
    <path d="M397.1,47.7c-.2.2-.4,0-.6,0,.2,0,.4-.2.6,0Z"/>
    <path d="M215.4,50.4c-.4,0-.6,0-.9,0,0-.1,0-.4,0-.4.3,0,.6.1.8.4Z"/>
    <path d="M914.2,292.1c-.2.2-.4,0-.6,0,.2,0,.4-.2.6,0Z"/>
    <path d="M907.3,178.1c.3,0,.7,0,1,0,0,.1,0,.3,0,.4-.3,0-.6-.2-.9-.4Z"/>
    <path d="M902.6,292.2c.3,0,.7,0,1,0,0,.1,0,.3,0,.4-.3,0-.6-.2-.9-.4Z"/>
    <path d="M961.9,409.5c-.2-.2-.3-.5-.4-.8,0,0,.2,0,.4,0,0,.2.1.5,0,.9Z"/>
    <path d="M406.2,53.9c-.2-.2-.3-.5-.4-.8,0,0,.2,0,.4,0,0,.2.1.5,0,.9Z"/>
    <path d="M182.9,55.1c.2-.2.5-.3.8-.4,0,0,0,.2,0,.4-.2,0-.5.1-.9,0Z"/>
    <path d="M368.8,55.6c-.4,0-.6,0-.9,0,0-.1,0-.4,0-.4.3,0,.6.1.8.4Z"/>
    <path d="M866.3,235.6c.2.2,0,.4,0,.6,0-.2-.2-.4,0-.6Z"/>
    <path d="M864.5,174.9c-.4,0-.6,0-.9,0,0-.1,0-.4,0-.4.3,0,.6.1.8.4Z"/>
    <path d="M473.8,61c.2.2,0,.4,0,.6,0-.2-.2-.4,0-.6Z"/>
    <path d="M977.4,405.8c0,.4,0,.6,0,.9-.1,0-.4,0-.4,0,0-.3.1-.6.4-.8Z"/>
    <path d="M301.3,174.7c-.2.2-.5.3-.8.4,0,0,0-.2,0-.4.2,0,.5-.1.9,0Z"/>
    <path d="M385.6,71.5c.2.2.4.5.5.8-.1,0-.3,0-.4.1,0-.2-.1-.5-.2-.9Z"/>
    <path d="M873.1,404.1c0,.4,0,.6,0,.9-.1,0-.4,0-.4,0,0-.3.1-.6.4-.8Z"/>
    <path d="M404.1,72.5c-.2.2-.4,0-.6,0,.2,0,.4-.2.6,0Z"/>
    <path d="M831.3,404.1c.2.2.3.5.4.8,0,0-.2,0-.4,0,0-.2-.1-.5,0-.9Z"/>
    <path d="M793.1,403.9c-.2.2-.4,0-.6,0,.2,0,.4-.2.6,0Z"/>
    <path d="M419.8,73.8c.2.2.3.5.4.8,0,0-.2,0-.4,0,0-.2-.1-.5,0-.9Z"/>
    <path d="M918.2,243.1c.2-.2.4,0,.6,0-.2,0-.4.2-.6,0Z"/>
    <path d="M989,400.9c-.4,0-.6,0-.9,0,0-.1,0-.4,0-.4.3,0,.6.1.8.4Z"/>
    <path d="M851.5,400.6c.4,0,.6,0,.9,0,0,.1,0,.4,0,.4-.3,0-.6-.1-.8-.4Z"/>
    <path d="M797,397.7c0,.4,0,.6,0,.9-.1,0-.4,0-.4,0,0-.3.1-.6.4-.8Z"/>
    <path d="M960.1,397.1c0,.4,0,.6,0,.9-.1,0-.4,0-.4,0,0-.3.1-.6.4-.8Z"/>
    <path d="M886.6,397.1c.2.2.3.5.4.8,0,0-.2,0-.4,0,0-.2-.1-.5,0-.9Z"/>
    <path d="M928.1,318.2c.4,0,.6,0,.9,0,0,.1,0,.4,0,.4-.3,0-.6-.1-.8-.4Z"/>
    <path d="M851.8,398c-.2-.2-.3-.5-.4-.8,0,0,.2,0,.4,0,0,.2.1.5,0,.9Z"/>
    <path d="M885.2,396c0,.4,0,.6,0,.9-.1,0-.4,0-.4,0,0-.3.1-.6.4-.8Z"/>
    <path d="M408.2,81.9c.4,0,.6,0,.9,0,0,.1,0,.4,0,.4-.3,0-.6-.1-.8-.4Z"/>
    <path d="M876.3,238.1c.4,0,.6,0,.9,0,0,.1,0,.4,0,.4-.3,0-.6-.1-.8-.4Z"/>
    <path d="M72.2,85c.2-.2.5-.3.8-.4,0,0,0,.2,0,.4-.2,0-.5.1-.9,0Z"/>
    <path d="M1019.1,392.4c.2.2,0,.4,0,.6,0-.2-.2-.4,0-.6Z"/>
    <path d="M892.3,269.6c.2.2,0,.4,0,.6,0-.2-.2-.4,0-.6Z"/>
    <path d="M840,390.2c.2.2.3.5.4.8,0,0-.2,0-.4,0,0-.2-.1-.5,0-.9Z"/>
    <path d="M924.1,324.5c.4,0,.6,0,.9,0,0,.1,0,.4,0,.4-.3,0-.6-.1-.8-.4Z"/>
    <path d="M913.2,232.9c.2.2.3.5.4.8,0,0-.2,0-.4,0,0-.2-.1-.5,0-.9Z"/>
    <path d="M918.4,325.4c.2-.2.5-.3.8-.4,0,0,0,.2,0,.4-.2,0-.5.1-.9,0Z"/>
    <path d="M783.5,387.9c.2.2.3.5.4.8,0,0-.2,0-.4,0,0-.2-.1-.5,0-.9Z"/>
    <path d="M920.5,326.1c.2.2,0,.4,0,.6,0-.2-.2-.4,0-.6Z"/>
    <path d="M278,158.5c.4,0,.6,0,.9,0,0,.1,0,.4,0,.4-.3,0-.6-.1-.8-.4Z"/>
    <path d="M284.6,155.3c-.2-.2-.3-.5-.4-.8,0,0,.2,0,.4,0,0,.2.1.5,0,.9Z"/>
    <path d="M906.5,250.5c-.2-.2-.3-.5-.4-.8,0,0,.2,0,.4,0,0,.2.1.5,0,.9Z"/>
    <path d="M942.4,330.1c.2.2,0,.4,0,.6,0-.2-.2-.4,0-.6Z"/>
    <path d="M857.7,385.5c.2.2,0,.4,0,.6,0-.2-.2-.4,0-.6Z"/>
    <path d="M938.4,331.3c.2-.2.4,0,.6,0-.2,0-.4.2-.6,0Z"/>
    <path d="M881.5,231.1c.2.2.3.5.4.8,0,0-.2,0-.4,0,0-.2-.1-.5,0-.9Z"/>
    <path d="M912.3,230.9c-.2-.2-.3-.5-.4-.8,0,0,.2,0,.4,0,0,.2.1.5,0,.9Z"/>
    <path d="M826.1,383.3c.4,0,.6,0,.9,0,0,.1,0,.4,0,.4-.3,0-.6-.1-.8-.4Z"/>
    <path d="M462.9,101.3c.2-.2.4,0,.6,0-.2,0-.4.2-.6,0Z"/>
    <path d="M314.7,214.9c-.2.2-.4,0-.6,0,.2,0,.4-.2.6,0Z"/>
    <path d="M292.1,229.4c0,.4,0,.6,0,.9-.1,0-.4,0-.4,0,0-.3.1-.6.4-.8Z"/>
    <path d="M853.8,336.5c0-.3,0-.7,0-1,.1,0,.3,0,.4,0,0,.3-.2.6-.4.9Z"/>
    <path d="M951.2,258.1c0-.3,0-.7,0-1,.1,0,.3,0,.4,0,0,.3-.2.6-.4.9Z"/>
    <path d="M929.6,257.5c-.2.2-.5.4-.8.5,0-.1,0-.3-.1-.4.2,0,.5-.1.9-.2Z"/>
    <path d="M489.2,144.7c-.2.2-.5.3-.8.4,0,0,0-.2,0-.4.2,0,.5-.1.9,0Z"/>
    <path d="M324.1,103.8c.2.2.3.5.4.8,0,0-.2,0-.4,0,0-.2-.1-.5,0-.9Z"/>
    <path d="M829.3,377c-.2.2-.5.3-.8.4,0,0,0-.2,0-.4.2,0,.5-.1.9,0Z"/>
    <path d="M830.2,372.1c.2-.2.5-.3.8-.4,0,0,0,.2,0,.4-.2,0-.5.1-.9,0Z"/>
    <path d="M839.2,340.5c-.2-.2,0-.4,0-.6,0,.2.2.4,0,.6Z"/>
    <path d="M265.6,120.5c0,.4,0,.6,0,.9-.1,0-.4,0-.4,0,0-.3.1-.6.4-.8Z"/>
    <path d="M886.1,259.1c.2-.2.5-.3.8-.4,0,0,0,.2,0,.4-.2,0-.5.1-.9,0Z"/>
    <path d="M887.2,342.4c.4,0,.6,0,.9,0,0,.1,0,.4,0,.4-.3,0-.6-.1-.8-.4Z"/>
    <path d="M875.1,343c.4,0,.6,0,.9,0,0,.1,0,.4,0,.4-.3,0-.6-.1-.8-.4Z"/>
    <path d="M658.1,121.6c0,.4,0,.6,0,.9-.1,0-.4,0-.4,0,0-.3.1-.6.4-.8Z"/>
    <path d="M878,344.7c.4,0,.6,0,.9,0,0,.1,0,.4,0,.4-.3,0-.6-.1-.8-.4Z"/>
    <path d="M661.6,141.5c-.2-.2-.3-.5-.4-.8,0,0,.2,0,.4,0,0,.2.1.5,0,.9Z"/>
    <path d="M819.1,346.9c-.2-.2,0-.4,0-.6,0,.2.2.4,0,.6Z"/>
    <path d="M799.9,427.4c-.2-.2-.3-.5-.4-.8,0,0,.2,0,.4,0,0,.2.1.5,0,.9Z"/>
    <path d="M890.7,227.7c.4,0,.6,0,.9,0,0,.1,0,.4,0,.4-.3,0-.6-.1-.8-.4Z"/>
    <path d="M302.2,123.1c.2-.2.5-.3.8-.4,0,0,0,.2,0,.4-.2,0-.5.1-.9,0Z"/>
    <path d="M792.4,365.2c-.4,0-.6,0-.9,0,0-.1,0-.4,0-.4.3,0,.6.1.8.4Z"/>
    <path d="M660.4,125.4c-.4,0-.6,0-.9,0,0-.1,0-.4,0-.4.3,0,.6.1.8.4Z"/>
    <path d="M224.1,125.7c-.2.2-.5.3-.8.4,0,0,0-.2,0-.4.2,0,.5-.1.9,0Z"/>
    <path d="M638.8,125.7c.2.2.3.5.4.8,0,0-.2,0-.4,0,0-.2-.1-.5,0-.9Z"/>
    <path d="M796.2,358.5c.4,0,.6,0,.9,0,0,.1,0,.4,0,.4-.3,0-.6-.1-.8-.4Z"/>
    <path d="M905.7,352.8c.2,0,.2.2.2.4-.1,0-.2-.2-.2-.4Z"/>
    <path d="M509.4,129.4c-.2,0-.2-.2-.2-.4.1,0,.2.2.2.4Z"/>
    <path d="M858.1,262c-.2,0-.2-.2-.2-.4.1,0,.2.2.2.4Z"/>
    <path d="M874.5,226.8c0-.2.2-.2.4-.2,0,.1-.2.2-.4.2Z"/>
    <path d="M831.3,356.2c.2,0,.2.2.2.4-.1,0-.2-.2-.2-.4Z"/>
    <path d="M398.7,130.6c-.2,0-.2-.2-.2-.4.1,0,.2.2.2.4Z"/>
    <path d="M880.9,225.4c.2,0,.2.2.2.4-.1,0-.2-.2-.2-.4Z"/>
    <path d="M913.7,361.3c0-.2,0-.4.2-.5,0,.2,0,.4-.2.5Z"/>
    <path d="M913.5,361.3c0,.2,0,.4-.2.5,0-.2,0-.4.2-.5Z"/>
    <path d="M876.8,362.3c0-.2.2-.2.4-.2,0,.1-.2.2-.4.2Z"/>
    <path d="M585.5,136.9c-.2,0-.2-.2-.2-.4.1,0,.2.2.2.4Z"/>
    <path d="M913.7,363.7c.2,0,.2.2.2.4-.1,0-.2-.2-.2-.4Z"/>
    <path d="M878,262.7c0-.2,0-.4.2-.5,0,.2,0,.4-.2.5Z"/>
    <path d="M882.5,262.6c-.2,0-.4,0-.5-.2.2,0,.4,0,.5.2Z"/>
    <path d="M860.1,343.5c.2,0,.2.2.2.4-.1,0-.2-.2-.2-.4Z"/>
    <path d="M847.7,342.2c0,.2,0,.4-.2.5,0-.2,0-.4.2-.5Z"/>
    <path d="M950.9,258.1c0,.2,0,.4-.2.5,0-.2,0-.4.2-.5Z"/>
    <path d="M902.8,340.4c0-.2.2-.2.4-.2,0,.1-.2.2-.4.2Z"/>
    <path d="M505.9,117.3c-.2,0-.2-.2-.2-.4.1,0,.2.2.2.4Z"/>
    <path d="M931.9,370.6c0,.2-.2.2-.4.2,0-.1.2-.2.4-.2Z"/>
    <path d="M892.7,371.2c0,.2-.2.2-.4.2,0-.1.2-.2.4-.2Z"/>
    <path d="M899.9,339.2c0-.2.2-.2.4-.2,0,.1-.2.2-.4.2Z"/>
    <path d="M260.4,116.7c-.2,0-.2-.2-.2-.4.1,0,.2.2.2.4Z"/>
    <path d="M172.5,111.3c.2,0,.2.2.2.4-.1,0-.2-.2-.2-.4Z"/>
    <path d="M880.7,374.7c.2,0,.4,0,.5.2-.2,0-.4,0-.5-.2Z"/>
    <path d="M228.7,145c-.2,0-.2-.2-.2-.4.1,0,.2.2.2.4Z"/>
    <path d="M893.4,262.6c-.2,0-.4,0-.5-.2.2,0,.4,0,.5.2Z"/>
    <path d="M530.1,258.5c-.2,0-.2-.2-.2-.4.1,0,.2.2.2.4Z"/>
    <path d="M293.5,103.8c.2,0,.2.2.2.4-.1,0-.2-.2-.2-.4Z"/>
    <path d="M659.5,103.2c.2,0,.2.2.2.4-.1,0-.2-.2-.2-.4Z"/>
    <path d="M824.3,338.9c.2,0,.4,0,.5.2-.2,0-.4,0-.5-.2Z"/>
    <path d="M903.1,257.7c0,.2-.2.2-.4.2,0-.1.2-.2.4-.2Z"/>
    <path d="M510.3,101.7c0-.2.2-.2.4-.2,0,.1-.2.2-.4.2Z"/>
    <path d="M891.3,257.7c.2,0,.2.2.2.4-.1,0-.2-.2-.2-.4Z"/>
    <path d="M853.5,336.5c0,.2,0,.4-.3.6,0-.2,0-.4.3-.6Z"/>
    <path d="M929.9,257.5c0-.2,0-.4.2-.5,0,.2,0,.4-.2.5Z"/>
    <path d="M866.9,380.4c.2,0,.4,0,.5.2-.2,0-.4,0-.5-.2Z"/>
    <path d="M503.1,146.1c-.2,0-.2-.2-.2-.4.1,0,.2.2.2.4Z"/>
    <path d="M858.8,381.3c-.2,0-.4,0-.5-.2.2,0,.4,0,.5.2Z"/>
    <path d="M843.4,382c0-.2,0-.4.2-.5,0,.2,0,.4-.2.5Z"/>
    <path d="M846.9,381.6c.2,0,.2.2.2.4-.1,0-.2-.2-.2-.4Z"/>
    <path d="M657.1,147.9c-.2,0-.4,0-.6-.3.2,0,.4,0,.6.3Z"/>
    <path d="M843.1,382c0,.2,0,.4-.2.5,0-.2,0-.4.2-.5Z"/>
    <path d="M657.1,148.1c.2,0,.4,0,.5.2-.2,0-.4,0-.5-.2Z"/>
    <path d="M875.6,332c.2,0,.4,0,.5.2-.2,0-.4,0-.5-.2Z"/>
    <path d="M875.6,331.7c-.2,0-.4,0-.5-.2.2,0,.4,0,.5.2Z"/>
    <path d="M281.4,99.4c0-.2.2-.2.4-.2,0,.1-.2.2-.4.2Z"/>
    <path d="M510,209.2c0,.2-.2.2-.4.2,0-.1.2-.2.4-.2Z"/>
    <path d="M492.1,149.3c0,.2-.2.2-.4.2,0-.1.2-.2.4-.2Z"/>
    <path d="M886.9,385.6c0,.2-.2.2-.4.2,0-.1.2-.2.4-.2Z"/>
    <path d="M411.1,98.6c.2,0,.2.2.2.4-.1,0-.2-.2-.2-.4Z"/>
    <path d="M899.6,385.9c-.2,0-.2-.2-.2-.4.1,0,.2.2.2.4Z"/>
    <path d="M791.3,386.5c-.2,0-.2-.2-.2-.4.1,0,.2.2.2.4Z"/>
    <path d="M919.8,329.4c-.2,0-.2-.2-.2-.4.1,0,.2.2.2.4Z"/>
    <path d="M933.3,328.6c.2,0,.2.2.2.4-.1,0-.2-.2-.2-.4Z"/>
    <path d="M872.5,387.3c0,.2-.2.2-.4.2,0-.1.2-.2.4-.2Z"/>
    <path d="M325.8,161.7c0-.2.2-.2.4-.2,0,.1-.2.2-.4.2Z"/>
    <path d="M458.4,93.4c.2,0,.2.2.2.4-.1,0-.2-.2-.2-.4Z"/>
    <path d="M898.2,246.7c.2,0,.2.2.2.4-.1,0-.2-.2-.2-.4Z"/>
    <path d="M370.2,246.7c.2,0,.2.2.2.4-.1,0-.2-.2-.2-.4Z"/>
    <path d="M940.5,245.8c-.2,0-.2-.2-.2-.4.1,0,.2.2.2.4Z"/>
    <path d="M914.9,323.7c0-.2.2-.2.4-.2,0,.1-.2.2-.4.2Z"/>
    <path d="M891,391.7c-.2,0-.2-.2-.2-.4.1,0,.2.2.2.4Z"/>
    <path d="M867.6,321.6c.2,0,.2.2.2.4-.1,0-.2-.2-.2-.4Z"/>
    <path d="M666.8,85.6c-.2,0-.2-.2-.2-.4.1,0,.2.2.2.4Z"/>
    <path d="M341.4,85.6c0-.2.2-.2.4-.2,0,.1-.2.2-.4.2Z"/>
    <path d="M880,233.7c-.2,0-.2-.2-.2-.4.1,0,.2.2.2.4Z"/>
    <path d="M904.4,273.5c-.2,0-.4,0-.5-.2.2,0,.4,0,.5.2Z"/>
    <path d="M325.5,245.8c-.2,0-.2-.2-.2-.4.1,0,.2.2.2.4Z"/>
    <path d="M904.4,273.8c.2,0,.4,0,.5.2-.2,0-.4,0-.5-.2Z"/>
    <path d="M903.9,395.4c.2,0,.2.2.2.4-.1,0-.2-.2-.2-.4Z"/>
    <path d="M242.2,166.9c0-.2.2-.2.4-.2,0,.1-.2.2-.4.2Z"/>
    <path d="M953.2,319.3c0,.2-.2.2-.4.2,0-.1.2-.2.4-.2Z"/>
    <path d="M666.2,81.3c0,.2-.2.2-.4.2,0-.1.2-.2.4-.2Z"/>
    <path d="M902.5,396.9c-.2,0-.2-.2-.2-.4.1,0,.2.2.2.4Z"/>
    <path d="M451.3,81.6c-.2,0-.4,0-.5-.2.2,0,.4,0,.5.2Z"/>
    <path d="M950.3,317.3c-.2,0-.2-.2-.2-.4.1,0,.2.2.2.4Z"/>
    <path d="M656.7,167.7c.2,0,.2.2.2.4-.1,0-.2-.2-.2-.4Z"/>
    <path d="M895.9,315.9c.2,0,.2.2.2.4-.1,0-.2-.2-.2-.4Z"/>
    <path d="M873.1,244.7c-.2,0-.2-.2-.2-.4.1,0,.2.2.2.4Z"/>
    <path d="M629.3,400c0,.2-.2.2-.4.2,0-.1.2-.2.4-.2Z"/>
    <path d="M864.2,400c.2,0,.2.2.2.4-.1,0-.2-.2-.2-.4Z"/>
    <path d="M329.8,243.2c.2,0,.2.2.2.4-.1,0-.2-.2-.2-.4Z"/>
    <path d="M843.1,400.9c-.2,0-.2-.2-.2-.4.1,0,.2.2.2.4Z"/>
    <path d="M844,400.6c.2,0,.2.2.2.4-.1,0-.2-.2-.2-.4Z"/>
    <path d="M421.5,78.7c0-.2.2-.2.4-.2,0,.1-.2.2-.4.2Z"/>
    <path d="M836.8,276.1c0,.2-.2.2-.4.2,0-.1.2-.2.4-.2Z"/>
    <path d="M937.7,242.4c-.2,0-.2-.2-.2-.4.1,0,.2.2.2.4Z"/>
    <path d="M934.8,276.7c0,.2-.2.2-.4.2,0-.1.2-.2.4-.2Z"/>
    <path d="M850.8,404.1c.2,0,.4,0,.6.3-.2,0-.4,0-.6-.3Z"/>
    <path d="M838.8,309c.2,0,.2.2.2.4-.1,0-.2-.2-.2-.4Z"/>
    <path d="M385.6,71.2c-.2,0-.4,0-.5-.2.2,0,.4,0,.5.2Z"/>
    <path d="M398.2,67.4c0,.2-.2.2-.4.2,0-.1.2-.2.4-.2Z"/>
    <path d="M982,404.9c-.2,0-.2-.2-.2-.4.1,0,.2.2.2.4Z"/>
    <path d="M933,242.4c-.2,0-.2-.2-.2-.4.1,0,.2.2.2.4Z"/>
    <path d="M333.3,65.1c.2,0,.2.2.2.4-.1,0-.2-.2-.2-.4Z"/>
    <path d="M910.3,406.4c.2,0,.2.2.2.4-.1,0-.2-.2-.2-.4Z"/>
    <path d="M454.3,199.2c0-.2.2-.2.4-.2,0,.1-.2.2-.4.2Z"/>
    <path d="M969.1,407.8c0-.2.2-.2.4-.2,0,.1-.2.2-.4.2Z"/>
    <path d="M887.8,294c.2,0,.2.2.2.4-.1,0-.2-.2-.2-.4Z"/>
    <path d="M865.6,175.5c-.2,0-.2-.2-.2-.4.1,0,.2.2.2.4Z"/>
    <path d="M965.3,408.4c-.2,0-.2-.2-.2-.4.1,0,.2.2.2.4Z"/>
    <path d="M905.7,292.5c0-.2.2-.2.4-.2,0,.1-.2.2-.4.2Z"/>
    <path d="M902.1,291.7c.2,0,.4,0,.6.3-.2,0-.4,0-.6-.3Z"/>
    <path d="M401,47.8c0,.2-.2.2-.4.2,0-.1.2-.2.4-.2Z"/>
    <path d="M902.1,291.4c-.2,0-.4,0-.5-.2.2,0,.4,0,.5.2Z"/>
    <path d="M845.7,290.5c.2,0,.2.2.2.4-.1,0-.2-.2-.2-.4Z"/>
    <path d="M912.9,289.8c0,.2,0,.4-.2.5,0-.2,0-.4.2-.5Z"/>
    <path d="M934.5,241.5c.2,0,.2.2.2.4-.1,0-.2-.2-.2-.4Z"/>
    <path d="M913.2,289.8c0-.2,0-.4.3-.6,0,.2,0,.4-.3.6Z"/>
    <path d="M794.4,411.6c.2,0,.2.2.2.4-.1,0-.2-.2-.2-.4Z"/>
    <path d="M863.6,241.5c.2,0,.2.2.2.4-.1,0-.2-.2-.2-.4Z"/>
    <path d="M958.1,411.6c.2,0,.2.2.2.4-.1,0-.2-.2-.2-.4Z"/>
    <path d="M219.8,28c0-.2.2-.2.4-.2,0,.1-.2.2-.4.2Z"/>
    <path d="M707.4,413c0-.2.2-.2.4-.2,0,.1-.2.2-.4.2Z"/>
    <path d="M844,241.5c.2,0,.2.2.2.4-.1,0-.2-.2-.2-.4Z"/>
    <path d="M798.9,413c-.2,0-.4,0-.5-.2.2,0,.4,0,.5.2Z"/>
    <path d="M114.9,413.3c.2,0,.2.2.2.4-.1,0-.2-.2-.2-.4Z"/>
    <path d="M798.9,413.3c.2,0,.4,0,.5.2-.2,0-.4,0-.5-.2Z"/>
    <path d="M458.7,289.1c-.2,0-.2-.2-.2-.4.1,0,.2.2.2.4Z"/>
    <path d="M875.1,236.3c.2,0,.2.2.2.4-.1,0-.2-.2-.2-.4Z"/>
    <path d="M212.8,19.6c.2,0,.2.2.2.4-.1,0-.2-.2-.2-.4Z"/>
    <path d="M201,15.9c-.2,0-.2-.2-.2-.4.1,0,.2.2.2.4Z"/>
    <path d="M929.7,414.7c-.2,0-.4,0-.5-.2.2,0,.4,0,.5.2Z"/>
    <path d="M432.2,13.6c-.2,0-.2-.2-.2-.4.1,0,.2.2.2.4Z"/>
    <path d="M885.9,281c0,0-.2-.2-.1-.4.1,0,.1.3.1.4Z"/>
    <path d="M904.8,198.6c-.2,0-.2-.2-.2-.4.1,0,.2.2.2.4Z"/>
    <path d="M107.9,415.6c.2,0,.2.2.2.4-.1,0-.2-.2-.2-.4Z"/>
    <path d="M713.2,415.6c.2,0,.2.2.2.4-.1,0-.2-.2-.2-.4Z"/>
    <path d="M663.6,183.3c.2,0,.2.2.2.4-.1,0-.2-.2-.2-.4Z"/>
    <path d="M997.3,415.9c0-.2.2-.2.4-.2,0,.1-.2.2-.4.2Z"/>
    <path d="M453.6,184.5c.2,0,.4,0,.5.2-.2,0-.4,0-.5-.2Z"/>
    <path d="M869.9,416.5c0-.2.2-.2.4-.2,0,.1-.2.2-.4.2Z"/>
    <path d="M841.1,287.1c.2,0,.2.2.2.4-.1,0-.2-.2-.2-.4Z"/>
    <path d="M903.1,240.2c0,.2,0,.4-.2.5,0-.2,0-.4.2-.5Z"/>
    <path d="M917.5,240.1c-.2,0-.2-.2-.2-.4.1,0,.2.2.2.4Z"/>
    <path d="M323.2,187c-.2,0-.2-.2-.2-.4.1,0,.2.2.2.4Z"/>
    <path d="M903.4,240.2c0-.2,0-.4.2-.5,0,.2,0,.4-.2.5Z"/>
    <path d="M95.5,421.1c-.2,0-.2-.2-.2-.4.1,0,.2.2.2.4Z"/>
    <path d="M884.3,283.6c.2,0,.2.2.2.4-.1,0-.2-.2-.2-.4Z"/>
    <path d="M332.2,239.8c.2,0,.2.2.2.4-.1,0-.2-.2-.2-.4Z"/>
    <path d="M419.6,139.4c-.2-.2,0-.4,0-.6,0,.2.2.4,0,.6Z"/>
  </g>
</svg>