<?xml version="1.0" encoding="UTF-8"?>
<svg id="Layer_1" xmlns="http://www.w3.org/2000/svg" version="1.1" viewBox="0 0 153.5 669.2">
  <!-- Generator: Adobe Illustrator 29.3.1, SVG Export Plug-In . SVG Version: 2.1.0 Build 151)  -->
  <g id="Shape_103">
    <path d="M88.7,448.1c-1.9-.1-3.5-.7-4.7-1.9-1.9-1.9-3.9-3.6-6.3-5-1.7-1-3.6-1.4-5.7-1.2-1.1.1-2.3-.1-3.4-.2-.5,0-1.1,0-1.6,0-.4,0-.7.2-1.1.1-4-.6-7.4,1.1-10.7,3.2-.6.4-1.2.8-1.7,1.4-1.6,1.8-3.5,3-5.8,3.2-2,.2-4,.2-6,0-.9-.1-1.8-1.1-2.6-1.9-1.5-1.6-2.8-3.5-4.4-5-.8-.7-2.1-.7-3.2-.9-.5-.1-1.1,0-1.6,0-.4,0-.7,0-1.1,0-1.7,0-3.4,0-5.1,0-1.2,0-2.4.2-3.6.2-.4,0-.9.2-1.2,0-.8-.5-1.4-.2-2.1.3-.1,0-.3,0-.4,0,0-.1,0-.2,0-.4,0-1.6,0-3.3,0-4.9,0-.9.1-1.9.3-2.8,0-.2.5-.4.8-.5,1.6-.1,3.2-.2,4.8-.3,2.2,0,4.4.2,6.6,0,2.1-.2,4.1-.2,6.2-.8,1.8-.5,3.1-1.4,4.3-2.6.8-.8,1.1-1.7,1.2-2.8,0-1,0-2,.3-2.9.1-.4.8-.8,1.3-.8,1.3-.1,2.6-.2,3.9,0,2.4.3,4.4-.5,6.3-2,1.8-1.4,3.7-2.9,5.7-4.1,1.8-1,4-1.4,5.9-1.6s1.6-.1,2.4,0c3,.1,6.1,0,9.1.6,1.4.2,2.7,1.1,3.9,2,1.5,1.1,2.8,2.6,4.3,3.7,2,1.5,4.3,2.3,6.9,1.8,2.9-.6,5.6-1.5,7.5-3.9.9-1.1,2-2.1,2.4-3.6.2-.9,1-1.6,1.4-2.5.3-.7.5-1.5.8-2.2.4-.9.8-1.9,1.5-2.6,1-1.2,2.1-2.4,3.3-3.4,1-.9,2.2-1,3.4-.5,1.6.6,3.2,1.3,4.3,2.8,2,2.7,4.3,5.2,7.5,6.5,1.9.8,3.9,1.3,6,1.1.3,0,.8-.5.9-.9.4-1.5.6-3.1,1-4.6.2-.8.6-1.7,1-2.5.4-.7.2-1-.5-1-.7,0-1.3,0-2,0-3.2.2-5.8-1.1-8.5-2.6-2.5-1.4-4.2-3.5-5.7-5.8-.7-1-1.9-1.3-2.9-1.9-1.9-1.1-3.5-.6-5.1.4-1.7,1.1-3.4,2.3-3.7,4.6,0,.5-.5,1-.7,1.6-1.2,2.7-2.1,5.6-4.1,7.8-1.8,1.9-4,3.2-6.7,3.7-3.2.6-6.1.2-8.6-2.1-1.6-1.5-2.9-3.5-5.1-4.3-1.8-.6-3.6-1.5-5.7-1.4-2.1.2-4.2.1-6.3,0-4.2-.1-7.8,1.1-11,3.7-1.5,1.3-3.2,2.4-4.8,3.5-.3.2-.7.2-1,.2-1.5.1-3.1.5-4.5.2-1.6-.4-3.6.7-4.9-1.4s-1.2-1.6-2-2.2c-1.3-1-2.1-2.4-3.3-3.4-.4-.3-1-.5-1.5-.5-.2,0-.6.6-.6.8.4,1.4,1,2.7,1.3,4.2s0,.6.1.9c.1,2.5.3,5.1.3,7.6,0,.8-.2,1.6-.2,2.4,0,1-1.4,1.7-2.3,1.4s-2.2-.5-3.3-.2c-2,.6-3,0-2.9-1.7.3-3.3.8-6.8-.9-9.9-1.4-2.6-3.3-4.6-6.4-5.2-1-.2-1.5-.8-1.5-1.8,0-2,.2-4.1.2-6.1,0-.6,0-.9.8-.6.5.2,1.2-.2,1.7-.1,2.3,0,4.7-.1,6.9.3,1.7.4,3.2-.5,4.7,0,.6.2,1.4.2,1.9.5,1.6.9,3.1,1.9,4.6,3,.7.5,1.2,1.2,1.7,1.8.7.7,1.3,1.4,2,2s.3.2.5.2c2.4,0,4.9.1,7.3,0,.9,0,1.7-.9,2.5-1.4,2.6-1.7,5.1-3.6,7.9-5,1.6-.8,3.6-1.1,5.5-1.2,3-.1,6,0,9,.2,2.5.3,4.9,1.4,6.8,3.1,1.2,1.1,2.4,2.3,3.6,3.3.6.5,1.4,1.1,2.2,1.2,1.9.1,3.8.2,5.6-.1,3.3-.7,5.9-2.6,7.5-5.5,1.6-3,3-6.1,4.5-9.1,1.2-2.3,3.3-3.8,5.9-3.9,1.1,0,2.3.7,3.2,1.5,1.6,1.4,3.1,3,4.4,4.6,1.5,1.9,3.7,2.6,5.8,3.5,2.4,1.1,5,1.1,7.6,1.2,4.9.2,9.8,0,14.8,0,.7,0,1.2.6,1.1,1.2-.2,1.5,0,3,.2,4.5.2,1.6-.4,2.4-2.1,2.7-3.2.6-6.6,3.2-6.9,7.3-.1,2,0,4,0,5.9,0,1.4-.7,2.8-.4,4.1.4,1.9.2,4.1,2,5.6s.9.9,1.2,1.4c1.2,1.7,3.1,1.6,4.7,2.1,1.2.3,1.8,1.4,1.4,2.7s-.4,2.1-.3,3.2c.3,2.4-.2,2.9-2.1,2.7s-1.5-.1-2.2-.1c-2.7,0-5.5,0-8.2,0-1.5,0-2.9,0-4.4,0h-3.7c-1.3,0-2.7,0-4,0-.8,0-1.3-.2-1.8-1-2-2.8-4-5.5-6.2-8.2-1.3-1.6-4.3-2-6.1-1.3-3.5,1.3-4.8,4.4-6.1,7.5-.7,1.6-1.3,3.2-2,4.8-1.1,2.5-3,4.2-5.5,5.2-1.8.8-3.8,1.5-6,1.2M116.8,425.9c1,1.4,2,2.7,3,4.1.7,1.1,1.7,1.9,3,2,1.2,0,2.5-.2,3.8-.2,1.6,0,3.2.2,4.8.2.3,0,.6-.2.9-.3,0-.1-.1-.2-.2-.4-1.2-1.9-1.9-4-2-6.3,0-2.3-.7-3.1-2.7-3-2.3,0-4.2-1.1-6.1-1.9-2.8-1.1-4.5-3.8-6.4-6.1-1.5-1.9-3.1-2.9-5.5-2.5-1.6.3-3.3.6-4.2,2.1-1.2,2.1-2.4,4.3-3.3,6.6-1.6,4-3.9,7.2-7.9,9.1-2.1,1-4.3,1.2-6.5.9-.8-.1-1.6-.4-2.2-.9-1.8-1.4-3.5-3.2-5.4-4.5-1.6-1-3.4-2-5.3-2.3-3.2-.4-6.5-.3-9.7-.3-1.3,0-2.7.2-3.9.7-2.2.9-4.3,2.1-6.4,3.1-.7.3-1.3.8-1.9,1.1-1.1.7-2.2,1.3-3.3,2-.6.4-1.2,1-1.5,1.6-1.1,2-2,4-3,6-.2.4-.5.8-.7,1.2-.5,1-.3,1.4.7,1.4,1.2,0,2.3.1,3.5,0,.9-.1,2-.4,2.7-.9,2-1.3,3.8-2.9,5.9-4.2,1.5-.9,3.1-1.9,4.8-2.2,2.5-.4,5.2-.3,7.8-.3,1.6,0,3.2,0,4.8.3,1.1.1,2.2.4,3.2.8,2.4,1,4.3,2.6,6,4.5,1.1,1.2,2.2,2,3.9,2.3,3.8.6,7.1-.1,10.1-2.7,3.4-2.9,4.7-7,6.4-10.8.9-1.9,1.9-3.6,3.6-4.5,2.1-1,4.6-.9,6.5.7,1.1.9,1.8,2.3,2.9,3.5M27.6,399.5c.2-.2.5-.3.7-.5-.1-.1-.2-.2-.3-.3-.2.2-.3.5-.4.9M23.1,400c0,.2-.2.5-.2.7.1,0,.3,0,.3-.1,0-.3,0-.5,0-.6Z"/>
    <path d="M131.2,585.4c-.8-.4-1.4-.8-2.1-1.1-1.1-.5-2.3-.8-3.4-1.3-2.9-1.4-5.4-3.5-7.7-5.7-2.1-2-5.8-2.3-8.1-.3-2.3,2-5,3.6-8,4.5-1.6.5-3.4.6-4.8,1.4-1.4.8-2.5,2.2-3.7,3.5-2.3,2.5-4.4,5.3-7.6,6.6-2.3.9-4.8,1.1-7,0-2.3-1.2-4.6-2.6-6.4-4.4-2.2-2.3-4.9-3.5-7.7-4.7-.2-.1-.5-.2-.7-.4-2.1-1.2-4.3-1.6-6.7-1.2-1.3.2-2.7.2-4,.6-1.3.4-2.7,1.1-3.8,1.9-2,1.4-3.9,3.1-5.9,4.5-.6.4-1.5.7-2.3.7-1.9.1-3.9,0-5.9,0-1.1,0-1.6.4-1.4,1.5.7,4.4,2.9,7.2,7.7,8,.7.1,1.7-.2,2.3-.7.9-.6,1.8-1.4,2.6-2.3,1.9-1.9,4.2-3.1,6.7-4,2.4-.9,4.8-1,7.3-.3,2.7.7,5.2,1.8,7.8,2.9,2.4,1.1,4.2,2.9,6,4.7,1.8,1.8,3.8,2.7,6.2,3.3,3.8.9,9.5-1.4,11.3-5.1.1-.3.4-.5.7-.7,1.2-1.4,2.3-2.8,3.6-4.1.6-.6,1.5-.9,2.3-1.1,2.4-.6,4.8-1.1,7-2.5,1.7-1.1,3.5-2.2,5.2-3.3.6-.4,1.2-.9,1.7-1.5.9-.9,1.8-1,2.7-.3,1.6,1.3,3.1,2.6,4.6,3.8.8.7,1.7,1.2,2.4,2,.4.4.8,1.1.8,1.6,0,1.8,0,3.7-.2,5.5,0,.5-.4,1-.6,1.5-.4-.2-.9-.4-1.3-.8-1.5-1.4-3-2.8-4.5-4.2-1.8-1.8-2.4-1.9-4.5-.4-1.6,1.1-3,2.3-4.6,3.4-2.4,1.7-5.1,2.5-7.9,3.2-2.2.6-4.1,1.8-5.6,3.7-1.8,2.3-3.4,4.9-6.1,6.3-4.2,2.3-8.4,2.2-12.3-.9-1.4-1.1-2.7-2.4-3.9-3.7-1.2-1.2-2.5-2.2-4.2-2.5-.7,0-1.3-.6-2-1-2.1-1.3-4.4-1.8-6.9-1.7-1.8,0-3.7,0-5.5,0-2.7,0-4.9,1-6.9,3-1.8,1.9-3.2,4-4.5,6.3-.5.9-1.2,1.6-1.8,2.5-1,1.4-2,2.8-2.9,4.3-.2.4-.2.9-.3,1.4.4,0,.9,0,1.3,0,1.4,0,2.8,0,4.1-.3.9-.2,1.8-.6,2.5-1.2,1.7-1.3,3.3-2.7,5.1-4,2.6-1.9,5.6-2.6,8.7-2.4,1.9,0,3.9.8,5.7,1.5,1.7.6,3.3,1.3,4.8,2.2,1.8,1.2,3.5,2.6,5.2,3.9,1.5,1.1,2.9,2.5,4.5,3.2,1.8.7,3.8,1,5.8.5,3.6-.9,6.1-3.2,8.3-6.1,1.2-1.5,2.5-2.9,3.8-4.3.2-.2.5-.3.7-.3,1.8-.4,3.6-.7,5.3-1.3,1.7-.7,3.4-1.7,5-2.7,1.2-.7,2.3-1.7,3.5-2.4,2-1.2,3.7-1.2,5.6.2,2.1,1.4,4,3.3,6.2,4.6,2.7,1.6,5.7,2.8,8.6,4.2.3.1.7,0,1,0,5.1,0,10.2,0,15.3,0,1.1,0,1.6.4,1.5,1.5-.1,2-.1,4.1-.3,6.1,0,.3-.5.8-.8.8-1.7,0-3.4,0-5,0-.8,0-1.7.2-2.5.2-1.8,0-3.7-.4-5.5-.2-2.2.3-4.3-.1-6.2-1.1-2.6-1.3-5.6-2-7.8-4.1-1.4-1.3-2.8-2.5-4.2-3.7-1.7-1.4-3.6-1.3-5.4-.4-2.2,1.2-4.2,2.8-6.3,4-1.6.9-3.3,1.6-5,1.9-2.8.6-4.8,2-6.6,4.2-1.8,2.1-3.9,4.1-6.1,5.8-1.9,1.5-4.3,1.6-6.8,1.4-3.1-.3-5.2-2.1-7.1-4.2-2.3-2.4-5.3-3.7-8.3-4.9-.9-.4-1.8-.9-2.7-1.2-2.7-.9-5.4-1-8.2-.3-3.2.8-6.1,2.3-8.5,4.6-.8.7-1.7,1.4-2.5,2-.8.6-1.6,1.2-2.8.7-.5-.2-1.2.2-1.9.2-2.5,0-5,0-7.5,0s-3.9,0-5.8,0c-.3,0-.5,0-.8-.2-2.2-1-4.4-2-6.6-3-1.6-.8-1.6-1-1.4-2.7.2-1.3.2-2.7,0-4-.3-2.1.5-2.9,2.6-2.5,1.8.4,3.6.1,5.5-.1,3.7-.5,5.8-3,7.9-5.6.4-.5,1-1,1.4-1.5.2-.3,0-.8,0-1.2,0-.2-.3-.3-.4-.4-2.5-1.5-4.1-3.6-5.5-6.2-1.1-2.1-1.8-4.2-2.3-6.4-.3-1.3.2-2.8.2-4.2,0-1.3-.2-2.5-.2-3.8,0-.9.1-1.8.3-2.6,0-.2.3-.4.5-.6.1,0,.3,0,.5,0,5.2,0,10.4-.1,15.6-.3.7,0,1.5-.4,2-.8,2-1.6,3.7-3.6,5.8-4.9,1.6-1,3.6-1.7,5.5-1.9,2.3-.2,4.6.2,6.9.4.8.1,1.6.7,2.4,1,3.2,1.3,6.1,2.9,8.4,5.6,1.1,1.3,2.6,2.6,4.2,3.2,3.3,1.4,6.7,1.1,10.1-.2.6-.2,1.1-.7,1.5-1.1,1.3-1.3,2.6-2.5,3.7-4,1.9-2.4,3.8-4.7,6.9-5.3,2.3-.4,4.3-1.5,6.4-2.4,1.3-.6,2.4-1.9,3.6-2.7,2.4-1.5,5.4-2,7.8.3,1.8,1.7,3.8,3.3,5.8,4.8.9.7,2.1.9,3.2,1.3,1.4.5,2.8,1.1,4.2,1.7.6.2,1.2.4,1.8.4,4.6,0,9.2,0,13.8,0s2.7.4,2.8,2.5c0,1.7,0,3.3,0,5,0,1-.6,1.5-1.6,1.5-2.5,0-4.1,1.4-5.6,3.1-1.8,2-2.1,4.4-2.3,6.9-.1,2.1,0,4.2,0,6.3,0,1.5-1,2.2-2.4,1.8-.6-.1-1.2,0-1.8,0-1.1,0-2.3.1-3.4,0-.3,0-.7-.6-.7-.9,0-1.4.7-2.9.3-4.1-.5-1.4,0-2.7,0-4,0-1.8.5-3.6.9-5.3.2-1,.7-1.9,1-2.8,0-.3-.3-.9-.6-1-.6-.3-1.2-.3-1.9-.5Z"/>
    <path d="M142,97.7c0,.9,0,1.7,0,2.4-.1,1.3-.3,2.6-.5,3.9,0,.3-.4.6-.7.6-1,0-2.1,0-3.2,0-2.5,0-5,.2-7.5.2-1.1,0-2.3-.2-3.4-.2-.4,0-.9,0-1.3,0-.4,0-.7.2-1,.2-1.6,0-3.3,0-4.9,0s-1.7,0-2.5,0c-.3,0-.7-.3-.9-.5-1.5-2-2.8-4.2-4.4-6.2-1-1.3-2.1-2.7-3.7-3.4-1.8-.8-4.7-.3-6.3,1-2.4,2-3.3,4.7-4.5,7.4-.6,1.4-1,2.9-1.8,4.2-.7,1.2-1.7,2.4-2.8,3.1-2.3,1.4-4.8,2.5-7.6,2.3-2-.2-3.8-.8-5.3-2.2-1.9-1.7-3.7-3.4-5.8-4.7-1.1-.7-2.7-.9-4-1-2.7-.2-5.4,0-8.1,0-2.8-.2-5.4.6-7.9,1.8-1.5.8-2.9,1.9-4.2,3.1-2.1,1.9-4.3,3-7.2,2.4-1.3-.3-2.8-.2-4.1,0-1.1.1-1.6-.5-2.2-1.1-1.5-1.8-3-3.6-4.6-5.3-.9-.9-2.2-1.2-3.6-1-.5,0-.9.2-1.4.1-1.4,0-2.7-.2-4.1-.2-1.1,0-2.1.2-3.2.2-1.7,0-3.3-.1-5-.2-.2,0-.6-.1-.6-.2,0-1.1,0-2.2,0-3.3,0-.2.1-.3.1-.5,0-1-.2-2.1-.1-3.1,0-.2.4-.6.7-.7.7-.2,1.4-.2,2.1-.3.8,0,1.6,0,2.4,0,2.5,0,5.1.1,7.6,0,2.2-.1,4.3-.5,6.4-1,2.2-.6,3.6-2.7,3.8-5,0-1,.3-1.9.5-2.9,0-.2.4-.4.6-.4,2.1,0,4.2.2,6.2,0,1.4-.2,2.8-1,4-1.7,1.7-1.1,3.2-2.5,5-3.6,1.9-1.2,4-2.1,6.4-2.1,2.7,0,5.4.2,8,0,3.5-.2,6.4,1.2,9,3.3.9.7,1.8,1.6,2.6,2.4,2.2,2.1,4.9,2.5,7.8,1.9,1.6-.3,3.3-.9,4.7-1.8,2.3-1.4,3.8-3.5,4.7-6.1.1-.4.4-.7.6-1.1.4-1,.9-1.9,1.1-2.9.4-1.9,3.8-6.1,5.7-6.3,2.1-.3,4.1.5,5.6,2,.7.7,1.3,1.4,1.9,2.2,2.1,2.7,4.8,4.7,8.1,5.6,1.1.3,2.3.5,3.5.7.9.1,1.4-.4,1.6-1.3.4-2.2.7-4.5,1.9-6.5.5-.8-.5-1-.9-1.1-.5-.2-1.2,0-1.7,0-2.9.1-5.4-.8-7.7-2.4-.6-.4-1.4-.6-2-1.1-1.8-1.2-3-2.9-4.2-4.7-.5-.8-1.1-1.6-2.2-1.6-.1,0-.2-.1-.3-.2-3.1-1.3-6.1-.5-7.9,2.5-1,1.6-1.5,3.4-2.3,5.2-.6,1.3-1.1,2.7-1.9,4-1.8,2.9-4.1,5.2-7.6,5.8-3,.5-5.9.8-8.4-1.7-1.3-1.3-2.7-2.6-4.2-3.7-1.9-1.3-4.1-2-6.4-2.1-2.5,0-5,0-7.5,0-4,0-7.6,1.1-10.7,3.8-1.3,1.1-2.9,2.1-4.3,3.1-.4.2-.9.4-1.3.4-2.1,0-4.2,0-6.2,0-1.1,0-1.9-.4-2.6-1.1-1.8-1.9-3.6-3.9-5.6-5.7-.4-.4-1.3-.3-2-.4,0,.4,0,.9,0,1.3.3,1,.7,2,1,3,.2.8.2,1.6.3,2.4.1,3,.2,5.9.2,8.9,0,.4-.9,1.1-1.4,1.1-1.6.1-3.3-.1-5,.1-.8.1-1.3.1-1.5-.7,0-.2-.2-.4-.2-.6,0-1.3.2-2.6.2-3.9,0-1.9,0-3.9-1-5.7-1.4-2.8-3.3-5-6.5-5.8-1.2-.3-1.5-.7-1.5-1.9,0-1.5-.2-3-.2-4.5,0-.6,0-1.4.5-1.8.3-.3,1.1,0,1.6,0,4.3,0,8.7,0,13,0,1.2,0,2.1.4,3,1.3,1.8,1.9,3.7,3.7,5.6,5.5.4.4,1,.6,1.6.7,1.8.2,3.6.1,5.5.3,1.8.2,2.9-.9,4.1-1.8,2.4-1.6,4.8-3.3,7.4-4.7,1.3-.7,2.8-.9,4.3-1,2-.2,4.1-.3,6.2-.3,4.8,0,9.2,1.3,12.7,4.9.8.8,1.6,1.7,2.6,2.3,1.9,1.1,3.9.9,6,.6,2.6-.4,4.8-1.6,6.6-3.4,1.5-1.6,2.5-3.4,3.4-5.4,1.1-2.7,2-5.5,4.2-7.6,2.6-2.4,5.1-2.2,7.6,0,1.6,1.4,3,3.2,4.5,4.7,2.1,2.1,4.7,3.3,7.6,3.6,3.5.4,7.1.4,10.6.5,2.9,0,5.7,0,8.6,0,1.3,0,1.7.5,1.4,1.9,0,0,0,.2,0,.2.2,1.3.3,2.6.5,3.8.2,1-.4,1.8-1.3,2-3,.6-5.5,2-6.9,4.9-.8,1.6-1,3.4-.8,5.2.2,1.4-.2,2.9-.2,4.3.2,3.6.1,7.2,3.3,9.8,1.4,1.1,3,1.2,4.5,1.8.6.2,1.1.7,1.6,1.2M78.3,92c-.7-.6-1.4-1.2-2.2-1.7-2.6-1.7-5.3-2.9-8.5-2.6-2.7.2-5.4,0-8.1,0-.8,0-1.7,0-2.4.4-2.7,1.2-5.3,2.5-7.9,3.9-1.3.7-2.4,1.7-3.7,2.3-.9.4-1.5.9-1.7,1.9-.2.7-.5,1.3-.8,1.9-.9,1.7-1.9,3.3-2.9,4.9-.1.3-.2.8-.1.9.4.2.8.4,1.3.4.5,0,1.1,0,1.6,0,1.6,0,3.2,0,4.6-1,1.7-1.3,3.3-2.6,5.1-3.8,2.6-1.6,5.2-3,8.5-2.7,2.9.3,5.9.1,8.9.3,1.3,0,2.6.4,3.9.9,2.4.9,4.2,2.8,5.9,4.6.7.8,1.5,1.4,2.6,1.6,4,.9,7.7.3,10.9-2.6.9-.8,1.6-1.8,2.3-2.8.5-.7.9-1.5,1.2-2.3.5-1,.9-2,1.4-3,.4-.8,1.1-1.5,1.3-2.3.6-2.8,2.3-4.3,5-4.8,1.7-.3,4.7.5,5.9,2.3,1.6,2.5,3.7,4.8,5.6,7.2.8,1,1.8,1,2.9.9,1.1,0,2.3-.1,3.4-.1,1.4,0,2.9,0,4.3.1.7,0,.7-.3.4-.8-1-1.8-1.7-3.7-1.8-5.9,0-1.9-.3-2.2-2.2-2.8-1.2-.3-2.4-.4-3.5-.8-3.8-1.3-6.8-3.5-9-6.9-2.4-3.7-7.1-3.7-9.6-.9-1.4,1.6-2.3,3.8-3.2,5.9-.7,1.5-1,3.2-1.9,4.6-.9,1.4-2.3,2.5-3.5,3.6-2.9,2.5-6.4,3.1-10,1.9-1.4-.5-2.4-1.8-3.7-2.9M99.3,74.8c0,.3,0,.7,0,1,.1-.1.3-.2.4-.3,0-.2,0-.5-.4-.7Z"/>
    <path d="M125.1,18.7c-2.1,0-4.1-.2-6,0-2.5.3-3.7-1.2-5-2.8-1.8-2.2-3.6-4.5-5.4-6.7-.7-.9-1.7-1.3-2.9-1.2-1.7.2-3.5,0-5.1.6-1.3.4-2.6,1.4-3.6,2.4-2.2,2.2-4.1,4.7-5.5,7.4-1.3,2.6-3.6,4.3-5.7,6.3-.9.9-2.2,1.4-3.4,2-1.2.6-2.1,0-3-.6-1.5-1.2-2.9-2.7-4.6-3.5-2.4-1.2-4.6-3-7.6-3.1-.9,0-1.7-.8-2.6-.9-1.4,0-2.9,0-4.4.3-2.8.5-5.4,1.6-7.5,3.4-1.3,1.1-2.4,2.3-3.6,3.4-1.4,1.4-3.1,1.7-5,1.4-.8-.1-1.7,0-2.5.2-.7.2-.5.7,0,1.2,1.2,1.6,2.3,3.3,3.4,4.9.5.8.9,1.6,1.4,2.4.5.6,1,.5,1.5,0,1.7-1.7,3.4-3.4,5.3-5,1.9-1.6,4.2-2.3,6.5-2.8.6-.1,1.3-.2,1.9-.3,2.6-.3,4.9.5,7.3,1.3,3.4,1.1,6.3,3.2,9.2,5.2.9.6,2,1,3,1.5,1.3.6,2.3,0,3.2-.7,1.2-1.1,2.2-2.5,3.5-3.5,2.4-1.8,3.9-4.3,5.6-6.7,1.1-1.4,1.9-3,3-4.5.4-.6,1.3-.8,1.9-1.3,2.4-2,5.3-2.4,8.2-2,1.2.2,2.3,1.5,3.2,2.6,2,2.4,3.8,4.9,5.7,7.4.3.4.3,1.1.5,1.7.2.8.2,1.6.4,2.4.4,2,1.2,3.9,2.4,5.6.5.7.8,1.5,1.4,2.1,1,1.1,2.1,2.3,3.3,3,2.2,1.3,4.5,2.3,7,2.9,3.2.7,6.4.3,9.7.4,1.6,0,1.9.8,1.6,2.6s0,.1,0,.2c0,4.5.5,5-1.7,5-6.6,0-13.2,0-19.8,0s-1.9,0-2.9,0c-.4,0-.8-.2-1.1-.4-1.9-2.3-3.9-4.6-5.7-7.1-1.7-2.4-4.1-3.3-7.2-3-2.4.2-4.4,1.2-6.1,2.6-1.2,1-2,2.4-2.9,3.6-1.5,2-2.8,4.2-4.5,6.1-1.6,1.8-3.5,3.4-5.2,5-2.5,2.3-6.6,1.2-8.3-3.5s-.6-.8-1.1-.8c-4.7,0-8.7-2.9-13.4-2.6-4,.3-7.5,1.7-10.4,4.3-1.1,1-2.1,2.2-3.3,3.2-.6.5-1.4.9-2.1.9-2,0-4,0-6-.2-2-.1-4.1,0-5.9-.6-1.9-.6-3.6-1.7-5.2-2.9-1.8-1.3-3.5-2.8-5-4.5-1.7-1.8-3.2-3.9-4.6-5.9-.7-1.1-.9-2.6-1.6-3.7-1.7-2.9-2.5-6-3.4-9.2-.5-1.8-.7-3.6-1-5.4-.2-1.3.6-1.6,4.1-.4.1,0,.3,0,.5,0,3.4-1.6,3.5,0,3.6.9.5,3.4,1.6,6.5,2.7,9.7,1.1,3.2,3.1,5.8,4.8,8.6,1.7,2.8,4.5,4.3,7.4,5.4,1.4.5,3.1,0,4.6.1,1.2,0,2.3.2,3.5.2,1.1,0,2.2-.1,3.3-.3.3,0,.6-.4.9-.6,2.1-2.1,4.1-4.4,6.8-5.8,1.3-.6,2.7-1.3,4.1-1.5,2-.3,4.1-.3,6,0,1.8.3,3.6,1.2,5.3,1.9,2.3,1,4.7,2,6.7,3.7.6.5,1.2.9,1.8,1.4,1.7,1.2,4,1.2,5.4-.2,2.3-2.2,4.5-4.5,6.6-6.9,1-1.1,1.6-2.5,2.5-3.8,1.5-2.4,3.1-4.7,5.6-6.1,1.5-.8,3.4-.7,5.1-1.1,1.6-.4,2.7.5,3.7,1.4,1,.9,1.8,2,2.5,3.2.6,1,.9,2.2,1.4,3.3.2.3.8.5,1.2.7,0,0,.5-.3.4-.3-.1-.4-.4-.7-.5-1.1-.3-.7-.5-1.3-.7-2-.8-2.9-1.5-5.9-2.2-8.8-.4-1.5-.7-3-1-4.5-.2-1-.8-1.1-1.7-1.2-3.8-.3-7.3.5-10.5,2.8-2,1.4-2.9,3.6-4.1,5.6-.7,1.1-1.4,2.3-2.3,3.3-1.9,2-4,3.9-5.9,5.9-1.8,1.9-4.4,1.6-6,0-1.3-1.2-3-2-4.5-2.9-1.1-.7-2.2-1.6-3.4-2-2-.7-4.1-1.3-6.2-1.7-1.8-.3-3.8-.4-5.5,0-2.7.7-5.5,1.6-7.5,3.9-1.3,1.5-2.9,2.8-4.4,4.1s0,0,0,0c-2.4,0-4.9,0-7.3-.2-.4,0-1-1.1-1-1.7-.2-2.3-.6-4.5-1.6-6.6-1-2.2-1.7-4.5-2.7-6.7-.6-1.2-1.5-2.2-2.3-3.3-.7-.9-1.3-2-2.2-2.7-1.7-1.4-3.5-2.8-5.4-3.8-1.1-.6-2.5-.7-3.8-.7-2.3-.1-4.6,0-6.9,0-1.1,0-1.4-.3-.7-3s0-.7,0-1c-.7-3.3-.6-4.3,1.2-3.9.3,0,.7,0,1.1,0,3.6,0,7.2,0,10.8,0,1.2,0,2.4.1,3.6.3.3,0,.6.3.9.6,1.6,1.5,3.1,3.1,4.7,4.7.8.7,1.5,1.5,2.4,2.1.6.4,1.4.8,2.1.8,2.2.1,4.4,0,6.6,0,.6,0,1.2-.4,1.6-.8,1.8-1.6,3.5-3.4,5.3-5,.7-.6,1.7-1,2.5-1.3,2.6-1.1,5.3-1.5,8-1,3,.6,6.1,1.3,8.7,3.3s0,0,.2,0c2.3.7,4,2.3,5.8,3.6,1.6,1.2,3.8,1.8,5.5-.1.5-.5,1-1,1.5-1.5,3.5-3.2,6.4-6.8,8.9-10.9,2.5-4.1,6.7-5.8,11.7-5.2s0,0,0,0c2.4,2.8,4.8,5.6,7.1,8.5,1.2,1.5,2.6,2.3,4.5,2.3,2,0,4,0,6,0,.8,0,1,.2,1.1,1,0,1.8.3,3.7.5,5.5,0,.9.6.9,1.2.4,2.3-2,4.5-4,6.7-6,.9-.8,1.7-1.2,3.2-.8s.1,0,.2,0c3.8,0,4.8-1.2,4.3,2.1s0,.6.2.9c1.2,1.8-.2,5.6-2,4.6s-.2,0-.3,0c-3.3,1.9-5.5,3.5-6.1,6.8-.6,3.3.3,6.5-.4,9.7s0,0,0,0c-2.2,0-4.3,0-6.5,0-1.3,0-1.6-.7-1.4-2.2s0-.7,0-1c-.2-4.3-.2-8.5,1.7-12.5,0-.2-.2-.7-.4-.8-.4-.2-.8-.2-1.4-.3M38.7,33.2c.1.2.3.3.4.5l.2-.2c-.2-.1-.3-.3-.6-.3Z"/>
    <path d="M86.1,242.2c2.3-1.7,4.2-3.7,5.8-6,1.5-2.1,3.8-3.1,6.3-3.7,3.2-.8,6.1-2.3,8.6-4.6.5-.5,1.4-.9,2.2-1,2-.2,3.9-.4,5.6,1.4,2.7,2.9,6,4.9,9.8,6,.1,0,.3,0,.4,0,2.2,1.6,4.7,1.5,7.3,1.5,3.8,0,7.5,0,11.3,0,1.6,0,2.4,1.2,2.1,2.8-.2,1.2-.1,2.4,0,3.6,0,1.8-.1,2-2,2-2.3,0-6.6,4-6.7,6.3-.1,2.6-.2,5.2-.3,7.9,0,.4,0,.7,0,1.1,0,1.5-.7,2-2.1,1.9-.6,0-1.2,0-1.8,0-1.1,0-2.1,0-3.2,0-.9,0-1-.6-.9-1.3,0-.4,0-.9,0-1.3s0-1,0-1.5c0-.5,0-1,0-1.5,0-.2-.2-.4-.2-.5,0-1.5,0-3,.3-4.4.4-1.8,1.2-3.6,1.8-5.4.1-.3-.3-1.2-.5-1.2-2.4,0-4-1.6-6-2.3-1.4-.5-2.9-1-4.2-1.9-1.9-1.3-3.6-2.8-5.3-4.3-1.3-1.1-5-1.7-6.6-.3-2.3,2-4.9,3.6-7.8,4.6-1.8.6-3.7.9-5.4,1.7-1.1.5-2,1.6-2.8,2.7-2.1,2.8-4.4,5.3-7.7,6.7-3,1.2-5.9.7-8.5-1.2-2-1.4-3.8-3-5.8-4.5-1.1-.8-2.2-1.4-3.4-1.9-1.9-.9-3.9-1.8-5.9-2.4-2.3-.6-4.7-.3-7.1,0-3.9.6-6.5,3.3-9.4,5.5-1.1.8-2.1,1.5-3.5,1.4-1.7-.1-3.3,0-5,0-1.7,0-1.8.4-1.6,2.1.2,1.6,1,2.9,1.9,4.2,1,1.6,5.2,3.2,7,2.7.4-.1.8-.5,1.2-.8,1.9-1.5,3.8-3.1,5.8-4.5,1.7-1.1,3.7-1.8,5.7-1.9,4.1-.3,7.8,1.4,11.5,3,2.8,1.2,5,3.1,7.1,5.1,1.6,1.6,3.6,2.2,5.7,2.6,2.5.5,4.9-.1,7-1.3,1.6-.9,2.7-2.6,4.1-3.9,1.7-1.7,3.2-3.5,5.1-4.9,1-.8,2.6-.8,3.9-1.1,2.5-.6,4.6-2.1,6.6-3.6,1.5-1.1,2.9-2.2,4.4-3.1.3-.2,1-.1,1.3,0,2.6,2,5.1,4.1,7.7,6.2.3.3.6.9.6,1.4,0,1.9-.3,3.7-.5,5.6,0,.9-.4.9-1.1.3-1.9-1.7-3.9-3.5-5.9-5.1-.4-.3-1.2-.4-1.7-.2-2.2.8-3.9,2.4-5.8,3.7-2,1.3-4.2,2.4-6.5,2.9-3.6.8-5.9,2.9-8,5.7-2.7,3.7-6.2,5.9-10.9,5.6-2.2-.2-4.2-1.2-5.9-2.6-1.3-1.1-2.6-2.2-3.8-3.4-1.3-1.2-2.7-2-4.4-2.3-.8-.1-1.4-.9-2.2-1.2-1.6-.5-3.3-1-5-1.2-1.9-.2-3.9,0-5.9,0-4.1-.3-6.8,1.8-9,4.9-1.6,2.2-3.1,4.4-4.6,6.6-.9,1.3-1.8,2.7-2.7,4-.4.5-.3,1,.4,1,1.8-.2,3.6.7,5.3-.2,1.4-.8,2.8-1.5,4.1-2.4,1.5-1,2.9-2.4,4.5-3.2,2.8-1.4,5.8-1.8,8.8-1,2.2.5,4.5,1,6.5,1.9,1.9.9,3.6,2.2,5.3,3.5,2,1.6,4,3.3,6.4,4.4,1.5.6,3,.6,4.6.5,3.6-.2,5.8-2.7,8.1-4.8,1.2-1,2.2-2.4,3-3.7.8-1.3,2-1.8,3.3-2,3.6-.7,6.9-2.1,9.8-4.3.6-.4,1.2-.9,1.8-1.3,1.8-1.2,3.8-1.3,5.6,0,1.7,1.3,3.5,2.5,5.1,3.9,1.9,1.5,4.3,2,6.4,3.2,2.5,1.4,5.1,1.2,7.7,1.2,3.7,0,7.4,0,11.1,0,1.1,0,1.6.4,1.5,1.5-.1,1.8-.1,3.6-.3,5.4,0,.4-.7,1-1.1,1.1-1.4.1-2.9,0-4.4,0-3,0-5.9.3-8.9.2-2.2,0-4.3-.4-6.3-1.7-.9-.6-2.1-.8-3.1-1.2-1.7-.6-3-1.9-4.3-3.1-1.2-1.1-2.4-2.3-3.9-2.9-2-.9-4.1-.3-6,.9-1.9,1.2-3.8,2.7-5.8,3.7-1.3.7-2.9,1-4.4,1.3-2.2.3-3.5,1.7-4.9,3.3-2.1,2.3-4.4,4.5-6.9,6.4-1.7,1.3-4.1,1-6.2.7-3.2-.5-5.3-2.6-7.4-4.9-.7-.8-1.8-1.3-2.7-1.7-2.9-1.2-5.8-2.6-8.9-3.4-2.1-.5-4.4-.4-6.6,0-3.8.7-6.9,2.9-9.6,5.6-.9.8-1.8,1.3-3.1,1.3-1.4,0-2.8.2-4.2.2-.6,0-1.3-.2-1.9-.2-2.1,0-4.3,0-6.4,0-2.4.1-4.6-.3-6.6-1.5-1.1-.6-2.3-.9-3.3-1.6-.9-.5-1.4-1.1-1.1-2.4.3-1.3,0-2.8-.2-4.2-.2-1.4.4-2,1.8-1.9,2.7.1,5.5.3,8.1-.7,2.2-.9,3.7-2.5,5.1-4.4.5-.7,1.2-1.3,1.9-1.9.7-.5.8-.6,0-1-2.9-1.7-4.9-4.1-6.6-7.1-1-1.7-.8-3.7-2-5.3-.2-.3.3-1.1.2-1.6-.4-1.6.2-3.3,0-4.9-.2-1.2,0-2.4-.3-3.5-.2-.7,0-.6.4-.6,1.5,0,3.1,0,4.6,0,1.7,0,3.4-.2,5-.2.7,0,1.3.2,2,.2,1.7,0,3.3-.1,5-.3.3,0,.6-.3.9-.5,1.6-1.3,3.1-2.8,4.8-4,2-1.5,4.4-2.5,6.9-2.6,2.9,0,5.9,0,8.6,1.6.9.5,2,.7,3,1.1,1,.5,1.9,1,2.8,1.7,2,1.6,3.8,3.5,5.8,4.9,1.1.8,2.6,1.1,3.9,1.3,2.5.4,4.9-.3,7.3-1.3M23.4,273.8c.3-.3.8-.6,0-.8-.3,0-.7.2-1,.3.3.2.6.5,1,.6Z"/>
    <path d="M61.8,361.7c1.6-.4,3-1,4.5-1.2,3.5-.6,6.7.6,9.8,1.8,2.3.9,4.3,2.7,6.4,4.1,1.6,1,3,2.5,5,2.3.7,0,1.6-.3,2.1-.8,2.5-2.3,4.9-4.7,7.2-7.2,1.2-1.3,2.1-2.7,3-4.2,1.6-2.7,3.7-4.8,6.5-6.1,2.2-1,4.6-1,6.9-.7.7,0,1.4.9,1.9,1.6,1.7,2.2,3.3,4.5,5,6.8.5.7,1.1,1.4,1.7,2.1.1.2.3.4.3.6-.3,1.9.7,3.7.8,5.6,0,.3.4.7.6,1,1,1.6,1.9,3.3,2.9,4.9.4.6.9,1.2,1.4,1.6,1.4,1,2.9,1.8,4.3,2.8.9.6,1.7,1.5,2.5,2.3.2.2.3.4.6.5.2,0,.5,0,.8-.1-.1-.2-.2-.4-.4-.6-.2-.2-.4-.3-.6-.4.3-.1.6-.3.9-.3,1.3.1,2.5.4,3.8.5.6,0,1.2,0,1.8,0,1.9.1,3.7.3,5.6.5.2,0,.6.5.6.8,0,2.1-.1,4.2-.3,6.3,0,.2-.5.4-.7.4-2.6,0-5.2,0-7.9,0-2.6,0-5.2.2-7.8.2-2.7,0-5.5,0-8.2-.3-.8,0-1.6-.8-2.2-1.5-1.4-1.6-2.6-3.4-3.9-5.1-.7-.9-1.2-2-2-2.7-1.9-1.8-4.2-2.3-6.7-1.4-1.6.6-3.2,1.5-4.8,2.3-.9.4-1.7.8-2.8.4-.6-.3-1.4,0-2.1,0-.7,0-1.1,0-.6-.9.7-1.1,1.2-2.4,2-3.4,1-1.4,2.3-2.6,3.4-3.9,1.1-1.3,2.6-2,4.3-2.3.8-.1,1.6-.4,2.4-.5,2.5-.4,4.1,1,5.4,2.9,1.1,1.6,1.9,3.4,2.8,5.1.2.3.5.5.8.7,0,0,.4,0,.5-.2,0,0,0-.3-.1-.4-.2-.6-.5-1.1-.7-1.7-.3-.7-.5-1.5-.7-2.2-.3-1.3-.5-2.7-.8-4-.2-.9-.3-1.8-.5-2.7-.5-2-1-4-1.5-6,0-.3-.4-.7-.6-.7-2.4.1-4.8-.4-7.1.5-2.8,1-5.3,2.3-6.9,5-2.3,4-5.2,7.6-8.7,10.7-.7.6-1.3,1-2.4.7-2.1-.5-4.4-.4-6.5-.9-1.3-.3-2.5-1-3.7-1.6-1.8-.9-3.4-2.2-5.6-2.4-1.1,0-2.2-.9-3.3-1-2.4-.2-4.8-.3-7.3.6-2.6,1-5,2.6-8.1,2.6-2.5,0-5.1.9-7.5,1.6-2.7.8-2.6.8-3.6-1.9-1-2.9-1.9-5.9-3.3-8.8-1.5-3.3-3.7-5.8-6.1-8.3-1.1-1.2-2.6-2.2-4.1-2.9-1.1-.5-2.4-.7-3.7-.8-2.4-.1-4.8,0-7.2,0-.8,0-1-.3-1-1,0-1.7-.1-3.4-.2-5-.1-1.7.4-2.1,2.1-2,1.4,0,2.8-.2,4.2-.2,1,0,1.9,0,2.9,0,1.8,0,3.7.2,5.5.2.8,0,1.5,0,2.3,0,.5,0,1,.4,1.3.7,2.3,2.2,4.6,4.5,7,6.7,1,.9,2.1,1.2,3.5,1.1,1.7-.2,3.5,0,5.3,0,1,0,1.6-.3,2.3-1.1,1.6-1.8,3.4-3.5,5.3-5,.9-.7,2.2-.8,3.2-1.3,1.6-.8,3.3-.7,5-.8,3.9,0,7.2,1.3,10.6,3.1,2.6,1.4,4.9,3,7.2,4.8.9.7,2.9.5,3.7-.2,1.8-1.7,3.6-3.5,5.5-5.2,2.3-2.2,4-4.8,5.6-7.5,1.2-2.1,3.1-3.6,5.3-4.6,1.3-.6,2.7-1.2,4.1-1.5,2.4-.4,4.1.9,5.5,2.6,1.5,1.7,2.9,3.6,4.2,5.5.3.4.4.8.7,1.2,1,1.4,2.4,1.9,4.1,1.9,1.8,0,3.6.2,5.4.2,1.2,0,2.4-.2,3.6-.2,1.3,0,2.5.1,3.8.2.4,0,.9,0,1.3,0,.3,0,.5-.2.8-.2,2.5,0,5,0,7.4,0,.8,0,1.2.4,1.3,1.1.1,2,.2,3.9.2,5.9,0,.4-.6,1.2-.9,1.2-2,.2-3.6,1-5,2.3-1.5,1.3-2.6,2.7-2.7,4.8,0,1.6-.4,3.1-.5,4.7,0,1.1-.1,2.2,0,3.3.2,1.4-.6,2.1-1.9,2-1.3-.2-2.7-.2-4.1,0-1.5.2-2.3-.3-2.3-1.8,0-3.3.1-6.5.3-9.8,0-.4.3-.9.5-1.3.5-1.1,1-2.2,1.4-3.4,0-.1-.5-.6-.8-.7-2.9-.1-5.7-.2-8.6-.3-.8,0-1.4-.1-1.9-1-.5-.9-1.4-1.6-2.1-2.5-1.6-1.9-3.1-3.9-4.7-5.8-.8-1-1.9-1.9-3.3-1.8-1.7.1-3.4,0-5,.6-1.3.4-2.4,1.4-3.4,2.3-2.5,2.2-4.3,4.9-6,7.7-.9,1.4-2,2.7-3.1,3.9-1.1,1.2-2.3,2.3-3.6,3.3-2,1.6-4.3,2.5-6.2.4-1.1-1.2-2.6-2.2-4.1-3.1-1-.7-2.2-1.2-3.3-1.6-2.1-.9-4.3-1.9-6.5-2.4-1.6-.3-3.4,0-5.2.3-1,.1-2.1.3-2.9.7-1.8,1-3.7,2.1-5.3,3.3-1.3,1-2.5,2.2-3.6,3.3-.9.9-1.9.9-3,.9-1,0-2,0-3,0-.3,0-.7.2-1,.3.1.3.2.7.4.9,1.1,1.5,2.2,3,3.2,4.5.3.4.3,1,.6,1.5.4.7.9,1.4,1.5,1.9.2.1,1.1-.5,1.5-.9,1.2-1.1,2.4-2.2,3.4-3.4,1.3-1.5,2.8-2.4,4.7-3.1M85.3,370.2c-.5,0-.9,0-1.4,0-.3,0-.5.2-.7.3.3.1.5.4.8.4,1.4,0,2.8-.1,4.2-.2.9,0,1.8-.2,2.6-.2.9,0,1.8,0,2.6,0,.1,0,.3-.3.4-.4-.1-.1-.2-.3-.4-.3-.2,0-.5,0-.7,0-2.4.2-4.8.3-7.5.5M107.6,369.1c-.6,0-1.2,0-1.8.1-.3,0-.5.3-.7.5.2,0,.5.2.7.2,2.3,0,4.7-.2,7-.2.2,0,.3-.1.5-.2-.2-.1-.3-.3-.5-.4-.3-.1-.6-.2-.9-.2-1.4,0-2.8,0-4.3.1M74.8,351c1.9,0,3.8-.2,5.7-.3.2,0,.4-.1.6-.2-.2-.1-.4-.3-.6-.3-2,0-4,.1-6,.2-.7,0-1.4.2-2.1.3.7,0,1.4.1,2.4.2M119.1,369.3c0,.2.2.6.2.6,1,0,2.1,0,3.1,0,.1,0,.3-.3.4-.4-.2-.1-.3-.3-.5-.3-1,0-2.1,0-3.2.1M54,370.3c1.2-.1,2.5-.2,3.7-.4.2,0,.4-.2.6-.3-.2,0-.4-.2-.6-.2-1.1,0-2.2.1-3.2.3-.2,0-.4.5-.4.6M123.8,373.5c-.3-.4-.6-.7-.8-1.1-.1.3-.4.7-.4.9.2.6.6,1,.9,1.5.1-.4.2-.7.3-1.3M80.3,370.7c.7,0,1.4.2,2.1.2.2,0,.3-.1.5-.2-.1-.1-.2-.3-.4-.3-.8-.1-1.7-.2-2.5-.2-.3,0-.6.1-.9.2.3.1.6.2,1.1.3M125.6,379.5c.2,0,.6,0,.7-.2.1-.2.2-.6,0-.7-.2-.3-.6-.4-.9-.6,0,.3-.1.7-.1,1,0,.1.1.3.3.5M136.2,349.2c.5-.1,1.1-.2,1.6-.3-.5,0-1.1-.1-1.6-.2,0,0-.2,0-.2,0-.3,0-.6.2-.9.3.3,0,.6.1,1.1.2M55.9,351c-.9.8.4.3.3.6.5,0,1-.1,1.5-.2,0,0,0-.2,0-.2-.4,0-.8-.1-1.3-.2-.1,0-.2,0-.6,0M60.4,351.5c.4-.1.7-.2,1.1-.3,0,0-.1-.2-.2-.2-.4,0-.8,0-1.2,0,0,0,0,.3.3.5M89.9,373c-.1-.2-.3-.4-.4-.6-.1.1-.2.2-.3.3.2.1.4.3.7.3M139.8,349.1c.2.1.3.3.5.4,0,0,.1-.1.2-.2-.2-.1-.4-.2-.7-.2Z"/>
    <path d="M64.2,520.4c2.8-1.2,5.6-.9,8.3.1,1.6.6,3.3,1.5,4.6,2.6,2.5,2,5.5,2.7,8.3,2.9,2,.2,4.3-.6,6.4-1.6,2.5-1.2,4.2-3.4,6.2-5.1,2-1.7,3.9-3.6,5.9-5.3.4-.3.8-.6,1-1.1.8-1.2,2-1,3.1-1,1.6,0,3.2,0,4.9,0,1.6-.1,2.8.6,4.1,1.3,1,.6,2.1.9,3.1,1.4,2.8,1.6,5.1,3.8,6.8,6.5,1.4,2.2,3.1,4.3,4.6,6.4.4.6.6,1.5.7,2.2,0,3.9,1.5,7.3,3.3,10.6,1,1.6,2.5,3,4.3,3.9.3.1.8.2.9,0,.3-.4.8-1,.7-1.3-.3-1-.6-1.8,0-2.8.2-.4-.1-1.2-.2-1.9-.1-1.7-.5-3.5-.1-5.1.3-1.4,0-2.8,0-4.1,0-1.4.3-2.9,0-4.4-.2-1.2,0-2.6.1-3.9,0-.3,0-.5,0-.8,0-1.6.3-3.3,0-4.8-.4-1.7.9-3.3-.1-4.9-.4-.6.8-1.5,1.6-1.4.7,0,1.4,0,2,0,1.1,0,2.3-.2,3.4,0,.9.2,1.5.9,1.4,1.9,0,1.2,0,2.3,0,3.5,0,2.3.2,4.6.2,6.9,0,1.5-.2,3-.2,4.4,0,1.5.2,3,.2,4.6,0,3.1,0,6.2,0,9.3,0,5.1,0,10.2,0,15.2,0,2.5-.4,5.1-.4,7.6,0,.9.1,1.6-.6,2.2-.2.2-.6.3-.9.3-1.4,0-2.9-.2-4.3-.2-.2,0-.5,0-.7,0-1.2.3-1.6,0-1.3-1.2,0-.2,0-.5,0-.7-1.2-4.2-2.6-8.2-6-11.2-.7-.6-1.4-1.2-2.2-1.7-3.4-2.3-5-6-7.1-9.3-1-1.6-1.2-3.8-1.6-5.8-.3-1.5-.3-3.1-.5-4.6,0-.4-.2-.8-.5-1-2.7-2.9-5.5-5.7-8.3-8.5-.5-.5-1.4-.8-2.1-.8-1.8-.1-3.6,0-5.4,0-1.1,0-2.1.4-3,1.2-1.3,1.3-2.9,2.3-4.2,3.6-.9.8-1.5,1.8-2.4,2.6-2,1.8-4,3.7-6.3,5.2-1.3.9-3,1.3-4.6,1.5-2.5.3-5.1,0-7.4-1.2-1.5-.8-2.9-2-4.5-2.7-1.7-.9-3.6-2-5.4-2.1-2.5,0-5.1,0-7.6,1.1-3,1.4-6.2,2.7-9.4,3.8-1.1.4-2.4.2-3.6.2-1.6,0-3.2,0-4.8,0-.3,0-.7,0-1-.2-2.3-1.1-4.7-2.2-7-3.2-.4-.2-.8-.3-1.2-.3-1.1,0-1.3.8-1,1.8.6,1.8,1.1,3.7,1.3,5.6.2,2.2,0,4.4,0,6.6,0,4.3,0,8.7,0,13,0,1.4-.2,2.7-.2,4.1,0,2,0,4.1,0,6.1,0,.6-.2,1.2-.4,1.7-.2.7-.7,1.1-1.5,1-1.7,0-3.4,0-5.1,0-.9,0-1.6,0-1.3-1.3.2-1,0-2.1,0-3.1,0-2.2.2-4.3.2-6.5,0-1.8-.2-3.5-.2-5.3,0-2.8.2-5.6.2-8.4,0-1.3,0-2.7,0-4,0-1.6,0-3.2-.7-4.7-.7-1.7-1.2-3.6-2.9-4.5-1.6-.9-3.2-2.3-5.3-2-.1,0-.5-.3-.5-.5,0-1.7.1-3.5.2-5.2,0-.5,0-.9,0-1.4-.2-1.3.4-1.6,1.6-1.5,2,0,3.9-.2,5.9-.2,1.3,0,2.7.2,4.1.2,1.4,0,2.9-.3,4.3-.2,1.1,0,2.2.4,3.3.8,1.8.7,3.5,1.6,5.2,2.4,2.7,1.2,5.5.6,8.3.8,1.7.1,3.3-.3,4.8-1.1,2.1-1.1,4.3-2.1,6.6-3.1.6-.3,1.3-.2,2.1-.3Z"/>
    <path d="M73.7,478.6c-3-2.1-6.3-1.7-9.6-1.6-1.9,0-3.5.8-5.1,1.6-2.3,1.1-4.6,2.4-7,3.2-1.5.5-3.2.2-4.8.3-.1,0-.3-.2-.4-.2-1.6,0-1.6,0-1.6-1.7s0-3.7,0-5.5c0-.8.3-1,1-1,1.9,0,3.8,0,5.7,0,.3,0,.7,0,1,0,2.2-1.1,4.6-1.8,6.6-3.3,1.3-.9,2.8-1.5,4.3-1.8,1.3-.3,2.8,0,4.2.2,1,0,2,0,2.9.3.9.2,1.9.6,2.7,1.1,2.1,1.3,4.2,2.5,6.6,3.1.4.1.8.2,1.3.2,1.6,0,3.2-.1,4.7,0,1.7.2,3.1-.4,4.4-1.2,2.8-1.6,5.6-3.3,8.3-5.1,1.9-1.3,3.7-2.9,5.6-4.2,2.2-1.5,4.8-2.2,7.4-2.8.3,0,.5-.1.8-.2,1.1-.5,2.1-.4,2.9.5,2.3,2.3,4.7,4.6,6.9,7,.5.5.8,1.3.8,2,0,1.6-.1,3.2-.2,4.8,0,.6,0,1.2,0,1.8-.5-.4-1.1-.8-1.6-1.3-1.9-1.8-3.8-3.6-5.5-5.6-.8-.8-1.6-1.1-2.6-.9-4.7.7-9,2.3-12.6,5.5-2.9,2.6-6.1,4.9-9.6,6.5-.7.3-1.5.7-2.1,1.3-1.3,1.1-.9,2.5-.8,3.9,0,1.2-.1,2.4,0,3.6,0,.6.3,1.2.7,1.7,0,.1.8,0,1.2-.3,2.2-1.2,4-2.9,6.5-3.6.6-.2,1.1-.9,1.7-1.4,1.7-1.3,3.3-2.8,5.1-4,1.7-1.1,3.6-2,5.5-2.8,1.4-.6,2.9-.9,4.4-1.1.6,0,1.4.2,1.8.6,1.8,1.5,3.4,3.2,5.1,4.8.7.7,1.4,1.3,2,2,.9,1.1,2,1.3,3.4,1.3,1.5,0,3.1,0,4.6,0,2.2.1,4.4,0,6.5.6,2,.5,3.9,1.6,5.7,2.7,2.3,1.3,4,3.3,5.1,5.7.9,1.8,1.3,3.8,2,5.7,0,.1,0,.3,0,.5.5,2.1-.4,2.9-2.5,2.6-1.4-.2-2.8,0-4.2,0-.6,0-1.1.1-1.3-.8-.2-1.3-.6-2.7-1.3-3.8-1.4-2.1-3.2-3.6-6-4.2-2.3-.5-4.6-.3-6.9-.4-.8,0-1.6.1-2.3,0-.8-.2-1.8-.5-2.4-1.1-2.2-2-4.2-4.1-6.3-6.2-1.1-1.1-2.1-1.4-3.9-1.1-2.1.4-4.1,1.1-5.9,2-1.9.9-3.8,1.9-5.5,3.2-4.2,3.3-8.4,6.6-13.6,8.2-1.8.6-3.9.2-5.9.2-.6,0-1.3,0-1.9-.3-2.1-1-4.1-2.1-6.1-3.3-1.5-.9-3.1-1.3-4.8-1.4-1.4-.1-2.9,0-4.4,0-2,0-3.8.7-5.5,1.7-2.4,1.4-4.7,3.1-7.6,3.3-2.3.2-4.6,0-7,0-.5,0-1-.5-1.5-.8-2.1-1.1-4.2-2.2-6.2-3.5-1.2-.8-2.6-.7-3.5-.3-1.8.9-3.8,1.8-4.8,3.7-.6,1-.9,2.2-1.3,3.3-.2.5-.4,1.2-.9,1.5-.3.2-1,0-1.5,0-1.2,0-2.4.2-3.7.2-.8,0-1.5,0-2.3,0-.1,0-.3-.5-.3-.7,0-1,.1-2,.4-3,.2-.8.7-1.6,1-2.5.8-2.3,2-4.5,3.8-6.2,1.1-1,2.1-2.2,3.4-2.9,1.8-.9,3.7-1.5,5.6-2.1,3.2-1,5.4.7,7.7,2.2,2.2,1.5,4.5,2.7,7.3,2.4,2.2-.2,4.4-.2,6.5-.6.9-.1,1.8-.8,2.6-1.3,3.5-2.3,7.2-3.6,11.4-3.1,3.6.4,6.8,1.7,9.7,3.9.4.3,1.2.5,1.3.4.4-.5.7-1.1.8-1.8.1-1.5,0-3.1.2-4.6.1-1-.3-2.2-1.2-2.7-1.7-1-3.4-2-5.2-3Z"/>
    <path d="M76.8,194.6c-2.4-1.8-4.8-3.7-7.6-4.3-2.4-.5-5-.5-7.3,0-3.4.9-6.5,2.5-9.8,3.8-.7.3-1.8.5-2.5.5-2.4,0-4.8,0-7.3,0-.3,0-.8-.1-1.1-.2-2.2-1-4.3-2-6.5-3-.3-.2-.8-.2-1.1-.2-1.3,0-1.7.6-1.2,1.8.8,1.8,1.5,3.6,1.3,5.6-.1,1.3.4,2.7.4,4,0,1.4-.2,2.8-.2,4.2,0,1.2.2,2.5.2,3.7,0,1.5,0,2.9,0,4.4v1.7c0,3.4,0,6.8,0,10.2,0,1.4-.9,2.2-2.3,2-1.3-.2-2.8,0-4.1.2-1,.1-1.6-.3-1.5-1.3,0-1.7.2-3.4.2-5,0-2.3-.2-4.6-.2-6.9,0-2,0-3.9,0-5.9,0-3.4-.1-6.9-.3-10.3,0-.6-.2-1.1-.5-1.7-1-2.1-1.5-4.5-3.9-5.5-1-.4-2-.9-3-1.3-.1,0-.3-.2-.4-.2-1.8.6-1.4-.7-1.4-1.6,0-1.7,0-3.5,0-5.2,0-1,.2-1.4,1.8-1.1s2.1.2,3.1,0c3.1-.4,6.2.2,9.3-.2,2.8-.3,4.9,1.2,7.3,2.2,1.7.7,3.6,1.3,5.4,1.6,1.8.3,3.7,0,5.6,0,2.2.1,4-1,5.8-1.9,2.7-1.3,5.5-2.5,8.4-3,2.7-.5,5.5,0,8,1.4,2.1,1.2,4.2,2.6,6.5,3.5,2.7,1.1,5.7,1.4,8.6.4,2.1-.7,4.1-1.6,5.7-3.4,1.6-1.8,3.6-3.2,5.3-4.9,1.3-1.2,2.4-2.6,3.8-3.7s1.4-.9,2.2-.9c2-.1,4.1,0,6.1,0,.4,0,1.1.2,1.5.4,3,1.5,6.4,2.4,8.7,5.1,2.7,3.1,5.2,6.5,7.8,9.7.2.3.4.6.4.9-.1,1.7.4,3.2.7,4.8.3,1.9,1.2,3.5,2,5,1.1,2,2.6,3.7,4.6,4.9.3.2.9.3,1.1.2.4-.3.9-1,.8-1.2-.6-.9-.3-1.8-.2-2.7,0-.9.1-1.8.1-2.6,0-1.2,0-2.4-.1-3.7,0-1.2-.2-2.5-.2-3.7,0-1.7-.3-3.4,0-5,.4-1.4-.9-2.8.2-4.1-.7-1,0-2-.2-3,0-.6,0-1.3,0-1.9,0-.3,0-.7,0-1,0-.5,0-1.1,0-1.6,0-.5,0-1,0-1.5-.3-1,0-1.6,1-1.6,1.6,0,3.2,0,4.7,0s2.6.8,2.5,2.6c0,3.1.2,6.1.2,9.2,0,1.1-.2,2.3-.2,3.4,0,1.4.2,2.8.2,4.2,0,1.4-.1,2.9-.2,4.3,0,.5.2,1.1.2,1.6,0,2,0,4.1,0,6.1,0,1.6.2,3.1.2,4.7,0,1.2-.2,2.4-.2,3.6s.2,2.4.2,3.6c0,.8-.2,1.5-.2,2.3,0,2,0,4.1,0,6.1,0,1-1.3,1.6-2.4,1.5-1.1-.1-2.3-.2-3.4,0-1.7.3-2.3.3-2.1-.8s.1-1,0-1.5c-.6-2.5-1.6-4.9-3-7-.7-1.1-2.2-2.7-3.2-3.5-2.3-1.8-4.7-3.5-6.2-6.2-.4-.7-.9-1.2-1.3-1.8-1.8-3.4-3.4-6.9-3.4-10.8,0-2-1.1-3.2-2.9-4.4s-3-2.5-4.2-4.1c-1.2-1.5-2.3-2.6-4-2.5-2.1.1-4.3.1-6.4.3-.5,0-.9.4-1.3.7-1.3,1.1-2.7,2.2-3.9,3.4-1.3,1.3-2.4,2.8-3.7,3.9-1.9,1.6-3.9,3.3-6.2,4.4-2.4,1.2-5.2,1.3-7.9.3-.9-.3-1.8-.4-2.8-.6Z"/>
    <path d="M73.9,153.1c.2.2.4.4.5.4.6.2,1.3.6,1.7.3.6-.3.5-1.1.4-1.9-.2-1.3.1-2.7.2-4,0-1.5-.3-2.5-1.8-3.2-2.2-1-4.2-2.4-6.3-3.4-.8-.4-1.9-.7-2.8-.7-1.8,0-3.6.4-5.4.1-2.3-.3-3.8,1.2-5.6,2.1-3,1.5-5.9,3-9.4,2.5-.3,0-.7,0-1,0-2.3,0-2.2,0-2.3-2.3,0-1.7-.2-3.4-.2-5.1,0-.2.6-.6.9-.6,2,0,4,0,6,0,.6,0,1.1-.3,1.7-.5.8-.3,1.6-.5,2.4-.9,1.8-.9,3.5-1.9,5.2-2.7.9-.4,1.9-.6,2.8-.6,2.2,0,4.4-.1,6.5.3,1.6.3,3,1.4,4.5,2.1,2.3,1.2,4.6,2.4,7.3,2.3,1.9-.1,3.9.1,5.7-.4,1.9-.5,3.6-1.7,5.3-2.8,2.1-1.3,3.9-3,5.9-4.3,3.1-2,6.1-4.3,9.8-5.2,1-.2,1.9-.7,2.9-.8.6,0,1.4.2,1.8.6,2.5,2.3,4.9,4.7,7.3,7,.8.7.9,1.5.7,2.7-.3,1.5,0,3,0,4.6,0,.3,0,.6-.1.9-.2-.1-.4-.3-.6-.4-2.1-2.1-4.3-4.3-6.4-6.4-.7-.7-1.4-1-2.5-.8-4,.6-7.6,1.9-10.8,4.3-1.3.9-2.6,1.9-3.7,3-1.6,1.6-3.5,2.4-5.4,3.5-1.3.7-2.7,1.5-3.8,2.6-.5.5-.6,1.6-.6,2.5,0,1.5,0,3,0,4.5,0,.5.4,1.1.7,1.4.2.2.8,0,1.1-.1,2.6-1.6,5.3-3.2,7.8-5,1.6-1.1,3-2.6,4.6-3.6,1.8-1.2,3.8-2.1,5.7-3,1.3-.6,2.8-.8,4.2-1,.5,0,1.2.2,1.6.5,2.5,2.2,4.9,4.5,7.3,6.8,1,.9,1.9,1.3,3.3,1,1.1-.2,2.3,0,3.4.1.4,0,.8,0,1.2,0,2.2.2,4.4,0,6.6.6,2.9.6,5.6,2.1,7.7,4.2,1.8,1.7,3.3,3.8,4,6.3.4,1.4.7,2.9,1,4.3.2,1-.4,1.3-1.2,1.3-2,0-4,0-6,0-1.1,0-1.1-1-1.2-1.7-.5-2.8-2.3-4.8-4.7-5.9-3.2-1.5-6.8-1.2-10.3-.9-1.1,0-2.4-.2-3.3-1.1-1.7-1.8-3.4-3.5-5.2-5.2-.6-.6-1.2-1.2-1.9-1.6-.6-.3-1.4-.5-2-.3-2.2.6-4.4,1.1-6.5,2-1.9.8-3.7,2-5.3,3.3-3.8,3.1-7.9,5.9-12.5,7.7-.3.1-.6.1-.9.1-1.3,0-2.7-.1-4,0-3,.3-5.5-.8-7.8-2.5-1.7-1.3-3.7-2.1-5.7-2.2-3.2-.2-6.5-.5-9.6,1.2-.9.5-1.8,1.1-2.7,1.6-2.2,1.2-4.4,2.1-7,2.1-1.8,0-3.8.2-5.5-.3-2.1-.7-4-2.2-6-3.3-.8-.4-1.5-1.2-2.3-1.2-1.1,0-2.4,0-3.4.6-2.1,1.1-3.8,2.5-4.6,4.8-.2.7-.3,1.4-.6,2-.3.8-.7,1.4-1.9,1-1.1-.3-2.3,0-3.4,0-.8,0-1.6,0-2.4,0-.1,0-.3-.5-.3-.7,0-.3.2-.5.2-.8-.2-3.9,1.7-7.1,4-9.9,2.4-2.8,5.6-4.3,9.3-5.1,2.4-.5,4.2.3,6,1.2,1.6.8,3,1.9,4.5,2.7.8.4,1.9.7,2.8.7,2.7.2,5.5.2,8.1-.8,2-.8,3.8-2,5.7-3,1.6-.8,3.4-1.1,5.2-1,1.7,0,3.4,0,5,.5,2.1.7,4.1,1.9,6.2,2.9Z"/>
    <path d="M106.1,452.9c-1.3.6-2.6,1.1-3.7,1.8-1.2.8-2.1,1.8-3.3,2.7-1.1.9-2.3,1.7-3.5,2.5-1.9,1.1-3.9,2.1-5.9,3.2-2.1,1.1-4.3,1.1-6.6.7-.3,0-.6.1-.9,0-.7,0-1.4,0-2-.2-1.3-.4-2.6-.9-3.9-1.5-1.7-.7-3.4-1.5-5-2.3-2.3-1-4.7-.9-7-.6-2.2.3-4.4,1.4-6.6,2.2-.5.2-.9.6-1.3,1-1.5,1.1-3.2,1.3-5,1.5-1.8.2-3.5.2-5.3.2-.7,0-1.4-.2-2-.5-1.3-.6-2.6-1.3-3.9-2-1.4-.7-2.7-1.6-4.1-2.3-.4-.2-1.1-.1-1.4.1-.2.3-.1,1,0,1.4.5,1.6,1.2,3.2,1.5,4.8.2,1.2-.2,2.5-.3,3.7,0,.5.2.9.2,1.4,0,1.8-.1,3.6-.3,5.4,0,.2-.5.6-.8.6-2,0-4,0-6,0-.4,0-1.1-.6-1.1-.9-.1-1.8,0-3.6,0-5.4,0-3.3-.4-6.4-3.1-8.7-1.6-1.4-3.2-2.8-5.5-2.6-.2,0-.6-.3-.6-.5,0-2.5.1-4.9.3-7.4,0-.2.5-.6.8-.6,5.1,0,10.2-.3,15.3.1,2,.2,4.1,1.6,5.9,2.7,1.9,1.2,3.7,2.4,6.1,2.2,2.2-.2,4.4.4,6.5-.5,2-.9,3.9-2,5.9-2.8,1.9-.7,3.9-1.3,5.9-1.6,4-.5,7.6,1.1,10.9,3,3.4,2,7.2,2.1,10.9,1.8,1.3,0,2.6-1,3.9-1.7,1.8-.9,3.7-1.7,5.4-2.9,2.1-1.4,3.9-3.2,6-4.6,2.4-1.7,4.8-3.2,7.8-3.8,1.2-.2,2.4-.6,3.6-.7.4,0,1,.2,1.3.5,2.5,2.3,4.9,4.7,7.4,7.1.6.6,1.3.9,2.1.9,1.7,0,3.3,0,5,0,5.2,0,10.3.2,15.5.2,1.1,0,2.3-.1,3.4,0,.5,0,1.1.8,1.2,1.3.2,1.8.3,3.6.3,5.4,0,1.5-1.3,1.5-2.2,1.8-2.1.6-4.3,1.2-5.4,3.4-.7,1.4-1.7,2.6-1.6,4.3.1,1.8,0,3.7,0,5.5,0,1.1,0,2.3-.3,3.4,0,.4-.7.9-1,.9-1.9,0-3.9,0-5.9,0-.4,0-1-.5-1-.8,0-1.2,0-2.5.1-3.7,0-.3,0-.5,0-.8,0-.5,0-1.1,0-1.6,0-1.2-.1-2.4-.2-3.6,0-.2-.1-.3,0-.5.6-1.6,1.1-3.3,1.8-4.9.4-1,.4-1.4-.8-1.6-1-.2-2-.2-3-.3-2.3,0-4.8.6-6.8-.2-2-.8-3.4-3.1-5-4.7-.8-.8-1.7-1.6-2.5-2.5-1.1-1.2-2.4-1.4-3.9-1-2.1.5-4.2,1.1-6.1,2.4Z"/>
    <path d="M137.8,126c-.8,1.8-1.9,3.5-2.2,5.4-.3,1.7.1,3.5.1,5.2,0,1,0,2-.3,2.9-.1.4-1,.8-1.5.9-1.8.1-3.5,0-5.3,0-.3,0-.7,0-.9-.2-.1,0,0-.5,0-.8,0-1.1,0-2.3,0-3.4,0-.6,0-1.1,0-1.7,0-.4,0-.8,0-1.2-.3-1.5.1-3,.4-4.5.2-1.5.7-2.8,1.3-4.1.3-.5,0-1.1-.8-1.1-3,0-6-.1-9-.3-.5,0-1.2-.3-1.6-.7-1.7-1.6-3.4-3.2-5.1-4.8-.5-.5-1-1.2-1.5-1.7-1.4-1.4-3.1-1-4.8-.7-2.9.6-5.4,2.1-7.9,3.4-1.2.6-2.2,1.7-3.3,2.5-1.5,1.1-2.9,2.2-4.4,3.2-1.9,1.2-3.9,2.5-6,3.1-1.8.6-3.8.2-5.8.4-1.9.2-3.6-.3-5.3-1-1.4-.6-2.7-1.3-4-2-3.3-1.6-6.8-1.9-10.4-1.1-2.7.6-5.1,1.8-7.5,3.2-1.3.8-3.2.7-4.8.8-1.5.2-2.9.3-4.4.2-.8,0-1.5-.5-2.3-.7,0,0-.1-.2-.2-.2-2.6-.3-4.2-2.5-6.4-3.4-.3-.1-.6-.3-1-.3-1.7-.2-1.8,0-1.3,1.6.5,1.6,1.1,3.1,1.5,4.7.2,1,0,2.1,0,3.1,0,.5,0,1,0,1.5,0,.3.1.6.1.8,0,1.4-.1,2.9-.3,4.3,0,.3-.5.8-.8.8-1.9,0-3.8,0-5.7,0-.4,0-.9-.4-1-.7-.2-.8,0-1.7-.1-2.6,0-1.2-.2-2.5-.2-3.7,0-.8.1-1.6,0-2.3-.9-3.9-3.4-6.3-7-7.7-.3-.1-.7,0-.9-.1-.3-.2-.7-.5-.8-.8-.1-1.9-.2-3.8-.3-5.8,0-1.2.5-1.6,1.7-1.4.9.1,1.8,0,2.7,0,3.1,0,6.2.1,9.2,0,2.7-.2,4.8,1.2,7.1,2.2,1.7.8,3.2,2.3,4.9,2.5,3.3.5,6.6.7,9.8-.8,1.8-.8,3.5-1.9,5.3-2.6,2.8-1.1,5.7-1.7,8.8-1,3,.7,5.6,2.3,8.4,3.4,1.6.6,3.3,1.1,5,1.2,3.3.3,6.4.1,9.2-2.1,1.1-.9,2.7-1.3,4-2.1,1.8-1.3,3.4-2.8,5.2-4.1,1.1-.8,2.4-1.5,3.5-2.3,2-1.4,4.3-1.8,6.6-2.5,1.4-.4,2.9-.3,4.3,1.1,2.1,2.3,4.5,4.4,6.9,6.4.5.4,1.3.6,2,.6,7.5,0,15,0,22.4,0,1.2,0,1.8.6,1.8,1.4.2,1.9.1,3.8,0,5.6,0,.4-.7.8-1.2,1-2.1.5-4.1,1-5.6,2.8Z"/>
    <path d="M84.9,385.9c1.6.9,3.6.7,4.9-.6,1.8-1.7,3.6-3.4,5.4-5.2.2-.1.3-.3.4-.4,1.1-1.4,1.1-1.4,2.4-.4,2.5,1.9,2,1.7,0,4.5-1.6,2.4-3.6,4.5-5.6,6.6-1.2,1.3-2.6,2.5-4,3.5-1.5,1-3.6.4-5-.7-2-1.6-4.2-3.1-6.4-4.4-1.3-.8-2.9-1.2-4.4-1.7-4.9-1.8-9.5-1-13.9,1.5-.8.4-1.4,1.1-2,1.7-1.5,1.4-2.9,2.8-4.4,4.1-.3.3-.8.4-1.2.4-2.5,0-5.1.1-7.6,0-3.7-.2-7-1.5-10.1-3.7-3-2.1-5.4-4.8-7.6-7.7-1.6-2.2-2.9-4.6-3.8-7.2-.8-2.2-1.9-4.2-2.5-6.4-.8-2.6-1.2-5.3-1.7-8-.2-1,.3-1.5,1.4-1.5,2,0,3.9,0,5.9,0,.8,0,1.1.4,1.2,1.2.3,1.9.7,3.8,1.2,5.7.6,2.2,1.2,4.5,2,6.6.5,1.4,1.4,2.6,2.2,3.8,1.2,1.8,2.4,3.5,3.7,5.2,1.5,1.9,3.8,2.6,5.9,3.6.9.4,2.1,0,3.1,0,2.2,0,4.5,0,6.7,0,.9,0,1.7-.3,2.3-1,2.2-2.4,4.5-4.8,7.5-6.2,1.3-.6,2.7-1.1,4.1-1.2,2.3-.2,4.7-.3,6.9.7,2.1.9,4.3,1.4,6.3,2.5,2.2,1.2,4.1,2.9,6.3,4.4M33,385.9c.3,0,.6-.2.9-.2,0-.2-.1-.3-.2-.5-.3.2-.6.4-.7.7M34,387.1c-.2,0-.4.1-.6.2,0,.1.1.2.2.3.2-.1.4-.2.4-.5Z"/>
    <path d="M101,552.7c1.7-1.5,3.2-3.1,4.9-4.3.9-.6,2.1-.8,3.2-1,1.6-.3,3.3-.5,4.9-.7.2,0,.5,0,.8.2,1,.6,2,1.2,2.9,2,2,1.7,3.8,3.5,5.7,5.1.5.5,1.4.5,2.2.7,1.6.5,3.2.9,4.8,1.4,1.6.4,2.4,1.9,2,3.6-.3,1.3-.3,2.7-.3,4.1,0,1.1-.4,1.4-1.4,1.1-1.4-.4-2.9-.8-4.3-1.2-1.9-.5-3.5-1.4-5-2.7-2-1.7-4-3.5-6-5.3-.7-.6-1.5-.3-2.3-.2-2,.2-4,.4-5.9.8-.9.2-1.8.6-2.5,1.2-3.4,3.2-6.7,6.6-10.2,9.8-2.3,2.1-5.1,3.1-8.2,3.4-2.7.3-5.2-.6-7.6-1.6-1-.4-1.9-1.1-2.7-1.9-1.8-1.9-4.1-2.4-6.6-2.6-3.2-.2-6.2.6-9.1,1.6-2,.6-3.7,1.9-5.6,2.6-1.1.5-2.4.7-3.7.8-1.4.1-2.8,0-4.2,0s-.6-.1-.7,0c-1.8,1.3-1.2-.4-1.2-1,0-2.1,0-4.2,0-6.4,0-.9.3-1.1,1.1-1.1,1.6,0,3.3-.1,4.9,0,2.7.3,4.9-1.1,7.2-2.1,1.9-.9,4-1.4,6-2.1.4-.1.9-.1,1.2-.4,1.6-1.1,3.3-.6,5-.3.8.1,1.7.3,2.5.5,2.2.5,3.8,2.1,5.6,3.3,1.9,1.3,4.1,1.8,6.4,2.1,3.9.4,7-1.3,10-3.5,1-.7,1.8-1.8,2.7-2.7,1.2-1.1,2.3-2.2,3.6-3.3Z"/>
    <path d="M90.2,228.1c-3.2,1.8-6.6,2.6-10,1.7-2.5-.6-4.9-1.7-6.9-3.5-1.5-1.4-3.3-1.6-5.1-1.8-3.4-.4-6.7.4-9.9,1.6-2.1.8-4.1,1.8-6.2,2.6-.9.3-1.9.4-2.9.5-1.7,0-3.3,0-5,0-.7,0-1-.2-.9-.9,0-2,0-4.1,0-6.1,0-.8.3-1,1-1,1.7,0,3.4,0,5.1,0,1.8,0,3.4-.5,5-1.2,2.8-1.2,5.7-2.4,8.6-3.3,4.1-1.3,8-.2,11.3,2.3,2.7,2,5.6,3.1,8.9,3.2,3.6.1,6.4-1.5,9-3.7,3.4-3,6.7-6.2,10-9.2.6-.5,1.5-.9,2.3-1,1.5-.3,3.1-.2,4.6-.6,2.3-.5,3.8.8,5.3,2.2,1.6,1.5,3.1,3,4.8,4.3,1,.7,2.4.9,3.6,1.3,1.2.4,2.5.6,3.7,1,1.6.5,2.2,1.4,2,2.9-.2,1.4-.3,2.8-.5,4.2,0,1.1-.5,1.5-1.6,1.1-1.9-.6-3.9-1.2-5.8-2-1.3-.6-2.6-1.5-3.7-2.4-1.7-1.3-3.2-2.9-4.9-4.1-.7-.5-1.8-.5-2.7-.4-1.8.1-3.6.4-5.4.7-.7.1-1.5.4-2,.8-2.8,2.5-5.5,5.1-8.2,7.6-1.2,1.1-2.3,2.2-3.6,3.2Z"/>
    <path d="M84.9,517.4c-2,0-4,.2-5.9-.7-2.5-1.2-5.2-2.1-7.7-3.3-2.6-1.2-5.2-1-7.6.5-2.3,1.4-4.6,2.7-7.4,2.6-1.7,0-3.5,0-5.2,0-1.4,0-2.9.2-4.3.2-1.1,0-2.3,0-3.4,0-1.4-.1-1.2-1.4-1.3-2.3,0-1.8,0-3.5.2-5.3,0-.2.3-.5.6-.6.4-.2.9-.3,1.4-.3,3.3,0,6.5-.1,9.8,0,3.5.2,6.6-.8,9.5-2.6,1.4-.9,3.1-1.6,4.9-1.7,1.8,0,3,1.1,4.4,1.6,3.2,1.1,6.3,2.6,9.5,3.6,1.7.5,3.6,0,5.2-.8,1.1-.5,2.2-1,3.2-1.7.9-.6,1.6-1.6,2.4-2.3,1.1-1,2.1-2,3.3-2.8,2.6-1.7,5.2-3.4,7.9-4.9,1.9-1,3.9-1.7,5.9-2.5.2,0,.6,0,.7,0,2.4,1.3,4.7,2.7,7,4.1.8.5,1.5,1.1,2.2,1.7.6.5.8,1,.6,2-.3,1,0,2.2,0,3.3,0,.5,0,1-.3,1.5-.2.6-.8,1.1-1.4.6-1.5-1-3-2-4.4-3.2-1.6-1.3-3.2-1.9-5.4-1.2-3.5,1.1-6.6,2.9-9.6,4.7-2.8,1.6-5.5,3.4-7.7,5.9-1.1,1.3-2.7,2.2-4.2,3-.8.5-1.9.5-2.9.7Z"/>
    <path d="M87.6,177.2c-1.2.7-2.3,1.6-3.5,2-2.5.7-5.1.7-7.6-.3-3-1.2-6-2.5-9.1-3.6-1.9-.7-3.9-.4-5.8.5-2,1-3.9,1.9-5.9,2.9-.3.1-.6,0-1,0-4.3,0-8.6,0-12.8,0-1.6,0-1.7-.1-1.8-1.7-.1-1.2-.3-2.4-.5-3.6-.3-1.9.4-2.7,2.4-2.7,2.6,0,5.2-.2,7.7-.2,1.1,0,2.3.3,3.4.2,1.8,0,3.6-.3,5.3-1.2,2.2-1.3,4.4-3,7.2-2.7,1.4.2,2.8,1,4.2,1.5,3.2,1.1,6.3,2.4,9.6,3.4,1.7.5,3.5-.2,5.2-.8,2.7-.9,4.4-3.1,6.4-4.9,2.1-1.9,4.3-3.6,7-4.7,1.4-.6,2.6-1.6,3.9-2.3,1.3-.7,2.7-1.2,4-1.7.3-.1.8,0,1.2,0,3.3,1.3,6.2,3.5,9,5.6.3.2.5.8.5,1.2,0,1.6-.1,3.2-.2,4.8,0,1-.7,1.4-1.6.8-1.5-.9-3-2-4.5-3-1.6-1.1-3-1.6-5.1-.9-4,1.4-7.3,3.7-10.9,5.7-2.6,1.5-4.7,3.6-6.8,5.7Z"/>
    <path d="M55.3,550.5c-1.8,1.1-3.7,1.2-5.7,1-1.2-.1-2.5.1-3.8.2-.8,0-1.3-.1-1.2-1,0-2.3.1-4.6.3-6.9,0-1,1.1-.8,1.7-.9,1.8,0,3.6-.1,5.4,0,1.6.1,2.7-.6,4-1.3,1.8-.8,3.5-1.8,5.3-2.5,1.8-.6,3.6-.9,5.5-1.3,3.3-.6,6.3.3,8.9,2.3,1.9,1.5,3.9,2.9,6.3,3.4,3.3.6,6.4.5,9.6-1,1.9-.9,3.2-2.1,4.6-3.5,3.1-3,6.1-5.9,9.2-8.9.4-.4,1-.6,1.6-.7,2.2-.3,4.4-.6,6.7-.7.3,0,1,.4,1,.6,0,2.3-.1,4.7-.2,7,0,.2-.4.5-.6.5-2.3.4-4.6.8-6.8,1.3-.6.1-1.2.2-1.6.6-2.2,2-4.3,4-6.3,6.1-2.2,2.2-4.5,4.2-7.1,5.9-1.5,1-3.2,1.3-4.8,1.6-2.2.4-4.5-.2-6.7-.7-.6-.1-1.1-.6-1.6-.9-2.1-1.3-4.1-2.9-6.4-3.7-2.7-1-5.6-1-8.4,0-1.7.6-3.2,1.4-4.9,2.1-1.2.5-2.4.9-3.6,1.4Z"/>
    <path d="M95.2,636.1c1.3-1.7,2.7-3.3,4-4.8.2-.2.4-.3.7-.4,1.1-.4,2.2-.7,3.3-1,1-.3,2.1-.3,2.9-.8,2.3-1.4,4.9-2.1,6.7-4.2,0-.1.3-.1.4-.2,0,.2.2.4.2.5,0,2.1-.1,4.2-.2,6.2,0,1.2-.4,2.1-1.6,2.7-1.9,1-3.7,2.4-5.6,3.3-1.6.7-3.4.9-5.1,1.5-1.9.6-3.1,2.3-4.4,3.7-2.2,2.4-4.1,5.1-7.2,6.5-1.9.8-3.9,1.3-6,.7-.9-.3-2-.3-2.8-.8-1.4-.9-2.6-2-3.8-3-1.2-1-2.4-2.3-3.7-3-2.3-1.3-4.7-2.4-7.1-3.2-1.9-.7-4-1.3-5.9-1.2-2.2.1-4.4.7-6.5,1.7-1.9.9-3.5,2.2-5,3.5-.7.5-1.1,1.4-1.6,2.1-.1.2-.4.2-.6.4,0-.2-.2-.4-.1-.5,0-.9.1-1.8.2-2.6.1-1.1.3-2.1.5-3.2,0-.2,0-.4,0-.5-.7-1.3.4-1.9,1.1-2.6,1.8-1.6,3.5-3.2,5.4-4.6,1-.7,2.3-.9,3.4-1.3,2.7-1,5.5-1.1,8.1-.1,3.7,1.4,7.4,3,10.5,5.8,1.9,1.7,4.2,3,6.4,4.4.5.3,1.2.4,1.8.4.4,0,.8,0,1.2,0,3.8.5,6.7-1.1,9.1-3.8.4-.5.9-.9,1.3-1.4Z"/>
    <path d="M58.2,208.8c-1,.4-2,.8-2.9,1.2-1.2.5-2.3,1.3-3.5,1.5-1.9.3-3.9.2-5.9.3-.7,0-1.5.3-2.2.4-.2,0-.4,0-.5-.2-.1-.1-.2-.4-.2-.5,0-2-.2-4.1-.2-6.1,0-1.3.3-1.6,1.6-1.6,1.5,0,2.9,0,4.4,0,1.5,0,2.8-.3,4.2-1,2.6-1.1,5.1-2.3,7.8-3.1,1.5-.5,3-.8,4.6-.9,3.5-.3,6.4,1.2,9.1,3.2,2.5,1.9,5.2,2.7,8.2,2.7,3.5,0,6.7-1.1,9.3-3.7,1.9-2,4-3.8,5.9-5.7,1.2-1.2,2.3-2.4,3.5-3.5.6-.5,1.5-.8,2.3-1,1.9-.3,3.9-.5,5.8-.7.8-.1,1.2.3,1.2,1,0,2,0,3.9,0,5.9,0,.4-.5,1-.9,1-2.1.4-4.2.7-6.3,1.1-.7.1-1.4.3-1.9.8-1.9,1.8-3.7,3.8-5.7,5.6-2.5,2.3-4.8,4.7-7.9,6.2-2.4,1.1-5,1.5-7.6.9-.3,0-.7-.1-1-.2-1-.4-2.1-.7-3.1-1.2-2.1-1.1-4.1-2.6-6.3-3.5-2.9-1.2-5.9-.8-8.8,0-1,.3-2,.7-3.1,1.1Z"/>
    <path d="M77.9,295c1.6,1.4,3.4,1.9,5.5,2,3.3.2,5.8-1.1,8.1-3.1.7-.6,1.1-1.4,1.8-2,2-1.9,3.4-4.5,6.2-5.4.7-.2,1.3-.4,2-.5,2.8-.5,5-2.2,7.4-3.4.3-.1.8-.3.9-.2.3.5.8,1.1.8,1.7,0,1.6-.1,3.1-.2,4.7,0,.3-.1.6-.3.7-2,1.3-4,2.7-6.2,3.7-1.8.8-3.8,1.1-5.7,1.7-.5.1-.9.5-1.2.9-2,2.1-3.9,4.3-5.9,6.4-1,1-2.3,2-3.7,2.4-3.3,1-6.5.7-9.4-1.6-2.2-1.8-4.1-4.1-6.9-5.2-2.6-1-5.1-2.4-7.8-3-3.3-.7-6.7-.4-9.9,1-2,.9-3.8,2-5.4,3.5-.4.4-.8.9-1.2,1.4,0,0-.3,0-.3-.1,0-.9.2-1.8.2-2.8,0-.5-.3-1.1-.3-1.6-.1-1-.6-2.2.4-2.9,2.8-2.1,5.1-5,8.8-5.8,1.3-.3,2.7-.5,4.1-.7,4.4-.6,7.9,1.7,11.4,3.6,2.5,1.3,4.7,3.2,7,4.9Z"/>
    <path d="M74.4,663.4c-2-2.1-4.6-2.9-7-4-1.6-.7-3.4-1-5.1-1.3-1.6-.2-1.7-.3-1.6-1.9,0-1.1-.2-2.2-.2-3.3,0-.6,0-1.3,0-1.9.2-1.2.6-1.3,1.9-1.3,2.8.2,5.1,1.6,7.6,2.4,2.7.9,4.5,2.9,6.4,4.7,2.9,2.9,6.2,4.1,10.2,3.8,2.4-.2,4.5-1.2,6.3-2.8,1.2-1.1,2.2-2.5,3.3-3.8,1.2-1.4,2.4-2.7,3.7-4.1.2-.2.5-.5.8-.5,2.1.3,3.8-1.1,5.7-1.6,1.6-.4,2.8-1.4,4.2-2.2.7-.4,1.4-.7,2.1-1,.2,0,.5,0,.8.1,0,.2-.2.4-.2.6,0,.5,0,1.1,0,1.6,0,2.3.3,4.8-2.2,6.2-.8.4-1.3,1.4-2.1,1.8-2.1.9-4.3,1.5-6.4,2.3-1.4.5-2.9,1-4.1,1.8-1.1.8-1.8,2-2.6,3.1-1.9,2.4-3.8,4.9-6.9,6-2.1.8-4.2.7-6.3.2-1.8-.5-3.3-1.3-4.7-2.6-1-1-2.2-1.8-3.4-2.7Z"/>
    <path d="M66,305.6c1.1.5,2.1,1.2,3.1,1.4,2,.4,3.3,1.6,4.7,2.8,1.6,1.4,3.2,2.8,5,4,2.5,1.6,5.3,1.6,8.1,1,3.4-.8,5.6-3.2,7.6-5.8,1.2-1.6,2.9-3.1,4.7-4.1,2.7-1.4,5.7-2.1,8.5-3.3.9-.4,1.6-1.1,2.4-1.7.2-.1.5-.2.6-.1.2.1.3.4.3.6,0,1.8,0,3.5-.3,5.2,0,.7-.4,1.4-.8,1.9-2.5,2.7-5.8,3.6-9.2,4.6-1.7.5-3.4.9-4.6,2.8-1.3,2.1-3.4,3.8-5.2,5.5-.4.4-1.3.6-2,.6-1.8,0-3.6-.2-5.4-.2-1.1,0-2.1-.1-3.2,0-1.7.2-2.9-.4-4.2-1.4-2.7-2.3-5.4-4.5-8.9-5.6-1.8-.6-3.8-.9-5.6-1.6-.5-.2-1.2-.8-1.3-1.3-.2-1.6-.3-3.2-.3-4.8,0-.4.6-1.3.9-1.2,1.7.1,3.3.4,5.1.7Z"/>
    <path d="M84.6,337.2c-1.7,0-3.3,0-4.9-.2-.4,0-.9-.3-1.3-.5-3.5-2.1-6.7-4.7-8.7-8.4-.8-1.5-1.5-3.1-2.3-4.7-.2-.5-.4-1.1-.7-1.6.6,0,1.2.2,1.8.2,1.8,0,3.6,0,5.4,0,.9,0,1.4.3,1.8,1.1.7,1.2,1.4,2.4,2.2,3.6,1.4,1.9,3.5,2.6,5.7,2.7.8,0,1.9-.6,2.4-1.3,1.4-1.7,2.7-3.6,4-5.4.3-.4.9-.7,1.4-.7,1.8,0,3.6,0,5.4,0,1.2,0,1.5.5,1,1.6-1.9,4.7-5,8.5-8.8,11.8-1.2,1-2.7,1.7-4.4,1.8Z"/>
    <path d="M153.2,77.2c.2.2.2.4.3.6h-.6c0-.2.1-.4.3-.6Z"/>
    <path d="M.6,62.5c-.1,0-.3,0-.3-.2-.1-.2-.2-.4-.3-.7.1,0,.3,0,.3,0,.1.3.3.6.3.9Z"/>
    <path d="M4.2,60.8c0-.2.2-.5.4-.7,0,0,.2.1.4.2-.2.2-.4.4-.7.6Z"/>
    <path d="M15,282.2c-.2,0-.4-.2-.6-.3,0,0,.1-.1.2-.2.1.2.3.3.3.6Z"/>
    <path d="M130.4,4.3c0,.2-.2.4-.4.6,0,0-.1-.1-.2-.2.2-.1.3-.3.6-.5Z"/>
  </g>
</svg>