<?xml version="1.0" encoding="UTF-8"?>
<svg id="Layer_1" xmlns="http://www.w3.org/2000/svg" version="1.1" viewBox="0 0 576.6 353.2">
  <!-- Generator: Adobe Illustrator 29.3.1, SVG Export Plug-In . SVG Version: 2.1.0 Build 151)  -->
  <g id="Shape_74">
    <path d="M87.4,162.7c.3.9,1,2.1.6,2.8-.6,1.1-1.4,1.9.2,2.7-.6.2-1.2.5-1.8.5-1.9,0-3.8-.3-5.7-.1-2,.2-4,1-6.1,1.3-1.2.2-2.5.3-2-1.7-.4,0-1-.3-1.3,0-.9.7-1.7,2-2.1-.3,0-.2-.6-.2-1-.3,0,0-.3.3-.2.4,1.7,2-.7,1-.8,1-1.5-.2-3.3.8-4.6-.9-.5.4-1.8-.8-1.5.8-.5-.2-1.3-.1-1.6-.5-1.4-2-3-1.2-4.6-.5-.3.1-.7.1-1,.2,0-.3.2-.6.3-.8,0-.3.4-.9.3-.9-3-2.2-1.8-6.3-4.1-8.7-.5-.5-.7-1.3-1.2-1.9-1-1.3-2.1-2.4-3.2-3.7-.8-1-1.5-2.5-3.2-1.1-.2.1-.6,0-.9,0,.2-.2.5-.4.7-.5,1.3-.3,1.2-1.3.5-1.9-.7-.7-1.7-1.1-2.5-1.8-.4-.3-2-.6-.2-1.3.8-.3,1-1,0-1.5-.8-.4-1.6-1.1-2.1-1.8-2.7-4.1-5.3-8.2-8.1-12.3-.4-.6-1.7-.7-2.5-1,0,.7-.1,1.4-.1,2.2.1,3.4.3,6.8.5,10.2.3,4.9.8,9.8.9,14.6,0,2.8-.9,5.5-1.3,8.3,0,.5,0,1.1.2,1.6,0,.3.4.5.6.8-.4.2-.9.7-1.1.5-1.3-.7-2.3-.5-3.3.5-.3.3-1.1,0-1.6,0-3.3-.1-6.7-.3-10-.5-.6,0-1.6-.3-1.8-.7-.5-1.2-.7-1-1.1,0,0,0-.2.1-.3.2,1-1.9-1.9-1.9-1.8-3.9.2-2.8-1-5.6-1.6-8.5-.1-.6-.6-1.2-.5-1.6,1.6-5.2.2-10.6.2-15.8.1-7.9-.5-15.9-.8-23.8-.1-3.1.1-6.3-.6-9.3-.7-2.9-.1-5.7-.3-8.5,0-1.1,0-2-1.3-2.3-.2,0-.4-.7-.3-.8,1.2-1.4,1.4-3.6.9-5.8-.3-1.7-.2-3.5-.3-5.2-.2-4.3-.5-8.5-.8-12.8,0-.4-.2-.7-.2-1.1-.2-6.1-.3-12.2-.5-18.3-.1-5.2-.2-10.4-.5-15.5-.1-2.3-.6-4.6-.9-7-.5-3.3,1.2-5.1,4.6-5,3.7,0,7.3,0,11,0,1.3,0,2.5.3,3.8.6,2.9.7,3.4,3.2,3.8,5.4.5,2.6.4,5.3.5,7.9.2,5.3.3,10.7.5,16,0,2.2,0,4.3,0,6.5.3,5.9.8,11.7,1.1,17.5.1,1.9.2,3.8.3,5.7.1,2.9.4,5.7.5,8.6,0,1.6,1.1,1.4,2.1,1.4,1,0,2.2.3,2.2-1.3,0-1.5,0-2.8,1.7-3.6.2,0-.8-2-.6-2.9.2-.8,1.8,1.5,2.4-.5.3-.9,1.5-1.4,2.1-2.2.8-1.1,1.4-2.2,2-3.4.1-.3,0-1.1-.3-1.2-2.6-.9,0-1.4.2-1.9.5-1,1.4-1.8,2-2.7.6-.8.3-2.2,1.9-2.3.2,0,.4-.7.5-1.2,0-.4,0-1.1,0-1.1,3.4-.2,1.8-4.5,4.3-5.3,1.3-.5,2.6-1.5,3.9-1.5,3.4,0,6.7.3,10.1.4,3.7,0,7.5.2,11.2,0,2.5-.2,3.1,1.6,3.5,3.1.4,1.5.6,3.1-1.2,4.7-2.7,2.3-5.7,4.9-5.3,9.3,0,.6-.8,1.3-1.3,1.9-.3.4-1,.9-1,1,1.4,2.3-1.3,2.4-2,3.5-.9,1.6-2.4,2.9-3.2,4.6-1.1,2.4-2.6,4.4-4.5,6.1-.8.8-1.1,2.1-1.7,3.1-1.9,3-3.9,6-5.7,9-1.2,1.9-2.2,4-3.2,6-.1.2,0,.5.1.8,2.4-.9,1.6,1.5,2.2,2.3.9,1.1,1.5,2.5,2.3,3.8.6.9,1.1,2.1,2,2.7,2.6,1.7,3.4,4.4,4.8,6.8.1.2.1.5.3.6,2.8,1.8,4.4,4.6,6.3,7.1,2,2.7,3.2,6,5.2,8.7,1.7,2.5,3.9,4.5,5.8,6.9,2,2.5,3.9,5.2,5.9,7.7.4.5,1,.9,1.6,1.3.1-.5.4-1.1.4-1.6,0-3.4-.1-6.7-.8-10-.3-1.4.3-2.9.4-4.4,0-3.8,0-7.6,0-11.5,0-.4-.3-.8-.4-1.2-.4-1-1.5-1.9,0-3.1.3-.2,0-1.2,0-1.8-.4.2-.9.4-1.3.6-.1,0-.3,0-.5,0,0-.5,0-1.4.2-1.5,3.2-1.9,1.3-4.9,1.6-7.4.2-2.3-.2-4.6-.4-6.9-.2-1.8-.6-3.6-.8-5.4-.1-1.9,0-3.7,0-5.6,0-2.1,1.3-4.6-1.8-5.7-.1,0-.2-.8-.1-.9,2.7-2,2.3-4.6,1.8-7.4-.4-2.1,0-4.3,0-6.5,0-2.3-.2-4.7-.5-7-.4-3,1-6-.3-9.2-.9-2.1,2.9-4.7,5.2-4.3,2.3.3,4.6.2,6.9.2,3.1,0,6.1-.2,9.2-.3.1,0,.2,0,.3,0-1.2,2.7,2.5,1.7,2.6,3.5,0,1.7.2,3.4.3,5.1.2,6.2.2,12.3.5,18.5.1,3.4.8,6.7.9,10.1,0,2.6-.3,5.1-.4,7.7,0,.3,0,.6,0,.9,1.1,7.8.9,15.6,1,23.4,0,3.5,1.4,7.3.6,10.5-1,3.8.5,7.1,0,10.8-.5,4.3,0,8.8.4,13.1.2,2.5-1,4.4-2.5,5.8-.9.8-2.8.7-4.3.8-1.6.1-3.2,0-4.7,0-.3,0-.5-.2-.8-.3.2,0,.4-.2.6-.2,1.5-.2,3-.3,4.5-.5.6,0,1.2-.2,1.8-.3-.6-.3-1.2-.7-1.8-.8-2-.3-4-1-5.7.7,0,0-.6-.4-.9-.6-.4-.3-.9-.8-1.3-.8-2,0-.7-1.5-1-2.3.5-.3.9-.5,1.3-.8l-1.4-.8c.3-1.2,1.1-2.8-1.4-1.5-.6.3-1.4,0-2.3,0-.1-.3-.1-.4-.1-.6.2-1.2.5-2.3.8-3.5-.2,0-.6,0-.6,0-.6,1.2-1.3,2.5-1.5,3.8-.3,1.9.9.3,1.4.4M97.3,77.5c.8-1.1,1.7-2.3,2.3-3.5.2-.3-.4-1-.7-1.5-.3.3-.6.7-1,1-2.1,1.9-1.6,4.5-1.6,6.9,0,.4.3.8.4,1.1.4-.2.9-.2,1.2-.5,1.8-1.5,0-2.2-.7-3.6M100.4,130.9c-2.1-1.2-1.6.9-2.1,1.7-.2.3.3,1.3.8,1.6.4.3,1.2,0,1.8,0-.1-.5-.2-1.1-.3-1.6,0-.5,0-.9-.2-1.6M84.8,166.5c.7-1.3,0-2.1-1-2.8,0,0-.6.5-.6.6.3.9-.4,2.4,1.6,2.2M96.1,122.4c-.6.3-1.1.6-1.7.8.4.7.9,1.3,1.3,2,.2-.6.4-1.3.6-1.9,0-.2,0-.5-.2-.9M96.9,152.5c-1,1-.3,1.5.6,1.6.4,0,1.2-.4,1.2-.7.2-1.4-.7-1.6-1.8-.9M101.4,71.1c1.4-.9.5-1.6-.3-2.1-.2-.2-.8.2-1.3.3.4.6.7,1.2,1.5,1.8M5.3,39.6c.1.3.2.6.3.8.4.4,1,.8,1.5,1.2-.1-.7-.2-1.4-.5-2.1,0-.2-.7-.1-1.3,0M19.3,167l2.1-.4c-.3-.4-.5-.7-.8-1.1-.5.4-1.1.8-1.4,1.4M103,139.2c.5.6.9,1.1,1.4,1.7l.5-.5c-.4-.3-.9-.7-1.3-1-.1,0-.2-.2-.6,0M7.9,34.6c0,.5,0,1.1.2,1.6,0,0,.3,0,.5.1,0-.6-.1-1.1-.6-1.7M103,134.9c-.5,0-.9,0-1.4,0,0,0,0,.4,0,.4.5,0,.9,0,1.4-.5M18.6,110.7c-.4.1-.8.2-1.3.3,0,0,0,.2,0,.3.4,0,.8-.1,1.2-.6M100.9,77.3c-.4,0-.7,0-1.1.1.2.3.4.5.6.8.3-.2.5-.4.5-.9Z"/>
    <path d="M275.3,165.4c-2.8-2.3-5.5-4.4-8.1-6.5-.7-.6-1.4-1.4-1.9-2.1-1-1.3-1.1-3.4-3.3-3.8-.3,0-.5-1-.5-1.6,0-1.3.2-2.7-1.8-2.4-.2,0-.6-.6-.5-.7.9-2.3.3-4.1-1.9-5.4-.3-.2-.3-1-.5-1.4-.3-.7-.7-1.7-1.2-1.8-1.2-.2-1.4-.3-.4-1.1.6-.5.6-.5-.1-1.1-.7-.5-1.2-2-1-2.8,1-3.2-.3-5.9-1.2-8.8-1-3.4-1.3-6.9-1.7-10.4,0-.8.6-1.6.9-2.5.1-.4,0-.9-.2-1.3-.5.1-1,.3-1.5.4-.4.1-.8.2-1.1.3.2-.4.3-1,.5-1.1,2.3-.5,2.3-2.2,2.3-4,0-.7,1.1-1.9.8-2.2-1.5-1.9,1.8-2,1.1-3.8-.6-1.5-.2-3.3,0-5,0-.9.8-1.7,1-2.6.4-1.4.2-3.1.9-4.1,1.8-2.2,2.2-5.1,4-7.4,1.5-1.9,4.1-4.1,3-7.5-.3-.9-.5-2.3,1.4-2,.2,0,.6-.3.7-.5.7-1.6,1.1-.9,1.7,0,.2.4.8.6,1.1.9,0-.4.4-.9.2-1.3-.6-1.5.7-2.3,1.1-3.5.7-2.4,3.1-2.3,4.4-3.7.2-.3.6-.9.6-.9-.7-.6-1.9-1.2.3-1,.2,0,.5-.2.5-.3,0-3.6,2.9-1.1,4.3-1.8,2.5-1.4,5.6-1.9,8.5-2.3,2.6-.4,5.3-.1,8,0,.7,0,1.3.2,2,.3.8.1,1.9,0,2.5.5,3.1,2.8,7.2,2.1,10.7,3.3.4.2.6.8,1,1.2.6.7,1.3,1.4,2,2,.3-.5.6-1.1.9-1.6.1-.3.1-.7.3-.8,3-1.2,5.4-3.6,9.3-3,4.2.7,8.7.4,13.1.1,3.6-.2,5.7,1.3,5.7,5.8,0,5.1,0,10.3,0,15.4,0,4.5.4,9.1.4,13.6,0,2.4-.4,4.8-.4,7.2,0,4.9.3,9.8.4,14.7,0,1.8-.2,3.7,0,5.5.2,1.8-.7,2.6-1.8,3.6,1.7.6,1.8,1.9,1.8,3.5,0,5.3,0,10.6,0,16v12.4c0,1.8,0,3.7,0,5.5,0,.5-.7,1-.9,1.6-.1.4,0,1.1.1,1.3,1.2.8,1.6,1.3-.3,1.6-1,.2-2.3.4-1.4,2.1,0,0-.4.7-.7.7-1.7,0-3.5,0-5.1-.5-2.7-.8-5.6-1.3-8.1-.3-1.7.7-2.7.7-4-.2-.2-.1-.6-.1-.7,0-1.2,1.6-2.4,0-3.5.1-1.7,0-1.5-.5-1.3-1.6.2-1.1-1.7-3.2-3.1-3.3-1.6,0-2.5,1-2.4,2.5.1,1.6-.4,2.2-2.1,2.2-1.1,0-2.1,1.1-3.2,1.3-2.7.5-5.4.6-8.1,1-.8.1-1.5.9-2.3,1.1-1,.2-2.1.3-3.1.2-.8-.1-1.7-1-2.4-.8-2.9.7-5.5-1-8.3-1-2.4,0-4.4-.5-5.9-2.5-.6-.8-1.9-1.4-.7-2.7,0,0-.4-.7-.8-1.2M317.4,113.6c0-4.8.1-5.4-1.9-8.3,0-.1,0-.3,0-.5-.2-1-.2-2.1-.5-3.1-.2-.6-.9-1.1-1.3-1.7-.5-.6-1.3-1.1-1.4-1.8-.3-1.1.3-2.5-1.8-2.6-.6,0-.9-1.7-1.6-2.2-.8-.6-1.9-1-3-1.4-1.7-.6-3.4-1.4-5.1-1.5-3.6-.1-7.2.4-10.8.3-2.8,0-5,.8-6.6,3-1.3,1.7-2.2,3.6-3.2,5.5-1,2-2.5,4.1-2.6,6.2-.3,6.5,0,13,.2,19.5,0,1,0,2.6.7,2.9,1.9,1.2,1.8,2.9,1.9,4.7,0,.7.4,2.1.5,2,1.7-.2,1.7,1.5,2.6,2.2,1.9,1.6,3.7,3.1,5.6,4.6,1.2.9,2.4,2.2,3.7,2.3,2.5.3,5,0,7.5-.2.9,0,2.6-.2,2.6-.3,0-2.6,2.2-1.6,3.3-2.2.3-.2.7-.3.9-.6.9-.9,1.7-1.8,2.6-2.8.3-.4.9-.9.8-1.2-1-2.8,1.7-3.2,2.9-4.5,1-1,2.3-1.6,1.5-3.4-.4-.8.6-1.8,1.3-1.9.3,0,.6-.4.9-.6-.2-.3-.5-.5-.7-.8-.1-.2-.4-.4-.3-.5,2-3.6,1.1-7.5,1.1-11.6M318.2,76.3c.2.2.4.5.7.7.5.4,1,.8,1.6,1.2,0-.7,0-1.3,0-2,0-.5,0-.9-.2-1.3-.2-.7-.6-1.3-.9-1.9-.7.4-1.5.7-2,1.3-.2.3.3,1.1.7,2M284.9,68.3c.1-1,.5-2.1.2-3-.2-.6-1.5-.7-2.3-1.1.2.7.2,1.4.5,2,.3.7.8,1.4,1.6,2.1M332.4,81.1c-.4.4-1.2,1.1-1.1,1.2.4.6,1,1.1,1.6,1.6.2-.5.6-1,.7-1.5,0-.4-.4-.9-1.1-1.3M276.2,83.7c0-.4.1-.8,0-1.2-.2-.5-.6-1-.8-1.4-.3.2-.8.4-.9.6-.1.6-.1,1.3.1,1.7.2.3.9.4,1.6.3M314.8,146.1c0,.4-.3,1.2-.2,1.3.6.3,1.2.5,1.9.6.1,0,.3-.4.5-.6-.6-.4-1.1-.9-2.1-1.3M340.2,142.5c1.4-1.2-.4-1.1-.6-1.6-.3.2-.5.4-.8.6.5.5.9.9,1.4.9M254.1,119c.3.6.7,1.3,1,1.9,0,0,.4-.1.6-.2-.2-.6-.5-1.2-.8-1.7,0-.1-.4-.1-.9,0M253.6,108.6c-.2.6-.3,1.3-.4,1.9,0,.1.6.3.9.4,0-.7-.2-1.4-.5-2.3M296.3,146.1c.7-.1,1.4-.2,2.1-.3-.2-.2-.4-.5-.7-.6-1.1-.2-1.7,0-1.4.9M269.1,76.6c.3-.3.6-.6.9-.9-.3-.3-.5-.5-.8-.8-.1.5-.3.9-.2,1.7M270.5,78.5c.3,0,.6-.2.9-.2-.1-.3-.2-.6-.4-.9-.2.2-.4.5-.6,1.2M342.8,118.6c0-.3,0-.7-.3-.9-.1-.1-.5,0-.8.1.2.3.4.5,1.1.8Z"/>
    <path d="M309.4,270.4c1.7-.2,3.5,0,5-.6,1.1-.4,1.9-1.8,2.4-2.9.1-.3-1.4-1.3-2.1-1.9-.8-.7-1.5-1.3-2.3-2,1.1,0,2.2-.1,3.3-.2,3.6,0,7.1-.2,10.7-.1,2.7,0,5.3-.6,7.8-1.3.6-.2,1.9-.2.3.8.4.5.8,1.5,1.2,1.5.9,0,1.8-.4,2.5-.9,2.4-1.6,1.4-4.1,1.4-6.2,0-8.5,0-17.1,0-25.6,0-1.6.3-2.5,2.2-2.4,1,0,2.2-.4,3.2-.8,1.4-.6,2.6-2.3,4,0,0,.1.7.1.9,0,2.3-1.5,4.8-.2,7.3-.4,3-.2,3.2,0,2.3,3-.3,1-1.1,1.7.7,1.7,0,.8,0,1.7-.2,2.5-.2,1.2-.9,2.3-.9,3.4-.1,5,0,10.1,0,15.1s.3,3.8.4,5.8,0,.8-.1,1.1c-.7,2.5-.6,2.7,1.8,2.5,1.6-.1,4,2.8,3.5,4.5-1.3,4.4-.9,8.8-.8,13.2,0,2.2-1,2.9-2.7,3-1.4.1-1.6.6-1.7,1.9-.2,3-.6,6.1-.9,9.1,0,.3.3.7.3,1,0,3.1,0,6.2.2,9.3.1,3.7.3,7.3.5,10.9,0,.5.4,1,.7,1.4.1.2.5.2.7.3-.2,0-.5,0-.6.2-.4.6-1.2,1.2-1.2,1.8,0,3,.4,6.1.4,9.1,0,4.4-.1,8.9-.5,13.3-.2,2.2,1.5,4.7-.8,6.6-.3.2,0,1.1,0,1.6,0,.2-.2.4-.3.6-1.3-1.1-2,.1-2.4.8-1.2,2-3.2,2.5-5.1,1.2-.2-.1-.4-.2-.6-.4.2,0,.5-.2.7-.1,1.2.3,2.6,1.4,3.5-.5-1.2-.3-2.4-.8-3.5-.8-1,0-1.9.6-2.9.9-.3.1-.7.2-1,.3-.8-2.4-2.8-.9-4.1-1.4-.7-.3-1.4-.9-1.7-1.5-1.6-3.6-1-7.5-1-11.3,0-7,0-14.1,0-21.1v-14.9c0-3.8,0-7.6,0-11.5,0-2.3-.5-4.8,1.4-6.8.4-.4.3-1.3.5-1.9-.4.3-1,.6-1.3,1-1.3,1.5-3.2,1.6-4.7,1.1-1.1-.4-1.7-2.1-2.5-3.2-.4-.5-.8-1.2-1.4-1.5-.3-.2-1-.3-1.4-.1-.2.1-.1.8-.3,1.2-.4,1.4-.9,2.8-1.3,4.2-.5,1.7-1,3.5-1.3,5.3-.1.8,0,1.6-1.2,1.4-.2,0-.7.6-.7,1,0,2.8-.3,5.3-2.5,7.6-.7.7-.2,2.7-.3,4,0,.4-.1,1-.4,1.1-1.6.7-2.1,2.3-1.3,3.9.1.3.4.5.6.7-1.8,0-2.1,1.4-2.6,2.6-.4.8-1,1.6-1.1,2.4-.2,1.6.5,3.5-1.7,4.3-.2,0-.2.7-.2,1.1,0,1.8.1,3.5-2.2,4.3-.5.2-.7,1.9-.5,2.9,0,.4,1.2,1,1.8,1,2.1,0,4.1-.4,6.2-.4,3.6,0,7.2,0,10.7.6,3.5.6,3.3.8,2.6,4.8-.4,2.1.2,4.4.3,6.5,0,2.7-.1,5.3-.2,8,0,.9.2,2.1-.2,2.5-.6.7-1.9,1.2-2.8,1.1-4.2-.4-8.3-1.4-12,1.8-1.7,1.4-6.2-.7-6.9-3-.4-1.3-1-1.9-2.2-1.4-.7.3-2,.7-.5,1.8.3.2.4.5.7.8-.4,0-.7.1-1.1.1-3.2,0-6.4.1-9.6,0-2,0-3.9-.5-5.8-.7-.9,0-1.9-.3-2.7,0-3.2,1.4-5.2-1.9-4.8-4.4.2-1.3.4-2.7.5-4.1.1-1.3-.5-2.7,1.5-3.3.6-.2.7-1.9.9-3,.3-2.1,0-4.3,2.1-5.8.2-.2.2-.7.3-1,.4-1.5,0-3.5,2.3-4,.3,0,.4-.9.6-1.4.4-1.1.9-2.2,1.3-3.3.1-.4.2-.9.1-1.2-.3-.9-.8-1.7.6-2,.1,0,0-.6.2-.9.5-1.4,1-2.7,1.6-4.1.2-.4.9-.7.9-1-.2-2.5.1-4.7,1.9-6.6.9-1,1.6-2.1,2.3-3.3.3-.4.5-.9.5-1.4,0-2.1-.4-4.3,1.6-6,.3-.3.5-1.2.3-1.5-2.2-2.8.6-3.5,1.8-4.9.5-.5.7-1.3,1-1.9-.5-.2-1-.7-1.5-.7-4.3-.2-8.7-.6-13-.3-3.8.3-6-1.3-5.2-6s.5-7.2,0-10.7c-.5-3,.5-3.8,2.6-3.9,3.4-.1,7,0,10.3-.6,2.4-.5,5,1.4,7.1-.8,0,0,.8.5,1.3.7-.3.2-.6.5-.9.6-2.1.6-3.9,2.3-6.4,1.5-.3,0-.8.8-1.2,1.2.6.3,1.3.8,1.9.8,1.9-.1,3.7-.5,5.6-.7.3,0,.7.2,1,.2-.3.2-.7.3-1,.5-1.6.9-1.6,1.7,0,2.9-.8.1-1.5.1-2.2.1,0,0-.2.3-.2.5.6.3,1.3.7,2,.8,0,0,.4-.8.6-1.3M350.2,229.3c-.2-.4-.5-.8-.7-1.2-1.3,1-2.7.9-4.2.5-.2,0-.8.3-.8.4,0,1.4-.4,3,1.1,3.7,1,.5,2.1.8,3.2,1,.7.1,2,.1,2.1-.1.3-.9.3-1.9.2-2.9,0-.4-.6-.7-1-1.5M309.6,343c.4.1,1.1.3,1.1.4-.1,1.6,1.1,1.2,1.7,1,.3-.1.5-1.1.6-1.7.3-1.4.5-2.8.7-4.2,0-.5.2-.9.4-1.3-.6.1-1.4,0-1.7.4-1.4,1.4-2.7,2.9-4,4.4-.2.2-.2.6-.4,1,.4,0,.7.1,1.6.2M307,336.1c-1.4.5-1.3,1.5-.2,2,.9.5,2,.4,3.1.6,1.4.2,1.2-.7.7-1.4-.6-.8-1.6-1.4.3-1.7.2,0,.3-.6.5-.9-1.2-.2-2.5-.5-3.7-.7,0,.6-.2,1.3-.5,2.1M300.1,279.9c.9.5,2,.9,2.6,1.7.9,1.1,3.7,1.5,4.5.3,0-.1-.5-.7-.9-.9-.8-.4-1.7-.8-2.6-1.1-1.1-.4-2.3-.8-3.4-1.3-.1.4-.2.8-.1,1.4M313.4,287c-.8-.2-1.5-.4-2.3-.6,0,.4,0,1.2.2,1.3,2.6,1.3,1.1,1.9-.3,2.7-.3.2-.5.7-.7,1.1.4,0,.9.3,1.3.2,2.2-.4,3.1-2.6,1.8-4.7M310.8,329.9c.9-.2,2-.5,1.4-1.7-.3-.7-1.7-1.5-2-1.3-.9.6-1.5,1.7-2.2,2.5.3.2.6.6.9.6.5.1,1.1,0,1.9-.2M304.6,305.2c.5,0,1,.2,1.5.2.4,0,1.2-.2,1.2-.5.1-.4,0-1.1-.3-1.4-.3-.3-.9-.3-1.4-.3-.5,0-1,.2-1.5.4-.6.2-1.3.5-1.9.8.7.2,1.4.4,2.3.9M317.9,342.7c.8-.2,1.6-.3,2.4-.5-.5-.5-1-1.2-1.6-1.6-.3-.2-1,0-1.4,0,.2.6.3,1.3.7,2.1M319.3,331.8c-.9-1.2-2-1.6-3.4-.9-.3.2-.6.5-.9.7.3.3.6.8,1,.8,1,0,2.1-.3,3.3-.7M363.2,267.1c-.7,0-1.4,0-2.1,0-.3,0-.9.3-.9.5,0,.4.2,1.1.5,1.1.8.2,1.6.3,2.4.2.2,0,.2-1,.1-1.8M328.6,264.2c-.4.3-.8.5-1.2.8.3.2.6.5.9.6.7,0,1.4.2,2.1,0,.6-.2,1.1-.7,1.7-1.1-.5-.1-1.1-.2-1.6-.3-.5,0-.9,0-1.9,0M305.3,273.2c0,.7-.3,1.4-.2,2,0,.4.7.6,1.2.8.1,0,.7-.2.7-.3,0-.9,0-1.9,0-2.8-.4,0-.9,0-1.6.3M352.5,232.7c.6,0,1.3,0,1.9-.1l-.8-2c-.4.6-.8,1.1-1.1,2.1M315.5,308.6c-.2-.2-.4-.5-.7-.6-.3-.2-.7-.3-1.1-.4,0,.4-.2.9,0,1.1.5.5,1.2.8,1.8,1.2,0-.3.2-.6,0-1.2M315.8,291.7c-.6.2-1.1.4-1.6.6,0,0,.2.8.2.8.8,0,1.6-.2,2.4-.4-.1-.3-.3-.7-.9-1M318.2,344.9c0,.3-.3.6-.2.8.2.5.4,1,.7,1.5,0,0,.6,0,.6-.1,0-.6,0-1.2-.1-1.7,0-.2-.3-.3-.9-.5M309.1,325.4c.2-.2.3-.4.5-.4.4-.1.8-.1,1.2-.2-.3-.3-.7-.5-1-.8-.3.4-.6.8-.7,1.4M353.7,228.2c-.6.3-1.1.6-1.7.8.2.2.7.6.7.5.4-.3.8-.8.9-1.4M320.5,333.5c-.2.2-.4.4-.7.7.8,0,1.6.2,2.3.3.1,0,.3-.4.5-.6-.6-.1-1.1-.2-2.1-.3M314.1,279.6c-.6,0-1.3.1-1.9.2,0,.3,0,.6.1.9.6-.2,1.2-.4,1.8-1.1M323.8,348.6c.5-.4,1.1-.8,1.6-1.2-.3,0-.7-.3-.8-.2-.4.3-.7.8-.9,1.4M311,310.7c-.4.1-.8.2-1.2.4.3.2.7.6.9.5.3-.1.5-.6.3-.9M290.9,331.8c.2.2.4.5.6.7.1-.3.2-.6.4-.9-.3,0-.6-.2-.9.2M321.2,302.9c0,.4.2.8.3,1.2l.6-.2c-.2-.4-.4-.8-.9-1M307.2,267.5c-.4,0-.8.2-1.2.3l.2.6c.4-.2.8-.4,1-.9Z"/>
    <path d="M126.6,132.3c.4.5.7,1.4,1,1.4,3.2-.3,4.9,2,6.6,4,1.5,1.7,2.5,3.9,5.3,3.7.4,0,.8,1,1.3,1.4.7.5,1.4,1.3,2.2,1.3,1.7,0,3.3-.2,5-.4.7,0,1.8-2.7,1.6-3.5-.3-1.4-.3-2.7-.6-4.1,0-.6-.2-1.3-.5-1.6-1.7-1.7-3.4-3.3-5.1-4.9-.3-.3-.8-.5-1.2-.5-1.8.4-2.6-.6-2.9-2.3.8,0,1.5,0,2.2.2l-1-1.6c-.4.4-.9.9-1.3,1.3-1.6.2-2.8-.2-3.3-1.9-.1-.4-.5-.9-.9-.9-2.8-.3-4.7-2-6.3-4.2-1.1-1.6-3-2.2-4.2-3.4-2.2-2.2-4-4.9-5.7-7.5-2.4-3.7-3.9-7.8-4.9-12-.8-3.3-.9-6.7-1.2-10,0-.4,1-.9,1.1-1.4.3-1.2,0-2.7.6-3.7,1.1-2,.7-4.4,2.2-6.4.8-1.1,1.5-2.6,2.2-4,.5-1.2.6-2.5,2.3-2.5.2,0,.5-.3.5-.5-.3-3.7,4.4-2.7,5.2-5.6.2-.7,2.1-.9,3.1-1.5,1.2-.7,2.2-1.6,3.3-2.4.4-.3.6-.9,1-1.3.2.4.2,1,.5,1.3.3.3.9.6,1.2.5,4.4-1.7,8.8-1.6,13.2-.4.8.2,1.4,1.2,2.1,1.5.5.2,1.3-.1,2-.3.1,0,.2-.3.3-.3,2.7,1.5,5.5,2.8,7.9,4.7,2.6,2,4.7,4.7,7,7,0,0,0,.4.1.4,3.7,1.3,3.1,4.5,3.2,7.4,0,1.2,0,2.4,0,3.6,0,.6-.4,1.8-.6,1.8-3.4-.1-2.1,3.4-3.7,4.6-.9.7-1.8,1.5-2.7,2.3,0,0-.2,0-.2,0,.8,2.5-2.8,1.4-3,3.7-.2,2.2-4.1,2.9-5.9,1.4-2.2-1.9-4.4-3.7-6.6-5.7-.7-.6-1.2-2-1.9-2.1-1.8-.2-3.7,0-5.6.4-1.8.3-1.7,2.1-1.6,3.3.1,1.7.4,3.5,2.3,4.3,1.7.7,3.4,1.3,5.1,2.1.3.1.4.6.6.9,0,.3,0,.8,0,.9,1.9,1,3.9,1.9,5.8,2.9.5.2.9.5,1.3.8.5.4,1,1.4,1.4,1.4,2.2-.2,3,1.4,4.1,2.8.9,1.1,2.3,1.7,3.4,2.5.3.2.4.6.6.9.2.4.4,1.2.5,1.2,1.9-.2,2.4,1.5,3.4,2.6.5.5.9,1.2,1.3,1.8.3.4.2,1.1.6,1.4,2.5,1.9,2.9,5.1,3.7,7.7,1.3,4.4,3.3,8.8,2.9,13.5-.1,1.4.3,3.1-1.7,3.8-.2,0-.2.8-.2,1.3-.2,2.5-.3,4.9-.5,7.4,0,.2-.1.4-.2.6,0-.2-.2-.4-.3-.5-.3-.3-.6-.5-.9-.7-.2.3-.5.6-.5,1-.2,1.3.7,3.2-1.8,3.3,0,0,0,.6-.1.9-.5,3.2-2.5,5.2-5.6,5.7-.4,0-1,.5-1,.5,1.1,2.2-2.4,3.6-1.1,5.8-.8.3-1.5.6-2.3.8-1.3.4-3.5-1.1-3.4,1.8,0,0-.6,0-.9.1-2.5.2-5.1.2-7.6.5-1.9.3-3.7,1-5.6.4-.3,0-.6-.1-.9-.2.2-.1.6-.2.6-.3.1-.7.4-1.5.2-2.1-.6-1.2-1.4-.7-1.9.1-1.4,2.2-3.4,2.2-5.5,1.4-1.8-.7-3.6-1.6-5.5-2.1-1.4-.4-2.9-.3-4.3-.6-.4,0-.8-.5-1.2-.8.4,0,.7,0,1,0,.4-.1,1.1-.3,1.1-.6,0-.4-.2-1-.5-1.3-3.4-2.9-6.8-5.7-10.2-8.6-.9-.7-2-1.1-1-2.7.4-.7.7-2.4-1.3-2.6-.5,0-1-.5-1.5-.8.6-.3,1.1-.8,1.8-1,.5-.2,1-.2,1.6-.3-.4-.2-1.1-.5-1.1-.7.1-.8.4-1.6.7-2.2.5-.9,1.2-1.7,1.8-2.6.1-.2.3-.4.4-.4,2.9.5,1.9-1.7,1.9-2.9,0-1.3.3-2.2,1.6-2.7.7-.3,1.6-.8,1.7-1.3.7-2.3,2.3-3.7,4.2-4.9M128.9,65.9c-.7,0-1.4-.2-2.1-.1-.7,0-1.3.2-2,.4.5.4,1,1.1,1.6,1.1,1,0,1.4.2,1.3,1.3,0,.4.4,1,.6,1.1.6,0,1.2-.1,1.8-.2-.2-.4-.4-.9-.5-1.3-.2-.7-.3-1.4-.3-2.2.8,1,1.8,1.5,2.9.5.3-.3.4-.7.7-1.1-1.2-.6-2.4-1.2-3.7-1.7,0,0-.6.5-.5.7,0,.6.3,1.1.2,1.7M127.5,70.7c-.4,0-.9,0-1.1.2-.5.5-1.4,1.1-1.3,1.6.2.9.9,1.7,1.3,2.5.6-.7,1.2-1.3,1.7-2,.2-.2.2-.6.2-.8.2.3.3.7.5.9.4.4.9.7,1.5.9,0,0,.3-.2.5-.3-1.1-.8,0-3.8-2.8-2.8,0,0-.1-.1-.6-.2M138.8,147c.5-.5.9-1,1.4-1.4.3-.2.7-.2,1.1-.3-.8-.5-1.6-1.1-2.4-1.5,0,0-.4.5-.6.8-.2.2-.3.5-.5.7-.3.3-.7.6-1.1.9.6.3,1.1.6,2.1.9M134.6,96.7c-.9.2-1.8.4-2.7.6-.4.1-.9.4-1.3.5.3.4.4,1,.8,1.2,1.7.7,3-.2,3.2-2.3M145.2,158.7c0,.5-.2,1.1-.3,1.6.4-.2.8-.4,1.1-.6.4-.3.9-.5,1.3-.8.2-.2.4-.5.5-.8-.3-.2-.7-.6-.9-.5-.5.2-1,.6-1.7,1.1M132.2,109.1c.4-.4.8-.7,1.2-1.1-.5-.1-1.1-.5-1.4-.3-.6.4-1,1-1.4,1.6.5,0,.9,0,1.7-.2M153.8,129.2c.2.7-.6,1.9,1,1.6.3,0,.8-.5.9-.9.3-1.6-1-.8-1.9-.8M136.9,154.1c.6-.4,1.1-.7,1.7-1.1-.1,0-.3-.2-.4-.2-.6,0-1.6.8-1.3,1.2M130.3,76.3c0,.4-.2.9-.2,1.3,0,.2.4.4.7.6,0-.6,0-1.3-.5-1.9M162.1,117.1c.5,0,1.1.2,1.6.3-.1-.3-.3-.9-.4-.9-.5,0-1,.3-1.2.6M134.3,77.5c-.6.2-1.3.3-1.9.5,0,0,0,.4.1.6.6-.2,1.2-.4,1.7-1.1M125.6,150.4c.5-.2,1-.4,1.6-.6-.1-.1-.3-.3-.3-.3-.5.2-1,.5-1.2.9Z"/>
    <path d="M249.1,154.6c.2,3.1.3,6.2.5,9.3,0,1,0,1.9-1.5,1.2-.1,0-.8.5-.9.8-.1,1,0,2.1,0,3.1-.1,1.9-1,3.1-3,3.1-2.9,0-5.7,0-8.6,0-.6,0-1.6.2-.7-.9-.4-.2-.7-.5-1.1-.5-.9,0-1.8.1-2.7.2.4.2.7.5,1.1.7.4.2.8.2,1.2.3-.4,0-.9.2-1.3.2-5.1,0-10.1,0-15.2,0-1.8,0-3.7,0-5.2-1.4-.3-.3-1-.4-1.5-.4-1.6,0-3.2.4-4.8.4-2.6,0-5.3-.4-7.7.2-1.5.4-2.5-.3-3.8-.2-.3,0-.6.1-.8.2,0,0,0,.5.1.6.3.2.7.4,1.1.5h-2.5c0-.2,0-.3,0-.4,2.1-1.2-.7-.9-.5-1.5-3.1,0-6.2,0-9.3,0-.6,0-1.3.7,0,1-.1.1-.3.3-.4.3-.6-.1-1.4-.1-1.6-.5-.8-1.1-1.6-2.3-2.1-3.6-.3-.9-.3-2.1,0-3.1.5-2.1,1.2-4.2,1.9-6.3.1-.3.4-.9.6-.9,2.7,0,1.6-1.9,1.8-3.2,0-.8-.1-1.8,1-.5,0,0,.8-.3.9-.5,0-1.3,0-2.7,0-4,0-1.5,0-3,1.9-3.3.2,0,.2-.8.3-1.3.2-2.4-.4-4.9,1.8-6.8.6-.5,1-1.4,1.1-2.1.2-1.3-.4-2.8,1.7-3.1,0,0-.1-1.1,0-1.7.3-2.6,3.3-3.9,3-6.8.4.2.8.4,1.2.5.4.1.9.2,1.3.4,0-.5.4-1.1.2-1.5-1.7-2.7-1.8-3.5.6-5.9,1.4-1.4,1.4-2.7,1.1-4.4,0-.2.3-.6.6-.8.3-.2.9-.3,1.1-.6.4-.7.3-3.4.6-4.5.1-.6,1.7-.8,2.6-1,.3,0,.9.3,1.1.6,1.4,2.1,3.2,1.5,5,.7,1.1-.5,2.2-.9,1-2.5-.2-.3.7-1.5.9-2.3.1-.5-.1-1.1-.2-1.6-1.3.7-1.7-.6-2.4-1.1-1.4-1-2.7-1.3-4,.3-.3.4-1.4.2-2.1.3.3-.5.5-1.1,1-1.5,1.4-1.1,2.8-2.7,5-1.5.3.2.9-.4,1.4-.6-.3-.5-.5-1.2-.9-1.4-1.4-.6-1.8-1.3-1-2.8.5-.9-1-2.8-2.3-2.7-1.6.1-3.2.7-4.8.9-.9.1-2.1.2-2.8-.3-1.6-1.1-2.8-1-4.1.3-.2.2-.6.3-1,.4.1-.3.3-.6.4-.8.2-.3.5-.6.7-.8-.4,0-.8-.2-1.1-.2-2.3.4-4.6,1-6.9,1.4-.5,0-1.4-.1-1.7-.5-2.8-3.1-4.2-6.6-3.6-10.9.2-1.2-.5-2.5-.6-3.7,0-.7.6-1.4.6-2.1,0-2.7-.4-5.4-.3-8.1,0-.8-1.1-2.4,1-2.7.1,0,.3-.3.4-.5,0-.4.6-1.2,1-1.2,2,0,4.1,0,6.1,0,1.2,0,2.5-.2,3.7-.2,3.6,0,7.1,0,10.7,0,8.9,0,17.8,0,26.6,0,.7,0,1.5.2,2.2.5,1.1.5,2,.9,2.4-.7,0-.2.7-.3,1.1-.2,3,.3,6.1.5,9.1,1,1.2.2,3.1.9,3.3,1.7.5,1.8,0,3.8,0,5.8-.4,0-.8,0-1.2-.1-.4-.1-.7-.4-1-.5-.2.4-.5.8-.5,1.2.1,1.8-.1,3.2-2,4.2-.7.4-1,2.1-.8,3.1.5,2.4-.1,4.3-1.5,6.2-.3.4-.5,1-.5,1.4,0,1.3.3,2.8-1.9,1.7,0,0-.5.7-.6,1.1,0,.9,0,1.9,0,2.8,0,.3-.5.5-.8.8-.2-.2-.4-.5-.6-.7-.2-.2-.4-.5-.6-.7-.3.3-.8.5-.8.8,0,.8.1,1.7.5,2.4.7,1.7.4,2.8-1.3,3.6-.9.4-1.6.9-.6,2.1,1,1.1.2,1.8-.8,2.6-.7.6-1.1,1.7-1.6,2.6-.4.7-.9,1.3-1.2,2.1-.5,1.3-.7,2.6-1.2,3.8-.4.9-1,1.8-1.5,2.7-.5.8-.7,1.9-1.3,2.5-2.2,1.8-1.4,4.5-2.4,6.6-1.3,3.1-3,6-4.4,9-.2.3-.3.8-.5,1-2.8,1.7-3,4.5-3.5,7.3,0,0,0,.2,0,.2,0,1.1,0,2.1,0,3.2,1.4,0,2.9,0,4.3,0,.6,0,1.2-.2,1.8-.2,2.6-.1,5.2-.2,7.8-.4.5,0,.9-.2,1.4-.1,4,.3,8,.6,12,.9,1.4.1,3-1.4,3.9.8,0,.6,0,1.1,0,1.5.2-.3.4-.6.5-.9,3.2,1.6,2.4,4.4,2.2,7,0,.7-.1,2,.2,2.2,3.2,1.2.2,1.2-.4,1.6-.6-.2-1.2-.3-1.7-.4,0,.4,0,.8,0,1.1.5-.2,1-.4,1.6-.6M199.3,151.1c.5-.2.9-.6,1.4-.7,2.5-.2,1.2-1.5.7-2.4-.3-.7-.9-1.2-1.4-1.8,1,.3,2.1.5,3.1.8.1,0,.2.4.3.6.2-.1.7-.4.7-.4-.6-1.2-1.1-2.6-1.9-3.6-.9-1.2-2.2-2.2-3.2-3.4-.2-.2.1-1.1.5-1.3.5-.4,1.3-.5,1.9-.7-1.1-.4-.3-2.6-2.1-2.4-.4,0-.7,0-1.1-.2.3-.2.7-.7,1-.6,2.1.1,1.3-.9.8-1.8-.3-.6-3.6-1.3-3.7-.9-.1,1.8-1.9,1.4-2.6,2.1-.2.2-.4,1-.3,1.1.9.7,1,1.3,0,2.1-.1,0,0,.8.2.9.8.6.7,1,0,1.7-1.7,1.9-1.4,4.9.5,6.5.9.7.8,1-.2,1.5-1,.5-1,.6,0,1.4.2.1.3.8.2.8-3,1.3,0,2,.4,2.8.1.3.7.4,1.1.5-.5.1-1.1.3-1.6.4-.3,0-.7,0-1,0,.2.5.3,1.1.6,1.4,1.7,1.1,4-.2,4.1-2.3,0-1.2.3-2,1.9-2.1M205,122.1c.2.6.2,1.3.5,1.9.2.5.8,1.1,1.1,1.1.6-.1,1.3-.6,1.7-1.1.3-.4,0-1.1.2-1.6,0-.1.8-.2.8-.2.7,2.1,2,.5,3,.5-.2-.7-.4-1.5-.7-2.2-.1-.3-.4-.5-.7-.7-.9-1-.9-.9,0-1.9.7-.6,1.7-1.3,0-2-1.1-.4-1.1-1.6-.6-2.4.8-1.2.4-2-.5-2.5-.9-.5-2.1-.9-3-.6-.6.2-1.1,1.5-1.3,2.4-.4,2.3-.7,4.6-1,6.9,0,.5.3,1.1.4,2.2M202.9,64c-1,0-2-.2-2.2,1.4-.2,1.6.8,2.4,1.9,2.4,2,0,4-.5,6-.9,0,0,.2-.5.1-.8-.1-.4-.5-.7-.7-1,.4.2.9.5,1.3.6.3,0,.7,0,.9,0,.2-.2.4-.7.3-.9-.5-1.6-2.6-2.2-4.1-1.5-1.1.5-2.3.7-3.6.8M209.5,82.5c1.3-1.4-.1-2.1-.9-2.8-1.2-1-2.6-1.7-3.9-2.5-.5-.3-1-.7-1.5-1.1,0,.7,0,1.3,0,2,0,.3-.4.6-.5,1,0,.6-.3,1.4,0,1.7.6.6,1.4,1,2.2,1.2,1.4.3,2.8.4,4.7.6M203.1,74.2c.3,0,.7.1.9.3.6.3,1.1.6,1.6.9,0-.6.1-1.1.3-1.7.1-.6.5-1.2.4-1.8-.2-1-.7-1.8-1.1-2.7-.5.2-1,.4-1.5.7-.3.2-.4.8-.6.8-2.7-.3-.8,2.1-1.7,2.8.5.3.9.7,1.6.8M234.9,164.8l-4.3,2.9c.3.4.7,1.1.9,1.1,1.2-.5,2.4-1,3.5-1.8.3-.2,0-1.1,0-2.2M229.7,150.6c.8-.7,2.2-1.3,2.2-2.1,0-.9-.9-1.9-1.5-2.9-.3.2-.7.3-.7.5,0,1.3,0,2.6,0,4.4M210.5,129.5c-.3.1-.5.2-.8.3-.4.2-.9.4-1.3.6.4.3.9.7,1.3,1,.3.2.8.5,1,.4.7-.3,1.7-.7,1.9-1.3.5-1.5-.9-.9-2.1-1.1M200.5,165.5c-.7-.6-1.4-1.2-2.1-1.8-.2-.2-.4-.4-.5-.5-.1.1-.4.3-.4.4.2,1.3.5,2.6.8,3.8.8-.6,1.7-1.1,2.3-1.9M210.7,138.7c.9.7,1.7,1.5,2.6,2.1.3.2.7.2,1.1.3,0-.4,0-1.1-.2-1.2-1.1-.6-2.3-1.1-3.5-1.2M189.8,87c.2-.3.5-.7.4-1-.2-.7-.5-1.4-.8-2.1-.4.3-1.1.6-1.2.9,0,.6.1,1.3.4,1.9.1.3.6.3,1.2.3M222.1,71.8c1.2-1.9-.8-1.7-1.5-2.4-.2-.2-.9,0-1.3,0,.2.5.2,1.1.6,1.4.6.5,1.4.8,2.3.9M225.9,146.3c1,1.3,1.9.7,2.6-.3.2-.2-.1-1.1-.3-1.2-1-.3-2-.5-2.2,1.5M206.4,83.7c-.7-.2-1.3-.5-2-.7,0,0-.3.4-.3.4.6.5,1.2,1,1.8,1.4.4.2,1,.1,1.5.2-.2-.4-.5-.7-.9-1.3M217.8,169.1c.5,0,.9,0,1.4,0-.3-.7-.5-1.6-1-2.1-.2-.2-1.2.3-1.8.5.4.4.7.9,1.3,1.5M210.5,123.8c.2.6.5,1.3.7,1.9.5-.3.9-.6,1.4-.8-.6-.4-1.1-.7-2.1-1.1M221.9,171.7c0-.3.1-.6.2-.9-.6,0-1.2,0-1.9,0-.3,0-.6.2-.9.4.3.2.6.5,1,.5.4,0,.8,0,1.6,0M206.7,89.2c0-.7-.1-1.4-.3-2,0-.1-.6-.1-.9-.2.2.7.4,1.5,1.1,2.2M213.3,170.8c.6-.1,1.1-.2,1.7-.4-.2-.2-.5-.6-.7-.6-.4.1-.8.4-.9.9M215.4,161.5c.4.4.8.8,1.2,1.1,0-.2.2-.5.2-.6-.4-.3-.8-.5-1.4-.5Z"/>
    <path d="M207.4,235.3c.8-.3,1.7-.5,2.4-1,.9-.6.3-2.2-1-2.8-.3-.2-.9-.6-.9-.8.2-.6.6-1.6.9-1.5,2.8.5,5.7-1.6,8.5.3,1,.7,1.5,1,1.5,2.3-.1,2.6,0,5.3,0,7.9.1,8.1.3,16.1.5,24.2,0,.7.7,1.4,1.1,2.1.6-.4,1.2-.9,1.8-1.2,1.3-.7,2.7-1.2,3.8-2.1,2-1.7,4.3-1.5,6.5-1.3,2.7.1,5.5-1.1,8.2.4.3.2,1-.5,1.4-.4.8.3,2,.8,2,1.2.1,1.7,1,2.3,2.8,1.6.4-.1,1.5-1.1,1.2.5-.3,1.7.6,1.9,1.9,1.8.4,0,1.1,0,1.3.2,1.2,1.6,2.3,3.3,3.4,5,0,.1,0,.4,0,.5,3.1,2.4,2.2,6.7,4.7,9.6,1.7,2,2.2,5.2,2.8,8,.5,2.5.5,5.1.5,7.6,0,1.6-.4,3.2-.4,4.8,0,2.9.4,5.7.4,8.6,0,3.3-.3,6.6-.4,9.8,0,.3,0,.8-.2.9-4.2,1.9-1.3,5.3-1.5,7.9,0,1.3-.6,1.2-1.1,1.7-.4.4-1.2.6-1.4,1.1-.7,1.7-1.3,3.6-2,5.3-.2.6-.8,1.6-1.1,1.6-2.2-.3-1.7,1.2-1.7,2.4.2,2.6-2.1,3.7-3.5,5.3-.8.9-2.4,1.1-3.6,1.6,0,0-.2.1-.2.2-.3,3.2-3.9,1.7-5.3,3.7-.5.7-2.4.7-3.6.7-1.9.1-3.8,0-5.8,0-.3,0-.7,0-.8-.2-1.6-2.5-4.8-2.4-6.7-4.3-1.3-1.3-2.6-.8-3.8.6-.7.8-2.2.9-3.3,1.1-4.6.7-9.1-.1-13.4-1.5-1.5-.4.3-.8.3-1.4-.1-2.3-.1-4.7-.2-7,0-.4-.3-.9-.3-1.3,0-3,0-6,0-9,0-1.5.4-2.9.4-4.4,0-.5-.6-1-.9-1.5,0-.2-.2-.4-.1-.5,1.5-4.1,1.4-8.2.8-12.4-.2-1.2-.2-2.4,0-3.6.1-1.3-.3-1.7-1.5-1.5-.3,0-.6-.1-.9-.2.3-.2.6-.7.9-.7,1.5,0,1.5-.9,1.5-2,0-5.9,0-11.8,0-17.7s.1-10.7,0-16c-.1-4.1-.6-8.3-.9-12.4,0-.9.4-1.9.4-2.9-.1-7.4-.3-14.7-.4-22.1,0-.8.5-1.5.7-2.3.7.5,1.5.9,2.1,1.4,1.4,1.2,1.7,2-.7,2-.4,0-.8.8-1.2,1.3.5.2,1,.4,1.5.5.9.1,1.8.2,2.6.4-1,.6-2.8-1-2.8,1.4,0,1.3-.3,2.6-.4,3.9,0,.5-.4,1-.2,1.4.6,1.3,5,3.3,6.3,2.9.6-.2,1-.9,1.5-1.3-.5-.3-1-.9-1.5-1-.7-.2-1.6.2-2.3-.1-.7-.2-1.1-1-1.7-1.5.5-.1,1-.2,1.5-.4.3-.1.7-.5,1-.4,1.3,0,2.4,0,2.2-1.9-.2-1.5-.4-2.8-2.5-2.5-.2,0-.6-.3-.8-.4M212.4,270.4c-1.8,0-2.2,1.1-2.1,2.6,0,.4.2.8.3,1.2-.4-.2-.8-.5-1.2-.8-.6-.4-1.3-.9-1.9-1.3-.5,1.2-1,2.4-1.4,3.7,1,.3,2,1,2.8.7.9-.3,1.4-.7,2,.3.2.3,1.2.3,1.7,0,.3-.2.5-.9.6-1.4.1-.5.1-1.1.2-1.7.5.3,1,.5,1.5.8.5.3,1,.6,1.5,1,.2-.6.5-1.2.7-1.8.6-2.5-1.7-3-3-4.2-.3-.3-.7-.4-1.1-.5,0,.5-.1.9-.4,1.4M209.3,286.3c.3-.5.5-1.1.8-1.6-.7.2-1.6.3-2.2.8-.3.2,0,1.1,0,1.6.5-.2.9-.4,1.4-.3.6.4,1.8,1,1.7,1.3-1,3.4,1.8,1.2,2.6,1.8.4.3.9.6,1.4.9-.4.5-.8,1.2-1.3,1.6-.3.2-.8,0-1.3,0-.6-.1-1.3-.3-1.9-.4.3.5.6.9.8,1.4,0,.2,0,.4,0,.6-.1.8-.2,1.5-.4,2.3,1-.2,2-.2,2.8-.5.9-.4,1.5-1.7,2.3-1.7,2.9,0,1.2-2.4,1.9-3.5.2-.4-.2-1.3-.5-1.9-.3-.7-.8-1.4-1.1-2.1-.7-1.6-1.2-3.3-2.1-4.8-.2-.4-1.6,0-2.3-.2-3.4-1-1.8,1-1.3,2.1.8,1.7.5,2.8-1.4,2.9M220.4,313.1c.5-.2,1.1-.5,1.6-.7,0,.8,0,1.6,0,2.4.1.9.3,1.7.6,2.5.4,1.2,1.5,2.3,1.3,3.4-.2,1.9-.2,3.2,1.9,3.7.5.1.9.7,1.1,1-1.1-.1-2.2-.4-3.2-.3-1.4,0-2.1-1-3.2-1.4-1.2-.5-3.1,0-.4-1.4.2,0,0-.7,0-1.1-.9.2-2.1.1-2.8.6-.6.4-1.3,1.7-1,2.2.3.7,1.5,1,2.3,1.4.5.2,1.1,0,1.6,0,.2,0,.4.2.6.3-.2.2-.4.4-.7.5-.5.2-1.1.4-1.6.6.6.6,1.1,1.6,1.7,1.7,1.1.3,2.3.1,3.5,0,2.9,0,3.3-.5,3.5-3.3.6,2.6,2.2,2,4,1.5.7-.2,1.6-.1,2.4,0,2.7.4,6.9-2.9,7.2-5.7.2-1.5.7-3,.9-4.6,0-.8.8-2.4-1.3-2.1-.1,0-.3-.2-.5-.3.2,0,.4-.2.6-.2,2.7-.4,3.4-1.5,2.8-4.3,0-.3.2-.7.4-.9,1.1-.8,1.1-.8.1-1.9-.2-.3-.2-.9-.3-1.3,0-.9.3-2.6,0-2.7-2.4-1.1-.5-2.4-.4-3.6.2-2.5,0-4.8-2.1-6.6-.3-.3-.4-1-.3-1.5.2-2.3-1.5-3.2-3-4.2-.5-.4-1.4-.6-1.6-1.1-.9-1.7-2.4-1.2-3.7-1.2-.3,0-.7.4-1,.4-.5-.1-1.1-.4-1.6-.7.4,0,.9-.2,1.3-.2.6,0,1.3,0,1.9,0,.2,0,.2-.6.4-.9-1.1-.2-2.2-.4-3.3-.5-.2,0-.5.6-.7,1-.6,1.3-.9,2.9-3,2.8-.6,0-1.1,1.3-1.8,1.6-1.3.6-.6,2.7-2.3,2.9-.2,0-.4.5-.4.7-.2,2.4-.6,4.8-.4,7.1.1,1.4-.4,2.3-1.3,2.6-1.7.6-1.2,1.7-1.1,2.8,0,.8.3,1.6.4,2.4.2,2.1.3,4.2.2,6.3-1.4-.2-2.9-.3-4.3-.4-.2,0-.5.5-.7.9,0,0,.3.5.5.5,2,.3.1.7,0,1-.3.5-.7,1-1,1.5.6,0,1.2.3,1.8.2,2.2-.2,3.1-1.8,4.1-3.6M231.3,275.6c.7-.1,1.4-.2,2.1-.4-.6-.5-1.1-1.3-1.8-1.6-1.2-.5-2.6-.6-3.9-.9-.3,0-.7-.3-.8-.4,0-1.5,2.7-2.1,1.2-4.1.2,0,.4-.2.6-.2,1.7.2,3.4.4,5,.7,1.7.3,3.4.9,5.2,1.2.3,0,.7-.6,1-1-.3-.1-.7-.2-.9-.4-.8-.8-3.6.5-2.4-2.3-.4-.2-.8-.5-1.3-.5-3,0-6,0-9-.5-.7-.1-1.4-.2-2.1-.3.2.9.2,1.8.5,2.6.1.4.8.6,1.1.9.4.6.7,1.3,1,1.9-1.9-.7-2.3,1.3-3.4,1.9-.4.3-.7.8-1,1.2.5.2,1.1.6,1.6.6.6,0,1.1-.4,1.7-.4.3,0,.6.4.9.7-.3,0-.5.3-.8.2-2.5-.3-1.3,1.6-1.5,2.6,0,.2.4.4.6.7,0-.2.1-.5.3-.7.7-.8,1.4-1.6,2.1-2.5.6.5,1.1,1,1.7,1.5.6.5,1.1,1,1.8,1.3.5.2,1.1.1,1.6.2-.4-.4-.8-.8-1.1-1.2-.2-.3-.4-.6,0-.9M214.3,255.7l-2.5-.2c.6-.5,1.2-1,1.8-1.5.3-.3.8-.6.8-.8,0-.4-.5-1.2-.6-1.2-1.9.9-3.9,1.8-5.7,2.9-.4.2-.3,1.4-.2,2,0,.3.8.6,1.3.7,1.4,0,2.8,0,4.3,0,1.4,0,1.8-.6.8-1.9M206.7,250c.9,0,2.3-1,2.2,1.2,0,.4,1.3.8,2,1.2.1,0,.7-.7.7-.7-1.2-1.5,0-.6.6-.8.7-.1,1.5-.8,1.8-1.4.2-.4-.3-1.7-.6-1.7-1.8-.3-3.7-.6-5.4-.5-.6,0-3,.5-1.2,2.7M217.6,308.3c-.4.8-.9,1.5-1.3,2.3-.3.4-.5.9-.8,1.3.5,0,1.1.3,1.6.2,2.2-.6,2.2-2.3,2.2-4.1,0-2-1.4-.8-2.2-1-.5-.1-1.1.3-1.6.5.6.3,1.1.5,2.1.8M243,324.7c.4-.4.8-.8,1.2-1.2-.7-.3-1.6-.9-2.1-.7-.6.3-.9,1.3-1.3,2,.6,0,1.3,0,2.2-.2M215,299.1c0,.8,0,1.6,0,2.4.5,0,1.4,0,1.5-.3.2-.7.1-1.5.2-2.3-.5,0-1,0-1.7.2M204.3,314.5c.6.5,1.3.9,1.9,1.4-.3-.9-.5-1.9-.8-2.8-.1-.3-.4-.6-.6-1-.3.7-.6,1.4-.6,2.4M210.5,322.6c-.6.3-1.1.6-1.7.8.2.2.4.5.7.6.7.2,1.4.2,2,.3-.2-.6-.4-1.2-1.1-1.7M257.9,286c-.8-.6-1.7-1.2-2.1.4,0,.4.3.9.5,1.4.6-.5,1.2-1,1.6-1.8M258.9,328.7c.2.1.3.3.5.4.2-.8.4-1.5.5-2.3,0-.1-.7-.3-1.1-.4-.1.8-.2,1.5.1,2.3M229.7,277.7c-.4,0-.9-.3-1.3-.2-.3,0-.4.6-.6.9l2.7.3c-.2-.3-.4-.6-.8-1.1M211.9,278.4c.2.5.4,1.2.8,1.4.3.1.9-.3,1.4-.5-.6-.3-1.1-.5-2.1-.8M251.3,329.2l.7-.6c-.5-.3-1.1-.7-1.7-.8-.3,0-.7.4-1.1.6.5.3,1.1.5,2.1.8M218.1,304.5c0-.5,0-.9,0-1.4-.6.2-1.3.3-1.9.5-.1,0,0,.6,0,.9.5,0,1,0,1.9,0M205,295.8c.6-.2,1.3-.4,1.9-.5-.2-.2-.6-.6-.7-.6-.5.3-2-.9-1.2,1.1M221.9,272.3c-.1-.4-.1-1-.4-1.3-.2-.3-.7-.4-1.1-.5.1.4.2.8.4,1.1.1.3.4.5,1.1.7M209.5,269.4c-.6.1-1.1.2-1.7.3.3.2.7.6.9.6.5-.1,1.9.7.7-.9M245.6,282.7c-.4-.3-.8-.6-1.2-.9-.1.2-.3.4-.4.7.5.2.9.4,1.7.3M207.1,246.2c.7.1,1.4.2,2,.3,0-.2,0-.6,0-.6-.6,0-1.2-.2-1.7-.2-.2,0-.4.1-.3.5M253.9,327.5c.6.2,1.1.4,1.7.7,0-.2.1-.4.2-.6-.6-.1-1.1-.2-1.9,0M220.9,300.3c0-.4,0-.7-.2-1.1,0,0-.6,0-.6,0-.2.4-.2.9-.3,1.4.2-.1.4-.2,1.1-.3M240.1,350.8h1.4c-.1-.3-.3-.6-.4-.9-.3.2-.6.3-1,.9M215.2,346.3c-.2.4-.4.9-.6,1.3.4,0,.7,0,1.1,0,0-.4-.2-.8-.5-1.4M245.1,320.7c-.4,0-.7,0-1.1.1.2.3.4.5.6.8.3-.2.5-.4.5-.9M214.5,296.7c.4-.1.8-.2,1.3-.3,0,0,0-.2,0-.3-.4,0-.8.1-1.2.6Z"/>
    <path d="M390.5,161.7c.2-1.6.5-3,.4-4.4,0-3.1-.3-6.2-.4-9.3,0-1.2-.4-2.6,0-3.5,1.2-2.3.2-4.6.3-6.8.2-2.4,0-4.8,0-7.2v-9.3c0-2.7,0-5.5,0-8.2,0-2.6-.4-5.1-.4-7.7,0-2.2.4-4.5.4-6.7,0-2.2.6-4.7.2-6.4-1-4-.4-7.9-.6-11.8-.1-3.3.5-6.6.4-9.8-.1-3.9-.7-7.9-.8-11.8,0-3,.3-6,.4-9.1.2-4.1.5-8.3.4-12.5,0-3-.5-5.9-.9-8.9-.6-3.9,1.9-7.3,5.7-7.6,2.5-.2,5.1-.4,7.6-.5,1.2,0,2.4.4,3.6.4,1.8,0,3.7.3,5.5,0,2.7-.4,3.5.8,3.7,3.2.2,1.9.7,3.8,1,5.7.1.7,0,1.5,0,2.3-.4,3,.5,5.8-.2,9-.7,3.1.8,6.7,1.1,10,0,1.2,1,2.9-1,3.6-.2,0-.4.9-.3,1.2,1.5,2.4.9,5,.9,7.6,0,3.4,0,6.9,0,10.3,0,3.7.5,7.4.4,11.1,0,3.7-.6,7.4-.9,11.2s0,.9,0,1.3c.3,2.9.8,5.6.6,8.6-.3,4.4.5,9,.7,13.5,0,.9-.4,1.7-.4,2.6,0,4.1,0,8.3,0,12.4,0,2.7.4,5.5.4,8.2,0,1.4-.4,2.9-.4,4.3,0,4,.3,8.1.5,12.1.1,2.4-1.6,4.8,0,7.3,0,0-.4.7-.7.7-2.1.4-4.2.8-6.2.9-1,0-2.1-.5-3.1-.4-3,.2-6.1.6-9.1.9-.2,0-.3.3-.5.4-1.2-3-3.1,1-4.4-.4-.2.2-.4.3-.5.6-.2.4-.3.9-.5,1.3-.2-.5-.4-1-.5-1.5-.2-1.6-.2-3.2-.6-4.8-.2-.8-1.2-1.3-1.8-2.2M409.5,116.4c.1.4.2.8.4,1.2.3-.2.7-.3,1-.5.8-.6,1.5-1.7,2.2-1.8,2.7,0,2.1-2.3,2.4-3.7,0-.3-1.3-1-2-1.6-.3.5-.6,1-.9,1.5-.3.4-.5.8-.9,1.1-.1.1-.6,0-.9-.2-.4-.2-.8-.4-1.2-.6-.2.5-.6,1.1-.7,1.6,0,.8.3,1.6.4,2.9M412.3,138.7c.7.9,1.6,1.7,2.1,2.7.6.9.3,1.2-.9,1.5-.3,0-.8.7-.7.9.2.6.6,1.2.9,1.8,1.1-1,3.2-2.1,3.1-2.9-.3-1.8-1.6-3.4-2.7-5-.6-.8-1.8-.2-1.8,1M415.6,130.7c-.4-.3-.9-1-1.3-1-1.2.2-1.6,2.4-.7,3.2.8.7.4,1-.3,1.4-.2.1-.2,1.2,0,1.3,1.7.7,2.7-.3,4-3.2.9-2-1.7-.3-1.6-1.7M412.8,125.9c-.4.7-.8,1.4-1.1,2.1-.1.2-.2.5-.2.8,1,0,2,.2,3,.1.3,0,.8-.5.7-.7-.1-.7-.3-1.5-.7-2-.2-.3-.9-.4-1.6-.3M405.7,37.7c0,.5.1,1.1.2,1.6.4-.2,1-.3,1.3-.7.6-.8,1.1-1.7,1.6-2.6-.9.5-1.9,1-3,1.7M410.7,99.6c-.2.2-.5.4-.6.7-.2.5-.3,1.1-.4,1.6.6,0,1.5.3,1.8,0,.5-.6.7-1.5.9-2.3-.5,0-.9-.2-1.7,0M394.1,24.6c.4-.3.8-.5,1.2-.8-.5-.4-.9-.9-1.4-1-.4-.1-.9.2-1.4.3.4.5.8,1,1.7,1.6M407.3,31.8c.7-.2,1.4-.4,2.1-.7-.2-.4-.3-1-.6-1.1-.6-.2-1.4,0-2-.1,0,.5.2,1.1.5,1.8M412.1,83.9c-.4-.3-.8-.6-1.2-.9-.1.5-.5,1-.4,1.3.2.4.8.7,1.2,1,.2-.4.4-.8.4-1.4M408.3,65c.9,0,1.8,0,2.7,0,.1,0,.2-.5.3-.8-1.1.2-2.1.4-2.9.9M413,115.7c.2.5.3,1.3.5,1.4.7,0,1.4-.2,2.1-.3-.5-.4-.9-.8-1.4-1.1-.2-.1-.5,0-1.2,0M416.1,165.3c.2.4.4.8.6,1.2.3-.5.8-.9.8-1.4,0-.5-.5-.9-.8-1.4-.2.4-.4.8-.6,1.7M405.2,33.9c.2.6.5,1.1.7,1.7.4-.2.8-.4,1.1-.6-.2-.4-.4-.9-.8-1.2-.2-.2-.7-.2-1.1.2M396.7,48.6c.3.4.5.7.8,1.1.5-.4.9-.9,1.4-1.3-.6,0-1.3,0-2.2.2M395.7,78.5c.6.2,1.3.4,1.9.4.1,0,.3-.6.4-.9-.6,0-1.2-.2-1.8-.2-.2,0-.4.1-.6.7M416.8,160.3c-.2.6-.5,1.1-.7,1.7.4,0,.7.1,1.1.2,0-.6,0-1.1-.4-1.9M391.7,30.3c0,.5-.2,1-.2,1.5,0,.1.4.3.6.4.2-.7.5-1.3.7-2-.2,0-.5,0-1.2,0M400.5,87.5c.3.4.6.7.8,1.1.1-.6.2-1.2.3-1.8-.4,0-.8.2-1.2.7M412,52.9c-.4-.1-.7-.2-1.1-.3v1.1c.4-.1.7-.2,1.1-.8M400.7,100.1c0,.5.1.9.2,1.4.5-.2.9-.4,1.4-.6-.4-.3-.7-.5-1.6-.8M417.3,157.5c-.6.1-1.1.2-1.7.3,0,.2.1.4.2.6.6-.3,1.3-.6,1.4-.9M412.6,119l2,.3c0-.2,0-.6,0-.6-.6,0-1.2-.2-1.7-.2-.2,0-.4.1-.3.5M408.5,107.4c-.6-.2-1.1-.4-1.7-.7l-.2.6c.6.1,1.1.2,1.9,0M413.3,124c.3.1.6.3.9.4,0-.5.2-1.1.3-1.6-.3.3-.6.6-1.2,1.2M396,38.9c-.2.5-.4.9-.5,1.4,0,0,.4.3.6.4,0-.5,0-1-.1-1.8M413,108.1c.2-.3.4-.5.6-.8-.3,0-.7-.2-.8-.1-.2.2-.2.6.2.9Z"/>
    <path d="M168.5,323.5c1.2,2.3.9,4.4.5,6.6-.3,1.8,0,3.7,0,5.5,0,.2-.4.4-.6.7-1.4,1.4-.9,1.1-.1,2.5.9,1.7.9,3.9,1.2,5.9,0,.5-.4,1-.4,1.5,0,.9-.1,1.2-1,.7-.3-.1-.9.4-1.3.6.3.3.6.7.9,1,.2.2.5.4.7.7-.3.2-.7.6-1,.5-3.8-1.4-7.7-.7-11.6-1-1.4,0-2.6-1.3-4-1.7-.9-.3-2.1-.3-3,0-3,.9-5.9,2.8-8.9,3-2.8.1-6.1.4-8.7-1.7-.7-.6-1.9-.7-2.9-.9-.6-.1-1.2-.1-1.8-.2.4-.2.9-.3,1.3-.5-.2-.4-.4-1-.7-1.2-1.4-1-2.9-1.9-4.4-2.8-.4-.3-1-.5-1.5-.5-1.6,0-1.5-1.2-1.3-2.2.1-.8,1-1.8.8-2.4-.8-1.6-1.9-3-2.9-4.5-.3-.4-.9-.7-1.2-1.1-.8-1.7-1.2-3.7-2.4-5.1-.7-.8-.6-1.5-.4-2,.6-1.9.9-3.4-.7-5.1-.6-.7-.7-1.9-.8-3-.2-3.1,0-6.3-.6-9.3-.3-1.6-.6-2.6,1.2-3.2,0,0,.1-.5,0-.6-1.6-1.5-1.4-3.4-1.1-5.3,0-.5-.3-1.2-.6-1.6-.4-.6-1-1-1.5-1.5.6-.4,1.2-.9,1.8-1.3.2-.1.7,0,.9.2,1.1.8,2.2,1.6,3.3,2.5.1,0,.3.3.3.4-.2,1.2,1.2,2.3,2.5,2,.2,0,.4-.2.5-.3-.4-.5-.7-1-1.1-1.4-.2-.2-.5-.2-.8-.3.3,0,.5-.2.8-.3,1.7-.1,2-.9,1-2.2-.8-1.2-.5-1.7.8-2.1.2,0,.5-1.1.3-1.3-.9-1.1-2-2-2.9-3.1-.8-1-1.3-2.1-1.8-3.3-.2-.5-.2-1.2,0-1.6.7-1.5.1-3.4-1.4-3.9-.3-.1-.9,0-.9,0-.1.8-.2,1.7-.3,2.5,0,.4.2.8.3,1.2-.3-.4-.6-.7-.8-1.1-1.4-2.3.2-4.1.9-6.1,0,0,0-.2.1-.2,3.4.4,1.7-3,3.1-4.1.7-.6,1-1.6,1.6-2.4.6-.9,1.3-1.7,1.9-2.5.4-.6.3-1.8,1.6-1.1,0,0,.7-.7.7-1.2.1-1.3-.2-2.7,2-1.7.6.3,2-.4,2.6-1,1.3-1.3,2.7-1.9,4.5-1.8,2.9.1,5.8,0,8.6.6,1.3.2,2.5,1.3,3.4,2.4,1.2,1.4,2.1,3.1,3.1,4.6,0,.1,0,.4.2.4,2.3.7,4.7,1.9,7,1.8,1.5,0,2.9-2.1,2.8-4.2,0-2.2,1.1-3,3.3-2.5.8.2,1.6,0,2.4,0,.6,0,1.6-.2,1.9.1.8,1,1.6,1,2.7.7.2,0,1,.7,1,1.1.2,4.8.3,9.7.5,14.5.1,3,.4,6,.4,9.1,0,2,0,4,0,6,0,1.7,0,3.4,0,5.1,0,2.2,0,4.3,0,6.5-.1,3.8-.4,7.7-.4,11.5,0,2.1.3,4.1.4,6.4M148.3,317.8c.6-.8,1.5-1.6,1.6-2.4.4-4.4,3.9-8.4,2-13.1-.1-.3.4-.9.3-1.2-.3-1.2-.7-2.5-1.2-3.7-.1-.3-.6-.6-.6-.9.4-3.3-3.5-5-3-8.3,0-.3-.6-.7-1-1-1.2-1.2-2.5-2.4-3.7-3.6-.3-.3-.7-.7-1-.8-2.4,0-4.9,0-7.3,0-.2,0-.4.4-.6.7,3,1.4.1.9-.4,1.4-.5.4-.7,1.1-1.1,1.7-.6,1-1,2.5-1.9,2.9-1.9,1-2,2.5-1.9,4.2,0,.6-.2,1.8-.4,1.8-1.8.3-1.1.9-.5,1.8.2.4.2,1.1,0,1.5-.7,1.1-1.1,2-.1,3.1.2.2-.1.9-.3,1.4-.5,1.8.4,4.8,1.6,6.1.2.2,0,.8,0,1.3-.6,4.1-1.1,8.3,2.6,11.2,3,2.3,6.8,3.4,10.5,3,3-.3,5.9-4.1,6.2-7M121.5,322.8c-2.8-.4-4.4.5-4.7,3,0,.3.2.7.3,1,.3-.1.6-.2.8-.4,1.2-1,2.4-2.1,3.7-3.6M154,273.2l.7-1.6c-.5-.1-1-.3-1.4-.3-.5,0-1.1,0-1.6,0-.9,0-1.7,0-2.6-.1.8.6,1.5,1.3,2.4,1.7.7.3,1.6.4,2.6.3M123.9,327.5c.3.4.6.8.9,1.2.8-1,1.5-1.9,2.2-2.9.1-.2,0-.8-.2-.9-.3-.2-.9-.3-1.1,0-.7.7-1.3,1.5-1.9,2.8M160.9,314.3c.4.3.9.6,1.3.8.6.3,1.2.6,1.8.8,0-.7.4-1.8.2-1.9-.8-.5-1.8-.7-2.8-.9-.2,0-.5.6-.5,1.1M155.9,296.5c1.2.1,2.3.2,3.5.3-.4-.6-.9-1.9-1.3-1.8-.9.1-1.6.8-2.2,1.5M119.4,304.1c-.5-.5-.9-1.1-1.5-1.4-.6-.4-1.4-.5-2.1-.7.4.9.6,1.9,1.2,2.5.4.3,1.4,0,2.4-.3M135.5,271.8c.6-.4,1.1-.7,1.7-1.1-.4-.2-.8-.7-1.1-.6-.8.2-1.5.6-2.3,1-.2,0-.2.4-.3.6.5,0,1,0,1.9,0M168.2,326.3c-.3-.5-.6-1-1-1.4-.1,0-1,.4-1,.6,0,.5.3,1.1.5,1.6.4-.2.8-.4,1.5-.9M159.2,300.7c-.2.7-.5,1.4-.7,2.1.7-.3,1.3-.6,1.9-1,.3-.2.6-.6.8-1-.5,0-1,0-2-.1M117.3,300.5c-.4,0-.8-.2-1.2-.2,0,0-.1.5-.2.8.4,0,.8-.2,1.4-.5M146.7,270.6h-1.4c0,.2,0,.4,0,.6.4-.1.7-.2,1.3-.6Z"/>
    <path d="M422.8,281.3c.3,1,.3,2.4,1,2.9.9.7-.6,3,1.7,2.4-.2.3-.4.6-.6.8-.4.4-.8.8-1.2,1.1.4.3,1,.4,1.2.8.3.5.6,1.1.6,1.6-.1,5.7-.3,11.4-.5,17.1,0,2.7.5,5.9-.7,8-1.4,2.5-.4,5.2-1.9,7.5-.3.4,0,1.1-.2,1.6-.2.5,1.9,2.6-.9,1.3,0,0-.7,1.2-1,1.9-.3.7-.2,1.6-.6,2.1-1.1,1.2-1.8,2.2-.9,3.8.1.3-.5,1.4-.9,1.5-2.4.2-2.3,1.7-1.9,3.4.2,1.1,0,1.8-1.5,2.5-1.2.7-2.2,2.3-3.7,3.1,0,0,0,.6.1.9.3,1.3,0,1.5-1.1,1.2-1.6-.4-2.9-.1-3.7,1.5-.1.3-.4.7-.6.7-1.5.3-3.5-.9-4,1.9,0,.4-1.9.5-3,.5-3.8,0-7.9.8-11.3-1.8-.4-.3-1.1-.6-1.4-.4-2,.9-2.8-.8-3.9-1.7-1-.8-2.3-1.4-3.4-2.1-.9-.6-1.8-1.3-2.7-2-.5-.4-.9-.9-1.3-1.3-.2-.1-.4-.1-.6-.2.2-.1.5-.2.7-.3,1.1-1,2.5-2-.1-2.9-.3-.1-.5-.7-.7-1.1-.9-1.8-1.7-3.6-2.6-5.3,0-.2-.3-.5-.5-.5-3.2.5-1.8-1.5-1.7-3,.2-2.8-1.7-4.6-3.8-6-1.1-.8-1.8-1.4.2-2,.4-.1.6-2.3.4-2.3-2.4-.9-1.6-3.2-1.8-4.7-.4-2.6-.2-5.2-.1-7.9,0-2.6.4-5.1.4-7.7,0-1.7-.3-3.3-.4-5,0-.6-.2-1.4,0-1.9,1.3-2.5,2.7-5,4.1-7.5.2-.3.6-.9.6-.9-1.5-1.3.4-2.1.4-3.1,0-1.4.4-1.8,1.7-1.6.2,0,.8-.7.7-1-.4-1.8.3-4,1.7-5.2.8-.7,1.9-1.3,2.1-2.2,1.1-4.5,5.4-4.9,8.4-6.9.4-.2,1.1-.5,1.1-.7,0-3.5,2.7-1.1,4-1.9,1.5-.9,3.7-.6,5.6-.6,3.3,0,6.5,0,9.8,0,.3,0,.6.1.9.2-.3,0-.7,0-.8.3-.2.2-.2.9-.2.9,1.4.5,2.9.7,4.3,1.3,1.1.5,1.9,1.4,2.8,2.2,1.4,1.3,2.9,2.7,4.1,4.2.5.6.4,1.5.7,2.3.2.5.5,1.3.9,1.4,2.1.3,3.6,2.2,3.9,4.7.1,1.3.9,2.5,1.2,3.8-.5.2-.9.2-1.2.3.3.5.7,1.1,1,1.6.3-.4.5-.9.8-1.3M380.5,331.8c.9,1.3,1,1.4,1.4.7.2-.4.3-.8.4-1.2-.6,0-1.2.2-1.8,0-1-.4-2-.9-3-1.1-.3,0-.8.5-1.2.7.4.4.8,1.1,1.2,1.1,1,0,2.1-.3,3.1-.2M388.8,322.1c1.4,1.4,2.7,2.9,4.2,4.1.5.4,1.6.6,2.2.3.9-.4,1.7-1.3,2.5-1.9.2-.2.7-.2.9-.1,2,1.8,2.3-.4,2.8-1.3.8-1.4,1.4-2.9,2-4.4,1.4-3.4,4.5-6.4,3.2-10.6-.2-.8.2-1.8.2-2.7,0-3.6.2-7.3-.2-10.9-.3-2.3-1.4-4.6-2.5-6.8-.7-1.3-1.7-2.6-2.8-3.6-2.4-2.1-5.2-2.2-8.2-1.5-4,.9-5.9,3.9-7.8,7-.1.2,0,.6,0,.9,0,1.8.3,3.6-1.8,4.7-.4.2-.5,1.2-.5,1.9,0,3.6-.2,7.2,0,10.7.1,2-1.6,4.8,1.8,5.9.3.1.5.9.5,1.4.3,2.7.6,5.4,3.1,6.9-.4.3-.8.7-1.2,1,.3.1.6.3.9.4.2-.5.4-.9.8-1.4M379.1,339.9c2.6.6,4.9.2,6.9-1.6.3-.3.8-.4,1.2-.6-.5-.3-1-.6-1.5-.8-1.2-.4-2.4-.7-3.6-1.1-.5-.2-1.1-.4-1.6-.5.3.6.6,1.3,1,1.9.1.2.5.2.8.3-.3.2-.6.3-.8.5-.8.5-1.6,1-2.4,1.9M378.4,297.4c-1,.2-2.1.3-3.1.5-.3,0-.6.4-.9.6.1.2.3.4.4.5,1.2,1,3.4.1,3.6-1.6M381.5,341.8c0,.2,0,.5,0,.7.8-.2,1.6-.3,2.4-.5.7-.1,1.3-.3,2-.5-.8-.3-1.5-.8-2.3-.8-.6,0-1.1.6-1.9,1.1M364.9,290.5c-.2,2.1,1.5.9,2.3,1.1.3,0,.7-.6,1.1-.9-.7-.3-1.4-.7-2.1-.9-.3,0-.6.3-1.2.7M378.6,285.8c-.8.5-1.5,1-2.3,1.5.9-.1,1.7-.2,2.6-.3,0,0,.2,0,.2,0,.6-.4,1.1-.9,1.7-1.4-.7,0-1.3,0-2.2.2M378.4,308.8c.8.3,1.6.7,2.4.9.1,0,.4-.4.7-.6-.4-.4-.9-1.1-1.3-1.2-.6,0-1.3.4-1.8.9M382.7,328.7c.5-1.8-1.4-.6-1.8-1.4,0-.1-.8.1-1.3.2.2.4.4,1,.7,1.1.6.2,1.3,0,2.4.1M395.5,334.9c-.5-.2-1-.3-1.4-.5,0,.4-.3.9-.2,1.1.5.5,1.1.9,1.7,1.3,0-.6.1-1.1,0-1.9M392.6,338.2c0-.6-.2-1.3-.3-1.9-.5.5-.9,1.1-1.4,1.6.5.2.9.3,1.7.3M376.5,275.1c.4-.1.8-.2,1.2-.3-.4-.4-.9-.9-1.4-1.2-.2-.1-.5,0-.8.1.2.5.3.9,1,1.4M389.8,266.6c-.6.3-1.1.6-1.7.9.2.2.4.5.5.5.8,0,1.5,0,2.3-.2-.3-.3-.6-.7-1.1-1.2M377.2,311.4c0,.5.1,1.1.2,1.6.4-.4.8-.7,1.1-1.1-.4-.3-.7-.5-1.3-.6M368.7,287.7c-.6-.2-1.1-.5-1.7-.7,0,.4-.1.7-.2,1.1.6,0,1.1,0,1.9-.4M378.2,277.3c-.7-.2-1.5-.4-2.2-.6v.6c.6,0,1.3.1,2.2,0M395,331.1c0,.5.2.9.2,1.4.3,0,.6,0,.9-.1-.2-.4-.4-.9-1.1-1.3Z"/>
    <path d="M380.1,139.4c0,.8.4,1.7.2,2.4-.7,1.6-.2,3.8-2,5-.1,0,.2,1.4.6,1.5,1.6.6,1.2,1.9,1.2,3,0,.6,0,.5-.7.4-.3,0-.9.3-.9.5,0,.5,0,1.4.2,1.6,2.1.8,2.2,2.2,1.4,4-.2.6-.3,1.5,0,2.1,1,2.1,0,3.2-1.7,4.2-.3.2-.6,1-.4,1.4.8,1.8,0,3.3-2,3.3-2,0-4-.4-6-.4-1.6,0-3.2.3-4.9.4-.3,0-.7.1-.9,0-1.4-1-2.7-.1-4.1.2-.3,0-.9-.3-.9-.4,0-1,.1-2,.1-3,0-.8-.2-1.6-.4-2.4-.2-.8-.5-1.5-.7-2.3-.2-1.1,0-1.6,1.3-1.1.4.2,1.3,0,1.6-.3.4-.4.4-1.1.4-1.7,0-.2-.9-.2-1.4-.4-.8-.2-1.5-.5-2.3-.7.3-.7.8-1.3.9-2,.2-.9.3-1.9.4-2.9,0-.2-.3-.4-.5-.5-1.2-.6-1.6-2.3-1.5-4.1.2-2.5.1-5,.1-7.6,0-2,0-3.9,0-5.9s0-1.6,0-2.4c-.1-3.8-.4-7.5-.5-11.3,0-5,0-10,0-15,0-3-.7-6-.3-8.9.3-1.9.8-3.7.4-5.6,0-.2.5-.6.8-.7.4-.1.9.1,1.2,0,.6-.3,1.2-.8,1.8-1.3-.2-.2-.3-.6-.5-.6-.8,0-1.6,0-2.3.3-.4.1-.6.7-.9,1,0-.5,0-.9-.1-1.4-.2-3.7-.4-7.4-.4-11,0-2.1-.2-4.3,1.2-6.1.1-.1.2-.5,0-.6-2.5-4.3-1-8.8-.9-13.3,0-1.6-.3-3.2-.5-4.8,0-.3-.4-.6-.3-.8,2.1-3.8-.8-8,.8-11.9.4-1-.3-2.6-.4-3.9,0-4.5-.9-9.2,1.9-13.3.4-.6,1.2-1,1.9-1.1,2.5-.3,5.1-.5,7.6-.5,2.8,0,5.6,0,8.3.6,1.4.3,2.9,2,3.4,3.4.6,1.9.2,4.1.1,6.2,0,0-.3.1-.5,0-.5,0-.9-.1-1.4-.2,0,.4,0,1.1.2,1.2,1.7,1.1,1.5,2.9,1.6,4.5.1,3.1,0,6.2,0,9.2,0,3.6.7,7.2.3,10.8-.2,1.8.5,3.9-.7,5.7-.4.6,0,1.8,0,2.8,0,.3.4.5.4.8-.2,1.6-1.3,3.9-.7,4.5,1.8,1.7.9,3.5,1.1,5.2,0,.4-.3,1.3-.5,1.4-3,.5-1,1.9-.4,2.7.7.9,1,1.4.2,2.4-.3.3-.3,1.1-.2,1.6.9,5.4,1.1,10.8.8,16.3,0,1.4.2,2.7,0,4.1-.1,1.7-.4,3.3-.4,5,0,1.1.1,2.2,0,3.1-.4-.6-.7-1.2-.9-1.7-.2.6-.4,1.2-.6,1.9.5,0,.9,0,1.4,0,.3,4.4.6,8.8.9,13.2,0,.2.1.6,0,.7-2.8,2.2-.1,4.3,0,6.4,0,2.2-.3,4.3-.5,6.6-.5.4-.9.6-1.3.9.2.2.4.4.6.6.3-.5.5-.9.8-1.4M359.4,86.3c.9,0,1.9,0,2.8,0,.3,0,.7-.7.7-.7-1.1-1.2-3.1-2.1-2-4.3-.2,0-.5,0-.7-.1-.4-.3-.7-.7-1.1-1-.4-.3-.9-.6-1.3-.9,0,.5-.3,1.1-.2,1.5.4,1.9.8,3.7,1.8,5.6M366.1,152.2c.2-.7.8-1.7.6-2.2-.8-1.2-1.8-2.2-2.9-3-.4-.3-1.4.3-2.1.5.6.5,1.2,1.2,1.9,1.3,2.2.3,1.3,1.5,1,2.6-.2.5-.2,1.1-.4,1.6.6-.2,1.2-.4,2-.8M364.2,143.2c.3.2.6.4.8.6.3-.9,1.1-2.2.7-2.6-1.2-1.5-.9-3.1-.9-4.7,0-.3-.3-.6-.5-.8-.3.2-.9.5-.9.7.5,2.2-1.8,4.6.6,6.9M358.7,102.7c.4.9.8,1.7,1.2,2.6.3-.1.9-.3.9-.4,0-.8-.3-1.6-.5-2.4,0-.3,0-.7-.2-.8-.4-.3-1-.4-1.5-.6,0,.4,0,.8,0,1.7M362,129.2c.5.6,1,1.1,1.5,1.7.3-.4.9-1,.8-1.1-.4-.5-1-.9-1.5-1.2-.2,0-.5.1-.8.7M359.7,94.6c.4-.5.8-1.1,1.2-1.6-.7,0-1.5-.2-2.2-.2.2.5.5,1.1,1,1.9M364.9,160.1c.5.6.9,1.1,1.4,1.7.2-.7.4-1.3.5-2-.6,0-1.1,0-1.9.3M377.7,87.5c.3.2.5.4.8.6.2-.8.5-1.7.6-2.5,0-.2-.4-.4-.6-.7-.1.4-.2.7-.3,1.1-.1.3-.3.6-.5,1.4M377.9,99.1c1.2,1.4,1.1-.5,1.6-.7-.2-.4-.4-.8-.5-1.2-.3.4-.6.8-.9,1.1-.1.2-.3.3-.2.7M375.3,31.5c-.6.1-1.2.2-1.8.3.3.3.7.8,1,.8.3,0,.6-.6.7-1.1M366.8,157.7c-.9,0-1.9,0-2.8,0,0,0,0,.4,0,.4.9,0,1.9,0,2.8-.5M361.6,100.3c0,.4,0,.8,0,1.2.6-.2,1.2-.4,1.9-.6-.5-.3-1-.5-1.8-.6M367.3,165.3c-.3-.6-.6-1.1-.9-1.7-.2.1-.4.2-.5.3.4.5.8,1.1,1.4,1.4M378.2,156.8l1.1.3c0-.5,0-.9.1-1.4-.4.2-.8.4-1.3,1.1M357.3,31.5c-.1.4-.2.7-.3,1.1.4,0,.8,0,1.2-.1-.2-.4-.5-.8-.9-1M378.9,91.1c0-.6,0-1.3,0-1.9,0,0-.4,0-.4,0,0,.6,0,1.3.5,1.9M378.4,94.8c-.4.3-.8.5-1.2.8,0,0,.2.4.4.6.3-.4.7-.8.8-1.4M357.8,143c0,.6.2,1.1.3,1.7.2,0,.4-.1.6-.2-.2-.6-.4-1.1-.9-1.5M377.7,68c-.2.3-.3.6-.5,1,.4,0,.8-.2,1.1-.2-.2-.3-.3-.6-.7-.7M379.1,72.3c-.2-.2-.4-.5-.6-.7-.1.3-.2.6-.4.9.3,0,.6.2.9-.2M357.3,73.7c.3.2.5.4.8.6.1-.3.3-.6.4-.8-.3,0-.7,0-1.2.2M379.4,126.6c0-.5,0-.9,0-1.4,0,0-.4,0-.4,0,0,.5,0,.9.4,1.4Z"/>
    <path d="M575,118.6c1.2.5,1.8.9,1.5,2.5-.5,3.3-.3,6.7-.6,10-.1,1.5-.6,2.9-.9,4.3-.3,1.1-.7,2.3-.9,3.4-.2,1.4.5,3.1-1.5,3.9-.4.1-.1,1.5-.4,2.1-1.9,4.1-3.6,8.4-7.4,11.4-.4.3-.5,1.8-.2,2.3.6,1,.7,1.1-.6,1.4-.9.2-1.7,1.2-2.6,1.8-3,2.3-6.6,1.9-9.9,2.3-4.5.5-9,.4-13.6.5-2.6,0-4.9-2.1-5.2-4.6,0-.5-.4-1.2-.8-1.5-2.4-1.5-4.9-2.9-6.1-5.7-.4-.9-1.6-1.3-2.4-2.1-2.8-2.7-1.8-6.1-1.4-9.2.1-1.1,2-2,3.2-3,.2-.2.9-.2.9-.4.6-3.3,4.4-5.1,4.3-8.7,0-.3.6-.9.9-.9,1.6.2,1.6-.7,1.4-1.8,0-.2,0-.4,0-.6.2.1.4.3.6.4.6.5,1.2,1,1.8,1.5.3.3,1,.6,1,.8-.2,1.4.4,1.8,1.7,1.6.2,0,.5,0,.6.2,2.4,3.6,3.5,4.7,6,6,2.2,1.1,5,0,7.1-1.2,2-1.1,2.5-2.2,2.1-4.1-.3-1.7-.9-3.3-1.4-4.9-.2-.5-.8-1.1-1.3-1.3-.9-.3-2-.2-2.8-.6-.4-.3-.4-1.4-.4-2.2,0-.3.3-.7.6-.9.3-.2.7-.3,1.1-.5-.5-.3-.9-.6-1.4-.9-.1,0-.3,0-.5,0-4.1,2.4-6.4-1-9.2-2.8-5.1-3.1-7.3-8.4-10.3-13.1-1.2-1.9-2.7-3.8-4.4-5.3-1.7-1.5-1.2-2.9-.6-4.4,1.2-2.8,2.2-5.6,2.2-8.8,0-2.6.8-5.1,1.4-7.7,0-.2.6-.5,1-.5,1.2,0,2.4,0,3.6,0,.2,0,.5-1,.3-1.3-.9-1.3-2.3-2.4-.7-4.2-.5-.3-1-.6-1.5-.8-.4-.1-.8,0-1.3,0,0-.4,0-1,.3-1.3.7-.7,1.5-1.7,2.4-1.9,2-.5,2.3-2,2.9-3.5.2-.4.5-1.1.9-1.1.8,0,1.6.1,2.4.2-.2.7-.3,1.5-.8,2-.8,1.1-2.8,1.9-.3,3.3.2.1-.4,2.3-1.1,3.2-1.2,1.6-3.1,2.7-2.6,5.1.1.6.6,1.6.8,1.6,2.7-.3.7,1.2.5,1.6-1.8,4.1-3.9,7.9-7,11.1-.5.5-.3,1.6-.5,2.4.7,0,1.4.3,2,.1.4-.1.4-1,.8-1.4.7-.8,1.6-1.5,2.2-2.4.8-1.1,1.4-2.3,2-3.4.6-1,1.1-2.9,1.7-2.9,1.4,0,2.8.8,4,1.5,1.2.7,2.1,1.8,3.2,2.6.7.5,1.6.9,2.3,1.4.8.6,1.5,1.2,2.1,1.9,1.3,1.4,2.4,2.9,3.7,4.4,1.8,2,3.7,4,5.5,6,1,1.1,1.8,2.3,2.9,3.3,2.4,2.2,4.9,4.2,7.3,6.3.8.7,1.7,1.3,2.4,2.1.5.5.7,1.3,1,1.9-.5-.4-1-.7-1.5-1.1-.4-.2-.8-.4-1.1-.6-.2.9-.7,2-.4,2.7.8,1.8,4.7,2.1,6.1.7.9-.9,2-1.6,2.9-2.4,0,1.3-.2,2.7-.3,4.2M545.6,103.1c-.2-1.5-1.3-1.4-2.2-1-1.1.5-2,1.3-3,1.9.3.3.5.6.8.8,2,1.3,3-.3,4.4-1.7M546.3,159.8c0,.3,0,.9,0,.9,1.3,0,2.5,0,3.8,0,0,0,.3-1.3,0-1.7-1.4-1.7-2.5-.4-3.8.9M530.7,102.9c.4.5.7,1.1,1.3,1.4.5.2,1.2,0,1.8-.1,0,0,0-.3,0-.4-.1-1.2-1.7-1.8-3.1-.8M528.3,99.1c.4,0,.8.1,1.2,0,.5-.2,1-.5,1.4-.8-.2-.3-.4-.9-.6-.9-.5,0-1.1.1-1.6.4-.3.2-.5.7-.4,1.3M571.7,129.2c.6.2,1.3.3,1.9.5-.1-.6-.3-1.3-.4-1.9-.5.3-1,.6-1.4,1.4M549.4,113.1c.3-1.4-.7-1.3-1.5-1.2-.5,0-.9.4-1.3.7.6.2,1.1.5,1.7.7.3.1.7.2,1.1-.2M553.2,120.7c0-.4,0-.8,0-1.2,0-.5-.2-.9-.3-1.4-.4.6-.9,1.1-1,1.7,0,.3.7.7,1.3.9M527.4,79.2c.7.1,1.4.2,2.1.3,0-.3.2-.7,0-.9-.2-.3-.8-.7-1-.7-.5.2-.9.6-1.1,1.2M532.1,137.1c.2-.3.5-.7.7-1-.2-.1-.4-.3-.6-.4-.1.4-.2.8,0,1.4Z"/>
    <path d="M508.6,137.1c-1.9,1.5-3.1-.2-4.2-1.2-1.8-1.8-3.5-3.3-6.4-2.2-.9.3-2.3-.5-3.4-.8-1.2-.3-2.5-1.1-3.6-.9-1.3.2-1.2-.2-.9-.9.5-1.2,1.2-2.4,1.6-3.6.7-2,0-2.8-2.1-2.8-.5,0-1-.5-1.6-.7-.3-.1-.7-.3-1.1-.2-.5,0-.9.4-1.3.6.4-.5.7-1.2,1.3-1.5,1.6-1,2.4-5,1.9-7.6-.5-2.6-.5-5.2-.8-7.8,3.3-1.8.8-3.6,0-5.6-.4-1.1.6-2.9-1.7-2.8.2-.3.4-.6.6-.9.2-.5.4-1.1.6-1.6-.3.2-.8.5-.9.4-.5-.3-.9-.9-1.4-1.1-1.1-.6-2.3-1-1.9-2.6,0-.3-.2-.8-.5-.9-.4-.3-.9-.4-1.3-.5.6-.2,1.2-.4,1.9-.7.3-.1.5-.3.8-.5,1.1-.6,2.1-1.9,3.4,0,.2.3,1.9-.4,2.9-.6.4,0,.9-.1,1.3-.2-.1.4-.3.8-.3,1.2,0,.4,0,.9,0,1.3.3-.1.7-.4,1-.4,1-.1,2-.2,3.1-.3.6,0,1.3.2,1.9,0,.6-.2,1.1-.7,1.7-1.1-.5-.2-1.1-.4-1.5-.8-1.1-1-2.1-2.1-3.2-3-1-.8-2.2-1.4-3.4-2.2-.7-.5-1.4-1-2.2-1.5-.4-.3-.9-.6-1.3-.9-.2.4-.6.9-.7,1.3-.3,2.2-2.3,1.8-3.5,2.4,0,0-.6-.4-.7-.7-.2-.7,0-1.5-.4-2.1-.3-.5-.9-.9-1.4-1.3-.2.7-.3,1.4-.6,2.1-.1.4-.4,1.1-.6,1.1-.5,0-1-.3-1.4-.6-.8-.9-1.5-1.9-2.3-2.8-.8-.9-1.6-1.6-2.3-2.6,1.8.2,1.3-1.1,1.3-1.9,0-.2-.7-.6-.9-.5-1.1.3-1,1-.5,1.9,0,.1,0,.3,0,.5-.3-.8-.8-1.7-.8-2.6,0-.2,1.2-.5,1.9-.8.7-.2,1.4-.4,2.1-.6.2,0,.5-.1.6,0,.3.3.6.6.9.9.2-.7.7-1.6.5-2.2-.5-1.6.6-2.8,1.5-2.7,2.9.3,4.1-2.1,6.1-3.2.4-.2.9-.5,1.3-.6.6-.2,1.6,0,1.9-.3.3-.4.4-1.6,0-1.9-.5-.4-1.6-.7-2.2-.4-1.4.5-1.4,0-1-1,0-.2-.1-.6-.2-.6-.5,0-1.1,0-1.6,0,.6-.3,1.2-.5,1.8-.9.2-.1,0-.6,0-.9,0-.4,0-.8,0-1.2-.2-1.6,2.7.9,2-1.5,0-.2,1.7-1.1,2.7-1.3,1.4-.4,2.9-.6,4.4-.8.5,0,1.2-.3,1.6-.1,2.1,1.2,4.1,1,6.3.5.7-.2,1.7.3,2.5.7.7.4,1,.8.2,1.7-1.8,1.9-1.5,2.9.4,4.7.3.3,0,1.2,0,1.9,0,1.2-.1,2.4-.3,3.7-2-.1-1.2,1.3-1.3,2.1,0,.3.6.9.8.8.4-.1,1-.6,1-.9,0-.6-.3-1.3-.4-1.9.7,0,1.4.1,2.1,0,.3,0,.8-.9.6-1.2-.2-.4-.8-.7-1.2-1,.7,0,1.4,0,2.2,0,.4.5.6.9.9,1.3,0,0,.4-.2.6-.4-.5-.3-.9-.7-1.4-1,.2-1.5.4-3,.4-4.5,0-.2-.8-.6-1.3-.6-1.3,0-1.2-.6-.8-1.4.1-.2.4-.3.5-.5.5-.7,1-1.5,1.5-2.3.7,1.1,1.8,2.2,2,3.4.3,2.1,0,4.3,0,6.5,0,8.8,0,17.6,0,26.5,0,1.4.4,2.9.6,4.3,0,.1-.7.5-1,.5-.6,0-1.2,0-1.8-.1.4-.3,1.1-.6,1.2-1,.2-.9.2-1.8.2-2.7-.6.3-1.2.5-1.7.9-.6.5-1.3,1-1.7,1.7-.5.8-1.2,1.6.5,2.4,1.3.6,2.3,2.1,3.3,3.2,0,0-.3.7-.5,1-1.8,1.9-1.6,3,.6,4.2.5.3.8.8,1.2,1.1-.7.2-1.5.6-2.2.6-.6,0-1.2-.7-1.8-.7-1,0-2.5-.6-2.2,1.5,0,.3,0,.6-.3.8-1,1.1-1,1.1.2,1.9.2.2.4.5.5.7-2.1.7-.4,2.3-.8,3.5-.5,1.4,1.1,2.3,2.4,1.5.9-.6,1.5-1.7,2.2-2.6.9-1,.5-1.3-.6-1.2-1.4.1-1.8-.3-.9-1.6,0-.1,0-.3.1-.4.4-.8.8-1.5,1.2-2.3.2.9.5,1.7.7,2.6,0,.4,0,.9.2,1.1,2.3,1.7.1,2.9-.3,4.3-.3.8-.8,1.7-.7,2.5.3,1.7,1,3.3,1.3,5,0,.5-.8,1-1.1,1.6-.5,1.2.1,3.4-2.5,2.9,0,.3,0,.6,0,.8.1.3.2.7.5,1,1.9,1.7,1.5,3.1-.5,4.2-.6-.4-1.1-.6-1.6-.8,0,0-.2.2-.3.3.4.2.9.4,1.3.6.1,0,.3,0,.5,0M507.4,81.1c-.7.3-1.4.6-2.1.9.2.3.4.8.6.9,2.5.5.4,1.8.3,2.6,0,.5-1,1-1.4,1.5-.4.5-.7,1.1-1,1.7.6.3,1.3.8,1.9.8,1.4,0,1.6.6,1.5,1.9-.1,1,.5,2.2,1,3.1.1.2,1.3,0,2-.3.2,0,.4-.5.6-.8-2.4-.8-1-2-.4-3.2.1-.3,0-1-.1-1.1-3.7-1.7-.5-4.1-.6-6.2,0-.7.3-1.4.4-2.1-.8,0-1.5,0-2.7.1M487.7,72.3c0-1,.2-2,.3-3-.8.3-1.6.6-2.4.9-.3.1-.7.5-.7.8-.1,1.3-1.9,2.4-.5,3.9-.3.1-.6.4-.9.4-.5,0-1.3-.2-1.6,0-.6.5-.9,1.3-1.3,2,.5.1,1.2.5,1.4.3,1.9-1.6,1.2.2,1.5,1,.3.6,1.4,1.5,1.7,1.3.7-.3,2.2.2,2.1-1.7-.2-1.8.2-3.7.4-6M497.2,87c.3.2.7.5,1,.5.9-.2,1.7-.5,2.6-.7-.4-1.1-.7-2.2-1.1-3.3-.8.4-1.8.5-2.3,1.1-.4.5-.3,1.4-.2,2.4M501.5,110.7c-.3.5-.5,1.1-.8,1.6,1.1.2,2.3.6,3.3.4.7-.2,1.2-1.3,1.7-2,.1-.2-.3-.9-.4-.9-.9,0-1.7,0-2.6.2-.3,0-.7.3-1.2.7M498.4,97.2c-1,0-2.3-.2-2,1.3,0,.5,1.5.8,2.3,1,.2,0,.5-.3.7-.4.4-.3.9-.5,1.1-.9.1-.4-.2-1-.3-1.4-.5.2-1.1.5-1.8.5M499.8,83c.7-.4,1.7-.6,2-1.2.3-.6-.2-1.5-.4-2.3,0-.2-.6-.4-.7-.3-.9,1-2.6,1.7-1,3.8M500.3,74.4c-.2.2-.3.4-.5.5-.9.5-1.7,1.1-.6,2.1.4.4,1,.5,1.5.7.2-.8.5-1.6.6-2.4,0-.3-.3-.6-.9-1M501.5,123.1c.2-1.2-.3-2.1-1.5-2-.3,0-.6,1.2-.9,1.8.8.2,1.6.5,2.4.2M497.5,115.2c1,.3,1.9.6,2.9.9,0-.5,0-1.4,0-1.4-1,0-1.9,0-2.9,0,0,0-.1.1,0,.4M498.9,65.9c-.6,0-1.3,0-1.9,0-.3,0-.6.5-.7.8,0,.3,0,.8.2,1,.5.4,2.7-1.1,2.4-1.8M494.4,62.8l-.3,1.1c.7,0,1.4,0,2-.1.2,0,0-1,0-1.5-.5,0-1.1.2-1.9.5M505.3,76.6c.6.4,1.2.7,1.8,1.1.2-.4.4-.8.6-1.1-.7,0-1.4-.1-2.3,0M491.5,74.2c0,.7,0,1.4,0,2.1,0,.2.4.3.6.5.1-.5.4-1.1.3-1.6-.1-.5.9-1.9-.9-1M506.2,74.7c.5-.2,1.1-.4,1.4-.8.1-.2-.4-.9-.6-1.3-.3.5-.5,1.1-.8,2.1M486.1,93.4c-.6.1-1.1.2-1.7.4.2.3.4.6.6.9.4-.4.9-.7,1.1-1.3Z"/>
    <path d="M272.9,263.3c2.4,1.4,4.7.4,7,.5,4.3,0,4.4.1,4.4,4.5s0,10.1,0,15.2c0,.7.4,2,.8,2.1,2,.5,1.2,1.1.4,2.1-.6.7-1.1,1.8-1.2,2.8-.1,4.1-.4,8.3,0,12.4.3,3.4-.2,6.7.2,10.2.6,4.5-.2,9.2-.3,13.8,0,2.9.4,5.8.4,8.7,0,2.8-.3,5.6-.4,8.3,0,.5,0,1,0,1.4,0,.9.5,2.3.2,2.5-1.8.9-2.3,3.5-5.1,3.1-3.2-.5-6.5-.4-9.7-.5-1.7,0-1.9-1.4-1.9-2.5-.2-5.5-.3-11.1-.6-16.6,0-.9-.6-2.4-1.1-2.5-2.5-.4-.4-1.2-.1-1.4,1.3-1.5,2.7-7,1.6-8.5-.8-1.1-.2-2-.2-2.8-.1-5.6.4-11.3-.3-16.8-.3-2.2.8-4,.3-6.2-.5-2.4-.3-5,0-7.6.4-4.8.3-9.6-.4-14.4-.3-1.7.2-3.5.5-5.2,0-.5.8-1,1.3-1.2,1.3-.4,2.7-.7,4.3-1M281.9,291c.6,0,1.3-.1,1.9-.2-.2-.5-.4-.9-.6-1.4-.4.4-.8.7-1.3,1.6M274.7,292.4c.3.4.6.8.9,1.2,0,0,.3-.2.5-.3-.4-.4-.8-.8-1.4-.9Z"/>
    <path d="M296.5,9.8c.4-1.2,0-2.7,1.9-2.9.2,0,.4-.3.5-.5,1-1.9,2.4-2.2,4.4-2,3.4.3,6.8.2,10.2.3,1,0,2,0,2.9,0,2.2-.1,4.4-.2,6.5-.5,1.5-.2,2.6.6,2.7,2.1,0,.4.6.9,1.1,1.1,1.4.7,1.7,2.2.7,3.2-2.6,2.8-5.1,5.7-7.5,8.7-2.3,2.9-4.2,6-6.4,8.9-.2.3-.8.3-1.2.6-.5.3-1.4.9-1.4,1.1.9,2.4-1.4,3.4-2.1,5-.6,1.3-2,3-3.3,3.2-1.9.4-1.7,1.2-1.9,2.5,0,.8-.5,1.9-1.1,2.3-2,1.2-3,3.8-6.4,3.3-3.6-.5-7.3.4-11,.5-3.6.1-5.8-3.3-4.1-6.5.9-1.6.5-4.2,3.2-4.6,0,0,0-.7.1-1.1.4-1.4.8-2.8,1.4-4.2.8-1.8,1.3-3.7,3-5.3.6-.6.7-2.8,1.8-4,1.1-1.2,2.7-2.2,1.5-4.2,0-.1.2-.7.4-.7,2.1-.6,1.5-2.4,2.1-3.8.4-1,1.4-1.8,2.2-2.8M283.5,38.9c.2.6.3,1.3.5,1.9.4-.4.8-.9,1.2-1.3-.4-.2-.8-.4-1.7-.6M326.7,8c-.2.6-.4,1.2-.6,1.8.3,0,.6,0,.9.1,0-.6.1-1.3-.2-1.9Z"/>
    <path d="M481.2,30.9c-.1.8,0,1.4-.1,2,0,.2-.3.7-.4.7-3.3-.7-3.1,2.5-3.8,3.9-1.5,3-3.5,4.7-6.8,5.2-2.2.3-4.4.8-6.6,1.1-.4,0-.8,0-1.1-.2-.7-.4-1.1-1-1.9.3-.7,1.1-4.4-.6-4.5-2.2-.1-2.2.3-4.1,1.4-6.3,1.1-2.1,2.7-4.2,3.2-6.7.5-2.8,2-5,3.7-7.2,1.2-1.6,1.7-3.7,2.5-5.6.5-1.1.5-2.6,2.2-2.8.2,0,.4-.7.6-1.1.7-1.1,1.4-2.3,2.1-3.4.3-.5.7-1,.7-1.6.2-1.3-.6-3,1.9-3,.2,0,.6-1.1.5-1.6-.1-1.7.6-1.7,1.9-1.3,3.9,1.3,7.7,1.2,11.4-.7,1.1-.6,1.8-.7,2.7.5,1.1,1.6,2.9,1,4.4.6,1-.2,2.1-.5,1.4,1.2,0,.2,0,.6.1.9.3-.1.5-.3.8-.4.1,0,.3,0,.5-.1,0,1.6.4,3.4-.2,4.7-.8,1.8-2.4,3.3-3.6,4.9,0,0,0,.2,0,.2-1.9.5-1.8,2.1-2.3,3.6-.5,1.5-2.2,2.6-3.4,3.8-.2.2-.7.4-.7.5.7,2.9-3.2,3.5-3.1,6.1-2.4.2-.9,3.9-3.7,3.9M468.3,33.9c0-.6,0-1.3,0-1.9,0-.3-.4-.5-.6-.7-.8.7-1.6,1.3-2.2,2-.2.2,0,.7,0,1.1.8,0,1.7-.2,2.8-.5M472.8,14.7c.4-.1,1.2-.2,1.2-.4.2-1,.4-2.1.4-3.2,0-.3-.8-.5-1.3-.7,0,0-.5.6-.5.9,0,1,0,2,.2,3.3M473.5,32.9c0,.7-.1,1.4,0,2.1,0,.2.8.3,1.2.5,0-.7.2-1.5.1-2.2,0-.2-.7-.4-1.4-.3M479.7,10.2c.3.2.5.4.8.7.2-.3.4-.5.6-.8-.4,0-.7,0-1.3.1Z"/>
    <path d="M76.8,34.7c1.8-1.5,1.9-3.5,2-5.6.1-2.1.4-4.2,2.9-5,.4-.1.9-.7.8-.9-.5-3.5,3.1-3.2,4.6-4.6,1.2-1,3.5-.8,5.3-1.1.7-.1,1.5-.3,2.2-.5.2,0,.7-.3.7-.3,1,1.5,2,3.1,3,4.6,1.1,1.5,2.1,3.1,3.3,4.5,1.5,1.6,2.5,3.2,1.9,5.5,0,.3.3.9.4.9,2.1-.3,1.4,1.2,1.5,2.2.2,1.9.4,3.8.4,5.7,0,.8-.3,1.8-.7,2.5-.7,1.2-1.8,2.1-.7,3.6.2.2,0,.8-.2,1.1-2.7,3.5-4.3,8.2-9.5,9.2-1.6.3-2.8.7-4.2-.5-.8-.7-2.2-.7-3.3-1.1-.4-.1-1.1-.1-1.2-.4-.9-2.1-3.1-3-4.4-4.9-1.9-2.9-2.5-6.1-4-9-.1-.2.1-.9.4-1,1-.5,2.2-.8,3.2-1.3.7-.3,2.4.9,1.9-.9-.2-1-1.5-1.9-2.6-2.3-1-.4-2.3-.2-3.6-.4M94,36.7c0-.7.2-1.4.3-2.1-.7.3-1.5.5-2.2.8-.3.2-.6.5-.9.8-.3.4-.6.8-.9,1.2.6.2,1.1.6,1.7.5.6,0,1.2-.6,2-1.1M84.8,45.5c-.6-1.5-1.1-3-1.7-4.5,0-.1-.5,0-.8,0,0,1.2-.3,2.5,0,3.7,0,.4,1.3.6,2.5.9M87.8,36.3c-.6,1.1-1.3,2.1-1.9,3.2,0,0,.3.4.4.4.5,0,1-.2,1.5-.3-.7-1.1,2-1.9,0-3.2M93.8,55.5c.2-.4.7-.7.7-1.1,0-.4-.4-1.2-.6-1.3-.7-.1-1.4.1-2.1.2.4.5.8,1.1,1.2,1.6.1.2.3.3,1,.5M81.4,34.6c.4,0,.8-.1,1.2-.2-.5-.7-1.1-1.5-1.6-2.1,0,0-.7.2-.7.2.2.7.4,1.4,1.2,2.1M87.1,28.4c0,.4-.2.8-.3,1.1.5,0,.9,0,1.4.1-.2-.4-.4-.8-1.1-1.3Z"/>
    <path d="M453.9,332.2c1.3,1.4,1.7,3,1.6,4.7,0,.9.3,1.9.4,2.9,0,.4,0,1-.2,1.2-1.6.8-.8,1.9-.2,2.8.4.6,1.1,1,1.7,1.5-.8.6-1.4,1.4-2.3,1.8-2.2.9-4.6,1.6-6.9,2.2-2.5.6-4.9,1-6.9-1.3-.1-.1-.4-.2-.6-.1-3.2,0-5-2.3-7-4.2-1.7-1.7-3.9-3.1-3.2-6,0-.2,0-.5-.2-.6-2.8-1.9-1.9-4.6-1.8-7.3,0-1.2.3-1.5,1.5-1.4.5,0,1-.2,1.4-.3-1-2,1.7-3.3,1.1-5.3,0,0,.2-.2.3-.3-.4-.1-.9-.2-1.3-.3.2-.2.5-.4.7-.5.4-.2,1,0,1.3-.4.8-.9,1.9-1.9,2-2.9.2-1.7.9-1.9,2.3-1.8.6,0,1.3,0,1.9,0,1.3-.2,1.8.2,1.7,1.6-.1,1.2-.4,2.5,1.7,2.3,1.2-.1,1.5.9.7,2-.1.2-.1.4,0,.7.1,1.1,4.3,3,5.2,2.5.3-.2.9-.6.9-.7-.9-2.1,1.1-1.7,1.9-2.1.5-.2,1.3.4,1.9.6-.2.3-.4.7-.5,1,0,.4-.2.9,0,1.3.4,1,1,1.8,1.3,2.8.2.6,1,1.8-.7,1.8,0,.6.1,1.3.3,2M450.7,344.1c-.1-.3-.2-.7-.3-.8-.6-.2-1.2-.4-1.8-.4-.2,0-.5.5-.7.8.6.2,1.1.4,1.7.6.3,0,.6,0,1.2-.2Z"/>
    <path d="M280,258.5c-.6.6-3.1,2.4-3.8,2.3-1-.1-2.3-.2-2.9-.9-1.5-1.7-3.3-3.3-3.3-6,0-.6-.8-1.1-1.3-1.7-.5-.6-1.1-1.1-1.5-1.8-.6-1-1-2.1-1.4-3.2-.2-.5-.5-1-.5-1.4,0-2.7,0-5.4,0-8.1,0-.4.5-.8.8-1.3.2-.5.7-1.2.6-1.3-1.7-1.6.6-2,.9-2.9.5-1.1,1.6-1.8,2.5-2.7,2.4-2.2,5.3-3.1,8.5-3,.5,0,1,.3,1.4.7,1.1,1,2.1,2.1,3.2,3.1.3.3,1.4.9-.2.9-.2,0-.4.6-.6.9.2,0,.5,0,.7,0,.4,0,1.1-.3,1.1-.3.3.8,1,2.3.8,2.5-1.3,1,0,1.5.4,1.9,2.3,2.4,3.1,4.7,1.5,8.1-.9,1.7-1.2,3.7-2.4,5.5-.7,1.1-.4,2.9-.5,4.4,0,.2.1.4.2.7-.2,0-.3,0-.5,0-1.3-.5-1.4-.4-1.7.9-.2.9-.6,1.8-1,2.7-.2,0-.4-.2-.9-.3M280.7,232.4c-.4.4-1,.6-1.1,1.1-.1.3.3,1.2.4,1.2.6-.1,1.2-.4,1.8-.6-.2-.6-.4-1.2-1.1-1.7Z"/>
    <path d="M447.4,311.1c-1.5,0-2.9,0-4.4,0-.1,0-.3-.2-.3-.3.4-2.5-1.9-3.2-3-4.7-1.7-2.3-3.5-4.5-5-7-1.4-2.2-2.7-4.5-3.5-6.9-.6-1.7-.2-3.7-.4-5.6,0-.5-.2-1-.3-1.5-.5.2-1.1.5-1.6.8-.3.2-.5.6-.9.8-.2.2-.5.2-.8.3.1-.3.2-.6.4-.8.5-.5.9-1.1,1.5-1.5.5-.4,1.6-.6,1.6-.8-.1-1.1,1-2.9-1.4-3-.1,0-.3-.1-.4-.2.2,0,.4-.3.5-.3,1.3.4,2.6.9,3.9,1.4,0,0,.1.4,0,.5-1.5,2.4-1.3,3.4.8,5.1.2.2.7.2.8.4,1.3,4.4,5.3,9,9.4,10.8.2,0,.4.4.3.5-.6,2,.2,3.5,1.7,4.9.5.5.6,1.4,1.1,1.9.8,1,.9,1.3-.5.8-.3,0-.9.2-.9.3,0,1,0,2,.3,3,.1.5.7.8,1.1,1.3Z"/>
    <path d="M432.7,98.6c-.5.2-1,.4-1.6.4-1.3,0-2.2.3-1.5,1.9,0,0,.2.1.2.2-1.2,2-1.6,3.5,1.7,2.7,0,0,.3.6.2.8-.2.3-.6.5-.9.6-.6.3-1.2.5-1.8.7.4.4.8.7,1.1,1.2.2.3.6.8.5,1-.3.5-.9.9-1.3,1.4-.3-.3-.5-.6-.8-.9-2.1-2.2-1.4-4.5-.5-6.9.3-.7.5-1.5.4-2.2-.3-2.3-.3-4.4,1.4-6.5.3-.4.8-1.7,1.1-2.7.5-1.5,1-3.1,1.7-4.5,1.4-3.3,3-6.5,4.5-9.8.2-.4.7-1,.8-.9.5.2,1,.6,1.5.9-.3.2-.8.4-1,.7-.4.6-.9,1.3-.8,1.9,0,.5.8,1,1.3,1.4.2.2.6.1.9.2-.2.3-.4.7-.7.8-1.4.4-1.3,1.6-1.7,2.7-.9,2.7-.8,5.1,0,7.9.7,2.8-1.6,5.9-4.5,6.9,0-.5,0-.9,0-1.3l-1.5.8c.5.2.9.4,1.4.6Z"/>
    <path d="M435.9,277.8c-.8-.4-1.4-1-2.1-1.3-.8-.3-2.3,0-2.4-.3-.4-1.4-.4-2.8-.6-4.3,0-.1.4-.4.5-.4,1.7.9,1.8-.4,1.8-1.5,0-1.5-.2-3.1,1.8-3.8.4-.1.4-1.4.6-2,.2-.5.6-.8.9-1.3.3.3.6.6,1,.9,2.4,1.4,2.3,4,2.7,6.2.1.6-.8,1.7-1.5,2.1-1.3.7-1.9,1.1-.4,2.2.3.2.4.9.6,1.4-.4,0-.9,0-1.3-.2-2-.4-1.5,1.1-1.7,2.3Z"/>
    <path d="M520.5,74.9c2.1,1.9.3,4.1.3,6.1,0,2.2-.3,4.5-.6,6.7,0,.6-.5,1.2-.8,1.8-.3-.4-.6-.7-.8-1.1-.5-.7-.9-2-2.2-.7-.3.2-1,0-1.5-.1.3-.5.5-1.1.9-1.4.5-.4,1.2-.5,1.8-.8,1.5-.6,2.7-3.7,1.9-4.9-.1-.2-.7-.2-.9,0-.5.3-.8.8-1.2,1.1-.8.5-1.6.9-2.4,1.4.2-1.1.3-2.4.8-3.4,1-1.9,1.5-3.8.5-5.8-.1-.3,0-.7,0-1,.6-1.6,1.3-3.1,1.9-4.7.1-.3.2-.7.4-1,0,.5.2,1,.2,1.5,0,1,0,1.9-.2,3-1.4,1.5-1,3.8.6,4.6,1.5.8,1.5,0,1.5-1.2Z"/>
    <path d="M562.8,105.2c-1.3-1-2.6-1.8-3.8-2.6,1.4.3,2.9.6,4.3.9,3.8.8,6.2,4,9.5,5.7.2.1.3.9.2,1.3-.2.5-.6,1-1,1.5-.3.4-.8.7-1.2,1,0,0-.5-.3-.5-.3.2-.5.5-1,.7-1.6.1-.3.2-.8,0-.9-1.6-1.1-3.1-2.3-4.8-3.2-1.1-.6-2.3-1-3.5-1.6Z"/>
    <path d="M511,143.7c-1.9-1.7-1.6-3.2.6-4.1.2,0,1.1.7,1.2,1.2.3.9.2,1.9.2,2.8,0,.2,0,.3,0,.5-.6-.2-1.3-.3-2.2-.5Z"/>
    <path d="M383.9,165.1c2.4-.6,2.4-.5,1.9,1.7-.1.7.3,1.5.3,2.2,0,.4-.3,1-.6,1.2-.2.2-.8,0-1.2-.3,0,0,.2-.6.2-.9-.2-1.2-.4-2.5-.6-3.9Z"/>
    <path d="M519.2,65.8c-.8-.5-1.4-.8-2.1-1.1-.4-.2-.8-.4-1.1-.7.5-.5.9-1.2,1.5-1.3.4-.1,1.3.4,1.5.9.3.7,1.6,1.4.2,2.2Z"/>
    <path d="M480.8,65.3c.6.9,1.1,1.7,1.6,2.6,0,0-.3.4-.3.4-.8-.5-1.6-.9-2.3-1.5-.2-.2,0-.7,0-1.1,0-.8,0-1.7.1-2.5.3.7.5,1.4.9,2.2Z"/>
    <path d="M512.4,148.5c-.2.9-.4,1.7-.6,2.4-.4-.2-1.1-.4-1.3-.8-.2-.5-.3-1.6,0-1.7.5-.3,1.3-.1,1.9,0Z"/>
    <path d="M382.6,162.1c0-.5,0-1.1.2-1.4.5-.4,1.1-.6,1.7-.9,0,.6.1,1.3-.2,1.6-.3.4-1,.5-1.7.6Z"/>
    <path d="M111.7,289.2c-.1-1.2-.1-2.3-.1-3.4,0-.4.2-.7.3-1.1.2.4.6.8.6,1.2-.1,1.2-.4,2.3-.8,3.4Z"/>
    <path d="M541.2,68.2c-.3.3-.6.5-.8.8-.2.4-.4.8-.6,1.2-.1-.5-.5-1-.4-1.3.4-.7,1-1.3,1.5-2,.1.4.2.8.2,1.3Z"/>
    <path d="M424.7,271.3c.5.2,1,.5,1.4,1,0,0-.4.6-.6.9-.3-.6-.5-1.1-.8-1.9Z"/>
    <path d="M447.4,311.3c.4.5.9,1.1,1.3,1.7-.9,0-1.8,0-2.8,0-.1,0-.3-.1-.4-.2.2,0,.4-.2.5-.3.5-.4.9-.8,1.3-1.3Z"/>
    <path d="M263.2,252.5c.2-.4.5-1,.9-1,.3,0,.7.5,1,.8-.6.1-1.2.2-1.9.2Z"/>
    <path d="M518.6,71.6c2.1.1,1.4,2,1.8,3.2-.7-1-1.2-2.1-1.8-3.2Z"/>
    <path d="M523.7,104.2c-.5.1-.9.2-1.3.2.2-.6.4-1.2.6-1.9.3.5.5,1,.7,1.7Z"/>
    <path d="M206.4,104.3c0-.3,0-.4.2-.4.5-.3,1.1-.6,1.6-.9,0,.3,0,.7,0,.8-.5.3-1.1.5-1.7.6Z"/>
    <path d="M450.6,317.7c-.5-.2-1-.6-1.3-1,0-.1.1-.5.2-.8.4.5.8,1.1,1,1.8Z"/>
    <path d="M110.6,291.2c.8,0,1.3,0,1.8.1-.6.1-1.2.3-1.8.3-.5,0-1-.3-1.4-.5.4,0,.8,0,1.4,0Z"/>
    <path d="M525.2,73.5c.6.1,1,.2,1.4.3-.5.4-.9.7-1.4,1.1,0-.5-.1-.9,0-1.4Z"/>
    <path d="M331.2,58.3c.1-.4.5-.9.8-1.3.3.3.7.7,1,1-.5.1-1,.2-1.8.3Z"/>
    <path d="M447,322.6c-.3.2-.7.2-1,.2,0-.2,0-.6,0-.6.4-.2.8-.3,1.2-.5,0,.2-.2.4-.3.9Z"/>
    <path d="M575.5,106.2c-.7.1-1.5,0-2.2,0,0,0,0-.2,0-.3.7,0,1.5.1,2.2.4Z"/>
    <path d="M427.4,110.9c-.3.7-.4,1.4-.6,2,0-.1-.2-.2-.2-.3,0-.8,0-1.5,0-2.3.3.2.6.3.8.6Z"/>
    <path d="M91.2,165.5c-.7-.2-1.4-.3-2.2-.5.6-.3,1.3-.6,2-.8.1.5.1.9.1,1.3Z"/>
    <path d="M366.3,276.1c.7,0,1.1-.1,1.5-.1,0,0,.2.3.3.5-.7,0-1.3,0-2,.1,0,0-.2-.1-.2-.1,0-.1,0-.2.4-.3Z"/>
    <path d="M308.1,58.2c-.4,0-1,0-1.5,0,0-.2,0-.4,0-.6.4.2.9.4,1.4.7Z"/>
    <path d="M189.4,172.2c-.7,0-1.2,0-1.6,0-.2,0-.5-.2-.7-.3.2,0,.5-.2.6-.2.5.7,1.7-1.5,1.7.5Z"/>
    <path d="M30.9,76.3c.2.5.2.9.3,1.4-.3-.1-.6-.3-.9-.4.2-.3.3-.6.7-1Z"/>
    <path d="M207.3,228c-.1-.2-.1-.5,0-.9.3,0,.7,0,1,0-.3.2-.5.4-.9.8Z"/>
    <path d="M363.6,170.9c.6-.2,1.2-.3,1.7-.5,0,.2,0,.4,0,.6-.6,0-1.2,0-1.7-.2Z"/>
    <path d="M126.9,132.3c.6-.2,1.3-.3,2.1-.5.2,0,.4.1.6.2-.2,0-.5.2-.7.3-.6,0-1.2,0-2,0Z"/>
    <path d="M248.5,117c0-.4,0-1,0-1.5,0,0,.3,0,.5,0-.2.5-.3,1-.6,1.6Z"/>
    <path d="M202,329.8c-.3.2-.6.3-1,.4,0-.3,0-.6,0-.9.3.2.6.3,1.1.6Z"/>
    <path d="M519.7,94c.6.2,1.1.4,1.7.7-.6-.2-1.2-.4-1.7-.7Z"/>
    <path d="M290.4,174.5c-.4-.1-.7-.2-.9-.3.5,0,1-.1,1.6-.1.2,0,.4.2.6.3-.4,0-.7.1-1.3.2Z"/>
    <path d="M312.7,268c-.3,0-.6-.3-.9-.5.1-.1.3-.3.4-.4.2.2.4.5.6.9Z"/>
    <path d="M325.9,55.6c.4.4.7.8,1,1.1-.2,0-.6.2-.6.2-.2-.5-.4-.9-.4-1.3Z"/>
    <path d="M349.7,49.8c.2.3.2.6.2.9-.4-.2-.7-.4-1.1-.6.2-.1.4-.2.9-.3Z"/>
    <path d="M169.9,285.6c-.2-.4-.3-1-.5-1.7,0,0,.2,0,.3-.1,0,.5,0,1,.1,1.8Z"/>
    <path d="M295.1,96.3c-.7.2-1.2.3-1.6.5,0-.2,0-.4,0-.5.6-.2,1.2-.3,1.9-.5,0,0,.2.1.2.1,0,.1,0,.2-.4.3Z"/>
    <path d="M212.6,270.5c0-.1.2-.1.2-.1.1.5.2,1.1.2,1.6,0,0-.5.1-.8.2,0-.5.2-1.1.3-1.7Z"/>
    <path d="M137.3,287.3c-.9-.3-1.7-.4-2.5-.6.7-.2,1.4-.5,2.1-.6.5,0,1.1.1,1.7.2-.4.4-.8.7-1.3,1Z"/>
  </g>
</svg>