<?xml version="1.0" encoding="UTF-8"?>
<svg id="Layer_1" xmlns="http://www.w3.org/2000/svg" version="1.1" viewBox="0 0 668.5 202.2">
  <!-- Generator: Adobe Illustrator 29.3.1, SVG Export Plug-In . SVG Version: 2.1.0 Build 151)  -->
  <g id="Shape_74">
    <path d="M105.6,190.1c.4-1.4,1.2-3.2-1.6-1.7-.7.3-1.7,0-2.6,0-.1-.3-.2-.5-.1-.7.3-1.4.6-2.7.9-4.1-.2,0-.7,0-.7,0-.6,1.4-1.6,2.9-1.8,4.4-.3,2.2,1,.4,1.6.4.3,1.1,1.1,2.5.8,3.2-.7,1.3-1.7,2.2.3,3.1-.7.2-1.4.6-2.1.6-2.2,0-4.4-.4-6.6-.2-2.4.3-4.7,1.1-7,1.6-1.4.3-2.8.3-2.3-1.9-.5,0-1.2-.3-1.5,0-1,.8-2,2.3-2.4-.4,0-.2-.7-.3-1.1-.3,0,0-.3.4-.3.4,2,2.3-.8,1.2-1,1.1-1.8-.2-3.8.9-5.3-1-.5.4-2.1-1-1.8,1-.6-.2-1.5-.1-1.8-.6-1.6-2.3-3.4-1.4-5.3-.5-.3.2-.8.1-1.2.2.1-.3.2-.6.3-1,.1-.4.4-1,.3-1.1-3.5-2.5-2.1-7.3-4.8-10.1-.6-.6-.9-1.5-1.4-2.2-1.2-1.5-2.5-2.8-3.7-4.3-1-1.1-1.7-2.9-3.7-1.3-.2.2-.7,0-1-.1.3-.2.5-.5.8-.6,1.6-.4,1.3-1.4.6-2.2-.8-.8-2-1.3-2.9-2-.5-.4-2.3-.7-.2-1.6.9-.4,1.2-1.1,0-1.8-.9-.5-1.8-1.2-2.4-2.1-3.2-4.7-6.2-9.5-9.4-14.2-.5-.7-1.9-.8-2.9-1.1,0,.8-.2,1.7-.1,2.5.2,3.9.3,7.9.5,11.8.3,5.7,1,11.3,1,17,0,3.2-1,6.4-1.5,9.6,0,.6,0,1.3.3,1.9.1.4.5.6.7.9-.4.2-1.1.8-1.3.6-1.5-.8-2.6-.6-3.8.6-.3.3-1.2.1-1.9,0-3.9-.2-7.7-.3-11.6-.6-.7,0-1.9-.3-2.1-.8-.5-1.3-.8-1.1-1.3,0,0,.1-.2.1-.4.2,1.1-2.2-2.2-2.2-2.1-4.5.2-3.2-1.1-6.5-1.8-9.8-.1-.6-.7-1.3-.6-1.9,1.8-6.1.2-12.2.3-18.3.1-9.2-.6-18.4-1-27.6-.1-3.6.2-7.3-.7-10.7-.8-3.4-.1-6.5-.4-9.8,0-1.2,0-2.3-1.5-2.7-.2,0-.5-.8-.4-.9,1.4-1.7,1.6-4.2,1.1-6.7-.4-1.9-.2-4-.3-6-.3-5-.6-9.9-.9-14.8,0-.4-.2-.9-.2-1.3-.2-7.1-.4-14.1-.6-21.2-.2-6-.3-12-.6-18-.1-2.7-.7-5.4-1.1-8.1-.5-3.8,1.4-5.9,5.4-5.8,4.2,0,8.5,0,12.7,0,1.5,0,2.9.4,4.4.7,3.3.8,3.9,3.7,4.4,6.3.6,3,.5,6.1.6,9.2.2,6.2.4,12.4.6,18.6,0,2.5-.1,5,0,7.5.4,6.8.9,13.6,1.3,20.3.1,2.2.2,4.4.3,6.6.2,3.3.4,6.6.5,9.9,0,1.8,1.2,1.7,2.4,1.6,1.1,0,2.5.3,2.5-1.5,0-1.7,0-3.3,1.9-4.2.2-.1-.9-2.3-.6-3.4.2-1,2.1,1.7,2.8-.6.3-1,1.7-1.6,2.4-2.5.9-1.2,1.6-2.6,2.3-4,.2-.3-.1-1.3-.4-1.4-3-1.1,0-1.6.3-2.2.6-1.1,1.6-2,2.3-3.1.6-.9.4-2.6,2.2-2.6.2,0,.5-.9.6-1.3,0-.4,0-1.3,0-1.3,4-.2,2.1-5.2,5-6.2,1.5-.5,3-1.7,4.5-1.7,3.9,0,7.8.4,11.7.4,4.3,0,8.7.2,13,0,2.9-.2,3.6,1.9,4.1,3.6.5,1.7.7,3.6-1.4,5.4-3.1,2.7-6.6,5.7-6.1,10.8,0,.7-.9,1.5-1.5,2.2-.3.4-1.2,1-1.1,1.2,1.6,2.7-1.6,2.8-2.3,4.1-1.1,1.9-2.8,3.4-3.7,5.3-1.3,2.8-3,5.1-5.3,7.1-.9.9-1.3,2.4-2,3.5-2.2,3.5-4.5,6.9-6.6,10.5-1.4,2.3-2.5,4.6-3.7,7-.1.2,0,.6.1.9,2.8-1,1.8,1.8,2.6,2.7,1.1,1.3,1.7,2.9,2.6,4.4.7,1.1,1.3,2.5,2.3,3.1,3,1.9,3.9,5.1,5.6,7.9.1.2.2.6.3.7,3.2,2,5.1,5.3,7.3,8.2,2.3,3.1,3.8,6.9,6,10.1,2,2.8,4.5,5.3,6.7,8,2.4,2.9,4.5,6,6.8,9,.5.6,1.2,1,1.8,1.5.2-.6.4-1.3.4-1.9,0-3.9-.1-7.7-1-11.6-.3-1.6.4-3.4.4-5.1,0-4.4,0-8.9,0-13.3,0-.5-.3-1-.5-1.4-.5-1.2-1.7-2.2,0-3.5.3-.3,0-1.4,0-2.1-.5.2-1,.5-1.5.7-.2,0-.4,0-.6,0,0-.6,0-1.6.3-1.8,3.7-2.2,1.5-5.7,1.8-8.5.3-2.6-.2-5.3-.5-8-.2-2.1-.7-4.1-.9-6.2-.1-2.2,0-4.3,0-6.5,0-2.5,1.5-5.3-2.1-6.6-.2,0-.3-.9-.1-1,3.1-2.3,2.6-5.3,2-8.6-.4-2.4,0-5-.1-7.5,0-2.7-.2-5.4-.6-8.1-.5-3.5,1.2-7-.4-10.7-1-2.4,3.3-5.4,6-5,2.6.4,5.3.2,8,.2,3.6,0,7.1-.2,10.7-.3.1,0,.3,0,.4,0-1.4,3.1,2.9,2,3,4.1,0,2,.3,3.9.3,5.9.2,7.1.3,14.3.6,21.4.2,3.9.9,7.8,1,11.7.1,3-.3,6-.5,8.9,0,.4,0,.7,0,1.1,1.3,9,1,18.1,1.1,27.1,0,4.1,1.7,8.4.7,12.2-1.2,4.4.5,8.3,0,12.5-.6,5,0,10.2.4,15.2.2,2.9-1.1,5.1-2.9,6.7-1.1,1-3.3.8-5,1-1.8.1-3.7,0-5.5,0-.3,0-.6-.2-.9-.3.2,0,.5-.2.7-.2,1.8-.2,3.5-.4,5.3-.6.7,0,1.4-.2,2.1-.4-.7-.3-1.4-.8-2.1-.9-2.3-.3-4.6-1.2-6.7.8,0,0-.7-.5-1.1-.7-.5-.3-1-.9-1.5-.9-2.4,0-.8-1.7-1.1-2.7.6-.4,1.1-.6,1.5-.9-.5-.3-1.1-.6-1.6-.9M111.7,89.8c0,.9,0,1.8,0,2.7,0,.7.2,1.3.4,1.9.7-.3,1.6-.5,1.9-1.1.3-.4.1-1.5-.3-2-.9-1-1.4-1.5.2-2.4.9-.5,1.2-2.2,1.5-3.4.1-.4-.5-1.1-.8-1.5,0,0-.6,0-.7.2-.8,1.7-1.6,3.4-2.3,5.6M114.2,152.7c.4.9.6,2.5,1.2,2.6,3.5.7,1-1.8,1.2-2.8,0-.4-.5-1-.9-1.4-.4.5-.9.9-1.6,1.6M96.8,192.1c.4.4.7.7,1.1,1.1.1-.8.5-1.7.2-2.4-.2-.5-1-.8-1.6-1.2,0,.7,0,1.5.3,2.5M114.2,178.6c.8-1.4,0-2.2-1.1-2.7-.2,0-.8.8-1.3,1.2.6.5,1.2,1,2.4,1.5M111.7,143.7c0-.4.1-.8,0-1.1-.3-.4-.7-.7-1.2-.8-.3,0-1,.4-.9.4.4.9.8,1.8,1.2,2.7.3-.2.6-.5.9-1.3M115.5,81c.7.4,1.4.8,2.1,1.2.1-.5.6-1.2.4-1.5-.6-.9-1.4-1.9-2.4.2M6.7,47.5c.5.2,1,.5,1.5.7-.1-.7-.1-1.5-.4-2.1-.2-.3-.9-.3-1.4-.5.1.4.2.9.4,1.8M22.6,192.1c0,.5,0,.9,0,1.4.8-.1,1.5-.2,2.3-.4-.6-.4-1.3-.9-2.2-1M119.4,161.8c.6.5,1.2.9,1.8,1.4.1-.3.4-.7.4-.8-.5-.4-1.1-.8-1.6-1.1-.1,0-.4,0-.6.5M9.2,41.7c.3-.1.8-.3.8-.4,0-.4-.3-.8-.4-1.3-.2.5-.4.9-.3,1.6M118.6,156c-.3.2-.5.5-.8.7.4.1.7.3,1.1.4,0-.4.2-.7-.3-1.1M115.8,89.5c.3.4.6.7.9,1.1.2-.1.3-.3.5-.4-.3-.2-.5-.4-1.4-.7M21.5,128.3c-.5.1-1,.2-1.5.4,0,0,0,.2,0,.4.5,0,1-.1,1.4-.8Z"/>
    <path d="M398.5,185.9c0,1.2-.3,2.2-.4,3.2,0,.4.2,1.2,0,1.3-2,1.1-1,2.2,0,3.2-.4.3-.7.7-1.2.9-1.2.4-2.5.5-1.7,2.4,0,.2-.4.9-.6.9-2,0-4.1.1-5.9-.5-3.2-1.1-6.5-1.4-9.4-.4-2,.7-3.3.7-4.9-.2-.1,0-.5,0-.5,0-1.5,2.5-3.2-.5-4.9.2,0,0-.8-1.2-.8-1.8,0-1.4-2.2-4-3.8-3.8-1.6.1-2.7,1.1-2.6,2.9.2,2-.5,2.7-2.6,2.7-1.2,0-2.4,1.3-3.7,1.5-3.1.5-6.3.7-9.4,1.2-.9.1-1.6,1-2.5,1.3-1.1.3-2.8.8-3.4.3-1.9-1.5-3.7-1.3-5.7-.4-.2,0-.5.4-.6.4-2.6-2.7-6.1-1.6-9.3-2.1-2.3-.4-4.8-3.5-4.7-5.8,0-.5-.5-1.1-.9-1.5-3-2.6-6.2-5-9.2-7.6-1-.9-2.2-1.8-2.8-2.9-.8-1.6-1.1-3.3-3.3-3.9-.4-.1-.4-1.8-.8-2.6-.4-.8-1.1-1.4-1.6-2.2-.4-.5-1-1.1-1-1.5.5-2.2.5-4-1.9-5.2-.5-.2-.6-1.3-1-2-.3-.7-.5-1.8-1.1-2-1.6-.6-1.8-1.1-.4-2,.1,0,.3-.4.2-.4-3.4-2.8-.7-6.6-1.6-9.8-.6-2.2-1.9-4.2-2.4-6.4-.7-3.2-1.1-6.6-1.4-9.9,0-.8.8-1.7,1-2.6.1-.6-.1-1.2-.2-1.8-.6.2-1.1.4-1.7.6-.4.1-.9.2-1.3.3.2-.4.4-1.2.7-1.3,2.7-.5,2.7-2.3,2.6-4.4,0-.7.2-2,.7-2.1,1.6-.6-1.8-2.3.7-2.7.5,0,.8-2.7.7-4.2-.2-2.8-.3-5.4,1.7-7.7.5-.6.3-1.7.6-2.5.5-1.5,1.2-3,1.8-4.5.3-.8.6-1.6.9-2.4.2-.6.1-1.4.5-1.7,1.3-1,1.8-2.8,2.8-3.7,2.3-2.1,2.4-4.5,2.2-7.1,0-1.1,0-2,1.5-1.8.3,0,.9-.3,1.1-.6.9-2,1.3-.6,1.9.2.3.4.7.7,1.1,1,.2-.5.6-1.2.4-1.6-1.4-3,2.8-3.9,2.6-6.6,0-.5,2.4-1.1,3.7-1.7.3-.2.6-.5.9-.7-3-1.9.5-1.3.7-2,.2-.8.3-2.1.6-2.2,1-.1,2.1.6,3,.4,3.7-.8,7.2-2.2,10.9-2.8,3-.5,6.2-.3,9.2-.4,1,0,2,0,3,.2.8.1,1.7.2,2.2.7,3.5,3.5,8.4,2.6,12.6,4,.5.2.7,1,1.1,1.5.7.8,1.5,1.6,2.4,2.3.1.1.8,0,.9-.3,2.5-4,4.6-5.6,8.8-6.2,1.2-.2,2.6.5,3.9.5,5.1,0,10.2-.2,15.2.1,1.6.1,3.4,1.4,4.5,2.6.7.8.6,2.5.6,3.8,0,5,0,10.1,0,15.1.1,7.4.4,14.7.5,22.1,0,3.1-.5,6.3-.5,9.4,0,4.3.4,8.6.5,13,0,2.1,0,4.3,0,6.4,0,1.2.4,2.6-1.5,3,0,0,0,1,.1,1.5.4.8,1.3,1.6,1.3,2.4.1,6.5,0,13.1,0,19.6,0,5.7.2,11.3.4,17.2M365.1,117.3c-.2-.4-.4-1.1-.6-1.1-2.7,0-2.4-1.8-2.9-3.7-.4-1.6-2.3-3-3.7-4.3-.9-.8-2.2-1.2-3.4-1.6-1.9-.7-3.9-1.6-5.9-1.7-4.3-.1-8.5.4-12.8.4-2.8,0-5,.8-6.8,2.9-1.8,2.1-3.6,4.1-4.4,7-.7,2.6-2.7,5-2.9,7.5-.4,7.4,0,14.7,0,22.1,0,1.2,0,3,.8,3.4,2.6,1.6,2.2,3.9,2.3,6.2,0,.6.5,1.8.6,1.8,2.1-.4,2,1.7,3,2.5,2.1,1.7,4.1,3.5,6.3,5.2,1.4,1.1,2.9,2.6,4.6,2.8,2.8.4,5.8,0,8.7-.3,1.1,0,2.1-.4,3.2-.6-.5-1.9.9-1.6,2-1.8.9-.2,1.9-.4,2.6-1,1.3-1,2.4-2.2,3.4-3.4.4-.5.5-1.2.7-1.9.2-.7.2-1.6.6-2.1,1-1,2.2-1.8,3.2-2.8,1-.9,2.1-1.7,1.2-3.5-.5-1,.6-2.2,1.7-2.4.4,0,.7-.5,1-.8-.2-.3-.5-.5-.7-.8-.2-.3-.4-.6-.3-.9.3-1.2.8-2.4,1-3.7.2-1.4,0-2.9,0-4.4,0-3.6-.1-7.2-.2-10.7,0-1,.4-2,0-2.9-.2-.5-1.4-.7-2.1-1,0,0,0-.3,0-.5-.2-1.2-.4-2.4-.5-4.2M368.2,87.9c.5.7.9,1.5,1.6,2.1.4.4,1.1.5,1.6.7.1-.6.4-1.1.4-1.7,0-.8-.3-1.7-.5-2.5-.2-.6-.4-1.6-.8-1.8-.4-.2-1.4.2-1.8.7-.4.6-.5,1.5-.4,2.5M331.1,76.6c-.7-.7-1.3-1.4-2.1-2-.3-.2-.8,0-1.3,0,0,.4,0,.8,0,1.2.2.7.3,1.6.7,2.1.4.6,1.2.9,1.9,1.3.2-.6.5-1.3.7-2.5M384.7,93.9c-1.6.9-1,1.9,0,2.7.4.3,1.2.3,1.8.4,0-1.2.8-2.8-1.8-3.1M317.9,94.7c0,.5-.2,1.1,0,1.3.5.5,1.2.8,1.8,1.1.1-.7.5-1.5.3-1.9-.3-.5-.4-2.5-2.1-.6M364.3,170.3c.9.4,1.8.7,2.8,1.1-.1-.5-.2-1.5-.3-1.5-.9,0-1.8,0-2.5.4M394.8,164.6c-.7-.4-1.4-.8-2.1-1.2.2.8.3,1.6.5,2.4.4-.3.9-.6,1.6-1.2M295.3,139.8c.4,0,.7-.2,1.1-.3-.4-.6-.7-1.3-1.2-1.9,0,0-.7.2-.7.3.1.6.3,1.1.8,2M293.1,127.2c.5.4,1,.8,1.5,1.3,0-.7-.1-1.5-.2-2.2-.4.1-.9.2-1.3.9M342.9,168.1c-.5,2.3,1.3.7,2,1,.2,0,.7-.4,1.1-.6-.6-.1-1.1-.3-1.7-.4-.3,0-.5,0-1.4,0M311.8,88.7c.4-.4.7-.7,1.1-1.1-.3-.3-.6-.6-.9-.9-.2.5-.3,1.1-.2,1.9M314.3,91.2c0-.5,0-1.1,0-1.6,0,0-.5,0-.5,0,0,.5,0,1.1.5,1.6M397.6,136.5c-.5,0-1-.1-1.4-.2,0,.1,0,.4,0,.4.5.1,1,.3,1.5-.2Z"/>
    <path d="M146.7,153.3c.5.5.8,1.6,1.1,1.6,3.7-.3,5.7,2.4,7.7,4.7,1.7,2,2.9,4.5,6.2,4.3.4,0,.9,1.1,1.5,1.6.8.6,1.7,1.5,2.6,1.6,1.9,0,3.9-.2,5.8-.5.9-.1,2-3.2,1.8-4.1-.3-1.6-.4-3.2-.6-4.8-.1-.7-.2-1.5-.6-1.9-1.9-2-3.9-3.9-6-5.7-.3-.3-1-.6-1.4-.5-2.1.4-3-.7-3.4-2.6.9,0,1.7,0,2.5.2l-1.2-1.9c-.5.5-1,1-1.5,1.5-1.8.2-3.2-.3-3.9-2.2-.2-.4-.6-1-1-1.1-3.3-.3-5.5-2.3-7.3-4.8-1.3-1.8-3.5-2.5-4.9-3.9-2.5-2.6-4.6-5.7-6.6-8.7-2.8-4.2-4.5-9-5.7-13.9-.9-3.8-1.1-7.7-1.4-11.6,0-.5,1.1-1,1.2-1.6.3-1.4,0-3.1.6-4.3,1.2-2.4.8-5.1,2.6-7.5.9-1.2,1.8-3,2.5-4.6.6-1.4.7-2.9,2.6-3,.2,0,.6-.4.6-.6-.4-4.3,5.1-3.1,6-6.4.2-.8,2.4-1,3.5-1.7,1.3-.8,2.6-1.8,3.8-2.8.5-.4.8-1,1.1-1.6.2.5.2,1.1.6,1.5.3.4,1,.7,1.4.6,5.1-1.9,10.2-1.8,15.3-.4.9.3,1.6,1.4,2.5,1.7.6.2,1.5-.2,2.3-.3.1,0,.3-.3.3-.3,3.1,1.8,6.4,3.3,9.2,5.5,3,2.4,5.4,5.4,8.1,8.1.1.1,0,.4.2.5,4.3,1.5,3.6,5.2,3.7,8.6,0,1.4,0,2.8,0,4.1,0,.7-.5,2.1-.7,2.1-3.9-.2-2.4,3.9-4.2,5.3-1.1.8-2.1,1.7-3.2,2.6,0,0-.2,0-.3,0,.9,3-3.2,1.6-3.4,4.2-.2,2.6-4.8,3.4-6.8,1.6-2.5-2.2-5.1-4.3-7.6-6.6-.8-.7-1.4-2.3-2.2-2.4-2.1-.2-4.3,0-6.4.5-2.1.4-1.9,2.4-1.8,3.8.1,1.9.5,4.1,2.7,5,2,.8,3.9,1.5,5.9,2.4.3.1.5.7.6,1.1.1.3-.1,1,0,1.1,2.2,1.1,4.5,2.2,6.7,3.3.5.3,1.1.5,1.5.9.6.5,1.1,1.6,1.6,1.6,2.6-.2,3.4,1.6,4.7,3.3,1,1.2,2.7,1.9,4,2.9.3.2.5.7.7,1.1.2.5.4,1.4.6,1.3,2.3-.2,2.8,1.8,4,3,.6.6,1,1.4,1.5,2.1.3.5.3,1.3.7,1.6,2.9,2.3,3.4,5.9,4.3,8.9,1.5,5.1,3.8,10.1,3.3,15.7-.1,1.6.4,3.6-2,4.4-.2,0-.2,1-.2,1.5-.2,2.9-.4,5.7-.6,8.6,0,.2-.1.5-.2.7-.1-.2-.2-.4-.3-.6-.3-.3-.7-.5-1-.8-.2.4-.5.7-.6,1.1-.2,1.5.8,3.7-2.1,3.8,0,0-.1.6-.2,1-.5,3.7-2.9,6-6.5,6.6-.4,0-1.1.6-1.1.6,1.3,2.6-2.7,4.1-1.3,6.7-.9.3-1.8.7-2.7.9-1.5.4-4-1.3-4,2.1,0,0-.7.1-1,.1-2.9.2-5.9.2-8.8.6-2.2.3-4.2,1.2-6.5.5-.3-.1-.7-.1-1-.2.3-.1.7-.2.7-.4.1-.8.5-1.8.2-2.4-.6-1.4-1.6-.9-2.2.1-1.7,2.6-3.9,2.6-6.4,1.6-2.1-.8-4.2-1.9-6.4-2.5-1.6-.5-3.3-.4-5-.6-.5,0-.9-.6-1.4-1,.4,0,.8,0,1.2-.1.5-.1,1.3-.4,1.3-.7,0-.5-.2-1.2-.6-1.5-3.9-3.3-7.9-6.6-11.8-9.9-1-.8-2.3-1.3-1.2-3.1.5-.8.8-2.8-1.5-3-.6,0-1.1-.6-1.7-1,.7-.4,1.3-.9,2-1.2.6-.2,1.2-.2,1.8-.3-.4-.3-1.3-.6-1.2-.8.1-.9.4-1.8.8-2.6.6-1,1.3-2,2-3,.1-.2.3-.5.5-.5,3.4.6,2.2-2,2.2-3.4,0-1.5.3-2.5,1.8-3.1.8-.3,1.8-.9,2-1.6.8-2.6,2.6-4.2,4.9-5.7M149.4,76.3c-.8,0-1.6-.2-2.4-.2-.8,0-1.5.3-2.3.4.6.5,1.2,1.3,1.8,1.3,1.1,0,1.6.3,1.5,1.5,0,.4.4,1.2.7,1.2.6.1,1.4-.2,2-.3-.2-.5-.4-1-.6-1.6-.2-.8-.4-1.7-.3-2.5,1,1.2,2.1,1.7,3.4.5.4-.3.5-.8.8-1.3-1.4-.7-2.8-1.4-4.3-2,0,0-.7.5-.6.8,0,.7.3,1.3.2,1.9M151.3,84.8c0-.2-.1-.5-.2-.7l-2.7-2.1c-.3,0-.6-.2-.8-.1-1,.5-2.7,1-2.8,1.7,0,1,.9,2.2,1.5,3.2.7-.8,1.5-1.6,2.2-2.5.1-.2.1-.5.2-.7.1.2.2.5.4.7,1,1.7,1,1.7,2.2.5M163.1,168.7c-.6-.7-1.1-1.5-1.8-2.2-.1-.1-.8.3-1.2.5,1.1,1.2-.5,1.1-.8,1.6-.2.3-.6.5-.8.7.4.3.7.8,1.1,1,1.7.8,1.9-1.2,3.6-1.6M155.1,114.5c.4-.7.7-1.5,1.1-2.2-.6.3-1.2.6-1.9.8-.2,0-.5,0-.8,0-.8.1-1.5.3-2.2.4.8.4,1.6.9,2.5,1.2.3.1.7,0,1.3-.3M168.6,183.5c-.2.7-.5,1.4-.7,2.1,1.1-.6,2.2-1.2,3.2-1.9.2-.1.1-.5.2-.8-.8,0-1.6.2-2.7.6M152.7,124.7c-.2.2-.4.4-.6.6-.3.4-.5.9-.8,1.3.4,0,1,.4,1.2.3.8-.5,1.4-1.1,2.1-1.7-.5-.1-.9-.3-1.9-.4M178.5,151.6c.8-.2,2.2.7,1.9-1.2,0-.4-.6-.9-1-1-1.8-.3-1,1.1-.9,2.2M160.1,178.3c.2-.4.3-.8.5-1.1-.8.1-1.6.2-2.4.3-.1,0-.2.4-.3.6.6.1,1.3.3,2.2.2M188.4,134.6c-.2.4-.4.7-.6,1.1.6.1,1.2.3,1.8.4-.2-.5-.5-1-1.3-1.5M150.7,89.8l.7.8c.1-.5.4-1.1.4-1.6,0-.2-.7-.4-1.1-.6,0,.4-.2.7,0,1.4M154,89.8c-.1.4-.2.9-.3,1.3.7-.3,1.3-.6,2-.9-.5-.2-.9-.5-1.6-.4M147.2,173.6c0-.1.1-.2.2-.4,0,0-.1-.2-.2-.2-.6.1-1.3.2-1.9.4,0,0,0,.5,0,.5.5,0,1.1,0,1.9-.3Z"/>
    <path d="M286.5,166.5c3.7,1.8,2.8,5.1,2.6,8.1,0,.9-.1,2.4.2,2.5,3.7,1.4.2,1.4-.5,1.9-.8-.3-1.4-.4-2-.5,0,.4,0,.9,0,1.3.6-.2,1.2-.5,1.8-.7.2,3.6.4,7.2.5,10.8,0,1.2,0,2.2-1.7,1.4-.2,0-1,.6-1,1-.1,1.2,0,2.4,0,3.6-.2,2.1-1.2,3.6-3.5,3.6-3.3,0-6.7,0-10,0-.7,0-1.8.3-.8-1.1-.4-.2-.8-.6-1.2-.6-1.1,0-2.1.2-3.2.2.4.3.8.6,1.3.8.4.2,1,.2,1.4.3-.5,0-1,.2-1.6.2-5.9,0-11.7.1-17.6,0-2,0-4.3,0-6-1.7-.3-.4-1.1-.5-1.7-.4-1.9.1-3.7.4-5.5.5-3,0-6.1-.5-8.9.2-1.7.5-2.9-.3-4.4-.2-.3,0-.7.1-1,.3,0,0,0,.6.1.7.4.3.8.4,1.3.6-1,0-2,0-2.9,0,0-.1,0-.3,0-.4,2.4-1.4-.8-1-.6-1.7-3.6,0-7.2,0-10.8,0-.6,0-1.5.8,0,1.2-.1.1-.3.4-.4.4-.7-.2-1.6-.2-1.9-.6-1-1.3-1.9-2.7-2.4-4.2-.4-1.1-.3-2.5,0-3.6.6-2.5,1.4-4.9,2.2-7.3.1-.4.4-1.1.7-1.1,3.1,0,1.9-2.2,2.1-3.7.1-.9-.2-2.1,1.2-.6,0,0,1-.4,1-.6,0-1.6,0-3.1,0-4.7,0-1.7,0-3.4,2.2-3.8.2,0,.3-1,.3-1.5.3-2.7-.5-5.7,2.1-7.9.7-.6,1.2-1.6,1.3-2.4.2-1.5-.4-3.3,1.9-3.6,0,0-.2-1.3,0-2,.4-3,3.8-4.6,3.4-7.9.5.2.9.4,1.4.6.5.2,1,.3,1.5.4,0-.6.4-1.3.2-1.7-2-3.2-2.1-4,.7-6.8,1.6-1.6,1.7-3.2,1.3-5.1,0-.2.4-.7.7-.9.4-.3,1-.3,1.3-.7.5-.8.4-3.9.7-5.2.2-.6,1.9-1,3-1.2.4,0,1,.4,1.3.7,1.7,2.5,3.7,1.8,5.8.9,1.3-.6,2.5-1.1,1.1-2.9-.3-.4.8-1.7,1.1-2.6.1-.6-.2-1.3-.3-1.9-1.5.8-2-.7-2.8-1.2-1.7-1.1-3.1-1.5-4.6.3-.4.5-1.6.3-2.4.4.4-.6.6-1.3,1.1-1.7,1.7-1.3,3.2-3.1,5.8-1.7.3.2,1.1-.4,1.6-.6-.3-.6-.6-1.4-1.1-1.7-1.6-.7-2.1-1.6-1.2-3.2.6-1-1.1-3.3-2.6-3.2-1.9.1-3.7.8-5.6,1-1.1.1-2.4.2-3.2-.3-1.8-1.2-3.2-1.2-4.8.3-.3.3-.7.3-1.1.5.2-.3.3-.7.5-1,.2-.3.6-.7.8-1-.4,0-.9-.3-1.3-.2-2.7.5-5.3,1.1-7.9,1.6-.6.1-1.6-.1-2-.6-3.2-3.6-4.9-7.6-4.2-12.6.2-1.4-.6-2.9-.7-4.3,0-.8.7-1.6.7-2.4,0-3.1-.4-6.3-.4-9.4,0-1-1.3-2.8,1.1-3.1.2,0,.4-.3.4-.5,0-.5.7-1.4,1.2-1.4,2.4,0,4.7,0,7.1,0,1.4,0,2.9-.2,4.3-.2,4.1,0,8.2,0,12.4,0,10.3,0,20.6,0,30.9,0,.8,0,1.7.2,2.5.6,1.3.6,2.3,1,2.8-.8,0-.2.9-.3,1.3-.3,3.5.3,7,.6,10.5,1.2,1.4.2,3.6,1,3.8,2,.5,2.1,0,4.4,0,6.7-.5,0-.9,0-1.4-.1-.4-.1-.8-.4-1.2-.6-.2.5-.6,1-.5,1.4.2,2.1-.1,3.7-2.3,4.9-.8.4-1.2,2.4-1,3.6.6,2.8-.2,5-1.7,7.2-.3.5-.6,1.1-.6,1.7,0,1.5.4,3.3-2.2,2,0,0-.6.8-.6,1.3,0,1.1,0,2.2,0,3.3,0,.3-.6.6-.9.9-.2-.3-.5-.5-.7-.8-.2-.3-.5-.6-.7-.8-.3.3-.9.6-.9.9,0,.9.2,1.9.5,2.8.8,1.9.5,3.3-1.5,4.1-1.1.5-1.9,1.1-.7,2.5,1.1,1.3.2,2.1-.9,3-.9.7-1.3,2-1.9,3-.5.8-1.1,1.6-1.4,2.4-.5,1.5-.8,3-1.4,4.5-.4,1.1-1.2,2-1.8,3.1-.5,1-.8,2.3-1.6,2.9-2.5,2.1-1.7,5.2-2.7,7.6-1.6,3.6-3.4,7-5.2,10.5-.2.4-.3.9-.6,1.1-3.2,1.9-3.5,5.3-4.1,8.4,0,0,0,.2,0,.3,0,1.2,0,2.4,0,3.7,1.7,0,3.3,0,5,0,.7,0,1.4-.2,2.1-.2,3-.1,6-.3,9-.4.5,0,1.1-.2,1.6-.1,4.6.3,9.3.7,13.9,1.1,1.6.1,3.5-1.6,4.6,1,0,.7,0,1.2,0,1.8.2-.4.4-.7.6-1.1M235.4,167.3c-.2-.3-.4-.6-.7-.8-1.4-1.2-2.9-2.3-4.2-3.7-.3-.3,0-1.6.5-2.1.5-.5,1.4-.6,2.2-.8-1.3-.5-.3-3-2.5-2.8-.4,0-.9-.1-1.3-.2.4-.3.8-.8,1.2-.7,2.4.1,1.5-1,.9-2.1-.4-.7-4.2-1.5-4.3-1.1,0,2.1-2.2,1.6-3.1,2.5-.3.3-.5,1.1-.4,1.3,1,.8,1.2,1.6,0,2.4-.1.1,0,.9.2,1.1.9.7.8,1.1,0,2-2.1,2.4-1.7,5.4.8,7.6,1,.9.4,1.1-.4,1.6-1.2.7-1.1.7,0,1.6.2.2.3.9.2,1-3.4,1.5,0,2.3.4,3.3.1.3.8.4,1.2.6-.6.2-1.2.3-1.9.5-.4,0-.8,0-1.2,0,0,.4.1,1.1.3,1.2,1.1.3,2.3.6,3.3.5.7,0,1.9-1.2,1.8-1.6-.8-3.3,2.2-3.2,3.8-4.4.6-.4,1.2-.7,1.8-1.1-.5-.7-.9-1.5-1.4-2.2-.4-.5-.9-.9-1.4-1.3.7,0,1.4,0,2.1.2.9.2,1.8.6,2.7,1-.2-1.1-.5-2.1-1-3.4M243.6,129.4c-1-1.6-2.7-1.8-4-1.2-.8.4-1.2,2.1-1.4,3.4-.3,2,.1,4.3-.7,6-1.3,2.7,1.2,4.6.9,6.9,0,0,1.5.6,1.7.4.6-.6.9-1.6,1.3-2.4.2-.4.5-.7.7-1.1.1.1.3.2.4.4.8,2.5,2.3.7,3.5.6-.3-.9-.5-1.7-.8-2.5-.2-.4-.6-.6-.9-1-.7-.7-2-1.4.2-2,.9-.3,1.8-1.4,0-2.2-1.2-.5-1.1-1.6-.8-2.8.2-.7.2-1.4,0-2.4M234,74.1c-.5.9-1.4,1.9-1.2,2.6.1.7,1.4,1.7,2.2,1.7,2.2,0,4.4-.6,6.6-1.1,0,0,0-.8,0-1.2,0-.3-.3-.5-.5-.8.4,0,.8.2,1.1.3.5.1,1,.4,1.5.3.2,0,.6-.7.5-1.1-.4-1.7-3.1-2.4-4.7-1.9-1.6.5-2.9,2.2-5.4,1.1M234.3,93.1c.9.6,1.8,1.6,2.8,1.8,1.4.3,3,.1,4.5,0,.5,0,1-.2,1.6-.3-.2-.6-.3-1.4-.7-1.7-2-1.6-4.2-3.2-6.3-4.6-.2-.1-1.1.4-1.2.8-.3,1.1-.4,2.3-.6,4M239.2,82.1c-.8-.6-1.6-1.7-2.5-1.8-.8,0-2,.8-2.5,1.5-.6.9-.7,2.2-.8,3.4,0,.1.8.4,1.3.6.8.4,1.5.8,2.3,1.2.5.2,1,.2,1.5.3,0-.5.4-1.2.2-1.5-1.2-1.4,0-2.2.6-3.7M270.3,194c.8-.3,1.8-.5,2.4-1.1.2-.3-.4-1.4-.6-2.1-.8.4-1.7.7-2.4,1.2-.5.3-.9.7-1.2,1.2-.4.6-.8,1.3-1.1,2,0,0,.6.5.7.5.6-.5,1.2-1.1,2.3-1.6M267,174.7c1.2-1.5,2.3-3.1.8-5.1-.3-.4-.8-.7-1.1-1-.3.4-.8.8-.8,1.2.1,1.6.4,3.3,1.1,4.9M241.4,150.8c.7,1.9,2.3,2,3.9,1.5.5-.2.7-1.1,1.1-1.6-.5-.2-.9-.7-1.4-.7-1.1,0-2.2.3-3.6.8M230.2,190.1c-.3-.4-.6-.7-.8-1.1-.2.3-.5.7-.5,1,0,.8.2,1.7.5,2.5.2.5.6,1,.9,1.5.8-.5,1.6-1.1,2.4-1.6-.5-.4-1-.7-1.5-1.1-.3-.2-.5-.5-1-1.1M247.2,161c-.3-.1-.6-.3-.9-.4-.7-.2-1.4-.3-2.1-.5.4.6.8,1.3,1.3,1.9.2.3.5.6.8.7.7.3,1.5.5,2.3.8-.3-.8-.7-1.5-1.3-2.5M217.8,99.7c.8.3,1.5.7,2.3,1,0-.9,0-1.7,0-2.6,0-.3-.4-.6-.6-.9-.5.6-1.1,1.3-1.6,2.5M254.1,81c1.1.8,2.1,1.5,3.2,2.3.2-.4.7-1,.6-1-1-.7-2.1-1.4-3.1-2.1-.1,0-.5.2-.7.8M265.1,169c-.3-1.8-1.6-1.6-2.7-1-.3.2-.6,1.4-.3,1.7,1.1,1.5,1.9.4,3-.7M240.1,97.8c-.8-.5-1.7-1.2-2.6-1.6-.2-.1-.7.3-1,.4.4.5.8,1.4,1.3,1.6.8.2,1.7,0,2.3-.4M253.3,194c0-.1.1-.3.2-.4,0,0-.1-.2-.2-.2-.8.2-1.6.5-2.4.8.4.5.7,1.1,1.2,1.4.6.3,1.4.2,2.1.3-.4-.6-.7-1.1-.8-1.9M245.6,145c.2-.3.5-.6.7-.9-.7-.2-1.4-.5-2.2-.7-.1,0-.5.7-.5.7.5.4,1.1.8,1.9.9M257.7,197.8c-1.2.1-2.4.2-3.6.3,0,.2.2.7.2.7,1.2-.2,2.4-.5,3.4-1M239,103.3c0-.8.2-1.6.2-2.3,0-.1-.3-.3-.5-.4-.2.5-.4,1-.5,1.5,0,.4.2.8.8,1.2M248.3,197.8c.2-.3.5-.6.7-.9-.6,0-1.2-.1-1.9-.2.2.4.4.7,1.1,1.1M250.8,188.2c.1,0,.2.1.4.2,0,0,.2-.1.2-.2-.2-.5-.4-.9-.7-1.3,0,0-.6.3-1,.4.3.2.5.4,1.1.9Z"/>
    <path d="M453.1,81.8c-.2-2.8-.5-5.3-.5-7.8,0-5.7,0-11.4,0-17.1,0-4.5.5-9.1.5-13.6,0-3.4-.6-6.9-1.1-10.3-.7-4.5,2.1-8.5,6.5-8.9,3-.3,6.1-.5,9.1-.5,1.3,0,2.6.4,3.9.5,2.1,0,4.3.3,6.4,0,3-.5,4.1.8,4.4,3.6.2,2.3.9,4.6,1.3,6.9.1,1-.1,2-.2,2.9-.4,3.2,1.6,6.6-.5,9.8,2.1,3.6.6,7.6,1.2,11.3.3,1.7,1.5,3.6-1,4.7-.2,0-.3.9-.2,1.2,1.7,2.9,1.2,5.9,1.1,9-.2,4.4-.1,8.9,0,13.3,0,3.8.6,7.7.5,11.5-.1,4.3-.7,8.6-1,12.8,0,.5,0,.9,0,1.4.5,3.3,1.4,6.5.6,10-.3,1.3.4,2.8.4,4.2,0,5,0,10,0,15s0,6.8,0,10.3c.1,4.4.4,8.7.5,13.1,0,1.7-.5,3.3-.5,5,0,4.8.3,9.6.5,14.3,0,2.7-1.8,5.4,0,8.2,0,0-.7.9-1.1.9-3.7.3-7.4.3-11.1.6-3.3.3-6.7.7-10,1.1-.2,0-.5.5-.6.5-1.2-.4-3.8-.7-4.8-.5-.4,0-.7.5-.9.8-.3.4-.5.9-.8,1.3-.1-.5-.3-1-.3-1.5-.2-1.9-.4-3.9-.6-5.8,0-.2,0-.4,0-.5-1.8-3.9-1.7-3.9-1.7-7.9,0-3.5-.4-7-.5-10.5,0-1.6.4-3.1.5-4.7,0-2.3.4-4.7,0-6.9-.9-4.1-.1-7.9.5-11.8.4-2.4-.3-4.9-.4-7.4,0-3,0-6.1,0-9.1,0-3-.4-6-.5-8.9,0-1.2.5-2.4.5-3.6.2-7.4-.5-14.8-.5-22.2,0-4.7.3-9.4.5-14.4M478.1,128c-.3.8-.5,1.7-.9,2.5,0,.1-.7,0-1,0-.5-.2-1-.4-1.5-.6-.2.6-.7,1.3-.6,1.9,0,1.1.3,2.2.5,3.3,0,.4.4.8.6,1.2.4-.2.7-.5,1.1-.7,1-.7,1.9-1.7,3-1.9,2.5-.5,2.4-2.6,2.4-4.1,0-1.8-1.5-2.3-3.5-1.5M483.3,165.7c-1-1.9-1.8-3.9-3-5.6-.4-.6-1.9-.5-2.9-.7.4.7.7,1.4,1.1,2.1.6,1.1,1.4,2.2,1.9,3.3.1.2-.3.9-.6,1.1-.4.3-1,.3-1.5.4.2.7.3,1.6.7,2.1.2.2,1.3,0,1.8-.3.9-.5,1.7-1.2,2.5-2.4M479.2,155.5c0,.5-.2,1.1-.2,1.6,1.3-.5,2.5-.9,3.8-1.4-.8-1.2,3-3.1-.6-4-.5-.1-.7-.8-1.2-1.1-.4-.2-1.2-.2-1.3,0-.7,1.1-2.6,2.3,0,3.6,0,0,0,.6-.4,1.2M477.3,148.1c0,.5.1.9.2,1.4,1.2-.3,2.4-.6,3.6-.9-.5-.8-.8-1.8-1.4-2.4-2-1.9-1.2,1.6-2.5,1.9M472.9,41.4c-.9.7-1.9,1.3-2.6,2.2-.3.3.2,1.3.4,2,.9-.8,1.9-1.6,2.7-2.6.3-.3-.1-1.2-.5-1.6M476.5,114.8c-.6.6-1.3,1.1-1.7,1.8-.2.3,0,1,0,1.5h2.4c0-1.1,0-2.2-.7-3.2M455.3,28.2c.3,0,.7.3,1,.2.6-.2,1.2-.5,1.8-.8-.7-.4-1.4-1.1-2.2-1.3-1.6-.3-1.3.7-.6,1.9M472.1,36.7c.8-.3,1.6-.5,2.4-.8-.2-.4-.3-1.2-.7-1.3-.7-.2-1.6,0-2.4-.1.1.6.2,1.2.6,2.1M473.2,75.2c1,0,2.1,0,3.1,0,.1,0,.2-.6.3-1-1.2.2-2.5.5-3.4,1M475.6,97.5c.7.4,1.3.9,2,1.3-.1-.7-.2-1.4-.4-2.1,0-.1-1,.2-1.6.8M478.7,135.7c.8,0,1.6,0,2.4,0,.2,0,.4-.5.6-.8-.8-.3-1.6-.7-2.3-.7-.3,0-.6.8-.6,1.6M483.9,191.5c-.3-.6-.7-1.3-1-1.9-.2.2-.6.4-.6.6,0,.9,0,1.7.1,2.6.5-.2,1-.5,1.5-1.3M471.5,39.5c-.6-.1-1.3-.2-1.9-.4.2.6.4,1.2.5,1.7.6-.4,1.1-.7,1.4-1.4M461.9,55.7c-.7.3-1.5.6-2.2.9,0,0,.1.6.2,1,.8-.5,1.5-1.1,2-1.9M461.4,90.9c-.9-.2-1.7-.5-2.6-.7,0,.3,0,.9,0,.9.7,0,1.5,0,2.5-.2M455.3,35.9c0-.4-.1-.9-.2-1.3-.5.4-1.2.6-1.4,1.1-.2.4.3,1,.4,1.5.3-.4.6-.7,1.1-1.4M483.1,187.9c.2-.5.5-1.1.5-1.6,0-.2-.7-.4-1.1-.5,0,.7,0,1.5.6,2.2M464.1,100.8l.9,1.8c.2-.4.8-1,.6-1.3-.2-.4-.8-.5-1.6-.5M464.9,115.9c-.3.5-.5,1-.8,1.4.5,0,1.1,0,1.6-.1-.1-.4-.2-.9-.9-1.3M477,62.6c0-.7,0-1.5,0-2.2-.4.2-1.1.4-1,.5,0,.6.3,1.1,1,1.7M480.3,138.5c.8-1.9-.8-.9-1.4-1.1-.3,0-.7.2-1,.3.6.2,1.2.5,2.4.7M483.6,183.5c.3-.3.5-.5.8-.8-.7-.1-1.4-.3-2.2-.3-.2,0-.4.4-.5.7.5.1.9.3,1.9.4M479.8,144.5c.1-.3.3-.6.4-.9,0-.4.1-.9.2-1.3-.3.3-.7.6-.9.9-.2.4-.2.8.3,1.3M473.2,124.7c-.3-.4-.5-.9-.9-1-.3,0-.7.4-1.1.6.5.1.9.3,1.9.4M458.9,45c-.2.5-.4,1.1-.6,1.6,0,0,.5.3.7.4,0-.6,0-1.2-.1-2.1M477.8,124.4c.3.3.6.5.9.8.2-.3.4-.6.6-.9-.4,0-.8,0-1.5.1Z"/>
    <path d="M439.9,130.2c.4,5.1.7,10.2,1.1,15.3,0,.3.1.7,0,.8-3.2,2.5-.2,5,0,7.5.1,2.5-.3,5-.6,7.7-.6.4-1.1.7-1.5,1,.2.2.5.5.7.7.3-.5.6-1.1.9-1.6,0,.9.5,2,.2,2.8-.8,1.9-.2,4.3-2.3,5.8-.1,0,.3,1.6.7,1.7,1.8.7,1.4,2.2,1.4,3.5,0,.7,0,.6-.8.5-.4,0-1,.3-1.1.6,0,.6,0,1.7.3,1.8,2.4,1,2.5,2.5,1.7,4.7-.3.7-.3,1.8,0,2.4,1.2,2.4,0,3.7-1.9,4.9-.4.2-.7,1.2-.5,1.6.9,2.1,0,3.8-2.3,3.8-2.3,0-4.6-.5-6.9-.5-1.9,0-3.8.3-5.6.5-.4,0-.8.2-1.1,0-1.7-1.2-3.2-.1-4.7.2-.3,0-1.1-.3-1.1-.5,0-1.2.2-2.3.1-3.5,0-.9-.2-1.9-.4-2.8-.2-.9-.6-1.8-.8-2.7-.3-1.3,0-1.8,1.5-1.2.5.2,1.5,0,1.8-.3.4-.4.5-1.3.5-1.9,0-.2-1-.3-1.6-.4-.9-.3-1.8-.5-2.7-.8.4-.8.9-1.5,1.1-2.3.3-1.1.4-2.2.4-3.3,0-.2-.3-.5-.6-.6-1.4-.7-1.9-2.7-1.7-4.8.3-2.9.1-5.8.1-8.8,0-2.3,0-4.5,0-6.8s0-1.8,0-2.7c-.2-4.4-.5-8.7-.5-13.1,0-5.8,0-11.6,0-17.4,0-3.4-.8-6.9-.4-10.3.3-2.2.9-4.3.4-6.5,0-.2.6-.7,1-.8.4-.1,1,.1,1.3,0,.7-.4,1.4-1,2.1-1.5-.2-.2-.4-.7-.6-.6-.9,0-1.9,0-2.7.3-.4.1-.7.8-1,1.2,0-.5,0-1.1-.1-1.6-.2-4.3-.5-8.5-.5-12.8,0-2.4-.2-4.9,1.4-7,.1-.2.2-.6.1-.7-2.9-5-1.2-10.2-1.1-15.4,0-1.9-.4-3.7-.6-5.6,0-.3-.5-.7-.4-.9,2.4-4.4-1-9.3,1-13.8.5-1.2-.4-3-.4-4.5,0-5.2-1-10.6,2.2-15.4.4-.6,1.4-1.2,2.2-1.3,2.9-.3,5.9-.6,8.8-.6,3.2,0,6.5,0,9.6.7,1.6.4,3.4,2.4,3.9,4,.7,2.2.2,4.8.2,7.2,0,0-.3.1-.5,0-.5,0-1-.2-1.6-.2,0,.5,0,1.3.2,1.4,1.9,1.3,1.8,3.4,1.8,5.3.1,3.6,0,7.1,0,10.7.1,4.2.8,8.4.3,12.5-.3,2.1.6,4.5-.8,6.6-.5.7,0,2.1,0,3.2,0,.3.5.6.5.9-.3,1.8-1.5,4.5-.8,5.2,2.1,1.9,1.1,4,1.3,6.1,0,.5-.3,1.5-.6,1.6-3.5.5-1.2,2.2-.5,3.1.8,1,1.2,1.7.3,2.8-.3.4-.3,1.2-.2,1.8,1.1,6.3,1.3,12.6,1,18.9,0,1.6.2,3.2.1,4.8-.1,1.9-.4,3.9-.5,5.8,0,1.3.2,2.5.1,3.6-.5-.7-.8-1.3-1.1-1.9-.2.7-.5,1.4-.7,2.2.5,0,1.1,0,1.6,0M420.4,98.3c-1.2-.8-3.5-.7-2.1-3.4.2-.4-2.2-2.1-3.4-3.2-.3.5-.8,1-.7,1.5.4,1.9.9,3.8,1.6,5.6.2.6,1.4,1.2,2,1.1,1-.2,3,1.4,2.6-1.6M423.4,177.2c.5-.6,1.4-1.1,1.6-1.7.5-1.6-1.7-4.9-3.4-5.1-.8-.1-1.7.3-2.6.5.7.6,1.3,1.4,2.1,1.6,1.9.4,2.1,1,1.3,2.7-.4.7-2.1,2.4,1,2.1M420.9,161.5c0,1,0,2,.3,2.9.3.8,1.1,1.5,1.7,2.3.2-1.2.5-2.5.6-3.7,0-.5-.4-1.1-.6-1.6-.1-.3-.4-.5-.4-.8-.1-1.1-.2-2.3-.3-3.4-.3,1.2-.7,2.4-1,3.6,0,.2,0,.4-.3.8M415.7,119.5c.7.8,1.4,1.5,2.1,2.3,0-1.1-.1-2.1-.2-3.2,0,0-.2-.1-.2-.2.3-1.5-.8-1.6-1.8-1.3-.1,0,0,1.2,0,2.4M419.6,149.2c.5.8,1,1.6,1.6,2.5.4-.5.8-1,1.2-1.5-.8-.4-1.6-.9-2.7-1M418.5,108.5c-.3-1.8-1.5-1.5-2.7-1.1-.1,0-.2.8,0,1.1.7.8,1.4,2,2.7,0M425.1,186.6c-.3-.6-.6-1.3-.9-1.9-.4.5-1.2.9-1.2,1.4,0,1.3.9,1.8,2.1.6M438,102.2c2-.2,1.2-1.8,1.3-2.9,0-.2-.4-.5-.7-.8-.3.7-.5,1.4-.8,2.2-.1.4-.1.9,0,1.6M439.9,112.9c-1.6-1-1.6.3-1.8,1.3,0,.4.2.8.3,1.1.5-.6,1-1.2,1.5-2.4M418.5,117.3c.8-.1,1.7-.2,2.5-.3-.1-.3-.3-.7-.3-.7-.7.1-1.5.3-2.2,1.1M433.6,37.8c.6-.2,1.3-.5,1.9-.7-.5-.3-.9-.6-1.4-1-.3.5-.5.9-.5,1.6M423.7,182.4c-.6.2-1.3.5-1.9.7.6.1,1.3.3,1.9.4.4,0,.9,0,1.3-.2-.2-.3-.5-.6-1.3-.9M424,190.4c.4.5.8.9,1.2,1.4.1-.3.4-.7.4-.8-.5-.4-1.1-.8-1.6-.6M438.5,181.9c.5-.2,1-.3,1.3-.5.1,0-.2-.7-.3-1.1-.4.5-.9.9-1,1.6M437.4,109.9c0,.5,0,1.1,0,1.6.4-.2.9-.5,1.3-.7-.2-.3-.5-.6-1.3-.9M414.3,36.2c-.2.5-.5,1-.7,1.5.3,0,.7.1,1,.2,0-.5.2-1.1-.3-1.6M438.5,105.5c.3-.7.5-1.3.8-2-.2,0-.5-.2-.7-.2-.1.6-.2,1.3,0,2.2M438.3,79.9c.2-.4.3-.8.5-1.1-.4,0-.9.2-1.3.3.2.4.3.8.8.9M415.4,165.9c-.3.1-.8.3-.8.4,0,.4.3.8.4,1.3.2-.5.4-.9.3-1.6M438.8,146.4c.4,0,.7-.2,1.1-.3-.1-.4-.3-.7-.4-1.1-.2.3-.5.5-.7,1.4M415.2,85.9c0-.4,0-.8,0-1.1-.3.2-.6.3-1,.5.2.3.5.6,1,.6M438.3,83.2c.1.5.2.9.4,1.4.2-.2.5-.3.7-.5-.3-.4-.5-.8-1.1-.9Z"/>
    <path d="M645.1,118.5c2.1,2.2,4,4.2,6.1,6.2,2.7,2.6,5.5,5.1,8.3,7.7.2.2.2.6.3.9-.3-.1-.5-.2-.8-.4-.8-.5-1.5-1-2.3-1.5-.2.8-.9,1.8-.6,2.4.4.9,1.4,2.2,2.2,2.3,2.1.2,4.6,1,5.7-2.1.1-.3.5-.6.8-.8.6-.3,1.2-.6,1.8-.9.1.6.4,1.3.4,1.9,0,.7-.3,1.4-.4,2,0,.4-.2,1.2-.1,1.2,3.6.9,1.2,3.7,1.5,5.4.4,2.3,0,4.7-.3,7-.7,4.4-1.6,8.7-2.4,13,0,.3,0,.9-.1,1-3.4,1.6-2.7,5.5-4.2,8.2-1.3,2.3-3.2,4.3-4.4,6.6-.4.8-1.3,1.3-1.8,2-.4.5-1,1.5-.8,1.8,2.2,3.5-1.5,3.4-2.8,4.4-2.7,2.1-5.9,2.7-9.3,2.7-6.1,0-12.2.7-18.2,1-3,.1-5.6-2.4-6-5.4,0-.6-.5-1.4-1-1.7-2.8-1.8-5.6-3.4-7.1-6.6-.6-1.4-2-2.8-3.4-3.4-1.7-.8-1.2-1.8-1.1-3,0-1.5.1-3,0-4.5-.3-3.4,2.2-4.4,4.4-5.6.2-.1.5-.3.5-.4.7-3.8,5-5.9,5-10.1,0-.3.7-1,1-1,1.9.2,1.9-.8,1.5-2.1,0-.2,0-.5,0-.7.2.2.5.3.7.5.6.5,1.2,1.1,1.8,1.7.4.4,1.4.7,1.4.9-.2,1.7.5,2.1,2,1.8.2,0,.6,0,.7.2,2.4,3.8,4,5.5,6.9,6.9,2.5,1.2,5.8,0,8.3-1.4,2.4-1.2,2.8-2.6,2.4-4.7-.4-1.9-1-3.8-1.7-5.6-.2-.6-.9-1.3-1.5-1.5-1-.4-2.4-.2-3.2-.7-.5-.3-.4-1.6-.4-2.5,0-.3.4-.8.7-1,.3-.3.8-.4,1.2-.6-.5-.4-1-.7-1.6-1.1-.1,0-.4,0-.5,0-4.7,2.8-7.4-1.2-10.7-3.2-5.9-3.6-8.4-9.8-12-15.2-1.4-2.2-3.1-4.4-5.1-6.1-2.1-1.8-1.3-3.4-.6-5.2,1.3-3.3,2.5-6.5,2.6-10.2,0-3,1-6,1.6-8.9,0-.3.7-.6,1.1-.6,1.4,0,2.8,0,4.2-.1.2,0,.6-1.2.4-1.5-1-1.5-2.8-2.8-.8-4.8-.6-.3-1.1-.7-1.8-.9-.5-.2-1,0-1.5,0,0-.5,0-1.2.3-1.5.9-.9,1.9-2.2,3-2.4,2.3-.5,2.4-2.4,3.2-3.9.2-.5.6-1.3,1-1.3.9,0,1.9.2,2.8.3-.3.8-.4,1.7-.9,2.4-.9,1.2-3.3,2.2-.3,3.9.2.1-.5,2.6-1.2,3.7-1.3,1.8-3.5,2.9-3.1,5.6.1.7.4,2.1.7,2.1,4.1.3.5,2,.3,2.6-1.5,4.6-4.3,8.4-7.4,12.1-.6.7-.5,1.9-.8,2.9.8,0,1.6.2,2.4.2.3,0,.8-.2.9-.4,1.3-4,5.1-6.7,6.1-10.9,0-.2.8-.5,1.1-.4,2.9.8,5.5,1.9,7.6,4.2.9.9,2.3,1.4,3.5,2,.4.2,1,.4,1.3.8,2.9,3.6,5.8,7.3,8.7,10.9,1,1.3,2.3,2.3,3.6,3.6M631.2,120.6c.3-.6.6-1.3.9-1.9-.7-.2-1.5-.5-2.2-.5-.6,0-1.3.3-1.8.7-.6.5-1.1,1.2-1.6,1.9.8.4,1.6,1,2.5,1.1.6,0,1.3-.7,2.3-1.3M637.3,186.6c.3-.6,1.1-1.5,1-1.6-.6-.7-1.7-1.8-2.2-1.7-1.2.4-2.2,1.5-3.2,2.3.7.2,1.4.5,2.2.7.6.2,1.3.4,2.2.3M615,120.3c1.2.1,2.3.2,3.5.4-.3-.6-.6-1.4-1-1.9-.9-1.2-1.3-1-2.5,1.6M614.5,114.8c.2-.6.3-1.1.5-1.7-.6-.1-1.3-.5-1.6-.3-.6.3-.9,1-1.3,1.6.6.1,1.3.3,2.5.4M664.2,148.1c-.5.6-1.1,1.2-1.6,1.7.4.2.9.5,1.3.7.2-.7.4-1.5.3-2.5M635.9,129.7c-.7.2-1.5.3-2.2.6,0,0,0,.5,0,.5.9.4,1.8.7,2.7,1.1,0-.7,0-1.5-.6-2.2M611.2,91.7c.8.1,1.6.2,2.4.4,0-.3.2-.8,0-1-.3-.4-.9-.9-1.2-.8-.6.2-1,.7-1.3,1.4M641.1,139.8c0-.5,0-.9,0-1.4,0-.5-.2-1-.4-1.6-.4.6-1.1,1.2-1.2,1.9,0,.3.8.8,1.6,1M617.5,157.4c-.4,0-.7.2-1.1.3.1.4.3.7.4,1.1.2-.3.5-.5.7-1.4Z"/>
    <path d="M589.4,158.8c-2.2,1.7-3.6-.2-4.8-1.4-2.1-2.1-4-3.8-7.4-2.6-1.1.4-2.6-.6-3.9-.9-1.4-.4-2.9-1.3-4.2-1-1.5.3-1.4-.2-1-1.1.6-1.4,1.4-2.7,1.9-4.2.8-2.3,0-3.3-2.4-3.2-.6,0-1.2-.5-1.8-.8-.4-.1-.9-.3-1.2-.3-.5,0-1,.4-1.5.7.5-.6.9-1.4,1.5-1.8,1.8-1.2,2.8-5.7,2.2-8.8-.6-3-.6-6-.9-9.1,3.8-2.1.9-4.2,0-6.4-.5-1.2.7-3.3-2-3.2.2-.4.5-.7.7-1.1.3-.6.5-1.3.7-1.9-.4.2-.9.6-1.1.5-.6-.3-1.1-1-1.7-1.3-1.3-.7-2.6-1.1-2.2-3,0-.3-.3-.9-.6-1.1-.4-.3-1-.4-1.5-.6.7-.3,1.4-.5,2.2-.8.3-.1.6-.4.9-.5,1.3-.7,2.4-2.2,4,0,.3.4,2.2-.5,3.4-.7.5-.1,1-.1,1.5-.2-.1.5-.3.9-.4,1.4,0,.5,0,1,0,1.5.4-.2.8-.4,1.2-.5,1.2-.1,2.4-.2,3.6-.3.7,0,1.5.2,2.2,0,.7-.2,1.3-.8,1.9-1.3-.6-.3-1.3-.5-1.7-.9-1.3-1.1-2.4-2.5-3.7-3.5-1.2-1-2.6-1.7-3.9-2.5-.9-.6-1.7-1.2-2.5-1.8-.5-.3-1-.7-1.5-1-.3.5-.7,1-.8,1.6-.3,2.5-2.6,2.1-4.1,2.8-.1,0-.7-.5-.8-.9-.2-.8-.1-1.7-.5-2.4-.3-.6-1.1-1-1.7-1.5-.2.8-.4,1.6-.7,2.4-.2.5-.5,1.3-.7,1.2-.6,0-1.2-.3-1.6-.7-1-1-1.8-2.2-2.7-3.2-.9-1-1.9-1.9-2.7-3,2.1.2,1.4-1.3,1.5-2.2,0-.2-.8-.7-1.1-.6-1.3.4-1.2,1.2-.5,2.2,0,.1,0,.4,0,.5-.4-1-.9-2-1-3,0-.2,1.4-.6,2.2-.9.8-.3,1.6-.5,2.5-.7.2,0,.6-.1.7,0,.4.3.7.7,1,1.1.2-.9.8-1.8.6-2.5-.6-1.9.7-3.3,1.8-3.2,3.3.3,4.7-2.4,7.1-3.7.5-.3,1-.6,1.5-.7.7-.2,1.9,0,2.2-.4.4-.5.4-1.9,0-2.2-.6-.5-1.8-.8-2.5-.5-1.6.6-1.6,0-1.2-1.2,0-.2-.1-.7-.2-.7-.6,0-1.3,0-1.9,0,.7-.3,1.4-.6,2-1,.2-.1,0-.7,0-1,0-.5,0-.9,0-1.4-.2-1.8,3.1,1,2.4-1.8,0-.3,2-1.2,3.1-1.6,1.7-.5,3.4-.7,5.1-1,.6-.1,1.4-.4,1.8-.1,2.4,1.3,4.8,1.2,7.3.6.9-.2,2,.4,2.9.8.8.4,1.2.9.2,1.9-2.1,2.3-1.8,3.3.5,5.4.4.3,0,1.4,0,2.2,0,1.4-.2,2.7-.4,4.2-2.3-.2-1.4,1.5-1.5,2.4,0,.3.7,1,.9,1,.5-.2,1.1-.7,1.1-1.1,0-.7-.3-1.5-.5-2.2.8,0,1.7.2,2.4,0,.4-.1.9-1,.7-1.3-.2-.5-.9-.8-1.4-1.2.8,0,1.6-.1,2.5,0,.4.6.7,1.1,1.1,1.5,0,0,.5-.3.7-.4-.5-.4-1.1-.8-1.6-1.2.2-1.8.4-3.5.5-5.3,0-.2-1-.7-1.5-.7-1.5,0-1.4-.7-.9-1.7.1-.2.4-.4.6-.6.6-.9,1.2-1.8,1.8-2.6.8,1.3,2,2.6,2.3,4,.4,2.4.1,5,.1,7.5,0,10.2,0,20.4,0,30.7,0,1.7.5,3.3.7,5,0,.2-.8.5-1.2.6-.7,0-1.4,0-2.1-.1.5-.4,1.3-.7,1.4-1.2.3-1,.2-2.1.3-3.1-.6.3-1.4.6-1.9,1.1-.7.6-1.5,1.2-1.9,1.9-.6,1-1.4,1.9.6,2.8,1.5.6,2.6,2.4,3.8,3.7.1.1-.3.8-.6,1.1-2,2.3-1.9,3.4.7,4.9.5.3.9.9,1.3,1.3-.9.2-1.7.7-2.6.7-.7,0-1.4-.8-2.1-.9-1.2-.1-2.9-.6-2.5,1.8,0,.3,0,.7-.3.9-1.1,1.3-1.1,1.3.2,2.2.3.2.4.6.6.8-2.4.8-.5,2.7-.9,4-.5,1.6,1.3,2.7,2.8,1.7,1-.7,1.7-2,2.6-3,1.1-1.2.6-1.5-.7-1.4-1.6.1-2-.4-1.1-1.8,0-.1,0-.3.1-.5.5-.9.9-1.8,1.4-2.6.3,1,.5,2,.8,3,.1.4,0,1.1.2,1.3,2.7,1.9.1,3.4-.4,5-.3,1-1,2-.8,2.9.3,1.9,1.2,3.8,1.5,5.8,0,.5-1,1.2-1.3,1.9-.6,1.4.1,3.9-2.8,3.3,0,.3-.1.6,0,.9.1.4.3.9.6,1.1,2.2,1.9,1.8,3.6-.6,4.9-.7-.4-1.3-.7-1.8-.9,0,0-.2.2-.4.4.5.2,1,.5,1.6.7.2,0,.3,0,.5,0M590,102.4c-1.2-2.5.2-4.6,1.3-6.7.7-1.3.5-2.3-.9-2.3-1.3,0-2.7.6-3.9,1-.2,0-.3,1.4-.2,1.4,2.6.8.8,2.2.4,3.2-.3.7-1.2,1.1-1.7,1.8-.4.6-.7,1.4-1,2,.7.3,1.4.8,2.1.8,1.7,0,2,.7,1.8,2.4-.1,1.1.4,2.4,1.1,3.3.3.3,1.8-.3,2.7-.4-.3-.5-.7-.9-.8-1.4-.2-.5-.3-1.3,0-1.5,1.5-1.4,1.3-2.5-.8-3.7M560.9,92.5c3.3.5,3.9,0,3.3-2.9-.1-.6.1-1.2.3-1.8.4-1.9.9-3.8,1.3-5.8.1-.6,0-1.2-.2-1.8-.6.1-1.1.3-1.7.4-2.6.4-3,3.1-2.9,4.4.2,2.4-.5,2.4-2.3,2.4-.6,0-1.3.8-1.8,1.4-.2.2,0,1.1.2,1.2.6,0,1.5.2,1.8-.1,1.7-1.8,1.1,0,1.3.7,0,.5.3.9.5,2M577.1,101.1c1.4,1.2,2.8.6,3.2-.6.3-1-.6-2.4-.9-3.7-.9.3-2,.3-2.5.8-.9.9-2,2.2.2,3.5M585.3,126.9c-1.6.5-3.2,1-4.8,1.7-.3.1-.3.9-.4,1.3,1.4.2,3,.9,4.2.5,1.1-.3,2.4-1.6,1-3.6M576,114.8c1.1,0,2.3.2,3.4,0,.4,0,.6-1.2.7-1.8,0-.2-.6-.8-.9-.8-1,0-2,0-2.8.6-.5.4-.7,1.4-.4,2.1M581.5,92.8c-.3-.4-.6-.7-.8-1.1-.7.8-1.6,1.5-2.1,2.5-.2.4.2,1.5.7,1.7.4.2,1.4,0,1.7-.5.5-.6.5-1.5.5-2.6M580.7,89.8c0-.4,0-.7,0-1.1,0-.7,0-1.5,0-2.2-.4,0-.9,0-1.1.1-.6.5-1.5,1.1-1.5,1.7-.1,1.5,1,2,2.7,1.5M580.4,143.4c.1-.9.2-1.8.3-2.7-.6,0-1.4-.2-1.6.1-.9,1.1-1,2.2,1.3,2.6M577.6,132.4c-.4.3-.8.6-1.2,1,.9.4,1.8.9,2.8,1.2.2,0,.6-.5.9-.8-.6-.4-1.3-.9-2.5-1.3M576.5,78c.8-.3,1.6-.5,2.4-.8-.1-.3-.2-.8-.3-.8-1.1,0-2.2,0-3.3,0-.1,0-.2,1-.2,1.5,0,.2.7.2,1.3,0M574.1,72.2c-.5.6-1.1,1.1-1.6,1.7.8,0,1.6.1,2.4.2-.2-.7-.3-1.5-.8-1.9M585.5,89.2c.8,0,1.6.2,2.5.3v-1.1c-.8,0-1.6.2-2.5.8M570.8,87.6c-.2-.8-.5-1.6-.7-2.5-.1.8-.3,1.6-.4,2.5,0,.4,0,.9.2,1.3.3-.2.6-.5.9-1.3M588.4,85.9c-.3-.6-.6-1.2-1-1.8-.2.7-.5,1.4-.7,2.2.5,0,.9,0,1.6-.4M562.8,108.2c-.5.2-.9.4-1.4.7.4.3.7.7,1.1,1,.3-.5.6-1.1.3-1.6Z"/>
    <path d="M356.2,5c2.7,0,5.2-.1,7.8-.1,2.6,0,5.3.3,7.9.4.7,0,1.5,0,2.2-.3,1.9-.5,2.9.3,3.2,2.5,0,.5.8,1,1.4,1.2,1.6.7,1.8,2.6.6,3.8-2.6,2.6-5.2,5.2-7.5,8.1-3,3.9-5.6,8.1-8.4,12.1-.3.4-.9.5-1.3.8-.5.3-1.3.6-1.4,1-.5,1.9-.7,3.7-2.5,5.3-1.7,1.5-2.8,3.6-5,4.7-.6.3-.8,1.3-1.2,2-.7,1.4-1.1,3.1-2.1,4-2,1.8-4,3.6-7.2,3.4-4.2-.2-8.4.4-12.7.4-3.8,0-6.2-4-4.4-7.4,1-1.8.3-4.9,3.6-5.3,0,0,.3-.3.2-.4-.8-3.5,2.2-5.9,2.8-9,0,0,0-.2,0-.3,2-2.8,4-5.7,5.9-8.6.4-.5.5-1.4.3-2-.3-1.3-.5-2.3,1.3-2.9.7-.2.8-1.9,1.3-3,.4-1,.9-2,1.4-3,.5-.9,1-1.8,1.6-2.6.5-.6,1.1-1.2,1.7-1.7.3-.3.8-.5.7-.7-.6-3.7,2.7-1.9,3.9-2.4,1.7-.7,3.8-.2,5.9,0M330.5,45.8c-.7-.2-1.3-.5-2-.7,0,.6.1,1.1.2,1.7.5-.2,1-.4,1.8-.9M378.6,11.5c.3-.6.6-1.2.8-1.8,0,0-.5-.3-.8-.4-.2.7-.4,1.5,0,2.2Z"/>
    <path d="M557.6,2.1c3.1-.6,5.9-1,8.6-1.8,1.2-.3,1.8-.6,2.7.6,1.3,2,3.4,1.3,5.1.9,1.4-.3,2.4-.6,1.7,1.4,0,.3.1.7.2,1,.3-.2.6-.4.9-.6.1,0,.5,0,.5,0,.4,2.1,1.4,4.2-.7,6.1-1.5,1.4-2.5,3.3-3.7,5-.3.4-.7,1-1.1,1-1.6.2-2,.7-1.2,2.2.2.5-.2,1.6-.7,2.1-1.3,1.3-2.8,2.4-4.1,3.7-.3.3-.4.9-.6,1.4-.4.9-.8,1.9-1.4,2.7-.8,1.1-3.6,5.4-4.1,6.7-.2.4-.7.7-1.1,1-.4.4-.9.8-1,1.3-.2,1.1.4,2.9-1.8,1.5-.2-.1-.8,0-.9.3-.8,1.6-1.5,3.2-2.2,4.8-1.7,4-3.7,5.4-8.1,5.9-2.4.3-4.8.8-7.2,1.2-.3,0-.7-.1-1-.2-.9,0-1.6-1.3-2.7.4-.8,1.3-5-.9-5.1-2.8-.1-2.6-.4-5.2,2-7.1.4-.3.7-.9.7-1.3-.1-1.8,0-3.4,2-4.1.3-.1.8-.6.7-.8-.7-2.7.9-4.7,2.2-6.8.7-1.1,1.6-2,2.2-3.2,1-2,1.9-4,2.7-6,.6-1.5.6-3.3,2.7-3.8.3,0,.4-.9.6-1.3.7-1.3,1.6-2.5,2.3-3.7.4-.7.9-1.5,1-2.3.2-1.4-.6-3.2,2-3,.2,0,.8-1.4.7-2.1-.2-1.9.8-1.8,2.1-1.5,1.6.4,3.2.7,5.1,1M542.7,38.1c-.1-.6-.3-1.3-.4-1.9-1,.7-2,1.3-2.8,2.2-.2.2.2,1.6.3,1.6,1.1,0,2.7.7,3-1.8M549.6,16.4c0-1,.2-2,.2-3,0-.4-.3-1-.7-1.3-.3-.2-1.2,0-1.2,0-.1,1.3-.3,2.7-.2,4,0,.5.8.9,1.2,1.3.1-.2.3-.5.7-1M550.4,40.3c-.5-.8,1.1-2.7-1.2-2.4-.2,0-.4,1.5-.4,2.3,0,.2,1,.4,1.6,0M557.6,11.7c-.5,0-1.1,0-1.6,0,0,.2,0,.5,0,.7.4-.1.8-.3,1.5-.7Z"/>
    <path d="M96.8,24.1c1.6-.9,2.9-2.2,4.4-2.7,2.9-.9,5.9-1.4,8.9-2.1.1,0,.3,0,.4,0,1.1,1.8,2.2,3.6,3.4,5.3,1.2,1.8,2.4,3.6,3.9,5.2,1.7,1.9,3,3.7,2.2,6.4,0,.3.3,1,.4,1,2.5-.4,1.6,1.5,1.7,2.6.2,2.2.5,4.4.5,6.6,0,3-1.6,5.7-2.4,8.5-1,3.2-2.9,6.9-6.6,8.8-3.2,1.7-6.3,3.5-9.8.7-.7-.5-1.8-.5-2.7-.7-.6-.2-1.5-.2-1.7-.5-1-2.5-3.6-3.5-5.1-5.7-2.2-3.3-2.8-7.1-4.6-10.5-.1-.2,0-.9,0-.9,1.4-.6,2.8-1.1,4.2-1.7.8-.3,2.7.9,2.1-1.2-.3-1.1-1.7-2.1-2.8-2.6-1-.4-2.4,0-3.6-.1-.4,0-.7-.5-1.1-.7.3-.2.6-.4,1-.6,1.8-1.1,1.5-3.1,1.7-4.7.3-2.8.3-5.6,3.7-6.7.5-.2.5-1.5.8-2.3.2-.5.5-.9,1.1-1.4M108.7,42.8c.2-.9.3-1.8.5-2.7-.8.4-1.6.7-2.4,1.1-.4.2-.8.5-1.1.8-.4.3-.6.8-1,1.2.5.2,1.1.7,1.6.7.7,0,1.4-.5,2.4-1M97.9,50.8c-.3-.3-.6-.5-.8-.8-.6-.9-1.1-1.9-1.7-2.8,0,1.4-.2,2.8-.3,4.3,0,.2,0,.5.1.5,1,.3,2,.5,3,.7-.1-.4-.2-.9-.3-1.9M101.5,46.1c0-.2.3-.5.3-.7-.5-1.2,2.7-2.4,0-3.3-.3-.1-1.4,2-2,3.1,0,0,.8.6,1.8.9M108.7,61.5c-.8.2-1.6.4-2.5.7.7.7,1.3,1.9,2,2,2.5.2,1-1.6.5-2.7M94.4,40c.5,0,.9-.1,1.4-.2-.6-.8-1.2-1.7-1.9-2.5,0,0-.8.3-.8.3.2.8.5,1.6,1.3,2.4M100.4,33.4c.5.4,1,.7,1.4,1.1l.5-.8c-.5-.2-1.1-.4-1.9-.3Z"/>
    <path d="M501.5,114.3c-.6.2-1.2.5-1.8.5-1.6,0-2.5.4-1.8,2.2,0,0,.2.2.2.2-1.4,2.4-1.8,4.1,2,3.2,0,0,.4.7.2.9-.3.3-.7.5-1.1.7-.7.3-1.4.5-2.1.8.4.4.9.9,1.3,1.3.3.3.7.9.6,1.1-.4.6-1,1.1-1.5,1.6-.3-.3-.6-.7-.9-1-2.4-2.5-1.6-5.3-.6-8,.3-.8.6-1.7.5-2.5-.4-2.7-.4-5.2,1.6-7.5.4-.4.9-2,1.2-3.1.6-1.8,1.2-3.5,1.9-5.2,1.7-3.8,3.4-7.6,5.2-11.3.2-.4.8-1.1,1-1.1.6.2,1.2.7,1.7,1.1-.4.3-.9.5-1.2.9-.4.7-1,1.5-.9,2.2,0,.6,1,1.1,1.6,1.6.2.2.7.1,1,.2-.3.3-.5.8-.8.9-1.6.5-1.5,1.8-1.9,3.1-1.1,3.1-.9,5.9,0,9.2.9,3.3-1.9,6.8-5.2,8-.1-.6,0-1.1,0-1.5-.6.3-1.1.6-1.7.9.5.2,1.1.5,1.6.7Z"/>
    <path d="M603.2,86.8c2.4,2.2.4,4.7.3,7,0,2.6-.4,5.2-.7,7.8,0,.7-.6,1.4-.9,2.1-.3-.4-.6-.8-1-1.3-.6-.8-1-2.3-2.5-.9-.3.3-1.2,0-1.8-.1.3-.6.6-1.3,1-1.7.6-.4,1.4-.6,2.1-.9,1.7-.7,3.2-4.3,2.3-5.7-.1-.2-.8-.2-1,0-.5.4-.9,1-1.4,1.3-.9.6-1.9,1.1-2.8,1.6.3-1.3.3-2.8.9-4,1.1-2.2,1.7-4.4.6-6.7-.2-.3-.1-.8,0-1.2.7-1.8,1.5-3.6,2.2-5.4.2-.4.3-.8.4-1.2,0,.6.2,1.1.2,1.7,0,1.1,0,2.2-.2,3.5-1.6,1.8-1.1,4.5.7,5.4,1.7.9,1.8-.1,1.7-1.4Z"/>
    <path d="M662,128.6c.2-.4.2-.9,0-1.1-1.6-1.1-3.3-2.2-5-3.1-2.2-1.2-4.5-2.3-6.7-3.5-.9-.5-1.7-1.3-2.5-1.9.9,0,1.8.1,2.7.3,4.1.7,7.6,2.5,10.6,5.3.3.2.5.6.8.7,3.1.8,3,2.3,1.1,4.3-.5.5-1.2.7-1.9,1.1.2-.7.5-1.4,1-2.1Z"/>
    <path d="M594.5,166.4c-2.1,1.7-3-.4-4.1-1.5-.1-.1.6-1.1.9-1.6.3-.4.6-.7,1-.9.5-.3,1.3-.6,1.4-.5.4.4.6,1,.6,1.6,0,.9,0,1.9.2,2.9Z"/>
    <path d="M445.5,197.1c.3-2,.6-3.9-.7-5.6,0-.1.4-.8.6-.8.7,0,1.8.4,1.8.6,0,1.9,0,3.7-.2,5.6,0,.2-.9.3-1.6.3Z"/>
    <path d="M602,76.2c-1-.3-1.8-.8-2.6-1.2-.5-.3-1-.5-1.5-.8.4-.4.7-1,1.1-1.1.6-.2,1.7-.3,1.9,0,.6.9.8,2,1,3.1Z"/>
    <path d="M558.1,76.9c.3.9.6,1.5.9,2.2-.4,0-1,.2-1.3,0-.7-.5-1.3-1.1-1.7-1.8-.2-.4,0-1.1,0-1.6,0-.9.2-1.7.3-2.6.1.7.1,1.4.4,2,.3.6,1,1,1.5,1.8Z"/>
    <path d="M593.8,172c-.2,1.1-.5,1.9-.7,2.7-.5-.3-1.3-.5-1.5-.9-.3-.6-.3-1.8,0-1.9.6-.3,1.5-.2,2.2,0Z"/>
    <path d="M444.2,188.3c-.4-.4-1-.9-.9-1.4.1-.6.6-1.3,1.1-1.7.2-.2.9,0,1.3,0-.1.7-.2,1.4-.5,2-.2.4-.6.6-1.1,1.1Z"/>
    <path d="M625.2,79.1c.6-.7,1.3-1.2,1.9-1.6,0,.3.4.7.3,1-.4,1-1,1.9-1.5,2.9-.2-.6-.5-1.3-.7-2.2Z"/>
    <path d="M601,82.9c2.4.2,1.6,2.3,2.1,3.7-.8-1.1-1.4-2.4-2.1-3.7Z"/>
    <path d="M239.2,120.9c0-.3.1-.4.2-.5.6-.4,1.2-.7,1.8-1.1,0,.3,0,.8,0,.9-.6.4-1.3.6-2,.7Z"/>
    <path d="M605.4,120.9c.3-.9.6-1.5.9-2.1.2.3.8.9.7,1-.5.5-1.1.9-1.6,1.1Z"/>
    <path d="M384.8,66c.4.6.7,1,1,1.5-.8,0-1.6,0-2.4,0,.4-.5.8-1,1.4-1.4Z"/>
    <path d="M608.3,85.3c.7,0,1.3.1,2,.2-.5.4-.9.8-1.4,1.3-.2-.5-.5-.9-.6-1.5Z"/>
    <path d="M105.6,191.8c-.8-.2-1.7-.4-2.5-.5.7-.4,1.5-.7,2.4-1,.1.6.1,1.1.1,1.5Z"/>
    <path d="M495.3,128.4c-.3.9-.5,1.6-.7,2.3,0-.1-.3-.2-.3-.4,0-.9,0-1.8,0-2.7.4.2.7.4,1,.7Z"/>
    <path d="M666.4,122.5c0,.4-.3,1.1-.5,1-.5,0-1.1-.4-1.6-.7.6-.1,1.2-.2,2.1-.4Z"/>
    <path d="M35.4,88.6c.4.3.7.7,1,1.1-.3.1-.6.3-.8.4,0-.5-.2-.9-.1-1.5Z"/>
    <path d="M355.4,66.6c.4,0,.8,0,1.1.3.3.3.6.8.9,1.1-.5-.1-.9-.2-1.3-.5-.3-.2-.5-.5-.6-.9Z"/>
    <path d="M219.3,198.5c-.2.4-.5.9-.9.9-.5,0-1.1-.2-1.7-.3.4,0,.9-.1,1.3-.2.4-.1.8-.4,1.3-.4Z"/>
    <path d="M147,153.3c.7-.2,1.6-.4,2.4-.5.2,0,.5.1.7.2-.3.1-.6.3-.8.3-.7,0-1.4,0-2.3,0Z"/>
    <path d="M288.7,134.1c-.2.7-.5,1.1-.7,1.6-.1-.2-.4-.4-.3-.4.3-.5.7-.9,1.1-1.1Z"/>
    <path d="M423.3,198.2c-.7,0-1.3,0-1.9,0,.2-.1.4-.4.6-.4.5,0,1,.2,1.3.4Z"/>
    <path d="M377.6,65.5c-.2-.4-.3-.8-.3-1.1.5.5.9.9,1.4,1.4-.3,0-.6-.1-1.1-.3Z"/>
    <path d="M405.7,57.8c-.2.4-.4.7-.7.9-.2-.3-.4-.6-.6-.9.4,0,.8,0,1.4,0Z"/>
    <path d="M602.2,108.9c.7.2,1.3.5,1.9.8-.7-.2-1.4-.5-1.9-.8Z"/>
    <path d="M336.6,202.2c-.5-.1-.8-.3-1-.4.6,0,1.2-.2,1.8-.2.2,0,.5.2.7.4-.4,0-.9.1-1.6.2Z"/>
    <path d="M341.4,111.9c-.6,0-1,0-1.4,0,.5-.3.9-.7,1.4-.9.3,0,.7.2,1.1.4-.3.1-.6.3-1.1.5Z"/>
  </g>
</svg>