<?xml version="1.0" encoding="UTF-8"?>
<svg id="Layer_1" data-name="Layer 1" xmlns="http://www.w3.org/2000/svg" viewBox="0 0 459.88 419.24">
  <path d="M152.51,140.66c-.54-.24-.46.36-.88.7,0,.36-.02.71,0,1.07.39.39,2.25-1.17.88-1.77ZM152.51,140.66c-.54-.24-.46.36-.88.7,0,.36-.02.71,0,1.07.39.39,2.25-1.17.88-1.77ZM152.51,140.66c-.54-.24-.46.36-.88.7,0,.36-.02.71,0,1.07.39.39,2.25-1.17.88-1.77ZM152.51,140.66c-.54-.24-.46.36-.88.7,0,.36-.02.71,0,1.07.39.39,2.25-1.17.88-1.77ZM152.51,140.66c-.54-.24-.46.36-.88.7,0,.36-.02.71,0,1.07.39.39,2.25-1.17.88-1.77ZM152.51,140.66c-.54-.24-.46.36-.88.7,0,.36-.02.71,0,1.07.39.39,2.25-1.17.88-1.77ZM152.51,140.66c-.54-.24-.46.36-.88.7,0,.36-.02.71,0,1.07.39.39,2.25-1.17.88-1.77ZM152.51,140.66c-.54-.24-.46.36-.88.7,0,.36-.02.71,0,1.07.39.39,2.25-1.17.88-1.77ZM152.51,140.66c-.54-.24-.46.36-.88.7,0,.36-.02.71,0,1.07.39.39,2.25-1.17.88-1.77ZM152.51,140.66c-.54-.24-.46.36-.88.7,0,.36-.02.71,0,1.07.39.39,2.25-1.17.88-1.77ZM152.51,140.66c-.54-.24-.46.36-.88.7,0,.36-.02.71,0,1.07.39.39,2.25-1.17.88-1.77ZM152.51,140.66c-.54-.24-.46.36-.88.7,0,.36-.02.71,0,1.07.39.39,2.25-1.17.88-1.77ZM152.51,140.66c-.54-.24-.46.36-.88.7,0,.36-.02.71,0,1.07.39.39,2.25-1.17.88-1.77ZM152.51,140.66c-.54-.24-.46.36-.88.7,0,.36-.02.71,0,1.07.39.39,2.25-1.17.88-1.77ZM152.51,140.66c-.54-.24-.46.36-.88.7,0,.36-.02.71,0,1.07.39.39,2.25-1.17.88-1.77ZM152.51,140.66c-.54-.24-.46.36-.88.7,0,.36-.02.71,0,1.07.39.39,2.25-1.17.88-1.77ZM152.51,140.66c-.54-.24-.46.36-.88.7,0,.36-.02.71,0,1.07.39.39,2.25-1.17.88-1.77ZM152.51,140.66c-.54-.24-.46.36-.88.7,0,.36-.02.71,0,1.07.39.39,2.25-1.17.88-1.77ZM152.51,140.66c-.54-.24-.46.36-.88.7,0,.36-.02.71,0,1.07.39.39,2.25-1.17.88-1.77ZM152.51,140.66c-.54-.24-.46.36-.88.7,0,.36-.02.71,0,1.07.39.39,2.25-1.17.88-1.77ZM152.51,140.66c-.54-.24-.46.36-.88.7,0,.36-.02.71,0,1.07.39.39,2.25-1.17.88-1.77ZM152.51,140.66c-.54-.24-.46.36-.88.7,0,.36-.02.71,0,1.07.39.39,2.25-1.17.88-1.77ZM152.51,140.66c-.54-.24-.46.36-.88.7,0,.36-.02.71,0,1.07.39.39,2.25-1.17.88-1.77ZM152.51,140.66c-.54-.24-.46.36-.88.7,0,.36-.02.71,0,1.07.39.39,2.25-1.17.88-1.77ZM152.51,140.66c-.54-.24-.46.36-.88.7,0,.36-.02.71,0,1.07.39.39,2.25-1.17.88-1.77ZM152.51,140.66c-.54-.24-.46.36-.88.7,0,.36-.02.71,0,1.07.39.39,2.25-1.17.88-1.77ZM152.51,140.66c-.54-.24-.46.36-.88.7,0,.36-.02.71,0,1.07.39.39,2.25-1.17.88-1.77ZM152.51,140.66c-.54-.24-.46.36-.88.7,0,.36-.02.71,0,1.07.39.39,2.25-1.17.88-1.77ZM152.51,140.66c-.54-.24-.46.36-.88.7,0,.36-.02.71,0,1.07.39.39,2.25-1.17.88-1.77ZM152.51,140.66c-.54-.24-.46.36-.88.7,0,.36-.02.71,0,1.07.39.39,2.25-1.17.88-1.77ZM152.51,140.66c-.54-.24-.46.36-.88.7,0,.36-.02.71,0,1.07.39.39,2.25-1.17.88-1.77ZM152.51,140.66c-.54-.24-.46.36-.88.7,0,.36-.02.71,0,1.07.39.39,2.25-1.17.88-1.77ZM152.51,140.66c-.54-.24-.46.36-.88.7,0,.36-.02.71,0,1.07.39.39,2.25-1.17.88-1.77ZM152.51,140.66c-.54-.24-.46.36-.88.7,0,.36-.02.71,0,1.07.39.39,2.25-1.17.88-1.77ZM152.51,140.66c-.54-.24-.46.36-.88.7,0,.36-.02.71,0,1.07.39.39,2.25-1.17.88-1.77ZM152.51,140.66c-.54-.24-.46.36-.88.7,0,.36-.02.71,0,1.07.39.39,2.25-1.17.88-1.77ZM152.51,140.66c-.54-.24-.46.36-.88.7,0,.36-.02.71,0,1.07.39.39,2.25-1.17.88-1.77ZM152.51,140.66c-.54-.24-.46.36-.88.7,0,.36-.02.71,0,1.07.39.39,2.25-1.17.88-1.77ZM152.51,140.66c-.54-.24-.46.36-.88.7,0,.36-.02.71,0,1.07.39.39,2.25-1.17.88-1.77ZM152.51,140.66c-.54-.24-.46.36-.88.7,0,.36-.02.71,0,1.07.39.39,2.25-1.17.88-1.77ZM152.51,140.66c-.54-.24-.46.36-.88.7,0,.36-.02.71,0,1.07.39.39,2.25-1.17.88-1.77ZM152.51,140.66c-.54-.24-.46.36-.88.7,0,.36-.02.71,0,1.07.39.39,2.25-1.17.88-1.77ZM152.51,140.66c-.54-.24-.46.36-.88.7,0,.36-.02.71,0,1.07.39.39,2.25-1.17.88-1.77ZM152.51,140.66c-.54-.24-.46.36-.88.7,0,.36-.02.71,0,1.07.39.39,2.25-1.17.88-1.77ZM152.51,140.66c-.54-.24-.46.36-.88.7,0,.36-.02.71,0,1.07.39.39,2.25-1.17.88-1.77ZM152.51,140.66c-.54-.24-.46.36-.88.7,0,.36-.02.71,0,1.07.39.39,2.25-1.17.88-1.77ZM152.51,140.66c-.54-.24-.46.36-.88.7,0,.36-.02.71,0,1.07.39.39,2.25-1.17.88-1.77ZM152.51,140.66c-.54-.24-.46.36-.88.7,0,.36-.02.71,0,1.07.39.39,2.25-1.17.88-1.77ZM152.51,140.66c-.54-.24-.46.36-.88.7,0,.36-.02.71,0,1.07.39.39,2.25-1.17.88-1.77ZM152.51,140.66c-.54-.24-.46.36-.88.7,0,.36-.02.71,0,1.07.39.39,2.25-1.17.88-1.77ZM152.51,140.66c-.54-.24-.46.36-.88.7,0,.36-.02.71,0,1.07.39.39,2.25-1.17.88-1.77ZM152.51,140.66c-.54-.24-.46.36-.88.7,0,.36-.02.71,0,1.07.39.39,2.25-1.17.88-1.77ZM152.51,140.66c-.54-.24-.46.36-.88.7,0,.36-.02.71,0,1.07.39.39,2.25-1.17.88-1.77ZM152.51,140.66c-.54-.24-.46.36-.88.7,0,.36-.02.71,0,1.07.39.39,2.25-1.17.88-1.77ZM152.51,140.66c-.54-.24-.46.36-.88.7,0,.36-.02.71,0,1.07.39.39,2.25-1.17.88-1.77ZM152.51,140.66c-.54-.24-.46.36-.88.7,0,.36-.02.71,0,1.07.39.39,2.25-1.17.88-1.77ZM152.51,140.66c-.54-.24-.46.36-.88.7,0,.36-.02.71,0,1.07.39.39,2.25-1.17.88-1.77ZM152.51,140.66c-.54-.24-.46.36-.88.7,0,.36-.02.71,0,1.07.39.39,2.25-1.17.88-1.77ZM152.51,140.66c-.54-.24-.46.36-.88.7,0,.36-.02.71,0,1.07.39.39,2.25-1.17.88-1.77ZM152.51,140.66c-.54-.24-.46.36-.88.7,0,.36-.02.71,0,1.07.39.39,2.25-1.17.88-1.77ZM152.51,140.66c-.54-.24-.46.36-.88.7,0,.36-.02.71,0,1.07.39.39,2.25-1.17.88-1.77ZM152.51,140.66c-.54-.24-.46.36-.88.7,0,.36-.02.71,0,1.07.39.39,2.25-1.17.88-1.77ZM152.51,140.66c-.54-.24-.46.36-.88.7,0,.36-.02.71,0,1.07.39.39,2.25-1.17.88-1.77ZM152.51,140.66c-.54-.24-.46.36-.88.7,0,.36-.02.71,0,1.07.39.39,2.25-1.17.88-1.77ZM152.51,140.66c-.54-.24-.46.36-.88.7,0,.36-.02.71,0,1.07.39.39,2.25-1.17.88-1.77ZM152.51,140.66c-.54-.24-.46.36-.88.7,0,.36-.02.71,0,1.07.39.39,2.25-1.17.88-1.77ZM152.51,140.66c-.54-.24-.46.36-.88.7,0,.36-.02.71,0,1.07.39.39,2.25-1.17.88-1.77ZM152.51,140.66c-.54-.24-.46.36-.88.7,0,.36-.02.71,0,1.07.39.39,2.25-1.17.88-1.77ZM152.51,140.66c-.54-.24-.46.36-.88.7,0,.36-.02.71,0,1.07.39.39,2.25-1.17.88-1.77ZM152.51,140.66c-.54-.24-.46.36-.88.7,0,.36-.02.71,0,1.07.39.39,2.25-1.17.88-1.77ZM152.51,140.66c-.54-.24-.46.36-.88.7,0,.36-.02.71,0,1.07.39.39,2.25-1.17.88-1.77ZM152.51,140.66c-.54-.24-.46.36-.88.7,0,.36-.02.71,0,1.07.39.39,2.25-1.17.88-1.77ZM152.51,140.66c-.54-.24-.46.36-.88.7,0,.36-.02.71,0,1.07.39.39,2.25-1.17.88-1.77ZM152.51,140.66c-.54-.24-.46.36-.88.7,0,.36-.02.71,0,1.07.39.39,2.25-1.17.88-1.77ZM152.51,140.66c-.54-.24-.46.36-.88.7,0,.36-.02.71,0,1.07.39.39,2.25-1.17.88-1.77ZM458.45,68.03l1.43-.53c-.08-.29-1.84-2.64-2.11-2.89-.6-.49-2.26-.44-2.86-.7-.14-.07-2.09-1.17-2.45-1.39-.83-.49-.85-1.56-1.79-1.58l.17-.71c.9-.1,2.01.37,2.64-.53-1.14-.61-.34-1.7-.54-2.31-1.29-3.86-4.71-4.25-7.06-6.36-2.59-2.35-8.2-7.7-10.27-10.27-2.55-3.13-4.63-7.62-7.11-10.97-5.53-7.4-12.99-11.62-19.12-18.44-2.21-2.45-4.44-6.22-6.67-8.4-.95-.94-1.99-.27-1.84-2.94l-63.54,75.71c-.1.63,6.36,5.68,7.38,6.65,5.03,4.73,8.59,10.15,13.11,15.26l14.3-1.85c1.12-.07,1.63,2.07,1.63,2.91v6.9l-37.19-5.31,13.11-1.6c-4.74-6.75-10.05-12.45-16.89-17.16-1.56-.27-11.45,14.63-14.2,15.85l-9.15-1.33c1-3.16-.73-4.27-2.28-6.56,1.33-.65,1.65-.99,2.3-2.31.17,0,2.3,2.31,2.3,2.65v5.49c6.16-5.41,11.28-11.84,15.94-18.55-5.92-6.89-10.44-14.98-17.53-20.77l-5.12-3.55v5.14c0,.2-.49.39-.19,1.21.32.92,1.56,1.77,2.11,2.53.71,1.02,1.29,2.23,1.96,3.27.48.73,1.31.26,1.11,2.21-.1,1.04-1.97.73-2.86,1.41-.68.53-.65,1.22-1.07,1.8-.8,1.09-1.31.36-1.45,2.81-.05,1.12-.22,3.03-.22,3.96-.02.99,1.8,3.72-.27,4.37-1.6-.97-.58-2.57-.7-3.74-.48-4.46-.9-9.27-1.68-13.74-.15-.77-1.48-1.58-1.62-2.64-.2-1.39-.03-2.5-.77-4.18-1.33-3.01-4.81-5.87-6.67-8.4-.31-.41-1.26-1.58-1.31-1.67-.49-.9.07-2.57-1.77-2.5-2.18,1.79-1.31,3.95-1.28,6.22.22,11.26.9,22.79,1.79,34,.2,2.59.85,5.24,1.04,7.84.02.71-.58.88-1.22.88l-78.91-12.18-.94-.87c.19-4.46.14-8.88-1.11-13.21-.65-.58-2.92,3.28-3.42,3.72,1.31,3.1,1,6.36,1.99,9.57-.27.34-1.14.2-1.58.17-14.27-1.05-30.99-5.14-45.39-7.4-16.5-2.59-33.03-4.92-49.51-7.53-14.74-2.36-29.47-4.85-44.17-7.38l.7,3.54c-.56.37-1.51-.37-1.39.51.46,3.16,2.13,6.92,2.82,10.12,2.53-.95,5.37-2.86,6.56.68.24.7,0,1.7.24,2.07.12.2.8.19.88.58.07.46-.07,2.45-.26,3.04,2.47-.34-.46,1.89-.59,3.06-.07.56.36,1.12.27,1.68-.05.29-1.11.05-.73.92l1.05.71-1.07.17c-.12.78.77,1.17.66,2.04-.09.87-.94,3.86-1.43,4.64-.58.95-1.63,1.87-2.77,2.01l.71.88c-.58,1.43-2.55,1.04-3.01,1.58-.34.39-.85,2.28-.53,2.84-1.04.41-1.04-.63-1.31-.7-2.53-.61-4.34,1.46-4.18,3.89-1.51-.03-3.93-4.73-4.98-5.66-.68-.61-1.79-.41-2.23-1.31-.65-1.89.58-3.69.66-5.27.14-2.35-1.38-3.93-2.21-5.94-3.09-7.6-1.89-12.18-1.34-19.92.1-1.6-.49-6.46.58-7.24.71-.53,1.73.41,1.9-.37-2.65-.32-6.62-1.97-9.12-1.14-3.27,1.07-2.89,4.9-3.38,7.6-1.16,6.24-1.55,12.47-2.38,18.86C29.06,173.45,15.4,264.66,2.07,355.87c-.51,3.49-1.87,8.01-2.06,11.43-.24,4.32,2.82,4.9,6.21,5.39,36.29,5.27,73.9,6.9,110.1,12.5.66.1,1.31.36,1.99.31l-1.05,1.58,1.6.88c-.56,2.06,2.69-.58,1.94-1.41-.7-.02-1.26.29-1.05-.71l71.92,8.16.31-4.22c-1.55-.8-8.04-1-8.74-2.23-1.36-2.36,3.83-2.38,4.61-2.79.39-.19,4.03-3.79,4.32-4.27.7-1.11,1.11-2.98,1.63-4.22l2.48,1.41c-3.83-8.38,9.24-10.8,9.08-1.65,0,.7-.51,1.39-.48,2.14.02.2.6,2.57.7,2.79.53,1.29,1.84.77,2.23,1.31.12.15-.09,3.38.22,3.86.09.15,1.28.32,1.73.92,1.26,1.67.03,2.72-1.34,3.69l-4-.31.36,1.07c-1.02.03-1.99.19-2.67-.71-.25-.05-.22.34-.17.53.61,1.94,4.8,4.47,6.72,4.98,55.05,6.82,109.86,14.68,164.91,21.46,3.91.48,8.06,1.82,12.08,1.38,2.38-.27,3.38-1.8,6.07-1.14.78.19,1.16.77,1.9.78l-.34-1.62-3.91-.51,3.64-34.12c.19-1.39,2.26-1.6,3.45-1.33l-.36-1.05h1.05c.82-.71-2.74-2.13-3.54-1.05l1.96-20.2c-1.38-.85-2.82-1.62-4.08-2.65-2.72-2.23-6.75-6.24-9.22-8.84-5.97-6.34-10.63-13.86-14.52-21.62l-21.45-5.17-.56.24-1.02,3.67c-.56.1-.37-.49-.37-.88.05-1.29.63-2.45.75-3.71,3.4.41,6.79,1.28,10.12,2.07,12.76,3.04,28.55,8.72,41.43,9.27.6.02,1.31.09,1.53-.6l20.6-157.09c-.83.41-1.17-.05-1.77-.53-3.78-2.91-8.33-9.01-12.21-12.59-3.04-2.79-5.58-5.73-10.1-5.31l1.77-.36-1.07-1.77c-.99-.37-.65.87-1.26,1-.12.03-2.21.05-2.45.03-1.41-.09-1.75-1.62-3.03-1.75,1,2.72,3.3,4.97,2.84,8.15l-1.05.02c-.46-3.16-1.89-7.55-4.44-9.57-.48-.37-1.21-.34-1.58-.88l1.22.07.88-.61.71,1.07c-.22-.9.39-1.89.37-2.67-.02-.82-.88-2.01-1.04-3.21-.24-1.87.44-3.4-.05-5.1,2.18,0,3.98-2.82,5.32-4.44.27-.32.24-.9.46-1.12.2-.2,1.79-.71,2.33-1.04,2.53-1.5,1.43-1.79,5-1.19-.71-2.23-.02-5.63,2.69-6.02,2.98-.43,4.42,4.59,3.18,6.39-.85,1.21-4.73-.19-5.87-.37.61,1.9,4.54.41,5.92,1.51.27.22,3.28,4.08,3.32,4.34.17,1.62-2.7,1.26-1.99,2.65,4.54,4.9,8.84,10.09,13.49,14.88.32.34.65.97,1.07.36l5.12-36.33c.19-2.96-.1-5.49-3.45-6.09l-29.85-4.54c2.47-1.17,5.71-1.26,8.23-2.04.66-.2,1.05-.66,1.62-.87,1.36-.49,3.2-.12,3.3-2.04.07-1.67-.99-3.23.32-5.14,1.84-.07,1.48,1.36,1.97,2.09.49.73,1.36,1.14,1.63,2.09l2.41-.66c.15-.22-2.04-3.93-2.11-5.17-.12-1.63,1.55-2.89,1.05-4.74l1.41.02c.14.87-.31,1.7-.27,2.57,0,.27.7,3.81.78,4,.24.49.82.41.92.77.27,1.14-.31,2.43,1.67,2.87,1.36.31,1.41-.88,1.89-1.14.25-.15,2.13-1.12,2.26-1.14.73-.12,2.64.7,3.93.61,1.04-.09,1.68-.75,2.11-.75.48,0,1.24.77,1.96.92,3.61.8,5.27-.9,7.67-3.16,4.37-4.15,7.86-9.46,11.38-14.32-.71-2.91-.99-5.9-2.4-8.59,1.11.65,2.86-1.05,2.86-1.96-.02-.63-.75-.87-.88-1.22-.27-.68-.19-.6-.54-1.36-1.16-2.4-.07-2.11-.17-3.28-.05-.61-.85-.65-.9-.94-.14-.71.15-2.28-.36-3.3,1.62-.41,1.29.54,1.94,1.07,1.92,1.55,2.87,3.23,4.61,4.61,1.12.87,3.45,1.68,4.88,2.48.48.27.31,1.29,2.02.51,2.41-1.11-.68-2.65,0-3.35ZM31.22,348.05c-3.06-4.29.53-7.4,4.83-7.86.85,1.39,2.16.8,3.1,2.76,2.67,5.58-4.42,10.02-7.93,5.1ZM40.56,220.02c-2.36-1.51-3.16-5.66-1.16-7.69,1.53-1.53,4.78-1.43,6.46-.1,5.12,4.01-.82,10.71-5.31,7.79ZM70.49,107.35c-.71.09-1.5-.65-1.41-1.41l1.41,1.41ZM70.85,112.67c-.75.44-2.53-1.34-2.13-1.77.87-.22.77.65,1.17.97.37.31,1.21-.31.95.8ZM72.26,107.7v-.53l.54-.53.53,1.05h-1.07ZM362.7,381.67c4.54-.82,8.13,4.86,3.61,7.87-7.31,4.86-9.81-6.73-3.61-7.87ZM343.43,145.8c1.29,0,2.35,1.07,2.35,2.36s-1.05,2.36-2.35,2.36-2.36-1.05-2.36-2.36,1.05-2.36,2.36-2.36ZM321.61,276.45l.25-.85,26.22,7.59-.25.87-26.22-7.6ZM344.72,295.14c.1-.75-.44-.8-1.07-.71l.9-2.13c1.5.41,1.46,2.26.17,2.84ZM342.79,287.7c-1.31,1.6-1.11-1.85.17-.71.09.09,0,.48-.17.71ZM339.27,174.93c1.28,0,2.31,1.04,2.31,2.31s-1.04,2.3-2.31,2.3-2.31-1.02-2.31-2.3,1.04-2.31,2.31-2.31ZM312.92,142.16c5.2-2.38,5.07,6.07,0,3.72-.73-1.14-.44-2.53,0-3.72ZM312.4,171.57c2.19,2.21-2.3,6.43-3.98,2.74-1.21-2.62,2.48-4.25,3.98-2.74ZM305.22,87.16c1.05.65-.24.9-.12,1.53.12.66,1.43,1.75.32,2.91l-1.09.17-.37-4.01,1.26-.6ZM285.69,137.5c1.31,0,2.36,1.07,2.36,2.36s-1.05,2.38-2.36,2.38-2.38-1.07-2.38-2.38,1.07-2.36,2.38-2.36ZM281.77,166.8c1.31,0,2.36,1.07,2.36,2.36s-1.05,2.38-2.36,2.38-2.36-1.07-2.36-2.38,1.05-2.36,2.36-2.36ZM272.8,126.84h2.13v.36h-2.13v-.36ZM258.19,134.01c2.28,2.28-1.84,6.63-3.84,3.3-1.7-2.82,2.13-5.02,3.84-3.3ZM252.39,162.72c1.34,0,2.43,1.09,2.43,2.43s-1.09,2.41-2.43,2.41-2.41-1.07-2.41-2.41,1.09-2.43,2.41-2.43ZM254.55,188.2l-.53,2.77-.6-.12.53-2.77.59.12ZM249.61,109.49l.51-.02v.71l-1.41.36.9-1.05ZM246.58,110.54v.7c-.85.14-1.5-.15-1.41-1.05l1.41.36ZM245.17,113.03c1.24-.63,2.67.02,3.54,1.05-1.38-.1-2.09-1.31-3.54-.36v-.7ZM246.22,122.59v.36c-.75.02-1.84.2-2.13-.7l2.13.34ZM244.45,114.08l-.43,1.7c-2.14,1.21-2.64-.54-3.01-.65-.59-.15-2.07.43-2.23-.34,2.23-.82,3.74.99,5.66-.71ZM232.8,102.96c.34-.54,2.43-2.13,3.04-2.26,5.09-1.17,8.59,5.71,3.98,8.93-4.69,3.3-9.8-2.06-7.02-6.67ZM235.25,115.15c.54-.15.27.46.46.56.54.34.99.53,1.65.49.54.53-3.11.75-3.54,1.07-.07-1.29,1.79-.36,1.43-2.13ZM236.31,113.72v-1.05h.71v1.05h-.71ZM231.51,108.55l.68.27-.66,1.58-.68-.29.66-1.56ZM229.04,111.62c.51.02.71,1.85,1.02,2.36.05.09,1.39.27-.14.65-.17-.22-2.18-3.08-.88-3.01ZM227.45,119.76l-.53.7-.88-.53,1.41-.17ZM216.46,103.81l.71,1.96-1.41.53c.05-.9.22-1.33-.71-1.6l1.41-.88ZM205.66,127.55c1.14.48-.05-1.87.17-2.13,2.28.68,10.19.7,11.5,2.5.78,1.05.02,3.35,1.97,2.45,1.16,3.95-.39,9.29-4.97,9.93l3.89,9.56h-1.77l.36-1.05-1.58.71-.88-.94-1.56.54-2.67-4.08.68-.85c-2.45.43-2.23-2.58-1.75-4.34.03-.17,1.43-.51.15-.97-.82-.31-.41.8-.63,1.33-.07.14-1.11.68-1.29,1.07-.43.99-.61,2.53-.73,3.62l-.36-2.13-.53,1.05-.19-1.41-.36,1.05-.7-.7.02,1.75c3.35-.07.83,2.21,1.04,3.91l-5.99-.75,4.93-21.56,1.24,1.41ZM194.15,94.61c1.28-.87,3.74,2.16.71,2.67-1.56.27-.85-2.59-.71-2.67ZM194.86,106.29c-.24-1.09-.97-1.26-.36-2.48l1.05.36-.36,1.05c1.77-.31,3.5.31,5.14.39,1.05.05,2.59-1.12,2.67.68-1.7.37-3.55,2.62-5.43,2.06-.58-.17-.94-1.14-1.48-1-.46.14-.2,1.53-1.7,1-1.45-.51-1.02-2.4.46-2.06ZM147.72,132.86c.46,1.19-.24,1.8-.36,2.94l-1.05.26c-.17-.17.58-1.9.73-2.31.17-.48-.44-1.07.68-.88ZM144.2,130.73l.51.73h.71l1.6-1.43c.7,1.39-.27,1.6-.75,2.77-.73.43-2.36-1.21-2.07-2.07ZM143.82,133.21h-.7l-.36-1.05c.65-.12,1.17.39,1.05,1.05ZM108.4,144.92c.78.94,1.63.29,2.4.58.44.17.41.83.65.83.71,0,1.36-.83,2.09.36.25-1.11,1.79-.78,2.84-.7,4.34.31,9,1.72,13.44,1.79.29-1.02,1.02-1.46,1.53-2.42.6-1.14.88-2.65,1.33-3.64.49-1.14.95-1.92,2.06-2.55.94-.54,1.6-.31,2.02-.51,1.21-.54,1.38-3.5,2.13-4.73.61-.15.14.66.58.73.41.05.78-.44,1.38-.07.87.54.78,1.68.9,1.82.1.1,1.07-.56,1.39.17l-1.41.71,1.22.17-.17,1.07c.94-.31.7-1.39.71-2.13.8.65.61-.34,1.41-.36-.41-.68-1.29-.15-1.41-1.41l2.47-.36-.36,3.18-.7-1.05-.36,4.25,1.7.07c.43.78.12,1.55,1.14,1.87l-1.41.19v2.47l.7-1.41c.65-.14.24.6.36.71.37.31.9-1.29.71-1.77l1.05.7v-2.13l-.7.36v-1.05l.7-.36-1.41-1.07c1.45.83.75-.7,1.75,0l.37-1.77-2.13.71v-1.41l2.09-.32c.44,1.02,1.8,2.86.37,3.35l.36,1.22-1.05-1.07c.22,1.97,1.21,3.15-.36,4.97l1.72-.41.31-2.72c.03-.61.73-.36.82-.43-.02-.46-.02-.94,0-1.41,3.21-.9,2.79,1.17,4.1,2.81.34.41.92.54,1.21.92.58.73,2.82,3.52,3.01,4.08.34.99-.68,2.19-.34,3.18l.53-2.13c.78-.26,1.14.95,1.58.97.48,0,4.25-3.23,4.98-3.81,1.38-1.07,3.1-2.09,4.39-3.38.31-.29.51-.32.37-.85-.56-.26-1.84-.73-2.23-1.05-.32-.27-.85-1.89-1-2.07-.03-.05-.85.29-1.21-.43l.02-1.77-.39,1.45-4.39.68v-4.25c-1.55-.37-.05,2.16-1.05,2.47l-.02-2.82c-1.17,1.11-2.01,2.13-1.05,3.54l-2.84,1.07c-.34-1.87,2.25-4.2-.7-4.97.39,3.45,1.33,5.12-2.86,5.87-.44-.8-1.7-1.45-1.38-2.45.09-.29.65-.2.65-.39-.03-.61-.88-1.53.39-1.96v1.41c1.85-1.38-1.14-1.6-.36-3.54-1.28-.29-.53,1.38-.71,2.13l-.88-1.07c-.49.75-.9,1.5-1.94,1.41.63-1.75.37-3.18.71-4.95l-1.04-.03.02-2.06,2.07-.75.36,1.77,1.05-.7.36,3.89c.99,1.31.88-3.01.92-3.23.56-2.81,1.82-3.04,4.56-2.77.44.03.85.54,1.09.54.7,0,1.99-.7,3.84-.53,11.67,1.04,22.87,10.61,26.8,21.39,1.09,2.99,1.53,6.11,2.09,9.23l21.63,2.99-1.07,11.07c-.61.51-.82,1.21-1.75.97v-1.41c-.61-.07-.31.78-.94,1.02-.58.2-6.72-.53-7.65-.77-.8-.2-1.56-.78-1.34-1.67l-.87,1.41-.88-1.07c.17,1.12-1.09.73-1.9.66-1.26-.1-2.62-.61-3.91-.65l-.92-1.07-.19,1.07-2.26-.32c-5.03,14.51-20.24,23.38-35.48,20.51.58-.75,1.16-1.53,1.24-2.52.17-2.52-2.11-3.95-.87-.17l-.61.27.25.63-1.07.02.88,1.05-.7.36-4.08-1.07,1.77-.15.7-1.62c-.43.31-.92-.02-1.17.02-.37.07,0,1.04-.94.7.88-1.38-.46-1.62-.71-2.84-.92.31-.83,1.89-.75,2.69.1.85.82.22.75.85-9.85-3.06-18.32-12.86-20.44-22.94-.31-1.41-.71-2.58-.1-3.98l.34,1.43c.8-.83,1.99.65,2.07,1.29.05.43-.63.83-.65,1.67-.02,1.21.8,3.11,2.31,2.36-.25-1.31.71-1.72.85-2.06.24-.58-.32-1.97,1.09-1.85-1.12.97-.22,1.67-.37,2.62-.22,1.48-1.29,2.93-1.12,4.4l-.65.24c1.9.07,1.09,2.13,1.21,3.37.07.68.31.19.75.7,0-1.99,1.09-4.29-.53-5.65,1.94-.05.31-2.96.71-3.55l.7.36.36-3.89,1.05.7.36-1.24c-1.41.03-2.07-.02-3.01-1.24l-.34.73c-.99.02-1.96-1.75-.54-1.96-.82-.6-.8-1.11-.36-1.96l-1.39,1.67c-.2.8.44,1.45-.73,1.7l1.6,1.24.36-.71,1.09.7-.73,1.79c-1.05-.34-.88-1.65-.95-1.72-.66-.68-2.33.43-1.72-2.31.07-.27.48-.2.49-.24.49-.87.2-.82-.48-.34-.26-1.39-.31-1.94-1.73-2.28-.53-.14-1.24.63-1.11-.54l-.36,1.41,1.41-.36c-.22,1.56-1.87.51-1.41,2.26.09.39.87-.02.71.56l-1.43-.17.36-2.3c-.8-.56-.71,1.11-1.05.7-.1-.12-.12-.95-.54-1.05-.9-.24-.77,1.24-.82,1.72l1.16.44.54-.75.02,1.07-2.5-.17.02-1.96-1.05.7-1.09-2.47c-1.04-.46-.6,1.38-1.22,1.39-.8.05.19-2.09-.71-2.11-.07,0-1.36.63-1.41.7-.29.49-.27,1.36-.54,1.92l1.07.92-12.76-1.77c.6-4.06.8-8.13,2.13-12.04ZM123.28,159.44h-1.41v-1.41c.53-.14.27.36.49.54.32.31.85.43.92.87ZM87.11,261.62c-2.3,3.96-7.06-2.76-2.89-3.62,2.13-.44,4.05,1.63,2.89,3.62ZM91.63,208.42c1.31,0,2.36,1.05,2.36,2.36s-1.05,2.35-2.36,2.35-2.36-1.05-2.36-2.35,1.07-2.36,2.36-2.36ZM92.12,338.28c-1.29,0-2.35-1.05-2.35-2.35s1.05-2.35,2.35-2.35,2.33,1.05,2.33,2.35-1.04,2.35-2.33,2.35ZM99.71,288.3c-1.26,0-2.28-1.02-2.28-2.28s1.02-2.3,2.28-2.3,2.3,1.04,2.3,2.3-1.04,2.28-2.3,2.28ZM130.46,268.5c-3.13.58-3.23-3.59-.9-4.13,3.06-.71,4.13,3.55.9,4.13ZM137.19,219.46c-1.24,0-2.25-1-2.25-2.24s1-2.23,2.25-2.23,2.23,1,2.23,2.23-1,2.24-2.23,2.24ZM159.25,346.11c-1.28,0-2.31-1.04-2.31-2.31s1.04-2.31,2.31-2.31,2.31,1.02,2.31,2.31-1.04,2.31-2.31,2.31ZM203.72,351.65c-1.31,0-2.38-1.07-2.38-2.4s1.07-2.38,2.38-2.38,2.4,1.07,2.4,2.38-1.07,2.4-2.4,2.4ZM211.87,283.44l-8.86-25.14,5.65.32,1.45-9.54c1.29.97,3.08,2.18,4.66,2.58,1.53.41,2.94.12,4.27.34.36.05.92.83,1.31.6.03-.02-.02-.54.27-.7.63-.34,1.53-.53,2.25-.71l-.36-.88.7-.17-1.05,10.63c.88.07,4.76.07,4.57,1.21l-14.85,21.46ZM219.4,233.57c2.45.56,7.08,6.5,2.74,7.7-.03-1.33.37-2.72-.88-3.57-.34-.22-.83.03-.85-.02-.12-.17.12-.68-.27-1.04-1.92-1.8-4.29.31-5.68.31-.56,0-.9-.61-1-.63-.34,0-1.14,1.84-1.21,2.31-.77,4.74,2.26,8.21,7.06,7.6-.15,1.67-1.04,2.24-2.69,2.47-3.54.46-3.89-.85-6.11-3.01l1.28-8.23c1.58-2.48,4.39-4.64,7.62-3.89ZM211.87,231.72l.36-1.77h.7c.14.82-.32,1.48-1.05,1.77ZM223.91,237.38v-.7c.66-.12,1.17.41,1.05,1.05l-1.05-.36ZM218.59,244.12c-.05.68-1.84.37-2.23.27-1.96-.44-3.95-3.84-2.02-5.24-.51,2.89,1.41,4.93,4.25,4.97ZM215.76,241.99h1.77c-.24,1.29-2.18.19-1.77,0ZM226.03,230.65c-4.06-1.51-7.82-3.21-12.19-1.41-.25-.46-.87-.71-.94-1.22-.31-2.23.53-5.36.71-7.64l-1.05.36c.94-.43.26-2.41-.24-2.52-.41-.07-1,.29-1.36.22-10.6-1.99-22.33-3.71-32.99-4.76-14.97-1.51-31.46-5.22-47.09-6.77-1.21-.12-1.77.8-2.16-.34l-13.61-1.63-.7,4.47-2.48-.54-19.12-14.17,23.21-9.29c2.19,1.43.73,3.83.87,5.92l207.77,29.05c.44-.03.87-4.52,1.24-5.53.14-.39-.19-.61.56-.49l19.3,15.41-22.84,9.39c-.32-.27-.49-.37-.51-.83-.03-.68.83-4.25.68-4.46-13.81-2.35-27.77-4.08-41.67-6-9.42-1.29-19.01-2.64-28.33-3.91-8.5-1.17-17.02-2.13-25.48-3.57l-1.6,10.27ZM317.45,282.74c.12.77-2.11,2.33-2.48,1.24l2.48-1.24ZM315.32,276.72l.36-1.43,1.41,1.07c-.99-.68-.49.7-1.77.36ZM316.95,279.58c-.54-2.43,2.01-1.14,3.32-1.8.19,1.36-2.02,1-2.82,1.07l2.82,1.6c.27.54-1.7.95-1.75.88-.19-.22.02-1.82-1.56-1.75ZM305.75,273.88c1.68-.07,2.45,1.02,2.84,2.48-1.65-.12-2.45-.94-2.84-2.48ZM307.51,282.02l-.85-.02c-.43-.26-.66-.54-.56-1.04.27.29,1.36.65,1.41.71.05.05-.02.22,0,.34ZM304.91,272.84c.12-.7-1.72-1.77-1.29-2.14.29-.26,2.89,1.63,3.44,1.7.46.07.88-.68,1.68-.66.92.03,1.63,1.24,2.69,1.09l-.02.7c-2.25-1.46-4.01-.68-6.5-.68ZM293.87,272.45l-.17-2.11.7,1.05.24-.71c.75-.19,2.57.37,2.96-.7-3.33.2-6.56-.95-9.78-1.75l-.49.68v-1.05c1.04.2,3.2-.58,4.1-.22.51.22.59,1.51,2.28.92-3.4-2.62,1.09-1.22,1.6.36l.49-.03.53-.68,2.35.73-.71.7c1.68-.51,3.96-.2,5.31,1.05-1,.15-2.43-.83-3.3-.71-.24.03-.22.61-.51.7-1.73.56-3.93.8-5.58,1.79ZM295.12,275.65l-1.41-.36v-.7l1.02.05.39,1ZM284.84,288.04h-.7l-1.79-3.18c2.02-.07,4.06.99,6.02.36l-2.3,1.28-1.94-.92.7,2.47ZM277.41,277.06l1.41-.87-1.6-1.6-.34.71-.9-.37.37-1.41.61.26.31-.61h.65c.48.09,1.45.83,1.84,1.19.8.71,1.6,2.21,2.62,2.89l1.05,1.96-1.04-.34-.37.68-.2-1.09-1.58.03.71-1.05c-1.5-.97-2.09-.14-3.54-.37ZM274.21,276.36c-1.11.15-1.77-1.33-2.67-1.43-1.09-.12-2.82,1.24-4.42.51l-4.59,14.37c.77-5.15,2.69-10.09,4.25-15.05,1.53-2.36,2.72-.31,4.25-.68,1.6-.39,4.35-4.42,4.95-.56-1.38.44-2.6-.19-3.54,1.24l1.77,1.6ZM262.48,294.24c-.46.94,0,1.68.03,2.5.02.41.29,1.31-.34,1.24l-.17-1.79c-.53-.95-1.11,1.17-1.6,1.07.14-1.9.68-4.49,1.33-6.31.2-.56-.19-.95.8-.78-.02,1.75-1.14,2.35-.05,4.06ZM270.68,270.68v-.7l.88-.34.53.51c-.37.56-.77.61-1.41.53ZM274.93,266.26l1.77-3.01c.97.12,1.11,1.97,1.26,2.16.2.24,1.87.31,1.56,2.09l-1.75-1.05-.19,1.05-.71-.61-1.22.97c.07-.94.2-1.31-.71-1.6ZM274.21,261.84c.66-.03,1.56-.1,1.77.7-.66.03-1.55.1-1.77-.7ZM274.57,267.14c-.19.29-.2,3.3-1.05,2.48-.49-1.14-.49-2.35,1.05-2.48ZM277.75,278.13l-.53.7-1.24-1.05,1.77.36ZM285.9,271.04l-.66-.29-.39.65c.02-.65,1.04-4.51,2.13-3.54.15.14-1.5,2.36-1.07,3.18ZM288.04,265.73l1.77.36-.17.7c-.51-.46-1.45-.31-1.6-1.05ZM303.31,274.8l1.73.51-.17.56-1.73-.49.17-.58ZM306.09,240.8c0-1.14.94-2.07,2.07-2.07s2.08.94,2.08,2.07-.94,2.06-2.08,2.06-2.07-.92-2.07-2.06ZM311.43,284.86v.34c-2.26.95-2.26-1.29,0-.34ZM310.71,279.18l.17-.7,1.6.36-1.77-1.43c.6-.02,1.09-.07,1.67.12.09.03,1.11.99.82,1.29l-2.48.36ZM247.6,357.5c-1.34,0-2.43-1.11-2.43-2.45s1.09-2.45,2.43-2.45,2.45,1.09,2.45,2.45-1.09,2.45-2.45,2.45ZM281.8,356.46c-2.65-.75-5.6-1.22-8.3-1.97-7.87-2.23-14.88-5.54-23.2-5.48-7.21.07-4.03-3.21-3.08-7.36.25-1.16-.07-.6.48-2.01,1.51-4.01,1.89-8.28,3.79-12.16l-.1-.46c-1.04-.46-2.16-1.62-1.82-2.84.6-2.18,3.23-2.06,3.44-2.33.49-.66.77-4.22,1.04-5.19,1.6-5.41,4.34-11.68,5.12-17.24l1.24-1.8c-1.24,6.87-4.8,13.54-4.97,20.54l-.7-.36c-.14,1.45-1.46,4.18-1.41,5.51.03.88,1.24,1.07,1.04,1.94-2.31-.41-1.62,1.36-1.94,2.47-1.51,5.27-4.18,11-3.76,16.51l-.66.36-.02,1.9c.58.22,1.36.19,1.87.39.32.14.25.7.44.7.49-.03.8-.58,1.05-.6.22,0,3.32,1.26,4.08,1.46,12.93,3.44,25.71,7.33,38.54,11.07l3.62,1.51c-5.37-1.14-10.54-3.06-15.8-4.57ZM299.03,271.75c1-.07,2.04.49,2.47,1.41-.85.09-2.01-.73-2.47-1.41ZM327.43,371.79c-1.62-.37-3.33-2.57-5.02-3.15-6.31-2.13-12.91-4.03-19.51-5.65l-3.18-1.6c6.38,1.67,12.79,3.33,19.13,5.14,2.11.6,11.34,4.05,12.67,3.25.1-.05.08-.37.14-.53,3.32.97-3.18,2.77-4.23,2.53ZM337.48,325.6c-.58-.2-1.04-.26-.9-1.05,1.45-.36,2.01.66,3.18,1.07-.02.65-2.04.05-2.28-.02ZM341,337.65h-.53l.53-1.41.53.87-.53.54ZM342.67,332.84l-.78-.15.43-2.24.77.15-.41,2.24ZM343.31,297.6l.37-2.09c1,.03,2.67-.44,3.16.68-1.73.66-.87,2.65-3.54,1.41ZM346.41,309.05l-.97,1.68c0-1,.22-1.72.09-2.74-.09-.73.27-.78.61-.46.09.09.37,1.21.27,1.51ZM346.85,314.98h-.36v-1.43l.71.02-.36,1.41ZM347.92,289.81c-.54-.53,1.05-1.5,1.05-.53,0,.24-.85.73-1.05.53ZM348.98,299.39l-.36-3.54c1.12.75.36,2.5.36,3.54ZM350.39,287.7h-.7v-1.43h.7v1.43ZM350.75,285.92l-.34-1.39-1.79-.71c1.73-.03,2.76.31,2.13,2.11ZM348.96,266.96c-1.22,0-2.21-.99-2.21-2.21s.99-2.23,2.21-2.23,2.21,1,2.21,2.23-.99,2.21-2.21,2.21ZM367.99,183.81c-1.28,0-2.3-1.02-2.3-2.28s1.02-2.3,2.3-2.3,2.3,1.02,2.3,2.3-1.04,2.28-2.3,2.28ZM372.31,154.71c-1.24,0-2.25-1-2.25-2.24s1-2.26,2.25-2.26,2.26,1,2.26,2.26-1,2.24-2.26,2.24ZM387.87,257.67c3.21-.19,6.28,3.98,4.13,6.62-.77.97-2.94,2.55-4.23,2.53-5.48-.02-5.73-8.83.1-9.15ZM386.17,147.04h-.7v-1.77c.8.2.75,1.09.7,1.77ZM414.66,88.55c-3.2-.68-1.09-4.51.66-4.17.07,0,1.24.63,1.28.7.27.46-1.53,3.4-1.94,3.47ZM423.08,94.56l-.41-4.56c2.23.27,1.51,2.98,1.77,4.59l-1.36-.03ZM152.51,140.66c-.54-.24-.46.36-.88.7,0,.36-.02.71,0,1.07.39.39,2.25-1.17.88-1.77ZM152.51,140.66c-.54-.24-.46.36-.88.7,0,.36-.02.71,0,1.07.39.39,2.25-1.17.88-1.77ZM152.51,140.66c-.54-.24-.46.36-.88.7,0,.36-.02.71,0,1.07.39.39,2.25-1.17.88-1.77ZM152.51,140.66c-.54-.24-.46.36-.88.7,0,.36-.02.71,0,1.07.39.39,2.25-1.17.88-1.77ZM152.51,140.66c-.54-.24-.46.36-.88.7,0,.36-.02.71,0,1.07.39.39,2.25-1.17.88-1.77ZM152.51,140.66c-.54-.24-.46.36-.88.7,0,.36-.02.71,0,1.07.39.39,2.25-1.17.88-1.77ZM152.51,140.66c-.54-.24-.46.36-.88.7,0,.36-.02.71,0,1.07.39.39,2.25-1.17.88-1.77ZM152.51,140.66c-.54-.24-.46.36-.88.7,0,.36-.02.71,0,1.07.39.39,2.25-1.17.88-1.77ZM152.51,140.66c-.54-.24-.46.36-.88.7,0,.36-.02.71,0,1.07.39.39,2.25-1.17.88-1.77ZM152.51,140.66c-.54-.24-.46.36-.88.7,0,.36-.02.71,0,1.07.39.39,2.25-1.17.88-1.77ZM152.51,140.66c-.54-.24-.46.36-.88.7,0,.36-.02.71,0,1.07.39.39,2.25-1.17.88-1.77ZM152.51,140.66c-.54-.24-.46.36-.88.7,0,.36-.02.71,0,1.07.39.39,2.25-1.17.88-1.77ZM152.51,140.66c-.54-.24-.46.36-.88.7,0,.36-.02.71,0,1.07.39.39,2.25-1.17.88-1.77ZM152.51,140.66c-.54-.24-.46.36-.88.7,0,.36-.02.71,0,1.07.39.39,2.25-1.17.88-1.77ZM152.51,140.66c-.54-.24-.46.36-.88.7,0,.36-.02.71,0,1.07.39.39,2.25-1.17.88-1.77ZM152.51,140.66c-.54-.24-.46.36-.88.7,0,.36-.02.71,0,1.07.39.39,2.25-1.17.88-1.77ZM152.51,140.66c-.54-.24-.46.36-.88.7,0,.36-.02.71,0,1.07.39.39,2.25-1.17.88-1.77ZM152.51,140.66c-.54-.24-.46.36-.88.7,0,.36-.02.71,0,1.07.39.39,2.25-1.17.88-1.77ZM152.51,140.66c-.54-.24-.46.36-.88.7,0,.36-.02.71,0,1.07.39.39,2.25-1.17.88-1.77ZM152.51,140.66c-.54-.24-.46.36-.88.7,0,.36-.02.71,0,1.07.39.39,2.25-1.17.88-1.77ZM152.51,140.66c-.54-.24-.46.36-.88.7,0,.36-.02.71,0,1.07.39.39,2.25-1.17.88-1.77ZM152.51,140.66c-.54-.24-.46.36-.88.7,0,.36-.02.71,0,1.07.39.39,2.25-1.17.88-1.77ZM152.51,140.66c-.54-.24-.46.36-.88.7,0,.36-.02.71,0,1.07.39.39,2.25-1.17.88-1.77ZM152.51,140.66c-.54-.24-.46.36-.88.7,0,.36-.02.71,0,1.07.39.39,2.25-1.17.88-1.77ZM152.51,140.66c-.54-.24-.46.36-.88.7,0,.36-.02.71,0,1.07.39.39,2.25-1.17.88-1.77ZM152.51,140.66c-.54-.24-.46.36-.88.7,0,.36-.02.71,0,1.07.39.39,2.25-1.17.88-1.77ZM152.51,140.66c-.54-.24-.46.36-.88.7,0,.36-.02.71,0,1.07.39.39,2.25-1.17.88-1.77ZM152.51,140.66c-.54-.24-.46.36-.88.7,0,.36-.02.71,0,1.07.39.39,2.25-1.17.88-1.77ZM152.51,140.66c-.54-.24-.46.36-.88.7,0,.36-.02.71,0,1.07.39.39,2.25-1.17.88-1.77ZM152.51,140.66c-.54-.24-.46.36-.88.7,0,.36-.02.71,0,1.07.39.39,2.25-1.17.88-1.77ZM152.51,140.66c-.54-.24-.46.36-.88.7,0,.36-.02.71,0,1.07.39.39,2.25-1.17.88-1.77ZM152.51,140.66c-.54-.24-.46.36-.88.7,0,.36-.02.71,0,1.07.39.39,2.25-1.17.88-1.77ZM152.51,140.66c-.54-.24-.46.36-.88.7,0,.36-.02.71,0,1.07.39.39,2.25-1.17.88-1.77ZM152.51,140.66c-.54-.24-.46.36-.88.7,0,.36-.02.71,0,1.07.39.39,2.25-1.17.88-1.77ZM152.51,140.66c-.54-.24-.46.36-.88.7,0,.36-.02.71,0,1.07.39.39,2.25-1.17.88-1.77ZM152.51,140.66c-.54-.24-.46.36-.88.7,0,.36-.02.71,0,1.07.39.39,2.25-1.17.88-1.77ZM152.51,140.66c-.54-.24-.46.36-.88.7,0,.36-.02.71,0,1.07.39.39,2.25-1.17.88-1.77ZM152.51,140.66c-.54-.24-.46.36-.88.7,0,.36-.02.71,0,1.07.39.39,2.25-1.17.88-1.77ZM152.51,140.66c-.54-.24-.46.36-.88.7,0,.36-.02.71,0,1.07.39.39,2.25-1.17.88-1.77ZM152.51,140.66c-.54-.24-.46.36-.88.7,0,.36-.02.71,0,1.07.39.39,2.25-1.17.88-1.77ZM152.51,140.66c-.54-.24-.46.36-.88.7,0,.36-.02.71,0,1.07.39.39,2.25-1.17.88-1.77ZM152.51,140.66c-.54-.24-.46.36-.88.7,0,.36-.02.71,0,1.07.39.39,2.25-1.17.88-1.77ZM152.51,140.66c-.54-.24-.46.36-.88.7,0,.36-.02.71,0,1.07.39.39,2.25-1.17.88-1.77ZM152.51,140.66c-.54-.24-.46.36-.88.7,0,.36-.02.71,0,1.07.39.39,2.25-1.17.88-1.77ZM152.51,140.66c-.54-.24-.46.36-.88.7,0,.36-.02.71,0,1.07.39.39,2.25-1.17.88-1.77ZM152.51,140.66c-.54-.24-.46.36-.88.7,0,.36-.02.71,0,1.07.39.39,2.25-1.17.88-1.77ZM152.51,140.66c-.54-.24-.46.36-.88.7,0,.36-.02.71,0,1.07.39.39,2.25-1.17.88-1.77ZM152.51,140.66c-.54-.24-.46.36-.88.7,0,.36-.02.71,0,1.07.39.39,2.25-1.17.88-1.77ZM152.51,140.66c-.54-.24-.46.36-.88.7,0,.36-.02.71,0,1.07.39.39,2.25-1.17.88-1.77ZM152.51,140.66c-.54-.24-.46.36-.88.7,0,.36-.02.71,0,1.07.39.39,2.25-1.17.88-1.77ZM152.51,140.66c-.54-.24-.46.36-.88.7,0,.36-.02.71,0,1.07.39.39,2.25-1.17.88-1.77ZM152.51,140.66c-.54-.24-.46.36-.88.7,0,.36-.02.71,0,1.07.39.39,2.25-1.17.88-1.77ZM152.51,140.66c-.54-.24-.46.36-.88.7,0,.36-.02.71,0,1.07.39.39,2.25-1.17.88-1.77ZM152.51,140.66c-.54-.24-.46.36-.88.7,0,.36-.02.71,0,1.07.39.39,2.25-1.17.88-1.77ZM152.51,140.66c-.54-.24-.46.36-.88.7,0,.36-.02.71,0,1.07.39.39,2.25-1.17.88-1.77ZM152.51,140.66c-.54-.24-.46.36-.88.7,0,.36-.02.71,0,1.07.39.39,2.25-1.17.88-1.77ZM152.51,140.66c-.54-.24-.46.36-.88.7,0,.36-.02.71,0,1.07.39.39,2.25-1.17.88-1.77ZM152.51,140.66c-.54-.24-.46.36-.88.7,0,.36-.02.71,0,1.07.39.39,2.25-1.17.88-1.77ZM152.51,140.66c-.54-.24-.46.36-.88.7,0,.36-.02.71,0,1.07.39.39,2.25-1.17.88-1.77ZM152.51,140.66c-.54-.24-.46.36-.88.7,0,.36-.02.71,0,1.07.39.39,2.25-1.17.88-1.77ZM152.51,140.66c-.54-.24-.46.36-.88.7,0,.36-.02.71,0,1.07.39.39,2.25-1.17.88-1.77ZM152.51,140.66c-.54-.24-.46.36-.88.7,0,.36-.02.71,0,1.07.39.39,2.25-1.17.88-1.77ZM152.51,140.66c-.54-.24-.46.36-.88.7,0,.36-.02.71,0,1.07.39.39,2.25-1.17.88-1.77ZM152.51,140.66c-.54-.24-.46.36-.88.7,0,.36-.02.71,0,1.07.39.39,2.25-1.17.88-1.77ZM152.51,140.66c-.54-.24-.46.36-.88.7,0,.36-.02.71,0,1.07.39.39,2.25-1.17.88-1.77ZM152.51,140.66c-.54-.24-.46.36-.88.7,0,.36-.02.71,0,1.07.39.39,2.25-1.17.88-1.77ZM152.51,140.66c-.54-.24-.46.36-.88.7,0,.36-.02.71,0,1.07.39.39,2.25-1.17.88-1.77ZM152.51,140.66c-.54-.24-.46.36-.88.7,0,.36-.02.71,0,1.07.39.39,2.25-1.17.88-1.77ZM152.51,140.66c-.54-.24-.46.36-.88.7,0,.36-.02.71,0,1.07.39.39,2.25-1.17.88-1.77ZM152.51,140.66c-.54-.24-.46.36-.88.7,0,.36-.02.71,0,1.07.39.39,2.25-1.17.88-1.77ZM152.51,140.66c-.54-.24-.46.36-.88.7,0,.36-.02.71,0,1.07.39.39,2.25-1.17.88-1.77ZM152.51,140.66c-.54-.24-.46.36-.88.7,0,.36-.02.71,0,1.07.39.39,2.25-1.17.88-1.77ZM152.51,140.66c-.54-.24-.46.36-.88.7,0,.36-.02.71,0,1.07.39.39,2.25-1.17.88-1.77ZM152.51,140.66c-.54-.24-.46.36-.88.7,0,.36-.02.71,0,1.07.39.39,2.25-1.17.88-1.77ZM152.51,140.66c-.54-.24-.46.36-.88.7,0,.36-.02.71,0,1.07.39.39,2.25-1.17.88-1.77Z"/>
  <path d="M419.84,166.88l-9.58-10.09c-.34-.81-1.34-3.08-1.85-3.64-.47-.51-1.89-.22-2.39-.99l2.12-.7c-1.36-.73-1.87-2.39-2.83-3.55-.8-.96-2.32-1.41-2.13-2.65l16.67,17.52c.86,1.28-.05,2.73-.02,4.1Z"/>
  <path d="M60.21,76.53c-1.07.99-1.24-3.42-1.06-3.89,1.46-.21,1.5,3.48,1.06,3.89Z"/>
  <path d="M58.44,94.95c.63-.68,1.59,1.42.53,1.41-.36,0-.75-1.17-.53-1.41Z"/>
  <path d="M71.55,94.25v.7c-.65.09-1.03.01-1.41-.53l1.41-.17Z"/>
  <polygon points="62.34 98.14 62.16 99.2 61.28 98.15 62.34 98.14"/>
  <path d="M194.15,94.6c1.28-.86,3.74,2.17.72,2.68-1.57.27-.86-2.59-.72-2.68Z"/>
  <path d="M244.02,115.78c-2.13,1.21-2.63-.54-3-.64-.6-.16-2.07.42-2.23-.34,2.22-.82,3.75.98,5.66-.71l-.43,1.69Z"/>
  <path d="M235.7,115.72c.56.33,1,.52,1.66.49.54.52-3.13.74-3.54,1.06-.08-1.29,1.78-.35,1.42-2.12.54-.15.28.47.46.57Z"/>
  <path d="M215.76,106.29c.06-.9.22-1.32-.71-1.6l1.41-.89.7,1.95-1.41.53Z"/>
  <path d="M230.06,113.98c.05.09,1.39.28-.13.64-.16-.21-2.17-3.08-.88-3.01.52.03.72,1.86,1.01,2.37Z"/>
  <path d="M69.89,111.87c.38.3,1.21-.31.95.8-.75.44-2.54-1.34-2.12-1.77.87-.22.77.66,1.17.97Z"/>
  <rect x="252.58" y="189.22" width="2.82" height=".61" transform="translate(20.3 403.58) rotate(-79.22)"/>
  <path d="M248.71,114.08c-1.38-.1-2.09-1.31-3.54-.35v-.7c1.24-.63,2.68.02,3.54,1.05Z"/>
  <path d="M246.58,110.55v.7c-.85.14-1.5-.17-1.41-1.06l1.41.36Z"/>
  <path d="M386.18,147.03h-.7s0-1.77,0-1.77c.8.22.75,1.09.7,1.77Z"/>
  <rect x="230.67" y="109.11" width="1.71" height=".74" transform="translate(40.81 280.41) rotate(-67.18)"/>
  <path d="M275.99,262.54c-.66.04-1.56.1-1.77-.7.66-.04,1.56-.1,1.77.7Z"/>
  <path d="M246.23,122.59v.35c-.76.02-1.84.21-2.12-.7l2.12.35Z"/>
  <path d="M289.81,266.09l-.17.7c-.5-.45-1.45-.31-1.6-1.05l1.77.35Z"/>
  <polygon points="250.12 109.48 250.12 110.18 248.71 110.54 249.6 109.48 250.12 109.48"/>
  <path d="M70.49,107.35c-.71.09-1.49-.65-1.41-1.41l1.41,1.41Z"/>
  <polygon points="73.32 107.7 72.26 107.71 72.26 107.18 72.79 106.65 73.32 107.7"/>
  <rect x="236.31" y="112.67" width=".7" height="1.06"/>
  <polygon points="227.45 119.76 226.91 120.46 226.03 119.93 227.45 119.76"/>
  <rect x="272.8" y="126.84" width="2.12" height=".35"/>
  <g>
    <polygon points="277.76 278.13 277.23 278.83 275.99 277.78 277.76 278.13"/>
    <path d="M347.92,289.82c-.54-.54,1.05-1.51,1.05-.53,0,.23-.85.73-1.05.53Z"/>
  </g>
  <path d="M209.03,135.7l.71-4.95c6.7-.8,4.93,6.36-.71,4.95Z"/>
  <path d="M216.1,131.8c-.27,1.39.07,3.59-1.41,4.25.41-1.17.36-2.43.54-3.55.1-.65.15-.83.87-.7Z"/>
  <path d="M216.12,135.34c-.66-.73,1.41-2.86,1.77-2.48.15,1.17-.95,1.94-1.77,2.48Z"/>
  <polygon points="213.98 147.74 212.92 147.74 213.28 145.61 213.98 147.74"/>
  <polygon points="215.4 139.24 214.35 139.25 214.35 137.47 215.4 139.24"/>
  <polygon points="209.37 138.18 208.65 137.3 209.2 136.41 209.37 138.18"/>
  <polygon points="218.23 135.34 218.23 136.75 217.53 136.75 217.89 135.34 218.23 135.34"/>
  <path d="M240.56,104.52c-1.84.48-2.52-1.38-3.55-1.94-.53-.31-1.45.1-1.41-.54,2.14-.44,3.89.73,4.97,2.48Z"/>
  <path d="M216.46,247.65c-1,.14-1.85-.37-.88-1.05l.88,1.05Z"/>
  <g>
    <path d="M143.47,171.48l-1.38.75,1.04,2.45c.12.05.24.12.36.19l.61-.36.07-1.75-.7-1.28ZM143.47,171.48l-1.38.75,1.04,2.45c.12.05.24.12.36.19l.61-.36.07-1.75-.7-1.28ZM143.47,171.48l-1.38.75,1.04,2.45c.12.05.24.12.36.19l.61-.36.07-1.75-.7-1.28ZM143.47,171.48l-1.38.75,1.04,2.45c.12.05.24.12.36.19l.61-.36.07-1.75-.7-1.28ZM143.47,171.48l-1.38.75,1.04,2.45c.12.05.24.12.36.19l.61-.36.07-1.75-.7-1.28ZM143.47,171.48l-1.38.75,1.04,2.45c.12.05.24.12.36.19l.61-.36.07-1.75-.7-1.28ZM143.47,171.48l-1.38.75,1.04,2.45c.12.05.24.12.36.19l.61-.36.07-1.75-.7-1.28ZM143.47,171.48l-1.38.75,1.04,2.45c.12.05.24.12.36.19l.61-.36.07-1.75-.7-1.28ZM143.47,171.48l-1.38.75,1.04,2.45c.12.05.24.12.36.19l.61-.36.07-1.75-.7-1.28ZM143.47,171.48l-1.38.75,1.04,2.45c.12.05.24.12.36.19l.61-.36.07-1.75-.7-1.28ZM143.47,171.48l-1.38.75,1.04,2.45c.12.05.24.12.36.19l.61-.36.07-1.75-.7-1.28ZM143.47,171.48l-1.38.75,1.04,2.45c.12.05.24.12.36.19l.61-.36.07-1.75-.7-1.28ZM143.47,171.48l-1.38.75,1.04,2.45c.12.05.24.12.36.19l.61-.36.07-1.75-.7-1.28ZM143.47,171.48l-1.38.75,1.04,2.45c.12.05.24.12.36.19l.61-.36.07-1.75-.7-1.28ZM143.47,171.48l-1.38.75,1.04,2.45c.12.05.24.12.36.19l.61-.36.07-1.75-.7-1.28ZM143.47,171.48l-1.38.75,1.04,2.45c.12.05.24.12.36.19l.61-.36.07-1.75-.7-1.28ZM143.47,171.48l-1.38.75,1.04,2.45c.12.05.24.12.36.19l.61-.36.07-1.75-.7-1.28ZM143.47,171.48l-1.38.75,1.04,2.45c.12.05.24.12.36.19l.61-.36.07-1.75-.7-1.28ZM143.47,171.48l-1.38.75,1.04,2.45c.12.05.24.12.36.19l.61-.36.07-1.75-.7-1.28ZM143.47,171.48l-1.38.75,1.04,2.45c.12.05.24.12.36.19l.61-.36.07-1.75-.7-1.28ZM143.47,171.48l-1.38.75,1.04,2.45c.12.05.24.12.36.19l.61-.36.07-1.75-.7-1.28ZM143.47,171.48l-1.38.75,1.04,2.45c.12.05.24.12.36.19l.61-.36.07-1.75-.7-1.28ZM143.47,171.48l-1.38.75,1.04,2.45c.12.05.24.12.36.19l.61-.36.07-1.75-.7-1.28ZM143.47,171.48l-1.38.75,1.04,2.45c.12.05.24.12.36.19l.61-.36.07-1.75-.7-1.28Z"/>
    <path d="M146.27,132.81c-.73.41-2.36-1.22-2.08-2.07l.53.72h.7s1.6-1.43,1.6-1.43c.7,1.39-.26,1.61-.75,2.78Z"/>
    <path d="M147.73,132.86c.45,1.19-.25,1.8-.37,2.93l-1.05.26c-.17-.16.57-1.89.72-2.3.18-.48-.44-1.08.69-.89Z"/>
    <path d="M122.35,158.58c.33.3.85.42.93.86h-1.42s0-1.41,0-1.41c.53-.13.27.36.49.56Z"/>
    <path d="M143.83,133.22h-.7s-.36-1.06-.36-1.06c.65-.12,1.17.39,1.06,1.06Z"/>
    <path d="M151.58,157.43c-.05.26-3.33,3.11-3.89,3.55-.32.26-.83.31-1.19.58-.9.7-3.62,3.37-4.58,3.21-2.02-4.4-1.28-9.27-.58-13.84l-1.41.7.02-1.41,1.41.17c-.71-1.41-1.11-2.47-1.07-4.06l.88.71.19-1.07c.68-.05,1.55-.1,1.77.7-1.92.29-.83,2.31-1.41,3.55l2.3-3.18c.9,1.21,1.28,2.38,3.01,1.41-.34,3.74,3.32,5.87,4.56,8.98Z"/>
    <path d="M166.85,176.97c-5.48,2.35-12.11,1.17-16.99-2.13,1.24-.87,2.09-1.26,1.77-3.01l-.9,1.41c-1.14.1.46-.88-.87-.71.95-1,.66-2.02.75-3.32l.29-.41c.82.03,1.8.26,1.8-.87l.31.83-1.51.9-.22,1.09,1.41-1.05.71,1.41.36-2.11.7.7.54-1.41.36.71.88-.71c-.88,3.52,3.3-1.22,3.54-1.07.71,1.8,2.62,4.1,4.61,3.89-1.04,2.79,1.26,3.66,2.47,5.85Z"/>
    <path d="M178.62,166.41c-.27.6-1.45,3.45-2.18,2.94l-7.04-9.39c0-.56,2.6-1.84,2.96-2.67.24-.6-.43-1.84.7-2.47l.36,1.77.88-.88-.7-.53c-.26-.34,1.29-1.24,1.41-.44l.17.8,3.54-3.55c2.48,4.32,1.87,9.97-.1,14.42Z"/>
    <path d="M148.07,167.79c.09-.68.83-.9.71-1.62l-1.41.36.34,1.77c-.99-1.07-1.14-.17-1.58-.15-.65.02-1.9-1.48-2.3-.37-.36.95,1.21.34,1.41.53v3.54l-1.07-.36.71-.7-1.41-.54,1.05-.17-.36-1.41-1.41,1.77-1.05-3.2-.39,1.58.73.37c-1.12.68-.25,1.5-.37,2.42-.14,1.14-.63,2.28-.68,3.42l-.36-1.05-.68.53.68,2.67c1.38-.41.66-2.09,1.04-2.67.59-.92.85-.09,1.45.19l-1.04-2.45,1.38-.75.7,1.28-.07,1.75-.61.36c-.12-.07-.24-.14-.36-.19l.71,3.18,1.41-.34c-.31.66-1.22.92-.71,1.75l-1.26-.32-.22.6-.65-.27c.73,1.31-.29,2.48-1.6,1.8l-.17-1.45-1.43.54c1.07.37.36,1.58,1.79,1.24-.99,1.26.58.51.99.8.24.19,1.38,1.9,1.5,2.38l.68-.9,1.09.19-.37-1.21c1.89-.75-.36-.66.02-1.97l.39.65.66-.29c-.19.63.39,1.46.37,1.92-.02.2-.65.17-.71.44-.14.51-.1,1.73.17,2.23.26-.39,1.11-2.45,1.11-2.65.05-1.14-.12-.85.12-2.5.29-1.94.58-3.89.37-5.82-.75.32-.63,1.65-1.77.88.48-1.85.7-.82.99-1,.09-.05.53-.68,1.12-.77-.43-.36-.46-1.07-.68-1.41-.05-.09-1.96.27-.02-.71l-1.05-1.6,1.75,1.77c1.29-1.55.19-2.79.36-4.05ZM143.48,182.11v-1.41l1.05,1.41h-1.05ZM145.78,176.79c.36-.95.54.1.66.22.2.2.66.07.58.32l-.88,3.37-1.26-1.22c.66-.83.59-1.85.9-2.69Z"/>
    <path d="M169.88,179.63c.82.6.73,1.46-.17,1.77l-.22-.73-1.21.39c-.15.58.51.22.63.41.27.44.02,1.19.09,1.72l.36-1.07c.92.24.46,1.36.7,2.13-2.06.09-1.28-1.39-1.96-2.48-.78.54-.17,1.65-.2,1.96-.08.63-.97.48-1.02,0-.03-.2.31-.68.27-1.05-.05-.6-.34-1.19-.31-1.79.03-.85.88-1.34.39-2.3l1.05.36c.48-.61-1.39-4.08.36-3.91l.36,2.13.36-2.11,1.75,1.28c-.82,1.36-2.01,2.21-1.75,4.03l.53-.71Z"/>
    <path d="M139.93,178.57h-1.41l-.17,1.41c-1.11-.54-.66-1.55-.92-2.21-.15-.43-1.16-.07-.32-1.33l-1.07-.36-.34,1.05.36-3.16.65.29.05-.66,1.05,1.07.36-1.77c.75.02.34,1.28.49,1.67.02.05.48.1.63.58.34,1.14.59,2.23.65,3.42Z"/>
    <path d="M140.81,168.81c-.07.78.87,2.89,0,3.01-1.34-.68-1.67-.03-2.65.73.19-.95-.17-3.28.03-4.03.07-.24.56-.19.65-.49.36-1.02.03-2.23,1.45-2.93-.25.95.88,1.51,1.02,2.02.19.68-.46,1.14-.49,1.68Z"/>
    <path d="M155.17,179.63l-.37,3.16-1.77-.12-.51-1.26-.88.7-.71-1.05-.15.68-.9-.32-.46,1.14c.05-.15.09-.32.1-.48.02-.17.03-.32.03-.49,0-.87-.27-1.73-.39-2.65l2.77.63.41-.63.02,1.77h1.05l-.24-.63,1.29-1.14-.17,3.18.88-2.48Z"/>
    <path d="M161.56,187.28l-.54,1.56-1.24-1.07.71-.53c-.95-.26-.77-.68-.71-1.6-1.85.92-2.07-1-2.84-2.31l.71-.51c-.51-.14-1.51-.53-1.79-.95-1.31-2.07,1.22-2.06.37-.12l.7-1.41.77.61,1.72.1-1.05,1.05,1.05.36-.36,1.07-1.05-.36v1.41c1.24-.19,1.39.07,1.96,1.05l.53-2.82c1.46.54,1.21,3.06.34,4.08l.73.37Z"/>
    <path d="M117.62,158.01l-1.39-.02-.56-1.75c-.41.78-.95,1.48-1.94,1.43v-1.43l1.05.36-.36-1.05,1.22-.39.37.73.71-1.41.88,3.54Z"/>
    <path d="M181.03,147.4c.1,2.18,1.09,2.87-1.24,4.23-1.62-.29-.15-3.89.24-4.2.22-.17.7-.02,1-.03Z"/>
    <path d="M182.09,147.38c-.34.05-.7-.02-1.05.02-.1-2.3.34-.94.73-1.24.54-.43-.1-1.53,1.04-1.24l-.71,2.47Z"/>
    <polygon points="185.29 176.8 184.76 176.09 183.86 178.21 182.46 177.5 181.75 178.93 181.39 175.73 183.84 176.79 184.4 175.03 185.29 176.8"/>
    <path d="M165.08,155.19l-1.07-.2-.34,1.26-1.43-.2-.34,1.28-1.41-.71.17-.71.9.22c.49-.37.87-2.84,2.11-2.69l-.34,1.41c.61,0,.1-1.11,1.22-.71.22.07.36.78.53,1.07Z"/>
    <path d="M175.54,185.65c-1.11-.65-.65-5.75.88-4.59l-.7,1.05c.24-.03.63-.03.7.24.14.44.07,3.78-.88,3.3Z"/>
    <path d="M176.07,179.64c.46-.1,1-.19,1.43-.36.1,1.09.48.32.7,1.05l-1.75.36-.37-1.05Z"/>
    <path d="M180.68,178.74c-1.24.2-1.24,2.13-2.13,1.41l.36-1.58c-.85-.02-.49.34-1.41.71-.12-1.24.2-1.39,1.41-1.07l-.36-1.41c1.51-.39,1.09,1.26,2.13,1.94Z"/>
    <path d="M177.14,176.09l-1.24-1.43-.22.66-.6-.22-.78.99c.05-.87.37-2.47,1.41-2.48l-.7-.7c2.18-.17,1.53,1.82,2.13,3.18Z"/>
    <path d="M173.94,141.02l-.53,2.47c-.68-.24-2.09-2.31-1.6-2.82l2.13.36Z"/>
    <path d="M182.8,151.29c.09-.92.2-1.31-.71-1.6l.73-1.6c.12-.09,1.29.31,1.34.41.48.75-.8,2.21-1.36,2.79Z"/>
    <path d="M138.14,163.89l-.7,2.28c-1.29.44-.85-2.7-.7-2.84l1.39.56Z"/>
    <path d="M151.27,150.22l-.88,3.89c-.61-.39-1.09-2.74.17-1.77l-.36-2.13h1.07Z"/>
    <path d="M140.64,141.02c-.25,1.14.03,3.2-1.05,3.89-.09-1.05.02-2.06.31-3.08.15-.61-.27-.99.75-.82Z"/>
    <path d="M153.75,155.71c-.15.65-.41,2.04-1.05,2.31-.12-.83.14-1.58.29-2.36.09-.43-.19-1.5.58-1.19.94.37.27.9.19,1.24Z"/>
    <path d="M163.64,152.3c-.08.14-.66.15-.85.39-.39.43-.39,1.09-.88,1.07-.12-1.19.46-2.33,1.24-3.18l.49,1.72Z"/>
    <path d="M174.66,150.94v-2.48h1.05c-.17,1.11,1.02,2.76-1.05,2.48Z"/>
    <polygon points="160.85 163.86 159.42 164.39 159.59 161.92 160.85 163.86"/>
    <path d="M112.29,156.6c-.56-.03-2.23.61-2.47-.17,1.05-.29.31-.56.54-1.21.15-.46.65-.9.71-1.43.07-.6-.75-.77-.56-1.45.92.44,1.5,1.48,1.43,2.48l-1.07.17c.39.24.22,1,.43,1.19.31.26,1.11-.26.99.41Z"/>
    <path d="M137.11,172.89c-1.65-.09-1.24-1.79-.19-2.47l.19,2.47Z"/>
    <path d="M180.49,142.02s.07-.02.08-.03l-.59.8c-.17-.48,0-.61.2-.68.05-.02.1-.03.15-.03t.03-.02s.09-.02.12-.03Z"/>
    <path d="M180.57,141.99l.12-.17v.03c-.02.07-.05.1-.12.14Z"/>
    <path d="M181.73,141.72l-.7-.36-.34.46c.1-.48-.05-1.04-.02-1.51l1.05,1.41Z"/>
    <polygon points="205.13 168.66 204.78 170.27 203.01 170.07 204.78 169.35 205.13 168.66"/>
    <path d="M141.7,143.49h-.7c.43-.77.78-1.38.75-2.31-.02-.65-1.39-.6-.75-1.22,1.05-1,1.45,2.93.7,3.54Z"/>
    <path d="M174.3,184.95c-1.12.09-1.14-.95-1.05-1.77l.71-.71.34,2.48Z"/>
    <path d="M173.94,175.37l-2.13,1.43.02-1.77c.77.43,1.21.83,2.11.34Z"/>
    <polygon points="166.51 148.45 166.51 150.22 164.74 150.22 164.74 148.81 165.63 149.51 166.51 148.45"/>
    <path d="M157.29,188.84c-.75-.03-.77-2.81-.17-2.82l.17,2.82Z"/>
    <path d="M110.88,151.99c-1.09-.49-1.12-1.82-1.05-2.82.9.43.92,1.97,1.05,2.82Z"/>
    <path d="M145.25,147.04c.54-1.58-1.38-.7-1.05-1.6.22-.63.99-.44,1.31-.09.51.53.63,1.46-.26,1.68Z"/>
    <path d="M157.29,166.17c-1.45.24.27-1.41-1.05-1.96l.88-.53.17,2.48Z"/>
    <path d="M178.55,182.82v-1.77c1.53.09,1.22,1.22,0,1.77Z"/>
    <path d="M162.96,131.45l-1.05,2.48c.12-.65-.12-2.72,1.05-2.48Z"/>
    <path d="M137.82,145.97l-.02-2.13h.71c.02.78.19,1.85-.7,2.13Z"/>
    <path d="M147.02,166.17v.53c-.37.54-.77.61-1.41.53v-1.05h1.41Z"/>
    <path d="M172.53,145.27l-1-.43-.05-1.7c.56.02,1.24,1.87,1.05,2.13Z"/>
    <polygon points="178.55 173.61 178.55 175.39 177.84 175.37 177.85 173.61 178.55 173.61"/>
    <polygon points="118.33 147.04 118.31 148.81 117.62 148.81 117.62 147.04 118.33 147.04"/>
    <path d="M157.29,156.24c-.97.92-.36-1.65-.7-1.77,1.14-.27,1.16,1.34.7,1.77Z"/>
    <polygon points="164.03 185.49 163.67 187.08 163.33 187.08 162.97 185.48 163.5 184.95 164.03 185.49"/>
    <path d="M157.29,161.92c.19-1.22-1.99-1.8.36-1.79l-.36,1.79Z"/>
    <polygon points="113.72 154.83 113.19 154.83 112.67 154.3 113.36 153.06 113.7 153.06 113.72 154.83"/>
    <path d="M112.29,149.86c-.9-.24-.48-1.36-.7-2.13.9.27.71,1.36.7,2.13Z"/>
    <path d="M158.36,157.67h-.71c-.05-.68-.07-1.34.53-1.77l.19,1.77Z"/>
    <path d="M180.32,141.36c-.2.05-.34.03-.44,0-.05-.02-.09-.05-.12-.09-.07-.07-.08-.17-.08-.29,0-.1.02-.22.05-.36.02-.03.02-.09.03-.15.07-.24.15-.53.2-.78.03-.12.05-.24.05-.34.02-.05.02-.09.02-.1l.29,2.11Z"/>
    <path d="M159.06,179.46c-.61,1.53-2.55.37,0-.53,0,.17.07.37,0,.53Z"/>
    <path d="M150.56,178.21c-.36.36-1.41-.7-1.05-1.05.37-.37,1.41.7,1.05,1.05Z"/>
    <rect x="165.8" y="153.42" width=".36" height="2.47"/>
    <polygon points="162.96 181.05 161.9 181.05 162.26 179.64 162.6 179.64 162.96 181.05"/>
    <polygon points="171.82 181.05 171.46 182.82 171.12 182.82 171.12 181.05 171.82 181.05"/>
    <path d="M163.31,182.82l-1.02-.39-.03-1.02c.46.1,1.34,1.04,1.05,1.41Z"/>
    <path d="M152.33,143.84h-1.05c0-1.29,1.05-1.29,1.05,0Z"/>
    <path d="M185.29,160.49h-.36v-1.77c1,.32.56,1,.36,1.77Z"/>
    <path d="M180.32,144.2v-1.05c1.31,0,1.31,1.05,0,1.05Z"/>
    <path d="M173.94,145.61c-.36-.36.7-1.41,1.07-1.05.36.36-.7,1.43-1.07,1.05Z"/>
    <rect x="184.57" y="148.45" width=".71" height="1.05"/>
    <path d="M162.26,188.49c-.1-.66,0-1.22.7-1.41.1.66,0,1.22-.7,1.41Z"/>
    <path d="M156.58,144.03c0,.22-.85.73-1.05.53-.53-.54,1.05-1.51,1.05-.53Z"/>
    <polygon points="163.31 184.24 161.9 184.07 162.79 183.54 163.31 184.24"/>
    <polygon points="171.12 157.31 170.4 157.31 170.4 155.9 170.76 155.9 171.12 157.31"/>
    <rect x="142.41" y="139.95" width=".71" height="1.05"/>
    <rect x="186.7" y="155.54" width=".71" height="1.05"/>
    <rect x="139.23" y="148.1" width=".34" height="2.13"/>
    <path d="M171.83,140.31c-.1-.66-.02-1.22.7-1.41.09.65,0,1.22-.7,1.41Z"/>
    <polygon points="165.44 172.01 164.74 172.55 164.91 171.12 165.44 172.01"/>
    <polygon points="167.21 135.7 166.51 135.15 167.04 134.29 167.21 135.7"/>
    <path d="M150.91,145.97v1.77h-.34c-.24-.65-.24-1.11,0-1.77h.34Z"/>
    <polygon points="181.75 175.02 181.03 175.02 181.03 173.61 181.39 173.61 181.75 175.02"/>
    <rect x="151.27" y="131.09" width=".71" height="1.07"/>
    <polygon points="165.8 132.86 164.74 132.86 164.74 132.33 165.27 131.8 165.8 132.86"/>
    <rect x="158.36" y="150.22" width=".7" height="1.07"/>
    <path d="M159.06,151.65l-.36,1.77h-.34c-.05-.65-.12-1.55.7-1.77Z"/>
    <path d="M146.45,177.02c.2.2.66.05.56.31l-.88,3.37-1.26-1.23c.66-.83.58-1.85.89-2.68.36-.97.54.09.67.22Z"/>
    <polygon points="144.54 182.11 143.48 182.11 143.48 180.7 144.54 182.11"/>
  </g>
</svg>