<?xml version="1.0" encoding="UTF-8"?>
<svg id="Layer_1" data-name="Layer 1" xmlns="http://www.w3.org/2000/svg" viewBox="0 0 430 425.94">
  <g id="EIhGAk">
    <g>
      <path d="M417.29,4.17c-.49-.72-1.33-.6-2.08-.68-10.12-1.23-24.47.22-35.2.07-28.05-.43-57.06-1.11-85.39-1.45-4.06-.05-29.89-.58-31.23.26-.22.14-.14.96-.26,1.04-1.11.75-1.79-1.19-2.66-1.59-4.15-1.91-36.23.03-44.38-1.11l-5.92,1.43-3.05-1.42C145.33.84,83.32-.35,21.74.11,14.71.16,7.68,0,.68.07l-.68,425.87c13.38-1.25,26.88-.48,40.34-.67,45.39-.65,90.98-2.34,136.37-2.82,13.91-.15,27.85.17,41.74.03-1.16,1.28.19,3.7,1.66,3.41,1.48-.29,1.54-2.92,1.93-3.26.39-.32,4.1-.8,5-.87,27.18-2.05,57.93-.29,85.5-.63,1.62-.02,3.14-.73,4.76-.75,37.56-.46,75.15-.09,112.7-.65L417.29,4.17ZM278.87,25.1c.41.27,1.95,2.78,1.59,3.23-2.66-1.84-2.2-3.43-5.49-1.37-.09,1.25,1.71.46,2.76,1.01.67.34,1.08,1.5,1.62,2.18.2.22,2.18.38,1.11,1.62-.19.22-3.72-2.25-5.51-.68-.02,1.45,2.73.65,2.75,1.71.02,1.91-2.99,2.51-3.82,1.06-.27-.49.51-1.37.26-1.91-.19-.38-4.83-3.11.14-2.93.19-1.91-1.86-2.95-3.09-1.33-.65.85.36,2.53-1.74,2.01.56-4.78,5.44-7.46,9.44-4.59ZM340.23,267.29l-89.4-45.32,1.67,106.85,38.29,2.03-1.36,1.37h3.43l.34-2.05c1.13,1.52,2.76,2.13,4.49,2.75.31-4.66-3.69-5.65-6.19-8.62,2.17-.63,2.46-2.27,5.05-1.47,2.46.75,4.73,3.07,7.35,4.21,3.72,1.6,7.8,2.17,11.71,3.12l-1.37,1.71c1.3,3.16,3.87,1.62,4.08,1.76,1.07.7.61,6.4.02,7.7-.26.53-4.39,6.02-5.12,6.77-1.95,2-5.6,3.24-6.98,4.74-1.14,1.25-2.88,5.63-4.44,6.57-1.77,1.08-7.32,1.89-8.12-.8-.19-.65-.07-5.92.12-6.62.58-2.18,7.93-9.3,7.34-10.12-3.53-.53-7.83-1.25-11.35-1.42-9.45-.46-24.61-.89-33.75.02-1.16.1-2.22.31-3.16,1.04l.02,49.28-73.73.7v-101.31c9.23,8.38,19.09,16.07,26.47,26.24,2.49,3.43,6.67,15.22,10.03,5.78-3.17-3.99-5.61-8.51-8.92-12.41-7.95-9.35-19.66-16.01-27.57-25.48v-62.03c-.46-1.84-4.37.75-5.53,1.37-28.75,15.02-57.09,30.85-85.93,45.68-5.78,1.86-10.19,1.59-9.13-5.67,26.41-47.1,53.68-94.04,80.45-140.74,15.77-27.51,30.99-57.15,47.83-83.82.6-.94,6.04-9.21,6.74-8.74,44.71,76.51,89.38,153.08,135.4,228.8,1.91,7.71-1.38,10.49-8.77,8.09Z"/>
      <path d="M225.28,126.23c.95,7.68-4.14,12.79-6.97,18.76-4.57,9.64-5.91,16.98-5.37,27.69.25,4.95,1.98,11.25,2.06,15.86.2,11.96-2.34,26.55-3.37,38.67-2.2,25.96-1.99,51.79,3.69,78.16l4.5,13.75c1.06-3.34,2.95-6.42,4.71-9.42,3.76-6.4,18.07-26.17,17.42-32.28-.19-1.74-3.31-1.13-1.8-4.46,1.47-3.23,6.48-1.84,6.55,2.38.13,7.91-14.32,29.04-18.74,37.11-1.37,2.51-4.25,10.49-5.35,11.71-.56.62-1.44.46-2.04.9-1,.73-.5,2.25-2.82,1.64-1.58-12.36-6.01-24.65-7.5-36.96-4.01-33.04-.4-59.83-.06-92.22.12-11.61-2.84-25.04-2.12-35.89.56-8.49,6.78-17.45,9.81-24.65,1.7-4.05,1.57-13.12,7.39-10.76Z"/>
    </g>
  </g>
</svg>