<?xml version="1.0" encoding="UTF-8"?>
<svg id="Layer_1" data-name="Layer 1" xmlns="http://www.w3.org/2000/svg" viewBox="0 0 401.03 180.15">
  <g id="n6MnyG">
    <g>
      <path d="M301.27,8.82c.42.06.84-.01,1.16-.61l-1.16.61ZM300.02,8.65c-.11.05-1.42,1.3-1.91,1.81l3.16-1.64c-.46-.08-.93-.31-1.25-.17ZM298.11,10.46l-1.84.96,1.66-.1c-.14-.16-.16-.37,0-.66,0-.02.08-.09.18-.2ZM306.3,13.4l-1.94.35c-.22,1.68.75,3.88-.97,5.12-5.06-2.61,1.53-2.47-.28-6.04,4.76-.63,6.09-4.93.62-1.87l-5.8.36c.51.62,2.73.49,2.57,1.46-2.68.68-2.8-.77-4.51-1.21-.03.51.59,1.23.58,1.54,0,.17-2.17.66-1.23,2.72l-1.92-1.83-1.29,6.07,1.65.6-.37,2.45c-1.12.08-.46-1.27-1.29-2.11-.77-.77-8.28-6.27-8.83-6.38-1.3-.26-2.69.2-3.99-.08l-1.67-4.19c-2.73,1.5,1.6,2.23.32,3.64-1.21,1.32-1.15-2.2-2.58-1.21l-.39,1.74c-8.14-.03-11.6,2.96-15.14,9.32-.27.5-1.21.5-1.21.86.01.52.65,1.24.56,1.8-1.15,7.07,0,6.31,2.5,12.3.31.76-.04,2.29.2,2.53.14.15,1.7.02,2.48.38,1.89.89,3.87,2.56,5.93,3.55,2.9,1.39,8.95,2.97,10.53,5.27,1.1,1.61,1.6,4.97.63,6.67-.18.32-1.06.43-1.35.82-.4.53-.28,1.41-.87,1.9-1.68,1.37-5.06.85-7.02.24.72-3.28-1.9-2.13-2.71-3.36-.71-1.08-.28-3.6-1.18-4.22l-11.64-.86c-.97,8.14,4.26,12.45,9.82,17.54,8.93,1.18,18.94,1.94,24.97-5.67,2.33-2.94,2.41-7.5,5.8-8.83l-2.58-.6c.86-3.97-.56-8.03-3.52-10.98-1.76-1.75-4.83-2.32-3.57-4.84-3.53,1.07-8.28-1.14-11.51-2.82-2.42-1.25-5.22-2.34-5.25-5.4l1.3.3.3-1.73,1.55-.4-1.2-3.34,1.28,1.21c1.79.41,1.59-1.76,2.36-1.87,3.8-.53,5.77,3.73,6.66,6.47l-1.28.57,1.61,1.52,1.29-1.83,2.33,2.39,2.49-.55-1.27,3.65,1.93.32-1.29,2.72,2.57-.6-.64,3.03h1.6c1.42-.58.14-1.87.43-2.29.19-.28,1.27-.24,1.7-1.15.9-1.9.02-4.46.26-5.32.25-.97,2.15-.82,2.48-2.51.41-2.14-2.35-.92-.67-3.32l-1.93,1.81,1.29-4.86.64,1.82c1.7.46,1-.75,1.77-1.18,3.16-1.72,2.51,2.35,5,3.61l.42-1.73,1.83-.09-.97-1.82-.63,1.22c-2.83-1.14-1.49-1.46-1.68-2.66-.07-.44-1.99-.52-1.23-2.22l3.21,2.43.02-4.25,1.92,1.22.64-2.14-1.93-.3,1.29-4.86ZM294.06,11.56c.6.1,1.42-.13,1.93.01l.28-.15-2.21.14Z"/>
      <g>
        <path d="M397.17,152.76c.89.84-.99,9.93-.71,11.91.17,1.17,1.37.84,1.38,1.22.04,1.03-1.68,3.47-1.45,5.01-2.14,1.03-4.78,1.11-6.95.13l1.29,2.43c-.79.05-1.76-.26-2.46.15-.37.21.29,1.33-.76,1.06l.64-3.64c-2.21-.21-11.13.46-12.3-.89l1.98-18.33,19.35.95Z"/>
        <path d="M62.09,77.9l-2.61-1.62c1.22-2.3-1.18-4.98,1.01-6.89,1.58,2.9,0,5.49,1.6,8.52Z"/>
        <path d="M141.28,60.79l-3.15,1.29,1.29-1.51-1.29-3.35c2.75-.55,2.5,1.85,3.15,3.57Z"/>
        <g>
          <path d="M377.85,126.31c.48-24.15-8.96-39.47-35.74-42.31l-.69-1.83-.36,1.77-28.67-1.6-.84.85-6.46,84.11c5.73,1.32,11.79.43,17.67.65,5.74.21,11.67.95,17.48,1.01,1.68.02,3.5-.91,4.96-.8,2.18.18,3.19,2.25,3.4,2.28.81.08,5.64-1.05,4.34-1.86-.3-.18-1.12.42-.88-.6,5.33-3.76,11.04-7.74,15.44-12.49,1.65-1.78,2.22-4.11,4.85-5.17l4.84-17.64,1.01,1.26,2.2-.66v-1.21c-4.64,1.35-2.6-3.27-2.55-5.76ZM348.2,149.43c-1.27.99-6.03,3.33-7.42,3.33h-14.18l3.54-52.34h9.35c23.6,0,22.41,38.35,8.71,49.01Z"/>
          <path d="M161.33,125.07c-.21.79-3.42.84-4.11.82-6.41-.19-12.98-1.46-19.33-.6l-12.01-1.13c-.08,2.94.1,5.91.03,8.85-.05,2.51-.47,4.59-.65,6.69-.13,1.52-.01,3.04-.03,4.55l39.31,1.82-.93,15.25-8.09.58,1.89.64c1.1,1.62-1.6,4.75-2.86,4.82-2.22.12.76-2.47.82-2.79.15-.85-.76-2.23-.5-3.28-.99.02-1.88.65-2.89.62-5.28-.14-11.37-1.07-16.73-1.25-9.65-.33-19.36,0-29-.6-4.09-.72-1.67-6.21-1.6-8.78.41-16.22,1.06-32.52,1.3-48.69.1-6.75-.65-14.03-.07-20.13.17-1.83-.53-7.77.63-8.53,3.93-.4,8.04-.39,11.99-.29,6.1.16,16.29,2.03,21.92,1.28,1.52-.2,2.35-1.25,3.17-1.28.24,0,.79,1.47,3.96,1.77,2.68.26,17.34.33,18.32.96l.63,1.25-.66,14.92-26.79-.66-1.24,1.28c-1.79-3.33-7.76-1.3-11.28-1.83,2.83,2.97.13,2.67-.05,3.91-.42,2.86,1.1,5.2,1.1,6.13,0,.79-2.76,6.31-1.08,7.33l34.83,1.49v14.91Z"/>
          <path d="M241.87,77.3l-1.28-.62-.65,3.04,3.85.92-32.24,33.5,29.66,49.88c-2.26,2.08-5.91.39-8.66.28-4.26-.18-8.91.25-12.96-.53-2.36-2.15-3.93-7.5-6.04-9.39-.74-.67-1.81-.28-1.97-.41-.27-.23-.96-4.21-2.03-6.29-3.31-6.41-7.83-13.25-11.83-19.24-1.05,1.44-4.08,3.22-4.87,4.52-1.38,2.28-.41,10.72-.58,14.06-.07,1.3-.59,2.45-.66,3.63-.24,3.99.44,8.01-.96,11.89l-.63.43c-2.95-1.18-5.23.05-6.48,2.59l-1.29-2.44-.64,1.21-.33-1.82c-3.59.44-7.58-1.44-9.66,1.82l-.64-1.82c-.03,1.99-1.73,1.52-3.23,1.22,1.1,5.01-3.6,4.39-4.51,0,3.5-.16,3.03-2.71,7.09-1.48,2.17-1.21,1.13-11.92,1.26-14.68.48-10.52,1.54-21.13,1.99-31.6.56-13.07.2-26.23,1.26-39.28l19.7,1.18-1,31.08,27.71-29.51,17.01.33c1.33-2.13,1.57-3.93,2.96-6.12l.63,3.65Z"/>
          <path d="M254.11,80.33l52.15,2.82c-.89,4.78-.48,9.73-1.25,14.52-.1.62-.2,1.16-.94,1.37l-36.99-1.59-1.38,17.56c1.26.35,1.72-1.29,2.77-1.12.63.1,1.58,1.38,2.67,1.16l28.71,1.18c-.44,2.42.44,5.4.32,7.61-.03.49-.86,1.14-.92,1.84-.23,2.76.37,5.54-.7,8.2l-1.28-1.82-1.61,1.22-.33-1.83-1.29,1.82h-.95c-.67-.29-.68-1.68-1.42-1.84-4.14-.9-13.83-1.07-18.53-1.23-2.9-.1-5.83.12-8.73.02l-1.25,19.45c1.23-.07,2.4.46,3.59.56,5.81.53,18.28,1.25,23.81.74,1.5-.14.34-1.57,1.88-1.27l-.32,1.22h1.94s-1.28-4.86-1.28-4.86l.64,1.82,2.56-1.83c-1.1,4.18,3.09,1.96,2.58,1.22-2.98.07-.59-2.03.95-1.83,1.44.19.09,3.42-.25,3.87-.73.95-3.12.28-3.27,1.6l4.1.09.97.91-.55,15.44c-1.09.13-2.44-.24-3.46-.02-.75.17,0,1.49-1.05,1.23l-.37-1.82-52.82-1.8.99-27.41c-1.47.78-4.58.71-4.52-1.53,0-.29.94-.24,1.08-.5.43-.75-.21-1.8.86-1.63-.34,1.06,2.79,2.88,3.23,2.43.15-2.52-.19-5.11-.02-7.63.48-7.4,1.56-14.51,1.98-21.86.09-1.52.68-5.02-1.31-4.6v-.59c1.57.53,1.82-3.83,1.92-5.19.39-5.15.26-10.51.68-15.68l1.28-1.65c.84.79,3.67,1.84,4.5,1.21.14-.11-1.04-2.41.97-3.04l-.33,3.04Z"/>
          <g>
            <path d="M98.8,92.23c.25-2.3,4.58-2.08,3.89-7.32l-1.29-.3c.67,1.16-3.68,1.94-3.87,1.81l1.94-3.33c-1.11-1.65-1.94-.04-3.23.29v-8.52l1.3,3.04,1.28-3.65,1.62.6.31-1.81-2.91,1.21c-.29-1.11-2.64-1.75-3.82-1.85-5.55-.47-11.8-.42-17.4-.54l-.36-1.87-1.92.92,1.34,1.16c-.74,3.5.8,9.65-.05,12.74-.04.14-3.42,1.61,0,1.32l.03,27.98-1,1.52c-3.99-2.34-7.05-3.18-6.13-8.51l-1.29,2.43c-.52.56-3.7-6.11-4.02-6.87-1.43-3.53-.59-2.62-3.07-6.37-3.76-5.67.93-2.84,1.29-3.19l-.61-2.72c-2.98.13-.56-1.39-2.28-2.75l-1.42,1.12c-3.09-.16-2.54-6.79-2.87-7.13-.19-.21-1.44.02-2.42-1.05-2.05-2.26-3.45-9.98-6.84-10.59-1.74-.31-3.9.36-5.65-.13-1.21-.34-1.88-1.95-2.72-2.31-1.85-.79.39,2.31-1.28,2.42-1.26.08-.62-2.44-.32-3.03-2.31-.56-.87,1.92-1.29,2.44l-5.41.04c-.98-.24-.73-6.81-2.32-4.92l-1.3,7.91-2.22-.58-1.32,3.02-1.6-1.21c.38,2.82,1.33,3.26,0,6.08.55-.31,1.82-.54,1.96-1.02.28-.98-.87-2.91.92-2.63,2.37,1.3,1.03,2.22,1.08,3.37.01.24,1.95.47,1.19,2.1h-2.58c.7,1.08.53,3.46-.97,3.52-.51.02-1.11-1.49-2.25-1.08.14,1.55.11,2.95-1.27,3.96,1.06,1.34,2.24,1.36,3.8.92l.77,2.97,2.5.06.64,20.69c-3.12-.36-4.05.92-.6,1.55l-.14,12.66-2.48,1,.64-1.81-3.21.61c.32-3.74-2.87-1.32-1.29,1.21l-1.96.34-1.92-3.67c.99-1.39,1.86-.87,3.22-.32l-.63-1.82c.5-.4,2.78,1.8,3.86.6.73-.82-1.19-2.33-2.27-1.31l-.31-1.73-2.57,2.43c-.35-1.12-.17-2.87-1.93-2.43l-.3,3.1-2.3.23c.14,3.41-2.76.39-2.56-1.5l.96,1.21.94-1.47c-2.59-1.8-2.35-3.63-2.55-6.44-1.45.15-2.31,4.5-1.92,4.85l1.92.62-2.94.6c.74,3.92-1.52,1.43-1.57-1.21l-1.64.56-.3-1.16c-4.36,3.89,1.98,2.85,2.97,4.25.37,1.71-1.1,2.83,1.55,3.06v.59c-2.16.03-1.47,3.49-3.22,4.87,3.21-.04,6.08-.78,6.45,3.05,3.68-2.08,5.67-2.06,9.82-1.18.54.12.44,1.12.88,1.15,1.25.09,3.9-.39,5.12,1.23.68.91-.02,5.08-1.66,5.19,2.81.82,1.22,3.85,1.33,6.06.15,3.15.71,6.29.61,9.47l19.98.6c.72-7.78-.97-17.07-.02-24.67.2-1.63,1.34-2.83,1.37-4.27.03-1.13-1.24-.54-1.4-1.75-.43-3.18.45-6.73.56-9.78.13-3.4-2.15-4.56,4.01-4.91l4.49,8.57c-1.31.6-3.46,0-3.21,2.11,2.3.7,4.59,3.07,3.87,5.49,1.92.54.8-2.23,2.81-.64.82.65.33,1.62.4,2.46l-.96-1.82-2.25,3.04c.43-2.73-.92-2.93-3.22-3.65.18,3.77-2.08,1.29-3.22,0-.65,1.84-.12,3.32-.05,5.09.02.62-.65,1.4-.63,1.86.03.62,2.3.59,1.96,1.87l-1.3.02v4.55s2.9-1.83,2.9-1.83c.41.01.74,3.69,1.95,1.83.5-.77,2.19-3.38,2.23-4.01.17-2.63-3.27-5.19,1.31-5.11l-1.28,1.51,1.92.91c-.78-1.46.98-2.39,1.61-3.64,1.38.65.32,1.9.5,2.31.09.22,2.57,2.12,2.93,3.62.17.75-.55,1.65-.42,1.89.07.14,1.74.4,2.23,1.9.39,1.18-.51,2.36-.41,2.44.17.13,1.27-.34,1.99.39.32.33,4.04,7.59,4.2,8.13.42,1.43-.44,2.31-.38,3.66l2.57.31-1.93,3.94,2.26-1.82c.84,2.96,7.99-.32,9.33,2.13l-.95,1.53,2.13-.9-.53-1.54,8.37.61-1.29,6.69h-1.92c-1.04-1.13,1.24-4.84-.96-4.86-1.28.6-.43,1.81-.75,2.43-.42.83-1.37,1.31-1.77,2.57-.36,1.17.36,2.22.26,2.29-.34.23-2.63-.31-3.23.92.51.78,4.48.06,4.5,1.22.02.98-1.91.82-2.56.3l.59,1.79-1.25.34c-.06.27,5.95,1.86,1.94,3.04,3.18,1.29,1.06,1.58,1.61,3.96l2.9-2.74-1.28-1.51,3.21-.62-.64,1.82h1.93c.13-2.42-.69-2.97-2.9-3.64l-.37,1.77-1.87.05,1.28-1.82-1.29-1.84-1.29.31,1.29-2.44.65.92c.98.38.35-2.35,1.6-.6.66.92.97,1.93.99,3.03h1.92v-3.03l1.92,1.82c.05-3.91-3.2-5.08.01-8.81l-3.22-1.84,1.13-.4-.49-1.12,2.55-.03.67-3.94.65-62.98,1.92,1.23-1.27,2.42,1.92-.61.04,1.81c2.49.08,3.3-.51,3.83-3.02-1.86.09-3.48.04-3.24-2.11ZM71.11,118.08c5.59-.45,2.96,3.92,3.86,7.29l-3.86-7.29Z"/>
            <path d="M74.98,125.37l-3.86-7.3c5.58-.44,2.96,3.93,3.86,7.3Z"/>
          </g>
        </g>
        <g>
          <path d="M119.44,8.22l2.58-.92-.65-1.81,3.87,1.81c-1.88-1.65-.34-1.95-.34-2.7.02-1.58-1.23-3.81.97-4.6l.64,2.43.64-1.82,1.29,3.03-2.47.7.17,2.35c1.17,1.41,6.05.05,6.75.69.19.17-.09,1.18.23,1.53.54.61,1.68.64,2.12,1.42.27.49.2,5.35,1.59,6.7l1.92-.61c.73,1.54-1.33,1.16-1.29,1.51.13,1.19,1.33,1.94,2.59,1.53l.65-2.75-1.3-.58,1.29-2.42-1.93-1.24,2.58-2.49-.65-2.38,1.63-.33c1.15,3.06-.32,5.9-.97,8.81l3.21.63-2.57.92c-.25.93.96.45,1.3,1,.5.8.67,1.71.62,2.64l-.96-1.21c-.94,1.11-2.31,2.4-2.25,3.88.08,1.97,4.16,10.31,5.32,12.68.68,1.38,2.31,2.06,1.77,4.12,1.09,0,1.23-2.03,1.29-2.73.14-1.67.22-12.43-.18-12.96-.24-.33-1.43.34-1.12-1.04,2.3-.72,1.19-4.9,1.3-7.3.12-2.64,1.17-3.37-.06-6.54-.23-.6-1.89-.33-1.24-3.2.52-2.28,8.11-1.69,2.58-3.96l.32,1.21-1.86.57-1.03-2.4,1.92,1.21c-.03-2.25,2.93-1.36,4.52-1.82l-.57,1.55c2.52.71.21,3.64,1.27,5.71,1.33.14,6.72-.32,7.06,1.06l-1.95,53.16-11.04-.31c-2.64-.53-3.88-6.86-5.4-8.86l-2.24.04v-1.21s1.22-.8,1.22-.8l-6.07-13.26-1.6.05c.56-3.35-1.76-6.03-2.59-9.13l-1.28,31.64h-11.28c-.92-.53-.89-1.21-1-2.1-.79-6.39.57-13.16.72-19.51.07-2.89-1.22-5.24-.04-8.21l-2.57,3.35c2.12.53,1.16,2.16,1.28,3.95-1.12.16-.46-1.14-1-1.81-1-1.27-2.76-.07-.29-3.65l-3.23,2.12.02-4.52,2.55-.67c.62-2.18-1.99-1.42-1.27-3.85.12-.41,2.42-.8.65-4.04,1.25.86,1.66,1.16,3.21.61-.17,2.49.25,5.15-1.29,7.3h1.93s0-22.21,0-22.21Z"/>
          <path d="M113.8,36.53l-1.49-.34c.1-4.72.41-9.44-1.26-13.97l1.29.31v-1.22l-1.81-1.63,1.82-2.93c-.74-.65-4.35-1.23-4.55-1.88-.61-1.98,1.07-5.09-.18-7.37-.21-.38-3.66-3.78-4.29-3.23.96.92-.72,5.5-1.93,4.25l-.5-2.17,1.78-1.47-3.21-.62-1.29,2.44-.31-1.77c-2.39.89-6.39-.64-4.85-3.1-2.34,1.36-1.76-.21-2.1-.39-.61-.33-1.13-.23-1.76-.23v2.45c-3.32-.5-6.3.75-9.44,1.16-.76.1-1.95-.59-2.1-.5-.13.08-.35,1.29-.99,1.79-1.62,1.28-3.67.72-4.56,3.02h-.95s-.33-1.21-.33-1.21c-2.55,3.58-3.81,8.66-5.97,12.63-.73,1.33-3.03,2-2.74,4.7l1.94-.29c-.18,3.93-1.1,7.84-.59,11.81.42,3.29,2.87,7.17,1.89,10.7l1.63-.05c.26,4.61.78,2.17,1.92,3.03,1.15.87,2.8,3.56,4.48,4.95,9.3,7.64,24.15,7.92,32.24-1.22.78-.88,3.45-4.14,3.82-4.92.99-2.11.3-6.12,3.58-6.66l-1.32-.99c-.18-.69.2-2.97.62-3.52.25-.33,3.87-.61,1.51-1.56ZM98.78,39.82c-1.62,4.18-2.54,8.42-7.55,9.96-1.15.35-1.84-1.31-2.44.76-17.27-1.03-16.84-39.89,2.29-35.3v4.24s.65-3.04.65-3.04c.92-.61,3.53,1.62,3.9,2.25.54.91.31,2.07.67,2.74.95,1.74,3.91,3.59,1.23,5.95l1.93.95-1.31,3.01c2.24.21,1.63,7.59-.62,7.62l1.25.86Z"/>
          <path d="M375.58,73.64c-.44-.06-1.98-.69-2.29-1.03l-10.93-20.88c-6.12,4.03-3.71,14.29-5.14,20.69-1.94-.79-3.77,1.21-4.83,1.24-.39.01-.23-1.12-.75-1.24-1.81-.42-4.6.54-6.59-.68l1.22-17.58c-5.66,1.06-2.98-3.81.64-2.43-.55-1.77.63-4.28.48-5.71-.09-.89-1.01-1.5-1.12-1.91-.07-.28,1.08-.16,1.42-1.14.26-.77.3-5.49-.11-6.03-.49-.66-1.83-.02-1.31-1.63,4.74.17,1.16-8.02,3.07-11.19l-3.71-2.19,3.86-1.23c-3.23-2.95,3.03-2.9,5.16-3.03l.34,1.83c2.45-1.96,4.24,0,7.12.56l.91,4.91c.52-2.44.5-4.06-.61-6.35l3.2-.95c-.1,1.84-1.06,3.52-1.57,5.2-.15.49.3,1.36.02,2.11-.55,1.5-2.18,1.69-2.33,2.25-.41,1.6-.62,7.25-.81,9.46-.06.72-1.27,1.2.48,1.06,4.46-4.92,10.36-9.87,14.49-14.92,1.23-1.5,2.62-3.16,2.6-5.16,2.63-.5.15,1.8.64,2.44l1.15-.45,1.07,1.12,2.28-.98c.42-1.54-1.27-.55-1.76-1.01-.13-.12-.69-1.96-.67-2.06.28-1.32,4.77.09,3.05-6.02-.42-1.51-2.56-2.48-.03-3.02l-.62-2.97c2.53-2.86,5.22.07,8.07-2.27l.99,2.45c2.18.1,3.55-2.16,5.82-.93,1.22.74-1.52,4.53,2.55,4.29l-2.58,1.52,1.62.61.31,1.2c-2.68.36-2.18,1.57-2.6,3.35-.22.94.48,1.08-1.26.93.34-1.1-.7-2.51-.66-3.31,0-.21,2.18-.3,1.28-3.58-.13-.48-1.08-.34-1.22-.82-.19-.63,1.1-3.09-1.34-2.64-.13,1.52,1.25,10.52-.33,10.95-.77.21-2.1-.26-2.25-.92-.31-1.37,2.91-.89.8-5.65-.4-.89.41-1.66-1.44-1.34v9.73s1.06-1.22,1.06-1.22h2.16c.34,2.32-.69,3.71-3.22,3.67l1.29,1.52-1.93.3c-.58,2.47,2.11.17,2.58.61l-.65,5.47-1.61-3.65-.7,2.49c-1.84,1.35-3.49-1.26-4.12-.66l1.28,3.65c-.68-.57-2.33-.08-2.46-.18-.11-.09-.13-1.96-1.39-1.03-.08.06-.13,1.08-.63,1.52-1.83,1.59-11.53,10.05-11.66,11.6l10.3,20.54c.69.72,1.94.49,2.61,1.34,1.25,1.6-1.76-.4-1.27,1.19.89,2.93,3.76,5.11,3.85,8.23-3.51-.35-7.9.48-11.28,0Z"/>
          <path d="M254.76,30.44h-1.94c.85-.75.56-6.44-.64-5.49-.22.18.5,1.48-.64,1.22v-3.04s-1.29.61-1.29.61v-3.05s-1.2.52-1.2.52c-.92-.94-2.69-4.56-3.33-5.07-.81-.64-2.45-.53-3.44-1.04-.78-.4-.9-1.37-1.22-1.54-.32-.18-6.38-1.31-7.25-1.38-33-2.79-35.03,48.97-10.67,55.11,4.28,1.08,8.67.14,12.6,1.49.38,0-.53-2.37,1.61-1.83,1.35,2.74-.8.86-.63,3.04l3.18-.67c-1.24-3.9,4.23-6.14,6.81-9.06,4.88-5.54,6.68-12.71,7.39-19.79.36-3.54-.92-6.7.66-10.03ZM241.25,42.93c-.42,4.49-4.11,13.96-9.41,14.86-18.77,3.23-15.47-40.52,2.01-34.69,1.79.6,5.2,2.78,4.54,4.92l-2.22,1.91c-.44.63,1.07,2.39,2.47,1.12-1.87,2.25-4.21-.16-3.13,4.21l1.77.08c.14,2.5-.3,4.1,2.65,3-1.96-1.96-1.26-4.53-.63-7,.24-.92-.45-1.06,1.28-.91.41,4.11,1.05,8.35.67,12.5Z"/>
          <path d="M25.37,1.83l-.67.36.02,2.68-1.92-.61,1.28,3.04-3.22-.61c-.36-.38,1.26-2.72,1.65-3.06.98-.87,2.04,1.41,1.58-3.01,1.71-.18,1.17.05,1.29,1.21,3.16-1.74,2.56-.05,4.83.06,2.87.13,5.52.37,8.39.54,7.38.46,14.83.41,22.13,1.31.67,1.78,1.68,10.29-.31,10.82-.9.24-7.82-1.09-9.59-1.17-3.96-.17-7.96.12-11.92,0,.46,4.02-1.52,7.6.07,11.5l17.66,1.28,1.61.92v9.43c-6.35-.98-12.82-1.45-19.26-1.15-.35,7.32-.52,14.61.57,21.84l-14.82-.61.69-5.14-1.96-.35.95-3.03.64,1.82c1.61-1.06.62-2.22.32-3.65l-2.57.62v-2.44s-3.23-.3-3.23-.3c.04-1.54,2.05-2.37,3.47-2.17l2.32,3.69v-4.86s-2.57,0-2.57,0c2.51-2.19,3.12-2.45,2.57-6.08-1.37,0-.18,1.99-.78,2.92-.22.34-2.68,1.87-3.08.42-.62-3.13,2.4-2.59,2.56-2.74.54-.53-.87-2.77-.32-3.64h1.96s-.34-2.43-.34-2.43l-1.27,1.21-.33-2.43-.97,3.04-3.22-.61c-.64-2.41,2.45-2.16,2.59-4.25l1.91,1.22c-.82-1.99,1.15-4.58,1.18-5.9.03-1.77-2.28-.87.17-2.88l-.71-8.26c-.99.07-1.26,2.71-1.3,3.37-.11,2.31,1.77,6.08-1.27,6.38l1.32.94-.69,2.7-1.74-.89.45-2.15-1.92,1.21v-6.08c-.18-.21-4.25,3.12-3.88.92.22-1.31,1.17-2.59,1.3-3.96l1.28,2.43c3.46-.13.16-4.33,1.94-6.69l1.29,1.82.64-2.43,3.21,1.82c-.17-2.57.26-5.38,0-7.91Z"/>
          <path d="M168.74,20.69c-1.83-.53.35-8.02-.23-9.95l.97-.94,20.2,1.15-.64-3.04h3.21s1.02,3.55,1.02,3.55c3.12-.51,6.66.21,9.92.39,1.13.06,2.39-1.13,4.54.32v8.82c0,.17-.66,1.42-1.09,1.54-2.26.39-4.94-.41-7-.36-.94.02-1.41.8-1.91.95-.2.06-.78-2.31-3.49-1.18l-1.65,44.4c-3.62-1.82-8.43-1.73-12.56-1.83l1.33-42.83c-.08-.27-2.12-.99-2.29-.99-2.25,0-8.79.44-10.31,0Z"/>
          <path d="M116.79,16.34c.26-.17-.38-1.7,1.36-1.12l.65,4.25-1.61-1.82-1.29,3.03c-1-.46-.66-1.87-1.13-2.31-.54-.51-2.34.58-1.76-1.33l.64-1.83,3.15,1.12Z"/>
          <path d="M338.83,50.51c.87-.36,3.03-2.12,3.56-3.03-2.01-.21-4.47-1.63-4.84-3.66l-2.24,3.65c-.54-1.26.72-3.09.65-3.9-.03-.36-1.07-.36-1.13-.53-.99-2.93.21-4.82.46-7.74l-1.92,3.04-3.98-19.97c-2.44-1.94-3.32-.23-4.68-.17-1.31.05-3.26-1.01-4.88-.55l-.32-3.04c-1.95-.33-.52,2.68-.96,3.04-.23.19-1.8-.28-2.47.1-.86.5-1.25,5.87-3.98,5.38l-.63-1.82-.65,3.64,2.25-1.21-.33,2.44c-2.87-1.7-3.44,1-2.08,1.22.64.1,1.96-.39,1.44.89-.98,2.41-1.26-.48-1.92-.29l.37,3.65-11.26,27.03-3.94-.25c-.04.78-.2,1.69.63,2.16.67.38,2.37-1.22,1.96.58-.65,2.84-3.22,2.31-4.52,4.87l2.57-.91-1.29,4.86h11.92c.15,0,.72.91.97.61.05-1.21.13-2.81.76-3.87.49-.82,1.62-.94,1.7-1.08.09-.16-.57-1.36-.29-2.36.4-1.42,1.32-2.75,1.8-4.15l14.69.54,1.99,11.5,12.86.64c-.68-1.67.16-4.41.01-5.68-.05-.43-1.14-.34-1.41-1.23-.73-2.39-2.36-8.8-2.47-11.05-.06-1.21.11-.95,1.28-.91l1.94,2.43v-4.25l-3.86-.32.65-2.12c2.58-.81-.4,2.64,1.59,1.82ZM315.33,49.9c-.49-.43,3.29-9.64,3.92-11.07.33-.76,2.26-1.47,1.24-4.14,1.58.54,2.29,6.98,1.73,7.79-.21.3-1.21-.12-1.1.43,3.08,1.2,2.15,4.94,3.22,7.6l-9.01-.61Z"/>
          <path d="M94.95,18.87l.65,2.43-1.92-.61c-.42.54.93,5.92-1.94,5.47l.69-3.84-1.98-2.24,4.5-1.22Z"/>
          <path d="M230.24,31.69c.05.04-.17.55.59,1.12.22.16,1.06-.07,1.27.15.36.38-.06,1.36.12,1.89.25.75,1.83.06,1.28,1.67l-3.86-.62-.63-3.95,1.23-.26Z"/>
        </g>
      </g>
    </g>
  </g>
</svg>