<?xml version="1.0" encoding="UTF-8"?>
<svg id="Layer_1" data-name="Layer 1" xmlns="http://www.w3.org/2000/svg" viewBox="0 0 360.74 467.24">
  <path d="M6.76,206.6l-.14,3.29-1.97,7.29c0-3.26.48-6.61,1.07-9.79.16-.86-.35-.92,1.04-.8Z"/>
  <path d="M204.24,405.72c-.24.23-4.62-.38-4.76-1.58l3.17.52-2.11-1.06.78-.99c1.5.4,3,1.32,2.92,3.11Z"/>
  <polygon points="2.52 308.28 .92 304.36 2.27 303.52 2.52 308.28"/>
  <path d="M354.61,262.74c-.09-.86.3-1.63.46-2.45.14-.7-.34-1.91.58-1.78-.1,1.37.6,3.57-1.05,4.23Z"/>
  <rect x="316.48" y="424.25" width="1.06" height="2.12" transform="translate(-109.02 741.36) rotate(-89.87)"/>
  <rect x="124.58" y="441.16" width=".76" height="2.99" transform="translate(-276.38 217.96) rotate(-44.99)"/>
  <circle cx="158.19" cy="440.66" r=".65"/>
  <rect x="175.13" y="422.14" width=".52" height="1.05"/>
  <rect x="75.6" y="419.49" width=".52" height="1.05"/>
  <rect x="78.77" y="417.37" width=".52" height="1.05"/>
  <rect x="354.61" y="264.33" width=".52" height="1.05"/>
  <rect x="204.25" y="402.02" width="1.05" height=".52"/>
  <path d="M3.05,260.09c.14.99,0,1.83-1.05,2.12v-2.12s1.05,0,1.05,0Z"/>
  <g>
    <path d="M269.89,166.88h-1.59c1.29-.26.65-.11,1.59,0Z"/>
    <path d="M299.54,125.05c-.92.05-.9-.46-1.06-.53.04.04.56.12,1.06.53Z"/>
    <path d="M245.54,157.88c.78.73,3.08,1.2,3.18,2.91l-3.18-1.85v-1.06Z"/>
    <path d="M44.89,461.85c.2-.29-1.52-4.31-1.59-5.07-.17-1.8,1.29-3.75-.03-5.75l1.11-.58c-1.73-2.68-.67-4.88-.86-7.4-.25-3.27-1.1-6.48-.76-9.8h6.36s0-20.12,0-20.12c-.98.14-1.86.53-2.88.56-3.76.12-9.18.45-12.74.24-.67-.04-2.68-1.84-3.73-.3s-.18,7.91-1.83,10.09c-1.58-.43-1.93-1.37-3.7-.52,1.7,1.6.06,1.76-.03,3.41-.24,4.32.4,8.76-.21,13.07.29,1.75,2.58.03,1.82,3.11l-1.31-1.06-.27,1.59,3.17-1.06c-.85,3.28-.97,5.81,0,9-2.83-.25-5.19,1.29-5.03,4.23l-3.2-1.58.28-3.71c-1.74-.44-.46,1.41-1.85,1.06-.53-.13.1-1.39-1.05-1.06-2.07,1.51.34,2.94.27,4.45s-2.55,3.33-1.61,5.6c-3.05-1.01-2.81-5.53-2.62-8.18.08-1.16,1.31-2,.5-3.47l-2.11.53.05-3.67,1.53-.03c-1.61-5.05-1.18-9.24.29-14.27.16-.57,1.3-1.54,1.3-1.88v-7.68l-2.64,1.59c-.47-2.22,3.42-1.48,2.64-3.43-.22-.54-.94-1.08-1.59-.54-.72.59-.07,1.95-1.04,1.86.21-1.37-.44-2.66-.53-3.98-.8-11.44,1.39-22.42-.04-34.39-.15-1.25-2.18-2.23,1.09-2.93.21,1.82-.65,4.53.78,5.84,2.2,2,.26-2.6.23-2.91-.42-4.08.17-8.7-.2-13-.08-.91-.74-2.97-.67-3.46.25-1.59,3.07-.69,2.51,1.35.16.17,1.05-.68,1.05-.79v-8.21l-.53,1.06h-1.06s0-7.41,0-7.41c-.95-.34-1.39.93-1.85.93-.55,0-1.75-1.57-1.86-2.29-.24-1.52-.04-6.12-.02-7.93.02-2.06-.3-3.12-.33-4.22-.01-.38,1.29-1.45,1.42-2.69.22-2.12-2.04-4.66,1.07-5.78l-1.11-.59c1.18-2.37-.28-3.59-.46-5.26-.54-4.9-.48-10.13-1.09-15.06-1.02-.07-.33,1.5-.53,2.28-.1.4-.94.33-1.04.72-.28,1.16.27,6.26-.01,6.52h-1.58c.75-1.53-.36-2.51-.39-3.67-.02-1.03.89-1.63.82-2.8-.15-2.48-2.6-6.95-2.76-9.54-.08-1.36.97-1.95.76-3.24-.03-.19-1.37-.77-1.59-3.27-.4-4.46,1.61-2.9,2.11-6.61,2.88.96,1.28,4,3.17,5.3-.89-1.96,1.01-2.83,1.05-3.01.15-.65.45-5.75.41-6.65-.04-.85-1.3-7.42-1.59-7.69-.3-.28-1.44-.27-1.98-.66l.52,4.24c-1.11-.67-.92-2.02-2.64-1.59-.16-1.17,0-1.14,1.06-1.06l-1.06-.8c-.83.56-1.57,4.48-3.16,4.53,1.8,1.91,1.41,4.13,1.6,6.58l-1.62.28c.31,2.46,2.24,2.79,1.02,5.78l-2.07.04.02-18.82c-.96-2.36-.03-4.21,0-6.31.06-3.99-.39-8.03.51-11.94l1.58,1.59c1-4.9.36-10.13,1.02-15.13.13-1.02,1.1-.71,1.12-1.06.03-.72-.86-1.89-.54-2.87l2.11.53,1.07-4.49c-.02-.41-2.86-.03-2.15-2.64l2.68-1.17c-.33-1.57.65-3.25.57-4.67-.07-1.16-.91-1.74-1.08-2.67-.11-.58,1.43-9.77,1.71-11.48,3.02-18.45,5.34-38.82,11.23-56.27.42-1.26.67-3.15.81-4.51l1.33.54.84-3.93,3.92-4.02c.51,1.4-.62,2.8-.27,4.39.09.43.94.38,1.22,1.01.78,1.79-.07,5.25,2.48,4.66l-.3,1.08-1.81,1.04h1.59s0,1.06,0,1.06l-1.33.02c-.36-.12-.19-1.01-.26-1.07-.07-.07-1.05.23-1.11-.34l.58-2.31c-.75-.15-.87.04-1.28.57-.56.72-3.73,8.55-4.27,10.03-4.56,12.61-6.51,26.51-8.61,39.58-.34,2.15-1.02,4.72-1.19,6.76-.05.58-.39,1.97.52,1.84.84-4.62,2.5-9.06,3.59-13.63,1.96-8.21,3.24-15.61,5.98-23.67.61-1.8,3.04-8.78,3.95-9.82.43-.49.57-.69,1.3-.54l1.32,1.99,1.34-.41-.53-1.58c6.59-1.32,12.97.26,19.59,0,.14-.7-.23-1.23-.76-1.62-1.55-1.12-13.88-.7-16.7-1.03,1-1.57,3.79-.17,5.29-.53.02-1.01-2.29-.7-2.64-1.06-1.08-1.11,1.34-.83,1.05-1.58l-5.83-.8,4.77-3.18-2.11-.52,3.17-3.72-1.05-.25.03-1.55c2.48.41,3.28-3.89,1.95-5.21-1.93-1.91-8.19,1.2-8.77-2.61-.11-.7,3.34-5.09,3.6-4.92l2.11,1.91-.51,2.32,2.11.3c1.58-2.76,4.93-4.72,6.89-6.93,3.54-3.98,5.82-9.75,9.79-13.55,1.32-1.26,4.37-1.19,3.71-4.22,1.33-.53,8.12-6.11,8.48-6.85s.3-1.57.26-2.38l-1.05-.26c-.37,1.75-3.13,4.37-4.77,2.91l5.24-3.76c.97-2.11,5.06-3.97,5.87-5.78.1-.23.13-.87-.26-.78-1.01.98-3.01,2.28-4.5,1.85,1.52-1.84,8.18-6.95,10.26-6.65.15.02.67,2.14,2.48.86,1.04-.74-.58-3.97,2.65-5.82,2.22-1.27,1.83-.13,3.92-2.44.93-1.02,1.67.35.81-2.63,2.58,1.24,6.11-.14,8.76-1.03,8.38-2.81,18.41-8.4,27.24-11.94,2.69-1.08,5.41-2.92,8.46-3.47l-1.21.16c1.77.64,0-13.02,0-14,0-65,1.05-6.59,2,12l1.86.28c.01,1.08-1.62.14-2.06,1.38s.61,6.27,1.52,7.36c4.18,4.95,9.02,1.58,14.3,3.97l-1.58.79c.6.83,1.46.84,2.37.84,4.1,0,10.54-2.06,14.89-2.63,4.11-.54,8.29-.51,12.38-1.12l-.79,1.59c2.57-2.14,3.32-1.03,5.8-1.04,7.95-.03,15.92.13,23.87,0,4.78-.08,11.2-1.26,15.85-1.11,1.83.06,4.59,1.66,6.42,1.59,1.33-.05,1.05-1.81,2.59-2.1,1.39-.26,3.24.16,4.77,0,3.34-.36,6.43-1.4,9.8-.52v-16.15l-.88-.71c-8.76.66-17.57,1.01-26.38,1.51-11.5.65-23.45,1.83-34.93,2.13-9.12.24-18.9.44-27.81-1.09l5.61-1.53,7.09-.58c-.61,1.36-2.52,1.67-3.7,1.05-.72,2.41,5.21,1.33,5.73.97.39-.26.53-1.96.63-2.56,2.55.08,5.68.26,8.19,0,2.97-.32,6.77-1.77,9.58-2.07,5.49-.59,12.32-.43,17.98-.55,2.77-.06,4.76-1.74,7.11,1.04l.87-1.52,30.42,1.29.51-3.51,1-5V12.58s2.51,41.85,1,47c-.58,1.97-.92,8.98-.92,8.98,0,0,1,4.12,1.27,6.18l6.51-2.04c2.57.55,1.62.13,2.69-.56.3-.2,1,.04,1.13-.07.07-.05-.57-.98-.29-1.56.42-.87,2.66-1.24,2.42-2.38-2.1-2.52-5.77-1.02-8.46-2.93l1.57-1.32c-.59-1.71-7.42-2.42-6.34-3.96,4.94-3.08,10.79-1.26,16.15-.55,2.33.31,4.19-.48,6.57.84,3.07,1.71,2.62,4.4,3.52,7.06.15.46.99.83,1.19,1.48.26.86-.12,2.28.17,2.73.4.63,12.73,2.48,14.22,4.58,1.16,1.17.27.75-.59.59-2.49-.47-5.55-.71-7.61-1.92l-.26,1.05c3.44,1.65,12.25,1.66,14.56,4.24.65.72.98,1.03.78,2.12-1.58.26-3.15-1.32-4.24.28l1.59,2.64-1.05.79,2.4-1.07,1.59.52-.06,4.8,13.53,5.3-.54,1.57c2.86,0,1.68,1.72,2.61,2.97.87,1.18,2.13-.23,1.11,2.86l2.64-1.58v5.82c-1.41,0-1.95-1.48-3.46-1.57-1.29-.08-3.11.73-4.47.77,2.23,4.52,10.53,3.58,7.94,10.32.52-.15,1.13.54,1.33.54h21.44l-4.23-6.35c.81.7,2.16.06,2.68.29,1.03.45.52,2.25,2.08,1.83-.96-2.4-.47-3.91-.51-6.06-.04-1.99-1.38-4.24,1.57-5.06-.06,1.12-.09,2.07.29,3.16.71,2.03,5.37,7.61,6.82,10.13,1.24,2.16,3.65,4.86-.21,5.78-.88-2.66-2.69-4.94-3.88-7.43-.22-.45.22-1.02.17-1.04-.77-.38-2.2.7-2.92-1.59l-1.13,4.77c1.98,1.19,3.61,6.23,4.52,7.06.71.65,1.85.11,2.44.86.43.55,1.09,3.66,1.64,4.71,2.39,4.58,7.95,6.42,10.17,9.95,1.2,1.91,2.62,9.45,3.39,12.09.05.18,1.66.68.93,2.38l-2.39-2.12c-3.81,1.48.7,5.92.82,7.17.1.97-1.42,4.03-1.6,5.81-.22,2.13-.23,16.63.6,17.13l3.28.05c2.2,5.65.87,12.48-.13,18.35-.37,2.17.31,3.57-1.11,5.77-2.01,3.1-5.61,3.7-9,3.97,3.39,2.81-1.1,8.75-.4,11.47,2.07,8,1.03,14.37.5,22.68-.09,1.4.44,4.13.17,5.82-.25,1.58-2.16,1.44-.2,4.19.43.6,1.56.89,1.52,1.1-2.49,2.46-1.63,2-1.75,4.71-.02.38-.77.86-.77,1.14,0,.18,2.03,2.64,2.28,2.87.87.79,2.41.7,2.8,2s-.72,3.8-.48,5.73c.19,1.58,1.24,2.1,1.51,3.27,1.03,4.35-2.45,3.11-3,3.94-.38.58.34,2.43-.87,3.1-.48-.36-.36-1.84-.25-2.37.2-.92,2.4-2.6.77-2.93-.68-.14-4.2,1.31-4.42,1.67-.43.72.4,1.55.46,2.04-.35-.04-.71.01-1.06,0v2.11s1.05,0,1.05,0c-.05-.69.09-1.43,0-2.12,2.95.3,1.94,5.04,1.06,6.88h2.12s0,3.71,0,3.71c1.25.78,1.02-2.05,2.11-1.05.26.24.64,2.85.6,3.46-.07.92-.95.7-1.08,1.17-1.48,5.65-.67,11.61-1.29,17.26-1.87,17.17-8.25,32.24-12.78,48.53s-1.55,29.66-.79,45.82c.38,8.1.53,16.09.53,24.09l-4.23-1.05c.16,1.71,2.16,3.17.26,4.76-.62-3.94-1.3-7.93-1.85-11.92-.36-2.61-.17-5.77-.66-8.35-.35-1.84-1.78-2.67-1.99-3.84-.93-5.11-2.17-10.28-3.15-15.39-.58-3.05-.68-6.82-1.17-9.96l-1.51-.33,1.51-3.29c-.59-1.37-.07-3.75-2.05-3.59l-.25,1.05-.75-.87c.78-1.55-.05-3.08,0-4.19.05-1.02,1.41-1.83,1.02-3.68l-1.55-.3-.06-2.62-1.06,1.58-.78-1.05c-1.26,1.36-2.47,2.73-4.5,2.65-1.51,1.35,4.45,1.22,4.77,1.59l-.57,2.07-17.02-.92c-.64.48-3.27.79-3.49,1.05-.17.2-.22,1.67-.51,2.39-2.48,6.21-1.76,2.89-4.16,2.38-1.84-.39-1.89,1.79-2.59,2.52-4.25,4.43-7.52,10.48-8.65,16.78-.33,1.87.03,7.17-.36,8.17-.67,1.75-3.39,1.75-1.31,5.49l-.51.59c-2.8-.07-1.75,1.09-2.25,1.68-.17.2-4.17,2.31-4.69,2.51s-3.78.62-4.1.16l-.09-1.45c-2.17.5-3.41,1.54-5.61.01.57-2.06-.47-1.35-.9-2.26-1.75-3.75-.65-10.73-1.49-15.44-.12-.67-.17-2.17-1.25-1.9-1.98.81-1.37,2.87-1.85,3.41-1.31,1.5-5.17,1.67-7.09,3-.98.68-1.34,1.96-2.07,2.24-.97.37-1.81-.2-2.64-.06-1.51.25-3.89,2.12-4.97,3.23s-4.08,5.96-4.93,6.44c-.44.25-1.47-.45-1.61-.28l-.29,2.1-6.67,10.58c-2.92-1.39-2.38,2.01-5.07,2.59-3.34.71-3.81-1.13-5.82-1.9-1.04-.4-4,.33-3.06-1.7l2.12,1.06c.87-.07.06-2.39-1.32-2.13l1.06-1.57-2.64,1.05-.57-2.35,1.09-.55c-3.21-2.77-1.98-5.52-2.66-8.38-.09-.36-.87-.39-.9-.52-.45-1.76-.28-2.94.38-4.61l-3.17.52,2.57-1.92.6-10.26c-.43,0-.86-.04-1.3.02-.84.12-6.26,3.43-7.44,4.2-1.73,1.13-2.64,3.78-5.56,3.19l.31,1.58c-3.89,3.48-8.75,7.04-12.31,10.78-.44.46-.41,2.01-1.51,2.47-1.49.62-.29-1.85-.38-2.31-.44-2.21-3.21-1.5-2.53,1.26l-.52-1.58-4.24,1.06.53,1.58c-1.82.16-2.74.21-3.44-1.58l-.42,1.05.64.22-1.55,6.92,1.59.8-1.32-.05c-.66,2.23-.93,4.07-3.44,4.81l-.27-2.11c-1.84,1.91-4.95,6.38-7.67,3.7-6.62,11.11-5.2-.19-5.64-6.18-.08-1.13,1.18-2.46-.72-2.3l1.58-1.58,1.06,1.59-.53-4.23-1.58,1.59-.32-1.61-7.56-.44-.58,3.12c.62-.21,1.17-1.09,1.04.24-.35,3.58-1.57,4.93-2.85,7.75-.71,1.56-.7,4.55-2.8,5.14s-4.85-.68-6.5,1.97l5.29.79c-.41,2.52-1.87,2.27-2.9,3.16-.67.58-1.89,2.22-2.4,2.42-.76.3-1.47-.32-2.23-.16-.64.13-1.13.91-2.26.99s-5.51-1.54-6.16-2.42.13-1.64-.19-2.39c-.28-.65-1.6-1.35-2.09-2.17-2.69-4.46-5.46-12.52-6.72-17.64-1.8-7.27-.94-16.4-5.98-22.11-.32-.36-.19-1.26-.38-1.44-.22-.21-3.73-.19-4.4-.06-1.17.22-1.82,1.31-3.22,1.54-4.5.74-9.13-.65-13.46-1.58-.43-1.78.71-2.43,1.57-3.68l-2.4-.45-.67,1.1.42,2.52-8.47-1.05,10.59,14.04-1.05.27v.78c1.5.81,2.59,3.15,2.66,5.01l12.68.56c.15,1.37-.76,1.49-1.82,1.61-5.92.7-13.45-.23-19.35-1.09-.16.17.12,4.81-1.32,4.24-.52-.21-.06-1.05-.41-1.42-.54-.58-1.76-.89-2.25-1.76l-.26,1.58h-1.59s-.26-1.58-.26-1.58l-.81,2.64c-1.41-.45-1.6-2.16-2.42-3.13-1.88-2.24-10.35-10.98-11.09-12.77-.29-.71.38-1.52.04-2.1s-2.82-1.53-2.81-2.38c0-.48,2.22-2.02-.12-2.92.45,2.01-1.09,3.15-1.12,5.02-.07,4.38,1.04,10.32,1.14,14.82.11,4.89-.56,10.25-.44,14.85.24,9.75,3.94,19.14,3.6,28.86-1.87-1.36-3.16,4.16-2.64,4.76l1.85-1.05c.74,1.35-1.95,3.87-3.28,4.19l-1.75-1.03,1.05-2.1-1.53-.03-.06-3.15-1.54.04c-.56,1.32-.8,2.36-.05,3.66l-1.5.07-1.95,4.17c-1.46.73-.49-3.29-.79-3.7-.79.39-1.45.54-2.35.56M215.36,58.85c-8.3.73-16.81.49-25.14,1.06-1.58.11-5.26.31-6.09,1.58l30.09-1.43,1.14-1.21ZM160.3,61.5h-2.11v.52h2.11v-.52ZM263.54,63.61c.35.45,2.42.6,2.11-.78-.36-1.64-2.87-.18-2.11.78ZM124.3,73.68h-1.05v.52h1.05v-.52ZM261.95,74.21h-1.58v.52h1.58v-.52ZM131.71,78.44v-.78s-1.05-.8-1.05-.8v1.59s1.05,0,1.05,0ZM112.06,81.03c.33-.8.13-3.43-1.25-3.11l-1.33,2.9,2.58.21ZM230.72,78.98h-1.06s0,1.05,0,1.05l1.05-1.05ZM108.41,80.04h-1.05s0,1.59,0,1.59l1.05-.8v-.78ZM249.13,91.52c-.33.47-1.39.69-1.98.45-.31-.13-4.37-4.75-4.51-5.06-.72-1.57.41-6.58-1.08-6.88l-9.77,6.1c-2.17,2.54,3.69,5.27,4.45,7.71l6.13.49.52-4.24c.17,1.02-.25,2.43,0,3.34.16.61,2.3.43,1.09,3.2l-1.61.35.53,1.58-1.85-1.05c-.35-.11-.38.47-.26.78.87,2.11,6.43,6.15,8.22,8.2.82.93,4.76,7.81,6.06,6.9l.43-21.87c-.3-2.17-5.45-2.02-6.19-1.33-.19.17.05,1.01-.17,1.33ZM197.36,83.21c1.94,0,1.94-1.57,0-1.58v1.58ZM179.89,89.03c.45-.42-2.6-5.09-4.23-4.23.28,1.4,1.37,1.91,2.28,3.28.47.7,1.26,1.59,1.95.95ZM292.66,87.44l-2.11-1.05-.47,1.79,2.05,1.39-.56-1.83,1.09-.3ZM143.62,95.92c6.07.2,12.19-.15,18.27,0l-2.11-1.32,2.96-1.3-.26-2.1,1.53-1.11-2.64.53c.31-3.57-2.31-3.43-2.39-.05-.03,1.28,1.56,2.4.29,3.51-5.48,1.49-9.71-3.01-15.37-1.87l.5,2.32-2.09.86c.39,1.48,1.06.52,1.32.52ZM135.94,89.04l-5.06,3.18.3,4.23c.74-.1,2.01.25,2.56-.09.44-.27,3.55-6.16,2.2-7.33ZM90.42,90.1l-4.16.6-.07,3.1c1.67-.23,2.18-2.04,4.2-1.62l.04-2.08ZM93.06,90.1h-1.05v.52h1.05v-.52ZM219.6,94.33c-1.18-1.34-6.58-2.69-8.24-2.69-.95,0-.64.96-1.13,1.09l-6.51,1.08c-.07,1.24-.17.94.79,1.06,4.72.6,10.34-.39,15.1-.54ZM130.65,94.87l-5.31,3.56c-7.06,9.12-13.47,18.54-19.89,28.16l-15.03,18.06c1.98-.27,5.11.53,6.87-.27,1.07-.49,4.74-5.09,5.82-6.36,7.4-8.68,21.22-26.38,26.38-36.1,1.63-3.07,1.44-3.68,1.16-7.04ZM74,96.98c-1.33-.13-1.79.84-1.58,2.11h1.05s.54-2.11.54-2.11ZM218.01,97.51c-3.64.03-7.21.4-10.86.52-.64.02-1.97-.39-1.84.52,4.15.77,7.79,3.36,12.17,3.19l.53-4.23ZM161.89,103.34c-.66-.35-1.85.85-1.59,1.05.66.35,1.85-.85,1.59-1.05ZM103.02,106.67c-.18-.1-.27-.42-.66-.18-1.48.2-3.13,2.07-3.32,2.11-2.79.62-12.88-1.26-13.91,1.35l1.58,1.05c-3.78,5.08-7.4,10.34-10.82,15.66-8.19,12.74-28.47,43.27-30.8,57.15-.19,1.12.37,2.09.21,2.8-.61,2.7-2.29,5.39-1.99,8.33l2.67-7.39s.73.39,1.04.21c.92-.56,5.45-12.1,6.42-14.18s3.3-5.42,3.9-7.25c.28-.86-.4-1.64-.2-1.99,1.85-3.27,6.07-8.64,8.31-12.08,9.22-14.12,19.21-27.56,29.69-40.76,2.56-2.07,8.52.23,11.69-.22.06-1.22-.71-3.91-1.96-4.16-.63-.13-1.33.47-1.66.32-.11-.05-.06-.7-.19-.76ZM298.48,124.52c-2.67-1.18-1.85-2.52-3.97-4.23-1.22-.98-2.85-1.24-3.97-2.39l3.43,1.33c.77-.38.12-.93-.25-1.34-.4-.45-4.82-3.47-5.29-3.63-1.33-.42-3.65.26-5.33-1.14-.65-.54-.1-2.47-.64-3.29-.19-.28-3.85-2.46-4.38-3.31-1.31-.18-.63.36-.55,1.08.3,2.94-.14,5.19.3,7.89l-1.51.5c-1.06-3.15-1.68-1.24-2.45-1.21-.59.02-1.33-.78-2.15-.83-2.29-.14-4.59.05-6.87,0-3.06-.07-7-.89-9.76.77,2,.71,3.62,2.95,5.32,3.67.51.21,5.32,1.75,5.61,1.78.94.08,1.5-.68,2.29-.94l.11,1.45c2.21.47,3.94,3.24,5.71,3.06.3-.5-4.47-2.76-2.39-2.91l6.89,4.75.37-1.32,1.48-.25-1.06,1.58c3.71-.46,6.39,6.21,9.81,6.16.41,0,1.2-1.19,1.81-.84.17.1.89,2.4,3.2,1.56l-3.17-2.38.78-.26,17.49,10.05c2.61-.72-1.06-2.17-1.33-3.17l3.7,1.32-9.53-7.15c.95.1,2.53.24,3.34.65s.86,1.29,1.27,1.49c2.12,1.05,4.81,1.58,6.78,3.15l.26-.79c-4.46-3.82-9.77-6.63-14.29-10.33.27-.01.75-.38,1.06-.53.36,1.59,1.88,1.25,2.65,1.59.1.04.18.71.86.89.54.15,1.55-.38,2.32.17.42-1.63-1.33-1.13-2.11-1.59-.98-.57-1.33-1-2.65-1.59-1.55-.69-2.24-1.03-4.23-1.05-.09.08.86,1.38,1.06,1.58ZM260.89,108.63c-2.3-.28-.67,3.01.53,3.18l-.53-3.18ZM247.13,205.01c.52-.66-.02-1.68,2.58-1.66l.4-1.44,10.26-.61-.54-1.05c6.3-.75,11.37,3.68,16.94,5.82-.22-3.14,1.07-5.85-1.85-7.94-2.34-1.67-2.33-.41-4.11-.65-1.07-.14-3.17-1.46-4.51-1.86-3.28-.97-14.51-3.35-15.93-5.78-.64-1.1-.61-3.09-1.25-3.78-.8-.85-6.48-2.81-8.17-3.74-4.43-2.46-22.12-14.85-23.59-18.77-.75-2-.04-3.68-.52-5.3-.38-1.3-3.17-2.26-2.28-3.55l2.38,1.59-.49-5.06-18.56-1.03-1.59-2.37h3.7c.12-.54-.04-.7-.25-1.07-1.39-2.47-14.96-15.6-18-18.54-3.95-3.83-10.45-10.23-14.55-13.51-5.81-4.65-15.28-4.75-22.53-3.95-1.18.13-3.03.41-3.44,1.58l19.85.53c1.1,1.1-.5,1.07-1.04,1.58-2.99,2.83-10.69,10.7-12.69,13.81-.93,1.43-1.51,5.27-2,5.68-.77.65-3.3.19-4.1,1.44,2.59,1.91.93,1.97.55,3.74-.54,2.53-3.13,8.59-4.56,10.79-.6.92-1.94.65-2.35,2.42-.17.72-.28,1.56.78,1.31,1.04-.42,3.05-4.92,3.44-2.39l-7.41,9.8c-1.15-.33-.57-2.84-1.56-3.46-.72-.45-1.79-.09-2.59-.31l-1.13-3.38c-3.72.9-1.55,1.53-.83,2.96.32.64.22,1.64.56,2.1.45.6,1.56.22,1.86.89.18.39.64,3.71.52,3.86l-2.39-1.59-.51,4.3c-2.53-.15-.36,1.36-1.97,2.23-1.28.46-2.75.57-4.02,0s.12-2.15-1.69-1.76l.7,4.08-4.93,5.19,1.86.79-4.79,1.55-.51,6.39-.27-3.7c-2.38,1.52-2.23-.88-4.23-1.86l1.05-.79-2.11-.54c.6,1.08-1.15,3.03-1.06,3.17.07.1,1.14-.34,1.38,1.58.21,1.67-.63,1.87-.64,2.42-.01.31.64.73.63,1.03-.04,1.3-2.83,2.3-2.43,3.98l2.12-2.11.97,1.21c-.43,2.83-2.85,2.42-4.16,4.34-.76,1.11-.74,2.37-1.36,3.41-.82,1.39-2.68,2.23-3.4,3.74l9.53.54c-.44,1-.67,1.89-1.85,2.12-3.04.58-12.05-1.54-13.92.11-.24.21-.22,1.34-.87,2.05-.82.88-1.88.51-2.43.83-2.42,1.4-2.17,4.28-3.13,6.32-.45.95-4.77,6.68-5.58,7.16s-2.44-.07-3.45.48v-2.65c-1.99,1.05-.03,5.26-.14,7.27-.04.83-.96,1.34-.87,1.93.17,1.16,7.83,7.09,9.31,8.18,13.63,10.09,25.28,14.87,42.54,11.5,12.84-2.51,17.52-10.43,23.27-21.21l11.65.26-1.05-.78c2.58-6.33,2.62-2.17,4.61-1.94.95.11,1.44-.06,2.26-.45-.24,1.79.2,2.19,1.62,2.97l-.55,1.27h2.12c.78,5.87-2.44,11.29-5.1,16.36-1.03,1.97-4.7,6.42-4.36,8.15.36,1.85,2.76,3.21,3.45,4.27,2.66,4.08,4.47,8.86,7.61,12.79.55.69,4.54,5.28,4.86,5.46.66.38,1.77.03,2.54.12l-1.05.78c.45,1.22,2.29,3.38,2.54,4.38.27,1.06-.28,1.93-.18,2.52.23,1.36,1.33,2.74.81,4.48l-2.11-1.06c1.92,4.57-1.27,4.84-3.54,7.89-.97.16-3.68-.77-4.41-.23-1.21.9.98,1.26.26,1.87-8.2-1.75-14.27-8.42-18.79-15.1,2.02-.82,4.16-.02,6.13.23,1.04.13.77-.12.75-1.02l-5.73-1.16c-.21-2.49-2.64-4.09-3.8-5.73v1.06s-1.59,0-1.59,0v-1.05s1.59,0,1.59,0c-2.7-3.83-4.53-8.56-8.81-11.08-1.86-.34-2.05,3.76-2.59,4.7-1.47,2.59-13.9,2.88-16.94,4.24-1.69,8.67-4.12,17.22-5.91,25.86-1.39,6.72-.19,12.93-6.04,17.77-.69.57-2.16.45-2.07,1.94-1.27-.66-.56-2.05-2.31-1.16l-1.39-3.61c-5.94,1.54-12.19-.28-18.25,0l-2.39-2.11h9.27c.27,0,1.1.84,1.85.53-.5-2.26-1.68-4.68-1.56-7.07.21-4.12,3.19-12.51,4.07-17.15.42-2.19.63-4.78.66-7.02h7.41l-2.58-1.89,1.04-10.58c-1.2-1.61-1.95-2.98-3.6-4.37l-9.98-2.72c-.19,1.3-1.25.52-1.55.98-.76,1.17-.59,3.88-1.05,5.35-1.09,3.5-7.89,9.08-10.61,12.16-3.21,3.62-10.13,13.4-14.53,14.59-.66.18-5.63.86-6.01.79-.35-.06-.31-.85-.77-1.02-.93-.34-2.66-.36-3.46-1.07-.64-.57-1.33-2.93-3.07-3.47l.59-3.98-2.11,1.59c-.82-3.09,1.52-3.05,2.58-4.56.8-1.15,1.31-3.59,2.27-5.15,3.39-5.54,10.35-9.9,13.58-15.54.46-.8,2.83-6.27,2.7-6.71l-9.12-8.19c-3.71,1.46-6.74,4.23-10.15,6.27-1.67,1-4.81,1.27-5.04,3.69h7.41c-.44.95-1.35,1.91-2.39,2.11-3.96.76-13.19-1.19-16.14.82-.15.1-2.5,2.53-2.56,2.71-1.2,3.75.97,12.18-1.68,16.61,6.9-.4,4.31,1.02,3.32,5.18-.33,1.4-.39,2.94-.68,4.35l1.53.03c.35.37-.16,4.38.06,5.52.24,1.22,1.48,1.59,1.6,2.67.15,1.37-1.15,2.13-1.08,3.42,2.73.42,5.46,3.37,2.12,5.57v.78c2.23-.06,2.79,1.46,3.48,3.21,2.47.37,2.35-.85.75-2.42,2.13-.76,3.93,1.21,5.3,2.64l5.28,1.07c-1.77,2.4-5.33.98-7.94,1.33.67,1.95-.62,3.33-.88,4.6-.11.52.36,1.2.23,1.88-.38,2.04-1.97,4.94-1.34,7.42.24.94,2.01,2.01.94,2.81l-3.47-.25c-.45-1.43-.71-2.51.82-2.94l-1.07-1.86c-1.03-.18-.23,1.22-.56,1.54-.34.34-4.17-.57-3.68,2.69-2.21.46-.33-4.17-2.64-3.71-.14,1.73-.58,4.37-1.07,5.98-.19.64-1.51-.01-1.05,1.43l19.05.54-.81,1.59c-1.86-1.41-3-.85-2.69,1.59.4,3.09,1.21,2.23,3.09,3.22.4.21.41.91.79,1,1.76.41,3.1-.16,4.13-1.57l2.38,1.58c-.02-.85.78-1.6.83-2.37.24-4.05-3.23-1.83-5.32-4.5-1.33.91.23,2.73-.26,4.23h-1.58c-1.19-2.19,2.12-5.04,2.13-5.53,0-.29-1.66-5.13-1.94-5.49-.7-.89-1.54-.38-1.79-.99-.12-.3-1.65-3.95-.27-3.34,1.03.84,1.5,2.63,2.37,3.46,19.03,18.09,30.17,30.31,56.55,39.28,9.29,3.16,20.17,4.9,29.75,7.03l.53-1.58c-.01,1.19-.48,1.25.79,1.6,2.42.68,4.97.21,7.37.57,4.42.66,9.08,2.64,12.76,2.59,9.67-.13,19.45,1.11,29.12,1.63l1.34-1.62h1.05s.53,1.05.53,1.05l.79-2.64,1.66,4.26,2.85-.04c-.54-1.02-1.93-.16-2.09-2.06,4.93-2.66,10.46-.31,15.56.47.69,4.22,2.86-.43,3.32-.53.87-.2,4.89-.41,6.19-.47.76-.03,1.68.64,2.62.51.31-.04.32-.96,1.37-1.36,3.19-1.21,7-1.19,10.21-1.98,15.51-3.83,33.02-6.67,46.22-15.2,4.1-2.65,7.99-5.78,11.64-9.01l1.84,2.11c.07-1.33-.36-2.83.49-4.01.36-.49,6.38-5.2,6.89-5.3.59-.11,1.34.8,2.38.86,6.8.4,13.64.32,20.41,1.03.48-.41-1.08-2.14-1.6-2.37-.23-.1-4.7-.8-5.02-.8h-10.59c-.1,0-.94-.85-.79-1.05,2.21-.13,1.69-2.4,2.43-3.67,2.46-4.2,5.45-7.76,6.57-12.76-.61-.55-11.04.9-11.64-2.65,3.59-.58,8.38,1.4,11.8.41,1.02-.3,5.1-3.4,6.55-4.31.31-.19.41-.92.74-1.11.59-.35,2.64.02,3.42-1.34,1.72,2.05-1.14,2.84-1.33,4.76l2.64.54c-.2-4.13,1.65-1.91,3.33-2.22,1.05-.2,2.23-1.93,3.05-2.26,1.48-.6,3.45.22,4.11-1.71.35-6.72,2.15-13.34,2.74-20.03.85-9.47.48-19.2.56-28.57.1-11.86-.01-23.7-.57-35.48-.14-2.96.43-6.75-.01-9.52-.36-2.24-2.55-5.37-2.09-8.24-3.46-.08-2.56,3.76-3.21,5.96-.14.46-1.01.4-1.05.73-.17,1.42,1.78,2.62-.77,3.36l-.27-7.93c-6.06.26-14.49,1.36-20.41.56-1.66-.22-1.95-1.32-3.41-1.63l.26-1.05c6.83-.25,14.41,1.31,21.2.55.79-.09,1.63-.11,1.83-1.07-5.5-.91-11.1-1-16.62-1.65-4.49-.52-9.25-.99-13.75-1.6-5.57-.76-11.2-3.09-16.74-4.17v9.8c5.46,4.14,11.3,7.76,16.91,11.68.92.64,1.67,1.94,2.4,2.39.82.49,2.5-.26,2.93,1.55-1.1-.1-1.21-.06-1.06,1.06l1.52.04.51,4.12-.97.6,6.62.53,7.74,15.87h1.78c.56,2.17,1.72,4.17,2.17,6.38.24,1.15-.42,2.78.2,3.86.34.59,1.32.39,1.85.91.88.85.86,3.08,2.89,3.25l-.49,2.04c.14.17,1.63-.9,2.11.28.33.8-2.02,1.19-1.05,2.37s.92-1.36,1.58-1.05c1.71,2.91-.64,3.12-.83,4.18-.26,1.4.58,4.04-.24,5.85l-2.56.1-1.1,6.05-1.62.24v-7.41c-2.41,2.12-4.16,2.44-2.65,6.35-1.49.54-1.04-1.37-1.81-1.46s-2.43.92-3.72-.16l-.55,1.09c-2.72-2.62-5.56-3.55-6.74-7.56-.73-2.49-.25-4.7-.48-7.2l-3.63-1.13c-.2,2.44-.63,10.5-1.89,12.15-.53.7-7.55,4.36-8.4,4.28l-1.36-2.13.53,3.17c-2.24.53-6.92.95-5.27,3.95l-1.09.55,1.06,1.85c-2.03-.61-3.33.85-5,1.09-2.17.31-4.33-.48-6.24-.41-4.36.17-9.38,2.57-14.36,1.45-.56-.12-.02-1.62-1.4-1.07l-.03,1.53c-1.01.96-12.2-1.69-14.15-2.44-.67-.26-1.55-.31-1.7-1.2,9.13,1.8,18.08-.77,27.18-.51l.65-1.63c-.51-.67-2.62-.67-3.62-1.16-3.34-1.64-3.02-2.04-7.53-2.53-3.02-.33-4.6-.56-7.43-1.04-1.5-.26-3.2.27-4.72-.57l-.89,2.59c-6.19.12-12.42-1.85-18.32-3.51-.89-.25-1.99.03-2.9-.27-4.29-1.41-8.29-5.08-12.47-6.86-1.29-2.65-.21-8.38-3.31-9.67s-16.66.38-18.51-1.88l.26-1.05,11.91.53c-2.65-8.05.53-14.95,7.41-19.33l-1.58-1.57c6.13-8.6,11.63-17.83,20.16-24.33,4.45-3.39,10.97-7.85,16.37-8.78-.48.61-.62.39-1.06.79,2.9.91.03,2.33,2.11,3.44l-.22-1.63,1.22-.78-.48-2.36c-.54.17-1.01.43-1.58.53ZM263.54,112.33v-1.58s-.52,0-.52,0l-.54,1.58h1.06ZM166.65,113.39v-1.05h-.52v1.05h.52ZM219.6,114.45c-.15-.58-.89-1.26-1.39-1.52-1.7-.85-14.95-.96-17.43-.63-1.17.16-1.64.42-2.35,1.35,6.99,1.14,14.1.74,21.17.79ZM245.54,158.94c.39.57.56,1.76,1.44,2.37l-.5,1.25-1.46.09,1.06.79-1.06,1.05c3.56,3.96,6.12,10.17,12.15,11.15.73.12,5.85.17,6.55.08.86-.11,2.44-1.59,4.06-.89l-.53-1.58h6.35c-1.33-1.35-5.25-1.96-7.16-2.11-3.33-.27-6,.47-8.99.57-1.64.06-3.16-1.06-5.03-.05v-21.71s5.29-.27,5.29-.27c-6.07-5.73-12.27-11.58-17.45-18.14-3.82-4.84-7.91-12.7-11.96-17.04-.78-.84-1.64-1.64-2.87-1.62-.14,4.22-6.53,4.78-4.25,9.53l-1.32-1.58.26,2.12-1.58-1.06c-1.06,1.29,7.22,8.28,6.87,10.59l-6.36-8.47-1.02.76c4.83,6.91,10.35,13.36,15.32,20.16,1.18,1.61,1.53,3.38,2.06,4.24.73,1.19,3.13,2.66,4.03,3.96l.52-1.06c2.03,1.64,3.72,4.11,5.56,5.82h-1.06c-.06.64.87.78,1.06,1.06ZM109.47,174.82c-.1-2.4.87-4.82,1.06-7.16.2-2.5-.45-6.12.14-8.34.64-2.4,7.54-10.72,9.31-13.99,3.28-6.08,5.94-13.73,7.88-20.19.84-2.78,1.86-5.65,1.74-8.58-2.38,1.19-6.32,4.12-7.52,6.5-3.35,6.65-6.12,14.71-9.66,21.58-1.16,2.25-5.43,8.08-5.87,9.49-.73,2.32-.41,6.95-.77,9.56-1.56-1.03.21-3.94-.26-5.29-1.8.35-4.1,7.77-4.86,7.96-1.96.21-3.77-.53-5.71-.58-.75-.02-11.3-.39-9.82,1.61l8.47.8-25.7,29.9c-1.8,2.52-4.75,13.24,1.37,8.78,2.71-1.98,8.72-9.48,11.37-12.46,6.13-6.9,11.75-14.39,17.99-21.2,3.39-3.71,8.12-8.49,7.68.53.74.08,1.62-.18,2.31-.01.62.15,0,1.3.86,1.07ZM296.36,118.17h-1.05v.52h1.05v-.52ZM180.95,122.4h-1.59s.54,1.59.54,1.59h1.05s0-1.59,0-1.59ZM283.13,129.81c-.21-1.19-6.57-5.05-6.88-4.76-.09,1.24,1.52,2,2.4,2.63,1.07.77,3.13,2.04,4.48,2.13ZM288.42,131.94h-1.05v.52h1.05v-.52ZM292.66,135.1c-.63-1.21-2.43-1.89-3.7-2.11l3.7,2.11ZM296.36,133h-1.05v.52h1.05v-.52ZM299.68,135.63c0-.36-.29-.65-.65-.65s-.65.29-.65.65.29.65.65.65.65-.29.65-.65ZM302.04,136.38l-.42.64,4.04,2.69.42-.64-4.04-2.69ZM300.6,139.87c-.38-.86-1.16-1.75-2.12-1.58.38.86,1.16,1.75,2.12,1.58ZM305.36,139.88h-1.05v.52h1.05v-.52ZM111.73,143.04c0-.36-.29-.65-.65-.65s-.65.29-.65.65.29.65.65.65.65-.29.65-.65ZM290.01,146.76c-4.62-.22-3.49.31-3.23,3.48.02.27-.97,0-1.06,1-.11,1.2.34,2.33.6,3.46.41-.32,2.03-1.79,2.06-1.92.29-1.08,0-.71.53-2.19.23-.62,1.44-3.51,1.1-3.82ZM85.11,151c-.76-.94-9.98,11.71-10.84,12.72-9.07,10.54-21.27,21.58-29.06,32.89-.37.53-1.8,1.81-.87,2.33,2.45,1.38,5.41-1.43,7.17-2.91,8.46-7.09,17.27-18.69,24.86-27.03,2.39-2.62,8.9-7.66,9.28-10.84.29-2.42-.3-4.79-.54-7.16ZM37.7,158.69c-.55-.56.07-1.5-1.28-.02l2.1,2.39c.27-1.61.06-1.47-.82-2.36ZM298.48,188.6c.92.17,2.69.09,2.65,1.32l-2.65.26,3.48,1.03,1.01-.49-1.59-.53c2.4-.19,3.62.36,5.82-1.6l-1.32,2.13c2.32.65,5.16.82,7.55.41,1.08-.18,8.5-3.25,9.36-3.88,1.58-1.15,1.83-2.14,2.15-3.94-1.55,1-2.36-.36-3.32-.39-4.32-.13-4.43-.46-8.2-1.06-1.71-.27-3.41.06-5.06-.26s-1.34-1.3-2.22-1.99c-1.35-1.07.32,1.56-1.04,1.05-9.38-3.49-23.78-11.09-32.13-16.59-2.38-1.57-4.45-4.17-7.06-5.65-1.98,1.98-.79,1.08-.49,2.61.11.57-1.03,1.62-.3,2.68l-2.65-1.05,1.59,3.17-2.11.8,1.33,1.32.25-1.05c2,.76,2.9.37,4.77,0l.79,1.59.79-1.59c1.1.12,2.02.34,3.13.02.07,2.77,2.24,4.57,2.15,7.12-.07,1.9-1.42-.67-1.57.8,3.94,3.03,8.2,4.88,12.7,6.89-.06-.02-.58-1.02-.53-1.05l2.64.53v.52c-.61-.1-1.66.17-2.11,0,2.9,1.3,5.84,2.53,8.85,3.6.42.15,1.8.31.93-.42l-.08-.43c1.99.15.63,1.41,1.74,1.93,1.36.63,3.46.84,4.97,1.16l-4.23.52-1.59.26c0,.53,1.1.17,1.59.26ZM288.03,159.99c0-.36-.29-.65-.65-.65s-.65.29-.65.65.29.65.65.65.65-.29.65-.65ZM337.13,163.71l-.79-3.17c-1.56.51.46,3.59.79,3.17ZM21.05,167.41c.14-.99,0-1.83-1.05-2.12-.14.99,0,1.83,1.05,2.12ZM354.6,167.94h-1.58s0,3.71,0,3.71c2.09.08,1.59-2.24,1.58-3.71ZM20,169.01h-1.06s0,1.05,0,1.05l1.05-1.05ZM38,180.66c.29-3.14,3.18-6.53.8-9.53-2.18,2.25-4.05,4.76-6.09,7.13-.99,1.16-.75,2.45-3.16,3.18l2.33,1.35c1.18-1.69,4.05-2.97,6.13-2.14ZM102.59,173.77v-1.05h-.52v1.05h.52ZM330.78,174.82c-.64-1.42-1.96-1.95-3.43-2.12-5.42-.64-11.95.53-17.51-.03l-1.3,1.37,22.23.79ZM27.42,181.18c1.84-1.48,2.71-4.62,3.17-6.88-1.65,1.74-2.99,4.49-3.17,6.88ZM328.66,175.36h-1.05v.52h1.05v-.52ZM337.66,175.89l-2.11-.53.53,2.64,1.58-2.11ZM318.07,176.42c-1.8-.24-2.12-.09-2.64,1.58,1.31.13,2.79.05,2.64-1.58ZM105.24,176.95h-1.05v.52h1.05v-.52ZM323.36,178.53l-1.58-1.59-.27,1.59.54.53,1.32-.53ZM352.62,177.46c0-.36-.29-.65-.65-.65s-.65.29-.65.65.29.65.65.65.65-.29.65-.65ZM102.59,177.47v2.12s1.06,0,1.06,0v-2.12s-1.06,0-1.06,0ZM322.83,181.71v-1.05h-.52v1.05h.52ZM103.12,182.77l-.26-1.05-.8,1.05h1.06ZM94.66,185.42c.2.26,1.4-.92,1.05-1.59-.2-.26-1.4.92-1.05,1.59ZM289.48,184.9c-.12-.12-1.7-.59-2.11-.53.26,1.02,1.17,1.19,2.11,1.05-.03-.17.07-.44,0-.52ZM295.3,187.01h-1.05v.52h1.05v-.52ZM297.95,187.01h-1.05v.52h1.05v-.52ZM101,192.83v-1.05h-.52v1.05h.52ZM87.24,193.89l-1.05-1.05v1.06s1.05,0,1.05,0ZM87.76,194.95h-1.58s0,2.11,0,2.11h.78c.83-.56.92-1.14.8-2.11ZM81.94,199.71l2.64-1.85c-1.14-1.75-2.07,1.21-2.64,1.85ZM78.76,202.9c-.87-.89-3.8,2.8-4.17,3.51-.58,1.12-.74,2.12-.58,3.36l3.97.56.78-7.42ZM255.07,208.2h-3.17v.52h3.17v-.52ZM245.68,209.24c0-.36-.29-.65-.65-.65s-.65.29-.65.65.29.65.65.65.65-.29.65-.65ZM75.06,213.48c.3.3,1.58-.44,1.58-.79,0-1.47-2.37,0-1.58.79ZM78.24,215.07l-.54-1.58h-.52s0,1.58,0,1.58h1.06ZM250.83,218.78c0-1.39.54-3.77-1.59-3.7,1.08,1.1-.4,4.11,1.59,3.7ZM49.65,221.96c.21-1.14-.51-1.26-1.33-1.58-2.14-.85-11.65-1.23-14.22-1-1.33.12-3.55.34-4.56,1.26-.25,1.28,1.03.75,1.84.79,6.08.25,12.2.2,18.27.53ZM43.82,224.08c-5.22,1.69-6.9,5.6-7.94,10.59l7.94-10.59ZM288.23,229.05c-1.74-1.35-4.26-2.08-5.63-4.18-3.27,1.62,1.01,4.13,1.06,6.1l2.11-1.05c.23.88-.82.28-.97.77-.18.57.54,2.67.43,3.46l-1.58-1.58v3.97s2.11-.79,2.11-.79c-.86,1.19.77,1.66.94,2.44.19.86-.89,4.07-.46,5.47l-1.54.03,1.59,2.11c-2.37,1.15-.79-.72-2.64-.52l-.53,2.11c-1.43-3.13,2.9-3.74,2.14-6.53l-1.61-.88-.07,1.51-1.52.09,1.08,1.31c-2.09,1.86-.92,4.28-1.34,5.54-.28.85-3.27,3.77-2.38,4.79.65.74,1.51-1.7,2.56-1.11l.09-3.12,1.6.3.52-2.42c3.9-.61,1.33,4.71-.16,5.68-1.16.75-5.17,1.21-5.97,2.81-.5,1,.36,1.91.25,2.85-.32,3.03-2.33,5.94-1.54,9.31.33.35,8.18-2.78,9.19-3.25,3.55-1.67,10.39-5.73,12.12-9.05.14-.27,1.34-3.77,1.36-3.98.31-2.44-5.44-8.71-7.32-10.46l2.12-.26c.04-1.14-.99-1.89.27-2.64l1.84.53-.78-3.18-1.26-.44c-.05,1.04-.74,1.1-1.66.98-.15.13,1.25,3.39-.52,3.7-.13-1.21-.1-2.74-1.59-2.65v-1.06s1.05.27,1.05.27c-1.15-2.95-.67-4.84-3.38-6.94ZM248.18,225.14c-1.64-.27-.82.46-1.06,1.29-.73,2.57-.68,4.99-1.58,7.47l1.32,1.29c1.66-1.14.33-3.03.46-4.41.17-1.87,1.09-3.7.86-5.64ZM270.42,227.79c-.87-1.07-13.47-1.04-15.64-1.04s-5.22-1.26-6.07,2.09l4.23-.52c-.66,1.37-1.71,4.51-1.65,6.1s1.02,2.32,1.07,3.14c.13,2.39-1.67,3.92.83,6.67,2.08,2.29,4.39,2.01,6.77,2.76.76.24,1.33,1.05,1.96,1.21,4.57,1.15,9.56,1.01,13.29-2.12,1.02-.85,1.1-2.77,2.62-1.88l-1.59-4.5c2.38-.37.97,1.74,2.12,2.38.38-3.19-1.93-4.32-4.66-4.86l-1.16-4.14c-1.24-.24-.9.2-1.28,1.04-1.16.34-3.84-3.05-1.62-2.21l.25-.94-6.35-1.07c-1.96-1.85,4.79-.3,5.24-.29,1.27.03,2.5-.76,1.65-1.81ZM71.35,228.31v-1.58h-.52v1.58h.52ZM295.83,227.79h-1.58v1.05h1.58v-1.05ZM240.38,228.83c0-.36-.29-.65-.65-.65s-.65.29-.65.65.29.65.65.65.65-.29.65-.65ZM10.47,232.02h-1.05v1.58h1.05v-1.58ZM282.6,232.56h-1.05v.52h1.05v-.52ZM10.47,234.67h-1.05v.52h1.05v-.52ZM272.44,257.87c-2.03-.16-3.81.96-6,1.15-4.2.37-12.68-1.09-16.31-3.26-1.79-1.07-6.82-5.77-7.9-7.46s-2.53-13.11-3.32-13.09c-1.86,2.2-3.62,4.55-5.25,6.92-1.42,2.07-6.13,8.88-6.79,10.7-.86,2.37,1.52,2.58,1.51,3.56l-.86,3.69c-2.56-.5.09-3.48-2.11-3.18l-1.06,7.41h2.64s0,1.59,0,1.59c4.12-.25,2.07-1.12,2.16-3.38s.59-2.24.03-4.92c-.43-2.05,3.89,1.81,4.32,2.05,3.48,1.98,11.44,4.5,13.74,6.24,1.19.9,1.12,2.98,2.35,3.62,4.18.31,9.08,1.47,13.14,1.68,1.04.06,2.11.1,3.15-.04.51-.07,3.57-1.88,3.72-2.07.13-.18,1.6-3.67,1.73-4.11.75-2.59-.02-4.99,1.73-7.28l-.63.17ZM246.06,237.31v-1.05h-.52v1.05h.52ZM285.24,239.43v-1.05h-.52v1.05h.52ZM9.93,245.79l1.51-2.38-2.55-4.51c.61,2.03-2.04,6.59,1.04,6.88ZM12.59,248.96c.42.33,1.27-.31,1.57-.79-1.68-2.63-2.51.05-1.57.79ZM40.11,250.56c.14-.99,0-1.83-1.05-2.12-.14.99,0,1.83,1.05,2.12ZM12.58,251.09h-1.05v.52h1.05v-.52ZM341.37,251.09h-1.05v.52h1.05v-.52ZM40.25,252.66c0-.36-.29-.65-.65-.65s-.65.29-.65.65.29.65.65.65.65-.29.65-.65ZM261.42,253.2v-1.05h-.52v1.05h.52ZM9.9,253.01l-1.03.2.51,2.65,1.03-.2-.51-2.65ZM9.42,261.68c-.25-1.4.67-2.08,1.57-2.91l-2.64-1.32-.53,5.82c1.51.23,3.21-.37,3.17-2.11l-1.58.53ZM320.72,257.45h-1.05v.52h1.05v-.52ZM5.7,264.32c-.16-1.5.71-3.98-1.05-4.77.53,1.38-.5,4.05,1.05,4.77ZM344.01,259.56h-1.07s.01,4.77.01,4.77h1.07s-.01-4.77-.01-4.77ZM3.05,260.09h-1.05s0,2.12,0,2.12c1.05-.28,1.19-1.13,1.05-2.12ZM3.19,263.26c0-.36-.29-.65-.65-.65s-.65.29-.65.65.29.65.65.65.65-.29.65-.65ZM68.18,263.27h-1.05v.52h1.05v-.52ZM224.82,265.98l-1.51-.6.53,2.12h1.05s-.07-1.52-.07-1.52ZM324.42,265.92l-2.11-.53c-.12.97-.03,1.54.79,2.11l1.32-1.57ZM9.94,265.92h-1.05v.52h1.05v-.52ZM3.58,268.03v-1.58h-.52v1.58h.52ZM285.77,267.5v-1.05h-.52v1.05h.52ZM10.99,266.98c-1.45-.22-.93,1.55-2.63,1.08.81.66-1.04,3.69.25,3.67,1.4-.02,3.67-3.16,2.38-4.75ZM311.71,268.03v-1.05h-.52v1.05h.52ZM314.89,266.98h-1.05v.52h1.05v-.52ZM340.04,268.04c-1,0-1,2.63,0,2.63s1-2.63,0-2.63ZM342.95,269.09v-1.05h-.52v1.05h.52ZM5.17,269.62v-1.05h-.52v1.05h.52ZM250.31,270.15c-4.81.33.17,3.37-1.05,5.8l2.1.56c-.52-2.67,3.72-.8,3.18-4.77l-2.64,2.64-.51-2.83c-.4-.92-2.35.45-1.08-1.39ZM351.43,270.68l-3.38-.49c-2.33,2.01.23,4.35,2.79,3.61l.58-3.12ZM70.29,272.27v-1.59s-1.58.54-1.58.54v1.05s1.58,0,1.58,0ZM224.92,275.41c5.76,1.01,3.51-3.88-.56-4.2l-.53,3.7,1.05-1.05.04,1.54ZM57.06,276.5c-.5-1.67-.2-4-2.11-4.76l-.4,1.9c2.27.56.53,2.99,2.51,2.87ZM318.07,272.27h-1.05s0,2.12,0,2.12c1.05-.28,1.19-1.13,1.05-2.12ZM17.36,278.1l-.53-2.12-.53,3.17h2.12s0-1.59,0-1.59l-1.05.54ZM228.6,276.51h-1.06s0,1.05,0,1.05l1.05-1.05ZM250.83,277.04h-1.05v.52h1.05v-.52ZM288.42,280.74v-1.05h-.52v1.05h.52ZM17.24,281.72c.64-.77-1.09-1.94-1.48-1.5v6.35c.91,1.13,2.81-3.3.52-3.44v-1.07s.96-.34.96-.34ZM105.24,281.8h-1.06s.8,1.05.8,1.05l.26-1.05ZM18.94,286.56v-1.58h-.52v1.58h.52ZM98.88,287.09v-1.05h-.52v1.05h.52ZM342.03,286.56c0-.36-.29-.65-.65-.65s-.65.29-.65.65.29.65.65.65.65-.29.65-.65ZM30.59,288.69l1.05-.8-.79-1.31-.26,2.12ZM17.57,288.46c-.41-.4-.58-.99-1.02-1.37l-1.16.79c.39,3.58-1.88,6.54-.69,10.34l2.11-.53-.52-8.47.8.52c1.21,5.23.29,11.59,1.33,16.68.22,1.07,1.12,1.93,2.09,2.4-.19-4.94.04-9.99-1.96-14.63.51-2.7.95-3.79-1-5.72ZM346.67,289.22l-3.18.26,3.17,1.32v-1.58ZM352.48,290.81h-1.05v.52h1.05v-.52ZM6.76,293.45h-1.05s-.53,2.12-.53,2.12l1.51-.6.07-1.52ZM347.72,295.04l-1.05-1.05v1.06s1.05,0,1.05,0ZM11.52,298.75h-2.64s.79,2.63.79,2.63c1.17-.5,1.93-1.25,1.85-2.63ZM16.76,298.8c-2.39-1.81-3.4,3.7.08,1.82.66-.36.08-1.7-.08-1.82ZM10.46,305.63l-.53-3.17h-.52c-.03,1.16-.29,2.77,1.05,3.17ZM17.49,303.5c0-.36-.29-.65-.65-.65s-.65.29-.65.65.29.65.65.65.65-.29.65-.65ZM346.66,304.04l-1.05-1.05v1.06s1.05,0,1.05,0ZM17.35,307.75c.35-.66-.85-1.85-1.05-1.59-.35.66.85,1.85,1.05,1.59ZM23.17,308.28v-1.05h-.52v1.05h.52ZM22.12,311.98c.78.17,1.11-.23,1.58-.8l-1.32-1.84-.26,2.64ZM344.54,309.34c-2.44.07-2.07,2.71-2.42,4.53l1.18,1.25,2.82-1.8-1.57-3.98ZM36.41,314.1c-.54-2.38-.99-3.58-3.71-3.7l.53,1.59,1.58-.54c-.06,1.16-.09,2.8,1.59,2.64ZM21.05,313.04v-1.58h-.52v1.58h.52ZM320.19,313.04v-1.06s-1.05.8-1.05.8l1.05.26ZM18.94,317.81c2.09-.03,2.23-2.68,2.11-4.23l-2.11,4.23ZM22.12,315.16c.3.3,1.58-.44,1.58-.79,0-1.47-2.37,0-1.58.79ZM329.19,315.17h-1.59s0,1.05,0,1.05h.78s.8-1.05.8-1.05ZM23.7,316.23c-1.51-.28-.86.38-1.19,1.16-1.03,2.48-1.93,4.28-.96,6.98-4.24,1.61-1.88,3.9-2.65,7.4l1.09.86-1.08.3c.64,2.47,1.14,5.08,1.33,7.63.09,1.29.34,5.03.31,6.14-.04,1.41-1.11,1.65-1.08,2.88l1.58-.52c-1.79,2.66.19,7.83-.53,10.77-.11.46-2.25.27-.26,1.93,3.21-3.66.96-10.25,1.86-13.93.1-.41,1-.34,1.07-.71.21-1.14-.83-3.41-.59-5.24.13-1.04,1.42-.39,1.15-2.63l-1.11-1.3,2.11-.8c.45-2.95-1.95-.07-2.11-.26.33-1.61,1.45-1.88.52-3.71l-1.58.54-.55-1.84c3.34-.45,4.82-3.6,1.58-5.33,2.96-3.63-.05-6.33,1.08-10.31ZM35.88,317.82h-1.05v.52h1.05v-.52ZM343.76,317.81c-.22.05-.52.59-.79.79,2.14,4.32,2.92-1.27.79-.79ZM37.08,319.39c0-.36-.29-.65-.65-.65s-.65.29-.65.65.29.65.65.65.65-.29.65-.65ZM320.18,319.4c-2.19-.4-.16,2.56-.52,3.7,1.33-.1.95-3.29.52-3.7ZM18.94,319.93c-2.13-.39-.66,2.65-.52,3.7l.52-3.7ZM313.3,320.99h-1.05v.52h1.05v-.52ZM341.98,333.77c4.06-.44.98-2.87,1.07-3.95.05-.58.84-1.35.96-2.25.14-.99-.06-6.02-1.32-6.04-2.14.61-1.82,4.39-2.01,4.65-.29.4-1.32.38-1.74,1.66s-.09,2.64-.3,3.94l-1.51.33c.47,2.76-.95,4.12-1.4,6.7-.59,3.39-.14,7.77-1.6,10.38-1.09,1.94,2.23,2.44,2.44,1.17.08-.48-.68-1.41-.42-2.49.31-1.28,2.42-2.22.95-4.34l1.03-.52-.47-2.42c3.66,1.23,2.08.13,3.13-1.22.38-.48,1.19-.6,1.38-.9.47-.75-.87-3.51-.2-4.7ZM317.01,328.93c.45-.68-1.39-2.34-1.58-2.12l.02,1.04,1.56,1.08ZM308.02,332.11l-.52,1.86.78.78.79-.79-.02-1.02-1.03-.82ZM306.95,334.76h-1.58v.52h1.58v-.52ZM57.06,336.34h-1.59c.72,1.42-.32,2.76,1.33,3.71.96-1.02.19-2.49.26-3.71ZM29.53,336.88c-1.97-.45-.76,2.58-1.05,3.7,1.8-.63.28-2.45,1.05-3.7ZM332.36,341.12h-1.58s0,.52,0,.52l1.58.54v-1.06ZM52.3,341.64l-3.09.09-.62,1.49,2.11-.52-1.07,1.32.54,1.61,2.66.25-.53-4.23ZM331.84,342.7h-1.06s.8,1.05.8,1.05l.26-1.05ZM15.76,350.11v-2.11h-.52v2.11h.52ZM285.77,350.11v-1.58h-.52v1.58h.52ZM309.6,350.64v-1.58h-.52v1.58h.52ZM289.48,351.17l-1.58-1.58v1.59s1.58,0,1.58,0ZM318.07,351.18l-1.58-.54c-.18.78.23,1.11.8,1.58h.78s0-1.05,0-1.05ZM26.88,351.71c-1.49-.22-.98.25-1.06,1.31-.06.85-.3,5.01.79,5.03,2.02-1.83-1.43-4.14.26-6.34ZM310.13,352.77h-1.05s-.53,2.11-.53,2.11h1.05s.53-2.11.53-2.11ZM19.32,356.39c.07-.14-.28-1.95-.1-2.57-.26-.74-1.77-.02-1.82.06-.82,1.31,1.2,4.71-.05,6.29,1.82.32,1.75-2.47,1.12-3.47,0-.28.79-.19.85-.31ZM314.5,353.81c0-.36-.29-.65-.65-.65s-.65.29-.65.65.29.65.65.65.65-.29.65-.65ZM15.76,355.94v-1.05h-.52v1.05h.52ZM308.54,355.42h-1.05v.52h1.05v-.52ZM333.95,357v-1.06s-1.05.8-1.05.8l1.05.26ZM331.83,358.59v-1.05h-.52v1.05h.52ZM89.88,360.17l-1.05-1.05v1.06s1.05,0,1.05,0ZM101,367.59c-.53-.89.2-2.03-.05-2.82-.41-1.28-5.05-2.17-5.77-.61-.41.89,3.3,2.18,3.72,3.15l2.1.28ZM20,363.89c-.76-.63-2.07,1.16-1.58,2.11,1.79.41.48-.83.64-.97.12-.11,2.03-.23.94-1.14ZM308.54,365.48h-1.06s.8,1.05.8,1.05l.26-1.05ZM43.29,368.12v-1.58h-.52v1.58h.52ZM48.59,367.59h-1.05v1.58h1.05v-1.58ZM99.94,371.3c.41-.87-.72-3.91-1.05-3.17l.53,3.17h.52ZM312.25,369.71l-.79-1.04-.79.79,1.59.26ZM328.66,368.66h-1.06s0,1.05,0,1.05l1.05-1.05ZM19.46,370.24v-1.05h-.52v1.05h.52ZM259.3,370.24c-.84.72-3.63-.71-3.17,1.05l3.17-1.05ZM48.01,370.55l-1.04.23.59,2.69,1.04-.23-.59-2.69ZM146.01,372.89c-.71.02-1.44.04-2.1-.28-.96-.47-1.58-2.67-2.66-1.05l4.05,2.3.7-.97ZM156.07,377.65l-.06-1.79c-.71-2.1-10.55-.51-12.64-.85.76,2.24,12.19,3.18,12.71,2.64ZM48.05,376.06v-1.05h-.52v1.05h.52ZM19.08,376.05c0-.36-.29-.65-.65-.65s-.65.29-.65.65.29.65.65.65.65-.29.65-.65ZM28.47,381.36h9.79c1.78,0,.05,3.12,0,3.45-.27,2.49.23,4.62.28,6.85.14,6.66.42,13.31,1.64,19.81,1.01.06,4.86.54,5.08-.7-.28-1.72-.74-3.61-.91-5.33-.19-1.97.79-5.07-1.06-6.08-.04,1.49.04,3.01,0,4.51-.02.64.39,1.97-.52,1.84-2.11-3.36-1.75-7.99-2.13-11.91-.14-1.49-1.01-4.14-.99-5.34,0-.3.84-.24,1-.58.94-2.03.4-4.37.52-6.53,2.81-.01,5.84,1.47,8.47-.26-2.1-4.79-7.68-.54-10.85-3.45l-.99,1.07c-2.13-.08-3.53-2.31-5.09-.54l-.81-1.59-.52,2.11c-4.01-6.49-1.94-.93-2.91,2.65ZM208.61,376.05c0-.36-.29-.65-.65-.65s-.65.29-.65.65.29.65.65.65.65-.29.65-.65ZM98.36,377.65l-.54-1.58h-.52s0,1.58,0,1.58h1.06ZM193.65,376.6h-1.05v.52h1.05v-.52ZM18.94,379.25h-1.05s0,1.59,0,1.59l1.05-.8v-.78ZM98.51,380.11c-.28-.19.02-1.06-.41-.87-3.2,2.74-11.65-.39-14.76,1.65-.63.42-1.04.66-.86,1.52l20.12.53c-.68-1.97-2.78-1.93-4.08-2.83ZM159.77,380.31h-1.58v.52h1.58v-.52ZM262.48,385.07v-4.24s-2.94,2.1-2.94,2.1l-.52-1.07-7.12,1.63.54,1.05c-2.32-.35-4.94,2.37-6.87.27l3.17-1.85c-4.62.4-6.26,0-6.35,5.29l20.64,1.06c.49-2.85-6.37-2.11-6.34-3.44l2.37-1.31-.27,1.57c1.71-.01,1.85-2.28,3.7-1.05ZM191.53,382.95v-1.58h-.52v1.58h.52ZM208.47,382.42v-1.05h-.52v1.05h.52ZM156.06,384.53c-1.02-2.42-4.71-2.49-7.13-2.66-3.77-.27-10.89-.87-13.52,1.88l20.65.79ZM18.94,386.13c-.03-1.3.44-3.19-1.05-3.71.03,1.3-.44,3.19,1.05,3.71ZM209.54,386.65c-2.75-3.49-8.45-2.5-12.46-2.62-2.87-.09-5.58-1.91-7.65,1.31-.22,1.2.52.73,1.31.79,6.1.45,12.67.36,18.8.52ZM330.78,387.18v2.12s1.06,0,1.06,0v-2.12s-1.06,0-1.06,0ZM19.99,389.3v-1.58h-.52v1.58h.52ZM14.7,394.07l-.26-2.11c-.81.57-.92,1.14-.79,2.11h1.05ZM140.19,394.6c1.11-.43,1.77-1.46,1.58-2.65-1.67.52-1.82.85-1.58,2.65ZM192.07,393.54l1.04-.79-.79-.79-.26,1.59ZM20.53,392.49h-1.05v.52h1.05v-.52ZM188.78,394.72c-.95-.59-13.99.08-16.59-.09-1.11-.07-1.7-.91-2.51-.95-3.68-.17-3.28,3.54-4.16,4.05-.36.21-2.3-1-3.09.45l-.53,2.78,1.6-1.59,1.05.81c-.93.99-1.04,3.42-1.54,4.15-.37.53-1.42.4-1.92.82-1.83,1.54.39,7.73-.24,10.1,5.86.81,10.31-6.3,14.52-8,1.03-.42,1.46.16,2.06.07.42-.06.42-1.02.62-1.08.98-.31,1.74.43,1.86,1.34.02.16-3.6,3.33-.8,2.38.27-.09.54-1.87,2.9-1.08-.52-4.11,6.5-6.48,8.22-2.63l.82-1.84-.92-.38.38-.95-2.65-.53h3.18c-.94-3.46,2.58-3.16,4.22-5.57-1.31-1.64-3.86-.3-5.49-.87-.69-.24-.7-1.22-.97-1.39ZM146.01,395.13c-1.53.61-5.54-.28-6.55.05-.71.24-.66,1.41-1.23,1.55-3.63.87-5.61-.86-5.49,5.03.01.6.59,5.48.7,5.75.38.94,1.94,1.26,2.51,2.19l-1.58,1.32c2.79.59,5-1.18,5.83-3.7l2.1,1.59c-.99-5.66,5.16-8,3.71-13.77ZM14.7,397.78l-.26-2.12-.79,1.31,1.05.8ZM234.95,395.66h-1.05v.52h1.05v-.52ZM18.55,396.71c0-.36-.29-.65-.65-.65s-.65.29-.65.65.29.65.65.65.65-.29.65-.65ZM226.48,396.19c-2.08-.38-.67,3.56-1.05,4.76,1.76-.79.88-3.26,1.05-4.76ZM233.36,396.19c-1.39.17-2.86.36-4.18.86-.77.29-1.98.67-1.64,1.78l5.82-2.64ZM200.54,397.25c-2,.62-5.46.47-5.29,3.17,3.81.57,3.61-.28,5.29-3.17ZM155.14,398.3c0-.36-.29-.65-.65-.65s-.65.29-.65.65.29.65.65.65.65-.29.65-.65ZM13.65,398.83v2.65s1.06,0,1.06,0v-2.65s-1.06,0-1.06,0ZM18.41,398.84c-1.96-.45-.53,2.17-.5,3.42.06,2.61-.39,6.13-.07,8.54.14,1.02,1.12.74,1.14,1.05.11,1.61-1.83,1.97-2.06,2.69-.34,1.04.28,9.34.47,11.02.37,3.18,1.08,1.67.26,5.88-.45,2.33,0,3.35-2.97,4.26l.56,9.23,2.05-.07.6-3.11,1.58,2.64c1.12-2.61.07-4.83.01-7.15-.02-.71.45-1.46.42-2.12-.09-1.93-.58-4.37-.9-6.32l2.06-.84c.51-1.43-2.11-1.97-2.15-2.42-.12-1.2,1.92-3.63,1.96-4.19.06-.85-1.62-2.96-1.75-4.24-.15-1.51.64-3.29.62-4.8-.05-2.89-1-5.8-1.35-8.41-.21-1.57.19-3.44.02-5.06ZM154.48,399.37l-3.18,1.05,3.17.53v-1.58ZM122.18,413.13c1.08-2.67-1.68-6.78-1.37-8.76.11-.69,2.21-1.73,1.11-2.88l-2.92,4.23-1.05-1.58-1.6,4.49,1.85-1.85c1.33.61.65,4.02.8,5.29l2.11-1.59,1.06,2.65ZM159.77,401.49c-1.65-.35-2.54,4.22-1.31,4.76,1.46.64,1.43-4.17,1.31-4.76ZM188.36,406.25v-1.05h-.52v1.05h.52ZM52.29,407.31c-3.83-.41-1.36,6.61-1.2,9.28.23,4.02.62,8.82.69,12.72.06,3.01-3.2,5.94-.81,8.7,3.09-2.2,2.06-3.22,1.33-6.35l1.05.54c.7-2.03-1.09-3.94-1.09-5.56,0-2.02,1.24-6.13,1.15-9-.11-3.39-1.8-6.71-1.11-10.33ZM182.53,412.07l-.53-2.65-1.49.63-.09,2.02h2.11ZM278.36,409.43h-1.05v.52h1.05v-.52ZM24.77,417.9c-.39-.46.84-4.31-1.06-4.76v5.82c.89-.49,3.58.1,3.17-1.59l-2.11.53ZM134.89,413.67c-1.18-.07-2.83-.18-3.44,1.05-.47,1.12-.58,2.39.53,3.17l2.91-4.22ZM116.35,414.2h-1.05v.52h1.05v-.52ZM138.06,416.32h-2.64s0,1.05,0,1.05l2.64-.53v-.52ZM21.58,418.96v-1.05h-.52v1.05h.52ZM168.77,423.73h-1.05v.52h1.05v-.52ZM158.18,424.79h-1.05v.52h1.05v-.52ZM45.94,440.67l-.53-3.17h-.52c-.03,1.16-.29,2.76,1.05,3.17ZM49.65,437.5h-1.05c-.13.98-.02,1.54.79,2.11l.26-2.11ZM46.47,445.97c-.16-1.5.71-3.98-1.05-4.77.16,1.5-.71,3.98,1.05,4.77ZM15.23,445.97v1.06s2.12,0,2.12,0v-1.06s-2.12,0-2.12,0ZM25.82,448.61l-.26-1.58-.79.8v.78s1.05,0,1.05,0ZM21.06,453.38l1.08-1.32-.82-1.32-.26,2.65ZM45.41,452.85v-1.05h-.52v1.05h.52Z"/>
    <path d="M304.31,125.58c.33.28-.72.81-1.06.53s.72-.81,1.06-.53Z"/>
    <path d="M301.66,123.99l-1.06.53c.15-.08.07-.81,1.06-.53Z"/>
    <polygon points="298.48 188.07 299.55 188.33 298.48 188.6 298.48 188.07"/>
    <path d="M312.75,391.98l1.07,3.9c-1.48.33-1.53,2.24-1.65,2.34-.18.15-2.61.18-3.11,1.51.57,2.61.88,5.45-2.1,6.27l1.07,1.05c-.21.81-1.31,2.24-1.07,3.09.16.56,1.24.48,1.51,1.21.78,2.15-2.88,7.89-3.63,10.26,2.91.03,5.85.28,8.76.51.94.08,1.71-.16,2.35.82l-1.85,1.33-18.26-1.32-.52-1.32,5.29-.54c-2.76-6.01-.92-12.69-1.04-18.82-.07-3.4-1.46-7.26-1-10.76.89-1.41,11.9.94,14.19.48ZM305.89,404.14l-1.58,2.64c1.76.32.97-1.02.56-1.89l1.02-.75Z"/>
    <path d="M303.33,379.72c.2.13,3.67-.63,4.67.07.56,3.32-2.8,5.21-2.1,8.46h-1.58s0-3.18,0-3.18h-1.58s-.23,3.21-.23,3.21l-2.41.49c1.05-2.3.15-5.19,1.1-7.52.21-.52,1.29-.74,1.53-1.77.27-1.18-1.55-.28-1.04-1.83l1.66,2.07Z"/>
    <path d="M327.38,113.63c.37.28,1.26.9,1.28,1.35l-8.47-.53,1.07-1.32-2.12-.27,1.59-.53c0-3.62-2.3-2.79-3.58-3.83-.28-.23-1.83-3.3-1.73-3.83.18-.93.65-.68,1.31-.27,4.79,2.93,6.49,6.07,10.64,9.23Z"/>
    <path d="M350.36,130.87c-.54-.4-1.66-.37-1.98-.66-.55-.51-2.3-6.29-3.63-7.26l1.39-2.67c2.89,2.73,2.94,7.07,4.22,10.59Z"/>
    <path d="M320.19,372.89l-1.06,9.53h1.59s0,4.24,0,4.24l-1.53.03-.32,2.62c-.61-1.01-.81-3.35-.82-4.48,0-1.84.71-4.76.79-6.56.07-1.66-.53-3.61-.24-5.38h1.59Z"/>
    <path d="M306.43,373.41h1.05s.01-1.04.01-1.04h1.04s.1.97.1.97l1.5-.46c.29,1.52-1.68,1.42-2.03,2.47-.33.98.02,2.31-.09,3.36l-3.17-.54c-.19-1.21,1.07-1.47,1.44-2.47.26-.71-.55-2.47-.38-3.34l.53,1.05Z"/>
    <path d="M34.73,138.17c-.29.19-1.42.36-1.49-.14,2.39-2.49,3.02-6.41,6.09-8.2.64.58,1,.65.53,1.58-.21.42-4.78,6.53-5.13,6.76Z"/>
    <rect x="4.1" y="284.43" width="4.24" height="2.15" transform="translate(-279.29 291.42) rotate(-89.94)"/>
    <path d="M314.89,414.73c0,.77.66,1.47.46,2.27-.74,2.94-4.67-.3-.46-2.27Z"/>
    <path d="M352.43,256.45c-.02,1.08.68,1.09,1.65,1l-1.07,2.64c-1.57.44-2.14-3.23-1.58-3.7l1,.06Z"/>
    <path d="M353.96,281.71c-.13.21-1.14.23-1.39.95-.42,1.22.8,3.77-1.13,3.38v-5.29s1.82.56,1.82.56l.82-1.09c-.03.49.16,1.04-.11,1.5Z"/>
    <rect x="350.89" y="252.67" width="4.24" height="1.06" transform="translate(99.63 606.09) rotate(-89.97)"/>
    <path d="M22.11,456.56l.53,2.64c-1.94.4-2.97-1.41-1.31-2.64h.78Z"/>
    <polygon points="12.05 377.65 11 377.65 11 374.48 11.52 374.48 12.05 377.65"/>
    <polygon points="11.53 373.41 10.48 373.42 9.94 371.83 11.52 371.3 11.53 373.41"/>
    <rect x="335.54" y="99.63" width="2.12" height="1.06" transform="translate(235.68 436.53) rotate(-89.87)"/>
    <path d="M10.47,454.45c.14.99,0,1.83-1.05,2.12v-2.12s1.05,0,1.05,0Z"/>
    <path d="M26.35,438.03c.54.53-1.03,2.13-1.58,1.58s1.03-2.13,1.58-1.58Z"/>
    <path d="M10.47,403.6c-1.01,1.21-1.74-2.77-1.58-3.17.68.07,1.7,3.04,1.58,3.17Z"/>
    <polygon points="34.29 151.52 32.71 151.52 32.71 150.47 33.49 150.47 34.29 151.52"/>
    <polygon points="76.12 95.92 76.38 94.33 77.17 95.13 76.12 95.92"/>
    <path d="M63.94,103.34c-.33.27-2.05,2.66-2.65,2.11.51-.89,1.46-2.21,2.65-2.11Z"/>
    <circle cx="32.19" cy="146.22" r=".65"/>
    <circle cx="39.07" cy="433.25" r=".65"/>
    <rect x="151.83" y="418.43" width=".52" height="2.11"/>
    <circle cx="354.09" cy="229.36" r=".65"/>
    <circle cx="206.37" cy="403.06" r=".65"/>
    <polygon points="323.36 379.24 322.31 378.98 323.36 378.18 323.36 379.24"/>
    <polygon points="26.88 162.64 25.83 162.38 26.88 161.59 26.88 162.64"/>
    <rect x="312.25" y="386.13" width=".52" height="1.05"/>
    <rect x="354.61" y="224.61" width="1.05" height=".52"/>
    <rect x="320.73" y="96.98" width=".52" height="1.05"/>
    <rect x="313.31" y="391.96" width=".52" height="1.05"/>
    <rect x="31.65" y="414.73" width="1.05" height=".52"/>
    <rect x="354.08" y="251.09" width="1.05" height=".52"/>
    <path d="M245.54,157.88v1.06c-.19-.28-1.12-.42-1.06-1.05h1.06Z"/>
    <path d="M304.31,125.58c.78.45,2.54-.04,2.11,1.59-.77-.55-1.78-.02-2.32-.17-.67-.19-.76-.85-.86-.89.33.28,1.39-.25,1.06-.53Z"/>
    <path d="M304.31,125.58c-.33-.28-1.39.25-1.06.53-.77-.34-2.28,0-2.65-1.59l1.06-.53c1.32.59,1.67,1.02,2.65,1.59Z"/>
    <path d="M301.66,123.99c-.99-.28-.91.45-1.06.53-.31.15-.79.52-1.06.53-.5-.41-1.02-.49-1.06-.53-.2-.2-1.15-1.51-1.06-1.58,1.99.03,2.68.36,4.23,1.05Z"/>
    <polygon points="269.89 166.88 269.1 168.48 268.31 166.88 269.89 166.88"/>
    <path d="M298.48,188.07v.53c-.49-.09-1.59.27-1.59-.26l1.59-.26Z"/>
    <path d="M28.47,381.36c.98-3.58-1.1-9.14,2.91-2.65l.52-2.11.81,1.59c1.56-1.77,2.95.46,5.09.54l.99-1.07c3.18,2.9,8.76-1.35,10.85,3.45-2.63,1.73-5.65.25-8.47.26-.13,2.17.42,4.51-.52,6.53-.16.35-.99.28-1,.58-.02,1.2.84,3.85.99,5.34.38,3.92.02,8.54,2.13,11.91.92.13.5-1.21.52-1.84.05-1.5-.04-3.01,0-4.51,1.85,1.01.87,4.12,1.06,6.08.17,1.72.64,3.61.91,5.33-.22,1.24-4.07.76-5.08.7-1.22-6.5-1.5-13.14-1.64-19.81-.05-2.24-.55-4.36-.28-6.85.04-.34,1.77-3.45,0-3.45h-9.79ZM43.29,407.84v-1.58h-.52v1.58h.52Z"/>
    <path d="M23.7,316.23c-1.12,3.98,1.89,6.68-1.08,10.31,3.24,1.72,1.76,4.87-1.58,5.33l.55,1.84,1.58-.54c.93,1.83-.19,2.1-.52,3.71.16.19,2.56-2.69,2.11.26l-2.11.8,1.11,1.3c.27,2.24-1.02,1.6-1.15,2.63-.24,1.83.81,4.11.59,5.24-.07.37-.97.3-1.07.71-.9,3.68,1.35,10.27-1.86,13.93-1.99-1.66.15-1.47.26-1.93.72-2.94-1.26-8.11.53-10.77l-1.58.52c-.03-1.23,1.05-1.47,1.08-2.88.03-1.11-.22-4.86-.31-6.14-.19-2.55-.69-5.16-1.33-7.63l1.08-.3-1.09-.86c.77-3.49-1.59-5.78,2.65-7.4-.97-2.7-.07-4.5.96-6.98.33-.78-.32-1.44,1.19-1.16ZM21.06,328.94h-1.05v.52h1.05v-.52ZM23.31,329.45c0-.36-.29-.65-.65-.65s-.65.29-.65.65.29.65.65.65.65-.29.65-.65ZM22.64,340.05v-1.05h-.52v1.05h.52Z"/>
    <path d="M18.41,398.84c.17,1.62-.23,3.49-.02,5.06.35,2.61,1.3,5.52,1.35,8.41.02,1.51-.76,3.3-.62,4.8.12,1.27,1.8,3.39,1.75,4.24-.04.56-2.07,2.99-1.96,4.19.04.45,2.66,1,2.15,2.42l-2.06.84c.32,1.95.81,4.38.9,6.32.03.66-.44,1.4-.42,2.12.06,2.32,1.11,4.54-.01,7.15l-1.58-2.64-.6,3.11-2.05.07-.56-9.23c2.97-.91,2.52-1.93,2.97-4.26.82-4.21.1-2.69-.26-5.88-.19-1.68-.81-9.99-.47-11.02.23-.72,2.17-1.08,2.06-2.69-.02-.31-1-.03-1.14-1.05-.32-2.4.13-5.93.07-8.54-.03-1.25-1.46-3.86.5-3.42Z"/>
    <path d="M262.48,385.07c-1.85-1.23-1.99,1.04-3.7,1.05l.27-1.57-2.37,1.31c-.03,1.33,6.83.58,6.34,3.44l-20.64-1.06c.09-5.29,1.73-4.88,6.35-5.29l-3.17,1.85c1.94,2.1,4.56-.62,6.87-.27l-.54-1.05,7.12-1.63.52,1.07,2.94-2.1v4.24Z"/>
    <path d="M52.29,407.31c-.69,3.62,1,6.94,1.11,10.33.1,2.87-1.14,6.98-1.15,9,0,1.62,1.79,3.53,1.09,5.56l-1.05-.54c.74,3.13,1.76,4.15-1.33,6.35-2.38-2.77.87-5.7.81-8.7-.07-3.9-.46-8.69-.69-12.72-.16-2.67-2.62-9.69,1.2-9.28Z"/>
    <path d="M17.57,288.46c1.95,1.93,1.5,3.02,1,5.72,2,4.64,1.77,9.69,1.96,14.63-.97-.47-1.87-1.32-2.09-2.4-1.05-5.08-.12-11.45-1.33-16.68l-.8-.52.52,8.47-2.11.53c-1.2-3.8,1.07-6.75.69-10.34l1.16-.79c.44.38.61.96,1.02,1.37Z"/>
    <path d="M38,180.66c-2.08-.84-4.96.44-6.13,2.14l-2.33-1.35c2.41-.73,2.17-2.02,3.16-3.18,2.04-2.38,3.91-4.88,6.09-7.13,2.38,3-.51,6.39-.8,9.53Z"/>
    <path d="M156.06,384.53l-20.65-.79c2.63-2.75,9.75-2.15,13.52-1.88,2.41.17,6.11.25,7.13,2.66Z"/>
    <path d="M209.54,386.65c-6.13-.16-12.7-.08-18.8-.52-.79-.06-1.53.41-1.31-.79,2.07-3.22,4.78-1.4,7.65-1.31,4.01.13,9.72-.86,12.46,2.62Z"/>
    <path d="M98.51,380.11c1.3.9,3.4.86,4.08,2.83l-20.12-.53c-.18-.86.22-1.1.86-1.52,3.11-2.05,11.56,1.08,14.76-1.65.43-.19.13.68.41.87Z"/>
    <path d="M330.78,174.82l-22.23-.79,1.3-1.37c5.55.56,12.09-.61,17.51.03,1.47.17,2.78.71,3.43,2.12Z"/>
    <path d="M219.6,114.45c-7.07-.04-14.19.35-21.17-.79.71-.93,1.19-1.2,2.35-1.35,2.48-.33,15.73-.23,17.43.63.5.25,1.24.94,1.39,1.52Z"/>
    <path d="M49.65,221.96c-6.07-.33-12.19-.27-18.27-.53-.82-.03-2.1.5-1.84-.79,1.02-.92,3.23-1.14,4.56-1.26,2.56-.23,12.08.15,14.22,1,.82.32,1.53.44,1.33,1.58Z"/>
    <path d="M218.01,97.51l-.53,4.23c-4.38.18-8.02-2.42-12.17-3.19-.13-.92,1.2-.5,1.84-.52,3.64-.12,7.22-.49,10.86-.52Z"/>
    <path d="M122.18,413.13l-1.06-2.65-2.11,1.59c-.15-1.27.53-4.69-.8-5.29l-1.85,1.85,1.6-4.49,1.05,1.58,2.92-4.23c1.1,1.15-1.01,2.2-1.11,2.88-.31,1.98,2.45,6.1,1.37,8.76Z"/>
    <path d="M156.07,377.65c-.52.54-11.95-.4-12.71-2.64,2.1.34,11.94-1.25,12.64.85l.06,1.79Z"/>
    <path d="M135.94,89.04c1.35,1.17-1.76,7.06-2.2,7.33-.56.34-1.83,0-2.56.09l-.3-4.23,5.06-3.18Z"/>
    <path d="M78.76,202.9l-.78,7.42-3.97-.56c-.16-1.25,0-2.24.58-3.36.36-.71,3.3-4.4,4.17-3.51Z"/>
    <path d="M290.01,146.76c.33.31-.88,3.2-1.1,3.82-.54,1.48-.23,1.11-.53,2.19-.04.14-1.65,1.6-2.06,1.92-.26-1.13-.7-2.26-.6-3.46.09-1.01,1.09-.73,1.06-1-.26-3.16-1.39-3.7,3.23-3.48Z"/>
    <path d="M43.82,224.08l-7.94,10.59c1.04-4.99,2.72-8.9,7.94-10.59Z"/>
    <path d="M250.31,270.15c-1.28,1.85.68.48,1.08,1.39l.51,2.83,2.64-2.64c.54,3.97-3.7,2.09-3.18,4.77l-2.1-.56c1.22-2.43-3.76-5.47,1.05-5.8Z"/>
    <path d="M101,367.59l-2.1-.28c-.42-.97-4.14-2.26-3.72-3.15.72-1.56,5.36-.67,5.77.61.25.79-.48,1.93.05,2.82Z"/>
    <path d="M344.54,309.34l1.57,3.98-2.82,1.8-1.18-1.25c.35-1.81-.02-4.45,2.42-4.53Z"/>
    <path d="M248.18,225.14c.23,1.95-.7,3.77-.86,5.64-.12,1.37,1.21,3.26-.46,4.41l-1.32-1.29c.9-2.48.85-4.9,1.58-7.47.24-.84-.58-1.57,1.06-1.29Z"/>
    <path d="M224.92,275.41l-.04-1.54-1.05,1.05.53-3.7c4.07.32,6.32,5.2.56,4.2Z"/>
    <path d="M351.43,270.68l-.58,3.12c-2.56.75-5.13-1.59-2.79-3.61l3.38.49Z"/>
    <path d="M9.42,261.68l1.58-.53c.04,1.74-1.66,2.34-3.17,2.11l.53-5.82,2.64,1.32c-.9.83-1.82,1.51-1.57,2.91Z"/>
    <polygon points="52.3 341.64 52.82 345.88 50.17 345.63 49.63 344.02 50.7 342.7 48.59 343.23 49.21 341.73 52.3 341.64"/>
    <path d="M9.93,245.79c-3.08-.3-.43-4.85-1.04-6.88l2.55,4.51-1.51,2.38Z"/>
    <path d="M90.42,90.1l-.04,2.08c-2.02-.42-2.53,1.39-4.2,1.62l.07-3.1,4.16-.6Z"/>
    <path d="M134.89,413.67l-2.91,4.22c-1.11-.78-1-2.05-.53-3.17.61-1.23,2.26-1.12,3.44-1.05Z"/>
    <path d="M200.54,397.25c-1.68,2.89-1.48,3.73-5.29,3.17-.17-2.7,3.29-2.55,5.29-3.17Z"/>
    <path d="M10.99,266.98c1.29,1.59-.98,4.73-2.38,4.75-1.29.02.56-3.02-.25-3.67,1.7.47,1.17-1.3,2.63-1.08ZM9.93,270.15v-1.05h-.52v1.05h.52Z"/>
    <path d="M19.32,356.39c-.06.12-.85.03-.85.31.64,1.01.71,3.8-1.12,3.47,1.25-1.58-.77-4.99.05-6.29.05-.08,1.56-.8,1.82-.06-.19.62.17,2.42.1,2.57Z"/>
    <path d="M283.13,129.81c-1.35-.09-3.42-1.36-4.48-2.13-.87-.63-2.48-1.39-2.4-2.63.31-.29,6.67,3.57,6.88,4.76Z"/>
    <path d="M17.24,281.72l-.96.34v1.07c2.29.13.4,4.57-.51,3.44v-6.35c.39-.44,2.11.73,1.48,1.5Z"/>
    <path d="M112.06,81.03l-2.58-.21,1.33-2.9c1.38-.32,1.58,2.31,1.25,3.11Z"/>
    <path d="M159.77,401.49c.11.59.15,5.4-1.31,4.76-1.23-.54-.34-5.11,1.31-4.76Z"/>
    <path d="M27.42,181.18c.17-2.39,1.52-5.14,3.17-6.88-.46,2.26-1.32,5.41-3.17,6.88Z"/>
    <path d="M24.77,417.9l2.11-.53c.41,1.69-2.28,1.09-3.17,1.59v-5.82c1.9.46.66,4.3,1.06,4.76Z"/>
    <path d="M26.88,351.71c-1.69,2.2,1.76,4.51-.26,6.34-1.09-.02-.85-4.18-.79-5.03.07-1.06-.43-1.53,1.06-1.31Z"/>
    <path d="M354.6,167.94c0,1.47.51,3.79-1.58,3.71v-3.71s1.58,0,1.58,0Z"/>
    <path d="M57.06,276.5c-1.97.13-.24-2.31-2.51-2.87l.4-1.9c1.91.77,1.61,3.09,2.11,4.76Z"/>
    <path d="M36.41,314.1c-1.68.16-1.66-1.48-1.59-2.64l-1.58.54-.53-1.59c2.72.12,3.17,1.32,3.71,3.7Z"/>
    <path d="M146.01,372.89l-.7.97-4.05-2.3c1.08-1.63,1.7.58,2.66,1.05.66.32,1.39.3,2.1.28Z"/>
    <path d="M11.52,298.75c.08,1.38-.68,2.13-1.85,2.63l-.79-2.64h2.64Z"/>
    <polygon points="292.66 87.44 291.56 87.74 292.13 89.56 290.08 88.18 290.55 86.39 292.66 87.44"/>
    <path d="M16.76,298.8c.16.12.73,1.46.08,1.82-3.47,1.89-2.47-3.63-.08-1.82Z"/>
    <rect x="342.95" y="259.56" width="1.07" height="4.77" transform="translate(-.57 .75) rotate(-.13)"/>
    <path d="M226.48,396.19c-.17,1.5.71,3.98-1.05,4.76.38-1.21-1.03-5.15,1.05-4.76Z"/>
    <path d="M233.36,396.19l-5.82,2.64c-.34-1.11.87-1.48,1.64-1.78,1.32-.5,2.79-.69,4.18-.86Z"/>
    <path d="M57.06,336.34c-.07,1.21.7,2.69-.26,3.71-1.65-.95-.61-2.29-1.33-3.7h1.59Z"/>
    <polygon points="182.53 412.07 180.42 412.07 180.51 410.06 182 409.43 182.53 412.07"/>
    <path d="M46.47,445.97c-1.76-.79-.88-3.26-1.05-4.77,1.76.79.88,3.26,1.05,4.77Z"/>
    <polygon points="154.48 399.37 154.47 400.95 151.3 400.42 154.48 399.37"/>
    <path d="M250.83,218.78c-1.98.41-.51-2.6-1.59-3.7,2.13-.07,1.58,2.3,1.59,3.7Z"/>
    <path d="M5.7,264.32c-1.55-.71-.52-3.39-1.05-4.77,1.76.79.88,3.26,1.05,4.77Z"/>
    <polygon points="337.66 175.89 336.08 178 335.55 175.36 337.66 175.89"/>
    <polygon points="346.67 289.22 346.66 290.8 343.49 289.48 346.67 289.22"/>
    <path d="M320.18,319.4c.43.41.82,3.6-.52,3.7.36-1.14-1.67-4.1.52-3.7Z"/>
    <path d="M18.94,317.81l2.11-4.23c.12,1.55-.03,4.2-2.11,4.23Z"/>
    <path d="M343.76,317.81c2.13-.48,1.36,5.11-.79.79.27-.19.57-.74.79-.79Z"/>
    <path d="M18.94,319.93l-.52,3.7c-.14-1.05-1.61-4.09.52-3.7Z"/>
    <path d="M318.07,176.42c.14,1.63-1.33,1.71-2.64,1.58.52-1.67.85-1.82,2.64-1.58Z"/>
    <path d="M18.94,386.13c-1.49-.51-1.02-2.41-1.05-3.71,1.49.51,1.02,2.41,1.05,3.71Z"/>
    <polygon points="17.36 278.1 18.41 277.56 18.41 279.15 16.29 279.15 16.83 275.98 17.36 278.1"/>
    <path d="M37.7,158.69c.88.89,1.09.75.82,2.36l-2.1-2.39c1.34-1.48.73-.53,1.28.02Z"/>
    <path d="M260.89,108.63l.53,3.18c-1.2-.17-2.83-3.45-.53-3.18Z"/>
    <path d="M87.76,194.95c.12.98.03,1.55-.8,2.11h-.78s0-2.11,0-2.11h1.58Z"/>
    <path d="M29.53,336.88c-.77,1.25.75,3.07-1.05,3.7.29-1.12-.91-4.15,1.05-3.7Z"/>
    <path d="M263.54,63.61c-.76-.96,1.75-2.42,2.11-.78.3,1.39-1.76,1.23-2.11.78Z"/>
    <path d="M340.04,268.04c1,0,1,2.63,0,2.63s-1-2.63,0-2.63Z"/>
    <path d="M22.12,311.98l.26-2.64,1.32,1.84c-.48.57-.8.97-1.58.8Z"/>
    <rect x="12.85" y="399.63" width="2.65" height="1.06" transform="translate(-386 413.88) rotate(-89.93)"/>
    <path d="M81.94,199.71c.57-.64,1.5-3.6,2.64-1.85l-2.64,1.85Z"/>
    <path d="M140.19,394.6c-.24-1.8-.09-2.13,1.58-2.65.19,1.19-.47,2.22-1.58,2.65Z"/>
    <path d="M324.42,265.92l-1.32,1.57c-.82-.56-.92-1.13-.79-2.11l2.11.53Z"/>
    <polygon points="323.36 178.53 322.05 179.06 321.51 178.53 321.78 176.95 323.36 178.53"/>
    <polygon points="308.02 332.11 309.05 332.93 309.07 333.96 308.28 334.75 307.5 333.97 308.02 332.11"/>
    <path d="M12.59,248.96c-.93-.74-.1-3.42,1.57-.79-.31.48-1.16,1.12-1.57.79Z"/>
    <path d="M74,96.98l-.54,2.11h-1.05c-.2-1.27.25-2.25,1.58-2.11Z"/>
    <path d="M45.94,440.67c-1.34-.41-1.08-2.01-1.05-3.17h.52s.53,3.17.53,3.17Z"/>
    <path d="M337.13,163.71c-.32.42-2.34-2.67-.79-3.17l.79,3.17Z"/>
    <polygon points="224.82 265.98 224.89 267.5 223.84 267.5 223.31 265.38 224.82 265.98"/>
    <polygon points="6.76 293.45 6.69 294.97 5.18 295.57 5.71 293.45 6.76 293.45"/>
    <path d="M20,363.89c1.09.91-.82,1.03-.94,1.14-.16.14,1.14,1.38-.64.97-.48-.95.82-2.74,1.58-2.11Z"/>
    <path d="M10.46,305.63c-1.34-.41-1.08-2.01-1.05-3.17h.52s.53,3.17.53,3.17Z"/>
    <rect x="102.06" y="178" width="2.12" height="1.06" transform="translate(-75.65 281.25) rotate(-89.87)"/>
    <polygon points="21.06 453.38 21.32 450.74 22.15 452.06 21.06 453.38"/>
    <rect x="330.25" y="387.72" width="2.12" height="1.06" transform="translate(-57.69 718.67) rotate(-89.87)"/>
    <rect x="9.11" y="253.09" width="1.05" height="2.7" transform="translate(-48.1 6.45) rotate(-10.94)"/>
    <rect x="15.76" y="445.44" width="1.06" height="2.12" transform="translate(-430.24 461.78) rotate(-89.87)"/>
    <rect x="47.25" y="370.64" width="1.06" height="2.76" transform="translate(-78.17 18.73) rotate(-12.3)"/>
    <polygon points="138.06 416.32 138.06 416.84 135.42 417.37 135.42 416.32 138.06 416.32"/>
    <path d="M318.07,272.27c.14.99,0,1.83-1.05,2.12v-2.12s1.05,0,1.05,0Z"/>
    <polygon points="70.29 272.27 68.71 272.27 68.71 271.22 70.29 270.68 70.29 272.27"/>
    <polygon points="180.95 122.4 180.95 123.99 179.9 123.99 179.36 122.4 180.95 122.4"/>
    <path d="M292.66,135.1l-3.7-2.11c1.27.22,3.08.9,3.7,2.11Z"/>
    <path d="M14.7,394.07h-1.05c-.13-.98-.02-1.54.79-2.11l.26,2.11Z"/>
    <path d="M49.65,437.5l-.26,2.11c-.81-.57-.92-1.14-.79-2.11h1.05Z"/>
    <polygon points="310.13 352.77 309.6 354.88 308.54 354.88 309.08 352.76 310.13 352.77"/>
    <path d="M318.07,351.18v1.05s-.79,0-.79,0c-.57-.47-.97-.8-.8-1.58l1.58.54Z"/>
    <rect x="251.9" y="208.2" width="3.17" height=".52"/>
    <polygon points="14.7 397.78 13.65 396.98 14.44 395.66 14.7 397.78"/>
    <path d="M75.06,213.48c-.8-.8,1.57-2.26,1.58-.79,0,.35-1.27,1.1-1.58.79Z"/>
    <polygon points="289.48 351.17 287.9 351.17 287.9 349.59 289.48 351.17"/>
    <path d="M40.11,250.56c-1.05-.28-1.19-1.13-1.05-2.12,1.05.28,1.19,1.13,1.05,2.12Z"/>
    <rect x="294.25" y="227.79" width="1.58" height="1.05"/>
    <polygon points="30.59 288.69 30.85 286.57 31.64 287.88 30.59 288.69"/>
    <rect x="9.41" y="232.02" width="1.05" height="1.58"/>
    <rect x="47.53" y="367.59" width="1.05" height="1.58"/>
    <path d="M21.05,167.41c-1.05-.28-1.19-1.13-1.05-2.12,1.05.28,1.19,1.13,1.05,2.12Z"/>
    <path d="M300.6,139.87c-.95.17-1.74-.72-2.12-1.58.95-.17,1.74.72,2.12,1.58Z"/>
    <path d="M22.12,315.16c-.8-.8,1.57-2.26,1.58-.79,0,.35-1.27,1.1-1.58.79Z"/>
    <polygon points="25.82 448.61 24.77 448.61 24.77 447.83 25.56 447.03 25.82 448.61"/>
    <polygon points="18.94 379.25 18.94 380.03 17.89 380.83 17.88 379.25 18.94 379.25"/>
    <path d="M289.48,184.9c.07.08-.03.35,0,.52-.94.14-1.86-.03-2.11-1.05.42-.06,1.99.41,2.11.53Z"/>
    <polygon points="108.41 80.04 108.41 80.82 107.36 81.62 107.36 80.04 108.41 80.04"/>
    <polygon points="329.19 315.17 328.39 316.22 327.61 316.22 327.61 315.17 329.19 315.17"/>
    <circle cx="351.97" cy="177.46" r=".65"/>
    <circle cx="36.42" cy="319.39" r=".65"/>
    <path d="M17.35,307.75c-.2.26-1.4-.92-1.05-1.59.2-.26,1.4.92,1.05,1.59Z"/>
    <polygon points="332.36 341.12 332.36 342.17 330.78 341.64 330.78 341.12 332.36 341.12"/>
    <rect x="15.24" y="348" width=".52" height="2.11"/>
    <circle cx="16.83" cy="303.5" r=".65"/>
    <circle cx="313.85" cy="353.81" r=".65"/>
    <path d="M161.89,103.34c.26.2-.92,1.4-1.59,1.05-.26-.2.92-1.4,1.59-1.05Z"/>
    <polygon points="263.54 112.33 262.48 112.33 263.02 110.75 263.54 110.75 263.54 112.33"/>
    <circle cx="341.38" cy="286.56" r=".65"/>
    <polygon points="312.25 369.71 310.66 369.45 311.45 368.66 312.25 369.71"/>
    <path d="M99.94,371.3h-.52s-.53-3.17-.53-3.17c.33-.74,1.46,2.3,1.05,3.17Z"/>
    <path d="M259.3,370.24l-3.17,1.05c-.46-1.76,2.33-.33,3.17-1.05Z"/>
    <circle cx="299.02" cy="135.63" r=".65"/>
    <rect x="303.47" y="135.62" width=".77" height="4.85" transform="translate(20.56 314.47) rotate(-56.35)"/>
    <circle cx="18.42" cy="376.05" r=".65"/>
    <circle cx="207.96" cy="376.05" r=".65"/>
    <polygon points="98.36 377.65 97.3 377.65 97.3 376.07 97.82 376.07 98.36 377.65"/>
    <circle cx="111.07" cy="143.04" r=".65"/>
    <circle cx="287.38" cy="159.99" r=".65"/>
    <path d="M94.66,185.42c-.35-.66.85-1.85,1.05-1.59.35.66-.85,1.85-1.05,1.59Z"/>
    <circle cx="245.02" cy="209.24" r=".65"/>
    <polygon points="78.24 215.07 77.18 215.07 77.18 213.49 77.7 213.49 78.24 215.07"/>
    <polygon points="192.07 393.54 192.33 391.96 193.11 392.75 192.07 393.54"/>
    <circle cx="239.73" cy="228.83" r=".65"/>
    <circle cx="39.6" cy="252.66" r=".65"/>
    <circle cx="154.49" cy="398.3" r=".65"/>
    <circle cx="2.54" cy="263.26" r=".65"/>
    <circle cx="17.89" cy="396.71" r=".65"/>
    <polygon points="320.19 313.04 319.13 312.78 320.19 311.99 320.19 313.04"/>
    <path d="M317.01,328.93l-1.56-1.08-.02-1.04c.19-.22,2.02,1.43,1.58,2.12Z"/>
    <rect x="20.53" y="311.46" width=".52" height="1.58"/>
    <rect x="305.37" y="334.76" width="1.58" height=".52"/>
    <rect x="260.37" y="74.21" width="1.58" height=".52"/>
    <polygon points="331.84 342.7 331.58 343.76 330.78 342.71 331.84 342.7"/>
    <rect x="285.25" y="348.53" width=".52" height="1.58"/>
    <rect x="309.08" y="349.06" width=".52" height="1.58"/>
    <polygon points="346.66 304.04 345.61 304.04 345.61 302.98 346.66 304.04"/>
    <rect x="70.83" y="226.73" width=".52" height="1.58"/>
    <polygon points="333.95 357 332.9 356.74 333.95 355.94 333.95 357"/>
    <rect x="3.06" y="266.45" width=".52" height="1.58"/>
    <rect x="19.48" y="387.72" width=".52" height="1.58"/>
    <polygon points="89.88 360.17 88.83 360.18 88.83 359.12 89.88 360.17"/>
    <polygon points="347.72 295.04 346.67 295.04 346.67 293.98 347.72 295.04"/>
    <polygon points="87.24 193.89 86.18 193.89 86.18 192.83 87.24 193.89"/>
    <polygon points="308.54 365.48 308.28 366.53 307.48 365.48 308.54 365.48"/>
    <rect x="42.77" y="366.54" width=".52" height="1.58"/>
    <polygon points="328.66 368.66 327.61 369.71 327.61 368.65 328.66 368.66"/>
    <polygon points="103.12 182.77 102.06 182.77 102.86 181.71 103.12 182.77"/>
    <rect x="18.42" y="284.98" width=".52" height="1.58"/>
    <polygon points="105.24 281.8 104.98 282.86 104.18 281.81 105.24 281.8"/>
    <polygon points="228.6 276.51 227.54 277.56 227.54 276.51 228.6 276.51"/>
    <polygon points="20 169.01 18.95 170.06 18.94 169 20 169.01"/>
    <rect x="158.19" y="380.31" width="1.58" height=".52"/>
    <rect x="191.01" y="381.36" width=".52" height="1.58"/>
    <rect x="207.96" y="381.36" width=".52" height="1.05"/>
    <rect x="102.07" y="172.71" width=".52" height="1.05"/>
    <rect x="327.61" y="175.36" width="1.05" height=".52"/>
    <rect x="104.18" y="176.95" width="1.05" height=".52"/>
    <rect x="304.31" y="139.88" width="1.05" height=".52"/>
    <rect x="233.89" y="395.66" width="1.05" height=".52"/>
    <rect x="192.6" y="376.6" width="1.05" height=".52"/>
    <rect x="47.54" y="375.01" width=".52" height="1.05"/>
    <rect x="249.78" y="277.04" width="1.05" height=".52"/>
    <rect x="295.31" y="133" width="1.05" height=".52"/>
    <rect x="287.9" y="279.69" width=".52" height="1.05"/>
    <rect x="287.37" y="131.94" width="1.05" height=".52"/>
    <rect x="322.31" y="180.66" width=".52" height="1.05"/>
    <rect x="44.89" y="451.8" width=".52" height="1.05"/>
    <rect x="4.65" y="268.56" width=".52" height="1.05"/>
    <rect x="342.43" y="268.03" width=".52" height="1.05"/>
    <rect x="294.25" y="187.01" width="1.05" height=".52"/>
    <rect x="296.9" y="187.01" width="1.05" height=".52"/>
    <rect x="18.95" y="369.18" width=".52" height="1.05"/>
    <rect x="98.36" y="286.04" width=".52" height="1.05"/>
    <rect x="295.31" y="118.17" width="1.05" height=".52"/>
    <rect x="313.84" y="266.98" width="1.05" height=".52"/>
    <rect x="100.48" y="191.78" width=".52" height="1.05"/>
    <rect x="311.2" y="266.98" width=".52" height="1.05"/>
    <rect x="351.43" y="290.81" width="1.05" height=".52"/>
    <rect x="166.13" y="112.34" width=".52" height="1.05"/>
    <rect x="285.25" y="266.45" width=".52" height="1.05"/>
    <rect x="331.31" y="357.53" width=".52" height="1.05"/>
    <rect x="8.88" y="265.92" width="1.05" height=".52"/>
    <rect x="157.13" y="424.79" width="1.05" height=".52"/>
    <rect x="307.49" y="355.42" width="1.05" height=".52"/>
    <rect x="15.24" y="354.89" width=".52" height="1.05"/>
    <rect x="167.72" y="423.73" width="1.05" height=".52"/>
    <rect x="34.83" y="317.82" width="1.05" height=".52"/>
    <rect x="21.06" y="417.9" width=".52" height="1.05"/>
    <rect x="92.01" y="90.1" width="1.05" height=".52"/>
    <rect x="19.47" y="392.49" width="1.05" height=".52"/>
    <rect x="281.54" y="232.56" width="1.05" height=".52"/>
    <rect x="123.24" y="73.68" width="1.05" height=".52"/>
    <rect x="115.3" y="414.2" width="1.05" height=".52"/>
    <rect x="277.31" y="409.43" width="1.05" height=".52"/>
    <rect x="9.41" y="234.67" width="1.05" height=".52"/>
    <rect x="22.65" y="307.22" width=".52" height="1.05"/>
    <rect x="245.55" y="236.26" width=".52" height="1.05"/>
    <rect x="187.84" y="405.19" width=".52" height="1.05"/>
    <rect x="284.72" y="238.38" width=".52" height="1.05"/>
    <rect x="67.12" y="263.27" width="1.05" height=".52"/>
    <rect x="11.53" y="251.09" width="1.05" height=".52"/>
    <rect x="340.31" y="251.09" width="1.05" height=".52"/>
    <rect x="312.25" y="320.99" width="1.05" height=".52"/>
    <rect x="260.9" y="252.15" width=".52" height="1.05"/>
    <rect x="319.66" y="257.45" width="1.05" height=".52"/>
    <path d="M305.89,404.14l-1.02.75c.4.88,1.19,2.21-.56,1.89l1.58-2.64Z"/>
    <path d="M142.56,364.94c-.24-.02-.89-.47-1.57-.55-1.88-.24-4.78.88-5.05-2.09l16.95.28c2.12-1.43-2.34-3.77-2.61-4.89-.24-1,.7-1.43.88-2.16.14-.59-.33-1.38-.14-1.73.35-.63,1.93-.76,2.4-1.28.67-.74.31-1.69.65-2.25.43-.7,2.53-.93,2.91-1.37.27-.31-.09-1.13.48-1.44,4.36-2.43,12.43.98,16.85-2.64.96-.19.79.02.74.76-.18,2.51.75,4.2.6,6.66l.53-4.23,3.43,1.62.38-.99c1.99.85,1.08-.53,2.23-.68,2.6-.34,5.61.45,8.26.27l1.58,3.77c-1.35.15-1.29.91-.26,1.29,1.57.58.36-3.08.85-3.65l3.64-.57v1.58s3.16-.51,3.16-.51l.56,2.62c1.37-.42,1.05-2.05,1.06-3.18l1.4,1.01,1.76-1.01v3.17c1.91.43.81-2.08,1.07-3.17,1.62,2.22,1.17,1,2.37,1.17,2.78.4,2.08,1.79,1.86,4.11l3.17.55-2.58,2.45c.79,1.7,1,2.57.47,4.43,1.84.54,1.09-1,2.37-1.05,2.55,2.37-2.27,3.63-1.85,5.82-6.44.09-12.89-.29-19.34-.5-1.02-.03-1.75-.89-2.09-.89-.46,0-2.18,1.51-3.44.86.02-2.76-.4-5.45-.53-8.21-.03-.62.39-2.34-.79-1.84-2.02.85.43,2.48.27,3.7l-2.06.06c-.96,2.33-.19,2.97,1.52,4.45l-.86,1.28c-2.08-.74-6.3.5-6.56-2.08-2.03,1.8-4.87.9-7.37,1.03l-1.1-4.2c-1.4.58-.02,3.21,0,4.23-8.54-.48-17.75.64-26.21,0ZM157.65,351.17v-.78s-1.05-.8-1.05-.8v1.59s1.05,0,1.05,0ZM210.6,363.89c-1.67-.22-.81-3.46-1.06-3.71h-1.58c-.25,1.86.92,3.33-.53,4.76h3.71s-.53-1.05-.53-1.05h1.05c.15-1.11.05-1.21-1.05-1.05v1.05Z"/>
    <path d="M162.94,146.76c.14.7-.23,1.23-.76,1.62-1.19.86-13.91.62-16.46.52s-4.06-1.89-6.07.51l.83-3.21,22.46.57Z"/>
    <path d="M161.89,202.9c-.17.49-.91,1.39-1.3,1.61-1.52.86-9.38.65-11.7.52-1.71-.09-5.42-.29-6.85-.56-1-.19-1.96-1.36-2.93-1.85l22.77.27Z"/>
    <path d="M216.42,205.02c-.27.83-1.02,1.41-1.86,1.57-2.3.45-14.41.38-16.96.04-1.67-.22-2.55-1.31-3.41-2.67l22.24,1.06Z"/>
    <path d="M158.71,310.4c.23,1.21-.07.85-.68,1.18-3.48,1.95-8.09.64-11.77.41-3.23-.21-7.66,1.21-9.26-2.12l21.7.53Z"/>
    <path d="M212.71,312.52c-.27.83-1.02,1.41-1.86,1.57-2.28.45-14.45.38-16.96.04-1.45-.2-2.28-1.19-3.42-1.88l22.24.27Z"/>
    <path d="M248.98,316.22c-1.2-.15-3.58-.81-3.97-2.11,7.06-.09,14.19.28,21.18,1.06.17.16-.68,1.05-.79,1.05-4.9,0-11.81.58-16.41,0Z"/>
    <path d="M37.47,291.33l3.18,11.65-2.64-2.38,1.58-.79c-2.56.49-1.22-1.29-1.7-2.8-.39-1.23-3.22-5.56-.42-5.68Z"/>
    <path d="M334.48,218.79c1.66,1.88-3.8.26-3.7-1.06.77-.73,3.34.65,3.7,1.06Z"/>
    <polygon points="45.41 315.69 44.3 311.74 44.62 309.87 45.41 315.69"/>
    <path d="M260.89,282.87l-4.23,1.05c-.38-2.06,3.21-.69,4.23-1.05Z"/>
    <path d="M34.29,257.44c.51.56-.68,2.54-1.58,2.65-.54-.99.79-3.51,1.58-2.65Z"/>
    <path d="M174.59,248.97c-.74,1.6-2.73,1.68-4.23,1.58l4.23-1.58Z"/>
    <path d="M149.18,171.65l.07-1.52,1.51-.6c.21,1.27-.25,2.25-1.58,2.12Z"/>
    <path d="M36.94,290.8h-1.05s0-2.12,0-2.12c1.05.28,1.19,1.13,1.05,2.12Z"/>
    <polygon points="182 271.74 182 272.26 179.89 272.8 179.89 271.74 182 271.74"/>
    <rect x="196.3" y="286.04" width="1.05" height="1.58"/>
    <rect x="248.72" y="282.87" width="2.64" height=".52"/>
    <polygon points="43.29 275.98 42.49 277.03 41.71 277.03 41.71 275.98 43.29 275.98"/>
    <polygon points="112.65 180.13 112.39 181.71 111.6 180.91 111.59 180.13 112.65 180.13"/>
    <rect x="315.43" y="296.1" width=".52" height="2.64"/>
    <path d="M176.18,305.63l-1.58-.79.79-.79c.57.47.96.8.79,1.58Z"/>
    <circle cx="34.83" cy="324.69" r=".65"/>
    <circle cx="124.31" cy="311.98" r=".65"/>
    <circle cx="169.84" cy="344.81" r=".65"/>
    <rect x="212.72" y="359.65" width="2.11" height=".52"/>
    <circle cx="149.19" cy="367.58" r=".65"/>
    <circle cx="179.9" cy="154.16" r=".65"/>
    <polygon points="125.35 271.74 123.77 271.73 123.77 271.22 125.35 270.68 125.35 271.74"/>
    <circle cx="147.6" cy="171.64" r=".65"/>
    <polygon points="148.12 196.02 148.12 196.53 146.54 196.54 146.54 195.48 148.12 196.02"/>
    <circle cx="99.96" cy="265.9" r=".65"/>
    <rect x="187.84" y="257.97" width=".52" height="2.11"/>
    <rect x="178.3" y="248.97" width="1.58" height=".52"/>
    <polygon points="254.01 333.17 253.75 334.23 252.95 333.18 254.01 333.17"/>
    <polygon points="121.65 339.52 120.59 339.52 121.39 338.47 121.65 339.52"/>
    <rect x="154.48" y="293.45" width=".52" height="1.58"/>
    <rect x="200.01" y="369.19" width="1.58" height=".52"/>
    <polygon points="209.01 371.3 207.95 371.04 209 370.24 209.01 371.3"/>
    <polygon points="155.53 151 155.27 152.05 154.48 151 155.53 151"/>
    <rect x="155.01" y="160" width="1.58" height=".52"/>
    <rect x="165.6" y="162.12" width="1.05" height=".52"/>
    <rect x="192.07" y="163.18" width="1.05" height=".52"/>
    <rect x="326.55" y="275.98" width="1.05" height=".52"/>
    <rect x="33.77" y="276.51" width="1.05" height=".52"/>
    <rect x="145.48" y="176.95" width=".52" height="1.05"/>
    <rect x="140.72" y="178.54" width=".52" height="1.05"/>
    <rect x="197.9" y="278.1" width=".52" height="1.05"/>
    <rect x="151.3" y="284.45" width="1.05" height=".52"/>
    <rect x="253.49" y="195.48" width=".52" height="1.05"/>
    <rect x="139.13" y="196.54" width="1.05" height=".52"/>
    <rect x="166.13" y="200.78" width=".52" height="1.05"/>
    <rect x="150.24" y="207.67" width="1.05" height=".52"/>
    <rect x="49.12" y="265.39" width="1.05" height=".52"/>
    <rect x="131.72" y="220.37" width=".52" height="1.05"/>
    <rect x="208.48" y="295.58" width="1.05" height=".52"/>
    <rect x="177.78" y="224.08" width=".52" height="1.05"/>
    <rect x="124.83" y="296.63" width="1.05" height=".52"/>
    <rect x="122.18" y="298.22" width="1.05" height=".52"/>
    <rect x="130.65" y="299.28" width="1.05" height=".52"/>
    <rect x="156.07" y="304.58" width=".52" height="1.05"/>
    <rect x="31.65" y="262.74" width=".52" height="1.05"/>
    <rect x="137.54" y="313.58" width=".52" height="1.05"/>
    <rect x="246.88" y="149.4" width=".76" height="8.23" transform="translate(-36.14 219.76) rotate(-44.99)"/>
    <polygon points="231.77 140.4 228.91 137.71 226.49 133.52 231.77 140.4"/>
    <path d="M241.83,147.81c-.61.56-2.97-2.02-3.18-2.64,1.61-.06,2.69,1.27,3.18,2.64Z"/>
    <path d="M223.83,126.64c.19-.17-.43-1.27.53-1.06l-.26,2.64-2.38-3.17c.29-.3,1.79,1.86,2.11,1.59Z"/>
    <path d="M243.42,153.64c-1.06.13-2.23-.98-2.11-2.11l2.11,2.11Z"/>
    <polygon points="233.9 144.64 233.37 142.52 234.94 143.85 233.9 144.64"/>
    <polygon points="227.01 130.87 227.27 129.82 228.06 131.4 227.01 130.87 226.75 131.93 225.43 129.81 227.01 130.87"/>
    <path d="M237.06,145.17c-.86-.38-1.75-1.16-1.58-2.12.86.38,1.75,1.16,1.58,2.12Z"/>
    <polygon points="241.83 149.93 240.78 149.93 240.78 148.88 241.83 149.93"/>
    <rect x="241.84" y="148.35" width="1.05" height=".52"/>
    <rect x="220.66" y="123.46" width=".52" height="1.05"/>
    <rect x="221.72" y="122.93" width=".52" height="1.05"/>
    <path d="M108.94,164.24h-1.06c-.15-1.11-.05-1.21,1.05-1.05v1.05s1.06-.53,1.06-.53c.47,2-1.21,2.47-1.05.53Z"/>
    <rect x="108.95" y="161.59" width=".52" height="1.05"/>
    <path d="M269.36,261.15c-.27.83-1.02,1.41-1.86,1.57-2.38.47-16.39.21-18.38-.66-.61-.27-1.31-.76-1.47-1.44l21.71.53Z"/>
    <rect x="252.43" y="268.57" width="1.05" height=".52"/>
    <path d="M295.31,122.39c-.66.35-1.85-.85-1.59-1.05.66-.35,1.85.85,1.59,1.05Z"/>
    <rect x="291.6" y="120.29" width="1.05" height=".52"/>
    <path d="M314.36,189.66c.04.91-2.41.61-2.93.54-.79-.11-1.63-.09-1.83-1.07l4.76.53Z"/>
    <polygon points="314.89 185.95 314.89 187 314.11 187 313.31 186.21 314.89 185.95"/>
    <polygon points="319.13 185.95 318.87 187 318.07 185.95 319.13 185.95"/>
    <rect x="283.66" y="179.6" width="1.05" height=".52"/>
    <rect x="101.01" y="108.11" width="1.05" height=".52"/>
    <polygon points="289.48 236.79 289.48 237.57 288.43 238.38 287.89 236.79 289.48 236.79"/>
    <polygon points="288.95 235.73 287.89 235.72 288.43 234.14 288.95 234.14 288.95 235.73"/>
    <circle cx="287.91" cy="243.66" r=".65"/>
    <path d="M288.95,240.5c-.4.78-1.08,1.17-.53,2.11h-1.06s.54-2.11.54-2.11h1.05Z"/>
    <path d="M269.89,244.2c.74-.73,1.21-2.26,2.11-2.64l-.26,1.58-1.85,1.06Z"/>
    <polygon points="255.6 228.85 254.81 229.89 253.48 229.37 253.48 228.85 255.6 228.85"/>
    <rect x="42.77" y="406.25" width=".52" height="1.58"/>
    <circle cx="22.66" cy="329.45" r=".65"/>
    <rect x="22.12" y="339" width=".52" height="1.05"/>
    <rect x="20" y="328.94" width="1.05" height=".52"/>
    <rect x="225.43" y="262.74" width=".52" height="1.05"/>
    <rect x="9.42" y="269.09" width=".52" height="1.05"/>
    <path d="M210.6,363.89l.53,1.05h-3.71c1.45-1.44.29-2.9.53-4.76h1.58c.25.25-.61,3.49,1.06,3.71v-1.05c1.11-.15,1.21-.05,1.05,1.05h-1.05Z"/>
    <polygon points="157.65 351.17 156.6 351.17 156.6 349.59 157.65 350.39 157.65 351.17"/>
    <g>
      <path d="M223.32,72.62c2.94-1.79,2.53,1.09,4.75,1.59l.04-2.85c-2.66-.88-3.35-2.22-.27-2.93l.23-2.69-1.59.37c.09,1.62-1.33,2.3-2.65,1.48-.89-6.42,10.63-4.59,5.83,2.13,5.42,4.24-3.9,10.41-6.09,3.97-1.6,3.35-6.34,4.76-7.69.53h-1.04c-1.14,4.36-8.19,3-7.42-1.59,1.95-.26,2.91.03,3.7,1.86.88.7,1.59-1.91.83-2.96-.22-.31-3.42-.71-1.8-2.55.16-.18,2.65.06,2.04-2.7h-1.58s0,2.12,0,2.12c-2.76,1.32-3.95-2.49-2.95-3.72.78-.95,5.68-.71,6.53.13,1.65,1.66-.54,5.66.91,7.3.7.79,1.77.33,2.57.62.97.35.63,2.08,2.46,1.49v-3.18s-2.12,0-2.12,0l-.03-1.82,1.92-.78c.77-.95-.05-3.07-.83-2.44-4.05,5.71-5.08-2.87,1.14-2.1,4.64.58,1.61,4.54,1.69,5.81.03.58,1.62,1.83,1.42,2.92Z"/>
      <path d="M148.13,68.92c1.96.42.52-2.38,1.98-3.18,1.79-.98,4.26-.59,5.86.62.39.7.07,2.33-.69,2.55-1.76.51-1.7-1.48-1.86-1.58-1.14-.73-1.96,1.78-1.57,2.64,5.83-2.89,6.83,7.75,1.31,7.98-4.81.2-3.75-4.8-4.22-4.81-.75,3-.96,5.22-4.72,4.76-4.76-.58-4.25-11.63-1-12.58,2.77-.81,5.22.61,4.92,3.6ZM145.47,75.79c.91-1.07.14-8.48-.79-8.46-1.46.8-1.2,9.96.79,8.46ZM152.63,71.56c-1.22.24-1.26,4.58.51,4.23,1.22-.24,1.26-4.58-.51-4.23Z"/>
      <path d="M177.34,12.1c-.22-.14.11-.97-.36-.91-1.52,1.87-4.19.79-6.33,1.1l-.3-1.63c-1.05,1.84-3.98,2.93-5.69,1.46-.88-.76-.93-5.66-.4-6.76.93-1.91,5.07-1.54,5.85,1.04.37,1.22-.23,3.24.76,3.73l2.12-3.7-2.13-.26-.52-1.86h5.82s-2.12,5.82-2.12,5.82l2.41.39c1.78-.29-.27-4.88.27-6.19l2.62-.55.48,7.64c-.21.92-1.8,1.11-2.49.68ZM166.66,10.66c1.61-.7,1.45-3.69.26-4.76-1.27,1.47-.49,3.09-.26,4.76Z"/>
      <path d="M203.72,64.68c.56.58-2.53,6.48-2.95,7.91-.33,1.14.06,3.49-.72,4.04-.59.42-2.66.8-2.7-.56-.08-2.96,1.31-6.19,2.67-8.73l-4.75-.53-3.25,10.01-2.6.05,2.65-9.53h-4.24s0-2.65,0-2.65h15.89Z"/>
      <path d="M155.54,17.01v2.65c2.11-1.17,3.69-.3,3.71,2.12,2.83-4.28,7.86-3.79,6.88,2.12l-3.71.27c.45,2.51,2.17-.44,3.71.26.29,2.89-2.2,3.84-4.64,2.82-1.64-.69-.31-3.18-2.23-2.83.36,3.98-2.89,3.2-5.83,3.18l-.53-10.6h2.65ZM163.47,22.31l-.26-1.59-.79.79,1.04.79ZM156.07,25.49c1.53-.63,1.49-3.29.26-4.22l-.26,4.22Z"/>
      <path d="M211.13,22.84h-3.4s-.31,1.58-.31,1.58c2.66-1.35,5.27-1.34,7.94,0,.28-1.93-2.65-1.06-3.45-2.64-2.17-4.27,5.87-5.51,5.57-1.07l-3.17-1.06c-.17,1.89,2.52,1.14,3.08,3.02.72,2.37-1.53,4.2-3.75,3.78-1.43-.27-2.21-2.36-2.5-2.03-.13.15-.09,1.01-.84,1.54-5.4,3.77-7.81-7.73-2.06-7.93,3.28-.11,3.03,2.2,2.9,4.81ZM208.47,21.25l-.26-1.59-.79.79,1.04.79Z"/>
      <path d="M200.54,49.85l-2.12,1.06v1.58s2.13.27,2.13.27c.57,1.58-3.18-.27-2.12,2.37l2.65.54v-1.59c1.05-.57,1.55,2.16,2.65,1.06,1.63-1.64-4.33-2.13-2.42-4.8,1.17-.97,3.63-.79,3.48,1.09l-1.85-1.05-.79,1.31,3.17,1.86.54-5.83c2.15-.48.14,1.74.53,2.12l8.47-.52-2.12,1.06v1.58s2.13.27,2.13.27l-2.13.79v2.11s2.65,0,2.65,0v-5.83c1.45-.17,1.95,1.52,2.12,2.64l1.31-2.64c1.41.59.6,5,.79,6.35-2.42.56-1.61-1.89-3.17-2.65l-.06,2.59-4.74.35-.5-5.6h-1.58s0,5.83,0,5.83c-.65.86-.96,0-1.06-.78-.12-.94.18-4.87,0-5.04h-1.58s-.54,5.83-.54,5.83c-1.63-1.71-1.69-.13-2.95,0-1.7.17-4.19-.36-6.04,0l-.27-5.3h-1.85c-.21.2.55,7.4-1.06,5.3-.23-1.5.32-3.58,0-4.95-.13-.56-1.62-.01-1.07-1.4h7.41Z"/>
      <path d="M167.59,76.73c-1.95,1.95-7.57.43-7.19-3.18.11-1.07,1.3-2.37,1.3-2.78,0-.37-.9-1.16-.9-2.63,0-4.69,7.8-3.6,7.45.47-.08.91-.91,1.63-.97,2.24-.07.73,2.27,3.91.31,5.87ZM165.06,67.32h-1.58c-.08,1.06-.13,2,.8,2.65h.78s0-2.65,0-2.65ZM163.52,72.06l-.17,3.67,2.21.1.17-3.67-2.21-.1Z"/>
      <path d="M174.51,77.85c-2.92-.31-5.02-.12-5.61-3.5-.5-2.85-.81-8.92,2.91-9.59,5.87-1.06,5.23,10.22,2.7,13.09ZM173,67.33c-2.04-1.54-2.2,7.64-.78,7.94,2.17.46,1.32-6.67.78-7.94Z"/>
      <path d="M166.65,19.13l4.74.04.55,1.55c1.85-4.34,6.89-1.65,5.83,2.65-1.76-.5-5.54.65-2.64,1.86.47-1.52,1.12-1.49,2.64-1.33-.37,6.12-7.64,3.23-6.35-2.37-3.48-1.74-1.56,5-2.12,5.55h-2.65v-7.95ZM175.26,21.24c0-.36-.29-.65-.65-.65s-.65.29-.65.65.29.65.65.65.65-.29.65-.65Z"/>
      <path d="M227.01,3.24v7.94h-2.12c-.49-.46.99-5.77-1.05-6.35l-.54,6.36h-2.11s-.27-5.83-.27-5.83c-1.23-.35-.76,1.14-.79,1.85-.06,1.32.04,2.66,0,3.98h-2.65V3.24h9.53Z"/>
      <path d="M147.06,11.72c-.02.35.03.71,0,1.06-.89.03-1.8.14-2.65-.26-1.26-.6-1.01-2.54-2.11-2.91v3.18s-2.66,0-2.66,0c1.08-3.25-3.13-11.17,2.12-10.6l.79,2.12c1.08-1.78,1.7-2.49,3.97-2.11.1,1.67-2.08,2.94-2.08,4.5,0,.8,1.88,4.44,2.61,5.03.11-2.32-.88-6.96,2.41-7.43,6.72-.95,4.42,12.99-2.41,7.43ZM149.72,11.19c1.61-.7,1.45-3.69.26-4.76-1.28,1.42-.25,3.13-.26,4.76Z"/>
      <path d="M186.77,64.67c.31.3-.3,5.89-.01,7.05.18.73,1.89.37,1.61,2.23-1.59.38-1.07,1.5-1.07,2.91h-2.65s0-2.13,0-2.13h-4.24c-.87-.88,2.67-12.05,6.36-10.06ZM183.53,69.73l-.62,2.85,1.41.31.62-2.85-1.41-.31Z"/>
      <path d="M153.95,4.3h9.22c1.67,2.01-1.32,2.26-1.71,3.54-.33,1.08.11,4.73-.1,4.94l-2.57-.87-.08-5.49-2.15.85.04,5.51h-2.65V4.3Z"/>
      <path d="M179.1,50.38l1.59,3.18c.86-.03-.75-3.84,1.32-3.18v6.35c-1.81.5-1.81-3.2-2.38-3.18-.88.88.75,3.64-1.32,3.18-.17-1.59.23-3.51,0-5.04-.11-.77.31-.86-.8-.79-1.63.1-2.82.36-2.38,2.13l2.12,1.06h-2.12s0,1.59,0,1.59c.38.39,3.23-.9,2.65,1.06h-3.4s-.31-5.82-.31-5.82l-1.6.89.02,4.94c-1.61,2.11-.85-5.09-1.05-5.3h-3.93s-.32,1.59-.32,1.59l2.13,1.06h-2.12s0,2.12,0,2.12l2.65.53h-3.71s0-6.35,0-6.35h12.97Z"/>
      <path d="M206.36,1.13v10.59l-5.3-.26c-1.9-1.12-1.92-10.42,2.65-7.69V1.12s2.65,0,2.65,0ZM202.65,5.36v4.24s1.06,0,1.06,0v-4.24s-1.06,0-1.06,0Z"/>
      <path d="M191.54,15.95v10.59l-4.76.3c-1.8-.94-2.3-7-.54-7.99s2.59,1.18,3.15-2.68l2.16-.23ZM188.88,20.72c-1.39-1.35-1.53,3.73-.25,4.23,1.09-1.29.76-2.78.25-4.23Z"/>
      <path d="M193.13,5.89c1.07-2.24,2.34-1.84,2.57-2.19.63-.96-.95-3.77,2.72-3.1l-1.09,2.88c2.25.98,2.38,2.16,2.15,4.53h-3.44c-.73.08-.18,2.12.78,2.11,1.73-4.12,4.76,1.22.28,1.64-4.15.39-3.92-2.82-3.98-5.87-.84,1.75-1.04,3.45-1.53,5.52l-3.19.25c-.47-1.97-.71-4.19-1.64-5.77-.04,3.02.4,6.89-3.92,6.34-3.08-.39-2.77-3.55-2.46-6.1.39-3.31,4.69-3.13,6.38-.23.01-.71-.02-1.42,0-2.12h2.35s1.1,3.18,1.1,3.18l.26-3.18h2.65c.02.7-.02,1.41,0,2.12ZM196.97,5.88c0-.36-.29-.65-.65-.65s-.65.29-.65.65.29.65.65.65.65-.29.65-.65ZM184.12,5.9c-2.45.07-1.51,2.66-1.05,4.23,1.49,1.44,1.04-3.82,1.05-4.23Z"/>
      <path d="M184.65,27.08l-2.57-.87-.08-5.48c-.65-.86-.96.01-1.06.78-.13,1.01.2,5.38,0,5.57l-2.41-.5.27-7.76c7.56-1.15,5.73,2.32,5.85,8.26Z"/>
      <path d="M212.59,3.9c.81.81.65,3,.66,4.11h-3.4s-.31,1.58-.31,1.58c1.42.51.84-.95,1.4-1.06.71-.14,1.55.07,2.3,0-1.36,6.43-8.5,2.48-5.95-3.57.83-1.98,3.95-2.41,5.29-1.07ZM210.59,6.42l-.26-1.58-.79.8v.78s1.05,0,1.05,0Z"/>
      <path d="M198.42,22.84c-3.32-1.28-4.63,2.49-2.67,1.85.69-.23,1.41-1.26,2.67-.79,1.81,1.77-5.83,5.68-6.22-.93-.36-6.17,7.2-6.42,6.22-.13ZM196.3,21.25l-.79-1.04-.79.79,1.59.26Z"/>
      <path d="M202.13,24.42h2.65s0,2.12,0,2.12h-5.83c-.48-2.32,1.33-3.84,2.12-5.82-1.54.03-2.42-.41-2.12-2.12l4.55-.51,1.24.83c.55,1.77-2.11,3.81-2.61,5.49Z"/>
      <path d="M151.82,55.14c.1-1.81.19-4.67,2.65-4.24l1.06,6.35c-1.72.47-.78-1.26-1.1-1.52-.86-.68-2.75-.04-2.07,1.53h-5.29s0-6.36,0-6.36l3.22.23c1.07.76-.23,3.56,1.55,4.01ZM149.71,51.97c-1.91-1.7-2.21,3.46-.26,1.06.28-.34.4-.94.26-1.06ZM154.08,54.07c0-.36-.29-.65-.65-.65s-.65.29-.65.65.29.65.65.65.65-.29.65-.65ZM149.71,54.61h-1.59s0,1.59,0,1.59h1.59s0-1.59,0-1.59Z"/>
      <polygon points="216.42 .6 216.42 11.19 213.77 11.19 213.77 1.39 214.64 .67 216.42 .6"/>
      <path d="M230.72,11.19h-2.65V3.51c0-1,2.65-1,2.65,0v7.68Z"/>
      <path d="M228.6,47.2c.33.94-.87,1.31-.88,1.84,0,.37,2.93,5.56.02,6.58-5.66,1.97-2.08-11.01.85-8.41ZM227.54,54.62c-.15-1.56.61-3.6-.79-4.76-1.4,1.16-.64,3.2-.79,4.76h1.58Z"/>
      <path d="M141.77,50.9l1.32,2.66.27-2.66h1.58s0,6.36,0,6.36c-1.79.59-1.12-2.36-1.85-2.65l-1.33.32-1.05,2.33c.15-1.78-.22-3.84,0-5.57.09-.73.38-1.65,1.06-.79Z"/>
      <path d="M220.12,55.68v-6.36c5.87-1.32,5.82,7.7,0,6.36ZM222.76,50.38h-1.57s0,4.24,0,4.24h1.57v-4.24Z"/>
      <path d="M187.83,48.26l-1.06,1.57,1.59,1.06-2.65,1.32,2.12,1.32c-1.57-.02-2.41.44-2.12,2.12.39.39,3.22-.9,2.64,1.06-5.74,1.49-4.73-7.3-.53-8.47Z"/>
      <path d="M192.56,50.42l.03,5.78-2.37-2.65c-.8-.02.65,3.34-1.33,2.65v-6.35s3.67.57,3.67.57ZM189.95,53.02c2.08,0,2.11-2.1,0-2.11v2.11Z"/>
      <path d="M161.36,51.43l-2.65,1.32,2.65,1.07-2.64,1.06,2.64,2.37-3.21-.23c-1.28-2.94-.92-9.41,3.21-5.6Z"/>
      <path d="M165.06,52.5c-.18.24-1.59-1.63-2.11-1.06-1.27,1.39,1.74,2,2.13,2.36,2.46,2.36-3.35,5.85-3.18,1.34,1.41-.58.9,1.08,1.32,1.07,2.5-.07.84-2.43-1.08-2.64v-2.7c1.5-1.21,3.33-.43,2.93,1.62Z"/>
      <rect x="142.83" y="53.55" width="6.36" height="1.06" transform="translate(91.88 200.07) rotate(-89.98)"/>
      <path d="M168.77,1.13c.24,1.68-.99,2.89-2.64,2.64l.61-2.56,2.03-.08Z"/>
      <path d="M230.71,2.18h-2.64c-.34-2.91,2.98-2.91,2.64,0Z"/>
      <path d="M179.36,3.24h-2.64c-.34-2.91,2.98-2.91,2.64,0Z"/>
      <path d="M185.18,1.13l-.61,2.03-2.03.08c-.32-2.01.91-2.3,2.64-2.11Z"/>
      <path d="M210.06,15.43v.78c-3.12,3.6-4.24-1.21,0-.78Z"/>
      <rect x="195.51" y="75.54" width=".53" height="4.23" transform="translate(118.04 273.39) rotate(-89.97)"/>
      <rect x="128.54" y="69.67" width=".52" height="2.64"/>
      <rect x="135.42" y="66.8" width="2.64" height=".52"/>
      <circle cx="176.19" cy="49.31" r=".65"/>
      <circle cx="230.2" cy="51.43" r=".65"/>
      <circle cx="230.2" cy="55.13" r=".65"/>
      <path d="M143.62,95.92c-.26,0-.93.96-1.32-.52l2.09-.86-.5-2.32c5.66-1.14,9.9,3.36,15.37,1.87,1.27-1.11-.32-2.23-.29-3.51.08-3.38,2.7-3.52,2.39.05l2.64-.53-1.53,1.11.26,2.1-2.96,1.3,2.11,1.32c-6.07-.15-12.19.2-18.27,0Z"/>
      <path d="M215.36,58.85l-1.14,1.21-30.09,1.43c.84-1.27,4.51-1.47,6.09-1.58,8.33-.57,16.84-.33,25.14-1.06Z"/>
      <path d="M219.6,94.33c-4.76.14-10.37,1.14-15.1.54-.96-.12-.86.18-.79-1.06l6.51-1.08c.49-.12.17-1.09,1.13-1.09,1.66,0,7.07,1.35,8.24,2.69Z"/>
      <path d="M179.89,89.03c-.69.64-1.48-.25-1.95-.95-.91-1.37-2-1.87-2.28-3.28,1.63-.86,4.68,3.81,4.23,4.23Z"/>
      <path d="M197.36,83.21v-1.58c1.94,0,1.94,1.57,0,1.58Z"/>
      <polygon points="131.71 78.44 130.65 78.44 130.66 76.86 131.71 77.66 131.71 78.44"/>
      <rect x="158.19" y="61.5" width="2.11" height=".52"/>
      <polygon points="230.72 78.98 229.66 80.03 229.66 78.98 230.72 78.98"/>
      <path d="M145.47,75.79c-1.99,1.5-2.25-7.66-.79-8.46.93-.02,1.7,7.39.79,8.46Z"/>
      <path d="M152.63,71.56c1.77-.35,1.73,3.99.51,4.23-1.77.35-1.73-3.99-.51-4.23Z"/>
      <rect x="162.7" y="72.84" width="3.67" height="2.21" transform="translate(82.89 234.8) rotate(-87.29)"/>
      <path d="M165.06,67.32v2.65s-.78,0-.78,0c-.93-.64-.88-1.59-.8-2.64h1.58Z"/>
      <path d="M173,67.33c.54,1.27,1.38,8.39-.78,7.94-1.42-.3-1.26-9.48.78-7.94Z"/>
      <rect x="182.47" y="70.59" width="2.92" height="1.45" transform="translate(75.29 235.96) rotate(-77.77)"/>
      <rect x="148.12" y="54.61" width="1.59" height="1.59" transform="translate(-.2 .53) rotate(-.2)"/>
      <path d="M149.71,51.97c.14.12.02.72-.26,1.06-1.95,2.4-1.65-2.76.26-1.06Z"/>
      <circle cx="153.43" cy="54.07" r=".65"/>
      <path d="M227.54,54.62h-1.58c.15-1.56-.61-3.6.79-4.76,1.4,1.16.64,3.2.79,4.76Z"/>
      <polygon points="222.76 50.38 222.76 54.61 221.19 54.62 221.19 50.37 222.76 50.38"/>
      <path d="M189.95,53.02v-2.11c2.11.01,2.08,2.11,0,2.11Z"/>
    </g>
  </g>
</svg>