<?xml version="1.0" encoding="UTF-8"?>
<svg id="Layer_1" data-name="Layer 1" xmlns="http://www.w3.org/2000/svg" viewBox="0 0 333.5 516.09">
  <g id="_8H178F" data-name="8H178F">
    <g>
      <path d="M250,196.53s-.39.18-.5-.5c.66.29.47.48.5.5Z"/>
      <path d="M333,174.28c.64-2.1.42-5.05,0-7.5-.31-1.79.02-4.68-.5-7-.4-1.8.25-3.68-.5-6-.41-1.27-.07-2.42-.5-4-.04-.15-1.36-1.73-1.5-2.5-.25-1.38.5-2.36.5-2.5,0-.1-.77-.49-.5-1.25l1-.75c-.53-.52-.67-1.08-1.25-.25l-.75-.75.5-2.75h1l-1-4h-1c.62-1.43-1.33-2.14-1.5-2.75-.23-.82.16-2.3,0-3.25l1,.5-1-3.25-1,.25,1-1c.4-.52-.92-1.86-1-2.25-.13-.59.15-1.46,0-2-.08-.27-.92-.73-1-1-.38-1.38-.54-2.56-1-4-1.09-3.42-2.45-6.43-3.5-10-.09-.29-1-.86-1.25-1.25l-3,3c-1.12-.88-1.47-1.54-1.25-3-1.09.31-3.19-2.31-2.5-3h1v-2.25l-2.5-1.25v-1.5l3.5-.5c.17-1.03-.29-2.96-1.25-3.5-.24-.13-.66.09-.75,0-.06-.06.14-.99-.5-1.25l.5-1.75h-1c-.73-1.77-2.31-5.54-4-6-.04-3.88-4.52-6.84-5.5-10.25-.22-.78-2.33-1.66-3-4-.16-.54-1.86-1.17-1.5-2.25l-.5,1.5h-1v-1c-1.55.1-1.64-1.13-1.5-2.5h1l-1.75-2,.25,2c-2.1-.46-2.85,1.24-4.25,2.5-1.51-.93-.07-1.61-.25-2.25-.31-.8-1.44-.69-1.5-.75-.09-.09.13-.51,0-.75-.32-.57-1.34-1.57-1.75-2.25l-1.75.5v-.75l-1,.25.25-1.5c.05-.74-.75-2.6-.75-2.75,0-.1.88-.85.5-1.75l2.75-.5,3.25,3.5c.19-.92-.5-1.19-1-1.75-.85-.97-1.88-1.8-2.75-2.75l-2,.5-1.5-1-2.75.5.5,1.25-1,.25v-2h-1c-.27-.81.45-1.03.5-1.25.24-1.06-.41-2.87-1.5-3.25l.5,3-2-.5.5-2c-.55-.08-1.29.13-1.75,0-.62-.17-3.1-3.43-4-4-1.1.31-2.44.74-2.25,2-1.12-.64-3.55,1.95-3,2.5h1l-1,4c1.94.4,1.17-.54,2.25-1.5l1,.5c.91-1.21,1.79.14,3,0l3.25,2.75.5,4.25c.09.09.52-.13.75,0,1.01.58.57,1.35.75,1.75.76,1.69,2.27,2.96,4.25,2.75.55.6,2.33,2.92,1.75,3.5h-1v1.5h-1.25l-1.5-1-2.25.5c.09-.46-.29-1.31.25-1.5.59-.21,1.12-.54,1.75-.5.27-1.17-.46-2.38-1.75-2-.15.05-2.21,2.1-2.25,2.25-.27.94.36,1.42,1,2l-1,5.25c-1.15.23-1.86-.39-2.5-1.25-.08-.11.08-.4,0-.5-1.08-1.36-1.95-1.45-1.5-3.75l2,.5v-1.5c-1.38.41-1.55-.62-2.25-1-1.41-.77-3.04-1.01-4-2.5h-.5c-.93.98-2.8.34-4,0-.28-.08-.73-.92-1-1-1.04-.29-2.43.03-3.25-1.25-.99-1.55-1.93-1.97-2.5-3-.14-.24-2.1-2.2-2.25-2.25-.59-.18-.88.42-1.25.75l2,2.5-1,2c1.91,2.31-1.98.67-2,0l.5-1.25c-.96-.35-1.34.89-1.75,1-1.2.32-1.82-.47-2-.5-1.16-.17-3.88.48-4.25-.75-.13-.45.11-1.49-.75-1.75-.71-.21-1.47,1.11-2,1.5l-2.25-.5v-1.75c-1.07-1.55-2.69-.97-4.25-1.25-.14-.03-.51-.79-1.5-.5-.93.27-1.53,2.04-1.25,3l-2.5,1v-3.5l2-.75c-.85-1.22-2.27-.64-3.5-.75.39-2.83-1.12-2.62-3.5-2.5v1.5l-1.25-.5-1.5,1.5c-.92.27-2.12.3-3,.5-.18.04-.52.8-1.5.5-.21-.06-.32-.47-.5-.5-2.31-.41-4.76.98-7.25.5.14.95-.55,1.64-1.5,1.5v-1l-1.25.5c-.56-.89-1.64-.32-2.5-.5-1.88-.39-2.94-2.63-5.5-.5l-2-.5-1.75,1.75c-.1.75-.29,1.8-.5,2.5-.13.44-1.37.73-1,2,.08.28.92.73,1,1,.14.53-.1,1.39,0,2l-2.25,2.25-1-.5-2,1-1.25-.5v-1c-.91-.04-1.84.06-2.75,0-.18-.01-.46-1.03-1.25.25-.11.18-.5,1.24-.5,1.5.01.78.48.86.5,1,.48,2.64-.99,2.47-2,4-.07.1-.98,1.89-1,2-.2.91.14,2.25,0,3.25,1.36.22,2.36-.25,3.5-.5-.14,1.62-.11,2.53,1.25,3.5l.25-1.5,2-.5c-.43,1.89,1.93,2.11,1.5,4,1.5-.14,2.45,1.18,3.75,2,.68.43,1.24,1.77,1.25,2.5-1.27-.7-2.01-2.58-3.5-.75.76.82,1.23,1.51,2.5,1.25v2l-1-.25.5-.5-1.5-.75c.01,1.64-2.64,2.2-1,3.75l-2.5,2.5c.82.67,1.19,1.14,1,2.25h-1.5l-.5,2.25-1.5.75.5,1.25-1,2c1.17,1.06,2.87,1.35,2.5,3.25h1.25l2-1.5,3.25.5c.4.39-1.69,3.88-2.5,4.25.63,1.4-2.81,2.98-2.5,4,.17.55,1.15.93,1.75.75.26-.08.66-.81,1-1,.27-.15,1.29-.36,1.5-.5.46-.3,1.2-1.42,1.5-1.5.76-.21,2.11.15,3,0l.25-1c1.1-.27,1.29.36,1,1.25-.42,1.28-2.86.5-3.75.75-.12.03-1.55,1.47-1.75,1.75-.71,1.01-1.04,1.17-1.5,2-.41.73-2.23,1.66-2,2.5l1.5.75c.25.2-.44.55-.5.75-.42,1.32.04,2.66-.5,4-.35.86-1.35,1.56-1,2.75-2.1-.21-.9,2.71-3,2.5-.09,1.98.59,3.79-1.25,5-.57-1.11-1.46-.78-2-1-.32-.13-.43-.76-1.25-.5v-1c-1.04.18-1.5-.86-2.25-1.5l-4.75.5v-1h-2v1c-2.97-.49-4.39.92-6.25,3-.89-.88-1.38-1.79-2.75-1.5.24,1.08-.97,1.48-1.5,2.25-.26.38-.74,1.59-1,2-.63.99-1.16.56-1.75.75-.21.07-.32.47-.5.5-.67.12-1.53-.08-2.25,0,.16-1.23-1.33-1.82-2-2.75-.45-.62-1.84-3.59-2-3.75-.09-.09-.51.13-.75,0-.49-.27-.98-1.16-1.5-1.5-1.14-.74-3.34-1.96-4.5-2.5-.72-.34-.81-.3-1.5-.5-1.24-.36-.28-2.61-1.25-3.25-.27-.9,1.96-1.98,2.75-1.75.25.07,2.38,2.17,3,2.5,1.45-.43,2.72,1.01,3.5,0l2.25,1.5,1.25-2.5h3.5c1.1-.76,1.13-2.78,0-3.5-.13-.08-.4.07-.5,0-.37-.26-2.7-2.56-2.75-2.75-.14-.49.25-1.09-.5-1.5l1.5-2.5-.5-1.25-4.5-1c-.27.76.5,1.15.5,1.25s-.77.49-.5,1.25h-1.75l-3.5-3.5h-2.75l-.5,3h-1.5c-.34,1.06.78,1.79.5,2.75-.13.47-1.63,1.19-1,2.75-1.8.77-2.61-1.33-3.25-1.5-.59-.16-1.57.11-2.25,0v-1l-3,1-.5-3.5h1v-1h1.5c.11-1.5-1.68-2.28-1.5-3.75l1-1.5-.5-1.5,1-1c-.33-.68-.99-.61-1.25-.75-.6-.33-2.02-1.37-2.5-1.5-.76-.21-2.18-.2-3-.5-.63-.23-1.42-1.22-2.25-1-.15-.88.77-1.29.5-2.25-.13-.44-1.52-.97-1-2.25h.75l.25-1,1,.25v.75h1.25l.75-1.5h1l-1-1.5,4.25-1,1.25-1.5h-1v-1.75l2.75-1.75,1.5.5c.89-.88,1.38-1.79,2.75-1.5v1l1.75.5c.2-.06.31-.46.5-.5.6-.13,3.9-.13,4.5,0,.18.04.28.4.5.5.16.07.39-.06.5,0,.39.23,1.93,1.81,2.25,2.25.15.21.84,1.22,1,1.5.13.24-.09.65,0,.75.05.05.99-.14,1.25.5.79-1,2.34-1.72,2.25-3,.88-.09,1.9.13,2.75,0,.18-.03.3-.45.5-.5.61-.14,1.95.25,2.25-.75.08-.26.18-1.25-.25-1.25l-2.25-.5.5-1.5h2.75c1.74-1.27-.28-1.51-.25-3h3v-1l1.5-.75c-.73-1.18-1.77-.57-2.75-.75-.15-.03-.52-.8-1.5-.5-.21.06-.32.47-.5.5-1.25.22-2.93-.16-4.25,0,.51-.89-1-2.51-1-2.75,0-.16.44-.29.5-.5.21-.75-.83-2.77-1-3.5-.31-1.32.31-1.95,1.25-2.75l.5.5,2.75-1.25c-1.62-1.77-.83-4.24-1-6.5-.01-.18-.49-.32-.5-.5-.12-1.56.09-3.19,0-4.75-.91-.38-1.48.43-1.75.5-.44.11-1.08-.12-1.5,0-.43.12-.98,1.53-2.25,1v-1c-2.02-.44-2.69,1.22-4.25,2-1.85-.18-2.58-2.53-4.5-2-.39.11-1.42,1.66-2,2-.1.06-.94.49-1,.5-.53.12-2.96.12-3.5,0-.28-.06-1.74-.76-2.5-1-1.28-.41-4.79-1.77-6-1.5-.18.04-1.33.96-1.5,1-1.26.27-2.34-.19-3.5,0-.68.11-1.53-.08-2.25,0l1-1.25c.12-2.26-1.67-1.98-3.25-1.25l-1-1h-1l-2.25,1.25.5,1c-.6.44-1.18,1.41-1.75,1.75-.57.34-1.44.34-2,.5-.71.2-1.14.75-2.5.5-.19-.03-.3-.45-.5-.5-1.8-.42-2.56,1.36-4,2h-1c-.25-.56-.85-.41-1-.5-.58-.34-1.61-1.89-2-2-.8-.22-1.94.42-2.5-.5l-1.5,1c-.55-.74-1.45-.74-2,0l-.75-.75.5-.5c-.42-.53-1.57-2.56-2.25-2.75-1.22-.33-2.38.86-3.75.5.16-1.12-1.07-1.67-1.75-2.5l-1,.5-1.75-.5-.25,1-1-.5-4,2.5h-1l-2-1.5-4.25-.5,2.5,1c.28,1.77-.34,2.94-2.25,2.5-.2-.05-.34-.68-1-.5-.2.06-.31.46-.5.5-1.69.34-4.12.2-4.25,2.5-1.54.25-2.69-.84-4.25-.5-.87.19-2.27,2.03-3.5.5h-.5c-1.49.88-.97,1.73-1.25,2.75-.07.24-2.37,2.68-2.75,3.25-1.23-.42-3.11,1.39-3.5,1.5-1.26.35-2.26-.47-3.5-.5-.43,0-.33-.99-.25-1.25.19-.65,1.82-.86,2-1.5.8-2.79.77-1.2,2.75-1.75.93-.26,2.35-3.08,3-3.5,1.29-.82,2.65-.26,4-.5,2.14-.38,2.32-2.53,5.5-2,.19.03.33.5.5.5.16,0,.3-.45.5-.5.31-.08.7.09,1,0,.5-.14,2.06-2.32,2.75-2.75l.5-2.75c-.89-.08-1.89.11-2.75,0-1.59-.21-3.84-.2-5.5-.5-.14-.03-.51-.79-1.5-.5l-1.25,1.25.5,2.25c-1.68.62-2.54-1.35-3.75-1-.08.02-1.23,1.17-1.25,1.25-.91,3.18-2.22,3.84-4.75,5.75-1.14.86-1.54,1.89-3,3-1.58,1.19-.91,1.52-1.25,2.75-.09.34-2.91,3.16-3,3.5-.22.8.4,1.52-.75,2.25-.39.25-6.13,5.33-6.25,5.75-.34,1.24-.18,1.7-1,3-.21.33-2.8,2.07-3.25,2.25-.28.11-.69-.1-1,0-.34.11-.78.85-1.75.5-.26.26.26,4.31,0,5.25-.09.32-1.22,1.06-1.5,1.5l1.75,2.75c.4-.76,1.09-.34,1.5-.5,1.04-.4,2.9-2.23,3.75-3.25,1.68-2,2.37-3.73,4.75-5.25.93-.59.78-2.59,2-3,.57-.19,1.44.68,1.25,1.25l-2.5,1.5c2.89,2.37,1.02,2.29,0,4-.34.57-.34,1.44-.5,2-.17.6-2.1,1.29-1.5,2.75.35.37,2.31-1.25,2.75-1.5,1.24-.69.99-.94,2-1.5.48-.27.98-1.13,1.5-1.5l1,.5,1-.5,2.25,2.25c-1.25.79,0,1.88,0,2,0,.17-.47.31-.5.5-.15.91.16,2.1,0,3-.38,2.14-2.63,4.24-2.5,6.5l-2,1.5,1,1.5.5,2.5c-.88.89-1.79,1.38-1.5,2.75l-1.5.75c.04,2.17-1.76,3.42-2,5.25l-3,.5c.08,1.74-2.38,2.11-3.75,2.5-.37.1-.75,1.23-1.5,1-1.08-.32-.38-2.68-1.75-3.25l.5-1c-1.03-.49-.19-3.43-.5-3.75l-1.75-.5-3.25,1c.37.94-.88,1.32-1,1.75-.12.42.12,1.07,0,1.5-.06.2-2.58,2.2-2.75,2.25-.31.09-.69-.09-1,0-.85.24-.62,1.3-.75,1.75-.08.29-1,.86-1.25,1.25l-.5-.5.25,1.25c-1.05,1.1-1.09,2.62-1.5,4-.11.36-1.39,1.14-1.5,1.5-.1.35.12.65-.25,1.25-.42.68-1.07.51-1.75.5.46-1.48.43-3.07,1.5-4.25l-1-1.5c-.52-1.81,2.31-2.3,2.5-3-.11-1.45.14-2.74.5-4,.1-.36,1.4-1.15,1.5-1.5.15-.55-.15-1.45,0-2,.08-.27.92-.73,1-1,.36-1.32.24-2.36.5-3.5.14-.63-.09-1.55,0-2.25h3l.5-2.75,1.5-1.5-.5-2.25h1c-.14-1.92,2.09-1.12,3-2.75.13-.24-.09-.65,0-.75.06-.06,1.22.03,1.5-.75l-1.75-1.75h-1c-.4.62-1.45.69-2,1-1.47.84-1.58,1.45-3.5,2-.97.28-2.26,4.1-3.75,4.75-.64,2.77-1.59,5.1-2,7.75h-1c-.82,1.76-1,3.95-1.5,5.75-.08.27-.92.73-1,1-.45,1.62-.07,2-1,4-.84,1.8-.97,4.22-1.5,6.5-.41,1.75.06,5.37-2,5.25-.09,1.05.13,2.23,0,3.25-.02.18-.47.31-.5.5-.59,3.33-.79,6.75-1.5,10-.48,2.21-1.33,4.87-1.5,7-.23,2.84.46,6.43,0,8.5-.41,1.82.92,3.64-2.5,3.25v3.5l2,1.25v5.75l-1,.25c1.74,1.47.85,4.66,1,7,.47,7.5,1.76,15.01,3.5,22,.23.93.84,2.6,1,3.5.32,1.74-.58,3.04,2.25,2.75l1.5-1c.26.64,1.19.44,1.25.5.09.09-.13.51,0,.75.55,1,1.44,1.02,1,3-.95,4.29,1.81,7.92,2.5,12.5l2.5,2.5-.5,2.25,1.5.75.5,2.5,2,1.5c.05,2.69-.26,6.11,1.5,8l-.5,1c.83.72,1.47,1.71,1.5,2.75h1c.92,1.66,1.03,3.05,1.5,4.75.09.33,1.24,1.04,1.5,1.5.13.24-.09.66,0,.75.09.09.51-.13.75,0,.35.19.67.84,1,1,1.12.55.52-1.77,1.5-2l1,1c2.25-.63,2.56,1.29,4.25,1.5.68,2.09,2.22,3.88,4.5,4-.38.91.48,1.6.5,1.75.11.76-.18,1.86,0,2.5.06.22,2,2.08,2.25,2.75l.25-5.75c-.85-1.76-.34-3.42-1-5.5-.39-1.22-.65-2.24-1-3.5-.12-.45-1.63-1.21-1-2.75h3.5l-.5-3.5h.75l1.25-1.25c-1.32-1.02-1.94-2.46-2.5-4-.32-.87-1.8.36-2.5.25.27,1.45-.39,2.48-.5,3.75l-1.5,1.25c.15-.9,0-1.1-.5-1.75-.68-.88-2-2.2-2.5-3-.08-.13.06-.75-.5-1,.64-.26.44-1.19.5-1.25.09-.09.51.13.75,0,.41-.23.81-.94,1.25-1.25-1.25-.84-1.05-1.84-1-3.25-1.63.27-2.42-1.01-3-2.25-.98-2.11-3.38-5.4-2.5-7.5-1.11-1.17-1.28-3.44-1-5,.03-.15.85-.72.5-1.5,2.31-3.25,6.01-5.63,9-8.5.52-.98.69-1.43,1-2.5.16-.55,2.82-2.32,3.5-2.25l.5-3.5c1.5.36,1.79-.74,2.75-1.5.1-.08.39.08.5,0,.87-.65,1.48-1.35,1.25-2.5l-4.25-2c-.16,0-.3.45-.5.5-.54.15-2.17.6-2.5.5-.28-.08-.73-.92-1-1-.72-.2-1.63.02-2.5-.5-1.02-.61-1.29-2.1-2-2.5-1.54-.86-1.29-1.79-2.25-3.25-1.52-2.32-2.17-1.97-3-5-.3-1.07-2.94-2.79-3-3-.12-.43.12-1.08,0-1.5-.18-.66-1.73-1.57-2.5-1.25.09-.7-.14-1.62,0-2.25.05-.2.68-.34.5-1-.53-1.94-1.06-2.4,1-4l-.5-1c.95-2.02,1.44-5.08,1-7-.29-1.25.47-1.8.5-2,.42-2.86-.42-6.64,0-9.5.03-.18.46-.3.5-.5.1-.45-.11-1.09,0-1.5.05-.18.4-.29.5-.5.07-.16-.06-.39,0-.5.8-1.35,2.27-1.47,3.75-1.25,5.37.8,11.17,1.16,16.5,2,.69.11,1.53-.07,2.25,0v1.5h1.5v-1.5c.91-.38,1.6.48,1.75.5,2.3.34,5.13.2,7.5.5,37.07,4.7,76.57,7.76,115.5,5,14.54.03,29.9-1.96,44.5-3.5,8.48-.89,17.27-.96,26-1.5s17.52-1.54,26-2.5c1.03-.12,2.2.08,3.25,0,.07.72-.11,1.56,0,2.25.63,3.96,1.27,9.03,1.5,13,.09,1.56.31,6.88,0,8-.23.84-1.69.83-2.5.75l1-1.5h-3.5v1l-2.5.5c-.07-.55.12-1.26,0-1.75-.05-.22-.34-.93-.5-1.5-.19-.67-1.36-.21-2-2.5-.19-.67-1.34-.89-2-.75l-.5,1c.36-1.62-1.39-1.92-1-3.5h-2.75l-.75,1.5c1.33-.1,1.67.87,1.5,2h.75c.43,0,.33.99.25,1.25-.27.93-1.78.51-2.25,1.25-1.56.22-3.6.49-5,1-.29.11-.43.76-1.25.5-.22,1.08-.8,2.9-2,3.5-.12-.82.19-1.53.5-2.25.58-1.37,6.26-9.48,7.25-9.75.59-.16,1.57.11,2.25,0l-.5-2.5c1.08.03,2.22-1.36,3-2.25.49-.56,1.2-.83,1-1.75l-9.25,2.5-7.25,7.25.5,1.5-3,4.5c-.03,1.17-1.8,3.09-2,4-.13.58.11,1.39,0,2-.03.19-.48.32-.5.5-.15,1.25-.14,3.73,0,5,.02.18.47.31.5.5.17,1.12.09,2.34-.5,3.25h1.5l2.5,4.75v1c-.64.43-.63,1.47-.5,2.25.66.29.47.48.5.5,1.17,1.04,2.53,1.84,2.5,3.5,1.21.18,5.12-.55,5.5.75.54,1.83-2.95,1.78-2,4.25.7-.09,1.62.14,2.25,0,.31-.07.67-1.16,1.5,0l1-1,.5.5,1-.5.5.5c1.18-.8.66-2.17.75-3.5.8-.28,1.06.47,1.25.5,1.48.25,3.53-.26,5,0,.18.03.29.43.5.5.3.09.69-.09,1,0,.29.08.86,1,1.25,1.25-.59.74-.9,1.71-1.75,2.25-.22.14-1.29.36-1.5.5-.98.65-2,1.82-1.75,3-1.09-.18-1.93-.74-3.25-.5-.19.03-.31.47-.5.5-.8.15-2.45-.33-2.75.75-.15.53-.06,2.29,0,3,.05.6.01,1.54.75,1.75,2.08.6,1.85-2.28,1.75-3.5.7-.83.91.08,1,.75.11.82.23,1.24.5,2,.15.42.91.35,1.25.25,1.16-.34.66-2.98.75-4,1.56-.26.77.44,1,1.25l1.25,2.25c1.93-.14,3.88-1.22,1.75-2.75l1-3.25,2,.5c.09.1-.13.52,0,.75.71,1.24,1.84.5,2.75.75.48.13,1.32,2.32,2.25,2.75l-.5,1,.5,1.5c-.44.37-.8.91-1.25,1.25-1.56,1.18-3.13,1.45-5,2-.15.04-1.85,1.22-2.5,1.5-5.03,2.14-10.7,3.25-16,4.5-3.7.88-4.43,1.31-8.5.5-2.15-.43-5.66-.84-8-.5-.18.03-.3.46-.5.5-.45.1-1.09-.11-1.5,0-1.31.36-2.77,2.73-4,3-.7.16-1.73-.12-2.5,0-.19.03-.32.48-.5.5-3.32.34-7.12-.25-10.5,0-1.86-1.05-.89-2.46-1.25-3.75-.17-.61-2.46-3.02-2.5-4-.48-.27-2.06-1.69-2.25-1.75-.7-.21-1.77-.32-2.5-.5-.2-.05-.31-.47-.5-.5-.66-.12-3.97-.15-4.5,0-.27.08-.73.92-1,1-.72.2-1.63-.02-2.5.5-.61.36-1.41,1.3-1.25,2h-2.75c-.95-.51-.57-1.2-.75-1.75-.07-.2-.46-.31-.5-.5-.37-1.59.41-1.64,1-2.5.08-.11-.08-.39,0-.5.31-.45,1.2-.82,1-1.5-.28-.93-1.78-.51-2.25-1.25l-3.75-.5v-1h-4.25l-.75,1.5c-1.38-1.33-2.66-1.02-4.5-1l1,1.25c-.85.46-.31,1.33-.5,2-.03.12-1.63,1.71-1.75,1.75-.26.08-1.25.18-1.25-.25v-1l-1.5-.75c.18.76-.14.81-.5,1.25-1.25,1.55-1.5.04-2.25.25-.2.06-.31.46-.5.5-1.61.36-4.23-.26-6,0l-.75.75,1,.5-.75,1.25c-1.39.41-2.09-1.46-3-2-.11-.06-.34.07-.5,0-.22-.1-.32-.46-.5-.5-.44-.1-2.05-.1-2.5,0-.6.13-1.56,1.26-2,1.5-.24.13-.66-.09-.75,0-.27,1.3,1.22,2.03-.25,3l-.75-2-1.25-.5-2.25.5c-.25.97.6,1.17,1,1.75,1.19,1.73,1.43,2.09,3.25,3.25,1.04.66.37,1.79,1.5,1.5l6,4.5-.25-1.25c.52-.94,1.15-.58,1.75-.75.26-.08.66-.82,1-1,1.97-1.02,5.21-2.34,7.5-2,.18.03.8.82,2,.5.41-.11.79-1.35,1.75-1-.33,3.02,2.18,1.58,3.75,2,.42.11.99,1.53,2.25,1l-1.5,1v1.5h1.5c.27.82-.43.99-.5,1.25-.14.49,1,1.41-.25,1.75-.5.14-1.26.05-1.75-.25-.8-.49-1.69-1.55-2.75-1.25-.44.13-.8,1.37-1.75,1v1c-1.45.01-2.34,1.85-3.5,2.75l.5,2c-.34.54-.94,2.52-1,3-.13,1.02.09,2.2,0,3.25l.75-.5c.33.21.76.93,1,1,.96.26,2.92.2,4,.5.18.05.29.4.5.5.16.07.4-.06.5,0,1.47.94.45,2.26.25,3.5h1.25c.65.19.86,1.82,1.5,2,.89.25,1.89-.08,1.75,1.5,1.35-.06,2.23-1.35,3.75-1,.18.04.28.4.5.5.35.16.9.08,1.25.75l-.5.75c.95-.19,1.34.65,2,1.25-.65.97-1.48.78-2.5.75l-.5,3.5-3,1.5c-.34,1.93,2,2.83,3,4.25.07.1-.08.37,0,.5,1.25,1.96,2.23-.1,2.75-.25.92-.26,2.14-.29,3-.5.2-.05.31-.45.5-.5.29-.07,3.42.37,4,.5.19.04.3.45.5.5.98.23,2.57.24,3.5.5.12.03,1.72,1.63,1.75,1.75.14.53-.1,1.39,0,2-.67.87-2.09,1.49-2,2.75.95.27,1.19-.2,1.75-.5,1.55-.82,2.24-1.33,4.25-1-.14-.95.55-1.64,1.5-1.5l-.5-1.25.5-1.75,2-.5.5-1.75c-.88-.57-.34-1.61-.5-2.5-.03-.19-.47-.31-.5-.5-.13-.85.09-1.87,0-2.75h-1.25l-2-2.5-2.25-.5c-.24-1.3.52-1.37,1.25-.5.95-.51.57-1.2.75-1.75.65-2.02.93-3.94,1.5-6,.15-.56,1.9-1.21,1.5-2.25,2.33-.36,3.03.43,4,2.25v.5c-.7.85-.49,2.05-1.75,2.75-.24.13-.65-.09-.75,0-.05.05.14.99-.5,1.25l1.25,1.75c.94-.52.57-1.17.75-1.75.09-.28.92-.73,1-1,.12-.42-.11-1.06,0-1.5.07-.27.88-.84.5-1.75,1.73,1.07,2.45,3.32,4.25,1l2.75,1.75c.33,1.1-1.02,2.41-2,2.25.5,1.71-1.53,1.92-1.5,3.5h3.75l.75-1.5h1c.37-1.44,1.02-1.59,1.5-3.25.07-.26,2.02-2.09,2.25-2.75l4.25,2.25v2.75c1.29-.04,2.25,1.2,2,2.5h-1v3h-1l-.5,3.25,1.75,1.25.25-1,2,.5c-.12-1.26.8-1.68,2-1.5v1h2v-1h1c-.27-1.55.4-2.97,2-3,.23-.23-.21-4.33,0-5.25.04-.19.44-.3.5-.5v-.5c-1.32-.75-.76-1.62-1-2.5-.25-.89-3.53-5.13-4.5-6l-1.5-1c1.27-1.76,1.68.1,2.25.25.48.12,1.2-.08,1.75,0l-.5-1.75c1.05-1.46,2.44-1.71,4-.75v-2l2.5.5v-3.5h2.75c.94-.52.58-1.15.75-1.75.1-.36,1.4-1.15,1.5-1.5.16-.58-.26-1.97.75-2.25.54-.15,1.41.13,2,0s1.66-1.12,3-1.5c.44-.13.8-1.37,1.75-1-.25,1.3.71,2.54,2,2.5v4.25l-2.5,3,1,2c-1.14,1.03-.26,2.76.75,3.75l1.25-1.25c.25-.49.96.36,1,.5.29,1-.5,1.42-.5,1.5.01.12.92,1.71,1,2,.09.34-.05.85,0,1.25.9-.38,1.65.5,1.75.5.17,0,.31-.47.5-.5,1.82-.32,2.98.91,2,2.5-.17.28-.69.55-.75.75-.53,1.94,1.32,2.33,1.5,3,.33,1.19-.63,2.92.75,3.75,1.74.23,2.98-.79,4.75-.5v1.5c2.02.33,2.81,3.25,4.75,4.5l1-.5c.66.76,2.25.87,2.75,1.75.13.23-.09.66,0,.75.06.06.99-.14,1.25.5l3.5-2.5c1.06.73,3.08,1.31,4.5,1,.42-.09,2.08-1.41,2.5-1.5.78-.17,2.43.35,2.75-.75.09-.31-.09-.69,0-1,.57-1.99,5.56-3.92,5.5-6.75h1c-.07-.72.11-1.56,0-2.25-.45-2.8-1.21-6.22-1.5-9-.12-1.1.18-2.47,0-3.5-.03-.19-.44-.3-.5-.5-.16-.56-.16-1.43-.5-2-.53-.88-3.34-2.93-3.5-3.5-.16-.59.11-1.57,0-2.25l2.5.5.75-1.5,2.5.5c1.22-1.56,2.83-1.61,4.5-2,.19-.04.5-.79,1.5-.5.39.11.35.94,1,0l1.25.5c-.36.96.64,1.73.5,2.25-.05.2-.44.3-.5.5-.25.84.24,2.59,1.25,2.25l1.25-1.25-.5-1.5c1.3-1.47,2.1-2.54,3.75-3.75.72-.53,5.15-3.89,5.25-4.25.37-1.33.72-2.44,1-3.75h1c-.35-.97.38-1.4.5-1.75.57-1.64,1.08-3.3,1.5-5,.38-1.52.65-3.01.5-4.75h-1l-.5-4.25-2-3,.5-1.5,2-2.25c-1.53.03-2.83-.4-3.75,1l-3.75-3.75v-.75c-2.09.51-2.95-1.79-5-1.5-.24-1.33-1.19-2.58.25-3.5,1.12-.72,2.07-1.8,3.25-2v-1h2.75l3.25,4.25-1,2.5c.37.52,1.23,1.02,1.5,1.5.13.24-.09.65,0,.75.06.07,1.38.29,1.75.5,1.3-1,.84-1.91-.25-2.75l1-2-.5-1.75,1.5-.75-1-2.5.5-1.75c.27-.31,1,1.22,1.75,1,1.33-.4,1.05-2.04,1.25-2.75.08-.27.92-.73,1-1,.27-.97-.24-2.56,1-3.5l-.5-2.5ZM279.25,63.53c-.67-.5-.87-1.27-1.25-2,.53-.45,2.25,1.28,2.5,2h-1.25ZM195.01,71.9c.34,0,.62.28.62.62s-.28.62-.62.62-.62-.28-.62-.62.28-.62.62-.62ZM194,91.28l-.5-1.75h1c-.26,1.13,1.2,1.29,1,2.5l-1.5-.75ZM196,96.28c1.23-1.08-.96-2.34-.5-3.75l1.5,1.75.5,1.75-1.5.25ZM154.01,113.9c.34,0,.62.28.62.62s-.28.62-.62.62-.62-.28-.62-.62.28-.62.62-.62ZM145.5,119.03h1.25l.75.75-.75.75h-1.25v-1.5ZM153.75,69.53h1.25l-.75,1.5-1.25-.75.75-.75ZM152,74.53h-1.5v-2h1c-.15.85.1,1.31.5,2ZM149,71.28l-.5-1.75c2.28-.5,3.78,1.55,1,2,.2,1.22-.43,2.69-1.5,1.25l1-1.5ZM142,69.03l1.5-.5c.14.95-.55,1.64-1.5,1.5v-1ZM141.5,78.03h1l-1,1v-1ZM45.5,79.03h-1v-.5h1v.5ZM9,151.28c-.04.18-.4.28-.5.5-.29.64-.26,1.45-1.5,1.25.08-.72-.11-1.57,0-2.25.05-.33.97-.36,0-1l1-1c0-.16-.44-.29-.5-.5-.31-1.08.39-1.17.75-1.75.47-.75-.15-1.61.75-1.5-.27,1.83.37,4.58,0,6.25ZM29,188.28c.04-.81.42-1.43,1-.75-.13,1.25-.06,2,1,2.75l.5,2.25c-2.81.14-2.61-2.1-2.5-4.25ZM47,109.53l1-1-.5-1.5,2.5,1-3,1.5ZM69.25,104.03c.78.88,2.25.63,3.25,0,.2,1.87,0,1.17-.75,1.5-.22.09-.32.46-.5.5-1.42.31-2.39-.56-3.75-.5l1.25-1.5h.5ZM68.5,93.03v1.75c-.73.67-.18,1.74-1.75,1.25-1.65-.52-.71-3.97,1.75-3ZM63.01,103.9c.34,0,.62.28.62.62s-.28.62-.62.62-.62-.28-.62-.62.28-.62.62-.62ZM70.75,140.53c-.95-.06-1.94.31-2.5-.5h-.5c-.91,1.58-2.44,1.37-3.5,2-.83.49-2.05,1.9-3,2.5-.72.46-1.95.49-2.5,1.5l-1.5-1-1.75.5c-.2,1.39.21.93,1.25,1,1.89.13.07,1.18-.25,1.75-.13.24.09.65,0,.75-.05.05-.99-.14-1.25.5-.37-.21-1.69-.43-1.75-.5-.09-.09.11-.48,0-.75-.18-.43-.82-.77-.5-1.75h-2c-.14-1.87-.05-3.49,1.5-4.75l-.5-1c1.06-.8.77-2.16,1-3,.1-.35,1.44-1.26,1.75-1.75,2.46.57,1.65,3.02,1.75,5,.41.45,2.41-1.43,2.5-1.75s-.11-.73,0-1c.13-.32.76-.43.5-1.25.56.07,1.24-.1,1.75,0,1.31.27,2.78,1.07,4,2h.5c.33-.21.76-.93,1-1,.48-.13,3.94-.12,4.5,0,.18.04,1.61.97,1.75,1.25.64,1.24-2.02.39-2.25,1.25ZM73.25,151.53c-.32,0-.32-.5,0-.5s.32.5,0,.5ZM73.5,135.28c-.19.55.21,1.53-1,1.75v-2.25l1.5-.75c.27.82-.4.96-.5,1.25ZM77.5,99.28c-.08.3-1.19,1.04-1.5,1.5-.07.11.08.37,0,.5-.43.71-1.1,1.41-1,2.25h-2l-.5-3c-1.31.23-1.3-.96-2-1.75.59-.37,1.83-2.13,2.25-2.25.65-.18,1.75.13,2.5,0,.15-.03.51-.79,1.5-.5.87.25.95,2.51.75,3.25ZM79.5,90.28l-1.5,2.25-1-3.25,1.25-1.25,1.25.5v1.75ZM84,84.53h-.25l-.75-.75v-.75h1v1.5ZM90.5,73.53h-.25l-.75-.75v-.75h1v1.5ZM90.5,60.53v-1l1,1h-1ZM117.5,60.53v-1h1l-1,1ZM130,108.53h-1v-.5h1v.5ZM131.5,105.28l.25-.25,1.25,1.5h-1.5l.5-.75-.5-.5ZM197,115.53h-1v-.5h1v.5ZM254.25,180.03h-.75l-.5,2.5v-4l1.5.5-.25,1ZM191.5,237.53l-1.75.5-1.25-2.75,1.25-.75c.23.55.87.41,1,.5.96.62.78,1.44.75,2.5ZM191.5,230.78c-.11.37-1.92,1.34-2,1.25-.21-.71,0-3.52,1.25-3,.58.24.93,1.13.75,1.75ZM196,255.03c-.32-.63.8-1.75,1-1.5.32.63-.8,1.75-1,1.5ZM199.25,261.03h-.75v-.75l.75-.75.75.75-.75.75ZM209,239.78l-1.5,2.75c-.7-.08-1.75.18-2.25.5-.94.59-.79,2.3-2.25,2v8c.95-.19,1.34.65,2,1.25l-1.25,1.75c-2.02-.06-2.9,1.43-4,3-.61-.65-.99-.51-.25-1.25,1.19-1.19-.22-1.76,0-3.25l3-.25-3.5-1.75c-.21-.21.16-4.33,0-5.25-.03-.18-.97-1.82-1-2-.21-1.17.15-2.75,0-4l2-2.75c-.87-.14-1.31.78-2.25.5-.26-.08-.65-.81-1-1-.24-.13-.66.09-.75,0-.06-.06.14-.99-.5-1.25l.5-2c-1.48-1.05-1.48-3.45,0-4.5l-.5-.5.5-.5-.5-1c.31-1.1.74-2.44,2-2.25-.67-1.24,2.2-3.79,3-3l.5,3h-1l-.5,2.5c.72.08,1.58-.12,2.25,0,1.05.19,2.82,1.92,4,.5l1.75,1c.2,1.24-.62,1.21-1.25,1.5-1.32.61-3.14,1.64-4.5,2.5-.85.53-1.48,1.45-1.25,2.5l3.25-1c.66.78,2.34.78,3,0l2.25,1.75v2.5ZM209,224.78c-.16.54-2.1,1.44-2.75,1.25-1.34-.39-.4-2.12-.25-3h2.25c.59.46.98.97.75,1.75ZM210.5,239.03h1v.5h-1v-.5ZM214,241.78c-.35,1.05-2.21,1.53-3.25,1.25-.13-.03-1-.75-.5-1l2-2c.58-.19,1.94,1.17,1.75,1.75ZM213,225.78c-.09-.14.05-.77-.5-1l.75-1.25,2.25.75c.53,1.99-1.42,3.18-2.5,1.5ZM225.5,238.28c-.63,1.76-3.05-.22-2.5-1.75,1.09-.28,3.05.19,2.5,1.75ZM268.5,240.28l-.75.75-2.25-.5.5-1.25-.5-2.5c.27-.23.48-.54.75-.75,1.81-1.41,2.66.63,2.75,2.25l-1,1,.5,1ZM280.75,73.03c.16-.74.72-2.27,1.5-2.5.54-.16,1.18-.02,1.5.5.75,1.22-.99,3.93-2.5,3.5-.78-.22-.64-.85-.5-1.5ZM273,174.53l1,.75v.75h-1v-1.5ZM268.5,181.53v-1h.5l.75,1.5,2.75.5c.03.97.25,1.02-.75,1-1.15-.02-1.33-.47-1.5-.5-1.1-.2-2.58.14-3.75,0l2-1.5ZM264.5,172.78l.5-1.25h2l-.5,2c-.1.09-.51-.13-.75,0-1.49.83.17,2.85-1.75,2.5l.5-3.25ZM259.25,194.53l-2.75-2.25.25-1.75c.54-.14,1.21.6,1.5,1,.33.45.23.72.25.75.62.79,2.16,1.31.75,2.25ZM261.5,201.53c-.76-.21-.91.34-1.5.5v-1.5h1.5v1ZM261.45,198.36l-1.28-2.13.73-.44,1.28,2.13-.73.44ZM268.25,191.03c-.19.03-.3.45-.5.5-1.06.25-1.66-.31-2.5-.5-.55-.75-1.21-1.51-1.75-2.25-1.26-1.71-2.02-3.23-3-5-.27-.48-.64-1.08-1-1.5l1-2.75c1.94-.37,3.06,1.37,5,1,.24,1.7-1.52,2.14-1,4,.23.23,3.43-.22,4.25,0,.41.11.79,1.35,1.75,1,.52,1.4-1.25.84-1.5,1.75-.63,2.3,2,2.42,2,3-.71,1.18-1.71.56-2.75.75ZM276.25,198.53c-.19-.02-.32-.48-.5-.5-2.51-.27-5.06.83-4.75-3l6.25.5c.75.8,3.35.17,2.75,2.25-.28.98-2.88.86-3.75.75ZM285.25,228.03c-.83,1.26-2.57,1.19-4,1-1.68-.23-1.45-2.77-1.25-4.25.09-.67.24-.84.75-1.25l.25,1h3l.75-1.5c1.53.25,2.66-.33,4-.5.87.69,2.38,1.07,2.25,2.5-2.33.2-3.54,2.96-5.75,3ZM310.5,94.53h-1v-1.5h1v1.5Z"/>
      <path d="M250,198.78c.07-.41.1-2.01,0-2.25-.01-.03-.39.18-.5-.5-.12-.05-.42.09-.5-.25.36-1.29-.92-1.64-1.5-2.5-.34-.5-.66-1.97-1-2.5-.28-.43-.91-.81-1.25-1.25h-3c-.76-.54-.92-1.43-1.25-2.25-.49-1.22-.3-1.37-.5-2.5-.03-.19-.48-.32-.5-.5-.21-1.7.28-3.9,0-5.5-.03-.18-.43-.29-.5-.5-.09-.3.09-.69,0-1-.37-1.28-1.99-1.07-2.75-1.25-.19-.04-.3-.44-.5-.5-.98-.3-1.36.47-1.5.5-1.08.2-2.41.1-3.5.5-.7.26-2.97,1.6-3.5,2-.45.34-1.42,1.3-1.75,1.75-.08.1.08.38,0,.5-.23.34-.94.77-1,1-.38,1.38.42,2.77.5,4,1.05,1.19,2.5,1.4,4,1.25-1.05,1.87-4.02,2.8-1.5,4.75l.5,2.25c-.68.68-4.32-3.05-5.25-3l-4.75-4.75,4-4,.5-3.75c-.89.08-1.89-.12-2.75,0-.19.02-.32.48-.5.5-1.41.13-3.2-.23-4.5,0-.2.03-.45.77-1.25.5-.39,1.57-1.2,3.05.5,4.25v1l-1.75,2.25c-.83-.56-.68-.92-.75-1.75-.3-3.76.09-5.96,1.5-9,.65-1.4,1.62-3.65,2.5-5,.66-1.01,2.31-2.21,2.5-3.5.08-.58-.06-1.07-.75-.75-1.69.79-2.4.33-4,.5-.18.02-.32.48-.5.5-1.9.2-3.53-.67-4.75,1.25-.48.76-1.06,2.2-1.5,3-.72,1.31-2.13,2.56.5,2.25.37,1.18-.69,1.92-1,2.75-.4,1.09-.31,2.41-.5,3.5-.03.19-.48.32-.5.5-.1.78-.1,2.22,0,3,.02.18.47.31.5.5.28,1.61.1,3.06,1.5,4.5l2.5,3.5-1,1.5,1.75,1.75c.31.09.7-.09,1,0,2.6.83,6.28,1.64,9,.5,2.02,1.17,5.13,1.23,7.5,1.5,1.03.12,2.2-.08,3.25,0l.25-1.5c.35.75,1.21.81,1.5,1,.47.3,1.42,1.38,2,1.5.59.13,4.5.14,5,0,.32-.09,1.06-1.22,1.5-1.5.58.18,1.81,1.44,2,1.5.68.2,1.82.3,2.5.5.28.08.73.92,1,1,.89.25,2.25.07,2.75-.75-.97-.64-.05-.67,0-1ZM220.25,196.03c-.64-.4-2.04-2.37-2.5-2.5-.31-.09-.69.09-1,0-.93-.27-1.53-2.04-1.25-3l2,.5v1c.55-.24,1.88.82,2,1.25.09.33-.11.74,0,1,.15.34,1.1,1.24.75,1.75ZM230.5,187.03c-.14-.79.41-.97.5-1.75.09-.74.12-2.31,0-3-.03-.15-.79-.51-.5-1.5.4-1.37,1.93-.46,2.5.5.06.11-.07.34,0,.5.1.22.46.32.5.5.49,2.2-.57,4.62-3,4.75ZM236.75,194.03c-1.53-.9-2.63-1.47-2.25-3.5,1.17-.13,1.71,1.13,2.5,1.75l-.25,1.75Z"/>
      <path d="M273.25,33.53c-.13-.07-.79-.41-1-.5-.28-.12-.71.12-1,0s-1.32-.96-1.5-1c-3.58-.77-6.73-.29-10-2.5-6.11-4.12-12.23-8.12-19-10.5-1.98-.69-3.05-1.61-5-2.5-2.09-.95-4.4-1.66-6.5-3l-2,.5c-1.57-2.68-3.17-1.5-5-2-.27-.08-.72-.92-1-1-3.33-.98-5.74-1.85-9-2.5-2.98-.6-5.9-1.46-9-2-2.24-.39-4.79-1.07-7-1.5-4.04-.79-8.59-.42-12.5-1.5-.52-.14-1.29.86-2.25.5.3-.59-1.38-2.4-1.75-2.5-1-.27-5.47.28-5.75,0l-.75-1.5c-1.06.06-3.43-.36-3.75.75-.14.49.25,1.09-.5,1.5l.5,2.25c-.72.07-1.56-.11-2.25,0-.19.03-.32.48-.5.5-1.11.12-2.36-.09-3.5,0-1.24-1.05-2.18-3-4-2.5l-4,2.5c-2.31-.99-5.54,1.08-8-1-2.39,1.45-7.17.36-9.5,1-.27.08-.73.92-1,1-1.13.31-3.26-.27-4.5,0-.63.14-1.76.71-3,1-3.61.85-7.12,2-11,3-2.67.69-5.36,1.61-8,2.5-4.19,1.41-8.57,2.69-12,5-1.24.83-.94,1.45-2.5,1-.99-.28-1.23.41-1.5.5-.3.1-.69-.09-1,0-.43.12-1.49,1.45-1.25,2h-2v1c-4,.02-6.56,2.94-10.25,4-.87.25-5.13,4.75-6,5-.56.16-1.43.16-2,.5-2.42,1.44-2.8,1.46-5.5,2-1.22.24-2.86.25-4,.5-.23.05-3.23,1.8-3.5,2-.41.31-1.42,1.21-1.25,1.75.6.44,1.17,1.41,1.75,1.75.11.06.35-.07.5,0,3.11,1.44,5.2,1.83,8.5,2.5.83.17.02.62,1.5,0,.21-.09.51.03.75,0v1c1.38-.12,2.53.2,3.75.5,4.16,1.03,8.56,1.09,13,1.5,5.25.48,11.27.23,16.5,1,.2.03.76.79,2,.5.19-.04.3-.43.5-.5.69-.22,1.38.09,2-1,.77.55.86,1.08.75,2,.17.17,2.98-.13,3.75,0,2.51.42,5.73.66,8.5,1,3.43.42,7.23-.96,10-.5,8.12,1.35,20.91-1.39,29,0,2.48.42,4.5-.23,7-.5,3.52-.38,5.51,1.17,8.5.5,2.75-.62,16.34-.23,19,.5.66.18.52-.83,2.5,0,.21.09.51-.03.75,0v-1c.43-.43,1.91.93,2.25,1,1.92.41,6.79.02,8.5-.5,16.43.1,33.93-1.58,50-4,1.26-.19,1.79-.2,3-.5,3.38-.84,6.73-1.41,10-2.5.85-.28,2.16-.46,3-1,.21-.14,1.22-1.15,1.25-1.25.33-1.1-1.78-4.17-2.75-4.75ZM64,38.03h-1v-.5h1v.5ZM92,44.03c-.72-.07-1.56.11-2.25,0-3.13-.51-6.96-1.1-10-1.5-.86-.11-1.86.08-2.75,0-.14-.65.08-1.82.75-2,1.38-.37,4.29.18,6,0,.18-.02.31-.47.5-.5,1.67-.25,2.78.42,4.25.5.04.41-.07.87,0,1.25.06.32.81.22,0,1.25l3.5-.5v1.5ZM105.25,43.53l-2.75-1c-.38-2.93.9-3.89,3.75-3.5.67.09.84.24,1.25.75-1.11,1.21-.77,2.81-2.25,3.75ZM114,46.03h-1v-.5h1v.5ZM129,46.53h-1v-.5h1v.5ZM135.25,44.03c-1.14-.37-2.13.76-3,.5-2.01-.61-3.51-.38-5.5-1-.87-.27-2.47.91-3,1-1.58.28-4.26-.88-4.25,1.5.82-.53,1.81-.67,2.75-.5.19.04.32.48.5.5.48.06,1.01-.05,1.5,0,.64.06,1.86-.4,1.75.5h-9.5l.25-1h.75v-2l-3.75,1c-1.41-1.89-4.05-2.34-4.25-5,.87.39,1.59-.48,1.75-.5,1.66-.24,3.38.17,5-.5l3.5,1.5c1.08-.61,5.26-.84,6.5-.5.24.07.67.79,1,1h.5c1.02-.74,2.76-1.48,2.75-3h1c-.16.7.64,1.64,1.25,2,.57.34,1.44.34,2,.5.27.08,1.9,1.76,1.75,2.25l-1.25,1.75ZM170.75,2.03c-.32,0-.32-.5,0-.5s.32.5,0,.5ZM210,19.53h-1.5v-1h1.5v1ZM269.5,35.53h-.25c-.77-.55-.86-1.07-.75-2h1v2ZM273,35.03h-.75l-.75-.75v-.25h1.5v1Z"/>
      <path d="M105.25,497.53c2.3.66,4.2,2.17,6.5,3,2.31.84,4.63,2.11,7,3,1.17.44,2.99,1.23,4,1.5.63.17,1.48-.36,2,.5.51-.41.66-.58.75-1.25.2-1.47-.14-3.24,0-4.75h-2c.14-.68-.08-1.81-.75-2-.31-.09-.69.09-1,0-.18-.05-1.45-1.38-2-1.5-1.7-.37-3.73-.48-5.5-1-1.03-.3-4.44-1.79-4.25-3-2.66-.06-5.35-1.51-7.25-3.5l-4.5-1-.75-.75v-2.75h1c.19-1.11-.18-1.58-1-2.25v-.5c1.76-1.18.64-1.73.5-2.5-.74-4.16.04-9.06-1-13.5-.27-1.17.64-6.02.5-6.5-.39-1.37-.17-4.13-.5-6-1.01-5.64-.26-12.15-1-18-.44-3.48-2.01-10.92-1.5-14,.33-2.01.14-7.62,0-10.5-.17-3.4-1.48-7.77-.5-11,.38-1.25-.88-1.58-1-2-.83-2.99-.1-6.77-.5-9.5-.77-5.24.33-11.42-1-16-.06-.2-.46-.31-.5-.5-.32-1.37.38-1.75,1-2.75-.59.3-2.4-1.38-2.5-1.75-.49-1.77.82-3.26.5-5-.68-3.71-.87-8.3,0-12,.29-1.22-.38-1.58-.5-2-.09-.32.11-.73,0-1-.5-1.27-2.87-3.04-3-3.5-.55-1.92-1.92-2.9-3-5-.9-1.76-2.12-3.55-3-5.5-1.11-2.47-1.44-3.92-2-6.5-.05-.24-.88-.85-.5-1.75-2.18-.28-.13,1.92-.5,3.25-.08.27-.92.73-1,1-.44,1.59.44,4.91,0,6.5-.13.49-1.41.71-1,2.5.51,2.2-1.1,10.31-1.5,13.5-.68,5.33-.52,12.13-2,17-.29.96.36,1.16.5,1.5.09.21-.03.51,0,.75h-1c-.09,1.9.12,3.85,0,5.75-.11,1.76-.12,5.73-.5,7.5-.04.17-.96,1.33-1,1.5-.32,1.48.2,3.84,0,5.5-.06.51-.79,2.35-1,3-.58,1.8-.67,1.25-1.5,2.5-.3.46-.38,1.64-1,2l1,1-2.5,2c-3.1,6.29-4.98,12.03-6.5,18.5-1.68,7.17-1.96,15.91-1,23.5.83,6.51,1.28,12.92,3.5,19,.93,2.54,2.21,5.11,3.5,7.5.16.3.34,1.15.5,1.5,2.46,5.45,6.13,10.26,10,15,1.16,1.43,2.43,3.52,3.75,4.25,1.24.69,1.84,2.62,3,3.5,3.42,2.58,9.23,8.42,13,9.5.82.23.69,1.44.75,1.5.43.43,3.27.42,4.25,1,.47.28,1.18,1.41,1.5,1.5.66.18,1.78-.16,2.5,0,.17.04,1.33.96,1.5,1,1.05.23,2.34.17,3.5.5.46.13,1.81,2.09,2.5,2.5.15.09.75-.06,1,.5,1.13-.58,2.67-.37,4,0,.3.08,1.04,1.19,1.5,1.5.46.3,1.64.38,2,1l2.75-.5c.17,2.24,1.95,1.75,3,.25v-6.25c-.83.22-1.62-.77-2.25-1-1.91-.71-4.01-1.04-6-2-3.36-1.61-6.97-3.06-10-5-1.16-.74-1.2-1.38-3-2-.65-.22-1.74.19-1.75-1.25,1.35-1.91,2.02.54,2.75.75ZM66.5,435.03c-.95.14-1.64-.55-1.5-1.5.95-.14,1.64.55,1.5,1.5ZM66.5,415.78c-.02.18-.48.32-.5.5-.15,1.75.23,3.82,0,5.5-.3,2.18-2.49,1.06-2-.5.07-.21.47-.32.5-.5.3-1.9.72-3.77,1-5.5.17-1.08-.72-3.15,1-2.75-.08,1.05.12,2.22,0,3.25ZM73,446.28c-1.06-2.36-2.69-6.51-3-9-.14-1.1.09-2.37,0-3.5.34-.54,1.89-1.61,2-2,.22-.8-.42-1.94.5-2.5l-1-1.25-1.5,1.5c.08-1.05-.12-2.22,0-3.25.31-2.67,1.35-5.49,1-8.5l.5-2.25c1.68-.32,1.74.67,2.5,1.75-.01,1.16.86,2.19.5,3.5-.12.45-1.63,1.21-1,2.75-.79.04-1.73-.42-1.5.75l1.75,2.25,1.25-1.75-.5-2,1.5-.75c-.26.97.63,1.17,1,1.75,1.32,2.09,2,3.77,3.5,6,.85,1.28,1.15,3.67,2,5,.57.9,2.79,1.37,2.5,3.25,1.84-.42,1.88.97,2.5,1.75.66.84,3.88,3.56,4,4,.18.65-.13,1.75,0,2.5.04.21.91,1.7,1,2,.77,2.72.93,5.72,1.5,8.5.1.51-.07,1.19,0,1.75h-1.5c-.38.92.47,1.57.5,1.75.11.61-.15,1.47,0,2,.1.35,1.4,1.15,1.5,1.5.25.92-.11,2.83,0,4,.02.18.49.32.5.5.11,1.53.08,3.46,0,5-.05.96.24,1.6-.75,2.25l-.25-6.25c-.49-.52-2.38-2.58-2.5-3-.22-.79.4-1.92-1-2.25.08.89-.12,1.89,0,2.75.02.19.47.31.5.5.24,1.6.09,2.81-1.25,3.75-.61.18-.9-.45-1.25-.75-.61-.53-1.53-1.39-2-2-2.5-3.23-4.6-7.08-7-10.5-2.49-3.56-4.64-7.36-6.5-11.5ZM92.5,473.28v1.25h-2v-2h1.25l.75.75ZM80,468.03l2.25.5,1.25,2c-.97.34-1.31-.86-1.75-1-.82-.26-1.9.13-1.75-1.5ZM83.5,482.53c-1.02-.33-1.34-1.74-2.5-1.5l-.5-2c.45-.5,1.93,1.12,2.25,1.5.61.71.97.85.75,2ZM84.39,471.52c0-.34.28-.62.62-.62s.62.28.62.62-.28.62-.62.62-.62-.28-.62-.62ZM90,488.03l-3-1.5c-.03-.33.06-.71,0-1-.2-.06-.51.1-.75,0-.46-.18-1.61-1.64-1.25-2,1.31-.05,1.77.89,2,2,.59.19.89.37,1.25.5.28.1.68-.09,1,0,.67.18.89,1.35.75,2ZM96.5,485.53c-.36.4-1.9-.91-2-1.25-.7-2.47-2.58-4.36-4.75-5.75-.84-.54-.32-.84-1.5-1.5-.64-.35-1.92-1.77-1.75-2.5h-1.5l1.25-2c.96.58,2.19,2.01,3,2.5.37.23,1.68.43,1.75.5.09.09-.13.51,0,.75.96,1.71,2.68,1.98,4.5,1.75.25.25-.24,3.87,0,4.75.12.44,1.65,1.25,1,2.75ZM100.25,495.53c-.32,0-.32-.5,0-.5s.32.5,0,.5Z"/>
      <path d="M139.75,225.03c-.27.08-.73.92-1,1-.53.14-1.39-.1-2,0l-.75-1.25c1.49-1.26-.23-2.52-.5-3.5-.46-1.67-.7-2.33-1.5-4-1.37-2.86-3.07-6.28-5-9-.74-1.04-2.02-1.72-2.5-3-.29-1.25.47-1.8.5-2,.27-1.88-.43-3.29-.5-5l-3.75-4.25c-1.5.21-3.63-.3-5,0-.35.08-1.6.74-2.5,1-.5.15-.71,1.42-2.5,1-.19-.04-.3-.44-.5-.5-3.94-1.14-9.86-2.14-14-1l-2-.5-2.5,1c-2.8-2.8-6.54-4.58-10.5-4-.15.02-.84.88-1.75.5l-.75,1.5-2.25.5,1,.5c.28,2.82,2.63,1.65,4.25,2,.16.03,1.68,1.02,1.75,1.25v1.25l1.75-.5.75.75.5,6,1.25,1.75,1-.5c.59.45,3.18,2.91,3.5,3,.3.09.67-.06,1,0l1.5-1c.79.37,1.4,1.09,2,1.5,1.11.75,2.29,1.45,3.5,2l1.5-.5c.8,1.06,2.16.77,3,1,.09.02,1.23,1.17,1.25,1.25.29,1-.47,1.33-.5,1.5-.1.51.07,1.19,0,1.75,1.32-.55,2.28,2.5,2.75,2.5.68-.69,1.55-1.2,1.25-2.25-.13-.44-1.52-.97-1-2.25h1c-.09-1.97-2.64-2.48-3.75-4h-.75l-.5-3-1.25.5c-.91-.93-1.97-1.8-3-2.5-.45-.3-1.87-1.46-2-1.5-.51-.15-1.42-.49-1.5-.5-.84-.15-4.06.19-4.25,0-.29-2.69,1.43-1.64,2.75-2,.51-.14,2.27-2.54,3-3,.81.08,1.73-.11,2.5,0,.18.03.3.45.5.5.45.1,1.08-.12,1.5,0,.43.12.98,1.53,2.25,1v2h1c.2,1.22-.79,1.97-.5,3.25.05.22.77.44.5,1.25.09.09.48-.11.75,0,1.22.51,3.11,2.89,3.5,3,1.32.36,2.61-.67,3.75,1.25.06.11-.07.34,0,.5.1.22.46.32.5.5.3,1.36-.26,2.6-.5,3.75h1c-.1,1.16,1.16,4.7,2.25,5,1.71.47,1.75-.06,3.25,1.75.22.27.19,1.58,1.5,1.25l.5-3.5c.81.18,1.23,1,1,1.75-.06.18-.4.29-.5.5-.67,1.39,1.69.42,2-.5l-1-2c.73-1.1,1.85-.71,3-.75l-.5,1.25c.83.68,1.38,1.91,2.5,1.75v1.5c2.24.02,2.06,2.83,3,4.25.37.56,1.73,1.27,1.5,2-1.46,1.57-4.36.98-4,3.75l-1.5.75,2.5,2.5-.5,1.75c.55.08,1.29-.13,1.75,0,.16.04,1.45,1.38,2,1.5.45.1,1.04-.09,1.5,0,.7.14,1.06.63,1.5.5.76-.51.96-1.38.75-2.25-.05-.19-.43-.3-.5-.5-.09-.3.09-.69,0-1-.12-.41-1.34-.78-1-1.75l1.75.5,2.25-1.75c.08-1.14-.12-2.39,0-3.5.02-.18.48-.32.5-.5.23-2.4.55-5.66-2.75-4.75ZM118.5,215.03h-.5v-1h.5v1ZM128,216.53h-1v-2c1,.27,1.12,1.06,1,2Z"/>
      <path d="M71.75,198.53l-1.5,1.5c-.89.22-1.23-.43-2-.5-4-.38-7.07.49-10.5,1-.76.11-1.86-.18-2.5,0-.27.08-.72.92-1,1-2.36.7-2.46.78-4.5,2-.24.14-1.29.36-1.5.5-2.43,1.61-3.33,4.23-4.75,6.25-.59.84-1.86,1.23-1.5,2.5.06.21.5.34.5.5,0,.09-.79.5-.5,1.5.16.57,1.9,1.21,1.5,2.25l2.25-.5c.65.84,1.75.79,2.5,1,1.3.37,1.52,4.56,1.25,5.75-.44,1.95.25,1.62.5,3,.21,1.17-.15,2.75,0,4l2,2c.17.58-.93,1.68-1,2-.53,2.4.9,9.11,1.5,11.5.36,1.44.27,2.16.5,3.5.03.19.78.45.5,1.25h1.75l1.25-1.75v-1.25h-1l.5-2c.82.27.99-.42,1.25-.5.41-.12,1.07.12,1.5,0,1.09-.3,1.44-2.2,1.25-3.25-.03-.19-.45-.3-.5-.5-.48-1.9-.73-3.99-3-4.25-.07-.56.1-1.24,0-1.75-.04-.19-.47-.32-.5-.5-.12-.86.08-1.86,0-2.75l3.5-.5-.5-1.25,1.5-2-.5-2.25,2,1,.5-1.75-.5-2,1-1.5-1-3.25c.92.11,1.45.02,2-.75-1.6-1.71-2.14-4-4-5.5.73-1.1,1.85-.71,3-.75v1h1.5l-1,2.5c2.51.46,2.2-2.43,2-4.25-.02-.18-.48-.32-.5-.5-.12-1.2.08-2.53,0-3.75.95.37,1.31-.87,1.75-1,.31-.09.69.09,1,0,.36-.1,1.25-1.44,1.75-1.75v-.5c-.85-.86-1.8-1.37-1.5-2.75.18-.18,2.14.17,2.75,0,.21-.06,1.86-1.57,1-2ZM59.5,216.03h-1.5v-1h1.5v1Z"/>
      <path d="M62.5,183.28c-.64-3.58-4.81-9.06-7-12-1.73-2.33-3.48-4.6-5-7-.08-.13.06-.75-.5-1l1-1c-.91-1.45-1.55-4.02-2.5-5.5-.28-.43-.91-.81-1.25-1.25-1.52-.1-2.63.81-4.25.5-.24,1.95,1.08,3.59,2,5.25,1,1.8,1.8.91,3,2.5.07.1-.08.38,0,.5.19.28.59.48.75.75.47.76.19,1.66.25,2.5-.84.14-1.55-.66-2-1.25-1.79-2.37-3.73-4.89-5.5-7.5-.08-.11.08-.38,0-.5-.4-.6-1.28-1.14-1.75-1.75l-4.75,1c-.35,1.53.93,2.32,1.5,3.25.14.24.36,1.28.5,1.5.56.88,1.62.84,2.25,1.25.27.17.48.54.75.75v1.25l1.5.75v1.25h1l.5,2.5c1.29-.04,2.25,1.2,2,2.5h1c.17,1.63,3.57,4.3,4,5.75.14.47-.26,1.08.5,1.5l-1.75,1.75h-4c-1.16,1.08-2.42,2.24-2.25,4l2-.5c.14.13-.45,2.02.75,1.5,1.56-.67-.53-1.76-.25-2,1.02.51,3.46-2.56,4-2l.25,1h.75l.5,3h5c-.16-.95.23-2.43,0-3.25-.1-.35-1.4-1.14-1.5-1.5-.43-1.49-3.03-5.7-4-7-.42-.56-2.04-1.4-1.25-2.25,1.15,1.3,2.65,2.44,3.75,3.75,1.01,1.2,2.66,3.58,3,5,.12.49-.07,1.2,0,1.75h1.5c-.14,1.62-.11,2.53,1.25,3.5h4.25c-.12-1.02.17-2.29,0-3.25ZM52,171.78c-.08-.1.08-.38,0-.5-.4-.58-1.25-.79-1-1.75,1.62.91,2.53,2.51,3.5,4-.48.47-2.19-1.33-2.5-1.75Z"/>
      <path d="M113.5,186.53c-1.53.25-1.46-1.36-2-2.25-.88-1.44-8.04-10.9-9.25-11.25-.31-.09-.69.09-1,0-.28-.08-.73-.92-1-1-.65-.18-1.75.12-2.5,0l-.75,1.5c-.82.24-.88-.31-1.25-.5-.77-.39-1.87-1.46-2-1.5-.31-.09-.7.09-1,0-.21-.07-.32-.47-.5-.5-.6-.11-1.36.07-2,0l-1,2c-.78-.28-.69-1.44-.75-1.5-.09-.09-.48.11-.75,0-.22-.09-.32-.47-.5-.5-.9-.16-2.07.14-3,0-.18-.03-.3-.46-.5-.5-.39-.09-2.25-.3-1.75.75.61,1.28,1.98,2.01,2,3.25,3.11.62,5.06,4.07,6.5,6.75.18.34.93.74,1,1,.31,1.12-.03,2.36-1,3,.58.38.77,1.17.25,1.75-.5.25.37.97.5,1,1.53.41,5.51-.11,7.5,0,2.24.12,5.76.87,8,1,1.65.1,4.44.21,6,0,.67-.09.84-.24,1.25-.75l-.5-1.75ZM96.5,184.28c-.06-.11.07-.35,0-.5-.88-1.9-2.32-4.14-3.5-6-.37-.58-1.26-.78-1-1.75,1.15-.22,1.29.14,2,.75,2.02,1.71,2.95,3.63,4.5,5.5l.5,3.25c-1.01.24-2.01-.42-2.5-1.25ZM107,185.28c-1.06.75-1.13,1.5-1,2.75-.98.1-.33-1.15-.5-1.75-.1-.36-1.4-1.14-1.5-1.5-.53-1.84-1.63-3.44-3-5l-1-2.75c1.44.1,2.63,1.19,3.5,2.25.77.94,1.34,2.4,2,3.5.32.53,1.72,1.73,1.5,2.5Z"/>
      <path d="M151,189.28c-.19-.7-2.42-2.62-3-1l.5.5-1,.25c.11-1.54-1.36-2.3-2-3.25-.89-1.33-1.47-3.22-2.5-4.5-.42-.52-3.5-3.67-3.75-3.75-.33-.1-.85.05-1.25,0-.37-.94.88-1.32,1-1.75.18-.64.08-1.64-.5-2l1-1.75-1.25-.5-.5.5c-.55-.63-1.43-1.02-1.25-2h1.5l-.5-1.75c.98-.89.61-1.84.5-2.5-.27-1.64.17-3.32-.5-5-.08-.2-.4-.29-.5-.5-.32-.69-.43-1.65-1.75-1.25-.09.03-1.23,1.17-1.25,1.25-.09.31.09.7,0,1-1.17,3.66-2.05,7.23-3,11-.06.25-.87.8-.5,1.75,1.62.03,3.71.99,4.5,2.5l-5,.5-.5,2.75c.29.74,1.17,1.41,1.5,2,.13.24-.09.66,0,.75.09.09.51-.13.75,0,.48.27,1.4,1.37,2,1.5.77.17,1.9-.12,2.75,0,.45-2.11-2.44-2.57-2.5-4.5l1,1c2.43-.52,2.61,1.33,4,2.75-.18,1.89-1.99,1.03-3.25,1.25l-2.25,1.25c.31,2.15,1.11,4.57,3.25,5.25.48.83,1.29.34,2,.5.2.04.31.47.5.5,2.07.38,2.48-.77,3.5-1,1.87-.42,2.36,1.25,3.5,1.5.53.11,3.53.13,4,0,.86-.23.95-2.52.75-3.25ZM139,187.03l2.5-.5.5,2.5c-1.48.26-2.94-.32-3-2Z"/>
      <path d="M72.5,181.28c-.03-.18-.46-.3-.5-.5-.1-.45.11-1.08,0-1.5-.3-1.1-3-5.17-3-5.5,1.29-.99-.67-2.9-1.5-4-1.55-2.04-2.46-.85-4.25-1.25-.89-.2-1.61-.3-2.5-.5-1.55-.34-4.05.25-5.75,0-.6.55,1.64,2.29,2,2.75.28.36.39,1.1,1.25,1.75,3.53,2.67,6.69,5.81,8.75,9.75.29.55.97,1.41,1,1.5.15.53-.11,1.39,0,2,.03.19.47.31.5.5.24,1.32-.32,2.16-.5,3.25l-1.5.5c-.22-1.18.83-2.05.5-3.25-.37-1.36-3.14-.74-3.5.5-.25.87-1.06,3.36-1.75,3.75-.23.13-.66-.09-.75,0,.63,1.54-.88,2.3-1,2.75-.14.53.1,1.39,0,2l1.75.75c.65-.84,1.76-.79,2.5-1,.42-.12,5.85-5.64,6.25-6.25.24-.36,1.37-2.63,1.5-3,.1-.28-.09-.68,0-1,.06-.2.47-.31.5-.5.13-.73.11-2.74,0-3.5ZM68.5,178.03c-.99-.52-5.8-5.2-5-6,1.01-.18,3.81,2.08,4,2.75.1.33-.12.75,0,1,.31.66,1.15,1.37,1,2.25Z"/>
      <path d="M207,195.28c-1.06,1.18-2.73,1.52-4.25,1.25-.19-.03-.3-.45-.5-.5-4.37-1.08-5.75-2.19-8.25-5.75-1.28-1.82-2.41-3.46-3-5.5-.19-.67-1.32-.89-2-.75l-.5-3.5c.91.13,2.48-.43,3-1.25,1.47-2.32,2.54-5.72,4-8,.81-1.27,1.81-1.04,2.75-1.75l2.25.5c.41.38-1.27,2.23-1.5,2.75-.74,1.71-1.1,3.73-1.5,5.5-.04.19-.79.51-.5,1.5.08.27.82.9,1.25.75.36-.58,1.36-.68,2-.5,1.14.31.67,2.91.75,4h-4c.07.55-.11,1.26,0,1.75.49,2.09,3.47,4.78,4,6.75l2,1c.8-.9-2.18-3.38-2-4.5,1.69-.14,2.46-.12,3.5,1.25.45.59,1.1,1.82,1.5,2.5.44.75,1.25,1.62,1,2.5Z"/>
      <path d="M190.25,190.03c-.33-.1-.85.05-1.25,0l.5,1.5c-1.31.29-1.24-.88-1.5-1.25-1.29-1.82-2.56-3.49-3.5-5.5-.14-.29-.17-1.45-.5-2-.7-1.18-2.06-1.78-3.25-2.25-.21-.08-.32-.46-.5-.5-.71-.16-1.73.12-2.5,0-.19-.03-.31-.47-.5-.5-.59-.09-1.93-.1-2.5,0-.19.03-.3.44-.5.5-.56.16-1.43.16-2,.5-2.43,1.45-2.43,4.55,0,6,.11.06.34-.07.5,0,.22.1.32.46.5.5.9.2,2.26-.14,3.25,0l-.5-2.75-1-1.75c2.47-.36,3.21,1.11,4.5,2.75l-.5,1.75c-.8-.27-1.05.46-1.25.5-1.1.2-1.38.14-2.5.5-.3.09-.69-.09-1,0-.29.08-.86,1-1.25,1.25l1.5,2.75h1v1c.95-.37,1.31.87,1.75,1,.31.09.7-.09,1,0,.21.07.31.46.5.5.59.12,1.42-.13,2,0,.19.04.3.44.5.5.66.18.81-.46,1-.5.46-.09,1.09.11,1.5,0,.27-.08.72-.92,1-1,1.19-.34,2,1.23,3,1.5.42.11,1.05-.1,1.5,0,.19.04.3.44.5.5.98.3,1.34-.47,1.5-.5.51-.1,1.19.07,1.75,0,.63-1.28-1.72-4.69-2.75-5ZM181.75,192.03l-2-1c-.65-.44.14-1.4.5-1.5,1.28-.37,3.18,1.56,1.5,2.5Z"/>
      <path d="M162.5,193.03c-2.03-.14-4.25.19-6.25,0-.18-.02-.31-.48-.5-.5-.86-.11-1.86.08-2.75,0l-.5-2.5h1c.29-1.53-1.25-2.56-2-3.75-1.04-1.65-2.29-4.32-3-6-1.27-2.99-.49-6.3-4-8v-5.75c1.05.08,2.22-.12,3.25,0,.18.02.32.48.5.5,1.26.12,2.84-.2,4,0,.2.03.45.77,1.25.5.27.8-.47,1.05-.5,1.25-.33,1.89.47,8.75,1,10.5,1.15,3.79,3.45,7.35,5.5,10.5l2.5,1.5.5,1.75Z"/>
      <path d="M173.25,194.03c-2.45-1.16-5.46-.05-8-.5-.2-.03-.45-.77-1.25-.5l-.5-2,1.5-.75c0-.18-1.23-1.09-1.5-1.5-1.4-2.1-4.19-7.91-4.5-10-.16-1.07.11-2.38,0-3.5l-2.5-1.25c.12-1.36-.17-2.92,0-4.25.02-.18.46-.31.5-.5.1-.51-.07-1.19,0-1.75.72.07,1.56-.11,2.25,0,.19.03.32.48.5.5,1.82.2,3.9-.14,5.75,0-.09,1.73.12,3.52,0,5.25-.01.18-.48.32-.5.5-.11,1.29-.12,3.22,0,4.5.02.18.48.31.5.5.12.93-.18,2.16,0,3,.04.18.88,1.21,1,1.5s-.12.72,0,1c.48,1.1,3.94,6.52,4.75,6.75.31.09.69-.09,1,0,.46.13,1.35,1.5,1.5,2,.19.63-.11.6-.5,1Z"/>
      <path d="M266.5,288.28c-.03.19-.45.3-.5.5-.55,2.22-.27,4.64-1.5,6.5l.5,1.75h-1c.25.56-.84,1.89-1.25,2-.67.19-1.54-.35-2,.5l-1.5-2.5-1,.5-.75-.75.5-1.75c-1.26-.53-1.82.88-2.25,1-.36.1-2.64.1-3,0-.84-.23-.63-1.29-.75-1.75s-.63-.28,0-1.5l-1.5-2,.5-2-1.5-.25c.22-1.21,1.21-.81,1.75-1,3.57-1.28,9.57-3.94,13-4.5.69-.11,1.53.07,2.25,0-.19,1.62.27,3.72,0,5.25Z"/>
      <path d="M88.5,181.78c-.07-.26-.82-.66-1-1-.15-.27-.36-1.29-.5-1.5-1.33-2.01-6.81-6.82-8.75-8.25-.11-.08-.39.08-.5,0-1.16-.86-2.37-2.18-1.5-3.5l-.25-1.5c-1.38-.25-1.02.42-1,1.5h-1v1c-3.13-.49-4.19.58-3.5,3.75.08.38,1.21,1.94,1.5,2.5,1.41,2.68,3.35,5.36,5,8,.48.78.96,2.29,1.5,3,.82,1.08,1.58,1.29,2.75,1.75.21.08.32.46.5.5.49.11,2.5.11,3,0,.36-.08,1.41-1.17,2-1,1.49-1.07,2.24-3.45,1.75-5.25ZM83.5,184.53c-.84.2-1-.31-1.5-.75-1.95-1.71-2.57-5.78-5-7.5l-1-2.75c.96-.24,1.17.59,1.75,1,1.46,1.03,3.22,3.07,4.25,4.75.71,1.15,1.24,2.38,2,3.5l-.5,1.75Z"/>
      <path d="M180,260.53c-.2-.2.19-2.57,0-3.25-.03-.12-1.63-1.72-1.75-1.75-.31-.09-.69.09-1,0-.68-.2-1.09-2.26-1.25-3-.68-.11-1.66.16-2.25,0-.27-.08-.73-.92-1-1-1.17-.32-3.4.23-4.75,0v.75l-1.5.25c-.16,1.4.08.78.75,1,.77.25,1.39.67,2.25.5.03.58.08.96-.25,1.5-.41.67-1.71.28-1.25,1.25.88,1.87,2.92.63,4,2l-1,1c.81.66,1.2,1.15,1,2.25l-2.75-.5c-.81-1.42-2.11-.6-3-1.5-.71-.2-1.45.79-1.25,1.5,1.55-.39,2.66,2.84,3.25,3,1.19-.36,1.61-1.41,3.25-1v1.5h2v1c.82-.25.9.33,1.25.5.94.44,1.05-.83.25-1.25.64-.88,1.54-1.14,2.25-.25.64-1.07,2.36-1.31,3.5-1,.27.08.72.92,1,1,.93.27,1.34-.62,2.25-.5v-1.5c-1.7.08-2.3-2.58-4-2.5ZM171,255.53v-1.5l1.5-.25,1.5.25.5,2-3.5-.5ZM176.75,262.03l-2.25-2.25c-.15-.48.97-1.66,1.25-1.75,1.34-.41,2.73,3.07,1,4Z"/>
      <path d="M237,218.28l-1.75,1.75c-1.81.11-2.61.22-3.75-1.25-.11-.14-.14-1.25-1-1.25l-.5,2.25c-.64.99-1.15.56-1.75.75-.21.07-.32.47-.5.5-1.83.33-2.89-.65-4.25-1.75l-.25-2.25c-.77,1.15-3.29,3.46-.25,3v1.5l-6,1,1-2.75c.56-.77,2.2-1.86,2.5-2.5.73-1.55-1.99-.13-2.25.75l-1.25-.5c-.07-.81-.1-2.26.75-2.5.31-.09.7.09,1,0,.21-.07.32-.47.5-.5,1.52-.28,3,.31,4,1.5.3,0,2.04-2.37,2.5-2.5.49-.14,1.09.25,1.5-.5h.5l3,1.5,2.5-2.5c1.56-.08,2.88-.22,3.75,1.25.06.11-.07.34,0,.5.1.22.46.32.5.5.33,1.48-.38,2.7-.5,4Z"/>
      <path d="M128,255.28v11.5l-.75.75c-.81-.08-1.73.11-2.5,0-1.55-.23-3.96-.83-5.5-1-1.45-.16-3.28.55-4.25-.75v-1c.31-.8,1.44-.69,1.5-.75.32-.32.36-2.23.5-2.75.1-.37,4.88-5.14,5.25-5.25,1.09-.31,2.64-.26,3.5-.5.91-.25.51-1.97,1.5-2.5l1.25.5c.39.86-.5,1.66-.5,1.75Z"/>
      <path d="M151.75,425.53c-9.25-.31-18.75-1.47-28,0l-2.25.5,1.5-.5c-.85-1.1-1.27-1.75-1-3.25.03-.19.46-.3.5-.5.2-.9.24-2.06.5-3l4.5-5c-1.17-.96-.1-2.14,0-3.25.56-.07,1.24.1,1.75,0,.19-.04.31-.46.5-.5.63-.13,1.85.45,1.75-.5-.85.12-1.98-.17-2.75,0-.62.14-1.48.41-2,.5-1.04.17-3.41-.45-3.75.75-.09.31.09.7,0,1-.07.21-.47.32-.5.5-.24,1.33.2,3.13,0,4.5-.22,1.5-1.15,4.25-1.5,6-.1.51.06,1.19,0,1.75-.92-.16-1.65.55-1.5,1.5l-.75-1-1.25,1.75c.82.67,1.19,1.14,1,2.25.76.27,1.15-.5,1.25-.5.16,0,.29.44.5.5,1.31.38,1.48-1.15,2.75-1l-1.5,1.5,1.75.5,2.25-.5-1.5-1,1.25-1c1.17.66,1.2.05,1.5,0,1.15-.19,6.51.24,6.75,0v-1c2.24-.08,4.47-.01,6.25,1,3.13-2.51,8.09.09,11.25-.75l2.5-.25-1.75-1ZM120,427.53h-.5v-1h.5v1ZM127.25,427.03c-.32,0-.32-.5,0-.5s.32.5,0,.5ZM129.5,427.03v-1h.75l.75,1h-1.5Z"/>
      <path d="M260,208.28v6c-1.98,1.96-2.86-.12-2.5-2.25-2.69-.29-1.64,1.43-2,2.75-.21.75-2.38,1.88-2.5,1v-1l-1-.25c-.5,2.77-2.9,2.67-5.25,2.5-.75-.21-.78-2.36-2.25-2v3h-2.5c-.11-.68.16-1.66,0-2.25-.08-.27-.92-.73-1-1-.47-1.69.31-2.03,1-3,.07-.1-.08-.37,0-.5.53-.83,2.35-1.5,3.25-1.25.08.02.73.67.75.75.3,1.02-1.03,1.51.25,2.25,1.21-1.46,3.55-2.15,5-1h1.25l.75-1.5c1.79.32,3.06-.63,4.75-.5l-.5-2,1.25-.5,1.25.75Z"/>
      <path d="M231.5,502.53l-2.25,2.5-1.5.5-3.5,3c-3.15.03-4.99,2.28-8,2.5l-.5.5c-1.45,1.13-2.82,1.46-4.5,2-2.35.75-5.04,2.04-7.5,2.5-.75.14-2.48.11-2.75-.75-.49-1.57.33-.99.75-1.25.47-.29,1.18-1.41,1.5-1.5,1.66-.48,2.15-1.4,2.5-1.5.84-.23,2.43-.23,3.5-.5,1.93-.48,4-.93,6-1.5.75-.22,1.49-2.43,3-2,2.56.73,5.25-3.24,8.5-2.5,1.53-.96,2.76-2.33,4.75-2Z"/>
      <path d="M119.75,190.03c-.18-.02-.32-.48-.5-.5-1.15-.12-3.92.44-4.25-.75-.32-1.17.23-2.44,1.5-2.25.25-.82-.35-.92-.5-1.25-1.29-2.93-3.4-6.56-6.25-7.75-.27-.11-.66.09-.75,0-.09-.09.13-.51,0-.75-.22-.39-2.05-2.21-1.5-2.75.72.07,1.56-.11,2.25,0,.19.03.32.48.5.5.93.12,2.16-.18,3,0,.2.04,1.56.95,1.75,1.25.14.22.36,1.26.5,1.5,1.9,3.13,4.87,5.4,6,9l2.5,2c.65,2.16-2.82,1.9-4.25,1.75Z"/>
      <path d="M222.5,498.28c.1.38-.86,2.14-1.25,2.25-.33.09-.75-.11-1,0-1.82.81-2.22,1.33-4.5,2-1.04.31-2.53,2.87-4.5,2-1.13,1.79-2.74,1.42-4,1l-2.75.5,1.5-3.75c.5-.31,1.39-1.65,1.75-1.75,1.63-.47,1.87-1.03,3.5-1.5.44-.13.8-1.37,1.75-1v-2c.58-.03.96-.08,1.5.25,1.89,1.16,4.15-.14,6.25,1.75l1.75.25Z"/>
      <path d="M184.5,323.78c-.22.81-1.44.69-1.5.75-.09.09.13.51,0,.75-.19.34-1.39,1.11-1.75,1.25-.27.11-.68-.09-1,0-.2.06-.31.47-.5.5-.57.1-1.91.09-2.5,0-.18-.03-.3-.45-.5-.5-.45-.1-1.08.12-1.5,0-.62-.17-2.25-2.38-3.5-2-.43,0-.33-.99-.25-1.25.16-.53,1.92-1.32,2.5-1.25.27-.82-.43-.99-.5-1.25-.22-.75,2.02-3.31,2.75-3.75.15-.09.75.06,1-.5h1c.19.06.29.42.5.5.62.25,2.08.64,2.25,1.25.09.31-.09.69,0,1,.45,1.57,4.42,1.17,3.5,4.5Z"/>
      <path d="M255.5,157.28c-4.79,6.99-12.89,10.35-19.25,15.75l-3.25,1c-.2-.92.51-1.19,1-1.75,5.03-5.73,13.06-10,18.75-15.25l3.75-1.5c.25.97-.6,1.17-1,1.75Z"/>
      <path d="M230.5,393.78c-.01.18-.49.32-.5.5-.11,1.49.28,3.73,0,5-.04.18-.4.28-.5.5-.29.64-.26,1.45-1.5,1.25-.19-.21.13-4.73,0-5.75-.43-3.46-1.13-8.6,0-12.5.19-.66,1.2-1.61,0-2.5l.75-1.25h1.25v-1.5c-.93.12-1.73.01-2-1l2.5-.5c-.26,5.83.36,11.95,0,17.75Z"/>
      <path d="M151.5,251.03v-1c-1.73.44-3.75-.81-4.75,0l-.75-.75.5-.5-2.5-1.5,1-1.75-4.75,1c-.25-.56-.87-.42-1-.5-.78-.5-.85-1.13-.75-2,1.26.53,1.82-.88,2.25-1,1.28-.35,3.78.25,5.25,0v1h1.5v1c.94.37,1.32-.88,1.75-1,.59-.16,1.57.11,2.25,0l-1.5,2.75c1.02,1.64,1.89,1.01,3.25,1.25.2.04.45.77,1.25.5l.5,2.5h-3.5Z"/>
      <path d="M110.75,173.03c-.54-.08-1.32-.45-1.75-.75-2.43-1.69-3.38-4.61-4.5-7,.2-1.19-.57-5.37.75-5.75.83-.24,2.58,1.17,2.75,1.75.48,1.67,1.35,3.14,2,5,.26.76,1.39,2.99,1.5,3.5.16.75.15,3-.75,3.25Z"/>
      <path d="M158.5,256.53c-1.42-.01-1.99-1.97-3.25-.5l-3.75-.5.5,2-4.5.5c-.08-1.64,1.25-1.61,2.5-1.5l.5-2c-1.41.1-2.25,1.35-3.75,1-.2-.05-.34-.68-1-.5-.6.16-1.25.84-2.5.5-.45-.12-1.21-1.63-2.75-1l1-1.75-.5-1.25.5,1c1.02-.14,1.96.33,2.75,1l2.25-.5c-.11-.93-.02-1.45.75-2l.25,1c.72.08,1.58-.12,2.25,0,1.06.19,3.14,1.35,4,1.5,1.49.26,3.14-.32,4.25,1.25l.5,1.75Z"/>
      <path d="M190.5,433.28l-.5,2.25c-1,.14-1.66-.62-1.5-1.5-1.88.28-2.52-2.05-4.25-1l-1-1-1,.5c-3.45-1.36-6.82-2.46-10.5-3.5l-2.75-1.5c.86.09,1.29.42,2.25.5.89.08,2,.2,2.5-.5h.5c1.39,1.24,3.74,1.59,5.5,2,2.99.7,5.89,1.06,9,2l1.75,1.75Z"/>
      <path d="M244.5,487.03l-3.75,4c-3.1,1.11-6,2.36-8.5,4.5l-2.25.5c-.22-1.15.14-1.29.75-2,2.17-2.56,4.77-3.24,7-5.5l1.5.5,2-2h3.25Z"/>
      <path d="M248.5,493.03c-.06.06.17.91-.75,1.5-3.82,2.44-7.27,6.1-12.25,6.5v1h-2.5c-.13-.66.22-1.17.75-1.5,1.82-1.16,4.13-1.7,6.25-2.5v-1c2.1-.27,3.49-2.36,5.25-3.5.84-.02,3.88-3.37,4.75-2.5.55,2.01-1.3,1.8-1.5,2Z"/>
      <path d="M159.5,314.53c-.35.71-1.14,1.51-1.75,2-.1.08-.39-.08-.5,0-.43.33-1.24,1.43-1.5,1.5-.64.18-4.66.12-5.5,0-.15-.02-.84-.88-1.75-.5.21-1.41-1.35-2.37.25-3.5.55-.15.72.43,1.5.5,2.06.18,4.78-1.54,7,.5l2.25-.5Z"/>
      <path d="M247.5,206.78c-1.86,2.17-4.87.83-7.25,1.25-.18.03-.29.44-.5.5l-2.5-.5c-1.02,1.11-1.96,2.38-3.25.75-.32-3,1.38-1.97,3.25-2.25,1.65-.25,4.01-1.28,5.5-1.5,1.73-.25,4.41-.34,4.75,1.75Z"/>
      <path d="M161,116.53h-2l.25-1-.75-3.5,1,.25v-2.25l-1.25,1.5-2-1.5c-.85.83-1.36,1.8-2.75,1.5-.13-1.16.46-2.27,1.25-3l1,.5.5-.5,2.25.5c-.11-.92-.02-1.45.75-2,2.15.44,1.51,1.89,1.75,3.25.03.19.45.3.5.5.26,1.12-.13,1.84-1,2.5.9.72.38,2.11.5,3.25Z"/>
      <path d="M209.5,394.03l-3.75-1.5c-4.58-3.55-10.31-4.98-15-8.5-.65.18-3.04-.74-2.75-1.75.85-1,.76-.87,1.75-.25,1.93,1.2,3.63,1.94,5.5,3,1.69.95,3.81,2.58,5.5,3.5,2.07,1.12,5.5,2.23,7.5,3.5.42.27,1.68,1.6,1.25,2Z"/>
      <path d="M155.5,308.03l-2.25-.5-1.5,1c-1.94.53-3.27-1.64-3.25-3.25l4.5-4-2.5-1c1.21-1.7,2.23.37,3.5-.75v2c-.79-.4-2.49,1.54-2,2h1.5v1h1c.09,1.35,1.48,1.75,1,3.5Z"/>
      <path d="M259.5,271.28c-.34.72.16.76.75.75,1.17-.01,1.99-.77,3.25-.5l-2.25,1.5-2.25.5v2.25l.75.75,3.75.5c-.55,1.62-2.48.85-3.75,1l-2.25-2.75v-1c.9-.56.32-1.64.5-2.5.19-.9,2.85-4.03,3.75-4.75.1-.08.39.08.5,0,1.13-.89,1.94-2.28,3.75-2v1.5l-3.75,1c-.81.4-1,1.4-1.25,1.75-.43.62-1.12,1.21-1.5,2Z"/>
      <path d="M232,279.03v1c-.95-.14-1.64.55-1.5,1.5-1.49.46-1.94-1.37-3.25-1-.41.12-.78,1.34-1.75,1l-.5-2.75c.87-.5.88-2.99,1.75-3.25.85-.25,3.17,2.71,4.25,2.5v1h1Z"/>
      <path d="M250.25,269.53l-4.25,4.25c.15,1.25-.21,2.82,0,4,.03.2.77.45.5,1.25,1.57.3,2.65,1.41,4.5,1,.68.57.06.96-.75,1-2.24.11-3.83.08-5.25-1.75-.12-1.3-.82-2.51-.5-4,.04-.18.86-1.19,1-1.5.12-.25-.09-.67,0-1,.19-.67,2.39-1.6,2-2.75l5.5-2.5-.25,1.5-2.5.5Z"/>
      <path d="M130.5,382.28c-.16-.59.11-1.57,0-2.25l-1.25.5-1.5-2h-1l-1.75,1.25,2.5.25c.27.82-.43,1-.5,1.25-.18.66.45.8.5,1,.13.58-.15,1.46,0,2,.18.66,2.54,2.67,3.25,1.25l.75-1.25c.37-1.26-.88-1.58-1-2ZM129.25,381.53c-.32,0-.32-.5,0-.5s.32.5,0,.5ZM129.5,385.03c-.12-.94,0-1.73,1-2,.12.94,0,1.73-1,2Z"/>
      <path d="M187,467.03v3l-2.25-1-4.75.5c-.35-.96.89-1.34,1-1.75.19-.69.31-1.69.5-2.5.18-.79-.35-1.6.75-2.25l-.25,1.75,3,1.75v2l2-1.5Z"/>
      <path d="M60.5,155.78l1,2.5-1,1.75h-2.25c-.23-.06-1.22-1.59-1.25-1.75-.29-1.36.28-2.87,1.25-3.75l1.75.5v-1.5l1.5.75-1,1.5Z"/>
      <path d="M151.5,222.53c-1.1-.2-1.59.19-2.25,1l-1.5-.5-1.5,2h-1.5l-1.75-1v-1.25l.75-.75c.61-.1,1.47.14,2,0,.8-.22,1.17-1.65,3.5-.5l1-1,1.25,2Z"/>
      <path d="M38,217.28c-.34.54-.34,1.57-.5,2-.11.3-.76.43-.5,1.25h-2.75c-1.54-1.23-.38-1.33.25-2.25.36-.52,1.52-2.55,2.25-2.75.88-.24,1.75.32,2.5-1,2.01,1.68-.59,1.71-1.25,2.75Z"/>
      <path d="M83,301.53c-.38.37-2.23-1.22-2.75-1.5-.12-.07-.36.07-.5,0-.83-.41-1.54-1.29-2.75-1l1.5-.5v-1h-1.25l-1.75-3c.47-.42,3.16,1.62,3.75,2,.12.08.38-.08.5,0,.87.56,1.48,1.46,1.25,2.5h1.5l-.5.75,1,1.75Z"/>
      <path d="M174,245.28l-1.25.75-2.75-.5c.24-1.15-1.39-1.44-1-2.75.03-.09,1.16-1.23,1.25-1.25l1,.5c.57.16,1-.78,2-.5,1.28.36.73,2.34-.25,2.75l1,1Z"/>
      <path d="M237,280.28l-1.5-.25,2.5-3.75c.05-.16-.41-1.36-.5-1.5-.6-.94-2.3-.79-2-2.25-2.03-.77-2.67,2.7-3.75,3-2.27.62-4.57-1.48-2-3,1.09-.65,2.02-.28,3-.5.23-.05.46-.79,1-.5.4.77,1.11.34,1.5.5.2.08.29.4.5.5.15.07.39-.06.5,0,.23.14,1.72,1.63,1.75,1.75.09.31-.09.7,0,1,.07.21.47.32.5.5.3,1.65-.57,3.16-1.5,4.5Z"/>
      <path d="M147,90.03l-.5,2c-.96-.36-1.73.64-2.25.5-.2-.06-.31-.46-.5-.5-1.37-.31-2.68.57-3.75-1.25.75-1.19,1.77-.57,2.75-.75.19-.03.31-.47.5-.5,1.38-.21,2.47.17,3.75.5Z"/>
      <path d="M162.5,305.28v.5c-.92.36-1.8,3.05-2.75,2.75-.94-.3-.93-2.95-.75-3.75.04-.18.4-.28.5-.5.07-.16-.06-.39,0-.5.12-.2,1.14-1.21,1.25-1.25,1.44-.48,1.05,2.37,1.75,2.75Z"/>
      <path d="M229.75,264.03c-.26.07-.66.81-1,1-.51.27-1.55.37-2,1l-2.75-1.25,1.25-1.75c.95.11,2.11-.16,3,0,.18.03.29.44.5.5.82.26,2.13-.92,3.25-.5.36,1.75-1.35.75-2.25,1Z"/>
      <path d="M206.98,384.53h-2.23c-.9-1.6-2.33-.68-3.5-1-.23-.06-.76-.64-2-1-.43-.12-1.56-1.87-2-2-.82-.25-2.08.68-1.75-1,1.05-.18,1.81.17,2.75.5,1.37.49,3.76,2.43,4,2.5.6.17,1.33.19,2,.5.93.43,1.62,1.5,2.73,1.5Z"/>
      <path d="M228.5,358.03l.25-1-1.5,1-4.75-.75,2.25-1.25c1.31-.24,2.16.32,3.25.5-.21-.63.51-1.72,1.25-1.5.93.27.51,1.78,1.25,2.25l-2,.75Z"/>
      <path d="M189.5,426.78c-.19.89.42,2.93-.75,3.25-1.26.35-3.14-.15-4-1-.5-.25.37-.97.5-1,1.2-.32,2.92.63,3.75-.75l.5-3.25c2.09.79.17,1.96,0,2.75Z"/>
      <path d="M146.5,300.28l.5,2.25h-3c-.45-1.51,1.37-1.95,1-3.25-.16-.54-1.85-1.17-1.5-2.25h1v1c1.25-.25,1.72.4,2.5,1.25l-.5,1Z"/>
      <path d="M235,282.28c-1.74,2.33-4.28,1.71-7,1.75l1.75-1.5c1.43,1.36,3.54-.02,3.25-2l2,1.75Z"/>
      <path d="M132.5,230.53c-.92-.11-1.45-.02-2,.75l-1-.5c.84-.51.34-1.33.5-2,.05-.2.45-.3.5-.5.2-.85-.07-1.54-.5-2.25,2.18.24,2.71,2.69,2.5,4.5Z"/>
      <path d="M160,261.03c-1.13-.62-2.02,1.22-2.75,1-1.2-.36-.84-2.21.25-2.75l-.5-1,.75-.75,1.75.5-.5,2h.75l.25,1Z"/>
      <path d="M253,205.03l-3-.5.5,2h-1c.14-.87-.78-1.31-.5-2.25.41-1.38,2.53-1.01,3.25-1.75l1.25.5-.5,2Z"/>
      <path d="M107.5,456.78l-1,1.5c.78.67.99,2.1-.5,1.75l-.5-7c.93.3,1.46,1.07.5,1.75l1.5.75v1.25Z"/>
      <path d="M135.25,315.53l-1-1-.5.5-1.25-1.75.75-1.25c.73-.22,1.54,1.57,2.75,1,.03,1.03.21,1.86-.75,2.5Z"/>
      <path d="M138.5,112.03l-.25,2-2.25,2c.06-.84-.22-1.74.25-2.5.17-.27.59-.48.75-.75.3-.5-.5-1.03,1.5-.75Z"/>
      <path d="M20,246.53l-1.5-.25-.5-2.5c-1-.56-1.91-3.07,0-2.75l2,5.5Z"/>
      <path d="M15,235.53c-1.44-1.35-3.8-3.55-1.75-5.5l.75,2.75c1.07.76,1.13,1.51,1,2.75Z"/>
      <path d="M175.5,70.03l-.5,2-3.5-.5c-.1-1.48,1.38-2.07,2.25-1l1.75-.5Z"/>
      <path d="M183.5,267.03l-.5,2.75-1,1.25v-3l-2,.75c1.08-1.15,1.72-2.11,3.5-1.75Z"/>
      <path d="M137.25,306.53l-.75-1.5h.75l2.25-3c.47,2.31-.77,3.09-2.25,4.5Z"/>
      <path d="M29,177.78l-2,.75-.5-2.75c0-.43.99-.33,1.25-.25.39.11,1.35,1.88,1.25,2.25Z"/>
      <path d="M191,417.53c-1.5.27-2.4-1.18-3.75-1l-1.25-1c1.72,0,4.74-.44,5,2Z"/>
      <path d="M260.5,153.28l.5,2.25c-2.08.35-1.9-3.64-.75-4l1,1-.75.75Z"/>
      <path d="M182,124.53l-1.25,2c-.72-.9-2.11-.38-3.25-.5.25-1.19,1.11-.82,1.75-1,.95-.27,1.64-.72,2.75-.5Z"/>
      <path d="M126,48.53c.04.98-1.57.37-2.25.5-.15.03-.52.8-1.5.5-.21-.06-.32-.47-.5-.5-.71-.13-1.7.03-2.5,0-.62-.03-1.86.38-1.75-.5h8.5Z"/>
      <path d="M35,168.03l-.75,3c-1.83-1.31-1.77-3.18.75-3Z"/>
      <path d="M58.5,289.03c-.14-1.64,2.33-2.87,3-1.25.52,1.25-2.29,1.46-3,1.25Z"/>
      <polygon points="266.5 151.53 265 155.03 265 152.78 266.5 151.53"/>
      <polygon points="183.7 101.11 182.3 101.95 180.56 99.04 181.96 98.21 183.7 101.11"/>
      <path d="M55.5,193.03v3c-2.12.08-2.12-3.08,0-3Z"/>
      <path d="M95.5,349.28c0,.87-3.3,1.33-3.5-.25,1.3-.21,2.45-1.21,3.5.25Z"/>
      <path d="M151,323.28c-.72,1.09-1.8.72-3,.75-.1-1.77,1.99-2.08,3-.75Z"/>
      <path d="M306,233.28v1.25c-1.25.25-1.72-.4-2.5-1.25l.75-.75,1.75.75Z"/>
      <path d="M180,73.28l-1,1.75c-1.36.26-.95-.5-1.25-1.5-.19-.63.12-.6.5-1l1.75.75Z"/>
      <path d="M153.25,259.53l-.75-.75v-1.25h2.5c.22,1.34-1.01,1.31-1.75,2Z"/>
      <polygon points="118 382.53 116.25 384.03 114 384.53 115.75 383.03 118 382.53"/>
      <path d="M164,256.53v-1.5l3,.5c.41,1.79-1.96.76-3,1Z"/>
      <path d="M187,110.03c-1.3.25-2.54-.71-2.5-2,1.3-.25,2.54.71,2.5,2Z"/>
      <path d="M140.5,314.53c-1.04-.24-3.41.79-3-1l2.25-.5.75,1.5Z"/>
      <polygon points="219 375.53 216.75 375.03 216.5 373.53 219 375.53"/>
      <path d="M102,297.03c-.5-.03-1,.02-1.5,0-.35-.87,1.54-2.46,2-2,.23.93-.22,1.31-.5,2Z"/>
      <path d="M103,297.03v1l-1.5.5c-.18-.66.28-.94.5-1.5.33.02.67-.01,1,0Z"/>
      <path d="M34.5,156.53l-1.5.5v-2.5c1.26-.12,1.68.8,1.5,2Z"/>
      <rect x="30.63" y="161.16" width="1.74" height="1.74" transform="translate(-132.18 140.67) rotate(-71.56)"/>
      <path d="M160.5,100.03c-.23-1.18.41-2.02,1.5-2.5.14,1.37.05,2.6-1.5,2.5Z"/>
      <polygon points="107 279.03 104 279.03 104 278.03 106.25 278.03 107 279.03"/>
      <polygon points="103.5 367.53 102.75 368.53 100.5 368.53 101.25 367.53 103.5 367.53"/>
      <path d="M146.5,312.53v2c-1.99-.02-1.99-1.98,0-2Z"/>
      <path d="M89.5,300.53v2c-1.99-.02-1.99-1.98,0-2Z"/>
      <polygon points="141.5 110.03 140.25 110.03 139.5 108.53 140.75 108.53 141.5 110.03"/>
      <path d="M236,275.53c-1.08-.27-1.57.56-2.5.5-.09-1.71,1.88-2.19,2.5-.5Z"/>
      <path d="M34,165.53c-.02,1.99-1.98,1.99-2,0h2Z"/>
      <polygon points="150 320.78 149.25 321.53 148 321.53 148.75 320.03 150 320.78"/>
      <path d="M211.25,320.03c-.77.25-1.39.67-2.25.5-.12-.71.39-.45,1-.75.42-.21,1.7-1.01,2-.75.16,1.4-.08.78-.75,1Z"/>
      <rect x="231.5" y="208.03" width="1.5" height="1.5"/>
      <path d="M136.5,387.53v1c-.76.27-1.15-.5-1.25-.5s-.49.77-1.25.5v-1h2.5Z"/>
      <rect x="276.5" y="277.53" width="1.5" height="1.5"/>
      <polygon points="182.5 381.53 182.5 383.03 181 383.53 181 382.28 182.5 381.53"/>
      <path d="M45,178.53v-1c-1.04.03-2.13.27-2.5-1l3.5,1c.13,1.03.07,1.14-1,1Z"/>
      <rect x="187.5" y="438.03" width=".5" height="4"/>
      <path d="M136,250.53v1.5h-1.5c-.14-.95.55-1.64,1.5-1.5Z"/>
      <path d="M115.5,285.53v-2h1c.12.94,0,1.73-1,2Z"/>
      <polygon points="173.5 304.53 173.5 306.03 172.75 306.03 172 305.28 172.75 304.53 173.5 304.53"/>
      <path d="M256,154.53c-.95.14-1.64-.55-1.5-1.5.95-.14,1.64.55,1.5,1.5Z"/>
      <path d="M80.5,242.03h-1v-2c1,.27,1.12,1.06,1,2Z"/>
      <polygon points="160.32 101.12 160 103.03 158.91 102.85 159.22 100.94 160.32 101.12"/>
      <polygon points="134.5 379.03 134 380.53 133.75 380.53 133 379.03 134.5 379.03"/>
      <rect x="184.5" y="266.53" width="1.5" height="1"/>
      <rect x="135.5" y="91.03" width="1.5" height="1"/>
      <polygon points="105.5 282.78 104.75 283.53 104 282.78 104 282.03 104.75 282.03 105.5 282.78"/>
      <rect x="89.72" y="293.75" width="1.06" height="1.06" transform="translate(-181.65 150.01) rotate(-45)"/>
      <polygon points="275 170.03 275 171.03 273.5 171.03 274.25 170.03 275 170.03"/>
      <polygon points="209.5 304.03 209.5 305.53 209.25 305.53 208.5 304.78 208.5 304.03 209.5 304.03"/>
      <polygon points="58.5 286.53 58.5 287.53 57.75 287.53 57 286.78 57 286.53 58.5 286.53"/>
      <polygon points="157.5 309.53 156.75 310.53 156 310.53 156 309.53 157.5 309.53"/>
      <polygon points="139.5 411.53 139.5 413.03 138.5 413.03 138.5 412.28 139.25 411.53 139.5 411.53"/>
      <polygon points="17 238.53 17 240.03 16 240.03 16 239.28 16.75 238.53 17 238.53"/>
      <polygon points="114.5 284.03 113 284.03 113 283.03 113.75 283.03 114.5 284.03"/>
      <polygon points="109.5 283.53 108 283.53 108 282.53 108.75 282.53 109.5 283.53"/>
      <polygon points="170.5 75.53 169 75.53 169 74.53 169.75 74.53 170.5 75.53"/>
      <polygon points="236.5 276.53 235.75 277.53 235 277.53 235 276.53 236.5 276.53"/>
      <circle cx="143.01" cy="320.02" r=".62"/>
      <rect x="150" y="444.53" width="2" height=".5"/>
      <path d="M186.5,447.53v.5c-.75-.21-.91.34-1.5.5v-1h1.5Z"/>
      <path d="M137,323.53v1c-.59-.16-.75-.71-1.5-.5v-.5h1.5Z"/>
      <polygon points="66.5 218.03 65.75 219.03 65 218.28 65 218.03 66.5 218.03"/>
      <polygon points="293 62.53 291.5 62.53 291.5 62.28 292.25 61.53 293 62.53"/>
      <polygon points="194.5 327.03 193.75 328.03 193 327.28 193 327.03 194.5 327.03"/>
      <circle cx="124.51" cy="177.02" r=".62"/>
      <circle cx="257.01" cy="52.02" r=".62"/>
      <path d="M274.5,44.53c-.63.32-1.75-.8-1.5-1,.63-.32,1.75.8,1.5,1Z"/>
      <circle cx="77.51" cy="45.02" r=".62"/>
      <circle cx="213.51" cy="268.02" r=".62"/>
      <circle cx="170.01" cy="268.02" r=".62"/>
      <path d="M101.5,203.53h-1v-1.5h.5c-.21.75.34.91.5,1.5Z"/>
      <path d="M209,386.53c-.2.25-1.32-.87-1-1.5.2-.25,1.32.87,1,1.5Z"/>
      <rect x="106.5" y="288.53" width=".5" height="2"/>
      <circle cx="91.01" cy="292.02" r=".62"/>
      <circle cx="53.01" cy="198.02" r=".62"/>
      <circle cx="85.51" cy="297.52" r=".62"/>
      <circle cx="23.01" cy="253.02" r=".62"/>
      <polygon points="71.5 289.53 70.5 289.53 70.5 288.53 71.5 289.53"/>
      <polygon points="168.5 2.53 168.5 3.53 168.25 3.53 167.5 2.53 168.5 2.53"/>
      <polygon points="131 465.03 130 466.03 130 465.03 131 465.03"/>
      <polygon points="212 435.03 211 435.03 211 434.03 212 435.03"/>
      <polygon points="181.5 390.53 181.5 391.53 180.5 391.53 180.5 391.28 181.5 390.53"/>
      <rect x="140" y="388.03" width="1.5" height=".5"/>
      <polygon points="317 102.03 316 102.03 316 101.03 317 102.03"/>
      <polygon points="212 306.03 211 306.03 211 305.03 212 306.03"/>
      <polygon points="107.5 386.53 107.5 387.53 106.5 387.53 106.5 387.28 107.5 386.53"/>
      <polygon points="145 257.53 143.75 258.03 143.5 257.78 144 256.53 145 257.53"/>
      <polygon points="296.5 67.03 295.5 67.03 295.5 66.03 296.5 67.03"/>
      <polygon points="96 273.53 95 274.53 95 273.53 96 273.53"/>
      <polygon points="100 277.53 100 278.53 99 278.53 99 278.28 100 277.53"/>
      <rect x="255" y="53.03" width=".5" height="1"/>
      <rect x="142.5" y="277.03" width="1" height=".5"/>
      <rect x="332.5" y="193.03" width=".5" height="1"/>
      <rect x="174.5" y="212.53" width="1" height=".5"/>
      <rect x="141" y="327.03" width="1" height=".5"/>
      <rect x="93" y="274.03" width="1" height=".5"/>
      <rect x="126.5" y="468.03" width="1" height=".5"/>
      <rect x="9.5" y="221.53" width="1" height=".5"/>
      <rect x="134" y="465.03" width="1" height=".5"/>
      <rect x="74" y="195.03" width="1" height=".5"/>
      <rect x="246.5" y="153.03" width="1" height=".5"/>
      <rect x="172" y="76.03" width=".5" height="1"/>
      <rect x="131.5" y="380.53" width=".5" height="1"/>
      <rect x="143.5" y="437.53" width=".5" height="1"/>
      <rect x="119.5" y="291.03" width=".5" height="1"/>
      <rect x="276.5" y="46.03" width=".5" height="1"/>
      <rect x="121" y="288.03" width="1" height=".5"/>
      <rect x="183" y="414.53" width="1" height=".5"/>
      <rect x="180.5" y="389.53" width="1" height=".5"/>
      <path d="M190.75,411.03c-.32,0-.32-.5,0-.5s.32.5,0,.5Z"/>
      <path d="M125.75,403.03c-.32,0-.32-.5,0-.5s.32.5,0,.5Z"/>
      <path d="M179.75,303.53c-.32,0-.32-.5,0-.5s.32.5,0,.5Z"/>
      <path d="M143.25,388.53c-.32,0-.32-.5,0-.5s.32.5,0,.5Z"/>
      <path d="M201.75,298.03c-.32,0-.32-.5,0-.5s.32.5,0,.5Z"/>
      <path d="M138.75,388.53c-.32,0-.32-.5,0-.5s.32.5,0,.5Z"/>
      <path d="M45.25,176.03c-.32,0-.32-.5,0-.5s.32.5,0,.5Z"/>
      <path d="M165.25,306.03c-.32,0-.32-.5,0-.5s.32.5,0,.5Z"/>
      <path d="M244.25,242.53c-.32,0-.32-.5,0-.5s.32.5,0,.5Z"/>
      <path d="M122.75,284.53c-.32,0-.32-.5,0-.5s.32.5,0,.5Z"/>
      <path d="M142.75,436.03c-.32,0-.32-.5,0-.5s.32.5,0,.5Z"/>
      <path d="M128.25,226.03c-.32,0-.32-.5,0-.5s.32.5,0,.5Z"/>
      <path d="M170.75,440.03c-.32,0-.32-.5,0-.5s.32.5,0,.5Z"/>
      <path d="M155.75,441.03c-.32,0-.32-.5,0-.5s.32.5,0,.5Z"/>
      <path d="M46.25,180.53c-.32,0-.32-.5,0-.5s.32.5,0,.5Z"/>
      <path d="M229.25,50.03c-.32,0-.32-.5,0-.5s.32.5,0,.5Z"/>
      <path d="M36.25,171.53c-.32,0-.32-.5,0-.5s.32.5,0,.5Z"/>
      <path d="M78.25,163.03c-.32,0-.32-.5,0-.5s.32.5,0,.5Z"/>
      <path d="M112.25,368.53c-.32,0-.32-.5,0-.5s.32.5,0,.5Z"/>
      <path d="M176.75,270.03c-.32,0-.32-.5,0-.5s.32.5,0,.5Z"/>
      <path d="M114.25,279.53c-.32,0-.32-.5,0-.5s.32.5,0,.5Z"/>
      <path d="M101.75,278.53c-.32,0-.32-.5,0-.5s.32.5,0,.5Z"/>
      <path d="M204.25,275.03c-.32,0-.32-.5,0-.5s.32.5,0,.5Z"/>
      <path d="M250.75,200.53c-.32,0-.32-.5,0-.5s.32.5,0,.5Z"/>
      <path d="M291.25,61.03c-.32,0-.32-.5,0-.5s.32.5,0,.5Z"/>
      <path d="M157.75,1.03c-.32,0-.32-.5,0-.5s.32.5,0,.5Z"/>
      <path d="M281.25,74.53c-.78-.22-.64-.85-.5-1.5.16-.74.72-2.27,1.5-2.5.54-.16,1.18-.02,1.5.5.75,1.22-.99,3.93-2.5,3.5Z"/>
      <path d="M271.75,183.53c-1.15-.02-1.33-.47-1.5-.5-1.1-.2-2.58.14-3.75,0l2-1.5v-1h.5l.75,1.5,2.75.5c.03.97.25,1.02-.75,1Z"/>
      <path d="M259.25,194.53l-2.75-2.25.25-1.75c.54-.14,1.21.6,1.5,1,.33.45.23.72.25.75.62.79,2.16,1.31.75,2.25Z"/>
      <path d="M267,171.53l-.5,2c-.1.09-.51-.13-.75,0-1.49.83.17,2.85-1.75,2.5l.5-3.25.5-1.25h2Z"/>
      <path d="M149.5,71.53c.2,1.22-.43,2.69-1.5,1.25l1-1.5-.5-1.75c2.28-.5,3.78,1.55,1,2Z"/>
      <path d="M196,96.28c1.23-1.08-.96-2.34-.5-3.75l1.5,1.75.5,1.75-1.5.25Z"/>
      <path d="M73.5,135.28c-.19.55.21,1.53-1,1.75v-2.25l1.5-.75c.27.82-.4.96-.5,1.25Z"/>
      <polygon points="254.5 179.03 254.25 180.03 253.5 180.03 253 182.53 253 178.53 254.5 179.03"/>
      <path d="M280.5,63.53h-1.25c-.67-.5-.87-1.27-1.25-2,.53-.45,2.25,1.28,2.5,2Z"/>
      <polygon points="147.5 119.78 146.75 120.53 145.5 120.53 145.5 119.03 146.75 119.03 147.5 119.78"/>
      <path d="M195.5,92.03l-1.5-.75-.5-1.75h1c-.26,1.13,1.2,1.29,1,2.5Z"/>
      <polygon points="47 109.53 48 108.53 47.5 107.03 50 108.03 47 109.53"/>
      <path d="M152,74.53h-1.5v-2h1c-.15.85.1,1.31.5,2Z"/>
      <polygon points="155 69.53 154.25 71.03 153 70.28 153.75 69.53 155 69.53"/>
      <path d="M261.5,200.53v1c-.76-.21-.91.34-1.5.5v-1.5h1.5Z"/>
      <path d="M142,70.03v-1l1.5-.5c.14.95-.55,1.64-1.5,1.5Z"/>
      <polygon points="262.18 197.92 261.45 198.36 260.17 196.23 260.9 195.79 262.18 197.92"/>
      <polygon points="200 260.28 199.25 261.03 198.5 261.03 198.5 260.28 199.25 259.53 200 260.28"/>
      <rect x="309.5" y="93.03" width="1" height="1.5"/>
      <polygon points="90.5 72.03 90.5 73.53 90.25 73.53 89.5 72.78 89.5 72.03 90.5 72.03"/>
      <polygon points="84 83.03 84 84.53 83.75 84.53 83 83.78 83 83.03 84 83.03"/>
      <polygon points="274 175.28 274 176.03 273 176.03 273 174.53 274 175.28"/>
      <polygon points="131.5 106.53 132 105.78 131.5 105.28 131.75 105.03 133 106.53 131.5 106.53"/>
      <circle cx="195.01" cy="72.52" r=".62"/>
      <circle cx="154.01" cy="114.52" r=".62"/>
      <path d="M196,255.03c-.32-.63.8-1.75,1-1.5.32.63-.8,1.75-1,1.5Z"/>
      <circle cx="63.01" cy="104.52" r=".62"/>
      <polygon points="118.5 59.53 117.5 60.53 117.5 59.53 118.5 59.53"/>
      <polygon points="142.5 78.03 141.5 79.03 141.5 78.03 142.5 78.03"/>
      <polygon points="91.5 60.53 90.5 60.53 90.5 59.53 91.5 60.53"/>
      <rect x="129" y="108.03" width="1" height=".5"/>
      <rect x="196" y="115.03" width="1" height=".5"/>
      <rect x="44.5" y="78.53" width="1" height=".5"/>
      <rect x="210.5" y="239.03" width="1" height=".5"/>
      <path d="M73.25,151.53c-.32,0-.32-.5,0-.5s.32.5,0,.5Z"/>
      <path d="M269.5,33.53v2h-.25c-.77-.55-.86-1.07-.75-2h1Z"/>
      <rect x="208.5" y="18.53" width="1.5" height="1"/>
      <polygon points="273 34.03 273 35.03 272.25 35.03 271.5 34.28 271.5 34.03 273 34.03"/>
      <rect x="63" y="37.53" width="1" height=".5"/>
      <rect x="113" y="45.53" width="1" height=".5"/>
      <rect x="128" y="46.03" width="1" height=".5"/>
      <path d="M170.75,1.53c.32,0,.32.5,0,.5s-.32-.5,0-.5Z"/>
      <path d="M100.25,495.03c.32,0,.32.5,0,.5s-.32-.5,0-.5Z"/>
      <path d="M128,216.53h-1v-2c1,.27,1.12,1.06,1,2Z"/>
      <rect x="118" y="214.03" width=".5" height="1"/>
      <rect x="58" y="215.03" width="1.5" height="1"/>
      <polygon points="131 427.03 129.5 427.03 129.5 426.03 130.25 426.03 131 427.03"/>
      <rect x="119.5" y="426.53" width=".5" height="1"/>
      <path d="M127.25,426.53c.32,0,.32.5,0,.5s-.32-.5,0-.5Z"/>
      <path d="M129.5,385.03c-.12-.94,0-1.73,1-2,.12.94,0,1.73-1,2Z"/>
      <path d="M129.25,381.03c.32,0,.32.5,0,.5s-.32-.5,0-.5Z"/>
      <rect x="85" y="42.53" width="1" height=".5"/>
    </g>
  </g>
</svg>